<?xml version="1.0" encoding="utf-8"?>
<!-- Generator: Adobe Illustrator 16.0.4, SVG Export Plug-In . SVG Version: 6.00 Build 0)  -->
<!DOCTYPE svg PUBLIC "-//W3C//DTD SVG 1.1//EN" "http://www.w3.org/Graphics/SVG/1.1/DTD/svg11.dtd">
<svg version="1.1" id="bird-wing" xmlns="http://www.w3.org/2000/svg" xmlns:xlink="http://www.w3.org/1999/xlink" x="0px" y="0px"
	 width="2554.794px" height="1427.054px" viewBox="0 0 2554.794 1427.054" enable-background="new 0 0 2554.794 1427.054"
	 xml:space="preserve">
<g>
	<path fill="#FFFFFF" d="M496.263,476.42c3.898-1.395,9.414-0.73,9.049-5.438c-1.398-3.902-3.235-4.121-7.133-2.725
		c6.766-1.984,3.751-7.941,2.359-11.842c-0.124-0.592-0.265-1.018-0.416-1.359c-11.542,12.551-35.825,28.055-35.825,28.055
		c-2.36,7.773,16.755,6.48,30.849,3.975C497.579,484.379,499.045,479.969,496.263,476.42z"/>
	<path fill="#FFFFFF" d="M506.851,477.309c-0.403-0.312-0.685-0.51-0.685-0.51S506.404,477.034,506.851,477.309z"/>
	<path fill="#CDCDD4" d="M511.477,458.959c6.1-4.396,0.812-22.121-7.21-9.182c-1.028,1.656-2.452,3.438-4.144,5.279
		c0.15,0.342,0.292,0.768,0.416,1.359c1.393,3.9,4.407,9.857-2.359,11.842c3.897-1.396,5.735-1.178,7.133,2.725
		c0.365,4.707-5.15,4.043-9.049,5.438c2.782,3.549,1.316,7.959-1.117,10.666c7.299-1.297,13.251-2.922,14.179-3.779
		c2.123-1.977-1.015-4.844-2.474-5.998c-0.446-0.275-0.685-0.51-0.685-0.51s0.282,0.197,0.685,0.51
		c1.275,0.799,4.26,1.959,8.342-0.953c5.505-3.932-3.099-8.119-3.099-8.119s6.759,1.338,9.092-7.137
		C523.518,452.633,505.38,463.358,511.477,458.959z"/>
	<g>
		<g>
			<path fill="#8A8899" d="M465.146,484.563c9.827-6.287,19.357-13.194,28.229-20.769c2.857-2.439,5.593-5.019,8.146-7.775
				c2.509-2.711,4.307-6.86,7.337-8.908c3.349-2.263,3.646,6.047,3.361,7.517c-0.462,2.379-3.207,2.96-3.616,4.97
				c-0.178,0.872,0.239,1.846,1.174,2.068c2.179,0.518,5.449-1.573,7.561-2.062c4.372-1.012,1.388,3.799-0.263,5.523
				c-1.108,1.157-3.678,1.636-4.534,1.489c-1.757-0.3-3.116,2.153-1.295,3.072c1.083,0.547,2.06,1.221,2.973,2.021
				c3.154,2.768-4.232,6.295-6.864,3.901c-0.679,0.88-1.358,1.76-2.037,2.64c0.813,0.572,4.24,3.279,2.402,4.047
				c-1.281,0.534-2.651,0.878-3.988,1.234c-4.603,1.226-9.323,2.05-14.032,2.737c-2.825,0.413-25.331,3.442-23.781-2.71
				c0.53-2.104-2.712-2.995-3.241-0.895c-2.982,11.834,22.713,7.57,27.916,6.847c5.993-0.835,12.341-1.795,18.021-3.973
				c5.746-2.203,1.877-7.744-1.599-10.19c-1.57-1.105-3.437,1.366-2.037,2.64c3.476,3.161,9.837,2.137,12.586-1.572
				c3.004-4.052-1.045-7.824-4.622-9.63c-0.432,1.023-0.863,2.048-1.295,3.072c2.394,0.409,4.728-0.216,6.754-1.51
				c2.503-1.599,5.629-6.479,4.559-9.599c-0.81-2.358-2.954-2.903-5.256-2.592c-1.549,0.209-3.025,0.645-4.503,1.144
				c-0.891,0.301-3.638,0.859-2.53,1.122c0.392,0.689,0.783,1.379,1.174,2.068c-0.231,1.133,1.343-0.769,1.892-1.388
				c0.893-1.006,1.363-2.312,1.724-3.583c0.851-2.995,0.239-6.436-1.177-9.144c-4.321-8.267-11.117,2.465-13.831,5.771
				c-9.831,11.971-24.044,21.221-37.003,29.513C461.63,482.825,463.314,485.735,465.146,484.563z"/>
		</g>
	</g>
</g>
</svg>
