<?xml version="1.0" encoding="utf-8"?>
<!-- Generator: Adobe Illustrator 16.0.4, SVG Export Plug-In . SVG Version: 6.00 Build 0)  -->
<!DOCTYPE svg PUBLIC "-//W3C//DTD SVG 1.1//EN" "http://www.w3.org/Graphics/SVG/1.1/DTD/svg11.dtd">
<svg version="1.1" id="char1-hands" xmlns="http://www.w3.org/2000/svg" xmlns:xlink="http://www.w3.org/1999/xlink" x="0px"
	 y="0px" width="2554.794px" height="1427.054px" viewBox="0 0 2554.794 1427.054" enable-background="new 0 0 2554.794 1427.054"
	 xml:space="preserve">
<g>
	<path fill="#F4EDE1" d="M1102.017,960.794c0,0,13.522-5.561,44.764-21.312s89.528-35.675,102.584-28.726
		c13.056,6.95,16.321,63.474,6.528,66.717s-97.455,31.505-110.511,23.166c-13.056-8.34-34.039-5.097-34.039-5.097L1102.017,960.794z
		"/>
	<g>
		<path fill="#1D1B3A" d="M1102.689,963.234c13.132-5.418,25.886-11.854,38.595-18.174c20.99-10.438,42.463-19.416,64.928-26.21
			c9.513-2.877,19.278-5.491,29.172-6.628c5.266-0.605,12.019-1.465,15.491,3.389c4.247,5.938,5.633,14.13,6.776,21.165
			c1.369,8.427,1.759,17.123,1.132,25.636c-0.211,2.873-0.471,11.604-4.034,12.777c-4.054,1.336-8.125,2.619-12.2,3.888
			c-15.625,4.866-31.361,9.411-47.24,13.379c-14.011,3.501-29.283,7.866-43.868,7.123c-1.614-0.083-3.37-0.284-4.783-1.124
			c-4.601-2.733-9.525-4.313-14.787-5.214c-6.932-1.187-14.245-1.179-21.202-0.138c1.037,0.589,2.074,1.178,3.111,1.767
			c-3.108-11.582-6.217-23.165-9.326-34.748c-0.845-3.147-5.725-1.81-4.878,1.346c3.108,11.582,6.217,23.165,9.326,34.748
			c0.389,1.449,1.756,1.97,3.111,1.767c7.585-1.136,16.277-0.693,23.875,1.289c3.816,0.996,6.863,3.326,10.511,4.568
			c2.151,0.732,4.59,0.818,6.84,0.859c15.2,0.275,30.946-4.223,45.549-7.9c15.871-3.998,31.591-8.612,47.208-13.5
			c3.67-1.148,8.087-1.937,11.5-3.772c4.336-2.332,5.284-8.651,5.895-13.006c2.145-15.313,0.619-33.187-5.142-47.6
			c-1.966-4.919-4.81-9.732-10.144-11.354c-6.405-1.946-14.056-0.401-20.455,0.733c-43.272,7.672-81.4,29.89-120.91,47.686
			c-1.549,0.697-4.852,2.145-5.398,2.369C1098.373,959.582,1099.673,964.478,1102.689,963.234z"/>
	</g>
</g>
<g>
	<path fill="#F4EDE1" d="M1256.379,1029.555c-9.646,4.483-67.12,23.315-98.875,9.447c-29.235-12.768-37.256,27.818-62.604,21.115
		c-20.192-5.963-22.224-9.936-15.638-33.678c7.743-27.916,62.553-39.803,83.995-49.505c40.442-18.299,78.837-21.435,85.252-23.494
		c14.287-4.59,31.947,24.787,31.811,38.354S1256.379,1029.555,1256.379,1029.555z"/>
	<g>
		<path fill="#1D1B3A" d="M1255.169,1027.485c-14.754,6.731-31.839,10.183-47.766,12.534c-11.279,1.666-22.965,2.31-34.292,0.75
			c-9.286-1.279-17.683-6.681-27.085-6.66c-15.848,0.034-24.601,15.996-37.497,22.465c-7.851,3.938-17.215,0.789-24.493-3.067
			c-7.672-4.064-5.895-12.346-4.26-19.497c2.218-9.702,5.839-16.71,13.513-23.178c7.531-6.347,16.761-10.739,25.728-14.64
			c9.222-4.012,18.763-7.27,28.243-10.606c9.322-3.281,18.256-7.243,27.429-10.899c22.188-8.844,45.398-13.73,68.845-17.77
			c2.177-0.375,4.313-0.806,6.441-1.391c4.375-1.202,8.997,2.302,12.01,4.989c7.329,6.54,12.651,16.282,15.162,25.7
			c2.6,9.751-3.677,18.479-9.168,26.015c-4.014,5.509-8.522,10.761-13.295,15.63c-2.166,2.209,1.224,5.602,3.392,3.391
			c9.618-9.81,21.366-22.528,24.298-36.32c1.657-7.795-2.369-16.43-5.928-23.121c-4.117-7.742-10.179-15.794-18.259-19.672
			c-5.644-2.709-10.921-0.707-16.667,0.282c-9.539,1.644-19.054,3.317-28.493,5.479c-14.106,3.229-27.956,7.518-41.399,12.876
			c-8.915,3.553-17.609,7.359-26.671,10.549c-18.168,6.395-37.363,12.632-52.889,24.398c-6.356,4.817-11.711,10.771-14.554,18.303
			c-2.724,7.217-5.375,17.256-3.38,24.979c1.695,6.562,8.524,9.487,14.289,11.565c7.793,2.811,14.852,3.697,22.527,0.146
			c13.59-6.286,22.348-24.354,39.37-21.476c4.554,0.771,8.724,3.118,13.142,4.406c4.974,1.45,10.183,2.109,15.335,2.511
			c10.843,0.845,21.805-0.254,32.518-1.91c15.505-2.397,31.916-6.069,46.274-12.62
			C1260.4,1030.343,1257.961,1026.211,1255.169,1027.485z"/>
	</g>
</g>
</svg>
