<?xml version="1.0" encoding="utf-8"?>
<!-- Generator: Adobe Illustrator 16.0.4, SVG Export Plug-In . SVG Version: 6.00 Build 0)  -->
<!DOCTYPE svg PUBLIC "-//W3C//DTD SVG 1.1//EN" "http://www.w3.org/Graphics/SVG/1.1/DTD/svg11.dtd">
<svg version="1.1" id="char1" xmlns="http://www.w3.org/2000/svg" xmlns:xlink="http://www.w3.org/1999/xlink" x="0px" y="0px"
	 width="2554.794px" height="1427.054px" viewBox="0 0 2554.794 1427.054" enable-background="new 0 0 2554.794 1427.054"
	 xml:space="preserve">
<g>
	<path fill="#F5F6F6" d="M1125.405,1012.899c0,0-11.359-26.775-10.219-33.316c0.183-1.052-1.599-15.508-2.059-31.127
		c0,0-13.59,5.504-29.582,6.184c0,0-6.897,52.297,7.191,61.359C1104.823,1025.061,1125.405,1012.899,1125.405,1012.899z"/>
	<g>
		<path fill="#1D1B3A" d="M1127.475,1011.689c0.364,0.858-0.782-1.901-0.979-2.386c-0.854-2.098-1.679-4.207-2.49-6.321
			c-2.135-5.568-4.146-11.212-5.628-16.993c-0.896-3.495-0.747-6.888-1.054-10.443c-0.779-9.022-1.5-18.036-1.799-27.09
			c-0.047-1.415-1.525-2.915-3.036-2.312c-9.137,3.65-19.159,5.568-28.944,6.099c-1.438,0.077-2.221,1.044-2.398,2.397
			c-2.088,15.977-3.112,33.204,0.309,49.036c2.097,9.706,7.182,16.125,17.397,17.76c9.287,1.486,19.751-1.796,27.761-6.466
			c2.669-1.556,0.256-5.702-2.421-4.141c-7.4,4.314-16.807,7.144-25.361,5.774c-10.447-1.672-12.634-11.155-13.785-20.208
			c-1.742-13.699-0.892-28.087,0.895-41.756c-0.799,0.8-1.599,1.599-2.398,2.397c10.215-0.553,20.682-2.459,30.219-6.269
			c-1.012-0.771-2.024-1.542-3.036-2.312c0.298,9.052,1.006,18.069,1.799,27.09c0.352,3.996,0.276,7.77,1.225,11.718
			c2.209,9.194,5.903,18.152,9.582,26.846C1124.536,1016.949,1128.666,1014.501,1127.475,1011.689z"/>
	</g>
</g>
<g>
	<path fill="#F5F6F6" d="M1080.78,1010.437c2.968-0.949,34.802-23.203,34.764-20.246c-0.039,2.955,33.925,43.812,31.594,71.381
		c-0.371,4.393-33.507,18.037-33.507,18.037L1080.78,1010.437z"/>
	<g>
		<path fill="#1D1B3A" d="M1081.418,1012.75c4.263-1.613,8.178-4.804,11.974-7.255c6.006-3.88,11.983-7.843,18.209-11.364
			c0.892-0.505,1.799-0.979,2.721-1.427c0.322-0.155,0.61-0.26,0.946-0.369c1.356-0.441-2.62-3.531-2.022-1.378
			c0.417,1.503,1.433,2.871,2.268,4.16c3.821,5.901,7.838,11.665,11.547,17.641c5.127,8.261,9.831,16.852,13.369,25.921
			c1.603,4.107,2.848,8.346,3.706,12.67c0.465,2.348,1.985,8.476,0.06,10.304c-4.713,4.476-12.125,7.116-17.924,9.812
			c-4.382,2.036-8.81,3.99-13.278,5.833c0.903,0.367,1.806,0.735,2.708,1.103c-10.95-23.058-21.9-46.115-32.851-69.172
			c-1.326-2.793-5.46-0.357-4.141,2.42c10.95,23.058,21.9,46.115,32.851,69.172c0.416,0.877,1.789,1.481,2.708,1.103
			c11.053-4.561,24.168-9,33.318-16.879c4.906-4.224,1.237-15.535-0.19-20.68c-2.719-9.805-7.478-19.073-12.512-27.864
			c-4.248-7.418-9.021-14.509-13.776-21.606c-1.131-1.688-2.336-3.372-3.254-5.19c0.531,1.052-0.393-1.061-0.641-1.335
			c-0.729-0.807-1.72-0.895-2.721-0.757c-5.17,0.715-10.896,5.669-15.148,8.363c-6.019,3.812-11.904,7.865-18.038,11.492
			c-0.232,0.137-1.5,0.786-1.165,0.659C1077.279,1009.208,1078.52,1013.846,1081.418,1012.75z"/>
	</g>
</g>
<path fill="#D9D8DE" d="M623.526,817.445c-15.892,4.543-128.719,36.32-128.719,36.32l45.515,370.583l214.874-4.612L623.526,817.445z
	"/>
<path fill="#1D1B3A" d="M931.67,960.163c-3.942,0.539,162.126-15.432,162.126-15.432s-0.921,44.427,3.159,60.807
	c4.077,16.377-153.31,32.86-158.161,33.741C933.941,1040.157,931.67,960.163,931.67,960.163z"/>
<g>
	<path fill="#1D1B3A" d="M801.282,1224.308c0,0,100.352-503.104,111.512-489.529c61.666,75.006,8.498,449.83,8,488
		C920.725,1228.054,801.282,1224.308,801.282,1224.308z"/>
	<g>
		<path fill="#F4EDE1" d="M783.621,747.821c-31.875-14.176-64.6-29.262-94.377-48.076c16.297-108.92,25.885-270.64,25.885-270.64
			c29.431,4.119,154.73-35.003,151.516-3.046c-9.475,94.184,34.484,231.046,40.484,311.713
			c-10.689,13.232-11.677,20.748-22.413,35.074C858.646,806.75,815.082,764.065,783.621,747.821z"/>
	</g>
	<g>
		<path fill="#F5F6F6" d="M685.1,681.373c29.779,18.814,65.719,65.236,97.591,79.412c31.466,16.248,75.141,18.783,95.706,13.926
			c2.352-0.555,35.54-59.245,34.398-61.604c4.147,3.672,7.806,34.353,11.333,37.667c7.498,181.137-43.282,445.787-51.812,470.869
			l-58.628,4.605l-185.25-454.381C636.975,766.472,677.097,700.304,685.1,681.373z"/>
	</g>
	<g>
		<path fill="#F4EEE5" d="M831.664,515.671c12.176,18.307,96.416,50.098,82.627,68.891c-16.599,23.721-89.248-15.977-94.416-36.494"
			/>
		<g>
			<path fill="#1D1B3A" d="M829.593,516.881c3.181,4.608,7.872,7.996,12.398,11.178c6.68,4.694,13.769,8.813,20.806,12.941
				c14.49,8.498,30.006,16.438,42.709,27.565c3.354,2.938,8.106,7.198,7.885,12.103c-0.242,5.353-8.116,7.885-12.265,8.559
				c-7.638,1.24-15.862-0.825-23.121-3.028c-8.828-2.679-17.252-6.618-25.286-11.119c-7.194-4.031-14.093-8.694-20.278-14.158
				c-4.078-3.603-8.759-8.072-10.255-13.491c-0.821-2.977-5.449-1.711-4.624,1.275c3.496,12.668,18.564,21.962,28.985,28.32
				c14.261,8.702,30.945,16.132,47.813,17.196c8.995,0.567,26.004-3.618,23.657-16.02c-0.957-5.055-4.893-9.146-8.534-12.501
				c-5.565-5.129-12.003-9.348-18.368-13.398c-11.129-7.085-22.702-13.445-34-20.251c-7.839-4.722-18.039-9.85-23.382-17.591
				C831.99,511.934,827.831,514.329,829.593,516.881L829.593,516.881z"/>
		</g>
	</g>
	<g>
		<g>
			<path fill="#1D1B3A" d="M828.545,630.13c2.178,0.531,6.896,1.365,7.021,4.306c0.105,2.493-3.021,5.024-4.648,6.493
				c-4.53,4.089-10.57,7.572-16.435,9.299c-2.959,0.872-1.699,5.501,1.275,4.625c7.922-2.333,16.335-7.357,21.653-13.719
				c6.452-7.719,0.553-13.641-7.591-15.629C826.816,624.772,825.542,629.397,828.545,630.13L828.545,630.13z"/>
		</g>
	</g>
	<path fill="#F1EBE2" d="M684.586,486.201c-0.542,12.453,9.36,23.029,22.106,23.621c12.75,0.59,23.529-9.02,24.07-21.475
		c0.54-12.455-9.363-23.031-22.11-23.625C695.907,464.134,685.126,473.748,684.586,486.201z"/>
	<path fill="#1B1D3A" stroke="#1D1B3A" stroke-width="0.9592" stroke-miterlimit="10" d="M745.462,508.185
		c-0.679-5.449-1.54-10.902-2.675-16.301c1.473-0.861,2.606-2.418,2.969-4.426c0.976-5.424,0.563-10.996-0.674-16.527
		c1.515-1.227,2.486-3.24,2.235-5.473c-1.429-12.762-6.548-24.043-12.831-35.207c-2.957-5.258-10.514-2.428-10.64,2.342
		c-1.519-0.906-3.132-1.73-4.894-2.418c-2.937-1.146-6.209,0.877-7.132,3.617c-3.721-0.672-8.138,2.326-6.719,6.461
		c0.624,1.805,1.307,3.576,2.035,5.33c-2.384,1.471-3.823,4.428-2.004,7.082c6.253,9.113,16.467,17.072,21.454,27.1
		c-3.723-1.074-8.451,1.785-7.242,6.338c1.39,5.217,3.359,10.369,6.089,15.053c-3.529-0.516-7.374,1.912-6.204,6.352
		c1.159,4.391,2.535,8.719,3.876,13.049c-2.256,1.055-3.92,3.283-3.082,6.014c1.623,5.281,3.438,10.494,5.104,15.758
		c-1.441,1.158-1.995,2.812-1.951,4.65c-1.197,5.16,4.741,8.287,8.36,6.357c3.737,1.119,7.55-3.139,6.577-6.646
		c-0.204-0.738-0.436-1.465-0.652-2.195c1.223-1.336,1.987-3.143,1.769-4.891c-0.325-2.645-0.822-5.246-1.4-7.83
		c2.244-1.117,3.97-3.74,3.641-6.338c-0.447-3.502-0.923-6.984-1.481-10.439C743.238,514.984,745.884,511.552,745.462,508.185z"/>
	<polygon fill="#FFFFFF" points="874.312,773.484 687.631,667.546 667.174,708.091 832.133,818.046 	"/>
	<g>
		<g>
			<path fill="#1D1B3A" d="M871.93,772.539c-14.927,13.429-28.14,28.544-41.514,43.479c0.969-0.125,1.938-0.25,2.906-0.375
				c-18.294-11.563-35.979-24.039-53.669-36.497c-16.244-11.44-32.389-23.427-49.473-33.594
				c-12.887-7.669-26.815-13.573-40.652-19.28c-5.621-2.318-11.276-4.552-16.895-6.876c-1.794-0.741-3.578-1.509-5.334-2.336
				c-0.584-0.274-1.157-0.57-1.723-0.88c-1.599-0.874-0.091-0.654-0.374,1.37c0.421-3.023-4.199-4.327-4.624-1.275
				c-0.386,2.766,2.183,3.901,4.3,4.927c4.443,2.151,9.1,3.902,13.673,5.751c14.718,5.947,29.421,11.991,43.433,19.489
				c17.741,9.494,34.102,21.979,50.532,33.525c19.275,13.546,38.465,27.226,58.386,39.816c0.87,0.55,2.21,0.402,2.906-0.375
				c13.374-14.935,26.587-30.05,41.514-43.479C877.625,773.857,874.223,770.476,871.93,772.539L871.93,772.539z"/>
		</g>
	</g>
	<g>
		<g>
			<path fill="#1D1B3A" d="M921.165,757.34c0.137,0.749-1.406,5.51-1.898,7.243c-1.478,5.197-3.132,10.347-4.816,15.48
				c-2.751,8.391-5.175,17.572-9.399,25.376c1.093-0.287,2.187-0.574,3.281-0.86c-4.322-2.296-7.73-8.158-10.712-11.86
				c-5.434-6.749-10.859-13.513-16.941-19.696c-2.171-2.208-5.561,1.185-3.392,3.391c6.082,6.184,11.511,12.946,16.941,19.696
				c3.3,4.102,6.884,10.062,11.682,12.61c1.124,0.598,2.641,0.323,3.281-0.86c4.599-8.494,7.234-18.441,10.228-27.572
				c1.738-5.301,3.411-10.627,4.914-16c0.693-2.479,1.935-5.603,1.456-8.223C925.234,753.026,920.613,754.317,921.165,757.34
				L921.165,757.34z"/>
		</g>
	</g>
	<g>
		<g>
			<path fill="#1D1B3A" d="M866.387,454.831c-3.207,14.044-4.175,29.146-3.833,43.513c0.175,7.348,2.042,14.465,3.585,21.618
				c1.899,8.802,3.884,17.654,6.862,26.164c1.015,2.898,5.648,1.651,4.624-1.275c-2.805-8.016-4.693-16.329-6.523-24.611
				c-1.599-7.233-3.495-14.47-3.753-21.896c-0.484-13.891,0.564-28.672,3.661-42.237
				C871.698,453.095,867.075,451.816,866.387,454.831L866.387,454.831z"/>
		</g>
	</g>
	<g>
		<g>
			<path fill="#1D1B3A" d="M878.266,592.784c10.909,40.25,23.705,82.089,21.923,124.239c-0.131,3.094,4.666,3.081,4.796,0
				c1.8-42.569-11.078-84.868-22.095-125.515C882.082,588.527,877.455,589.793,878.266,592.784L878.266,592.784z"/>
		</g>
	</g>
	<g>
		<g>
			<path fill="#1D1B3A" d="M710.511,500.279c-6.937,5.083-6.201,15.649-5.805,23.269c0.237,4.563,0.793,9.108,0.904,13.679
				c0.201,8.224-1.598,16.593-2.848,24.686c-2.475,16.023-3.066,32.098-3.902,48.263c-0.914,17.662-2.66,35.464-4.43,53.063
				c-0.31,3.077,4.489,3.047,4.796,0c1.581-15.718,2.929-31.544,4.078-47.297c1.196-16.394,1.253-32.783,3.537-49.093
				c1.643-11.736,4.146-23.378,3.246-35.278c-0.354-4.67-0.748-9.328-0.759-14.015c-0.009-4.015-0.041-10.465,3.604-13.136
				C715.398,502.612,713.01,498.448,710.511,500.279L710.511,500.279z"/>
		</g>
	</g>
	<g>
		<g>
			<path fill="#1D1B3A" d="M704.433,504.518c-7.393-0.728-16.305-2.602-20.321-9.579c-2.953-5.13-0.956-11.517,1.821-16.223
				c6.678-11.313,22.281-18.307,33.608-9.371c2.4,1.894,5.818-1.477,3.392-3.391c-14.036-11.073-32.38-3.688-41.141,10.342
				c-3.845,6.157-5.198,13.747-2.124,20.476c4.16,9.104,15.869,11.667,24.765,12.541
				C707.511,509.616,707.481,504.817,704.433,504.518L704.433,504.518z"/>
		</g>
	</g>
	<g>
		<g>
			<path fill="#1D1B3A" d="M708.777,480.437c5.202,3.089,3.928,9.114-1.533,10.977c-2.91,0.993-1.66,5.626,1.275,4.625
				c9.294-3.171,11.591-14.449,2.679-19.742C708.532,474.713,706.122,478.86,708.777,480.437L708.777,480.437z"/>
		</g>
	</g>
	<g>
		<g>
			<path fill="#1D1B3A" d="M874.786,772.808c-26.477-12.781-52.063-27.67-77.658-42.101c-31.158-17.566-62.421-35.224-92.403-54.756
				c-5.248-3.419-10.585-6.859-15.396-10.886c-2.354-1.971-5.766,1.403-3.392,3.391c8.574,7.179,18.366,13.023,27.826,18.929
				c15.13,9.445,30.508,18.494,45.933,27.447c31.169,18.093,62.604,35.782,94.42,52.715c6.038,3.214,12.086,6.428,18.248,9.401
				C875.137,778.287,877.57,774.152,874.786,772.808L874.786,772.808z"/>
		</g>
	</g>
	<g>
		<g>
			<path fill="#1D1B3A" d="M682.343,666.372c-11.214,15.785-12.536,36.72-24.904,51.731c-1.95,2.366,1.423,5.78,3.392,3.391
				c12.71-15.427,14.182-36.554,25.653-52.702C688.279,666.264,684.117,663.873,682.343,666.372L682.343,666.372z"/>
		</g>
	</g>
	<g>
		<g>
			<path fill="#050708" d="M671.376,722.57c-7.532,5.577-12.47,13.581-19.312,19.871c-2.281,2.097,1.119,5.479,3.392,3.391
				c6.511-5.984,11.187-13.823,18.342-19.121C676.252,724.892,673.865,720.727,671.376,722.57L671.376,722.57z"/>
		</g>
	</g>
	<path fill="#1D1B3A" d="M911.568,1230.714c0.381-0.883-215.363-4.227-297.649-5.301c-6.383-39.508-38.359-449.889,31.064-496.154
		c53.178-35.438,135.952,42.852,158.789,104.455"/>
	<g>
		<g>
			<path fill="#1D1B3A" d="M811.612,504.895c-11.343-1.018-22.803,2.905-34.129,2.518c-3.094-0.106-3.084,4.689,0,4.795
				c11.327,0.389,22.786-3.534,34.129-2.518C814.694,509.966,814.667,505.168,811.612,504.895L811.612,504.895z"/>
		</g>
	</g>
	<g>
		<g>
			<path fill="#1D1B3A" d="M804.643,510.189c0.113,2.045-0.1,3.986-0.722,5.939c-0.438,1.372-1.26,2.754-2.151,3.258
				c-0.045,0.025-0.219-0.081-0.052,0.001c-0.366-0.18-0.823-0.781-1.167-1.354c-1.711-2.853-2.159-6.588-2.61-9.812
				c-0.427-3.052-5.047-1.748-4.624,1.275c0.625,4.475,2.587,16.726,9.9,14.447c5.171-1.61,6.474-9.193,6.223-13.755
				C809.27,507.114,804.473,507.097,804.643,510.189L804.643,510.189z"/>
		</g>
	</g>
	<g>
		<g>
			<path fill="#1D1B3A" d="M866.269,503.32c-4.448-1.02-9.539,0.021-13.989,0.534c-2.65,0.307-5.295,0.654-7.942,0.986
				c-1.002,0.125-2.004,0.244-3.008,0.354c-1.904,0.207-1.814-0.482-0.632,0.761c-2.135-2.246-5.521,1.151-3.392,3.391
				c2.036,2.143,8.416,0.117,10.805-0.185c5.128-0.648,11.752-2.393,16.884-1.216C868.004,508.634,869.282,504.011,866.269,503.32
				L866.269,503.32z"/>
		</g>
	</g>
	<g>
		<g>
			<path fill="#1D1B3A" d="M857.311,506.345c-0.085,2.726-0.245,5.688-1.361,8.225c-0.318,0.723-0.689,1.31-1.201,1.801
				c-0.136,0.131-0.404,0.212-0.508,0.215c-0.352,0.01,0.234,0.097-0.374-0.102c0.462,0.151-0.288-0.21-0.395-0.284
				c0.305,0.212-0.338-0.383-0.405-0.458c0.106,0.118-0.331-0.505-0.403-0.626c-0.824-1.382-1.025-3.061-1.014-4.653
				c0.021-3.094-4.774-3.092-4.796,0c-0.031,4.499,2.041,10.678,7.386,10.919c6.858,0.31,7.725-10.492,7.867-15.036
				C862.204,503.25,857.408,503.26,857.311,506.345L857.311,506.345z"/>
		</g>
	</g>
	<g>
		<g>
			<path fill="#1D1B3A" d="M832.082,586.71c-15.357,2.418-33.645-9.376-41.727-21.864c-1.673-2.586-5.827-0.185-4.141,2.42
				c9.381,14.496,29.482,26.85,47.143,24.069C836.405,590.855,835.106,586.235,832.082,586.71L832.082,586.71z"/>
		</g>
	</g>
	<g>
		<g>
			<path fill="#1D1B3A" d="M765.85,497.145c18.005-1.108,34.522-10.705,52.495-11.812c3.072-0.188,3.09-4.985,0-4.795
				c-18.005,1.108-34.522,10.705-52.495,11.812C762.778,492.539,762.76,497.335,765.85,497.145L765.85,497.145z"/>
		</g>
	</g>
	<g>
		<g>
			<path fill="#1D1B3A" d="M839.414,487.17c4.958-0.231,9.796,0.659,14.602,1.793c2.348,0.554,5.431,2.052,7.889,1.601
				c1.197-0.22,2.116-1.804,1.675-2.95c-0.009-0.022-0.018-0.045-0.027-0.068c-1.1-2.854-5.738-1.615-4.624,1.275
				c0.009,0.022,0.018,0.045,0.026,0.068c0.558-0.983,1.116-1.967,1.675-2.95c1.371-0.251-1.16-0.529-1.725-0.679
				c-1.913-0.507-3.831-0.982-5.761-1.416c-4.49-1.009-9.122-1.685-13.73-1.469C836.334,482.519,836.321,487.315,839.414,487.17
				L839.414,487.17z"/>
		</g>
	</g>
	<g>
		<path fill="#1D1B3A" d="M710.104,456.525c-10.072-6.383-23.968-19.062-10.496-33.729c7.922-8.49,29.741-4.301,28.97-5.092
			c-0.771-0.789,9.423-3.783,22.012-10.648c27.531-14.482,128.366-19.178,127.767,26.666c-0.326,24.994-64.383,24.939-85.4,19.195
			c-15.58-3.33-31.151-7.438-47.562-6.869c-14.85,0.584-18.127,12.26-32.217,14.422"/>
	</g>
	<g>
		<g>
			<path fill="#1D1B3A" d="M925.596,751.879c-2.993-5.396-3.438-12.683-4.513-18.651c-1.261-7.004-2.336-14.292-5.313-20.815
				c-0.614-1.348-2.827-1.598-3.766-0.485c-5.688,6.734-9.663,15.259-14.131,22.804c-6.577,11.106-13.169,22.566-21.587,32.407
				c-1.998,2.336,1.378,5.744,3.392,3.391c7.84-9.164,14.111-19.64,20.297-29.952c4.942-8.238,9.194-17.886,15.421-25.259
				c-1.255-0.161-2.511-0.323-3.766-0.485c2.951,6.47,3.812,14.022,5.061,20.958c1.093,6.069,1.721,13.022,4.765,18.509
				C922.955,757.004,927.098,754.585,925.596,751.879L925.596,751.879z"/>
		</g>
	</g>
	<path fill="none" stroke="#1D1B3A" stroke-width="0.9592" stroke-miterlimit="10" d="M855.533,745.599"/>
	<path fill="#1D1B3A" d="M856.128,790.106c0,0,6.86,57.53,22.745,52.466c15.885-5.066,11.23-52.582,11.23-52.582
		s-7.975-21.884-13.642-18.217C870.378,775.71,856.128,790.106,856.128,790.106z"/>
	<path fill="#1D1B3A" d="M891.738,1003.347c-1.775-60.791-32.159-166.713-12.261-171.924
		c19.899-5.209,52.709,152.486,38.833,168.848C904.434,1016.628,891.738,1003.347,891.738,1003.347z"/>
</g>
<path fill="#1D1B3A" d="M793.362,814.931c9.497,4.904,107.983,188.861,125.321,194.312c35.371,11.115,151.356-21.27,160.19-21.537
	c16.945-0.516,57.923,68.582,46.906,96.406c0,0-127.581,36.76-225.261,24.338c-77.74-9.887-161.468-135.652-161.468-135.652"/>
</svg>
