<?xml version="1.0" encoding="utf-8"?>
<!-- Generator: Adobe Illustrator 16.0.4, SVG Export Plug-In . SVG Version: 6.00 Build 0)  -->
<!DOCTYPE svg PUBLIC "-//W3C//DTD SVG 1.1//EN" "http://www.w3.org/Graphics/SVG/1.1/DTD/svg11.dtd">
<svg version="1.1" id="char1-finger4" xmlns="http://www.w3.org/2000/svg" xmlns:xlink="http://www.w3.org/1999/xlink" x="0px"
	 y="0px" width="2554.794px" height="1427.054px" viewBox="0 0 2554.794 1427.054" enable-background="new 0 0 2554.794 1427.054"
	 xml:space="preserve">
<g>
	<path fill="#F4EDE1" d="M1243.127,956.112c14.477-8.18,50.575-15.396,62.187-10.312c7.443,5.333,23.447,39.081,14.687,45.638
		c-11.633,8.707-18.764-19.641-26.269-23.606c-4.211-0.168-15.805,1.323-21.438,2.115"/>
	<g>
		<path fill="#1D1B3A" d="M1244.21,957.964c14.472-7.949,33.258-11.564,49.635-11.713c3.223-0.029,6.46,0.211,9.562,1.119
			c2.234,0.653,3.856,3.576,5.08,5.374c4.281,6.293,7.487,13.451,9.827,20.67c1.362,4.201,4.522,13.482-0.148,16.686
			c-5.888,4.038-11.447-7.419-13.65-11.178c-2.594-4.426-5.116-10.201-9.7-12.944c-2.276-1.362-7.449,0.014-9.901,0.259
			c-4.408,0.441-8.803,1.029-13.19,1.64c-2.731,0.381-1.564,4.515,1.141,4.139c4.885-0.68,9.779-1.286,14.69-1.741
			c1.152-0.106,4.556-0.913,5.583-0.298c1.312,0.784,2.299,2.391,3.14,3.605c4.284,6.186,7.07,13.574,12.698,18.758
			c4.305,3.965,10.476,3.688,14.06-1.072c3.741-4.968,1.01-13.801-0.584-18.994c-2.418-7.876-6.125-15.617-10.757-22.426
			c-1.501-2.207-3.176-4.271-5.298-5.9c-2.249-1.727-6.702-1.727-9.383-1.904c-9.601-0.639-19.535,1.146-28.872,3.194
			c-8.923,1.958-18.051,4.603-26.097,9.022C1239.619,955.591,1241.784,959.297,1244.21,957.964L1244.21,957.964z"/>
	</g>
</g>
</svg>
