<?xml version="1.0" encoding="utf-8"?>
<!-- Generator: Adobe Illustrator 16.0.4, SVG Export Plug-In . SVG Version: 6.00 Build 0)  -->
<!DOCTYPE svg PUBLIC "-//W3C//DTD SVG 1.1//EN" "http://www.w3.org/Graphics/SVG/1.1/DTD/svg11.dtd">
<svg version="1.1" id="computer" xmlns="http://www.w3.org/2000/svg" xmlns:xlink="http://www.w3.org/1999/xlink" x="0px" y="0px"
	 width="2554.794px" height="1427.054px" viewBox="0 0 2554.794 1427.054" enable-background="new 0 0 2554.794 1427.054"
	 xml:space="preserve">
<g>
	<g>
		<g>
			<path fill="#F7F7F7" d="M1619.387,863.741l-2.536-7.704c-6.934-6.601-158.284-69.37-157.261-78.273
				c-8.985-3.557-8.469,0.323-18.401-2.518h-3.067c-6.348,12.582-62.143,131.636-73.249,153.104
				c-36.552-0.508-73.215-0.274-109.658,2.217c-41.322,0.47-64.448,1.615-75.596,2.119c-0.004,0.045,0,0.101,0.005,0.139
				l28.618-0.357c-8.459,0.35-8.458,1.309-20.242,2.995l-8.449-1.022c-0.15,3.271-0.367,6.509-0.549,9.665
				c-0.395,6.601-0.919,8.532-1.579,15.109c1.695,0.459,3.167,1.922,3.391,4.395c2.084,23.159,1.761,29.308,1.787,52.544
				c0.975,0.531,1.719,1.459,1.911,2.854c0.786,5.688,2.018,12.537,0.938,18.587c0.956,17.942,2.322,35.858,3.635,53.779
				c1.295,7.345,2.417,14.729,3.691,22.086c0.007-0.004,0.016-0.002,0.024-0.004l-0.02,0.023c0.268,1.555,0.563,3.104,0.85,4.655
				c35.392,0.989,274.524-11.475,297.552-11.774C1498.033,1088.375,1626.607,868.215,1619.387,863.741z M1192.021,1097.86
				c0.01-0.565-0.014-1.131-0.015-1.707c0.269,0.008,0.553-0.023,0.84-0.105C1192.576,1096.661,1192.291,1097.273,1192.021,1097.86z
				 M1216.386,934.151c-0.372-0.889-1.123-1.574-2.289-1.759l21.809-0.271C1229.39,932.708,1222.888,933.38,1216.386,934.151z"/>
		</g>
		<g>
			<path fill="#CACBD5" d="M1490.848,1107.779l1.877-1.416c-0.336-0.009-0.851-0.015-1.544-0.004
				C1490.889,1107.109,1490.754,1107.619,1490.848,1107.779z"/>
			<g>
				<path fill="#1D1B3A" d="M1492.109,1109.937c0.626-0.472,1.251-0.943,1.877-1.416c0.909-0.686,1.473-1.645,1.149-2.822
					c-0.301-1.093-1.296-1.809-2.411-1.836c-0.515-0.013-1.029-0.011-1.544-0.004c-1.197,0.017-2.003,0.77-2.411,1.836
					c-0.312,0.818-0.684,1.89-0.333,2.748c0.259,0.633,0.536,1.136,1.149,1.494c0.577,0.339,1.281,0.43,1.927,0.252
					c1.195-0.328,2.262-1.811,1.746-3.074c-0.083-0.214-0.063-0.047,0.06,0.499c0.021,0.695-0.098,0.589-0.023,0.284
					c0.072-0.299,0.187-0.588,0.297-0.875c-0.804,0.612-1.607,1.225-2.411,1.836c0.515-0.007,1.029-0.009,1.544,0.004
					c-0.421-1.553-0.841-3.105-1.262-4.658c-0.626,0.472-1.251,0.943-1.877,1.416c-0.545,0.41-0.961,0.81-1.149,1.494
					c-0.177,0.645-0.086,1.349,0.252,1.926C1489.317,1110.113,1491.019,1110.76,1492.109,1109.937z"/>
			</g>
		</g>
	</g>
	<g>
		<polygon fill="#A6D1A4" points="1478.152,1054.163 1576.499,864.4 1442.876,795.296 1376.171,931.332 		"/>
	</g>
	<g>
		<g>
			<path fill="#1D1B3A" d="M1176.415,936.917c8.377-0.731,16.873-0.688,25.272-0.91c16.53-0.439,33.064-0.765,49.598-1.033
				c33.595-0.546,67.293-1.276,100.883-0.117c3.586,0.124,7.177,0.282,10.751,0.604c3.213,0.29,3.185-4.713,0-5
				c-11.695-1.055-23.534-0.958-35.264-1.037c-17.904-0.121-35.81,0.022-53.712,0.231c-30.489,0.356-61.008,0.761-91.478,1.949
				c-2.016,0.079-4.039,0.137-6.049,0.312C1173.229,932.195,1173.202,937.197,1176.415,936.917L1176.415,936.917z"/>
		</g>
	</g>
	<g>
		<g>
			<path fill="#1D1B3A" d="M1442.684,775.517c8.585,6.427,18.517,11.311,27.899,16.43c15.422,8.414,30.975,16.589,46.465,24.878
				c15.245,8.158,30.473,16.366,45.431,25.044c9.375,5.438,20.255,10.856,27.919,18.699c2.256,2.31,5.789-1.229,3.535-3.535
				c-7.543-7.72-18.058-13.111-27.264-18.51c-15.135-8.874-30.604-17.18-46.067-25.464c-15.546-8.33-31.155-16.543-46.649-24.969
				c-9.664-5.256-19.908-10.276-28.745-16.892C1442.623,769.265,1440.135,773.609,1442.684,775.517L1442.684,775.517z"/>
		</g>
	</g>
	<g>
		<g>
			<path fill="#1D1B3A" d="M1444.327,792.747c1.57,2.015,4.265,3.407,6.396,4.724c4.293,2.652,8.737,5.064,13.171,7.469
				c13.293,7.208,26.773,14.072,40.194,21.037c14.254,7.396,28.504,14.815,42.513,22.669c8.657,4.853,18.835,9.666,25.912,16.801
				c2.272,2.292,5.808-1.245,3.535-3.535c-6.765-6.819-16.214-11.498-24.464-16.194c-13.806-7.858-27.912-15.188-42.004-22.516
				c-13.655-7.101-27.365-14.101-40.93-21.375c-4.704-2.523-9.395-5.083-13.983-7.812c-2.232-1.328-5.165-2.699-6.805-4.802
				C1445.881,786.67,1442.369,790.237,1444.327,792.747L1444.327,792.747z"/>
		</g>
	</g>
	<g>
		<g>
			<path fill="#1D1B3A" d="M1438.971,789.141c-5.437,5.807-8.599,14.753-11.991,21.786c-6.854,14.209-13.312,28.609-19.733,43.018
				c-11.109,24.927-21.784,50.042-32.805,75.007c-1.29,2.921,3.018,5.468,4.317,2.523c10.716-24.275,21.105-48.692,31.885-72.94
				c6.36-14.309,12.787-28.594,19.524-42.729c2.477-5.195,5-10.373,7.694-15.46c1.331-2.513,2.935-5.844,4.644-7.669
				C1444.707,790.326,1441.179,786.783,1438.971,789.141L1438.971,789.141z"/>
		</g>
	</g>
	<g>
		<g>
			<path fill="#1D1B3A" d="M1190.221,1099.613c-1.748-7.617-2.195-15.621-2.915-23.379c-1.275-13.754-2.267-27.533-3.218-41.312
				c-2.329-33.778-4.221-67.589-5.921-101.404c-1.667,0-3.333,0-5,0c3.382,47.847,6.675,95.7,9.994,143.552
				c1.033,14.89,2.066,29.78,3.099,44.67c1.637-0.222,3.274-0.443,4.911-0.665c-1.142-7.666,0.556-15.823-2.803-23.072
				c-1.354-2.923-5.664-0.382-4.317,2.523c3.028,6.534,1.258,14.888,2.299,21.879c0.416,2.792,5.104,2.127,4.911-0.665
				c-3.421-49.315-6.842-98.631-10.263-147.946c-0.931-13.426-1.881-26.851-2.83-40.275c-0.225-3.188-5.163-3.237-5,0
				c1.7,33.816,3.606,67.625,5.921,101.404c0.968,14.121,2.005,28.24,3.312,42.334c0.729,7.858,1.229,15.973,2.999,23.686
				C1186.121,1104.083,1190.941,1102.75,1190.221,1099.613L1190.221,1099.613z"/>
		</g>
	</g>
	<g>
		<g>
			<path fill="#1D1B3A" d="M1187.338,1099.445c17.354,0.188,34.839-1.223,52.168-1.964c33.127-1.417,66.252-2.878,99.38-4.258
				c30.349-1.264,60.701-2.498,91.061-3.449c10.613-0.332,21.229-0.636,31.848-0.778c5.533-0.074,11.248-0.4,16.761,0.237
				c3.199,0.37,3.164-4.634,0-5c-6.057-0.7-12.348-0.303-18.426-0.214c-12.022,0.178-24.043,0.552-36.06,0.942
				c-33.366,1.087-66.723,2.479-100.077,3.887c-30.086,1.271-60.169,2.599-90.255,3.879c-15.415,0.656-30.963,1.885-46.4,1.718
				C1184.112,1094.41,1184.116,1099.41,1187.338,1099.445L1187.338,1099.445z"/>
		</g>
	</g>
	<g>
		<g>
			<path fill="#1D1B3A" d="M1364.919,939.213c35.852,43.756,68.954,89.725,105.194,133.187c3.985,4.78,7.945,10.392,12.857,14.294
				c2.496,1.983,6.06-1.53,3.535-3.535c-6.188-4.918-11.125-12.176-16.112-18.22c-9.889-11.983-19.552-24.154-29.192-36.338
				c-20.318-25.678-40.394-51.547-60.522-77.372c-4.052-5.198-8.047-10.452-12.225-15.551
				C1366.409,933.182,1362.894,936.742,1364.919,939.213L1364.919,939.213z"/>
		</g>
	</g>
	<g>
		<g>
			<path fill="#1D1B3A" d="M1474.776,1044.056c-6.17-5.232-11.117-12.654-16.231-18.854c-10.099-12.244-20.101-24.568-30.159-36.847
				c-10.329-12.609-20.682-25.203-31.269-37.598c-6.162-7.214-12.297-15.517-19.872-21.348c-0.81-0.623-1.84-1.303-2.914-1.208
				c-3.186,0.28-3.213,5.283,0,5c-0.796,0.07-0.263-0.005,0.522,0.661c1.31,1.11,2.514,2.35,3.709,3.58
				c3.732,3.837,7.258,7.879,10.77,11.917c10.307,11.85,20.286,23.985,30.257,36.117c10.427,12.687,20.782,25.431,31.198,38.126
				c6.312,7.693,12.462,15.669,19.321,22.892c0.361,0.381,0.731,0.757,1.133,1.097
				C1473.685,1049.664,1477.239,1046.144,1474.776,1044.056L1474.776,1044.056z"/>
		</g>
	</g>
	<g>
		<g>
			<path fill="#1D1B3A" d="M1479.452,1048.615c1.675-5.441,5.783-12.292,8.659-17.938c6.323-12.415,12.809-24.748,19.32-37.064
				c15.629-29.56,31.479-59.009,47.708-88.244c4.786-8.622,9.604-17.228,14.574-25.745c1.597-2.737,3.214-5.464,4.896-8.15
				c0.876-1.398,2.012-3.18,2.592-3.769c2.265-2.298-1.27-5.835-3.535-3.535c-4.402,4.467-7.317,11.26-10.406,16.614
				c-6.827,11.835-13.431,23.801-20.009,35.776c-16.131,29.367-31.975,58.897-47.531,88.573c-4.879,9.307-9.731,18.63-14.456,28.016
				c-2.286,4.542-5.129,9.249-6.634,14.137C1473.679,1050.375,1478.506,1051.686,1479.452,1048.615L1479.452,1048.615z"/>
		</g>
	</g>
	<g>
		<g>
			<path fill="#1D1B3A" d="M1619.714,856.792c-5.768-3.624-11.987-6.66-17.964-9.918c-13.231-7.213-26.496-14.363-39.782-21.475
				c-28.756-15.39-57.525-30.901-86.939-45.008c-5.196-2.492-10.443-5.084-15.896-6.977c-6.634-2.302-14.074-3.153-20.936-4.662
				c-1.048-0.229-2.307,0.119-2.824,1.149c-11.355,22.638-21.145,46.165-31.6,69.226c-12.746,28.111-25.205,56.418-38.87,84.1
				c-1.274,2.584-2.515,5.233-4.05,7.676c-1.721,2.738,2.606,5.245,4.317,2.523c4.627-7.359,7.979-15.734,11.662-23.579
				c6.922-14.739,13.684-29.556,20.435-44.374c12.885-28.279,25.538-56.666,38.565-84.88c1.263-2.733,2.509-5.478,3.859-8.168
				c-0.941,0.383-1.883,0.766-2.824,1.149c9.03,1.984,18.285,3.281,26.779,7.026c11.705,5.161,23.099,11.065,34.482,16.889
				c30.238,15.469,60.184,31.519,90.047,47.696c9.647,5.227,19.718,10.08,29.016,15.924
				C1619.929,862.832,1622.436,858.503,1619.714,856.792L1619.714,856.792z"/>
		</g>
	</g>
	<g>
		<g>
			<path fill="#1D1B3A" d="M1594.043,860.583c0.296-0.746-0.39,0.842-0.6,1.279c-0.547,1.143-1.115,2.275-1.683,3.406
				c-1.746,3.479-3.532,6.936-5.319,10.393c-5.666,10.957-11.402,21.879-17.136,32.802c-15.523,29.568-31.106,59.104-46.581,88.698
				c-9.763,18.668-19.509,37.348-29.044,56.133c-3.15,6.207-6.284,12.424-9.289,18.703c-1.374,2.869-3.242,5.991-3.938,9.125
				c-0.695,3.143,4.124,4.478,4.822,1.33c1.063-4.804,4.59-10.374,6.957-15.156c5.452-11.013,11.084-21.936,16.725-32.853
				c15.317-29.651,30.869-59.182,46.403-88.72c9.828-18.688,19.672-37.367,29.442-56.085c4.742-9.085,10.28-18.174,14.062-27.726
				C1600.053,858.912,1595.216,857.623,1594.043,860.583L1594.043,860.583z"/>
		</g>
	</g>
	<g>
		<g>
			<path fill="#1D1B3A" d="M1188.373,1121.73c4.459,1.396,10.162,0.705,14.739,0.69c10.523-0.032,21.047-0.351,31.564-0.681
				c31.285-0.984,62.558-2.403,93.824-3.842c53.184-2.447,106.396-5.999,159.619-7.422c1.324-0.036,2.659-0.095,3.983-0.034
				c3.225,0.147,3.21-4.854,0-5c-15.397-0.704-31.25,1.136-46.618,1.864c-31.39,1.488-62.776,3.045-94.166,4.527
				c-32.869,1.553-65.742,3.066-98.625,4.284c-19.891,0.736-40.091,2.161-59.997,1.136c-1.671-0.086-1.982-0.027-2.995-0.344
				C1186.616,1115.944,1185.307,1120.771,1188.373,1121.73L1188.373,1121.73z"/>
		</g>
	</g>
	<g>
		<g>
			<path fill="#1D1B3A" d="M1492.64,1108.687c0.261,0.742-0.149,1.234,0.258,0.007c0.302-0.908,0.665-1.745,0.925-2.346
				c1.3-3.005,2.733-5.953,4.168-8.895c4.798-9.845,9.841-19.57,14.891-29.287c14.766-28.415,29.883-56.647,45.028-84.86
				c20.911-38.953,42.479-77.584,63.016-116.736c1.495-2.852-2.819-5.38-4.318-2.523c-23.096,44.035-47.359,87.48-70.832,131.317
				c-13.851,25.866-27.669,51.755-41.122,77.831c-4.284,8.306-8.556,16.624-12.584,25.058c-1.253,2.623-5.366,8.597-4.251,11.765
				C1488.881,1113.037,1493.713,1111.737,1492.64,1108.687L1492.64,1108.687z"/>
		</g>
	</g>
	<g>
		<g>
			<path fill="#1D1B3A" d="M1595.968,863.325c8.38-0.229,16.967,0.36,25.292,1.307c3.201,0.364,3.166-4.641,0-5
				c-8.325-0.946-16.912-1.536-25.292-1.307C1592.75,858.413,1592.741,863.414,1595.968,863.325L1595.968,863.325z"/>
		</g>
	</g>
	<g>
		<g>
			<path fill="#1D1B3A" d="M1391.181,1000.539c7.036,10.752,16.356,19.695,23.44,30.401c4.124,6.234,7.803,12.783,11.743,19.135
				c3.735,6.023,8.117,11.697,10.142,18.583c0.804-1.055,1.607-2.109,2.411-3.164c-7.147-0.354-14.291-0.791-21.438-1.153
				c-5.085-0.259-10.052-0.698-15.086,0.276c0.941,0.383,1.883,0.766,2.823,1.148c-14.488-20.485-23.4-44.079-36.51-65.372
				c-0.719,1.254-1.438,2.508-2.158,3.762c8.931-0.793,17.861-1.585,26.792-2.378c3.186-0.283,3.213-5.285,0-5
				c-8.931,0.793-17.861,1.585-26.792,2.378c-1.802,0.16-3.227,2.026-2.158,3.762c13.108,21.293,22.021,44.887,36.51,65.372
				c0.694,0.982,1.633,1.379,2.823,1.148c4.555-0.881,9.162-0.318,13.756-0.097c7.148,0.345,14.291,0.799,21.438,1.153
				c1.616,0.08,2.854-1.658,2.411-3.164c-1.819-6.188-5.285-11.434-8.767-16.796c-4.033-6.211-7.767-12.622-11.636-18.936
				c-7.388-12.056-17.706-21.783-25.427-33.583C1393.741,995.33,1389.41,997.832,1391.181,1000.539z"/>
		</g>
	</g>
	<g>
		<g>
			<path fill="#1D1B3A" d="M1388.147,990.817c-3.711-5.614-8.666-9.993-12.644-15.362c-1.129-1.523-1.998-4.215-4.292-4.125
				c-1.285,0.05-2.571,0.1-3.857,0.15c-7.673,0.3-15.347,0.6-23.02,0.899c-1.952,0.076-3.037,2.05-2.159,3.762
				c3.479,6.782,7.829,13.024,11.476,19.71c0.392,0.719,1.321,1.308,2.159,1.238c10.06-0.837,20.119-1.674,30.178-2.511
				c3.189-0.266,3.215-5.268,0-5c-10.059,0.837-20.118,1.674-30.178,2.511c0.72,0.413,1.439,0.825,2.159,1.238
				c-3.647-6.686-7.997-12.928-11.476-19.71c-0.72,1.254-1.439,2.508-2.159,3.762c9.021-0.353,18.043-0.705,27.065-1.058
				c-0.72-0.413-1.439-0.825-2.158-1.238c4.3,6.593,10.258,11.704,14.588,18.257
				C1385.599,996.017,1389.931,993.515,1388.147,990.817z"/>
		</g>
	</g>
	<g>
		<g>
			<path fill="#1D1B3A" d="M1367.864,961.875c-3.973-6.062-9.505-11.005-12.632-17.612c-0.355-0.751-1.348-1.273-2.159-1.238
				c-8.178,0.359-15.627,1.507-23.72-0.727c-2.175-0.601-3.847,1.768-2.823,3.672c3.517,6.544,7.168,13.014,10.694,19.552
				c0.4,0.743,1.312,1.274,2.159,1.238c8.774-0.374,17.549-0.749,26.324-1.123c3.212-0.137,3.225-5.138,0-5
				c-8.774,0.374-17.549,0.749-26.324,1.123c0.72,0.413,1.439,0.825,2.159,1.238c-3.526-6.539-7.177-13.009-10.694-19.552
				c-0.941,1.225-1.882,2.448-2.823,3.672c8.542,2.358,16.394,1.287,25.049,0.906c-0.72-0.413-1.439-0.825-2.159-1.238
				c3.136,6.626,8.655,11.542,12.633,17.612C1365.307,967.083,1369.638,964.582,1367.864,961.875z"/>
		</g>
	</g>
	<g>
		<g>
			<path fill="#1D1B3A" d="M1355.967,1003.116c9.542,22.434,20.939,44.166,32.272,65.738c0.719-1.254,1.438-2.508,2.158-3.762
				c-0.066,0.004-0.133,0.008-0.198,0.012c-3.205,0.183-3.223,5.184,0,5c0.065-0.004,0.132-0.008,0.198-0.012
				c3.204-0.184,3.24-4.91,0-5c-12.324-0.342-24.805,3.979-36.819-0.216c0.582,0.582,1.164,1.164,1.746,1.746
				c-7.314-22.223-17.113-43.488-26.163-65.029c-0.804,1.055-1.607,2.109-2.411,3.164c10.458-0.135,20.917-0.269,31.375-0.403
				c3.222-0.041,3.226-5.042,0-5c-10.458,0.135-20.917,0.269-31.375,0.403c-1.461,0.019-3.061,1.618-2.411,3.164
				c7.845,18.674,16.223,37.134,23.129,56.187c0.928,2.56,1.69,8.878,4.183,10.337c3.144,1.842,7.657,2.095,11.216,2.331
				c9.178,0.608,18.321-1.939,27.529-1.684c0-1.667,0-3.333,0-5c-0.066,0.004-0.133,0.008-0.198,0.012c-3.205,0.183-3.223,5.184,0,5
				c0.065-0.004,0.132-0.008,0.198-0.012c1.926-0.11,3.068-2.029,2.158-3.762c-11.332-21.572-22.729-43.306-32.271-65.738
				C1359.026,997.633,1354.72,1000.184,1355.967,1003.116z"/>
		</g>
	</g>
	<g>
		<g>
			<path fill="#1D1B3A" d="M1348.606,993.473c-3.241-6.045-7.094-11.713-10.381-17.729c-1.794-3.283-3.728-2.914-7.124-3.232
				c-7.401-0.691-14.802-1.383-22.203-2.074c-2.093-0.195-2.839,2.221-2.159,3.762c2.941,6.665,6.67,12.924,9.578,19.604
				c0.359,0.824,1.346,1.175,2.159,1.238c9.324,0.731,18.647,1.462,27.971,2.193c3.217,0.252,3.192-4.75,0-5
				c-9.324-0.731-18.647-1.462-27.971-2.193c0.72,0.413,1.439,0.825,2.159,1.238c-2.908-6.681-6.637-12.94-9.578-19.604
				c-0.72,1.254-1.439,2.508-2.159,3.762c8.771,0.819,17.543,1.64,26.314,2.459c-0.72-0.413-1.439-0.825-2.159-1.238
				c3.498,6.597,7.707,12.76,11.234,19.339C1345.812,998.839,1350.129,996.314,1348.606,993.473z"/>
		</g>
	</g>
	<g>
		<g>
			<path fill="#1D1B3A" d="M1330.082,961.37c-2.937-5.779-4.705-11.929-7.107-17.927c-0.425-1.062-1.2-1.82-2.411-1.836
				c-7.708-0.1-14.627,0.863-22.279-1.199c-1.274-0.343-2.766,0.414-3.075,1.746c-0.649,2.795,0.407,5.64,1.296,8.268
				c1.515,4.476,3.505,8.805,5.345,13.153c0.333,0.788,1.364,1.228,2.159,1.238c7.971,0.106,15.942,0.212,23.913,0.318
				c3.226,0.043,3.222-4.957,0-5c-7.971-0.106-15.942-0.212-23.913-0.318c0.72,0.413,1.439,0.825,2.159,1.238
				c-1.48-3.497-2.965-6.989-4.323-10.535c-0.711-1.855-2.29-4.987-1.814-7.032c-1.025,0.582-2.05,1.164-3.075,1.746
				c4.661,1.256,9.25,2.006,14.087,1.907c3.207-0.065,6.298-0.572,9.521-0.53c-0.804-0.611-1.607-1.224-2.411-1.836
				c2.565,6.406,4.474,12.95,7.611,19.122C1327.226,966.768,1331.539,964.237,1330.082,961.37z"/>
		</g>
	</g>
	<g>
		<g>
			<path fill="#1D1B3A" d="M1225.343,945.986c2.592,8.006,3.268,16.887,4.399,25.179c1.921,14.082,3.527,28.209,5.094,42.334
				c2.221,20.014,4.359,40.045,6.209,60.097c0.612-0.804,1.224-1.607,1.835-2.41c-9.412,1.919-18.824,3.839-28.236,5.758
				c1.055,0.804,2.11,1.607,3.165,2.411c-4.138-43.562-8.276-87.124-12.414-130.687c-0.413,0.72-0.826,1.439-1.238,2.158
				c3.541-2.551,9.378-2.707,13.544-3.185c3.33-0.382,6.711-0.723,10.065-0.803c3.219-0.077,3.226-5.077,0-5
				c-6.668,0.16-13.521,0.944-20.036,2.348c-3.473,0.748-7.59,1.796-7.203,5.877c0.927,9.764,1.854,19.526,2.782,29.29
				c2.821,29.697,5.642,59.395,8.463,89.092c0.345,3.636,0.691,7.272,1.036,10.909c0.16,1.682,1.468,2.757,3.165,2.411
				c9.412-1.92,18.824-3.84,28.236-5.76c1.008-0.205,1.932-1.37,1.835-2.41c-1.85-20.052-3.995-40.082-6.209-60.097
				c-1.579-14.271-3.225-28.537-5.151-42.766c-1.162-8.581-1.837-17.791-4.521-26.075
				C1229.175,941.603,1224.347,942.91,1225.343,945.986L1225.343,945.986z"/>
		</g>
	</g>
	<g>
		<g>
			<path fill="#1D1B3A" d="M1267.533,1068.8c-2.099-7.359-3.995-14.781-5.936-22.184c-0.582,1.024-1.164,2.05-1.746,3.074
				c14.111-2.528,28.607-1.512,42.864-1.994c1.745-0.059,3.313-2.135,2.159-3.762c-4.527-6.381-1.014-14.917-7.263-20.803
				c-0.589,1.422-1.178,2.845-1.768,4.268c9.056-0.298,18.117-0.795,27.149,0.184c-0.833-0.833-1.667-1.667-2.5-2.5
				c0.431,7.192,4.146,14.545,6.832,21.101c2.848,6.95,5.836,13.871,9.12,20.629c0.72-1.254,1.439-2.508,2.159-3.762
				c-24.167-1.757-47.897,5.303-72.051,4.424c-3.226-0.117-3.214,4.883,0,5c24.154,0.879,47.884-6.181,72.051-4.424
				c2.037,0.148,2.919-2.196,2.159-3.762c-3.095-6.371-5.909-12.892-8.616-19.435c-2.486-6.011-6.257-13.165-6.653-19.771
				c-0.088-1.476-1.08-2.346-2.5-2.5c-9.032-0.979-18.093-0.481-27.149-0.184c-2.1,0.069-3.415,2.717-1.768,4.268
				c5.43,5.114,2.261,13.843,6.481,19.791c0.72-1.254,1.439-2.508,2.159-3.762c-14.729,0.499-29.614-0.439-44.193,2.174
				c-1.354,0.242-2.067,1.85-1.746,3.074c1.941,7.403,3.837,14.825,5.936,22.186
				C1263.594,1073.225,1268.419,1071.908,1267.533,1068.8L1267.533,1068.8z"/>
		</g>
	</g>
	<g>
		<g>
			<path fill="#1D1B3A" d="M1300.168,965.011c-2.917-7.493-5.835-14.986-8.753-22.48c-0.424-1.089-1.202-1.782-2.411-1.835
				c-5.417-0.237-10.834-0.474-16.251-0.711c-1.676-0.073-2.774,1.646-2.411,3.165c2.083,8.706,4.166,17.413,6.249,26.119
				c0.348,1.455,1.764,1.924,3.075,1.746c6.272-0.845,12.51-1.907,18.755-2.928c3.176-0.52,1.824-5.337-1.329-4.822
				c-6.246,1.021-12.483,2.084-18.755,2.93c1.025,0.582,2.05,1.164,3.075,1.746c-2.083-8.707-4.166-17.414-6.249-26.121
				c-0.804,1.056-1.607,2.11-2.411,3.165c5.417,0.237,10.834,0.474,16.251,0.711c-0.804-0.612-1.607-1.224-2.411-1.835
				c2.918,7.493,5.835,14.986,8.753,22.48C1296.504,969.311,1301.34,968.021,1300.168,965.011z"/>
		</g>
	</g>
	<g>
		<g>
			<path fill="#1D1B3A" d="M1291.459,998.983c7.046-0.673,14.103-1.227,21.154-1.844c1.817-0.159,3.208-2.022,2.159-3.762
				c-3.953-6.556-7.905-13.111-11.858-19.667c-0.427-0.709-1.293-1.311-2.159-1.238c-6.765,0.564-13.129-2.468-19.912-1.961
				c-1.561,0.117-2.92,1.516-2.411,3.164c2.454,7.943,4.909,15.886,7.363,23.828c0.301,0.977,1.298,1.961,2.411,1.836
				C1289.29,999.214,1290.375,999.095,1291.459,998.983c3.171-0.338,3.205-5.342,0-5c-1.085,0.112-2.169,0.231-3.253,0.356
				c0.804,0.611,1.607,1.224,2.411,1.836c-2.454-7.943-4.909-15.886-7.363-23.828c-0.804,1.055-1.607,2.109-2.411,3.164
				c6.766-0.506,13.125,2.527,19.912,1.961c-0.72-0.413-1.439-0.825-2.159-1.238c3.953,6.556,7.905,13.111,11.858,19.667
				c0.72-1.254,1.439-2.508,2.159-3.762c-7.051,0.617-14.108,1.171-21.154,1.844C1288.279,994.287,1288.25,999.29,1291.459,998.983z
				"/>
		</g>
	</g>
	<g>
		<g>
			<path fill="#1D1B3A" d="M1293.475,1003.088c-1.139,0.116-2.277,0.239-3.415,0.371c-1.677,0.188-2.76,1.446-2.411,3.165
				c0.532,2.619,1.064,5.238,1.596,7.857c0.275,1.353,1.825,2.065,3.075,1.746c4.433-1.134,10.051-0.211,14.569-0.064
				c4.011,0.13,8.021,0.307,12.028,0.52c1.586,0.084,2.894-1.667,2.411-3.164c-1.134-3.516-2.268-7.031-3.402-10.547
				c-0.319-0.991-1.283-1.938-2.411-1.836C1308.169,1001.802,1300.816,1002.385,1293.475,1003.088c-3.18,0.305-3.21,5.308,0,5
				c7.342-0.703,14.695-1.286,22.04-1.952c-0.804-0.611-1.607-1.224-2.411-1.836c1.134,3.516,2.268,7.031,3.402,10.547
				c0.804-1.055,1.607-2.109,2.411-3.164c-4.356-0.232-8.715-0.412-13.074-0.553c-4.705-0.153-10.225-0.907-14.852,0.275
				c1.025,0.582,2.05,1.164,3.075,1.746c-0.532-2.619-1.064-5.238-1.596-7.857c-0.804,1.056-1.607,2.11-2.411,3.165
				c1.138-0.132,2.276-0.255,3.415-0.371C1296.647,1007.754,1296.68,1002.751,1293.475,1003.088z"/>
		</g>
	</g>
	<g>
		<g>
			<path fill="#1D1B3A" d="M1279.195,997.583c-1.99-7.998-3.98-15.996-5.97-23.994c-0.244-0.979-1.344-1.963-2.411-1.835
				c-8.799,1.056-17.561,1.978-26.432,1.978c-1.24,0-2.662,1.144-2.5,2.5c1.012,8.475,3.19,16.723,4.159,25.196
				c0.146,1.278,1.028,2.6,2.5,2.5c9.462-0.64,18.849-1.919,28.244-3.18c3.146-0.423,3.188-5.428,0-5
				c-9.395,1.261-18.782,2.54-28.244,3.18c0.833,0.833,1.667,1.667,2.5,2.5c-0.97-8.481-3.147-16.725-4.159-25.196
				c-0.833,0.833-1.667,1.667-2.5,2.5c8.872,0,17.633-0.922,26.432-1.978c-0.804-0.612-1.607-1.224-2.411-1.835
				c1.99,7.998,3.98,15.996,5.97,23.994C1275.152,1002.041,1279.974,1000.713,1279.195,997.583z"/>
		</g>
	</g>
	<g>
		<g>
			<path fill="#1D1B3A" d="M1247.037,1010.681c0.884,8.237,1.763,16.476,2.626,24.716c0.183,1.744,1.448,2.671,3.165,2.411
				c8.945-1.357,20.313-0.444,29.951-0.483c1.754-0.007,2.67-1.581,2.411-3.165c-1.498-9.141-2.996-18.281-4.493-27.422
				c-0.161-0.98-1.409-1.969-2.411-1.835c-9.563,1.28-19.12,2.584-28.749,3.278c-3.196,0.23-3.219,5.232,0,5
				c9.628-0.694,19.185-1.998,28.749-3.278c-0.804-0.612-1.607-1.224-2.411-1.835c1.498,9.141,2.996,18.281,4.493,27.422
				c0.804-1.056,1.607-2.11,2.411-3.165c-10.24,0.042-21.141-0.876-31.28,0.661c1.055,0.804,2.11,1.607,3.165,2.411
				c-0.863-8.24-1.743-16.479-2.626-24.716C1251.696,1007.51,1246.693,1007.477,1247.037,1010.681z"/>
		</g>
	</g>
	<g>
		<g>
			<path fill="#1D1B3A" d="M1243.311,974.044c8.694,0.158,17.38-0.774,26.008-1.753c1.69-0.191,2.742-1.442,2.411-3.165
				c-1.727-8.977-3.453-17.953-5.18-26.93c-0.207-1.076-1.366-1.84-2.411-1.835c-8.447,0.041-16.974-0.268-25.41,0.148
				c-3.211,0.159-3.234,4.905,0,5c-2.324-0.067-2.276-2.383-1.649,0.398c0.413,1.83,0.711,3.688,1.018,5.539
				c1.107,6.668,1.924,13.385,2.712,20.097c0.371,3.162,5.375,3.198,5,0c-0.949-8.087-1.943-16.185-3.366-24.204
				c-0.396-2.233-0.593-6.738-3.715-6.83c0,1.667,0,3.334,0,5c8.436-0.416,16.962-0.107,25.41-0.148
				c-0.804-0.612-1.607-1.224-2.411-1.835c1.727,8.977,3.453,17.953,5.18,26.93c0.804-1.056,1.607-2.11,2.411-3.165
				c-8.628,0.979-17.314,1.911-26.008,1.753C1240.084,968.986,1240.09,973.986,1243.311,974.044z"/>
		</g>
	</g>
</g>
</svg>
