<?xml version="1.0" encoding="utf-8"?>
<!-- Generator: Adobe Illustrator 16.0.4, SVG Export Plug-In . SVG Version: 6.00 Build 0)  -->
<!DOCTYPE svg PUBLIC "-//W3C//DTD SVG 1.1//EN" "http://www.w3.org/Graphics/SVG/1.1/DTD/svg11.dtd">
<svg version="1.1" id="wall" xmlns="http://www.w3.org/2000/svg" xmlns:xlink="http://www.w3.org/1999/xlink" x="0px" y="0px"
	 width="2554.794px" height="1427.054px" viewBox="0 0 2554.794 1427.054" enable-background="new 0 0 2554.794 1427.054"
	 xml:space="preserve">
<g>
	<path fill="#E7E7EC" d="M-40-40v1507.054h2634.794V-40H-40z M478.047,631.838c-77.741,0-140.768-63.021-140.768-140.766
		c0-77.742,63.026-140.768,140.768-140.768c77.743,0,140.767,63.025,140.767,140.768
		C618.814,568.817,555.79,631.838,478.047,631.838z M1133.789,631.827c-77.738,0.971-141.545-61.26-142.517-138.998
		c-0.972-77.734,61.259-141.539,138.997-142.512c77.736-0.971,141.541,61.258,142.514,138.994
		C1273.754,567.049,1211.525,630.854,1133.789,631.827z M1575.293,631.827c-77.736,0.971-141.545-61.26-142.516-138.998
		c-0.973-77.734,61.26-141.539,138.996-142.512c77.736-0.971,141.543,61.258,142.516,138.994
		C1715.258,567.049,1653.031,630.854,1575.293,631.827z"/>
	<g>
		<path fill="#FFFFFF" d="M-57.403-40c0,69.162,0,138.324,0,207.485c0,156.584,0,313.168,0,469.752c0,167.655,0,335.31,0,502.965
			c0,102.374,0,204.749,0,307.124c0,6.576,0,13.152,0,19.729c0,9.486,7.917,17.403,17.403,17.403c42.677,0,85.354,0,128.031,0
			c111.377,0,222.754,0,334.131,0c155.095,0,310.19,0,465.285,0c173.832,0,347.663,0,521.494,0c167.586,0,335.172,0,502.758,0
			c136.358,0,272.718,0,409.076,0c80.149,0,160.3,0,240.449,0c11.189,0,22.38,0,33.569,0c9.486,0,17.403-7.917,17.403-17.403
			c0-69.162,0-138.323,0-207.484c0-156.585,0-313.169,0-469.753c0-167.654,0-335.31,0-502.965c0-102.374,0-204.749,0-307.123
			c0-6.576,0-13.153,0-19.729c0-9.487-7.917-17.403-17.403-17.403c-42.677,0-85.354,0-128.031,0c-111.377,0-222.754,0-334.131,0
			c-155.096,0-310.19,0-465.285,0c-173.832,0-347.663,0-521.494,0c-167.586,0-335.172,0-502.758,0c-136.359,0-272.717,0-409.076,0
			c-80.15,0-160.3,0-240.449,0c-11.19,0-22.379,0-33.569,0c-22.445,0-22.445,34.807,0,34.807c42.677,0,85.354,0,128.031,0
			c111.377,0,222.754,0,334.131,0c155.095,0,310.19,0,465.285,0c173.832,0,347.663,0,521.494,0c167.586,0,335.172,0,502.758,0
			c136.358,0,272.718,0,409.076,0c80.149,0,160.3,0,240.449,0c11.189,0,22.38,0,33.569,0c-5.801-5.801-11.603-11.602-17.403-17.403
			c0,69.162,0,138.324,0,207.485c0,156.584,0,313.168,0,469.752c0,167.655,0,335.31,0,502.965c0,102.374,0,204.749,0,307.124
			c0,6.576,0,13.152,0,19.729c5.801-5.801,11.603-11.603,17.403-17.403c-42.677,0-85.354,0-128.031,0
			c-111.377,0-222.754,0-334.131,0c-155.096,0-310.19,0-465.285,0c-173.832,0-347.663,0-521.494,0c-167.586,0-335.172,0-502.758,0
			c-136.359,0-272.717,0-409.076,0c-80.15,0-160.3,0-240.449,0c-11.19,0-22.379,0-33.569,0c5.801,5.801,11.602,11.603,17.403,17.403
			c0-69.162,0-138.323,0-207.484c0-156.585,0-313.169,0-469.753c0-167.654,0-335.31,0-502.965c0-102.374,0-204.749,0-307.123
			c0-6.576,0-13.153,0-19.729C-22.597-62.445-57.403-62.445-57.403-40z"/>
		<path fill="#FFFFFF" d="M478.047,614.435c-5.591-0.027-11.154-0.352-16.709-0.981c-4.661-0.528,3.799,0.577-0.821-0.131
			c-1.351-0.206-2.696-0.453-4.04-0.699c-3.115-0.57-6.2-1.292-9.269-2.072c-5.202-1.323-10.303-3.021-15.315-4.933
			c-0.716-0.272-4.899-2.019-0.771-0.261c-1.221-0.521-2.428-1.075-3.634-1.63c-2.805-1.289-5.548-2.711-8.261-4.183
			c-4.63-2.512-9.08-5.347-13.397-8.36c-1.077-0.752-2.133-1.533-3.188-2.314c-3.592-2.658,2.867,2.291-0.622-0.497
			c-2.389-1.91-4.689-3.929-6.949-5.989c-3.874-3.531-7.499-7.327-10.956-11.265c-0.865-0.984-1.703-1.993-2.54-3.002
			c-0.483-0.582-3.233-4.098-0.536-0.591c-1.869-2.43-3.624-4.944-5.331-7.489c-2.938-4.382-5.565-8.965-7.992-13.646
			c-1.22-2.354-2.339-4.758-3.423-7.176c-1.852-4.129,1.39,3.456-0.307-0.748c-0.666-1.65-1.276-3.322-1.879-4.997
			c-1.823-5.067-3.277-10.261-4.503-15.503c-0.621-2.652-1.125-5.33-1.589-8.014c-0.136-0.784-0.795-5.403-0.183-0.804
			c-0.243-1.827-0.424-3.661-0.595-5.495c-0.522-5.586-0.63-11.203-0.493-16.809c0.069-2.79,0.26-5.576,0.493-8.356
			c0.115-1.379,0.271-2.754,0.427-4.128c0.25-2.002,0.224-1.824-0.077,0.535c0.134-0.903,0.276-1.806,0.428-2.707
			c0.874-5.355,2.135-10.642,3.624-15.857c0.737-2.579,1.584-5.126,2.468-7.659c0.44-1.261,0.916-2.509,1.392-3.756
			c0.32-0.829,0.649-1.654,0.985-2.476c-0.903,2.109-0.967,2.271-0.191,0.487c4.403-10.075,10.129-19.543,16.746-28.312
			c-2.662,3.528,0.055-0.001,0.536-0.591c0.828-1.017,1.684-2.01,2.54-3.002c1.711-1.985,3.504-3.898,5.322-5.785
			c3.941-4.09,8.181-7.884,12.583-11.469c3.463-2.821-2.945,2.193,0.622-0.498c1.048-0.791,2.118-1.553,3.188-2.314
			c2.143-1.525,4.349-2.96,6.573-4.362c4.843-3.055,9.909-5.741,15.086-8.182c1.201-0.565,2.417-1.098,3.634-1.629
			c-4.107,1.795,0.054,0.021,0.771-0.262c2.49-0.977,5.021-1.847,7.562-2.679c5.568-1.824,11.271-3.215,17.021-4.326
			c1.342-0.26,2.691-0.479,4.04-0.699c4.612-0.753-3.834,0.442,0.821-0.131c2.753-0.34,5.521-0.557,8.29-0.733
			c6.07-0.389,12.164-0.3,18.231,0.089c2.764,0.177,5.519,0.475,8.267,0.813c-4.6-0.567,0.013,0.053,0.804,0.182
			c1.347,0.22,2.687,0.479,4.027,0.738c5.746,1.11,11.399,2.664,16.958,4.484c2.54,0.832,5.042,1.772,7.529,2.749
			c4.22,1.656-3.399-1.506,0.748,0.307c1.215,0.531,2.416,1.097,3.616,1.662c5.176,2.439,10.162,5.268,15,8.318
			c2.224,1.402,4.388,2.897,6.53,4.422c1.07,0.762,2.118,1.553,3.166,2.343c-3.528-2.662,0.001,0.056,0.591,0.536
			c4.403,3.587,8.536,7.496,12.475,11.584c1.819,1.888,3.558,3.85,5.269,5.834c0.856,0.993,1.684,2.01,2.512,3.026
			c2.821,3.463-2.194-2.945,0.498,0.622c3.435,4.551,6.526,9.353,9.383,14.283c2.655,4.582,4.984,9.347,7.104,14.197
			c-1.795-4.106-0.021,0.054,0.261,0.771c0.488,1.243,0.94,2.5,1.392,3.756c1.06,2.947,1.978,5.943,2.837,8.954
			c1.492,5.226,2.601,10.554,3.475,15.914c0.752,4.612-0.443-3.835,0.13,0.82c0.169,1.373,0.298,2.751,0.427,4.128
			c0.304,3.245,0.447,6.504,0.527,9.762c0.137,5.602-0.135,11.207-0.656,16.782c-0.128,1.375-0.297,2.746-0.466,4.116
			c0.567-4.6-0.054,0.013-0.183,0.804c-0.511,3.135-1.174,6.242-1.897,9.333c-1.225,5.238-2.827,10.382-4.647,15.441
			c-0.452,1.256-0.939,2.498-1.426,3.739c-1.656,4.221,1.506-3.398-0.307,0.748c-1.238,2.833-2.609,5.605-4.032,8.35
			c-2.426,4.681-5.18,9.186-8.115,13.563c-1.463,2.182-3.017,4.301-4.599,6.397c2.663-3.528-0.055,0.001-0.535,0.591
			c-1.104,1.355-2.251,2.674-3.405,3.987c-3.458,3.938-7.188,7.633-11.06,11.162c-1.938,1.766-3.948,3.451-5.98,5.106
			c-3.463,2.821,2.945-2.194-0.622,0.497c-1.397,1.056-2.829,2.064-4.265,3.066c-4.322,3.016-8.851,5.726-13.481,8.238
			c-2.327,1.262-4.706,2.425-7.1,3.553c-1.201,0.566-2.417,1.098-3.634,1.63c4.271-1.866-1.207,0.427-2.018,0.736
			c-7.56,2.884-15.398,4.995-23.337,6.529c-1.791,0.347-3.593,0.631-5.396,0.907c4.755-0.729-2.509,0.248-3.592,0.35
			C486.447,614.272,482.246,614.415,478.047,614.435c-9.486,0.047-17.403,7.881-17.403,17.403c0,9.451,7.916,17.45,17.403,17.403
			c49.84-0.245,95.989-23.758,126.263-63.107c29.793-38.726,38.983-90.84,26.077-137.759
			c-12.979-47.184-48.355-85.315-93.227-103.919c-45.166-18.725-98.169-14.102-140.078,10.712
			c-20.708,12.262-38.066,29.445-51.429,49.373c-13.775,20.544-21.385,44.107-24.627,68.453
			c-6.391,47.987,12.283,97.637,46.577,131.301c29.301,28.764,69.496,44.745,110.443,44.946c9.487,0.047,17.403-7.952,17.403-17.403
			C495.45,622.316,487.533,614.482,478.047,614.435z"/>
		<path fill="#FFFFFF" d="M1133.789,614.423c-5.591,0.043-11.158-0.213-16.721-0.772c-0.794-0.08-5.437-0.709-0.83-0.062
			c-1.354-0.19-2.702-0.42-4.049-0.649c-3.122-0.531-6.216-1.214-9.294-1.956c-5.218-1.259-10.34-2.892-15.376-4.741
			c-1.25-0.459-2.487-0.953-3.724-1.448c4.156,1.662-0.016-0.019-0.727-0.335c-2.821-1.255-5.581-2.642-8.312-4.08
			c-4.662-2.454-9.146-5.232-13.501-8.192c-1.086-0.737-2.151-1.506-3.216-2.273c-0.614-0.443-4.153-3.165-0.662-0.446
			c-2.413-1.879-4.737-3.87-7.023-5.901c-3.917-3.482-7.59-7.233-11.096-11.127c-1.755-1.949-3.428-3.97-5.072-6.013
			c-2.801-3.481,2.197,2.941-0.474-0.644c-1.047-1.405-2.048-2.844-3.042-4.286c-2.992-4.345-5.677-8.895-8.162-13.545
			c-1.249-2.338-2.398-4.728-3.513-7.133c-0.322-0.695-2.096-4.854-0.368-0.721c-0.687-1.643-1.318-3.307-1.941-4.974
			c-1.886-5.045-3.406-10.22-4.697-15.446c-0.653-2.644-1.191-5.315-1.689-7.993c-0.25-1.348-0.462-2.703-0.673-4.058
			c-0.288-1.992-0.266-1.815,0.065,0.529c-0.111-0.917-0.213-1.834-0.306-2.753c-0.592-5.578-0.771-11.193-0.703-16.8
			c0.034-2.791,0.19-5.579,0.388-8.362c0.098-1.38,0.236-2.757,0.375-4.133c0.096-0.913,0.202-1.824,0.316-2.735
			c-0.324,2.357-0.341,2.541-0.05,0.553c0.807-5.366,2.002-10.668,3.425-15.901c0.705-2.589,1.52-5.146,2.372-7.689
			c0.424-1.266,0.885-2.52,1.345-3.772c0.297-0.811,2.533-6.323,0.716-2.021c4.277-10.129,9.884-19.667,16.39-28.517
			c2.647-3.6-2.293,2.866,0.484-0.631c0.815-1.027,1.659-2.031,2.502-3.034c1.686-2.007,3.455-3.941,5.25-5.851
			c3.89-4.139,8.082-7.984,12.438-11.625c1.007-0.841,2.037-1.654,3.066-2.467c-3.469,2.738,0.062,0.012,0.674-0.437
			c2.124-1.552,4.312-3.014,6.518-4.444c4.804-3.114,9.837-5.864,14.982-8.368c1.194-0.581,2.404-1.128,3.613-1.675
			c4.126-1.865-3.456,1.387,0.746-0.323c2.478-1.008,4.997-1.909,7.528-2.772c5.545-1.895,11.23-3.355,16.966-4.539
			c2.684-0.554,5.391-0.988,8.103-1.385c-4.582,0.669,0.075,0.041,0.861-0.042c1.384-0.146,2.771-0.253,4.158-0.359
			c6.065-0.464,12.16-0.45,18.231-0.139c2.766,0.143,5.524,0.406,8.276,0.71c4.656,0.515-3.802-0.579,0.813,0.115
			c1.35,0.202,2.693,0.444,4.036,0.687c5.759,1.039,11.432,2.521,17.012,4.272c2.55,0.8,5.064,1.71,7.563,2.654
			c0.716,0.271,4.911,1.992,0.773,0.245c1.222,0.516,2.429,1.066,3.636,1.617c5.206,2.375,10.227,5.14,15.102,8.13
			c2.242,1.374,4.424,2.843,6.584,4.34c1.079,0.748,2.137,1.525,3.194,2.303c3.6,2.646-2.866-2.293,0.631,0.484
			c4.448,3.531,8.629,7.389,12.619,11.427c3.686,3.73,7.11,7.714,10.358,11.828c-2.739-3.47-0.012,0.062,0.436,0.674
			c0.775,1.062,1.521,2.144,2.267,3.227c1.743,2.53,3.367,5.141,4.94,7.779c2.712,4.549,5.101,9.284,7.281,14.107
			c1.865,4.126-1.387-3.456,0.323,0.745c0.503,1.237,0.971,2.488,1.439,3.738c1.097,2.934,2.052,5.918,2.949,8.918
			c1.557,5.206,2.732,10.521,3.673,15.869c0.238,1.353,0.437,2.712,0.635,4.071c-0.668-4.582-0.041,0.074,0.042,0.861
			c0.344,3.241,0.528,6.498,0.649,9.754c0.208,5.6,0.005,11.208-0.446,16.79c-0.111,1.376-0.263,2.749-0.415,4.121
			c-0.515,4.656,0.579-3.802-0.115,0.813c-0.472,3.141-1.096,6.256-1.781,9.356c-1.159,5.253-2.697,10.417-4.454,15.498
			c-0.436,1.262-0.908,2.51-1.379,3.757c-0.271,0.717-1.992,4.911-0.245,0.773c-1.203,2.849-2.539,5.638-3.927,8.399
			c-2.368,4.711-5.064,9.25-7.945,13.664c-1.436,2.199-2.962,4.338-4.518,6.454c-2.646,3.6,2.293-2.866-0.483,0.632
			c-1.087,1.368-2.218,2.701-3.354,4.029c-3.409,3.981-7.091,7.722-10.919,11.3c-1.916,1.79-3.904,3.5-5.916,5.181
			c-1.006,0.841-2.036,1.654-3.066,2.467c3.607-2.848-1.047,0.703-1.742,1.201c-4.284,3.07-8.778,5.836-13.377,8.406
			c-2.311,1.291-4.675,2.483-7.055,3.642c-1.193,0.581-2.403,1.128-3.613,1.675c-1.784,0.777-1.621,0.718,0.489-0.18
			c-0.822,0.339-1.646,0.67-2.475,0.993c-7.523,2.979-15.334,5.188-23.253,6.821c-1.787,0.368-3.585,0.676-5.384,0.975
			c-0.905,0.146-1.811,0.282-2.718,0.41c4.583-0.669-0.075-0.041-0.861,0.042C1142.187,614.155,1137.987,614.35,1133.789,614.423
			c-9.484,0.165-17.403,7.791-17.403,17.403c0,9.361,7.916,17.568,17.403,17.403c50.123-0.873,95.322-24.913,125.571-64.495
			c29.552-38.669,37.917-91.629,24.521-138.053c-13.65-47.303-49.278-84.36-94.366-102.896
			c-45.043-18.517-98.654-12.862-139.957,12.294c-42.296,25.763-68.892,69.915-74.764,118.658
			c-5.786,48.026,13.347,97.538,48.06,130.772c29.648,28.386,69.965,44.029,110.936,43.719c9.486-0.072,17.403-7.862,17.403-17.403
			C1151.192,622.394,1143.276,614.351,1133.789,614.423z"/>
		<path fill="#FFFFFF" d="M1575.293,614.423c-5.591,0.043-11.157-0.213-16.721-0.772c-0.795-0.08-5.437-0.709-0.829-0.062
			c-1.354-0.19-2.702-0.42-4.05-0.649c-3.121-0.531-6.216-1.214-9.293-1.956c-5.218-1.259-10.34-2.892-15.376-4.741
			c-1.25-0.459-2.487-0.953-3.724-1.448c4.156,1.662-0.016-0.019-0.727-0.335c-2.821-1.255-5.581-2.642-8.312-4.08
			c-4.662-2.454-9.146-5.232-13.501-8.192c-1.087-0.737-2.152-1.506-3.217-2.273c-0.614-0.443-4.153-3.165-0.662-0.446
			c-2.413-1.879-4.737-3.87-7.023-5.901c-3.917-3.482-7.59-7.233-11.096-11.127c-1.755-1.949-3.428-3.97-5.072-6.013
			c-2.801-3.481,2.197,2.941-0.474-0.644c-1.047-1.405-2.048-2.844-3.042-4.286c-2.992-4.345-5.677-8.895-8.161-13.545
			c-1.249-2.338-2.398-4.728-3.513-7.133c-0.322-0.695-2.096-4.854-0.368-0.721c-0.687-1.643-1.317-3.307-1.94-4.974
			c-1.887-5.045-3.406-10.22-4.697-15.446c-0.653-2.644-1.19-5.315-1.688-7.993c-0.251-1.348-0.462-2.703-0.674-4.058
			c-0.287-1.992-0.266-1.815,0.065,0.529c-0.111-0.917-0.213-1.834-0.306-2.753c-0.593-5.578-0.771-11.193-0.703-16.8
			c0.034-2.791,0.19-5.579,0.389-8.362c0.098-1.38,0.236-2.757,0.375-4.133c0.097-0.913,0.201-1.824,0.315-2.735
			c-0.324,2.357-0.341,2.541-0.05,0.553c0.807-5.366,2.002-10.668,3.426-15.901c0.704-2.589,1.52-5.146,2.372-7.689
			c0.424-1.266,0.885-2.52,1.345-3.772c0.298-0.811,2.533-6.323,0.716-2.021c4.277-10.129,9.884-19.667,16.391-28.517
			c2.646-3.6-2.293,2.866,0.484-0.631c0.814-1.027,1.658-2.031,2.502-3.034c1.686-2.007,3.455-3.941,5.249-5.851
			c3.89-4.139,8.082-7.984,12.438-11.625c1.007-0.841,2.036-1.654,3.066-2.467c-3.47,2.738,0.061,0.012,0.674-0.437
			c2.123-1.552,4.312-3.014,6.518-4.444c4.805-3.114,9.837-5.864,14.982-8.368c1.193-0.581,2.404-1.128,3.613-1.675
			c4.126-1.865-3.456,1.387,0.746-0.323c2.478-1.008,4.997-1.909,7.527-2.772c5.546-1.895,11.23-3.355,16.967-4.539
			c2.684-0.554,5.392-0.988,8.103-1.385c-4.583,0.669,0.074,0.041,0.861-0.042c1.384-0.146,2.771-0.253,4.157-0.359
			c6.065-0.464,12.16-0.45,18.231-0.139c2.767,0.143,5.524,0.406,8.276,0.71c4.655,0.515-3.803-0.579,0.813,0.115
			c1.35,0.202,2.692,0.444,4.036,0.687c5.759,1.039,11.432,2.521,17.012,4.272c2.55,0.8,5.064,1.71,7.563,2.654
			c0.716,0.271,4.911,1.992,0.772,0.245c1.223,0.516,2.43,1.066,3.637,1.617c5.206,2.375,10.227,5.14,15.103,8.13
			c2.241,1.374,4.424,2.843,6.584,4.34c1.079,0.748,2.137,1.525,3.194,2.303c3.6,2.646-2.865-2.293,0.632,0.484
			c4.447,3.531,8.629,7.389,12.619,11.427c3.686,3.73,7.109,7.714,10.357,11.828c-2.738-3.47-0.012,0.062,0.437,0.674
			c0.775,1.062,1.521,2.144,2.267,3.227c1.743,2.53,3.367,5.141,4.94,7.779c2.713,4.549,5.101,9.284,7.281,14.107
			c1.865,4.126-1.388-3.456,0.322,0.745c0.504,1.237,0.972,2.488,1.439,3.738c1.097,2.934,2.052,5.918,2.949,8.918
			c1.557,5.206,2.732,10.521,3.674,15.869c0.237,1.353,0.436,2.712,0.635,4.071c-0.669-4.582-0.042,0.074,0.042,0.861
			c0.344,3.241,0.528,6.498,0.649,9.754c0.207,5.6,0.005,11.208-0.447,16.79c-0.111,1.376-0.263,2.749-0.415,4.121
			c-0.515,4.656,0.579-3.802-0.114,0.813c-0.473,3.141-1.097,6.256-1.781,9.356c-1.159,5.253-2.697,10.417-4.453,15.498
			c-0.437,1.262-0.908,2.51-1.38,3.757c-0.271,0.717-1.992,4.911-0.245,0.773c-1.202,2.849-2.539,5.638-3.927,8.399
			c-2.368,4.711-5.065,9.25-7.945,13.664c-1.436,2.199-2.962,4.338-4.518,6.454c-2.646,3.6,2.293-2.866-0.484,0.632
			c-1.087,1.368-2.218,2.701-3.354,4.029c-3.409,3.981-7.092,7.722-10.92,11.3c-1.915,1.79-3.904,3.5-5.915,5.181
			c-1.007,0.841-2.037,1.654-3.066,2.467c3.607-2.848-1.047,0.703-1.742,1.201c-4.283,3.07-8.777,5.836-13.376,8.406
			c-2.312,1.291-4.676,2.483-7.056,3.642c-1.193,0.581-2.403,1.128-3.613,1.675c-1.784,0.777-1.621,0.718,0.489-0.18
			c-0.822,0.339-1.646,0.67-2.475,0.993c-7.523,2.979-15.336,5.188-23.254,6.821c-1.787,0.368-3.585,0.676-5.385,0.975
			c-0.904,0.146-1.811,0.282-2.719,0.41c4.583-0.669-0.074-0.041-0.861,0.042C1583.69,614.155,1579.491,614.35,1575.293,614.423
			c-9.483,0.165-17.403,7.791-17.403,17.403c0,9.361,7.916,17.568,17.403,17.403c50.123-0.873,95.322-24.913,125.571-64.495
			c29.552-38.669,37.919-91.629,24.521-138.053c-13.65-47.303-49.279-84.36-94.367-102.896
			c-45.044-18.517-98.654-12.862-139.956,12.294c-42.296,25.763-68.893,69.914-74.765,118.658
			c-5.785,48.026,13.347,97.538,48.061,130.772c29.647,28.386,69.964,44.029,110.935,43.719c9.485-0.072,17.403-7.862,17.403-17.403
			C1592.696,622.394,1584.78,614.351,1575.293,614.423z"/>
	</g>
</g>
</svg>
