<?xml version="1.0" encoding="utf-8"?>
<!-- Generator: Adobe Illustrator 16.0.4, SVG Export Plug-In . SVG Version: 6.00 Build 0)  -->
<!DOCTYPE svg PUBLIC "-//W3C//DTD SVG 1.1//EN" "http://www.w3.org/Graphics/SVG/1.1/DTD/svg11.dtd">
<svg version="1.1" id="window1" xmlns="http://www.w3.org/2000/svg" xmlns:xlink="http://www.w3.org/1999/xlink" x="0px" y="0px"
	 width="2554.794px" height="1427.054px" viewBox="0 0 2554.794 1427.054" enable-background="new 0 0 2554.794 1427.054"
	 xml:space="preserve">
<g>
	<circle fill="#D9D8DE" cx="478.047" cy="491.073" r="140.767"/>
	<g>
		<path fill="#FFFFFF" d="M601.411,491.073c-0.027,5.592-0.352,11.154-0.981,16.71c-0.528,4.661,0.577-3.799-0.13,0.82
			c-0.207,1.352-0.454,2.696-0.7,4.041c-0.571,3.115-1.292,6.2-2.072,9.269c-1.323,5.202-3.021,10.303-4.933,15.315
			c-0.273,0.716-2.019,4.899-0.261,0.771c-0.52,1.222-1.075,2.429-1.629,3.635c-1.29,2.805-2.711,5.548-4.184,8.261
			c-2.512,4.63-5.347,9.079-8.36,13.397c-0.751,1.077-1.533,2.132-2.314,3.188c-2.659,3.592,2.291-2.867-0.498,0.622
			c-1.91,2.39-3.929,4.688-5.989,6.948c-3.531,3.874-7.328,7.499-11.265,10.956c-0.985,0.865-1.994,1.702-3.002,2.54
			c-0.582,0.483-4.098,3.233-0.591,0.535c-2.43,1.869-4.944,3.624-7.49,5.331c-4.381,2.938-8.964,5.564-13.646,7.991
			c-2.354,1.22-4.757,2.339-7.175,3.423c-4.129,1.852,3.456-1.39-0.748,0.307c-1.65,0.666-3.323,1.276-4.997,1.879
			c-5.067,1.822-10.261,3.277-15.503,4.503c-2.652,0.62-5.331,1.124-8.014,1.589c-0.785,0.136-5.403,0.795-0.804,0.182
			c-1.827,0.244-3.661,0.424-5.496,0.596c-5.585,0.522-11.203,0.63-16.808,0.492c-2.79-0.068-5.576-0.26-8.356-0.492
			c-1.378-0.115-2.753-0.271-4.127-0.427c-2.002-0.249-1.824-0.224,0.535,0.077c-0.903-0.134-1.806-0.276-2.707-0.428
			c-5.355-0.874-10.642-2.136-15.857-3.624c-2.58-0.736-5.127-1.585-7.66-2.468c-1.261-0.44-2.509-0.916-3.756-1.393
			c-0.828-0.32-1.653-0.648-2.476-0.985c2.11,0.903,2.272,0.968,0.487,0.192c-10.075-4.403-19.543-10.129-28.311-16.745
			c3.528,2.662-0.001-0.055-0.591-0.535c-1.017-0.828-2.01-1.685-3.002-2.54c-1.985-1.711-3.898-3.504-5.785-5.322
			c-4.09-3.94-7.884-8.181-11.469-12.582c-2.821-3.463,2.194,2.945-0.498-0.622c-0.791-1.048-1.553-2.118-2.314-3.188
			c-1.525-2.144-2.96-4.349-4.363-6.573c-3.054-4.843-5.741-9.909-8.181-15.085c-0.566-1.201-1.098-2.418-1.629-3.635
			c1.795,4.107,0.02-0.053-0.261-0.771c-0.978-2.49-1.847-5.021-2.679-7.562c-1.824-5.568-3.215-11.271-4.326-17.021
			c-0.259-1.342-0.479-2.691-0.699-4.041c-0.752-4.612,0.443,3.835-0.131-0.82c-0.339-2.754-0.557-5.521-0.734-8.289
			c-0.388-6.071-0.299-12.165,0.089-18.232c0.177-2.764,0.475-5.519,0.813-8.267c-0.567,4.6,0.054-0.013,0.183-0.804
			c0.22-1.347,0.479-2.687,0.738-4.027c1.11-5.745,2.664-11.398,4.484-16.957c0.832-2.54,1.773-5.042,2.749-7.529
			c1.656-4.22-1.506,3.399,0.307-0.747c0.531-1.216,1.097-2.416,1.663-3.616c2.439-5.176,5.267-10.162,8.318-15
			c1.402-2.224,2.898-4.388,4.422-6.529c0.761-1.07,1.552-2.118,2.343-3.166c-2.662,3.528,0.055-0.001,0.536-0.591
			c3.587-4.403,7.497-8.536,11.584-12.476c1.887-1.818,3.849-3.558,5.834-5.269c0.993-0.855,2.01-1.685,3.026-2.512
			c3.463-2.821-2.945,2.193,0.622-0.498c4.551-3.435,9.353-6.526,14.284-9.384c4.582-2.655,9.347-4.983,14.197-7.104
			c-4.107,1.795,0.054,0.021,0.771-0.262c1.243-0.487,2.5-0.939,3.756-1.392c2.947-1.061,5.943-1.979,8.955-2.838
			c5.225-1.491,10.553-2.601,15.913-3.475c4.612-0.753-3.834,0.442,0.821-0.131c1.373-0.169,2.75-0.298,4.127-0.427
			c3.246-0.304,6.504-0.447,9.762-0.527c5.601-0.138,11.207,0.135,16.782,0.656c1.375,0.129,2.746,0.298,4.116,0.467
			c-4.6-0.567,0.013,0.053,0.804,0.182c3.134,0.512,6.242,1.175,9.333,1.897c5.238,1.226,10.382,2.827,15.441,4.647
			c1.255,0.452,2.498,0.939,3.739,1.427c4.22,1.656-3.399-1.506,0.748,0.307c2.833,1.237,5.605,2.609,8.349,4.031
			c4.681,2.427,9.187,5.181,13.564,8.115c2.182,1.463,4.301,3.017,6.397,4.599c-3.528-2.662,0.001,0.056,0.591,0.536
			c1.355,1.104,2.674,2.251,3.987,3.404c3.938,3.459,7.633,7.188,11.163,11.06c1.766,1.938,3.451,3.948,5.106,5.98
			c2.821,3.463-2.194-2.945,0.498,0.622c1.055,1.397,2.064,2.829,3.066,4.266c3.016,4.321,5.727,8.851,8.238,13.48
			c1.262,2.327,2.425,4.706,3.554,7.101c0.566,1.201,1.098,2.418,1.629,3.634c-1.867-4.271,0.427,1.207,0.737,2.018
			c2.884,7.561,4.995,15.399,6.529,23.338c0.346,1.791,0.631,3.593,0.907,5.396c-0.729-4.755,0.249,2.509,0.35,3.593
			C601.247,482.672,601.39,486.875,601.411,491.073c0.047,9.486,7.881,17.403,17.403,17.403c9.452,0,17.45-7.916,17.403-17.403
			c-0.245-49.84-23.759-95.989-63.109-126.263c-38.725-29.793-90.84-38.983-137.758-26.078
			c-47.185,12.979-85.316,48.356-103.919,93.229c-18.725,45.165-14.103,98.17,10.712,140.078
			c12.262,20.708,29.445,38.065,49.373,51.427c20.544,13.775,44.108,21.384,68.454,24.626
			c47.986,6.391,97.636-12.282,131.301-46.575c28.764-29.301,44.746-69.496,44.947-110.443c0.046-9.487-7.952-17.403-17.403-17.403
			C609.292,473.669,601.458,481.586,601.411,491.073z"/>
	</g>
</g>
</svg>
