<?xml version="1.0" encoding="utf-8"?>
<!-- Generator: Adobe Illustrator 16.0.4, SVG Export Plug-In . SVG Version: 6.00 Build 0)  -->
<!DOCTYPE svg PUBLIC "-//W3C//DTD SVG 1.1//EN" "http://www.w3.org/Graphics/SVG/1.1/DTD/svg11.dtd">
<svg version="1.1" id="window2" xmlns="http://www.w3.org/2000/svg" xmlns:xlink="http://www.w3.org/1999/xlink" x="0px" y="0px"
	 width="2554.794px" height="1427.054px" viewBox="0 0 2554.794 1427.054" enable-background="new 0 0 2554.794 1427.054"
	 xml:space="preserve">
<g>
	<path fill="#D9D8DE" d="M1272.783,489.311c0.971,77.738-61.258,141.543-138.994,142.516
		c-77.738,0.971-141.545-61.26-142.517-138.998c-0.972-77.734,61.259-141.539,138.997-142.512
		C1208.006,349.346,1271.811,411.575,1272.783,489.311z"/>
	<g>
		<path fill="#FFFFFF" d="M1255.38,489.311c0.042,5.592-0.212,11.157-0.772,16.722c-0.08,0.794-0.709,5.437-0.062,0.829
			c-0.19,1.354-0.42,2.701-0.649,4.049c-0.532,3.122-1.214,6.216-1.957,9.294c-1.258,5.218-2.892,10.34-4.741,15.376
			c-0.459,1.25-0.954,2.486-1.448,3.724c1.663-4.156-0.019,0.016-0.335,0.727c-1.255,2.82-2.642,5.581-4.08,8.312
			c-2.454,4.661-5.232,9.146-8.192,13.501c-0.738,1.086-1.506,2.151-2.274,3.216c-0.443,0.614-3.165,4.153-0.445,0.662
			c-1.88,2.413-3.87,4.737-5.902,7.023c-3.482,3.917-7.233,7.589-11.126,11.096c-1.949,1.755-3.97,3.428-6.013,5.071
			c-3.481,2.802,2.941-2.196-0.643,0.475c-1.405,1.047-2.844,2.048-4.287,3.041c-4.344,2.993-8.894,5.677-13.544,8.162
			c-2.338,1.249-4.728,2.397-7.132,3.513c-0.696,0.322-4.855,2.096-0.722,0.367c-1.642,0.687-3.306,1.318-4.973,1.941
			c-5.044,1.886-10.219,3.405-15.445,4.696c-2.644,0.653-5.316,1.191-7.993,1.689c-1.348,0.251-2.703,0.462-4.058,0.673
			c-1.992,0.288-1.815,0.267,0.529-0.064c-0.916,0.11-1.833,0.213-2.752,0.306c-5.578,0.592-11.194,0.771-16.8,0.702
			c-2.791-0.033-5.579-0.189-8.362-0.388c-1.38-0.098-2.757-0.236-4.133-0.375c-0.913-0.097-1.825-0.202-2.736-0.316
			c2.357,0.324,2.542,0.341,0.552,0.05c-5.366-0.807-10.668-2.002-15.901-3.426c-2.589-0.704-5.146-1.52-7.69-2.372
			c-1.266-0.424-2.52-0.884-3.773-1.345c-0.81-0.297-6.323-2.533-2.02-0.716c-10.129-4.277-19.668-9.884-28.518-16.391
			c-3.6-2.646,2.866,2.293-0.631-0.484c-1.026-0.814-2.03-1.658-3.034-2.502c-2.006-1.686-3.941-3.455-5.851-5.249
			c-4.139-3.89-7.985-8.082-11.625-12.438c-0.841-1.007-1.654-2.036-2.467-3.066c2.739,3.47,0.012-0.062-0.436-0.674
			c-1.552-2.124-3.014-4.312-4.445-6.518c-3.114-4.805-5.864-9.837-8.369-14.982c-0.581-1.194-1.128-2.404-1.675-3.613
			c-1.865-4.127,1.387,3.456-0.323-0.746c-1.008-2.478-1.909-4.997-2.773-7.528c-1.894-5.545-3.355-11.23-4.538-16.966
			c-0.554-2.685-0.989-5.392-1.385-8.104c0.669,4.583,0.042-0.074-0.042-0.861c-0.147-1.383-0.253-2.771-0.359-4.157
			c-0.464-6.065-0.451-12.16-0.139-18.231c0.142-2.766,0.406-5.523,0.71-8.275c0.515-4.656-0.579,3.802,0.115-0.813
			c0.203-1.35,0.445-2.693,0.687-4.036c1.039-5.759,2.521-11.432,4.272-17.012c0.8-2.55,1.709-5.063,2.654-7.562
			c0.271-0.717,1.992-4.911,0.245-0.773c0.516-1.222,1.066-2.429,1.617-3.636c2.375-5.206,5.139-10.227,8.129-15.103
			c1.375-2.241,2.843-4.424,4.34-6.584c0.748-1.079,1.526-2.137,2.303-3.194c2.647-3.6-2.293,2.866,0.484-0.631
			c3.532-4.448,7.389-8.629,11.427-12.619c3.731-3.686,7.714-7.109,11.829-10.357c-3.469,2.738,0.062,0.012,0.674-0.437
			c1.062-0.775,2.144-1.521,3.226-2.267c2.531-1.743,5.142-3.367,7.78-4.94c4.549-2.712,9.284-5.101,14.107-7.28
			c4.126-1.865-3.456,1.387,0.746-0.323c1.237-0.503,2.488-0.971,3.739-1.438c2.934-1.097,5.918-2.052,8.918-2.949
			c5.206-1.557,10.52-2.732,15.869-3.674c1.353-0.237,2.712-0.436,4.071-0.635c-4.582,0.669,0.075,0.041,0.861-0.042
			c3.242-0.344,6.498-0.528,9.755-0.649c5.599-0.207,11.208-0.005,16.79,0.446c1.376,0.112,2.749,0.264,4.121,0.415
			c4.656,0.515-3.802-0.579,0.813,0.115c3.141,0.472,6.256,1.096,9.356,1.78c5.252,1.159,10.416,2.697,15.498,4.454
			c1.261,0.436,2.509,0.907,3.757,1.379c0.716,0.271,4.911,1.992,0.773,0.245c2.848,1.202,5.637,2.539,8.399,3.927
			c4.711,2.368,9.25,5.065,13.664,7.945c2.2,1.436,4.339,2.962,6.455,4.518c3.6,2.646-2.866-2.293,0.631,0.484
			c1.369,1.087,2.702,2.218,4.029,3.354c3.981,3.41,7.722,7.092,11.3,10.92c1.79,1.915,3.5,3.904,5.181,5.915
			c0.841,1.007,1.654,2.037,2.467,3.066c-2.848-3.607,0.704,1.048,1.201,1.742c3.07,4.283,5.836,8.777,8.406,13.376
			c1.292,2.312,2.484,4.676,3.642,7.056c0.581,1.193,1.128,2.403,1.675,3.613c0.777,1.784,0.718,1.621-0.18-0.489
			c0.339,0.821,0.67,1.646,0.994,2.475c2.978,7.523,5.187,15.335,6.82,23.254c0.369,1.786,0.676,3.585,0.975,5.384
			c0.146,0.905,0.282,1.812,0.41,2.719c-0.668-4.582-0.041,0.074,0.042,0.861C1255.111,480.914,1255.307,485.113,1255.38,489.311
			c0.166,9.483,7.792,17.403,17.403,17.403c9.362,0,17.568-7.916,17.403-17.403c-0.874-50.122-24.914-95.322-64.495-125.57
			c-38.669-29.553-91.628-37.917-138.052-24.521c-47.303,13.65-84.362,49.277-102.898,94.366
			c-18.517,45.042-12.863,98.654,12.294,139.955c25.764,42.297,69.917,68.893,118.662,74.766
			c48.026,5.786,97.537-13.348,130.771-48.061c28.385-29.647,44.027-69.964,43.717-110.935c-0.072-9.485-7.862-17.403-17.403-17.403
			C1263.351,471.908,1255.308,479.824,1255.38,489.311z"/>
	</g>
</g>
</svg>
