<?xml version="1.0" encoding="utf-8"?>
<!-- Generator: Adobe Illustrator 16.0.4, SVG Export Plug-In . SVG Version: 6.00 Build 0)  -->
<!DOCTYPE svg PUBLIC "-//W3C//DTD SVG 1.1//EN" "http://www.w3.org/Graphics/SVG/1.1/DTD/svg11.dtd">
<svg version="1.1" id="Layer_1" xmlns="http://www.w3.org/2000/svg" xmlns:xlink="http://www.w3.org/1999/xlink" x="0px" y="0px"
	 width="1002.13px" height="592.191px" viewBox="0 0 1002.13 592.191" enable-background="new 0 0 1002.13 592.191"
	 xml:space="preserve">
<g>
	<polygon fill="#FFFFFF" points="757.421,221.896 208.106,221.012 184.223,117.517 775.996,113.094 	"/>
	<polygon fill="#FFFFFF" points="263.075,211.748 312.134,211.17 311.778,266.178 	"/>
	<g>
		<g>
			<path d="M229.125,163.274c-6.523,0-7.921-3.337-7.921-8.499c0-5.184,1.398-8.521,7.921-8.521c6.545,0,7.942,3.337,7.942,8.521
				C237.067,159.937,235.67,163.274,229.125,163.274z M229.125,148.813c-3.705,0-4.149,1.936-4.149,5.94s0.444,5.94,4.149,5.94
				s4.171-1.936,4.171-5.94S232.852,148.813,229.125,148.813z"/>
			<path d="M251.883,152.996c0,0.067-0.044,0.156-0.178,0.245c-0.466,0.333-1.021,0.467-1.553,0.467
				c-0.377,0-0.422-0.044-0.932-0.133c0.355,0.289,0.91,0.979,0.91,2.002c0,2.714-2.107,3.604-4.814,3.604h-1.331
				c-0.754,0-1.021,0.356-1.021,0.912c0,0.756,0.532,0.868,1.664,0.868h2.107c1.975,0,4.127,0.489,4.127,3.115
				c0,2.848-2.44,3.893-5.769,3.893c-3.794,0-5.769-0.623-5.769-2.825c0-2.047,1.642-2.136,2.44-2.336v-0.355
				c-1.021-0.223-2.041-0.201-2.041-1.914c0-1.513,1.109-1.713,2.485-1.936c-0.754-0.2-2.551-0.667-2.551-3.315
				c0-3.181,1.975-4.271,5.236-4.271c1.442,0,2.019,0.178,2.884,0.423c0.244,0.067,0.532,0.089,0.865,0.089s0.732-0.044,1.065-0.133
				c0.399-0.111,0.821-0.333,1.154-0.489c0.066-0.022,0.155-0.067,0.2-0.067c0.111,0,0.177,0.067,0.222,0.223l0.555,1.757
				C251.86,152.885,251.883,152.951,251.883,152.996z M245.782,163.408h-1.509c-0.754,0-1.664,0.133-1.664,1.224
				c0,1.112,0.91,1.401,2.574,1.401c1.42,0,2.418-0.312,2.418-1.491C247.601,163.497,246.78,163.408,245.782,163.408z
				 M244.983,152.885c-1.553,0-1.997,0.756-1.997,2.202c0,1.446,0.444,2.225,1.997,2.225c1.531,0,1.975-0.779,1.975-2.225
				C246.958,153.641,246.514,152.885,244.983,152.885z"/>
			<path d="M270.491,162.985h-2.707c-0.222,0-0.355-0.133-0.355-0.333v-7.876c0-0.979-0.333-1.468-1.398-1.468
				c-1.131,0-2.374,0.267-2.374,0.267v9.077c0,0.2-0.133,0.333-0.355,0.333h-2.707c-0.222,0-0.355-0.133-0.355-0.333v-15.44
				c0-0.312,0.089-0.489,0.399-0.534l2.529-0.423h0.111c0.222,0,0.377,0.111,0.377,0.378v3.47l-0.244,1.379
				c1.042-0.245,2.352-0.467,3.461-0.467c2.485,0,3.971,0.712,3.971,3.182v8.454C270.846,162.852,270.713,162.985,270.491,162.985z"
				/>
			<path d="M281.181,162.629c-0.044,0.2-0.177,0.356-0.399,0.356h-4.637c-0.222,0-0.355-0.156-0.421-0.356l-3.062-10.768
				c-0.022-0.044-0.022-0.111-0.022-0.156c0-0.223,0.133-0.4,0.399-0.4h2.573c0.289,0,0.422,0.066,0.51,0.378l2.086,9.166h0.599
				l1.886-9.144c0.066-0.312,0.222-0.4,0.51-0.4h2.596c0.266,0,0.444,0.178,0.444,0.4c0,0.044-0.022,0.089-0.022,0.156
				L281.181,162.629z"/>
			<path d="M291.206,163.274c-5.014,0-5.635-2.692-5.635-6.118c0-3.449,0.621-6.141,5.635-6.141c4.992,0,5.635,2.692,5.635,6.141
				C296.841,160.582,296.197,163.274,291.206,163.274z M291.206,153.33c-2.063,0-2.152,1.201-2.152,3.827
				c0,2.603,0.088,3.804,2.152,3.804c2.041,0,2.152-1.202,2.152-3.804C293.357,154.531,293.247,153.33,291.206,153.33z"/>
			<path d="M305.467,153.574c-1.287,0-2.44,0.156-2.817,0.245v8.833c0,0.2-0.133,0.333-0.355,0.333h-2.707
				c-0.155,0-0.355-0.133-0.355-0.333v-9.722c0-0.646,0.311-0.89,0.999-1.157c0.666-0.245,1.73-0.378,2.685-0.512
				c0.621-0.089,1.42-0.2,2.152-0.223h0.2c0.244,0,0.311,0.022,0.444,0.111c0.066,0.044,0.155,0.156,0.155,0.356v1.624
				C305.867,153.374,305.845,153.574,305.467,153.574z"/>
			<path d="M316.78,162.762c-1.065,0.312-2.44,0.512-3.816,0.512c-4.348,0-5.857-1.379-5.857-6.029c0-3.849,0.91-6.229,4.792-6.229
				c1.553,0,2.751,0.356,2.996,0.4l-0.244-1.357v-2.848c0-0.312,0.111-0.489,0.421-0.534l2.507-0.423h0.133
				c0.222,0,0.377,0.111,0.377,0.378v14.394C318.089,161.628,318.022,162.406,316.78,162.762z M314.65,153.53
				c0,0-0.977-0.2-1.797-0.2c-1.686,0-2.285,0.333-2.285,3.715c0,3.56,0.688,3.916,2.418,3.916c0.865,0,1.664-0.223,1.664-0.223
				V153.53z"/>
			<path d="M329.023,162.962c-0.821,0.201-1.864,0.312-3.15,0.312c-2.574,0-5.414-0.312-5.414-3.804
				c0-2.848,1.819-3.226,3.439-3.471l3.86-0.623v-0.601c0-0.601-0.066-0.979-0.533-1.201c-0.311-0.156-0.843-0.223-1.575-0.223
				c-1.442,0-3.128,0.467-3.727,0.601c-0.044,0.022-0.111,0.044-0.155,0.044c-0.133,0-0.222-0.067-0.244-0.2l-0.333-1.535
				c-0.022-0.044-0.022-0.067-0.022-0.111c0-0.2,0.155-0.289,0.266-0.333c0.488-0.2,2.574-0.801,4.948-0.801
				c1.553,0,2.64,0.223,3.372,0.646c1.109,0.601,1.42,1.624,1.42,2.87v6.118C331.175,162.34,330.554,162.629,329.023,162.962z
				 M327.78,157.423l-2.374,0.378c-0.843,0.133-1.575,0.289-1.575,1.624c0,1.557,1.243,1.691,2.13,1.691
				c0.821,0,1.531-0.156,1.819-0.245V157.423z"/>
			<path d="M344.261,162.985h-2.707c-0.222,0-0.377-0.133-0.377-0.333v-7.72c0-1.224-0.488-1.624-1.509-1.624
				c-1.043,0-2.241,0.29-2.241,0.29v9.055c0,0.2-0.133,0.333-0.355,0.333h-2.707c-0.222,0-0.355-0.133-0.355-0.333v-9.7
				c0-0.845,0.555-1.112,1.842-1.424c1.109-0.267,2.862-0.512,4.26-0.512c2.817,0,4.503,0.667,4.503,3.449v8.187
				C344.616,162.852,344.46,162.985,344.261,162.985z"/>
			<path d="M361.915,148.546c-0.022,0.2-0.066,0.289-0.244,0.289h-0.089c-0.289-0.044-0.976-0.156-1.575-0.156
				c-0.533,0-0.888,0.067-1.109,0.245c-0.222,0.2-0.311,0.489-0.311,0.957v1.424h2.817c0.2,0,0.355,0.133,0.355,0.333v1.78
				c0,0.2-0.155,0.334-0.355,0.334h-2.817v8.899c0,0.2-0.133,0.333-0.355,0.333h-2.707c-0.2,0-0.377-0.133-0.377-0.333v-8.899
				h-1.708c-0.2,0-0.355-0.134-0.355-0.334v-1.78c0-0.2,0.155-0.333,0.355-0.333h1.708v-1.513c0-2.358,1.22-3.537,3.794-3.537
				c1.62,0,2.64,0.289,2.973,0.378c0.2,0.044,0.244,0.2,0.244,0.333v0.067L361.915,148.546z"/>
			<path d="M368.568,163.274c-5.014,0-5.635-2.692-5.635-6.118c0-3.449,0.621-6.141,5.635-6.141c4.992,0,5.635,2.692,5.635,6.141
				C374.204,160.582,373.561,163.274,368.568,163.274z M368.568,153.33c-2.063,0-2.152,1.201-2.152,3.827
				c0,2.603,0.088,3.804,2.152,3.804c2.041,0,2.152-1.202,2.152-3.804C370.721,154.531,370.609,153.33,368.568,153.33z"/>
			<path d="M382.83,153.574c-1.287,0-2.44,0.156-2.817,0.245v8.833c0,0.2-0.133,0.333-0.355,0.333h-2.707
				c-0.155,0-0.355-0.133-0.355-0.333v-9.722c0-0.646,0.311-0.89,0.999-1.157c0.666-0.245,1.73-0.378,2.685-0.512
				c0.621-0.089,1.42-0.2,2.152-0.223h0.2c0.244,0,0.311,0.022,0.444,0.111c0.066,0.044,0.155,0.156,0.155,0.356v1.624
				C383.229,153.374,383.208,153.574,382.83,153.574z"/>
			<path d="M390.46,163.274c-1.753,0-3.284-0.245-4.149-0.534c-1.22-0.378-1.265-0.912-1.265-1.936v-13.593
				c0-0.312,0.089-0.489,0.399-0.534l2.529-0.423h0.111c0.222,0,0.377,0.111,0.377,0.378v3.493l-0.244,1.379
				c0,0,1.531-0.49,2.995-0.49c3.395,0,4.792,1.535,4.792,5.94C396.006,161.205,395.053,163.274,390.46,163.274z M390.46,153.352
				c-0.91,0-1.997,0.29-1.997,0.29v7.141c0,0,0.776,0.178,1.708,0.178c1.819,0,2.352-0.579,2.352-3.916
				C392.523,153.841,392.124,153.352,390.46,153.352z"/>
			<path d="M408.915,158.024c0,0.289-0.111,0.578-0.533,0.578h-7.166c0,0.935,0.311,1.468,0.954,1.891
				c0.555,0.333,1.309,0.489,2.396,0.489c1.354,0,2.485-0.356,3.062-0.512c0.022-0.022,0.044-0.022,0.067-0.022
				c0.155,0,0.288,0.111,0.355,0.356l0.288,1.224c0.022,0.066,0.022,0.111,0.022,0.133c0,0.2-0.111,0.312-0.244,0.378
				c-0.71,0.289-2.241,0.734-4.126,0.734c-4.327,0-6.168-1.602-6.168-6.073c0-4.338,1.287-6.185,5.591-6.185
				c2.197,0,3.572,0.512,4.415,1.513c0.821,1.001,1.109,2.469,1.109,4.427C408.937,157.223,408.915,157.712,408.915,158.024z
				 M405.565,156.399c0-0.601-0.044-1.09-0.133-1.579c-0.266-1.157-0.865-1.535-1.975-1.535c-1.397,0-1.908,0.445-2.107,1.446
				c-0.111,0.556-0.111,1.135-0.133,1.802h4.349V156.399z"/>
			<path d="M417.652,153.574c-1.287,0-2.44,0.156-2.817,0.245v8.833c0,0.2-0.133,0.333-0.355,0.333h-2.707
				c-0.155,0-0.355-0.133-0.355-0.333v-9.722c0-0.646,0.311-0.89,0.999-1.157c0.666-0.245,1.73-0.378,2.685-0.512
				c0.621-0.089,1.42-0.2,2.152-0.223h0.2c0.244,0,0.311,0.022,0.444,0.111c0.066,0.044,0.155,0.156,0.155,0.356v1.624
				C418.052,153.374,418.03,153.574,417.652,153.574z"/>
			<path d="M430.385,158.024c0,0.289-0.111,0.578-0.533,0.578h-7.166c0,0.935,0.311,1.468,0.954,1.891
				c0.555,0.333,1.309,0.489,2.396,0.489c1.354,0,2.485-0.356,3.062-0.512c0.022-0.022,0.044-0.022,0.067-0.022
				c0.155,0,0.288,0.111,0.355,0.356l0.288,1.224c0.022,0.066,0.022,0.111,0.022,0.133c0,0.2-0.111,0.312-0.244,0.378
				c-0.71,0.289-2.241,0.734-4.126,0.734c-4.327,0-6.168-1.602-6.168-6.073c0-4.338,1.287-6.185,5.591-6.185
				c2.196,0,3.572,0.512,4.415,1.513c0.821,1.001,1.109,2.469,1.109,4.427C430.407,157.223,430.385,157.712,430.385,158.024z
				 M427.035,156.399c0-0.601-0.044-1.09-0.133-1.579c-0.266-1.157-0.865-1.535-1.975-1.535c-1.398,0-1.908,0.445-2.108,1.446
				c-0.111,0.556-0.111,1.135-0.133,1.802h4.349V156.399z"/>
			<path d="M441.985,162.762c-1.065,0.312-2.44,0.512-3.816,0.512c-4.348,0-5.857-1.379-5.857-6.029c0-3.849,0.91-6.229,4.792-6.229
				c1.553,0,2.751,0.356,2.995,0.4l-0.244-1.357v-2.848c0-0.312,0.111-0.489,0.421-0.534l2.507-0.423h0.133
				c0.222,0,0.377,0.111,0.377,0.378v14.394C443.294,161.628,443.227,162.406,441.985,162.762z M439.855,153.53
				c0,0-0.977-0.2-1.797-0.2c-1.686,0-2.285,0.333-2.285,3.715c0,3.56,0.688,3.916,2.418,3.916c0.865,0,1.664-0.223,1.664-0.223
				V153.53z"/>
			<path d="M456.757,158.024c0,0.289-0.111,0.578-0.533,0.578h-7.166c0,0.935,0.311,1.468,0.954,1.891
				c0.555,0.333,1.309,0.489,2.396,0.489c1.354,0,2.485-0.356,3.062-0.512c0.022-0.022,0.044-0.022,0.067-0.022
				c0.155,0,0.288,0.111,0.355,0.356l0.288,1.224c0.022,0.066,0.022,0.111,0.022,0.133c0,0.2-0.111,0.312-0.244,0.378
				c-0.71,0.289-2.241,0.734-4.126,0.734c-4.327,0-6.168-1.602-6.168-6.073c0-4.338,1.287-6.185,5.591-6.185
				c2.197,0,3.572,0.512,4.415,1.513c0.821,1.001,1.109,2.469,1.109,4.427C456.779,157.223,456.757,157.712,456.757,158.024z
				 M453.407,156.399c0-0.601-0.044-1.09-0.133-1.579c-0.266-1.157-0.865-1.535-1.975-1.535c-1.397,0-1.908,0.445-2.107,1.446
				c-0.111,0.556-0.111,1.135-0.133,1.802h4.349V156.399z"/>
			<path d="M465.494,153.574c-1.287,0-2.44,0.156-2.817,0.245v8.833c0,0.2-0.133,0.333-0.355,0.333h-2.707
				c-0.155,0-0.355-0.133-0.355-0.333v-9.722c0-0.646,0.311-0.89,0.999-1.157c0.666-0.245,1.73-0.378,2.685-0.512
				c0.621-0.089,1.42-0.2,2.152-0.223h0.2c0.244,0,0.311,0.022,0.444,0.111c0.066,0.044,0.155,0.156,0.155,0.356v1.624
				C465.894,153.374,465.872,153.574,465.494,153.574z"/>
			<path d="M479.756,163.274c-3.461,0-5.303-1.001-5.303-4.205v-7.097c0-0.312,0.111-0.49,0.399-0.534l2.529-0.423h0.111
				c0.222,0,0.377,0.111,0.377,0.4v7.787c0,1.179,0.399,1.802,1.886,1.802c1.62,0,1.886-0.779,1.886-1.802v-7.23
				c0-0.312,0.111-0.467,0.399-0.534l2.529-0.4c0.044-0.022,0.066-0.022,0.111-0.022c0.222,0,0.377,0.134,0.377,0.4v7.631
				C485.058,162.028,483.417,163.274,479.756,163.274z"/>
			<path d="M498.144,162.985h-2.706c-0.222,0-0.377-0.133-0.377-0.333v-7.72c0-1.224-0.488-1.624-1.509-1.624
				c-1.043,0-2.24,0.29-2.24,0.29v9.055c0,0.2-0.134,0.333-0.355,0.333h-2.707c-0.222,0-0.355-0.133-0.355-0.333v-9.7
				c0-0.845,0.554-1.112,1.841-1.424c1.109-0.267,2.862-0.512,4.26-0.512c2.818,0,4.504,0.667,4.504,3.449v8.187
				C498.499,162.852,498.344,162.985,498.144,162.985z"/>
			<path d="M510.432,162.762c-1.065,0.312-2.44,0.512-3.816,0.512c-4.349,0-5.856-1.379-5.856-6.029
				c0-3.849,0.909-6.229,4.791-6.229c1.554,0,2.752,0.356,2.996,0.4l-0.244-1.357v-2.848c0-0.312,0.111-0.489,0.422-0.534
				l2.506-0.423h0.134c0.222,0,0.377,0.111,0.377,0.378v14.394C511.74,161.628,511.674,162.406,510.432,162.762z M508.302,153.53
				c0,0-0.977-0.2-1.797-0.2c-1.687,0-2.285,0.333-2.285,3.715c0,3.56,0.688,3.916,2.418,3.916c0.865,0,1.664-0.223,1.664-0.223
				V153.53z"/>
			<path d="M525.204,158.024c0,0.289-0.111,0.578-0.533,0.578h-7.166c0,0.935,0.311,1.468,0.954,1.891
				c0.555,0.333,1.309,0.489,2.396,0.489c1.354,0,2.485-0.356,3.062-0.512c0.021-0.022,0.044-0.022,0.066-0.022
				c0.155,0,0.288,0.111,0.355,0.356l0.287,1.224c0.023,0.066,0.023,0.111,0.023,0.133c0,0.2-0.111,0.312-0.244,0.378
				c-0.711,0.289-2.241,0.734-4.127,0.734c-4.326,0-6.168-1.602-6.168-6.073c0-4.338,1.287-6.185,5.591-6.185
				c2.196,0,3.572,0.512,4.415,1.513c0.82,1.001,1.109,2.469,1.109,4.427C525.226,157.223,525.204,157.712,525.204,158.024z
				 M521.854,156.399c0-0.601-0.044-1.09-0.134-1.579c-0.266-1.157-0.865-1.535-1.975-1.535c-1.397,0-1.908,0.445-2.107,1.446
				c-0.111,0.556-0.111,1.135-0.133,1.802h4.349V156.399z"/>
			<path d="M533.94,153.574c-1.286,0-2.439,0.156-2.816,0.245v8.833c0,0.2-0.134,0.333-0.355,0.333h-2.707
				c-0.155,0-0.355-0.133-0.355-0.333v-9.722c0-0.646,0.311-0.89,0.999-1.157c0.665-0.245,1.73-0.378,2.685-0.512
				c0.621-0.089,1.42-0.2,2.152-0.223h0.199c0.244,0,0.311,0.022,0.443,0.111c0.066,0.044,0.156,0.156,0.156,0.356v1.624
				C534.341,153.374,534.318,153.574,533.94,153.574z"/>
			<path d="M543.656,162.629c-0.044,0.2-0.177,0.356-0.399,0.356h-4.637c-0.222,0-0.355-0.156-0.422-0.356l-3.062-10.768
				c-0.022-0.044-0.022-0.111-0.022-0.156c0-0.223,0.133-0.4,0.4-0.4h2.572c0.289,0,0.422,0.066,0.511,0.378l2.086,9.166h0.599
				l1.887-9.144c0.066-0.312,0.221-0.4,0.51-0.4h2.596c0.266,0,0.443,0.178,0.443,0.4c0,0.044-0.021,0.089-0.021,0.156
				L543.656,162.629z"/>
			<path d="M552.017,162.985h-2.706c-0.2,0-0.354-0.133-0.354-0.333v-10.746c0-0.2,0.154-0.334,0.354-0.334h2.706
				c0.2,0,0.355,0.134,0.355,0.334v10.746C552.372,162.852,552.217,162.985,552.017,162.985z M551.729,149.97h-2.131
				c-0.422,0-0.621-0.156-0.621-0.579v-2.558c0-0.401,0.199-0.579,0.621-0.579h2.131c0.421,0,0.621,0.178,0.621,0.579v2.558
				C552.351,149.814,552.15,149.97,551.729,149.97z"/>
			<path d="M559.514,163.252c-1.931,0-3.705-0.467-4.104-0.646c-0.088-0.044-0.244-0.089-0.244-0.333v-0.133l0.289-1.424
				c0.021-0.2,0.111-0.267,0.244-0.267c0.044,0,0.066,0,0.11,0.022c0.288,0.067,1.886,0.512,3.262,0.512
				c0.998,0,1.863-0.312,1.863-1.268c0-1.09-0.688-1.157-1.841-1.379c-1.465-0.267-3.795-0.534-3.795-3.648
				c0-3.271,2.863-3.671,4.814-3.671c1.775,0,3.174,0.378,3.617,0.512c0.178,0.044,0.244,0.2,0.244,0.334v0.066l-0.267,1.469
				c-0.022,0.155-0.155,0.222-0.311,0.222c-0.022,0-0.044-0.022-0.066-0.022c-0.222-0.022-1.554-0.312-2.707-0.312
				c-0.865,0-1.907,0.178-1.907,1.157c0,1.157,1.064,1.201,2.195,1.401c1.664,0.29,3.439,0.734,3.439,3.582
				C564.351,162.34,562.221,163.252,559.514,163.252z"/>
			<path d="M576.948,162.985h-2.706c-0.222,0-0.377-0.133-0.377-0.333v-7.72c0-1.224-0.488-1.624-1.509-1.624
				c-1.043,0-2.24,0.29-2.24,0.29v9.055c0,0.2-0.134,0.333-0.355,0.333h-2.707c-0.222,0-0.355-0.133-0.355-0.333v-9.7
				c0-0.845,0.555-1.112,1.842-1.424c1.109-0.267,2.862-0.512,4.26-0.512c2.818,0,4.504,0.667,4.504,3.449v8.187
				C577.304,162.852,577.148,162.985,576.948,162.985z"/>
			<path d="M583.534,162.985h-2.707c-0.199,0-0.354-0.133-0.354-0.333v-10.746c0-0.2,0.155-0.334,0.354-0.334h2.707
				c0.199,0,0.355,0.134,0.355,0.334v10.746C583.89,162.852,583.733,162.985,583.534,162.985z M583.246,149.97h-2.13
				c-0.422,0-0.621-0.156-0.621-0.579v-2.558c0-0.401,0.199-0.579,0.621-0.579h2.13c0.421,0,0.621,0.178,0.621,0.579v2.558
				C583.867,149.814,583.667,149.97,583.246,149.97z"/>
			<path d="M597.421,162.985h-2.707c-0.222,0-0.377-0.133-0.377-0.333v-7.72c0-1.224-0.488-1.624-1.509-1.624
				c-1.043,0-2.241,0.29-2.241,0.29v9.055c0,0.2-0.133,0.333-0.354,0.333h-2.707c-0.222,0-0.354-0.133-0.354-0.333v-9.7
				c0-0.845,0.555-1.112,1.842-1.424c1.108-0.267,2.861-0.512,4.26-0.512c2.816,0,4.503,0.667,4.503,3.449v8.187
				C597.775,162.852,597.62,162.985,597.421,162.985z"/>
			<path d="M612.659,152.996c0,0.067-0.045,0.156-0.178,0.245c-0.467,0.333-1.021,0.467-1.553,0.467
				c-0.378,0-0.422-0.044-0.933-0.133c0.354,0.289,0.909,0.979,0.909,2.002c0,2.714-2.107,3.604-4.814,3.604h-1.33
				c-0.755,0-1.021,0.356-1.021,0.912c0,0.756,0.533,0.868,1.664,0.868h2.107c1.975,0,4.127,0.489,4.127,3.115
				c0,2.848-2.439,3.893-5.768,3.893c-3.795,0-5.77-0.623-5.77-2.825c0-2.047,1.643-2.136,2.441-2.336v-0.355
				c-1.021-0.223-2.041-0.201-2.041-1.914c0-1.513,1.109-1.713,2.484-1.936c-0.754-0.2-2.551-0.667-2.551-3.315
				c0-3.181,1.975-4.271,5.235-4.271c1.442,0,2.019,0.178,2.884,0.423c0.244,0.067,0.533,0.089,0.865,0.089
				c0.334,0,0.732-0.044,1.065-0.133c0.399-0.111,0.821-0.333,1.153-0.489c0.066-0.022,0.156-0.067,0.2-0.067
				c0.11,0,0.177,0.067,0.222,0.223l0.555,1.757C612.636,152.885,612.659,152.951,612.659,152.996z M606.558,163.408h-1.509
				c-0.755,0-1.664,0.133-1.664,1.224c0,1.112,0.909,1.401,2.573,1.401c1.42,0,2.418-0.312,2.418-1.491
				C608.376,163.497,607.556,163.408,606.558,163.408z M605.759,152.885c-1.553,0-1.997,0.756-1.997,2.202
				c0,1.446,0.444,2.225,1.997,2.225c1.531,0,1.975-0.779,1.975-2.225C607.733,153.641,607.29,152.885,605.759,152.885z"/>
			<path d="M624.68,158.024c0,0.289-0.111,0.578-0.532,0.578h-7.166c0,0.935,0.311,1.468,0.953,1.891
				c0.555,0.333,1.31,0.489,2.396,0.489c1.354,0,2.484-0.356,3.062-0.512c0.022-0.022,0.044-0.022,0.067-0.022
				c0.154,0,0.287,0.111,0.354,0.356l0.288,1.224c0.022,0.066,0.022,0.111,0.022,0.133c0,0.2-0.11,0.312-0.244,0.378
				c-0.71,0.289-2.241,0.734-4.126,0.734c-4.327,0-6.168-1.602-6.168-6.073c0-4.338,1.286-6.185,5.59-6.185
				c2.197,0,3.572,0.512,4.416,1.513c0.82,1.001,1.109,2.469,1.109,4.427C624.702,157.223,624.68,157.712,624.68,158.024z
				 M621.329,156.399c0-0.601-0.044-1.09-0.133-1.579c-0.266-1.157-0.865-1.535-1.975-1.535c-1.397,0-1.908,0.445-2.107,1.446
				c-0.111,0.556-0.111,1.135-0.133,1.802h4.348V156.399z"/>
			<path d="M637.433,162.985h-2.707c-0.221,0-0.377-0.133-0.377-0.333v-7.72c0-1.224-0.488-1.624-1.508-1.624
				c-1.043,0-2.241,0.29-2.241,0.29v9.055c0,0.2-0.134,0.333-0.354,0.333h-2.707c-0.223,0-0.355-0.133-0.355-0.333v-9.7
				c0-0.845,0.555-1.112,1.842-1.424c1.109-0.267,2.861-0.512,4.26-0.512c2.817,0,4.504,0.667,4.504,3.449v8.187
				C637.788,162.852,637.632,162.985,637.433,162.985z"/>
			<path d="M657.993,158.024c0,0.289-0.11,0.578-0.532,0.578h-7.166c0,0.935,0.311,1.468,0.954,1.891
				c0.555,0.333,1.309,0.489,2.396,0.489c1.354,0,2.484-0.356,3.061-0.512c0.023-0.022,0.045-0.022,0.067-0.022
				c0.155,0,0.288,0.111,0.354,0.356l0.289,1.224c0.021,0.066,0.021,0.111,0.021,0.133c0,0.2-0.11,0.312-0.244,0.378
				c-0.709,0.289-2.24,0.734-4.126,0.734c-4.327,0-6.168-1.602-6.168-6.073c0-4.338,1.286-6.185,5.591-6.185
				c2.196,0,3.572,0.512,4.415,1.513c0.821,1.001,1.109,2.469,1.109,4.427C658.016,157.223,657.993,157.712,657.993,158.024z
				 M654.644,156.399c0-0.601-0.045-1.09-0.133-1.579c-0.267-1.157-0.865-1.535-1.975-1.535c-1.398,0-1.908,0.445-2.108,1.446
				c-0.11,0.556-0.11,1.135-0.133,1.802h4.349V156.399z"/>
			<path d="M666.154,162.518c0,0.223-0.178,0.334-0.222,0.334c-0.199,0.089-0.844,0.333-2.13,0.333
				c-2.263,0-3.306-1.291-3.306-3.137v-12.904c0-0.289,0.066-0.422,0.354-0.467l2.573-0.423h0.111c0.223,0,0.377,0.111,0.377,0.378
				v13.104c0,0.779,0.443,1.001,0.865,1.001c0.355,0,0.577-0.044,0.755-0.067c0.022,0,0.044-0.022,0.066-0.022
				c0.177,0,0.244,0.111,0.267,0.267l0.288,1.535V162.518z"/>
			<path d="M678.599,158.024c0,0.289-0.111,0.578-0.533,0.578h-7.166c0,0.935,0.311,1.468,0.955,1.891
				c0.555,0.333,1.309,0.489,2.396,0.489c1.354,0,2.485-0.356,3.062-0.512c0.022-0.022,0.045-0.022,0.066-0.022
				c0.156,0,0.289,0.111,0.355,0.356l0.288,1.224c0.022,0.066,0.022,0.111,0.022,0.133c0,0.2-0.111,0.312-0.244,0.378
				c-0.71,0.289-2.24,0.734-4.127,0.734c-4.326,0-6.168-1.602-6.168-6.073c0-4.338,1.287-6.185,5.592-6.185
				c2.196,0,3.572,0.512,4.414,1.513c0.821,1.001,1.109,2.469,1.109,4.427C678.62,157.223,678.599,157.712,678.599,158.024z
				 M675.249,156.399c0-0.601-0.045-1.09-0.134-1.579c-0.267-1.157-0.865-1.535-1.975-1.535c-1.397,0-1.908,0.445-2.107,1.446
				c-0.111,0.556-0.111,1.135-0.134,1.802h4.35V156.399z"/>
			<path d="M688.601,162.629c-0.045,0.2-0.178,0.356-0.399,0.356h-4.637c-0.222,0-0.354-0.156-0.421-0.356l-3.062-10.768
				c-0.021-0.044-0.021-0.111-0.021-0.156c0-0.223,0.133-0.4,0.398-0.4h2.574c0.288,0,0.422,0.066,0.51,0.378l2.086,9.166h0.599
				l1.886-9.144c0.066-0.312,0.223-0.4,0.511-0.4h2.596c0.267,0,0.444,0.178,0.444,0.4c0,0.044-0.023,0.089-0.023,0.156
				L688.601,162.629z"/>
			<path d="M704.083,158.024c0,0.289-0.11,0.578-0.532,0.578h-7.166c0,0.935,0.311,1.468,0.954,1.891
				c0.555,0.333,1.309,0.489,2.396,0.489c1.354,0,2.484-0.356,3.061-0.512c0.023-0.022,0.045-0.022,0.067-0.022
				c0.155,0,0.288,0.111,0.354,0.356l0.289,1.224c0.021,0.066,0.021,0.111,0.021,0.133c0,0.2-0.11,0.312-0.244,0.378
				c-0.709,0.289-2.24,0.734-4.126,0.734c-4.327,0-6.168-1.602-6.168-6.073c0-4.338,1.286-6.185,5.591-6.185
				c2.196,0,3.572,0.512,4.415,1.513c0.821,1.001,1.109,2.469,1.109,4.427C704.105,157.223,704.083,157.712,704.083,158.024z
				 M700.733,156.399c0-0.601-0.045-1.09-0.133-1.579c-0.267-1.157-0.865-1.535-1.975-1.535c-1.398,0-1.908,0.445-2.108,1.446
				c-0.11,0.556-0.11,1.135-0.133,1.802h4.349V156.399z"/>
			<path d="M712.821,153.574c-1.287,0-2.441,0.156-2.818,0.245v8.833c0,0.2-0.133,0.333-0.354,0.333h-2.707
				c-0.155,0-0.354-0.133-0.354-0.333v-9.722c0-0.646,0.311-0.89,0.998-1.157c0.666-0.245,1.73-0.378,2.685-0.512
				c0.621-0.089,1.42-0.2,2.151-0.223h0.2c0.244,0,0.311,0.022,0.444,0.111c0.066,0.044,0.154,0.156,0.154,0.356v1.624
				C713.22,153.374,713.198,153.574,712.821,153.574z"/>
			<path d="M725.287,162.985h-2.706c-0.223,0-0.377-0.133-0.377-0.333v-7.72c0-1.224-0.488-1.624-1.51-1.624
				c-1.043,0-2.24,0.29-2.24,0.29v9.055c0,0.2-0.133,0.333-0.355,0.333h-2.707c-0.221,0-0.354-0.133-0.354-0.333v-9.7
				c0-0.845,0.555-1.112,1.842-1.424c1.109-0.267,2.862-0.512,4.26-0.512c2.817,0,4.503,0.667,4.503,3.449v8.187
				C725.642,162.852,725.487,162.985,725.287,162.985z"/>
			<path d="M738.994,158.024c0,0.289-0.11,0.578-0.532,0.578h-7.166c0,0.935,0.311,1.468,0.954,1.891
				c0.555,0.333,1.309,0.489,2.396,0.489c1.354,0,2.485-0.356,3.062-0.512c0.021-0.022,0.044-0.022,0.066-0.022
				c0.155,0,0.288,0.111,0.354,0.356l0.289,1.224c0.021,0.066,0.021,0.111,0.021,0.133c0,0.2-0.11,0.312-0.244,0.378
				c-0.71,0.289-2.24,0.734-4.126,0.734c-4.326,0-6.168-1.602-6.168-6.073c0-4.338,1.287-6.185,5.591-6.185
				c2.196,0,3.572,0.512,4.415,1.513c0.821,1.001,1.109,2.469,1.109,4.427C739.017,157.223,738.994,157.712,738.994,158.024z
				 M735.645,156.399c0-0.601-0.044-1.09-0.134-1.579c-0.266-1.157-0.865-1.535-1.975-1.535c-1.397,0-1.908,0.445-2.107,1.446
				c-0.111,0.556-0.111,1.135-0.133,1.802h4.349V156.399z"/>
			<path d="M228.459,189.077c0,0.178-0.066,0.312-0.288,0.378c-0.311,0.089-1.309,0.401-2.795,0.401
				c-2.64,0-3.972-0.979-3.972-3.626v-11.19c0-0.312,0.111-0.467,0.399-0.534l2.529-0.445h0.111c0.222,0,0.377,0.111,0.377,0.378
				v3.56h2.951c0.2,0,0.355,0.133,0.355,0.333v1.78c0,0.2-0.155,0.334-0.355,0.334h-2.951v5.628c0,0.868,0.288,1.357,1.42,1.357
				c0.666,0,1.242-0.111,1.575-0.178h0.088c0.156,0,0.222,0.111,0.267,0.245l0.288,1.446V189.077z"/>
			<path d="M233.958,189.677h-2.707c-0.2,0-0.355-0.133-0.355-0.333v-10.746c0-0.2,0.155-0.334,0.355-0.334h2.707
				c0.2,0,0.355,0.134,0.355,0.334v10.746C234.313,189.544,234.158,189.677,233.958,189.677z M233.67,176.663h-2.13
				c-0.422,0-0.622-0.156-0.622-0.579v-2.558c0-0.401,0.2-0.579,0.622-0.579h2.13c0.421,0,0.621,0.178,0.621,0.579v2.558
				C234.292,176.507,234.092,176.663,233.67,176.663z"/>
			<path d="M243.252,189.21c0,0.223-0.178,0.334-0.222,0.334c-0.199,0.089-0.843,0.333-2.13,0.333c-2.263,0-3.306-1.291-3.306-3.137
				v-12.904c0-0.289,0.067-0.422,0.355-0.467l2.574-0.423h0.111c0.222,0,0.377,0.111,0.377,0.378v13.104
				c0,0.779,0.443,1.001,0.865,1.001c0.355,0,0.577-0.044,0.754-0.067c0.022,0,0.044-0.022,0.066-0.022
				c0.177,0,0.244,0.111,0.266,0.267l0.289,1.535V189.21z"/>
			<path d="M261.13,189.455c-1.065,0.312-2.44,0.512-3.816,0.512c-4.348,0-5.857-1.379-5.857-6.029c0-3.849,0.91-6.229,4.792-6.229
				c1.553,0,2.751,0.356,2.995,0.4L259,176.751v-2.848c0-0.312,0.111-0.489,0.421-0.534l2.507-0.423h0.133
				c0.222,0,0.377,0.111,0.377,0.378v14.394C262.439,188.32,262.373,189.099,261.13,189.455z M259,180.222c0,0-0.977-0.2-1.797-0.2
				c-1.686,0-2.285,0.333-2.285,3.715c0,3.56,0.688,3.916,2.418,3.916c0.865,0,1.664-0.223,1.664-0.223V180.222z"/>
			<path d="M275.902,184.716c0,0.289-0.111,0.578-0.533,0.578h-7.166c0,0.935,0.311,1.468,0.954,1.891
				c0.555,0.333,1.309,0.489,2.396,0.489c1.354,0,2.485-0.356,3.062-0.512c0.022-0.022,0.044-0.022,0.067-0.022
				c0.155,0,0.288,0.111,0.355,0.356l0.288,1.224c0.022,0.066,0.022,0.111,0.022,0.133c0,0.2-0.111,0.312-0.244,0.378
				c-0.71,0.289-2.241,0.734-4.126,0.734c-4.327,0-6.168-1.602-6.168-6.073c0-4.338,1.287-6.185,5.591-6.185
				c2.197,0,3.572,0.512,4.415,1.513c0.821,1.001,1.109,2.469,1.109,4.427C275.924,183.915,275.902,184.405,275.902,184.716z
				 M272.552,183.092c0-0.601-0.044-1.09-0.133-1.579c-0.266-1.157-0.865-1.535-1.975-1.535c-1.397,0-1.908,0.445-2.107,1.446
				c-0.111,0.556-0.111,1.135-0.133,1.802h4.349V183.092z"/>
			<path d="M288.655,189.677h-2.707c-0.222,0-0.377-0.133-0.377-0.333v-7.72c0-1.224-0.488-1.624-1.509-1.624
				c-1.043,0-2.241,0.29-2.241,0.29v9.055c0,0.2-0.133,0.333-0.355,0.333h-2.707c-0.222,0-0.355-0.133-0.355-0.333v-9.7
				c0-0.845,0.555-1.112,1.842-1.424c1.109-0.267,2.862-0.512,4.26-0.512c2.817,0,4.503,0.667,4.503,3.449v8.187
				C289.01,189.544,288.855,189.677,288.655,189.677z"/>
			<path d="M306.199,189.321c-0.044,0.2-0.177,0.356-0.399,0.356h-4.637c-0.222,0-0.355-0.156-0.421-0.356l-3.062-10.768
				c-0.022-0.044-0.022-0.111-0.022-0.156c0-0.223,0.133-0.4,0.399-0.4h2.573c0.289,0,0.422,0.066,0.51,0.378l2.086,9.166h0.599
				l1.886-9.144c0.066-0.312,0.222-0.4,0.51-0.4h2.596c0.266,0,0.444,0.178,0.444,0.4c0,0.044-0.022,0.089-0.022,0.156
				L306.199,189.321z"/>
			<path d="M314.56,189.677h-2.707c-0.2,0-0.355-0.133-0.355-0.333v-10.746c0-0.2,0.155-0.334,0.355-0.334h2.707
				c0.2,0,0.355,0.134,0.355,0.334v10.746C314.915,189.544,314.759,189.677,314.56,189.677z M314.271,176.663h-2.13
				c-0.422,0-0.622-0.156-0.622-0.579v-2.558c0-0.401,0.2-0.579,0.622-0.579h2.13c0.421,0,0.621,0.178,0.621,0.579v2.558
				C314.893,176.507,314.693,176.663,314.271,176.663z"/>
			<path d="M324.43,180.267c-1.287,0-2.44,0.156-2.817,0.245v8.833c0,0.2-0.133,0.333-0.355,0.333h-2.707
				c-0.155,0-0.355-0.133-0.355-0.333v-9.722c0-0.646,0.311-0.89,0.999-1.157c0.666-0.245,1.73-0.378,2.685-0.512
				c0.621-0.089,1.42-0.2,2.152-0.223h0.2c0.244,0,0.311,0.022,0.444,0.111c0.066,0.044,0.155,0.156,0.155,0.356v1.624
				C324.83,180.066,324.808,180.267,324.43,180.267z"/>
			<path d="M337.762,189.455c0,0.111-0.111,0.223-0.222,0.223h-3.483c-0.088,0-0.222-0.022-0.311-0.156l-2.973-4.539h-0.71v4.361
				c0,0.2-0.155,0.333-0.355,0.333h-2.707c-0.222,0-0.355-0.133-0.355-0.333v-15.44c0-0.312,0.089-0.489,0.399-0.534l2.507-0.423
				h0.111c0.222,0,0.399,0.111,0.399,0.4v9.366h0.71l3.106-4.561c0.111-0.134,0.2-0.156,0.311-0.156h0.044l3.128,0.066
				c0.133,0,0.2,0.111,0.2,0.223c0,0.022-0.022,0.067-0.044,0.089l-3.927,5.295l4.127,5.695
				C337.74,189.41,337.762,189.433,337.762,189.455z"/>
			<path d="M350.027,184.716c0,0.289-0.111,0.578-0.533,0.578h-7.166c0,0.935,0.311,1.468,0.954,1.891
				c0.555,0.333,1.309,0.489,2.396,0.489c1.354,0,2.485-0.356,3.062-0.512c0.022-0.022,0.044-0.022,0.067-0.022
				c0.155,0,0.288,0.111,0.355,0.356l0.288,1.224c0.022,0.066,0.022,0.111,0.022,0.133c0,0.2-0.111,0.312-0.244,0.378
				c-0.71,0.289-2.241,0.734-4.126,0.734c-4.327,0-6.168-1.602-6.168-6.073c0-4.338,1.287-6.185,5.591-6.185
				c2.197,0,3.572,0.512,4.415,1.513c0.821,1.001,1.109,2.469,1.109,4.427C350.049,183.915,350.027,184.405,350.027,184.716z
				 M346.677,183.092c0-0.601-0.044-1.09-0.133-1.579c-0.266-1.157-0.865-1.535-1.975-1.535c-1.397,0-1.908,0.445-2.107,1.446
				c-0.111,0.556-0.111,1.135-0.133,1.802h4.349V183.092z"/>
			<path d="M358.188,189.21c0,0.223-0.178,0.334-0.222,0.334c-0.199,0.089-0.843,0.333-2.13,0.333c-2.263,0-3.306-1.291-3.306-3.137
				v-12.904c0-0.289,0.067-0.422,0.355-0.467l2.574-0.423h0.111c0.222,0,0.377,0.111,0.377,0.378v13.104
				c0,0.779,0.443,1.001,0.865,1.001c0.355,0,0.577-0.044,0.754-0.067c0.022,0,0.044-0.022,0.066-0.022
				c0.177,0,0.244,0.111,0.266,0.267l0.289,1.535V189.21z"/>
			<path d="M363.51,189.677h-2.707c-0.2,0-0.355-0.133-0.355-0.333v-10.746c0-0.2,0.155-0.334,0.355-0.334h2.707
				c0.2,0,0.355,0.134,0.355,0.334v10.746C363.865,189.544,363.71,189.677,363.51,189.677z M363.222,176.663h-2.13
				c-0.422,0-0.622-0.156-0.622-0.579v-2.558c0-0.401,0.2-0.579,0.622-0.579h2.13c0.421,0,0.621,0.178,0.621,0.579v2.558
				C363.843,176.507,363.644,176.663,363.222,176.663z"/>
			<path d="M379.194,179.688c0,0.067-0.044,0.156-0.178,0.245c-0.466,0.333-1.021,0.467-1.553,0.467
				c-0.377,0-0.422-0.044-0.932-0.133c0.355,0.289,0.91,0.979,0.91,2.002c0,2.714-2.107,3.604-4.814,3.604h-1.331
				c-0.754,0-1.021,0.356-1.021,0.912c0,0.756,0.533,0.868,1.664,0.868h2.107c1.975,0,4.127,0.489,4.127,3.115
				c0,2.848-2.44,3.893-5.769,3.893c-3.794,0-5.769-0.623-5.769-2.825c0-2.047,1.642-2.136,2.44-2.336v-0.355
				c-1.021-0.223-2.041-0.201-2.041-1.914c0-1.513,1.109-1.713,2.485-1.936c-0.754-0.2-2.551-0.667-2.551-3.315
				c0-3.181,1.975-4.271,5.236-4.271c1.442,0,2.019,0.178,2.884,0.423c0.244,0.067,0.532,0.089,0.865,0.089s0.732-0.044,1.065-0.133
				c0.399-0.111,0.821-0.333,1.154-0.489c0.066-0.022,0.155-0.067,0.2-0.067c0.111,0,0.177,0.067,0.222,0.223l0.555,1.757
				C379.171,179.577,379.194,179.644,379.194,179.688z M373.093,190.1h-1.509c-0.754,0-1.664,0.133-1.664,1.224
				c0,1.112,0.91,1.401,2.574,1.401c1.42,0,2.418-0.312,2.418-1.491C374.912,190.189,374.091,190.1,373.093,190.1z M372.294,179.577
				c-1.553,0-1.997,0.756-1.997,2.202c0,1.446,0.444,2.225,1.997,2.225c1.531,0,1.975-0.779,1.975-2.225
				C374.269,180.333,373.825,179.577,372.294,179.577z"/>
			<path d="M390.948,189.677h-2.707c-0.222,0-0.355-0.133-0.355-0.333v-7.876c0-0.979-0.333-1.468-1.397-1.468
				c-1.132,0-2.374,0.267-2.374,0.267v9.077c0,0.2-0.133,0.333-0.355,0.333h-2.707c-0.222,0-0.355-0.133-0.355-0.333v-15.44
				c0-0.312,0.089-0.489,0.399-0.534l2.529-0.423h0.111c0.222,0,0.377,0.111,0.377,0.378v3.47l-0.244,1.379
				c1.042-0.245,2.352-0.467,3.461-0.467c2.485,0,3.971,0.712,3.971,3.182v8.454C391.303,189.544,391.17,189.677,390.948,189.677z"
				/>
			<path d="M404.656,184.716c0,0.289-0.111,0.578-0.533,0.578h-7.166c0,0.935,0.311,1.468,0.954,1.891
				c0.555,0.333,1.309,0.489,2.396,0.489c1.354,0,2.485-0.356,3.062-0.512c0.022-0.022,0.044-0.022,0.067-0.022
				c0.155,0,0.288,0.111,0.355,0.356l0.288,1.224c0.022,0.066,0.022,0.111,0.022,0.133c0,0.2-0.111,0.312-0.244,0.378
				c-0.71,0.289-2.241,0.734-4.126,0.734c-4.327,0-6.168-1.602-6.168-6.073c0-4.338,1.287-6.185,5.591-6.185
				c2.196,0,3.572,0.512,4.415,1.513c0.821,1.001,1.109,2.469,1.109,4.427C404.678,183.915,404.656,184.405,404.656,184.716z
				 M401.306,183.092c0-0.601-0.044-1.09-0.133-1.579c-0.266-1.157-0.865-1.535-1.975-1.535c-1.398,0-1.908,0.445-2.108,1.446
				c-0.111,0.556-0.111,1.135-0.133,1.802h4.349V183.092z"/>
			<path d="M416.255,189.455c-1.065,0.312-2.44,0.512-3.816,0.512c-4.348,0-5.857-1.379-5.857-6.029c0-3.849,0.91-6.229,4.792-6.229
				c1.553,0,2.751,0.356,2.995,0.4l-0.244-1.357v-2.848c0-0.312,0.111-0.489,0.421-0.534l2.507-0.423h0.133
				c0.222,0,0.377,0.111,0.377,0.378v14.394C417.564,188.32,417.498,189.099,416.255,189.455z M414.125,180.222
				c0,0-0.977-0.2-1.797-0.2c-1.686,0-2.285,0.333-2.285,3.715c0,3.56,0.688,3.916,2.418,3.916c0.865,0,1.664-0.223,1.664-0.223
				V180.222z"/>
			<path d="M424.172,191.702c-0.044,0.2-0.089,0.29-0.333,0.29h-2.174c-0.155,0-0.311-0.045-0.311-0.245v-0.044l0.488-5.117
				c0.022-0.223,0.066-0.289,0.333-0.289h2.551c0.156,0,0.311,0.022,0.311,0.2v0.066L424.172,191.702z"/>
			<path d="M444.8,189.455c-1.065,0.312-2.44,0.512-3.816,0.512c-4.348,0-5.857-1.379-5.857-6.029c0-3.849,0.91-6.229,4.792-6.229
				c1.553,0,2.751,0.356,2.995,0.4l-0.244-1.357v-2.848c0-0.312,0.111-0.489,0.421-0.534l2.507-0.423h0.133
				c0.222,0,0.377,0.111,0.377,0.378v14.394C446.109,188.32,446.042,189.099,444.8,189.455z M442.67,180.222
				c0,0-0.977-0.2-1.797-0.2c-1.686,0-2.285,0.333-2.285,3.715c0,3.56,0.688,3.916,2.418,3.916c0.865,0,1.664-0.223,1.664-0.223
				V180.222z"/>
			<path d="M459.572,184.716c0,0.289-0.111,0.578-0.533,0.578h-7.166c0,0.935,0.311,1.468,0.954,1.891
				c0.555,0.333,1.309,0.489,2.396,0.489c1.354,0,2.485-0.356,3.062-0.512c0.022-0.022,0.044-0.022,0.067-0.022
				c0.155,0,0.288,0.111,0.355,0.356l0.288,1.224c0.022,0.066,0.022,0.111,0.022,0.133c0,0.2-0.111,0.312-0.244,0.378
				c-0.71,0.289-2.241,0.734-4.126,0.734c-4.327,0-6.168-1.602-6.168-6.073c0-4.338,1.287-6.185,5.591-6.185
				c2.197,0,3.572,0.512,4.415,1.513c0.821,1.001,1.109,2.469,1.109,4.427C459.594,183.915,459.572,184.405,459.572,184.716z
				 M456.222,183.092c0-0.601-0.044-1.09-0.133-1.579c-0.266-1.157-0.865-1.535-1.975-1.535c-1.397,0-1.908,0.445-2.107,1.446
				c-0.111,0.556-0.111,1.135-0.133,1.802h4.349V183.092z"/>
			<path d="M486.567,189.677h-2.707c-0.222,0-0.377-0.133-0.377-0.333v-7.72c0-1.224-0.577-1.624-1.597-1.624
				c-1.043,0-2.263,0.267-2.263,0.267v9.077c0,0.2-0.133,0.333-0.333,0.333h-2.707c-0.222,0-0.377-0.133-0.377-0.333v-7.72
				c0-1.224-0.488-1.624-1.509-1.624c-1.065,0-2.352,0.29-2.352,0.29v9.055c0,0.2-0.133,0.333-0.355,0.333h-2.707
				c-0.222,0-0.355-0.133-0.355-0.333v-9.7c0-0.845,0.555-1.112,1.842-1.424c1.109-0.267,2.906-0.512,4.326-0.512
				c1.375,0,2.352,0.312,2.951,0.757c0.399-0.156,2.418-0.757,4.371-0.757c2.795,0,4.504,0.667,4.504,3.449v8.187
				C486.922,189.544,486.789,189.677,486.567,189.677z"/>
			<path d="M500.14,179.466c0.909,1.112,1.087,2.603,1.087,4.383c0,3.426-0.666,6.118-5.88,6.118c-1.598,0-2.707-0.267-3.549-0.712
				l-1.354,1.58c-0.09,0.089-0.156,0.134-0.244,0.134c-0.066,0-0.156-0.045-0.223-0.111l-0.776-0.623
				c-0.11-0.089-0.133-0.156-0.133-0.223c0-0.089,0.044-0.155,0.11-0.222l1.354-1.58c-0.887-1.112-1.087-2.603-1.087-4.36
				c0-3.449,0.665-6.141,5.901-6.141c1.576,0,2.685,0.267,3.527,0.712l1.354-1.58c0.09-0.089,0.156-0.133,0.244-0.133
				c0.066,0,0.156,0.044,0.223,0.111l0.775,0.623c0.111,0.089,0.134,0.156,0.134,0.222c0,0.089-0.022,0.156-0.089,0.223
				L500.14,179.466z M495.325,180.022c-2.285,0-2.375,1.201-2.375,3.827c0,0.534,0,1.001,0.067,1.424l4.038-4.739
				C496.7,180.2,496.19,180.022,495.325,180.022z M497.654,182.291l-4.104,4.806c0.355,0.378,0.888,0.556,1.775,0.556
				c2.307,0,2.418-1.202,2.418-3.804C497.743,183.248,497.721,182.736,497.654,182.291z"/>
			<path d="M512.981,189.455c-1.065,0.312-2.441,0.512-3.816,0.512c-4.349,0-5.857-1.379-5.857-6.029
				c0-3.849,0.91-6.229,4.792-6.229c1.554,0,2.751,0.356,2.995,0.4l-0.244-1.357v-2.848c0-0.312,0.111-0.489,0.422-0.534
				l2.507-0.423h0.134c0.221,0,0.377,0.111,0.377,0.378v14.394C514.29,188.32,514.224,189.099,512.981,189.455z M510.851,180.222
				c0,0-0.977-0.2-1.797-0.2c-1.686,0-2.285,0.333-2.285,3.715c0,3.56,0.688,3.916,2.418,3.916c0.865,0,1.664-0.223,1.664-0.223
				V180.222z"/>
			<path d="M527.753,184.716c0,0.289-0.111,0.578-0.533,0.578h-7.166c0,0.935,0.311,1.468,0.955,1.891
				c0.555,0.333,1.309,0.489,2.396,0.489c1.354,0,2.485-0.356,3.062-0.512c0.022-0.022,0.045-0.022,0.066-0.022
				c0.156,0,0.289,0.111,0.355,0.356l0.288,1.224c0.022,0.066,0.022,0.111,0.022,0.133c0,0.2-0.111,0.312-0.244,0.378
				c-0.71,0.289-2.24,0.734-4.127,0.734c-4.326,0-6.168-1.602-6.168-6.073c0-4.338,1.287-6.185,5.592-6.185
				c2.196,0,3.572,0.512,4.414,1.513c0.821,1.001,1.109,2.469,1.109,4.427C527.774,183.915,527.753,184.405,527.753,184.716z
				 M524.403,183.092c0-0.601-0.045-1.09-0.134-1.579c-0.267-1.157-0.865-1.535-1.975-1.535c-1.397,0-1.908,0.445-2.107,1.446
				c-0.111,0.556-0.111,1.135-0.134,1.802h4.35V183.092z"/>
			<path d="M536.49,180.267c-1.286,0-2.44,0.156-2.817,0.245v8.833c0,0.2-0.133,0.333-0.355,0.333h-2.707
				c-0.154,0-0.354-0.133-0.354-0.333v-9.722c0-0.646,0.311-0.89,0.999-1.157c0.665-0.245,1.73-0.378,2.684-0.512
				c0.621-0.089,1.42-0.2,2.152-0.223h0.199c0.244,0,0.311,0.022,0.444,0.111c0.066,0.044,0.155,0.156,0.155,0.356v1.624
				C536.89,180.066,536.868,180.267,536.49,180.267z"/>
			<path d="M550.974,189.966c-1.753,0-3.283-0.245-4.148-0.534c-1.221-0.378-1.266-0.912-1.266-1.936v-13.593
				c0-0.312,0.09-0.489,0.4-0.534l2.529-0.423h0.11c0.222,0,0.378,0.111,0.378,0.378v3.493l-0.244,1.379c0,0,1.53-0.49,2.994-0.49
				c3.395,0,4.793,1.535,4.793,5.94C556.521,187.897,555.566,189.966,550.974,189.966z M550.974,180.044
				c-0.91,0-1.996,0.29-1.996,0.29v7.141c0,0,0.775,0.178,1.707,0.178c1.82,0,2.353-0.579,2.353-3.916
				C553.037,180.534,552.638,180.044,550.974,180.044z"/>
			<path d="M566.899,189.655c-0.82,0.201-1.863,0.312-3.15,0.312c-2.574,0-5.414-0.312-5.414-3.804c0-2.848,1.82-3.226,3.439-3.471
				l3.86-0.623v-0.601c0-0.601-0.066-0.979-0.532-1.201c-0.311-0.156-0.844-0.223-1.576-0.223c-1.441,0-3.127,0.467-3.727,0.601
				c-0.045,0.022-0.111,0.044-0.155,0.044c-0.134,0-0.222-0.067-0.244-0.2l-0.333-1.535c-0.021-0.044-0.021-0.067-0.021-0.111
				c0-0.2,0.154-0.289,0.266-0.333c0.488-0.2,2.574-0.801,4.947-0.801c1.553,0,2.641,0.223,3.373,0.646
				c1.109,0.601,1.42,1.624,1.42,2.87v6.118C569.052,189.032,568.431,189.321,566.899,189.655z M565.657,184.115l-2.374,0.378
				c-0.843,0.133-1.575,0.289-1.575,1.624c0,1.557,1.242,1.691,2.129,1.691c0.822,0,1.531-0.156,1.82-0.245V184.115z"/>
			<path d="M583.935,179.688c0,0.067-0.045,0.156-0.178,0.245c-0.466,0.333-1.021,0.467-1.553,0.467
				c-0.377,0-0.422-0.044-0.932-0.133c0.354,0.289,0.909,0.979,0.909,2.002c0,2.714-2.107,3.604-4.814,3.604h-1.331
				c-0.754,0-1.021,0.356-1.021,0.912c0,0.756,0.532,0.868,1.664,0.868h2.107c1.975,0,4.127,0.489,4.127,3.115
				c0,2.848-2.44,3.893-5.769,3.893c-3.794,0-5.769-0.623-5.769-2.825c0-2.047,1.642-2.136,2.44-2.336v-0.355
				c-1.021-0.223-2.041-0.201-2.041-1.914c0-1.513,1.109-1.713,2.484-1.936c-0.754-0.2-2.551-0.667-2.551-3.315
				c0-3.181,1.975-4.271,5.236-4.271c1.441,0,2.019,0.178,2.884,0.423c0.244,0.067,0.532,0.089,0.865,0.089s0.731-0.044,1.065-0.133
				c0.398-0.111,0.82-0.333,1.153-0.489c0.066-0.022,0.155-0.067,0.2-0.067c0.11,0,0.177,0.067,0.221,0.223l0.555,1.757
				C583.912,179.577,583.935,179.644,583.935,179.688z M577.833,190.1h-1.508c-0.755,0-1.664,0.133-1.664,1.224
				c0,1.112,0.909,1.401,2.573,1.401c1.42,0,2.418-0.312,2.418-1.491C579.652,190.189,578.831,190.1,577.833,190.1z
				 M577.034,179.577c-1.553,0-1.996,0.756-1.996,2.202c0,1.446,0.443,2.225,1.996,2.225c1.531,0,1.975-0.779,1.975-2.225
				C579.009,180.333,578.565,179.577,577.034,179.577z"/>
			<path d="M595.956,184.716c0,0.289-0.111,0.578-0.533,0.578h-7.166c0,0.935,0.311,1.468,0.954,1.891
				c0.555,0.333,1.309,0.489,2.396,0.489c1.354,0,2.485-0.356,3.062-0.512c0.021-0.022,0.044-0.022,0.066-0.022
				c0.155,0,0.288,0.111,0.355,0.356l0.287,1.224c0.023,0.066,0.023,0.111,0.023,0.133c0,0.2-0.111,0.312-0.244,0.378
				c-0.711,0.289-2.241,0.734-4.127,0.734c-4.326,0-6.168-1.602-6.168-6.073c0-4.338,1.287-6.185,5.591-6.185
				c2.196,0,3.572,0.512,4.415,1.513c0.82,1.001,1.109,2.469,1.109,4.427C595.978,183.915,595.956,184.405,595.956,184.716z
				 M592.605,183.092c0-0.601-0.044-1.09-0.134-1.579c-0.266-1.157-0.865-1.535-1.975-1.535c-1.397,0-1.908,0.445-2.107,1.446
				c-0.111,0.556-0.111,1.135-0.133,1.802h4.349V183.092z"/>
			<path d="M606.068,175.239c-0.022,0.2-0.066,0.289-0.243,0.289h-0.09c-0.288-0.044-0.976-0.156-1.574-0.156
				c-0.533,0-0.889,0.067-1.109,0.245c-0.223,0.2-0.311,0.489-0.311,0.957v1.424h2.816c0.2,0,0.355,0.133,0.355,0.333v1.78
				c0,0.2-0.155,0.334-0.355,0.334h-2.816v8.899c0,0.2-0.134,0.333-0.355,0.333h-2.707c-0.199,0-0.377-0.133-0.377-0.333v-8.899
				h-1.709c-0.199,0-0.354-0.134-0.354-0.334v-1.78c0-0.2,0.155-0.333,0.354-0.333h1.709v-1.513c0-2.358,1.221-3.537,3.794-3.537
				c1.62,0,2.64,0.289,2.973,0.378c0.2,0.044,0.244,0.2,0.244,0.333v0.067L606.068,175.239z"/>
			<path d="M614.718,189.077c0,0.178-0.066,0.312-0.287,0.378c-0.311,0.089-1.31,0.401-2.796,0.401c-2.64,0-3.972-0.979-3.972-3.626
				v-11.19c0-0.312,0.111-0.467,0.399-0.534l2.529-0.445h0.11c0.223,0,0.378,0.111,0.378,0.378v3.56h2.95
				c0.2,0,0.355,0.133,0.355,0.333v1.78c0,0.2-0.155,0.334-0.355,0.334h-2.95v5.628c0,0.868,0.288,1.357,1.42,1.357
				c0.665,0,1.242-0.111,1.575-0.178h0.089c0.155,0,0.222,0.111,0.267,0.245l0.287,1.446V189.077z"/>
			<path d="M627.34,184.716c0,0.289-0.111,0.578-0.532,0.578h-7.166c0,0.935,0.311,1.468,0.953,1.891
				c0.555,0.333,1.31,0.489,2.396,0.489c1.354,0,2.484-0.356,3.062-0.512c0.022-0.022,0.044-0.022,0.067-0.022
				c0.154,0,0.287,0.111,0.354,0.356l0.288,1.224c0.022,0.066,0.022,0.111,0.022,0.133c0,0.2-0.11,0.312-0.244,0.378
				c-0.71,0.289-2.241,0.734-4.126,0.734c-4.327,0-6.168-1.602-6.168-6.073c0-4.338,1.286-6.185,5.59-6.185
				c2.197,0,3.572,0.512,4.416,1.513c0.82,1.001,1.109,2.469,1.109,4.427C627.362,183.915,627.34,184.405,627.34,184.716z
				 M623.989,183.092c0-0.601-0.044-1.09-0.133-1.579c-0.266-1.157-0.865-1.535-1.975-1.535c-1.397,0-1.908,0.445-2.107,1.446
				c-0.111,0.556-0.111,1.135-0.133,1.802h4.348V183.092z"/>
			<path d="M636.077,180.267c-1.287,0-2.44,0.156-2.817,0.245v8.833c0,0.2-0.134,0.333-0.354,0.333h-2.707
				c-0.156,0-0.355-0.133-0.355-0.333v-9.722c0-0.646,0.311-0.89,0.998-1.157c0.666-0.245,1.73-0.378,2.686-0.512
				c0.621-0.089,1.42-0.2,2.151-0.223h0.2c0.244,0,0.311,0.022,0.443,0.111c0.066,0.044,0.155,0.156,0.155,0.356v1.624
				C636.477,180.066,636.454,180.267,636.077,180.267z"/>
			<path d="M646.591,180.578c-1.109,0.756-2.195,1.135-2.195,2.514c0,0.557,0.021,0.712,0.088,1.202v0.067
				c0,0.245-0.178,0.333-0.466,0.333h-2.374c-0.332,0-0.311-0.111-0.377-0.333c-0.066-0.245-0.178-0.979-0.178-1.58
				c0-1.891,1.021-2.581,2.418-3.493c0.777-0.512,1.842-1.09,1.842-2.18c0-1.446-1.486-1.668-2.662-1.668
				c-1.442,0-3.15,0.445-3.616,0.534c-0.044,0.022-0.111,0.022-0.155,0.022c-0.244,0-0.311-0.178-0.333-0.312l-0.311-1.401
				c-0.022-0.067-0.044-0.156-0.044-0.245c0-0.134,0.044-0.29,0.311-0.378c0.443-0.133,2.396-0.712,4.77-0.712
				c2.44,0,5.746,0.556,5.746,4.049C649.054,178.91,647.767,179.777,646.591,180.578z M644.351,189.677h-2.729
				c-0.244,0-0.422-0.178-0.422-0.445v-2.625c0-0.267,0.178-0.445,0.422-0.445h2.729c0.222,0,0.399,0.178,0.399,0.445v2.625
				C644.75,189.499,644.572,189.677,644.351,189.677z"/>
		</g>
	</g>
</g>
<g>
</g>
<g>
</g>
<g>
</g>
<g>
</g>
<g>
</g>
<g>
</g>
</svg>
