<?xml version="1.0" encoding="utf-8"?>
<!-- Generator: Adobe Illustrator 16.0.4, SVG Export Plug-In . SVG Version: 6.00 Build 0)  -->
<!DOCTYPE svg PUBLIC "-//W3C//DTD SVG 1.1//EN" "http://www.w3.org/Graphics/SVG/1.1/DTD/svg11.dtd">
<svg version="1.1" id="Layer_1" xmlns="http://www.w3.org/2000/svg" xmlns:xlink="http://www.w3.org/1999/xlink" x="0px" y="0px"
	 width="1029.93px" height="560.551px" viewBox="0 0 1029.93 560.551" enable-background="new 0 0 1029.93 560.551"
	 xml:space="preserve">
<g>
	<polygon fill="#FFFFFF" points="552.474,185.802 3.159,184.292 0,1.252 571.049,0 	"/>
	<g>
		<g>
			<path fill="#110906" d="M60.707,64.871h-2.002c-0.34,0-0.604-0.265-0.604-0.604V51.874H41.514v12.392
				c0,0.34-0.265,0.604-0.604,0.604h-2.002c-0.34,0-0.604-0.265-0.604-0.604V37.329c0-0.302,0.189-0.416,0.453-0.491l2.267-0.378
				h0.113c0.264,0,0.378,0.265,0.378,0.491v11.977H58.1V37.329c0-0.302,0.189-0.416,0.454-0.491l2.267-0.378h0.113
				c0.265,0,0.378,0.265,0.378,0.491v27.315C61.311,64.606,61.047,64.871,60.707,64.871z"/>
			<path fill="#110906" d="M77.25,64.266c-0.113,0.378-0.416,0.604-0.755,0.604h-3.967c-0.378,0-0.68-0.227-0.793-0.604
				l-6.271-18.55c-0.038-0.076-0.038-0.151-0.038-0.189c0-0.265,0.151-0.491,0.378-0.491h2.267c0.378,0,0.491,0.227,0.567,0.491
				l5.365,17.152h0.982l4.836-17.152c0.076-0.265,0.265-0.491,0.642-0.491h2.343c0.264,0,0.453,0.189,0.453,0.454v0.113
				L77.25,64.266z"/>
			<path fill="#110906" d="M103.165,56.408c-0.038,0.189-0.302,0.491-0.491,0.491H88.808c0,2.078,0.377,3.249,1.171,4.231
				c1.096,1.398,2.947,1.813,5.592,1.813c2.342,0,3.778-0.454,5.554-0.945c0.076-0.038,0.151-0.075,0.227-0.075
				c0.151,0,0.302,0.113,0.378,0.34l0.416,1.436v0.151c0,0.189-0.151,0.302-0.378,0.416c-1.511,0.604-4.005,1.096-6.498,1.096
				c-7.405,0-9.597-3.438-9.597-10.39c0-6.385,1.285-10.428,8.766-10.428c3.967,0,6.271,1.209,7.518,3.363
				c0.982,1.7,1.209,4.042,1.209,6.649V56.408z M99.575,50.136c-0.68-2.418-2.153-3.211-5.213-3.211
				c-3.022,0-4.496,0.793-5.138,3.211c-0.378,1.398-0.416,2.871-0.454,4.269l11.259-0.038
				C99.991,52.932,99.916,51.534,99.575,50.136z"/>
			<path fill="#110906" d="M137.354,64.871h-1.851c-0.378,0-0.604-0.227-0.604-0.567V50.325c0-2.494-0.907-3.363-3.552-3.363
				c-3.513,0-7.103,1.058-7.103,1.058v16.283c0,0.378-0.151,0.567-0.529,0.567h-1.852c-0.34,0-0.566-0.227-0.566-0.567V50.325
				c0-2.494-0.945-3.363-3.589-3.363c-3.514,0-7.065,1.058-7.065,1.058v16.283c0,0.34-0.189,0.567-0.529,0.567h-1.889
				c-0.34,0-0.567-0.227-0.567-0.567V48.625c0-1.511,0.076-2.191,1.965-2.833c1.964-0.68,5.743-1.247,8.161-1.247
				c2.38,0,4.08,0.454,5.138,1.436c2.116-0.832,6.196-1.436,8.5-1.436c4.496,0,6.499,1.398,6.499,5.44v14.319
				C137.92,64.644,137.693,64.871,137.354,64.871z"/>
			<path fill="#110906" d="M163.038,65.362c-2.683,0-5.138-0.454-6.385-0.869c-1.889-0.642-1.965-1.586-1.965-2.984V37.442
				c0-0.302,0.189-0.416,0.454-0.454l2.04-0.529h0.113c0.265,0,0.378,0.265,0.378,0.491v6.536l-0.378,2.153
				c0,0,3.703-1.096,6.574-1.096c6.272,0,8.01,3.211,8.01,10.352C171.879,62.264,169.876,65.362,163.038,65.362z M163.378,47
				c-2.342,0-5.705,0.907-5.705,0.907v14.395c0,0,2.078,0.68,5.289,0.68c4.345,0,5.818-2.04,5.818-8.009
				C168.781,48.889,167.723,47,163.378,47z"/>
			<path fill="#110906" d="M192.277,47.718c1.171,1.889,1.398,4.42,1.398,7.254c0,5.667-0.907,10.39-8.841,10.39
				c-2.871,0-4.798-0.604-6.121-1.663l-2.002,2.305c-0.038,0.076-0.151,0.113-0.227,0.113c-0.075,0-0.151,0-0.227-0.075l-1.02-0.907
				c-0.076-0.076-0.151-0.151-0.151-0.227c0-0.075,0.038-0.151,0.114-0.227l2.153-2.531c-1.133-1.889-1.36-4.42-1.36-7.178
				c0-5.705,0.907-10.428,8.841-10.428c2.833,0,4.798,0.604,6.121,1.663l1.964-2.343c0.076-0.075,0.151-0.113,0.265-0.113
				c0.076,0,0.151,0.038,0.189,0.076l1.02,0.907c0.113,0.076,0.151,0.151,0.151,0.227c0,0.076-0.038,0.151-0.114,0.227
				L192.277,47.718z M184.834,46.962c-5.478,0-5.705,3.211-5.705,8.01c0,1.813,0.038,3.4,0.378,4.647l9.634-11.296
				C188.31,47.454,186.95,46.962,184.834,46.962z M190.161,50.212l-9.672,11.372c0.831,0.869,2.191,1.36,4.345,1.36
				c5.479,0,5.705-3.211,5.705-7.972C190.539,53.121,190.501,51.496,190.161,50.212z"/>
			<path fill="#110906" d="M208.368,47.189c-2.494,0-4.534,0.188-6.649,0.718v16.396c0,0.34-0.189,0.567-0.529,0.567h-1.889
				c0,0-0.567-0.227-0.567-0.567V48.549c0-1.663,0.34-2.153,1.625-2.758c1.663-0.756,5.063-1.247,6.876-1.247h0.944
				c0.189,0,0.529,0.076,0.529,0.567v1.625C208.708,47,208.633,47.189,208.368,47.189z"/>
			<path fill="#110906" d="M242.254,46.585c0,0.075-0.076,0.113-0.189,0.227c-0.831,0.566-1.776,0.793-2.683,0.793
				c-0.604,0-0.642-0.038-1.511-0.189c0,0,1.625,1.36,1.625,4.042c0,5.365-3.325,6.914-8.312,6.914h-2.796
				c-1.964,0-2.418,0.982-2.418,1.965c0,1.587,1.096,2.002,2.758,2.002h5.705c3.627,0,6.196,1.096,6.196,4.458
				c0,4.685-3.778,6.234-9.181,6.234c-6.272,0-9.143-1.247-9.143-5.062c0-2.947,2.002-3.514,3.854-3.892v-0.416
				c-1.7-0.378-3.173-0.567-3.173-3.249c0-2.305,1.247-2.872,4.156-3.325c-1.776-0.567-4.27-1.058-4.27-5.629
				c0-5.176,3.4-6.914,8.274-6.914c2.342,0,3.287,0.378,4.723,0.793c0.416,0.076,0.869,0.151,1.397,0.151
				c0.567,0,1.209-0.113,1.738-0.265c0.68-0.189,1.436-0.529,1.964-0.793c0.113-0.038,0.227-0.113,0.302-0.113
				s0.151,0.076,0.189,0.227l0.718,1.889C242.216,46.509,242.254,46.547,242.254,46.585z M234.093,64.871h-5.101
				c-1.927,0-3.703,0.604-3.703,2.872c0,2.606,2.721,2.947,6.196,2.947c2.342,0,6.158-0.34,6.158-3.438
				C237.645,65.06,235.755,64.871,234.093,64.871z M231.184,46.812c-3.287,0-5.327,1.133-5.327,4.647
				c0,3.476,2.04,4.571,5.327,4.571c3.249,0,5.327-1.096,5.327-4.571C236.511,47.945,234.433,46.812,231.184,46.812z"/>
			<path fill="#110906" d="M257.136,64.833c-1.096,0.227-2.909,0.529-4.912,0.529c-3.249,0-8.651-0.113-8.651-6.234
				c0-5.062,2.795-5.327,6.536-5.932l7.141-1.171V50.25c0-1.209-0.038-2.191-1.36-2.683c-0.718-0.302-1.776-0.453-3.438-0.453
				c-2.909,0-5.44,0.718-6.99,1.096c-0.075,0-0.151,0.038-0.227,0.038c-0.151,0-0.302-0.076-0.378-0.302l-0.34-1.7v-0.076
				c0-0.302,0.265-0.416,0.378-0.453c1.209-0.454,4.458-1.171,7.896-1.171c2.683,0,4.42,0.378,5.516,0.982
				c1.927,1.02,1.964,2.796,1.964,4.571v10.843C260.272,63.586,259.743,64.19,257.136,64.833z M257.288,54.405l-6.952,1.171
				c-1.813,0.34-3.665,0.416-3.665,3.4c0,3.778,3.098,4.043,5.592,4.043c1.662,0,3.438-0.227,5.025-0.756V54.405z M252.829,43.109
				c-2.871,0-4.458-1.096-4.458-4.081c0-2.984,1.587-4.042,4.458-4.042c2.834,0,4.42,1.058,4.42,4.042
				C257.25,42.013,255.663,43.109,252.829,43.109z M252.829,36.497c-1.738,0-2.153,0.756-2.153,2.569
				c0,1.775,0.416,2.531,2.153,2.531c1.7,0,2.116-0.793,2.116-2.569C254.945,37.253,254.529,36.497,252.829,36.497z"/>
			<path fill="#110906" d="M280.065,41.635h-1.851c-0.34,0-0.567-0.227-0.567-0.529v-4.08c0-0.34,0.227-0.567,0.567-0.567h1.851
				c0.34,0,0.567,0.227,0.567,0.567v4.08C280.632,41.409,280.405,41.635,280.065,41.635z M280.065,64.871h-1.851
				c-0.34,0-0.567-0.227-0.567-0.567V45.603c0-0.34,0.227-0.567,0.567-0.567h1.851c0.34,0,0.567,0.227,0.567,0.567v18.701
				C280.632,64.644,280.405,64.871,280.065,64.871z"/>
			<path fill="#110906" d="M317.2,46.585c0,0.075-0.076,0.113-0.189,0.227c-0.831,0.566-1.776,0.793-2.683,0.793
				c-0.604,0-0.642-0.038-1.511-0.189c0,0,1.625,1.36,1.625,4.042c0,5.365-3.325,6.914-8.312,6.914h-2.796
				c-1.964,0-2.418,0.982-2.418,1.965c0,1.587,1.096,2.002,2.758,2.002h5.705c3.627,0,6.196,1.096,6.196,4.458
				c0,4.685-3.778,6.234-9.181,6.234c-6.272,0-9.143-1.247-9.143-5.062c0-2.947,2.002-3.514,3.854-3.892v-0.416
				c-1.7-0.378-3.173-0.567-3.173-3.249c0-2.305,1.247-2.872,4.156-3.325c-1.776-0.567-4.27-1.058-4.27-5.629
				c0-5.176,3.4-6.914,8.274-6.914c2.342,0,3.287,0.378,4.723,0.793c0.416,0.076,0.869,0.151,1.397,0.151
				c0.567,0,1.209-0.113,1.738-0.265c0.68-0.189,1.436-0.529,1.964-0.793c0.113-0.038,0.227-0.113,0.302-0.113
				s0.151,0.076,0.189,0.227l0.718,1.889C317.162,46.509,317.2,46.547,317.2,46.585z M309.04,64.871h-5.101
				c-1.927,0-3.703,0.604-3.703,2.872c0,2.606,2.721,2.947,6.196,2.947c2.342,0,6.158-0.34,6.158-3.438
				C312.591,65.06,310.702,64.871,309.04,64.871z M306.13,46.812c-3.287,0-5.327,1.133-5.327,4.647c0,3.476,2.04,4.571,5.327,4.571
				c3.249,0,5.327-1.096,5.327-4.571C311.458,47.945,309.379,46.812,306.13,46.812z"/>
			<path fill="#110906" d="M328.796,67.78c-1.096,3.514-2.229,5.025-6.271,5.025c-1.209,0-1.927-0.038-2.645-0.151
				c-0.34-0.075-0.416-0.264-0.416-0.416v-1.662c0-0.189,0.189-0.378,0.416-0.378h0.038c0.377,0,1.436,0.038,2.191,0.038
				c1.927,0,3.022-0.378,3.627-2.493l0.869-2.872h-1.549c-0.34,0-0.643-0.227-0.756-0.604l-6.31-18.626
				c0-0.076-0.038-0.113-0.038-0.151c0-0.227,0.227-0.454,0.454-0.454h2.229c0.377,0,0.491,0.227,0.566,0.491l5.365,17.152h0.982
				l4.836-17.152c0.038-0.265,0.265-0.491,0.604-0.491h2.38c0.227,0,0.454,0.189,0.454,0.454c0,0.038,0,0.075-0.038,0.113
				L328.796,67.78z"/>
			<path fill="#110906" d="M368.576,64.871h-1.851c-0.378,0-0.604-0.227-0.604-0.567V50.325c0-2.494-0.907-3.363-3.552-3.363
				c-3.513,0-7.103,1.058-7.103,1.058v16.283c0,0.378-0.151,0.567-0.529,0.567h-1.852c-0.34,0-0.566-0.227-0.566-0.567V50.325
				c0-2.494-0.945-3.363-3.589-3.363c-3.514,0-7.065,1.058-7.065,1.058v16.283c0,0.34-0.189,0.567-0.529,0.567h-1.889
				c-0.34,0-0.567-0.227-0.567-0.567V48.625c0-1.511,0.076-2.191,1.965-2.833c1.964-0.68,5.743-1.247,8.161-1.247
				c2.38,0,4.08,0.454,5.138,1.436c2.116-0.832,6.196-1.436,8.5-1.436c4.496,0,6.499,1.398,6.499,5.44v14.319
				C369.143,64.644,368.916,64.871,368.576,64.871z"/>
			<path fill="#110906" d="M390.258,64.871h-1.852c-0.34,0-0.566-0.227-0.566-0.567V50.325c0-2.494-0.945-3.363-3.589-3.363
				c-3.514,0-7.065,1.058-7.065,1.058v16.283c0,0.34-0.189,0.567-0.529,0.567h-1.889c-0.34,0-0.567-0.227-0.567-0.567V48.625
				c0-1.511,0.076-2.191,1.965-2.833c1.964-0.68,5.743-1.247,8.161-1.247c4.496,0,6.498,1.398,6.498,5.44v14.319
				C390.824,64.644,390.598,64.871,390.258,64.871z"/>
			<path fill="#110906" d="M408.503,64.833c-1.096,0.227-2.909,0.529-4.912,0.529c-3.249,0-8.652-0.113-8.652-6.234
				c0-5.062,2.796-5.327,6.536-5.932l7.141-1.171V50.25c0-1.209-0.038-2.191-1.36-2.683c-0.718-0.302-1.776-0.453-3.438-0.453
				c-2.909,0-5.44,0.718-6.99,1.096c-0.076,0-0.151,0.038-0.227,0.038c-0.151,0-0.302-0.076-0.378-0.302l-0.34-1.7v-0.076
				c0-0.302,0.264-0.416,0.378-0.453c1.209-0.454,4.458-1.171,7.896-1.171c2.683,0,4.42,0.378,5.516,0.982
				c1.927,1.02,1.964,2.796,1.964,4.571v10.843C411.639,63.586,411.11,64.19,408.503,64.833z M408.654,54.405l-6.952,1.171
				c-1.813,0.34-3.665,0.416-3.665,3.4c0,3.778,3.098,4.043,5.592,4.043c1.662,0,3.438-0.227,5.025-0.756V54.405z"/>
			<path fill="#110906" d="M422.781,65.362c-3.325,0-6.196-1.096-6.687-1.285c-0.151-0.076-0.302-0.151-0.302-0.378v-0.113
				l0.378-1.473c0.038-0.189,0.151-0.34,0.416-0.34h0.189c0.302,0.113,2.984,1.096,6.083,1.096c3.211,0,5.062-1.02,5.062-3.325
				c0-3.136-2.418-3.022-5.365-3.476c-1.851-0.302-6.574-0.643-6.574-5.629c0-4.874,4.345-5.894,7.669-5.894
				c3.249,0,5.743,0.68,6.158,0.793c0.265,0.038,0.378,0.227,0.378,0.416v0.076l-0.265,1.662c-0.038,0.227-0.189,0.303-0.34,0.303
				h-0.076c-0.529-0.038-3.325-0.718-5.554-0.718c-2.72,0-4.987,0.756-4.987,3.136c0,2.569,2.569,2.871,4.912,3.173
				c3.4,0.454,7.065,0.718,7.065,5.856C430.942,64.153,427.164,65.362,422.781,65.362z"/>
			<path fill="#110906" d="M438.042,41.635h-1.852c-0.34,0-0.566-0.227-0.566-0.529v-4.08c0-0.34,0.227-0.567,0.566-0.567h1.852
				c0.34,0,0.566,0.227,0.566,0.567v4.08C438.608,41.409,438.382,41.635,438.042,41.635z M438.042,64.871h-1.852
				c-0.34,0-0.566-0.227-0.566-0.567V45.603c0-0.34,0.227-0.567,0.566-0.567h1.852c0.34,0,0.566,0.227,0.566,0.567v18.701
				C438.608,64.644,438.382,64.871,438.042,64.871z"/>
			<path fill="#110906" d="M460.973,56.408c-0.038,0.189-0.302,0.491-0.491,0.491h-13.865c0,2.078,0.377,3.249,1.171,4.231
				c1.096,1.398,2.947,1.813,5.592,1.813c2.342,0,3.778-0.454,5.554-0.945c0.076-0.038,0.151-0.075,0.227-0.075
				c0.151,0,0.302,0.113,0.378,0.34l0.416,1.436v0.151c0,0.189-0.151,0.302-0.378,0.416c-1.511,0.604-4.005,1.096-6.498,1.096
				c-7.405,0-9.597-3.438-9.597-10.39c0-6.385,1.285-10.428,8.766-10.428c3.967,0,6.271,1.209,7.518,3.363
				c0.982,1.7,1.209,4.042,1.209,6.649V56.408z M457.384,50.136c-0.68-2.418-2.153-3.211-5.213-3.211
				c-3.022,0-4.496,0.793-5.138,3.211c-0.378,1.398-0.416,2.871-0.454,4.269l11.259-0.038
				C457.8,52.932,457.724,51.534,457.384,50.136z"/>
			<path fill="#110906" d="M475.894,64.266c0,0.151-0.151,0.34-0.302,0.378c-0.831,0.264-2.456,0.718-4.609,0.718
				c-3.74,0-5.516-1.625-5.516-5.251V39.331c0-0.303,0.189-0.416,0.454-0.454l2.04-0.529h0.113c0.265,0,0.378,0.264,0.378,0.491
				v6.196h6.347c0.34,0,0.567,0.227,0.567,0.567v1.284c0,0.34-0.227,0.567-0.567,0.567h-6.347v12.959
				c0,2.078,1.133,2.531,3.098,2.531c1.171,0,2.682-0.302,3.476-0.491h0.113c0.189,0,0.34,0.113,0.416,0.34l0.34,1.398V64.266z"/>
			<path fill="#110906" d="M491.646,49.267c-1.436,1.02-4.08,2.002-4.08,4.609c0,1.322,0.113,1.662,0.227,2.494v0.075
				c0,0.34-0.227,0.454-0.642,0.454h-1.927c-0.34,0-0.453-0.038-0.566-0.491c-0.076-0.378-0.265-1.322-0.265-2.305
				c0-4.231,1.889-4.798,4.723-6.838c0.718-0.529,3.362-1.889,3.362-4.345c0-3.098-3.136-3.551-5.554-3.551
				c-2.984,0-5.969,0.831-6.611,0.982c-0.189,0.038-0.34,0.075-0.454,0.075c-0.151,0-0.265-0.075-0.34-0.416l-0.416-1.738
				c-0.038-0.076-0.038-0.113-0.038-0.151c0-0.189,0.113-0.34,0.416-0.454c0.491-0.189,4.156-1.209,7.519-1.209
				c5.365,0,8.803,1.964,8.803,6.574C495.802,46.925,492.515,48.625,491.646,49.267z M487.415,64.871h-2.267
				c-0.34,0-0.567-0.189-0.567-0.567v-4.231c0-0.377,0.227-0.566,0.567-0.566h2.267c0.378,0,0.567,0.189,0.567,0.566v4.231
				C487.981,64.682,487.792,64.871,487.415,64.871z"/>
			<path fill="#12110E" d="M41.135,101.778c-4.549,0-5.342-2.606-5.342-6.201c0-3.578,0.793-6.185,5.342-6.185
				c4.533,0,5.327,2.607,5.327,6.185C46.462,99.171,45.668,101.778,41.135,101.778z M41.119,90.623c-3.594,0-3.886,1.959-3.886,4.97
				s0.292,4.954,3.886,4.954s3.918-1.959,3.918-4.97S44.713,90.623,41.119,90.623z"/>
			<path fill="#12110E" d="M56.629,93.731c0,0.033-0.033,0.049-0.081,0.097c-0.356,0.243-0.761,0.34-1.149,0.34
				c-0.259,0-0.275-0.017-0.648-0.081c0,0,0.696,0.583,0.696,1.732c0,2.299-1.425,2.962-3.562,2.962h-1.198
				c-0.842,0-1.036,0.421-1.036,0.842c0,0.68,0.47,0.858,1.182,0.858h2.444c1.554,0,2.655,0.469,2.655,1.91
				c0,2.007-1.619,2.671-3.934,2.671c-2.688,0-3.918-0.534-3.918-2.169c0-1.263,0.858-1.506,1.651-1.667v-0.178
				c-0.729-0.162-1.36-0.243-1.36-1.392c0-0.988,0.534-1.23,1.781-1.425c-0.761-0.243-1.83-0.454-1.83-2.412
				c0-2.218,1.457-2.963,3.546-2.963c1.003,0,1.408,0.162,2.023,0.34c0.178,0.033,0.373,0.065,0.599,0.065
				c0.243,0,0.518-0.049,0.745-0.113c0.292-0.081,0.615-0.227,0.842-0.34c0.049-0.016,0.097-0.048,0.129-0.048
				c0.033,0,0.065,0.032,0.081,0.097l0.308,0.81C56.612,93.699,56.629,93.715,56.629,93.731z M53.132,101.567h-2.186
				c-0.826,0-1.587,0.259-1.587,1.23c0,1.117,1.166,1.263,2.655,1.263c1.004,0,2.639-0.146,2.639-1.473
				C54.653,101.648,53.844,101.567,53.132,101.567z M51.885,93.829c-1.409,0-2.283,0.486-2.283,1.992
				c0,1.489,0.874,1.958,2.283,1.958c1.392,0,2.283-0.469,2.283-1.958C54.168,94.314,53.277,93.829,51.885,93.829z"/>
			<path fill="#12110E" d="M69.677,101.567h-0.793c-0.146,0-0.243-0.097-0.243-0.243v-5.99c0-1.068-0.405-1.441-1.538-1.441
				c-1.505,0-3.027,0.453-3.027,0.453v6.978c0,0.146-0.081,0.243-0.227,0.243h-0.81c-0.146,0-0.243-0.097-0.243-0.243V89.814
				c0-0.13,0.081-0.178,0.194-0.194l0.874-0.227h0.049c0.113,0,0.162,0.114,0.162,0.211v2.801l-0.162,0.939
				c0.89-0.259,2.283-0.486,3.222-0.486c1.926,0,2.785,0.599,2.785,2.331v6.136C69.92,101.47,69.839,101.567,69.677,101.567z"/>
			<path fill="#12110E" d="M76.185,101.309c-0.049,0.162-0.178,0.259-0.324,0.259h-1.7c-0.162,0-0.291-0.097-0.34-0.259
				l-2.688-7.949c-0.016-0.033-0.016-0.065-0.016-0.081c0-0.113,0.065-0.21,0.162-0.21h0.971c0.162,0,0.21,0.097,0.243,0.21
				l2.299,7.35h0.421l2.072-7.35c0.032-0.113,0.113-0.21,0.275-0.21h1.004c0.113,0,0.194,0.081,0.194,0.194v0.048L76.185,101.309z"
				/>
			<path fill="#12110E" d="M81.495,91.611h-0.793c-0.146,0-0.243-0.097-0.243-0.227v-1.749c0-0.146,0.097-0.243,0.243-0.243h0.793
				c0.146,0,0.243,0.097,0.243,0.243v1.749C81.738,91.514,81.641,91.611,81.495,91.611z M81.495,101.567h-0.793
				c-0.146,0-0.243-0.097-0.243-0.243v-8.014c0-0.146,0.097-0.243,0.243-0.243h0.793c0.146,0,0.243,0.097,0.243,0.243v8.014
				C81.738,101.47,81.641,101.567,81.495,101.567z"/>
			<path fill="#12110E" d="M87.145,101.373c0,0.113-0.081,0.146-0.129,0.162c-0.13,0.064-0.567,0.194-1.149,0.194
				c-0.972,0-1.619-0.47-1.619-1.668V89.814c0-0.13,0.081-0.178,0.194-0.194l0.874-0.227h0.049c0.113,0,0.162,0.114,0.162,0.211
				v10.426c0,0.583,0.405,0.664,0.729,0.664c0.227,0,0.486-0.033,0.567-0.065h0.081c0.048,0,0.097,0.016,0.113,0.113l0.113,0.567
				C87.129,101.341,87.145,101.357,87.145,101.373z"/>
			<path fill="#12110E" d="M95.531,101.422c0,0.081-0.081,0.146-0.162,0.146h-1.344c-0.064,0-0.097-0.032-0.129-0.081l-3.367-3.675
				h-0.664v3.513c0,0.146-0.081,0.243-0.227,0.243h-0.81c-0.146,0-0.243-0.097-0.243-0.243V89.814c0-0.13,0.081-0.178,0.194-0.194
				l0.874-0.227h0.049c0.113,0,0.162,0.114,0.162,0.211v7.236h0.664l3.27-3.691c0.033-0.049,0.065-0.081,0.13-0.081l1.166,0.032
				c0.081,0,0.162,0.065,0.162,0.146c0,0.032-0.016,0.064-0.032,0.081l-3.562,3.902l3.837,4.112
				C95.515,101.357,95.531,101.389,95.531,101.422z"/>
			<path fill="#12110E" d="M103.804,97.941c-0.016,0.081-0.129,0.21-0.21,0.21h-5.941c0,0.891,0.162,1.392,0.502,1.813
				c0.469,0.599,1.263,0.777,2.396,0.777c1.004,0,1.619-0.194,2.38-0.405c0.032-0.016,0.064-0.032,0.097-0.032
				c0.064,0,0.129,0.048,0.162,0.146l0.178,0.615v0.065c0,0.081-0.065,0.129-0.162,0.178c-0.647,0.259-1.716,0.469-2.784,0.469
				c-3.173,0-4.112-1.473-4.112-4.452c0-2.736,0.55-4.468,3.756-4.468c1.7,0,2.688,0.518,3.222,1.441
				c0.421,0.729,0.518,1.732,0.518,2.849V97.941z M102.266,95.253c-0.291-1.036-0.923-1.376-2.234-1.376
				c-1.295,0-1.927,0.34-2.202,1.376c-0.162,0.599-0.178,1.23-0.194,1.83l4.824-0.016C102.444,96.452,102.412,95.853,102.266,95.253
				z"/>
			<path fill="#12110E" d="M112.611,101.567h-0.793c-0.146,0-0.243-0.097-0.243-0.243v-5.99c0-1.068-0.405-1.441-1.538-1.441
				c-1.506,0-3.028,0.453-3.028,0.453v6.978c0,0.146-0.081,0.243-0.227,0.243h-0.81c-0.146,0-0.243-0.097-0.243-0.243v-6.719
				c0-0.647,0.032-0.939,0.842-1.214c0.842-0.292,2.461-0.534,3.497-0.534c1.926,0,2.785,0.599,2.785,2.331v6.136
				C112.854,101.47,112.757,101.567,112.611,101.567z"/>
			<path fill="#12110E" d="M124.3,101.309c-0.049,0.162-0.178,0.259-0.324,0.259h-1.7c-0.162,0-0.291-0.097-0.34-0.259l-2.688-7.949
				c-0.016-0.033-0.016-0.065-0.016-0.081c0-0.113,0.065-0.21,0.162-0.21h0.971c0.162,0,0.21,0.097,0.243,0.21l2.299,7.35h0.421
				l2.072-7.35c0.033-0.113,0.114-0.21,0.275-0.21h1.004c0.113,0,0.194,0.081,0.194,0.194v0.048L124.3,101.309z"/>
			<path fill="#12110E" d="M141.185,98.103c0,0.081-0.113,0.21-0.194,0.21h-5.909c0.016,0.89,0.178,1.23,0.518,1.651
				c0.47,0.599,1.263,0.777,2.38,0.777c1.02,0,1.586-0.194,2.348-0.405c0.032-0.016,0.064-0.032,0.097-0.032
				c0.064,0,0.113,0.048,0.146,0.146l0.194,0.615v0.065c0,0.081-0.065,0.129-0.162,0.178c-0.664,0.259-1.862,0.469-2.93,0.469
				c-2.38,0-3.027-1.101-3.287-1.619c-0.388,0.712-0.906,1.619-3.076,1.619c-1.554,0-3.4-0.34-3.4-2.704
				c0-1.83,1.02-2.218,2.525-2.509l3.368-0.68c0-1.425-0.793-1.926-2.088-1.926c-1.101,0-2.785,0.404-3.044,0.469h-0.032
				c-0.081,0-0.162-0.081-0.194-0.194l-0.113-0.647v-0.049c0-0.081,0.048-0.146,0.146-0.178c0.308-0.146,1.911-0.502,3.06-0.502
				c1.117,0,2.655,0.21,3.027,1.57c0.502-1.068,1.376-1.57,3.043-1.57c1.7,0,2.542,0.518,3.076,1.441
				c0.421,0.729,0.518,1.894,0.518,3.011C141.201,97.536,141.201,97.812,141.185,98.103z M133.819,96.921l-2.785,0.583
				c-0.955,0.194-1.797,0.389-1.797,1.57c0,1.344,1.003,1.684,2.218,1.684s2.364-0.372,2.364-2.461V96.921z M139.647,95.253
				c-0.275-1.036-0.874-1.376-2.169-1.376c-1.975,0-2.396,1.166-2.396,3.367l4.76-0.016
				C139.825,96.613,139.809,95.853,139.647,95.253z"/>
			<path fill="#12110E" d="M147.256,93.991c-1.069,0-1.943,0.081-2.85,0.308v7.026c0,0.146-0.081,0.243-0.227,0.243h-0.81
				c0,0-0.243-0.097-0.243-0.243v-6.751c0-0.712,0.146-0.922,0.696-1.182c0.712-0.324,2.169-0.534,2.946-0.534h0.405
				c0.081,0,0.227,0.032,0.227,0.243v0.696C147.401,93.91,147.369,93.991,147.256,93.991z"/>
			<path fill="#12110E" d="M154.458,101.454c-0.518,0.129-1.198,0.324-2.477,0.324c-3.141,0-3.869-1.425-3.869-4.468
				c0-3.108,0.858-4.452,3.772-4.452c1.117,0,1.927,0.178,2.477,0.324l-0.162-0.939v-2.428c0-0.13,0.081-0.178,0.21-0.194
				l0.874-0.227h0.049c0.113,0,0.146,0.114,0.146,0.211v10.572C155.478,100.774,155.478,101.228,154.458,101.454z M154.199,94.169
				c0,0-1.02-0.292-2.186-0.292c-1.781,0-2.574,0.566-2.574,3.448c0,3.076,0.939,3.432,2.59,3.432c1.198,0,2.169-0.308,2.169-0.308
				V94.169z"/>
			<path fill="#12110E" d="M159.023,91.611h-0.793c-0.146,0-0.243-0.097-0.243-0.227v-1.749c0-0.146,0.097-0.243,0.243-0.243h0.793
				c0.146,0,0.243,0.097,0.243,0.243v1.749C159.266,91.514,159.169,91.611,159.023,91.611z M159.023,101.567h-0.793
				c-0.146,0-0.243-0.097-0.243-0.243v-8.014c0-0.146,0.097-0.243,0.243-0.243h0.793c0.146,0,0.243,0.097,0.243,0.243v8.014
				C159.266,101.47,159.169,101.567,159.023,101.567z"/>
			<path fill="#12110E" d="M171.262,101.309c0,0.064-0.065,0.146-0.129,0.162c-0.356,0.113-1.052,0.308-1.975,0.308
				c-1.603,0-2.364-0.696-2.364-2.25v-8.904c0-0.129,0.081-0.178,0.194-0.194l0.874-0.227h0.049c0.113,0,0.162,0.113,0.162,0.21
				v2.655h2.72c0.146,0,0.243,0.097,0.243,0.243v0.551c0,0.146-0.097,0.243-0.243,0.243h-2.72v5.553c0,0.89,0.486,1.084,1.328,1.084
				c0.502,0,1.149-0.129,1.489-0.21h0.049c0.081,0,0.146,0.048,0.178,0.146l0.146,0.599V101.309z"/>
			<path fill="#12110E" d="M173.901,91.611h-0.793c-0.146,0-0.243-0.097-0.243-0.227v-1.749c0-0.146,0.097-0.243,0.243-0.243h0.793
				c0.146,0,0.243,0.097,0.243,0.243v1.749C174.144,91.514,174.047,91.611,173.901,91.611z M173.901,101.567h-0.793
				c-0.146,0-0.243-0.097-0.243-0.243v-8.014c0-0.146,0.097-0.243,0.243-0.243h0.793c0.146,0,0.243,0.097,0.243,0.243v8.014
				C174.144,101.47,174.047,101.567,173.901,101.567z"/>
			<path fill="#12110E" d="M179.551,101.373c0,0.113-0.081,0.146-0.129,0.162c-0.13,0.064-0.567,0.194-1.149,0.194
				c-0.972,0-1.619-0.47-1.619-1.668V89.814c0-0.13,0.081-0.178,0.194-0.194l0.874-0.227h0.049c0.113,0,0.162,0.114,0.162,0.211
				v10.426c0,0.583,0.405,0.664,0.729,0.664c0.227,0,0.486-0.033,0.567-0.065h0.081c0.048,0,0.097,0.016,0.113,0.113l0.113,0.567
				C179.535,101.341,179.551,101.357,179.551,101.373z"/>
			<path fill="#12110E" d="M186.04,90.429c-0.016,0.13-0.097,0.178-0.227,0.178c-0.324-0.064-0.923-0.178-1.554-0.178
				c-0.437,0-0.777,0.049-1.004,0.227c-0.21,0.162-0.324,0.421-0.324,0.858v1.554h2.396c0.146,0,0.243,0.097,0.243,0.243v0.551
				c0,0.146-0.097,0.243-0.243,0.243h-2.396v7.221c0,0.146-0.081,0.243-0.227,0.243h-0.81c-0.146,0-0.243-0.097-0.243-0.243v-7.221
				h-1.263c-0.146,0-0.243-0.097-0.243-0.243v-0.551c0-0.146,0.097-0.243,0.243-0.243h1.263v-1.425c0-1.554,0.761-2.25,2.347-2.25
				c0.858,0,1.538,0.162,1.911,0.243c0.113,0.032,0.21,0.097,0.21,0.21v0.016L186.04,90.429z"/>
			<path fill="#12110E" d="M193.339,94.217c0.501,0.81,0.599,1.894,0.599,3.108c0,2.428-0.388,4.452-3.788,4.452
				c-1.23,0-2.056-0.259-2.623-0.712l-0.858,0.988c-0.016,0.032-0.065,0.048-0.097,0.048s-0.064,0-0.097-0.032l-0.437-0.389
				c-0.032-0.032-0.065-0.065-0.065-0.097s0.017-0.064,0.049-0.097l0.923-1.084c-0.486-0.81-0.583-1.895-0.583-3.076
				c0-2.445,0.389-4.468,3.789-4.468c1.214,0,2.056,0.259,2.623,0.712l0.842-1.004c0.032-0.032,0.065-0.048,0.113-0.048
				c0.033,0,0.065,0.016,0.081,0.032l0.437,0.389c0.049,0.032,0.065,0.064,0.065,0.097c0,0.032-0.016,0.064-0.049,0.097
				L193.339,94.217z M190.149,93.894c-2.348,0-2.445,1.376-2.445,3.432c0,0.777,0.016,1.457,0.162,1.991l4.128-4.84
				C191.639,94.104,191.056,93.894,190.149,93.894z M192.432,95.286l-4.145,4.873c0.356,0.373,0.939,0.583,1.862,0.583
				c2.347,0,2.444-1.376,2.444-3.416C192.594,96.532,192.578,95.836,192.432,95.286z"/>
			<path fill="#12110E" d="M200.235,93.991c-1.069,0-1.943,0.081-2.85,0.308v7.026c0,0.146-0.081,0.243-0.227,0.243h-0.81
				c0,0-0.243-0.097-0.243-0.243v-6.751c0-0.712,0.146-0.922,0.696-1.182c0.712-0.324,2.169-0.534,2.946-0.534h0.405
				c0.081,0,0.227,0.032,0.227,0.243v0.696C200.381,93.91,200.349,93.991,200.235,93.991z"/>
			<path fill="#12110E" d="M208.587,97.941c-0.016,0.081-0.129,0.21-0.21,0.21h-5.941c0,0.891,0.162,1.392,0.502,1.813
				c0.469,0.599,1.263,0.777,2.396,0.777c1.004,0,1.619-0.194,2.38-0.405c0.032-0.016,0.064-0.032,0.097-0.032
				c0.064,0,0.129,0.048,0.162,0.146l0.178,0.615v0.065c0,0.081-0.065,0.129-0.162,0.178c-0.647,0.259-1.716,0.469-2.784,0.469
				c-3.173,0-4.112-1.473-4.112-4.452c0-2.736,0.55-4.468,3.756-4.468c1.7,0,2.688,0.518,3.222,1.441
				c0.421,0.729,0.518,1.732,0.518,2.849V97.941z M207.049,95.253c-0.291-1.036-0.923-1.376-2.234-1.376
				c-1.295,0-1.927,0.34-2.202,1.376c-0.162,0.599-0.178,1.23-0.194,1.83l4.824-0.016C207.227,96.452,207.195,95.853,207.049,95.253
				z"/>
			<path fill="#12110E" d="M214.642,93.991c-1.069,0-1.943,0.081-2.85,0.308v7.026c0,0.146-0.081,0.243-0.227,0.243h-0.81
				c0,0-0.243-0.097-0.243-0.243v-6.751c0-0.712,0.146-0.922,0.696-1.182c0.712-0.324,2.169-0.534,2.946-0.534h0.405
				c0.081,0,0.227,0.032,0.227,0.243v0.696C214.788,93.91,214.755,93.991,214.642,93.991z"/>
			<path fill="#12110E" d="M226.946,101.454c-0.518,0.129-1.198,0.324-2.477,0.324c-3.141,0-3.869-1.425-3.869-4.468
				c0-3.108,0.858-4.452,3.772-4.452c1.117,0,1.927,0.178,2.477,0.324l-0.162-0.939v-2.428c0-0.13,0.081-0.178,0.21-0.194
				l0.874-0.227h0.049c0.113,0,0.146,0.114,0.146,0.211v10.572C227.966,100.774,227.966,101.228,226.946,101.454z M226.687,94.169
				c0,0-1.02-0.292-2.186-0.292c-1.781,0-2.574,0.566-2.574,3.448c0,3.076,0.939,3.432,2.59,3.432c1.198,0,2.169-0.308,2.169-0.308
				V94.169z"/>
			<path fill="#12110E" d="M237.307,97.941c-0.016,0.081-0.129,0.21-0.21,0.21h-5.941c0,0.891,0.162,1.392,0.502,1.813
				c0.469,0.599,1.263,0.777,2.396,0.777c1.004,0,1.619-0.194,2.38-0.405c0.032-0.016,0.064-0.032,0.097-0.032
				c0.064,0,0.129,0.048,0.162,0.146l0.178,0.615v0.065c0,0.081-0.065,0.129-0.162,0.178c-0.647,0.259-1.716,0.469-2.784,0.469
				c-3.173,0-4.112-1.473-4.112-4.452c0-2.736,0.55-4.468,3.756-4.468c1.7,0,2.688,0.518,3.222,1.441
				c0.421,0.729,0.518,1.732,0.518,2.849V97.941z M235.769,95.253c-0.291-1.036-0.923-1.376-2.234-1.376
				c-1.295,0-1.927,0.34-2.202,1.376c-0.162,0.599-0.178,1.23-0.194,1.83l4.824-0.016C235.947,96.452,235.915,95.853,235.769,95.253
				z"/>
			<path fill="#12110E" d="M246.842,101.778c-1.425,0-2.655-0.469-2.866-0.55c-0.064-0.033-0.129-0.065-0.129-0.162v-0.048
				l0.162-0.631c0.016-0.081,0.064-0.146,0.178-0.146h0.081c0.129,0.049,1.279,0.47,2.606,0.47c1.376,0,2.169-0.437,2.169-1.425
				c0-1.344-1.036-1.295-2.299-1.489c-0.793-0.13-2.817-0.275-2.817-2.413c0-2.088,1.862-2.525,3.287-2.525
				c1.392,0,2.46,0.292,2.639,0.34c0.113,0.016,0.162,0.097,0.162,0.178v0.032l-0.114,0.712c-0.016,0.097-0.081,0.129-0.146,0.129
				h-0.032c-0.227-0.016-1.425-0.308-2.38-0.308c-1.166,0-2.137,0.324-2.137,1.344c0,1.101,1.101,1.23,2.104,1.36
				c1.458,0.194,3.028,0.308,3.028,2.51C250.339,101.26,248.72,101.778,246.842,101.778z"/>
			<path fill="#12110E" d="M257.495,101.551c-0.47,0.097-1.247,0.227-2.104,0.227c-1.393,0-3.708-0.048-3.708-2.671
				c0-2.169,1.198-2.283,2.801-2.542l3.06-0.502v-0.761c0-0.518-0.016-0.939-0.583-1.15c-0.308-0.129-0.761-0.194-1.473-0.194
				c-1.247,0-2.332,0.308-2.995,0.469c-0.033,0-0.065,0.016-0.097,0.016c-0.065,0-0.129-0.032-0.162-0.129l-0.146-0.729v-0.032
				c0-0.13,0.113-0.178,0.162-0.194c0.518-0.194,1.911-0.502,3.384-0.502c1.149,0,1.894,0.162,2.364,0.421
				c0.826,0.437,0.842,1.198,0.842,1.959v4.646C258.838,101.017,258.612,101.276,257.495,101.551z M257.56,97.083l-2.979,0.502
				c-0.777,0.146-1.57,0.178-1.57,1.457c0,1.619,1.328,1.732,2.396,1.732c0.712,0,1.473-0.097,2.153-0.324V97.083z"/>
			<path fill="#12110E" d="M273.749,101.567h-0.793c-0.162,0-0.259-0.097-0.259-0.243v-5.99c0-1.068-0.389-1.441-1.522-1.441
				c-1.506,0-3.043,0.453-3.043,0.453v6.978c0,0.162-0.065,0.243-0.227,0.243h-0.793c-0.146,0-0.243-0.097-0.243-0.243v-5.99
				c0-1.068-0.405-1.441-1.538-1.441c-1.505,0-3.027,0.453-3.027,0.453v6.978c0,0.146-0.081,0.243-0.227,0.243h-0.81
				c-0.146,0-0.243-0.097-0.243-0.243v-6.719c0-0.647,0.032-0.939,0.842-1.214c0.842-0.292,2.461-0.534,3.497-0.534
				c1.02,0,1.749,0.194,2.202,0.615c0.907-0.356,2.655-0.615,3.643-0.615c1.927,0,2.785,0.599,2.785,2.331v6.136
				C273.992,101.47,273.895,101.567,273.749,101.567z"/>
			<path fill="#12110E" d="M281.129,90.429c-0.016,0.13-0.097,0.178-0.227,0.178c-0.324-0.064-0.923-0.178-1.554-0.178
				c-0.437,0-0.777,0.049-1.004,0.227c-0.21,0.162-0.324,0.421-0.324,0.858v1.554h2.396c0.146,0,0.243,0.097,0.243,0.243v0.551
				c0,0.146-0.097,0.243-0.243,0.243h-2.396v7.221c0,0.146-0.081,0.243-0.227,0.243h-0.81c-0.146,0-0.243-0.097-0.243-0.243v-7.221
				h-1.263c-0.146,0-0.243-0.097-0.243-0.243v-0.551c0-0.146,0.097-0.243,0.243-0.243h1.263v-1.425c0-1.554,0.761-2.25,2.347-2.25
				c0.858,0,1.538,0.162,1.911,0.243c0.113,0.032,0.21,0.097,0.21,0.21v0.016L281.129,90.429z"/>
			<path fill="#12110E" d="M285.42,101.778c-2.85,0-3.562-1.214-3.562-3.351v-5.148c0-0.129,0.081-0.178,0.21-0.21l0.875-0.21h0.048
				c0.113,0,0.146,0.113,0.146,0.21v5.488c0,1.522,0.535,2.202,2.283,2.202c2.104,0,2.266-1.036,2.266-2.25v-5.229
				c0-0.129,0.097-0.178,0.21-0.21l0.875-0.21h0.048c0.113,0,0.162,0.113,0.162,0.21v5.326
				C288.981,99.997,288.755,101.778,285.42,101.778z"/>
			<path fill="#12110E" d="M298.031,101.567h-0.793c-0.146,0-0.243-0.097-0.243-0.243v-5.99c0-1.068-0.405-1.441-1.538-1.441
				c-1.506,0-3.028,0.453-3.028,0.453v6.978c0,0.146-0.081,0.243-0.227,0.243h-0.81c-0.146,0-0.243-0.097-0.243-0.243v-6.719
				c0-0.647,0.032-0.939,0.842-1.214c0.842-0.292,2.461-0.534,3.497-0.534c1.926,0,2.785,0.599,2.785,2.331v6.136
				C298.274,101.47,298.177,101.567,298.031,101.567z"/>
			<path fill="#12110E" d="M306.464,101.454c-0.518,0.129-1.198,0.324-2.477,0.324c-3.141,0-3.869-1.425-3.869-4.468
				c0-3.108,0.858-4.452,3.772-4.452c1.117,0,1.927,0.178,2.477,0.324l-0.162-0.939v-2.428c0-0.13,0.081-0.178,0.21-0.194
				l0.874-0.227h0.049c0.113,0,0.146,0.114,0.146,0.211v10.572C307.484,100.774,307.484,101.228,306.464,101.454z M306.205,94.169
				c0,0-1.02-0.292-2.186-0.292c-1.781,0-2.574,0.566-2.574,3.448c0,3.076,0.939,3.432,2.59,3.432c1.198,0,2.169-0.308,2.169-0.308
				V94.169z"/>
			<path fill="#12110E" d="M316.825,97.941c-0.016,0.081-0.129,0.21-0.21,0.21h-5.941c0,0.891,0.162,1.392,0.502,1.813
				c0.469,0.599,1.263,0.777,2.396,0.777c1.003,0,1.619-0.194,2.38-0.405c0.032-0.016,0.064-0.032,0.097-0.032
				c0.064,0,0.129,0.048,0.162,0.146l0.178,0.615v0.065c0,0.081-0.065,0.129-0.162,0.178c-0.647,0.259-1.716,0.469-2.784,0.469
				c-3.173,0-4.112-1.473-4.112-4.452c0-2.736,0.55-4.468,3.756-4.468c1.7,0,2.688,0.518,3.222,1.441
				c0.421,0.729,0.518,1.732,0.518,2.849V97.941z M315.287,95.253c-0.291-1.036-0.923-1.376-2.234-1.376
				c-1.295,0-1.927,0.34-2.202,1.376c-0.162,0.599-0.178,1.23-0.194,1.83l4.824-0.016C315.465,96.452,315.433,95.853,315.287,95.253
				z"/>
			<path fill="#12110E" d="M323.22,101.309c0,0.064-0.065,0.146-0.129,0.162c-0.356,0.113-1.052,0.308-1.975,0.308
				c-1.603,0-2.364-0.696-2.364-2.25v-8.904c0-0.129,0.081-0.178,0.194-0.194l0.874-0.227h0.049c0.113,0,0.162,0.113,0.162,0.21
				v2.655h2.72c0.146,0,0.243,0.097,0.243,0.243v0.551c0,0.146-0.097,0.243-0.243,0.243h-2.72v5.553c0,0.89,0.486,1.084,1.328,1.084
				c0.502,0,1.149-0.129,1.489-0.21h0.049c0.081,0,0.146,0.048,0.178,0.146l0.146,0.599V101.309z"/>
			<path fill="#12110E" d="M329.971,94.881c-0.615,0.438-1.749,0.858-1.749,1.976c0,0.566,0.049,0.712,0.097,1.068v0.032
				c0,0.146-0.097,0.194-0.275,0.194h-0.826c-0.146,0-0.194-0.016-0.243-0.21c-0.032-0.162-0.113-0.566-0.113-0.988
				c0-1.813,0.81-2.056,2.023-2.93c0.308-0.227,1.441-0.81,1.441-1.862c0-1.328-1.344-1.521-2.38-1.521
				c-1.279,0-2.558,0.356-2.833,0.421c-0.081,0.016-0.146,0.032-0.194,0.032c-0.064,0-0.113-0.032-0.146-0.178l-0.178-0.745
				c-0.016-0.032-0.016-0.048-0.016-0.065c0-0.081,0.048-0.146,0.178-0.194c0.21-0.081,1.781-0.519,3.222-0.519
				c2.299,0,3.772,0.842,3.772,2.817C331.751,93.877,330.343,94.606,329.971,94.881z M328.157,101.567h-0.971
				c-0.146,0-0.243-0.081-0.243-0.243v-1.813c0-0.162,0.097-0.243,0.243-0.243h0.971c0.162,0,0.243,0.081,0.243,0.243v1.813
				C328.4,101.486,328.319,101.567,328.157,101.567z"/>
			<path fill="#12110E" d="M41.135,120.126c-4.549,0-5.342-2.606-5.342-6.201c0-3.578,0.793-6.184,5.342-6.184
				c4.533,0,5.327,2.606,5.327,6.184C46.462,117.52,45.668,120.126,41.135,120.126z M41.119,108.971
				c-3.594,0-3.886,1.959-3.886,4.97s0.292,4.954,3.886,4.954s3.918-1.959,3.918-4.97S44.713,108.971,41.119,108.971z"/>
			<path fill="#12110E" d="M56.629,112.08c0,0.033-0.033,0.049-0.081,0.097c-0.356,0.243-0.761,0.34-1.149,0.34
				c-0.259,0-0.275-0.017-0.648-0.081c0,0,0.696,0.583,0.696,1.732c0,2.299-1.425,2.962-3.562,2.962h-1.198
				c-0.842,0-1.036,0.421-1.036,0.842c0,0.68,0.47,0.858,1.182,0.858h2.444c1.554,0,2.655,0.469,2.655,1.91
				c0,2.007-1.619,2.671-3.934,2.671c-2.688,0-3.918-0.534-3.918-2.169c0-1.263,0.858-1.506,1.651-1.667v-0.178
				c-0.729-0.162-1.36-0.243-1.36-1.392c0-0.988,0.534-1.23,1.781-1.425c-0.761-0.243-1.83-0.454-1.83-2.412
				c0-2.218,1.457-2.963,3.546-2.963c1.003,0,1.408,0.162,2.023,0.34c0.178,0.033,0.373,0.065,0.599,0.065
				c0.243,0,0.518-0.049,0.745-0.113c0.292-0.081,0.615-0.227,0.842-0.34c0.049-0.016,0.097-0.048,0.129-0.048
				c0.033,0,0.065,0.032,0.081,0.097l0.308,0.81C56.612,112.047,56.629,112.063,56.629,112.08z M53.132,119.916h-2.186
				c-0.826,0-1.587,0.259-1.587,1.23c0,1.117,1.166,1.263,2.655,1.263c1.004,0,2.639-0.146,2.639-1.473
				C54.653,119.997,53.844,119.916,53.132,119.916z M51.885,112.177c-1.409,0-2.283,0.486-2.283,1.992
				c0,1.489,0.874,1.958,2.283,1.958c1.392,0,2.283-0.469,2.283-1.958C54.168,112.663,53.277,112.177,51.885,112.177z"/>
			<path fill="#12110E" d="M69.677,119.916h-0.793c-0.146,0-0.243-0.097-0.243-0.243v-5.99c0-1.068-0.405-1.441-1.538-1.441
				c-1.505,0-3.027,0.453-3.027,0.453v6.978c0,0.146-0.081,0.243-0.227,0.243h-0.81c-0.146,0-0.243-0.097-0.243-0.243v-11.511
				c0-0.13,0.081-0.178,0.194-0.194l0.874-0.227h0.049c0.113,0,0.162,0.113,0.162,0.21v2.801l-0.162,0.939
				c0.89-0.259,2.283-0.486,3.222-0.486c1.926,0,2.785,0.599,2.785,2.331v6.136C69.92,119.818,69.839,119.916,69.677,119.916z"/>
			<path fill="#12110E" d="M76.185,119.656c-0.049,0.162-0.178,0.259-0.324,0.259h-1.7c-0.162,0-0.291-0.097-0.34-0.259
				l-2.688-7.949c-0.016-0.033-0.016-0.065-0.016-0.081c0-0.113,0.065-0.21,0.162-0.21h0.971c0.162,0,0.21,0.097,0.243,0.21
				l2.299,7.35h0.421l2.072-7.35c0.032-0.113,0.113-0.21,0.275-0.21h1.004c0.113,0,0.194,0.081,0.194,0.194v0.048L76.185,119.656z"
				/>
			<path fill="#12110E" d="M83.583,120.126c-3.383,0-3.788-2.023-3.788-4.452c0-2.445,0.405-4.468,3.788-4.468
				c3.4,0,3.789,2.023,3.789,4.468C87.372,118.103,86.983,120.126,83.583,120.126z M83.583,112.242
				c-2.347,0-2.444,1.376-2.444,3.432c0,2.04,0.097,3.416,2.444,3.416c2.348,0,2.445-1.376,2.445-3.416
				C86.028,113.618,85.931,112.242,83.583,112.242z"/>
			<path fill="#12110E" d="M93.346,112.339c-1.069,0-1.943,0.081-2.85,0.308v7.026c0,0.146-0.081,0.243-0.227,0.243h-0.81
				c0,0-0.243-0.097-0.243-0.243v-6.751c0-0.712,0.146-0.923,0.696-1.182c0.712-0.324,2.169-0.534,2.946-0.534h0.405
				c0.081,0,0.227,0.032,0.227,0.243v0.696C93.491,112.258,93.459,112.339,93.346,112.339z"/>
			<path fill="#12110E" d="M100.548,119.802c-0.518,0.129-1.198,0.324-2.477,0.324c-3.141,0-3.869-1.425-3.869-4.468
				c0-3.108,0.858-4.452,3.772-4.452c1.117,0,1.927,0.178,2.477,0.324l-0.162-0.939v-2.428c0-0.13,0.081-0.178,0.21-0.194
				l0.874-0.227h0.049c0.113,0,0.146,0.113,0.146,0.21v10.572C101.568,119.122,101.568,119.576,100.548,119.802z M100.289,112.517
				c0,0-1.02-0.292-2.186-0.292c-1.781,0-2.574,0.566-2.574,3.448c0,3.076,0.939,3.432,2.59,3.432c1.198,0,2.169-0.308,2.169-0.308
				V112.517z"/>
			<path fill="#12110E" d="M109.225,119.899c-0.47,0.097-1.247,0.227-2.104,0.227c-1.393,0-3.708-0.048-3.708-2.671
				c0-2.169,1.198-2.283,2.801-2.542l3.06-0.502v-0.761c0-0.518-0.016-0.939-0.583-1.15c-0.308-0.129-0.761-0.194-1.473-0.194
				c-1.247,0-2.332,0.308-2.995,0.469c-0.033,0-0.065,0.016-0.097,0.016c-0.065,0-0.129-0.032-0.162-0.129l-0.146-0.729v-0.032
				c0-0.13,0.113-0.178,0.162-0.194c0.518-0.194,1.911-0.502,3.384-0.502c1.149,0,1.894,0.162,2.364,0.421
				c0.826,0.437,0.842,1.198,0.842,1.959v4.646C110.569,119.365,110.342,119.624,109.225,119.899z M109.29,115.431l-2.979,0.502
				c-0.777,0.146-1.57,0.178-1.57,1.457c0,1.619,1.328,1.732,2.396,1.732c0.712,0,1.473-0.097,2.153-0.324V115.431z"/>
			<path fill="#12110E" d="M119.635,119.916h-0.793c-0.146,0-0.243-0.097-0.243-0.243v-5.99c0-1.068-0.405-1.441-1.538-1.441
				c-1.505,0-3.027,0.453-3.027,0.453v6.978c0,0.146-0.081,0.243-0.227,0.243h-0.81c-0.146,0-0.243-0.097-0.243-0.243v-6.719
				c0-0.647,0.032-0.939,0.842-1.214c0.842-0.292,2.461-0.534,3.497-0.534c1.926,0,2.785,0.599,2.785,2.331v6.136
				C119.878,119.818,119.781,119.916,119.635,119.916z"/>
			<path fill="#12110E" d="M131.971,108.777c-0.016,0.129-0.097,0.178-0.227,0.178c-0.324-0.064-0.923-0.178-1.554-0.178
				c-0.437,0-0.777,0.048-1.004,0.227c-0.21,0.162-0.324,0.421-0.324,0.858v1.554h2.396c0.146,0,0.243,0.097,0.243,0.243v0.551
				c0,0.146-0.097,0.243-0.243,0.243h-2.396v7.221c0,0.146-0.081,0.243-0.227,0.243h-0.81c-0.146,0-0.243-0.097-0.243-0.243v-7.221
				h-1.263c-0.146,0-0.243-0.097-0.243-0.243v-0.551c0-0.146,0.097-0.243,0.243-0.243h1.263v-1.425c0-1.554,0.761-2.25,2.347-2.25
				c0.858,0,1.538,0.162,1.911,0.243c0.113,0.032,0.21,0.097,0.21,0.21v0.016L131.971,108.777z"/>
			<path fill="#12110E" d="M135.903,120.126c-3.383,0-3.788-2.023-3.788-4.452c0-2.445,0.405-4.468,3.788-4.468
				c3.4,0,3.789,2.023,3.789,4.468C139.691,118.103,139.303,120.126,135.903,120.126z M135.903,112.242
				c-2.347,0-2.444,1.376-2.444,3.432c0,2.04,0.097,3.416,2.444,3.416c2.348,0,2.445-1.376,2.445-3.416
				C138.348,113.618,138.25,112.242,135.903,112.242z"/>
			<path fill="#12110E" d="M145.666,112.339c-1.069,0-1.943,0.081-2.85,0.308v7.026c0,0.146-0.081,0.243-0.227,0.243h-0.81
				c0,0-0.243-0.097-0.243-0.243v-6.751c0-0.712,0.146-0.923,0.696-1.182c0.712-0.324,2.169-0.534,2.946-0.534h0.405
				c0.081,0,0.227,0.032,0.227,0.243v0.696C145.811,112.258,145.779,112.339,145.666,112.339z"/>
			<path fill="#12110E" d="M150.603,120.126c-1.149,0-2.202-0.194-2.736-0.373c-0.81-0.275-0.842-0.68-0.842-1.279v-10.312
				c0-0.13,0.081-0.178,0.194-0.194l0.874-0.227h0.049c0.113,0,0.162,0.113,0.162,0.21v2.801l-0.162,0.922
				c0,0,1.586-0.469,2.817-0.469c2.688,0,3.432,1.376,3.432,4.436C154.392,118.798,153.534,120.126,150.603,120.126z
				 M150.749,112.258c-1.004,0-2.445,0.389-2.445,0.389v6.168c0,0,0.891,0.292,2.267,0.292c1.862,0,2.493-0.874,2.493-3.432
				C153.064,113.067,152.611,112.258,150.749,112.258z"/>
			<path fill="#12110E" d="M163.47,116.289c-0.016,0.081-0.129,0.21-0.21,0.21h-5.941c0,0.891,0.162,1.392,0.502,1.813
				c0.469,0.599,1.263,0.777,2.396,0.777c1.004,0,1.619-0.194,2.38-0.405c0.032-0.016,0.064-0.032,0.097-0.032
				c0.064,0,0.129,0.048,0.162,0.146l0.178,0.615v0.065c0,0.081-0.065,0.129-0.162,0.178c-0.647,0.259-1.716,0.47-2.784,0.47
				c-3.173,0-4.112-1.473-4.112-4.452c0-2.736,0.55-4.468,3.756-4.468c1.7,0,2.688,0.518,3.222,1.441
				c0.421,0.729,0.518,1.732,0.518,2.849V116.289z M161.932,113.602c-0.291-1.036-0.923-1.376-2.234-1.376
				c-1.295,0-1.927,0.34-2.202,1.376c-0.162,0.599-0.178,1.23-0.194,1.83l4.824-0.016C162.11,114.8,162.078,114.201,161.932,113.602
				z"/>
			<path fill="#12110E" d="M169.525,112.339c-1.069,0-1.943,0.081-2.85,0.308v7.026c0,0.146-0.081,0.243-0.227,0.243h-0.81
				c0,0-0.243-0.097-0.243-0.243v-6.751c0-0.712,0.146-0.923,0.696-1.182c0.712-0.324,2.169-0.534,2.946-0.534h0.405
				c0.081,0,0.227,0.032,0.227,0.243v0.696C169.67,112.258,169.638,112.339,169.525,112.339z"/>
			<path fill="#12110E" d="M177.876,116.289c-0.016,0.081-0.129,0.21-0.21,0.21h-5.941c0,0.891,0.162,1.392,0.502,1.813
				c0.469,0.599,1.263,0.777,2.396,0.777c1.003,0,1.619-0.194,2.38-0.405c0.032-0.016,0.064-0.032,0.097-0.032
				c0.064,0,0.129,0.048,0.162,0.146l0.178,0.615v0.065c0,0.081-0.065,0.129-0.162,0.178c-0.647,0.259-1.716,0.47-2.784,0.47
				c-3.173,0-4.112-1.473-4.112-4.452c0-2.736,0.55-4.468,3.756-4.468c1.7,0,2.688,0.518,3.222,1.441
				c0.421,0.729,0.518,1.732,0.518,2.849V116.289z M176.338,113.602c-0.291-1.036-0.923-1.376-2.234-1.376
				c-1.295,0-1.927,0.34-2.202,1.376c-0.162,0.599-0.178,1.23-0.194,1.83l4.824-0.016
				C176.517,114.8,176.484,114.201,176.338,113.602z"/>
			<path fill="#12110E" d="M185.729,119.802c-0.518,0.129-1.198,0.324-2.477,0.324c-3.141,0-3.869-1.425-3.869-4.468
				c0-3.108,0.858-4.452,3.772-4.452c1.117,0,1.927,0.178,2.477,0.324l-0.162-0.939v-2.428c0-0.13,0.081-0.178,0.21-0.194
				l0.874-0.227h0.049c0.113,0,0.146,0.113,0.146,0.21v10.572C186.749,119.122,186.749,119.576,185.729,119.802z M185.47,112.517
				c0,0-1.02-0.292-2.186-0.292c-1.781,0-2.574,0.566-2.574,3.448c0,3.076,0.939,3.432,2.59,3.432c1.198,0,2.169-0.308,2.169-0.308
				V112.517z"/>
			<path fill="#12110E" d="M196.089,116.289c-0.016,0.081-0.129,0.21-0.21,0.21h-5.941c0,0.891,0.162,1.392,0.502,1.813
				c0.469,0.599,1.263,0.777,2.396,0.777c1.003,0,1.619-0.194,2.38-0.405c0.032-0.016,0.064-0.032,0.097-0.032
				c0.064,0,0.129,0.048,0.162,0.146l0.178,0.615v0.065c0,0.081-0.065,0.129-0.162,0.178c-0.647,0.259-1.716,0.47-2.784,0.47
				c-3.173,0-4.112-1.473-4.112-4.452c0-2.736,0.55-4.468,3.756-4.468c1.7,0,2.688,0.518,3.222,1.441
				c0.421,0.729,0.518,1.732,0.518,2.849V116.289z M194.551,113.602c-0.291-1.036-0.923-1.376-2.234-1.376
				c-1.295,0-1.927,0.34-2.202,1.376c-0.162,0.599-0.178,1.23-0.194,1.83l4.824-0.016
				C194.729,114.8,194.697,114.201,194.551,113.602z"/>
			<path fill="#12110E" d="M202.145,112.339c-1.069,0-1.943,0.081-2.85,0.308v7.026c0,0.146-0.081,0.243-0.227,0.243h-0.81
				c0,0-0.243-0.097-0.243-0.243v-6.751c0-0.712,0.146-0.923,0.696-1.182c0.712-0.324,2.169-0.534,2.946-0.534h0.405
				c0.081,0,0.227,0.032,0.227,0.243v0.696C202.29,112.258,202.258,112.339,202.145,112.339z"/>
			<path fill="#12110E" d="M212.004,120.126c-2.85,0-3.562-1.214-3.562-3.351v-5.148c0-0.129,0.081-0.178,0.21-0.21l0.875-0.21
				h0.048c0.113,0,0.146,0.113,0.146,0.21v5.488c0,1.522,0.535,2.202,2.283,2.202c2.104,0,2.266-1.036,2.266-2.25v-5.229
				c0-0.129,0.097-0.178,0.21-0.21l0.875-0.21h0.048c0.113,0,0.162,0.113,0.162,0.21v5.326
				C215.565,118.345,215.339,120.126,212.004,120.126z"/>
			<path fill="#12110E" d="M224.615,119.916h-0.793c-0.146,0-0.243-0.097-0.243-0.243v-5.99c0-1.068-0.405-1.441-1.538-1.441
				c-1.506,0-3.028,0.453-3.028,0.453v6.978c0,0.146-0.081,0.243-0.227,0.243h-0.81c-0.146,0-0.243-0.097-0.243-0.243v-6.719
				c0-0.647,0.032-0.939,0.842-1.214c0.842-0.292,2.461-0.534,3.497-0.534c1.926,0,2.785,0.599,2.785,2.331v6.136
				C224.858,119.818,224.761,119.916,224.615,119.916z"/>
			<path fill="#12110E" d="M233.048,119.802c-0.518,0.129-1.198,0.324-2.477,0.324c-3.141,0-3.869-1.425-3.869-4.468
				c0-3.108,0.858-4.452,3.772-4.452c1.117,0,1.927,0.178,2.477,0.324l-0.162-0.939v-2.428c0-0.13,0.081-0.178,0.21-0.194
				l0.874-0.227h0.049c0.113,0,0.146,0.113,0.146,0.21v10.572C234.068,119.122,234.068,119.576,233.048,119.802z M232.789,112.517
				c0,0-1.02-0.292-2.186-0.292c-1.781,0-2.574,0.566-2.574,3.448c0,3.076,0.939,3.432,2.59,3.432c1.198,0,2.169-0.308,2.169-0.308
				V112.517z"/>
			<path fill="#12110E" d="M243.409,116.289c-0.016,0.081-0.129,0.21-0.21,0.21h-5.941c0,0.891,0.162,1.392,0.502,1.813
				c0.469,0.599,1.263,0.777,2.396,0.777c1.003,0,1.619-0.194,2.38-0.405c0.032-0.016,0.064-0.032,0.097-0.032
				c0.064,0,0.129,0.048,0.162,0.146l0.178,0.615v0.065c0,0.081-0.065,0.129-0.162,0.178c-0.647,0.259-1.716,0.47-2.784,0.47
				c-3.173,0-4.112-1.473-4.112-4.452c0-2.736,0.55-4.468,3.756-4.468c1.7,0,2.688,0.518,3.222,1.441
				c0.421,0.729,0.518,1.732,0.518,2.849V116.289z M241.871,113.602c-0.291-1.036-0.923-1.376-2.234-1.376
				c-1.295,0-1.927,0.34-2.202,1.376c-0.162,0.599-0.178,1.23-0.194,1.83l4.824-0.016
				C242.049,114.8,242.017,114.201,241.871,113.602z"/>
			<path fill="#12110E" d="M249.464,112.339c-1.069,0-1.943,0.081-2.85,0.308v7.026c0,0.146-0.081,0.243-0.227,0.243h-0.81
				c0,0-0.243-0.097-0.243-0.243v-6.751c0-0.712,0.146-0.923,0.696-1.182c0.712-0.324,2.169-0.534,2.946-0.534h0.405
				c0.081,0,0.227,0.032,0.227,0.243v0.696C249.609,112.258,249.577,112.339,249.464,112.339z"/>
			<path fill="#12110E" d="M255.386,119.656c-0.049,0.162-0.178,0.259-0.324,0.259h-1.7c-0.162,0-0.291-0.097-0.34-0.259
				l-2.688-7.949c-0.016-0.033-0.016-0.065-0.016-0.081c0-0.113,0.065-0.21,0.162-0.21h0.971c0.162,0,0.21,0.097,0.243,0.21
				l2.299,7.35h0.421l2.072-7.35c0.033-0.113,0.114-0.21,0.275-0.21h1.004c0.113,0,0.194,0.081,0.194,0.194v0.048L255.386,119.656z"
				/>
			<path fill="#12110E" d="M260.695,109.959h-0.793c-0.146,0-0.243-0.097-0.243-0.227v-1.749c0-0.146,0.097-0.243,0.243-0.243h0.793
				c0.146,0,0.243,0.097,0.243,0.243v1.749C260.938,109.862,260.841,109.959,260.695,109.959z M260.695,119.916h-0.793
				c-0.146,0-0.243-0.097-0.243-0.243v-8.014c0-0.146,0.097-0.243,0.243-0.243h0.793c0.146,0,0.243,0.097,0.243,0.243v8.014
				C260.938,119.818,260.841,119.916,260.695,119.916z"/>
			<path fill="#12110E" d="M266.038,120.126c-1.425,0-2.655-0.47-2.866-0.55c-0.064-0.033-0.129-0.065-0.129-0.162v-0.048
				l0.162-0.631c0.016-0.081,0.064-0.146,0.178-0.146h0.081c0.129,0.049,1.279,0.47,2.606,0.47c1.376,0,2.169-0.438,2.169-1.425
				c0-1.344-1.036-1.295-2.299-1.489c-0.793-0.13-2.817-0.275-2.817-2.413c0-2.088,1.862-2.525,3.287-2.525
				c1.392,0,2.46,0.292,2.639,0.34c0.113,0.016,0.162,0.097,0.162,0.178v0.032l-0.114,0.712c-0.016,0.097-0.081,0.129-0.146,0.129
				h-0.032c-0.227-0.016-1.425-0.308-2.38-0.308c-1.166,0-2.137,0.324-2.137,1.344c0,1.101,1.101,1.23,2.104,1.36
				c1.458,0.194,3.028,0.307,3.028,2.509C269.535,119.608,267.916,120.126,266.038,120.126z"/>
			<path fill="#12110E" d="M278.18,119.916h-0.793c-0.146,0-0.243-0.097-0.243-0.243v-5.99c0-1.068-0.405-1.441-1.538-1.441
				c-1.505,0-3.027,0.453-3.027,0.453v6.978c0,0.146-0.081,0.243-0.227,0.243h-0.81c-0.146,0-0.243-0.097-0.243-0.243v-6.719
				c0-0.647,0.032-0.939,0.842-1.214c0.842-0.292,2.461-0.534,3.497-0.534c1.926,0,2.785,0.599,2.785,2.331v6.136
				C278.423,119.818,278.326,119.916,278.18,119.916z"/>
			<path fill="#12110E" d="M281.887,109.959h-0.793c-0.146,0-0.243-0.097-0.243-0.227v-1.749c0-0.146,0.097-0.243,0.243-0.243h0.793
				c0.146,0,0.243,0.097,0.243,0.243v1.749C282.13,109.862,282.033,109.959,281.887,109.959z M281.887,119.916h-0.793
				c-0.146,0-0.243-0.097-0.243-0.243v-8.014c0-0.146,0.097-0.243,0.243-0.243h0.793c0.146,0,0.243,0.097,0.243,0.243v8.014
				C282.13,119.818,282.033,119.916,281.887,119.916z"/>
			<path fill="#12110E" d="M291.52,119.916h-0.793c-0.146,0-0.243-0.097-0.243-0.243v-5.99c0-1.068-0.405-1.441-1.538-1.441
				c-1.506,0-3.028,0.453-3.028,0.453v6.978c0,0.146-0.081,0.243-0.227,0.243h-0.81c-0.146,0-0.243-0.097-0.243-0.243v-6.719
				c0-0.647,0.032-0.939,0.842-1.214c0.842-0.292,2.461-0.534,3.497-0.534c1.926,0,2.785,0.599,2.785,2.331v6.136
				C291.763,119.818,291.666,119.916,291.52,119.916z"/>
			<path fill="#12110E" d="M302.092,112.08c0,0.033-0.033,0.049-0.081,0.097c-0.356,0.243-0.761,0.34-1.149,0.34
				c-0.259,0-0.275-0.017-0.648-0.081c0,0,0.696,0.583,0.696,1.732c0,2.299-1.425,2.962-3.562,2.962h-1.198
				c-0.842,0-1.036,0.421-1.036,0.842c0,0.68,0.47,0.858,1.182,0.858h2.444c1.554,0,2.655,0.469,2.655,1.91
				c0,2.007-1.619,2.671-3.934,2.671c-2.688,0-3.918-0.534-3.918-2.169c0-1.263,0.858-1.506,1.651-1.667v-0.178
				c-0.729-0.162-1.36-0.243-1.36-1.392c0-0.988,0.534-1.23,1.781-1.425c-0.761-0.243-1.83-0.454-1.83-2.412
				c0-2.218,1.457-2.963,3.546-2.963c1.003,0,1.408,0.162,2.023,0.34c0.178,0.033,0.373,0.065,0.599,0.065
				c0.243,0,0.518-0.049,0.745-0.113c0.292-0.081,0.615-0.227,0.842-0.34c0.049-0.016,0.097-0.048,0.129-0.048
				c0.033,0,0.065,0.032,0.081,0.097l0.308,0.81C302.076,112.047,302.092,112.063,302.092,112.08z M298.595,119.916h-2.186
				c-0.826,0-1.587,0.259-1.587,1.23c0,1.117,1.166,1.263,2.655,1.263c1.004,0,2.639-0.146,2.639-1.473
				C300.117,119.997,299.308,119.916,298.595,119.916z M297.349,112.177c-1.409,0-2.283,0.486-2.283,1.992
				c0,1.489,0.874,1.958,2.283,1.958c1.392,0,2.283-0.469,2.283-1.958C299.631,112.663,298.741,112.177,297.349,112.177z"/>
			<path fill="#12110E" d="M310.316,116.289c-0.016,0.081-0.129,0.21-0.21,0.21h-5.941c0,0.891,0.162,1.392,0.502,1.813
				c0.469,0.599,1.263,0.777,2.396,0.777c1.003,0,1.619-0.194,2.38-0.405c0.032-0.016,0.064-0.032,0.097-0.032
				c0.064,0,0.129,0.048,0.162,0.146l0.178,0.615v0.065c0,0.081-0.065,0.129-0.162,0.178c-0.647,0.259-1.716,0.47-2.784,0.47
				c-3.173,0-4.112-1.473-4.112-4.452c0-2.736,0.55-4.468,3.756-4.468c1.7,0,2.688,0.518,3.222,1.441
				c0.421,0.729,0.518,1.732,0.518,2.849V116.289z M308.778,113.602c-0.291-1.036-0.923-1.376-2.234-1.376
				c-1.295,0-1.927,0.34-2.202,1.376c-0.162,0.599-0.178,1.23-0.194,1.83l4.824-0.016
				C308.956,114.8,308.924,114.201,308.778,113.602z"/>
			<path fill="#12110E" d="M319.123,119.916h-0.793c-0.146,0-0.243-0.097-0.243-0.243v-5.99c0-1.068-0.405-1.441-1.538-1.441
				c-1.505,0-3.027,0.453-3.027,0.453v6.978c0,0.146-0.081,0.243-0.227,0.243h-0.81c-0.146,0-0.243-0.097-0.243-0.243v-6.719
				c0-0.647,0.032-0.939,0.842-1.214c0.842-0.292,2.461-0.534,3.497-0.534c1.926,0,2.785,0.599,2.785,2.331v6.136
				C319.366,119.818,319.269,119.916,319.123,119.916z"/>
			<path fill="#12110E" d="M333.645,116.289c-0.016,0.081-0.129,0.21-0.21,0.21h-5.941c0,0.891,0.162,1.392,0.502,1.813
				c0.469,0.599,1.263,0.777,2.396,0.777c1.003,0,1.619-0.194,2.38-0.405c0.032-0.016,0.064-0.032,0.097-0.032
				c0.064,0,0.129,0.048,0.162,0.146l0.178,0.615v0.065c0,0.081-0.065,0.129-0.162,0.178c-0.647,0.259-1.716,0.47-2.784,0.47
				c-3.173,0-4.112-1.473-4.112-4.452c0-2.736,0.55-4.468,3.756-4.468c1.7,0,2.688,0.518,3.222,1.441
				c0.421,0.729,0.518,1.732,0.518,2.849V116.289z M332.107,113.602c-0.291-1.036-0.923-1.376-2.234-1.376
				c-1.295,0-1.927,0.34-2.202,1.376c-0.162,0.599-0.178,1.23-0.194,1.83l4.824-0.016
				C332.285,114.8,332.253,114.201,332.107,113.602z"/>
			<path fill="#12110E" d="M338.47,119.721c0,0.113-0.081,0.146-0.129,0.162c-0.13,0.064-0.567,0.194-1.149,0.194
				c-0.972,0-1.619-0.47-1.619-1.668v-10.248c0-0.13,0.081-0.178,0.194-0.194l0.874-0.227h0.049c0.113,0,0.162,0.113,0.162,0.21
				v10.426c0,0.583,0.405,0.664,0.729,0.664c0.227,0,0.486-0.033,0.567-0.065h0.081c0.048,0,0.097,0.016,0.113,0.113l0.113,0.566
				C338.454,119.689,338.47,119.705,338.47,119.721z"/>
			<path fill="#12110E" d="M346.985,116.289c-0.016,0.081-0.129,0.21-0.21,0.21h-5.941c0,0.891,0.162,1.392,0.502,1.813
				c0.469,0.599,1.263,0.777,2.396,0.777c1.004,0,1.619-0.194,2.38-0.405c0.032-0.016,0.064-0.032,0.097-0.032
				c0.064,0,0.129,0.048,0.162,0.146l0.178,0.615v0.065c0,0.081-0.065,0.129-0.162,0.178c-0.647,0.259-1.716,0.47-2.784,0.47
				c-3.173,0-4.112-1.473-4.112-4.452c0-2.736,0.55-4.468,3.756-4.468c1.7,0,2.688,0.518,3.222,1.441
				c0.421,0.729,0.518,1.732,0.518,2.849V116.289z M345.447,113.602c-0.291-1.036-0.923-1.376-2.234-1.376
				c-1.295,0-1.927,0.34-2.202,1.376c-0.162,0.599-0.178,1.23-0.194,1.83l4.824-0.016
				C345.625,114.8,345.593,114.201,345.447,113.602z"/>
			<path fill="#12110E" d="M353.154,119.656c-0.049,0.162-0.178,0.259-0.324,0.259h-1.7c-0.162,0-0.291-0.097-0.34-0.259
				l-2.688-7.949c-0.016-0.033-0.016-0.065-0.016-0.081c0-0.113,0.065-0.21,0.162-0.21h0.971c0.162,0,0.21,0.097,0.243,0.21
				l2.299,7.35h0.421l2.072-7.35c0.032-0.113,0.113-0.21,0.275-0.21h1.004c0.113,0,0.194,0.081,0.194,0.194v0.048L353.154,119.656z"
				/>
			<path fill="#12110E" d="M364.259,116.289c-0.016,0.081-0.129,0.21-0.21,0.21h-5.941c0,0.891,0.162,1.392,0.502,1.813
				c0.469,0.599,1.263,0.777,2.396,0.777c1.003,0,1.619-0.194,2.38-0.405c0.032-0.016,0.064-0.032,0.097-0.032
				c0.064,0,0.129,0.048,0.162,0.146l0.178,0.615v0.065c0,0.081-0.065,0.129-0.162,0.178c-0.647,0.259-1.716,0.47-2.784,0.47
				c-3.173,0-4.112-1.473-4.112-4.452c0-2.736,0.55-4.468,3.756-4.468c1.7,0,2.688,0.518,3.222,1.441
				c0.421,0.729,0.518,1.732,0.518,2.849V116.289z M362.721,113.602c-0.291-1.036-0.923-1.376-2.234-1.376
				c-1.295,0-1.927,0.34-2.202,1.376c-0.162,0.599-0.178,1.23-0.194,1.83l4.824-0.016
				C362.899,114.8,362.867,114.201,362.721,113.602z"/>
			<path fill="#12110E" d="M370.314,112.339c-1.069,0-1.943,0.081-2.85,0.308v7.026c0,0.146-0.081,0.243-0.227,0.243h-0.81
				c0,0-0.243-0.097-0.243-0.243v-6.751c0-0.712,0.146-0.923,0.696-1.182c0.712-0.324,2.169-0.534,2.946-0.534h0.405
				c0.081,0,0.227,0.032,0.227,0.243v0.696C370.46,112.258,370.428,112.339,370.314,112.339z"/>
			<path fill="#12110E" d="M378.555,119.916h-0.793c-0.146,0-0.243-0.097-0.243-0.243v-5.99c0-1.068-0.405-1.441-1.538-1.441
				c-1.505,0-3.027,0.453-3.027,0.453v6.978c0,0.146-0.081,0.243-0.227,0.243h-0.81c-0.146,0-0.243-0.097-0.243-0.243v-6.719
				c0-0.647,0.032-0.939,0.842-1.214c0.842-0.292,2.461-0.534,3.497-0.534c1.926,0,2.785,0.599,2.785,2.331v6.136
				C378.798,119.818,378.701,119.916,378.555,119.916z"/>
			<path fill="#12110E" d="M388.137,116.289c-0.016,0.081-0.129,0.21-0.21,0.21h-5.941c0,0.891,0.162,1.392,0.502,1.813
				c0.469,0.599,1.263,0.777,2.396,0.777c1.004,0,1.619-0.194,2.38-0.405c0.032-0.016,0.064-0.032,0.097-0.032
				c0.064,0,0.129,0.048,0.162,0.146l0.178,0.615v0.065c0,0.081-0.065,0.129-0.162,0.178c-0.647,0.259-1.716,0.47-2.784,0.47
				c-3.173,0-4.112-1.473-4.112-4.452c0-2.736,0.55-4.468,3.756-4.468c1.7,0,2.688,0.518,3.222,1.441
				c0.421,0.729,0.518,1.732,0.518,2.849V116.289z M386.599,113.602c-0.291-1.036-0.923-1.376-2.234-1.376
				c-1.295,0-1.927,0.34-2.202,1.376c-0.162,0.599-0.178,1.23-0.194,1.83l4.824-0.016
				C386.777,114.8,386.745,114.201,386.599,113.602z"/>
			<path fill="#12110E" d="M399.551,119.656c0,0.065-0.065,0.146-0.129,0.162c-0.356,0.113-1.052,0.308-1.975,0.308
				c-1.603,0-2.364-0.696-2.364-2.25v-8.904c0-0.129,0.081-0.178,0.194-0.194l0.874-0.227h0.049c0.113,0,0.162,0.113,0.162,0.21
				v2.655h2.72c0.146,0,0.243,0.097,0.243,0.243v0.551c0,0.146-0.097,0.243-0.243,0.243h-2.72v5.553c0,0.89,0.486,1.084,1.328,1.084
				c0.502,0,1.149-0.129,1.489-0.21h0.049c0.081,0,0.146,0.048,0.178,0.146l0.146,0.599V119.656z"/>
			<path fill="#12110E" d="M402.189,109.959h-0.793c-0.146,0-0.243-0.097-0.243-0.227v-1.749c0-0.146,0.097-0.243,0.243-0.243h0.793
				c0.146,0,0.243,0.097,0.243,0.243v1.749C402.433,109.862,402.335,109.959,402.189,109.959z M402.189,119.916h-0.793
				c-0.146,0-0.243-0.097-0.243-0.243v-8.014c0-0.146,0.097-0.243,0.243-0.243h0.793c0.146,0,0.243,0.097,0.243,0.243v8.014
				C402.433,119.818,402.335,119.916,402.189,119.916z"/>
			<path fill="#12110E" d="M407.84,119.721c0,0.113-0.081,0.146-0.129,0.162c-0.13,0.064-0.567,0.194-1.149,0.194
				c-0.972,0-1.619-0.47-1.619-1.668v-10.248c0-0.13,0.081-0.178,0.194-0.194l0.874-0.227h0.049c0.113,0,0.162,0.113,0.162,0.21
				v10.426c0,0.583,0.405,0.664,0.729,0.664c0.227,0,0.486-0.033,0.567-0.065h0.081c0.048,0,0.097,0.016,0.113,0.113l0.113,0.566
				C407.824,119.689,407.84,119.705,407.84,119.721z"/>
			<path fill="#12110E" d="M420.225,119.802c-0.518,0.129-1.198,0.324-2.477,0.324c-3.141,0-3.869-1.425-3.869-4.468
				c0-3.108,0.858-4.452,3.772-4.452c1.117,0,1.927,0.178,2.477,0.324l-0.162-0.939v-2.428c0-0.13,0.081-0.178,0.21-0.194
				l0.874-0.227h0.049c0.113,0,0.146,0.113,0.146,0.21v10.572C421.245,119.122,421.245,119.576,420.225,119.802z M419.966,112.517
				c0,0-1.02-0.292-2.186-0.292c-1.781,0-2.574,0.566-2.574,3.448c0,3.076,0.939,3.432,2.59,3.432c1.198,0,2.169-0.308,2.169-0.308
				V112.517z"/>
			<path fill="#12110E" d="M430.585,116.289c-0.016,0.081-0.129,0.21-0.21,0.21h-5.941c0,0.891,0.162,1.392,0.502,1.813
				c0.469,0.599,1.263,0.777,2.396,0.777c1.004,0,1.619-0.194,2.38-0.405c0.032-0.016,0.064-0.032,0.097-0.032
				c0.064,0,0.129,0.048,0.162,0.146l0.178,0.615v0.065c0,0.081-0.065,0.129-0.162,0.178c-0.647,0.259-1.716,0.47-2.784,0.47
				c-3.173,0-4.112-1.473-4.112-4.452c0-2.736,0.55-4.468,3.756-4.468c1.7,0,2.688,0.518,3.222,1.441
				c0.421,0.729,0.518,1.732,0.518,2.849V116.289z M429.047,113.602c-0.291-1.036-0.923-1.376-2.234-1.376
				c-1.295,0-1.927,0.34-2.202,1.376c-0.162,0.599-0.178,1.23-0.194,1.83l4.824-0.016
				C429.225,114.8,429.193,114.201,429.047,113.602z"/>
			<path fill="#12110E" d="M439.393,119.916H438.6c-0.146,0-0.243-0.097-0.243-0.243v-5.99c0-1.068-0.405-1.441-1.538-1.441
				c-1.505,0-3.027,0.453-3.027,0.453v6.978c0,0.146-0.081,0.243-0.227,0.243h-0.81c-0.146,0-0.243-0.097-0.243-0.243v-6.719
				c0-0.647,0.032-0.939,0.842-1.214c0.842-0.292,2.461-0.534,3.497-0.534c1.926,0,2.785,0.599,2.785,2.331v6.136
				C439.636,119.818,439.539,119.916,439.393,119.916z"/>
			<path fill="#12110E" d="M40.277,138.005c-0.049,0.162-0.178,0.259-0.324,0.259h-1.7c-0.162,0-0.291-0.097-0.34-0.259
				l-2.688-7.949c-0.016-0.033-0.016-0.065-0.016-0.081c0-0.113,0.065-0.21,0.162-0.21h0.971c0.162,0,0.21,0.097,0.243,0.21
				l2.299,7.35h0.421l2.072-7.35c0.033-0.113,0.114-0.21,0.275-0.21h1.004c0.113,0,0.194,0.081,0.194,0.194v0.048L40.277,138.005z"
				/>
			<path fill="#12110E" d="M45.587,128.307h-0.793c-0.146,0-0.243-0.097-0.243-0.227v-1.749c0-0.146,0.097-0.243,0.243-0.243h0.793
				c0.146,0,0.243,0.097,0.243,0.243v1.749C45.83,128.21,45.733,128.307,45.587,128.307z M45.587,138.264h-0.793
				c-0.146,0-0.243-0.097-0.243-0.243v-8.014c0-0.146,0.097-0.243,0.243-0.243h0.793c0.146,0,0.243,0.097,0.243,0.243v8.014
				C45.83,138.167,45.733,138.264,45.587,138.264z"/>
			<path fill="#12110E" d="M52.468,130.687c-1.069,0-1.943,0.081-2.85,0.308v7.026c0,0.146-0.081,0.243-0.227,0.243h-0.81
				c0,0-0.243-0.097-0.243-0.243v-6.751c0-0.712,0.146-0.922,0.696-1.182c0.712-0.324,2.169-0.534,2.946-0.534h0.405
				c0.081,0,0.227,0.032,0.227,0.243v0.696C52.613,130.606,52.581,130.687,52.468,130.687z"/>
			<path fill="#12110E" d="M60.773,138.118c0,0.081-0.081,0.146-0.162,0.146h-1.344c-0.064,0-0.097-0.032-0.129-0.081l-3.367-3.675
				h-0.664v3.513c0,0.146-0.081,0.243-0.227,0.243h-0.81c-0.146,0-0.243-0.097-0.243-0.243V126.51c0-0.13,0.081-0.178,0.194-0.194
				l0.874-0.227h0.049c0.113,0,0.162,0.114,0.162,0.211v7.236h0.664l3.27-3.691c0.033-0.049,0.065-0.081,0.129-0.081l1.166,0.032
				c0.081,0,0.162,0.065,0.162,0.146c0,0.032-0.016,0.064-0.032,0.081l-3.562,3.902l3.837,4.112
				C60.757,138.053,60.773,138.085,60.773,138.118z"/>
			<path fill="#12110E" d="M69.045,134.637c-0.016,0.081-0.129,0.21-0.21,0.21h-5.941c0,0.891,0.162,1.392,0.502,1.813
				c0.469,0.599,1.263,0.777,2.396,0.777c1.003,0,1.619-0.194,2.38-0.405c0.032-0.016,0.064-0.032,0.097-0.032
				c0.064,0,0.129,0.048,0.162,0.146l0.178,0.615v0.065c0,0.081-0.065,0.129-0.162,0.178c-0.647,0.259-1.716,0.469-2.784,0.469
				c-3.173,0-4.112-1.473-4.112-4.452c0-2.736,0.55-4.468,3.756-4.468c1.7,0,2.688,0.518,3.222,1.441
				c0.421,0.729,0.518,1.732,0.518,2.849V134.637z M67.507,131.95c-0.291-1.036-0.923-1.376-2.234-1.376
				c-1.295,0-1.927,0.34-2.202,1.376c-0.162,0.599-0.178,1.23-0.194,1.83l4.824-0.016C67.686,133.148,67.653,132.549,67.507,131.95z
				"/>
			<path fill="#12110E" d="M73.87,138.069c0,0.113-0.081,0.146-0.129,0.162c-0.13,0.064-0.567,0.194-1.149,0.194
				c-0.972,0-1.619-0.47-1.619-1.668V126.51c0-0.13,0.081-0.178,0.194-0.194l0.874-0.227h0.049c0.113,0,0.162,0.114,0.162,0.211
				v10.426c0,0.583,0.405,0.664,0.729,0.664c0.227,0,0.486-0.033,0.567-0.065h0.081c0.048,0,0.097,0.016,0.113,0.113l0.113,0.567
				C73.854,138.037,73.87,138.053,73.87,138.069z"/>
			<path fill="#12110E" d="M76.59,128.307h-0.793c-0.146,0-0.243-0.097-0.243-0.227v-1.749c0-0.146,0.097-0.243,0.243-0.243h0.793
				c0.146,0,0.243,0.097,0.243,0.243v1.749C76.833,128.21,76.736,128.307,76.59,128.307z M76.59,138.264h-0.793
				c-0.146,0-0.243-0.097-0.243-0.243v-8.014c0-0.146,0.097-0.243,0.243-0.243h0.793c0.146,0,0.243,0.097,0.243,0.243v8.014
				C76.833,138.167,76.736,138.264,76.59,138.264z"/>
			<path fill="#12110E" d="M87.486,130.428c0,0.033-0.033,0.049-0.081,0.097c-0.356,0.243-0.761,0.34-1.149,0.34
				c-0.259,0-0.275-0.017-0.648-0.081c0,0,0.696,0.583,0.696,1.732c0,2.299-1.425,2.962-3.562,2.962h-1.198
				c-0.842,0-1.036,0.421-1.036,0.842c0,0.68,0.47,0.858,1.182,0.858h2.444c1.554,0,2.655,0.469,2.655,1.91
				c0,2.007-1.619,2.671-3.934,2.671c-2.688,0-3.918-0.534-3.918-2.169c0-1.263,0.858-1.506,1.651-1.667v-0.178
				c-0.729-0.162-1.36-0.243-1.36-1.392c0-0.988,0.534-1.23,1.781-1.425c-0.761-0.243-1.83-0.454-1.83-2.412
				c0-2.218,1.457-2.963,3.546-2.963c1.003,0,1.408,0.162,2.023,0.34c0.178,0.033,0.373,0.065,0.599,0.065
				c0.243,0,0.518-0.049,0.745-0.113c0.292-0.081,0.615-0.227,0.842-0.34c0.049-0.016,0.097-0.048,0.129-0.048
				c0.033,0,0.065,0.032,0.081,0.097l0.308,0.81C87.469,130.396,87.486,130.412,87.486,130.428z M83.989,138.264h-2.186
				c-0.826,0-1.587,0.259-1.587,1.23c0,1.117,1.166,1.263,2.655,1.263c1.004,0,2.639-0.146,2.639-1.473
				C85.51,138.345,84.701,138.264,83.989,138.264z M82.742,130.525c-1.409,0-2.283,0.486-2.283,1.992
				c0,1.489,0.874,1.958,2.283,1.958c1.392,0,2.283-0.469,2.283-1.958C85.025,131.011,84.134,130.525,82.742,130.525z"/>
			<path fill="#12110E" d="M95.432,138.264h-0.793c-0.146,0-0.243-0.097-0.243-0.243v-5.99c0-1.068-0.405-1.441-1.538-1.441
				c-1.506,0-3.028,0.453-3.028,0.453v6.978c0,0.146-0.081,0.243-0.227,0.243h-0.81c-0.146,0-0.243-0.097-0.243-0.243V126.51
				c0-0.13,0.081-0.178,0.194-0.194l0.874-0.227h0.049c0.113,0,0.162,0.114,0.162,0.211v2.801l-0.162,0.939
				c0.89-0.259,2.283-0.486,3.222-0.486c1.926,0,2.785,0.599,2.785,2.331v6.136C95.675,138.167,95.594,138.264,95.432,138.264z"/>
			<path fill="#12110E" d="M105.015,134.637c-0.016,0.081-0.129,0.21-0.21,0.21h-5.941c0,0.891,0.162,1.392,0.502,1.813
				c0.469,0.599,1.263,0.777,2.396,0.777c1.004,0,1.619-0.194,2.38-0.405c0.032-0.016,0.064-0.032,0.097-0.032
				c0.064,0,0.129,0.048,0.162,0.146l0.178,0.615v0.065c0,0.081-0.065,0.129-0.162,0.178c-0.647,0.259-1.716,0.469-2.784,0.469
				c-3.173,0-4.112-1.473-4.112-4.452c0-2.736,0.55-4.468,3.756-4.468c1.7,0,2.688,0.518,3.222,1.441
				c0.421,0.729,0.518,1.732,0.518,2.849V134.637z M103.477,131.95c-0.291-1.036-0.923-1.376-2.234-1.376
				c-1.295,0-1.927,0.34-2.202,1.376c-0.162,0.599-0.178,1.23-0.194,1.83l4.824-0.016
				C103.655,133.148,103.623,132.549,103.477,131.95z"/>
			<path fill="#12110E" d="M112.867,138.15c-0.518,0.129-1.198,0.324-2.477,0.324c-3.141,0-3.869-1.425-3.869-4.468
				c0-3.108,0.858-4.452,3.772-4.452c1.117,0,1.927,0.178,2.477,0.324l-0.162-0.939v-2.428c0-0.13,0.081-0.178,0.21-0.194
				l0.874-0.227h0.049c0.113,0,0.146,0.114,0.146,0.211v10.572C113.887,137.47,113.887,137.924,112.867,138.15z M112.608,130.865
				c0,0-1.02-0.292-2.186-0.292c-1.781,0-2.574,0.566-2.574,3.448c0,3.076,0.939,3.432,2.59,3.432c1.198,0,2.169-0.308,2.169-0.308
				V130.865z"/>
			<path fill="#12110E" d="M118.015,139.899c-0.032,0.162-0.049,0.21-0.243,0.21h-0.761c-0.097,0-0.21-0.016-0.21-0.162v-0.032
				l0.21-3.092c0.016-0.162,0.049-0.21,0.243-0.21h1.101c0.097,0,0.21,0.016,0.21,0.146v0.049L118.015,139.899z"/>
			<path fill="#12110E" d="M132.423,138.15c-0.518,0.129-1.198,0.324-2.477,0.324c-3.141,0-3.869-1.425-3.869-4.468
				c0-3.108,0.858-4.452,3.772-4.452c1.117,0,1.927,0.178,2.477,0.324l-0.162-0.939v-2.428c0-0.13,0.081-0.178,0.21-0.194
				l0.874-0.227h0.049c0.113,0,0.146,0.114,0.146,0.211v10.572C133.443,137.47,133.443,137.924,132.423,138.15z M132.164,130.865
				c0,0-1.02-0.292-2.186-0.292c-1.781,0-2.574,0.566-2.574,3.448c0,3.076,0.939,3.432,2.59,3.432c1.198,0,2.169-0.308,2.169-0.308
				V130.865z"/>
			<path fill="#12110E" d="M142.784,134.637c-0.016,0.081-0.129,0.21-0.21,0.21h-5.941c0,0.891,0.162,1.392,0.502,1.813
				c0.469,0.599,1.263,0.777,2.396,0.777c1.003,0,1.619-0.194,2.38-0.405c0.032-0.016,0.064-0.032,0.097-0.032
				c0.064,0,0.129,0.048,0.162,0.146l0.178,0.615v0.065c0,0.081-0.065,0.129-0.162,0.178c-0.647,0.259-1.716,0.469-2.784,0.469
				c-3.173,0-4.112-1.473-4.112-4.452c0-2.736,0.55-4.468,3.756-4.468c1.7,0,2.688,0.518,3.222,1.441
				c0.421,0.729,0.518,1.732,0.518,2.849V134.637z M141.246,131.95c-0.291-1.036-0.923-1.376-2.234-1.376
				c-1.295,0-1.927,0.34-2.202,1.376c-0.162,0.599-0.178,1.23-0.194,1.83l4.824-0.016
				C141.424,133.148,141.392,132.549,141.246,131.95z"/>
			<path fill="#12110E" d="M162.454,138.264h-0.793c-0.162,0-0.259-0.097-0.259-0.243v-5.99c0-1.068-0.389-1.441-1.522-1.441
				c-1.506,0-3.043,0.453-3.043,0.453v6.978c0,0.162-0.065,0.243-0.227,0.243h-0.793c-0.146,0-0.243-0.097-0.243-0.243v-5.99
				c0-1.068-0.405-1.441-1.538-1.441c-1.505,0-3.027,0.453-3.027,0.453v6.978c0,0.146-0.081,0.243-0.227,0.243h-0.81
				c-0.146,0-0.243-0.097-0.243-0.243v-6.719c0-0.647,0.032-0.939,0.842-1.214c0.842-0.292,2.461-0.534,3.497-0.534
				c1.02,0,1.749,0.194,2.202,0.615c0.907-0.356,2.655-0.615,3.643-0.615c1.927,0,2.785,0.599,2.785,2.331v6.136
				C162.697,138.167,162.6,138.264,162.454,138.264z"/>
			<path fill="#12110E" d="M171.763,130.914c0.502,0.81,0.599,1.894,0.599,3.108c0,2.428-0.388,4.452-3.788,4.452
				c-1.23,0-2.056-0.259-2.623-0.712l-0.858,0.988c-0.016,0.032-0.064,0.048-0.097,0.048c-0.032,0-0.064,0-0.097-0.032l-0.437-0.389
				c-0.032-0.032-0.065-0.065-0.065-0.097s0.017-0.064,0.049-0.097l0.923-1.084c-0.486-0.81-0.583-1.895-0.583-3.076
				c0-2.445,0.389-4.468,3.789-4.468c1.214,0,2.056,0.259,2.623,0.712l0.842-1.004c0.032-0.032,0.065-0.048,0.113-0.048
				c0.033,0,0.065,0.016,0.081,0.032l0.437,0.389c0.049,0.032,0.065,0.064,0.065,0.097c0,0.032-0.016,0.064-0.049,0.097
				L171.763,130.914z M168.574,130.59c-2.348,0-2.445,1.376-2.445,3.432c0,0.777,0.016,1.457,0.162,1.991l4.128-4.84
				C170.063,130.8,169.48,130.59,168.574,130.59z M170.856,131.982l-4.145,4.873c0.356,0.373,0.939,0.583,1.862,0.583
				c2.347,0,2.444-1.376,2.444-3.416C171.018,133.229,171.002,132.533,170.856,131.982z"/>
			<path fill="#12110E" d="M180.457,138.15c-0.518,0.129-1.198,0.324-2.477,0.324c-3.141,0-3.869-1.425-3.869-4.468
				c0-3.108,0.858-4.452,3.772-4.452c1.117,0,1.927,0.178,2.477,0.324l-0.162-0.939v-2.428c0-0.13,0.081-0.178,0.21-0.194
				l0.874-0.227h0.049c0.113,0,0.146,0.114,0.146,0.211v10.572C181.477,137.47,181.477,137.924,180.457,138.15z M180.198,130.865
				c0,0-1.02-0.292-2.186-0.292c-1.781,0-2.574,0.566-2.574,3.448c0,3.076,0.939,3.432,2.59,3.432c1.198,0,2.169-0.308,2.169-0.308
				V130.865z"/>
			<path fill="#12110E" d="M190.817,134.637c-0.016,0.081-0.129,0.21-0.21,0.21h-5.941c0,0.891,0.162,1.392,0.502,1.813
				c0.469,0.599,1.263,0.777,2.396,0.777c1.004,0,1.619-0.194,2.38-0.405c0.032-0.016,0.064-0.032,0.097-0.032
				c0.064,0,0.129,0.048,0.162,0.146l0.178,0.615v0.065c0,0.081-0.065,0.129-0.162,0.178c-0.647,0.259-1.716,0.469-2.784,0.469
				c-3.173,0-4.112-1.473-4.112-4.452c0-2.736,0.55-4.468,3.756-4.468c1.7,0,2.688,0.518,3.222,1.441
				c0.421,0.729,0.518,1.732,0.518,2.849V134.637z M189.279,131.95c-0.291-1.036-0.923-1.376-2.234-1.376
				c-1.295,0-1.927,0.34-2.202,1.376c-0.162,0.599-0.178,1.23-0.194,1.83l4.824-0.016
				C189.458,133.148,189.425,132.549,189.279,131.95z"/>
			<path fill="#12110E" d="M196.873,130.687c-1.069,0-1.943,0.081-2.85,0.308v7.026c0,0.146-0.081,0.243-0.227,0.243h-0.81
				c0,0-0.243-0.097-0.243-0.243v-6.751c0-0.712,0.146-0.922,0.696-1.182c0.712-0.324,2.169-0.534,2.946-0.534h0.405
				c0.081,0,0.227,0.032,0.227,0.243v0.696C197.018,130.606,196.986,130.687,196.873,130.687z"/>
			<path fill="#12110E" d="M206.829,138.474c-1.149,0-2.202-0.194-2.736-0.373c-0.81-0.275-0.842-0.68-0.842-1.279V126.51
				c0-0.13,0.081-0.178,0.194-0.194l0.874-0.227h0.049c0.113,0,0.162,0.114,0.162,0.211v2.801l-0.162,0.922
				c0,0,1.586-0.469,2.817-0.469c2.688,0,3.432,1.376,3.432,4.436C210.617,137.146,209.759,138.474,206.829,138.474z
				 M206.975,130.606c-1.004,0-2.445,0.389-2.445,0.389v6.168c0,0,0.891,0.292,2.267,0.292c1.862,0,2.493-0.874,2.493-3.432
				C209.29,131.416,208.836,130.606,206.975,130.606z"/>
			<path fill="#12110E" d="M217.854,138.248c-0.47,0.097-1.247,0.227-2.104,0.227c-1.393,0-3.708-0.048-3.708-2.671
				c0-2.169,1.198-2.283,2.801-2.542l3.06-0.502v-0.761c0-0.518-0.016-0.939-0.583-1.15c-0.308-0.129-0.761-0.194-1.473-0.194
				c-1.247,0-2.332,0.308-2.995,0.469c-0.033,0-0.065,0.016-0.097,0.016c-0.065,0-0.13-0.032-0.162-0.129l-0.146-0.729v-0.032
				c0-0.13,0.113-0.178,0.162-0.194c0.518-0.194,1.911-0.502,3.384-0.502c1.149,0,1.894,0.162,2.364,0.421
				c0.826,0.437,0.842,1.198,0.842,1.959v4.646C219.197,137.713,218.971,137.972,217.854,138.248z M217.918,133.779l-2.979,0.502
				c-0.777,0.146-1.57,0.178-1.57,1.457c0,1.619,1.327,1.732,2.396,1.732c0.712,0,1.473-0.097,2.153-0.324V133.779z"/>
			<path fill="#12110E" d="M229.526,130.428c0,0.033-0.033,0.049-0.081,0.097c-0.356,0.243-0.761,0.34-1.149,0.34
				c-0.259,0-0.275-0.017-0.648-0.081c0,0,0.696,0.583,0.696,1.732c0,2.299-1.425,2.962-3.562,2.962h-1.198
				c-0.842,0-1.036,0.421-1.036,0.842c0,0.68,0.47,0.858,1.182,0.858h2.444c1.554,0,2.655,0.469,2.655,1.91
				c0,2.007-1.619,2.671-3.934,2.671c-2.688,0-3.918-0.534-3.918-2.169c0-1.263,0.858-1.506,1.651-1.667v-0.178
				c-0.729-0.162-1.36-0.243-1.36-1.392c0-0.988,0.534-1.23,1.781-1.425c-0.761-0.243-1.83-0.454-1.83-2.412
				c0-2.218,1.457-2.963,3.546-2.963c1.003,0,1.408,0.162,2.023,0.34c0.178,0.033,0.373,0.065,0.599,0.065
				c0.243,0,0.518-0.049,0.745-0.113c0.292-0.081,0.615-0.227,0.842-0.34c0.049-0.016,0.097-0.048,0.129-0.048
				c0.033,0,0.065,0.032,0.081,0.097l0.308,0.81C229.51,130.396,229.526,130.412,229.526,130.428z M226.029,138.264h-2.186
				c-0.826,0-1.587,0.259-1.587,1.23c0,1.117,1.166,1.263,2.655,1.263c1.004,0,2.639-0.146,2.639-1.473
				C227.551,138.345,226.742,138.264,226.029,138.264z M224.783,130.525c-1.409,0-2.283,0.486-2.283,1.992
				c0,1.489,0.874,1.958,2.283,1.958c1.392,0,2.283-0.469,2.283-1.958C227.065,131.011,226.175,130.525,224.783,130.525z"/>
			<path fill="#12110E" d="M237.75,134.637c-0.016,0.081-0.129,0.21-0.21,0.21h-5.941c0,0.891,0.162,1.392,0.502,1.813
				c0.469,0.599,1.263,0.777,2.396,0.777c1.004,0,1.619-0.194,2.38-0.405c0.032-0.016,0.064-0.032,0.097-0.032
				c0.064,0,0.129,0.048,0.162,0.146l0.178,0.615v0.065c0,0.081-0.065,0.129-0.162,0.178c-0.647,0.259-1.716,0.469-2.784,0.469
				c-3.173,0-4.112-1.473-4.112-4.452c0-2.736,0.55-4.468,3.756-4.468c1.7,0,2.688,0.518,3.222,1.441
				c0.421,0.729,0.518,1.732,0.518,2.849V134.637z M236.212,131.95c-0.291-1.036-0.923-1.376-2.234-1.376
				c-1.295,0-1.927,0.34-2.202,1.376c-0.162,0.599-0.178,1.23-0.194,1.83l4.824-0.016
				C236.39,133.148,236.358,132.549,236.212,131.95z"/>
			<path fill="#12110E" d="M244.566,127.125c-0.016,0.13-0.097,0.178-0.227,0.178c-0.324-0.064-0.923-0.178-1.554-0.178
				c-0.437,0-0.777,0.049-1.004,0.227c-0.21,0.162-0.324,0.421-0.324,0.858v1.554h2.396c0.146,0,0.243,0.097,0.243,0.243v0.551
				c0,0.146-0.097,0.243-0.243,0.243h-2.396v7.221c0,0.146-0.081,0.243-0.227,0.243h-0.81c-0.146,0-0.243-0.097-0.243-0.243V130.8
				h-1.263c-0.146,0-0.243-0.097-0.243-0.243v-0.551c0-0.146,0.097-0.243,0.243-0.243h1.263v-1.425c0-1.554,0.761-2.25,2.347-2.25
				c0.858,0,1.538,0.162,1.911,0.243c0.113,0.032,0.21,0.097,0.21,0.21v0.016L244.566,127.125z"/>
			<path fill="#12110E" d="M249.844,138.005c0,0.064-0.065,0.146-0.129,0.162c-0.356,0.113-1.052,0.308-1.975,0.308
				c-1.603,0-2.364-0.696-2.364-2.25v-8.904c0-0.129,0.081-0.178,0.194-0.194l0.874-0.227h0.049c0.113,0,0.162,0.113,0.162,0.21
				v2.655h2.72c0.146,0,0.243,0.097,0.243,0.243v0.551c0,0.146-0.097,0.243-0.243,0.243h-2.72v5.553c0,0.89,0.486,1.084,1.328,1.084
				c0.502,0,1.149-0.129,1.489-0.21h0.049c0.081,0,0.146,0.048,0.178,0.146l0.146,0.599V138.005z"/>
			<path fill="#12110E" d="M258.278,134.637c-0.016,0.081-0.129,0.21-0.21,0.21h-5.941c0,0.891,0.162,1.392,0.502,1.813
				c0.469,0.599,1.263,0.777,2.396,0.777c1.004,0,1.619-0.194,2.38-0.405c0.032-0.016,0.064-0.032,0.097-0.032
				c0.064,0,0.129,0.048,0.162,0.146l0.178,0.615v0.065c0,0.081-0.065,0.129-0.162,0.178c-0.647,0.259-1.716,0.469-2.784,0.469
				c-3.173,0-4.112-1.473-4.112-4.452c0-2.736,0.55-4.468,3.756-4.468c1.7,0,2.688,0.518,3.222,1.441
				c0.421,0.729,0.518,1.732,0.518,2.849V134.637z M256.74,131.95c-0.291-1.036-0.923-1.376-2.234-1.376
				c-1.295,0-1.927,0.34-2.202,1.376c-0.162,0.599-0.178,1.23-0.194,1.83l4.824-0.016
				C256.918,133.148,256.886,132.549,256.74,131.95z"/>
			<path fill="#12110E" d="M264.333,130.687c-1.069,0-1.943,0.081-2.85,0.308v7.026c0,0.146-0.081,0.243-0.227,0.243h-0.81
				c0,0-0.243-0.097-0.243-0.243v-6.751c0-0.712,0.146-0.922,0.696-1.182c0.712-0.324,2.169-0.534,2.946-0.534h0.405
				c0.081,0,0.227,0.032,0.227,0.243v0.696C264.479,130.606,264.447,130.687,264.333,130.687z"/>
			<path fill="#12110E" d="M271.084,131.577c-0.615,0.438-1.749,0.858-1.749,1.976c0,0.566,0.049,0.712,0.097,1.068v0.032
				c0,0.146-0.097,0.194-0.275,0.194h-0.826c-0.146,0-0.194-0.016-0.243-0.21c-0.032-0.162-0.113-0.566-0.113-0.988
				c0-1.813,0.81-2.056,2.024-2.93c0.307-0.227,1.44-0.81,1.44-1.862c0-1.328-1.344-1.521-2.38-1.521
				c-1.279,0-2.558,0.356-2.833,0.421c-0.081,0.016-0.146,0.032-0.194,0.032c-0.064,0-0.113-0.032-0.146-0.178l-0.178-0.745
				c-0.016-0.032-0.016-0.048-0.016-0.065c0-0.081,0.048-0.146,0.178-0.194c0.21-0.081,1.781-0.519,3.222-0.519
				c2.299,0,3.772,0.842,3.772,2.817C272.865,130.574,271.457,131.302,271.084,131.577z M269.271,138.264H268.3
				c-0.146,0-0.243-0.081-0.243-0.243v-1.813c0-0.162,0.097-0.243,0.243-0.243h0.971c0.162,0,0.243,0.081,0.243,0.243v1.813
				C269.514,138.183,269.433,138.264,269.271,138.264z"/>
		</g>
	</g>
</g>
<g>
</g>
<g>
</g>
<g>
</g>
<g>
</g>
<g>
</g>
<g>
</g>
</svg>
