<?xml version="1.0" encoding="utf-8"?>
<!-- Generator: Adobe Illustrator 16.0.4, SVG Export Plug-In . SVG Version: 6.00 Build 0)  -->
<!DOCTYPE svg PUBLIC "-//W3C//DTD SVG 1.1//EN" "http://www.w3.org/Graphics/SVG/1.1/DTD/svg11.dtd">
<svg version="1.1" id="Layer_1" xmlns="http://www.w3.org/2000/svg" xmlns:xlink="http://www.w3.org/1999/xlink" x="0px" y="0px"
	 width="1002.13px" height="592.191px" viewBox="0 0 1002.13 592.191" enable-background="new 0 0 1002.13 592.191"
	 xml:space="preserve">
<g>
	<polygon fill="#00A2DE" points="963.886,104.793 474.831,98.377 458.814,0 975.933,10.534 	"/>
	<polygon fill="#00A2DE" points="866.817,102.922 817.759,102.345 818.114,157.353 	"/>
	<g>
		<g>
			<path d="M513.153,59.742c-6.523,0-7.922-3.337-7.922-8.499c0-5.184,1.398-8.521,7.922-8.521c6.545,0,7.941,3.337,7.941,8.521
				C521.095,56.405,519.698,59.742,513.153,59.742z M513.153,45.281c-3.705,0-4.149,1.936-4.149,5.94s0.444,5.94,4.149,5.94
				s4.17-1.936,4.17-5.94S516.88,45.281,513.153,45.281z"/>
			<path d="M535.911,49.463c0,0.067-0.045,0.156-0.178,0.245c-0.467,0.333-1.021,0.467-1.553,0.467
				c-0.378,0-0.422-0.044-0.933-0.133c0.354,0.289,0.909,0.979,0.909,2.002c0,2.714-2.107,3.604-4.814,3.604h-1.33
				c-0.755,0-1.021,0.356-1.021,0.912c0,0.756,0.533,0.868,1.664,0.868h2.107c1.975,0,4.127,0.489,4.127,3.115
				c0,2.848-2.439,3.893-5.768,3.893c-3.795,0-5.77-0.623-5.77-2.825c0-2.047,1.643-2.136,2.441-2.336v-0.356
				c-1.021-0.222-2.041-0.2-2.041-1.913c0-1.513,1.109-1.713,2.484-1.936c-0.754-0.2-2.551-0.667-2.551-3.315
				c0-3.181,1.975-4.271,5.235-4.271c1.442,0,2.019,0.178,2.884,0.423c0.244,0.067,0.533,0.089,0.865,0.089
				c0.334,0,0.732-0.044,1.065-0.133c0.399-0.111,0.821-0.334,1.153-0.489c0.066-0.022,0.156-0.067,0.2-0.067
				c0.11,0,0.177,0.067,0.222,0.222l0.555,1.758C535.888,49.353,535.911,49.419,535.911,49.463z M529.81,59.875h-1.509
				c-0.755,0-1.664,0.133-1.664,1.224c0,1.112,0.909,1.401,2.573,1.401c1.42,0,2.418-0.312,2.418-1.491
				C531.628,59.964,530.808,59.875,529.81,59.875z M529.011,49.353c-1.553,0-1.997,0.756-1.997,2.202
				c0,1.446,0.444,2.225,1.997,2.225c1.531,0,1.975-0.779,1.975-2.225C530.985,50.109,530.542,49.353,529.011,49.353z"/>
			<path d="M554.519,59.453h-2.707c-0.221,0-0.354-0.133-0.354-0.333v-7.876c0-0.979-0.333-1.468-1.397-1.468
				c-1.132,0-2.374,0.267-2.374,0.267v9.077c0,0.2-0.134,0.333-0.354,0.333h-2.707c-0.223,0-0.355-0.133-0.355-0.333v-15.44
				c0-0.312,0.089-0.489,0.399-0.534l2.529-0.423h0.11c0.223,0,0.378,0.111,0.378,0.378v3.47l-0.244,1.379
				c1.042-0.245,2.352-0.467,3.461-0.467c2.485,0,3.972,0.712,3.972,3.182v8.454C554.874,59.319,554.741,59.453,554.519,59.453z"/>
			<path d="M565.208,59.097c-0.044,0.2-0.177,0.356-0.398,0.356h-4.637c-0.223,0-0.355-0.156-0.422-0.356l-3.062-10.768
				c-0.021-0.044-0.021-0.111-0.021-0.156c0-0.223,0.133-0.4,0.399-0.4h2.573c0.289,0,0.422,0.066,0.51,0.378l2.086,9.166h0.6
				l1.886-9.144c0.066-0.312,0.222-0.4,0.511-0.4h2.596c0.266,0,0.443,0.178,0.443,0.4c0,0.044-0.022,0.089-0.022,0.156
				L565.208,59.097z"/>
			<path d="M573.569,59.453h-2.707c-0.199,0-0.354-0.133-0.354-0.333V48.374c0-0.2,0.155-0.334,0.354-0.334h2.707
				c0.199,0,0.355,0.134,0.355,0.334v10.746C573.925,59.319,573.769,59.453,573.569,59.453z M573.281,46.438h-2.13
				c-0.422,0-0.621-0.156-0.621-0.579v-2.558c0-0.4,0.199-0.579,0.621-0.579h2.13c0.421,0,0.621,0.178,0.621,0.579v2.558
				C573.902,46.282,573.702,46.438,573.281,46.438z"/>
			<path d="M582.863,58.985c0,0.223-0.178,0.334-0.222,0.334c-0.199,0.089-0.844,0.333-2.131,0.333
				c-2.262,0-3.305-1.291-3.305-3.137V43.613c0-0.29,0.066-0.423,0.354-0.467l2.573-0.423h0.111c0.223,0,0.377,0.111,0.377,0.378
				v13.104c0,0.779,0.443,1.001,0.865,1.001c0.355,0,0.577-0.044,0.755-0.066c0.022,0,0.044-0.022,0.066-0.022
				c0.177,0,0.244,0.111,0.267,0.267l0.288,1.535V58.985z"/>
			<path d="M595.907,59.23c0,0.111-0.111,0.223-0.223,0.223h-3.483c-0.089,0-0.222-0.022-0.311-0.156l-2.973-4.539h-0.71v4.361
				c0,0.2-0.155,0.333-0.355,0.333h-2.707c-0.221,0-0.354-0.133-0.354-0.333v-15.44c0-0.312,0.089-0.489,0.399-0.534l2.508-0.423
				h0.11c0.222,0,0.399,0.111,0.399,0.4v9.366h0.71l3.106-4.561c0.11-0.134,0.199-0.156,0.311-0.156h0.044l3.128,0.066
				c0.133,0,0.2,0.111,0.2,0.223c0,0.022-0.022,0.067-0.044,0.089l-3.928,5.295l4.127,5.695
				C595.884,59.186,595.907,59.208,595.907,59.23z"/>
			<path d="M608.172,54.492c0,0.289-0.11,0.578-0.532,0.578h-7.166c0,0.935,0.311,1.468,0.953,1.891
				c0.555,0.333,1.309,0.489,2.396,0.489c1.354,0,2.484-0.356,3.062-0.512c0.022-0.022,0.044-0.022,0.067-0.022
				c0.154,0,0.287,0.111,0.354,0.356l0.288,1.224c0.022,0.067,0.022,0.111,0.022,0.133c0,0.2-0.11,0.312-0.244,0.378
				c-0.71,0.289-2.241,0.734-4.126,0.734c-4.327,0-6.168-1.602-6.168-6.073c0-4.338,1.286-6.185,5.59-6.185
				c2.197,0,3.572,0.512,4.416,1.513c0.82,1.001,1.109,2.469,1.109,4.427C608.194,53.69,608.172,54.18,608.172,54.492z
				 M604.821,52.868c0-0.601-0.044-1.09-0.133-1.58c-0.266-1.157-0.865-1.535-1.975-1.535c-1.398,0-1.908,0.445-2.107,1.446
				c-0.111,0.556-0.111,1.135-0.133,1.802h4.348V52.868z"/>
			<path d="M620.925,59.453h-2.707c-0.221,0-0.377-0.133-0.377-0.333v-7.72c0-1.224-0.488-1.624-1.508-1.624
				c-1.043,0-2.241,0.29-2.241,0.29v9.055c0,0.2-0.134,0.333-0.354,0.333h-2.707c-0.223,0-0.355-0.133-0.355-0.333v-9.7
				c0-0.845,0.555-1.112,1.842-1.424c1.109-0.267,2.861-0.512,4.26-0.512c2.817,0,4.504,0.667,4.504,3.449v8.187
				C621.28,59.319,621.124,59.453,620.925,59.453z"/>
			<path d="M638.468,59.097c-0.044,0.2-0.177,0.356-0.398,0.356h-4.637c-0.223,0-0.355-0.156-0.422-0.356l-3.062-10.768
				c-0.021-0.044-0.021-0.111-0.021-0.156c0-0.223,0.133-0.4,0.399-0.4h2.573c0.289,0,0.422,0.066,0.51,0.378l2.086,9.166h0.6
				l1.886-9.144c0.066-0.312,0.222-0.4,0.511-0.4h2.596c0.266,0,0.443,0.178,0.443,0.4c0,0.044-0.022,0.089-0.022,0.156
				L638.468,59.097z"/>
			<path d="M661.672,54.669c0,0.445-0.222,0.601-0.555,0.601h-7.255c0,0.868,0.355,1.402,1.064,1.758
				c0.6,0.312,1.398,0.422,2.264,0.422c1.354,0,2.507-0.356,3.084-0.512c0.021-0.022,0.066-0.022,0.088-0.022
				c0.156,0,0.289,0.111,0.355,0.356l0.289,1.224c0.021,0.067,0.021,0.111,0.021,0.133c0,0.2-0.111,0.312-0.266,0.378
				c-0.711,0.289-2.241,0.734-4.127,0.734c-2.641,0-3.928-0.934-4.549-2.091c-0.754,1.402-2.062,2.091-4.126,2.091
				c-2.396,0-5.103-0.445-5.103-3.804c0-2.669,1.597-3.181,3.505-3.493l4.126-0.712c0-0.534-0.066-0.935-0.332-1.268
				c-0.333-0.445-0.932-0.646-1.842-0.646c-1.441,0-3.262,0.401-4.082,0.623h-0.066c-0.133,0-0.244-0.089-0.266-0.245l-0.312-1.424
				c0-0.067-0.022-0.133-0.022-0.178c0-0.156,0.09-0.223,0.267-0.312c0.421-0.2,2.64-0.801,4.726-0.801
				c1.643,0,3.173,0.512,3.75,1.936c0.576-1.157,1.885-1.936,4.016-1.936c2.174,0,3.461,0.534,4.281,1.558
				c0.799,1.001,1.065,2.536,1.065,4.427V54.669z M650.534,53.735l-2.573,0.445c-1.087,0.2-1.798,0.445-1.798,1.69
				c0,1.402,1.021,1.713,2.108,1.713c1.708,0,2.263-0.935,2.263-2.781V53.735z M658.144,51.266
				c-0.221-1.068-0.775-1.513-2.085-1.513s-1.886,0.512-2.107,1.557c-0.134,0.512-0.155,1.157-0.155,1.891h4.504
				C658.3,52.534,658.277,51.799,658.144,51.266z"/>
			<path d="M670.407,50.042c-1.287,0-2.44,0.156-2.817,0.245v8.833c0,0.2-0.134,0.333-0.354,0.333h-2.707
				c-0.156,0-0.355-0.133-0.355-0.333v-9.722c0-0.646,0.311-0.89,0.998-1.157c0.666-0.245,1.73-0.378,2.686-0.511
				c0.621-0.089,1.42-0.201,2.151-0.223h0.2c0.244,0,0.311,0.022,0.443,0.111c0.066,0.044,0.155,0.156,0.155,0.356v1.624
				C670.807,49.842,670.784,50.042,670.407,50.042z"/>
			<path d="M681.72,59.23c-1.064,0.312-2.439,0.512-3.816,0.512c-4.348,0-5.856-1.379-5.856-6.029c0-3.849,0.909-6.229,4.792-6.229
				c1.553,0,2.752,0.356,2.996,0.401l-0.244-1.357v-2.848c0-0.312,0.11-0.489,0.421-0.534l2.507-0.423h0.133
				c0.223,0,0.377,0.111,0.377,0.378v14.394C683.028,58.096,682.962,58.874,681.72,59.23z M679.591,49.998c0,0-0.977-0.2-1.798-0.2
				c-1.687,0-2.285,0.333-2.285,3.715c0,3.56,0.688,3.916,2.419,3.916c0.865,0,1.664-0.223,1.664-0.223V49.998z"/>
			<path d="M689.37,59.453h-2.707c-0.199,0-0.354-0.133-0.354-0.333V48.374c0-0.2,0.155-0.334,0.354-0.334h2.707
				c0.199,0,0.355,0.134,0.355,0.334v10.746C689.726,59.319,689.569,59.453,689.37,59.453z M689.082,46.438h-2.13
				c-0.422,0-0.621-0.156-0.621-0.579v-2.558c0-0.4,0.199-0.579,0.621-0.579h2.13c0.421,0,0.621,0.178,0.621,0.579v2.558
				C689.703,46.282,689.503,46.438,689.082,46.438z"/>
			<path d="M706.915,58.852c0,0.178-0.066,0.312-0.288,0.378c-0.311,0.089-1.31,0.4-2.796,0.4c-2.64,0-3.971-0.979-3.971-3.626
				v-11.19c0-0.312,0.111-0.467,0.398-0.534l2.529-0.445h0.111c0.223,0,0.377,0.111,0.377,0.378v3.56h2.951
				c0.199,0,0.355,0.133,0.355,0.333v1.78c0,0.2-0.156,0.334-0.355,0.334h-2.951v5.628c0,0.868,0.289,1.357,1.42,1.357
				c0.666,0,1.242-0.111,1.576-0.178h0.088c0.156,0,0.223,0.111,0.267,0.245l0.288,1.446V58.852z"/>
			<path d="M712.415,59.453h-2.707c-0.199,0-0.355-0.133-0.355-0.333V48.374c0-0.2,0.156-0.334,0.355-0.334h2.707
				c0.199,0,0.354,0.134,0.354,0.334v10.746C712.77,59.319,712.614,59.453,712.415,59.453z M712.126,46.438h-2.129
				c-0.422,0-0.622-0.156-0.622-0.579v-2.558c0-0.4,0.2-0.579,0.622-0.579h2.129c0.422,0,0.621,0.178,0.621,0.579v2.558
				C712.747,46.282,712.548,46.438,712.126,46.438z"/>
			<path d="M721.708,58.985c0,0.223-0.178,0.334-0.221,0.334c-0.2,0.089-0.844,0.333-2.131,0.333c-2.263,0-3.306-1.291-3.306-3.137
				V43.613c0-0.29,0.067-0.423,0.354-0.467l2.574-0.423h0.111c0.222,0,0.377,0.111,0.377,0.378v13.104
				c0,0.779,0.443,1.001,0.865,1.001c0.355,0,0.576-0.044,0.754-0.066c0.022,0,0.045-0.022,0.066-0.022
				c0.178,0,0.244,0.111,0.267,0.267l0.288,1.535V58.985z"/>
			<path d="M731.246,45.014c-0.022,0.2-0.066,0.289-0.243,0.289h-0.09c-0.288-0.044-0.976-0.156-1.574-0.156
				c-0.533,0-0.889,0.067-1.109,0.245c-0.223,0.201-0.311,0.49-0.311,0.957v1.424h2.816c0.2,0,0.355,0.133,0.355,0.333v1.78
				c0,0.2-0.155,0.334-0.355,0.334h-2.816v8.899c0,0.2-0.134,0.333-0.355,0.333h-2.707c-0.199,0-0.377-0.133-0.377-0.333V50.22
				h-1.709c-0.199,0-0.354-0.134-0.354-0.334v-1.78c0-0.2,0.155-0.333,0.354-0.333h1.709V46.26c0-2.358,1.221-3.537,3.794-3.537
				c1.62,0,2.64,0.289,2.973,0.378c0.2,0.044,0.244,0.2,0.244,0.333v0.067L731.246,45.014z"/>
			<path d="M743.224,49.241c0.91,1.112,1.088,2.603,1.088,4.383c0,3.426-0.666,6.118-5.879,6.118c-1.598,0-2.707-0.267-3.551-0.712
				l-1.354,1.58c-0.088,0.089-0.154,0.134-0.244,0.134c-0.066,0-0.154-0.044-0.221-0.111l-0.777-0.623
				c-0.111-0.089-0.133-0.156-0.133-0.223c0-0.089,0.045-0.156,0.111-0.222l1.354-1.58c-0.889-1.112-1.088-2.603-1.088-4.36
				c0-3.449,0.666-6.141,5.902-6.141c1.574,0,2.684,0.267,3.527,0.712l1.354-1.58c0.088-0.089,0.154-0.133,0.244-0.133
				c0.066,0,0.154,0.044,0.221,0.111l0.777,0.623c0.111,0.089,0.133,0.156,0.133,0.222c0,0.089-0.021,0.156-0.089,0.223
				L743.224,49.241z M738.409,49.797c-2.285,0-2.373,1.201-2.373,3.827c0,0.534,0,1.001,0.066,1.424l4.037-4.739
				C739.785,49.975,739.274,49.797,738.409,49.797z M740.739,52.066l-4.104,4.806c0.354,0.378,0.888,0.556,1.774,0.556
				c2.309,0,2.419-1.202,2.419-3.804C740.828,53.023,740.806,52.511,740.739,52.066z"/>
			<path d="M753.204,50.042c-1.287,0-2.441,0.156-2.818,0.245v8.833c0,0.2-0.133,0.333-0.354,0.333h-2.707
				c-0.155,0-0.354-0.133-0.354-0.333v-9.722c0-0.646,0.311-0.89,0.998-1.157c0.666-0.245,1.73-0.378,2.685-0.511
				c0.621-0.089,1.42-0.201,2.151-0.223h0.2c0.244,0,0.311,0.022,0.444,0.111c0.066,0.044,0.154,0.156,0.154,0.356v1.624
				C753.603,49.842,753.581,50.042,753.204,50.042z"/>
			<path d="M765.937,54.492c0,0.289-0.111,0.578-0.533,0.578h-7.166c0,0.935,0.311,1.468,0.955,1.891
				c0.555,0.333,1.309,0.489,2.396,0.489c1.354,0,2.485-0.356,3.062-0.512c0.022-0.022,0.045-0.022,0.066-0.022
				c0.156,0,0.289,0.111,0.355,0.356l0.288,1.224c0.022,0.067,0.022,0.111,0.022,0.133c0,0.2-0.111,0.312-0.244,0.378
				c-0.71,0.289-2.24,0.734-4.127,0.734c-4.326,0-6.168-1.602-6.168-6.073c0-4.338,1.287-6.185,5.592-6.185
				c2.195,0,3.572,0.512,4.414,1.513c0.821,1.001,1.109,2.469,1.109,4.427C765.958,53.69,765.937,54.18,765.937,54.492z
				 M762.587,52.868c0-0.601-0.045-1.09-0.134-1.58c-0.267-1.157-0.865-1.535-1.975-1.535c-1.397,0-1.908,0.445-2.108,1.446
				c-0.11,0.556-0.11,1.135-0.133,1.802h4.35V52.868z"/>
			<path d="M774.674,50.042c-1.286,0-2.44,0.156-2.817,0.245v8.833c0,0.2-0.133,0.333-0.355,0.333h-2.707
				c-0.154,0-0.354-0.133-0.354-0.333v-9.722c0-0.646,0.311-0.89,0.999-1.157c0.665-0.245,1.73-0.378,2.684-0.511
				c0.621-0.089,1.42-0.201,2.152-0.223h0.199c0.244,0,0.311,0.022,0.444,0.111c0.066,0.044,0.155,0.156,0.155,0.356v1.624
				C775.073,49.842,775.052,50.042,774.674,50.042z"/>
			<path d="M792.841,59.23c-1.065,0.312-2.441,0.512-3.816,0.512c-4.349,0-5.857-1.379-5.857-6.029c0-3.849,0.91-6.229,4.792-6.229
				c1.554,0,2.751,0.356,2.995,0.401l-0.244-1.357v-2.848c0-0.312,0.111-0.489,0.422-0.534l2.507-0.423h0.134
				c0.221,0,0.377,0.111,0.377,0.378v14.394C794.149,58.096,794.083,58.874,792.841,59.23z M790.71,49.998c0,0-0.977-0.2-1.797-0.2
				c-1.686,0-2.285,0.333-2.285,3.715c0,3.56,0.688,3.916,2.418,3.916c0.865,0,1.664-0.223,1.664-0.223V49.998z"/>
			<path d="M807.612,54.492c0,0.289-0.111,0.578-0.533,0.578h-7.166c0,0.935,0.311,1.468,0.955,1.891
				c0.555,0.333,1.309,0.489,2.396,0.489c1.354,0,2.485-0.356,3.062-0.512c0.022-0.022,0.045-0.022,0.066-0.022
				c0.156,0,0.289,0.111,0.355,0.356l0.288,1.224c0.022,0.067,0.022,0.111,0.022,0.133c0,0.2-0.111,0.312-0.244,0.378
				c-0.71,0.289-2.24,0.734-4.127,0.734c-4.326,0-6.168-1.602-6.168-6.073c0-4.338,1.287-6.185,5.592-6.185
				c2.195,0,3.572,0.512,4.414,1.513c0.821,1.001,1.109,2.469,1.109,4.427C807.634,53.69,807.612,54.18,807.612,54.492z
				 M804.263,52.868c0-0.601-0.045-1.09-0.134-1.58c-0.267-1.157-0.865-1.535-1.975-1.535c-1.397,0-1.908,0.445-2.108,1.446
				c-0.11,0.556-0.11,1.135-0.133,1.802h4.35V52.868z"/>
			<path d="M820.829,59.72c-1.93,0-3.705-0.467-4.104-0.646c-0.09-0.044-0.244-0.089-0.244-0.333v-0.133l0.287-1.424
				c0.023-0.2,0.111-0.267,0.244-0.267c0.045,0,0.066,0,0.111,0.022c0.289,0.067,1.887,0.512,3.262,0.512
				c0.998,0,1.863-0.311,1.863-1.268c0-1.09-0.688-1.157-1.842-1.379c-1.464-0.267-3.793-0.534-3.793-3.648
				c0-3.27,2.861-3.671,4.814-3.671c1.774,0,3.172,0.378,3.616,0.512c0.177,0.044,0.243,0.2,0.243,0.334v0.066l-0.266,1.469
				c-0.021,0.156-0.155,0.222-0.311,0.222c-0.021,0-0.045-0.022-0.066-0.022c-0.223-0.022-1.553-0.312-2.707-0.312
				c-0.865,0-1.908,0.178-1.908,1.157c0,1.157,1.065,1.201,2.197,1.401c1.664,0.29,3.438,0.734,3.438,3.582
				C825.666,58.808,823.536,59.72,820.829,59.72z"/>
			<path d="M836.001,59.43c-0.82,0.2-1.863,0.312-3.15,0.312c-2.573,0-5.413-0.312-5.413-3.804c0-2.848,1.819-3.226,3.438-3.471
				l3.861-0.623v-0.601c0-0.601-0.066-0.979-0.533-1.201c-0.311-0.156-0.843-0.223-1.575-0.223c-1.442,0-3.128,0.467-3.728,0.601
				c-0.044,0.022-0.11,0.044-0.154,0.044c-0.134,0-0.223-0.067-0.244-0.2l-0.334-1.535c-0.021-0.044-0.021-0.067-0.021-0.111
				c0-0.2,0.155-0.289,0.266-0.333c0.488-0.2,2.574-0.801,4.948-0.801c1.553,0,2.64,0.223,3.372,0.646
				c1.109,0.601,1.42,1.624,1.42,2.87v6.118C838.153,58.808,837.532,59.097,836.001,59.43z M834.759,53.891l-2.373,0.378
				c-0.844,0.133-1.576,0.289-1.576,1.624c0,1.557,1.242,1.691,2.13,1.691c0.821,0,1.531-0.156,1.819-0.245V53.891z"/>
			<path d="M858.628,59.453h-2.707c-0.223,0-0.377-0.133-0.377-0.333v-7.72c0-1.224-0.577-1.624-1.598-1.624
				c-1.043,0-2.264,0.267-2.264,0.267v9.077c0,0.2-0.133,0.333-0.332,0.333h-2.707c-0.222,0-0.377-0.133-0.377-0.333v-7.72
				c0-1.224-0.488-1.624-1.509-1.624c-1.065,0-2.352,0.29-2.352,0.29v9.055c0,0.2-0.134,0.333-0.354,0.333h-2.707
				c-0.223,0-0.355-0.133-0.355-0.333v-9.7c0-0.845,0.555-1.112,1.842-1.424c1.109-0.267,2.906-0.512,4.326-0.512
				c1.375,0,2.352,0.312,2.951,0.756c0.398-0.155,2.418-0.756,4.37-0.756c2.796,0,4.504,0.667,4.504,3.449v8.187
				C858.982,59.319,858.849,59.453,858.628,59.453z"/>
			<path d="M869.427,45.014c-0.022,0.2-0.066,0.289-0.244,0.289h-0.089c-0.288-0.044-0.976-0.156-1.575-0.156
				c-0.533,0-0.888,0.067-1.109,0.245c-0.223,0.201-0.311,0.49-0.311,0.957v1.424h2.817c0.2,0,0.354,0.133,0.354,0.333v1.78
				c0,0.2-0.154,0.334-0.354,0.334h-2.817v8.899c0,0.2-0.133,0.333-0.355,0.333h-2.707c-0.199,0-0.377-0.133-0.377-0.333V50.22
				h-1.708c-0.2,0-0.354-0.134-0.354-0.334v-1.78c0-0.2,0.154-0.333,0.354-0.333h1.708V46.26c0-2.358,1.221-3.537,3.795-3.537
				c1.619,0,2.64,0.289,2.973,0.378c0.199,0.044,0.244,0.2,0.244,0.333v0.067L869.427,45.014z"/>
			<path d="M876.213,59.742c-3.462,0-5.303-1.001-5.303-4.205V48.44c0-0.312,0.11-0.49,0.399-0.534l2.529-0.423h0.111
				c0.221,0,0.377,0.111,0.377,0.401v7.786c0,1.179,0.398,1.802,1.886,1.802c1.62,0,1.886-0.779,1.886-1.802v-7.23
				c0-0.312,0.111-0.467,0.399-0.534l2.529-0.4c0.044-0.022,0.066-0.022,0.11-0.022c0.223,0,0.377,0.134,0.377,0.401v7.63
				C881.515,58.496,879.874,59.742,876.213,59.742z"/>
			<path d="M894.601,59.453h-2.706c-0.222,0-0.377-0.133-0.377-0.333v-7.72c0-1.224-0.488-1.624-1.509-1.624
				c-1.043,0-2.24,0.29-2.24,0.29v9.055c0,0.2-0.134,0.333-0.355,0.333h-2.707c-0.222,0-0.355-0.133-0.355-0.333v-9.7
				c0-0.845,0.555-1.112,1.842-1.424c1.109-0.267,2.862-0.512,4.26-0.512c2.818,0,4.504,0.667,4.504,3.449v8.187
				C894.956,59.319,894.801,59.453,894.601,59.453z"/>
			<path d="M906.889,59.23c-1.065,0.312-2.44,0.512-3.816,0.512c-4.349,0-5.856-1.379-5.856-6.029c0-3.849,0.909-6.229,4.791-6.229
				c1.554,0,2.752,0.356,2.996,0.401l-0.244-1.357v-2.848c0-0.312,0.111-0.489,0.422-0.534l2.506-0.423h0.134
				c0.222,0,0.378,0.111,0.378,0.378v14.394C908.198,58.096,908.131,58.874,906.889,59.23z M904.759,49.998c0,0-0.977-0.2-1.797-0.2
				c-1.687,0-2.285,0.333-2.285,3.715c0,3.56,0.688,3.916,2.418,3.916c0.865,0,1.664-0.223,1.664-0.223V49.998z"/>
			<path d="M921.661,54.492c0,0.289-0.111,0.578-0.533,0.578h-7.166c0,0.935,0.311,1.468,0.954,1.891
				c0.555,0.333,1.31,0.489,2.396,0.489c1.354,0,2.485-0.356,3.062-0.512c0.021-0.022,0.044-0.022,0.066-0.022
				c0.155,0,0.288,0.111,0.355,0.356l0.287,1.224c0.023,0.067,0.023,0.111,0.023,0.133c0,0.2-0.111,0.312-0.244,0.378
				c-0.711,0.289-2.241,0.734-4.127,0.734c-4.326,0-6.168-1.602-6.168-6.073c0-4.338,1.287-6.185,5.591-6.185
				c2.196,0,3.572,0.512,4.415,1.513c0.82,1.001,1.109,2.469,1.109,4.427C921.683,53.69,921.661,54.18,921.661,54.492z
				 M918.311,52.868c0-0.601-0.044-1.09-0.134-1.58c-0.266-1.157-0.865-1.535-1.975-1.535c-1.396,0-1.908,0.445-2.107,1.446
				c-0.111,0.556-0.111,1.135-0.133,1.802h4.349V52.868z"/>
			<path d="M931.219,58.852c0,0.178-0.066,0.312-0.288,0.378c-0.311,0.089-1.309,0.4-2.795,0.4c-2.641,0-3.973-0.979-3.973-3.626
				v-11.19c0-0.312,0.111-0.467,0.4-0.534l2.529-0.445h0.11c0.222,0,0.378,0.111,0.378,0.378v3.56h2.95
				c0.2,0,0.354,0.133,0.354,0.333v1.78c0,0.2-0.154,0.334-0.354,0.334h-2.95v5.628c0,0.868,0.287,1.357,1.42,1.357
				c0.665,0,1.242-0.111,1.574-0.178h0.09c0.154,0,0.221,0.111,0.266,0.245l0.288,1.446V58.852z"/>
			<path d="M941.622,50.354c-1.109,0.756-2.197,1.135-2.197,2.514c0,0.556,0.022,0.712,0.089,1.201v0.067
				c0,0.245-0.177,0.333-0.466,0.333h-2.374c-0.333,0-0.311-0.111-0.377-0.333c-0.066-0.245-0.178-0.979-0.178-1.58
				c0-1.891,1.021-2.581,2.419-3.493c0.775-0.512,1.841-1.09,1.841-2.18c0-1.446-1.486-1.668-2.662-1.668
				c-1.442,0-3.15,0.445-3.616,0.534c-0.045,0.022-0.111,0.022-0.155,0.022c-0.244,0-0.312-0.178-0.333-0.312l-0.311-1.401
				c-0.022-0.067-0.045-0.156-0.045-0.245c0-0.134,0.045-0.29,0.311-0.378c0.444-0.133,2.396-0.712,4.771-0.712
				c2.44,0,5.747,0.556,5.747,4.049C944.085,48.685,942.798,49.553,941.622,50.354z M939.381,59.453h-2.729
				c-0.244,0-0.421-0.178-0.421-0.445v-2.625c0-0.267,0.177-0.445,0.421-0.445h2.729c0.222,0,0.399,0.178,0.399,0.445v2.625
				C939.78,59.275,939.603,59.453,939.381,59.453z"/>
		</g>
	</g>
</g>
<g>
</g>
<g>
</g>
<g>
</g>
<g>
</g>
<g>
</g>
<g>
</g>
</svg>
