<?xml version="1.0" encoding="utf-8"?>
<!-- Generator: Adobe Illustrator 16.0.4, SVG Export Plug-In . SVG Version: 6.00 Build 0)  -->
<!DOCTYPE svg PUBLIC "-//W3C//DTD SVG 1.1//EN" "http://www.w3.org/Graphics/SVG/1.1/DTD/svg11.dtd">
<svg version="1.1" id="Layer_1" xmlns="http://www.w3.org/2000/svg" xmlns:xlink="http://www.w3.org/1999/xlink" x="0px" y="0px"
	 width="1029.93px" height="560.551px" viewBox="0 0 1029.93 560.551" enable-background="new 0 0 1029.93 560.551"
	 xml:space="preserve">
<g>
	<path fill="#0E8CCD" d="M612.052,373.482c0,0-1.96-38.148-3.918-45.366c-1.966-7.218,25.012-8.572,28.934-3.16
		c2.437,3.358-1.229,43.758-0.243,48.044C637.805,377.286,612.052,373.482,612.052,373.482z"/>
	<path fill="#110906" d="M577.488,270.031c0,20.393,30.494,37.174,43.556,37.174c24.054,0,43.553-16.641,43.553-37.174
		c0-20.525-19.499-37.166-43.553-37.166C596.986,232.865,577.488,249.505,577.488,270.031z"/>
	<ellipse fill="#110906" cx="595.373" cy="231.021" rx="21.293" ry="18.17"/>
	<g>
		<g>
			<path fill="#C5843D" d="M608.598,271.049c-0.036,0.041-0.069,0.075-0.094,0.101C608.528,271.124,608.563,271.088,608.598,271.049
				z"/>
			<path fill="#C5843D" d="M611.912,267.522c0.062-0.066,0.112-0.119,0.147-0.155C612.029,267.402,611.979,267.454,611.912,267.522z
				"/>
			<path fill="#FFFFFF" d="M597.524,279.503c1.078,0.04,2.244,0.383,3.256,0.945c0.334,0.081,0.671,0.18,1.01,0.316
				c0.706,0.284,1.343,0.743,1.974,1.144c0.135,0.086,0.282,0.162,0.422,0.246c-0.009-0.039-0.023-0.068-0.03-0.106
				c-0.523-2.775,0.288-5.507,0.245-8.304c-0.056-3.652,0.162-6.954,1.246-10.485c2.04-6.654,10.033-7.519,16.479-8.335
				c8.134-1.028,16.734-0.747,24.822,0.46c2.771,0.413,4.424,1.761,5.472,3.562c-0.306,0.494-0.494,1.083-0.479,1.797
				c0.176,7.713,2.566,14.948,6.899,21.313c2.409,4.202,5.282,8.355,5.061,12.993c-0.329,6.868-28.032,12.11-33.495,13.906
				c-6.408,2.106,3.799,21.022-9.136,16.403c-2.109-0.752,1.607-16.993,0.216-17.42c-2.743-0.354-16.96-12.174-19.165-13.629
				c-2.89-1.594-6.266-3.373-8.042-6.027c-0.016-0.02-0.031-0.034-0.047-0.053c-0.382-0.491-0.626-0.998-0.759-1.506
				c-0.206-0.558-0.351-1.146-0.405-1.775C592.875,282.822,594.889,279.414,597.524,279.503z"/>
			<path fill="#C5843D" d="M612.061,267.368C612.136,267.286,612.132,267.294,612.061,267.368L612.061,267.368z"/>
		</g>
		<path fill="#C5843D" d="M608.504,271.149C608.425,271.234,608.431,271.229,608.504,271.149L608.504,271.149z"/>
	</g>
	<path fill="#FFFFFF" d="M618.311,279.185c0.276-0.107,0.573-0.201,0.874-0.287c0.146-0.371,0.428-0.721,0.888-1.008
		c3.704-2.294,9.844-1.062,13.077,1.437c3.998,3.089,1.086,7.237-2.56,8.953c-3.606,1.7-9.077,1.995-12.711,0.249
		C613.716,286.525,613.893,280.877,618.311,279.185z"/>
	<path fill="#FFFFFF" d="M643.312,279.148c3.023-2.963,13.601-3.052,13.674,2.292c0.066,4.908-8.188,6.529-12.011,4.305
		c-1.426-0.834-2.07-2.109-1.925-3.451C642.392,281.393,642.273,280.168,643.312,279.148z"/>
	<path fill="none" stroke="#020303" stroke-width="1.072" stroke-miterlimit="10" d="M645.771,281.939
		c0,1.873,0.972,3.385,2.169,3.385c1.199,0,2.169-1.512,2.169-3.385c0-1.869-0.97-3.384-2.169-3.384
		C646.742,278.555,645.771,280.071,645.771,281.939z"/>
	
		<ellipse fill="none" stroke="#020303" stroke-width="1.072" stroke-miterlimit="10" cx="621.049" cy="283.713" rx="2.169" ry="3.387"/>
	<g>
		<g>
			<path fill="#020303" d="M643.192,296.529c-3.925,0.033-8.338,0.794-12.106-0.573c-0.593-0.215-0.846,0.728-0.261,0.938
				c3.868,1.402,8.348,0.643,12.367,0.607C643.82,297.497,643.82,296.523,643.192,296.529L643.192,296.529z"/>
		</g>
	</g>
	<g>
		<g>
			<path fill="#110906" d="M643.658,297.258c0.707-0.804,2.516-2.533,1.895-3.798c-0.529-1.079-2.215-0.726-3.141-0.578
				c-2.248,0.358-4.439,1.097-6.641,1.666c-0.61,0.158-4.996,1.399-4.66,0.066c0.153-0.609-0.786-0.868-0.938-0.259
				c-0.798,3.168,4.942,1.367,6.198,1.043c2.096-0.541,4.167-1.197,6.301-1.578c0.479-0.084,1.561-0.336,1.991,0.033
				c0.458,0.391-1.53,2.531-1.693,2.717C642.558,297.039,643.242,297.73,643.658,297.258L643.658,297.258z"/>
		</g>
	</g>
	<g>
		<g>
			<path fill="#110906" d="M640.128,298.707c1.06,2.188-1.562,1.982-2.956,1.63c-1.722-0.437-3.74-1.551-4.236-3.378
				c-0.165-0.605-1.104-0.348-0.939,0.259c0.69,2.542,3.685,4.035,6.129,4.292c2.286,0.24,3.985-0.937,2.844-3.294
				C640.694,297.65,639.855,298.145,640.128,298.707L640.128,298.707z"/>
		</g>
	</g>
	<g>
		<g>
			<path fill="#A42423" d="M634.291,277.296c0.329,2.582,0.205,5.128-0.422,7.658c-0.759,3.063-2.585,4.635-5.55,5.414
				c-2.356,0.618-4.909,0.534-7.322,0.43c-2.237-0.097-4.854-0.222-6.27-2.222c-1.119-1.582-1.197-3.919-1.323-5.773
				c-0.178-2.604,0.624-4.245,3.2-5.051c5.744-1.799,13.036-1.419,18.647,0.582c1.424,0.508,2.031-1.753,0.62-2.256
				c-3.745-1.336-7.673-1.736-11.632-1.657c-3.434,0.069-7.711,0.298-10.701,2.147c-4.018,2.484-2.875,10.301-0.568,13.561
				c1.457,2.062,3.965,2.645,6.328,2.908c3.173,0.352,6.521,0.266,9.642-0.412c7.022-1.523,8.483-9.105,7.69-15.327
				C636.443,275.821,634.102,275.802,634.291,277.296L634.291,277.296z"/>
		</g>
	</g>
	<g>
		<g>
			<path fill="#A42423" d="M612.446,279.43c-3.941-1.043-7.886-2.083-11.817-3.167c-1.457-0.401-2.074,1.856-0.621,2.256
				c3.932,1.083,7.875,2.123,11.817,3.167C613.284,282.072,613.904,279.815,612.446,279.43L612.446,279.43z"/>
		</g>
	</g>
	<g>
		<g>
			<path fill="#A42423" d="M657.563,271.106c-3.116,0.262-6.225,0.568-9.311,1.077c-2.76,0.455-5.994,1.022-8.162,2.933
				c-1.135,1,0.526,2.647,1.653,1.654c1.94-1.71,5.303-2.03,7.744-2.433c2.672-0.44,5.377-0.666,8.074-0.892
				C659.056,273.321,659.067,270.98,657.563,271.106L657.563,271.106z"/>
		</g>
	</g>
	<g>
		<g>
			<path fill="#A42423" d="M656.736,273.104c2.527,2.589,3.522,9.857,0.843,12.647c-1.406,1.465-4.039,1.926-5.937,2.29
				c-2.4,0.459-5.095,0.523-7.384-0.416c0.271,0.271,0.545,0.544,0.816,0.816c-1.014-3.058-1.922-6.168-2.566-9.326
				c-0.28-1.371-0.103-2.934-1.518-3.662c-1.648-0.849-3.963,0.545-5.61,0.759c-1.476,0.191-1.493,2.533,0,2.34
				c1.134-0.146,2.202-0.444,3.303-0.752c1.582-0.444,1.351,0.769,1.569,1.938c0.465,2.489,1.2,4.938,1.94,7.358
				c0.413,1.35,0.498,2.397,1.882,2.965c2.206,0.905,4.955,0.688,7.25,0.379c3.888-0.521,8.13-1.778,9.472-5.82
				c1.318-3.977,0.598-10.092-2.406-13.17C657.335,270.368,655.683,272.024,656.736,273.104L656.736,273.104z"/>
		</g>
	</g>
	<g>
		<g>
			<path fill="#110906" d="M623.184,268.275c-2.183,0.593-4.424,0.938-6.57,1.664c-0.591,0.2-0.337,1.141,0.26,0.938
				c2.146-0.726,4.388-1.071,6.57-1.664C624.048,269.05,623.791,268.11,623.184,268.275L623.184,268.275z"/>
		</g>
	</g>
	<g>
		<g>
			<path fill="#110906" d="M652.791,268.841c-0.516-0.507-1.689-0.495-2.348-0.595c-1.261-0.192-2.539-0.319-3.786-0.586
				c-0.611-0.132-0.873,0.807-0.26,0.938c0.984,0.211,1.99,0.327,2.986,0.47c0.587,0.083,2.382,0.13,2.717,0.461
				C652.549,269.971,653.238,269.283,652.791,268.841L652.791,268.841z"/>
		</g>
	</g>
	<path fill="#FFFFFF" d="M628.073,387.881c0,0-5.673,1.219-11.251,2.317l-1.538,24.647c0.228,5.901,1.798,13.49,1.973,22.677
		c2.219,0.18,4.438,0.339,6.665,0.471C625.602,417.631,628.073,387.881,628.073,387.881z"/>
	<path fill="#110906" d="M623.925,438.043c-2.228-0.146-4.448-0.322-6.668-0.521c0.12,5.79-0.251,12.176-1.698,19.136
		c-2.677,12.898-0.533,47.468-0.533,47.468s21.673,14.484,26.481,8.253c4.804-6.228-21.983-8.51-21.845-11.225
		c1.137-21.976,2.099-30.241,2.804-43.426C622.504,457.081,623.118,448.801,623.925,438.043z"/>
	<path fill="#110906" d="M636.01,452.733c-1.227,9.007-2.854,22.264-4.014,42.271c-0.146,2.467,25.642,4.462,20.99,10.152
		c-4.646,5.684-25.463-7.438-25.463-7.438s-1.866-24.518,2.254-44.051c1.29-6.122,1.74-11.938,1.779-17.187
		c1.872-0.064,3.744-0.156,5.622-0.295C636.567,445.25,636.088,452.157,636.01,452.733z"/>
	<path fill="#FFFFFF" d="M629.455,391.516c5.369-1.062,10.832-2.232,10.832-2.232s-1.84,28.096-3.107,46.906
		c-1.878,0.138-3.75,0.229-5.622,0.294c0.064-8.776-1.005-15.973-1.176-20.38L629.455,391.516z"/>
	<polygon fill="#110906" points="638.831,374.348 612.544,372.805 604.713,411.393 646.104,409.848 	"/>
	<g>
		<polygon fill="#110906" points="621.421,385.828 651.471,379.086 651.104,335.271 620.321,331.566 621.207,375.232 		"/>
		<polygon fill="#110906" points="628.384,389.536 658.432,382.796 658.063,338.982 630.218,335.609 		"/>
		<path fill="#FFFFFF" d="M651.104,335.271c0,0,6.593,2.697,6.96,3.711c0.371,1.011-30.777-1.688-30.777-1.688l1.099,52.241
			l-5.86-7.077l-0.734-49.207L651.104,335.271z"/>
	</g>
	<g>
		<polygon fill="#0E8CCD" points="630.581,390.887 668.657,383.471 667.168,340.331 632.561,339.993 		"/>
		<path fill="#FFFFFF" d="M659.916,342.014c0,0,9.495,0.002,9.886,1.012c0.393,1.011-32.473,0.677-32.473,0.677l-1.142,49.206
			l-3.926-4.045l1.854-47.188L659.916,342.014z"/>
		<polygon fill="#A42423" points="635.524,394.256 668.817,389.2 669.903,343.023 636.845,343.701 		"/>
	</g>
	<path fill="#FFFFFF" d="M614.755,325.184"/>
	<path fill="#0E8CCD" d="M617.45,337.592c0,0-2.39-12.996-7.849-12.636c-9.468,0.627-2.948,17.167-3.192,17.843
		C606.162,343.477,617.45,337.139,617.45,337.592z"/>
	<path fill="#FFFFFF" d="M669.806,366.611c5.092,3.146,11.069,12.488-10.173,14.555c-20.249,1.97-28.143-0.639-28.143-0.639
		l-11.932-3.069l-0.498-6.729c0,0,3.409-2.938,3.552-1.696c0.229,1.981,3.824,2.931,9.231,4.245c4.298,1.043-2.758-1.01-3.846-4.594
		c-1.091-3.592,3.021-2.197,3.021-2.197s-1.873,4.504,6.577,4.699c4.229,0.101,3.461,5.486,3.461,5.486s20.973,0.448,27.862-4.795
		C669.722,371.271,668.908,366.061,669.806,366.611z"/>
	<g>
		<path fill="#FFFFFF" d="M639.311,278.466c-0.518,3.722,0.12,4.579,1.153,8.091c1.554-0.209,3.021-0.279,4.055-1.106
			c3.687,6.782-2.364,6.038-5.208,5.831"/>
		<g>
			<path fill="#020304" d="M638.821,278.466c-0.366,3.033,0.301,5.339,1.171,8.22c0.059,0.189,0.256,0.387,0.473,0.359
				c1.255-0.158,2.456-0.281,3.634-0.77c0.991-0.409,1.171,3.226,0.695,3.826c-1.067,1.352-4.009,0.801-5.482,0.689
				c-0.629-0.047-0.625,0.932,0,0.979c1.902,0.144,4.18,0.457,5.848-0.69c1.982-1.365,0.6-4.287-0.218-5.876
				c-0.117-0.23-0.453-0.314-0.669-0.176c-1.017,0.656-1.852,0.785-3.039,0.942c-0.746,0.099-1.028-1.905-1.17-2.375
				c-0.521-1.716-0.476-3.37-0.263-5.129C639.875,277.841,638.896,277.848,638.821,278.466L638.821,278.466z"/>
		</g>
	</g>
	<g>
		<g>
			<path fill="#FFFFFF" d="M606.312,229.292c2.199-0.843,4.109-2.649,3.92-5.179c-0.201-2.667-3.186-2.833-5.177-2.363
				c0.091,0.331,0.183,0.662,0.272,0.993c4.237-1.595,2.844-5.094-0.575-6.723c-4.224-2.013-8.34-0.121-8.915,4.59
				c0.344,0,0.688,0,1.03,0c-0.324-5.235-8.793-4.379-6.906,0.791c0.226,0.619,1.222,0.352,0.994-0.273
				c-1.393-3.813,4.652-4.196,4.882-0.517c0.043,0.677,0.95,0.648,1.03,0c0.464-3.795,3.435-5.059,6.84-3.912
				c2.62,0.883,5.022,3.667,1.348,5.051c-0.613,0.231-0.383,1.148,0.273,0.993c5.115-1.207,4.48,4.109,0.71,5.556
				C605.425,228.533,605.691,229.53,606.312,229.292L606.312,229.292z"/>
		</g>
	</g>
	<g>
		<g>
			<path fill="#FFFFFF" d="M596.389,231.124c1.323-1.449,1.94-3.976-0.464-4.774c-2.705-0.898-4.419,1.279-4.672,3.755
				c0.344,0,0.688,0,1.03,0c-0.441-3.966-3.749-5.767-7.439-4.387c-3.201,1.196-3.776,4.259-0.864,6.142
				c0.132-0.314,0.265-0.628,0.396-0.941c-2.489-0.969-6.201-0.135-5.534,3.316c0.881,4.56,5.241,4.498,8.999,4.898
				c0.66,0.07,0.652-0.96,0-1.03c-1.948-0.208-3.946-0.164-5.781-0.941c-1.479-0.626-2.164-2.117-2.23-3.628
				c-0.11-2.538,2.839-2.18,4.274-1.621c0.567,0.221,0.864-0.639,0.396-0.941c-2.646-1.711-1.125-3.729,1.272-4.483
				c2.824-0.888,5.159,0.723,5.481,3.618c0.073,0.66,0.963,0.666,1.03,0c0.466-4.565,6.153-2.752,3.376,0.291
				C595.213,230.885,595.939,231.615,596.389,231.124L596.389,231.124z"/>
		</g>
	</g>
	<g>
		<g>
			<path fill="#FFFFFF" d="M590.064,257.163c-2.142-0.998-5.065-0.944-6.475,1.29c-1.368,2.168-0.167,3.998,2.148,4.562
				c0.091-0.331,0.184-0.662,0.273-0.993c-4.431-0.818-9.479,4.504-3.547,6.559c0.319,0.111,0.651-0.178,0.651-0.497
				c0-0.109,0-0.218,0-0.328c0-0.352-0.328-0.563-0.651-0.497c-5.14,1.057-1.928,7.204,0.857,9.127
				c0.548,0.379,1.062-0.515,0.521-0.89c-2.046-1.414-5.215-6.398-1.104-7.245c-0.217-0.166-0.435-0.331-0.651-0.497
				c0,0.109,0,0.218,0,0.328c0.218-0.166,0.436-0.331,0.651-0.497c-4.664-1.616,0.064-5.114,3-4.573
				c0.645,0.119,0.927-0.834,0.273-0.993c-1.813-0.442-2.599-1.719-1.356-3.267c1.207-1.505,3.303-1.442,4.89-0.703
				C590.143,258.332,590.666,257.443,590.064,257.163L590.064,257.163z"/>
		</g>
	</g>
	<g>
		<g>
			<path fill="#FFFFFF" d="M641.245,248.477c6.018-5.022-4.753-8.427-8.586-4.658c0.287,0.167,0.574,0.334,0.861,0.501
				c1.094-5.378-7.1-9.164-10.109-4.326c0.314,0.132,0.628,0.265,0.942,0.397c0.769-3.607-3.396-6.095-6.102-3.448
				c-0.477,0.465,0.253,1.193,0.729,0.729c1.94-1.897,4.941-0.192,4.379,2.445c-0.121,0.568,0.626,0.905,0.942,0.397
				c2.378-3.824,9.088-0.708,8.225,3.531c-0.1,0.493,0.478,0.879,0.861,0.501c1.53-1.504,3.812-1.656,5.821-1.276
				c0.948,0.179,1.859,0.581,2.547,1.266c1.132,1.13-0.419,2.526-1.239,3.211C640.007,248.174,640.74,248.899,641.245,248.477
				L641.245,248.477z"/>
		</g>
	</g>
	<g>
		<g>
			<path fill="#FFFFFF" d="M618.46,248.904c0.522-1.362,0.633-2.949,0.673-4.394c0.007-0.25-0.168-0.409-0.379-0.497
				c-2.158-0.902-4.062-0.635-5.964,0.708c-0.535,0.379-0.031,1.268,0.521,0.89c4.596-3.143-3.088-6.665-6.085-4.492
				c-0.532,0.386-0.021,1.28,0.52,0.89c1.937-1.403,8.137,0.599,5.046,2.713c0.174,0.296,0.348,0.593,0.521,0.89
				c0.456-0.322,4.824-2.276,4.776-0.568c-0.032,1.194-0.19,2.468-0.621,3.588C617.228,249.252,618.224,249.518,618.46,248.904
				L618.46,248.904z"/>
		</g>
	</g>
	<path fill="#FFFFFF" d="M606.416,342.775l6.912-2.551c0,0,18.183,21.077,23.33,22.364c5.149,1.287,33.146-6.597,33.146-6.597
		l-0.162-6.114c0,0,2.611,1.57,3.701,5.31c1.126,3.862-2.735,7.724-2.735,7.724s-27.03,7.079-34.915,5.471
		S611.089,351.923,606.416,342.775z"/>
</g>
</svg>
