<?xml version="1.0" encoding="utf-8"?>
<!-- Generator: Adobe Illustrator 16.0.4, SVG Export Plug-In . SVG Version: 6.00 Build 0)  -->
<!DOCTYPE svg PUBLIC "-//W3C//DTD SVG 1.1//EN" "http://www.w3.org/Graphics/SVG/1.1/DTD/svg11.dtd">
<svg version="1.1" id="Layer_1" xmlns="http://www.w3.org/2000/svg" xmlns:xlink="http://www.w3.org/1999/xlink" x="0px" y="0px"
	 width="1029.93px" height="560.551px" viewBox="0 0 1029.93 560.551" enable-background="new 0 0 1029.93 560.551"
	 xml:space="preserve">
<g>
	<path fill="#110906" d="M474.235,381.688c-1.92,1.793-17.593,43.202-17.419,63.004c0.174,19.801,23.388,49.702,24.17,50.971
		c0.785,1.26-45.896-3.25-37.561,5.227c11.174,11.363,44.013-0.756,45.227-0.028c3.26,1.95-21.743-43.295-21.986-54.744
		c-0.176-8.312,11.109-48,13.8-47.912c4.934,0.16-6.115,35.793-6.096,47.752c0.021,11.961,40.112,59.463,40.112,59.463
		s-53.618,1.521-39.705,11.894c12.344,9.202,46.906-9.32,48.128-8.867c4.653,1.725-33.812-46.982-32.585-62.654
		c1.418-18.098,17.909-51.508,17.909-51.508S474.409,381.521,474.235,381.688z"/>
	<path fill="#0E8CCD" d="M516.379,314.475c3.795,16.51,9.373,19.256-6.564,82.455c-1.125,4.471-44.763-10.812-42.476-13.302
		c15.191-16.521,12.403-37.433,11.609-51.862c-0.653-11.935,4.494-37.861,16.045-38.185
		C506.031,293.273,513.698,302.827,516.379,314.475z"/>
	<path fill="#110906" d="M515.534,254.926c0,0-6.646,10.641,2.767,16.331c9.412,5.693,9.194,2.847,9.194,2.847
		s-6.35,9.414-13.136,7.003c-6.786-2.407-5.474-6.789-5.474-6.789s-1.97,8.978,0.657,10.074c2.628,1.094-11.604,3.502-13.354-3.285
		c-1.751-6.786,6.348-27.361,7.004-27.361C503.854,253.746,515.534,254.926,515.534,254.926"/>
	<path fill="#FFFFFF" d="M507.276,233.29c-0.021-0.585-0.04-1.172-0.089-1.757c-0.914-10.641-10.315-16.31-19.448-19.583
		c-9.048-3.244-20.943-4.404-29.138,1.543c-7.636,5.54-6.604,17.597-6.244,25.808c0.25,5.762-0.014,11.434-0.402,17.188
		c-0.107,1.588-0.21,3.265-0.257,4.974c-0.538,1.952-1.014,3.926-1.332,5.958c-0.728,4.597-0.963,8.969,0.959,13.291
		c2.211,4.959,8.588,6.388,13.414,6.351c5.018-0.041,9.764-2.135,14.512-3.478c7.105-2.01,8.148,8.955,7.483,12.216
		c-0.371,1.82-3.329,8.199-1.916,8.176c0.965-0.016,17.494-8.871,17.14-9.43c-6.804-10.699-2.621-12.802-0.992-18.881
		c2.188-3.992,4.218-7.815,5.334-12.413c1.177-4.852,2.021-9.775,2.45-14.75C509.183,243.425,508.889,238.096,507.276,233.29z"/>
	<path fill="#110906" d="M477.935,218.865c-0.656,0.219,1.515,11.785,9.833,19.666c8.319,7.88,9.076,15.571,7.868,24.692
		c-0.064,0.479,10.532-7.174,10.532-16.89c0-1.024,2.61,8.041,0.696,11.229c-1.918,3.189,19.197-0.606,10.722-23.664
		c-8.479-23.057-17.227-21.07-17.227-21.07s5.901-4.175,14,4.142c0,0-4.597-11.164-15.104-11.819
		c-21.48-1.343-23.421,5.472-23.421,5.472"/>
	<path fill="#FFFFFF" d="M506.238,247.456c0.951-0.653,2.011-1.154,3.176-1.449c0.871-0.219,1.785-0.212,2.657-0.012
		c2.342,0.054,4.272,1.625,4.483,5.129c0.171,2.812-0.953,5.266-2.785,7.102c-0.549,0.759-1.172,1.481-1.887,2.164
		c-2.063,1.971-4.786,4.253-7.83,4.084c-0.959-0.053-1.576-0.616-1.862-1.313c-0.991-0.128-1.912-0.581-2.424-1.343
		C503.075,257.711,504.696,252.593,506.238,247.456z"/>
	
		<ellipse fill="none" stroke="#1E1E1C" stroke-width="1.0379" stroke-miterlimit="10" cx="456.737" cy="249.174" rx="1.759" ry="3.417"/>
	
		<ellipse fill="none" stroke="#1E1E1C" stroke-width="1.0379" stroke-miterlimit="10" cx="476.689" cy="250.08" rx="1.758" ry="3.417"/>
	<path fill="none" stroke="#1E1E1C" stroke-width="2.0715" stroke-miterlimit="10" d="M471.947,246.001
		c0,0-3.857,10.252,1.32,11.463c5.18,1.213,15.102,4.299,16.314-0.221c1.214-4.519,3.526-9.148-2.979-10.911
		C480.103,244.569,473.379,243.246,471.947,246.001z"/>
	<path fill="none" stroke="#1E1E1C" stroke-width="2.0715" stroke-miterlimit="10" d="M464.691,246.124
		c0,0,0.721,10.426-3.218,10.79c-3.938,0.363-11.809-0.467-11.685-5.071c0.126-4.602-1.688-7.135,3.308-7.826
		C458.096,243.327,464.275,243.208,464.691,246.124z"/>
	<g>
		<path fill="#FFFFFF" d="M468.197,247.655c0.111,0.221-7.61,8.985-12.809,14.012c2.205,1.543,8.523,3.992,11.059,3.992"/>
		<g>
			<path fill="#1E1E1C" d="M467.698,247.518c-0.112,0.496-1.025,1.272-1.365,1.67c-1.093,1.282-2.219,2.535-3.349,3.785
				c-2.575,2.849-5.21,5.648-7.961,8.328c-0.25,0.243-0.168,0.633,0.105,0.813c3.132,2.071,7.542,3.904,11.319,4.062
				c0.668,0.028,0.666-1.008,0-1.036c-3.609-0.152-7.818-1.952-10.797-3.921c0.035,0.271,0.07,0.542,0.105,0.813
				c3.057-2.977,5.964-6.104,8.815-9.277c1.023-1.138,2.033-2.287,3.021-3.457c0.336-0.398,0.982-0.967,1.105-1.506
				C468.845,247.143,467.846,246.867,467.698,247.518L467.698,247.518z"/>
		</g>
	</g>
	<g>
		<g>
			<path fill="#1E1E1C" d="M510.338,249.291c-1.662,0.869-4.198,2.31-4.895,4.185c-0.838,2.26,2.304,2.181,3.668,2.087
				c-0.173-0.173-0.345-0.345-0.518-0.518c-0.061,2.049-3.203,3.055-4.188,4.666c-0.998,1.633,1.608,2.507,2.657,2.839
				c0.639,0.202,0.91-0.798,0.275-0.999c-1.018-0.321-2.716-0.698-1.587-1.889c0.519-0.547,1.17-0.986,1.757-1.453
				c1.025-0.816,2.08-1.771,2.121-3.164c0.008-0.268-0.242-0.537-0.519-0.518c-0.368,0.026-2.897,0.337-2.769-0.509
				c0.091-0.592,0.771-1.136,1.176-1.529c0.968-0.938,2.149-1.68,3.34-2.303C511.452,249.876,510.929,248.982,510.338,249.291
				L510.338,249.291z"/>
		</g>
	</g>
	<g>
		<g>
			<path fill="#1E1E1C" d="M466.041,246.897c0.275-0.694,1.44-0.594,2.014-0.502c0.949,0.151,1.869,0.57,2.496,1.307
				c0.867,1.019,2.325-0.454,1.465-1.465c-1.857-2.181-6.695-3.111-7.971,0.109C463.552,247.589,465.556,248.124,466.041,246.897
				L466.041,246.897z"/>
		</g>
	</g>
	<path fill="#110906" d="M489.516,224.982c-1.312,0-19.229-9.177-29.062,9.177c-9.941,18.557-18.793,15.077-18.793,15.077
		s8.087-1.748,7.432-14.639c-0.744-14.624,6.771-38.676,27.529-26.876C497.383,219.519,489.516,224.982,489.516,224.982z"/>
	<g>
		<g>
			<path fill="#110906" d="M487.861,241.055c-4.378-1.636-9.008-2.514-13.642-3.034c-0.651-0.073-0.646,0.945,0,1.018
				c4.541,0.509,9.082,1.395,13.372,2.998C488.205,242.267,488.47,241.283,487.861,241.055L487.861,241.055z"/>
		</g>
	</g>
	<g>
		<g>
			<path fill="#110906" d="M462.201,236.273c-4.333,0.578-8.713-0.114-13.028,0.673c-0.646,0.118-0.371,1.098,0.271,0.981
				c4.223-0.77,8.518-0.071,12.758-0.637C462.843,237.206,462.851,236.187,462.201,236.273L462.201,236.273z"/>
		</g>
	</g>
	<g>
		<rect x="463.789" y="398.312" fill="#C3E5F6" width="62.644" height="43.293"/>
		<g>
			<path fill="#0E8CCD" d="M488.705,419.148c0,2.5,2.026,4.527,4.525,4.527c2.502,0,4.531-2.027,4.531-4.527
				c0-2.502-2.029-4.53-4.531-4.53C490.732,414.618,488.705,416.646,488.705,419.148z"/>
			<g>
				<path fill="#0E8CCD" d="M496.113,411.673c-1.735,0-2.094,1.076-3.054,2.095c-1.018-2.095-3.352-4.068-5.747-4.248
					c0.479,1.256,0.778,2.571,2.037,3.471c1.137,0.777,2.513,1.02,3.831,1.02"/>
			</g>
		</g>
	</g>
	<path fill="#FFFFFF" d="M503.814,322.204l12.389-0.093c0,0-1.307,38.093-0.185,48.177c1.148,10.353-2.909,48.086-2.909,48.086
		s6.59,19.092,6.59,22.691c0,3.599-21.571,4.899-21.571,4.899l-3.269-4.25h6.208c3.602-3.596,2.352-12.861,2.352-12.861
		s-5.649,5.371-6.854,5.835c-1.204,0.465-4.021-1.107-2.687-1.854c3.981-2.223,4.814-9.908,4.814-9.908s4.215-3.666,5.557-5.924
		c0.946-1.598,1.863-27.643,2.394-46.908C507.021,356.257,503.814,322.204,503.814,322.204z"/>
	<g>
		<g>
			<path fill="#110906" d="M460.403,270.28c4.354,2.144,10.344,1.393,14.312-1.283c0.541-0.365,0.031-1.247-0.515-0.879
				c-3.647,2.462-9.251,3.27-13.282,1.283C460.33,269.112,459.815,269.99,460.403,270.28L460.403,270.28z"/>
		</g>
	</g>
	<g>
		<g>
			<path fill="#110906" d="M473.376,267.53c0.604,0.949,0.885,2.029,1.232,3.087c0.204,0.62,1.188,0.354,0.981-0.271
				c-0.375-1.139-0.688-2.308-1.335-3.33C473.904,266.464,473.023,266.974,473.376,267.53L473.376,267.53z"/>
		</g>
	</g>
	<path fill="none" stroke="#1E1E1C" stroke-width="2.0715" stroke-miterlimit="10" d="M490.211,249.438
		c1.077,0,11.495-2.694,11.495-2.694"/>
</g>
</svg>
