<?xml version="1.0" encoding="utf-8"?>
<!-- Generator: Adobe Illustrator 16.0.4, SVG Export Plug-In . SVG Version: 6.00 Build 0)  -->
<!DOCTYPE svg PUBLIC "-//W3C//DTD SVG 1.1//EN" "http://www.w3.org/Graphics/SVG/1.1/DTD/svg11.dtd">
<svg version="1.1" id="Layer_1" xmlns="http://www.w3.org/2000/svg" xmlns:xlink="http://www.w3.org/1999/xlink" x="0px" y="0px"
	 width="1029.93px" height="560.551px" viewBox="0 0 1029.93 560.551" enable-background="new 0 0 1029.93 560.551"
	 xml:space="preserve">
<g>
	<path fill="#FFFFFF" d="M789.68,363.302c-0.918-3.337-5.596-3.876-8.398-4.358c-5.484-0.943-10.216-1.771-15.121-4.623
		c-4.551-2.646-8.524-6.619-12.261-10.291c-4.397-4.321-7.007-8.453-8.368-14.44c-0.349-1.532-1.857-1.788-2.943-1.221
		c-2.279-1.228-5.337-0.892-8.415-0.632c-3.89,0.328-9.043-1.276-12.449,1.195c-0.99,0.141-1.984,0.979-1.879,2.063
		c1.033,10.588,6.186,19.104,14.593,25.534c5.01,3.83,10.299,6.869,16.278,8.912c3.187,1.09,6.518,1.715,9.842,2.205
		c1.639,0.242,3.289,0.264,4.939,0.254c-1.503,1.041-2.775,2.355-4.656,2.807c-1.587,0.38-1.957,2.389-0.924,3.499
		c4.427,4.759,11.853,8.438,18.409,6.752c3.375-0.869,5.938-4.369,7.699-7.133C787.567,371.402,790.509,366.316,789.68,363.302z"/>
	<path fill="#DFF1FB" d="M778.57,272.291c1.565-0.358-38.014,8.438-55.135,29.214c-8.178,9.923-8.991,20.306-8.05,27.679
		c-0.544,0.055-1.048,0.051-1.514-0.002c-0.187-0.054-0.374-0.093-0.561-0.093c-0.364,0-0.679,0.085-0.953,0.224
		c-1.087,0.467-1.627,1.744-1.297,2.709c-0.312,0.895,0.024,2.016,0.938,2.461c0.098,0.049,0.188,0.105,0.283,0.154
		c-0.478,0.647-0.669,1.514-0.134,2.204c0.497,0.64,1.06,1.188,1.69,1.613c-0.682,1.292-0.102,3.147,1.771,2.948
		c7.928-0.842,15.151-4.51,22.884-6.236c5.81-1.297,12.188-2.762,10.24-9.65c-0.08-0.283-0.246-0.562-0.464-0.807
		c0.84-1.279-0.171-3.148-1.834-3.143c-0.138,0-0.273,0.017-0.41,0.02c2.723-4.355,7.999-9.879,18.124-13.441
		C783.016,301.505,778.414,272.076,778.57,272.291z M735.076,331.846l0.48-0.212c1.214-0.204,2.426-0.427,3.63-0.704
		c1.655-0.382,3.116-1.274,4.654-1.96C742.104,330.555,738.061,331.303,735.076,331.846z"/>
	<path fill="#DFF1FB" d="M819.68,387.628c-3.771,6.881,34.229-78.153,22.324-93.116c-8.612-10.824-8.058-14.626-13.779-19.161
		c-2.021-1.602,3.764-4.087,1.389-5.048c-5.364-2.17-24.929-4.891-35.21-4.417c-12.064,0.554-22.337,5.3-30.162,8.077
		c-2.008,0.713-1.543,11.377-2.901,12.873c-6.049,6.65-5.905,9.68-4.583,23.79c2.868,30.595,14.696,78.024,14.696,78.024
		S821.412,388.146,819.68,387.628"/>
	<path fill="#FFFFFF" d="M818.803,378.062c1.836,2.881,4.508,6.528,8.024,7.434c6.836,1.759,14.574-2.078,19.188-7.037
		c1.077-1.156,0.692-3.248-0.962-3.646c-1.961-0.471-3.285-1.84-4.853-2.926c1.722,0.01,3.438-0.012,5.146-0.264
		c3.464-0.512,6.938-1.162,10.26-2.299c6.231-2.131,11.744-5.295,16.966-9.288c8.766-6.702,14.133-15.579,15.21-26.614
		c0.109-1.132-0.928-2.007-1.959-2.152c-3.551-2.576-6.675-2.758-10.727-3.099c-3.209-0.272-13.725,2.187-14.088,3.783
		c-1.419,6.241-4.14,10.547-8.724,15.052c-3.894,3.826-8.035,7.967-12.778,10.725c-5.113,2.975-10.043,3.836-15.761,4.819
		C820.827,363.055,817.197,375.538,818.803,378.062z"/>
	<path fill="#FFFFFF" d="M818.603,271.822c0.925,0.749-27.227,13.611-32.419,36.419c-0.134,0.597-16.445-29.609-16.445-29.609
		s6.349-13.488,3.967-15.473c-2.38-1.984-9.521-1.983-12.694-6.347s7.142-48.401,12.299-58.319s31.738-4.365,35.309,0
		C812.188,202.857,810.271,265.077,818.603,271.822z"/>
	<path fill="#1E1E1C" d="M760.402,186.146c2.236-1.878,5.224-1.992,8.109-1.214c0.098-1.546,0.959-2.939,3.067-3.87
		c3.648-1.613,7.634-0.71,11.041,1.305c3.759-3.561,18.586,6.777,23.69,11.727c4.826,4.681,7.862,8.446,6.343,16.399
		c-0.43-0.384-8.508-2.166-8.664-2.629c0.154,1.547-1.397-7.997-1.547-8.045c-3.49-1.139-13.224-1.835-16.837-1.722
		c-6.911,0.216-14.005,0.987-20.506-1.793C761.543,194.781,756.073,189.781,760.402,186.146z"/>
	<ellipse fill="#FFFFFF" cx="814.965" cy="222.297" rx="7.538" ry="7.736"/>
	<g>
		<g>
			<path fill="#1E1E1C" d="M786.947,222.562c0.048,1.462,0.425,4.666,2.5,4.666c2.076,0,2.453-3.203,2.501-4.666
				c0.047-1.462-0.485-4.667-2.501-4.667C787.371,217.896,786.994,221.1,786.947,222.562c-0.021,0.631,0.958,0.629,0.979,0
				c0.038-1.19,0.161-2.832,1.233-3.606c1.326-0.958,1.796,3.17,1.811,3.606c0.038,1.161-0.206,2.864-1.234,3.606
				c-1.326,0.957-1.796-3.169-1.81-3.606C787.905,221.934,786.927,221.932,786.947,222.562z"/>
		</g>
	</g>
	<g>
		<g>
			<path fill="#1E1E1C" d="M769.929,222.1c0.048,1.463,0.425,4.667,2.501,4.667s2.452-3.204,2.5-4.667
				c0.047-1.461-0.485-4.666-2.5-4.666C770.353,217.434,769.977,220.636,769.929,222.1c-0.021,0.631,0.958,0.629,0.979,0
				c0.038-1.19,0.16-2.832,1.234-3.606c1.327-0.957,1.796,3.169,1.81,3.606c0.038,1.16-0.206,2.864-1.232,3.606
				c-1.327,0.958-1.797-3.169-1.812-3.606C770.887,221.471,769.907,221.469,769.929,222.1z"/>
		</g>
	</g>
	<g>
		<g>
			<path fill="#1E1E1C" d="M780.255,221.015c0.032,3.167-1.001,6.165-1.395,9.283c0.267-0.152,0.531-0.305,0.796-0.457
				c-2.812-1.494-9.021-0.956-7.688,3.553c1.229,4.15,8.603,5.882,11.354,2.538c0.431-0.522-0.313-1.275-0.748-0.748
				c-2.253,2.737-6.682,1.241-8.847-0.873c-1.618-1.579-0.868-3.419,1.016-4.046c1.424-0.474,3.082-0.198,4.38,0.49
				c0.385,0.205,0.745-0.061,0.796-0.457c0.395-3.13,1.427-6.103,1.394-9.283C781.307,220.333,780.247,220.332,780.255,221.015
				L780.255,221.015z"/>
		</g>
	</g>
	<g>
		<g>
			<path fill="#1E1E1C" d="M817.59,218.493c-1.533-0.397-3.56-0.709-4.887,0.377c-1.298,1.062,0.626,2.658,1.387,3.22
				c0.344,0.255,2.6,0.713,1.492,1.414c-0.513,0.324-1.224,0.396-1.777,0.657c-1.283,0.605-0.608,1.809,0.178,2.488
				c0.514,0.444,1.266-0.301,0.748-0.748c-0.661-0.572-0.742-0.727,0.087-1.018c0.38-0.133,0.78-0.22,1.146-0.394
				c0.731-0.346,1.05-1.22,0.943-1.99c-0.116-0.843-1.737-1.026-2.284-1.324c-0.173-0.095-1.547-1.088-1.171-1.557
				c0.228-0.283,0.877-0.355,1.188-0.393c0.894-0.109,1.808,0.065,2.668,0.288C817.97,219.685,818.25,218.664,817.59,218.493
				L817.59,218.493z"/>
		</g>
	</g>
	<g>
		<g>
			<path fill="#1E1E1C" d="M794.385,214.161c-3.682-0.651-7.414-1.351-11.149-1.578c-0.682-0.042-0.678,1.017,0,1.059
				c3.643,0.221,7.278,0.905,10.868,1.54C794.771,215.299,795.056,214.279,794.385,214.161L794.385,214.161z"/>
		</g>
	</g>
	<g>
		<g>
			<path fill="#1E1E1C" d="M775.831,212.595c-3.081,0.052-6.064,0.741-9.114,1.095c-0.67,0.078-0.678,1.137,0,1.059
				c3.046-0.354,6.038-1.044,9.114-1.095C776.514,213.642,776.515,212.583,775.831,212.595L775.831,212.595z"/>
		</g>
	</g>
	<path fill="#1E1E1C" d="M812.654,211.267l-8.354-1.547l0.772,5.725c0,0,8.045-1.855,7.271-1.547
		C811.571,214.208,812.654,211.267,812.654,211.267z"/>
	<g>
		<g>
			<path fill="#1E1E1C" d="M790.281,240.599c-3.384,1.883-7.146,1.96-10.924,1.962c-0.683,0-0.683,1.059,0,1.059
				c3.974-0.003,7.904-0.129,11.457-2.107C791.41,241.181,790.878,240.267,790.281,240.599L790.281,240.599z"/>
		</g>
	</g>
	<g>
		<g>
			<path fill="#1E1E1C" d="M784.62,312.152c-2.846-8.239-7.659-14.789-12.672-21.782c-1.146-1.599-2.16-3.284-3.302-4.886
				c-0.694-0.976-1.569-2.315-2.751-2.748c-2.502-0.918-4.603,2.824-5.831,4.359c0.278,0.115,0.557,0.23,0.835,0.346
				c0.105-3.832,1.509-7.699,2.504-11.373c0.48-1.775,0.966-2.083,2.691-2.88c2.105-0.972,4.274-1.8,6.362-2.815
				c0.565-0.276,0.069-1.119-0.494-0.845c-2.258,1.099-4.603,2.003-6.881,3.055c-1.206,0.558-2.053,0.902-2.354,2.192
				c-0.976,4.167-2.688,8.346-2.808,12.666c-0.012,0.397,0.562,0.688,0.835,0.347c0.948-1.187,1.875-2.397,2.951-3.474
				c1.322-1.321,2.358-0.452,3.366,0.716c2.149,2.491,3.764,5.516,5.734,8.159c4.495,6.025,8.394,12.058,10.868,19.223
				C783.883,313.004,784.826,312.75,784.62,312.152L784.62,312.152z"/>
		</g>
	</g>
	<g>
		<g>
			<path fill="#1E1E1C" d="M786.061,308.631c-1.076-4.6-3.219-8.837-5.506-12.939c-3.276-5.875-6.938-11.537-10.396-17.307
				c-0.322-0.541-1.169-0.049-0.844,0.493c3.336,5.568,6.822,11.049,10.043,16.687c2.403,4.205,4.649,8.584,5.758,13.326
				C785.261,309.504,786.203,309.244,786.061,308.631L786.061,308.631z"/>
		</g>
	</g>
	<path fill="none" stroke="#1E1E1C" stroke-width="0.9778" stroke-miterlimit="10" d="M818.603,271.822
		c-1.561-0.458-29.083,16.275-32.321,38.843c-1.533,10.688-2.25,22.16-2.25,22.16"/>
	<path fill="#DFF1FB" d="M839.732,310.706c10.299,3.769,15.667,9.61,18.437,14.216c-0.142-0.003-0.276-0.018-0.416-0.02
		c-1.692-0.006-2.723,1.971-1.867,3.322c-0.222,0.258-0.392,0.553-0.473,0.853c-1.979,7.288,4.508,8.835,10.415,10.207
		c7.866,1.825,15.216,5.704,23.278,6.595c1.904,0.212,2.495-1.752,1.803-3.118c0.643-0.446,1.216-1.03,1.721-1.704
		c0.545-0.731,0.35-1.646-0.136-2.332c0.097-0.052,0.188-0.111,0.287-0.162c0.929-0.473,1.272-1.658,0.955-2.604
		c0.335-1.021-0.215-2.371-1.319-2.865c-0.277-0.146-0.599-0.235-0.97-0.235c-0.188,0-0.381,0.043-0.571,0.098
		c-0.474,0.059-0.984,0.062-1.536,0.003c0.956-7.798,0.13-18.776-8.188-29.271c-17.416-21.974-57.677-31.273-56.084-30.896
		C825.225,272.564,820.545,303.688,839.732,310.706z M860.395,332.732c1.562,0.724,3.049,1.666,4.732,2.069
		c1.226,0.296,2.458,0.529,3.691,0.746l0.488,0.226C866.275,335.197,862.16,334.406,860.395,332.732z"/>
	<g>
		<g>
			<path fill="#1E1E1C" d="M817.319,267.354c4.395,1.219,8.835,1.942,13.068,3.7c-0.099-0.239-0.195-0.479-0.292-0.718
				c-3.253,4.395-3.458,11.219-1.899,16.287c0.272-0.159,0.545-0.316,0.817-0.477c-3.062-3-6.502-5.584-8.435-9.521
				c-0.091-0.187-0.356-0.292-0.552-0.225c-5.608,1.917-10.295,7.451-14.181,11.656c-4.305,4.656-8.736,9.702-11.852,15.264
				c-0.309,0.55,0.536,1.043,0.845,0.492c3.778-6.748,9.353-12.803,14.759-18.271c2.683-2.713,5.55-5.427,8.859-7.362
				c0.571-0.334,1.323-0.965,1.621-0.357c0.58,1.182,1.426,2.231,2.269,3.233c1.778,2.119,4.002,3.851,5.974,5.782
				c0.342,0.335,0.964,0.002,0.817-0.476c-1.489-4.842-1.306-11.339,1.8-15.534c0.208-0.281-0.031-0.61-0.292-0.718
				c-4.233-1.758-8.675-2.482-13.068-3.7C816.971,266.243,816.713,267.187,817.319,267.354L817.319,267.354z"/>
		</g>
	</g>
	<g>
		<g>
			<path fill="#1E1E1C" d="M840.584,371.46c-1.228,1.042-2.331,1.858-3.929,2.214c-1.155,0.256-2.292,0.307-3.373,0.861
				c-0.568,0.292-3.562,1.833-2.705,2.967c0.596,0.789,3.134,3.465,4.298,3.116c1.774-0.534,3.338-2.733,4.428-4.125
				c0.204-0.261,0.186-0.74-0.216-0.817c-1.146-0.22-2.122-0.162-3.224,0.24c-0.587,0.215-0.334,1.161,0.26,0.943
				c0.929-0.34,1.721-0.43,2.703-0.24c-0.071-0.271-0.144-0.545-0.216-0.817c-0.947,1.21-1.979,2.3-3.139,3.31
				c-1.067,0.932-2.564-0.727-3.242-1.28c-1.592-1.304,1.175-2.296,2.025-2.649c1.289-0.535,2.762-0.363,4.025-0.961
				c1.122-0.531,2.054-1.27,2.993-2.068C841.757,371.742,841.062,371.055,840.584,371.46L840.584,371.46z"/>
		</g>
	</g>
	<path fill="#110906" d="M819.207,383.341c0,0-32.778,7.33-46.095,0l15.92,102.14c0,0-38.203,1.044-30.717,7.811
		c7.487,6.766,35.622-3.747,35.622-3.747s-7.64-80.267,0-80.267c14.146,0,5.173,80.065,5.173,80.065s37.618,13.532,38.803,6.202
		s-32.271-10.713-32.271-10.713L819.207,383.341z"/>
	<ellipse fill="#FEEDA4" cx="845.848" cy="362.107" rx="8.771" ry="5.209"/>
	
		<ellipse fill="#FFFFFF" stroke="#FEEDA4" stroke-width="0.9778" stroke-miterlimit="10" cx="845.848" cy="360.306" rx="8.771" ry="5.208"/>
	<polygon fill="#FEEDA4" points="853.587,364.325 857.4,370.616 850.562,372.784 849.404,367.136 	"/>
	<polygon fill="#FEEDA4" points="849.404,359.919 851.308,357.752 848.464,357.752 844.062,360.307 	"/>
	<polygon fill="#FEEDA4" points="844.74,357.752 843.318,356.398 841.897,357.752 843.725,360.115 	"/>
</g>
</svg>
