<?xml version="1.0" encoding="utf-8"?>
<!-- Generator: Adobe Illustrator 16.0.4, SVG Export Plug-In . SVG Version: 6.00 Build 0)  -->
<!DOCTYPE svg PUBLIC "-//W3C//DTD SVG 1.1//EN" "http://www.w3.org/Graphics/SVG/1.1/DTD/svg11.dtd">
<svg version="1.1" id="Layer_1" xmlns="http://www.w3.org/2000/svg" xmlns:xlink="http://www.w3.org/1999/xlink" x="0px" y="0px"
	 width="1029.93px" height="560.551px" viewBox="0 0 1029.93 560.551" enable-background="new 0 0 1029.93 560.551"
	 xml:space="preserve">
<g>
	<path fill="#FEEDA4" d="M256.922,251.101c-35.688,81.142,55.193,157.54,114.062,118.299c10.787-7.189,25.688-25.646,24.609-42.241
		c-0.842-12.854-23.136-33.169-32.231-19.66c-6.663,9.901-1.9,32.862,10.846,29.45c12.365-3.311,0.171-13.82-2.257-9.537
		c-2.894,5.096-5.596-1.148-1.943-6.959c3.773-6,9.839-5.921,14.055-0.83c15.49,18.701-11.074,27.1-22.364,28.516
		c-17.712,2.225-25.891-20.934-10.223-32.498c12.854-9.485,17.715-15.938,20.669-33.92c3.523-21.444,6.451-36.144-8.19-53.242
		c-6.094-7.112-13.893-12.392-22.272-14.183c-4.123-0.882-9.784,2.561-12.917,0.54c-2.06-6.98-39.505,5.59-44.802,8.348
		C272.893,228.945,262.687,237.992,256.922,251.101C246.594,274.589,262.74,237.87,256.922,251.101z M373.816,309.84
		c3.618,1.156-6.186,4.635-8.125,7.586C365.956,311.128,367.7,307.881,373.816,309.84C374.4,310.027,371.976,309.248,373.816,309.84
		z"/>
	<path fill="#1E1E1C" d="M318.293,375.598c-0.892-12.641-1.511-32.771-1.511-41.5c0-0.74,9.797-0.309,9.772-0.492
		c-1.469-11.705-8.446-20.252-22.411-21.426c-23.07-1.939-21.196,21.578-21.196,21.578c2.052-1.244,8.729,0.997,8.905,1.146
		c6.209,5.371,2.389,36.976,2.389,36.976"/>
	<path fill="#FFFFFF" d="M306.157,513.801c0,0-16.971-30.048-15.092-53.244c0.857-10.562,6.099-14.802,6.099-14.802
		s-20.789-45.01-1.847-64.543c19.389-19.991,9.193,0.448,9.193,0.448s1.359,62.511,1.13,63.69
		C304.451,451.369,306.157,513.801,306.157,513.801z"/>
	<path fill="#FFFFFF" d="M309.072,511.756c0,0,14.265-26.021,12.382-49.218c-0.854-10.562-4.309-16.984-4.309-16.984
		s16.038-43.171,1.366-66.842c-14.669-23.674-10.156,0.216-10.156,0.216s-1.131,66.053-0.897,67.231
		C308.647,452.178,309.072,511.756,309.072,511.756z"/>
	<path fill="#0DA2DD" d="M331.107,399.604c1.105,5.996-1.057-13.334-6.438-22.291c-5.602-9.328-7.887-8.926-7.887-8.926
		l-21.808,0.403c-4.437,4.896-14.282,20.271-12.335,30.127c1.588,8.026,25.814,13.205,25.814,13.205L331.107,399.604z"/>
	<path fill="#0E8CCD" d="M306.781,410.852l-25.492-12.617c0,0-1.086,6.373-2.273,6.373c-2.188,0-0.69,0.17,27.355,9.631
		L306.781,410.852z"/>
	<path fill="#0E8CCD" d="M307.092,411.175l24.354-12.116c0,0,1.455,7.408,2.646,7.408c1.188,0-27.048,8.186-27.048,8.186
		L307.092,411.175z"/>
	<polygon fill="#82CFF5" points="277.4,407.646 329.735,407.646 332.572,376.382 274.316,376.104 	"/>
	<g>
		<path fill="#FFFFFF" d="M286.525,274.463c0.001-0.002,0.001-0.002,0.001-0.003c1.28-4.189,3.987-3.001,6.469-0.94
			c-0.488-3.427-1.444-7.016-1.515-10.112c-0.024-1.174-0.069-2.549-0.082-3.988c7.616-0.553,15.217-2.06,22.416-3.985
			c9.438-2.522,16.583-7.089,22.912-13.689c3.613,2.171,6.642,5.502,9.397,9.853c0.71,1.125,7.921,15.836,9.75,20.292
			c3.899,9.476-15.344,23.144-22.29,31.639c-1.741,2.129-10.712,0.293-18.815-1.757c-1.416-0.358-4.6-2.264-6.167-2.485
			c-0.863,3.093-0.51,16.302-0.411,19.94c0.074,2.726-3.188,3.774-4.962,2.209c-0.499-0.235-0.941-0.666-1.243-1.363
			c-0.305-0.705-0.595-1.501-0.872-2.333c-2.134-4.787-1.211-16.813-4.959-27.792c-4.985-3.955-11.865-8.135-9.63-15.482
			C286.007,276.168,285.101,279.146,286.525,274.463z"/>
	</g>
	<path fill="none" stroke="#020303" stroke-width="0.9485" stroke-miterlimit="10" d="M343.844,266.078
		c0,1.576,0.946,2.854,2.111,2.854c1.172,0,2.116-1.278,2.116-2.854c0-1.577-0.944-2.852-2.116-2.852
		C344.79,263.226,343.844,264.501,343.844,266.078z"/>
	<g>
		<g>
			<path fill="#020303" d="M330.359,263.6c1.378,2.832-0.099,7.287,3.361,8.88c1.353,0.624,5.199-1.425,5.467,0.697
				c0.269,2.123-4.069,3.297-5.581,3.37c-0.806,0.039-0.81,1.294,0,1.255c1.82-0.088,3.907-0.778,5.313-1.961
				c1.186-0.997,2.392-3.221,0.78-4.525c-2.134-1.728-4.788,1.569-6.57-0.865c-1.453-1.983-0.595-5.236-1.688-7.484
				C331.089,262.239,330.007,262.875,330.359,263.6L330.359,263.6z"/>
		</g>
	</g>
	<g>
		<g>
			<path fill="#020303" d="M326.187,282.777c3.33,0.779,8.693,3.011,11.716,0.438c0.202-0.172,0.247-0.543,0.099-0.761
				c-2.231-3.268-7.371-1.853-10.479-0.888c-0.771,0.24-0.441,1.451,0.334,1.211c2.438-0.758,7.276-2.304,9.062,0.311
				c0.032-0.253,0.064-0.507,0.098-0.761c-2.487,2.118-7.728-0.113-10.495-0.761C325.733,281.383,325.398,282.593,326.187,282.777
				L326.187,282.777z"/>
		</g>
	</g>
	<g>
		<g>
			<path fill="#020303" d="M334.791,283.674c-0.649,0.664-1.31,1.18-2.274,1.178c-1.001,0-1.857-0.943-2.462-1.625
				c-0.539-0.605-1.423,0.285-0.889,0.889c0.8,0.9,1.803,1.81,3.053,1.958c1.4,0.166,2.512-0.543,3.46-1.511
				C336.246,283.982,335.36,283.095,334.791,283.674L334.791,283.674z"/>
		</g>
	</g>
	<g>
		<path fill="#1E1E1C" d="M324.385,267.051c-2.742-5.775-13.312-5.1-16.663-1.705c-1.524-0.679-3.964-2.519-4.729-3.876
			c3.966,1.527,4.093,1.117,5.253,0.737c6.35-2.076,11.697-3.619,15.995,4.365"/>
		<g>
			<path fill="#020303" d="M324.781,266.819c-1.903-3.615-6.068-4.637-9.88-4.51c-1.971,0.066-3.926,0.563-5.695,1.422
				c-0.308,0.149-1.423,1.135-1.734,0.981c-1.565-0.769-3.118-2.014-4.081-3.474c-0.173,0.225-0.346,0.45-0.52,0.675
				c1.279,0.48,2.911,1.304,4.34,1.077c1.401-0.223,2.785-0.875,4.15-1.265c2.055-0.587,4.177-0.945,6.296-0.526
				c2.93,0.578,4.815,3.173,6.188,5.604c0.291,0.517,1.086,0.053,0.794-0.464c-2.112-3.745-4.989-6.391-9.473-6.242
				c-2.192,0.073-4.361,0.805-6.431,1.467c-2.146,0.687-3.469,0.27-5.62-0.538c-0.377-0.142-0.731,0.353-0.519,0.675
				c1.164,1.767,3.012,3.118,4.893,4.041c0.192,0.094,0.397,0.078,0.558-0.072c4.011-3.761,13.21-3.573,15.94,1.611
				C324.264,267.808,325.058,267.343,324.781,266.819L324.781,266.819z"/>
		</g>
	</g>
	<g>
		<path fill="#1E1E1C" d="M336.384,266.72c2.101-4.424,10.201-3.906,12.769-1.305c1.166-0.522,3.033-1.931,3.619-2.97
			c-3.037,1.168-3.133,0.854-4.021,0.565c-4.866-1.59-8.966-2.774-12.256,3.343"/>
		<g>
			<path fill="#020303" d="M336.688,266.897c2.157-3.967,9.081-4.102,12.215-1.234c0.123,0.113,0.279,0.129,0.427,0.055
				c1.453-0.732,2.821-1.742,3.746-3.096c0.168-0.247-0.111-0.624-0.397-0.518c-1.712,0.637-2.74,0.921-4.438,0.37
				c-1.52-0.494-3.045-0.909-4.638-1.07c-3.467-0.351-5.812,1.972-7.411,4.771c-0.226,0.395,0.383,0.75,0.608,0.355
				c2.257-3.951,5.191-5.032,9.487-3.911c2.871,0.75,3.69,1.238,6.578,0.164c-0.133-0.173-0.265-0.345-0.397-0.518
				c-0.769,1.125-1.871,1.919-3.026,2.608c-0.385,0.229-1.21-0.579-1.516-0.744c-1.281-0.691-2.783-0.927-4.214-1.041
				c-2.935-0.231-6.162,0.749-7.632,3.451C335.863,266.941,336.471,267.297,336.688,266.897L336.688,266.897z"/>
		</g>
	</g>
	<path fill="#F6AD9E" d="M304.393,277.959c0,2.098,2.484,3.805,5.552,3.805c3.068,0,5.556-1.707,5.556-3.805
		c0-2.102-2.486-3.805-5.556-3.805C306.877,274.154,304.393,275.857,304.393,277.959z"/>
	<path fill="#F6AD9E" d="M343.88,274.412c0,2.1,2.482,3.805,5.55,3.805c3.066,0,5.555-1.705,5.555-3.805
		c0-2.102-2.487-3.807-5.555-3.807S343.88,272.31,343.88,274.412z"/>
	<path fill="none" stroke="#020303" stroke-width="0.9485" stroke-miterlimit="10" d="M314.91,265.85
		c0,1.878,1.129,3.402,2.523,3.402c1.393,0,2.519-1.524,2.519-3.402c0-1.883-1.126-3.405-2.519-3.405
		C316.039,262.445,314.91,263.967,314.91,265.85z"/>
	<path fill="#1E1E1C" d="M312.643,504.749c0.195,0.5,17.621,13.495,17.621,13.495l-23.283-4.939l-0.943-8.556H312.643z"/>
	<path fill="#1E1E1C" d="M300.726,506.887c-0.189,0.445-15.091,14.795-15.091,14.795l21.142-8.244l0.082-7.887L300.726,506.887z"/>
	<path fill="#FFFFFF" d="M326.973,333.609c0.168,0.091-3.762,24.175-3.762,26.646c0,7.801,2.007,18.365-6.347,30.02
		c-2.896,4.039-4.951,6.51-6.396,8.013c-2.726,2.831-3.295,2.228-3.295,2.228s8.018-27.897,9.02-44.141
		c1.004-16.245,0.955-22.354,0.955-22.354S321.997,330.999,326.973,333.609z"/>
	<path fill="#FFFFFF" d="M283.551,332.63c0.795,4.116,3.823,23.479,3.823,25.952c0,7.802-2.003,18.363,6.352,30.02
		c8.353,11.651,9.69,10.239,9.69,10.239s-8.021-27.897-9.023-44.144c-1.002-16.243-0.826-17.951-1.062-19.381
		C292.934,332.945,283.551,332.63,283.551,332.63z"/>
	<path fill="#FFFFFF" d="M311.423,397.154c0.251,0.65,4.877,16.012,1.8,17.351c-3.077,1.338-11.817-0.036-11.557-0.545
		c0.264-0.508,4.936-7.226,3.682-8.294c-1.251-1.066-3.452,3.997-5.707,3.09c-2.253-0.908-1.68-1.512-1.68-1.512
		s1.827,0.183,2.962-2.209c1.47-3.109,0.44-6.124,5.101-7.178C310.68,396.809,311.423,397.154,311.423,397.154z"/>
	<path fill="#FFFFFF" d="M299.566,396.466c-0.252,0.653-4.878,16.015-1.799,17.353c3.078,1.336,11.815-0.033,11.556-0.547
		c-0.264-0.51-4.935-7.226-3.683-8.293c1.252-1.066,3.456,3.996,5.708,3.09c2.254-0.906,1.683-1.51,1.683-1.51
		s-1.83,0.184-2.966-2.213c-1.472-3.107-0.441-6.123-5.101-7.174C300.308,396.119,299.566,396.466,299.566,396.466z"/>
	<g>
		<g>
			<path fill="#FFFFFF" d="M324.699,229.509c-1.964,9.002-11.895,13.587-19.771,16.283c-8.054,2.755-17.003,4.478-25.543,4.154
				c-0.705-0.027-0.703,1.066,0,1.093c9.034,0.342,18.457-1.593,26.938-4.577c7.914-2.784,17.475-7.693,19.432-16.662
				C325.903,229.113,324.85,228.821,324.699,229.509L324.699,229.509z"/>
		</g>
	</g>
	<g>
		<g>
			<path fill="#FFFFFF" d="M311.731,230.42c-3.611,6.675-13.215,8.07-19.992,9.126c-0.693,0.108-0.397,1.161,0.291,1.054
				c7.072-1.102,16.872-2.655,20.646-9.628C313.01,230.352,312.067,229.8,311.731,230.42L311.731,230.42z"/>
		</g>
	</g>
	<g>
		<g>
			<path fill="#FFFFFF" d="M343.185,234.815c6.911,4.403,11.432,11.422,16.559,17.627c0.449,0.544,1.219-0.234,0.772-0.772
				c-5.195-6.288-9.777-13.337-16.779-17.798C343.141,233.492,342.593,234.438,343.185,234.815L343.185,234.815z"/>
		</g>
	</g>
	<g>
		<g>
			<path fill="#020303" d="M340.147,254.491c3.013,1.196,6.182,1.744,9.349,2.368c0.598,0.118,0.853-0.796,0.252-0.915
				c-3.167-0.624-6.336-1.171-9.349-2.368C339.83,253.351,339.586,254.268,340.147,254.491L340.147,254.491z"/>
		</g>
	</g>
</g>
</svg>
