<?xml version="1.0" encoding="UTF-8"?>
<svg xmlns="http://www.w3.org/2000/svg" xmlns:xlink="http://www.w3.org/1999/xlink" version="1.2" >
<font id="MaxLF-BlackItalicSC">
<font-face  font-family="MaxLF-BlackItalicSC" units-per-em="1000" ascent="748.779" descent="-251.221" font-style="normal" font-weight="900" font-stretch="normal" cap-height="750" x-height="500" underline-position="-75" underline-thickness="50" />
<missing-glyph  horiz-adv-x="1000" d="" />
<glyph glyph-name="NULL" d="" />
<glyph glyph-name="CR" unicode="&#xd;" horiz-adv-x="250" d="" />
<glyph glyph-name="space" unicode="&#x20;" horiz-adv-x="309" d="" />
<glyph glyph-name="exclam" unicode="&#x21;" horiz-adv-x="373" d="M380 733 C381 734 381 736 381 737 C381 749 373 752 363 752 L356 752 L199 732 C183 730 176 719 174 703 L140 242 L140 241 C140 233 146 228 155 228 L279 228 C289 228 296 234 298 242 L380 733 Z M305 142 L305 146 C305 157 297 165 287 165 L136 165 C124 165 114 156 112 142 L97 23 L97 20 C97 8 105 0 115 0 L267 0 C278 0 289 10 290 23 L305 142 Z " />
<glyph glyph-name="quotedbl" unicode="&#x22;" horiz-adv-x="463" d="M508 718 C509 719 509 721 509 722 C509 732 500 739 492 739 L369 739 C359 739 349 730 347 718 L320 496 L320 493 C320 483 328 475 337 475 L441 475 C451 475 460 484 463 496 L508 718 Z M292 718 L292 722 C292 732 284 739 275 739 L153 739 C143 739 133 730 131 718 L104 496 L104 493 C104 483 111 475 121 475 L224 475 C234 475 244 484 246 496 L292 718 Z " />
<glyph glyph-name="numbersign" unicode="&#x23;" horiz-adv-x="762" d="M751 529 C753 533 753 536 753 539 C753 549 747 554 732 554 L645 554 L694 714 C696 719 697 723 697 726 C697 738 686 739 670 739 L609 739 C595 739 584 729 581 718 L530 554 L431 554 L481 714 C482 719 483 723 483 726 C483 738 472 739 456 739 L395 739 C381 739 370 729 367 718 L316 554 L220 554 C204 554 196 545 193 537 L173 473 C171 469 171 465 171 462 C171 453 177 448 192 448 L283 448 L244 320 L153 320 C137 320 129 312 126 303 L105 239 C104 235 103 231 103 228 C103 219 110 214 125 214 L211 214 L154 30 C152 23 151 18 151 14 C151 3 158 0 172 0 L242 0 C256 0 263 8 267 19 L327 214 L425 214 L368 30 C366 23 365 18 365 14 C365 3 372 0 386 0 L456 0 C470 0 477 8 480 19 L541 214 L637 214 C653 214 661 223 664 231 L684 295 C686 299 686 303 686 306 C686 315 680 320 665 320 L573 320 L612 448 L704 448 C720 448 728 456 731 465 L751 529 Z M497 448 L458 320 L359 320 L399 448 L497 448 Z " />
<glyph glyph-name="dollar" unicode="&#x24;" horiz-adv-x="708" d="M716 685 C718 689 718 693 718 696 C718 706 713 711 705 713 C678 722 612 743 517 750 L529 847 L529 851 C529 863 521 871 512 871 L422 871 C410 871 401 857 400 847 L388 750 C274 740 204 703 165 639 C139 597 123 536 123 487 C123 425 145 384 182 355 C225 321 287 305 346 296 C387 289 419 284 442 274 C470 263 483 247 483 214 C483 193 476 174 459 159 C436 138 397 129 357 129 C257 129 152 159 125 167 C122 167 119 168 117 168 C109 168 102 165 97 151 L66 58 C65 54 64 51 64 49 C64 36 74 31 80 29 C98 23 163 -4 291 -11 L279 -111 L279 -113 C279 -123 284 -134 296 -134 L386 -134 C396 -134 406 -124 408 -111 L420 -10 C522 0 597 36 641 100 C672 144 688 202 688 256 C688 322 667 363 635 391 C587 433 517 445 464 454 C431 460 400 464 376 471 C345 481 326 496 326 527 L326 528 C326 554 336 578 359 593 C381 606 414 612 460 612 C539 612 628 590 653 583 C658 582 664 581 668 581 C677 581 685 585 688 596 L716 685 Z " />
<glyph glyph-name="percent" unicode="&#x25;" horiz-adv-x="913" d="M450 605 C450 647 442 686 413 714 C389 737 350 752 289 752 C218 752 172 732 141 702 C119 680 106 653 97 624 C85 587 79 545 79 504 C79 463 87 424 114 397 C138 372 178 357 240 357 C311 357 357 377 387 406 C412 431 427 463 435 496 C444 531 450 569 450 605 L450 605 Z M924 235 C924 277 917 316 888 344 C864 367 825 382 764 382 C692 382 646 362 616 332 C594 310 581 283 572 254 C560 217 554 175 554 134 C554 93 561 54 589 27 C613 2 652 -13 715 -13 C786 -13 831 6 862 36 C887 61 901 93 910 126 C919 161 924 199 924 235 L924 235 Z M844 677 C846 678 847 681 847 683 C847 686 846 688 843 689 L768 739 C767 740 765 741 763 741 C759 741 756 740 754 737 L158 61 C156 59 155 57 155 54 C155 52 156 50 159 48 L234 -2 C236 -3 238 -3 240 -3 C243 -3 246 -2 248 0 L844 677 Z M792 227 C792 205 788 183 785 162 C777 110 765 87 727 87 C713 87 703 91 696 98 C689 106 687 120 687 139 C687 164 691 190 695 215 C703 261 716 282 751 282 C769 282 780 277 786 266 C791 257 792 244 792 227 L792 227 Z M317 597 C317 575 313 553 310 532 C302 480 290 457 253 457 C238 457 228 461 222 468 C214 476 212 490 212 509 C212 534 216 560 220 585 C228 631 241 652 277 652 C294 652 305 647 311 636 C316 627 317 614 317 597 L317 597 Z " />
<glyph glyph-name="ampersand" unicode="&#x26;" horiz-adv-x="853" d="M854 415 L854 417 C854 425 848 429 839 430 L724 444 L743 598 L743 602 C743 613 736 618 726 618 C724 618 722 617 719 617 L575 594 C559 591 552 582 550 565 L534 429 L534 430 C534 433 533 439 526 440 C491 447 442 448 403 460 C368 470 342 488 342 526 C342 554 353 575 376 590 C400 605 433 610 464 610 C486 610 501 609 520 606 L525 606 C535 606 542 611 545 623 L570 716 C571 720 571 723 571 726 C571 735 566 738 558 740 C549 742 497 752 448 752 C379 752 273 742 206 680 C166 644 143 592 143 536 C143 494 158 464 180 443 C210 415 251 402 285 398 L282 368 C217 363 162 344 125 302 C94 266 82 216 82 171 C82 95 118 50 173 23 C227 -5 299 -13 366 -13 C402 -13 425 -9 444 -5 C451 -4 464 4 464 21 L465 110 C465 122 460 132 446 132 L442 132 C427 130 421 129 406 129 C373 129 344 133 323 144 C302 156 290 175 290 205 C290 245 305 270 341 286 C381 305 441 309 509 319 C516 320 520 322 521 324 L505 192 C502 168 498 143 498 120 C498 80 510 51 529 30 C558 -1 607 -13 674 -13 C746 -13 793 2 804 5 C819 9 823 17 823 29 C823 30 823 31 822 33 L817 111 C817 117 815 123 806 123 L802 123 C789 121 769 117 740 117 C721 117 709 121 701 127 C692 134 690 145 690 158 C690 172 693 190 694 203 L707 307 L826 319 C835 320 843 325 844 334 L854 415 Z " />
<glyph glyph-name="quotesingle" unicode="&#x27;" horiz-adv-x="253" d="M298 718 C298 719 299 720 299 722 C299 732 290 739 282 739 L153 739 C143 739 133 730 131 718 L100 468 L100 465 C100 455 108 447 117 447 L227 447 C237 447 247 456 249 468 L298 718 Z " />
<glyph glyph-name="parenleft" unicode="&#x28;" horiz-adv-x="362" d="M414 745 C415 747 416 749 416 751 C416 755 413 760 409 762 L321 816 C319 817 312 818 309 818 C303 818 296 812 290 807 C235 743 190 662 156 573 C113 457 91 330 91 208 C91 148 97 90 108 37 C122 -28 145 -87 175 -135 C178 -141 184 -147 191 -147 C194 -147 201 -146 203 -145 L305 -91 C310 -88 314 -82 314 -77 C314 -76 314 -75 313 -73 C292 -28 277 18 268 65 C259 114 256 164 256 216 C256 330 276 451 316 559 C339 623 371 685 414 745 L414 745 Z " />
<glyph glyph-name="parenright" unicode="&#x29;" horiz-adv-x="362" d="M354 463 C354 523 348 581 336 635 C322 700 300 758 270 807 C266 812 260 818 254 818 L253 818 C251 818 243 817 241 816 L140 762 C135 759 131 754 131 748 L131 745 C153 699 167 653 176 606 C186 557 189 507 189 456 C189 341 168 221 129 113 C106 48 74 -13 31 -73 C30 -75 29 -78 29 -80 C29 -84 32 -88 35 -91 L123 -145 C125 -146 132 -147 135 -147 C142 -147 149 -141 154 -135 C209 -72 255 9 288 98 C332 214 354 341 354 463 L354 463 Z " />
<glyph glyph-name="asterisk" unicode="&#x2a;" horiz-adv-x="821" d="M751 570 L751 574 C751 584 747 591 733 591 L728 591 L578 576 L689 664 C697 670 700 676 700 681 C700 686 696 691 691 695 L624 746 C619 750 614 751 610 751 C602 751 596 746 591 740 L487 626 L412 740 C409 746 404 751 396 751 C391 751 386 750 380 746 L301 695 C293 690 288 684 288 678 C288 673 290 669 295 664 L384 576 L239 591 L234 591 C218 591 211 582 210 570 L200 487 L200 484 C200 470 210 468 220 468 L222 468 L370 474 L262 386 C255 380 252 374 252 369 C252 364 255 359 261 354 L327 304 C332 300 337 298 341 298 C349 298 356 304 361 309 L464 424 L539 309 C543 304 548 298 556 298 C560 298 565 300 571 304 L650 354 C658 360 663 365 663 372 C663 376 661 381 656 386 L567 474 L714 468 L717 468 C727 468 739 471 741 487 L751 570 Z " />
<glyph glyph-name="plus" unicode="&#x2b;" horiz-adv-x="627" d="M636 366 L636 370 C636 379 631 386 616 386 L434 386 L457 567 L457 572 C457 584 449 589 438 589 L336 589 C324 589 314 583 312 567 L290 386 L106 386 C90 386 83 378 82 366 L72 284 C71 283 71 282 71 280 C71 271 77 264 92 264 L275 264 L253 83 L253 78 C253 65 260 61 271 61 L374 61 C386 61 395 67 397 83 L419 264 L601 264 C618 264 624 272 626 284 L636 366 Z " />
<glyph glyph-name="comma" unicode="&#x2c;" horiz-adv-x="397" d="M315 163 C315 164 316 166 316 167 C316 174 309 175 302 175 L165 175 C154 175 151 171 149 162 L92 -87 C91 -88 91 -89 91 -90 C91 -98 98 -99 104 -99 L226 -99 C238 -99 240 -95 242 -86 L315 163 Z " />
<glyph glyph-name="hyphen" unicode="&#x2d;" horiz-adv-x="417" d="M410 314 L410 316 C410 326 401 335 387 335 L112 335 C97 335 85 325 84 314 L74 235 L74 233 C74 220 89 214 97 214 L372 214 C383 214 399 221 401 235 L410 314 Z " />
<glyph glyph-name="period" unicode="&#x2e;" horiz-adv-x="397" d="M317 147 L318 148 C318 157 308 165 294 165 L144 165 C129 165 117 156 116 147 L100 18 L100 17 C100 8 109 0 124 0 L274 0 C289 0 300 9 302 18 L317 147 Z " />
<glyph glyph-name="slash" unicode="&#x2f;" horiz-adv-x="388" d="M460 770 C461 773 461 775 461 777 C461 783 458 787 451 789 L362 808 C361 809 359 809 358 809 C350 809 343 805 340 797 L20 -22 C19 -24 19 -26 19 -28 C19 -34 22 -38 29 -40 L118 -59 C120 -60 121 -60 122 -60 C130 -60 137 -56 140 -48 L460 770 Z " />
<glyph glyph-name="zero" unicode="0" horiz-adv-x="812" d="M806 478 C806 556 791 626 742 676 C696 723 620 752 498 752 C314 752 219 686 166 592 C118 506 97 365 97 266 C97 177 114 97 180 46 C227 9 298 -13 404 -13 C609 -13 705 69 753 181 C788 262 806 388 806 478 L806 478 Z M602 475 C602 414 591 341 579 280 C557 172 519 121 420 121 C372 121 341 133 323 157 C307 179 300 212 300 255 C300 313 309 373 318 430 C339 558 373 618 481 618 C534 618 567 604 584 573 C597 550 602 517 602 475 L602 475 Z " />
<glyph glyph-name="one" unicode="1" horiz-adv-x="461" d="M448 742 C449 742 449 742 449 743 C449 747 443 752 438 752 L437 752 L122 712 C116 712 111 708 110 703 L96 588 L96 587 C96 583 100 579 105 579 L230 571 L161 9 L161 8 C161 4 165 0 170 0 L347 0 C353 0 358 4 359 9 L448 742 Z " />
<glyph glyph-name="two" unicode="2" horiz-adv-x="731" d="M724 557 C724 627 700 674 659 703 C607 741 529 752 448 752 C300 752 195 722 160 710 C146 704 142 695 142 683 L142 677 L150 589 C151 580 159 576 166 576 L169 576 C191 582 304 610 387 610 C425 610 460 608 484 595 C505 584 517 565 517 536 C517 510 508 492 489 473 C460 443 413 417 378 397 L233 310 C139 254 114 245 101 130 L89 22 L89 20 C89 11 96 0 114 0 L656 0 C666 0 673 6 674 15 L688 132 C689 133 689 133 689 134 C689 142 683 147 674 147 L294 147 L298 176 L487 275 C554 309 622 347 667 401 C706 447 724 497 724 557 L724 557 Z " />
<glyph glyph-name="three" unicode="3" horiz-adv-x="720" d="M714 583 C714 643 690 681 653 707 C595 747 508 752 452 752 C308 752 186 723 159 711 C150 706 142 698 142 684 C142 683 142 682 143 681 L150 592 C151 582 156 575 165 575 C167 575 169 575 171 576 C193 582 293 611 406 611 C436 611 467 606 487 592 C501 581 510 566 510 545 C510 515 495 490 469 474 C427 450 360 451 312 442 C291 438 293 425 292 416 L281 333 L281 332 C281 327 284 319 299 317 C351 309 397 305 430 295 C465 284 484 268 484 230 C484 207 476 183 461 166 C437 137 394 128 346 128 C259 128 168 150 140 155 L134 155 C123 155 115 148 110 133 L86 48 C86 45 85 43 85 41 C85 29 95 24 100 22 C131 9 259 -13 352 -13 C446 -13 553 3 620 66 C664 106 687 160 687 218 C687 260 679 292 660 315 C632 348 585 364 529 368 L533 398 C575 403 630 420 669 460 C701 494 714 537 714 583 L714 583 Z " />
<glyph glyph-name="four" unicode="4" horiz-adv-x="816" d="M792 284 L792 286 C792 294 786 299 777 299 L684 299 L737 729 L737 730 C737 734 731 739 726 739 L434 739 C425 739 419 731 417 728 L101 317 C97 312 96 303 96 303 L80 174 L80 172 C80 164 86 159 95 159 L481 159 L464 15 L464 13 C464 5 470 0 479 0 L636 0 C646 0 654 6 655 15 L672 159 L760 159 C770 159 777 165 778 174 L792 284 Z M539 614 L500 298 L265 299 L504 614 L539 614 Z " />
<glyph glyph-name="five" unicode="5" horiz-adv-x="704" d="M701 724 L701 727 C701 734 696 739 686 739 L191 739 C185 739 177 733 175 728 L100 330 C99 328 99 327 99 325 C99 308 116 291 130 291 L133 291 C206 304 277 317 350 317 C381 317 412 312 435 298 C455 285 468 267 468 238 C468 210 459 182 439 162 C411 136 367 128 326 128 C222 128 170 139 131 146 L127 146 C117 146 106 139 104 129 L80 39 C79 37 79 35 79 33 C79 24 84 16 94 13 C115 5 211 -13 354 -13 C428 -13 540 0 610 78 C655 126 675 193 675 258 C675 336 644 384 599 414 C544 451 468 458 412 458 C351 458 289 441 289 441 L318 593 L668 593 C678 593 686 599 687 609 L701 724 Z " />
<glyph glyph-name="six" unicode="6" horiz-adv-x="760" d="M746 700 C747 702 747 704 747 707 C747 714 743 720 731 723 C682 739 599 752 503 752 C359 752 268 710 210 649 C138 572 116 464 104 366 C99 325 97 289 97 252 C97 170 114 107 153 63 C198 12 272 -13 384 -13 C487 -13 593 2 661 73 C710 123 733 196 733 265 C733 343 709 395 667 428 C620 465 552 479 483 479 C406 479 333 459 310 453 C331 576 397 611 512 611 C596 611 666 595 691 589 C693 588 695 588 697 588 C704 588 713 592 715 601 L746 700 Z M529 254 C529 221 520 181 499 156 C476 131 442 121 394 121 C358 121 333 130 317 146 C297 167 290 200 290 238 C290 266 293 293 296 323 C296 323 368 345 422 345 C453 345 481 340 501 325 C519 312 529 289 529 254 L529 254 Z " />
<glyph glyph-name="seven" unicode="7" horiz-adv-x="684" d="M733 725 L733 726 C733 731 727 739 718 739 L131 739 C122 739 114 734 113 725 L99 608 L99 606 C99 598 104 593 113 593 L530 593 C365 432 190 181 112 17 C111 16 111 14 111 12 C111 6 114 0 128 0 L303 0 C317 0 322 10 327 21 C420 223 563 416 703 570 C709 576 716 586 718 603 L733 725 Z " />
<glyph glyph-name="eight" unicode="8" horiz-adv-x="786" d="M781 574 C781 649 741 694 679 721 C625 744 556 752 486 752 L484 752 C377 752 266 732 200 671 C160 634 139 584 139 530 C139 489 152 460 173 441 C214 400 281 399 293 396 L289 364 C238 361 171 343 128 296 C94 261 82 218 82 170 C82 106 109 59 164 29 C215 1 290 -13 390 -13 L392 -13 C538 -13 638 17 696 77 C731 114 753 167 753 218 C753 263 737 296 711 319 C677 349 627 361 585 363 L589 396 C605 399 701 401 751 474 C771 503 781 539 781 574 L781 574 Z M551 225 C551 198 540 171 519 153 C494 131 456 121 408 120 C369 120 339 127 318 140 C297 154 285 174 285 202 C285 231 294 255 313 274 C341 303 386 312 429 312 C461 312 493 307 516 293 C538 280 551 259 551 225 L551 225 Z M582 542 C582 515 572 489 550 471 C528 454 494 445 447 445 L446 445 C411 445 385 450 366 459 C343 471 332 491 332 518 C332 546 342 573 366 591 C393 613 433 618 468 619 L469 619 C496 619 527 615 549 603 C570 591 582 574 582 542 L582 542 Z " />
<glyph glyph-name="nine" unicode="9" horiz-adv-x="760" d="M755 483 C755 580 733 647 682 692 C636 732 567 752 467 752 C369 752 267 738 199 675 C143 623 119 545 119 470 C119 401 138 353 173 321 C220 276 293 260 368 260 C445 260 520 279 543 286 C522 166 456 128 342 128 C237 128 207 139 168 146 L164 146 C154 146 143 138 141 128 L117 38 C116 36 116 34 116 32 C116 24 121 16 131 12 C150 5 224 -13 351 -13 C575 -13 669 88 712 209 C740 287 755 399 755 483 L755 483 Z M563 499 L563 497 C563 472 560 445 557 416 C557 416 483 394 429 394 C395 394 365 400 345 418 C330 431 322 453 322 485 C322 513 330 551 347 576 C369 607 406 618 457 618 C497 618 523 607 539 587 C557 566 563 535 563 499 L563 499 Z " />
<glyph glyph-name="colon" unicode="&#x3a;" horiz-adv-x="397" d="M304 152 L304 155 C304 167 296 175 286 175 L154 175 C143 175 132 166 130 152 L114 23 L114 20 C114 8 122 0 132 0 L265 0 C276 0 287 10 288 23 L304 152 Z M347 502 L347 505 C347 517 339 525 329 525 L197 525 C186 525 175 516 173 502 L157 373 L157 370 C157 358 165 350 175 350 L308 350 C319 350 330 360 331 373 L347 502 Z " />
<glyph glyph-name="semicolon" unicode="&#x3b;" horiz-adv-x="397" d="M313 163 C314 164 314 166 314 167 C314 174 307 175 301 175 L164 175 C152 175 150 171 147 162 L90 -87 L90 -90 C90 -98 96 -99 103 -99 L224 -99 C236 -99 238 -95 241 -86 L313 163 Z M358 502 L358 505 C358 517 350 525 340 525 L208 525 C197 525 186 516 184 502 L168 373 L168 370 C168 358 176 350 186 350 L319 350 C329 350 341 360 342 373 L358 502 Z " />
<glyph glyph-name="less" unicode="&#x3c;" horiz-adv-x="627" d="M641 487 L603 572 C601 578 596 582 589 582 C586 582 582 581 578 579 L103 364 C92 359 87 351 86 342 L80 287 C79 286 79 286 79 285 C79 278 83 272 91 268 L513 52 C517 50 520 49 524 49 C531 49 536 53 540 59 L599 144 C601 147 602 151 602 154 C602 161 597 166 592 168 L246 316 L629 463 C634 465 642 472 642 481 C642 483 642 485 641 487 L641 487 Z " />
<glyph glyph-name="equal" unicode="&#x3d;" horiz-adv-x="627" d="M589 257 L589 259 C589 269 580 279 566 279 L130 279 C115 279 103 268 102 257 L92 174 C92 174 91 173 91 172 C91 159 106 153 114 153 L551 153 C561 153 577 161 579 174 L589 257 Z M616 475 L616 477 C616 487 607 496 593 496 L157 496 C142 496 130 486 128 475 L118 392 L118 390 C118 377 133 371 141 371 L578 371 C588 371 604 378 606 392 L616 475 Z " />
<glyph glyph-name="greater" unicode="&#x3e;" horiz-adv-x="627" d="M625 342 C626 344 626 345 626 346 C626 353 623 360 614 364 L192 579 C188 581 185 582 182 582 C175 582 169 578 165 572 L106 487 C104 484 103 480 103 477 C103 470 109 465 113 463 L459 316 L77 168 C71 166 63 159 63 150 C63 148 63 146 64 144 L102 59 C105 53 109 49 116 49 C119 49 123 50 127 52 L602 268 C612 272 618 280 619 287 L625 342 Z " />
<glyph glyph-name="question" unicode="&#x3f;" horiz-adv-x="627" d="M641 592 C641 653 615 691 577 715 C522 748 445 752 391 752 C277 752 189 727 165 719 C149 715 146 706 146 698 C146 694 147 690 148 687 L154 616 C154 612 155 600 169 600 L176 600 C199 606 277 624 336 624 C361 624 389 621 410 610 C426 602 437 588 437 567 C437 546 427 529 413 514 C395 497 370 483 344 468 C282 432 233 395 224 322 C223 309 222 294 222 280 C222 265 223 253 224 247 C225 237 222 230 238 230 L371 230 C387 230 397 235 397 250 C397 272 397 278 399 298 C406 357 448 370 509 407 C548 431 580 453 603 480 C630 513 641 551 641 592 L641 592 Z M400 142 L400 146 C400 157 392 165 382 165 L231 165 C219 165 209 156 207 142 L192 23 L192 20 C192 8 200 0 210 0 L362 0 C373 0 384 10 385 23 L400 142 Z " />
<glyph glyph-name="at" unicode="&#x40;" horiz-adv-x="971" d="M968 462 C968 563 944 651 849 703 C788 736 700 752 578 752 C342 752 218 691 154 566 C113 486 94 369 94 276 C94 188 114 104 190 51 C251 8 346 -13 484 -13 C524 -13 563 -10 597 -7 C610 -6 624 3 626 18 L631 56 L631 59 C631 69 624 81 608 81 L604 81 C572 78 534 75 494 75 C401 75 335 85 289 107 C223 139 199 196 199 282 C199 385 219 535 300 601 C354 645 436 664 567 664 C697 664 776 644 818 600 C850 567 863 522 863 462 C863 435 861 404 856 371 C852 337 846 306 840 278 C839 277 839 275 839 273 C839 262 847 250 863 250 L913 250 C930 250 942 263 944 274 C951 304 957 336 962 371 C966 403 968 434 968 462 L968 462 Z M735 474 C735 514 722 543 687 561 C662 575 626 582 577 582 C490 582 411 558 397 552 C391 550 385 546 385 537 L385 535 L391 473 C392 468 395 466 399 466 C401 466 403 466 406 467 C422 471 485 488 532 488 C549 488 562 487 571 483 C583 479 588 470 588 456 C588 448 587 439 586 431 L456 411 C404 403 367 385 346 351 C333 331 325 305 325 272 C325 236 335 211 353 194 C385 163 443 157 504 157 C551 157 587 160 620 167 C673 179 701 187 709 248 L729 401 C731 421 735 450 735 474 L735 474 Z M585 353 L573 250 C573 250 549 244 523 244 C511 244 496 246 485 255 C478 261 474 271 474 286 C474 299 478 316 487 326 C496 338 510 341 525 344 L585 353 Z " />
<glyph glyph-name="A" unicode="A" horiz-adv-x="814" d="M799 16 L667 727 C666 734 660 739 651 739 L345 739 C337 739 329 734 326 727 L19 16 L19 12 C19 5 27 0 35 0 L206 0 C215 0 224 7 227 16 L313 238 L558 238 L589 18 C591 9 598 0 608 0 L782 0 C791 0 800 6 800 14 C800 14 799 15 799 16 L799 16 Z M538 376 L366 376 L457 607 L504 607 L538 376 Z " />
<glyph glyph-name="B" unicode="B" horiz-adv-x="795" d="M790 586 C790 636 777 673 743 699 C708 726 652 739 572 739 L203 739 C193 739 184 732 183 723 L96 16 L96 14 C96 6 103 0 112 0 L466 0 C579 0 663 23 714 74 C754 113 771 165 771 220 C771 271 758 307 727 328 C696 350 648 358 586 361 L590 392 C655 398 709 415 745 453 C777 489 790 539 790 586 L790 586 Z M565 241 C565 219 562 195 550 176 C533 149 498 133 438 133 L313 133 L335 314 L466 309 C508 307 533 302 548 290 C561 280 565 264 565 241 L565 241 Z M583 542 C583 521 577 495 565 477 C549 453 522 442 480 440 L349 432 L371 606 L500 606 C530 606 552 602 566 590 C578 580 583 566 583 542 L583 542 Z " />
<glyph glyph-name="C" unicode="C" horiz-adv-x="714" d="M759 685 C760 688 761 692 761 695 C761 702 757 709 744 713 C713 723 641 748 510 748 C324 748 214 697 154 565 C116 483 98 365 98 272 C98 171 121 101 173 57 C225 13 305 -6 418 -6 C549 -6 626 17 660 27 C678 33 682 42 682 52 L682 55 L675 148 C675 155 670 160 660 160 C657 160 654 160 651 159 C629 154 547 135 476 135 C418 135 377 144 350 164 C317 189 305 230 305 290 C305 349 316 436 336 490 C365 572 420 608 534 608 C605 608 682 586 703 580 C706 580 709 579 711 579 C721 579 728 584 730 592 L759 685 Z " />
<glyph glyph-name="D" unicode="D" horiz-adv-x="840" d="M834 469 C834 552 818 621 772 667 C726 714 651 739 535 739 L201 739 C192 739 184 732 183 723 L96 16 L96 14 C96 6 102 0 111 0 L444 0 C640 0 737 72 787 198 C818 276 834 385 834 469 L834 469 Z M627 464 C627 405 618 341 606 283 C581 170 538 133 439 133 L313 133 L371 607 L497 607 C553 607 588 595 608 564 C622 542 627 508 627 464 L627 464 Z " />
<glyph glyph-name="E" unicode="E" horiz-adv-x="705" d="M724 724 L724 726 C724 734 718 739 709 739 L203 739 C193 739 184 732 183 723 L96 16 L96 14 C96 6 103 0 112 0 L619 0 C628 0 636 6 637 15 L651 127 L651 129 C651 137 645 142 636 142 L314 142 L334 304 L641 304 C651 304 658 310 659 319 L673 433 L673 435 C673 443 667 447 658 447 L351 447 L370 596 L692 596 C701 596 709 602 710 611 L724 724 Z " />
<glyph glyph-name="F" unicode="F" horiz-adv-x="638" d="M700 724 L700 726 C700 734 694 739 685 739 L203 739 C193 739 184 732 183 723 L96 16 L96 14 C96 6 103 0 112 0 L278 0 C288 0 297 7 298 16 L329 264 L594 264 C603 264 611 270 612 279 L626 391 L626 393 C626 401 620 406 611 406 L346 406 L370 596 L667 596 C677 596 685 603 686 611 L700 724 Z " />
<glyph glyph-name="G" unicode="G" horiz-adv-x="820" d="M819 682 C820 685 821 689 821 692 C821 700 816 706 803 711 C783 717 685 752 532 752 C354 752 236 707 167 586 C118 498 97 368 97 264 C97 152 127 78 201 35 C258 2 340 -13 455 -13 C536 -13 621 -2 667 8 C728 22 742 49 748 100 L788 423 L788 425 C788 433 781 439 771 439 L487 439 C477 439 469 432 468 423 L455 322 L455 320 C455 312 462 307 471 306 L578 292 L558 126 C558 126 518 120 480 120 C428 120 385 126 355 149 C322 173 306 217 306 295 C306 359 318 437 342 495 C384 593 459 610 563 610 C665 610 743 586 762 582 C764 581 767 581 770 581 C778 581 786 584 790 594 L819 682 Z " />
<glyph glyph-name="H" unicode="H" horiz-adv-x="872" d="M868 737 L868 739 C868 746 863 752 856 752 L853 752 L682 732 C672 731 665 726 663 717 L631 451 L352 451 L387 737 L387 739 C387 746 382 752 374 752 L372 752 L201 732 C191 731 183 726 182 717 L96 15 L96 13 C96 5 102 0 111 0 L280 0 C290 0 297 6 298 15 L334 306 L613 306 L577 15 L577 13 C577 5 583 0 592 0 L761 0 C771 0 778 6 780 15 L868 737 Z " />
<glyph glyph-name="I" unicode="I" horiz-adv-x="390" d="M387 737 L387 739 C387 746 382 752 374 752 L372 752 L201 732 C191 731 183 726 182 717 L96 15 L96 13 C96 5 102 0 111 0 L280 0 C290 0 297 6 298 15 L387 737 Z " />
<glyph glyph-name="J" unicode="J" horiz-adv-x="391" d="M391 737 C392 738 392 739 392 739 C392 746 387 752 379 752 L377 752 L208 732 C199 731 191 726 189 717 L101 -5 C91 -82 55 -83 10 -87 C-11 -89 -27 -88 -47 -89 C-67 -89 -73 -93 -76 -111 L-84 -179 L-84 -186 C-84 -201 -76 -203 -64 -204 C-45 -207 -35 -210 45 -210 C166 -210 279 -175 301 2 L391 737 Z " />
<glyph glyph-name="K" unicode="K" horiz-adv-x="778" d="M844 709 C848 713 849 717 849 721 C849 730 843 737 838 737 L644 739 L643 739 C632 739 627 734 623 729 L402 441 L350 441 L385 724 L385 726 C385 734 380 739 371 739 L202 739 C192 739 184 733 183 724 L96 15 L96 13 C96 5 102 0 111 0 L280 0 C290 0 297 6 298 15 L333 299 L384 299 L539 10 C542 5 550 0 561 0 L762 0 C768 0 778 10 778 20 C778 22 777 25 776 28 L561 373 L844 709 Z " />
<glyph glyph-name="L" unicode="L" horiz-adv-x="638" d="M635 133 L635 135 C635 143 629 148 620 148 L314 148 L387 737 L387 739 C387 746 382 752 374 752 L372 752 L201 732 C191 731 183 726 182 717 L96 15 L96 13 C96 5 102 0 111 0 L602 0 C612 0 620 6 621 15 L635 133 Z " />
<glyph glyph-name="M" unicode="M" horiz-adv-x="1096" d="M1059 719 L1059 720 C1059 731 1050 739 1038 739 L751 739 C738 739 730 729 726 719 L599 338 L594 338 L562 719 C561 730 554 739 541 739 L237 739 C225 739 214 730 212 719 L66 20 L66 16 C66 6 75 0 86 0 L235 0 C247 0 257 8 259 19 L366 604 L395 604 L444 142 C445 132 451 122 465 122 L653 122 C667 122 675 132 678 142 L850 604 L879 604 L831 19 L831 18 C831 7 839 0 850 0 L1010 0 C1022 0 1034 8 1034 20 L1059 719 Z " />
<glyph glyph-name="N" unicode="N" horiz-adv-x="896" d="M891 719 L891 723 C891 737 880 739 867 739 L721 739 C707 739 694 737 692 720 L629 107 L609 107 L539 726 C538 735 530 739 520 739 L203 739 C193 739 184 732 183 724 L96 15 L96 13 C96 5 102 0 111 0 L278 0 C288 0 296 6 296 15 L350 590 L379 590 L451 16 C452 7 459 0 469 0 L786 0 C795 0 803 6 804 15 L891 719 Z " />
<glyph glyph-name="O" unicode="O" horiz-adv-x="858" d="M852 470 C852 562 832 636 775 684 C724 728 643 752 522 752 C317 752 211 685 155 567 C116 484 97 363 97 268 C97 178 116 107 169 59 C220 12 302 -13 428 -13 C651 -13 757 67 808 206 C837 283 852 386 852 470 L852 470 Z M646 478 C646 418 637 345 625 285 C602 170 561 121 444 121 C394 121 360 130 338 148 C312 171 303 208 303 261 C303 322 314 407 327 469 C351 575 393 619 505 619 C563 619 599 607 621 582 C640 559 646 526 646 478 L646 478 Z " />
<glyph glyph-name="P" unicode="P" horiz-adv-x="745" d="M791 557 C791 609 781 651 755 681 C722 719 665 739 578 739 L203 739 C193 739 184 732 183 723 L96 15 L96 13 C96 5 102 0 111 0 L280 0 C290 0 297 6 298 15 L330 273 L508 272 L511 272 C602 272 667 293 711 334 C740 360 760 395 773 437 C785 476 791 517 791 557 L791 557 Z M581 531 C581 514 578 496 575 480 C570 455 562 438 549 426 C530 407 499 401 448 399 L345 395 L371 606 L451 606 C506 606 545 605 565 584 C576 573 581 557 581 531 L581 531 Z " />
<glyph glyph-name="Q" unicode="Q" horiz-adv-x="858" d="M852 470 C852 559 835 623 789 671 C739 724 655 752 522 752 C315 752 210 684 154 564 C115 481 97 356 97 261 C97 175 118 106 169 59 C209 23 267 -1 351 -9 C362 -98 379 -208 496 -208 L663 -208 C673 -208 681 -202 682 -192 L695 -88 L695 -86 C695 -78 689 -73 680 -73 L503 -73 L497 -10 C678 6 767 88 812 217 C839 294 852 389 852 470 L852 470 Z M646 478 C646 418 637 345 625 285 C602 170 561 121 444 121 C394 121 360 130 338 148 C312 171 303 208 303 261 C303 322 314 407 327 469 C351 575 393 619 505 619 C563 619 599 607 621 582 C640 559 646 526 646 478 L646 478 Z " />
<glyph glyph-name="R" unicode="R" horiz-adv-x="812" d="M798 565 C798 622 783 661 753 688 C712 725 644 739 558 739 L203 739 C193 739 184 732 183 723 L96 15 L96 13 C96 5 102 0 111 0 L280 0 C290 0 297 6 298 15 L330 275 L423 272 C458 271 501 271 528 255 C543 246 554 232 554 211 C554 196 552 175 551 163 L540 13 L540 12 C540 5 548 0 556 0 L726 0 C736 0 744 16 744 16 L753 125 C754 147 756 168 756 190 C756 233 748 262 729 283 C705 311 662 321 592 324 L596 354 C679 363 730 389 760 431 C787 468 798 520 798 565 L798 565 Z M587 526 C587 499 582 467 566 444 C546 415 511 403 456 399 L345 393 L371 606 L487 606 C531 606 558 598 573 579 C583 566 587 548 587 526 L587 526 Z " />
<glyph glyph-name="S" unicode="S" horiz-adv-x="713" d="M708 686 C709 689 709 692 709 695 C709 707 701 713 689 717 C666 723 566 750 449 750 C360 750 282 735 224 695 C155 647 125 561 125 479 C125 336 247 306 337 291 C411 278 472 273 472 217 C472 191 463 166 442 151 C418 133 383 128 340 128 C257 128 159 157 136 162 C132 163 128 164 124 164 C114 164 107 159 103 145 L78 57 C77 54 77 51 77 49 C77 39 82 31 92 27 C108 21 218 -11 361 -11 C448 -11 533 7 593 54 C657 104 683 177 683 256 C683 324 666 364 636 393 C594 433 531 445 470 455 C395 467 332 472 332 526 C332 552 342 577 363 592 C387 608 421 612 458 612 C526 612 584 598 657 582 C659 581 660 581 662 581 C672 581 679 589 682 598 L708 686 Z " />
<glyph glyph-name="T" unicode="T" horiz-adv-x="686" d="M767 724 L767 726 C767 734 761 739 752 739 L115 739 C106 739 98 733 97 724 L83 611 L83 609 C83 602 89 596 98 596 L316 596 L244 15 L244 13 C244 5 250 0 259 0 L428 0 C438 0 445 6 446 15 L518 596 L735 596 C744 596 752 602 753 611 L767 724 Z " />
<glyph glyph-name="U" unicode="U" horiz-adv-x="835" d="M842 737 L842 739 C842 746 837 752 829 752 L827 752 L655 731 C646 730 638 725 637 716 L578 241 C569 166 538 121 433 121 C394 121 369 127 350 139 C324 155 315 182 315 217 C315 242 318 269 321 292 L377 737 L377 739 C377 746 372 752 364 752 L362 752 L191 731 C181 730 173 725 172 716 L122 313 C118 277 112 239 112 204 C112 116 145 61 204 28 C257 -2 330 -13 416 -13 C614 -13 757 47 782 249 L842 737 Z " />
<glyph glyph-name="V" unicode="V" horiz-adv-x="786" d="M854 718 C855 720 855 721 855 722 C855 730 847 739 842 739 L671 739 C657 739 648 737 642 719 L435 134 L392 134 L321 719 C319 736 311 739 297 739 L126 739 C121 739 108 726 108 717 L108 715 L231 16 C232 7 237 0 246 0 L551 0 C561 0 568 7 571 16 L854 718 Z " />
<glyph glyph-name="W" unicode="W" horiz-adv-x="1196" d="M1250 718 C1251 719 1251 721 1251 722 C1251 730 1244 739 1238 739 L1081 739 C1067 739 1057 737 1052 719 L882 138 L854 138 L834 662 C834 671 828 680 816 680 L561 680 C549 680 540 671 537 662 L382 138 L353 138 L329 719 C328 737 319 739 305 739 L140 739 C134 739 122 725 122 716 L122 715 L176 18 C176 9 182 0 194 0 L481 0 C493 0 501 9 504 18 L661 535 L689 18 C689 9 696 0 707 0 L1001 0 C1013 0 1021 9 1024 18 L1250 718 Z " />
<glyph glyph-name="X" unicode="X" horiz-adv-x="781" d="M824 713 C825 715 827 719 827 724 C827 731 824 739 814 739 L637 739 C623 739 619 735 609 720 L455 488 L345 719 C338 735 335 739 321 739 L123 739 C120 739 104 727 104 717 C104 715 105 714 106 712 L293 379 L11 22 C11 22 10 20 10 17 C10 11 12 0 21 0 L201 0 C209 0 220 5 224 11 L411 282 L531 11 C534 5 543 0 551 0 L757 0 C767 0 775 7 775 15 C775 18 774 20 773 22 L569 389 L824 713 Z " />
<glyph glyph-name="Y" unicode="Y" horiz-adv-x="775" d="M864 713 C865 715 866 719 866 724 C866 731 863 739 853 739 L669 739 C655 739 650 735 640 720 L450 424 L323 719 C317 735 314 739 299 739 L106 739 C103 739 87 727 87 717 C87 715 87 714 88 712 L325 263 L295 15 C294 14 294 13 294 13 C294 5 301 0 310 0 L479 0 C488 0 496 6 497 15 L528 267 L864 713 Z " />
<glyph glyph-name="Z" unicode="Z" horiz-adv-x="717" d="M749 724 L749 726 C749 733 743 739 734 739 L151 739 C141 739 134 733 133 724 L119 613 L119 610 C119 603 125 598 134 598 L484 598 L77 142 C71 136 66 129 64 115 L52 15 L52 13 C52 6 58 0 67 0 L657 0 C666 0 674 6 675 15 L688 127 C689 127 689 128 689 129 C689 136 683 141 674 141 L315 141 L726 595 C731 601 734 606 735 616 L749 724 Z " />
<glyph glyph-name="bracketleft" unicode="&#x5b;" horiz-adv-x="393" d="M425 727 L403 807 C401 814 395 818 388 818 C386 818 383 818 381 817 L179 767 C171 766 163 758 161 744 L61 -73 L61 -78 C61 -88 66 -95 73 -96 L263 -146 C265 -146 267 -147 269 -147 C277 -147 283 -143 287 -136 L329 -55 C330 -53 331 -50 331 -48 C331 -41 326 -37 322 -35 L230 4 L311 667 L413 706 C418 708 426 714 426 722 C426 724 425 725 425 727 L425 727 Z " />
<glyph glyph-name="backslash" unicode="&#x5c;" horiz-adv-x="339" d="M387 -57 L185 805 C183 812 177 815 171 815 C169 815 166 815 164 814 L50 774 C41 771 37 765 37 758 C37 757 37 756 38 755 L240 -108 C242 -115 247 -118 254 -118 C256 -118 258 -118 261 -117 L375 -77 C383 -73 388 -68 388 -61 C388 -60 387 -59 387 -57 L387 -57 Z " />
<glyph glyph-name="bracketright" unicode="&#x5d;" horiz-adv-x="393" d="M414 744 C414 746 415 747 415 749 C415 760 409 766 402 768 L213 817 C210 818 208 818 206 818 C198 818 192 814 188 807 L146 726 C145 724 144 721 144 719 C144 712 149 708 153 706 L245 667 L164 4 L62 -35 C57 -37 50 -43 50 -51 L50 -55 L72 -136 C74 -143 80 -147 88 -147 C90 -147 92 -146 94 -146 L296 -96 C304 -94 312 -87 314 -73 L414 744 Z " />
<glyph glyph-name="asciicircum" unicode="&#x5e;" horiz-adv-x="627" d="M640 337 L468 726 C464 735 456 739 448 739 L363 739 C353 739 344 736 337 726 L70 337 C68 333 66 329 66 326 C66 320 70 316 76 314 L166 271 C169 269 172 269 174 269 C183 269 191 275 194 279 L386 594 L503 279 C504 275 510 269 519 269 C522 269 525 269 528 271 L629 314 C637 317 642 322 642 329 C642 331 641 334 640 337 L640 337 Z " />
<glyph glyph-name="underscore" unicode="&#x5f;" horiz-adv-x="561" d="M555 -54 L-7 -54 L-15 -125 L546 -125 L555 -54 Z " />
<glyph glyph-name="grave" unicode="&#x60;" horiz-adv-x="382" d="M396 685 C398 688 399 691 399 693 C399 696 398 699 396 701 L242 816 C240 817 238 818 235 818 C231 818 227 817 224 813 L161 740 C159 738 158 735 158 732 C158 729 159 726 161 725 L321 616 C323 614 326 614 328 614 C332 614 336 615 339 619 L396 685 Z " />
<glyph glyph-name="a" unicode="a" horiz-adv-x="710" d="M686 15 L575 558 C574 563 569 567 563 567 L289 567 C282 567 277 563 274 558 L29 15 C28 13 28 12 28 11 C28 5 36 0 44 0 L198 0 C207 0 215 7 219 15 L283 175 L470 175 L495 17 C497 9 504 0 513 0 L671 0 C679 0 686 6 686 13 L686 15 Z M452 295 L331 295 L393 446 L427 446 L452 295 Z " />
<glyph glyph-name="b" unicode="b" horiz-adv-x="672" d="M654 444 C654 485 641 515 612 535 C582 557 535 567 470 567 L172 567 C163 567 154 561 153 553 L87 14 L87 13 C87 6 94 0 102 0 L389 0 C483 0 556 20 599 64 C628 94 641 136 641 177 C641 214 628 239 604 254 C577 271 536 278 486 279 L489 303 C544 309 593 319 623 353 C646 378 654 412 654 444 L654 444 Z M454 189 C454 175 452 158 445 146 C434 129 413 119 369 119 L284 119 L298 234 L387 230 C416 229 433 226 443 220 C452 213 454 204 454 189 L454 189 Z M466 412 C466 399 463 383 458 372 C448 353 431 346 399 344 L311 339 L324 449 L413 449 C433 449 447 446 456 440 C463 434 466 426 466 412 L466 412 Z " />
<glyph glyph-name="c" unicode="c" horiz-adv-x="616" d="M630 520 C631 523 632 526 632 529 C632 536 628 542 615 546 C555 564 488 574 423 574 C287 574 200 541 149 462 C105 395 88 290 88 210 C88 141 104 92 138 57 C180 14 250 -4 352 -4 C417 -4 487 6 551 24 C569 29 573 37 573 47 C573 48 573 49 572 50 L566 132 C565 139 560 144 551 144 C549 144 546 144 543 143 C498 133 458 120 400 120 C355 120 324 127 305 143 C284 160 276 187 276 227 C276 270 283 324 296 363 C316 425 355 450 440 450 C498 450 536 437 578 427 C581 426 583 426 586 426 C595 426 601 431 603 438 L630 520 Z " />
<glyph glyph-name="d" unicode="d" horiz-adv-x="707" d="M689 348 C689 416 677 470 639 508 C602 546 539 567 442 567 L172 567 C163 567 154 561 153 553 L87 14 L87 13 C87 6 94 0 102 0 L372 0 C514 0 593 45 637 121 C673 184 689 274 689 348 L689 348 Z M502 353 C502 315 496 275 489 237 C472 142 442 119 370 119 L284 119 L324 449 L411 449 C448 449 472 443 486 425 C497 410 502 387 502 353 L502 353 Z " />
<glyph glyph-name="e" unicode="e" horiz-adv-x="601" d="M602 553 L602 554 C602 561 595 567 587 567 L172 567 C163 567 154 561 153 553 L87 14 L87 13 C87 6 94 0 102 0 L517 0 C526 0 535 6 536 14 L548 112 L548 113 C548 121 541 126 533 126 L285 126 L297 224 L532 224 C542 224 550 231 551 239 L563 338 C564 338 564 339 564 339 C564 346 557 352 548 352 L312 352 L323 440 L571 440 C580 440 589 446 590 455 L602 553 Z " />
<glyph glyph-name="f" unicode="f" horiz-adv-x="550" d="M583 553 L583 554 C583 561 576 567 568 567 L172 567 C163 567 154 561 153 553 L87 14 L87 13 C87 6 94 0 102 0 L242 0 C255 0 270 9 272 23 L293 195 L496 195 C505 195 514 201 515 209 L527 307 L527 309 C527 316 520 322 512 322 L309 322 L323 440 L552 440 C561 440 570 446 571 455 L583 553 Z " />
<glyph glyph-name="g" unicode="g" horiz-adv-x="692" d="M679 523 C680 526 680 529 680 531 C680 538 676 542 667 545 C651 551 559 577 440 577 C302 577 207 544 150 459 C105 392 88 293 88 210 C88 127 109 70 163 35 C209 4 280 -10 381 -10 C445 -10 513 -2 550 6 C605 18 619 43 624 85 L654 332 L654 334 C654 341 648 346 639 346 L397 346 C388 346 379 340 378 332 L367 243 L367 242 C367 235 374 230 383 229 L463 218 L450 112 C450 112 420 109 402 109 C357 109 322 114 301 137 C285 155 276 182 276 226 C276 278 287 346 311 388 C342 442 392 450 462 450 C542 450 614 431 629 428 L635 428 C641 428 648 430 651 438 L679 523 Z " />
<glyph glyph-name="h" unicode="h" horiz-adv-x="731" d="M715 563 L715 565 C715 572 711 577 704 577 L702 577 L546 552 C537 551 529 547 528 539 L506 355 L313 355 L338 563 L338 565 C338 572 334 577 327 577 L324 577 L169 552 C160 551 152 547 151 539 L87 14 L87 13 C87 6 94 0 102 0 L252 0 C261 0 270 6 271 14 L297 226 L490 226 L464 14 L464 13 C464 6 471 0 479 0 L629 0 C638 0 647 6 648 14 L715 563 Z " />
<glyph glyph-name="i" unicode="i" horiz-adv-x="354" d="M338 563 L338 565 C338 572 334 577 327 577 L324 577 L169 552 C160 551 152 547 151 539 L87 14 L87 13 C87 6 94 0 102 0 L252 0 C261 0 270 6 271 14 L338 563 Z " />
<glyph glyph-name="j" unicode="j" horiz-adv-x="358" d="M345 564 C346 566 346 568 346 570 C346 577 344 579 341 579 C338 579 335 578 331 577 L176 553 C167 551 159 547 158 539 L90 -18 C83 -77 54 -78 19 -80 C3 -82 -8 -82 -25 -83 C-40 -83 -45 -86 -47 -99 L-55 -162 L-55 -168 C-55 -182 -47 -183 -36 -186 C-21 -188 -4 -191 60 -191 C158 -191 256 -163 274 -22 L345 564 Z " />
<glyph glyph-name="k" unicode="k" horiz-adv-x="685" d="M717 540 C719 543 721 547 721 551 C721 559 715 565 710 565 L534 567 C524 567 519 562 515 558 L352 348 L312 348 L337 553 L337 554 C337 561 330 567 322 567 L172 567 C163 567 154 561 153 553 L87 14 L87 13 C87 6 94 0 102 0 L252 0 C261 0 270 6 271 14 L296 220 L336 220 L452 9 C455 5 462 0 473 0 L658 0 C664 0 673 9 673 18 C673 21 672 23 671 26 L503 291 L717 540 Z " />
<glyph glyph-name="l" unicode="l" horiz-adv-x="549" d="M536 117 L536 119 C536 126 529 132 521 132 L285 132 L338 563 L338 565 C338 572 334 577 327 577 L324 577 L169 552 C160 551 152 547 151 539 L87 14 L87 13 C87 6 94 0 102 0 L504 0 C514 0 522 6 523 14 L536 117 Z " />
<glyph glyph-name="m" unicode="m" horiz-adv-x="935" d="M890 549 C890 560 882 567 870 567 L615 567 C603 567 594 558 591 549 L514 284 L504 284 L484 549 C483 559 477 567 465 567 L194 567 C182 567 172 559 170 549 L64 18 L64 15 C64 6 73 0 83 0 L217 0 C228 0 238 7 239 18 L307 447 L340 447 L372 112 C373 103 378 94 391 94 L559 94 C572 94 579 102 583 112 L696 447 L729 447 L690 18 L690 16 C690 7 698 0 709 0 L852 0 C863 0 874 7 875 18 L890 549 Z " />
<glyph glyph-name="n" unicode="n" horiz-adv-x="794" d="M777 552 L777 554 C777 561 770 567 762 567 L615 567 C606 567 597 561 596 552 L552 95 L535 95 L477 549 C475 563 461 567 451 567 L174 567 C165 567 156 561 155 553 L87 14 L87 13 C87 5 94 0 102 0 L251 0 C260 0 269 6 269 14 L304 434 L338 434 L390 21 C392 9 402 0 416 0 L683 0 C697 0 710 8 712 23 L777 552 Z " />
<glyph glyph-name="o" unicode="o" horiz-adv-x="722" d="M703 352 C703 434 685 493 630 531 C587 561 524 577 432 577 C269 577 182 526 136 439 C103 377 88 286 88 216 C88 139 105 78 158 39 C200 7 265 -10 360 -10 C506 -10 591 31 640 102 C685 169 703 272 703 352 L703 352 Z M517 365 C517 322 511 271 503 228 C486 139 458 109 374 109 C339 109 316 114 300 127 C282 141 275 165 275 202 C275 249 283 312 293 357 C310 433 339 459 417 459 C453 459 477 453 492 441 C510 426 517 399 517 365 L517 365 Z " />
<glyph glyph-name="p" unicode="p" horiz-adv-x="633" d="M655 421 C655 458 647 489 630 512 C603 550 551 567 475 567 L172 567 C163 567 154 561 153 553 L87 14 L87 13 C87 6 94 0 102 0 L252 0 C261 0 270 6 271 14 L294 201 L420 200 L423 200 C495 200 550 216 589 249 C637 291 655 359 655 421 L655 421 Z M465 402 C465 390 463 377 460 365 C457 349 452 339 446 331 C432 316 411 314 375 312 L307 310 L324 449 L374 449 C419 449 443 447 455 435 C461 429 465 420 465 402 L465 402 Z " />
<glyph glyph-name="q" unicode="q" horiz-adv-x="722" d="M703 358 C703 430 685 488 637 526 C595 559 529 577 432 577 C273 577 187 528 140 444 C104 380 88 287 88 210 C88 144 101 90 138 51 C170 18 218 -3 289 -11 C299 -81 317 -170 412 -170 L543 -170 C557 -170 570 -160 572 -146 L581 -73 L581 -70 C581 -57 571 -49 558 -49 L430 -49 L429 -11 C557 3 626 59 663 143 C690 204 703 291 703 358 L703 358 Z M517 364 C517 319 510 262 501 217 C484 133 455 104 373 104 C337 104 313 110 298 123 C281 138 274 162 274 198 C274 247 282 310 292 356 C310 433 339 459 417 459 C457 459 482 452 497 436 C511 421 517 397 517 364 L517 364 Z " />
<glyph glyph-name="r" unicode="r" horiz-adv-x="690" d="M665 428 C665 477 648 512 617 533 C582 558 528 567 465 567 L172 567 C163 567 154 561 153 553 L87 14 L87 13 C87 6 94 0 102 0 L252 0 C261 0 270 6 271 14 L294 206 L357 204 C389 204 449 206 449 165 L449 162 L438 12 L438 11 C438 5 445 0 453 0 L609 0 C618 0 625 15 625 15 L631 95 C632 112 633 129 633 146 C633 184 625 208 606 224 C586 241 554 247 505 249 L508 272 C572 279 611 296 635 326 C657 354 665 394 665 428 L665 428 Z M473 397 C473 378 469 355 457 341 C444 324 422 317 384 315 L307 311 L324 448 L405 448 C427 448 443 446 453 440 C468 432 473 419 473 397 L473 397 Z " />
<glyph glyph-name="s" unicode="s" horiz-adv-x="607" d="M590 521 C591 524 592 527 592 530 C592 540 584 547 572 550 C554 555 468 576 375 576 C297 576 227 562 178 523 C130 485 108 422 108 363 C108 312 130 279 159 256 C195 229 245 218 284 212 C300 209 314 207 328 205 C343 202 358 199 369 191 C376 186 381 178 381 167 C381 154 376 139 366 131 C352 120 328 115 293 115 C238 115 179 130 128 142 C123 143 119 143 116 143 C107 143 100 139 96 127 L73 50 C73 48 72 45 72 42 C72 34 77 26 87 22 C100 18 194 -8 307 -8 C384 -8 461 8 512 54 C556 94 573 149 573 207 C573 269 547 304 511 326 C477 346 435 353 395 359 C380 362 365 364 352 366 C338 368 323 372 311 379 C302 384 296 393 296 406 C296 424 305 436 320 444 C334 450 354 453 380 453 C433 453 493 439 543 428 C544 427 546 427 547 427 C556 427 563 435 566 443 L590 521 Z " />
<glyph glyph-name="t" unicode="t" horiz-adv-x="589" d="M638 553 L638 554 C638 561 631 567 622 567 L106 567 C97 567 88 561 87 553 L75 455 L75 453 C75 446 82 440 90 440 L257 440 L204 14 L204 13 C204 6 211 0 220 0 L370 0 C379 0 387 6 388 14 L441 440 L607 440 C616 440 625 446 626 455 L638 553 Z " />
<glyph glyph-name="u" unicode="u" horiz-adv-x="703" d="M694 563 C695 564 695 565 695 565 C695 572 690 577 683 577 L681 577 L525 552 C516 551 509 547 508 539 L464 186 C458 137 440 110 366 110 C337 110 317 114 305 121 C288 131 283 146 283 167 C283 191 290 231 291 244 L331 563 L331 565 C331 572 326 577 319 577 L317 577 L161 552 C152 551 145 547 144 539 L107 250 C104 223 99 197 99 166 C99 96 126 51 174 24 C218 -1 280 -10 350 -10 C507 -10 630 36 649 195 L694 563 Z " />
<glyph glyph-name="v" unicode="v" horiz-adv-x="673" d="M711 548 C712 549 712 550 712 552 C712 559 705 567 700 567 L546 567 C532 567 524 565 518 549 L370 119 L336 119 L289 549 C288 565 280 567 266 567 L113 567 C108 567 96 555 96 546 L96 545 L191 15 C192 7 196 0 206 0 L475 0 C485 0 491 7 494 15 L711 548 Z " />
<glyph glyph-name="w" unicode="w" horiz-adv-x="1035" d="M1063 548 C1064 549 1064 550 1064 551 C1064 559 1057 567 1052 567 L910 567 C897 567 887 565 883 549 L769 123 L735 123 L721 505 C721 514 714 522 703 522 L473 522 C461 522 453 514 451 505 L337 123 L303 123 L294 549 C294 565 285 567 271 567 L124 567 C118 567 106 554 106 546 L106 545 L153 17 C154 8 160 0 171 0 L426 0 C437 0 445 8 448 17 L563 392 L585 17 C586 8 592 0 603 0 L865 0 C876 0 884 8 887 17 L1063 548 Z " />
<glyph glyph-name="x" unicode="x" horiz-adv-x="681" d="M694 543 C695 544 696 549 696 553 C696 560 693 567 684 567 L525 567 C512 567 508 564 498 549 L388 386 L310 549 C303 563 301 567 287 567 L109 567 C106 567 92 556 92 546 C92 545 92 543 93 542 L242 289 L22 21 C22 21 21 19 21 16 C21 10 23 0 32 0 L195 0 C203 0 212 5 216 10 L349 202 L440 10 C443 5 451 0 459 0 L644 0 C654 0 661 7 661 14 C661 16 661 19 659 21 L493 298 L694 543 Z " />
<glyph glyph-name="y" unicode="y" horiz-adv-x="671" d="M726 543 C727 544 728 549 728 553 C728 560 726 567 716 567 L550 567 C536 567 532 564 523 549 L386 340 L294 549 C288 563 285 567 271 567 L97 567 C94 567 79 551 79 540 C79 539 79 537 80 536 L274 196 L251 14 L251 13 C251 6 258 0 267 0 L417 0 C426 0 434 6 435 14 L458 200 L726 543 Z " />
<glyph glyph-name="z" unicode="z" horiz-adv-x="611" d="M622 553 L622 554 C622 561 616 567 607 567 L134 567 C124 567 116 561 115 553 L103 455 L103 454 C103 447 109 441 118 441 L380 441 L77 124 C71 118 65 111 63 97 L53 14 L53 13 C53 6 60 0 69 0 L548 0 C557 0 565 6 566 14 L578 112 L578 113 C578 120 572 126 563 126 L293 126 L600 442 C606 448 610 455 611 465 L622 553 Z " />
<glyph glyph-name="braceleft" unicode="&#x7b;" horiz-adv-x="450" d="M482 727 L460 807 C458 814 453 818 445 818 C443 818 441 818 438 817 L236 767 C228 766 220 758 219 744 L187 488 C179 418 169 399 121 393 C108 391 97 382 95 369 L87 298 C87 297 86 297 86 296 C86 285 95 277 107 275 C142 270 153 257 153 221 C153 210 151 196 149 179 L118 -73 L118 -78 C118 -88 124 -95 130 -96 L320 -146 C322 -146 324 -147 326 -147 C334 -147 341 -143 344 -136 L386 -55 C388 -53 388 -50 388 -48 C388 -41 383 -37 379 -35 L287 4 L312 202 C313 212 313 220 313 229 C313 273 292 297 247 317 L251 348 C309 372 336 404 343 463 L369 667 L470 706 C475 708 483 714 483 722 C483 724 483 725 482 727 L482 727 Z " />
<glyph glyph-name="bar" unicode="&#x7c;" horiz-adv-x="298" d="M316 758 L316 762 C316 774 308 782 299 782 L190 782 C177 782 169 766 168 758 L58 -138 L58 -141 C58 -149 63 -162 74 -162 L183 -162 C193 -162 204 -152 206 -138 L316 758 Z " />
<glyph glyph-name="braceright" unicode="&#x7d;" horiz-adv-x="450" d="M445 369 C446 370 446 371 446 372 C446 383 437 391 426 393 C391 397 379 409 379 445 C379 457 381 471 383 488 L414 744 C414 746 415 747 415 749 C415 760 409 766 402 768 L213 817 C210 818 208 818 206 818 C198 818 192 814 188 807 L146 726 C145 724 144 721 144 719 C144 712 149 708 153 706 L245 667 L220 463 C219 455 219 448 219 441 C219 395 239 369 285 348 L281 317 C222 293 196 263 188 202 L164 4 L62 -35 C57 -37 50 -43 50 -51 L50 -55 L72 -136 C74 -143 80 -147 88 -147 C90 -147 92 -146 94 -146 L296 -96 C304 -94 312 -87 314 -73 L345 179 C353 250 363 268 411 275 C424 277 435 286 437 298 L445 369 Z " />
<glyph glyph-name="asciitilde" unicode="&#x7e;" horiz-adv-x="627" d="M596 277 L596 279 C596 281 595 284 595 286 L572 363 C571 368 567 370 561 370 C557 370 554 367 551 365 C519 345 484 326 447 326 C417 326 390 339 357 352 C328 363 298 374 264 374 C208 374 142 338 113 320 C109 317 104 313 104 308 L104 306 C104 303 104 300 105 298 L127 221 C129 216 132 215 138 215 C142 215 146 218 149 220 C180 239 216 258 252 258 C283 258 310 245 343 233 C372 222 401 210 435 210 C492 210 557 246 586 265 C590 267 595 272 596 277 L596 277 Z " />
<glyph glyph-name="nbspace" unicode="&#xa0;" horiz-adv-x="309" d="" />
<glyph glyph-name="exclamdown" unicode="&#xa1;" horiz-adv-x="373" d="M328 497 L328 498 C328 506 322 511 313 511 L189 511 C179 511 172 505 170 497 L91 36 L91 28 C91 16 96 9 109 7 L261 -13 L268 -13 C279 -13 289 -9 290 6 L328 497 Z M374 716 L374 719 C374 731 367 739 356 739 L205 739 C194 739 183 729 182 716 L167 597 L167 593 C167 582 174 574 185 574 L336 574 C347 574 358 583 360 597 L374 716 Z " />
<glyph glyph-name="cent" unicode="&#xa2;" horiz-adv-x="522" d="M556 485 C557 488 558 491 558 493 C558 499 554 504 546 508 C528 519 478 531 418 536 L426 604 L426 607 C426 619 419 627 409 627 L329 627 C316 627 308 614 307 604 L298 533 C185 519 126 464 94 372 C76 317 66 244 66 186 C66 109 87 54 138 22 C162 7 193 -4 231 -9 L223 -76 L223 -79 C223 -87 228 -100 239 -100 L320 -100 C330 -100 341 -90 343 -76 L351 -11 C412 -6 465 6 486 16 C498 22 502 28 502 37 C502 38 502 39 501 40 L496 114 C495 125 487 127 481 127 C477 127 475 126 473 126 C449 121 412 111 366 111 C327 111 300 118 283 134 C266 150 259 176 259 211 C259 249 264 294 275 329 C294 389 330 414 404 414 C449 414 484 404 507 399 C508 398 511 398 514 398 C520 398 529 400 532 410 L556 485 Z " />
<glyph glyph-name="sterling" unicode="&#xa3;" horiz-adv-x="705" d="M736 696 C737 699 737 701 737 703 C737 709 734 715 728 717 C692 730 609 752 509 752 C426 752 337 739 279 679 C232 631 216 561 216 497 C216 462 220 426 225 393 C230 352 236 313 236 283 C236 250 228 217 208 191 C174 148 118 142 93 138 C70 135 70 124 69 114 L57 16 L57 14 C57 6 63 0 71 0 L625 0 C634 0 642 7 643 16 L657 129 L657 131 C657 138 652 145 644 145 L643 145 L342 139 C350 145 381 160 401 196 C413 218 418 242 418 267 C418 286 417 301 417 301 L569 301 C578 301 586 306 587 316 L601 427 L601 429 C601 437 595 441 586 441 L404 441 C404 441 400 475 400 505 C400 535 403 559 424 580 C452 606 497 611 538 611 C595 611 653 595 682 588 C684 587 686 587 688 587 C696 587 701 591 703 597 L736 696 Z " />
<glyph glyph-name="currency" unicode="&#xa4;" horiz-adv-x="789" d="M720 484 C723 487 725 490 725 494 C725 499 722 503 719 506 L653 581 C651 584 646 588 640 588 C637 588 634 587 631 584 L567 532 C540 543 505 551 462 551 C419 551 383 543 353 532 L302 584 C299 587 296 588 293 588 C288 588 282 584 279 581 L194 506 C190 503 185 497 185 491 C185 488 186 486 188 484 L244 428 C233 406 225 387 221 367 C217 350 215 333 214 316 L214 313 C214 293 217 276 223 255 L154 200 C150 197 148 193 148 190 C148 185 151 180 154 177 L220 102 C222 99 227 96 233 96 C236 96 239 97 243 100 L306 151 C333 140 368 133 411 133 C454 133 490 140 521 151 L571 100 C574 97 577 96 580 96 C586 96 591 99 595 102 L679 177 C683 181 688 187 688 193 C688 195 687 198 685 200 L629 255 C640 277 648 296 653 317 C656 333 658 350 659 367 L659 371 C659 390 656 408 651 428 L720 484 Z M532 375 C532 351 528 323 521 300 C508 258 483 241 424 241 C362 241 341 260 341 309 C341 333 345 361 352 384 C365 426 390 442 449 442 C511 442 532 423 532 375 L532 375 Z " />
<glyph glyph-name="yen" unicode="&#xa5;" horiz-adv-x="754" d="M842 710 C843 712 843 714 843 716 C843 725 837 739 824 739 L651 739 C637 739 628 736 619 720 L438 416 L323 719 C317 735 309 739 295 739 L112 739 C98 739 87 722 87 712 L87 709 L237 421 L117 421 C108 421 101 415 100 406 L90 324 L90 322 C90 315 95 310 104 310 L726 310 C726 310 742 316 743 325 L753 406 L753 408 C753 416 748 421 740 421 L627 421 L842 710 Z M693 250 L693 252 C693 259 688 264 679 264 L139 264 C130 264 123 258 122 249 L113 172 C112 171 112 170 112 170 C112 162 118 157 126 157 L301 157 L284 15 L284 13 C284 5 290 0 299 0 L468 0 C478 0 485 6 486 15 L504 157 L666 157 C666 157 682 163 683 172 L693 250 Z " />
<glyph glyph-name="brokenbar" unicode="&#xa6;" horiz-adv-x="323" d="M316 652 L316 655 C316 667 308 675 299 675 L190 675 C178 675 169 661 168 652 L126 312 L126 310 C126 302 131 289 143 289 L251 289 C262 289 272 298 274 312 L316 652 Z M259 188 L259 191 C259 203 251 211 242 211 L133 211 C121 211 112 198 111 188 L69 -151 L69 -154 C69 -162 74 -175 86 -175 L194 -175 C205 -175 215 -165 217 -151 L259 188 Z " />
<glyph glyph-name="section" unicode="&#xa7;" horiz-adv-x="785" d="M744 324 C744 369 733 403 710 425 C664 472 577 479 490 489 C451 494 416 496 391 504 C368 512 354 525 354 550 C354 570 363 590 381 602 C404 618 440 621 476 621 C566 621 638 598 674 591 C678 590 682 589 686 589 C693 589 699 593 704 611 L728 687 C729 690 729 692 729 694 C729 701 725 705 718 708 C640 744 539 752 480 752 C381 752 291 735 235 682 C197 646 175 592 175 539 C175 505 186 479 201 460 C226 426 261 414 261 414 L258 386 C258 386 193 377 148 327 C119 294 106 254 106 209 C106 153 130 117 166 95 C215 65 284 57 347 50 C396 45 441 43 468 30 C484 21 494 9 494 -12 C494 -28 487 -43 474 -54 C449 -76 405 -80 365 -80 C265 -80 179 -52 150 -44 C147 -43 144 -43 141 -43 C132 -43 125 -48 121 -61 L97 -133 C95 -139 94 -144 94 -148 C94 -157 98 -161 105 -164 C143 -180 227 -210 365 -210 C456 -210 572 -201 634 -126 C661 -92 676 -44 676 0 C676 31 666 53 654 71 C628 109 588 122 588 122 L591 150 C591 150 663 162 708 216 C735 248 744 283 744 324 L744 324 Z M560 274 C560 256 554 242 541 228 C519 206 484 197 472 192 L375 201 C358 202 336 206 318 216 C303 225 291 239 291 260 C291 280 298 297 311 311 C342 341 395 346 395 346 L493 335 C519 332 536 325 546 314 C557 304 560 290 560 274 L560 274 Z " />
<glyph glyph-name="dieresis" unicode="&#xa8;" horiz-adv-x="570" d="M589 751 L589 752 C589 761 579 769 565 769 L443 769 C428 769 416 760 415 751 L404 663 L404 662 C404 653 414 645 428 645 L550 645 C565 645 577 654 578 663 L589 751 Z M332 751 L332 752 C332 761 323 769 308 769 L186 769 C172 769 160 760 158 751 L148 663 L148 662 C148 653 157 645 171 645 L293 645 C308 645 320 654 321 663 L332 751 Z " />
<glyph glyph-name="copyright" unicode="&#xa9;" horiz-adv-x="971" d="M968 461 C968 541 953 623 887 677 C827 727 728 752 578 752 C345 752 221 691 156 569 C113 488 94 370 94 278 C94 198 109 116 174 62 C235 12 334 -13 484 -13 C717 -13 841 48 906 170 C949 251 968 369 968 461 L968 461 Z M862 459 C862 399 854 341 841 286 C826 225 804 178 766 145 C713 97 629 75 494 75 C359 75 281 94 239 142 C210 175 199 221 199 280 C199 340 207 398 220 453 C235 514 257 561 295 594 C348 642 432 664 567 664 C701 664 780 645 822 597 C851 564 862 518 862 459 L862 459 Z M719 557 C720 559 720 561 720 563 C720 568 718 571 710 574 C692 580 649 599 571 599 C452 599 393 557 362 486 C341 438 330 370 330 316 C330 265 338 223 365 194 C394 164 441 147 516 147 C594 147 641 165 661 171 C672 174 674 179 674 186 L674 188 L670 240 C669 245 666 248 661 248 C659 248 657 247 655 247 C642 244 594 231 552 231 C512 231 486 239 471 254 C455 270 450 293 450 324 C450 357 455 399 464 431 C481 489 513 515 587 515 C629 515 673 500 686 497 L691 497 C697 497 701 500 702 504 L719 557 Z " />
<glyph glyph-name="ordfeminine" unicode="&#xaa;" horiz-adv-x="473" d="M464 676 C464 692 462 708 452 722 C429 751 374 752 337 752 C277 752 230 745 183 733 C179 732 169 728 169 719 L169 718 L173 672 C173 667 176 665 179 665 C182 665 185 666 188 667 C227 675 268 683 307 683 C331 683 347 681 356 677 C365 673 368 667 368 659 L368 657 C368 650 365 637 365 637 L266 622 C224 615 183 609 157 585 C135 565 126 536 126 507 C126 477 136 457 153 444 C186 416 243 416 280 416 C317 416 351 420 372 424 C424 435 437 447 443 492 L462 638 C464 651 464 663 464 676 L464 676 Z M440 354 L440 356 C440 363 434 369 426 369 L126 369 C118 369 110 362 109 354 L104 312 L104 310 C104 303 110 298 118 298 L417 298 C426 298 433 304 434 312 L440 354 Z M358 572 L347 489 C328 484 307 482 288 482 C268 482 249 483 237 492 C230 497 226 505 226 518 C226 528 229 537 235 544 C244 555 259 557 274 560 L358 572 Z " />
<glyph glyph-name="guillemotleft" unicode="&#xab;" horiz-adv-x="630" d="M401 468 C403 471 404 474 404 477 C404 483 402 488 399 490 L316 539 C315 540 313 540 310 540 C304 540 296 538 292 532 L88 303 C84 299 82 293 82 287 C82 283 83 279 85 276 L232 47 C235 42 242 39 248 39 C251 39 253 40 255 40 L349 90 C353 92 358 99 358 106 C358 108 358 110 357 112 L236 289 L401 468 Z M637 468 C639 470 640 474 640 477 C640 482 637 488 634 490 L563 539 C562 540 560 540 557 540 C551 540 543 538 538 532 L335 303 C331 299 329 293 329 287 C329 283 330 279 332 276 L479 47 C482 42 489 39 495 39 C498 39 500 40 502 40 L585 90 C589 92 594 99 594 106 C594 108 594 110 593 112 L472 289 L637 468 Z " />
<glyph glyph-name="logicalnot" unicode="&#xac;" horiz-adv-x="627" d="M625 369 L625 371 C625 378 619 391 603 391 L121 391 C106 391 94 380 93 369 L83 289 L83 286 C83 274 98 267 106 267 L464 267 L451 163 L451 160 C451 149 462 141 474 141 L572 141 C588 141 599 154 600 163 L625 369 Z " />
<glyph glyph-name="registered" unicode="&#xae;" horiz-adv-x="971" d="M968 461 C968 541 953 623 887 677 C827 727 728 752 578 752 C345 752 221 691 156 569 C113 488 94 370 94 278 C94 198 109 116 174 62 C235 12 334 -13 484 -13 C717 -13 841 48 906 170 C949 251 968 369 968 461 L968 461 Z M862 459 C862 399 854 341 841 286 C826 225 804 178 766 145 C713 97 629 75 494 75 C359 75 281 94 239 142 C210 175 199 221 199 280 C199 340 207 398 220 453 C235 514 257 561 295 594 C348 642 432 664 567 664 C701 664 780 645 822 597 C851 564 862 518 862 459 L862 459 Z M734 485 C734 514 728 536 713 552 C690 577 649 586 595 586 L390 586 C384 586 379 582 378 577 L328 167 L328 166 C328 162 331 159 337 159 L434 159 C440 159 444 162 445 167 L464 319 L517 317 C540 316 567 317 581 305 C589 299 593 292 593 279 C593 272 592 264 592 258 L586 166 C586 162 590 159 595 159 L694 159 C700 159 704 168 704 168 L708 231 C709 243 709 255 709 267 C709 288 706 302 700 314 C687 336 661 344 615 345 L617 363 C665 368 695 383 712 408 C728 429 734 458 734 485 L734 485 Z M612 462 C612 446 609 428 600 414 C588 397 568 390 536 389 L472 386 L487 509 L554 509 C578 509 593 505 602 496 C609 488 612 477 612 462 L612 462 Z " />
<glyph glyph-name="macron" unicode="&#xaf;" horiz-adv-x="467" d="M485 744 C486 748 486 750 486 753 C486 762 480 766 470 769 C432 779 384 786 330 786 C276 786 227 779 187 769 C173 765 165 760 165 746 L165 744 L168 682 C169 672 175 669 183 669 C188 669 193 670 197 671 C237 679 278 684 318 684 C357 684 397 679 435 671 C439 670 444 669 449 669 C456 669 464 672 466 682 L485 744 Z " />
<glyph glyph-name="degree" unicode="&#xb0;" horiz-adv-x="427" d="M457 614 C457 653 441 689 413 714 C386 738 348 752 306 752 C254 752 201 730 164 692 C137 665 118 630 118 588 C118 551 132 518 157 494 C184 468 223 452 269 452 C323 452 374 475 409 510 C437 538 457 574 457 614 L457 614 Z M362 610 C362 592 354 574 341 562 C326 546 303 536 279 536 C259 536 242 542 230 553 C219 564 212 577 212 593 C212 611 220 629 233 642 C249 658 271 668 294 668 C314 668 331 662 343 651 C355 640 362 626 362 610 L362 610 Z " />
<glyph glyph-name="plusminus" unicode="&#xb1;" horiz-adv-x="627" d="M609 423 L609 427 C609 436 604 443 589 443 L438 443 L454 567 L454 572 C454 584 447 589 436 589 L333 589 C321 589 311 583 310 567 L294 443 L142 443 C125 443 118 435 117 423 L107 341 C107 340 106 339 106 337 C106 328 112 321 127 321 L279 321 L263 198 L263 193 C263 180 271 176 281 176 L385 176 C397 176 406 181 408 198 L423 321 L574 321 C591 321 598 329 599 341 L609 423 Z M575 100 L575 103 C575 114 566 123 553 123 L106 123 C91 123 79 112 78 100 L68 23 L68 20 C68 7 83 0 91 0 L537 0 C548 0 564 8 566 23 L575 100 Z " />
<glyph glyph-name="twosuperior" unicode="&#xb2;" horiz-adv-x="553" d="M533 636 C532 715 479 752 356 752 C278 752 206 739 167 726 C158 723 150 714 150 704 L150 702 L154 648 C155 641 163 634 172 634 L175 634 C223 645 271 657 320 657 C365 657 393 648 393 616 C393 595 384 579 367 566 C351 554 329 545 300 530 C300 530 190 475 163 457 C147 446 129 422 126 398 L113 290 L113 288 C113 278 122 271 135 271 L471 271 C484 271 493 279 495 290 L503 361 C504 362 504 363 504 363 C504 375 491 379 484 379 L249 373 L251 389 L387 451 C430 470 471 498 498 533 C522 565 533 597 533 636 L533 636 Z " />
<glyph glyph-name="threesuperior" unicode="&#xb3;" horiz-adv-x="542" d="M525 641 C525 725 451 752 353 752 C273 752 190 732 167 724 C156 721 150 713 150 705 L150 703 L155 649 C156 641 158 633 169 633 C171 633 173 634 175 634 C221 643 268 657 315 657 C359 657 387 650 387 617 C387 603 383 588 373 578 C359 565 338 562 314 559 C299 557 285 556 268 553 C266 552 251 550 250 536 L243 483 L243 481 C243 470 258 466 260 466 C277 463 291 461 305 459 C340 455 371 452 371 418 C371 402 366 385 355 375 C339 360 314 355 277 355 C235 355 192 360 162 368 C160 369 158 369 156 369 C148 369 141 364 139 355 L125 300 C124 298 124 296 124 295 C124 287 129 282 135 280 C161 270 235 260 293 260 C352 260 412 271 454 302 C489 329 509 370 509 414 C509 470 475 497 407 505 L408 520 C445 525 483 540 505 572 C519 592 525 617 525 641 L525 641 Z " />
<glyph glyph-name="acute" unicode="&#xb4;" horiz-adv-x="382" d="M399 740 L354 813 C352 817 348 818 344 818 C342 818 339 817 336 816 L155 701 C151 698 149 694 149 691 C149 689 149 687 150 685 L191 619 C193 615 197 614 201 614 C203 614 206 614 209 616 L395 725 C399 727 401 731 401 734 C401 736 400 738 399 740 L399 740 Z " />
<glyph glyph-name="mu" unicode="&#xb5;" horiz-adv-x="621" d="M624 518 C625 520 625 521 625 522 C625 534 617 538 607 538 L601 538 L457 517 C440 514 434 504 432 488 L391 156 C387 117 377 111 339 111 C307 111 269 124 269 124 L317 518 L317 522 C317 534 310 538 300 538 L293 538 L150 517 C133 514 127 504 125 488 L42 -191 C41 -192 41 -193 41 -194 C41 -206 49 -211 59 -211 C61 -211 64 -210 66 -210 L209 -189 C226 -186 232 -177 234 -160 L247 -49 L240 18 C240 18 326 -13 426 -13 C521 -13 564 26 576 126 L624 518 Z " />
<glyph glyph-name="paragraph" unicode="&#xb6;" horiz-adv-x="774" d="M579 722 L579 723 C579 729 571 739 565 739 L379 739 C250 739 175 695 135 618 C109 569 97 505 97 448 C97 375 118 329 153 301 C191 271 245 262 303 262 L320 262 L377 264 L322 -189 C321 -190 321 -192 321 -193 C321 -206 330 -211 341 -211 C343 -211 345 -210 347 -210 L445 -195 C463 -192 468 -181 471 -164 L579 722 Z M798 730 C799 732 799 733 799 734 C799 748 790 752 779 752 C777 752 775 752 773 751 L675 736 C657 734 651 723 649 706 L542 -169 L542 -173 C542 -186 550 -191 561 -191 C563 -191 565 -190 568 -190 L665 -175 C683 -172 689 -161 691 -144 L798 730 Z M420 613 L392 388 L378 388 C343 389 317 390 299 399 C278 408 267 427 267 463 L267 464 C267 485 270 506 273 527 C279 557 286 577 298 590 C317 610 349 613 405 613 L420 613 Z " />
<glyph glyph-name="periodcentered" unicode="&#xb7;" horiz-adv-x="263" d="M262 343 L262 346 C262 358 254 366 244 366 L110 366 C99 366 88 356 86 343 L71 223 L71 220 C71 209 79 201 89 201 L224 201 C234 201 245 210 247 223 L262 343 Z " />
<glyph glyph-name="cedilla" unicode="&#xb8;" horiz-adv-x="360" d="M276 -105 C276 -83 272 -67 261 -55 C245 -38 215 -31 173 -31 C133 -31 106 -33 73 -41 C68 -42 63 -47 63 -55 L63 -86 C63 -92 67 -95 73 -95 C75 -95 76 -95 78 -94 C92 -92 117 -90 138 -90 C152 -90 162 -91 168 -95 C174 -99 177 -106 177 -115 C177 -124 174 -134 168 -141 C161 -149 149 -151 131 -151 C110 -151 89 -148 75 -146 C73 -145 72 -145 70 -145 C64 -145 60 -147 58 -154 L51 -185 C50 -186 50 -188 50 -189 C50 -195 53 -198 57 -199 C88 -207 111 -210 151 -210 C200 -210 234 -200 254 -176 C270 -157 276 -129 276 -105 L276 -105 Z " />
<glyph glyph-name="onesuperior" unicode="&#xb9;" horiz-adv-x="443" d="M382 729 C383 730 383 732 383 733 C383 743 377 752 367 752 L366 752 L181 731 C168 729 163 724 162 714 L155 656 C154 655 154 654 154 653 C154 644 159 641 170 640 L242 634 L200 293 L200 290 C200 279 207 271 217 271 L307 271 C317 271 327 281 329 293 L382 729 Z " />
<glyph glyph-name="ordmasculine" unicode="&#xba;" horiz-adv-x="473" d="M484 624 C484 658 478 692 454 715 C432 738 393 752 331 752 C232 752 185 717 161 669 C144 635 136 587 136 547 C136 510 142 476 168 452 C190 430 228 416 289 416 C380 416 427 447 453 488 C475 525 484 581 484 624 L484 624 Z M386 629 C386 607 382 581 378 559 C371 510 357 481 298 481 C274 481 258 486 249 495 C237 506 235 522 235 544 C235 569 241 611 247 634 C256 667 274 686 323 686 C351 686 367 680 376 668 C383 659 386 647 386 629 L386 629 Z M447 353 C448 354 448 355 448 355 C448 363 442 368 434 368 L134 368 C125 368 118 362 117 353 L112 312 L112 310 C112 303 117 297 126 297 L425 297 C434 297 441 303 442 312 L447 353 Z " />
<glyph glyph-name="guillemotright" unicode="&#xbb;" horiz-adv-x="630" d="M616 303 L469 532 C466 538 459 540 453 540 C450 540 448 540 446 539 L352 490 C348 488 343 480 343 473 C343 471 343 470 344 468 L465 289 L301 111 C298 109 297 106 297 102 C297 97 300 91 303 89 L385 40 C387 40 389 39 392 39 C397 39 405 42 410 47 L613 276 C617 281 619 287 619 293 C619 297 618 300 616 303 L616 303 Z M369 303 L222 532 C219 538 212 540 206 540 C203 540 201 540 199 539 L116 490 C112 487 107 480 107 473 C107 471 107 470 108 468 L229 289 L65 111 C63 109 62 106 62 102 C62 97 65 92 67 89 L138 40 C140 40 142 39 144 39 C150 39 158 42 163 47 L366 276 C370 281 372 287 372 293 C372 297 371 300 369 303 L369 303 Z " />
<glyph glyph-name="onequarter" unicode="&#xbc;" horiz-adv-x="1146" d="M1084 177 L1084 179 C1084 188 1075 196 1063 196 L1013 196 L1044 447 L1044 450 C1044 461 1036 469 1027 469 L869 469 C862 469 851 463 847 458 L640 219 C630 208 628 202 626 189 L618 121 L618 118 C618 107 625 98 635 98 L879 98 L870 23 L870 19 C870 8 877 0 887 0 L972 0 C983 0 993 10 995 23 L1004 98 L1051 98 C1064 98 1075 107 1077 117 L1084 177 Z M861 672 C863 674 864 677 864 679 C864 681 863 684 861 685 L787 740 C786 740 784 741 782 741 C779 741 776 740 774 738 L238 64 C238 64 237 60 237 56 C237 54 237 52 239 51 L312 -3 C314 -4 315 -5 317 -5 C320 -5 323 -4 325 -1 L861 672 Z M382 729 C383 730 383 732 383 733 C383 743 377 752 367 752 L366 752 L181 731 C168 729 163 724 162 714 L155 656 C154 655 154 654 154 653 C154 644 159 641 170 640 L242 634 L200 293 L200 290 C200 279 207 271 217 271 L307 271 C317 271 327 281 329 293 L382 729 Z M915 381 L892 196 L747 196 L907 381 L915 381 Z " />
<glyph glyph-name="onehalf" unicode="&#xbd;" horiz-adv-x="1167" d="M1113 366 C1113 444 1060 481 936 481 C858 481 787 469 748 456 C738 453 731 443 731 433 L731 432 L735 378 C735 371 744 363 752 363 C753 363 754 364 755 364 C803 375 852 386 900 386 C946 386 973 377 973 346 C973 324 964 308 947 295 C932 284 909 274 881 259 C881 259 771 205 744 186 C728 175 710 152 707 128 L693 19 L693 17 C693 8 703 0 715 0 L1051 0 C1064 0 1074 8 1075 19 L1084 91 L1084 93 C1084 105 1072 109 1065 109 L1064 109 L830 103 L832 119 L967 180 C1011 200 1052 228 1079 263 C1103 294 1113 327 1113 366 L1113 366 Z M861 672 C863 674 864 677 864 679 C864 681 863 684 861 685 L787 740 C786 740 784 741 782 741 C779 741 776 740 774 737 L238 64 C238 64 237 60 237 56 C237 54 237 52 239 51 L312 -3 C314 -4 315 -5 317 -5 C320 -5 323 -4 325 -1 L861 672 Z M382 729 C383 730 383 732 383 733 C383 743 377 752 367 752 L366 752 L181 731 C168 729 163 724 162 714 L155 656 C154 655 154 654 154 653 C154 644 159 641 170 640 L242 634 L200 293 L200 290 C200 279 207 271 217 271 L307 271 C317 271 327 281 329 293 L382 729 Z " />
<glyph glyph-name="threequarters" unicode="&#xbe;" horiz-adv-x="1271" d="M1209 178 L1209 180 C1209 189 1200 197 1188 197 L1138 197 L1169 449 L1169 452 C1169 463 1162 472 1152 472 L995 472 C988 472 977 465 972 460 L765 220 C755 209 753 203 751 190 L743 121 L743 118 C743 107 750 99 760 99 L1005 99 L995 23 L995 20 C995 8 1003 0 1012 0 L1098 0 C1108 0 1119 10 1120 23 L1129 99 L1176 99 C1189 99 1201 107 1202 118 L1209 178 Z M525 641 C525 725 451 752 353 752 C273 752 190 732 167 724 C156 721 150 713 150 705 L150 703 L155 649 C156 641 158 633 169 633 C171 633 173 634 175 634 C221 643 268 657 315 657 C359 657 387 650 387 617 C387 603 383 588 373 578 C359 565 338 562 314 559 C299 557 285 556 268 553 C266 552 251 550 250 536 L243 483 L243 481 C243 470 258 466 260 466 C277 463 291 461 305 459 C340 455 371 452 371 418 C371 402 366 385 355 375 C339 360 314 355 277 355 C235 355 192 360 162 368 C160 369 158 369 156 369 C148 369 141 364 139 355 L125 300 C124 298 124 296 124 295 C124 287 129 282 135 280 C161 270 235 260 293 260 C352 260 412 271 454 302 C489 329 509 370 509 414 C509 470 475 497 407 505 L408 520 C445 525 483 540 505 572 C519 592 525 617 525 641 L525 641 Z M986 672 C987 674 988 677 988 679 C988 681 987 684 985 685 L911 740 C910 740 908 741 906 741 C903 741 900 740 899 737 L362 64 C362 64 361 60 361 56 C361 54 361 52 363 51 L437 -3 C438 -4 440 -5 441 -5 C444 -5 447 -4 449 -1 L986 672 Z M1041 383 L1018 197 L872 197 L1033 383 L1041 383 Z " />
<glyph glyph-name="questiondown" unicode="&#xbf;" horiz-adv-x="627" d="M567 52 L560 123 C560 127 559 139 545 139 L539 139 C516 133 438 115 379 115 C352 115 322 118 302 130 C288 139 278 151 278 171 C278 195 288 212 305 228 C322 243 346 256 370 271 C432 307 481 344 490 417 C492 430 492 445 492 459 C492 474 492 486 491 492 C489 502 492 509 476 509 L343 509 C327 509 318 504 317 489 C317 467 318 461 315 441 C308 382 266 369 205 332 C164 307 131 284 108 254 C82 221 74 180 74 141 C74 71 113 33 162 12 C214 -10 277 -13 323 -13 C438 -13 525 12 550 20 C565 24 568 33 568 41 C568 45 567 49 567 52 L567 52 Z M522 716 L522 719 C522 731 514 739 504 739 L353 739 C341 739 331 729 329 716 L315 597 C314 596 314 594 314 593 C314 582 322 574 332 574 L484 574 C495 574 506 583 507 597 L522 716 Z " />
<glyph glyph-name="Agrave" unicode="&#xc0;" horiz-adv-x="814" d="M799 16 L667 727 C666 734 660 739 651 739 L345 739 C337 739 329 734 326 727 L19 16 L19 12 C19 5 27 0 35 0 L206 0 C215 0 224 7 227 16 L313 238 L558 238 L589 18 C591 9 598 0 608 0 L782 0 C791 0 800 6 800 14 C800 14 799 15 799 16 L799 16 Z M538 376 L366 376 L457 607 L504 607 L538 376 Z M627 862 C629 865 630 868 630 870 C630 873 629 876 626 878 L473 993 C471 994 468 995 465 995 C462 995 458 994 455 990 L391 917 C389 915 388 912 388 909 C388 906 389 903 392 902 L551 793 C553 792 556 791 559 791 C563 791 566 792 570 796 L627 862 Z " />
<glyph glyph-name="Aacute" unicode="&#xc1;" horiz-adv-x="814" d="M799 16 L667 727 C666 734 660 739 651 739 L345 739 C337 739 329 734 326 727 L19 16 L19 12 C19 5 27 0 35 0 L206 0 C215 0 224 7 227 16 L313 238 L558 238 L589 18 C591 9 598 0 608 0 L782 0 C791 0 800 6 800 14 C800 14 799 15 799 16 L799 16 Z M538 376 L366 376 L457 607 L504 607 L538 376 Z M630 918 L585 991 C582 995 579 996 575 996 C572 996 570 995 567 994 L386 879 C382 876 380 872 380 869 C380 867 380 865 381 863 L422 797 C424 793 428 792 431 792 C434 792 437 792 440 794 L626 903 C630 905 632 909 632 912 C632 914 631 916 630 918 L630 918 Z " />
<glyph glyph-name="Acircumflex" unicode="&#xc2;" horiz-adv-x="814" d="M799 16 L667 727 C666 734 660 739 651 739 L345 739 C337 739 329 734 326 727 L19 16 L19 12 C19 5 27 0 35 0 L206 0 C215 0 224 7 227 16 L313 238 L558 238 L589 18 C591 9 598 0 608 0 L782 0 C791 0 800 6 800 14 C800 14 799 15 799 16 L799 16 Z M680 867 C682 869 683 872 683 875 C683 877 682 880 679 882 L535 987 L499 987 L329 882 C325 880 323 876 323 872 C323 870 324 868 325 867 L368 799 C370 795 374 794 378 794 C380 794 383 794 385 796 L504 880 L602 796 C604 794 607 794 609 794 C613 794 617 795 621 799 L680 867 Z M538 376 L366 376 L457 607 L504 607 L538 376 Z " />
<glyph glyph-name="Atilde" unicode="&#xc3;" horiz-adv-x="814" d="M799 16 L667 727 C666 734 660 739 651 739 L345 739 C337 739 329 734 326 727 L19 16 L19 12 C19 5 27 0 35 0 L206 0 C215 0 224 7 227 16 L313 238 L558 238 L589 18 C591 9 598 0 608 0 L782 0 C791 0 800 6 800 14 C800 14 799 15 799 16 L799 16 Z M703 870 L703 873 C703 875 703 878 702 880 L678 941 C676 946 673 948 667 948 C664 948 660 945 657 943 C634 925 603 902 580 902 L579 902 C561 903 539 918 525 927 C505 940 482 952 454 953 L451 953 C405 953 353 915 325 894 C322 891 317 887 316 882 L316 879 C316 877 316 874 317 873 L341 811 C343 806 346 804 352 804 C355 804 359 807 362 809 C385 827 416 850 439 850 L440 850 C458 849 480 834 494 825 C514 813 537 800 565 799 L568 799 C614 799 666 837 694 858 C697 861 702 865 703 870 L703 870 Z M538 376 L366 376 L457 607 L504 607 L538 376 Z " />
<glyph glyph-name="Adieresis" unicode="&#xc4;" horiz-adv-x="814" d="M799 16 L667 727 C666 734 660 739 651 739 L345 739 C337 739 329 734 326 727 L19 16 L19 12 C19 5 27 0 35 0 L206 0 C215 0 224 7 227 16 L313 238 L558 238 L589 18 C591 9 598 0 608 0 L782 0 C791 0 800 6 800 14 C800 14 799 15 799 16 L799 16 Z M538 376 L366 376 L457 607 L504 607 L538 376 Z M473 939 L473 940 C473 949 463 957 449 957 L327 957 C312 957 300 948 299 939 L288 852 L288 850 C288 841 298 833 312 833 L434 833 C449 833 461 842 462 852 L473 939 Z M729 939 L729 940 C729 949 720 957 706 957 L584 957 C569 957 557 948 556 939 L545 852 L545 850 C545 841 554 833 569 833 L690 833 C705 833 717 842 719 852 L729 939 Z " />
<glyph glyph-name="Aring" unicode="&#xc5;" horiz-adv-x="814" d="M799 16 L667 727 C666 734 660 739 651 739 L345 739 C337 739 329 734 326 727 L19 16 L19 12 C19 5 27 0 35 0 L206 0 C215 0 224 7 227 16 L313 238 L558 238 L589 18 C591 9 598 0 608 0 L782 0 C791 0 800 6 800 14 C800 14 799 15 799 16 L799 16 Z M669 896 C669 931 659 954 638 970 C614 989 574 997 522 997 C457 997 409 985 380 955 C355 930 345 894 345 860 C345 824 357 799 381 784 C406 767 443 761 493 761 C561 761 610 774 639 807 C660 831 669 865 669 896 L669 896 Z M538 376 L366 376 L457 607 L504 607 L538 376 Z M553 899 C553 886 550 873 548 860 C541 829 529 814 499 814 C483 814 473 818 467 827 C463 834 462 844 462 858 C462 873 464 893 469 908 C476 932 489 944 515 944 C530 944 539 940 545 933 C551 926 553 915 553 899 L553 899 Z " />
<glyph glyph-name="AE" unicode="&#xc6;" horiz-adv-x="1017" d="M1036 724 L1036 726 C1036 734 1030 739 1021 739 L326 739 C317 739 310 734 307 727 L19 16 L19 12 C19 5 27 0 35 0 L205 0 C215 0 224 7 227 16 L313 254 L478 254 L449 16 L449 14 C449 6 456 0 465 0 L930 0 C940 0 948 6 949 15 L963 127 L963 129 C963 137 957 142 948 142 L667 142 L687 302 L954 302 C964 302 972 308 973 317 L987 429 L987 431 C987 439 981 443 972 443 L704 443 L723 596 L1004 596 C1013 596 1021 603 1022 612 L1036 724 Z M522 614 L496 397 L361 397 L439 614 L522 614 Z " />
<glyph glyph-name="Ccedilla" unicode="&#xc7;" horiz-adv-x="712" d="M759 685 C760 688 761 692 761 695 C761 702 757 709 744 713 C713 723 641 748 510 748 C324 748 214 697 154 565 C116 483 98 365 98 272 C98 171 121 101 173 57 C225 13 305 -6 418 -6 C549 -6 626 17 660 27 C678 33 682 42 682 52 L682 55 L675 148 C675 155 670 160 660 160 C657 160 654 160 651 159 C629 154 547 135 476 135 C418 135 377 144 350 164 C317 189 305 230 305 290 C305 349 316 436 336 490 C365 572 420 608 534 608 C605 608 682 586 703 580 C706 580 709 579 711 579 C721 579 728 584 730 592 L759 685 Z M510 -105 C510 -83 505 -67 495 -55 C478 -38 449 -31 406 -31 C366 -31 340 -33 307 -41 C302 -42 297 -47 297 -55 L297 -86 C297 -92 301 -95 307 -95 C308 -95 310 -95 312 -94 C326 -92 351 -90 372 -90 C385 -90 395 -91 402 -95 C408 -99 410 -106 410 -115 C410 -124 408 -134 401 -141 C394 -149 382 -151 364 -151 C344 -151 322 -148 309 -146 C307 -145 305 -145 304 -145 C298 -145 293 -147 292 -154 L284 -185 L284 -189 C284 -195 287 -198 291 -199 C322 -207 344 -210 384 -210 C433 -210 467 -200 488 -176 C503 -157 510 -129 510 -105 L510 -105 Z " />
<glyph glyph-name="Egrave" unicode="&#xc8;" horiz-adv-x="705" d="M724 724 L724 726 C724 734 718 739 709 739 L203 739 C193 739 184 732 183 723 L96 16 L96 14 C96 6 103 0 112 0 L618 0 C628 0 636 6 637 15 L651 127 L651 129 C651 137 645 142 636 142 L314 142 L334 304 L641 304 C650 304 658 310 659 319 L673 433 L673 435 C673 443 667 447 658 447 L351 447 L370 596 L692 596 C701 596 709 602 710 611 L724 724 Z M594 863 C596 866 597 869 597 871 C597 874 596 877 593 879 L440 994 C438 995 435 996 433 996 C429 996 425 995 422 991 L359 918 C357 916 355 913 355 910 C355 907 356 904 359 903 L519 794 C521 793 523 792 526 792 C530 792 534 793 537 797 L594 863 Z " />
<glyph glyph-name="Eacute" unicode="&#xc9;" horiz-adv-x="705" d="M724 724 L724 726 C724 734 718 739 709 739 L203 739 C193 739 184 732 183 723 L96 16 L96 14 C96 6 103 0 112 0 L618 0 C628 0 636 6 637 15 L651 127 L651 129 C651 137 645 142 636 142 L314 142 L334 304 L641 304 C650 304 658 310 659 319 L673 433 L673 435 C673 443 667 447 658 447 L351 447 L370 596 L692 596 C701 596 709 602 710 611 L724 724 Z M605 917 L559 990 C557 994 553 995 550 995 C547 995 544 994 542 993 L360 878 C356 875 354 871 354 868 C354 866 355 864 356 862 L397 796 C399 792 402 791 406 791 C409 791 412 791 414 793 L600 902 C604 904 606 908 606 911 C606 913 606 915 605 917 L605 917 Z " />
<glyph glyph-name="Ecircumflex" unicode="&#xca;" horiz-adv-x="705" d="M724 724 L724 726 C724 734 718 739 709 739 L203 739 C193 739 184 732 183 723 L96 16 L96 14 C96 6 103 0 112 0 L618 0 C628 0 636 6 637 15 L651 127 L651 129 C651 137 645 142 636 142 L314 142 L334 304 L641 304 C650 304 658 310 659 319 L673 433 L673 435 C673 443 667 447 658 447 L351 447 L370 596 L692 596 C701 596 709 602 710 611 L724 724 Z M652 867 C654 869 655 872 655 875 C655 878 654 880 651 882 L507 987 L471 987 L301 882 C297 880 295 876 295 872 C295 871 296 869 297 867 L340 799 C342 795 346 794 349 794 C352 794 355 795 357 796 L476 881 L574 796 C576 795 578 794 581 794 C585 794 589 795 592 799 L652 867 Z " />
<glyph glyph-name="Edieresis" unicode="&#xcb;" horiz-adv-x="705" d="M724 724 L724 726 C724 734 718 739 709 739 L203 739 C193 739 184 732 183 723 L96 16 L96 14 C96 6 103 0 112 0 L618 0 C628 0 636 6 637 15 L651 127 L651 129 C651 137 645 142 636 142 L314 142 L334 304 L641 304 C650 304 658 310 659 319 L673 433 L673 435 C673 443 667 447 658 447 L351 447 L370 596 L692 596 C701 596 709 602 710 611 L724 724 Z M438 939 L438 940 C438 949 429 957 415 957 L293 957 C278 957 266 948 265 939 L254 851 L254 850 C254 841 263 833 278 833 L400 833 C414 833 426 842 428 851 L438 939 Z M695 939 L695 940 C695 949 685 957 671 957 L549 957 C534 957 523 948 521 939 L511 851 L511 850 C511 841 520 833 534 833 L656 833 C671 833 683 842 684 851 L695 939 Z " />
<glyph glyph-name="Igrave" unicode="&#xcc;" horiz-adv-x="390" d="M387 737 L387 739 C387 746 382 752 374 752 L372 752 L201 732 C191 731 183 726 182 717 L96 15 L96 13 C96 5 102 0 111 0 L280 0 C289 0 297 6 298 15 L387 737 Z M424 863 C426 866 427 869 427 871 C427 874 426 877 423 879 L270 994 C268 995 265 996 263 996 C259 996 255 995 252 991 L189 918 C187 916 185 913 185 910 C185 907 186 904 189 903 L349 794 C351 793 353 792 356 792 C360 792 364 793 367 797 L424 863 Z " />
<glyph glyph-name="Iacute" unicode="&#xcd;" horiz-adv-x="390" d="M387 737 L387 739 C387 746 382 752 374 752 L372 752 L201 732 C191 731 183 726 182 717 L96 15 L96 13 C96 5 102 0 111 0 L280 0 C289 0 297 6 298 15 L387 737 Z M419 918 L373 991 C371 995 367 996 364 996 C361 996 358 995 356 994 L174 879 C170 876 168 872 168 869 C168 867 169 865 170 863 L211 797 C213 793 216 792 220 792 C223 792 226 792 228 794 L414 903 C418 905 420 909 420 912 C420 914 420 916 419 918 L419 918 Z " />
<glyph glyph-name="Icircumflex" unicode="&#xce;" horiz-adv-x="390" d="M387 737 L387 739 C387 746 382 752 374 752 L372 752 L201 732 C191 731 183 726 182 717 L96 15 L96 13 C96 5 102 0 111 0 L280 0 C289 0 297 6 298 15 L387 737 Z M481 867 C484 869 485 872 485 875 C485 878 484 880 481 882 L337 987 L301 987 L131 882 C127 880 125 876 125 872 C125 870 125 868 126 867 L169 799 C172 795 175 794 179 794 C182 794 184 794 187 796 L306 880 L404 796 C406 794 408 794 411 794 C415 794 419 795 422 799 L481 867 Z " />
<glyph glyph-name="Idieresis" unicode="&#xcf;" horiz-adv-x="390" d="M393 737 L393 739 C393 746 388 752 380 752 L378 752 L207 732 C197 731 189 726 188 717 L102 15 L102 13 C102 5 108 0 117 0 L286 0 C296 0 303 6 304 15 L393 737 Z M536 939 L537 940 C537 949 527 957 513 957 L391 957 C376 957 364 948 363 939 L352 851 L352 850 C352 841 362 833 376 833 L498 833 C513 833 525 842 526 851 L536 939 Z M280 939 L280 940 C280 949 270 957 256 957 L134 957 C119 957 108 948 106 939 L96 851 L96 850 C96 841 105 833 119 833 L241 833 C256 833 268 842 269 851 L280 939 Z " />
<glyph glyph-name="Eth" unicode="&#xd0;" horiz-adv-x="862" d="M856 472 C856 558 838 626 790 672 C744 716 670 739 557 739 L224 739 C215 739 206 732 205 724 L170 433 L77 433 C69 433 58 428 56 419 L45 329 L45 328 C45 320 52 314 62 314 L155 314 L118 16 L118 14 C118 6 125 0 133 0 L466 0 C687 0 782 91 825 246 C846 318 856 397 856 472 L856 472 Z M649 470 C649 418 643 366 634 315 C611 177 570 133 461 133 L335 133 L357 314 L515 314 C526 314 535 321 536 329 L547 419 L547 420 C547 429 536 433 530 433 L372 433 L393 607 L520 607 C575 607 610 595 629 565 C644 544 649 513 649 470 L649 470 Z " />
<glyph glyph-name="Ntilde" unicode="&#xd1;" horiz-adv-x="896" d="M890 719 C891 721 891 722 891 723 C891 737 880 739 867 739 L721 739 C707 739 694 737 692 720 L629 107 L609 107 L539 726 C538 735 530 739 520 739 L203 739 C193 739 184 732 183 724 L96 15 L96 13 C96 5 102 0 111 0 L278 0 C288 0 295 6 296 15 L350 590 L379 590 L450 16 C452 7 459 0 469 0 L786 0 C795 0 803 6 804 15 L890 719 Z M761 870 C762 871 762 872 762 873 C762 875 761 878 761 880 L737 941 C735 946 732 948 726 948 C722 948 719 945 716 943 C692 925 662 902 639 902 L638 902 C620 903 598 918 583 927 C563 940 540 952 513 953 L510 953 C464 953 412 915 384 894 C380 891 375 887 375 882 C375 881 374 880 374 879 C374 877 375 874 376 873 L399 811 C401 806 404 804 410 804 C414 804 417 807 420 809 C444 827 474 850 497 850 L498 850 C516 849 538 834 553 825 C573 813 596 800 623 799 L626 799 C672 799 724 837 752 858 C756 861 761 865 761 870 L761 870 Z " />
<glyph glyph-name="Ograve" unicode="&#xd2;" horiz-adv-x="859" d="M852 470 C852 562 832 636 775 684 C724 728 643 752 522 752 C317 752 211 685 155 567 C116 484 97 363 97 268 C97 178 116 107 169 59 C220 12 302 -13 428 -13 C651 -13 757 67 808 206 C837 283 852 386 852 470 L852 470 Z M646 478 C646 418 637 345 625 285 C602 170 561 121 444 121 C394 121 360 130 338 148 C312 171 303 208 303 261 C303 322 314 407 327 469 C351 575 393 619 505 619 C563 619 599 607 621 582 C640 559 646 526 646 478 L646 478 Z M631 863 C633 866 634 869 634 871 C634 874 633 877 630 879 L477 994 C475 995 472 996 470 996 C466 996 462 995 459 991 L396 918 C394 916 392 913 392 910 C392 907 393 904 396 903 L556 794 C558 793 560 792 563 792 C567 792 571 793 574 797 L631 863 Z " />
<glyph glyph-name="Oacute" unicode="&#xd3;" horiz-adv-x="859" d="M852 470 C852 562 832 636 775 684 C724 728 643 752 522 752 C317 752 211 685 155 567 C116 484 97 363 97 268 C97 178 116 107 169 59 C220 12 302 -13 428 -13 C651 -13 757 67 808 206 C837 283 852 386 852 470 L852 470 Z M646 478 C646 418 637 345 625 285 C602 170 561 121 444 121 C394 121 360 130 338 148 C312 171 303 208 303 261 C303 322 314 407 327 469 C351 575 393 619 505 619 C563 619 599 607 621 582 C640 559 646 526 646 478 L646 478 Z M661 918 L616 991 C614 995 610 996 606 996 C603 996 601 995 598 994 L417 879 C413 876 411 872 411 869 C411 867 411 865 412 863 L453 797 C455 793 459 792 463 792 C465 792 468 792 471 794 L657 903 C661 905 663 909 663 912 C663 914 662 916 661 918 L661 918 Z " />
<glyph glyph-name="Ocircumflex" unicode="&#xd4;" horiz-adv-x="859" d="M852 470 C852 562 832 636 775 684 C724 728 643 752 522 752 C317 752 211 685 155 567 C116 484 97 363 97 268 C97 178 116 107 169 59 C220 12 302 -13 428 -13 C651 -13 757 67 808 206 C837 283 852 386 852 470 L852 470 Z M646 478 C646 418 637 345 625 285 C602 170 561 121 444 121 C394 121 360 130 338 148 C312 171 303 208 303 261 C303 322 314 407 327 469 C351 575 393 619 505 619 C563 619 599 607 621 582 C640 559 646 526 646 478 L646 478 Z M710 867 C712 869 713 872 713 875 C713 878 712 880 709 882 L565 987 L529 987 L359 882 C355 880 353 876 353 872 C353 870 354 868 355 867 L397 799 C400 795 404 794 407 794 C410 794 413 794 415 796 L534 880 L632 796 C634 794 636 794 639 794 C643 794 647 795 650 799 L710 867 Z " />
<glyph glyph-name="Otilde" unicode="&#xd5;" horiz-adv-x="859" d="M852 470 C852 562 832 636 775 684 C724 728 643 752 522 752 C317 752 211 685 155 567 C116 484 97 363 97 268 C97 178 116 107 169 59 C220 12 302 -13 428 -13 C651 -13 757 67 808 206 C837 283 852 386 852 470 L852 470 Z M646 478 C646 418 637 345 625 285 C602 170 561 121 444 121 C394 121 360 130 338 148 C312 171 303 208 303 261 C303 322 314 407 327 469 C351 575 393 619 505 619 C563 619 599 607 621 582 C640 559 646 526 646 478 L646 478 Z M721 870 L721 873 C721 875 721 878 720 880 L696 941 C694 946 691 948 685 948 C682 948 678 945 675 943 C652 925 621 902 598 902 L597 902 C579 903 557 918 543 927 C523 940 500 952 472 953 L469 953 C423 953 371 915 343 894 C340 891 335 887 334 882 L334 879 C334 877 334 874 335 873 L359 811 C361 806 364 804 370 804 C373 804 377 807 380 809 C403 827 434 850 457 850 L458 850 C476 849 498 834 512 825 C532 813 555 800 583 799 L586 799 C632 799 684 837 712 858 C715 861 720 865 721 870 L721 870 Z " />
<glyph glyph-name="Odieresis" unicode="&#xd6;" horiz-adv-x="859" d="M852 470 C852 562 832 636 775 684 C724 728 643 752 522 752 C317 752 211 685 155 567 C116 484 97 363 97 268 C97 178 116 107 169 59 C220 12 302 -13 428 -13 C651 -13 757 67 808 206 C837 283 852 386 852 470 L852 470 Z M646 478 C646 418 637 345 625 285 C602 170 561 121 444 121 C394 121 360 130 338 148 C312 171 303 208 303 261 C303 322 314 407 327 469 C351 575 393 619 505 619 C563 619 599 607 621 582 C640 559 646 526 646 478 L646 478 Z M494 939 L494 940 C494 949 485 957 471 957 L349 957 C334 957 322 948 321 939 L310 852 L310 850 C310 841 319 833 334 833 L456 833 C470 833 482 842 484 852 L494 939 Z M751 939 L751 940 C751 949 741 957 727 957 L605 957 C590 957 579 948 577 939 L567 852 L567 850 C567 841 576 833 590 833 L712 833 C727 833 739 842 740 852 L751 939 Z " />
<glyph glyph-name="multiply" unicode="&#xd7;" horiz-adv-x="627" d="M620 500 L562 564 C559 568 554 571 549 571 C544 571 538 568 532 563 L364 411 L234 563 C229 568 224 571 219 571 C214 571 209 568 204 564 L131 500 C125 496 122 490 122 484 C122 480 124 475 128 471 L267 326 L93 181 C85 175 82 169 82 164 C82 159 84 155 88 151 L145 88 C149 84 154 81 159 81 C164 81 170 83 176 89 L344 242 L474 89 C479 83 484 81 489 81 C494 81 499 84 504 88 L577 151 C583 156 586 161 586 167 C586 172 584 176 580 181 L440 326 L615 471 C622 477 625 483 625 488 C625 492 623 496 620 500 L620 500 Z " />
<glyph glyph-name="Oslash" unicode="&#xd8;" horiz-adv-x="870" d="M903 753 L855 793 C851 796 848 798 844 798 C840 798 836 796 832 792 L749 707 C698 736 626 752 528 752 C316 752 211 680 156 556 C121 475 103 360 103 269 C103 226 107 188 117 154 C124 132 133 112 145 94 L60 8 C56 4 53 -1 53 -5 C53 -8 55 -11 58 -14 L106 -54 C110 -57 113 -59 117 -59 C121 -59 125 -57 129 -53 L212 32 C263 3 335 -13 434 -13 C645 -13 751 59 806 184 C841 264 858 376 858 465 C858 502 855 539 848 571 C841 599 831 623 816 645 L901 731 C905 735 908 740 908 744 C908 747 906 750 903 753 L903 753 Z M626 582 L309 261 C309 291 312 328 318 370 C339 548 369 619 511 619 C569 619 605 608 626 582 L626 582 Z M652 479 C652 448 649 412 644 370 C622 193 592 121 450 121 C393 121 357 132 336 157 L652 479 Z " />
<glyph glyph-name="Ugrave" unicode="&#xd9;" horiz-adv-x="835" d="M842 737 L842 739 C842 746 837 752 829 752 L827 752 L655 731 C646 730 638 725 637 716 L578 241 C569 166 538 121 433 121 C394 121 369 127 350 139 C324 155 315 182 315 217 C315 242 318 269 321 292 L377 737 L377 739 C377 746 372 752 364 752 L362 752 L191 731 C181 730 173 725 172 716 L122 313 C118 277 112 239 112 204 C112 116 145 61 204 28 C257 -2 330 -13 416 -13 C614 -13 757 47 782 249 L842 737 Z M645 863 C647 866 648 869 648 871 C648 874 647 877 644 879 L491 994 C489 995 487 996 484 996 C480 996 476 995 473 991 L410 918 C408 916 406 913 406 910 C406 907 408 904 410 903 L570 794 C572 793 574 792 577 792 C581 792 585 793 588 797 L645 863 Z " />
<glyph glyph-name="Uacute" unicode="&#xda;" horiz-adv-x="835" d="M842 737 L842 739 C842 746 837 752 829 752 L827 752 L655 731 C646 730 638 725 637 716 L578 241 C569 166 538 121 433 121 C394 121 369 127 350 139 C324 155 315 182 315 217 C315 242 318 269 321 292 L377 737 L377 739 C377 746 372 752 364 752 L362 752 L191 731 C181 730 173 725 172 716 L122 313 C118 277 112 239 112 204 C112 116 145 61 204 28 C257 -2 330 -13 416 -13 C614 -13 757 47 782 249 L842 737 Z M637 918 L592 991 C589 995 586 996 582 996 C579 996 576 995 574 994 L392 879 C388 876 387 872 387 869 C387 867 387 865 388 863 L429 797 C431 793 435 792 438 792 C441 792 444 792 446 794 L632 903 C637 905 638 909 638 912 C638 914 638 916 637 918 L637 918 Z " />
<glyph glyph-name="Ucircumflex" unicode="&#xdb;" horiz-adv-x="835" d="M842 737 L842 739 C842 746 837 752 829 752 L827 752 L655 731 C646 730 638 725 637 716 L578 241 C569 166 538 121 433 121 C394 121 369 127 350 139 C324 155 315 182 315 217 C315 242 318 269 321 292 L377 737 L377 739 C377 746 372 752 364 752 L362 752 L191 731 C181 730 173 725 172 716 L122 313 C118 277 112 239 112 204 C112 116 145 61 204 28 C257 -2 330 -13 416 -13 C614 -13 757 47 782 249 L842 737 Z M699 867 C701 870 702 873 702 875 C702 878 701 881 698 883 L554 988 L518 988 L348 883 C344 880 342 876 342 873 C342 871 342 869 343 867 L386 800 C389 796 392 794 396 794 C399 794 402 795 404 797 L523 881 L621 797 C623 795 625 794 628 794 C632 794 636 796 639 800 L699 867 Z " />
<glyph glyph-name="Udieresis" unicode="&#xdc;" horiz-adv-x="835" d="M842 737 L842 739 C842 746 837 752 829 752 L827 752 L655 731 C646 730 638 725 637 716 L578 241 C569 166 538 121 433 121 C394 121 369 127 350 139 C324 155 315 182 315 217 C315 242 318 269 321 292 L377 737 L377 739 C377 746 372 752 364 752 L362 752 L191 731 C181 730 173 725 172 716 L122 313 C118 277 112 239 112 204 C112 116 145 61 204 28 C257 -2 330 -13 416 -13 C614 -13 757 47 782 249 L842 737 Z M492 938 C493 939 493 940 493 940 C493 949 483 957 469 957 L347 957 C332 957 320 948 319 938 L308 851 L308 850 C308 841 318 833 332 833 L454 833 C469 833 481 842 482 851 L492 938 Z M749 938 L749 940 C749 949 740 957 726 957 L604 957 C589 957 577 948 576 938 L565 851 L565 850 C565 841 574 833 588 833 L710 833 C725 833 737 842 738 851 L749 938 Z " />
<glyph glyph-name="Yacute" unicode="&#xdd;" horiz-adv-x="775" d="M864 713 C865 715 866 719 866 724 C866 731 863 739 853 739 L669 739 C655 739 650 735 640 720 L450 424 L323 719 C317 735 314 739 299 739 L106 739 C103 739 87 727 87 717 C87 715 87 714 88 712 L325 263 L295 15 C294 14 294 13 294 13 C294 5 301 0 310 0 L479 0 C488 0 496 6 497 15 L528 267 L864 713 Z M615 919 L570 992 C568 996 564 997 561 997 C558 997 555 996 553 995 L371 880 C367 877 365 873 365 870 C365 868 366 866 367 864 L407 798 C410 794 413 793 417 793 C420 793 423 793 425 795 L611 904 C615 906 617 910 617 913 C617 915 616 917 615 919 L615 919 Z " />
<glyph glyph-name="Thorn" unicode="&#xde;" horiz-adv-x="745" d="M775 421 C775 473 764 514 738 543 C705 582 648 602 561 602 L370 602 L387 737 L387 739 C387 746 382 752 374 752 L372 752 L201 732 C191 731 183 726 182 717 L96 15 L96 13 C96 5 102 0 111 0 L280 0 C290 0 297 6 298 15 L313 135 L491 135 C582 135 647 155 692 194 C722 221 744 257 757 302 C769 340 775 380 775 421 L775 421 Z M564 397 C564 378 561 359 557 341 C552 316 543 298 529 286 C510 269 479 263 432 262 C432 262 329 258 328 258 L354 469 L434 469 C492 469 531 468 551 444 C559 434 564 419 564 397 L564 397 Z " />
<glyph glyph-name="germandbls" unicode="&#xdf;" horiz-adv-x="1188" d="M590 521 C591 524 592 527 592 530 C592 540 584 547 572 550 C554 555 468 576 375 576 C297 576 227 562 178 523 C130 485 108 422 108 363 C108 312 130 279 159 256 C195 229 245 218 284 212 C300 209 314 207 328 205 C343 202 358 199 369 191 C376 186 381 178 381 167 C381 154 376 139 366 131 C352 120 328 115 293 115 C238 115 179 130 128 142 C123 143 119 143 116 143 C107 143 100 139 96 127 L73 50 C73 48 72 45 72 42 C72 34 77 26 87 22 C100 18 194 -8 307 -8 C384 -8 461 8 512 54 C556 94 573 149 573 207 C573 269 547 304 511 326 C477 346 435 353 395 359 C380 362 365 364 352 366 C338 368 323 372 311 379 C302 384 296 393 296 406 C296 424 305 436 320 444 C334 450 354 453 380 453 C433 453 493 439 543 428 C544 427 546 427 547 427 C556 427 563 435 566 443 L590 521 Z M1170 521 C1171 524 1172 527 1172 530 C1172 540 1164 547 1152 550 C1134 555 1048 576 955 576 C877 576 807 562 758 523 C710 485 688 422 688 363 C688 312 710 279 739 256 C775 229 825 218 864 212 C880 209 894 207 908 205 C923 202 938 199 949 191 C956 186 961 178 961 167 C961 154 956 139 946 131 C932 120 908 115 873 115 C818 115 759 130 708 142 C703 143 699 143 696 143 C687 143 680 139 676 127 L653 50 C653 48 652 45 652 42 C652 34 657 26 667 22 C680 18 774 -8 887 -8 C964 -8 1041 8 1092 54 C1136 94 1153 149 1153 207 C1153 269 1127 304 1091 326 C1057 346 1015 353 975 359 C960 362 945 364 932 366 C918 368 903 372 891 379 C882 384 876 393 876 406 C876 424 885 436 900 444 C914 450 934 453 960 453 C1013 453 1073 439 1123 428 C1124 427 1126 427 1127 427 C1136 427 1143 435 1146 443 L1170 521 Z " />
<glyph glyph-name="agrave" unicode="&#xe0;" horiz-adv-x="710" d="M686 15 L575 558 C574 563 569 567 563 567 L289 567 C282 567 277 563 274 558 L29 15 C28 13 28 12 28 11 C28 5 36 0 44 0 L198 0 C207 0 215 7 219 15 L283 175 L470 175 L495 17 C497 9 504 0 513 0 L671 0 C679 0 686 6 686 13 L686 15 Z M556 685 C558 688 560 691 560 693 C560 696 558 699 556 701 L402 816 C400 817 398 818 395 818 C391 818 387 817 384 813 L321 740 C319 738 318 735 318 732 C318 729 319 726 322 725 L481 616 C483 614 486 614 489 614 C492 614 496 615 499 619 L556 685 Z M452 295 L331 295 L393 446 L427 446 L452 295 Z " />
<glyph glyph-name="aacute" unicode="&#xe1;" horiz-adv-x="710" d="M686 15 L575 558 C574 563 569 567 563 567 L289 567 C282 567 277 563 274 558 L29 15 C28 13 28 12 28 11 C28 5 36 0 44 0 L198 0 C207 0 215 7 219 15 L283 175 L470 175 L495 17 C497 9 504 0 513 0 L671 0 C679 0 686 6 686 13 L686 15 Z M564 740 L519 813 C517 817 513 818 509 818 C507 818 504 817 501 816 L320 701 C316 698 314 694 314 691 C314 689 315 687 316 685 L356 619 C359 615 362 614 366 614 C368 614 371 614 374 616 L560 725 C564 727 566 731 566 734 C566 736 565 738 564 740 L564 740 Z M452 295 L331 295 L393 446 L427 446 L452 295 Z " />
<glyph glyph-name="acircumflex" unicode="&#xe2;" horiz-adv-x="710" d="M686 15 L575 558 C574 563 569 567 563 567 L289 567 C282 567 277 563 274 558 L29 15 C28 13 28 12 28 11 C28 5 36 0 44 0 L198 0 C207 0 215 7 219 15 L283 175 L470 175 L495 17 C497 9 504 0 513 0 L671 0 C679 0 686 6 686 13 L686 15 Z M613 689 C615 692 616 695 616 697 C616 700 615 703 612 705 L468 810 L432 810 L262 705 C258 702 256 698 256 695 C256 693 257 691 258 689 L301 622 C303 618 307 616 311 616 C313 616 316 617 318 619 L437 703 L535 619 C537 617 540 616 542 616 C546 616 550 618 554 622 L613 689 Z M452 295 L331 295 L393 446 L427 446 L452 295 Z " />
<glyph glyph-name="atilde" unicode="&#xe3;" horiz-adv-x="710" d="M686 15 L575 558 C574 563 569 567 563 567 L289 567 C282 567 277 563 274 558 L29 15 C28 13 28 12 28 11 C28 5 36 0 44 0 L198 0 C207 0 215 7 219 15 L283 175 L470 175 L495 17 C497 9 504 0 513 0 L671 0 C679 0 686 6 686 13 L686 15 Z M626 700 L626 702 C626 705 626 707 625 709 L602 771 C600 776 597 778 591 778 C587 778 583 775 580 773 C557 755 526 732 504 732 L503 732 C484 732 463 748 448 757 C428 769 405 782 378 783 L375 783 C329 783 276 745 249 724 C245 720 240 717 239 711 L239 709 C239 707 240 704 240 702 L264 641 C266 636 269 634 275 634 C279 634 282 637 285 639 C308 656 339 680 362 680 L363 680 C381 679 403 664 417 655 C438 642 461 629 488 628 L491 628 C537 628 589 666 617 688 C621 691 626 695 626 700 L626 700 Z M452 295 L331 295 L393 446 L427 446 L452 295 Z " />
<glyph glyph-name="adieresis" unicode="&#xe4;" horiz-adv-x="710" d="M686 15 L575 558 C574 563 569 567 563 567 L289 567 C282 567 277 563 274 558 L29 15 C28 13 28 12 28 11 C28 5 36 0 44 0 L198 0 C207 0 215 7 219 15 L283 175 L470 175 L495 17 C497 9 504 0 513 0 L671 0 C679 0 686 6 686 13 L686 15 Z M402 751 L402 752 C402 761 392 769 378 769 L256 769 C241 769 229 760 228 751 L217 663 L217 662 C217 653 227 645 241 645 L363 645 C378 645 390 654 391 663 L402 751 Z M658 751 L658 752 C658 761 649 769 635 769 L513 769 C498 769 486 760 485 751 L474 663 L474 662 C474 653 483 645 498 645 L619 645 C634 645 646 654 647 663 L658 751 Z M452 295 L331 295 L393 446 L427 446 L452 295 Z " />
<glyph glyph-name="aring" unicode="&#xe5;" horiz-adv-x="710" d="M686 15 L575 558 C574 563 569 567 563 567 L289 567 C282 567 277 563 274 558 L29 15 C28 13 28 12 28 11 C28 5 36 0 44 0 L198 0 C207 0 215 7 219 15 L283 175 L470 175 L495 17 C497 9 504 0 513 0 L671 0 C679 0 686 6 686 13 L686 15 Z M589 734 C589 766 577 788 554 802 C532 815 498 821 455 821 C391 821 346 809 320 776 C302 754 295 722 295 694 C295 661 307 639 330 626 C353 612 386 606 429 606 C493 606 539 619 564 652 C582 674 589 705 589 734 L589 734 Z M452 295 L331 295 L393 446 L427 446 L452 295 Z M483 735 C483 722 482 707 479 694 C473 668 461 655 435 655 C409 655 401 667 401 691 L401 692 C401 706 403 720 406 733 C412 760 423 773 449 773 C475 773 483 761 483 736 L483 735 Z " />
<glyph glyph-name="ae" unicode="&#xe6;" horiz-adv-x="883" d="M884 553 L884 554 C884 562 877 567 869 567 L289 567 C282 567 277 563 274 557 L29 15 C28 13 28 12 28 11 C28 5 36 0 44 0 L198 0 C207 0 215 7 219 15 L283 175 L423 175 L403 14 L403 13 C403 6 410 0 418 0 L799 0 C808 0 817 6 818 14 L830 112 L830 113 C830 121 823 126 815 126 L601 126 L613 224 L814 224 C824 224 832 231 833 239 L845 338 C846 338 846 339 846 339 C846 346 839 352 830 352 L628 352 L639 440 L853 440 C862 440 871 446 872 455 L884 553 Z M456 446 L438 299 L333 299 L391 446 L456 446 Z " />
<glyph glyph-name="ccedilla" unicode="&#xe7;" horiz-adv-x="614" d="M630 520 C631 523 632 526 632 529 C632 536 628 542 615 546 C555 564 488 574 423 574 C287 574 200 541 149 462 C105 395 88 290 88 210 C88 141 104 92 138 57 C180 14 250 -4 352 -4 C417 -4 487 6 551 24 C569 29 573 37 573 47 C573 48 573 49 572 50 L566 132 C565 139 560 144 551 144 C549 144 546 144 543 143 C498 133 458 120 400 120 C355 120 324 127 305 143 C284 160 276 187 276 227 C276 270 283 324 296 363 C316 425 355 450 440 450 C498 450 536 437 578 427 C581 426 583 426 586 426 C595 426 601 431 603 438 L630 520 Z M448 -105 C448 -83 444 -67 433 -55 C417 -38 387 -31 344 -31 C305 -31 278 -33 245 -41 C240 -42 235 -47 235 -55 L235 -86 C235 -92 239 -95 245 -95 C246 -95 248 -95 250 -94 C264 -92 289 -90 310 -90 C324 -90 333 -91 340 -95 C346 -99 348 -106 348 -115 C348 -124 346 -134 339 -141 C332 -149 320 -151 302 -151 C282 -151 260 -148 247 -146 C245 -145 243 -145 242 -145 C236 -145 232 -147 230 -154 L222 -185 L222 -189 C222 -195 225 -198 229 -199 C260 -207 283 -210 323 -210 C372 -210 406 -200 426 -176 C442 -157 448 -129 448 -105 L448 -105 Z " />
<glyph glyph-name="egrave" unicode="&#xe8;" horiz-adv-x="601" d="M602 553 L602 554 C602 561 595 567 587 567 L172 567 C163 567 154 561 153 553 L87 14 L87 13 C87 6 93 0 102 0 L517 0 C526 0 535 6 536 14 L548 112 L548 113 C548 121 541 126 533 126 L285 126 L297 224 L532 224 C542 224 550 231 551 239 L563 338 L563 339 C563 346 557 352 548 352 L312 352 L323 440 L571 440 C580 440 589 446 590 455 L602 553 Z M509 685 C511 688 512 691 512 693 C512 696 511 699 509 701 L355 816 C353 817 351 818 348 818 C344 818 340 817 337 813 L274 740 C272 738 270 735 270 732 C270 729 272 726 274 725 L434 616 C436 614 439 614 441 614 C445 614 449 615 452 619 L509 685 Z " />
<glyph glyph-name="eacute" unicode="&#xe9;" horiz-adv-x="601" d="M602 553 L602 554 C602 561 595 567 587 567 L172 567 C163 567 154 561 153 553 L87 14 L87 13 C87 6 93 0 102 0 L517 0 C526 0 535 6 536 14 L548 112 L548 113 C548 121 541 126 533 126 L285 126 L297 224 L532 224 C542 224 550 231 551 239 L563 338 L563 339 C563 346 557 352 548 352 L312 352 L323 440 L571 440 C580 440 589 446 590 455 L602 553 Z M520 740 L475 813 C473 817 469 818 465 818 C463 818 460 817 457 816 L276 701 C272 698 270 694 270 691 C270 689 270 687 271 685 L312 619 C314 615 318 614 322 614 C324 614 327 614 330 616 L516 725 C520 727 522 731 522 734 C522 736 521 738 520 740 L520 740 Z " />
<glyph glyph-name="ecircumflex" unicode="&#xea;" horiz-adv-x="601" d="M602 553 L602 554 C602 561 595 567 587 567 L172 567 C163 567 154 561 153 553 L87 14 L87 13 C87 6 93 0 102 0 L517 0 C526 0 535 6 536 14 L548 112 L548 113 C548 121 541 126 533 126 L285 126 L297 224 L532 224 C542 224 550 231 551 239 L563 338 L563 339 C563 346 557 352 548 352 L312 352 L323 440 L571 440 C580 440 589 446 590 455 L602 553 Z M573 689 C575 691 577 694 577 697 C577 699 575 702 573 704 L429 809 L392 809 L222 704 C218 701 217 698 217 694 C217 692 217 690 218 689 L261 621 C263 617 267 615 271 615 C274 615 276 616 279 618 L397 702 L495 618 C497 616 500 615 503 615 C506 615 510 617 514 621 L573 689 Z " />
<glyph glyph-name="edieresis" unicode="&#xeb;" horiz-adv-x="618" d="M602 553 L602 554 C602 561 595 567 587 567 L172 567 C163 567 154 561 153 553 L87 14 L87 13 C87 6 93 0 102 0 L517 0 C526 0 535 6 536 14 L548 112 L548 113 C548 121 541 126 533 126 L285 126 L297 224 L532 224 C542 224 550 231 551 239 L563 338 L563 339 C563 346 557 352 548 352 L312 352 L323 440 L571 440 C580 440 589 446 590 455 L602 553 Z M619 751 L620 752 C620 761 610 769 596 769 L474 769 C459 769 447 760 446 751 L435 663 L435 662 C435 653 445 645 459 645 L581 645 C596 645 608 654 609 663 L619 751 Z M363 751 L363 752 C363 761 353 769 339 769 L217 769 C202 769 191 760 189 751 L179 663 L179 662 C179 653 188 645 202 645 L324 645 C339 645 351 654 352 663 L363 751 Z " />
<glyph glyph-name="igrave" unicode="&#xec;" horiz-adv-x="354" d="M338 563 L338 565 C338 572 334 577 327 577 L324 577 L169 552 C160 551 152 547 151 539 L87 14 L87 13 C87 6 94 0 102 0 L252 0 C261 0 270 6 271 14 L338 563 Z M381 685 C383 688 384 691 384 693 C384 696 383 699 380 701 L227 816 C225 817 222 818 219 818 C216 818 212 817 208 813 L145 740 C143 738 142 735 142 732 C142 729 143 726 146 725 L305 616 C307 614 310 614 313 614 C316 614 320 615 324 619 L381 685 Z " />
<glyph glyph-name="iacute" unicode="&#xed;" horiz-adv-x="354" d="M338 563 L338 565 C338 572 334 577 327 577 L324 577 L169 552 C160 551 152 547 151 539 L87 14 L87 13 C87 6 94 0 102 0 L252 0 C261 0 270 6 271 14 L338 563 Z M374 740 L329 813 C327 817 323 818 319 818 C317 818 314 817 311 816 L130 701 C126 698 124 694 124 691 C124 689 124 687 126 685 L166 619 C169 615 172 614 176 614 C178 614 181 614 184 616 L370 725 C374 727 376 731 376 734 C376 736 375 738 374 740 L374 740 Z " />
<glyph glyph-name="icircumflex" unicode="&#xee;" horiz-adv-x="354" d="M344 563 L344 565 C344 572 340 577 332 577 L330 577 L175 552 C166 551 158 547 157 539 L93 14 L93 13 C93 6 100 0 108 0 L258 0 C267 0 276 6 277 14 L344 563 Z M442 689 C444 691 445 694 445 697 C445 699 444 702 441 704 L297 809 L261 809 L91 704 C87 701 85 698 85 694 C85 692 86 690 87 689 L130 621 C132 617 136 615 139 615 C142 615 145 616 147 618 L266 702 L364 618 C366 616 369 615 371 615 C375 615 379 617 383 621 L442 689 Z " />
<glyph glyph-name="idieresis" unicode="&#xef;" horiz-adv-x="354" d="M381 563 L381 565 C381 572 377 577 370 577 L367 577 L212 552 C203 551 195 547 194 539 L130 14 L130 13 C130 6 137 0 145 0 L295 0 C304 0 313 6 314 14 L381 563 Z M528 751 L528 752 C528 761 518 769 504 769 L382 769 C367 769 355 760 354 751 L343 663 L343 662 C343 653 353 645 367 645 L489 645 C504 645 516 654 517 663 L528 751 Z M271 751 L271 752 C271 761 262 769 247 769 L126 769 C111 769 99 760 98 751 L87 663 L87 662 C87 653 96 645 110 645 L232 645 C247 645 259 654 260 663 L271 751 Z " />
<glyph glyph-name="eth" unicode="&#xf0;" horiz-adv-x="725" d="M707 348 C707 416 695 470 658 508 C620 546 557 567 460 567 L190 567 C181 567 172 561 171 553 L144 333 L76 333 C69 333 58 329 57 320 L49 250 L49 249 C49 242 55 237 64 237 L133 237 L105 14 L105 13 C105 6 112 0 121 0 L390 0 C532 0 611 45 655 121 C691 184 707 274 707 348 L707 348 Z M520 353 C520 315 514 275 507 237 C490 142 461 119 388 119 L302 119 L317 237 L423 237 C433 237 441 243 441 250 L450 320 L450 321 C450 329 440 333 435 333 L329 333 L343 449 L429 449 C466 449 490 443 504 425 C515 410 520 387 520 353 L520 353 Z " />
<glyph glyph-name="ntilde" unicode="&#xf1;" horiz-adv-x="794" d="M777 552 L777 554 C777 561 770 567 761 567 L615 567 C606 567 597 561 596 552 L551 95 L535 95 L477 549 C475 563 461 567 451 567 L174 567 C165 567 156 561 155 553 L87 14 L87 13 C87 5 93 0 102 0 L250 0 C260 0 269 6 269 14 L304 434 L337 434 L390 21 C392 9 402 0 416 0 L683 0 C696 0 710 8 712 23 L777 552 Z M661 700 L661 702 C661 705 661 707 660 709 L637 771 C635 776 632 778 626 778 C622 778 618 775 615 773 C592 755 561 732 539 732 L538 732 C520 732 498 748 483 757 C463 769 440 782 413 783 L410 783 C364 783 312 745 284 724 C280 720 275 717 274 711 L274 709 C274 707 275 704 275 702 L299 641 C301 636 304 634 310 634 C314 634 317 637 320 639 C343 656 374 680 397 680 L398 680 C416 679 438 664 452 655 C473 642 496 629 523 628 L526 628 C572 628 624 666 652 688 C656 691 661 695 661 700 L661 700 Z " />
<glyph glyph-name="ograve" unicode="&#xf2;" horiz-adv-x="722" d="M703 352 C703 434 685 493 630 531 C587 561 524 577 432 577 C269 577 182 526 136 439 C103 377 88 286 88 216 C88 139 105 78 158 39 C200 7 265 -10 360 -10 C506 -10 591 31 640 102 C685 169 703 272 703 352 L703 352 Z M517 365 C517 322 511 271 503 228 C486 139 458 109 374 109 C339 109 316 114 300 127 C282 141 275 165 275 202 C275 249 283 312 293 357 C310 433 339 459 417 459 C453 459 477 453 492 441 C510 426 517 399 517 365 L517 365 Z M553 685 C555 688 556 691 556 693 C556 696 555 699 552 701 L399 816 C397 817 394 818 391 818 C388 818 384 817 380 813 L317 740 C315 738 314 735 314 732 C314 729 315 726 318 725 L477 616 C479 614 482 614 485 614 C489 614 492 615 496 619 L553 685 Z " />
<glyph glyph-name="oacute" unicode="&#xf3;" horiz-adv-x="722" d="M703 352 C703 434 685 493 630 531 C587 561 524 577 432 577 C269 577 182 526 136 439 C103 377 88 286 88 216 C88 139 105 78 158 39 C200 7 265 -10 360 -10 C506 -10 591 31 640 102 C685 169 703 272 703 352 L703 352 Z M517 365 C517 322 511 271 503 228 C486 139 458 109 374 109 C339 109 316 114 300 127 C282 141 275 165 275 202 C275 249 283 312 293 357 C310 433 339 459 417 459 C453 459 477 453 492 441 C510 426 517 399 517 365 L517 365 Z M563 740 L518 813 C516 817 512 818 508 818 C506 818 503 817 500 816 L319 701 C315 698 313 694 313 691 C313 689 313 687 314 685 L355 619 C357 615 361 614 365 614 C367 614 370 614 373 616 L559 725 C563 727 565 731 565 734 C565 736 564 738 563 740 L563 740 Z " />
<glyph glyph-name="ocircumflex" unicode="&#xf4;" horiz-adv-x="722" d="M703 352 C703 434 685 493 630 531 C587 561 524 577 432 577 C269 577 182 526 136 439 C103 377 88 286 88 216 C88 139 105 78 158 39 C200 7 265 -10 360 -10 C506 -10 591 31 640 102 C685 169 703 272 703 352 L703 352 Z M517 365 C517 322 511 271 503 228 C486 139 458 109 374 109 C339 109 316 114 300 127 C282 141 275 165 275 202 C275 249 283 312 293 357 C310 433 339 459 417 459 C453 459 477 453 492 441 C510 426 517 399 517 365 L517 365 Z M619 689 C621 691 622 694 622 697 C622 699 621 702 618 704 L474 809 L438 809 L268 704 C264 701 262 698 262 694 C262 692 263 690 264 689 L307 621 C309 617 313 615 316 615 C319 615 322 616 324 618 L443 702 L541 618 C543 616 546 615 548 615 C552 615 556 617 559 621 L619 689 Z " />
<glyph glyph-name="otilde" unicode="&#xf5;" horiz-adv-x="722" d="M703 352 C703 434 685 493 630 531 C587 561 524 577 432 577 C269 577 182 526 136 439 C103 377 88 286 88 216 C88 139 105 78 158 39 C200 7 265 -10 360 -10 C506 -10 591 31 640 102 C685 169 703 272 703 352 L703 352 Z M517 365 C517 322 511 271 503 228 C486 139 458 109 374 109 C339 109 316 114 300 127 C282 141 275 165 275 202 C275 249 283 312 293 357 C310 433 339 459 417 459 C453 459 477 453 492 441 C510 426 517 399 517 365 L517 365 Z M629 700 L629 702 C629 705 629 707 628 709 L604 771 C602 776 599 778 593 778 C589 778 586 775 583 773 C560 755 529 732 506 732 L505 732 C487 732 465 748 451 757 C430 769 407 782 380 783 L377 783 C331 783 279 745 251 724 C247 720 243 717 242 711 L242 709 C242 707 242 704 243 702 L267 641 C268 636 272 634 278 634 C281 634 285 637 288 639 C311 656 342 680 364 680 L365 680 C384 679 406 664 420 655 C440 642 463 629 491 628 L493 628 C539 628 592 666 619 688 C623 691 628 695 629 700 L629 700 Z " />
<glyph glyph-name="odieresis" unicode="&#xf6;" horiz-adv-x="722" d="M703 352 C703 434 685 493 630 531 C587 561 524 577 432 577 C269 577 182 526 136 439 C103 377 88 286 88 216 C88 139 105 78 158 39 C200 7 265 -10 360 -10 C506 -10 591 31 640 102 C685 169 703 272 703 352 L703 352 Z M517 365 C517 322 511 271 503 228 C486 139 458 109 374 109 C339 109 316 114 300 127 C282 141 275 165 275 202 C275 249 283 312 293 357 C310 433 339 459 417 459 C453 459 477 453 492 441 C510 426 517 399 517 365 L517 365 Z M408 751 L408 752 C408 761 398 769 384 769 L262 769 C247 769 235 760 234 751 L223 663 L223 662 C223 653 233 645 247 645 L369 645 C384 645 396 654 397 663 L408 751 Z M664 751 L664 752 C664 761 655 769 641 769 L519 769 C504 769 492 760 491 751 L480 663 L480 662 C480 653 489 645 504 645 L626 645 C640 645 652 654 654 663 L664 751 Z " />
<glyph glyph-name="divide" unicode="&#xf7;" horiz-adv-x="627" d="M630 368 C631 368 631 369 631 369 C631 378 621 386 607 386 L116 386 C101 386 89 377 88 368 L77 281 L77 280 C77 271 86 263 100 263 L592 263 C607 263 619 272 620 281 L630 368 Z M408 196 L408 198 C408 207 399 215 385 215 L295 215 C280 215 268 206 267 196 L253 88 L253 86 C253 78 263 70 277 70 L367 70 C382 70 394 78 395 88 L408 196 Z M453 562 L453 563 C453 572 444 580 429 580 L340 580 C325 580 313 571 312 562 L298 453 L298 452 C298 443 308 435 322 435 L412 435 C427 435 438 444 440 453 L453 562 Z " />
<glyph glyph-name="oslash" unicode="&#xf8;" horiz-adv-x="754" d="M736 579 L700 609 C696 613 692 615 688 615 C684 615 680 613 676 608 L616 548 C576 567 520 577 448 577 C299 577 214 535 165 461 C121 395 104 293 104 213 C104 181 107 152 114 126 C121 104 130 84 144 67 L90 12 C86 8 82 3 82 -1 C82 -4 84 -8 88 -11 L124 -42 C127 -45 131 -48 135 -48 C139 -48 143 -46 148 -41 L207 19 C248 0 303 -10 376 -10 C531 -10 617 36 665 116 C703 181 719 277 719 353 C719 388 716 418 707 446 C701 466 692 484 679 499 L734 555 C738 559 741 564 741 568 C741 572 740 575 736 579 L736 579 Z M509 435 L290 213 C291 232 293 258 297 284 C313 417 334 459 433 459 C478 459 494 449 509 435 L509 435 Z M533 354 C532 335 530 309 527 284 C510 151 489 109 390 109 C344 109 330 119 315 132 L533 354 Z " />
<glyph glyph-name="ugrave" unicode="&#xf9;" horiz-adv-x="702" d="M694 563 C695 564 695 565 695 565 C695 572 690 577 683 577 L681 577 L525 552 C516 551 509 547 508 539 L464 186 C458 137 440 110 366 110 C337 110 317 114 305 121 C288 131 283 146 283 167 C283 191 290 231 291 244 L331 563 L331 565 C331 572 326 577 319 577 L317 577 L161 552 C152 551 145 547 144 539 L107 250 C104 223 99 197 99 166 C99 96 126 51 174 24 C218 -1 280 -10 350 -10 C507 -10 630 36 649 195 L694 563 Z M557 685 C559 688 560 691 560 693 C560 696 559 699 557 701 L403 816 C401 817 399 818 396 818 C392 818 388 817 385 813 L322 740 C320 738 318 735 318 732 C318 729 320 726 322 725 L482 616 C484 614 487 614 489 614 C493 614 497 615 500 619 L557 685 Z " />
<glyph glyph-name="uacute" unicode="&#xfa;" horiz-adv-x="702" d="M694 563 C695 564 695 565 695 565 C695 572 690 577 683 577 L681 577 L525 552 C516 551 509 547 508 539 L464 186 C458 137 440 110 366 110 C337 110 317 114 305 121 C288 131 283 146 283 167 C283 191 290 231 291 244 L331 563 L331 565 C331 572 326 577 319 577 L317 577 L161 552 C152 551 145 547 144 539 L107 250 C104 223 99 197 99 166 C99 96 126 51 174 24 C218 -1 280 -10 350 -10 C507 -10 630 36 649 195 L694 563 Z M552 740 L507 813 C505 817 501 818 497 818 C495 818 492 817 489 816 L308 701 C304 698 302 694 302 691 C302 689 302 687 303 685 L344 619 C346 615 350 614 354 614 C356 614 359 614 362 616 L548 725 C552 727 554 731 554 734 C554 736 553 738 552 740 L552 740 Z " />
<glyph glyph-name="ucircumflex" unicode="&#xfb;" horiz-adv-x="702" d="M694 563 C695 564 695 565 695 565 C695 572 690 577 683 577 L681 577 L525 552 C516 551 509 547 508 539 L464 186 C458 137 440 110 366 110 C337 110 317 114 305 121 C288 131 283 146 283 167 C283 191 290 231 291 244 L331 563 L331 565 C331 572 326 577 319 577 L317 577 L161 552 C152 551 145 547 144 539 L107 250 C104 223 99 197 99 166 C99 96 126 51 174 24 C218 -1 280 -10 350 -10 C507 -10 630 36 649 195 L694 563 Z M608 689 C611 691 612 694 612 697 C612 699 611 702 608 704 L464 809 L428 809 L258 704 C254 701 252 698 252 694 C252 692 252 690 253 689 L296 621 C299 617 302 615 306 615 C309 615 311 616 314 618 L433 702 L531 618 C533 616 535 615 538 615 C542 615 546 617 549 621 L608 689 Z " />
<glyph glyph-name="udieresis" unicode="&#xfc;" horiz-adv-x="702" d="M694 563 C695 564 695 565 695 565 C695 572 690 577 683 577 L681 577 L525 552 C516 551 509 547 508 539 L464 186 C458 137 440 110 366 110 C337 110 317 114 305 121 C288 131 283 146 283 167 C283 191 290 231 291 244 L331 563 L331 565 C331 572 326 577 319 577 L317 577 L161 552 C152 551 145 547 144 539 L107 250 C104 223 99 197 99 166 C99 96 126 51 174 24 C218 -1 280 -10 350 -10 C507 -10 630 36 649 195 L694 563 Z M663 750 L663 752 C663 761 653 769 639 769 L517 769 C502 769 490 760 489 750 L479 663 L479 662 C479 653 488 645 502 645 L624 645 C639 645 651 654 652 663 L663 750 Z M406 750 L406 752 C406 761 397 769 383 769 L261 769 C246 769 234 760 233 750 L222 663 L222 662 C222 653 231 645 246 645 L367 645 C382 645 394 654 395 663 L406 750 Z " />
<glyph glyph-name="yacute" unicode="&#xfd;" horiz-adv-x="671" d="M726 543 C727 544 728 549 728 553 C728 560 726 567 716 567 L550 567 C536 567 532 564 523 549 L386 340 L294 549 C288 563 285 567 271 567 L97 567 C94 567 79 551 79 540 C79 539 79 537 80 536 L274 196 L251 14 L251 13 C251 6 258 0 267 0 L417 0 C426 0 434 6 435 14 L458 200 L726 543 Z M545 740 L500 813 C498 817 494 818 491 818 C488 818 485 817 483 816 L301 701 C297 698 295 694 295 691 C295 689 296 687 297 685 L337 619 C340 615 343 614 347 614 C350 614 353 614 355 616 L541 725 C545 727 547 731 547 734 C547 736 547 738 545 740 L545 740 Z " />
<glyph glyph-name="thorn" unicode="&#xfe;" horiz-adv-x="634" d="M644 335 C644 378 631 412 607 436 C578 464 530 477 465 477 L328 477 L338 563 L338 565 C338 572 334 577 327 577 L324 577 L169 552 C160 551 152 547 151 539 L87 14 L87 13 C87 6 94 0 102 0 L252 0 C261 0 270 6 271 14 L283 111 L410 110 L412 110 C485 110 539 126 578 159 C627 201 644 272 644 335 L644 335 Z M454 313 C454 297 451 278 446 263 C436 229 414 224 364 222 L296 220 L313 359 L363 359 C409 359 433 357 444 345 C450 339 454 329 454 313 L454 313 Z " />
<glyph glyph-name="ydieresis" unicode="&#xff;" horiz-adv-x="669" d="M726 543 C727 544 728 549 728 553 C728 560 726 567 716 567 L550 567 C536 567 532 564 523 549 L386 340 L294 549 C288 563 285 567 271 567 L97 567 C94 567 79 551 79 540 C79 539 79 537 80 536 L274 196 L251 14 L251 13 C251 6 258 0 267 0 L417 0 C426 0 434 6 435 14 L458 200 L726 543 Z M631 751 L632 752 C632 761 622 769 608 769 L486 769 C471 769 459 760 458 751 L447 663 L447 662 C447 653 457 645 471 645 L593 645 C608 645 620 654 621 663 L631 751 Z M375 751 L375 752 C375 761 365 769 351 769 L229 769 C214 769 203 760 201 751 L191 663 L191 662 C191 653 200 645 214 645 L336 645 C351 645 363 654 364 663 L375 751 Z " />
<glyph glyph-name="dotlessi" unicode="&#x131;" horiz-adv-x="354" d="M338 563 L338 565 C338 572 334 577 327 577 L324 577 L169 552 C160 551 152 547 151 539 L87 14 L87 13 C87 6 94 0 102 0 L252 0 C261 0 270 6 271 14 L338 563 Z " />
<glyph glyph-name="Lslash" unicode="&#x141;" horiz-adv-x="672" d="M669 133 L669 135 C669 143 664 148 655 148 L349 148 L376 368 L580 427 C589 429 594 438 594 445 L594 447 L580 530 C579 535 573 537 567 537 C563 537 560 537 557 536 L391 488 L421 737 L421 739 C421 746 416 752 408 752 L406 752 L235 732 C225 731 217 726 216 717 L181 428 L65 394 C59 393 51 385 51 376 L51 374 L65 292 C66 286 71 284 78 284 C81 284 84 284 87 285 L166 308 L130 15 L130 13 C130 5 136 0 145 0 L636 0 C646 0 654 6 655 15 L669 133 Z " />
<glyph glyph-name="lslash" unicode="&#x142;" horiz-adv-x="574" d="M561 117 L561 119 C561 126 554 132 545 132 L310 132 L328 275 L485 320 C493 322 496 329 496 335 L496 337 L485 405 C485 409 480 411 475 411 C472 411 470 410 467 410 L339 370 L363 563 L363 565 C363 572 359 577 351 577 L349 577 L194 552 C185 551 177 547 176 539 L149 316 L63 290 C58 289 51 283 51 276 C51 275 52 274 52 274 L63 208 C64 204 68 202 74 202 C76 202 78 202 81 203 L137 220 L112 14 L112 13 C112 6 119 0 127 0 L529 0 C539 0 547 6 548 14 L561 117 Z " />
<glyph glyph-name="OE" unicode="&#x152;" horiz-adv-x="1143" d="M1162 724 L1162 726 C1162 734 1156 739 1147 739 L665 739 C652 739 647 734 645 723 L641 690 C605 736 526 752 470 752 C278 752 191 669 147 558 C114 475 96 351 96 258 C96 111 143 -13 376 -13 C432 -13 515 4 563 49 L559 17 C558 15 558 14 558 13 C558 4 563 0 574 0 L1056 0 C1066 0 1074 6 1075 15 L1088 127 C1089 128 1089 128 1089 129 C1089 137 1083 142 1074 142 L741 142 L761 304 L1068 304 C1078 304 1085 309 1087 319 L1101 433 L1101 435 C1101 443 1095 447 1086 447 L779 447 L797 596 L1129 596 C1139 596 1147 602 1148 611 L1162 724 Z M580 479 C580 420 571 360 561 302 C540 170 506 115 408 115 C368 115 342 125 325 144 C308 165 301 197 301 242 C301 311 311 387 323 454 C344 573 378 623 470 623 C520 623 550 609 566 577 C577 554 580 523 580 479 L580 479 Z " />
<glyph glyph-name="oe" unicode="&#x153;" horiz-adv-x="955" d="M956 553 L956 554 C956 562 949 567 940 567 L567 567 C558 567 553 563 552 555 L548 525 C522 559 461 577 417 577 C294 577 217 545 168 488 C109 420 88 302 88 214 C88 146 100 91 138 52 C178 12 243 -10 345 -10 C389 -10 455 8 489 42 L485 12 L485 10 C485 3 489 0 498 0 L871 0 C880 0 889 6 890 14 L902 112 L902 113 C902 121 895 126 886 126 L644 126 L656 224 L886 224 C895 224 904 231 905 239 L917 338 L917 339 C917 346 910 352 902 352 L672 352 L683 440 L925 440 C934 440 943 446 944 455 L956 553 Z M488 373 C488 330 482 277 474 233 C459 140 434 109 360 109 C329 109 308 115 295 127 C280 141 274 163 274 198 C274 246 282 303 291 348 C307 431 332 459 403 459 C434 459 455 453 468 441 C482 427 488 406 488 373 L488 373 Z " />
<glyph glyph-name="Scaron" unicode="&#x160;" horiz-adv-x="713" d="M708 686 C709 689 709 692 709 695 C709 707 701 713 689 717 C666 723 566 750 449 750 C360 750 282 735 224 695 C155 647 125 561 125 479 C125 336 247 306 337 291 C411 278 472 273 472 217 C472 191 463 166 442 151 C418 133 383 128 340 128 C257 128 159 157 136 162 C132 163 128 164 124 164 C114 164 107 159 103 145 L78 57 C77 54 77 51 77 49 C77 39 82 31 92 27 C108 21 218 -11 361 -11 C448 -11 533 7 593 54 C657 104 683 177 683 256 C683 324 666 364 636 393 C594 433 531 445 470 455 C395 467 332 472 332 526 C332 552 342 577 363 592 C387 608 421 612 458 612 C526 612 584 598 657 582 C659 581 660 581 662 581 C672 581 679 589 682 598 L708 686 Z M663 913 L619 977 C617 981 613 983 610 983 C607 983 604 982 602 980 L483 896 L385 980 C383 982 381 983 378 983 C374 983 370 981 367 977 L307 913 C305 910 304 907 304 905 C304 902 305 899 308 897 L452 792 L488 792 L658 897 C662 900 664 904 664 907 C664 909 664 911 663 913 L663 913 Z " />
<glyph glyph-name="scaron" unicode="&#x161;" horiz-adv-x="607" d="M590 521 C591 524 592 527 592 530 C592 540 584 547 572 550 C554 555 468 576 375 576 C297 576 227 562 178 523 C130 485 108 422 108 363 C108 312 130 279 159 256 C195 229 245 218 284 212 C300 209 314 207 328 205 C343 202 358 199 369 191 C376 186 381 178 381 167 C381 154 376 139 366 131 C352 120 328 115 293 115 C238 115 179 130 128 142 C123 143 119 143 116 143 C107 143 100 139 96 127 L73 50 C73 48 72 45 72 42 C72 34 77 26 87 22 C100 18 194 -8 307 -8 C384 -8 461 8 512 54 C556 94 573 149 573 207 C573 269 547 304 511 326 C477 346 435 353 395 359 C380 362 365 364 352 366 C338 368 323 372 311 379 C302 384 296 393 296 406 C296 424 305 436 320 444 C334 450 354 453 380 453 C433 453 493 439 543 428 C544 427 546 427 547 427 C556 427 563 435 566 443 L590 521 Z M580 735 L537 799 C534 803 531 805 527 805 C524 805 521 804 519 802 L400 718 L302 802 C300 804 298 805 295 805 C292 805 287 803 284 799 L225 735 C223 732 222 729 222 727 C222 724 223 721 225 719 L370 614 L406 614 L576 719 C580 722 582 725 582 729 C582 731 581 733 580 735 L580 735 Z " />
<glyph glyph-name="Ydieresis" unicode="&#x178;" horiz-adv-x="772" d="M864 713 C865 715 866 719 866 724 C866 731 863 739 853 739 L669 739 C655 739 650 735 640 720 L450 424 L323 719 C317 735 314 739 299 739 L106 739 C103 739 87 727 87 717 C87 715 87 714 88 712 L325 263 L295 15 C294 14 294 13 294 13 C294 5 301 0 310 0 L479 0 C488 0 496 6 497 15 L528 267 L864 713 Z M718 938 L718 940 C718 949 709 957 694 957 L572 957 C558 957 546 948 544 938 L534 851 L534 850 C534 841 543 833 557 833 L679 833 C694 833 706 842 707 851 L718 938 Z M461 938 L461 940 C461 949 452 957 438 957 L316 957 C301 957 289 948 288 938 L277 851 L277 850 C277 841 287 833 301 833 L423 833 C438 833 449 842 451 851 L461 938 Z " />
<glyph glyph-name="Zcaron" unicode="&#x17d;" horiz-adv-x="717" d="M749 724 L749 726 C749 733 743 739 734 739 L151 739 C141 739 134 733 133 724 L119 613 L119 610 C119 603 125 598 134 598 L484 598 L77 142 C71 136 66 129 64 115 L52 15 L52 13 C52 6 58 0 67 0 L657 0 C666 0 674 6 675 15 L688 127 C689 127 689 128 689 129 C689 136 683 141 674 141 L315 141 L726 595 C731 601 734 606 735 616 L749 724 Z M645 913 L601 977 C599 981 595 983 591 983 C589 983 586 982 584 980 L465 896 L367 980 C365 982 363 983 360 983 C356 983 352 981 349 977 L289 913 C287 910 286 907 286 905 C286 902 287 899 290 897 L434 792 L470 792 L640 897 C644 900 646 903 646 907 C646 909 646 911 645 913 L645 913 Z " />
<glyph glyph-name="zcaron" unicode="&#x17e;" horiz-adv-x="611" d="M622 553 L622 554 C622 561 616 567 607 567 L134 567 C124 567 116 561 115 553 L103 455 L103 454 C103 447 109 441 118 441 L380 441 L77 124 C71 118 65 111 63 97 L53 14 L53 13 C53 6 60 0 69 0 L548 0 C557 0 565 6 566 14 L578 112 L578 113 C578 120 572 126 563 126 L293 126 L600 442 C606 448 610 455 611 465 L622 553 Z M582 735 L538 800 C536 804 532 805 528 805 C526 805 523 804 521 803 L402 718 L304 803 C302 804 299 805 297 805 C293 805 289 804 285 800 L226 735 C224 733 223 730 223 727 C223 724 224 722 227 720 L371 615 L407 615 L577 720 C581 722 583 726 583 730 C583 732 583 733 582 735 L582 735 Z " />
<glyph glyph-name="florin" unicode="&#x192;" horiz-adv-x="638" d="M563 710 C564 712 564 714 564 716 C564 724 559 730 548 734 C525 742 467 752 415 752 C291 752 240 704 221 599 L203 498 L124 498 C112 498 103 494 100 478 L83 386 C82 385 82 383 82 382 C82 372 89 367 100 367 L178 367 L76 -182 C75 -184 75 -187 75 -189 C75 -202 84 -208 99 -208 L229 -208 C242 -208 252 -200 254 -190 L357 368 L475 368 C487 368 496 372 499 388 L517 480 L517 484 C517 494 510 499 500 499 L379 499 L391 561 C399 605 411 630 459 630 C484 630 504 626 524 622 C526 622 528 621 531 621 C537 621 545 624 548 639 L563 710 Z " />
<glyph glyph-name="circumflex" unicode="&#x2c6;" horiz-adv-x="513" d="M519 689 C521 692 522 695 522 697 C522 700 521 703 518 705 L374 810 L338 810 L168 705 C164 702 162 698 162 695 C162 693 163 691 164 689 L206 622 C209 618 213 616 216 616 C219 616 222 617 224 619 L343 703 L441 619 C443 617 445 616 448 616 C452 616 456 618 459 622 L519 689 Z " />
<glyph glyph-name="caron" unicode="&#x2c7;" horiz-adv-x="513" d="M524 735 L481 800 C479 804 475 805 471 805 C469 805 466 804 464 803 L345 718 L247 803 C245 804 242 805 240 805 C236 805 232 804 228 800 L169 735 C167 733 166 730 166 727 C166 724 167 722 170 720 L314 615 L350 615 L520 720 C524 722 526 726 526 730 C526 732 525 733 524 735 L524 735 Z " />
<glyph glyph-name="breve" unicode="&#x2d8;" horiz-adv-x="524" d="M547 758 C547 761 548 764 548 767 C548 775 545 782 531 782 L469 782 C450 782 449 770 447 759 C440 715 422 695 347 695 C280 695 262 711 262 746 C262 750 262 754 263 758 L263 767 C263 775 261 782 247 782 L185 782 C166 782 164 769 163 758 C162 750 162 742 162 735 C162 649 230 622 338 622 C456 622 534 654 547 758 L547 758 Z " />
<glyph glyph-name="dotaccent" unicode="&#x2d9;" horiz-adv-x="346" d="M369 751 L369 752 C369 761 359 769 345 769 L190 769 C175 769 163 760 162 751 L148 632 L148 631 C148 622 157 614 171 614 L326 614 C341 614 353 623 354 632 L369 751 Z " />
<glyph glyph-name="ring" unicode="&#x2da;" horiz-adv-x="450" d="M460 734 C460 766 448 788 425 802 C402 815 369 821 326 821 C262 821 216 809 190 776 C173 754 165 722 165 694 C165 661 178 639 201 626 C223 612 256 606 300 606 C364 606 409 619 435 652 C453 674 460 705 460 734 L460 734 Z M354 735 C354 722 352 707 349 694 C343 668 332 655 305 655 C280 655 271 667 271 691 L271 692 C271 706 273 720 276 733 C282 760 294 773 320 773 C346 773 354 761 354 736 L354 735 Z " />
<glyph glyph-name="ogonek" unicode="&#x2db;" horiz-adv-x="387" d="M294 -187 L291 -141 C291 -137 285 -133 280 -133 L279 -133 C279 -133 251 -140 210 -140 C170 -140 160 -131 160 -114 C160 -95 168 -76 178 -61 C193 -39 217 -16 252 12 L190 53 C158 30 113 -3 84 -45 C67 -69 55 -95 55 -127 C55 -186 101 -210 174 -210 C237 -210 270 -202 282 -199 C287 -198 294 -195 294 -188 L294 -187 Z " />
<glyph glyph-name="tilde" unicode="&#x2dc;" horiz-adv-x="546" d="M553 700 L553 702 C553 705 553 707 552 709 L529 771 C527 776 524 778 518 778 C514 778 510 775 507 773 C484 755 453 732 431 732 L430 732 C411 732 390 748 375 757 C355 769 332 782 305 783 L302 783 C256 783 203 745 176 723 C172 720 167 717 166 711 L166 709 C166 707 167 704 167 702 L191 641 C193 636 196 634 202 634 C206 634 209 637 212 639 C235 656 266 680 289 680 L290 680 C308 679 330 664 344 655 C365 642 388 629 415 628 L418 628 C464 628 516 666 544 688 C548 691 553 695 553 700 L553 700 Z " />
<glyph glyph-name="hungarumlaut" unicode="&#x2dd;" horiz-adv-x="590" d="M610 730 L572 796 C570 800 566 801 562 801 C560 801 557 800 554 799 L373 684 C369 681 367 678 367 674 C367 672 367 670 368 669 L402 609 C404 605 408 604 411 604 C414 604 417 604 420 606 L606 715 C610 717 612 721 612 724 C612 726 611 728 610 730 L610 730 Z M395 740 L357 806 C355 810 351 811 347 811 C345 811 342 810 339 809 L158 694 C154 691 152 688 152 684 C152 682 152 680 153 679 L187 619 C189 615 192 614 196 614 C199 614 202 614 204 616 L391 725 C395 727 396 731 396 734 C396 736 396 738 395 740 L395 740 Z " />
<glyph glyph-name="endash" unicode="&#x2013;" horiz-adv-x="521" d="M580 318 C580 319 581 319 581 320 C581 328 571 336 557 336 L47 336 C32 336 20 327 19 318 L8 230 L8 229 C8 218 24 213 32 213 L542 213 C553 213 569 219 570 230 L580 318 Z " />
<glyph glyph-name="emdash" unicode="&#x2014;" horiz-adv-x="1113" d="M1157 318 L1157 320 C1157 328 1148 336 1134 336 L64 336 C48 336 35 327 34 318 L23 230 L23 229 C23 218 39 213 48 213 L1117 213 C1128 213 1145 219 1146 230 L1157 318 Z " />
<glyph glyph-name="quoteleft" unicode="&#x2018;" horiz-adv-x="289" d="M334 715 L334 720 C334 731 325 739 318 739 L224 739 C215 739 204 732 200 722 L106 505 C105 501 104 498 104 494 C104 483 112 475 122 475 L248 475 C259 475 272 483 275 496 L334 715 Z " />
<glyph glyph-name="quoteright" unicode="&#x2019;" horiz-adv-x="289" d="M332 709 C333 713 334 716 334 720 C334 731 326 739 316 739 L190 739 C179 739 166 731 163 718 L104 499 L104 494 C104 483 113 475 120 475 L214 475 C223 475 234 482 238 492 L332 709 Z " />
<glyph glyph-name="quotesinglbase" unicode="&#x201a;" horiz-adv-x="247" d="M222 144 L222 148 C222 158 214 165 205 165 L82 165 C73 165 62 156 61 144 L33 -78 L33 -80 C33 -91 41 -99 50 -99 L154 -99 C164 -99 173 -90 176 -78 L222 144 Z " />
<glyph glyph-name="quotedblleft" unicode="&#x201c;" horiz-adv-x="522" d="M334 715 L334 720 C334 731 325 739 318 739 L224 739 C215 739 204 732 200 722 L106 505 C105 501 104 498 104 494 C104 483 112 475 122 475 L248 475 C259 475 272 483 275 496 L334 715 Z M567 715 L567 720 C567 731 558 739 551 739 L457 739 C448 739 437 732 433 722 L339 505 C338 501 337 498 337 494 C337 483 345 475 355 475 L481 475 C492 475 505 483 508 496 L567 715 Z " />
<glyph glyph-name="quotedblright" unicode="&#x201d;" horiz-adv-x="522" d="M332 709 C333 713 334 716 334 720 C334 731 326 739 316 739 L190 739 C179 739 166 731 163 718 L104 499 L104 494 C104 483 113 475 120 475 L214 475 C223 475 234 482 238 492 L332 709 Z M565 709 C566 713 567 716 567 720 C567 731 559 739 549 739 L423 739 C412 739 399 731 396 718 L337 499 L337 494 C337 483 346 475 353 475 L447 475 C456 475 467 482 471 492 L565 709 Z " />
<glyph glyph-name="quotedblbase" unicode="&#x201e;" horiz-adv-x="463" d="M222 144 L222 148 C222 158 214 165 205 165 L82 165 C73 165 62 156 61 144 L33 -78 L33 -80 C33 -91 41 -99 50 -99 L154 -99 C164 -99 173 -90 176 -78 L222 144 Z M438 144 L438 148 C438 158 430 165 421 165 L299 165 C289 165 278 156 277 144 L250 -78 L250 -80 C250 -91 257 -99 266 -99 L370 -99 C380 -99 390 -90 392 -78 L438 144 Z " />
<glyph glyph-name="dagger" unicode="&#x2020;" horiz-adv-x="734" d="M652 350 L652 352 C652 360 646 365 637 365 L502 365 L521 430 L558 732 C558 733 559 735 559 736 C559 748 551 752 541 752 C539 752 537 752 534 751 L377 731 C360 729 354 719 352 702 L319 430 L323 365 L186 365 C177 365 169 359 168 350 L156 255 L156 253 C156 245 162 240 171 240 L307 240 L287 175 L242 -190 L242 -194 C242 -206 250 -210 260 -210 C262 -210 264 -210 267 -209 L424 -189 C441 -187 447 -177 449 -160 L490 175 L486 240 L622 240 C631 240 639 246 640 255 L652 350 Z " />
<glyph glyph-name="daggerdbl" unicode="&#x2021;" horiz-adv-x="734" d="M667 471 L667 473 C667 480 661 485 652 485 L516 485 L536 550 L558 733 C559 734 559 735 559 737 C559 748 551 752 541 752 L534 752 L377 732 C361 730 354 719 352 703 L333 550 L337 485 L201 485 C191 485 184 480 183 471 L171 375 L171 373 C171 365 177 360 186 360 L322 360 L302 296 L296 248 L300 183 L165 183 C155 183 147 177 146 168 L135 73 C135 72 134 71 134 71 C134 63 140 58 149 58 L285 58 L265 -7 L243 -189 L243 -193 C243 -205 250 -209 260 -209 L267 -209 L424 -189 C441 -187 447 -176 449 -160 L468 -7 L464 58 L600 58 C610 58 617 64 618 73 L630 168 L630 170 C630 178 624 183 615 183 L479 183 L499 248 L505 296 L501 360 L636 360 C646 360 654 366 655 375 L667 471 Z " />
<glyph glyph-name="bullet" unicode="&#x2022;" horiz-adv-x="414" d="M393 434 L393 440 C393 461 377 478 355 478 L177 478 C153 478 131 458 128 434 L106 256 L106 250 C106 229 123 212 145 212 L322 212 C346 212 368 232 371 256 L393 434 Z " />
<glyph glyph-name="ellipsis" unicode="&#x2026;" horiz-adv-x="1126" d="M682 147 L682 148 C682 157 672 165 658 165 L508 165 C493 165 481 156 480 147 L464 18 L464 17 C464 8 474 0 488 0 L638 0 C653 0 665 9 666 18 L682 147 Z M317 147 L318 148 C318 157 308 165 294 165 L144 165 C129 165 117 156 116 147 L100 18 L100 17 C100 8 109 0 124 0 L274 0 C289 0 300 9 302 18 L317 147 Z M1046 146 L1046 148 C1046 157 1036 165 1022 165 L872 165 C857 165 845 156 844 146 L829 18 L828 17 C828 8 838 0 852 0 L1002 0 C1017 0 1029 9 1030 18 L1046 146 Z " />
<glyph glyph-name="perthousand" unicode="&#x2030;" horiz-adv-x="1325" d="M450 605 C450 647 442 686 413 714 C389 737 350 752 289 752 C218 752 172 732 141 702 C119 680 106 653 97 624 C85 587 79 545 79 504 C79 463 87 424 114 397 C138 372 178 357 240 357 C311 357 357 377 387 406 C412 431 427 463 435 496 C444 531 450 569 450 605 L450 605 Z M1336 235 C1336 277 1329 316 1300 344 C1276 367 1237 382 1176 382 C1104 382 1058 362 1028 332 C1006 310 993 283 984 254 C972 217 966 175 966 134 C966 93 973 54 1001 27 C1025 2 1064 -13 1127 -13 C1198 -13 1243 6 1274 36 C1299 61 1313 93 1322 126 C1331 161 1336 199 1336 235 L1336 235 Z M924 235 C924 277 917 316 888 344 C864 367 825 382 764 382 C692 382 646 362 616 332 C594 310 581 283 572 254 C560 217 554 175 554 134 C554 93 561 54 589 27 C613 2 652 -13 715 -13 C786 -13 831 6 862 36 C887 61 901 93 910 126 C919 161 924 199 924 235 L924 235 Z M844 677 C846 678 847 681 847 683 C847 686 846 688 843 689 L768 739 C767 740 765 741 763 741 C759 741 756 740 754 737 L158 61 C156 59 155 57 155 54 C155 52 156 50 159 48 L234 -2 C236 -3 238 -3 240 -3 C243 -3 246 -2 248 0 L844 677 Z M792 227 C792 205 788 183 785 162 C777 110 765 87 727 87 C713 87 703 91 696 98 C689 106 687 120 687 139 C687 164 691 190 695 215 C703 261 716 282 751 282 C769 282 780 277 786 266 C791 257 792 244 792 227 L792 227 Z M1204 227 C1204 205 1200 183 1197 162 C1189 110 1177 87 1139 87 C1125 87 1115 91 1108 98 C1101 106 1099 120 1099 139 C1099 164 1103 190 1107 215 C1115 261 1128 282 1163 282 C1181 282 1192 277 1198 266 C1203 257 1204 244 1204 227 L1204 227 Z M317 597 C317 575 313 553 310 532 C302 480 290 457 253 457 C238 457 228 461 222 468 C214 476 212 490 212 509 C212 534 216 560 220 585 C228 631 241 652 277 652 C294 652 305 647 311 636 C316 627 317 614 317 597 L317 597 Z " />
<glyph glyph-name="guilsinglleft" unicode="&#x2039;" horiz-adv-x="394" d="M401 468 C403 471 404 474 404 477 C404 483 402 488 399 490 L316 539 C315 540 313 540 310 540 C304 540 296 538 292 532 L88 303 C84 299 82 293 82 287 C82 283 83 279 85 276 L232 47 C235 42 242 39 248 39 C251 39 253 40 255 40 L349 90 C353 92 358 99 358 106 C358 108 358 110 357 112 L236 289 L401 468 Z " />
<glyph glyph-name="guilsinglright" unicode="&#x203a;" horiz-adv-x="394" d="M381 303 L234 532 C230 538 223 540 217 540 C214 540 212 540 210 539 L116 490 C112 488 107 480 107 473 C107 471 107 470 108 468 L229 289 L65 111 C63 109 62 106 62 102 C62 97 64 91 67 89 L150 40 C151 40 153 39 156 39 C162 39 170 42 174 47 L377 276 C381 281 384 287 384 293 C384 297 383 300 381 303 L381 303 Z " />
<glyph glyph-name="fraction" unicode="&#x2044;" horiz-adv-x="529" d="M621 672 C623 674 624 677 624 679 C624 681 623 684 621 685 L547 740 C546 740 544 741 542 741 C539 741 536 740 534 737 L-2 64 C-2 64 -3 60 -3 56 C-3 54 -3 52 -2 51 L72 -3 C74 -4 75 -5 77 -5 C80 -5 83 -4 85 -1 L621 672 Z " />
<glyph glyph-name="Euro" unicode="&#x20ac;" horiz-adv-x="740" d="M805 689 C806 692 806 695 806 697 C806 704 802 710 787 716 C754 729 706 747 572 748 C351 749 249 674 202 495 L107 495 C98 495 91 489 90 480 L81 404 L81 402 C81 395 86 390 94 390 L683 390 C687 390 697 393 700 405 L719 480 C720 481 720 482 720 483 C720 490 714 495 706 495 L414 495 C447 580 485 607 593 607 C666 607 742 589 751 587 C754 586 758 586 761 586 C769 586 774 590 777 598 L805 689 Z M726 50 L721 141 C720 149 716 153 707 153 C705 153 701 152 697 151 C688 150 607 131 535 131 C431 131 400 156 385 232 L656 232 C661 232 670 236 673 247 L693 323 L693 326 C693 333 687 337 679 337 L88 337 C79 337 72 331 71 322 L61 247 L61 245 C61 237 66 232 75 232 L172 232 C178 62 262 -9 475 -9 L479 -9 C613 -9 666 9 702 23 C722 30 727 37 727 47 C727 48 727 49 726 50 L726 50 Z " />
<glyph glyph-name="trademark" unicode="&#x2122;" horiz-adv-x="1048" d="M1097 721 L1097 723 C1097 734 1092 739 1079 739 L904 739 C894 739 888 731 886 724 L809 507 L789 724 C788 731 784 739 774 739 L595 739 C581 739 575 733 573 721 L496 316 C496 314 495 313 495 311 C495 301 503 297 514 297 L598 297 C612 297 617 303 619 315 L675 630 L687 630 L716 406 C716 400 720 392 731 392 L848 392 C859 392 865 400 867 406 L952 630 L964 630 L944 315 L944 313 C944 302 948 297 961 297 L1052 297 C1064 297 1073 302 1074 316 L1097 721 Z M532 721 L532 724 C532 735 526 739 514 739 L124 739 C111 739 103 734 101 721 L93 656 L93 653 C93 642 100 637 112 637 L240 637 L201 316 C200 314 200 313 200 312 C200 302 207 297 219 297 L311 297 C324 297 331 303 333 316 L372 637 L502 637 C515 637 522 643 524 656 L532 721 Z " />
<glyph glyph-name="minus" unicode="&#x2212;" horiz-adv-x="627" d="M582 345 C583 346 583 346 583 347 C583 355 573 363 559 363 L158 363 C143 363 131 354 130 345 L119 257 L119 256 C119 245 134 240 142 240 L544 240 C554 240 570 246 572 257 L582 345 Z " />
<glyph glyph-name="fi" unicode="&#xfb01;" horiz-adv-x="854" d="M583 553 L583 554 C583 561 576 567 568 567 L172 567 C163 567 154 561 153 553 L87 14 L87 13 C87 6 94 0 102 0 L242 0 C255 0 270 9 272 23 L293 195 L496 195 C505 195 514 201 515 209 L527 307 L527 309 C527 316 520 322 512 322 L309 322 L323 440 L552 440 C561 440 570 446 571 455 L583 553 Z M838 563 L838 565 C838 572 834 577 827 577 L824 577 L669 552 C660 551 652 547 651 539 L587 14 L587 13 C587 6 594 0 602 0 L752 0 C761 0 770 6 771 14 L838 563 Z " />
<glyph glyph-name="fl" unicode="&#xfb02;" horiz-adv-x="1049" d="M583 553 L583 554 C583 561 576 567 568 567 L172 567 C163 567 154 561 153 553 L87 14 L87 13 C87 6 94 0 102 0 L242 0 C255 0 270 9 272 23 L293 195 L496 195 C505 195 514 201 515 209 L527 307 L527 309 C527 316 520 322 512 322 L309 322 L323 440 L552 440 C561 440 570 446 571 455 L583 553 Z M1036 117 L1036 119 C1036 126 1029 132 1021 132 L785 132 L838 563 L838 565 C838 572 834 577 827 577 L824 577 L669 552 C660 551 652 547 651 539 L587 14 L587 13 C587 6 594 0 602 0 L1004 0 C1014 0 1022 6 1023 14 L1036 117 Z " />
</font>
</svg>
