<?xml version="1.0" encoding="utf-8"?>
<!-- Generator: Adobe Illustrator 16.0.4, SVG Export Plug-In . SVG Version: 6.00 Build 0)  -->
<!DOCTYPE svg PUBLIC "-//W3C//DTD SVG 1.1//EN" "http://www.w3.org/Graphics/SVG/1.1/DTD/svg11.dtd">
<svg version="1.1" id="Layer_1" xmlns="http://www.w3.org/2000/svg" xmlns:xlink="http://www.w3.org/1999/xlink" x="0px" y="0px"
	 width="159.26px" height="56.921px" viewBox="0 0 159.26 56.921" enable-background="new 0 0 159.26 56.921" xml:space="preserve">
<polygon fill="#18A2DD" points="136.565,56.921 0,56.654 3.828,0 159.26,5.214 "/>
<g>
	<rect x="35.275" y="18.158" fill="none" width="80.668" height="27.501"/>
	<path fill="#FFFFFF" d="M53.712,38.461h-1.433c-0.241,0-0.432-0.188-0.432-0.433v-8.854h-11.85v8.854
		c0,0.243-0.189,0.433-0.433,0.433h-1.432c-0.242,0-0.433-0.188-0.433-0.433V18.782c0-0.216,0.136-0.297,0.324-0.351l1.619-0.271
		h0.082c0.188,0,0.271,0.189,0.271,0.353v8.557h11.85v-8.287c0-0.216,0.135-0.297,0.324-0.351l1.619-0.271h0.079
		c0.189,0,0.271,0.189,0.271,0.353v19.516C54.143,38.272,53.954,38.461,53.712,38.461z"/>
	<path fill="#FFFFFF" d="M75.014,38.461h-1.432c-0.242,0-0.433-0.188-0.433-0.433v-8.854H61.3v8.854
		c0,0.243-0.189,0.433-0.433,0.433h-1.432c-0.242,0-0.432-0.188-0.432-0.433V18.782c0-0.216,0.135-0.297,0.324-0.351l1.618-0.271
		h0.082c0.188,0,0.271,0.189,0.271,0.353v8.557h11.85v-8.287c0-0.216,0.135-0.297,0.324-0.351l1.619-0.271h0.08
		c0.188,0,0.271,0.189,0.271,0.353v19.516C75.445,38.272,75.257,38.461,75.014,38.461z"/>
	<path fill="#FFFFFF" d="M95.721,38.137c0,0.162-0.135,0.324-0.297,0.324h-1.861c-0.162,0-0.324-0.108-0.379-0.188l-6.234-9.124
		l-6.37,9.124c-0.054,0.107-0.188,0.188-0.351,0.188H78.23c-0.162,0-0.297-0.162-0.297-0.297c0-0.055,0.027-0.108,0.055-0.136
		l7.181-10.042l-6.371-9.016c-0.027-0.054-0.027-0.107-0.027-0.135c0-0.162,0.136-0.323,0.297-0.323h1.918
		c0.188,0,0.322,0.08,0.433,0.242l5.533,8.125l5.453-8.151c0.106-0.162,0.241-0.216,0.432-0.216h1.889
		c0.162,0,0.297,0.161,0.297,0.323c0,0.026,0,0.081-0.053,0.135l-6.209,9.016l6.938,10.016
		C95.721,38.056,95.721,38.083,95.721,38.137z"/>
</g>
<g>
</g>
<g>
</g>
<g>
</g>
<g>
</g>
<g>
</g>
<g>
</g>
</svg>
