<?xml version="1.0" encoding="utf-8"?>
<!-- Generator: Adobe Illustrator 16.0.4, SVG Export Plug-In . SVG Version: 6.00 Build 0)  -->
<!DOCTYPE svg PUBLIC "-//W3C//DTD SVG 1.1//EN" "http://www.w3.org/Graphics/SVG/1.1/DTD/svg11.dtd">
<svg version="1.1" id="Layer_1" xmlns="http://www.w3.org/2000/svg" xmlns:xlink="http://www.w3.org/1999/xlink" x="0px" y="0px"
	 width="148.525px" height="57.421px" viewBox="0 0 148.525 57.421" enable-background="new 0 0 148.525 57.421"
	 xml:space="preserve">
<polygon fill="#3F69B1" points="148.525,57.421 0,56.654 3.828,0 133.98,3.827 "/>
<g>
	<polygon fill="none" points="126.859,41.813 39.018,49.054 39.018,17.602 110.552,17.602 	"/>
	<path fill="#FFFFFF" d="M57.45,37.903H56.02c-0.243,0-0.434-0.188-0.434-0.432v-8.854h-11.85v8.854
		c0,0.243-0.188,0.432-0.433,0.432h-1.43c-0.244,0-0.432-0.188-0.432-0.432V18.226c0-0.216,0.135-0.297,0.321-0.351l1.621-0.271
		h0.08c0.189,0,0.271,0.189,0.271,0.353v8.557h11.85v-8.287c0-0.216,0.137-0.297,0.324-0.351l1.619-0.271h0.082
		c0.188,0,0.27,0.189,0.27,0.353v19.516C57.881,37.716,57.692,37.903,57.45,37.903z"/>
	<path fill="#FFFFFF" d="M76.27,19.981h-6.561v17.491c0,0.243-0.189,0.432-0.432,0.432h-1.431c-0.243,0-0.434-0.188-0.434-0.432
		V19.981h-6.56c-0.241,0-0.432-0.188-0.432-0.433v-1.16c0-0.243,0.189-0.432,0.432-0.432h15.414c0.242,0,0.433,0.188,0.433,0.432
		v1.16C76.702,19.792,76.512,19.981,76.27,19.981z"/>
	<path fill="#FFFFFF" d="M94.385,37.58c0,0.161-0.135,0.323-0.297,0.323h-1.863c-0.161,0-0.321-0.107-0.377-0.188l-6.235-9.124
		l-6.369,9.124c-0.056,0.106-0.189,0.188-0.353,0.188h-1.998c-0.161,0-0.297-0.162-0.297-0.297c0-0.054,0.027-0.107,0.056-0.135
		l7.18-10.042l-6.369-9.016c-0.027-0.055-0.027-0.107-0.027-0.136c0-0.162,0.136-0.322,0.298-0.322h1.916
		c0.188,0,0.323,0.08,0.432,0.241l5.533,8.125l5.453-8.15c0.106-0.162,0.241-0.216,0.432-0.216h1.891
		c0.162,0,0.297,0.16,0.297,0.322c0,0.027,0,0.081-0.055,0.136l-6.209,9.016l6.938,10.015C94.385,37.499,94.385,37.525,94.385,37.58
		z"/>
</g>
<g>
</g>
<g>
</g>
<g>
</g>
<g>
</g>
<g>
</g>
<g>
</g>
</svg>
