<?xml version="1.0" encoding="utf-8"?>
<!-- Generator: Adobe Illustrator 16.0.4, SVG Export Plug-In . SVG Version: 6.00 Build 0)  -->
<!DOCTYPE svg PUBLIC "-//W3C//DTD SVG 1.1//EN" "http://www.w3.org/Graphics/SVG/1.1/DTD/svg11.dtd">
<svg version="1.1" id="Layer_1" xmlns="http://www.w3.org/2000/svg" xmlns:xlink="http://www.w3.org/1999/xlink" x="0px" y="0px"
	 width="163.376px" height="57.42px" viewBox="0 0 163.376 57.42" enable-background="new 0 0 163.376 57.42" xml:space="preserve">
<polygon fill="#A52524" points="148.527,57.42 0,56.653 3.829,0 163.376,4.142 "/>
<g>
	<rect x="41.785" y="22.023" fill="none" width="69.075" height="24.362"/>
	<path fill="#FFFFFF" d="M50.178,42.623c-3.158,0-5.612-0.757-6.207-0.943c-0.217-0.055-0.352-0.244-0.352-0.434
		c0-0.025,0.027-0.08,0.027-0.107l0.297-1.188c0.026-0.135,0.27-0.241,0.403-0.241h0.056c0.539,0.106,3.293,0.862,6.233,0.862
		c2.457,0,5.076-0.838,5.076-3.778c0-2.808-2.322-3.187-5.373-3.562c-3.131-0.406-6.938-1.08-6.938-5.588s3.727-5.561,7.396-5.561
		c3.158,0,5.615,0.756,6.182,0.944c0.242,0.08,0.353,0.242,0.353,0.433v0.106l-0.297,1.188c-0.056,0.135-0.271,0.244-0.406,0.244
		h-0.053c-0.541-0.109-2.916-0.812-5.857-0.812c-2.321,0-5.049,0.515-5.049,3.267c0,2.754,2.728,3.293,5.318,3.645
		c3.237,0.432,7.045,0.648,7.045,5.506C58.034,41.407,54.065,42.623,50.178,42.623z"/>
	<path fill="#FFFFFF" d="M74.936,24.403h-6.561v17.49c0,0.244-0.189,0.432-0.432,0.432h-1.431c-0.244,0-0.434-0.188-0.434-0.432
		v-17.49h-6.56c-0.241,0-0.432-0.188-0.432-0.434v-1.16c0-0.242,0.189-0.432,0.432-0.432h15.414c0.242,0,0.433,0.188,0.433,0.432
		v1.16C75.368,24.214,75.178,24.403,74.936,24.403z"/>
	<path fill="#FFFFFF" d="M93.051,42.002c0,0.162-0.135,0.323-0.297,0.323h-1.861c-0.162,0-0.323-0.106-0.379-0.188l-6.233-9.125
		l-6.371,9.125c-0.054,0.107-0.188,0.188-0.351,0.188h-1.998c-0.161,0-0.297-0.161-0.297-0.297c0-0.053,0.027-0.106,0.056-0.135
		l7.18-10.041l-6.371-9.016c-0.027-0.056-0.027-0.107-0.027-0.136c0-0.161,0.136-0.323,0.298-0.323h1.918
		c0.188,0,0.321,0.08,0.432,0.242l5.533,8.125l5.453-8.15c0.106-0.162,0.242-0.217,0.432-0.217h1.889
		c0.162,0,0.297,0.162,0.297,0.323c0,0.027,0,0.08-0.053,0.136l-6.209,9.016l6.938,10.014
		C93.051,41.921,93.051,41.948,93.051,42.002z"/>
</g>
<g>
</g>
<g>
</g>
<g>
</g>
<g>
</g>
<g>
</g>
<g>
</g>
</svg>
