<?xml version="1.0" encoding="utf-8"?>
<!-- Generator: Adobe Illustrator 16.0.4, SVG Export Plug-In . SVG Version: 6.00 Build 0)  -->
<!DOCTYPE svg PUBLIC "-//W3C//DTD SVG 1.1//EN" "http://www.w3.org/Graphics/SVG/1.1/DTD/svg11.dtd">
<svg version="1.1" id="Layer_1" xmlns="http://www.w3.org/2000/svg" xmlns:xlink="http://www.w3.org/1999/xlink" x="0px" y="0px"
	 width="148.525px" height="57.42px" viewBox="0 0 148.525 57.42" enable-background="new 0 0 148.525 57.42" xml:space="preserve">
<polygon fill="#84CFF4" points="148.525,57.42 0,56.653 3.828,0 133.979,3.828 "/>
<g>
	<path fill="#FFFFFF" d="M57.007,44.27h-1.432c-0.242,0-0.433-0.188-0.433-0.432v-8.854h-11.85v8.854
		c0,0.243-0.189,0.432-0.433,0.432h-1.432c-0.242,0-0.432-0.188-0.432-0.432V24.592c0-0.216,0.135-0.297,0.323-0.352l1.619-0.271
		h0.082c0.188,0,0.271,0.188,0.271,0.352v8.558h11.85v-8.287c0-0.216,0.135-0.297,0.324-0.352l1.619-0.271h0.08
		c0.188,0,0.271,0.188,0.271,0.352v19.517C57.438,44.081,57.249,44.27,57.007,44.27z"/>
	<path fill="#FFFFFF" d="M74.312,26.399h-9.717v7.773h8.854c0.215,0,0.403,0.188,0.403,0.433v1.27c0,0.216-0.188,0.432-0.403,0.432
		h-8.854v7.531c0,0.243-0.189,0.432-0.432,0.432h-1.433c-0.241,0-0.432-0.188-0.432-0.432V24.754c0-0.243,0.188-0.433,0.432-0.433
		h11.554c0.243,0,0.432,0.188,0.432,0.433v1.215C74.718,26.211,74.529,26.399,74.312,26.399z"/>
</g>
<g>
</g>
<g>
</g>
<g>
</g>
<g>
</g>
<g>
</g>
<g>
</g>
</svg>
