<?xml version="1.0" encoding="utf-8"?>
<!-- Generator: Adobe Illustrator 16.0.4, SVG Export Plug-In . SVG Version: 6.00 Build 0)  -->
<!DOCTYPE svg PUBLIC "-//W3C//DTD SVG 1.1//EN" "http://www.w3.org/Graphics/SVG/1.1/DTD/svg11.dtd">
<svg version="1.1" id="Layer_1" xmlns="http://www.w3.org/2000/svg" xmlns:xlink="http://www.w3.org/1999/xlink" x="0px" y="0px"
	 width="166.57px" height="256.124px" viewBox="0 0 166.57 256.124" enable-background="new 0 0 166.57 256.124"
	 xml:space="preserve">
<g>
	<path fill="#FFFFFF" d="M116.425,147.897c0,0,36.803,3.551,48.475,18.695c11.674,15.145-41.691,25.932-41.691,25.932l-10.108-6.172
		c0,0,46.33-8.32,36.731-18.973c-7.822-8.676-41.347-6.232-42.154-6.615"/>
	<path fill="#0E8CCD" d="M49.064,223.212l46.7,13.875c0.916-7.029,8.378-41.359,13.633-68.691c0.537-2.799,13.22,2.291,13.59-0.344
		c0.355-2.528,1.475-22.611-1.751-22.555c-37.298,0.635-63.216-0.475-67.53,5.598C50.736,155.273,50.242,209.629,49.064,223.212z"/>
	<path fill="#FFFFFF" d="M95.686,157.266"/>
	<path fill="#110906" d="M151.952,79.333c-2.05,27.62-45.033,47.283-62.726,45.973c-32.574-2.42-57.311-26.918-55.25-54.729
		c2.064-27.801,30.15-48.374,62.727-45.957C129.277,27.036,154.016,51.536,151.952,79.333z"/>
	<path fill="#110906" d="M160.486,26.843c-1.012,13.592-14.739,23.649-30.655,22.469c-15.934-1.182-28.027-13.154-27.015-26.752
		c1.005-13.586,14.733-23.648,30.66-22.465C149.4,1.278,161.496,13.247,160.486,26.843z"/>
	<g>
		<g>
			<path fill="#FFFFFF" d="M117.607,19.981c-2.109-0.964-3.891-2.646-4.062-5.079c-0.229-3.242,3.369-3.078,5.499-2.382
				c0.765,0.25,1.296-0.972,0.552-1.31c-1.424-0.647-3.364-1.777-2.475-3.6c0.779-1.6,2.792-2.515,4.381-3.036
				c4.785-1.567,8.946,0.71,9.151,5.926c0.037,0.946,1.324,0.896,1.434,0c0.594-4.882,8.838-3.706,6.579,1.118
				c-0.389,0.832,0.847,1.56,1.238,0.724c3.253-6.948-8.377-9.032-9.251-1.841c0.478,0,0.956,0,1.434,0
				c-0.258-6.551-5.754-9.192-11.61-7.087c-2.005,0.721-4.035,2.028-4.855,4.072c-0.944,2.35,1.412,4.126,3.252,4.962
				c0.184-0.437,0.368-0.873,0.552-1.31c-2.792-0.913-6.179-0.819-7.172,2.456c-0.993,3.277,1.924,6.388,4.632,7.625
				C117.718,21.6,118.447,20.364,117.607,19.981L117.607,19.981z"/>
		</g>
	</g>
	<g>
		<g>
			<path fill="#FFFFFF" d="M131.303,23.775c-1.333-1.654-1.495-3.937,1.081-4.217c2.494-0.271,3.493,2.2,3.524,4.262
				c0.012,0.784,1.262,1.009,1.408,0.19c0.73-4.093,3.907-5.777,7.774-4.477c1.354,0.456,2.653,1.367,3.341,2.635
				c0.886,1.633-0.863,2.9-2.103,3.564c-0.715,0.382-0.224,1.558,0.552,1.31c1.667-0.534,3.419-0.769,4.818,0.503
				c1.902,1.729,0.052,5.03-1.485,6.193c-2.432,1.84-6.276,1.192-9.125,1.295c-0.922,0.034-0.925,1.467,0,1.434
				c4.979-0.181,10.498,0.399,12.52-5.225c1.728-4.806-3.355-6.785-7.108-5.582c0.184,0.437,0.368,0.873,0.552,1.31
				c4.368-2.338,3.351-6.521-0.743-8.477c-4.667-2.23-9.461,0.017-10.375,5.136c0.47,0.063,0.938,0.127,1.408,0.19
				c-0.051-3.338-2.138-6.275-5.768-5.577c-3.538,0.681-3.017,4.397-1.285,6.545C130.87,25.509,131.877,24.488,131.303,23.775
				L131.303,23.775z"/>
		</g>
	</g>
	<g>
		<g>
			<path fill="#FFFFFF" d="M68.804,42.767c-1.011-0.959-2.451-2.397-1.704-3.913c0.545-1.105,2.069-1.542,3.157-1.809
				c2.876-0.705,6.584-0.129,8.569,2.207c0.521,0.613,1.288-0.071,1.198-0.697c-0.843-5.831,8.798-9.245,11.502-3.848
				c0.393,0.783,1.428,0.191,1.311-0.552c-0.576-3.632,3.88-5.519,6.191-2.767c0.596,0.708,1.604-0.311,1.014-1.014
				c-3.343-3.979-9.36-0.713-8.588,4.161c0.437-0.184,0.874-0.368,1.311-0.552c-3.484-6.951-15.185-2.392-14.123,4.953
				c0.399-0.232,0.799-0.465,1.198-0.697c-2.604-3.064-7.528-3.474-11.134-2.233c-4.183,1.439-3.696,5.137-0.916,7.775
				C68.46,44.416,69.476,43.404,68.804,42.767L68.804,42.767z"/>
		</g>
	</g>
	<g>
		<g>
			<path fill="#FFFFFF" d="M99.962,46.276c-0.561-1.764-0.524-3.808-0.433-5.641c-0.176,0.23-0.351,0.461-0.526,0.691
				c2.534-0.9,4.726-0.484,6.773,1.263c0.338-0.338,0.676-0.676,1.014-1.014c-2.248-1.765-0.877-3.126,1.334-3.833
				c1.68-0.537,4.131-0.709,5.554,0.527c0.694,0.603,1.713-0.406,1.014-1.014c-3.818-3.318-14.78,0.729-8.915,5.333
				c0.71,0.558,1.728-0.405,1.014-1.014c-2.429-2.072-5.126-2.712-8.168-1.631c-0.315,0.112-0.509,0.352-0.526,0.691
				c-0.098,1.956-0.116,4.134,0.483,6.021C98.859,47.535,100.243,47.16,99.962,46.276L99.962,46.276z"/>
		</g>
	</g>
	<g>
		<g>
			<path fill="#C5843D" d="M109.041,83.517c0.041,0.055,0.077,0.107,0.105,0.141C109.118,83.624,109.082,83.571,109.041,83.517z"/>
			<path fill="#C5843D" d="M105.155,78.717c-0.073-0.091-0.137-0.164-0.181-0.212C105.016,78.55,105.071,78.621,105.155,78.717z"/>
			<path fill="#FFFFFF" d="M122.339,95.331c-1.373-0.051-2.892,0.271-4.23,0.895c-0.438,0.071-0.872,0.168-1.318,0.307
				c-0.927,0.295,1.755,1.082,0.909,1.533c-0.178,0.098-0.376,0.174-0.56,0.27c0.017-0.049,0.042-0.082,0.047-0.129
				c0.936-3.485,0.156-7.037,0.471-10.599c0.424-4.646,0.458-8.866-0.592-13.47c-1.97-8.662-15.596-10.783-23.723-12.432
				c-10.264-2.076-21.245-2.527-31.657-1.76c-3.567,0.264-11.561,5.595-11.595,6.498c-0.372,8.565,0.989,14.572-6.066,26.342
				c-3.469,5.126-5.229,10.33-5.38,16.26c-0.23,8.775,26.964,17.491,33.75,20.293c7.957,3.283-9.36,27.207,12.107,19.484
				c2.693-0.971-1.235-17.919,0.578-18.328c29.904-3.271,24.401-13.775,29.755-16.766c3.833-1.752,8.3-3.699,10.81-6.913
				c0.025-0.021,0.053-0.039,0.066-0.06c0.534-0.59,0.891-1.215,1.11-1.85c0.312-0.689,0.555-1.424,0.681-2.221
				C127.943,99.993,125.707,95.464,122.339,95.331z"/>
			<path fill="#C5843D" d="M104.974,78.505C104.887,78.39,104.895,78.403,104.974,78.505L104.974,78.505z"/>
		</g>
		<path fill="#C5843D" d="M109.146,83.657C109.24,83.769,109.237,83.763,109.146,83.657L109.146,83.657z"/>
	</g>
	<g>
		<g>
			<path fill="#020303" d="M92.028,74.438c2.593,1.04,4.395,3.345,6.915,4.531c0.687,0.323,1.288-0.697,0.598-1.022
				c-2.619-1.232-4.492-3.564-7.198-4.65C91.633,73.012,91.329,74.157,92.028,74.438L92.028,74.438z"/>
		</g>
	</g>
	<g>
		<g>
			<path fill="#020303" d="M56.371,75c0.695-0.795,1.998-1.333,2.896-1.85c1.309-0.753,2.764-1.678,4.266-1.967
				c0.749-0.144,0.431-1.285-0.314-1.142c-1.499,0.288-2.942,1.187-4.256,1.92c-1.077,0.601-2.599,1.251-3.429,2.201
				C55.034,74.735,55.868,75.576,56.371,75L56.371,75z"/>
		</g>
	</g>
	<path fill="#0E8CCD" d="M60.345,148.192c-2.274,0.329-34.289,9.359-34.289,9.359l9.451,22.561c0,0,29.652-14.28,46.496-11.932
		C98.848,170.535,70.536,146.71,60.345,148.192z"/>
	<g>
		<g>
			<path fill="#020303" d="M74.577,110.698c-1.91-0.64-3.821-1.278-5.731-1.916c-0.726-0.243-1.035,0.901-0.314,1.142
				c1.911,0.638,3.821,1.276,5.731,1.916C74.988,112.083,75.297,110.939,74.577,110.698L74.577,110.698z"/>
		</g>
	</g>
	<path fill="#58C1EB" d="M102.807,82.601l22.177-2.134l-0.455,12.326l-16.708,11.961C107.821,104.754,106.142,92.175,102.807,82.601
		z"/>
	<g>
		<path fill="#C8E7F1" d="M45.824,78.651c-6.35,0.57-6.131,7.592-6.021,12.543c0.098,5.121,3.057,8.463,9.433,9.655
			c5.567,0.938,14.445,2.223,18.448-1.941c2.854-3.224,1.547-12.744,9.688-7.405c-1.073,4.158,2.917,14.29,22.482,16.915
			c6.473,0.87,8.521-2.794,9.729-8.294c1.188-5.31,1.105-12.902-5.017-14.898C97.422,82.92,55.806,75.028,45.824,78.651z"/>
		<g>
			<path fill="#58C1EB" d="M45.824,77.945c-6.281,0.809-6.827,6.971-6.75,12.198c0.038,2.567,0.355,5.198,2.067,7.246
				c2.135,2.553,5.267,3.701,8.474,4.237c5.85,0.977,13.822,2.325,18.568-2.218c1.361-1.303,1.771-3.669,2.322-5.381
				c0.34-1.059,0.735-2.132,1.535-2.933c1.351-1.354,3.769,0.262,4.975,1.019c-0.108-0.266-0.216-0.532-0.324-0.797
				c-1.316,5.606,3.904,10.61,8.199,13.176c4.688,2.8,10.318,4.119,15.691,4.713c4.424,0.489,7.381-1.975,8.867-5.943
				c1.567-4.183,2.091-9.398,0.552-13.646c-1.213-3.348-4.017-4.795-7.241-5.634c-7.669-1.994-15.558-3.302-23.382-4.511
				c-6.505-1.005-13.049-1.84-19.62-2.264c-4.525-0.292-9.746-0.748-14.12,0.764c-0.855,0.295-0.488,1.66,0.375,1.361
				c2.922-1.009,6.206-0.944,9.257-0.9c4.469,0.064,8.934,0.493,13.372,0.998c9.282,1.054,18.528,2.612,27.672,4.524
				c2.643,0.553,5.309,1.106,7.893,1.898c5.897,1.808,5.735,9.195,4.697,14.085c-0.506,2.381-1.24,4.842-3.061,6.555
				c-2.54,2.388-6.964,1.142-9.925,0.539c-5.083-1.037-10.229-2.972-14.085-6.541c-2.258-2.089-4.542-5.553-3.78-8.798
				c0.075-0.317-0.047-0.624-0.324-0.797c-3.379-2.12-6.481-2.41-8.175,1.614c-0.76,1.808-1.044,3.785-2.061,5.486
				c-1.682,2.814-6.269,3.067-9.131,3.101c-5.718,0.068-14.882-0.488-17.305-6.713c-0.944-2.427-0.67-5.585-0.481-8.14
				c0.247-3.349,1.58-6.411,5.249-6.884C46.714,79.243,46.725,77.829,45.824,77.945z"/>
		</g>
	</g>
	
		<ellipse transform="matrix(-0.999 0.0442 -0.0442 -0.999 188.1382 193.6446)" fill="none" stroke="#020303" stroke-width="1.1837" stroke-miterlimit="10" cx="91.929" cy="98.901" rx="2.962" ry="4.25"/>
	<path fill="#58C1EB" d="M42.615,80.511l7.285-5.688c0,0,37.33-0.704,62.307,8.029c1.972,0.688-7.877,1.48-7.877,1.48
		s-42.54-6.823-52.128-5.323C42.615,80.511,42.615,80.511,42.615,80.511z"/>
	<path fill="none" stroke="#020303" stroke-width="1.1837" stroke-miterlimit="10" d="M59.879,93.533
		c-0.005,2.394-0.981,2.134-2.505,2.129c-1.531-0.014-3.043,0.235-3.031-2.159c0.011-2.382,1.26-4.312,2.795-4.306
		C58.662,89.206,59.896,91.148,59.879,93.533z"/>
	<g>
		<path fill="#FFFFFF" d="M74.64,88.919c0.305,4.785-0.582,5.818-2.231,10.19c-1.96-0.411-3.826-0.642-5.065-1.792
			c-5.33,8.288,2.443,7.912,6.089,7.918"/>
		<g>
			<path fill="#020304" d="M74.246,88.919c0.109,2.151-0.012,4.152-0.706,6.202c-0.355,1.049-0.805,2.071-1.211,3.102
				c-0.496,1.256-4.427-0.968-4.707-1.184c-0.201-0.156-0.474-0.157-0.62,0.08c-1.273,2.064-3.058,5.314-0.679,7.277
				c1.828,1.508,4.911,1.236,7.109,1.234c0.509,0,0.509-0.79,0-0.789c-2.175,0.001-5.011,0.267-6.799-1.208
				c-1.65-1.361-0.147-4.048,0.625-5.426c0.128-0.229,4.54,1.182,5.045,1.284c0.227,0.046,0.404-0.064,0.485-0.275
				c1.362-3.549,2.441-6.44,2.246-10.295C75.009,88.413,74.22,88.41,74.246,88.919L74.246,88.919z"/>
		</g>
	</g>
	<path fill="#C8E7F1" d="M111.874,211.894c-3.962,11.488,1.872,23.922,13.029,27.77s23.416-2.346,27.378-13.836
		c3.963-11.488-1.871-23.922-13.028-27.769C128.093,194.208,115.836,200.402,111.874,211.894z"/>
	<polygon fill="#C8E7F1" points="111.213,199.263 87.616,184.687 83.139,198.095 108.59,206.87 	"/>
	<path fill="#FFFFFF" d="M114.904,185.729c0,0-13.336,4.492-15.082,10.28c-1.743,5.788-1.92,13.653-1.92,13.653l13.599,6.426
		c0,0,2.654-3.671,2.644-8.314c-0.007-4.643,9.224-4.271,10.056-10.188c0.835-5.915,1.457-10.344,1.457-10.344L114.904,185.729z"/>
	<path fill="#FFFFFF" d="M29.928,166.794c0,0-56.456,26.66-14.288,45.245c24.195,10.665,31.686,13.452,31.686,13.452l8.719-7.977
		c0,0-39.599-11.428-39.622-23.428c-0.014-6.338,18.021-17.217,18.021-17.217L29.928,166.794z"/>
	<path fill="#0E8CCD" d="M147.902,221.44c-0.151,0.957-0.375,1.912-0.7,2.86c-2.93,8.491-11.989,13.069-20.236,10.225
		c-7.33-2.526-11.538-10.069-10.327-17.681L147.902,221.44z"/>
	<path fill="#C8E7F1" d="M88.996,202.773L73.7,196.806c0,0-16.47,40.783-19.796,49.35c-3.33,8.57,4.455,15.52,10.506,3.635
		C65.277,248.091,88.996,202.773,88.996,202.773z"/>
	<path fill="#FFFFFF" d="M52.626,218.097c0,0,2.629-17.681,9.378-14.414c6.748,3.264,9.054,0.893,9.054,0.893l-3.688,7.338
		l-4.4-0.639c0,0-1.325,6.756,7.621,9.463c8.947,2.709,9.477-5.343,9.477-5.343c2.349-2.245,11.52-8.378,3.99,4.877
		c-4.68,8.231-12.592,6.366-12.592,6.366s14.838,2.908,19.167,2.869c3.687-0.036,6.142,5.61-1.479,5.268
		c-8.438-0.384-18.967-2.787-18.967-2.787s8.828,5.363,13.427,7.388c7.116,3.139,2.946,7.401-6.874,2.243
		c-4.283-2.252-10.286-4.893-10.286-4.893c-1.161,1.293,7.683,12.406,5.175,13.664c-2.506,1.257-10.808-11.81-10.808-11.81
		l-13.495-13.089L52.626,218.097z"/>
	<path fill="#FEEDA4" d="M71.247,177.167c0,2.704,2.241,4.896,5.009,4.896c2.763,0,5.003-2.192,5.003-4.896
		c0-2.707-2.24-4.898-5.003-4.898C73.488,172.269,71.247,174.46,71.247,177.167z"/>
	<ellipse fill="#FEEDA4" cx="81.238" cy="190.237" rx="2.154" ry="2.287"/>
	<ellipse fill="#FEEDA4" cx="91.736" cy="165.044" rx="8.721" ry="8.883"/>
</g>
<g>
</g>
<g>
</g>
<g>
</g>
<g>
</g>
<g>
</g>
<g>
</g>
</svg>
