<?xml version="1.0" encoding="utf-8"?>
<!-- Generator: Adobe Illustrator 16.0.4, SVG Export Plug-In . SVG Version: 6.00 Build 0)  -->
<!DOCTYPE svg PUBLIC "-//W3C//DTD SVG 1.1//EN" "http://www.w3.org/Graphics/SVG/1.1/DTD/svg11.dtd">
<svg version="1.1" id="Layer_1" xmlns="http://www.w3.org/2000/svg" xmlns:xlink="http://www.w3.org/1999/xlink" x="0px" y="0px"
	 width="177.756px" height="240.092px" viewBox="0 0 177.756 240.092" enable-background="new 0 0 177.756 240.092"
	 xml:space="preserve">
<g>
	<path fill="#FEEDA4" d="M155.25,61.958c-1.048-14.995-7.517-27.143-15.857-36.196c-3.99-4.331-34.468-27.919-38.645-21.413
		c-3.554,1.151-7.656-3.984-11.75-4.277c-8.324-0.594-17.247,2.527-25.196,8.004C44.704,21.244,42.61,37.039,38.865,59.867
		c-3.142,19.142-0.761,27.107,8.018,40.461c10.688,16.283-4.419,37.479-20.048,30.105c-9.961-4.697-31.75-20.9-11.346-35.453
		c5.556-3.963,11.181-2.291,12.708,4.898c1.476,6.961-3.058,12.535-4.067,6.516c-0.838-5.055-15.53,2.117-5.195,9.051
		c10.656,7.148,22.549-14.832,19.627-26.826C34.57,72.255,7.354,86.487,2.382,99.318c-6.411,16.572,1.325,39.641,8.938,50.068
		C52.871,206.277,161.718,154.787,155.25,61.958C154.196,46.823,157.12,88.828,155.25,61.958z M28.145,87.984
		c6.281-0.23,6.835,3.577,5.025,10.059C32.344,94.482,24.424,88.119,28.145,87.984C30.037,87.914,27.543,88.006,28.145,87.984z"/>
	<polygon fill="#82CFF5" points="163.763,240.092 151.989,163.633 69.764,165.918 36.397,232.443 	"/>
	<path fill="#FFFFFF" d="M148.088,107.466c0,0,26.814,23.147,29.464,31.037c2.649,7.888-21.397,52.166-21.397,52.166l-1.975-15.568
		c0,0-3.659,5.35-8.525,5.35c-4.865,0-2.433-4.864,0-4.864c2.434,0,0.971-8.759,4.866-7.788c3.894,0.977,9.791,0.977,9.791,0.977
		s9.053-26.854,6.229-30.164c-6.221-7.303-31.591-26.277-31.591-26.277L148.088,107.466z"/>
	<path fill="#FFFFFF" d="M90.39,110.525c0,0-3.499,28.723-16.888,39.875c-12.967,10.797-22.218,30.981-22.218,30.981l-0.646,21.92
		l8.998-15.659c0,0,3.195-0.524,5.637,0.912c2.438,1.434,8.271-1.15,6.502-2.584c-1.768-1.434-6.075-0.284-6.502-2.296
		c-0.43-2.007-6.45-3.439-6.45-3.439s21.108-22.715,24.925-27.827c6.206-8.32,22.979-39.873,22.979-39.873L90.39,110.525z"/>
	<path fill="#1E1E1C" d="M137.635,164.271c-1.021-14.506-0.064-35.354-0.064-45.373c0-0.229,0,0,2.165-0.663
		c5.864-1.795,16.708-4.525,16.616-4.65c-9.604-13.298-18.75-17.724-34.772-19.071c-26.472-2.229-38.381,17.82-38.381,17.82
		c2.354-1.43,17.069,4.963,17.206,5.189c5.898,9.406,1.184,35.773,0.008,48.396"/>
	<g>
		<path fill="#FFFFFF" d="M54.649,74.224c1.033-4.828,5.613-20.983,6.125-22.246c1.988-4.893,4.432-8.806,7.68-11.656
			c7.588,5.498,15.631,8.799,25.607,9.619c7.615,0.627,15.557,0.755,23.34-0.079c0.248,1.454,0.455,2.847,0.645,4.039
			c0.496,3.136,0.188,6.927,0.323,10.474c2.126-2.533,4.636-4.223,6.696-0.232l0,0c0.828,1.614,1.16,2.265,1.219,2.373
			c-0.096-0.184-0.752-1.463-1.216-2.367c3.597,7.004-2.581,12.475-6.882,17.375c-0.648,4.275-0.641,8.578-0.438,12.576
			c1.135,5.162,1.232,6.922-0.404,8.464c-8.199,3.191-7.174-1.507-8.52-4.017c-0.514-2.396-1.033-4.39-1.49-5.328
			c-1.541,0.51-4.4,3.012-5.763,3.634c-7.804,3.548-16.513,7.038-18.657,5.212C74.358,94.76,52.45,84.494,54.649,74.224z"/>
	</g>
	<g>
		<g>
			<path fill="#020303" d="M67.875,68.956c0.742,0.531,1.404,1.375,1.16,2.335c-0.327,1.287-2.234,0.649-2.934,0.225
				c-0.77-0.467-1.388-1.423-1.154-2.334C65.277,67.898,67.174,68.53,67.875,68.956c0.674,0.409,1.286-0.646,0.615-1.053
				c-1.285-0.78-3.555-1.186-4.465,0.412c-0.917,1.61,0.116,3.292,1.461,4.254c1.227,0.878,3.604,1.119,4.473-0.412
				c0.914-1.611-0.125-3.293-1.469-4.254C67.849,67.444,67.241,68.502,67.875,68.956z"/>
		</g>
	</g>
	<g>
		<g>
			<path fill="#020303" d="M81.058,65.237c-0.729,2.628,0.675,5.56-0.439,8.069c-1.257,2.829-4.952-0.567-6.412,1.925
				c-2.318,3.958,4.626,5.494,7.155,5.159c0.644-0.085,0.652-1.108,0-1.021c-1.925,0.254-4.264-0.169-5.816-1.38
				c-0.561-0.448-0.771-1.052-0.632-1.812c0.225-1.37,1.858-0.88,2.602-0.741c0.714,0.133,1.369,0.187,2.071-0.018
				c4.089-1.188,1.677-7.101,2.456-9.91C82.219,64.872,81.233,64.603,81.058,65.237L81.058,65.237z"/>
		</g>
	</g>
	<g>
		<g>
			<path fill="#020303" d="M88.776,84.579c-2.714,1.178-7.605,4.371-10.57,2.634c0.061,0.233,0.122,0.466,0.184,0.699
				c1.371-3.132,6.547-2.476,9.303-2.137c0.653,0.081,0.646-0.942,0-1.021c-3.114-0.383-8.628-0.916-10.186,2.643
				c-0.111,0.255-0.077,0.546,0.184,0.699c3.433,2.011,8.458-1.271,11.602-2.634C89.895,85.2,89.374,84.319,88.776,84.579
				L88.776,84.579z"/>
		</g>
	</g>
	<g>
		<g>
			<path fill="#020303" d="M80.176,89.046c1.034,0.743,2.132,1.182,3.41,0.923c1.308-0.265,2.236-1.518,2.879-2.583
				c0.341-0.566-0.543-1.079-0.883-0.516c-0.501,0.833-1.096,1.656-2.025,2.039c-1.019,0.419-2.056-0.164-2.866-0.746
				C80.156,87.778,79.646,88.666,80.176,89.046L80.176,89.046z"/>
		</g>
	</g>
	<g>
		<path fill="#1E1E1C" d="M86.209,67.36c1.711-6.328,12.494-7.577,16.493-4.765c1.416-0.964,3.538-3.264,4.06-4.773
			c-3.719,2.264-3.922,1.874-5.162,1.704c-6.781-0.935-12.461-1.512-15.334,7.324"/>
		<g>
			<path fill="#020303" d="M86.75,67.509c1.787-5.686,11.015-7.446,15.669-4.43c0.153,0.099,0.415,0.112,0.566,0
				c1.738-1.282,3.403-2.962,4.261-4.974c0.204-0.48-0.238-1.084-0.768-0.767c-1.902,1.138-3.154,1.862-5.325,1.566
				c-2.242-0.306-4.492-0.565-6.754-0.348c-4.681,0.451-7.237,3.981-8.674,8.145c-0.237,0.685,0.847,0.977,1.081,0.298
				c1.836-5.32,5.196-7.666,10.76-7.365c1.663,0.09,3.295,0.423,4.948,0.585c1.559,0.153,3.308-1.181,4.53-1.913
				c-0.256-0.255-0.512-0.511-0.768-0.767c-0.579,1.36-1.536,2.449-2.569,3.489c-1.115,1.124-1.468,0.568-2.752,0.13
				c-1.983-0.677-4.228-0.637-6.274-0.368c-3.853,0.506-7.786,2.515-9.013,6.421C85.452,67.903,86.534,68.196,86.75,67.509
				L86.75,67.509z"/>
		</g>
	</g>
	<g>
		<path fill="#1E1E1C" d="M74.045,69.22c-2.926-4.079-10.999-2.076-13.119,1.016c-1.268-0.312-3.411-1.393-4.191-2.333
			c3.277,0.623,3.318,0.288,4.16-0.165c4.617-2.494,8.537-4.437,12.972,1.133"/>
		<g>
			<path fill="#020303" d="M74.349,68.917c-2.053-2.555-5.409-2.722-8.405-2.077c-1.414,0.305-2.944,0.941-4.081,1.849
				c-0.328,0.262-0.89,1.113-1.335,0.982c-1.257-0.372-2.575-1.143-3.49-2.071c-0.139,0.239-0.279,0.479-0.418,0.718
				c2.121,0.381,3.269,0.448,5.117-0.544c1.802-0.968,3.648-1.876,5.712-2.062c2.581-0.232,4.58,1.646,6.114,3.464
				c0.357,0.424,0.962-0.187,0.607-0.607c-2.153-2.553-4.577-4.129-7.99-3.551c-1.712,0.29-3.361,1.217-4.876,2.015
				c-1.643,0.866-2.531,0.804-4.455,0.458c-0.407-0.073-0.739,0.392-0.418,0.718c1.189,1.207,2.77,1.967,4.381,2.443
				c0.202,0.06,0.368-0.044,0.485-0.197c2.625-3.441,9.581-4.493,12.444-0.929C74.089,69.956,74.692,69.344,74.349,68.917
				L74.349,68.917z"/>
		</g>
	</g>
	<path fill="#F6AD9E" d="M108.365,74.708c0.386,2.115-1.81,4.288-4.903,4.852c-3.094,0.561-5.912-0.705-6.299-2.821
		c-0.383-2.121,1.816-4.294,4.908-4.853C105.165,71.325,107.981,72.587,108.365,74.708z"/>
	<path fill="#F6AD9E" d="M70.992,80.037c0.384,2.119-1.81,4.29-4.904,4.851c-3.089,0.563-5.911-0.706-6.298-2.823
		c-0.381-2.118,1.814-4.293,4.908-4.855C67.793,76.652,70.607,77.917,70.992,80.037z"/>
	<g>
		<g>
			<path fill="#020303" d="M94.337,63.42c0.831,0.831,1.685,2.322,0.778,3.412c-0.899,1.082-2.643,0.208-3.45-0.499
				c-0.882-0.772-1.65-2.364-0.781-3.41C91.785,61.838,93.529,62.711,94.337,63.42c0.588,0.516,1.454-0.343,0.861-0.862
				c-1.434-1.256-3.626-1.963-5.176-0.497c-1.543,1.459-0.441,3.91,0.781,5.135c1.342,1.345,3.691,1.902,5.173,0.499
				c1.541-1.459,0.447-3.912-0.778-5.137C94.643,62.001,93.781,62.863,94.337,63.42z"/>
		</g>
	</g>
	<g>
		<g>
			<path fill="#020303" d="M67.548,56.693c-2.778,1.739-5.839,2.852-8.875,4.046c-0.606,0.238-0.342,1.227,0.271,0.985
				c3.118-1.227,6.266-2.363,9.119-4.149C68.621,57.227,68.109,56.342,67.548,56.693L67.548,56.693z"/>
		</g>
	</g>
	
		<line fill="none" stroke="#FFFFFF" stroke-width="1.2192" stroke-miterlimit="10" x1="137.716" y1="221.058" x2="142.725" y2="224.778"/>
	<polyline fill="none" stroke="#FFFFFF" stroke-width="1.2192" stroke-miterlimit="10" points="83.199,171.828 77.948,175.644 
		137.728,173.246 142.725,224.778 147.564,220.609 	"/>
	
		<line fill="none" stroke="#FFFFFF" stroke-width="1.2192" stroke-miterlimit="10" x1="83.199" y1="178.988" x2="77.948" y2="175.644"/>
	<polyline fill="none" stroke="#A42423" stroke-width="1.2192" stroke-miterlimit="10" points="136.6,169.815 127.2,190.669 
		116.823,169.815 104.377,200.023 96.319,182.344 77.948,206.737 	"/>
</g>
<g>
</g>
<g>
</g>
<g>
</g>
<g>
</g>
<g>
</g>
<g>
</g>
</svg>
