<?xml version="1.0" encoding="utf-8"?>
<!-- Generator: Adobe Illustrator 16.0.4, SVG Export Plug-In . SVG Version: 6.00 Build 0)  -->
<!DOCTYPE svg PUBLIC "-//W3C//DTD SVG 1.1//EN" "http://www.w3.org/Graphics/SVG/1.1/DTD/svg11.dtd">
<svg version="1.1" id="Layer_1" xmlns="http://www.w3.org/2000/svg" xmlns:xlink="http://www.w3.org/1999/xlink" x="0px" y="0px"
	 width="252.917px" height="265.813px" viewBox="0 0 252.917 265.813" enable-background="new 0 0 252.917 265.813"
	 xml:space="preserve">
<g>
	<g>
		<polygon fill="#FFFFFF" points="108.098,211.705 67.08,221.302 64.434,216.505 66.209,211.705 108.098,202.551 		"/>
		<path fill="#A42423" d="M4.287,210.477l62.027,10.825l1.34,0.234c0,0-2.688-2.663-0.949-9.626L5.395,201.873
			C5.395,201.873,2.07,202.943,4.287,210.477z"/>
		<polygon fill="#A42423" points="5.418,201.873 47.801,194.401 108.098,202.551 66.209,211.705 		"/>
	</g>
	<g>
		<polygon fill="#FFFFFF" points="106.486,199.813 65.465,209.409 62.824,204.611 64.596,188.989 106.486,182.541 		"/>
		<path fill="#0E8CCD" d="M2.678,198.584l62.025,10.825l1.338,0.233c0,0-2.684-13.485-0.947-20.449L3.782,179.156
			C3.782,179.156,0.461,191.051,2.678,198.584z"/>
		<polygon fill="#0E8CCD" points="3.808,179.156 51.465,170.961 107.817,182.163 64.596,188.989 		"/>
	</g>
	<g>
		<path fill="#110906" d="M161.486,167.524c0,0-24.588-15.567-30.479-4.183c-5.893,11.388,33.355,62.46,33.355,62.46
			s-26.17,30.071-13.983,32.807c12.192,2.731,24.561-32.807,24.561-32.807s-31.405-43.782-27.548-50.161
			c3.857-6.375,21.117,16.344,21.117,16.344L161.486,167.524z"/>
		<path fill="#FFFFFF" d="M144.469,51.838c-0.131-0.088-0.549-0.349-1.635-0.503c-0.95-0.095-1.901-0.142-2.855-0.133
			c-2.918,0.053-5.832,0.235-8.719,0.64c-0.938,0.133-1.877,0.281-2.818,0.426c0.202,0.035,0.401,0.071,0.602,0.097
			c-1.477,0.713-2.936,1.45-4.287,2.376c-2.734,1.869-5.414,3.858-7.756,6.183c-4.395,4.354-7.724,9.258-10.436,14.716
			c-4.561,9.161-5.266,18.685-1.363,28.171c0.4,0.976,1.67,1.255,2.615,0.943c4.16,0.621,8.018-2.999,11.634-4.419
			c2.854-1.12,5.735-2.17,7.204-4.213c1.229,0.01,2.453-0.869,2.068-2.328c-1.52-5.706-1.078-10.376,0.869-15.985
			c1.654-4.765,3.384-9.891,6.232-14.138c2.693-4.021,5.98-6.65,9.758-9.399C145.084,53.553,144.697,52.742,144.469,51.838z"/>
		<path fill="#82CFF5" d="M153.918,96.468c-10.637,1.384-17.857-1.025-22.262-3.557c0.121-0.059,0.248-0.103,0.373-0.163
			c1.485-0.719,1.531-2.759,0.197-3.482c0.086-0.303,0.107-0.617,0.049-0.891c-1.408-6.735-7.754-5.197-13.52-3.769
			c-7.672,1.909-15.781,1.928-23.221,4.675c-1.758,0.646-1.432,2.484-0.236,3.294c-0.367,0.635-0.619,1.348-0.771,2.112
			c-0.16,0.823,0.404,1.48,1.127,1.823c-0.062,0.084-0.119,0.172-0.182,0.254c-0.612,0.78-0.4,1.885,0.285,2.513
			c0.145,0.967,1.209,1.824,2.389,1.748c0.307-0.005,0.623-0.07,0.951-0.228c0.164-0.081,0.312-0.197,0.457-0.327
			c0.391-0.245,0.836-0.469,1.346-0.66c2.523,6.709,7.977,15.212,19.783,20.112c24.717,10.256,63.971,0.479,62.416,0.853
			C183.059,121.029,173.746,93.897,153.918,96.468z M126.34,87.564c-1.682,0.088-3.39-0.037-5.039,0.359
			c-1.197,0.288-2.377,0.629-3.551,0.985l-0.526,0.028C120.129,88.098,124.07,86.971,126.34,87.564z"/>
		<path fill="#82CFF5" d="M218.807,198.877c-3.775,6.599,34.246-74.942,22.333-89.292c-8.616-10.378-8.058-14.026-13.786-18.376
			c-2.018-1.533,3.768-3.918,1.393-4.838c-5.367-2.082-24.941-4.689-35.227-4.239c-12.07,0.534-22.348,5.084-30.174,7.749
			c-2.012,0.683-1.545,10.91-2.902,12.344c-6.053,6.379-5.908,9.28-4.584,22.812c2.869,29.337,9.963,61.025,9.963,61.025
			S220.543,199.375,218.807,198.877"/>
		<path fill="#FFFFFF" d="M236.614,167.802c-0.624-4.167-2.673-6.436-5.249-9.452c-2.041-2.389-11.132-7.983-12.533-7.168
			c-5.467,3.192-10.452,4.197-16.882,4.054c-5.458-0.128-11.317-0.21-16.603-1.632c-4.992-1.342-11.162-10.269-15.162-13.026
			c-0.902,0.806,0.418,8.039-0.936,8.38c-3.066,0.771-6.086,1.607-9.074,2.541c2.781,5.709,8,9.613,14.383,12.224
			c0.451,0.184,3.514,2.172,4.885,3.179c2.781,2.041,5.668,3.999,8.799,5.524c5.873,2.863,11.984,4.547,18.488,5.469
			c10.92,1.558,21.029-0.678,29.703-7.308C237.324,169.904,237.227,168.607,236.614,167.802z"/>
		<path fill="#FFFFFF" d="M217.73,87.828c0.926,0.718-27.24,13.052-32.434,34.924c-0.135,0.569-16.451-28.395-16.451-28.395
			s6.35-12.932,3.967-14.836c-2.379-1.901-9.523-1.901-12.701-6.086c-3.176-4.187,7.146-46.415,12.305-55.923
			c5.162-9.515,31.752-4.188,35.324,0C211.312,21.695,209.393,81.359,217.73,87.828z"/>
		<path fill="#1E1E1C" d="M159.504,5.67c2.237-1.799,5.225-1.912,8.113-1.164c0.098-1.482,0.959-2.818,3.07-3.712
			c3.652-1.544,7.638-0.681,11.045,1.253c3.76-3.418,18.596,6.496,23.699,11.245c4.828,4.488,7.867,8.099,6.346,15.726
			c-0.43-0.369-8.51-2.077-8.666-2.523c0.152,1.486-1.4-7.667-1.547-7.713c-3.494-1.092-13.23-1.76-16.845-1.651
			c-6.913,0.208-14.011,0.947-20.515-1.723C160.646,13.948,155.174,9.157,159.504,5.67z"/>
		<ellipse fill="#FFFFFF" cx="214.09" cy="40.337" rx="7.542" ry="7.419"/>
		<g>
			<g>
				<path fill="#1E1E1C" d="M186.219,40.59c0.039,1.148,0.454,4.588,2.342,4.336c1.936-0.259,2.29-2.757,2.344-4.336
					c0.053-1.57-0.477-4.084-2.344-4.334C186.674,36.003,186.258,39.442,186.219,40.59c-0.015,0.426,0.646,0.425,0.66,0
					c0.039-1.157,0.193-3.117,1.498-3.649c1.506-0.615,1.848,3.071,1.867,3.649c0.03,0.903-0.292,3.863-1.867,3.651
					c-1.298-0.174-1.469-2.788-1.498-3.651C186.864,40.165,186.204,40.164,186.219,40.59z"/>
			</g>
		</g>
		<g>
			<g>
				<path fill="#1E1E1C" d="M169.195,40.147c0.054,1.577,0.409,4.077,2.342,4.336c1.892,0.254,2.303-3.186,2.342-4.336
					c0.053-1.57-0.474-4.085-2.342-4.335C169.648,35.56,169.234,38.999,169.195,40.147c-0.015,0.426,0.646,0.425,0.66,0
					c0.035-1.042,0.202-3.476,1.682-3.675c1.42-0.19,1.657,2.948,1.682,3.675c0.035,1.035-0.254,3.485-1.682,3.676
					c-1.417,0.189-1.657-2.95-1.682-3.676C169.841,39.723,169.181,39.722,169.195,40.147z"/>
			</g>
		</g>
		<g>
			<g>
				<path fill="#1E1E1C" d="M179.539,39.107c0.032,3.044-1.002,5.908-1.396,8.9c0.18-0.103,0.358-0.206,0.538-0.309
					c-2.557-1.301-8.763-1.042-7.437,3.24c1.226,3.959,8.424,5.451,11.069,2.367c0.298-0.348-0.205-0.855-0.506-0.505
					c-2.314,2.698-6.85,1.261-9.09-0.836c-1.689-1.58-0.852-3.513,1.089-4.133c1.464-0.467,3.169-0.199,4.513,0.484
					c0.263,0.134,0.502-0.038,0.538-0.309c0.396-3.003,1.429-5.845,1.396-8.9C180.249,38.647,179.534,38.646,179.539,39.107
					L179.539,39.107z"/>
			</g>
		</g>
		<g>
			<g>
				<path fill="#1E1E1C" d="M216.671,36.833c-1.269-0.316-3.533-0.777-4.634,0.25c-1.164,1.086,0.391,2.308,1.265,2.925
					c0.408,0.288,2.848,0.775,1.505,1.61c-0.499,0.311-1.17,0.329-1.699,0.593c-1.175,0.587-0.715,1.501,0.122,2.192
					c0.353,0.291,0.861-0.211,0.506-0.505c-1.321-1.091,0.496-1.227,1.289-1.596c0.635-0.296,0.938-1.058,0.843-1.73
					c-0.106-0.743-1.724-0.929-2.204-1.181c-0.973-0.51-1.877-1.716-0.338-2.087c1.017-0.246,2.167-0.028,3.156,0.219
					C216.929,37.634,217.118,36.944,216.671,36.833L216.671,36.833z"/>
			</g>
		</g>
		<g>
			<g>
				<path fill="#1E1E1C" d="M193.456,32.677c-3.67-0.621-7.389-1.288-11.108-1.508c-0.461-0.027-0.458,0.688,0,0.715
					c3.657,0.216,7.31,0.872,10.919,1.482C193.717,33.442,193.91,32.754,193.456,32.677L193.456,32.677z"/>
			</g>
		</g>
		<g>
			<g>
				<path fill="#1E1E1C" d="M174.94,31.182c-3.079,0.05-6.068,0.713-9.118,1.053c-0.453,0.051-0.458,0.766,0,0.715
					c3.047-0.339,6.043-1.003,9.118-1.053C175.4,31.889,175.401,31.174,174.94,31.182L174.94,31.182z"/>
			</g>
		</g>
		<path fill="#1E1E1C" d="M211.777,29.76l-8.355-1.484l0.773,5.493c0,0,8.047-1.779,7.273-1.485
			C210.693,32.576,211.777,29.76,211.777,29.76z"/>
		<g>
			<g>
				<path fill="#1E1E1C" d="M189.482,58.016c-3.428,1.828-7.221,1.899-11.016,1.901c-0.461,0-0.461,0.715,0,0.715
					c3.932-0.003,7.831-0.109,11.377-1.999C190.25,58.416,189.89,57.799,189.482,58.016L189.482,58.016z"/>
			</g>
		</g>
		<g>
			<g>
				<path fill="#1E1E1C" d="M183.578,126.539c-2.853-7.918-7.631-14.146-12.609-20.789c-1.736-2.316-3.309-6.065-6.056-7.339
					c-2.207-1.024-4.601,2.925-5.634,4.164c0.188,0.078,0.376,0.156,0.563,0.233c0.113-3.798,1.58-7.619,2.596-11.249
					c0.442-1.584,1.173-1.873,2.682-2.54c2.108-0.932,4.274-1.724,6.365-2.698c0.386-0.18,0.05-0.749-0.334-0.57
					c-2.26,1.054-4.602,1.919-6.883,2.928c-1.185,0.524-1.984,0.808-2.291,2.049c-0.979,3.967-2.672,7.954-2.795,12.081
					c-0.008,0.273,0.376,0.458,0.563,0.233c0.978-1.172,1.931-2.375,3.05-3.418c1.521-1.417,2.796-0.059,3.819,1.159
					c1.897,2.259,3.417,4.855,5.228,7.191c4.552,5.875,8.557,11.682,11.099,18.74C183.085,127.112,183.723,126.941,183.578,126.539
					L183.578,126.539z"/>
			</g>
		</g>
		<g>
			<g>
				<path fill="#1E1E1C" d="M185.021,123.161c-1.081-4.416-3.215-8.455-5.485-12.362c-3.282-5.647-6.944-11.072-10.405-16.608
					c-0.226-0.36-0.797-0.029-0.57,0.333c3.336,5.335,6.815,10.583,10.039,15.987c2.403,4.03,4.662,8.241,5.785,12.826
					C184.486,123.75,185.123,123.575,185.021,123.161L185.021,123.161z"/>
			</g>
		</g>
		<path fill="none" stroke="#1E1E1C" stroke-width="0.6603" stroke-miterlimit="10" d="M217.73,87.828
			c-1.564-0.439-29.096,15.605-32.336,37.248c-1.533,10.25-2.254,21.248-2.254,21.248"/>
		<path fill="#82CFF5" d="M216.395,125.537c5.586,9.048,6.045,16.646,5.272,21.746c-0.106-0.088-0.204-0.181-0.313-0.266
			c-1.305-1.031-3.354-0.191-3.549,1.334c-0.334,0.057-0.651,0.173-0.904,0.344c-6.149,4.209-2.106,9.295,1.6,13.899
			c4.934,6.132,8.17,13.471,13.849,19.027c1.343,1.313,3.044,0.214,3.372-1.22c0.779,0.056,1.596-0.024,2.412-0.222
			c0.885-0.212,1.314-1.01,1.371-1.811c0.107,0.017,0.219,0.026,0.325,0.052c1.021,0.213,2.037-0.46,2.39-1.354
			c0.904-0.553,1.336-1.89,0.791-2.927c-0.121-0.277-0.312-0.535-0.601-0.762c-0.146-0.116-0.321-0.201-0.503-0.277
			c-0.404-0.244-0.803-0.553-1.193-0.93c5.68-5.209,11.996-13.858,12.199-26.698c0.428-26.884-24.861-58.227-23.866-56.981
			C229.312,88.42,205.979,108.681,216.395,125.537z M218.441,154.433c0.755,1.483,1.305,3.09,2.354,4.409
			c0.766,0.961,1.57,1.886,2.387,2.8l0.238,0.46C221.434,159.83,218.752,156.747,218.441,154.433z"/>
		<g>
			<g>
				<path fill="#1E1E1C" d="M216.488,83.411c2.746,0.729,5.541,1.232,8.293,1.932c1.323,0.337,2.612,0.785,3.89,1.262
					c0.797,0.297-0.515,1.803-0.778,2.409c-1.7,3.913-1.701,8.947-0.41,12.969c0.184-0.107,0.368-0.214,0.552-0.321
					c-3.06-2.872-6.508-5.334-8.464-9.156c-0.064-0.126-0.239-0.196-0.373-0.152c-5.43,1.781-10.043,6.938-13.892,10.908
					c-4.365,4.502-8.873,9.396-12.056,14.839c-0.215,0.368,0.355,0.701,0.57,0.333c3.869-6.619,9.568-12.522,15.06-17.805
					c2.709-2.606,5.608-5.22,8.947-6.993c1.185-0.629,1.226-0.62,1.898,0.524c0.516,0.877,1.196,1.664,1.863,2.425
					c1.788,2.041,4.005,3.69,5.979,5.542c0.23,0.217,0.657,0.006,0.552-0.321c-1.485-4.625-1.308-10.959,1.763-14.932
					c0.16-0.207,0.102-0.453-0.146-0.552c-4.243-1.692-8.68-2.383-13.072-3.549C216.252,82.665,216.077,83.302,216.488,83.411
					L216.488,83.411z"/>
			</g>
		</g>
		<path fill="#FFFFFF" d="M132.201,56.26c0,0-11.693-18.325-2.787-22.877c3.947-2.019,16.025-9.42,16.953-9.193
			c0.928,0.224,6.703,5.679,12.181,8.576c6.177,3.27,1.508,6.309-3.839,4.292c-5.338-2.016-7.877-5.917-7.877-5.917l-4.412,4.933
			c0,0-0.928,8.3,3.02,8.075c3.948-0.227,2.32-2.693,9.059-2.019c6.735,0.673,5.109,4.261,5.109,4.261s-1.854,1.121-5.34,1.344
			c-3.486,0.226-3.397,5.868-12.131,8.729"/>
		<g>
			<g>
				<g>
					<path fill="#010202" d="M180.979,39.004c3.127-0.921,6.331-1.012,9.558-0.727c1.949,0.172,4.829,0.345,5.039,2.843
						c0.103,1.227-0.186,2.646-0.778,3.724c-1.203,2.187-5.695,1.66-7.779,1.53c-4.431-0.275-6.265-3.42-5.698-7.679
						c0.063-0.475-0.682-0.469-0.744,0c-0.544,4.09,0.856,7.42,5.054,8.253c2.455,0.487,7.803,0.98,9.554-1.383
						c1.422-1.917,1.855-5.52-0.283-7.036c-1.52-1.078-4.214-1.008-5.993-1.12c-2.733-0.17-5.498,0.102-8.125,0.876
						C180.322,38.422,180.519,39.14,180.979,39.004L180.979,39.004z"/>
				</g>
			</g>
			<path fill="none" stroke="#010202" stroke-width="0.5935" stroke-miterlimit="10" d="M175.906,38.459
				c0,0,2.691-1.219,5.042,0.237"/>
			<g>
				<g>
					<path fill="#010202" d="M196.588,40.753c2.119-1.076,4.249-2.132,6.385-3.176c2.673-1.307,5.477-2.97,8.364-3.746
						c0.463-0.125,0.267-0.842-0.197-0.718c-2.79,0.75-5.48,2.334-8.062,3.587c-2.299,1.115-4.587,2.253-6.864,3.41
						C195.784,40.328,196.161,40.97,196.588,40.753L196.588,40.753z"/>
				</g>
			</g>
			<g>
				<g>
					<path fill="#010202" d="M175.548,38.558c0.244,1.694,0.025,3.287-0.78,4.806c-0.828,1.562-3.056,1.839-4.596,2.009
						c-2.352,0.26-6.702,0.618-8.178-1.577c-0.574-0.854-0.616-2.144-0.629-3.134c-0.031-2.363,3.406-2.385,5.008-2.552
						c3.167-0.33,6.423-0.169,9.501,0.66c0.464,0.125,0.66-0.593,0.197-0.718c-2.387-0.643-4.789-0.844-7.256-0.825
						c-1.916,0.015-4.488,0.02-6.28,0.824c-2.534,1.137-2.328,4.418-0.938,6.484c1.756,2.61,7.486,1.789,10.024,1.387
						c3.86-0.612,5.161-3.976,4.644-7.563C176.196,37.887,175.479,38.089,175.548,38.558L175.548,38.558z"/>
				</g>
			</g>
		</g>
		<path fill="#FFFFFF" d="M127.088,37.229c0,0,0.424-9.194,2.557-13.073c2.133-3.881,6.605-7.966,8.949-7.148
			c2.346,0.813-0.85,7.351-3.196,8.781c-2.343,1.432-2.132,12.87-2.132,12.87S126.662,37.229,127.088,37.229z"/>
		<g>
			<polygon fill="#A42423" points="116.713,112.022 171.199,104.697 169.025,167.474 129.225,166.777 			"/>
			<polygon fill="#A42423" points="112.135,110.459 101.709,92.575 114.596,159.994 120.783,165.078 			"/>
			<polygon fill="#A42423" points="112.135,110.459 118.887,112.022 129.225,166.777 120.783,165.078 			"/>
			<polygon fill="#FFFFFF" points="104.529,95.632 109.632,92.575 117.684,107.101 165.393,99.835 169.025,104.697 116.713,112.022 
				112.135,110.459 			"/>
		</g>
		<path fill="#110906" d="M182.061,184.023c0,0-51.875-8.437-55.994,7.505c-4.117,15.942-7.148,55.146-7.148,55.146
			s-53.865,10.069-35.649,17.357c18.217,7.289,46.472-10.133,46.472-10.133s-2.705-59.181,8.986-58.725
			c11.691,0.454,42.959,20.568,59.906,22.09c19.381,1.742,22.621-24.811,22.621-24.811S198.422,191.767,182.061,184.023z"/>
		<path fill="#FFFFFF" d="M170.232,149.689c0,0-7.328,1.287-10.72,1.506c-3.388,0.219-9.745-3.252-9.745-3.252l-1.559,3.26
			l3.616,3.027l-6.243-1.951v4.442l4.186,8.782c0,0,9.521,0,13.594,0c4.068,0,19.779-2.816,19.779-2.816L170.232,149.689z"/>
	</g>
	<polygon fill="#A42523" points="0,176.673 107.308,163.318 107.308,178.859 101.395,179.385 65.984,186.194 	"/>
	<path fill="#FFFFFF" d="M104.469,177.947c0,0,1.695-13.383,0.373-14.181c-1.32-0.806-39.629,2.345-39.629,2.345l-60.828-4.625
		l1.557,14.942l60.527,7.834L104.469,177.947z"/>
	<polygon fill="#A42523" points="0,162.193 50.539,156.798 107.308,163.318 66.467,169.838 	"/>
	<polygon fill="#FFFFFF" points="97.293,161.486 62.119,167.648 59.85,164.568 61.371,161.486 97.293,157.35 	"/>
	<path fill="#0E8CCD" d="M8.275,160.698l53.189,6.95l1.146,0.148c0,0-2.303-1.708-0.814-6.179l-52.574-6.44
		C9.223,155.178,6.375,155.866,8.275,160.698z"/>
	<polygon fill="#0E8CCD" points="9.245,155.178 45.588,150.381 97.293,157.35 61.371,161.486 	"/>
</g>
<g>
</g>
<g>
</g>
<g>
</g>
<g>
</g>
<g>
</g>
<g>
</g>
</svg>
