<?xml version="1.0" encoding="utf-8"?>
<!-- Generator: Adobe Illustrator 16.0.4, SVG Export Plug-In . SVG Version: 6.00 Build 0)  -->
<!DOCTYPE svg PUBLIC "-//W3C//DTD SVG 1.1//EN" "http://www.w3.org/Graphics/SVG/1.1/DTD/svg11.dtd">
<svg version="1.1" id="Layer_1" xmlns="http://www.w3.org/2000/svg" xmlns:xlink="http://www.w3.org/1999/xlink" x="0px" y="0px"
	 width="192.192px" height="240.413px" viewBox="0 0 192.192 240.413" enable-background="new 0 0 192.192 240.413"
	 xml:space="preserve">
<g>
	<path fill="#0E8CCD" d="M122.03,186.448c0,0,18.294-46.986,18.098-74.043c-0.198-27.06,26.415-32.253,38.227-23.197
		s16.255,28.561,12.583,56.611c-3.674,28.047-13.965,56.209-24.375,59.436C156.158,208.483,128.383,211.86,122.03,186.448z"/>
	<path fill="#110906" d="M116.176,187.082c0,0-40.823-61.565-57.186-46.164c-23.809,22.418-21.861,65.532-21.629,64.63
		c0,0-44.349,13.573-36.41,18.393c18.1,10.977,44.066-7.861,44.066-7.861s10.324-67.8,24.867-55.465
		c9.111,7.733,27.375,43.381,47.938,55.064c18.339,10.417,29.849,6.734,21.569-2.367c-9.791-10.768-9.558-20.321-9.558-20.321
		S116.227,188.903,116.176,187.082z"/>
	<path fill="#110906" d="M139.475,186.739c0,0-26.781-51.812-54.293-35.57c-27.518,16.248-24.843,68.449-24.843,68.449
		s-49.032,12.594-40.72,17.396c18.947,10.95,51.211-8.057,51.211-8.057s7.001-73.933,22.225-61.618
		c15.225,12.32,22.882,51.428,38.791,54.401c15.911,2.975,23.486,1.983,34.95-7.638c11.464-9.624,9.964-18.578,9.964-18.578
		S153.158,192.887,139.475,186.739z"/>
	<path fill="#110906" d="M169.354,42.002c0,0-2.085,12.873,9.227,14.539c11.308,1.661,9.954-0.977,9.954-0.977
		s-2.294,11.576-9.771,11.998c-7.473,0.427-7.975-4.301-7.975-4.301s1.727,9.396,4.68,9.393c2.966-0.014-9.703,8.025-14.111,2.222
		c-4.408-5.794-4.936-28.771-4.307-29.035C157.683,45.579,169.354,42.002,169.354,42.002"/>
	<path fill="#FFFFFF" d="M152.723,24.595c-0.252-0.55-0.508-1.104-0.792-1.645c-5.16-9.826-16.452-11.474-26.521-10.936
		c-9.975,0.533-21.842,4.215-27.297,13.215c-5.09,8.378,0.756,19.519,4.407,27.239c2.556,5.422,4.592,10.967,6.537,16.635
		c0.536,1.565,1.108,3.213,1.756,4.871c0.269,2.086,8.337,34.156,35.306,10.098c5.73-5.105,6.752,6.981,7.43,10.378
		c0.377,1.892,12.086-0.112,16.837-6.944c0,0-8.149-9.9-6.647-19.761c0.488-4.712,0.895-9.188,0.111-14.045
		c-0.824-5.122-2.003-10.18-3.59-15.121C158.631,33.543,156.201,28.555,152.723,24.595z"/>
	<path fill="#110906" d="M118.799,22.587c-0.541,0.479,6.2,10.687,17.34,14.888c11.145,4.199,14.969,11.268,17.48,20.491
		c0.133,0.483,7.205-11.116,3.295-20.426c-0.416-0.981,5.742,6.653,5.189,10.478c-0.554,3.829,18.15-8.309,0.746-26.988
		C145.435,2.349,137.857,7.774,137.857,7.774s3.972-6.373,15.085-1.666c0,0-8.899-8.847-19.233-5.246
		c-21.124,7.367-20.24,14.674-20.24,14.674"/>
	<path fill="#FFFFFF" d="M157.434,38.59c0.645-1.01,1.462-1.916,2.461-2.665c0.747-0.562,1.622-0.927,2.539-1.087
		c2.266-0.886,4.748-0.16,6.361,3.113c1.299,2.626,1.207,5.429,0.191,7.925c-0.217,0.948-0.523,1.892-0.936,2.835
		c-1.185,2.719-2.873,6.001-5.861,7.066c-0.938,0.338-1.758,0.045-2.312-0.51c-1,0.275-2.066,0.213-2.861-0.309
		C158.531,49.688,158.021,44.132,157.434,38.59z"/>
	<path fill="none" stroke="#020303" stroke-width="1.0361" stroke-miterlimit="10" d="M110.691,60.167
		c0.764,1.81,0.621,3.595-0.309,3.983c-0.933,0.392-2.303-0.756-3.061-2.566c-0.761-1.805-0.62-3.591,0.309-3.979
		C108.566,57.211,109.931,58.358,110.691,60.167z"/>
	<path fill="none" stroke="#020303" stroke-width="1.0361" stroke-miterlimit="10" d="M129.487,54.431
		c0.757,1.806,0.619,3.588-0.313,3.98c-0.926,0.393-2.299-0.755-3.058-2.564c-0.757-1.809-0.619-3.593,0.308-3.983
		C127.357,51.475,128.728,52.624,129.487,54.431z"/>
	<path fill="none" stroke="#1E1E1C" stroke-width="2.5606" stroke-miterlimit="10" d="M121.839,50.872c0,0,0.428,11.379,5.88,10.448
		c5.449-0.919,16.203-1.957,15.549-6.78c-0.661-4.816-0.307-10.183-7.253-9.255C129.075,46.211,122.101,47.655,121.839,50.872z"/>
	<path fill="none" stroke="#1E1E1C" stroke-width="2.5606" stroke-miterlimit="10" d="M114.74,54.463c0,0,4.412,9.79,1.39,11.612
		c-3.029,1.829-9.642,3.975-11.234-0.517c-1.591-4.483-3.983-6.245-0.229-8.783C108.422,54.237,113.335,51.811,114.74,54.463z"/>
	<g>
		<path fill="#FFFFFF" d="M117.51,54.526c0.195,0.161-3.676,11.673-6.629,18.582c2.732,0.588,9.773,0.39,12.201-0.627"/>
		<g>
			<path fill="#1E1E1C" d="M116.893,54.696c0.029,0.16-0.499,1.535-0.635,1.963c-0.506,1.598-1.055,3.182-1.606,4.764
				c-1.334,3.825-2.743,7.631-4.323,11.362c-0.147,0.348-0.065,0.856,0.383,0.94c3.85,0.728,8.827,0.756,12.541-0.627
				c0.767-0.285,0.436-1.523-0.34-1.234c-3.471,1.292-8.245,1.31-11.861,0.627c0.128,0.313,0.255,0.627,0.383,0.94
				c1.708-4.033,3.223-8.144,4.665-12.278c0.569-1.632,1.122-3.271,1.635-4.922c0.174-0.557,0.506-1.277,0.394-1.875
				C117.976,53.545,116.742,53.889,116.893,54.696L116.893,54.696z"/>
		</g>
	</g>
	<g>
		<g>
			<path fill="#1E1E1C" d="M162.072,38.569c-1.382,1.669-3.118,4.003-3.076,6.283c0.048,2.526,3.486,0.955,4.57,0.406
				c-0.313-0.127-0.627-0.255-0.94-0.383c0.756,1.973-1.697,4.104-2.085,6.001c-0.44,2.152,2.363,2.069,3.695,1.947
				c0.815-0.074,0.822-1.355,0-1.28c-0.737,0.067-2.75,0.461-2.303-0.918c0.269-0.83,0.828-1.612,1.238-2.377
				c0.605-1.13,1.175-2.445,0.688-3.713c-0.152-0.399-0.546-0.583-0.94-0.383c-0.206,0.104-2.629,1.467-2.648,0.421
				c-0.012-0.602,0.364-1.328,0.604-1.848c0.539-1.166,1.285-2.266,2.103-3.251C163.501,38.844,162.6,37.933,162.072,38.569
				L162.072,38.569z"/>
		</g>
	</g>
	<g>
		<g>
			<path fill="#1E1E1C" d="M117.461,55.507c-0.039-1.58,3.258-1.548,4.194-1.073c1.47,0.745,2.766-1.464,1.293-2.211
				c-2.651-1.344-8.144-0.547-8.048,3.284C114.941,57.156,117.502,57.16,117.461,55.507L117.461,55.507z"/>
		</g>
	</g>
	<path fill="#110906" d="M132.359,23.788c-1.254,0.526-22.117-1.049-24.152,20.498c-2.056,21.782-11.937,22.012-11.937,22.012
		s7.045-4.932,1.226-17.021c-6.604-13.71-9.082-39.779,15.559-36.835C137.7,15.389,132.359,23.788,132.359,23.788z"/>
	<g>
		<g>
			<path fill="#020303" d="M137.312,39.863c-4.849,0.192-9.65,1.2-14.294,2.569c-0.64,0.188-0.367,1.188,0.275,0.999
				c4.557-1.343,9.262-2.344,14.019-2.532C137.979,40.873,137.98,39.837,137.312,39.863L137.312,39.863z"/>
		</g>
	</g>
	<g>
		<g>
			<path fill="#020303" d="M110.68,45.646c-3.872,2.285-8.324,3.342-12.096,5.821c-0.556,0.365-0.037,1.263,0.523,0.895
				c3.769-2.478,8.223-3.536,12.096-5.821C111.777,46.201,111.257,45.306,110.68,45.646L110.68,45.646z"/>
		</g>
	</g>
	<g>
		<g>
			<path fill="#020303" d="M119.036,78.874c5.033,0.299,10.441-2.901,13.15-7.045c0.367-0.562-0.53-1.08-0.895-0.523
				c-2.517,3.849-7.591,6.81-12.256,6.533C118.368,77.798,118.372,78.834,119.036,78.874L119.036,78.874z"/>
		</g>
	</g>
	<g>
		<g>
			<path fill="#020303" d="M130.343,71.04c0.958,0.659,1.66,1.612,2.414,2.481c0.438,0.506,1.168-0.23,0.732-0.732
				c-0.819-0.945-1.582-1.928-2.623-2.644C130.313,69.765,129.797,70.664,130.343,71.04L130.343,71.04z"/>
		</g>
	</g>
	<path fill="none" stroke="#1E1E1C" stroke-width="2.5606" stroke-miterlimit="10" d="M142.875,46.943
		c1.031-0.435,9.928-7.211,9.928-7.211"/>
	<path fill="#FFFFFF" d="M186.234,124.565l-12.646-0.792c0,0,0.593,28.834-5.169,37.653c-7.465,11.428-13.98-9.793-21.283-23.548
		c-0.016-0.019-0.033-0.04-0.049-0.061c-1.922-2.346-4.175-4.728-6.879-6.183c-0.619,1.088-1.226,2.185-1.781,3.307
		c-0.324,0.651-0.736,1.133-1.201,1.486c1.014,7.624,6.89,42.826,29.463,43.164C192.004,179.973,186.234,124.565,186.234,124.565z"
		/>
	<polygon fill="#0E8CCD" points="140.205,147.144 91.207,127.049 60.485,134.497 96.251,154.643 	"/>
	<path fill="#FFFFFF" d="M115.279,129.284l-14.135,10.434c0,0,0.219,3.059,6.467,0.396c6.244-2.655,8.279-4.459,8.279-4.459
		s-13.783,7.511-14.041,11.667c-0.258,4.162,18.186-8.306,18.186-8.306s-9.52,5.395-8.331,9.717
		c1.192,4.318,13.62-7.105,13.62-7.105s16.127,10.578,18.803-4.038C145.945,127.676,115.279,129.284,115.279,129.284z"/>
	<path fill="#FFFFFF" d="M110.213,130.453c0,0-10.668,10.588-12.189,7.977c-1.523-2.609,3.463-6.06,3.463-6.06
		s-7.764,5.506-9.704,4.446c-1.94-1.052,5.599-6.854,5.599-6.854s-6.541,3.605-5.433,0.831c1.104-2.773,6.808-7.168,10.661-9.383
		c2.242-1.286,8.791-1.638,14.939-0.113c1.516,0.375,12.575,7.304,12.711,7.905c0.221,0.996-0.104,2.563-1.318,3.8
		C126.646,135.339,121.175,136.499,110.213,130.453z"/>
	<g>
		<polygon fill="#C3E5F6" points="96.271,159.617 49.802,141.993 24.156,88.602 67.314,97.004 		"/>
	</g>
	<polygon fill="#FFFFFF" points="23.552,88.652 31.527,85.948 72.512,95.407 67.607,98.099 	"/>
	<polygon fill="#82CFF5" points="67.607,98.099 72.512,95.407 99.019,152.29 140.205,147.144 138.705,154.12 94.035,159.672 	"/>
</g>
<g>
</g>
<g>
</g>
<g>
</g>
<g>
</g>
<g>
</g>
<g>
</g>
</svg>
