<?xml version="1.0" encoding="utf-8"?>
<!-- Generator: Adobe Illustrator 16.0.4, SVG Export Plug-In . SVG Version: 6.00 Build 0)  -->
<!DOCTYPE svg PUBLIC "-//W3C//DTD SVG 1.1//EN" "http://www.w3.org/Graphics/SVG/1.1/DTD/svg11.dtd">
<svg version="1.1" id="Layer_1" xmlns="http://www.w3.org/2000/svg" xmlns:xlink="http://www.w3.org/1999/xlink" x="0px" y="0px"
	 width="982.893px" height="406.863px" viewBox="0 0 982.893 406.863" enable-background="new 0 0 982.893 406.863"
	 xml:space="preserve">
<pattern  x="193.947" y="623.931" width="86.081" height="74.172" patternUnits="userSpaceOnUse" id="SVGID_1_" viewBox="0 -74.172 86.081 74.172" overflow="visible">
	<g>
		<polygon fill="none" points="0,0 86.081,0 86.081,-74.172 0,-74.172 		"/>
		<g>
			<polygon fill="none" points="0,0 86.082,0 86.082,-74.172 0,-74.172 			"/>
			<path fill="#2EBDEF" d="M27.879-69.539c0,0.561-0.455,1.018-1.017,1.018s-1.019-0.457-1.019-1.018
				c0-0.562,0.457-1.021,1.019-1.021S27.879-70.102,27.879-69.539"/>
			<path fill="#2EBDEF" d="M27.879-64.906c0,0.562-0.455,1.019-1.017,1.019s-1.019-0.457-1.019-1.019
				c0-0.563,0.457-1.021,1.019-1.021S27.879-65.471,27.879-64.906"/>
			<path fill="#2EBDEF" d="M27.879-41.748c0,0.562-0.455,1.018-1.017,1.018s-1.019-0.455-1.019-1.018s0.457-1.018,1.019-1.018
				S27.879-42.311,27.879-41.748"/>
			<path fill="#2EBDEF" d="M27.879-60.277c0,0.562-0.455,1.021-1.017,1.021s-1.019-0.458-1.019-1.021
				c0-0.561,0.457-1.018,1.019-1.018S27.879-60.838,27.879-60.277"/>
			<path fill="#2EBDEF" d="M27.879-46.381c0,0.562-0.455,1.02-1.017,1.02s-1.019-0.457-1.019-1.02s0.457-1.018,1.019-1.018
				S27.879-46.943,27.879-46.381"/>
			<path fill="#2EBDEF" d="M27.879-55.645c0,0.562-0.455,1.021-1.017,1.021s-1.019-0.458-1.019-1.021s0.457-1.019,1.019-1.019
				S27.879-56.206,27.879-55.645"/>
			<path fill="#2EBDEF" d="M27.879-51.014c0,0.564-0.455,1.02-1.017,1.02s-1.019-0.455-1.019-1.02c0-0.561,0.457-1.016,1.019-1.016
				S27.879-51.574,27.879-51.014"/>
			<path fill="#2EBDEF" d="M33.253-9.326c0,0.562-0.457,1.019-1.018,1.019c-0.564,0-1.019-0.456-1.019-1.019
				c0-0.561,0.455-1.018,1.019-1.018C32.796-10.344,33.253-9.887,33.253-9.326"/>
			<path fill="#2EBDEF" d="M33.253-0.062c0,0.021-0.002,0.043-0.004,0.062H31.22c-0.002-0.019-0.004-0.04-0.004-0.062
				c0-0.562,0.455-1.019,1.019-1.019C32.796-1.08,33.253-0.624,33.253-0.062"/>
			<path fill="#2EBDEF" d="M33.253-32.484c0,0.562-0.457,1.019-1.018,1.019c-0.564,0-1.019-0.457-1.019-1.019
				s0.455-1.021,1.019-1.021C32.796-33.505,33.253-33.047,33.253-32.484"/>
			<path fill="#2EBDEF" d="M33.253-37.117c0,0.564-0.457,1.021-1.018,1.021c-0.564,0-1.019-0.455-1.019-1.021
				c0-0.562,0.455-1.018,1.019-1.018C32.796-38.135,33.253-37.679,33.253-37.117"/>
			<path fill="#2EBDEF" d="M33.253-27.854c0,0.562-0.457,1.02-1.018,1.02c-0.564,0-1.019-0.457-1.019-1.02s0.455-1.019,1.019-1.019
				C32.796-28.871,33.253-28.415,33.253-27.854"/>
			<path fill="#2EBDEF" d="M33.253-41.748c0,0.562-0.457,1.018-1.018,1.018c-0.564,0-1.019-0.455-1.019-1.018
				s0.455-1.018,1.019-1.018C32.796-42.766,33.253-42.311,33.253-41.748"/>
			<path fill="#2EBDEF" d="M33.253-18.59c0,0.562-0.457,1.018-1.018,1.018c-0.564,0-1.019-0.455-1.019-1.018
				s0.455-1.018,1.019-1.018C32.796-19.607,33.253-19.15,33.253-18.59"/>
			<path fill="#2EBDEF" d="M33.253-23.221c0,0.562-0.457,1.018-1.018,1.018c-0.564,0-1.019-0.455-1.019-1.018
				s0.455-1.018,1.019-1.018C32.796-24.238,33.253-23.781,33.253-23.221"/>
			<path fill="#2EBDEF" d="M33.253-13.957c0,0.562-0.457,1.018-1.018,1.018c-0.564,0-1.019-0.455-1.019-1.018
				s0.455-1.018,1.019-1.018C32.796-14.975,33.253-14.52,33.253-13.957"/>
			<path fill="#2EBDEF" d="M33.253-4.693c0,0.562-0.457,1.019-1.018,1.019c-0.564,0-1.019-0.456-1.019-1.019
				c0-0.563,0.455-1.018,1.019-1.018C32.796-5.711,33.253-5.258,33.253-4.693"/>
			<path fill="#2EBDEF" d="M27.879-18.59c0,0.562-0.455,1.018-1.017,1.018s-1.019-0.455-1.019-1.018s0.457-1.018,1.019-1.018
				S27.879-19.15,27.879-18.59"/>
			<path fill="#2EBDEF" d="M22.508-51.014c0,0.564-0.456,1.02-1.018,1.02c-0.563,0-1.019-0.455-1.019-1.02
				c0-0.561,0.456-1.016,1.019-1.016C22.052-52.029,22.508-51.574,22.508-51.014"/>
			<path fill="#2EBDEF" d="M22.508-55.645c0,0.562-0.456,1.021-1.018,1.021c-0.563,0-1.019-0.458-1.019-1.021
				s0.456-1.019,1.019-1.019C22.052-56.662,22.508-56.206,22.508-55.645"/>
			<path fill="#2EBDEF" d="M22.508-69.539c0,0.561-0.456,1.018-1.018,1.018c-0.563,0-1.019-0.457-1.019-1.018
				c0-0.562,0.456-1.021,1.019-1.021C22.052-70.561,22.508-70.102,22.508-69.539"/>
			<path fill="#2EBDEF" d="M22.508-64.906c0,0.562-0.456,1.019-1.018,1.019c-0.563,0-1.019-0.457-1.019-1.019
				c0-0.563,0.456-1.021,1.019-1.021C22.052-65.927,22.508-65.471,22.508-64.906"/>
			<path fill="#2EBDEF" d="M27.879-37.117c0,0.564-0.455,1.021-1.017,1.021s-1.019-0.455-1.019-1.021
				c0-0.562,0.457-1.018,1.019-1.018S27.879-37.679,27.879-37.117"/>
			<path fill="#2EBDEF" d="M22.508-37.117c0,0.564-0.456,1.021-1.018,1.021c-0.563,0-1.019-0.455-1.019-1.021
				c0-0.562,0.456-1.018,1.019-1.018C22.052-38.135,22.508-37.679,22.508-37.117"/>
			<path fill="#2EBDEF" d="M22.508-46.381c0,0.562-0.456,1.02-1.018,1.02c-0.563,0-1.019-0.457-1.019-1.02s0.456-1.018,1.019-1.018
				C22.052-47.398,22.508-46.943,22.508-46.381"/>
			<path fill="#2EBDEF" d="M22.508-41.748c0,0.562-0.456,1.018-1.018,1.018c-0.563,0-1.019-0.455-1.019-1.018
				s0.456-1.018,1.019-1.018C22.052-42.766,22.508-42.311,22.508-41.748"/>
			<path fill="#2EBDEF" d="M22.508-60.277c0,0.562-0.456,1.021-1.018,1.021c-0.563,0-1.019-0.458-1.019-1.021
				c0-0.561,0.456-1.018,1.019-1.018C22.052-61.295,22.508-60.838,22.508-60.277"/>
			<path fill="#2EBDEF" d="M33.253-46.381c0,0.562-0.457,1.02-1.018,1.02c-0.564,0-1.019-0.457-1.019-1.02s0.455-1.018,1.019-1.018
				C32.796-47.398,33.253-46.943,33.253-46.381"/>
			<path fill="#2EBDEF" d="M27.879-23.221c0,0.562-0.455,1.018-1.017,1.018s-1.019-0.455-1.019-1.018s0.457-1.018,1.019-1.018
				S27.879-23.781,27.879-23.221"/>
			<path fill="#2EBDEF" d="M43.998-69.539c0,0.561-0.457,1.018-1.019,1.018s-1.017-0.457-1.017-1.018
				c0-0.562,0.455-1.021,1.017-1.021S43.998-70.102,43.998-69.539"/>
			<path fill="#2EBDEF" d="M27.879-32.484c0,0.562-0.455,1.019-1.017,1.019s-1.019-0.457-1.019-1.019s0.457-1.021,1.019-1.021
				S27.879-33.047,27.879-32.484"/>
			<path fill="#2EBDEF" d="M27.879-0.062c0,0.021,0,0.043-0.002,0.062h-2.031c0-0.019-0.003-0.04-0.003-0.062
				c0-0.562,0.457-1.019,1.019-1.019S27.879-0.624,27.879-0.062"/>
			<path fill="#2EBDEF" d="M27.879-13.957c0,0.562-0.455,1.018-1.017,1.018s-1.019-0.455-1.019-1.018s0.457-1.018,1.019-1.018
				S27.879-14.52,27.879-13.957"/>
			<path fill="#2EBDEF" d="M27.879-9.326c0,0.562-0.455,1.019-1.017,1.019s-1.019-0.456-1.019-1.019
				c0-0.561,0.457-1.018,1.019-1.018S27.879-9.887,27.879-9.326"/>
			<path fill="#2EBDEF" d="M27.879-4.693c0,0.562-0.455,1.019-1.017,1.019s-1.019-0.456-1.019-1.019
				c0-0.563,0.457-1.018,1.019-1.018S27.879-5.258,27.879-4.693"/>
			<path fill="#2EBDEF" d="M43.998-55.645c0,0.562-0.457,1.021-1.019,1.021s-1.017-0.458-1.017-1.021s0.455-1.019,1.017-1.019
				S43.998-56.206,43.998-55.645"/>
			<path fill="#2EBDEF" d="M43.998-4.693c0,0.562-0.457,1.019-1.019,1.019s-1.017-0.456-1.017-1.019
				c0-0.563,0.455-1.018,1.017-1.018S43.998-5.258,43.998-4.693"/>
			<path fill="#2EBDEF" d="M43.998-18.59c0,0.562-0.457,1.018-1.019,1.018s-1.017-0.455-1.017-1.018s0.455-1.018,1.017-1.018
				S43.998-19.15,43.998-18.59"/>
			<path fill="#2EBDEF" d="M43.998-13.957c0,0.562-0.457,1.018-1.019,1.018s-1.017-0.455-1.017-1.018s0.455-1.018,1.017-1.018
				S43.998-14.52,43.998-13.957"/>
			<path fill="#2EBDEF" d="M38.625-60.277c0,0.562-0.456,1.021-1.018,1.021s-1.017-0.458-1.017-1.021
				c0-0.561,0.455-1.018,1.017-1.018S38.625-60.838,38.625-60.277"/>
			<path fill="#2EBDEF" d="M38.625-64.906c0,0.562-0.456,1.019-1.018,1.019s-1.017-0.457-1.017-1.019
				c0-0.563,0.455-1.021,1.017-1.021S38.625-65.471,38.625-64.906"/>
			<path fill="#2EBDEF" d="M38.625-69.539c0,0.561-0.456,1.018-1.018,1.018s-1.017-0.457-1.017-1.018
				c0-0.562,0.455-1.021,1.017-1.021S38.625-70.102,38.625-69.539"/>
			<path fill="#2EBDEF" d="M43.998-27.854c0,0.562-0.457,1.02-1.019,1.02s-1.017-0.457-1.017-1.02s0.455-1.019,1.017-1.019
				S43.998-28.415,43.998-27.854"/>
			<path fill="#2EBDEF" d="M43.998-0.062c0,0.021-0.002,0.043-0.004,0.062h-2.029c-0.002-0.019-0.003-0.04-0.003-0.062
				c0-0.562,0.455-1.019,1.017-1.019S43.998-0.624,43.998-0.062"/>
			<path fill="#2EBDEF" d="M43.998-9.326c0,0.562-0.457,1.019-1.019,1.019s-1.017-0.456-1.017-1.019
				c0-0.561,0.455-1.018,1.017-1.018S43.998-9.887,43.998-9.326"/>
			<path fill="#2EBDEF" d="M43.998-23.221c0,0.562-0.457,1.018-1.019,1.018s-1.017-0.455-1.017-1.018s0.455-1.018,1.017-1.018
				S43.998-23.781,43.998-23.221"/>
			<path fill="#2EBDEF" d="M43.998-60.277c0,0.562-0.457,1.021-1.019,1.021s-1.017-0.458-1.017-1.021
				c0-0.561,0.455-1.018,1.017-1.018S43.998-60.838,43.998-60.277"/>
			<path fill="#2EBDEF" d="M43.998-32.484c0,0.562-0.457,1.019-1.019,1.019s-1.017-0.457-1.017-1.019s0.455-1.021,1.017-1.021
				S43.998-33.047,43.998-32.484"/>
			<path fill="#2EBDEF" d="M22.508-32.484c0,0.562-0.456,1.019-1.018,1.019c-0.563,0-1.019-0.457-1.019-1.019
				s0.456-1.021,1.019-1.021C22.052-33.505,22.508-33.047,22.508-32.484"/>
			<path fill="#2EBDEF" d="M43.998-64.906c0,0.562-0.457,1.019-1.019,1.019s-1.017-0.457-1.017-1.019
				c0-0.563,0.455-1.021,1.017-1.021S43.998-65.471,43.998-64.906"/>
			<path fill="#2EBDEF" d="M43.998-51.014c0,0.564-0.457,1.02-1.019,1.02s-1.017-0.455-1.017-1.02c0-0.561,0.455-1.016,1.017-1.016
				S43.998-51.574,43.998-51.014"/>
			<path fill="#2EBDEF" d="M43.998-46.381c0,0.562-0.457,1.02-1.019,1.02s-1.017-0.457-1.017-1.02s0.455-1.018,1.017-1.018
				S43.998-46.943,43.998-46.381"/>
			<path fill="#2EBDEF" d="M43.998-37.117c0,0.564-0.457,1.021-1.019,1.021s-1.017-0.455-1.017-1.021
				c0-0.562,0.455-1.018,1.017-1.018S43.998-37.679,43.998-37.117"/>
			<path fill="#2EBDEF" d="M43.998-41.748c0,0.562-0.457,1.018-1.019,1.018s-1.017-0.455-1.017-1.018s0.455-1.018,1.017-1.018
				S43.998-42.311,43.998-41.748"/>
			<path fill="#2EBDEF" d="M38.625-0.062c0,0.021-0.001,0.043-0.003,0.062h-2.029c-0.002-0.019-0.003-0.04-0.003-0.062
				c0-0.562,0.455-1.019,1.017-1.019S38.625-0.624,38.625-0.062"/>
			<path fill="#2EBDEF" d="M38.625-9.326c0,0.562-0.456,1.019-1.018,1.019S36.59-8.764,36.59-9.326c0-0.561,0.455-1.018,1.017-1.018
				S38.625-9.887,38.625-9.326"/>
			<path fill="#2EBDEF" d="M33.253-69.539c0,0.561-0.457,1.018-1.018,1.018c-0.564,0-1.019-0.457-1.019-1.018
				c0-0.562,0.455-1.021,1.019-1.021C32.796-70.561,33.253-70.102,33.253-69.539"/>
			<path fill="#2EBDEF" d="M33.253-51.014c0,0.564-0.457,1.02-1.018,1.02c-0.564,0-1.019-0.455-1.019-1.02
				c0-0.561,0.455-1.016,1.019-1.016C32.796-52.029,33.253-51.574,33.253-51.014"/>
			<path fill="#2EBDEF" d="M38.625-13.957c0,0.562-0.456,1.018-1.018,1.018s-1.017-0.455-1.017-1.018s0.455-1.018,1.017-1.018
				S38.625-14.52,38.625-13.957"/>
			<path fill="#2EBDEF" d="M38.625-4.693c0,0.562-0.456,1.019-1.018,1.019S36.59-4.131,36.59-4.693c0-0.563,0.455-1.018,1.017-1.018
				S38.625-5.258,38.625-4.693"/>
			<path fill="#2EBDEF" d="M33.253-55.645c0,0.562-0.457,1.021-1.018,1.021c-0.564,0-1.019-0.458-1.019-1.021
				s0.455-1.019,1.019-1.019C32.796-56.662,33.253-56.206,33.253-55.645"/>
			<path fill="#2EBDEF" d="M33.253-64.906c0,0.562-0.457,1.019-1.018,1.019c-0.564,0-1.019-0.457-1.019-1.019
				c0-0.563,0.455-1.021,1.019-1.021C32.796-65.927,33.253-65.471,33.253-64.906"/>
			<path fill="#2EBDEF" d="M33.253-60.277c0,0.562-0.457,1.021-1.018,1.021c-0.564,0-1.019-0.458-1.019-1.021
				c0-0.561,0.455-1.018,1.019-1.018C32.796-61.295,33.253-60.838,33.253-60.277"/>
			<path fill="#2EBDEF" d="M38.625-55.645c0,0.562-0.456,1.021-1.018,1.021s-1.017-0.458-1.017-1.021s0.455-1.019,1.017-1.019
				S38.625-56.206,38.625-55.645"/>
			<path fill="#2EBDEF" d="M38.625-41.748c0,0.562-0.456,1.018-1.018,1.018s-1.017-0.455-1.017-1.018s0.455-1.018,1.017-1.018
				S38.625-42.311,38.625-41.748"/>
			<path fill="#2EBDEF" d="M38.625-46.381c0,0.562-0.456,1.02-1.018,1.02s-1.017-0.457-1.017-1.02s0.455-1.018,1.017-1.018
				S38.625-46.943,38.625-46.381"/>
			<path fill="#2EBDEF" d="M38.625-37.117c0,0.564-0.456,1.021-1.018,1.021s-1.017-0.455-1.017-1.021
				c0-0.562,0.455-1.018,1.017-1.018S38.625-37.679,38.625-37.117"/>
			<path fill="#2EBDEF" d="M38.625-51.014c0,0.564-0.456,1.02-1.018,1.02s-1.017-0.455-1.017-1.02c0-0.561,0.455-1.016,1.017-1.016
				S38.625-51.574,38.625-51.014"/>
			<path fill="#2EBDEF" d="M38.625-32.484c0,0.562-0.456,1.019-1.018,1.019s-1.017-0.457-1.017-1.019s0.455-1.021,1.017-1.021
				S38.625-33.047,38.625-32.484"/>
			<path fill="#2EBDEF" d="M38.625-23.221c0,0.562-0.456,1.018-1.018,1.018s-1.017-0.455-1.017-1.018s0.455-1.018,1.017-1.018
				S38.625-23.781,38.625-23.221"/>
			<path fill="#2EBDEF" d="M38.625-18.59c0,0.562-0.456,1.018-1.018,1.018s-1.017-0.455-1.017-1.018s0.455-1.018,1.017-1.018
				S38.625-19.15,38.625-18.59"/>
			<path fill="#2EBDEF" d="M38.625-27.854c0,0.562-0.456,1.02-1.018,1.02s-1.017-0.457-1.017-1.02s0.455-1.019,1.017-1.019
				S38.625-28.415,38.625-27.854"/>
			<path fill="#2EBDEF" d="M27.879-27.854c0,0.562-0.455,1.02-1.017,1.02s-1.019-0.457-1.019-1.02s0.457-1.019,1.019-1.019
				S27.879-28.415,27.879-27.854"/>
			<path fill="#2EBDEF" d="M6.39-27.854c0,0.562-0.456,1.02-1.018,1.02c-0.561,0-1.017-0.457-1.017-1.02s0.456-1.019,1.017-1.019
				C5.934-28.871,6.39-28.415,6.39-27.854"/>
			<path fill="#2EBDEF" d="M6.39-23.221c0,0.562-0.456,1.018-1.018,1.018c-0.561,0-1.017-0.455-1.017-1.018s0.456-1.018,1.017-1.018
				C5.934-24.238,6.39-23.781,6.39-23.221"/>
			<path fill="#2EBDEF" d="M6.39-32.484c0,0.562-0.456,1.019-1.018,1.019c-0.561,0-1.017-0.457-1.017-1.019s0.456-1.021,1.017-1.021
				C5.934-33.505,6.39-33.047,6.39-32.484"/>
			<path fill="#2EBDEF" d="M6.39-37.117c0,0.564-0.456,1.021-1.018,1.021c-0.561,0-1.017-0.455-1.017-1.021
				c0-0.562,0.456-1.018,1.017-1.018C5.934-38.135,6.39-37.679,6.39-37.117"/>
			<path fill="#2EBDEF" d="M6.39-18.59c0,0.562-0.456,1.018-1.018,1.018c-0.561,0-1.017-0.455-1.017-1.018s0.456-1.018,1.017-1.018
				C5.934-19.607,6.39-19.15,6.39-18.59"/>
			<path fill="#2EBDEF" d="M6.39-41.748c0,0.562-0.456,1.018-1.018,1.018c-0.561,0-1.017-0.455-1.017-1.018s0.456-1.018,1.017-1.018
				C5.934-42.766,6.39-42.311,6.39-41.748"/>
			<path fill="#2EBDEF" d="M6.39-9.326c0,0.562-0.456,1.019-1.018,1.019c-0.561,0-1.017-0.456-1.017-1.019
				c0-0.561,0.456-1.018,1.017-1.018C5.934-10.344,6.39-9.887,6.39-9.326"/>
			<path fill="#2EBDEF" d="M6.39-13.957c0,0.562-0.456,1.018-1.018,1.018c-0.561,0-1.017-0.455-1.017-1.018s0.456-1.018,1.017-1.018
				C5.934-14.975,6.39-14.52,6.39-13.957"/>
			<path fill="#2EBDEF" d="M6.39-4.693c0,0.562-0.456,1.019-1.018,1.019c-0.561,0-1.017-0.456-1.017-1.019
				c0-0.563,0.456-1.018,1.017-1.018C5.934-5.711,6.39-5.258,6.39-4.693"/>
			<path fill="#2EBDEF" d="M11.764-0.062c0,0.021-0.003,0.043-0.003,0.062H9.73C9.728-0.02,9.727-0.041,9.727-0.062
				c0-0.562,0.455-1.019,1.017-1.019C11.308-1.08,11.764-0.624,11.764-0.062"/>
			<path fill="#2EBDEF" d="M6.39-64.906c0,0.562-0.456,1.019-1.018,1.019c-0.561,0-1.017-0.457-1.017-1.019
				c0-0.563,0.456-1.021,1.017-1.021C5.934-65.927,6.39-65.471,6.39-64.906"/>
			<path fill="#2EBDEF" d="M6.39-69.539c0,0.561-0.456,1.018-1.018,1.018c-0.561,0-1.017-0.457-1.017-1.018
				c0-0.562,0.456-1.021,1.017-1.021C5.934-70.561,6.39-70.102,6.39-69.539"/>
			<path fill="#2EBDEF" d="M11.764-9.326c0,0.562-0.456,1.019-1.02,1.019c-0.562,0-1.017-0.456-1.017-1.019
				c0-0.561,0.455-1.018,1.017-1.018C11.308-10.344,11.764-9.887,11.764-9.326"/>
			<path fill="#2EBDEF" d="M6.39-60.277c0,0.562-0.456,1.021-1.018,1.021c-0.561,0-1.017-0.458-1.017-1.021
				c0-0.561,0.456-1.018,1.017-1.018C5.934-61.295,6.39-60.838,6.39-60.277"/>
			<path fill="#2EBDEF" d="M6.39-46.381c0,0.562-0.456,1.02-1.018,1.02c-0.561,0-1.017-0.457-1.017-1.02s0.456-1.018,1.017-1.018
				C5.934-47.398,6.39-46.943,6.39-46.381"/>
			<path fill="#2EBDEF" d="M6.39-51.014c0,0.564-0.456,1.02-1.018,1.02c-0.561,0-1.017-0.455-1.017-1.02
				c0-0.561,0.456-1.016,1.017-1.016C5.934-52.029,6.39-51.574,6.39-51.014"/>
			<path fill="#2EBDEF" d="M6.39-55.645c0,0.562-0.456,1.021-1.018,1.021c-0.561,0-1.017-0.458-1.017-1.021s0.456-1.019,1.017-1.019
				C5.934-56.662,6.39-56.206,6.39-55.645"/>
			<path fill="#2EBDEF" d="M1.019-41.748c0,0.562-0.457,1.018-1.019,1.018v-2.034C0.562-42.766,1.019-42.311,1.019-41.748"/>
			<path fill="#2EBDEF" d="M1.019-37.117c0,0.564-0.457,1.021-1.019,1.021v-2.037C0.562-38.135,1.019-37.679,1.019-37.117"/>
			<path fill="#2EBDEF" d="M1.019-23.221c0,0.562-0.457,1.018-1.019,1.018v-2.035C0.562-24.238,1.019-23.781,1.019-23.221"/>
			<path fill="#2EBDEF" d="M1.019-18.59c0,0.562-0.457,1.018-1.019,1.018v-2.035C0.562-19.607,1.019-19.15,1.019-18.59"/>
			<path fill="#2EBDEF" d="M22.508-27.854c0,0.562-0.456,1.02-1.018,1.02c-0.563,0-1.019-0.457-1.019-1.02s0.456-1.019,1.019-1.019
				C22.052-28.871,22.508-28.415,22.508-27.854"/>
			<path fill="#2EBDEF" d="M1.019-27.854c0,0.562-0.457,1.02-1.019,1.02v-2.037C0.562-28.871,1.019-28.415,1.019-27.854"/>
			<path fill="#2EBDEF" d="M6.39-0.062c0,0.021-0.001,0.043-0.003,0.062H4.358C4.356-0.02,4.355-0.041,4.355-0.062
				c0-0.562,0.456-1.019,1.017-1.019C5.934-1.08,6.39-0.624,6.39-0.062"/>
			<path fill="#2EBDEF" d="M1.019-9.326c0,0.562-0.457,1.019-1.019,1.019v-2.035C0.562-10.344,1.019-9.887,1.019-9.326"/>
			<path fill="#2EBDEF" d="M1.019-13.957c0,0.562-0.457,1.018-1.019,1.018v-2.034C0.562-14.975,1.019-14.52,1.019-13.957"/>
			<path fill="#2EBDEF" d="M1.019-4.693c0,0.562-0.457,1.019-1.019,1.019V-5.71C0.562-5.711,1.019-5.258,1.019-4.693"/>
			<path fill="#2EBDEF" d="M11.764-4.693c0,0.562-0.456,1.019-1.02,1.019c-0.562,0-1.017-0.456-1.017-1.019
				c0-0.563,0.455-1.018,1.017-1.018C11.308-5.711,11.764-5.258,11.764-4.693"/>
			<path fill="#2EBDEF" d="M1.019-60.277c0,0.562-0.457,1.021-1.019,1.021v-2.038C0.562-61.295,1.019-60.838,1.019-60.277"/>
			<path fill="#2EBDEF" d="M1.019-69.539c0,0.561-0.457,1.018-1.019,1.018v-2.039C0.562-70.561,1.019-70.102,1.019-69.539"/>
			<path fill="#2EBDEF" d="M1.019-0.062c0,0.021-0.002,0.043-0.004,0.062H0V-1.08C0.562-1.08,1.019-0.624,1.019-0.062"/>
			<path fill="#2EBDEF" d="M1.019-64.906c0,0.562-0.457,1.019-1.019,1.019v-2.038C0.562-65.927,1.019-65.471,1.019-64.906"/>
			<path fill="#2EBDEF" d="M1.019-46.381c0,0.562-0.457,1.02-1.019,1.02v-2.037C0.562-47.398,1.019-46.943,1.019-46.381"/>
			<path fill="#2EBDEF" d="M1.019-55.645c0,0.562-0.457,1.021-1.019,1.021v-2.038C0.562-56.662,1.019-56.206,1.019-55.645"/>
			<path fill="#2EBDEF" d="M1.019-51.014c0,0.564-0.457,1.02-1.019,1.02v-2.035C0.562-52.029,1.019-51.574,1.019-51.014"/>
			<path fill="#2EBDEF" d="M1.019-32.484c0,0.562-0.457,1.019-1.019,1.019v-2.038C0.562-33.505,1.019-33.047,1.019-32.484"/>
			<path fill="#2EBDEF" d="M17.135-23.221c0,0.562-0.455,1.018-1.019,1.018c-0.561,0-1.017-0.455-1.017-1.018
				s0.456-1.018,1.017-1.018C16.68-24.238,17.135-23.781,17.135-23.221"/>
			<path fill="#2EBDEF" d="M17.135-51.014c0,0.564-0.455,1.02-1.019,1.02c-0.561,0-1.017-0.455-1.017-1.02
				c0-0.561,0.456-1.016,1.017-1.016C16.68-52.029,17.135-51.574,17.135-51.014"/>
			<path fill="#2EBDEF" d="M17.135-41.748c0,0.562-0.455,1.018-1.019,1.018c-0.561,0-1.017-0.455-1.017-1.018
				s0.456-1.018,1.017-1.018C16.68-42.766,17.135-42.311,17.135-41.748"/>
			<path fill="#2EBDEF" d="M17.135-55.645c0,0.562-0.455,1.021-1.019,1.021c-0.561,0-1.017-0.458-1.017-1.021
				s0.456-1.019,1.017-1.019C16.68-56.662,17.135-56.206,17.135-55.645"/>
			<path fill="#2EBDEF" d="M17.135-37.117c0,0.564-0.455,1.021-1.019,1.021c-0.561,0-1.017-0.455-1.017-1.021
				c0-0.562,0.456-1.018,1.017-1.018C16.68-38.135,17.135-37.679,17.135-37.117"/>
			<path fill="#2EBDEF" d="M17.135-27.854c0,0.562-0.455,1.02-1.019,1.02c-0.561,0-1.017-0.457-1.017-1.02s0.456-1.019,1.017-1.019
				C16.68-28.871,17.135-28.415,17.135-27.854"/>
			<path fill="#2EBDEF" d="M17.135-60.277c0,0.562-0.455,1.021-1.019,1.021c-0.561,0-1.017-0.458-1.017-1.021
				c0-0.561,0.456-1.018,1.017-1.018C16.68-61.295,17.135-60.838,17.135-60.277"/>
			<path fill="#2EBDEF" d="M17.135-32.484c0,0.562-0.455,1.019-1.019,1.019c-0.561,0-1.017-0.457-1.017-1.019
				s0.456-1.021,1.017-1.021C16.68-33.505,17.135-33.047,17.135-32.484"/>
			<path fill="#2EBDEF" d="M17.135-46.381c0,0.562-0.455,1.02-1.019,1.02c-0.561,0-1.017-0.457-1.017-1.02s0.456-1.018,1.017-1.018
				C16.68-47.398,17.135-46.943,17.135-46.381"/>
			<path fill="#2EBDEF" d="M22.508-18.59c0,0.562-0.456,1.018-1.018,1.018c-0.563,0-1.019-0.455-1.019-1.018
				s0.456-1.018,1.019-1.018C22.052-19.607,22.508-19.15,22.508-18.59"/>
			<path fill="#2EBDEF" d="M17.135-64.906c0,0.562-0.455,1.019-1.019,1.019c-0.561,0-1.017-0.457-1.017-1.019
				c0-0.563,0.456-1.021,1.017-1.021C16.68-65.927,17.135-65.471,17.135-64.906"/>
			<path fill="#2EBDEF" d="M22.508-4.693c0,0.562-0.456,1.019-1.018,1.019c-0.563,0-1.019-0.456-1.019-1.019
				c0-0.563,0.456-1.018,1.019-1.018C22.052-5.711,22.508-5.258,22.508-4.693"/>
			<path fill="#2EBDEF" d="M22.508-23.221c0,0.562-0.456,1.018-1.018,1.018c-0.563,0-1.019-0.455-1.019-1.018
				s0.456-1.018,1.019-1.018C22.052-24.238,22.508-23.781,22.508-23.221"/>
			<path fill="#2EBDEF" d="M22.508-13.957c0,0.562-0.456,1.018-1.018,1.018c-0.563,0-1.019-0.455-1.019-1.018
				s0.456-1.018,1.019-1.018C22.052-14.975,22.508-14.52,22.508-13.957"/>
			<path fill="#2EBDEF" d="M17.135-69.539c0,0.561-0.455,1.018-1.019,1.018c-0.561,0-1.017-0.457-1.017-1.018
				c0-0.562,0.456-1.021,1.017-1.021C16.68-70.561,17.135-70.102,17.135-69.539"/>
			<path fill="#2EBDEF" d="M22.508-0.062c0,0.021-0.003,0.043-0.003,0.062h-2.031c-0.002-0.019-0.003-0.04-0.003-0.062
				c0-0.562,0.456-1.019,1.019-1.019C22.052-1.08,22.508-0.624,22.508-0.062"/>
			<path fill="#2EBDEF" d="M22.508-9.326c0,0.562-0.456,1.019-1.018,1.019c-0.563,0-1.019-0.456-1.019-1.019
				c0-0.561,0.456-1.018,1.019-1.018C22.052-10.344,22.508-9.887,22.508-9.326"/>
			<path fill="#2EBDEF" d="M11.764-69.539c0,0.561-0.456,1.018-1.02,1.018c-0.562,0-1.017-0.457-1.017-1.018
				c0-0.562,0.455-1.021,1.017-1.021C11.308-70.561,11.764-70.102,11.764-69.539"/>
			<path fill="#2EBDEF" d="M11.764-37.117c0,0.564-0.456,1.021-1.02,1.021c-0.562,0-1.017-0.455-1.017-1.021
				c0-0.562,0.455-1.018,1.017-1.018C11.308-38.135,11.764-37.679,11.764-37.117"/>
			<path fill="#2EBDEF" d="M17.135-18.59c0,0.562-0.455,1.018-1.019,1.018c-0.561,0-1.017-0.455-1.017-1.018
				s0.456-1.018,1.017-1.018C16.68-19.607,17.135-19.15,17.135-18.59"/>
			<path fill="#2EBDEF" d="M11.764-32.484c0,0.562-0.456,1.019-1.02,1.019c-0.562,0-1.017-0.457-1.017-1.019
				s0.455-1.021,1.017-1.021C11.308-33.505,11.764-33.047,11.764-32.484"/>
			<path fill="#2EBDEF" d="M11.764-51.014c0,0.564-0.456,1.02-1.02,1.02c-0.562,0-1.017-0.455-1.017-1.02
				c0-0.561,0.455-1.016,1.017-1.016C11.308-52.029,11.764-51.574,11.764-51.014"/>
			<path fill="#2EBDEF" d="M11.764-46.381c0,0.562-0.456,1.02-1.02,1.02c-0.562,0-1.017-0.457-1.017-1.02s0.455-1.018,1.017-1.018
				C11.308-47.398,11.764-46.943,11.764-46.381"/>
			<path fill="#2EBDEF" d="M11.764-18.59c0,0.562-0.456,1.018-1.02,1.018c-0.562,0-1.017-0.455-1.017-1.018s0.455-1.018,1.017-1.018
				C11.308-19.607,11.764-19.15,11.764-18.59"/>
			<path fill="#2EBDEF" d="M11.764-27.854c0,0.562-0.456,1.02-1.02,1.02c-0.562,0-1.017-0.457-1.017-1.02s0.455-1.019,1.017-1.019
				C11.308-28.871,11.764-28.415,11.764-27.854"/>
			<path fill="#2EBDEF" d="M11.764-23.221c0,0.562-0.456,1.018-1.02,1.018c-0.562,0-1.017-0.455-1.017-1.018
				s0.455-1.018,1.017-1.018C11.308-24.238,11.764-23.781,11.764-23.221"/>
			<path fill="#2EBDEF" d="M11.764-41.748c0,0.562-0.456,1.018-1.02,1.018c-0.562,0-1.017-0.455-1.017-1.018
				s0.455-1.018,1.017-1.018C11.308-42.766,11.764-42.311,11.764-41.748"/>
			<path fill="#2EBDEF" d="M17.135-9.326c0,0.562-0.455,1.019-1.019,1.019c-0.561,0-1.017-0.456-1.017-1.019
				c0-0.561,0.456-1.018,1.017-1.018C16.68-10.344,17.135-9.887,17.135-9.326"/>
			<path fill="#2EBDEF" d="M11.764-55.645c0,0.562-0.456,1.021-1.02,1.021c-0.562,0-1.017-0.458-1.017-1.021
				s0.455-1.019,1.017-1.019C11.308-56.662,11.764-56.206,11.764-55.645"/>
			<path fill="#2EBDEF" d="M17.135-4.693c0,0.562-0.455,1.019-1.019,1.019c-0.561,0-1.017-0.456-1.017-1.019
				c0-0.563,0.456-1.018,1.017-1.018C16.68-5.711,17.135-5.258,17.135-4.693"/>
			<path fill="#2EBDEF" d="M17.135-13.957c0,0.562-0.455,1.018-1.019,1.018c-0.561,0-1.017-0.455-1.017-1.018
				s0.456-1.018,1.017-1.018C16.68-14.975,17.135-14.52,17.135-13.957"/>
			<path fill="#2EBDEF" d="M17.135-0.062c0,0.021-0.002,0.043-0.003,0.062h-2.03c0-0.019-0.003-0.04-0.003-0.062
				c0-0.562,0.456-1.019,1.017-1.019C16.68-1.08,17.135-0.624,17.135-0.062"/>
			<path fill="#2EBDEF" d="M11.764-60.277c0,0.562-0.456,1.021-1.02,1.021c-0.562,0-1.017-0.458-1.017-1.021
				c0-0.561,0.455-1.018,1.017-1.018C11.308-61.295,11.764-60.838,11.764-60.277"/>
			<path fill="#2EBDEF" d="M11.764-64.906c0,0.562-0.456,1.019-1.02,1.019c-0.562,0-1.017-0.457-1.017-1.019
				c0-0.563,0.455-1.021,1.017-1.021C11.308-65.927,11.764-65.471,11.764-64.906"/>
			<path fill="#2EBDEF" d="M11.764-13.957c0,0.562-0.456,1.018-1.02,1.018c-0.562,0-1.017-0.455-1.017-1.018
				s0.455-1.018,1.017-1.018C11.308-14.975,11.764-14.52,11.764-13.957"/>
			<path fill="#2EBDEF" d="M76.232-60.277c0,0.562-0.457,1.021-1.018,1.021c-0.563,0-1.02-0.458-1.02-1.021
				c0-0.561,0.457-1.018,1.02-1.018C75.775-61.295,76.232-60.838,76.232-60.277"/>
			<path fill="#2EBDEF" d="M81.603-4.693c0,0.562-0.456,1.019-1.018,1.019c-0.561,0-1.017-0.456-1.017-1.019
				c0-0.563,0.456-1.018,1.017-1.018C81.147-5.711,81.603-5.258,81.603-4.693"/>
			<path fill="#2EBDEF" d="M81.603-0.062c0,0.021-0.001,0.043-0.002,0.062h-2.03c-0.001-0.019-0.003-0.04-0.003-0.062
				c0-0.562,0.456-1.019,1.017-1.019C81.147-1.08,81.603-0.624,81.603-0.062"/>
			<path fill="#2EBDEF" d="M76.232-46.381c0,0.562-0.457,1.02-1.018,1.02c-0.563,0-1.02-0.457-1.02-1.02s0.457-1.018,1.02-1.018
				C75.775-47.398,76.232-46.943,76.232-46.381"/>
			<path fill="#2EBDEF" d="M81.603-13.957c0,0.562-0.456,1.018-1.018,1.018c-0.561,0-1.017-0.455-1.017-1.018
				s0.456-1.018,1.017-1.018C81.147-14.975,81.603-14.52,81.603-13.957"/>
			<path fill="#2EBDEF" d="M81.603-9.326c0,0.562-0.456,1.019-1.018,1.019c-0.561,0-1.017-0.456-1.017-1.019
				c0-0.561,0.456-1.018,1.017-1.018C81.147-10.344,81.603-9.887,81.603-9.326"/>
			<path fill="#2EBDEF" d="M76.232-55.645c0,0.562-0.457,1.021-1.018,1.021c-0.563,0-1.02-0.458-1.02-1.021s0.457-1.019,1.02-1.019
				C75.775-56.662,76.232-56.206,76.232-55.645"/>
			<path fill="#2EBDEF" d="M76.232-69.539c0,0.561-0.457,1.018-1.018,1.018c-0.563,0-1.02-0.457-1.02-1.018
				c0-0.562,0.457-1.021,1.02-1.021C75.775-70.561,76.232-70.102,76.232-69.539"/>
			<path fill="#2EBDEF" d="M76.232-51.014c0,0.564-0.457,1.02-1.018,1.02c-0.563,0-1.02-0.455-1.02-1.02
				c0-0.561,0.457-1.016,1.02-1.016C75.775-52.029,76.232-51.574,76.232-51.014"/>
			<path fill="#2EBDEF" d="M76.232-64.906c0,0.562-0.457,1.019-1.018,1.019c-0.563,0-1.02-0.457-1.02-1.019
				c0-0.563,0.457-1.021,1.02-1.021C75.775-65.927,76.232-65.471,76.232-64.906"/>
			<path fill="#2EBDEF" d="M81.603-18.59c0,0.562-0.456,1.018-1.018,1.018c-0.561,0-1.017-0.455-1.017-1.018
				s0.456-1.018,1.017-1.018C81.147-19.607,81.603-19.15,81.603-18.59"/>
			<path fill="#2EBDEF" d="M81.603-23.221c0,0.562-0.456,1.018-1.018,1.018c-0.561,0-1.017-0.455-1.017-1.018
				s0.456-1.018,1.017-1.018C81.147-24.238,81.603-23.781,81.603-23.221"/>
			<path fill="#2EBDEF" d="M81.603-41.748c0,0.562-0.456,1.018-1.018,1.018c-0.561,0-1.017-0.455-1.017-1.018
				s0.456-1.018,1.017-1.018C81.147-42.766,81.603-42.311,81.603-41.748"/>
			<path fill="#2EBDEF" d="M81.603-51.014c0,0.564-0.456,1.02-1.018,1.02c-0.561,0-1.017-0.455-1.017-1.02
				c0-0.561,0.456-1.016,1.017-1.016C81.147-52.029,81.603-51.574,81.603-51.014"/>
			<path fill="#2EBDEF" d="M81.603-55.645c0,0.562-0.456,1.021-1.018,1.021c-0.561,0-1.017-0.458-1.017-1.021
				s0.456-1.019,1.017-1.019C81.147-56.662,81.603-56.206,81.603-55.645"/>
			<path fill="#2EBDEF" d="M81.603-46.381c0,0.562-0.456,1.02-1.018,1.02c-0.561,0-1.017-0.457-1.017-1.02s0.456-1.018,1.017-1.018
				C81.147-47.398,81.603-46.943,81.603-46.381"/>
			<path fill="#2EBDEF" d="M81.603-27.854c0,0.562-0.456,1.02-1.018,1.02c-0.561,0-1.017-0.457-1.017-1.02s0.456-1.019,1.017-1.019
				C81.147-28.871,81.603-28.415,81.603-27.854"/>
			<path fill="#2EBDEF" d="M70.859-37.117c0,0.564-0.456,1.021-1.018,1.021s-1.017-0.455-1.017-1.021
				c0-0.562,0.455-1.018,1.017-1.018S70.859-37.679,70.859-37.117"/>
			<path fill="#2EBDEF" d="M81.603-37.117c0,0.564-0.456,1.021-1.018,1.021c-0.561,0-1.017-0.455-1.017-1.021
				c0-0.562,0.456-1.018,1.017-1.018C81.147-38.135,81.603-37.679,81.603-37.117"/>
			<path fill="#2EBDEF" d="M76.232-32.484c0,0.562-0.457,1.019-1.018,1.019c-0.563,0-1.02-0.457-1.02-1.019s0.457-1.021,1.02-1.021
				C75.775-33.505,76.232-33.047,76.232-32.484"/>
			<path fill="#2EBDEF" d="M70.859-55.645c0,0.562-0.456,1.021-1.018,1.021s-1.017-0.458-1.017-1.021s0.455-1.019,1.017-1.019
				S70.859-56.206,70.859-55.645"/>
			<path fill="#2EBDEF" d="M76.232-0.062c0,0.021-0.002,0.043-0.004,0.062h-2.029c-0.002-0.019-0.005-0.04-0.005-0.062
				c0-0.562,0.457-1.019,1.02-1.019C75.775-1.08,76.232-0.624,76.232-0.062"/>
			<path fill="#2EBDEF" d="M70.859-64.906c0,0.562-0.456,1.019-1.018,1.019s-1.017-0.457-1.017-1.019
				c0-0.563,0.455-1.021,1.017-1.021S70.859-65.471,70.859-64.906"/>
			<path fill="#2EBDEF" d="M70.859-69.539c0,0.561-0.456,1.018-1.018,1.018s-1.017-0.457-1.017-1.018
				c0-0.562,0.455-1.021,1.017-1.021S70.859-70.102,70.859-69.539"/>
			<path fill="#2EBDEF" d="M70.859-60.277c0,0.562-0.456,1.021-1.018,1.021s-1.017-0.458-1.017-1.021
				c0-0.561,0.455-1.018,1.017-1.018S70.859-60.838,70.859-60.277"/>
			<path fill="#2EBDEF" d="M70.859-51.014c0,0.564-0.456,1.02-1.018,1.02s-1.017-0.455-1.017-1.02c0-0.561,0.455-1.016,1.017-1.016
				S70.859-51.574,70.859-51.014"/>
			<path fill="#2EBDEF" d="M70.859-41.748c0,0.562-0.456,1.018-1.018,1.018s-1.017-0.455-1.017-1.018s0.455-1.018,1.017-1.018
				S70.859-42.311,70.859-41.748"/>
			<path fill="#2EBDEF" d="M70.859-46.381c0,0.562-0.456,1.02-1.018,1.02s-1.017-0.457-1.017-1.02s0.455-1.018,1.017-1.018
				S70.859-46.943,70.859-46.381"/>
			<path fill="#2EBDEF" d="M76.232-18.59c0,0.562-0.457,1.018-1.018,1.018c-0.563,0-1.02-0.455-1.02-1.018s0.457-1.018,1.02-1.018
				C75.775-19.607,76.232-19.15,76.232-18.59"/>
			<path fill="#2EBDEF" d="M81.603-60.277c0,0.562-0.456,1.021-1.018,1.021c-0.561,0-1.017-0.458-1.017-1.021
				c0-0.561,0.456-1.018,1.017-1.018C81.147-61.295,81.603-60.838,81.603-60.277"/>
			<path fill="#2EBDEF" d="M76.232-27.854c0,0.562-0.457,1.02-1.018,1.02c-0.563,0-1.02-0.457-1.02-1.02s0.457-1.019,1.02-1.019
				C75.775-28.871,76.232-28.415,76.232-27.854"/>
			<path fill="#2EBDEF" d="M76.232-37.117c0,0.564-0.457,1.021-1.018,1.021c-0.563,0-1.02-0.455-1.02-1.021
				c0-0.562,0.457-1.018,1.02-1.018C75.775-38.135,76.232-37.679,76.232-37.117"/>
			<path fill="#2EBDEF" d="M76.232-23.221c0,0.562-0.457,1.018-1.018,1.018c-0.563,0-1.02-0.455-1.02-1.018s0.457-1.018,1.02-1.018
				C75.775-24.238,76.232-23.781,76.232-23.221"/>
			<path fill="#2EBDEF" d="M76.232-13.957c0,0.562-0.457,1.018-1.018,1.018c-0.563,0-1.02-0.455-1.02-1.018s0.457-1.018,1.02-1.018
				C75.775-14.975,76.232-14.52,76.232-13.957"/>
			<path fill="#2EBDEF" d="M76.232-41.748c0,0.562-0.457,1.018-1.018,1.018c-0.563,0-1.02-0.455-1.02-1.018s0.457-1.018,1.02-1.018
				C75.775-42.766,76.232-42.311,76.232-41.748"/>
			<path fill="#2EBDEF" d="M76.232-4.693c0,0.562-0.457,1.019-1.018,1.019c-0.563,0-1.02-0.456-1.02-1.019
				c0-0.563,0.457-1.018,1.02-1.018C75.775-5.711,76.232-5.258,76.232-4.693"/>
			<path fill="#2EBDEF" d="M76.232-9.326c0,0.562-0.457,1.019-1.018,1.019c-0.563,0-1.02-0.456-1.02-1.019
				c0-0.561,0.457-1.018,1.02-1.018C75.775-10.344,76.232-9.887,76.232-9.326"/>
			<path fill="#2EBDEF" d="M81.603-32.484c0,0.562-0.456,1.019-1.018,1.019c-0.561,0-1.017-0.457-1.017-1.019
				s0.456-1.021,1.017-1.021C81.147-33.505,81.603-33.047,81.603-32.484"/>
			<path fill="#2EBDEF" d="M52.706-74.172h2.036c0,0.562-0.457,1.02-1.018,1.02C53.162-73.152,52.706-73.609,52.706-74.172"/>
			<path fill="#2EBDEF" d="M63.45-74.172h2.036c0,0.562-0.455,1.02-1.017,1.02C63.906-73.152,63.45-73.609,63.45-74.172"/>
			<path fill="#2EBDEF" d="M58.078-74.172h2.037c0,0.562-0.456,1.02-1.017,1.02C58.535-73.152,58.078-73.609,58.078-74.172"/>
			<path fill="#2EBDEF" d="M41.961-74.172h2.036c0,0.562-0.457,1.02-1.018,1.02C42.417-73.152,41.961-73.609,41.961-74.172"/>
			<path fill="#2EBDEF" d="M49.37-0.062c0,0.021-0.002,0.043-0.003,0.062h-2.03c-0.001-0.019-0.003-0.04-0.003-0.062
				c0-0.562,0.455-1.019,1.018-1.019S49.37-0.624,49.37-0.062"/>
			<path fill="#2EBDEF" d="M79.568-74.172h2.035c0,0.562-0.456,1.02-1.017,1.02C80.024-73.152,79.568-73.609,79.568-74.172"/>
			<path fill="#2EBDEF" d="M68.824-74.172h2.035c0,0.562-0.456,1.02-1.017,1.02C69.279-73.152,68.824-73.609,68.824-74.172"/>
			<path fill="#2EBDEF" d="M74.194-74.172h2.038c0,0.562-0.457,1.02-1.018,1.02C74.651-73.152,74.194-73.609,74.194-74.172"/>
			<path fill="#2EBDEF" d="M47.333-74.172h2.036c0,0.562-0.455,1.02-1.018,1.02S47.333-73.609,47.333-74.172"/>
			<path fill="#2EBDEF" d="M4.355-74.172H6.39c0,0.562-0.456,1.02-1.017,1.02C4.811-73.152,4.355-73.609,4.355-74.172"/>
			<path fill="#2EBDEF" d="M81.603-64.906c0,0.562-0.456,1.019-1.018,1.019c-0.561,0-1.017-0.457-1.017-1.019
				c0-0.563,0.456-1.021,1.017-1.021C81.147-65.927,81.603-65.471,81.603-64.906"/>
			<path fill="#2EBDEF" d="M9.727-74.172h2.037c0,0.562-0.456,1.02-1.019,1.02S9.727-73.609,9.727-74.172"/>
			<path fill="#2EBDEF" d="M0-74.172h1.02c0,0.562-0.458,1.02-1.02,1.02V-74.172z"/>
			<path fill="#2EBDEF" d="M36.589-74.172h2.035c0,0.562-0.456,1.02-1.017,1.02C37.044-73.152,36.589-73.609,36.589-74.172"/>
			<path fill="#2EBDEF" d="M31.216-74.172h2.037c0,0.562-0.457,1.02-1.018,1.02C31.671-73.152,31.216-73.609,31.216-74.172"/>
			<path fill="#2EBDEF" d="M20.471-74.172h2.037c0,0.562-0.456,1.02-1.017,1.02C20.927-73.152,20.471-73.609,20.471-74.172"/>
			<path fill="#2EBDEF" d="M25.843-74.172h2.036c0,0.562-0.455,1.02-1.016,1.02C26.3-73.152,25.843-73.609,25.843-74.172"/>
			<path fill="#2EBDEF" d="M15.099-74.172h2.036c0,0.562-0.455,1.02-1.018,1.02C15.555-73.152,15.099-73.609,15.099-74.172"/>
			<path fill="#2EBDEF" d="M85.958-19.607c0.042,0,0.083,0.004,0.124,0.008v2.021c-0.041,0.005-0.082,0.007-0.124,0.007
				c-0.562,0-1.018-0.455-1.018-1.018S85.396-19.607,85.958-19.607"/>
			<path fill="#2EBDEF" d="M85.958-14.975c0.042,0,0.083,0.002,0.124,0.008v2.02c-0.041,0.004-0.082,0.008-0.124,0.008
				c-0.562,0-1.018-0.455-1.018-1.018S85.396-14.975,85.958-14.975"/>
			<path fill="#2EBDEF" d="M85.958-28.871c0.042,0,0.083,0.004,0.124,0.008v2.021c-0.041,0.004-0.082,0.008-0.124,0.008
				c-0.562,0-1.018-0.457-1.018-1.02C84.94-28.417,85.396-28.871,85.958-28.871"/>
			<path fill="#2EBDEF" d="M85.958-24.238c0.042,0,0.083,0.002,0.124,0.008v2.021c-0.041,0.004-0.082,0.008-0.124,0.008
				c-0.562,0-1.018-0.454-1.018-1.018S85.396-24.238,85.958-24.238"/>
			<path fill="#2EBDEF" d="M85.958-5.711c0.042,0,0.083,0.002,0.124,0.006v2.021C86.041-3.68,86-3.676,85.958-3.676
				c-0.562,0-1.018-0.455-1.018-1.018C84.939-5.258,85.396-5.711,85.958-5.711"/>
			<path fill="#2EBDEF" d="M81.603-69.539c0,0.561-0.456,1.018-1.018,1.018c-0.561,0-1.017-0.457-1.017-1.018
				c0-0.562,0.456-1.021,1.017-1.021C81.147-70.561,81.603-70.102,81.603-69.539"/>
			<path fill="#2EBDEF" d="M85.958-10.344c0.042,0,0.083,0.004,0.124,0.008v2.02C86.041-8.311,86-8.308,85.958-8.308
				c-0.562,0-1.018-0.455-1.018-1.019C84.939-9.887,85.396-10.344,85.958-10.344"/>
			<path fill="#2EBDEF" d="M85.958-1.08c0.042,0,0.083,0.004,0.124,0.008V0h-1.139c-0.002-0.02-0.003-0.041-0.003-0.062
				C84.939-0.625,85.396-1.08,85.958-1.08"/>
			<path fill="#2EBDEF" d="M85.958-52.029c0.042,0,0.083,0.002,0.124,0.008v2.019c-0.041,0.008-0.082,0.011-0.124,0.011
				c-0.562,0-1.018-0.455-1.018-1.021C84.939-51.574,85.396-52.029,85.958-52.029"/>
			<path fill="#2EBDEF" d="M85.958-61.295c0.042,0,0.083,0.004,0.124,0.01v2.021c-0.041,0.006-0.082,0.008-0.124,0.008
				c-0.562,0-1.018-0.457-1.018-1.021C84.939-60.838,85.396-61.295,85.958-61.295"/>
			<path fill="#2EBDEF" d="M85.958-33.504c0.042,0,0.083,0.004,0.124,0.01v2.021c-0.041,0.004-0.082,0.008-0.124,0.008
				c-0.562,0-1.018-0.457-1.018-1.019C84.939-33.047,85.396-33.504,85.958-33.504"/>
			<path fill="#2EBDEF" d="M85.958-56.662c0.042,0,0.083,0.004,0.124,0.008v2.021c-0.041,0.006-0.082,0.01-0.124,0.01
				c-0.562,0-1.018-0.457-1.018-1.021C84.94-56.207,85.396-56.662,85.958-56.662"/>
			<path fill="#2EBDEF" d="M85.958-65.926c0.042,0,0.083,0.004,0.124,0.008v2.02c-0.041,0.007-0.082,0.011-0.124,0.011
				c-0.562,0-1.018-0.457-1.018-1.019C84.939-65.471,85.396-65.926,85.958-65.926"/>
			<path fill="#2EBDEF" d="M85.958-70.559c0.042,0,0.083,0.004,0.124,0.01v2.02c-0.041,0.006-0.082,0.008-0.124,0.008
				c-0.562,0-1.018-0.457-1.018-1.019C84.939-70.102,85.396-70.559,85.958-70.559"/>
			<path fill="#2EBDEF" d="M85.958-38.135c0.042,0,0.083,0.004,0.124,0.008v2.021c-0.041,0.004-0.082,0.008-0.124,0.008
				c-0.562,0-1.018-0.455-1.018-1.02C84.939-37.68,85.396-38.135,85.958-38.135"/>
			<path fill="#2EBDEF" d="M85.958-42.766c0.042,0,0.083,0.002,0.124,0.008v2.02C86.041-40.732,86-40.73,85.958-40.73
				c-0.562,0-1.018-0.455-1.018-1.018S85.396-42.766,85.958-42.766"/>
			<path fill="#2EBDEF" d="M85.958-47.398c0.042,0,0.083,0.002,0.124,0.008v2.02c-0.041,0.006-0.082,0.01-0.124,0.01
				c-0.562,0-1.018-0.457-1.018-1.02S85.396-47.398,85.958-47.398"/>
			<path fill="#2EBDEF" d="M86.082-74.172v1.01c-0.041,0.006-0.082,0.01-0.124,0.01c-0.563,0-1.018-0.457-1.018-1.02H86.082z"/>
			<path fill="#2EBDEF" d="M54.742-32.484c0,0.562-0.457,1.019-1.018,1.019c-0.562,0-1.018-0.457-1.018-1.019
				s0.456-1.021,1.018-1.021C54.285-33.505,54.742-33.047,54.742-32.484"/>
			<path fill="#2EBDEF" d="M54.742-27.854c0,0.562-0.457,1.02-1.018,1.02c-0.562,0-1.018-0.457-1.018-1.02s0.456-1.019,1.018-1.019
				C54.285-28.871,54.742-28.415,54.742-27.854"/>
			<path fill="#2EBDEF" d="M54.742-4.693c0,0.562-0.457,1.019-1.018,1.019c-0.562,0-1.018-0.456-1.018-1.019
				c0-0.563,0.456-1.018,1.018-1.018C54.285-5.711,54.742-5.258,54.742-4.693"/>
			<path fill="#2EBDEF" d="M54.742-41.748c0,0.562-0.457,1.018-1.018,1.018c-0.562,0-1.018-0.455-1.018-1.018
				s0.456-1.018,1.018-1.018C54.285-42.766,54.742-42.311,54.742-41.748"/>
			<path fill="#2EBDEF" d="M54.742-37.117c0,0.564-0.457,1.021-1.018,1.021c-0.562,0-1.018-0.455-1.018-1.021
				c0-0.562,0.456-1.018,1.018-1.018C54.285-38.135,54.742-37.679,54.742-37.117"/>
			<path fill="#2EBDEF" d="M54.742-13.957c0,0.562-0.457,1.018-1.018,1.018c-0.562,0-1.018-0.455-1.018-1.018
				s0.456-1.018,1.018-1.018C54.285-14.975,54.742-14.52,54.742-13.957"/>
			<path fill="#2EBDEF" d="M54.742-18.59c0,0.562-0.457,1.018-1.018,1.018c-0.562,0-1.018-0.455-1.018-1.018
				s0.456-1.018,1.018-1.018C54.285-19.607,54.742-19.15,54.742-18.59"/>
			<path fill="#2EBDEF" d="M54.742-23.221c0,0.562-0.457,1.018-1.018,1.018c-0.562,0-1.018-0.455-1.018-1.018
				s0.456-1.018,1.018-1.018C54.285-24.238,54.742-23.781,54.742-23.221"/>
			<path fill="#2EBDEF" d="M54.742-46.381c0,0.562-0.457,1.02-1.018,1.02c-0.562,0-1.018-0.457-1.018-1.02s0.456-1.018,1.018-1.018
				C54.285-47.398,54.742-46.943,54.742-46.381"/>
			<path fill="#2EBDEF" d="M60.115-13.957c0,0.562-0.456,1.018-1.018,1.018s-1.019-0.455-1.019-1.018s0.457-1.018,1.019-1.018
				S60.115-14.52,60.115-13.957"/>
			<path fill="#2EBDEF" d="M60.115-0.062c0,0.021-0.003,0.043-0.004,0.062h-2.028c-0.003-0.019-0.005-0.04-0.005-0.062
				c0-0.562,0.457-1.019,1.019-1.019S60.115-0.624,60.115-0.062"/>
			<path fill="#2EBDEF" d="M54.742-69.539c0,0.561-0.457,1.018-1.018,1.018c-0.562,0-1.018-0.457-1.018-1.018
				c0-0.562,0.456-1.021,1.018-1.021C54.285-70.561,54.742-70.102,54.742-69.539"/>
			<path fill="#2EBDEF" d="M60.115-4.693c0,0.562-0.456,1.019-1.018,1.019s-1.019-0.456-1.019-1.019
				c0-0.563,0.457-1.018,1.019-1.018S60.115-5.258,60.115-4.693"/>
			<path fill="#2EBDEF" d="M60.115-9.326c0,0.562-0.456,1.019-1.018,1.019s-1.019-0.456-1.019-1.019
				c0-0.561,0.457-1.018,1.019-1.018S60.115-9.887,60.115-9.326"/>
			<path fill="#2EBDEF" d="M54.742-64.906c0,0.562-0.457,1.019-1.018,1.019c-0.562,0-1.018-0.457-1.018-1.019
				c0-0.563,0.456-1.021,1.018-1.021C54.285-65.927,54.742-65.471,54.742-64.906"/>
			<path fill="#2EBDEF" d="M54.742-55.645c0,0.562-0.457,1.021-1.018,1.021c-0.562,0-1.018-0.458-1.018-1.021
				s0.456-1.019,1.018-1.019C54.285-56.662,54.742-56.206,54.742-55.645"/>
			<path fill="#2EBDEF" d="M54.742-60.277c0,0.562-0.457,1.021-1.018,1.021c-0.562,0-1.018-0.458-1.018-1.021
				c0-0.561,0.456-1.018,1.018-1.018C54.285-61.295,54.742-60.838,54.742-60.277"/>
			<path fill="#2EBDEF" d="M54.742-51.014c0,0.564-0.457,1.02-1.018,1.02c-0.562,0-1.018-0.455-1.018-1.02
				c0-0.561,0.456-1.016,1.018-1.016C54.285-52.029,54.742-51.574,54.742-51.014"/>
			<path fill="#2EBDEF" d="M49.37-23.221c0,0.562-0.455,1.018-1.018,1.018s-1.018-0.455-1.018-1.018s0.455-1.018,1.018-1.018
				S49.37-23.781,49.37-23.221"/>
			<path fill="#2EBDEF" d="M49.37-27.854c0,0.562-0.455,1.02-1.018,1.02s-1.018-0.457-1.018-1.02s0.455-1.019,1.018-1.019
				S49.37-28.415,49.37-27.854"/>
			<path fill="#2EBDEF" d="M49.37-18.59c0,0.562-0.455,1.018-1.018,1.018s-1.018-0.455-1.018-1.018s0.455-1.018,1.018-1.018
				S49.37-19.15,49.37-18.59"/>
			<path fill="#2EBDEF" d="M49.37-32.484c0,0.562-0.455,1.019-1.018,1.019s-1.018-0.457-1.018-1.019s0.455-1.021,1.018-1.021
				S49.37-33.047,49.37-32.484"/>
			<path fill="#2EBDEF" d="M49.37-4.693c0,0.562-0.455,1.019-1.018,1.019s-1.018-0.456-1.018-1.019c0-0.563,0.455-1.018,1.018-1.018
				S49.37-5.258,49.37-4.693"/>
			<path fill="#2EBDEF" d="M49.37-9.326c0,0.562-0.455,1.019-1.018,1.019s-1.018-0.456-1.018-1.019c0-0.561,0.455-1.018,1.018-1.018
				S49.37-9.887,49.37-9.326"/>
			<path fill="#2EBDEF" d="M49.37-37.117c0,0.564-0.455,1.021-1.018,1.021s-1.018-0.455-1.018-1.021
				c0-0.562,0.455-1.018,1.018-1.018S49.37-37.679,49.37-37.117"/>
			<path fill="#2EBDEF" d="M49.37-13.957c0,0.562-0.455,1.018-1.018,1.018s-1.018-0.455-1.018-1.018s0.455-1.018,1.018-1.018
				S49.37-14.52,49.37-13.957"/>
			<path fill="#2EBDEF" d="M49.37-46.381c0,0.562-0.455,1.02-1.018,1.02s-1.018-0.457-1.018-1.02s0.455-1.018,1.018-1.018
				S49.37-46.943,49.37-46.381"/>
			<path fill="#2EBDEF" d="M49.37-60.277c0,0.562-0.455,1.021-1.018,1.021s-1.018-0.458-1.018-1.021
				c0-0.561,0.455-1.018,1.018-1.018S49.37-60.838,49.37-60.277"/>
			<path fill="#2EBDEF" d="M49.37-64.906c0,0.562-0.455,1.019-1.018,1.019s-1.018-0.457-1.018-1.019
				c0-0.563,0.455-1.021,1.018-1.021S49.37-65.471,49.37-64.906"/>
			<path fill="#2EBDEF" d="M49.37-69.539c0,0.561-0.455,1.018-1.018,1.018s-1.018-0.457-1.018-1.018
				c0-0.562,0.455-1.021,1.018-1.021S49.37-70.102,49.37-69.539"/>
			<path fill="#2EBDEF" d="M49.37-41.748c0,0.562-0.455,1.018-1.018,1.018s-1.018-0.455-1.018-1.018s0.455-1.018,1.018-1.018
				S49.37-42.311,49.37-41.748"/>
			<path fill="#2EBDEF" d="M54.742-0.062c0,0.021-0.002,0.043-0.004,0.062h-2.029c-0.002-0.019-0.003-0.04-0.003-0.062
				c0-0.562,0.456-1.019,1.018-1.019C54.285-1.08,54.742-0.624,54.742-0.062"/>
			<path fill="#2EBDEF" d="M54.742-9.326c0,0.562-0.457,1.019-1.018,1.019c-0.562,0-1.018-0.456-1.018-1.019
				c0-0.561,0.456-1.018,1.018-1.018C54.285-10.344,54.742-9.887,54.742-9.326"/>
			<path fill="#2EBDEF" d="M49.37-51.014c0,0.564-0.455,1.02-1.018,1.02s-1.018-0.455-1.018-1.02c0-0.561,0.455-1.016,1.018-1.016
				S49.37-51.574,49.37-51.014"/>
			<path fill="#2EBDEF" d="M49.37-55.645c0,0.562-0.455,1.021-1.018,1.021s-1.018-0.458-1.018-1.021s0.455-1.019,1.018-1.019
				S49.37-56.206,49.37-55.645"/>
			<path fill="#2EBDEF" d="M60.115-32.484c0,0.562-0.456,1.019-1.018,1.019s-1.019-0.457-1.019-1.019s0.457-1.021,1.019-1.021
				S60.115-33.047,60.115-32.484"/>
			<path fill="#2EBDEF" d="M65.486-51.014c0,0.564-0.455,1.02-1.018,1.02c-0.562,0-1.018-0.455-1.018-1.02
				c0-0.561,0.456-1.016,1.018-1.016C65.031-52.029,65.486-51.574,65.486-51.014"/>
			<path fill="#2EBDEF" d="M65.486-55.645c0,0.562-0.455,1.021-1.018,1.021c-0.562,0-1.018-0.458-1.018-1.021
				s0.456-1.019,1.018-1.019C65.031-56.662,65.486-56.206,65.486-55.645"/>
			<path fill="#2EBDEF" d="M65.486-46.381c0,0.562-0.455,1.02-1.018,1.02c-0.562,0-1.018-0.457-1.018-1.02s0.456-1.018,1.018-1.018
				C65.031-47.398,65.486-46.943,65.486-46.381"/>
			<path fill="#2EBDEF" d="M65.486-60.277c0,0.562-0.455,1.021-1.018,1.021c-0.562,0-1.018-0.458-1.018-1.021
				c0-0.561,0.456-1.018,1.018-1.018C65.031-61.295,65.486-60.838,65.486-60.277"/>
			<path fill="#2EBDEF" d="M65.486-37.117c0,0.564-0.455,1.021-1.018,1.021c-0.562,0-1.018-0.455-1.018-1.021
				c0-0.562,0.456-1.018,1.018-1.018C65.031-38.135,65.486-37.679,65.486-37.117"/>
			<path fill="#2EBDEF" d="M65.486-32.484c0,0.562-0.455,1.019-1.018,1.019c-0.562,0-1.018-0.457-1.018-1.019
				s0.456-1.021,1.018-1.021C65.031-33.505,65.486-33.047,65.486-32.484"/>
			<path fill="#2EBDEF" d="M65.486-64.906c0,0.562-0.455,1.019-1.018,1.019c-0.562,0-1.018-0.457-1.018-1.019
				c0-0.563,0.456-1.021,1.018-1.021C65.031-65.927,65.486-65.471,65.486-64.906"/>
			<path fill="#2EBDEF" d="M65.486-41.748c0,0.562-0.455,1.018-1.018,1.018c-0.562,0-1.018-0.455-1.018-1.018
				s0.456-1.018,1.018-1.018C65.031-42.766,65.486-42.311,65.486-41.748"/>
			<path fill="#2EBDEF" d="M70.859-18.59c0,0.562-0.456,1.018-1.018,1.018s-1.017-0.455-1.017-1.018s0.455-1.018,1.017-1.018
				S70.859-19.15,70.859-18.59"/>
			<path fill="#2EBDEF" d="M65.486-27.854c0,0.562-0.455,1.02-1.018,1.02c-0.562,0-1.018-0.457-1.018-1.02s0.456-1.019,1.018-1.019
				C65.031-28.871,65.486-28.415,65.486-27.854"/>
			<path fill="#2EBDEF" d="M70.859-23.221c0,0.562-0.456,1.018-1.018,1.018s-1.017-0.455-1.017-1.018s0.455-1.018,1.017-1.018
				S70.859-23.781,70.859-23.221"/>
			<path fill="#2EBDEF" d="M60.115-18.59c0,0.562-0.456,1.018-1.018,1.018s-1.019-0.455-1.019-1.018s0.457-1.018,1.019-1.018
				S60.115-19.15,60.115-18.59"/>
			<path fill="#2EBDEF" d="M65.486-69.539c0,0.561-0.455,1.018-1.018,1.018c-0.562,0-1.018-0.457-1.018-1.018
				c0-0.562,0.456-1.021,1.018-1.021C65.031-70.561,65.486-70.102,65.486-69.539"/>
			<path fill="#2EBDEF" d="M70.859-13.957c0,0.562-0.456,1.018-1.018,1.018s-1.017-0.455-1.017-1.018s0.455-1.018,1.017-1.018
				S70.859-14.52,70.859-13.957"/>
			<path fill="#2EBDEF" d="M70.859-0.062c0,0.021-0.003,0.043-0.003,0.062h-2.029c-0.003-0.019-0.003-0.04-0.003-0.062
				c0-0.562,0.455-1.019,1.017-1.019S70.859-0.624,70.859-0.062"/>
			<path fill="#2EBDEF" d="M70.859-4.693c0,0.562-0.456,1.019-1.018,1.019s-1.017-0.456-1.017-1.019
				c0-0.563,0.455-1.018,1.017-1.018S70.859-5.258,70.859-4.693"/>
			<path fill="#2EBDEF" d="M70.859-9.326c0,0.562-0.456,1.019-1.018,1.019s-1.017-0.456-1.017-1.019
				c0-0.561,0.455-1.018,1.017-1.018S70.859-9.887,70.859-9.326"/>
			<path fill="#2EBDEF" d="M70.859-27.854c0,0.562-0.456,1.02-1.018,1.02s-1.017-0.457-1.017-1.02s0.455-1.019,1.017-1.019
				S70.859-28.415,70.859-27.854"/>
			<path fill="#2EBDEF" d="M60.115-46.381c0,0.562-0.456,1.02-1.018,1.02s-1.019-0.457-1.019-1.02s0.457-1.018,1.019-1.018
				S60.115-46.943,60.115-46.381"/>
			<path fill="#2EBDEF" d="M60.115-55.645c0,0.562-0.456,1.021-1.018,1.021s-1.019-0.458-1.019-1.021s0.457-1.019,1.019-1.019
				S60.115-56.206,60.115-55.645"/>
			<path fill="#2EBDEF" d="M60.115-41.748c0,0.562-0.456,1.018-1.018,1.018s-1.019-0.455-1.019-1.018s0.457-1.018,1.019-1.018
				S60.115-42.311,60.115-41.748"/>
			<path fill="#2EBDEF" d="M60.115-51.014c0,0.564-0.456,1.02-1.018,1.02s-1.019-0.455-1.019-1.02c0-0.561,0.457-1.016,1.019-1.016
				S60.115-51.574,60.115-51.014"/>
			<path fill="#2EBDEF" d="M60.115-37.117c0,0.564-0.456,1.021-1.018,1.021s-1.019-0.455-1.019-1.021
				c0-0.562,0.457-1.018,1.019-1.018S60.115-37.679,60.115-37.117"/>
			<path fill="#2EBDEF" d="M60.115-23.221c0,0.562-0.456,1.018-1.018,1.018s-1.019-0.455-1.019-1.018s0.457-1.018,1.019-1.018
				S60.115-23.781,60.115-23.221"/>
			<path fill="#2EBDEF" d="M60.115-27.854c0,0.562-0.456,1.02-1.018,1.02s-1.019-0.457-1.019-1.02s0.457-1.019,1.019-1.019
				S60.115-28.415,60.115-27.854"/>
			<path fill="#2EBDEF" d="M70.859-32.484c0,0.562-0.456,1.019-1.018,1.019s-1.017-0.457-1.017-1.019s0.455-1.021,1.017-1.021
				S70.859-33.047,70.859-32.484"/>
			<path fill="#2EBDEF" d="M60.115-60.277c0,0.562-0.456,1.021-1.018,1.021s-1.019-0.458-1.019-1.021
				c0-0.561,0.457-1.018,1.019-1.018S60.115-60.838,60.115-60.277"/>
			<path fill="#2EBDEF" d="M65.486-13.957c0,0.562-0.455,1.018-1.018,1.018c-0.562,0-1.018-0.455-1.018-1.018
				s0.456-1.018,1.018-1.018C65.031-14.975,65.486-14.52,65.486-13.957"/>
			<path fill="#2EBDEF" d="M65.486-23.221c0,0.562-0.455,1.018-1.018,1.018c-0.562,0-1.018-0.455-1.018-1.018
				s0.456-1.018,1.018-1.018C65.031-24.238,65.486-23.781,65.486-23.221"/>
			<path fill="#2EBDEF" d="M65.486-4.693c0,0.562-0.455,1.019-1.018,1.019c-0.562,0-1.018-0.456-1.018-1.019
				c0-0.563,0.456-1.018,1.018-1.018C65.031-5.711,65.486-5.258,65.486-4.693"/>
			<path fill="#2EBDEF" d="M65.486-18.59c0,0.562-0.455,1.018-1.018,1.018c-0.562,0-1.018-0.455-1.018-1.018
				s0.456-1.018,1.018-1.018C65.031-19.607,65.486-19.15,65.486-18.59"/>
			<path fill="#2EBDEF" d="M65.486-9.326c0,0.562-0.455,1.019-1.018,1.019c-0.562,0-1.018-0.456-1.018-1.019
				c0-0.561,0.456-1.018,1.018-1.018C65.031-10.344,65.486-9.887,65.486-9.326"/>
			<path fill="#2EBDEF" d="M65.486-0.062c0,0.021-0.002,0.043-0.003,0.062h-2.03c0-0.019-0.003-0.04-0.003-0.062
				c0-0.562,0.456-1.019,1.018-1.019C65.031-1.08,65.486-0.624,65.486-0.062"/>
			<path fill="#2EBDEF" d="M60.115-64.906c0,0.562-0.456,1.019-1.018,1.019s-1.019-0.457-1.019-1.019
				c0-0.563,0.457-1.021,1.019-1.021S60.115-65.471,60.115-64.906"/>
			<path fill="#2EBDEF" d="M60.115-69.539c0,0.561-0.456,1.018-1.018,1.018s-1.019-0.457-1.019-1.018
				c0-0.562,0.457-1.021,1.019-1.021S60.115-70.102,60.115-69.539"/>
		</g>
	</g>
</pattern>
<polygon fill="#E4F3FB" points="804.161,405.117 26.827,380.701 0,0 826.539,14.965 "/>
<pattern  id="SVGID_2_" xlink:href="#SVGID_1_" patternTransform="matrix(1 0 0 1 -2554.9922 -888.4434)">
</pattern>
<polyline fill="url(#SVGID_2_)" points="27.101,376.521 19.604,290.7 811.061,293.757 806.872,406.863 "/>
</svg>
