<?xml version="1.0" encoding="utf-8"?>
<!-- Generator: Adobe Illustrator 16.0.4, SVG Export Plug-In . SVG Version: 6.00 Build 0)  -->
<!DOCTYPE svg PUBLIC "-//W3C//DTD SVG 1.1//EN" "http://www.w3.org/Graphics/SVG/1.1/DTD/svg11.dtd">
<svg version="1.1" id="Layer_1" xmlns="http://www.w3.org/2000/svg" xmlns:xlink="http://www.w3.org/1999/xlink" x="0px" y="0px"
	 width="738.936px" height="736.051px" viewBox="0 0 738.936 736.051" enable-background="new 0 0 738.936 736.051"
	 xml:space="preserve">
<g>
	<path fill="#1D1B3A" d="M324.684,728.176l-23.484,7.875L196.067,422.625l23.479-7.877L324.684,728.176z"/>
	<polygon fill="#F5F6F6" points="359.193,441.245 92.563,532.251 0,249.291 266.622,158.286 	"/>
	<g>
		<path fill="#F4EDE1" d="M289.138,632.568c0-0.002,0-0.006,0-0.006c-0.645-1.821-1.173-3.621-1.388-5.354
			c-0.018-0.139-0.008-0.275,0.019-0.401c-0.583-0.345-1.05-0.56-1.208-0.439c-1.377,1.03-3.813-1.746-5.48-1.292
			c-1.371,0.375-2.464-1.032-3.74-1.644c-0.988-0.471-8.197-2.06-11.125-3.974c-0.215-0.015-0.436-0.021-0.65-0.053
			c-0.018,0.002-0.039-0.008-0.061-0.007c-1.01-0.048-1.963-0.312-2.893-0.665c-0.164-0.047-0.322-0.101-0.484-0.149
			c-0.558-0.103-1.117-0.22-1.662-0.384c-0.149,0.908-1.73,1.133-2.127,0.021c-0.143-0.4-0.28-0.803-0.419-1.205
			c-0.081-0.123-0.13-0.264-0.149-0.422c-1.668-4.824-3.124-9.619-4.264-14.588c-0.4-0.377-0.732-0.812-0.935-1.33
			c-5.728,1.843-10.818,4.68-13.354,9.057c-7.85,13.547,15.479,22.191,3.604,32.459c-4.468,3.863,11.299,6.145,9.893,10.533
			c-3.977,12.398,9.028,9.463,9.028,9.463s-1.173,11.539,3.512,16.273c4.69,4.73,18.716-7.915,18.716-7.915s0.107-0.017,0.262-0.034
			c0.373-1,0.758-1.993,1.13-2.99c0.159-1.291,0.354-2.563,0.468-3.842c-0.162-0.623-0.366-1.243-0.619-1.85
			c-0.057-0.142-0.1-0.276-0.148-0.412c-0.477-0.268-0.955-0.533-1.43-0.798c-0.76-0.02-1.38-0.929-0.912-1.611
			c0.4-0.588,0.823-1.155,1.241-1.729c0.026-0.086,0.045-0.172,0.099-0.258c0.697-1.098,0.969-1.494,1.475-2.107
			c0.449-0.853,0.717-1.725,0.817-2.676c-0.204-0.248-0.313-0.584-0.235-0.955c0.093-0.463,0.189-0.93,0.287-1.394
			c0.148-0.71,0.748-0.872,1.27-0.696c1.111-1.783,1.506-3.832,1.677-5.977c-0.538-1.568-1.521-3.482-1.146-4.977
			c0.17-0.676,0.713-1.526,1.312-2.434C289.392,634.727,289.262,633.646,289.138,632.568z"/>
		<path fill="#F4EDE1" d="M292.686,584.708c-5.251-1.796-14.596,10.734-14.596,10.734s-0.768,1.819-3.924,1.925
			c-4.465,4.588-10.141,9.132-12.062,15.022c0.414,0.299,0.689,0.532,1.106,0.966c0.071,0.074,0.112,0.155,0.159,0.234
			c1.303,0.991,2.904,1.771,4.274,2.467c0.222,0.029,0.442,0.066,0.667,0.096c3.525-0.602,8.924-0.707,10.428-0.918
			c0.336-0.446,0.771-0.817,1.301-1.067c0.642-0.302,1.297-0.563,1.979-0.759c0.011-0.003,2.121-1.017,2.134-1.02
			c2.037-1.151,18.847,52.348,18.934,52.743c0.142,0.433,0.274,0.866,0.41,1.298c0.175,0.51,0.353,1.019,0.501,1.535
			c0.01,0.015,0.023,0.029,0.03,0.049c0.087,0.173,0.156,0.35,0.237,0.524c2.719-0.187,5.584-0.347,8.518-0.462
			c15.295-0.6,17.673-3.746,17.673-3.746l11.789-20.692l-18.295-20.084C323.758,589.4,297.938,586.5,292.686,584.708z"/>
		<path fill="#1D1B3A" d="M335.955,669.465l-0.51-0.397l-1.033-0.78l-1.52-1.068l-1.965-1.236l-1.914-1.037l-1.854-0.839
			l-1.806-0.651l-1.764-0.475l-1.716-0.308l-1.675-0.149l-1.638-0.006l-1.593,0.124l-1.561,0.239l-1.521,0.336l-1.482,0.42
			l-2.166,0.733l-2.859,1.121l-2.877,1.183l-0.818,0.312c0.105,0.327,0.217,0.651,0.312,0.979c0.01,0.015,0.023,0.029,0.03,0.049
			c0.433,0.869,0.777,1.744,1.073,2.633l0.766-0.291l2.809-1.156l2.691-1.062l1.971-0.674l1.285-0.368l1.276-0.29l1.282-0.208
			l1.287-0.113l1.318-0.009l1.355,0.106l1.406,0.238l1.465,0.377l1.538,0.547l1.617,0.718l1.705,0.913l1.808,1.132l1.422,0.994
			l0.98,0.739l0.512,0.402c0.393,0.31,0.889,0.445,1.387,0.381c0.518-0.07,0.982-0.345,1.304-0.777
			c0.153-0.201,0.266-0.43,0.336-0.676C336.838,670.781,336.58,669.955,335.955,669.465z"/>
		<path fill="#1D1B3A" d="M354.49,644.165l-1.09-0.32l-2.08-0.63l-1.965-0.628l-1.86-0.633l-1.753-0.638l-1.658-0.645l-1.56-0.649
			l-1.466-0.659l-1.372-0.669l-1.281-0.679l-1.196-0.689l-1.115-0.704l-1.033-0.716l-0.961-0.736l-0.887-0.752l-0.814-0.767
			l-0.756-0.79l-0.689-0.809l-0.643-0.834l-0.584-0.863l-0.541-0.894l-0.498-0.933l-0.678-1.492l-0.771-2.123l-0.635-2.285
			l-0.53-2.5l-0.438-2.727l-0.191-1.434l-0.146-1.039l-0.38-2.129l-0.479-2.083l-0.575-2.008l-0.661-1.937l-0.746-1.861l-0.83-1.787
			l-0.896-1.715l-0.971-1.637l-1.026-1.568l-1.085-1.492l-1.14-1.42l-1.183-1.342l-1.227-1.277l-1.883-1.76l-2.619-2.109
			l-2.711-1.85l-2.748-1.575l-2.079-1.018l-1.386-0.591l-1.35-0.521l-1.338-0.454l-1.313-0.392l-1.29-0.327l-1.26-0.263
			l-1.228-0.196l-1.19-0.138l-1.153-0.072l-0.599-0.012c-0.496-0.01-0.978,0.179-1.346,0.531l-14.943,14.054l-0.193-0.109
			c-0.031-0.021-0.07-0.025-0.106-0.043c-1.914,2.92-4.221,5.507-6.565,8.087c-0.779,0.857-1.641,1.248-2.489,1.332
			c-0.093,0.32-0.246,0.607-0.448,0.873c-0.135,0.174-0.299,0.31-0.479,0.398c-0.124,0.189-0.234,0.352-0.335,0.498
			c-0.4,0.594-0.77,1.189-1.093,1.852c-0.219,0.388-0.545,0.522-0.869,0.519c-0.279,0.366-0.66,0.435-1.008,0.32
			c0.004,0.089,0.001,0.181,0.014,0.267c0.331,0.805,0.673,1.605,1.051,2.391c0.037,0.031,0.078,0.047,0.109,0.086
			c0.529,0.621,1.136,1.146,1.825,1.577c0.733,0.52,0.544,1.704-0.164,1.966c-0.285,0.427-0.817,0.662-1.353,0.301
			c-0.043-0.029-0.088-0.057-0.131-0.088c-1.255,0.967-2.734,0.508-3.104-1.551c0-0.009-0.002-0.018-0.005-0.025l-2.05,1.477
			c-0.52,0.09-0.971,0.354-1.271,0.738c-0.152,0.193-0.26,0.408-0.326,0.639c-0.218,0.783,0.125,1.653,0.847,2.156l0.478,0.306
			l0.752,0.37l0.863,0.333l0.997,0.333l1.14,0.337l1.271,0.351l1.393,0.369l3.898,0.992l3.414,0.879l3.527,0.957l3.505,1.039
			l2.522,0.835l1.583,0.574l1.489,0.591l1.368,0.607l1.229,0.607l1.062,0.605l0.877,0.582l0.671,0.537l0.462,0.451l0.285,0.339
			l0.207,0.313l0.117,0.34l-0.093,0.617l-0.224,0.485l-0.218,0.334l-0.296,0.366l-0.381,0.396l-0.463,0.418l-0.382,0.305
			l-0.282-0.187c-1.192,1.161-2.61,2.198-4.186,2.174l0.18,0.217l-1.387,0.369l-1.178,0.249l-1.234,0.193l-1.289,0.144l-1.312,0.096
			l-2.058,0.043l-2.885-0.119l-2.978-0.32l-3.025-0.516l-3.031-0.71l-2.996-0.896l-2.922-1.07l-2.808-1.234l-2.671-1.41
			l-1.886-1.161l-1.177-0.811l-1.115-0.842l-1.071-0.897l-0.525-0.471l-0.425-0.405l-0.956-1.037l-0.901-1.145l-0.831-1.232
			l-0.757-1.301l-0.659-1.36l-0.563-1.391l-0.457-1.41l-0.343-1.409l-0.218-1.389l-0.094-1.352l0.033-1.295l0.168-1.224l0.3-1.142
			l0.431-1.052l0.617-1.017l0.248-0.289l-0.038-0.042l0.214-0.175l0.002,0.005l0.012-0.016l0.305-0.188l0.508-0.265l0.639-0.296
			l0.759-0.319l0.859-0.339l0.952-0.349l1.586-0.553l2.363-0.767l2.568-0.781l2.707-0.777l0.884-0.24
			c-0.075-0.258-0.153-0.514-0.225-0.77c-0.989-0.558-1.773-1.455-2.028-2.594c-0.019-0.082-0.037-0.164-0.053-0.248l-0.021,0.005
			l-2.763,0.792l-2.629,0.799l-2.439,0.789l-1.676,0.582l-1.027,0.377l-0.941,0.371l-0.855,0.357l-0.766,0.352l-0.676,0.345
			l-0.588,0.349l-0.529,0.385l-0.35,0.324c-0.046,0.045-0.088,0.094-0.127,0.143l-0.422,0.528l-0.869,1.357l-0.69,1.533
			l-0.466,1.608l-0.268,1.66l-0.074,1.699l0.093,1.717l0.253,1.727l0.402,1.713l0.531,1.697l0.658,1.662l0.777,1.614l0.883,1.557
			l0.986,1.483l1.083,1.398l1.181,1.299l0.721,0.704l0.538,0.483l1.202,1.008l1.237,0.943l-0.446,0.209
			c-0.255,0.118-0.468,0.271-0.639,0.457l-0.467,0.505l-0.896,1.068l-0.788,1.075l-0.657,1.065l-0.523,1.055l-0.393,1.048
			l-0.258,1.047l-0.125,1.043l0.014,1.034l0.16,1.021l0.303,0.986l0.441,0.949l0.562,0.895l0.671,0.834l0.763,0.771l0.848,0.713
			l0.916,0.654l0.984,0.601l1.038,0.552l1.091,0.505l1.688,0.665l0.287,0.161l-0.151,0.293c-0.034,0.066-0.069,0.132-0.093,0.204
			l-0.141,0.43l-0.264,0.924l-0.208,0.917l-0.144,0.888l-0.079,0.862l-0.012,0.839l0.051,0.812l0.118,0.782l0.291,1.077l0.61,1.354
			l0.898,1.262l1.126,1.078l1.316,0.881l1.443,0.68l1.539,0.496l1.619,0.34l1.143,0.135l-0.471,0.438
			c-0.252,0.239-0.434,0.538-0.523,0.858c-0.054,0.191-0.075,0.393-0.064,0.591l0.053,0.78l0.23,1.621l0.408,1.545l0.582,1.413
			l0.752,1.277l0.921,1.132l1.069,0.971l1.203,0.799l1.293,0.618l1.361,0.44l1.4,0.277l1.422,0.123l1.434-0.016l1.43-0.141
			l1.424-0.261l1.401-0.366l1.382-0.47l1.348-0.565l1.305-0.656l1.259-0.742l1.192-0.821l1.126-0.899l1.046-0.977l0.364-0.399
			l0.911,0.179c0.816-1.203,1.67-2.379,2.541-3.543c0.002-0.018,0.008-0.036,0.014-0.056l-0.995-0.135l0.315-0.649l0.463-1.313
			l0.289-1.321c-0.123-1.464-0.447-2.918-1.031-4.318c-0.307-0.741-0.477-1.47-0.484-2.177c-0.344-0.192-0.738-0.312-1.152-0.317
			l-0.812-0.012l1.511-1.245l1.162-1.122l1.021-1.181l0.66-0.95c-0.557-0.964-0.765-2.111-0.368-3.191
			c0.354-0.961,0.65-1.57,1.36-2.324c0.392-0.413,0.972-0.779,1.563-1.021c-0.188-1.681,0.612-3.059,1.801-3.888
			c-1.012-0.805-1.688-2.025-1.622-3.381c-0.001-0.016-0.001-0.033-0.003-0.049c-0.098-0.195-0.191-0.395-0.299-0.586
			c-1.146-2.037-0.409-4.692,1.626-5.843c0.491-0.274,1.02-0.438,1.552-0.503l-1.012-0.279l1.193-1.606l-0.361-1.374l-0.701-1.252
			l-0.94-1.109l-1.12-0.975l-1.258-0.877l-1.381-0.804l-1.479-0.747l-1.576-0.701l-1.654-0.662l-0.361-0.132
			c-0.273,0.099-0.546,0.202-0.822,0.278c-1.371,0.374-2.636,0.241-3.912-0.37c-0.795-0.379-1.491-1.17-1.9-2.063l-1.032-0.31
			l-3.642-0.986l-3.479-0.897l-1.844-0.468l0.632-0.37c0.434-0.252,0.744-0.646,0.874-1.108c0.076-0.284,0.085-0.579,0.023-0.877
			v-0.429l1.721,0.386l1.234,0.208l1.191,0.14l1.158,0.068l1.121,0.007l1.09-0.058l1.045-0.114l0.946-0.171
			c0.583-0.597,1.331-1.025,2.259-1.155c0.336-0.446,0.771-0.817,1.301-1.067c0.642-0.302,1.297-0.563,1.979-0.759
			c0.011-0.003,0.015-0.004,0.026-0.006c0.644-0.363,1.351-0.519,2.051-0.523l0.841-0.665l1.178-1.068l1.053-1.077l0.941-1.055
			l0.834-1.001l1.52-1.892l0.229,1.1l0.142,0.74l0.142,0.846l0.147,0.955l0.15,1.059l0.158,1.17l0.156,1.284l0.166,1.396
			l0.348,3.146l0.283,2.68c0.054,0.535,0.309,1.009,0.721,1.332c0.395,0.313,0.885,0.45,1.383,0.389
			c0.783-0.099,1.433-0.672,1.651-1.456c0.067-0.249,0.087-0.505,0.063-0.763l-0.463-4.352l-0.177-1.534l-0.167-1.424l-0.163-1.312
			l-0.161-1.211l-0.154-1.107l-0.16-1.012l-0.156-0.925l-0.158-0.839l-0.162-0.756l-0.173-0.692l-0.187-0.626l-0.203-0.576
			l-0.268-0.581l-0.641-0.886l-1.318-0.749l-1.363,0.065l-0.865,0.42l-0.672,0.553l-0.606,0.634l-0.605,0.716l-1.323,1.652
			l-0.747,0.901l-0.814,0.915l-0.882,0.914l-0.963,0.889l-1.042,0.84l-1.134,0.771l-1.229,0.678l-1.339,0.571l-1.485,0.448
			l-1.213,0.232l-0.836,0.098l-0.871,0.05l-0.913,0.003l-0.959-0.052l-1.002-0.112l-1.044-0.171l-1.092-0.238l-1.141-0.31
			l-1.189-0.386l-1.239-0.46l-1.114-0.467l26.766-25.186l0.633,0.037l1.015,0.111l1.065,0.164l1.109,0.229l1.143,0.287l1.178,0.345
			l1.201,0.406l1.221,0.469l1.219,0.52l1.859,0.893l2.501,1.426l2.468,1.666l2.417,1.935l1.741,1.616l1.113,1.151l1.074,1.21
			l1.028,1.277l0.979,1.34l0.931,1.406l0.874,1.47l0.807,1.536l0.747,1.604l0.677,1.67l0.604,1.738l0.521,1.807l0.44,1.879
			l0.354,1.979l0.147,1.053l0.206,1.538l0.481,2.922l0.593,2.748l0.73,2.589l0.894,2.414l0.788,1.704l0.599,1.108l0.654,1.071
			l0.714,1.031l0.773,1.002l0.832,0.964l0.898,0.928l0.963,0.896l1.029,0.864l1.096,0.832l1.17,0.807l1.237,0.779l1.317,0.752
			l1.393,0.738l1.472,0.713l1.56,0.699l1.641,0.684l1.732,0.672l1.823,0.66l1.923,0.652l2.019,0.646l2.116,0.643l1.09,0.315
			c0.488,0.142,1.008,0.079,1.457-0.179c0.452-0.258,0.788-0.686,0.938-1.196l0.004-0.023
			C356.072,645.541,355.494,644.455,354.49,644.165z M258.439,616.73l-0.488-0.273l0.27-0.533l0.126,0.06l0.21,0.106L258.439,616.73
			z M281.531,660.784c-0.091,0.345-0.082,0.689,0.023,1.011l0.148,0.433l0.226,0.979l0.083,0.96l-0.051,0.952l-0.178,0.948
			l-0.303,0.929l-0.422,0.921l-0.537,0.895l-0.341,0.458c-0.116,0.112-0.217,0.249-0.347,0.459l-0.687,0.772l-0.819,0.783
			l-0.893,0.727l-0.957,0.673l-1.007,0.604l-1.042,0.535l-1.07,0.456l-1.074,0.38l-1.074,0.294l-1.057,0.21l-1.021,0.115
			l-0.975,0.031l-0.918-0.056l-0.85-0.135l-0.771-0.215l-0.71-0.294l-0.646-0.379l-0.594-0.477l-0.543-0.602l-0.483-0.745
			l-0.409-0.911l-0.318-1.09l-0.203-1.326l-0.053-0.802c-0.029-0.449-0.225-0.879-0.567-1.243l-0.458-0.484l1.754-0.045l1.802-0.154
			l1.829-0.252l1.838-0.346l1.84-0.438l1.827-0.518l1.81-0.602l1.769-0.672l1.726-0.746l1.658-0.816l1.593-0.879l1.64-1.027
			L281.531,660.784z M282.205,654.111l-0.937,0.918l-1.073,0.898l-1.199,0.865l-1.309,0.828l-1.402,0.779l-1.48,0.736l-1.543,0.671
			l-1.593,0.61l-1.622,0.545l-1.637,0.467l-1.638,0.394l-1.617,0.312l-1.583,0.225l-1.533,0.138l-1.457,0.046l-1.369-0.041
			l-1.258-0.129l-1.13-0.212l-0.981-0.285l-0.834-0.345l-0.689-0.393l-0.569-0.455l-0.471-0.547l-0.388-0.723l-0.195-0.654
			l-0.084-0.462l-0.045-0.513l-0.002-0.562l0.047-0.613l0.1-0.664l0.154-0.705l0.226-0.799l0.168-0.511
			c0.03-0.114,0.046-0.227,0.058-0.342l0.033-0.347l0.733,0.178l2.741,0.504l2.838,0.375l2.9,0.251l2.932,0.126l2.937,0.002
			l2.904-0.115l2.845-0.236l2.748-0.354l2.631-0.474l2.473-0.599l1.605-0.499L282.205,654.111z M287.64,642.407l0.173,0.485
			l0.098,0.44l0.027,0.411l-0.035,0.4l-0.106,0.404l-0.177,0.4l-0.23,0.381l-0.537,0.619l-1.077,0.856l-1.421,0.802l-1.724,0.729
			l-1.99,0.643l-2.209,0.543l-2.386,0.441l-2.534,0.331l-2.633,0.222l-2.702,0.113l-2.733-0.002l-2.718-0.111l-2.674-0.222
			l-2.584-0.336l-2.461-0.444l-2.293-0.545l-2.115-0.654l-1.434-0.557l-0.854-0.388l-0.777-0.405l-0.703-0.414l-0.617-0.424
			l-0.535-0.428l-0.452-0.427l-0.378-0.431l-0.301-0.432l-0.236-0.439l-0.174-0.459l-0.113-0.492l-0.035-0.538l0.04-0.595
			l0.132-0.631l0.255-0.726l0.362-0.763l0.491-0.824l0.625-0.87l0.782-0.942l0.476-0.514c0.192-0.21,0.329-0.455,0.407-0.729
			c0.021-0.081,0.037-0.162,0.049-0.244l0.062-0.453l0.523,0.323l2.943,1.568l3.107,1.382l3.211,1.188l3.281,0.988l3.311,0.786
			l3.309,0.576l3.273,0.365l3.205,0.144l2.358-0.04l1.546-0.104l1.48-0.16l1.443-0.227l1.396-0.283l1.352-0.354l1.294-0.42
			l1.321-0.529l0.199-0.095l0.248,0.272l0.369,0.478l0.154,0.214l0.375,0.603L287.64,642.407z M291.305,605.203l0.252-0.166
			l0.387,0.448l-0.201,0.225l-1.252,0.308L291.305,605.203z"/>
	</g>
	<g>
		<path fill="#D9D8DF" d="M605.934,697.711c-69.441,20.637-283.585-23.094-283.585-23.094l10.34-48.562
			c0,0,192.616,28.869,299.585,11.33"/>
		<g>
			<path fill="#1D1B3A" d="M605.399,695.772c-13.257,3.878-27.265,4.853-41.004,5.292c-17.766,0.569-35.572-0.22-53.295-1.453
				c-38.105-2.652-76.041-7.746-113.758-13.7c-24.891-3.931-49.766-8.193-74.46-13.232c0.468,0.824,0.937,1.648,1.404,2.473
				c3.446-16.188,6.894-32.375,10.34-48.562c-0.824,0.468-1.648,0.937-2.473,1.404c59.484,8.903,119.814,14.38,179.909,16.438
				c40.168,1.376,80.97,1.337,120.744-5.108c2.555-0.414,1.467-4.288-1.068-3.877c-42.535,6.893-86.295,6.362-129.219,4.606
				c-40.594-1.661-81.115-5.189-121.476-9.8c-15.963-1.823-31.931-3.758-47.822-6.137c-1.03-0.154-2.225,0.241-2.473,1.404
				c-3.446,16.188-6.894,32.375-10.34,48.562c-0.216,1.014,0.285,2.244,1.404,2.473c51.794,10.568,104.303,18.733,156.87,24.222
				c24.156,2.521,48.439,4.367,72.738,4.475c18.275,0.081,37.38-0.436,55.045-5.603
				C608.951,698.923,607.894,695.043,605.399,695.772L605.399,695.772z"/>
		</g>
	</g>
	<g>
		<path fill="#1D1B3A" stroke="#1D1B3A" stroke-width="2.2689" stroke-miterlimit="10" d="M104.54,322.9l-1.155-3.539l27.979-9.152
			l1.155,3.538l-11.575,3.786l10.448,31.934l-4.521,1.478l-10.445-31.933L104.54,322.9z"/>
		<path fill="#1D1B3A" stroke="#1D1B3A" stroke-width="2.2689" stroke-miterlimit="10" d="M159.924,340.13l-3.55-10.854
			l-13.256,4.336l-0.917,12.315l-4.721,1.547l3.525-40.419l28.791-9.424l1.156,3.541l-16.959,5.546l3.967,12.113l14.215-4.65
			l1.156,3.538l-14.215,4.65l4.168,12.742l18.229-5.963l1.158,3.54L159.924,340.13z M143.416,329.706l11.832-3.869l-5.771-17.639
			l-4.571,1.496L143.416,329.706z"/>
		<path fill="#1D1B3A" stroke="#1D1B3A" stroke-width="2.2689" stroke-miterlimit="10" d="M177.814,295.012l4.213-1.381
			l28.645,21.745l-9.197-28.106l4.213-1.38l11.608,35.467l-4.214,1.383l-28.629-21.693l9.181,28.056l-4.214,1.378L177.814,295.012z"
			/>
		<path fill="#1D1B3A" stroke="#1D1B3A" stroke-width="2.2689" stroke-miterlimit="10" d="M234.638,292.082l21.039,16.722
			l-5.688,1.859l-17.369-14.271l-4.688,9.9l3.425,10.468l-4.52,1.477l-11.605-35.469l4.521-1.479l6.503,19.868l11.268-25.683
			l5.889-1.927L234.638,292.082z"/>
		<path fill="#1D1B3A" stroke="#1D1B3A" stroke-width="2.2689" stroke-miterlimit="10" d="M96.383,424.389l4.676,14.294
			l-4.518,1.479l-11.605-35.47l11.018-3.605c9.799-3.205,14.611-0.006,16.529,5.854c2.172,6.642-0.867,12.465-10.361,15.569
			L96.383,424.389z M95.21,420.803l5.735-1.878c6.805-2.225,8.399-6.288,7.148-10.115c-1.237-3.78-4.482-6.313-11.746-3.937
			l-5.736,1.876L95.21,420.803z"/>
		<path fill="#1D1B3A" stroke="#1D1B3A" stroke-width="2.2689" stroke-miterlimit="10" d="M143.106,425.464
			c-10.614,3.471-20.456-2.213-23.769-12.341c-3.332-10.176,1.23-20.626,11.844-24.1c10.662-3.489,20.521,2.244,23.854,12.421
			C158.346,411.572,153.768,421.974,143.106,425.464z M132.339,392.562c-8.274,2.706-11.069,11.185-8.483,19.084
			c2.587,7.896,9.815,12.988,18.094,10.28c8.275-2.709,11.146-11.104,8.562-19.002C147.93,395.024,140.617,389.852,132.339,392.562z
			"/>
		<path fill="#1D1B3A" stroke="#1D1B3A" stroke-width="2.2689" stroke-miterlimit="10" d="M178.084,414.019
			c-5.635,1.843-10.803,1.172-14.824-1.159l3.117-3.7c2.411,1.518,6.674,2.535,10.939,1.139c3.811-1.243,6.611-5.057,5.373-8.837
			c-2.773-8.479-21.473,0.857-25.23-10.629c-1.793-5.474,1.137-10.777,8.35-13.138c4.315-1.411,9.568-0.984,12.846,0.785
			l-3.297,3.496c-1.451-0.655-4.693-1.635-8.498-0.387c-3.05,0.998-6.167,3.844-5.137,6.989c2.809,8.576,21.426-1,25.326,10.92
			C189.11,405.799,184.786,411.825,178.084,414.019z"/>
		<path fill="#1D1B3A" stroke="#1D1B3A" stroke-width="2.2689" stroke-miterlimit="10" d="M201.431,405.844l-4.517,1.479
			l-11.606-35.47l4.519-1.479L201.431,405.844z"/>
		<path fill="#1D1B3A" stroke="#1D1B3A" stroke-width="2.2689" stroke-miterlimit="10" d="M196.773,372.017l-1.16-3.537
			l27.977-9.154l1.154,3.538l-11.571,3.787l10.445,31.933l-4.516,1.479l-10.452-31.934L196.773,372.017z"/>
		<path fill="#1D1B3A" stroke="#1D1B3A" stroke-width="2.2689" stroke-miterlimit="10" d="M245.805,391.326l-4.52,1.479
			l-11.603-35.474l4.519-1.477L245.805,391.326z"/>
		<path fill="#1D1B3A" stroke="#1D1B3A" stroke-width="2.2689" stroke-miterlimit="10" d="M269.922,383.436l-5.129,1.677
			l-24.504-31.249l4.979-1.629l20.6,27.055l0.42-33.934l4.771-1.56L269.922,383.436z"/>
		<path fill="#1D1B3A" stroke="#1D1B3A" stroke-width="2.2689" stroke-miterlimit="10" d="M273.939,346.768l-1.154-3.537
			l27.975-9.151l1.156,3.536l-11.576,3.789l10.448,31.931l-4.519,1.478l-10.445-31.931L273.939,346.768z"/>
	</g>
</g>
<g>
	<g>
		<path fill="#1D1B3A" d="M423.133,559.006l-24.754,0.834l-11.145-330.4l24.754-0.837L423.133,559.006z"/>
		
			<rect x="262.096" y="4.341" transform="matrix(0.9995 -0.0326 0.0326 0.9995 -4.6591 13.0512)" fill="#CACBD5" width="270.562" height="289.746"/>
		<g>
			<path fill="#F4EDE1" d="M416.404,457.227c0-0.002,0.001-0.006,0.001-0.006c-0.097-1.929-0.089-3.805,0.2-5.524
				c0.023-0.139,0.071-0.266,0.133-0.379c-0.462-0.498-0.845-0.836-1.032-0.768c-1.613,0.592-3.156-2.764-4.881-2.804
				c-1.424-0.033-2.067-1.694-3.117-2.645c-0.812-0.736-7.265-4.317-9.522-6.988c-0.204-0.077-0.412-0.147-0.609-0.237
				c-0.017-0.003-0.036-0.019-0.055-0.022c-0.955-0.336-1.793-0.861-2.584-1.468c-0.141-0.09-0.279-0.187-0.418-0.279
				c-0.508-0.258-1.007-0.531-1.484-0.844c-0.404,0.827-1.982,0.591-2.043-0.585c-0.025-0.427-0.041-0.852-0.061-1.277
				c-0.039-0.141-0.049-0.29-0.02-0.446c-0.224-5.1-0.242-10.11,0.082-15.197c-0.273-0.475-0.467-0.988-0.514-1.543
				c-6.014,0.129-11.703,1.393-15.387,4.861c-11.396,10.738,8.488,25.689-5.826,32.135c-5.387,2.427,9.07,9.117,6.466,12.922
				c-7.353,10.743,5.948,11.647,5.948,11.647s-4.424,10.725-1.285,16.6c3.143,5.873,20.197-2.234,20.197-2.234
				s0.106,0.016,0.26,0.041c0.643-0.852,1.295-1.693,1.937-2.541c0.522-1.192,1.071-2.356,1.548-3.549
				c0.023-0.643,0.005-1.295-0.064-1.949c-0.015-0.15-0.018-0.294-0.024-0.438c-0.382-0.392-0.763-0.78-1.146-1.172
				c-0.721-0.235-1.055-1.285-0.411-1.806c0.553-0.445,1.12-0.871,1.685-1.301c0.049-0.076,0.092-0.152,0.169-0.219
				c0.983-0.852,1.354-1.156,2.015-1.6c0.674-0.688,1.178-1.447,1.548-2.33c-0.125-0.295-0.135-0.648,0.044-0.981
				c0.226-0.419,0.452-0.836,0.676-1.253c0.346-0.639,0.966-0.624,1.418-0.306c1.574-1.391,2.537-3.242,3.316-5.247
				c-0.068-1.656-0.463-3.771,0.323-5.097c0.357-0.6,1.12-1.258,1.952-1.956C416.029,459.369,416.213,458.297,416.404,457.227z"/>
			<path fill="#F4EDE1" d="M433.486,412.378c-4.52-3.22-17.057,6.115-17.057,6.115s-1.253,1.523-4.311,0.723
				c-5.59,3.12-12.327,5.852-15.854,10.945c0.311,0.405,0.508,0.708,0.785,1.243c0.049,0.092,0.062,0.181,0.082,0.271
				c0.968,1.322,2.28,2.524,3.395,3.585c0.203,0.092,0.404,0.191,0.609,0.281c3.551,0.434,8.755,1.876,10.256,2.104
				c0.451-0.333,0.974-0.563,1.555-0.651c0.699-0.106,1.402-0.169,2.111-0.161c0.01-0.001,2.324-0.368,2.336-0.368
				c2.279-0.52,3.096,55.552,3.064,55.955c0.012,0.455,0.018,0.909,0.023,1.362c0.021,0.537,0.044,1.076,0.04,1.614
				c0.006,0.017,0.013,0.034,0.015,0.055c0.033,0.191,0.049,0.38,0.076,0.57c2.658,0.599,5.453,1.265,8.297,1.992
				c14.828,3.799,18.007,1.463,18.007,1.463l17.21-16.458l-11.787-24.477C461.92,425.76,438.006,415.598,433.486,412.378z"/>
			<path fill="#1D1B3A" d="M450.719,505.969l-0.375-0.527l-0.768-1.043l-1.15-1.457l-1.529-1.746l-1.537-1.541l-1.538-1.335
				l-1.546-1.14l-1.55-0.96l-1.558-0.785l-1.563-0.622l-1.565-0.475l-1.564-0.335l-1.562-0.218l-1.553-0.112l-1.543-0.022
				l-2.285,0.084l-3.064,0.258l-3.092,0.31l-0.871,0.066c0.004,0.343,0.021,0.685,0.019,1.027c0.006,0.017,0.013,0.034,0.015,0.055
				c0.166,0.958,0.246,1.895,0.275,2.831l0.816-0.062l3.023-0.303l2.883-0.248l2.081-0.084l1.336,0.018l1.306,0.084l1.287,0.168
				l1.269,0.26l1.265,0.368l1.268,0.489l1.28,0.629l1.295,0.782l1.319,0.962l1.344,1.151l1.373,1.362l1.409,1.602l1.077,1.359
				l0.728,0.988l0.377,0.532c0.288,0.41,0.724,0.68,1.22,0.761c0.516,0.082,1.041-0.049,1.471-0.371
				c0.205-0.15,0.379-0.338,0.516-0.553C451.189,507.482,451.178,506.616,450.719,505.969z"/>
			<path fill="#1D1B3A" d="M475.713,487.023l-0.954-0.619l-1.813-1.197l-1.703-1.164l-1.599-1.139l-1.501-1.111l-1.405-1.091
				l-1.308-1.068l-1.213-1.05l-1.124-1.033l-1.034-1.018l-0.951-1.004l-0.865-0.992l-0.789-0.983l-0.708-0.978l-0.635-0.975
				l-0.562-0.969l-0.498-0.971l-0.432-0.973l-0.375-0.983l-0.314-0.995l-0.262-1.011l-0.21-1.035l-0.227-1.625l-0.13-2.255
				l0.046-2.371l0.206-2.548l0.356-2.736l0.229-1.429l0.155-1.039l0.247-2.148l0.136-2.132l0.021-2.089l-0.078-2.044l-0.185-1.999
				l-0.282-1.947l-0.37-1.899l-0.46-1.848l-0.534-1.796l-0.616-1.739l-0.684-1.687l-0.752-1.626l-0.808-1.573l-1.303-2.225
				l-1.905-2.771l-2.07-2.547l-2.182-2.297l-1.701-1.567l-1.16-0.963l-1.144-0.886l-1.153-0.816l-1.147-0.752l-1.142-0.683
				l-1.133-0.611l-1.117-0.54l-1.104-0.473l-1.083-0.398l-0.57-0.182c-0.474-0.15-0.988-0.107-1.443,0.123l-18.336,9.198
				l-0.152-0.162c-0.026-0.029-0.062-0.045-0.09-0.072c-2.672,2.251-5.621,4.071-8.604,5.873c-0.991,0.599-1.929,0.728-2.767,0.566
				c-0.18,0.278-0.409,0.512-0.678,0.707c-0.18,0.129-0.375,0.211-0.573,0.245c-0.175,0.147-0.324,0.271-0.464,0.381
				c-0.553,0.454-1.077,0.921-1.576,1.463c-0.32,0.308-0.671,0.345-0.98,0.247c-0.375,0.271-0.758,0.229-1.059,0.021
				c-0.023,0.085-0.051,0.172-0.062,0.259c0.086,0.866,0.184,1.73,0.324,2.59c0.024,0.041,0.06,0.069,0.078,0.115
				c0.33,0.746,0.764,1.422,1.299,2.033c0.554,0.707,0.033,1.787-0.718,1.837c-0.398,0.326-0.976,0.399-1.384-0.1
				c-0.032-0.04-0.066-0.08-0.1-0.12c-1.479,0.568-2.766-0.296-2.53-2.375c0.002-0.008,0.003-0.017,0.002-0.024l-2.388,0.828
				c-0.522-0.062-1.031,0.062-1.43,0.346c-0.201,0.141-0.363,0.313-0.492,0.517c-0.435,0.689-0.354,1.621,0.195,2.309l0.368,0.429
				l0.613,0.57l0.733,0.566l0.861,0.603l0.995,0.65l1.118,0.7l1.229,0.751l3.451,2.065l3.021,1.819l3.104,1.924l3.063,1.999
				l2.179,1.52l1.354,1.005l1.258,0.991l1.139,0.972l1.004,0.934l0.846,0.886l0.674,0.81l0.488,0.706l0.313,0.562l0.177,0.409
				l0.109,0.358l0.016,0.359l-0.267,0.562l-0.354,0.402l-0.304,0.26l-0.389,0.266l-0.477,0.27l-0.562,0.269l-0.453,0.184
				l-0.216-0.26c-1.476,0.771-3.133,1.359-4.636,0.886l0.108,0.258l-1.431-0.041l-1.201-0.1l-1.238-0.165l-1.275-0.229l-1.283-0.286
				l-1.986-0.546l-2.731-0.94l-2.761-1.158l-2.75-1.361l-2.703-1.546l-2.615-1.713l-2.494-1.861l-2.336-1.986l-2.158-2.113
				l-1.475-1.652l-0.896-1.112l-0.828-1.127l-0.771-1.165l-0.367-0.602l-0.292-0.511l-0.622-1.266l-0.535-1.355l-0.445-1.419
				l-0.35-1.463l-0.246-1.491l-0.143-1.494l-0.033-1.481l0.075-1.448l0.187-1.394l0.295-1.321l0.404-1.231l0.512-1.124l0.611-1.009
				l0.716-0.886l0.884-0.797l0.317-0.207l-0.023-0.051l0.253-0.106v0.005l0.018-0.011l0.346-0.093l0.562-0.109l0.696-0.1
				l0.817-0.091l0.923-0.076l1.011-0.064l1.68-0.075l2.482-0.06l2.684-0.014l2.814,0.029l0.918,0.021
				c0.003-0.267-0.002-0.534,0.006-0.8c-0.791-0.817-1.287-1.9-1.201-3.066c0.006-0.084,0.012-0.168,0.018-0.253l-0.02-0.001
				l-2.875-0.03l-2.749,0.015l-2.563,0.058l-1.77,0.079l-1.094,0.069l-1.008,0.085l-0.922,0.098l-0.835,0.118l-0.745,0.137
				l-0.664,0.166l-0.616,0.218l-0.427,0.21c-0.059,0.031-0.111,0.063-0.164,0.101l-0.555,0.386l-1.221,1.053l-1.1,1.271
				l-0.908,1.408l-0.728,1.515l-0.56,1.605l-0.4,1.674l-0.25,1.725l-0.108,1.758l0.026,1.778l0.157,1.779l0.28,1.771l0.402,1.744
				l0.521,1.704l0.639,1.647l0.758,1.584l0.49,0.882l0.379,0.617l0.861,1.309l0.918,1.257l-0.489,0.073
				c-0.276,0.039-0.524,0.126-0.742,0.255l-0.592,0.351l-1.165,0.767l-1.062,0.807l-0.932,0.833l-0.805,0.86l-0.677,0.893
				l-0.549,0.928l-0.416,0.964l-0.28,0.996l-0.139,1.023l0.007,1.032l0.151,1.035l0.284,1.017l0.404,0.993l0.511,0.957l0.607,0.926
				l0.69,0.889l0.771,0.856l0.838,0.825l0.901,0.796l1.427,1.119l0.228,0.237l-0.228,0.237c-0.051,0.054-0.104,0.107-0.147,0.169
				l-0.259,0.373l-0.516,0.808l-0.461,0.82l-0.393,0.809l-0.32,0.806l-0.253,0.798l-0.183,0.794l-0.111,0.784l-0.031,1.116
				l0.201,1.472l0.499,1.465l0.772,1.356l1.008,1.219l1.188,1.065l1.335,0.915l1.453,0.788l1.059,0.455l-0.576,0.286
				c-0.313,0.158-0.57,0.391-0.749,0.672c-0.106,0.169-0.184,0.355-0.229,0.549l-0.174,0.763l-0.242,1.619l-0.052,1.597l0.154,1.52
				l0.356,1.44l0.559,1.349l0.746,1.236l0.924,1.107l1.063,0.963l1.179,0.812l1.262,0.666l1.328,0.524l1.379,0.395l1.41,0.273
				l1.438,0.158l1.449,0.049l1.458-0.055l1.453-0.156l1.438-0.256l1.416-0.352l1.378-0.446l1.337-0.54l1.281-0.637l0.463-0.279
				l0.821,0.432c1.126-0.918,2.282-1.802,3.449-2.666c0.007-0.018,0.019-0.034,0.026-0.051l-0.913-0.414l0.489-0.532l0.819-1.127
				l0.655-1.184c0.3-1.438,0.404-2.923,0.246-4.433c-0.082-0.797-0.037-1.545,0.156-2.225c-0.272-0.283-0.617-0.509-1.012-0.634
				l-0.776-0.242l1.804-0.761l1.436-0.742l1.315-0.841l0.904-0.723c-0.261-1.081-0.13-2.242,0.559-3.163
				c0.614-0.82,1.074-1.318,1.97-1.838c0.492-0.284,1.154-0.469,1.787-0.531c0.303-1.665,1.464-2.756,2.84-3.21
				c-0.74-1.062-1.037-2.425-0.589-3.705c0.004-0.015,0.007-0.03,0.012-0.047c-0.04-0.214-0.071-0.432-0.118-0.646
				c-0.518-2.279,0.948-4.613,3.229-5.133c0.548-0.124,1.101-0.129,1.628-0.04l-0.889-0.557l1.604-1.199l0.045-1.419l-0.312-1.4
				l-0.587-1.332l-0.794-1.255l-0.954-1.2l-1.09-1.163l-1.205-1.139l-1.311-1.121l-1.396-1.109l-0.31-0.229
				c-0.29,0.015-0.581,0.037-0.865,0.03c-1.424-0.032-2.597-0.521-3.646-1.471c-0.651-0.592-1.094-1.55-1.229-2.523l-0.902-0.59
				l-3.205-1.987l-3.077-1.854l-1.634-0.975l0.711-0.174c0.488-0.118,0.898-0.407,1.154-0.813c0.154-0.25,0.247-0.53,0.273-0.834
				l0.122-0.41l1.54,0.863l1.123,0.55l1.104,0.475l1.088,0.396l1.074,0.327l1.058,0.258l1.035,0.189l0.958,0.105
				c0.729-0.406,1.567-0.603,2.492-0.461c0.451-0.333,0.974-0.563,1.555-0.651c0.699-0.106,1.402-0.169,2.111-0.161
				c0.01-0.001,0.015,0,0.025,0.001c0.723-0.164,1.443-0.111,2.115,0.087l0.998-0.397l1.434-0.688l1.316-0.731l1.202-0.742
				l1.086-0.721l1.995-1.379l-0.094,1.12l-0.074,0.749l-0.105,0.853l-0.133,0.958l-0.158,1.056l-0.185,1.167l-0.214,1.274
				l-0.242,1.385l-0.564,3.115l-0.498,2.649c-0.1,0.527,0.01,1.055,0.311,1.481c0.287,0.414,0.721,0.687,1.217,0.768
				c0.779,0.129,1.562-0.233,1.995-0.923c0.138-0.22,0.231-0.459,0.279-0.713l0.8-4.303l0.271-1.52l0.246-1.411l0.219-1.305
				l0.192-1.206l0.167-1.104l0.139-1.017l0.113-0.93l0.087-0.85l0.062-0.773l0.031-0.71l0.002-0.655l-0.031-0.609l-0.089-0.634
				l-0.363-1.031l-1.046-1.094l-1.326-0.329l-0.949,0.156l-0.804,0.338l-0.76,0.433l-0.785,0.515l-1.743,1.205l-0.973,0.648
				l-1.041,0.646l-1.105,0.624l-1.178,0.577l-1.238,0.505l-1.307,0.415l-1.373,0.299l-1.445,0.165l-1.551,0.005l-1.229-0.125
				l-0.828-0.144l-0.852-0.201l-0.874-0.26l-0.903-0.323l-0.928-0.393l-0.951-0.465l-0.979-0.54l-1.005-0.622l-1.031-0.709
				l-1.055-0.795l-0.936-0.769l32.852-16.479l0.596,0.215l0.939,0.396l0.975,0.465l0.995,0.534l1.015,0.604l1.028,0.666l1.036,0.734
				l1.037,0.796l1.02,0.848l1.525,1.388l1.989,2.079l1.889,2.304l1.762,2.543l1.21,2.048l0.735,1.42l0.682,1.469l0.622,1.516
				l0.557,1.564l0.488,1.614l0.418,1.659l0.334,1.702l0.257,1.75l0.172,1.793l0.08,1.84l-0.015,1.88l-0.117,1.927l-0.225,1.995
				l-0.16,1.052l-0.241,1.533l-0.375,2.938l-0.219,2.803l-0.04,2.689l0.168,2.567l0.268,1.86l0.258,1.232l0.32,1.213l0.388,1.194
				l0.455,1.179l0.522,1.162l0.594,1.146l0.67,1.135l0.738,1.121l0.812,1.111l0.89,1.105l0.964,1.102l1.046,1.1l1.124,1.104
				l1.205,1.104l1.295,1.115l1.378,1.124l1.468,1.139l1.559,1.154l1.656,1.176l1.748,1.196l1.844,1.22l0.956,0.615
				c0.426,0.274,0.942,0.363,1.446,0.244c0.51-0.119,0.949-0.432,1.238-0.879l0.014-0.021
				C476.834,488.794,476.591,487.588,475.713,487.023z M391.514,433.273l-0.389-0.4l0.409-0.434l0.105,0.094l0.169,0.161
				L391.514,433.273z M401.049,482.092c-0.186,0.305-0.275,0.638-0.269,0.976l0.019,0.457l-0.062,1l-0.194,0.946l-0.32,0.897
				l-0.442,0.856l-0.557,0.806l-0.667,0.759l-0.769,0.705l-0.458,0.34c-0.143,0.078-0.282,0.18-0.466,0.344l-0.877,0.543
				l-1.008,0.515l-1.065,0.442l-1.11,0.371l-1.138,0.291l-1.151,0.215l-1.154,0.132l-1.141,0.058l-1.109-0.025l-1.073-0.103
				l-1.014-0.181l-0.943-0.248l-0.862-0.316l-0.773-0.371l-0.679-0.428l-0.597-0.484l-0.51-0.548l-0.434-0.626l-0.348-0.732
				l-0.25-0.852l-0.134-0.99l0.008-1.135l0.184-1.33l0.179-0.781c0.101-0.44,0.037-0.907-0.188-1.355l-0.3-0.596l1.693,0.459
				l1.771,0.367l1.824,0.281l1.861,0.195l1.889,0.106l1.898,0.025l1.904-0.058l1.888-0.14l1.866-0.222l1.822-0.307l1.775-0.388
				l1.869-0.516L401.049,482.092z M403.599,475.891l-1.159,0.612l-1.283,0.553l-1.396,0.485l-1.492,0.42l-1.566,0.348l-1.628,0.279
				l-1.671,0.203l-1.701,0.131l-1.71,0.057l-1.702-0.02l-1.68-0.092l-1.639-0.164l-1.582-0.237l-1.508-0.305l-1.411-0.373
				l-1.3-0.431l-1.168-0.484l-1.021-0.523l-0.861-0.556l-0.7-0.567l-0.548-0.574l-0.415-0.6l-0.296-0.658l-0.162-0.804l-0.003-0.683
				l0.052-0.466l0.104-0.505l0.159-0.539l0.22-0.574l0.288-0.608l0.347-0.632l0.445-0.7l0.305-0.442
				c0.064-0.101,0.112-0.203,0.155-0.312l0.13-0.323l0.651,0.382l2.485,1.268l2.613,1.168l2.706,1.07l2.774,0.958l2.809,0.844
				l2.818,0.719l2.793,0.588l2.736,0.444l2.656,0.297l2.539,0.136l1.684-0.021L403.599,475.891z M412.154,466.228l0.027,0.513
				l-0.031,0.451l-0.092,0.401l-0.148,0.375l-0.217,0.356l-0.285,0.333l-0.332,0.299l-0.688,0.439l-1.276,0.513l-1.59,0.363
				l-1.862,0.205l-2.091,0.047l-2.27-0.111l-2.414-0.26l-2.523-0.407l-2.588-0.54l-2.621-0.663l-2.618-0.782l-2.573-0.887
				l-2.498-0.976l-2.381-1.061l-2.23-1.129l-2.043-1.179l-1.84-1.23l-1.213-0.944l-0.707-0.614l-0.632-0.61l-0.552-0.599
				l-0.472-0.583l-0.389-0.562l-0.312-0.539l-0.238-0.52l-0.166-0.499l-0.103-0.488l-0.035-0.489l0.034-0.505l0.119-0.526
				l0.208-0.558l0.309-0.567l0.45-0.622l0.564-0.629l0.707-0.646l0.846-0.657l1.021-0.678l0.602-0.358
				c0.245-0.145,0.443-0.342,0.599-0.582c0.044-0.071,0.082-0.144,0.117-0.219l0.188-0.417l0.408,0.458l2.373,2.345l2.584,2.214
				l2.736,2.057l2.861,1.887l2.949,1.698l3.006,1.499l3.031,1.285l3.029,1.055l2.273,0.637l1.508,0.34l1.467,0.27l1.449,0.199
				l1.418,0.126l1.396,0.048l1.359-0.033l1.421-0.13l0.216-0.033l0.158,0.332l0.218,0.563l0.088,0.249l0.188,0.684L412.154,466.228z
				 M426.304,431.624l0.288-0.087l0.244,0.54l-0.26,0.159l-1.286-0.063L426.304,431.624z"/>
		</g>
		<g>
			<g>
				<path fill="#1D1B3A" stroke="#1D1B3A" stroke-width="2.1614" stroke-miterlimit="10" d="M325.965,99.695l-0.117-3.633
					l27.38-0.885l0.117,3.625l-11.329,0.369l1.066,32.746l-4.424,0.143l-1.066-32.746L325.965,99.695z"/>
				<path fill="#1D1B3A" stroke="#1D1B3A" stroke-width="2.1614" stroke-miterlimit="10" d="M371.005,131.01l-0.36-11.129
					l-12.973,0.42l-4.01,11.273l-4.62,0.148l13.628-36.854l28.174-0.914l0.115,3.627l-16.596,0.537l0.406,12.422l13.908-0.451
					l0.121,3.629l-13.913,0.451l0.425,13.068l17.84-0.578l0.117,3.625L371.005,131.01z M358.949,116.729l11.578-0.377l-0.588-18.09
					l-4.473,0.146L358.949,116.729z"/>
				<path fill="#1D1B3A" stroke="#1D1B3A" stroke-width="2.1614" stroke-miterlimit="10" d="M398.688,93.699l4.126-0.135
					l19.968,28.203l-0.936-28.82l4.127-0.135l1.18,36.373l-4.122,0.135l-19.97-28.152l0.934,28.77l-4.125,0.135L398.688,93.699z"/>
				<path fill="#1D1B3A" stroke="#1D1B3A" stroke-width="2.1614" stroke-miterlimit="10" d="M450.24,106.547l14.474,21.418
					l-5.565,0.182l-11.832-18.121l-6.753,7.98l0.35,10.732l-4.425,0.145l-1.18-36.375l4.42-0.143l0.664,20.373l16.729-20.938
					l5.766-0.188L450.24,106.547z"/>
				<path fill="#1D1B3A" stroke="#1D1B3A" stroke-width="2.1614" stroke-miterlimit="10" d="M304.305,173.926l0.411,12.719
					l13.915-0.451l0.121,3.627l-13.917,0.451l0.536,16.398l-4.427,0.145l-1.181-36.373l21.221-0.689l0.118,3.627L304.305,173.926z"
					/>
				<path fill="#1D1B3A" stroke="#1D1B3A" stroke-width="2.1614" stroke-miterlimit="10" d="M327.787,169.531l11.527-0.377
					c8.549-0.277,13.066,4.104,13.258,9.867c0.185,5.717-3.648,8.674-7.479,10.242l10.362,15.779l-5.117,0.168l-9.691-15.008
					l-7.75,0.252l0.496,15.305l-4.425,0.145L327.787,169.531z M338.688,172.805l-6.359,0.207l0.448,13.818l6.361-0.209
					c6.658-0.217,9.136-3.582,9.009-7.506C348.02,175.24,345.199,172.596,338.688,172.805z"/>
				<path fill="#1D1B3A" stroke="#1D1B3A" stroke-width="2.1614" stroke-miterlimit="10" d="M361.217,204.857l-1.184-36.375
					l21.718-0.705l0.116,3.625l-17.291,0.562l0.403,12.426l13.764-0.449l0.118,3.629l-13.763,0.447l0.423,13.066l17.64-0.572
					l0.119,3.627L361.217,204.857z"/>
				<path fill="#1D1B3A" stroke="#1D1B3A" stroke-width="2.1614" stroke-miterlimit="10" d="M408.951,199.676l-3.777,0.121
					l-12.104-24.977l0.941,28.971l-4.124,0.133l-1.184-36.371l5.12-0.168l13.057,26.785l11.289-27.576l5.119-0.168l1.181,36.375
					l-4.124,0.135l-0.94-28.971L408.951,199.676z"/>
				<path fill="#1D1B3A" stroke="#1D1B3A" stroke-width="2.1614" stroke-miterlimit="10" d="M446.391,165.676l13.855,35.961
					l-4.623,0.152l-4.039-11.014l-13.564,0.441l-3.268,11.248l-4.62,0.152l11.442-36.781L446.391,165.676z M439.094,187.65
					l11.232-0.365l-6.17-16.91L439.094,187.65z"/>
				<path fill="#1D1B3A" stroke="#1D1B3A" stroke-width="2.1614" stroke-miterlimit="10" d="M476.392,201.113l-10.486,0.34
					l-1.182-36.371l10.485-0.342c10.487-0.34,19.42,6.779,19.772,17.562C495.308,192.342,487.225,200.762,476.392,201.113z
					 M475.279,168.369l-6.018,0.193l0.948,29.119l6.013-0.193c6.757-0.221,14.656-5.199,14.335-15.041
					C490.246,172.857,482.036,168.15,475.279,168.369z"/>
			</g>
		</g>
	</g>
	<g>
		<path fill="#1D1B3A" d="M689.454,644.439c-72.038-7.646-252.913-130.341-252.913-130.341l28.215-40.855
			c0,0,166.715,100.7,272.206,125.633"/>
		<g>
			<path fill="#1D1B3A" d="M689.454,642.43c-13.699-1.514-27.053-6.082-39.873-10.945c-16.813-6.379-33.122-14.075-49.182-22.142
				c-33.953-17.055-66.836-36.247-99.192-56.14c-21.468-13.197-42.792-26.695-63.651-40.84c0.24,0.916,0.48,1.833,0.721,2.75
				c9.405-13.618,18.811-27.237,28.215-40.855c-0.916,0.24-1.833,0.48-2.75,0.721c51.723,31.229,105.581,59.582,160.54,84.635
				c36.146,16.478,73.407,31.969,112.146,41.201c2.521,0.601,3.59-3.276,1.068-3.877c-41.937-9.994-82.129-27.229-121.1-45.362
				c-36.836-17.139-72.887-35.974-108.372-55.746c-14.192-7.908-28.344-15.924-42.254-24.321c-0.991-0.599-2.136-0.17-2.75,0.721
				c-9.405,13.618-18.811,27.237-28.215,40.855c-0.653,0.945-0.132,2.173,0.721,2.75c43.924,29.786,89.442,57.628,136.069,82.957
				c21.155,11.492,42.684,22.379,64.876,31.736c16.88,7.117,34.652,13.897,52.982,15.922
				C692.029,646.734,692.002,642.711,689.454,642.43L689.454,642.43z"/>
		</g>
	</g>
</g>
</svg>
