<?xml version="1.0" encoding="utf-8"?>
<!-- Generator: Adobe Illustrator 16.0.4, SVG Export Plug-In . SVG Version: 6.00 Build 0)  -->
<!DOCTYPE svg PUBLIC "-//W3C//DTD SVG 1.1//EN" "http://www.w3.org/Graphics/SVG/1.1/DTD/svg11.dtd">
<svg version="1.1" id="Layer_1" xmlns="http://www.w3.org/2000/svg" xmlns:xlink="http://www.w3.org/1999/xlink" x="0px" y="0px"
	 width="646.947px" height="311.439px" viewBox="0 0 646.947 311.439" enable-background="new 0 0 646.947 311.439"
	 xml:space="preserve">
<g>
	<path fill="#82CFF5" d="M239.681,152.58c4.447,1.756,10.722,2.813,14.813-0.504c3.321-2.693,4.559-6.354,4.438-10.162
		c0.956-4.578-0.273-10.012-4.549-13.709c-7.499-6.488-10.336-10.899-12.058-23.197c-2.057-14.667-3.765-24.719,4.776-36.414
		c3.557-4.862,8.104-8.473,12.995-9.698c2.405-0.604,5.707,1.752,7.535,0.369c1.2-4.772,23.048,3.823,26.138,5.709
		c6.454,3.938,12.406,10.123,15.771,19.084c-0.779-2.08-1.218-3.246,0.004,0.01c3.85,10.264,1.395,3.715,0.004,0.013
		c20.808,55.488-32.206,107.729-66.548,80.895c-4.492-3.513-10.203-10.945-12.876-19.045
		C232.808,148.879,236.328,151.256,239.681,152.58z"/>
	<path fill="#0E8CCD" d="M270.527,183.753c0.707-10.539,1.199-27.321,1.199-34.6c0-0.619-7.778-0.258-7.759-0.412
		c1.166-9.758,6.705-16.883,17.793-17.863c18.316-1.617,16.831,17.991,16.831,17.991c-1.629-1.038-6.931,0.831-7.072,0.956
		c-4.93,4.479-1.896,30.828-1.896,30.828"/>
	<g>
		<path fill="#FFFFFF" d="M296.943,100.745l-0.001-0.002c-0.883-3.027-2.745-2.17-4.453-0.68c0.339-2.478,0.995-5.072,1.041-7.31
			c0.021-0.85,0.051-1.844,0.06-2.885c-5.244-0.396-10.477-1.488-15.433-2.879c-6.495-1.826-11.416-5.125-15.772-9.896
			c-2.486,1.571-4.571,3.978-6.469,7.123c-0.488,0.812-5.452,11.449-6.712,14.669c-2.686,6.85,10.562,16.729,15.345,22.871
			c1.199,1.539,7.374,0.211,12.951-1.271c0.976-0.259,3.167-1.637,4.247-1.795c0.594,2.233,0.351,11.784,0.282,14.414
			c-0.053,1.969,2.194,2.729,3.415,1.598c0.345-0.173,0.647-0.482,0.855-0.987c0.211-0.509,0.409-1.085,0.602-1.686
			c1.469-3.46,0.832-12.155,3.412-20.091c3.435-2.857,8.17-5.881,6.631-11.191C297.301,101.979,297.924,104.13,296.943,100.745z"/>
	</g>
	
		<ellipse fill="none" stroke="#1E1E1C" stroke-width="0.7188" stroke-miterlimit="10" cx="258.533" cy="93.264" rx="1.573" ry="2.196"/>
	<g>
		<g>
			<path fill="#020303" d="M265.373,92.868c-0.727,1.592-0.479,3.358-0.975,5.009c-0.758,2.527-3.307-0.377-4.685,1
				c-2.402,2.402,2.387,4.6,4.177,4.699c0.571,0.032,0.568-0.854,0-0.885c-1.352-0.076-3.276-0.794-3.795-2.157
				c0.38-1.022,0.902-1.346,1.563-0.967c0.377,0.141,0.716,0.271,1.112,0.344c0.333,0.062,0.792-0.043,1.083-0.194
				c2.363-1.229,1.352-4.36,2.281-6.4C266.372,92.8,265.609,92.35,265.373,92.868L265.373,92.868z"/>
		</g>
	</g>
	
		<ellipse fill="none" stroke="#1E1E1C" stroke-width="0.8091" stroke-miterlimit="10" cx="275.61" cy="94.421" rx="1.735" ry="2.461"/>
	<path fill="#0E8CCD" d="M260.353,203.771l5.106,2.963c-0.347,17.467,5.979,35.348,5.979,35.348s-2.742,5.355-3.421,14.16
		c-1.019,13.176,3.912,27.438,7.159,35.195h-0.162c-0.156,0.418-13.991,11.252-13.991,11.252l18.486-4.119l0.146-1.399l0.017,1.512
		l0.493,0.2c-0.001,0.062-0.002,0.104-0.002,0.104s0.016-0.03,0.044-0.085l16.251,6.655c0,0-11.832-11.966-11.982-12.336
		l-1.378-0.315c3.872-8.621,10.086-24.846,9.047-38.312c-0.68-8.807-4.841-12.342-4.841-12.342s7.922-18.016,7.786-34.502
		c1.985-1.346,3.429-2.873,3.745-4.549c1.546-8.219-6.271-21.037-9.793-25.12l-10.842-0.209c-0.312-0.294-0.743-0.339-1.329-0.025
		l-5.146-0.102c0,0-1.813-0.335-6.261,7.444C261.192,192.651,259.476,208.769,260.353,203.771z M277.897,291.437
		c0.122-13.278,0.49-44.9,1.232-48.853c0.094-0.492-0.085-14.574-0.288-28.496c0.455-0.11,1.201-0.299,2.14-0.555
		c-0.259,13.611-0.503,27.868-0.409,28.377c0.734,3.896,0.081,36.126-0.245,50.357l-0.15-0.032l0.083-0.8L277.897,291.437
		L277.897,291.437z"/>
	<path fill="#FFFFFF" d="M263.636,148.746c-0.133,0.075,2.988,20.157,2.988,22.216c0,6.506-1.596,15.313,5.037,25.031
		c2.3,3.366,3.932,5.427,5.077,6.679c2.163,2.362,2.617,1.857,2.617,1.857s-6.364-23.261-7.162-36.802
		c-0.797-13.545-0.758-18.64-0.758-18.64S267.587,146.569,263.636,148.746z"/>
	<path fill="#FFFFFF" d="M298.112,147.929c-0.632,3.432-3.034,19.577-3.034,21.639c0,6.504,1.59,15.311-5.044,25.029
		c-6.632,9.714-7.694,8.536-7.694,8.536s6.369-23.261,7.166-36.807c0.795-13.543,0.655-14.967,0.844-16.156
		C290.662,148.192,298.112,147.929,298.112,147.929z"/>
	<path fill="#FFFFFF" d="M275.983,206.684c-0.198,0.516-3.873,12.712-1.431,13.773c2.444,1.063,9.383-0.028,9.177-0.433
		c-0.209-0.403-3.919-5.735-2.924-6.585c0.993-0.847,2.741,3.174,4.532,2.453c1.787-0.723,1.333-1.199,1.333-1.199
		s-1.451,0.145-2.354-1.755c-1.166-2.47-0.35-4.862-4.049-5.699C276.573,206.407,275.983,206.684,275.983,206.684z"/>
	<path fill="#FFFFFF" d="M285.559,204.14c0.2,0.518,3.873,12.714,1.429,13.776c-2.442,1.061-9.383-0.026-9.175-0.436
		c0.21-0.404,3.918-5.736,2.925-6.584c-0.994-0.849-2.744,3.172-4.532,2.453c-1.79-0.722-1.336-1.199-1.336-1.199
		s1.452,0.146,2.354-1.757c1.168-2.469,0.351-4.862,4.049-5.695C284.971,203.862,285.559,204.14,285.559,204.14z"/>
	<g>
		<g>
			<path fill="#020303" d="M267.596,106.941c-0.576,0.583-1.639,0.721-2.412,0.818c-0.541,0.068-2,0.279-2.388-0.249
				c-0.334-0.454-1.104-0.014-0.766,0.447c0.63,0.856,1.961,0.78,2.904,0.712c1.083-0.078,2.486-0.294,3.287-1.103
				C268.624,107.162,267.998,106.535,267.596,106.941L267.596,106.941z"/>
		</g>
	</g>
</g>
<g>
	<path fill="#0E8CCD" d="M220.844,210.494c6.849-33.188,9.394-66.24-3.41-78.313c-29.045-27.393-40.397-10.203-50.191,7.204
		c-8.442,15.011-10.076,38.646-8.569,63.02C179.221,207.728,199.814,211.978,220.844,210.494z"/>
	<path fill="#FFFFFF" d="M176.179,289.721c0.152-0.165,0.058-0.222-0.213-0.194C176.066,289.696,176.138,289.765,176.179,289.721z"
		/>
	<path fill="#FFFFFF" d="M196.539,289.344c0,0,15.616-39.52,24.306-78.829c-21.029,1.385-41.622-2.582-62.172-7.554
		c2.687,40.536,15.348,83.261,17.294,86.565c0.271-0.026,0.365,0.029,0.213,0.194c-0.04,0.044-0.112-0.024-0.213-0.194
		c-2.162,0.22-16.198,6.168-15.311,10.605c0.754,3.763,15.688,1.739,24.592-4.528c0.619-0.438,2.679-67.423,3.228-67.584
		c1.171-0.34,0.526,67.27,0.526,67.27s17.28,13.91,26.571,8.443C218.652,301.918,196.539,289.344,196.539,289.344z"/>
	<path fill="#FFFFFF" d="M178.911,120.943c10.506,15.49,14.003,14.067,23.804,5.563c10.511-9.119,12.437-18.101,11.406-26.146
		c-0.025-0.202-0.063-0.402-0.09-0.605c0.396-0.939-2.228-12.818-2.277-13.16c-0.018-0.111-0.034-0.22-0.05-0.329
		c1.387-0.205,2.562-1.322,1.946-2.961c-2.742-7.282-8.218-12.355-16.209-13.611c-7.008-1.101-14.478,1.273-19.005,6.644
		c-1.954,2.321-3.248,5.075-4.11,7.986c-0.349,0.66-0.675,1.331-0.969,2.023c-0.256,0.6-0.18,1.194,0.095,1.704
		c-0.408,2.278-0.625,4.578-0.745,6.79C172.365,101.224,175.265,115.569,178.911,120.943z"/>
	
		<ellipse transform="matrix(-0.0053 1 -1 -0.0053 294.8805 -108.1839)" fill="none" stroke="#1E1E1C" stroke-width="1.0188" stroke-miterlimit="10" cx="201.245" cy="92.565" rx="2.384" ry="1.278"/>
	
		<ellipse transform="matrix(-0.0047 1 -1 -0.0047 277.2911 -92.0229)" fill="none" stroke="#1E1E1C" stroke-width="1.0188" stroke-miterlimit="10" cx="184.441" cy="91.982" rx="2.383" ry="1.279"/>
	<path fill="#82CFF5" d="M200.155,69.334c0,0,1.737,6.532-2.449,9.587c-4.188,3.059-18.497-0.637-23.49,13.613
		c-1.87,5.337-1.133,11.166-1.699,9.467C171.231,98.148,171.779,55.89,200.155,69.334z"/>
	<path fill="#82CFF5" d="M198.704,71.169c0,0-0.421,7.878,6.388,11.729c6.808,3.854,9.024,18.532,8.771,19.021
		C213.604,102.412,222.508,63.654,198.704,71.169z"/>
	<path fill="#FFFFFF" d="M175.854,127.118c-0.038,7.365,8.209,17.988,17.184,18.033s21.638-10.592,18.64-17.354
		c-1.771-3.998-9.531-9.271-18.506-9.314C184.198,118.437,175.873,123.38,175.854,127.118z"/>
	<path fill="#FFFFFF" d="M225.26,156.377l-11.352,3.054c0,0,1.312,38.526-0.579,51.354c3.121-0.025,6.251-0.159,9.391-0.415
		C222.439,190.936,225.26,156.377,225.26,156.377z"/>
	<path fill="#FFFFFF" d="M222.719,210.369c-3.14,0.256-6.27,0.39-9.391,0.415c-0.109,0.751-0.23,1.418-0.364,1.979
		c-2.414,10.163-4.73,1.518-7.458,7.053c-2.729,5.535,1.637,10.184,1.637,10.184s1.98-2.445,2.928-4.25
		c0.197-1.233,0.381-1.942,0.476-1.59c0.09,0.334-0.124,0.918-0.476,1.59c-0.492,3.073-1.074,9.414-0.601,10.736
		c0.667,1.854,17.234-4.844,14.248-14.723C223.089,219.68,222.794,215.562,222.719,210.369z"/>
	<path fill="#FFFFFF" d="M210.546,224.16c-0.095-0.354-0.277,0.355-0.476,1.59C210.422,225.078,210.635,224.494,210.546,224.16z"/>
	<g>
		<g>
			<path fill="#1E1E1C" d="M192.317,93.12c-0.134,2.894-2.261,5.855-3.95,8.092c-0.247,0.326,0.094,0.744,0.436,0.761
				c1.659,0.075,3.199-0.397,4.582-1.306c0.542-0.355,0.037-1.23-0.51-0.873c-1.25,0.82-2.571,1.236-4.072,1.168
				c0.146,0.253,0.291,0.508,0.437,0.761c1.813-2.399,3.943-5.491,4.087-8.603C193.356,92.469,192.346,92.472,192.317,93.12
				L192.317,93.12z"/>
		</g>
	</g>
	<g>
		<g>
			<path fill="#1E1E1C" d="M194.213,103.518c0.708-0.018,1.324-0.226,1.955-0.532c0.585-0.286,0.073-1.157-0.51-0.873
				c-0.47,0.229-0.92,0.383-1.445,0.396C193.561,102.522,193.56,103.533,194.213,103.518L194.213,103.518z"/>
		</g>
	</g>
	<path fill="#82CFF5" d="M191.43,74.107c0,0-14.376-16.075,3.556-16.693c17.931-0.618,13.293,12.057,19.167,12.365
		s1.854-5.41,1.854-5.41s10.82,3.71,3.4,10.82C211.988,82.299,191.43,74.107,191.43,74.107z"/>
</g>
<g>
	<path fill="#82CFF5" d="M55.607,107.225c0.369-0.248,0.769-0.46,1.179-0.652c0.201-1.444,1.729-2.737,3.35-1.754
		c0.46,0.28,0.888,0.604,1.292,0.949c0.239,0.025,0.479,0.061,0.719,0.111c2.494,0.539,4.16,3.42,3.22,5.81
		c-0.384,0.972-1.026,1.798-1.812,2.45c-0.672,0.979-1.711,1.694-2.984,1.896c-2.461,0.388-6.212-0.461-7.405-2.933
		C51.998,110.688,53.653,108.534,55.607,107.225z"/>
	<g>
		<g>
			<path fill="#1E1E1C" d="M60.429,104.065c-1.669,0.461-3.372,0.233-4.842,1.3c-0.468,0.34-0.017,1.127,0.457,0.783
				c1.387-1.006,3.051-0.773,4.625-1.208C61.232,104.784,60.992,103.91,60.429,104.065L60.429,104.065z"/>
		</g>
	</g>
	<g>
		<g>
			<path fill="#1E1E1C" d="M59.671,102.469c-1.771-0.086-3.552,0.268-5.157,1.021c-0.529,0.248-0.068,1.029,0.457,0.783
				c1.461-0.686,3.093-0.975,4.7-0.897C60.256,103.404,60.253,102.498,59.671,102.469L59.671,102.469z"/>
		</g>
	</g>
	<path fill="#FFFFFF" d="M58.747,133.457l-3.951,4.815c6.001,27.982,5.848,28.128,4.628,41.117
		c-1.277,13.589-3.998,13.576-3.998,13.576s0.265,7.554,0.561,9.063c0.294,1.511,6.463-12.396,7.957-20.203
		C66.424,168.846,59.037,136.178,58.747,133.457z"/>
	<path fill="#FFFFFF" d="M31.097,133.329L35,138.183c-6.284,27.919-6.132,28.071-5.043,41.069c1.143,13.6,3.86,13.613,3.86,13.613
		s-0.338,7.552-0.648,9.061c-0.31,1.506-6.34-12.459-7.754-20.281C23.065,168.639,30.781,136.047,31.097,133.329z"/>
	<path fill="#82CFF5" d="M40.303,206.08c0,0,1.341,79.426-0.135,84.135c-1.475,4.707-24.943,16.438-17.216,18.047
		c10.729,2.228,22.141-15.849,22.141-15.849l0.434-85.944l6.388,0.032c0,0-2.766,88.106-1.896,88.111s10.093,13.108,19.391,11.342
		c4.27-0.811-14.729-14.58-14.729-14.58s2.477-88.473,1.604-88.116C55.41,203.618,40.303,206.08,40.303,206.08z"/>
	<path fill="#0E8CCD" d="M27.988,135.126c0,0,4.501-11.153,16.075-10.286c11.579,0.863,14.217,11.518,14.217,11.518l-5.008,5.496
		c0,0,7.699,64.401,10.206,74.517c2.508,10.112-29.854,7.568-33.772,5.436c-3.917-2.134,5.728-78.875,5.728-78.875"/>
	<path fill="#82CFF5" d="M67.913,83.36c-0.068,13.68-11.356,24.715-25.22,24.645c-13.86-0.07-25.985-11.559-25.914-25.238
		c0.068-13.683,12.306-24.369,26.164-24.299C56.805,58.538,67.982,69.682,67.913,83.36z"/>
	<path fill="#FFFFFF" d="M56.403,76.433c-2.104-5.749-8.013-10.021-14.037-10.657c-6.609-0.695-13.663,2.212-17.237,7.939
		c-2.566,4.116-1.714,8.979,0.306,13.172c1.145,9.149,1.989,18.862,8.677,25.56c3.72,3.725,9.791,5.344,14.824,3.854
		c5.615-1.666,6.569-8.877,7.172-13.744c0.612-4.963,0.888-9.969,1.145-14.959C57.451,83.725,57.75,80.124,56.403,76.433z"/>
	<path fill="#82CFF5" d="M47.458,64.383c-0.028-0.093-0.074-0.17-0.112-0.254c-0.255-0.814-0.937-1.465-2.062-1.421
		c-6.39,0.242-13.83,0.537-19.096,4.64c-3.929,3.059-5.168,7.389-5.644,11.975c-0.666,2.155-1.087,4.478-0.248,6.366
		c0.115,1.442,0.491,2.808,1.509,3.951c0.278,0.312,0.575,0.525,0.884,0.665c-1.977,1.547,0.182,5.008,2.621,3.688
		c6.131-3.313,11.282-8.791,15.808-14.013C44.515,76.061,49.339,69.93,47.458,64.383z"/>
	<path fill="#82CFF5" d="M26.589,106.586c-0.366-0.263-0.763-0.481-1.172-0.685c-0.187-1.49-1.7-2.836-3.333-1.84
		c-0.462,0.283-0.894,0.609-1.3,0.962c-0.242,0.026-0.479,0.06-0.718,0.108c-2.5,0.526-4.196,3.477-3.28,5.946
		c0.375,1.002,1.008,1.861,1.788,2.539c0.66,1.018,1.69,1.768,2.963,1.984c2.458,0.422,6.214-0.412,7.435-2.941
		C30.162,110.186,28.53,107.95,26.589,106.586z"/>
	
		<ellipse transform="matrix(0.0052 -1 1 0.0052 -53.671 125.4636)" fill="none" stroke="#1E1E1C" stroke-width="0.9141" stroke-miterlimit="10" cx="36.222" cy="89.707" rx="2.166" ry="1.132"/>
	
		<ellipse transform="matrix(0.0061 -1 1 0.0061 -40.6302 137.0764)" fill="none" stroke="#1E1E1C" stroke-width="0.9141" stroke-miterlimit="10" cx="48.641" cy="88.977" rx="2.167" ry="1.133"/>
	<g>
		<g>
			<path fill="#1E1E1C" d="M42.076,92.373c-0.442,1.52-0.926,2.913-2.047,4.062c-0.567,0.581-1.169,1.229-0.972,2.114
				c0.367,1.641,2.283,1.818,3.641,1.375c0.553-0.183,0.316-1.059-0.241-0.875c-0.554,0.183-1.085,0.234-1.661,0.121
				c-1.572-0.313-0.474-1.737,0.153-2.381c1.099-1.126,1.569-2.694,2-4.176C43.115,92.052,42.24,91.812,42.076,92.373L42.076,92.373
				z"/>
		</g>
	</g>
	<g>
		<g>
			<path fill="#1E1E1C" d="M42.362,103.582c0.663,0.009,1.338,0.009,1.994-0.104c0.575-0.098,0.331-0.971-0.241-0.873
				c-0.57,0.097-1.175,0.078-1.752,0.071C41.777,102.67,41.778,103.575,42.362,103.582L42.362,103.582z"/>
		</g>
	</g>
	<g>
		<g>
			<path fill="#1E1E1C" d="M21.554,104.174c1.574,0.463,3.238,0.251,4.609,1.296c0.472,0.358,0.929-0.44,0.464-0.795
				c-1.453-1.107-3.162-0.897-4.83-1.389C21.228,103.118,20.986,104.007,21.554,104.174L21.554,104.174z"/>
		</g>
	</g>
	<g>
		<g>
			<path fill="#1E1E1C" d="M22.57,102.572c1.612-0.061,3.239,0.262,4.688,0.978c0.53,0.261,0.996-0.532,0.465-0.795
				c-1.595-0.786-3.375-1.169-5.152-1.103C21.979,101.676,21.977,102.594,22.57,102.572L22.57,102.572z"/>
		</g>
	</g>
	<path fill="#FFFFFF" d="M49.29,124.92c-1.068-4.291-0.711-9.011-3.677-12.939c-3.275-4.334-3.789,9.104-3.794,9.2
		c-0.122,2.643,0.581,3.064-2.578,3.085c-2.757,0.008-0.415,4.297,0.541,4.938c2.007,1.345,5.151,1.261,7.338,0.513
		C48.214,129.34,52.856,125.172,49.29,124.92C49.224,124.643,50.089,124.975,49.29,124.92z"/>
</g>
<g>
	<path fill="#0E8CCD" d="M134.814,189.173l-34.509-0.517l0.969,11.621l-6.771,1.918c0,0,10.316,79.811,11.287,90.407
		c0,0-33.419,2.373-26.62,9.925c6.793,7.548,32.136-8.349,32.136-8.349s-1.541-83.947,6.655-83.227
		c8.195,0.726,2.405,85.195,2.405,85.195s21.539,13.963,30.471,7.045c7.892-6.11-24.955-10.197-24.955-10.197l11.955-92.135
		l-4.44-1.788L134.814,189.173z"/>
	<path fill="#0E8CCD" d="M138.786,202.293c-0.404,0.892-7.415-4.375-7.415-4.375s6.264-12.984,5.439-34.062
		c-0.825-21.078-4.526-24.192-4.526-24.192s4.075,53.229,2.516,54.242c-19.896,12.915-34.386-2.342-34.386-2.342
		s2.347-52.813,1.812-52.055c-10.613,15.131,0.01,59.498,0.01,59.498l-9.064,3.854c0,0-11.175-46.101,6.338-77.621
		c5.595-10.066,22.671-9.802,33.16-0.452C143.159,134.137,150.38,176.629,138.786,202.293z"/>
	<path fill="#FFFFFF" d="M143.833,88.055c-0.021-0.038-0.043-0.077-0.063-0.116c-2.918-5.153-5.666-10.365-7.193-16.009
		c-0.318-1.18-0.119-2.19,0.371-2.993c-1.372-1.32-2.946-2.41-4.657-3.138c-8.31-3.527-16.299,1.018-19.611,8.938
		c-3.241,7.753-2.831,16.793-1.718,24.943c0.303,2.218,0.682,4.432,1.126,6.635c0.428,4.369,0.335,8.769,0.953,13.125
		c0.566,3.978,1.573,8.694,5.295,10.959c1.096,0.667,2.88-0.156,2.748-1.54c-0.076-0.797,1.546-5.306,1.696-5.959
		c2.4-2.982,6.814-4.576,10.128-7.035c3.139-2.326,5.549-5.343,6.627-9.131c1.043-3.662,1.237-7.479,2.343-11.107
		c1.938,0.622,4.066,0.482,6.105-0.241C146.635,92.929,145.217,90.499,143.833,88.055z"/>
	
		<ellipse transform="matrix(0.2877 0.9577 -0.9577 0.2877 170.3602 -45.9892)" fill="#FFFFFF" cx="116.099" cy="91.539" rx="8.057" ry="5.267"/>
	
		<ellipse transform="matrix(-0.0054 1 -1 -0.0054 221.6061 -51.3328)" fill="none" stroke="#1E1E1C" stroke-width="0.8091" stroke-miterlimit="10" cx="136.33" cy="84.536" rx="2.874" ry="1.273"/>
	<g>
		<path fill="#82CFF5" d="M123.113,74.474c-2.807,5.507,6.546,4.364,5.715,2.39c-1.974,1.039,0.936,2.184,1.975,2.184
			c1.144,0.104,7.065-1.977,5.194-3.43c1.146,3.222,10.6-4.469,4.469-7.897c0.937,0.624,2.078-0.104,2.494-0.937
			c0.937-1.869-1.039-3.946-2.391-4.883c-1.559-1.143-11.533-3.845-10.494,0.728c1.246-3.324-6.962-7.273-9.041-7.48
			c-2.598-0.208-4.26,1.351-4.468,3.844c-1.454-2.39-5.403-4.676-8.001-2.908c-1.976,1.246-1.455,3.43,0.728,4.261
			c-1.974-1.662-5.3-0.937-6.546,1.247c-1.768,3.013,0.623,9.456,4.676,9.144c-3.741-5.61-9.041,2.392-6.026,6.547
			c1.767,2.599,4.155,0.623,0.728-0.623c-4.677-1.768-10.599,1.767-8.209,7.066c1.143,2.597,3.845,4.676,6.649,5.507
			c1.56,0.52,4.987,1.144,5.819-0.936c1.039-2.807-4.053-3.846-3.74,0.415c0.208,3.532,5.402,7.896,8.312,4.262
			c2.183-2.703-1.662-5.82-2.909-2.494c-1.768,4.676,5.923,7.273,8.832,4.468c2.494-2.39,1.769-6.339-0.623-8.416
			c-0.416,1.143,0,2.077,0.623,2.909c1.455,1.869,3.117,1.559,4.78,0.312c1.767-1.351,2.182-3.324,1.767-5.508
			c-0.208-0.936-0.831-2.701-1.975-2.701c-0.521,1.87,2.91,2.701,4.26,2.184c1.663-0.729,3.533-3.638,3.223-5.508
			c0.312,2.598,4.884,0.415,1.975-1.455"/>
	</g>
</g>
<g>
	<path fill="#82CFF5" d="M528.917,185.173l34.51-0.17l-1.084,11.613l9.201,4.828c0,0-8.602,79.57-9.68,90.159
		c0,0,24.912,5.933,18.039,13.415c-6.868,7.481-24.884-11.062-24.884-11.062s-1.27-87.475-9.473-86.835
		c-8.202,0.643-4.201,87.792-4.201,87.792s-20.234,17.451-29.098,10.445c-7.827-6.19,23.986-13.205,23.986-13.205l-17.651-90.977
		l11.648-6.093L528.917,185.173z"/>
	<path fill="#0E8CCD" d="M522.692,199.493c0.436,0.989,8.225-4.742,8.225-4.742s-6.763-14.385-5.619-37.612
		c1.145-23.23,5.26-26.625,5.26-26.625s-5.086,58.643-3.375,59.774c21.793,14.461,37.938-2.197,37.938-2.197
		s-2.001-58.256-1.419-57.412c11.532,16.802-0.673,65.601-0.673,65.601l11.595,4.502c0,0,11.19-50.857-7.771-85.804
		c-6.053-11.161-24.885-11.059-36.553-0.866C518.627,124.302,510.194,171.067,522.692,199.493z"/>
	<path fill="#FFFFFF" d="M555.045,57.476c-3.641-9.051-12.583-14.313-21.979-10.396c-5.06,2.11-9.104,7.046-10.734,12.183
		c-0.882,2.779-0.936,5.681-0.792,8.599c-0.54,2.092-1.303,4.041-2.521,5.594c-2.089,0.783-4.286,1.234-6.63,1.273
		c-1.618,0.022-2.956,2.311-1.469,3.489c0.722,0.572,1.484,1.072,2.273,1.502c0.378,0.525,0.983,0.873,1.748,0.808
		c2.322,0.887,4.765,1.086,6.988,0.383c1.203,4.146,1.38,8.49,2.512,12.668c1.17,4.322,3.854,7.783,7.358,10.47
		c3.702,2.834,8.654,4.694,11.324,8.118c0.162,0.747,1.938,5.896,1.842,6.801c-0.164,1.572,1.836,2.53,3.075,1.787
		c4.218-2.539,5.406-7.896,6.089-12.412c0.747-4.95,0.69-9.961,1.224-14.926c0.525-2.502,0.976-5.017,1.342-7.534
		C558.042,76.618,558.609,66.335,555.045,57.476z"/>
	<path fill="#0E8CCD" d="M528.929,46.449c0,0-4.832,9.886,11.166,21.925c15.999,12.039,13.528,27.744,15.569,29.463
		c2.041,1.721,16.801-11.875,16.801-11.875s-8.601,11.919-10.196-10.303C560.67,53.442,558.708,36.35,528.929,46.449z"/>
	<path fill="#FFFFFF" d="M554.478,79.372c-1.459,4.685-5.125,7.707-8.187,6.754c-3.064-0.955-4.364-5.524-2.905-10.21
		c1.459-4.685,5.126-7.708,8.188-6.753C554.637,70.114,555.937,74.686,554.478,79.372z"/>
	<path fill="none" stroke="#1E1E1C" stroke-width="0.8922" stroke-miterlimit="10" d="M528.111,69.708
		c-0.009,1.75-0.645,3.165-1.421,3.162c-0.773-0.005-1.397-1.427-1.391-3.176c0.011-1.753,0.646-3.167,1.423-3.164
		C527.499,66.534,528.121,67.957,528.111,69.708z"/>
</g>
<g>
	<path fill="#0E8CCD" d="M424.14,291.186c0,0,49.943-126.365,20.897-151.938c-29.045-25.567-40.399-9.522-50.19,6.728
		c-24.257,40.258,7.664,146.969,8.936,145.586c1.372-1.488-16.52,5.42-15.521,10.411c0.754,3.765,15.688,1.742,24.589-4.527
		c0.622-0.44,2.681-67.421,3.229-67.583c1.17-0.34,0.525,67.269,0.525,67.269s17.28,13.909,26.57,8.444
		C446.255,303.76,424.14,291.186,424.14,291.186z"/>
	<path fill="#82CFF5" d="M427.488,73.638c0,0,17.079-2.87,19.392,15.241c2.312,18.11,15.759,33.321-2.984,40.368
		c-18.744,7.045-44.257,2.486-48.77-5.296c-4.512-7.776,3.155-23.987,9.035-36.89C410.04,74.167,421.309,70.527,427.488,73.638z"/>
	<path fill="#FFFFFF" d="M402.808,120.276c4.216,13.78,23.323,14.23,33.671,6.394c6.947-5.262,7.817-12.715,6.792-20.76
		c-0.027-0.2-0.065-0.402-0.092-0.604c0.395-0.939-2.228-12.817-2.278-13.161c-0.019-0.108-0.033-0.221-0.048-0.327
		c1.385-0.207,2.562-1.322,1.945-2.963c-2.742-7.283-8.218-12.354-16.207-13.609c-7.011-1.102-14.479,1.272-19.007,6.644
		c-1.954,2.322-3.25,5.075-4.108,7.986c-0.35,0.66-0.678,1.329-0.973,2.024c-0.254,0.6-0.179,1.193,0.097,1.705
		c-0.41,2.274-0.625,4.578-0.743,6.789C401.515,106.772,400.908,114.065,402.808,120.276z"/>
	<g>
		<g>
			<path fill="#1E1E1C" d="M423.631,109.575c-1.347,0.224-4.015,0.744-5.068-0.388c-0.445-0.479-1.158,0.238-0.715,0.715
				c1.372,1.471,4.306,0.938,6.052,0.646C424.54,110.443,424.269,109.469,423.631,109.575L423.631,109.575z"/>
		</g>
	</g>
	<g>
		<g>
			<path fill="#1E1E1C" d="M425.646,102.082c1.769,2.818-9.8,2.974-8.31-0.151c0.278-0.586-0.592-1.099-0.873-0.511
				c-2.567,5.382,13.035,4.903,10.056,0.152C426.172,101.022,425.298,101.528,425.646,102.082L425.646,102.082z"/>
		</g>
	</g>
	
		<ellipse transform="matrix(-0.0051 1 -1 -0.0051 530.6885 -331.7971)" fill="none" stroke="#1E1E1C" stroke-width="1.0188" stroke-miterlimit="10" cx="430.395" cy="98.09" rx="2.383" ry="1.278"/>
	
		<ellipse transform="matrix(-0.0047 1 -1 -0.0047 513.0577 -315.5969)" fill="none" stroke="#1E1E1C" stroke-width="1.0188" stroke-miterlimit="10" cx="413.585" cy="97.523" rx="2.381" ry="1.279"/>
	<path fill="#82CFF5" d="M430.384,75.501c0,0,1.737,6.534-2.449,9.589c-4.188,3.059-20.074,1.56-24.854,15.883
		c-5.005,14.994-3.078,8.85-4.45,5.022C397.257,102.175,402.01,62.061,430.384,75.501z"/>
	<path fill="#82CFF5" d="M427.852,76.721c0,0-0.42,7.875,6.388,11.727c6.808,3.851,11.66,19.635,11.404,20.127
		C445.388,109.064,451.655,69.204,427.852,76.721z"/>
	<path fill="#FFFFFF" d="M403.304,135.297c-0.037,7.365,8.207,17.988,17.184,18.033c8.974,0.044,21.637-10.593,18.639-17.354
		c-1.771-3.996-9.529-9.271-18.504-9.313C411.646,126.615,403.323,131.559,403.304,135.297z"/>
	<path fill="#FFFFFF" d="M452.863,158.217l-11.354,3.054c0,0,1.473,43.172-0.941,53.334c-2.412,10.164-4.731,1.518-7.457,7.055
		c-2.729,5.535,1.637,10.183,1.637,10.183s3.732-4.604,3.4-5.838c-0.329-1.236-1.738,10.471-1.074,12.323
		c0.668,1.855,17.234-4.842,14.249-14.723C448.334,213.719,452.863,158.217,452.863,158.217z"/>
</g>
<g>
	<path fill="#82CFF5" d="M504.909,82.103c-0.068,13.68-8.464,68.581-22.324,68.513c-13.858-0.07-28.878-55.428-28.809-69.108
		c0.068-13.682,12.305-24.368,26.164-24.3C493.804,57.276,504.981,68.425,504.909,82.103z"/>
	<path fill="#FFFFFF" d="M495.595,131.741l-3.952,4.812c6,27.983,5.847,28.13,4.627,41.117c-1.277,13.588-3.997,13.577-3.997,13.577
		s0.262,7.552,0.56,9.064c0.293,1.511,6.462-12.396,7.955-20.202C503.27,167.128,495.883,134.46,495.595,131.741z"/>
	<path fill="#FFFFFF" d="M467.945,131.614l3.903,4.851c-6.285,27.92-6.133,28.072-5.042,41.069
		c1.141,13.601,3.858,13.615,3.858,13.615s-0.339,7.551-0.649,9.061c-0.308,1.506-6.341-12.461-7.755-20.28
		C459.911,166.923,467.625,134.33,467.945,131.614z"/>
	<path fill="#82CFF5" d="M477.045,224.806c0,0,1.421,63.577-0.049,67.346c-1.471,3.766-24.928,13.132-17.199,14.426
		c10.732,1.795,22.125-12.66,22.125-12.66l0.347-68.796l6.389,0.034c0,0-2.678,70.523-1.808,70.527
		c0.87,0.005,10.106,10.5,19.402,9.097c4.267-0.646-14.744-11.687-14.744-11.687s2.39-70.813,1.518-70.53
		C492.151,222.85,477.045,224.806,477.045,224.806z"/>
	<path fill="#0E8CCD" d="M466.332,132.408c0,0,4.501-11.153,16.076-10.287c11.579,0.864,14.217,11.519,14.217,11.519l-5.009,5.494
		c0,0,9.763,71.785,12.271,81.9c2.507,10.112-32.365,7.391-36.283,5.256c-3.919-2.135,6.174-86.08,6.174-86.08"/>
	<path fill="#FFFFFF" d="M493.247,74.716c-2.104-5.749-8.013-10.02-14.037-10.655c-6.607-0.697-13.662,2.211-17.237,7.938
		c-2.568,4.116-1.715,8.981,0.306,13.175c1.145,9.148,1.991,18.859,8.678,25.56c3.721,3.723,9.79,5.342,14.824,3.851
		c5.616-1.666,6.569-8.876,7.172-13.743c0.611-4.965,0.887-9.969,1.146-14.963C494.297,82.008,494.597,78.405,493.247,74.716z"/>
	<path fill="#82CFF5" d="M492.529,64.81c-0.031-0.094-8.298-2.314-8.337-2.397c-0.254-0.816-0.937-1.466-2.062-1.422
		c-6.387,0.241-13.83,0.537-19.096,4.641c-3.927,3.059-5.167,7.388-5.641,11.973c-0.665,2.155-1.089,4.479-0.249,6.369
		c0.114,1.44,0.489,2.807,1.509,3.948c0.276,0.312,0.575,0.526,0.883,0.668c-1.978,1.547,1.34-4.412,3.779-5.73
		c6.13-3.314,27.594,3.999,32.12-1.225C498.829,77.717,494.407,70.357,492.529,64.81z"/>
	
		<ellipse transform="matrix(0.0052 -1 1 0.0052 382.6288 560.6127)" fill="none" stroke="#1E1E1C" stroke-width="0.9141" stroke-miterlimit="10" cx="473.076" cy="87.999" rx="2.169" ry="1.131"/>
	
		<ellipse transform="matrix(0.0052 -1 1 0.0052 394.7026 573.504)" fill="none" stroke="#1E1E1C" stroke-width="0.9141" stroke-miterlimit="10" cx="485.593" cy="88.376" rx="2.168" ry="1.132"/>
	<g>
		<g>
			<path fill="#1E1E1C" d="M478.922,90.656c-0.184,0.825-0.207,1.665-0.272,2.506c-0.1,1.25-0.284,1.223-1.259,0.733
				c-0.583-0.293-1.558-0.98-2.075-0.256c-0.672,0.938,0.605,2.631,1.182,3.267c0.729,0.806,1.921,1.589,3.047,1.302
				c0.566-0.146,0.326-1.02-0.239-0.875c-1.291,0.33-2.68-1.459-3.07-2.472c-0.084-0.233-0.12-0.474-0.109-0.723
				c0.004,0.202,0.033,0.153,0.359,0.312c0.411,0.198,0.809,0.433,1.236,0.596c2.325,0.889,1.788-2.852,2.075-4.148
				C479.922,90.327,479.048,90.085,478.922,90.656L478.922,90.656z"/>
		</g>
	</g>
	<g>
		<g>
			<path fill="#1E1E1C" d="M475.162,100.827c1.058,1.611,2.773,2.319,4.656,2.368c1.044,0.026,2.909-0.224,3.071-1.526
				c0.071-0.579-0.836-0.571-0.906,0c-0.08,0.643-2.048,0.623-2.437,0.613c-1.438-0.037-2.809-0.701-3.603-1.912
				C475.626,99.884,474.841,100.337,475.162,100.827L475.162,100.827z"/>
		</g>
	</g>
	<path fill="#FFFFFF" d="M486.138,123.201c-1.07-4.29-0.714-9.011-3.679-12.939c-3.274-4.335-3.791,9.104-3.795,9.2
		c-0.121,2.643,0.581,3.066-2.579,3.085c-2.757,0.011-0.412,4.296,0.544,4.937c2.005,1.346,5.148,1.263,7.335,0.513
		C485.061,127.622,489.702,123.454,486.138,123.201C486.069,122.927,486.936,123.258,486.138,123.201z"/>
</g>
<g>
	<g>
		<path fill="#0E8CCD" d="M353.39,293.802c0,0,5.825-80.154,21.184-154.761c8.688-42.211-59.626-30.809-55.67-10.053
			c11.144,58.469,15.346,166.781,16.764,165.245c1.529-1.661-25.209,2.921-24.099,8.478c0.839,4.193,27.124-5.884,29.286-6.748
			c1.27-0.508-10.296-80.424-0.434-79.108c2.779,0.371,10.549-4.552,11.673,1.297c4.113,21.427-5.621,76.946-5.621,76.946
			s15.25,13.882,27.667,10.81C378.002,304.949,353.39,293.802,353.39,293.802z"/>
		<path fill="#FFFFFF" d="M368.739,88.788c0.37-0.883-2.09-12.024-2.139-12.348c-0.017-0.104-0.031-0.205-0.046-0.31
			c0.027-0.004,0.054-0.014,0.08-0.019c-2.192-4.5-3.645-8.57-7.654-11.858c-1.732-1.421-3.48-2.59-5.302-3.573
			c-0.168-0.03-0.332-0.069-0.503-0.097c-6.578-1.03-13.586,1.195-17.832,6.231c-1.836,2.181-3.048,4.763-3.856,7.495
			c-0.326,0.617-0.633,1.246-0.91,1.896c-0.237,0.563-0.165,1.121,0.09,1.6c-0.384,2.137-0.588,4.297-0.698,6.37
			c-0.32,5.986-0.888,12.828,0.896,18.655c3.955,12.929,21.884,13.354,31.587,6c6.521-4.939,7.337-11.929,6.372-19.478
			C368.799,89.168,368.764,88.978,368.739,88.788z"/>
		
			<ellipse fill="none" stroke="#1E1E1C" stroke-width="0.9558" stroke-miterlimit="10" cx="358.304" cy="82.365" rx="1.201" ry="2.233"/>
		
			<ellipse transform="matrix(-0.0057 1 -1 -0.0057 426.2926 -260.2383)" fill="none" stroke="#1E1E1C" stroke-width="0.9558" stroke-miterlimit="10" cx="342.529" cy="81.82" rx="2.235" ry="1.201"/>
		<path fill="#FFFFFF" d="M335.624,114.069c-0.025,5.008,5.579,12.229,11.682,12.262c6.103,0.029,14.712-7.202,12.673-11.8
			c-1.205-2.717-6.479-6.303-12.581-6.334C341.294,108.168,335.636,111.528,335.624,114.069z"/>
		<g>
			<path fill="#82CFF5" d="M336.308,61.754c0.776,6.211,5.823,13.587,12.423,14.751c7.764,0.776,3.104-4.657-1.554-6.986
				c3.494,2.329,13.976,8.151,18.245,5.047c3.882-2.718-0.775-6.601-4.271-6.987c2.718,2.329,9.315,3.105,7.376-1.94
				c-1.165-2.718-10.094-4.658-12.812-5.436C350.283,58.648,340.191,56.709,336.308,61.754"/>
		</g>
		<g>
			<g>
				<path fill="#1E1E1C" d="M347.871,80.999c-0.521,4.136-1.144,7.979-3.709,11.367c-0.654,0.865-0.908,2.474,0.226,3.099
					c2.518,1.389,7.071-0.148,8.132-2.833c0.236-0.601-0.73-0.857-0.965-0.266c-0.542,1.37-2.138,1.96-3.435,2.334
					c-0.694,0.199-1.409,0.249-2.126,0.228c-2.242-0.063-1.033-2.004-0.254-2.972c2.359-2.928,2.68-7.383,3.13-10.957
					C348.951,80.36,347.95,80.368,347.871,80.999L347.871,80.999z"/>
			</g>
		</g>
		<g>
			<g>
				<path fill="#1E1E1C" d="M347.239,98.981c1.695,0.311,3.339,0.046,4.932-0.583c0.593-0.234,0.334-1.202-0.266-0.965
					c-1.412,0.559-2.889,0.859-4.4,0.583C346.873,97.901,346.605,98.865,347.239,98.981L347.239,98.981z"/>
			</g>
		</g>
	</g>
	<g>
		<path fill="#82CFF5" d="M336.193,59.715c-0.978-0.759-3.362,0.761-4.338,1.41c-3.579,2.386-5.641,6.725-6.509,10.846
			c-0.324,1.519-1.191,6.94,1.735,5.747c2.061-0.866,2.929-4.771,3.146-6.614c-2.819,0.542-2.061,8.566,1.628,7.917
			c4.555-0.868,5.422-9.22,6.182-12.688c0.434-2.387,3.036-4.989,0.65-6.29c-1.845-0.977-3.036-0.759-4.556,0.435"/>
	</g>
	<path fill="#0E8CCD" d="M321.004,121.915c0.371,1.022-13.688,21.822-9.989,41.94c3.699,20.118,22.198,32.395,22.198,32.395
		l0.74-9.89c0,0-12.948-10.911-14.799-23.868s8.509-33.758,8.509-33.758"/>
	<path fill="#0E8CCD" d="M372.011,121.248c-0.371,1.022,13.688,21.822,9.989,41.94s-22.198,32.394-22.198,32.394l-0.739-9.889
		c0,0,12.947-10.911,14.799-23.868c1.85-12.957-8.509-33.758-8.509-33.758"/>
</g>
<g>
	<g>
		<g>
			<path fill="#82CFF5" d="M606.734,100.117c-6.167,2.528-7.707-0.362-13.874,4.333c-5.395,3.974-10.79,11.918-11.176,18.779
				c8.093,0,14.259,0.723,19.653-6.142c3.469-4.333,6.938-12.639,4.625-16.972"/>
		</g>
		<path fill="#FFFFFF" d="M599.522,132.017l4.721,4.802c-7.19,27.942-7.008,28.088-5.558,41.054
			c1.519,13.566,4.77,13.553,4.77,13.553s-0.317,7.541-0.676,9.052c-0.352,1.51-7.717-12.372-9.495-20.164
			C590.323,167.351,599.174,134.731,599.522,132.017z"/>
		<path fill="#FFFFFF" d="M632.578,131.875l-4.671,4.843c7.494,27.87,8.04,20.105,6.729,33.083
			c-1.372,13.58-10.404,22.391-10.404,22.391c0.462,8.688-1.89,9.299,0.387,9.029c1.884-0.224,14.258-20.226,15.8-30.337
			C642.42,157.766,632.956,134.584,632.578,131.875z"/>
		<path fill="#0E8CCD" d="M626.23,177.62c0,0-6.336,110.777-4.58,114.537c1.756,3.759,29.79,13.096,20.553,14.392
			c-12.832,1.801-26.441-12.626-26.441-12.626l-2.653-84.434l-3.469,1.61c0,0,1.271,84.585,0.23,84.59
			c-1.039,0.005-12.091,10.487-23.203,9.094c-5.099-0.642,17.635-11.677,17.635-11.677s-3.777-116.078-2.734-115.796
			C602.612,177.597,626.23,177.62,626.23,177.62z"/>
		<path fill="#0E8CCD" d="M634.502,132.663c0,0-5.373-11.131-19.211-10.26c-13.843,0.871-17.003,11.508-17.003,11.508l5.981,5.482
			c-8.585,50.723-2.089,61.271,14.181,64.713c11.945,2.527,7.146-63.648,7.146-63.648"/>
		<path fill="#FFFFFF" d="M601.344,86.224c0.304,4.984,0.63,9.981,1.358,14.938c0.716,4.859,1.851,12.058,8.562,13.717
			c6.019,1.486,13.274-0.135,17.727-3.852c7.996-6.692,9.016-16.389,10.39-25.523c2.418-4.188,3.44-9.047,0.375-13.155
			c-4.271-5.715-12.703-8.613-20.604-7.912c-7.201,0.637-14.27,4.904-16.786,10.646C600.75,78.765,601.105,82.362,601.344,86.224z"
			/>
		<path fill="none" stroke="#1E1E1C" stroke-width="0.9986" stroke-miterlimit="10" d="M625.125,88.323
			c0.006,1.196,0.614,2.162,1.363,2.159c0.747-0.004,1.352-0.978,1.342-2.173c-0.003-1.195-0.617-2.158-1.362-2.154
			C625.717,86.159,625.118,87.13,625.125,88.323z"/>
		<path fill="none" stroke="#1E1E1C" stroke-width="0.9986" stroke-miterlimit="10" d="M610.284,87.606
			c0.007,1.196,0.617,2.161,1.365,2.159c0.749-0.004,1.349-0.978,1.343-2.173c-0.009-1.193-0.619-2.156-1.367-2.154
			S610.276,86.413,610.284,87.606z"/>
		<g>
			<g>
				<path fill="#1E1E1C" d="M618.48,91.239c0.576,1.654,1.214,3.187,2.562,4.346c0.683,0.588,1.596,1.567,0.277,2.064
					c-0.722,0.271-1.591,0.164-2.312-0.036c-0.616-0.171-0.878,0.785-0.264,0.955c1.197,0.332,3.909,0.478,4.254-1.229
					c0.172-0.85-0.08-1.364-0.686-1.956c-0.444-0.436-0.948-0.807-1.388-1.251c-0.76-0.768-1.146-2.169-1.49-3.156
					C619.226,90.377,618.269,90.635,618.48,91.239L618.48,91.239z"/>
			</g>
		</g>
		<g>
			<g>
				<path fill="#1E1E1C" d="M619.133,101.234c-0.695,0-1.416,0.027-2.105-0.075c-0.625-0.093-0.894,0.861-0.264,0.955
					c0.782,0.116,1.58,0.11,2.369,0.11C619.771,102.225,619.771,101.234,619.133,101.234L619.133,101.234z"/>
			</g>
		</g>
		<path fill="#FFFFFF" d="M610.832,123.484c1.282-4.284,0.858-8.997,4.405-12.921c3.918-4.331,4.524,9.088,4.529,9.184
			c0.146,2.637-0.695,3.062,3.082,3.077c3.297,0.008,0.49,4.29-0.652,4.929c-2.396,1.347-6.156,1.263-8.769,0.518
			C612.118,127.897,606.569,123.738,610.832,123.484C610.917,123.21,609.879,123.541,610.832,123.484z"/>
	</g>
	<g>
		<path fill="#82CFF5" d="M618.839,58.932c-1.542,15.527,9.634,29.974,24.664,35.392c-0.386-11.195,4.623-18.779-5.011-28.169
			c-5.396-5.778-13.873-8.306-21.967-7.223"/>
	</g>
	<g>
		<path fill="#82CFF5" d="M619.801,59.292c1.541,15.529-9.635,29.976-24.664,35.394c0.386-11.195-4.624-18.779,5.011-28.169
			c5.396-5.778,13.874-8.307,21.966-7.225"/>
	</g>
</g>
<g display="none">
	<path display="inline" fill="#82CFF5" d="M177.884,174.21c0,0-207.591,72.6-174.261,125.988
		c33.323,53.39,185.475-100.731,185.475-100.731L177.884,174.21z"/>
	<circle display="inline" fill="#82CFF5" cx="280.125" cy="125.769" r="125.743"/>
	<circle display="inline" fill="#FFFFFF" cx="280.196" cy="123.824" r="105.031"/>
	<g display="inline">
		<path fill="#FEEDA4" d="M337.403,72.645c-6.254-14.033-17.252-23.685-29.159-29.806c-5.695-2.932-45.938-16.217-48.111-8.713
			c-3.349,2.185-9.44-1.479-13.86-0.511c-8.979,1.969-17.318,7.674-23.819,15.337c-15.615,18.423-12.396,34.178-8.498,57.167
			c3.267,19.274,8.516,26.171,22.355,36.28c16.873,12.319,8.227,37.211-10.791,34.92c-12.119-1.458-40.666-10.324-24.148-30.473
			c4.496-5.484,11.004-5.604,15.084,0.813c3.949,6.214,1.084,12.928-2.046,7.478c-2.629-4.583-15.655,6.758-2.37,10.245
			c13.692,3.591,18.679-21.067,11.477-31.657c-9.832-14.443-33.64,7.477-34.475,21.269c-1.066,17.813,15.019,37.532,26.63,45.188
			C279.04,241.961,376.131,159.508,337.403,72.645C331.091,58.482,348.614,97.789,337.403,72.645z M212.311,136.296
			c6.549-2.136,8.438,1.339,8.758,8.096C218.971,141.234,208.434,137.556,212.311,136.296
			C214.281,135.65,211.684,136.501,212.311,136.296z"/>
		<path fill="#1E1E1C" d="M272.234,206.545c0.89-13.565,1.442-35.166,1.396-44.531c-0.004-0.796-10.513-0.277-10.488-0.477
			c1.511-12.567,8.951-21.771,23.929-23.105c24.741-2.207,22.856,23.034,22.856,23.034c-2.205-1.322-9.357,1.119-9.547,1.276
			c-6.633,5.797-2.361,39.684-2.361,39.684"/>
		<path fill="#FFFFFF" d="M286.852,225.221c0.117-7.269,0.2-12.246,0.2-12.246s-11.048-21.875,9.862-0.531
			c2.854,2.917,4.88,6.371,6.252,10.156C297.764,223.711,292.31,224.574,286.852,225.221z"/>
		<path fill="#FFFFFF" d="M283.251,225.613c-1.809,0.184-3.612,0.347-5.413,0.484c-3.635-0.854-7.305-1.746-10.995-2.587
			c1.011-4.893,2.664-9.525,5.173-13.623c15.609-25.479,10.897,0.177,10.897,0.177S283.056,216.543,283.251,225.613z"/>
		<path fill="#0DA2DD" d="M277.838,226.098c-5.744-1.347-11.575-2.798-17.446-3.986c1.17-4.766,2.837-10.029,5.013-13.69
			c5.958-10.037,8.411-9.617,8.411-9.617l23.398,0.313c3.403,3.718,9.765,13.102,12.428,22.022
			C299.192,223.701,288.467,225.292,277.838,226.098z"/>
		<path fill="#82CFF5" d="M277.838,226.098c-6.433-1.507-12.976-3.146-19.555-4.4l-1.363-14.234l62.498-0.611l-1.104,11.918
			C305.186,222.752,291.434,225.066,277.838,226.098z"/>
		<g>
			<path fill="#FFFFFF" d="M305.771,97.87c-0.002-0.003-0.002-0.003-0.002-0.003c-1.396-4.49-4.295-3.2-6.945-0.975
				c0.507-3.681,1.513-7.534,1.57-10.857c0.021-1.258,0.062-2.734,0.065-4.279c-8.173-0.55-16.337-2.127-24.068-4.151
				c-10.14-2.656-17.831-7.517-24.656-14.565c-3.864,2.354-7.096,5.939-10.029,10.624c-0.754,1.211-8.412,17.033-10.352,21.822
				c-4.135,10.188,16.585,24.748,24.085,33.826c1.88,2.273,11.494,0.256,20.176-1.986c1.521-0.393,4.925-2.454,6.604-2.701
				c0.943,3.314,0.635,17.487,0.548,21.392c-0.063,2.926,3.443,4.033,5.336,2.344c0.533-0.256,1.007-0.72,1.329-1.469
				c0.32-0.76,0.627-1.614,0.92-2.509c2.266-5.147,1.21-18.046,5.17-29.844c5.33-4.271,12.688-8.792,10.249-16.663
				C306.337,99.696,307.323,102.885,305.771,97.87z"/>
		</g>
		<path fill="none" stroke="#020303" stroke-width="1.0176" stroke-miterlimit="10" d="M244.23,89.184
			c0.007,1.688-1.003,3.066-2.251,3.072c-1.259,0.008-2.276-1.359-2.286-3.051c-0.008-1.69,0.998-3.064,2.254-3.07
			C243.196,86.129,244.222,87.493,244.23,89.184z"/>
		<g>
			<g>
				<path fill="#020303" d="M257.52,85.775c-1.095,2.248-0.754,4.775-1.379,7.146c-1.151,4.358-4.946-0.355-7.09,1.559
					c-4.14,3.694,3.205,7.104,6.221,7.228c0.869,0.036,0.865-1.311,0-1.346c-2.024-0.083-4.577-1.02-5.765-2.733
					c-0.889-1.284,0.484-2.375,1.665-2.063c0.503,0.133,0.996,0.358,1.486,0.53c0.771,0.271,1.482,0.205,2.253-0.009
					c3.923-1.088,2.436-6.891,3.771-9.63C259.062,85.677,257.9,84.995,257.52,85.775L257.52,85.775z"/>
			</g>
		</g>
		<g>
			<g>
				<path fill="#020303" d="M262.902,105.705c-2.963,0.71-8.577,3.134-11.256,0.877c0.035,0.272,0.07,0.544,0.105,0.816
					c1.904-2.82,7.088-1.19,9.719-0.389c0.833,0.255,1.188-1.046,0.358-1.299c-3.335-1.017-8.865-2.508-11.24,1.007
					c-0.158,0.233-0.113,0.633,0.104,0.816c3.26,2.746,8.996,0.323,12.566-0.531C264.104,106.802,263.746,105.503,262.902,105.705
					L262.902,105.705z"/>
			</g>
		</g>
		<g>
			<g>
				<path fill="#020303" d="M253.085,108.967c0.981,0.995,2.117,1.729,3.562,1.631c1.4-0.096,2.549-1.144,3.424-2.141
					c0.57-0.649-0.379-1.605-0.951-0.953c-0.662,0.756-1.361,1.431-2.349,1.716c-1.07,0.312-2.047-0.509-2.733-1.205
					C253.427,107.396,252.475,108.348,253.085,108.967L253.085,108.967z"/>
			</g>
		</g>
		<g>
			<path fill="#1E1E1C" d="M265.112,90.121c2.91-6.211,14.256-5.541,17.869-1.918c1.632-0.735,4.238-2.725,5.05-4.184
				c-4.245,1.658-4.383,1.222-5.631,0.816c-6.823-2.191-12.569-3.816-17.138,4.771"/>
			<g>
				<path fill="#020303" d="M265.538,90.37c2.887-5.579,12.783-5.831,17.095-1.818c0.171,0.16,0.392,0.181,0.598,0.077
					c2.013-1,3.988-2.46,5.228-4.359c0.226-0.347-0.15-0.88-0.558-0.726c-1.834,0.7-3.457,1.473-5.368,0.817
					c-2.316-0.793-4.701-1.469-7.144-1.721c-4.936-0.51-8.3,2.668-10.551,6.718c-0.311,0.557,0.542,1.054,0.852,0.498
					c1.447-2.604,3.23-4.948,6.147-5.926c2.193-0.734,4.646-0.241,6.818,0.301c1.601,0.397,3.151,1.123,4.766,1.43
					c1.548,0.295,3.366-0.64,4.744-1.166c-0.187-0.241-0.372-0.482-0.558-0.725c-0.947,1.454-2.356,2.502-3.799,3.43
					c-0.978,0.628-1.395-0.15-2.312-0.663c-1.741-0.971-3.786-1.346-5.747-1.523c-4.171-0.38-9.016,0.906-11.061,4.858
					C264.395,90.437,265.246,90.936,265.538,90.37L265.538,90.37z"/>
			</g>
		</g>
		<g>
			<path fill="#1E1E1C" d="M252.236,89.831c-2.274-4.734-10.966-4.136-13.705-1.33c-1.252-0.555-3.265-2.056-3.897-3.166
				c3.264,1.235,3.366,0.896,4.316,0.584c5.211-1.733,9.604-3.025,13.165,3.521"/>
			<g>
				<path fill="#020303" d="M252.562,89.641c-1.612-2.959-4.967-3.772-8.124-3.668c-1.438,0.048-2.994,0.364-4.29,0.996
					c-0.576,0.281-1.088,0.6-1.592,0.991c-0.69,0.539-3.247-2.308-3.598-2.815c-0.143,0.185-0.284,0.37-0.428,0.555
					c2.983,1.095,3.925,0.714,6.864-0.158c4.626-1.372,7.951-0.156,10.394,4.089c0.242,0.424,0.896,0.042,0.651-0.381
					c-1.777-3.092-4.131-5.229-7.843-5.092c-1.757,0.065-3.496,0.663-5.152,1.199c-1.806,0.586-2.892,0.282-4.713-0.386
					c-0.306-0.112-0.609,0.288-0.427,0.555c0.999,1.448,2.472,2.522,4.034,3.302c0.158,0.079,0.327,0.063,0.458-0.059
					c3.326-3.098,10.795-2.996,13.112,1.253C252.143,90.45,252.796,90.068,252.562,89.641L252.562,89.641z"/>
			</g>
		</g>
		
			<ellipse transform="matrix(-0.0051 -1 1 -0.0051 180.3727 382.9292)" fill="#F6AD9E" cx="280.669" cy="101.741" rx="4.082" ry="5.958"/>
		<path fill="#F6AD9E" d="M244.234,98.124c0.015,2.252-2.641,4.098-5.932,4.112c-3.291,0.018-5.97-1.799-5.98-4.053
			c-0.012-2.254,2.648-4.097,5.939-4.115C241.553,94.055,244.224,95.869,244.234,98.124z"/>
		<path fill="none" stroke="#020303" stroke-width="1.0176" stroke-miterlimit="10" d="M275.268,88.783
			c0.011,2.014-1.19,3.656-2.688,3.662c-1.493,0.008-2.71-1.621-2.722-3.636c-0.009-2.021,1.19-3.659,2.686-3.667
			C274.039,85.137,275.259,86.762,275.268,88.783z"/>
		<path fill="#FFFFFF" d="M282.224,225.713c-1.465,0.144-2.926,0.273-4.386,0.386c-0.461-0.109-0.923-0.219-1.382-0.326
			c-0.796-1.023-1.654-2.168-2.61-3.484c-9.025-12.459-6.928-23.807-6.971-32.172c-0.015-2.655-4.359-28.473-4.181-28.57
			c5.321-2.826,10.541,0.39,10.541,0.39s-0.018,6.555,1.146,23.978C275.182,197.871,279.557,215.71,282.224,225.713z"/>
		<path fill="#FFFFFF" d="M298.662,220.363c-0.95,1.339-1.812,2.511-2.599,3.549c-1.989,0.33-3.985,0.631-5.982,0.898
			c2.533-9.816,6.982-28.461,7.683-40.818c0.986-17.432,0.79-19.264,1.037-20.797c0.411-2.545,10.475-2.936,10.475-2.936
			c-0.829,4.42-3.975,25.21-3.963,27.862C305.356,196.493,307.561,207.814,298.662,220.363z"/>
		<g>
			<g>
				<path fill="#FFFFFF" d="M263.44,50.16c2.108,9.49,12.09,14.556,20.431,17.595c9.186,3.349,19.62,5.369,29.432,4.943
					c0.753-0.032,0.756-1.205,0-1.172c-9.026,0.391-18.354-1.412-26.917-4.149c-8.606-2.751-19.645-7.758-21.815-17.528
					C264.407,49.11,263.277,49.423,263.44,50.16L263.44,50.16z"/>
			</g>
		</g>
		<g>
			<g>
				<path fill="#FFFFFF" d="M277.479,51.349c4.064,7.465,14.621,9.078,22.201,10.22c0.739,0.111,1.057-1.02,0.312-1.131
					c-7.259-1.092-17.61-2.539-21.499-9.682C278.13,50.093,277.117,50.685,277.479,51.349L277.479,51.349z"/>
			</g>
		</g>
		<g>
			<g>
				<path fill="#FFFFFF" d="M244.173,54.628c-7.494,4.812-12.368,12.416-17.907,19.185c-0.475,0.58,0.351,1.415,0.829,0.83
					c5.465-6.68,10.275-14.253,17.669-19.001C245.398,55.234,244.811,54.219,244.173,54.628L244.173,54.628z"/>
			</g>
		</g>
		<g>
			<g>
				<path fill="#020303" d="M247.861,75.751c-3.226,1.302-6.624,1.905-10.019,2.592c-0.643,0.131-0.37,1.11,0.271,0.98
					c3.396-0.686,6.792-1.29,10.02-2.592C248.732,76.489,248.47,75.505,247.861,75.751L247.861,75.751z"/>
			</g>
		</g>
	</g>
</g>
</svg>
