<?xml version="1.0" encoding="utf-8"?>
<!-- Generator: Adobe Illustrator 16.0.4, SVG Export Plug-In . SVG Version: 6.00 Build 0)  -->
<!DOCTYPE svg PUBLIC "-//W3C//DTD SVG 1.1//EN" "http://www.w3.org/Graphics/SVG/1.1/DTD/svg11.dtd">
<svg version="1.1" id="Layer_1" xmlns="http://www.w3.org/2000/svg" xmlns:xlink="http://www.w3.org/1999/xlink" x="0px" y="0px"
	 width="646.947px" height="311.439px" viewBox="0 0 646.947 311.439" enable-background="new 0 0 646.947 311.439"
	 xml:space="preserve">
<g>
	<circle fill="#FFFFFF" cx="280.196" cy="123.823" r="120.473"/>
</g>
<g>
	<path fill="#FEEDA4" d="M337.387,70.853c-6.236-14.187-17.282-23.978-29.264-30.213c-5.732-2.985-46.256-16.588-48.486-9.035
		c-3.391,2.188-9.517-1.538-13.979-0.584c-9.068,1.938-17.508,7.653-24.103,15.349c-15.846,18.504-12.677,34.413-8.864,57.62
		c3.197,19.461,8.458,26.444,22.368,36.709c16.957,12.515,8.105,37.578-11.062,35.17c-12.219-1.532-40.967-10.622-24.204-30.86
		c4.562-5.509,11.127-5.595,15.21,0.898c3.954,6.288,1.029,13.046-2.102,7.531c-2.628-4.635-15.825,6.738-2.443,10.321
		c13.794,3.692,18.95-21.156,11.738-31.872c-9.843-14.62-33.971,7.365-34.882,21.277c-1.167,17.959,14.959,37.934,26.633,45.714
		C277.658,241.345,376.013,158.667,337.387,70.853C331.093,56.534,348.565,96.272,337.387,70.853z M210.883,134.421
		c6.62-2.12,8.507,1.394,8.793,8.209C217.577,139.437,206.968,135.672,210.883,134.421
		C212.874,133.781,210.251,134.624,210.883,134.421z"/>
	<path fill="#1E1E1C" d="M297,201.562c0,0-4.133-34.203,2.586-40.016c0.19-0.162,7.416-2.588,9.638-1.24
		c0,0,2.028-25.451-22.939-23.353c-15.113,1.271-22.664,10.52-24.254,23.188c-0.026,0.198,10.576-0.27,10.576,0.532
		c0,9.447-0.67,31.232-1.636,44.912"/>
	<path fill="#FFFFFF" d="M303.186,242.133c0.338-0.119,0.704-0.204,1.099-0.249c0.751-11.274-1.016-22.558-8.447-30.222
		c-20.983-21.635-9.95,0.484-9.95,0.484s-0.347,16.011-0.676,32.599c1.016-0.079,1.708-0.205,2.909-0.352
		c0.839-0.104,1.668-0.172,2.5-0.182c4.011-0.523,8.104-0.823,11.941-1.938C302.775,242.212,302.982,242.168,303.186,242.133z"/>
	<path fill="#FFFFFF" d="M274.974,244.22c0.421,0,0.803,0.058,1.168,0.138c1.584,0.179,3.2,0.303,4.823,0.394
		c0.445,0.012,0.89,0.013,1.335,0.019c-0.273-17.922-0.575-35.581-0.575-35.581s4.884-25.854-10.991-0.233
		c-5.987,9.658-7.234,22.311-6.481,34.333c0.001,0,0.002,0.001,0.004,0.001c3.305,0.35,6.608,0.692,9.915,0.992
		C274.429,244.246,274.694,244.22,274.974,244.22z"/>
	<path fill="#0DA2DD" d="M296.208,198.218l-23.601-0.436c0,0-2.473-0.436-8.536,9.66c-5.823,9.693-8.163,30.612-6.967,24.123
		l23.862,13.187c0.698,0.019,1.396,0.024,2.094,0.028c5.457-1.307,25.019-6.486,26.497-13.957
		C311.664,220.156,301.01,203.516,296.208,198.218z"/>
	<path fill="#0E8CCD" d="M313.478,236.981c-1.285,0-2.46-6.897-2.46-6.897l-27.587,13.655l0.127,1.046
		c0.367,0.001,0.735-0.003,1.102-0.004c1.346-0.073,2.057-0.216,3.461-0.388c0.834-0.103,1.658-0.171,2.485-0.182
		c1.446-0.19,2.902-0.354,4.355-0.531C314.57,237.126,315.514,236.981,313.478,236.981z"/>
	<path fill="#0E8CCD" d="M274.974,244.22c0.42,0,0.802,0.058,1.167,0.138c1.608,0.182,3.25,0.304,4.897,0.395
		c0.688,0.018,1.376,0.024,2.065,0.028l-0.01-0.692l-26.356-13.112c0,0-1.575,8.017-2.864,8.017c-0.682,0,7.595,2.492,15.517,4.832
		c1.595,0.162,3.19,0.312,4.787,0.456C274.432,244.246,274.695,244.22,274.974,244.22z"/>
	<path fill="#82CFF5" d="M311.563,240.206c0.166-0.056,0.347-0.088,0.524-0.128c0.438-0.201,0.93-0.338,1.475-0.4
		c0.217-0.106,0.451-0.194,0.696-0.269c0.331-0.151,0.695-0.265,1.087-0.34l3.22-32.936l-63.046,0.301l3.07,33.836h52.723
		C311.396,240.249,311.477,240.223,311.563,240.206z"/>
	<g>
		<path fill="#FFFFFF" d="M305.353,96.139c2.418,7.952-5.027,12.475-10.422,16.756c-4.056,11.881-3.057,24.896-5.366,30.077
			c-0.3,0.901-0.614,1.762-0.944,2.525c-0.326,0.755-0.805,1.221-1.345,1.476c-1.92,1.693-5.45,0.559-5.37-2.391
			c0.107-3.938,0.49-18.233-0.445-21.58c-1.695,0.239-5.142,2.302-6.674,2.69c-8.769,2.218-18.478,4.205-20.361,1.901
			c-7.517-9.194-28.343-23.986-24.123-34.241c1.979-4.822,9.783-20.743,10.551-21.96c2.981-4.709,6.259-8.314,10.169-10.664
			c6.849,7.143,14.582,12.085,24.796,14.815c7.791,2.083,16.017,3.714,24.259,4.312c-0.015,1.557-0.064,3.045-0.089,4.316
			c-0.077,3.35-1.112,7.234-1.641,10.943c2.687-2.23,5.616-3.517,7.002,1.017c0,0.001,0,0.001,0.001,0.003
			C306.893,101.203,305.912,97.981,305.353,96.139z"/>
	</g>
	<path fill="none" stroke="#020303" stroke-width="0.9485" stroke-miterlimit="10" d="M241.035,83.974
		c-1.269,0-2.29,1.38-2.29,3.087c0,1.705,1.021,3.089,2.29,3.089c1.261,0,2.284-1.384,2.284-3.089
		C243.319,85.354,242.296,83.974,241.035,83.974z"/>
	<g>
		<g>
			<path fill="#020303" d="M257.914,84.379c0.38-0.784-0.791-1.472-1.171-0.685c-1.183,2.433-0.254,5.953-1.827,8.1
				c-1.928,2.634-4.8-0.934-7.109,0.936c-1.745,1.412-0.439,3.818,0.843,4.896c1.522,1.281,3.78,2.027,5.75,2.123
				c0.876,0.042,0.872-1.316,0-1.358c-1.636-0.079-6.331-1.349-6.04-3.647c0.29-2.296,4.453-0.079,5.917-0.754
				C258.021,92.265,256.422,87.444,257.914,84.379L257.914,84.379z"/>
		</g>
	</g>
	<g>
		<g>
			<path fill="#020303" d="M262.428,105.134c0.854-0.2,0.492-1.509-0.362-1.311c-2.994,0.701-8.667,3.115-11.358,0.823
				c0.037,0.275,0.072,0.549,0.105,0.823c1.933-2.83,7.169-1.156,9.808-0.336c0.839,0.26,1.195-1.051,0.361-1.311
				c-3.364-1.045-8.926-2.576-11.341,0.96c-0.16,0.236-0.111,0.638,0.107,0.823C253.021,108.392,258.824,105.977,262.428,105.134
				L262.428,105.134z"/>
		</g>
	</g>
	<g>
		<g>
			<path fill="#020303" d="M253.117,106.104c-0.616-0.627-1.575,0.334-0.962,0.961c1.027,1.048,2.23,1.816,3.745,1.636
				c1.353-0.16,2.438-1.146,3.305-2.119c0.577-0.654-0.38-1.617-0.963-0.962c-0.654,0.738-1.581,1.758-2.664,1.758
				C254.535,107.38,253.819,106.822,253.117,106.104L253.117,106.104z"/>
		</g>
	</g>
	<g>
		<path fill="#1E1E1C" d="M264.535,87.596c4.651-8.641,10.438-6.971,17.311-4.724c1.254,0.411,1.392,0.855,5.685-0.798
			c-0.829,1.469-3.469,3.46-5.118,4.195c-3.626-3.674-15.065-4.405-18.033,1.845"/>
		<g>
			<path fill="#020303" d="M263.95,87.863c-0.3,0.566,0.559,1.07,0.859,0.5c2.954-5.61,12.91-5.813,17.25-1.743
				c0.174,0.162,0.396,0.18,0.604,0.078c2.036-1,4.035-2.461,5.295-4.374c0.229-0.348-0.153-0.884-0.562-0.731
				c-2.328,0.875-3.76,1.326-6.082,0.583c-2.24-0.717-4.588-1.509-6.959-1.588c-4.853-0.161-7.967,2.702-10.252,6.755
				c-0.316,0.56,0.544,1.062,0.859,0.502c1.486-2.631,3.526-5.439,6.698-6.064c2.293-0.454,4.589-0.067,6.813,0.569
				c1.477,0.422,2.975,1.127,4.49,1.369c1.548,0.245,3.313-0.646,4.698-1.166c-0.189-0.244-0.376-0.487-0.563-0.731
				c-1.042,1.581-2.723,2.928-4.417,3.76c-0.336,0.167-1.542-0.901-1.876-1.062c-1.915-0.929-4.031-1.467-6.163-1.539
				C270.517,82.844,266.009,83.95,263.95,87.863L263.95,87.863z"/>
		</g>
	</g>
	<g>
		<path fill="#1E1E1C" d="M251.274,87.359c-3.561-6.621-7.999-5.339-13.265-3.618c-0.961,0.313-1.064,0.653-4.352-0.611
			c0.634,1.125,2.655,2.649,3.917,3.214c2.779-2.815,11.545-3.375,13.818,1.412"/>
		<g>
			<path fill="#020303" d="M251.064,87.948c0.234,0.433,0.893,0.047,0.658-0.388c-1.591-2.924-5.083-3.985-8.26-3.735
				c-1.548,0.124-3.174,0.379-4.56,1.126c-0.331,0.179-1.224,1.053-1.64,0.806c-1.25-0.746-2.442-1.605-3.276-2.823
				c-0.142,0.188-0.285,0.374-0.429,0.561c3.125,1.162,4.012,0.634,7.119-0.178c4.649-1.213,7.824-0.043,10.267,4.232
				c0.244,0.427,0.903,0.043,0.659-0.384c-1.73-3.029-4.269-5.543-8.021-5.163c-1.724,0.174-3.375,0.624-5.019,1.158
				c-1.838,0.596-2.951,0.289-4.804-0.401c-0.31-0.115-0.61,0.293-0.429,0.561c1.001,1.465,2.482,2.558,4.055,3.35
				c0.159,0.08,0.329,0.063,0.461-0.059C241.236,83.508,248.729,83.654,251.064,87.948L251.064,87.948z"/>
		</g>
	</g>
	<path fill="#F6AD9E" d="M280.007,95.802c-3.323,0-6.014,1.843-6.014,4.118c0,2.27,2.692,4.117,6.014,4.117
		c3.319,0,6.008-1.847,6.008-4.117C286.014,97.644,283.326,95.801,280.007,95.802z"/>
	<path fill="#F6AD9E" d="M237.274,91.96c-3.32,0-6.011,1.845-6.011,4.12c0,2.272,2.694,4.118,6.011,4.118
		c3.32,0,6.006-1.846,6.006-4.118C243.28,93.805,240.594,91.96,237.274,91.96z"/>
	<path fill="none" stroke="#020303" stroke-width="0.9485" stroke-miterlimit="10" d="M271.903,83.129
		c-1.507,0-2.726,1.647-2.726,3.685c0,2.033,1.218,3.682,2.726,3.682c1.509,0,2.731-1.649,2.731-3.682
		C274.634,84.776,273.411,83.129,271.903,83.129z"/>
	<path fill="#FFFFFF" d="M272.211,160.591c0,0-0.053,6.61,1.034,24.191c1.084,17.58,9.761,47.771,9.761,47.771
		s-0.616,0.653-3.566-2.41c-1.563-1.627-3.788-4.301-6.921-8.672c-9.041-12.614-6.87-24.045-6.87-32.489
		c0-2.674-4.252-28.737-4.071-28.836C266.964,157.32,272.211,160.591,272.211,160.591z"/>
	<path fill="#FFFFFF" d="M297.986,161.992c-0.255,1.548-0.064,3.396-1.149,20.975c-1.084,17.582-9.765,47.773-9.765,47.773
		s1.447,1.528,10.486-11.081c9.042-12.614,6.874-24.045,6.874-32.487c0-2.677,3.277-23.632,4.137-28.086
		C308.57,159.086,298.416,159.427,297.986,161.992z"/>
	<path fill="#FFFFFF" d="M284.662,244.78c1.064-0.058,1.739-0.159,2.666-0.284c-1.454-2.383-3.217-5.626-2.347-6.369
		c1.354-1.155,3.736,4.326,6.177,3.344c2.438-0.982,1.817-1.636,1.817-1.636s-1.976,0.197-3.205-2.392
		c-1.591-3.364-0.476-6.627-5.52-7.768c-5.04-1.135-5.844-0.761-5.844-0.761c-0.204,0.528-3.063,10.007-3.073,15.323
		c0.302,0.019,0.584,0.065,0.856,0.125c1.422,0.159,2.87,0.279,4.324,0.369C281.895,244.778,283.279,244.783,284.662,244.78z"/>
	<path fill="#FFFFFF" d="M284.665,237.383c1.002,0.854-1.489,5.029-2.974,7.379c0.981,0.018,1.963,0.021,2.945,0.021
		c1.36-0.072,2.072-0.216,3.484-0.389c0.827-0.102,1.643-0.169,2.462-0.182c1.24-0.163,2.488-0.305,3.734-0.453
		c0.084-5.263-2.871-15.05-3.078-15.589c0,0-0.803-0.375-5.842,0.765c-5.042,1.137-3.927,4.4-5.52,7.763
		c-1.23,2.596-3.21,2.395-3.21,2.395s-0.619,0.655,1.821,1.635C280.925,241.708,283.31,236.229,284.665,237.383z"/>
	<g>
		<g>
			<path fill="#FFFFFF" d="M264.039,47.485c-0.164-0.745-1.303-0.428-1.143,0.314c2.118,9.707,12.466,15.02,21.03,18.032
				c9.178,3.23,19.375,5.324,29.152,4.954c0.761-0.029,0.763-1.212,0-1.183c-9.242,0.35-18.927-1.514-27.643-4.496
				C276.912,62.19,266.165,57.227,264.039,47.485L264.039,47.485z"/>
		</g>
	</g>
	<g>
		<g>
			<path fill="#FFFFFF" d="M278.073,48.471c-0.363-0.671-1.384-0.073-1.023,0.598c4.084,7.546,14.69,9.227,22.344,10.419
				c0.744,0.116,1.064-1.024,0.315-1.141C292.375,57.205,281.981,55.695,278.073,48.471L278.073,48.471z"/>
		</g>
	</g>
	<g>
		<g>
			<path fill="#FFFFFF" d="M244.033,53.227c0.641-0.408,0.047-1.432-0.597-1.021c-7.578,4.828-12.537,12.456-18.159,19.262
				c-0.484,0.582,0.35,1.424,0.836,0.835C231.661,65.588,236.553,57.992,244.033,53.227L244.033,53.227z"/>
		</g>
	</g>
	<g>
		<g>
			<path fill="#020303" d="M247.321,74.522c0.606-0.242,0.343-1.234-0.273-0.991c-3.26,1.295-6.69,1.887-10.118,2.562
				c-0.651,0.129-0.375,1.118,0.273,0.991C240.631,76.408,244.06,75.815,247.321,74.522L247.321,74.522z"/>
		</g>
	</g>
</g>
</svg>
