<?xml version="1.0" encoding="utf-8"?>
<!-- Generator: Adobe Illustrator 16.0.4, SVG Export Plug-In . SVG Version: 6.00 Build 0)  -->
<!DOCTYPE svg PUBLIC "-//W3C//DTD SVG 1.1//EN" "http://www.w3.org/Graphics/SVG/1.1/DTD/svg11.dtd">
<svg version="1.1" id="Layer_1" xmlns="http://www.w3.org/2000/svg" xmlns:xlink="http://www.w3.org/1999/xlink" x="0px" y="0px"
	 width="646.947px" height="311.439px" viewBox="0 0 646.947 311.439" enable-background="new 0 0 646.947 311.439"
	 xml:space="preserve">
<g>
	<path fill="#82CFF5" d="M177.884,174.21c0,0-207.591,72.601-174.261,125.988c33.323,53.39,185.476-100.731,185.476-100.731
		L177.884,174.21z"/>
	<path fill="#82CFF5" d="M280.125,0.026c-69.445,0-125.743,56.297-125.743,125.743c0,69.444,56.298,125.741,125.743,125.741
		s125.742-56.297,125.742-125.741C405.867,56.323,349.571,0.026,280.125,0.026z M280.196,228.855
		c-58.007,0-105.03-47.024-105.03-105.031s47.023-105.031,105.03-105.031s105.031,47.024,105.031,105.031
		S338.202,228.855,280.196,228.855z"/>
</g>
<circle opacity="0.25" fill="#FFFFFF" cx="280.194" cy="123.824" r="105.031"/>
</svg>
