<?xml version="1.0" encoding="utf-8"?>
<!-- Generator: Adobe Illustrator 16.0.4, SVG Export Plug-In . SVG Version: 6.00 Build 0)  -->
<!DOCTYPE svg PUBLIC "-//W3C//DTD SVG 1.1//EN" "http://www.w3.org/Graphics/SVG/1.1/DTD/svg11.dtd">
<svg version="1.1" id="Layer_1" xmlns="http://www.w3.org/2000/svg" xmlns:xlink="http://www.w3.org/1999/xlink" x="0px" y="0px"
	 width="646.947px" height="311.439px" viewBox="0 0 646.947 311.439" enable-background="new 0 0 646.947 311.439"
	 xml:space="preserve">
<g>
	<path fill="#82CFF5" d="M239.681,152.58c4.447,1.756,10.722,2.813,14.813-0.504c3.321-2.693,4.559-6.354,4.438-10.162
		c0.956-4.578-0.273-10.012-4.549-13.709c-7.499-6.488-10.336-10.899-12.058-23.197c-2.057-14.667-3.765-24.719,4.776-36.414
		c3.557-4.862,8.104-8.473,12.995-9.698c2.405-0.604,5.707,1.752,7.535,0.369c1.2-4.772,23.048,3.823,26.138,5.709
		c6.454,3.938,12.406,10.123,15.771,19.084c-0.779-2.08-1.218-3.246,0.004,0.01c3.85,10.264,1.395,3.715,0.004,0.013
		c20.808,55.488-32.206,107.729-66.548,80.895c-4.492-3.513-10.203-10.945-12.876-19.045
		C232.808,148.879,236.328,151.256,239.681,152.58z"/>
	<path fill="#0E8CCD" d="M270.527,183.753c0.707-10.539,1.199-27.321,1.199-34.6c0-0.619-7.778-0.258-7.759-0.412
		c1.166-9.758,6.705-16.883,17.793-17.863c18.316-1.617,16.831,17.991,16.831,17.991c-1.629-1.038-6.931,0.831-7.072,0.956
		c-4.93,4.479-1.896,30.828-1.896,30.828"/>
	<g>
		<path fill="#FFFFFF" d="M296.943,100.745l-0.001-0.002c-0.883-3.027-2.745-2.17-4.453-0.68c0.339-2.478,0.995-5.072,1.041-7.31
			c0.021-0.85,0.051-1.844,0.06-2.885c-5.244-0.396-10.477-1.488-15.433-2.879c-6.495-1.826-11.416-5.125-15.772-9.896
			c-2.486,1.571-4.571,3.978-6.469,7.123c-0.488,0.812-5.452,11.449-6.712,14.669c-2.686,6.85,10.562,16.729,15.345,22.871
			c1.199,1.539,7.374,0.211,12.951-1.271c0.976-0.259,3.167-1.637,4.247-1.795c0.594,2.233,0.351,11.784,0.282,14.414
			c-0.053,1.969,2.194,2.729,3.415,1.598c0.345-0.173,0.647-0.482,0.855-0.987c0.211-0.509,0.409-1.085,0.602-1.686
			c1.469-3.46,0.832-12.155,3.412-20.091c3.435-2.857,8.17-5.881,6.631-11.191C297.301,101.979,297.924,104.13,296.943,100.745z"/>
	</g>
	
		<ellipse fill="none" stroke="#1E1E1C" stroke-width="0.7188" stroke-miterlimit="10" cx="258.533" cy="93.264" rx="1.573" ry="2.196"/>
	<g>
		<g>
			<path fill="#020303" d="M265.373,92.868c-0.727,1.592-0.479,3.358-0.975,5.009c-0.758,2.527-3.307-0.377-4.685,1
				c-2.402,2.402,2.387,4.6,4.177,4.699c0.571,0.032,0.568-0.854,0-0.885c-1.352-0.076-3.276-0.794-3.795-2.157
				c0.38-1.022,0.902-1.346,1.563-0.967c0.377,0.141,0.716,0.271,1.112,0.344c0.333,0.062,0.792-0.043,1.083-0.194
				c2.363-1.229,1.352-4.36,2.281-6.4C266.372,92.8,265.609,92.35,265.373,92.868L265.373,92.868z"/>
		</g>
	</g>
	
		<ellipse fill="none" stroke="#1E1E1C" stroke-width="0.8091" stroke-miterlimit="10" cx="275.61" cy="94.421" rx="1.735" ry="2.461"/>
	<path fill="#0E8CCD" d="M260.353,203.771l5.106,2.963c-0.347,17.467,5.979,35.348,5.979,35.348s-2.742,5.355-3.421,14.16
		c-1.019,13.176,3.912,27.438,7.159,35.195h-0.162c-0.156,0.418-13.991,11.252-13.991,11.252l18.486-4.119l0.146-1.399l0.017,1.512
		l0.493,0.2c-0.001,0.062-0.002,0.104-0.002,0.104s0.016-0.03,0.044-0.085l16.251,6.655c0,0-11.832-11.966-11.982-12.336
		l-1.378-0.315c3.872-8.621,10.086-24.846,9.047-38.312c-0.68-8.807-4.841-12.342-4.841-12.342s7.922-18.016,7.786-34.502
		c1.985-1.346,3.429-2.873,3.745-4.549c1.546-8.219-6.271-21.037-9.793-25.12l-10.842-0.209c-0.312-0.294-0.743-0.339-1.329-0.025
		l-5.146-0.102c0,0-1.813-0.335-6.261,7.444C261.192,192.651,259.476,208.769,260.353,203.771z M277.897,291.437
		c0.122-13.278,0.49-44.9,1.232-48.853c0.094-0.492-0.085-14.574-0.288-28.496c0.455-0.11,1.201-0.299,2.14-0.555
		c-0.259,13.611-0.503,27.868-0.409,28.377c0.734,3.896,0.081,36.126-0.245,50.357l-0.15-0.032l0.083-0.8L277.897,291.437
		L277.897,291.437z"/>
	<path fill="#FFFFFF" d="M263.636,148.746c-0.133,0.075,2.988,20.157,2.988,22.216c0,6.506-1.596,15.313,5.037,25.031
		c2.3,3.366,3.932,5.427,5.077,6.679c2.163,2.362,2.617,1.857,2.617,1.857s-6.364-23.261-7.162-36.802
		c-0.797-13.545-0.758-18.64-0.758-18.64S267.587,146.569,263.636,148.746z"/>
	<path fill="#FFFFFF" d="M298.112,147.929c-0.632,3.432-3.034,19.577-3.034,21.639c0,6.504,1.59,15.311-5.044,25.029
		c-6.632,9.714-7.694,8.536-7.694,8.536s6.369-23.261,7.166-36.807c0.795-13.543,0.655-14.967,0.844-16.156
		C290.662,148.192,298.112,147.929,298.112,147.929z"/>
	<path fill="#FFFFFF" d="M275.983,206.684c-0.198,0.516-3.873,12.712-1.431,13.773c2.444,1.063,9.383-0.028,9.177-0.433
		c-0.209-0.403-3.919-5.735-2.924-6.585c0.993-0.847,2.741,3.174,4.532,2.453c1.787-0.723,1.333-1.199,1.333-1.199
		s-1.451,0.145-2.354-1.755c-1.166-2.47-0.35-4.862-4.049-5.699C276.573,206.407,275.983,206.684,275.983,206.684z"/>
	<path fill="#FFFFFF" d="M285.559,204.14c0.2,0.518,3.873,12.714,1.429,13.776c-2.442,1.061-9.383-0.026-9.175-0.436
		c0.21-0.404,3.918-5.736,2.925-6.584c-0.994-0.849-2.744,3.172-4.532,2.453c-1.79-0.722-1.336-1.199-1.336-1.199
		s1.452,0.146,2.354-1.757c1.168-2.469,0.351-4.862,4.049-5.695C284.971,203.862,285.559,204.14,285.559,204.14z"/>
	<g>
		<g>
			<path fill="#020303" d="M267.596,106.941c-0.576,0.583-1.639,0.721-2.412,0.818c-0.541,0.068-2,0.279-2.388-0.249
				c-0.334-0.454-1.104-0.014-0.766,0.447c0.63,0.856,1.961,0.78,2.904,0.712c1.083-0.078,2.486-0.294,3.287-1.103
				C268.624,107.162,267.998,106.535,267.596,106.941L267.596,106.941z"/>
		</g>
	</g>
</g>
<g display="none">
	<path display="inline" fill="#82CFF5" d="M177.884,174.21c0,0-207.591,72.6-174.261,125.988
		c33.323,53.39,185.475-100.731,185.475-100.731L177.884,174.21z"/>
	<circle display="inline" fill="#82CFF5" cx="280.125" cy="125.769" r="125.743"/>
	<circle display="inline" fill="#FFFFFF" cx="280.196" cy="123.824" r="105.031"/>
	<g display="inline">
		<path fill="#FEEDA4" d="M337.403,72.645c-6.254-14.033-17.252-23.685-29.159-29.806c-5.695-2.932-45.938-16.217-48.111-8.713
			c-3.349,2.185-9.44-1.479-13.86-0.511c-8.979,1.969-17.318,7.674-23.819,15.337c-15.615,18.423-12.396,34.178-8.498,57.167
			c3.267,19.274,8.516,26.171,22.355,36.28c16.873,12.319,8.227,37.211-10.791,34.92c-12.119-1.458-40.666-10.324-24.148-30.473
			c4.496-5.484,11.004-5.604,15.084,0.813c3.949,6.214,1.084,12.928-2.046,7.478c-2.629-4.583-15.655,6.758-2.37,10.245
			c13.692,3.591,18.679-21.067,11.477-31.657c-9.832-14.443-33.64,7.477-34.475,21.269c-1.066,17.813,15.019,37.532,26.63,45.188
			C279.04,241.961,376.131,159.508,337.403,72.645C331.091,58.482,348.614,97.789,337.403,72.645z M212.311,136.296
			c6.549-2.136,8.438,1.339,8.758,8.096C218.971,141.234,208.434,137.556,212.311,136.296
			C214.281,135.65,211.684,136.501,212.311,136.296z"/>
		<path fill="#1E1E1C" d="M272.234,206.545c0.89-13.565,1.442-35.166,1.396-44.531c-0.004-0.796-10.513-0.277-10.488-0.477
			c1.511-12.567,8.951-21.771,23.929-23.105c24.741-2.207,22.856,23.034,22.856,23.034c-2.205-1.322-9.357,1.119-9.547,1.276
			c-6.633,5.797-2.361,39.684-2.361,39.684"/>
		<path fill="#FFFFFF" d="M286.852,225.221c0.117-7.269,0.2-12.246,0.2-12.246s-11.048-21.875,9.862-0.531
			c2.854,2.917,4.88,6.371,6.252,10.156C297.764,223.711,292.31,224.574,286.852,225.221z"/>
		<path fill="#FFFFFF" d="M283.251,225.613c-1.809,0.184-3.612,0.347-5.413,0.484c-3.635-0.854-7.305-1.746-10.995-2.587
			c1.011-4.893,2.664-9.525,5.173-13.623c15.609-25.479,10.897,0.177,10.897,0.177S283.056,216.543,283.251,225.613z"/>
		<path fill="#0DA2DD" d="M277.838,226.098c-5.744-1.347-11.575-2.798-17.446-3.986c1.17-4.766,2.837-10.029,5.013-13.69
			c5.958-10.037,8.411-9.617,8.411-9.617l23.398,0.313c3.403,3.718,9.765,13.102,12.428,22.022
			C299.192,223.701,288.467,225.292,277.838,226.098z"/>
		<path fill="#82CFF5" d="M277.838,226.098c-6.433-1.507-12.976-3.146-19.555-4.4l-1.363-14.234l62.498-0.611l-1.104,11.918
			C305.186,222.752,291.434,225.066,277.838,226.098z"/>
		<g>
			<path fill="#FFFFFF" d="M305.771,97.87c-0.002-0.003-0.002-0.003-0.002-0.003c-1.396-4.49-4.295-3.2-6.945-0.975
				c0.507-3.681,1.513-7.534,1.57-10.857c0.021-1.258,0.062-2.734,0.065-4.279c-8.173-0.55-16.337-2.127-24.068-4.151
				c-10.14-2.656-17.831-7.517-24.656-14.565c-3.864,2.354-7.096,5.939-10.029,10.624c-0.754,1.211-8.412,17.033-10.352,21.822
				c-4.135,10.188,16.585,24.748,24.085,33.826c1.88,2.273,11.494,0.256,20.176-1.986c1.521-0.393,4.925-2.454,6.604-2.701
				c0.943,3.314,0.635,17.487,0.548,21.392c-0.063,2.926,3.443,4.033,5.336,2.344c0.533-0.256,1.007-0.72,1.329-1.469
				c0.32-0.76,0.627-1.614,0.92-2.509c2.266-5.147,1.21-18.046,5.17-29.844c5.33-4.271,12.688-8.792,10.249-16.663
				C306.337,99.696,307.323,102.885,305.771,97.87z"/>
		</g>
		<path fill="none" stroke="#020303" stroke-width="1.0176" stroke-miterlimit="10" d="M244.23,89.184
			c0.007,1.688-1.003,3.066-2.251,3.072c-1.259,0.008-2.276-1.359-2.286-3.051c-0.008-1.69,0.998-3.064,2.254-3.07
			C243.196,86.129,244.222,87.493,244.23,89.184z"/>
		<g>
			<g>
				<path fill="#020303" d="M257.52,85.775c-1.095,2.248-0.754,4.775-1.379,7.146c-1.151,4.358-4.946-0.355-7.09,1.559
					c-4.14,3.694,3.205,7.104,6.221,7.228c0.869,0.036,0.865-1.311,0-1.346c-2.024-0.083-4.577-1.02-5.765-2.733
					c-0.889-1.284,0.484-2.375,1.665-2.063c0.503,0.133,0.996,0.358,1.486,0.53c0.771,0.271,1.482,0.205,2.253-0.009
					c3.923-1.088,2.436-6.891,3.771-9.63C259.062,85.677,257.9,84.995,257.52,85.775L257.52,85.775z"/>
			</g>
		</g>
		<g>
			<g>
				<path fill="#020303" d="M262.902,105.705c-2.963,0.71-8.577,3.134-11.256,0.877c0.035,0.272,0.07,0.544,0.105,0.816
					c1.904-2.82,7.088-1.19,9.719-0.389c0.833,0.255,1.188-1.046,0.358-1.299c-3.335-1.017-8.865-2.508-11.24,1.007
					c-0.158,0.233-0.113,0.633,0.104,0.816c3.26,2.746,8.996,0.323,12.566-0.531C264.104,106.802,263.746,105.503,262.902,105.705
					L262.902,105.705z"/>
			</g>
		</g>
		<g>
			<g>
				<path fill="#020303" d="M253.085,108.967c0.981,0.995,2.117,1.729,3.562,1.631c1.4-0.096,2.549-1.144,3.424-2.141
					c0.57-0.649-0.379-1.605-0.951-0.953c-0.662,0.756-1.361,1.431-2.349,1.716c-1.07,0.312-2.047-0.509-2.733-1.205
					C253.427,107.396,252.475,108.348,253.085,108.967L253.085,108.967z"/>
			</g>
		</g>
		<g>
			<path fill="#1E1E1C" d="M265.112,90.121c2.91-6.211,14.256-5.541,17.869-1.918c1.632-0.735,4.238-2.725,5.05-4.184
				c-4.245,1.658-4.383,1.222-5.631,0.816c-6.823-2.191-12.569-3.816-17.138,4.771"/>
			<g>
				<path fill="#020303" d="M265.538,90.37c2.887-5.579,12.783-5.831,17.095-1.818c0.171,0.16,0.392,0.181,0.598,0.077
					c2.013-1,3.988-2.46,5.228-4.359c0.226-0.347-0.15-0.88-0.558-0.726c-1.834,0.7-3.457,1.473-5.368,0.817
					c-2.316-0.793-4.701-1.469-7.144-1.721c-4.936-0.51-8.3,2.668-10.551,6.718c-0.311,0.557,0.542,1.054,0.852,0.498
					c1.447-2.604,3.23-4.948,6.147-5.926c2.193-0.734,4.646-0.241,6.818,0.301c1.601,0.397,3.151,1.123,4.766,1.43
					c1.548,0.295,3.366-0.64,4.744-1.166c-0.187-0.241-0.372-0.482-0.558-0.725c-0.947,1.454-2.356,2.502-3.799,3.43
					c-0.978,0.628-1.395-0.15-2.312-0.663c-1.741-0.971-3.786-1.346-5.747-1.523c-4.171-0.38-9.016,0.906-11.061,4.858
					C264.395,90.437,265.246,90.936,265.538,90.37L265.538,90.37z"/>
			</g>
		</g>
		<g>
			<path fill="#1E1E1C" d="M252.236,89.831c-2.274-4.734-10.966-4.136-13.705-1.33c-1.252-0.555-3.265-2.056-3.897-3.166
				c3.264,1.235,3.366,0.896,4.316,0.584c5.211-1.733,9.604-3.025,13.165,3.521"/>
			<g>
				<path fill="#020303" d="M252.562,89.641c-1.612-2.959-4.967-3.772-8.124-3.668c-1.438,0.048-2.994,0.364-4.29,0.996
					c-0.576,0.281-1.088,0.6-1.592,0.991c-0.69,0.539-3.247-2.308-3.598-2.815c-0.143,0.185-0.284,0.37-0.428,0.555
					c2.983,1.095,3.925,0.714,6.864-0.158c4.626-1.372,7.951-0.156,10.394,4.089c0.242,0.424,0.896,0.042,0.651-0.381
					c-1.777-3.092-4.131-5.229-7.843-5.092c-1.757,0.065-3.496,0.663-5.152,1.199c-1.806,0.586-2.892,0.282-4.713-0.386
					c-0.306-0.112-0.609,0.288-0.427,0.555c0.999,1.448,2.472,2.522,4.034,3.302c0.158,0.079,0.327,0.063,0.458-0.059
					c3.326-3.098,10.795-2.996,13.112,1.253C252.143,90.45,252.796,90.068,252.562,89.641L252.562,89.641z"/>
			</g>
		</g>
		
			<ellipse transform="matrix(-0.0051 -1 1 -0.0051 180.3727 382.9292)" fill="#F6AD9E" cx="280.669" cy="101.741" rx="4.082" ry="5.958"/>
		<path fill="#F6AD9E" d="M244.234,98.124c0.015,2.252-2.641,4.098-5.932,4.112c-3.291,0.018-5.97-1.799-5.98-4.053
			c-0.012-2.254,2.648-4.097,5.939-4.115C241.553,94.055,244.224,95.869,244.234,98.124z"/>
		<path fill="none" stroke="#020303" stroke-width="1.0176" stroke-miterlimit="10" d="M275.268,88.783
			c0.011,2.014-1.19,3.656-2.688,3.662c-1.493,0.008-2.71-1.621-2.722-3.636c-0.009-2.021,1.19-3.659,2.686-3.667
			C274.039,85.137,275.259,86.762,275.268,88.783z"/>
		<path fill="#FFFFFF" d="M282.224,225.713c-1.465,0.144-2.926,0.273-4.386,0.386c-0.461-0.109-0.923-0.219-1.382-0.326
			c-0.796-1.023-1.654-2.168-2.61-3.484c-9.025-12.459-6.928-23.807-6.971-32.172c-0.015-2.655-4.359-28.473-4.181-28.57
			c5.321-2.826,10.541,0.39,10.541,0.39s-0.018,6.555,1.146,23.978C275.182,197.871,279.557,215.71,282.224,225.713z"/>
		<path fill="#FFFFFF" d="M298.662,220.363c-0.95,1.339-1.812,2.511-2.599,3.549c-1.989,0.33-3.985,0.631-5.982,0.898
			c2.533-9.816,6.982-28.461,7.683-40.818c0.986-17.432,0.79-19.264,1.037-20.797c0.411-2.545,10.475-2.936,10.475-2.936
			c-0.829,4.42-3.975,25.21-3.963,27.862C305.356,196.493,307.561,207.814,298.662,220.363z"/>
		<g>
			<g>
				<path fill="#FFFFFF" d="M263.44,50.16c2.108,9.49,12.09,14.556,20.431,17.595c9.186,3.349,19.62,5.369,29.432,4.943
					c0.753-0.032,0.756-1.205,0-1.172c-9.026,0.391-18.354-1.412-26.917-4.149c-8.606-2.751-19.645-7.758-21.815-17.528
					C264.407,49.11,263.277,49.423,263.44,50.16L263.44,50.16z"/>
			</g>
		</g>
		<g>
			<g>
				<path fill="#FFFFFF" d="M277.479,51.349c4.064,7.465,14.621,9.078,22.201,10.22c0.739,0.111,1.057-1.02,0.312-1.131
					c-7.259-1.092-17.61-2.539-21.499-9.682C278.13,50.093,277.117,50.685,277.479,51.349L277.479,51.349z"/>
			</g>
		</g>
		<g>
			<g>
				<path fill="#FFFFFF" d="M244.173,54.628c-7.494,4.812-12.368,12.416-17.907,19.185c-0.475,0.58,0.351,1.415,0.829,0.83
					c5.465-6.68,10.275-14.253,17.669-19.001C245.398,55.234,244.811,54.219,244.173,54.628L244.173,54.628z"/>
			</g>
		</g>
		<g>
			<g>
				<path fill="#020303" d="M247.861,75.751c-3.226,1.302-6.624,1.905-10.019,2.592c-0.643,0.131-0.37,1.11,0.271,0.98
					c3.396-0.686,6.792-1.29,10.02-2.592C248.732,76.489,248.47,75.505,247.861,75.751L247.861,75.751z"/>
			</g>
		</g>
	</g>
</g>
</svg>
