<?xml version="1.0" encoding="utf-8"?>
<!-- Generator: Adobe Illustrator 16.0.4, SVG Export Plug-In . SVG Version: 6.00 Build 0)  -->
<!DOCTYPE svg PUBLIC "-//W3C//DTD SVG 1.1//EN" "http://www.w3.org/Graphics/SVG/1.1/DTD/svg11.dtd">
<svg version="1.1" id="Layer_1" xmlns="http://www.w3.org/2000/svg" xmlns:xlink="http://www.w3.org/1999/xlink" x="0px" y="0px"
	 width="646.947px" height="311.439px" viewBox="0 0 646.947 311.439" enable-background="new 0 0 646.947 311.439"
	 xml:space="preserve">
<g>
	<path fill="#82CFF5" d="M55.607,107.225c0.369-0.248,0.769-0.46,1.179-0.652c0.201-1.444,1.729-2.737,3.35-1.754
		c0.46,0.28,0.888,0.604,1.292,0.949c0.239,0.025,0.479,0.061,0.719,0.111c2.494,0.539,4.16,3.42,3.22,5.81
		c-0.384,0.972-1.026,1.798-1.812,2.45c-0.672,0.979-1.711,1.694-2.984,1.896c-2.461,0.388-6.212-0.461-7.405-2.933
		C51.998,110.688,53.653,108.534,55.607,107.225z"/>
	<g>
		<g>
			<path fill="#1E1E1C" d="M60.429,104.065c-1.669,0.461-3.372,0.233-4.842,1.3c-0.468,0.34-0.017,1.127,0.457,0.783
				c1.387-1.006,3.051-0.773,4.625-1.208C61.232,104.784,60.992,103.91,60.429,104.065L60.429,104.065z"/>
		</g>
	</g>
	<g>
		<g>
			<path fill="#1E1E1C" d="M59.671,102.469c-1.771-0.086-3.552,0.268-5.157,1.021c-0.529,0.248-0.068,1.029,0.457,0.783
				c1.461-0.686,3.093-0.975,4.7-0.897C60.256,103.404,60.253,102.498,59.671,102.469L59.671,102.469z"/>
		</g>
	</g>
	<path fill="#FFFFFF" d="M58.747,133.457l-3.951,4.815c6.001,27.982,5.848,28.128,4.628,41.117
		c-1.277,13.589-3.998,13.576-3.998,13.576s0.265,7.554,0.561,9.063c0.294,1.511,6.463-12.396,7.957-20.203
		C66.424,168.846,59.037,136.178,58.747,133.457z"/>
	<path fill="#FFFFFF" d="M31.097,133.329L35,138.183c-6.284,27.919-6.132,28.071-5.043,41.069c1.143,13.6,3.86,13.613,3.86,13.613
		s-0.338,7.552-0.648,9.061c-0.31,1.506-6.34-12.459-7.754-20.281C23.065,168.639,30.781,136.047,31.097,133.329z"/>
	<path fill="#82CFF5" d="M40.303,206.08c0,0,1.341,79.426-0.135,84.135c-1.475,4.707-24.943,16.438-17.216,18.047
		c10.729,2.228,22.141-15.849,22.141-15.849l0.434-85.944l6.388,0.032c0,0-2.766,88.106-1.896,88.111s10.093,13.108,19.391,11.342
		c4.27-0.811-14.729-14.58-14.729-14.58s2.477-88.473,1.604-88.116C55.41,203.618,40.303,206.08,40.303,206.08z"/>
	<path fill="#0E8CCD" d="M27.988,135.126c0,0,4.501-11.153,16.075-10.286c11.579,0.863,14.217,11.518,14.217,11.518l-5.008,5.496
		c0,0,7.699,64.401,10.206,74.517c2.508,10.112-29.854,7.568-33.772,5.436c-3.917-2.134,5.728-78.875,5.728-78.875"/>
	<path fill="#82CFF5" d="M67.913,83.36c-0.068,13.68-11.356,24.715-25.22,24.645c-13.86-0.07-25.985-11.559-25.914-25.238
		c0.068-13.683,12.306-24.369,26.164-24.299C56.805,58.538,67.982,69.682,67.913,83.36z"/>
	<path fill="#FFFFFF" d="M56.403,76.433c-2.104-5.749-8.013-10.021-14.037-10.657c-6.609-0.695-13.663,2.212-17.237,7.939
		c-2.566,4.116-1.714,8.979,0.306,13.172c1.145,9.149,1.989,18.862,8.677,25.56c3.72,3.725,9.791,5.344,14.824,3.854
		c5.615-1.666,6.569-8.877,7.172-13.744c0.612-4.963,0.888-9.969,1.145-14.959C57.451,83.725,57.75,80.124,56.403,76.433z"/>
	<path fill="#82CFF5" d="M47.458,64.383c-0.028-0.093-0.074-0.17-0.112-0.254c-0.255-0.814-0.937-1.465-2.062-1.421
		c-6.39,0.242-13.83,0.537-19.096,4.64c-3.929,3.059-5.168,7.389-5.644,11.975c-0.666,2.155-1.087,4.478-0.248,6.366
		c0.115,1.442,0.491,2.808,1.509,3.951c0.278,0.312,0.575,0.525,0.884,0.665c-1.977,1.547,0.182,5.008,2.621,3.688
		c6.131-3.313,11.282-8.791,15.808-14.013C44.515,76.061,49.339,69.93,47.458,64.383z"/>
	<path fill="#82CFF5" d="M26.589,106.586c-0.366-0.263-0.763-0.481-1.172-0.685c-0.187-1.49-1.7-2.836-3.333-1.84
		c-0.462,0.283-0.894,0.609-1.3,0.962c-0.242,0.026-0.479,0.06-0.718,0.108c-2.5,0.526-4.196,3.477-3.28,5.946
		c0.375,1.002,1.008,1.861,1.788,2.539c0.66,1.018,1.69,1.768,2.963,1.984c2.458,0.422,6.214-0.412,7.435-2.941
		C30.162,110.186,28.53,107.95,26.589,106.586z"/>
	
		<ellipse transform="matrix(0.0052 -1 1 0.0052 -53.671 125.4636)" fill="none" stroke="#1E1E1C" stroke-width="0.9141" stroke-miterlimit="10" cx="36.222" cy="89.707" rx="2.166" ry="1.132"/>
	
		<ellipse transform="matrix(0.0061 -1 1 0.0061 -40.6302 137.0764)" fill="none" stroke="#1E1E1C" stroke-width="0.9141" stroke-miterlimit="10" cx="48.641" cy="88.977" rx="2.167" ry="1.133"/>
	<g>
		<g>
			<path fill="#1E1E1C" d="M42.076,92.373c-0.442,1.52-0.926,2.913-2.047,4.062c-0.567,0.581-1.169,1.229-0.972,2.114
				c0.367,1.641,2.283,1.818,3.641,1.375c0.553-0.183,0.316-1.059-0.241-0.875c-0.554,0.183-1.085,0.234-1.661,0.121
				c-1.572-0.313-0.474-1.737,0.153-2.381c1.099-1.126,1.569-2.694,2-4.176C43.115,92.052,42.24,91.812,42.076,92.373L42.076,92.373
				z"/>
		</g>
	</g>
	<g>
		<g>
			<path fill="#1E1E1C" d="M42.362,103.582c0.663,0.009,1.338,0.009,1.994-0.104c0.575-0.098,0.331-0.971-0.241-0.873
				c-0.57,0.097-1.175,0.078-1.752,0.071C41.777,102.67,41.778,103.575,42.362,103.582L42.362,103.582z"/>
		</g>
	</g>
	<g>
		<g>
			<path fill="#1E1E1C" d="M21.554,104.174c1.574,0.463,3.238,0.251,4.609,1.296c0.472,0.358,0.929-0.44,0.464-0.795
				c-1.453-1.107-3.162-0.897-4.83-1.389C21.228,103.118,20.986,104.007,21.554,104.174L21.554,104.174z"/>
		</g>
	</g>
	<g>
		<g>
			<path fill="#1E1E1C" d="M22.57,102.572c1.612-0.061,3.239,0.262,4.688,0.978c0.53,0.261,0.996-0.532,0.465-0.795
				c-1.595-0.786-3.375-1.169-5.152-1.103C21.979,101.676,21.977,102.594,22.57,102.572L22.57,102.572z"/>
		</g>
	</g>
	<path fill="#FFFFFF" d="M49.29,124.92c-1.068-4.291-0.711-9.011-3.677-12.939c-3.275-4.334-3.789,9.104-3.794,9.2
		c-0.122,2.643,0.581,3.064-2.578,3.085c-2.757,0.008-0.415,4.297,0.541,4.938c2.007,1.345,5.151,1.261,7.338,0.513
		C48.214,129.34,52.856,125.172,49.29,124.92C49.224,124.643,50.089,124.975,49.29,124.92z"/>
</g>
<g display="none">
	<path display="inline" fill="#82CFF5" d="M177.884,174.21c0,0-207.591,72.6-174.261,125.988
		c33.323,53.39,185.475-100.731,185.475-100.731L177.884,174.21z"/>
	<circle display="inline" fill="#82CFF5" cx="280.125" cy="125.769" r="125.743"/>
	<circle display="inline" fill="#FFFFFF" cx="280.196" cy="123.824" r="105.031"/>
	<g display="inline">
		<path fill="#FEEDA4" d="M337.403,72.645c-6.254-14.033-17.252-23.685-29.159-29.806c-5.695-2.932-45.938-16.217-48.111-8.713
			c-3.349,2.185-9.44-1.479-13.86-0.511c-8.979,1.969-17.318,7.674-23.819,15.337c-15.615,18.423-12.396,34.178-8.498,57.167
			c3.267,19.274,8.516,26.171,22.355,36.28c16.873,12.319,8.227,37.211-10.791,34.92c-12.119-1.458-40.666-10.324-24.148-30.473
			c4.496-5.484,11.004-5.604,15.084,0.813c3.949,6.214,1.084,12.928-2.046,7.478c-2.629-4.583-15.655,6.758-2.37,10.245
			c13.692,3.591,18.679-21.067,11.477-31.657c-9.832-14.443-33.64,7.477-34.475,21.269c-1.066,17.813,15.019,37.532,26.63,45.188
			C279.04,241.961,376.131,159.508,337.403,72.645C331.091,58.482,348.614,97.789,337.403,72.645z M212.311,136.296
			c6.549-2.136,8.438,1.339,8.758,8.096C218.971,141.234,208.434,137.556,212.311,136.296
			C214.281,135.65,211.684,136.501,212.311,136.296z"/>
		<path fill="#1E1E1C" d="M272.234,206.545c0.89-13.565,1.442-35.166,1.396-44.531c-0.004-0.796-10.513-0.277-10.488-0.477
			c1.511-12.567,8.951-21.771,23.929-23.105c24.741-2.207,22.856,23.034,22.856,23.034c-2.205-1.322-9.357,1.119-9.547,1.276
			c-6.633,5.797-2.361,39.684-2.361,39.684"/>
		<path fill="#FFFFFF" d="M286.852,225.221c0.117-7.269,0.2-12.246,0.2-12.246s-11.048-21.875,9.862-0.531
			c2.854,2.917,4.88,6.371,6.252,10.156C297.764,223.711,292.31,224.574,286.852,225.221z"/>
		<path fill="#FFFFFF" d="M283.251,225.613c-1.809,0.184-3.612,0.347-5.413,0.484c-3.635-0.854-7.305-1.746-10.995-2.587
			c1.011-4.893,2.664-9.525,5.173-13.623c15.609-25.479,10.897,0.177,10.897,0.177S283.056,216.543,283.251,225.613z"/>
		<path fill="#0DA2DD" d="M277.838,226.098c-5.744-1.347-11.575-2.798-17.446-3.986c1.17-4.766,2.837-10.029,5.013-13.69
			c5.958-10.037,8.411-9.617,8.411-9.617l23.398,0.313c3.403,3.718,9.765,13.102,12.428,22.022
			C299.192,223.701,288.467,225.292,277.838,226.098z"/>
		<path fill="#82CFF5" d="M277.838,226.098c-6.433-1.507-12.976-3.146-19.555-4.4l-1.363-14.234l62.498-0.611l-1.104,11.918
			C305.186,222.752,291.434,225.066,277.838,226.098z"/>
		<g>
			<path fill="#FFFFFF" d="M305.771,97.87c-0.002-0.003-0.002-0.003-0.002-0.003c-1.396-4.49-4.295-3.2-6.945-0.975
				c0.507-3.681,1.513-7.534,1.57-10.857c0.021-1.258,0.062-2.734,0.065-4.279c-8.173-0.55-16.337-2.127-24.068-4.151
				c-10.14-2.656-17.831-7.517-24.656-14.565c-3.864,2.354-7.096,5.939-10.029,10.624c-0.754,1.211-8.412,17.033-10.352,21.822
				c-4.135,10.188,16.585,24.748,24.085,33.826c1.88,2.273,11.494,0.256,20.176-1.986c1.521-0.393,4.925-2.454,6.604-2.701
				c0.943,3.314,0.635,17.487,0.548,21.392c-0.063,2.926,3.443,4.033,5.336,2.344c0.533-0.256,1.007-0.72,1.329-1.469
				c0.32-0.76,0.627-1.614,0.92-2.509c2.266-5.147,1.21-18.046,5.17-29.844c5.33-4.271,12.688-8.792,10.249-16.663
				C306.337,99.696,307.323,102.885,305.771,97.87z"/>
		</g>
		<path fill="none" stroke="#020303" stroke-width="1.0176" stroke-miterlimit="10" d="M244.23,89.184
			c0.007,1.688-1.003,3.066-2.251,3.072c-1.259,0.008-2.276-1.359-2.286-3.051c-0.008-1.69,0.998-3.064,2.254-3.07
			C243.196,86.129,244.222,87.493,244.23,89.184z"/>
		<g>
			<g>
				<path fill="#020303" d="M257.52,85.775c-1.095,2.248-0.754,4.775-1.379,7.146c-1.151,4.358-4.946-0.355-7.09,1.559
					c-4.14,3.694,3.205,7.104,6.221,7.228c0.869,0.036,0.865-1.311,0-1.346c-2.024-0.083-4.577-1.02-5.765-2.733
					c-0.889-1.284,0.484-2.375,1.665-2.063c0.503,0.133,0.996,0.358,1.486,0.53c0.771,0.271,1.482,0.205,2.253-0.009
					c3.923-1.088,2.436-6.891,3.771-9.63C259.062,85.677,257.9,84.995,257.52,85.775L257.52,85.775z"/>
			</g>
		</g>
		<g>
			<g>
				<path fill="#020303" d="M262.902,105.705c-2.963,0.71-8.577,3.134-11.256,0.877c0.035,0.272,0.07,0.544,0.105,0.816
					c1.904-2.82,7.088-1.19,9.719-0.389c0.833,0.255,1.188-1.046,0.358-1.299c-3.335-1.017-8.865-2.508-11.24,1.007
					c-0.158,0.233-0.113,0.633,0.104,0.816c3.26,2.746,8.996,0.323,12.566-0.531C264.104,106.802,263.746,105.503,262.902,105.705
					L262.902,105.705z"/>
			</g>
		</g>
		<g>
			<g>
				<path fill="#020303" d="M253.085,108.967c0.981,0.995,2.117,1.729,3.562,1.631c1.4-0.096,2.549-1.144,3.424-2.141
					c0.57-0.649-0.379-1.605-0.951-0.953c-0.662,0.756-1.361,1.431-2.349,1.716c-1.07,0.312-2.047-0.509-2.733-1.205
					C253.427,107.396,252.475,108.348,253.085,108.967L253.085,108.967z"/>
			</g>
		</g>
		<g>
			<path fill="#1E1E1C" d="M265.112,90.121c2.91-6.211,14.256-5.541,17.869-1.918c1.632-0.735,4.238-2.725,5.05-4.184
				c-4.245,1.658-4.383,1.222-5.631,0.816c-6.823-2.191-12.569-3.816-17.138,4.771"/>
			<g>
				<path fill="#020303" d="M265.538,90.37c2.887-5.579,12.783-5.831,17.095-1.818c0.171,0.16,0.392,0.181,0.598,0.077
					c2.013-1,3.988-2.46,5.228-4.359c0.226-0.347-0.15-0.88-0.558-0.726c-1.834,0.7-3.457,1.473-5.368,0.817
					c-2.316-0.793-4.701-1.469-7.144-1.721c-4.936-0.51-8.3,2.668-10.551,6.718c-0.311,0.557,0.542,1.054,0.852,0.498
					c1.447-2.604,3.23-4.948,6.147-5.926c2.193-0.734,4.646-0.241,6.818,0.301c1.601,0.397,3.151,1.123,4.766,1.43
					c1.548,0.295,3.366-0.64,4.744-1.166c-0.187-0.241-0.372-0.482-0.558-0.725c-0.947,1.454-2.356,2.502-3.799,3.43
					c-0.978,0.628-1.395-0.15-2.312-0.663c-1.741-0.971-3.786-1.346-5.747-1.523c-4.171-0.38-9.016,0.906-11.061,4.858
					C264.395,90.437,265.246,90.936,265.538,90.37L265.538,90.37z"/>
			</g>
		</g>
		<g>
			<path fill="#1E1E1C" d="M252.236,89.831c-2.274-4.734-10.966-4.136-13.705-1.33c-1.252-0.555-3.265-2.056-3.897-3.166
				c3.264,1.235,3.366,0.896,4.316,0.584c5.211-1.733,9.604-3.025,13.165,3.521"/>
			<g>
				<path fill="#020303" d="M252.562,89.641c-1.612-2.959-4.967-3.772-8.124-3.668c-1.438,0.048-2.994,0.364-4.29,0.996
					c-0.576,0.281-1.088,0.6-1.592,0.991c-0.69,0.539-3.247-2.308-3.598-2.815c-0.143,0.185-0.284,0.37-0.428,0.555
					c2.983,1.095,3.925,0.714,6.864-0.158c4.626-1.372,7.951-0.156,10.394,4.089c0.242,0.424,0.896,0.042,0.651-0.381
					c-1.777-3.092-4.131-5.229-7.843-5.092c-1.757,0.065-3.496,0.663-5.152,1.199c-1.806,0.586-2.892,0.282-4.713-0.386
					c-0.306-0.112-0.609,0.288-0.427,0.555c0.999,1.448,2.472,2.522,4.034,3.302c0.158,0.079,0.327,0.063,0.458-0.059
					c3.326-3.098,10.795-2.996,13.112,1.253C252.143,90.45,252.796,90.068,252.562,89.641L252.562,89.641z"/>
			</g>
		</g>
		
			<ellipse transform="matrix(-0.0051 -1 1 -0.0051 180.3727 382.9292)" fill="#F6AD9E" cx="280.669" cy="101.741" rx="4.082" ry="5.958"/>
		<path fill="#F6AD9E" d="M244.234,98.124c0.015,2.252-2.641,4.098-5.932,4.112c-3.291,0.018-5.97-1.799-5.98-4.053
			c-0.012-2.254,2.648-4.097,5.939-4.115C241.553,94.055,244.224,95.869,244.234,98.124z"/>
		<path fill="none" stroke="#020303" stroke-width="1.0176" stroke-miterlimit="10" d="M275.268,88.783
			c0.011,2.014-1.19,3.656-2.688,3.662c-1.493,0.008-2.71-1.621-2.722-3.636c-0.009-2.021,1.19-3.659,2.686-3.667
			C274.039,85.137,275.259,86.762,275.268,88.783z"/>
		<path fill="#FFFFFF" d="M282.224,225.713c-1.465,0.144-2.926,0.273-4.386,0.386c-0.461-0.109-0.923-0.219-1.382-0.326
			c-0.796-1.023-1.654-2.168-2.61-3.484c-9.025-12.459-6.928-23.807-6.971-32.172c-0.015-2.655-4.359-28.473-4.181-28.57
			c5.321-2.826,10.541,0.39,10.541,0.39s-0.018,6.555,1.146,23.978C275.182,197.871,279.557,215.71,282.224,225.713z"/>
		<path fill="#FFFFFF" d="M298.662,220.363c-0.95,1.339-1.812,2.511-2.599,3.549c-1.989,0.33-3.985,0.631-5.982,0.898
			c2.533-9.816,6.982-28.461,7.683-40.818c0.986-17.432,0.79-19.264,1.037-20.797c0.411-2.545,10.475-2.936,10.475-2.936
			c-0.829,4.42-3.975,25.21-3.963,27.862C305.356,196.493,307.561,207.814,298.662,220.363z"/>
		<g>
			<g>
				<path fill="#FFFFFF" d="M263.44,50.16c2.108,9.49,12.09,14.556,20.431,17.595c9.186,3.349,19.62,5.369,29.432,4.943
					c0.753-0.032,0.756-1.205,0-1.172c-9.026,0.391-18.354-1.412-26.917-4.149c-8.606-2.751-19.645-7.758-21.815-17.528
					C264.407,49.11,263.277,49.423,263.44,50.16L263.44,50.16z"/>
			</g>
		</g>
		<g>
			<g>
				<path fill="#FFFFFF" d="M277.479,51.349c4.064,7.465,14.621,9.078,22.201,10.22c0.739,0.111,1.057-1.02,0.312-1.131
					c-7.259-1.092-17.61-2.539-21.499-9.682C278.13,50.093,277.117,50.685,277.479,51.349L277.479,51.349z"/>
			</g>
		</g>
		<g>
			<g>
				<path fill="#FFFFFF" d="M244.173,54.628c-7.494,4.812-12.368,12.416-17.907,19.185c-0.475,0.58,0.351,1.415,0.829,0.83
					c5.465-6.68,10.275-14.253,17.669-19.001C245.398,55.234,244.811,54.219,244.173,54.628L244.173,54.628z"/>
			</g>
		</g>
		<g>
			<g>
				<path fill="#020303" d="M247.861,75.751c-3.226,1.302-6.624,1.905-10.019,2.592c-0.643,0.131-0.37,1.11,0.271,0.98
					c3.396-0.686,6.792-1.29,10.02-2.592C248.732,76.489,248.47,75.505,247.861,75.751L247.861,75.751z"/>
			</g>
		</g>
	</g>
</g>
</svg>
