<?xml version="1.0" encoding="utf-8"?>
<!-- Generator: Adobe Illustrator 16.0.4, SVG Export Plug-In . SVG Version: 6.00 Build 0)  -->
<!DOCTYPE svg PUBLIC "-//W3C//DTD SVG 1.1//EN" "http://www.w3.org/Graphics/SVG/1.1/DTD/svg11.dtd">
<svg version="1.1" id="Layer_1" xmlns="http://www.w3.org/2000/svg" xmlns:xlink="http://www.w3.org/1999/xlink" x="0px" y="0px"
	 width="646.947px" height="311.439px" viewBox="0 0 646.947 311.439" enable-background="new 0 0 646.947 311.439"
	 xml:space="preserve">
<g>
	<g>
		<g>
			<path fill="#82CFF5" d="M606.734,100.117c-6.167,2.528-7.707-0.362-13.874,4.333c-5.395,3.974-10.79,11.918-11.176,18.779
				c8.093,0,14.259,0.723,19.653-6.142c3.469-4.333,6.938-12.639,4.625-16.972"/>
		</g>
		<path fill="#FFFFFF" d="M599.522,132.017l4.721,4.802c-7.19,27.942-7.008,28.088-5.558,41.054
			c1.519,13.566,4.77,13.553,4.77,13.553s-0.317,7.541-0.676,9.052c-0.352,1.51-7.717-12.372-9.495-20.164
			C590.323,167.351,599.174,134.731,599.522,132.017z"/>
		<path fill="#FFFFFF" d="M632.578,131.875l-4.671,4.843c7.494,27.87,8.04,20.105,6.729,33.083
			c-1.372,13.58-10.404,22.391-10.404,22.391c0.462,8.688-1.89,9.299,0.387,9.029c1.884-0.224,14.258-20.226,15.8-30.337
			C642.42,157.766,632.956,134.584,632.578,131.875z"/>
		<path fill="#0E8CCD" d="M626.23,177.62c0,0-6.336,110.777-4.58,114.537c1.756,3.759,29.79,13.096,20.553,14.392
			c-12.832,1.801-26.441-12.626-26.441-12.626l-2.653-84.434l-3.469,1.61c0,0,1.271,84.585,0.23,84.59
			c-1.039,0.005-12.091,10.487-23.203,9.094c-5.099-0.642,17.635-11.677,17.635-11.677s-3.777-116.078-2.734-115.796
			C602.612,177.597,626.23,177.62,626.23,177.62z"/>
		<path fill="#0E8CCD" d="M634.502,132.663c0,0-5.373-11.131-19.211-10.26c-13.843,0.871-17.003,11.508-17.003,11.508l5.981,5.482
			c-8.585,50.723-2.089,61.271,14.181,64.713c11.945,2.527,7.146-63.648,7.146-63.648"/>
		<path fill="#FFFFFF" d="M601.344,86.224c0.304,4.984,0.63,9.981,1.358,14.938c0.716,4.859,1.851,12.058,8.562,13.717
			c6.019,1.486,13.274-0.135,17.727-3.852c7.996-6.692,9.016-16.389,10.39-25.523c2.418-4.188,3.44-9.047,0.375-13.155
			c-4.271-5.715-12.703-8.613-20.604-7.912c-7.201,0.637-14.27,4.904-16.786,10.646C600.75,78.765,601.105,82.362,601.344,86.224z"
			/>
		<path fill="none" stroke="#1E1E1C" stroke-width="0.9986" stroke-miterlimit="10" d="M625.125,88.323
			c0.006,1.196,0.614,2.162,1.363,2.159c0.747-0.004,1.352-0.978,1.342-2.173c-0.003-1.195-0.617-2.158-1.362-2.154
			C625.717,86.159,625.118,87.13,625.125,88.323z"/>
		<path fill="none" stroke="#1E1E1C" stroke-width="0.9986" stroke-miterlimit="10" d="M610.284,87.606
			c0.007,1.196,0.617,2.161,1.365,2.159c0.749-0.004,1.349-0.978,1.343-2.173c-0.009-1.193-0.619-2.156-1.367-2.154
			S610.276,86.413,610.284,87.606z"/>
		<g>
			<g>
				<path fill="#1E1E1C" d="M618.48,91.239c0.576,1.654,1.214,3.187,2.562,4.346c0.683,0.588,1.596,1.567,0.277,2.064
					c-0.722,0.271-1.591,0.164-2.312-0.036c-0.616-0.171-0.878,0.785-0.264,0.955c1.197,0.332,3.909,0.478,4.254-1.229
					c0.172-0.85-0.08-1.364-0.686-1.956c-0.444-0.436-0.948-0.807-1.388-1.251c-0.76-0.768-1.146-2.169-1.49-3.156
					C619.226,90.377,618.269,90.635,618.48,91.239L618.48,91.239z"/>
			</g>
		</g>
		<g>
			<g>
				<path fill="#1E1E1C" d="M619.133,101.234c-0.695,0-1.416,0.027-2.105-0.075c-0.625-0.093-0.894,0.861-0.264,0.955
					c0.782,0.116,1.58,0.11,2.369,0.11C619.771,102.225,619.771,101.234,619.133,101.234L619.133,101.234z"/>
			</g>
		</g>
		<path fill="#FFFFFF" d="M610.832,123.484c1.282-4.284,0.858-8.997,4.405-12.921c3.918-4.331,4.524,9.088,4.529,9.184
			c0.146,2.637-0.695,3.062,3.082,3.077c3.297,0.008,0.49,4.29-0.652,4.929c-2.396,1.347-6.156,1.263-8.769,0.518
			C612.118,127.897,606.569,123.738,610.832,123.484C610.917,123.21,609.879,123.541,610.832,123.484z"/>
	</g>
	<g>
		<path fill="#82CFF5" d="M618.839,58.932c-1.542,15.527,9.634,29.974,24.664,35.392c-0.386-11.195,4.623-18.779-5.011-28.169
			c-5.396-5.778-13.873-8.306-21.967-7.223"/>
	</g>
	<g>
		<path fill="#82CFF5" d="M619.801,59.292c1.541,15.529-9.635,29.976-24.664,35.394c0.386-11.195-4.624-18.779,5.011-28.169
			c5.396-5.778,13.874-8.307,21.966-7.225"/>
	</g>
</g>
<g display="none">
	<path display="inline" fill="#82CFF5" d="M177.884,174.21c0,0-207.591,72.6-174.261,125.988
		c33.323,53.39,185.475-100.731,185.475-100.731L177.884,174.21z"/>
	<circle display="inline" fill="#82CFF5" cx="280.125" cy="125.769" r="125.743"/>
	<circle display="inline" fill="#FFFFFF" cx="280.196" cy="123.824" r="105.031"/>
	<g display="inline">
		<path fill="#FEEDA4" d="M337.403,72.645c-6.254-14.033-17.252-23.685-29.159-29.806c-5.695-2.932-45.938-16.217-48.111-8.713
			c-3.349,2.185-9.44-1.479-13.86-0.511c-8.979,1.969-17.318,7.674-23.819,15.337c-15.615,18.423-12.396,34.178-8.498,57.167
			c3.267,19.274,8.516,26.171,22.355,36.28c16.873,12.319,8.227,37.211-10.791,34.92c-12.119-1.458-40.666-10.324-24.148-30.473
			c4.496-5.484,11.004-5.604,15.084,0.813c3.949,6.214,1.084,12.928-2.046,7.478c-2.629-4.583-15.655,6.758-2.37,10.245
			c13.692,3.591,18.679-21.067,11.477-31.657c-9.832-14.443-33.64,7.477-34.475,21.269c-1.066,17.813,15.019,37.532,26.63,45.188
			C279.04,241.961,376.131,159.508,337.403,72.645C331.091,58.482,348.614,97.789,337.403,72.645z M212.311,136.296
			c6.549-2.136,8.438,1.339,8.758,8.096C218.971,141.234,208.434,137.556,212.311,136.296
			C214.281,135.65,211.684,136.501,212.311,136.296z"/>
		<path fill="#1E1E1C" d="M272.234,206.545c0.89-13.565,1.442-35.166,1.396-44.531c-0.004-0.796-10.513-0.277-10.488-0.477
			c1.511-12.567,8.951-21.771,23.929-23.105c24.741-2.207,22.856,23.034,22.856,23.034c-2.205-1.322-9.357,1.119-9.547,1.276
			c-6.633,5.797-2.361,39.684-2.361,39.684"/>
		<path fill="#FFFFFF" d="M286.852,225.221c0.117-7.269,0.2-12.246,0.2-12.246s-11.048-21.875,9.862-0.531
			c2.854,2.917,4.88,6.371,6.252,10.156C297.764,223.711,292.31,224.574,286.852,225.221z"/>
		<path fill="#FFFFFF" d="M283.251,225.613c-1.809,0.184-3.612,0.347-5.413,0.484c-3.635-0.854-7.305-1.746-10.995-2.587
			c1.011-4.893,2.664-9.525,5.173-13.623c15.609-25.479,10.897,0.177,10.897,0.177S283.056,216.543,283.251,225.613z"/>
		<path fill="#0DA2DD" d="M277.838,226.098c-5.744-1.347-11.575-2.798-17.446-3.986c1.17-4.766,2.837-10.029,5.013-13.69
			c5.958-10.037,8.411-9.617,8.411-9.617l23.398,0.313c3.403,3.718,9.765,13.102,12.428,22.022
			C299.192,223.701,288.467,225.292,277.838,226.098z"/>
		<path fill="#82CFF5" d="M277.838,226.098c-6.433-1.507-12.976-3.146-19.555-4.4l-1.363-14.234l62.498-0.611l-1.104,11.918
			C305.186,222.752,291.434,225.066,277.838,226.098z"/>
		<g>
			<path fill="#FFFFFF" d="M305.771,97.87c-0.002-0.003-0.002-0.003-0.002-0.003c-1.396-4.49-4.295-3.2-6.945-0.975
				c0.507-3.681,1.513-7.534,1.57-10.857c0.021-1.258,0.062-2.734,0.065-4.279c-8.173-0.55-16.337-2.127-24.068-4.151
				c-10.14-2.656-17.831-7.517-24.656-14.565c-3.864,2.354-7.096,5.939-10.029,10.624c-0.754,1.211-8.412,17.033-10.352,21.822
				c-4.135,10.188,16.585,24.748,24.085,33.826c1.88,2.273,11.494,0.256,20.176-1.986c1.521-0.393,4.925-2.454,6.604-2.701
				c0.943,3.314,0.635,17.487,0.548,21.392c-0.063,2.926,3.443,4.033,5.336,2.344c0.533-0.256,1.007-0.72,1.329-1.469
				c0.32-0.76,0.627-1.614,0.92-2.509c2.266-5.147,1.21-18.046,5.17-29.844c5.33-4.271,12.688-8.792,10.249-16.663
				C306.337,99.696,307.323,102.885,305.771,97.87z"/>
		</g>
		<path fill="none" stroke="#020303" stroke-width="1.0176" stroke-miterlimit="10" d="M244.23,89.184
			c0.007,1.688-1.003,3.066-2.251,3.072c-1.259,0.008-2.276-1.359-2.286-3.051c-0.008-1.69,0.998-3.064,2.254-3.07
			C243.196,86.129,244.222,87.493,244.23,89.184z"/>
		<g>
			<g>
				<path fill="#020303" d="M257.52,85.775c-1.095,2.248-0.754,4.775-1.379,7.146c-1.151,4.358-4.946-0.355-7.09,1.559
					c-4.14,3.694,3.205,7.104,6.221,7.228c0.869,0.036,0.865-1.311,0-1.346c-2.024-0.083-4.577-1.02-5.765-2.733
					c-0.889-1.284,0.484-2.375,1.665-2.063c0.503,0.133,0.996,0.358,1.486,0.53c0.771,0.271,1.482,0.205,2.253-0.009
					c3.923-1.088,2.436-6.891,3.771-9.63C259.062,85.677,257.9,84.995,257.52,85.775L257.52,85.775z"/>
			</g>
		</g>
		<g>
			<g>
				<path fill="#020303" d="M262.902,105.705c-2.963,0.71-8.577,3.134-11.256,0.877c0.035,0.272,0.07,0.544,0.105,0.816
					c1.904-2.82,7.088-1.19,9.719-0.389c0.833,0.255,1.188-1.046,0.358-1.299c-3.335-1.017-8.865-2.508-11.24,1.007
					c-0.158,0.233-0.113,0.633,0.104,0.816c3.26,2.746,8.996,0.323,12.566-0.531C264.104,106.802,263.746,105.503,262.902,105.705
					L262.902,105.705z"/>
			</g>
		</g>
		<g>
			<g>
				<path fill="#020303" d="M253.085,108.967c0.981,0.995,2.117,1.729,3.562,1.631c1.4-0.096,2.549-1.144,3.424-2.141
					c0.57-0.649-0.379-1.605-0.951-0.953c-0.662,0.756-1.361,1.431-2.349,1.716c-1.07,0.312-2.047-0.509-2.733-1.205
					C253.427,107.396,252.475,108.348,253.085,108.967L253.085,108.967z"/>
			</g>
		</g>
		<g>
			<path fill="#1E1E1C" d="M265.112,90.121c2.91-6.211,14.256-5.541,17.869-1.918c1.632-0.735,4.238-2.725,5.05-4.184
				c-4.245,1.658-4.383,1.222-5.631,0.816c-6.823-2.191-12.569-3.816-17.138,4.771"/>
			<g>
				<path fill="#020303" d="M265.538,90.37c2.887-5.579,12.783-5.831,17.095-1.818c0.171,0.16,0.392,0.181,0.598,0.077
					c2.013-1,3.988-2.46,5.228-4.359c0.226-0.347-0.15-0.88-0.558-0.726c-1.834,0.7-3.457,1.473-5.368,0.817
					c-2.316-0.793-4.701-1.469-7.144-1.721c-4.936-0.51-8.3,2.668-10.551,6.718c-0.311,0.557,0.542,1.054,0.852,0.498
					c1.447-2.604,3.23-4.948,6.147-5.926c2.193-0.734,4.646-0.241,6.818,0.301c1.601,0.397,3.151,1.123,4.766,1.43
					c1.548,0.295,3.366-0.64,4.744-1.166c-0.187-0.241-0.372-0.482-0.558-0.725c-0.947,1.454-2.356,2.502-3.799,3.43
					c-0.978,0.628-1.395-0.15-2.312-0.663c-1.741-0.971-3.786-1.346-5.747-1.523c-4.171-0.38-9.016,0.906-11.061,4.858
					C264.395,90.437,265.246,90.936,265.538,90.37L265.538,90.37z"/>
			</g>
		</g>
		<g>
			<path fill="#1E1E1C" d="M252.236,89.831c-2.274-4.734-10.966-4.136-13.705-1.33c-1.252-0.555-3.265-2.056-3.897-3.166
				c3.264,1.235,3.366,0.896,4.316,0.584c5.211-1.733,9.604-3.025,13.165,3.521"/>
			<g>
				<path fill="#020303" d="M252.562,89.641c-1.612-2.959-4.967-3.772-8.124-3.668c-1.438,0.048-2.994,0.364-4.29,0.996
					c-0.576,0.281-1.088,0.6-1.592,0.991c-0.69,0.539-3.247-2.308-3.598-2.815c-0.143,0.185-0.284,0.37-0.428,0.555
					c2.983,1.095,3.925,0.714,6.864-0.158c4.626-1.372,7.951-0.156,10.394,4.089c0.242,0.424,0.896,0.042,0.651-0.381
					c-1.777-3.092-4.131-5.229-7.843-5.092c-1.757,0.065-3.496,0.663-5.152,1.199c-1.806,0.586-2.892,0.282-4.713-0.386
					c-0.306-0.112-0.609,0.288-0.427,0.555c0.999,1.448,2.472,2.522,4.034,3.302c0.158,0.079,0.327,0.063,0.458-0.059
					c3.326-3.098,10.795-2.996,13.112,1.253C252.143,90.45,252.796,90.068,252.562,89.641L252.562,89.641z"/>
			</g>
		</g>
		
			<ellipse transform="matrix(-0.0051 -1 1 -0.0051 180.3727 382.9292)" fill="#F6AD9E" cx="280.669" cy="101.741" rx="4.082" ry="5.958"/>
		<path fill="#F6AD9E" d="M244.234,98.124c0.015,2.252-2.641,4.098-5.932,4.112c-3.291,0.018-5.97-1.799-5.98-4.053
			c-0.012-2.254,2.648-4.097,5.939-4.115C241.553,94.055,244.224,95.869,244.234,98.124z"/>
		<path fill="none" stroke="#020303" stroke-width="1.0176" stroke-miterlimit="10" d="M275.268,88.783
			c0.011,2.014-1.19,3.656-2.688,3.662c-1.493,0.008-2.71-1.621-2.722-3.636c-0.009-2.021,1.19-3.659,2.686-3.667
			C274.039,85.137,275.259,86.762,275.268,88.783z"/>
		<path fill="#FFFFFF" d="M282.224,225.713c-1.465,0.144-2.926,0.273-4.386,0.386c-0.461-0.109-0.923-0.219-1.382-0.326
			c-0.796-1.023-1.654-2.168-2.61-3.484c-9.025-12.459-6.928-23.807-6.971-32.172c-0.015-2.655-4.359-28.473-4.181-28.57
			c5.321-2.826,10.541,0.39,10.541,0.39s-0.018,6.555,1.146,23.978C275.182,197.871,279.557,215.71,282.224,225.713z"/>
		<path fill="#FFFFFF" d="M298.662,220.363c-0.95,1.339-1.812,2.511-2.599,3.549c-1.989,0.33-3.985,0.631-5.982,0.898
			c2.533-9.816,6.982-28.461,7.683-40.818c0.986-17.432,0.79-19.264,1.037-20.797c0.411-2.545,10.475-2.936,10.475-2.936
			c-0.829,4.42-3.975,25.21-3.963,27.862C305.356,196.493,307.561,207.814,298.662,220.363z"/>
		<g>
			<g>
				<path fill="#FFFFFF" d="M263.44,50.16c2.108,9.49,12.09,14.556,20.431,17.595c9.186,3.349,19.62,5.369,29.432,4.943
					c0.753-0.032,0.756-1.205,0-1.172c-9.026,0.391-18.354-1.412-26.917-4.149c-8.606-2.751-19.645-7.758-21.815-17.528
					C264.407,49.11,263.277,49.423,263.44,50.16L263.44,50.16z"/>
			</g>
		</g>
		<g>
			<g>
				<path fill="#FFFFFF" d="M277.479,51.349c4.064,7.465,14.621,9.078,22.201,10.22c0.739,0.111,1.057-1.02,0.312-1.131
					c-7.259-1.092-17.61-2.539-21.499-9.682C278.13,50.093,277.117,50.685,277.479,51.349L277.479,51.349z"/>
			</g>
		</g>
		<g>
			<g>
				<path fill="#FFFFFF" d="M244.173,54.628c-7.494,4.812-12.368,12.416-17.907,19.185c-0.475,0.58,0.351,1.415,0.829,0.83
					c5.465-6.68,10.275-14.253,17.669-19.001C245.398,55.234,244.811,54.219,244.173,54.628L244.173,54.628z"/>
			</g>
		</g>
		<g>
			<g>
				<path fill="#020303" d="M247.861,75.751c-3.226,1.302-6.624,1.905-10.019,2.592c-0.643,0.131-0.37,1.11,0.271,0.98
					c3.396-0.686,6.792-1.29,10.02-2.592C248.732,76.489,248.47,75.505,247.861,75.751L247.861,75.751z"/>
			</g>
		</g>
	</g>
</g>
</svg>
