<?xml version="1.0" encoding="utf-8"?>
<!-- Generator: Adobe Illustrator 16.0.4, SVG Export Plug-In . SVG Version: 6.00 Build 0)  -->
<!DOCTYPE svg PUBLIC "-//W3C//DTD SVG 1.1//EN" "http://www.w3.org/Graphics/SVG/1.1/DTD/svg11.dtd">
<svg version="1.1" id="Layer_1" xmlns="http://www.w3.org/2000/svg" xmlns:xlink="http://www.w3.org/1999/xlink" x="0px" y="0px"
	 width="17.564px" height="17.563px" viewBox="0 0 17.564 17.563" enable-background="new 0 0 17.564 17.563" xml:space="preserve">
<g>
	<path fill="#1D1B3A" d="M9.322,10.602v-0.222C9.309,9.824,9.494,9.341,9.954,8.834C10.419,8.314,11,7.697,11,6.758
		c0-1.026-0.74-1.929-2.371-1.929c-0.879,0-1.618,0.247-2.064,0.507l0.418,1.347c0.322-0.222,0.821-0.37,1.223-0.37
		C8.827,6.338,9.11,6.622,9.11,7.054c0,0.421-0.321,0.817-0.717,1.286c-0.555,0.668-0.765,1.311-0.727,1.941l0.011,0.321H9.322z
		 M8.426,12.734c0.437,0,0.729-0.316,0.729-0.738c-0.007-0.43-0.292-0.736-0.729-0.736c-0.421,0-0.723,0.307-0.723,0.736
		C7.704,12.418,7.997,12.734,8.426,12.734z"/>
	<g>
		<path fill="none" d="M13.526,11.902c0.592-0.896,0.938-1.969,0.938-3.121s-0.347-2.224-0.938-3.12"/>
		<path fill="none" d="M5.663,13.525c0.895,0.592,1.968,0.939,3.119,0.939c1.153,0,2.225-0.348,3.121-0.939"/>
		<path fill="none" d="M4.038,5.662c-0.59,0.896-0.938,1.968-0.938,3.12s0.349,2.224,0.938,3.121"/>
		<path fill="none" d="M11.903,4.038c-0.896-0.592-1.97-0.939-3.121-0.939S6.557,3.446,5.663,4.038"/>
		<path fill="#FFFFFF" stroke="#1D1B3A" stroke-width="0.6888" stroke-miterlimit="10" d="M8.782,3.099
			c1.151,0,2.225,0.347,3.121,0.939l1.97-1.97c-1.417-1.077-3.177-1.724-5.091-1.724c-1.912,0-3.674,0.647-5.089,1.724l1.97,1.97
			C6.557,3.446,7.63,3.099,8.782,3.099z"/>
		<path fill="#FFFFFF" stroke="#1D1B3A" stroke-width="0.6888" stroke-miterlimit="10" d="M14.464,8.782
			c0,1.152-0.347,2.224-0.938,3.121l1.97,1.969c1.076-1.416,1.724-3.176,1.724-5.089c0-1.913-0.647-3.673-1.724-5.089l-1.97,1.969
			C14.118,6.558,14.464,7.63,14.464,8.782z"/>
		<path fill="#FFFFFF" stroke="#1D1B3A" stroke-width="0.6888" stroke-miterlimit="10" d="M3.099,8.782
			c0-1.152,0.349-2.224,0.938-3.12l-1.97-1.969C0.992,5.109,0.344,6.869,0.344,8.782c0,1.914,0.647,3.673,1.724,5.089l1.97-1.969
			C3.448,11.006,3.099,9.934,3.099,8.782z"/>
		<path fill="#FFFFFF" stroke="#1D1B3A" stroke-width="0.6888" stroke-miterlimit="10" d="M8.782,14.465
			c-1.151,0-2.225-0.348-3.119-0.939l-1.972,1.97c1.417,1.077,3.179,1.724,5.091,1.724c1.914,0,3.674-0.646,5.091-1.724l-1.97-1.97
			C11.006,14.117,9.935,14.465,8.782,14.465z"/>
		<path fill="#FFFFFF" stroke="#1D1B3A" stroke-width="0.6591" stroke-miterlimit="10" d="M11.903,13.525
			c0.644-0.426,1.198-0.979,1.623-1.623"/>
		<path fill="#FFFFFF" stroke="#1D1B3A" stroke-width="0.6591" stroke-miterlimit="10" d="M5.663,4.038
			C5.017,4.463,4.464,5.017,4.038,5.662"/>
		<path fill="#1D1B3A" stroke="#1D1B3A" stroke-width="0.6888" stroke-miterlimit="10" d="M15.496,13.871l-1.97-1.969
			c-0.425,0.645-0.979,1.197-1.623,1.623l1.97,1.97C14.484,15.029,15.031,14.484,15.496,13.871z"/>
		<path fill="#1D1B3A" stroke="#1D1B3A" stroke-width="0.6888" stroke-miterlimit="10" d="M5.663,4.038l-1.97-1.97
			C3.08,2.534,2.535,3.08,2.068,3.692l1.97,1.969C4.464,5.017,5.017,4.463,5.663,4.038z"/>
		<path fill="#FFFFFF" stroke="#1D1B3A" stroke-width="0.6591" stroke-miterlimit="10" d="M13.526,5.662
			c-0.425-0.645-0.979-1.198-1.623-1.624"/>
		<path fill="#FFFFFF" stroke="#1D1B3A" stroke-width="0.6591" stroke-miterlimit="10" d="M4.038,11.902
			c0.427,0.645,0.979,1.197,1.625,1.623"/>
		<path fill="#1D1B3A" stroke="#1D1B3A" stroke-width="0.6888" stroke-miterlimit="10" d="M4.038,11.902l-1.97,1.969
			c0.467,0.613,1.012,1.158,1.623,1.624l1.972-1.97C5.017,13.1,4.464,12.547,4.038,11.902z"/>
		<path fill="#1D1B3A" stroke="#1D1B3A" stroke-width="0.6888" stroke-miterlimit="10" d="M13.526,5.662l1.97-1.969
			c-0.465-0.613-1.012-1.159-1.623-1.625l-1.97,1.97C12.546,4.463,13.101,5.017,13.526,5.662z"/>
	</g>
</g>
</svg>
