<?xml version="1.0" encoding="utf-8"?>
<!-- Generator: Adobe Illustrator 16.0.4, SVG Export Plug-In . SVG Version: 6.00 Build 0)  -->
<!DOCTYPE svg PUBLIC "-//W3C//DTD SVG 1.1//EN" "http://www.w3.org/Graphics/SVG/1.1/DTD/svg11.dtd">
<svg version="1.1" id="Layer_1" xmlns="http://www.w3.org/2000/svg" xmlns:xlink="http://www.w3.org/1999/xlink" x="0px" y="0px"
	 width="1107.911px" height="517.497px" viewBox="0 0 1107.911 517.497" enable-background="new 0 0 1107.911 517.497"
	 xml:space="preserve">
<pattern  x="252.699" y="-167.175" width="86.081" height="74.172" patternUnits="userSpaceOnUse" id="Unnamed_Pattern_9" viewBox="0 -74.172 86.081 74.172" overflow="visible">
	<g>
		<polygon fill="none" points="0,-74.172 86.082,-74.172 86.082,0 0,0 		"/>
		<path fill="#2EBDEF" d="M27.879-4.633c0-0.561-0.455-1.018-1.017-1.018s-1.019,0.457-1.019,1.018c0,0.562,0.457,1.021,1.019,1.021
			S27.879-4.07,27.879-4.633"/>
		<path fill="#2EBDEF" d="M27.879-9.266c0-0.561-0.455-1.018-1.017-1.018s-1.019,0.457-1.019,1.018c0,0.564,0.457,1.021,1.019,1.021
			S27.879-8.701,27.879-9.266"/>
		<path fill="#2EBDEF" d="M27.879-32.424c0-0.562-0.455-1.018-1.017-1.018s-1.019,0.455-1.019,1.018
			c0,0.562,0.457,1.018,1.019,1.018S27.879-31.862,27.879-32.424"/>
		<path fill="#2EBDEF" d="M27.879-13.895c0-0.562-0.455-1.021-1.017-1.021s-1.019,0.458-1.019,1.021
			c0,0.561,0.457,1.018,1.019,1.018S27.879-13.334,27.879-13.895"/>
		<path fill="#2EBDEF" d="M27.879-27.791c0-0.562-0.455-1.02-1.017-1.02s-1.019,0.458-1.019,1.02c0,0.562,0.457,1.018,1.019,1.018
			S27.879-27.229,27.879-27.791"/>
		<path fill="#2EBDEF" d="M27.879-18.527c0-0.562-0.455-1.021-1.017-1.021s-1.019,0.458-1.019,1.021
			c0,0.562,0.457,1.018,1.019,1.018S27.879-17.966,27.879-18.527"/>
		<path fill="#2EBDEF" d="M27.879-23.158c0-0.564-0.455-1.02-1.017-1.02s-1.019,0.455-1.019,1.02c0,0.561,0.457,1.016,1.019,1.016
			S27.879-22.598,27.879-23.158"/>
		<path fill="#2EBDEF" d="M33.253-64.846c0-0.562-0.457-1.018-1.018-1.018c-0.564,0-1.019,0.456-1.019,1.018
			c0,0.561,0.455,1.018,1.019,1.018C32.796-63.828,33.253-64.285,33.253-64.846"/>
		<path fill="#2EBDEF" d="M33.253-74.109c0-0.021-0.002-0.043-0.004-0.062H31.22c-0.002,0.019-0.004,0.04-0.004,0.062
			c0,0.562,0.455,1.018,1.019,1.018C32.796-73.092,33.253-73.548,33.253-74.109"/>
		<path fill="#2EBDEF" d="M33.253-41.688c0-0.561-0.457-1.018-1.018-1.018c-0.564,0-1.019,0.457-1.019,1.018
			c0,0.562,0.455,1.021,1.019,1.021C32.796-40.667,33.253-41.125,33.253-41.688"/>
		<path fill="#2EBDEF" d="M33.253-37.055c0-0.564-0.457-1.02-1.018-1.02c-0.564,0-1.019,0.455-1.019,1.02
			c0,0.562,0.455,1.018,1.019,1.018C32.796-36.037,33.253-36.493,33.253-37.055"/>
		<path fill="#2EBDEF" d="M33.253-46.318c0-0.562-0.457-1.02-1.018-1.02c-0.564,0-1.019,0.457-1.019,1.02
			c0,0.562,0.455,1.018,1.019,1.018C32.796-45.301,33.253-45.757,33.253-46.318"/>
		<path fill="#2EBDEF" d="M33.253-32.424c0-0.562-0.457-1.018-1.018-1.018c-0.564,0-1.019,0.455-1.019,1.018
			c0,0.562,0.455,1.018,1.019,1.018C32.796-31.406,33.253-31.862,33.253-32.424"/>
		<path fill="#2EBDEF" d="M33.253-55.582c0-0.562-0.457-1.018-1.018-1.018c-0.564,0-1.019,0.455-1.019,1.018
			c0,0.562,0.455,1.018,1.019,1.018C32.796-54.564,33.253-55.021,33.253-55.582"/>
		<path fill="#2EBDEF" d="M33.253-50.951c0-0.562-0.457-1.018-1.018-1.018c-0.564,0-1.019,0.456-1.019,1.018
			s0.455,1.018,1.019,1.018C32.796-49.934,33.253-50.39,33.253-50.951"/>
		<path fill="#2EBDEF" d="M33.253-60.215c0-0.562-0.457-1.018-1.018-1.018c-0.564,0-1.019,0.455-1.019,1.018
			c0,0.562,0.455,1.018,1.019,1.018C32.796-59.197,33.253-59.653,33.253-60.215"/>
		<path fill="#2EBDEF" d="M33.253-69.479c0-0.562-0.457-1.018-1.018-1.018c-0.564,0-1.019,0.456-1.019,1.018
			c0,0.564,0.455,1.018,1.019,1.018C32.796-68.461,33.253-68.914,33.253-69.479"/>
		<path fill="#2EBDEF" d="M27.879-55.582c0-0.562-0.455-1.018-1.017-1.018s-1.019,0.455-1.019,1.018
			c0,0.562,0.457,1.018,1.019,1.018S27.879-55.021,27.879-55.582"/>
		<path fill="#2EBDEF" d="M22.508-23.158c0-0.564-0.456-1.02-1.018-1.02c-0.563,0-1.019,0.455-1.019,1.02
			c0,0.561,0.456,1.016,1.019,1.016C22.052-22.143,22.508-22.598,22.508-23.158"/>
		<path fill="#2EBDEF" d="M22.508-18.527c0-0.562-0.456-1.021-1.018-1.021c-0.563,0-1.019,0.458-1.019,1.021
			c0,0.562,0.456,1.018,1.019,1.018C22.052-17.51,22.508-17.966,22.508-18.527"/>
		<path fill="#2EBDEF" d="M22.508-4.633c0-0.561-0.456-1.018-1.018-1.018c-0.563,0-1.019,0.457-1.019,1.018
			c0,0.562,0.456,1.021,1.019,1.021C22.052-3.612,22.508-4.07,22.508-4.633"/>
		<path fill="#2EBDEF" d="M22.508-9.266c0-0.561-0.456-1.018-1.018-1.018c-0.563,0-1.019,0.457-1.019,1.018
			c0,0.564,0.456,1.021,1.019,1.021C22.052-8.245,22.508-8.701,22.508-9.266"/>
		<path fill="#2EBDEF" d="M27.879-37.055c0-0.564-0.455-1.02-1.017-1.02s-1.019,0.455-1.019,1.02c0,0.562,0.457,1.018,1.019,1.018
			S27.879-36.493,27.879-37.055"/>
		<path fill="#2EBDEF" d="M22.508-37.055c0-0.564-0.456-1.02-1.018-1.02c-0.563,0-1.019,0.455-1.019,1.02
			c0,0.562,0.456,1.018,1.019,1.018C22.052-36.037,22.508-36.493,22.508-37.055"/>
		<path fill="#2EBDEF" d="M22.508-27.791c0-0.562-0.456-1.02-1.018-1.02c-0.563,0-1.019,0.458-1.019,1.02
			c0,0.562,0.456,1.018,1.019,1.018C22.052-26.773,22.508-27.229,22.508-27.791"/>
		<path fill="#2EBDEF" d="M22.508-32.424c0-0.562-0.456-1.018-1.018-1.018c-0.563,0-1.019,0.455-1.019,1.018
			c0,0.562,0.456,1.018,1.019,1.018C22.052-31.406,22.508-31.862,22.508-32.424"/>
		<path fill="#2EBDEF" d="M22.508-13.895c0-0.562-0.456-1.021-1.018-1.021c-0.563,0-1.019,0.458-1.019,1.021
			c0,0.561,0.456,1.018,1.019,1.018C22.052-12.877,22.508-13.334,22.508-13.895"/>
		<path fill="#2EBDEF" d="M33.253-27.791c0-0.562-0.457-1.02-1.018-1.02c-0.564,0-1.019,0.458-1.019,1.02
			c0,0.562,0.455,1.018,1.019,1.018C32.796-26.773,33.253-27.229,33.253-27.791"/>
		<path fill="#2EBDEF" d="M27.879-50.951c0-0.562-0.455-1.018-1.017-1.018s-1.019,0.456-1.019,1.018s0.457,1.018,1.019,1.018
			S27.879-50.39,27.879-50.951"/>
		<path fill="#2EBDEF" d="M43.998-4.633c0-0.561-0.457-1.018-1.019-1.018s-1.017,0.457-1.017,1.018c0,0.562,0.455,1.021,1.017,1.021
			S43.998-4.07,43.998-4.633"/>
		<path fill="#2EBDEF" d="M27.879-41.688c0-0.561-0.455-1.018-1.017-1.018s-1.019,0.457-1.019,1.018
			c0,0.562,0.457,1.021,1.019,1.021S27.879-41.125,27.879-41.688"/>
		<path fill="#2EBDEF" d="M27.879-74.109c0-0.021,0-0.043-0.002-0.062h-2.031c0,0.019-0.003,0.04-0.003,0.062
			c0,0.562,0.457,1.018,1.019,1.018S27.879-73.548,27.879-74.109"/>
		<path fill="#2EBDEF" d="M27.879-60.215c0-0.562-0.455-1.018-1.017-1.018s-1.019,0.455-1.019,1.018
			c0,0.562,0.457,1.018,1.019,1.018S27.879-59.653,27.879-60.215"/>
		<path fill="#2EBDEF" d="M27.879-64.846c0-0.562-0.455-1.018-1.017-1.018s-1.019,0.456-1.019,1.018
			c0,0.561,0.457,1.018,1.019,1.018S27.879-64.285,27.879-64.846"/>
		<path fill="#2EBDEF" d="M27.879-69.479c0-0.562-0.455-1.018-1.017-1.018s-1.019,0.456-1.019,1.018
			c0,0.564,0.457,1.018,1.019,1.018S27.879-68.914,27.879-69.479"/>
		<path fill="#2EBDEF" d="M43.998-18.527c0-0.562-0.457-1.021-1.019-1.021s-1.017,0.458-1.017,1.021
			c0,0.562,0.455,1.018,1.017,1.018S43.998-17.966,43.998-18.527"/>
		<path fill="#2EBDEF" d="M43.998-69.479c0-0.562-0.457-1.018-1.019-1.018s-1.017,0.456-1.017,1.018
			c0,0.564,0.455,1.018,1.017,1.018S43.998-68.914,43.998-69.479"/>
		<path fill="#2EBDEF" d="M43.998-55.582c0-0.562-0.457-1.018-1.019-1.018s-1.017,0.455-1.017,1.018
			c0,0.562,0.455,1.018,1.017,1.018S43.998-55.021,43.998-55.582"/>
		<path fill="#2EBDEF" d="M43.998-60.215c0-0.562-0.457-1.018-1.019-1.018s-1.017,0.455-1.017,1.018
			c0,0.562,0.455,1.018,1.017,1.018S43.998-59.653,43.998-60.215"/>
		<path fill="#2EBDEF" d="M38.625-13.895c0-0.562-0.456-1.021-1.018-1.021s-1.017,0.458-1.017,1.021
			c0,0.561,0.455,1.018,1.017,1.018S38.625-13.334,38.625-13.895"/>
		<path fill="#2EBDEF" d="M38.625-9.266c0-0.561-0.456-1.018-1.018-1.018s-1.017,0.457-1.017,1.018c0,0.564,0.455,1.021,1.017,1.021
			S38.625-8.701,38.625-9.266"/>
		<path fill="#2EBDEF" d="M38.625-4.633c0-0.561-0.456-1.018-1.018-1.018s-1.017,0.457-1.017,1.018c0,0.562,0.455,1.021,1.017,1.021
			S38.625-4.07,38.625-4.633"/>
		<path fill="#2EBDEF" d="M43.998-46.318c0-0.562-0.457-1.02-1.019-1.02s-1.017,0.457-1.017,1.02c0,0.562,0.455,1.018,1.017,1.018
			S43.998-45.757,43.998-46.318"/>
		<path fill="#2EBDEF" d="M43.998-74.109c0-0.021-0.002-0.043-0.004-0.062h-2.029c-0.002,0.019-0.003,0.04-0.003,0.062
			c0,0.562,0.455,1.018,1.017,1.018S43.998-73.548,43.998-74.109"/>
		<path fill="#2EBDEF" d="M43.998-64.846c0-0.562-0.457-1.018-1.019-1.018s-1.017,0.456-1.017,1.018
			c0,0.561,0.455,1.018,1.017,1.018S43.998-64.285,43.998-64.846"/>
		<path fill="#2EBDEF" d="M43.998-50.951c0-0.562-0.457-1.018-1.019-1.018s-1.017,0.456-1.017,1.018s0.455,1.018,1.017,1.018
			S43.998-50.39,43.998-50.951"/>
		<path fill="#2EBDEF" d="M43.998-13.895c0-0.562-0.457-1.021-1.019-1.021s-1.017,0.458-1.017,1.021
			c0,0.561,0.455,1.018,1.017,1.018S43.998-13.334,43.998-13.895"/>
		<path fill="#2EBDEF" d="M43.998-41.688c0-0.561-0.457-1.018-1.019-1.018s-1.017,0.457-1.017,1.018
			c0,0.562,0.455,1.021,1.017,1.021S43.998-41.125,43.998-41.688"/>
		<path fill="#2EBDEF" d="M22.508-41.688c0-0.561-0.456-1.018-1.018-1.018c-0.563,0-1.019,0.457-1.019,1.018
			c0,0.562,0.456,1.021,1.019,1.021C22.052-40.667,22.508-41.125,22.508-41.688"/>
		<path fill="#2EBDEF" d="M43.998-9.266c0-0.561-0.457-1.018-1.019-1.018s-1.017,0.457-1.017,1.018c0,0.564,0.455,1.021,1.017,1.021
			S43.998-8.701,43.998-9.266"/>
		<path fill="#2EBDEF" d="M43.998-23.158c0-0.564-0.457-1.02-1.019-1.02s-1.017,0.455-1.017,1.02c0,0.561,0.455,1.016,1.017,1.016
			S43.998-22.598,43.998-23.158"/>
		<path fill="#2EBDEF" d="M43.998-27.791c0-0.562-0.457-1.02-1.019-1.02s-1.017,0.458-1.017,1.02c0,0.562,0.455,1.018,1.017,1.018
			S43.998-27.229,43.998-27.791"/>
		<path fill="#2EBDEF" d="M43.998-37.055c0-0.564-0.457-1.02-1.019-1.02s-1.017,0.455-1.017,1.02c0,0.562,0.455,1.018,1.017,1.018
			S43.998-36.493,43.998-37.055"/>
		<path fill="#2EBDEF" d="M43.998-32.424c0-0.562-0.457-1.018-1.019-1.018s-1.017,0.455-1.017,1.018
			c0,0.562,0.455,1.018,1.017,1.018S43.998-31.862,43.998-32.424"/>
		<path fill="#2EBDEF" d="M38.625-74.109c0-0.021-0.001-0.043-0.003-0.062h-2.029c-0.002,0.019-0.003,0.04-0.003,0.062
			c0,0.562,0.455,1.018,1.017,1.018S38.625-73.548,38.625-74.109"/>
		<path fill="#2EBDEF" d="M38.625-64.846c0-0.562-0.456-1.018-1.018-1.018s-1.017,0.456-1.017,1.018
			c0,0.561,0.455,1.018,1.017,1.018S38.625-64.285,38.625-64.846"/>
		<path fill="#2EBDEF" d="M33.253-4.633c0-0.561-0.457-1.018-1.018-1.018c-0.564,0-1.019,0.457-1.019,1.018
			c0,0.562,0.455,1.021,1.019,1.021C32.796-3.612,33.253-4.07,33.253-4.633"/>
		<path fill="#2EBDEF" d="M33.253-23.158c0-0.564-0.457-1.02-1.018-1.02c-0.564,0-1.019,0.455-1.019,1.02
			c0,0.561,0.455,1.016,1.019,1.016C32.796-22.143,33.253-22.598,33.253-23.158"/>
		<path fill="#2EBDEF" d="M38.625-60.215c0-0.562-0.456-1.018-1.018-1.018s-1.017,0.455-1.017,1.018
			c0,0.562,0.455,1.018,1.017,1.018S38.625-59.653,38.625-60.215"/>
		<path fill="#2EBDEF" d="M38.625-69.479c0-0.562-0.456-1.018-1.018-1.018s-1.017,0.456-1.017,1.018
			c0,0.564,0.455,1.018,1.017,1.018S38.625-68.914,38.625-69.479"/>
		<path fill="#2EBDEF" d="M33.253-18.527c0-0.562-0.457-1.021-1.018-1.021c-0.564,0-1.019,0.458-1.019,1.021
			c0,0.562,0.455,1.018,1.019,1.018C32.796-17.51,33.253-17.966,33.253-18.527"/>
		<path fill="#2EBDEF" d="M33.253-9.266c0-0.561-0.457-1.018-1.018-1.018c-0.564,0-1.019,0.457-1.019,1.018
			c0,0.564,0.455,1.021,1.019,1.021C32.796-8.245,33.253-8.701,33.253-9.266"/>
		<path fill="#2EBDEF" d="M33.253-13.895c0-0.562-0.457-1.021-1.018-1.021c-0.564,0-1.019,0.458-1.019,1.021
			c0,0.561,0.455,1.018,1.019,1.018C32.796-12.877,33.253-13.334,33.253-13.895"/>
		<path fill="#2EBDEF" d="M38.625-18.527c0-0.562-0.456-1.021-1.018-1.021s-1.017,0.458-1.017,1.021
			c0,0.562,0.455,1.018,1.017,1.018S38.625-17.966,38.625-18.527"/>
		<path fill="#2EBDEF" d="M38.625-32.424c0-0.562-0.456-1.018-1.018-1.018s-1.017,0.455-1.017,1.018
			c0,0.562,0.455,1.018,1.017,1.018S38.625-31.862,38.625-32.424"/>
		<path fill="#2EBDEF" d="M38.625-27.791c0-0.562-0.456-1.02-1.018-1.02s-1.017,0.458-1.017,1.02c0,0.562,0.455,1.018,1.017,1.018
			S38.625-27.229,38.625-27.791"/>
		<path fill="#2EBDEF" d="M38.625-37.055c0-0.564-0.456-1.02-1.018-1.02s-1.017,0.455-1.017,1.02c0,0.562,0.455,1.018,1.017,1.018
			S38.625-36.493,38.625-37.055"/>
		<path fill="#2EBDEF" d="M38.625-23.158c0-0.564-0.456-1.02-1.018-1.02s-1.017,0.455-1.017,1.02c0,0.561,0.455,1.016,1.017,1.016
			S38.625-22.598,38.625-23.158"/>
		<path fill="#2EBDEF" d="M38.625-41.688c0-0.561-0.456-1.018-1.018-1.018s-1.017,0.457-1.017,1.018
			c0,0.562,0.455,1.021,1.017,1.021S38.625-41.125,38.625-41.688"/>
		<path fill="#2EBDEF" d="M38.625-50.951c0-0.562-0.456-1.018-1.018-1.018s-1.017,0.456-1.017,1.018s0.455,1.018,1.017,1.018
			S38.625-50.39,38.625-50.951"/>
		<path fill="#2EBDEF" d="M38.625-55.582c0-0.562-0.456-1.018-1.018-1.018s-1.017,0.455-1.017,1.018
			c0,0.562,0.455,1.018,1.017,1.018S38.625-55.021,38.625-55.582"/>
		<path fill="#2EBDEF" d="M38.625-46.318c0-0.562-0.456-1.02-1.018-1.02s-1.017,0.457-1.017,1.02c0,0.562,0.455,1.018,1.017,1.018
			S38.625-45.757,38.625-46.318"/>
		<path fill="#2EBDEF" d="M27.879-46.318c0-0.562-0.455-1.02-1.017-1.02s-1.019,0.457-1.019,1.02c0,0.562,0.457,1.018,1.019,1.018
			S27.879-45.757,27.879-46.318"/>
		<path fill="#2EBDEF" d="M6.39-46.318c0-0.562-0.456-1.02-1.018-1.02c-0.561,0-1.017,0.457-1.017,1.02
			c0,0.562,0.456,1.018,1.017,1.018C5.934-45.301,6.39-45.757,6.39-46.318"/>
		<path fill="#2EBDEF" d="M6.39-50.951c0-0.562-0.456-1.018-1.018-1.018c-0.561,0-1.017,0.456-1.017,1.018s0.456,1.018,1.017,1.018
			C5.934-49.934,6.39-50.39,6.39-50.951"/>
		<path fill="#2EBDEF" d="M6.39-41.688c0-0.561-0.456-1.018-1.018-1.018c-0.561,0-1.017,0.457-1.017,1.018
			c0,0.562,0.456,1.021,1.017,1.021C5.934-40.667,6.39-41.125,6.39-41.688"/>
		<path fill="#2EBDEF" d="M6.39-37.055c0-0.564-0.456-1.02-1.018-1.02c-0.561,0-1.017,0.455-1.017,1.02
			c0,0.562,0.456,1.018,1.017,1.018C5.934-36.037,6.39-36.493,6.39-37.055"/>
		<path fill="#2EBDEF" d="M6.39-55.582c0-0.562-0.456-1.018-1.018-1.018c-0.561,0-1.017,0.455-1.017,1.018
			c0,0.562,0.456,1.018,1.017,1.018C5.934-54.564,6.39-55.021,6.39-55.582"/>
		<path fill="#2EBDEF" d="M6.39-32.424c0-0.562-0.456-1.018-1.018-1.018c-0.561,0-1.017,0.455-1.017,1.018
			c0,0.562,0.456,1.018,1.017,1.018C5.934-31.406,6.39-31.862,6.39-32.424"/>
		<path fill="#2EBDEF" d="M6.39-64.846c0-0.562-0.456-1.018-1.018-1.018c-0.561,0-1.017,0.456-1.017,1.018
			c0,0.561,0.456,1.018,1.017,1.018C5.934-63.828,6.39-64.285,6.39-64.846"/>
		<path fill="#2EBDEF" d="M6.39-60.215c0-0.562-0.456-1.018-1.018-1.018c-0.561,0-1.017,0.455-1.017,1.018
			c0,0.562,0.456,1.018,1.017,1.018C5.934-59.197,6.39-59.653,6.39-60.215"/>
		<path fill="#2EBDEF" d="M6.39-69.479c0-0.562-0.456-1.018-1.018-1.018c-0.561,0-1.017,0.456-1.017,1.018
			c0,0.564,0.456,1.018,1.017,1.018C5.934-68.461,6.39-68.914,6.39-69.479"/>
		<path fill="#2EBDEF" d="M11.764-74.109c0-0.021-0.003-0.043-0.003-0.062H9.73c-0.002,0.019-0.003,0.04-0.003,0.062
			c0,0.562,0.455,1.018,1.017,1.018C11.308-73.092,11.764-73.548,11.764-74.109"/>
		<path fill="#2EBDEF" d="M6.39-9.266c0-0.561-0.456-1.018-1.018-1.018c-0.561,0-1.017,0.457-1.017,1.018
			c0,0.564,0.456,1.021,1.017,1.021C5.934-8.245,6.39-8.701,6.39-9.266"/>
		<path fill="#2EBDEF" d="M6.39-4.633c0-0.561-0.456-1.018-1.018-1.018c-0.561,0-1.017,0.457-1.017,1.018
			c0,0.562,0.456,1.021,1.017,1.021C5.934-3.612,6.39-4.07,6.39-4.633"/>
		<path fill="#2EBDEF" d="M11.764-64.846c0-0.562-0.456-1.018-1.02-1.018c-0.562,0-1.017,0.456-1.017,1.018
			c0,0.561,0.455,1.018,1.017,1.018C11.308-63.828,11.764-64.285,11.764-64.846"/>
		<path fill="#2EBDEF" d="M6.39-13.895c0-0.562-0.456-1.021-1.018-1.021c-0.561,0-1.017,0.458-1.017,1.021
			c0,0.561,0.456,1.018,1.017,1.018C5.934-12.877,6.39-13.334,6.39-13.895"/>
		<path fill="#2EBDEF" d="M6.39-27.791c0-0.562-0.456-1.02-1.018-1.02c-0.561,0-1.017,0.458-1.017,1.02
			c0,0.562,0.456,1.018,1.017,1.018C5.934-26.773,6.39-27.229,6.39-27.791"/>
		<path fill="#2EBDEF" d="M6.39-23.158c0-0.564-0.456-1.02-1.018-1.02c-0.561,0-1.017,0.455-1.017,1.02
			c0,0.561,0.456,1.016,1.017,1.016C5.934-22.143,6.39-22.598,6.39-23.158"/>
		<path fill="#2EBDEF" d="M6.39-18.527c0-0.562-0.456-1.021-1.018-1.021c-0.561,0-1.017,0.458-1.017,1.021
			c0,0.562,0.456,1.018,1.017,1.018C5.934-17.51,6.39-17.966,6.39-18.527"/>
		<path fill="#2EBDEF" d="M1.019-32.424c0-0.562-0.457-1.018-1.019-1.018v2.035C0.562-31.406,1.019-31.862,1.019-32.424"/>
		<path fill="#2EBDEF" d="M1.019-37.055c0-0.564-0.457-1.02-1.019-1.02v2.037C0.562-36.037,1.019-36.493,1.019-37.055"/>
		<path fill="#2EBDEF" d="M1.019-50.951c0-0.562-0.457-1.018-1.019-1.018v2.035C0.562-49.934,1.019-50.39,1.019-50.951"/>
		<path fill="#2EBDEF" d="M1.019-55.582C1.019-56.145,0.562-56.6,0-56.6v2.035C0.562-54.564,1.019-55.021,1.019-55.582"/>
		<path fill="#2EBDEF" d="M22.508-46.318c0-0.562-0.456-1.02-1.018-1.02c-0.563,0-1.019,0.457-1.019,1.02
			c0,0.562,0.456,1.018,1.019,1.018C22.052-45.301,22.508-45.757,22.508-46.318"/>
		<path fill="#2EBDEF" d="M1.019-46.318c0-0.562-0.457-1.02-1.019-1.02v2.037C0.562-45.301,1.019-45.757,1.019-46.318"/>
		<path fill="#2EBDEF" d="M6.39-74.109c0-0.021-0.001-0.043-0.003-0.062H4.358c-0.002,0.019-0.003,0.04-0.003,0.062
			c0,0.562,0.456,1.018,1.017,1.018C5.934-73.092,6.39-73.548,6.39-74.109"/>
		<path fill="#2EBDEF" d="M1.019-64.846c0-0.562-0.457-1.018-1.019-1.018v2.035C0.562-63.828,1.019-64.285,1.019-64.846"/>
		<path fill="#2EBDEF" d="M1.019-60.215c0-0.562-0.457-1.018-1.019-1.018v2.035C0.562-59.197,1.019-59.653,1.019-60.215"/>
		<path fill="#2EBDEF" d="M1.019-69.479c0-0.562-0.457-1.018-1.019-1.018v2.035C0.562-68.461,1.019-68.914,1.019-69.479"/>
		<path fill="#2EBDEF" d="M11.764-69.479c0-0.562-0.456-1.018-1.02-1.018c-0.562,0-1.017,0.456-1.017,1.018
			c0,0.564,0.455,1.018,1.017,1.018C11.308-68.461,11.764-68.914,11.764-69.479"/>
		<path fill="#2EBDEF" d="M1.019-13.895c0-0.562-0.457-1.021-1.019-1.021v2.038C0.562-12.877,1.019-13.334,1.019-13.895"/>
		<path fill="#2EBDEF" d="M1.019-4.633C1.019-5.193,0.562-5.65,0-5.65v2.038C0.562-3.612,1.019-4.07,1.019-4.633"/>
		<path fill="#2EBDEF" d="M1.019-74.109c0-0.021-0.002-0.043-0.004-0.062H0v1.079C0.562-73.092,1.019-73.548,1.019-74.109"/>
		<path fill="#2EBDEF" d="M1.019-9.266c0-0.561-0.457-1.018-1.019-1.018v2.038C0.562-8.245,1.019-8.701,1.019-9.266"/>
		<path fill="#2EBDEF" d="M1.019-27.791c0-0.562-0.457-1.02-1.019-1.02v2.037C0.562-26.773,1.019-27.229,1.019-27.791"/>
		<path fill="#2EBDEF" d="M1.019-18.527c0-0.562-0.457-1.021-1.019-1.021v2.038C0.562-17.51,1.019-17.966,1.019-18.527"/>
		<path fill="#2EBDEF" d="M1.019-23.158c0-0.564-0.457-1.02-1.019-1.02v2.035C0.562-22.143,1.019-22.598,1.019-23.158"/>
		<path fill="#2EBDEF" d="M1.019-41.688c0-0.561-0.457-1.018-1.019-1.018v2.038C0.562-40.667,1.019-41.125,1.019-41.688"/>
		<path fill="#2EBDEF" d="M17.135-50.951c0-0.562-0.455-1.018-1.019-1.018c-0.561,0-1.017,0.456-1.017,1.018
			s0.456,1.018,1.017,1.018C16.68-49.934,17.135-50.39,17.135-50.951"/>
		<path fill="#2EBDEF" d="M17.135-23.158c0-0.564-0.455-1.02-1.019-1.02c-0.561,0-1.017,0.455-1.017,1.02
			c0,0.561,0.456,1.016,1.017,1.016C16.68-22.143,17.135-22.598,17.135-23.158"/>
		<path fill="#2EBDEF" d="M17.135-32.424c0-0.562-0.455-1.018-1.019-1.018c-0.561,0-1.017,0.455-1.017,1.018
			c0,0.562,0.456,1.018,1.017,1.018C16.68-31.406,17.135-31.862,17.135-32.424"/>
		<path fill="#2EBDEF" d="M17.135-18.527c0-0.562-0.455-1.021-1.019-1.021c-0.561,0-1.017,0.458-1.017,1.021
			c0,0.562,0.456,1.018,1.017,1.018C16.68-17.51,17.135-17.966,17.135-18.527"/>
		<path fill="#2EBDEF" d="M17.135-37.055c0-0.564-0.455-1.02-1.019-1.02c-0.561,0-1.017,0.455-1.017,1.02
			c0,0.562,0.456,1.018,1.017,1.018C16.68-36.037,17.135-36.493,17.135-37.055"/>
		<path fill="#2EBDEF" d="M17.135-46.318c0-0.562-0.455-1.02-1.019-1.02c-0.561,0-1.017,0.457-1.017,1.02
			c0,0.562,0.456,1.018,1.017,1.018C16.68-45.301,17.135-45.757,17.135-46.318"/>
		<path fill="#2EBDEF" d="M17.135-13.895c0-0.562-0.455-1.021-1.019-1.021c-0.561,0-1.017,0.458-1.017,1.021
			c0,0.561,0.456,1.018,1.017,1.018C16.68-12.877,17.135-13.334,17.135-13.895"/>
		<path fill="#2EBDEF" d="M17.135-41.688c0-0.561-0.455-1.018-1.019-1.018c-0.561,0-1.017,0.457-1.017,1.018
			c0,0.562,0.456,1.021,1.017,1.021C16.68-40.667,17.135-41.125,17.135-41.688"/>
		<path fill="#2EBDEF" d="M17.135-27.791c0-0.562-0.455-1.02-1.019-1.02c-0.561,0-1.017,0.458-1.017,1.02
			c0,0.562,0.456,1.018,1.017,1.018C16.68-26.773,17.135-27.229,17.135-27.791"/>
		<path fill="#2EBDEF" d="M22.508-55.582c0-0.562-0.456-1.018-1.018-1.018c-0.563,0-1.019,0.455-1.019,1.018
			c0,0.562,0.456,1.018,1.019,1.018C22.052-54.564,22.508-55.021,22.508-55.582"/>
		<path fill="#2EBDEF" d="M17.135-9.266c0-0.561-0.455-1.018-1.019-1.018c-0.561,0-1.017,0.457-1.017,1.018
			c0,0.564,0.456,1.021,1.017,1.021C16.68-8.245,17.135-8.701,17.135-9.266"/>
		<path fill="#2EBDEF" d="M22.508-69.479c0-0.562-0.456-1.018-1.018-1.018c-0.563,0-1.019,0.456-1.019,1.018
			c0,0.564,0.456,1.018,1.019,1.018C22.052-68.461,22.508-68.914,22.508-69.479"/>
		<path fill="#2EBDEF" d="M22.508-50.951c0-0.562-0.456-1.018-1.018-1.018c-0.563,0-1.019,0.456-1.019,1.018
			s0.456,1.018,1.019,1.018C22.052-49.934,22.508-50.39,22.508-50.951"/>
		<path fill="#2EBDEF" d="M22.508-60.215c0-0.562-0.456-1.018-1.018-1.018c-0.563,0-1.019,0.455-1.019,1.018
			c0,0.562,0.456,1.018,1.019,1.018C22.052-59.197,22.508-59.653,22.508-60.215"/>
		<path fill="#2EBDEF" d="M17.135-4.633c0-0.561-0.455-1.018-1.019-1.018c-0.561,0-1.017,0.457-1.017,1.018
			c0,0.562,0.456,1.021,1.017,1.021C16.68-3.612,17.135-4.07,17.135-4.633"/>
		<path fill="#2EBDEF" d="M22.508-74.109c0-0.021-0.003-0.043-0.003-0.062h-2.031c-0.002,0.019-0.003,0.04-0.003,0.062
			c0,0.562,0.456,1.018,1.019,1.018C22.052-73.092,22.508-73.548,22.508-74.109"/>
		<path fill="#2EBDEF" d="M22.508-64.846c0-0.562-0.456-1.018-1.018-1.018c-0.563,0-1.019,0.456-1.019,1.018
			c0,0.561,0.456,1.018,1.019,1.018C22.052-63.828,22.508-64.285,22.508-64.846"/>
		<path fill="#2EBDEF" d="M11.764-4.633c0-0.561-0.456-1.018-1.02-1.018c-0.562,0-1.017,0.457-1.017,1.018
			c0,0.562,0.455,1.021,1.017,1.021C11.308-3.612,11.764-4.07,11.764-4.633"/>
		<path fill="#2EBDEF" d="M11.764-37.055c0-0.564-0.456-1.02-1.02-1.02c-0.562,0-1.017,0.455-1.017,1.02
			c0,0.562,0.455,1.018,1.017,1.018C11.308-36.037,11.764-36.493,11.764-37.055"/>
		<path fill="#2EBDEF" d="M17.135-55.582c0-0.562-0.455-1.018-1.019-1.018c-0.561,0-1.017,0.455-1.017,1.018
			c0,0.562,0.456,1.018,1.017,1.018C16.68-54.564,17.135-55.021,17.135-55.582"/>
		<path fill="#2EBDEF" d="M11.764-41.688c0-0.561-0.456-1.018-1.02-1.018c-0.562,0-1.017,0.457-1.017,1.018
			c0,0.562,0.455,1.021,1.017,1.021C11.308-40.667,11.764-41.125,11.764-41.688"/>
		<path fill="#2EBDEF" d="M11.764-23.158c0-0.564-0.456-1.02-1.02-1.02c-0.562,0-1.017,0.455-1.017,1.02
			c0,0.561,0.455,1.016,1.017,1.016C11.308-22.143,11.764-22.598,11.764-23.158"/>
		<path fill="#2EBDEF" d="M11.764-27.791c0-0.562-0.456-1.02-1.02-1.02c-0.562,0-1.017,0.458-1.017,1.02
			c0,0.562,0.455,1.018,1.017,1.018C11.308-26.773,11.764-27.229,11.764-27.791"/>
		<path fill="#2EBDEF" d="M11.764-55.582c0-0.562-0.456-1.018-1.02-1.018c-0.562,0-1.017,0.455-1.017,1.018
			c0,0.562,0.455,1.018,1.017,1.018C11.308-54.564,11.764-55.021,11.764-55.582"/>
		<path fill="#2EBDEF" d="M11.764-46.318c0-0.562-0.456-1.02-1.02-1.02c-0.562,0-1.017,0.457-1.017,1.02
			c0,0.562,0.455,1.018,1.017,1.018C11.308-45.301,11.764-45.757,11.764-46.318"/>
		<path fill="#2EBDEF" d="M11.764-50.951c0-0.562-0.456-1.018-1.02-1.018c-0.562,0-1.017,0.456-1.017,1.018s0.455,1.018,1.017,1.018
			C11.308-49.934,11.764-50.39,11.764-50.951"/>
		<path fill="#2EBDEF" d="M11.764-32.424c0-0.562-0.456-1.018-1.02-1.018c-0.562,0-1.017,0.455-1.017,1.018
			c0,0.562,0.455,1.018,1.017,1.018C11.308-31.406,11.764-31.862,11.764-32.424"/>
		<path fill="#2EBDEF" d="M17.135-64.846c0-0.562-0.455-1.018-1.019-1.018c-0.561,0-1.017,0.456-1.017,1.018
			c0,0.561,0.456,1.018,1.017,1.018C16.68-63.828,17.135-64.285,17.135-64.846"/>
		<path fill="#2EBDEF" d="M11.764-18.527c0-0.562-0.456-1.021-1.02-1.021c-0.562,0-1.017,0.458-1.017,1.021
			c0,0.562,0.455,1.018,1.017,1.018C11.308-17.51,11.764-17.966,11.764-18.527"/>
		<path fill="#2EBDEF" d="M17.135-69.479c0-0.562-0.455-1.018-1.019-1.018c-0.561,0-1.017,0.456-1.017,1.018
			c0,0.564,0.456,1.018,1.017,1.018C16.68-68.461,17.135-68.914,17.135-69.479"/>
		<path fill="#2EBDEF" d="M17.135-60.215c0-0.562-0.455-1.018-1.019-1.018c-0.561,0-1.017,0.455-1.017,1.018
			c0,0.562,0.456,1.018,1.017,1.018C16.68-59.197,17.135-59.653,17.135-60.215"/>
		<path fill="#2EBDEF" d="M17.135-74.109c0-0.021-0.002-0.043-0.003-0.062h-2.03c0,0.019-0.003,0.04-0.003,0.062
			c0,0.562,0.456,1.018,1.017,1.018C16.68-73.092,17.135-73.548,17.135-74.109"/>
		<path fill="#2EBDEF" d="M11.764-13.895c0-0.562-0.456-1.021-1.02-1.021c-0.562,0-1.017,0.458-1.017,1.021
			c0,0.561,0.455,1.018,1.017,1.018C11.308-12.877,11.764-13.334,11.764-13.895"/>
		<path fill="#2EBDEF" d="M11.764-9.266c0-0.561-0.456-1.018-1.02-1.018c-0.562,0-1.017,0.457-1.017,1.018
			c0,0.564,0.455,1.021,1.017,1.021C11.308-8.245,11.764-8.701,11.764-9.266"/>
		<path fill="#2EBDEF" d="M11.764-60.215c0-0.562-0.456-1.018-1.02-1.018c-0.562,0-1.017,0.455-1.017,1.018
			c0,0.562,0.455,1.018,1.017,1.018C11.308-59.197,11.764-59.653,11.764-60.215"/>
		<path fill="#2EBDEF" d="M76.232-13.895c0-0.562-0.457-1.021-1.018-1.021c-0.563,0-1.02,0.458-1.02,1.021
			c0,0.561,0.457,1.018,1.02,1.018C75.775-12.877,76.232-13.334,76.232-13.895"/>
		<path fill="#2EBDEF" d="M81.603-69.479c0-0.562-0.456-1.018-1.018-1.018c-0.561,0-1.017,0.456-1.017,1.018
			c0,0.564,0.456,1.018,1.017,1.018C81.147-68.461,81.603-68.914,81.603-69.479"/>
		<path fill="#2EBDEF" d="M81.603-74.109c0-0.021-0.001-0.043-0.002-0.062h-2.03c-0.001,0.019-0.003,0.04-0.003,0.062
			c0,0.562,0.456,1.018,1.017,1.018C81.147-73.092,81.603-73.548,81.603-74.109"/>
		<path fill="#2EBDEF" d="M76.232-27.791c0-0.562-0.457-1.02-1.018-1.02c-0.563,0-1.02,0.458-1.02,1.02
			c0,0.562,0.457,1.018,1.02,1.018C75.775-26.773,76.232-27.229,76.232-27.791"/>
		<path fill="#2EBDEF" d="M81.603-60.215c0-0.562-0.456-1.018-1.018-1.018c-0.561,0-1.017,0.455-1.017,1.018
			c0,0.562,0.456,1.018,1.017,1.018C81.147-59.197,81.603-59.653,81.603-60.215"/>
		<path fill="#2EBDEF" d="M81.603-64.846c0-0.562-0.456-1.018-1.018-1.018c-0.561,0-1.017,0.456-1.017,1.018
			c0,0.561,0.456,1.018,1.017,1.018C81.147-63.828,81.603-64.285,81.603-64.846"/>
		<path fill="#2EBDEF" d="M76.232-18.527c0-0.562-0.457-1.021-1.018-1.021c-0.563,0-1.02,0.458-1.02,1.021
			c0,0.562,0.457,1.018,1.02,1.018C75.775-17.51,76.232-17.966,76.232-18.527"/>
		<path fill="#2EBDEF" d="M76.232-4.633c0-0.561-0.457-1.018-1.018-1.018c-0.563,0-1.02,0.457-1.02,1.018
			c0,0.562,0.457,1.021,1.02,1.021C75.775-3.612,76.232-4.07,76.232-4.633"/>
		<path fill="#2EBDEF" d="M76.232-23.158c0-0.564-0.457-1.02-1.018-1.02c-0.563,0-1.02,0.455-1.02,1.02
			c0,0.561,0.457,1.016,1.02,1.016C75.775-22.143,76.232-22.598,76.232-23.158"/>
		<path fill="#2EBDEF" d="M76.232-9.266c0-0.561-0.457-1.018-1.018-1.018c-0.563,0-1.02,0.457-1.02,1.018
			c0,0.564,0.457,1.021,1.02,1.021C75.775-8.245,76.232-8.701,76.232-9.266"/>
		<path fill="#2EBDEF" d="M81.603-55.582c0-0.562-0.456-1.018-1.018-1.018c-0.561,0-1.017,0.455-1.017,1.018
			c0,0.562,0.456,1.018,1.017,1.018C81.147-54.564,81.603-55.021,81.603-55.582"/>
		<path fill="#2EBDEF" d="M81.603-50.951c0-0.562-0.456-1.018-1.018-1.018c-0.561,0-1.017,0.456-1.017,1.018
			s0.456,1.018,1.017,1.018C81.147-49.934,81.603-50.39,81.603-50.951"/>
		<path fill="#2EBDEF" d="M81.603-32.424c0-0.562-0.456-1.018-1.018-1.018c-0.561,0-1.017,0.455-1.017,1.018
			c0,0.562,0.456,1.018,1.017,1.018C81.147-31.406,81.603-31.862,81.603-32.424"/>
		<path fill="#2EBDEF" d="M81.603-23.158c0-0.564-0.456-1.02-1.018-1.02c-0.561,0-1.017,0.455-1.017,1.02
			c0,0.561,0.456,1.016,1.017,1.016C81.147-22.143,81.603-22.598,81.603-23.158"/>
		<path fill="#2EBDEF" d="M81.603-18.527c0-0.562-0.456-1.021-1.018-1.021c-0.561,0-1.017,0.458-1.017,1.021
			c0,0.562,0.456,1.018,1.017,1.018C81.147-17.51,81.603-17.966,81.603-18.527"/>
		<path fill="#2EBDEF" d="M81.603-27.791c0-0.562-0.456-1.02-1.018-1.02c-0.561,0-1.017,0.458-1.017,1.02
			c0,0.562,0.456,1.018,1.017,1.018C81.147-26.773,81.603-27.229,81.603-27.791"/>
		<path fill="#2EBDEF" d="M81.603-46.318c0-0.562-0.456-1.02-1.018-1.02c-0.561,0-1.017,0.457-1.017,1.02
			c0,0.562,0.456,1.018,1.017,1.018C81.147-45.301,81.603-45.757,81.603-46.318"/>
		<path fill="#2EBDEF" d="M70.859-37.055c0-0.564-0.456-1.02-1.018-1.02s-1.017,0.455-1.017,1.02c0,0.562,0.455,1.018,1.017,1.018
			S70.859-36.493,70.859-37.055"/>
		<path fill="#2EBDEF" d="M81.603-37.055c0-0.564-0.456-1.02-1.018-1.02c-0.561,0-1.017,0.455-1.017,1.02
			c0,0.562,0.456,1.018,1.017,1.018C81.147-36.037,81.603-36.493,81.603-37.055"/>
		<path fill="#2EBDEF" d="M76.232-41.688c0-0.561-0.457-1.018-1.018-1.018c-0.563,0-1.02,0.457-1.02,1.018
			c0,0.562,0.457,1.021,1.02,1.021C75.775-40.667,76.232-41.125,76.232-41.688"/>
		<path fill="#2EBDEF" d="M70.859-18.527c0-0.562-0.456-1.021-1.018-1.021s-1.017,0.458-1.017,1.021
			c0,0.562,0.455,1.018,1.017,1.018S70.859-17.966,70.859-18.527"/>
		<path fill="#2EBDEF" d="M76.232-74.109c0-0.021-0.002-0.043-0.004-0.062h-2.029c-0.002,0.019-0.005,0.04-0.005,0.062
			c0,0.562,0.457,1.018,1.02,1.018C75.775-73.092,76.232-73.548,76.232-74.109"/>
		<path fill="#2EBDEF" d="M70.859-9.266c0-0.561-0.456-1.018-1.018-1.018s-1.017,0.457-1.017,1.018c0,0.564,0.455,1.021,1.017,1.021
			S70.859-8.701,70.859-9.266"/>
		<path fill="#2EBDEF" d="M70.859-4.633c0-0.561-0.456-1.018-1.018-1.018s-1.017,0.457-1.017,1.018c0,0.562,0.455,1.021,1.017,1.021
			S70.859-4.07,70.859-4.633"/>
		<path fill="#2EBDEF" d="M70.859-13.895c0-0.562-0.456-1.021-1.018-1.021s-1.017,0.458-1.017,1.021
			c0,0.561,0.455,1.018,1.017,1.018S70.859-13.334,70.859-13.895"/>
		<path fill="#2EBDEF" d="M70.859-23.158c0-0.564-0.456-1.02-1.018-1.02s-1.017,0.455-1.017,1.02c0,0.561,0.455,1.016,1.017,1.016
			S70.859-22.598,70.859-23.158"/>
		<path fill="#2EBDEF" d="M70.859-32.424c0-0.562-0.456-1.018-1.018-1.018s-1.017,0.455-1.017,1.018
			c0,0.562,0.455,1.018,1.017,1.018S70.859-31.862,70.859-32.424"/>
		<path fill="#2EBDEF" d="M70.859-27.791c0-0.562-0.456-1.02-1.018-1.02s-1.017,0.458-1.017,1.02c0,0.562,0.455,1.018,1.017,1.018
			S70.859-27.229,70.859-27.791"/>
		<path fill="#2EBDEF" d="M76.232-55.582c0-0.562-0.457-1.018-1.018-1.018c-0.563,0-1.02,0.455-1.02,1.018
			c0,0.562,0.457,1.018,1.02,1.018C75.775-54.564,76.232-55.021,76.232-55.582"/>
		<path fill="#2EBDEF" d="M81.603-13.895c0-0.562-0.456-1.021-1.018-1.021c-0.561,0-1.017,0.458-1.017,1.021
			c0,0.561,0.456,1.018,1.017,1.018C81.147-12.877,81.603-13.334,81.603-13.895"/>
		<path fill="#2EBDEF" d="M76.232-46.318c0-0.562-0.457-1.02-1.018-1.02c-0.563,0-1.02,0.457-1.02,1.02
			c0,0.562,0.457,1.018,1.02,1.018C75.775-45.301,76.232-45.757,76.232-46.318"/>
		<path fill="#2EBDEF" d="M76.232-37.055c0-0.564-0.457-1.02-1.018-1.02c-0.563,0-1.02,0.455-1.02,1.02
			c0,0.562,0.457,1.018,1.02,1.018C75.775-36.037,76.232-36.493,76.232-37.055"/>
		<path fill="#2EBDEF" d="M76.232-50.951c0-0.562-0.457-1.018-1.018-1.018c-0.563,0-1.02,0.456-1.02,1.018s0.457,1.018,1.02,1.018
			C75.775-49.934,76.232-50.39,76.232-50.951"/>
		<path fill="#2EBDEF" d="M76.232-60.215c0-0.562-0.457-1.018-1.018-1.018c-0.563,0-1.02,0.455-1.02,1.018
			c0,0.562,0.457,1.018,1.02,1.018C75.775-59.197,76.232-59.653,76.232-60.215"/>
		<path fill="#2EBDEF" d="M76.232-32.424c0-0.562-0.457-1.018-1.018-1.018c-0.563,0-1.02,0.455-1.02,1.018
			c0,0.562,0.457,1.018,1.02,1.018C75.775-31.406,76.232-31.862,76.232-32.424"/>
		<path fill="#2EBDEF" d="M76.232-69.479c0-0.562-0.457-1.018-1.018-1.018c-0.563,0-1.02,0.456-1.02,1.018
			c0,0.564,0.457,1.018,1.02,1.018C75.775-68.461,76.232-68.914,76.232-69.479"/>
		<path fill="#2EBDEF" d="M76.232-64.846c0-0.562-0.457-1.018-1.018-1.018c-0.563,0-1.02,0.456-1.02,1.018
			c0,0.561,0.457,1.018,1.02,1.018C75.775-63.828,76.232-64.285,76.232-64.846"/>
		<path fill="#2EBDEF" d="M81.603-41.688c0-0.561-0.456-1.018-1.018-1.018c-0.561,0-1.017,0.457-1.017,1.018
			c0,0.562,0.456,1.021,1.017,1.021C81.147-40.667,81.603-41.125,81.603-41.688"/>
		<path fill="#2EBDEF" d="M52.706,0h2.036c0-0.562-0.457-1.02-1.018-1.02C53.162-1.02,52.706-0.562,52.706,0"/>
		<path fill="#2EBDEF" d="M63.45,0h2.036c0-0.562-0.455-1.02-1.017-1.02C63.906-1.02,63.45-0.562,63.45,0"/>
		<path fill="#2EBDEF" d="M58.078,0h2.037c0-0.562-0.456-1.02-1.017-1.02C58.535-1.02,58.078-0.562,58.078,0"/>
		<path fill="#2EBDEF" d="M41.961,0h2.036c0-0.562-0.457-1.02-1.018-1.02C42.417-1.02,41.961-0.562,41.961,0"/>
		<path fill="#2EBDEF" d="M49.37-74.109c0-0.021-0.002-0.043-0.003-0.062h-2.03c-0.001,0.019-0.003,0.04-0.003,0.062
			c0,0.562,0.455,1.018,1.018,1.018S49.37-73.548,49.37-74.109"/>
		<path fill="#2EBDEF" d="M79.568,0h2.035c0-0.562-0.456-1.02-1.017-1.02C80.024-1.02,79.568-0.562,79.568,0"/>
		<path fill="#2EBDEF" d="M68.824,0h2.035c0-0.562-0.456-1.02-1.017-1.02C69.279-1.02,68.824-0.562,68.824,0"/>
		<path fill="#2EBDEF" d="M74.194,0h2.038c0-0.562-0.457-1.02-1.018-1.02C74.651-1.02,74.194-0.562,74.194,0"/>
		<path fill="#2EBDEF" d="M47.333,0h2.036c0-0.562-0.455-1.02-1.018-1.02S47.333-0.562,47.333,0"/>
		<path fill="#2EBDEF" d="M4.355,0H6.39c0-0.562-0.456-1.02-1.017-1.02C4.811-1.02,4.355-0.562,4.355,0"/>
		<path fill="#2EBDEF" d="M81.603-9.266c0-0.561-0.456-1.018-1.018-1.018c-0.561,0-1.017,0.457-1.017,1.018
			c0,0.564,0.456,1.021,1.017,1.021C81.147-8.245,81.603-8.701,81.603-9.266"/>
		<path fill="#2EBDEF" d="M9.727,0h2.037c0-0.562-0.456-1.02-1.019-1.02S9.727-0.562,9.727,0"/>
		<path fill="#2EBDEF" d="M0,0H1.02C1.02-0.562,0.562-1.02,0-1.02V0z"/>
		<path fill="#2EBDEF" d="M36.589,0h2.035c0-0.562-0.456-1.02-1.017-1.02C37.044-1.02,36.589-0.562,36.589,0"/>
		<path fill="#2EBDEF" d="M31.216,0h2.037c0-0.562-0.457-1.02-1.018-1.02C31.671-1.02,31.216-0.562,31.216,0"/>
		<path fill="#2EBDEF" d="M20.471,0h2.037c0-0.562-0.456-1.02-1.017-1.02C20.927-1.02,20.471-0.562,20.471,0"/>
		<path fill="#2EBDEF" d="M25.843,0h2.036c0-0.562-0.455-1.02-1.016-1.02C26.3-1.02,25.843-0.562,25.843,0"/>
		<path fill="#2EBDEF" d="M15.099,0h2.036c0-0.562-0.455-1.02-1.018-1.02C15.555-1.02,15.099-0.562,15.099,0"/>
		<path fill="#2EBDEF" d="M85.958-54.564c0.042,0,0.083-0.004,0.124-0.008v-2.021C86.041-56.598,86-56.6,85.958-56.6
			c-0.562,0-1.018,0.455-1.018,1.018S85.396-54.564,85.958-54.564"/>
		<path fill="#2EBDEF" d="M85.958-59.197c0.042,0,0.083-0.002,0.124-0.008v-2.02c-0.041-0.004-0.082-0.008-0.124-0.008
			c-0.562,0-1.018,0.455-1.018,1.018S85.396-59.197,85.958-59.197"/>
		<path fill="#2EBDEF" d="M85.958-45.301c0.042,0,0.083-0.004,0.124-0.008v-2.021c-0.041-0.004-0.082-0.008-0.124-0.008
			c-0.562,0-1.018,0.457-1.018,1.02S85.396-45.301,85.958-45.301"/>
		<path fill="#2EBDEF" d="M85.958-49.934c0.042,0,0.083-0.002,0.124-0.008v-2.02c-0.041-0.004-0.082-0.008-0.124-0.008
			c-0.562,0-1.018,0.455-1.018,1.018S85.396-49.934,85.958-49.934"/>
		<path fill="#2EBDEF" d="M85.958-68.461c0.042,0,0.083-0.002,0.124-0.006v-2.021c-0.041-0.004-0.082-0.008-0.124-0.008
			c-0.562,0-1.018,0.455-1.018,1.018C84.939-68.914,85.396-68.461,85.958-68.461"/>
		<path fill="#2EBDEF" d="M81.603-4.633c0-0.561-0.456-1.018-1.018-1.018c-0.561,0-1.017,0.457-1.017,1.018
			c0,0.562,0.456,1.021,1.017,1.021C81.147-3.612,81.603-4.07,81.603-4.633"/>
		<path fill="#2EBDEF" d="M85.958-63.828c0.042,0,0.083-0.004,0.124-0.008v-2.02c-0.041-0.006-0.082-0.008-0.124-0.008
			c-0.562,0-1.018,0.455-1.018,1.018C84.939-64.285,85.396-63.828,85.958-63.828"/>
		<path fill="#2EBDEF" d="M85.958-73.092c0.042,0,0.083-0.004,0.124-0.008v-1.072h-1.139c-0.002,0.02-0.003,0.041-0.003,0.062
			C84.939-73.547,85.396-73.092,85.958-73.092"/>
		<path fill="#2EBDEF" d="M85.958-22.143c0.042,0,0.083-0.002,0.124-0.008v-2.018c-0.041-0.008-0.082-0.01-0.124-0.01
			c-0.562,0-1.018,0.455-1.018,1.02C84.939-22.598,85.396-22.143,85.958-22.143"/>
		<path fill="#2EBDEF" d="M85.958-12.877c0.042,0,0.083-0.004,0.124-0.01v-2.02c-0.041-0.006-0.082-0.008-0.124-0.008
			c-0.562,0-1.018,0.457-1.018,1.02C84.939-13.334,85.396-12.877,85.958-12.877"/>
		<path fill="#2EBDEF" d="M85.958-40.668c0.042,0,0.083-0.004,0.124-0.01v-2.02c-0.041-0.004-0.082-0.008-0.124-0.008
			c-0.562,0-1.018,0.457-1.018,1.018C84.939-41.125,85.396-40.668,85.958-40.668"/>
		<path fill="#2EBDEF" d="M85.958-17.51c0.042,0,0.083-0.004,0.124-0.008v-2.02c-0.041-0.006-0.082-0.01-0.124-0.01
			c-0.562,0-1.018,0.457-1.018,1.02S85.396-17.51,85.958-17.51"/>
		<path fill="#2EBDEF" d="M85.958-8.246c0.042,0,0.083-0.004,0.124-0.008v-2.02c-0.041-0.006-0.082-0.01-0.124-0.01
			c-0.562,0-1.018,0.457-1.018,1.018C84.939-8.701,85.396-8.246,85.958-8.246"/>
		<path fill="#2EBDEF" d="M85.958-3.613c0.042,0,0.083-0.004,0.124-0.01v-2.02C86.041-5.648,86-5.65,85.958-5.65
			c-0.562,0-1.018,0.457-1.018,1.018C84.939-4.07,85.396-3.613,85.958-3.613"/>
		<path fill="#2EBDEF" d="M85.958-36.037c0.042,0,0.083-0.004,0.124-0.008v-2.021c-0.041-0.004-0.082-0.008-0.124-0.008
			c-0.562,0-1.018,0.455-1.018,1.02C84.939-36.492,85.396-36.037,85.958-36.037"/>
		<path fill="#2EBDEF" d="M85.958-31.406c0.042,0,0.083-0.002,0.124-0.008v-2.02c-0.041-0.006-0.082-0.008-0.124-0.008
			c-0.562,0-1.018,0.455-1.018,1.018S85.396-31.406,85.958-31.406"/>
		<path fill="#2EBDEF" d="M85.958-26.773c0.042,0,0.083-0.002,0.124-0.008v-2.02c-0.041-0.006-0.082-0.01-0.124-0.01
			c-0.562,0-1.018,0.457-1.018,1.02S85.396-26.773,85.958-26.773"/>
		<path fill="#2EBDEF" d="M86.082,0v-1.01C86.041-1.016,86-1.02,85.958-1.02c-0.563,0-1.018,0.458-1.018,1.02H86.082z"/>
		<path fill="#2EBDEF" d="M54.742-41.688c0-0.561-0.457-1.018-1.018-1.018c-0.562,0-1.018,0.457-1.018,1.018
			c0,0.562,0.456,1.021,1.018,1.021C54.285-40.667,54.742-41.125,54.742-41.688"/>
		<path fill="#2EBDEF" d="M54.742-46.318c0-0.562-0.457-1.02-1.018-1.02c-0.562,0-1.018,0.457-1.018,1.02
			c0,0.562,0.456,1.018,1.018,1.018C54.285-45.301,54.742-45.757,54.742-46.318"/>
		<path fill="#2EBDEF" d="M54.742-69.479c0-0.562-0.457-1.018-1.018-1.018c-0.562,0-1.018,0.456-1.018,1.018
			c0,0.564,0.456,1.018,1.018,1.018C54.285-68.461,54.742-68.914,54.742-69.479"/>
		<path fill="#2EBDEF" d="M54.742-32.424c0-0.562-0.457-1.018-1.018-1.018c-0.562,0-1.018,0.455-1.018,1.018
			c0,0.562,0.456,1.018,1.018,1.018C54.285-31.406,54.742-31.862,54.742-32.424"/>
		<path fill="#2EBDEF" d="M54.742-37.055c0-0.564-0.457-1.02-1.018-1.02c-0.562,0-1.018,0.455-1.018,1.02
			c0,0.562,0.456,1.018,1.018,1.018C54.285-36.037,54.742-36.493,54.742-37.055"/>
		<path fill="#2EBDEF" d="M54.742-60.215c0-0.562-0.457-1.018-1.018-1.018c-0.562,0-1.018,0.455-1.018,1.018
			c0,0.562,0.456,1.018,1.018,1.018C54.285-59.197,54.742-59.653,54.742-60.215"/>
		<path fill="#2EBDEF" d="M54.742-55.582c0-0.562-0.457-1.018-1.018-1.018c-0.562,0-1.018,0.455-1.018,1.018
			c0,0.562,0.456,1.018,1.018,1.018C54.285-54.564,54.742-55.021,54.742-55.582"/>
		<path fill="#2EBDEF" d="M54.742-50.951c0-0.562-0.457-1.018-1.018-1.018c-0.562,0-1.018,0.456-1.018,1.018
			s0.456,1.018,1.018,1.018C54.285-49.934,54.742-50.39,54.742-50.951"/>
		<path fill="#2EBDEF" d="M54.742-27.791c0-0.562-0.457-1.02-1.018-1.02c-0.562,0-1.018,0.458-1.018,1.02
			c0,0.562,0.456,1.018,1.018,1.018C54.285-26.773,54.742-27.229,54.742-27.791"/>
		<path fill="#2EBDEF" d="M60.115-60.215c0-0.562-0.456-1.018-1.018-1.018s-1.019,0.455-1.019,1.018
			c0,0.562,0.457,1.018,1.019,1.018S60.115-59.653,60.115-60.215"/>
		<path fill="#2EBDEF" d="M60.115-74.109c0-0.021-0.003-0.043-0.004-0.062h-2.028c-0.003,0.019-0.005,0.04-0.005,0.062
			c0,0.562,0.457,1.018,1.019,1.018S60.115-73.548,60.115-74.109"/>
		<path fill="#2EBDEF" d="M54.742-4.633c0-0.561-0.457-1.018-1.018-1.018c-0.562,0-1.018,0.457-1.018,1.018
			c0,0.562,0.456,1.021,1.018,1.021C54.285-3.612,54.742-4.07,54.742-4.633"/>
		<path fill="#2EBDEF" d="M60.115-69.479c0-0.562-0.456-1.018-1.018-1.018s-1.019,0.456-1.019,1.018
			c0,0.564,0.457,1.018,1.019,1.018S60.115-68.914,60.115-69.479"/>
		<path fill="#2EBDEF" d="M60.115-64.846c0-0.562-0.456-1.018-1.018-1.018s-1.019,0.456-1.019,1.018
			c0,0.561,0.457,1.018,1.019,1.018S60.115-64.285,60.115-64.846"/>
		<path fill="#2EBDEF" d="M54.742-9.266c0-0.561-0.457-1.018-1.018-1.018c-0.562,0-1.018,0.457-1.018,1.018
			c0,0.564,0.456,1.021,1.018,1.021C54.285-8.245,54.742-8.701,54.742-9.266"/>
		<path fill="#2EBDEF" d="M54.742-18.527c0-0.562-0.457-1.021-1.018-1.021c-0.562,0-1.018,0.458-1.018,1.021
			c0,0.562,0.456,1.018,1.018,1.018C54.285-17.51,54.742-17.966,54.742-18.527"/>
		<path fill="#2EBDEF" d="M54.742-13.895c0-0.562-0.457-1.021-1.018-1.021c-0.562,0-1.018,0.458-1.018,1.021
			c0,0.561,0.456,1.018,1.018,1.018C54.285-12.877,54.742-13.334,54.742-13.895"/>
		<path fill="#2EBDEF" d="M54.742-23.158c0-0.564-0.457-1.02-1.018-1.02c-0.562,0-1.018,0.455-1.018,1.02
			c0,0.561,0.456,1.016,1.018,1.016C54.285-22.143,54.742-22.598,54.742-23.158"/>
		<path fill="#2EBDEF" d="M49.37-50.951c0-0.562-0.455-1.018-1.018-1.018s-1.018,0.456-1.018,1.018s0.455,1.018,1.018,1.018
			S49.37-50.39,49.37-50.951"/>
		<path fill="#2EBDEF" d="M49.37-46.318c0-0.562-0.455-1.02-1.018-1.02s-1.018,0.457-1.018,1.02c0,0.562,0.455,1.018,1.018,1.018
			S49.37-45.757,49.37-46.318"/>
		<path fill="#2EBDEF" d="M49.37-55.582c0-0.562-0.455-1.018-1.018-1.018s-1.018,0.455-1.018,1.018c0,0.562,0.455,1.018,1.018,1.018
			S49.37-55.021,49.37-55.582"/>
		<path fill="#2EBDEF" d="M49.37-41.688c0-0.561-0.455-1.018-1.018-1.018s-1.018,0.457-1.018,1.018c0,0.562,0.455,1.021,1.018,1.021
			S49.37-41.125,49.37-41.688"/>
		<path fill="#2EBDEF" d="M49.37-69.479c0-0.562-0.455-1.018-1.018-1.018s-1.018,0.456-1.018,1.018c0,0.564,0.455,1.018,1.018,1.018
			S49.37-68.914,49.37-69.479"/>
		<path fill="#2EBDEF" d="M49.37-64.846c0-0.562-0.455-1.018-1.018-1.018s-1.018,0.456-1.018,1.018c0,0.561,0.455,1.018,1.018,1.018
			S49.37-64.285,49.37-64.846"/>
		<path fill="#2EBDEF" d="M49.37-37.055c0-0.564-0.455-1.02-1.018-1.02s-1.018,0.455-1.018,1.02c0,0.562,0.455,1.018,1.018,1.018
			S49.37-36.493,49.37-37.055"/>
		<path fill="#2EBDEF" d="M49.37-60.215c0-0.562-0.455-1.018-1.018-1.018s-1.018,0.455-1.018,1.018c0,0.562,0.455,1.018,1.018,1.018
			S49.37-59.653,49.37-60.215"/>
		<path fill="#2EBDEF" d="M49.37-27.791c0-0.562-0.455-1.02-1.018-1.02s-1.018,0.458-1.018,1.02c0,0.562,0.455,1.018,1.018,1.018
			S49.37-27.229,49.37-27.791"/>
		<path fill="#2EBDEF" d="M49.37-13.895c0-0.562-0.455-1.021-1.018-1.021s-1.018,0.458-1.018,1.021c0,0.561,0.455,1.018,1.018,1.018
			S49.37-13.334,49.37-13.895"/>
		<path fill="#2EBDEF" d="M49.37-9.266c0-0.561-0.455-1.018-1.018-1.018s-1.018,0.457-1.018,1.018c0,0.564,0.455,1.021,1.018,1.021
			S49.37-8.701,49.37-9.266"/>
		<path fill="#2EBDEF" d="M49.37-4.633c0-0.561-0.455-1.018-1.018-1.018s-1.018,0.457-1.018,1.018c0,0.562,0.455,1.021,1.018,1.021
			S49.37-4.07,49.37-4.633"/>
		<path fill="#2EBDEF" d="M49.37-32.424c0-0.562-0.455-1.018-1.018-1.018s-1.018,0.455-1.018,1.018c0,0.562,0.455,1.018,1.018,1.018
			S49.37-31.862,49.37-32.424"/>
		<path fill="#2EBDEF" d="M54.742-74.109c0-0.021-0.002-0.043-0.004-0.062h-2.029c-0.002,0.019-0.003,0.04-0.003,0.062
			c0,0.562,0.456,1.018,1.018,1.018C54.285-73.092,54.742-73.548,54.742-74.109"/>
		<path fill="#2EBDEF" d="M54.742-64.846c0-0.562-0.457-1.018-1.018-1.018c-0.562,0-1.018,0.456-1.018,1.018
			c0,0.561,0.456,1.018,1.018,1.018C54.285-63.828,54.742-64.285,54.742-64.846"/>
		<path fill="#2EBDEF" d="M49.37-23.158c0-0.564-0.455-1.02-1.018-1.02s-1.018,0.455-1.018,1.02c0,0.561,0.455,1.016,1.018,1.016
			S49.37-22.598,49.37-23.158"/>
		<path fill="#2EBDEF" d="M49.37-18.527c0-0.562-0.455-1.021-1.018-1.021s-1.018,0.458-1.018,1.021c0,0.562,0.455,1.018,1.018,1.018
			S49.37-17.966,49.37-18.527"/>
		<path fill="#2EBDEF" d="M60.115-41.688c0-0.561-0.456-1.018-1.018-1.018s-1.019,0.457-1.019,1.018
			c0,0.562,0.457,1.021,1.019,1.021S60.115-41.125,60.115-41.688"/>
		<path fill="#2EBDEF" d="M65.486-23.158c0-0.564-0.455-1.02-1.018-1.02c-0.562,0-1.018,0.455-1.018,1.02
			c0,0.561,0.456,1.016,1.018,1.016C65.031-22.143,65.486-22.598,65.486-23.158"/>
		<path fill="#2EBDEF" d="M65.486-18.527c0-0.562-0.455-1.021-1.018-1.021c-0.562,0-1.018,0.458-1.018,1.021
			c0,0.562,0.456,1.018,1.018,1.018C65.031-17.51,65.486-17.966,65.486-18.527"/>
		<path fill="#2EBDEF" d="M65.486-27.791c0-0.562-0.455-1.02-1.018-1.02c-0.562,0-1.018,0.458-1.018,1.02
			c0,0.562,0.456,1.018,1.018,1.018C65.031-26.773,65.486-27.229,65.486-27.791"/>
		<path fill="#2EBDEF" d="M65.486-13.895c0-0.562-0.455-1.021-1.018-1.021c-0.562,0-1.018,0.458-1.018,1.021
			c0,0.561,0.456,1.018,1.018,1.018C65.031-12.877,65.486-13.334,65.486-13.895"/>
		<path fill="#2EBDEF" d="M65.486-37.055c0-0.564-0.455-1.02-1.018-1.02c-0.562,0-1.018,0.455-1.018,1.02
			c0,0.562,0.456,1.018,1.018,1.018C65.031-36.037,65.486-36.493,65.486-37.055"/>
		<path fill="#2EBDEF" d="M65.486-41.688c0-0.561-0.455-1.018-1.018-1.018c-0.562,0-1.018,0.457-1.018,1.018
			c0,0.562,0.456,1.021,1.018,1.021C65.031-40.667,65.486-41.125,65.486-41.688"/>
		<path fill="#2EBDEF" d="M65.486-9.266c0-0.561-0.455-1.018-1.018-1.018c-0.562,0-1.018,0.457-1.018,1.018
			c0,0.564,0.456,1.021,1.018,1.021C65.031-8.245,65.486-8.701,65.486-9.266"/>
		<path fill="#2EBDEF" d="M65.486-32.424c0-0.562-0.455-1.018-1.018-1.018c-0.562,0-1.018,0.455-1.018,1.018
			c0,0.562,0.456,1.018,1.018,1.018C65.031-31.406,65.486-31.862,65.486-32.424"/>
		<path fill="#2EBDEF" d="M70.859-55.582c0-0.562-0.456-1.018-1.018-1.018s-1.017,0.455-1.017,1.018
			c0,0.562,0.455,1.018,1.017,1.018S70.859-55.021,70.859-55.582"/>
		<path fill="#2EBDEF" d="M65.486-46.318c0-0.562-0.455-1.02-1.018-1.02c-0.562,0-1.018,0.457-1.018,1.02
			c0,0.562,0.456,1.018,1.018,1.018C65.031-45.301,65.486-45.757,65.486-46.318"/>
		<path fill="#2EBDEF" d="M70.859-50.951c0-0.562-0.456-1.018-1.018-1.018s-1.017,0.456-1.017,1.018s0.455,1.018,1.017,1.018
			S70.859-50.39,70.859-50.951"/>
		<path fill="#2EBDEF" d="M60.115-55.582c0-0.562-0.456-1.018-1.018-1.018s-1.019,0.455-1.019,1.018
			c0,0.562,0.457,1.018,1.019,1.018S60.115-55.021,60.115-55.582"/>
		<path fill="#2EBDEF" d="M65.486-4.633c0-0.561-0.455-1.018-1.018-1.018c-0.562,0-1.018,0.457-1.018,1.018
			c0,0.562,0.456,1.021,1.018,1.021C65.031-3.612,65.486-4.07,65.486-4.633"/>
		<path fill="#2EBDEF" d="M70.859-60.215c0-0.562-0.456-1.018-1.018-1.018s-1.017,0.455-1.017,1.018
			c0,0.562,0.455,1.018,1.017,1.018S70.859-59.653,70.859-60.215"/>
		<path fill="#2EBDEF" d="M70.859-74.109c0-0.021-0.003-0.043-0.003-0.062h-2.029c-0.003,0.019-0.003,0.04-0.003,0.062
			c0,0.562,0.455,1.018,1.017,1.018S70.859-73.548,70.859-74.109"/>
		<path fill="#2EBDEF" d="M70.859-69.479c0-0.562-0.456-1.018-1.018-1.018s-1.017,0.456-1.017,1.018
			c0,0.564,0.455,1.018,1.017,1.018S70.859-68.914,70.859-69.479"/>
		<path fill="#2EBDEF" d="M70.859-64.846c0-0.562-0.456-1.018-1.018-1.018s-1.017,0.456-1.017,1.018
			c0,0.561,0.455,1.018,1.017,1.018S70.859-64.285,70.859-64.846"/>
		<path fill="#2EBDEF" d="M70.859-46.318c0-0.562-0.456-1.02-1.018-1.02s-1.017,0.457-1.017,1.02c0,0.562,0.455,1.018,1.017,1.018
			S70.859-45.757,70.859-46.318"/>
		<path fill="#2EBDEF" d="M60.115-27.791c0-0.562-0.456-1.02-1.018-1.02s-1.019,0.458-1.019,1.02c0,0.562,0.457,1.018,1.019,1.018
			S60.115-27.229,60.115-27.791"/>
		<path fill="#2EBDEF" d="M60.115-18.527c0-0.562-0.456-1.021-1.018-1.021s-1.019,0.458-1.019,1.021
			c0,0.562,0.457,1.018,1.019,1.018S60.115-17.966,60.115-18.527"/>
		<path fill="#2EBDEF" d="M60.115-32.424c0-0.562-0.456-1.018-1.018-1.018s-1.019,0.455-1.019,1.018
			c0,0.562,0.457,1.018,1.019,1.018S60.115-31.862,60.115-32.424"/>
		<path fill="#2EBDEF" d="M60.115-23.158c0-0.564-0.456-1.02-1.018-1.02s-1.019,0.455-1.019,1.02c0,0.561,0.457,1.016,1.019,1.016
			S60.115-22.598,60.115-23.158"/>
		<path fill="#2EBDEF" d="M60.115-37.055c0-0.564-0.456-1.02-1.018-1.02s-1.019,0.455-1.019,1.02c0,0.562,0.457,1.018,1.019,1.018
			S60.115-36.493,60.115-37.055"/>
		<path fill="#2EBDEF" d="M60.115-50.951c0-0.562-0.456-1.018-1.018-1.018s-1.019,0.456-1.019,1.018s0.457,1.018,1.019,1.018
			S60.115-50.39,60.115-50.951"/>
		<path fill="#2EBDEF" d="M60.115-46.318c0-0.562-0.456-1.02-1.018-1.02s-1.019,0.457-1.019,1.02c0,0.562,0.457,1.018,1.019,1.018
			S60.115-45.757,60.115-46.318"/>
		<path fill="#2EBDEF" d="M70.859-41.688c0-0.561-0.456-1.018-1.018-1.018s-1.017,0.457-1.017,1.018
			c0,0.562,0.455,1.021,1.017,1.021S70.859-41.125,70.859-41.688"/>
		<path fill="#2EBDEF" d="M60.115-13.895c0-0.562-0.456-1.021-1.018-1.021s-1.019,0.458-1.019,1.021
			c0,0.561,0.457,1.018,1.019,1.018S60.115-13.334,60.115-13.895"/>
		<path fill="#2EBDEF" d="M65.486-60.215c0-0.562-0.455-1.018-1.018-1.018c-0.562,0-1.018,0.455-1.018,1.018
			c0,0.562,0.456,1.018,1.018,1.018C65.031-59.197,65.486-59.653,65.486-60.215"/>
		<path fill="#2EBDEF" d="M65.486-50.951c0-0.562-0.455-1.018-1.018-1.018c-0.562,0-1.018,0.456-1.018,1.018
			s0.456,1.018,1.018,1.018C65.031-49.934,65.486-50.39,65.486-50.951"/>
		<path fill="#2EBDEF" d="M65.486-69.479c0-0.562-0.455-1.018-1.018-1.018c-0.562,0-1.018,0.456-1.018,1.018
			c0,0.564,0.456,1.018,1.018,1.018C65.031-68.461,65.486-68.914,65.486-69.479"/>
		<path fill="#2EBDEF" d="M65.486-55.582c0-0.562-0.455-1.018-1.018-1.018c-0.562,0-1.018,0.455-1.018,1.018
			c0,0.562,0.456,1.018,1.018,1.018C65.031-54.564,65.486-55.021,65.486-55.582"/>
		<path fill="#2EBDEF" d="M65.486-64.846c0-0.562-0.455-1.018-1.018-1.018c-0.562,0-1.018,0.456-1.018,1.018
			c0,0.561,0.456,1.018,1.018,1.018C65.031-63.828,65.486-64.285,65.486-64.846"/>
		<path fill="#2EBDEF" d="M65.486-74.109c0-0.021-0.002-0.043-0.003-0.062h-2.03c0,0.019-0.003,0.04-0.003,0.062
			c0,0.562,0.456,1.018,1.018,1.018C65.031-73.092,65.486-73.548,65.486-74.109"/>
		<path fill="#2EBDEF" d="M60.115-9.266c0-0.561-0.456-1.018-1.018-1.018s-1.019,0.457-1.019,1.018c0,0.564,0.457,1.021,1.019,1.021
			S60.115-8.701,60.115-9.266"/>
		<path fill="#2EBDEF" d="M60.115-4.633c0-0.561-0.456-1.018-1.018-1.018s-1.019,0.457-1.019,1.018c0,0.562,0.457,1.021,1.019,1.021
			S60.115-4.07,60.115-4.633"/>
	</g>
</pattern>
<g>
	<polygon fill="#82CFF5" points="610.49,11.438 612.009,479.187 847.815,481.432 847.815,2.833 	"/>
	<polygon fill="#82CFF5" points="1107.911,2.132 856.553,1.206 852.302,481.54 1093.528,483.862 	"/>
</g>
<g>
	<rect x="697.759" y="62.051" fill="none" width="126" height="48"/>
	<path fill="#FFFFFF" d="M725.912,84.929c0.031,0.248-0.248,0.435-0.496,0.435h-1.643c-0.248,0-0.465-0.217-0.496-0.496
		l-1.861-20.216h-1.146l-5.58,15.782c-0.094,0.248-0.311,0.496-0.59,0.496h-2.574c-0.279,0-0.527-0.248-0.588-0.496l-5.396-15.782
		h-1.146l-1.799,20.216c-0.031,0.279-0.217,0.496-0.496,0.496h-1.52c-0.248,0-0.496-0.187-0.496-0.465v-0.031l1.799-21.921
		c0.031-0.279,0.217-0.496,0.496-0.496h4.838c0.279,0,0.527,0.248,0.588,0.496l5.055,15.781l5.303-15.781
		c0.092-0.248,0.309-0.496,0.588-0.496h4.807c0.279,0,0.465,0.217,0.496,0.496l1.859,21.921V84.929z"/>
	<path fill="#FFFFFF" d="M738.773,75.876v8.991c0,0.279-0.217,0.496-0.496,0.496h-1.643c-0.248,0-0.496-0.217-0.496-0.496v-9.022
		l-8.373-12.867c-0.029-0.062-0.061-0.125-0.061-0.155c0-0.187,0.186-0.372,0.371-0.372h2.141c0.217,0,0.371,0.093,0.496,0.279
		l6.852,10.852l6.76-10.883c0.123-0.187,0.248-0.248,0.465-0.248h2.17c0.154,0,0.342,0.186,0.342,0.372
		c0,0.03-0.031,0.093-0.062,0.155L738.773,75.876z"/>
	<path fill="#FFFFFF" d="M765.865,64.775h-7.533v20.092c0,0.279-0.217,0.496-0.496,0.496h-1.645c-0.277,0-0.496-0.217-0.496-0.496
		V64.775h-7.533c-0.279,0-0.496-0.217-0.496-0.496v-1.333c0-0.279,0.217-0.496,0.496-0.496h17.703c0.279,0,0.496,0.217,0.496,0.496
		v1.333C766.361,64.559,766.145,64.775,765.865,64.775z"/>
	<path fill="#FFFFFF" d="M783.752,85.363H769.77c-0.279,0-0.496-0.217-0.496-0.496V62.946c0-0.279,0.248-0.496,0.496-0.496h13.951
		c0.279,0,0.496,0.217,0.496,0.496v1.333c0,0.279-0.217,0.496-0.496,0.496h-11.812v7.441h11.379c0.279,0,0.465,0.217,0.465,0.496
		v1.364c0,0.279-0.186,0.496-0.465,0.496h-11.379v8.465h11.844c0.248,0,0.465,0.217,0.465,0.496v1.333
		C784.217,85.146,784,85.363,783.752,85.363z"/>
</g>
<g>
	<rect x="874.995" y="62.16" fill="none" width="225.604" height="68"/>
	<path fill="#FFFFFF" d="M888.173,84.976c-0.094,0.279-0.311,0.496-0.59,0.496h-3.875c-0.279,0-0.496-0.217-0.59-0.496l-7.658-21.89
		c-0.031-0.062-0.031-0.094-0.031-0.155c0-0.187,0.155-0.372,0.342-0.372h2.046c0.218,0,0.403,0.093,0.496,0.279l6.76,20.433h1.147
		l6.479-20.433c0.062-0.187,0.279-0.279,0.496-0.279h2.047c0.186,0,0.31,0.186,0.31,0.372v0.155L888.173,84.976z"/>
	<path fill="#FFFFFF" d="M900.911,85.472h-1.643c-0.279,0-0.496-0.217-0.496-0.496V62.869c0-0.248,0.154-0.341,0.371-0.403
		l1.861-0.31h0.093c0.217,0,0.31,0.217,0.31,0.403v22.417C901.407,85.255,901.19,85.472,900.911,85.472z"/>
	<path fill="#FFFFFF" d="M924.939,85.007c0,0.217-0.187,0.465-0.435,0.465h-1.736c-0.341,0-0.465-0.124-0.496-0.435l-0.279-4.588
		c-0.186-2.884-1.767-4.248-5.487-4.342l-6.884-0.154v9.022c0,0.279-0.217,0.496-0.496,0.496h-1.643
		c-0.279,0-0.496-0.217-0.496-0.496V63.055c0-0.279,0.217-0.496,0.496-0.496h9.922c4.495,0,7.1,1.674,7.1,6.355
		c0,3.256-1.178,5.055-4.867,5.52v0.807c2.201,0.278,4.836,0.558,5.084,5.457l0.218,4.278V85.007z M917.684,64.823h-8.062v9.084
		l6.573-0.217c3.069-0.124,5.612-0.651,5.612-4.372C921.808,66.373,920.691,64.823,917.684,64.823z"/>
	<path fill="#FFFFFF" d="M946.235,85.163c0,0.154-0.154,0.31-0.31,0.31h-2.853c-0.124,0-0.311-0.124-0.372-0.187l-9.333-10.293
		h-1.147v9.983c0,0.279-0.217,0.496-0.496,0.496h-1.644c-0.278,0-0.496-0.217-0.496-0.496V63.055c0-0.279,0.218-0.496,0.496-0.496
		h1.644c0.279,0,0.496,0.217,0.496,0.496v9.519h1.147l8.898-9.829c0.062-0.062,0.248-0.186,0.372-0.186l2.48,0.062
		c0.155,0,0.311,0.155,0.311,0.311c0,0.03-0.031,0.093-0.062,0.124l-9.829,10.604l10.636,11.379
		C946.204,85.069,946.235,85.131,946.235,85.163z"/>
	<path fill="#FFFFFF" d="M963.688,85.472h-13.984c-0.278,0-0.496-0.217-0.496-0.496V63.055c0-0.279,0.248-0.496,0.496-0.496h13.953
		c0.279,0,0.496,0.217,0.496,0.496v1.333c0,0.279-0.217,0.496-0.496,0.496h-11.813v7.441h11.38c0.278,0,0.465,0.217,0.465,0.496
		v1.364c0,0.279-0.187,0.496-0.465,0.496h-11.38v8.465h11.845c0.248,0,0.465,0.217,0.465,0.496v1.333
		C964.153,85.255,963.937,85.472,963.688,85.472z"/>
	<path fill="#FFFFFF" d="M982.659,85.472h-13.518c-0.279,0-0.496-0.217-0.496-0.496V62.869c0-0.248,0.154-0.341,0.371-0.403
		l1.861-0.31h0.093c0.217,0,0.31,0.217,0.31,0.403v20.494h11.379c0.279,0,0.466,0.218,0.466,0.496v1.427
		C983.125,85.255,982.938,85.472,982.659,85.472z"/>
	<path fill="#FFFFFF" d="M988.516,85.472h-1.644c-0.278,0-0.496-0.217-0.496-0.496V62.869c0-0.248,0.155-0.341,0.373-0.403
		l1.859-0.31h0.094c0.217,0,0.31,0.217,0.31,0.403v22.417C989.012,85.255,988.795,85.472,988.516,85.472z"/>
	<path fill="#FFFFFF" d="M1012.079,65.38c-0.062,0.248-0.187,0.341-0.403,0.341c-0.124,0-0.218,0-0.341-0.031
		c-1.427-0.341-3.907-1.178-7.441-1.178c-6.264,0-7.689,2.821-7.689,9.519c0,6.977,1.519,9.55,8.34,9.55
		c2.636,0,4.961-0.558,4.961-0.558v-8.062l-4.186-0.465c-0.155-0.031-0.279-0.125-0.279-0.279v-1.612
		c0-0.155,0.155-0.279,0.311-0.279h6.418c0.279,0,0.372,0.124,0.372,0.403V82c0,1.736-0.124,2.512-1.457,3.008
		c-1.612,0.62-4.899,0.868-6.201,0.868c-8.093,0-10.977-2.977-10.977-11.845c0-7.627,1.984-11.875,10.356-11.875
		c4.278,0,7.627,1.085,8.062,1.271c0.31,0.124,0.465,0.217,0.465,0.496c0,0.062,0,0.155-0.031,0.278L1012.079,65.38z"/>
	<path fill="#FFFFFF" d="M1035.7,85.472h-1.643c-0.279,0-0.496-0.217-0.496-0.496v-10.17h-13.612v10.17
		c0,0.279-0.217,0.496-0.496,0.496h-1.644c-0.278,0-0.496-0.217-0.496-0.496V62.869c0-0.248,0.155-0.341,0.373-0.403l1.859-0.31
		h0.094c0.217,0,0.31,0.217,0.31,0.403v9.828h13.612v-9.519c0-0.248,0.154-0.341,0.371-0.403l1.861-0.31h0.093
		c0.217,0,0.31,0.217,0.31,0.403v22.417C1036.196,85.255,1035.979,85.472,1035.7,85.472z"/>
	<path fill="#FFFFFF" d="M1056.253,85.472h-13.984c-0.278,0-0.496-0.217-0.496-0.496V63.055c0-0.279,0.248-0.496,0.496-0.496h13.953
		c0.279,0,0.496,0.217,0.496,0.496v1.333c0,0.279-0.217,0.496-0.496,0.496h-11.813v7.441h11.38c0.278,0,0.465,0.217,0.465,0.496
		v1.364c0,0.279-0.187,0.496-0.465,0.496h-11.38v8.465h11.845c0.248,0,0.465,0.217,0.465,0.496v1.333
		C1056.718,85.255,1056.501,85.472,1056.253,85.472z"/>
	<path fill="#FFFFFF" d="M1069.953,85.472h-8.247c-0.279,0-0.496-0.217-0.496-0.496V63.055c0-0.279,0.217-0.496,0.496-0.496h8.247
		c6.697,0,10.573,1.457,10.573,11.441C1080.526,84.015,1076.65,85.472,1069.953,85.472z M1069.581,64.823h-5.736v18.355h5.736
		c5.55,0,8.248-0.962,8.248-9.24S1075.131,64.823,1069.581,64.823z"/>
</g>
<g>
	<line fill="#FFFFFF" x1="670.657" y1="97.91" x2="800.093" y2="97.27"/>
	<polygon fill="#FFFFFF" points="670.665,99.41 670.649,96.41 800.086,95.77 799.376,100.378 	"/>
</g>
<g>
	<line fill="#FFFFFF" x1="872.525" y1="98.295" x2="1094.771" y2="97.814"/>
	<polygon fill="#FFFFFF" points="872.539,99.42 869.761,95.137 1094.756,96.689 1094.783,98.939 	"/>
</g>
<pattern  id="SVGID_1_" xlink:href="#Unnamed_Pattern_9" patternTransform="matrix(1 0 0 -1 -2624.9521 1993.3916)">
</pattern>
<path fill="url(#SVGID_1_)" d="M688.267,256.209"/>
<g>
	<pattern  id="SVGID_2_" xlink:href="#Unnamed_Pattern_9" patternTransform="matrix(1 0 0 -1 -2624.9521 1993.3916)">
	</pattern>
	<path fill="url(#SVGID_2_)" d="M1097.442,394.825c-2.082,0.621-245,15-245,15l0.505-128.705l247.495-14.295L1097.442,394.825z"/>
	<g>
		<polygon fill="#FFFFFF" points="1000.14,415.653 1004.648,327.758 996.633,309.535 987.119,326.687 988.684,415.72 		"/>
		<polygon fill="#FFFFFF" points="978.603,414.581 983.11,326.687 975.095,308.466 965.579,325.614 967.144,414.649 		"/>
		<polygon fill="#FFFFFF" points="957.564,414.581 962.072,326.687 954.057,308.466 944.54,325.614 946.105,414.649 		"/>
		<polygon fill="#FFFFFF" points="933.894,412.72 938.402,324.823 930.388,306.603 920.871,323.753 922.434,412.786 		"/>
		<polygon fill="#FFFFFF" points="912.854,412.72 917.364,324.823 909.35,306.603 899.833,323.753 901.396,412.786 		"/>
		<polygon fill="#FFFFFF" points="892.561,413.729 897.069,325.833 889.054,307.608 879.539,324.762 881.104,413.794 		"/>
		<rect x="889.276" y="346.728" fill="#FFFFFF" width="105.896" height="9.627"/>
		<rect x="889.838" y="385.235" fill="#FFFFFF" width="105.895" height="9.627"/>
	</g>
	<g>
		<path fill="#FFFFFF" d="M1035.075,271.351c-0.234-0.064-8.902,6.806-7.483,7.973c0.176,0.603,18,30.798,18.151,30.831
			c8.051,1.812,18.617-2.184,26.429-3.425c0.076,0.259,0.159,0.521,0.26,0.789c0.734,3.219,1.502,3.955,4.906,7.567
			c4.056,4.665,9.283,8.718,11.823,9.14c0.419,0.07,0.546-0.445,0.368-0.721c-0.412-0.639-0.816-1.276-1.226-1.917
			c1.589,1.344,3.421,2.115,5.589,1.535c0.34-0.093,1.613-1.209,1.43-1.487c-0.79-1.201-2.36-2.576-3.219-3.719
			c1.474,0.755,2.578,1.795,4.1,0.504c0.187-0.159,0.201-0.432,0.054-0.617c-3.037-3.82-4.907-4.393-10.723-10.32
			c-1.204-1.229-2.437-2.422-3.705-3.58c0.679,0.13,1.374,0.205,2.078,0.206c0.976,0.213,1.952,0.352,2.915,0.358
			c3.582,0.025,3.99-2.524,2.774-5.429c-0.103-0.244-0.475-0.345-0.675-0.146c-4.479,4.478-10.028-2.474-14.617-0.476
			c-0.188-0.108-0.804,0.383-0.894,0.517c-0.186,0.136-0.367,0.298-0.545,0.474c-0.058,0.016-0.116,0.04-0.167,0.087
			c-3.475,2.813-8.15,4.252-12.518,4.684c-3.391,0.337-7.171,0.198-10.23-1.371C1049.033,302.217,1035.009,271.284,1035.075,271.351
			z"/>
		<path fill="#FFFFFF" d="M1005.176,268.347c-3.358,4.133-35.553,24.984-35.553,31.469c0,14.477,12.011,9.59,22.351,8.484
			c10.341-1.104,5.686,3.03,6.205,9.752c0.516,6.722,11.372-2.069,11.372-2.069s-3.36-9.942-7.496-13.045
			c-4.136-3.101-25.887,1.843-23.303-3.842c2.584-5.688,30.27-18.497,30.27-18.497L1005.176,268.347z"/>
		<path fill="#110906" d="M1012.264,325.159c0.908,4.568,2.939,54.219,7.939,68.311c5.329,15.021,4.844,19.865,4.844,19.865
			s-21.804-1.453-22.771,3.877c-0.221,1.204,1.32,1.94,3.814,2.35c8.549,1.4,28.321-1.006,27.197-1.38
			c-1.456-0.485-0.486-11.145-3.394-39.249c-2.908-28.104,2.426-34.889,2.426-34.889s23.741,15.507,4.842,32.95
			c-18.896,17.443-32.464,20.835-32.464,20.835s7.753,28.105,14.537,25.197c6.783-2.907-6.784-22.288-6.784-22.288
			s40.22-15.021,40.704-32.949c0.482-17.928-8.502-43.103-9.098-42.63C1043.462,325.632,1012.264,325.159,1012.264,325.159z"/>
		<path fill="#0E8CCD" d="M1012.264,325.159c0,0,0.046-21.585-1.937-57.77c-0.603-10.93,15.77-13.057,23.389-8.667
			c7.624,4.39,10.64,17.922,10.729,18.747c2.958,27.229-0.388,47.689-0.388,47.689S1022.998,332.38,1012.264,325.159z"/>
		<path fill="#FFFFFF" d="M1020.466,259.587c0,0,3.794-5.71-4.942-8.169c-8.733-2.46-10.088-17.729-5.605-36.596
			c4.482-18.867,27.503-14.311,30.363-5.945c2.86,8.364,4.725,34.265-2.301,39.691c-7.021,5.423-7.697,2.932-6.176,8.503
			C1033.327,262.644,1019.676,265.118,1020.466,259.587z"/>
		<path fill="#110906" d="M1047.296,219.566c-0.276-1.507-1.333-2.06-2.556-2.047c0.16-0.263,0.242-0.538,0.275-0.817
			c0.274-0.378,0.479-0.789,0.6-1.238c0.814-0.55,1.457-1.289,1.658-2.219c0.655-1.153,0.877-2.611,0.424-4.312
			c-0.49-1.831-2.822-3.744-4.775-3.626c-0.558,0.036-1.069,0.127-1.564,0.25c0.886-2.396,0.139-5.136-3.579-5.444
			c-1.402-0.818-3.274-0.942-5.29,0.257c-0.525,0.312-0.971,0.65-1.379,1.012c-0.034-0.857-0.345-1.693-1.02-2.393
			c-1.882-1.946-5.13-1.105-7.475-0.166c-2.344,0.1-4.503,1.88-5.444,4.098c-5.158-1.889-10.036,5.531-4.477,8.361
			c2.138,1.086,4.245,0.845,5.753-0.069c1.716-0.221,3.143-1.393,3.511-3.136c0.473,0.041,0.942,0.041,1.408-0.009
			c1.271,1.781,3.498,3.582,5.841,3.306c1.548,2.587,6.797,5.043,10.039,4.114c0.178,0.108,0.373,0.19,0.577,0.261
			c-0.093,0.335-0.112,0.68-0.064,1.017c-1.411,2.345-2.544,5.292,0.665,6.714c0.195,0.506,0.424,0.998,0.634,1.453
			c0.874,1.871,0.13,4.139,1.188,6.207c1.354,2.646,5.37,0.387,4.018-2.258c-0.819-1.604-0.189-3.181-0.601-4.853
			c-0.036-0.157-0.106-0.353-0.2-0.568C1046.792,222.778,1047.646,221.477,1047.296,219.566z"/>
		<g>
			<g>
				<path fill="#110906" d="M1017.973,225.961c-0.017,0.332-0.227,2.59-1.109,2.202c-0.671-0.294-0.707-1.682-0.716-2.246
					c-0.005-0.341,0.238-2.578,1.105-2.199C1017.926,224.011,1017.964,225.395,1017.973,225.961c0.008,0.5,0.783,0.5,0.775,0
					c-0.013-0.837-0.282-3.23-1.645-3.066c-1.386,0.167-1.675,1.881-1.731,3.022c-0.042,0.838,0.312,3.229,1.639,3.069
					c1.388-0.167,1.68-1.882,1.737-3.025C1018.773,225.461,1017.998,225.463,1017.973,225.961z"/>
			</g>
		</g>
		<g>
			<g>
				<path fill="#110906" d="M1031.375,226.497c-0.017,0.334-0.223,2.584-1.108,2.198c-0.673-0.293-0.711-1.679-0.72-2.244
					c-0.006-0.341,0.242-2.577,1.107-2.199C1031.327,224.546,1031.366,225.931,1031.375,226.497c0.008,0.5,0.783,0.5,0.775,0
					c-0.014-0.837-0.283-3.233-1.646-3.068c-1.385,0.167-1.676,1.882-1.733,3.022c-0.043,0.843,0.317,3.226,1.645,3.067
					c1.386-0.165,1.678-1.88,1.734-3.021C1032.175,225.997,1031.399,226,1031.375,226.497z"/>
			</g>
		</g>
		<g>
			<g>
				<path fill="#110906" d="M1022.509,221.336c-2.556,5.096-3.716,9.919-3.837,15.667c-0.005,0.23,0.182,0.363,0.388,0.388
					c2.324,0.276,4.585-0.715,6.683-1.6c0.453-0.191,0.254-0.942-0.207-0.748c-1.288,0.543-2.577,1.034-3.928,1.4
					c-0.553,0.15-2.164,0.758-2.141-0.364c0.025-1.207,0.107-2.408,0.217-3.61c0.358-3.92,1.763-7.289,3.495-10.742
					C1023.402,221.282,1022.733,220.89,1022.509,221.336L1022.509,221.336z"/>
			</g>
		</g>
		<g>
			<g>
				<path fill="#110906" d="M1018.731,241.595c2.24,2.848,7.988,0.785,10.1-1.154c0.369-0.339-0.181-0.886-0.549-0.548
					c-1.81,1.663-7.048,3.639-9.002,1.154C1018.971,240.654,1018.426,241.207,1018.731,241.595L1018.731,241.595z"/>
			</g>
		</g>
		<path fill="#FFFFFF" d="M1047.743,229.264c-0.052,3.03-2.211,5.453-4.821,5.406c-2.61-0.044-4.687-2.54-4.635-5.57
			c0.051-3.03,2.211-5.45,4.826-5.406C1045.722,223.739,1047.796,226.231,1047.743,229.264z"/>
		<g>
			<g>
				<path fill="#110906" d="M1034.27,224.139c-1.846-1.375-3.62-2.85-5.561-4.094c-0.422-0.271-0.811,0.401-0.391,0.67
					c1.939,1.243,3.715,2.719,5.561,4.094C1034.28,225.107,1034.666,224.434,1034.27,224.139L1034.27,224.139z"/>
			</g>
		</g>
		<g>
			<g>
				<path fill="#110906" d="M1018.962,219.73c-2.009,0.725-4.019,1.437-5.868,2.521c-0.432,0.252-0.041,0.923,0.391,0.67
					c1.793-1.05,3.737-1.741,5.685-2.442C1019.635,220.31,1019.434,219.561,1018.962,219.73L1018.962,219.73z"/>
			</g>
		</g>
		<g>
			<g>
				<path fill="#110906" d="M1044.114,226.799c-1.281,0.277-2.49,0.816-2.82,2.2c-0.051,0.213,0.064,0.41,0.271,0.477
					c0.717,0.232,1.593-0.077,2.329-0.072c0.772,0.006,0.103,0.309-0.24,0.438c-0.402,0.152-0.69,0.401-0.789,0.829
					c-0.112,0.487,0.636,0.693,0.748,0.206c0.113-0.493,1.06-0.44,1.327-0.918c0.208-0.37,0.177-0.907-0.234-1.136
					c-0.934-0.52-1.999,0.21-2.934-0.094c0.09,0.159,0.18,0.318,0.271,0.477c0.266-1.112,1.272-1.44,2.279-1.658
					C1044.81,227.441,1044.603,226.693,1044.114,226.799L1044.114,226.799z"/>
			</g>
		</g>
		<path fill="#0E8CCD" d="M1012.977,261.509c0,0-14.825,9.58-15.317,11.05c-0.518,1.551,4.849,13.376,4.849,13.376l12.795,3.103
			L1012.977,261.509z"/>
		<path fill="#FFFFFF" d="M1009.551,315.982c-0.14,0.181,1.29,4.993,1.031,10.325c-0.261,5.33-1.042,10.533-2.472,10.012
			c-1.434-0.519-2.212-1.95-2.212-1.95s4.29-8.062,1.303-13.653c-0.854-1.599-1.203,5.516-1.303,6.501
			c-0.258,2.603-1.302,10.048-1.56,10.012c-1.951-0.258-2.449-1.751-2.493-2.862c-0.17-4.426,3.194-13.076,1.324-13.911
			c-1.934-0.862-1.561,14.694-4.551,13.653c-2.992-1.039,1.168-7.151,0.52-10.532c-0.649-3.38-1.301-7.413-0.913-7.543
			C998.616,315.904,1009.551,315.982,1009.551,315.982z"/>
	</g>
	<g>
		<path fill="#13A9E2" d="M961.228,299.32l9.104-65.801l11.299-1.654c0,0-23.978-36.929-23.15-38.031
			c0.827-1.101-73.856,0.276-73.856,0.276l-17.914,32.243l9.095,1.93l3.858,71.928L961.228,299.32z"/>
		<rect x="913.835" y="180.639" fill="#13A9E2" width="9.096" height="28.938"/>
		<rect x="897.3" y="181.19" fill="#13A9E2" width="13.23" height="21.496"/>
		<polygon fill="#82CFF5" points="926.874,270.512 946.054,270.821 950.694,237.412 927.7,236.447 		"/>
		<polygon fill="#82CFF5" points="899.032,269.815 916.82,270.279 917.593,236.096 895.938,237.102 		"/>
	</g>
</g>
<pattern  id="SVGID_3_" xlink:href="#Unnamed_Pattern_9" patternTransform="matrix(1 0 0 -1 -2624.9521 1993.3916)">
</pattern>
<path fill="url(#SVGID_3_)" d="M845.442,342.825c-3,1-242,10-242,10l8.566,126.361l235.807,2.245L845.442,342.825z"/>
<g>
	<path fill="#110906" d="M716.989,229.829c1.953-1.394,4.016-3.241,3.805-5.828c-0.215-2.665-3.366-4.28-5.561-5.24
		c1.26-2.748,0.037-5.29-2.234-7.07c2.327-2.006,1.6-4.44-0.812-5.985c3.339-1.647,4.566-5.06,1.462-7.599
		c1.135-0.676,2.25-1.648,2.008-3.083c-0.228-1.36-1.74-1.999-3.061-2.335c0.281-0.189,0.547-0.406,0.82-0.658
		c0.157-0.144,0.139-0.438-0.021-0.57c-1.198-1.013-2.489-1.506-3.999-1.615c-0.949-3.467-4.305-5.22-7.795-4.868
		c-2.414,0.245-4.248,1.876-3.588,3.944c-4.214-1.821-12.635-1.457-10.603,4.123c-4.484-0.096-9.433-1.703-13.011,1.816
		c-2.385,2.348-2.712,5.888-0.641,8.21c-2.113-0.106-3.581,1.236-3.613,3.376c-0.719,0.131-1.374,0.482-1.828,1.138
		c-1.004,1.443,0.057,2.492,1.312,3.126c-1.904,0.522-3.73,1.533-4.76,3.249c-1.12,1.87,0.498,3.208,2.08,3.938
		c-3.949,2.47-5.684,8.675-0.205,9.867c-3.639,3.97-0.196,10.061,5.054,8.795c-1.421,4.382,4.583,5.585,7.973,3.871
		c1.845,4.099,6.8,4.943,10.368,2.27c0.168-0.125,0.732-0.867,0.971-0.695c0.529,0.38,1.111,0.685,1.689,0.981
		c1.211,0.61,2.533,0.978,3.874,1.124c2.187,0.24,4.071-0.62,5.276-2.381c2.024,1.037,4.309,1.546,6.551,0.951
		c1.027-0.272,1.864-0.969,2.479-1.812c0.216-0.299,0.395-0.653,0.514-1.002c0.326-0.972,1.438-0.62,2.319-0.692
		c2.263-0.184,4.749-1.194,5.794-3.332C720.751,233.51,718.724,231.235,716.989,229.829z"/>
	<g>
		<g>
			<path fill="#FFFFFF" d="M717.526,320.562c0,0-2.92,4.02-2.553,6.728c0.697,5.148,25.176,19.289,42.74,2.789
				c1.52-1.43-0.484-8.289-0.484-8.289L717.526,320.562z"/>
			<path fill="#3E68B0" d="M718.087,315.811c1.717,2.447,14.226,19.345,38.876,2.696l0.995,5.842c0,0-8.519,8.675-23.359,7.183
				c-14.402-1.448-18.076-8.493-18.076-8.493L718.087,315.811z"/>
		</g>
		<g>
			<path fill="#3E68B0" d="M737.392,311.293c-10.978-0.748-19.865,2.628-20.014,4.897c-0.04,0.59,0.364,1.518,1.17,2.582
				c3.018-1.896,10.143-3.703,18.469-3.135c8.107,0.554,15.084,3.204,18.117,5.466c1.232-0.856,1.959-1.64,1.998-2.196
				C757.279,316.638,748.368,312.044,737.392,311.293z"/>
			<path fill="#1E1E1C" d="M737.401,315.547c-8.329-0.567-17.926,1.052-18.471,3.134c-0.545,2.084,7.848,7.12,15.963,7.674
				c8.279,0.563,19.838-2.952,20.623-5.342C756.302,318.624,745.508,316.101,737.401,315.547z"/>
		</g>
		<path fill="#1E1E1C" d="M739.224,311.184c0,0,12.349,1.716,17.463,6.173c3.159,2.753-5.801,6.691-5.801,6.691
			c2.562-1.297,17.385-7.14,11.371-10.45C755.663,309.97,749.516,311.242,739.224,311.184z"/>
	</g>
	<path fill="#FFFFFF" d="M726.632,309.348c-5.17-2.405-5.948-9.391-12.088-20.401c-5.504-9.867-15.77-33.707-15.531-34.514
		c0,0-8.974,1.902-8.305,5.867c0.667,3.965,25.609,44.059,30.561,52.487c2.486,4.238,5.301,6.805,5.935,7.432
		c0.253,0.389,3.476,0.521,2.864-1.132c-0.49-1.317-1.255-1.787-3.246-3.07C725.054,314.879,726.033,309.79,726.632,309.348z"/>
	<path fill="#110906" d="M673.958,316.077c0.504,3.999,5.719,32.875,7.039,55.509c0.768,13.235-2.328,25.611-4.795,36.233
		c-0.025,0.108,3.335-0.255,3.382-0.038c0.96,4.71-0.869,8.697-0.285,8.677c1.616-0.055,26.666,6.104,31.855-0.014
		c5.187-6.118-23.971-6.196-23.971-6.196s-1.103-3.239-0.87-3.406c0.288-0.204,3.902-0.841,3.902-0.841
		c-0.852-13.338,1.629-36.661,1.717-46.131c0.111-12.422,0.268-31.461,0.268-31.461s6.836,18.258,6.297,33.936
		c-0.162,4.688-4.607,31.761-4.285,31.831c0.175,0.036,2.01,0.33,3.213,0.448l-0.234,8.261l0,0c0,0,27.67,3.909,30.163-2.115
		c2.495-6.027-23.841-2.419-23.841-2.419c-0.123-0.181,0.08-3.458,0.236-3.545c0.07-0.038,3.799-1.578,3.797-1.668
		c-0.26-7.555-1.953-21.693-0.495-33.248c2.122-16.811-4.724-43.166-4.724-43.166L673.958,316.077z"/>
	<path fill="#0E8CCD" d="M704.608,315.834c0,0,3.74-55.083-5.89-67.63c-6.958-9.066-9.878-7.089-17.671-2.237
		c-7.797,4.853-8.895,15.024-8.389,15.728c0.509,0.708,1.107,56.686,1.107,56.686S693.671,323.753,704.608,315.834z"/>
	<path fill="#FFFFFF" d="M697.433,246.951c0,0-3.455-6.269,5.848-8.072c9.299-1.805,12.025-17.573,8.991-37.587
		c-3.038-20.013-27.378-17.263-31.075-8.806c-3.697,8.456-7.873,35.241-1.034,41.49c6.84,6.249,8.04,2.704,5.978,8.367
		C684.072,248.007,697.776,252.772,697.433,246.951z"/>
	<path fill="#110906" d="M670.544,206.033c0.506-1.933,1.887-2.54,3.41-2.395c-0.169-0.36-0.244-0.726-0.256-1.091
		c-0.305-0.521-0.513-1.079-0.615-1.674c-0.96-0.801-1.68-1.829-1.832-3.059c-0.693-1.568-0.818-3.487-0.068-5.652
		c0.807-2.333,3.924-4.577,6.348-4.218c0.692,0.103,1.32,0.28,1.928,0.488c-0.853-3.208,0.375-6.692,5.047-6.706
		c1.836-0.916,4.188-0.885,6.575,0.887c0.624,0.463,1.14,0.946,1.61,1.461c0.137-1.109,0.615-2.17,1.53-3.007
		c2.558-2.335,6.521-0.901,9.346,0.567c2.915,0.371,5.421,2.913,6.358,5.896c6.639-1.92,11.934,8.238,4.691,11.341
		c-2.785,1.189-5.391,0.656-7.174-0.691c-2.116-0.467-3.771-2.139-4.046-4.443c-0.593,0.003-1.179-0.046-1.751-0.158
		c-1.777,2.183-4.754,4.296-7.646,3.688c-2.208,3.202-9.025,5.848-12.974,4.303c-0.233,0.119-0.483,0.207-0.747,0.279
		c0.08,0.443,0.07,0.895-0.026,1.328c1.509,3.196,2.606,7.147-1.551,8.662c-0.296,0.638-0.634,1.255-0.947,1.824
		c-1.292,2.344-0.604,5.37-2.145,7.945c-1.972,3.303-6.745-0.056-4.774-3.355c1.195-1.999,0.579-4.115,1.269-6.246
		c0.065-0.203,0.175-0.447,0.312-0.719C670.83,210.264,669.904,208.479,670.544,206.033z"/>
	<g>
		<g>
			<path fill="#110906" d="M705.552,212.437c-0.03,0.891,0.141,3.367,1.578,3.264c1.45-0.104,1.825-1.919,1.939-3.085
				c0.088-0.893-0.178-3.364-1.578-3.263C706.044,209.456,705.666,211.272,705.552,212.437c-0.052,0.52,0.759,0.515,0.809,0
				c0.035-0.353,0.457-2.874,1.359-2.141c0.599,0.485,0.563,1.643,0.541,2.319c-0.013,0.369-0.473,2.862-1.358,2.142
				c-0.598-0.486-0.564-1.643-0.542-2.321C706.378,211.914,705.568,211.916,705.552,212.437z"/>
		</g>
	</g>
	<g>
		<g>
			<path fill="#110906" d="M691.562,211.835c-0.029,0.889,0.141,3.368,1.577,3.264c1.45-0.105,1.827-1.916,1.943-3.083
				c0.089-0.893-0.182-3.361-1.578-3.263C692.056,208.854,691.678,210.669,691.562,211.835c-0.052,0.52,0.758,0.515,0.809,0
				c0.035-0.353,0.458-2.874,1.36-2.139c0.598,0.486,0.564,1.643,0.543,2.32c-0.013,0.37-0.478,2.859-1.361,2.141
				c-0.598-0.486-0.563-1.644-0.542-2.321C692.389,211.312,691.579,211.314,691.562,211.835z"/>
		</g>
	</g>
	<g>
		<g>
			<path fill="#110906" d="M701.094,209.836c1.422,3.54,2.448,6.775,2.699,10.644c0.062,0.934,0.041,1.874,0.026,2.809
				c-0.021,1.49,0.391,2.669-1.439,2.314c-1.689-0.328-3.285-1.231-4.797-2.021c-0.462-0.241-0.871,0.457-0.408,0.699
				c2.123,1.11,4.447,2.379,6.912,2.273c0.23-0.01,0.391-0.177,0.404-0.405c0.364-5.968-0.406-11.023-2.616-16.527
				C701.683,209.143,700.899,209.352,701.094,209.836L701.094,209.836z"/>
		</g>
	</g>
	<g>
		<g>
			<path fill="#110906" d="M700.532,227.668c-1.051-0.105-2.054-0.465-3.112-0.55c-1.313-0.106-2.557,0.364-3.67,1.013
				c-0.451,0.263-0.044,0.962,0.408,0.699c1.32-0.769,2.608-1.051,4.112-0.797c0.761,0.129,1.491,0.368,2.262,0.445
				C701.052,228.53,701.047,227.72,700.532,227.668L700.532,227.668z"/>
		</g>
	</g>
	<path fill="#FFFFFF" d="M671.672,213.052c-0.208,3.157,1.832,5.862,4.55,6.041c2.724,0.179,5.098-2.238,5.305-5.395
		c0.206-3.158-1.83-5.862-4.553-6.041C674.255,207.478,671.881,209.894,671.672,213.052z"/>
	<g>
		<g>
			<path fill="#110906" d="M689.941,209.884c2.039-1.273,4.013-2.654,6.139-3.781c0.462-0.245,0.053-0.943-0.408-0.699
				c-2.126,1.127-4.1,2.509-6.139,3.781C689.092,209.46,689.497,210.161,689.941,209.884L689.941,209.884z"/>
		</g>
	</g>
	<g>
		<g>
			<path fill="#110906" d="M705.523,206.634c1.997,0.911,3.994,1.811,5.797,3.078c0.428,0.301,0.832-0.401,0.408-0.699
				c-1.803-1.267-3.8-2.167-5.797-3.078C705.461,205.72,705.049,206.417,705.523,206.634L705.523,206.634z"/>
		</g>
	</g>
	<g>
		<g>
			<path fill="#110906" d="M675.413,211.569c1.043,0.319,2.024,0.76,2.205,1.946c0.095-0.166,0.188-0.332,0.283-0.498
				c-0.94,0.219-2.127-0.733-3.041-0.156c-0.345,0.218-0.556,0.656-0.374,1.053c0.257,0.563,1.274,0.665,1.353,1.206
				c0.075,0.515,0.854,0.295,0.781-0.215c-0.061-0.418-0.318-0.672-0.677-0.868c-0.285-0.155-1.133-0.51-0.324-0.51
				c0.823,0,1.676,0.461,2.497,0.27c0.233-0.054,0.315-0.287,0.283-0.498c-0.225-1.465-1.474-2.115-2.771-2.511
				C675.128,210.636,674.915,211.417,675.413,211.569L675.413,211.569z"/>
		</g>
	</g>
	<path fill="#FFFFFF" d="M721.444,321.902l3.133,1.177c0,0,1.031-6.174-4.518-8.595c-2.84-1.239-5.689-2.79-5.689-2.79
		s-7.819-10.896-15.543-19.138c-4.734-5.05-8.449-15.413-10.566-22.876c-2.877,1.722-5.797,3.363-8.766,4.912
		c1.443,6.157,4.014,14.125,8.453,18.603c6.885,6.942,21.195,21.069,21.195,21.069s-0.299,6.802,0.809,12.185
		c0.448,2.195,4.977,7.125,5.178,7.22c1.229,0.589,7.886,0.464,7.886,0.464s-2.768-2.378-3.773-2.966
		c-1.878-1.096-1.332-9.238-1.271-9.37C719.8,317.887,721.444,321.902,721.444,321.902z"/>
	<path fill="#FFFFFF" d="M720.231,304.464c0.479,0.063,10.922,3.497,11.533,3.873c0.608,0.374,2.203,2.864,2.203,2.864
		s-6.391,0.22-8.66,1.251C723.808,313.135,720.231,304.464,720.231,304.464z"/>
	<g>
		<g>
			<path fill="#110906" d="M682.679,223.502c-1.026,0.227-1.831,0.89-2.71,1.422c-0.446,0.27-0.039,0.97,0.408,0.699
				c0.817-0.495,1.564-1.131,2.517-1.341C683.403,224.17,683.188,223.39,682.679,223.502L682.679,223.502z"/>
		</g>
	</g>
	<g>
		<g>
			<path fill="#110906" d="M683.499,225.868c-0.745,0.547-1.562,0.963-2.387,1.374c-0.468,0.233-0.058,0.931,0.408,0.699
				c0.825-0.411,1.643-0.827,2.387-1.374C684.323,226.262,683.92,225.559,683.499,225.868L683.499,225.868z"/>
		</g>
	</g>
	<g>
		<g>
			<path fill="#110906" d="M679.293,227.382c-0.422,0.221-0.863,0.403-1.27,0.651c-0.444,0.272-0.038,0.972,0.408,0.699
				c0.407-0.249,0.848-0.431,1.27-0.651C680.164,227.839,679.755,227.141,679.293,227.382L679.293,227.382z"/>
		</g>
	</g>
	<g>
		<g>
			<path fill="#110906" d="M681.884,229.8c-1.174,0.724-2.296,1.521-3.417,2.322c-0.421,0.301-0.018,1.003,0.408,0.699
				c1.121-0.801,2.244-1.599,3.417-2.322C682.735,230.226,682.329,229.525,681.884,229.8L681.884,229.8z"/>
		</g>
	</g>
	<g>
		<g>
			<path fill="#110906" d="M682.797,232.262c-0.908,0.819-1.852,1.6-2.73,2.451c-0.376,0.363,0.197,0.936,0.572,0.572
				c0.88-0.851,1.822-1.632,2.73-2.451C683.758,232.484,683.184,231.913,682.797,232.262L682.797,232.262z"/>
		</g>
	</g>
	<g>
		<g>
			<path fill="#110906" d="M688.145,228.295c-0.795,0.448-1.464,1.069-2.158,1.653c-0.4,0.336,0.176,0.906,0.572,0.572
				c0.643-0.541,1.259-1.111,1.994-1.526C689.008,228.737,688.6,228.038,688.145,228.295L688.145,228.295z"/>
		</g>
	</g>
	<g>
		<g>
			<path fill="#110906" d="M685.783,235.124c-0.548,0.602-1.012,1.265-1.443,1.953c-0.278,0.443,0.423,0.849,0.699,0.408
				c0.396-0.63,0.814-1.237,1.316-1.789C686.706,235.311,686.135,234.737,685.783,235.124L685.783,235.124z"/>
		</g>
	</g>
	<g>
		<g>
			<path fill="#110906" d="M704.609,236.713c0.453,0.795,1.105,1.417,1.801,1.999c0.397,0.333,0.973-0.237,0.572-0.572
				c-0.643-0.539-1.255-1.099-1.674-1.835C705.051,235.851,704.351,236.259,704.609,236.713L704.609,236.713z"/>
		</g>
	</g>
	<g>
		<g>
			<path fill="#110906" d="M707.344,234.881c0.507,0.61,1.115,1.112,1.729,1.611c0.401,0.327,0.978-0.243,0.572-0.572
				c-0.613-0.499-1.222-1.001-1.729-1.611C707.582,233.907,707.013,234.482,707.344,234.881L707.344,234.881z"/>
		</g>
	</g>
	<g>
		<g>
			<path fill="#110906" d="M709.662,231.608c0.854,0.66,1.61,1.425,2.358,2.2c0.363,0.376,0.935-0.197,0.572-0.572
				c-0.748-0.775-1.505-1.54-2.358-2.2C709.827,230.721,709.25,231.29,709.662,231.608L709.662,231.608z"/>
		</g>
	</g>
	<g>
		<g>
			<path fill="#110906" d="M696.753,234.833c0.086,0.516,0.103,1.039,0.121,1.561c0.018,0.521,0.827,0.522,0.809,0
				c-0.02-0.596-0.052-1.187-0.148-1.775C697.449,234.104,696.669,234.323,696.753,234.833L696.753,234.833z"/>
		</g>
	</g>
	<g>
		<g>
			<path fill="#110906" d="M694.089,234.481c-0.266,0.881-1.014,1.588-1.549,2.313c-0.311,0.42,0.393,0.823,0.699,0.408
				c0.586-0.794,1.339-1.54,1.631-2.507C695.021,234.195,694.239,233.983,694.089,234.481L694.089,234.481z"/>
		</g>
	</g>
	<g>
		<g>
			<path fill="#110906" d="M702.885,231.232c0.713,0.605,1.328,1.308,1.97,1.985c0.359,0.38,0.931-0.193,0.572-0.572
				c-0.641-0.678-1.257-1.381-1.97-1.985C703.062,230.325,702.486,230.895,702.885,231.232L702.885,231.232z"/>
		</g>
	</g>
	<g>
		<g>
			<path fill="#110906" d="M705.483,229.471c0.559,0.45,1.088,0.936,1.647,1.386c0.402,0.324,0.979-0.245,0.572-0.572
				c-0.56-0.45-1.088-0.936-1.647-1.386C705.653,228.574,705.077,229.143,705.483,229.471L705.483,229.471z"/>
		</g>
	</g>
	<g>
		<g>
			<path fill="#110906" d="M691.439,231.373c-0.863,0.597-1.688,1.245-2.447,1.969c-0.379,0.36,0.194,0.932,0.572,0.572
				c0.711-0.677,1.476-1.284,2.283-1.842C692.274,231.777,691.87,231.076,691.439,231.373L691.439,231.373z"/>
		</g>
	</g>
	<g>
		<g>
			<path fill="#110906" d="M680.228,220.774c-0.739,0.107-1.462,0.284-2.188,0.456c-0.508,0.121-0.293,0.901,0.215,0.78
				c0.726-0.172,1.449-0.348,2.188-0.456C680.957,221.479,680.737,220.699,680.228,220.774L680.228,220.774z"/>
		</g>
	</g>
	<g>
		<g>
			<path fill="#110906" d="M689.317,236.167c-0.477,0.847-1.312,1.4-2.026,2.03c-0.393,0.346,0.183,0.916,0.572,0.572
				c0.772-0.68,1.638-1.278,2.153-2.194C690.272,236.12,689.573,235.712,689.317,236.167L689.317,236.167z"/>
		</g>
	</g>
	<g>
		<g>
			<path fill="#110906" d="M694.923,238.495c-0.509,0.932-0.256,1.994,0.049,2.951c0.158,0.496,0.939,0.284,0.781-0.215
				c-0.231-0.726-0.523-1.61-0.131-2.328C695.872,238.445,695.173,238.037,694.923,238.495L694.923,238.495z"/>
		</g>
	</g>
	<g>
		<g>
			<path fill="#110906" d="M700.403,237.633c0.309,0.58,0.606,1.143,1.077,1.609c0.371,0.368,0.943-0.205,0.572-0.572
				c-0.421-0.418-0.675-0.928-0.95-1.445C700.857,236.764,700.158,237.172,700.403,237.633L700.403,237.633z"/>
		</g>
	</g>
	<g>
		<g>
			<path fill="#110906" d="M700.896,232.777c0.32,0.411,0.539,0.854,0.669,1.358c0.131,0.505,0.911,0.291,0.781-0.215
				c-0.167-0.647-0.469-1.191-0.878-1.716C701.148,231.794,700.579,232.371,700.896,232.777L700.896,232.777z"/>
		</g>
	</g>
	<g>
		<g>
			<path fill="#110906" d="M691.377,239.317c-0.754,0.57-1.274,1.308-1.56,2.21c-0.157,0.499,0.624,0.711,0.781,0.215
				c0.216-0.685,0.61-1.29,1.187-1.726C692.196,239.706,691.793,239.002,691.377,239.317L691.377,239.317z"/>
		</g>
	</g>
	<g>
		<path fill="#0E8CCD" d="M762.345,369.2c1.295,1.887-12.838,43.553-12.838,43.553s39.641-26.459,39.984-28.399
			c0.342-1.942,6.277-36.086,6.277-36.086L762.345,369.2z"/>
		<path fill="#E4F3FB" d="M783.954,418.887c-1.682-1.229-21.795-49.555-21.795-49.555l33.424-20.933l25.381,40.302L783.954,418.887z
			"/>
		<g>
			<g>
				<g>
					<path fill="#110906" d="M778.907,368.228c-0.956-0.817-2.022-0.611-2.505,0.59c-0.688,1.715-0.439,3.806,0.094,5.524
						c0.562,1.81,1.824,3.422,3.767,3.758c0.945,0.164,1.983-0.87,2.266-1.729c0.532-1.623-0.414-2.897-1.492-4.04
						c-0.426-0.452-1.105,0.229-0.68,0.68c0.422,0.401,0.781,0.854,1.08,1.355c0.521,0.816,0.196,3-1.206,2.757
						c-0.565-0.098-1.051-0.41-1.471-0.782c-0.887-0.786-1.31-2.012-1.575-3.129c-0.142-0.595-0.438-5.567,1.043-4.304
						C778.696,369.308,779.38,368.631,778.907,368.228L778.907,368.228z"/>
				</g>
			</g>
			<g>
				<g>
					<path fill="#110906" d="M778.852,373.601c0.589-0.236,1.141-0.556,1.674-0.899c0.519-0.335,0.037-1.168-0.486-0.83
						c-0.458,0.295-0.937,0.599-1.443,0.802C778.027,372.9,778.275,373.831,778.852,373.601L778.852,373.601z"/>
				</g>
			</g>
			<g>
				<g>
					<path fill="#110906" d="M781.371,365.323c2.029,2.875,4.654,5.305,6.49,8.322c0.321,0.528,1.153,0.046,0.83-0.486
						c-1.836-3.018-4.46-5.446-6.49-8.322C781.847,364.335,781.012,364.814,781.371,365.323L781.371,365.323z"/>
				</g>
			</g>
			<g>
				<g>
					<path fill="#110906" d="M784.636,363.646c2.725,2.428,5.535,4.748,8.427,6.974c0.342,0.264,0.827-0.169,0.707-0.543
						c-1.06-3.302-2.153-6.593-3.287-9.87c-0.201-0.582-1.131-0.332-0.928,0.256c1.134,3.277,2.228,6.568,3.287,9.87
						c0.235-0.181,0.471-0.362,0.707-0.543c-2.827-2.176-5.569-4.451-8.233-6.823C784.854,362.555,784.171,363.232,784.636,363.646
						L784.636,363.646z"/>
				</g>
			</g>
			<g>
				<g>
					<path fill="#110906" d="M785.546,380.187c1.058,1.797,2.115,3.593,3.172,5.39c0.1,0.171,0.348,0.252,0.52,0.137
						c1.074-0.719,2.148-1.438,3.223-2.155c0.406-0.271,0.025-0.93-0.383-0.656c-1.075,0.718-2.149,1.436-3.223,2.155
						c0.173,0.045,0.347,0.091,0.52,0.137c-1.057-1.797-2.114-3.594-3.172-5.39C785.954,379.381,785.297,379.764,785.546,380.187
						L785.546,380.187z"/>
				</g>
			</g>
			<g>
				<g>
					<path fill="#110906" d="M786.728,382.387c0.878-0.075,1.605-0.592,2.278-1.123c0.385-0.304-0.157-0.838-0.537-0.537
						c-0.494,0.39-1.092,0.845-1.741,0.9C786.243,381.668,786.239,382.429,786.728,382.387L786.728,382.387z"/>
				</g>
			</g>
			<g>
				<g>
					<path fill="#110906" d="M785.5,380.221c1.085-0.423,2.07-1.039,3.017-1.711c0.396-0.281,0.018-0.94-0.383-0.656
						c-0.888,0.63-1.817,1.237-2.835,1.635C784.847,379.664,785.043,380.399,785.5,380.221L785.5,380.221z"/>
				</g>
			</g>
			<g>
				<g>
					<path fill="#110906" d="M790.207,376.963c1.551,1.778,3.109,3.621,4.035,5.817c0.188,0.444,0.923,0.249,0.732-0.203
						c-0.979-2.324-2.586-4.267-4.23-6.151C790.422,376.056,789.886,376.596,790.207,376.963L790.207,376.963z"/>
				</g>
			</g>
			<g>
				<g>
					<path fill="#110906" d="M794.067,373.587c1.606,2.019,3.062,4.158,4.751,6.111c0.321,0.372,0.856-0.168,0.537-0.537
						c-1.688-1.953-3.144-4.093-4.751-6.111C794.3,372.666,793.766,373.208,794.067,373.587L794.067,373.587z"/>
				</g>
			</g>
			<g>
				<g>
					<path fill="#110906" d="M790.313,376.922c3.032,0.348,5.758,1.927,8.636,2.83c0.469,0.147,0.668-0.586,0.201-0.732
						c-2.954-0.929-5.724-2.501-8.837-2.857C789.827,376.106,789.832,376.867,790.313,376.922L790.313,376.922z"/>
				</g>
			</g>
			<g>
				<g>
					<path fill="#110906" d="M782.072,397.501c-0.613,0.619-1.746,1.645-1.451,2.65c0.229,0.782,1.339,0.877,1.996,0.953
						c1.051,0.122,2.137,0.083,3.153,0.41c0.42,0.136,0.729,0.391,0.73,0.853c0.001,0.351-0.188,0.71-0.344,1.011
						c-0.267,0.517-0.935,1.268-1.612,1.174c-0.463-0.064-0.838-0.616-1.098-0.952c-0.299-0.388-0.833,0.154-0.537,0.537
						c0.616,0.798,1.354,1.412,2.397,1.079c0.903-0.288,1.537-1.365,1.835-2.207c0.375-1.058-0.187-1.866-1.17-2.227
						c-1.091-0.4-2.351-0.321-3.49-0.453c-0.304-0.035-1.043-0.087-1.15-0.453c-0.166-0.568,0.956-1.514,1.277-1.838
						C782.955,397.689,782.417,397.152,782.072,397.501L782.072,397.501z"/>
				</g>
			</g>
			<g>
				<g>
					<path fill="#110906" d="M785.139,395.893c1.54,1.87,3.515,3.498,4.541,5.733c0.204,0.445,0.859,0.059,0.656-0.383
						c-1.054-2.295-3.08-3.97-4.66-5.888C785.364,394.977,784.829,395.518,785.139,395.893L785.139,395.893z"/>
				</g>
			</g>
			<g>
				<g>
					<path fill="#110906" d="M788.127,394.048c0.315,1.695-0.021,3.39-0.148,5.086c-0.037,0.489,0.724,0.485,0.76,0
						c0.134-1.775,0.452-3.515,0.121-5.289C788.77,393.363,788.037,393.568,788.127,394.048L788.127,394.048z"/>
				</g>
			</g>
			<g>
				<g>
					<path fill="#110906" d="M788.409,397.412c1.885,0.811,3.995,1.146,6.041,1.106c0.489-0.009,0.49-0.77,0-0.76
						c-1.904,0.036-3.898-0.246-5.658-1.003C788.348,396.564,787.96,397.219,788.409,397.412L788.409,397.412z"/>
				</g>
			</g>
			<g>
				<g>
					<path fill="#110906" d="M795.893,397.255c-0.86-2.696-1.711-5.396-2.549-8.102c-0.186,0.144-0.372,0.287-0.558,0.43
						c2.473,1.504,4.915,3.053,7.33,4.648c0.41,0.271,0.79-0.388,0.383-0.656c-2.414-1.596-4.856-3.146-7.33-4.648
						c-0.28-0.171-0.657,0.11-0.558,0.43c0.838,2.704,1.688,5.404,2.549,8.102C795.309,397.923,796.042,397.724,795.893,397.255
						L795.893,397.255z"/>
				</g>
			</g>
			<g>
				<g>
					<path fill="#110906" d="M800.109,394.159c1.239-0.431,2.194-1.369,3.201-2.172c0.384-0.305-0.158-0.84-0.537-0.537
						c-0.897,0.715-1.763,1.592-2.867,1.977C799.447,393.587,799.645,394.321,800.109,394.159L800.109,394.159z"/>
				</g>
			</g>
			<g>
				<g>
					<path fill="#110906" d="M794.856,393.529c2.233-1.491,4.454-3,6.658-4.532c0.4-0.277,0.021-0.937-0.383-0.656
						c-2.205,1.532-4.426,3.041-6.658,4.532C794.067,393.144,794.448,393.803,794.856,393.529L794.856,393.529z"/>
				</g>
			</g>
			<g>
				<g>
					<path fill="#110906" d="M792.658,389.576c1.787-0.5,3.27-1.649,4.909-2.473c0.438-0.22,0.054-0.876-0.383-0.656
						c-1.579,0.793-3.009,1.914-4.728,2.396C791.985,388.976,792.186,389.709,792.658,389.576L792.658,389.576z"/>
				</g>
			</g>
			<g>
				<g>
					<path fill="#110906" d="M799.872,384.078c1.882,1.82,3.565,3.806,5.048,5.964c0.275,0.401,0.935,0.022,0.656-0.383
						c-1.518-2.212-3.238-4.253-5.167-6.118C800.057,383.2,799.519,383.737,799.872,384.078L799.872,384.078z"/>
				</g>
			</g>
			<g>
				<g>
					<path fill="#110906" d="M800.655,384.175c0.541-0.752,1.217-1.25,2.16-1.327c0.998-0.081,1.514,0.422,2.015,1.21
						c1.02,1.608-0.817,2.499-2.096,2.939c-0.461,0.158-0.264,0.893,0.201,0.732c1.877-0.646,3.739-1.908,2.551-4.055
						c-0.268-0.482-0.669-0.899-1.054-1.286c-0.325-0.328-1.183-0.303-1.617-0.301c-1.206,0.004-2.147,0.773-2.816,1.704
						C799.712,384.19,800.372,384.569,800.655,384.175L800.655,384.175z"/>
				</g>
			</g>
			<g>
				<g>
					<path fill="#110906" d="M804.409,386.671c1.201,0.046,2.364,0.404,3.426,0.959c0.434,0.227,0.817-0.43,0.383-0.656
						c-1.182-0.618-2.471-1.012-3.809-1.062C803.919,385.893,803.921,386.652,804.409,386.671L804.409,386.671z"/>
				</g>
			</g>
			<g>
				<g>
					<path fill="#110906" d="M804.425,380.517c2.316,1.336,4.634,2.671,6.951,4.006c0.27,0.155,0.68-0.104,0.558-0.43
						c-1.012-2.711-1.861-5.468-2.554-8.277c-0.117-0.477-0.85-0.274-0.732,0.201c0.692,2.811,1.542,5.567,2.554,8.279
						c0.186-0.144,0.372-0.287,0.558-0.43c-2.316-1.336-4.634-2.67-6.951-4.006C804.383,379.615,804,380.272,804.425,380.517
						L804.425,380.517z"/>
				</g>
			</g>
		</g>
	</g>
</g>
<g>
</g>
<g>
</g>
<g>
</g>
<g>
</g>
<g>
</g>
<g>
</g>
</svg>
