<?xml version="1.0" encoding="utf-8"?>
<!-- Generator: Adobe Illustrator 16.0.4, SVG Export Plug-In . SVG Version: 6.00 Build 0)  -->
<!DOCTYPE svg PUBLIC "-//W3C//DTD SVG 1.1//EN" "http://www.w3.org/Graphics/SVG/1.1/DTD/svg11.dtd">
<svg version="1.1" id="Layer_1" xmlns="http://www.w3.org/2000/svg" xmlns:xlink="http://www.w3.org/1999/xlink" x="0px" y="0px"
	 width="789.965px" height="789.966px" viewBox="0 0 789.965 789.966" enable-background="new 0 0 789.965 789.966"
	 xml:space="preserve">
<g>
	<path fill="#110906" d="M293.255,356.554c13.754,12.354,3.586,52.992,24.708,59.441c19.89,6.072,11.647-11.38,8.64-21.156
		c-5.698-18.52-17.159-30.019-26.111-46.772c22.732,17.421,35.31,45.426,59.729,60.722c11.326,7.097,25.562,10.312,37.699,2.982
		c16.648-10.056,12.361-28.858,6.704-44.23c-3.586-9.747-8.26-19.082-13.775-27.874c-3.802-6.059-2.907-10.109-5.998-14.986
		c-10.108-15.934-54.683-48.405-35.042-18.54c8.424,12.808-80.27-42.918-83.3-14.312
		C265.946,297.141,258.678,325.491,293.255,356.554z M333.825,362.801c-2.135-11.19-10.17-19.848-19.922-27.133
		c-11.272-8.422-26.244-10.621-26.244-10.621c-7.965-16.592,3.719-17.746,14.021-13.623c14.138,5.658,28.504,12.856,41.989,19.938
		c11.695,6.142,22.699,13.194,30.623,24.007c4.479,6.112,15.486,22.813,12.731,30.632
		C380.518,404.448,336.308,375.814,333.825,362.801C333.606,361.653,334.188,364.702,333.825,362.801z"/>
	<polygon fill="#C3E5F6" points="277.565,329.962 254.111,326.182 247.97,331.793 306.652,394.185 328.255,379.923 	"/>
	<path fill="#FFFFFF" d="M323.356,269.641c0,0,4.026,17.431-6.377,15.802c-15.063-2.356-26.785-14.12-35.184-10.601
		c-2.975,1.249-14.241,6.506-15.234,10.504c-1.309,5.262-0.221,10.35-0.221,10.35l3.521,6.097c0,0-1.707-10.78-0.874-10.78
		c0.805,0,0.492,6.521,0.355,7.08c-0.006,0.025,1.253,8.653,1.253,9.771c0,1.227,3.517-1.198,3.399-2.87
		c-0.183-2.607-1.547-6.652-1.547-6.652l3.054-6.31l-1.019,8.142l4.77,9.665c0,0,2.543-1.767,2.543-3.194s-3.851-7.488-3.851-7.488
		l3.851-7.531c0,0,5.414-6.215,5.919-2.811c1.018,6.883-4.871,8.501-4.871,8.501s-1.323,2.517,1.41,3.876
		c0,0,2.088-1.524,6.106-3.663c4.207-2.24,5.482-7.507,5.482-7.507s14.943,8.931,23.545,11.779
		c8.603,2.851,15.622-14.201,16.771-21.864C337.308,272.275,323.356,269.641,323.356,269.641z"/>
	<polygon fill="#C3E5F6" points="368.352,352.993 328.255,379.923 277.565,329.962 310.706,303.369 	"/>
	<polygon fill="#0DA2DD" points="322.357,377.951 310.508,385.803 258.612,329.962 277.565,332.439 	"/>
	<polygon fill="#110906" points="304.564,340.003 336.226,366.106 358.593,353.383 316.41,319.162 301.07,329.962 310.706,335.835 	
		"/>
	<polygon fill="#110906" points="307.635,313.241 311.585,317.627 297.106,328.594 303.247,335.177 297.106,340.003 
		284.384,328.594 	"/>
	<polygon fill="#110906" points="301.07,340.003 296.888,342.635 328.255,371.151 332.055,367.867 	"/>
	<path fill="#82CFF5" d="M386.424,328.272c-1.091,7.744-32.142,2.86-47.785-16.15c-15.849-19.263-18.28-43.35-15.03-63.592
		c2.509-15.617,13.384-39.114,57.411-14.216c8.457,4.782,26.08,22.661,26.073,35.326c-0.002,6.489-12.672,9.397-13.493,10.783
		C392.008,283.11,386.424,328.272,386.424,328.272z"/>
	<path fill="#110906" d="M383.417,200.957c0,0-3.998,14.852,9.419,17.754c13.421,2.903,12.095-0.293,12.095-0.293
		s-4.101,13.32-13.142,13.181c-9.042-0.136-9.104-5.699-9.104-5.699s0.992,11.118,4.553,11.358
		c3.56,0.241-12.611,8.551-17.247,1.405c-4.637-7.143-2.608-34.014-1.818-34.269C368.962,204.137,383.417,200.957,383.417,200.957"
		/>
	<path fill="#FFFFFF" d="M381.126,150.593c-9.222-8.547-22.936-16.046-35.842-13.099c-12.03,2.747-16.978,17.78-20.756,27.842
		c-2.657,7.059-5.885,13.747-9.306,20.471c-0.945,1.854-1.93,3.817-2.861,5.852c-1.649,2.071-3.233,4.202-4.66,6.48
		c-3.234,5.157-5.762,10.298-5.667,16.48c0.113,7.101,7.053,12.093,12.878,14.523c6.055,2.525,17.911,2.634,24.31,3.455
		c0,0-6.484,15.816,12.858,11.398c17.751-9.282,14.386-13.186,12.088-15.979c4.681-3.679,11.818-6.653,12.956-6.187
		c6.041,2.476,7.447-10.724,10.514-16.485c3.13-5.884,5.511-12.446,6.037-19.056c0.275-0.714,0.554-1.429,0.795-2.159
		C398.833,170.862,390.429,159.218,381.126,150.593z"/>
	<path fill="#110906" d="M366.341,154.065c-0.902-0.072-4.227,14.955,1.734,28.703c5.965,13.749,7.136,24.139,1,34.489
		c-0.321,0.543,12.146-3.975,17.132-15.663c0.525-1.229-0.985,11.014-4.926,13.866c-3.942,2.853,23.406,9.123,25.04-22.963
		c1.635-32.088-9.906-34.187-9.906-34.187s9.24-1.994,14.716,12.169c0,0,0.2-15.788-12.103-21.969
		c-25.153-12.64-30.983-5.438-30.983-5.438"/>
	<path fill="#FFFFFF" d="M385.27,206.768c1.422-0.162,2.908-0.117,4.435,0.189c1.141,0.229,2.237,0.704,3.202,1.35
		c2.795,1.257,4.449,3.811,3.218,7.404c-0.992,2.885-3.383,4.749-6.365,5.635c-0.982,0.474-2.037,0.871-3.188,1.184
		c-3.317,0.901-7.562,1.775-11.152,0.046c-1.132-0.546-1.632-1.422-1.681-2.263c-1.138-0.637-2.056-1.561-2.347-2.58
		C377.112,215.346,381.235,211.087,385.27,206.768z"/>
	<path fill="none" stroke="#1E1E1C" stroke-miterlimit="10" d="M327.68,177.331c-0.585,2.397-2.047,4.097-3.266,3.799
		c-1.217-0.299-1.727-2.483-1.139-4.881c0.589-2.397,2.054-4.096,3.27-3.799C327.761,172.751,328.272,174.936,327.68,177.331z"/>
	<path fill="none" stroke="#1E1E1C" stroke-miterlimit="10" d="M350.594,188.913c-0.585,2.397-2.047,4.097-3.266,3.799
		c-1.217-0.299-1.727-2.483-1.139-4.881c0.589-2.397,2.054-4.096,3.27-3.799C350.675,184.333,351.187,186.518,350.594,188.913z"/>
	<path fill="none" stroke="#1E1E1C" stroke-width="2.0102" stroke-miterlimit="10" d="M345.212,183.637
		c0,0-9.901,10.352-4.296,14.469c5.61,4.115,15.96,12.92,19.741,8.105c3.776-4.812,8.938-9.195,2.016-14.653
		C355.758,186.099,348.349,181.056,345.212,183.637z"/>
	<path fill="none" stroke="#1E1E1C" stroke-width="2.0102" stroke-miterlimit="10" d="M336.421,180.061
		c0,0-4.482,12.912-9.407,11.329c-4.927-1.586-13.963-6.623-11.452-12.098c2.512-5.472,1.628-9.449,7.993-7.716
		C329.922,173.311,337.417,176.339,336.421,180.061z"/>
	<g>
		<path fill="#FFFFFF" d="M339.853,183.702c0.021,0.322-13.766,6.901-22.598,10.281c1.859,2.989,8.205,9.176,11.254,10.477"/>
		<g>
			<path fill="#1E1E1C" d="M339.418,183.449c-0.227,0.376-1.797,0.935-2.289,1.181c-1.82,0.912-3.664,1.775-5.51,2.632
				c-4.77,2.216-9.591,4.343-14.499,6.237c-0.286,0.11-0.492,0.444-0.3,0.738c2.642,4.055,6.998,8.587,11.435,10.657
				c0.583,0.272,1.094-0.594,0.507-0.868c-4.246-1.981-8.536-6.4-11.073-10.296c-0.1,0.246-0.2,0.492-0.3,0.738
				c4.99-1.925,9.885-4.094,14.739-6.338c1.974-0.912,3.938-1.845,5.882-2.818c0.632-0.317,1.882-0.702,2.277-1.356
				C340.623,183.399,339.753,182.895,339.418,183.449L339.418,183.449z"/>
		</g>
	</g>
	<g>
		<g>
			<path fill="#1E1E1C" d="M389.547,210.773c-2.213,0.004-5.858,0.032-7.616,1.627c-2.137,1.938,2.211,3.438,3.443,3.876
				c-0.117-0.206-0.234-0.412-0.351-0.618c-0.774,1.852-5.114,1.535-6.737,2.271c-2.406,1.091,0.744,3.557,1.698,4.284
				c0.516,0.393,1.015-0.48,0.507-0.868c-0.651-0.497-3.04-2.053-1.41-2.666c0.9-0.339,1.912-0.433,2.853-0.602
				c1.493-0.268,3.406-0.59,4.059-2.152c0.111-0.266-0.119-0.536-0.351-0.618c-1.035-0.368-2.505-0.75-3.222-1.685
				c-0.423-0.552,1.65-1.131,1.908-1.206c1.676-0.491,3.479-0.635,5.219-0.639C390.195,211.777,390.195,210.771,389.547,210.773
				L389.547,210.773z"/>
		</g>
	</g>
	<g>
		<g>
			<path fill="#1E1E1C" d="M337.3,181.551c1.809-1.829,5.123,1.487,5.65,3.176c0.385,1.233,2.326,0.707,1.938-0.534
				c-0.989-3.167-5.988-7.12-9.01-4.064C334.966,181.051,336.387,182.473,337.3,181.551L337.3,181.551z"/>
		</g>
	</g>
	<path fill="#110906" d="M377.133,167.367c-1.579-0.673-18.421-20.906-39.669-3.873c-21.483,17.219-30.345,8.492-30.345,8.492
		s10.623,2.047,16.453-13.797c6.609-17.973,27.995-43.049,46.909-18.203C389.397,164.833,377.133,167.367,377.133,167.367z"/>
	<g>
		<g>
			<path fill="#110906" d="M365.797,184.273c-5.681-3.216-9.521-6.922-11.23-13.472c-0.161-0.616-1.113-0.354-0.952,0.263
				c1.77,6.784,5.773,10.715,11.684,14.062C365.854,185.439,366.351,184.586,365.797,184.273L365.797,184.273z"/>
		</g>
	</g>
	<g>
		<g>
			<path fill="#110906" d="M339.009,165.713c-4.493,1.226-8.433,1.257-12.996,0.549c-0.566-0.088-0.809,0.777-0.238,0.865
				c4.717,0.732,8.828,0.719,13.473-0.549C339.805,166.426,339.568,165.56,339.009,165.713L339.009,165.713z"/>
		</g>
	</g>
	<path fill="none" stroke="#1E1E1C" stroke-width="2.0102" stroke-miterlimit="10" d="M365.419,197.144
		c1.297,0.552,15.211,2.657,15.211,2.657"/>
	<g>
		<g>
			<path fill="#110906" d="M319.209,206.532c2.119,1.501,3.873,3.483,5.992,4.986c0.521,0.369,1.013-0.487,0.498-0.853
				c-2.118-1.502-3.872-3.485-5.992-4.986C319.187,205.311,318.694,206.167,319.209,206.532L319.209,206.532z"/>
		</g>
	</g>
	<path fill="#FFFFFF" d="M407.224,267.09c-8.176,11.627-23.801,14.897-23.801,14.897c6.541,6.904,25.394,21.122,21.264,32.347
		c-3.456,9.388-35.002,20.686-35.002,20.686s-9.39,0.494-16.865-4.389c-7.477-4.883-11.445-7.9-11.445-7.9l-3.145,2.271
		c0,0,3.716,4.738,7.064,7.255c3.348,2.52-14.148-2.77-14.148-2.77s-17.423,2.289-15.835,5.151c1.587,2.861,5.966,0.954,5.966,0.954
		l8.344-1.526c0,0,8.875,1.996,5.914,3.244c-2.195,0.925-6.053,1.279-10.494,2.288c-4.505,1.024-9.972,3.365-12.021,4.197
		c-0.982,0.401,0,4.389,0.766,4.389c1.505,0.001,8.953-4.346,12.974-4.769c4.988-0.528,8.967-0.191,8.967-0.191l-7.517,3.34
		c-0.381,0.091-0.749,0.233-1.093,0.419l-11.232,6.543l2.67,2.48l10.531-4.636l8.577-2.402c0,0,1.978,1.229,0.57,2.269
		c-1.597,1.177-11.45,5.072-14.427,8.125c-0.853,0.876,2.032,1.73,2.189,1.604c1.006-0.802,4.496-2.039,8.776-3.242
		c10.323-2.905,25.755-6.105,25.755-6.105l10.507-4.919c0,0,33.757-6.911,51.524-24.396
		C434.915,310.142,416.829,287.84,407.224,267.09z"/>
</g>
<g>
</g>
<g>
</g>
<g>
</g>
<g>
</g>
<g>
</g>
<g>
</g>
</svg>
