<?xml version="1.0" encoding="utf-8"?>
<!-- Generator: Adobe Illustrator 16.0.4, SVG Export Plug-In . SVG Version: 6.00 Build 0)  -->
<!DOCTYPE svg PUBLIC "-//W3C//DTD SVG 1.1//EN" "http://www.w3.org/Graphics/SVG/1.1/DTD/svg11.dtd">
<svg version="1.1" id="Layer_1" xmlns="http://www.w3.org/2000/svg" xmlns:xlink="http://www.w3.org/1999/xlink" x="0px" y="0px"
	 width="789.965px" height="789.966px" viewBox="0 0 789.965 789.966" enable-background="new 0 0 789.965 789.966"
	 xml:space="preserve">
<path fill="#FFFFFF" d="M112.561,164.485c0,0,40.661,23.004,64.045,13.073c18.356-7.797,27.72-47.127,27.72-47.127
	s-15.831-3.479-15.07-3.595c0.763-0.116-7.214,21.575-16.857,37.06c-5.104,8.197-34.473-10.627-34.473-10.627"/>
<polygon fill="#1E1E1C" points="220.499,104.707 188.321,110.336 188.572,105.27 220.989,101.858 "/>
<g>
	<polyline fill="#FFFFFF" points="224.832,89.331 260.51,91.102 246.803,141.957 214.613,154.22 	"/>
</g>
<path fill="#FFFFFF" d="M192.429,126.424c0,0-2.284-13.762,4.686-20.707c6.968-6.944,16.734-5.225,16.734-5.225
	s3.158,0.952-0.67,3.114c-3.829,2.163,1.574-0.958,0.806,2.458c-0.769,3.417-10.388,8.042-10.388,8.042s0.926,6.464,0.668,10.94
	C203.991,129.821,195.65,127.796,192.429,126.424z"/>
<g>
	<path fill="#FFFFFF" d="M123.712,136.796c-4.559,3.418-9.559,7.77-10.894,13.59c-9.633,41.996,67.478,135.63,67.478,135.63
		c8.061-1.498,58.331,5.135,68.039-25.011C189.066,163.928,123.869,137.973,123.712,136.796z"/>
</g>
<g>
	<path fill="#0DA2DD" d="M150.257,134.992c-3.842-3.357-8.434-5.031-12.714-4.828c-4.93,0.044-10.626,2.277-15.646,6.039
		c0.156,1.177,6.356,3.896,6.356,3.896c24.683,15.597,26.159,17.083,38.766,26.197c1.304-0.945,3.969-1.088,5.148-1.969
		c-4.798-7.827-19.229-25.415-25.352-31.892C146.496,132.167,150.574,135.27,150.257,134.992z"/>
</g>
<g>
	<path fill="#FFFFFF" d="M252.299,205.094c-3.059-0.117-93.826-63.927-104.271-72.669c6.123,6.477,85.49,117.34,102.352,126.537
		C274.903,264.582,259.19,205.357,252.299,205.094z"/>
</g>
<path fill="#FFFFFF" d="M151.644,91.006c-0.723,0.76-7.292,6.78-3.526,6.951c0.505,0.022,0.599-0.758,0.093-0.78
	c-1.242-0.056,0.951-2.399,1.162-2.639c0.595-0.675,1.22-1.323,1.846-1.97c-1.061,4.812-2.634,10.215-7.303,12.494
	c-0.94-2.32-0.387-5.027,0.346-7.331c0.434-1.365,1.66-5.207,3.441-5.383c0.504-0.05,0.383-0.826-0.119-0.776
	c-1.967,0.194-3.156,3.514-3.746,5.008c-1.102,2.787-1.864,6.37-0.489,9.188c0.095,0.193,0.316,0.286,0.519,0.198
	c5.691-2.485,7.246-9.094,8.415-14.609C152.349,91.036,151.878,90.759,151.644,91.006z"/>
<path fill="#FFFFFF" d="M176.31,75.446c-2.895-7.329-9.053-12.779-16.528-15.115c-8.408-2.627-18.106-3.562-26.731-1.527
	c-8.854,2.089-15.727,7.587-19.888,15.64c-3.789,7.333-5.152,16.911-3.061,24.928c1.819,6.976,12.151,13.766,16.152,19.684
	c1.11,6.068,4.147,4.744-1.087,15.265c2.193,0.838,11.384,7.376,18.043,8.069c2.146-0.522-7.46-6.072-5.436-7.123
	c0.527-0.791,4.728-6.603,9.239-7.134c8.118-0.956,9.842,1.559,19.274-4.37c6.595-4.144,10.834-17.455,12.016-25.137
	C179.489,90.916,179.199,82.76,176.31,75.446z"/>
<path fill="none" stroke="#1E1E1C" stroke-width="1.0713" stroke-miterlimit="10" d="M20.285,278.048"/>
<g>
	<path fill="#1E1E1C" d="M139.602,53.457c5.893,2.194,10.378,9.173,9.634,16.429c-1.098,8.979-7.78,16.429-13.577,21.601
		c-4.198,3.499-12.373,9.272-11.875,16.578c0.346,4.947,7.41,10.773,11.409,7.303c-10.527,13.276-31.424,7.184-39.178-8.535
		c-10.382-20.797,12.281-43.546,26.075-51.606c5.477-3.219,10.837-4.514,16.93-2.349"/>
</g>
<g>
	<g>
		<path fill="#1E1E1C" d="M153.528,110.069c1.789,0.493,3.398,0.824,5.025-0.206c1.002-0.634,0.944-0.461,1.692,0.335
			c1.042,1.11,2.409,1.874,3.138,3.258c0.148-0.192,0.296-0.385,0.444-0.577c-3.48-0.66-7.863-0.833-10.403-3.63
			c-0.159,0.206-0.317,0.412-0.476,0.617c2.224,1.499,1.595,5.393,4.634,6.054c1.87,0.407,4.483-1.251,3.102-3.209
			c-0.29-0.411-0.971-0.019-0.679,0.396c1.448,2.052-2.498,2.335-3.471,1.393c-0.688-0.666-1.031-1.842-1.382-2.693
			c-0.422-1.023-0.87-1.987-1.808-2.62c-0.386-0.26-0.764,0.3-0.476,0.617c2.654,2.922,7.119,3.144,10.75,3.833
			c0.339,0.064,0.612-0.258,0.444-0.577c-0.948-1.801-2.989-2.633-3.993-4.371c-0.086-0.149-0.276-0.231-0.444-0.181
			c-0.621,0.188-1.142,0.471-1.688,0.816c-1.304,0.825-2.816,0.368-4.199-0.014C153.248,109.177,153.041,109.935,153.528,110.069
			L153.528,110.069z"/>
	</g>
</g>
<g>
	<g>
		<path fill="#1E1E1C" d="M151.08,79.662c-6.786,1.768-10.394,10.161-9.729,16.692c0.739,7.265,7.438,9.937,13.896,8.27
			c6.207-1.602,12.668-7.45,11.663-14.4c-1.161-8.015-8.039-13.104-15.989-10.464c-1.071,0.355-0.612,2.055,0.468,1.696
			c6.787-2.253,12.52,1.774,13.736,8.627c1.133,6.38-4.88,11.229-10.346,12.845c-5.682,1.68-11.097-0.953-11.724-7.111
			c-0.565-5.554,2.806-12.977,8.492-14.458C152.645,81.072,152.179,79.375,151.08,79.662L151.08,79.662z"/>
	</g>
</g>
<g>
	<g>
		<path fill="#1E1E1C" d="M176.285,90.766c-4.194,4.004-6.998,9.538-4.891,15.383c1.64,4.549,6.515,3.372,9.494,1.032
			c4.085-3.208,6.239-8.716,5.091-13.906c-1.101-4.979-5.999-4.179-9.672-2.554c-0.905,0.401-0.122,1.726,0.776,1.328
			c1.518-0.672,3.078-1.188,4.755-1.131c2.537,0.084,2.749,2.879,2.751,4.807c0.006,3.832-1.067,7.013-3.912,9.606
			c-2.805,2.558-6.896,3.937-8.175-0.786c-1.338-4.94,1.46-9.437,4.87-12.691C178.091,91.167,177.002,90.082,176.285,90.766
			L176.285,90.766z"/>
	</g>
</g>
<g>
	<path fill="#1E1E1C" d="M136.023,54.277c5.743,5.384,10.057,11.657,18.173,13.548c9.713,2.095,19.244,1.532,23.25,11.654
		c10.902-10.611-8.223-28.933-19.247-30.827c-7.579-1.302-30.841-1.326-25.142,12.563c3.237,8.004,13.138,6.938,19.812,5.247"/>
</g>
<g>
	<g>
		<path fill="#1E1E1C" d="M165.862,93.073c1.131,0.186,2.276,0.293,3.393,0.556c1.402,0.33,2.393,1.244,3.279,2.333
			c0.659,0.809,1.795-0.342,1.144-1.144c-0.854-1.049-1.847-1.985-3.133-2.47c-1.36-0.514-2.828-0.602-4.253-0.835
			C165.272,91.346,164.835,92.904,165.862,93.073L165.862,93.073z"/>
	</g>
</g>
<g>
	<path fill="#FFFFFE" d="M169.156,96.947c-0.41,6.102,1.671,7.065,5.077,8.525c-2.4,1.807-3.912,1.988-6.959,2.247
		c-1.439,0.015-6.482-0.655-4.748-2.773"/>
	<g>
		<path fill="#1E1E1C" d="M168.764,96.947c-0.107,2.082-0.093,4.225,1.047,6.043c0.92,1.467,2.712,2.169,4.225,2.821
			c0-0.226,0-0.453,0-0.679c-2.132,1.532-4.18,1.967-6.761,2.194c-0.78,0.068-5.575-0.445-4.409-2.183
			c0.283-0.422-0.398-0.814-0.679-0.396c-1.425,2.123,1.625,2.913,3.172,3.188c3.18,0.566,6.477-0.259,9.073-2.124
			c0.209-0.151,0.298-0.55,0-0.679c-1.256-0.541-2.513-1.068-3.516-2.024c-1.596-1.521-1.47-4.158-1.367-6.162
			C169.575,96.441,168.79,96.443,168.764,96.947L168.764,96.947z"/>
	</g>
</g>
<path fill="#0DA2DD" d="M231.244,96.996l4.317-12.774h16.861l-4.599,11.752C247.824,95.974,230.212,96.238,231.244,96.996z"/>
<g>
	<g>
		<path fill="#1E1E1C" d="M154.678,90.819c1.292,0.679,2.408,1.697,3.482,2.669c0.578,0.524,1.137,1.069,1.677,1.632
			c0.183,0.19,0.358,0.387,0.531,0.587c0.068,0.079,0.133,0.16,0.194,0.243c0.325,0.437-0.305-0.217,0.399-0.369
			c-0.63,0.136-0.363,1.1,0.266,0.964c1.368-0.295-0.921-2.381-1.183-2.644c-1.434-1.442-3.046-2.992-4.861-3.946
			C154.613,89.656,154.107,90.519,154.678,90.819L154.678,90.819z"/>
	</g>
</g>
<g>
	<g>
		<path fill="#1E1E1C" d="M176.018,99.646c1.082-0.06,2.205-0.507,3.226-0.835c0.793-0.254,2.104-0.505,2.641-1.213
			c0.39-0.515-0.479-1.012-0.863-0.505c-0.011,0.015-0.627,0.255-0.812,0.327c-0.55,0.211-1.112,0.392-1.674,0.568
			c-0.788,0.248-1.685,0.613-2.517,0.659C175.376,98.682,175.373,99.682,176.018,99.646L176.018,99.646z"/>
	</g>
</g>
<g>
</g>
<g>
</g>
<g>
</g>
<g>
</g>
<g>
</g>
<g>
</g>
</svg>
