<?xml version="1.0" encoding="utf-8"?>
<!-- Generator: Adobe Illustrator 16.0.4, SVG Export Plug-In . SVG Version: 6.00 Build 0)  -->
<!DOCTYPE svg PUBLIC "-//W3C//DTD SVG 1.1//EN" "http://www.w3.org/Graphics/SVG/1.1/DTD/svg11.dtd">
<svg version="1.1" id="Layer_1" xmlns="http://www.w3.org/2000/svg" xmlns:xlink="http://www.w3.org/1999/xlink" x="0px" y="0px"
	 width="789.965px" height="789.966px" viewBox="0 0 789.965 789.966" enable-background="new 0 0 789.965 789.966"
	 xml:space="preserve">
<path fill="#FFFFFF" d="M45.469,201.26c-0.468,0.612-0.928,1.233-1.375,1.873c-1.448,2.073-12.903,20.589-13.928,22.566
	c13.688,2.805,17.78,13.045,29.215,21.124c3.908,1.973,79.914,119.471,83.465,122.087c2.075-2.203,41.794-17.984,31.474-52.719
	c-11.594-39.02-65.119-96.11-69.84-100.832C85.656,210.059,65.58,203.517,45.469,201.26z"/>
<path fill="#0DA2DD" d="M93.616,182.325c-17.209-3.982-35.976,2.952-48.147,18.935c28.397,2.635,47.662,11.121,59.314,14.402
	c0.354-0.479-0.846-1.194-0.508-1.668c-1.729-10.897,0.038-23.414-7.973-31.495C96.08,182.312,93.842,182.509,93.616,182.325z"/>
<path fill="#FFFFFF" d="M96.637,182.889c8.011,8.081,6.417,21.725,8.146,32.622c1.069-1.504,39.03,79.838,71.109,92.812
	s35.837-10.917,36.677-13.084c-2.479-4.505-93.161-102.621-101.937-105.855C104.803,187.234,99.354,185.16,96.637,182.889z"/>
<path fill="#FFFFFF" d="M83.877,195.872c2.295-3.084,5.318-6.646,7.653-10.477c0.554-1.145,1.069-2.302,1.51-3.478
	c0.415-1.096,1.415-3.396,1.954-5.5c0.147-1.237,0.155-2.484-0.055-3.736c-0.016-0.093-0.008-0.174-0.018-0.264
	c-10.52-11.202-5.503-26.076-3.244-40.27c-0.079-2.479-0.511-4.979-1.035-7.398c-1.337-6.118-4.139-12.562-9.147-16.56
	c-9.642-7.694-32.981-5.748-42.723,6.598c-3.803,4.819-6.57,4.893-7.767,23.511c-0.438,2.879,4.619,33.489,4.328,34.191
	c1.526,10.555,11.424,24.236,14.103,24.683c13.861,2.312,20.908,2.779,29.921,1.563c0.222-0.029-1.586,6.158-1.365,6.123
	c2.533-1.388,0.945-0.035,2.867-2.193c0.947-1.064,1.808-2.192,2.63-3.345C82.962,198.332,82.961,197.106,83.877,195.872z"/>
<path fill="none" stroke="#1E1E1C" stroke-width="1.0713" stroke-miterlimit="10" d="M20.285,278.048"/>
<g>
	<g>
		<path fill="#FFFFFF" d="M76.331,179.858c1.111,0.312,2.541-0.104,3.642-0.253c1.677-0.227,3.348-0.504,5.027-0.714
			c-0.151-1.119-0.303-2.239-0.455-3.358c-2.13,0.496-4.292,0.64-6.46,0.303c-2.156-0.335-3.083,2.959-0.909,3.297
			c2.802,0.435,5.515,0.34,8.278-0.303c1.849-0.43,1.476-3.6-0.455-3.358c-1.479,0.185-2.953,0.411-4.429,0.624
			c-0.791,0.114-1.581,0.226-2.374,0.322c-0.255,0.031-0.511,0.056-0.768,0.08c-0.258,0.024-0.775-0.101-0.19,0.063
			C75.113,175.963,74.211,179.262,76.331,179.858L76.331,179.858z"/>
	</g>
</g>
<g>
	<path fill="#1E1E1C" d="M72.593,169.832c-3.951,3.559-6.44,12.667-5.329,17.661c1.105-0.706,2.044-2.08,2.494-3.404
		c-0.75,4.107-2.456,7.529-0.055,11.702c2.454,4.659,3.876,0.38,4.004-3.073c-2.123,6.022,2.547,12.119,8.283,13.387
		c7.244,1.602,6.82-1.499,5.306-7.533c0.304,2.918,0.404,10.485,4.36,9.776c3.955-0.708,5.396-9.52,5.58-12.487
		c4.06,3.115,4.52-4.7,4.383-6.945c-0.154-4.308-2.389-7.812-3.332-12.135c5.349-0.56-4.407-13.006-7.641-11.979"/>
</g>
<g>
	<g>
		<path fill="#1E1E1C" d="M70.708,146.355c-0.227,1.297-0.596,2.706-1.724,3.519c-1.702,1.227-1.954-2.757-1.934-3.424
			c0.042-1.397,0.593-3.136,1.764-3.98c1.866-1.346,1.949,3.298,1.875,4.018c-0.065,0.642,0.936,0.635,1,0
			c0.18-1.771,0.062-4.578-2.057-5.151c-2.179-0.59-3.258,2.966-3.504,4.386c-0.308,1.77-0.062,4.713,2.036,5.284
			c2.178,0.592,3.26-2.968,3.507-4.386C71.783,145.991,70.819,145.721,70.708,146.355z"/>
	</g>
</g>
<g>
	<g>
		<path fill="#1E1E1C" d="M89.816,143.899c-0.327,1.21-0.802,2.431-1.851,3.196c-2.054,1.498-1.844-3.181-1.685-3.987
			c0.237-1.196,0.848-2.467,1.85-3.199C90.183,138.412,89.976,143.093,89.816,143.899c-0.125,0.63,0.839,0.898,0.964,0.266
			c0.361-1.82,0.528-4.626-1.594-5.421c-2.093-0.785-3.503,2.737-3.87,4.099c-0.48,1.78-0.454,4.655,1.593,5.419
			c2.093,0.782,3.502-2.733,3.871-4.097C90.948,143.542,89.983,143.277,89.816,143.899z"/>
	</g>
</g>
<path fill="#1E1E1C" d="M41.555,142.444c-1.039-0.373-1.817-0.343-2.383-0.047c-0.457-1.428-1.535-2.531-3.479-2.778
	c-1.275-0.163-2.213,0.206-2.842,0.865c-0.793-0.843-1.978-1.407-3.129-0.94c-4.265,1.727-2.285,6.824-1.113,10.264
	c-1.125,2.457-0.01,5.859,2.362,7.191c0.171,0.096,0.448,0.102,0.582-0.069c0.755-0.951,1.341-1.962,1.831-3.019
	c0.231,1.768,1.119,3.318,3.098,3.872c1.131,0.314,1.859,0.048,2.313-0.521c0.533,0.69,1.29,1.201,2.314,1.397
	c0.937,0.178,1.58-0.047,2.021-0.497c0.417,0.699,1.06,1.091,2.018,0.823c3.89-1.083,2.892-6.212,2.258-9.088
	C46.724,146.786,44.707,143.579,41.555,142.444z"/>
<path fill="#FFFFFF" d="M40.086,155.667c3.153,5.26,2.895,11.214-0.576,13.291c-3.47,2.081-8.84-0.499-11.996-5.76
	c-3.15-5.262-2.895-11.215,0.576-13.295S36.93,150.401,40.086,155.667z"/>
<g>
	<g>
		<path fill="#1E1E1C" d="M31.639,155.501c2.402-0.184,4.675,3.442,1.11,3.47c-0.58,0.004-0.605,0.749-0.128,0.945
			c1.936,0.794,4.48,2.089,2.58,4.506c-0.379,0.481,0.297,1.167,0.68,0.68c2.383-3.03-0.123-4.931-3.004-6.113
			c-0.042,0.315-0.085,0.63-0.128,0.945c4.827-0.038,2.628-5.679-1.11-5.394C31.024,154.586,31.02,155.549,31.639,155.501
			L31.639,155.501z"/>
	</g>
</g>
<g>
	<g>
		<path fill="#1E1E1C" d="M73.49,132.046c3.521-0.869,7.07-1.607,10.622-2.334c0.607-0.125,0.35-1.052-0.256-0.928
			c-3.552,0.728-7.101,1.465-10.622,2.334C72.633,131.267,72.888,132.194,73.49,132.046L73.49,132.046z"/>
	</g>
</g>
<g>
	<g>
		<path fill="#1E1E1C" d="M76.622,127.688c1.38-0.188,2.759-0.355,4.152-0.405c0.618-0.022,0.621-0.984,0-0.962
			c-1.479,0.053-2.943,0.24-4.408,0.439C75.754,126.844,76.016,127.771,76.622,127.688L76.622,127.688z"/>
	</g>
</g>
<g>
	<g>
		<path fill="#1E1E1C" d="M63.557,153.4c3.474-0.907,6.807-2.263,10.164-3.52c0.598-0.224,0.339-1.19-0.266-0.964
			c-3.357,1.256-6.69,2.612-10.164,3.52C62.667,152.599,62.932,153.563,63.557,153.4L63.557,153.4z"/>
	</g>
</g>
<g>
	<path fill="#FFFFFF" d="M30.259,225.699c0,0-0.211,61.791,35.789,70.791c24.889,6.222,75.885-53.83,77-54
		c1.113-0.171-19.683-22.588-20.839-22.699c-1.158-0.112-24.961,39.984-40.238,42.607c-15.277,2.624-13.104-42.848-13.104-42.848"/>
	<g>
		<path fill="#82CFF5" d="M200.395,152.062l8.074,8.814c0,0-2.203,25.212-32.174,43.857l-11.402-8.939L200.395,152.062z"/>
		<g>
			<path fill="#0E8CCD" d="M201.051,152.628c0.605,0.488,0.75,1.491,0.504,2.881c-4.178,1.228-12.294,8.387-20.243,18.181
				c-7.531,9.275-12.713,18.214-13.531,22.819c-0.974,0.288-1.741,0.093-2.233-0.306c-2.607-2.121,3.229-13.47,13.029-25.542
				C188.381,158.581,198.443,150.511,201.051,152.628z"/>
			<path fill="#FFFFFF" d="M181.312,173.689c7.949-9.794,16.065-16.953,20.243-18.181c-0.816,4.606-6,13.541-13.53,22.821
				c-7.947,9.787-16.068,16.946-20.244,18.179C168.599,191.903,173.78,182.965,181.312,173.689z"/>
		</g>
		<path fill="#82CFF5" d="M167.748,198.2c0,0-34.232,26.689-22.297,34.387s27.742-34.353,27.742-34.353L167.748,198.2z"/>
	</g>
	<path fill="#FFFFFF" d="M143.714,223.146c2.56-2.561,2.049-7.679,2.815-11.006c0.768-3.328,10.398-0.149,12.798-6.655
		c3.61-9.787-3.071-10.495-3.071-10.495s0,3.328-5.886,7.424c-5.887,4.096-13.055,2.559-16.894,8.446
		c-3.839,5.887,1.625,11.779,1.535,12.542c-2.303,19.709,30.971,12.797,36.09,8.446s2.047-14.59,2.303-16.381
		c0.256-1.793-1.201-8.92-2.303-9.471c-1.101-0.55-4.863,7.423-13.054,10.494s-12.797-2.56-13.821-3.071"/>
</g>
<g>
	<path fill="#FFFFFF" d="M72.341,167.733c5.498,0.421,25.466,5.215,27.88-3.605c2.596-8.096-19.668-8.359-17.837-21.158"/>
	<g>
		<path fill="#1E1E1C" d="M72.341,168.214c5.781,0.491,11.406,1.783,17.247,1.662c4.225-0.088,10.968-1.241,11.306-6.648
			c0.255-4.093-4.964-6.177-7.91-7.722c-5.066-2.656-10.918-5.913-10.119-12.536c0.074-0.615-0.889-0.608-0.962,0
			c-0.583,4.829,2.204,8.238,6.033,10.779c3.524,2.338,9.375,3.792,11.622,7.607c1.294,2.196-0.613,4.806-2.445,5.926
			c-2.483,1.519-5.773,1.628-8.593,1.647c-5.463,0.037-10.766-1.217-16.179-1.677C71.723,167.2,71.728,168.162,72.341,168.214
			L72.341,168.214z"/>
	</g>
</g>
<g>
	<g>
		<path fill="#1E1E1C" d="M61.556,144.694c1.783-2.189,5.1-8.377,8.619-6.574c1.87,0.958,3.521-1.858,1.647-2.818
			c-5.723-2.932-9.489,3.296-12.574,7.084C57.931,144.003,60.226,146.327,61.556,144.694L61.556,144.694z"/>
	</g>
</g>
<g>
	<g>
		<path fill="#1E1E1C" d="M83.987,138.756c2.71,0.667,5.525,0.56,8.242,1.178c2.05,0.466,2.92-2.68,0.868-3.147
			c-2.719-0.619-5.539-0.512-8.242-1.178C82.811,135.105,81.944,138.253,83.987,138.756L83.987,138.756z"/>
	</g>
</g>
<g>
</g>
<g>
</g>
<g>
</g>
<g>
</g>
<g>
</g>
<g>
</g>
</svg>
