<?xml version="1.0" encoding="utf-8"?>
<!-- Generator: Adobe Illustrator 16.0.4, SVG Export Plug-In . SVG Version: 6.00 Build 0)  -->
<!DOCTYPE svg PUBLIC "-//W3C//DTD SVG 1.1//EN" "http://www.w3.org/Graphics/SVG/1.1/DTD/svg11.dtd">
<svg version="1.1" id="Layer_1" xmlns="http://www.w3.org/2000/svg" xmlns:xlink="http://www.w3.org/1999/xlink" x="0px" y="0px"
	 width="789.965px" height="789.966px" viewBox="0 0 789.965 789.966" enable-background="new 0 0 789.965 789.966"
	 xml:space="preserve">
<g>
	<path fill="#FFFFFF" d="M30.259,225.699c0,0-0.211,61.791,35.789,70.791c24.889,6.222,75.885-53.83,77-54
		c1.113-0.171-19.683-22.588-20.839-22.699c-1.158-0.112-24.961,39.984-40.238,42.607c-15.277,2.624-13.104-42.848-13.104-42.848"/>
	<g>
		<path fill="#82CFF5" d="M200.395,152.062l8.074,8.814c0,0-2.203,25.212-32.174,43.857l-11.402-8.939L200.395,152.062z"/>
		<g>
			<path fill="#0E8CCD" d="M201.051,152.628c0.605,0.488,0.75,1.491,0.504,2.881c-4.178,1.228-12.294,8.387-20.243,18.181
				c-7.531,9.275-12.713,18.214-13.531,22.819c-0.974,0.288-1.741,0.093-2.233-0.306c-2.607-2.121,3.229-13.47,13.029-25.542
				C188.381,158.581,198.443,150.511,201.051,152.628z"/>
			<path fill="#FFFFFF" d="M181.312,173.689c7.949-9.794,16.065-16.953,20.243-18.181c-0.816,4.606-6,13.541-13.53,22.821
				c-7.947,9.787-16.068,16.946-20.244,18.179C168.599,191.903,173.78,182.965,181.312,173.689z"/>
		</g>
		<path fill="#82CFF5" d="M167.748,198.2c0,0-34.232,26.689-22.297,34.387s27.742-34.353,27.742-34.353L167.748,198.2z"/>
	</g>
	<path fill="#FFFFFF" d="M143.714,223.146c2.56-2.561,2.049-7.679,2.815-11.006c0.768-3.328,10.398-0.149,12.798-6.655
		c3.61-9.787-3.071-10.495-3.071-10.495s0,3.328-5.886,7.424c-5.887,4.096-13.055,2.559-16.894,8.446
		c-3.839,5.887,1.625,11.779,1.535,12.542c-2.303,19.709,30.971,12.797,36.09,8.446s2.047-14.59,2.303-16.381
		c0.256-1.793-1.201-8.92-2.303-9.471c-1.101-0.55-4.863,7.423-13.054,10.494s-12.797-2.56-13.821-3.071"/>
</g>
<g>
</g>
<g>
</g>
<g>
</g>
<g>
</g>
<g>
</g>
<g>
</g>
</svg>
