<?xml version="1.0" encoding="utf-8"?>
<!-- Generator: Adobe Illustrator 16.0.4, SVG Export Plug-In . SVG Version: 6.00 Build 0)  -->
<!DOCTYPE svg PUBLIC "-//W3C//DTD SVG 1.1//EN" "http://www.w3.org/Graphics/SVG/1.1/DTD/svg11.dtd">
<svg version="1.1" id="Layer_1" xmlns="http://www.w3.org/2000/svg" xmlns:xlink="http://www.w3.org/1999/xlink" x="0px" y="0px"
	 width="789.965px" height="789.965px" viewBox="0 0 789.965 789.965" enable-background="new 0 0 789.965 789.965"
	 xml:space="preserve">
<pattern  x="97.483" y="815.483" width="132.545" height="114.207" patternUnits="userSpaceOnUse" id="New_Pattern_5" viewBox="0 -114.207 132.545 114.207" overflow="visible">
	<g>
		<polygon fill="none" points="0,0 132.545,0 132.545,-114.207 0,-114.207 		"/>
		<g>
			<polygon fill="none" points="0,0 132.545,0 132.545,-114.207 0,-114.207 			"/>
			<path fill="#B6D37A" d="M42.928-7.132c0-0.866-0.701-1.567-1.567-1.567c-0.867,0-1.568,0.702-1.568,1.567
				c0,0.864,0.702,1.567,1.568,1.567C42.227-5.564,42.928-6.268,42.928-7.132z M42.928-14.266c0-0.865-0.701-1.566-1.567-1.566
				c-0.867,0-1.568,0.702-1.568,1.566c0,0.867,0.702,1.568,1.568,1.568C42.227-12.697,42.928-13.398,42.928-14.266z M42.928-49.925
				c0-0.866-0.701-1.567-1.567-1.567c-0.867,0-1.568,0.702-1.568,1.567c0,0.866,0.702,1.567,1.568,1.567
				C42.227-48.355,42.928-49.059,42.928-49.925z M42.928-21.396c0-0.865-0.701-1.566-1.567-1.566c-0.867,0-1.568,0.701-1.568,1.566
				c0,0.866,0.702,1.568,1.568,1.568C42.227-19.828,42.928-20.53,42.928-21.396z M42.928-42.792c0-0.866-0.701-1.567-1.567-1.567
				c-0.867,0-1.568,0.701-1.568,1.567s0.702,1.567,1.568,1.567C42.227-41.225,42.928-41.926,42.928-42.792z M42.928-28.527
				c0-0.867-0.701-1.568-1.567-1.568c-0.867,0-1.568,0.703-1.568,1.568s0.702,1.567,1.568,1.567
				C42.227-26.96,42.928-27.662,42.928-28.527z M42.928-35.66c0-0.867-0.701-1.568-1.567-1.568c-0.867,0-1.568,0.701-1.568,1.568
				c0,0.866,0.702,1.567,1.568,1.567C42.227-34.093,42.928-34.794,42.928-35.66z M51.2-99.848c0-0.866-0.701-1.567-1.567-1.567
				c-0.866,0-1.568,0.701-1.568,1.567c0,0.865,0.702,1.567,1.568,1.567C50.499-98.28,51.2-98.982,51.2-99.848z M51.2-114.112
				c0-0.032-0.002-0.062-0.004-0.095H48.07c-0.002,0.032-0.005,0.062-0.005,0.095c0,0.866,0.702,1.567,1.568,1.567
				C50.499-112.545,51.2-113.246,51.2-114.112z M51.2-64.188c0-0.867-0.701-1.567-1.567-1.567c-0.866,0-1.568,0.702-1.568,1.567
				c0,0.864,0.702,1.567,1.568,1.567C50.499-62.62,51.2-63.323,51.2-64.188z M51.2-57.057c0-0.866-0.701-1.568-1.567-1.568
				c-0.866,0-1.568,0.702-1.568,1.568c0,0.865,0.702,1.567,1.568,1.567C50.499-55.489,51.2-56.189,51.2-57.057z M51.2-71.32
				c0-0.865-0.701-1.568-1.567-1.568c-0.866,0-1.568,0.703-1.568,1.568c0,0.866,0.702,1.567,1.568,1.567
				C50.499-69.753,51.2-70.454,51.2-71.32z M51.2-49.925c0-0.866-0.701-1.567-1.567-1.567c-0.866,0-1.568,0.702-1.568,1.567
				c0,0.866,0.702,1.567,1.568,1.567C50.499-48.357,51.2-49.059,51.2-49.925z M51.2-85.584c0-0.866-0.701-1.566-1.567-1.566
				c-0.866,0-1.568,0.701-1.568,1.566c0,0.866,0.702,1.568,1.568,1.568C50.499-84.016,51.2-84.718,51.2-85.584z M51.2-78.452
				c0-0.866-0.701-1.567-1.567-1.567c-0.866,0-1.568,0.701-1.568,1.567s0.702,1.567,1.568,1.567
				C50.499-76.885,51.2-77.586,51.2-78.452z M51.2-92.716c0-0.866-0.701-1.568-1.567-1.568c-0.866,0-1.568,0.702-1.568,1.568
				s0.702,1.567,1.568,1.567C50.499-91.148,51.2-91.852,51.2-92.716z M51.2-106.98c0-0.865-0.701-1.567-1.567-1.567
				c-0.866,0-1.568,0.702-1.568,1.567c0,0.866,0.702,1.567,1.568,1.567C50.499-105.413,51.2-106.114,51.2-106.98z M42.928-85.584
				c0-0.866-0.701-1.566-1.567-1.566c-0.867,0-1.568,0.701-1.568,1.566c0,0.866,0.702,1.568,1.568,1.568
				C42.227-84.018,42.928-84.718,42.928-85.584z M34.656-35.66c0-0.867-0.702-1.568-1.568-1.568c-0.866,0-1.567,0.701-1.567,1.568
				c0,0.866,0.702,1.567,1.567,1.567C33.953-34.093,34.656-34.794,34.656-35.66z M34.656-28.527c0-0.867-0.702-1.568-1.568-1.568
				c-0.866,0-1.567,0.703-1.567,1.568s0.702,1.567,1.567,1.567C33.953-26.96,34.656-27.662,34.656-28.527z M34.656-7.132
				c0-0.866-0.702-1.567-1.568-1.567c-0.866,0-1.567,0.702-1.567,1.567c0,0.864,0.702,1.567,1.567,1.567
				C33.953-5.564,34.656-6.268,34.656-7.132z M34.656-14.266c0-0.865-0.702-1.566-1.568-1.566c-0.866,0-1.567,0.702-1.567,1.566
				c0,0.867,0.702,1.568,1.567,1.568C33.953-12.697,34.656-13.398,34.656-14.266z M42.928-57.057c0-0.866-0.701-1.568-1.567-1.568
				c-0.867,0-1.568,0.702-1.568,1.568c0,0.865,0.702,1.567,1.568,1.567C42.227-55.489,42.928-56.189,42.928-57.057z M34.656-57.057
				c0-0.866-0.702-1.568-1.568-1.568c-0.866,0-1.567,0.702-1.567,1.568c0,0.865,0.702,1.567,1.567,1.567
				C33.953-55.489,34.656-56.189,34.656-57.057z M34.656-42.792c0-0.866-0.702-1.567-1.568-1.567c-0.866,0-1.567,0.701-1.567,1.567
				s0.702,1.567,1.567,1.567C33.953-41.225,34.656-41.926,34.656-42.792z M34.656-49.925c0-0.866-0.702-1.567-1.568-1.567
				c-0.866,0-1.567,0.702-1.567,1.567c0,0.866,0.702,1.567,1.567,1.567C33.953-48.357,34.656-49.059,34.656-49.925z M34.656-21.396
				c0-0.865-0.702-1.566-1.568-1.566c-0.866,0-1.567,0.701-1.567,1.566c0,0.866,0.702,1.568,1.567,1.568
				C33.953-19.828,34.656-20.53,34.656-21.396z M51.2-42.792c0-0.866-0.701-1.567-1.567-1.567c-0.866,0-1.568,0.701-1.568,1.567
				s0.702,1.567,1.568,1.567C50.499-41.225,51.2-41.926,51.2-42.792z M42.928-78.452c0-0.866-0.701-1.567-1.567-1.567
				c-0.867,0-1.568,0.701-1.568,1.567s0.702,1.567,1.568,1.567C42.227-76.885,42.928-77.586,42.928-78.452z M67.746-7.132
				c0-0.866-0.703-1.567-1.568-1.567c-0.866,0-1.568,0.702-1.568,1.567c0,0.864,0.702,1.567,1.568,1.567
				C67.043-5.564,67.746-6.268,67.746-7.132z M42.928-64.188c0-0.867-0.701-1.567-1.567-1.567c-0.867,0-1.568,0.702-1.568,1.567
				c0,0.864,0.702,1.567,1.568,1.567C42.227-62.62,42.928-63.323,42.928-64.188z M42.928-114.112c0-0.032-0.003-0.062-0.004-0.095
				h-3.127c-0.002,0.032-0.004,0.062-0.004,0.095c0,0.866,0.702,1.567,1.568,1.567C42.227-112.545,42.928-113.246,42.928-114.112z
				 M42.928-92.716c0-0.866-0.701-1.568-1.567-1.568c-0.867,0-1.568,0.702-1.568,1.568s0.702,1.567,1.568,1.567
				C42.227-91.148,42.928-91.852,42.928-92.716z M42.928-99.848c0-0.866-0.701-1.567-1.567-1.567c-0.867,0-1.568,0.701-1.568,1.567
				c0,0.865,0.702,1.567,1.568,1.567C42.227-98.28,42.928-98.982,42.928-99.848z M42.928-106.98c0-0.865-0.701-1.567-1.567-1.567
				c-0.867,0-1.568,0.702-1.568,1.567c0,0.866,0.702,1.567,1.568,1.567C42.227-105.413,42.928-106.114,42.928-106.98z
				 M67.746-28.527c0-0.867-0.703-1.568-1.568-1.568c-0.866,0-1.568,0.703-1.568,1.568s0.702,1.567,1.568,1.567
				C67.043-26.96,67.746-27.662,67.746-28.527z M67.746-106.98c0-0.865-0.703-1.567-1.568-1.567c-0.866,0-1.568,0.702-1.568,1.567
				c0,0.866,0.702,1.567,1.568,1.567C67.043-105.413,67.746-106.114,67.746-106.98z M67.746-85.584c0-0.866-0.703-1.566-1.568-1.566
				c-0.866,0-1.568,0.701-1.568,1.566c0,0.866,0.702,1.568,1.568,1.568C67.043-84.018,67.746-84.718,67.746-85.584z M67.746-92.716
				c0-0.866-0.703-1.568-1.568-1.568c-0.866,0-1.568,0.702-1.568,1.568s0.702,1.567,1.568,1.567
				C67.043-91.148,67.746-91.852,67.746-92.716z M59.474-21.396c0-0.865-0.703-1.566-1.568-1.566c-0.865,0-1.568,0.701-1.568,1.566
				c0,0.866,0.702,1.568,1.568,1.568C58.772-19.828,59.474-20.53,59.474-21.396z M59.474-14.266c0-0.865-0.703-1.566-1.568-1.566
				c-0.865,0-1.568,0.702-1.568,1.566c0,0.867,0.702,1.568,1.568,1.568C58.772-12.697,59.474-13.398,59.474-14.266z M59.474-7.132
				c0-0.866-0.703-1.567-1.568-1.567c-0.865,0-1.568,0.702-1.568,1.567c0,0.864,0.702,1.567,1.568,1.567
				C58.772-5.564,59.474-6.268,59.474-7.132z M67.746-71.32c0-0.865-0.703-1.568-1.568-1.568c-0.866,0-1.568,0.703-1.568,1.568
				c0,0.866,0.702,1.567,1.568,1.567C67.043-69.753,67.746-70.454,67.746-71.32z M67.746-114.112c0-0.032-0.003-0.062-0.005-0.095
				h-3.126c-0.002,0.032-0.005,0.062-0.005,0.095c0,0.866,0.702,1.567,1.568,1.567C67.043-112.545,67.746-113.246,67.746-114.112z
				 M67.746-99.848c0-0.866-0.703-1.567-1.568-1.567c-0.866,0-1.568,0.701-1.568,1.567c0,0.865,0.702,1.567,1.568,1.567
				C67.043-98.28,67.746-98.982,67.746-99.848z M67.746-78.452c0-0.866-0.703-1.567-1.568-1.567c-0.866,0-1.568,0.701-1.568,1.567
				s0.702,1.567,1.568,1.567C67.043-76.885,67.746-77.586,67.746-78.452z M67.746-21.396c0-0.865-0.703-1.566-1.568-1.566
				c-0.866,0-1.568,0.701-1.568,1.566c0,0.866,0.702,1.568,1.568,1.568C67.043-19.828,67.746-20.53,67.746-21.396z M67.746-64.188
				c0-0.867-0.703-1.567-1.568-1.567c-0.866,0-1.568,0.702-1.568,1.567c0,0.864,0.702,1.567,1.568,1.567
				C67.043-62.62,67.746-63.323,67.746-64.188z M34.656-64.188c0-0.867-0.702-1.567-1.568-1.567c-0.866,0-1.567,0.702-1.567,1.567
				c0,0.864,0.702,1.567,1.567,1.567C33.953-62.62,34.656-63.323,34.656-64.188z M67.746-14.266c0-0.865-0.703-1.566-1.568-1.566
				c-0.866,0-1.568,0.702-1.568,1.566c0,0.867,0.702,1.568,1.568,1.568C67.043-12.697,67.746-13.398,67.746-14.266z M67.746-35.66
				c0-0.867-0.703-1.568-1.568-1.568c-0.866,0-1.568,0.701-1.568,1.568c0,0.866,0.702,1.567,1.568,1.567
				C67.043-34.093,67.746-34.794,67.746-35.66z M67.746-42.792c0-0.866-0.703-1.567-1.568-1.567c-0.866,0-1.568,0.701-1.568,1.567
				s0.702,1.567,1.568,1.567C67.043-41.225,67.746-41.926,67.746-42.792z M67.746-57.057c0-0.866-0.703-1.568-1.568-1.568
				c-0.866,0-1.568,0.702-1.568,1.568c0,0.865,0.702,1.567,1.568,1.567C67.043-55.489,67.746-56.189,67.746-57.057z M67.746-49.925
				c0-0.866-0.703-1.567-1.568-1.567c-0.866,0-1.568,0.702-1.568,1.567c0,0.866,0.702,1.567,1.568,1.567
				C67.043-48.355,67.746-49.059,67.746-49.925z M59.474-114.112c0-0.032-0.004-0.062-0.006-0.095h-3.125
				c-0.002,0.032-0.005,0.062-0.005,0.095c0,0.866,0.702,1.567,1.568,1.567C58.772-112.545,59.474-113.246,59.474-114.112z
				 M59.474-99.848c0-0.866-0.703-1.567-1.568-1.567c-0.865,0-1.568,0.701-1.568,1.567c0,0.865,0.702,1.567,1.568,1.567
				C58.772-98.28,59.474-98.982,59.474-99.848z M51.2-7.132c0-0.866-0.701-1.567-1.567-1.567c-0.866,0-1.568,0.702-1.568,1.567
				c0,0.864,0.702,1.567,1.568,1.567C50.499-5.564,51.2-6.268,51.2-7.132z M51.2-35.66c0-0.867-0.701-1.568-1.567-1.568
				c-0.866,0-1.568,0.701-1.568,1.568c0,0.866,0.702,1.567,1.568,1.567C50.499-34.093,51.2-34.794,51.2-35.66z M59.474-92.716
				c0-0.866-0.703-1.568-1.568-1.568c-0.865,0-1.568,0.702-1.568,1.568s0.702,1.567,1.568,1.567
				C58.772-91.148,59.474-91.852,59.474-92.716z M59.474-106.98c0-0.865-0.703-1.567-1.568-1.567c-0.865,0-1.568,0.702-1.568,1.567
				c0,0.866,0.702,1.567,1.568,1.567C58.772-105.413,59.474-106.114,59.474-106.98z M51.2-28.527c0-0.867-0.701-1.568-1.567-1.568
				c-0.866,0-1.568,0.703-1.568,1.568s0.702,1.567,1.568,1.567C50.499-26.96,51.2-27.662,51.2-28.527z M51.2-14.266
				c0-0.865-0.701-1.566-1.567-1.566c-0.866,0-1.568,0.702-1.568,1.566c0,0.867,0.702,1.568,1.568,1.568
				C50.499-12.697,51.2-13.398,51.2-14.266z M51.2-21.396c0-0.865-0.701-1.566-1.567-1.566c-0.866,0-1.568,0.701-1.568,1.566
				c0,0.866,0.702,1.568,1.568,1.568C50.499-19.828,51.2-20.53,51.2-21.396z M59.474-28.527c0-0.867-0.703-1.568-1.568-1.568
				c-0.865,0-1.568,0.703-1.568,1.568s0.702,1.567,1.568,1.567C58.772-26.96,59.474-27.662,59.474-28.527z M59.474-49.925
				c0-0.866-0.703-1.567-1.568-1.567c-0.865,0-1.568,0.702-1.568,1.567c0,0.866,0.702,1.567,1.568,1.567
				C58.772-48.357,59.474-49.059,59.474-49.925z M59.474-42.792c0-0.866-0.703-1.567-1.568-1.567c-0.865,0-1.568,0.701-1.568,1.567
				s0.702,1.567,1.568,1.567C58.772-41.225,59.474-41.926,59.474-42.792z M59.474-57.057c0-0.866-0.703-1.568-1.568-1.568
				c-0.865,0-1.568,0.702-1.568,1.568c0,0.865,0.702,1.567,1.568,1.567C58.772-55.489,59.474-56.189,59.474-57.057z M59.474-35.66
				c0-0.867-0.703-1.568-1.568-1.568c-0.865,0-1.568,0.701-1.568,1.568c0,0.866,0.702,1.567,1.568,1.567
				C58.772-34.093,59.474-34.794,59.474-35.66z M59.474-64.188c0-0.867-0.703-1.567-1.568-1.567c-0.865,0-1.568,0.702-1.568,1.567
				c0,0.864,0.702,1.567,1.568,1.567C58.772-62.62,59.474-63.323,59.474-64.188z M59.474-78.452c0-0.866-0.703-1.567-1.568-1.567
				c-0.865,0-1.568,0.701-1.568,1.567s0.702,1.567,1.568,1.567C58.772-76.885,59.474-77.586,59.474-78.452z M59.474-85.584
				c0-0.866-0.703-1.566-1.568-1.566c-0.865,0-1.568,0.701-1.568,1.566c0,0.866,0.702,1.568,1.568,1.568
				C58.772-84.016,59.474-84.718,59.474-85.584z M59.474-71.32c0-0.865-0.703-1.568-1.568-1.568c-0.865,0-1.568,0.703-1.568,1.568
				c0,0.866,0.702,1.567,1.568,1.567C58.772-69.753,59.474-70.454,59.474-71.32z M42.928-71.32c0-0.865-0.701-1.568-1.567-1.568
				c-0.867,0-1.568,0.703-1.568,1.568c0,0.866,0.702,1.567,1.568,1.567C42.227-69.753,42.928-70.454,42.928-71.32z M9.839-71.32
				c0-0.865-0.702-1.568-1.567-1.568c-0.865,0-1.567,0.703-1.567,1.568c0,0.866,0.702,1.567,1.567,1.567
				C9.137-69.753,9.839-70.454,9.839-71.32z M9.839-78.452c0-0.866-0.702-1.567-1.567-1.567c-0.865,0-1.567,0.701-1.567,1.567
				s0.702,1.567,1.567,1.567C9.137-76.885,9.839-77.586,9.839-78.452z M9.839-64.188c0-0.867-0.702-1.567-1.567-1.567
				c-0.865,0-1.567,0.702-1.567,1.567c0,0.864,0.702,1.567,1.567,1.567C9.137-62.62,9.839-63.323,9.839-64.188z M9.839-57.057
				c0-0.866-0.702-1.568-1.567-1.568c-0.865,0-1.567,0.702-1.567,1.568c0,0.865,0.702,1.567,1.567,1.567
				C9.137-55.489,9.839-56.189,9.839-57.057z M9.839-85.584c0-0.866-0.702-1.566-1.567-1.566c-0.865,0-1.567,0.701-1.567,1.566
				c0,0.866,0.702,1.568,1.567,1.568C9.137-84.016,9.839-84.718,9.839-85.584z M9.839-49.925c0-0.866-0.702-1.567-1.567-1.567
				c-0.865,0-1.567,0.702-1.567,1.567c0,0.866,0.702,1.567,1.567,1.567C9.137-48.357,9.839-49.059,9.839-49.925z M9.839-99.848
				c0-0.866-0.702-1.567-1.567-1.567c-0.865,0-1.567,0.701-1.567,1.567c0,0.865,0.702,1.567,1.567,1.567
				C9.137-98.28,9.839-98.982,9.839-99.848z M9.839-92.716c0-0.866-0.702-1.568-1.567-1.568c-0.865,0-1.567,0.702-1.567,1.568
				s0.702,1.567,1.567,1.567C9.137-91.148,9.839-91.852,9.839-92.716z M9.839-106.98c0-0.865-0.702-1.567-1.567-1.567
				c-0.865,0-1.567,0.702-1.567,1.567c0,0.866,0.702,1.567,1.567,1.567C9.137-105.413,9.839-106.114,9.839-106.98z M18.112-114.112
				c0-0.032-0.003-0.062-0.005-0.095h-3.126c-0.002,0.032-0.005,0.062-0.005,0.095c0,0.866,0.702,1.567,1.568,1.567
				C17.41-112.545,18.112-113.246,18.112-114.112z M9.839-14.266c0-0.865-0.702-1.566-1.567-1.566c-0.865,0-1.567,0.702-1.567,1.566
				c0,0.867,0.702,1.568,1.567,1.568C9.137-12.697,9.839-13.398,9.839-14.266z M9.839-7.132c0-0.866-0.702-1.567-1.567-1.567
				c-0.865,0-1.567,0.702-1.567,1.567c0,0.864,0.702,1.567,1.567,1.567C9.137-5.564,9.839-6.268,9.839-7.132z M18.112-99.848
				c0-0.866-0.702-1.567-1.568-1.567c-0.866,0-1.568,0.701-1.568,1.567c0,0.865,0.702,1.567,1.568,1.567
				C17.41-98.28,18.112-98.982,18.112-99.848z M9.839-21.396c0-0.865-0.702-1.566-1.567-1.566c-0.865,0-1.567,0.701-1.567,1.566
				c0,0.866,0.702,1.568,1.567,1.568C9.137-19.828,9.839-20.53,9.839-21.396z M9.839-42.792c0-0.866-0.702-1.567-1.567-1.567
				c-0.865,0-1.567,0.701-1.567,1.567s0.702,1.567,1.567,1.567C9.137-41.225,9.839-41.926,9.839-42.792z M9.839-35.66
				c0-0.867-0.702-1.568-1.567-1.568c-0.865,0-1.567,0.701-1.567,1.568c0,0.866,0.702,1.567,1.567,1.567
				C9.137-34.093,9.839-34.794,9.839-35.66z M9.839-28.527c0-0.867-0.702-1.568-1.567-1.568c-0.865,0-1.567,0.703-1.567,1.568
				s0.702,1.567,1.567,1.567C9.137-26.96,9.839-27.662,9.839-28.527z M1.568-49.925c0-0.866-0.703-1.567-1.568-1.567v3.137
				C0.865-48.355,1.568-49.059,1.568-49.925z M1.568-57.057c0-0.866-0.703-1.568-1.568-1.568v3.136
				C0.865-55.489,1.568-56.189,1.568-57.057z M1.568-78.452c0-0.866-0.703-1.567-1.568-1.567v3.135
				C0.865-76.885,1.568-77.586,1.568-78.452z M1.568-85.584c0-0.866-0.703-1.566-1.568-1.566v3.135
				C0.865-84.018,1.568-84.718,1.568-85.584z M34.656-71.32c0-0.865-0.702-1.568-1.568-1.568c-0.866,0-1.567,0.703-1.567,1.568
				c0,0.866,0.702,1.567,1.567,1.567C33.953-69.753,34.656-70.454,34.656-71.32z M1.568-71.32c0-0.865-0.703-1.568-1.568-1.568
				v3.136C0.865-69.753,1.568-70.454,1.568-71.32z M9.839-114.112c0-0.032-0.003-0.062-0.004-0.095H6.709
				c-0.002,0.032-0.004,0.062-0.004,0.095c0,0.866,0.702,1.567,1.567,1.567C9.137-112.545,9.839-113.246,9.839-114.112z
				 M1.568-99.848c0-0.866-0.703-1.567-1.568-1.567v3.135C0.865-98.28,1.568-98.982,1.568-99.848z M1.568-92.716
				c0-0.866-0.703-1.568-1.568-1.568v3.136C0.865-91.148,1.568-91.852,1.568-92.716z M1.568-106.98c0-0.865-0.703-1.567-1.568-1.567
				v3.135C0.865-105.413,1.568-106.114,1.568-106.98z M18.112-106.98c0-0.865-0.702-1.567-1.568-1.567
				c-0.866,0-1.568,0.702-1.568,1.567c0,0.866,0.702,1.567,1.568,1.567C17.41-105.413,18.112-106.114,18.112-106.98z M1.568-21.396
				c0-0.865-0.703-1.566-1.568-1.566v3.135C0.865-19.828,1.568-20.53,1.568-21.396z M1.568-7.132c0-0.866-0.703-1.567-1.568-1.567
				v3.135C0.865-5.564,1.568-6.268,1.568-7.132z M1.568-114.112c0-0.032-0.003-0.062-0.005-0.095H0v1.662
				C0.865-112.545,1.568-113.246,1.568-114.112z M1.568-14.266c0-0.865-0.703-1.566-1.568-1.566v3.135
				C0.865-12.697,1.568-13.398,1.568-14.266z M1.568-42.792c0-0.866-0.703-1.567-1.568-1.567v3.135
				C0.865-41.225,1.568-41.926,1.568-42.792z M1.568-28.527c0-0.867-0.703-1.568-1.568-1.568v3.136
				C0.865-26.96,1.568-27.662,1.568-28.527z M1.568-35.66c0-0.867-0.703-1.568-1.568-1.568v3.136
				C0.865-34.093,1.568-34.794,1.568-35.66z M1.568-64.188c0-0.867-0.703-1.567-1.568-1.567v3.136
				C0.865-62.62,1.568-63.323,1.568-64.188z M26.384-78.452c0-0.866-0.702-1.567-1.568-1.567c-0.866,0-1.567,0.701-1.567,1.567
				s0.702,1.567,1.567,1.567C25.681-76.885,26.384-77.586,26.384-78.452z M26.384-35.66c0-0.867-0.702-1.568-1.568-1.568
				c-0.866,0-1.567,0.701-1.567,1.568c0,0.866,0.702,1.567,1.567,1.567C25.681-34.093,26.384-34.794,26.384-35.66z M26.384-49.925
				c0-0.866-0.702-1.567-1.568-1.567c-0.866,0-1.567,0.702-1.567,1.567c0,0.866,0.702,1.567,1.567,1.567
				C25.681-48.357,26.384-49.059,26.384-49.925z M26.384-28.527c0-0.867-0.702-1.568-1.568-1.568c-0.866,0-1.567,0.703-1.567,1.568
				s0.702,1.567,1.567,1.567C25.681-26.96,26.384-27.662,26.384-28.527z M26.384-57.057c0-0.866-0.702-1.568-1.568-1.568
				c-0.866,0-1.567,0.702-1.567,1.568c0,0.865,0.702,1.567,1.567,1.567C25.681-55.489,26.384-56.189,26.384-57.057z M26.384-71.32
				c0-0.865-0.702-1.568-1.568-1.568c-0.866,0-1.567,0.703-1.567,1.568c0,0.866,0.702,1.567,1.567,1.567
				C25.681-69.753,26.384-70.454,26.384-71.32z M26.384-21.396c0-0.865-0.702-1.566-1.568-1.566c-0.866,0-1.567,0.701-1.567,1.566
				c0,0.866,0.702,1.568,1.567,1.568C25.681-19.828,26.384-20.53,26.384-21.396z M26.384-64.188c0-0.867-0.702-1.567-1.568-1.567
				c-0.866,0-1.567,0.702-1.567,1.567c0,0.864,0.702,1.567,1.567,1.567C25.681-62.62,26.384-63.323,26.384-64.188z M26.384-42.792
				c0-0.866-0.702-1.567-1.568-1.567c-0.866,0-1.567,0.701-1.567,1.567s0.702,1.567,1.567,1.567
				C25.681-41.225,26.384-41.926,26.384-42.792z M34.656-85.584c0-0.866-0.702-1.566-1.568-1.566c-0.866,0-1.567,0.701-1.567,1.566
				c0,0.866,0.702,1.568,1.567,1.568C33.953-84.016,34.656-84.718,34.656-85.584z M26.384-14.266c0-0.865-0.702-1.566-1.568-1.566
				c-0.866,0-1.567,0.702-1.567,1.566c0,0.867,0.702,1.568,1.567,1.568C25.681-12.697,26.384-13.398,26.384-14.266z M34.656-106.98
				c0-0.865-0.702-1.567-1.568-1.567c-0.866,0-1.567,0.702-1.567,1.567c0,0.866,0.702,1.567,1.567,1.567
				C33.953-105.413,34.656-106.114,34.656-106.98z M34.656-78.452c0-0.866-0.702-1.567-1.568-1.567
				c-0.866,0-1.567,0.701-1.567,1.567s0.702,1.567,1.567,1.567C33.953-76.885,34.656-77.586,34.656-78.452z M34.656-92.716
				c0-0.866-0.702-1.568-1.568-1.568c-0.866,0-1.567,0.702-1.567,1.568s0.702,1.567,1.567,1.567
				C33.953-91.148,34.656-91.852,34.656-92.716z M26.384-7.132c0-0.866-0.702-1.567-1.568-1.567c-0.866,0-1.567,0.702-1.567,1.567
				c0,0.864,0.702,1.567,1.567,1.567C25.681-5.564,26.384-6.268,26.384-7.132z M34.656-114.112c0-0.032-0.003-0.062-0.005-0.095
				h-3.126c-0.002,0.032-0.004,0.062-0.004,0.095c0,0.866,0.702,1.567,1.567,1.567C33.953-112.545,34.656-113.246,34.656-114.112z
				 M34.656-99.848c0-0.866-0.702-1.567-1.568-1.567c-0.866,0-1.567,0.701-1.567,1.567c0,0.865,0.702,1.567,1.567,1.567
				C33.953-98.28,34.656-98.982,34.656-99.848z M18.112-7.132c0-0.866-0.702-1.567-1.568-1.567c-0.866,0-1.568,0.702-1.568,1.567
				c0,0.864,0.702,1.567,1.568,1.567C17.41-5.564,18.112-6.268,18.112-7.132z M18.112-57.057c0-0.866-0.702-1.568-1.568-1.568
				c-0.866,0-1.568,0.702-1.568,1.568c0,0.865,0.702,1.567,1.568,1.567C17.41-55.489,18.112-56.189,18.112-57.057z M26.384-85.584
				c0-0.866-0.702-1.566-1.568-1.566c-0.866,0-1.567,0.701-1.567,1.566c0,0.866,0.702,1.568,1.567,1.568
				C25.681-84.016,26.384-84.718,26.384-85.584z M18.112-64.188c0-0.867-0.702-1.567-1.568-1.567c-0.866,0-1.568,0.702-1.568,1.567
				c0,0.864,0.702,1.567,1.568,1.567C17.41-62.62,18.112-63.323,18.112-64.188z M18.112-35.66c0-0.867-0.702-1.568-1.568-1.568
				c-0.866,0-1.568,0.701-1.568,1.568c0,0.866,0.702,1.567,1.568,1.567C17.41-34.093,18.112-34.794,18.112-35.66z M18.112-42.792
				c0-0.866-0.702-1.567-1.568-1.567c-0.866,0-1.568,0.701-1.568,1.567s0.702,1.567,1.568,1.567
				C17.41-41.225,18.112-41.926,18.112-42.792z M18.112-85.584c0-0.866-0.702-1.566-1.568-1.566c-0.866,0-1.568,0.701-1.568,1.566
				c0,0.866,0.702,1.568,1.568,1.568C17.41-84.018,18.112-84.718,18.112-85.584z M18.112-71.32c0-0.865-0.702-1.568-1.568-1.568
				c-0.866,0-1.568,0.703-1.568,1.568c0,0.866,0.702,1.567,1.568,1.567C17.41-69.753,18.112-70.454,18.112-71.32z M18.112-78.452
				c0-0.866-0.702-1.567-1.568-1.567c-0.866,0-1.568,0.701-1.568,1.567s0.702,1.567,1.568,1.567
				C17.41-76.885,18.112-77.586,18.112-78.452z M18.112-49.925c0-0.866-0.702-1.567-1.568-1.567c-0.866,0-1.568,0.702-1.568,1.567
				c0,0.866,0.702,1.567,1.568,1.567C17.41-48.355,18.112-49.059,18.112-49.925z M26.384-99.848c0-0.866-0.702-1.567-1.568-1.567
				c-0.866,0-1.567,0.701-1.567,1.567c0,0.865,0.702,1.567,1.567,1.567C25.681-98.28,26.384-98.982,26.384-99.848z M18.112-28.527
				c0-0.867-0.702-1.568-1.568-1.568c-0.866,0-1.568,0.703-1.568,1.568s0.702,1.567,1.568,1.567
				C17.41-26.96,18.112-27.662,18.112-28.527z M26.384-106.98c0-0.865-0.702-1.567-1.568-1.567c-0.866,0-1.567,0.702-1.567,1.567
				c0,0.866,0.702,1.567,1.567,1.567C25.681-105.413,26.384-106.114,26.384-106.98z M26.384-92.716c0-0.866-0.702-1.568-1.568-1.568
				c-0.866,0-1.567,0.702-1.567,1.568s0.702,1.567,1.567,1.567C25.681-91.148,26.384-91.852,26.384-92.716z M26.384-114.112
				c0-0.032-0.003-0.062-0.005-0.095h-3.125c-0.002,0.032-0.005,0.062-0.005,0.095c0,0.866,0.702,1.567,1.567,1.567
				C25.681-112.545,26.384-113.246,26.384-114.112z M18.112-21.396c0-0.865-0.702-1.566-1.568-1.566
				c-0.866,0-1.568,0.701-1.568,1.566c0,0.866,0.702,1.568,1.568,1.568C17.41-19.828,18.112-20.53,18.112-21.396z M18.112-14.266
				c0-0.865-0.702-1.566-1.568-1.566c-0.866,0-1.568,0.702-1.568,1.566c0,0.867,0.702,1.568,1.568,1.568
				C17.41-12.697,18.112-13.398,18.112-14.266z M18.112-92.716c0-0.866-0.702-1.568-1.568-1.568c-0.866,0-1.568,0.702-1.568,1.568
				s0.702,1.567,1.568,1.567C17.41-91.148,18.112-91.852,18.112-92.716z M117.378-21.396c0-0.865-0.703-1.566-1.567-1.566
				c-0.866,0-1.569,0.701-1.569,1.566c0,0.866,0.704,1.568,1.569,1.568C116.676-19.828,117.378-20.53,117.378-21.396z
				 M125.65-106.98c0-0.865-0.701-1.567-1.567-1.567s-1.568,0.702-1.568,1.567c0,0.866,0.702,1.567,1.568,1.567
				S125.65-106.114,125.65-106.98z M125.65-114.112c0-0.032-0.002-0.062-0.004-0.095h-3.126c-0.002,0.032-0.005,0.062-0.005,0.095
				c0,0.866,0.702,1.567,1.568,1.567S125.65-113.246,125.65-114.112z M117.378-42.792c0-0.866-0.703-1.567-1.567-1.567
				c-0.866,0-1.569,0.701-1.569,1.567s0.704,1.567,1.569,1.567C116.676-41.225,117.378-41.926,117.378-42.792z M125.65-92.716
				c0-0.866-0.701-1.568-1.567-1.568s-1.568,0.702-1.568,1.568s0.702,1.567,1.568,1.567S125.65-91.852,125.65-92.716z
				 M125.65-99.848c0-0.866-0.701-1.567-1.567-1.567s-1.568,0.701-1.568,1.567c0,0.865,0.702,1.567,1.568,1.567
				S125.65-98.982,125.65-99.848z M117.378-28.527c0-0.867-0.703-1.568-1.567-1.568c-0.866,0-1.569,0.703-1.569,1.568
				s0.704,1.567,1.569,1.567C116.676-26.96,117.378-27.662,117.378-28.527z M117.378-7.132c0-0.866-0.703-1.567-1.567-1.567
				c-0.866,0-1.569,0.702-1.569,1.567c0,0.864,0.704,1.567,1.569,1.567C116.676-5.564,117.378-6.268,117.378-7.132z M117.378-35.66
				c0-0.867-0.703-1.568-1.567-1.568c-0.866,0-1.569,0.701-1.569,1.568c0,0.866,0.704,1.567,1.569,1.567
				C116.676-34.093,117.378-34.794,117.378-35.66z M117.378-14.266c0-0.865-0.703-1.566-1.567-1.566
				c-0.866,0-1.569,0.702-1.569,1.566c0,0.867,0.704,1.568,1.569,1.568C116.676-12.697,117.378-13.398,117.378-14.266z
				 M125.65-85.584c0-0.866-0.701-1.566-1.567-1.566s-1.568,0.701-1.568,1.566c0,0.866,0.702,1.568,1.568,1.568
				S125.65-84.718,125.65-85.584z M125.65-78.452c0-0.866-0.701-1.567-1.567-1.567s-1.568,0.701-1.568,1.567
				s0.702,1.567,1.568,1.567S125.65-77.586,125.65-78.452z M125.65-49.925c0-0.866-0.701-1.567-1.567-1.567
				s-1.568,0.702-1.568,1.567c0,0.866,0.702,1.567,1.568,1.567S125.65-49.059,125.65-49.925z M125.65-35.66
				c0-0.867-0.701-1.568-1.567-1.568s-1.568,0.701-1.568,1.568c0,0.866,0.702,1.567,1.568,1.567S125.65-34.794,125.65-35.66z
				 M125.65-28.527c0-0.867-0.701-1.568-1.567-1.568s-1.568,0.703-1.568,1.568s0.702,1.567,1.568,1.567S125.65-27.662,125.65-28.527
				z M125.65-42.792c0-0.866-0.701-1.567-1.567-1.567s-1.568,0.701-1.568,1.567s0.702,1.567,1.568,1.567
				S125.65-41.926,125.65-42.792z M125.65-71.32c0-0.865-0.701-1.568-1.567-1.568s-1.568,0.703-1.568,1.568
				c0,0.866,0.702,1.567,1.568,1.567S125.65-70.454,125.65-71.32z M109.106-57.057c0-0.866-0.703-1.568-1.568-1.568
				c-0.865,0-1.567,0.702-1.567,1.568c0,0.865,0.702,1.567,1.567,1.567C108.403-55.489,109.106-56.189,109.106-57.057z
				 M125.65-57.057c0-0.866-0.701-1.568-1.567-1.568s-1.568,0.702-1.568,1.568c0,0.865,0.702,1.567,1.568,1.567
				S125.65-56.189,125.65-57.057z M117.378-64.188c0-0.867-0.703-1.567-1.567-1.567c-0.866,0-1.569,0.702-1.569,1.567
				c0,0.864,0.704,1.567,1.569,1.567C116.676-62.62,117.378-63.323,117.378-64.188z M109.106-28.527
				c0-0.867-0.703-1.568-1.568-1.568c-0.865,0-1.567,0.703-1.567,1.568s0.702,1.567,1.567,1.567
				C108.403-26.96,109.106-27.662,109.106-28.527z M117.378-114.112c0-0.032-0.003-0.062-0.004-0.095h-3.126
				c-0.002,0.032-0.006,0.062-0.006,0.095c0,0.866,0.704,1.567,1.569,1.567C116.676-112.545,117.378-113.246,117.378-114.112z
				 M109.106-14.266c0-0.865-0.703-1.566-1.568-1.566c-0.865,0-1.567,0.702-1.567,1.566c0,0.867,0.702,1.568,1.567,1.568
				C108.403-12.697,109.106-13.398,109.106-14.266z M109.106-7.132c0-0.866-0.703-1.567-1.568-1.567
				c-0.865,0-1.567,0.702-1.567,1.567c0,0.864,0.702,1.567,1.567,1.567C108.403-5.564,109.106-6.268,109.106-7.132z M109.106-21.396
				c0-0.865-0.703-1.566-1.568-1.566c-0.865,0-1.567,0.701-1.567,1.566c0,0.866,0.702,1.568,1.567,1.568
				C108.403-19.828,109.106-20.53,109.106-21.396z M109.106-35.66c0-0.867-0.703-1.568-1.568-1.568
				c-0.865,0-1.567,0.701-1.567,1.568c0,0.866,0.702,1.567,1.567,1.567C108.403-34.093,109.106-34.794,109.106-35.66z
				 M109.106-49.925c0-0.866-0.703-1.567-1.568-1.567c-0.865,0-1.567,0.702-1.567,1.567c0,0.866,0.702,1.567,1.567,1.567
				C108.403-48.357,109.106-49.059,109.106-49.925z M109.106-42.792c0-0.866-0.703-1.567-1.568-1.567
				c-0.865,0-1.567,0.701-1.567,1.567s0.702,1.567,1.567,1.567C108.403-41.225,109.106-41.926,109.106-42.792z M117.378-85.584
				c0-0.866-0.703-1.566-1.567-1.566c-0.866,0-1.569,0.701-1.569,1.566c0,0.866,0.704,1.568,1.569,1.568
				C116.676-84.018,117.378-84.718,117.378-85.584z M125.65-21.396c0-0.865-0.701-1.566-1.567-1.566s-1.568,0.701-1.568,1.566
				c0,0.866,0.702,1.568,1.568,1.568S125.65-20.53,125.65-21.396z M117.378-71.32c0-0.865-0.703-1.568-1.567-1.568
				c-0.866,0-1.569,0.703-1.569,1.568c0,0.866,0.704,1.567,1.569,1.567C116.676-69.753,117.378-70.454,117.378-71.32z
				 M117.378-57.057c0-0.866-0.703-1.568-1.567-1.568c-0.866,0-1.569,0.702-1.569,1.568c0,0.865,0.704,1.567,1.569,1.567
				C116.676-55.489,117.378-56.189,117.378-57.057z M117.378-78.452c0-0.866-0.703-1.567-1.567-1.567
				c-0.866,0-1.569,0.701-1.569,1.567s0.704,1.567,1.569,1.567C116.676-76.885,117.378-77.586,117.378-78.452z M117.378-92.716
				c0-0.866-0.703-1.568-1.567-1.568c-0.866,0-1.569,0.702-1.569,1.568s0.704,1.567,1.569,1.567
				C116.676-91.148,117.378-91.852,117.378-92.716z M117.378-49.925c0-0.866-0.703-1.567-1.567-1.567
				c-0.866,0-1.569,0.702-1.569,1.567c0,0.866,0.704,1.567,1.569,1.567C116.676-48.355,117.378-49.059,117.378-49.925z
				 M117.378-106.98c0-0.865-0.703-1.567-1.567-1.567c-0.866,0-1.569,0.702-1.569,1.567c0,0.866,0.704,1.567,1.569,1.567
				C116.676-105.413,117.378-106.114,117.378-106.98z M117.378-99.848c0-0.866-0.703-1.567-1.567-1.567
				c-0.866,0-1.569,0.701-1.569,1.567c0,0.865,0.704,1.567,1.569,1.567C116.676-98.28,117.378-98.982,117.378-99.848z
				 M125.65-64.188c0-0.867-0.701-1.567-1.567-1.567s-1.568,0.702-1.568,1.567c0,0.864,0.702,1.567,1.568,1.567
				S125.65-63.323,125.65-64.188z M81.154,0h3.136c0-0.866-0.703-1.568-1.568-1.568C81.856-1.568,81.154-0.866,81.154,0z M97.698,0
				h3.136c0-0.866-0.702-1.568-1.568-1.568C98.4-1.568,97.698-0.866,97.698,0z M89.426,0h3.136c0-0.866-0.703-1.568-1.568-1.568
				C90.128-1.568,89.426-0.866,89.426,0z M64.609,0h3.136c0-0.866-0.703-1.568-1.568-1.568C65.312-1.568,64.609-0.866,64.609,0z
				 M76.017-114.112c0-0.032-0.002-0.062-0.004-0.095h-3.126c-0.001,0.032-0.004,0.062-0.004,0.095c0,0.866,0.701,1.567,1.567,1.567
				C75.316-112.545,76.017-113.246,76.017-114.112z M122.515,0h3.135c0-0.866-0.701-1.568-1.567-1.568S122.515-0.866,122.515,0z
				 M105.971,0h3.136c0-0.866-0.703-1.568-1.568-1.568C106.674-1.568,105.971-0.866,105.971,0z M114.242,0h3.137
				c0-0.866-0.703-1.568-1.567-1.568C114.945-1.568,114.242-0.866,114.242,0z M72.882,0h3.134c0-0.866-0.702-1.568-1.567-1.568
				C73.584-1.568,72.882-0.866,72.882,0z M6.705,0H9.84c0-0.866-0.702-1.568-1.567-1.568C7.408-1.568,6.705-0.866,6.705,0z
				 M125.65-14.266c0-0.865-0.701-1.566-1.567-1.566s-1.568,0.702-1.568,1.566c0,0.867,0.702,1.568,1.568,1.568
				S125.65-13.398,125.65-14.266z M14.976,0h3.136c0-0.866-0.702-1.568-1.568-1.568C15.678-1.568,14.976-0.866,14.976,0z M0,0h1.568
				c0-0.866-0.703-1.568-1.568-1.568V0z M56.337,0h3.136c0-0.866-0.703-1.568-1.568-1.568C57.04-1.568,56.337-0.866,56.337,0z
				 M48.065,0H51.2c0-0.866-0.701-1.568-1.567-1.568C48.767-1.568,48.065-0.866,48.065,0z M31.521,0h3.135
				c0-0.866-0.702-1.568-1.568-1.568C32.222-1.568,31.521-0.866,31.521,0z M39.793,0h3.135c0-0.866-0.701-1.568-1.567-1.568
				C40.495-1.568,39.793-0.866,39.793,0z M23.249,0h3.135c0-0.866-0.702-1.568-1.568-1.568C23.95-1.568,23.249-0.866,23.249,0z
				 M132.355-84.018c0.064,0,0.127-0.004,0.19-0.013v-3.11c-0.062-0.008-0.125-0.012-0.19-0.012c-0.866,0-1.568,0.701-1.568,1.566
				C130.787-84.718,131.489-84.018,132.355-84.018z M132.355-91.148c0.064,0,0.127-0.004,0.19-0.013v-3.11
				c-0.062-0.008-0.125-0.013-0.19-0.013c-0.866,0-1.568,0.702-1.568,1.568S131.489-91.148,132.355-91.148z M132.355-69.753
				c0.064,0,0.127-0.005,0.19-0.013v-3.109c-0.062-0.007-0.125-0.014-0.19-0.014c-0.866,0-1.568,0.703-1.568,1.568
				C130.787-70.454,131.489-69.753,132.355-69.753z M132.355-76.885c0.064,0,0.127-0.004,0.19-0.012v-3.11
				c-0.062-0.009-0.125-0.013-0.19-0.013c-0.866,0-1.568,0.701-1.568,1.567S131.489-76.885,132.355-76.885z M132.355-105.413
				c0.064,0,0.127-0.005,0.19-0.013v-3.11c-0.062-0.007-0.125-0.013-0.19-0.013c-0.866,0-1.568,0.701-1.568,1.568
				C130.787-106.114,131.489-105.413,132.355-105.413z M125.65-7.132c0-0.866-0.701-1.567-1.567-1.567s-1.568,0.702-1.568,1.567
				c0,0.864,0.702,1.567,1.568,1.567S125.65-6.268,125.65-7.132z M132.355-98.28c0.064,0,0.127-0.005,0.19-0.013v-3.109
				c-0.062-0.008-0.125-0.013-0.19-0.013c-0.866,0-1.568,0.701-1.568,1.567C130.787-98.982,131.489-98.28,132.355-98.28z
				 M132.355-112.545c0.064,0,0.127-0.005,0.19-0.012v-1.65h-1.753c-0.002,0.032-0.005,0.062-0.005,0.095
				C130.787-113.246,131.489-112.545,132.355-112.545z M132.355-34.093c0.064,0,0.127-0.005,0.19-0.013v-3.11
				c-0.062-0.009-0.125-0.013-0.19-0.013c-0.866,0-1.568,0.701-1.568,1.568C130.787-34.794,131.489-34.093,132.355-34.093z
				 M132.355-19.828c0.064,0,0.127-0.005,0.19-0.013v-3.11c-0.062-0.007-0.125-0.012-0.19-0.012c-0.866,0-1.568,0.701-1.568,1.566
				C130.787-20.53,131.489-19.828,132.355-19.828z M132.355-62.62c0.064,0,0.127-0.006,0.19-0.013v-3.11
				c-0.062-0.007-0.125-0.013-0.19-0.013c-0.866,0-1.568,0.701-1.568,1.566S131.489-62.62,132.355-62.62z M132.355-26.96
				c0.064,0,0.127-0.005,0.19-0.013v-3.11c-0.062-0.008-0.125-0.015-0.19-0.015c-0.866,0-1.568,0.703-1.568,1.568
				C130.787-27.662,131.489-26.96,132.355-26.96z M132.355-12.697c0.064,0,0.127-0.005,0.19-0.012v-3.109
				c-0.062-0.008-0.125-0.014-0.19-0.014c-0.866,0-1.568,0.702-1.568,1.566C130.787-13.398,131.489-12.697,132.355-12.697z
				 M132.355-5.564c0.064,0,0.127-0.004,0.19-0.013v-3.11c-0.062-0.008-0.125-0.013-0.19-0.013c-0.866,0-1.568,0.702-1.568,1.567
				S131.489-5.564,132.355-5.564z M132.355-55.489c0.064,0,0.127-0.004,0.19-0.013v-3.11c-0.062-0.007-0.125-0.013-0.19-0.013
				c-0.866,0-1.568,0.702-1.568,1.568C130.787-56.191,131.489-55.489,132.355-55.489z M132.355-48.355
				c0.064,0,0.127-0.004,0.19-0.014v-3.109c-0.062-0.009-0.125-0.014-0.19-0.014c-0.866,0-1.568,0.702-1.568,1.567
				C130.787-49.059,131.489-48.355,132.355-48.355z M132.355-41.225c0.064,0,0.127-0.004,0.19-0.013v-3.11
				c-0.062-0.008-0.125-0.012-0.19-0.012c-0.866,0-1.568,0.701-1.568,1.567S131.489-41.225,132.355-41.225z M132.545,0v-1.557
				c-0.062-0.006-0.125-0.012-0.19-0.012c-0.866,0-1.568,0.702-1.568,1.568H132.545z M84.29-64.188c0-0.867-0.703-1.567-1.568-1.567
				c-0.866,0-1.567,0.702-1.567,1.567c0,0.864,0.702,1.567,1.567,1.567C83.587-62.62,84.29-63.323,84.29-64.188z M84.29-71.32
				c0-0.865-0.703-1.568-1.568-1.568c-0.866,0-1.567,0.703-1.567,1.568c0,0.866,0.702,1.567,1.567,1.567
				C83.587-69.753,84.29-70.454,84.29-71.32z M84.29-106.98c0-0.865-0.703-1.567-1.568-1.567c-0.866,0-1.567,0.702-1.567,1.567
				c0,0.866,0.702,1.567,1.567,1.567C83.587-105.413,84.29-106.114,84.29-106.98z M84.29-49.925c0-0.866-0.703-1.567-1.568-1.567
				c-0.866,0-1.567,0.702-1.567,1.567c0,0.866,0.702,1.567,1.567,1.567C83.587-48.355,84.29-49.059,84.29-49.925z M84.29-57.057
				c0-0.866-0.703-1.568-1.568-1.568c-0.866,0-1.567,0.702-1.567,1.568c0,0.865,0.702,1.567,1.567,1.567
				C83.587-55.489,84.29-56.189,84.29-57.057z M84.29-92.716c0-0.866-0.703-1.568-1.568-1.568c-0.866,0-1.567,0.702-1.567,1.568
				s0.702,1.567,1.567,1.567C83.587-91.148,84.29-91.852,84.29-92.716z M84.29-85.584c0-0.866-0.703-1.566-1.568-1.566
				c-0.866,0-1.567,0.701-1.567,1.566c0,0.866,0.702,1.568,1.567,1.568C83.587-84.018,84.29-84.718,84.29-85.584z M84.29-78.452
				c0-0.866-0.703-1.567-1.568-1.567c-0.866,0-1.567,0.701-1.567,1.567s0.702,1.567,1.567,1.567
				C83.587-76.885,84.29-77.586,84.29-78.452z M84.29-42.792c0-0.866-0.703-1.567-1.568-1.567c-0.866,0-1.567,0.701-1.567,1.567
				s0.702,1.567,1.567,1.567C83.587-41.225,84.29-41.926,84.29-42.792z M92.562-92.716c0-0.866-0.703-1.568-1.568-1.568
				c-0.866,0-1.568,0.702-1.568,1.568s0.703,1.567,1.568,1.567C91.859-91.148,92.562-91.852,92.562-92.716z M92.562-114.112
				c0-0.032-0.003-0.062-0.005-0.095h-3.125c-0.003,0.032-0.006,0.062-0.006,0.095c0,0.866,0.703,1.567,1.568,1.567
				C91.859-112.545,92.562-113.246,92.562-114.112z M84.29-7.132c0-0.866-0.703-1.567-1.568-1.567c-0.866,0-1.567,0.702-1.567,1.567
				c0,0.864,0.702,1.567,1.567,1.567C83.587-5.564,84.29-6.268,84.29-7.132z M92.562-106.98c0-0.865-0.703-1.567-1.568-1.567
				c-0.866,0-1.568,0.702-1.568,1.567c0,0.866,0.703,1.567,1.568,1.567C91.859-105.413,92.562-106.114,92.562-106.98z
				 M92.562-99.848c0-0.866-0.703-1.567-1.568-1.567c-0.866,0-1.568,0.701-1.568,1.567c0,0.865,0.703,1.567,1.568,1.567
				C91.859-98.28,92.562-98.982,92.562-99.848z M84.29-14.266c0-0.865-0.703-1.566-1.568-1.566c-0.866,0-1.567,0.702-1.567,1.566
				c0,0.867,0.702,1.568,1.567,1.568C83.587-12.697,84.29-13.398,84.29-14.266z M84.29-28.527c0-0.867-0.703-1.568-1.568-1.568
				c-0.866,0-1.567,0.703-1.567,1.568s0.702,1.567,1.567,1.567C83.587-26.96,84.29-27.662,84.29-28.527z M84.29-21.396
				c0-0.865-0.703-1.566-1.568-1.566c-0.866,0-1.567,0.701-1.567,1.566c0,0.866,0.702,1.568,1.567,1.568
				C83.587-19.828,84.29-20.53,84.29-21.396z M84.29-35.66c0-0.867-0.703-1.568-1.568-1.568c-0.866,0-1.567,0.701-1.567,1.568
				c0,0.866,0.702,1.567,1.567,1.567C83.587-34.093,84.29-34.794,84.29-35.66z M76.017-78.452c0-0.866-0.702-1.567-1.567-1.567
				c-0.865,0-1.567,0.701-1.567,1.567s0.701,1.567,1.567,1.567C75.316-76.885,76.017-77.586,76.017-78.452z M76.017-71.32
				c0-0.865-0.702-1.568-1.567-1.568c-0.865,0-1.567,0.703-1.567,1.568c0,0.866,0.701,1.567,1.567,1.567
				C75.316-69.753,76.017-70.454,76.017-71.32z M76.017-85.584c0-0.866-0.702-1.566-1.567-1.566c-0.865,0-1.567,0.701-1.567,1.566
				c0,0.866,0.701,1.568,1.567,1.568C75.316-84.016,76.017-84.718,76.017-85.584z M76.017-64.188c0-0.867-0.702-1.567-1.567-1.567
				c-0.865,0-1.567,0.702-1.567,1.567c0,0.864,0.701,1.567,1.567,1.567C75.316-62.62,76.017-63.323,76.017-64.188z M76.017-106.98
				c0-0.865-0.702-1.567-1.567-1.567c-0.865,0-1.567,0.702-1.567,1.567c0,0.866,0.701,1.567,1.567,1.567
				C75.316-105.413,76.017-106.114,76.017-106.98z M76.017-99.848c0-0.866-0.702-1.567-1.567-1.567
				c-0.865,0-1.567,0.701-1.567,1.567c0,0.865,0.701,1.567,1.567,1.567C75.316-98.28,76.017-98.982,76.017-99.848z M76.017-57.057
				c0-0.866-0.702-1.568-1.567-1.568c-0.865,0-1.567,0.702-1.567,1.568c0,0.865,0.701,1.567,1.567,1.567
				C75.316-55.489,76.017-56.189,76.017-57.057z M76.017-92.716c0-0.866-0.702-1.568-1.567-1.568c-0.865,0-1.567,0.702-1.567,1.568
				s0.701,1.567,1.567,1.567C75.316-91.148,76.017-91.852,76.017-92.716z M76.017-42.792c0-0.866-0.702-1.567-1.567-1.567
				c-0.865,0-1.567,0.701-1.567,1.567s0.701,1.567,1.567,1.567C75.316-41.225,76.017-41.926,76.017-42.792z M76.017-21.396
				c0-0.865-0.702-1.566-1.567-1.566c-0.865,0-1.567,0.701-1.567,1.566c0,0.866,0.701,1.568,1.567,1.568
				C75.316-19.828,76.017-20.53,76.017-21.396z M76.017-14.266c0-0.865-0.702-1.566-1.567-1.566c-0.865,0-1.567,0.702-1.567,1.566
				c0,0.867,0.701,1.568,1.567,1.568C75.316-12.697,76.017-13.398,76.017-14.266z M76.017-7.132c0-0.866-0.702-1.567-1.567-1.567
				c-0.865,0-1.567,0.702-1.567,1.567c0,0.864,0.701,1.567,1.567,1.567C75.316-5.564,76.017-6.268,76.017-7.132z M76.017-49.925
				c0-0.866-0.702-1.567-1.567-1.567c-0.865,0-1.567,0.702-1.567,1.567c0,0.866,0.701,1.567,1.567,1.567
				C75.316-48.357,76.017-49.059,76.017-49.925z M84.29-114.112c0-0.032-0.003-0.062-0.005-0.095h-3.126
				c-0.002,0.032-0.004,0.062-0.004,0.095c0,0.866,0.702,1.567,1.567,1.567C83.587-112.545,84.29-113.246,84.29-114.112z
				 M84.29-99.848c0-0.866-0.703-1.567-1.568-1.567c-0.866,0-1.567,0.701-1.567,1.567c0,0.865,0.702,1.567,1.567,1.567
				C83.587-98.28,84.29-98.982,84.29-99.848z M76.017-35.66c0-0.867-0.702-1.568-1.567-1.568c-0.865,0-1.567,0.701-1.567,1.568
				c0,0.866,0.701,1.567,1.567,1.567C75.316-34.093,76.017-34.794,76.017-35.66z M76.017-28.527c0-0.867-0.702-1.568-1.567-1.568
				c-0.865,0-1.567,0.703-1.567,1.568s0.701,1.567,1.567,1.567C75.316-26.96,76.017-27.662,76.017-28.527z M92.562-64.188
				c0-0.867-0.703-1.567-1.568-1.567c-0.866,0-1.568,0.702-1.568,1.567c0,0.864,0.703,1.567,1.568,1.567
				C91.859-62.62,92.562-63.323,92.562-64.188z M100.834-35.66c0-0.867-0.702-1.568-1.568-1.568c-0.865,0-1.567,0.701-1.567,1.568
				c0,0.866,0.702,1.567,1.567,1.567C100.132-34.093,100.834-34.794,100.834-35.66z M100.834-28.527
				c0-0.867-0.702-1.568-1.568-1.568c-0.865,0-1.567,0.703-1.567,1.568s0.702,1.567,1.567,1.567
				C100.132-26.96,100.834-27.662,100.834-28.527z M100.834-42.792c0-0.866-0.702-1.567-1.568-1.567
				c-0.865,0-1.567,0.701-1.567,1.567s0.702,1.567,1.567,1.567C100.132-41.225,100.834-41.926,100.834-42.792z M100.834-21.396
				c0-0.865-0.702-1.566-1.568-1.566c-0.865,0-1.567,0.701-1.567,1.566c0,0.866,0.702,1.568,1.567,1.568
				C100.132-19.828,100.834-20.53,100.834-21.396z M100.834-57.057c0-0.866-0.702-1.568-1.568-1.568
				c-0.865,0-1.567,0.702-1.567,1.568c0,0.865,0.702,1.567,1.567,1.567C100.132-55.489,100.834-56.189,100.834-57.057z
				 M100.834-64.188c0-0.867-0.702-1.567-1.568-1.567c-0.865,0-1.567,0.702-1.567,1.567c0,0.864,0.702,1.567,1.567,1.567
				C100.132-62.62,100.834-63.323,100.834-64.188z M100.834-14.266c0-0.865-0.702-1.566-1.568-1.566
				c-0.865,0-1.567,0.702-1.567,1.566c0,0.867,0.702,1.568,1.567,1.568C100.132-12.697,100.834-13.398,100.834-14.266z
				 M100.834-49.925c0-0.866-0.702-1.567-1.568-1.567c-0.865,0-1.567,0.702-1.567,1.567c0,0.866,0.702,1.567,1.567,1.567
				C100.132-48.355,100.834-49.059,100.834-49.925z M109.106-85.584c0-0.866-0.703-1.566-1.568-1.566
				c-0.865,0-1.567,0.701-1.567,1.566c0,0.866,0.702,1.568,1.567,1.568C108.403-84.016,109.106-84.718,109.106-85.584z
				 M100.834-71.32c0-0.865-0.702-1.568-1.568-1.568c-0.865,0-1.567,0.703-1.567,1.568c0,0.866,0.702,1.567,1.567,1.567
				C100.132-69.753,100.834-70.454,100.834-71.32z M109.106-78.452c0-0.866-0.703-1.567-1.568-1.567
				c-0.865,0-1.567,0.701-1.567,1.567s0.702,1.567,1.567,1.567C108.403-76.885,109.106-77.586,109.106-78.452z M92.562-85.584
				c0-0.866-0.703-1.566-1.568-1.566c-0.866,0-1.568,0.701-1.568,1.566c0,0.866,0.703,1.568,1.568,1.568
				C91.859-84.018,92.562-84.718,92.562-85.584z M100.834-7.132c0-0.866-0.702-1.567-1.568-1.567c-0.865,0-1.567,0.702-1.567,1.567
				c0,0.864,0.702,1.567,1.567,1.567C100.132-5.564,100.834-6.268,100.834-7.132z M109.106-92.716c0-0.866-0.703-1.568-1.568-1.568
				c-0.865,0-1.567,0.702-1.567,1.568s0.702,1.567,1.567,1.567C108.403-91.148,109.106-91.852,109.106-92.716z M109.106-114.112
				c0-0.032-0.003-0.062-0.005-0.095h-3.126c-0.002,0.032-0.004,0.062-0.004,0.095c0,0.866,0.702,1.567,1.567,1.567
				C108.403-112.545,109.106-113.246,109.106-114.112z M109.106-106.98c0-0.865-0.703-1.567-1.568-1.567
				c-0.865,0-1.567,0.702-1.567,1.567c0,0.866,0.702,1.567,1.567,1.567C108.403-105.413,109.106-106.114,109.106-106.98z
				 M109.106-99.848c0-0.866-0.703-1.567-1.568-1.567c-0.865,0-1.567,0.701-1.567,1.567c0,0.865,0.702,1.567,1.567,1.567
				C108.403-98.28,109.106-98.982,109.106-99.848z M109.106-71.32c0-0.865-0.703-1.568-1.568-1.568
				c-0.865,0-1.567,0.703-1.567,1.568c0,0.866,0.702,1.567,1.567,1.567C108.403-69.753,109.106-70.454,109.106-71.32z
				 M92.562-42.792c0-0.866-0.703-1.567-1.568-1.567c-0.866,0-1.568,0.701-1.568,1.567s0.703,1.567,1.568,1.567
				C91.859-41.225,92.562-41.926,92.562-42.792z M92.562-28.527c0-0.867-0.703-1.568-1.568-1.568c-0.866,0-1.568,0.703-1.568,1.568
				s0.703,1.567,1.568,1.567C91.859-26.96,92.562-27.662,92.562-28.527z M92.562-49.925c0-0.866-0.703-1.567-1.568-1.567
				c-0.866,0-1.568,0.702-1.568,1.567c0,0.866,0.703,1.567,1.568,1.567C91.859-48.355,92.562-49.059,92.562-49.925z M92.562-35.66
				c0-0.867-0.703-1.568-1.568-1.568c-0.866,0-1.568,0.701-1.568,1.568c0,0.866,0.703,1.567,1.568,1.567
				C91.859-34.093,92.562-34.794,92.562-35.66z M92.562-57.057c0-0.866-0.703-1.568-1.568-1.568c-0.866,0-1.568,0.702-1.568,1.568
				c0,0.865,0.703,1.567,1.568,1.567C91.859-55.489,92.562-56.189,92.562-57.057z M92.562-78.452c0-0.866-0.703-1.567-1.568-1.567
				c-0.866,0-1.568,0.701-1.568,1.567s0.703,1.567,1.568,1.567C91.859-76.885,92.562-77.586,92.562-78.452z M92.562-71.32
				c0-0.865-0.703-1.568-1.568-1.568c-0.866,0-1.568,0.703-1.568,1.568c0,0.866,0.703,1.567,1.568,1.567
				C91.859-69.753,92.562-70.454,92.562-71.32z M109.106-64.188c0-0.867-0.703-1.567-1.568-1.567c-0.865,0-1.567,0.702-1.567,1.567
				c0,0.864,0.702,1.567,1.567,1.567C108.403-62.62,109.106-63.323,109.106-64.188z M92.562-21.396c0-0.865-0.703-1.566-1.568-1.566
				c-0.866,0-1.568,0.701-1.568,1.566c0,0.866,0.703,1.568,1.568,1.568C91.859-19.828,92.562-20.53,92.562-21.396z M100.834-92.716
				c0-0.866-0.702-1.568-1.568-1.568c-0.865,0-1.567,0.702-1.567,1.568s0.702,1.567,1.567,1.567
				C100.132-91.148,100.834-91.852,100.834-92.716z M100.834-78.452c0-0.866-0.702-1.567-1.568-1.567
				c-0.865,0-1.567,0.701-1.567,1.567s0.702,1.567,1.567,1.567C100.132-76.885,100.834-77.586,100.834-78.452z M100.834-106.98
				c0-0.865-0.702-1.567-1.568-1.567c-0.865,0-1.567,0.702-1.567,1.567c0,0.866,0.702,1.567,1.567,1.567
				C100.132-105.413,100.834-106.114,100.834-106.98z M100.834-85.584c0-0.866-0.702-1.566-1.568-1.566
				c-0.865,0-1.567,0.701-1.567,1.566c0,0.866,0.702,1.568,1.567,1.568C100.132-84.018,100.834-84.718,100.834-85.584z
				 M100.834-99.848c0-0.866-0.702-1.567-1.568-1.567c-0.865,0-1.567,0.701-1.567,1.567c0,0.865,0.702,1.567,1.567,1.567
				C100.132-98.28,100.834-98.982,100.834-99.848z M100.834-114.112c0-0.032-0.003-0.062-0.005-0.095h-3.126
				c-0.001,0.032-0.004,0.062-0.004,0.095c0,0.866,0.702,1.567,1.567,1.567C100.132-112.545,100.834-113.246,100.834-114.112z
				 M92.562-14.266c0-0.865-0.703-1.566-1.568-1.566c-0.866,0-1.568,0.702-1.568,1.566c0,0.867,0.703,1.568,1.568,1.568
				C91.859-12.697,92.562-13.398,92.562-14.266z M92.562-7.132c0-0.866-0.703-1.567-1.568-1.567c-0.866,0-1.568,0.702-1.568,1.567
				c0,0.864,0.703,1.567,1.568,1.567C91.859-5.564,92.562-6.268,92.562-7.132z"/>
		</g>
	</g>
</pattern>
<g>
	<circle fill="#0DA2DD" cx="412.264" cy="404.932" r="360.147"/>
	<g>
		<g>
			<defs>
				<path id="SVGID_1_" d="M54.286,405.252c0-98.074,39.301-186.969,103.014-251.795C222.478,87.142,313.198,46.014,413.525,46.014
					c198.402,0,359.24,160.838,359.24,359.238c0,198.402-160.838,359.24-359.24,359.24
					C215.124,764.493,54.286,603.655,54.286,405.252z"/>
			</defs>
			<clipPath id="SVGID_2_">
				<use xlink:href="#SVGID_1_"  overflow="visible"/>
			</clipPath>
			<g clip-path="url(#SVGID_2_)">
				<g>
					<pattern  id="SVGID_3_" xlink:href="#New_Pattern_5" patternTransform="matrix(1 0 0 -1 65.8223 -16554.7383)">
					</pattern>
					<path fill="url(#SVGID_3_)" d="M795.781,356c-10.495-1.096-127.621,46.122-137.318,41.959
						c-14.05-6.029-103.502,39.059-113.49,27.484c-7.705-8.926-21.565-7.956-33.229-6.23c-10.057,1.488-20.276,3.025-29.492,7.316
						c-9.827,4.574-18.622,12.287-29.415,13.287c-16.477,1.527-32.854-13.143-48.254-7.088c-8.896,3.5-15.809,13.562-25.269,12.18
						c-7.154-1.047-11.558-8.377-13.758-15.268c-2.199-6.889-3.46-14.51-8.464-19.729c-1.976-2.062-4.505-3.707-5.747-6.275
						c-1.434-2.961-0.832-6.439-0.65-9.724c0.524-9.441-2.883-19.041-9.24-26.04c-2.18-2.399-4.729-4.562-6.175-7.462
						c-1.215-2.437-1.552-5.207-1.771-7.922c-1.812-22.372,3.342-45.26,14.565-64.697c4.19-7.255,13.216-14.807,19.839-9.674
						c0.739-10.878,1.479-21.755,2.221-32.633c0.149-2.219,0.338-4.549,1.563-6.404c1.531-2.316,4.32-3.382,6.872-4.479
						c10.747-4.621,20.205-12.198,27.06-21.679c4.198-5.809,6.785-15.233,0.763-19.12c-4.055-2.617-9.352-0.756-14.175-0.622
						c-11.543,0.321-21.095-10.204-23.729-21.447c-2.635-11.243-0.042-22.975,2.546-34.229
						c6.164-26.803,12.328-53.606,18.492-80.409c-11.76,0.854-13.386,18.765-23.515,24.803c-5.312,3.167-12.083,2.47-17.858,4.685
						c-10.886,4.175-15.188,16.872-19.663,27.638c-4.475,10.766-13.35,22.514-24.861,20.675c-3.892-0.622-7.402-2.799-11.296-3.406
						c-9.713-1.519-18.021,6.835-23.48,15.011c-19.858,29.734-26.738,67.824-18.534,102.628c1.124,4.766,2.526,9.596,2.068,14.472
						c-0.33,3.516-1.614,6.859-2.527,10.271c-4.213,15.748,0.02,33.496,10.886,45.65c2.826-5.346,10.241-7.658,15.605-4.867
						c3.808,11.846,3.786,24.888-0.057,36.722c-1.316,4.056-3.094,8.131-2.827,12.387c0.793,12.683,18.716,20.029,17.595,32.687
						c-0.312,3.522-2.15,6.719-2.985,10.154c-2.742,11.287,8.145,23.598,19.682,22.258c-1.134,18.549-8.328,36.676-20.222,50.955
						c-12.681,15.223-30.551,26.27-39.919,43.727c-3.858,7.189-7.17,16.191-15.049,18.312c-12.138,3.268-24.484-13.037-35.694-7.354
						c-2.724,1.381-4.688,3.855-6.861,5.996c-8.545,8.414-172.027,84.352-168.671,95.865c8.658,29.703,433.357,257.559,572,208
						C731.983,794.805,795.781,356,795.781,356z"/>
					<pattern  id="SVGID_4_" xlink:href="#New_Pattern_5" patternTransform="matrix(1 0 0 -1 65.8223 -16554.7383)">
					</pattern>
					<path fill="url(#SVGID_4_)" d="M795.781,356c-10.495-1.096-127.621,46.122-137.318,41.959
						c-14.05-6.029-103.502,39.059-113.49,27.484c-7.705-8.926-21.565-7.956-33.229-6.23c-10.057,1.488-20.276,3.025-29.492,7.316
						c-9.827,4.574-18.622,12.287-29.415,13.287c-16.477,1.527-32.854-13.143-48.254-7.088c-8.896,3.5-15.809,13.562-25.269,12.18
						c-7.154-1.047-11.558-8.377-13.758-15.268c-2.199-6.889-3.46-14.51-8.464-19.729c-1.976-2.062-4.505-3.707-5.747-6.275
						c-1.434-2.961-0.832-6.439-0.65-9.724c0.524-9.441-2.883-19.041-9.24-26.04c-2.18-2.399-4.729-4.562-6.175-7.462
						c-1.215-2.437-1.552-5.207-1.771-7.922c-1.812-22.372,3.342-45.26,14.565-64.697c4.19-7.255,13.216-14.807,19.839-9.674
						c0.739-10.878,1.479-21.755,2.221-32.633c0.149-2.219,0.338-4.549,1.563-6.404c1.531-2.316,4.32-3.382,6.872-4.479
						c10.747-4.621,20.205-12.198,27.06-21.679c4.198-5.809,6.785-15.233,0.763-19.12c-4.055-2.617-9.352-0.756-14.175-0.622
						c-11.543,0.321-21.095-10.204-23.729-21.447c-2.635-11.243-0.042-22.975,2.546-34.229
						c6.164-26.803,12.328-53.606,18.492-80.409c-11.76,0.854-13.386,18.765-23.515,24.803c-5.312,3.167-12.083,2.47-17.858,4.685
						c-10.886,4.175-15.188,16.872-19.663,27.638c-4.475,10.766-13.35,22.514-24.861,20.675c-3.892-0.622-7.402-2.799-11.296-3.406
						c-9.713-1.519-18.021,6.835-23.48,15.011c-19.858,29.734-26.738,67.824-18.534,102.628c1.124,4.766,2.526,9.596,2.068,14.472
						c-0.33,3.516-1.614,6.859-2.527,10.271c-4.213,15.748,0.02,33.496,10.886,45.65c2.826-5.346,10.241-7.658,15.605-4.867
						c3.808,11.846,3.786,24.888-0.057,36.722c-1.316,4.056-3.094,8.131-2.827,12.387c0.793,12.683,18.716,20.029,17.595,32.687
						c-0.312,3.522-2.15,6.719-2.985,10.154c-2.742,11.287,8.145,23.598,19.682,22.258c-1.134,18.549-8.328,36.676-20.222,50.955
						c-12.681,15.223-30.551,26.27-39.919,43.727c-3.858,7.189-7.17,16.191-15.049,18.312c-12.138,3.268-24.484-13.037-35.694-7.354
						c-2.724,1.381-4.688,3.855-6.861,5.996c-8.545,8.414-172.027,84.352-168.671,95.865c8.658,29.703,433.357,257.559,572,208
						C731.983,794.805,795.781,356,795.781,356z"/>
				</g>
				<g>
					<pattern  id="SVGID_5_" xlink:href="#New_Pattern_5" patternTransform="matrix(1 0 0 -1 65.8223 -16554.7383)">
					</pattern>
					<path fill="url(#SVGID_5_)" d="M472.254,397.354c-4.73-8.613,2.781-18.986,10.994-24.381
						c8.215-5.395,18.303-9.629,22.159-18.666c-3.972-8.398-19.099-0.609-25.41-7.426c-3.507-3.788-1.686-10.61,2.775-13.21
						c4.461-2.599,10.348-1.566,14.625,1.325c3.799-2.444,3.039-8.467,0.242-12.014c-2.798-3.547-6.971-5.807-9.781-9.344
						c-4.382-5.516-4.599-13.957-0.505-19.69c4.094-5.733,12.146-8.27,18.788-5.915c4.111-7.237,4.621-15.971,4.021-24.273
						c-0.775-10.762-4.385-22.868-14.221-27.305c-9.144-4.125-21.308,1.448-24.155,11.066c-2.229,7.53,0.728,15.508,1.228,23.346
						c0.501,7.838-3.554,17.53-11.406,17.657c-7.256,0.118-11.631-10.695-6.335-15.655c1.27-1.188,2.938-2.089,3.604-3.694
						c0.891-2.15-0.408-4.556-1.841-6.39c-4.413-5.654-10.614-9.891-17.487-11.944c-3.807,3.835-5.734,9.45-5.09,14.813
						c0.204,1.702,0.641,3.503-0.053,5.071c-1.509,3.42-6.456,2.808-9.974,4.07c-6.334,2.274-7.554,10.963-5.521,17.379
						c2.034,6.415,6.186,12.226,6.784,18.929c0.489,5.468-1.459,10.838-1.963,16.305c-0.504,5.466,1.086,11.903,6.091,14.157
						c7.671,3.454,19.769-4.103,23.63,3.371c0.909,1.761,0.935,3.991,2.289,5.438c1.324,1.414,3.533,1.643,4.97,2.944
						c4.03,3.656-1.453,9.771-6.289,12.268c-3.883,2.003-7.997,4.061-12.359,3.847c-4.363-0.214-8.893-3.631-8.656-7.993
						c0.094-1.711,0.885-3.438,0.399-5.081c-0.735-2.491-3.891-3.288-6.482-3.147c-7.426,0.404-14.419,5.344-17.282,12.207
						c-1.155,2.774-1.661,5.96-0.642,8.787c1.092,3.029,3.729,5.199,6.322,7.109c11.033,8.131,23.396,14.454,36.447,18.639
						c7.438,2.385,17.169,3.351,21.562-3.106"/>
				</g>
				<g>
					<pattern  id="SVGID_6_" xlink:href="#New_Pattern_5" patternTransform="matrix(1 0 0 -1 65.8223 -16554.7383)">
					</pattern>
					<path fill="url(#SVGID_6_)" d="M392.37,381.758c2.787-0.601,6.021,3.154,8.023,1.125c0.5-0.505,0.684-1.236,0.813-1.936
						c0.723-3.858,0.426-7.827,0.68-11.745c0.533-8.223,3.564-16.267,8.595-22.794c1.33-1.727,2.892-3.723,2.373-5.84
						c-0.585-2.392-3.74-3.385-6.029-2.478c-2.289,0.908-3.804,3.094-4.928,5.284c-2.436,4.747-3.747,10.131-7.062,14.311
						c-1.396,1.761-3.117,3.262-4.352,5.14c-2.79,4.247-2.554,10.26,0.562,14.274"/>
				</g>
				<g>
					<pattern  id="SVGID_7_" xlink:href="#New_Pattern_5" patternTransform="matrix(1 0 0 -1 65.8223 -16554.7383)">
					</pattern>
					<path fill="url(#SVGID_7_)" d="M382.802,353.772c6.771-1.699,12.357-7.435,13.88-14.247c0.556-2.484,0.604-5.058,1.082-7.559
						c0.89-4.674,3.224-8.921,5.124-13.283c0.522-1.202,1.025-2.501,0.801-3.794c-0.266-1.518-1.466-2.673-2.601-3.714
						c-2.872-2.635-5.743-5.27-8.614-7.904c-5.021-4.607-10.48-9.43-17.229-10.38c-6.961-0.98-14.018,2.563-18.635,7.862
						c-4.617,5.3-7.104,12.135-8.643,18.993c-1.729,7.707-2.017,16.777,3.503,22.429c2.095,2.145,4.812,3.545,7.462,4.948
						c9.32,4.936,19.42,11.87,20.455,22.364c0.358,3.649,0.354,8.581,3.922,9.432c3.133,0.746,5.503-2.72,6.85-5.645"/>
				</g>
				<g>
					<pattern  id="SVGID_8_" xlink:href="#New_Pattern_5" patternTransform="matrix(1 0 0 -1 65.8223 -16554.7383)">
					</pattern>
					<path fill="url(#SVGID_8_)" d="M472.425,56.02c-8.53,4.719-17.212,10.175-22.032,18.648
						c-4.819,8.474-4.281,20.762,3.654,26.423c6.148,4.387,14.777,3.734,21.121,7.836c7.149,4.623,9.452,13.784,11.997,21.909
						c4.898,15.64,12.753,30.348,23.025,43.118c4.879,6.063,10.45,11.973,12.582,19.458c2.131,7.485-0.742,17.141-8.193,19.387
						c-3.797,1.145-8.385,0.329-11.345,2.968c-3.308,2.949-2.441,8.411-0.271,12.274c2.17,3.863,5.396,7.285,6.277,11.628
						c-4.788,0.696-9.793-0.19-14.05-2.488c-2.542,2.237-1.371,6.71,1.294,8.799c2.664,2.089,6.197,2.57,9.481,3.396
						c11.567,2.911,21.667,11.187,26.795,21.957c5.127,10.77,5.184,23.827,0.149,34.642c-1.683,3.614-3.914,7.839-1.931,11.299
						c1.595,2.781,5.172,3.575,8.336,4.095c6.247,1.026,13.182,1.918,18.455-1.584c2.831-1.881,4.916-4.897,8.079-6.14
						c8.186-3.213,15.853,7.157,24.646,7.146c8.853-0.012,14.07-10.339,14.362-19.185c0.383-11.556-3.913-22.735-5.109-34.234
						c-1.194-11.5,1.978-25.005,12.353-30.107c7.038-3.462,15.348-2.095,23.168-1.498c7.819,0.597,16.782-0.162,21.692-6.277
						c3.312-4.123,4.173-10.062,8.266-13.407c2.78-2.274,6.646-2.964,9.27-5.417c4.116-3.85,3.72-10.374,3.01-15.965
						c-3.181-25.021-7.545-52.37-26.511-69c-16.562-14.525-40.224-17.15-59.896-27.068c-23.938-12.068-43.028-35.384-69.625-38.752
						c-15.412-1.951-31.657,3.237-46.308-1.931"/>
				</g>
				<g>
					<pattern  id="SVGID_9_" xlink:href="#New_Pattern_5" patternTransform="matrix(1 0 0 -1 65.8223 -16554.7383)">
					</pattern>
					<path fill="url(#SVGID_9_)" d="M72.387,449.428c25.51,14.432,38.604-47.827,29.095-75.551
						c-4.397-12.824-13.049-26.013-8.542-38.799c4.586-13.009,20.326-18.02,29.131-28.637c9.926-11.969,9.694-29.1,8.962-44.631
						c-0.348-7.36-0.776-15.021-4.365-21.457c-10.497-18.823-39.833-16.198-55.06-31.453c-10.034-10.056-11.67-25.453-16.641-38.762
						s-18.064-26.681-31.466-21.965C23.501,148.174,20.343,419.985,72.387,449.428z"/>
				</g>
			</g>
		</g>
	</g>
</g>
</svg>
