<?xml version="1.0" encoding="utf-8"?>
<!-- Generator: Adobe Illustrator 16.0.4, SVG Export Plug-In . SVG Version: 6.00 Build 0)  -->
<!DOCTYPE svg PUBLIC "-//W3C//DTD SVG 1.1//EN" "http://www.w3.org/Graphics/SVG/1.1/DTD/svg11.dtd">
<svg version="1.1" id="Layer_1" xmlns="http://www.w3.org/2000/svg" xmlns:xlink="http://www.w3.org/1999/xlink" x="0px" y="0px"
	 width="789.965px" height="789.966px" viewBox="0 0 789.965 789.966" enable-background="new 0 0 789.965 789.966"
	 xml:space="preserve">
<pattern  x="163.305" y="-194.51" width="132.545" height="114.207" patternUnits="userSpaceOnUse" id="New_Pattern_5" viewBox="0 -114.207 132.545 114.207" overflow="visible">
	<g>
		<polygon fill="none" points="0,-114.207 132.545,-114.207 132.545,0 0,0 		"/>
		<path fill="#B6D37A" d="M42.928-107.075c0,0.866-0.701,1.567-1.567,1.567c-0.867,0-1.568-0.702-1.568-1.567
			s0.702-1.568,1.568-1.568C42.227-108.643,42.928-107.94,42.928-107.075z M42.928-99.942c0,0.866-0.701,1.567-1.567,1.567
			c-0.867,0-1.568-0.702-1.568-1.567c0-0.867,0.702-1.568,1.568-1.568C42.227-101.51,42.928-100.809,42.928-99.942z M42.928-64.282
			c0,0.866-0.701,1.567-1.567,1.567c-0.867,0-1.568-0.702-1.568-1.567c0-0.867,0.702-1.568,1.568-1.568
			C42.227-65.851,42.928-65.149,42.928-64.282z M42.928-92.811c0,0.866-0.701,1.567-1.567,1.567c-0.867,0-1.568-0.701-1.568-1.567
			c0-0.866,0.702-1.568,1.568-1.568C42.227-94.379,42.928-93.677,42.928-92.811z M42.928-71.415c0,0.866-0.701,1.568-1.567,1.568
			c-0.867,0-1.568-0.702-1.568-1.568s0.702-1.568,1.568-1.568C42.227-72.983,42.928-72.281,42.928-71.415z M42.928-85.679
			c0,0.866-0.701,1.568-1.567,1.568c-0.867,0-1.568-0.703-1.568-1.568c0-0.866,0.702-1.568,1.568-1.568
			C42.227-87.247,42.928-86.545,42.928-85.679z M42.928-78.547c0,0.867-0.701,1.569-1.567,1.569c-0.867,0-1.568-0.702-1.568-1.569
			c0-0.866,0.702-1.567,1.568-1.567C42.227-80.114,42.928-79.413,42.928-78.547z M51.2-14.359c0,0.866-0.701,1.567-1.567,1.567
			s-1.568-0.701-1.568-1.567c0-0.865,0.702-1.568,1.568-1.568S51.2-15.224,51.2-14.359z M51.2-0.095
			c0,0.032-0.002,0.063-0.004,0.095H48.07c-0.002-0.032-0.005-0.062-0.005-0.095c0-0.866,0.702-1.567,1.568-1.567
			S51.2-0.961,51.2-0.095z M51.2-50.019c0,0.866-0.701,1.567-1.567,1.567s-1.568-0.702-1.568-1.567s0.702-1.568,1.568-1.568
			S51.2-50.884,51.2-50.019z M51.2-57.15c0,0.866-0.701,1.568-1.567,1.568s-1.568-0.702-1.568-1.568s0.702-1.568,1.568-1.568
			S51.2-58.017,51.2-57.15z M51.2-42.887c0,0.866-0.701,1.568-1.567,1.568s-1.568-0.702-1.568-1.568
			c0-0.866,0.702-1.567,1.568-1.567S51.2-43.753,51.2-42.887z M51.2-64.282c0,0.866-0.701,1.567-1.567,1.567
			s-1.568-0.702-1.568-1.567c0-0.867,0.702-1.568,1.568-1.568S51.2-65.149,51.2-64.282z M51.2-28.623
			c0,0.866-0.701,1.567-1.567,1.567s-1.568-0.702-1.568-1.567c0-0.866,0.702-1.568,1.568-1.568S51.2-29.489,51.2-28.623z
			 M51.2-35.755c0,0.866-0.701,1.567-1.567,1.567s-1.568-0.701-1.568-1.567c0-0.866,0.702-1.567,1.568-1.567
			S51.2-36.621,51.2-35.755z M51.2-21.491c0,0.866-0.701,1.568-1.567,1.568s-1.568-0.702-1.568-1.568s0.702-1.567,1.568-1.567
			S51.2-22.356,51.2-21.491z M51.2-7.227c0,0.866-0.701,1.568-1.567,1.568s-1.568-0.702-1.568-1.568
			c0-0.866,0.702-1.567,1.568-1.567S51.2-8.093,51.2-7.227z M42.928-28.623c0,0.866-0.701,1.567-1.567,1.567
			c-0.867,0-1.568-0.702-1.568-1.567c0-0.866,0.702-1.568,1.568-1.568C42.227-30.19,42.928-29.489,42.928-28.623z M34.656-78.547
			c0,0.867-0.702,1.569-1.568,1.569s-1.567-0.702-1.567-1.569c0-0.866,0.702-1.567,1.567-1.567S34.656-79.413,34.656-78.547z
			 M34.656-85.679c0,0.866-0.702,1.568-1.568,1.568s-1.567-0.703-1.567-1.568c0-0.866,0.702-1.568,1.567-1.568
			S34.656-86.545,34.656-85.679z M34.656-107.075c0,0.866-0.702,1.567-1.568,1.567s-1.567-0.702-1.567-1.567
			s0.702-1.568,1.567-1.568S34.656-107.94,34.656-107.075z M34.656-99.942c0,0.866-0.702,1.567-1.568,1.567
			s-1.567-0.702-1.567-1.567c0-0.867,0.702-1.568,1.567-1.568S34.656-100.809,34.656-99.942z M42.928-57.15
			c0,0.866-0.701,1.568-1.567,1.568c-0.867,0-1.568-0.702-1.568-1.568s0.702-1.568,1.568-1.568
			C42.227-58.718,42.928-58.017,42.928-57.15z M34.656-57.15c0,0.866-0.702,1.568-1.568,1.568s-1.567-0.702-1.567-1.568
			s0.702-1.568,1.567-1.568S34.656-58.017,34.656-57.15z M34.656-71.415c0,0.866-0.702,1.568-1.568,1.568s-1.567-0.702-1.567-1.568
			s0.702-1.568,1.567-1.568S34.656-72.281,34.656-71.415z M34.656-64.282c0,0.866-0.702,1.567-1.568,1.567s-1.567-0.702-1.567-1.567
			c0-0.867,0.702-1.568,1.567-1.568S34.656-65.149,34.656-64.282z M34.656-92.811c0,0.866-0.702,1.567-1.568,1.567
			s-1.567-0.701-1.567-1.567c0-0.866,0.702-1.568,1.567-1.568S34.656-93.677,34.656-92.811z M51.2-71.415
			c0,0.866-0.701,1.568-1.567,1.568s-1.568-0.702-1.568-1.568s0.702-1.568,1.568-1.568S51.2-72.281,51.2-71.415z M42.928-35.755
			c0,0.866-0.701,1.567-1.567,1.567c-0.867,0-1.568-0.701-1.568-1.567c0-0.866,0.702-1.567,1.568-1.567
			C42.227-37.322,42.928-36.621,42.928-35.755z M67.746-107.075c0,0.866-0.703,1.567-1.568,1.567c-0.866,0-1.568-0.702-1.568-1.567
			s0.702-1.568,1.568-1.568C67.043-108.643,67.746-107.94,67.746-107.075z M42.928-50.019c0,0.866-0.701,1.567-1.567,1.567
			c-0.867,0-1.568-0.702-1.568-1.567s0.702-1.568,1.568-1.568C42.227-51.587,42.928-50.884,42.928-50.019z M42.928-0.095
			c0,0.032-0.003,0.063-0.004,0.095h-3.127c-0.002-0.032-0.004-0.062-0.004-0.095c0-0.866,0.702-1.567,1.568-1.567
			C42.227-1.662,42.928-0.961,42.928-0.095z M42.928-21.491c0,0.866-0.701,1.568-1.567,1.568c-0.867,0-1.568-0.702-1.568-1.568
			s0.702-1.567,1.568-1.567C42.227-23.058,42.928-22.356,42.928-21.491z M42.928-14.359c0,0.866-0.701,1.567-1.567,1.567
			c-0.867,0-1.568-0.701-1.568-1.567c0-0.865,0.702-1.568,1.568-1.568C42.227-15.927,42.928-15.224,42.928-14.359z M42.928-7.227
			c0,0.866-0.701,1.568-1.567,1.568c-0.867,0-1.568-0.702-1.568-1.568c0-0.866,0.702-1.567,1.568-1.567
			C42.227-8.794,42.928-8.093,42.928-7.227z M67.746-85.679c0,0.866-0.703,1.568-1.568,1.568c-0.866,0-1.568-0.703-1.568-1.568
			c0-0.866,0.702-1.568,1.568-1.568C67.043-87.247,67.746-86.545,67.746-85.679z M67.746-7.227c0,0.866-0.703,1.568-1.568,1.568
			c-0.866,0-1.568-0.702-1.568-1.568c0-0.866,0.702-1.567,1.568-1.567C67.043-8.794,67.746-8.093,67.746-7.227z M67.746-28.623
			c0,0.866-0.703,1.567-1.568,1.567c-0.866,0-1.568-0.702-1.568-1.567c0-0.866,0.702-1.568,1.568-1.568
			C67.043-30.19,67.746-29.489,67.746-28.623z M67.746-21.491c0,0.866-0.703,1.568-1.568,1.568c-0.866,0-1.568-0.702-1.568-1.568
			s0.702-1.567,1.568-1.567C67.043-23.058,67.746-22.356,67.746-21.491z M59.474-92.811c0,0.866-0.703,1.567-1.568,1.567
			s-1.568-0.701-1.568-1.567c0-0.866,0.702-1.568,1.568-1.568S59.474-93.677,59.474-92.811z M59.474-99.942
			c0,0.866-0.703,1.567-1.568,1.567s-1.568-0.702-1.568-1.567c0-0.867,0.702-1.568,1.568-1.568S59.474-100.809,59.474-99.942z
			 M59.474-107.075c0,0.866-0.703,1.567-1.568,1.567s-1.568-0.702-1.568-1.567s0.702-1.568,1.568-1.568
			S59.474-107.94,59.474-107.075z M67.746-42.887c0,0.866-0.703,1.568-1.568,1.568c-0.866,0-1.568-0.702-1.568-1.568
			c0-0.866,0.702-1.567,1.568-1.567C67.043-44.454,67.746-43.753,67.746-42.887z M67.746-0.095c0,0.032-0.003,0.063-0.005,0.095
			h-3.126c-0.002-0.032-0.005-0.062-0.005-0.095c0-0.866,0.702-1.567,1.568-1.567C67.043-1.662,67.746-0.961,67.746-0.095z
			 M67.746-14.359c0,0.866-0.703,1.567-1.568,1.567c-0.866,0-1.568-0.701-1.568-1.567c0-0.865,0.702-1.568,1.568-1.568
			C67.043-15.927,67.746-15.224,67.746-14.359z M67.746-35.755c0,0.866-0.703,1.567-1.568,1.567c-0.866,0-1.568-0.701-1.568-1.567
			c0-0.866,0.702-1.567,1.568-1.567C67.043-37.322,67.746-36.621,67.746-35.755z M67.746-92.811c0,0.866-0.703,1.567-1.568,1.567
			c-0.866,0-1.568-0.701-1.568-1.567c0-0.866,0.702-1.568,1.568-1.568C67.043-94.379,67.746-93.677,67.746-92.811z M67.746-50.019
			c0,0.866-0.703,1.567-1.568,1.567c-0.866,0-1.568-0.702-1.568-1.567s0.702-1.568,1.568-1.568
			C67.043-51.587,67.746-50.884,67.746-50.019z M34.656-50.019c0,0.866-0.702,1.567-1.568,1.567s-1.567-0.702-1.567-1.567
			s0.702-1.568,1.567-1.568S34.656-50.884,34.656-50.019z M67.746-99.942c0,0.866-0.703,1.567-1.568,1.567
			c-0.866,0-1.568-0.702-1.568-1.567c0-0.867,0.702-1.568,1.568-1.568C67.043-101.51,67.746-100.809,67.746-99.942z M67.746-78.547
			c0,0.867-0.703,1.569-1.568,1.569c-0.866,0-1.568-0.702-1.568-1.569c0-0.866,0.702-1.567,1.568-1.567
			C67.043-80.114,67.746-79.413,67.746-78.547z M67.746-71.415c0,0.866-0.703,1.568-1.568,1.568c-0.866,0-1.568-0.702-1.568-1.568
			s0.702-1.568,1.568-1.568C67.043-72.983,67.746-72.281,67.746-71.415z M67.746-57.15c0,0.866-0.703,1.568-1.568,1.568
			c-0.866,0-1.568-0.702-1.568-1.568s0.702-1.568,1.568-1.568C67.043-58.718,67.746-58.017,67.746-57.15z M67.746-64.282
			c0,0.866-0.703,1.567-1.568,1.567c-0.866,0-1.568-0.702-1.568-1.567c0-0.867,0.702-1.568,1.568-1.568
			C67.043-65.851,67.746-65.149,67.746-64.282z M59.474-0.095c0,0.032-0.004,0.063-0.006,0.095h-3.125
			c-0.002-0.032-0.005-0.062-0.005-0.095c0-0.866,0.702-1.567,1.568-1.567S59.474-0.961,59.474-0.095z M59.474-14.359
			c0,0.866-0.703,1.567-1.568,1.567s-1.568-0.701-1.568-1.567c0-0.865,0.702-1.568,1.568-1.568S59.474-15.224,59.474-14.359z
			 M51.2-107.075c0,0.866-0.701,1.567-1.567,1.567s-1.568-0.702-1.568-1.567s0.702-1.568,1.568-1.568S51.2-107.94,51.2-107.075z
			 M51.2-78.547c0,0.867-0.701,1.569-1.567,1.569s-1.568-0.702-1.568-1.569c0-0.866,0.702-1.567,1.568-1.567
			S51.2-79.413,51.2-78.547z M59.474-21.491c0,0.866-0.703,1.568-1.568,1.568s-1.568-0.702-1.568-1.568s0.702-1.567,1.568-1.567
			S59.474-22.356,59.474-21.491z M59.474-7.227c0,0.866-0.703,1.568-1.568,1.568s-1.568-0.702-1.568-1.568
			c0-0.866,0.702-1.567,1.568-1.567S59.474-8.093,59.474-7.227z M51.2-85.679c0,0.866-0.701,1.568-1.567,1.568
			s-1.568-0.703-1.568-1.568c0-0.866,0.702-1.568,1.568-1.568S51.2-86.545,51.2-85.679z M51.2-99.942
			c0,0.866-0.701,1.567-1.567,1.567s-1.568-0.702-1.568-1.567c0-0.867,0.702-1.568,1.568-1.568S51.2-100.809,51.2-99.942z
			 M51.2-92.811c0,0.866-0.701,1.567-1.567,1.567s-1.568-0.701-1.568-1.567c0-0.866,0.702-1.568,1.568-1.568
			S51.2-93.677,51.2-92.811z M59.474-85.679c0,0.866-0.703,1.568-1.568,1.568s-1.568-0.703-1.568-1.568
			c0-0.866,0.702-1.568,1.568-1.568S59.474-86.545,59.474-85.679z M59.474-64.282c0,0.866-0.703,1.567-1.568,1.567
			s-1.568-0.702-1.568-1.567c0-0.867,0.702-1.568,1.568-1.568S59.474-65.149,59.474-64.282z M59.474-71.415
			c0,0.866-0.703,1.568-1.568,1.568s-1.568-0.702-1.568-1.568s0.702-1.568,1.568-1.568S59.474-72.281,59.474-71.415z M59.474-57.15
			c0,0.866-0.703,1.568-1.568,1.568s-1.568-0.702-1.568-1.568s0.702-1.568,1.568-1.568S59.474-58.017,59.474-57.15z M59.474-78.547
			c0,0.867-0.703,1.569-1.568,1.569s-1.568-0.702-1.568-1.569c0-0.866,0.702-1.567,1.568-1.567S59.474-79.413,59.474-78.547z
			 M59.474-50.019c0,0.866-0.703,1.567-1.568,1.567s-1.568-0.702-1.568-1.567s0.702-1.568,1.568-1.568S59.474-50.884,59.474-50.019z
			 M59.474-35.755c0,0.866-0.703,1.567-1.568,1.567s-1.568-0.701-1.568-1.567c0-0.866,0.702-1.567,1.568-1.567
			S59.474-36.621,59.474-35.755z M59.474-28.623c0,0.866-0.703,1.567-1.568,1.567s-1.568-0.702-1.568-1.567
			c0-0.866,0.702-1.568,1.568-1.568S59.474-29.489,59.474-28.623z M59.474-42.887c0,0.866-0.703,1.568-1.568,1.568
			s-1.568-0.702-1.568-1.568c0-0.866,0.702-1.567,1.568-1.567S59.474-43.753,59.474-42.887z M42.928-42.887
			c0,0.866-0.701,1.568-1.567,1.568c-0.867,0-1.568-0.702-1.568-1.568c0-0.866,0.702-1.567,1.568-1.567
			C42.227-44.454,42.928-43.753,42.928-42.887z M9.839-42.887c0,0.866-0.702,1.568-1.567,1.568s-1.567-0.702-1.567-1.568
			c0-0.866,0.702-1.567,1.567-1.567S9.839-43.753,9.839-42.887z M9.839-35.755c0,0.866-0.702,1.567-1.567,1.567
			s-1.567-0.701-1.567-1.567c0-0.866,0.702-1.567,1.567-1.567S9.839-36.621,9.839-35.755z M9.839-50.019
			c0,0.866-0.702,1.567-1.567,1.567s-1.567-0.702-1.567-1.567s0.702-1.568,1.567-1.568S9.839-50.884,9.839-50.019z M9.839-57.15
			c0,0.866-0.702,1.568-1.567,1.568s-1.567-0.702-1.567-1.568s0.702-1.568,1.567-1.568S9.839-58.017,9.839-57.15z M9.839-28.623
			c0,0.866-0.702,1.567-1.567,1.567s-1.567-0.702-1.567-1.567c0-0.866,0.702-1.568,1.567-1.568S9.839-29.489,9.839-28.623z
			 M9.839-64.282c0,0.866-0.702,1.567-1.567,1.567s-1.567-0.702-1.567-1.567c0-0.867,0.702-1.568,1.567-1.568
			S9.839-65.149,9.839-64.282z M9.839-14.359c0,0.866-0.702,1.567-1.567,1.567s-1.567-0.701-1.567-1.567
			c0-0.865,0.702-1.568,1.567-1.568S9.839-15.224,9.839-14.359z M9.839-21.491c0,0.866-0.702,1.568-1.567,1.568
			s-1.567-0.702-1.567-1.568s0.702-1.567,1.567-1.567S9.839-22.356,9.839-21.491z M9.839-7.227c0,0.866-0.702,1.568-1.567,1.568
			S6.705-6.361,6.705-7.227c0-0.866,0.702-1.567,1.567-1.567S9.839-8.093,9.839-7.227z M18.112-0.095
			c0,0.032-0.003,0.063-0.005,0.095h-3.126c-0.002-0.032-0.005-0.062-0.005-0.095c0-0.866,0.702-1.567,1.568-1.567
			C17.41-1.662,18.112-0.961,18.112-0.095z M9.839-99.942c0,0.866-0.702,1.567-1.567,1.567s-1.567-0.702-1.567-1.567
			c0-0.867,0.702-1.568,1.567-1.568S9.839-100.809,9.839-99.942z M9.839-107.075c0,0.866-0.702,1.567-1.567,1.567
			s-1.567-0.702-1.567-1.567s0.702-1.568,1.567-1.568S9.839-107.94,9.839-107.075z M18.112-14.359c0,0.866-0.702,1.567-1.568,1.567
			c-0.866,0-1.568-0.701-1.568-1.567c0-0.865,0.702-1.568,1.568-1.568C17.41-15.927,18.112-15.224,18.112-14.359z M9.839-92.811
			c0,0.866-0.702,1.567-1.567,1.567s-1.567-0.701-1.567-1.567c0-0.866,0.702-1.568,1.567-1.568S9.839-93.677,9.839-92.811z
			 M9.839-71.415c0,0.866-0.702,1.568-1.567,1.568s-1.567-0.702-1.567-1.568s0.702-1.568,1.567-1.568S9.839-72.281,9.839-71.415z
			 M9.839-78.547c0,0.867-0.702,1.569-1.567,1.569s-1.567-0.702-1.567-1.569c0-0.866,0.702-1.567,1.567-1.567
			S9.839-79.413,9.839-78.547z M9.839-85.679c0,0.866-0.702,1.568-1.567,1.568s-1.567-0.703-1.567-1.568
			c0-0.866,0.702-1.568,1.567-1.568S9.839-86.545,9.839-85.679z M1.568-64.282c0,0.866-0.703,1.567-1.568,1.567v-3.136
			C0.865-65.851,1.568-65.149,1.568-64.282z M1.568-57.15c0,0.866-0.703,1.568-1.568,1.568v-3.136
			C0.865-58.718,1.568-58.017,1.568-57.15z M1.568-35.755c0,0.866-0.703,1.567-1.568,1.567v-3.134
			C0.865-37.322,1.568-36.621,1.568-35.755z M1.568-28.623c0,0.866-0.703,1.567-1.568,1.567v-3.135
			C0.865-30.19,1.568-29.489,1.568-28.623z M34.656-42.887c0,0.866-0.702,1.568-1.568,1.568s-1.567-0.702-1.567-1.568
			c0-0.866,0.702-1.567,1.567-1.567S34.656-43.753,34.656-42.887z M1.568-42.887c0,0.866-0.703,1.568-1.568,1.568v-3.135
			C0.865-44.454,1.568-43.753,1.568-42.887z M9.839-0.095c0,0.032-0.003,0.063-0.004,0.095H6.709
			C6.707-0.032,6.705-0.062,6.705-0.095c0-0.866,0.702-1.567,1.567-1.567S9.839-0.961,9.839-0.095z M1.568-14.359
			c0,0.866-0.703,1.567-1.568,1.567v-3.135C0.865-15.927,1.568-15.224,1.568-14.359z M1.568-21.491c0,0.866-0.703,1.568-1.568,1.568
			v-3.135C0.865-23.058,1.568-22.356,1.568-21.491z M1.568-7.227c0,0.866-0.703,1.568-1.568,1.568v-3.135
			C0.865-8.794,1.568-8.093,1.568-7.227z M18.112-7.227c0,0.866-0.702,1.568-1.568,1.568c-0.866,0-1.568-0.702-1.568-1.568
			c0-0.866,0.702-1.567,1.568-1.567C17.41-8.794,18.112-8.093,18.112-7.227z M1.568-92.811c0,0.866-0.703,1.567-1.568,1.567v-3.135
			C0.865-94.379,1.568-93.677,1.568-92.811z M1.568-107.075c0,0.866-0.703,1.567-1.568,1.567v-3.135
			C0.865-108.643,1.568-107.94,1.568-107.075z M1.568-0.095c0,0.032-0.003,0.063-0.005,0.095H0v-1.662
			C0.865-1.662,1.568-0.961,1.568-0.095z M1.568-99.942c0,0.866-0.703,1.567-1.568,1.567v-3.135
			C0.865-101.51,1.568-100.809,1.568-99.942z M1.568-71.415c0,0.866-0.703,1.568-1.568,1.568v-3.136
			C0.865-72.983,1.568-72.281,1.568-71.415z M1.568-85.679c0,0.866-0.703,1.568-1.568,1.568v-3.136
			C0.865-87.247,1.568-86.545,1.568-85.679z M1.568-78.547c0,0.867-0.703,1.569-1.568,1.569v-3.136
			C0.865-80.114,1.568-79.413,1.568-78.547z M1.568-50.019c0,0.866-0.703,1.567-1.568,1.567v-3.136
			C0.865-51.587,1.568-50.884,1.568-50.019z M26.384-35.755c0,0.866-0.702,1.567-1.568,1.567s-1.567-0.701-1.567-1.567
			c0-0.866,0.702-1.567,1.567-1.567S26.384-36.621,26.384-35.755z M26.384-78.547c0,0.867-0.702,1.569-1.568,1.569
			s-1.567-0.702-1.567-1.569c0-0.866,0.702-1.567,1.567-1.567S26.384-79.413,26.384-78.547z M26.384-64.282
			c0,0.866-0.702,1.567-1.568,1.567s-1.567-0.702-1.567-1.567c0-0.867,0.702-1.568,1.567-1.568S26.384-65.149,26.384-64.282z
			 M26.384-85.679c0,0.866-0.702,1.568-1.568,1.568s-1.567-0.703-1.567-1.568c0-0.866,0.702-1.568,1.567-1.568
			S26.384-86.545,26.384-85.679z M26.384-57.15c0,0.866-0.702,1.568-1.568,1.568s-1.567-0.702-1.567-1.568s0.702-1.568,1.567-1.568
			S26.384-58.017,26.384-57.15z M26.384-42.887c0,0.866-0.702,1.568-1.568,1.568s-1.567-0.702-1.567-1.568
			c0-0.866,0.702-1.567,1.567-1.567S26.384-43.753,26.384-42.887z M26.384-92.811c0,0.866-0.702,1.567-1.568,1.567
			s-1.567-0.701-1.567-1.567c0-0.866,0.702-1.568,1.567-1.568S26.384-93.677,26.384-92.811z M26.384-50.019
			c0,0.866-0.702,1.567-1.568,1.567s-1.567-0.702-1.567-1.567s0.702-1.568,1.567-1.568S26.384-50.884,26.384-50.019z M26.384-71.415
			c0,0.866-0.702,1.568-1.568,1.568s-1.567-0.702-1.567-1.568s0.702-1.568,1.567-1.568S26.384-72.281,26.384-71.415z M34.656-28.623
			c0,0.866-0.702,1.567-1.568,1.567s-1.567-0.702-1.567-1.567c0-0.866,0.702-1.568,1.567-1.568S34.656-29.489,34.656-28.623z
			 M26.384-99.942c0,0.866-0.702,1.567-1.568,1.567s-1.567-0.702-1.567-1.567c0-0.867,0.702-1.568,1.567-1.568
			S26.384-100.809,26.384-99.942z M34.656-7.227c0,0.866-0.702,1.568-1.568,1.568s-1.567-0.702-1.567-1.568
			c0-0.866,0.702-1.567,1.567-1.567S34.656-8.093,34.656-7.227z M34.656-35.755c0,0.866-0.702,1.567-1.568,1.567
			s-1.567-0.701-1.567-1.567c0-0.866,0.702-1.567,1.567-1.567S34.656-36.621,34.656-35.755z M34.656-21.491
			c0,0.866-0.702,1.568-1.568,1.568s-1.567-0.702-1.567-1.568s0.702-1.567,1.567-1.567S34.656-22.356,34.656-21.491z
			 M26.384-107.075c0,0.866-0.702,1.567-1.568,1.567s-1.567-0.702-1.567-1.567s0.702-1.568,1.567-1.568
			S26.384-107.94,26.384-107.075z M34.656-0.095c0,0.032-0.003,0.063-0.005,0.095h-3.126c-0.002-0.032-0.004-0.062-0.004-0.095
			c0-0.866,0.702-1.567,1.567-1.567S34.656-0.961,34.656-0.095z M34.656-14.359c0,0.866-0.702,1.567-1.568,1.567
			s-1.567-0.701-1.567-1.567c0-0.865,0.702-1.568,1.567-1.568S34.656-15.224,34.656-14.359z M18.112-107.075
			c0,0.866-0.702,1.567-1.568,1.567c-0.866,0-1.568-0.702-1.568-1.567s0.702-1.568,1.568-1.568
			C17.41-108.643,18.112-107.94,18.112-107.075z M18.112-57.15c0,0.866-0.702,1.568-1.568,1.568c-0.866,0-1.568-0.702-1.568-1.568
			s0.702-1.568,1.568-1.568C17.41-58.718,18.112-58.017,18.112-57.15z M26.384-28.623c0,0.866-0.702,1.567-1.568,1.567
			s-1.567-0.702-1.567-1.567c0-0.866,0.702-1.568,1.567-1.568S26.384-29.489,26.384-28.623z M18.112-50.019
			c0,0.866-0.702,1.567-1.568,1.567c-0.866,0-1.568-0.702-1.568-1.567s0.702-1.568,1.568-1.568
			C17.41-51.587,18.112-50.884,18.112-50.019z M18.112-78.547c0,0.867-0.702,1.569-1.568,1.569c-0.866,0-1.568-0.702-1.568-1.569
			c0-0.866,0.702-1.567,1.568-1.567C17.41-80.114,18.112-79.413,18.112-78.547z M18.112-71.415c0,0.866-0.702,1.568-1.568,1.568
			c-0.866,0-1.568-0.702-1.568-1.568s0.702-1.568,1.568-1.568C17.41-72.983,18.112-72.281,18.112-71.415z M18.112-28.623
			c0,0.866-0.702,1.567-1.568,1.567c-0.866,0-1.568-0.702-1.568-1.567c0-0.866,0.702-1.568,1.568-1.568
			C17.41-30.19,18.112-29.489,18.112-28.623z M18.112-42.887c0,0.866-0.702,1.568-1.568,1.568c-0.866,0-1.568-0.702-1.568-1.568
			c0-0.866,0.702-1.567,1.568-1.567C17.41-44.454,18.112-43.753,18.112-42.887z M18.112-35.755c0,0.866-0.702,1.567-1.568,1.567
			c-0.866,0-1.568-0.701-1.568-1.567c0-0.866,0.702-1.567,1.568-1.567C17.41-37.322,18.112-36.621,18.112-35.755z M18.112-64.282
			c0,0.866-0.702,1.567-1.568,1.567c-0.866,0-1.568-0.702-1.568-1.567c0-0.867,0.702-1.568,1.568-1.568
			C17.41-65.851,18.112-65.149,18.112-64.282z M26.384-14.359c0,0.866-0.702,1.567-1.568,1.567s-1.567-0.701-1.567-1.567
			c0-0.865,0.702-1.568,1.567-1.568S26.384-15.224,26.384-14.359z M18.112-85.679c0,0.866-0.702,1.568-1.568,1.568
			c-0.866,0-1.568-0.703-1.568-1.568c0-0.866,0.702-1.568,1.568-1.568C17.41-87.247,18.112-86.545,18.112-85.679z M26.384-7.227
			c0,0.866-0.702,1.568-1.568,1.568s-1.567-0.702-1.567-1.568c0-0.866,0.702-1.567,1.567-1.567S26.384-8.093,26.384-7.227z
			 M26.384-21.491c0,0.866-0.702,1.568-1.568,1.568s-1.567-0.702-1.567-1.568s0.702-1.567,1.567-1.567S26.384-22.356,26.384-21.491z
			 M26.384-0.095c0,0.032-0.003,0.063-0.005,0.095h-3.125c-0.002-0.032-0.005-0.062-0.005-0.095c0-0.866,0.702-1.567,1.567-1.567
			S26.384-0.961,26.384-0.095z M18.112-92.811c0,0.866-0.702,1.567-1.568,1.567c-0.866,0-1.568-0.701-1.568-1.567
			c0-0.866,0.702-1.568,1.568-1.568C17.41-94.379,18.112-93.677,18.112-92.811z M18.112-99.942c0,0.866-0.702,1.567-1.568,1.567
			c-0.866,0-1.568-0.702-1.568-1.567c0-0.867,0.702-1.568,1.568-1.568C17.41-101.51,18.112-100.809,18.112-99.942z M18.112-21.491
			c0,0.866-0.702,1.568-1.568,1.568c-0.866,0-1.568-0.702-1.568-1.568s0.702-1.567,1.568-1.567
			C17.41-23.058,18.112-22.356,18.112-21.491z M117.378-92.811c0,0.866-0.703,1.567-1.567,1.567c-0.866,0-1.569-0.701-1.569-1.567
			c0-0.866,0.704-1.568,1.569-1.568C116.676-94.379,117.378-93.677,117.378-92.811z M125.65-7.227c0,0.866-0.701,1.568-1.567,1.568
			s-1.568-0.702-1.568-1.568c0-0.866,0.702-1.567,1.568-1.567S125.65-8.093,125.65-7.227z M125.65-0.095
			c0,0.032-0.002,0.063-0.004,0.095h-3.126c-0.002-0.032-0.005-0.062-0.005-0.095c0-0.866,0.702-1.567,1.568-1.567
			S125.65-0.961,125.65-0.095z M117.378-71.415c0,0.866-0.703,1.568-1.567,1.568c-0.866,0-1.569-0.702-1.569-1.568
			s0.704-1.568,1.569-1.568C116.676-72.983,117.378-72.281,117.378-71.415z M125.65-21.491c0,0.866-0.701,1.568-1.567,1.568
			s-1.568-0.702-1.568-1.568s0.702-1.567,1.568-1.567S125.65-22.356,125.65-21.491z M125.65-14.359c0,0.866-0.701,1.567-1.567,1.567
			s-1.568-0.701-1.568-1.567c0-0.865,0.702-1.568,1.568-1.568S125.65-15.224,125.65-14.359z M117.378-85.679
			c0,0.866-0.703,1.568-1.567,1.568c-0.866,0-1.569-0.703-1.569-1.568c0-0.866,0.704-1.568,1.569-1.568
			C116.676-87.247,117.378-86.545,117.378-85.679z M117.378-107.075c0,0.866-0.703,1.567-1.567,1.567
			c-0.866,0-1.569-0.702-1.569-1.567s0.704-1.568,1.569-1.568C116.676-108.643,117.378-107.94,117.378-107.075z M117.378-78.547
			c0,0.867-0.703,1.569-1.567,1.569c-0.866,0-1.569-0.702-1.569-1.569c0-0.866,0.704-1.567,1.569-1.567
			C116.676-80.114,117.378-79.413,117.378-78.547z M117.378-99.942c0,0.866-0.703,1.567-1.567,1.567
			c-0.866,0-1.569-0.702-1.569-1.567c0-0.867,0.704-1.568,1.569-1.568C116.676-101.51,117.378-100.809,117.378-99.942z
			 M125.65-28.623c0,0.866-0.701,1.567-1.567,1.567s-1.568-0.702-1.568-1.567c0-0.866,0.702-1.568,1.568-1.568
			S125.65-29.489,125.65-28.623z M125.65-35.755c0,0.866-0.701,1.567-1.567,1.567s-1.568-0.701-1.568-1.567
			c0-0.866,0.702-1.567,1.568-1.567S125.65-36.621,125.65-35.755z M125.65-64.282c0,0.866-0.701,1.567-1.567,1.567
			s-1.568-0.702-1.568-1.567c0-0.867,0.702-1.568,1.568-1.568S125.65-65.149,125.65-64.282z M125.65-78.547
			c0,0.867-0.701,1.569-1.567,1.569s-1.568-0.702-1.568-1.569c0-0.866,0.702-1.567,1.568-1.567S125.65-79.413,125.65-78.547z
			 M125.65-85.679c0,0.866-0.701,1.568-1.567,1.568s-1.568-0.703-1.568-1.568c0-0.866,0.702-1.568,1.568-1.568
			S125.65-86.545,125.65-85.679z M125.65-71.415c0,0.866-0.701,1.568-1.567,1.568s-1.568-0.702-1.568-1.568s0.702-1.568,1.568-1.568
			S125.65-72.281,125.65-71.415z M125.65-42.887c0,0.866-0.701,1.568-1.567,1.568s-1.568-0.702-1.568-1.568
			c0-0.866,0.702-1.567,1.568-1.567S125.65-43.753,125.65-42.887z M109.106-57.15c0,0.866-0.703,1.568-1.568,1.568
			s-1.567-0.702-1.567-1.568s0.702-1.568,1.567-1.568S109.106-58.017,109.106-57.15z M125.65-57.15c0,0.866-0.701,1.568-1.567,1.568
			s-1.568-0.702-1.568-1.568s0.702-1.568,1.568-1.568S125.65-58.017,125.65-57.15z M117.378-50.019c0,0.866-0.703,1.567-1.567,1.567
			c-0.866,0-1.569-0.702-1.569-1.567s0.704-1.568,1.569-1.568C116.676-51.587,117.378-50.884,117.378-50.019z M109.106-85.679
			c0,0.866-0.703,1.568-1.568,1.568s-1.567-0.703-1.567-1.568c0-0.866,0.702-1.568,1.567-1.568S109.106-86.545,109.106-85.679z
			 M117.378-0.095c0,0.032-0.003,0.063-0.004,0.095h-3.126c-0.002-0.032-0.006-0.062-0.006-0.095c0-0.866,0.704-1.567,1.569-1.567
			C116.676-1.662,117.378-0.961,117.378-0.095z M109.106-99.942c0,0.866-0.703,1.567-1.568,1.567s-1.567-0.702-1.567-1.567
			c0-0.867,0.702-1.568,1.567-1.568S109.106-100.809,109.106-99.942z M109.106-107.075c0,0.866-0.703,1.567-1.568,1.567
			s-1.567-0.702-1.567-1.567s0.702-1.568,1.567-1.568S109.106-107.94,109.106-107.075z M109.106-92.811
			c0,0.866-0.703,1.567-1.568,1.567s-1.567-0.701-1.567-1.567c0-0.866,0.702-1.568,1.567-1.568S109.106-93.677,109.106-92.811z
			 M109.106-78.547c0,0.867-0.703,1.569-1.568,1.569s-1.567-0.702-1.567-1.569c0-0.866,0.702-1.567,1.567-1.567
			S109.106-79.413,109.106-78.547z M109.106-64.282c0,0.866-0.703,1.567-1.568,1.567s-1.567-0.702-1.567-1.567
			c0-0.867,0.702-1.568,1.567-1.568S109.106-65.149,109.106-64.282z M109.106-71.415c0,0.866-0.703,1.568-1.568,1.568
			s-1.567-0.702-1.567-1.568s0.702-1.568,1.567-1.568S109.106-72.281,109.106-71.415z M117.378-28.623
			c0,0.866-0.703,1.567-1.567,1.567c-0.866,0-1.569-0.702-1.569-1.567c0-0.866,0.704-1.568,1.569-1.568
			C116.676-30.19,117.378-29.489,117.378-28.623z M125.65-92.811c0,0.866-0.701,1.567-1.567,1.567s-1.568-0.701-1.568-1.567
			c0-0.866,0.702-1.568,1.568-1.568S125.65-93.677,125.65-92.811z M117.378-42.887c0,0.866-0.703,1.568-1.567,1.568
			c-0.866,0-1.569-0.702-1.569-1.568c0-0.866,0.704-1.567,1.569-1.567C116.676-44.454,117.378-43.753,117.378-42.887z
			 M117.378-57.15c0,0.866-0.703,1.568-1.567,1.568c-0.866,0-1.569-0.702-1.569-1.568s0.704-1.568,1.569-1.568
			C116.676-58.718,117.378-58.017,117.378-57.15z M117.378-35.755c0,0.866-0.703,1.567-1.567,1.567
			c-0.866,0-1.569-0.701-1.569-1.567c0-0.866,0.704-1.567,1.569-1.567C116.676-37.322,117.378-36.621,117.378-35.755z
			 M117.378-21.491c0,0.866-0.703,1.568-1.567,1.568c-0.866,0-1.569-0.702-1.569-1.568s0.704-1.567,1.569-1.567
			C116.676-23.058,117.378-22.356,117.378-21.491z M117.378-64.282c0,0.866-0.703,1.567-1.567,1.567
			c-0.866,0-1.569-0.702-1.569-1.567c0-0.867,0.704-1.568,1.569-1.568C116.676-65.851,117.378-65.149,117.378-64.282z
			 M117.378-7.227c0,0.866-0.703,1.568-1.567,1.568c-0.866,0-1.569-0.702-1.569-1.568c0-0.866,0.704-1.567,1.569-1.567
			C116.676-8.794,117.378-8.093,117.378-7.227z M117.378-14.359c0,0.866-0.703,1.567-1.567,1.567c-0.866,0-1.569-0.701-1.569-1.567
			c0-0.865,0.704-1.568,1.569-1.568C116.676-15.927,117.378-15.224,117.378-14.359z M125.65-50.019c0,0.866-0.701,1.567-1.567,1.567
			s-1.568-0.702-1.568-1.567s0.702-1.568,1.568-1.568S125.65-50.884,125.65-50.019z M81.154-114.207h3.136
			c0,0.866-0.703,1.568-1.568,1.568C81.856-112.639,81.154-113.341,81.154-114.207z M97.698-114.207h3.136
			c0,0.866-0.702,1.568-1.568,1.568C98.4-112.639,97.698-113.341,97.698-114.207z M89.426-114.207h3.136
			c0,0.866-0.703,1.568-1.568,1.568C90.128-112.639,89.426-113.341,89.426-114.207z M64.609-114.207h3.136
			c0,0.866-0.703,1.568-1.568,1.568C65.312-112.639,64.609-113.341,64.609-114.207z M76.017-0.095c0,0.032-0.002,0.063-0.004,0.095
			h-3.126c-0.001-0.032-0.004-0.062-0.004-0.095c0-0.866,0.701-1.567,1.567-1.567S76.017-0.961,76.017-0.095z M122.515-114.207
			h3.135c0,0.866-0.701,1.568-1.567,1.568S122.515-113.341,122.515-114.207z M105.971-114.207h3.136
			c0,0.866-0.703,1.568-1.568,1.568S105.971-113.341,105.971-114.207z M114.242-114.207h3.137c0,0.866-0.703,1.568-1.567,1.568
			C114.945-112.639,114.242-113.341,114.242-114.207z M72.882-114.207h3.134c0,0.866-0.702,1.568-1.567,1.568
			S72.882-113.341,72.882-114.207z M6.705-114.207h3.135c0,0.866-0.702,1.568-1.567,1.568S6.705-113.341,6.705-114.207z
			 M125.65-99.942c0,0.866-0.701,1.567-1.567,1.567s-1.568-0.702-1.568-1.567c0-0.867,0.702-1.568,1.568-1.568
			S125.65-100.809,125.65-99.942z M14.976-114.207h3.136c0,0.866-0.702,1.568-1.568,1.568
			C15.678-112.639,14.976-113.341,14.976-114.207z M0-114.207h1.568c0,0.866-0.703,1.568-1.568,1.568V-114.207z M56.337-114.207
			h3.136c0,0.866-0.703,1.568-1.568,1.568S56.337-113.341,56.337-114.207z M48.065-114.207H51.2c0,0.866-0.701,1.568-1.567,1.568
			S48.065-113.341,48.065-114.207z M31.521-114.207h3.135c0,0.866-0.702,1.568-1.568,1.568S31.521-113.341,31.521-114.207z
			 M39.793-114.207h3.135c0,0.866-0.701,1.568-1.567,1.568C40.495-112.639,39.793-113.341,39.793-114.207z M23.249-114.207h3.135
			c0,0.866-0.702,1.568-1.568,1.568S23.249-113.341,23.249-114.207z M132.355-30.19c0.064,0,0.127,0.005,0.19,0.013v3.11
			c-0.062,0.008-0.125,0.013-0.19,0.013c-0.866,0-1.568-0.702-1.568-1.567C130.787-29.489,131.489-30.19,132.355-30.19z
			 M132.355-23.058c0.064,0,0.127,0.004,0.19,0.012v3.11c-0.062,0.008-0.125,0.013-0.19,0.013c-0.866,0-1.568-0.702-1.568-1.568
			S131.489-23.058,132.355-23.058z M132.355-44.454c0.064,0,0.127,0.005,0.19,0.012v3.11c-0.062,0.007-0.125,0.013-0.19,0.013
			c-0.866,0-1.568-0.702-1.568-1.568C130.787-43.753,131.489-44.454,132.355-44.454z M132.355-37.322
			c0.064,0,0.127,0.004,0.19,0.012v3.11c-0.062,0.008-0.125,0.012-0.19,0.012c-0.866,0-1.568-0.701-1.568-1.567
			C130.787-36.621,131.489-37.322,132.355-37.322z M132.355-8.794c0.064,0,0.127,0.005,0.19,0.013v3.11
			c-0.062,0.007-0.125,0.013-0.19,0.013c-0.866,0-1.568-0.702-1.568-1.568C130.787-8.093,131.489-8.794,132.355-8.794z
			 M125.65-107.075c0,0.866-0.701,1.567-1.567,1.567s-1.568-0.702-1.568-1.567s0.702-1.568,1.568-1.568
			S125.65-107.94,125.65-107.075z M132.355-15.927c0.064,0,0.127,0.005,0.19,0.013v3.11c-0.062,0.007-0.125,0.012-0.19,0.012
			c-0.866,0-1.568-0.701-1.568-1.567C130.787-15.224,131.489-15.927,132.355-15.927z M132.355-1.662c0.064,0,0.127,0.005,0.19,0.012
			V0h-1.753c-0.002-0.032-0.005-0.062-0.005-0.095C130.787-0.961,131.489-1.662,132.355-1.662z M132.355-80.114
			c0.064,0,0.127,0.005,0.19,0.012v3.111c-0.062,0.008-0.125,0.013-0.19,0.013c-0.866,0-1.568-0.702-1.568-1.569
			C130.787-79.413,131.489-80.114,132.355-80.114z M132.355-94.379c0.064,0,0.127,0.005,0.19,0.013v3.11
			c-0.062,0.007-0.125,0.012-0.19,0.012c-0.866,0-1.568-0.701-1.568-1.567C130.787-93.677,131.489-94.379,132.355-94.379z
			 M132.355-51.587c0.064,0,0.127,0.006,0.19,0.013v3.11c-0.062,0.007-0.125,0.013-0.19,0.013c-0.866,0-1.568-0.702-1.568-1.567
			S131.489-51.587,132.355-51.587z M132.355-87.247c0.064,0,0.127,0.005,0.19,0.013v3.11c-0.062,0.008-0.125,0.014-0.19,0.014
			c-0.866,0-1.568-0.703-1.568-1.568C130.787-86.545,131.489-87.247,132.355-87.247z M132.355-101.51
			c0.064,0,0.127,0.005,0.19,0.012v3.11c-0.062,0.007-0.125,0.013-0.19,0.013c-0.866,0-1.568-0.702-1.568-1.567
			C130.787-100.809,131.489-101.51,132.355-101.51z M132.355-108.643c0.064,0,0.127,0.005,0.19,0.013v3.11
			c-0.062,0.008-0.125,0.013-0.19,0.013c-0.866,0-1.568-0.702-1.568-1.567S131.489-108.643,132.355-108.643z M132.355-58.718
			c0.064,0,0.127,0.004,0.19,0.013v3.11c-0.062,0.007-0.125,0.013-0.19,0.013c-0.866,0-1.568-0.702-1.568-1.568
			S131.489-58.718,132.355-58.718z M132.355-65.851c0.064,0,0.127,0.004,0.19,0.013v3.11c-0.062,0.008-0.125,0.013-0.19,0.013
			c-0.866,0-1.568-0.702-1.568-1.567C130.787-65.149,131.489-65.851,132.355-65.851z M132.355-72.983
			c0.064,0,0.127,0.005,0.19,0.013v3.11c-0.062,0.008-0.125,0.013-0.19,0.013c-0.866,0-1.568-0.702-1.568-1.568
			S131.489-72.983,132.355-72.983z M132.545-114.207v1.556c-0.062,0.007-0.125,0.012-0.19,0.012c-0.866,0-1.568-0.702-1.568-1.568
			H132.545z M84.29-50.019c0,0.866-0.703,1.567-1.568,1.567c-0.866,0-1.567-0.702-1.567-1.567s0.702-1.568,1.567-1.568
			C83.587-51.587,84.29-50.884,84.29-50.019z M84.29-42.887c0,0.866-0.703,1.568-1.568,1.568c-0.866,0-1.567-0.702-1.567-1.568
			c0-0.866,0.702-1.567,1.567-1.567C83.587-44.454,84.29-43.753,84.29-42.887z M84.29-7.227c0,0.866-0.703,1.568-1.568,1.568
			c-0.866,0-1.567-0.702-1.567-1.568c0-0.866,0.702-1.567,1.567-1.567C83.587-8.794,84.29-8.093,84.29-7.227z M84.29-64.282
			c0,0.866-0.703,1.567-1.568,1.567c-0.866,0-1.567-0.702-1.567-1.567c0-0.867,0.702-1.568,1.567-1.568
			C83.587-65.851,84.29-65.149,84.29-64.282z M84.29-57.15c0,0.866-0.703,1.568-1.568,1.568c-0.866,0-1.567-0.702-1.567-1.568
			s0.702-1.568,1.567-1.568C83.587-58.718,84.29-58.017,84.29-57.15z M84.29-21.491c0,0.866-0.703,1.568-1.568,1.568
			c-0.866,0-1.567-0.702-1.567-1.568s0.702-1.567,1.567-1.567C83.587-23.058,84.29-22.356,84.29-21.491z M84.29-28.623
			c0,0.866-0.703,1.567-1.568,1.567c-0.866,0-1.567-0.702-1.567-1.567c0-0.866,0.702-1.568,1.567-1.568
			C83.587-30.19,84.29-29.489,84.29-28.623z M84.29-35.755c0,0.866-0.703,1.567-1.568,1.567c-0.866,0-1.567-0.701-1.567-1.567
			c0-0.866,0.702-1.567,1.567-1.567C83.587-37.322,84.29-36.621,84.29-35.755z M84.29-71.415c0,0.866-0.703,1.568-1.568,1.568
			c-0.866,0-1.567-0.702-1.567-1.568s0.702-1.568,1.567-1.568C83.587-72.983,84.29-72.281,84.29-71.415z M92.562-21.491
			c0,0.866-0.703,1.568-1.568,1.568c-0.866,0-1.568-0.702-1.568-1.568s0.703-1.567,1.568-1.567
			C91.859-23.058,92.562-22.356,92.562-21.491z M92.562-0.095c0,0.032-0.003,0.063-0.005,0.095h-3.125
			c-0.003-0.032-0.006-0.062-0.006-0.095c0-0.866,0.703-1.567,1.568-1.567C91.859-1.662,92.562-0.961,92.562-0.095z M84.29-107.075
			c0,0.866-0.703,1.567-1.568,1.567c-0.866,0-1.567-0.702-1.567-1.567s0.702-1.568,1.567-1.568
			C83.587-108.643,84.29-107.94,84.29-107.075z M92.562-7.227c0,0.866-0.703,1.568-1.568,1.568c-0.866,0-1.568-0.702-1.568-1.568
			c0-0.866,0.703-1.567,1.568-1.567C91.859-8.794,92.562-8.093,92.562-7.227z M92.562-14.359c0,0.866-0.703,1.567-1.568,1.567
			c-0.866,0-1.568-0.701-1.568-1.567c0-0.865,0.703-1.568,1.568-1.568C91.859-15.927,92.562-15.224,92.562-14.359z M84.29-99.942
			c0,0.866-0.703,1.567-1.568,1.567c-0.866,0-1.567-0.702-1.567-1.567c0-0.867,0.702-1.568,1.567-1.568
			C83.587-101.51,84.29-100.809,84.29-99.942z M84.29-85.679c0,0.866-0.703,1.568-1.568,1.568c-0.866,0-1.567-0.703-1.567-1.568
			c0-0.866,0.702-1.568,1.567-1.568C83.587-87.247,84.29-86.545,84.29-85.679z M84.29-92.811c0,0.866-0.703,1.567-1.568,1.567
			c-0.866,0-1.567-0.701-1.567-1.567c0-0.866,0.702-1.568,1.567-1.568C83.587-94.379,84.29-93.677,84.29-92.811z M84.29-78.547
			c0,0.867-0.703,1.569-1.568,1.569c-0.866,0-1.567-0.702-1.567-1.569c0-0.866,0.702-1.567,1.567-1.567
			C83.587-80.114,84.29-79.413,84.29-78.547z M76.017-35.755c0,0.866-0.702,1.567-1.567,1.567s-1.567-0.701-1.567-1.567
			c0-0.866,0.701-1.567,1.567-1.567S76.017-36.621,76.017-35.755z M76.017-42.887c0,0.866-0.702,1.568-1.567,1.568
			s-1.567-0.702-1.567-1.568c0-0.866,0.701-1.567,1.567-1.567S76.017-43.753,76.017-42.887z M76.017-28.623
			c0,0.866-0.702,1.567-1.567,1.567s-1.567-0.702-1.567-1.567c0-0.866,0.701-1.568,1.567-1.568S76.017-29.489,76.017-28.623z
			 M76.017-50.019c0,0.866-0.702,1.567-1.567,1.567s-1.567-0.702-1.567-1.567s0.701-1.568,1.567-1.568S76.017-50.884,76.017-50.019z
			 M76.017-7.227c0,0.866-0.702,1.568-1.567,1.568s-1.567-0.702-1.567-1.568c0-0.866,0.701-1.567,1.567-1.567
			S76.017-8.093,76.017-7.227z M76.017-14.359c0,0.866-0.702,1.567-1.567,1.567s-1.567-0.701-1.567-1.567
			c0-0.865,0.701-1.568,1.567-1.568S76.017-15.224,76.017-14.359z M76.017-57.15c0,0.866-0.702,1.568-1.567,1.568
			s-1.567-0.702-1.567-1.568s0.701-1.568,1.567-1.568S76.017-58.017,76.017-57.15z M76.017-21.491c0,0.866-0.702,1.568-1.567,1.568
			s-1.567-0.702-1.567-1.568s0.701-1.567,1.567-1.567S76.017-22.356,76.017-21.491z M76.017-71.415c0,0.866-0.702,1.568-1.567,1.568
			s-1.567-0.702-1.567-1.568s0.701-1.568,1.567-1.568S76.017-72.281,76.017-71.415z M76.017-92.811c0,0.866-0.702,1.567-1.567,1.567
			s-1.567-0.701-1.567-1.567c0-0.866,0.701-1.568,1.567-1.568S76.017-93.677,76.017-92.811z M76.017-99.942
			c0,0.866-0.702,1.567-1.567,1.567s-1.567-0.702-1.567-1.567c0-0.867,0.701-1.568,1.567-1.568S76.017-100.809,76.017-99.942z
			 M76.017-107.075c0,0.866-0.702,1.567-1.567,1.567s-1.567-0.702-1.567-1.567s0.701-1.568,1.567-1.568
			S76.017-107.94,76.017-107.075z M76.017-64.282c0,0.866-0.702,1.567-1.567,1.567s-1.567-0.702-1.567-1.567
			c0-0.867,0.701-1.568,1.567-1.568S76.017-65.149,76.017-64.282z M84.29-0.095c0,0.032-0.003,0.063-0.005,0.095h-3.126
			c-0.002-0.032-0.004-0.062-0.004-0.095c0-0.866,0.702-1.567,1.567-1.567C83.587-1.662,84.29-0.961,84.29-0.095z M84.29-14.359
			c0,0.866-0.703,1.567-1.568,1.567c-0.866,0-1.567-0.701-1.567-1.567c0-0.865,0.702-1.568,1.567-1.568
			C83.587-15.927,84.29-15.224,84.29-14.359z M76.017-78.547c0,0.867-0.702,1.569-1.567,1.569s-1.567-0.702-1.567-1.569
			c0-0.866,0.701-1.567,1.567-1.567S76.017-79.413,76.017-78.547z M76.017-85.679c0,0.866-0.702,1.568-1.567,1.568
			s-1.567-0.703-1.567-1.568c0-0.866,0.701-1.568,1.567-1.568S76.017-86.545,76.017-85.679z M92.562-50.019
			c0,0.866-0.703,1.567-1.568,1.567c-0.866,0-1.568-0.702-1.568-1.567s0.703-1.568,1.568-1.568
			C91.859-51.587,92.562-50.884,92.562-50.019z M100.834-78.547c0,0.867-0.702,1.569-1.568,1.569c-0.865,0-1.567-0.702-1.567-1.569
			c0-0.866,0.702-1.567,1.567-1.567C100.132-80.114,100.834-79.413,100.834-78.547z M100.834-85.679
			c0,0.866-0.702,1.568-1.568,1.568c-0.865,0-1.567-0.703-1.567-1.568c0-0.866,0.702-1.568,1.567-1.568
			C100.132-87.247,100.834-86.545,100.834-85.679z M100.834-71.415c0,0.866-0.702,1.568-1.568,1.568
			c-0.865,0-1.567-0.702-1.567-1.568s0.702-1.568,1.567-1.568C100.132-72.983,100.834-72.281,100.834-71.415z M100.834-92.811
			c0,0.866-0.702,1.567-1.568,1.567c-0.865,0-1.567-0.701-1.567-1.567c0-0.866,0.702-1.568,1.567-1.568
			C100.132-94.379,100.834-93.677,100.834-92.811z M100.834-57.15c0,0.866-0.702,1.568-1.568,1.568
			c-0.865,0-1.567-0.702-1.567-1.568s0.702-1.568,1.567-1.568C100.132-58.718,100.834-58.017,100.834-57.15z M100.834-50.019
			c0,0.866-0.702,1.567-1.568,1.567c-0.865,0-1.567-0.702-1.567-1.567s0.702-1.568,1.567-1.568
			C100.132-51.587,100.834-50.884,100.834-50.019z M100.834-99.942c0,0.866-0.702,1.567-1.568,1.567
			c-0.865,0-1.567-0.702-1.567-1.567c0-0.867,0.702-1.568,1.567-1.568C100.132-101.51,100.834-100.809,100.834-99.942z
			 M100.834-64.282c0,0.866-0.702,1.567-1.568,1.567c-0.865,0-1.567-0.702-1.567-1.567c0-0.867,0.702-1.568,1.567-1.568
			C100.132-65.851,100.834-65.149,100.834-64.282z M109.106-28.623c0,0.866-0.703,1.567-1.568,1.567s-1.567-0.702-1.567-1.567
			c0-0.866,0.702-1.568,1.567-1.568S109.106-29.489,109.106-28.623z M100.834-42.887c0,0.866-0.702,1.568-1.568,1.568
			c-0.865,0-1.567-0.702-1.567-1.568c0-0.866,0.702-1.567,1.567-1.567C100.132-44.454,100.834-43.753,100.834-42.887z
			 M109.106-35.755c0,0.866-0.703,1.567-1.568,1.567s-1.567-0.701-1.567-1.567c0-0.866,0.702-1.567,1.567-1.567
			S109.106-36.621,109.106-35.755z M92.562-28.623c0,0.866-0.703,1.567-1.568,1.567c-0.866,0-1.568-0.702-1.568-1.567
			c0-0.866,0.703-1.568,1.568-1.568C91.859-30.19,92.562-29.489,92.562-28.623z M100.834-107.075c0,0.866-0.702,1.567-1.568,1.567
			c-0.865,0-1.567-0.702-1.567-1.567s0.702-1.568,1.567-1.568C100.132-108.643,100.834-107.94,100.834-107.075z M109.106-21.491
			c0,0.866-0.703,1.568-1.568,1.568s-1.567-0.702-1.567-1.568s0.702-1.567,1.567-1.567S109.106-22.356,109.106-21.491z
			 M109.106-0.095c0,0.032-0.003,0.063-0.005,0.095h-3.126c-0.002-0.032-0.004-0.062-0.004-0.095c0-0.866,0.702-1.567,1.567-1.567
			S109.106-0.961,109.106-0.095z M109.106-7.227c0,0.866-0.703,1.568-1.568,1.568s-1.567-0.702-1.567-1.568
			c0-0.866,0.702-1.567,1.567-1.567S109.106-8.093,109.106-7.227z M109.106-14.359c0,0.866-0.703,1.567-1.568,1.567
			s-1.567-0.701-1.567-1.567c0-0.865,0.702-1.568,1.567-1.568S109.106-15.224,109.106-14.359z M109.106-42.887
			c0,0.866-0.703,1.568-1.568,1.568s-1.567-0.702-1.567-1.568c0-0.866,0.702-1.567,1.567-1.567S109.106-43.753,109.106-42.887z
			 M92.562-71.415c0,0.866-0.703,1.568-1.568,1.568c-0.866,0-1.568-0.702-1.568-1.568s0.703-1.568,1.568-1.568
			C91.859-72.983,92.562-72.281,92.562-71.415z M92.562-85.679c0,0.866-0.703,1.568-1.568,1.568c-0.866,0-1.568-0.703-1.568-1.568
			c0-0.866,0.703-1.568,1.568-1.568C91.859-87.247,92.562-86.545,92.562-85.679z M92.562-64.282c0,0.866-0.703,1.567-1.568,1.567
			c-0.866,0-1.568-0.702-1.568-1.567c0-0.867,0.703-1.568,1.568-1.568C91.859-65.851,92.562-65.149,92.562-64.282z M92.562-78.547
			c0,0.867-0.703,1.569-1.568,1.569c-0.866,0-1.568-0.702-1.568-1.569c0-0.866,0.703-1.567,1.568-1.567
			C91.859-80.114,92.562-79.413,92.562-78.547z M92.562-57.15c0,0.866-0.703,1.568-1.568,1.568c-0.866,0-1.568-0.702-1.568-1.568
			s0.703-1.568,1.568-1.568C91.859-58.718,92.562-58.017,92.562-57.15z M92.562-35.755c0,0.866-0.703,1.567-1.568,1.567
			c-0.866,0-1.568-0.701-1.568-1.567c0-0.866,0.703-1.567,1.568-1.567C91.859-37.322,92.562-36.621,92.562-35.755z M92.562-42.887
			c0,0.866-0.703,1.568-1.568,1.568c-0.866,0-1.568-0.702-1.568-1.568c0-0.866,0.703-1.567,1.568-1.567
			C91.859-44.454,92.562-43.753,92.562-42.887z M109.106-50.019c0,0.866-0.703,1.567-1.568,1.567s-1.567-0.702-1.567-1.567
			s0.702-1.568,1.567-1.568S109.106-50.884,109.106-50.019z M92.562-92.811c0,0.866-0.703,1.567-1.568,1.567
			c-0.866,0-1.568-0.701-1.568-1.567c0-0.866,0.703-1.568,1.568-1.568C91.859-94.379,92.562-93.677,92.562-92.811z M100.834-21.491
			c0,0.866-0.702,1.568-1.568,1.568c-0.865,0-1.567-0.702-1.567-1.568s0.702-1.567,1.567-1.567
			C100.132-23.058,100.834-22.356,100.834-21.491z M100.834-35.755c0,0.866-0.702,1.567-1.568,1.567
			c-0.865,0-1.567-0.701-1.567-1.567c0-0.866,0.702-1.567,1.567-1.567C100.132-37.322,100.834-36.621,100.834-35.755z
			 M100.834-7.227c0,0.866-0.702,1.568-1.568,1.568c-0.865,0-1.567-0.702-1.567-1.568c0-0.866,0.702-1.567,1.567-1.567
			C100.132-8.794,100.834-8.093,100.834-7.227z M100.834-28.623c0,0.866-0.702,1.567-1.568,1.567c-0.865,0-1.567-0.702-1.567-1.567
			c0-0.866,0.702-1.568,1.567-1.568C100.132-30.19,100.834-29.489,100.834-28.623z M100.834-14.359c0,0.866-0.702,1.567-1.568,1.567
			c-0.865,0-1.567-0.701-1.567-1.567c0-0.865,0.702-1.568,1.567-1.568C100.132-15.927,100.834-15.224,100.834-14.359z
			 M100.834-0.095c0,0.032-0.003,0.063-0.005,0.095h-3.126c-0.001-0.032-0.004-0.062-0.004-0.095c0-0.866,0.702-1.567,1.567-1.567
			C100.132-1.662,100.834-0.961,100.834-0.095z M92.562-99.942c0,0.866-0.703,1.567-1.568,1.567c-0.866,0-1.568-0.702-1.568-1.567
			c0-0.867,0.703-1.568,1.568-1.568C91.859-101.51,92.562-100.809,92.562-99.942z M92.562-107.075c0,0.866-0.703,1.567-1.568,1.567
			c-0.866,0-1.568-0.702-1.568-1.567s0.703-1.568,1.568-1.568C91.859-108.643,92.562-107.94,92.562-107.075z"/>
	</g>
</pattern>
<circle opacity="0.17" fill="#FFFFFF" cx="394.982" cy="394.982" r="394.982"/>
<path fill="#FFFFFF" d="M112.561,164.485c0,0,40.661,23.004,64.045,13.073c18.356-7.797,27.72-47.127,27.72-47.127
	s-15.831-3.479-15.07-3.595c0.763-0.116-7.214,21.575-16.857,37.06c-5.104,8.197-34.473-10.627-34.473-10.627"/>
<path fill="#FFFFFF" d="M45.469,201.26c-0.468,0.612-0.928,1.233-1.375,1.873c-1.448,2.073-12.903,20.589-13.928,22.566
	c13.688,2.805,17.78,13.045,29.215,21.124c3.908,1.973,79.914,119.471,83.465,122.087c2.075-2.203,41.794-17.984,31.474-52.719
	c-11.594-39.02-65.119-96.11-69.84-100.832C85.656,210.059,65.58,203.517,45.469,201.26z"/>
<path fill="#0DA2DD" d="M93.616,182.325c-17.209-3.982-35.976,2.952-48.147,18.935c28.397,2.635,47.662,11.121,59.314,14.402
	c0.354-0.479-0.846-1.194-0.508-1.668c-1.729-10.897,0.038-23.414-7.973-31.495C96.08,182.312,93.842,182.509,93.616,182.325z"/>
<path fill="#FFFFFF" d="M96.637,182.889c8.011,8.081,6.417,21.725,8.146,32.622c1.069-1.504,39.03,79.838,71.109,92.812
	s35.837-10.917,36.677-13.084c-2.479-4.505-93.161-102.621-101.937-105.855C104.803,187.234,99.354,185.16,96.637,182.889z"/>
<polygon fill="#1E1E1C" points="220.499,104.707 188.321,110.336 188.572,105.27 220.989,101.858 "/>
<g>
	<polyline fill="#FFFFFF" points="224.832,89.331 260.51,91.102 246.803,141.957 214.613,154.22 	"/>
</g>
<path fill="#FFFFFF" d="M192.429,126.424c0,0-2.284-13.762,4.686-20.707c6.968-6.944,16.734-5.225,16.734-5.225
	s3.158,0.952-0.67,3.114c-3.829,2.163,1.574-0.958,0.806,2.458c-0.769,3.417-10.388,8.042-10.388,8.042s0.926,6.464,0.668,10.94
	C203.991,129.821,195.65,127.796,192.429,126.424z"/>
<g>
	<path fill="#FFFFFF" d="M123.712,136.796c-4.559,3.418-9.559,7.77-10.894,13.59c-9.633,41.996,67.478,135.63,67.478,135.63
		c8.061-1.498,58.331,5.135,68.039-25.011C189.066,163.928,123.869,137.973,123.712,136.796z"/>
</g>
<g>
	<path fill="#0DA2DD" d="M150.257,134.992c-3.842-3.357-8.434-5.031-12.714-4.828c-4.93,0.044-10.626,2.277-15.646,6.039
		c0.156,1.177,6.356,3.896,6.356,3.896c24.683,15.597,26.159,17.083,38.766,26.197c1.304-0.945,3.969-1.088,5.148-1.969
		c-4.798-7.827-19.229-25.415-25.352-31.892C146.496,132.167,150.574,135.27,150.257,134.992z"/>
</g>
<g>
	<path fill="#FFFFFF" d="M252.299,205.094c-3.059-0.117-93.826-63.927-104.271-72.669c6.123,6.477,85.49,117.34,102.352,126.537
		C274.903,264.582,259.19,205.357,252.299,205.094z"/>
</g>
<g>
	<circle fill="#0DA2DD" cx="412.264" cy="404.932" r="360.147"/>
	<g>
		<defs>
			<path id="SVGID_1_" d="M54.286,405.253c0-98.074,39.301-186.97,103.014-251.796C222.478,87.142,313.198,46.014,413.525,46.014
				c198.402,0,359.24,160.838,359.24,359.239c0,198.402-160.838,359.24-359.24,359.24
				C215.124,764.493,54.286,603.655,54.286,405.253z"/>
		</defs>
		<clipPath id="SVGID_2_">
			<use xlink:href="#SVGID_1_"  overflow="visible"/>
		</clipPath>
		<g clip-path="url(#SVGID_2_)">
			<g>
				<path fill="url(#New_Pattern_5)" d="M795.782,356c-10.495-1.096-127.621,46.121-137.319,41.959
					c-14.049-6.029-103.502,39.059-113.49,27.485c-7.705-8.926-21.565-7.956-33.229-6.23c-10.057,1.488-20.277,3.024-29.493,7.315
					c-9.827,4.575-18.622,12.287-29.415,13.288c-16.476,1.528-32.854-13.143-48.253-7.087c-8.897,3.5-15.809,13.562-25.269,12.178
					c-7.154-1.047-11.558-8.377-13.758-15.266c-2.199-6.889-3.46-14.511-8.464-19.73c-1.975-2.061-4.505-3.707-5.747-6.275
					c-1.433-2.96-0.832-6.439-0.65-9.724c0.524-9.441-2.883-19.041-9.24-26.04c-2.18-2.399-4.729-4.562-6.175-7.462
					c-1.215-2.437-1.552-5.207-1.772-7.922c-1.811-22.372,3.342-45.26,14.566-64.697c4.19-7.255,13.216-14.807,19.839-9.674
					c0.739-10.878,1.479-21.755,2.22-32.633c0.15-2.219,0.338-4.549,1.564-6.404c1.531-2.316,4.32-3.382,6.872-4.479
					c10.747-4.621,20.205-12.198,27.059-21.679c4.199-5.809,6.786-15.233,0.763-19.12c-4.055-2.617-9.351-0.756-14.175-0.622
					c-11.543,0.321-21.094-10.204-23.728-21.447c-2.635-11.243-0.042-22.975,2.546-34.229c6.164-26.803,12.328-53.606,18.492-80.409
					c-11.76,0.854-13.386,18.765-23.515,24.803c-5.312,3.167-12.083,2.47-17.858,4.685c-10.886,4.175-15.188,16.872-19.663,27.638
					s-13.35,22.514-24.862,20.675c-3.891-0.622-7.402-2.799-11.296-3.406c-9.713-1.518-18.02,6.835-23.48,15.011
					c-19.859,29.734-26.739,67.824-18.534,102.628c1.124,4.766,2.526,9.596,2.068,14.472c-0.33,3.516-1.614,6.859-2.527,10.271
					c-4.213,15.748,0.019,33.496,10.885,45.65c2.827-5.346,10.242-7.658,15.606-4.867c3.807,11.846,3.786,24.888-0.057,36.722
					c-1.316,4.056-3.094,8.131-2.827,12.387c0.793,12.683,18.716,20.029,17.595,32.687c-0.312,3.522-2.151,6.718-2.986,10.154
					c-2.742,11.287,8.145,23.598,19.682,22.258c-1.134,18.548-8.328,36.676-20.222,50.954c-12.68,15.223-30.55,26.271-39.919,43.727
					c-3.858,7.189-7.169,16.192-15.048,18.313c-12.138,3.268-24.485-13.037-35.695-7.354c-2.723,1.381-4.687,3.855-6.861,5.997
					c-8.545,8.414-172.027,84.351-168.671,95.864c8.658,29.704,433.358,257.56,572,208S795.782,356,795.782,356z"/>
				<path fill="url(#New_Pattern_5)" d="M795.782,356c-10.495-1.096-127.621,46.121-137.319,41.959
					c-14.049-6.029-103.502,39.059-113.49,27.485c-7.705-8.926-21.565-7.956-33.229-6.23c-10.057,1.488-20.277,3.024-29.493,7.315
					c-9.827,4.575-18.622,12.287-29.415,13.288c-16.476,1.528-32.854-13.143-48.253-7.087c-8.897,3.5-15.809,13.562-25.269,12.178
					c-7.154-1.047-11.558-8.377-13.758-15.266c-2.199-6.889-3.46-14.511-8.464-19.73c-1.975-2.061-4.505-3.707-5.747-6.275
					c-1.433-2.96-0.832-6.439-0.65-9.724c0.524-9.441-2.883-19.041-9.24-26.04c-2.18-2.399-4.729-4.562-6.175-7.462
					c-1.215-2.437-1.552-5.207-1.772-7.922c-1.811-22.372,3.342-45.26,14.566-64.697c4.19-7.255,13.216-14.807,19.839-9.674
					c0.739-10.878,1.479-21.755,2.22-32.633c0.15-2.219,0.338-4.549,1.564-6.404c1.531-2.316,4.32-3.382,6.872-4.479
					c10.747-4.621,20.205-12.198,27.059-21.679c4.199-5.809,6.786-15.233,0.763-19.12c-4.055-2.617-9.351-0.756-14.175-0.622
					c-11.543,0.321-21.094-10.204-23.728-21.447c-2.635-11.243-0.042-22.975,2.546-34.229c6.164-26.803,12.328-53.606,18.492-80.409
					c-11.76,0.854-13.386,18.765-23.515,24.803c-5.312,3.167-12.083,2.47-17.858,4.685c-10.886,4.175-15.188,16.872-19.663,27.638
					s-13.35,22.514-24.862,20.675c-3.891-0.622-7.402-2.799-11.296-3.406c-9.713-1.518-18.02,6.835-23.48,15.011
					c-19.859,29.734-26.739,67.824-18.534,102.628c1.124,4.766,2.526,9.596,2.068,14.472c-0.33,3.516-1.614,6.859-2.527,10.271
					c-4.213,15.748,0.019,33.496,10.885,45.65c2.827-5.346,10.242-7.658,15.606-4.867c3.807,11.846,3.786,24.888-0.057,36.722
					c-1.316,4.056-3.094,8.131-2.827,12.387c0.793,12.683,18.716,20.029,17.595,32.687c-0.312,3.522-2.151,6.718-2.986,10.154
					c-2.742,11.287,8.145,23.598,19.682,22.258c-1.134,18.548-8.328,36.676-20.222,50.954c-12.68,15.223-30.55,26.271-39.919,43.727
					c-3.858,7.189-7.169,16.192-15.048,18.313c-12.138,3.268-24.485-13.037-35.695-7.354c-2.723,1.381-4.687,3.855-6.861,5.997
					c-8.545,8.414-172.027,84.351-168.671,95.864c8.658,29.704,433.358,257.56,572,208S795.782,356,795.782,356z"/>
			</g>
			<g>
				<path fill="url(#New_Pattern_5)" d="M472.254,397.354c-4.73-8.613,2.782-18.986,10.995-24.381
					c8.214-5.395,18.302-9.629,22.159-18.666c-3.972-8.398-19.099-0.609-25.41-7.426c-3.507-3.788-1.686-10.61,2.775-13.21
					c4.461-2.599,10.348-1.566,14.625,1.325c3.799-2.444,3.039-8.467,0.242-12.014c-2.798-3.547-6.971-5.807-9.781-9.344
					c-4.382-5.516-4.599-13.957-0.505-19.69s12.147-8.27,18.788-5.915c4.111-7.237,4.621-15.971,4.022-24.273
					c-0.776-10.762-4.385-22.868-14.221-27.305c-9.144-4.125-21.308,1.448-24.155,11.066c-2.229,7.53,0.727,15.508,1.227,23.346
					c0.501,7.838-3.554,17.53-11.406,17.657c-7.256,0.118-11.631-10.695-6.335-15.655c1.269-1.188,2.938-2.089,3.603-3.694
					c0.891-2.15-0.408-4.556-1.84-6.39c-4.413-5.654-10.615-9.891-17.488-11.944c-3.806,3.835-5.734,9.45-5.089,14.813
					c0.204,1.702,0.64,3.503-0.053,5.071c-1.509,3.42-6.456,2.808-9.974,4.07c-6.334,2.274-7.554,10.963-5.521,17.379
					c2.034,6.415,6.185,12.226,6.784,18.929c0.489,5.468-1.459,10.838-1.963,16.305c-0.504,5.466,1.086,11.903,6.091,14.157
					c7.671,3.454,19.768-4.103,23.63,3.371c0.909,1.761,0.934,3.991,2.289,5.438c1.324,1.414,3.533,1.643,4.969,2.944
					c4.031,3.656-1.453,9.771-6.289,12.268c-3.882,2.003-7.997,4.061-12.359,3.847c-4.363-0.214-8.893-3.631-8.656-7.993
					c0.094-1.711,0.885-3.438,0.399-5.081c-0.735-2.491-3.89-3.288-6.482-3.147c-7.426,0.404-14.419,5.344-17.282,12.207
					c-1.156,2.774-1.662,5.96-0.642,8.787c1.092,3.029,3.729,5.199,6.322,7.109c11.033,8.131,23.396,14.454,36.448,18.639
					c7.438,2.385,17.168,3.35,21.562-3.107"/>
			</g>
			<g>
				<path fill="url(#New_Pattern_5)" d="M392.371,381.758c2.787-0.601,6.02,3.154,8.023,1.125c0.5-0.505,0.684-1.236,0.814-1.936
					c0.722-3.858,0.425-7.827,0.679-11.745c0.533-8.223,3.565-16.267,8.595-22.794c1.33-1.727,2.892-3.723,2.373-5.84
					c-0.585-2.392-3.74-3.385-6.029-2.478c-2.289,0.908-3.804,3.094-4.928,5.284c-2.436,4.747-3.747,10.131-7.062,14.311
					c-1.396,1.761-3.117,3.262-4.351,5.14c-2.79,4.247-2.554,10.26,0.561,14.274"/>
			</g>
			<g>
				<path fill="url(#New_Pattern_5)" d="M382.802,353.772c6.771-1.699,12.358-7.435,13.88-14.247
					c0.556-2.484,0.605-5.058,1.082-7.559c0.89-4.674,3.224-8.921,5.124-13.283c0.523-1.202,1.026-2.501,0.801-3.794
					c-0.266-1.518-1.466-2.673-2.601-3.714c-2.872-2.635-5.743-5.27-8.614-7.904c-5.021-4.607-10.48-9.43-17.228-10.38
					c-6.961-0.98-14.018,2.563-18.635,7.862c-4.617,5.3-7.104,12.135-8.643,18.993c-1.729,7.707-2.016,16.777,3.503,22.429
					c2.095,2.145,4.813,3.545,7.462,4.948c9.32,4.936,19.42,11.87,20.455,22.364c0.359,3.649,0.354,8.581,3.922,9.432
					c3.133,0.746,5.503-2.72,6.85-5.645"/>
			</g>
			<g>
				<path fill="url(#New_Pattern_5)" d="M472.425,56.02c-8.53,4.719-17.212,10.175-22.032,18.648
					c-4.819,8.474-4.281,20.762,3.654,26.423c6.149,4.387,14.778,3.734,21.121,7.836c7.15,4.623,9.453,13.784,11.998,21.909
					c4.898,15.64,12.752,30.348,23.025,43.118c4.879,6.063,10.45,11.973,12.582,19.458c2.131,7.485-0.742,17.141-8.193,19.387
					c-3.797,1.145-8.385,0.329-11.345,2.968c-3.308,2.949-2.441,8.411-0.272,12.274c2.17,3.863,5.396,7.285,6.278,11.628
					c-4.788,0.696-9.793-0.19-14.05-2.488c-2.542,2.237-1.371,6.71,1.294,8.799c2.664,2.089,6.197,2.57,9.481,3.396
					c11.568,2.911,21.667,11.187,26.795,21.957c5.127,10.77,5.184,23.827,0.15,34.642c-1.683,3.614-3.914,7.839-1.931,11.299
					c1.595,2.781,5.172,3.575,8.336,4.095c6.247,1.026,13.182,1.918,18.455-1.584c2.831-1.881,4.916-4.897,8.079-6.14
					c8.186-3.213,15.853,7.157,24.646,7.146c8.852-0.012,14.07-10.339,14.362-19.185c0.383-11.556-3.913-22.735-5.109-34.234
					c-1.195-11.5,1.977-25.005,12.352-30.107c7.038-3.462,15.348-2.095,23.168-1.498s16.782-0.162,21.693-6.277
					c3.311-4.123,4.172-10.061,8.265-13.407c2.78-2.274,6.646-2.964,9.27-5.417c4.116-3.85,3.719-10.374,3.009-15.965
					c-3.18-25.021-7.545-52.37-26.51-69c-16.563-14.525-40.224-17.15-59.896-27.068c-23.938-12.068-43.028-35.384-69.625-38.752
					c-15.412-1.951-31.657,3.237-46.307-1.931"/>
			</g>
			<g>
				<path fill="url(#New_Pattern_5)" d="M72.387,449.428c25.51,14.432,38.604-47.827,29.095-75.551
					c-4.398-12.824-13.049-26.013-8.542-38.799c4.586-13.009,20.326-18.02,29.131-28.637c9.925-11.969,9.694-29.1,8.961-44.631
					c-0.347-7.36-0.776-15.021-4.365-21.457c-10.497-18.823-39.833-16.198-55.059-31.453c-10.035-10.056-11.67-25.453-16.641-38.762
					s-18.064-26.681-31.466-21.965C23.501,148.174,20.343,419.985,72.387,449.428z"/>
			</g>
		</g>
	</g>
</g>
<g>
	<path fill="#110906" d="M293.255,356.554c13.754,12.354,3.586,52.992,24.708,59.441c19.89,6.072,11.647-11.38,8.64-21.156
		c-5.698-18.52-17.159-30.019-26.111-46.772c22.732,17.421,35.31,45.426,59.729,60.722c11.326,7.097,25.562,10.312,37.699,2.982
		c16.648-10.056,12.361-28.858,6.704-44.23c-3.586-9.747-8.26-19.082-13.775-27.874c-3.802-6.059-2.907-10.109-5.998-14.986
		c-10.108-15.934-54.683-48.405-35.042-18.54c8.424,12.808-80.27-42.918-83.3-14.312
		C265.946,297.141,258.678,325.491,293.255,356.554z M333.825,362.801c-2.135-11.19-10.17-19.848-19.922-27.133
		c-11.272-8.422-26.244-10.621-26.244-10.621c-7.965-16.592,3.719-17.746,14.021-13.623c14.138,5.658,28.504,12.856,41.989,19.938
		c11.695,6.142,22.699,13.194,30.623,24.007c4.479,6.112,15.486,22.813,12.731,30.632
		C380.518,404.448,336.308,375.814,333.825,362.801C333.606,361.653,334.188,364.702,333.825,362.801z"/>
	<polygon fill="#C3E5F6" points="277.565,329.962 254.111,326.182 247.97,331.793 306.652,394.185 328.255,379.923 	"/>
	<path fill="#FFFFFF" d="M323.356,269.641c0,0,4.026,17.431-6.377,15.802c-15.063-2.356-26.785-14.12-35.184-10.601
		c-2.975,1.249-14.241,6.506-15.234,10.504c-1.309,5.262-0.221,10.35-0.221,10.35l3.521,6.097c0,0-1.707-10.78-0.874-10.78
		c0.805,0,0.492,6.521,0.355,7.08c-0.006,0.025,1.253,8.653,1.253,9.771c0,1.227,3.517-1.198,3.399-2.87
		c-0.183-2.607-1.547-6.652-1.547-6.652l3.054-6.31l-1.019,8.142l4.77,9.665c0,0,2.543-1.767,2.543-3.194s-3.851-7.488-3.851-7.488
		l3.851-7.531c0,0,5.414-6.215,5.919-2.811c1.018,6.883-4.871,8.501-4.871,8.501s-1.323,2.517,1.41,3.876
		c0,0,2.088-1.524,6.106-3.663c4.207-2.24,5.482-7.507,5.482-7.507s14.943,8.931,23.545,11.779
		c8.603,2.851,15.622-14.201,16.771-21.864C337.308,272.275,323.356,269.641,323.356,269.641z"/>
	<polygon fill="#C3E5F6" points="368.352,352.993 328.255,379.923 277.565,329.962 310.706,303.369 	"/>
	<polygon fill="#0DA2DD" points="322.357,377.951 310.508,385.803 258.612,329.962 277.565,332.439 	"/>
	<polygon fill="#110906" points="304.564,340.003 336.226,366.106 358.593,353.383 316.41,319.162 301.07,329.962 310.706,335.835 	
		"/>
	<polygon fill="#110906" points="307.635,313.241 311.585,317.627 297.106,328.594 303.247,335.177 297.106,340.003 
		284.384,328.594 	"/>
	<polygon fill="#110906" points="301.07,340.003 296.888,342.635 328.255,371.151 332.055,367.867 	"/>
	<path fill="#82CFF5" d="M386.424,328.272c-1.091,7.744-32.142,2.86-47.785-16.15c-15.849-19.263-18.28-43.35-15.03-63.592
		c2.509-15.617,13.384-39.114,57.411-14.216c8.457,4.782,26.08,22.661,26.073,35.326c-0.002,6.489-12.672,9.397-13.493,10.783
		C392.008,283.11,386.424,328.272,386.424,328.272z"/>
	<path fill="#110906" d="M383.417,200.957c0,0-3.998,14.852,9.419,17.754c13.421,2.903,12.095-0.293,12.095-0.293
		s-4.101,13.32-13.142,13.181c-9.042-0.136-9.104-5.699-9.104-5.699s0.992,11.118,4.553,11.358
		c3.56,0.241-12.611,8.551-17.247,1.405c-4.637-7.143-2.608-34.014-1.818-34.269C368.962,204.137,383.417,200.957,383.417,200.957"
		/>
	<path fill="#FFFFFF" d="M381.126,150.593c-9.222-8.547-22.936-16.046-35.842-13.099c-12.03,2.747-16.978,17.78-20.756,27.842
		c-2.657,7.059-5.885,13.747-9.306,20.471c-0.945,1.854-1.93,3.817-2.861,5.852c-1.649,2.071-3.233,4.202-4.66,6.48
		c-3.234,5.157-5.762,10.298-5.667,16.48c0.113,7.101,7.053,12.093,12.878,14.523c6.055,2.525,17.911,2.634,24.31,3.455
		c0,0-6.484,15.816,12.858,11.398c17.751-9.282,14.386-13.186,12.088-15.979c4.681-3.679,11.818-6.653,12.956-6.187
		c6.041,2.476,7.447-10.724,10.514-16.485c3.13-5.884,5.511-12.446,6.037-19.056c0.275-0.714,0.554-1.429,0.795-2.159
		C398.833,170.862,390.429,159.218,381.126,150.593z"/>
	<path fill="#110906" d="M366.341,154.065c-0.902-0.072-4.227,14.955,1.734,28.703c5.965,13.749,7.136,24.139,1,34.489
		c-0.321,0.543,12.146-3.975,17.132-15.663c0.525-1.229-0.985,11.014-4.926,13.866c-3.942,2.853,23.406,9.123,25.04-22.963
		c1.635-32.088-9.906-34.187-9.906-34.187s9.24-1.994,14.716,12.169c0,0,0.2-15.788-12.103-21.969
		c-25.153-12.64-30.983-5.438-30.983-5.438"/>
	<path fill="#FFFFFF" d="M385.27,206.768c1.422-0.162,2.908-0.117,4.435,0.189c1.141,0.229,2.237,0.704,3.202,1.35
		c2.795,1.257,4.449,3.811,3.218,7.404c-0.992,2.885-3.383,4.749-6.365,5.635c-0.982,0.474-2.037,0.871-3.188,1.184
		c-3.317,0.901-7.562,1.775-11.152,0.046c-1.132-0.546-1.632-1.422-1.681-2.263c-1.138-0.637-2.056-1.561-2.347-2.58
		C377.112,215.346,381.235,211.087,385.27,206.768z"/>
	<path fill="none" stroke="#1E1E1C" stroke-miterlimit="10" d="M327.68,177.331c-0.585,2.397-2.047,4.097-3.266,3.799
		c-1.217-0.299-1.727-2.483-1.139-4.881c0.589-2.397,2.054-4.096,3.27-3.799C327.761,172.751,328.272,174.936,327.68,177.331z"/>
	<path fill="none" stroke="#1E1E1C" stroke-miterlimit="10" d="M350.594,188.913c-0.585,2.397-2.047,4.097-3.266,3.799
		c-1.217-0.299-1.727-2.483-1.139-4.881c0.589-2.397,2.054-4.096,3.27-3.799C350.675,184.333,351.187,186.518,350.594,188.913z"/>
	<path fill="none" stroke="#1E1E1C" stroke-width="2.0102" stroke-miterlimit="10" d="M345.212,183.637
		c0,0-9.901,10.352-4.296,14.469c5.61,4.115,15.96,12.92,19.741,8.105c3.776-4.812,8.938-9.195,2.016-14.653
		C355.758,186.099,348.349,181.056,345.212,183.637z"/>
	<path fill="none" stroke="#1E1E1C" stroke-width="2.0102" stroke-miterlimit="10" d="M336.421,180.061
		c0,0-4.482,12.912-9.407,11.329c-4.927-1.586-13.963-6.623-11.452-12.098c2.512-5.472,1.628-9.449,7.993-7.716
		C329.922,173.311,337.417,176.339,336.421,180.061z"/>
	<g>
		<path fill="#FFFFFF" d="M339.853,183.702c0.021,0.322-13.766,6.901-22.598,10.281c1.859,2.989,8.205,9.176,11.254,10.477"/>
		<g>
			<path fill="#1E1E1C" d="M339.418,183.449c-0.227,0.376-1.797,0.935-2.289,1.181c-1.82,0.912-3.664,1.775-5.51,2.632
				c-4.77,2.216-9.591,4.343-14.499,6.237c-0.286,0.11-0.492,0.444-0.3,0.738c2.642,4.055,6.998,8.587,11.435,10.657
				c0.583,0.272,1.094-0.594,0.507-0.868c-4.246-1.981-8.536-6.4-11.073-10.296c-0.1,0.246-0.2,0.492-0.3,0.738
				c4.99-1.925,9.885-4.094,14.739-6.338c1.974-0.912,3.938-1.845,5.882-2.818c0.632-0.317,1.882-0.702,2.277-1.356
				C340.623,183.399,339.753,182.895,339.418,183.449L339.418,183.449z"/>
		</g>
	</g>
	<g>
		<g>
			<path fill="#1E1E1C" d="M389.547,210.773c-2.213,0.004-5.858,0.032-7.616,1.627c-2.137,1.938,2.211,3.438,3.443,3.876
				c-0.117-0.206-0.234-0.412-0.351-0.618c-0.774,1.852-5.114,1.535-6.737,2.271c-2.406,1.091,0.744,3.557,1.698,4.284
				c0.516,0.393,1.015-0.48,0.507-0.868c-0.651-0.497-3.04-2.053-1.41-2.666c0.9-0.339,1.912-0.433,2.853-0.602
				c1.493-0.268,3.406-0.59,4.059-2.152c0.111-0.266-0.119-0.536-0.351-0.618c-1.035-0.368-2.505-0.75-3.222-1.685
				c-0.423-0.552,1.65-1.131,1.908-1.206c1.676-0.491,3.479-0.635,5.219-0.639C390.195,211.777,390.195,210.771,389.547,210.773
				L389.547,210.773z"/>
		</g>
	</g>
	<g>
		<g>
			<path fill="#1E1E1C" d="M337.3,181.551c1.809-1.829,5.123,1.487,5.65,3.176c0.385,1.233,2.326,0.707,1.938-0.534
				c-0.989-3.167-5.988-7.12-9.01-4.064C334.966,181.051,336.387,182.473,337.3,181.551L337.3,181.551z"/>
		</g>
	</g>
	<path fill="#110906" d="M377.133,167.367c-1.579-0.673-18.421-20.906-39.669-3.873c-21.483,17.219-30.345,8.492-30.345,8.492
		s10.623,2.047,16.453-13.797c6.609-17.973,27.995-43.049,46.909-18.203C389.397,164.833,377.133,167.367,377.133,167.367z"/>
	<g>
		<g>
			<path fill="#110906" d="M365.797,184.273c-5.681-3.216-9.521-6.922-11.23-13.472c-0.161-0.616-1.113-0.354-0.952,0.263
				c1.77,6.784,5.773,10.715,11.684,14.062C365.854,185.439,366.351,184.586,365.797,184.273L365.797,184.273z"/>
		</g>
	</g>
	<g>
		<g>
			<path fill="#110906" d="M339.009,165.713c-4.493,1.226-8.433,1.257-12.996,0.549c-0.566-0.088-0.809,0.777-0.238,0.865
				c4.717,0.732,8.828,0.719,13.473-0.549C339.805,166.426,339.568,165.56,339.009,165.713L339.009,165.713z"/>
		</g>
	</g>
	<path fill="none" stroke="#1E1E1C" stroke-width="2.0102" stroke-miterlimit="10" d="M365.419,197.144
		c1.297,0.552,15.211,2.657,15.211,2.657"/>
	<g>
		<g>
			<path fill="#110906" d="M319.209,206.532c2.119,1.501,3.873,3.483,5.992,4.986c0.521,0.369,1.013-0.487,0.498-0.853
				c-2.118-1.502-3.872-3.485-5.992-4.986C319.187,205.311,318.694,206.167,319.209,206.532L319.209,206.532z"/>
		</g>
	</g>
	<path fill="#FFFFFF" d="M407.224,267.09c-8.176,11.627-23.801,14.897-23.801,14.897c6.541,6.904,25.394,21.122,21.264,32.347
		c-3.456,9.388-35.002,20.686-35.002,20.686s-9.39,0.494-16.865-4.389c-7.477-4.883-11.445-7.9-11.445-7.9l-3.145,2.271
		c0,0,3.716,4.738,7.064,7.255c3.348,2.52-14.148-2.77-14.148-2.77s-17.423,2.289-15.835,5.151c1.587,2.861,5.966,0.954,5.966,0.954
		l8.344-1.526c0,0,8.875,1.996,5.914,3.244c-2.195,0.925-6.053,1.279-10.494,2.288c-4.505,1.024-9.972,3.365-12.021,4.197
		c-0.982,0.401,0,4.389,0.766,4.389c1.505,0.001,8.953-4.346,12.974-4.769c4.988-0.528,8.967-0.191,8.967-0.191l-7.517,3.34
		c-0.381,0.091-0.749,0.233-1.093,0.419l-11.232,6.543l2.67,2.48l10.531-4.636l8.577-2.402c0,0,1.978,1.229,0.57,2.269
		c-1.597,1.177-11.45,5.072-14.427,8.125c-0.853,0.876,2.032,1.73,2.189,1.604c1.006-0.802,4.496-2.039,8.776-3.242
		c10.323-2.905,25.755-6.105,25.755-6.105l10.507-4.919c0,0,33.757-6.911,51.524-24.396
		C434.915,310.142,416.829,287.84,407.224,267.09z"/>
</g>
<path fill="#FFFFFF" d="M151.644,91.006c-0.723,0.76-7.292,6.78-3.526,6.951c0.505,0.022,0.599-0.758,0.093-0.78
	c-1.242-0.056,0.951-2.399,1.162-2.639c0.595-0.675,1.22-1.323,1.846-1.97c-1.061,4.812-2.634,10.215-7.303,12.494
	c-0.94-2.32-0.387-5.027,0.346-7.331c0.434-1.365,1.66-5.207,3.441-5.383c0.504-0.05,0.383-0.826-0.119-0.776
	c-1.967,0.194-3.156,3.514-3.746,5.008c-1.102,2.787-1.864,6.37-0.489,9.188c0.095,0.193,0.316,0.286,0.519,0.198
	c5.691-2.485,7.246-9.094,8.415-14.609C152.349,91.036,151.878,90.759,151.644,91.006z"/>
<path fill="#FFFFFF" d="M176.31,75.446c-2.895-7.329-9.053-12.779-16.528-15.115c-8.408-2.627-18.106-3.562-26.731-1.527
	c-8.854,2.089-15.727,7.587-19.888,15.64c-3.789,7.333-5.152,16.911-3.061,24.928c1.819,6.976,12.151,13.766,16.152,19.684
	c1.11,6.068,4.147,4.744-1.087,15.265c2.193,0.838,11.384,7.376,18.043,8.069c2.146-0.522-7.46-6.072-5.436-7.123
	c0.527-0.791,4.728-6.603,9.239-7.134c8.118-0.956,9.842,1.559,19.274-4.37c6.595-4.144,10.834-17.455,12.016-25.137
	C179.489,90.916,179.199,82.76,176.31,75.446z"/>
<path fill="#FFFFFF" d="M83.877,195.872c2.295-3.084,5.318-6.646,7.653-10.477c0.554-1.145,1.069-2.302,1.51-3.478
	c0.415-1.096,1.415-3.396,1.954-5.5c0.147-1.237,0.155-2.484-0.055-3.736c-0.016-0.093-0.008-0.174-0.018-0.264
	c-10.52-11.202-5.503-26.076-3.244-40.27c-0.079-2.479-0.511-4.979-1.035-7.398c-1.337-6.118-4.139-12.562-9.147-16.56
	c-9.642-7.694-32.981-5.748-42.723,6.598c-3.803,4.819-6.57,4.893-7.767,23.511c-0.438,2.879,4.619,33.489,4.328,34.191
	c1.526,10.555,11.424,24.236,14.103,24.683c13.861,2.312,20.908,2.779,29.921,1.563c0.222-0.029-1.586,6.158-1.365,6.123
	c2.533-1.388,0.945-0.035,2.867-2.193c0.947-1.064,1.808-2.192,2.63-3.345C82.962,198.332,82.961,197.106,83.877,195.872z"/>
<path fill="none" stroke="#1E1E1C" stroke-width="1.0713" stroke-miterlimit="10" d="M20.285,278.048"/>
<g>
	<g>
		<path fill="#FFFFFF" d="M76.331,179.858c1.111,0.312,2.541-0.104,3.642-0.253c1.677-0.227,3.348-0.504,5.027-0.714
			c-0.151-1.119-0.303-2.239-0.455-3.358c-2.13,0.496-4.292,0.64-6.46,0.303c-2.156-0.335-3.083,2.959-0.909,3.297
			c2.802,0.435,5.515,0.34,8.278-0.303c1.849-0.43,1.476-3.6-0.455-3.358c-1.479,0.185-2.953,0.411-4.429,0.624
			c-0.791,0.114-1.581,0.226-2.374,0.322c-0.255,0.031-0.511,0.056-0.768,0.08c-0.258,0.024-0.775-0.101-0.19,0.063
			C75.113,175.963,74.211,179.262,76.331,179.858L76.331,179.858z"/>
	</g>
</g>
<g>
	<path fill="#1E1E1C" d="M72.593,169.832c-3.951,3.559-6.44,12.667-5.329,17.661c1.105-0.706,2.044-2.08,2.494-3.404
		c-0.75,4.107-2.456,7.529-0.055,11.702c2.454,4.659,3.876,0.38,4.004-3.073c-2.123,6.022,2.547,12.119,8.283,13.387
		c7.244,1.602,6.82-1.499,5.306-7.533c0.304,2.918,0.404,10.485,4.36,9.776c3.955-0.708,5.396-9.52,5.58-12.487
		c4.06,3.115,4.52-4.7,4.383-6.945c-0.154-4.308-2.389-7.812-3.332-12.135c5.349-0.56-4.407-13.006-7.641-11.979"/>
</g>
<g>
	<path fill="#1E1E1C" d="M139.602,53.457c5.893,2.194,10.378,9.173,9.634,16.429c-1.098,8.979-7.78,16.429-13.577,21.601
		c-4.198,3.499-12.373,9.272-11.875,16.578c0.346,4.947,7.41,10.773,11.409,7.303c-10.527,13.276-31.424,7.184-39.178-8.535
		c-10.382-20.797,12.281-43.546,26.075-51.606c5.477-3.219,10.837-4.514,16.93-2.349"/>
</g>
<g>
	<g>
		<path fill="#1E1E1C" d="M153.528,110.069c1.789,0.493,3.398,0.824,5.025-0.206c1.002-0.634,0.944-0.461,1.692,0.335
			c1.042,1.11,2.409,1.874,3.138,3.258c0.148-0.192,0.296-0.385,0.444-0.577c-3.48-0.66-7.863-0.833-10.403-3.63
			c-0.159,0.206-0.317,0.412-0.476,0.617c2.224,1.499,1.595,5.393,4.634,6.054c1.87,0.407,4.483-1.251,3.102-3.209
			c-0.29-0.411-0.971-0.019-0.679,0.396c1.448,2.052-2.498,2.335-3.471,1.393c-0.688-0.666-1.031-1.842-1.382-2.693
			c-0.422-1.023-0.87-1.987-1.808-2.62c-0.386-0.26-0.764,0.3-0.476,0.617c2.654,2.922,7.119,3.144,10.75,3.833
			c0.339,0.064,0.612-0.258,0.444-0.577c-0.948-1.801-2.989-2.633-3.993-4.371c-0.086-0.149-0.276-0.231-0.444-0.181
			c-0.621,0.188-1.142,0.471-1.688,0.816c-1.304,0.825-2.816,0.368-4.199-0.014C153.248,109.177,153.041,109.935,153.528,110.069
			L153.528,110.069z"/>
	</g>
</g>
<g>
	<g>
		<path fill="#1E1E1C" d="M151.08,79.662c-6.786,1.768-10.394,10.161-9.729,16.692c0.739,7.265,7.438,9.937,13.896,8.27
			c6.207-1.602,12.668-7.45,11.663-14.4c-1.161-8.015-8.039-13.104-15.989-10.464c-1.071,0.355-0.612,2.055,0.468,1.696
			c6.787-2.253,12.52,1.774,13.736,8.627c1.133,6.38-4.88,11.229-10.346,12.845c-5.682,1.68-11.097-0.953-11.724-7.111
			c-0.565-5.554,2.806-12.977,8.492-14.458C152.645,81.072,152.179,79.375,151.08,79.662L151.08,79.662z"/>
	</g>
</g>
<g>
	<g>
		<path fill="#1E1E1C" d="M176.285,90.766c-4.194,4.004-6.998,9.538-4.891,15.383c1.64,4.549,6.515,3.372,9.494,1.032
			c4.085-3.208,6.239-8.716,5.091-13.906c-1.101-4.979-5.999-4.179-9.672-2.554c-0.905,0.401-0.122,1.726,0.776,1.328
			c1.518-0.672,3.078-1.188,4.755-1.131c2.537,0.084,2.749,2.879,2.751,4.807c0.006,3.832-1.067,7.013-3.912,9.606
			c-2.805,2.558-6.896,3.937-8.175-0.786c-1.338-4.94,1.46-9.437,4.87-12.691C178.091,91.167,177.002,90.082,176.285,90.766
			L176.285,90.766z"/>
	</g>
</g>
<g>
	<path fill="#1E1E1C" d="M136.023,54.277c5.743,5.384,10.057,11.657,18.173,13.548c9.713,2.095,19.244,1.532,23.25,11.654
		c10.902-10.611-8.223-28.933-19.247-30.827c-7.579-1.302-30.841-1.326-25.142,12.563c3.237,8.004,13.138,6.938,19.812,5.247"/>
</g>
<g>
	<g>
		<path fill="#1E1E1C" d="M165.862,93.073c1.131,0.186,2.276,0.293,3.393,0.556c1.402,0.33,2.393,1.244,3.279,2.333
			c0.659,0.809,1.795-0.342,1.144-1.144c-0.854-1.049-1.847-1.985-3.133-2.47c-1.36-0.514-2.828-0.602-4.253-0.835
			C165.272,91.346,164.835,92.904,165.862,93.073L165.862,93.073z"/>
	</g>
</g>
<g>
	<path fill="#FFFFFE" d="M169.156,96.947c-0.41,6.102,1.671,7.065,5.077,8.525c-2.4,1.807-3.912,1.988-6.959,2.247
		c-1.439,0.015-6.482-0.655-4.748-2.773"/>
	<g>
		<path fill="#1E1E1C" d="M168.764,96.947c-0.107,2.082-0.093,4.225,1.047,6.043c0.92,1.467,2.712,2.169,4.225,2.821
			c0-0.226,0-0.453,0-0.679c-2.132,1.532-4.18,1.967-6.761,2.194c-0.78,0.068-5.575-0.445-4.409-2.183
			c0.283-0.422-0.398-0.814-0.679-0.396c-1.425,2.123,1.625,2.913,3.172,3.188c3.18,0.566,6.477-0.259,9.073-2.124
			c0.209-0.151,0.298-0.55,0-0.679c-1.256-0.541-2.513-1.068-3.516-2.024c-1.596-1.521-1.47-4.158-1.367-6.162
			C169.575,96.441,168.79,96.443,168.764,96.947L168.764,96.947z"/>
	</g>
</g>
<g>
	<g>
		<path fill="#1E1E1C" d="M70.708,146.355c-0.227,1.297-0.596,2.706-1.724,3.519c-1.702,1.227-1.954-2.757-1.934-3.424
			c0.042-1.397,0.593-3.136,1.764-3.98c1.866-1.346,1.949,3.298,1.875,4.018c-0.065,0.642,0.936,0.635,1,0
			c0.18-1.771,0.062-4.578-2.057-5.151c-2.179-0.59-3.258,2.966-3.504,4.386c-0.308,1.77-0.062,4.713,2.036,5.284
			c2.178,0.592,3.26-2.968,3.507-4.386C71.783,145.991,70.819,145.721,70.708,146.355z"/>
	</g>
</g>
<g>
	<g>
		<path fill="#1E1E1C" d="M89.816,143.899c-0.327,1.21-0.802,2.431-1.851,3.196c-2.054,1.498-1.844-3.181-1.685-3.987
			c0.237-1.196,0.848-2.467,1.85-3.199C90.183,138.412,89.976,143.093,89.816,143.899c-0.125,0.63,0.839,0.898,0.964,0.266
			c0.361-1.82,0.528-4.626-1.594-5.421c-2.093-0.785-3.503,2.737-3.87,4.099c-0.48,1.78-0.454,4.655,1.593,5.419
			c2.093,0.782,3.502-2.733,3.871-4.097C90.948,143.542,89.983,143.277,89.816,143.899z"/>
	</g>
</g>
<path fill="#1E1E1C" d="M41.555,142.444c-1.039-0.373-1.817-0.343-2.383-0.047c-0.457-1.428-1.535-2.531-3.479-2.778
	c-1.275-0.163-2.213,0.206-2.842,0.865c-0.793-0.843-1.978-1.407-3.129-0.94c-4.265,1.727-2.285,6.824-1.113,10.264
	c-1.125,2.457-0.01,5.859,2.362,7.191c0.171,0.096,0.448,0.102,0.582-0.069c0.755-0.951,1.341-1.962,1.831-3.019
	c0.231,1.768,1.119,3.318,3.098,3.872c1.131,0.314,1.859,0.048,2.313-0.521c0.533,0.69,1.29,1.201,2.314,1.397
	c0.937,0.178,1.58-0.047,2.021-0.497c0.417,0.699,1.06,1.091,2.018,0.823c3.89-1.083,2.892-6.212,2.258-9.088
	C46.724,146.786,44.707,143.579,41.555,142.444z"/>
<path fill="#FFFFFF" d="M40.086,155.667c3.153,5.26,2.895,11.214-0.576,13.291c-3.47,2.081-8.84-0.499-11.996-5.76
	c-3.15-5.262-2.895-11.215,0.576-13.295S36.93,150.401,40.086,155.667z"/>
<g>
	<g>
		<path fill="#1E1E1C" d="M31.639,155.501c2.402-0.184,4.675,3.442,1.11,3.47c-0.58,0.004-0.605,0.749-0.128,0.945
			c1.936,0.794,4.48,2.089,2.58,4.506c-0.379,0.481,0.297,1.167,0.68,0.68c2.383-3.03-0.123-4.931-3.004-6.113
			c-0.042,0.315-0.085,0.63-0.128,0.945c4.827-0.038,2.628-5.679-1.11-5.394C31.024,154.586,31.02,155.549,31.639,155.501
			L31.639,155.501z"/>
	</g>
</g>
<g>
	<g>
		<path fill="#1E1E1C" d="M73.49,132.046c3.521-0.869,7.07-1.607,10.622-2.334c0.607-0.125,0.35-1.052-0.256-0.928
			c-3.552,0.728-7.101,1.465-10.622,2.334C72.633,131.267,72.888,132.194,73.49,132.046L73.49,132.046z"/>
	</g>
</g>
<g>
	<g>
		<path fill="#1E1E1C" d="M76.622,127.688c1.38-0.188,2.759-0.355,4.152-0.405c0.618-0.022,0.621-0.984,0-0.962
			c-1.479,0.053-2.943,0.24-4.408,0.439C75.754,126.844,76.016,127.771,76.622,127.688L76.622,127.688z"/>
	</g>
</g>
<g>
	<g>
		<path fill="#1E1E1C" d="M63.557,153.4c3.474-0.907,6.807-2.263,10.164-3.52c0.598-0.224,0.339-1.19-0.266-0.964
			c-3.357,1.256-6.69,2.612-10.164,3.52C62.667,152.599,62.932,153.563,63.557,153.4L63.557,153.4z"/>
	</g>
</g>
<path fill="#0DA2DD" d="M231.244,96.996l4.317-12.774h16.861l-4.599,11.752C247.824,95.974,230.212,96.238,231.244,96.996z"/>
<g>
	<path fill="#FFFFFF" d="M30.259,225.699c0,0-0.211,61.791,35.789,70.791c24.889,6.222,75.885-53.83,77-54
		c1.113-0.171-19.683-22.588-20.839-22.699c-1.158-0.112-24.961,39.984-40.238,42.607c-15.277,2.624-13.104-42.848-13.104-42.848"/>
	<g>
		<path fill="#82CFF5" d="M200.395,152.062l8.074,8.814c0,0-2.203,25.212-32.174,43.857l-11.402-8.939L200.395,152.062z"/>
		<g>
			<path fill="#0E8CCD" d="M201.051,152.628c0.605,0.488,0.75,1.491,0.504,2.881c-4.178,1.228-12.294,8.387-20.243,18.181
				c-7.531,9.275-12.713,18.214-13.531,22.819c-0.974,0.288-1.741,0.093-2.233-0.306c-2.607-2.121,3.229-13.47,13.029-25.542
				C188.381,158.581,198.443,150.511,201.051,152.628z"/>
			<path fill="#FFFFFF" d="M181.312,173.689c7.949-9.794,16.065-16.953,20.243-18.181c-0.816,4.606-6,13.541-13.53,22.821
				c-7.947,9.787-16.068,16.946-20.244,18.179C168.599,191.903,173.78,182.965,181.312,173.689z"/>
		</g>
		<path fill="#82CFF5" d="M167.748,198.2c0,0-34.232,26.689-22.297,34.387s27.742-34.353,27.742-34.353L167.748,198.2z"/>
	</g>
	<path fill="#FFFFFF" d="M143.714,223.146c2.56-2.561,2.049-7.679,2.815-11.006c0.768-3.328,10.398-0.149,12.798-6.655
		c3.61-9.787-3.071-10.495-3.071-10.495s0,3.328-5.886,7.424c-5.887,4.096-13.055,2.559-16.894,8.446
		c-3.839,5.887,1.625,11.779,1.535,12.542c-2.303,19.709,30.971,12.797,36.09,8.446s2.047-14.59,2.303-16.381
		c0.256-1.793-1.201-8.92-2.303-9.471c-1.101-0.55-4.863,7.423-13.054,10.494s-12.797-2.56-13.821-3.071"/>
</g>
<g>
	<path fill="#FFFFFF" d="M72.341,167.733c5.498,0.421,25.466,5.215,27.88-3.605c2.596-8.096-19.668-8.359-17.837-21.158"/>
	<g>
		<path fill="#1E1E1C" d="M72.341,168.214c5.781,0.491,11.406,1.783,17.247,1.662c4.225-0.088,10.968-1.241,11.306-6.648
			c0.255-4.093-4.964-6.177-7.91-7.722c-5.066-2.656-10.918-5.913-10.119-12.536c0.074-0.615-0.889-0.608-0.962,0
			c-0.583,4.829,2.204,8.238,6.033,10.779c3.524,2.338,9.375,3.792,11.622,7.607c1.294,2.196-0.613,4.806-2.445,5.926
			c-2.483,1.519-5.773,1.628-8.593,1.647c-5.463,0.037-10.766-1.217-16.179-1.677C71.723,167.2,71.728,168.162,72.341,168.214
			L72.341,168.214z"/>
	</g>
</g>
<g>
	<g>
		<path fill="#1E1E1C" d="M154.678,90.819c1.292,0.679,2.408,1.697,3.482,2.669c0.578,0.524,1.137,1.069,1.677,1.632
			c0.183,0.19,0.358,0.387,0.531,0.587c0.068,0.079,0.133,0.16,0.194,0.243c0.325,0.437-0.305-0.217,0.399-0.369
			c-0.63,0.136-0.363,1.1,0.266,0.964c1.368-0.295-0.921-2.381-1.183-2.644c-1.434-1.442-3.046-2.992-4.861-3.946
			C154.613,89.656,154.107,90.519,154.678,90.819L154.678,90.819z"/>
	</g>
</g>
<g>
	<g>
		<path fill="#1E1E1C" d="M176.018,99.646c1.082-0.06,2.205-0.507,3.226-0.835c0.793-0.254,2.104-0.505,2.641-1.213
			c0.39-0.515-0.479-1.012-0.863-0.505c-0.011,0.015-0.627,0.255-0.812,0.327c-0.55,0.211-1.112,0.392-1.674,0.568
			c-0.788,0.248-1.685,0.613-2.517,0.659C175.376,98.682,175.373,99.682,176.018,99.646L176.018,99.646z"/>
	</g>
</g>
<g>
	<g>
		<path fill="#1E1E1C" d="M61.556,144.694c1.783-2.189,5.1-8.377,8.619-6.574c1.87,0.958,3.521-1.858,1.647-2.818
			c-5.723-2.932-9.489,3.296-12.574,7.084C57.931,144.003,60.226,146.327,61.556,144.694L61.556,144.694z"/>
	</g>
</g>
<g>
	<g>
		<path fill="#1E1E1C" d="M83.987,138.756c2.71,0.667,5.525,0.56,8.242,1.178c2.05,0.466,2.92-2.68,0.868-3.147
			c-2.719-0.619-5.539-0.512-8.242-1.178C82.811,135.105,81.944,138.253,83.987,138.756L83.987,138.756z"/>
	</g>
</g>
<g>
</g>
<g>
</g>
<g>
</g>
<g>
</g>
<g>
</g>
<g>
</g>
</svg>
