<?xml version="1.0" encoding="utf-8"?>
<!-- Generator: Adobe Illustrator 16.0.4, SVG Export Plug-In . SVG Version: 6.00 Build 0)  -->
<!DOCTYPE svg PUBLIC "-//W3C//DTD SVG 1.1//EN" "http://www.w3.org/Graphics/SVG/1.1/DTD/svg11.dtd">
<svg version="1.1" id="board" xmlns="http://www.w3.org/2000/svg" xmlns:xlink="http://www.w3.org/1999/xlink" x="0px" y="0px"
	 width="2554.794px" height="1700.788px" viewBox="0 0 2554.794 1700.788" enable-background="new 0 0 2554.794 1700.788"
	 xml:space="preserve">
<g>
	<g>
		<rect x="1402.946" y="643.068" fill="#F7F7F9" width="22.742" height="200.99"/>
		<path fill="#F7F7F9" d="M1401.744,836.797c-3.489-3.491-160.394,107.728-160.394,107.728l160.396-87.379l5.984,98.151
			l16.758-98.151l101.742,94.561l-108.924-125.682C1417.307,826.025,1402.943,837.995,1401.744,836.797z"/>
	</g>
	<rect x="1050.353" y="207.666" fill="#F7F7F9" width="772.22" height="465.951"/>
	<g>
		<g>
			<path fill="#1D1B3A" d="M1183.027,355.177c2.942-1.49,6.892-1.679,9.728,0.124c3.673,2.337,0.448,8.151-2.178,9.847
				c-2.647,1.708-6.391,1.711-9.174,0.357c-3.424-1.665-3.162-4.93-1.454-7.829c1.432-2.429-2.34-4.623-3.767-2.201
				c-2.884,4.895-2.462,10.324,2.542,13.531c4.438,2.844,10.922,2.262,15.064-0.789c4.758-3.505,6.6-10.928,2.503-15.586
				c-3.643-4.141-11.057-3.455-15.467-1.222C1178.315,352.681,1180.524,356.445,1183.027,355.177L1183.027,355.177z"/>
		</g>
	</g>
	<g>
		<g>
			<path fill="#1D1B3A" d="M1190.706,418.285c3.966-0.019,7.189,2.272,8.087,6.193c1.024,4.47-4.105,7.656-7.879,7.98
				c-3.414,0.292-5.719-2.234-6.442-5.325c-0.993-4.249,2.203-7.978,5.58-9.968c2.421-1.428,0.227-5.199-2.202-3.768
				c-5.421,3.196-8.642,8.54-7.584,14.895c0.906,5.44,6.077,8.92,11.381,8.465c6.248-0.536,11.933-5.688,11.531-12.18
				c-0.396-6.397-6.428-10.684-12.471-10.656C1187.894,413.935,1187.893,418.297,1190.706,418.285L1190.706,418.285z"/>
		</g>
	</g>
	<g>
		<g>
			<path fill="#1D1B3A" d="M1193.884,482.069c-5.932,0.64-11.324,6.185-11.038,12.328c0.277,5.959,7.372,8.835,12.407,6.906
				c4.517-1.729,7.394-6.297,7.957-10.958c0.654-5.417-4.029-8.357-8.916-7.866c-2.771,0.279-2.798,4.645,0,4.363
				c2.561-0.258,4.638,0.183,4.583,3.094c-0.047,2.469-1.754,5.086-3.7,6.499c-2.348,1.707-6.674,1.657-7.834-1.528
				c-1.31-3.598,3.228-8.118,6.541-8.475C1196.65,486.133,1196.68,481.768,1193.884,482.069L1193.884,482.069z"/>
		</g>
	</g>
	<g>
		<g>
			<path fill="#1D1B3A" d="M1235.11,359.146c63.732-1.742,127.511-2.29,191.26-3.114c68.925-0.891,137.856-1.832,206.787-2.097
				c3.603-0.014,7.204-0.022,10.807-0.022c6.529-0.001,6.529-10.126,0-10.125c-64.338,0.008-128.686,1.01-193.018,1.809
				c-68.449,0.85-136.91,1.606-205.349,3.165c-3.496,0.079-6.992,0.164-10.487,0.26
				C1228.595,349.2,1228.578,359.325,1235.11,359.146L1235.11,359.146z"/>
		</g>
	</g>
	<g>
		<g>
			<path fill="#1D1B3A" d="M1235.11,378.34c21.083-1.392,42.358-1.152,63.475-1.459c35.763-0.52,71.528-0.884,107.293-1.213
				c38.631-0.354,77.268-0.812,115.9-0.818c6.529-0.001,6.529-10.126,0-10.125c-57.496,0.01-115.002,0.749-172.493,1.392
				c-24.315,0.271-48.631,0.57-72.944,0.991c-13.725,0.238-27.528,0.204-41.23,1.107
				C1228.63,368.643,1228.589,378.77,1235.11,378.34L1235.11,378.34z"/>
		</g>
	</g>
	<g>
		<g>
			<path fill="#1D1B3A" d="M1239.811,423.886c112.956,0.02,225.897,3.494,338.856,1.922c23.921-0.332,47.84-0.922,71.742-1.922
				c6.818-0.285,6.847-10.9,0-10.613c-112.86,4.721-225.954,1.6-338.856,0.433c-23.913-0.248-47.828-0.429-71.742-0.433
				C1232.966,413.272,1232.966,423.885,1239.811,423.886L1239.811,423.886z"/>
		</g>
	</g>
	<g>
		<g>
			<path fill="#1D1B3A" d="M1239.811,441.226c103.075,9.459,206.866,1.672,310.165,3.49c6.532,0.114,6.521-10.01,0-10.125
				c-103.299-1.818-207.09,5.969-310.165-3.49C1233.307,430.504,1233.365,440.634,1239.811,441.226L1239.811,441.226z"/>
		</g>
	</g>
	<g>
		<g>
			<path fill="#1D1B3A" d="M1239.811,498.743c63.732-1.744,127.511-2.291,191.26-3.115c68.924-0.891,137.856-1.832,206.787-2.097
				c3.602-0.014,7.204-0.022,10.807-0.022c6.529-0.001,6.529-10.126,0-10.125c-64.338,0.008-128.686,1.01-193.018,1.809
				c-68.449,0.85-136.911,1.605-205.349,3.165c-3.496,0.08-6.992,0.165-10.487,0.261
				C1233.295,488.796,1233.278,498.921,1239.811,498.743L1239.811,498.743z"/>
		</g>
	</g>
	<g>
		<g>
			<path fill="#1D1B3A" d="M1239.811,517.937c21.083-1.393,42.358-1.153,63.475-1.46c35.763-0.52,71.527-0.884,107.293-1.213
				c38.63-0.354,77.267-0.811,115.899-0.817c6.529-0.001,6.529-10.126,0-10.125c-57.496,0.011-115.001,0.749-172.492,1.391
				c-24.315,0.271-48.631,0.57-72.944,0.992c-13.725,0.237-27.528,0.203-41.23,1.107
				C1233.331,508.241,1233.289,518.368,1239.811,517.937L1239.811,517.937z"/>
		</g>
	</g>
</g>
</svg>
