<?xml version="1.0" encoding="utf-8"?>
<!-- Generator: Adobe Illustrator 16.0.4, SVG Export Plug-In . SVG Version: 6.00 Build 0)  -->
<!DOCTYPE svg PUBLIC "-//W3C//DTD SVG 1.1//EN" "http://www.w3.org/Graphics/SVG/1.1/DTD/svg11.dtd">
<svg version="1.1" id="char2-head" xmlns="http://www.w3.org/2000/svg" xmlns:xlink="http://www.w3.org/1999/xlink" x="0px" y="0px"
	 width="2554.794px" height="1700.788px" viewBox="0 0 2554.794 1700.788" enable-background="new 0 0 2554.794 1700.788"
	 xml:space="preserve">
<g>
	<g>
		<g>
			<path fill="#F4EDE1" d="M1203.563,724.716c9.711,1.269,19.42,2.539,27.917-1.27c0,16.508-12.138,26.664-26.703,30.474"/>
			<g>
				<path fill="#1D1B3A" d="M1203.563,726.591c9.564,1.243,19.251,2.403,28.415-1.337c-0.791-0.603-1.583-1.205-2.374-1.808
					c-0.33,15.188-11.437,24.835-25.327,28.666c-2.328,0.642-1.338,4.26,0.997,3.615c15.543-4.286,27.714-15.424,28.08-32.281
					c0.024-1.115-1.238-2.271-2.374-1.808c-8.86,3.616-18.187,2.402-27.418,1.202C1201.17,722.531,1201.2,726.285,1203.563,726.591
					L1203.563,726.591z"/>
			</g>
		</g>
		<g>
			<path fill="#F4EDE1" d="M1124.709,851.82c-7.815-1.237-14.821-1.703-22.736-3.918c-19.599-5.49-36.337-10.028-50.902-21.458
				c-41.268-34.283-80.106-97.772-31.558-143.484c35.199-35.554,129.872-52.061,162.642-6.349
				c23.061,30.475,31.558,92.694,26.702,130.788c-2.427,12.698-6.068,26.666-16.992,34.283c-6.068,5.079-18.206,2.541-23.06,6.35"/>
			<g>
				<path fill="#1D1B3A" d="M1125.208,850.012c-26.803-4.088-55.924-10.028-76.926-28.418c-18.09-15.84-33.848-35.562-42.956-57.952
					c-9.021-22.177-8.987-46.46,4.594-66.754c11.398-17.034,29.737-28.336,48.49-35.625c19.103-7.425,39.837-11.11,60.323-10.609
					c18.998,0.464,38.95,5.25,53.613,17.925c16.148,13.96,23.741,36.736,28.762,56.762c5.796,23.116,8.163,47.431,6.861,71.228
					c-0.675,12.339-3.021,25.359-9.772,35.923c-4.032,6.309-9.668,9.879-16.994,10.818c-4.483,0.574-9.458,0.49-13.344,3.104
					c-1.995,1.342-0.12,4.592,1.893,3.238c4.075-2.741,9.875-2.311,14.583-3.028c5.382-0.82,9.464-3.606,13.252-7.394
					c8.14-8.137,10.965-20.446,13.079-31.332c1.96-10.089,1.567-21.107,1.239-31.322c-0.377-11.739-1.672-23.447-3.61-35.026
					c-3.655-21.838-9.963-44.524-22.483-63.057c-10.071-14.908-25.062-23.929-42.315-28.336
					c-18.895-4.825-39.057-3.984-58.085-0.441c-18.837,3.508-37.511,10.315-53.568,20.865c-17.198,11.3-31.249,28.332-35.492,48.765
					c-4.467,21.513,2.93,43.58,13.583,62.103c10.563,18.368,25.608,35.928,42.709,48.51c20.217,14.874,47.369,19.98,71.567,23.671
					C1126.576,853.989,1127.592,850.375,1125.208,850.012L1125.208,850.012z"/>
			</g>
		</g>
		<g>
			<g>
				<path fill="#1D1B3A" d="M1085.425,677.411c4.602,9.424,11.979,19.917,1.508,28.202c-1.896,1.5,0.777,4.135,2.651,2.652
					c12.02-9.511,4.452-21.744-0.921-32.747C1087.603,673.345,1084.369,675.247,1085.425,677.411L1085.425,677.411z"/>
			</g>
		</g>
		<g>
			<g>
				<path fill="#1D1B3A" d="M1188.594,714.234c1.111,2.472,0.956,5.298,0.957,7.943c0.001,2.418,3.751,2.418,3.75,0
					c-0.001-3.406-0.051-6.682-1.469-9.836C1190.842,710.139,1187.611,712.047,1188.594,714.234L1188.594,714.234z"/>
			</g>
		</g>
		<g>
			<path fill="#EFEA77" d="M1162.62,651.969c1.488,1.258,8.288,54.112-2.438,81.898c-9.5,24.614-1.462,76.538-9.75,96.525
				c-8.288,19.989-13.65,27.3-36.075,25.839c-50.602-3.302-115.261-88.93-103.35-147.713
				C1026.12,633.931,1134.345,628.082,1162.62,651.969z"/>
			<g>
				<path fill="#1D1B3A" d="M1161.294,653.295c-0.71-0.865-0.035,0.413,0.092,0.981c0.227,1.015,0.39,2.045,0.555,3.071
					c0.599,3.729,0.97,7.495,1.307,11.255c0.913,10.177,1.189,20.419,0.842,30.63c-0.367,10.797-1.552,21.735-4.954,32.033
					c-3.043,9.215-4.694,18.172-5.393,27.872c-1.539,21.393,1.278,43.738-3.297,64.816c-1.814,8.359-6.212,18.053-12.135,24.316
					c-6.509,6.885-17.129,6.752-25.847,5.925c-19.066-1.81-36.422-14.488-49.949-27.144c-16.302-15.251-29.453-34.006-38.902-54.189
					c-8.854-18.913-14.563-40.712-11.207-61.643c2.875-17.932,12.586-33.771,26.401-45.359
					c18.626-15.624,43.741-22.803,67.642-24.303C1123.995,640.458,1147.028,641.486,1161.294,653.295
					c1.848,1.529,4.516-1.108,2.651-2.652c-9.043-7.485-21.258-10.527-32.661-12.012c-15.627-2.033-31.558-1.076-46.949,2.201
					c-32.883,7.003-63.478,27.157-73.511,60.596c-11.858,39.519,10.245,83.242,34.833,113.093
					c12.645,15.352,28.245,29.299,46.454,37.644c13.222,6.06,34.536,10.847,46.911,0.518c6.163-5.145,9.435-12.839,12.493-20.057
					c3.164-7.469,4.026-15.471,4.557-23.503c1.414-21.395-0.666-43.154,3.112-64.361c1.543-8.661,5.197-16.688,6.71-25.394
					c1.757-10.104,2.156-20.437,2.083-30.673c-0.063-8.908-0.625-17.83-1.652-26.679c-0.372-3.2-0.199-8.717-2.38-11.373
					C1162.41,648.773,1159.773,651.443,1161.294,653.295z"/>
			</g>
		</g>
		<g>
			<path fill="#EFEA77" d="M1065.127,681.169c-20.634-15.239-47.336-25.396-71.611-16.507
				c-58.26,20.316-36.413,76.186-8.497,111.741c16.993,21.586,49.763,53.329,36.413,85.075c-8.497,22.856-36.413,21.586-47.336,0
				c29.13,24.126,49.764,46.982,88.603,21.586c35.2-21.586,58.26-71.107,33.985-110.472c-14.564-26.664-48.55-33.014-64.328-59.681
				c-13.351-21.585,4.855-34.282,25.488-21.585c0-6.349-1.213-13.968-3.64-19.047"/>
			<g>
				<path fill="#1D1B3A" d="M1066.073,679.55c-20.8-15.157-47.55-25.594-73.056-16.695c-17.446,6.086-32.783,17.695-37.013,36.459
					c-3.823,16.959,2.099,34.872,9.512,49.988c9.086,18.528,22.742,33.472,35.423,49.511c13.713,17.343,27.735,39.521,18.685,62.168
					c-3.685,9.219-11.303,15.446-21.463,15.274c-9.927-0.167-18.025-7.371-22.445-15.723c-0.982,0.758-1.963,1.515-2.945,2.272
					c16.51,13.718,33.831,31.896,56.593,33.207c12.333,0.71,24.163-4.848,34.281-11.328c9.485-6.075,17.777-13.407,24.824-22.214
					c13.821-17.273,21.886-39.567,19.733-61.786c-2.207-22.77-15.781-40.801-33.854-53.772
					c-13.799-9.904-29.084-18.164-38.865-32.54c-4.312-6.337-9.05-16.184-2.835-22.868c6.263-6.735,17.805-2.358,24.25,1.443
					c1.212,0.715,2.844-0.195,2.821-1.619c-0.108-6.865-1.115-13.677-3.896-19.993c-0.973-2.209-4.203-0.299-3.238,1.893
					c2.502,5.683,3.287,11.942,3.384,18.101c0.94-0.54,1.881-1.079,2.821-1.619c-7.817-4.611-17.783-7.651-26.232-2.862
					c-7.595,4.305-7.524,13.847-4.842,21.031c7.908,21.186,31.04,32.046,48.019,44.667c20.092,14.936,31.11,38.131,28.706,63.208
					c-2.312,24.108-16.963,46.667-35.965,61.124c-14.268,10.856-31.697,18.943-49.679,13.447
					c-16.76-5.123-30.242-19.26-43.374-30.171c-1.614-1.341-3.98,0.316-2.945,2.272c8.175,15.446,27.466,23.563,42.324,11.934
					c7.755-6.069,11.048-17.241,11.593-26.651c0.644-11.137-3.767-22.062-9.064-31.61c-10.868-19.587-27.766-34.91-39.95-53.599
					c-10.149-15.565-18.715-33.866-18.741-52.79c-0.027-19.227,12.22-33.053,29.059-40.754
					c26.444-12.092,54.212-2.395,76.483,13.834C1066.139,684.215,1068.007,680.959,1066.073,679.55L1066.073,679.55z"/>
			</g>
		</g>
		<g>
			<path fill="#F4EDE1" d="M1161.451,740.32c-21.968,0-8.786,43.172,4.393,46.981"/>
			<g>
				<path fill="#1D1B3A" d="M1161.451,738.445c-24.393,0.665-12.459,45.273,3.894,50.664c2.303,0.76,3.282-2.862,0.997-3.615
					c-12.546-4.137-24.019-42.777-4.891-43.299C1163.864,742.129,1163.87,738.378,1161.451,738.445L1161.451,738.445z"/>
			</g>
		</g>
		<g>
			<g>
				<path fill="#1D1B3A" d="M1164.937,748.46c-10.245,3.503-5.382,19.328-0.298,25.248c1.578,1.837,4.218-0.828,2.651-2.652
					c-2.987-3.479-8.152-16.656-1.356-18.98C1168.208,751.298,1167.231,747.675,1164.937,748.46L1164.937,748.46z"/>
			</g>
		</g>
	</g>
</g>
</svg>
