<?xml version="1.0" encoding="utf-8"?>
<!-- Generator: Adobe Illustrator 16.0.4, SVG Export Plug-In . SVG Version: 6.00 Build 0)  -->
<!DOCTYPE svg PUBLIC "-//W3C//DTD SVG 1.1//EN" "http://www.w3.org/Graphics/SVG/1.1/DTD/svg11.dtd">
<svg version="1.1" id="char3-head" xmlns="http://www.w3.org/2000/svg" xmlns:xlink="http://www.w3.org/1999/xlink" x="0px" y="0px"
	 width="2554.794px" height="1700.788px" viewBox="0 0 2554.794 1700.788" enable-background="new 0 0 2554.794 1700.788"
	 xml:space="preserve">
<g>
	<g>
		<path fill="#F4EDE1" d="M1510.179,712.791c-15.892,3.438-51.488,16.38-52.879,18.842c-4.994,18.085,21.708,12.863,36.514,21.443"
			/>
		<g>
			<path fill="#1D1B3A" d="M1509.681,710.983c-10.639,2.361-21.04,5.929-31.294,9.577c-7.066,2.516-16.116,4.75-22.143,9.449
				c-2.2,1.716-1.567,6.988-0.854,9.277c1.05,3.367,4.246,5.578,7.356,6.842c9.734,3.953,20.781,3.411,30.12,8.566
				c2.118,1.169,4.01-2.069,1.893-3.238c-7.602-4.196-16.311-5.104-24.651-6.986c-3.576-0.807-7.463-1.814-10.089-4.525
				c-1.938-2-2.386-6.646,0.187-8.037c7.103-3.842,15.143-6.333,22.738-8.986c9.092-3.177,18.321-6.233,27.732-8.323
				C1513.038,714.075,1512.036,710.459,1509.681,710.983L1509.681,710.983z"/>
		</g>
	</g>
	<g>
		<path fill="#F4EDE1" d="M1582.335,816.877c8.938,1.01-7.429,40.004,1.914,39.97c23.134-0.083,23.944-0.746,40.722-13.448
			c13.189-9.982,82.911-103.234,43.547-168.009c-27.808-49.603-84.646-63.759-134.383-23.587
			c-34.485,26.414-48.534,85.123-54.74,128.329c-1.182,14.647,10.311,29.74,19.973,41.392c5.114,7.401,23.987,13.518,28.154,19.159"
			/>
		<g>
			<path fill="#1D1B3A" d="M1581.837,818.685c3.674,0.688,0.08,14.863-0.336,17.145c-1.092,5.995-3.052,12.865-1.751,18.967
				c0.383,1.795,1.521,3.095,3.198,3.75c1.769,0.691,4.306,0.16,6.146,0.143c2.976-0.029,5.949-0.113,8.918-0.316
				c7.8-0.534,14.028-3.25,20.359-7.73c10.128-7.169,17.452-15.518,24.668-25.588c10.56-14.734,19.4-30.725,26.418-47.43
				c7.9-18.809,13.126-39.114,12.821-59.617c-0.312-21.1-8.268-40.801-21.263-57.295c-13.426-17.039-31.945-29.347-53.494-33.044
				c-22.379-3.84-44.907,2.859-63.77,14.854c-35.895,22.827-51.076,63.843-60.08,103.594c-2.226,9.824-4.002,19.748-5.522,29.703
				c-1.643,10.752,1.367,19.982,6.809,29.257c4.743,8.085,10.995,17.371,18.704,22.893c6.878,4.927,17.091,7.392,22.533,14.04
				c1.533,1.872,4.17-0.798,2.652-2.652c-5.623-6.868-16.072-9.746-23.293-14.625c-4.785-3.234-8.273-8.597-11.681-13.139
				c-4.557-6.072-8.588-12.61-11.061-19.817c-3.873-11.289,0.439-25,2.703-36.338c2.354-11.793,5.295-23.47,8.915-34.939
				c7.062-22.378,17.275-44.934,34.277-61.552c17.567-17.171,41.987-28.694,66.729-28.602c46.898,0.178,82.978,45.356,83.113,90.125
				c0.116,38.375-19.299,76.79-41.826,106.895c-3.802,5.08-7.87,10.517-12.849,14.529c-4.785,3.856-9.934,7.827-15.53,10.438
				c-5.455,2.544-11.907,2.474-17.788,2.587c-1.526,0.029-6.391,1.098-7.059-0.656c-0.576-1.515-0.384-3.356-0.292-4.935
				c0.297-5.126,1.511-10.221,2.408-15.264c0.779-4.379,4.333-17.665-2.782-18.994
				C1580.47,814.627,1579.461,818.242,1581.837,818.685L1581.837,818.685z"/>
		</g>
	</g>
	<g>
		<g>
			<path fill="#1D1B3A" d="M1513.84,706.828c-3.355,4.249-4.568,10.166-5.983,15.283c-0.86,3.113,3.964,4.434,4.822,1.33
				c1.137-4.115,1.992-9.653,4.696-13.078C1519.35,707.862,1515.837,704.297,1513.84,706.828L1513.84,706.828z"/>
		</g>
	</g>
	<g>
		<path fill="#1D1B3A" d="M1613.983,615.969c-26.1-13.672-51.858-20.455-81.386-6.825c-14.766,6.813-22.195,12.403-27.747,27.233
			c-7.022,16.818-12.706,24.521-14.969,42.263c22.894,11.447,54.832,31.38,54.865,30.695c0.034-0.686,2.568,17.297-2.472,35.588
			c-5.755,18.942-11.58,39.254-20.728,57.338c-6.064,11.372-28.104,58.494-42.179,37.87c17.056,15.968,25.626,18.304,49.262,26.355
			c31.066,10.486,57.237,9.05,89.674,5.867c31.035-2.564,24.08-0.854,50.39-18.764c17.814-12.844,19.632-35.416,22.032-55.899
			c5.449-40.248,7.616-110.877-12.591-146.23c-15.821-26.892-34.25-29.188-63.501-34.773"/>
		<g>
			<path fill="#1D1B3A" d="M1614.93,614.35c-13.989-7.253-28.646-12.988-44.468-14.319c-15.908-1.337-31.245,3.357-45.216,10.639
				c-10.345,5.392-17.257,13.075-21.678,23.846c-5.967,14.541-13.334,27.829-15.494,43.627c-0.11,0.805,0.046,1.707,0.861,2.117
				c12.835,6.456,25.293,13.639,37.694,20.883c4.432,2.589,8.845,5.21,13.29,7.775c1.126,0.649,2.252,1.309,3.417,1.887
				c0.861,0.428,2.362,0.148,1.921,0.334c-0.77-0.437-1.538-0.873-2.307-1.31c1.083,4.887,0.667,10.474,0.465,15.416
				c-0.415,10.188-3.078,19.638-6.02,29.316c-5.203,17.118-10.897,33.983-19.115,49.918c-4.287,8.313-24.916,51.972-37.293,34.706
				c-0.981,0.758-1.964,1.515-2.945,2.272c7.605,7.06,15.645,13.282,25.103,17.653c10.744,4.966,22.452,8.698,33.822,11.887
				c27.926,7.833,56.169,5.268,84.633,2.963c7.755-0.628,16.133-0.603,23.563-3.197c7.027-2.453,13.127-7.693,19.148-11.887
				c9.639-6.713,16.609-13.593,21.156-24.626c4.381-10.628,5.501-22.438,6.808-33.755c4.621-40.016,7.145-81.396-1.866-121.028
				c-3.988-17.542-11.34-34.895-25.212-46.901c-13.799-11.943-32.797-14.4-50.065-17.687c-2.362-0.45-3.37,3.164-0.996,3.615
				c21.03,4.004,41.885,7.266,56.187,24.78c14.416,17.656,18.542,42.192,20.754,64.201c2.371,23.592,1.868,47.516-0.131,71.113
				c-0.927,10.936-2.244,21.887-3.769,32.754c-1.694,12.076-4.609,24.438-12.455,34.101c-5.367,6.61-13.43,11.022-20.368,15.822
				c-3.984,2.757-7.991,5.392-12.715,6.658c-6.434,1.726-13.44,1.757-20.039,2.286c-11.167,0.896-22.287,2.077-33.489,2.475
				c-22.019,0.781-42.888-2.547-63.717-9.614c-7.942-2.695-15.941-5.331-23.418-9.178c-7.551-3.886-14.09-9.339-20.281-15.088
				c-1.498-1.39-4.234,0.475-2.945,2.272c15.487,21.604,36.391-20.521,42.019-31.319c8.494-16.296,14.778-33.238,20.198-50.785
				c4.816-15.592,10.264-33.618,6.601-50.142c-0.201-0.903-1.396-1.693-2.307-1.31c-1.185,0.5,0.219-0.144,0.865,0.003
				c0.206,0.046-0.672-0.359-0.812-0.436c-1.287-0.691-2.548-1.436-3.812-2.169c-4.378-2.537-8.73-5.118-13.101-7.671
				c-12.027-7.025-24.126-13.968-36.573-20.229c0.287,0.706,0.574,1.412,0.861,2.117c1.821-13.316,7.215-24.731,12.646-36.866
				c2.516-5.621,4.511-11.372,8.056-16.464c3.17-4.553,7.732-7.869,12.458-10.64c13.355-7.829,28.462-12.109,43.959-11.49
				c15.617,0.624,30.542,6.813,44.229,13.91C1615.181,618.7,1617.077,615.463,1614.93,614.35L1614.93,614.35z"/>
		</g>
	</g>
	<g>
		<path fill="#F4EDE1" d="M1540.952,717.383c27.295,14.087-1.538,54.752-16.93,52.255"/>
		<g>
			<path fill="#1D1B3A" d="M1540.006,719.002c11.983,6.516,12.13,19.093,6.639,30.244c-3.76,7.634-12.767,19.735-22.622,18.517
				c-2.396-0.297-2.367,3.457,0,3.75c11.687,1.445,21.872-12.277,26.317-21.303c6.25-12.691,4.797-27.248-8.441-34.446
				C1539.773,714.609,1537.881,717.847,1540.006,719.002L1540.006,719.002z"/>
		</g>
	</g>
	<g>
		<path fill="#F4EDE1" d="M1534.787,729.71c6.045,5.068,6.466,15.882,3.524,19.278c-1.938,2.213-4.164,4.104-7.161,5.267"/>
		<g>
			<path fill="#1D1B3A" d="M1533.461,731.037c3.375,3.144,4.703,7.307,4.744,11.836c0.046,4.977-3.784,7.885-8.001,9.764
				c-2.205,0.983-0.296,4.214,1.893,3.238c5.342-2.381,9.083-6.044,9.799-11.908c0.69-5.644-1.676-11.755-5.782-15.582
				C1534.347,726.739,1531.688,729.384,1533.461,731.037L1533.461,731.037z"/>
		</g>
	</g>
</g>
</svg>
