<?xml version="1.0" encoding="utf-8"?>
<!-- Generator: Adobe Illustrator 16.0.4, SVG Export Plug-In . SVG Version: 6.00 Build 0)  -->
<!DOCTYPE svg PUBLIC "-//W3C//DTD SVG 1.1//EN" "http://www.w3.org/Graphics/SVG/1.1/DTD/svg11.dtd">
<svg version="1.1" id="char4-head" xmlns="http://www.w3.org/2000/svg" xmlns:xlink="http://www.w3.org/1999/xlink" x="0px" y="0px"
	 width="2554.794px" height="1700.788px" viewBox="0 0 2554.794 1700.788" enable-background="new 0 0 2554.794 1700.788"
	 xml:space="preserve">
<g>
	<g>
		<path fill="#F4EDE1" d="M1818.338,685.048c-6.979-5.235-22.685-24.43-34.898-20.939c-24.43,6.979-15.704,48.858,6.979,54.094"/>
		<g>
			<path fill="#1D1B3A" d="M1819.664,683.722c-8.94-6.94-15.928-16.064-26.623-20.57c-9.062-3.818-18.707,1.544-23.136,9.661
				c-9.018,16.522,1.75,42.542,20.016,47.197c2.345,0.598,3.339-3.019,0.996-3.615c-16.102-4.104-24.648-26.205-18.17-40.884
				c3.994-9.052,13.475-11.888,21.977-7.457c8.656,4.51,14.699,12.428,22.288,18.32
				C1818.897,687.837,1821.572,685.204,1819.664,683.722L1819.664,683.722z"/>
		</g>
	</g>
	<g>
		<path fill="#F4EDE1" d="M1937.771,867.363l5.234-33.153c22.685-3.489,47.114-26.175,62.818-41.879
			c26.175-24.43,27.919-38.39,8.725-69.798c-38.388-59.328-101.206-90.738-171.006-62.819
			c-47.113,19.194-69.798,71.544-54.093,118.657c6.979,26.175,22.685,43.625,41.878,62.819c13.961,13.96,40.136,15.703,52.35,27.918
			"/>
		<g>
			<path fill="#1D1B3A" d="M1939.578,867.861c1.743-11.038,3.486-22.076,5.229-33.115c-0.327,2.073,5.421-0.287,6.759-0.714
				c2.462-0.786,4.846-1.822,7.202-2.878c6.122-2.741,11.816-6.411,17.277-10.276c10.16-7.191,19.376-15.679,28.244-24.383
				c14.118-13.854,28.957-28.276,23.714-49.697c-2.787-11.383-9.498-22.048-16.104-31.548c-6.864-9.871-14.688-19.072-23.302-27.455
				c-16.253-15.818-35.906-28.093-57.596-34.848c-22.203-6.916-45.942-6.851-68.433-1.378c-22.89,5.569-43.582,16.84-58.529,35.294
				c-13.517,16.688-20.809,37.76-21.392,59.146c-0.783,28.709,11.607,56.336,29.85,77.897c9.332,11.03,19.197,22.192,32.409,28.489
				c12.299,5.861,27.34,8.364,37.443,18.038c1.746,1.671,4.401-0.977,2.652-2.652c-7.445-7.128-17.552-10.464-27.002-14.034
				c-5.496-2.076-10.933-4.263-16.095-7.085c-5.896-3.224-10.37-7.872-15.015-12.631c-9.24-9.468-17.966-19.441-24.859-30.774
				c-6.706-11.027-10.953-23.553-13.681-36.125c-4.946-22.792-0.571-46.971,11.083-67.038c12.566-21.64,33.145-35.483,56.671-42.836
				c23.605-7.378,48.808-7.925,72.588-1.089c23.098,6.641,43.529,20.408,60.347,37.339c9.025,9.087,16.899,19.256,23.889,29.971
				c6.191,9.493,12.268,20.896,12.619,32.466c0.324,10.636-6.297,19.66-13.114,27.146c-8.409,9.233-17.86,17.911-27.364,26
				c-12.201,10.384-26.437,20.569-42.562,23.312c-0.574,0.098-1.219,0.73-1.31,1.31c-1.745,11.051-3.49,22.102-5.234,33.153
				C1935.589,869.229,1939.202,870.245,1939.578,867.861L1939.578,867.861z"/>
		</g>
	</g>
	<g>
		<g>
			<path fill="#1D1B3A" d="M1844.871,678.302c-3.845,3.234-10.178,11.052-15.834,9.786c0.437,0.769,0.873,1.537,1.31,2.306
				c0.539-3.812,3.248-7.59,5.658-10.46c1.219-1.451,2.717-3.042,4.538-3.707c2.074-0.758,2.671,2.326,3.005,3.717
				c0.562,2.352,4.179,1.354,3.615-0.996c-1.437-6-6.051-8.538-11.123-4.314c-4.092,3.408-8.543,9.342-9.309,14.765
				c-0.138,0.97,0.22,2.062,1.31,2.306c7.587,1.698,14.33-6.415,19.482-10.749C1849.376,679.396,1846.709,676.757,1844.871,678.302
				L1844.871,678.302z"/>
		</g>
	</g>
	<g>
		<path fill="#EFEA77" d="M2018.038,736.492c22.685-40.134,5.235-111.677-36.645-134.36c-55.839-26.176-12.214,47.113-6.979,68.052
			c-20.94-17.449-36.645-48.857-61.073-59.328c-19.195,24.43,10.469,75.034,31.408,88.993
			c-19.195-12.215-34.898-33.155-55.839-38.389c-13.959,29.663,13.96,59.327,31.41,80.268c-6.979-6.98-31.41-24.43-41.879-20.94
			c-8.726,1.746-11.486,23.499-19.194,29.665c-8.726,6.979,19.194,3.489,20.356,15.705c1.165,12.214-16.85,12.668-20.938,12.214
			c-5.233-0.581,16.868,129.127,47.694,66.308c-24.429,33.155,26.176,41.879,29.665,3.49c-1.744,6.981,0,12.215-1.744,19.194
			c52.348-24.428,151.811-94.228,88.992-137.852"/>
		<g>
			<path fill="#1D1B3A" d="M2019.657,737.438c19.164-34.605,10.589-82.453-11.637-113.578
				c-9.888-13.847-25.307-27.135-42.903-29.022c-11.305-1.212-14.772,7.426-13.33,17.284c3.04,20.788,15.631,38.485,20.82,58.56
				c1.044-0.607,2.089-1.216,3.134-1.824c-21.579-18.292-34.721-47.714-61.453-59.621c-1.022-0.455-1.896-0.215-2.565,0.673
				c-10.716,14.212-6.33,34.082,0.142,49.124c6.846,15.916,17.393,32.495,31.939,42.435c0.631-1.079,1.262-2.159,1.893-3.238
				c-18.935-12.285-33.728-32.535-56.287-38.577c-0.745-0.2-1.777,0.102-2.117,0.861c-14.053,31.368,13.01,60.168,31.703,82.54
				c0.885-0.884,1.768-1.769,2.652-2.652c-6.177-6.05-13.613-11.038-21.094-15.308c-6.352-3.624-15.064-8.244-22.609-6.114
				c-7.516,2.121-10.233,12.012-12.926,18.354c-1.672,3.941-3.412,8.154-6.465,11.243c-1.416,1.433-3.518,2.864-2.675,5.202
				c1.499,4.158,10.697,4.613,14.175,5.757c3.253,1.068,6.727,2.775,7.63,6.345c1.385,5.476-4.119,8.502-8.418,9.72
				c-3.124,0.885-6.477,1.103-9.71,0.966c-1.221-0.052-2.371-0.013-2.959,1.263c-1.075,2.335-0.572,5.526-0.379,7.985
				c1.645,20.902,6.928,43.437,16.29,62.235c3.249,6.524,8.197,14.688,16.155,15.646c9.471,1.141,15.938-11.281,19.316-18.07
				c1.09-2.19-1.837-3.842-3.238-1.893c-4.386,6.101-8.287,13.67-6.351,21.376c1.387,5.514,6.468,9.029,11.835,9.952
				c16.105,2.77,26.211-12.936,27.675-26.892c0.222-2.112-3.249-2.548-3.683-0.498c-1.347,6.36-0.4,12.848-1.744,19.194
				c-0.357,1.684,1.248,2.823,2.754,2.117c39.581-18.566,158.52-91.957,88.992-141.09c-1.979-1.399-3.851,1.854-1.893,3.238
				c12.133,8.574,21.012,20.871,18.854,36.321c-2.103,15.056-12.447,28.226-22.505,38.98
				c-23.489,25.116-54.347,44.772-85.341,59.312c0.918,0.706,1.836,1.412,2.754,2.117c1.348-6.361,0.401-12.848,1.744-19.194
				c-1.228-0.166-2.455-0.332-3.683-0.498c-1.261,12.015-9.264,24.568-22.795,23.293c-4.312-0.407-8.071-3.201-9.349-7.351
				c-1.983-6.443,2.397-13.514,5.973-18.486c-1.079-0.631-2.159-1.262-3.238-1.893c-3.493,7.021-11.372,21.734-20.854,13.89
				c-8.426-6.97-12.223-20.035-15.332-30.031c-3.693-11.874-6.416-24.183-8.022-36.517c-0.461-3.537-0.939-7.196-0.715-10.771
				c0.028-0.462,0.023-0.443,0.158-0.898c-0.333,1.123-2.129,0.84,0.126,0.935c3.399,0.144,6.866-0.313,10.161-1.122
				c8.894-2.186,16.116-12.769,7.388-19.948c-3.603-2.962-8.562-4.021-12.975-5.121c-1.779-0.444-3.731-0.791-5.321-1.745
				c0.714,0.429,3.047-2.347,3.914-3.588c3.623-5.185,5.608-11.333,8.203-17.053c2.728-6.013,5.861-10.518,13.036-9.252
				c6.994,1.233,13.592,5.302,19.501,9.042c5.294,3.353,10.501,7.107,14.986,11.502c1.756,1.72,4.18-0.824,2.652-2.652
				c-17.333-20.743-44.26-48.657-31.117-77.995c-0.706,0.287-1.412,0.574-2.117,0.861c22.104,5.922,36.79,26.132,55.391,38.2
				c2.045,1.327,3.869-1.888,1.893-3.238c-13.338-9.113-22.93-24.284-29.554-38.71c-6.606-14.386-11.6-33.901-1.182-47.718
				c-0.855,0.225-1.71,0.448-2.565,0.673c26.369,11.745,39.386,40.972,60.693,59.035c1.392,1.18,3.629,0.089,3.134-1.824
				c-3.191-12.348-9.541-23.99-14.135-35.852c-2.511-6.48-4.829-13.094-6.214-19.917c-0.84-4.139-1.867-10.324,1.383-13.737
				c3.964-4.162,12.67-0.659,16.952,0.914c9.745,3.58,17.865,9.949,24.823,17.553c14.406,15.744,22.516,36.891,25.803,57.729
				c3.118,19.773,1.41,41.426-8.416,59.17C2015.247,737.663,2018.485,739.553,2019.657,737.438L2019.657,737.438z"/>
		</g>
	</g>
	<g>
		<path fill="#F4EDE1" d="M1857.233,740.498c24.895-39.846,49.673,50.14-6.418,41.457"/>
		<g>
			<path fill="#1D1B3A" d="M1858.853,741.444c3.102-4.863,8.738-11.917,15.19-8.228c5.524,3.158,7.789,11.103,8.558,16.941
				c1,7.6-0.316,15.641-4.856,21.934c-5.984,8.295-17.081,9.412-26.431,8.056c-2.364-0.344-3.382,3.27-0.996,3.615
				c10.915,1.585,22.652,0.188,29.991-8.899c5.736-7.104,7.198-16.991,5.894-25.821c-1.064-7.199-4.108-15.889-11.009-19.468
				c-8.241-4.275-15.554,3.664-19.579,9.978C1854.31,741.597,1857.557,743.476,1858.853,741.444L1858.853,741.444z"/>
		</g>
	</g>
</g>
</svg>
