<?xml version="1.0" encoding="utf-8"?>
<!-- Generator: Adobe Illustrator 16.0.4, SVG Export Plug-In . SVG Version: 6.00 Build 0)  -->
<!DOCTYPE svg PUBLIC "-//W3C//DTD SVG 1.1//EN" "http://www.w3.org/Graphics/SVG/1.1/DTD/svg11.dtd">
<svg version="1.1" id="char1-head" xmlns="http://www.w3.org/2000/svg" xmlns:xlink="http://www.w3.org/1999/xlink" x="0px" y="0px"
	 width="2554.794px" height="1700.788px" viewBox="0 0 2554.794 1700.788" enable-background="new 0 0 2554.794 1700.788"
	 xml:space="preserve">
<g>
	<g>
		<path fill="#F4EDE1" d="M714.913,899.751c22.173-19.916,32.304-58.932,30.913-85.914c-1.811-36.016-20.795-51.145-31.766-83.871
			c10.513,6.533,16.74,12.555,34.875,9.765c10.427-1.605,36.417-16.717,20.905-30.021c-17.95-15.398-57.125,4.799-71.573-13.314
			c-18.666-23.404-47.786-55.068-81.386-48.762c-29.475,5.532-34.37,34.832-35.742,60.094c-1.641,30.173,1.893,60.571-1.396,90.666
			c-3.291,30.11-26.181,59.234-8.493,89.188c11.056,18.724,38.778,30.844,59.838,34.002
			C663.818,926.492,690.339,921.82,714.913,899.751z"/>
		<g>
			<path fill="#1D1B3A" d="M716.238,901.078c21.955-20.156,31.449-53.312,31.588-82.36c0.074-15.473-3.87-30.257-10.438-44.174
				c-7.142-15.134-16.072-29.146-21.52-45.075c-0.918,0.705-1.836,1.411-2.754,2.117c8.371,5.256,15.789,10.141,25.951,10.694
				c9.422,0.514,18.073-2.366,25.873-7.471c5.647-3.695,12.666-10.17,11.477-17.695c-1.314-8.316-10.067-12.817-17.499-14.484
				c-9.516-2.135-19.649-0.799-29.265-0.25c-9.224,0.526-20.442,1.276-27.972-5.1c-3.743-3.17-6.609-7.823-9.791-11.548
				c-4.068-4.765-8.339-9.349-12.806-13.741c-8.427-8.286-17.876-15.708-28.514-20.935c-18.504-9.093-42.772-8.761-57.073,7.677
				c-13.483,15.497-14.119,39.433-14.597,58.842c-0.78,31.71,4.291,65.09-4.179,96.087c-6.84,25.038-19.249,49.9-5.087,74.866
				c6.282,11.074,17.694,18.869,28.784,24.508c12.27,6.238,25.524,9.675,39.137,11.274c13.947,1.64,28.144,1.203,41.751-2.426
				C693.186,918.18,705.553,910.536,716.238,901.078c1.814-1.606-0.848-4.248-2.651-2.652
				c-20.264,17.936-44.569,24.643-71.291,22.598c-23.905-1.829-50.214-10.478-66.011-29.453
				c-20.03-24.061-3.816-54.381,2.887-80.053c3.774-14.451,3.878-29.771,3.905-44.614c0.029-16.446-0.745-32.881-0.432-49.328
				c0.392-20.553,1.262-46.714,18.403-60.996c20.898-17.413,50.058-3.736,67.735,11.089c9.191,7.709,17.248,16.729,24.856,25.97
				c2.769,3.363,5.19,6.602,8.966,8.885c3.54,2.141,7.728,2.961,11.768,3.485c9.939,1.29,20.159-0.391,30.118-0.664
				c9.521-0.262,21.97,0.476,27.389,9.696c6.033,10.265-13.269,19.902-20.41,22.168c-6.493,2.061-14.229,1.847-20.707-0.097
				c-5.753-1.726-10.737-5.61-15.759-8.764c-1.352-0.849-3.289,0.556-2.754,2.117c4.809,14.059,12.041,26.837,18.89,39.954
				c7.55,14.459,12.375,29.423,12.902,45.83c0.919,28.644-8.895,62.382-30.456,82.177
				C711.802,900.064,714.461,902.709,716.238,901.078z"/>
		</g>
	</g>
	<g>
		<g>
			<path fill="#1D1B3A" d="M674.895,693.549c2.991,2.15,5.606,5.033,8,7.808c0.634,0.734,5.738,7.053,2.18,5.47
				c-3.373-1.5-6.177-4.554-8.594-7.251c-1.896-2.114-5.391-5.819-5.229-8.93c-0.625,0.625-1.25,1.25-1.875,1.875
				c0.978,0.271,1.956,0.543,2.933,0.814c2.194,0.955,4.105-2.275,1.893-3.238c-1.637-0.713-3.047-1.141-4.826-1.326
				c-1.056-0.11-1.826,0.938-1.875,1.875c-0.235,4.495,4.083,9.079,6.842,12.156c2.996,3.344,7.178,7.623,11.891,8.144
				c5.042,0.557,3.873-5.605,2.367-8.157c-2.802-4.748-7.35-9.268-11.813-12.478C674.819,688.896,672.951,692.151,674.895,693.549
				L674.895,693.549z"/>
		</g>
	</g>
	<g>
		<g>
			<path fill="#1D1B3A" d="M662.2,674.013c-6.537,7.174-8.25,14.107-6.458,23.613c0.448,2.375,4.062,1.366,3.616-0.996
				c-1.532-8.127-0.098-13.829,5.493-19.965C666.477,674.882,663.832,672.222,662.2,674.013L662.2,674.013z"/>
		</g>
	</g>
	<g>
		<g>
			<path fill="#1D1B3A" d="M749.203,837.196c-5.814,2.153-11.678,4.128-17.393,6.542c-2.221,0.938-0.307,4.167,1.893,3.238
				c5.413-2.287,10.99-4.125,16.498-6.165C752.447,839.979,751.476,836.353,749.203,837.196L749.203,837.196z"/>
		</g>
	</g>
	<g>
		<path fill="#DC4832" d="M605.568,658.497c9.028-4.358,27.68-10.516,20.091-24.819c-6.652-13.512-27.659-12.088-35.431-0.153
			c12.275-23.892-47.659-21.469-36.273,7.015c-19.179-22.053-47.177,23.843-21.69,33.065c-11.817-6.57-25.35,9.745-28.799,21.907
			c-3.27,14.031,12.732,29.967,23.361,17.365c-22.56,6.621-3.379,56.78,13.809,35.674c-12.298,4.336-5.121,17.949,1.784,21.733
			c7.314,4.475,31.956,6.811,32.89-6.449c5.875,9.081,39.109,0.866,28.321-11.004c1.122,16.716,25.029-2.477,26.033-13.28
			c1.121-11.392-10.901-11.279-18.445-14.576c13.828,13.07,40.662-32.438,8.066-24.71c14.721,16.911,47.588-37.204,7.701-28.445
			c12.916,3.729,8.366-9.376,0.297-12.773c-5.028-2.199-14.606-3.445-18.379,1.933"/>
		<g>
			<path fill="#1D1B3A" d="M606.514,660.116c12.06-5.728,29.655-13.363,19.598-29.395c-8.441-13.456-29.445-9.721-37.504,1.856
				c1.08,0.631,2.159,1.262,3.238,1.893c6.623-13.54-7.06-19.78-18.701-19.018c-13.739,0.9-26.603,10.773-21,25.584
				c1.045-0.607,2.089-1.216,3.134-1.824c-21.162-23.285-51.892,25.148-23.514,36.199c1.985,0.773,3.336-2.492,1.445-3.427
				c-14.367-7.1-30.343,11.523-31.86,24.769c-1.638,14.299,14.471,30.912,26.801,17.449c1.205-1.316,0.051-3.741-1.824-3.134
				c-13.104,4.241-13.337,20.058-9.159,30.927c4.284,11.148,15.479,18.842,24.792,7.881c1.08-1.271,0.089-3.901-1.824-3.134
				c-14.56,5.843-6.298,22.677,5.064,26.833c9.971,3.648,30.349,4.393,31.984-9.741c-1.165,0.315-2.329,0.631-3.494,0.946
				c8.369,11.479,43.352,1.033,31.266-13.276c-1.017-1.203-3.362-0.271-3.201,1.326c1.703,16.868,19.745,3.591,25.209-3.37
				c3.9-4.969,6.323-11.301,3.097-17.276c-3.301-6.118-12.63-6.671-18.345-9.018c-1.753-0.721-3.172,1.939-1.824,3.134
				c9.329,8.26,20.641-2.934,24.688-11.359c1.973-4.108,3.238-9.547,0.476-13.599c-3.497-5.13-11.141-4.028-16.271-2.886
				c-1.44,0.32-1.733,2.148-0.827,3.134c9.709,10.565,22.984-2.82,27.422-11.853c2.35-4.782,3.842-11.007,0.849-15.844
				c-3.982-6.434-13.57-5.166-19.743-3.883c-1.844,0.383-1.744,3.171,0,3.615c3.444,0.879,7.834,1.5,9.908-2.099
				c1.648-2.86-0.288-6.853-2.058-9.138c-5.65-7.296-20.259-10.652-26.759-2.738c-1.521,1.853,1.115,4.522,2.651,2.652
				c4.136-5.036,12.696-3.668,17.777-0.772c2.127,1.211,3.887,3.397,4.806,5.64c1.678,4.095-2.68,3.516-5.328,2.84
				c0,1.205,0,2.41,0,3.615c4.732-0.983,12.667-2.43,15.773,2.59c2.227,3.599,0.249,8.854-1.416,12.242
				c-3.258,6.631-13.737,18.635-21.231,10.479c-0.276,1.045-0.551,2.09-0.827,3.134c3.779-0.841,10.19-2.173,12.565,2.013
				c1.708,3.01-0.233,7.502-1.628,10.217c-2.871,5.588-11.494,15.264-18.176,9.347c-0.608,1.045-1.216,2.09-1.824,3.134
				c4.375,1.798,9.172,2.477,13.344,4.762c5.687,3.114,3.904,9.644,1.103,14.033c-2.704,4.237-18.436,19.393-19.662,7.254
				c-1.067,0.442-2.134,0.884-3.201,1.326c7.473,8.849-19.869,16.286-25.376,8.731c-1.142-1.566-3.275-0.943-3.494,0.946
				c-1.163,10.054-16.963,8.573-23.832,7.091c-4.016-0.867-7.36-2.494-10.14-5.566c-4.438-4.905-5.364-12.178,1.67-15.001
				c-0.608-1.044-1.216-2.089-1.824-3.134c-7.723,9.089-15.461,1.747-18.823-7.001c-3.281-8.537-3.721-22.121,6.838-25.539
				c-0.608-1.044-1.216-2.089-1.824-3.134c-10.329,11.279-22.347-4.527-20.227-15.541c1.915-9.947,14.591-26.446,26.045-20.786
				c0.481-1.143,0.963-2.285,1.445-3.427c-22.107-8.61,2.487-49.054,19.866-29.932c1.221,1.343,3.804-0.054,3.134-1.824
				c-4.498-11.889,4.907-19.252,15.941-20.696c8.439-1.104,22.451,1.896,16.905,13.233c-1.068,2.184,1.857,3.876,3.238,1.893
				c7.405-10.639,25.638-12.09,32.193,0.153c6.649,12.419-11.066,18.287-19.418,22.254
				C602.438,657.915,604.342,661.147,606.514,660.116L606.514,660.116z"/>
		</g>
	</g>
	<g>
		<path fill="#F4EDE1" d="M632.992,735.137c-23.902-5.942-28.385,15.846-12.947,30.206c4.979,4.953,14.44,13.864,22.409,12.874
			c5.974-0.495,9.958-6.438,14.44-9.903"/>
		<g>
			<path fill="#1D1B3A" d="M633.491,733.33c-7.41-1.696-16.189-1.844-21.353,4.674c-4.567,5.765-3.177,13.724-0.206,19.84
				c4.002,8.238,13.026,15.699,20.916,19.988c3.993,2.171,8.358,2.901,12.729,1.607c5.09-1.507,8.7-6.572,12.642-9.799
				c1.873-1.533-0.797-4.17-2.651-2.652c-3.094,2.532-5.714,5.588-9.039,7.837c-4.226,2.859-8.973,1.3-13.026-0.903
				c-6.467-3.517-13.231-9.837-17.238-16.031c-3.025-4.678-4.626-11.012-2.06-16.223c3.291-6.685,12.246-6.105,18.288-4.723
				C634.848,737.484,635.848,733.869,633.491,733.33L633.491,733.33z"/>
		</g>
	</g>
	<g>
		<path fill="#F4EDE1" d="M639.749,744.948c-18.418-2.708-10.833,18.958,5.417,17.334"/>
		<g>
			<path fill="#1D1B3A" d="M639.749,743.073c-6.788-0.874-14.242,2.096-12.244,10.163c1.875,7.568,10.494,11.479,17.66,10.921
				c2.395-0.187,2.413-3.938,0-3.75c-5.456,0.424-11.481-1.852-13.73-7.225c-2.496-5.965,3.874-6.932,8.313-6.359
				C642.143,747.131,642.113,743.377,639.749,743.073L639.749,743.073z"/>
		</g>
	</g>
</g>
</svg>
