<?xml version="1.0" encoding="utf-8"?>
<!-- Generator: Adobe Illustrator 16.0.4, SVG Export Plug-In . SVG Version: 6.00 Build 0)  -->
<!DOCTYPE svg PUBLIC "-//W3C//DTD SVG 1.1//EN" "http://www.w3.org/Graphics/SVG/1.1/DTD/svg11.dtd">
<svg version="1.1" id="char4" xmlns="http://www.w3.org/2000/svg" xmlns:xlink="http://www.w3.org/1999/xlink" x="0px" y="0px"
	 width="2554.794px" height="1700.788px" viewBox="0 0 2554.794 1700.788" enable-background="new 0 0 2554.794 1700.788"
	 xml:space="preserve">
<g>
	<g>
		<path fill="#F4EDE1" d="M1936.025,938.908c-3.489-19.195,3.49-69.8,1.745-71.545l5.234-33.153
			c-1.211-43.431-54.211-64.431-62.328-6.102l-0.49,42.745c1.745,20.939,1.745,45.369,1.745,68.055"/>
		<g>
			<path fill="#1D1B3A" d="M1937.833,938.41c-3.085-18.025-0.054-37.579,1.335-55.657c0.369-4.812,1.717-10.868,0.529-15.654
				c-0.455-1.833-0.287,1.832-0.027,0.184c0.145-0.915,0.289-1.83,0.434-2.744c0.569-3.608,1.139-7.216,1.708-10.823
				c0.983-6.225,1.967-12.45,2.949-18.676c1.039-6.585-1.739-14.67-4.284-20.631c-5.207-12.197-16.435-22.763-30.056-23.892
				c-10.942-0.907-19.832,6.367-24.934,15.425c-5.766,10.237-6.676,21.283-6.806,32.669c-0.122,10.593-0.243,21.185-0.364,31.777
				c-0.111,9.654,1.172,19.488,1.42,29.165c0.337,13.115,0.319,26.237,0.319,39.355c0,2.418,3.75,2.418,3.75,0
				c0-15.588-0.013-31.178-0.538-46.758c-0.29-8.589-1.255-17.152-1.156-25.742c0.146-12.727,0.292-25.454,0.438-38.181
				c0.101-8.821,4.519-19.588,10.191-26.259c4.475-5.261,10.798-8.059,17.679-7.702c15.441,0.8,26.084,16.393,29.431,30.002
				c3.666,14.907-3.735,31.471-3.671,45.581c0.105,23.073-5.904,46.532-1.963,69.557
				C1934.625,941.787,1938.238,940.774,1937.833,938.41L1937.833,938.41z"/>
		</g>
	</g>
	<g>
		<path fill="#58566D" d="M1846.344,1270.938"/>
		<g>
			<path fill="#1D1B3A" d="M1846.344,1272.813c2.418,0,2.418-3.75,0-3.75S1843.926,1272.813,1846.344,1272.813L1846.344,1272.813z"
				/>
		</g>
	</g>
	<g>
		<path fill="#58566D" d="M1981.28,1009.465c8.399,14.127,30.184,29.393,31.713,53.883c1.999,32.008-19.884,80.845-19.884,80.845
			s22.508,31.375,36.884,19.155c20-17,30.556-61.553,33-86c2.444-24.446-23.663-126.233-77.922-174.365
			c-26.698-23.684-110.333-11.86-130.571-8.369c0,0-60.967,2.285-35.414,95.651c17.148,62.657,2.637,226.14,2.637,226.14
			s175.969,21.33,163.526-12.442c-24.885-67.544-3.369-235.735-3.369-235.735"/>
		<g>
			<path fill="#1D1B3A" d="M1979.661,1010.412c4.995,8.16,11.977,14.954,17.92,22.403c7.681,9.628,13.209,20.437,13.643,32.934
				c0.741,21.378-6.622,43.35-13.968,63.151c-1.78,4.799-3.653,9.577-5.727,14.258c-1.243,2.809,4.27,7.422,5.842,9.186
				c5.004,5.613,11.053,11.408,18.158,14.21c7.6,2.997,13.437,0.756,18.95-4.87c14.688-14.986,21.338-38.085,25.956-57.953
				c3.298-14.189,5.561-28.104,3.55-42.582c-5.243-37.769-19.569-75.491-38.162-108.608c-10.517-18.731-23.369-36.505-39.426-50.883
				c-12.188-10.912-30.881-13.151-46.492-14.354c-29.312-2.257-58.038,2.169-86.937,5.574c-17.28,2.036-31.249,13.844-37.581,29.842
				c-6.695,16.916-4.888,36.396-1.494,53.81c1.808,9.28,4.656,18.297,6.331,27.608c1.519,8.447,2.466,16.991,3.215,25.537
				c3.446,39.296,2.438,79.045,0.729,118.405c-0.987,22.727-2.327,45.462-4.303,68.127c-0.006,0.065-0.012,0.132-0.018,0.198
				c-0.098,1.106,0.935,1.761,1.875,1.875c18.017,2.18,36.13,3.717,54.235,4.917c28.876,1.913,58.948,3.84,87.648-0.908
				c7.613-1.26,17.724-3.135,22.549-9.878c1.786-2.496,1.922-5.724,1.033-8.572c-2.262-7.243-4.454-14.345-5.963-21.804
				c-7.762-38.382-6.871-78.776-5.272-117.705c1.317-32.076,3.735-64.247,7.802-96.103c0.306-2.395-3.448-2.364-3.75,0
				c-2.584,20.243-4.341,40.617-5.801,60.968c-2.831,39.462-4.291,79.317-1.211,118.808c1.33,17.051,3.528,34.289,8.509,50.697
				c1.042,3.433,3.727,7.688,1.771,11.255c-1.607,2.932-5.313,4.521-8.275,5.633c-11.055,4.149-23.598,4.722-35.266,5.246
				c-15.4,0.692-30.851,0.307-46.243-0.398c-23.959-1.097-47.951-3.024-71.766-5.905c0.625,0.625,1.25,1.25,1.875,1.875
				c1.853-20.908,3.081-41.886,4.072-62.85c1.861-39.38,2.827-79.037-0.041-118.392c-1.201-16.486-3.423-32.695-7.611-48.693
				c-5.063-19.343-8.237-41.026-1.845-60.457c5.17-15.715,19.433-28.106,35.825-29.491c11.493-0.971,22.928-3.346,34.445-4.416
				c19.784-1.837,39.898-2.582,59.672-0.26c9.017,1.06,18.191,2.948,26.497,6.711c8.365,3.79,14.737,10.697,20.823,17.384
				c15.101,16.59,26.74,36.224,36.442,56.357c9.131,18.948,16.393,38.836,21.961,59.11c3.73,13.582,7.281,27.922,7.436,42.09
				c0.087,8.026-1.743,16.25-3.332,24.074c-2.274,11.197-5.405,22.24-9.496,32.91c-3.929,10.246-9.071,20.474-16.618,28.549
				c-3.021,3.232-6.104,5.512-10.683,5.201c-4.42-0.3-8.722-3.302-12.099-5.924c-4.644-3.605-8.692-8.019-12.392-12.567
				c-0.493-0.606-0.974-1.222-1.444-1.844c-0.924-1.22,0.179-0.238-0.473,1.219c0.438-0.981,0.857-1.973,1.275-2.963
				c5.543-13.142,10.232-26.674,13.852-40.471c4.388-16.729,8.144-35.788,1.856-52.485c-6.056-16.085-20.079-26.396-28.822-40.679
				C1981.64,1006.46,1978.396,1008.343,1979.661,1010.412L1979.661,1010.412z"/>
		</g>
	</g>
	<g>
		<path fill="#58566D" d="M1849.437,988.417c0,0-47.136,50.904-44.643,78.331c3.252,35.771,40,69,40,69s-16.644,29.667-44,37
			c-4.932,1.322-52.821-71.614-52.821-114.311c0-29.483,44.737-96.297,66.943-133.307"/>
		<g>
			<path fill="#1D1B3A" d="M1848.11,987.09c-6.863,7.427-13.221,15.359-19.297,23.436c-10.074,13.392-20.251,28.222-24.655,44.598
				c-4.861,18.079,5.058,37.745,14.648,52.536c6.896,10.637,15.255,20.871,24.661,29.414c-0.098-0.758-0.195-1.516-0.293-2.272
				c-7.35,13.001-18.861,24.655-31.938,31.79c-2.646,1.444-5.438,2.58-8.286,3.557c-0.443,0.152-3.641,0.411-2.064,0.767
				c0.331,0.075-0.256-0.172-0.291-0.194c-1.476-0.952-2.677-2.629-3.785-3.957c-4.516-5.412-8.36-11.429-12.099-17.389
				c-10.876-17.337-20.306-35.825-27.267-55.083c-6.136-16.977-10.036-34.14-4.616-51.746c6.389-20.751,17.804-40.15,28.656-58.813
				c11.307-19.447,23.463-38.377,35.05-57.655c1.249-2.078-1.994-3.962-3.238-1.893c-11.339,18.866-23.196,37.415-34.323,56.41
				c-10.86,18.538-21.679,37.608-28.776,57.964c-2.456,7.042-4.254,14.359-4.066,21.855c0.227,9.058,2.384,18.066,4.982,26.701
				c5.875,19.519,15.09,38.137,25.283,55.729c4.835,8.343,10.001,16.576,15.893,24.221c2.564,3.326,5.593,8.457,10.34,7.113
				c18.358-5.197,34.534-21.122,43.784-37.483c0.4-0.708,0.333-1.703-0.293-2.272c-8.882-8.064-16.646-17.629-23.339-27.542
				c-10.059-14.896-19.757-34.345-14.491-52.608c4.509-15.641,14.744-29.865,24.41-42.714c5.664-7.53,11.663-14.891,18.062-21.814
				C1852.4,987.97,1849.755,985.311,1848.11,987.09L1848.11,987.09z"/>
		</g>
	</g>
	<path fill="#1D1B3A" stroke="#1D1B3A" stroke-width="0.75" stroke-miterlimit="10" d="M2017.383,1622.601
		c0,0-20.232-84.526-25.168-184.658c-3.237-65.682,7.172-187.664-7.814-226.839c-10.336,6.683-24.584,9.712-37.451,9.66
		c-10.104,1.148-20.288,1.328-30.459,1.055c-14.188-0.382-28.391-1.079-42.562-1.817c-13.95-0.727-28.018-1.854-41.627-5.101
		c32.734,362.938,44.241,396.804,40.587,394.351c-104.772-70.302-104.373,2.075,13.497,56.911
		c37.084,17.252,23.282-30.934,23.282-30.934l20.373,1.407c0,0-0.042-0.637-0.119-1.842c11.263,7.249,24.385,14.536,39.409,21.525
		c37.084,17.252,23.282-30.934,23.282-30.934L2017.383,1622.601z M1920.438,1294.02l-1.865-1.544
		C1919.193,1292.705,1919.816,1293.227,1920.438,1294.02z M1950.379,1593.333c-10.366-6.956-15.276-7.149-23.554-11.454
		c-4.357-80.419-10.82-226.953-3.671-282.701C1925.277,1332.755,1953.866,1595.673,1950.379,1593.333z"/>
	<g>
		<path fill="#F4EDE1" d="M1805.301,1172.519c-6.854,14.867,2.972,28.516,15.556,42.47c8.848,9.812,33.929-2.727,45.441-7.877
			c1.749-0.782,3.586-4.896,6.362-9.392c1.564-4.21,3.221-18.655-3.778-26.6c-5.354-6.077-13.701-3.803-19.377-8.86
			c-2.249-1.389,1.297,0.149,5.826,0.358c2.428-0.22,5.856-0.506,9.082-1.194c-0.952,0.052-1.95-0.24-2.854-1.02
			c-0.042-0.036-0.085-0.07-0.127-0.106c-1.234,0.832-21.462-9.715-22.824-10.59"/>
		<g>
			<path fill="#1D1B3A" d="M1803.682,1171.573c-7.355,17.305,4.766,32.365,15.849,44.742c8.381,9.358,25.918,1.77,35.105-2.003
				c4.247-1.744,11.812-3.591,14.623-7.419c4.258-5.802,6.363-10.968,6.638-18.066c0.264-6.811-1.351-13.69-5.688-19.032
				c-2.244-2.763-5.791-4.065-9.099-4.976c-2.862-0.788-9.204-1.478-10.661-4.064c-0.539,0.94-1.079,1.881-1.619,2.821
				c2.135,0.047,4.349,0.744,6.502,0.918c3.01,0.242,6.625-0.693,9.58-1.262c1.752-0.336,1.842-3.363,0-3.615
				c-4.16-0.571-8.237-2.859-12.516-4.919c-4.309-2.074-8.746-4.128-12.841-6.608c-2.074-1.256-3.957,1.987-1.893,3.238
				c4.663,2.825,9.732,5.135,14.649,7.474c2.303,1.096,4.636,2.173,7.041,3.026c0.623,0.221,1.268,0.365,1.929,0.39
				c1.863,0.069-2.242-1.111-0.668-0.193c1.567,0.914,1.554,0.969,3.302,1.208c0-1.205,0-2.41,0-3.615
				c-2.847,0.547-5.701,0.866-8.584,1.127c-2.209,0.2-4.321-0.87-6.502-0.918c-1.447-0.031-2.302,1.609-1.619,2.821
				c1.97,3.496,8.136,4.651,11.605,5.469c8.379,1.977,12.138,7.546,13.148,15.842c0.562,4.622,0.534,10.391-1.922,14.479
				c-1.824,3.037-3.015,6.294-6.382,7.82c-2.347,1.063-4.689,2.132-7.048,3.169c-8.79,3.865-23.322,10.991-32.73,5.682
				c-2.625-1.48-4.647-4.758-6.553-7.013c-2.86-3.385-5.449-6.956-7.739-10.747c-4.472-7.403-6.129-15.744-2.67-23.882
				C1807.854,1171.267,1804.625,1169.353,1803.682,1171.573L1803.682,1171.573z"/>
		</g>
	</g>
	<g>
		<g>
			<path fill="#1D1B3A" d="M1861.339,1192.394c-2.114-3.872-3.159-8.445-4.553-12.613c-1.075-3.216-4.474-4.015-7.467-4.653
				c-4.202-0.896-8.988-0.789-12.927-2.642c-1.275-0.6-1.729-1.729-3.242-2.137c-1.697-0.456-3.68,0.039-5.302,0.542
				c-1.492,0.462-2.777,1.329-3.918,2.369c-0.477,0.436-1.954,3.549-1.245,3.29c-4.223,1.545-8.99,1.798-12.546,4.89
				c-2.824,2.456-2.348,4.354,0.03,6.98c1.495,1.651,3.405,2.976,5.156,4.336c0.727,0.564,1.445,1.138,2.156,1.724
				c0.391,0.325,0.769,0.666,1.131,1.022c0.504,0.823,0.723,0.642,0.657-0.545c-1.822,1.597,0.841,4.238,2.652,2.652
				c3.988-3.494-6.603-9.52-8.483-11.231c-2.311-2.102-1.709-1.714,0.915-3.234c2.099-1.215,4.632-1.759,6.961-2.346
				c1.548-0.39,5.21-0.915,4.949-3.304c-0.268-2.456,2.889-3.274,4.799-3.516c1.56-0.196,2.244,1.013,3.437,1.745
				c3.005,1.848,7.327,1.958,10.714,2.479c4.215,0.649,7.36,0.738,8.773,5.05c1.206,3.682,2.248,7.615,4.113,11.033
				C1859.26,1196.41,1862.498,1194.517,1861.339,1192.394L1861.339,1192.394z"/>
		</g>
	</g>
	<g>
		<path fill="#F4EDE1" d="M1822.373,1180.167c4.169,2.085,8.338,4.169,11.812,6.948c6.253,3.474,3.474,5.559,5.559,10.422"/>
		<g>
			<path fill="#1D1B3A" d="M1821.427,1181.786c4.806,2.406,9.638,4.955,13.87,8.295c2.193,1.731,1.692,5.516,2.639,7.954
				c0.864,2.229,4.492,1.262,3.615-0.996c-1.224-3.154-0.747-6.401-3.058-9.094c-1.605-1.871-4.322-3.234-6.346-4.582
				c-2.786-1.855-5.841-3.319-8.828-4.815C1821.164,1177.468,1819.265,1180.703,1821.427,1181.786L1821.427,1181.786z"/>
		</g>
	</g>
	<g>
		<g>
			<path fill="#1D1B3A" d="M1840.412,1173.53c-0.104-1.15-0.488-2.163-1.726-2.504c-0.709-0.194-1.456-0.019-2.154,0.112
				c-2.13,0.398-1.127,0.728-1.206-1.216c-0.16-3.92,3.532-3.221,6.59-4.204c3.31-1.064,6.46-2.518,9.832-3.4
				c3.362-0.88,7.561,0.387,10.899,1.006c5.191,0.965,8.333,2.875,9.761,8.024c1.786,6.438,1.836,17.143-1.128,23.07
				c-1.078,2.156,2.156,4.056,3.238,1.893c3.668-7.337,3.221-18.08,1.506-25.96c-2.069-9.504-12.967-12.118-21.581-12.069
				c-4.322,0.025-8.337,1.916-12.319,3.396c-2.932,1.09-7.555,0.812-9.615,3.396c-1.506,1.891-1.398,6.394-0.555,8.462
				c0.391,0.958,1.233,1.558,2.265,1.663c0.616,0.064,1.218,0.046,1.827-0.092c2.135-0.485,0.773,0.166,0.616-1.577
				C1836.878,1175.917,1840.63,1175.939,1840.412,1173.53L1840.412,1173.53z"/>
		</g>
	</g>
	<g>
		<path fill="#F4EDE1" d="M1832.804,1152.11c1.189-1.638,5.239-5.735,6.22-7.327c4.62-1.796,9.462-4.627,12.505-5.845
			c4.118-2.059,9.266-4.118,13.898-4.633c4.118,5.147,7.207,12.354,12.869,15.957c-2.574,3.604-5.662,5.663-6.692,10.295
			c-1.029,2.574,0,8.751-1.544,10.811c-3.604,5.662-12.354,4.633-13.898,0c-1.545-4.118-5.147-13.384-4.117-18.017
			c0.174-0.24-3.629,6.164-3.629,6.164"/>
		<g>
			<path fill="#1D1B3A" d="M1834.13,1153.436c1.388-1.77,2.945-3.401,4.436-5.084c1.911-2.16,3.337-2.726,6.023-3.993
				c6.94-3.275,13.626-7.126,21.336-8.246c-0.705-0.287-1.411-0.574-2.117-0.861c4.402,5.743,7.479,12.374,13.542,16.63
				c-0.225-0.855-0.448-1.71-0.673-2.565c-2.368,3.117-4.927,5.641-6.465,9.288c-1.565,3.71,0.068,8.362-1.771,11.817
				c-1.456,2.735-4.969,3.266-7.655,2.667c-2.601-0.58-3.151-3.093-3.937-5.229c-1.558-4.24-3.678-9.42-2.997-14.01
				c0.287-1.931-2.406-3.516-3.427-1.444c-1.046,2.123-2.421,4.129-3.629,6.164c-1.237,2.085,2.005,3.97,3.238,1.893
				c1.208-2.035,2.583-4.041,3.629-6.164c-1.143-0.481-2.285-0.963-3.427-1.444c-0.865,5.828,1.425,11.727,3.405,17.114
				c1.609,4.381,3.89,6.641,8.696,7.136c4.428,0.456,8.995-2.697,10.185-6.905c0.837-2.962,0.033-6.174,0.889-9.143
				c1.145-3.968,4.075-6.65,6.504-9.847c0.655-0.862,0.083-2.035-0.673-2.565c-5.446-3.823-8.241-10.125-12.196-15.284
				c-0.572-0.747-1.184-0.997-2.117-0.861c-6.864,0.996-13.148,4.094-19.293,7.169c-2.304,1.153-6.774,2.093-8.231,4.17
				c-1.747,2.492-4.05,4.555-5.927,6.947C1830.004,1152.664,1832.638,1155.337,1834.13,1153.436L1834.13,1153.436z"/>
		</g>
	</g>
	<g>
		<path fill="#F4EDE1" d="M2022.137,1171.045c0.506-0.616,0.956-1.271,1.383-1.94c-11.863-2.33-22.11-9.602-25.641-20.729
			c-4.228,1.952-8.541,2.089-12.486-2.617c-2.304-2.746-4.03-5.397-7.944-4.532c-3.877,0.857-8.032,7.016-10.204,9.917
			c-2.426,3.238-7.39,5.736-9.044,9.448c-1.917,4.303,0.372,7.929,2.018,12.014c0.815,2.024,1.548,4.007,2.414,5.903
			c-0.896,0.66-1.7,1.449-2.307,2.534c-1.901,3.406,1.174,10.088,2.341,13.349c0.634,1.769,1.725,3.625,3.203,4.953
			c0.201,1.011,0.549,1.919,1.092,2.652c2.438,3.297,5.808,2.212,8.623-0.061c0.528-0.428,1.096-0.924,1.669-1.474
			c1.013,1.487,2.401,2.677,4.224,3.266c2.848,0.919,4.738,0.352,7.482-0.766c1.097-0.446,1.933-1.405,2.73-2.347
			c0.477,2.564,1.288,5.212,3.334,6.115c4.549,2.013,8.133,1.479,12.768,0.042c8.773-2.717,16.154-7.833,16.167-17.84
			C2023.966,1183.549,2018.475,1175.504,2022.137,1171.045z"/>
		<g>
			<g>
				<path fill="#1D1B3A" d="M1981.294,1174.343c2.342-0.361,4.23-1.442,6.06-2.936c3.341-2.728,7.801-6.68,9.531,0.072
					c0.574,2.238,2.858,6.187,1.766,8.457c-1.831,3.803-7.889,6.862-11.244,9.121c-3.54,2.384-16.621,15.055-20.782,11.422
					c-2.679-2.339-4.84-7.334-6.152-10.506c-2.085-5.04,1.065-5.951,5.03-7.588c2.203-0.908,1.239-4.538-0.996-3.615
					c-2.694,1.111-7.499,2.251-8.24,5.672c-1.28,5.91,2.901,11.093,5.682,15.877c6.219,10.698,18.156-1.622,24.553-6.124
					c4.831-3.401,11.184-6.63,14.751-11.496c2.928-3.994,0.311-7.97-0.75-12.217c-0.979-3.918-2.51-6.614-6.79-6.976
					c-5.222-0.44-8.464,6.457-13.413,7.221C1977.913,1171.095,1978.93,1174.708,1981.294,1174.343L1981.294,1174.343z"/>
			</g>
		</g>
		<g>
			<g>
				<path fill="#1D1B3A" d="M2002.115,1180.503c3.412-0.984,9.522-1.636,6.72,3.688c-1.609,3.058-4.373,5.591-6.823,7.975
					c-2.768,2.692-5.869,4.66-9.222,6.562c-1.911,1.084-3.887,2.051-5.865,3.004c-1.305,0.707-2.698,1.167-4.18,1.38
					c-1.869,0.157-6.712-0.985-3.057-4.539c1.735-1.688-0.918-4.338-2.652-2.652c-4.801,4.669-2.2,9.777,4.03,10.822
					c3.411,0.572,6.232-1.041,9.202-2.472c4.141-1.996,8.908-4.257,12.271-7.446c4.409-4.178,10.246-8.981,11.06-15.376
					c0.839-6.589-8.878-5.601-12.48-4.56C1998.8,1177.557,1999.787,1181.176,2002.115,1180.503L2002.115,1180.503z"/>
			</g>
		</g>
		<g>
			<g>
				<path fill="#1D1B3A" d="M2008.893,1187.774c2.735-0.128,5.393-0.263,7.943,0.936c3.26,1.531,5.847,6.24,3.301,9.288
					c-2.073,2.481-5.725,3.853-8.632,5.077c-3.086,1.299-6.279,2.368-9.566,3.015c-3.785,0.744-6.004-0.024-4.715-4.172
					c0.721-2.315-2.9-3.298-3.615-0.996c-4.259,13.693,13.785,8.005,20.148,5.24c4.161-1.809,11.622-4.943,11.368-10.501
					c-0.408-8.931-8.619-11.992-16.232-11.637C2006.485,1184.136,2006.474,1187.886,2008.893,1187.774L2008.893,1187.774z"/>
			</g>
		</g>
		<g>
			<g>
				<path fill="#1D1B3A" d="M1996.131,1146.912c-4.153-2.687-7.911-5.609-11.011-9.49c-1.757-2.199-5.343-2.159-7.753-1.559
					c-2.468,0.615-4.924,2.971-6.229,5.043c-2.125,3.37-3.672,6.396-6.531,9.271c-3.943,3.964-8.271,8.069-8.223,14.058
					c0.026,3.276,2.158,5.889,3.869,8.46c3.332,5.007,5.8,10.039,5.438,16.157c-0.077,1.312,1.248,2.007,2.373,1.808
					c7.615-1.344-0.57-9.991-2.306-2.306c-0.247,1.093,0.535,2.492,1.808,2.373c5.276-0.492,11.489-2.091,14.082-7.193
					c1.524-2.999,1.709-7.6,2.103-10.902c0.508-4.253,0.633-8.38-0.438-12.552c-0.601-2.341-4.217-1.348-3.615,0.996
					c1.459,5.688,0.402,11.513-0.65,17.181c-0.554,2.981-0.973,4.853-3.703,6.548c-2.244,1.394-5.189,1.932-7.777,2.173
					c0.603,0.791,1.205,1.582,1.808,2.373c-0.769-0.769-1.537-1.537-2.306-2.306c0.791,0.603,1.582,1.205,2.373,1.808
					c0.416-7.053-2.302-12.15-5.95-18.05c-1.895-3.062-3.991-5.308-3.075-9.124c0.683-2.842,3.232-5.192,5.19-7.199
					c1.592-1.632,3.23-3.202,4.732-4.919c2.001-2.286,2.773-5.133,4.617-7.507c1.403-1.807,3.557-3.124,5.979-2.732
					c1.458,0.234,3.725,3.33,4.845,4.449c2.489,2.487,5.521,4.48,8.459,6.381C1996.275,1151.467,1998.153,1148.22,1996.131,1146.912
					L1996.131,1146.912z"/>
			</g>
		</g>
		<g>
			<g>
				<path fill="#1D1B3A" d="M2025.231,1189.854c0.589-6.258-4.258-11.837-2.941-18.001c0.504-2.357-3.11-3.361-3.615-0.996
					c-1.451,6.788,3.432,12.355,2.807,18.997C2021.255,1192.262,2025.007,1192.24,2025.231,1189.854L2025.231,1189.854z"/>
			</g>
		</g>
	</g>
</g>
</svg>
