<?xml version="1.0" encoding="utf-8"?>
<!-- Generator: Adobe Illustrator 16.0.4, SVG Export Plug-In . SVG Version: 6.00 Build 0)  -->
<!DOCTYPE svg PUBLIC "-//W3C//DTD SVG 1.1//EN" "http://www.w3.org/Graphics/SVG/1.1/DTD/svg11.dtd">
<svg version="1.1" id="char1" xmlns="http://www.w3.org/2000/svg" xmlns:xlink="http://www.w3.org/1999/xlink" x="0px" y="0px"
	 width="2554.794px" height="1700.788px" viewBox="0 0 2554.794 1700.788" enable-background="new 0 0 2554.794 1700.788"
	 xml:space="preserve">
<g>
	<g>
		<path fill="#F4EDE1" d="M777.527,1278.153c-6.126-5.783-11.682-6.452-14.958-5.137c-6.191,2.484-8.437,7.646-8.84,7.987
			c-5.13,4.595,11.893,26.992,22.718,33.425c5.456-5.36,9.165-11.28,12.69-22.56"/>
		<g>
			<path fill="#1D1B3A" d="M778.853,1276.827c-5.857-5.198-12.562-8.216-19.815-4.12c-3.457,1.952-8.15,6.865-8.115,11.168
				c0.05,5.92,5.006,12.108,8.371,16.535c4.504,5.927,9.837,11.688,16.207,15.638c0.712,0.441,1.69,0.292,2.272-0.293
				c6.578-6.613,10.343-14.585,13.172-23.388c0.742-2.309-2.879-3.289-3.616-0.996c-2.639,8.21-6.076,15.567-12.208,21.731
				c0.757-0.098,1.515-0.195,2.272-0.293c-8.978-5.565-16.858-15.177-21.407-24.636c-1.735-3.608-1.348-5.295,0.765-8.33
				c5.405-7.768,13.222-5.894,19.451-0.364C778.003,1281.078,780.665,1278.435,778.853,1276.827L778.853,1276.827z"/>
		</g>
	</g>
	<g>
		<path fill="#F4EDE1" d="M533.401,1299.381c6.126-5.784,21.984-18.438,25.26-17.123c6.191,2.485,8.437,7.646,8.84,7.987
			c5.13,4.595-11.893,26.992-22.718,33.426c-5.456-5.361-9.164-11.28-12.69-22.561"/>
		<g>
			<path fill="#1D1B3A" d="M534.727,1300.708c5.201-4.851,10.807-9.329,16.715-13.287c1.968-1.318,5.206-4.028,7.633-2.926
				c3.309,1.503,4.866,4.24,6.974,6.916c2.704,3.433-4.007,11.751-5.892,14.399c-4.364,6.13-9.882,12.251-16.319,16.242
				c0.757,0.098,1.515,0.195,2.272,0.293c-6.131-6.165-9.568-13.522-12.208-21.732c-0.737-2.293-4.358-1.312-3.616,0.996
				c2.83,8.803,6.595,16.774,13.172,23.389c0.582,0.585,1.56,0.734,2.272,0.293c7.715-4.784,13.931-12.119,19.024-19.531
				c2.704-3.935,8.342-12.218,4.073-16.84c-4.372-4.734-7.897-10.675-15-7.274c-7.961,3.812-15.344,10.434-21.752,16.41
				C530.303,1299.708,532.961,1302.354,534.727,1300.708L534.727,1300.708z"/>
		</g>
	</g>
	<g>
		<path fill="#A5A4B0" d="M549.106,1033.851c-31.857,50.819-26.547,157.767,10.619,250.302l-32.615,18.204
			c-1.151-3.455-49.341-44.298-55.371-160.867c-5.77-111.554,43.936-209.096,69.023-232.79
			c27.305-25.788,203.713-33.238,235.89,15.171c38.342,57.684,94.062,234.109,15.813,366.42l-31.745-20.541
			c2.32-9.408,37.748-162.598-22.408-253.954"/>
		<g>
			<path fill="#1D1B3A" d="M547.487,1032.905c-19.639,31.75-22.275,72.543-20.897,108.88c1.852,48.833,13.239,97.562,31.327,142.866
				c0.287-0.705,0.575-1.411,0.862-2.117c-10.872,6.068-21.743,12.136-32.615,18.204c0.918,0.374,1.836,0.747,2.754,1.121
				c-1.554-4.061-6.297-7.848-8.923-11.223c-7.34-9.436-13.472-19.799-18.76-30.502c-20.945-42.396-28.207-91.63-28.078-138.488
				c0.145-53.072,12.192-106.589,33.788-155.022c7.167-16.073,15.502-31.899,26.003-46.068c6.504-8.774,13.155-14.48,23.439-18.246
				c13.361-4.892,27.718-7.266,41.781-9.041c17.78-2.245,35.742-3.101,53.655-2.997c33.647,0.194,70.78,2.742,101.59,17.524
				c11.916,5.718,19.803,13.513,26.458,24.78c8.341,14.121,15.011,29.234,20.87,44.529c15.789,41.219,25.292,85.092,28.386,129.1
				c4.439,63.141-5.931,128.052-38.281,183.14c0.855-0.225,1.71-0.448,2.565-0.673c-10.582-6.847-21.163-13.693-31.745-20.541
				c0.287,0.706,0.575,1.412,0.862,2.117c5.45-22.188,8.473-45.148,10.526-67.866c3.82-42.262,2.935-85.692-7.414-127.02
				c-5.343-21.339-13.667-42.055-25.71-60.513c-1.316-2.017-4.564-0.14-3.238,1.893c24.87,38.115,33.043,84.597,34.432,129.386
				c1.094,35.304-2.138,70.857-8.548,105.57c-1.085,5.874-2.239,11.751-3.665,17.554c-0.208,0.849,0.137,1.648,0.862,2.117
				c10.582,6.847,21.163,13.693,31.745,20.541c0.859,0.557,2.066,0.178,2.565-0.673c49.555-84.385,48.064-189.402,21.633-281.105
				c-5.239-18.175-11.643-36.031-19.323-53.319c-5.587-12.578-11.727-25.986-20.313-36.853
				c-7.778-9.843-20.023-15.663-31.507-19.931c-15.479-5.752-31.951-8.726-48.286-10.76c-35.43-4.411-72.013-3.821-107.309,1.52
				c-12.924,1.955-26.181,4.542-38.241,9.742c-9.656,4.163-15.862,11.065-22.001,19.453c-10.6,14.48-18.849,30.733-26.078,47.105
				c-9.692,21.953-17.168,44.864-22.73,68.197c-12.876,54.02-13.971,110.673-2.638,165.067
				c5.616,26.954,14.852,53.524,29.169,77.139c3.879,6.399,8.203,12.522,12.902,18.345c1.389,1.722,2.825,3.404,4.267,5.082
				c0.67,0.779,1.857,2.422,1.671,1.936c0.434,1.133,1.62,1.754,2.754,1.121c10.872-6.068,21.743-12.137,32.615-18.204
				c0.671-0.375,1.165-1.359,0.862-2.117c-17.622-44.137-28.62-91.209-31.052-138.718c-1.872-36.562,0.459-78.153,20.245-110.14
				C552.001,1032.735,548.756,1030.853,547.487,1032.905L547.487,1032.905z"/>
		</g>
	</g>
	<path fill="#1D1B3A" d="M535.715,1226.291c0,0,69.324,375.479,74.289,410.226c2.01,14.069,24.215,6.08,28.798-3.086
		c4.019-8.039-16.611-314.841,23.584-322.88c40.196-8.038,2.01,317.55,10.049,327.599s103.018-27.271,105.027-41.338
		c2.01-14.068-80.909,17.22-80.909,17.22s93.801-316.756,75.713-379.06S535.715,1226.291,535.715,1226.291z"/>
	<g>
		<path fill="#A5A4B0" d="M529.152,1013.605c-36.407,73.573,9.014,246.246,9.014,246.246s229.502,10.171,243.096-10.642
			c52.718-80.712-24.034-258.683-24.034-258.683"/>
		<g>
			<path fill="#1D1B3A" d="M527.533,1012.659c-15.982,32.734-15.628,72.604-13.592,108.122
				c2.086,36.391,7.784,72.608,15.219,108.265c2.185,10.475,4.479,20.952,7.198,31.304c0.219,0.833,0.977,1.34,1.808,1.377
				c47.947,2.121,96.036,3.051,144.022,2.247c27.562-0.462,56.073-0.583,83.197-6.086c5.647-1.146,13.953-2.567,17.496-7.731
				c9.647-14.062,14.375-31.506,16.792-48.179c5.512-38.031-0.597-77.464-9.242-114.56c-6.826-29.287-15.952-58.107-26.843-86.134
				c-1.524-3.922-3.076-7.838-4.74-11.703c-0.955-2.216-4.184-0.304-3.238,1.893c6.977,16.198,13.427,34.925,18.926,52.362
				c11.443,36.279,20.326,73.852,22.79,111.9c1.231,19.016,0.671,38.325-3.383,56.993c-1.875,8.634-4.638,17.087-8.423,25.072
				c-1.97,4.156-4.049,9.896-8.152,12.325c-7.171,4.243-16.989,5.062-25.055,6.112c-13.816,1.797-27.769,2.58-41.682,3.172
				c-55.88,2.376-112.021,0.989-167.889-1.244c-1.525-0.062-3.05-0.123-4.575-0.19c0.603,0.459,1.206,0.918,1.808,1.377
				c-5.019-19.108-8.894-38.566-12.361-58.005c-6.939-38.907-11.751-78.647-10.537-118.229c0.709-23.124,3.421-47.526,13.695-68.568
				C531.828,1012.387,528.594,1010.486,527.533,1012.659L527.533,1012.659z"/>
		</g>
	</g>
	<path fill="#1D1B3A" d="M740.081,1277.797c0,0,27.819,36.242,43.049,31.167c2.801-0.934-1.867,16.805-1.867,16.805
		s-1.868,23.343-21.474,37.347C749.506,1370.46,742.818,1300.614,740.081,1277.797z"/>
	<path fill="#1D1B3A" d="M567.366,1285.051c0,0-5.465,18.95-19.08,27.457s-13.614,8.507-13.614,8.507s18.085,36.745,30.145,40.519
		C576.877,1365.306,574.149,1307.009,567.366,1285.051z"/>
	<path fill="#1D1B3A" d="M610.004,1636.516c0,0,23.655-60.682,38.054-57.596s-9.256,54.51-9.256,54.51
		S624.403,1646.801,610.004,1636.516z"/>
</g>
</svg>
