<?xml version="1.0" encoding="utf-8"?>
<!-- Generator: Adobe Illustrator 16.0.4, SVG Export Plug-In . SVG Version: 6.00 Build 0)  -->
<!DOCTYPE svg PUBLIC "-//W3C//DTD SVG 1.1//EN" "http://www.w3.org/Graphics/SVG/1.1/DTD/svg11.dtd">
<svg version="1.1" id="char2" xmlns="http://www.w3.org/2000/svg" xmlns:xlink="http://www.w3.org/1999/xlink" x="0px" y="0px"
	 width="2554.794px" height="1700.788px" viewBox="0 0 2554.794 1700.788" enable-background="new 0 0 2554.794 1700.788"
	 xml:space="preserve">
<g>
	<g>
		<g>
			<path fill="#F4EDE1" d="M1123.926,906.697c0-13.967,3.442-54.457,0.784-54.877c4.375-6.593,49.601-34.126,60.584-31.707
				c3.662,0.807-16.397,25.387-16.488,27.919c-12.139,10.157-8.034,42.985-4.114,61.018"/>
			<g>
				<path fill="#1D1B3A" d="M1125.801,906.697c0.045-11.808,1.026-23.616,1.511-35.411c0.207-5.016,0.406-10.054,0.206-15.073
					c-0.085-2.139,0.004-5.232-2.31-6.2c0.374,0.918,0.747,1.836,1.121,2.754c2.683-3.765,7.693-6.482,11.446-8.997
					c6.659-4.461,13.602-8.512,20.675-12.274c6.503-3.459,13.241-6.774,20.342-8.812c1.138-0.326,2.31-0.601,3.484-0.755
					c0.545-0.071,1.093-0.084,1.642-0.088c1.616-0.012,0.121,0.544-0.053-1.057c0.189,1.743-2.421,4.796-3.285,6.151
					c-3.638,5.705-7.783,11.068-11.524,16.704c-2.779,4.187-5.896,7.893-7.664,12.814c-2.984,8.306-2.796,17.852-2.299,26.524
					c0.511,8.927,1.92,17.835,3.791,26.57c0.506,2.364,4.121,1.361,3.616-0.996c-2.089-9.755-3.488-19.646-3.846-29.621
					c-0.329-9.173-0.216-20.998,6.172-28.328c3.548-4.07,6.35-9.271,9.526-13.771c2.983-4.229,8.791-10.307,9.239-15.744
					c0.732-8.888-27.535,5.348-30.037,6.646c-7.731,4.01-15.24,8.489-22.474,13.337c-4.094,2.742-9.074,5.713-11.989,9.804
					c-0.778,1.092,0.107,2.33,1.121,2.754c-1.096-0.458-0.935-1.136-0.693-0.086c0.151,0.658,0.169,1.354,0.215,2.024
					c0.123,1.789,0.112,3.59,0.106,5.382c-0.016,5.002-0.252,10.005-0.48,15.001c-0.467,10.239-1.269,20.494-1.309,30.748
					C1122.042,909.116,1125.792,909.115,1125.801,906.697L1125.801,906.697z"/>
			</g>
		</g>
	</g>
	<g>
		<g>
			<path fill="#1D1B3A" d="M1160.965,893.564c0,0,38.098,4.089,41.272,8.997c3.175,4.906,93.265,179.979,89.543,194.122
				c-8.62,32.757-93.099,122.408-91.375,127.58l-18.964-32.757c0,0,68.961-67.237,63.789-105.167
				c-3.987-29.238-90.02-71.106-90.02-71.106S1157.792,890.906,1160.965,893.564z"/>
			<g>
				<path fill="#1D1B3A" d="M1160.965,895.439c5.312,0.574,10.61,1.296,15.891,2.104c7.338,1.122,15.605,1.984,22.41,5.145
					c1.804,0.838,2.379,2.635,3.276,4.316c1.75,3.279,3.464,6.578,5.175,9.878c13.458,25.942,26.54,52.085,39.348,78.354
					c13.326,27.331,26.93,54.794,37.863,83.195c2.143,5.565,6.285,13.856,4.566,19.393c-4.245,13.672-13.968,26.188-22.24,37.625
					c-14.566,20.139-30.539,39.233-46.345,58.398c-5.566,6.748-11.159,13.482-16.49,20.42c-1.814,2.36-6.586,7.077-5.821,10.495
					c1.143-0.481,2.285-0.963,3.427-1.444c-6.322-10.919-12.643-21.838-18.964-32.757c-0.098,0.758-0.196,1.515-0.293,2.272
					c19.354-18.899,37.418-40.38,51.19-63.682c7.56-12.791,15.364-28.609,12.986-43.921c-2.089-13.451-16.429-24.523-26.335-32.304
					c-13.625-10.701-28.506-19.8-43.593-28.271c-5.244-2.944-10.544-5.788-15.891-8.538c-1.329-0.685-2.663-1.359-4-2.025
					c-1.9-0.945-0.03,0.721-0.033,0.88c0.512-24.285,1.175-48.569,2.083-72.842c0.399-10.646,0.84-21.293,1.505-31.926
					c0.231-3.69,0.491-7.382,0.876-11.06c0.11-1.048,0.238-2.094,0.417-3.133c0.066-0.387,0.149-0.771,0.247-1.15
					c0.255-0.991-0.204,1.571-2.201,0.322c2.057,1.286,3.938-1.96,1.893-3.238c-4.595-2.873-4.647,13.354-4.757,14.885
					c-0.999,14.023-1.481,28.09-1.978,42.138c-0.781,22.083-1.381,44.174-1.84,66.266c-0.013,0.618,0.357,1.341,0.929,1.619
					c24.031,11.712,48.043,25.54,68.597,42.693c10.915,9.109,22.003,19.769,20.554,35.028
					c-1.656,17.438-12.844,34.079-22.644,48.001c-11.958,16.99-25.781,33.081-40.655,47.605c-0.604,0.59-0.712,1.549-0.293,2.272
					c6.322,10.919,12.643,21.838,18.964,32.757c1.095,1.891,3.884,0.597,3.427-1.444c0.199,0.889,0.464-0.524,1.005-1.404
					c1.027-1.67,2.211-3.247,3.385-4.815c3.719-4.971,7.688-9.761,11.621-14.562c11.205-13.677,22.542-27.243,33.535-41.093
					c10.979-13.835,21.82-27.901,31.196-42.888c4.398-7.029,12.027-17.331,10.499-26.165c-1.529-8.844-5.646-17.526-9.072-25.744
					c-5.678-13.619-11.844-27.035-18.104-40.395c-14.002-29.879-28.681-59.445-43.616-88.868
					c-5.967-11.755-11.837-23.597-18.194-35.148c-2.987-5.429-12.043-6.121-17.432-7.178c-8.609-1.688-17.351-2.873-26.072-3.815
					C1158.562,891.429,1158.587,895.182,1160.965,895.439z"/>
			</g>
		</g>
		<g>
			<path fill="#1D1B3A" d="M1113.736,891.84c0,0-38.099,4.088-41.272,8.996c-3.175,4.906-93.265,179.979-89.544,194.123
				c8.62,32.756,93.099,122.407,91.375,127.579l18.965-32.756c0,0-68.961-67.238-63.789-105.167
				c3.987-29.239,90.02-71.107,90.02-71.107S1116.909,889.181,1113.736,891.84z"/>
			<g>
				<path fill="#1D1B3A" d="M1113.736,889.965c-12.586,1.359-26.08,2.546-38.043,6.85c-5.693,2.048-7.366,7.66-9.986,12.678
					c-12.9,24.71-25.385,49.645-37.664,74.669c-13.783,28.088-27.588,56.298-39.406,85.283c-3.031,7.435-6.785,15.464-7.655,23.543
					c-0.387,3.598,1.766,7.461,3.204,10.617c2.942,6.459,6.747,12.533,10.625,18.462c14.349,21.936,31.241,42.239,47.875,62.453
					c7.001,8.509,14.075,16.96,20.95,25.57c2.242,2.808,4.463,5.637,6.532,8.574c0.637,0.904,1.248,1.828,1.8,2.786
					c0.425,0.738,0.34,1.391,0.519,0.59c-0.457,2.041,2.333,3.335,3.427,1.444c6.321-10.919,12.643-21.837,18.965-32.756
					c0.418-0.724,0.311-1.683-0.293-2.272c-19.646-19.184-38.051-41.019-51.724-64.86c-6.931-12.085-16.263-30.236-9.811-44.29
					c6.562-14.291,22.261-24.871,34.729-33.513c16.646-11.536,34.446-21.791,52.657-30.666c0.572-0.278,0.941-1.001,0.929-1.619
					c-0.453-21.764-1.049-43.526-1.806-65.281c-0.492-14.161-1.005-28.333-1.968-42.472c-0.105-1.542-0.167-18.434-4.802-15.534
					c-2.044,1.279-0.164,4.524,1.893,3.238c-2.025,1.267-2.526-1.587-2.151-0.13c0.131,0.508,0.212,1.029,0.295,1.547
					c0.293,1.817,0.44,3.662,0.602,5.495c0.509,5.761,0.816,11.54,1.113,17.315c0.811,15.735,1.33,31.487,1.812,47.235
					c0.409,13.34,0.759,26.682,1.07,40.024c0.064,2.767,0.127,5.533,0.186,8.3c0.006,0.292,1.874-1.825,0.166-0.979
					c-1.406,0.697-2.804,1.408-4.2,2.125c-12.855,6.593-25.437,13.751-37.631,21.5c-14.212,9.032-28.792,19.028-39.749,31.979
					c-3.818,4.513-7.305,9.742-8.44,15.636c-1.308,6.796,0.174,14.058,2.171,20.559c5.286,17.214,16.077,32.764,26.85,46.96
					c10.712,14.117,22.467,27.693,35.156,40.084c-0.098-0.758-0.196-1.516-0.293-2.272c-6.321,10.919-12.643,21.837-18.965,32.756
					c1.143,0.481,2.285,0.963,3.427,1.444c0.519-2.317-1.739-4.904-2.958-6.636c-3.044-4.324-6.411-8.433-9.735-12.542
					c-10.618-13.129-21.502-26.039-32.097-39.188c-11.613-14.413-23.069-29.034-33.265-44.497
					c-3.907-5.925-7.618-12.025-10.625-18.462c-1.511-3.234-3.127-6.333-2.562-9.602c1.53-8.844,5.646-17.527,9.073-25.745
					c5.809-13.934,12.156-27.646,18.575-41.307c13.986-29.765,28.623-59.228,43.521-88.545
					c5.631-11.081,11.211-22.206,17.147-33.128c2.555-4.702,10.788-5.069,15.484-5.99c8.282-1.624,16.686-2.774,25.076-3.681
					C1116.114,893.458,1116.139,889.706,1113.736,889.965z"/>
			</g>
		</g>
		<g>
			<path fill="#1D1B3A" d="M1205.047,1366.535c7.651-14.21,39.432-422.049-16.736-470.729c-5.405-4.684-75.336-2.117-97.357-1.871
				c-43.523,0.488-31.991,32.594-31.991,323.115c0,43.239,9.458,132.424,17.566,149.988
				C1076.53,1367.039,1196.547,1382.322,1205.047,1366.535z"/>
			<g>
				<path fill="#1D1B3A" d="M1206.667,1367.481c1.652-3.189,1.884-7.397,2.408-10.876c1.176-7.811,2.042-15.669,2.861-23.523
					c2.658-25.496,4.511-51.081,6.085-76.664c4.218-68.532,6.29-137.399,3.771-206.039c-1.114-30.353-3.116-60.811-7.954-90.822
					c-3.139-19.478-6.959-41.481-18.238-58.166c-1.812-2.681-3.932-5.353-6.512-7.334c-3.111-2.389-9.426-2.055-13.066-2.303
					c-18.304-1.246-36.793-0.633-55.118-0.287c-11.609,0.219-23.432-0.162-35.008,0.827c-4.141,0.354-8.241,1.197-11.953,3.127
					c-8.496,4.415-11.928,14.197-13.855,22.968c-4.102,18.674-3.981,38.442-4.247,57.455c-0.505,36.21,0.167,72.441,0.52,108.65
					c0.255,26.177,0.47,52.354,0.597,78.531c0.125,25.686-0.459,51.432,0.777,77.097c1.064,22.11,3.055,44.19,5.63,66.174
					c2.071,17.676,4.215,35.62,8.619,52.896c0.665,2.607,1.558,9.348,4.813,9.756c2.824,0.355,5.651,0.684,8.479,1.005
					c13.691,1.559,27.414,2.863,41.157,3.884c17.279,1.283,34.691,2.244,52.017,1.474c6.17-0.274,12.427-0.787,18.446-2.235
					C1200.432,1372.222,1204.719,1370.82,1206.667,1367.481c1.221-2.093-2.021-3.979-3.238-1.893
					c-1.761,3.019-6.806,3.767-9.877,4.388c-6.38,1.288-12.984,1.558-19.473,1.741c-16.547,0.467-33.148-0.537-49.641-1.781
					c-13.433-1.013-26.844-2.325-40.228-3.856c-2.529-0.289-5.057-0.586-7.582-0.904c1.596,0.201,1.428,0.814,0.806-0.875
					c-0.414-1.123-0.759-2.27-1.097-3.417c-0.955-3.237-1.689-6.541-2.389-9.841c-4.145-19.559-6.392-39.568-8.452-59.435
					c-2.214-21.345-3.898-42.785-4.505-64.24c-0.784-27.69-0.214-55.46-0.386-83.162c-0.155-24.889-0.393-49.776-0.64-74.665
					c-0.338-34.065-0.958-68.164-0.222-102.229c0.375-17.32,0.346-35.669,5.097-52.481c2.285-8.086,6.471-15.202,14.716-17.646
					c4.808-1.425,9.86-1.343,14.824-1.424c17.948-0.296,35.891-0.827,53.843-0.871c8.708-0.021,17.428,0.042,26.125,0.512
					c3.505,0.189,10.35-0.347,13.181,2.214c5.573,5.04,9.033,12.308,11.759,19.174c8.951,22.544,12.045,47.601,14.582,71.547
					c7.167,67.647,6.045,136.331,3.543,204.21c-1.942,52.693-4.406,105.842-11.267,158.168c-0.571,4.356-1.092,11.736-2.718,14.874
					C1202.318,1367.732,1205.554,1369.628,1206.667,1367.481z"/>
			</g>
		</g>
		<path fill="#1D1B3A" stroke="#1D1B3A" stroke-width="0.75" stroke-miterlimit="10" d="M1207.116,1353.181
			c0,0-23.417,288.14-37.523,299.688c-14.106,11.548-24.438-173.578-16.49-219.822c10.92-63.536,21.84-104.239,21.84-104.239
			L1207.116,1353.181z"/>
		<path fill="#1D1B3A" d="M1162.887,1640.103c41.597-33.65,58.974-49.396,71.042-47.672c6.154,0.879-14.022,37.389-62.162,60.291
			C1147.997,1664.031,1162.887,1640.103,1162.887,1640.103z"/>
		<path fill="#1D1B3A" d="M1107.27,1639.636c41.596-33.651,58.973-49.396,71.042-47.674c6.154,0.879-14.022,37.391-62.161,60.293
			C1092.379,1663.564,1107.27,1639.636,1107.27,1639.636z"/>
		<path fill="#1D1B3A" stroke="#1D1B3A" stroke-width="0.75" stroke-miterlimit="10" d="M1143.327,1353.181
			c0,0-23.417,288.14-37.523,299.688s-24.438-173.578-16.49-219.822c10.92-63.536,21.84-104.239,21.84-104.239L1143.327,1353.181z"
			/>
	</g>
</g>
</svg>
