<?xml version="1.0" encoding="utf-8"?>
<!-- Generator: Adobe Illustrator 16.0.4, SVG Export Plug-In . SVG Version: 6.00 Build 0)  -->
<!DOCTYPE svg PUBLIC "-//W3C//DTD SVG 1.1//EN" "http://www.w3.org/Graphics/SVG/1.1/DTD/svg11.dtd">
<svg version="1.1" id="char3" xmlns="http://www.w3.org/2000/svg" xmlns:xlink="http://www.w3.org/1999/xlink" x="0px" y="0px"
	 width="2554.794px" height="1700.788px" viewBox="0 0 2554.794 1700.788" enable-background="new 0 0 2554.794 1700.788"
	 xml:space="preserve">
<g>
	<g>
		<path fill="#F4EDE1" d="M1606.987,903.165c-6.163-14.086-27.692-86.63-24.652-86.287c-12.041-15.099-68.708-7.74-64.541-2.099
			c14.3,20.7,33.192,100.635,26.679,113.042"/>
		<g>
			<path fill="#1D1B3A" d="M1608.606,902.218c-6.348-14.713-10.475-30.67-14.977-46.011c-2.512-8.558-4.936-17.146-7.122-25.793
				c-0.733-2.899-1.43-5.81-2.022-8.741c-0.199-0.985-0.389-1.979-0.505-2.978c-0.262-2.257,0.582-0.175-1.646,0.057
				c1.664-0.173,2.433-1.892,1.326-3.201c-4.279-5.063-11.27-6.986-17.531-8.15c-8.275-1.537-16.837-1.586-25.21-1.056
				c-3.319,0.21-29.859,1.825-24.398,9.893c9.182,13.561,13.466,31.394,17.665,46.984c4.642,17.229,8.9,35.21,9.68,53.101
				c0.144,3.284,0.478,7.493-1.013,10.552c-1.055,2.164,2.179,4.066,3.238,1.893c2.049-4.205,1.688-9.482,1.449-14.011
				c-0.418-7.967-1.729-15.908-3.17-23.743c-3.498-19.012-8.458-37.93-15.085-56.095c-2.434-6.673-5.132-13.394-8.828-19.481
				c-0.331-0.546-0.688-1.076-1.045-1.604c0.102,0.15-0.206,0.927-0.001,0.709c0.485-0.514,1.368-0.807,2.007-1.057
				c2.803-1.102,5.846-1.654,8.799-2.17c8.312-1.45,16.891-1.761,25.306-1.35c7.678,0.376,16.251,1.419,22.813,5.748
				c1.025,0.677,1.884,1.558,2.672,2.49c0.442-1.067,0.884-2.134,1.326-3.201c-4.039,0.419-1.458,7.785-0.976,9.987
				c1.989,9.09,4.577,18.062,7.142,27.002c4.99,17.402,9.68,35.459,16.867,52.119
				C1606.324,906.326,1609.554,904.414,1608.606,902.218L1608.606,902.218z"/>
		</g>
	</g>
	<g>
		<path fill="#FFFFFF" d="M1490.855,947.951c-1.784-22.276,17.896-35.355,35.534-48.364c38.769-28.588,100.904-23.808,100.654,0.442
			"/>
		<g>
			<path fill="#1D1B3A" d="M1492.73,947.951c-1.092-18.389,12.854-30.511,26.314-40.635c13.292-9.998,26.688-17.888,42.918-22.117
				c13.752-3.584,28.709-4.686,42.689-1.779c8.483,1.764,20.365,6.29,20.517,16.609c0.035,2.416,3.785,2.42,3.75,0
				c-0.158-10.775-10.192-16.466-19.367-19.239c-14.705-4.444-31.179-3.135-45.957,0.158c-18.591,4.142-33.816,13.519-48.791,24.906
				c-13.78,10.479-26.93,23.47-25.823,42.097C1489.123,950.353,1492.874,950.368,1492.73,947.951L1492.73,947.951z"/>
		</g>
	</g>
	<g>
		<path fill="#DC4832" d="M1515.044,919.404c0,0-90.511,92.851-57.117,118.61c33.393,25.761,109.146,11.907,107.064,33.382
			c-0.583,6.006,93.5-151.698,60.107-165.056C1591.705,892.983,1515.044,919.404,1515.044,919.404z"/>
		<g>
			<path fill="#1D1B3A" d="M1513.718,918.078c-15.405,15.821-29.649,33.107-42.223,51.247
				c-8.537,12.316-16.713,25.617-20.931,40.111c-2.953,10.148-3.172,22.102,5.532,29.502c13.822,11.752,34.322,14.976,51.677,17.272
				c9.45,1.252,18.944,2.111,28.407,3.248c7.122,0.855,14.822,1.661,21.44,4.625c1.983,0.889,3.872,2.103,4.974,4.022
				c0.847,1.478-0.077,3.513,1.085,4.754c1.68,1.794,3.442-0.633,4.344-1.854c4.93-6.683,8.998-14.111,13.149-21.285
				c15.103-26.104,29.068-53.095,40.384-81.068c5.004-12.372,9.68-25.2,11.788-38.429c1.185-7.433,2.081-17.369-3.782-23.203
				c-5.753-5.724-17.441-5.941-24.942-6.254c-13.174-0.55-26.464,1.312-39.393,3.668c-17.118,3.12-34.217,7.502-50.682,13.162
				c-2.273,0.781-1.297,4.404,0.996,3.615c9.959-3.423,20.159-6.221,30.374-8.756c19.098-4.741,38.946-8.553,58.704-7.939
				c6.728,0.208,15.728,0.636,21.531,4.516c2.767,1.85,3.732,5.632,4.079,8.726c1.241,11.095-2.698,22.925-6.135,33.296
				c-9.746,29.407-24.257,57.416-39.205,84.467c-5.33,9.646-10.808,19.236-16.722,28.538c-1.229,1.932-2.661,4.303-3.979,5.804
				c-0.677,0.771,2.805-1.338,2.677,1.534c0.046-1.022-0.011-1.977-0.199-2.984c-0.384-2.054-1.785-3.854-3.329-5.181
				c-4.314-3.708-10.658-4.897-16.068-5.907c-8.371-1.561-16.903-2.283-25.362-3.192c-19.489-2.096-40.472-4.193-57.769-14.188
				c-5.555-3.209-9.842-7.065-11.283-13.479c-1.298-5.776,0.09-12.002,1.774-17.542c4.514-14.839,13.497-28.406,22.379-40.953
				c11.806-16.676,25.101-32.594,39.361-47.239C1518.057,918.997,1515.407,916.343,1513.718,918.078z"/>
		</g>
	</g>
	<g>
		<path fill="#1D1B3A" d="M1569.721,1285.615c6.015-36.425,30.486,234.966,39.244,335.546c5.764-5.255,12.128-9.811,19.001-13.662
			c2.495-32.988,23.825-323.462,5.964-389.941c-33.466-124.566-73.406-61.502-117.936-54.181c0,0-35.323,44.67-11.391,135.623
			c23.934,90.953,44.184,317.445,44.184,317.445s-78.234,1.509-81.257,1.509c-30.224,0,45.593,51.488,92.304,21.676
			c0.929-0.594-2.433,21.402-2.433,21.402l18.234-0.841c0,0,11.813-40.181,4.449-49.097
			C1572.721,1602.177,1562.356,1330.2,1569.721,1285.615z"/>
		<g>
			<path fill="#1D1B3A" d="M1571.528,1286.113c0.14-0.818,0.294-1.64,0.576-2.423c0.041-0.113-1.377,0.773-1.911,0.194
				c0.251,0.272,1.086,3.09,1.45,4.561c2.094,8.444,3.233,17.164,4.463,25.764c4.514,31.584,7.797,63.357,11.093,95.087
				c7.33,70.552,13.736,141.202,19.891,211.865c0.143,1.641,1.927,2.467,3.201,1.326c5.737-5.138,11.938-9.55,18.621-13.369
				c1.24-0.709,1.014-2.737,1.106-3.98c0.244-3.263,0.483-6.524,0.72-9.788c0.771-10.662,1.507-21.328,2.217-31.995
				c2.185-32.826,4.107-65.67,5.724-98.529c1.896-38.554,3.375-77.136,3.965-115.733c0.5-32.743,0.649-65.654-1.966-98.32
				c-0.854-10.653-1.959-21.42-4.459-31.831c-4.995-20.799-12.121-43.062-24.345-60.864c-6.632-9.659-15.75-17.541-27.736-18.847
				c-10.427-1.135-20.822,3.189-30.115,7.374c-10.723,4.83-21.112,10.526-32.514,13.652c-2.979,0.817-6.057,0.594-7.897,3.224
				c-1.761,2.518-3.271,5.21-4.684,7.935c-16.792,32.396-17.004,71.625-10.86,106.734c3.304,18.88,8.837,37.369,12.547,56.191
				c3.671,18.624,6.764,37.361,9.643,56.122c6.242,40.674,11.327,81.525,15.98,122.409c3.925,34.481,7.582,69.007,10.675,103.574
				c0.625-0.625,1.25-1.25,1.875-1.875c-25.056,0.483-50.111,0.977-75.168,1.414c-4.712,0.082-16.451-1.106-14.686,6.748
				c0.903,4.021,5.277,7.198,8.331,9.512c5.734,4.346,12.312,7.553,18.92,10.321c16.383,6.863,34.794,10.006,52.416,7.116
				c4.584-0.752,9.046-2.102,13.341-3.853c1.972-0.804,3.877-1.745,5.753-2.75c0.346-0.194,0.691-0.39,1.037-0.585
				c1.628-0.518,1.425-1.254-0.61-2.208c0.024,0.695-0.062,1.404-0.119,2.096c-0.499,6.074-1.49,12.13-2.408,18.152
				c-0.174,1.138,0.477,2.435,1.808,2.373c6.078-0.28,12.156-0.561,18.234-0.841c0.85-0.039,1.564-0.546,1.808-1.377
				c3.732-12.75,7.047-26.459,6.925-39.803c-0.063-6.93-3.402-11.496-4.419-18.052c-3.567-23.01-4.299-46.647-5.568-69.862
				c-3.722-68.036-6.177-136.396-5.152-204.541C1569.439,1314.426,1569.279,1299.982,1571.528,1286.113
				c0.384-2.364-3.229-3.379-3.615-0.996c-3.492,21.529-2.588,44.166-2.593,65.887c-0.008,34.903,0.824,69.811,1.979,104.692
				c1.112,33.57,2.548,67.142,4.721,100.661c0.766,11.804,1.613,23.609,2.82,35.378c0.625,6.095,0.942,12.702,2.836,18.577
				c0.612,1.901,1.879,3.327,2.387,5.312c1.456,5.69,0.384,12.339-0.446,18.038c-1.276,8.772-3.299,17.521-5.789,26.03
				c0.603-0.459,1.205-0.918,1.808-1.377c-6.078,0.28-12.156,0.561-18.234,0.841c0.603,0.791,1.205,1.582,1.808,2.373
				c0.58-3.802,1.128-7.609,1.632-11.422c0.421-3.182,2.025-8.313,0.684-11.42c-0.267-0.615-1.012-0.885-1.619-0.929
				c-1.355-0.097-2.99,1.453-4.104,2.082c-2.249,1.268-4.621,2.306-7.027,3.23c-4.879,1.876-10.06,2.971-15.241,3.559
				c-9.688,1.098-19.541,0.048-29.008-2.106c-13.739-3.127-30.279-9.034-40.073-19.741c-2.766-3.024-2.303-4.637,1.83-4.922
				c3.462-0.238,6.984-0.12,10.451-0.182c15.478-0.276,30.954-0.573,46.431-0.868c8.541-0.163,17.082-0.326,25.623-0.491
				c0.952-0.019,1.968-0.842,1.875-1.875c-4.779-53.419-10.678-106.77-17.463-159.968c-5.03-39.445-10.54-78.887-17.968-117.961
				c-3.369-17.725-8.019-35.082-11.846-52.693c-5.228-24.051-6.973-49.172-3.27-73.577c2.065-13.607,5.942-27.156,12.292-39.407
				c1.36-2.625,2.854-5.197,4.55-7.622c0.996-1.422-0.191-0.074,0.876-0.27c2.934-0.537,5.813-1.349,8.649-2.264
				c11.074-3.574,21.305-9.303,31.934-13.952c9.485-4.15,20.135-7.712,30.479-4.805c14.132,3.972,22.539,19.049,28.378,31.319
				c8.086,16.994,14.24,35.874,17.255,54.492c4.599,28.398,4.504,57.769,4.588,86.454c0.215,73.861-3.678,147.771-8.258,221.47
				c-1.006,16.182-2.077,32.359-3.217,48.531c-0.366,5.195-0.74,10.389-1.123,15.582c-0.123,1.67-0.248,3.339-0.374,5.008
				c0.004-0.05-6.965,3.95-8.308,4.879c-3.584,2.48-6.953,5.269-10.198,8.173c1.067,0.442,2.134,0.884,3.201,1.326
				c-6.22-71.415-12.704-142.815-20.124-214.117c-3.26-31.314-6.564-62.656-10.994-93.831c-1.223-8.609-2.407-17.306-4.462-25.765
				c-0.401-1.651-2.733-10.278-5.967-6.22c-0.88,1.104-1.148,2.525-1.38,3.889
				C1567.511,1287.481,1571.124,1288.494,1571.528,1286.113z"/>
		</g>
	</g>
	<g>
		<path fill="#DC4832" d="M1516.481,1002.341c1.84,25.849,4.383,55.116,8.345,95.208c3.072,31.075-13.425,67.268-22.567,81.633
			c-8.253,12.967,140.141,27.188,129.287,1.305c-30.301-72.256-8.926-160.944-6.922-168.271
			c23.165-84.723,12.784-109.3,12.784-109.3s-42.998-8.004-65.485-9.439c-44.162-2.818-87.014,60.141-87.014,60.141"/>
		<g>
			<path fill="#1D1B3A" d="M1514.606,1002.341c1.777,24.871,3.974,49.71,6.336,74.531c1.408,14.8,3.362,29.204,1.132,44.023
				c-1.969,13.077-6.169,25.865-11.392,37.982c-1.979,4.594-4.194,9.088-6.585,13.481c-1.179,2.164-3.561,4.712-3.968,7.186
				c-0.43,2.609,1.74,4.374,3.767,5.549c8.424,4.884,19.629,6.112,29.051,7.585c14.588,2.278,29.357,3.529,44.11,3.996
				c13.229,0.419,26.752,0.321,39.801-2.132c6.107-1.148,16.448-3.459,17.121-11.152c0.197-2.253-1.087-4.505-1.884-6.487
				c-2.678-6.653-4.851-13.502-6.743-20.416c-3.649-13.329-5.793-27.044-7.003-40.797c-3.04-34.56-0.531-71.295,8.604-104.892
				c6.312-23.217,11.568-46.913,13.817-70.902c1.002-10.679,1.462-21.685-0.294-32.315c-0.272-1.645-0.606-3.308-1.155-4.885
				c-0.775-2.225-3.977-2.058-5.934-2.408c-18.935-3.392-37.998-6.62-57.164-8.356c-36.726-3.326-67.134,27.1-87.91,53.938
				c-1.724,2.228-3.435,4.475-5.023,6.802c-1.367,2.003,1.884,3.877,3.238,1.893c6.154-9.015,13.448-17.359,21.025-25.189
				c13.811-14.271,30.485-27.863,50.128-32.74c9.703-2.408,19.659-0.969,29.431,0.219c10.892,1.324,21.737,3.045,32.558,4.851
				c5.716,0.954,11.425,1.946,17.123,2.999c-0.74-0.137-1.451-2.107-1.002-0.755c0.23,0.694,0.408,1.406,0.574,2.118
				c2.05,8.789,1.685,18.25,1.164,27.178c-1.323,22.737-6.184,45.268-11.758,67.291c-8.676,34.273-13.439,68.803-11.883,104.304
				c1.155,26.347,6.297,51.958,15.984,76.488c2.815,7.131-11.87,9.249-15.935,9.946c-13.589,2.333-27.737,2.062-41.459,1.483
				c-14.724-0.619-29.472-2.049-43.99-4.597c-7.623-1.338-17.224-2.481-23.78-6.982c-0.615-0.422-0.913-1.107-0.907-0.961
				c-0.028-0.752,3.226-5.398,4.062-6.935c4.882-8.969,8.813-18.482,12.067-28.151c3.8-11.289,6.301-23.044,7.02-34.941
				c0.808-13.369-1.674-27.07-2.925-40.362c-2.115-22.476-4.06-44.968-5.669-67.485
				C1518.185,999.944,1514.434,999.927,1514.606,1002.341L1514.606,1002.341z"/>
		</g>
	</g>
	<g>
		<path fill="#1D1B3A" d="M1640.375,1608.306c0,0,71.126,1.281,73.874,1.281c27.477,0-41.449,43.714-83.916,18.401
			c-0.844-0.502,2.211,18.171,2.211,18.171l-16.576-0.714c0,0-10.74-34.112-4.046-41.682"/>
		<g>
			<path fill="#1D1B3A" d="M1640.375,1610.181c24.165,0.436,48.329,0.919,72.496,1.266c1.552,0.022,6.786-0.523,5.421,1.989
				c-2.492,4.589-8.946,7.59-13.339,9.861c-16.582,8.577-36.804,12.821-55.321,9.721c-3.874-0.648-7.652-1.764-11.315-3.165
				c-2.244-0.859-6.161-4.143-8.556-3.657c-0.652,0.132-1.11,0.714-1.31,1.31c-0.888,2.66,0.421,6.723,0.795,9.403
				c0.455,3.255,0.961,6.505,1.49,9.749c0.603-0.791,1.205-1.582,1.808-2.373c-5.525-0.238-11.051-0.476-16.576-0.714
				c0.603,0.459,1.205,0.918,1.808,1.377c-1.637-5.228-2.966-10.562-4.11-15.916c-0.925-4.331-1.636-8.708-1.96-13.126
				c-0.239-3.264-0.635-8.064,1.543-10.815c1.483-1.875-1.151-4.548-2.652-2.652c-4.862,6.144-2.582,16.371-1.365,23.386
				c1.178,6.787,2.87,13.546,4.93,20.12c0.259,0.827,0.946,1.34,1.808,1.377c5.525,0.238,11.051,0.476,16.576,0.714
				c1.322,0.057,1.994-1.232,1.808-2.373c-0.919-5.636-2.296-11.533-2.288-17.255c-0.545,0.602-1.091,1.203-1.636,1.805
				c0.695,0.393,1.399,0.768,2.111,1.127c1.056,0.547,2.147,1.021,3.237,1.494c1.955,0.849,3.965,1.547,5.999,2.18
				c4.647,1.447,9.512,2.161,14.353,2.548c17.553,1.4,35.979-3.4,51.51-11.434c3.331-1.723,21.613-12.224,12.414-17.352
				c-2.747-1.531-6.53-1.066-9.582-1.114c-6.258-0.099-12.515-0.21-18.772-0.318c-17.107-0.298-34.215-0.603-51.322-0.911
				C1637.955,1606.387,1637.96,1610.138,1640.375,1610.181L1640.375,1610.181z"/>
		</g>
	</g>
	<g>
		<g>
			<path fill="#1D1B3A" d="M1522.376,992.209c-5.689,7.284-12.862,13.341-18.421,20.658c-4.97,6.542-9.018,13.702-13.725,20.422
				c-1.391,1.986,1.862,3.857,3.238,1.893c4.298-6.136,8.071-12.621,12.444-18.71c5.577-7.765,13.202-14.041,19.115-21.61
				C1526.498,992.98,1523.864,990.305,1522.376,992.209L1522.376,992.209z"/>
		</g>
	</g>
	<g>
		<path fill="#F4EDE1" d="M1482.629,954.269c-0.896-3.034-8.67-7.37-11.71-7.267c-2.544,0.092-3.221,7.408-4.119,9.819
			c-1.426-1.842-2.954-3.748-5.043-4.684c-2.086-0.935-4.887-0.509-5.856,1.52c-0.738,1.542-0.448,3.849-1.957,4.591
			c-1.614,0.797-3.349-1.1-5.146-1.514c-2.786-0.64-4.865,2.378-5.699,5.114c-2.725,8.948-0.737,18.817,1.264,28.185
			c1.45,6.791,0.879,8.421,6.088,17.496c4.112,0.332,4.926-1.414,5.643-5.537c1.05-6.026,0.297-12.451-2.131-18.209
			c4.301,7.881,8.602,15.759,12.899,23.642c0.338,0.615,0.695,1.255,1.266,1.644c1.27,0.865,3.034,0.042,3.716-1.283
			c0.687-1.326,0.595-2.945,0.489-4.476c-0.352-5.044-0.704-10.087-1.055-15.131c2.479,4.08,4.956,8.156,7.435,12.235
			c0.48,0.791,0.999,1.621,1.798,2.062c2.063,1.146,4.319-0.969,5.177-3.118c2.958-7.438-0.871-15.955-3.456-23.79
			c-1.788-5.42-8.068-9.901,2.027-20.322"/>
		<g>
			<path fill="#1B1D3A" d="M1484.248,953.323c-1.799-4.1-8.217-7.885-12.609-8.151c-5.347-0.324-5.511,7.568-6.646,11.152
				c1.044-0.276,2.089-0.552,3.134-0.828c-2.213-2.804-6.035-7.018-10.215-5.517c-1.676,0.602-2.608,1.294-3.63,2.732
				c-0.474,0.668-0.596,1.745-0.762,2.517c-0.352,1.624-4.072-0.333-4.722-0.368c-12.002-0.645-8.793,21.952-7.668,28.575
				c0.891,5.245,1.764,10.804,3.342,15.901c1.128,3.646,2.903,9.986,7.231,10.102c10.838,0.288,6.121-20.902,4.066-26.152
				c-1.142,0.481-2.284,0.963-3.427,1.444c3.072,5.629,6.144,11.257,9.215,16.886c1.821,3.338,3.202,8.274,7.091,9.612
				c8.909,3.063,4.706-20.145,4.504-23.049c-1.165,0.315-2.329,0.631-3.494,0.946c2.168,3.569,4.337,7.138,6.505,10.706
				c1.413,2.325,2.397,4.078,5.097,4.774c5.678,1.464,7.271-7.918,7.372-11.396c0.195-6.606-2.789-14.084-5.365-20.049
				c-0.812-1.881-1.896-3.568-2.491-5.547c-1.275-4.24,2.188-8.203,4.809-11.043c1.636-1.774-1.01-4.434-2.652-2.652
				c-5.835,6.328-7.596,11.981-3.615,19.69c2.755,5.336,4.791,12.065,5.488,18.016c0.228,1.946-0.002,3.826-0.423,5.732
				c-1.627,7.379-5.334-0.002-5.91-0.948c-1.858-3.059-3.717-6.118-5.575-9.177c-0.919-1.513-3.629-0.988-3.494,0.946
				c0.263,3.783,0.527,7.565,0.791,11.348c0.124,1.776,0.253,3.551,0.336,5.329c-0.683,0.541-1.366,1.082-2.049,1.623
				c-0.614-1.126-1.229-2.252-1.842-3.378c-3.685-6.756-7.372-13.51-11.058-20.264c-1.001-1.834-4.211-0.56-3.427,1.444
				c1.619,4.141,2.462,8.256,2.522,12.713c0.032,2.329-0.353,4.649-0.919,6.899c-1.269,5.032-3.59-0.789-4.061-1.713
				c-2.787-5.473-3.44-12.008-4.62-17.959c-0.902-4.553-1.441-9.115-1.421-13.758c0.013-2.771,0.53-5.457,1.25-8.117
				c0.946-3.495,4.557-3.129,7.307-2.133c1.965,0.712,3.74-0.955,4.478-2.512c0.752-1.588,0.153-3.871,2.837-4.162
				c2.458-0.266,4.653,2.969,5.946,4.607c0.928,1.176,2.751,0.381,3.134-0.828c0.504-1.589,1.224-8.727,3.372-8.299
				c3.137,0.625,7.708,3.182,9.03,6.194C1481.979,957.425,1485.21,955.515,1484.248,953.323L1484.248,953.323z"/>
		</g>
	</g>
</g>
</svg>
