<?xml version="1.0" encoding="utf-8"?>
<!-- Generator: Adobe Illustrator 16.0.4, SVG Export Plug-In . SVG Version: 6.00 Build 0)  -->
<!DOCTYPE svg PUBLIC "-//W3C//DTD SVG 1.1//EN" "http://www.w3.org/Graphics/SVG/1.1/DTD/svg11.dtd">
<svg version="1.1" id="Layer_1" xmlns="http://www.w3.org/2000/svg" xmlns:xlink="http://www.w3.org/1999/xlink" x="0px" y="0px"
	 width="913.312px" height="371.289px" viewBox="0 0 913.312 371.289" enable-background="new 0 0 913.312 371.289"
	 xml:space="preserve">
<polygon fill="#E4F3FB" points="290.131,160.654 13.641,161.642 20.299,104.173 288.777,100.181 "/>
<polygon fill="#E4F3FB" points="895.67,164.695 298.308,161.013 298.537,100.773 903.822,107.88 "/>
<g>
	<rect x="329.872" y="126.183" fill="none" width="465.904" height="37.047"/>
	<path fill="#010202" d="M349.033,143.012h-1.097c-0.224,0-0.358-0.135-0.358-0.336v-8.282c0-1.478-0.537-1.992-2.104-1.992
		c-2.082,0-4.209,0.627-4.209,0.627v9.647c0,0.224-0.089,0.336-0.313,0.336h-1.097c-0.201,0-0.336-0.135-0.336-0.336v-8.282
		c0-1.478-0.56-1.992-2.126-1.992c-2.082,0-4.187,0.627-4.187,0.627v9.647c0,0.201-0.111,0.336-0.313,0.336h-1.119
		c-0.201,0-0.335-0.135-0.335-0.336v-9.289c0-0.896,0.044-1.299,1.163-1.68c1.164-0.402,3.403-0.738,4.836-0.738
		c1.41,0,2.417,0.269,3.044,0.851c1.254-0.492,3.671-0.851,5.036-0.851c2.664,0,3.851,0.828,3.851,3.224v8.483
		C349.369,142.877,349.234,143.012,349.033,143.012z"/>
	<path fill="#010202" d="M362.253,137.998c-0.022,0.112-0.179,0.291-0.291,0.291h-8.215c0,1.231,0.224,1.926,0.694,2.508
		c0.648,0.828,1.746,1.074,3.312,1.074c1.388,0,2.238-0.269,3.291-0.56c0.044-0.022,0.089-0.045,0.134-0.045
		c0.09,0,0.18,0.067,0.224,0.201l0.247,0.851v0.09c0,0.112-0.09,0.179-0.225,0.246c-0.896,0.358-2.372,0.649-3.85,0.649
		c-4.388,0-5.686-2.037-5.686-6.156c0-3.782,0.761-6.178,5.192-6.178c2.351,0,3.716,0.717,4.455,1.992
		c0.582,1.008,0.716,2.396,0.716,3.939V137.998z M360.127,134.282c-0.403-1.433-1.276-1.902-3.089-1.902
		c-1.791,0-2.664,0.47-3.045,1.902c-0.224,0.829-0.246,1.702-0.269,2.53l6.671-0.022
		C360.373,135.939,360.328,135.111,360.127,134.282z"/>
	<path fill="#010202" d="M373.105,142.856c-0.717,0.179-1.656,0.447-3.425,0.447c-4.343,0-5.35-1.97-5.35-6.178
		c0-4.298,1.186-6.156,5.215-6.156c1.545,0,2.664,0.246,3.425,0.447l-0.224-1.298v-3.357c0-0.18,0.112-0.246,0.291-0.269
		l1.209-0.313h0.067c0.156,0,0.201,0.156,0.201,0.291v14.617C374.516,141.916,374.516,142.542,373.105,142.856z M372.747,132.783
		c0,0-1.41-0.403-3.021-0.403c-2.463,0-3.56,0.783-3.56,4.768c0,4.254,1.299,4.746,3.582,4.746c1.656,0,2.999-0.426,2.999-0.426
		V132.783z"/>
	<path fill="#010202" d="M394.185,142.811c0,0.111-0.112,0.201-0.224,0.201h-1.858c-0.089,0-0.134-0.045-0.179-0.112l-4.656-5.081
		h-0.918v4.857c0,0.201-0.111,0.336-0.313,0.336h-1.119c-0.201,0-0.335-0.135-0.335-0.336v-15.915c0-0.18,0.111-0.246,0.269-0.269
		l1.208-0.313h0.067c0.157,0,0.224,0.156,0.224,0.291v10.006h0.918l4.521-5.104c0.045-0.067,0.09-0.112,0.18-0.112l1.611,0.045
		c0.112,0,0.224,0.09,0.224,0.201c0,0.045-0.022,0.09-0.045,0.112l-4.924,5.395l5.305,5.686
		C394.162,142.721,394.185,142.766,394.185,142.811z"/>
	<path fill="#010202" d="M400.493,143.303c-4.678,0-5.237-2.798-5.237-6.156c0-3.38,0.56-6.178,5.237-6.178
		c4.701,0,5.238,2.798,5.238,6.178C405.731,140.505,405.194,143.303,400.493,143.303z M400.493,132.402
		c-3.245,0-3.38,1.902-3.38,4.745c0,2.821,0.135,4.724,3.38,4.724c3.246,0,3.38-1.902,3.38-4.724
		C403.873,134.304,403.739,132.402,400.493,132.402z"/>
	<path fill="#010202" d="M413.987,132.537c-1.478,0-2.687,0.111-3.94,0.425v9.715c0,0.201-0.111,0.336-0.313,0.336h-1.119
		c0,0-0.335-0.135-0.335-0.336v-9.334c0-0.985,0.201-1.276,0.962-1.635c0.985-0.447,3-0.738,4.074-0.738h0.56
		c0.112,0,0.313,0.045,0.313,0.336v0.962C414.188,132.424,414.144,132.537,413.987,132.537z"/>
	<path fill="#010202" d="M422.485,142.654c0,0.09-0.09,0.202-0.179,0.224c-0.493,0.157-1.455,0.426-2.731,0.426
		c-2.216,0-3.268-0.963-3.268-3.111V127.88c0-0.18,0.111-0.246,0.269-0.269l1.208-0.313h0.067c0.157,0,0.224,0.156,0.224,0.291
		v3.671h3.761c0.202,0,0.336,0.135,0.336,0.336v0.761c0,0.201-0.134,0.336-0.336,0.336h-3.761v7.678c0,1.231,0.672,1.5,1.836,1.5
		c0.694,0,1.589-0.179,2.06-0.291h0.067c0.111,0,0.201,0.067,0.246,0.201l0.201,0.828V142.654z"/>
	<path fill="#010202" d="M434.145,137.998c-0.022,0.112-0.179,0.291-0.291,0.291h-8.215c0,1.231,0.224,1.926,0.694,2.508
		c0.648,0.828,1.746,1.074,3.312,1.074c1.388,0,2.238-0.269,3.291-0.56c0.044-0.022,0.089-0.045,0.134-0.045
		c0.09,0,0.18,0.067,0.224,0.201l0.246,0.851v0.09c0,0.112-0.089,0.179-0.224,0.246c-0.896,0.358-2.372,0.649-3.85,0.649
		c-4.388,0-5.686-2.037-5.686-6.156c0-3.782,0.761-6.178,5.192-6.178c2.351,0,3.716,0.717,4.455,1.992
		c0.582,1.008,0.716,2.396,0.716,3.939V137.998z M432.019,134.282c-0.403-1.433-1.276-1.902-3.089-1.902
		c-1.791,0-2.664,0.47-3.045,1.902c-0.224,0.829-0.246,1.702-0.269,2.53l6.671-0.022
		C432.265,135.939,432.22,135.111,432.019,134.282z"/>
	<path fill="#010202" d="M449.605,142.654c-0.067,0.224-0.246,0.358-0.447,0.358h-2.351c-0.224,0-0.403-0.135-0.471-0.358
		l-3.716-10.99c-0.021-0.045-0.021-0.09-0.021-0.112c0-0.156,0.089-0.291,0.224-0.291h1.343c0.224,0,0.291,0.135,0.336,0.291
		l3.179,10.163h0.582l2.865-10.163c0.045-0.156,0.156-0.291,0.38-0.291h1.389c0.156,0,0.269,0.112,0.269,0.269v0.067
		L449.605,142.654z"/>
	<path fill="#010202" d="M456.943,129.246h-1.097c-0.201,0-0.336-0.134-0.336-0.313v-2.417c0-0.202,0.135-0.336,0.336-0.336h1.097
		c0.202,0,0.336,0.134,0.336,0.336v2.417C457.279,129.112,457.146,129.246,456.943,129.246z M456.943,143.012h-1.097
		c-0.201,0-0.336-0.135-0.336-0.336v-11.08c0-0.201,0.135-0.336,0.336-0.336h1.097c0.202,0,0.336,0.135,0.336,0.336v11.08
		C457.279,142.877,457.146,143.012,456.943,143.012z"/>
	<path fill="#010202" d="M468.94,142.856c-0.717,0.179-1.656,0.447-3.425,0.447c-4.343,0-5.35-1.97-5.35-6.178
		c0-4.298,1.186-6.156,5.215-6.156c1.545,0,2.664,0.246,3.425,0.447l-0.224-1.298v-3.357c0-0.18,0.112-0.246,0.291-0.269
		l1.209-0.313h0.067c0.156,0,0.201,0.156,0.201,0.291v14.617C470.351,141.916,470.351,142.542,468.94,142.856z M468.582,132.783
		c0,0-1.41-0.403-3.021-0.403c-2.463,0-3.56,0.783-3.56,4.768c0,4.254,1.299,4.746,3.582,4.746c1.656,0,2.999-0.426,2.999-0.426
		V132.783z"/>
	<path fill="#010202" d="M483.262,137.998c-0.022,0.112-0.179,0.291-0.291,0.291h-8.215c0,1.231,0.224,1.926,0.694,2.508
		c0.648,0.828,1.746,1.074,3.312,1.074c1.388,0,2.238-0.269,3.291-0.56c0.044-0.022,0.089-0.045,0.134-0.045
		c0.09,0,0.18,0.067,0.224,0.201l0.246,0.851v0.09c0,0.112-0.089,0.179-0.224,0.246c-0.896,0.358-2.372,0.649-3.85,0.649
		c-4.388,0-5.686-2.037-5.686-6.156c0-3.782,0.761-6.178,5.192-6.178c2.351,0,3.716,0.717,4.455,1.992
		c0.582,1.008,0.716,2.396,0.716,3.939V137.998z M481.136,134.282c-0.403-1.433-1.276-1.902-3.089-1.902
		c-1.791,0-2.664,0.47-3.045,1.902c-0.224,0.829-0.246,1.702-0.269,2.53l6.671-0.022
		C481.382,135.939,481.337,135.111,481.136,134.282z"/>
	<path fill="#010202" d="M491.63,132.537c-1.478,0-2.687,0.111-3.94,0.425v9.715c0,0.201-0.111,0.336-0.313,0.336h-1.119
		c0,0-0.335-0.135-0.335-0.336v-9.334c0-0.985,0.201-1.276,0.962-1.635c0.985-0.447,3-0.738,4.074-0.738h0.56
		c0.112,0,0.313,0.045,0.313,0.336v0.962C491.831,132.424,491.786,132.537,491.63,132.537z"/>
	<path fill="#010202" d="M503.174,137.998c-0.022,0.112-0.179,0.291-0.291,0.291h-8.215c0,1.231,0.224,1.926,0.694,2.508
		c0.648,0.828,1.746,1.074,3.312,1.074c1.388,0,2.238-0.269,3.291-0.56c0.044-0.022,0.089-0.045,0.134-0.045
		c0.09,0,0.18,0.067,0.224,0.201l0.246,0.851v0.09c0,0.112-0.089,0.179-0.224,0.246c-0.896,0.358-2.372,0.649-3.85,0.649
		c-4.388,0-5.686-2.037-5.686-6.156c0-3.782,0.761-6.178,5.192-6.178c2.351,0,3.716,0.717,4.455,1.992
		c0.582,1.008,0.716,2.396,0.716,3.939V137.998z M501.048,134.282c-0.403-1.433-1.276-1.902-3.089-1.902
		c-1.791,0-2.664,0.47-3.045,1.902c-0.224,0.829-0.246,1.702-0.269,2.53l6.671-0.022
		C501.294,135.939,501.249,135.111,501.048,134.282z"/>
	<path fill="#010202" d="M517.093,132.178c0,0.045-0.045,0.067-0.111,0.134c-0.493,0.336-1.053,0.471-1.59,0.471
		c-0.358,0-0.381-0.022-0.896-0.112c0,0,0.963,0.806,0.963,2.396c0,3.179-1.97,4.096-4.925,4.096h-1.656
		c-1.164,0-1.433,0.582-1.433,1.164c0,0.94,0.649,1.187,1.634,1.187h3.38c2.149,0,3.672,0.649,3.672,2.642
		c0,2.775-2.239,3.693-5.439,3.693c-3.716,0-5.418-0.738-5.418-2.999c0-1.746,1.187-2.082,2.284-2.306v-0.246
		c-1.008-0.225-1.881-0.336-1.881-1.926c0-1.365,0.738-1.701,2.462-1.97c-1.052-0.336-2.529-0.627-2.529-3.335
		c0-3.067,2.015-4.097,4.902-4.097c1.388,0,1.947,0.224,2.798,0.47c0.247,0.045,0.516,0.09,0.829,0.09
		c0.335,0,0.716-0.067,1.029-0.156c0.403-0.112,0.851-0.313,1.164-0.471c0.067-0.022,0.134-0.066,0.179-0.066
		s0.09,0.044,0.112,0.134l0.425,1.119C517.07,132.133,517.093,132.156,517.093,132.178z M512.258,143.012h-3.021
		c-1.142,0-2.194,0.358-2.194,1.701c0,1.545,1.612,1.746,3.672,1.746c1.388,0,3.648-0.201,3.648-2.037
		C514.362,143.125,513.243,143.012,512.258,143.012z M510.534,132.312c-1.947,0-3.156,0.672-3.156,2.754
		c0,2.06,1.209,2.708,3.156,2.708c1.925,0,3.156-0.648,3.156-2.708C513.69,132.984,512.459,132.312,510.534,132.312z"/>
	<path fill="#010202" d="M525.909,142.99c-0.649,0.135-1.724,0.313-2.91,0.313c-1.926,0-5.126-0.067-5.126-3.693
		c0-3,1.656-3.156,3.872-3.515l4.23-0.693v-1.053c0-0.716-0.022-1.298-0.806-1.589c-0.425-0.18-1.052-0.269-2.037-0.269
		c-1.724,0-3.224,0.425-4.141,0.648c-0.045,0-0.09,0.022-0.135,0.022c-0.09,0-0.179-0.044-0.224-0.179l-0.201-1.007v-0.045
		c0-0.18,0.156-0.246,0.224-0.269c0.716-0.269,2.642-0.694,4.679-0.694c1.589,0,2.618,0.224,3.268,0.582
		c1.142,0.604,1.164,1.656,1.164,2.709v6.424C527.767,142.251,527.453,142.609,525.909,142.99z M525.998,136.812l-4.118,0.693
		c-1.075,0.202-2.172,0.246-2.172,2.015c0,2.238,1.836,2.396,3.313,2.396c0.984,0,2.036-0.135,2.977-0.448V136.812z
		 M523.356,130.119c-1.701,0-2.641-0.649-2.641-2.418c0-1.768,0.939-2.395,2.641-2.395c1.68,0,2.619,0.627,2.619,2.395
		C525.976,129.469,525.036,130.119,523.356,130.119z M523.356,126.202c-1.029,0-1.275,0.447-1.275,1.521
		c0,1.053,0.246,1.5,1.275,1.5c1.008,0,1.254-0.47,1.254-1.522C524.61,126.649,524.364,126.202,523.356,126.202z"/>
	<path fill="#010202" d="M540.566,137.998c-0.022,0.112-0.179,0.291-0.291,0.291h-8.215c0,1.231,0.224,1.926,0.694,2.508
		c0.648,0.828,1.746,1.074,3.312,1.074c1.388,0,2.238-0.269,3.291-0.56c0.044-0.022,0.089-0.045,0.134-0.045
		c0.09,0,0.18,0.067,0.224,0.201l0.246,0.851v0.09c0,0.112-0.089,0.179-0.224,0.246c-0.896,0.358-2.372,0.649-3.85,0.649
		c-4.388,0-5.686-2.037-5.686-6.156c0-3.782,0.761-6.178,5.192-6.178c2.351,0,3.716,0.717,4.455,1.992
		c0.582,1.008,0.716,2.396,0.716,3.939V137.998z M538.44,134.282c-0.403-1.433-1.276-1.902-3.089-1.902
		c-1.791,0-2.664,0.47-3.045,1.902c-0.224,0.829-0.246,1.702-0.269,2.53l6.671-0.022
		C538.687,135.939,538.642,135.111,538.44,134.282z"/>
	<path fill="#010202" d="M552.739,143.012h-1.097c-0.201,0-0.336-0.135-0.336-0.336v-8.282c0-1.478-0.56-1.992-2.126-1.992
		c-2.082,0-4.187,0.627-4.187,0.627v9.647c0,0.201-0.111,0.336-0.313,0.336h-1.119c-0.201,0-0.335-0.135-0.335-0.336v-9.289
		c0-0.896,0.044-1.299,1.163-1.68c1.164-0.402,3.403-0.738,4.836-0.738c2.663,0,3.85,0.828,3.85,3.224v8.483
		C553.075,142.877,552.941,143.012,552.739,143.012z"/>
	<path fill="#010202" d="M564.396,142.856c-0.717,0.179-1.656,0.447-3.425,0.447c-4.343,0-5.35-1.97-5.35-6.178
		c0-4.298,1.186-6.156,5.215-6.156c1.545,0,2.664,0.246,3.425,0.447l-0.224-1.298v-3.357c0-0.18,0.112-0.246,0.291-0.269
		l1.209-0.313h0.067c0.156,0,0.201,0.156,0.201,0.291v14.617C565.806,141.916,565.806,142.542,564.396,142.856z M564.037,132.783
		c0,0-1.41-0.403-3.021-0.403c-2.463,0-3.56,0.783-3.56,4.768c0,4.254,1.299,4.746,3.582,4.746c1.656,0,2.999-0.426,2.999-0.426
		V132.783z"/>
	<path fill="#010202" d="M578.717,137.998c-0.022,0.112-0.179,0.291-0.291,0.291h-8.215c0,1.231,0.224,1.926,0.694,2.508
		c0.648,0.828,1.746,1.074,3.312,1.074c1.388,0,2.238-0.269,3.291-0.56c0.044-0.022,0.089-0.045,0.134-0.045
		c0.09,0,0.18,0.067,0.224,0.201l0.246,0.851v0.09c0,0.112-0.089,0.179-0.224,0.246c-0.896,0.358-2.372,0.649-3.85,0.649
		c-4.388,0-5.686-2.037-5.686-6.156c0-3.782,0.761-6.178,5.192-6.178c2.351,0,3.716,0.717,4.455,1.992
		c0.582,1.008,0.716,2.396,0.716,3.939V137.998z M576.591,134.282c-0.403-1.433-1.276-1.902-3.089-1.902
		c-1.791,0-2.664,0.47-3.045,1.902c-0.224,0.829-0.246,1.702-0.269,2.53l6.671-0.022
		C576.837,135.939,576.792,135.111,576.591,134.282z"/>
	<path fill="#010202" d="M593.126,143.303c-3.94,0-4.925-1.679-4.925-4.634v-7.118c0-0.179,0.112-0.246,0.291-0.291l1.209-0.291
		h0.066c0.157,0,0.202,0.156,0.202,0.291v7.589c0,2.104,0.738,3.044,3.156,3.044c2.91,0,3.134-1.433,3.134-3.111v-7.23
		c0-0.179,0.134-0.246,0.291-0.291l1.209-0.291h0.066c0.157,0,0.225,0.156,0.225,0.291v7.364
		C598.051,140.841,597.737,143.303,593.126,143.303z"/>
	<path fill="#010202" d="M609.238,142.856c-0.717,0.179-1.656,0.447-3.425,0.447c-4.343,0-5.35-1.97-5.35-6.178
		c0-4.298,1.186-6.156,5.215-6.156c1.545,0,2.664,0.246,3.425,0.447l-0.224-1.298v-3.357c0-0.18,0.112-0.246,0.291-0.269
		l1.209-0.313h0.067c0.156,0,0.201,0.156,0.201,0.291v14.617C610.648,141.916,610.648,142.542,609.238,142.856z M608.88,132.783
		c0,0-1.41-0.403-3.021-0.403c-2.463,0-3.56,0.783-3.56,4.768c0,4.254,1.299,4.746,3.582,4.746c1.656,0,2.999-0.426,2.999-0.426
		V132.783z"/>
	<path fill="#010202" d="M621.971,142.856c-0.717,0.179-1.656,0.447-3.425,0.447c-4.343,0-5.35-1.97-5.35-6.178
		c0-4.298,1.186-6.156,5.215-6.156c1.545,0,2.664,0.246,3.425,0.447l-0.224-1.298v-3.357c0-0.18,0.112-0.246,0.291-0.269
		l1.209-0.313h0.067c0.156,0,0.201,0.156,0.201,0.291v14.617C623.381,141.916,623.381,142.542,621.971,142.856z M621.612,132.783
		c0,0-1.41-0.403-3.021-0.403c-2.463,0-3.56,0.783-3.56,4.768c0,4.254,1.299,4.746,3.582,4.746c1.656,0,2.999-0.426,2.999-0.426
		V132.783z"/>
	<path fill="#010202" d="M633.965,142.99c-0.649,0.135-1.724,0.313-2.91,0.313c-1.926,0-5.126-0.067-5.126-3.693
		c0-3,1.656-3.156,3.872-3.515l4.23-0.693v-1.053c0-0.716-0.022-1.298-0.806-1.589c-0.425-0.18-1.052-0.269-2.037-0.269
		c-1.724,0-3.224,0.425-4.141,0.648c-0.045,0-0.09,0.022-0.135,0.022c-0.09,0-0.179-0.044-0.224-0.179l-0.201-1.007v-0.045
		c0-0.18,0.156-0.246,0.224-0.269c0.716-0.269,2.642-0.694,4.678-0.694c1.59,0,2.619,0.224,3.269,0.582
		c1.142,0.604,1.164,1.656,1.164,2.709v6.424C635.822,142.251,635.509,142.609,633.965,142.99z M634.054,136.812l-4.118,0.693
		c-1.075,0.202-2.172,0.246-2.172,2.015c0,2.238,1.836,2.396,3.313,2.396c0.984,0,2.036-0.135,2.977-0.448V136.812z"/>
	<path fill="#010202" d="M648.354,143.012h-1.097c-0.201,0-0.336-0.135-0.336-0.336v-8.282c0-1.478-0.56-1.992-2.126-1.992
		c-2.082,0-4.187,0.627-4.187,0.627v9.647c0,0.201-0.111,0.336-0.313,0.336h-1.119c-0.201,0-0.335-0.135-0.335-0.336v-9.289
		c0-0.896,0.044-1.299,1.163-1.68c1.164-0.402,3.403-0.738,4.836-0.738c2.663,0,3.85,0.828,3.85,3.224v8.483
		C648.689,142.877,648.556,143.012,648.354,143.012z"/>
	<path fill="#010202" d="M661.221,143.012h-1.097c-0.201,0-0.336-0.135-0.336-0.336v-8.282c0-1.478-0.56-1.992-2.126-1.992
		c-2.082,0-4.187,0.627-4.187,0.627v9.647c0,0.201-0.111,0.336-0.313,0.336h-1.119c-0.201,0-0.335-0.135-0.335-0.336v-9.289
		c0-0.896,0.044-1.299,1.163-1.68c1.164-0.402,3.403-0.738,4.836-0.738c2.663,0,3.85,0.828,3.85,3.224v8.483
		C661.557,142.877,661.423,143.012,661.221,143.012z"/>
	<path fill="#010202" d="M674.466,137.998c-0.022,0.112-0.179,0.291-0.291,0.291h-8.215c0,1.231,0.224,1.926,0.694,2.508
		c0.648,0.828,1.746,1.074,3.312,1.074c1.388,0,2.238-0.269,3.291-0.56c0.044-0.022,0.089-0.045,0.134-0.045
		c0.09,0,0.18,0.067,0.224,0.201l0.247,0.851v0.09c0,0.112-0.09,0.179-0.225,0.246c-0.896,0.358-2.372,0.649-3.85,0.649
		c-4.388,0-5.686-2.037-5.686-6.156c0-3.782,0.761-6.178,5.192-6.178c2.351,0,3.716,0.717,4.455,1.992
		c0.582,1.008,0.716,2.396,0.716,3.939V137.998z M672.34,134.282c-0.403-1.433-1.276-1.902-3.089-1.902
		c-1.791,0-2.664,0.47-3.045,1.902c-0.224,0.829-0.246,1.702-0.269,2.53l6.671-0.022
		C672.586,135.939,672.541,135.111,672.34,134.282z"/>
	<path fill="#010202" d="M681.133,142.744c0,0.156-0.112,0.201-0.18,0.224c-0.179,0.09-0.783,0.269-1.589,0.269
		c-1.344,0-2.238-0.649-2.238-2.306v-14.169c0-0.18,0.111-0.246,0.269-0.269l1.208-0.313h0.067c0.157,0,0.224,0.156,0.224,0.291
		v14.415c0,0.807,0.56,0.918,1.008,0.918c0.313,0,0.672-0.045,0.783-0.089h0.112c0.066,0,0.134,0.021,0.156,0.156l0.157,0.783
		C681.11,142.699,681.133,142.721,681.133,142.744z"/>
	<path fill="#010202" d="M686.704,143.303c-1.97,0-3.671-0.649-3.962-0.761c-0.09-0.045-0.18-0.09-0.18-0.225v-0.066l0.225-0.873
		c0.022-0.112,0.089-0.202,0.246-0.202h0.111c0.18,0.067,1.769,0.649,3.604,0.649c1.902,0,2.999-0.604,2.999-1.97
		c0-1.858-1.433-1.791-3.179-2.06c-1.097-0.179-3.895-0.38-3.895-3.335c0-2.888,2.574-3.492,4.544-3.492
		c1.926,0,3.402,0.403,3.649,0.47c0.156,0.022,0.224,0.135,0.224,0.247v0.044l-0.157,0.985c-0.022,0.134-0.111,0.179-0.201,0.179
		h-0.045c-0.313-0.022-1.97-0.425-3.29-0.425c-1.612,0-2.955,0.447-2.955,1.857c0,1.522,1.522,1.701,2.91,1.881
		c2.015,0.269,4.186,0.425,4.186,3.47C691.539,142.586,689.301,143.303,686.704,143.303z"/>
	<path fill="#010202" d="M703.865,137.998c-0.022,0.112-0.179,0.291-0.291,0.291h-8.215c0,1.231,0.224,1.926,0.694,2.508
		c0.648,0.828,1.746,1.074,3.312,1.074c1.388,0,2.238-0.269,3.291-0.56c0.044-0.022,0.089-0.045,0.134-0.045
		c0.09,0,0.18,0.067,0.224,0.201l0.246,0.851v0.09c0,0.112-0.089,0.179-0.224,0.246c-0.896,0.358-2.372,0.649-3.85,0.649
		c-4.388,0-5.686-2.037-5.686-6.156c0-3.782,0.761-6.178,5.192-6.178c2.351,0,3.716,0.717,4.455,1.992
		c0.582,1.008,0.716,2.396,0.716,3.939V137.998z M701.739,134.282c-0.403-1.433-1.276-1.902-3.089-1.902
		c-1.791,0-2.664,0.47-3.045,1.902c-0.224,0.829-0.246,1.702-0.269,2.53l6.671-0.022
		C701.985,135.939,701.94,135.111,701.739,134.282z"/>
	<path fill="#010202" d="M712.233,132.537c-1.478,0-2.687,0.111-3.94,0.425v9.715c0,0.201-0.111,0.336-0.313,0.336h-1.119
		c0,0-0.335-0.135-0.335-0.336v-9.334c0-0.985,0.201-1.276,0.962-1.635c0.985-0.447,3-0.738,4.074-0.738h0.56
		c0.112,0,0.313,0.045,0.313,0.336v0.962C712.435,132.424,712.39,132.537,712.233,132.537z"/>
</g>
<g>
	<g>
		<path d="M102.5,144.924c-4.111,0-7.238-0.668-7.766-0.879c-0.211-0.105-0.316-0.211-0.316-0.387c0-0.035,0.035-0.105,0.035-0.141
			l0.316-1.687c0.035-0.176,0.105-0.316,0.316-0.316h0.141c0.843,0.211,3.268,0.738,6.923,0.738c3.689,0,7.133-0.984,7.133-5.658
			c0-2.318-1.194-5.481-6.466-5.481c-3.443,0-6.958,1.159-7.555,1.335h-0.246c-0.211,0-0.387-0.035-0.492-0.176
			c-0.105-0.105-0.281-0.21-0.281-0.456v-0.035l0.844-12.897c0.035-0.176,0.246-0.386,0.457-0.386h15.146
			c0.281,0,0.527,0.245,0.527,0.562v1.582c0,0.28-0.211,0.526-0.527,0.526H97.792l-0.492,8.153c0,0,3.303-0.914,5.587-0.914
			c5.236,0,9.418,2.354,9.418,8.258C112.305,142.359,108.299,144.924,102.5,144.924z"/>
		<path d="M127.763,144.924c-9.769,0-10.894-6.642-10.894-13.424s1.125-13.459,10.894-13.459c9.734,0,10.894,6.677,10.894,13.459
			S137.497,144.924,127.763,144.924z M127.728,120.642c-6.747,0-7.66,4.076-7.66,10.823c0,6.782,0.913,10.858,7.66,10.858
			c6.782,0,7.731-4.076,7.731-10.858S134.51,120.642,127.728,120.642z"/>
		<path d="M147.867,144.467h-3.058c-0.316,0-0.527-0.211-0.527-0.527v-2.249c0-0.316,0.211-0.527,0.527-0.527h3.058
			c0.316,0,0.527,0.211,0.527,0.527v2.249C148.395,144.256,148.184,144.467,147.867,144.467z"/>
		<path d="M164.947,144.924c-9.769,0-10.894-6.642-10.894-13.424s1.125-13.459,10.894-13.459c9.734,0,10.894,6.677,10.894,13.459
			S174.682,144.924,164.947,144.924z M164.912,120.642c-6.747,0-7.66,4.076-7.66,10.823c0,6.782,0.913,10.858,7.66,10.858
			c6.782,0,7.731-4.076,7.731-10.858S171.694,120.642,164.912,120.642z"/>
		<path d="M191.092,144.924c-9.769,0-10.894-6.642-10.894-13.424s1.125-13.459,10.894-13.459c9.734,0,10.894,6.677,10.894,13.459
			S200.826,144.924,191.092,144.924z M191.057,120.642c-6.747,0-7.66,4.076-7.66,10.823c0,6.782,0.913,10.858,7.66,10.858
			c6.782,0,7.731-4.076,7.731-10.858S197.839,120.642,191.057,120.642z"/>
		<path d="M217.236,144.924c-9.769,0-10.894-6.642-10.894-13.424s1.125-13.459,10.894-13.459c9.734,0,10.894,6.677,10.894,13.459
			S226.971,144.924,217.236,144.924z M217.201,120.642c-6.747,0-7.66,4.076-7.66,10.823c0,6.782,0.913,10.858,7.66,10.858
			c6.782,0,7.731-4.076,7.731-10.858S223.983,120.642,217.201,120.642z"/>
	</g>
</g>
<g>
</g>
<g>
</g>
<g>
</g>
<g>
</g>
<g>
</g>
<g>
</g>
</svg>
