<?xml version="1.0" encoding="utf-8"?>
<!-- Generator: Adobe Illustrator 16.0.4, SVG Export Plug-In . SVG Version: 6.00 Build 0)  -->
<!DOCTYPE svg PUBLIC "-//W3C//DTD SVG 1.1//EN" "http://www.w3.org/Graphics/SVG/1.1/DTD/svg11.dtd">
<svg version="1.1" id="Layer_1" xmlns="http://www.w3.org/2000/svg" xmlns:xlink="http://www.w3.org/1999/xlink" x="0px" y="0px"
	 width="913.312px" height="371.289px" viewBox="0 0 913.312 371.289" enable-background="new 0 0 913.312 371.289"
	 xml:space="preserve">
<polygon fill="#E4F3FB" points="894.329,371.289 0,361.625 8.311,300.265 908.373,307.837 "/>
<g>
	<rect x="86.853" y="325.763" fill="none" width="770.434" height="40.652"/>
	<path d="M102.186,342.323c0,0.156-0.089,0.269-0.246,0.269h-1.388c-0.111,0-0.291-0.112-0.313-0.224l-2.417-6.805h-6.402
		l-2.351,6.85c-0.045,0.111-0.224,0.179-0.336,0.179h-1.388c-0.156,0-0.246-0.112-0.246-0.246c0-0.067,0.022-0.135,0.045-0.18
		l5.775-15.825c0.045-0.157,0.291-0.291,0.402-0.291h2.754c0.134,0,0.358,0.134,0.402,0.291l5.687,15.825
		C102.164,342.21,102.186,342.278,102.186,342.323z M95.045,327.616H94.15l-2.217,6.312h5.373L95.045,327.616z"/>
	<path d="M108.023,342.323c0,0.156-0.112,0.201-0.18,0.224c-0.179,0.09-0.783,0.269-1.589,0.269c-1.344,0-2.238-0.649-2.238-2.306
		V326.34c0-0.18,0.111-0.246,0.269-0.269l1.208-0.313h0.067c0.157,0,0.224,0.156,0.224,0.291v14.415c0,0.807,0.56,0.918,1.008,0.918
		c0.313,0,0.672-0.045,0.783-0.089h0.112c0.066,0,0.134,0.021,0.156,0.156l0.157,0.783
		C108.001,342.278,108.023,342.3,108.023,342.323z"/>
	<path d="M116.191,342.233c0,0.09-0.09,0.202-0.179,0.224c-0.493,0.157-1.455,0.426-2.731,0.426c-2.216,0-3.268-0.963-3.268-3.111
		v-12.312c0-0.18,0.111-0.246,0.269-0.269l1.208-0.313h0.067c0.157,0,0.224,0.156,0.224,0.291v3.671h3.761
		c0.202,0,0.336,0.135,0.336,0.336v0.761c0,0.201-0.134,0.336-0.336,0.336h-3.761v7.678c0,1.231,0.672,1.5,1.836,1.5
		c0.694,0,1.589-0.179,2.06-0.291h0.067c0.111,0,0.201,0.067,0.246,0.201l0.201,0.828V342.233z"/>
	<path d="M121.65,342.882c-1.97,0-3.671-0.649-3.962-0.761c-0.09-0.045-0.18-0.09-0.18-0.225v-0.066l0.225-0.873
		c0.022-0.112,0.089-0.202,0.246-0.202h0.111c0.18,0.067,1.769,0.649,3.604,0.649c1.902,0,2.999-0.604,2.999-1.97
		c0-1.857-1.433-1.791-3.178-2.06c-1.098-0.179-3.896-0.38-3.896-3.335c0-2.888,2.574-3.492,4.544-3.492
		c1.926,0,3.402,0.403,3.648,0.47c0.157,0.022,0.225,0.135,0.225,0.247v0.044l-0.157,0.985c-0.022,0.134-0.111,0.179-0.201,0.179
		h-0.045c-0.313-0.022-1.97-0.425-3.29-0.425c-1.612,0-2.955,0.447-2.955,1.857c0,1.522,1.522,1.701,2.91,1.881
		c2.015,0.269,4.186,0.425,4.186,3.47C126.485,342.166,124.247,342.882,121.65,342.882z"/>
	<path d="M136.376,342.569c-0.649,0.135-1.724,0.313-2.91,0.313c-1.926,0-5.126-0.067-5.126-3.693c0-3,1.656-3.156,3.872-3.515
		l4.23-0.693v-1.053c0-0.716-0.022-1.298-0.806-1.589c-0.425-0.18-1.052-0.269-2.037-0.269c-1.724,0-3.224,0.425-4.141,0.648
		c-0.045,0-0.09,0.022-0.135,0.022c-0.09,0-0.179-0.044-0.224-0.179l-0.201-1.007v-0.045c0-0.18,0.156-0.246,0.224-0.269
		c0.716-0.269,2.642-0.694,4.679-0.694c1.589,0,2.618,0.224,3.268,0.582c1.142,0.604,1.164,1.656,1.164,2.709v6.424
		C138.233,341.831,137.92,342.188,136.376,342.569z M136.465,336.391l-4.118,0.693c-1.075,0.202-2.172,0.246-2.172,2.015
		c0,2.238,1.836,2.396,3.313,2.396c0.984,0,2.036-0.135,2.977-0.448V336.391z M133.823,329.698c-1.701,0-2.641-0.649-2.641-2.418
		c0-1.768,0.939-2.395,2.641-2.395c1.68,0,2.619,0.627,2.619,2.395C136.442,329.048,135.503,329.698,133.823,329.698z
		 M133.823,325.781c-1.029,0-1.275,0.447-1.275,1.521c0,1.053,0.246,1.5,1.275,1.5c1.008,0,1.254-0.47,1.254-1.522
		C135.077,326.228,134.831,325.781,133.823,325.781z"/>
	<path d="M157.97,337.578c-0.022,0.111-0.179,0.29-0.291,0.29h-8.215c0,1.231,0.224,1.926,0.694,2.508
		c0.648,0.828,1.746,1.074,3.312,1.074c1.388,0,2.238-0.269,3.291-0.56c0.044-0.022,0.089-0.045,0.134-0.045
		c0.09,0,0.18,0.067,0.224,0.201l0.247,0.851v0.09c0,0.112-0.09,0.179-0.225,0.246c-0.896,0.358-2.372,0.649-3.85,0.649
		c-4.388,0-5.686-2.037-5.686-6.156c0-3.782,0.761-6.178,5.192-6.178c2.351,0,3.716,0.717,4.455,1.992
		c0.582,1.008,0.716,2.396,0.716,3.939V337.578z M155.844,333.861c-0.403-1.433-1.276-1.902-3.089-1.902
		c-1.791,0-2.664,0.47-3.045,1.902c-0.224,0.829-0.246,1.702-0.269,2.53l6.671-0.022C156.09,335.518,156.045,334.69,155.844,333.861
		z"/>
	<path d="M170.143,342.591h-1.097c-0.201,0-0.336-0.135-0.336-0.336v-8.282c0-1.478-0.56-1.992-2.126-1.992
		c-2.082,0-4.187,0.627-4.187,0.627v9.647c0,0.201-0.111,0.336-0.313,0.336h-1.119c-0.201,0-0.335-0.135-0.335-0.336v-9.289
		c0-0.896,0.044-1.299,1.163-1.68c1.164-0.402,3.403-0.738,4.836-0.738c2.663,0,3.85,0.828,3.85,3.224v8.483
		C170.479,342.457,170.345,342.591,170.143,342.591z"/>
	<path d="M186.142,332.116c-1.478,0-2.687,0.111-3.94,0.425v9.715c0,0.201-0.111,0.336-0.313,0.336h-1.119
		c0,0-0.335-0.135-0.335-0.336v-9.334c0-0.985,0.201-1.276,0.962-1.635c0.985-0.447,3-0.738,4.074-0.738h0.56
		c0.112,0,0.313,0.045,0.313,0.336v0.963C186.343,332.003,186.298,332.116,186.142,332.116z"/>
	<path d="M205.569,337.801c0,0.111-0.157,0.291-0.27,0.291h-8.17c0.022,1.23,0.246,1.701,0.716,2.283
		c0.649,0.828,1.746,1.074,3.291,1.074c1.41,0,2.193-0.269,3.246-0.56c0.044-0.022,0.089-0.045,0.134-0.045
		c0.09,0,0.157,0.067,0.201,0.201l0.27,0.851v0.09c0,0.112-0.09,0.179-0.225,0.246c-0.917,0.358-2.574,0.649-4.052,0.649
		c-3.29,0-4.186-1.522-4.544-2.238c-0.537,0.984-1.253,2.238-4.253,2.238c-2.148,0-4.7-0.47-4.7-3.738
		c0-2.529,1.41-3.066,3.491-3.47l4.656-0.94c0-1.97-1.097-2.663-2.888-2.663c-1.521,0-3.85,0.56-4.208,0.648h-0.045
		c-0.112,0-0.224-0.111-0.269-0.269l-0.156-0.895v-0.067c0-0.112,0.066-0.202,0.201-0.246c0.425-0.202,2.642-0.694,4.23-0.694
		c1.545,0,3.671,0.291,4.186,2.171c0.694-1.477,1.903-2.171,4.209-2.171c2.351,0,3.514,0.717,4.253,1.992
		c0.582,1.008,0.716,2.619,0.716,4.164C205.591,337.017,205.591,337.398,205.569,337.801z M195.384,336.167l-3.851,0.807
		c-1.32,0.269-2.484,0.537-2.484,2.171c0,1.858,1.388,2.328,3.066,2.328c1.68,0,3.269-0.515,3.269-3.402V336.167z M203.442,333.861
		c-0.381-1.433-1.209-1.902-3-1.902c-2.73,0-3.312,1.611-3.312,4.656l6.581-0.022C203.688,335.742,203.666,334.69,203.442,333.861z"
		/>
	<path d="M217.851,342.39c0,0.111-0.112,0.201-0.224,0.201h-1.858c-0.089,0-0.134-0.045-0.179-0.112l-4.656-5.081h-0.918v4.857
		c0,0.201-0.111,0.336-0.313,0.336h-1.119c-0.201,0-0.335-0.135-0.335-0.336V326.34c0-0.18,0.111-0.246,0.269-0.269l1.208-0.313
		h0.067c0.157,0,0.224,0.156,0.224,0.291v10.006h0.918l4.521-5.104c0.045-0.067,0.09-0.112,0.18-0.112l1.611,0.045
		c0.112,0,0.224,0.09,0.224,0.201c0,0.045-0.022,0.09-0.045,0.112l-4.924,5.395l5.305,5.686
		C217.828,342.3,217.851,342.345,217.851,342.39z"/>
	<path d="M229.33,342.39c0,0.111-0.112,0.201-0.224,0.201h-1.858c-0.089,0-0.134-0.045-0.179-0.112l-4.656-5.081h-0.918v4.857
		c0,0.201-0.111,0.336-0.313,0.336h-1.119c-0.201,0-0.335-0.135-0.335-0.336V326.34c0-0.18,0.111-0.246,0.269-0.269l1.208-0.313
		h0.067c0.157,0,0.224,0.156,0.224,0.291v10.006h0.918l4.521-5.104c0.045-0.067,0.09-0.112,0.18-0.112l1.611,0.045
		c0.112,0,0.224,0.09,0.224,0.201c0,0.045-0.022,0.09-0.044,0.112l-4.925,5.395l5.305,5.686
		C229.308,342.3,229.33,342.345,229.33,342.39z"/>
	<path d="M240.764,337.578c-0.022,0.111-0.179,0.29-0.291,0.29h-8.215c0,1.231,0.224,1.926,0.694,2.508
		c0.648,0.828,1.746,1.074,3.312,1.074c1.388,0,2.238-0.269,3.291-0.56c0.044-0.022,0.089-0.045,0.134-0.045
		c0.09,0,0.18,0.067,0.224,0.201l0.246,0.851v0.09c0,0.112-0.089,0.179-0.224,0.246c-0.896,0.358-2.372,0.649-3.85,0.649
		c-4.388,0-5.686-2.037-5.686-6.156c0-3.782,0.761-6.178,5.192-6.178c2.351,0,3.716,0.717,4.455,1.992
		c0.582,1.008,0.716,2.396,0.716,3.939V337.578z M238.638,333.861c-0.403-1.433-1.276-1.902-3.089-1.902
		c-1.791,0-2.664,0.47-3.045,1.902c-0.224,0.829-0.246,1.702-0.269,2.53l6.671-0.022
		C238.884,335.518,238.839,334.69,238.638,333.861z"/>
	<path d="M255.173,342.882c-3.94,0-4.925-1.679-4.925-4.634v-7.118c0-0.179,0.112-0.246,0.291-0.291l1.209-0.291h0.066
		c0.157,0,0.202,0.156,0.202,0.291v7.589c0,2.104,0.738,3.044,3.156,3.044c2.91,0,3.134-1.433,3.134-3.111v-7.23
		c0-0.179,0.134-0.246,0.291-0.291l1.209-0.291h0.066c0.157,0,0.225,0.156,0.225,0.291v7.364
		C260.098,340.42,259.784,342.882,255.173,342.882z"/>
	<path d="M271.285,342.435c-0.717,0.179-1.656,0.447-3.425,0.447c-4.343,0-5.35-1.97-5.35-6.178c0-4.298,1.186-6.156,5.215-6.156
		c1.545,0,2.664,0.246,3.425,0.447l-0.224-1.298v-3.357c0-0.18,0.112-0.246,0.291-0.269l1.209-0.313h0.067
		c0.156,0,0.201,0.156,0.201,0.291v14.617C272.695,341.495,272.695,342.122,271.285,342.435z M270.927,332.362
		c0,0-1.41-0.403-3.021-0.403c-2.463,0-3.56,0.783-3.56,4.768c0,4.254,1.299,4.746,3.582,4.746c1.656,0,2.999-0.426,2.999-0.426
		V332.362z"/>
	<path d="M284.018,342.435c-0.717,0.179-1.656,0.447-3.425,0.447c-4.343,0-5.35-1.97-5.35-6.178c0-4.298,1.186-6.156,5.215-6.156
		c1.545,0,2.664,0.246,3.425,0.447l-0.224-1.298v-3.357c0-0.18,0.112-0.246,0.291-0.269l1.209-0.313h0.067
		c0.156,0,0.201,0.156,0.201,0.291v14.617C285.428,341.495,285.428,342.122,284.018,342.435z M283.659,332.362
		c0,0-1.41-0.403-3.021-0.403c-2.463,0-3.56,0.783-3.56,4.768c0,4.254,1.299,4.746,3.582,4.746c1.656,0,2.999-0.426,2.999-0.426
		V332.362z"/>
	<path d="M296.012,342.569c-0.649,0.135-1.724,0.313-2.91,0.313c-1.926,0-5.126-0.067-5.126-3.693c0-3,1.656-3.156,3.872-3.515
		l4.23-0.693v-1.053c0-0.716-0.022-1.298-0.806-1.589c-0.425-0.18-1.052-0.269-2.037-0.269c-1.724,0-3.224,0.425-4.141,0.648
		c-0.045,0-0.09,0.022-0.135,0.022c-0.09,0-0.179-0.044-0.224-0.179l-0.201-1.007v-0.045c0-0.18,0.156-0.246,0.224-0.269
		c0.716-0.269,2.642-0.694,4.678-0.694c1.59,0,2.619,0.224,3.269,0.582c1.142,0.604,1.164,1.656,1.164,2.709v6.424
		C297.869,341.831,297.556,342.188,296.012,342.569z M296.101,336.391l-4.118,0.693c-1.075,0.202-2.172,0.246-2.172,2.015
		c0,2.238,1.836,2.396,3.313,2.396c0.984,0,2.036-0.135,2.977-0.448V336.391z"/>
	<path d="M310.4,342.591h-1.097c-0.201,0-0.336-0.135-0.336-0.336v-8.282c0-1.478-0.56-1.992-2.126-1.992
		c-2.082,0-4.187,0.627-4.187,0.627v9.647c0,0.201-0.111,0.336-0.313,0.336h-1.119c-0.201,0-0.335-0.135-0.335-0.336v-9.289
		c0-0.896,0.044-1.299,1.163-1.68c1.164-0.402,3.403-0.738,4.836-0.738c2.663,0,3.85,0.828,3.85,3.224v8.483
		C310.736,342.457,310.603,342.591,310.4,342.591z"/>
	<path d="M323.268,342.591h-1.097c-0.201,0-0.336-0.135-0.336-0.336v-8.282c0-1.478-0.56-1.992-2.126-1.992
		c-2.082,0-4.187,0.627-4.187,0.627v9.647c0,0.201-0.111,0.336-0.313,0.336h-1.119c-0.201,0-0.335-0.135-0.335-0.336v-9.289
		c0-0.896,0.044-1.299,1.163-1.68c1.164-0.402,3.403-0.738,4.836-0.738c2.663,0,3.85,0.828,3.85,3.224v8.483
		C323.604,342.457,323.47,342.591,323.268,342.591z"/>
	<path d="M336.513,337.578c-0.022,0.111-0.179,0.29-0.291,0.29h-8.215c0,1.231,0.224,1.926,0.694,2.508
		c0.648,0.828,1.746,1.074,3.312,1.074c1.388,0,2.238-0.269,3.291-0.56c0.044-0.022,0.089-0.045,0.134-0.045
		c0.09,0,0.18,0.067,0.224,0.201l0.247,0.851v0.09c0,0.112-0.09,0.179-0.225,0.246c-0.896,0.358-2.372,0.649-3.85,0.649
		c-4.388,0-5.686-2.037-5.686-6.156c0-3.782,0.761-6.178,5.192-6.178c2.351,0,3.716,0.717,4.455,1.992
		c0.582,1.008,0.716,2.396,0.716,3.939V337.578z M334.387,333.861c-0.403-1.433-1.276-1.902-3.089-1.902
		c-1.791,0-2.664,0.47-3.045,1.902c-0.224,0.829-0.246,1.702-0.269,2.53l6.671-0.022
		C334.633,335.518,334.588,334.69,334.387,333.861z"/>
	<path d="M343.18,342.323c0,0.156-0.112,0.201-0.18,0.224c-0.179,0.09-0.783,0.269-1.589,0.269c-1.344,0-2.238-0.649-2.238-2.306
		V326.34c0-0.18,0.111-0.246,0.269-0.269l1.208-0.313h0.067c0.157,0,0.224,0.156,0.224,0.291v14.415c0,0.807,0.56,0.918,1.008,0.918
		c0.313,0,0.672-0.045,0.783-0.089h0.112c0.066,0,0.134,0.021,0.156,0.156l0.157,0.783C343.157,342.278,343.18,342.3,343.18,342.323
		z"/>
	<path d="M348.751,342.882c-1.97,0-3.671-0.649-3.962-0.761c-0.09-0.045-0.18-0.09-0.18-0.225v-0.066l0.225-0.873
		c0.022-0.112,0.089-0.202,0.246-0.202h0.111c0.18,0.067,1.769,0.649,3.604,0.649c1.902,0,2.999-0.604,2.999-1.97
		c0-1.857-1.433-1.791-3.179-2.06c-1.097-0.179-3.895-0.38-3.895-3.335c0-2.888,2.574-3.492,4.544-3.492
		c1.926,0,3.402,0.403,3.649,0.47c0.156,0.022,0.224,0.135,0.224,0.247v0.044l-0.157,0.985c-0.022,0.134-0.111,0.179-0.201,0.179
		h-0.045c-0.313-0.022-1.97-0.425-3.29-0.425c-1.612,0-2.955,0.447-2.955,1.857c0,1.522,1.522,1.701,2.91,1.881
		c2.015,0.269,4.186,0.425,4.186,3.47C353.586,342.166,351.348,342.882,348.751,342.882z"/>
	<path d="M365.913,337.578c-0.022,0.111-0.179,0.29-0.291,0.29h-8.215c0,1.231,0.224,1.926,0.694,2.508
		c0.648,0.828,1.746,1.074,3.312,1.074c1.388,0,2.238-0.269,3.291-0.56c0.044-0.022,0.089-0.045,0.134-0.045
		c0.09,0,0.18,0.067,0.224,0.201l0.247,0.851v0.09c0,0.112-0.09,0.179-0.225,0.246c-0.896,0.358-2.372,0.649-3.85,0.649
		c-4.388,0-5.686-2.037-5.686-6.156c0-3.782,0.761-6.178,5.192-6.178c2.351,0,3.716,0.717,4.455,1.992
		c0.582,1.008,0.716,2.396,0.716,3.939V337.578z M363.787,333.861c-0.403-1.433-1.276-1.902-3.089-1.902
		c-1.791,0-2.664,0.47-3.045,1.902c-0.224,0.829-0.246,1.702-0.269,2.53l6.671-0.022
		C364.033,335.518,363.988,334.69,363.787,333.861z"/>
	<path d="M374.281,332.116c-1.478,0-2.687,0.111-3.94,0.425v9.715c0,0.201-0.111,0.336-0.313,0.336h-1.119
		c0,0-0.335-0.135-0.335-0.336v-9.334c0-0.985,0.201-1.276,0.962-1.635c0.985-0.447,3-0.738,4.074-0.738h0.56
		c0.112,0,0.313,0.045,0.313,0.336v0.963C374.482,332.003,374.438,332.116,374.281,332.116z"/>
	<path d="M377.39,344.852c-0.045,0.224-0.067,0.291-0.336,0.291h-1.053c-0.134,0-0.291-0.022-0.291-0.224v-0.045l0.291-4.275
		c0.022-0.224,0.067-0.291,0.336-0.291h1.522c0.134,0,0.291,0.022,0.291,0.201v0.067L377.39,344.852z"/>
	<path d="M397.307,342.435c-0.717,0.179-1.656,0.447-3.425,0.447c-4.343,0-5.35-1.97-5.35-6.178c0-4.298,1.186-6.156,5.215-6.156
		c1.545,0,2.664,0.246,3.425,0.447l-0.224-1.298v-3.357c0-0.18,0.112-0.246,0.291-0.269l1.209-0.313h0.067
		c0.156,0,0.201,0.156,0.201,0.291v14.617C398.717,341.495,398.717,342.122,397.307,342.435z M396.948,332.362
		c0,0-1.41-0.403-3.021-0.403c-2.463,0-3.56,0.783-3.56,4.768c0,4.254,1.299,4.746,3.582,4.746c1.656,0,2.999-0.426,2.999-0.426
		V332.362z"/>
	<path d="M411.628,337.578c-0.022,0.111-0.179,0.29-0.291,0.29h-8.215c0,1.231,0.224,1.926,0.694,2.508
		c0.648,0.828,1.746,1.074,3.312,1.074c1.388,0,2.238-0.269,3.291-0.56c0.044-0.022,0.089-0.045,0.134-0.045
		c0.09,0,0.18,0.067,0.224,0.201l0.247,0.851v0.09c0,0.112-0.09,0.179-0.225,0.246c-0.896,0.358-2.372,0.649-3.85,0.649
		c-4.388,0-5.686-2.037-5.686-6.156c0-3.782,0.761-6.178,5.192-6.178c2.351,0,3.716,0.717,4.455,1.992
		c0.582,1.008,0.716,2.396,0.716,3.939V337.578z M409.502,333.861c-0.403-1.433-1.276-1.902-3.089-1.902
		c-1.791,0-2.664,0.47-3.045,1.902c-0.224,0.829-0.246,1.702-0.269,2.53l6.671-0.022
		C409.748,335.518,409.703,334.69,409.502,333.861z"/>
	<path d="M419.996,332.116c-1.478,0-2.687,0.111-3.94,0.425v9.715c0,0.201-0.111,0.336-0.313,0.336h-1.119
		c0,0-0.335-0.135-0.335-0.336v-9.334c0-0.985,0.201-1.276,0.962-1.635c0.985-0.447,3-0.738,4.074-0.738h0.56
		c0.112,0,0.313,0.045,0.313,0.336v0.963C420.197,332.003,420.152,332.116,419.996,332.116z"/>
	<path d="M435.57,327.191c-0.022,0.179-0.135,0.246-0.313,0.246c-0.447-0.09-1.276-0.246-2.148-0.246
		c-0.604,0-1.075,0.067-1.389,0.313c-0.291,0.224-0.447,0.582-0.447,1.187v2.148h3.312c0.202,0,0.336,0.135,0.336,0.336v0.761
		c0,0.201-0.134,0.336-0.336,0.336h-3.312v9.983c0,0.201-0.112,0.336-0.313,0.336h-1.119c-0.201,0-0.336-0.135-0.336-0.336v-9.983
		h-1.746c-0.201,0-0.336-0.135-0.336-0.336v-0.761c0-0.201,0.135-0.336,0.336-0.336h1.746v-1.97c0-2.149,1.052-3.111,3.246-3.111
		c1.187,0,2.126,0.224,2.642,0.336c0.156,0.044,0.291,0.134,0.291,0.291v0.021L435.57,327.191z"/>
	<path d="M441.004,342.882c-4.678,0-5.237-2.798-5.237-6.156c0-3.38,0.56-6.178,5.237-6.178c4.701,0,5.238,2.798,5.238,6.178
		C446.242,340.084,445.705,342.882,441.004,342.882z M441.004,331.981c-3.245,0-3.38,1.902-3.38,4.745
		c0,2.821,0.135,4.724,3.38,4.724c3.246,0,3.38-1.902,3.38-4.724C444.384,333.883,444.25,331.981,441.004,331.981z"/>
	<path d="M454.498,332.116c-1.478,0-2.687,0.111-3.94,0.425v9.715c0,0.201-0.111,0.336-0.313,0.336h-1.119
		c0,0-0.335-0.135-0.335-0.336v-9.334c0-0.985,0.201-1.276,0.962-1.635c0.985-0.447,3-0.738,4.074-0.738h0.56
		c0.112,0,0.313,0.045,0.313,0.336v0.963C454.699,332.003,454.654,332.116,454.498,332.116z"/>
	<path d="M461.363,342.882c-3.94,0-4.925-1.679-4.925-4.634v-7.118c0-0.179,0.112-0.246,0.291-0.291l1.209-0.291h0.066
		c0.157,0,0.202,0.156,0.202,0.291v7.589c0,2.104,0.738,3.044,3.156,3.044c2.91,0,3.134-1.433,3.134-3.111v-7.23
		c0-0.179,0.134-0.246,0.291-0.291l1.209-0.291h0.066c0.157,0,0.225,0.156,0.225,0.291v7.364
		C466.288,340.42,465.975,342.882,461.363,342.882z"/>
	<path d="M477.476,342.435c-0.717,0.179-1.656,0.447-3.425,0.447c-4.343,0-5.35-1.97-5.35-6.178c0-4.298,1.186-6.156,5.215-6.156
		c1.545,0,2.664,0.246,3.425,0.447l-0.224-1.298v-3.357c0-0.18,0.112-0.246,0.291-0.269l1.209-0.313h0.067
		c0.156,0,0.201,0.156,0.201,0.291v14.617C478.886,341.495,478.886,342.122,477.476,342.435z M477.117,332.362
		c0,0-1.41-0.403-3.021-0.403c-2.463,0-3.56,0.783-3.56,4.768c0,4.254,1.299,4.746,3.582,4.746c1.656,0,2.999-0.426,2.999-0.426
		V332.362z"/>
	<path d="M485.597,342.882c-1.97,0-3.671-0.649-3.962-0.761c-0.09-0.045-0.18-0.09-0.18-0.225v-0.066l0.225-0.873
		c0.022-0.112,0.089-0.202,0.246-0.202h0.111c0.18,0.067,1.769,0.649,3.604,0.649c1.902,0,2.999-0.604,2.999-1.97
		c0-1.857-1.433-1.791-3.179-2.06c-1.097-0.179-3.895-0.38-3.895-3.335c0-2.888,2.574-3.492,4.544-3.492
		c1.926,0,3.402,0.403,3.649,0.47c0.156,0.022,0.224,0.135,0.224,0.247v0.044l-0.157,0.985c-0.022,0.134-0.111,0.179-0.201,0.179
		h-0.045c-0.313-0.022-1.97-0.425-3.29-0.425c-1.612,0-2.955,0.447-2.955,1.857c0,1.522,1.522,1.701,2.91,1.881
		c2.015,0.269,4.186,0.425,4.186,3.47C490.432,342.166,488.193,342.882,485.597,342.882z"/>
	<path d="M510.642,337.801c0,0.111-0.157,0.291-0.27,0.291h-8.17c0.022,1.23,0.246,1.701,0.716,2.283
		c0.649,0.828,1.746,1.074,3.291,1.074c1.41,0,2.193-0.269,3.246-0.56c0.044-0.022,0.089-0.045,0.134-0.045
		c0.09,0,0.157,0.067,0.201,0.201l0.27,0.851v0.09c0,0.112-0.09,0.179-0.225,0.246c-0.917,0.358-2.574,0.649-4.052,0.649
		c-3.29,0-4.186-1.522-4.544-2.238c-0.537,0.984-1.253,2.238-4.253,2.238c-2.148,0-4.7-0.47-4.7-3.738
		c0-2.529,1.41-3.066,3.491-3.47l4.656-0.94c0-1.97-1.097-2.663-2.888-2.663c-1.521,0-3.85,0.56-4.208,0.648h-0.045
		c-0.112,0-0.224-0.111-0.269-0.269l-0.156-0.895v-0.067c0-0.112,0.066-0.202,0.201-0.246c0.425-0.202,2.642-0.694,4.23-0.694
		c1.545,0,3.671,0.291,4.186,2.171c0.694-1.477,1.903-2.171,4.209-2.171c2.351,0,3.514,0.717,4.253,1.992
		c0.582,1.008,0.716,2.619,0.716,4.164C510.663,337.017,510.663,337.398,510.642,337.801z M500.456,336.167l-3.851,0.807
		c-1.32,0.269-2.484,0.537-2.484,2.171c0,1.858,1.388,2.328,3.066,2.328c1.68,0,3.269-0.515,3.269-3.402V336.167z M508.515,333.861
		c-0.381-1.433-1.209-1.902-3-1.902c-2.73,0-3.312,1.611-3.312,4.656l6.581-0.022C508.761,335.742,508.738,334.69,508.515,333.861z"
		/>
	<path d="M519.498,342.233c0,0.09-0.09,0.202-0.179,0.224c-0.493,0.157-1.455,0.426-2.731,0.426c-2.216,0-3.268-0.963-3.268-3.111
		v-12.312c0-0.18,0.111-0.246,0.269-0.269l1.208-0.313h0.067c0.157,0,0.224,0.156,0.224,0.291v3.671h3.761
		c0.202,0,0.336,0.135,0.336,0.336v0.761c0,0.201-0.134,0.336-0.336,0.336h-3.761v7.678c0,1.231,0.672,1.5,1.836,1.5
		c0.694,0,1.589-0.179,2.06-0.291h0.067c0.111,0,0.201,0.067,0.246,0.201l0.201,0.828V342.233z"/>
	<path d="M527.554,342.233c0,0.09-0.09,0.202-0.179,0.224c-0.493,0.157-1.455,0.426-2.731,0.426c-2.216,0-3.268-0.963-3.268-3.111
		v-12.312c0-0.18,0.111-0.246,0.269-0.269l1.208-0.313h0.067c0.157,0,0.224,0.156,0.224,0.291v3.671h3.761
		c0.202,0,0.336,0.135,0.336,0.336v0.761c0,0.201-0.134,0.336-0.336,0.336h-3.761v7.678c0,1.231,0.672,1.5,1.836,1.5
		c0.694,0,1.589-0.179,2.06-0.291h0.067c0.111,0,0.201,0.067,0.246,0.201l0.201,0.828V342.233z"/>
	<path d="M539.213,337.578c-0.022,0.111-0.179,0.29-0.291,0.29h-8.215c0,1.231,0.224,1.926,0.694,2.508
		c0.648,0.828,1.746,1.074,3.312,1.074c1.388,0,2.238-0.269,3.291-0.56c0.044-0.022,0.089-0.045,0.134-0.045
		c0.09,0,0.18,0.067,0.224,0.201l0.246,0.851v0.09c0,0.112-0.089,0.179-0.224,0.246c-0.896,0.358-2.372,0.649-3.85,0.649
		c-4.388,0-5.686-2.037-5.686-6.156c0-3.782,0.761-6.178,5.192-6.178c2.351,0,3.716,0.717,4.455,1.992
		c0.582,1.008,0.716,2.396,0.716,3.939V337.578z M537.087,333.861c-0.403-1.433-1.276-1.902-3.089-1.902
		c-1.791,0-2.664,0.47-3.045,1.902c-0.224,0.829-0.246,1.702-0.269,2.53l6.671-0.022
		C537.333,335.518,537.288,334.69,537.087,333.861z"/>
	<path d="M547.581,332.116c-1.478,0-2.687,0.111-3.94,0.425v9.715c0,0.201-0.111,0.336-0.313,0.336h-1.119
		c0,0-0.335-0.135-0.335-0.336v-9.334c0-0.985,0.201-1.276,0.962-1.635c0.985-0.447,3-0.738,4.074-0.738h0.56
		c0.112,0,0.313,0.045,0.313,0.336v0.963C547.782,332.003,547.737,332.116,547.581,332.116z"/>
	<path d="M566.177,337.578c-0.022,0.111-0.179,0.29-0.291,0.29h-8.215c0,1.231,0.224,1.926,0.694,2.508
		c0.648,0.828,1.746,1.074,3.312,1.074c1.388,0,2.238-0.269,3.291-0.56c0.044-0.022,0.089-0.045,0.134-0.045
		c0.09,0,0.18,0.067,0.224,0.201l0.247,0.851v0.09c0,0.112-0.09,0.179-0.225,0.246c-0.896,0.358-2.372,0.649-3.85,0.649
		c-4.388,0-5.686-2.037-5.686-6.156c0-3.782,0.761-6.178,5.192-6.178c2.351,0,3.716,0.717,4.455,1.992
		c0.582,1.008,0.716,2.396,0.716,3.939V337.578z M564.051,333.861c-0.403-1.433-1.276-1.902-3.089-1.902
		c-1.791,0-2.664,0.47-3.045,1.902c-0.224,0.829-0.246,1.702-0.269,2.53l6.671-0.022
		C564.297,335.518,564.252,334.69,564.051,333.861z"/>
	<path d="M578.35,342.591h-1.097c-0.201,0-0.336-0.135-0.336-0.336v-8.282c0-1.478-0.56-1.992-2.126-1.992
		c-2.082,0-4.187,0.627-4.187,0.627v9.647c0,0.201-0.111,0.336-0.313,0.336h-1.119c-0.201,0-0.335-0.135-0.335-0.336v-9.289
		c0-0.896,0.044-1.299,1.163-1.68c1.164-0.402,3.403-0.738,4.836-0.738c2.663,0,3.85,0.828,3.85,3.224v8.483
		C578.686,342.457,578.552,342.591,578.35,342.591z"/>
	<path d="M599.899,331.757c0,0.045-0.045,0.067-0.111,0.134c-0.493,0.336-1.053,0.471-1.59,0.471c-0.358,0-0.381-0.022-0.896-0.112
		c0,0,0.963,0.806,0.963,2.396c0,3.179-1.97,4.096-4.925,4.096h-1.656c-1.164,0-1.433,0.582-1.433,1.164
		c0,0.94,0.649,1.187,1.634,1.187h3.38c2.149,0,3.672,0.649,3.672,2.642c0,2.775-2.239,3.693-5.439,3.693
		c-3.716,0-5.418-0.738-5.418-2.999c0-1.746,1.187-2.082,2.284-2.306v-0.247c-1.008-0.224-1.881-0.335-1.881-1.925
		c0-1.365,0.738-1.701,2.462-1.97c-1.052-0.336-2.529-0.627-2.529-3.335c0-3.067,2.015-4.097,4.902-4.097
		c1.388,0,1.947,0.224,2.798,0.47c0.247,0.045,0.516,0.09,0.829,0.09c0.335,0,0.716-0.067,1.029-0.156
		c0.403-0.112,0.851-0.313,1.164-0.471c0.067-0.022,0.134-0.067,0.179-0.067s0.09,0.045,0.112,0.135l0.425,1.119
		C599.877,331.712,599.899,331.735,599.899,331.757z M595.064,342.591h-3.021c-1.142,0-2.194,0.358-2.194,1.701
		c0,1.545,1.612,1.746,3.672,1.746c1.388,0,3.648-0.201,3.648-2.037C597.169,342.704,596.05,342.591,595.064,342.591z
		 M593.341,331.891c-1.947,0-3.156,0.672-3.156,2.754c0,2.06,1.209,2.708,3.156,2.708c1.925,0,3.156-0.648,3.156-2.708
		C596.497,332.563,595.266,331.891,593.341,331.891z"/>
	<path d="M606.768,344.315c-0.649,2.082-1.32,2.978-3.716,2.978c-0.716,0-1.142-0.022-1.566-0.09
		c-0.202-0.045-0.247-0.157-0.247-0.246v-0.985c0-0.111,0.112-0.224,0.247-0.224h0.021c0.225,0,0.851,0.022,1.299,0.022
		c1.142,0,1.791-0.224,2.148-1.478l0.516-1.701h-0.918c-0.201,0-0.381-0.135-0.448-0.358l-3.738-11.035
		c0-0.045-0.021-0.067-0.021-0.09c0-0.134,0.134-0.269,0.269-0.269h1.32c0.224,0,0.291,0.135,0.336,0.291l3.179,10.163h0.582
		l2.865-10.163c0.022-0.156,0.156-0.291,0.357-0.291h1.411c0.134,0,0.269,0.112,0.269,0.269c0,0.022,0,0.045-0.022,0.067
		L606.768,344.315z"/>
	<path d="M630.335,342.591h-1.097c-0.224,0-0.358-0.135-0.358-0.336v-8.282c0-1.478-0.537-1.992-2.104-1.992
		c-2.082,0-4.209,0.627-4.209,0.627v9.647c0,0.224-0.089,0.336-0.313,0.336h-1.097c-0.201,0-0.336-0.135-0.336-0.336v-8.282
		c0-1.478-0.56-1.992-2.126-1.992c-2.082,0-4.187,0.627-4.187,0.627v9.647c0,0.201-0.111,0.336-0.313,0.336h-1.119
		c-0.201,0-0.335-0.135-0.335-0.336v-9.289c0-0.896,0.044-1.299,1.163-1.68c1.164-0.402,3.403-0.738,4.836-0.738
		c1.41,0,2.417,0.269,3.044,0.851c1.254-0.492,3.671-0.851,5.036-0.851c2.664,0,3.851,0.828,3.851,3.224v8.483
		C630.671,342.457,630.536,342.591,630.335,342.591z"/>
	<path d="M643.177,342.591h-1.097c-0.201,0-0.336-0.135-0.336-0.336v-8.282c0-1.478-0.56-1.992-2.126-1.992
		c-2.082,0-4.187,0.627-4.187,0.627v9.647c0,0.201-0.111,0.336-0.313,0.336h-1.119c-0.201,0-0.335-0.135-0.335-0.336v-9.289
		c0-0.896,0.044-1.299,1.163-1.68c1.164-0.402,3.403-0.738,4.836-0.738c2.663,0,3.85,0.828,3.85,3.224v8.483
		C643.513,342.457,643.379,342.591,643.177,342.591z"/>
	<path d="M653.985,342.569c-0.649,0.135-1.724,0.313-2.91,0.313c-1.926,0-5.126-0.067-5.126-3.693c0-3,1.656-3.156,3.872-3.515
		l4.23-0.693v-1.053c0-0.716-0.022-1.298-0.806-1.589c-0.425-0.18-1.052-0.269-2.037-0.269c-1.724,0-3.224,0.425-4.141,0.648
		c-0.045,0-0.09,0.022-0.135,0.022c-0.09,0-0.179-0.044-0.224-0.179l-0.201-1.007v-0.045c0-0.18,0.156-0.246,0.224-0.269
		c0.716-0.269,2.642-0.694,4.679-0.694c1.589,0,2.618,0.224,3.268,0.582c1.142,0.604,1.164,1.656,1.164,2.709v6.424
		C655.843,341.831,655.529,342.188,653.985,342.569z M654.074,336.391l-4.118,0.693c-1.075,0.202-2.172,0.246-2.172,2.015
		c0,2.238,1.836,2.396,3.313,2.396c0.984,0,2.036-0.135,2.977-0.448V336.391z"/>
	<path d="M662.442,342.882c-1.97,0-3.671-0.649-3.962-0.761c-0.09-0.045-0.18-0.09-0.18-0.225v-0.066l0.225-0.873
		c0.022-0.112,0.089-0.202,0.246-0.202h0.111c0.18,0.067,1.769,0.649,3.604,0.649c1.902,0,2.999-0.604,2.999-1.97
		c0-1.857-1.433-1.791-3.179-2.06c-1.097-0.179-3.895-0.38-3.895-3.335c0-2.888,2.574-3.492,4.544-3.492
		c1.926,0,3.402,0.403,3.649,0.47c0.156,0.022,0.224,0.135,0.224,0.247v0.044l-0.157,0.985c-0.022,0.134-0.111,0.179-0.201,0.179
		h-0.045c-0.313-0.022-1.97-0.425-3.29-0.425c-1.612,0-2.955,0.447-2.955,1.857c0,1.522,1.522,1.701,2.91,1.881
		c2.015,0.269,4.186,0.425,4.186,3.47C667.277,342.166,665.039,342.882,662.442,342.882z"/>
	<path d="M671.481,328.825h-1.097c-0.201,0-0.336-0.134-0.336-0.313v-2.417c0-0.202,0.135-0.336,0.336-0.336h1.097
		c0.202,0,0.336,0.134,0.336,0.336v2.417C671.817,328.691,671.684,328.825,671.481,328.825z M671.481,342.591h-1.097
		c-0.201,0-0.336-0.135-0.336-0.336v-11.08c0-0.201,0.135-0.336,0.336-0.336h1.097c0.202,0,0.336,0.135,0.336,0.336v11.08
		C671.817,342.457,671.684,342.591,671.481,342.591z"/>
	<path d="M685.067,337.578c-0.022,0.111-0.179,0.29-0.291,0.29h-8.215c0,1.231,0.224,1.926,0.694,2.508
		c0.648,0.828,1.746,1.074,3.312,1.074c1.388,0,2.238-0.269,3.291-0.56c0.044-0.022,0.089-0.045,0.134-0.045
		c0.09,0,0.18,0.067,0.224,0.201l0.247,0.851v0.09c0,0.112-0.09,0.179-0.225,0.246c-0.896,0.358-2.372,0.649-3.85,0.649
		c-4.388,0-5.686-2.037-5.686-6.156c0-3.782,0.761-6.178,5.192-6.178c2.351,0,3.716,0.717,4.455,1.992
		c0.582,1.008,0.716,2.396,0.716,3.939V337.578z M682.941,333.861c-0.403-1.433-1.276-1.902-3.089-1.902
		c-1.791,0-2.664,0.47-3.045,1.902c-0.224,0.829-0.246,1.702-0.269,2.53l6.671-0.022
		C683.188,335.518,683.143,334.69,682.941,333.861z"/>
	<path d="M692.54,342.882c-3.94,0-4.925-1.679-4.925-4.634v-7.118c0-0.179,0.112-0.246,0.291-0.291l1.209-0.291h0.066
		c0.157,0,0.202,0.156,0.202,0.291v7.589c0,2.104,0.738,3.044,3.156,3.044c2.91,0,3.134-1.433,3.134-3.111v-7.23
		c0-0.179,0.134-0.246,0.291-0.291l1.209-0.291h0.066c0.157,0,0.225,0.156,0.225,0.291v7.364
		C697.465,340.42,697.151,342.882,692.54,342.882z"/>
	<path d="M708.652,342.435c-0.717,0.179-1.656,0.447-3.425,0.447c-4.343,0-5.35-1.97-5.35-6.178c0-4.298,1.186-6.156,5.215-6.156
		c1.545,0,2.664,0.246,3.425,0.447l-0.224-1.298v-3.357c0-0.18,0.112-0.246,0.291-0.269l1.209-0.313h0.067
		c0.156,0,0.201,0.156,0.201,0.291v14.617C710.062,341.495,710.062,342.122,708.652,342.435z M708.294,332.362
		c0,0-1.41-0.403-3.021-0.403c-2.463,0-3.56,0.783-3.56,4.768c0,4.254,1.299,4.746,3.582,4.746c1.656,0,2.999-0.426,2.999-0.426
		V332.362z"/>
	<path d="M721.385,342.435c-0.717,0.179-1.656,0.447-3.425,0.447c-4.343,0-5.35-1.97-5.35-6.178c0-4.298,1.186-6.156,5.215-6.156
		c1.545,0,2.664,0.246,3.425,0.447l-0.224-1.298v-3.357c0-0.18,0.112-0.246,0.291-0.269l1.209-0.313h0.067
		c0.156,0,0.201,0.156,0.201,0.291v14.617C722.795,341.495,722.795,342.122,721.385,342.435z M721.026,332.362
		c0,0-1.41-0.403-3.021-0.403c-2.463,0-3.56,0.783-3.56,4.768c0,4.254,1.299,4.746,3.582,4.746c1.656,0,2.999-0.426,2.999-0.426
		V332.362z"/>
	<path d="M733.379,342.569c-0.649,0.135-1.724,0.313-2.91,0.313c-1.926,0-5.126-0.067-5.126-3.693c0-3,1.656-3.156,3.872-3.515
		l4.23-0.693v-1.053c0-0.716-0.022-1.298-0.806-1.589c-0.425-0.18-1.052-0.269-2.037-0.269c-1.724,0-3.224,0.425-4.141,0.648
		c-0.045,0-0.09,0.022-0.135,0.022c-0.09,0-0.179-0.044-0.224-0.179l-0.201-1.007v-0.045c0-0.18,0.156-0.246,0.224-0.269
		c0.716-0.269,2.642-0.694,4.678-0.694c1.59,0,2.619,0.224,3.269,0.582c1.142,0.604,1.164,1.656,1.164,2.709v6.424
		C735.236,341.831,734.923,342.188,733.379,342.569z M733.468,336.391l-4.118,0.693c-1.075,0.202-2.172,0.246-2.172,2.015
		c0,2.238,1.836,2.396,3.313,2.396c0.984,0,2.036-0.135,2.977-0.448V336.391z"/>
	<path d="M747.768,342.591h-1.097c-0.201,0-0.336-0.135-0.336-0.336v-8.282c0-1.478-0.56-1.992-2.126-1.992
		c-2.082,0-4.187,0.627-4.187,0.627v9.647c0,0.201-0.111,0.336-0.313,0.336h-1.119c-0.201,0-0.335-0.135-0.335-0.336v-9.289
		c0-0.896,0.044-1.299,1.163-1.68c1.164-0.402,3.403-0.738,4.836-0.738c2.663,0,3.85,0.828,3.85,3.224v8.483
		C748.104,342.457,747.97,342.591,747.768,342.591z"/>
	<path d="M760.635,342.591h-1.097c-0.201,0-0.336-0.135-0.336-0.336v-8.282c0-1.478-0.56-1.992-2.126-1.992
		c-2.082,0-4.187,0.627-4.187,0.627v9.647c0,0.201-0.111,0.336-0.313,0.336h-1.119c-0.201,0-0.335-0.135-0.335-0.336v-9.289
		c0-0.896,0.044-1.299,1.163-1.68c1.164-0.402,3.403-0.738,4.836-0.738c2.663,0,3.85,0.828,3.85,3.224v8.483
		C760.971,342.457,760.837,342.591,760.635,342.591z"/>
	<path d="M773.88,337.578c-0.022,0.111-0.179,0.29-0.291,0.29h-8.215c0,1.231,0.224,1.926,0.694,2.508
		c0.648,0.828,1.746,1.074,3.312,1.074c1.388,0,2.238-0.269,3.291-0.56c0.044-0.022,0.089-0.045,0.134-0.045
		c0.09,0,0.18,0.067,0.224,0.201l0.247,0.851v0.09c0,0.112-0.09,0.179-0.225,0.246c-0.896,0.358-2.372,0.649-3.85,0.649
		c-4.388,0-5.686-2.037-5.686-6.156c0-3.782,0.761-6.178,5.192-6.178c2.351,0,3.716,0.717,4.455,1.992
		c0.582,1.008,0.716,2.396,0.716,3.939V337.578z M771.754,333.861c-0.403-1.433-1.276-1.902-3.089-1.902
		c-1.791,0-2.664,0.47-3.045,1.902c-0.224,0.829-0.246,1.702-0.269,2.53l6.671-0.022C772,335.518,771.955,334.69,771.754,333.861z"
		/>
	<path d="M780.547,342.323c0,0.156-0.112,0.201-0.18,0.224c-0.179,0.09-0.783,0.269-1.589,0.269c-1.344,0-2.238-0.649-2.238-2.306
		V326.34c0-0.18,0.111-0.246,0.269-0.269l1.208-0.313h0.067c0.157,0,0.224,0.156,0.224,0.291v14.415c0,0.807,0.56,0.918,1.008,0.918
		c0.313,0,0.672-0.045,0.783-0.089h0.112c0.066,0,0.134,0.021,0.156,0.156l0.157,0.783
		C780.524,342.278,780.547,342.3,780.547,342.323z"/>
	<path d="M786.118,342.882c-1.97,0-3.671-0.649-3.962-0.761c-0.09-0.045-0.18-0.09-0.18-0.225v-0.066l0.225-0.873
		c0.022-0.112,0.089-0.202,0.246-0.202h0.111c0.18,0.067,1.769,0.649,3.604,0.649c1.902,0,2.999-0.604,2.999-1.97
		c0-1.857-1.433-1.791-3.179-2.06c-1.097-0.179-3.895-0.38-3.895-3.335c0-2.888,2.574-3.492,4.544-3.492
		c1.926,0,3.402,0.403,3.649,0.47c0.156,0.022,0.224,0.135,0.224,0.247v0.044l-0.157,0.985c-0.022,0.134-0.111,0.179-0.201,0.179
		h-0.045c-0.313-0.022-1.97-0.425-3.29-0.425c-1.612,0-2.955,0.447-2.955,1.857c0,1.522,1.522,1.701,2.91,1.881
		c2.015,0.269,4.186,0.425,4.186,3.47C790.953,342.166,788.715,342.882,786.118,342.882z"/>
	<path d="M803.28,337.578c-0.022,0.111-0.179,0.29-0.291,0.29h-8.215c0,1.231,0.224,1.926,0.694,2.508
		c0.648,0.828,1.746,1.074,3.312,1.074c1.388,0,2.238-0.269,3.291-0.56c0.044-0.022,0.089-0.045,0.134-0.045
		c0.09,0,0.18,0.067,0.224,0.201l0.247,0.851v0.09c0,0.112-0.09,0.179-0.225,0.246c-0.896,0.358-2.372,0.649-3.85,0.649
		c-4.388,0-5.686-2.037-5.686-6.156c0-3.782,0.761-6.178,5.192-6.178c2.351,0,3.716,0.717,4.455,1.992
		c0.582,1.008,0.716,2.396,0.716,3.939V337.578z M801.154,333.861c-0.403-1.433-1.276-1.902-3.089-1.902
		c-1.791,0-2.664,0.47-3.045,1.902c-0.224,0.829-0.246,1.702-0.269,2.53l6.671-0.022C801.4,335.518,801.355,334.69,801.154,333.861z
		"/>
</g>
<g>
</g>
<g>
</g>
<g>
</g>
<g>
</g>
<g>
</g>
<g>
</g>
</svg>
