<?xml version="1.0" encoding="utf-8"?>
<!-- Generator: Adobe Illustrator 16.0.4, SVG Export Plug-In . SVG Version: 6.00 Build 0)  -->
<!DOCTYPE svg PUBLIC "-//W3C//DTD SVG 1.1//EN" "http://www.w3.org/Graphics/SVG/1.1/DTD/svg11.dtd">
<svg version="1.1" id="Layer_1" xmlns="http://www.w3.org/2000/svg" xmlns:xlink="http://www.w3.org/1999/xlink" x="0px" y="0px"
	 width="913.312px" height="371.289px" viewBox="0 0 913.312 371.289" enable-background="new 0 0 913.312 371.289"
	 xml:space="preserve">
<polygon fill="#E4F3FB" points="292.764,291.365 12.557,292.488 9.818,231.513 291.41,230.89 "/>
<polygon fill="#E4F3FB" points="913.312,300.097 298.107,291.722 298.338,231.482 903.924,241.339 "/>
<g>
	<rect x="325.604" y="254.462" fill="none" width="465.904" height="37.045"/>
	<path d="M344.766,271.291h-1.097c-0.224,0-0.358-0.135-0.358-0.336v-8.282c0-1.478-0.537-1.992-2.104-1.992
		c-2.082,0-4.209,0.627-4.209,0.627v9.647c0,0.224-0.089,0.336-0.313,0.336h-1.097c-0.201,0-0.336-0.135-0.336-0.336v-8.282
		c0-1.478-0.56-1.992-2.126-1.992c-2.082,0-4.187,0.627-4.187,0.627v9.647c0,0.201-0.111,0.336-0.313,0.336h-1.119
		c-0.201,0-0.335-0.135-0.335-0.336v-9.289c0-0.896,0.044-1.299,1.163-1.68c1.164-0.402,3.403-0.738,4.836-0.738
		c1.41,0,2.417,0.269,3.044,0.851c1.254-0.492,3.671-0.851,5.036-0.851c2.664,0,3.851,0.828,3.851,3.224v8.483
		C345.102,271.156,344.967,271.291,344.766,271.291z"/>
	<path d="M357.985,266.277c-0.022,0.111-0.179,0.29-0.291,0.29h-8.215c0,1.231,0.224,1.926,0.694,2.508
		c0.648,0.828,1.746,1.074,3.312,1.074c1.388,0,2.238-0.269,3.291-0.56c0.044-0.022,0.089-0.045,0.134-0.045
		c0.09,0,0.18,0.067,0.224,0.201l0.247,0.851v0.09c0,0.112-0.09,0.179-0.225,0.246c-0.896,0.358-2.372,0.649-3.85,0.649
		c-4.388,0-5.686-2.037-5.686-6.156c0-3.782,0.761-6.178,5.192-6.178c2.351,0,3.716,0.717,4.455,1.992
		c0.582,1.008,0.716,2.396,0.716,3.939V266.277z M355.859,262.56c-0.403-1.433-1.276-1.902-3.089-1.902
		c-1.791,0-2.664,0.47-3.045,1.902c-0.224,0.829-0.246,1.702-0.269,2.53l6.671-0.022
		C356.105,264.217,356.061,263.389,355.859,262.56z"/>
	<path d="M368.838,271.134c-0.717,0.179-1.656,0.447-3.425,0.447c-4.343,0-5.35-1.97-5.35-6.178c0-4.298,1.186-6.156,5.215-6.156
		c1.545,0,2.664,0.246,3.425,0.447l-0.224-1.298v-3.357c0-0.18,0.112-0.246,0.291-0.269l1.209-0.313h0.067
		c0.156,0,0.201,0.156,0.201,0.291v14.617C370.248,270.194,370.248,270.821,368.838,271.134z M368.479,261.061
		c0,0-1.41-0.403-3.021-0.403c-2.463,0-3.56,0.783-3.56,4.768c0,4.254,1.299,4.746,3.582,4.746c1.656,0,2.999-0.426,2.999-0.426
		V261.061z"/>
	<path d="M384.321,271.022c0,0.156-0.112,0.201-0.18,0.224c-0.179,0.09-0.783,0.269-1.589,0.269c-1.344,0-2.238-0.649-2.238-2.306
		V255.04c0-0.18,0.111-0.246,0.269-0.269l1.208-0.313h0.067c0.157,0,0.224,0.156,0.224,0.291v14.415c0,0.807,0.56,0.918,1.008,0.918
		c0.313,0,0.671-0.045,0.783-0.089h0.112c0.066,0,0.134,0.021,0.156,0.156l0.157,0.783C384.299,270.977,384.321,271,384.321,271.022
		z"/>
	<path d="M393.766,271.268c-0.649,0.135-1.724,0.313-2.91,0.313c-1.926,0-5.126-0.067-5.126-3.693c0-3,1.656-3.156,3.872-3.515
		l4.23-0.693v-1.053c0-0.716-0.022-1.298-0.806-1.589c-0.425-0.18-1.052-0.269-2.037-0.269c-1.724,0-3.224,0.425-4.141,0.648
		c-0.045,0-0.09,0.022-0.135,0.022c-0.09,0-0.179-0.044-0.224-0.179l-0.201-1.007v-0.045c0-0.18,0.156-0.246,0.224-0.269
		c0.716-0.269,2.642-0.694,4.678-0.694c1.59,0,2.619,0.224,3.269,0.582c1.142,0.604,1.164,1.656,1.164,2.709v6.424
		C395.623,270.53,395.31,270.887,393.766,271.268z M393.854,265.09l-4.118,0.693c-1.075,0.202-2.172,0.246-2.172,2.015
		c0,2.238,1.836,2.396,3.313,2.396c0.984,0,2.036-0.135,2.977-0.448V265.09z"/>
	<path d="M408.154,271.291h-1.097c-0.201,0-0.336-0.135-0.336-0.336v-8.282c0-1.478-0.56-1.992-2.126-1.992
		c-2.082,0-4.187,0.627-4.187,0.627v9.647c0,0.201-0.111,0.336-0.313,0.336h-1.119c-0.201,0-0.335-0.135-0.335-0.336v-9.289
		c0-0.896,0.044-1.299,1.163-1.68c1.164-0.402,3.403-0.738,4.836-0.738c2.663,0,3.85,0.828,3.85,3.224v8.483
		C408.49,271.156,408.356,271.291,408.154,271.291z"/>
	<path d="M422.768,260.457c0,0.045-0.045,0.067-0.111,0.134c-0.493,0.336-1.053,0.471-1.59,0.471c-0.358,0-0.38-0.022-0.896-0.112
		c0,0,0.963,0.806,0.963,2.396c0,3.179-1.97,4.096-4.925,4.096h-1.656c-1.164,0-1.433,0.582-1.433,1.164
		c0,0.94,0.649,1.187,1.634,1.187h3.38c2.149,0,3.672,0.649,3.672,2.642c0,2.775-2.239,3.693-5.439,3.693
		c-3.716,0-5.418-0.738-5.418-2.999c0-1.746,1.187-2.082,2.284-2.306v-0.247c-1.008-0.224-1.881-0.335-1.881-1.925
		c0-1.365,0.739-1.701,2.462-1.97c-1.052-0.336-2.529-0.627-2.529-3.335c0-3.067,2.015-4.097,4.902-4.097
		c1.388,0,1.947,0.224,2.798,0.47c0.247,0.045,0.516,0.09,0.829,0.09c0.335,0,0.716-0.067,1.029-0.156
		c0.403-0.112,0.851-0.313,1.164-0.471c0.067-0.022,0.134-0.067,0.179-0.067s0.09,0.045,0.112,0.135l0.425,1.119
		C422.745,260.412,422.768,260.434,422.768,260.457z M417.933,271.291h-3.021c-1.142,0-2.194,0.358-2.194,1.701
		c0,1.545,1.612,1.746,3.671,1.746c1.389,0,3.649-0.201,3.649-2.037C420.037,271.403,418.918,271.291,417.933,271.291z
		 M416.209,260.59c-1.947,0-3.156,0.672-3.156,2.754c0,2.06,1.209,2.708,3.156,2.708c1.925,0,3.156-0.648,3.156-2.708
		C419.365,261.262,418.134,260.59,416.209,260.59z"/>
	<path d="M434.135,266.277c-0.022,0.111-0.179,0.29-0.291,0.29h-8.215c0,1.231,0.224,1.926,0.694,2.508
		c0.648,0.828,1.746,1.074,3.312,1.074c1.388,0,2.238-0.269,3.291-0.56c0.044-0.022,0.089-0.045,0.134-0.045
		c0.09,0,0.18,0.067,0.224,0.201l0.246,0.851v0.09c0,0.112-0.089,0.179-0.224,0.246c-0.896,0.358-2.372,0.649-3.85,0.649
		c-4.388,0-5.686-2.037-5.686-6.156c0-3.782,0.761-6.178,5.192-6.178c2.351,0,3.716,0.717,4.455,1.992
		c0.582,1.008,0.716,2.396,0.716,3.939V266.277z M432.009,262.56c-0.403-1.433-1.276-1.902-3.089-1.902
		c-1.791,0-2.664,0.47-3.045,1.902c-0.224,0.829-0.246,1.702-0.269,2.53l6.671-0.022C432.255,264.217,432.21,263.389,432.009,262.56
		z"/>
	<path d="M449.596,270.932c-0.067,0.224-0.246,0.358-0.447,0.358h-2.351c-0.224,0-0.403-0.135-0.471-0.358l-3.716-10.99
		c-0.021-0.045-0.021-0.09-0.021-0.112c0-0.156,0.089-0.291,0.224-0.291h1.343c0.224,0,0.291,0.135,0.336,0.291l3.179,10.163h0.582
		l2.865-10.163c0.045-0.156,0.156-0.291,0.38-0.291h1.389c0.156,0,0.269,0.112,0.269,0.269v0.067L449.596,270.932z"/>
	<path d="M456.934,257.524h-1.097c-0.201,0-0.336-0.134-0.336-0.313v-2.417c0-0.202,0.135-0.336,0.336-0.336h1.097
		c0.202,0,0.336,0.134,0.336,0.336v2.417C457.27,257.39,457.136,257.524,456.934,257.524z M456.934,271.291h-1.097
		c-0.201,0-0.336-0.135-0.336-0.336v-11.08c0-0.201,0.135-0.336,0.336-0.336h1.097c0.202,0,0.336,0.135,0.336,0.336v11.08
		C457.27,271.156,457.136,271.291,456.934,271.291z"/>
	<path d="M468.931,271.134c-0.717,0.179-1.656,0.447-3.425,0.447c-4.343,0-5.35-1.97-5.35-6.178c0-4.298,1.186-6.156,5.215-6.156
		c1.545,0,2.664,0.246,3.425,0.447l-0.224-1.298v-3.357c0-0.18,0.112-0.246,0.291-0.269l1.209-0.313h0.067
		c0.156,0,0.201,0.156,0.201,0.291v14.617C470.341,270.194,470.341,270.821,468.931,271.134z M468.572,261.061
		c0,0-1.41-0.403-3.021-0.403c-2.463,0-3.56,0.783-3.56,4.768c0,4.254,1.299,4.746,3.582,4.746c1.656,0,2.999-0.426,2.999-0.426
		V261.061z"/>
	<path d="M483.252,266.277c-0.022,0.111-0.179,0.29-0.291,0.29h-8.215c0,1.231,0.224,1.926,0.694,2.508
		c0.648,0.828,1.746,1.074,3.312,1.074c1.388,0,2.238-0.269,3.291-0.56c0.044-0.022,0.089-0.045,0.134-0.045
		c0.09,0,0.18,0.067,0.224,0.201l0.246,0.851v0.09c0,0.112-0.089,0.179-0.224,0.246c-0.896,0.358-2.372,0.649-3.85,0.649
		c-4.388,0-5.686-2.037-5.686-6.156c0-3.782,0.761-6.178,5.192-6.178c2.351,0,3.716,0.717,4.455,1.992
		c0.582,1.008,0.716,2.396,0.716,3.939V266.277z M481.126,262.56c-0.403-1.433-1.276-1.902-3.089-1.902
		c-1.791,0-2.664,0.47-3.045,1.902c-0.224,0.829-0.246,1.702-0.269,2.53l6.671-0.022
		C481.372,264.217,481.327,263.389,481.126,262.56z"/>
	<path d="M491.62,260.815c-1.478,0-2.687,0.111-3.94,0.425v9.715c0,0.201-0.111,0.336-0.313,0.336h-1.119
		c0,0-0.335-0.135-0.335-0.336v-9.334c0-0.985,0.201-1.276,0.962-1.635c0.985-0.447,3-0.738,4.074-0.738h0.56
		c0.112,0,0.313,0.045,0.313,0.336v0.963C491.821,260.703,491.776,260.815,491.62,260.815z"/>
	<path d="M503.164,266.277c-0.022,0.111-0.179,0.29-0.291,0.29h-8.215c0,1.231,0.224,1.926,0.694,2.508
		c0.648,0.828,1.746,1.074,3.312,1.074c1.388,0,2.238-0.269,3.291-0.56c0.044-0.022,0.089-0.045,0.134-0.045
		c0.09,0,0.18,0.067,0.224,0.201l0.246,0.851v0.09c0,0.112-0.089,0.179-0.224,0.246c-0.896,0.358-2.372,0.649-3.85,0.649
		c-4.388,0-5.686-2.037-5.686-6.156c0-3.782,0.761-6.178,5.192-6.178c2.351,0,3.716,0.717,4.455,1.992
		c0.582,1.008,0.716,2.396,0.716,3.939V266.277z M501.038,262.56c-0.403-1.433-1.276-1.902-3.089-1.902
		c-1.791,0-2.664,0.47-3.045,1.902c-0.224,0.829-0.246,1.702-0.269,2.53l6.671-0.022
		C501.284,264.217,501.239,263.389,501.038,262.56z"/>
	<path d="M517.083,260.457c0,0.045-0.045,0.067-0.111,0.134c-0.493,0.336-1.053,0.471-1.59,0.471c-0.358,0-0.381-0.022-0.896-0.112
		c0,0,0.963,0.806,0.963,2.396c0,3.179-1.97,4.096-4.925,4.096h-1.656c-1.164,0-1.433,0.582-1.433,1.164
		c0,0.94,0.649,1.187,1.634,1.187h3.38c2.149,0,3.672,0.649,3.672,2.642c0,2.775-2.239,3.693-5.439,3.693
		c-3.716,0-5.418-0.738-5.418-2.999c0-1.746,1.187-2.082,2.284-2.306v-0.247c-1.008-0.224-1.881-0.335-1.881-1.925
		c0-1.365,0.738-1.701,2.462-1.97c-1.052-0.336-2.529-0.627-2.529-3.335c0-3.067,2.015-4.097,4.902-4.097
		c1.388,0,1.947,0.224,2.798,0.47c0.247,0.045,0.516,0.09,0.829,0.09c0.335,0,0.716-0.067,1.029-0.156
		c0.403-0.112,0.851-0.313,1.164-0.471c0.067-0.022,0.134-0.067,0.179-0.067s0.09,0.045,0.112,0.135l0.425,1.119
		C517.061,260.412,517.083,260.434,517.083,260.457z M512.248,271.291h-3.021c-1.142,0-2.194,0.358-2.194,1.701
		c0,1.545,1.612,1.746,3.672,1.746c1.388,0,3.648-0.201,3.648-2.037C514.353,271.403,513.233,271.291,512.248,271.291z
		 M510.524,260.59c-1.947,0-3.156,0.672-3.156,2.754c0,2.06,1.209,2.708,3.156,2.708c1.925,0,3.156-0.648,3.156-2.708
		C513.681,261.262,512.449,260.59,510.524,260.59z"/>
	<path d="M525.899,271.268c-0.649,0.135-1.724,0.313-2.91,0.313c-1.926,0-5.126-0.067-5.126-3.693c0-3,1.656-3.156,3.872-3.515
		l4.23-0.693v-1.053c0-0.716-0.022-1.298-0.806-1.589c-0.425-0.18-1.052-0.269-2.037-0.269c-1.724,0-3.224,0.425-4.141,0.648
		c-0.045,0-0.09,0.022-0.135,0.022c-0.09,0-0.179-0.044-0.224-0.179l-0.201-1.007v-0.045c0-0.18,0.156-0.246,0.224-0.269
		c0.716-0.269,2.642-0.694,4.679-0.694c1.589,0,2.618,0.224,3.268,0.582c1.142,0.604,1.164,1.656,1.164,2.709v6.424
		C527.757,270.53,527.443,270.887,525.899,271.268z M525.988,265.09l-4.118,0.693c-1.075,0.202-2.172,0.246-2.172,2.015
		c0,2.238,1.836,2.396,3.313,2.396c0.984,0,2.036-0.135,2.977-0.448V265.09z M523.347,258.397c-1.701,0-2.641-0.649-2.641-2.418
		c0-1.768,0.939-2.395,2.641-2.395c1.68,0,2.619,0.627,2.619,2.395C525.966,257.748,525.026,258.397,523.347,258.397z
		 M523.347,254.48c-1.029,0-1.275,0.447-1.275,1.521c0,1.053,0.246,1.5,1.275,1.5c1.008,0,1.254-0.47,1.254-1.522
		C524.601,254.927,524.354,254.48,523.347,254.48z"/>
	<path d="M540.557,266.277c-0.022,0.111-0.179,0.29-0.291,0.29h-8.215c0,1.231,0.224,1.926,0.694,2.508
		c0.648,0.828,1.746,1.074,3.312,1.074c1.388,0,2.238-0.269,3.291-0.56c0.044-0.022,0.089-0.045,0.134-0.045
		c0.09,0,0.18,0.067,0.224,0.201l0.246,0.851v0.09c0,0.112-0.089,0.179-0.224,0.246c-0.896,0.358-2.372,0.649-3.85,0.649
		c-4.388,0-5.686-2.037-5.686-6.156c0-3.782,0.761-6.178,5.192-6.178c2.351,0,3.716,0.717,4.455,1.992
		c0.582,1.008,0.716,2.396,0.716,3.939V266.277z M538.431,262.56c-0.403-1.433-1.276-1.902-3.089-1.902
		c-1.791,0-2.664,0.47-3.045,1.902c-0.224,0.829-0.246,1.702-0.269,2.53l6.671-0.022
		C538.677,264.217,538.632,263.389,538.431,262.56z"/>
	<path d="M552.729,271.291h-1.097c-0.201,0-0.336-0.135-0.336-0.336v-8.282c0-1.478-0.56-1.992-2.126-1.992
		c-2.082,0-4.187,0.627-4.187,0.627v9.647c0,0.201-0.111,0.336-0.313,0.336h-1.119c-0.201,0-0.335-0.135-0.335-0.336v-9.289
		c0-0.896,0.044-1.299,1.163-1.68c1.164-0.402,3.403-0.738,4.836-0.738c2.663,0,3.85,0.828,3.85,3.224v8.483
		C553.065,271.156,552.932,271.291,552.729,271.291z"/>
	<path d="M564.386,271.134c-0.717,0.179-1.656,0.447-3.425,0.447c-4.343,0-5.35-1.97-5.35-6.178c0-4.298,1.186-6.156,5.215-6.156
		c1.545,0,2.664,0.246,3.425,0.447l-0.224-1.298v-3.357c0-0.18,0.112-0.246,0.291-0.269l1.209-0.313h0.067
		c0.156,0,0.201,0.156,0.201,0.291v14.617C565.796,270.194,565.796,270.821,564.386,271.134z M564.027,261.061
		c0,0-1.41-0.403-3.021-0.403c-2.463,0-3.56,0.783-3.56,4.768c0,4.254,1.299,4.746,3.582,4.746c1.656,0,2.999-0.426,2.999-0.426
		V261.061z"/>
	<path d="M578.707,266.277c-0.022,0.111-0.179,0.29-0.291,0.29h-8.215c0,1.231,0.224,1.926,0.694,2.508
		c0.648,0.828,1.746,1.074,3.312,1.074c1.388,0,2.238-0.269,3.291-0.56c0.044-0.022,0.089-0.045,0.134-0.045
		c0.09,0,0.18,0.067,0.224,0.201l0.246,0.851v0.09c0,0.112-0.089,0.179-0.224,0.246c-0.896,0.358-2.372,0.649-3.85,0.649
		c-4.388,0-5.686-2.037-5.686-6.156c0-3.782,0.761-6.178,5.192-6.178c2.351,0,3.716,0.717,4.455,1.992
		c0.582,1.008,0.716,2.396,0.716,3.939V266.277z M576.581,262.56c-0.403-1.433-1.276-1.902-3.089-1.902
		c-1.791,0-2.664,0.47-3.045,1.902c-0.224,0.829-0.246,1.702-0.269,2.53l6.671-0.022
		C576.827,264.217,576.782,263.389,576.581,262.56z"/>
	<path d="M593.116,271.582c-3.94,0-4.925-1.679-4.925-4.634v-7.118c0-0.179,0.112-0.246,0.291-0.291l1.209-0.291h0.066
		c0.157,0,0.202,0.156,0.202,0.291v7.589c0,2.104,0.738,3.044,3.156,3.044c2.91,0,3.134-1.433,3.134-3.111v-7.23
		c0-0.179,0.134-0.246,0.291-0.291l1.209-0.291h0.066c0.157,0,0.225,0.156,0.225,0.291v7.364
		C598.041,269.12,597.728,271.582,593.116,271.582z"/>
	<path d="M609.229,271.134c-0.717,0.179-1.656,0.447-3.425,0.447c-4.343,0-5.35-1.97-5.35-6.178c0-4.298,1.186-6.156,5.215-6.156
		c1.545,0,2.664,0.246,3.425,0.447l-0.224-1.298v-3.357c0-0.18,0.112-0.246,0.291-0.269l1.209-0.313h0.067
		c0.156,0,0.201,0.156,0.201,0.291v14.617C610.639,270.194,610.639,270.821,609.229,271.134z M608.87,261.061
		c0,0-1.41-0.403-3.021-0.403c-2.463,0-3.56,0.783-3.56,4.768c0,4.254,1.299,4.746,3.582,4.746c1.656,0,2.999-0.426,2.999-0.426
		V261.061z"/>
	<path d="M621.961,271.134c-0.717,0.179-1.656,0.447-3.425,0.447c-4.343,0-5.35-1.97-5.35-6.178c0-4.298,1.186-6.156,5.215-6.156
		c1.545,0,2.664,0.246,3.425,0.447l-0.224-1.298v-3.357c0-0.18,0.112-0.246,0.291-0.269l1.209-0.313h0.067
		c0.156,0,0.201,0.156,0.201,0.291v14.617C623.371,270.194,623.371,270.821,621.961,271.134z M621.603,261.061
		c0,0-1.41-0.403-3.021-0.403c-2.463,0-3.56,0.783-3.56,4.768c0,4.254,1.299,4.746,3.582,4.746c1.656,0,2.999-0.426,2.999-0.426
		V261.061z"/>
	<path d="M633.955,271.268c-0.649,0.135-1.724,0.313-2.91,0.313c-1.926,0-5.126-0.067-5.126-3.693c0-3,1.656-3.156,3.872-3.515
		l4.23-0.693v-1.053c0-0.716-0.022-1.298-0.806-1.589c-0.425-0.18-1.052-0.269-2.037-0.269c-1.724,0-3.224,0.425-4.141,0.648
		c-0.045,0-0.09,0.022-0.135,0.022c-0.09,0-0.179-0.044-0.224-0.179l-0.201-1.007v-0.045c0-0.18,0.156-0.246,0.224-0.269
		c0.716-0.269,2.642-0.694,4.678-0.694c1.59,0,2.619,0.224,3.269,0.582c1.142,0.604,1.164,1.656,1.164,2.709v6.424
		C635.812,270.53,635.499,270.887,633.955,271.268z M634.044,265.09l-4.118,0.693c-1.075,0.202-2.172,0.246-2.172,2.015
		c0,2.238,1.836,2.396,3.313,2.396c0.984,0,2.036-0.135,2.977-0.448V265.09z"/>
	<path d="M648.344,271.291h-1.097c-0.201,0-0.336-0.135-0.336-0.336v-8.282c0-1.478-0.56-1.992-2.126-1.992
		c-2.082,0-4.187,0.627-4.187,0.627v9.647c0,0.201-0.111,0.336-0.313,0.336h-1.119c-0.201,0-0.335-0.135-0.335-0.336v-9.289
		c0-0.896,0.044-1.299,1.163-1.68c1.164-0.402,3.403-0.738,4.836-0.738c2.663,0,3.85,0.828,3.85,3.224v8.483
		C648.68,271.156,648.546,271.291,648.344,271.291z"/>
	<path d="M661.211,271.291h-1.097c-0.201,0-0.336-0.135-0.336-0.336v-8.282c0-1.478-0.56-1.992-2.126-1.992
		c-2.082,0-4.187,0.627-4.187,0.627v9.647c0,0.201-0.111,0.336-0.313,0.336h-1.119c-0.201,0-0.335-0.135-0.335-0.336v-9.289
		c0-0.896,0.044-1.299,1.163-1.68c1.164-0.402,3.403-0.738,4.836-0.738c2.663,0,3.85,0.828,3.85,3.224v8.483
		C661.547,271.156,661.413,271.291,661.211,271.291z"/>
	<path d="M674.456,266.277c-0.022,0.111-0.179,0.29-0.291,0.29h-8.215c0,1.231,0.224,1.926,0.694,2.508
		c0.648,0.828,1.746,1.074,3.312,1.074c1.388,0,2.238-0.269,3.291-0.56c0.044-0.022,0.089-0.045,0.134-0.045
		c0.09,0,0.18,0.067,0.224,0.201l0.247,0.851v0.09c0,0.112-0.09,0.179-0.225,0.246c-0.896,0.358-2.372,0.649-3.85,0.649
		c-4.388,0-5.686-2.037-5.686-6.156c0-3.782,0.761-6.178,5.192-6.178c2.351,0,3.716,0.717,4.455,1.992
		c0.582,1.008,0.716,2.396,0.716,3.939V266.277z M672.33,262.56c-0.403-1.433-1.276-1.902-3.089-1.902
		c-1.791,0-2.664,0.47-3.045,1.902c-0.224,0.829-0.246,1.702-0.269,2.53l6.671-0.022C672.576,264.217,672.531,263.389,672.33,262.56
		z"/>
	<path d="M681.123,271.022c0,0.156-0.112,0.201-0.18,0.224c-0.179,0.09-0.783,0.269-1.589,0.269c-1.344,0-2.238-0.649-2.238-2.306
		V255.04c0-0.18,0.111-0.246,0.269-0.269l1.208-0.313h0.067c0.157,0,0.224,0.156,0.224,0.291v14.415c0,0.807,0.56,0.918,1.008,0.918
		c0.313,0,0.672-0.045,0.783-0.089h0.112c0.066,0,0.134,0.021,0.156,0.156l0.157,0.783C681.101,270.977,681.123,271,681.123,271.022
		z"/>
	<path d="M686.694,271.582c-1.97,0-3.671-0.649-3.962-0.761c-0.09-0.045-0.18-0.09-0.18-0.225v-0.066l0.225-0.873
		c0.022-0.112,0.089-0.202,0.246-0.202h0.111c0.18,0.067,1.769,0.649,3.604,0.649c1.902,0,2.999-0.604,2.999-1.97
		c0-1.857-1.433-1.791-3.179-2.06c-1.097-0.179-3.895-0.38-3.895-3.335c0-2.888,2.574-3.492,4.544-3.492
		c1.926,0,3.402,0.403,3.649,0.47c0.156,0.022,0.224,0.135,0.224,0.247v0.044l-0.157,0.985c-0.022,0.134-0.111,0.179-0.201,0.179
		h-0.045c-0.313-0.022-1.97-0.425-3.29-0.425c-1.612,0-2.955,0.447-2.955,1.857c0,1.522,1.522,1.701,2.91,1.881
		c2.015,0.269,4.186,0.425,4.186,3.47C691.529,270.865,689.291,271.582,686.694,271.582z"/>
	<path d="M703.856,266.277c-0.022,0.111-0.179,0.29-0.291,0.29h-8.215c0,1.231,0.224,1.926,0.694,2.508
		c0.648,0.828,1.746,1.074,3.312,1.074c1.388,0,2.238-0.269,3.291-0.56c0.044-0.022,0.089-0.045,0.134-0.045
		c0.09,0,0.18,0.067,0.224,0.201l0.247,0.851v0.09c0,0.112-0.09,0.179-0.225,0.246c-0.896,0.358-2.372,0.649-3.85,0.649
		c-4.388,0-5.686-2.037-5.686-6.156c0-3.782,0.761-6.178,5.192-6.178c2.351,0,3.716,0.717,4.455,1.992
		c0.582,1.008,0.716,2.396,0.716,3.939V266.277z M701.73,262.56c-0.403-1.433-1.276-1.902-3.089-1.902
		c-1.791,0-2.664,0.47-3.045,1.902c-0.224,0.829-0.246,1.702-0.269,2.53l6.671-0.022C701.977,264.217,701.932,263.389,701.73,262.56
		z"/>
	<path d="M712.225,260.815c-1.478,0-2.687,0.111-3.94,0.425v9.715c0,0.201-0.111,0.336-0.313,0.336h-1.119
		c0,0-0.335-0.135-0.335-0.336v-9.334c0-0.985,0.201-1.276,0.962-1.635c0.985-0.447,3-0.738,4.074-0.738h0.56
		c0.112,0,0.313,0.045,0.313,0.336v0.963C712.426,260.703,712.381,260.815,712.225,260.815z"/>
</g>
<g>
	<g>
		<path d="M117.592,276.068c0,0.316-0.246,0.562-0.562,0.562H99.881c-0.316,0-0.562-0.246-0.562-0.562v-2.038
			c0-1.651,0.457-2.354,1.722-3.268c1.229-0.914,4.463-3.339,4.463-3.339c2.776-2.108,7.907-5.096,7.907-9.102
			c0-4.357-2.706-5.411-6.432-5.411c-3.795,0-6.255,0.843-7.449,1.159h-0.141c-0.211,0-0.422-0.105-0.492-0.422l-0.387-1.581v-0.105
			c0-0.246,0.246-0.387,0.422-0.457c0.527-0.211,3.654-1.3,8.328-1.3c5.271,0,9.277,1.968,9.277,8.258
			c0,4.568-4.146,7.45-7.977,10.191l-6.256,4.533v0.702h14.725c0.316,0,0.562,0.246,0.562,0.562V276.068z"/>
		<path d="M130.526,277.087c-4.287,0-7.345-0.879-8.504-1.336c-0.281-0.105-0.422-0.246-0.422-0.456c0-0.07,0-0.141,0.035-0.176
			l0.492-1.688c0.07-0.141,0.211-0.245,0.387-0.245c0.105,0,0.175,0.035,0.28,0.035c2.46,0.843,5.271,1.194,7.556,1.194
			c3.128,0,6.255-1.3,6.255-4.744c0-4.709-3.76-4.639-8.645-5.131c-0.281,0-0.562-0.141-0.562-0.456v-1.652
			c0-0.316,0.246-0.422,0.562-0.422c5.096-0.386,8.188-1.019,8.188-4.708c0-3.444-2.601-4.393-6.15-4.393
			c-3.197,0-5.833,0.737-7.695,1.3c-0.105,0.035-0.176,0.035-0.246,0.035c-0.211,0-0.352-0.07-0.422-0.281l-0.422-1.581
			c-0.035-0.105-0.035-0.211-0.035-0.281c0-0.211,0.105-0.352,0.352-0.457c1.44-0.598,4.709-1.44,8.926-1.44
			c5.693,0,8.75,2.46,8.75,6.747c0,4.99-4.111,5.587-5.096,5.833v0.879c0.387,0.176,5.553,0.246,5.553,6.185
			C139.663,275.331,135.06,277.087,130.526,277.087z"/>
		<path d="M148.908,276.63h-3.058c-0.316,0-0.527-0.211-0.527-0.527v-2.249c0-0.316,0.211-0.527,0.527-0.527h3.058
			c0.316,0,0.527,0.211,0.527,0.527v2.249C149.436,276.419,149.225,276.63,148.908,276.63z"/>
		<path d="M165.988,277.087c-9.769,0-10.894-6.642-10.894-13.424s1.125-13.459,10.894-13.459c9.734,0,10.894,6.677,10.894,13.459
			S175.723,277.087,165.988,277.087z M165.953,252.805c-6.747,0-7.66,4.076-7.66,10.823c0,6.782,0.913,10.858,7.66,10.858
			c6.782,0,7.731-4.076,7.731-10.858S172.735,252.805,165.953,252.805z"/>
		<path d="M192.133,277.087c-9.769,0-10.894-6.642-10.894-13.424s1.125-13.459,10.894-13.459c9.734,0,10.894,6.677,10.894,13.459
			S201.867,277.087,192.133,277.087z M192.098,252.805c-6.747,0-7.66,4.076-7.66,10.823c0,6.782,0.913,10.858,7.66,10.858
			c6.782,0,7.731-4.076,7.731-10.858S198.88,252.805,192.098,252.805z"/>
		<path d="M218.277,277.087c-9.769,0-10.894-6.642-10.894-13.424s1.125-13.459,10.894-13.459c9.734,0,10.894,6.677,10.894,13.459
			S228.012,277.087,218.277,277.087z M218.242,252.805c-6.747,0-7.66,4.076-7.66,10.823c0,6.782,0.913,10.858,7.66,10.858
			c6.782,0,7.731-4.076,7.731-10.858S225.024,252.805,218.242,252.805z"/>
	</g>
</g>
<g>
</g>
<g>
</g>
<g>
</g>
<g>
</g>
<g>
</g>
<g>
</g>
</svg>
