<?xml version="1.0" encoding="utf-8"?>
<!-- Generator: Adobe Illustrator 16.0.4, SVG Export Plug-In . SVG Version: 6.00 Build 0)  -->
<!DOCTYPE svg PUBLIC "-//W3C//DTD SVG 1.1//EN" "http://www.w3.org/Graphics/SVG/1.1/DTD/svg11.dtd">
<svg version="1.1" id="Layer_1" xmlns="http://www.w3.org/2000/svg" xmlns:xlink="http://www.w3.org/1999/xlink" x="0px" y="0px"
	 width="913.312px" height="371.289px" viewBox="0 0 913.312 371.289" enable-background="new 0 0 913.312 371.289"
	 xml:space="preserve">
<polygon fill="#E4F3FB" points="904.156,94.166 21.156,91.666 14.471,0 907.469,9.5 "/>
<g>
	<g>
		<path d="M106.418,42.026h-7.073c-0.239,0-0.427-0.186-0.427-0.426V22.797c0-0.239,0.188-0.425,0.427-0.425h7.073
			c5.745,0,9.069,1.25,9.069,9.814C115.487,40.776,112.163,42.026,106.418,42.026z M106.099,24.313h-4.92v15.745h4.92
			c4.761,0,7.074-0.824,7.074-7.925C113.174,25.031,110.859,24.313,106.099,24.313z"/>
		<path d="M130.436,36.068c-0.026,0.133-0.213,0.346-0.347,0.346h-9.761c0,1.463,0.267,2.287,0.824,2.979
			c0.771,0.984,2.074,1.276,3.937,1.276c1.648,0,2.659-0.319,3.909-0.665c0.055-0.026,0.106-0.053,0.16-0.053
			c0.106,0,0.212,0.08,0.266,0.24l0.294,1.01v0.106c0,0.133-0.106,0.213-0.268,0.292c-1.062,0.426-2.819,0.771-4.574,0.771
			c-5.213,0-6.756-2.42-6.756-7.314c0-4.495,0.904-7.34,6.171-7.34c2.792,0,4.415,0.851,5.292,2.367
			c0.691,1.197,0.853,2.846,0.853,4.681V36.068L130.436,36.068z M127.909,31.653c-0.479-1.702-1.517-2.261-3.671-2.261
			c-2.128,0-3.165,0.559-3.617,2.261c-0.266,0.984-0.292,2.021-0.317,3.005l7.925-0.026
			C128.201,33.622,128.148,32.638,127.909,31.653z"/>
		<path d="M140.941,41.6c0,0.106-0.106,0.24-0.213,0.266c-0.585,0.186-1.729,0.505-3.244,0.505c-2.634,0-3.884-1.144-3.884-3.697
			V24.047c0-0.213,0.134-0.292,0.318-0.319l1.438-0.373h0.08c0.186,0,0.266,0.186,0.266,0.346v4.362h4.468
			c0.239,0,0.399,0.16,0.399,0.399v0.904c0,0.239-0.16,0.399-0.399,0.399h-4.468v9.123c0,1.462,0.798,1.782,2.181,1.782
			c0.824,0,1.89-0.213,2.447-0.346h0.079c0.134,0,0.24,0.08,0.293,0.239l0.239,0.984V41.6z"/>
		<path d="M155.676,42.372c-2.341,0-4.361-0.771-4.708-0.904c-0.105-0.053-0.212-0.106-0.212-0.266v-0.08l0.267-1.037
			c0.025-0.133,0.105-0.239,0.292-0.239h0.134c0.213,0.08,2.101,0.771,4.281,0.771c2.261,0,3.563-0.718,3.563-2.34
			c0-2.208-1.702-2.128-3.775-2.447c-1.305-0.213-4.628-0.452-4.628-3.963c0-3.431,3.059-4.149,5.397-4.149
			c2.287,0,4.043,0.479,4.335,0.559c0.188,0.026,0.268,0.159,0.268,0.292v0.053l-0.188,1.17c-0.026,0.16-0.133,0.213-0.239,0.213
			h-0.053c-0.373-0.026-2.341-0.505-3.91-0.505c-1.915,0-3.511,0.532-3.511,2.208c0,1.809,1.809,2.021,3.458,2.234
			c2.394,0.319,4.974,0.505,4.974,4.122C161.421,41.521,158.761,42.372,155.676,42.372z"/>
		<path d="M176.072,36.068c-0.026,0.133-0.213,0.346-0.346,0.346h-9.762c0,1.463,0.267,2.287,0.824,2.979
			c0.771,0.984,2.074,1.276,3.938,1.276c1.647,0,2.659-0.319,3.909-0.665c0.054-0.026,0.105-0.053,0.159-0.053
			c0.106,0,0.212,0.08,0.267,0.24l0.293,1.01v0.106c0,0.133-0.106,0.213-0.268,0.292c-1.062,0.426-2.818,0.771-4.573,0.771
			c-5.214,0-6.757-2.42-6.757-7.314c0-4.495,0.904-7.34,6.172-7.34c2.792,0,4.415,0.851,5.292,2.367
			c0.69,1.197,0.852,2.846,0.852,4.681V36.068L176.072,36.068z M173.546,31.653c-0.479-1.702-1.517-2.261-3.671-2.261
			c-2.128,0-3.165,0.559-3.617,2.261c-0.266,0.984-0.292,2.021-0.317,3.005l7.925-0.026
			C173.838,33.622,173.785,32.638,173.546,31.653z"/>
		<path d="M186.02,29.579c-1.755,0-3.191,0.133-4.682,0.505v11.542c0,0.239-0.133,0.399-0.372,0.399h-1.329
			c0,0-0.399-0.16-0.399-0.399v-11.09c0-1.17,0.24-1.516,1.144-1.942c1.172-0.532,3.564-0.877,4.842-0.877h0.665
			c0.133,0,0.371,0.053,0.371,0.399v1.144C186.259,29.446,186.206,29.579,186.02,29.579z"/>
		<path d="M202.218,42.372c-4.681,0-5.852-1.995-5.852-5.505v-8.458c0-0.213,0.133-0.292,0.346-0.346l1.438-0.346h0.08
			c0.186,0,0.238,0.186,0.238,0.346v9.016c0,2.5,0.878,3.617,3.75,3.617c3.457,0,3.725-1.702,3.725-3.697v-8.59
			c0-0.213,0.159-0.292,0.346-0.346l1.437-0.346h0.08c0.187,0,0.266,0.186,0.266,0.346v8.75
			C208.068,39.446,207.696,42.372,202.218,42.372z"/>
		<path d="M221.367,41.84c-0.851,0.212-1.968,0.532-4.069,0.532c-5.158,0-6.355-2.34-6.355-7.34c0-5.106,1.41-7.314,6.197-7.314
			c1.835,0,3.165,0.292,4.068,0.532l-0.267-1.542v-3.989c0-0.213,0.134-0.292,0.346-0.319l1.438-0.372h0.08
			c0.186,0,0.238,0.186,0.238,0.346v17.367C223.043,40.723,223.043,41.467,221.367,41.84z M220.941,29.872
			c0,0-1.675-0.479-3.59-0.479c-2.927,0-4.229,0.931-4.229,5.665c0,5.053,1.542,5.639,4.255,5.639c1.969,0,3.563-0.505,3.563-0.505
			L220.941,29.872L220.941,29.872z"/>
		<path d="M242.353,41.6c0,0.106-0.106,0.24-0.213,0.266c-0.585,0.186-1.729,0.505-3.244,0.505c-2.634,0-3.884-1.144-3.884-3.697
			V24.047c0-0.213,0.134-0.292,0.318-0.319l1.438-0.373h0.08c0.186,0,0.266,0.186,0.266,0.346v4.362h4.468
			c0.239,0,0.399,0.16,0.399,0.399v0.904c0,0.239-0.16,0.399-0.399,0.399h-4.468v9.123c0,1.462,0.798,1.782,2.181,1.782
			c0.824,0,1.89-0.213,2.447-0.346h0.079c0.134,0,0.24,0.08,0.293,0.239l0.239,0.984V41.6z"/>
		<path d="M246.688,25.669h-1.305c-0.238,0-0.397-0.16-0.397-0.373v-2.872c0-0.24,0.159-0.399,0.397-0.399h1.305
			c0.239,0,0.397,0.159,0.397,0.399v2.872C247.086,25.51,246.927,25.669,246.688,25.669z M246.688,42.026h-1.305
			c-0.238,0-0.397-0.16-0.397-0.399V28.462c0-0.239,0.159-0.399,0.397-0.399h1.305c0.239,0,0.397,0.16,0.397,0.399v13.165
			C247.086,41.866,246.927,42.026,246.688,42.026z"/>
		<path d="M255.969,41.707c0,0.187-0.134,0.24-0.214,0.266c-0.212,0.106-0.931,0.319-1.888,0.319c-1.596,0-2.66-0.771-2.66-2.74
			V22.717c0-0.213,0.134-0.292,0.319-0.319l1.437-0.372h0.08c0.187,0,0.267,0.186,0.267,0.346v17.127
			c0,0.958,0.665,1.091,1.195,1.091c0.373,0,0.799-0.053,0.933-0.106h0.133c0.08,0,0.159,0.026,0.186,0.186l0.188,0.931
			C255.942,41.653,255.969,41.68,255.969,41.707z"/>
		<path d="M261.395,44.712c-0.054,0.266-0.079,0.346-0.398,0.346h-1.25c-0.16,0-0.346-0.027-0.346-0.267v-0.053l0.346-5.08
			c0.026-0.266,0.08-0.346,0.398-0.346h1.809c0.16,0,0.346,0.027,0.346,0.239v0.08L261.395,44.712z"/>
		<path d="M284.188,42c-0.771,0.159-2.048,0.372-3.457,0.372c-2.287,0-6.091-0.08-6.091-4.388c0-3.564,1.969-3.75,4.602-4.176
			l5.026-0.824v-1.25c0-0.851-0.026-1.543-0.957-1.889c-0.506-0.212-1.25-0.319-2.421-0.319c-2.049,0-3.829,0.505-4.92,0.771
			c-0.054,0-0.106,0.027-0.159,0.027c-0.106,0-0.213-0.053-0.268-0.213l-0.238-1.197v-0.053c0-0.213,0.187-0.292,0.267-0.319
			c0.851-0.319,3.138-0.824,5.559-0.824c1.889,0,3.111,0.266,3.884,0.691c1.355,0.718,1.383,1.968,1.383,3.218v7.633
			C286.396,41.122,286.023,41.547,284.188,42z M284.294,34.659l-4.894,0.825c-1.276,0.239-2.579,0.292-2.579,2.394
			c0,2.66,2.181,2.846,3.936,2.846c1.172,0,2.422-0.16,3.537-0.532V34.659L284.294,34.659z"/>
		<path d="M297.327,41.6c0,0.106-0.105,0.24-0.213,0.266c-0.585,0.186-1.729,0.505-3.244,0.505c-2.634,0-3.884-1.144-3.884-3.697
			V24.047c0-0.213,0.134-0.292,0.319-0.319l1.437-0.373h0.08c0.186,0,0.266,0.186,0.266,0.346v4.362h4.469
			c0.238,0,0.398,0.16,0.398,0.399v0.904c0,0.239-0.16,0.399-0.398,0.399h-4.469v9.123c0,1.462,0.799,1.782,2.182,1.782
			c0.823,0,1.889-0.213,2.446-0.346h0.079c0.135,0,0.24,0.08,0.293,0.239l0.239,0.984V41.6z"/>
		<path d="M314.774,41.6c-0.08,0.266-0.293,0.426-0.532,0.426h-2.792c-0.267,0-0.479-0.16-0.559-0.426l-4.415-13.059
			c-0.027-0.053-0.027-0.106-0.027-0.133c0-0.186,0.106-0.346,0.268-0.346h1.596c0.266,0,0.346,0.16,0.398,0.346l3.776,12.075h0.691
			l3.403-12.075c0.054-0.186,0.187-0.346,0.452-0.346h1.648c0.187,0,0.319,0.133,0.319,0.319v0.08L314.774,41.6z"/>
		<path d="M323.498,25.669h-1.304c-0.239,0-0.397-0.16-0.397-0.373v-2.872c0-0.24,0.158-0.399,0.397-0.399h1.304
			c0.239,0,0.398,0.159,0.398,0.399v2.872C323.896,25.51,323.737,25.669,323.498,25.669z M323.498,42.026h-1.304
			c-0.239,0-0.397-0.16-0.397-0.399V28.462c0-0.239,0.158-0.399,0.397-0.399h1.304c0.239,0,0.398,0.16,0.398,0.399v13.165
			C323.896,41.866,323.737,42.026,323.498,42.026z"/>
		<path d="M338.365,25.669h-1.304c-0.239,0-0.398-0.16-0.398-0.373v-2.872c0-0.24,0.159-0.399,0.398-0.399h1.304
			c0.239,0,0.398,0.159,0.398,0.399v2.872C338.764,25.51,338.604,25.669,338.365,25.669z M338.365,42.026h-1.304
			c-0.239,0-0.398-0.16-0.398-0.399V28.462c0-0.239,0.159-0.399,0.398-0.399h1.304c0.239,0,0.398,0.16,0.398,0.399v13.165
			C338.764,41.866,338.604,42.026,338.365,42.026z"/>
		<path d="M365.175,41.6c0,0.24-0.187,0.426-0.427,0.426H351.77c-0.239,0-0.426-0.186-0.426-0.426v-1.542
			c0-1.25,0.346-1.782,1.304-2.473c0.931-0.691,3.378-2.527,3.378-2.527c2.102-1.596,5.983-3.856,5.983-6.888
			c0-3.298-2.048-4.096-4.867-4.096c-2.872,0-4.733,0.638-5.638,0.877h-0.106c-0.16,0-0.319-0.08-0.373-0.319l-0.292-1.197v-0.08
			c0-0.186,0.188-0.292,0.319-0.346c0.397-0.16,2.766-0.984,6.303-0.984c3.989,0,7.021,1.489,7.021,6.25
			c0,3.458-3.14,5.638-6.037,7.713l-4.734,3.431v0.532h11.144c0.24,0,0.427,0.187,0.427,0.426L365.175,41.6L365.175,41.6z"/>
		<path d="M376.951,42.372c-7.395,0-8.245-5.026-8.245-10.16c0-5.133,0.852-10.186,8.245-10.186c7.366,0,8.244,5.053,8.244,10.186
			S384.317,42.372,376.951,42.372z M376.925,23.994c-5.106,0-5.798,3.085-5.798,8.192c0,5.133,0.69,8.218,5.798,8.218
			c5.134,0,5.852-3.085,5.852-8.218C382.775,27.052,382.058,23.994,376.925,23.994z"/>
		<path d="M402.536,41.6c0,0.24-0.186,0.426-0.426,0.426h-12.979c-0.239,0-0.427-0.186-0.427-0.426v-1.542
			c0-1.25,0.347-1.782,1.305-2.473c0.931-0.691,3.378-2.527,3.378-2.527c2.101-1.596,5.982-3.856,5.982-6.888
			c0-3.298-2.048-4.096-4.866-4.096c-2.872,0-4.733,0.638-5.639,0.877h-0.105c-0.16,0-0.319-0.08-0.373-0.319l-0.292-1.197v-0.08
			c0-0.186,0.187-0.292,0.318-0.346c0.398-0.16,2.767-0.984,6.304-0.984c3.988,0,7.021,1.489,7.021,6.25
			c0,3.458-3.139,5.638-6.037,7.713l-4.733,3.431v0.532h11.144c0.24,0,0.426,0.187,0.426,0.426V41.6L402.536,41.6z"/>
		<path d="M414.313,42.372c-7.395,0-8.245-5.026-8.245-10.16c0-5.133,0.852-10.186,8.245-10.186c7.366,0,8.244,5.053,8.244,10.186
			C422.558,37.345,421.68,42.372,414.313,42.372z M414.286,23.994c-5.105,0-5.798,3.085-5.798,8.192
			c0,5.133,0.691,8.218,5.798,8.218c5.135,0,5.853-3.085,5.853-8.218C420.138,27.052,419.421,23.994,414.286,23.994z"/>
		<path d="M455.007,42.026h-1.305c-0.266,0-0.426-0.16-0.426-0.399v-9.84c0-1.755-0.638-2.367-2.5-2.367c-2.473,0-5,0.745-5,0.745
			v11.463c0,0.266-0.105,0.399-0.372,0.399h-1.303c-0.24,0-0.399-0.16-0.399-0.399v-9.84c0-1.755-0.665-2.367-2.525-2.367
			c-2.475,0-4.975,0.745-4.975,0.745v11.463c0,0.239-0.133,0.399-0.372,0.399h-1.329c-0.239,0-0.399-0.16-0.399-0.399v-11.04
			c0-1.063,0.054-1.542,1.384-1.995c1.383-0.479,4.042-0.877,5.744-0.877c1.676,0,2.873,0.319,3.617,1.011
			c1.489-0.585,4.362-1.011,5.983-1.011c3.165,0,4.574,0.984,4.574,3.83v10.08C455.404,41.866,455.245,42.026,455.007,42.026z"/>
		<path d="M467.825,42c-0.771,0.159-2.048,0.372-3.457,0.372c-2.287,0-6.091-0.08-6.091-4.388c0-3.564,1.969-3.75,4.603-4.176
			l5.025-0.824v-1.25c0-0.851-0.025-1.543-0.957-1.889c-0.506-0.212-1.25-0.319-2.421-0.319c-2.048,0-3.829,0.505-4.92,0.771
			c-0.053,0-0.105,0.027-0.159,0.027c-0.105,0-0.213-0.053-0.267-0.213l-0.239-1.197v-0.053c0-0.213,0.188-0.292,0.268-0.319
			c0.851-0.319,3.138-0.824,5.558-0.824c1.889,0,3.112,0.266,3.884,0.691c1.356,0.718,1.383,1.968,1.383,3.218v7.633
			C470.033,41.122,469.661,41.547,467.825,42z M467.932,34.659l-4.895,0.825c-1.275,0.239-2.578,0.292-2.578,2.394
			c0,2.66,2.181,2.846,3.936,2.846c1.171,0,2.421-0.16,3.537-0.532V34.659L467.932,34.659z"/>
		<path d="M484.928,42.026h-1.303c-0.24,0-0.399-0.16-0.399-0.399v-9.84c0-1.755-0.665-2.367-2.526-2.367
			c-2.474,0-4.974,0.745-4.974,0.745v11.463c0,0.239-0.133,0.399-0.372,0.399h-1.33c-0.239,0-0.398-0.16-0.398-0.399V30.589
			c0-1.063,0.054-1.542,1.384-1.995c1.383-0.479,4.042-0.877,5.744-0.877c3.165,0,4.574,0.984,4.574,3.83v10.08
			C485.327,41.866,485.167,42.026,484.928,42.026z"/>
		<path d="M502.296,29.153c0,0.053-0.054,0.08-0.134,0.16c-0.585,0.399-1.25,0.559-1.889,0.559c-0.425,0-0.452-0.027-1.062-0.133
			c0,0,1.144,0.958,1.144,2.846c0,3.776-2.34,4.867-5.851,4.867h-1.97c-1.383,0-1.701,0.692-1.701,1.383
			c0,1.117,0.771,1.41,1.94,1.41h4.017c2.554,0,4.361,0.771,4.361,3.138c0,3.298-2.659,4.389-6.463,4.389
			c-4.415,0-6.436-0.878-6.436-3.564c0-2.074,1.408-2.473,2.712-2.739v-0.292c-1.196-0.266-2.233-0.399-2.233-2.287
			c0-1.623,0.877-2.021,2.926-2.341c-1.25-0.399-3.006-0.745-3.006-3.962c0-3.644,2.395-4.867,5.824-4.867
			c1.648,0,2.313,0.266,3.325,0.559c0.292,0.053,0.61,0.106,0.982,0.106c0.399,0,0.853-0.08,1.225-0.187
			c0.479-0.133,1.011-0.372,1.383-0.559c0.08-0.026,0.16-0.08,0.213-0.08c0.054,0,0.106,0.053,0.133,0.16l0.506,1.33
			C502.269,29.1,502.296,29.127,502.296,29.153z M496.552,42.026h-3.591c-1.356,0-2.606,0.426-2.606,2.021
			c0,1.835,1.915,2.074,4.362,2.074c1.647,0,4.335-0.239,4.335-2.42C499.052,42.159,497.721,42.026,496.552,42.026z M494.504,29.313
			c-2.314,0-3.75,0.798-3.75,3.271c0,2.447,1.436,3.218,3.75,3.218c2.286,0,3.75-0.771,3.75-3.218
			C498.254,30.111,496.79,29.313,494.504,29.313z"/>
		<path d="M508.809,41.707c0,0.187-0.133,0.24-0.213,0.266c-0.212,0.106-0.932,0.319-1.889,0.319c-1.596,0-2.659-0.771-2.659-2.74
			V22.717c0-0.213,0.134-0.292,0.318-0.319l1.438-0.372h0.08c0.186,0,0.266,0.186,0.266,0.346v17.127
			c0,0.958,0.665,1.091,1.196,1.091c0.373,0,0.798-0.053,0.932-0.106h0.133c0.08,0,0.159,0.026,0.187,0.186l0.187,0.931
			C508.782,41.653,508.809,41.68,508.809,41.707z"/>
		<path d="M522.8,36.068c-0.026,0.133-0.213,0.346-0.347,0.346h-9.761c0,1.463,0.266,2.287,0.824,2.979
			c0.771,0.984,2.074,1.276,3.937,1.276c1.648,0,2.659-0.319,3.909-0.665c0.055-0.026,0.106-0.053,0.16-0.053
			c0.106,0,0.212,0.08,0.266,0.24l0.293,1.01v0.106c0,0.133-0.105,0.213-0.267,0.292c-1.063,0.426-2.819,0.771-4.574,0.771
			c-5.213,0-6.756-2.42-6.756-7.314c0-4.495,0.904-7.34,6.171-7.34c2.792,0,4.415,0.851,5.292,2.367
			c0.691,1.197,0.853,2.846,0.853,4.681V36.068L522.8,36.068z M520.272,31.653c-0.479-1.702-1.517-2.261-3.671-2.261
			c-2.128,0-3.165,0.559-3.617,2.261c-0.266,0.984-0.292,2.021-0.318,3.005l7.926-0.026
			C520.564,33.622,520.512,32.638,520.272,31.653z"/>
		<path d="M532.746,29.579c-1.755,0-3.19,0.133-4.681,0.505v11.542c0,0.239-0.133,0.399-0.372,0.399h-1.33
			c0,0-0.398-0.16-0.398-0.399v-11.09c0-1.17,0.239-1.516,1.144-1.942c1.171-0.532,3.564-0.877,4.841-0.877h0.665
			c0.133,0,0.372,0.053,0.372,0.399v1.144C532.985,29.446,532.933,29.579,532.746,29.579z"/>
		<path d="M102.828,73.301c0,0.239-0.213,0.426-0.426,0.426h-1.41c-0.239,0-0.425-0.187-0.425-0.426V56.36l-3.086-0.213
			c-0.239-0.026-0.425-0.133-0.425-0.346v-0.984c0-0.239,0.186-0.318,0.425-0.346l5.054-0.744h0.026
			c0.105,0,0.267,0.159,0.267,0.266V73.301z"/>
		<path d="M116.52,74.073c-7.396,0-8.245-5.026-8.245-10.159c0-5.134,0.851-10.187,8.245-10.187c7.366,0,8.244,5.053,8.244,10.187
			C124.764,69.046,123.886,74.073,116.52,74.073z M116.492,55.695c-5.105,0-5.798,3.085-5.798,8.191c0,5.134,0.69,8.219,5.798,8.219
			c5.134,0,5.853-3.085,5.853-8.219C122.344,58.753,121.626,55.695,116.492,55.695z"/>
		<path d="M142.923,63.94c0,0.319-0.025,0.638-0.025,0.931c0,6.941-2.58,9.202-8.219,9.202c-2.979,0-4.921-0.611-4.921-0.611
			c-0.105,0-0.238-0.134-0.238-0.239v-0.054l0.293-1.463c0.025-0.133,0.133-0.213,0.266-0.213h0.053
			c1.836,0.399,2.979,0.559,4.922,0.559c4.121,0,5.479-1.941,5.559-6.356c0,0-2.767,1.037-5.506,1.037
			c-4.255,0-7.182-1.888-7.182-6.516c0-4.495,2.979-6.489,7.421-6.489c6.463,0,7.554,3.856,7.579,10.133L142.923,63.94
			L142.923,63.94z M135.29,55.695c-3.403,0-5.025,1.383-5.025,4.521c0,3.191,1.94,4.495,4.973,4.495c1.596,0,3.83-0.373,5.346-0.932
			v-0.957C140.609,57.53,139.146,55.695,135.29,55.695z"/>
		<path d="M149.919,73.727h-2.313c-0.239,0-0.398-0.159-0.398-0.399v-1.702c0-0.239,0.159-0.398,0.398-0.398h2.313
			c0.239,0,0.398,0.159,0.398,0.398v1.702C150.317,73.568,150.158,73.727,149.919,73.727z"/>
		<path d="M162.845,74.073c-7.396,0-8.245-5.026-8.245-10.159c0-5.134,0.851-10.187,8.245-10.187c7.365,0,8.243,5.053,8.243,10.187
			C171.089,69.046,170.211,74.073,162.845,74.073z M162.817,55.695c-5.106,0-5.798,3.085-5.798,8.191
			c0,5.134,0.69,8.219,5.798,8.219c5.134,0,5.852-3.085,5.852-8.219C168.669,58.753,167.951,55.695,162.817,55.695z"/>
		<path d="M182.63,74.073c-7.395,0-8.244-5.026-8.244-10.159c0-5.134,0.851-10.187,8.244-10.187c7.366,0,8.244,5.053,8.244,10.187
			C190.874,69.046,189.996,74.073,182.63,74.073z M182.603,55.695c-5.106,0-5.798,3.085-5.798,8.191c0,5.134,0.69,8.219,5.798,8.219
			c5.134,0,5.852-3.085,5.852-8.219C188.454,58.753,187.736,55.695,182.603,55.695z"/>
		<path d="M202.415,74.073c-7.395,0-8.245-5.026-8.245-10.159c0-5.134,0.852-10.187,8.245-10.187c7.366,0,8.244,5.053,8.244,10.187
			C210.659,69.046,209.781,74.073,202.415,74.073z M202.388,55.695c-5.106,0-5.799,3.085-5.799,8.191
			c0,5.134,0.691,8.219,5.799,8.219c5.134,0,5.852-3.085,5.852-8.219C208.239,58.753,207.521,55.695,202.388,55.695z"/>
		<path d="M243.107,73.727h-1.304c-0.267,0-0.427-0.159-0.427-0.399v-9.84c0-1.756-0.638-2.367-2.5-2.367c-2.473,0-5,0.744-5,0.744
			v11.463c0,0.267-0.105,0.399-0.372,0.399h-1.303c-0.24,0-0.398-0.159-0.398-0.399v-9.84c0-1.756-0.665-2.367-2.526-2.367
			c-2.474,0-4.974,0.744-4.974,0.744v11.463c0,0.24-0.134,0.399-0.372,0.399h-1.33c-0.239,0-0.399-0.159-0.399-0.399V62.291
			c0-1.063,0.054-1.542,1.384-1.994c1.384-0.479,4.042-0.878,5.744-0.878c1.676,0,2.873,0.319,3.617,1.011
			c1.489-0.585,4.362-1.011,5.984-1.011c3.165,0,4.573,0.984,4.573,3.83v10.079C243.506,73.568,243.347,73.727,243.107,73.727z"/>
		<path d="M258.823,67.77c-0.026,0.133-0.213,0.346-0.346,0.346h-9.762c0,1.462,0.267,2.287,0.824,2.979
			c0.771,0.983,2.074,1.276,3.938,1.276c1.647,0,2.659-0.319,3.909-0.665c0.054-0.026,0.105-0.053,0.159-0.053
			c0.106,0,0.212,0.079,0.267,0.239l0.292,1.011v0.106c0,0.133-0.105,0.213-0.267,0.292c-1.062,0.426-2.818,0.771-4.573,0.771
			c-5.214,0-6.757-2.42-6.757-7.313c0-4.495,0.904-7.341,6.172-7.341c2.792,0,4.415,0.851,5.292,2.367
			c0.69,1.196,0.852,2.846,0.852,4.681V67.77L258.823,67.77z M256.297,63.355c-0.479-1.702-1.517-2.261-3.671-2.261
			c-2.128,0-3.165,0.559-3.617,2.261c-0.266,0.983-0.292,2.021-0.317,3.005l7.925-0.026
			C256.589,65.323,256.536,64.338,256.297,63.355z"/>
		<path d="M271.723,73.541c-0.852,0.213-1.969,0.532-4.069,0.532c-5.159,0-6.356-2.341-6.356-7.341c0-5.106,1.41-7.313,6.197-7.313
			c1.835,0,3.165,0.292,4.069,0.532l-0.268-1.543v-3.989c0-0.213,0.135-0.293,0.347-0.319l1.437-0.372h0.08
			c0.187,0,0.239,0.186,0.239,0.346V71.44C273.398,72.424,273.398,73.168,271.723,73.541z M271.297,61.573
			c0,0-1.675-0.479-3.59-0.479c-2.926,0-4.229,0.931-4.229,5.665c0,5.053,1.542,5.638,4.255,5.638c1.968,0,3.562-0.505,3.562-0.505
			L271.297,61.573L271.297,61.573z"/>
		<path d="M292.336,73.301c-0.08,0.267-0.293,0.426-0.531,0.426h-2.792c-0.268,0-0.479-0.159-0.56-0.426l-4.415-13.059
			c-0.026-0.053-0.026-0.106-0.026-0.133c0-0.187,0.105-0.346,0.267-0.346h1.596c0.267,0,0.347,0.159,0.398,0.346l3.776,12.074
			h0.691l3.404-12.074c0.053-0.187,0.186-0.346,0.452-0.346h1.647c0.188,0,0.319,0.133,0.319,0.319v0.079L292.336,73.301z"/>
		<path d="M301.06,57.371h-1.304c-0.239,0-0.398-0.16-0.398-0.372v-2.873c0-0.239,0.159-0.398,0.398-0.398h1.304
			c0.239,0,0.397,0.159,0.397,0.398v2.873C301.458,57.21,301.3,57.371,301.06,57.371z M301.06,73.727h-1.304
			c-0.239,0-0.398-0.159-0.398-0.399V60.163c0-0.239,0.159-0.398,0.398-0.398h1.304c0.239,0,0.397,0.159,0.397,0.398v13.165
			C301.458,73.568,301.3,73.727,301.06,73.727z"/>
		<path d="M315.314,73.541c-0.851,0.213-1.968,0.532-4.069,0.532c-5.158,0-6.355-2.341-6.355-7.341c0-5.106,1.41-7.313,6.197-7.313
			c1.835,0,3.165,0.292,4.068,0.532l-0.267-1.543v-3.989c0-0.213,0.134-0.293,0.346-0.319l1.438-0.372h0.08
			c0.186,0,0.238,0.186,0.238,0.346V71.44C316.99,72.424,316.99,73.168,315.314,73.541z M314.889,61.573c0,0-1.675-0.479-3.59-0.479
			c-2.927,0-4.229,0.931-4.229,5.665c0,5.053,1.542,5.638,4.255,5.638c1.969,0,3.563-0.505,3.563-0.505L314.889,61.573
			L314.889,61.573z"/>
		<path d="M332.338,67.77c-0.026,0.133-0.214,0.346-0.347,0.346h-9.761c0,1.462,0.266,2.287,0.824,2.979
			c0.771,0.983,2.074,1.276,3.937,1.276c1.648,0,2.659-0.319,3.909-0.665c0.054-0.026,0.106-0.053,0.16-0.053
			c0.106,0,0.212,0.079,0.266,0.239l0.292,1.011v0.106c0,0.133-0.104,0.213-0.266,0.292c-1.063,0.426-2.819,0.771-4.574,0.771
			c-5.213,0-6.756-2.42-6.756-7.313c0-4.495,0.904-7.341,6.171-7.341c2.792,0,4.415,0.851,5.292,2.367
			c0.691,1.196,0.853,2.846,0.853,4.681V67.77L332.338,67.77z M329.811,63.355c-0.479-1.702-1.517-2.261-3.671-2.261
			c-2.128,0-3.165,0.559-3.617,2.261c-0.266,0.983-0.292,2.021-0.318,3.005l7.926-0.026
			C330.103,65.323,330.051,64.338,329.811,63.355z"/>
		<path d="M342.284,61.28c-1.755,0-3.19,0.133-4.681,0.506v11.542c0,0.24-0.133,0.399-0.372,0.399h-1.33
			c0,0-0.398-0.159-0.398-0.399v-11.09c0-1.171,0.239-1.517,1.144-1.941c1.171-0.532,3.564-0.878,4.841-0.878h0.665
			c0.133,0,0.372,0.053,0.372,0.398v1.145C342.523,61.147,342.471,61.28,342.284,61.28z"/>
		<path d="M356.006,67.77c-0.026,0.133-0.214,0.346-0.347,0.346h-9.761c0,1.462,0.266,2.287,0.824,2.979
			c0.771,0.983,2.074,1.276,3.937,1.276c1.648,0,2.659-0.319,3.909-0.665c0.054-0.026,0.106-0.053,0.16-0.053
			c0.106,0,0.212,0.079,0.266,0.239l0.292,1.011v0.106c0,0.133-0.104,0.213-0.266,0.292c-1.062,0.426-2.819,0.771-4.574,0.771
			c-5.213,0-6.756-2.42-6.756-7.313c0-4.495,0.904-7.341,6.171-7.341c2.792,0,4.415,0.851,5.292,2.367
			c0.691,1.196,0.853,2.846,0.853,4.681V67.77L356.006,67.77z M353.479,63.355c-0.479-1.702-1.517-2.261-3.671-2.261
			c-2.128,0-3.165,0.559-3.617,2.261c-0.266,0.983-0.292,2.021-0.318,3.005l7.926-0.026
			C353.771,65.323,353.719,64.338,353.479,63.355z"/>
		<path d="M372.549,60.855c0,0.053-0.054,0.079-0.134,0.159c-0.585,0.398-1.25,0.559-1.889,0.559c-0.425,0-0.451-0.026-1.062-0.133
			c0,0,1.144,0.957,1.144,2.846c0,3.776-2.34,4.867-5.851,4.867h-1.97c-1.383,0-1.701,0.691-1.701,1.383
			c0,1.117,0.771,1.409,1.94,1.409h4.018c2.553,0,4.36,0.771,4.36,3.139c0,3.298-2.659,4.389-6.463,4.389
			c-4.415,0-6.436-0.878-6.436-3.564c0-2.074,1.408-2.474,2.712-2.739v-0.293c-1.196-0.266-2.233-0.398-2.233-2.287
			c0-1.622,0.878-2.021,2.926-2.34c-1.25-0.399-3.006-0.745-3.006-3.963c0-3.644,2.395-4.867,5.824-4.867
			c1.649,0,2.313,0.266,3.325,0.559c0.292,0.053,0.61,0.106,0.982,0.106c0.399,0,0.853-0.08,1.225-0.187
			c0.479-0.133,1.011-0.372,1.383-0.559c0.08-0.026,0.16-0.08,0.213-0.08c0.054,0,0.106,0.054,0.133,0.16l0.506,1.33
			C372.521,60.801,372.549,60.828,372.549,60.855z M366.804,73.727h-3.591c-1.356,0-2.606,0.426-2.606,2.021
			c0,1.835,1.915,2.074,4.361,2.074c1.648,0,4.336-0.239,4.336-2.42C369.304,73.86,367.974,73.727,366.804,73.727z M364.757,61.014
			c-2.314,0-3.75,0.798-3.75,3.271c0,2.446,1.436,3.218,3.75,3.218c2.287,0,3.75-0.771,3.75-3.218
			C368.507,61.812,367.044,61.014,364.757,61.014z"/>
		<path d="M383.026,73.701c-0.771,0.159-2.048,0.372-3.457,0.372c-2.287,0-6.091-0.08-6.091-4.389c0-3.563,1.969-3.75,4.602-4.175
			l5.026-0.825v-1.25c0-0.851-0.026-1.542-0.957-1.888c-0.506-0.213-1.25-0.319-2.421-0.319c-2.048,0-3.829,0.505-4.92,0.771
			c-0.053,0-0.106,0.026-0.159,0.026c-0.105,0-0.213-0.054-0.267-0.213l-0.239-1.197v-0.053c0-0.213,0.187-0.293,0.267-0.319
			c0.852-0.319,3.139-0.824,5.559-0.824c1.889,0,3.111,0.266,3.884,0.691c1.355,0.718,1.383,1.968,1.383,3.218v7.634
			C385.234,72.823,384.862,73.249,383.026,73.701z M383.134,66.36l-4.895,0.824c-1.275,0.239-2.579,0.293-2.579,2.394
			c0,2.66,2.182,2.847,3.937,2.847c1.171,0,2.421-0.16,3.537-0.532V66.36L383.134,66.36z M379.995,58.408
			c-2.021,0-3.139-0.771-3.139-2.872c0-2.102,1.117-2.846,3.139-2.846c1.994,0,3.111,0.744,3.111,2.846
			C383.106,57.636,381.989,58.408,379.995,58.408z M379.995,53.753c-1.224,0-1.517,0.532-1.517,1.809
			c0,1.25,0.293,1.782,1.517,1.782c1.196,0,1.489-0.559,1.489-1.809S381.191,53.753,379.995,53.753z"/>
		<path d="M400.448,67.77c-0.025,0.133-0.213,0.346-0.346,0.346h-9.761c0,1.462,0.266,2.287,0.823,2.979
			c0.771,0.983,2.074,1.276,3.938,1.276c1.648,0,2.659-0.319,3.909-0.665c0.054-0.026,0.105-0.053,0.16-0.053
			c0.105,0,0.212,0.079,0.266,0.239l0.292,1.011v0.106c0,0.133-0.105,0.213-0.266,0.292c-1.063,0.426-2.819,0.771-4.574,0.771
			c-5.213,0-6.756-2.42-6.756-7.313c0-4.495,0.903-7.341,6.171-7.341c2.792,0,4.415,0.851,5.292,2.367
			c0.69,1.196,0.852,2.846,0.852,4.681V67.77L400.448,67.77z M397.923,63.355c-0.479-1.702-1.518-2.261-3.671-2.261
			c-2.129,0-3.165,0.559-3.617,2.261c-0.267,0.983-0.292,2.021-0.318,3.005l7.925-0.026
			C398.215,65.323,398.161,64.338,397.923,63.355z"/>
		<path d="M414.917,73.727h-1.303c-0.24,0-0.398-0.159-0.398-0.399v-9.84c0-1.756-0.665-2.367-2.526-2.367
			c-2.474,0-4.974,0.744-4.974,0.744v11.463c0,0.24-0.134,0.399-0.372,0.399h-1.33c-0.239,0-0.399-0.159-0.399-0.399V62.291
			c0-1.063,0.055-1.542,1.384-1.994c1.384-0.479,4.042-0.878,5.744-0.878c3.165,0,4.575,0.984,4.575,3.83v10.079
			C415.316,73.568,415.156,73.727,414.917,73.727z"/>
		<path d="M428.771,73.541c-0.851,0.213-1.968,0.532-4.069,0.532c-5.158,0-6.355-2.341-6.355-7.341c0-5.106,1.41-7.313,6.197-7.313
			c1.835,0,3.164,0.292,4.068,0.532l-0.267-1.543v-3.989c0-0.213,0.134-0.293,0.346-0.319l1.438-0.372h0.079
			c0.187,0,0.239,0.186,0.239,0.346V71.44C430.446,72.424,430.446,73.168,428.771,73.541z M428.345,61.573
			c0,0-1.675-0.479-3.59-0.479c-2.927,0-4.229,0.931-4.229,5.665c0,5.053,1.542,5.638,4.255,5.638c1.968,0,3.563-0.505,3.563-0.505
			L428.345,61.573L428.345,61.573z"/>
		<path d="M445.794,67.77c-0.026,0.133-0.214,0.346-0.347,0.346h-9.761c0,1.462,0.266,2.287,0.824,2.979
			c0.771,0.983,2.074,1.276,3.937,1.276c1.648,0,2.659-0.319,3.909-0.665c0.054-0.026,0.106-0.053,0.16-0.053
			c0.105,0,0.212,0.079,0.266,0.239l0.293,1.011v0.106c0,0.133-0.105,0.213-0.267,0.292c-1.063,0.426-2.819,0.771-4.574,0.771
			c-5.213,0-6.756-2.42-6.756-7.313c0-4.495,0.904-7.341,6.171-7.341c2.792,0,4.415,0.851,5.292,2.367
			c0.691,1.196,0.853,2.846,0.853,4.681V67.77L445.794,67.77z M443.267,63.355c-0.479-1.702-1.517-2.261-3.671-2.261
			c-2.128,0-3.165,0.559-3.617,2.261c-0.266,0.983-0.292,2.021-0.318,3.005l7.926-0.026
			C443.559,65.323,443.507,64.338,443.267,63.355z"/>
		<path d="M462.923,74.073c-4.682,0-5.853-1.995-5.853-5.505V60.11c0-0.213,0.133-0.293,0.347-0.346l1.437-0.346h0.08
			c0.186,0,0.239,0.187,0.239,0.346v9.016c0,2.5,0.877,3.617,3.75,3.617c3.457,0,3.724-1.702,3.724-3.696V60.11
			c0-0.213,0.159-0.293,0.346-0.346l1.437-0.346h0.08c0.187,0,0.266,0.187,0.266,0.346v8.75
			C468.772,71.147,468.4,74.073,462.923,74.073z"/>
		<path d="M482.071,73.541c-0.851,0.213-1.968,0.532-4.068,0.532c-5.159,0-6.356-2.341-6.356-7.341c0-5.106,1.41-7.313,6.197-7.313
			c1.835,0,3.165,0.292,4.068,0.532l-0.267-1.543v-3.989c0-0.213,0.134-0.293,0.346-0.319l1.438-0.372h0.08
			c0.186,0,0.238,0.186,0.238,0.346V71.44C483.747,72.424,483.747,73.168,482.071,73.541z M481.646,61.573
			c0,0-1.675-0.479-3.59-0.479c-2.926,0-4.229,0.931-4.229,5.665c0,5.053,1.542,5.638,4.255,5.638c1.969,0,3.563-0.505,3.563-0.505
			L481.646,61.573L481.646,61.573z"/>
		<path d="M497.205,73.541c-0.851,0.213-1.968,0.532-4.068,0.532c-5.159,0-6.356-2.341-6.356-7.341c0-5.106,1.41-7.313,6.197-7.313
			c1.835,0,3.165,0.292,4.069,0.532l-0.268-1.543v-3.989c0-0.213,0.134-0.293,0.347-0.319l1.437-0.372h0.08
			c0.186,0,0.239,0.186,0.239,0.346V71.44C498.882,72.424,498.882,73.168,497.205,73.541z M496.779,61.573
			c0,0-1.675-0.479-3.59-0.479c-2.926,0-4.229,0.931-4.229,5.665c0,5.053,1.542,5.638,4.255,5.638c1.968,0,3.562-0.505,3.562-0.505
			L496.779,61.573L496.779,61.573z"/>
		<path d="M511.462,73.701c-0.771,0.159-2.049,0.372-3.457,0.372c-2.287,0-6.092-0.08-6.092-4.389c0-3.563,1.97-3.75,4.603-4.175
			l5.025-0.825v-1.25c0-0.851-0.025-1.542-0.956-1.888c-0.507-0.213-1.25-0.319-2.422-0.319c-2.048,0-3.828,0.505-4.92,0.771
			c-0.053,0-0.105,0.026-0.158,0.026c-0.106,0-0.214-0.054-0.268-0.213l-0.239-1.197v-0.053c0-0.213,0.188-0.293,0.268-0.319
			c0.851-0.319,3.138-0.824,5.559-0.824c1.888,0,3.111,0.266,3.883,0.691c1.356,0.718,1.384,1.968,1.384,3.218v7.634
			C513.67,72.823,513.298,73.249,511.462,73.701z M511.567,66.36l-4.894,0.824c-1.276,0.239-2.579,0.293-2.579,2.394
			c0,2.66,2.181,2.847,3.936,2.847c1.171,0,2.421-0.16,3.537-0.532V66.36L511.567,66.36z"/>
		<path d="M528.563,73.727h-1.303c-0.24,0-0.399-0.159-0.399-0.399v-9.84c0-1.756-0.665-2.367-2.525-2.367
			c-2.475,0-4.975,0.744-4.975,0.744v11.463c0,0.24-0.133,0.399-0.372,0.399h-1.33c-0.238,0-0.398-0.159-0.398-0.399V62.291
			c0-1.063,0.054-1.542,1.384-1.994c1.383-0.479,4.042-0.878,5.744-0.878c3.165,0,4.575,0.984,4.575,3.83v10.079
			C528.964,73.568,528.803,73.727,528.563,73.727z"/>
		<path d="M543.856,73.727h-1.303c-0.24,0-0.399-0.159-0.399-0.399v-9.84c0-1.756-0.665-2.367-2.525-2.367
			c-2.475,0-4.975,0.744-4.975,0.744v11.463c0,0.24-0.133,0.399-0.372,0.399h-1.33c-0.238,0-0.398-0.159-0.398-0.399V62.291
			c0-1.063,0.054-1.542,1.384-1.994c1.383-0.479,4.042-0.878,5.744-0.878c3.165,0,4.575,0.984,4.575,3.83v10.079
			C544.257,73.568,544.096,73.727,543.856,73.727z"/>
		<path d="M559.599,67.77c-0.026,0.133-0.213,0.346-0.346,0.346h-9.762c0,1.462,0.267,2.287,0.824,2.979
			c0.771,0.983,2.074,1.276,3.938,1.276c1.647,0,2.658-0.319,3.908-0.665c0.055-0.026,0.106-0.053,0.16-0.053
			c0.106,0,0.212,0.079,0.267,0.239l0.292,1.011v0.106c0,0.133-0.105,0.213-0.267,0.292c-1.062,0.426-2.818,0.771-4.574,0.771
			c-5.213,0-6.756-2.42-6.756-7.313c0-4.495,0.904-7.341,6.171-7.341c2.792,0,4.415,0.851,5.292,2.367
			c0.691,1.196,0.853,2.846,0.853,4.681V67.77z M557.072,63.355c-0.479-1.702-1.517-2.261-3.671-2.261
			c-2.128,0-3.165,0.559-3.617,2.261c-0.266,0.983-0.292,2.021-0.317,3.005l7.925-0.026
			C557.364,65.323,557.312,64.338,557.072,63.355z"/>
		<path d="M567.524,73.408c0,0.187-0.133,0.239-0.213,0.267c-0.212,0.105-0.931,0.318-1.888,0.318c-1.597,0-2.66-0.771-2.66-2.739
			V54.418c0-0.213,0.134-0.293,0.318-0.319l1.438-0.372h0.08c0.186,0,0.266,0.186,0.266,0.346v17.128c0,0.957,0.665,1.09,1.196,1.09
			c0.373,0,0.799-0.053,0.932-0.106h0.133c0.08,0,0.159,0.027,0.187,0.187l0.187,0.931
			C567.498,73.355,567.524,73.381,567.524,73.408z"/>
		<path d="M574.147,74.073c-2.341,0-4.362-0.771-4.708-0.904c-0.106-0.053-0.212-0.106-0.212-0.266v-0.08l0.266-1.037
			c0.026-0.133,0.106-0.239,0.292-0.239h0.134c0.214,0.079,2.102,0.771,4.281,0.771c2.262,0,3.564-0.719,3.564-2.341
			c0-2.207-1.702-2.128-3.777-2.447c-1.303-0.212-4.627-0.452-4.627-3.963c0-3.431,3.06-4.148,5.398-4.148
			c2.287,0,4.043,0.479,4.336,0.559c0.186,0.026,0.266,0.159,0.266,0.292v0.054l-0.187,1.17c-0.026,0.16-0.134,0.213-0.239,0.213
			h-0.053c-0.373-0.026-2.342-0.505-3.91-0.505c-1.915,0-3.511,0.531-3.511,2.207c0,1.809,1.809,2.021,3.458,2.234
			c2.394,0.319,4.974,0.505,4.974,4.122C579.893,73.222,577.232,74.073,574.147,74.073z"/>
		<path d="M594.545,67.77c-0.026,0.133-0.214,0.346-0.347,0.346h-9.761c0,1.462,0.266,2.287,0.824,2.979
			c0.771,0.983,2.073,1.276,3.937,1.276c1.648,0,2.659-0.319,3.909-0.665c0.054-0.026,0.106-0.053,0.16-0.053
			c0.105,0,0.212,0.079,0.266,0.239l0.292,1.011v0.106c0,0.133-0.104,0.213-0.266,0.292c-1.063,0.426-2.819,0.771-4.574,0.771
			c-5.213,0-6.756-2.42-6.756-7.313c0-4.495,0.904-7.341,6.171-7.341c2.792,0,4.415,0.851,5.292,2.367
			c0.691,1.196,0.853,2.846,0.853,4.681V67.77z M592.018,63.355c-0.479-1.702-1.518-2.261-3.671-2.261
			c-2.128,0-3.165,0.559-3.617,2.261c-0.266,0.983-0.292,2.021-0.318,3.005l7.926-0.026
			C592.31,65.323,592.258,64.338,592.018,63.355z"/>
		<path d="M601.381,62.264h-2.314c-0.239,0-0.397-0.159-0.397-0.399v-1.702c0-0.239,0.158-0.398,0.397-0.398h2.314
			c0.238,0,0.397,0.159,0.397,0.398v1.702C601.778,62.105,601.619,62.264,601.381,62.264z M601.381,73.727h-2.314
			c-0.239,0-0.397-0.159-0.397-0.399v-1.702c0-0.239,0.158-0.398,0.397-0.398h2.314c0.238,0,0.397,0.159,0.397,0.398v1.702
			C601.778,73.568,601.619,73.727,601.381,73.727z"/>
	</g>
</g>
</svg>
