<?xml version="1.0" encoding="utf-8"?>
<!-- Generator: Adobe Illustrator 16.0.4, SVG Export Plug-In . SVG Version: 6.00 Build 0)  -->
<!DOCTYPE svg PUBLIC "-//W3C//DTD SVG 1.1//EN" "http://www.w3.org/Graphics/SVG/1.1/DTD/svg11.dtd">
<svg version="1.1" id="Layer_1" xmlns="http://www.w3.org/2000/svg" xmlns:xlink="http://www.w3.org/1999/xlink" x="0px" y="0px"
	 width="913.312px" height="371.289px" viewBox="0 0 913.312 371.289" enable-background="new 0 0 913.312 371.289"
	 xml:space="preserve">
<polygon fill="#E4F3FB" points="292.383,225.738 11.158,223.625 15.107,169.531 291.029,165.263 "/>
<polygon fill="#E4F3FB" points="902.746,231.195 297.754,226.095 297.982,165.857 898.022,172.585 "/>
<g>
	<rect x="328.448" y="188.265" fill="none" width="465.904" height="37.045"/>
	<path d="M347.609,205.093h-1.097c-0.224,0-0.358-0.135-0.358-0.336v-8.282c0-1.478-0.537-1.992-2.104-1.992
		c-2.082,0-4.209,0.627-4.209,0.627v9.647c0,0.224-0.089,0.336-0.313,0.336h-1.097c-0.201,0-0.336-0.135-0.336-0.336v-8.282
		c0-1.478-0.56-1.992-2.126-1.992c-2.082,0-4.187,0.627-4.187,0.627v9.647c0,0.201-0.111,0.336-0.313,0.336h-1.119
		c-0.201,0-0.335-0.135-0.335-0.336v-9.289c0-0.896,0.044-1.299,1.163-1.68c1.164-0.402,3.403-0.738,4.836-0.738
		c1.41,0,2.417,0.269,3.044,0.851c1.254-0.492,3.671-0.851,5.036-0.851c2.664,0,3.851,0.828,3.851,3.224v8.483
		C347.945,204.958,347.811,205.093,347.609,205.093z"/>
	<path d="M360.829,200.08c-0.022,0.111-0.179,0.29-0.291,0.29h-8.215c0,1.231,0.224,1.926,0.694,2.508
		c0.648,0.828,1.746,1.074,3.312,1.074c1.388,0,2.238-0.269,3.291-0.56c0.044-0.022,0.089-0.045,0.134-0.045
		c0.09,0,0.18,0.067,0.224,0.201l0.247,0.851v0.09c0,0.112-0.09,0.179-0.225,0.246c-0.896,0.358-2.372,0.649-3.85,0.649
		c-4.388,0-5.686-2.037-5.686-6.156c0-3.782,0.761-6.178,5.192-6.178c2.351,0,3.716,0.717,4.455,1.992
		c0.582,1.008,0.716,2.396,0.716,3.939V200.08z M358.703,196.363c-0.403-1.433-1.276-1.902-3.089-1.902
		c-1.791,0-2.664,0.47-3.045,1.902c-0.224,0.829-0.246,1.702-0.269,2.53l6.671-0.022
		C358.949,198.02,358.904,197.192,358.703,196.363z"/>
	<path d="M371.682,204.937c-0.717,0.179-1.656,0.447-3.425,0.447c-4.343,0-5.35-1.97-5.35-6.178c0-4.298,1.186-6.156,5.215-6.156
		c1.545,0,2.664,0.246,3.425,0.447l-0.224-1.298v-3.357c0-0.18,0.112-0.246,0.291-0.269l1.209-0.313h0.067
		c0.156,0,0.201,0.156,0.201,0.291v14.617C373.092,203.997,373.092,204.624,371.682,204.937z M371.323,194.864
		c0,0-1.41-0.403-3.021-0.403c-2.463,0-3.56,0.783-3.56,4.768c0,4.254,1.299,4.746,3.582,4.746c1.656,0,2.999-0.426,2.999-0.426
		V194.864z"/>
	<path d="M400.752,205.093h-1.097c-0.224,0-0.358-0.135-0.358-0.336v-8.282c0-1.478-0.537-1.992-2.104-1.992
		c-2.082,0-4.209,0.627-4.209,0.627v9.647c0,0.224-0.089,0.336-0.313,0.336h-1.097c-0.201,0-0.336-0.135-0.336-0.336v-8.282
		c0-1.478-0.56-1.992-2.126-1.992c-2.082,0-4.187,0.627-4.187,0.627v9.647c0,0.201-0.111,0.336-0.313,0.336h-1.119
		c-0.201,0-0.335-0.135-0.335-0.336v-9.289c0-0.896,0.044-1.299,1.163-1.68c1.164-0.402,3.403-0.738,4.836-0.738
		c1.41,0,2.417,0.269,3.044,0.851c1.254-0.492,3.671-0.851,5.036-0.851c2.664,0,3.851,0.828,3.851,3.224v8.483
		C401.088,204.958,400.953,205.093,400.752,205.093z"/>
	<path d="M413.972,200.08c-0.022,0.111-0.179,0.29-0.291,0.29h-8.215c0,1.231,0.224,1.926,0.694,2.508
		c0.648,0.828,1.746,1.074,3.312,1.074c1.388,0,2.238-0.269,3.291-0.56c0.044-0.022,0.089-0.045,0.134-0.045
		c0.09,0,0.18,0.067,0.224,0.201l0.247,0.851v0.09c0,0.112-0.09,0.179-0.225,0.246c-0.896,0.358-2.372,0.649-3.85,0.649
		c-4.388,0-5.686-2.037-5.686-6.156c0-3.782,0.761-6.178,5.192-6.178c2.351,0,3.716,0.717,4.455,1.992
		c0.582,1.008,0.716,2.396,0.716,3.939V200.08z M411.846,196.363c-0.403-1.433-1.276-1.902-3.089-1.902
		c-1.791,0-2.664,0.47-3.045,1.902c-0.224,0.829-0.246,1.702-0.269,2.53l6.671-0.022
		C412.092,198.02,412.047,197.192,411.846,196.363z"/>
	<path d="M420.639,204.825c0,0.156-0.112,0.201-0.18,0.224c-0.179,0.09-0.783,0.269-1.589,0.269c-1.344,0-2.238-0.649-2.238-2.306
		v-14.169c0-0.18,0.111-0.246,0.269-0.269l1.208-0.313h0.067c0.157,0,0.224,0.156,0.224,0.291v14.415
		c0,0.807,0.56,0.918,1.008,0.918c0.313,0,0.672-0.045,0.783-0.089h0.112c0.066,0,0.134,0.021,0.156,0.156l0.157,0.783
		C420.616,204.78,420.639,204.802,420.639,204.825z"/>
	<path d="M426.636,204.825c0,0.156-0.112,0.201-0.18,0.224c-0.179,0.09-0.783,0.269-1.589,0.269c-1.344,0-2.238-0.649-2.238-2.306
		v-14.169c0-0.18,0.111-0.246,0.269-0.269l1.208-0.313h0.067c0.157,0,0.224,0.156,0.224,0.291v14.415
		c0,0.807,0.56,0.918,1.008,0.918c0.313,0,0.671-0.045,0.783-0.089h0.112c0.066,0,0.134,0.021,0.156,0.156l0.157,0.783
		C426.613,204.78,426.636,204.802,426.636,204.825z"/>
	<path d="M438.407,200.08c-0.022,0.111-0.179,0.29-0.291,0.29h-8.215c0,1.231,0.224,1.926,0.694,2.508
		c0.648,0.828,1.746,1.074,3.312,1.074c1.388,0,2.238-0.269,3.291-0.56c0.044-0.022,0.089-0.045,0.134-0.045
		c0.09,0,0.18,0.067,0.224,0.201l0.247,0.851v0.09c0,0.112-0.09,0.179-0.225,0.246c-0.896,0.358-2.372,0.649-3.85,0.649
		c-4.388,0-5.686-2.037-5.686-6.156c0-3.782,0.761-6.178,5.192-6.178c2.351,0,3.716,0.717,4.455,1.992
		c0.582,1.008,0.716,2.396,0.716,3.939V200.08z M436.281,196.363c-0.403-1.433-1.276-1.902-3.089-1.902
		c-1.791,0-2.664,0.47-3.045,1.902c-0.224,0.829-0.246,1.702-0.269,2.53l6.671-0.022
		C436.527,198.02,436.482,197.192,436.281,196.363z"/>
	<path d="M458.661,205.093h-1.097c-0.224,0-0.358-0.135-0.358-0.336v-8.282c0-1.478-0.537-1.992-2.104-1.992
		c-2.082,0-4.209,0.627-4.209,0.627v9.647c0,0.224-0.089,0.336-0.313,0.336h-1.097c-0.201,0-0.336-0.135-0.336-0.336v-8.282
		c0-1.478-0.56-1.992-2.126-1.992c-2.082,0-4.187,0.627-4.187,0.627v9.647c0,0.201-0.111,0.336-0.313,0.336h-1.119
		c-0.201,0-0.335-0.135-0.335-0.336v-9.289c0-0.896,0.044-1.299,1.163-1.68c1.164-0.402,3.403-0.738,4.836-0.738
		c1.41,0,2.417,0.269,3.044,0.851c1.254-0.492,3.671-0.851,5.036-0.851c2.664,0,3.851,0.828,3.851,3.224v8.483
		C458.997,204.958,458.862,205.093,458.661,205.093z"/>
	<path d="M465.997,204.825c0,0.156-0.112,0.201-0.18,0.224c-0.179,0.09-0.783,0.269-1.589,0.269c-1.344,0-2.238-0.649-2.238-2.306
		v-14.169c0-0.18,0.111-0.246,0.269-0.269l1.208-0.313h0.067c0.157,0,0.224,0.156,0.224,0.291v14.415
		c0,0.807,0.56,0.918,1.008,0.918c0.313,0,0.671-0.045,0.783-0.089h0.112c0.066,0,0.134,0.021,0.156,0.156l0.157,0.783
		C465.975,204.78,465.997,204.802,465.997,204.825z"/>
	<path d="M475.441,205.071c-0.649,0.135-1.724,0.313-2.91,0.313c-1.926,0-5.126-0.067-5.126-3.693c0-3,1.656-3.156,3.872-3.515
		l4.23-0.693v-1.053c0-0.716-0.022-1.298-0.806-1.589c-0.425-0.18-1.052-0.269-2.037-0.269c-1.724,0-3.224,0.425-4.141,0.648
		c-0.045,0-0.09,0.022-0.135,0.022c-0.09,0-0.179-0.044-0.224-0.179l-0.201-1.007v-0.045c0-0.18,0.156-0.246,0.224-0.269
		c0.716-0.269,2.642-0.694,4.678-0.694c1.59,0,2.619,0.224,3.269,0.582c1.142,0.604,1.164,1.656,1.164,2.709v6.424
		C477.299,204.333,476.985,204.69,475.441,205.071z M475.53,198.893l-4.118,0.693c-1.075,0.202-2.172,0.246-2.172,2.015
		c0,2.238,1.836,2.396,3.313,2.396c0.984,0,2.036-0.135,2.977-0.448V198.893z"/>
	<path d="M489.83,205.093h-1.097c-0.201,0-0.336-0.135-0.336-0.336v-8.282c0-1.478-0.56-1.992-2.126-1.992
		c-2.082,0-4.187,0.627-4.187,0.627v9.647c0,0.201-0.111,0.336-0.313,0.336h-1.119c-0.201,0-0.335-0.135-0.335-0.336v-9.289
		c0-0.896,0.044-1.299,1.163-1.68c1.164-0.402,3.403-0.738,4.836-0.738c2.663,0,3.85,0.828,3.85,3.224v8.483
		C490.166,204.958,490.032,205.093,489.83,205.093z"/>
	<path d="M504.443,194.259c0,0.045-0.045,0.067-0.111,0.134c-0.493,0.336-1.053,0.471-1.59,0.471c-0.358,0-0.38-0.022-0.896-0.112
		c0,0,0.963,0.806,0.963,2.396c0,3.179-1.97,4.096-4.925,4.096h-1.656c-1.164,0-1.433,0.582-1.433,1.164
		c0,0.94,0.649,1.187,1.634,1.187h3.38c2.149,0,3.672,0.649,3.672,2.642c0,2.775-2.239,3.693-5.439,3.693
		c-3.716,0-5.418-0.738-5.418-2.999c0-1.746,1.187-2.082,2.284-2.306v-0.247c-1.008-0.224-1.881-0.335-1.881-1.925
		c0-1.365,0.739-1.701,2.462-1.97c-1.052-0.336-2.529-0.627-2.529-3.335c0-3.067,2.015-4.097,4.902-4.097
		c1.388,0,1.947,0.224,2.798,0.47c0.247,0.045,0.516,0.09,0.829,0.09c0.335,0,0.716-0.067,1.029-0.156
		c0.403-0.112,0.851-0.313,1.164-0.471c0.067-0.022,0.134-0.067,0.179-0.067s0.09,0.045,0.112,0.135l0.425,1.119
		C504.421,194.214,504.443,194.237,504.443,194.259z M499.608,205.093h-3.021c-1.142,0-2.194,0.358-2.194,1.701
		c0,1.545,1.612,1.746,3.671,1.746c1.389,0,3.649-0.201,3.649-2.037C501.713,205.206,500.594,205.093,499.608,205.093z
		 M497.885,194.393c-1.947,0-3.156,0.672-3.156,2.754c0,2.06,1.209,2.708,3.156,2.708c1.925,0,3.156-0.648,3.156-2.708
		C501.041,195.065,499.81,194.393,497.885,194.393z"/>
	<path d="M515.811,200.08c-0.022,0.111-0.179,0.29-0.291,0.29h-8.215c0,1.231,0.224,1.926,0.694,2.508
		c0.648,0.828,1.746,1.074,3.312,1.074c1.388,0,2.238-0.269,3.291-0.56c0.044-0.022,0.089-0.045,0.134-0.045
		c0.09,0,0.18,0.067,0.224,0.201l0.246,0.851v0.09c0,0.112-0.089,0.179-0.224,0.246c-0.896,0.358-2.372,0.649-3.85,0.649
		c-4.388,0-5.686-2.037-5.686-6.156c0-3.782,0.761-6.178,5.192-6.178c2.351,0,3.716,0.717,4.455,1.992
		c0.582,1.008,0.716,2.396,0.716,3.939V200.08z M513.685,196.363c-0.403-1.433-1.276-1.902-3.089-1.902
		c-1.791,0-2.664,0.47-3.045,1.902c-0.224,0.829-0.246,1.702-0.269,2.53l6.671-0.022
		C513.931,198.02,513.886,197.192,513.685,196.363z"/>
	<path d="M531.271,204.735c-0.067,0.224-0.246,0.358-0.447,0.358h-2.351c-0.224,0-0.403-0.135-0.471-0.358l-3.716-10.99
		c-0.021-0.045-0.021-0.09-0.021-0.112c0-0.156,0.089-0.291,0.224-0.291h1.343c0.224,0,0.291,0.135,0.336,0.291l3.179,10.163h0.582
		l2.865-10.163c0.045-0.156,0.156-0.291,0.38-0.291h1.389c0.156,0,0.269,0.112,0.269,0.269v0.067L531.271,204.735z"/>
	<path d="M538.609,191.327h-1.097c-0.201,0-0.336-0.134-0.336-0.313v-2.417c0-0.202,0.135-0.336,0.336-0.336h1.097
		c0.202,0,0.336,0.134,0.336,0.336v2.417C538.945,191.193,538.812,191.327,538.609,191.327z M538.609,205.093h-1.097
		c-0.201,0-0.336-0.135-0.336-0.336v-11.08c0-0.201,0.135-0.336,0.336-0.336h1.097c0.202,0,0.336,0.135,0.336,0.336v11.08
		C538.945,204.958,538.812,205.093,538.609,205.093z"/>
	<path d="M550.606,204.937c-0.717,0.179-1.656,0.447-3.425,0.447c-4.343,0-5.35-1.97-5.35-6.178c0-4.298,1.186-6.156,5.215-6.156
		c1.545,0,2.664,0.246,3.425,0.447l-0.224-1.298v-3.357c0-0.18,0.112-0.246,0.291-0.269l1.209-0.313h0.067
		c0.156,0,0.201,0.156,0.201,0.291v14.617C552.017,203.997,552.017,204.624,550.606,204.937z M550.248,194.864
		c0,0-1.41-0.403-3.021-0.403c-2.463,0-3.56,0.783-3.56,4.768c0,4.254,1.299,4.746,3.582,4.746c1.656,0,2.999-0.426,2.999-0.426
		V194.864z"/>
	<path d="M564.928,200.08c-0.022,0.111-0.179,0.29-0.291,0.29h-8.215c0,1.231,0.224,1.926,0.694,2.508
		c0.648,0.828,1.746,1.074,3.312,1.074c1.388,0,2.238-0.269,3.291-0.56c0.044-0.022,0.089-0.045,0.134-0.045
		c0.09,0,0.18,0.067,0.224,0.201l0.246,0.851v0.09c0,0.112-0.089,0.179-0.224,0.246c-0.896,0.358-2.372,0.649-3.85,0.649
		c-4.388,0-5.686-2.037-5.686-6.156c0-3.782,0.761-6.178,5.192-6.178c2.351,0,3.716,0.717,4.455,1.992
		c0.582,1.008,0.716,2.396,0.716,3.939V200.08z M562.802,196.363c-0.403-1.433-1.276-1.902-3.089-1.902
		c-1.791,0-2.664,0.47-3.045,1.902c-0.224,0.829-0.246,1.702-0.269,2.53l6.671-0.022
		C563.048,198.02,563.003,197.192,562.802,196.363z"/>
	<path d="M573.296,194.618c-1.478,0-2.687,0.111-3.94,0.425v9.715c0,0.201-0.111,0.336-0.313,0.336h-1.119
		c0,0-0.335-0.135-0.335-0.336v-9.334c0-0.985,0.201-1.276,0.962-1.635c0.985-0.447,3-0.738,4.074-0.738h0.56
		c0.112,0,0.313,0.045,0.313,0.336v0.963C573.497,194.505,573.452,194.618,573.296,194.618z"/>
	<path d="M584.84,200.08c-0.022,0.111-0.179,0.29-0.291,0.29h-8.215c0,1.231,0.224,1.926,0.694,2.508
		c0.648,0.828,1.746,1.074,3.312,1.074c1.388,0,2.238-0.269,3.291-0.56c0.044-0.022,0.089-0.045,0.134-0.045
		c0.09,0,0.18,0.067,0.224,0.201l0.246,0.851v0.09c0,0.112-0.089,0.179-0.224,0.246c-0.896,0.358-2.372,0.649-3.85,0.649
		c-4.388,0-5.686-2.037-5.686-6.156c0-3.782,0.761-6.178,5.192-6.178c2.351,0,3.716,0.717,4.455,1.992
		c0.582,1.008,0.716,2.396,0.716,3.939V200.08z M582.714,196.363c-0.403-1.433-1.276-1.902-3.089-1.902
		c-1.791,0-2.664,0.47-3.045,1.902c-0.224,0.829-0.246,1.702-0.269,2.53l6.671-0.022C582.96,198.02,582.915,197.192,582.714,196.363
		z"/>
	<path d="M598.759,194.259c0,0.045-0.045,0.067-0.111,0.134c-0.493,0.336-1.053,0.471-1.59,0.471c-0.358,0-0.381-0.022-0.896-0.112
		c0,0,0.963,0.806,0.963,2.396c0,3.179-1.97,4.096-4.925,4.096h-1.656c-1.164,0-1.433,0.582-1.433,1.164
		c0,0.94,0.649,1.187,1.634,1.187h3.38c2.149,0,3.672,0.649,3.672,2.642c0,2.775-2.239,3.693-5.439,3.693
		c-3.716,0-5.418-0.738-5.418-2.999c0-1.746,1.187-2.082,2.284-2.306v-0.247c-1.008-0.224-1.881-0.335-1.881-1.925
		c0-1.365,0.738-1.701,2.462-1.97c-1.052-0.336-2.529-0.627-2.529-3.335c0-3.067,2.015-4.097,4.902-4.097
		c1.388,0,1.947,0.224,2.798,0.47c0.247,0.045,0.516,0.09,0.829,0.09c0.335,0,0.716-0.067,1.029-0.156
		c0.403-0.112,0.851-0.313,1.164-0.471c0.067-0.022,0.134-0.067,0.179-0.067s0.09,0.045,0.112,0.135l0.425,1.119
		C598.736,194.214,598.759,194.237,598.759,194.259z M593.924,205.093h-3.021c-1.142,0-2.194,0.358-2.194,1.701
		c0,1.545,1.612,1.746,3.672,1.746c1.388,0,3.648-0.201,3.648-2.037C596.028,205.206,594.909,205.093,593.924,205.093z
		 M592.2,194.393c-1.947,0-3.156,0.672-3.156,2.754c0,2.06,1.209,2.708,3.156,2.708c1.925,0,3.156-0.648,3.156-2.708
		C595.356,195.065,594.125,194.393,592.2,194.393z"/>
	<path d="M607.575,205.071c-0.649,0.135-1.724,0.313-2.91,0.313c-1.926,0-5.126-0.067-5.126-3.693c0-3,1.656-3.156,3.872-3.515
		l4.23-0.693v-1.053c0-0.716-0.022-1.298-0.806-1.589c-0.425-0.18-1.052-0.269-2.037-0.269c-1.724,0-3.224,0.425-4.141,0.648
		c-0.045,0-0.09,0.022-0.135,0.022c-0.09,0-0.179-0.044-0.224-0.179l-0.201-1.007v-0.045c0-0.18,0.156-0.246,0.224-0.269
		c0.716-0.269,2.642-0.694,4.679-0.694c1.589,0,2.618,0.224,3.268,0.582c1.142,0.604,1.164,1.656,1.164,2.709v6.424
		C609.433,204.333,609.119,204.69,607.575,205.071z M607.664,198.893l-4.118,0.693c-1.075,0.202-2.172,0.246-2.172,2.015
		c0,2.238,1.836,2.396,3.313,2.396c0.984,0,2.036-0.135,2.977-0.448V198.893z M605.022,192.2c-1.701,0-2.641-0.649-2.641-2.418
		c0-1.768,0.939-2.395,2.641-2.395c1.68,0,2.619,0.627,2.619,2.395C607.642,191.55,606.702,192.2,605.022,192.2z M605.022,188.283
		c-1.029,0-1.275,0.447-1.275,1.521c0,1.053,0.246,1.5,1.275,1.5c1.008,0,1.254-0.47,1.254-1.522
		C606.276,188.73,606.03,188.283,605.022,188.283z"/>
	<path d="M622.232,200.08c-0.022,0.111-0.179,0.29-0.291,0.29h-8.215c0,1.231,0.224,1.926,0.694,2.508
		c0.648,0.828,1.746,1.074,3.312,1.074c1.388,0,2.238-0.269,3.291-0.56c0.044-0.022,0.089-0.045,0.134-0.045
		c0.09,0,0.18,0.067,0.224,0.201l0.246,0.851v0.09c0,0.112-0.089,0.179-0.224,0.246c-0.896,0.358-2.372,0.649-3.85,0.649
		c-4.388,0-5.686-2.037-5.686-6.156c0-3.782,0.761-6.178,5.192-6.178c2.351,0,3.716,0.717,4.455,1.992
		c0.582,1.008,0.716,2.396,0.716,3.939V200.08z M620.106,196.363c-0.403-1.433-1.276-1.902-3.089-1.902
		c-1.791,0-2.664,0.47-3.045,1.902c-0.224,0.829-0.246,1.702-0.269,2.53l6.671-0.022
		C620.353,198.02,620.308,197.192,620.106,196.363z"/>
	<path d="M634.405,205.093h-1.097c-0.201,0-0.336-0.135-0.336-0.336v-8.282c0-1.478-0.56-1.992-2.126-1.992
		c-2.082,0-4.187,0.627-4.187,0.627v9.647c0,0.201-0.111,0.336-0.313,0.336h-1.119c-0.201,0-0.335-0.135-0.335-0.336v-9.289
		c0-0.896,0.044-1.299,1.163-1.68c1.164-0.402,3.403-0.738,4.836-0.738c2.663,0,3.85,0.828,3.85,3.224v8.483
		C634.741,204.958,634.607,205.093,634.405,205.093z"/>
	<path d="M646.062,204.937c-0.717,0.179-1.656,0.447-3.425,0.447c-4.343,0-5.35-1.97-5.35-6.178c0-4.298,1.186-6.156,5.215-6.156
		c1.545,0,2.664,0.246,3.425,0.447l-0.224-1.298v-3.357c0-0.18,0.112-0.246,0.291-0.269l1.209-0.313h0.067
		c0.156,0,0.201,0.156,0.201,0.291v14.617C647.472,203.997,647.472,204.624,646.062,204.937z M645.703,194.864
		c0,0-1.41-0.403-3.021-0.403c-2.463,0-3.56,0.783-3.56,4.768c0,4.254,1.299,4.746,3.582,4.746c1.656,0,2.999-0.426,2.999-0.426
		V194.864z"/>
	<path d="M660.383,200.08c-0.022,0.111-0.179,0.29-0.291,0.29h-8.215c0,1.231,0.224,1.926,0.694,2.508
		c0.648,0.828,1.746,1.074,3.312,1.074c1.388,0,2.238-0.269,3.291-0.56c0.044-0.022,0.089-0.045,0.134-0.045
		c0.09,0,0.18,0.067,0.224,0.201l0.246,0.851v0.09c0,0.112-0.089,0.179-0.224,0.246c-0.896,0.358-2.372,0.649-3.85,0.649
		c-4.388,0-5.686-2.037-5.686-6.156c0-3.782,0.761-6.178,5.192-6.178c2.351,0,3.716,0.717,4.455,1.992
		c0.582,1.008,0.716,2.396,0.716,3.939V200.08z M658.257,196.363c-0.403-1.433-1.276-1.902-3.089-1.902
		c-1.791,0-2.664,0.47-3.045,1.902c-0.224,0.829-0.246,1.702-0.269,2.53l6.671-0.022
		C658.503,198.02,658.458,197.192,658.257,196.363z"/>
	<path d="M674.792,205.384c-3.94,0-4.925-1.679-4.925-4.634v-7.118c0-0.179,0.112-0.246,0.291-0.291l1.209-0.291h0.066
		c0.157,0,0.202,0.156,0.202,0.291v7.589c0,2.104,0.738,3.044,3.156,3.044c2.91,0,3.134-1.433,3.134-3.111v-7.23
		c0-0.179,0.134-0.246,0.291-0.291l1.209-0.291h0.066c0.157,0,0.225,0.156,0.225,0.291v7.364
		C679.717,202.922,679.403,205.384,674.792,205.384z"/>
	<path d="M690.904,204.937c-0.717,0.179-1.656,0.447-3.425,0.447c-4.343,0-5.35-1.97-5.35-6.178c0-4.298,1.186-6.156,5.215-6.156
		c1.545,0,2.664,0.246,3.425,0.447l-0.224-1.298v-3.357c0-0.18,0.112-0.246,0.291-0.269l1.209-0.313h0.067
		c0.156,0,0.201,0.156,0.201,0.291v14.617C692.314,203.997,692.314,204.624,690.904,204.937z M690.546,194.864
		c0,0-1.41-0.403-3.021-0.403c-2.463,0-3.56,0.783-3.56,4.768c0,4.254,1.299,4.746,3.582,4.746c1.656,0,2.999-0.426,2.999-0.426
		V194.864z"/>
	<path d="M703.637,204.937c-0.717,0.179-1.656,0.447-3.425,0.447c-4.343,0-5.35-1.97-5.35-6.178c0-4.298,1.186-6.156,5.215-6.156
		c1.545,0,2.664,0.246,3.425,0.447l-0.224-1.298v-3.357c0-0.18,0.112-0.246,0.291-0.269l1.209-0.313h0.067
		c0.156,0,0.201,0.156,0.201,0.291v14.617C705.047,203.997,705.047,204.624,703.637,204.937z M703.278,194.864
		c0,0-1.41-0.403-3.021-0.403c-2.463,0-3.56,0.783-3.56,4.768c0,4.254,1.299,4.746,3.582,4.746c1.656,0,2.999-0.426,2.999-0.426
		V194.864z"/>
	<path d="M715.631,205.071c-0.649,0.135-1.724,0.313-2.91,0.313c-1.926,0-5.126-0.067-5.126-3.693c0-3,1.656-3.156,3.872-3.515
		l4.23-0.693v-1.053c0-0.716-0.022-1.298-0.806-1.589c-0.425-0.18-1.052-0.269-2.037-0.269c-1.724,0-3.224,0.425-4.141,0.648
		c-0.045,0-0.09,0.022-0.135,0.022c-0.09,0-0.179-0.044-0.224-0.179l-0.201-1.007v-0.045c0-0.18,0.156-0.246,0.224-0.269
		c0.716-0.269,2.642-0.694,4.678-0.694c1.59,0,2.619,0.224,3.269,0.582c1.142,0.604,1.164,1.656,1.164,2.709v6.424
		C717.488,204.333,717.175,204.69,715.631,205.071z M715.72,198.893l-4.118,0.693c-1.075,0.202-2.172,0.246-2.172,2.015
		c0,2.238,1.836,2.396,3.313,2.396c0.984,0,2.036-0.135,2.977-0.448V198.893z"/>
	<path d="M730.02,205.093h-1.097c-0.201,0-0.336-0.135-0.336-0.336v-8.282c0-1.478-0.56-1.992-2.126-1.992
		c-2.082,0-4.187,0.627-4.187,0.627v9.647c0,0.201-0.111,0.336-0.313,0.336h-1.119c-0.201,0-0.335-0.135-0.335-0.336v-9.289
		c0-0.896,0.044-1.299,1.163-1.68c1.164-0.402,3.403-0.738,4.836-0.738c2.663,0,3.85,0.828,3.85,3.224v8.483
		C730.355,204.958,730.222,205.093,730.02,205.093z"/>
	<path d="M742.887,205.093h-1.097c-0.201,0-0.336-0.135-0.336-0.336v-8.282c0-1.478-0.56-1.992-2.126-1.992
		c-2.082,0-4.187,0.627-4.187,0.627v9.647c0,0.201-0.111,0.336-0.313,0.336h-1.119c-0.201,0-0.335-0.135-0.335-0.336v-9.289
		c0-0.896,0.044-1.299,1.163-1.68c1.164-0.402,3.403-0.738,4.836-0.738c2.663,0,3.85,0.828,3.85,3.224v8.483
		C743.223,204.958,743.089,205.093,742.887,205.093z"/>
	<path d="M756.132,200.08c-0.022,0.111-0.179,0.29-0.291,0.29h-8.215c0,1.231,0.224,1.926,0.694,2.508
		c0.648,0.828,1.746,1.074,3.312,1.074c1.388,0,2.238-0.269,3.291-0.56c0.044-0.022,0.089-0.045,0.134-0.045
		c0.09,0,0.18,0.067,0.224,0.201l0.247,0.851v0.09c0,0.112-0.09,0.179-0.225,0.246c-0.896,0.358-2.372,0.649-3.85,0.649
		c-4.388,0-5.686-2.037-5.686-6.156c0-3.782,0.761-6.178,5.192-6.178c2.351,0,3.716,0.717,4.455,1.992
		c0.582,1.008,0.716,2.396,0.716,3.939V200.08z M754.006,196.363c-0.403-1.433-1.276-1.902-3.089-1.902
		c-1.791,0-2.664,0.47-3.045,1.902c-0.224,0.829-0.246,1.702-0.269,2.53l6.671-0.022
		C754.252,198.02,754.207,197.192,754.006,196.363z"/>
	<path d="M762.799,204.825c0,0.156-0.112,0.201-0.18,0.224c-0.179,0.09-0.783,0.269-1.589,0.269c-1.344,0-2.238-0.649-2.238-2.306
		v-14.169c0-0.18,0.111-0.246,0.269-0.269l1.208-0.313h0.067c0.157,0,0.224,0.156,0.224,0.291v14.415
		c0,0.807,0.56,0.918,1.008,0.918c0.313,0,0.672-0.045,0.783-0.089h0.112c0.066,0,0.134,0.021,0.156,0.156l0.157,0.783
		C762.776,204.78,762.799,204.802,762.799,204.825z"/>
	<path d="M768.37,205.384c-1.97,0-3.671-0.649-3.962-0.761c-0.09-0.045-0.18-0.09-0.18-0.225v-0.066l0.225-0.873
		c0.022-0.112,0.089-0.202,0.246-0.202h0.111c0.18,0.067,1.769,0.649,3.604,0.649c1.902,0,2.999-0.604,2.999-1.97
		c0-1.857-1.433-1.791-3.179-2.06c-1.097-0.179-3.895-0.38-3.895-3.335c0-2.888,2.574-3.492,4.544-3.492
		c1.926,0,3.402,0.403,3.649,0.47c0.156,0.022,0.224,0.135,0.224,0.247v0.044l-0.157,0.985c-0.022,0.134-0.111,0.179-0.201,0.179
		h-0.045c-0.313-0.022-1.97-0.425-3.29-0.425c-1.612,0-2.955,0.447-2.955,1.857c0,1.522,1.522,1.701,2.91,1.881
		c2.015,0.269,4.186,0.425,4.186,3.47C773.205,204.667,770.967,205.384,768.37,205.384z"/>
	<path d="M785.532,200.08c-0.022,0.111-0.179,0.29-0.291,0.29h-8.215c0,1.231,0.224,1.926,0.694,2.508
		c0.648,0.828,1.746,1.074,3.312,1.074c1.388,0,2.238-0.269,3.291-0.56c0.044-0.022,0.089-0.045,0.134-0.045
		c0.09,0,0.18,0.067,0.224,0.201l0.247,0.851v0.09c0,0.112-0.09,0.179-0.225,0.246c-0.896,0.358-2.372,0.649-3.85,0.649
		c-4.388,0-5.686-2.037-5.686-6.156c0-3.782,0.761-6.178,5.192-6.178c2.351,0,3.716,0.717,4.455,1.992
		c0.582,1.008,0.716,2.396,0.716,3.939V200.08z M783.406,196.363c-0.403-1.433-1.276-1.902-3.089-1.902
		c-1.791,0-2.664,0.47-3.045,1.902c-0.224,0.829-0.246,1.702-0.269,2.53l6.671-0.022
		C783.652,198.02,783.607,197.192,783.406,196.363z"/>
	<path d="M793.9,194.618c-1.478,0-2.687,0.111-3.94,0.425v9.715c0,0.201-0.111,0.336-0.313,0.336h-1.119
		c0,0-0.335-0.135-0.335-0.336v-9.334c0-0.985,0.201-1.276,0.962-1.635c0.985-0.447,3-0.738,4.074-0.738h0.56
		c0.112,0,0.313,0.045,0.313,0.336v0.963C794.102,194.505,794.057,194.618,793.9,194.618z"/>
</g>
<g>
	<g>
		<path d="M103.555,209.698c-4.287,0-7.345-0.879-8.504-1.336c-0.281-0.105-0.422-0.245-0.422-0.456c0-0.07,0-0.141,0.035-0.176
			l0.492-1.688c0.07-0.141,0.211-0.245,0.387-0.245c0.105,0,0.175,0.035,0.28,0.035c2.46,0.843,5.271,1.194,7.556,1.194
			c3.128,0,6.255-1.3,6.255-4.744c0-4.709-3.76-4.639-8.645-5.131c-0.281,0-0.562-0.141-0.562-0.456v-1.652
			c0-0.316,0.246-0.421,0.562-0.421c5.096-0.387,8.188-1.02,8.188-4.709c0-3.444-2.6-4.393-6.149-4.393
			c-3.197,0-5.833,0.737-7.695,1.3c-0.105,0.035-0.176,0.035-0.246,0.035c-0.211,0-0.352-0.07-0.422-0.281l-0.422-1.581
			c-0.035-0.105-0.035-0.211-0.035-0.281c0-0.211,0.105-0.352,0.352-0.457c1.44-0.598,4.709-1.44,8.926-1.44
			c5.692,0,8.75,2.46,8.75,6.747c0,4.99-4.111,5.587-5.096,5.833v0.879c0.387,0.176,5.553,0.246,5.553,6.185
			C112.691,207.941,108.088,209.698,103.555,209.698z"/>
		<path d="M127.905,209.698c-8.188,0-9.98-4.357-10.016-13.354v-0.281c-0.035-8.083,1.757-13.248,11.245-13.248
			c3.936,0,6.606,0.808,6.606,0.808c0.176,0,0.316,0.176,0.316,0.316v0.07l-0.387,1.968c-0.035,0.176-0.176,0.281-0.316,0.281h-0.07
			c-2.425-0.527-4.076-0.737-6.642-0.737c-5.446,0-7.59,2.529-7.73,8.363c0,0,3.9-1.371,7.274-1.371
			c5.657,0,9.522,2.495,9.522,8.646C137.709,207.062,133.773,209.698,127.905,209.698z M128.046,195.184
			c-2.108,0-5.061,0.492-7.063,1.23v1.265c-0.07,6.993,1.897,9.418,6.958,9.418c4.498,0,6.677-1.827,6.677-5.974
			C134.617,196.906,132.052,195.184,128.046,195.184z"/>
		<path d="M146.955,209.241h-3.058c-0.316,0-0.527-0.211-0.527-0.527v-2.249c0-0.316,0.211-0.527,0.527-0.527h3.058
			c0.316,0,0.527,0.211,0.527,0.527v2.249C147.482,209.03,147.271,209.241,146.955,209.241z"/>
		<path d="M164.035,209.698c-9.769,0-10.894-6.642-10.894-13.424s1.125-13.459,10.894-13.459c9.734,0,10.894,6.677,10.894,13.459
			S173.77,209.698,164.035,209.698z M164,185.416c-6.747,0-7.66,4.076-7.66,10.823c0,6.782,0.913,10.858,7.66,10.858
			c6.782,0,7.731-4.076,7.731-10.858S170.782,185.416,164,185.416z"/>
		<path d="M190.18,209.698c-9.769,0-10.894-6.642-10.894-13.424s1.125-13.459,10.894-13.459c9.734,0,10.894,6.677,10.894,13.459
			S199.914,209.698,190.18,209.698z M190.145,185.416c-6.747,0-7.66,4.076-7.66,10.823c0,6.782,0.913,10.858,7.66,10.858
			c6.782,0,7.731-4.076,7.731-10.858S196.927,185.416,190.145,185.416z"/>
		<path d="M216.324,209.698c-9.769,0-10.894-6.642-10.894-13.424s1.125-13.459,10.894-13.459c9.734,0,10.894,6.677,10.894,13.459
			S226.059,209.698,216.324,209.698z M216.289,185.416c-6.747,0-7.66,4.076-7.66,10.823c0,6.782,0.913,10.858,7.66,10.858
			c6.782,0,7.731-4.076,7.731-10.858S223.071,185.416,216.289,185.416z"/>
	</g>
</g>
<g>
</g>
<g>
</g>
<g>
</g>
<g>
</g>
<g>
</g>
<g>
</g>
</svg>
