<?xml version="1.0" encoding="utf-8"?>
<!-- Generator: Adobe Illustrator 16.0.4, SVG Export Plug-In . SVG Version: 6.00 Build 0)  -->
<!DOCTYPE svg PUBLIC "-//W3C//DTD SVG 1.1//EN" "http://www.w3.org/Graphics/SVG/1.1/DTD/svg11.dtd">
<svg version="1.1" id="Layer_1" xmlns="http://www.w3.org/2000/svg" xmlns:xlink="http://www.w3.org/1999/xlink" x="0px" y="0px"
	 width="1115.43px" height="517.497px" viewBox="0 0 1115.43 517.497" enable-background="new 0 0 1115.43 517.497"
	 xml:space="preserve">
<g>
	<g>
		<polygon fill="#FFFFFF" points="833.244,282.48 770.242,301.299 765.666,294.081 767.979,286.438 832.38,268.226 		"/>
		<path fill="#A42423" d="M671.388,290.375l97.662,10.996l2.11,0.238c0,0-4.438-3.893-2.389-14.898l-96.472-9.836
			C672.301,276.875,667.222,278.855,671.388,290.375z"/>
		<polygon fill="#A42423" points="672.338,276.874 737.666,261.234 832.38,268.226 767.979,286.438 		"/>
	</g>
	<g>
		<polygon fill="#FFFFFF" points="829.611,264.118 766.605,282.934 762.037,275.713 763.321,251.222 827.98,237.224 		"/>
		<path fill="#0E8CCD" d="M667.758,272.01l97.66,10.996l2.104,0.238c0,0-5.453-20.746-3.406-31.752l-96.473-9.835
			C667.645,241.657,663.591,260.491,667.758,272.01z"/>
		<polygon fill="#0E8CCD" points="667.684,241.655 741.161,224.392 830.018,236.509 763.321,251.222 		"/>
	</g>
</g>
</svg>
