<?xml version="1.0" encoding="utf-8"?>
<!-- Generator: Adobe Illustrator 16.0.4, SVG Export Plug-In . SVG Version: 6.00 Build 0)  -->
<!DOCTYPE svg PUBLIC "-//W3C//DTD SVG 1.1//EN" "http://www.w3.org/Graphics/SVG/1.1/DTD/svg11.dtd">
<svg version="1.1" id="Layer_1" xmlns="http://www.w3.org/2000/svg" xmlns:xlink="http://www.w3.org/1999/xlink" x="0px" y="0px"
	 width="1115.43px" height="517.497px" viewBox="0 0 1115.43 517.497" enable-background="new 0 0 1115.43 517.497"
	 xml:space="preserve">
<g>
	<polygon fill="#FFFFFF" points="822.254,150.033 770.484,201.092 716.599,125.552 768.369,74.493 	"/>
	<polygon fill="#FFFFFF" points="826.767,154.82 771.293,201.457 717.406,125.918 777.213,73.834 	"/>
	<polygon fill="#0E8CCD" points="835.974,153.904 770.203,202.233 713.411,128.764 785.578,76.348 	"/>
	<g>
		<path fill="#C3E5F6" d="M790.653,117.804c2.152,3.67,1.094,8.714-2.354,11.208l-26.861,19.439
			c-3.447,2.495-8.507,1.87-11.243-1.389l-7.389-8.798c-2.736-3.258-2.149-7.958,1.304-10.443l30.58-22.006
			c3.453-2.485,8.041-1.516,10.193,2.154L790.653,117.804z"/>
	</g>
	
		<line fill="none" stroke="#110906" stroke-width="1.2723" stroke-miterlimit="10" x1="751.742" y1="134.394" x2="778.546" y2="115.913"/>
	
		<line fill="none" stroke="#110906" stroke-width="1.2723" stroke-miterlimit="10" x1="755.199" y1="136.938" x2="782.006" y2="118.457"/>
	
		<line fill="none" stroke="#110906" stroke-width="1.2723" stroke-miterlimit="10" x1="756.844" y1="140.778" x2="783.647" y2="122.297"/>
</g>
<g>
</g>
<g>
</g>
<g>
</g>
<g>
</g>
<g>
</g>
<g>
</g>
</svg>
