<?xml version="1.0" encoding="utf-8"?>
<!-- Generator: Adobe Illustrator 16.0.4, SVG Export Plug-In . SVG Version: 6.00 Build 0)  -->
<!DOCTYPE svg PUBLIC "-//W3C//DTD SVG 1.1//EN" "http://www.w3.org/Graphics/SVG/1.1/DTD/svg11.dtd">
<svg version="1.1" id="Layer_1" xmlns="http://www.w3.org/2000/svg" xmlns:xlink="http://www.w3.org/1999/xlink" x="0px" y="0px"
	 width="1115.43px" height="517.497px" viewBox="0 0 1115.43 517.497" enable-background="new 0 0 1115.43 517.497"
	 xml:space="preserve">
<g>
	<polygon fill="#FFFFFF" points="1029.8,163.784 960.676,167.424 1011.969,247.558 1083.776,235.397 	"/>
	<polygon fill="#0E8CCD" points="1029.169,170.403 1038.694,183.62 984.719,187.379 974.529,173.793 	"/>
	<path fill="#C3E5F6" d="M1083.739,235.465c0,0.051-9.039,9.018-9.039,9.018l-62.615,11.523l-0.265-8.082
		C1011.82,247.924,1083.739,235.311,1083.739,235.465z"/>
	<path fill="#0DA2DD" d="M960.676,167.718c0,0,0.293,16.388,0.293,14.689c0-1.699,50.355,74.393,50.355,74.393l1.907-9.614
		L960.676,167.718z"/>
	<g>
		<path fill="none" d="M1028.723,199.392l4.285-0.506l6.219,8.052c-1.436,0.191-2.915,0.388-4.416,0.585L1028.723,199.392z"/>
		<path fill="none" d="M1042.86,211.645l5.328,6.899c-1.521,0.201-3.083,0.407-4.666,0.614l-5.1-6.81
			C1039.942,212.107,1041.427,211.871,1042.86,211.645z"/>
		<path fill="none" d="M1030.185,220.889c-1.691,0.216-3.34,0.428-4.93,0.632l-4.742-6.337c1.527-0.241,3.097-0.489,4.691-0.741
			L1030.185,220.889z"/>
		<path fill="none" d="M1021.226,209.288c-1.595,0.206-3.163,0.405-4.679,0.601l-6.235-8.33l4.533-0.534L1021.226,209.288z"/>
		<path fill="#0DA2DD" d="M1033.008,198.886l13.889-1.633l5.854,7.82c-3.301,0.485-8.112,1.145-13.524,1.864L1033.008,198.886z"/>
		<path fill="#A42423" d="M1024.271,187.571l14.664-0.951l4.948,6.608c-3.302,0.353-8.346,0.907-14.056,1.542L1024.271,187.571z"/>
		<path fill="#0DA2DD" d="M1071.943,229.542l-13.874,3.098l-6.226-9.363c5.204-0.827,9.816-1.562,12.983-2.072L1071.943,229.542z"/>
		<path fill="#0DA2DD" d="M1042.86,211.645c5.547-0.883,10.322-1.645,13.227-2.116l5.388,7.201
			c-3.46,0.497-8.141,1.131-13.286,1.814L1042.86,211.645z"/>
		<path fill="#0DA2DD" d="M1038.423,212.349l5.1,6.81c-4.422,0.581-9.009,1.174-13.338,1.73l-4.98-6.446
			C1029.58,213.751,1034.128,213.028,1038.423,212.349z"/>
		<path fill="#0DA2DD" d="M1053.609,233.116l-13.627,2.148l-5.796-9.19c4.258-0.674,8.717-1.379,12.975-2.055L1053.609,233.116z"/>
		<path fill="#0DA2DD" d="M1005.743,189.24l14.666-0.952l5.204,6.949c-4.604,0.512-9.443,1.051-14.03,1.564L1005.743,189.24z"/>
		<path fill="#0DA2DD" d="M1021.226,209.288l-6.381-8.264l13.878-1.633l6.088,8.131
			C1030.353,208.109,1025.676,208.717,1021.226,209.288z"/>
		<path fill="#0DA2DD" d="M986.961,190.909l14.665-0.953l5.498,7.345c-5.805,0.648-10.863,1.217-14.015,1.57L986.961,190.909z"/>
		<path fill="#0DA2DD" d="M1016.547,209.889c-5.514,0.706-10.371,1.321-13.595,1.728l-6.507-8.426l13.866-1.632L1016.547,209.889z"
			/>
		<path fill="#A42423" d="M1007.315,217.268c3.345-0.526,8.016-1.264,13.197-2.084l14.514,21.511l-13.378,2.861L1007.315,217.268z"
			/>
	</g>
</g>
<g>
</g>
<g>
</g>
<g>
</g>
<g>
</g>
<g>
</g>
<g>
</g>
</svg>
