<?xml version="1.0" encoding="utf-8"?>
<!-- Generator: Adobe Illustrator 16.0.4, SVG Export Plug-In . SVG Version: 6.00 Build 0)  -->
<!DOCTYPE svg PUBLIC "-//W3C//DTD SVG 1.1//EN" "http://www.w3.org/Graphics/SVG/1.1/DTD/svg11.dtd">
<svg version="1.1" id="Layer_1" xmlns="http://www.w3.org/2000/svg" xmlns:xlink="http://www.w3.org/1999/xlink" x="0px" y="0px"
	 width="1115.43px" height="517.497px" viewBox="0 0 1115.43 517.497" enable-background="new 0 0 1115.43 517.497"
	 xml:space="preserve">
<g>
	<path fill="#FFFFFF" d="M821.743,390.876l135.504,25.487l-100.503,34.549c0,0-130.556-34.131-127.64-32.866
		C732.019,419.311,821.743,390.876,821.743,390.876z"/>
	<path fill="#FFFFFF" d="M821.743,390.876c2.354-3.828,1.665-90.492,1.665-90.492l147.855,12.991l-14.017,102.988L821.743,390.876z"
		/>
	<path fill="#C3E5F6" d="M823.336,301.213l23.292-1.019c0,0,135.249,11.612,131.157,12.262c-4.093,0.65-6.594,1.749-6.594,1.749
		L823.336,301.213z"/>
	<polygon fill="#0DA2DD" points="856.744,450.912 859.005,462.285 960.523,423.247 976.969,312.928 971.191,314.205 
		957.247,416.363 	"/>
	<path fill="#C3E5F6" d="M729.104,418.046c1.278-0.431,2.312,8.118,2.312,8.118l127.288,36.198l-1.96-11.45L729.104,418.046z"/>
	<path fill="#0E8CCD" d="M830.092,309.695c-1.389,1.732-1.608,74.63,0.178,75.404s117.896,22.732,117.896,22.732l13.807-86.555
		L830.092,309.695z"/>
	<polygon fill="#110906" points="823.445,399.344 929.967,417.975 917.828,422.47 809.577,402.452 	"/>
	<path fill="#110906" d="M875.457,419.365c1.785,0.774,34.129,5.471,34.129,5.471l-49.056,16.703l-15.837-2.628l34.464-12.423
		l-14.45-4.359L875.457,419.365z"/>
	<polygon fill="#110906" points="800.109,404.71 756.444,416.324 833.761,436.715 864.165,428.29 852.172,424.117 870.604,418.321 	
		"/>
</g>
<g>
</g>
<g>
</g>
<g>
</g>
<g>
</g>
<g>
</g>
<g>
</g>
</svg>
