<?xml version="1.0" encoding="utf-8"?>
<!-- Generator: Adobe Illustrator 16.0.4, SVG Export Plug-In . SVG Version: 6.00 Build 0)  -->
<!DOCTYPE svg PUBLIC "-//W3C//DTD SVG 1.1//EN" "http://www.w3.org/Graphics/SVG/1.1/DTD/svg11.dtd">
<svg version="1.1" id="Layer_1" xmlns="http://www.w3.org/2000/svg" xmlns:xlink="http://www.w3.org/1999/xlink" x="0px" y="0px"
	 width="1115.43px" height="517.497px" viewBox="0 0 1115.43 517.497" enable-background="new 0 0 1115.43 517.497"
	 xml:space="preserve">
<g>
	<g>
		<path fill="#0DA2DD" d="M860.342,95.913c9.424-25.23,39.424-38.428,67.01-29.474c27.587,8.954,42.312,36.671,32.887,61.903
			c-9.424,25.232-39.426,38.428-67.014,29.472C865.642,148.86,850.92,121.147,860.342,95.913z"/>
		<g>
			<defs>
				<path id="SVGID_1_" d="M860.626,96.051c4.647-12.438,14.312-21.949,26.217-27.303c12.184-5.478,26.713-6.611,40.625-2.097
					c27.518,8.935,42.203,36.578,32.805,61.748c-9.401,25.166-39.327,38.329-66.843,29.397
					C865.912,148.865,851.227,121.221,860.626,96.051z"/>
			</defs>
			<clipPath id="SVGID_2_">
				<use xlink:href="#SVGID_1_"  overflow="visible"/>
			</clipPath>
			<path clip-path="url(#SVGID_2_)" fill="#ACC213" d="M881.611,38.432c0,0-21.205,14.86,4.263,30.507
				c25.47,15.646,4.631,25.188,1.574,26.14c-3.057,0.95,18.812,4.556,28.328,2.207c9.518-2.349-6.684-25.468,6.425-25.876
				c13.108-0.403,19.133,6.601,35.89,10.875c16.761,4.273,30.436-4.875,23.487-13.732c-6.953-8.857-53.315-33.617-59.477-34.453
				C915.933,33.263,881.611,38.432,881.611,38.432z"/>
			<path clip-path="url(#SVGID_2_)" fill="#ACC213" d="M896.549,106.173c0.93-0.628,19.499,9.512,25.385,19.379
				c5.883,9.867-15.645,26.75-18.902,28.478c-3.252,1.729-25.574,4.43-22.8-1.832c2.77-6.259,14.545-19.149,14.572-22.72
				C894.831,125.905,882.603,115.569,896.549,106.173z"/>
			<path clip-path="url(#SVGID_2_)" fill="#ACC213" d="M961.987,110.306c-8.687-0.033-29.513-5.997-26.892,6.787
				c2.619,12.788-9.399,24.005,4.024,31.145c13.428,7.145,33.748,10.955,29.097-6.864
				C963.565,123.551,961.987,110.306,961.987,110.306z"/>
		</g>
	</g>
	<path fill="#0E8CCD" d="M952.615,66.901c-9.081-6.228-19.38-11.176-29.811-13.973c-0.632-0.17-1.264-0.331-1.898-0.484
		c-1.043,5.391-1.196,4.552,3.052,5.92c5.334,1.721,10.563,3.872,15.62,6.432c13.652,6.907,27.74,17.639,32.962,34.099
		c6.976,21.978-8.502,49.23-26.396,60.284c-18.594,11.486-38.6,9.673-57.985,2.28c-0.393,2.17-1.95,4.511,0.342,5.314
		c1.956,0.685,3.931,1.311,5.916,1.883c4.155,1.201,8.366,2.156,12.614,2.854c7.496,1.228,14.763,0.851,22.184-0.687
		c12.488-2.588,21.685-5.971,30.528-15.525c10.56-11.407,19.567-28.133,19.166-44.479C978.432,91.529,966.718,76.572,952.615,66.901
		C937.504,56.54,973.036,80.904,952.615,66.901z"/>
	<path fill="#0E8CCD" d="M890.976,206.244c0,0,6.571-29.87,16.02-30.253c9.446-0.384,20.128,30.637,20.128,30.637
		S901.247,210.456,890.976,206.244z"/>
	<polygon fill="#0E8CCD" points="924.278,62.048 931.332,63.145 936.625,50.537 928.327,48.549 	"/>
	<polygon fill="#0E8CCD" points="895.241,162.164 888.237,160.82 882.437,173.231 890.646,175.511 	"/>
</g>
<g>
</g>
<g>
</g>
<g>
</g>
<g>
</g>
<g>
</g>
<g>
</g>
</svg>
