<?xml version="1.0" encoding="utf-8"?>
<!-- Generator: Adobe Illustrator 16.0.4, SVG Export Plug-In . SVG Version: 6.00 Build 0)  -->
<!DOCTYPE svg PUBLIC "-//W3C//DTD SVG 1.1//EN" "http://www.w3.org/Graphics/SVG/1.1/DTD/svg11.dtd">
<svg version="1.1" id="Layer_1" xmlns="http://www.w3.org/2000/svg" xmlns:xlink="http://www.w3.org/1999/xlink" x="0px" y="0px"
	 width="1115.43px" height="517.497px" viewBox="0 0 1115.43 517.497" enable-background="new 0 0 1115.43 517.497"
	 xml:space="preserve">
<g>
	<path fill="#0E8CCD" d="M870.545,287.341l-2.308-6.606l89.245-40.097c0,0,7.873-2.421,4.379,5.994L870.545,287.341z"/>
	<path fill="#0E8CCD" d="M868.24,279.403c0,0,88.104-38.722,89.158-40.281c4.114-6.078-0.912-4.324-0.912-4.324l-87.174,39.323
		L868.24,279.403z"/>
	<path fill="#0E8CCD" d="M871.495,288.146c0,0,87.812-39.386,89.673-39.124c7.269,1.026,2.598,3.578,2.598,3.578l-87.633,38.293
		L871.495,288.146z"/>
	<path fill="#FFFFFF" d="M963.766,252.601c0.764,0.318,14.627-13.578,14.627-13.578l-2.386-6.263l-19.521,2.038
		C956.486,234.798,951.953,247.658,963.766,252.601z"/>
	<path fill="#0E8CCD" d="M978.393,239.022l-3.529-1.751l1.144-4.512c0,0,6.851-1.662,8.255-0.494
		C985.663,233.435,978.393,239.022,978.393,239.022z"/>
</g>
<g>
</g>
<g>
</g>
<g>
</g>
<g>
</g>
<g>
</g>
<g>
</g>
</svg>
