<?xml version="1.0" encoding="utf-8"?>
<!-- Generator: Adobe Illustrator 16.0.4, SVG Export Plug-In . SVG Version: 6.00 Build 0)  -->
<!DOCTYPE svg PUBLIC "-//W3C//DTD SVG 1.1//EN" "http://www.w3.org/Graphics/SVG/1.1/DTD/svg11.dtd">
<svg version="1.1" id="Layer_1" xmlns="http://www.w3.org/2000/svg" xmlns:xlink="http://www.w3.org/1999/xlink" x="0px" y="0px"
	 width="1774.997px" height="552.96px" viewBox="0 0 1774.997 552.96" enable-background="new 0 0 1774.997 552.96"
	 xml:space="preserve">
<pattern  x="588.97" y="-271.611" width="86.081" height="74.172" patternUnits="userSpaceOnUse" id="Unnamed_Pattern_9" viewBox="0 -74.172 86.081 74.172" overflow="visible">
	<g>
		<polygon fill="none" points="0,-74.172 86.082,-74.172 86.082,0 0,0 		"/>
		<path fill="#2EBDEF" d="M27.879-4.633c0-0.561-0.455-1.018-1.017-1.018s-1.019,0.457-1.019,1.018c0,0.562,0.457,1.021,1.019,1.021
			S27.879-4.07,27.879-4.633"/>
		<path fill="#2EBDEF" d="M27.879-9.266c0-0.561-0.455-1.018-1.017-1.018s-1.019,0.457-1.019,1.018c0,0.564,0.457,1.021,1.019,1.021
			S27.879-8.701,27.879-9.266"/>
		<path fill="#2EBDEF" d="M27.879-32.424c0-0.562-0.455-1.018-1.017-1.018s-1.019,0.455-1.019,1.018
			c0,0.562,0.457,1.018,1.019,1.018S27.879-31.862,27.879-32.424"/>
		<path fill="#2EBDEF" d="M27.879-13.895c0-0.562-0.455-1.021-1.017-1.021s-1.019,0.458-1.019,1.021
			c0,0.561,0.457,1.018,1.019,1.018S27.879-13.334,27.879-13.895"/>
		<path fill="#2EBDEF" d="M27.879-27.791c0-0.562-0.455-1.02-1.017-1.02s-1.019,0.458-1.019,1.02c0,0.562,0.457,1.018,1.019,1.018
			S27.879-27.229,27.879-27.791"/>
		<path fill="#2EBDEF" d="M27.879-18.527c0-0.562-0.455-1.021-1.017-1.021s-1.019,0.458-1.019,1.021
			c0,0.562,0.457,1.018,1.019,1.018S27.879-17.966,27.879-18.527"/>
		<path fill="#2EBDEF" d="M27.879-23.158c0-0.564-0.455-1.02-1.017-1.02s-1.019,0.455-1.019,1.02c0,0.561,0.457,1.016,1.019,1.016
			S27.879-22.598,27.879-23.158"/>
		<path fill="#2EBDEF" d="M33.253-64.846c0-0.562-0.457-1.018-1.018-1.018c-0.564,0-1.019,0.456-1.019,1.018
			c0,0.561,0.455,1.018,1.019,1.018C32.796-63.828,33.253-64.285,33.253-64.846"/>
		<path fill="#2EBDEF" d="M33.253-74.109c0-0.021-0.002-0.043-0.004-0.062H31.22c-0.002,0.019-0.004,0.04-0.004,0.062
			c0,0.562,0.455,1.018,1.019,1.018C32.796-73.092,33.253-73.548,33.253-74.109"/>
		<path fill="#2EBDEF" d="M33.253-41.688c0-0.561-0.457-1.018-1.018-1.018c-0.564,0-1.019,0.457-1.019,1.018
			c0,0.562,0.455,1.021,1.019,1.021C32.796-40.667,33.253-41.125,33.253-41.688"/>
		<path fill="#2EBDEF" d="M33.253-37.055c0-0.564-0.457-1.02-1.018-1.02c-0.564,0-1.019,0.455-1.019,1.02
			c0,0.562,0.455,1.018,1.019,1.018C32.796-36.037,33.253-36.493,33.253-37.055"/>
		<path fill="#2EBDEF" d="M33.253-46.318c0-0.562-0.457-1.02-1.018-1.02c-0.564,0-1.019,0.457-1.019,1.02
			c0,0.562,0.455,1.018,1.019,1.018C32.796-45.301,33.253-45.757,33.253-46.318"/>
		<path fill="#2EBDEF" d="M33.253-32.424c0-0.562-0.457-1.018-1.018-1.018c-0.564,0-1.019,0.455-1.019,1.018
			c0,0.562,0.455,1.018,1.019,1.018C32.796-31.406,33.253-31.862,33.253-32.424"/>
		<path fill="#2EBDEF" d="M33.253-55.582c0-0.562-0.457-1.018-1.018-1.018c-0.564,0-1.019,0.455-1.019,1.018
			c0,0.562,0.455,1.018,1.019,1.018C32.796-54.564,33.253-55.021,33.253-55.582"/>
		<path fill="#2EBDEF" d="M33.253-50.951c0-0.562-0.457-1.018-1.018-1.018c-0.564,0-1.019,0.456-1.019,1.018
			s0.455,1.018,1.019,1.018C32.796-49.934,33.253-50.39,33.253-50.951"/>
		<path fill="#2EBDEF" d="M33.253-60.215c0-0.562-0.457-1.018-1.018-1.018c-0.564,0-1.019,0.455-1.019,1.018
			c0,0.562,0.455,1.018,1.019,1.018C32.796-59.197,33.253-59.653,33.253-60.215"/>
		<path fill="#2EBDEF" d="M33.253-69.479c0-0.562-0.457-1.018-1.018-1.018c-0.564,0-1.019,0.456-1.019,1.018
			c0,0.564,0.455,1.018,1.019,1.018C32.796-68.461,33.253-68.914,33.253-69.479"/>
		<path fill="#2EBDEF" d="M27.879-55.582c0-0.562-0.455-1.018-1.017-1.018s-1.019,0.455-1.019,1.018
			c0,0.562,0.457,1.018,1.019,1.018S27.879-55.021,27.879-55.582"/>
		<path fill="#2EBDEF" d="M22.508-23.158c0-0.564-0.456-1.02-1.018-1.02c-0.563,0-1.019,0.455-1.019,1.02
			c0,0.561,0.456,1.016,1.019,1.016C22.052-22.143,22.508-22.598,22.508-23.158"/>
		<path fill="#2EBDEF" d="M22.508-18.527c0-0.562-0.456-1.021-1.018-1.021c-0.563,0-1.019,0.458-1.019,1.021
			c0,0.562,0.456,1.018,1.019,1.018C22.052-17.51,22.508-17.966,22.508-18.527"/>
		<path fill="#2EBDEF" d="M22.508-4.633c0-0.561-0.456-1.018-1.018-1.018c-0.563,0-1.019,0.457-1.019,1.018
			c0,0.562,0.456,1.021,1.019,1.021C22.052-3.612,22.508-4.07,22.508-4.633"/>
		<path fill="#2EBDEF" d="M22.508-9.266c0-0.561-0.456-1.018-1.018-1.018c-0.563,0-1.019,0.457-1.019,1.018
			c0,0.564,0.456,1.021,1.019,1.021C22.052-8.245,22.508-8.701,22.508-9.266"/>
		<path fill="#2EBDEF" d="M27.879-37.055c0-0.564-0.455-1.02-1.017-1.02s-1.019,0.455-1.019,1.02c0,0.562,0.457,1.018,1.019,1.018
			S27.879-36.493,27.879-37.055"/>
		<path fill="#2EBDEF" d="M22.508-37.055c0-0.564-0.456-1.02-1.018-1.02c-0.563,0-1.019,0.455-1.019,1.02
			c0,0.562,0.456,1.018,1.019,1.018C22.052-36.037,22.508-36.493,22.508-37.055"/>
		<path fill="#2EBDEF" d="M22.508-27.791c0-0.562-0.456-1.02-1.018-1.02c-0.563,0-1.019,0.458-1.019,1.02
			c0,0.562,0.456,1.018,1.019,1.018C22.052-26.773,22.508-27.229,22.508-27.791"/>
		<path fill="#2EBDEF" d="M22.508-32.424c0-0.562-0.456-1.018-1.018-1.018c-0.563,0-1.019,0.455-1.019,1.018
			c0,0.562,0.456,1.018,1.019,1.018C22.052-31.406,22.508-31.862,22.508-32.424"/>
		<path fill="#2EBDEF" d="M22.508-13.895c0-0.562-0.456-1.021-1.018-1.021c-0.563,0-1.019,0.458-1.019,1.021
			c0,0.561,0.456,1.018,1.019,1.018C22.052-12.877,22.508-13.334,22.508-13.895"/>
		<path fill="#2EBDEF" d="M33.253-27.791c0-0.562-0.457-1.02-1.018-1.02c-0.564,0-1.019,0.458-1.019,1.02
			c0,0.562,0.455,1.018,1.019,1.018C32.796-26.773,33.253-27.229,33.253-27.791"/>
		<path fill="#2EBDEF" d="M27.879-50.951c0-0.562-0.455-1.018-1.017-1.018s-1.019,0.456-1.019,1.018s0.457,1.018,1.019,1.018
			S27.879-50.39,27.879-50.951"/>
		<path fill="#2EBDEF" d="M43.998-4.633c0-0.561-0.457-1.018-1.019-1.018s-1.017,0.457-1.017,1.018c0,0.562,0.455,1.021,1.017,1.021
			S43.998-4.07,43.998-4.633"/>
		<path fill="#2EBDEF" d="M27.879-41.688c0-0.561-0.455-1.018-1.017-1.018s-1.019,0.457-1.019,1.018
			c0,0.562,0.457,1.021,1.019,1.021S27.879-41.125,27.879-41.688"/>
		<path fill="#2EBDEF" d="M27.879-74.109c0-0.021,0-0.043-0.002-0.062h-2.031c0,0.019-0.003,0.04-0.003,0.062
			c0,0.562,0.457,1.018,1.019,1.018S27.879-73.548,27.879-74.109"/>
		<path fill="#2EBDEF" d="M27.879-60.215c0-0.562-0.455-1.018-1.017-1.018s-1.019,0.455-1.019,1.018
			c0,0.562,0.457,1.018,1.019,1.018S27.879-59.653,27.879-60.215"/>
		<path fill="#2EBDEF" d="M27.879-64.846c0-0.562-0.455-1.018-1.017-1.018s-1.019,0.456-1.019,1.018
			c0,0.561,0.457,1.018,1.019,1.018S27.879-64.285,27.879-64.846"/>
		<path fill="#2EBDEF" d="M27.879-69.479c0-0.562-0.455-1.018-1.017-1.018s-1.019,0.456-1.019,1.018
			c0,0.564,0.457,1.018,1.019,1.018S27.879-68.914,27.879-69.479"/>
		<path fill="#2EBDEF" d="M43.998-18.527c0-0.562-0.457-1.021-1.019-1.021s-1.017,0.458-1.017,1.021
			c0,0.562,0.455,1.018,1.017,1.018S43.998-17.966,43.998-18.527"/>
		<path fill="#2EBDEF" d="M43.998-69.479c0-0.562-0.457-1.018-1.019-1.018s-1.017,0.456-1.017,1.018
			c0,0.564,0.455,1.018,1.017,1.018S43.998-68.914,43.998-69.479"/>
		<path fill="#2EBDEF" d="M43.998-55.582c0-0.562-0.457-1.018-1.019-1.018s-1.017,0.455-1.017,1.018
			c0,0.562,0.455,1.018,1.017,1.018S43.998-55.021,43.998-55.582"/>
		<path fill="#2EBDEF" d="M43.998-60.215c0-0.562-0.457-1.018-1.019-1.018s-1.017,0.455-1.017,1.018
			c0,0.562,0.455,1.018,1.017,1.018S43.998-59.653,43.998-60.215"/>
		<path fill="#2EBDEF" d="M38.625-13.895c0-0.562-0.456-1.021-1.018-1.021s-1.017,0.458-1.017,1.021
			c0,0.561,0.455,1.018,1.017,1.018S38.625-13.334,38.625-13.895"/>
		<path fill="#2EBDEF" d="M38.625-9.266c0-0.561-0.456-1.018-1.018-1.018s-1.017,0.457-1.017,1.018c0,0.564,0.455,1.021,1.017,1.021
			S38.625-8.701,38.625-9.266"/>
		<path fill="#2EBDEF" d="M38.625-4.633c0-0.561-0.456-1.018-1.018-1.018s-1.017,0.457-1.017,1.018c0,0.562,0.455,1.021,1.017,1.021
			S38.625-4.07,38.625-4.633"/>
		<path fill="#2EBDEF" d="M43.998-46.318c0-0.562-0.457-1.02-1.019-1.02s-1.017,0.457-1.017,1.02c0,0.562,0.455,1.018,1.017,1.018
			S43.998-45.757,43.998-46.318"/>
		<path fill="#2EBDEF" d="M43.998-74.109c0-0.021-0.002-0.043-0.004-0.062h-2.029c-0.002,0.019-0.003,0.04-0.003,0.062
			c0,0.562,0.455,1.018,1.017,1.018S43.998-73.548,43.998-74.109"/>
		<path fill="#2EBDEF" d="M43.998-64.846c0-0.562-0.457-1.018-1.019-1.018s-1.017,0.456-1.017,1.018
			c0,0.561,0.455,1.018,1.017,1.018S43.998-64.285,43.998-64.846"/>
		<path fill="#2EBDEF" d="M43.998-50.951c0-0.562-0.457-1.018-1.019-1.018s-1.017,0.456-1.017,1.018s0.455,1.018,1.017,1.018
			S43.998-50.39,43.998-50.951"/>
		<path fill="#2EBDEF" d="M43.998-13.895c0-0.562-0.457-1.021-1.019-1.021s-1.017,0.458-1.017,1.021
			c0,0.561,0.455,1.018,1.017,1.018S43.998-13.334,43.998-13.895"/>
		<path fill="#2EBDEF" d="M43.998-41.688c0-0.561-0.457-1.018-1.019-1.018s-1.017,0.457-1.017,1.018
			c0,0.562,0.455,1.021,1.017,1.021S43.998-41.125,43.998-41.688"/>
		<path fill="#2EBDEF" d="M22.508-41.688c0-0.561-0.456-1.018-1.018-1.018c-0.563,0-1.019,0.457-1.019,1.018
			c0,0.562,0.456,1.021,1.019,1.021C22.052-40.667,22.508-41.125,22.508-41.688"/>
		<path fill="#2EBDEF" d="M43.998-9.266c0-0.561-0.457-1.018-1.019-1.018s-1.017,0.457-1.017,1.018c0,0.564,0.455,1.021,1.017,1.021
			S43.998-8.701,43.998-9.266"/>
		<path fill="#2EBDEF" d="M43.998-23.158c0-0.564-0.457-1.02-1.019-1.02s-1.017,0.455-1.017,1.02c0,0.561,0.455,1.016,1.017,1.016
			S43.998-22.598,43.998-23.158"/>
		<path fill="#2EBDEF" d="M43.998-27.791c0-0.562-0.457-1.02-1.019-1.02s-1.017,0.458-1.017,1.02c0,0.562,0.455,1.018,1.017,1.018
			S43.998-27.229,43.998-27.791"/>
		<path fill="#2EBDEF" d="M43.998-37.055c0-0.564-0.457-1.02-1.019-1.02s-1.017,0.455-1.017,1.02c0,0.562,0.455,1.018,1.017,1.018
			S43.998-36.493,43.998-37.055"/>
		<path fill="#2EBDEF" d="M43.998-32.424c0-0.562-0.457-1.018-1.019-1.018s-1.017,0.455-1.017,1.018
			c0,0.562,0.455,1.018,1.017,1.018S43.998-31.862,43.998-32.424"/>
		<path fill="#2EBDEF" d="M38.625-74.109c0-0.021-0.001-0.043-0.003-0.062h-2.029c-0.002,0.019-0.003,0.04-0.003,0.062
			c0,0.562,0.455,1.018,1.017,1.018S38.625-73.548,38.625-74.109"/>
		<path fill="#2EBDEF" d="M38.625-64.846c0-0.562-0.456-1.018-1.018-1.018s-1.017,0.456-1.017,1.018
			c0,0.561,0.455,1.018,1.017,1.018S38.625-64.285,38.625-64.846"/>
		<path fill="#2EBDEF" d="M33.253-4.633c0-0.561-0.457-1.018-1.018-1.018c-0.564,0-1.019,0.457-1.019,1.018
			c0,0.562,0.455,1.021,1.019,1.021C32.796-3.612,33.253-4.07,33.253-4.633"/>
		<path fill="#2EBDEF" d="M33.253-23.158c0-0.564-0.457-1.02-1.018-1.02c-0.564,0-1.019,0.455-1.019,1.02
			c0,0.561,0.455,1.016,1.019,1.016C32.796-22.143,33.253-22.598,33.253-23.158"/>
		<path fill="#2EBDEF" d="M38.625-60.215c0-0.562-0.456-1.018-1.018-1.018s-1.017,0.455-1.017,1.018
			c0,0.562,0.455,1.018,1.017,1.018S38.625-59.653,38.625-60.215"/>
		<path fill="#2EBDEF" d="M38.625-69.479c0-0.562-0.456-1.018-1.018-1.018s-1.017,0.456-1.017,1.018
			c0,0.564,0.455,1.018,1.017,1.018S38.625-68.914,38.625-69.479"/>
		<path fill="#2EBDEF" d="M33.253-18.527c0-0.562-0.457-1.021-1.018-1.021c-0.564,0-1.019,0.458-1.019,1.021
			c0,0.562,0.455,1.018,1.019,1.018C32.796-17.51,33.253-17.966,33.253-18.527"/>
		<path fill="#2EBDEF" d="M33.253-9.266c0-0.561-0.457-1.018-1.018-1.018c-0.564,0-1.019,0.457-1.019,1.018
			c0,0.564,0.455,1.021,1.019,1.021C32.796-8.245,33.253-8.701,33.253-9.266"/>
		<path fill="#2EBDEF" d="M33.253-13.895c0-0.562-0.457-1.021-1.018-1.021c-0.564,0-1.019,0.458-1.019,1.021
			c0,0.561,0.455,1.018,1.019,1.018C32.796-12.877,33.253-13.334,33.253-13.895"/>
		<path fill="#2EBDEF" d="M38.625-18.527c0-0.562-0.456-1.021-1.018-1.021s-1.017,0.458-1.017,1.021
			c0,0.562,0.455,1.018,1.017,1.018S38.625-17.966,38.625-18.527"/>
		<path fill="#2EBDEF" d="M38.625-32.424c0-0.562-0.456-1.018-1.018-1.018s-1.017,0.455-1.017,1.018
			c0,0.562,0.455,1.018,1.017,1.018S38.625-31.862,38.625-32.424"/>
		<path fill="#2EBDEF" d="M38.625-27.791c0-0.562-0.456-1.02-1.018-1.02s-1.017,0.458-1.017,1.02c0,0.562,0.455,1.018,1.017,1.018
			S38.625-27.229,38.625-27.791"/>
		<path fill="#2EBDEF" d="M38.625-37.055c0-0.564-0.456-1.02-1.018-1.02s-1.017,0.455-1.017,1.02c0,0.562,0.455,1.018,1.017,1.018
			S38.625-36.493,38.625-37.055"/>
		<path fill="#2EBDEF" d="M38.625-23.158c0-0.564-0.456-1.02-1.018-1.02s-1.017,0.455-1.017,1.02c0,0.561,0.455,1.016,1.017,1.016
			S38.625-22.598,38.625-23.158"/>
		<path fill="#2EBDEF" d="M38.625-41.688c0-0.561-0.456-1.018-1.018-1.018s-1.017,0.457-1.017,1.018
			c0,0.562,0.455,1.021,1.017,1.021S38.625-41.125,38.625-41.688"/>
		<path fill="#2EBDEF" d="M38.625-50.951c0-0.562-0.456-1.018-1.018-1.018s-1.017,0.456-1.017,1.018s0.455,1.018,1.017,1.018
			S38.625-50.39,38.625-50.951"/>
		<path fill="#2EBDEF" d="M38.625-55.582c0-0.562-0.456-1.018-1.018-1.018s-1.017,0.455-1.017,1.018
			c0,0.562,0.455,1.018,1.017,1.018S38.625-55.021,38.625-55.582"/>
		<path fill="#2EBDEF" d="M38.625-46.318c0-0.562-0.456-1.02-1.018-1.02s-1.017,0.457-1.017,1.02c0,0.562,0.455,1.018,1.017,1.018
			S38.625-45.757,38.625-46.318"/>
		<path fill="#2EBDEF" d="M27.879-46.318c0-0.562-0.455-1.02-1.017-1.02s-1.019,0.457-1.019,1.02c0,0.562,0.457,1.018,1.019,1.018
			S27.879-45.757,27.879-46.318"/>
		<path fill="#2EBDEF" d="M6.39-46.318c0-0.562-0.456-1.02-1.018-1.02c-0.561,0-1.017,0.457-1.017,1.02
			c0,0.562,0.456,1.018,1.017,1.018C5.934-45.301,6.39-45.757,6.39-46.318"/>
		<path fill="#2EBDEF" d="M6.39-50.951c0-0.562-0.456-1.018-1.018-1.018c-0.561,0-1.017,0.456-1.017,1.018s0.456,1.018,1.017,1.018
			C5.934-49.934,6.39-50.39,6.39-50.951"/>
		<path fill="#2EBDEF" d="M6.39-41.688c0-0.561-0.456-1.018-1.018-1.018c-0.561,0-1.017,0.457-1.017,1.018
			c0,0.562,0.456,1.021,1.017,1.021C5.934-40.667,6.39-41.125,6.39-41.688"/>
		<path fill="#2EBDEF" d="M6.39-37.055c0-0.564-0.456-1.02-1.018-1.02c-0.561,0-1.017,0.455-1.017,1.02
			c0,0.562,0.456,1.018,1.017,1.018C5.934-36.037,6.39-36.493,6.39-37.055"/>
		<path fill="#2EBDEF" d="M6.39-55.582c0-0.562-0.456-1.018-1.018-1.018c-0.561,0-1.017,0.455-1.017,1.018
			c0,0.562,0.456,1.018,1.017,1.018C5.934-54.564,6.39-55.021,6.39-55.582"/>
		<path fill="#2EBDEF" d="M6.39-32.424c0-0.562-0.456-1.018-1.018-1.018c-0.561,0-1.017,0.455-1.017,1.018
			c0,0.562,0.456,1.018,1.017,1.018C5.934-31.406,6.39-31.862,6.39-32.424"/>
		<path fill="#2EBDEF" d="M6.39-64.846c0-0.562-0.456-1.018-1.018-1.018c-0.561,0-1.017,0.456-1.017,1.018
			c0,0.561,0.456,1.018,1.017,1.018C5.934-63.828,6.39-64.285,6.39-64.846"/>
		<path fill="#2EBDEF" d="M6.39-60.215c0-0.562-0.456-1.018-1.018-1.018c-0.561,0-1.017,0.455-1.017,1.018
			c0,0.562,0.456,1.018,1.017,1.018C5.934-59.197,6.39-59.653,6.39-60.215"/>
		<path fill="#2EBDEF" d="M6.39-69.479c0-0.562-0.456-1.018-1.018-1.018c-0.561,0-1.017,0.456-1.017,1.018
			c0,0.564,0.456,1.018,1.017,1.018C5.934-68.461,6.39-68.914,6.39-69.479"/>
		<path fill="#2EBDEF" d="M11.764-74.109c0-0.021-0.003-0.043-0.003-0.062H9.73c-0.002,0.019-0.003,0.04-0.003,0.062
			c0,0.562,0.455,1.018,1.017,1.018C11.308-73.092,11.764-73.548,11.764-74.109"/>
		<path fill="#2EBDEF" d="M6.39-9.266c0-0.561-0.456-1.018-1.018-1.018c-0.561,0-1.017,0.457-1.017,1.018
			c0,0.564,0.456,1.021,1.017,1.021C5.934-8.245,6.39-8.701,6.39-9.266"/>
		<path fill="#2EBDEF" d="M6.39-4.633c0-0.561-0.456-1.018-1.018-1.018c-0.561,0-1.017,0.457-1.017,1.018
			c0,0.562,0.456,1.021,1.017,1.021C5.934-3.612,6.39-4.07,6.39-4.633"/>
		<path fill="#2EBDEF" d="M11.764-64.846c0-0.562-0.456-1.018-1.02-1.018c-0.562,0-1.017,0.456-1.017,1.018
			c0,0.561,0.455,1.018,1.017,1.018C11.308-63.828,11.764-64.285,11.764-64.846"/>
		<path fill="#2EBDEF" d="M6.39-13.895c0-0.562-0.456-1.021-1.018-1.021c-0.561,0-1.017,0.458-1.017,1.021
			c0,0.561,0.456,1.018,1.017,1.018C5.934-12.877,6.39-13.334,6.39-13.895"/>
		<path fill="#2EBDEF" d="M6.39-27.791c0-0.562-0.456-1.02-1.018-1.02c-0.561,0-1.017,0.458-1.017,1.02
			c0,0.562,0.456,1.018,1.017,1.018C5.934-26.773,6.39-27.229,6.39-27.791"/>
		<path fill="#2EBDEF" d="M6.39-23.158c0-0.564-0.456-1.02-1.018-1.02c-0.561,0-1.017,0.455-1.017,1.02
			c0,0.561,0.456,1.016,1.017,1.016C5.934-22.143,6.39-22.598,6.39-23.158"/>
		<path fill="#2EBDEF" d="M6.39-18.527c0-0.562-0.456-1.021-1.018-1.021c-0.561,0-1.017,0.458-1.017,1.021
			c0,0.562,0.456,1.018,1.017,1.018C5.934-17.51,6.39-17.966,6.39-18.527"/>
		<path fill="#2EBDEF" d="M1.019-32.424c0-0.562-0.457-1.018-1.019-1.018v2.035C0.562-31.406,1.019-31.862,1.019-32.424"/>
		<path fill="#2EBDEF" d="M1.019-37.055c0-0.564-0.457-1.02-1.019-1.02v2.037C0.562-36.037,1.019-36.493,1.019-37.055"/>
		<path fill="#2EBDEF" d="M1.019-50.951c0-0.562-0.457-1.018-1.019-1.018v2.035C0.562-49.934,1.019-50.39,1.019-50.951"/>
		<path fill="#2EBDEF" d="M1.019-55.582C1.019-56.145,0.562-56.6,0-56.6v2.035C0.562-54.564,1.019-55.021,1.019-55.582"/>
		<path fill="#2EBDEF" d="M22.508-46.318c0-0.562-0.456-1.02-1.018-1.02c-0.563,0-1.019,0.457-1.019,1.02
			c0,0.562,0.456,1.018,1.019,1.018C22.052-45.301,22.508-45.757,22.508-46.318"/>
		<path fill="#2EBDEF" d="M1.019-46.318c0-0.562-0.457-1.02-1.019-1.02v2.037C0.562-45.301,1.019-45.757,1.019-46.318"/>
		<path fill="#2EBDEF" d="M6.39-74.109c0-0.021-0.001-0.043-0.003-0.062H4.358c-0.002,0.019-0.003,0.04-0.003,0.062
			c0,0.562,0.456,1.018,1.017,1.018C5.934-73.092,6.39-73.548,6.39-74.109"/>
		<path fill="#2EBDEF" d="M1.019-64.846c0-0.562-0.457-1.018-1.019-1.018v2.035C0.562-63.828,1.019-64.285,1.019-64.846"/>
		<path fill="#2EBDEF" d="M1.019-60.215c0-0.562-0.457-1.018-1.019-1.018v2.035C0.562-59.197,1.019-59.653,1.019-60.215"/>
		<path fill="#2EBDEF" d="M1.019-69.479c0-0.562-0.457-1.018-1.019-1.018v2.035C0.562-68.461,1.019-68.914,1.019-69.479"/>
		<path fill="#2EBDEF" d="M11.764-69.479c0-0.562-0.456-1.018-1.02-1.018c-0.562,0-1.017,0.456-1.017,1.018
			c0,0.564,0.455,1.018,1.017,1.018C11.308-68.461,11.764-68.914,11.764-69.479"/>
		<path fill="#2EBDEF" d="M1.019-13.895c0-0.562-0.457-1.021-1.019-1.021v2.038C0.562-12.877,1.019-13.334,1.019-13.895"/>
		<path fill="#2EBDEF" d="M1.019-4.633C1.019-5.193,0.562-5.65,0-5.65v2.038C0.562-3.612,1.019-4.07,1.019-4.633"/>
		<path fill="#2EBDEF" d="M1.019-74.109c0-0.021-0.002-0.043-0.004-0.062H0v1.079C0.562-73.092,1.019-73.548,1.019-74.109"/>
		<path fill="#2EBDEF" d="M1.019-9.266c0-0.561-0.457-1.018-1.019-1.018v2.038C0.562-8.245,1.019-8.701,1.019-9.266"/>
		<path fill="#2EBDEF" d="M1.019-27.791c0-0.562-0.457-1.02-1.019-1.02v2.037C0.562-26.773,1.019-27.229,1.019-27.791"/>
		<path fill="#2EBDEF" d="M1.019-18.527c0-0.562-0.457-1.021-1.019-1.021v2.038C0.562-17.51,1.019-17.966,1.019-18.527"/>
		<path fill="#2EBDEF" d="M1.019-23.158c0-0.564-0.457-1.02-1.019-1.02v2.035C0.562-22.143,1.019-22.598,1.019-23.158"/>
		<path fill="#2EBDEF" d="M1.019-41.688c0-0.561-0.457-1.018-1.019-1.018v2.038C0.562-40.667,1.019-41.125,1.019-41.688"/>
		<path fill="#2EBDEF" d="M17.135-50.951c0-0.562-0.455-1.018-1.019-1.018c-0.561,0-1.017,0.456-1.017,1.018
			s0.456,1.018,1.017,1.018C16.68-49.934,17.135-50.39,17.135-50.951"/>
		<path fill="#2EBDEF" d="M17.135-23.158c0-0.564-0.455-1.02-1.019-1.02c-0.561,0-1.017,0.455-1.017,1.02
			c0,0.561,0.456,1.016,1.017,1.016C16.68-22.143,17.135-22.598,17.135-23.158"/>
		<path fill="#2EBDEF" d="M17.135-32.424c0-0.562-0.455-1.018-1.019-1.018c-0.561,0-1.017,0.455-1.017,1.018
			c0,0.562,0.456,1.018,1.017,1.018C16.68-31.406,17.135-31.862,17.135-32.424"/>
		<path fill="#2EBDEF" d="M17.135-18.527c0-0.562-0.455-1.021-1.019-1.021c-0.561,0-1.017,0.458-1.017,1.021
			c0,0.562,0.456,1.018,1.017,1.018C16.68-17.51,17.135-17.966,17.135-18.527"/>
		<path fill="#2EBDEF" d="M17.135-37.055c0-0.564-0.455-1.02-1.019-1.02c-0.561,0-1.017,0.455-1.017,1.02
			c0,0.562,0.456,1.018,1.017,1.018C16.68-36.037,17.135-36.493,17.135-37.055"/>
		<path fill="#2EBDEF" d="M17.135-46.318c0-0.562-0.455-1.02-1.019-1.02c-0.561,0-1.017,0.457-1.017,1.02
			c0,0.562,0.456,1.018,1.017,1.018C16.68-45.301,17.135-45.757,17.135-46.318"/>
		<path fill="#2EBDEF" d="M17.135-13.895c0-0.562-0.455-1.021-1.019-1.021c-0.561,0-1.017,0.458-1.017,1.021
			c0,0.561,0.456,1.018,1.017,1.018C16.68-12.877,17.135-13.334,17.135-13.895"/>
		<path fill="#2EBDEF" d="M17.135-41.688c0-0.561-0.455-1.018-1.019-1.018c-0.561,0-1.017,0.457-1.017,1.018
			c0,0.562,0.456,1.021,1.017,1.021C16.68-40.667,17.135-41.125,17.135-41.688"/>
		<path fill="#2EBDEF" d="M17.135-27.791c0-0.562-0.455-1.02-1.019-1.02c-0.561,0-1.017,0.458-1.017,1.02
			c0,0.562,0.456,1.018,1.017,1.018C16.68-26.773,17.135-27.229,17.135-27.791"/>
		<path fill="#2EBDEF" d="M22.508-55.582c0-0.562-0.456-1.018-1.018-1.018c-0.563,0-1.019,0.455-1.019,1.018
			c0,0.562,0.456,1.018,1.019,1.018C22.052-54.564,22.508-55.021,22.508-55.582"/>
		<path fill="#2EBDEF" d="M17.135-9.266c0-0.561-0.455-1.018-1.019-1.018c-0.561,0-1.017,0.457-1.017,1.018
			c0,0.564,0.456,1.021,1.017,1.021C16.68-8.245,17.135-8.701,17.135-9.266"/>
		<path fill="#2EBDEF" d="M22.508-69.479c0-0.562-0.456-1.018-1.018-1.018c-0.563,0-1.019,0.456-1.019,1.018
			c0,0.564,0.456,1.018,1.019,1.018C22.052-68.461,22.508-68.914,22.508-69.479"/>
		<path fill="#2EBDEF" d="M22.508-50.951c0-0.562-0.456-1.018-1.018-1.018c-0.563,0-1.019,0.456-1.019,1.018
			s0.456,1.018,1.019,1.018C22.052-49.934,22.508-50.39,22.508-50.951"/>
		<path fill="#2EBDEF" d="M22.508-60.215c0-0.562-0.456-1.018-1.018-1.018c-0.563,0-1.019,0.455-1.019,1.018
			c0,0.562,0.456,1.018,1.019,1.018C22.052-59.197,22.508-59.653,22.508-60.215"/>
		<path fill="#2EBDEF" d="M17.135-4.633c0-0.561-0.455-1.018-1.019-1.018c-0.561,0-1.017,0.457-1.017,1.018
			c0,0.562,0.456,1.021,1.017,1.021C16.68-3.612,17.135-4.07,17.135-4.633"/>
		<path fill="#2EBDEF" d="M22.508-74.109c0-0.021-0.003-0.043-0.003-0.062h-2.031c-0.002,0.019-0.003,0.04-0.003,0.062
			c0,0.562,0.456,1.018,1.019,1.018C22.052-73.092,22.508-73.548,22.508-74.109"/>
		<path fill="#2EBDEF" d="M22.508-64.846c0-0.562-0.456-1.018-1.018-1.018c-0.563,0-1.019,0.456-1.019,1.018
			c0,0.561,0.456,1.018,1.019,1.018C22.052-63.828,22.508-64.285,22.508-64.846"/>
		<path fill="#2EBDEF" d="M11.764-4.633c0-0.561-0.456-1.018-1.02-1.018c-0.562,0-1.017,0.457-1.017,1.018
			c0,0.562,0.455,1.021,1.017,1.021C11.308-3.612,11.764-4.07,11.764-4.633"/>
		<path fill="#2EBDEF" d="M11.764-37.055c0-0.564-0.456-1.02-1.02-1.02c-0.562,0-1.017,0.455-1.017,1.02
			c0,0.562,0.455,1.018,1.017,1.018C11.308-36.037,11.764-36.493,11.764-37.055"/>
		<path fill="#2EBDEF" d="M17.135-55.582c0-0.562-0.455-1.018-1.019-1.018c-0.561,0-1.017,0.455-1.017,1.018
			c0,0.562,0.456,1.018,1.017,1.018C16.68-54.564,17.135-55.021,17.135-55.582"/>
		<path fill="#2EBDEF" d="M11.764-41.688c0-0.561-0.456-1.018-1.02-1.018c-0.562,0-1.017,0.457-1.017,1.018
			c0,0.562,0.455,1.021,1.017,1.021C11.308-40.667,11.764-41.125,11.764-41.688"/>
		<path fill="#2EBDEF" d="M11.764-23.158c0-0.564-0.456-1.02-1.02-1.02c-0.562,0-1.017,0.455-1.017,1.02
			c0,0.561,0.455,1.016,1.017,1.016C11.308-22.143,11.764-22.598,11.764-23.158"/>
		<path fill="#2EBDEF" d="M11.764-27.791c0-0.562-0.456-1.02-1.02-1.02c-0.562,0-1.017,0.458-1.017,1.02
			c0,0.562,0.455,1.018,1.017,1.018C11.308-26.773,11.764-27.229,11.764-27.791"/>
		<path fill="#2EBDEF" d="M11.764-55.582c0-0.562-0.456-1.018-1.02-1.018c-0.562,0-1.017,0.455-1.017,1.018
			c0,0.562,0.455,1.018,1.017,1.018C11.308-54.564,11.764-55.021,11.764-55.582"/>
		<path fill="#2EBDEF" d="M11.764-46.318c0-0.562-0.456-1.02-1.02-1.02c-0.562,0-1.017,0.457-1.017,1.02
			c0,0.562,0.455,1.018,1.017,1.018C11.308-45.301,11.764-45.757,11.764-46.318"/>
		<path fill="#2EBDEF" d="M11.764-50.951c0-0.562-0.456-1.018-1.02-1.018c-0.562,0-1.017,0.456-1.017,1.018s0.455,1.018,1.017,1.018
			C11.308-49.934,11.764-50.39,11.764-50.951"/>
		<path fill="#2EBDEF" d="M11.764-32.424c0-0.562-0.456-1.018-1.02-1.018c-0.562,0-1.017,0.455-1.017,1.018
			c0,0.562,0.455,1.018,1.017,1.018C11.308-31.406,11.764-31.862,11.764-32.424"/>
		<path fill="#2EBDEF" d="M17.135-64.846c0-0.562-0.455-1.018-1.019-1.018c-0.561,0-1.017,0.456-1.017,1.018
			c0,0.561,0.456,1.018,1.017,1.018C16.68-63.828,17.135-64.285,17.135-64.846"/>
		<path fill="#2EBDEF" d="M11.764-18.527c0-0.562-0.456-1.021-1.02-1.021c-0.562,0-1.017,0.458-1.017,1.021
			c0,0.562,0.455,1.018,1.017,1.018C11.308-17.51,11.764-17.966,11.764-18.527"/>
		<path fill="#2EBDEF" d="M17.135-69.479c0-0.562-0.455-1.018-1.019-1.018c-0.561,0-1.017,0.456-1.017,1.018
			c0,0.564,0.456,1.018,1.017,1.018C16.68-68.461,17.135-68.914,17.135-69.479"/>
		<path fill="#2EBDEF" d="M17.135-60.215c0-0.562-0.455-1.018-1.019-1.018c-0.561,0-1.017,0.455-1.017,1.018
			c0,0.562,0.456,1.018,1.017,1.018C16.68-59.197,17.135-59.653,17.135-60.215"/>
		<path fill="#2EBDEF" d="M17.135-74.109c0-0.021-0.002-0.043-0.003-0.062h-2.03c0,0.019-0.003,0.04-0.003,0.062
			c0,0.562,0.456,1.018,1.017,1.018C16.68-73.092,17.135-73.548,17.135-74.109"/>
		<path fill="#2EBDEF" d="M11.764-13.895c0-0.562-0.456-1.021-1.02-1.021c-0.562,0-1.017,0.458-1.017,1.021
			c0,0.561,0.455,1.018,1.017,1.018C11.308-12.877,11.764-13.334,11.764-13.895"/>
		<path fill="#2EBDEF" d="M11.764-9.266c0-0.561-0.456-1.018-1.02-1.018c-0.562,0-1.017,0.457-1.017,1.018
			c0,0.564,0.455,1.021,1.017,1.021C11.308-8.245,11.764-8.701,11.764-9.266"/>
		<path fill="#2EBDEF" d="M11.764-60.215c0-0.562-0.456-1.018-1.02-1.018c-0.562,0-1.017,0.455-1.017,1.018
			c0,0.562,0.455,1.018,1.017,1.018C11.308-59.197,11.764-59.653,11.764-60.215"/>
		<path fill="#2EBDEF" d="M76.232-13.895c0-0.562-0.457-1.021-1.018-1.021c-0.563,0-1.02,0.458-1.02,1.021
			c0,0.561,0.457,1.018,1.02,1.018C75.775-12.877,76.232-13.334,76.232-13.895"/>
		<path fill="#2EBDEF" d="M81.603-69.479c0-0.562-0.456-1.018-1.018-1.018c-0.561,0-1.017,0.456-1.017,1.018
			c0,0.564,0.456,1.018,1.017,1.018C81.147-68.461,81.603-68.914,81.603-69.479"/>
		<path fill="#2EBDEF" d="M81.603-74.109c0-0.021-0.001-0.043-0.002-0.062h-2.03c-0.001,0.019-0.003,0.04-0.003,0.062
			c0,0.562,0.456,1.018,1.017,1.018C81.147-73.092,81.603-73.548,81.603-74.109"/>
		<path fill="#2EBDEF" d="M76.232-27.791c0-0.562-0.457-1.02-1.018-1.02c-0.563,0-1.02,0.458-1.02,1.02
			c0,0.562,0.457,1.018,1.02,1.018C75.775-26.773,76.232-27.229,76.232-27.791"/>
		<path fill="#2EBDEF" d="M81.603-60.215c0-0.562-0.456-1.018-1.018-1.018c-0.561,0-1.017,0.455-1.017,1.018
			c0,0.562,0.456,1.018,1.017,1.018C81.147-59.197,81.603-59.653,81.603-60.215"/>
		<path fill="#2EBDEF" d="M81.603-64.846c0-0.562-0.456-1.018-1.018-1.018c-0.561,0-1.017,0.456-1.017,1.018
			c0,0.561,0.456,1.018,1.017,1.018C81.147-63.828,81.603-64.285,81.603-64.846"/>
		<path fill="#2EBDEF" d="M76.232-18.527c0-0.562-0.457-1.021-1.018-1.021c-0.563,0-1.02,0.458-1.02,1.021
			c0,0.562,0.457,1.018,1.02,1.018C75.775-17.51,76.232-17.966,76.232-18.527"/>
		<path fill="#2EBDEF" d="M76.232-4.633c0-0.561-0.457-1.018-1.018-1.018c-0.563,0-1.02,0.457-1.02,1.018
			c0,0.562,0.457,1.021,1.02,1.021C75.775-3.612,76.232-4.07,76.232-4.633"/>
		<path fill="#2EBDEF" d="M76.232-23.158c0-0.564-0.457-1.02-1.018-1.02c-0.563,0-1.02,0.455-1.02,1.02
			c0,0.561,0.457,1.016,1.02,1.016C75.775-22.143,76.232-22.598,76.232-23.158"/>
		<path fill="#2EBDEF" d="M76.232-9.266c0-0.561-0.457-1.018-1.018-1.018c-0.563,0-1.02,0.457-1.02,1.018
			c0,0.564,0.457,1.021,1.02,1.021C75.775-8.245,76.232-8.701,76.232-9.266"/>
		<path fill="#2EBDEF" d="M81.603-55.582c0-0.562-0.456-1.018-1.018-1.018c-0.561,0-1.017,0.455-1.017,1.018
			c0,0.562,0.456,1.018,1.017,1.018C81.147-54.564,81.603-55.021,81.603-55.582"/>
		<path fill="#2EBDEF" d="M81.603-50.951c0-0.562-0.456-1.018-1.018-1.018c-0.561,0-1.017,0.456-1.017,1.018
			s0.456,1.018,1.017,1.018C81.147-49.934,81.603-50.39,81.603-50.951"/>
		<path fill="#2EBDEF" d="M81.603-32.424c0-0.562-0.456-1.018-1.018-1.018c-0.561,0-1.017,0.455-1.017,1.018
			c0,0.562,0.456,1.018,1.017,1.018C81.147-31.406,81.603-31.862,81.603-32.424"/>
		<path fill="#2EBDEF" d="M81.603-23.158c0-0.564-0.456-1.02-1.018-1.02c-0.561,0-1.017,0.455-1.017,1.02
			c0,0.561,0.456,1.016,1.017,1.016C81.147-22.143,81.603-22.598,81.603-23.158"/>
		<path fill="#2EBDEF" d="M81.603-18.527c0-0.562-0.456-1.021-1.018-1.021c-0.561,0-1.017,0.458-1.017,1.021
			c0,0.562,0.456,1.018,1.017,1.018C81.147-17.51,81.603-17.966,81.603-18.527"/>
		<path fill="#2EBDEF" d="M81.603-27.791c0-0.562-0.456-1.02-1.018-1.02c-0.561,0-1.017,0.458-1.017,1.02
			c0,0.562,0.456,1.018,1.017,1.018C81.147-26.773,81.603-27.229,81.603-27.791"/>
		<path fill="#2EBDEF" d="M81.603-46.318c0-0.562-0.456-1.02-1.018-1.02c-0.561,0-1.017,0.457-1.017,1.02
			c0,0.562,0.456,1.018,1.017,1.018C81.147-45.301,81.603-45.757,81.603-46.318"/>
		<path fill="#2EBDEF" d="M70.859-37.055c0-0.564-0.456-1.02-1.018-1.02s-1.017,0.455-1.017,1.02c0,0.562,0.455,1.018,1.017,1.018
			S70.859-36.493,70.859-37.055"/>
		<path fill="#2EBDEF" d="M81.603-37.055c0-0.564-0.456-1.02-1.018-1.02c-0.561,0-1.017,0.455-1.017,1.02
			c0,0.562,0.456,1.018,1.017,1.018C81.147-36.037,81.603-36.493,81.603-37.055"/>
		<path fill="#2EBDEF" d="M76.232-41.688c0-0.561-0.457-1.018-1.018-1.018c-0.563,0-1.02,0.457-1.02,1.018
			c0,0.562,0.457,1.021,1.02,1.021C75.775-40.667,76.232-41.125,76.232-41.688"/>
		<path fill="#2EBDEF" d="M70.859-18.527c0-0.562-0.456-1.021-1.018-1.021s-1.017,0.458-1.017,1.021
			c0,0.562,0.455,1.018,1.017,1.018S70.859-17.966,70.859-18.527"/>
		<path fill="#2EBDEF" d="M76.232-74.109c0-0.021-0.002-0.043-0.004-0.062h-2.029c-0.002,0.019-0.005,0.04-0.005,0.062
			c0,0.562,0.457,1.018,1.02,1.018C75.775-73.092,76.232-73.548,76.232-74.109"/>
		<path fill="#2EBDEF" d="M70.859-9.266c0-0.561-0.456-1.018-1.018-1.018s-1.017,0.457-1.017,1.018c0,0.564,0.455,1.021,1.017,1.021
			S70.859-8.701,70.859-9.266"/>
		<path fill="#2EBDEF" d="M70.859-4.633c0-0.561-0.456-1.018-1.018-1.018s-1.017,0.457-1.017,1.018c0,0.562,0.455,1.021,1.017,1.021
			S70.859-4.07,70.859-4.633"/>
		<path fill="#2EBDEF" d="M70.859-13.895c0-0.562-0.456-1.021-1.018-1.021s-1.017,0.458-1.017,1.021
			c0,0.561,0.455,1.018,1.017,1.018S70.859-13.334,70.859-13.895"/>
		<path fill="#2EBDEF" d="M70.859-23.158c0-0.564-0.456-1.02-1.018-1.02s-1.017,0.455-1.017,1.02c0,0.561,0.455,1.016,1.017,1.016
			S70.859-22.598,70.859-23.158"/>
		<path fill="#2EBDEF" d="M70.859-32.424c0-0.562-0.456-1.018-1.018-1.018s-1.017,0.455-1.017,1.018
			c0,0.562,0.455,1.018,1.017,1.018S70.859-31.862,70.859-32.424"/>
		<path fill="#2EBDEF" d="M70.859-27.791c0-0.562-0.456-1.02-1.018-1.02s-1.017,0.458-1.017,1.02c0,0.562,0.455,1.018,1.017,1.018
			S70.859-27.229,70.859-27.791"/>
		<path fill="#2EBDEF" d="M76.232-55.582c0-0.562-0.457-1.018-1.018-1.018c-0.563,0-1.02,0.455-1.02,1.018
			c0,0.562,0.457,1.018,1.02,1.018C75.775-54.564,76.232-55.021,76.232-55.582"/>
		<path fill="#2EBDEF" d="M81.603-13.895c0-0.562-0.456-1.021-1.018-1.021c-0.561,0-1.017,0.458-1.017,1.021
			c0,0.561,0.456,1.018,1.017,1.018C81.147-12.877,81.603-13.334,81.603-13.895"/>
		<path fill="#2EBDEF" d="M76.232-46.318c0-0.562-0.457-1.02-1.018-1.02c-0.563,0-1.02,0.457-1.02,1.02
			c0,0.562,0.457,1.018,1.02,1.018C75.775-45.301,76.232-45.757,76.232-46.318"/>
		<path fill="#2EBDEF" d="M76.232-37.055c0-0.564-0.457-1.02-1.018-1.02c-0.563,0-1.02,0.455-1.02,1.02
			c0,0.562,0.457,1.018,1.02,1.018C75.775-36.037,76.232-36.493,76.232-37.055"/>
		<path fill="#2EBDEF" d="M76.232-50.951c0-0.562-0.457-1.018-1.018-1.018c-0.563,0-1.02,0.456-1.02,1.018s0.457,1.018,1.02,1.018
			C75.775-49.934,76.232-50.39,76.232-50.951"/>
		<path fill="#2EBDEF" d="M76.232-60.215c0-0.562-0.457-1.018-1.018-1.018c-0.563,0-1.02,0.455-1.02,1.018
			c0,0.562,0.457,1.018,1.02,1.018C75.775-59.197,76.232-59.653,76.232-60.215"/>
		<path fill="#2EBDEF" d="M76.232-32.424c0-0.562-0.457-1.018-1.018-1.018c-0.563,0-1.02,0.455-1.02,1.018
			c0,0.562,0.457,1.018,1.02,1.018C75.775-31.406,76.232-31.862,76.232-32.424"/>
		<path fill="#2EBDEF" d="M76.232-69.479c0-0.562-0.457-1.018-1.018-1.018c-0.563,0-1.02,0.456-1.02,1.018
			c0,0.564,0.457,1.018,1.02,1.018C75.775-68.461,76.232-68.914,76.232-69.479"/>
		<path fill="#2EBDEF" d="M76.232-64.846c0-0.562-0.457-1.018-1.018-1.018c-0.563,0-1.02,0.456-1.02,1.018
			c0,0.561,0.457,1.018,1.02,1.018C75.775-63.828,76.232-64.285,76.232-64.846"/>
		<path fill="#2EBDEF" d="M81.603-41.688c0-0.561-0.456-1.018-1.018-1.018c-0.561,0-1.017,0.457-1.017,1.018
			c0,0.562,0.456,1.021,1.017,1.021C81.147-40.667,81.603-41.125,81.603-41.688"/>
		<path fill="#2EBDEF" d="M52.706,0h2.036c0-0.562-0.457-1.02-1.018-1.02C53.162-1.02,52.706-0.562,52.706,0"/>
		<path fill="#2EBDEF" d="M63.45,0h2.036c0-0.562-0.455-1.02-1.017-1.02C63.906-1.02,63.45-0.562,63.45,0"/>
		<path fill="#2EBDEF" d="M58.078,0h2.037c0-0.562-0.456-1.02-1.017-1.02C58.535-1.02,58.078-0.562,58.078,0"/>
		<path fill="#2EBDEF" d="M41.961,0h2.036c0-0.562-0.457-1.02-1.018-1.02C42.417-1.02,41.961-0.562,41.961,0"/>
		<path fill="#2EBDEF" d="M49.37-74.109c0-0.021-0.002-0.043-0.003-0.062h-2.03c-0.001,0.019-0.003,0.04-0.003,0.062
			c0,0.562,0.455,1.018,1.018,1.018S49.37-73.548,49.37-74.109"/>
		<path fill="#2EBDEF" d="M79.568,0h2.035c0-0.562-0.456-1.02-1.017-1.02C80.024-1.02,79.568-0.562,79.568,0"/>
		<path fill="#2EBDEF" d="M68.824,0h2.035c0-0.562-0.456-1.02-1.017-1.02C69.279-1.02,68.824-0.562,68.824,0"/>
		<path fill="#2EBDEF" d="M74.194,0h2.038c0-0.562-0.457-1.02-1.018-1.02C74.651-1.02,74.194-0.562,74.194,0"/>
		<path fill="#2EBDEF" d="M47.333,0h2.036c0-0.562-0.455-1.02-1.018-1.02S47.333-0.562,47.333,0"/>
		<path fill="#2EBDEF" d="M4.355,0H6.39c0-0.562-0.456-1.02-1.017-1.02C4.811-1.02,4.355-0.562,4.355,0"/>
		<path fill="#2EBDEF" d="M81.603-9.266c0-0.561-0.456-1.018-1.018-1.018c-0.561,0-1.017,0.457-1.017,1.018
			c0,0.564,0.456,1.021,1.017,1.021C81.147-8.245,81.603-8.701,81.603-9.266"/>
		<path fill="#2EBDEF" d="M9.727,0h2.037c0-0.562-0.456-1.02-1.019-1.02S9.727-0.562,9.727,0"/>
		<path fill="#2EBDEF" d="M0,0H1.02C1.02-0.562,0.562-1.02,0-1.02V0z"/>
		<path fill="#2EBDEF" d="M36.589,0h2.035c0-0.562-0.456-1.02-1.017-1.02C37.044-1.02,36.589-0.562,36.589,0"/>
		<path fill="#2EBDEF" d="M31.216,0h2.037c0-0.562-0.457-1.02-1.018-1.02C31.671-1.02,31.216-0.562,31.216,0"/>
		<path fill="#2EBDEF" d="M20.471,0h2.037c0-0.562-0.456-1.02-1.017-1.02C20.927-1.02,20.471-0.562,20.471,0"/>
		<path fill="#2EBDEF" d="M25.843,0h2.036c0-0.562-0.455-1.02-1.016-1.02C26.3-1.02,25.843-0.562,25.843,0"/>
		<path fill="#2EBDEF" d="M15.099,0h2.036c0-0.562-0.455-1.02-1.018-1.02C15.555-1.02,15.099-0.562,15.099,0"/>
		<path fill="#2EBDEF" d="M85.958-54.564c0.042,0,0.083-0.004,0.124-0.008v-2.021C86.041-56.598,86-56.6,85.958-56.6
			c-0.562,0-1.018,0.455-1.018,1.018S85.396-54.564,85.958-54.564"/>
		<path fill="#2EBDEF" d="M85.958-59.197c0.042,0,0.083-0.002,0.124-0.008v-2.02c-0.041-0.004-0.082-0.008-0.124-0.008
			c-0.562,0-1.018,0.455-1.018,1.018S85.396-59.197,85.958-59.197"/>
		<path fill="#2EBDEF" d="M85.958-45.301c0.042,0,0.083-0.004,0.124-0.008v-2.021c-0.041-0.004-0.082-0.008-0.124-0.008
			c-0.562,0-1.018,0.457-1.018,1.02S85.396-45.301,85.958-45.301"/>
		<path fill="#2EBDEF" d="M85.958-49.934c0.042,0,0.083-0.002,0.124-0.008v-2.02c-0.041-0.004-0.082-0.008-0.124-0.008
			c-0.562,0-1.018,0.455-1.018,1.018S85.396-49.934,85.958-49.934"/>
		<path fill="#2EBDEF" d="M85.958-68.461c0.042,0,0.083-0.002,0.124-0.006v-2.021c-0.041-0.004-0.082-0.008-0.124-0.008
			c-0.562,0-1.018,0.455-1.018,1.018C84.939-68.914,85.396-68.461,85.958-68.461"/>
		<path fill="#2EBDEF" d="M81.603-4.633c0-0.561-0.456-1.018-1.018-1.018c-0.561,0-1.017,0.457-1.017,1.018
			c0,0.562,0.456,1.021,1.017,1.021C81.147-3.612,81.603-4.07,81.603-4.633"/>
		<path fill="#2EBDEF" d="M85.958-63.828c0.042,0,0.083-0.004,0.124-0.008v-2.02c-0.041-0.006-0.082-0.008-0.124-0.008
			c-0.562,0-1.018,0.455-1.018,1.018C84.939-64.285,85.396-63.828,85.958-63.828"/>
		<path fill="#2EBDEF" d="M85.958-73.092c0.042,0,0.083-0.004,0.124-0.008v-1.072h-1.139c-0.002,0.02-0.003,0.041-0.003,0.062
			C84.939-73.547,85.396-73.092,85.958-73.092"/>
		<path fill="#2EBDEF" d="M85.958-22.143c0.042,0,0.083-0.002,0.124-0.008v-2.018c-0.041-0.008-0.082-0.01-0.124-0.01
			c-0.562,0-1.018,0.455-1.018,1.02C84.939-22.598,85.396-22.143,85.958-22.143"/>
		<path fill="#2EBDEF" d="M85.958-12.877c0.042,0,0.083-0.004,0.124-0.01v-2.02c-0.041-0.006-0.082-0.008-0.124-0.008
			c-0.562,0-1.018,0.457-1.018,1.02C84.939-13.334,85.396-12.877,85.958-12.877"/>
		<path fill="#2EBDEF" d="M85.958-40.668c0.042,0,0.083-0.004,0.124-0.01v-2.02c-0.041-0.004-0.082-0.008-0.124-0.008
			c-0.562,0-1.018,0.457-1.018,1.018C84.939-41.125,85.396-40.668,85.958-40.668"/>
		<path fill="#2EBDEF" d="M85.958-17.51c0.042,0,0.083-0.004,0.124-0.008v-2.02c-0.041-0.006-0.082-0.01-0.124-0.01
			c-0.562,0-1.018,0.457-1.018,1.02S85.396-17.51,85.958-17.51"/>
		<path fill="#2EBDEF" d="M85.958-8.246c0.042,0,0.083-0.004,0.124-0.008v-2.02c-0.041-0.006-0.082-0.01-0.124-0.01
			c-0.562,0-1.018,0.457-1.018,1.018C84.939-8.701,85.396-8.246,85.958-8.246"/>
		<path fill="#2EBDEF" d="M85.958-3.613c0.042,0,0.083-0.004,0.124-0.01v-2.02C86.041-5.648,86-5.65,85.958-5.65
			c-0.562,0-1.018,0.457-1.018,1.018C84.939-4.07,85.396-3.613,85.958-3.613"/>
		<path fill="#2EBDEF" d="M85.958-36.037c0.042,0,0.083-0.004,0.124-0.008v-2.021c-0.041-0.004-0.082-0.008-0.124-0.008
			c-0.562,0-1.018,0.455-1.018,1.02C84.939-36.492,85.396-36.037,85.958-36.037"/>
		<path fill="#2EBDEF" d="M85.958-31.406c0.042,0,0.083-0.002,0.124-0.008v-2.02c-0.041-0.006-0.082-0.008-0.124-0.008
			c-0.562,0-1.018,0.455-1.018,1.018S85.396-31.406,85.958-31.406"/>
		<path fill="#2EBDEF" d="M85.958-26.773c0.042,0,0.083-0.002,0.124-0.008v-2.02c-0.041-0.006-0.082-0.01-0.124-0.01
			c-0.562,0-1.018,0.457-1.018,1.02S85.396-26.773,85.958-26.773"/>
		<path fill="#2EBDEF" d="M86.082,0v-1.01C86.041-1.016,86-1.02,85.958-1.02c-0.563,0-1.018,0.458-1.018,1.02H86.082z"/>
		<path fill="#2EBDEF" d="M54.742-41.688c0-0.561-0.457-1.018-1.018-1.018c-0.562,0-1.018,0.457-1.018,1.018
			c0,0.562,0.456,1.021,1.018,1.021C54.285-40.667,54.742-41.125,54.742-41.688"/>
		<path fill="#2EBDEF" d="M54.742-46.318c0-0.562-0.457-1.02-1.018-1.02c-0.562,0-1.018,0.457-1.018,1.02
			c0,0.562,0.456,1.018,1.018,1.018C54.285-45.301,54.742-45.757,54.742-46.318"/>
		<path fill="#2EBDEF" d="M54.742-69.479c0-0.562-0.457-1.018-1.018-1.018c-0.562,0-1.018,0.456-1.018,1.018
			c0,0.564,0.456,1.018,1.018,1.018C54.285-68.461,54.742-68.914,54.742-69.479"/>
		<path fill="#2EBDEF" d="M54.742-32.424c0-0.562-0.457-1.018-1.018-1.018c-0.562,0-1.018,0.455-1.018,1.018
			c0,0.562,0.456,1.018,1.018,1.018C54.285-31.406,54.742-31.862,54.742-32.424"/>
		<path fill="#2EBDEF" d="M54.742-37.055c0-0.564-0.457-1.02-1.018-1.02c-0.562,0-1.018,0.455-1.018,1.02
			c0,0.562,0.456,1.018,1.018,1.018C54.285-36.037,54.742-36.493,54.742-37.055"/>
		<path fill="#2EBDEF" d="M54.742-60.215c0-0.562-0.457-1.018-1.018-1.018c-0.562,0-1.018,0.455-1.018,1.018
			c0,0.562,0.456,1.018,1.018,1.018C54.285-59.197,54.742-59.653,54.742-60.215"/>
		<path fill="#2EBDEF" d="M54.742-55.582c0-0.562-0.457-1.018-1.018-1.018c-0.562,0-1.018,0.455-1.018,1.018
			c0,0.562,0.456,1.018,1.018,1.018C54.285-54.564,54.742-55.021,54.742-55.582"/>
		<path fill="#2EBDEF" d="M54.742-50.951c0-0.562-0.457-1.018-1.018-1.018c-0.562,0-1.018,0.456-1.018,1.018
			s0.456,1.018,1.018,1.018C54.285-49.934,54.742-50.39,54.742-50.951"/>
		<path fill="#2EBDEF" d="M54.742-27.791c0-0.562-0.457-1.02-1.018-1.02c-0.562,0-1.018,0.458-1.018,1.02
			c0,0.562,0.456,1.018,1.018,1.018C54.285-26.773,54.742-27.229,54.742-27.791"/>
		<path fill="#2EBDEF" d="M60.115-60.215c0-0.562-0.456-1.018-1.018-1.018s-1.019,0.455-1.019,1.018
			c0,0.562,0.457,1.018,1.019,1.018S60.115-59.653,60.115-60.215"/>
		<path fill="#2EBDEF" d="M60.115-74.109c0-0.021-0.003-0.043-0.004-0.062h-2.028c-0.003,0.019-0.005,0.04-0.005,0.062
			c0,0.562,0.457,1.018,1.019,1.018S60.115-73.548,60.115-74.109"/>
		<path fill="#2EBDEF" d="M54.742-4.633c0-0.561-0.457-1.018-1.018-1.018c-0.562,0-1.018,0.457-1.018,1.018
			c0,0.562,0.456,1.021,1.018,1.021C54.285-3.612,54.742-4.07,54.742-4.633"/>
		<path fill="#2EBDEF" d="M60.115-69.479c0-0.562-0.456-1.018-1.018-1.018s-1.019,0.456-1.019,1.018
			c0,0.564,0.457,1.018,1.019,1.018S60.115-68.914,60.115-69.479"/>
		<path fill="#2EBDEF" d="M60.115-64.846c0-0.562-0.456-1.018-1.018-1.018s-1.019,0.456-1.019,1.018
			c0,0.561,0.457,1.018,1.019,1.018S60.115-64.285,60.115-64.846"/>
		<path fill="#2EBDEF" d="M54.742-9.266c0-0.561-0.457-1.018-1.018-1.018c-0.562,0-1.018,0.457-1.018,1.018
			c0,0.564,0.456,1.021,1.018,1.021C54.285-8.245,54.742-8.701,54.742-9.266"/>
		<path fill="#2EBDEF" d="M54.742-18.527c0-0.562-0.457-1.021-1.018-1.021c-0.562,0-1.018,0.458-1.018,1.021
			c0,0.562,0.456,1.018,1.018,1.018C54.285-17.51,54.742-17.966,54.742-18.527"/>
		<path fill="#2EBDEF" d="M54.742-13.895c0-0.562-0.457-1.021-1.018-1.021c-0.562,0-1.018,0.458-1.018,1.021
			c0,0.561,0.456,1.018,1.018,1.018C54.285-12.877,54.742-13.334,54.742-13.895"/>
		<path fill="#2EBDEF" d="M54.742-23.158c0-0.564-0.457-1.02-1.018-1.02c-0.562,0-1.018,0.455-1.018,1.02
			c0,0.561,0.456,1.016,1.018,1.016C54.285-22.143,54.742-22.598,54.742-23.158"/>
		<path fill="#2EBDEF" d="M49.37-50.951c0-0.562-0.455-1.018-1.018-1.018s-1.018,0.456-1.018,1.018s0.455,1.018,1.018,1.018
			S49.37-50.39,49.37-50.951"/>
		<path fill="#2EBDEF" d="M49.37-46.318c0-0.562-0.455-1.02-1.018-1.02s-1.018,0.457-1.018,1.02c0,0.562,0.455,1.018,1.018,1.018
			S49.37-45.757,49.37-46.318"/>
		<path fill="#2EBDEF" d="M49.37-55.582c0-0.562-0.455-1.018-1.018-1.018s-1.018,0.455-1.018,1.018c0,0.562,0.455,1.018,1.018,1.018
			S49.37-55.021,49.37-55.582"/>
		<path fill="#2EBDEF" d="M49.37-41.688c0-0.561-0.455-1.018-1.018-1.018s-1.018,0.457-1.018,1.018c0,0.562,0.455,1.021,1.018,1.021
			S49.37-41.125,49.37-41.688"/>
		<path fill="#2EBDEF" d="M49.37-69.479c0-0.562-0.455-1.018-1.018-1.018s-1.018,0.456-1.018,1.018c0,0.564,0.455,1.018,1.018,1.018
			S49.37-68.914,49.37-69.479"/>
		<path fill="#2EBDEF" d="M49.37-64.846c0-0.562-0.455-1.018-1.018-1.018s-1.018,0.456-1.018,1.018c0,0.561,0.455,1.018,1.018,1.018
			S49.37-64.285,49.37-64.846"/>
		<path fill="#2EBDEF" d="M49.37-37.055c0-0.564-0.455-1.02-1.018-1.02s-1.018,0.455-1.018,1.02c0,0.562,0.455,1.018,1.018,1.018
			S49.37-36.493,49.37-37.055"/>
		<path fill="#2EBDEF" d="M49.37-60.215c0-0.562-0.455-1.018-1.018-1.018s-1.018,0.455-1.018,1.018c0,0.562,0.455,1.018,1.018,1.018
			S49.37-59.653,49.37-60.215"/>
		<path fill="#2EBDEF" d="M49.37-27.791c0-0.562-0.455-1.02-1.018-1.02s-1.018,0.458-1.018,1.02c0,0.562,0.455,1.018,1.018,1.018
			S49.37-27.229,49.37-27.791"/>
		<path fill="#2EBDEF" d="M49.37-13.895c0-0.562-0.455-1.021-1.018-1.021s-1.018,0.458-1.018,1.021c0,0.561,0.455,1.018,1.018,1.018
			S49.37-13.334,49.37-13.895"/>
		<path fill="#2EBDEF" d="M49.37-9.266c0-0.561-0.455-1.018-1.018-1.018s-1.018,0.457-1.018,1.018c0,0.564,0.455,1.021,1.018,1.021
			S49.37-8.701,49.37-9.266"/>
		<path fill="#2EBDEF" d="M49.37-4.633c0-0.561-0.455-1.018-1.018-1.018s-1.018,0.457-1.018,1.018c0,0.562,0.455,1.021,1.018,1.021
			S49.37-4.07,49.37-4.633"/>
		<path fill="#2EBDEF" d="M49.37-32.424c0-0.562-0.455-1.018-1.018-1.018s-1.018,0.455-1.018,1.018c0,0.562,0.455,1.018,1.018,1.018
			S49.37-31.862,49.37-32.424"/>
		<path fill="#2EBDEF" d="M54.742-74.109c0-0.021-0.002-0.043-0.004-0.062h-2.029c-0.002,0.019-0.003,0.04-0.003,0.062
			c0,0.562,0.456,1.018,1.018,1.018C54.285-73.092,54.742-73.548,54.742-74.109"/>
		<path fill="#2EBDEF" d="M54.742-64.846c0-0.562-0.457-1.018-1.018-1.018c-0.562,0-1.018,0.456-1.018,1.018
			c0,0.561,0.456,1.018,1.018,1.018C54.285-63.828,54.742-64.285,54.742-64.846"/>
		<path fill="#2EBDEF" d="M49.37-23.158c0-0.564-0.455-1.02-1.018-1.02s-1.018,0.455-1.018,1.02c0,0.561,0.455,1.016,1.018,1.016
			S49.37-22.598,49.37-23.158"/>
		<path fill="#2EBDEF" d="M49.37-18.527c0-0.562-0.455-1.021-1.018-1.021s-1.018,0.458-1.018,1.021c0,0.562,0.455,1.018,1.018,1.018
			S49.37-17.966,49.37-18.527"/>
		<path fill="#2EBDEF" d="M60.115-41.688c0-0.561-0.456-1.018-1.018-1.018s-1.019,0.457-1.019,1.018
			c0,0.562,0.457,1.021,1.019,1.021S60.115-41.125,60.115-41.688"/>
		<path fill="#2EBDEF" d="M65.486-23.158c0-0.564-0.455-1.02-1.018-1.02c-0.562,0-1.018,0.455-1.018,1.02
			c0,0.561,0.456,1.016,1.018,1.016C65.031-22.143,65.486-22.598,65.486-23.158"/>
		<path fill="#2EBDEF" d="M65.486-18.527c0-0.562-0.455-1.021-1.018-1.021c-0.562,0-1.018,0.458-1.018,1.021
			c0,0.562,0.456,1.018,1.018,1.018C65.031-17.51,65.486-17.966,65.486-18.527"/>
		<path fill="#2EBDEF" d="M65.486-27.791c0-0.562-0.455-1.02-1.018-1.02c-0.562,0-1.018,0.458-1.018,1.02
			c0,0.562,0.456,1.018,1.018,1.018C65.031-26.773,65.486-27.229,65.486-27.791"/>
		<path fill="#2EBDEF" d="M65.486-13.895c0-0.562-0.455-1.021-1.018-1.021c-0.562,0-1.018,0.458-1.018,1.021
			c0,0.561,0.456,1.018,1.018,1.018C65.031-12.877,65.486-13.334,65.486-13.895"/>
		<path fill="#2EBDEF" d="M65.486-37.055c0-0.564-0.455-1.02-1.018-1.02c-0.562,0-1.018,0.455-1.018,1.02
			c0,0.562,0.456,1.018,1.018,1.018C65.031-36.037,65.486-36.493,65.486-37.055"/>
		<path fill="#2EBDEF" d="M65.486-41.688c0-0.561-0.455-1.018-1.018-1.018c-0.562,0-1.018,0.457-1.018,1.018
			c0,0.562,0.456,1.021,1.018,1.021C65.031-40.667,65.486-41.125,65.486-41.688"/>
		<path fill="#2EBDEF" d="M65.486-9.266c0-0.561-0.455-1.018-1.018-1.018c-0.562,0-1.018,0.457-1.018,1.018
			c0,0.564,0.456,1.021,1.018,1.021C65.031-8.245,65.486-8.701,65.486-9.266"/>
		<path fill="#2EBDEF" d="M65.486-32.424c0-0.562-0.455-1.018-1.018-1.018c-0.562,0-1.018,0.455-1.018,1.018
			c0,0.562,0.456,1.018,1.018,1.018C65.031-31.406,65.486-31.862,65.486-32.424"/>
		<path fill="#2EBDEF" d="M70.859-55.582c0-0.562-0.456-1.018-1.018-1.018s-1.017,0.455-1.017,1.018
			c0,0.562,0.455,1.018,1.017,1.018S70.859-55.021,70.859-55.582"/>
		<path fill="#2EBDEF" d="M65.486-46.318c0-0.562-0.455-1.02-1.018-1.02c-0.562,0-1.018,0.457-1.018,1.02
			c0,0.562,0.456,1.018,1.018,1.018C65.031-45.301,65.486-45.757,65.486-46.318"/>
		<path fill="#2EBDEF" d="M70.859-50.951c0-0.562-0.456-1.018-1.018-1.018s-1.017,0.456-1.017,1.018s0.455,1.018,1.017,1.018
			S70.859-50.39,70.859-50.951"/>
		<path fill="#2EBDEF" d="M60.115-55.582c0-0.562-0.456-1.018-1.018-1.018s-1.019,0.455-1.019,1.018
			c0,0.562,0.457,1.018,1.019,1.018S60.115-55.021,60.115-55.582"/>
		<path fill="#2EBDEF" d="M65.486-4.633c0-0.561-0.455-1.018-1.018-1.018c-0.562,0-1.018,0.457-1.018,1.018
			c0,0.562,0.456,1.021,1.018,1.021C65.031-3.612,65.486-4.07,65.486-4.633"/>
		<path fill="#2EBDEF" d="M70.859-60.215c0-0.562-0.456-1.018-1.018-1.018s-1.017,0.455-1.017,1.018
			c0,0.562,0.455,1.018,1.017,1.018S70.859-59.653,70.859-60.215"/>
		<path fill="#2EBDEF" d="M70.859-74.109c0-0.021-0.003-0.043-0.003-0.062h-2.029c-0.003,0.019-0.003,0.04-0.003,0.062
			c0,0.562,0.455,1.018,1.017,1.018S70.859-73.548,70.859-74.109"/>
		<path fill="#2EBDEF" d="M70.859-69.479c0-0.562-0.456-1.018-1.018-1.018s-1.017,0.456-1.017,1.018
			c0,0.564,0.455,1.018,1.017,1.018S70.859-68.914,70.859-69.479"/>
		<path fill="#2EBDEF" d="M70.859-64.846c0-0.562-0.456-1.018-1.018-1.018s-1.017,0.456-1.017,1.018
			c0,0.561,0.455,1.018,1.017,1.018S70.859-64.285,70.859-64.846"/>
		<path fill="#2EBDEF" d="M70.859-46.318c0-0.562-0.456-1.02-1.018-1.02s-1.017,0.457-1.017,1.02c0,0.562,0.455,1.018,1.017,1.018
			S70.859-45.757,70.859-46.318"/>
		<path fill="#2EBDEF" d="M60.115-27.791c0-0.562-0.456-1.02-1.018-1.02s-1.019,0.458-1.019,1.02c0,0.562,0.457,1.018,1.019,1.018
			S60.115-27.229,60.115-27.791"/>
		<path fill="#2EBDEF" d="M60.115-18.527c0-0.562-0.456-1.021-1.018-1.021s-1.019,0.458-1.019,1.021
			c0,0.562,0.457,1.018,1.019,1.018S60.115-17.966,60.115-18.527"/>
		<path fill="#2EBDEF" d="M60.115-32.424c0-0.562-0.456-1.018-1.018-1.018s-1.019,0.455-1.019,1.018
			c0,0.562,0.457,1.018,1.019,1.018S60.115-31.862,60.115-32.424"/>
		<path fill="#2EBDEF" d="M60.115-23.158c0-0.564-0.456-1.02-1.018-1.02s-1.019,0.455-1.019,1.02c0,0.561,0.457,1.016,1.019,1.016
			S60.115-22.598,60.115-23.158"/>
		<path fill="#2EBDEF" d="M60.115-37.055c0-0.564-0.456-1.02-1.018-1.02s-1.019,0.455-1.019,1.02c0,0.562,0.457,1.018,1.019,1.018
			S60.115-36.493,60.115-37.055"/>
		<path fill="#2EBDEF" d="M60.115-50.951c0-0.562-0.456-1.018-1.018-1.018s-1.019,0.456-1.019,1.018s0.457,1.018,1.019,1.018
			S60.115-50.39,60.115-50.951"/>
		<path fill="#2EBDEF" d="M60.115-46.318c0-0.562-0.456-1.02-1.018-1.02s-1.019,0.457-1.019,1.02c0,0.562,0.457,1.018,1.019,1.018
			S60.115-45.757,60.115-46.318"/>
		<path fill="#2EBDEF" d="M70.859-41.688c0-0.561-0.456-1.018-1.018-1.018s-1.017,0.457-1.017,1.018
			c0,0.562,0.455,1.021,1.017,1.021S70.859-41.125,70.859-41.688"/>
		<path fill="#2EBDEF" d="M60.115-13.895c0-0.562-0.456-1.021-1.018-1.021s-1.019,0.458-1.019,1.021
			c0,0.561,0.457,1.018,1.019,1.018S60.115-13.334,60.115-13.895"/>
		<path fill="#2EBDEF" d="M65.486-60.215c0-0.562-0.455-1.018-1.018-1.018c-0.562,0-1.018,0.455-1.018,1.018
			c0,0.562,0.456,1.018,1.018,1.018C65.031-59.197,65.486-59.653,65.486-60.215"/>
		<path fill="#2EBDEF" d="M65.486-50.951c0-0.562-0.455-1.018-1.018-1.018c-0.562,0-1.018,0.456-1.018,1.018
			s0.456,1.018,1.018,1.018C65.031-49.934,65.486-50.39,65.486-50.951"/>
		<path fill="#2EBDEF" d="M65.486-69.479c0-0.562-0.455-1.018-1.018-1.018c-0.562,0-1.018,0.456-1.018,1.018
			c0,0.564,0.456,1.018,1.018,1.018C65.031-68.461,65.486-68.914,65.486-69.479"/>
		<path fill="#2EBDEF" d="M65.486-55.582c0-0.562-0.455-1.018-1.018-1.018c-0.562,0-1.018,0.455-1.018,1.018
			c0,0.562,0.456,1.018,1.018,1.018C65.031-54.564,65.486-55.021,65.486-55.582"/>
		<path fill="#2EBDEF" d="M65.486-64.846c0-0.562-0.455-1.018-1.018-1.018c-0.562,0-1.018,0.456-1.018,1.018
			c0,0.561,0.456,1.018,1.018,1.018C65.031-63.828,65.486-64.285,65.486-64.846"/>
		<path fill="#2EBDEF" d="M65.486-74.109c0-0.021-0.002-0.043-0.003-0.062h-2.03c0,0.019-0.003,0.04-0.003,0.062
			c0,0.562,0.456,1.018,1.018,1.018C65.031-73.092,65.486-73.548,65.486-74.109"/>
		<path fill="#2EBDEF" d="M60.115-9.266c0-0.561-0.456-1.018-1.018-1.018s-1.019,0.457-1.019,1.018c0,0.564,0.457,1.021,1.019,1.021
			S60.115-8.701,60.115-9.266"/>
		<path fill="#2EBDEF" d="M60.115-4.633c0-0.561-0.456-1.018-1.018-1.018s-1.019,0.457-1.019,1.018c0,0.562,0.457,1.021,1.019,1.021
			S60.115-4.07,60.115-4.633"/>
	</g>
</pattern>
<polygon fill="#12110E" points="1126.965,0 1135.469,202.979 1407.713,165.389 1413.713,7.389 "/>
<g>
	<path fill="#12110E" d="M1346.966,261.002c0.019,0.221,0.029,0.344,0.029,0.344l-8.594,10.943l16.06-5.409l-0.038-5.569
		C1351.9,261.021,1349.325,260.718,1346.966,261.002"/>
	<path fill="#148DCD" d="M1346.966,261.002c2.359-0.284,4.935,0.02,7.457,0.309l-0.218-32.203c-3.32,0.15-6.793,0.809-10.037,1.08
		C1345.408,242.776,1346.752,258.506,1346.966,261.002"/>
	<path fill="#FFFFFF" d="M1343.729,213.45c0.353,0.616-0.426,8.009,0.396,16.287c0.724-0.086,1.445-0.179,2.149-0.283
		c-0.704,0.104-1.426,0.197-2.149,0.283c0.013,0.149,0.029,0.301,0.044,0.45c3.244-0.271,6.717-0.93,10.037-1.08l0.54-17.4
		C1354.745,211.707,1343.142,212.429,1343.729,213.45"/>
	<path fill="#FFFFFF" d="M1342.021,213.092c0,0-14.71-6.564-14.124-5.543c0.302,0.523,2.384,20.631,3.062,27.226
		c3.369-0.399,6.932-0.626,10.417-0.925L1342.021,213.092z"/>
	<path fill="#148DCD" d="M1330.958,234.774c1.272,12.39,2.817,30.313,3.159,34.345c2.726,1.11,4.931,1.215,7.496,0.294
		l-0.238-35.563C1337.89,234.148,1334.327,234.375,1330.958,234.774"/>
	<path fill="#12110E" d="M1334.117,269.119c0.047,0.536,0.071,0.83,0.071,0.83l-9.625,14.077l17.091-8.541l-0.041-6.072
		C1339.048,270.334,1336.844,270.229,1334.117,269.119"/>
	<path fill="#148DCD" d="M1320.184,156.559c0,0,17.67-20.187,24.461-2.559c11.992,31.121,10.386,32.742,25.035,45.845
		c0,0-15.442,22.708-43.056,16.612C1324.609,216.014,1321.717,181.495,1320.184,156.559"/>
	<path fill="#FFFFFF" d="M1341.793,103.439c-5.643-0.388-11.324,6.23-15.199,9.973c-4.096,3.955-9.158,3.715-14.058,2.271
		c-0.795,0.874-1.161,2.072-0.682,3.475c1.07,3.138,3.11,5.679,5.858,7.607c-0.701,4.985-0.897,10.376,1.524,14.924
		c2.729,5.121,9.013,6.771,14.786,5.187c6.347-1.742,10.203-7.584,12.396-12.875c2.154-5.185,3.363-10.989,2.998-16.537
		C1349.076,112.285,1346.93,106.119,1341.793,103.439"/>
	<path fill="#FFFFFF" d="M1315.73,151.489c1.055-4.445-8.859-17.446-11.229-20.119c-2.153-2.428-9.959-12.667-9.959-12.667
		s4.512-0.301,6.944-4.324c2.43-4.027-1.051-6.24-1.051-6.24s-0.59,2-3.066,3.467c-2.477,1.468-2.317-7.069,1.122-7.133
		c3.442-0.061-5.983-2.169-10.328-0.385c-4.351,1.785-2.222,9.439,0.386,14.093c2.231,3.981,6.344,11.944,11.752,20.562
		C1304.354,145.197,1314.272,157.639,1315.73,151.489"/>
	<path fill="#FFFFFF" d="M1297.046,109.971c0,0,5.676,1.06,5.62-2.035c-0.054-3.091-6.371-3.651-7.682-1.856
		C1293.671,107.875,1297.046,109.971,1297.046,109.971"/>
	<path fill="#148DCD" d="M1330.077,104.288c0,0-0.521,11.722,5.443,18.911c0,0,3.582-3.381,7.064,0.978
		c3.478,4.358-3.015,8.231-3.015,8.231s1.217,13.68,22.836,13.073c0,0-14.914-5.04-12.441-16.354
		C1352.436,117.812,1356.857,93.202,1330.077,104.288"/>
	<path fill="#148DCD" d="M1358.66,153.504l15.826-11.996c0,0-12.935-3.082-11.94-1.776c0.997,1.31,4.644,14.946,4.644,14.946
		L1358.66,153.504z"/>
	<path fill="none" stroke="#12110E" stroke-width="0.6522" stroke-miterlimit="10" d="M1328.627,118.458
		c-0.811,1.678-2.075,2.794-2.825,2.497c-0.748-0.297-0.694-1.898,0.118-3.576c0.812-1.677,2.076-2.795,2.823-2.497
		C1329.492,115.178,1329.439,116.781,1328.627,118.458z"/>
	<path fill="#FFFFFF" d="M1326.493,150.815c-0.514-0.308-12.787-11.161-12.787-11.161l-7.295,10.499c0,0,14.343,11.932,17.981,9.073
		C1328.029,156.365,1328.108,151.791,1326.493,150.815"/>
	<path fill="#12110E" d="M1339.966,133.346c2.444,0.434,4.876,0.395,7.303-0.127c-0.145-0.248-0.288-0.496-0.434-0.744
		c-1.417,1.282-2.596,2.71-3.649,4.299c-0.203,0.307,0.072,0.642,0.383,0.669c1.871,0.171,3.747,0.193,5.613,0.389
		c-0.104-0.253-0.209-0.507-0.314-0.76c-1.06,1.29-2.286,2.425-3.348,3.716c-0.26,0.318-0.08,0.711,0.315,0.76
		c2.414,0.304,4.665-0.483,7.062-0.613c-0.129-0.223-0.258-0.445-0.384-0.669c-0.814,1.222-1.351,2.437-1.46,3.905
		c-0.014,0.181,0.145,0.398,0.326,0.429c2.222,0.374,4.363-0.047,6.567-0.357c0.567-0.079,0.324-0.937-0.235-0.857
		c-1.308,0.184-2.609,0.396-3.926,0.501c-2.518,0.201-1.289-1.994-0.506-3.171c0.183-0.274-0.057-0.688-0.383-0.67
		c-2.38,0.13-4.667,0.915-7.062,0.614c0.104,0.253,0.21,0.506,0.315,0.759c1.059-1.291,2.285-2.426,3.347-3.716
		c0.256-0.313,0.084-0.719-0.315-0.76c-1.866-0.193-3.742-0.219-5.613-0.389c0.129,0.223,0.257,0.447,0.385,0.67
		c1.012-1.527,2.152-2.89,3.512-4.118c0.35-0.317-0.023-0.832-0.434-0.743c-2.273,0.488-4.541,0.531-6.831,0.128
		C1339.642,132.389,1339.401,133.246,1339.966,133.346"/>
	<path fill="#FFFFFF" d="M1253.729,90.202c1.791,0.577,4.049-0.523,3.89-2.629c-0.194-2.577-4.329-1.657-5.672-0.843
		c-2.395,1.449-2.879,4.8-1.743,7.155c1.11,2.304,4.47,3.274,6.79,2.608c5.051-1.444,6.093-9.569,6.618-13.814
		c0.328-2.626,0.518-5.33,0.172-7.962c-0.112-0.851-0.294-1.644,0.102-2.45c0.643-1.316,2.326-2.107,3.598-2.604
		c2.301-0.897,4.756-1.272,7.025-2.276c-0.149-0.255-0.3-0.513-0.449-0.768c-3.807,2.39-3.525,8.455-3.699,12.363
		c-0.157,3.494-0.369,6.878-0.054,10.38c0.523,5.815,2.816,16.068,10.806,12.297c0.518-0.244,0.066-1.012-0.449-0.768
		c-7.789,3.677-9.25-7.986-9.589-13.098c-0.177-2.664-0.032-5.268,0.13-7.924c0.23-3.755-0.385-10.166,3.305-12.483
		c0.496-0.312,0.065-0.995-0.449-0.768c-2.848,1.261-6.676,1.353-9.151,3.356c-1.998,1.62-2.277,2.74-1.954,5.195
		c0.521,3.955-0.154,8.329-1.053,12.174c-0.868,3.718-2.904,9.489-7.773,8.297c-3.613-0.885-4.788-4.928-2.309-7.662
		c0.9-0.991,3.783-1.987,4.805-0.636c1.109,1.47-1.744,2.296-2.659,2C1253.417,89.168,1253.185,90.027,1253.729,90.202"/>
	<path fill="#FFFFFF" d="M1257.623,80.706c6.174,3.159,14.86,5.618,20.878,0.872c0.448-0.355-0.185-0.981-0.63-0.631
		c-5.652,4.459-14.043,1.935-19.8-1.009C1257.562,79.678,1257.111,80.444,1257.623,80.706"/>
	<path fill="#FFFFFF" d="M1296.291,85.061c-2.914-2.518-6.549-0.148-8.503,2.436c-1.067,1.41-1.976,3.02-2.034,4.827
		c-0.03,0.93,0.104,2.521,1.011,3.082c2.024,1.253,4.583-2.241,5.593-3.491c1.878-2.326,3.896-5.107,4.8-7.996
		c0.15-0.479-0.584-0.795-0.812-0.343c-1.657,3.294-4.835,7.585-0.948,10.577c2.916,2.244,7.086-1.858,8.602-3.998
		c0.332-0.471-0.439-0.914-0.768-0.45c-1.468,2.071-4.646,5.203-7.386,3.681c-3.627-2.019,0.088-7.016,1.268-9.361
		c-0.271-0.114-0.54-0.229-0.812-0.343c-0.602,1.917-1.822,3.702-2.931,5.356c-1.288,1.924-2.785,4.029-4.739,5.338
		c-0.931,0.623-1.562,0.421-1.849-0.674c-0.387-1.468,0.044-2.882,0.724-4.181c1.357-2.598,5.196-6.389,8.156-3.83
		C1296.094,86.062,1296.726,85.437,1296.291,85.061"/>
	<path fill="#148DCD" d="M1370.183,147.767c0,0,6.97-4.323,12.331-3.536c5.361,0.788-3.482,9.123-3.482,9.123L1370.183,147.767z"/>
</g>
<pattern  id="SVGID_1_" xlink:href="#Unnamed_Pattern_9" patternTransform="matrix(1 0 0 -1 -2622.2598 2338.7988)">
</pattern>
<path fill="url(#SVGID_1_)" d="M4.666,531.238l1268.348-282.743l501.983,74.348l-140.04,230.117c0,0-1631.847-25.11-1634.957-18.61"
	/>
<g>
	<path fill="#12A2DD" d="M1329.239,249.146c-0.171-0.002,87.596-12.547,79.21-12.711l61.436,5.296l-72.021,17.828L1329.239,249.146z
		"/>
	<rect x="1317.736" y="236.436" fill="none" width="213.27" height="152.408"/>
	<path fill="#FFFFFF" d="M1413.955,238.199c-0.113-0.053-0.247-0.057-0.373-0.029c0.141-0.225,0.24-0.478,0.237-0.799
		c-0.013-1.248-1.79-1.722-2.723-2.037c-3.52-1.192-7.615-0.251-8.57,3.713c-1.627,6.76,7.693,11.893,11.66,5.969
		C1416.395,243.057,1417.217,239.732,1413.955,238.199z M1413.192,238.785c0.09,0.229,0.142,0.452,0.173,0.672
		c-0.194-0.141-0.479-0.171-0.682,0.027c-0.031,0.033-0.067,0.059-0.1,0.092c0.117-0.353,0.353-0.621,0.588-0.887
		C1413.178,238.721,1413.18,238.752,1413.192,238.785z"/>
	<rect x="1494.9" y="292.816" fill="#148DCD" width="15.286" height="40.527"/>
	<path fill="#148DCD" d="M1431.725,314.532c4.755,0.599,86.278,14.683,86.278,14.683l2.74,8.171l-97.525-13.642L1431.725,314.532z"
		/>
	<path fill="#2EBDEF" d="M1329.24,249.65c0,0,3.913,120.038,5.227,120.016c1.311-0.022,25.734-1.297,25.734-1.297
		s-2.13-69.137-1.641-69.5c28.912-21.458,39.366-39.642,39.366-39.642S1334.937,250.385,1329.24,249.65"/>
	<path fill="#148DCD" d="M1429.999,245.345c4.229,0.546,36.136-2.285,36.136-2.285s-17.725,23.406-18.703,21.388
		c-0.197-0.406-0.154,54.309-0.154,54.309s-16.507-1.956-17.48-1.938C1428.822,316.834,1429.999,245.345,1429.999,245.345"/>
	<path fill="#2EBDEF" d="M1332.969,356.443c6.766,0.725,117.181,19.073,117.181,19.073l6.591,13.331l-139.01-22.18L1332.969,356.443
		z"/>
	<polyline fill="#2EBDEF" points="1404.457,316.791 1405.493,373.012 1431.541,373.696 1432.373,316.844 	"/>
	<polygon fill="#2EBDEF" points="1465.634,246.19 1393.499,264.892 1397.854,259.473 1466.949,242.793 	"/>
	<path fill="#2EBDEF" d="M1530.968,290.326l-1.812,3.934l-89.716,25.402c0,0-1.931-3.705-1.2-4.462
		C1438.97,314.443,1533.133,291.093,1530.968,290.326"/>
	<polygon fill="#2EBDEF" points="1399.408,312.175 1402.662,317.065 1439.315,319.493 1439.01,316.275 	"/>
	<path fill="#12A2DD" d="M1398.363,312.348c4.332-2.175,95.453-23.713,95.453-23.713l36.086,2.048l-92.104,26.106L1398.363,312.348z
		"/>
	<path fill="#FFFFFF" d="M1489.461,179.117c-0.663-7.38-5.78-13.732-13.503-13.271c-0.246,0.014-0.49,0.049-0.735,0.074
		c-0.232-0.041-0.465-0.086-0.698-0.111c-5.505-0.609-10.14,1.812-14.365,4.949c-1.922,0.936-3.741,2.223-5.384,3.874
		c-1.843-0.585-11.073-1.721-10.012,0.847c0.088,0.21,0.185,0.409,0.277,0.611c-0.005,0.002-0.01,0.006-0.016,0.008
		c0.023,0.043,0.052,0.08,0.074,0.122c1.131,2.402,2.744,4.36,4.729,5.769c-2.387,5.411-3.162,11.916-1.17,17.278
		c0.55,3.058,2.583,5.518,5.315,7.151c1.983,4.623,2.992,9.62,7.623,12.56c1.367,0.866,3.456,0.058,3.808-1.549
		c0.62-2.833,0.705-5.71,0.785-8.589c4.764-1.425,9.061-4.777,12.595-8.182C1484.258,195.387,1490.182,187.131,1489.461,179.117z"/>
	<path fill="#12110E" d="M1488.394,179.117c0,0-2.38,2.426-12.335-7.527c-9.955-9.954-2.845-12.088-2.845-12.088
		s-0.354,4.268,6.399,5.333C1486.367,165.901,1496.463,172.78,1488.394,179.117z"/>
	<path fill="#148DCD" d="M1454.018,306.326c0,0,24.53-5.333,29.507-12.088c4.977-6.754-2.489-35.195-0.712-53.326
		c1.778-18.131,3.807-28.517-10.77-28.872s-27.624-1.346-27.269,18.563c0.355,19.908,2.843,48.349-1.423,52.614
		s-20.975,4.268-24.529,12.443c-3.556,8.176-0.355,12.087-0.355,12.087l21.33-6.043
		C1439.797,301.705,1446.195,304.548,1454.018,306.326z"/>
	<path fill="#148DCD" d="M1448.76,217.38c0,0-15.979,24.147-20.157,26.13c-6.293,2.986-11.729,0.68-13.118-0.64
		c-2.133-2.026-9.989-1.031-10.345,5.013c-0.075,1.279,11.981,11.447,22.29,11.092c10.31-0.355,22.322-16.284,23.389-16.64
		C1451.884,241.979,1459.781,217.735,1448.76,217.38z"/>
	<polygon fill="#12A2DD" points="1434.301,274.904 1434.235,296.725 1524.251,271.937 1525.68,257.736 	"/>
	<polygon fill="#2EBDEF" points="1454.17,313.218 1454.334,277.167 1463.453,275.66 1461.123,310.941 	"/>
	<polygon fill="#2EBDEF" points="1503.229,298.998 1503.354,267.473 1510.187,266.154 1508.439,297.008 	"/>
	
		<ellipse transform="matrix(0.7359 0.6771 -0.6771 0.7359 503.7893 -943.7178)" fill="none" stroke="#12110E" stroke-width="0.8793" stroke-miterlimit="10" cx="1461.506" cy="173.874" rx="1.372" ry="2.777"/>
</g>
<g>
	<path fill="#148DCD" d="M1261.058,366.955c5.938,0.75,107.734,18.338,107.734,18.338l3.421,10.2l-121.778-17.033L1261.058,366.955z
		"/>
	<path fill="#12110E" d="M1255.836,366.508c1.031,0.994,29.119,41.049,29.119,41.049s-18.764,21.825-28.552,21.55
		c-9.787-0.275,15.399-13.571,11.315-21.581s-31.76-41.042-31.76-41.042L1255.836,366.508z"/>
	<path fill="#12110E" d="M1266.976,355.786c0.866,0.874,24.459,36.069,24.459,36.069l-18.888,22.002l4.428-22.041l-26.676-36.066
		L1266.976,355.786z"/>
	<path fill="#FFFFFF" d="M1264.577,257.891c0.761,0.654,1.741,1.055,2.937,1.034c0.18-0.003,0.355-0.02,0.532-0.045
		c0.533,0.025,1.071-0.051,1.595-0.218c0.338-0.142,0.67-0.292,0.999-0.453c0.603-0.377,1.777-3.643,2.148-4.253
		c0.46,0.146,4.199,5.713,4.665,5.832c0.709-0.113,1.104-1.924,2.002-1.558c1.989,0.816,0.432,0.669,2.514,1.258
		c5.908,0.919,9.725-0.004,14.503-3.926c1.958-1.608,3.734,12.766,4.581,10.562c1.392-1.603,9.965,2.85,10.953-1.717
		c1.863-8.607-4.585-28.209-5.843-32.823c-2.738-10.045-11.195-19.032-20.407-23.546c-10.355-5.074-21.375-3.037-28.032,6.633
		c-3.684,5.35-3.824,16.282-4.407,15.307c-0.343-0.575-0.752-1.011-1.192-1.348c0.156,0.694,0.361,1.383,0.66,2.064
		c1.72,3.913,4.587,7.347,6.761,11.008C1262.564,246.792,1265.012,252.471,1264.577,257.891"/>
	<path fill="#12110E" d="M1286.22,212.02c0,0-16.045,3.449-22.616,5.869c-6.572,2.416-2.948,12.132-15.822,16.1
		c-12.87,3.971-13.631-6.371-13.631-6.371s10.763,6.711,10.896-1.92s3.439-32.852,16.701-31.075
		C1275.014,196.4,1286.22,212.02,1286.22,212.02"/>
	<path fill="#12110E" d="M1271.401,203.655c0,0,12.386-15.179,27.596-1.068c15.208,14.111,6.237,27.213,12.312,29.118
		c6.076,1.906-13.129,5.701-13.129,5.701l-6.475-8.227c0,0-0.698-16.92-7.764-15.967c-7.064,0.95-5.36,5.846-5.36,5.846
		s-6.074-1.904-14.978-1.17"/>
	
		<ellipse transform="matrix(0.6442 -0.7649 0.7649 0.6442 264.7153 1054.1682)" fill="none" stroke="#010202" stroke-width="0.8626" stroke-miterlimit="10" cx="1265.437" cy="242.553" rx="1.87" ry="4.169"/>
	<polygon fill="#148DCD" points="1367.104,390.646 1347.065,391.937 1347.664,335.044 1365.505,337.077 	"/>
	<path fill="#2EBDEF" d="M1133.083,285.939c0,0,4.89,149.893,6.527,149.863c1.638-0.028,32.137-1.619,32.137-1.619
		s-2.659-86.331-2.05-86.787c36.103-26.791,49.157-49.498,49.157-49.498S1140.197,286.857,1133.083,285.939"/>
	<path fill="#12A2DD" d="M1133.385,285.311c-0.215-0.002,125.302-13.558,114.83-13.762l75.295,8.671l-104.435,18.095
		L1133.385,285.311z"/>
	<polyline fill="#2EBDEF" points="1228.395,369.777 1229.688,439.979 1262.215,440.834 1263.253,369.844 	"/>
	<polygon fill="#2EBDEF" points="1322.07,284.274 1213.325,304.971 1218.763,298.203 1323.714,280.03 	"/>
	<path fill="#2EBDEF" d="M1384.41,336.524l-1.15,5.119l-112.567,31.72c0,0-2.413-4.625-1.499-5.572
		c0.91-0.944,115.035-31.086,114.855-31.086"/>
	<polygon fill="#2EBDEF" points="1220.704,364.014 1224.767,370.121 1270.537,373.151 1270.154,369.133 	"/>
	<path fill="#12A2DD" d="M1220.731,363.784c5.41-2.713,119.193-29.609,119.193-29.609l45.059,2.554l-115.011,32.601
		L1220.731,363.784z"/>
	<path fill="#12110E" d="M1280.74,330.653c-1.535,1.397-3.393,2.453-5.658,2.951c-11.792,2.601,2.929-11.144,3.112-11.502
		c-5.225-0.777-19.234-3.06-24.096-1.103c-3.644,1.465-6.133,6.018-5.729,14.924c-0.377-0.189-15.261-1.48-21.447,4.419
		c-5.472,5.218,4.644,20.119,4.842,19.913c0.126-0.132,12.262-2.655,12.262-2.655c5.411-0.057,14.128-0.288,19.492,0.421
		c8.591,1.142,24.62,1.315,28.593,0.131c10.89-3.245,30.19-3.743,26.033-21.104C1305.305,344.025,1291.255,339.349,1280.74,330.653
		 M1261.745,331.962c0,0-0.004,0-0.007,0.002c-0.771,0.156-0.4,0.081-0.006,0c-1.573,0.388-3.147,0.774-4.721,1.163
		c2.662-4.445,5.025-2.321,9.951-2.021C1265.223,331.391,1263.483,331.677,1261.745,331.962"/>
	<path fill="#148DCD" d="M1318.279,251.508c-12.034-10.193-38.433,4.461-43.008,20.141c-5.016,17.183-4.242,17.494-13.446,45.783
		c-0.554,1.701,14.69-2.483,14.919-0.777c0.051-0.022,5.856-24.885,5.904-24.907c3.252-1.438,0.354,15.437-1.455,23.038
		c-1.234,5.181-2.102,9.714-7.873,13.321c15.28,8.611,35.936,14.436,54.741,7.352c0.015-0.062,0.028-0.121,0.042-0.185
		C1333.059,311.221,1327.422,259.251,1318.279,251.508"/>
	<polygon fill="#12A2DD" points="1264.272,317.476 1264.191,344.721 1376.593,313.77 1378.38,296.035 	"/>
	<polygon fill="#2EBDEF" points="1289.086,365.316 1289.288,320.298 1300.676,318.416 1297.767,362.473 	"/>
	<polygon fill="#2EBDEF" points="1356.229,348.752 1356.245,306.977 1364.857,305.266 1362.789,346.141 	"/>
	<path fill="#010202" d="M1260.447,235.414c2.041,2.049,5.074,1.853,7.596,0.875c0.603-0.233,0.341-1.214-0.27-0.979
		c-2.167,0.842-4.82,1.182-6.609-0.612C1260.702,234.234,1259.985,234.951,1260.447,235.414"/>
	<path fill="#2EBDEF" d="M1127.994,433.336c0,0,7.397-17.106,8.784-17.106c1.388,0,124.838,18.031,124.838,18.031l5.549,19.882
		L1127.994,433.336z"/>
	<rect x="1260.379" y="317.503" fill="#2EBDEF" width="4.06" height="27.304"/>
	<polygon fill="#2EBDEF" points="1378.258,296.177 1373.554,294.91 1260.379,317.503 1264.623,318.058 	"/>
</g>
<g>
	<path fill="#2EBDEF" d="M1377.974,312.649c0,0,4.116,165.931,5.95,165.899c1.831-0.035,35.962-1.813,35.962-1.813
		s-2.974-96.616-2.289-97.123c40.399-29.987,55.01-55.396,55.01-55.396S1385.935,313.68,1377.974,312.649"/>
	<path fill="#148DCD" d="M1505.271,302.761c0,0-0.944,108.81,0.303,108.786c1.248-0.022,22.379,2.482,22.379,2.482
		s-0.051-70.046,0.202-69.526c1.249,2.585,53.771-44.826,53.771-44.826S1510.688,303.461,1505.271,302.761"/>
	<path fill="#12A2DD" d="M1378.687,312.638c-0.233-0.002,134.042-19.045,122.772-19.271l86.602,6.2l-118.106,26.759
		L1378.687,312.638z"/>
	<path fill="#148DCD" d="M1512.387,406.949c6.091,0.765,105.741,8.188,105.741,8.188l6.757,10.397l-124.59-8.731L1512.387,406.949z"
		/>
	<polyline fill="#2EBDEF" points="1473.479,411.391 1474.804,483.366 1508.151,484.242 1509.219,411.459 	"/>
	<polygon fill="#2EBDEF" points="1585.048,302.687 1468.949,329.73 1471.942,325.736 1587.175,299.143 	"/>
	<polygon fill="#2EBDEF" points="1466.675,405.604 1470.838,411.867 1517.76,414.971 1517.369,410.853 	"/>
	<polygon fill="#12A2DD" points="1510.603,359.366 1510.518,387.301 1618.044,346.387 1620.398,324.639 	"/>
	<polygon fill="#A42523" points="1484.202,298.432 1528.004,284.602 1565.162,299.342 1534.681,308.202 	"/>
	<path fill="#FFFFFF" d="M1564.295,298.609c0,0,1.305-15.569,0.287-16.498c-1.017-0.936-30.494,2.73-30.494,2.73l-46.807-5.381
		l1.197,17.38l46.577,9.111L1564.295,298.609z"/>
	<polygon fill="#A42523" points="1483.907,280.281 1522.796,274.004 1565.515,281.92 1535.053,289.174 	"/>
	<path fill="#2EBDEF" d="M1366.223,475.158c0,0,7.938-18.986,9.426-18.986s133.964,20.012,133.964,20.012l5.954,22.062
		L1366.223,475.158z"/>
	<rect x="1581.1" y="370.023" fill="#148DCD" width="21.77" height="46.861"/>
	<path fill="#2EBDEF" d="M1619.105,367.256l-0.875,4.47l-100.309,43.466c0,0-2.472-4.743-1.536-5.713
		c0.934-0.969,102.903-41.854,102.649-41.709"/>
	<path fill="#12A2DD" d="M1466.514,405.923c5.549-2.78,108.521-37.695,108.521-37.695l44.238-0.788l-102.272,44.17L1466.514,405.923
		z"/>
	<rect x="1508.043" y="359.506" fill="#2EBDEF" width="4.06" height="27.305"/>
	<polygon fill="#2EBDEF" points="1542.912,402.678 1542.358,363.566 1552.138,359.876 1550.846,399.173 	"/>
	<polygon fill="#2EBDEF" points="1589.699,382.568 1589.218,345.817 1597.706,342.35 1596.585,379.275 	"/>
	<polygon fill="#2EBDEF" points="1620.398,324.639 1617.653,323.977 1508.043,359.506 1512.287,360.061 	"/>
</g>
<g>
	<path fill="#12110E" d="M1083.274,258.986c1.66,1.045,156.57,15.34,154.187,19.56c-2.388,4.223-154.762-14.745-154.762-14.745
		L1083.274,258.986z"/>
	<path fill="#12110E" d="M1056.041,182.733c-0.277,4.682,6.012,30.243,32.1,44.057c27.616,14.628,34.138,17.028,34.138,17.028
		l-14.84,19.169c0,0-28.927-11.188-45.827-30.324c-16.244-18.394-17.824-50.79-17.824-50.79"/>
	<path fill="#FFFFFF" d="M1120.149,251.444c2.536-0.342,12.712-4.069,18.22-0.3c7.938,5.439,9.076,12.593,9.076,12.593l-9.327-5.791
		c0,0-4.613,0.797-2.32,5.298c2.295,4.503,12.647,13.986,12.647,13.986l-20.632,3.793c0,0-7.36-13.322-12.421-18.523
		C1110.333,257.299,1120.149,251.444,1120.149,251.444"/>
	<path fill="#12110E" d="M1070.252,285.688c0,0,17.357,61.638,14.446,64.103c-2.912,2.466-11.615,53.156-11.615,53.156
		s55.586,17.09,47.458,8.762c-8.13-8.33-28.466-11.094-29.976-23.117c-1.511-12.021,14.706-45.603,15.331-52.052
		c0.666-6.884,0.494-7.067-14.747-80.993L1070.252,285.688z"/>
	<path fill="#FFFFFF" d="M1083.866,215.551c-0.378,0.007-41.475-46.963-38.489-49.539c2.981-2.579,11.71-8.541,11.71-8.541
		l22.211,6.715c0,0,6.517,33.285,6.166,41.746C1085.107,214.395,1083.866,215.551,1083.866,215.551"/>
	<polygon fill="#FFFFFF" points="1078.652,169.377 1075.23,153.893 1077.428,152.742 1080.967,164.34 	"/>
	<path fill="#FFFFFF" d="M1103.685,107.959c-3.489-13.215-14.175-28.795-28.747-30.826c-7.394-1.027-16.745-4.426-26.222,7.882
		c-3.94,5.119-4.008,13.428-5.302,19.481c-0.688,0.156-7.15-4.101-9.039,3.644c-0.846,3.477,1.36,16.718,4.451,18.553
		c4.519,2.675,7.886-0.313,7.799-0.468c-0.1,3.461,1.652,9.061,3.04,12.24c4.115,9.424,20.196,25.175,29.077,25.859
		c2.367,0.004-5.238-10.575-2.874-10.465c1.657-0.272,3.271-0.638,4.862-1.064c1.162-0.432,2.339-0.818,3.536-1.125l-0.02-0.073
		c1.557-0.519,3.037-1.116,4.395-1.785c7.319-3.622,12.802-9.114,15.198-17.011C1106.316,124.629,1105.842,116.139,1103.685,107.959
		"/>
	<path fill="none" stroke="#010202" stroke-width="0.8959" stroke-miterlimit="10" d="M1075.863,106.083
		c-0.267,2.474-1.252,4.395-2.204,4.292c-0.947-0.102-1.497-2.189-1.229-4.664c0.267-2.47,1.249-4.396,2.198-4.293
		C1075.579,101.521,1076.131,103.61,1075.863,106.083z"/>
	<path fill="none" stroke="#010202" stroke-width="0.8959" stroke-miterlimit="10" d="M1092.41,104.623
		c-0.271,2.473-1.255,4.395-2.202,4.292c-0.95-0.103-1.502-2.192-1.233-4.663c0.265-2.473,1.248-4.396,2.203-4.293
		C1092.123,100.058,1092.673,102.148,1092.41,104.623z"/>
	<path fill="#010202" d="M1042.568,108.704c1.776-0.014,4.142,0.679,3.077,2.909c-0.721,1.512-2.605,1.857-4.089,1.754
		c-0.192-0.014-0.392,0.144-0.434,0.328c-0.297,1.284,0.454,2.273,1.284,3.183c0.65,0.713,1.404,1.332,2.091,2.008
		c1.479,1.457-0.284,1.971-1.67,2.198c-0.57,0.092-0.326,0.956,0.238,0.864c1.396-0.228,3.795-0.671,2.949-2.59
		c-0.388-0.884-1.385-1.593-2.065-2.226c-0.562-0.523-3.055-2.789-1.266-2.848c1.786-0.057,4.071-1.504,4.135-3.477
		c0.078-2.404-2.257-3.016-4.251-3C1041.99,107.812,1041.99,108.708,1042.568,108.704"/>
	<path fill="#12110E" d="M1085.734,128.604c0,0-13.764-7.999-18.703-1.537c-4.938,6.463-8.835,11.343-10.434,8.073
		c-1.597-3.269,2.01-3.643,2.01-3.643s-6.147,0.431-3.834,4.229c2.31,3.799,13.004,7.158,19.788,0.263
		C1081.348,129.094,1085.734,128.604,1085.734,128.604"/>
	<path fill="#12110E" d="M1085.671,128.614c0,0,7.828-11.19,13.004-6.222c5.177,4.969,9.202,8.673,9.52,5.123
		c0.312-3.551-2.363-2.996-2.363-2.996s4.512-1.144,3.819,3.1c-0.695,4.244-7.499,10.186-14.105,5.27
		C1088.937,127.971,1085.671,128.614,1085.671,128.614"/>
	<path fill="#FFFFFF" d="M1085.587,104.1c2.622,8.08,5.33,16.404,8.437,24.312c-2.903,1.041-12.688,0.445-12.084-1.686"/>
	<path fill="#010202" d="M1085.155,104.219c2.333,7.188,4.684,14.371,7.334,21.449c0.241,0.638,0.484,1.274,0.73,1.913
		c0.295,0.767,0.383,0.521-0.464,0.678c-1.206,0.227-2.47,0.213-3.69,0.199c-0.876-0.009-6.867-0.104-6.679-1.731
		c0.066-0.574-0.831-0.566-0.896,0c-0.419,3.621,10.785,2.702,12.651,2.118c0.214-0.067,0.404-0.316,0.312-0.55
		c-3.117-7.996-5.788-16.153-8.436-24.314C1085.842,103.436,1084.977,103.668,1085.155,104.219"/>
	<circle fill="none" stroke="#010202" stroke-width="0.8959" stroke-miterlimit="10" cx="1075.396" cy="109.825" r="6.539"/>
	<path fill="#FFFFFF" d="M1071.716,114.03c0.136,0.905-0.49,1.743-1.392,1.88c-0.908,0.132-1.747-0.492-1.881-1.396
		c-0.132-0.903,0.489-1.745,1.395-1.88C1070.743,112.502,1071.583,113.125,1071.716,114.03"/>
	<path fill="none" stroke="#010202" stroke-width="0.8959" stroke-miterlimit="10" d="M1071.716,114.03
		c0.136,0.905-0.49,1.743-1.392,1.88c-0.908,0.132-1.747-0.492-1.881-1.396c-0.132-0.903,0.489-1.745,1.395-1.88
		C1070.743,112.502,1071.583,113.125,1071.716,114.03z"/>
	<path fill="none" stroke="#010202" stroke-width="0.8959" stroke-miterlimit="10" d="M1070.324,115.91
		c0,0,4.85,86.725,12.135,82.146"/>
	<path fill="#12110E" d="M1013.932,314.076l31.865-69.667c0,0-25.83-81.433,4.017-80.822c21.708,0.443,32.912,45.449,32.71,46.335
		c-0.299,1.277,3.088-13.567-3.249-47.143c0,0,14.374,6.77,7.53,48.41c-2.292,13.929,24.606,101.443,24.621,102.325
		c0.004,0.221-17.614,13.171-18.721,12.969c-3.929-0.711-27.105,2.583-27.327,2.594
		C1029.783,330.905,1013.776,313.372,1013.932,314.076"/>
	<polygon fill="#12110E" points="1071.869,184.408 1079.461,184.645 1074.489,165.299 1082.045,184.228 1085.513,181.391 
		1076.087,161.568 1070.364,162.409 	"/>
	<polygon fill="#FFFFFF" points="1048.51,150.123 1073.589,155.412 1072.223,172.096 1047.941,159.943 	"/>
	<polygon fill="#12110E" points="1039.79,92.057 1051.551,89.93 1048.342,102.479 1037.825,102.476 	"/>
	<path fill="#12110E" d="M1040.625,88.896l11.443-0.992c0,0,1.06-3.346,5.168-4.496c4.108-1.149,6.035,4.006,11.568,0.393
		c5.53-3.617,3.471-7.045,8.288-4.958c4.818,2.087,4.527,5.395,7.664,3.453c3.138-1.94,1.738-2.979,1.738-2.979
		s-19.372-10.589-33.333-4.02C1039.199,81.875,1042.552,86.666,1040.625,88.896"/>
	<path fill="#12110E" d="M1072.309,95.691c1.582,1.541,3.034,3.264,5.119,4.122c0.661,0.271,0.947-0.8,0.297-1.069
		c-1.874-0.77-3.216-2.455-4.631-3.836C1072.582,94.411,1071.799,95.193,1072.309,95.691"/>
	<path fill="#12110E" d="M1089.468,97.139c1.152-1.688,1.712-3.745,2.173-5.715c0.165-0.694-0.905-0.99-1.068-0.295
		c-0.442,1.883-0.959,3.837-2.062,5.449C1088.105,97.172,1089.067,97.725,1089.468,97.139"/>
	<path fill="#12110E" d="M1085.03,133.893c0.053-0.841,1.341-1.395,2.003-1.588c1.478-0.432,2.598,0.506,3.244,1.754
		c0.327,0.636,1.282,0.076,0.956-0.558c-0.915-1.774-2.503-2.722-4.494-2.265c-1.218,0.277-2.733,1.297-2.817,2.656
		C1083.877,134.605,1084.985,134.602,1085.03,133.893"/>
	<path fill="#12110E" d="M1040.267,307.463c0,0,17.358,61.637,14.445,64.104c-2.908,2.467-11.614,53.154-11.614,53.154
		s57.985,20.22,47.458,8.764c-10.526-11.453-30.517-13.612-29.977-23.119c0.541-9.502,14.71-45.6,15.332-52.049
		c0.624-6.449-14.748-80.995-14.748-80.995L1040.267,307.463z"/>
</g>
<g>
</g>
<g>
</g>
<g>
</g>
<g>
</g>
<g>
</g>
<g>
</g>
</svg>
