<?xml version="1.0" encoding="utf-8"?>
<!-- Generator: Adobe Illustrator 16.0.4, SVG Export Plug-In . SVG Version: 6.00 Build 0)  -->
<!DOCTYPE svg PUBLIC "-//W3C//DTD SVG 1.1//EN" "http://www.w3.org/Graphics/SVG/1.1/DTD/svg11.dtd">
<svg version="1.1" id="Layer_1" xmlns="http://www.w3.org/2000/svg" xmlns:xlink="http://www.w3.org/1999/xlink" x="0px" y="0px"
	 width="1774.997px" height="552.96px" viewBox="0 0 1774.997 552.96" enable-background="new 0 0 1774.997 552.96"
	 xml:space="preserve">
<g>
	<path fill="#12110E" d="M1083.274,258.986c1.66,1.045,156.57,15.34,154.187,19.56c-2.388,4.223-154.762-14.745-154.762-14.745
		L1083.274,258.986z"/>
	<path fill="#12110E" d="M1056.041,182.733c-0.277,4.682,6.012,30.243,32.1,44.057c27.616,14.628,34.138,17.028,34.138,17.028
		l-14.84,19.169c0,0-28.927-11.188-45.827-30.324c-16.244-18.394-17.824-50.79-17.824-50.79"/>
	<path fill="#FFFFFF" d="M1120.149,251.444c2.536-0.342,12.712-4.069,18.22-0.3c7.938,5.439,9.076,12.593,9.076,12.593l-9.327-5.791
		c0,0-4.613,0.797-2.32,5.298c2.295,4.503,12.647,13.986,12.647,13.986l-20.632,3.793c0,0-7.36-13.322-12.421-18.523
		C1110.333,257.299,1120.149,251.444,1120.149,251.444"/>
	<path fill="#12110E" d="M1070.252,285.688c0,0,17.357,61.638,14.446,64.103c-2.912,2.466-11.615,53.156-11.615,53.156
		s55.586,17.09,47.458,8.762c-8.13-8.33-28.466-11.094-29.976-23.117c-1.511-12.021,14.706-45.603,15.331-52.052
		c0.666-6.884,0.494-7.067-14.747-80.993L1070.252,285.688z"/>
	<path fill="#FFFFFF" d="M1083.866,215.551c-0.378,0.007-41.475-46.963-38.489-49.539c2.981-2.579,11.71-8.541,11.71-8.541
		l22.211,6.715c0,0,6.517,33.285,6.166,41.746C1085.107,214.395,1083.866,215.551,1083.866,215.551"/>
	<polygon fill="#FFFFFF" points="1078.652,169.377 1075.23,153.893 1077.428,152.742 1080.967,164.34 	"/>
	<path fill="#FFFFFF" d="M1103.685,107.959c-3.489-13.215-14.175-28.795-28.747-30.826c-7.394-1.027-16.745-4.426-26.222,7.882
		c-3.94,5.119-4.008,13.428-5.302,19.481c-0.688,0.156-7.15-4.101-9.039,3.644c-0.846,3.477,1.36,16.718,4.451,18.553
		c4.519,2.675,7.886-0.313,7.799-0.468c-0.1,3.461,1.652,9.061,3.04,12.24c4.115,9.424,20.196,25.175,29.077,25.859
		c2.367,0.004-5.238-10.575-2.874-10.465c1.657-0.272,3.271-0.638,4.862-1.064c1.162-0.432,2.339-0.818,3.536-1.125l-0.02-0.073
		c1.557-0.519,3.037-1.116,4.395-1.785c7.319-3.622,12.802-9.114,15.198-17.011C1106.316,124.629,1105.842,116.139,1103.685,107.959
		"/>
	<path fill="none" stroke="#010202" stroke-width="0.8959" stroke-miterlimit="10" d="M1075.863,106.083
		c-0.267,2.474-1.252,4.395-2.204,4.292c-0.947-0.102-1.497-2.189-1.229-4.664c0.267-2.47,1.249-4.396,2.198-4.293
		C1075.579,101.521,1076.131,103.61,1075.863,106.083z"/>
	<path fill="none" stroke="#010202" stroke-width="0.8959" stroke-miterlimit="10" d="M1092.41,104.623
		c-0.271,2.473-1.255,4.395-2.202,4.292c-0.95-0.103-1.502-2.192-1.233-4.663c0.265-2.473,1.248-4.396,2.203-4.293
		C1092.123,100.058,1092.673,102.148,1092.41,104.623z"/>
	<path fill="#010202" d="M1042.568,108.704c1.776-0.014,4.142,0.679,3.077,2.909c-0.721,1.512-2.605,1.857-4.089,1.754
		c-0.192-0.014-0.392,0.144-0.434,0.328c-0.297,1.284,0.454,2.273,1.284,3.183c0.65,0.713,1.404,1.332,2.091,2.008
		c1.479,1.457-0.284,1.971-1.67,2.198c-0.57,0.092-0.326,0.956,0.238,0.864c1.396-0.228,3.795-0.671,2.949-2.59
		c-0.388-0.884-1.385-1.593-2.065-2.226c-0.562-0.523-3.055-2.789-1.266-2.848c1.786-0.057,4.071-1.504,4.135-3.477
		c0.078-2.404-2.257-3.016-4.251-3C1041.99,107.812,1041.99,108.708,1042.568,108.704"/>
	<path fill="#12110E" d="M1085.734,128.604c0,0-13.764-7.999-18.703-1.537c-4.938,6.463-8.835,11.343-10.434,8.073
		c-1.597-3.269,2.01-3.643,2.01-3.643s-6.147,0.431-3.834,4.229c2.31,3.799,13.004,7.158,19.788,0.263
		C1081.348,129.094,1085.734,128.604,1085.734,128.604"/>
	<path fill="#12110E" d="M1085.671,128.614c0,0,7.828-11.19,13.004-6.222c5.177,4.969,9.202,8.673,9.52,5.123
		c0.312-3.551-2.363-2.996-2.363-2.996s4.512-1.144,3.819,3.1c-0.695,4.244-7.499,10.186-14.105,5.27
		C1088.937,127.971,1085.671,128.614,1085.671,128.614"/>
	<path fill="#FFFFFF" d="M1085.587,104.1c2.622,8.08,5.33,16.404,8.437,24.312c-2.903,1.041-12.688,0.445-12.084-1.686"/>
	<path fill="#010202" d="M1085.155,104.219c2.333,7.188,4.684,14.371,7.334,21.449c0.241,0.638,0.484,1.274,0.73,1.913
		c0.295,0.767,0.383,0.521-0.464,0.678c-1.206,0.227-2.47,0.213-3.69,0.199c-0.876-0.009-6.867-0.104-6.679-1.731
		c0.066-0.574-0.831-0.566-0.896,0c-0.419,3.621,10.785,2.702,12.651,2.118c0.214-0.067,0.404-0.316,0.312-0.55
		c-3.117-7.996-5.788-16.153-8.436-24.314C1085.842,103.436,1084.977,103.668,1085.155,104.219"/>
	<circle fill="none" stroke="#010202" stroke-width="0.8959" stroke-miterlimit="10" cx="1075.396" cy="109.825" r="6.539"/>
	<path fill="#FFFFFF" d="M1071.716,114.03c0.136,0.905-0.49,1.743-1.392,1.88c-0.908,0.132-1.747-0.492-1.881-1.396
		c-0.132-0.903,0.489-1.745,1.395-1.88C1070.743,112.502,1071.583,113.125,1071.716,114.03"/>
	<path fill="none" stroke="#010202" stroke-width="0.8959" stroke-miterlimit="10" d="M1071.716,114.03
		c0.136,0.905-0.49,1.743-1.392,1.88c-0.908,0.132-1.747-0.492-1.881-1.396c-0.132-0.903,0.489-1.745,1.395-1.88
		C1070.743,112.502,1071.583,113.125,1071.716,114.03z"/>
	<path fill="none" stroke="#010202" stroke-width="0.8959" stroke-miterlimit="10" d="M1070.324,115.91
		c0,0,4.85,86.725,12.135,82.146"/>
	<path fill="#12110E" d="M1013.932,314.076l31.865-69.667c0,0-25.83-81.433,4.017-80.822c21.708,0.443,32.912,45.449,32.71,46.335
		c-0.299,1.277,3.088-13.567-3.249-47.143c0,0,14.374,6.77,7.53,48.41c-2.292,13.929,24.606,101.443,24.621,102.325
		c0.004,0.221-17.614,13.171-18.721,12.969c-3.929-0.711-27.105,2.583-27.327,2.594
		C1029.783,330.905,1013.776,313.372,1013.932,314.076"/>
	<polygon fill="#12110E" points="1071.869,184.408 1079.461,184.645 1074.489,165.299 1082.045,184.228 1085.513,181.391 
		1076.087,161.568 1070.364,162.409 	"/>
	<polygon fill="#FFFFFF" points="1048.51,150.123 1073.589,155.412 1072.223,172.096 1047.941,159.943 	"/>
	<polygon fill="#12110E" points="1039.79,92.057 1051.551,89.93 1048.342,102.479 1037.825,102.476 	"/>
	<path fill="#12110E" d="M1040.625,88.896l11.443-0.992c0,0,1.06-3.346,5.168-4.496c4.108-1.149,6.035,4.006,11.568,0.393
		c5.53-3.617,3.471-7.045,8.288-4.958c4.818,2.087,4.527,5.395,7.664,3.453c3.138-1.94,1.738-2.979,1.738-2.979
		s-19.372-10.589-33.333-4.02C1039.199,81.875,1042.552,86.666,1040.625,88.896"/>
	<path fill="#12110E" d="M1072.309,95.691c1.582,1.541,3.034,3.264,5.119,4.122c0.661,0.271,0.947-0.8,0.297-1.069
		c-1.874-0.77-3.216-2.455-4.631-3.836C1072.582,94.411,1071.799,95.193,1072.309,95.691"/>
	<path fill="#12110E" d="M1089.468,97.139c1.152-1.688,1.712-3.745,2.173-5.715c0.165-0.694-0.905-0.99-1.068-0.295
		c-0.442,1.883-0.959,3.837-2.062,5.449C1088.105,97.172,1089.067,97.725,1089.468,97.139"/>
	<path fill="#12110E" d="M1085.03,133.893c0.053-0.841,1.341-1.395,2.003-1.588c1.478-0.432,2.598,0.506,3.244,1.754
		c0.327,0.636,1.282,0.076,0.956-0.558c-0.915-1.774-2.503-2.722-4.494-2.265c-1.218,0.277-2.733,1.297-2.817,2.656
		C1083.877,134.605,1084.985,134.602,1085.03,133.893"/>
	<path fill="#12110E" d="M1040.267,307.463c0,0,17.358,61.637,14.445,64.104c-2.908,2.467-11.614,53.154-11.614,53.154
		s57.985,20.22,47.458,8.764c-10.526-11.453-30.517-13.612-29.977-23.119c0.541-9.502,14.71-45.6,15.332-52.049
		c0.624-6.449-14.748-80.995-14.748-80.995L1040.267,307.463z"/>
</g>
<g>
</g>
<g>
</g>
<g>
</g>
<g>
</g>
<g>
</g>
<g>
</g>
</svg>
