<?xml version="1.0" encoding="utf-8"?>
<!-- Generator: Adobe Illustrator 16.0.4, SVG Export Plug-In . SVG Version: 6.00 Build 0)  -->
<!DOCTYPE svg PUBLIC "-//W3C//DTD SVG 1.1//EN" "http://www.w3.org/Graphics/SVG/1.1/DTD/svg11.dtd">
<svg version="1.1" id="Layer_1" xmlns="http://www.w3.org/2000/svg" xmlns:xlink="http://www.w3.org/1999/xlink" x="0px" y="0px"
	 width="1774.997px" height="552.96px" viewBox="0 0 1774.997 552.96" enable-background="new 0 0 1774.997 552.96"
	 xml:space="preserve">
<g>
	<path fill="#148DCD" d="M1261.058,366.955c5.938,0.75,107.734,18.338,107.734,18.338l3.421,10.2l-121.778-17.033L1261.058,366.955z
		"/>
	<path fill="#12110E" d="M1255.836,366.508c1.031,0.994,29.119,41.049,29.119,41.049s-18.764,21.825-28.552,21.55
		c-9.787-0.275,15.399-13.571,11.315-21.581s-31.76-41.042-31.76-41.042L1255.836,366.508z"/>
	<path fill="#12110E" d="M1266.976,355.786c0.866,0.874,24.459,36.069,24.459,36.069l-18.888,22.002l4.428-22.041l-26.676-36.066
		L1266.976,355.786z"/>
	<path fill="#FFFFFF" d="M1264.577,257.891c0.761,0.654,1.741,1.055,2.937,1.034c0.18-0.003,0.355-0.02,0.532-0.045
		c0.533,0.025,1.071-0.051,1.595-0.218c0.338-0.142,0.67-0.292,0.999-0.453c0.603-0.377,1.777-3.643,2.148-4.253
		c0.46,0.146,4.199,5.713,4.665,5.832c0.709-0.113,1.104-1.924,2.002-1.558c1.989,0.816,0.432,0.669,2.514,1.258
		c5.908,0.919,9.725-0.004,14.503-3.926c1.958-1.608,3.734,12.766,4.581,10.562c1.392-1.603,9.965,2.85,10.953-1.717
		c1.863-8.607-4.585-28.209-5.843-32.823c-2.738-10.045-11.195-19.032-20.407-23.546c-10.355-5.074-21.375-3.037-28.032,6.633
		c-3.684,5.35-3.824,16.282-4.407,15.307c-0.343-0.575-0.752-1.011-1.192-1.348c0.156,0.694,0.361,1.383,0.66,2.064
		c1.72,3.913,4.587,7.347,6.761,11.008C1262.564,246.792,1265.012,252.471,1264.577,257.891"/>
	<path fill="#12110E" d="M1286.22,212.02c0,0-16.045,3.449-22.616,5.869c-6.572,2.416-2.948,12.132-15.822,16.1
		c-12.87,3.971-13.631-6.371-13.631-6.371s10.763,6.711,10.896-1.92s3.439-32.852,16.701-31.075
		C1275.014,196.4,1286.22,212.02,1286.22,212.02"/>
	<path fill="#12110E" d="M1271.401,203.655c0,0,12.386-15.179,27.596-1.068c15.208,14.111,6.237,27.213,12.312,29.118
		c6.076,1.906-13.129,5.701-13.129,5.701l-6.475-8.227c0,0-0.698-16.92-7.764-15.967c-7.064,0.95-5.36,5.846-5.36,5.846
		s-6.074-1.904-14.978-1.17"/>
	
		<ellipse transform="matrix(0.6442 -0.7649 0.7649 0.6442 264.7153 1054.1682)" fill="none" stroke="#010202" stroke-width="0.8626" stroke-miterlimit="10" cx="1265.437" cy="242.553" rx="1.87" ry="4.169"/>
	<polygon fill="#148DCD" points="1367.104,390.646 1347.065,391.937 1347.664,335.044 1365.505,337.077 	"/>
	<path fill="#2EBDEF" d="M1133.083,285.939c0,0,4.89,149.893,6.527,149.863c1.638-0.028,32.137-1.619,32.137-1.619
		s-2.659-86.331-2.05-86.787c36.103-26.791,49.157-49.498,49.157-49.498S1140.197,286.857,1133.083,285.939"/>
	<path fill="#12A2DD" d="M1133.385,285.311c-0.215-0.002,125.302-13.558,114.83-13.762l75.295,8.671l-104.435,18.095
		L1133.385,285.311z"/>
	<polyline fill="#2EBDEF" points="1228.395,369.777 1229.688,439.979 1262.215,440.834 1263.253,369.844 	"/>
	<polygon fill="#2EBDEF" points="1322.07,284.274 1213.325,304.971 1218.763,298.203 1323.714,280.03 	"/>
	<path fill="#2EBDEF" d="M1384.41,336.524l-1.15,5.119l-112.567,31.72c0,0-2.413-4.625-1.499-5.572
		c0.91-0.944,115.035-31.086,114.855-31.086"/>
	<polygon fill="#2EBDEF" points="1220.704,364.014 1224.767,370.121 1270.537,373.151 1270.154,369.133 	"/>
	<path fill="#12A2DD" d="M1220.731,363.784c5.41-2.713,119.193-29.609,119.193-29.609l45.059,2.554l-115.011,32.601
		L1220.731,363.784z"/>
	<path fill="#12110E" d="M1280.74,330.653c-1.535,1.397-3.393,2.453-5.658,2.951c-11.792,2.601,2.929-11.144,3.112-11.502
		c-5.225-0.777-19.234-3.06-24.096-1.103c-3.644,1.465-6.133,6.018-5.729,14.924c-0.377-0.189-15.261-1.48-21.447,4.419
		c-5.472,5.218,4.644,20.119,4.842,19.913c0.126-0.132,12.262-2.655,12.262-2.655c5.411-0.057,14.128-0.288,19.492,0.421
		c8.591,1.142,24.62,1.315,28.593,0.131c10.89-3.245,30.19-3.743,26.033-21.104C1305.305,344.025,1291.255,339.349,1280.74,330.653
		 M1261.745,331.962c0,0-0.004,0-0.007,0.002c-0.771,0.156-0.4,0.081-0.006,0c-1.573,0.388-3.147,0.774-4.721,1.163
		c2.662-4.445,5.025-2.321,9.951-2.021C1265.223,331.391,1263.483,331.677,1261.745,331.962"/>
	<path fill="#148DCD" d="M1318.279,251.508c-12.034-10.193-38.433,4.461-43.008,20.141c-5.016,17.183-4.242,17.494-13.446,45.783
		c-0.554,1.701,14.69-2.483,14.919-0.777c0.051-0.022,5.856-24.885,5.904-24.907c3.252-1.438,0.354,15.437-1.455,23.038
		c-1.234,5.181-2.102,9.714-7.873,13.321c15.28,8.611,35.936,14.436,54.741,7.352c0.015-0.062,0.028-0.121,0.042-0.185
		C1333.059,311.221,1327.422,259.251,1318.279,251.508"/>
	<polygon fill="#12A2DD" points="1264.272,317.476 1264.191,344.721 1376.593,313.77 1378.38,296.035 	"/>
	<polygon fill="#2EBDEF" points="1289.086,365.316 1289.288,320.298 1300.676,318.416 1297.767,362.473 	"/>
	<polygon fill="#2EBDEF" points="1356.229,348.752 1356.245,306.977 1364.857,305.266 1362.789,346.141 	"/>
	<path fill="#010202" d="M1260.447,235.414c2.041,2.049,5.074,1.853,7.596,0.875c0.603-0.233,0.341-1.214-0.27-0.979
		c-2.167,0.842-4.82,1.182-6.609-0.612C1260.702,234.234,1259.985,234.951,1260.447,235.414"/>
	<path fill="#2EBDEF" d="M1127.994,433.336c0,0,7.397-17.106,8.784-17.106c1.388,0,124.838,18.031,124.838,18.031l5.549,19.882
		L1127.994,433.336z"/>
	<rect x="1260.379" y="317.503" fill="#2EBDEF" width="4.06" height="27.304"/>
	<polygon fill="#2EBDEF" points="1378.258,296.177 1373.554,294.91 1260.379,317.503 1264.623,318.058 	"/>
</g>
<g>
</g>
<g>
</g>
<g>
</g>
<g>
</g>
<g>
</g>
<g>
</g>
</svg>
