<?xml version="1.0" encoding="utf-8"?>
<!-- Generator: Adobe Illustrator 16.0.4, SVG Export Plug-In . SVG Version: 6.00 Build 0)  -->
<!DOCTYPE svg PUBLIC "-//W3C//DTD SVG 1.1//EN" "http://www.w3.org/Graphics/SVG/1.1/DTD/svg11.dtd">
<svg version="1.1" id="Layer_1" xmlns="http://www.w3.org/2000/svg" xmlns:xlink="http://www.w3.org/1999/xlink" x="0px" y="0px"
	 width="1774.997px" height="552.96px" viewBox="0 0 1774.997 552.96" enable-background="new 0 0 1774.997 552.96"
	 xml:space="preserve">
<polygon fill="#12110E" points="1126.965,0 1135.469,202.979 1407.713,165.389 1413.713,7.389 "/>
<g>
	<path fill="#12110E" d="M1346.966,261.002c0.019,0.221,0.029,0.344,0.029,0.344l-8.594,10.943l16.06-5.409l-0.038-5.569
		C1351.9,261.021,1349.325,260.718,1346.966,261.002"/>
	<path fill="#148DCD" d="M1346.966,261.002c2.359-0.284,4.935,0.02,7.457,0.309l-0.218-32.203c-3.32,0.15-6.793,0.809-10.037,1.08
		C1345.408,242.776,1346.752,258.506,1346.966,261.002"/>
	<path fill="#FFFFFF" d="M1343.729,213.45c0.353,0.616-0.426,8.009,0.396,16.287c0.724-0.086,1.445-0.179,2.149-0.283
		c-0.704,0.104-1.426,0.197-2.149,0.283c0.013,0.149,0.029,0.301,0.044,0.45c3.244-0.271,6.717-0.93,10.037-1.08l0.54-17.4
		C1354.745,211.707,1343.142,212.429,1343.729,213.45"/>
	<path fill="#FFFFFF" d="M1342.021,213.092c0,0-14.71-6.564-14.124-5.543c0.302,0.523,2.384,20.631,3.062,27.226
		c3.369-0.399,6.932-0.626,10.417-0.925L1342.021,213.092z"/>
	<path fill="#148DCD" d="M1330.958,234.774c1.272,12.39,2.817,30.313,3.159,34.345c2.726,1.11,4.931,1.215,7.496,0.294
		l-0.238-35.563C1337.89,234.148,1334.327,234.375,1330.958,234.774"/>
	<path fill="#12110E" d="M1334.117,269.119c0.047,0.536,0.071,0.83,0.071,0.83l-9.625,14.077l17.091-8.541l-0.041-6.072
		C1339.048,270.334,1336.844,270.229,1334.117,269.119"/>
	<path fill="#148DCD" d="M1320.184,156.559c0,0,17.67-20.187,24.461-2.559c11.992,31.121,10.386,32.742,25.035,45.845
		c0,0-15.442,22.708-43.056,16.612C1324.609,216.014,1321.717,181.495,1320.184,156.559"/>
	<path fill="#FFFFFF" d="M1341.793,103.439c-5.643-0.388-11.324,6.23-15.199,9.973c-4.096,3.955-9.158,3.715-14.058,2.271
		c-0.795,0.874-1.161,2.072-0.682,3.475c1.07,3.138,3.11,5.679,5.858,7.607c-0.701,4.985-0.897,10.376,1.524,14.924
		c2.729,5.121,9.013,6.771,14.786,5.187c6.347-1.742,10.203-7.584,12.396-12.875c2.154-5.185,3.363-10.989,2.998-16.537
		C1349.076,112.285,1346.93,106.119,1341.793,103.439"/>
	<path fill="#FFFFFF" d="M1315.73,151.489c1.055-4.445-8.859-17.446-11.229-20.119c-2.153-2.428-9.959-12.667-9.959-12.667
		s4.512-0.301,6.944-4.324c2.43-4.027-1.051-6.24-1.051-6.24s-0.59,2-3.066,3.467c-2.477,1.468-2.317-7.069,1.122-7.133
		c3.442-0.061-5.983-2.169-10.328-0.385c-4.351,1.785-2.222,9.439,0.386,14.093c2.231,3.981,6.344,11.944,11.752,20.562
		C1304.354,145.197,1314.272,157.639,1315.73,151.489"/>
	<path fill="#FFFFFF" d="M1297.046,109.971c0,0,5.676,1.06,5.62-2.035c-0.054-3.091-6.371-3.651-7.682-1.856
		C1293.671,107.875,1297.046,109.971,1297.046,109.971"/>
	<path fill="#148DCD" d="M1330.077,104.288c0,0-0.521,11.722,5.443,18.911c0,0,3.582-3.381,7.064,0.978
		c3.478,4.358-3.015,8.231-3.015,8.231s1.217,13.68,22.836,13.073c0,0-14.914-5.04-12.441-16.354
		C1352.436,117.812,1356.857,93.202,1330.077,104.288"/>
	<path fill="#148DCD" d="M1358.66,153.504l15.826-11.996c0,0-12.935-3.082-11.94-1.776c0.997,1.31,4.644,14.946,4.644,14.946
		L1358.66,153.504z"/>
	<path fill="none" stroke="#12110E" stroke-width="0.6522" stroke-miterlimit="10" d="M1328.627,118.458
		c-0.811,1.678-2.075,2.794-2.825,2.497c-0.748-0.297-0.694-1.898,0.118-3.576c0.812-1.677,2.076-2.795,2.823-2.497
		C1329.492,115.178,1329.439,116.781,1328.627,118.458z"/>
	<path fill="#FFFFFF" d="M1326.493,150.815c-0.514-0.308-12.787-11.161-12.787-11.161l-7.295,10.499c0,0,14.343,11.932,17.981,9.073
		C1328.029,156.365,1328.108,151.791,1326.493,150.815"/>
	<path fill="#12110E" d="M1339.966,133.346c2.444,0.434,4.876,0.395,7.303-0.127c-0.145-0.248-0.288-0.496-0.434-0.744
		c-1.417,1.282-2.596,2.71-3.649,4.299c-0.203,0.307,0.072,0.642,0.383,0.669c1.871,0.171,3.747,0.193,5.613,0.389
		c-0.104-0.253-0.209-0.507-0.314-0.76c-1.06,1.29-2.286,2.425-3.348,3.716c-0.26,0.318-0.08,0.711,0.315,0.76
		c2.414,0.304,4.665-0.483,7.062-0.613c-0.129-0.223-0.258-0.445-0.384-0.669c-0.814,1.222-1.351,2.437-1.46,3.905
		c-0.014,0.181,0.145,0.398,0.326,0.429c2.222,0.374,4.363-0.047,6.567-0.357c0.567-0.079,0.324-0.937-0.235-0.857
		c-1.308,0.184-2.609,0.396-3.926,0.501c-2.518,0.201-1.289-1.994-0.506-3.171c0.183-0.274-0.057-0.688-0.383-0.67
		c-2.38,0.13-4.667,0.915-7.062,0.614c0.104,0.253,0.21,0.506,0.315,0.759c1.059-1.291,2.285-2.426,3.347-3.716
		c0.256-0.313,0.084-0.719-0.315-0.76c-1.866-0.193-3.742-0.219-5.613-0.389c0.129,0.223,0.257,0.447,0.385,0.67
		c1.012-1.527,2.152-2.89,3.512-4.118c0.35-0.317-0.023-0.832-0.434-0.743c-2.273,0.488-4.541,0.531-6.831,0.128
		C1339.642,132.389,1339.401,133.246,1339.966,133.346"/>
	<path fill="#FFFFFF" d="M1253.729,90.202c1.791,0.577,4.049-0.523,3.89-2.629c-0.194-2.577-4.329-1.657-5.672-0.843
		c-2.395,1.449-2.879,4.8-1.743,7.155c1.11,2.304,4.47,3.274,6.79,2.608c5.051-1.444,6.093-9.569,6.618-13.814
		c0.328-2.626,0.518-5.33,0.172-7.962c-0.112-0.851-0.294-1.644,0.102-2.45c0.643-1.316,2.326-2.107,3.598-2.604
		c2.301-0.897,4.756-1.272,7.025-2.276c-0.149-0.255-0.3-0.513-0.449-0.768c-3.807,2.39-3.525,8.455-3.699,12.363
		c-0.157,3.494-0.369,6.878-0.054,10.38c0.523,5.815,2.816,16.068,10.806,12.297c0.518-0.244,0.066-1.012-0.449-0.768
		c-7.789,3.677-9.25-7.986-9.589-13.098c-0.177-2.664-0.032-5.268,0.13-7.924c0.23-3.755-0.385-10.166,3.305-12.483
		c0.496-0.312,0.065-0.995-0.449-0.768c-2.848,1.261-6.676,1.353-9.151,3.356c-1.998,1.62-2.277,2.74-1.954,5.195
		c0.521,3.955-0.154,8.329-1.053,12.174c-0.868,3.718-2.904,9.489-7.773,8.297c-3.613-0.885-4.788-4.928-2.309-7.662
		c0.9-0.991,3.783-1.987,4.805-0.636c1.109,1.47-1.744,2.296-2.659,2C1253.417,89.168,1253.185,90.027,1253.729,90.202"/>
	<path fill="#FFFFFF" d="M1257.623,80.706c6.174,3.159,14.86,5.618,20.878,0.872c0.448-0.355-0.185-0.981-0.63-0.631
		c-5.652,4.459-14.043,1.935-19.8-1.009C1257.562,79.678,1257.111,80.444,1257.623,80.706"/>
	<path fill="#FFFFFF" d="M1296.291,85.061c-2.914-2.518-6.549-0.148-8.503,2.436c-1.067,1.41-1.976,3.02-2.034,4.827
		c-0.03,0.93,0.104,2.521,1.011,3.082c2.024,1.253,4.583-2.241,5.593-3.491c1.878-2.326,3.896-5.107,4.8-7.996
		c0.15-0.479-0.584-0.795-0.812-0.343c-1.657,3.294-4.835,7.585-0.948,10.577c2.916,2.244,7.086-1.858,8.602-3.998
		c0.332-0.471-0.439-0.914-0.768-0.45c-1.468,2.071-4.646,5.203-7.386,3.681c-3.627-2.019,0.088-7.016,1.268-9.361
		c-0.271-0.114-0.54-0.229-0.812-0.343c-0.602,1.917-1.822,3.702-2.931,5.356c-1.288,1.924-2.785,4.029-4.739,5.338
		c-0.931,0.623-1.562,0.421-1.849-0.674c-0.387-1.468,0.044-2.882,0.724-4.181c1.357-2.598,5.196-6.389,8.156-3.83
		C1296.094,86.062,1296.726,85.437,1296.291,85.061"/>
	<path fill="#148DCD" d="M1370.183,147.767c0,0,6.97-4.323,12.331-3.536c5.361,0.788-3.482,9.123-3.482,9.123L1370.183,147.767z"/>
</g>
<g>
</g>
<g>
</g>
<g>
</g>
<g>
</g>
<g>
</g>
<g>
</g>
</svg>
