<?xml version="1.0" encoding="utf-8"?>
<!-- Generator: Adobe Illustrator 16.0.4, SVG Export Plug-In . SVG Version: 6.00 Build 0)  -->
<!DOCTYPE svg PUBLIC "-//W3C//DTD SVG 1.1//EN" "http://www.w3.org/Graphics/SVG/1.1/DTD/svg11.dtd">
<svg version="1.1" id="Layer_1" xmlns="http://www.w3.org/2000/svg" xmlns:xlink="http://www.w3.org/1999/xlink" x="0px" y="0px"
	 width="1774.997px" height="552.96px" viewBox="0 0 1774.997 552.96" enable-background="new 0 0 1774.997 552.96"
	 xml:space="preserve">
<g>
	<path fill="#12A2DD" d="M1329.239,249.146c-0.171-0.002,87.596-12.547,79.21-12.711l61.436,5.296l-72.021,17.828L1329.239,249.146z
		"/>
	<rect x="1317.736" y="236.436" fill="none" width="213.27" height="152.408"/>
	<path fill="#FFFFFF" d="M1413.955,238.199c-0.113-0.053-0.247-0.057-0.373-0.029c0.141-0.225,0.24-0.478,0.237-0.799
		c-0.013-1.248-1.79-1.722-2.723-2.037c-3.52-1.192-7.615-0.251-8.57,3.713c-1.627,6.76,7.693,11.893,11.66,5.969
		C1416.395,243.057,1417.217,239.732,1413.955,238.199z M1413.192,238.785c0.09,0.229,0.142,0.452,0.173,0.672
		c-0.194-0.141-0.479-0.171-0.682,0.027c-0.031,0.033-0.067,0.059-0.1,0.092c0.117-0.353,0.353-0.621,0.588-0.887
		C1413.178,238.721,1413.18,238.752,1413.192,238.785z"/>
	<rect x="1494.9" y="292.816" fill="#148DCD" width="15.286" height="40.527"/>
	<path fill="#148DCD" d="M1431.725,314.532c4.755,0.599,86.278,14.683,86.278,14.683l2.74,8.171l-97.525-13.642L1431.725,314.532z"
		/>
	<path fill="#2EBDEF" d="M1329.24,249.65c0,0,3.913,120.038,5.227,120.016c1.311-0.022,25.734-1.297,25.734-1.297
		s-2.13-69.137-1.641-69.5c28.912-21.458,39.366-39.642,39.366-39.642S1334.937,250.385,1329.24,249.65"/>
	<path fill="#148DCD" d="M1429.999,245.345c4.229,0.546,36.136-2.285,36.136-2.285s-17.725,23.406-18.703,21.388
		c-0.197-0.406-0.154,54.309-0.154,54.309s-16.507-1.956-17.48-1.938C1428.822,316.834,1429.999,245.345,1429.999,245.345"/>
	<path fill="#2EBDEF" d="M1332.969,356.443c6.766,0.725,117.181,19.073,117.181,19.073l6.591,13.331l-139.01-22.18L1332.969,356.443
		z"/>
	<polyline fill="#2EBDEF" points="1404.457,316.791 1405.493,373.012 1431.541,373.696 1432.373,316.844 	"/>
	<polygon fill="#2EBDEF" points="1465.634,246.19 1393.499,264.892 1397.854,259.473 1466.949,242.793 	"/>
	<path fill="#2EBDEF" d="M1530.968,290.326l-1.812,3.934l-89.716,25.402c0,0-1.931-3.705-1.2-4.462
		C1438.97,314.443,1533.133,291.093,1530.968,290.326"/>
	<polygon fill="#2EBDEF" points="1399.408,312.175 1402.662,317.065 1439.315,319.493 1439.01,316.275 	"/>
	<path fill="#12A2DD" d="M1398.363,312.348c4.332-2.175,95.453-23.713,95.453-23.713l36.086,2.048l-92.104,26.106L1398.363,312.348z
		"/>
	<path fill="#FFFFFF" d="M1489.461,179.117c-0.663-7.38-5.78-13.732-13.503-13.271c-0.246,0.014-0.49,0.049-0.735,0.074
		c-0.232-0.041-0.465-0.086-0.698-0.111c-5.505-0.609-10.14,1.812-14.365,4.949c-1.922,0.936-3.741,2.223-5.384,3.874
		c-1.843-0.585-11.073-1.721-10.012,0.847c0.088,0.21,0.185,0.409,0.277,0.611c-0.005,0.002-0.01,0.006-0.016,0.008
		c0.023,0.043,0.052,0.08,0.074,0.122c1.131,2.402,2.744,4.36,4.729,5.769c-2.387,5.411-3.162,11.916-1.17,17.278
		c0.55,3.058,2.583,5.518,5.315,7.151c1.983,4.623,2.992,9.62,7.623,12.56c1.367,0.866,3.456,0.058,3.808-1.549
		c0.62-2.833,0.705-5.71,0.785-8.589c4.764-1.425,9.061-4.777,12.595-8.182C1484.258,195.387,1490.182,187.131,1489.461,179.117z"/>
	<path fill="#12110E" d="M1488.394,179.117c0,0-2.38,2.426-12.335-7.527c-9.955-9.954-2.845-12.088-2.845-12.088
		s-0.354,4.268,6.399,5.333C1486.367,165.901,1496.463,172.78,1488.394,179.117z"/>
	<path fill="#148DCD" d="M1454.018,306.326c0,0,24.53-5.333,29.507-12.088c4.977-6.754-2.489-35.195-0.712-53.326
		c1.778-18.131,3.807-28.517-10.77-28.872s-27.624-1.346-27.269,18.563c0.355,19.908,2.843,48.349-1.423,52.614
		s-20.975,4.268-24.529,12.443c-3.556,8.176-0.355,12.087-0.355,12.087l21.33-6.043
		C1439.797,301.705,1446.195,304.548,1454.018,306.326z"/>
	<path fill="#148DCD" d="M1448.76,217.38c0,0-15.979,24.147-20.157,26.13c-6.293,2.986-11.729,0.68-13.118-0.64
		c-2.133-2.026-9.989-1.031-10.345,5.013c-0.075,1.279,11.981,11.447,22.29,11.092c10.31-0.355,22.322-16.284,23.389-16.64
		C1451.884,241.979,1459.781,217.735,1448.76,217.38z"/>
	<polygon fill="#12A2DD" points="1434.301,274.904 1434.235,296.725 1524.251,271.937 1525.68,257.736 	"/>
	<polygon fill="#2EBDEF" points="1454.17,313.218 1454.334,277.167 1463.453,275.66 1461.123,310.941 	"/>
	<polygon fill="#2EBDEF" points="1503.229,298.998 1503.354,267.473 1510.187,266.154 1508.439,297.008 	"/>
	
		<ellipse transform="matrix(0.7359 0.6771 -0.6771 0.7359 503.7893 -943.7178)" fill="none" stroke="#12110E" stroke-width="0.8793" stroke-miterlimit="10" cx="1461.506" cy="173.874" rx="1.372" ry="2.777"/>
</g>
<g>
</g>
<g>
</g>
<g>
</g>
<g>
</g>
<g>
</g>
<g>
</g>
</svg>
