<?xml version="1.0" encoding="utf-8"?>
<!-- Generator: Adobe Illustrator 16.0.4, SVG Export Plug-In . SVG Version: 6.00 Build 0)  -->
<!DOCTYPE svg PUBLIC "-//W3C//DTD SVG 1.1//EN" "http://www.w3.org/Graphics/SVG/1.1/DTD/svg11.dtd">
<svg version="1.1" id="Layer_1" xmlns="http://www.w3.org/2000/svg" xmlns:xlink="http://www.w3.org/1999/xlink" x="0px" y="0px"
	 width="1774.997px" height="552.96px" viewBox="0 0 1774.997 552.96" enable-background="new 0 0 1774.997 552.96"
	 xml:space="preserve">
<g>
	<path fill="#2EBDEF" d="M1377.974,312.649c0,0,4.116,165.931,5.95,165.899c1.831-0.035,35.962-1.813,35.962-1.813
		s-2.974-96.616-2.289-97.123c40.399-29.987,55.01-55.396,55.01-55.396S1385.935,313.68,1377.974,312.649"/>
	<path fill="#148DCD" d="M1505.271,302.761c0,0-0.944,108.81,0.303,108.786c1.248-0.022,22.379,2.482,22.379,2.482
		s-0.051-70.046,0.202-69.526c1.249,2.585,53.771-44.826,53.771-44.826S1510.688,303.461,1505.271,302.761"/>
	<path fill="#12A2DD" d="M1378.687,312.638c-0.233-0.002,134.042-19.045,122.772-19.271l86.602,6.2l-118.106,26.759
		L1378.687,312.638z"/>
	<path fill="#148DCD" d="M1512.387,406.949c6.091,0.765,105.741,8.188,105.741,8.188l6.757,10.397l-124.59-8.731L1512.387,406.949z"
		/>
	<polyline fill="#2EBDEF" points="1473.479,411.391 1474.804,483.366 1508.151,484.242 1509.219,411.459 	"/>
	<polygon fill="#2EBDEF" points="1585.048,302.687 1468.949,329.73 1471.942,325.736 1587.175,299.143 	"/>
	<polygon fill="#2EBDEF" points="1466.675,405.604 1470.838,411.867 1517.76,414.971 1517.369,410.853 	"/>
	<polygon fill="#12A2DD" points="1510.603,359.366 1510.518,387.301 1618.044,346.387 1620.398,324.639 	"/>
	<polygon fill="#A42523" points="1484.202,298.432 1528.004,284.602 1565.162,299.342 1534.681,308.202 	"/>
	<path fill="#FFFFFF" d="M1564.295,298.609c0,0,1.305-15.569,0.287-16.498c-1.017-0.936-30.494,2.73-30.494,2.73l-46.807-5.381
		l1.197,17.38l46.577,9.111L1564.295,298.609z"/>
	<polygon fill="#A42523" points="1483.907,280.281 1522.796,274.004 1565.515,281.92 1535.053,289.174 	"/>
	<path fill="#2EBDEF" d="M1366.223,475.158c0,0,7.938-18.986,9.426-18.986s133.964,20.012,133.964,20.012l5.954,22.062
		L1366.223,475.158z"/>
	<rect x="1581.1" y="370.023" fill="#148DCD" width="21.77" height="46.861"/>
	<path fill="#2EBDEF" d="M1619.105,367.256l-0.875,4.47l-100.309,43.466c0,0-2.472-4.743-1.536-5.713
		c0.934-0.969,102.903-41.854,102.649-41.709"/>
	<path fill="#12A2DD" d="M1466.514,405.923c5.549-2.78,108.521-37.695,108.521-37.695l44.238-0.788l-102.272,44.17L1466.514,405.923
		z"/>
	<rect x="1508.043" y="359.506" fill="#2EBDEF" width="4.06" height="27.305"/>
	<polygon fill="#2EBDEF" points="1542.912,402.678 1542.358,363.566 1552.138,359.876 1550.846,399.173 	"/>
	<polygon fill="#2EBDEF" points="1589.699,382.568 1589.218,345.817 1597.706,342.35 1596.585,379.275 	"/>
	<polygon fill="#2EBDEF" points="1620.398,324.639 1617.653,323.977 1508.043,359.506 1512.287,360.061 	"/>
</g>
<g>
</g>
<g>
</g>
<g>
</g>
<g>
</g>
<g>
</g>
<g>
</g>
</svg>
