<?xml version="1.0" encoding="utf-8"?>
<!-- Generator: Adobe Illustrator 16.0.4, SVG Export Plug-In . SVG Version: 6.00 Build 0)  -->
<!DOCTYPE svg PUBLIC "-//W3C//DTD SVG 1.1//EN" "http://www.w3.org/Graphics/SVG/1.1/DTD/svg11.dtd">
<svg version="1.1" id="Layer_1" xmlns="http://www.w3.org/2000/svg" xmlns:xlink="http://www.w3.org/1999/xlink" x="0px" y="0px"
	 width="656.099px" height="566.864px" viewBox="0 0 656.099 566.864" enable-background="new 0 0 656.099 566.864"
	 xml:space="preserve">
<polygon fill="#CACBD5" points="333.022,566.864 306.117,357.706 358.949,446.183 401.548,360.271 486.78,449.95 480.81,346.991 
	597.954,360.445 517.965,267.381 656.099,211.913 519.648,168.229 586.74,60.626 450.713,123.934 429.363,0 358.186,113.306 
	259.23,6.557 233.499,135.364 120.631,56.828 130.566,166.089 9.156,179.743 104.28,249.063 0,322.583 150.81,326.271 
	111.082,437.69 240.115,371.333 "/>
<g>
	<g>
		<path fill="none" d="M435.495,287.091c-0.405,0.44-0.446,2.36-0.583,3.967L435.495,287.091z"/>
		<path fill="none" d="M434.912,291.058l-0.251,1.712C434.783,292.341,434.856,291.726,434.912,291.058z"/>
		<path fill="none" d="M425.386,294.85l0.424-7.711C425.512,289.501,423.903,292.669,425.386,294.85z"/>
		<path fill="none" d="M434.682,225.59c0.261-2.862,1.336-6.296-1.891-8.51c-3.605-2.254-19.033-4.298-23.274-3.72
			c-7.953,1.079-12.488,11.692-11.64,27.485l0.378,0.034c3.518,3.205,15.226,4.273,20.108,5.037
			C423.622,246.715,434.162,231.316,434.682,225.59z"/>
		<path fill="none" d="M416.008,293.09l0.681-9.273C415.958,286.369,415.176,290.484,416.008,293.09z"/>
		<path fill="none" d="M476.587,231.539c-3.367-2.645-17.707-8.691-21.954-8.573c-3.905,0.279-4.716,3.779-5.941,6.382
			c-2.45,5.202-1.155,23.816,3.785,25.79c4.595,1.813,15.232,6.822,19.888,5.838l0.344,0.162
			C481.436,247.949,482.898,236.498,476.587,231.539z"/>
		<g>
			<path fill="#1D1B3A" d="M477.346,200.043c-13.961-11.885-36.882-14.492-54.963-13.35c-9.22,0.52-18.128,2.706-24.539,9.947
				c-5.837,6.615-9.067,15.159-10.37,23.858c-2.086,12.816,0.671,23.862,3.013,36.368l0.467,8.021
				c5.365,1.93,15.892,3.755,21.308,4.12c2.293,0.261-7.139,18.075-6.932,20.11c7.294,4.845,28.34,8.494,37.717,8.809
				c-0.414-4.063,0.891-21.048,3.809-20.211c2.551,0.729,22.504,6.827,25.318,5.267c0.469-0.262,1.095-2.45,1.303-3.181
				c1.199-2.812,2.761-5.521,4.324-8.229c6.621-10.731,12.091-22.974,15.897-34.903
				C497.556,223.175,487.451,208.846,477.346,200.043z M416.008,293.09c-0.832-2.605-0.05-6.721,0.681-9.273L416.008,293.09z
				 M418.363,245.917c-4.883-0.764-16.591-1.832-20.108-5.037l-0.378-0.034c-0.849-15.793,3.687-26.406,11.64-27.485
				c4.241-0.578,19.669,1.466,23.274,3.72c3.227,2.214,2.151,5.647,1.891,8.51C434.162,231.316,423.622,246.715,418.363,245.917z
				 M425.81,287.139l-0.424,7.711C423.903,292.669,425.512,289.501,425.81,287.139l0.046-0.834L425.81,287.139z M434.912,291.058
				c-0.056,0.668-0.129,1.283-0.251,1.712L434.912,291.058c0.137-1.606,0.178-3.526,0.583-3.967L434.912,291.058z M443.104,268.754
				c-5.056-0.264-8.386-5.162-9.896-9.537c-0.418,4.22-5.212,7.188-9.326,6.406l-0.729-2.971
				c3.962-5.571,6.409-12.763,11.101-18.126c3.646,1.043,5.001,7.347,5.624,10.681C441.127,259.114,444.615,264.846,443.104,268.754
				z M472.708,261.138l-0.344-0.162c-4.655,0.984-15.293-4.024-19.888-5.838c-4.94-1.974-6.235-20.588-3.785-25.79
				c1.226-2.603,2.036-6.103,5.941-6.382c4.247-0.118,18.587,5.929,21.954,8.573C482.898,236.498,481.436,247.949,472.708,261.138z"
				/>
			<g>
				<path fill="#1D1B3A" d="M479.133,198.256c-10.29-8.448-23.028-12.027-36.046-13.614c-13.14-1.602-28.851-1.937-40.645,4.88
					c-12.93,7.474-17.585,24.616-18.208,38.48c-0.56,12.438,3.473,24.531,4.191,36.886c0.069,1.185,0.732,2.056,1.855,2.437
					c4.579,1.556,9.351,2.466,14.115,3.248c1.91,0.313,3.834,0.556,5.757,0.775c2.551,0.291,0.074-2.197-0.16-1.129
					c-0.147,0.668-0.393,1.321-0.614,1.968c-1.81,5.279-6.361,11.268-6.577,16.932c-0.034,0.899,0.513,1.721,1.252,2.182
					c5.377,3.356,11.901,4.854,18.014,6.215c6.861,1.527,13.949,2.639,20.979,2.939c1.3,0.055,2.629-1.194,2.527-2.527
					c-0.338-4.41,0.172-9.014,0.889-13.359c0.155-0.938,0.37-1.863,0.597-2.786c0.133-0.509,0.289-1.011,0.472-1.504
					c0.588-0.829,0.235-0.843-1.059-0.041c1.742,0.505,3.48,1.02,5.225,1.516c4.948,1.407,9.942,2.755,15.021,3.605
					c2.968,0.497,6.856,1.19,8.265-2.208c3.341-8.061,8.164-15.301,12.038-23.122c3.784-7.643,7.434-15.895,9.486-24.188
					C500.055,221.502,489.113,207.155,479.133,198.256c-2.424-2.161-6.012,1.4-3.574,3.574c5.997,5.347,11.263,11.568,14.409,19.032
					c3.522,8.356,1.323,15.623-1.702,23.686c-3.154,8.403-7.151,16.481-11.71,24.207c-1.911,3.238-4.448,6.733-5.517,10.375
					c-0.407,1.387-0.604,1.617-0.081,1.573c-0.951,0.08-1.962-0.082-2.898-0.22c-4.766-0.699-9.465-2.058-14.098-3.346
					c-2.155-0.599-6.156-2.674-8.424-1.749c-3.169,1.291-3.641,5.965-4.119,8.863c-0.733,4.441-1.245,9.171-0.9,13.675
					c0.843-0.843,1.686-1.685,2.527-2.527c-6.158-0.263-12.266-1.256-18.299-2.475c-6.105-1.233-12.797-2.652-18.143-5.988
					c0.417,0.727,0.834,1.454,1.252,2.182c0.094-2.477,2.609-6.472,3.704-8.986c1.315-3.022,3.018-6.251,3.485-9.546
					c0.499-3.527-1.982-4.007-4.893-4.292c-6.216-0.61-12.608-1.832-18.528-3.843c0.618,0.812,1.236,1.624,1.855,2.437
					c-0.55-9.447-2.782-18.473-3.833-27.868c-1.596-14.261,1.393-30.623,12.21-40.823c9.146-8.624,25.063-7.677,36.67-6.924
					c12.981,0.843,26.79,4.149,37.031,12.558C478.056,203.88,481.653,200.326,479.133,198.256z"/>
				<path fill="#1D1B3A" d="M418.444,292.418c-0.705-2.567-0.012-5.428,0.681-7.93c-1.654-0.224-3.309-0.448-4.964-0.672
					c-0.227,3.091-0.453,6.183-0.681,9.273c-0.238,3.253,4.817,3.23,5.055,0c0.227-3.091,0.453-6.183,0.681-9.273
					c0.213-2.903-4.22-3.359-4.964-0.672c-0.938,3.384-1.63,7.163-0.681,10.617C414.433,296.9,419.31,295.566,418.444,292.418z"/>
				<path fill="#1D1B3A" d="M419.035,243.48c-4.154-0.621-8.316-1.117-12.43-1.988c-3.012-0.638-5.841-2.912-8.729-3.174
					c0.843,0.843,1.685,1.685,2.527,2.527c-0.316-7.581-0.248-17.195,5.437-23.013c3.924-4.014,12.559-1.646,17.278-0.85
					c2.616,0.44,5.444,0.913,7.886,1.998c3.206,1.425,0.969,7.804-0.069,10.092c-1.775,3.918-7.396,14.536-12.572,14.316
					c-3.26-0.138-3.247,4.917,0,5.055c7.689,0.325,14.102-11.065,16.937-16.82c1.618-3.283,2.742-7.533,2.181-11.204
					c-0.655-4.289-3.776-6.029-7.603-7.136c-7.158-2.07-17.914-4.486-24.94-1.013c-9.503,4.698-9.957,19.709-9.588,28.574
					c0.062,1.473,1.11,2.398,2.527,2.527c0.521,0.056,0.259-0.017-0.788-0.218c0.665,0.523,1.353,0.897,2.11,1.272
					c1.902,0.94,4.01,1.453,6.062,1.938c4.084,0.965,8.286,1.369,12.43,1.988C420.878,248.83,422.249,243.961,419.035,243.48z"/>
				<path fill="#1D1B3A" d="M423.282,287.139c-0.141,2.57-0.282,5.141-0.424,7.711c1.57-0.425,3.14-0.851,4.709-1.275
					c-0.658-1.139-0.023-2.691,0.278-3.869c0.289-1.126,0.473-2.241,0.537-3.4c0.179-3.258-4.876-3.24-5.055,0
					C423.313,286.583,423.298,286.86,423.282,287.139c-0.179,3.258,4.876,3.24,5.055,0c0.015-0.278,0.03-0.556,0.046-0.834
					c0.179-3.258-4.876-3.24-5.055,0c-0.172,3.132-2.045,6.498-0.124,9.82c1.31,2.266,4.574,1.163,4.709-1.275
					c0.141-2.57,0.282-5.141,0.424-7.711C428.516,283.881,423.461,283.898,423.282,287.139z"/>
				<path fill="#1D1B3A" d="M432.385,291.058c-0.032,0.36-0.074,0.687-0.16,1.04c1.624,0.448,3.249,0.896,4.873,1.344
					c0.084-0.57,0.167-1.142,0.251-1.712c0.125-0.851,0.165-1.707,0.232-2.562c-0.012,0.138,0.127-0.993,0.066-0.63
					c0.117-0.702-0.228,0.203,0.029-0.171c-1.539-0.649-3.079-1.298-4.618-1.947c-0.194,1.322-0.389,2.645-0.583,3.967
					c-0.2,1.361,0.316,2.71,1.765,3.108c1.203,0.331,2.908-0.399,3.108-1.765c0.194-1.322,0.389-2.645,0.583-3.967
					c0.168-1.142-0.094-2.229-1.161-2.854c-1.254-0.734-2.68-0.227-3.457,0.906c-0.844,1.228-0.77,3.059-0.87,4.485
					c-0.087,1.229,0.08-0.243,0.014,0.212c-0.025,0.172-0.051,0.345-0.076,0.518c-0.052,0.355-0.104,0.712-0.156,1.067
					c-0.2,1.362,0.315,2.71,1.765,3.108c1.297,0.356,2.783-0.427,3.108-1.765c0.189-0.78,0.269-1.586,0.342-2.384
					c0.124-1.374-1.244-2.527-2.527-2.527C433.44,288.53,432.51,289.687,432.385,291.058z"/>
				<path fill="#1D1B3A" d="M443.775,266.317c-4.356-0.597-6.661-3.905-8.132-7.772c-0.809-2.126-4.324-2.677-4.873,0
					c-0.711,3.465-3.527,4.887-6.89,4.551c0.812,0.619,1.624,1.237,2.437,1.855c-0.218-0.887-0.435-1.774-0.652-2.662
					c0.338,1.381,2.559-3.053,2.782-3.453c2.392-4.285,4.443-8.714,7.593-12.522c-1.021,0.132-2.042,0.264-3.062,0.395
					c3.289,1.391,3.858,6.039,4.463,9.171c0.795,4.12,4.404,7.761,3.227,12.203c-0.836,3.154,4.039,4.491,4.873,1.344
					c1.552-5.854-2.341-10.303-3.398-15.781c-0.811-4.202-2.306-9.479-6.613-11.3c-0.983-0.416-2.283-0.548-3.062,0.395
					c-3.431,4.149-5.836,8.831-8.383,13.546c-0.958,1.774-3.458,4.304-3.458,6.367c0,1.196,0.537,2.494,0.819,3.643
					c0.286,1.168,1.327,1.744,2.437,1.855c5.484,0.547,10.633-2.756,11.763-8.262c-1.624,0-3.249,0-4.873,0
					c2.058,5.412,5.533,10.463,11.661,11.302C445.617,271.627,446.992,266.758,443.775,266.317z"/>
				<path fill="#1D1B3A" d="M473.983,258.956c-2.388-1.126-5.719-0.676-8.386-1.447c-3.593-1.04-9.335-2.443-12.305-4.794
					c-2.606-2.063-2.854-8.05-3.121-10.993c-0.33-3.64-0.398-7.602,0.716-11.117c0.629-1.983,1.788-5.168,4.327-5.095
					c1.848,0.053,3.847,0.905,5.577,1.476c4.139,1.363,8.174,3.13,12.02,5.174c10.705,5.692,2.286,20.587-2.285,27.703
					c-1.768,2.751,2.608,5.282,4.363,2.551c5.753-8.954,13.712-25.223,2.496-33.403c-4.092-2.985-9.441-4.796-14.156-6.518
					c-4.698-1.716-9.415-3.306-13.656,0.143c-3.227,2.623-4.221,8.532-4.53,12.401c-0.442,5.537,0.193,11.617,2.058,16.858
					c1.584,4.451,4.434,5.553,8.53,7.262c3.233,1.349,6.491,2.608,9.857,3.583c1.323,0.383,2.729,0.686,4.105,0.799
					c0.59,0.049,2.397,0.045,1.839-0.219C474.362,264.701,476.93,260.345,473.983,258.956z"/>
			</g>
		</g>
		<g>
			<path fill="#CACBD5" d="M434.253,244.526c-4.691,5.363-7.139,12.555-11.101,18.126l0.729,2.971
				c4.114,0.782,8.908-2.187,9.326-6.406c1.511,4.375,4.841,9.273,9.896,9.537c1.512-3.908-1.977-9.64-3.227-13.547
				C439.254,251.873,437.898,245.569,434.253,244.526z"/>
		</g>
	</g>
	<g>
		<path fill="#1D1B3A" d="M416.008,293.09l0.681-9.273C415.958,286.369,415.176,290.484,416.008,293.09z"/>
		<g>
			<path fill="#1D1B3A" d="M418.535,293.09c0.227-3.091,0.453-6.183,0.681-9.273c0.213-2.903-4.22-3.359-4.964-0.672
				c-0.938,3.384-1.63,7.163-0.681,10.617c0.861,3.139,5.738,1.805,4.873-1.344c-0.705-2.567-0.012-5.428,0.681-7.93
				c-1.654-0.224-3.309-0.448-4.964-0.672c-0.227,3.091-0.453,6.183-0.681,9.273C413.242,296.343,418.298,296.32,418.535,293.09z"/>
		</g>
	</g>
	<g>
		<path fill="#1D1B3A" d="M425.386,294.85l0.424-7.711C425.512,289.501,423.903,292.669,425.386,294.85z"/>
		<g>
			<path fill="#1D1B3A" d="M427.913,294.85c0.141-2.57,0.282-5.141,0.424-7.711c0.154-2.816-4.533-3.502-4.964-0.672
				c-0.502,3.298-2.039,6.483-0.169,9.658c1.651,2.806,6.021,0.264,4.363-2.551c-0.919-1.562,0.429-4.118,0.679-5.764
				c-1.654-0.224-3.309-0.448-4.964-0.672c-0.141,2.57-0.282,5.141-0.424,7.711C422.68,298.107,427.734,298.09,427.913,294.85z"/>
		</g>
	</g>
	<g>
		<path fill="#1D1B3A" d="M425.81,287.139c0.037-0.291,0.058-0.571,0.046-0.834L425.81,287.139z"/>
		<g>
			<path fill="#1D1B3A" d="M428.337,287.139c0.032-0.278,0.052-0.554,0.046-0.834c-0.028-1.377-1.128-2.527-2.527-2.527
				c-1.435,0-2.451,1.152-2.527,2.527c-0.015,0.278-0.03,0.556-0.046,0.834c-0.075,1.377,1.207,2.527,2.527,2.527
				C427.244,289.666,428.261,288.514,428.337,287.139c0.015-0.278,0.03-0.556,0.046-0.834c-1.685,0-3.37,0-5.055,0
				c0.006,0.28-0.013,0.556-0.046,0.834c-0.159,1.371,1.271,2.527,2.527,2.527c0.668,0,1.315-0.269,1.787-0.74
				C428.112,288.41,428.255,287.837,428.337,287.139z"/>
		</g>
	</g>
	<g>
		<path fill="#1D1B3A" d="M434.912,291.058l0.583-3.967C435.09,287.531,435.049,289.451,434.912,291.058z"/>
		<g>
			<path fill="#1D1B3A" d="M437.349,291.729c0.194-1.322,0.389-2.645,0.583-3.967c0.168-1.142-0.094-2.229-1.161-2.854
				c-1.29-0.756-2.634-0.194-3.457,0.906c-0.513,0.685-0.599,1.671-0.698,2.484c-0.111,0.916-0.155,1.839-0.23,2.758
				c-0.111,1.375,1.234,2.527,2.527,2.527c1.462,0,2.415-1.155,2.527-2.527c0.056-0.688,0.098-1.375,0.155-2.062
				c0.015-0.157,0.03-0.315,0.048-0.473c-0.045,0.305-0.045,0.319,0,0.044c0.021-0.116,0.047-0.231,0.077-0.346
				c0.129-0.517-0.288,0.474-0.043,0.146c-1.539-0.649-3.079-1.298-4.618-1.947c-0.194,1.322-0.389,2.645-0.583,3.967
				c-0.2,1.361,0.316,2.71,1.765,3.108C435.443,293.825,437.148,293.095,437.349,291.729z"/>
		</g>
	</g>
	<g>
		<path fill="#1D1B3A" d="M434.912,291.058l-0.251,1.712C434.783,292.341,434.856,291.726,434.912,291.058z"/>
		<g>
			<path fill="#1D1B3A" d="M432.476,290.386c-0.084,0.57-0.168,1.142-0.251,1.712c-0.104,0.705-0.121,1.307,0.255,1.947
				c0.33,0.564,0.878,0.987,1.51,1.161c1.317,0.362,2.757-0.434,3.108-1.765c0.205-0.774,0.272-1.588,0.342-2.384
				c0.118-1.374-1.24-2.527-2.527-2.527c-1.468,0-2.408,1.155-2.527,2.527c-0.016,0.183-0.138,1.188-0.021,0.353
				c-0.032,0.232-0.079,0.461-0.139,0.688c1.624,0.448,3.249,0.896,4.873,1.344c0.084-0.57,0.167-1.142,0.251-1.712
				c0.104-0.705,0.121-1.307-0.255-1.947c-0.331-0.564-0.878-0.987-1.51-1.161C434.381,288.29,432.676,289.021,432.476,290.386z"/>
		</g>
	</g>
	<g>
		<path fill="#1D1B3A" d="M497.278,313.825c3.336-0.624,7.921-2.862,9.848-5.468c3.7-6.041-3.125-8.388-7.814-8.544
			c-4.951-0.628-10.68,0.101-12.243,5.573c-0.731,2.551-0.836,5.678,1.04,7.396l-0.104,0.366
			c-18.392-0.525-37.041,1.244-55.38,1.916c-1.624,0.07-3.239,0.131-4.853,0.188c3.861,2.574,7.714,5.137,11.528,7.721
			c1.091,0.021,2.182,0.035,3.273,0.065c9.744,0.417,19.223,0.366,29.279-0.309c5.157-0.104,10.732-1.665,16.256-1.664
			c1.145,4.271,1.612,6.773,6.404,9.326c3.439,1.773,9.119,2.607,12.557-1.143C512.906,322.635,504.469,313.515,497.278,313.825z"/>
		<g>
			<path fill="#1D1B3A" d="M497.95,316.262c4.93-1.163,12.246-4.341,12.681-10.271c0.376-5.117-4.118-7.542-8.544-8.408
				c-5.202-1.018-10.755-0.753-14.929,2.75c-4.058,3.404-3.898,10.438-0.837,14.237c-0.217-0.819-0.433-1.64-0.649-2.459
				c-0.035,0.122-0.069,0.244-0.104,0.366c0.812-0.618,1.624-1.236,2.437-1.855c-20.097-0.488-40.162,1.373-60.232,2.104
				c-2.576,0.095-3.365,3.316-1.275,4.709c2.202,1.469,4.405,2.937,6.605,4.408c1.684,1.125,4.064,3.619,6.198,3.658
				c5.329,0.096,10.649,0.324,15.98,0.331c5.529,0.006,11.056-0.225,16.572-0.574c5.444-0.346,10.799-1.507,16.256-1.664
				c-0.812-0.619-1.625-1.237-2.437-1.855c1.404,5.264,3.411,8.916,8.556,11.294c4.094,1.893,10.1,2.177,13.639-1.084
				c8.907-8.205-0.46-20.405-10.588-20.65c-3.261-0.078-3.254,4.976,0,5.055c5.719,0.138,13.39,7.824,6.445,12.328
				c-2.771,1.797-6.754,0.22-9.248-1.236c-2.62-1.529-3.213-4.359-3.931-7.05c-0.283-1.062-1.324-1.888-2.437-1.855
				c-9.751,0.283-19.389,2.01-29.193,2.205c-4.84,0.096-9.682,0.004-14.518-0.159c-6.1-0.206-10.396-4.212-15.351-7.514
				c-0.425,1.569-0.851,3.139-1.275,4.709c20.07-0.732,40.136-2.594,60.232-2.104c1.128,0.027,2.134-0.793,2.437-1.855
				c0.312-1.09,0.172-1.936-0.545-2.825c-4.123-5.116,2.957-8.772,6.898-8.84c2.477-0.042,5.206,0.291,7.451,1.366
				c5.525,2.646-5.827,7.439-7.639,7.867C493.436,312.137,494.78,317.01,497.95,316.262z"/>
		</g>
	</g>
	<g>
		<path fill="#1D1B3A" d="M355.873,313.117c1.208,1.067,2.635,1.86,4.127,2.093C358.832,314.081,357.387,313.401,355.873,313.117z"
			/>
		<g>
			<path fill="#1D1B3A" d="M354.086,314.904c1.515,1.304,3.246,2.387,5.242,2.742c1.132,0.202,2.242-0.116,2.854-1.161
				c0.56-0.954,0.431-2.292-0.395-3.062c-1.475-1.376-3.26-2.34-5.242-2.742c-1.349-0.273-2.725,0.37-3.108,1.765
				c-0.347,1.258,0.414,2.835,1.765,3.108c0.337,0.068,0.667,0.15,0.997,0.249c0.164,0.052,0.326,0.107,0.486,0.169
				c-0.206-0.09-0.171-0.071,0.106,0.057c0.313,0.15,0.609,0.336,0.9,0.525c0.246,0.175,0.287,0.203,0.122,0.083
				c0.138,0.115,0.271,0.235,0.399,0.36c0.819-1.408,1.64-2.816,2.459-4.224c-1.208-0.216-2.173-0.721-3.012-1.443
				c-1.043-0.897-2.546-1.027-3.574,0C353.167,312.249,353.042,314.005,354.086,314.904z"/>
		</g>
	</g>
	<g>
		<path fill="#1D1B3A" d="M386.83,316.568c-1.667,0.312-10.786,0.465-10.786,0.465l-3.957-2.708
			c-0.314-1.666,1.511-3.906,1.406-6.304c0.158-4.688-2.968-7.555-7.343-8.808c-6.928-1.979-17.505,0.52-13.131,10.055
			c0.606,1.371,1.615,2.754,2.854,3.849c1.514,0.284,2.959,0.964,4.127,2.093c-1.492-0.232-2.919-1.025-4.127-2.093
			c-4.498-0.845-9.603,1.828-9.839,6.778c0.053,6.722,7.032,12.661,13.597,11.774c2.502-0.465,4.845-1.771,6.93-3.539
			c1.877-1.043,2.501-3.228,4.015-4.375c2.083-1.771,6.562-0.886,9.325-0.886c3.957-0.05,8.281,0.002,12.606,0.056
			c11.05,0.246,22.243,0.005,33.496-0.041c-3.758-2.413-7.55-4.829-11.395-7.235C405.309,315.89,396.107,316.094,386.83,316.568z"/>
		<g>
			<path fill="#1D1B3A" d="M386.158,314.132c-2.95,0.409-6.048,0.288-9.021,0.354c-1.89,0.041,0.909,0.863-1.069-0.491
				c-0.901-0.617-1.804-1.233-2.705-1.851c0.417,0.727,0.834,1.454,1.252,2.182c0.099-2.966,1.856-5.188,1.267-8.327
				c-0.479-2.546-1.568-4.482-3.423-6.279c-3.436-3.326-9.565-4.247-14.102-3.389c-4.026,0.762-7.386,2.769-8.657,6.826
				c-0.692,2.209,0.064,4.747,0.884,6.784c0.542,1.349,1.323,2.737,2.348,3.784c1.908,1.948,2.957,1.451,5.282,3.272
				c0.819-1.408,1.64-2.816,2.459-4.224c-2.403-0.671-3.575-2.041-6.036-2.327c-1.581-0.185-3.498,0.266-4.922,0.903
				c-3.195,1.431-6.498,4.687-6.207,8.546c0.629,8.306,7.666,14.867,16.124,14.302c3.825-0.257,8.068-3.137,10.505-5.939
				c1.972-2.269,3.035-3.13,6.148-3.048c2.964,0.079,5.908,0.164,8.877,0.171c13.617,0.032,27.225,0.1,40.842,0.031
				c2.582-0.014,3.359-3.372,1.275-4.709c-2.699-1.731-5.402-3.456-8.111-5.171c-3.434-2.174-4.469-2.412-8.539-2.309
				c-7.936,0.202-15.869,0.428-23.798,0.817c-3.243,0.16-3.259,5.215,0,5.055c6.606-0.325,13.216-0.537,19.827-0.715
				c3.678-0.099,6.718-0.528,9.959,1.515c2.712,1.71,5.412,3.44,8.111,5.171c0.425-1.569,0.851-3.139,1.275-4.709
				c-17.369,0.088-34.957-0.849-52.291-0.188c-7.432,0.283-8.925,10.403-17.339,8.824c-4.124-0.773-8.33-5.37-7.721-9.72
				c0.398-2.85,3.656-3.729,5.983-3.774c0.93-0.019,3.528,1.822,4.692,2.146c2.275,0.635,4.534-2.598,2.459-4.224
				c-2.999-2.349-6.01-3.155-7.167-7.254c-0.963-3.408,2.858-4.689,5.425-4.996c2.925-0.35,5.842,0.342,8.375,1.792
				c4.662,2.669,1.268,7.533,1.14,11.36c-0.068,2.047,4.613,5.268,6.484,5.235c3.81-0.067,7.679-0.031,11.458-0.556
				C390.719,318.559,389.345,313.689,386.158,314.132z"/>
		</g>
	</g>
	<g>
		<path fill="#1D1B3A" d="M407.736,301.51c-7.824-5.821-15.693-11.107-24.391-16.201c-4.323-2.814-9.813-4.657-14.378-7.76
			c1.453-4.177,2.472-6.511-0.057-11.315c-1.848-3.397-6.076-7.279-11.029-6.11c-8.546,2.189-6.69,14.476-0.569,18.26
			c-3.109-1.358-8.159-2.084-11.218-1.014c-6.457,2.919-2.132,8.695,1.657,11.459c3.743,3.301,8.892,5.919,13.262,2.274
			c2.038-1.7,3.88-4.226,3.295-6.705l0.292-0.239c14.915,10.768,31.335,19.789,46.881,29.54c1.05,0.648,2.087,1.301,3.127,1.951
			c4.359-0.112,8.742-0.236,13.163-0.396C421.059,310.778,414.324,306.264,407.736,301.51z"/>
		<g>
			<path fill="#1D1B3A" d="M409.012,299.328c-6.354-4.698-12.865-9.147-19.581-13.313c-6.23-3.866-13.035-6.7-19.188-10.647
				c0.387,0.951,0.774,1.902,1.161,2.854c1.974-5.657,2.012-10.304-1.692-15.315c-3.141-4.249-9.056-7.046-14.162-4.623
				c-9.21,4.371-6.684,17.275,0.487,22.282c0.649-1.539,1.298-3.079,1.947-4.618c-5.272-2.016-11.404-2.674-15.933,1.165
				c-3.695,3.133-1.018,8.308,1.344,11.181c3.064,3.73,9.135,7.938,14.206,6.987c3.203-0.601,5.382-2.27,7.407-4.771
				c0.636-0.784,2.398-5.399,1.379-4.563c-1.021,0.132-2.042,0.263-3.062,0.395c10.032,7.181,20.566,13.585,31.132,19.94
				c5.269,3.17,10.534,6.343,15.749,9.6c2.446,1.528,3.433,2.322,6.272,2.248c3.765-0.099,7.529-0.216,11.293-0.348
				c2.578-0.091,3.362-3.317,1.275-4.709C422.309,308.576,415.593,304.051,409.012,299.328c-2.653-1.905-5.173,2.481-2.551,4.363
				c6.581,4.724,13.297,9.249,20.035,13.743c0.425-1.569,0.851-3.139,1.275-4.709c-6.066,0.214-11.267,1.132-16.572-2.182
				c-5.219-3.26-10.506-6.41-15.778-9.582c-10.036-6.037-20.016-12.165-29.545-18.985c-0.978-0.7-2.237-0.281-3.062,0.395
				c-0.604,0.496-1.075,1.203-1.032,2.026c0.438,8.379-8.631,5.638-12.242,2.644c-1.742-1.443-3.401-2.83-4.171-5.053
				c-1.527-4.416,10.14-1.602,11.272-1.169c2.845,1.088,4.143-3.085,1.947-4.618c-3.6-2.514-5.598-8.725-2.467-12.331
				c3.056-3.518,7.935-0.161,9.984,2.61c2.57,3.479,1.706,6.726,0.426,10.396c-0.382,1.093,0.252,2.271,1.161,2.854
				c6.146,3.944,12.937,6.832,19.188,10.647c6.741,4.114,13.233,8.62,19.581,13.313
				C409.085,305.633,411.602,301.242,409.012,299.328z"/>
		</g>
	</g>
	<g>
		<path fill="#1D1B3A" d="M426.003,322.885c8.069,5.183,16.02,10.343,24.201,15.311c1.555,0.678,9.182,5.678,9.182,5.678
			l1.753,4.463c-0.679,1.557-3.448,2.384-4.709,4.424c-2.767,3.788-1.791,7.916,1.124,11.413c4.617,5.532,14.771,9.408,16.511-0.938
			c0.27-1.474,0.212-3.183-0.197-4.783c-1.093-1.086-1.906-2.461-2.237-4.051c1.104,1.03,1.838,2.489,2.237,4.051
			c3.245,3.226,8.969,3.885,11.946-0.078c3.736-5.589,1.3-14.425-4.626-17.381c-2.331-1.021-5.003-1.262-7.723-0.967
			c-2.136-0.193-3.886,1.264-5.776,1.364c-2.718,0.29-5.924-2.96-8.209-4.513c-3.306-2.183-6.854-4.656-10.4-7.131
			c-3.216-2.292-6.483-4.54-9.779-6.772C434.861,322.888,430.428,322.867,426.003,322.885z"/>
		<g>
			<path fill="#1D1B3A" d="M424.728,325.066c10.019,6.438,20.225,12.568,30.259,18.968c1.008,0.643,2.011,1.294,3.013,1.947
				c-1.383-0.902-1.164-1.727-0.495-0.024c0.308,0.784,0.616,1.569,0.924,2.354c0.262,0.666-0.518-0.259-1.644,0.56
				c-0.846,0.615-1.491,1.287-2.142,2.103c-1.298,1.63-2.457,4-2.368,6.141c0.327,7.97,7.642,14.686,15.513,15.122
				c3.146,0.174,5.675-1.776,7.313-4.254c1.203-1.82,1.433-4.186,1.65-6.286c0.363-3.506-1.698-4.882-2.685-7.967
				c-1.407,0.819-2.815,1.64-4.224,2.459c1.769,2.092,1.429,3.788,3.691,5.26c1.638,1.066,3.207,1.714,5.132,2.056
				c3.458,0.613,6.646-0.816,8.935-3.343c4.971-5.491,2.347-15.869-3.084-19.983c-3.763-2.851-8.052-2.907-12.59-2.561
				c-3.143,0.239-4.651,1.757-7.837-0.402c-2.108-1.428-4.105-3.025-6.222-4.454c-4.869-3.286-9.633-6.726-14.476-10.05
				c-2.34-1.607-3.198-2.248-5.995-2.296c-3.797-0.066-7.597-0.066-11.395-0.057c-3.259,0.009-3.26,5.063,0,5.055
				c3.799-0.011,7.597,0.005,11.395,0.056c3.298,0.044,7.817,4.624,10.406,6.46c3.428,2.432,6.902,4.803,10.4,7.131
				c2.571,1.712,4.643,3.672,7.622,4.69c2.556,0.874,5.165-1.008,7.639-1.196c4.728-0.361,8.253,0.724,10.594,5.04
				c1.937,3.57,1.45,10.384-3.517,10.985c-4.009,0.485-5.066-3.529-7.125-5.965c-1.647-1.948-4.971,0.122-4.224,2.459
				c1.235,3.867,4.24,7.542,0.758,11.373c-2.358,2.596-7.435-1.032-9.225-2.601c-2.159-1.894-3.725-4.538-3.262-7.523
				c0.415-2.675,3.169-3.885,4.964-5.472c1.896-1.676,1.026-3.492,0.271-5.417c-1.761-4.481-5.436-6.014-9.519-8.479
				c-8.726-5.271-17.323-10.737-25.902-16.25C424.527,318.935,421.996,323.312,424.728,325.066z"/>
		</g>
	</g>
	<g>
		<path fill="#1D1B3A" d="M473.867,358.451c-0.399-1.562-1.134-3.021-2.237-4.051C471.961,355.99,472.774,357.365,473.867,358.451z"
			/>
		<g>
			<path fill="#1D1B3A" d="M476.304,357.779c-0.52-1.933-1.441-3.76-2.887-5.166c-1.862-1.812-4.777,0.019-4.224,2.459
				c0.446,1.969,1.481,3.729,2.887,5.166c0.963,0.984,2.608,0.965,3.574,0c0.981-0.982,0.962-2.59,0-3.574
				c-0.532-0.544-0.579-0.587-1.01-1.325c-0.085-0.15-0.165-0.305-0.239-0.461c0.075,0.207,0.059,0.166-0.049-0.122
				c-0.126-0.333-0.211-0.681-0.29-1.027c-1.407,0.819-2.815,1.64-4.224,2.459c0.544,0.528,0.568,0.565,0.988,1.314
				c0.082,0.154,0.16,0.31,0.234,0.469c-0.078-0.201-0.062-0.157,0.049,0.13c0.127,0.334,0.224,0.678,0.316,1.022
				c0.357,1.329,1.787,2.128,3.108,1.765C475.872,360.521,476.661,359.108,476.304,357.779z"/>
		</g>
	</g>
	<g>
		<path fill="#1D1B3A" d="M414.608,315.649c3.845,2.406,7.637,4.822,11.395,7.235c4.425-0.018,8.858,0.003,13.297,0.089
			c-3.814-2.584-7.667-5.146-11.528-7.721C423.351,315.413,418.968,315.537,414.608,315.649z"/>
		<g>
			<path fill="#1D1B3A" d="M413.333,317.831c3.532,2.217,7.993,6.389,11.998,7.49c4.051,1.114,9.748,0.106,13.969,0.18
				c2.647,0.046,3.27-3.361,1.275-4.709c-3.832-2.591-7.68-5.156-11.528-7.721c-1.303-0.868-3.634-0.264-5.056-0.217
				c-3.127,0.104-6.255,0.187-9.383,0.268c-3.253,0.086-3.261,5.14,0,5.055c3.299-0.087,10.502-1.665,13.335,0.223
				c3.366,2.244,6.729,4.491,10.081,6.756c0.425-1.569,0.851-3.139,1.275-4.709c-3.8-0.065-7.6-0.094-11.4-0.094
				c-3.684,0-8.98-4.98-12.016-6.885C413.114,311.729,410.58,316.104,413.333,317.831z"/>
		</g>
	</g>
</g>
<g>
	<g>
		<path fill="#1D1B3A" d="M336.71,247.281c3.278,0.051,11.484,0.877,14.721,0.936c-0.338-2.489-0.429-5.031-0.188-7.455
			c-0.202-0.316-0.418-0.609-0.639-0.89c-2.637-0.04-10.232-0.86-12.905-0.888c0.087-0.646,0.169-1.295,0.259-1.94
			c0.136-0.967,1.242-7.861,1.405-8.823c0.11-0.637,0.863-2.516,0.096-0.962c0.3-0.603,0.444-1.19,0.469-1.751
			c-2.841,0.113-5.702-0.027-8.551-0.182c-0.739,2.307-2.006,10.87-2.208,13.459c-3.189-0.137-11.299-1.178-14.421-1.578
			c0.099,2.801,0.126,5.602-0.044,8.375c2.919,0.327,10.813,1.337,13.776,1.47c-0.238,2.353-1.416,10.638-1.587,12.999
			c-0.028,0.396-0.07,0.835-0.108,1.291c2.76-0.115,5.519-0.156,8.282-0.104c0.031-0.756,1.04-7.437,1.096-8.187
			C336.303,251.125,336.502,249.201,336.71,247.281z"/>
		<g>
			<path fill="#1D1B3A" d="M336.71,249.047c4.916,0.146,9.805,0.779,14.721,0.936c0.885,0.028,1.869-0.828,1.766-1.766
				c-0.231-2.109,1.218-9.982-2.593-10.11c-4.311-0.145-8.594-0.762-12.905-0.888c0.589,0.589,1.177,1.177,1.766,1.766
				c0.531-3.981,1.354-7.91,2.021-11.851c0.315-1.867-2.206-3.234-3.228-1.361c-0.108,0.198-0.217,0.396-0.324,0.595
				c1.075,0.454,2.151,0.907,3.228,1.361c0.279-0.552,0.436-1.135,0.469-1.751c0.166-1.094-0.451-2.265-1.703-2.235
				c-2.857,0.065-5.697-0.033-8.551-0.182c-0.781-0.041-1.498,0.569-1.703,1.296c-1.259,4.48-1.841,9.3-2.271,13.929
				c0.589-0.589,1.177-1.177,1.766-1.766c-4.824-0.276-9.631-0.965-14.421-1.578c-0.938-0.12-1.791,0.894-1.766,1.766
				c0.082,2.798,0.089,5.579-0.044,8.375c-0.05,1.042,0.847,1.66,1.766,1.766c4.584,0.527,9.168,1.191,13.776,1.47
				c-0.589-0.589-1.177-1.177-1.766-1.766c-0.525,4.77-1.294,9.507-1.695,14.29c-0.079,0.936,0.862,1.799,1.766,1.766
				c2.762-0.101,5.519-0.138,8.282-0.104c1.028,0.013,1.68-0.817,1.766-1.766c0.423-4.651,1.152-9.309,1.644-13.957
				c0.239-2.264-3.294-2.24-3.531,0c-0.492,4.652-1.22,9.302-1.644,13.957c0.589-0.589,1.177-1.177,1.766-1.766
				c-2.764-0.034-5.521,0.003-8.282,0.104c0.589,0.589,1.177,1.177,1.766,1.766c0.401-4.783,1.17-9.521,1.695-14.29
				c0.11-0.999-0.889-1.713-1.766-1.766c-4.608-0.278-9.192-0.943-13.776-1.47c0.589,0.589,1.177,1.177,1.766,1.766
				c0.133-2.796,0.127-5.577,0.044-8.375c-0.589,0.589-1.177,1.177-1.766,1.766c4.79,0.614,9.597,1.302,14.421,1.578
				c1.026,0.059,1.681-0.852,1.766-1.766c0.401-4.316,0.97-8.807,2.146-12.989c-0.568,0.432-1.136,0.864-1.703,1.296
				c2.854,0.148,5.693,0.248,8.551,0.182c-0.567-0.745-1.135-1.49-1.703-2.235c-0.032,0.616-0.188,1.2-0.469,1.751
				c-0.717,1.895,2.284,3.091,3.228,1.361c0.108-0.198,0.217-0.396,0.324-0.595c-1.075-0.454-2.151-0.907-3.227-1.361
				c-0.72,4.253-1.575,8.496-2.147,12.79c-0.13,0.976,0.902,1.74,1.766,1.766c2.586,0.076,5.164,0.331,7.741,0.545
				c1.468,0.122,2.937,0.234,4.407,0.317c-1.092-0.062-0.245,6.027-0.182,6.604c0.589-0.589,1.177-1.177,1.766-1.766
				c-4.916-0.156-9.805-0.791-14.721-0.936C334.432,245.448,334.438,248.979,336.71,249.047z"/>
		</g>
	</g>
</g>
<g>
	<g>
		<path fill="#1D1B3A" d="M187.897,309.781l-13.38,1.762l-3.362-25.531l-57.369,7.557l-1.561-11.845l25.779-79.909l14.302-1.884
			l-26.485,80.474l43.99-5.795l-6.3-47.834l13.226-1.74L187.897,309.781z"/>
		<g>
			<path fill="#1D1B3A" d="M188.116,309.949l-6.85,1.158l-6.665,1.07l-0.615,0.099l-0.104-0.65l-2.031-12.719l-1.945-12.73
				l1.413,1.084l-14.312,2.114l-14.321,2.045c-9.547,1.373-19.108,2.633-28.662,3.948l-1.802,0.248l-0.235-1.811l-1.535-11.848
				l-0.054-0.41l0.125-0.374l3.314-9.959c1.095-3.322,2.253-6.625,3.384-9.937l6.824-19.854c2.263-6.622,4.589-13.224,6.8-19.863
				c2.248-6.626,4.406-13.282,6.582-19.933l0.12-0.364l0.379-0.051l14.296-1.926l1.015-0.136l-0.313,0.982l-3.222,10.088
				l-3.162,10.108l-6.289,20.228c-2.092,6.744-4.152,13.499-6.299,20.225l-6.392,20.194l-1.978-2.386l43.951-6.094l-1.834,2.391
				l-3.181-23.913L161.5,227.04l-0.257-2.035l2.004-0.241l13.245-1.594l1.89-0.228l0.221,1.848l2.533,21.22l1.254,10.612
				l1.186,10.62l1.186,10.621l1.16,10.624c0.729,7.089,1.504,14.172,2.177,21.268L188.116,309.949z M187.664,309.601
				c-1.174-6.959-2.25-13.932-3.37-20.898l-1.629-10.562l-1.605-10.565l-1.604-10.566l-1.536-10.574l-3.047-21.152l2.11,1.619
				l-13.206,1.887l1.747-2.276l3.281,23.899l3.119,23.921l0.277,2.127l-2.111,0.264l-44.029,5.496l-2.917,0.364l0.939-2.75
				l6.851-20.043c2.269-6.686,4.622-13.344,6.944-20.012l6.954-20.009l3.459-10.011l3.399-10.03l0.701,0.847l-14.308,1.842
				l0.499-0.415c-2.121,6.668-4.26,13.33-6.308,20.021c-2.085,6.68-4.056,13.396-6.09,20.092l-6.065,20.1
				c-1.018,3.348-2.008,6.705-3.061,10.041l-3.131,10.019L114,281.49l1.586,11.841l-2.037-1.562
				c9.569-1.203,19.131-2.463,28.707-3.608l14.363-1.733l14.372-1.664l1.276-0.147l0.137,1.232l1.417,12.8l1.331,12.812
				l-0.718-0.551l6.715-0.691L187.664,309.601z"/>
		</g>
	</g>
	<g>
		<path fill="#1D1B3A" d="M217.613,202.753l5.185,39.372l43.066-5.67l1.478,11.227l-43.064,5.673l6.683,50.755l-13.688,1.803
			l-14.826-112.585l65.674-8.648l1.479,11.228L217.613,202.753z"/>
		<g>
			<path fill="#1D1B3A" d="M217.848,202.933c0.557,3.194,1.11,6.389,1.619,9.59l1.599,9.804c0.544,3.266,1.032,6.539,1.543,9.81
				l1.497,9.817l-1.479-1.136c7.16-1.08,14.324-2.129,21.493-3.14l10.753-1.518l10.759-1.474l1.756-0.24l0.246,1.776
				c0.519,3.738,1.024,7.479,1.498,11.224l0.227,1.796l-1.78,0.229c-3.59,0.459-7.178,0.945-10.773,1.363
				c-3.595,0.424-7.185,0.889-10.785,1.272l-21.59,2.396l0.996-1.299l1.403,12.725c0.451,4.243,0.98,8.477,1.477,12.714
				c0.498,4.237,1.065,8.466,1.595,12.698l1.694,12.686l0.084,0.628l-0.635,0.09l-13.672,1.923l-0.74,0.104l-0.113-0.758
				l-4.204-28.081l-2.117-14.038l-2.034-14.05c-1.38-9.362-2.642-18.741-3.958-28.113l-1.956-14.059
				c-0.645-4.688-1.324-9.371-1.932-14.063l-0.275-2.128l2.124-0.281l16.416-2.177l16.432-2.064l16.438-2.018l16.445-1.958
				l1.726-0.206l0.195,1.679l1.306,11.25l0.182,1.559l-1.505,0.166l-26.064,2.876c-4.342,0.495-8.695,0.902-13.043,1.356
				C226.413,202.104,222.133,202.535,217.848,202.933z M217.587,202.553c4.31-0.738,8.625-1.44,12.941-2.133
				c4.316-0.687,8.627-1.42,12.949-2.066l25.92-3.971l-1.322,1.725l-1.653-11.205l1.921,1.474l-16.392,2.366l-16.399,2.307
				l-16.405,2.26l-16.421,2.147l1.849-2.409c0.628,4.689,1.184,9.389,1.775,14.083l1.75,14.087
				c1.154,9.393,2.364,18.778,3.455,28.18l1.672,14.097l1.59,14.107l3.209,28.212l-0.854-0.654l13.704-1.683l-0.55,0.717
				l-1.646-12.691c-0.585-4.226-1.131-8.457-1.747-12.679c-0.617-4.222-1.202-8.447-1.864-12.663l-1.938-12.653l-0.172-1.12
				l1.168-0.179l21.475-3.277c3.577-0.562,7.164-1.042,10.746-1.564c3.582-0.526,7.173-0.986,10.76-1.473l-1.554,2.024
				c-0.511-3.739-0.99-7.483-1.457-11.229l2.001,1.536l-10.773,1.361l-10.78,1.317c-7.186,0.88-14.378,1.72-21.573,2.53l-1.337,0.15
				l-0.143-1.286l-1.096-9.869c-0.353-3.292-0.729-6.58-1.049-9.876l-0.994-9.883c-0.344-3.292-0.643-6.591-0.938-9.89l-0.018-0.193
				L217.587,202.553z"/>
		</g>
	</g>
</g>
<g>
	<g>
		<path fill="#D71F28" d="M542.958,111.005c-43.266,27.049-390.293,252.345-429.104,279.852
			c-14.498,9.758-29.453,23.97-43.494,29.275l-16.188-12.03l469.02-306.719L542.958,111.005z"/>
		<g>
			<path fill="#D71F28" d="M541.593,108.67c-38.94,24.357-77.334,49.621-115.881,74.593
				c-60.832,39.41-121.596,78.929-182.264,118.593c-42.113,27.532-84.482,54.764-125.987,83.212
				c-10.862,7.445-21.09,15.729-31.828,23.34c-4.41,3.125-9.013,5.958-13.908,8.255c-0.997,0.468,0.594,1.576-1.127,0.297
				c-0.946-0.703-1.893-1.406-2.839-2.11c-4.074-3.027-8.147-6.055-12.221-9.082c0,1.557,0,3.113,0,4.67
				c22.319-14.597,44.64-29.192,66.959-43.789c50.139-32.788,100.276-65.576,150.415-98.364
				c52.725-34.479,105.449-68.959,158.173-103.439c30.079-19.67,60.158-39.34,90.236-59.011c1.079-0.705,2.157-1.411,3.236-2.116
				c-0.91,0-1.82,0-2.73,0c6.589,3.208,13.178,6.415,19.766,9.622c3.122,1.52,5.865-3.144,2.73-4.67
				c-5.615-2.733-11.229-5.466-16.845-8.2c-1.841-0.896-4-2.502-5.983-1.205c-2.39,1.562-4.779,3.125-7.169,4.688
				c-12.842,8.398-25.684,16.796-38.525,25.194c-46.894,30.667-93.788,61.333-140.682,92
				c-54.148,35.41-108.297,70.821-162.444,106.231c-36.171,23.654-72.342,47.309-108.512,70.962
				c-3.785,2.476-7.57,4.95-11.355,7.426c-1.82,1.19-1.644,3.448,0,4.67c4.868,3.617,9.735,7.235,14.604,10.853
				c2.609,1.939,3.966,1.38,7.043,0.043c6.526-2.835,12.434-7.121,18.14-11.31c10.542-7.737,20.849-15.719,31.672-23.062
				c17.548-11.908,35.273-23.557,52.981-35.224C234.725,313.868,292.4,276.3,350.104,238.779
				c53.21-34.599,106.446-69.159,159.831-103.487c11.438-7.354,22.858-14.741,34.388-21.952
				C547.271,111.496,544.56,106.815,541.593,108.67z"/>
		</g>
	</g>
	<g>
		<path fill="#D71F28" d="M517.12,426.715C441.042,385.704,152.182,115.348,80.821,72.666l-14.226,30.91
			c0,0,442.702,341.293,440.546,342.373C504.986,447.029,517.12,426.715,517.12,426.715z"/>
		<g>
			<path fill="#D71F28" d="M518.485,424.38c-19.458-10.538-37.188-24.606-54.601-38.143c-26.68-20.738-52.661-42.376-78.505-64.142
				c-60.081-50.603-119.152-102.388-178.963-153.307c-24.381-20.757-48.858-41.419-73.857-61.429
				c-16.193-12.961-32.552-26.328-50.373-37.028c-1.171-0.703-3.089-0.359-3.7,0.97c-4.742,10.303-9.483,20.607-14.226,30.91
				c-0.68,1.477-0.288,2.729,0.97,3.7c21.155,16.309,42.302,32.628,63.446,48.95c47.517,36.678,95.017,73.377,142.489,110.111
				c49.636,38.406,99.252,76.836,148.767,115.397c27.73,21.596,55.998,42.722,82.935,65.315c0.55,0.46,1.096,0.925,1.63,1.402
				c0.357,0.319,0.964,1.176,0.301,0.172c-1.557-2.359,4.131,0.642,4.942-1.641c0.259-0.729,0.664-1.427,1.009-2.116
				c1.057-2.109,2.217-4.168,3.371-6.225c1.734-3.091,3.52-6.154,5.335-9.197c1.791-3.003-2.886-5.721-4.67-2.73
				c-3.022,5.066-6.011,10.173-8.706,15.422c-0.919,1.792-2.146,3.806-1.776,5.886c0.49,2.76,4.821,2.551,5.452,0.006
				c0.635-2.563-2.724-4.53-4.371-5.891c-10.307-8.514-20.882-16.711-31.392-24.969c-42.439-33.347-85.104-66.406-127.757-99.478
				c-51.328-39.798-102.706-79.531-154.104-119.24c-36.343-28.079-72.696-56.143-109.062-84.192
				c-5.036-3.885-10.072-7.769-15.109-11.652c0.323,1.233,0.646,2.466,0.97,3.7c4.742-10.303,9.483-20.607,14.226-30.91
				c-1.233,0.323-2.467,0.647-3.7,0.97c18.643,11.192,35.697,25.257,52.604,38.85c26.17,21.04,51.789,42.766,77.333,64.557
				c59.769,50.986,118.859,102.768,179.027,153.285c24.688,20.728,49.537,41.292,75.045,61.009
				c16.694,12.903,33.679,26.269,52.29,36.349C518.822,430.711,521.552,426.041,518.485,424.38z"/>
		</g>
	</g>
</g>
</svg>
