<?xml version="1.0" encoding="utf-8"?>
<!-- Generator: Adobe Illustrator 16.0.4, SVG Export Plug-In . SVG Version: 6.00 Build 0)  -->
<!DOCTYPE svg PUBLIC "-//W3C//DTD SVG 1.1//EN" "http://www.w3.org/Graphics/SVG/1.1/DTD/svg11.dtd">
<svg version="1.1" id="Layer_1" xmlns="http://www.w3.org/2000/svg" xmlns:xlink="http://www.w3.org/1999/xlink" x="0px" y="0px"
	 width="1105.594px" height="517.497px" viewBox="0 0 1105.594 517.497" enable-background="new 0 0 1105.594 517.497"
	 xml:space="preserve">
<path fill="#FFFFFF" d="M1033.033,129.504c-0.013-0.229-0.022-0.457-0.037-0.686c-0.099-1.565-2.021-2.355-3.319-1.604
	c-0.619,0.359-0.986,0.848-1.113,1.617c-0.236,1.431,0.064,2.236,1.304,2.879c0.851,0.44,1.73,0.311,2.424-0.293
	C1032.887,130.899,1033.065,130.252,1033.033,129.504z"/>
<path fill="#FFFFFF" d="M1037.728,127.035c-0.495-0.137-0.656,0.02-0.65,0.396c0.007,0.402,0.028,0.808-0.013,1.206
	c-0.014,0.129-0.197,0.337-0.312,0.343c-0.664,0.033-1.331,0.017-2.073,0.017c0-0.532-0.015-1.006,0.004-1.478
	c0.018-0.446-0.126-0.655-0.657-0.479c0,1.52-0.006,3.048,0.013,4.577c0.001,0.11,0.185,0.218,0.283,0.326
	c0.116-0.125,0.324-0.244,0.332-0.376c0.035-0.625,0.016-1.253,0.016-1.956c0.684,0,1.293,0.024,1.899-0.008
	c0.422-0.021,0.533,0.153,0.515,0.537c-0.021,0.459-0.032,0.923,0.016,1.377c0.016,0.153,0.227,0.285,0.349,0.427
	c0.092-0.144,0.257-0.282,0.264-0.43c0.029-0.669,0.016-1.341,0.016-2.011C1037.729,128.684,1037.728,127.863,1037.728,127.035z"/>
<path fill="#FFFFFF" d="M1028.192,132.221c-0.232-0.458-0.438-0.827-0.609-1.211c-0.287-0.646-0.435-0.752-0.878-0.555
	c0.197,0.352,0.337,0.758,0.608,1.034C1027.558,131.738,1027.456,132.428,1028.192,132.221z"/>
<path fill="#FFFFFF" d="M1026.368,132.949c-0.343-0.58-0.624-1.054-0.97-1.638C1025.179,132.152,1025.58,132.871,1026.368,132.949z"
	/>
<path fill="#FFFFFF" d="M1024.039,133.643c0.085-0.037,0.171-0.073,0.256-0.11c-0.142-0.267-0.284-0.532-0.456-0.855
	C1023.358,133.268,1023.953,133.356,1024.039,133.643z"/>
<g>
	<polygon fill="#FFFFFF" points="1085.597,131.868 938.723,160.002 917.788,45.778 1085.597,40.099 	"/>
	<g>
		<path fill="#FFFFFF" d="M1033.575,88.772c1.557,1.213,2.99,2.331,4.479,3.489c0.378-0.655,0.739-1.282,1.117-1.939
			c-1.693-0.69-3.367-1.373-5.098-2.08c0.104-0.185,0.162-0.44,0.314-0.53c1.084-0.633,2.194-1.215,3.278-1.844
			c1.142-0.664,2.255-1.383,3.402-2.035c0.542-0.307,1.116-0.611,1.714-0.748c0.944-0.219,1.923-0.297,2.886-0.434
			c0.081-0.012,0.162-0.016,0.239-0.033c0.942-0.204,1.879-0.438,2.827-0.609c0.975-0.175,1.962-0.287,2.943-0.436
			c0.11-0.018,0.211-0.13,0.321-0.138c0.532-0.041,1.159-0.253,1.58-0.05c1.116,0.541,2.114,1.322,3.223,1.884
			c0.402,0.203,0.814,0.823,1.539,0.28c-0.799-0.445-1.545-0.844-2.275-1.27c-1.31-0.764-2.6-1.564-3.923-2.307
			c-0.392-0.219-0.895-0.462-1.294-0.392c-0.785,0.137-1.537,0.476-2.297,0.748c-0.893,0.321-1.781,0.656-2.666,0.993
			c-0.484,0.184-0.953,0.41-1.443,0.575c-0.641,0.218-1.294,0.393-2.068,0.624c0-0.397,0-0.633,0-0.867
			c0-2.91-0.011-5.818,0.011-8.728c0.004-0.408-0.166-0.646-0.472-0.816c-1.346-0.751-2.718-1.46-4.048-2.237
			c-1.494-0.873-2.951-1.812-4.438-2.697c-0.135-0.08-0.41-0.037-0.564,0.049c-0.546,0.301-1.061,0.655-1.6,0.971
			c-1.306,0.768-2.619,1.523-3.928,2.288c-0.877,0.513-1.715,1.107-2.636,1.522c-0.61,0.275-0.758,0.617-0.754,1.228
			c0.025,2.97,0.007,5.938,0.02,8.909c0.003,0.475-0.12,0.785-0.591,0.985c-0.478,0.202-0.918,0.495-1.366,0.76
			c-1.726,1.019-3.445,2.045-5.174,3.057c-0.321,0.188-0.673,0.317-1.004,0.472c-0.077-0.143-0.116-0.18-0.113-0.212
			c0.152-1.555,0.308-3.107,0.469-4.66c0.01-0.091,0.105-0.169,0.138-0.261c0.115-0.335,0.025-0.571-0.356-0.59
			c-0.443-0.022-0.89,0-1.334-0.012c-0.538-0.013-0.587,0.261-0.475,0.705c0.104,0.406,0.146,0.828,0.211,1.244
			c0.095,0.592,0.207,1.182,0.271,1.776c0.068,0.634,0.088,1.272,0.132,1.978c-0.264-0.039-0.441-0.02-0.566-0.09
			c-0.88-0.488-1.75-0.991-2.62-1.496c-1.556-0.904-3.155-1.743-4.639-2.752c-0.769-0.523-1.229-0.084-1.771,0.201
			c-0.723,0.376-1.406,0.829-2.111,1.24c-0.955,0.561-1.912,1.116-2.873,1.667c-0.717,0.41-1.416,0.861-2.166,1.202
			c-1.021,0.465-1.058,0.46-1.057,1.445c0.003,3.01,0.014,6.021-0.012,9.031c-0.002,0.271-0.166,0.657-0.38,0.791
			c-1.216,0.764-2.467,1.471-3.711,2.188c-1.159,0.668-2.313,1.347-3.49,1.979c-0.46,0.248-0.897,0.777-1.506,0.442
			c-1.222-0.673-2.428-1.375-3.626-2.09c-1.506-0.897-2.987-1.84-4.511-2.706c-0.221-0.127-0.661-0.033-0.924,0.105
			c-0.937,0.488-1.836,1.046-2.755,1.567c-0.943,0.536-1.898,1.052-2.838,1.597c-0.888,0.516-1.708,1.196-2.653,1.553
			c-1.071,0.403-2.244,0.55-3.381,0.764c-0.958,0.181-1.929,0.287-2.891,0.449c-1.216,0.207-2.425,0.451-3.642,0.656
			c-0.563,0.098-0.754,0.41-0.543,0.938c0.117,0.292,0.194,0.602,0.289,0.9c0.099,0.313,0.182,0.529,0.622,0.33
			c0.681-0.312,1.406-0.527,2.117-0.77c1.478-0.505,2.961-0.989,4.434-1.506c0.477-0.167,0.926-0.409,1.388-0.616
			c0.806-0.361,1.037-0.217,1.037,0.657c0,3.049,0,6.098,0,9.127c3.134,1.816,6.242,3.615,9.3,5.387
			c3.007-1.738,5.991-3.464,8.979-5.192c0.093,0.079,0.173,0.171,0.271,0.226c1.015,0.568,2.04,1.116,3.049,1.693
			c1.05,0.602,2.086,1.228,3.124,1.848c0.775,0.465,1.538,0.951,2.325,1.393c0.125,0.069,0.383,0.01,0.528-0.078
			c0.455-0.271,0.87-0.616,1.332-0.877c0.96-0.546,1.949-1.04,2.91-1.583c1.388-0.783,2.768-1.58,4.132-2.399
			c0.313-0.188,0.584-0.402,0.577-0.905c-0.04-2.889-0.024-5.777-0.019-8.668c0-0.229,0.062-0.458,0.108-0.777
			c0.595,0.44,1.055,0.799,1.531,1.132c2.003,1.395,4.009,2.783,6.014,4.172c0.302,0.21,0.605,0.249,0.817-0.11
			c0.266-0.452,0.5-0.922,0.814-1.509c-2.852-1.35-5.686-2.691-8.544-4.042c0-0.159,0-0.349,0-0.53
			c0.212-0.066,0.402-0.09,0.552-0.18c1.091-0.656,2.169-1.337,3.264-1.989c0.968-0.576,1.945-1.138,2.93-1.687
			c0.513-0.284,1.022-0.732,1.656-0.461c0.531,0.228,1.011,0.574,1.515,0.866c1.329,0.773,2.657,1.548,3.988,2.318
			c0.696,0.403,1.431,0.747,2.083,1.21c0.92,0.65,0.975,0.692,1.831,0.069c0.078-0.058,0.152-0.125,0.236-0.172
			c1.164-0.646,2.334-1.282,3.492-1.938c1.41-0.799,2.818-1.601,4.208-2.435c0.295-0.176,0.523-0.412,0.515-0.888
			c-0.043-2.827-0.024-5.656-0.021-8.485C1033.491,89.368,1033.537,89.136,1033.575,88.772z"/>
		<path fill="#FFFFFF" d="M1015.411,136.16c-0.734,1.396-0.729,2.096,0.014,2.599c0.778,0.526,1.795,0.491,2.358-0.081
			c0.658-0.67,0.582-1.524-0.224-2.532c0.391-0.34,0.536-1.443,0.235-1.798c-0.526-0.627-1.896-0.641-2.519-0.027
			C1014.886,134.706,1014.957,135.687,1015.411,136.16z"/>
		<path fill="#FFFFFF" d="M1043.442,93.702c0,0.752-0.02,1.377,0.014,1.997c0.008,0.146,0.201,0.282,0.309,0.423
			c0.128-0.145,0.364-0.289,0.367-0.437c0.026-1.472,0.022-2.946,0-4.42c-0.001-0.113-0.228-0.331-0.303-0.313
			c-0.146,0.035-0.341,0.192-0.365,0.324c-0.056,0.314-0.026,0.643-0.028,0.967c-0.004,0.789-0.003,0.789-0.813,0.793
			c-0.079,0-0.16,0-0.241,0c-1.422-0.002-1.403-0.002-1.502-1.435c-0.016-0.233-0.275-0.447-0.423-0.671
			c-0.156,0.229-0.441,0.454-0.449,0.689c-0.045,1.289-0.043,2.582-0.002,3.873c0.007,0.213,0.288,0.418,0.443,0.629
			c0.148-0.209,0.391-0.4,0.427-0.626c0.07-0.433-0.002-0.887,0.035-1.329c0.015-0.16,0.166-0.438,0.266-0.443
			C1041.911,93.685,1042.651,93.702,1043.442,93.702z"/>
		<path fill="#FFFFFF" d="M994.702,129.854c0.139,0.465,0.253,0.938,0.417,1.392c0.488,1.34,2.747,1.541,3.648,0.651
			c0.862-0.85,1.049-1.737,0.733-2.911c-0.303-1.12-1.023-1.711-2.072-1.808C995.838,127.03,994.833,128.11,994.702,129.854z"/>
		<path fill="#FFFFFF" d="M981.663,129.854c0.003-1.615-0.937-2.718-2.35-2.695c-1.659,0.028-2.461,1.187-2.517,2.724
			c-0.044,1.198,0.942,2.625,2.524,2.569C980.549,132.408,981.804,131.499,981.663,129.854z"/>
		<path fill="#FFFFFF" d="M1001.174,127.253c-0.088-0.028-0.174-0.059-0.262-0.087c-0.126,0.189-0.361,0.376-0.364,0.568
			c-0.03,1.41-0.026,2.822,0.001,4.233c0.004,0.141,0.239,0.277,0.366,0.416c0.104-0.141,0.287-0.272,0.299-0.42
			c0.041-0.48,0.026-0.967,0.022-1.451c-0.005-0.368,0.147-0.565,0.536-0.561c0.504,0.006,1.011-0.031,1.509,0.021
			c0.165,0.017,0.415,0.241,0.437,0.397c0.065,0.454,0.045,0.924,0.039,1.388c-0.004,0.337,0.044,0.633,0.464,0.621
			c0.422-0.012,0.437-0.326,0.434-0.65c-0.005-1.229,0.019-2.461-0.019-3.689c-0.008-0.283-0.214-0.561-0.341-0.869
			c-0.915,0.582-0.327,1.409-0.61,2.036c-0.793,0-1.584,0-2.403,0C1001.242,128.516,1001.208,127.884,1001.174,127.253z"/>
		<path fill="#FFFFFF" d="M1058.586,85.712c0.163,0.492,0.23,1.044,0.503,1.464c0.868,1.337,2.312,1.521,3.479,0.636
			c1.222-0.927,1.208-2.828,0.376-3.967c-0.718-0.982-2.542-0.984-3.287-0.411C1058.905,84.014,1058.638,84.761,1058.586,85.712z"/>
		<path fill="#FFFFFF" d="M972.104,127.181c-0.109,0.249-0.287,0.469-0.291,0.691c-0.024,1.311-0.007,2.622-0.009,3.932
			c0,0.316,0.071,0.626,0.439,0.551c0.171-0.034,0.376-0.329,0.406-0.528c0.066-0.456,0.024-0.925,0.046-1.388
			c0.015-0.324,0.153-0.515,0.531-0.491c0.462,0.028,0.928,0.015,1.391,0.005c0.408-0.01,0.591,0.19,0.592,0.586
			c0.001,0.424-0.029,0.852,0.025,1.268c0.027,0.203,0.191,0.521,0.338,0.547c0.378,0.068,0.36-0.27,0.36-0.534
			c0.001-1.312-0.008-2.621,0.005-3.933c0.004-0.389-0.133-0.605-0.58-0.639c-0.048,0.175-0.11,0.342-0.139,0.516
			c-0.076,0.474,0.023,1.153-0.251,1.373c-0.315,0.254-0.957,0.117-1.457,0.125c-0.832,0.014-0.833,0.005-0.838-0.86
			C972.672,127.962,972.747,127.497,972.104,127.181z"/>
		<path fill="#FFFFFF" d="M1065.134,85.913c0.342-0.015,0.6-0.043,0.856-0.037c0.521,0.01,1.253-0.164,1.507,0.106
			c0.285,0.302,0.106,1.017,0.188,1.542c0.043,0.279,0.211,0.539,0.322,0.807c0.115-0.023,0.229-0.048,0.343-0.071
			c0.156-1.697,0.085-3.399,0.027-5.165c-0.276,0.028-0.463,0.048-0.709,0.074c0,0.552,0.022,1.053-0.013,1.554
			c-0.01,0.159-0.159,0.439-0.256,0.444c-0.734,0.038-1.474,0.021-2.268,0.021c0-0.741,0-1.378,0-2.044c-0.251,0-0.438,0-0.689,0
			c0,1.592-0.01,3.141,0.017,4.689c0.003,0.16,0.233,0.316,0.359,0.475c0.105-0.167,0.291-0.329,0.301-0.504
			C1065.158,87.205,1065.134,86.601,1065.134,85.913z"/>
		<path fill="#FFFFFF" d="M1016.493,78.092c0,0.699,0.006,1.338-0.001,1.978c-0.003,0.45,0.201,0.565,0.625,0.405
			c0-1.709,0-3.411,0-5.108c-0.56-0.049-0.603-0.026-0.62,0.459c-0.019,0.517-0.005,1.035-0.005,1.604c-0.435,0-0.773,0-1.112,0
			c-1.395,0-1.401,0-1.418-1.364c-0.005-0.38-0.081-0.669-0.564-0.743c-0.053,0.154-0.146,0.3-0.147,0.445
			c-0.011,1.452-0.015,2.903,0.008,4.355c0.002,0.14,0.199,0.276,0.305,0.415c0.131-0.14,0.36-0.271,0.375-0.421
			c0.048-0.521-0.004-1.049,0.041-1.569c0.014-0.16,0.203-0.427,0.325-0.436C1015.002,78.069,1015.703,78.092,1016.493,78.092z"/>
		<path fill="#FFFFFF" d="M1012.179,135.601c0.029,0.258,0.074,0.48,0.078,0.705c0.01,0.686,0.014,1.372-0.001,2.059
			c-0.01,0.451,0.268,0.679,0.637,0.718c0.459,0.049,0.402-0.361,0.404-0.647c0.013-1.352,0.014-2.702-0.003-4.054
			c-0.002-0.169-0.117-0.457-0.217-0.474c-0.175-0.029-0.413,0.062-0.562,0.184c-0.295,0.237-0.506,0.684-0.824,0.769
			c-0.74,0.196-0.535,0.634-0.473,1.224C1011.57,135.907,1011.832,135.774,1012.179,135.601z"/>
		<path fill="#FFFFFF" d="M982.503,128.113c0.114-0.097,0.2-0.199,0.312-0.261c1.566-0.865,3.145-1.715,4.704-2.596
			c0.355-0.2,0.652-0.507,0.977-0.764c-0.054-0.089-0.106-0.177-0.159-0.265c-0.379,0.169-0.773,0.31-1.132,0.513
			c-1.408,0.799-2.814,1.602-4.194,2.446C982.735,127.355,982.112,127.454,982.503,128.113z"/>
		<path fill="#FFFFFF" d="M987.126,122.205c-0.043,0.07-0.085,0.143-0.128,0.214c0.17,0.114,0.333,0.308,0.513,0.326
			c0.479,0.048,0.965,0.004,1.447,0.023c0.407,0.016,0.535-0.16,0.45-0.563C988.637,122.205,987.881,122.205,987.126,122.205z"/>
		<path fill="#FFFFFF" d="M998.438,125.79c-0.866,0-1.663,0-2.55,0C996.648,126.454,998.045,126.446,998.438,125.79z"/>
		<path fill="#FFFFFF" d="M964.281,95.876c-0.057-0.095-0.112-0.188-0.169-0.281c-0.176,0.032-0.434,0.003-0.516,0.109
			c-0.451,0.59-1.299,0.9-1.413,1.73c0.07,0.06,0.14,0.119,0.209,0.179C963.022,97.034,963.651,96.454,964.281,95.876z"/>
		<path fill="#FFFFFF" d="M987.425,120.054c-0.085,0.426,0,0.646,0.43,0.619c0.277-0.016,0.559,0.002,0.839-0.004
			c0.473-0.012,0.504-0.258,0.354-0.615C988.495,120.054,987.981,120.054,987.425,120.054z"/>
		<path fill="#FFFFFF" d="M1050.027,88.962c-0.537,0.591-0.998,1.07-1.42,1.58c-0.112,0.136-0.106,0.37-0.155,0.56
			C1050.165,89.843,1050.272,89.704,1050.027,88.962z"/>
		<path fill="#FFFFFF" d="M1048.782,88.152c-0.552-0.188-1.276,0.351-1.681,1.188C1047.419,89.42,1047.419,89.42,1048.782,88.152z"
			/>
		<path fill="#FFFFFF" d="M963.677,98.515c0.287,0.234,0.494,0.279,0.719-0.053c0.183-0.27,0.479-0.459,0.69-0.714
			c0.101-0.12,0.118-0.309,0.173-0.466c-0.192,0.047-0.438,0.035-0.568,0.154C964.333,97.761,964.023,98.139,963.677,98.515z"/>
		<path fill="#FFFFFF" d="M996.372,123.823c0.557,0,1.092,0,1.627,0c0.026-0.046,0.054-0.092,0.08-0.139
			c-0.14-0.128-0.268-0.35-0.42-0.367C997.18,123.261,996.651,123.172,996.372,123.823z"/>
		<path fill="#FFFFFF" d="M966.655,98.797c-0.588-0.032-1.286,0.686-1.217,1.251C965.987,99.919,966.584,99.307,966.655,98.797z"/>
		<path fill="#FFFFFF" d="M988.255,118.707c0.303-0.206,0.518-0.352,0.73-0.499c-0.229-0.097-0.455-0.268-0.686-0.271
			c-0.197-0.006-0.398,0.178-0.599,0.278C987.859,118.356,988.019,118.497,988.255,118.707z"/>
		<path fill="#FFFFFF" d="M1045.912,87.909c0.049,0.041,0.098,0.084,0.146,0.125c0.365-0.399,0.729-0.798,1.181-1.293
			C1046.524,86.685,1045.954,87.289,1045.912,87.909z"/>
		<path fill="#FFFFFF" d="M1044.452,86.089c0.056,0.057,0.111,0.113,0.167,0.17c0.691-0.075,0.956-0.382,0.797-1.109
			C1045.055,85.501,1044.753,85.795,1044.452,86.089z"/>
		<path fill="#FFFFFF" d="M967.968,100.647c-0.049-0.08-0.097-0.163-0.146-0.244c-0.218,0.125-0.479,0.211-0.639,0.387
			c-0.104,0.114-0.057,0.363-0.077,0.553c0.06,0.01,0.119,0.02,0.179,0.029C967.513,101.132,967.74,100.89,967.968,100.647z"/>
		<path fill="#FFFFFF" d="M988.349,116.553c0.148-0.208,0.243-0.341,0.338-0.474c-0.143-0.095-0.297-0.279-0.426-0.264
			c-0.149,0.016-0.277,0.211-0.415,0.327C987.982,116.254,988.119,116.367,988.349,116.553z"/>
		<path fill="#FFFFFF" d="M968.469,102.43c0.049,0.048,0.096,0.096,0.144,0.144c0.623-0.032,0.623-0.032,0.523-0.794
			C968.86,102.047,968.664,102.237,968.469,102.43z"/>
		<path fill="#FFFFFF" d="M1043.097,84.562c0.062,0.088,0.122,0.176,0.184,0.265c0.186-0.133,0.382-0.252,0.547-0.406
			c0.032-0.03-0.058-0.191-0.092-0.293C1043.522,84.273,1043.31,84.417,1043.097,84.562z"/>
		<path fill-rule="evenodd" clip-rule="evenodd" d="M1033.575,88.772c-0.038,0.363-0.084,0.596-0.084,0.826
			c-0.004,2.829-0.022,5.658,0.021,8.485c0.009,0.476-0.22,0.712-0.515,0.888c-1.39,0.834-2.798,1.636-4.208,2.435
			c-1.158,0.655-2.328,1.291-3.492,1.938c-0.084,0.047-0.158,0.114-0.236,0.172c-0.856,0.623-0.911,0.581-1.831-0.069
			c-0.652-0.463-1.387-0.807-2.083-1.21c-1.331-0.771-2.659-1.545-3.988-2.318c-0.504-0.292-0.983-0.639-1.515-0.866
			c-0.634-0.271-1.144,0.177-1.656,0.461c-0.984,0.549-1.962,1.11-2.93,1.687c-1.095,0.652-2.173,1.333-3.264,1.989
			c-0.149,0.09-0.34,0.113-0.552,0.18c0,0.182,0,0.371,0,0.53c2.858,1.351,5.692,2.692,8.544,4.042
			c-0.314,0.587-0.549,1.057-0.814,1.509c-0.212,0.359-0.516,0.32-0.817,0.11c-2.005-1.389-4.011-2.777-6.014-4.172
			c-0.477-0.333-0.937-0.691-1.531-1.132c-0.046,0.319-0.108,0.548-0.108,0.777c-0.006,2.891-0.021,5.779,0.019,8.668
			c0.007,0.503-0.264,0.718-0.577,0.905c-1.364,0.819-2.744,1.616-4.132,2.399c-0.961,0.543-1.95,1.037-2.91,1.583
			c-0.462,0.261-0.877,0.605-1.332,0.877c-0.146,0.088-0.403,0.147-0.528,0.078c-0.787-0.441-1.55-0.928-2.325-1.393
			c-1.038-0.62-2.074-1.246-3.124-1.848c-1.009-0.577-2.034-1.125-3.049-1.693c-0.098-0.055-0.178-0.146-0.271-0.226
			c-2.987,1.729-5.972,3.454-8.979,5.192c-3.058-1.771-6.166-3.57-9.3-5.387c0-3.029,0-6.078,0-9.127
			c0-0.874-0.231-1.019-1.037-0.657c-0.462,0.207-0.911,0.449-1.388,0.616c-1.473,0.517-2.956,1.001-4.434,1.506
			c-0.711,0.242-1.437,0.458-2.117,0.77c-0.44,0.199-0.523-0.017-0.622-0.33c-0.095-0.299-0.172-0.608-0.289-0.9
			c-0.211-0.527-0.021-0.84,0.543-0.938c1.217-0.205,2.426-0.449,3.642-0.656c0.962-0.162,1.933-0.269,2.891-0.449
			c1.137-0.214,2.31-0.36,3.381-0.764c0.945-0.356,1.766-1.037,2.653-1.553c0.939-0.545,1.895-1.061,2.838-1.597
			c0.919-0.521,1.818-1.079,2.755-1.567c0.263-0.139,0.703-0.232,0.924-0.105c1.523,0.866,3.005,1.809,4.511,2.706
			c1.198,0.715,2.404,1.417,3.626,2.09c0.608,0.335,1.046-0.194,1.506-0.442c1.177-0.632,2.331-1.311,3.49-1.979
			c1.244-0.717,2.495-1.424,3.711-2.188c0.214-0.134,0.378-0.521,0.38-0.791c0.025-3.01,0.015-6.021,0.012-9.031
			c-0.001-0.985,0.036-0.98,1.057-1.445c0.75-0.341,1.449-0.792,2.166-1.202c0.961-0.551,1.918-1.106,2.873-1.667
			c0.705-0.411,1.389-0.864,2.111-1.24c0.542-0.285,1.003-0.725,1.771-0.201c1.483,1.009,3.083,1.848,4.639,2.752
			c0.87,0.505,1.74,1.008,2.62,1.496c0.125,0.07,0.303,0.051,0.566,0.09c-0.044-0.705-0.063-1.344-0.132-1.978
			c-0.063-0.595-0.176-1.185-0.271-1.776c-0.065-0.416-0.106-0.838-0.211-1.244c-0.112-0.444-0.063-0.718,0.475-0.705
			c0.444,0.012,0.891-0.011,1.334,0.012c0.382,0.019,0.472,0.255,0.356,0.59c-0.032,0.092-0.128,0.17-0.138,0.261
			c-0.161,1.553-0.316,3.105-0.469,4.66c-0.003,0.032,0.036,0.069,0.113,0.212c0.331-0.154,0.683-0.284,1.004-0.472
			c1.729-1.012,3.448-2.038,5.174-3.057c0.448-0.265,0.889-0.558,1.366-0.76c0.471-0.2,0.594-0.511,0.591-0.985
			c-0.013-2.971,0.006-5.939-0.02-8.909c-0.004-0.61,0.144-0.952,0.754-1.228c0.921-0.415,1.759-1.01,2.636-1.522
			c1.309-0.765,2.622-1.521,3.928-2.288c0.539-0.315,1.054-0.67,1.6-0.971c0.154-0.086,0.43-0.129,0.564-0.049
			c1.487,0.885,2.944,1.824,4.438,2.697c1.33,0.777,2.702,1.486,4.048,2.237c0.306,0.17,0.476,0.408,0.472,0.816
			c-0.021,2.909-0.011,5.817-0.011,8.728c0,0.234,0,0.47,0,0.867c0.774-0.231,1.428-0.406,2.068-0.624
			c0.49-0.165,0.959-0.392,1.443-0.575c0.885-0.337,1.773-0.672,2.666-0.993c0.76-0.272,1.512-0.611,2.297-0.748
			c0.399-0.07,0.902,0.173,1.294,0.392c1.323,0.742,2.613,1.543,3.923,2.307c0.73,0.426,1.477,0.824,2.275,1.27
			c-0.725,0.543-1.137-0.077-1.539-0.28c-1.108-0.562-2.106-1.343-3.223-1.884c-0.421-0.203-1.048,0.009-1.58,0.05
			c-0.11,0.008-0.211,0.12-0.321,0.138c-0.981,0.148-1.969,0.261-2.943,0.436c-0.948,0.172-1.885,0.405-2.827,0.609
			c-0.077,0.018-0.158,0.021-0.239,0.033c-0.963,0.137-1.941,0.215-2.886,0.434c-0.598,0.137-1.172,0.441-1.714,0.748
			c-1.147,0.652-2.261,1.371-3.402,2.035c-1.084,0.629-2.194,1.211-3.278,1.844c-0.152,0.09-0.21,0.346-0.314,0.53
			c1.73,0.707,3.404,1.39,5.098,2.08c-0.378,0.657-0.739,1.284-1.117,1.939C1036.565,91.104,1035.132,89.985,1033.575,88.772z
			 M1005.902,108.914h0.003c0-1.495,0.01-2.989-0.011-4.482c-0.003-0.259-0.055-0.638-0.224-0.749
			c-0.802-0.525-1.653-0.975-2.486-1.455c-1.589-0.918-3.168-1.857-4.774-2.746c-0.427-0.235-0.938-0.417-1.416-0.432
			c-0.341-0.01-0.704,0.279-1.035,0.476c-1.07,0.632-2.125,1.293-3.197,1.925c-1.255,0.738-2.536,1.432-3.771,2.2
			c-0.254,0.16-0.507,0.558-0.511,0.851c-0.038,2.966-0.032,5.936-0.014,8.904c0.001,0.195,0.146,0.468,0.308,0.575
			c0.641,0.419,1.316,0.784,1.977,1.176c0.747,0.442,1.49,0.891,2.238,1.335c1.093,0.647,2.174,1.317,3.29,1.921
			c0.386,0.208,0.742,0.717,1.26,0.448c0.865-0.449,1.695-0.969,2.54-1.46c1.562-0.911,3.114-1.837,4.687-2.728
			c0.703-0.398,1.244-0.779,1.164-1.764C1005.821,111.586,1005.902,110.246,1005.902,108.914z M970.606,108.857
			c0,1.475,0.018,2.948-0.008,4.422c-0.011,0.555,0.207,0.846,0.709,1.078c0.724,0.335,1.403,0.767,2.092,1.174
			c0.7,0.413,1.382,0.857,2.081,1.272c0.979,0.576,1.954,1.156,2.953,1.693c0.338,0.181,0.845,0.442,1.098,0.314
			c1.162-0.582,2.253-1.305,3.385-1.949c1.549-0.883,3.122-1.727,4.661-2.623c0.251-0.145,0.517-0.34,0.512-0.781
			c-0.03-3.027-0.016-6.056-0.013-9.084c0-0.367-0.044-0.66-0.5-0.761c-0.292-0.063-0.561-0.253-0.824-0.411
			c-0.929-0.558-1.849-1.13-2.778-1.686c-1.138-0.681-2.262-1.39-3.434-2.01c-0.493-0.26-0.996-0.752-1.64-0.461
			c-0.518,0.233-0.998,0.546-1.488,0.835c-0.902,0.531-1.794,1.083-2.701,1.607c-1.12,0.646-2.233,1.31-3.388,1.892
			c-0.698,0.352-0.745,0.878-0.727,1.541C970.635,106.232,970.608,107.546,970.606,108.857z M1032.844,93.354
			c-0.002,0-0.004,0-0.006,0c0-1.535-0.005-3.069,0.003-4.604c0.001-0.369-0.053-0.643-0.479-0.777
			c-0.322-0.102-0.597-0.349-0.896-0.524c-1.063-0.625-2.127-1.25-3.192-1.873c-0.975-0.567-1.934-1.168-2.935-1.686
			c-0.484-0.251-0.965-0.759-1.594-0.422c-0.855,0.46-1.688,0.964-2.524,1.457c-1.74,1.024-3.472,2.063-5.221,3.071
			c-0.364,0.21-0.572,0.45-0.572,0.875c0.003,2.99,0.003,5.979-0.003,8.968c-0.001,0.438,0.237,0.669,0.593,0.862
			c0.747,0.408,1.479,0.846,2.218,1.27c0.936,0.533,1.869,1.071,2.809,1.596c0.696,0.391,1.447,0.697,2.088,1.163
			c0.591,0.429,1.033,0.81,1.804,0.274c0.894-0.618,1.896-1.076,2.842-1.623c1.332-0.768,2.634-1.589,3.987-2.317
			c0.697-0.375,1.167-0.729,1.103-1.651C1032.775,96.067,1032.844,94.708,1032.844,93.354z M1041.807,77.767
			c0.002,0,0.004,0,0.006,0c0-1.493,0.019-2.987-0.015-4.482c-0.007-0.28-0.14-0.676-0.349-0.812
			c-0.989-0.644-2.021-1.221-3.045-1.812c-1.636-0.944-3.271-1.892-4.924-2.808c-0.168-0.094-0.476-0.045-0.673,0.041
			c-0.347,0.151-0.655,0.392-0.987,0.58c-1.308,0.742-2.62,1.472-3.926,2.217c-0.794,0.455-1.601,0.893-2.36,1.403
			c-0.418,0.283-1.063,0.363-1.055,1.12c0.029,2.906,0.023,5.814,0.033,8.722c0.002,0.542,0.037,0.956,0.68,1.284
			c1.604,0.816,3.119,1.804,4.679,2.708c0.69,0.4,1.456,0.692,2.088,1.169c0.7,0.529,1.326,0.893,2.123,0.249
			c0.129-0.104,0.245-0.23,0.388-0.309c0.967-0.527,1.954-1.019,2.907-1.57c1.3-0.754,2.548-1.603,3.877-2.3
			c0.464-0.242,0.552-0.508,0.552-0.923C1041.808,80.751,1041.807,79.259,1041.807,77.767z M1015.034,93.398
			c0-1.455-0.009-2.908,0.004-4.362c0.006-0.511-0.171-0.836-0.66-1.063c-0.681-0.318-1.324-0.718-1.974-1.1
			c-1.744-1.028-3.484-2.067-5.226-3.102c-0.538-0.321-1.066-0.638-1.657-0.071c-0.177,0.169-0.43,0.259-0.648,0.383
			c-0.981,0.56-1.964,1.12-2.946,1.68c-1.124,0.641-2.276,1.238-3.358,1.941c-0.359,0.235-0.988,0.231-0.979,0.967
			c0.035,3.107,0.008,6.218,0.029,9.326c0.003,0.219,0.156,0.527,0.336,0.637c1.227,0.753,2.478,1.463,3.722,2.186
			c1.173,0.682,2.355,1.351,3.519,2.05c0.923,0.557,0.999,0.58,1.953,0.062c0.13-0.072,0.229-0.202,0.357-0.276
			c0.98-0.562,1.967-1.111,2.949-1.672c1.334-0.763,2.667-1.531,4.002-2.296c0.359-0.206,0.593-0.462,0.587-0.929
			C1015.021,96.305,1015.035,94.852,1015.034,93.398z"/>
		<path fill-rule="evenodd" clip-rule="evenodd" d="M1015.411,136.16c-0.454-0.474-0.525-1.454-0.135-1.84
			c0.623-0.613,1.992-0.6,2.519,0.027c0.301,0.354,0.155,1.458-0.235,1.798c0.806,1.008,0.882,1.862,0.224,2.532
			c-0.563,0.572-1.58,0.607-2.358,0.081C1014.682,138.256,1014.677,137.557,1015.411,136.16z M1017.168,137.237
			c-0.024-0.224-0.252-0.539-0.709-0.524c-0.443,0.013-0.648,0.409-0.622,0.772c0.023,0.317,0.192,0.689,0.659,0.676
			C1016.955,138.149,1017.209,137.945,1017.168,137.237z M1016.479,135.88c0.111-0.023,0.222-0.047,0.333-0.071
			c0.021-0.271,0.082-0.547,0.035-0.804c-0.013-0.075-0.349-0.136-0.526-0.115c-0.101,0.012-0.276,0.244-0.249,0.309
			C1016.169,135.442,1016.336,135.656,1016.479,135.88z"/>
		<path fill-rule="evenodd" clip-rule="evenodd" d="M1053.441,67.651c0.034,0.787-0.155,1.471-0.782,2.017
			c-0.73,0.636-1.658,0.772-2.555,0.31c-1.306-0.678-1.623-1.526-1.374-3.034c0.134-0.812,0.521-1.325,1.174-1.704
			c1.367-0.793,3.394,0.039,3.498,1.689C1053.417,67.169,1053.428,67.41,1053.441,67.651z M1052.721,67.622
			c0.048-0.021,0.094-0.039,0.141-0.059c-0.195-0.504-0.322-1.049-0.607-1.496c-0.261-0.407-1.49-0.636-1.875-0.357
			c-0.486,0.349-1.01,0.736-0.906,1.489c0.044,0.316,0.001,0.645,0.012,0.966c0.026,0.718,0.673,1.333,1.382,1.428
			C1051.823,69.718,1052.88,68.807,1052.721,67.622z"/>
		<path fill-rule="evenodd" clip-rule="evenodd" d="M1043.442,93.702c-0.791,0-1.531-0.018-2.267,0.021
			c-0.1,0.005-0.251,0.283-0.266,0.443c-0.037,0.442,0.035,0.896-0.035,1.329c-0.036,0.226-0.278,0.417-0.427,0.626
			c-0.155-0.211-0.437-0.416-0.443-0.629c-0.041-1.291-0.043-2.584,0.002-3.873c0.008-0.235,0.293-0.461,0.449-0.689
			c0.147,0.224,0.407,0.438,0.423,0.671c0.099,1.433,0.08,1.433,1.502,1.435c0.081,0,0.162,0,0.241,0
			c0.811-0.004,0.81-0.004,0.813-0.793c0.002-0.324-0.027-0.652,0.028-0.967c0.024-0.132,0.22-0.289,0.365-0.324
			c0.075-0.018,0.302,0.2,0.303,0.313c0.022,1.474,0.026,2.948,0,4.42c-0.003,0.147-0.239,0.292-0.367,0.437
			c-0.107-0.141-0.301-0.277-0.309-0.423C1043.423,95.079,1043.442,94.454,1043.442,93.702z"/>
		<path fill-rule="evenodd" clip-rule="evenodd" d="M994.702,129.854c0.131-1.744,1.136-2.824,2.727-2.676
			c1.049,0.097,1.77,0.688,2.072,1.808c0.315,1.174,0.129,2.062-0.733,2.911c-0.901,0.89-3.16,0.688-3.648-0.651
			C994.955,130.792,994.841,130.319,994.702,129.854z M998.781,129.856c-0.01-0.221-0.017-0.441-0.031-0.663
			c-0.044-0.646-0.597-1.255-1.247-1.379c-0.652-0.125-1.368,0.263-1.69,0.83c-0.447,0.792-0.421,1.533-0.005,2.34
			c0.398,0.771,1.611,1.058,2.306,0.538C998.702,131.081,998.837,130.524,998.781,129.856z"/>
		<path fill-rule="evenodd" clip-rule="evenodd" d="M981.663,129.854c0.141,1.645-1.114,2.554-2.342,2.598
			c-1.582,0.056-2.568-1.371-2.524-2.569c0.056-1.537,0.857-2.695,2.517-2.724C980.727,127.137,981.666,128.239,981.663,129.854z
			 M980.986,129.797c-0.008-0.806-0.332-1.396-1.057-1.815c-0.812-0.47-2.12,0.109-2.196,1.045
			c-0.042,0.499-0.018,1.006-0.014,1.507c0.004,0.602,0.464,1.023,0.88,1.136c0.498,0.135,1.167,0.046,1.628-0.198
			C980.814,131.16,981.001,130.481,980.986,129.797z"/>
		<path fill-rule="evenodd" clip-rule="evenodd" d="M1001.174,127.253c0.034,0.631,0.068,1.263,0.107,1.954c0.819,0,1.61,0,2.403,0
			c0.283-0.627-0.305-1.454,0.61-2.036c0.127,0.309,0.333,0.586,0.341,0.869c0.037,1.229,0.014,2.46,0.019,3.689
			c0.003,0.324-0.012,0.639-0.434,0.65c-0.42,0.012-0.468-0.284-0.464-0.621c0.006-0.464,0.026-0.934-0.039-1.388
			c-0.021-0.156-0.271-0.381-0.437-0.397c-0.498-0.053-1.005-0.016-1.509-0.021c-0.389-0.005-0.541,0.192-0.536,0.561
			c0.004,0.484,0.019,0.971-0.022,1.451c-0.012,0.147-0.194,0.279-0.299,0.42c-0.127-0.139-0.362-0.275-0.366-0.416
			c-0.027-1.411-0.031-2.823-0.001-4.233c0.003-0.192,0.238-0.379,0.364-0.568C1001,127.194,1001.086,127.225,1001.174,127.253z"/>
		<path fill-rule="evenodd" clip-rule="evenodd" d="M1058.586,85.712c0.052-0.951,0.319-1.698,1.07-2.278
			c0.745-0.573,2.569-0.571,3.287,0.411c0.832,1.139,0.846,3.04-0.376,3.967c-1.166,0.886-2.61,0.701-3.479-0.636
			C1058.816,86.756,1058.749,86.204,1058.586,85.712z M1062.679,85.675c0-0.223,0.011-0.443-0.002-0.663
			c-0.033-0.604-0.439-1.06-0.914-1.197c-0.519-0.151-1.115-0.252-1.687,0.194c-0.748,0.586-0.63,1.333-0.651,2.095
			c-0.021,0.769,0.981,1.646,1.678,1.568C1061.914,87.582,1062.852,87.045,1062.679,85.675z"/>
		<path fill-rule="evenodd" clip-rule="evenodd" d="M972.104,127.181c0.643,0.316,0.567,0.781,0.569,1.22
			c0.005,0.865,0.006,0.874,0.838,0.86c0.5-0.008,1.142,0.129,1.457-0.125c0.274-0.22,0.175-0.899,0.251-1.373
			c0.028-0.174,0.091-0.341,0.139-0.516c0.447,0.033,0.584,0.25,0.58,0.639c-0.013,1.312-0.004,2.621-0.005,3.933
			c0,0.265,0.018,0.603-0.36,0.534c-0.146-0.025-0.311-0.344-0.338-0.547c-0.055-0.416-0.024-0.844-0.025-1.268
			c-0.001-0.396-0.184-0.596-0.592-0.586c-0.463,0.01-0.929,0.023-1.391-0.005c-0.378-0.023-0.517,0.167-0.531,0.491
			c-0.021,0.463,0.021,0.932-0.046,1.388c-0.03,0.199-0.235,0.494-0.406,0.528c-0.368,0.075-0.439-0.234-0.439-0.551
			c0.002-1.31-0.016-2.621,0.009-3.932C971.817,127.649,971.995,127.43,972.104,127.181z"/>
		<path fill-rule="evenodd" clip-rule="evenodd" d="M1065.134,85.913c0,0.688,0.024,1.292-0.015,1.891
			c-0.01,0.175-0.195,0.337-0.301,0.504c-0.126-0.158-0.356-0.314-0.359-0.475c-0.026-1.549-0.017-3.098-0.017-4.689
			c0.252,0,0.438,0,0.689,0c0,0.666,0,1.303,0,2.044c0.794,0,1.533,0.018,2.268-0.021c0.097-0.005,0.246-0.285,0.256-0.444
			c0.035-0.501,0.013-1.002,0.013-1.554c0.246-0.026,0.433-0.046,0.709-0.074c0.058,1.766,0.129,3.468-0.027,5.165
			c-0.113,0.023-0.228,0.048-0.343,0.071c-0.111-0.268-0.279-0.527-0.322-0.807c-0.081-0.525,0.098-1.24-0.188-1.542
			c-0.254-0.271-0.985-0.097-1.507-0.106C1065.733,85.87,1065.476,85.898,1065.134,85.913z"/>
		<path fill-rule="evenodd" clip-rule="evenodd" d="M1058.388,65.05c0,0.872,0.002,1.736,0,2.602c0,0.706,0.016,1.414-0.016,2.119
			c-0.008,0.154-0.182,0.301-0.277,0.452c-0.13-0.149-0.352-0.288-0.368-0.449c-0.05-0.479-0.039-0.968-0.017-1.451
			c0.021-0.405-0.098-0.589-0.542-0.566c-0.64,0.034-1.281,0.009-2.002,0.009c0,0.74,0.021,1.402-0.017,2.061
			c-0.009,0.139-0.228,0.265-0.35,0.396c-0.104-0.114-0.298-0.227-0.299-0.344c-0.02-1.611-0.014-3.223-0.014-4.823
			c0.561-0.186,0.712,0.034,0.693,0.505c-0.02,0.497-0.005,0.996-0.005,1.558c0.782,0,1.485,0.018,2.186-0.018
			c0.12-0.007,0.313-0.226,0.328-0.361c0.043-0.42,0.021-0.847,0.014-1.271C1057.696,65.069,1057.867,64.905,1058.388,65.05z"/>
		<path fill-rule="evenodd" clip-rule="evenodd" d="M1016.493,78.092c-0.79,0-1.491-0.022-2.189,0.02
			c-0.122,0.009-0.312,0.275-0.325,0.436c-0.045,0.521,0.007,1.049-0.041,1.569c-0.015,0.15-0.244,0.281-0.375,0.421
			c-0.105-0.139-0.303-0.275-0.305-0.415c-0.022-1.452-0.019-2.903-0.008-4.355c0.001-0.146,0.095-0.291,0.147-0.445
			c0.483,0.074,0.56,0.363,0.564,0.743c0.017,1.364,0.023,1.364,1.418,1.364c0.339,0,0.678,0,1.112,0
			c0-0.568-0.014-1.087,0.005-1.604c0.018-0.485,0.061-0.508,0.62-0.459c0,1.697,0,3.399,0,5.108
			c-0.424,0.16-0.628,0.045-0.625-0.405C1016.499,79.43,1016.493,78.791,1016.493,78.092z"/>
		<path fill-rule="evenodd" clip-rule="evenodd" d="M1012.179,135.601c-0.347,0.174-0.608,0.307-0.961,0.482
			c-0.062-0.59-0.268-1.027,0.473-1.224c0.318-0.085,0.529-0.531,0.824-0.769c0.149-0.121,0.388-0.213,0.562-0.184
			c0.1,0.017,0.215,0.305,0.217,0.474c0.017,1.352,0.016,2.702,0.003,4.054c-0.002,0.286,0.055,0.696-0.404,0.647
			c-0.369-0.039-0.646-0.267-0.637-0.718c0.015-0.687,0.011-1.373,0.001-2.059C1012.253,136.081,1012.208,135.858,1012.179,135.601z
			"/>
		<path fill-rule="evenodd" clip-rule="evenodd" d="M982.503,128.113c-0.391-0.659,0.232-0.758,0.507-0.926
			c1.38-0.845,2.786-1.647,4.194-2.446c0.358-0.203,0.753-0.344,1.132-0.513c0.053,0.088,0.105,0.176,0.159,0.265
			c-0.324,0.257-0.621,0.563-0.977,0.764c-1.56,0.881-3.138,1.73-4.704,2.596C982.703,127.914,982.617,128.017,982.503,128.113z"/>
		<path fill-rule="evenodd" clip-rule="evenodd" d="M987.126,122.205c0.755,0,1.511,0,2.282,0c0.085,0.403-0.043,0.579-0.45,0.563
			c-0.482-0.02-0.968,0.024-1.447-0.023c-0.18-0.019-0.343-0.212-0.513-0.326C987.041,122.348,987.083,122.275,987.126,122.205z"/>
		<path fill-rule="evenodd" clip-rule="evenodd" d="M998.438,125.79c-0.394,0.656-1.79,0.664-2.55,0
			C996.775,125.79,997.572,125.79,998.438,125.79z"/>
		<path fill-rule="evenodd" clip-rule="evenodd" d="M964.281,95.876c-0.63,0.578-1.259,1.158-1.889,1.737
			c-0.069-0.06-0.139-0.119-0.209-0.179c0.114-0.83,0.962-1.141,1.413-1.73c0.082-0.106,0.34-0.077,0.516-0.109
			C964.169,95.688,964.225,95.781,964.281,95.876z"/>
		<path fill-rule="evenodd" clip-rule="evenodd" d="M987.425,120.054c0.557,0,1.07,0,1.623,0c0.149,0.357,0.118,0.604-0.354,0.615
			c-0.28,0.006-0.562-0.012-0.839,0.004C987.425,120.699,987.34,120.479,987.425,120.054z"/>
		<path fill-rule="evenodd" clip-rule="evenodd" d="M1048.146,70.514c-0.776,0.219-0.669-0.508-0.927-0.771
			c-0.286-0.291-0.434-0.719-0.641-1.09c0.467-0.208,0.622-0.096,0.925,0.584C1047.685,69.643,1047.901,70.031,1048.146,70.514z"/>
		<path fill-rule="evenodd" clip-rule="evenodd" d="M1050.027,88.962c0.245,0.742,0.138,0.881-1.575,2.14
			c0.049-0.189,0.043-0.424,0.155-0.56C1049.029,90.032,1049.49,89.553,1050.027,88.962z"/>
		<path fill-rule="evenodd" clip-rule="evenodd" d="M1048.782,88.152c-1.363,1.268-1.363,1.268-1.681,1.188
			C1047.506,88.503,1048.23,87.965,1048.782,88.152z"/>
		<path fill-rule="evenodd" clip-rule="evenodd" d="M963.677,98.515c0.347-0.376,0.656-0.754,1.014-1.078
			c0.131-0.119,0.376-0.107,0.568-0.154c-0.055,0.157-0.072,0.346-0.173,0.466c-0.212,0.255-0.508,0.444-0.69,0.714
			C964.171,98.794,963.964,98.749,963.677,98.515z"/>
		<path fill-rule="evenodd" clip-rule="evenodd" d="M996.372,123.823c0.279-0.651,0.808-0.562,1.287-0.506
			c0.152,0.018,0.28,0.239,0.42,0.367c-0.026,0.047-0.054,0.093-0.08,0.139C997.464,123.823,996.929,123.823,996.372,123.823z"/>
		<path fill-rule="evenodd" clip-rule="evenodd" d="M1046.418,71.282c-0.831-0.083-1.255-0.84-1.022-1.727
			C1045.76,70.171,1046.057,70.67,1046.418,71.282z"/>
		<path fill-rule="evenodd" clip-rule="evenodd" d="M966.655,98.797c-0.071,0.51-0.668,1.122-1.217,1.251
			C965.369,99.482,966.067,98.765,966.655,98.797z"/>
		<path fill-rule="evenodd" clip-rule="evenodd" d="M988.255,118.707c-0.236-0.21-0.396-0.351-0.554-0.492
			c0.2-0.101,0.401-0.284,0.599-0.278c0.23,0.004,0.457,0.175,0.686,0.271C988.772,118.355,988.558,118.501,988.255,118.707z"/>
		<path fill-rule="evenodd" clip-rule="evenodd" d="M1045.912,87.909c0.042-0.62,0.612-1.225,1.326-1.168
			c-0.452,0.495-0.815,0.894-1.181,1.293C1046.01,87.993,1045.961,87.95,1045.912,87.909z"/>
		<path fill-rule="evenodd" clip-rule="evenodd" d="M1044.452,86.089c0.301-0.294,0.603-0.588,0.964-0.939
			c0.159,0.728-0.105,1.034-0.797,1.109C1044.563,86.202,1044.508,86.146,1044.452,86.089z"/>
		<path fill-rule="evenodd" clip-rule="evenodd" d="M967.968,100.647c-0.228,0.242-0.455,0.484-0.683,0.725
			c-0.06-0.01-0.119-0.02-0.179-0.029c0.021-0.189-0.026-0.438,0.077-0.553c0.159-0.176,0.421-0.262,0.639-0.387
			C967.871,100.484,967.919,100.567,967.968,100.647z"/>
		<path fill-rule="evenodd" clip-rule="evenodd" d="M988.349,116.553c-0.229-0.186-0.366-0.299-0.503-0.41
			c0.138-0.116,0.266-0.312,0.415-0.327c0.129-0.016,0.283,0.169,0.426,0.264C988.592,116.212,988.497,116.345,988.349,116.553z"/>
		<path fill-rule="evenodd" clip-rule="evenodd" d="M1043.77,72.013c-0.091-0.302-0.718-0.396-0.212-1.018
			c0.182,0.341,0.332,0.62,0.48,0.9C1043.95,71.935,1043.859,71.974,1043.77,72.013z"/>
		<path fill-rule="evenodd" clip-rule="evenodd" d="M968.469,102.43c0.195-0.192,0.392-0.383,0.667-0.65
			c0.1,0.762,0.1,0.762-0.523,0.794C968.564,102.525,968.518,102.478,968.469,102.43z"/>
		<path fill-rule="evenodd" clip-rule="evenodd" d="M1043.097,84.562c0.213-0.145,0.426-0.288,0.639-0.435
			c0.034,0.102,0.124,0.263,0.092,0.293c-0.165,0.154-0.361,0.273-0.547,0.406C1043.219,84.737,1043.158,84.649,1043.097,84.562z"/>
		<path fill-rule="evenodd" clip-rule="evenodd" fill="#FFFFFF" d="M1005.902,108.914c0,1.332-0.081,2.672,0.026,3.995
			c0.08,0.984-0.461,1.365-1.164,1.764c-1.572,0.891-3.125,1.816-4.687,2.728c-0.845,0.491-1.675,1.011-2.54,1.46
			c-0.518,0.269-0.874-0.24-1.26-0.448c-1.116-0.604-2.197-1.273-3.29-1.921c-0.748-0.444-1.491-0.893-2.238-1.335
			c-0.66-0.392-1.336-0.757-1.977-1.176c-0.162-0.107-0.307-0.38-0.308-0.575c-0.019-2.969-0.024-5.938,0.014-8.904
			c0.004-0.293,0.257-0.69,0.511-0.851c1.235-0.769,2.517-1.462,3.771-2.2c1.072-0.632,2.127-1.293,3.197-1.925
			c0.331-0.196,0.694-0.485,1.035-0.476c0.478,0.015,0.989,0.196,1.416,0.432c1.606,0.889,3.186,1.828,4.774,2.746
			c0.833,0.48,1.685,0.93,2.486,1.455c0.169,0.111,0.221,0.49,0.224,0.749c0.021,1.493,0.011,2.987,0.011,4.482H1005.902z"/>
		<path fill-rule="evenodd" clip-rule="evenodd" fill="#FFFFFF" d="M970.607,108.857c0.001-1.312,0.027-2.625-0.011-3.937
			c-0.019-0.663,0.028-1.189,0.727-1.541c1.154-0.582,2.268-1.245,3.388-1.892c0.907-0.524,1.799-1.076,2.701-1.607
			c0.49-0.289,0.971-0.602,1.488-0.835c0.644-0.291,1.146,0.201,1.64,0.461c1.172,0.62,2.296,1.329,3.434,2.01
			c0.93,0.556,1.85,1.128,2.778,1.686c0.264,0.158,0.532,0.348,0.824,0.411c0.456,0.101,0.5,0.394,0.5,0.761
			c-0.003,3.028-0.018,6.057,0.013,9.084c0.005,0.441-0.261,0.637-0.512,0.781c-1.539,0.896-3.112,1.74-4.661,2.623
			c-1.132,0.645-2.223,1.367-3.385,1.949c-0.253,0.128-0.76-0.134-1.098-0.314c-0.999-0.537-1.975-1.117-2.953-1.693
			c-0.699-0.415-1.381-0.859-2.081-1.272c-0.688-0.407-1.368-0.839-2.092-1.174c-0.502-0.232-0.72-0.523-0.709-1.078
			C970.624,111.806,970.606,110.332,970.607,108.857z"/>
		<path fill-rule="evenodd" clip-rule="evenodd" fill="#FFFFFF" d="M1032.844,93.354c0,1.354-0.068,2.713,0.023,4.059
			c0.064,0.922-0.405,1.276-1.103,1.651c-1.354,0.729-2.655,1.55-3.987,2.317c-0.945,0.547-1.948,1.005-2.842,1.623
			c-0.771,0.535-1.213,0.154-1.804-0.274c-0.641-0.466-1.392-0.772-2.088-1.163c-0.939-0.524-1.873-1.062-2.809-1.596
			c-0.739-0.424-1.471-0.861-2.218-1.27c-0.355-0.193-0.594-0.425-0.593-0.862c0.006-2.988,0.006-5.978,0.003-8.968
			c0-0.425,0.208-0.665,0.572-0.875c1.749-1.008,3.48-2.047,5.221-3.071c0.837-0.493,1.669-0.997,2.524-1.457
			c0.629-0.337,1.109,0.171,1.594,0.422c1.001,0.518,1.96,1.118,2.935,1.686c1.065,0.623,2.129,1.248,3.192,1.873
			c0.299,0.176,0.573,0.423,0.896,0.524c0.427,0.135,0.48,0.408,0.479,0.777c-0.008,1.534-0.003,3.068-0.003,4.604
			C1032.84,93.354,1032.842,93.354,1032.844,93.354z"/>
		<path fill-rule="evenodd" clip-rule="evenodd" fill="#FFFFFF" d="M1041.807,77.767c0,1.492,0.001,2.984-0.001,4.478
			c0,0.415-0.088,0.681-0.552,0.923c-1.329,0.697-2.577,1.546-3.877,2.3c-0.953,0.552-1.94,1.043-2.907,1.57
			c-0.143,0.078-0.259,0.205-0.388,0.309c-0.797,0.644-1.423,0.28-2.123-0.249c-0.632-0.477-1.397-0.769-2.088-1.169
			c-1.56-0.904-3.075-1.892-4.679-2.708c-0.643-0.328-0.678-0.742-0.68-1.284c-0.01-2.907-0.004-5.815-0.033-8.722
			c-0.009-0.757,0.637-0.837,1.055-1.12c0.76-0.511,1.566-0.948,2.36-1.403c1.306-0.745,2.618-1.475,3.926-2.217
			c0.332-0.188,0.641-0.429,0.987-0.58c0.197-0.086,0.505-0.135,0.673-0.041c1.652,0.916,3.288,1.863,4.924,2.808
			c1.023,0.592,2.056,1.169,3.045,1.812c0.209,0.136,0.342,0.531,0.349,0.812c0.033,1.495,0.015,2.989,0.015,4.482
			C1041.811,77.767,1041.809,77.767,1041.807,77.767z"/>
		<path fill-rule="evenodd" clip-rule="evenodd" fill="#FFFFFF" d="M1015.035,93.398c0,1.453-0.015,2.906,0.008,4.359
			c0.006,0.467-0.228,0.723-0.587,0.929c-1.335,0.765-2.668,1.533-4.002,2.296c-0.982,0.561-1.969,1.11-2.949,1.672
			c-0.129,0.074-0.228,0.204-0.357,0.276c-0.954,0.519-1.03,0.495-1.953-0.062c-1.163-0.699-2.346-1.368-3.519-2.05
			c-1.244-0.723-2.495-1.433-3.722-2.186c-0.18-0.109-0.333-0.418-0.336-0.637c-0.021-3.108,0.006-6.219-0.029-9.326
			c-0.009-0.735,0.62-0.731,0.979-0.967c1.082-0.703,2.234-1.301,3.358-1.941c0.982-0.56,1.965-1.12,2.946-1.68
			c0.219-0.124,0.472-0.214,0.648-0.383c0.591-0.566,1.119-0.25,1.657,0.071c1.741,1.034,3.481,2.073,5.226,3.102
			c0.649,0.382,1.293,0.781,1.974,1.1c0.489,0.228,0.666,0.553,0.66,1.063C1015.025,90.49,1015.034,91.943,1015.035,93.398z
			 M1006.514,84.864c-0.253,0.037-0.445,0.02-0.585,0.095c-0.816,0.447-1.627,0.914-2.432,1.383
			c-1.204,0.698-2.41,1.399-3.604,2.118c-0.356,0.215-0.677,0.493-1.112,0.817C999.511,89.459,1006.252,85.562,1006.514,84.864z"/>
		<path fill-rule="evenodd" clip-rule="evenodd" fill="#FFFFFF" d="M1017.168,137.237c0.041,0.708-0.213,0.912-0.672,0.924
			c-0.467,0.014-0.636-0.358-0.659-0.676c-0.026-0.363,0.179-0.76,0.622-0.772C1016.916,136.698,1017.144,137.014,1017.168,137.237z
			"/>
		<path fill-rule="evenodd" clip-rule="evenodd" fill="#FFFFFF" d="M1016.479,135.88c-0.143-0.224-0.31-0.438-0.407-0.682
			c-0.027-0.064,0.148-0.297,0.249-0.309c0.178-0.021,0.514,0.04,0.526,0.115c0.047,0.257-0.014,0.533-0.035,0.804
			C1016.7,135.833,1016.59,135.856,1016.479,135.88z"/>
		<path fill-rule="evenodd" clip-rule="evenodd" fill="#FFFFFF" d="M1052.721,67.622c0.159,1.185-0.897,2.096-1.854,1.971
			c-0.709-0.095-1.355-0.71-1.382-1.428c-0.011-0.321,0.032-0.649-0.012-0.966c-0.104-0.753,0.42-1.141,0.906-1.489
			c0.385-0.278,1.614-0.05,1.875,0.357c0.285,0.447,0.412,0.992,0.607,1.496C1052.814,67.583,1052.769,67.602,1052.721,67.622z"/>
		<path fill-rule="evenodd" clip-rule="evenodd" fill="#FFFFFF" d="M998.781,129.856c0.056,0.668-0.079,1.225-0.668,1.666
			c-0.694,0.52-1.907,0.232-2.306-0.538c-0.416-0.807-0.442-1.548,0.005-2.34c0.322-0.567,1.038-0.955,1.69-0.83
			c0.65,0.124,1.203,0.733,1.247,1.379C998.765,129.415,998.771,129.636,998.781,129.856z"/>
		<path fill-rule="evenodd" clip-rule="evenodd" fill="#FFFFFF" d="M980.986,129.797c0.015,0.685-0.172,1.363-0.759,1.674
			c-0.461,0.244-1.13,0.333-1.628,0.198c-0.416-0.112-0.876-0.534-0.88-1.136c-0.004-0.501-0.028-1.008,0.014-1.507
			c0.076-0.936,1.384-1.515,2.196-1.045C980.654,128.401,980.979,128.991,980.986,129.797z"/>
		<path fill-rule="evenodd" clip-rule="evenodd" fill="#FFFFFF" d="M1062.679,85.675c0.173,1.37-0.765,1.907-1.576,1.997
			c-0.696,0.077-1.698-0.8-1.678-1.568c0.021-0.762-0.097-1.509,0.651-2.095c0.571-0.446,1.168-0.346,1.687-0.194
			c0.475,0.138,0.881,0.594,0.914,1.197C1062.689,85.231,1062.679,85.452,1062.679,85.675z"/>
		<path fill-rule="evenodd" clip-rule="evenodd" d="M1006.514,84.864c-0.262,0.697-7.003,4.595-7.732,4.413
			c0.436-0.324,0.756-0.603,1.112-0.817c1.193-0.719,2.399-1.42,3.604-2.118c0.805-0.469,1.615-0.936,2.432-1.383
			C1006.068,84.884,1006.261,84.901,1006.514,84.864z"/>
	</g>
</g>
<g>
	<g>
		<path d="M946.644,136.998c-12.306,13.084-24.611,26.169-36.917,39.254c-0.441,0.469,0.265,1.178,0.707,0.707
			c12.306-13.084,24.611-26.169,36.917-39.254C947.792,137.236,947.086,136.527,946.644,136.998L946.644,136.998z"/>
	</g>
</g>
<g>
</g>
<g>
</g>
<g>
</g>
<g>
</g>
<g>
</g>
<g>
</g>
</svg>
