<?xml version="1.0" encoding="utf-8"?>
<!-- Generator: Adobe Illustrator 16.0.4, SVG Export Plug-In . SVG Version: 6.00 Build 0)  -->
<!DOCTYPE svg PUBLIC "-//W3C//DTD SVG 1.1//EN" "http://www.w3.org/Graphics/SVG/1.1/DTD/svg11.dtd">
<svg version="1.1" id="Layer_1" xmlns="http://www.w3.org/2000/svg" xmlns:xlink="http://www.w3.org/1999/xlink" x="0px" y="0px"
	 width="1105.594px" height="517.497px" viewBox="0 0 1105.594 517.497" enable-background="new 0 0 1105.594 517.497"
	 xml:space="preserve">
<g>
	<polygon fill="#FFFFFF" points="711.048,363.726 818.608,383.39 827.392,276.866 705.965,278.869 	"/>
	<g>
		<path fill="#FFFFFF" d="M762.207,330.294c1.113,0.521,2.158,0.978,3.176,1.488c1.81,0.91,3.592,1.874,5.408,2.769
			c0.504,0.247,0.713,0.561,0.738,1.104c0.086,1.775,0.192,3.55,0.324,5.322c0.022,0.312,0.205,0.615,0.313,0.92
			c0.072-0.019,0.144-0.036,0.216-0.055c0.007-0.252,0.03-0.507,0.017-0.759c-0.107-1.875-0.199-3.752-0.352-5.624
			c-0.037-0.462,0.188-0.697,0.466-0.93c0.223-0.186,0.5-0.303,0.745-0.46c1.266-0.813,2.538-1.617,3.792-2.448
			c1.078-0.714,2.108-1.501,3.212-2.173c0.334-0.202,0.391-0.394,0.372-0.696c-0.199-3.224-0.417-6.447-0.586-9.673
			c-0.031-0.565-0.331-0.778-0.751-0.964c-0.11-0.049-0.237-0.058-0.342-0.112c-1.349-0.696-2.688-1.411-4.042-2.09
			c-1.194-0.599-2.404-1.168-3.614-1.736c-0.429-0.198-0.562-0.503-0.58-0.974c-0.063-1.634-0.181-3.266-0.283-4.897
			c-0.013-0.226-0.054-0.449-0.083-0.675c-0.083-0.008-0.168-0.017-0.252-0.024c-0.067,0.321-0.204,0.645-0.191,0.962
			c0.069,1.574,0.163,3.146,0.28,4.719c0.04,0.553-0.227,0.857-0.654,1.123c-0.723,0.448-1.428,0.918-2.139,1.385
			c-0.681,0.447-1.359,0.899-2.038,1.352c-0.921,0.609-1.824,1.248-2.769,1.82c-0.298,0.184-0.53,0.626-1.03,0.364
			c-1.528-0.802-3.066-1.581-4.607-2.361c-0.268-0.136-0.557-0.234-0.836-0.347c-0.05,0.046-0.099,0.094-0.147,0.141
			c0.111,0.169,0.183,0.418,0.339,0.495c1.586,0.789,3.191,1.535,4.772,2.333c0.305,0.154,0.533,0.418,0.555,0.872
			c0.153,3.065,0.35,6.127,0.533,9.191C762.184,329.895,762.197,330.134,762.207,330.294z"/>
		<path fill="#FFFFFF" d="M772.313,303.809c-0.087-1.599-1.106-2.552-2.49-2.604c-1.426-0.057-2.532,1.543-2.433,2.779
			c0.119,1.467,1.21,2.516,2.516,2.554C771.233,306.575,772.595,305.071,772.313,303.809z"/>
		<path fill="#FFFFFF" d="M780.109,344.847c0.08-1.526-1.277-2.539-2.529-2.502c-1.489,0.043-2.471,1.509-2.373,2.843
			c0.104,1.42,1.333,2.534,2.639,2.475C779.235,347.599,780.197,346.391,780.109,344.847z"/>
		<path fill="#FFFFFF" d="M752.761,317.885c1.603,0.026,2.339-1.38,2.329-2.728c-0.009-1.455-1.28-2.629-2.636-2.553
			c-1.416,0.08-2.248,1.225-2.235,2.851C750.228,317.016,751.483,318.134,752.761,317.885z"/>
		<path fill="#FFFFFF" d="M779.081,303.485c0.772-0.047,1.49-0.106,2.21-0.115c0.111-0.001,0.306,0.229,0.326,0.373
			c0.068,0.479,0.034,0.973,0.12,1.443c0.039,0.206,0.278,0.377,0.426,0.562c0.101-0.19,0.287-0.381,0.286-0.569
			c-0.007-0.743-0.073-1.486-0.117-2.229c0.025-0.002,0.052-0.002,0.078-0.004c0.045,0.741,0.089,1.481,0.133,2.224
			c0.021-0.003,0.043-0.005,0.065-0.005c-0.083-1.37-0.165-2.737-0.247-4.106c-0.025,0.001-0.049,0.003-0.073,0.005
			c0.021,0.345,0.041,0.692,0.062,1.039c-0.089-0.339-0.072-0.688-0.145-1.018c-0.043-0.194-0.227-0.356-0.346-0.534
			c-0.127,0.204-0.333,0.397-0.361,0.615c-0.047,0.354,0.012,0.724,0.047,1.085c0.031,0.31-0.082,0.439-0.399,0.448
			c-0.543,0.014-1.089,0.049-1.632,0.093c-0.37,0.03-0.504-0.128-0.505-0.486c-0.002-0.385-0.015-0.773-0.087-1.146
			c-0.03-0.159-0.229-0.285-0.353-0.427c-0.103,0.161-0.3,0.325-0.293,0.481c0.062,1.432,0.147,2.861,0.26,4.291
			c0.012,0.154,0.233,0.293,0.356,0.439c0.104-0.16,0.29-0.321,0.291-0.481C779.186,304.842,779.125,304.22,779.081,303.485z"/>
		<path fill="#FFFFFF" d="M787.951,347.03c0.081-0.242,0.193-0.408,0.185-0.569c-0.072-1.408-0.154-2.816-0.269-4.222
			c-0.012-0.148-0.249-0.279-0.381-0.418c-0.113,0.176-0.314,0.346-0.321,0.521c-0.017,0.514,0.045,1.028,0.076,1.548
			c-0.89,0.054-1.681,0.101-2.55,0.152c-0.041-0.705-0.081-1.358-0.123-2.051c-0.249,0.027-0.42,0.046-0.665,0.075
			c0.09,1.516,0.177,3.001,0.272,4.484c0.017,0.268-0.024,0.658,0.391,0.582c0.133-0.021,0.27-0.423,0.273-0.653
			c0.015-0.553-0.051-1.106-0.085-1.691c0.882-0.052,1.658-0.099,2.419-0.145C787.612,345.366,786.947,346.414,787.951,347.03z"/>
		<path fill="#FFFFFF" d="M740.315,315.475c-0.749,0.046-1.411,0.069-2.067,0.131c-0.381,0.035-0.503-0.128-0.512-0.476
			c-0.009-0.385-0.015-0.772-0.092-1.145c-0.028-0.143-0.252-0.242-0.389-0.362c-0.088,0.138-0.257,0.279-0.251,0.414
			c0.068,1.45,0.156,2.901,0.268,4.351c0.01,0.128,0.225,0.242,0.345,0.362c0.103-0.139,0.288-0.275,0.292-0.418
			c0.012-0.501-0.064-1.007-0.05-1.511c0.005-0.174,0.152-0.483,0.263-0.495c0.712-0.087,1.431-0.109,2.221-0.156
			c0.051,0.837,0.096,1.593,0.143,2.373c0.262-0.016,0.448-0.027,0.69-0.041c-0.097-1.61-0.184-3.177-0.297-4.743
			c-0.01-0.125-0.204-0.238-0.313-0.355c-0.117,0.131-0.331,0.262-0.334,0.396C740.221,314.32,740.278,314.844,740.315,315.475z"/>
		<path fill="#FFFFFF" d="M749.138,314.556c0.057-0.082,0.112-0.163,0.169-0.244c-0.172-0.273-0.294-0.598-0.521-0.809
			c-0.811-0.757-2.022-0.779-2.87-0.1c-1.077,0.863-1.294,2.911-0.412,4.025c0.687,0.866,1.626,0.871,2.599,0.711
			c0.757-0.125,1.062-0.766,1.406-1.323c0.183-0.299-0.033-0.537-0.357-0.469c-0.194,0.041-0.407,0.245-0.509,0.433
			c-0.46,0.838-1.541,1.096-2.225,0.438c-0.252-0.243-0.289-0.692-0.483-1.011c-0.494-0.812-0.114-1.535,0.337-2.119
			c0.646-0.837,1.777-0.643,2.222,0.185C748.58,314.437,748.916,314.465,749.138,314.556z"/>
		<path fill="#FFFFFF" d="M777.789,304.519c-0.627-0.251-0.975-0.41-1.163,0.289c-0.116,0.433-0.555,0.676-1.071,0.719
			c-0.572,0.049-1.077-0.094-1.358-0.565c-0.448-0.755-0.665-1.541-0.253-2.45c0.253-0.561,0.568-0.863,1.154-0.932
			c0.639-0.078,1.19-0.007,1.474,0.697c0.043,0.107,0.272,0.205,0.407,0.193c0.086-0.005,0.231-0.227,0.219-0.337
			c-0.021-0.202-0.093-0.434-0.225-0.583c-0.646-0.734-1.499-0.77-2.365-0.574c-0.738,0.167-1.582,1.166-1.565,1.865
			c0.019,0.804-0.045,1.605,0.433,2.371c0.606,0.97,2.055,1.281,2.912,0.732C776.906,305.611,777.281,305.051,777.789,304.519z"/>
		<path fill="#FFFFFF" d="M773.823,344.294c0.396-0.131,0.691-0.298,0.458-0.74c-0.438-0.828-2.275-1.168-3.057-0.621
			c-0.966,0.677-1.203,1.598-1.062,2.699c0.085,0.658,0.197,1.312,0.739,1.745c1.107,0.883,2.533,0.896,3.408-0.466
			c0.388-0.605,0.35-0.757-0.381-0.94c-0.028,0.071-0.063,0.143-0.086,0.219c-0.174,0.563-0.54,0.979-1.103,1.092
			c-0.617,0.124-1.214-0.076-1.489-0.677c-0.215-0.472-0.326-1.012-0.383-1.531c-0.077-0.73,0.377-1.552,0.905-1.638
			C772.919,343.247,773.163,343.158,773.823,344.294z"/>
		<path fill="#FFFFFF" d="M775.063,362.756c-0.057,0.556-0.057,0.556,0.363,0.612c0.953,0.128,1.823-0.343,2.174-1.18
			c0.421-0.998,0.195-2.318-0.488-2.862c-0.546-0.437-1.46-0.406-1.956,0.062c-0.481,0.454-0.577,1.365-0.199,1.898
			c0.384,0.54,1.003,0.625,1.782,0.249c0.048-0.021,0.106-0.021,0.163-0.033C776.893,362.518,776.372,362.868,775.063,362.756z"/>
		<path fill="#FFFFFF" d="M774.246,362.786c-0.269-0.004-0.502-0.009-0.808-0.015c-0.07-1.172-0.139-2.306-0.208-3.468
			c-0.883,0-1.346,0.632-2.009,0.979c0.131,0.184,0.229,0.323,0.34,0.481c0.289-0.199,0.546-0.375,0.856-0.59
			c0.056,0.924,0.106,1.775,0.157,2.621c-0.751,0.166-0.751,0.166-0.624,0.649c0.776-0.047,1.553-0.093,2.363-0.142
			C774.289,363.106,774.269,362.957,774.246,362.786z"/>
		<path fill="#FFFFFF" d="M781.798,348.355c0.394-0.489,0.708-0.909,1.052-1.306c0.703-0.816,0.604-1.477-0.323-2.006
			c-0.354-0.203-1.149-0.041-1.459,0.401c-0.149,0.214-0.083,0.577-0.112,0.872c0.062,0.004,0.12,0.01,0.182,0.016
			c0.134-0.168,0.236-0.43,0.408-0.488c0.328-0.113,0.695-0.111,1.047-0.16c-0.011,0.301,0.066,0.644-0.052,0.89
			c-0.157,0.325-0.477,0.567-0.713,0.855c-0.351,0.427-0.689,0.862-1.115,1.398c1.042-0.062,1.874-0.112,2.708-0.162
			c0-0.068,0.002-0.139,0.002-0.209C782.94,348.427,782.46,348.396,781.798,348.355z"/>
		<path fill="#FFFFFF" d="M744.009,317.868c0.373-0.499,0.371-0.924-0.005-1.289c-0.377-0.365-1.259-0.441-1.646-0.104
			c-0.294,0.259-0.264,0.575-0.08,0.866c0.173-0.156,0.33-0.278,0.462-0.422c0.394-0.424,0.819-0.357,0.911,0.142
			c0.099,0.544-0.304,0.688-0.805,0.886c0.338,0.155,0.596,0.217,0.768,0.371c0.187,0.166,0.422,0.437,0.4,0.637
			c-0.024,0.212-0.308,0.524-0.509,0.553c-0.261,0.035-0.562-0.155-0.826-0.284c-0.105-0.051-0.168-0.193-0.276-0.328
			c-0.247,0.428-0.189,0.766,0.166,0.979c0.614,0.369,1.399,0.254,1.768-0.213C744.768,319.114,744.647,318.457,744.009,317.868z"/>
		<path fill="#FFFFFF" d="M783.674,306.069c-0.063,0.038-0.129,0.076-0.192,0.112c0.101,0.215,0.171,0.454,0.308,0.642
			c0.372,0.515,0.905,0.311,1.378,0.234c0.698-0.113,1.033-1.08,0.632-1.668c-0.14-0.206-0.251-0.484-0.245-0.727
			c0.026-0.881-0.052-1.043-0.791-1.374c-0.472-0.211-0.753,0.154-1.043,0.379c-0.173,0.134-0.217,0.434-0.317,0.658
			c0.071,0.044,0.142,0.088,0.213,0.132c0.158-0.154,0.292-0.389,0.48-0.443c0.273-0.08,0.639-0.135,0.867-0.015
			c0.315,0.167,0.224,0.452-0.075,0.657c-0.218,0.148-0.408,0.332-0.618,0.508c0.957,0.312,1.306,0.688,0.984,1.199
			C784.593,307.421,784.197,306.235,783.674,306.069z"/>
		<path fill-rule="evenodd" clip-rule="evenodd" d="M762.207,330.294c-0.01-0.16-0.023-0.399-0.038-0.638
			c-0.184-3.064-0.38-6.126-0.533-9.191c-0.021-0.454-0.25-0.718-0.555-0.872c-1.581-0.798-3.187-1.544-4.772-2.333
			c-0.156-0.077-0.228-0.326-0.339-0.495c0.049-0.047,0.098-0.095,0.147-0.141c0.279,0.112,0.568,0.211,0.836,0.347
			c1.541,0.78,3.079,1.56,4.607,2.361c0.5,0.262,0.732-0.181,1.03-0.364c0.944-0.572,1.848-1.211,2.769-1.82
			c0.679-0.452,1.357-0.904,2.038-1.352c0.711-0.467,1.416-0.937,2.139-1.385c0.428-0.266,0.694-0.57,0.654-1.123
			c-0.117-1.572-0.211-3.145-0.28-4.719c-0.013-0.317,0.124-0.641,0.191-0.962c0.084,0.008,0.169,0.017,0.252,0.024
			c0.029,0.226,0.07,0.449,0.083,0.675c0.103,1.632,0.22,3.264,0.283,4.897c0.019,0.471,0.151,0.775,0.58,0.974
			c1.21,0.568,2.42,1.138,3.614,1.736c1.354,0.679,2.693,1.394,4.042,2.09c0.104,0.055,0.231,0.063,0.342,0.112
			c0.42,0.186,0.72,0.398,0.751,0.964c0.169,3.226,0.387,6.449,0.586,9.673c0.019,0.303-0.038,0.494-0.372,0.696
			c-1.104,0.672-2.134,1.459-3.212,2.173c-1.254,0.831-2.526,1.635-3.792,2.448c-0.245,0.157-0.522,0.274-0.745,0.46
			c-0.278,0.232-0.503,0.468-0.466,0.93c0.152,1.872,0.244,3.749,0.352,5.624c0.014,0.252-0.01,0.507-0.017,0.759
			c-0.072,0.019-0.144,0.036-0.216,0.055c-0.108-0.305-0.291-0.607-0.313-0.92c-0.132-1.772-0.238-3.547-0.324-5.322
			c-0.025-0.544-0.234-0.857-0.738-1.104c-1.816-0.895-3.599-1.858-5.408-2.769C764.365,331.271,763.32,330.814,762.207,330.294z
			 M779.92,323.868c-0.091-1.512-0.174-3.024-0.282-4.535c-0.013-0.182-0.113-0.441-0.255-0.519c-1.413-0.767-2.84-1.514-4.271-2.25
			c-1.21-0.622-2.427-1.233-3.651-1.826c-0.319-0.155-0.737-0.39-1.009-0.294c-0.498,0.176-0.921,0.566-1.374,0.868
			c-0.665,0.442-1.329,0.888-1.995,1.329c-0.703,0.463-1.41,0.918-2.11,1.382c-0.681,0.45-1.332,0.952-2.041,1.351
			c-0.459,0.26-0.71,0.519-0.673,1.086c0.201,2.982,0.387,5.965,0.53,8.95c0.025,0.538,0.306,0.759,0.699,0.946
			c1.205,0.575,2.431,1.117,3.623,1.718c1.337,0.676,2.637,1.427,3.983,2.081c0.234,0.113,0.554,0.338,0.932,0.089
			c1.094-0.724,2.233-1.38,3.335-2.092c1.38-0.894,2.738-1.815,4.104-2.73c0.512-0.343,0.812-0.726,0.726-1.444
			C780.026,326.616,780.002,325.239,779.92,323.868z"/>
		<path fill-rule="evenodd" clip-rule="evenodd" d="M772.313,303.809c0.281,1.263-1.08,2.767-2.407,2.729
			c-1.306-0.038-2.396-1.087-2.516-2.554c-0.1-1.236,1.007-2.836,2.433-2.779C771.207,301.257,772.227,302.21,772.313,303.809z
			 M769.967,305.848c0.959,0.114,1.697-1.155,1.625-2.03c-0.084-1.019-0.773-2.008-1.823-1.938
			c-1.134,0.076-1.634,1.035-1.594,2.104C768.211,304.951,768.909,305.997,769.967,305.848z"/>
		<path fill-rule="evenodd" clip-rule="evenodd" d="M780.109,344.847c0.088,1.544-0.874,2.752-2.264,2.815
			c-1.306,0.06-2.535-1.055-2.639-2.475c-0.098-1.334,0.884-2.8,2.373-2.843C778.832,342.308,780.189,343.32,780.109,344.847z
			 M777.543,342.957c-0.275,0.13-0.551,0.255-0.823,0.39c-0.811,0.402-0.583,1.225-0.682,1.868c-0.14,0.915,0.919,1.866,1.85,1.775
			c0.859-0.085,1.195-0.747,1.478-1.425C779.826,344.47,778.75,342.962,777.543,342.957z"/>
		<path fill-rule="evenodd" clip-rule="evenodd" d="M752.761,317.885c-1.277,0.249-2.533-0.869-2.542-2.43
			c-0.013-1.626,0.819-2.771,2.235-2.851c1.355-0.076,2.627,1.098,2.636,2.553C755.1,316.505,754.363,317.911,752.761,317.885z
			 M754.229,315.215c-0.038-0.278-0.054-0.563-0.116-0.836c-0.154-0.68-0.737-0.896-1.288-1.093
			c-0.404-0.141-1.356,0.266-1.545,0.588c-0.468,0.803-0.539,2.033,0.107,2.848c0.471,0.594,1.663,0.668,2.255,0.192
			C754.228,316.443,754.288,315.868,754.229,315.215z"/>
		<path fill-rule="evenodd" clip-rule="evenodd" d="M779.081,303.485c0.044,0.734,0.104,1.356,0.103,1.978
			c-0.001,0.16-0.188,0.321-0.291,0.481c-0.123-0.146-0.345-0.285-0.356-0.439c-0.112-1.43-0.198-2.859-0.26-4.291
			c-0.007-0.156,0.19-0.32,0.293-0.481c0.123,0.142,0.322,0.268,0.353,0.427c0.072,0.373,0.085,0.762,0.087,1.146
			c0.001,0.358,0.135,0.517,0.505,0.486c0.543-0.044,1.089-0.079,1.632-0.093c0.317-0.009,0.431-0.139,0.399-0.448
			c-0.035-0.361-0.094-0.731-0.047-1.085c0.028-0.218,0.234-0.411,0.361-0.615c0.119,0.178,0.303,0.34,0.346,0.534
			c0.072,0.329,0.056,0.679,0.145,1.018c-0.021-0.347-0.041-0.694-0.062-1.039c0.024-0.002,0.048-0.004,0.073-0.005
			c0.082,1.369,0.164,2.736,0.247,4.106c-0.022,0-0.044,0.002-0.065,0.005c-0.044-0.742-0.088-1.482-0.133-2.224
			c-0.026,0.002-0.053,0.002-0.078,0.004c0.044,0.742,0.11,1.485,0.117,2.229c0.001,0.188-0.186,0.379-0.286,0.569
			c-0.147-0.185-0.387-0.355-0.426-0.562c-0.086-0.471-0.052-0.965-0.12-1.443c-0.021-0.144-0.215-0.374-0.326-0.373
			C780.571,303.379,779.854,303.438,779.081,303.485z"/>
		<path fill-rule="evenodd" clip-rule="evenodd" d="M787.951,347.03c-1.004-0.616-0.339-1.664-0.777-2.386
			c-0.761,0.046-1.537,0.093-2.419,0.145c0.034,0.585,0.1,1.139,0.085,1.691c-0.004,0.23-0.141,0.632-0.273,0.653
			c-0.415,0.076-0.374-0.314-0.391-0.582c-0.096-1.483-0.183-2.969-0.272-4.484c0.245-0.029,0.416-0.048,0.665-0.075
			c0.042,0.692,0.082,1.346,0.123,2.051c0.869-0.052,1.66-0.099,2.55-0.152c-0.031-0.52-0.093-1.034-0.076-1.548
			c0.007-0.176,0.208-0.346,0.321-0.521c0.132,0.139,0.369,0.27,0.381,0.418c0.114,1.405,0.196,2.813,0.269,4.222
			C788.145,346.622,788.032,346.788,787.951,347.03z"/>
		<path fill-rule="evenodd" clip-rule="evenodd" d="M740.315,315.475c-0.037-0.631-0.095-1.154-0.084-1.676
			c0.003-0.134,0.217-0.265,0.334-0.396c0.109,0.117,0.304,0.23,0.313,0.355c0.113,1.566,0.2,3.133,0.297,4.743
			c-0.242,0.014-0.429,0.025-0.69,0.041c-0.047-0.78-0.092-1.536-0.143-2.373c-0.79,0.047-1.509,0.069-2.221,0.156
			c-0.11,0.012-0.258,0.321-0.263,0.495c-0.015,0.504,0.062,1.01,0.05,1.511c-0.004,0.143-0.189,0.279-0.292,0.418
			c-0.12-0.12-0.335-0.234-0.345-0.362c-0.111-1.449-0.199-2.9-0.268-4.351c-0.006-0.135,0.163-0.276,0.251-0.414
			c0.137,0.12,0.36,0.22,0.389,0.362c0.077,0.372,0.083,0.76,0.092,1.145c0.009,0.348,0.131,0.511,0.512,0.476
			C738.904,315.544,739.566,315.521,740.315,315.475z"/>
		<path fill-rule="evenodd" clip-rule="evenodd" d="M749.138,314.556c-0.222-0.091-0.558-0.119-0.645-0.282
			c-0.444-0.827-1.576-1.021-2.222-0.185c-0.451,0.584-0.831,1.308-0.337,2.119c0.194,0.318,0.231,0.768,0.483,1.011
			c0.684,0.657,1.765,0.399,2.225-0.438c0.102-0.188,0.314-0.392,0.509-0.433c0.324-0.068,0.54,0.17,0.357,0.469
			c-0.344,0.558-0.649,1.198-1.406,1.323c-0.973,0.16-1.912,0.155-2.599-0.711c-0.882-1.114-0.665-3.162,0.412-4.025
			c0.848-0.68,2.06-0.657,2.87,0.1c0.227,0.211,0.349,0.535,0.521,0.809C749.25,314.393,749.194,314.474,749.138,314.556z"/>
		<path fill-rule="evenodd" clip-rule="evenodd" d="M777.789,304.519c-0.508,0.532-0.883,1.093-1.402,1.426
			c-0.857,0.549-2.306,0.237-2.912-0.732c-0.478-0.766-0.414-1.567-0.433-2.371c-0.017-0.699,0.827-1.698,1.565-1.865
			c0.866-0.195,1.719-0.16,2.365,0.574c0.132,0.149,0.204,0.381,0.225,0.583c0.013,0.11-0.133,0.332-0.219,0.337
			c-0.135,0.012-0.364-0.086-0.407-0.193c-0.283-0.704-0.835-0.775-1.474-0.697c-0.586,0.068-0.901,0.371-1.154,0.932
			c-0.412,0.909-0.195,1.695,0.253,2.45c0.281,0.472,0.786,0.614,1.358,0.565c0.517-0.043,0.955-0.286,1.071-0.719
			C776.814,304.108,777.162,304.268,777.789,304.519z"/>
		<path fill-rule="evenodd" clip-rule="evenodd" d="M773.823,344.294c-0.66-1.136-0.904-1.047-2.049-0.858
			c-0.528,0.086-0.982,0.907-0.905,1.638c0.057,0.52,0.168,1.06,0.383,1.531c0.275,0.601,0.872,0.801,1.489,0.677
			c0.562-0.112,0.929-0.528,1.103-1.092c0.022-0.076,0.058-0.147,0.086-0.219c0.73,0.184,0.769,0.335,0.381,0.94
			c-0.875,1.361-2.301,1.349-3.408,0.466c-0.542-0.433-0.654-1.087-0.739-1.745c-0.142-1.102,0.096-2.022,1.062-2.699
			c0.781-0.547,2.619-0.207,3.057,0.621C774.515,343.996,774.219,344.163,773.823,344.294z"/>
		<path fill-rule="evenodd" clip-rule="evenodd" d="M775.063,362.756c1.309,0.112,1.829-0.238,1.839-1.253
			c-0.057,0.012-0.115,0.012-0.163,0.033c-0.779,0.376-1.398,0.291-1.782-0.249c-0.378-0.533-0.282-1.444,0.199-1.898
			c0.496-0.469,1.41-0.499,1.956-0.062c0.684,0.544,0.909,1.864,0.488,2.862c-0.351,0.837-1.221,1.308-2.174,1.18
			C775.007,363.312,775.007,363.312,775.063,362.756z M776.927,360.515c-0.048-0.511-0.416-0.908-0.834-0.854
			c-0.466,0.058-0.628,0.377-0.602,0.812c0.027,0.453,0.368,0.757,0.801,0.68C776.635,361.092,776.964,360.975,776.927,360.515z"/>
		<path fill-rule="evenodd" clip-rule="evenodd" d="M774.246,362.786c0.022,0.171,0.043,0.32,0.068,0.518
			c-0.811,0.049-1.587,0.095-2.363,0.142c-0.127-0.483-0.127-0.483,0.624-0.649c-0.051-0.846-0.102-1.697-0.157-2.621
			c-0.311,0.215-0.567,0.391-0.856,0.59c-0.111-0.158-0.209-0.298-0.34-0.481c0.663-0.348,1.126-0.979,2.009-0.979
			c0.069,1.162,0.138,2.296,0.208,3.468C773.744,362.777,773.978,362.782,774.246,362.786z"/>
		<path fill-rule="evenodd" clip-rule="evenodd" d="M781.798,348.355c0.662,0.04,1.143,0.071,1.624,0.102
			c0,0.07-0.002,0.141-0.002,0.209c-0.834,0.05-1.666,0.1-2.708,0.162c0.426-0.536,0.765-0.972,1.115-1.398
			c0.236-0.288,0.556-0.53,0.713-0.855c0.118-0.246,0.041-0.589,0.052-0.89c-0.352,0.049-0.719,0.047-1.047,0.16
			c-0.172,0.059-0.274,0.32-0.408,0.488c-0.062-0.006-0.12-0.012-0.182-0.016c0.029-0.295-0.037-0.658,0.112-0.872
			c0.31-0.442,1.104-0.604,1.459-0.401c0.928,0.529,1.026,1.189,0.323,2.006C782.506,347.446,782.191,347.866,781.798,348.355z"/>
		<path fill-rule="evenodd" clip-rule="evenodd" d="M744.009,317.868c0.639,0.589,0.759,1.246,0.327,1.793
			c-0.368,0.467-1.153,0.582-1.768,0.213c-0.355-0.213-0.413-0.551-0.166-0.979c0.108,0.135,0.171,0.277,0.276,0.328
			c0.265,0.129,0.565,0.319,0.826,0.284c0.201-0.028,0.484-0.341,0.509-0.553c0.021-0.2-0.214-0.471-0.4-0.637
			c-0.172-0.154-0.43-0.216-0.768-0.371c0.501-0.197,0.903-0.342,0.805-0.886c-0.092-0.499-0.518-0.565-0.911-0.142
			c-0.132,0.144-0.289,0.266-0.462,0.422c-0.184-0.291-0.214-0.607,0.08-0.866c0.388-0.338,1.27-0.262,1.646,0.104
			C744.38,316.944,744.382,317.369,744.009,317.868z"/>
		<path fill-rule="evenodd" clip-rule="evenodd" d="M783.674,306.069c0.523,0.166,0.919,1.352,1.58,0.295
			c0.321-0.512-0.027-0.887-0.984-1.199c0.21-0.176,0.4-0.359,0.618-0.508c0.299-0.205,0.391-0.49,0.075-0.657
			c-0.229-0.12-0.594-0.065-0.867,0.015c-0.188,0.055-0.322,0.289-0.48,0.443c-0.071-0.044-0.142-0.088-0.213-0.132
			c0.101-0.225,0.145-0.524,0.317-0.658c0.29-0.225,0.571-0.59,1.043-0.379c0.739,0.331,0.817,0.493,0.791,1.374
			c-0.006,0.242,0.105,0.521,0.245,0.727c0.401,0.588,0.066,1.555-0.632,1.668c-0.473,0.076-1.006,0.28-1.378-0.234
			c-0.137-0.188-0.207-0.427-0.308-0.642C783.545,306.146,783.61,306.107,783.674,306.069z"/>
		<path fill-rule="evenodd" clip-rule="evenodd" fill="#FFFFFF" d="M779.92,323.868c0.082,1.371,0.106,2.748,0.271,4.109
			c0.087,0.719-0.214,1.102-0.726,1.444c-1.366,0.915-2.725,1.837-4.104,2.73c-1.102,0.712-2.241,1.368-3.335,2.092
			c-0.378,0.249-0.697,0.024-0.932-0.089c-1.347-0.654-2.646-1.405-3.983-2.081c-1.192-0.601-2.418-1.143-3.623-1.718
			c-0.394-0.188-0.674-0.408-0.699-0.946c-0.144-2.985-0.329-5.968-0.53-8.95c-0.037-0.567,0.214-0.826,0.673-1.086
			c0.709-0.398,1.36-0.9,2.041-1.351c0.7-0.464,1.407-0.919,2.11-1.382c0.666-0.441,1.33-0.887,1.995-1.329
			c0.453-0.302,0.876-0.692,1.374-0.868c0.271-0.096,0.689,0.139,1.009,0.294c1.225,0.593,2.441,1.204,3.651,1.826
			c1.432,0.736,2.858,1.483,4.271,2.25c0.142,0.077,0.242,0.337,0.255,0.519C779.746,320.844,779.829,322.356,779.92,323.868z
			 M763.989,320.466c-0.472,0.193-0.519,0.512-0.494,0.895c0.146,2.333,0.271,4.668,0.438,6.999
			c0.019,0.278,0.245,0.543,0.377,0.813c0.065-0.029,0.131-0.058,0.196-0.087C764.335,326.231,764.164,323.374,763.989,320.466z
			 M778.604,327.729c-2.462,1.595-4.87,3.135-7.157,4.891c0.248,0.086,0.488,0.127,0.643,0.03c0.829-0.508,1.642-1.042,2.449-1.581
			c1.128-0.752,2.277-1.479,3.351-2.303C778.171,328.551,778.936,328.55,778.604,327.729z M770.536,316.142
			c-0.006,0.072-0.011,0.147-0.017,0.222c0.839,0.442,1.673,0.896,2.517,1.327c1.015,0.518,2.034,1.028,3.061,1.519
			c0.598,0.286,1.213,0.535,1.828,0.782c0.068,0.027,0.187-0.068,0.281-0.108c-0.049-0.089-0.073-0.222-0.146-0.261
			c-0.642-0.336-1.292-0.654-1.937-0.983c-0.76-0.384-1.513-0.782-2.273-1.163c-0.919-0.462-1.837-0.924-2.768-1.356
			C770.936,316.052,770.721,316.13,770.536,316.142z"/>
		<path fill-rule="evenodd" clip-rule="evenodd" fill="#FFFFFF" d="M769.967,305.848c-1.058,0.149-1.756-0.896-1.792-1.863
			c-0.04-1.069,0.46-2.028,1.594-2.104c1.05-0.07,1.739,0.919,1.823,1.938C771.664,304.692,770.926,305.962,769.967,305.848z"/>
		<path fill-rule="evenodd" clip-rule="evenodd" fill="#FFFFFF" d="M777.543,342.957c1.207,0.005,2.283,1.513,1.822,2.608
			c-0.282,0.678-0.618,1.34-1.478,1.425c-0.931,0.091-1.989-0.86-1.85-1.775c0.099-0.644-0.129-1.466,0.682-1.868
			C776.992,343.212,777.268,343.087,777.543,342.957z"/>
		<path fill-rule="evenodd" clip-rule="evenodd" fill="#FFFFFF" d="M754.229,315.215c0.059,0.653-0.002,1.229-0.587,1.699
			c-0.592,0.476-1.784,0.401-2.255-0.192c-0.646-0.814-0.575-2.045-0.107-2.848c0.188-0.322,1.141-0.729,1.545-0.588
			c0.551,0.197,1.134,0.413,1.288,1.093C754.176,314.651,754.191,314.937,754.229,315.215z"/>
		<path fill-rule="evenodd" clip-rule="evenodd" fill="#FFFFFF" d="M776.927,360.515c0.037,0.46-0.292,0.577-0.635,0.638
			c-0.433,0.077-0.773-0.227-0.801-0.68c-0.026-0.436,0.136-0.755,0.602-0.812C776.511,359.606,776.879,360.004,776.927,360.515z"/>
		<path fill-rule="evenodd" clip-rule="evenodd" d="M763.989,320.466c0.175,2.908,0.346,5.766,0.517,8.62
			c-0.065,0.029-0.131,0.058-0.196,0.087c-0.132-0.271-0.358-0.535-0.377-0.813c-0.167-2.331-0.292-4.666-0.438-6.999
			C763.471,320.978,763.518,320.659,763.989,320.466z"/>
		<path fill-rule="evenodd" clip-rule="evenodd" d="M778.604,327.729c0.332,0.82-0.433,0.821-0.715,1.037
			c-1.073,0.824-2.223,1.551-3.351,2.303c-0.808,0.539-1.62,1.073-2.449,1.581c-0.154,0.097-0.395,0.056-0.643-0.03
			C773.733,330.864,776.142,329.324,778.604,327.729z"/>
		<path fill-rule="evenodd" clip-rule="evenodd" d="M770.536,316.142c0.185-0.012,0.399-0.09,0.546-0.022
			c0.931,0.433,1.849,0.895,2.768,1.356c0.761,0.381,1.514,0.779,2.273,1.163c0.645,0.329,1.295,0.647,1.937,0.983
			c0.073,0.039,0.098,0.172,0.146,0.261c-0.095,0.04-0.213,0.136-0.281,0.108c-0.615-0.247-1.23-0.496-1.828-0.782
			c-1.026-0.49-2.046-1.001-3.061-1.519c-0.844-0.431-1.678-0.885-2.517-1.327C770.525,316.289,770.53,316.214,770.536,316.142z"/>
	</g>
</g>
<g>
	<g>
		<path d="M808.188,362.755c12.306,13.085,24.611,26.169,36.917,39.254c0.442,0.471,1.148-0.238,0.707-0.707
			c-12.306-13.085-24.611-26.169-36.917-39.254C808.453,361.577,807.747,362.286,808.188,362.755L808.188,362.755z"/>
	</g>
</g>
<g>
</g>
<g>
</g>
<g>
</g>
<g>
</g>
<g>
</g>
<g>
</g>
</svg>
