<?xml version="1.0" encoding="utf-8"?>
<!-- Generator: Adobe Illustrator 16.0.4, SVG Export Plug-In . SVG Version: 6.00 Build 0)  -->
<!DOCTYPE svg PUBLIC "-//W3C//DTD SVG 1.1//EN" "http://www.w3.org/Graphics/SVG/1.1/DTD/svg11.dtd">
<svg version="1.1" id="Layer_1" xmlns="http://www.w3.org/2000/svg" xmlns:xlink="http://www.w3.org/1999/xlink" x="0px" y="0px"
	 width="1105.594px" height="517.497px" viewBox="0 0 1105.594 517.497" enable-background="new 0 0 1105.594 517.497"
	 xml:space="preserve">
<path fill="#FFFFFF" d="M981.285,365.348c0.347,0.037,0.682,0.21,0.685-0.291c0.009-1.341,0.014-2.682-0.008-4.023
	c-0.002-0.116-0.213-0.23-0.327-0.346c-0.115,0.116-0.311,0.219-0.33,0.35c-0.049,0.318-0.028,0.649-0.014,0.975
	c0.015,0.309-0.092,0.465-0.422,0.457c-0.517-0.011-1.034-0.012-1.552,0c-0.359,0.008-0.462-0.17-0.448-0.5
	c0.017-0.414,0.004-0.83,0.004-1.225c-0.494-0.155-0.632,0.007-0.628,0.418c0.014,1.264,0.015,2.529,0,3.793
	c-0.005,0.46,0.206,0.509,0.598,0.381c0.01-0.173,0.024-0.341,0.028-0.51c0.045-1.957-0.401-1.663,1.899-1.677
	c0.354-0.002,0.521,0.179,0.517,0.536C981.28,364.22,981.285,364.755,981.285,365.348z"/>
<g>
	<polygon fill="#FFFFFF" points="1063.929,366.267 892.918,377.796 909.315,275.948 1063.954,250.417 	"/>
	<g>
		<path fill="#FFFFFF" d="M1001.819,320.064c0.008-0.068,0.017-0.136,0.022-0.204c0.137-0.062,0.28-0.111,0.407-0.188
			c1.119-0.672,2.231-1.358,3.356-2.021c1.199-0.706,2.405-1.402,3.621-2.08c0.312-0.174,0.765-0.453,0.999-0.346
			c0.905,0.413,1.753,0.96,2.617,1.465c1.122,0.656,2.237,1.324,3.36,1.981c0.968,0.567,1.94,1.126,2.906,1.687
			c0.111-0.097,0.204-0.205,0.32-0.273c1.084-0.614,2.176-1.215,3.258-1.832c1.648-0.939,3.298-1.877,4.931-2.844
			c0.351-0.207,0.615-0.468,0.607-1.006c-0.044-2.847-0.023-5.695-0.023-8.545c0.001-0.211,0.021-0.423,0.038-0.766
			c0.279,0.146,0.474,0.215,0.633,0.333c1.34,1.001,2.705,1.971,3.991,3.035c0.53,0.437,0.722,0.161,0.96-0.209
			c0.237-0.371,0.438-0.765,0.705-1.235c-0.439-0.229-0.883-0.5-1.358-0.695c-1.259-0.518-2.532-0.99-3.79-1.506
			c-0.232-0.095-0.419-0.302-0.63-0.46c0.782-0.486,1.412-0.905,2.066-1.278c0.953-0.541,1.937-1.027,2.886-1.574
			c1.094-0.631,2.15-1.328,3.256-1.938c0.303-0.167,0.394-0.3,0.393-0.628c-0.016-3.03-0.033-6.061,0.003-9.092
			c0.007-0.692-0.043-1.256-0.769-1.536c-0.184-0.072-0.379-0.126-0.548-0.226c-0.935-0.549-1.858-1.12-2.796-1.666
			c-1.558-0.904-3.123-1.795-4.773-2.743c1.308-1.12,2.576-2.213,3.853-3.298c1.139-0.969,2.282-1.935,3.434-2.888
			c0.304-0.251,0.329-0.451,0.026-0.714c-0.291-0.251-0.586-0.511-0.823-0.81c-0.273-0.342-0.467-0.344-0.733,0.004
			c-0.395,0.513-0.822,1.002-1.24,1.499c-1.148,1.362-2.293,2.73-3.451,4.086c-0.864,1.013-1.703,2.047-2.909,2.7
			c-1.37,0.741-2.723,1.514-4.072,2.291c-1.11,0.638-2.188,1.335-3.315,1.941c-0.429,0.229-0.59,0.493-0.59,0.952
			c0.009,3.051,0.018,6.101-0.015,9.152c-0.003,0.303-0.19,0.731-0.432,0.883c-1.207,0.757-2.459,1.439-3.696,2.147
			c-1.152,0.66-2.304,1.323-3.459,1.976c-0.173,0.098-0.375,0.142-0.771,0.287c0.153-1.093,0.318-1.998,0.4-2.91
			c0.161-1.825,0.305-3.652,0.4-5.481c0.075-1.431,0.04-1.413-1.38-1.411c-0.507,0.001-0.733,0.12-0.679,0.683
			c0.146,1.517,0.242,3.039,0.37,4.558c0.072,0.858,0.176,1.714,0.25,2.572c0.052,0.613,0.079,1.23,0.126,1.976
			c-0.315-0.12-0.504-0.165-0.662-0.259c-1.07-0.624-2.133-1.258-3.198-1.889c-1.396-0.827-2.788-1.66-4.193-2.469
			c-0.229-0.132-0.551-0.258-0.779-0.195c-0.376,0.103-0.717,0.348-1.062,0.553c-0.921,0.553-1.822,1.135-2.753,1.669
			c-1.537,0.882-3.092,1.732-4.636,2.603c-0.42,0.237-0.58,0.57-0.573,1.095c0.034,2.908-0.022,5.819,0.042,8.728
			c0.018,0.801-0.349,1.146-0.949,1.461c-0.713,0.375-1.415,0.774-2.111,1.179c-1.564,0.907-3.122,1.825-4.684,2.737
			c-0.222,0.128-0.451,0.24-0.678,0.359c-0.059-0.037-0.117-0.075-0.175-0.113c0.11-0.706,0.266-1.407,0.322-2.117
			c0.167-2.068,0.328-4.138,0.429-6.21c0.082-1.69,0.296-1.47-1.474-1.497c-0.458-0.008-0.643,0.165-0.597,0.596
			c0.087,0.797,0.217,1.589,0.278,2.387c0.161,2.127,0.298,4.256,0.435,6.384c0.011,0.179-0.047,0.359-0.083,0.613
			c-0.257-0.179-0.404-0.3-0.569-0.395c-0.967-0.545-1.939-1.082-2.908-1.629c-0.749-0.423-1.5-0.845-2.239-1.286
			c-0.704-0.419-1.388-0.872-2.092-1.291c-0.261-0.156-0.631-0.438-0.819-0.358c-0.662,0.29-1.27,0.708-1.892,1.086
			c-0.714,0.431-1.416,0.876-2.131,1.301c-0.724,0.433-1.454,0.851-2.185,1.272c-0.706,0.41-1.4,0.848-2.129,1.214
			c-0.478,0.241-0.77,0.478-0.762,1.094c0.034,3.029,0.021,6.06,0.001,9.091c-0.002,0.261-0.129,0.617-0.321,0.758
			c-0.307,0.223-0.718,0.301-1.084,0.442c-0.656,0.254-1.32,0.494-1.967,0.771c-0.73,0.311-1.436,0.68-2.172,0.979
			c-0.466,0.188-0.604,0.523-0.322,0.944c0.246,0.37,0.475,0.751,0.784,1.243c0.333-0.248,0.675-0.506,1.02-0.76
			c1.317-0.97,2.658-1.911,3.936-2.933c0.284-0.228,0.46-0.335,0.751-0.158c0.683,0.415,1.347,0.864,2.039,1.263
			c1.964,1.128,3.938,2.236,6.001,3.405c-0.172,0.207-0.293,0.402-0.459,0.544c-0.938,0.808-1.886,1.601-2.829,2.399
			c-1.299,1.101-2.591,2.206-3.898,3.297c-0.325,0.271-0.447,0.464-0.029,0.777c0.309,0.23,0.513,0.601,0.824,0.825
			c0.137,0.1,0.517,0.076,0.626-0.041c0.66-0.705,1.272-1.455,1.9-2.189c1.139-1.334,2.265-2.679,3.425-3.994
			c0.486-0.553,1.004-1.098,1.584-1.546c0.58-0.45,1.255-0.781,1.893-1.155c1.115-0.652,2.235-1.295,3.35-1.948
			c0.697-0.407,1.375-0.851,2.085-1.233c0.396-0.212,0.884-0.533,1.253-0.454c0.531,0.115,0.987,0.56,1.484,0.851
			c1.088,0.638,2.179,1.271,3.27,1.902c1.167,0.676,2.323,1.369,3.512,2.004c0.262,0.141,0.705,0.193,0.95,0.068
			c1.073-0.552,2.106-1.181,3.15-1.79c1.771-1.035,3.544-2.064,5.299-3.127c0.215-0.13,0.445-0.446,0.451-0.681
			c0.03-1.311-0.015-2.623-0.017-3.935c0-1.654,0.014-3.308,0.033-4.963c0.001-0.112,0.077-0.26,0.167-0.325
			c0.051-0.037,0.215,0.043,0.304,0.105c0.77,0.535,1.533,1.082,2.303,1.617c1.644,1.143,3.289,2.284,4.941,3.413
			c0.121,0.082,0.44,0.11,0.454,0.077c0.254-0.635,0.938-1.103,0.79-1.885C1007.529,322.777,1004.674,321.42,1001.819,320.064z"/>
		<path fill="#FFFFFF" d="M946.535,330.541c-0.145-2.289,0.048-4.432-0.233-6.558c-0.156,0.215-0.213,0.435-0.214,0.655
			c-0.008,1.818,0.016,3.636-0.023,5.453c-0.007,0.317-0.169,0.765-0.41,0.921c-1.043,0.673-2.141,1.261-3.219,1.878
			c-1.002,0.572-2.007,1.135-3.002,1.718c-0.538,0.314-1.098,0.723-1.721,0.396c-1.316-0.691-2.596-1.45-3.88-2.202
			c-1.312-0.768-2.633-1.524-3.902-2.359c-0.564-0.372-0.993-0.227-1.474,0.055c-0.164,0.097-0.32,0.205-0.485,0.303
			c-0.691,0.416-1.381,0.834-2.077,1.242c-0.906,0.529-1.82,1.047-2.729,1.571c-0.982,0.569-1.971,1.13-2.935,1.727
			c-0.155,0.098-0.275,0.37-0.28,0.565c-0.027,0.988-0.012,1.979-0.012,2.969c0,2.1,0.003,4.201-0.004,6.303
			c-0.001,0.398-0.009,0.729-0.513,0.952c-0.89,0.394-1.719,0.928-2.563,1.417c-0.782,0.452-1.559,0.913-2.321,1.396
			c-0.153,0.097-0.233,0.31-0.349,0.467c0.033,0.045,0.068,0.09,0.101,0.134c0.162-0.035,0.347-0.033,0.485-0.111
			c0.96-0.54,1.908-1.097,2.861-1.647c0.705-0.403,1.44-0.763,2.107-1.222c0.407-0.278,0.716-0.27,1.075,0.003
			c0.209,0.157,0.407,0.335,0.634,0.456c0.979,0.524,1.984,0.998,2.943,1.556c1.498,0.869,2.954,1.806,4.452,2.673
			c0.205,0.118,0.591,0.097,0.812-0.019c0.834-0.436,1.632-0.938,2.446-1.409c1.789-1.041,3.591-2.059,5.359-3.131
			c0.519-0.314,1.163-0.474,1.136-1.418c-0.09-2.987-0.029-5.979-0.037-8.97c-0.001-0.467,0.15-0.755,0.595-0.986
			c0.931-0.484,1.815-1.055,2.721-1.587c0.883-0.518,1.765-1.032,2.648-1.544c0.771-0.445,1.539-0.9,2.323-1.319
			c0.172-0.092,0.46-0.135,0.617-0.054c0.623,0.324,1.219,0.699,1.817,1.071c1.054,0.653,2.094,1.331,3.158,1.967
			c0.19,0.114,0.478,0.069,0.718,0.099c0.02-0.075,0.037-0.15,0.056-0.228c-1.239-0.749-2.457-1.539-3.729-2.231
			c-0.821-0.448-1.248-0.964-1.188-1.976c0.095-1.63,0.031-3.271,0.021-4.907c0-0.212-0.084-0.424-0.13-0.635
			c-0.098,0.015-0.196,0.029-0.294,0.044c0,2.129,0,4.258,0,6.387c-0.047,0.022-0.094,0.044-0.142,0.066
			C947.387,329.973,947.007,329.974,946.535,330.541z"/>
		<path fill="#FFFFFF" d="M979.715,357.407c0.14-0.331,0.217-0.7,0.312-0.707c0.301-0.019,0.607,0.12,0.916,0.164
			c0.297,0.042,0.6,0.051,0.899,0.047c0.028-0.002,0.103-0.217,0.073-0.305c-0.179-0.553-0.781-0.954-1.394-0.961
			c-0.715-0.006-1.495,0.408-1.649,0.94c-0.276,0.957-0.534,1.878-0.107,2.923c0.494,1.209,1.241,1.64,2.418,1.093
			c0.655-0.304,0.996-1.254,0.781-2.178c-0.117-0.503-0.866-1.019-1.473-1.017C980.295,357.407,980.098,357.407,979.715,357.407z"/>
		<path fill="#FFFFFF" d="M944.732,320.177c-0.004,1.535,1.014,2.757,2.349,2.718c1.42-0.044,2.523-1.059,2.554-2.669
			c0.023-1.301-0.996-2.666-2.482-2.651C945.805,317.587,944.616,318.645,944.732,320.177z"/>
		<path fill="#FFFFFF" d="M958.541,335.806c0.143-1.389-0.898-2.633-2.303-2.633c-1.777-0.001-2.532,1.049-2.596,2.616
			c-0.058,1.45,1.122,2.741,2.484,2.654C957.33,338.366,958.604,337.615,958.541,335.806z"/>
		<path fill="#FFFFFF" d="M908.868,351.288c-0.157,1.433,0.972,2.665,2.438,2.632c1.541-0.034,2.398-1.219,2.438-2.516
			c0.048-1.529-1.126-2.914-2.458-2.796C910.141,348.709,908.775,349.432,908.868,351.288z"/>
		<path fill="#FFFFFF" d="M1042.24,307.255c-1.343-0.067-2.463,0.9-2.365,2.9c0.067,1.416,1.288,2.309,2.474,2.325
			c1.383,0.021,2.583-1.277,2.427-2.746C1044.625,308.297,1044.007,307.197,1042.24,307.255z"/>
		<path fill="#FFFFFF" d="M1051.978,307.367c0,0.491-0.012,0.933,0.003,1.374c0.015,0.447-0.147,0.676-0.633,0.648
			c-0.441-0.025-0.889-0.027-1.33,0.004c-0.439,0.031-0.572-0.19-0.572-0.573c0.001-0.384,0.033-0.771-0.017-1.147
			c-0.018-0.128-0.238-0.318-0.366-0.318c-0.132,0-0.377,0.195-0.379,0.309c-0.018,1.433-0.011,2.863,0.019,4.295
			c0.002,0.117,0.229,0.336,0.316,0.319c0.151-0.029,0.293-0.19,0.402-0.325c0.051-0.064,0.017-0.195,0.019-0.296
			c0.039-1.57,0.039-1.57,1.604-1.561c0.931,0.006,0.931,0.006,0.934,0.906c0.001,0.261,0.018,0.524-0.003,0.785
			c-0.039,0.536,0.187,0.645,0.687,0.418c0-1.507,0.002-3.017-0.001-4.527C1052.659,307.208,1052.338,307.326,1051.978,307.367z"/>
		<path fill="#FFFFFF" d="M1039.167,308.595c-0.13-0.142-0.227-0.214-0.279-0.312c-0.562-1.043-2.238-1.407-3.195-0.691
			c-0.71,0.529-1.123,1.23-1.067,2.121c0.029,0.456,0.22,0.898,0.309,1.352c0.206,1.067,1.658,1.532,2.473,1.38
			c0.744-0.139,1.322-0.511,1.626-1.22c0.071-0.169,0.007-0.398,0.004-0.601c-0.195,0.057-0.464,0.053-0.577,0.182
			c-0.333,0.379-0.562,0.814-1.132,0.963c-0.61,0.161-1.628-0.32-1.702-0.947c-0.06-0.499-0.062-1.006-0.063-1.51
			c-0.001-1.276,0.786-1.459,1.743-1.365c0.271,0.027,0.674,0.154,0.761,0.349C1038.312,308.851,1038.644,308.815,1039.167,308.595z
			"/>
		<path fill="#FFFFFF" d="M975.946,357.351c0.026,0.26,0.066,0.484,0.068,0.712c0.009,0.687,0.018,1.374,0,2.059
			c-0.011,0.475,0.309,0.653,0.667,0.653c0.124,0,0.352-0.39,0.359-0.607c0.039-1.008,0.017-2.019,0.017-3.027
			c0-0.478,0-0.955,0-1.404c-0.546-0.197-0.843-0.006-1.098,0.369c-0.134,0.2-0.314,0.447-0.522,0.507
			c-0.648,0.185-0.58,0.604-0.442,1.202C975.317,357.657,975.592,357.524,975.946,357.351z"/>
		<path fill="#FFFFFF" d="M1047.642,313.99c0.115-0.415,0.023-0.622-0.41-0.591c-0.2,0.014-0.404,0.01-0.604-0.014
			c-0.106-0.012-0.205-0.083-0.309-0.128c0.067-0.099,0.123-0.208,0.203-0.294c0.335-0.352,0.763-0.647,0.987-1.057
			c0.18-0.33,0.225-0.819,0.13-1.186c-0.083-0.322-0.436-0.515-0.868-0.559c-0.774-0.077-1.185,0.295-1.515,0.982
			c0.303,0.038,0.54,0.246,0.739-0.211c0.081-0.186,0.479-0.315,0.732-0.313c0.146,0.002,0.416,0.322,0.406,0.487
			c-0.014,0.291-0.143,0.618-0.328,0.848c-0.303,0.372-0.71,0.658-1.03,1.019c-0.249,0.278-0.686,0.514-0.431,1.016
			C1046.122,313.99,1046.879,313.99,1047.642,313.99z"/>
		<path fill="#FFFFFF" d="M978.187,344.988c1.359-0.299,2.085-0.865,1.922-1.443C979.477,344.071,978.582,344.204,978.187,344.988z"
			/>
		<path fill="#FFFFFF" d="M977.25,342.924c0.042,0.085,0.084,0.17,0.125,0.257c0.7,0.094,1.109-0.551,1.685-0.778
			c0.047-0.019,0.006-0.26,0.006-0.565C978.378,342.249,977.813,342.585,977.25,342.924z"/>
		<path fill="#FFFFFF" d="M1024.942,276.208c-0.553-0.264-0.336-0.155-1.928,0.76
			C1023.432,277.362,1024.113,277.102,1024.942,276.208z"/>
		<path fill="#FFFFFF" d="M976.399,341.275c0.71,0.094,1.162-0.322,1.701-0.819C977.22,340.252,976.83,340.802,976.399,341.275z"/>
		<path fill="#FFFFFF" d="M1025.647,277.699c-0.532,0.356-0.946,0.626-1.345,0.916c-0.021,0.017,0.058,0.276,0.132,0.302
			C1024.795,279.041,1025.613,278.367,1025.647,277.699z"/>
		<path fill="#FFFFFF" d="M1026.297,279.687c-0.821,0.695-0.836,0.712-0.835,0.913
			C1026.188,280.596,1026.514,280.266,1026.297,279.687z"/>
		<path fill="#FFFFFF" d="M975.773,339.568c0.187-0.374,1.136-0.116,0.73-0.972C976.401,339.056,975.411,338.715,975.773,339.568z"
			/>
		<path fill-rule="evenodd" clip-rule="evenodd" d="M1001.819,320.064c2.854,1.355,5.71,2.713,8.597,4.085
			c0.148,0.782-0.536,1.25-0.79,1.885c-0.014,0.033-0.333,0.005-0.454-0.077c-1.652-1.129-3.298-2.271-4.941-3.413
			c-0.77-0.535-1.533-1.082-2.303-1.617c-0.089-0.062-0.253-0.143-0.304-0.105c-0.09,0.065-0.166,0.213-0.167,0.325
			c-0.02,1.655-0.033,3.309-0.033,4.963c0.002,1.312,0.047,2.624,0.017,3.935c-0.006,0.234-0.236,0.551-0.451,0.681
			c-1.755,1.062-3.527,2.092-5.299,3.127c-1.044,0.609-2.077,1.238-3.15,1.79c-0.245,0.125-0.688,0.072-0.95-0.068
			c-1.188-0.635-2.345-1.328-3.512-2.004c-1.091-0.632-2.182-1.265-3.27-1.902c-0.497-0.291-0.953-0.735-1.484-0.851
			c-0.369-0.079-0.856,0.242-1.253,0.454c-0.71,0.383-1.388,0.826-2.085,1.233c-1.114,0.653-2.234,1.296-3.35,1.948
			c-0.638,0.374-1.312,0.705-1.893,1.155c-0.58,0.448-1.098,0.993-1.584,1.546c-1.16,1.315-2.286,2.66-3.425,3.994
			c-0.628,0.734-1.24,1.484-1.9,2.189c-0.109,0.117-0.489,0.141-0.626,0.041c-0.312-0.225-0.516-0.595-0.824-0.825
			c-0.418-0.313-0.296-0.507,0.029-0.777c1.308-1.091,2.6-2.196,3.898-3.297c0.943-0.799,1.892-1.592,2.829-2.399
			c0.166-0.142,0.287-0.337,0.459-0.544c-2.063-1.169-4.037-2.277-6.001-3.405c-0.692-0.398-1.356-0.848-2.039-1.263
			c-0.291-0.177-0.467-0.069-0.751,0.158c-1.277,1.021-2.618,1.963-3.936,2.933c-0.345,0.254-0.687,0.512-1.02,0.76
			c-0.31-0.492-0.538-0.873-0.784-1.243c-0.281-0.421-0.144-0.756,0.322-0.944c0.736-0.299,1.441-0.668,2.172-0.979
			c0.646-0.276,1.311-0.517,1.967-0.771c0.366-0.142,0.777-0.22,1.084-0.442c0.192-0.141,0.319-0.497,0.321-0.758
			c0.021-3.031,0.033-6.062-0.001-9.091c-0.008-0.616,0.284-0.853,0.762-1.094c0.729-0.366,1.423-0.804,2.129-1.214
			c0.73-0.422,1.461-0.84,2.185-1.272c0.715-0.425,1.417-0.87,2.131-1.301c0.622-0.378,1.229-0.796,1.892-1.086
			c0.188-0.08,0.559,0.202,0.819,0.358c0.704,0.419,1.388,0.872,2.092,1.291c0.739,0.441,1.49,0.863,2.239,1.286
			c0.969,0.547,1.941,1.084,2.908,1.629c0.165,0.095,0.312,0.216,0.569,0.395c0.036-0.254,0.094-0.435,0.083-0.613
			c-0.137-2.128-0.273-4.257-0.435-6.384c-0.062-0.798-0.191-1.59-0.278-2.387c-0.046-0.431,0.139-0.604,0.597-0.596
			c1.77,0.027,1.556-0.193,1.474,1.497c-0.101,2.072-0.262,4.142-0.429,6.21c-0.057,0.71-0.212,1.411-0.322,2.117
			c0.058,0.038,0.116,0.076,0.175,0.113c0.227-0.119,0.456-0.231,0.678-0.359c1.562-0.912,3.119-1.83,4.684-2.737
			c0.696-0.404,1.398-0.804,2.111-1.179c0.601-0.314,0.967-0.66,0.949-1.461c-0.064-2.908-0.008-5.819-0.042-8.728
			c-0.007-0.524,0.153-0.857,0.573-1.095c1.544-0.87,3.099-1.721,4.636-2.603c0.931-0.534,1.832-1.116,2.753-1.669
			c0.345-0.205,0.686-0.45,1.062-0.553c0.229-0.062,0.55,0.063,0.779,0.195c1.405,0.809,2.797,1.642,4.193,2.469
			c1.065,0.631,2.128,1.265,3.198,1.889c0.158,0.094,0.347,0.139,0.662,0.259c-0.047-0.745-0.074-1.362-0.126-1.976
			c-0.074-0.858-0.178-1.714-0.25-2.572c-0.128-1.519-0.224-3.041-0.37-4.558c-0.055-0.562,0.172-0.682,0.679-0.683
			c1.42-0.002,1.455-0.02,1.38,1.411c-0.096,1.829-0.239,3.656-0.4,5.481c-0.082,0.912-0.247,1.817-0.4,2.91
			c0.396-0.146,0.599-0.189,0.771-0.287c1.155-0.652,2.307-1.315,3.459-1.976c1.237-0.708,2.489-1.391,3.696-2.147
			c0.241-0.151,0.429-0.58,0.432-0.883c0.032-3.052,0.023-6.102,0.015-9.152c0-0.459,0.161-0.723,0.59-0.952
			c1.127-0.606,2.205-1.304,3.315-1.941c1.35-0.777,2.702-1.55,4.072-2.291c1.206-0.653,2.045-1.688,2.909-2.7
			c1.158-1.355,2.303-2.724,3.451-4.086c0.418-0.497,0.846-0.986,1.24-1.499c0.267-0.348,0.46-0.346,0.733-0.004
			c0.237,0.299,0.532,0.559,0.823,0.81c0.303,0.263,0.277,0.463-0.026,0.714c-1.151,0.953-2.295,1.919-3.434,2.888
			c-1.276,1.085-2.545,2.178-3.853,3.298c1.65,0.948,3.216,1.839,4.773,2.743c0.938,0.546,1.861,1.117,2.796,1.666
			c0.169,0.1,0.364,0.153,0.548,0.226c0.726,0.28,0.775,0.844,0.769,1.536c-0.036,3.031-0.019,6.062-0.003,9.092
			c0.001,0.328-0.09,0.461-0.393,0.628c-1.105,0.61-2.162,1.308-3.256,1.938c-0.949,0.547-1.933,1.033-2.886,1.574
			c-0.654,0.373-1.284,0.792-2.066,1.278c0.211,0.158,0.397,0.365,0.63,0.46c1.258,0.516,2.531,0.988,3.79,1.506
			c0.476,0.195,0.919,0.467,1.358,0.695c-0.268,0.471-0.468,0.864-0.705,1.235c-0.238,0.37-0.43,0.646-0.96,0.209
			c-1.286-1.064-2.651-2.034-3.991-3.035c-0.159-0.118-0.354-0.188-0.633-0.333c-0.018,0.343-0.037,0.555-0.038,0.766
			c0,2.85-0.021,5.698,0.023,8.545c0.008,0.538-0.257,0.799-0.607,1.006c-1.633,0.967-3.282,1.904-4.931,2.844
			c-1.082,0.617-2.174,1.218-3.258,1.832c-0.116,0.068-0.209,0.177-0.32,0.273c-0.966-0.561-1.938-1.119-2.906-1.687
			c-1.123-0.657-2.238-1.325-3.36-1.981c-0.864-0.505-1.712-1.052-2.617-1.465c-0.234-0.107-0.688,0.172-0.999,0.346
			c-1.216,0.678-2.422,1.374-3.621,2.08c-1.125,0.663-2.237,1.35-3.356,2.021c-0.127,0.076-0.271,0.125-0.407,0.188
			C1001.836,319.929,1001.827,319.996,1001.819,320.064z M1001.065,319.687c0.334-0.188,0.7-0.396,1.067-0.601
			c0.746-0.414,1.499-0.817,2.241-1.24c0.946-0.541,1.888-1.092,2.827-1.646c0.763-0.451,1.524-0.904,2.272-1.382
			c0.135-0.086,0.271-0.297,0.271-0.45c0.016-3.15,0.016-6.301,0.001-9.452c-0.001-0.153-0.131-0.367-0.264-0.45
			c-1.146-0.718-2.294-1.432-3.465-2.105c-1.661-0.955-3.342-1.872-4.997-2.797c-0.149,0.103-0.269,0.198-0.397,0.271
			c-1.332,0.747-2.671,1.478-3.995,2.236c-1.167,0.669-2.34,1.331-3.456,2.074c-0.308,0.206-0.871,0.204-0.867,0.823
			c0.016,3.131,0.006,6.262,0.016,9.392c0,0.135,0.078,0.331,0.182,0.394c1.402,0.844,2.81,1.68,4.229,2.494
			C998.158,318.067,999.6,318.864,1001.065,319.687z M1000.854,325.185c-0.003,0-0.005,0-0.007,0c0-1.515-0.003-3.028,0.002-4.542
			c0.001-0.293-0.038-0.485-0.356-0.661c-1.383-0.764-2.735-1.58-4.097-2.384c-1.144-0.675-2.276-1.372-3.433-2.026
			c-0.31-0.177-0.785-0.43-1.014-0.313c-1.145,0.586-2.222,1.3-3.341,1.936c-1.558,0.884-3.138,1.73-4.694,2.616
			c-0.314,0.181-0.541,0.432-0.528,0.896c0.043,1.473,0.016,2.946,0.017,4.42c0,1.534-0.002,3.068,0.002,4.604
			c0.002,0.314-0.014,0.578,0.404,0.754c0.695,0.292,1.346,0.703,1.997,1.094c0.689,0.413,1.346,0.88,2.036,1.289
			c1.025,0.609,2.057,1.21,3.106,1.772c0.526,0.282,1.03,0.755,1.728,0.349c1.247-0.73,2.522-1.414,3.768-2.146
			c1.299-0.764,2.545-1.627,3.882-2.313c0.518-0.266,0.526-0.566,0.527-0.982C1000.854,328.091,1000.854,326.638,1000.854,325.185z
			 M1036.682,288.936c-0.228-0.07-0.417-0.094-0.57-0.183c-0.958-0.56-1.906-1.138-2.86-1.706c-1.332-0.79-2.649-1.609-4.01-2.347
			c-0.457-0.248-0.913-0.71-1.53-0.467c-0.341,0.135-0.667,0.314-0.987,0.494c-0.966,0.546-1.927,1.099-2.888,1.653
			c-0.689,0.399-1.373,0.808-2.06,1.212c-0.797,0.469-1.594,0.938-2.437,1.436c-0.01,0.072-0.047,0.211-0.047,0.351
			c-0.004,3.131-0.006,6.263,0.006,9.395c0.001,0.142,0.105,0.337,0.223,0.415c0.475,0.315,0.973,0.598,1.463,0.888
			c1.066,0.632,2.134,1.263,3.203,1.891c0.979,0.575,1.955,1.153,2.943,1.712c0.313,0.179,0.712,0.471,0.985,0.396
			c0.523-0.143,0.988-0.502,1.469-0.786c0.698-0.414,1.383-0.847,2.081-1.26c0.736-0.438,1.479-0.865,2.225-1.288
			c0.732-0.416,1.471-0.818,2.203-1.231c0.357-0.2,0.66-0.394,0.656-0.912c-0.025-2.99-0.013-5.979-0.016-8.97
			C1036.734,289.407,1036.701,289.188,1036.682,288.936z M982.775,325.187c0-1.495-0.016-2.99,0.01-4.484
			c0.008-0.523-0.24-0.775-0.676-0.98c-0.508-0.237-0.99-0.528-1.474-0.815c-0.904-0.538-1.795-1.102-2.704-1.636
			c-0.996-0.584-2-1.159-3.013-1.715c-0.298-0.163-0.71-0.43-0.948-0.337c-0.662,0.261-1.263,0.679-1.881,1.046
			c-0.925,0.55-1.84,1.113-2.763,1.662c-1.225,0.729-2.461,1.441-3.676,2.189c-0.146,0.088-0.265,0.348-0.267,0.528
			c-0.016,2.99-0.021,5.98,0.007,8.97c0.004,0.275,0.181,0.649,0.399,0.801c0.731,0.507,1.511,0.946,2.285,1.385
			c0.938,0.531,1.902,1.019,2.836,1.559c0.908,0.525,1.764,1.146,2.696,1.615c0.319,0.16,0.871,0.11,1.206-0.059
			c0.947-0.482,1.829-1.094,2.751-1.624c1.544-0.888,3.101-1.752,4.649-2.629c0.381-0.216,0.589-0.492,0.576-0.99
			C982.75,328.179,982.776,326.682,982.775,325.187z M1019.08,299.582c-0.518,0.277-1.037,0.538-1.538,0.83
			c-1.268,0.741-2.521,1.506-3.792,2.239c-0.946,0.545-1.924,1.034-2.859,1.596c-0.23,0.139-0.498,0.462-0.501,0.702
			c-0.033,3.131-0.026,6.262-0.009,9.394c0.002,0.164,0.155,0.393,0.303,0.484c1.133,0.707,2.271,1.404,3.426,2.071
			c1.657,0.956,3.331,1.887,4.959,2.806c2.942-1.702,5.826-3.371,8.745-5.061c0-3.236,0.002-6.487-0.005-9.737
			c-0.001-0.126-0.049-0.312-0.138-0.366c-0.85-0.507-1.715-0.991-2.573-1.484c-0.743-0.425-1.482-0.857-2.225-1.281
			c-0.728-0.416-1.459-0.824-2.186-1.242C1020.16,300.229,1019.639,299.913,1019.08,299.582z M1018.805,289.521
			c-0.013,0-0.023,0-0.035,0c0,2.96,0,5.918,0,8.878c0.012,0,0.022,0,0.035,0C1018.805,295.439,1018.805,292.481,1018.805,289.521z"
			/>
		<path fill-rule="evenodd" clip-rule="evenodd" d="M946.535,330.541c0.472-0.567,0.852-0.568,1.222-0.07
			c0.048-0.022,0.095-0.044,0.142-0.066c0-2.129,0-4.258,0-6.387c0.098-0.015,0.196-0.029,0.294-0.044
			c0.046,0.211,0.13,0.423,0.13,0.635c0.011,1.637,0.074,3.277-0.021,4.907c-0.061,1.012,0.366,1.527,1.188,1.976
			c1.271,0.692,2.489,1.482,3.729,2.231c-0.019,0.077-0.036,0.152-0.056,0.228c-0.24-0.029-0.527,0.016-0.718-0.099
			c-1.064-0.636-2.104-1.313-3.158-1.967c-0.599-0.372-1.194-0.747-1.817-1.071c-0.157-0.081-0.445-0.038-0.617,0.054
			c-0.784,0.419-1.553,0.874-2.323,1.319c-0.884,0.512-1.766,1.026-2.648,1.544c-0.905,0.532-1.79,1.103-2.721,1.587
			c-0.444,0.231-0.596,0.52-0.595,0.986c0.008,2.99-0.053,5.982,0.037,8.97c0.027,0.944-0.617,1.104-1.136,1.418
			c-1.769,1.072-3.57,2.09-5.359,3.131c-0.814,0.472-1.612,0.974-2.446,1.409c-0.221,0.115-0.606,0.137-0.812,0.019
			c-1.498-0.867-2.954-1.804-4.452-2.673c-0.959-0.558-1.965-1.031-2.943-1.556c-0.227-0.121-0.425-0.299-0.634-0.456
			c-0.359-0.272-0.668-0.281-1.075-0.003c-0.667,0.459-1.402,0.818-2.107,1.222c-0.953,0.551-1.901,1.107-2.861,1.647
			c-0.139,0.078-0.323,0.076-0.485,0.111c-0.032-0.044-0.067-0.089-0.101-0.134c0.115-0.157,0.195-0.37,0.349-0.467
			c0.763-0.483,1.539-0.944,2.321-1.396c0.845-0.489,1.674-1.023,2.563-1.417c0.504-0.224,0.512-0.554,0.513-0.952
			c0.007-2.102,0.004-4.203,0.004-6.303c0-0.99-0.016-1.98,0.012-2.969c0.005-0.195,0.125-0.468,0.28-0.565
			c0.964-0.597,1.952-1.157,2.935-1.727c0.908-0.524,1.822-1.042,2.729-1.571c0.696-0.408,1.386-0.826,2.077-1.242
			c0.165-0.098,0.321-0.206,0.485-0.303c0.48-0.281,0.909-0.427,1.474-0.055c1.27,0.835,2.591,1.592,3.902,2.359
			c1.284,0.752,2.563,1.511,3.88,2.202c0.623,0.327,1.183-0.081,1.721-0.396c0.995-0.583,2-1.146,3.002-1.718
			c1.078-0.617,2.176-1.205,3.219-1.878c0.241-0.156,0.403-0.604,0.41-0.921c0.039-1.817,0.016-3.635,0.023-5.453
			c0.001-0.221,0.058-0.44,0.214-0.655C946.583,326.109,946.391,328.252,946.535,330.541z M937.984,340.774
			c0-1.232-0.046-2.465,0.016-3.693c0.045-0.883-0.095-1.494-1.003-1.944c-1.582-0.786-3.084-1.732-4.615-2.62
			c-0.747-0.434-1.488-0.885-2.225-1.339c-0.547-0.337-1.074-0.608-1.679-0.083c-0.3,0.26-0.646,0.473-0.995,0.666
			c-0.968,0.54-1.954,1.042-2.919,1.586c-1.173,0.663-2.334,1.352-3.496,2.034c-0.33,0.194-0.562,0.425-0.558,0.881
			c0.021,2.987,0.012,5.974,0.007,8.963c0,0.407,0.039,0.734,0.534,0.878c0.322,0.094,0.594,0.356,0.896,0.531
			c1.098,0.638,2.201,1.267,3.299,1.906c0.94,0.548,1.857,1.137,2.816,1.646c0.451,0.239,0.883,0.695,1.473,0.471
			c0.342-0.132,0.651-0.349,0.972-0.537c0.672-0.396,1.331-0.814,2.011-1.196c0.735-0.415,1.495-0.785,2.23-1.201
			c0.77-0.434,1.511-0.917,2.283-1.346c0.598-0.331,1.043-0.642,0.98-1.486C937.911,343.524,937.984,342.147,937.984,340.774z
			 M938.404,345.313c0.01-0.002,0.021-0.005,0.03-0.007c0-3.064,0-6.13,0-9.194c-0.01,0-0.021,0-0.03,0
			C938.404,339.18,938.404,342.246,938.404,345.313z"/>
		<path fill-rule="evenodd" clip-rule="evenodd" d="M979.715,357.407c0.383,0,0.58,0,0.777,0c0.606-0.002,1.355,0.514,1.473,1.017
			c0.215,0.924-0.126,1.874-0.781,2.178c-1.177,0.547-1.924,0.116-2.418-1.093c-0.427-1.045-0.169-1.966,0.107-2.923
			c0.154-0.532,0.935-0.946,1.649-0.94c0.612,0.007,1.215,0.408,1.394,0.961c0.029,0.088-0.045,0.303-0.073,0.305
			c-0.3,0.004-0.603-0.005-0.899-0.047c-0.309-0.044-0.615-0.183-0.916-0.164C979.932,356.707,979.854,357.076,979.715,357.407z
			 M980.374,358.163c-0.55,0.377-0.721,0.725-0.495,1.312c0.073,0.195,0.389,0.39,0.606,0.404c0.146,0.01,0.416-0.278,0.448-0.464
			C981.024,358.905,981.021,358.377,980.374,358.163z"/>
		<path fill-rule="evenodd" clip-rule="evenodd" d="M944.732,320.177c-0.116-1.532,1.072-2.59,2.42-2.603
			c1.486-0.015,2.506,1.351,2.482,2.651c-0.03,1.61-1.134,2.625-2.554,2.669C945.746,322.934,944.729,321.712,944.732,320.177z
			 M948.707,320.197c-0.01-0.181-0.02-0.361-0.031-0.542c-0.058-0.839-0.589-1.301-1.406-1.38c-0.941-0.09-1.4,0.378-1.744,1.175
			c-0.518,1.2,0.484,2.939,1.705,2.751C948.199,322.053,948.782,321.719,948.707,320.197z"/>
		<path fill-rule="evenodd" clip-rule="evenodd" d="M958.541,335.806c0.063,1.81-1.211,2.561-2.414,2.638
			c-1.362,0.087-2.542-1.204-2.484-2.654c0.063-1.567,0.818-2.617,2.596-2.616C957.643,333.173,958.684,334.417,958.541,335.806z
			 M954.421,335.687c0.043,0.016,0.086,0.034,0.129,0.05c0.013,0.201,0.045,0.404,0.032,0.603c-0.059,0.929,0.649,1.264,1.306,1.4
			c0.401,0.082,0.998-0.203,1.329-0.513c0.734-0.687,0.816-1.518,0.354-2.474c-0.432-0.889-1.945-1.277-2.577-0.49
			C954.686,334.644,954.604,335.206,954.421,335.687z"/>
		<path fill-rule="evenodd" clip-rule="evenodd" d="M908.868,351.288c-0.093-1.856,1.272-2.579,2.419-2.68
			c1.332-0.118,2.506,1.267,2.458,2.796c-0.04,1.297-0.897,2.481-2.438,2.516C909.84,353.953,908.711,352.721,908.868,351.288z
			 M912.988,351.306c-0.052-0.02-0.103-0.039-0.154-0.059c-0.009-0.141-0.025-0.281-0.025-0.422
			c-0.001-1.066-0.464-1.269-1.303-1.465c-0.439-0.104-1.174,0.228-1.486,0.603c-0.563,0.679-0.669,1.514-0.207,2.402
			c0.446,0.855,1.973,1.226,2.557,0.462C912.688,352.407,912.788,351.817,912.988,351.306z"/>
		<path fill-rule="evenodd" clip-rule="evenodd" d="M1042.24,307.255c1.767-0.058,2.385,1.042,2.535,2.479
			c0.156,1.469-1.044,2.768-2.427,2.746c-1.186-0.017-2.406-0.909-2.474-2.325C1039.777,308.155,1040.897,307.188,1042.24,307.255z
			 M1043.94,309.843c-0.028-0.007-0.058-0.012-0.085-0.018c0-0.142-0.01-0.282,0.001-0.423c0.046-0.605-0.226-1.132-0.729-1.328
			c-0.632-0.245-1.345-0.344-1.948,0.225c-0.775,0.734-0.822,2.227-0.066,2.989c0.758,0.766,1.961,0.68,2.518-0.193
			C1043.85,310.751,1043.844,310.265,1043.94,309.843z"/>
		<path fill-rule="evenodd" clip-rule="evenodd" d="M1051.978,307.367c0.36-0.041,0.682-0.159,0.683,0.311
			c0.003,1.511,0.001,3.021,0.001,4.527c-0.5,0.227-0.726,0.118-0.687-0.418c0.021-0.261,0.004-0.524,0.003-0.785
			c-0.003-0.9-0.003-0.9-0.934-0.906c-1.565-0.01-1.565-0.01-1.604,1.561c-0.002,0.101,0.032,0.231-0.019,0.296
			c-0.109,0.135-0.251,0.296-0.402,0.325c-0.087,0.017-0.314-0.202-0.316-0.319c-0.029-1.432-0.036-2.862-0.019-4.295
			c0.002-0.113,0.247-0.309,0.379-0.309c0.128,0,0.349,0.19,0.366,0.318c0.05,0.377,0.018,0.764,0.017,1.147
			c0,0.383,0.133,0.604,0.572,0.573c0.441-0.031,0.889-0.029,1.33-0.004c0.485,0.027,0.647-0.201,0.633-0.648
			C1051.966,308.3,1051.978,307.858,1051.978,307.367z"/>
		<path fill-rule="evenodd" clip-rule="evenodd" d="M1039.167,308.595c-0.523,0.221-0.854,0.256-1.102-0.3
			c-0.087-0.194-0.489-0.321-0.761-0.349c-0.957-0.094-1.744,0.089-1.743,1.365c0.002,0.504,0.004,1.011,0.063,1.51
			c0.074,0.627,1.092,1.108,1.702,0.947c0.57-0.148,0.799-0.584,1.132-0.963c0.113-0.129,0.382-0.125,0.577-0.182
			c0.003,0.202,0.067,0.432-0.004,0.601c-0.304,0.709-0.882,1.081-1.626,1.22c-0.814,0.152-2.267-0.312-2.473-1.38
			c-0.089-0.453-0.279-0.896-0.309-1.352c-0.056-0.891,0.357-1.592,1.067-2.121c0.957-0.716,2.634-0.352,3.195,0.691
			C1038.94,308.381,1039.037,308.453,1039.167,308.595z"/>
		<path fill-rule="evenodd" clip-rule="evenodd" d="M907.094,353.772c0-0.625-0.006-1.188,0.002-1.752
			c0.004-0.377-0.172-0.566-0.545-0.564c-2.425,0.014-1.954-0.295-2.002,1.767c-0.004,0.179-0.02,0.354-0.029,0.538
			c-0.412,0.134-0.636,0.083-0.63-0.402c0.016-1.332,0.014-2.665,0-3.996c-0.005-0.434,0.141-0.604,0.662-0.441
			c0,0.416,0.013,0.854-0.005,1.29c-0.014,0.349,0.095,0.536,0.473,0.528c0.545-0.014,1.091-0.012,1.635,0
			c0.349,0.008,0.461-0.156,0.445-0.482c-0.016-0.342-0.037-0.691,0.015-1.027c0.02-0.138,0.226-0.246,0.347-0.368
			c0.121,0.121,0.344,0.242,0.346,0.364c0.022,1.414,0.018,2.827,0.008,4.24C907.812,353.993,907.459,353.812,907.094,353.772z"/>
		<path fill-rule="evenodd" clip-rule="evenodd" d="M975.946,357.351c-0.354,0.174-0.629,0.307-0.951,0.463
			c-0.138-0.599-0.206-1.018,0.442-1.202c0.208-0.06,0.389-0.307,0.522-0.507c0.255-0.375,0.552-0.566,1.098-0.369
			c0,0.449,0,0.927,0,1.404c0,1.009,0.022,2.02-0.017,3.027c-0.008,0.218-0.235,0.607-0.359,0.607c-0.358,0-0.678-0.179-0.667-0.653
			c0.018-0.685,0.009-1.372,0-2.059C976.013,357.835,975.973,357.61,975.946,357.351z"/>
		<path fill-rule="evenodd" clip-rule="evenodd" d="M1047.642,313.99c-0.763,0-1.52,0-2.296,0c-0.255-0.502,0.182-0.737,0.431-1.016
			c0.32-0.36,0.728-0.646,1.03-1.019c0.186-0.229,0.314-0.557,0.328-0.848c0.01-0.165-0.26-0.485-0.406-0.487
			c-0.253-0.002-0.651,0.128-0.732,0.313c-0.199,0.457-0.437,0.249-0.739,0.211c0.33-0.688,0.74-1.06,1.515-0.982
			c0.433,0.044,0.785,0.236,0.868,0.559c0.095,0.366,0.05,0.855-0.13,1.186c-0.225,0.409-0.652,0.705-0.987,1.057
			c-0.08,0.086-0.136,0.195-0.203,0.294c0.104,0.045,0.202,0.116,0.309,0.128c0.199,0.023,0.403,0.027,0.604,0.014
			C1047.665,313.368,1047.757,313.575,1047.642,313.99z"/>
		<path fill-rule="evenodd" clip-rule="evenodd" d="M978.187,344.988c0.396-0.784,1.29-0.917,1.922-1.443
			C980.271,344.123,979.546,344.689,978.187,344.988z"/>
		<path fill-rule="evenodd" clip-rule="evenodd" d="M977.25,342.924c0.563-0.339,1.128-0.675,1.815-1.087
			c0,0.306,0.041,0.547-0.006,0.565c-0.575,0.228-0.984,0.872-1.685,0.778C977.334,343.094,977.292,343.009,977.25,342.924z"/>
		<path fill-rule="evenodd" clip-rule="evenodd" d="M1024.942,276.208c-0.829,0.894-1.511,1.154-1.928,0.76
			C1024.606,276.053,1024.39,275.944,1024.942,276.208z"/>
		<path fill-rule="evenodd" clip-rule="evenodd" d="M976.399,341.275c0.431-0.474,0.82-1.023,1.701-0.819
			C977.562,340.953,977.109,341.369,976.399,341.275z"/>
		<path fill-rule="evenodd" clip-rule="evenodd" d="M1025.647,277.699c-0.034,0.668-0.853,1.342-1.213,1.218
			c-0.074-0.025-0.152-0.285-0.132-0.302C1024.701,278.325,1025.115,278.056,1025.647,277.699z"/>
		<path fill-rule="evenodd" clip-rule="evenodd" d="M1026.297,279.687c0.217,0.579-0.108,0.909-0.835,0.913
			C1025.461,280.398,1025.476,280.382,1026.297,279.687z"/>
		<path fill-rule="evenodd" clip-rule="evenodd" d="M975.773,339.568c-0.362-0.854,0.628-0.513,0.73-0.972
			C976.909,339.452,975.96,339.194,975.773,339.568z"/>
		<path fill-rule="evenodd" clip-rule="evenodd" fill="#FFFFFF" d="M1001.065,319.687c-1.466-0.822-2.907-1.619-4.335-2.439
			c-1.419-0.814-2.826-1.65-4.229-2.494c-0.104-0.062-0.182-0.259-0.182-0.394c-0.01-3.13,0-6.261-0.016-9.392
			c-0.004-0.619,0.56-0.617,0.867-0.823c1.116-0.743,2.289-1.405,3.456-2.074c1.324-0.759,2.663-1.489,3.995-2.236
			c0.129-0.072,0.248-0.168,0.397-0.271c1.655,0.925,3.336,1.842,4.997,2.797c1.171,0.674,2.319,1.388,3.465,2.105
			c0.133,0.083,0.263,0.297,0.264,0.45c0.015,3.151,0.015,6.302-0.001,9.452c-0.001,0.153-0.137,0.364-0.271,0.45
			c-0.748,0.478-1.51,0.931-2.272,1.382c-0.939,0.554-1.881,1.104-2.827,1.646c-0.742,0.423-1.495,0.826-2.241,1.24
			C1001.766,319.29,1001.399,319.499,1001.065,319.687z"/>
		<path fill-rule="evenodd" clip-rule="evenodd" fill="#FFFFFF" d="M1000.854,325.185c0,1.453,0,2.906-0.001,4.361
			c-0.001,0.416-0.01,0.717-0.527,0.982c-1.337,0.687-2.583,1.55-3.882,2.313c-1.245,0.731-2.521,1.415-3.768,2.146
			c-0.697,0.406-1.201-0.066-1.728-0.349c-1.05-0.562-2.081-1.163-3.106-1.772c-0.69-0.409-1.347-0.876-2.036-1.289
			c-0.651-0.391-1.302-0.802-1.997-1.094c-0.418-0.176-0.402-0.439-0.404-0.754c-0.004-1.535-0.002-3.069-0.002-4.604
			c-0.001-1.474,0.026-2.947-0.017-4.42c-0.013-0.465,0.214-0.716,0.528-0.896c1.557-0.886,3.137-1.732,4.694-2.616
			c1.119-0.636,2.196-1.35,3.341-1.936c0.229-0.116,0.704,0.137,1.014,0.313c1.156,0.654,2.289,1.352,3.433,2.026
			c1.361,0.804,2.714,1.62,4.097,2.384c0.318,0.176,0.357,0.368,0.356,0.661c-0.005,1.514-0.002,3.027-0.002,4.542
			C1000.849,325.185,1000.851,325.185,1000.854,325.185z"/>
		<path fill-rule="evenodd" clip-rule="evenodd" fill="#FFFFFF" d="M1036.682,288.936c0.02,0.252,0.053,0.472,0.053,0.692
			c0.003,2.99-0.01,5.979,0.016,8.97c0.004,0.519-0.299,0.712-0.656,0.912c-0.732,0.413-1.471,0.815-2.203,1.231
			c-0.745,0.423-1.488,0.851-2.225,1.288c-0.698,0.413-1.383,0.846-2.081,1.26c-0.48,0.284-0.945,0.644-1.469,0.786
			c-0.273,0.074-0.672-0.218-0.985-0.396c-0.988-0.559-1.965-1.137-2.943-1.712c-1.069-0.628-2.137-1.259-3.203-1.891
			c-0.49-0.29-0.988-0.572-1.463-0.888c-0.117-0.078-0.222-0.273-0.223-0.415c-0.012-3.132-0.01-6.264-0.006-9.395
			c0-0.14,0.037-0.278,0.047-0.351c0.843-0.498,1.64-0.967,2.437-1.436c0.687-0.404,1.37-0.812,2.06-1.212
			c0.961-0.555,1.922-1.107,2.888-1.653c0.32-0.18,0.646-0.359,0.987-0.494c0.617-0.243,1.073,0.219,1.53,0.467
			c1.36,0.737,2.678,1.557,4.01,2.347c0.954,0.568,1.902,1.146,2.86,1.706C1036.265,288.842,1036.454,288.865,1036.682,288.936z"/>
		<path fill-rule="evenodd" clip-rule="evenodd" fill="#FFFFFF" d="M982.775,325.187c0.001,1.495-0.025,2.992,0.016,4.485
			c0.013,0.498-0.195,0.774-0.576,0.99c-1.549,0.877-3.105,1.741-4.649,2.629c-0.922,0.53-1.804,1.142-2.751,1.624
			c-0.335,0.169-0.887,0.219-1.206,0.059c-0.933-0.469-1.788-1.09-2.696-1.615c-0.934-0.54-1.897-1.027-2.836-1.559
			c-0.774-0.438-1.554-0.878-2.285-1.385c-0.219-0.151-0.396-0.525-0.399-0.801c-0.028-2.989-0.022-5.979-0.007-8.97
			c0.002-0.181,0.121-0.44,0.267-0.528c1.215-0.748,2.451-1.46,3.676-2.189c0.923-0.549,1.838-1.112,2.763-1.662
			c0.618-0.367,1.219-0.785,1.881-1.046c0.238-0.093,0.65,0.174,0.948,0.337c1.013,0.556,2.017,1.131,3.013,1.715
			c0.909,0.534,1.8,1.098,2.704,1.636c0.483,0.287,0.966,0.578,1.474,0.815c0.436,0.205,0.684,0.457,0.676,0.98
			C982.76,322.196,982.775,323.691,982.775,325.187z"/>
		<path fill-rule="evenodd" clip-rule="evenodd" fill="#FFFFFF" d="M1019.08,299.582c0.559,0.331,1.08,0.646,1.607,0.95
			c0.727,0.418,1.458,0.826,2.186,1.242c0.742,0.424,1.481,0.856,2.225,1.281c0.858,0.493,1.724,0.978,2.573,1.484
			c0.089,0.054,0.137,0.24,0.138,0.366c0.007,3.25,0.005,6.501,0.005,9.737c-2.919,1.689-5.803,3.358-8.745,5.061
			c-1.628-0.919-3.302-1.85-4.959-2.806c-1.155-0.667-2.293-1.364-3.426-2.071c-0.147-0.092-0.301-0.32-0.303-0.484
			c-0.018-3.132-0.024-6.263,0.009-9.394c0.003-0.24,0.271-0.563,0.501-0.702c0.936-0.562,1.913-1.051,2.859-1.596
			c1.271-0.733,2.524-1.498,3.792-2.239C1018.043,300.12,1018.562,299.859,1019.08,299.582z M1019.397,317.773
			c-2.53-1.462-4.978-2.878-7.426-4.294c-0.055,0.035-0.11,0.071-0.166,0.105c0.084,0.164,0.127,0.395,0.26,0.479
			c0.934,0.593,1.88,1.165,2.832,1.729c1.004,0.592,2.005,1.193,3.038,1.736C1018.326,317.735,1018.7,318.23,1019.397,317.773z"/>
		<path fill-rule="evenodd" clip-rule="evenodd" fill="#FFFFFF" d="M1018.805,289.521c0,2.96,0,5.918,0,8.878
			c-0.013,0-0.023,0-0.035,0c0-2.96,0-5.918,0-8.878C1018.781,289.521,1018.792,289.521,1018.805,289.521z"/>
		<path fill-rule="evenodd" clip-rule="evenodd" fill="#FFFFFF" d="M937.984,340.774c0,1.373-0.073,2.75,0.027,4.116
			c0.062,0.845-0.383,1.155-0.98,1.486c-0.772,0.429-1.514,0.912-2.283,1.346c-0.735,0.416-1.495,0.786-2.23,1.201
			c-0.68,0.382-1.339,0.8-2.011,1.196c-0.32,0.188-0.63,0.405-0.972,0.537c-0.59,0.225-1.021-0.231-1.473-0.471
			c-0.959-0.51-1.876-1.099-2.816-1.646c-1.098-0.64-2.201-1.269-3.299-1.906c-0.302-0.175-0.573-0.438-0.896-0.531
			c-0.495-0.144-0.534-0.471-0.534-0.878c0.005-2.989,0.014-5.976-0.007-8.963c-0.004-0.456,0.228-0.687,0.558-0.881
			c1.162-0.683,2.323-1.371,3.496-2.034c0.965-0.544,1.951-1.046,2.919-1.586c0.349-0.193,0.695-0.406,0.995-0.666
			c0.604-0.525,1.132-0.254,1.679,0.083c0.736,0.454,1.478,0.905,2.225,1.339c1.531,0.888,3.033,1.834,4.615,2.62
			c0.908,0.45,1.048,1.062,1.003,1.944C937.938,338.31,937.984,339.542,937.984,340.774z M936.492,344.597
			c-0.234,0.08-0.407,0.111-0.551,0.194c-0.749,0.421-1.494,0.851-2.235,1.288c-0.707,0.418-1.402,0.857-2.113,1.272
			c-0.699,0.405-1.392,0.831-2.124,1.173c-0.372,0.174-0.417,0.347-0.284,0.67c0.09-0.004,0.161,0.014,0.208-0.012
			c1.309-0.736,2.619-1.469,3.922-2.217c0.755-0.432,1.531-0.84,2.229-1.353C935.877,345.368,936.555,345.422,936.492,344.597z
			 M929.268,332.274c-0.061,0.029-0.123,0.058-0.187,0.088c0.072,0.169,0.096,0.414,0.223,0.494c0.962,0.6,1.942,1.169,2.919,1.745
			c0.988,0.581,1.969,1.178,2.971,1.734c0.391,0.217,0.833,0.347,1.251,0.517c0.047-0.096,0.092-0.193,0.138-0.291
			C934.202,335.037,931.708,333.7,929.268,332.274z M922.067,336.442c-0.242,0.909-0.153,8.239,0.088,8.57
			C922.452,344.545,922.411,336.781,922.067,336.442z"/>
		<path fill-rule="evenodd" clip-rule="evenodd" fill="#FFFFFF" d="M938.404,345.313c0-3.067,0-6.134,0-9.201c0.01,0,0.021,0,0.03,0
			c0,3.064,0,6.13,0,9.194C938.425,345.309,938.414,345.312,938.404,345.313z"/>
		<path fill-rule="evenodd" clip-rule="evenodd" fill="#FFFFFF" d="M980.374,358.163c0.647,0.214,0.65,0.742,0.56,1.253
			c-0.032,0.186-0.303,0.474-0.448,0.464c-0.218-0.015-0.533-0.209-0.606-0.404C979.653,358.888,979.824,358.54,980.374,358.163z"/>
		<path fill-rule="evenodd" clip-rule="evenodd" fill="#FFFFFF" d="M948.707,320.197c0.075,1.521-0.508,1.855-1.477,2.004
			c-1.221,0.188-2.223-1.551-1.705-2.751c0.344-0.797,0.803-1.265,1.744-1.175c0.817,0.079,1.349,0.541,1.406,1.38
			C948.688,319.836,948.697,320.017,948.707,320.197z"/>
		<path fill-rule="evenodd" clip-rule="evenodd" fill="#FFFFFF" d="M954.421,335.687c0.183-0.48,0.265-1.043,0.572-1.424
			c0.632-0.787,2.146-0.398,2.577,0.49c0.463,0.956,0.381,1.787-0.354,2.474c-0.331,0.31-0.928,0.595-1.329,0.513
			c-0.656-0.137-1.364-0.472-1.306-1.4c0.013-0.198-0.02-0.401-0.032-0.603C954.507,335.721,954.464,335.702,954.421,335.687z"/>
		<path fill-rule="evenodd" clip-rule="evenodd" fill="#FFFFFF" d="M912.988,351.306c-0.2,0.512-0.3,1.102-0.619,1.521
			c-0.584,0.764-2.11,0.394-2.557-0.462c-0.462-0.889-0.356-1.724,0.207-2.402c0.312-0.375,1.047-0.706,1.486-0.603
			c0.839,0.196,1.302,0.398,1.303,1.465c0,0.141,0.017,0.281,0.025,0.422C912.886,351.267,912.937,351.286,912.988,351.306z"/>
		<path fill-rule="evenodd" clip-rule="evenodd" fill="#FFFFFF" d="M1043.94,309.843c-0.097,0.422-0.091,0.908-0.31,1.252
			c-0.557,0.873-1.76,0.959-2.518,0.193c-0.756-0.763-0.709-2.255,0.066-2.989c0.604-0.568,1.316-0.47,1.948-0.225
			c0.503,0.196,0.774,0.723,0.729,1.328c-0.011,0.141-0.001,0.281-0.001,0.423C1043.883,309.831,1043.912,309.836,1043.94,309.843z"
			/>
		<path fill-rule="evenodd" clip-rule="evenodd" d="M1019.397,317.773c-0.697,0.457-1.071-0.038-1.462-0.243
			c-1.033-0.543-2.034-1.145-3.038-1.736c-0.952-0.564-1.898-1.137-2.832-1.729c-0.133-0.085-0.176-0.315-0.26-0.479
			c0.056-0.034,0.111-0.07,0.166-0.105C1014.42,314.896,1016.867,316.312,1019.397,317.773z"/>
		<path fill-rule="evenodd" clip-rule="evenodd" d="M936.492,344.597c0.062,0.825-0.615,0.771-0.948,1.017
			c-0.698,0.513-1.475,0.921-2.229,1.353c-1.303,0.748-2.613,1.48-3.922,2.217c-0.047,0.025-0.118,0.008-0.208,0.012
			c-0.133-0.323-0.088-0.496,0.284-0.67c0.732-0.342,1.425-0.768,2.124-1.173c0.711-0.415,1.406-0.854,2.113-1.272
			c0.741-0.438,1.486-0.867,2.235-1.288C936.085,344.708,936.258,344.677,936.492,344.597z"/>
		<path fill-rule="evenodd" clip-rule="evenodd" d="M929.268,332.274c2.44,1.426,4.935,2.763,7.314,4.287
			c-0.046,0.098-0.091,0.195-0.138,0.291c-0.418-0.17-0.86-0.3-1.251-0.517c-1.002-0.557-1.982-1.153-2.971-1.734
			c-0.977-0.576-1.957-1.146-2.919-1.745c-0.127-0.08-0.15-0.325-0.223-0.494C929.145,332.332,929.207,332.304,929.268,332.274z"/>
		<path fill-rule="evenodd" clip-rule="evenodd" d="M922.067,336.442c0.344,0.339,0.385,8.103,0.088,8.57
			C921.914,344.682,921.825,337.352,922.067,336.442z"/>
	</g>
</g>
<g>
	<g>
		<path d="M870.939,270.889c12.306,13.085,24.611,26.169,36.917,39.254c0.442,0.471,1.148-0.238,0.707-0.707
			c-12.306-13.085-24.611-26.169-36.917-39.254C871.204,269.711,870.498,270.42,870.939,270.889L870.939,270.889z"/>
	</g>
</g>
<g>
</g>
<g>
</g>
<g>
</g>
<g>
</g>
<g>
</g>
<g>
</g>
</svg>
