<?xml version="1.0" encoding="utf-8"?>
<!-- Generator: Adobe Illustrator 16.0.4, SVG Export Plug-In . SVG Version: 6.00 Build 0)  -->
<!DOCTYPE svg PUBLIC "-//W3C//DTD SVG 1.1//EN" "http://www.w3.org/Graphics/SVG/1.1/DTD/svg11.dtd">
<svg version="1.1" id="Layer_1" xmlns="http://www.w3.org/2000/svg" xmlns:xlink="http://www.w3.org/1999/xlink" x="0px" y="0px"
	 width="1105.594px" height="517.497px" viewBox="0 0 1105.594 517.497" enable-background="new 0 0 1105.594 517.497"
	 xml:space="preserve">
<g>
	<polygon fill="#FFFFFF" points="833.211,59.88 645.795,66.506 658.029,160.67 816.289,166.462 	"/>
	<g>
		<g id="DEUH3E_2_">
			<g>
				<path fill="#FFFFFF" d="M789.554,79.93c0.169-0.209,0.272-0.381,0.417-0.504c2.059-1.766,4.125-3.522,6.186-5.285
					c0.303-0.26,0.854-0.579,0.822-0.805c-0.052-0.357-0.479-0.676-0.779-0.98c-0.701-0.709-0.678-0.509-1.152,0.033
					c-1.57,1.794-3.08,3.643-4.633,5.453c-0.603,0.703-1.22,1.399-1.897,2.028c-0.344,0.316-0.843,0.462-1.261,0.704
					c-0.742,0.43-1.472,0.879-2.212,1.312c-0.926,0.545-1.854,1.086-2.786,1.621c-0.801,0.462-1.607,0.914-2.499,1.42
					c0,0.147,0,0.386,0,0.626c0,3.071,0.006,6.142-0.015,9.214c-0.001,0.225-0.14,0.537-0.318,0.658
					c-0.705,0.486-1.443,0.926-2.184,1.357c-0.906,0.527-1.836,1.014-2.742,1.543c-0.922,0.534-1.804,1.143-2.75,1.621
					c-0.305,0.154-0.59,0.549-1.177,0.123c-1.074-0.78-2.344-1.287-3.505-1.956c-1.541-0.885-3.058-1.814-4.58-2.729
					c-0.226-0.136-0.42-0.261-0.687-0.045c-0.204,0.165-0.465,0.258-0.697,0.39c-1.319,0.741-2.642,1.477-3.956,2.229
					c-1.181,0.677-2.348,1.378-3.531,2.049c-0.564,0.319-0.903,0.633-0.882,1.42c0.08,2.948,0.023,5.899,0.044,8.85
					c0.003,0.422-0.096,0.722-0.462,0.931c-0.895,0.51-1.787,1.022-2.68,1.534c-0.969,0.556-1.937,1.109-2.904,1.664
					c-0.696,0.4-1.391,0.802-2.21,1.273c0-0.333-0.018-0.567,0.003-0.8c0.098-1.099,0.211-2.196,0.306-3.296
					c0.128-1.493,0.257-2.984,0.363-4.478c0.12-1.698,0.028-1.375-1.348-1.397c-0.743-0.012-0.789,0.048-0.74,0.797
					c0.137,2.111,0.269,4.223,0.42,6.33c0.04,0.559,0.148,1.11,0.217,1.666c0.041,0.35,0.067,0.701,0.101,1.051
					c-0.054,0.04-0.106,0.08-0.16,0.121c-2.862-1.656-5.724-3.311-8.561-4.951c-3.086,1.787-6.183,3.582-9.302,5.389
					c0,2.246,0,4.506,0,6.767c0,1.011,0.004,2.021-0.003,3.03c-0.002,0.348-0.019,0.645-0.494,0.755
					c-0.467,0.108-0.894,0.392-1.347,0.579c-0.678,0.277-1.366,0.533-2.047,0.808c-0.652,0.263-1.306,0.522-1.943,0.815
					c-0.109,0.05-0.246,0.311-0.205,0.377c0.33,0.562,0.7,1.101,1.1,1.713c1.587-1.249,3.078-2.438,4.594-3.594
					c0.255-0.193,0.723-0.43,0.923-0.324c1.156,0.614,2.249,1.344,3.386,1.998c1.592,0.915,3.2,1.796,4.897,2.746
					c-1.191,1.023-2.337,2.019-3.492,3.001c-1.253,1.067-2.509,2.128-3.774,3.179c-0.339,0.282-0.401,0.486,0,0.783
					c0.304,0.224,0.505,0.592,0.812,0.807c0.153,0.105,0.556,0.105,0.658-0.01c0.872-0.986,1.692-2.019,2.548-3.02
					c1.132-1.324,2.327-2.599,3.406-3.965c0.601-0.761,1.431-1.113,2.197-1.583c1.248-0.765,2.515-1.495,3.778-2.229
					c0.984-0.57,1.968-1.139,2.973-1.671c0.189-0.1,0.529-0.105,0.711,0c1.299,0.75,2.566,1.55,3.858,2.312
					c1.189,0.701,2.389,1.386,3.6,2.05c0.467,0.256,0.914,0.742,1.521,0.434c0.694-0.353,1.357-0.764,2.03-1.155
					c0.943-0.549,1.877-1.109,2.824-1.65c0.69-0.395,1.404-0.748,2.09-1.149c0.606-0.357,1.188-0.755,1.926-1.226
					c0-3.157,0-6.475,0-9.855c0.292,0.128,0.491,0.182,0.65,0.293c0.915,0.65,1.808,1.332,2.732,1.969
					c1.301,0.898,2.623,1.766,3.932,2.653c0.249,0.167,0.455,0.468,0.721,0.527c0.464,0.103,0.359-0.431,0.551-0.648
					c0.025-0.027,0.089-0.029,0.102-0.058c0.183-0.399,0.36-0.801,0.519-1.158c-3.036-1.439-5.942-2.818-8.997-4.269
					c0.367-0.146,0.561-0.198,0.727-0.296c1.171-0.678,2.336-1.365,3.5-2.053c1.139-0.673,2.271-1.357,3.416-2.02
					c0.294-0.17,0.666-0.437,0.934-0.371c0.484,0.119,0.927,0.441,1.372,0.7c1.778,1.036,3.554,2.079,5.327,3.123
					c0.716,0.421,1.424,0.854,2.165,1.3c3.039-1.754,6.141-3.542,9.295-5.364c0-0.142,0-0.341,0-0.54
					c-0.001-2.829-0.002-5.657-0.002-8.486c0-0.161-0.047-0.35,0.021-0.476c0.056-0.104,0.318-0.223,0.373-0.181
					c1.446,1.091,2.873,2.208,4.314,3.306c0.222,0.17,0.485,0.315,0.658-0.118c0.115-0.285,0.299-0.552,0.48-0.805
					c0.398-0.558,0.312-0.836-0.334-1.032c-0.114-0.034-0.225-0.089-0.334-0.135c-1.04-0.435-2.086-0.853-3.118-1.308
					c-0.544-0.24-1.061-0.545-1.673-0.864c1.354-0.749,2.562-1.403,3.757-2.084c1.408-0.8,2.809-1.612,4.198-2.442
					c0.315-0.188,0.58-0.398,0.574-0.893c-0.031-3.212-0.014-6.424-0.014-9.638c0-0.237-0.031-0.475-0.037-0.58
					C795.258,83.215,792.458,81.603,789.554,79.93z"/>
				<path fill="#FFFFFF" d="M675.229,145.614c0.054,0.053,0.107,0.106,0.161,0.159c0.137-0.057,0.284-0.098,0.411-0.172
					c0.484-0.287,0.953-0.602,1.444-0.874c0.959-0.53,1.953-0.998,2.885-1.57c0.599-0.368,1.042-0.893,1.837-0.288
					c0.664,0.504,1.48,0.802,2.214,1.222s1.439,0.886,2.167,1.316c0.94,0.557,1.889,1.105,2.841,1.644
					c0.574,0.323,1.127,0.764,1.814,0.138c0.332-0.302,0.782-0.479,1.182-0.706c0.958-0.546,1.917-1.089,2.877-1.633
					c1.153-0.652,2.301-1.315,3.463-1.951c0.609-0.333,0.964-0.679,0.942-1.507c-0.08-2.946-0.019-5.897-0.043-8.846
					c-0.005-0.536,0.25-0.772,0.666-0.996c0.74-0.396,1.455-0.842,2.185-1.258c0.927-0.53,1.86-1.048,2.786-1.579
					c0.73-0.422,1.43-0.906,2.189-1.268c0.387-0.183,0.714-0.719,1.25-0.41c0.645,0.37,1.267,0.779,1.899,1.172
					c1.021,0.633,2.034,1.278,3.07,1.885c0.162,0.095,0.428,0.013,0.645,0.013c0.013-0.071,0.024-0.144,0.036-0.216
					c-1.409-0.853-2.813-1.715-4.231-2.554c-0.357-0.211-0.553-0.447-0.549-0.888c0.017-1.878,0.009-3.757,0.003-5.636
					c0-0.202-0.034-0.405-0.052-0.61c-0.084-0.018-0.167-0.037-0.25-0.057c-0.085,0.216-0.24,0.431-0.241,0.648
					c-0.012,1.494,0.019,2.988,0.015,4.482c-0.001,0.405-0.074,0.809-0.104,1.11c-0.412,0.021-0.721,0.034-1.101,0.052
					c-0.015-0.168-0.053-0.419-0.053-0.67c-0.005-1.676-0.005-3.354-0.002-5.029c0-0.283-0.003-0.586-0.391-0.473
					c-0.126,0.037-0.245,0.334-0.247,0.511c-0.018,1.879,0.004,3.759-0.026,5.637c-0.005,0.279-0.144,0.681-0.354,0.813
					c-1.225,0.773-2.484,1.492-3.742,2.209c-0.952,0.544-1.945,1.02-2.873,1.598c-0.562,0.351-1.017,0.313-1.548-0.012
					c-1.243-0.761-2.502-1.492-3.756-2.23c-1.389-0.817-2.775-1.637-4.176-2.43c-0.133-0.075-0.397-0.034-0.542,0.052
					c-0.666,0.393-1.301,0.839-1.967,1.231c-0.996,0.587-2.009,1.146-3.016,1.717c-1.127,0.637-2.257,1.27-3.382,1.912
					c-0.342,0.194-0.595,0.403-0.591,0.893c0.029,2.949,0.015,5.898,0.015,8.847c0.002,1.149-0.016,1.116-1.077,1.608
					c-0.719,0.333-1.391,0.77-2.078,1.168c-0.732,0.428-1.465,0.851-2.18,1.306C675.477,145.21,675.369,145.438,675.229,145.614z"/>
				<path fill="#FFFFFF" d="M809.587,106.021c0,0-0.001,0-0.002,0c0,0.646,0.004,1.291-0.001,1.937
					c-0.002,0.273-0.01,0.589,0.372,0.516c0.142-0.026,0.305-0.296,0.335-0.476c0.093-0.533-0.066-1.306,0.231-1.556
					c0.344-0.288,1.072-0.119,1.632-0.148c0.041-0.002,0.081,0.004,0.12,0c0.406-0.032,0.6,0.13,0.57,0.56
					c-0.024,0.381-0.054,0.774,0.015,1.145c0.035,0.189,0.282,0.338,0.434,0.505c0.156-0.168,0.439-0.333,0.445-0.505
					c0.037-1.329,0.037-2.661,0-3.992c-0.006-0.164-0.278-0.418-0.465-0.459c-0.312-0.068-0.449,0.169-0.437,0.49
					s0.034,0.649-0.013,0.965c-0.029,0.193-0.172,0.524-0.277,0.529c-0.677,0.032-1.383,0.081-2.023-0.087
					c-0.172-0.046-0.152-0.827-0.218-1.272c-0.008-0.059-0.005-0.121-0.003-0.182c0.005-0.257,0.003-0.485-0.372-0.466
					c-0.363,0.019-0.347,0.248-0.345,0.501C809.592,104.691,809.587,105.356,809.587,106.021z"/>
				<path fill="#FFFFFF" d="M805.666,106.059c0.169-1.588-1.021-2.629-2.309-2.623c-1.907,0.01-2.435,1.17-2.573,2.672
					c-0.124,1.344,1.174,2.635,2.532,2.575C804.42,108.635,805.806,107.857,805.666,106.059z"/>
				<path fill="#FFFFFF" d="M708.156,113.809c-1.586-0.098-2.386,1.035-2.475,2.627c-0.08,1.432,1.108,2.737,2.459,2.65
					c1.314-0.084,2.361-0.875,2.393-2.647C710.562,114.812,709.525,113.68,708.156,113.809z"/>
				<path fill="#FFFFFF" d="M672.231,150.086c1.396,0.13,2.462-0.948,2.42-2.529c-0.04-1.562-1.026-2.781-2.353-2.775
					c-1.405,0.006-2.359,1.127-2.429,2.731C669.804,149.007,670.834,150.221,672.231,150.086z"/>
				<path fill="#FFFFFF" d="M714.634,131.977c0.117,0.451,0.173,0.933,0.368,1.349c0.313,0.673,0.884,1.037,1.625,1.218
					c0.701,0.171,1.938-0.156,2.34-0.757c0.607-0.907,0.775-1.836,0.403-2.931c-0.418-1.227-2.495-1.986-3.552-1.201
					C715.038,130.236,714.624,130.965,714.634,131.977z"/>
				<path fill="#FFFFFF" d="M668.195,145.07c0,0.47-0.016,0.911,0.006,1.35c0.02,0.366-0.136,0.522-0.489,0.519
					c-0.525-0.003-1.052-0.012-1.576,0.003c-0.38,0.01-0.492-0.178-0.481-0.523c0.016-0.42,0.005-0.842,0.005-1.244
					c-0.71-0.211-0.757-0.184-0.761,0.479c-0.006,1.242-0.002,2.484-0.002,3.727c-0.028,0-0.059,0-0.088,0c0-1.308,0-2.616,0-3.924
					c-0.077,1.29-0.072,2.579-0.082,3.868c-0.003,0.379,0.039,0.693,0.517,0.707c0.542,0.016,0.408-0.383,0.412-0.682
					c0.027-1.959-0.275-1.682,1.842-1.696c0.478-0.003,0.75,0.183,0.708,0.729c-0.04,0.535-0.008,1.075-0.008,1.654
					c0.275-0.021,0.449-0.031,0.638-0.044c0-1.665,0-3.287,0-4.922C668.61,145.07,668.438,145.07,668.195,145.07z"/>
				<path fill="#FFFFFF" d="M800.006,104.861c-0.042-0.2-0.032-0.396-0.117-0.534c-0.492-0.796-2.117-1.182-2.964-0.724
					c-1.026,0.557-1.661,2.683-1.079,3.672c0.717,1.219,1.737,1.713,3.215,1.176c0.617-0.225,1.034-1.045,0.785-1.785
					c-0.209,0.162-0.492,0.269-0.532,0.434c-0.173,0.703-0.793,0.884-1.293,0.906c-0.446,0.019-0.985-0.197-1.294-0.709
					c-0.361-0.597-0.412-1.229-0.283-1.857c0.108-0.534,0.355-1.064,0.964-1.24c0.687-0.196,1.392-0.188,1.81,0.465
					C799.465,105.052,799.667,104.934,800.006,104.861z"/>
				<path fill="#FFFFFF" d="M741.694,152.918c-0.795,1.184-1.383,2.27-1.365,3.566c0.002,0.191,0.217,0.379,0.333,0.569
					c0.217-0.185,0.604-0.351,0.624-0.556c0.134-1.281,0.559-2.417,1.378-3.419c0.388-0.472,0.27-1.161-0.168-1.179
					c-0.938-0.041-1.88-0.014-2.846-0.014c0,0.371,0,0.656,0,1.031C740.334,152.918,740.966,152.918,741.694,152.918z"/>
				<path fill="#FFFFFF" d="M735.849,153.96c0.263-0.062,0.508-0.106,0.745-0.179c0.137-0.04,0.263-0.123,0.392-0.186
					c0.042,0.146,0.116,0.289,0.118,0.438c0.014,0.807,0.003,1.612,0.014,2.418c0.004,0.3-0.021,0.619,0.452,0.615
					c0.429-0.005,0.565-0.209,0.563-0.599c-0.006-1.37,0.006-2.741-0.013-4.111c-0.002-0.161-0.152-0.454-0.234-0.454
					c-0.25,0-0.539,0.057-0.74,0.195c-0.334,0.23-0.598,0.56-0.918,0.812C735.919,153.155,735.627,153.381,735.849,153.96z"/>
				<path fill="#FFFFFF" d="M806.403,110.204c0.713,0,1.395,0.012,2.076-0.011c0.108-0.005,0.211-0.172,0.315-0.262
					c-0.112-0.107-0.211-0.281-0.341-0.309c-0.252-0.055-0.522-0.012-0.784-0.035c-0.104-0.011-0.204-0.09-0.306-0.137
					c0.05-0.096,0.078-0.211,0.151-0.283c0.262-0.253,0.549-0.48,0.809-0.735c0.639-0.625,0.713-1.331,0.071-1.819
					c-0.3-0.227-0.827-0.213-1.249-0.205c-0.522,0.01-0.77,0.43-0.646,1.105c0.197-0.141,0.392-0.223,0.505-0.368
					c0.288-0.374,0.56-0.545,0.962-0.138c0.352,0.354,0.238,0.689-0.012,1.001c-0.186,0.229-0.443,0.398-0.651,0.612
					C806.892,109.049,806.244,109.342,806.403,110.204z"/>
				<path fill="#FFFFFF" d="M782.906,71.939c0.622-0.318,1.111-0.562,1.593-0.817c0.118-0.063,0.225-0.163,0.314-0.265
					c0.079-0.089,0.13-0.202,0.192-0.307c-0.117-0.021-0.26-0.094-0.35-0.054c-0.551,0.254-1.103,0.516-1.626,0.821
					C782.932,71.376,782.958,71.646,782.906,71.939z"/>
				<path fill="#FFFFFF" d="M741.359,139.97c-0.041-0.054-0.084-0.106-0.126-0.16c-0.131,0.012-0.29-0.02-0.39,0.042
					c-0.475,0.295-0.939,0.608-1.397,0.932c-0.102,0.074-0.151,0.221-0.228,0.332c0.153,0.012,0.337,0.08,0.455,0.021
					c0.415-0.203,0.817-0.437,1.202-0.689C741.062,140.325,741.201,140.131,741.359,139.97z"/>
				<path fill="#FFFFFF" d="M769.825,90.545c0.468,0.297,2.131,0.257,2.416-0.061C771.698,90.174,770.246,90.211,769.825,90.545z"/>
				<path fill="#FFFFFF" d="M772.184,92.748c-0.312-0.464-1.437-0.73-1.857-0.494c-0.123,0.067-0.142,0.319-0.211,0.494
					C770.852,92.748,771.463,92.748,772.184,92.748z"/>
				<path fill="#FFFFFF" d="M784.045,73.67c0.673-0.492,1.456-0.538,1.798-1.26c-0.313-0.09-1.491,0.347-1.715,0.639
					C784.043,73.159,784.08,73.362,784.045,73.67z"/>
				<path fill="#FFFFFF" d="M740.178,138.558c-0.531-0.465-1.192-0.216-2.014,0.761
					C739.059,139.551,739.481,138.719,740.178,138.558z"/>
				<path fill="#FFFFFF" d="M771.964,94.401c-0.687,0-1.234,0-1.853,0c0.418,0.681,0.968,0.517,1.459,0.448
					C771.705,94.83,771.809,94.584,771.964,94.401z"/>
				<path fill="#FFFFFF" d="M786.848,74.084c-0.801,0.03-1.243,0.457-1.742,0.874C785.779,75.209,786.277,74.972,786.848,74.084z"/>
				<path fill="#FFFFFF" d="M737.498,137.512c0.594,0.075,1.264-0.363,1.34-0.881C738.179,136.543,737.553,136.955,737.498,137.512z
					"/>
				<path fill="#FFFFFF" d="M736.63,135.68c0.583,0.016,1.018-0.311,1.085-0.779C737.183,134.819,736.78,135.096,736.63,135.68z"/>
				<path fill="#FFFFFF" d="M787.403,75.9c-0.229,0.357-1.069,0.135-0.836,1.064C786.883,76.539,787.646,76.72,787.403,75.9z"/>
				<path fill="#FFFFFF" d="M770.477,96.49c0.002,0.099,0.005,0.197,0.007,0.295c0.441-0.025,0.88-0.051,1.319-0.077
					c-0.003-0.071-0.005-0.144-0.008-0.218C771.355,96.49,770.916,96.49,770.477,96.49z"/>
				<path fill="#FFFFFF" d="M770.525,98.646c0.015,0.057,0.029,0.113,0.045,0.171c0.296,0.017,0.594,0.033,0.892,0.05
					c0.028-0.053,0.058-0.107,0.088-0.16c-0.134-0.123-0.275-0.354-0.397-0.344C770.937,98.379,770.733,98.544,770.525,98.646z"/>
				<path fill="#FFFFFF" d="M736.467,133.617c0-0.082,0-0.164,0-0.246c-0.183,0-0.39-0.052-0.542,0.016
					c-0.111,0.051-0.149,0.261-0.275,0.51C736.031,133.766,736.249,133.691,736.467,133.617z"/>
				<path fill-rule="evenodd" clip-rule="evenodd" d="M789.554,79.93c2.904,1.673,5.704,3.285,8.604,4.956
					c0.006,0.105,0.037,0.343,0.037,0.58c0,3.214-0.018,6.426,0.014,9.638c0.006,0.494-0.259,0.704-0.574,0.893
					c-1.39,0.83-2.79,1.643-4.198,2.442c-1.194,0.681-2.403,1.335-3.757,2.084c0.612,0.319,1.129,0.624,1.673,0.864
					c1.032,0.455,2.078,0.873,3.118,1.308c0.109,0.046,0.22,0.101,0.334,0.135c0.646,0.196,0.732,0.475,0.334,1.032
					c-0.182,0.253-0.365,0.52-0.48,0.805c-0.173,0.434-0.437,0.288-0.658,0.118c-1.441-1.098-2.868-2.215-4.314-3.306
					c-0.055-0.042-0.317,0.077-0.373,0.181c-0.067,0.126-0.021,0.314-0.021,0.476c0,2.829,0.001,5.657,0.002,8.486
					c0,0.199,0,0.398,0,0.54c-3.154,1.822-6.256,3.61-9.295,5.364c-0.741-0.446-1.449-0.879-2.165-1.3
					c-1.773-1.044-3.549-2.087-5.327-3.123c-0.445-0.259-0.888-0.581-1.372-0.7c-0.268-0.065-0.64,0.201-0.934,0.371
					c-1.146,0.662-2.277,1.347-3.416,2.02c-1.164,0.688-2.329,1.375-3.5,2.053c-0.166,0.098-0.359,0.149-0.727,0.296
					c3.055,1.45,5.961,2.829,8.997,4.269c-0.158,0.357-0.336,0.759-0.519,1.158c-0.013,0.028-0.076,0.03-0.102,0.058
					c-0.191,0.218-0.087,0.751-0.551,0.648c-0.266-0.06-0.472-0.36-0.721-0.527c-1.309-0.888-2.631-1.755-3.932-2.653
					c-0.925-0.637-1.817-1.318-2.732-1.969c-0.159-0.111-0.358-0.165-0.65-0.293c0,3.381,0,6.698,0,9.855
					c-0.737,0.471-1.319,0.868-1.926,1.226c-0.686,0.401-1.399,0.755-2.09,1.149c-0.947,0.541-1.881,1.102-2.824,1.65
					c-0.673,0.392-1.336,0.803-2.03,1.155c-0.607,0.309-1.055-0.178-1.521-0.434c-1.211-0.664-2.41-1.349-3.6-2.05
					c-1.292-0.762-2.56-1.562-3.858-2.312c-0.182-0.105-0.521-0.1-0.711,0c-1.005,0.532-1.988,1.101-2.973,1.671
					c-1.264,0.734-2.53,1.465-3.778,2.229c-0.767,0.47-1.597,0.822-2.197,1.583c-1.079,1.366-2.274,2.641-3.406,3.965
					c-0.855,1.001-1.676,2.033-2.548,3.02c-0.103,0.115-0.505,0.115-0.658,0.01c-0.308-0.215-0.509-0.583-0.812-0.807
					c-0.401-0.297-0.339-0.501,0-0.783c1.266-1.051,2.521-2.111,3.774-3.179c1.155-0.982,2.301-1.978,3.492-3.001
					c-1.697-0.95-3.306-1.831-4.897-2.746c-1.137-0.654-2.229-1.384-3.386-1.998c-0.2-0.105-0.668,0.131-0.923,0.324
					c-1.516,1.155-3.007,2.345-4.594,3.594c-0.399-0.612-0.77-1.151-1.1-1.713c-0.041-0.066,0.096-0.327,0.205-0.377
					c0.638-0.293,1.291-0.553,1.943-0.815c0.681-0.274,1.369-0.53,2.047-0.808c0.453-0.188,0.88-0.471,1.347-0.579
					c0.476-0.11,0.492-0.407,0.494-0.755c0.007-1.009,0.003-2.02,0.003-3.03c0-2.261,0-4.521,0-6.767
					c3.119-1.807,6.216-3.602,9.302-5.389c2.837,1.641,5.698,3.295,8.561,4.951c0.054-0.041,0.106-0.081,0.16-0.121
					c-0.033-0.35-0.06-0.701-0.101-1.051c-0.068-0.556-0.177-1.107-0.217-1.666c-0.151-2.107-0.283-4.219-0.42-6.33
					c-0.049-0.749-0.003-0.809,0.74-0.797c1.376,0.022,1.468-0.301,1.348,1.397c-0.106,1.493-0.235,2.984-0.363,4.478
					c-0.095,1.1-0.208,2.197-0.306,3.296c-0.021,0.232-0.003,0.467-0.003,0.8c0.819-0.472,1.514-0.873,2.21-1.273
					c0.968-0.555,1.936-1.108,2.904-1.664c0.893-0.512,1.785-1.024,2.68-1.534c0.366-0.209,0.465-0.509,0.462-0.931
					c-0.021-2.95,0.036-5.901-0.044-8.85c-0.021-0.787,0.317-1.101,0.882-1.42c1.184-0.671,2.351-1.372,3.531-2.049
					c1.314-0.752,2.637-1.487,3.956-2.229c0.232-0.132,0.493-0.225,0.697-0.39c0.267-0.216,0.461-0.091,0.687,0.045
					c1.522,0.914,3.039,1.844,4.58,2.729c1.161,0.669,2.431,1.176,3.505,1.956c0.587,0.426,0.872,0.031,1.177-0.123
					c0.946-0.479,1.828-1.087,2.75-1.621c0.906-0.529,1.836-1.016,2.742-1.543c0.74-0.432,1.479-0.871,2.184-1.357
					c0.179-0.121,0.317-0.434,0.318-0.658c0.021-3.072,0.015-6.143,0.015-9.214c0-0.24,0-0.479,0-0.626
					c0.892-0.506,1.698-0.958,2.499-1.42c0.932-0.535,1.86-1.076,2.786-1.621c0.74-0.434,1.47-0.883,2.212-1.312
					c0.418-0.242,0.917-0.388,1.261-0.704c0.678-0.629,1.295-1.325,1.897-2.028c1.553-1.811,3.062-3.659,4.633-5.453
					c0.475-0.542,0.451-0.742,1.152-0.033c0.3,0.305,0.728,0.623,0.779,0.98c0.032,0.226-0.52,0.545-0.822,0.805
					c-2.061,1.763-4.127,3.52-6.186,5.285C789.826,79.549,789.723,79.721,789.554,79.93z M726.405,121.416
					c0,1.516-0.001,3.03,0.001,4.545c0,0.323,0.032,0.548,0.432,0.729c0.744,0.339,1.408,0.849,2.116,1.27
					c0.651,0.388,1.319,0.753,1.979,1.129c0.981,0.561,1.957,1.131,2.944,1.681c0.534,0.298,1.043,0.821,1.729,0.447
					c1.301-0.707,2.586-1.439,3.868-2.176c1.191-0.687,2.366-1.404,3.561-2.084c0.584-0.331,0.874-0.708,0.856-1.463
					c-0.062-2.847-0.044-5.695-0.008-8.543c0.007-0.465-0.201-0.699-0.504-0.905c-0.29-0.196-0.628-0.316-0.938-0.484
					c-0.688-0.372-1.379-0.743-2.057-1.134c-0.765-0.441-1.518-0.905-2.275-1.361c-0.693-0.418-1.379-0.854-2.089-1.244
					c-0.334-0.183-0.815-0.485-1.062-0.371c-1.068,0.496-2.079,1.119-3.104,1.707c-1.637,0.939-3.276,1.877-4.9,2.839
					c-0.325,0.192-0.583,0.442-0.567,0.937C726.435,118.427,726.404,119.923,726.405,121.416z M762.117,95.785
					c-0.396,0.207-0.804,0.407-1.198,0.631c-0.729,0.413-1.445,0.842-2.17,1.261c-0.712,0.411-1.426,0.817-2.142,1.222
					c-0.911,0.517-1.833,1.01-2.725,1.555c-0.213,0.13-0.459,0.426-0.461,0.647c-0.032,3.148-0.028,6.298-0.016,9.447
					c0.001,0.158,0.124,0.377,0.257,0.462c0.452,0.285,0.946,0.502,1.402,0.782c0.684,0.418,1.333,0.897,2.027,1.297
					c1.671,0.96,3.36,1.89,4.973,2.794c0.913-0.488,1.78-0.926,2.619-1.408c1.79-1.03,3.58-2.057,5.326-3.154
					c0.291-0.182,0.843-0.188,0.841-0.779c-0.015-3.129-0.007-6.258-0.016-9.387c0-0.145-0.048-0.36-0.15-0.42
					c-0.867-0.519-1.757-1.001-2.634-1.504c-0.723-0.416-1.436-0.852-2.157-1.269c-0.711-0.411-1.43-0.81-2.142-1.219
					C763.219,96.437,762.69,96.122,762.117,95.785z M797.787,90.373c0-1.475,0.027-2.949-0.023-4.423
					c-0.01-0.313-0.238-0.701-0.487-0.907c-0.411-0.34-0.923-0.553-1.389-0.828c-1.155-0.681-2.304-1.372-3.464-2.044
					c-0.884-0.513-1.816-0.951-2.659-1.522c-0.495-0.336-0.954-0.315-1.4-0.115c-0.621,0.279-1.195,0.663-1.783,1.014
					c-1.927,1.15-3.834,2.336-5.793,3.432c-0.371,0.209-0.424,0.416-0.424,0.723c-0.008,3.05-0.019,6.1,0.02,9.149
					c0.003,0.286,0.264,0.683,0.521,0.835c1.331,0.795,2.707,1.512,4.049,2.289c1.277,0.738,2.528,1.527,3.803,2.271
					c0.13,0.076,0.382,0.076,0.512,0c0.906-0.528,1.782-1.108,2.69-1.632c1.733-0.995,3.487-1.953,5.22-2.95
					c0.375-0.217,0.648-0.503,0.628-1.051C797.752,93.201,797.787,91.787,797.787,90.373z M761.709,121.457
					c-0.002,0-0.003,0-0.003,0c0-1.496,0.015-2.99-0.014-4.485c-0.006-0.256-0.126-0.619-0.316-0.742
					c-1.277-0.83-2.577-1.623-3.889-2.396c-1.144-0.675-2.327-1.281-3.463-1.967c-0.543-0.327-0.995-0.675-1.639-0.176
					c-0.511,0.394-1.094,0.696-1.656,1.02c-0.746,0.426-1.509,0.825-2.257,1.249c-0.951,0.54-1.91,1.065-2.832,1.65
					c-0.479,0.307-1.195,0.431-1.196,1.219c-0.005,3.029-0.01,6.061,0.002,9.091c0.002,0.295,0.009,0.577,0.397,0.784
					c1.191,0.635,2.336,1.358,3.501,2.043c1.347,0.79,2.675,1.611,4.054,2.337c0.358,0.188,0.959,0.233,1.309,0.062
					c0.957-0.47,1.824-1.112,2.751-1.644c1.552-0.89,3.125-1.741,4.682-2.624c0.372-0.209,0.589-0.51,0.579-0.996
					C761.688,124.407,761.709,122.932,761.709,121.457z M779.926,95.732c-0.104,0.123-0.153,0.225-0.232,0.271
					c-1.356,0.751-2.72,1.49-4.072,2.249c-1.224,0.688-2.45,1.373-3.641,2.117c-0.312,0.194-0.705,0.592-0.709,0.902
					c-0.052,3.051-0.035,6.102-0.013,9.151c0.001,0.193,0.166,0.46,0.334,0.566c0.972,0.612,1.962,1.196,2.956,1.773
					c1.729,1.002,3.467,1.993,5.204,2.981c0.105,0.062,0.271,0.127,0.359,0.086c0.474-0.229,0.938-0.479,1.393-0.743
					c0.687-0.397,1.358-0.823,2.044-1.224c0.742-0.434,1.496-0.847,2.241-1.276c0.702-0.404,1.385-0.845,2.104-1.213
					c0.461-0.237,0.791-0.476,0.788-1.064c-0.017-2.97-0.02-5.94,0.011-8.91c0.006-0.487-0.215-0.772-0.543-1.008
					c-0.264-0.188-0.594-0.28-0.877-0.443c-0.743-0.431-1.475-0.884-2.219-1.317c-0.676-0.394-1.362-0.773-2.044-1.159
					C781.994,96.897,780.979,96.327,779.926,95.732z"/>
				<path fill-rule="evenodd" clip-rule="evenodd" d="M675.229,145.614c0.14-0.176,0.247-0.404,0.426-0.52
					c0.715-0.455,1.447-0.878,2.18-1.306c0.688-0.398,1.359-0.835,2.078-1.168c1.062-0.492,1.079-0.459,1.077-1.608
					c0-2.948,0.015-5.897-0.015-8.847c-0.004-0.489,0.249-0.698,0.591-0.893c1.125-0.643,2.255-1.275,3.382-1.912
					c1.007-0.57,2.02-1.13,3.016-1.717c0.666-0.393,1.301-0.839,1.967-1.231c0.145-0.086,0.409-0.127,0.542-0.052
					c1.4,0.793,2.787,1.612,4.176,2.43c1.254,0.738,2.513,1.47,3.756,2.23c0.531,0.325,0.986,0.362,1.548,0.012
					c0.928-0.578,1.921-1.054,2.873-1.598c1.258-0.717,2.518-1.436,3.742-2.209c0.211-0.133,0.35-0.534,0.354-0.813
					c0.03-1.878,0.009-3.758,0.026-5.637c0.002-0.177,0.121-0.474,0.247-0.511c0.388-0.113,0.391,0.189,0.391,0.473
					c-0.003,1.676-0.003,3.354,0.002,5.029c0,0.251,0.038,0.502,0.053,0.67c0.38-0.018,0.688-0.031,1.101-0.052
					c0.03-0.302,0.104-0.705,0.104-1.11c0.004-1.494-0.026-2.988-0.015-4.482c0.001-0.218,0.156-0.433,0.241-0.648
					c0.083,0.02,0.166,0.039,0.25,0.057c0.018,0.205,0.052,0.408,0.052,0.61c0.006,1.879,0.014,3.758-0.003,5.636
					c-0.004,0.44,0.191,0.677,0.549,0.888c1.418,0.839,2.822,1.701,4.231,2.554c-0.012,0.072-0.023,0.145-0.036,0.216
					c-0.217,0-0.482,0.082-0.645-0.013c-1.036-0.606-2.049-1.252-3.07-1.885c-0.633-0.393-1.255-0.802-1.899-1.172
					c-0.536-0.309-0.863,0.228-1.25,0.41c-0.76,0.361-1.459,0.846-2.189,1.268c-0.926,0.531-1.859,1.049-2.786,1.579
					c-0.729,0.416-1.444,0.862-2.185,1.258c-0.416,0.224-0.671,0.46-0.666,0.996c0.024,2.948-0.037,5.899,0.043,8.846
					c0.021,0.828-0.333,1.174-0.942,1.507c-1.162,0.636-2.31,1.299-3.463,1.951c-0.96,0.544-1.919,1.087-2.877,1.633
					c-0.399,0.227-0.85,0.404-1.182,0.706c-0.688,0.626-1.24,0.186-1.814-0.138c-0.952-0.538-1.9-1.087-2.841-1.644
					c-0.728-0.431-1.434-0.896-2.167-1.316s-1.55-0.718-2.214-1.222c-0.795-0.604-1.238-0.08-1.837,0.288
					c-0.932,0.572-1.926,1.04-2.885,1.57c-0.491,0.272-0.96,0.587-1.444,0.874c-0.127,0.074-0.274,0.115-0.411,0.172
					C675.337,145.721,675.283,145.667,675.229,145.614z M681.618,136.934c0,1.394,0.003,2.786-0.002,4.179
					c-0.002,0.562-0.015,1.015,0.659,1.351c1.313,0.655,2.538,1.491,3.808,2.234c1.011,0.592,2.032,1.16,3.054,1.731
					c0.583,0.327,1.085,0.704,1.845,0.179c1.181-0.815,2.473-1.474,3.723-2.193c1.226-0.706,2.441-1.434,3.692-2.094
					c0.474-0.25,0.601-0.605,0.601-1.059c0.005-2.907-0.002-5.813-0.002-8.722c0-0.472-0.231-0.764-0.639-0.989
					c-0.948-0.526-1.874-1.092-2.817-1.629c-0.728-0.414-1.473-0.799-2.196-1.222c-0.704-0.41-1.381-0.87-2.091-1.271
					c-0.354-0.2-0.751-0.411-1.142-0.438c-0.279-0.019-0.589,0.246-0.867,0.414c-1.278,0.771-2.539,1.571-3.827,2.324
					c-0.927,0.54-1.88,1.039-2.835,1.525c-0.706,0.358-1.045,0.826-0.987,1.685C681.684,134.265,681.617,135.602,681.618,136.934z
					 M681.519,132.283c-0.014,0.006-0.026,0.013-0.042,0.02c0,3.075,0,6.149,0,9.224c0.016,0,0.028,0,0.042,0
					C681.519,138.445,681.519,135.365,681.519,132.283z"/>
				<path fill-rule="evenodd" clip-rule="evenodd" d="M809.587,106.021c0-0.665,0.005-1.33-0.001-1.996
					c-0.002-0.253-0.019-0.482,0.345-0.501c0.375-0.02,0.377,0.209,0.372,0.466c-0.002,0.061-0.005,0.123,0.003,0.182
					c0.065,0.445,0.046,1.227,0.218,1.272c0.641,0.168,1.347,0.119,2.023,0.087c0.105-0.005,0.248-0.336,0.277-0.529
					c0.047-0.315,0.025-0.644,0.013-0.965s0.124-0.559,0.437-0.49c0.187,0.041,0.459,0.295,0.465,0.459
					c0.037,1.331,0.037,2.663,0,3.992c-0.006,0.172-0.289,0.337-0.445,0.505c-0.151-0.167-0.398-0.315-0.434-0.505
					c-0.068-0.37-0.039-0.764-0.015-1.145c0.029-0.43-0.164-0.592-0.57-0.56c-0.039,0.004-0.079-0.002-0.12,0
					c-0.56,0.029-1.288-0.14-1.632,0.148c-0.298,0.25-0.139,1.022-0.231,1.556c-0.03,0.18-0.193,0.449-0.335,0.476
					c-0.382,0.073-0.374-0.242-0.372-0.516c0.005-0.646,0.001-1.291,0.001-1.937C809.586,106.021,809.587,106.021,809.587,106.021z"
					/>
				<path fill-rule="evenodd" clip-rule="evenodd" d="M805.666,106.059c0.14,1.799-1.246,2.576-2.35,2.624
					c-1.358,0.06-2.656-1.231-2.532-2.575c0.139-1.502,0.666-2.662,2.573-2.672C804.645,103.43,805.835,104.471,805.666,106.059z
					 M801.621,105.952c0.021,0.003,0.045,0.006,0.066,0.01c0,0.181-0.001,0.361,0,0.543c0.005,0.567,0.253,1.027,0.752,1.265
					c0.668,0.317,1.314,0.342,1.94-0.225c0.593-0.538,0.621-1.185,0.582-1.883c-0.032-0.555-0.582-1.387-0.993-1.455
					c-1.088-0.179-1.687-0.15-2.105,0.648C801.694,105.174,801.696,105.584,801.621,105.952z"/>
				<path fill-rule="evenodd" clip-rule="evenodd" d="M708.156,113.809c1.369-0.129,2.406,1.004,2.377,2.63
					c-0.031,1.772-1.078,2.563-2.393,2.647c-1.351,0.087-2.539-1.219-2.459-2.65C705.771,114.844,706.57,113.711,708.156,113.809z
					 M709.791,116.471c0-0.13,0.001-0.211-0.001-0.291c-0.024-1.103-0.611-1.693-1.679-1.693c-1.023,0-1.582,0.576-1.6,1.654
					c-0.006,0.301-0.007,0.604,0.012,0.905c0.057,0.911,1.368,1.646,2.073,1.318C709.414,117.986,709.887,117.371,709.791,116.471z"
					/>
				<path fill-rule="evenodd" clip-rule="evenodd" d="M672.231,150.086c-1.397,0.135-2.428-1.079-2.361-2.573
					c0.069-1.604,1.023-2.726,2.429-2.731c1.326-0.006,2.312,1.213,2.353,2.775C674.693,149.138,673.628,150.216,672.231,150.086z
					 M670.503,147.528c0.171,0.46,0.266,0.971,0.53,1.368c0.429,0.643,1.727,0.65,2.324,0.145c0.773-0.657,0.617-1.516,0.487-2.311
					c-0.149-0.918-1.287-1.383-2.144-1.07C670.801,145.987,670.602,146.645,670.503,147.528z"/>
				<path fill-rule="evenodd" clip-rule="evenodd" d="M714.634,131.977c-0.01-1.012,0.404-1.74,1.185-2.322
					c1.057-0.785,3.134-0.025,3.552,1.201c0.372,1.095,0.204,2.023-0.403,2.931c-0.401,0.601-1.639,0.928-2.34,0.757
					c-0.741-0.181-1.312-0.545-1.625-1.218C714.807,132.909,714.751,132.428,714.634,131.977z M718.805,132.022
					c-0.046-0.014-0.091-0.028-0.136-0.042c0-0.161-0.01-0.323,0.001-0.483c0.045-0.61-0.255-1.121-0.758-1.296
					c-0.615-0.214-1.32-0.346-1.908,0.219c-0.795,0.766-0.835,2.206-0.06,3.005c0.708,0.729,1.771,0.734,2.371-0.075
					C718.585,132.987,718.648,132.47,718.805,132.022z"/>
				<path fill-rule="evenodd" clip-rule="evenodd" d="M668.195,145.07c0.242,0,0.415,0,0.64,0c0,1.635,0,3.257,0,4.922
					c-0.188,0.013-0.362,0.023-0.638,0.044c0-0.579-0.032-1.119,0.008-1.654c0.042-0.546-0.23-0.731-0.708-0.729
					c-2.117,0.015-1.814-0.263-1.842,1.696c-0.004,0.299,0.13,0.697-0.412,0.682c-0.478-0.014-0.52-0.328-0.517-0.707
					c0.01-1.289,0.005-2.578,0.082-3.868c0,1.308,0,2.616,0,3.924c0.029,0,0.06,0,0.088,0c0-1.242-0.004-2.484,0.002-3.727
					c0.004-0.663,0.051-0.69,0.761-0.479c0,0.402,0.011,0.824-0.005,1.244c-0.011,0.346,0.102,0.533,0.481,0.523
					c0.524-0.015,1.051-0.006,1.576-0.003c0.354,0.004,0.509-0.152,0.489-0.519C668.18,145.981,668.195,145.54,668.195,145.07z"/>
				<path fill-rule="evenodd" clip-rule="evenodd" d="M800.006,104.861c-0.339,0.072-0.541,0.19-0.789-0.197
					c-0.418-0.652-1.123-0.661-1.81-0.465c-0.608,0.176-0.855,0.706-0.964,1.24c-0.129,0.628-0.078,1.261,0.283,1.857
					c0.309,0.512,0.848,0.728,1.294,0.709c0.5-0.022,1.12-0.203,1.293-0.906c0.04-0.165,0.323-0.271,0.532-0.434
					c0.249,0.74-0.168,1.561-0.785,1.785c-1.478,0.537-2.498,0.043-3.215-1.176c-0.582-0.989,0.053-3.115,1.079-3.672
					c0.847-0.458,2.472-0.072,2.964,0.724C799.974,104.465,799.964,104.661,800.006,104.861z"/>
				<path fill-rule="evenodd" clip-rule="evenodd" d="M741.694,152.918c-0.729,0-1.36,0-2.044,0c0-0.375,0-0.66,0-1.031
					c0.966,0,1.907-0.027,2.846,0.014c0.438,0.018,0.556,0.707,0.168,1.179c-0.819,1.002-1.244,2.138-1.378,3.419
					c-0.021,0.205-0.407,0.371-0.624,0.556c-0.116-0.19-0.331-0.378-0.333-0.569C740.312,155.188,740.899,154.102,741.694,152.918z"
					/>
				<path fill-rule="evenodd" clip-rule="evenodd" d="M735.849,153.96c-0.222-0.579,0.07-0.805,0.379-1.05
					c0.32-0.253,0.584-0.582,0.918-0.812c0.201-0.139,0.49-0.195,0.74-0.195c0.082,0,0.232,0.293,0.234,0.454
					c0.019,1.37,0.007,2.741,0.013,4.111c0.002,0.39-0.135,0.594-0.563,0.599c-0.473,0.004-0.448-0.315-0.452-0.615
					c-0.011-0.806,0-1.611-0.014-2.418c-0.002-0.148-0.076-0.292-0.118-0.438c-0.129,0.062-0.255,0.146-0.392,0.186
					C736.356,153.854,736.111,153.898,735.849,153.96z"/>
				<path fill-rule="evenodd" clip-rule="evenodd" d="M806.403,110.204c-0.159-0.862,0.488-1.155,0.901-1.583
					c0.208-0.214,0.466-0.383,0.651-0.612c0.25-0.312,0.363-0.647,0.012-1.001c-0.402-0.407-0.674-0.236-0.962,0.138
					c-0.113,0.146-0.308,0.228-0.505,0.368c-0.124-0.676,0.123-1.096,0.646-1.105c0.422-0.008,0.949-0.021,1.249,0.205
					c0.642,0.488,0.567,1.194-0.071,1.819c-0.26,0.255-0.547,0.482-0.809,0.735c-0.073,0.072-0.102,0.188-0.151,0.283
					c0.102,0.047,0.201,0.126,0.306,0.137c0.262,0.023,0.532-0.02,0.784,0.035c0.13,0.027,0.229,0.201,0.341,0.309
					c-0.104,0.09-0.207,0.257-0.315,0.262C807.798,110.216,807.116,110.204,806.403,110.204z"/>
				<path fill-rule="evenodd" clip-rule="evenodd" d="M782.906,71.939c0.052-0.293,0.025-0.563,0.124-0.621
					c0.523-0.306,1.075-0.567,1.626-0.821c0.09-0.04,0.232,0.033,0.35,0.054c-0.062,0.104-0.113,0.218-0.192,0.307
					c-0.09,0.102-0.196,0.201-0.314,0.265C784.018,71.378,783.528,71.621,782.906,71.939z"/>
				<path fill-rule="evenodd" clip-rule="evenodd" d="M741.359,139.97c-0.158,0.161-0.298,0.355-0.483,0.478
					c-0.385,0.253-0.787,0.486-1.202,0.689c-0.118,0.059-0.302-0.01-0.455-0.021c0.076-0.111,0.126-0.258,0.228-0.332
					c0.458-0.323,0.923-0.637,1.397-0.932c0.1-0.062,0.259-0.03,0.39-0.042C741.275,139.863,741.318,139.916,741.359,139.97z"/>
				<path fill-rule="evenodd" clip-rule="evenodd" d="M769.825,90.545c0.421-0.334,1.873-0.371,2.416-0.061
					C771.956,90.802,770.293,90.842,769.825,90.545z"/>
				<path fill-rule="evenodd" clip-rule="evenodd" d="M772.184,92.748c-0.721,0-1.332,0-2.068,0
					c0.069-0.175,0.088-0.427,0.211-0.494C770.747,92.018,771.871,92.284,772.184,92.748z"/>
				<path fill-rule="evenodd" clip-rule="evenodd" d="M784.045,73.67c0.035-0.308-0.002-0.511,0.083-0.621
					c0.224-0.292,1.401-0.729,1.715-0.639C785.501,73.132,784.718,73.178,784.045,73.67z"/>
				<path fill-rule="evenodd" clip-rule="evenodd" d="M740.178,138.558c-0.696,0.161-1.119,0.993-2.014,0.761
					C738.985,138.342,739.646,138.093,740.178,138.558z"/>
				<path fill-rule="evenodd" clip-rule="evenodd" d="M771.964,94.401c-0.155,0.183-0.259,0.429-0.394,0.448
					c-0.491,0.068-1.041,0.232-1.459-0.448C770.729,94.401,771.277,94.401,771.964,94.401z"/>
				<path fill-rule="evenodd" clip-rule="evenodd" d="M786.848,74.084c-0.57,0.888-1.068,1.125-1.742,0.874
					C785.604,74.541,786.047,74.114,786.848,74.084z"/>
				<path fill-rule="evenodd" clip-rule="evenodd" d="M737.498,137.512c0.055-0.557,0.681-0.969,1.34-0.881
					C738.762,137.148,738.092,137.587,737.498,137.512z"/>
				<path fill-rule="evenodd" clip-rule="evenodd" d="M736.63,135.68c0.15-0.584,0.553-0.86,1.085-0.779
					C737.647,135.369,737.213,135.695,736.63,135.68z"/>
				<path fill-rule="evenodd" clip-rule="evenodd" d="M787.403,75.9c0.243,0.819-0.521,0.639-0.836,1.064
					C786.334,76.035,787.174,76.258,787.403,75.9z"/>
				<path fill-rule="evenodd" clip-rule="evenodd" d="M770.477,96.49c0.439,0,0.879,0,1.318,0c0.003,0.074,0.005,0.146,0.008,0.218
					c-0.439,0.026-0.878,0.052-1.319,0.077C770.481,96.688,770.479,96.589,770.477,96.49z"/>
				<path fill-rule="evenodd" clip-rule="evenodd" d="M770.525,98.646c0.208-0.103,0.411-0.268,0.627-0.283
					c0.122-0.01,0.264,0.221,0.397,0.344c-0.03,0.053-0.06,0.107-0.088,0.16c-0.298-0.017-0.596-0.033-0.892-0.05
					C770.555,98.76,770.54,98.703,770.525,98.646z"/>
				<path fill-rule="evenodd" clip-rule="evenodd" d="M736.467,133.617c-0.218,0.074-0.436,0.148-0.817,0.279
					c0.126-0.249,0.164-0.459,0.275-0.51c0.152-0.067,0.359-0.016,0.542-0.016C736.467,133.453,736.467,133.535,736.467,133.617z"/>
				<path fill-rule="evenodd" clip-rule="evenodd" fill="#FFFFFF" d="M726.404,121.416c0-1.493,0.03-2.989-0.018-4.482
					c-0.016-0.494,0.242-0.744,0.567-0.937c1.624-0.962,3.264-1.899,4.9-2.839c1.025-0.588,2.036-1.211,3.104-1.707
					c0.246-0.114,0.728,0.188,1.062,0.371c0.71,0.39,1.396,0.826,2.089,1.244c0.758,0.456,1.511,0.92,2.275,1.361
					c0.678,0.391,1.369,0.762,2.057,1.134c0.311,0.168,0.648,0.288,0.938,0.484c0.303,0.206,0.511,0.44,0.504,0.905
					c-0.036,2.848-0.055,5.696,0.008,8.543c0.018,0.755-0.272,1.132-0.856,1.463c-1.194,0.68-2.369,1.397-3.561,2.084
					c-1.282,0.736-2.567,1.469-3.868,2.176c-0.687,0.374-1.195-0.149-1.729-0.447c-0.987-0.55-1.963-1.12-2.944-1.681
					c-0.659-0.376-1.327-0.741-1.979-1.129c-0.708-0.421-1.372-0.931-2.116-1.27c-0.399-0.182-0.432-0.406-0.432-0.729
					C726.404,124.446,726.405,122.932,726.404,121.416z"/>
				<path fill-rule="evenodd" clip-rule="evenodd" fill="#FFFFFF" d="M762.117,95.785c0.573,0.337,1.102,0.651,1.636,0.958
					c0.712,0.409,1.431,0.808,2.142,1.219c0.722,0.417,1.435,0.853,2.157,1.269c0.877,0.503,1.767,0.985,2.634,1.504
					c0.103,0.06,0.15,0.275,0.15,0.42c0.009,3.129,0.001,6.258,0.016,9.387c0.002,0.592-0.55,0.598-0.841,0.779
					c-1.746,1.098-3.536,2.124-5.326,3.154c-0.839,0.482-1.706,0.92-2.619,1.408c-1.612-0.904-3.302-1.834-4.973-2.794
					c-0.694-0.399-1.344-0.879-2.027-1.297c-0.456-0.28-0.95-0.497-1.402-0.782c-0.133-0.085-0.256-0.304-0.257-0.462
					c-0.013-3.149-0.017-6.299,0.016-9.447c0.002-0.222,0.248-0.518,0.461-0.647c0.892-0.545,1.813-1.038,2.725-1.555
					c0.716-0.404,1.43-0.811,2.142-1.222c0.725-0.419,1.441-0.848,2.17-1.261C761.313,96.192,761.722,95.992,762.117,95.785z"/>
				<path fill-rule="evenodd" clip-rule="evenodd" fill="#FFFFFF" d="M797.787,90.373c0,1.414-0.035,2.828,0.019,4.24
					c0.021,0.548-0.253,0.834-0.628,1.051c-1.732,0.997-3.486,1.955-5.22,2.95c-0.908,0.523-1.784,1.104-2.69,1.632
					c-0.13,0.076-0.382,0.076-0.512,0c-1.274-0.744-2.525-1.533-3.803-2.271c-1.342-0.777-2.718-1.494-4.049-2.289
					c-0.257-0.152-0.518-0.549-0.521-0.835c-0.038-3.05-0.027-6.1-0.02-9.149c0-0.307,0.053-0.514,0.424-0.723
					c1.959-1.096,3.866-2.281,5.793-3.432c0.588-0.351,1.162-0.734,1.783-1.014c0.446-0.2,0.905-0.221,1.4,0.115
					c0.843,0.571,1.775,1.01,2.659,1.522c1.16,0.672,2.309,1.363,3.464,2.044c0.466,0.275,0.978,0.488,1.389,0.828
					c0.249,0.206,0.478,0.594,0.487,0.907C797.814,87.424,797.787,88.898,797.787,90.373z"/>
				<path fill-rule="evenodd" clip-rule="evenodd" fill="#FFFFFF" d="M761.709,121.457c0,1.475-0.021,2.95,0.01,4.424
					c0.01,0.486-0.207,0.787-0.579,0.996c-1.557,0.883-3.13,1.734-4.682,2.624c-0.927,0.531-1.794,1.174-2.751,1.644
					c-0.35,0.172-0.95,0.127-1.309-0.062c-1.379-0.726-2.707-1.547-4.054-2.337c-1.165-0.685-2.31-1.408-3.501-2.043
					c-0.389-0.207-0.396-0.489-0.397-0.784c-0.012-3.03-0.007-6.062-0.002-9.091c0.001-0.788,0.718-0.912,1.196-1.219
					c0.922-0.585,1.881-1.11,2.832-1.65c0.748-0.424,1.511-0.823,2.257-1.249c0.562-0.323,1.146-0.626,1.656-1.02
					c0.644-0.499,1.096-0.151,1.639,0.176c1.136,0.686,2.319,1.292,3.463,1.967c1.312,0.773,2.611,1.566,3.889,2.396
					c0.19,0.123,0.311,0.486,0.316,0.742c0.028,1.495,0.014,2.989,0.014,4.485C761.706,121.457,761.707,121.457,761.709,121.457z"/>
				<path fill-rule="evenodd" clip-rule="evenodd" fill="#FFFFFF" d="M779.926,95.732c1.054,0.595,2.068,1.165,3.085,1.739
					c0.682,0.386,1.368,0.766,2.044,1.159c0.744,0.434,1.476,0.887,2.219,1.317c0.283,0.163,0.613,0.256,0.877,0.443
					c0.328,0.235,0.549,0.521,0.543,1.008c-0.03,2.97-0.027,5.94-0.011,8.91c0.003,0.589-0.327,0.827-0.788,1.064
					c-0.72,0.368-1.402,0.809-2.104,1.213c-0.745,0.43-1.499,0.843-2.241,1.276c-0.686,0.4-1.357,0.826-2.044,1.224
					c-0.454,0.265-0.919,0.515-1.393,0.743c-0.088,0.041-0.254-0.024-0.359-0.086c-1.737-0.988-3.475-1.979-5.204-2.981
					c-0.994-0.577-1.984-1.161-2.956-1.773c-0.168-0.106-0.333-0.373-0.334-0.566c-0.022-3.05-0.039-6.101,0.013-9.151
					c0.004-0.311,0.396-0.708,0.709-0.902c1.19-0.744,2.417-1.43,3.641-2.117c1.353-0.759,2.716-1.498,4.072-2.249
					C779.772,95.957,779.821,95.855,779.926,95.732z M780.369,113.981c-2.566-1.501-4.982-3.001-7.594-4.218
					c-0.033,0.198-0.021,0.378,0.067,0.431c0.866,0.513,1.749,0.999,2.62,1.505c1.101,0.639,2.174,1.33,3.3,1.918
					C779.197,113.844,779.59,114.432,780.369,113.981z"/>
				<path fill-rule="evenodd" clip-rule="evenodd" fill="#FFFFFF" d="M681.617,136.934c0-1.332,0.066-2.669-0.023-3.995
					c-0.058-0.858,0.281-1.326,0.987-1.685c0.955-0.486,1.908-0.985,2.835-1.525c1.288-0.753,2.549-1.553,3.827-2.324
					c0.278-0.168,0.588-0.433,0.867-0.414c0.391,0.027,0.787,0.238,1.142,0.438c0.71,0.401,1.387,0.861,2.091,1.271
					c0.724,0.423,1.469,0.808,2.196,1.222c0.943,0.537,1.869,1.103,2.817,1.629c0.407,0.226,0.639,0.518,0.639,0.989
					c0,2.908,0.007,5.814,0.002,8.722c0,0.453-0.127,0.809-0.601,1.059c-1.251,0.66-2.467,1.388-3.692,2.094
					c-1.25,0.72-2.542,1.378-3.723,2.193c-0.76,0.525-1.262,0.148-1.845-0.179c-1.021-0.571-2.043-1.14-3.054-1.731
					c-1.27-0.743-2.494-1.579-3.808-2.234c-0.674-0.336-0.661-0.788-0.659-1.351C681.621,139.72,681.618,138.327,681.617,136.934z
					 M683.437,137.008c0-1.249,0.011-2.499-0.014-3.747c-0.003-0.188-0.147-0.512-0.271-0.534c-0.412-0.078-0.348,0.28-0.348,0.528
					c-0.003,2.456-0.007,4.915,0.014,7.372c0.001,0.175,0.195,0.349,0.301,0.523c0.105-0.172,0.299-0.343,0.303-0.518
					C683.448,139.426,683.437,138.216,683.437,137.008z M689.969,145.279c0.18,0.045,0.353,0.147,0.434,0.098
					c2.405-1.46,4.934-2.723,7.237-4.367c-0.17-0.106-0.339-0.188-0.431-0.137c-2.291,1.291-4.576,2.591-6.854,3.904
					C690.201,144.867,690.119,145.08,689.969,145.279z M697.54,133.064c0.044-0.103,0.087-0.206,0.132-0.311
					c-2.45-1.419-4.901-2.837-7.351-4.256c-0.055,0.027-0.109,0.057-0.164,0.084c0.073,0.17,0.099,0.417,0.227,0.496
					c0.989,0.61,1.996,1.19,3.002,1.774c1.075,0.624,2.151,1.249,3.239,1.854C696.908,132.864,697.233,132.947,697.54,133.064z"/>
				<path fill-rule="evenodd" clip-rule="evenodd" fill="#FFFFFF" d="M681.519,132.283c0,3.082,0,6.162,0,9.243
					c-0.014,0-0.026,0-0.042,0c0-3.074,0-6.148,0-9.224C681.492,132.296,681.505,132.289,681.519,132.283z"/>
				<path fill-rule="evenodd" clip-rule="evenodd" fill="#FFFFFF" d="M801.621,105.952c0.075-0.368,0.073-0.778,0.242-1.097
					c0.419-0.799,1.018-0.827,2.105-0.648c0.411,0.068,0.961,0.9,0.993,1.455c0.039,0.698,0.011,1.345-0.582,1.883
					c-0.626,0.566-1.272,0.542-1.94,0.225c-0.499-0.237-0.747-0.697-0.752-1.265c-0.001-0.182,0-0.362,0-0.543
					C801.666,105.958,801.643,105.955,801.621,105.952z"/>
				<path fill-rule="evenodd" clip-rule="evenodd" fill="#FFFFFF" d="M709.791,116.471c0.096,0.9-0.377,1.516-1.194,1.894
					c-0.705,0.327-2.017-0.407-2.073-1.318c-0.019-0.302-0.018-0.604-0.012-0.905c0.018-1.078,0.576-1.654,1.6-1.654
					c1.067,0,1.654,0.591,1.679,1.693C709.792,116.26,709.791,116.341,709.791,116.471z"/>
				<path fill-rule="evenodd" clip-rule="evenodd" fill="#FFFFFF" d="M670.503,147.528c0.099-0.884,0.298-1.541,1.198-1.868
					c0.856-0.312,1.994,0.152,2.144,1.07c0.13,0.795,0.286,1.653-0.487,2.311c-0.598,0.506-1.896,0.498-2.324-0.145
					C670.769,148.499,670.674,147.988,670.503,147.528z"/>
				<path fill-rule="evenodd" clip-rule="evenodd" fill="#FFFFFF" d="M718.805,132.022c-0.156,0.447-0.22,0.965-0.489,1.327
					c-0.601,0.81-1.663,0.804-2.371,0.075c-0.775-0.799-0.735-2.239,0.06-3.005c0.588-0.564,1.293-0.433,1.908-0.219
					c0.503,0.175,0.803,0.686,0.758,1.296c-0.011,0.16-0.001,0.322-0.001,0.483C718.714,131.994,718.759,132.009,718.805,132.022z"
					/>
				<path fill-rule="evenodd" clip-rule="evenodd" d="M780.369,113.981c-0.779,0.45-1.172-0.138-1.606-0.364
					c-1.126-0.588-2.199-1.279-3.3-1.918c-0.871-0.506-1.754-0.992-2.62-1.505c-0.089-0.053-0.101-0.232-0.067-0.431
					C775.387,110.98,777.803,112.48,780.369,113.981z"/>
				<path fill-rule="evenodd" clip-rule="evenodd" d="M683.437,137.008c0,1.208,0.012,2.418-0.015,3.625
					c-0.004,0.175-0.197,0.346-0.303,0.518c-0.105-0.175-0.3-0.349-0.301-0.523c-0.021-2.457-0.017-4.916-0.014-7.372
					c0-0.248-0.064-0.606,0.348-0.528c0.123,0.022,0.268,0.346,0.271,0.534C683.447,134.509,683.437,135.759,683.437,137.008z"/>
				<path fill-rule="evenodd" clip-rule="evenodd" d="M689.969,145.279c0.15-0.199,0.232-0.412,0.387-0.502
					c2.277-1.313,4.562-2.613,6.854-3.904c0.092-0.051,0.261,0.03,0.431,0.137c-2.304,1.645-4.832,2.907-7.237,4.367
					C690.321,145.427,690.148,145.324,689.969,145.279z"/>
				<path fill-rule="evenodd" clip-rule="evenodd" d="M697.54,133.064c-0.307-0.117-0.632-0.2-0.915-0.357
					c-1.088-0.605-2.164-1.23-3.239-1.854c-1.006-0.584-2.013-1.164-3.002-1.774c-0.128-0.079-0.153-0.326-0.227-0.496
					c0.055-0.027,0.109-0.057,0.164-0.084c2.449,1.419,4.9,2.837,7.351,4.256C697.627,132.858,697.584,132.962,697.54,133.064z"/>
			</g>
		</g>
	</g>
</g>
<g>
	<g>
		<path d="M795.603,153.083c12.306,13.084,24.611,26.169,36.917,39.254c0.442,0.471,1.148-0.238,0.707-0.707
			c-12.306-13.084-24.611-26.169-36.917-39.254C795.867,151.905,795.161,152.614,795.603,153.083L795.603,153.083z"/>
	</g>
</g>
<g>
	<g>
		<path d="M795.603,153.083c12.306,13.084,24.611,26.169,36.917,39.254c0.442,0.471,1.148-0.238,0.707-0.707
			c-12.306-13.084-24.611-26.169-36.917-39.254C795.867,151.905,795.161,152.614,795.603,153.083L795.603,153.083z"/>
	</g>
</g>
<g>
</g>
<g>
</g>
<g>
</g>
<g>
</g>
<g>
</g>
<g>
</g>
</svg>
