<?xml version="1.0" encoding="utf-8"?>
<!-- Generator: Adobe Illustrator 16.0.4, SVG Export Plug-In . SVG Version: 6.00 Build 0)  -->
<!DOCTYPE svg PUBLIC "-//W3C//DTD SVG 1.1//EN" "http://www.w3.org/Graphics/SVG/1.1/DTD/svg11.dtd">
<svg version="1.1" id="bubble3" xmlns="http://www.w3.org/2000/svg" xmlns:xlink="http://www.w3.org/1999/xlink" x="0px" y="0px"
	 width="2554.794px" height="1700.788px" viewBox="0 0 2554.794 1700.788" enable-background="new 0 0 2554.794 1700.788"
	 xml:space="preserve">
<g>
	<g>
		<path fill="#F9FCFC" d="M1658.081,391.902c0-78.483,78.241-142.107,174.758-142.107c96.518,0,174.76,63.624,174.76,142.107
			c0,78.484-78.242,142.107-174.76,142.107c-19.773,0-6.36,1.887-24.084-3.035c7.667-1.143-86.925,102.266-88.667,96.561
			c3.592-17.396,23.01-107.377,17.731-116.354C1689.829,485.849,1658.081,441.894,1658.081,391.902z"/>
		<g>
			<path fill="#1D1B3A" d="M1660.211,391.902c0.235-44.088,25.71-82.414,61.23-106.93c40.653-28.057,92.591-37.713,141.099-31
				c45.473,6.293,90.224,28.405,118.129,65.6c25.751,34.322,32.098,79.543,14.938,119.102
				c-15.115,34.845-45.753,60.658-79.828,76.027c-19.415,8.758-40.442,13.959-61.594,16.129
				c-10.373,1.064-20.741,0.718-31.129,1.277c-4.723,0.254-9.074-1.877-13.734-3.188c-0.188,1.396-0.378,2.79-0.566,4.185
				c-1.426,0.129-1.371-2.839-1.756-1.767c0.13-0.363-0.377,0.674-0.493,0.873c-0.817,1.396-1.79,2.707-2.751,4.007
				c-3.089,4.182-6.447,8.17-9.795,12.145c-9.642,11.445-19.667,22.572-29.799,33.582c-9.883,10.738-19.901,21.372-30.294,31.619
				c-3.392,3.345-6.824,6.669-10.465,9.743c-0.914,0.772-1.851,1.521-2.874,2.146c-0.543,0.331-0.573,0.234-0.071,0.179
				c2.335-0.262,1.466,3.52,1.939,1.243c0.134-0.645,0.269-1.289,0.403-1.935c6.617-31.67,13.758-63.527,17.275-95.724
				c0.562-5.137,1.227-10.551,0.548-15.71c-0.171-1.304-0.411-3.462-1.729-4.165c-5.916-3.154-11.648-6.595-17.205-10.348
				c-20.649-13.947-37.994-32.824-49.193-55.137C1664.417,427.761,1660.321,409.881,1660.211,391.902
				c-0.017-2.746-4.277-2.748-4.26,0c0.296,48.538,29.885,89.848,70.014,114.948c2.628,1.644,5.319,3.184,8.028,4.688
				c1.402,0.778,2.017,0.45,2.32,1.812c0.451,2.016,0.302,4.233,0.241,6.279c-0.209,7.009-1.198,14.015-2.194,20.945
				c-2.6,18.083-6.077,36.045-9.649,53.957c-1.487,7.461-3.021,14.912-4.573,22.36c-0.467,2.237-3.606,10.572-1.426,12.327
				c4.093,3.293,13.379-7.997,15.711-10.246c21.127-20.376,40.964-42.342,60.036-64.639c4.83-5.646,9.681-11.338,14.008-17.386
				c1.046-1.461,5.579-8.583,0.288-8.104c-2.315,0.209-2.996,3.501-0.566,4.185c5.404,1.519,9.994,3.601,15.592,3.299
				c12.175-0.655,24.228-0.407,36.368-1.913c23.135-2.869,45.689-9.684,66.495-20.198c37.236-18.817,68.457-51.414,79.27-92.367
				c10.572-40.041-1.75-81.664-28.183-112.717c-29.337-34.465-73.349-53.94-117.582-59.743
				c-47.315-6.208-97.294,3.706-137.527,29.681c-34.619,22.352-60.773,57.669-65.87,99.146c-0.558,4.539-0.775,9.114-0.8,13.686
				C1655.937,394.65,1660.196,394.649,1660.211,391.902z"/>
		</g>
	</g>
	<g>
		<g>
			<path fill="#EFEA77" d="M1854.002,440.113c-11.111,4.273-29.437-0.492-29.437-0.492s-5.444-21.293-19.094-44.752
				c-18.824-32.354-6.849-85.299,36.967-81.473c45.674,3.99,53.744,50.354,32.152,85.945
				C1858.397,426.038,1854.82,439.798,1854.002,440.113z"/>
			<g>
				<path fill="#1D1B3A" d="M1853.436,438.058c-8.859,3.098-19.357,1.794-28.304-0.492c0.496,0.496,0.992,0.992,1.488,1.488
					c-1.713-6.619-4.15-13.081-6.699-19.414c-2.383-5.922-5.076-11.711-7.978-17.396c-2.862-5.609-6.31-10.873-8.612-16.754
					c-6.572-16.789-6.079-37.373,3.373-52.974c10.899-17.99,33.021-20.43,51.378-13.366c18.931,7.285,26.854,26.892,25.641,46.001
					c-1.098,17.286-10.091,30.906-18.192,45.619c-3.554,6.455-6.816,13.073-9.739,19.838c-0.802,1.855-1.568,3.727-2.322,5.602
					c-0.39,0.968-1.711,2.861-0.542,2.062c-2.253,1.54-0.125,5.234,2.15,3.68c2.711-1.854,3.888-8.05,5.103-10.826
					c4.823-11.022,10.747-21.482,16.902-31.803c9.567-16.043,13.925-36.087,9.009-54.354c-9.547-35.475-61.519-46.846-82.53-15.443
					c-10.173,15.203-10.829,35.885-5.757,52.962c3.623,12.196,11.347,22.894,16.426,34.508c3.271,7.479,6.234,15.274,8.281,23.191
					c0.183,0.705,0.781,1.308,1.488,1.488c9.652,2.466,21.008,3.834,30.569,0.492
					C1857.145,441.266,1856.036,437.15,1853.436,438.058z"/>
			</g>
		</g>
		<g>
			<path fill="#F4EDE1" d="M1864.654,369.812c5.257,10.493-11.072,8.377-12.282-3.904c6.778,7.672-13.219,19.133-12.643,0.693
				c6.38,7.222-9.569,16.898-10.055,0.893c0.57,3.826-1.051,7.9-5.064,9.27"/>
			<g>
				<path fill="#1D1B3A" d="M1862.814,370.887c1.585,3.495-0.287,4.224-3.295,2.731c-3.192-1.583-4.624-4.945-5.093-8.277
					c-1.188,0.691-2.374,1.382-3.561,2.072c3.179,4.021-9.072,13.005-9.007-0.812c-1.212,0.502-2.424,1.004-3.636,1.506
					c1.648,2.095,0.629,4.317-1.459,5.549c-3.791,2.236-4.817-3.833-4.96-6.162c-1.42,0-2.84,0-4.26,0
					c0.292,3.448-0.683,5.959-4.01,7.43c-2.509,1.109-0.338,4.779,2.15,3.68c4.553-2.014,6.531-6.255,6.119-11.109
					c-0.229-2.704-4.429-2.761-4.26,0c0.347,5.692,3.326,12.743,10.298,10.318c5.619-1.955,6.838-8.34,3.393-12.717
					c-1.205-1.532-3.628-0.189-3.636,1.506c-0.033,6.854,3.625,14.366,11.641,11.383c5.737-2.137,8.613-8.556,4.638-13.582
					c-1.5-1.897-3.815,0.262-3.561,2.072c0.872,6.185,5.229,11.482,11.633,12.194c6.204,0.69,6.362-5.92,4.544-9.932
					C1865.36,366.238,1861.689,368.406,1862.814,370.887L1862.814,370.887z"/>
			</g>
		</g>
		<g>
			<g>
				<path fill="#1D1B3A" d="M1865.717,366.276c-4.038,8.681-6.571,18.317-9.698,27.347c-3.818,11.024-7.217,22.393-11.837,33.116
					c-1.074,2.495,2.595,4.667,3.68,2.15c4.334-10.062,7.592-20.659,11.179-31c3.323-9.579,6.241-20.619,10.356-29.463
					C1870.548,365.952,1866.875,363.787,1865.717,366.276L1865.717,366.276z"/>
			</g>
		</g>
		<g>
			<g>
				<path fill="#1D1B3A" d="M1817.741,367.327c1.51,9.625,4.888,19.23,7.366,28.635c2.929,11.11,6.348,22.263,8.456,33.567
					c0.504,2.698,4.609,1.553,4.109-1.133c-2.042-10.944-5.342-21.74-8.175-32.497c-2.569-9.757-6.083-19.721-7.647-29.705
					C1821.426,363.486,1817.32,364.64,1817.741,367.327L1817.741,367.327z"/>
			</g>
		</g>
		<g>
			<g>
				<path fill="#1D1B3A" d="M1853.554,445.419c-4.429,2.04-10.725,1.23-15.434,0.991c-4.559-0.232-9.822-0.303-14.155-1.911
					c-2.581-0.957-3.685,3.162-1.133,4.109c4.663,1.729,10.392,1.765,15.288,2.062c5.608,0.341,12.334,0.846,17.584-1.572
					C1858.197,447.951,1856.031,444.279,1853.554,445.419L1853.554,445.419z"/>
			</g>
		</g>
		<g>
			<g>
				<path fill="#1D1B3A" d="M1853.747,452.285c-8.226,2.124-19.2,2.701-27.199-0.57c-2.544-1.04-3.64,3.084-1.133,4.109
					c8.709,3.561,20.521,2.879,29.465,0.57C1857.538,455.708,1856.409,451.597,1853.747,452.285L1853.747,452.285z"/>
			</g>
		</g>
		<g>
			<g>
				<path fill="#1D1B3A" d="M1853.92,459.494c-8.323,2.387-18.997,2.836-27.036-0.525c-2.534-1.059-3.629,3.065-1.133,4.109
					c8.705,3.639,20.308,3.104,29.302,0.525C1857.688,462.846,1856.567,458.735,1853.92,459.494L1853.92,459.494z"/>
			</g>
		</g>
		<g>
			<g>
				<path fill="#1D1B3A" d="M1852.52,466.986c-7.341,3.186-17.431,3.109-24.376-0.787c-2.398-1.346-4.546,2.335-2.15,3.68
					c8.404,4.714,19.885,4.602,28.677,0.787C1857.185,469.574,1855.013,465.905,1852.52,466.986L1852.52,466.986z"/>
			</g>
		</g>
	</g>
</g>
</svg>
