<?xml version="1.0" encoding="utf-8"?>
<!-- Generator: Adobe Illustrator 16.0.4, SVG Export Plug-In . SVG Version: 6.00 Build 0)  -->
<!DOCTYPE svg PUBLIC "-//W3C//DTD SVG 1.1//EN" "http://www.w3.org/Graphics/SVG/1.1/DTD/svg11.dtd">
<svg version="1.1" id="char4" xmlns="http://www.w3.org/2000/svg" xmlns:xlink="http://www.w3.org/1999/xlink" x="0px" y="0px"
	 width="2554.794px" height="1700.788px" viewBox="0 0 2554.794 1700.788" enable-background="new 0 0 2554.794 1700.788"
	 xml:space="preserve">
<path fill="#1D1B3A" d="M1938.449,1194.457c33.379,76.997-36.381,69.836-36.182,77.66c0.188,13.132-9.794,100.992-5.198,128.467
	c5.441,32.542,27.863,180.748,35.725,202.195c0.396,2.121,6.422,3.853,4.978,3.729c-5.649-0.487-14.079-2.106-18.424-5.132
	c1.93,6.528,3.325,13.139,4.657,19.747c0,0-183.84,47.649-172.038,14.937c10.116-28.044,121.285-13.796,120.741-45.676
	c-13.595-125.76-33.39-241.554-22.669-382.215C1851.164,1193.399,1919.25,1195.023,1938.449,1194.457z"/>
<path fill="#1D1B3A" d="M1997.371,1193.77c-3.111,7.805-31.195,160.867-30.632,168.91c0.789,13.498,2.576,26.979,4.599,40.417
	c4.255,28.317,15.324,68.097,21.419,96.247c7.221,33.341,24.761,103.562,34.037,125.435c0.514,2.172,2.911,15.353,1.381,15.259
	c-5.999-0.364-14.987-1.831-19.714-4.838c2.332,6.667,4.107,13.434,5.81,20.198c0,0-199.791,63.981-188.781,30.057
	c9.439-29.087,135.163-27.671,133.157-60.445c-15.521-99.941-57.91-236.615-43.147-414.239
	C1916.761,1195.595,1977.097,1194.812,1997.371,1193.77z"/>
<g>
	<path fill="#58566D" d="M1803.204,1062.042c8-167,54.846-171.468,65.314-174.259h3.01c20.238-3.491,93.317-16.516,123.325-0.602
		c39.707,21.056,120.162,116.938,121.94,159.597s-68.766,130.279-68.766,130.279l-36.701-38.408c0,0,67.687-58.1,53.467-91.871
		s-67.847-73.609-67.847-73.609s-19.555,156.419,5.33,223.963c12.442,33.772-163.526,12.442-163.526,12.442
		s-12.441-129.758-8.886-175.972"/>
	<g>
		<path fill="#1D1B3A" d="M1805.46,1062.042c2.119-43.27,5.773-89.02,22.299-129.578c6.164-15.129,15.401-31.438,30.618-38.988
			c3.079-1.528,6.511-2.48,9.963-3.32c3.642-0.885,9.252-1.146,13.562-1.86c8.881-1.472,17.79-2.768,26.729-3.841
			c21.036-2.523,42.818-4.263,63.907-1.385c8.338,1.137,16.448,3.276,23.767,7.505c6.63,3.831,12.726,8.58,18.591,13.479
			c31.317,26.154,58.692,59.223,79.966,93.954c8.423,13.752,16.876,28.972,19.352,45.129c2.367,15.449-5.154,32.104-11.59,45.676
			c-14.653,30.898-34.778,60.03-56.189,86.65c1.064,0,2.127,0,3.191,0c-12.234-12.803-24.468-25.605-36.701-38.408
			c0,1.064,0,2.127,0,3.191c19.903-17.119,39.874-38.305,50.863-62.355c3.087-6.755,5.269-14.033,5.221-21.513
			c-0.052-8.045-4.064-15.268-8.193-21.928c-10.949-17.665-26.489-32.602-41.983-46.252c-6.696-5.899-13.582-11.646-20.744-16.977
			c-1.542-1.147-3.21,0.47-3.395,1.948c-2.676,21.455-4.342,43.07-5.61,64.648c-2.352,40.027-3.312,80.801,2.086,120.63
			c1.208,8.913,2.773,17.771,4.992,26.492c0.95,3.735,2.066,7.428,3.325,11.07c0.547,1.586,1.4,3.303,1.143,5.041
			c-1.061,7.141-13.674,9.029-19.087,10.066c-13.398,2.567-27.297,2.81-40.896,2.845c-15.598,0.041-31.196-0.666-46.759-1.668
			c-18.405-1.187-36.821-2.76-55.134-4.976c0.752,0.752,1.504,1.504,2.256,2.256c-2.253-23.521-4.127-47.085-5.776-70.655
			c-2.435-34.786-5.706-70.452-3.109-105.316c0.217-2.904-4.297-2.883-4.512,0c-2.598,34.868,0.69,70.525,3.109,105.316
			c1.639,23.57,3.523,47.135,5.776,70.655c0.129,1.343,0.939,2.097,2.256,2.256c18.017,2.18,36.13,3.717,54.234,4.917
			c28.914,1.916,59.014,3.833,87.751-0.922c7.742-1.281,17.879-3.209,22.776-10.053c1.841-2.573,1.988-5.93,1.071-8.866
			c-2.414-7.73-4.759-15.308-6.369-23.268c-7.981-39.448-7.142-80.929-5.387-120.941c1.164-26.54,3.086-53.157,6.375-79.528
			c-1.132,0.649-2.263,1.299-3.395,1.948c10.006,7.447,19.478,15.703,28.586,24.21c7.924,7.4,15.479,15.21,22.413,23.55
			c6.425,7.729,12.943,16.487,16.394,26.029c5.52,15.265-5.586,32.915-13.897,44.913c-9.202,13.284-20.392,25.249-32.07,36.377
			c-2.451,2.335-4.934,4.649-7.502,6.857c-0.947,0.815-0.8,2.354,0,3.191c12.234,12.803,24.468,25.605,36.701,38.408
			c0.782,0.817,2.432,0.944,3.191,0c16.23-20.181,31.1-41.716,44.257-64.009c9.188-15.568,17.853-32.026,22.676-49.536
			c3.873-14.062,2.404-26.76-2.868-40.224c-6.809-17.385-17.062-33.422-27.786-48.614c-12.218-17.309-25.79-33.699-40.302-49.127
			c-12.285-13.061-25.409-25.679-40.109-36.014c-14.113-9.923-29.774-12.984-46.81-13.758c-20.779-0.942-41.702,1.289-62.256,4.159
			c-7.523,1.051-15.022,2.272-22.509,3.561c-2.747,0.473-5.44,0.386-8.149,1.044c-10.862,2.644-19.761,9.06-26.793,17.675
			c-11.704,14.338-18.286,32.507-23.211,50.112c-9.801,35.03-13.043,71.925-14.815,108.119
			C1800.806,1064.952,1805.318,1064.938,1805.46,1062.042L1805.46,1062.042z"/>
	</g>
</g>
<g>
	<path fill="#F4EDE1" d="M1825.254,894.745c-2.075-20.893,19.556-35.154,12.562-60.021c-3.342-11.885-19.008-43.686-38.254-38.354
		c-46.739,12.954,3.378,90.101,0,110.937C1796.183,928.142,1828.984,932.297,1825.254,894.745z"/>
	<g>
		<path fill="#1D1B3A" d="M1827.51,894.745c-0.838-10.819,4.566-20.075,8.828-29.62c4.257-9.535,6.312-19.178,4.04-29.521
			c-1.764-8.031-6.006-15.913-10.362-22.788c-4.542-7.169-10.8-14.831-18.993-17.896c-14.202-5.316-29.085,5.918-32.605,19.509
			c-3.982,15.368,1.682,32.781,6.371,47.331c3.487,10.819,7.682,21.425,10.745,32.377c1.063,3.804,2.048,7.758,1.919,11.733
			c-0.138,4.283-0.562,7.729,1.287,11.776c3.175,6.949,11.479,9.123,18.125,6.28C1827.498,919.377,1828.358,904.412,1827.51,894.745
			c-0.252-2.875-4.767-2.899-4.512,0c0.705,8.032,0.697,19.15-6.737,24.353c-4.349,3.042-10.155,1.722-13.018-2.63
			c-2.995-4.551-0.946-10.631-1.641-15.755c-0.911-6.716-3.306-13.281-5.474-19.668c-5.543-16.338-12.225-32.802-14.033-50.092
			c-0.758-7.239-0.472-14.953,3.026-21.494c3.609-6.748,11.888-11.521,19.504-11.413c9.045,0.13,16.276,9.309,20.844,16.054
			c4.651,6.87,8.46,14.66,10.557,22.704c5.496,21.08-14.631,37.247-13.028,57.941
			C1823.221,897.626,1827.734,897.648,1827.51,894.745z"/>
	</g>
</g>
<path fill="#F4EDE1" d="M1988.427,696.577c-4.057,24.669-16.743,45.059-32.753,64.061c-10.342,12.276-21.726,24.478-28.88,38.888
	c-5.004,10.079-8.11,22.324-15.984,30.562c-0.151-0.029-0.305-0.05-0.474-0.054c-53.856-0.758-86.569-48.604-93.488-96.378
	c-6.551-45.23,10.592-100.121,61.633-110.984c14.264-3.036,29.212-2.052,43.413,0.78c19.083,3.808,39.456,10.46,53.521,24.15
	C1988.803,660.632,1991.308,679.045,1988.427,696.577z"/>
<g>
	<path fill="#F4EDE1" d="M1775.702,801.922c-4.187-1.396-1.395-15.355,4.885-16.053c0,0,30.624-9.713,39.084-2.792
		c8.462,6.923,18.843,16.749,18.843,16.749"/>
	<g>
		<path fill="#1D1B3A" d="M1776.841,799.974c-2.602-1.29,0.126-7.734,1.028-9.372c1.059-1.922,2.699-2.38,4.599-2.945
			c5.479-1.631,11.063-2.927,16.699-3.88c6.242-1.056,14.794-2.499,20.073,1.856c6.09,5.024,11.94,10.367,17.679,15.788
			c2.112,1.997,5.309-1.188,3.189-3.189c-2.743-2.594-5.532-5.139-8.336-7.667c-3.907-3.523-8.009-8.152-12.754-10.525
			c-7.354-3.679-17.667-1.344-25.289,0.165c-3.691,0.731-7.348,1.653-10.97,2.67c-2.006,0.562-4.402,0.976-6.039,2.292
			c-4.203,3.381-8.795,15.413-2.157,18.704C1777.161,805.159,1779.448,801.267,1776.841,799.974L1776.841,799.974z"/>
	</g>
</g>
<g>
	<path fill="#F4EDE1" d="M1765.933,820.765c-4.188-1.396-1.396-15.354,4.886-16.053c0,0,30.622-9.713,39.084-2.79
		c8.462,6.921,18.843,16.747,18.843,16.747"/>
	<g>
		<path fill="#1D1B3A" d="M1767.071,818.817c-2.603-1.29,0.125-7.732,1.027-9.371c1.06-1.922,2.7-2.381,4.6-2.946
			c5.479-1.631,11.064-2.926,16.699-3.879c6.244-1.057,14.793-2.498,20.074,1.857c6.09,5.023,11.941,10.365,17.678,15.787
			c2.113,1.996,5.31-1.189,3.191-3.191c-2.744-2.593-5.533-5.138-8.337-7.666c-3.908-3.523-8.009-8.15-12.754-10.523
			c-7.355-3.68-17.667-1.346-25.29,0.164c-3.691,0.73-7.347,1.652-10.969,2.669c-2.006,0.562-4.402,0.976-6.04,2.293
			c-4.203,3.38-8.797,15.412-2.157,18.703C1767.392,824,1769.679,820.109,1767.071,818.817L1767.071,818.817z"/>
	</g>
</g>
<g>
	<path fill="#F4EDE1" d="M1818.974,862.639c-7.932-12.199-31.172-17.797-34.25-29.334l1.074-0.359
		c10.736-4.697,13.419-5.367,23.485-1.343c9.395,2.685,12.108,4.865,20.158-3.859c7.385-7.382-19.434-11.38-34.195-16.749
		c-12.08,5.369-24.552,5.23-34.923,14.381c0.671,14.764,20.802,59.757,34.224,63.784"/>
	<g>
		<path fill="#1D1B3A" d="M1820.922,861.5c-4.161-6.03-10.344-9.984-16.495-13.749c-6.048-3.701-15.229-7.719-17.527-15.046
			c-0.525,0.925-1.051,1.85-1.576,2.775c4.921-1.646,9.309-4.412,14.658-4.227c5.617,0.194,11.104,3.614,16.626,4.712
			c6.152,1.222,15.763-4.009,16.352-10.723c0.555-6.331-12.312-9.053-16.33-10.264c-5.003-1.507-10.067-2.804-15.076-4.293
			c-1.882-0.56-4.349-1.948-6.307-1.948c-2.835,0-6.866,2.461-9.694,3.306c-5.633,1.684-11.45,2.912-16.818,5.38
			c-3.549,1.632-10.998,4.489-10.569,9.213c0.717,7.905,3.815,15.719,6.763,23.007c3.681,9.104,8.079,17.971,13.389,26.237
			c3.567,5.554,8.178,12.412,14.529,15.039c0.358,0.162,0.726,0.301,1.103,0.415c2.764,0.936,3.939-3.423,1.199-4.352
			c-5.387-1.824-9.325-8.006-12.325-12.453c-4.463-6.614-8.1-13.801-11.386-21.059c-3.1-6.847-5.78-13.949-7.663-21.23
			c-0.349-1.349-0.631-2.712-0.879-4.081c-0.469-2.586,0.411-2.397,2.551-3.862c4.997-3.42,11.017-5.033,16.777-6.631
			c2.532-0.703,5.057-1.413,7.562-2.203c1.369-0.432,4.491-2.426,5.937-1.913c3.989,1.416,8.099,2.507,12.174,3.641
			c4.072,1.133,8.144,2.263,12.154,3.598c2.56,0.853,6.561,1.896,8.262,4.21c1.257,1.71-6.859,6.498-8.444,6.696
			c-3.589,0.45-8.343-1.63-11.596-2.896c-3.734-1.453-7.562-2.383-11.575-1.929c-4.483,0.508-8.366,2.852-12.571,4.258
			c-1.133,0.379-1.959,1.555-1.576,2.775c2.011,6.405,7.768,10.341,13.164,13.803c7.37,4.728,16.198,8.658,21.313,16.07
			C1818.666,866.155,1822.579,863.902,1820.922,861.5L1820.922,861.5z"/>
	</g>
</g>
<g>
	<g>
		<path fill="#1D1B3A" d="M1997.896,716.224c-5.288,2.577-10.412,6.473-11.198,12.649c-0.494,3.884,3.338,7.922,6.943,8.579
			c3.555,0.646,7.119,1.175,10.632,2.041c1.672,0.412,3.356,0.896,4.861,1.745c0.791,0.447,0.737-0.829,0.08-0.184
			c-1.12,1.098-3.09,1.637-4.498,2.161c-2.701,1.007-1.533,5.369,1.199,4.352c2.995-1.116,7.948-2.661,8.045-6.582
			c0.078-3.121-4.084-4.5-6.403-5.258c-3.801-1.241-7.831-1.805-11.762-2.463c-2.42-0.404-2.363-0.072-4.07-2.418
			c-3.203-4.403,5.588-9.333,8.448-10.727C2002.789,718.845,2000.501,714.956,1997.896,716.224L1997.896,716.224z"/>
	</g>
</g>
<g>
	<g>
		<path fill="#1D1B3A" d="M1865.534,894.244c11.438,9.055,26.796,13.127,41.124,14.063c20.804,1.359,40.649-6.574,54.888-21.741
			c1.989-2.118-1.195-5.315-3.189-3.189c-13.349,14.217-31.094,21.146-50.495,20.479c-13.291-0.457-28.527-4.402-39.136-12.801
			C1866.47,889.268,1863.254,892.439,1865.534,894.244L1865.534,894.244z"/>
	</g>
</g>
<g>
	<path fill="#F4EDE1" d="M1982.991,710.961c50.947-25.821,51.645,63.514,6.98,52.347l-3.5,5.812
		c4.188,20.239-28.613,53.738-38.385,69.094c-9.073,15.354-3.489,25.125-4.188,41.176h7.678
		c-23.728,19.541-47.458,17.448-74.676,9.771l4.886,2.093c6.979-14.654,0.699-31.403-0.697-45.363"/>
	<g>
		<path fill="#1D1B3A" d="M1984.13,712.91c8.349-4.137,18.454-6.736,26.714-1.055c6.339,4.359,8.857,12.835,9.253,20.127
			c0.944,17.417-10.838,33.582-29.525,29.15c-0.999-0.236-2.011,0.146-2.548,1.037c-1.169,1.941-4.162,5.131-3.728,7.55
			c0.869,4.833-0.443,9.633-2.116,14.145c-4.146,11.177-11.853,21.177-18.988,30.585c-6.353,8.374-13.968,16.428-18.78,25.835
			c-6.379,12.472-2.363,25.849-2.769,39.105c-0.038,1.229,1.055,2.256,2.256,2.256c2.56,0,5.118,0,7.678,0
			c-0.532-1.283-1.063-2.567-1.595-3.851c-10.247,8.256-21.984,13.455-35.158,14.483c-12.616,0.984-25.257-1.931-37.323-5.294
			c-2.402-0.669-4.133,3.098-1.738,4.124c1.629,0.697,3.257,1.395,4.886,2.093c1.024,0.438,2.547,0.411,3.087-0.81
			c6.78-15.334,1.361-30.754-0.39-46.502c-0.317-2.858-4.833-2.89-4.512,0c1.624,14.604,7.303,29.985,1.005,44.225
			c1.029-0.27,2.058-0.54,3.087-0.81c-1.629-0.697-3.257-1.395-4.886-2.093c-0.579,1.375-1.159,2.749-1.738,4.124
			c13.018,3.628,26.39,6.401,39.97,5.342c13.835-1.08,26.208-7.077,36.9-15.693c1.597-1.286,0.221-3.851-1.595-3.851
			c-2.56,0-5.118,0-7.678,0c0.752,0.752,1.504,1.504,2.256,2.256c0.432-14.122-3.973-27.891,4.307-40.696
			c5.681-8.787,12.724-16.725,18.984-25.098c6.639-8.879,12.991-18.172,17.085-28.532c1.667-4.219,2.681-8.761,2.535-13.31
			c-0.025-0.783-0.124-1.598-0.264-2.37c0.179,0.991-0.071,0.358,0.67-0.872c0.816-1.354,1.632-2.709,2.448-4.064
			c-0.85,0.346-1.698,0.691-2.548,1.037c9.88,2.343,19.823,0.408,26.793-7.312c6.461-7.154,8.918-17.443,8.406-26.876
			c-0.486-8.975-4.067-17.908-11.45-23.338c-9.332-6.862-21.808-3.632-31.269,1.055
			C1979.245,710.305,1981.532,714.197,1984.13,712.91L1984.13,712.91z"/>
	</g>
</g>
<g>
	<path fill="#F4EDE1" d="M1830.139,645.589c-16.749,26.521-38.966,72.637-34.895,113.76c6.979,70.487,78.167,85.843,107.478,84.447"
		/>
	<g>
		<path fill="#1D1B3A" d="M1828.19,644.451c-25.162,40.058-47.22,93.696-29.216,140.694c12.521,32.684,44.217,52.015,77.337,58.619
			c8.652,1.726,17.584,2.671,26.41,2.288c2.898-0.126,2.91-4.639,0-4.512c-29.852,1.295-62.441-10.346-83.17-32.047
			c-36.55-38.266-21.926-96.375-1.066-138.565c4.103-8.298,8.679-16.363,13.602-24.2
			C1833.64,644.256,1829.733,641.994,1828.19,644.451L1828.19,644.451z"/>
	</g>
</g>
<g>
	<path fill="#EFEA77" d="M1962.036,646.289c-6.979,23.728-29.311,5.582-23.029-11.866c-3.491,16.055-16.749,34.198-36.291,28.615
		c-16.752-4.188-10.47-26.521,4.187-27.22c-9.771,15.356-73.605,37.759-89.657,26.591c-19.542-12.562,37.315-30.08,48.479-30.08
		c-11.863,6.282-76.206,23.334-76.905,0.305c-0.697-21.638,102.618-34.958,115.989-37.99c67.695-15.355,59.323,16.051,60.02,18.146
		c0.697,2.093,42.571,13.957,42.571,13.957c7.678,33.499-4.886,68.395-4.886,78.165c0,0-6.77,8.737-18.135,15.354
		c-12.682,7.384-18.845-2.093-19.542-16.749c-0.699-13.261,5.583-43.271-2.792-53.738"/>
	<g>
		<path fill="#1D1B3A" d="M1959.86,645.689c-2.041,6.409-6.593,12.505-13.518,7.924c-5.923-3.919-7.206-12.33-5.16-18.591
			c-1.451-0.399-2.9-0.8-4.352-1.199c-3.315,14.296-14.01,30.114-30.632,27.702c-6.528-0.947-11.568-4.628-11.178-11.628
			c0.347-6.216,5.875-11.321,11.881-11.823c-0.649-1.132-1.299-2.263-1.948-3.395c-3.193,4.782-8.854,7.927-13.74,10.672
			c-7.27,4.084-15.037,7.27-22.891,10.034c-13.582,4.78-30.667,10.225-45.184,7.048c-3.386-0.741-9.441-3.485-6.996-7.748
			c2.698-4.704,9.446-7.499,14.094-9.681c6.609-3.102,13.601-5.443,20.613-7.443c4.76-1.357,9.884-2.894,14.874-2.977
			c-0.38-1.401-0.759-2.803-1.139-4.204c-12.48,6.443-28.236,9.206-42.015,10.898c-6.472,0.795-35.389,3.547-31.222-10.46
			c1.275-4.287,6.932-7.076,10.533-8.958c6.557-3.428,13.698-5.751,20.759-7.889c16.505-4.998,33.507-8.378,50.455-11.477
			c11.346-2.074,22.846-3.567,34.106-6.077c11.259-2.51,22.931-4.335,34.494-3.538c5.653,0.39,11.919,1.713,16.297,5.558
			c4.365,3.833,4.405,8.722,4.534,14.019c0.085,3.475,5.778,4.555,8.283,5.445c7.4,2.628,14.953,4.851,22.478,7.089
			c4.495,1.338,8.998,2.651,13.511,3.932c-0.525-0.525-1.051-1.051-1.576-1.576c4.404,20.167,1.94,40.636-2.081,60.638
			c-1.085,5.397-2.551,10.864-2.873,16.381c0.053-0.908,0.944-1.385-0.01-0.247c-0.823,0.982-1.705,1.916-2.591,2.842
			c-3.441,3.598-7.325,6.725-11.444,9.509c-3.413,2.307-7.515,4.866-11.794,3.817c-3.482-0.854-5.097-5.098-6.024-8.104
			c-2.121-6.878-1.364-14.438-0.844-21.494c0.579-7.858,1.279-15.71,1.098-23.598c-0.144-6.232-0.84-13.288-4.667-18.45
			c-1.713-2.31-5.632-0.063-3.896,2.277c4.634,6.249,4.218,15.294,4.038,22.684c-0.214,8.748-1.356,17.443-1.594,26.188
			c-0.188,6.896,0.494,15.869,5.354,21.271c4.954,5.504,11.668,4.414,17.622,1.154c6.854-3.754,13.206-9.267,18.22-15.247
			c1.16-1.385,1.018-2.789,1.213-4.523c0.409-3.64,1.315-7.258,2.051-10.841c4.433-21.609,7.341-43.626,2.574-65.455
			c-0.166-0.761-0.85-1.37-1.576-1.576c-12.06-3.419-24.152-6.883-35.987-11.021c-1.905-0.666-3.984-1.273-5.702-2.365
			c1.239,0.788,0.703,1.803,0.772-0.406c0.083-2.653-0.179-5.335-0.98-7.873c-3.079-9.747-13.303-13.261-22.53-14.362
			c-16.286-1.942-32.379,2.849-48.291,5.553c-30.563,5.194-62.836,9.415-91.466,21.869c-7.996,3.479-19.892,9.748-16.632,20.344
			c3.9,12.678,24.578,10.646,34.364,9.6c14.911-1.596,31.841-4.676,45.316-11.632c2.018-1.042,1.051-4.24-1.139-4.204
			c-5.708,0.095-11.521,1.839-16.964,3.392c-7.705,2.197-15.286,4.977-22.507,8.455c-8.377,4.036-22.709,13.961-10.147,22.438
			c5.149,3.475,12.162,3.516,18.118,3.207c8.899-0.46,17.742-2.509,26.281-4.951c15.466-4.424,33.307-10.703,45.249-21.951
			c1.173-1.105,2.202-2.366,3.096-3.705c0.909-1.361-0.274-3.534-1.948-3.395c-14.892,1.243-23.515,22.299-8.567,30.263
			c20.602,10.977,38.678-10.827,42.848-28.803c0.659-2.843-3.449-3.96-4.352-1.199c-2.893,8.855,0.033,18.921,7.929,24.145
			c9.262,6.128,16.826-2.833,19.452-11.079C1965.097,644.108,1960.74,642.927,1959.86,645.689L1959.86,645.689z"/>
	</g>
</g>
<g>
	<g>
		<path fill="#1D1B3A" d="M1865.16,796.943c8.577-0.048,17.335-3.222,25.339-5.962c13.174-4.51,25.939-10.302,38.222-16.841
			c2.569-1.368,0.29-5.263-2.277-3.896c-11.968,6.372-24.346,11.901-37.144,16.387c-7.557,2.648-16.025,5.755-24.14,5.801
			C1862.251,792.448,1862.25,796.959,1865.16,796.943L1865.16,796.943z"/>
	</g>
</g>
<g>
	<g>
		<path fill="#1D1B3A" d="M1849.648,689.683c-2.267,7.371-5.198,15.004-5.106,22.822c0.088,7.54,7.514,8.549,11.703,3.146
			c4.582-5.912,5.744-14.869,4.677-22.074c-1.103-7.44-7.24-9.718-13.275-5.621c-2.392,1.624-0.138,5.535,2.277,3.896
			c10.596-7.192,5.862,16.187,3.163,20.509c-0.456,0.73-2.834,3.532-3.705,2.084c-1.227-2.043-0.056-6.226,0.343-8.326
			c0.986-5.196,2.725-10.194,4.275-15.236C1854.857,688.094,1850.501,686.911,1849.648,689.683L1849.648,689.683z"/>
	</g>
</g>
<g>
	<g>
		<path fill="#1D1B3A" d="M1919.921,688.733c0.316,1.538-1.847,6.838-2.43,9c-1.262,4.687-2.433,9.441-2.803,14.294
			c-0.22,2.884,0.145,6.015,2.664,7.78c2.341,1.64,5.405-0.021,6.927-1.904c5.352-6.623,9-39.499-6.74-30.959
			c-2.558,1.388-0.28,5.284,2.277,3.896c5.165-2.803,4.958,6.373,4.882,9.407c-0.104,4.202-0.717,12.657-4.526,15.459
			c-1.302,0.958-0.995-3.131-0.971-3.68c0.152-3.47,1.079-6.942,1.913-10.297c1-4.026,4.027-9.968,3.158-14.196
			C1923.686,684.684,1919.337,685.893,1919.921,688.733L1919.921,688.733z"/>
	</g>
</g>
<g>
	<g>
		<path fill="#1D1B3A" d="M1831.832,702.798c1.008-11.393,5.982-27.468,19.1-29.408c2.87-0.425,1.646-4.772-1.199-4.352
			c-15.245,2.256-21.241,20.515-22.412,33.76C1827.063,705.698,1831.578,705.673,1831.832,702.798L1831.832,702.798z"/>
	</g>
</g>
<g>
	<g>
		<path fill="#1D1B3A" d="M1901.769,688.809c11.979,0.013,23.114,9.498,33.152,15.033c2.55,1.405,4.825-2.491,2.277-3.896
			c-10.842-5.978-22.453-15.636-35.43-15.648C1898.858,684.294,1898.859,688.806,1901.769,688.809L1901.769,688.809z"/>
	</g>
</g>
<g>
	<g>
		<path fill="#1D1B3A" d="M1916.868,764.328c6.88,4.381,9.143,13.222,11.396,20.558c0.853,2.772,5.208,1.59,4.352-1.199
			c-2.641-8.59-5.464-18.156-13.471-23.255C1916.684,758.864,1914.422,762.77,1916.868,764.328L1916.868,764.328z"/>
	</g>
</g>
<g>
	<g>
		<path fill="#1D1B3A" d="M1877.873,711.248c2.058,20.853-21.923,19.345-34.191,28.31c-8.877,6.486-10.281,16.496-1.146,23.12
			c9.066,6.572,21.528,6.984,32.014,4.593c13.081-2.983,22.238-12.576,26.05-25.209c0.843-2.793-3.513-3.978-4.352-1.199
			c-3.769,12.49-12.783,20.099-25.467,22.604c-9.342,1.846-21.316,0.327-28.317-6.713c-4.318-4.344-0.641-9.367,2.869-12.747
			c4.766-4.588,12.221-5.915,18.28-7.955c11.461-3.857,20.035-11.999,18.771-24.803
			C1882.102,708.379,1877.587,708.352,1877.873,711.248L1877.873,711.248z"/>
	</g>
</g>
<g>
	<g>
		<path fill="#1D1B3A" d="M1997.31,715.941c-5.707,6.167-14.43,10.852-14.968,20.129c-0.171,2.934,1.539,5.664,4.019,7.057
			c3.355,1.884,7.096-0.535,9.635-2.598c-1.283-0.531-2.567-1.062-3.851-1.595c0.389,2.965-0.052,5.605-1.046,8.41
			c-0.974,2.75,3.387,3.922,4.352,1.199c1.125-3.177,1.646-6.251,1.206-9.609c-0.263-2.007-2.228-2.913-3.851-1.595
			c-3.717,3.016-6.583,1.201-5.699-3.222c0.467-2.34,2.298-4.32,3.847-6c2.966-3.216,6.572-5.771,9.548-8.987
			C2002.473,717,1999.29,713.8,1997.31,715.941L1997.31,715.941z"/>
	</g>
</g>
<g>
	<g>
		<path fill="#1D1B3A" d="M1991.597,730.746c4.262-2.077,8.786-3.603,13.503-4.197c2.847-0.358,2.882-4.875,0-4.512
			c-5.56,0.7-10.749,2.361-15.78,4.812C1986.704,728.125,1988.992,732.014,1991.597,730.746L1991.597,730.746z"/>
	</g>
</g>
<g>
	<path fill="#58566D" d="M1817.189,1040.458c-3.487-14.654,16.249-126.048,19.041-142.795l-1.227-0.659
		c-12.561,6.281-35.064,6.242-48.325,2.054l-0.664,0.198c0.873,29.706-66.481,202.553,15.178,222.966
		c28.439,7.109,35.55-122.645,35.55-122.645"/>
	<g>
		<path fill="#1D1B3A" d="M1819.365,1039.859c-1.777-8.07,0.355-17.937,1.241-25.991c1.638-14.896,3.832-29.732,6.096-44.544
			c3.627-23.733,7.747-47.381,11.704-71.061c0.164-0.982-0.084-2.035-1.037-2.548c-3.207-1.724-5.417,0.31-8.723,1.371
			c-5.177,1.662-10.663,2.271-16.068,2.561c-5.549,0.297-11.161-0.009-16.657-0.808c-3.109-0.452-7.48-2.662-10.506-1.759
			c-0.949,0.284-1.678,1.159-1.656,2.176c0.19,9.038-2.682,18.419-4.698,27.138c-3.389,14.644-7.002,29.232-10.181,43.925
			c-6.978,32.255-13.408,66.484-9.177,99.551c1.689,13.203,5.483,26.722,13.847,37.33c3.915,4.966,8.695,9.068,14.198,12.187
			c4.607,2.609,10.925,5.648,16.353,5.347c9.415-0.523,14.399-12.046,17.374-19.436c5.507-13.678,8.251-28.541,10.648-43.025
			c3.429-20.709,5.719-41.73,6.875-62.694c0.161-2.908-4.353-2.893-4.512,0c-1.188,21.521-3.575,43.091-7.19,64.335
			c-2.428,14.26-5.273,28.991-11.064,42.325c-1.918,4.416-4.288,8.953-8.005,12.122c-3.731,3.182-8.046,1.41-12.146-0.074
			c-28.925-10.474-33.44-45.442-33.063-72.038c0.479-33.771,8.221-67.219,15.965-99.932c2.244-9.479,4.576-18.939,6.609-28.467
			c1.288-6.031,2.811-12.385,2.68-18.593c-0.552,0.726-1.104,1.45-1.656,2.176c0.872-0.261,3.183,0.811,4.201,1.041
			c1.931,0.437,3.899,0.745,5.862,0.995c4.798,0.61,9.592,0.843,14.426,0.745c8.536-0.173,17.288-1.572,25.039-5.261
			c-0.759,0-1.519,0-2.277,0c0.409,0.22,0.817,0.439,1.227,0.659c-0.346-0.85-0.691-1.698-1.037-2.548
			c-4.081,24.425-8.317,48.82-12.046,73.304c-2.248,14.763-4.381,29.556-6.014,44.401c-0.91,8.282-2.807,17.999-0.981,26.289
			C1815.64,1043.9,1819.989,1042.695,1819.365,1039.859L1819.365,1039.859z"/>
	</g>
</g>
<path fill="#F4EDE1" d="M2006.512,1145.922l-27.601,10.923c0,0-14.816,7.062-15.348,15.307c-0.529,8.242,2.729,36.086,16.671,41.58
	c13.943,5.496,13.034,10.937,18.914,10.363s35.991-5.951,35.458-11.236c-0.535-5.285-7.538-7.328-7.538-7.328
	s10.344-1.058,11.39-5.027s0.517-10.167-2.924-9.185c-3.438,0.981-6.923-0.437-6.923-0.437s7.581-2.816,8.247-5.853
	c0.666-3.035-7.847-7.34-7.847-7.34l10.167-3.9L2006.512,1145.922z"/>
<path fill="#1D1B3A" stroke="#1D1B3A" stroke-width="1.0793" stroke-miterlimit="10" d="M2015.562,1144.506l-0.697,0.063
	l-1.518,0.166l-1.611,0.224l-1.678,0.273l-1.745,0.321l-1.801,0.368l-2.782,0.633l-3.852,0.986l-3.959,1.143l-3.995,1.277
	l-3.972,1.398l-3.89,1.509l-3.748,1.603l-2.689,1.261l-1.723,0.866l-1.645,0.879l-1.568,0.896l-1.483,0.913l-1.396,0.928
	l-1.298,0.942l-1.2,0.961l-1.088,0.98l-0.974,1.008l-0.85,1.039l-0.719,1.08l-0.339,0.623c-0.021,0.041-0.043,0.085-0.062,0.127
	l-0.344,0.768l-0.639,1.794l-0.477,1.941l-0.304,2.02l-0.137,2.081l0.013,2.137l0.158,2.185l0.293,2.224l0.422,2.252l0.542,2.276
	l0.657,2.29l0.768,2.295l0.87,2.292l0.966,2.281l1.061,2.258l1.148,2.228l1.229,2.188l1.307,2.14l1.381,2.081l1.446,2.013
	l1.51,1.934l1.57,1.849l1.621,1.75l1.676,1.644l1.72,1.526l1.765,1.402l1.807,1.261l1.843,1.115l1.881,0.953l1.914,0.779
	l1.943,0.593l1.971,0.388l1.057,0.118c0.036,0.004,0.073,0.009,0.109,0.011l0.979,0.053l2.142,0.004l2.22-0.127l2.225-0.233
	l3.288-0.487l3.2-0.577l2.03-0.398l0.97-0.19c0.002,0,0.004-0.002,0.006-0.002l1.175-0.236l2.251-0.48l2.106-0.488l1.956-0.498
	l1.811-0.502l1.67-0.508l1.532-0.517l1.402-0.522l1.277-0.529l1.157-0.537l1.041-0.551l0.937-0.562l0.835-0.584l0.735-0.609
	l0.644-0.647l0.546-0.695l0.444-0.753l0.32-0.818l0.178-0.868l0.013-0.892l-0.15-0.868l-0.293-0.816l-0.603-1.022l-1.077-1.201
	l-1.335-1.055l-1.505-0.91l-1.657-0.806l-1.781-0.717l-1.891-0.637l-1.971-0.552l-2.028-0.475l-2.054-0.386l-2.053-0.297
	l-2.024-0.205l-1.969-0.101l-1.887,0.002l-1.781,0.12l-1.657,0.244l-1.187,0.289l-0.771,0.255l-0.702,0.304l-0.668,0.367
	l-0.629,0.448l-0.579,0.549l-0.502,0.662l-0.388,0.779l-0.232,0.869l-0.053,0.908l0.049,0.551c0.02,0.153,0.053,0.303,0.104,0.448
	l0.053,0.154l0.826,1.134l1.248,0.631l1.046,0.151l0.946-0.017l0.932-0.097l1.408-0.236l1.934-0.422l1.863-0.457l1.237-0.308
	l0.698-0.165l0.564-0.12l0.38-0.059l0.024,0.004l-0.103,0.006l0.552-0.025l1.246-0.035l1.47-0.029l1.656-0.036l1.807-0.051
	l1.912-0.078l1.984-0.12l2.02-0.173l2.02-0.236l1.985-0.315l1.923-0.411l1.832-0.523l1.712-0.657l1.225-0.62l0.786-0.493
	l0.706-0.537l0.651-0.605l0.586-0.688l0.502-0.768l0.251-0.486c0.021-0.04,0.036-0.078,0.053-0.116l0.139-0.333l0.271-0.773
	l0.204-0.812l0.112-0.81l0.017-0.802l-0.087-0.79l-0.191-0.766l-0.289-0.721l-0.552-0.917l-0.96-1.048l-1.157-0.864l-1.248-0.668
	l-1.296-0.527l-1.328-0.422l-1.978-0.484l-2.57-0.489l-1.747-0.302l-0.995-0.188l-0.415-0.089c-0.007,0-0.013-0.002-0.017-0.002
	l-1.304-0.266l-2.837-0.421l-2.977-0.245l-3.027-0.044l-3.031,0.16l-2.987,0.377l-2.207,0.438l-1.446,0.371l-1.385,0.431
	l-1.344,0.497l-0.683,0.287c-1.141,0.482-1.674,1.796-1.191,2.937c0.483,1.141,1.797,1.674,2.937,1.19l0,0l0.504-0.215l1.115-0.419
	l1.175-0.369l1.199-0.316l1.896-0.386l2.662-0.348l2.726-0.154l2.732,0.032l2.677,0.208l2.602,0.382l1.301,0.264l-0.017-0.002
	l0.519,0.107l1.057,0.198l1.68,0.289l2.34,0.44l1.701,0.406l1.014,0.312l0.886,0.337l0.724,0.353l0.533,0.331l0.398,0.344
	l0.209,0.271l0.086,0.142l0.065,0.162l0.046,0.2l0.018,0.253l-0.023,0.32l-0.082,0.388l-0.167,0.5l-0.139,0.333l0.053-0.116
	l-0.021,0.072l-0.158,0.293l-0.228,0.299l-0.302,0.304l-0.379,0.306l-0.422,0.282l-0.797,0.426l-1.324,0.527l-1.532,0.447
	l-1.688,0.366l-1.805,0.291l-1.876,0.222l-1.906,0.164l-1.901,0.116l-1.853,0.078l-1.771,0.049l-1.654,0.035l-1.508,0.032
	l-1.319,0.037l-0.552,0.025c-0.034,0.003-0.07,0.005-0.104,0.007l-0.346,0.038l-0.586,0.099l-0.662,0.142l-0.746,0.177l-1.226,0.306
	l-1.754,0.431l-1.729,0.381l-1.148,0.198l-0.597,0.074l-0.388,0.031l-0.053,0.053l0.432,0.364l0.342,0.68l-0.051-0.154l0.104,0.447
	l-0.015,0.057l-0.042-0.029h-0.049l-0.038-0.02l0.004-0.065l0.076-0.111l0.167-0.146l0.261-0.164l0.353-0.163l0.4-0.147l0.773-0.204
	l1.29-0.204l1.488-0.108l1.641-0.01l1.756,0.088l1.828,0.18l1.865,0.266l1.868,0.348l1.831,0.424l1.761,0.487l1.648,0.548
	l1.501,0.592l1.312,0.62l1.073,0.62l0.797,0.571l0.541,0.51l0.236,0.308l0.072,0.095l0.05,0.053l0.04,0.047l0.025,0.08l-0.017,0.144
	l-0.095,0.215l-0.196,0.284l-0.31,0.338l-0.44,0.381l-0.569,0.411l-0.706,0.433l-0.842,0.451l-0.982,0.459l-1.121,0.469
	l-1.265,0.474l-1.413,0.477l-1.562,0.477l-1.714,0.477l-1.868,0.475l-2.025,0.474l-2.199,0.469l-1.172,0.235h0.006l-0.961,0.188
	l-1.971,0.385l-3.057,0.557l-3.104,0.462l-2.02,0.218l-1.95,0.119l-1.896,0.003l-0.976-0.055l0.111,0.01l-0.688-0.065l-1.524-0.277
	l-1.554-0.456l-1.575-0.626l-1.585-0.793l-1.592-0.95l-1.587-1.099l-1.575-1.241l-1.554-1.373l-1.528-1.492l-1.492-1.604
	l-1.453-1.703l-1.403-1.794l-1.35-1.872l-1.29-1.941l-1.225-1.998l-1.153-2.045l-1.073-2.079l-0.992-2.105l-0.902-2.119l-0.81-2.123
	l-0.711-2.114l-0.604-2.091l-0.498-2.062l-0.384-2.018l-0.266-1.963l-0.146-1.894l-0.021-1.811l0.101-1.72l0.224-1.617l0.351-1.506
	l0.499-1.443l0.344-0.768l-0.063,0.127l0.129-0.266l0.444-0.707l0.602-0.752l0.748-0.789l0.892-0.813l1.022-0.826l1.146-0.837
	l1.261-0.841l1.362-0.839l1.459-0.835l1.545-0.829l1.61-0.812l2.549-1.199l3.604-1.543l3.759-1.459l3.848-1.359l3.873-1.238
	l3.828-1.106l3.731-0.959l7.458-7.154l-3.055,6.193l1.65-0.307l1.577-0.259l1.49-0.206l1.415-0.158l0.697-0.063
	c1.233-0.107,2.145-1.195,2.037-2.429C2017.883,1145.309,2016.795,1144.399,2015.562,1144.506"/>
<path fill="#1D1B3A" stroke="#1D1B3A" stroke-width="1.0793" stroke-miterlimit="10" d="M2039.344,1172.423l-0.702,0.38l-1.39,0.7
	l-2.198,0.986l-3.109,1.235l-3.255,1.176l-3.344,1.155l-3.371,1.179l-3.328,1.239l-2.445,1.004l-1.597,0.717l-1.538,0.755
	l-1.488,0.805l-1.428,0.862l-1.361,0.928l-1.286,1.001l-1.197,1.086l-1.101,1.174l-0.991,1.276l-0.864,1.38l-0.723,1.486
	l-0.565,1.592l-0.394,1.695l-0.216,1.792l-0.025,1.882l0.167,1.976l0.36,2.066l0.264,1.112c0.289,1.204,1.499,1.944,2.703,1.653
	c1.203-0.289,1.945-1.501,1.654-2.703l0,0l-0.209-0.85l-0.308-1.678l-0.147-1.543l-0.002-1.421l0.133-1.308l0.257-1.21l0.376-1.128
	l0.488-1.062l0.607-1.003l0.721-0.957l0.833-0.911l0.946-0.868l1.052-0.831l1.151-0.792l1.242-0.757l1.328-0.721l1.401-0.691
	l1.459-0.658l2.306-0.949l3.245-1.209l3.355-1.173l3.403-1.176l3.387-1.228l3.293-1.312l2.374-1.071l1.512-0.764l0.704-0.379
	c1.086-0.593,1.49-1.952,0.9-3.04C2041.793,1172.236,2040.432,1171.832,2039.344,1172.423"/>
<path fill="#1D1B3A" stroke="#1D1B3A" stroke-width="1.0793" stroke-miterlimit="10" d="M2020.073,1191.274l1.37,0.045l2.732-0.03
	l2.595-0.179l1.841-0.228l1.166-0.196l1.092-0.224l1.035-0.259l0.972-0.289l0.91-0.32l0.846-0.356l0.782-0.396l0.719-0.442
	l0.655-0.5l0.589-0.584l0.508-0.693l0.384-0.831l0.189-0.965l-0.071-1.022l-0.333-0.966l-0.529-0.843l-0.666-0.724l-0.774-0.63
	l-0.877-0.567l-0.986-0.524l-1.104-0.496l-1.229-0.472l-1.369-0.455l-1.507-0.437l-1.657-0.42l-0.902-0.209
	c-1.208-0.275-2.409,0.477-2.688,1.683c-0.276,1.206,0.477,2.409,1.683,2.686l0,0l0.808,0.186l1.513,0.382l1.346,0.386l1.176,0.388
	l1.008,0.38l0.843,0.368l0.673,0.344l0.506,0.308l0.342,0.243l0.189,0.149l0.074,0.021l0.029-0.112l0.055-0.181l0.089-0.142
	l0.067-0.027l-0.017,0.089l-0.138,0.17l-0.261,0.224l-0.382,0.249l-0.493,0.259l-0.595,0.26l-0.691,0.249l-0.776,0.235l-0.855,0.216
	l-0.93,0.195l-0.976,0.169l-1.594,0.202l-2.332,0.169l-2.538,0.029l-1.372-0.042c-1.235-0.04-2.272,0.932-2.311,2.169
	C2017.864,1190.201,2018.836,1191.234,2020.073,1191.274"/>
</svg>
