<?xml version="1.0" encoding="utf-8"?>
<!-- Generator: Adobe Illustrator 16.0.4, SVG Export Plug-In . SVG Version: 6.00 Build 0)  -->
<!DOCTYPE svg PUBLIC "-//W3C//DTD SVG 1.1//EN" "http://www.w3.org/Graphics/SVG/1.1/DTD/svg11.dtd">
<svg version="1.1" id="char1" xmlns="http://www.w3.org/2000/svg" xmlns:xlink="http://www.w3.org/1999/xlink" x="0px" y="0px"
	 width="2554.794px" height="1700.788px" viewBox="0 0 2554.794 1700.788" enable-background="new 0 0 2554.794 1700.788"
	 xml:space="preserve">
<path fill="#1D1B3A" d="M535.803,1215.198c0,0,69.452,352.993,74.417,387.74c2.01,14.069-83.858,81.917-80.393,86.423
	c20.098,26.127,111.986-57.158,116.569-66.324c4.019-8.039-24.118-315.54,16.078-323.579c40.196-8.038,2.01,317.55,10.049,327.599
	s142.697,32.156,144.706,18.089c2.01-14.068-120.588-42.207-120.588-42.207s93.801-316.756,75.713-379.06
	S535.803,1215.198,535.803,1215.198z"/>
<g>
	<path fill="#A5A4B0" d="M526.155,1003.541c-36.407,73.573,9.014,246.246,9.014,246.246s229.502,10.171,243.096-10.642
		c52.718-80.712-24.034-258.683-24.034-258.683"/>
	<g>
		<path fill="#1D1B3A" d="M524.049,1002.31c-16.031,32.832-15.712,72.775-13.669,108.406c2.089,36.439,7.794,72.71,15.24,108.414
			c2.184,10.476,4.479,20.953,7.198,31.305c0.284,1.082,1.271,1.742,2.352,1.79c47.947,2.121,96.036,3.051,144.022,2.247
			c27.614-0.463,56.172-0.593,83.347-6.105c5.839-1.186,14.183-2.671,17.833-7.99c9.672-14.1,14.425-31.598,16.848-48.314
			c5.528-38.139-0.572-77.656-9.242-114.858c-6.825-29.288-15.952-58.108-26.843-86.135c-1.542-3.967-3.113-7.928-4.797-11.837
			c-1.241-2.882-5.442-0.396-4.212,2.461c6.688,15.529,13.438,35.007,18.87,52.228c11.427,36.231,20.309,73.753,22.77,111.751
			c1.228,18.965,0.681,38.225-3.362,56.844c-1.864,8.584-4.603,16.996-8.367,24.938c-2.043,4.311-4.264,9.941-7.95,12.122
			c-7.082,4.19-16.806,4.999-24.771,6.035c-13.816,1.798-27.769,2.581-41.682,3.173c-55.88,2.376-112.021,0.988-167.889-1.245
			c-1.524-0.061-3.05-0.122-4.574-0.189c0.784,0.597,1.568,1.193,2.352,1.79c-5.019-19.107-8.894-38.565-12.361-58.004
			c-6.931-38.859-11.73-78.547-10.517-118.079c0.707-23.018,3.391-47.336,13.618-68.284
			C529.635,1001.957,525.429,999.483,524.049,1002.31L524.049,1002.31z"/>
	</g>
</g>
<g>
	<path fill="#F4EDE1" d="M774.53,1268.088c-6.126-5.783-11.682-6.452-14.958-5.137c-6.191,2.484-8.437,7.646-8.84,7.987
		c-5.13,4.595,11.893,26.992,22.718,33.425c5.456-5.36,9.165-11.28,12.69-22.56"/>
	<g>
		<path fill="#1D1B3A" d="M776.254,1266.364c-6.051-5.371-13.01-8.438-20.499-4.209c-3.701,2.091-8.431,7.165-8.394,11.655
			c0.05,6.037,5.009,12.297,8.447,16.82c4.565,6.006,9.953,11.837,16.409,15.839c0.927,0.575,2.198,0.381,2.956-0.381
			c6.647-6.683,10.458-14.741,13.317-23.636c0.965-3.003-3.745-4.279-4.703-1.297c-2.609,8.116-6.001,15.39-12.063,21.483
			c0.985-0.127,1.97-0.254,2.956-0.381c-8.898-5.518-16.696-15.06-21.205-24.435c-1.677-3.487-1.256-4.855,0.765-7.761
			c5.188-7.455,12.625-5.522,18.565-0.25C775.148,1271.893,778.611,1268.457,776.254,1266.364L776.254,1266.364z"/>
	</g>
</g>
<path fill="#1D1B3A" d="M737.083,1267.733c0,0,27.819,36.242,43.049,31.167c2.801-0.934-1.867,16.805-1.867,16.805
	s-1.868,23.343-21.474,37.347C746.508,1360.396,739.821,1290.549,737.083,1267.733z"/>
<g>
	<path fill="#F4EDE1" d="M530.403,1289.317c6.126-5.784,21.984-18.438,25.26-17.123c6.191,2.485,8.437,7.646,8.84,7.987
		c5.13,4.595-11.893,26.992-22.718,33.426c-5.456-5.361-9.164-11.28-12.69-22.561"/>
	<g>
		<path fill="#1D1B3A" d="M532.128,1291.042c5.166-4.817,10.732-9.268,16.601-13.198c1.72-1.152,4.973-3.876,7.064-2.926
			c3.26,1.48,4.784,4.191,6.86,6.827c2.38,3.021-4.343,11.416-5.98,13.716c-4.307,6.051-9.764,12.102-16.117,16.041
			c0.985,0.127,1.97,0.254,2.956,0.381c-6.062-6.095-9.454-13.367-12.063-21.484c-0.958-2.982-5.668-1.706-4.703,1.297
			c2.859,8.895,6.67,16.953,13.317,23.637c0.757,0.762,2.029,0.956,2.956,0.381c7.799-4.836,14.078-12.24,19.227-19.732
			c2.902-4.224,8.495-12.639,3.985-17.523c-4.46-4.83-8.257-10.919-15.683-7.362c-8.003,3.832-15.425,10.49-21.867,16.498
			C526.374,1289.742,529.831,1293.183,532.128,1291.042L532.128,1291.042z"/>
	</g>
</g>
<path fill="#1D1B3A" d="M564.368,1274.987c0,0-5.465,18.95-19.08,27.457s-13.614,8.507-13.614,8.507s18.085,36.745,30.145,40.519
	C573.879,1355.242,571.151,1296.945,564.368,1274.987z"/>
<g>
	<path fill="#A5A4B0" d="M546.108,1023.787c-31.857,50.819-26.547,157.767,10.619,250.302l-32.615,18.204
		c-1.151-3.455-49.341-44.298-55.371-160.867c-5.77-111.554,43.936-209.096,69.023-232.79
		c27.305-25.788,203.713-33.238,235.89,15.171c38.342,57.684,94.062,234.109,15.813,366.42l-31.745-20.541
		c2.32-9.408,37.748-162.598-22.408-253.954"/>
	<g>
		<path fill="#1D1B3A" d="M543.95,1022.525c-19.696,31.843-22.364,72.75-20.982,109.195c1.854,48.888,13.241,97.678,31.349,143.033
			c0.383-0.941,0.766-1.883,1.149-2.824c-10.872,6.068-21.743,12.137-32.615,18.205c1.224,0.498,2.448,0.996,3.672,1.494
			c-1.601-4.183-6.378-8.021-9.083-11.499c-7.306-9.391-13.4-19.724-18.662-30.375c-20.895-42.294-28.121-91.43-27.993-138.173
			c0.145-52.956,12.153-106.377,33.703-154.707c7.167-16.073,15.503-31.9,26.004-46.068c6.4-8.635,12.947-14.254,23.065-17.959
			c13.308-4.872,27.608-7.25,41.615-9.019c17.78-2.245,35.742-3.101,53.655-2.997c18.548,0.107,37.149,1.371,55.47,4.318
			c15.632,2.515,31.467,6.242,45.804,13.121c11.828,5.675,19.628,13.372,26.234,24.556c8.313,14.075,14.967,29.135,20.807,44.38
			c15.769,41.166,25.273,84.98,28.364,128.934c4.432,63.035-5.898,127.826-38.195,182.824c1.14-0.299,2.28-0.598,3.42-0.896
			c-10.582-6.848-21.163-13.694-31.745-20.541c0.383,0.94,0.766,1.882,1.149,2.822c5.463-22.241,8.491-45.26,10.549-68.032
			c3.825-42.317,2.926-85.806-7.436-127.186c-5.355-21.387-13.703-42.163-25.773-60.662c-1.754-2.688-6.085-0.186-4.317,2.523
			c24.811,38.026,32.961,84.386,34.347,129.07c1.092,35.248-2.125,70.745-8.526,105.404c-1.084,5.874-2.239,11.751-3.664,17.554
			c-0.278,1.131,0.182,2.197,1.149,2.822c10.582,6.848,21.163,13.694,31.745,20.541c1.146,0.742,2.754,0.238,3.42-0.896
			c49.638-84.527,48.173-189.726,21.696-281.587c-5.254-18.228-11.684-36.131-19.386-53.469
			c-5.613-12.635-11.786-26.065-20.411-36.979c-7.843-9.924-20.207-15.789-31.783-20.091c-15.533-5.772-32.061-8.741-48.452-10.782
			c-35.49-4.418-72.121-3.809-107.475,1.542c-12.986,1.965-26.274,4.581-38.391,9.805c-9.752,4.204-16.028,11.211-22.226,19.677
			c-10.601,14.481-18.85,30.734-26.078,47.106c-9.715,22.004-17.219,44.959-22.793,68.347
			c-12.903,54.132-13.994,110.893-2.638,165.399c5.626,27.003,14.889,53.631,29.232,77.288c3.908,6.445,8.268,12.607,13,18.472
			c1.389,1.722,2.825,3.404,4.267,5.081c0.47,0.547,0.94,1.094,1.395,1.652c-0.055-0.068,0.403,0.76,0.116,0.008
			c0.578,1.511,2.16,2.339,3.672,1.494c10.872-6.067,21.743-12.136,32.615-18.203c0.896-0.5,1.553-1.812,1.149-2.824
			c-17.601-44.084-28.601-91.098-31.03-138.551c-1.866-36.452,0.431-77.931,20.159-109.824
			C549.968,1022.298,545.642,1019.79,543.95,1022.525L543.95,1022.525z"/>
	</g>
</g>
<g>
	<path fill="#F4EDE1" d="M585.71,873.894c13.484,4.047,17.53,18.88,26.969,28.319c13.486,12.136,31.016,21.575,48.546,24.272
		c52.59,10.787,48.545-35.062,56.635-71.47"/>
	<g>
		<path fill="#1D1B3A" d="M585.113,876.061c9.658,3.215,14.43,12.386,19.886,20.254c6.269,9.039,15.317,15.506,24.713,21.023
			c10.556,6.198,21.882,9.713,33.86,11.87c8.083,1.456,16.546,1.742,24.481-0.626c12.647-3.775,19.425-15.194,23.137-27.088
			c4.644-14.877,5.52-30.7,8.838-45.881c0.617-2.825-3.716-4.026-4.335-1.195c-3.046,13.937-4.243,28.229-7.764,42.066
			c-3.232,12.7-9.408,24.688-22.938,28.29c-8.662,2.305-17.851,0.59-26.454-1.04c-11.671-2.212-22.603-7.482-32.475-13.952
			c-9.285-6.085-15.46-13.152-21.565-22.231c-4.688-6.972-10-13.099-18.188-15.824C583.55,870.808,582.377,875.151,585.113,876.061
			L585.113,876.061z"/>
	</g>
</g>
<g>
	<path fill="#DC4832" d="M670.197,669.416c8.722,0.54,25.528,3.818,25.861-10.295c0.71-13.108-15.867-20.99-26.867-15.234
		c19.526-12.925-27.071-36.655-30.567-10.145c-5.171-24.946-46.038-2.005-30.599,15.879c-6.178-10.035-23.429-3.406-31.238,4.367
		c-8.473,9.272-3.109,28.214,10.349,23.17c-19.976-4.594-26.797,41.722-4.726,33.009c-11.199-1.949-11.55,11.46-7.917,17.283
		c3.65,6.521,21.387,18.813,27.754,9.131c0.591,9.411,29.361,17.347,26.226,3.72c-6.281,13.184,20.082,8.799,25.456,1.014
		c5.711-8.184-3.475-13.228-7.804-18.952c4.937,15.836,44.753-7.31,16.676-15.342c3.976,19.136,52.051-7.979,17.991-18.34
		c8.228,8.346,10.36-3.557,5.677-9.582c-2.884-3.816-9.633-8.853-14.796-6.371"/>
	<g>
		<path fill="#1D1B3A" d="M670.197,671.664c11.15,0.768,27.181,2.751,28.109-12.543c0.935-15.4-17.979-23.034-30.249-17.175
			c0.756,1.294,1.512,2.587,2.269,3.881c11.254-7.851,3.459-18.987-6.294-23.583c-11.14-5.247-25.412-3.023-27.575,10.9
			c1.445,0,2.89,0,4.335,0c-6.437-27.611-51.822-3.317-34.355,18.065c1.615,1.978,4.973-0.631,3.53-2.724
			c-8.748-12.688-30.33-3.764-36.998,6.943c-6.747,10.835,0.557,28.588,14.765,23.896c1.965-0.648,2.319-3.873,0-4.334
			c-12.14-2.415-19.422,9.516-20.949,20.005c-1.56,10.716,3.952,21.865,16.223,17.338c2.485-0.917,1.901-4.093-0.598-4.414
			c-12.812-1.65-15.072,14.175-8.692,22.362c6.207,7.968,22.416,18.277,30.471,7.434c-1.396-0.379-2.792-0.757-4.188-1.135
			c1.636,13.12,33.855,20.214,30.641,3.122c-0.343-1.82-3.341-2.301-4.108-0.537c-5.557,12.777,10.449,12.657,18.499,10.168
			c4.891-1.513,10.857-4.558,12.396-9.906c2.369-8.227-5.199-13.027-9.713-18.654c-1.407-1.754-4.487,0.129-3.757,2.187
			c3.802,10.703,17.502,7.219,24.615,2.203c3.374-2.379,6.591-6.012,6.392-10.392c-0.265-5.81-6.892-8.497-11.565-9.918
			c-1.692-0.515-3.156,1.149-2.765,2.765c3.058,12.623,19.217,8.284,26.857,3.027c4.034-2.775,8.051-7.197,7.629-12.438
			c-0.544-6.765-8.211-9.932-13.73-11.693c-2.14-0.684-3.812,2.234-2.187,3.756c2.084,1.952,5.646,4.864,8.703,3.01
			c2.959-1.795,3.455-5.269,3.136-8.47c-0.856-8.591-11.353-17.386-19.966-14.249c-2.701,0.983-1.535,5.328,1.195,4.334
			c4.999-1.82,10.117,2.268,12.854,6.194c1.14,1.635,1.503,3.714,1.536,5.658c0.064,3.745-2.55,1.964-4.28,0.345
			c-0.729,1.252-1.458,2.504-2.187,3.756c3.617,1.155,10.099,3.228,10.474,7.895c0.287,3.571-3.444,6.645-6.043,8.433
			c-4.963,3.415-17.512,8.101-19.657-0.752c-0.922,0.922-1.843,1.844-2.765,2.765c22.602,6.873-10.048,23.453-13.911,12.577
			c-1.252,0.729-2.504,1.458-3.757,2.187c2.872,3.58,7.306,6.547,8.802,11.027c1.583,4.74-4.325,8.004-7.766,9.402
			c-3.384,1.376-18.667,5.125-15.158-2.945c-1.37-0.18-2.739-0.358-4.108-0.537c1.642,8.728-20.901,2.972-21.811-4.317
			c-0.283-2.269-2.799-3.004-4.188-1.135c-5.518,7.429-18.15-2.505-22.321-7.009c-4.859-5.248-5.121-17.252,4.424-16.023
			c-0.199-1.471-0.398-2.942-0.598-4.414c-9.22,3.401-11.702-4.88-10.581-12.582c1.087-7.469,6.205-17.902,15.307-16.093
			c0-1.444,0-2.89,0-4.334c-11.403,3.766-13.738-10.788-9.128-18.19c4.638-7.447,22.535-14.952,28.675-6.045
			c1.177-0.908,2.354-1.816,3.53-2.724c-12.388-15.166,21.946-34.696,26.842-13.692c0.481,2.063,3.987,2.238,4.335,0
			c1.661-10.691,11.281-11.907,20.069-8.597c6.488,2.444,15.67,10.292,7.196,16.203c-2.383,1.662-0.354,5.134,2.269,3.881
			c10.463-4.996,25.091,2.614,23.329,15.075c-1.404,9.932-16.736,6.729-23.458,6.266
			C667.302,666.968,667.321,671.465,670.197,671.664L670.197,671.664z"/>
	</g>
</g>
<g>
	<path fill="#F4EDE1" d="M751.47,824.288c-0.832-16.54-22.46-45.767-25.043-88.193c-3.812-62.606-33.53-110.692-69.14-108.881
		c-42.412,2.155-64.458,46.375-65.874,72.405c-1.69,31.093-1.527,59.188-4.917,90.198c-3.391,31.027-26.978,61.037-8.751,91.901
		c11.393,19.294,39.959,31.783,61.659,35.037c33.728,5.059,61.056,0.245,86.377-22.496
		C748.631,873.738,752.905,852.092,751.47,824.288z"/>
	<g>
		<path fill="#1D1B3A" d="M753.718,824.288c-0.499-7.462-3.574-14.546-6.369-21.386c-4.157-10.177-8.412-20.283-11.748-30.771
			c-8.287-26.057-6.816-53.658-14.304-79.948c-5.744-20.167-15.423-40.713-31.425-54.763c-13.961-12.258-31.174-15.038-48.738-9.518
			c-18.838,5.921-33.22,21.229-42.187,38.33c-4.056,7.737-7.024,16.11-8.693,24.683c-2.39,12.278-1.873,25.298-2.316,37.749
			c-0.564,15.837-1.142,31.671-2.393,47.471c-1.183,14.941-4.071,28.582-8.704,42.806c-4.011,12.315-8.051,24.741-8.183,37.818
			c-0.123,12.1,4.432,23.698,12.091,32.951c12.23,14.776,32.081,23.35,50.31,27.721c19.608,4.702,41.36,5.006,60.735-0.829
			c19.682-5.927,37.633-19.536,49.38-36.295C752.689,863.88,754.652,843.777,753.718,824.288c-0.138-2.886-4.634-2.899-4.495,0
			c0.58,12.09,0.196,24.163-3.254,35.843c-3.635,12.308-11.288,22.686-20.525,31.398c-19.361,18.262-43.921,25.853-70.2,24.622
			c-24.558-1.149-50.748-8.947-68.575-26.628c-10.027-9.945-14.21-23.523-13.346-37.42c0.849-13.655,6.307-26.82,10.345-39.748
			c8.911-28.525,7.896-59.815,8.971-89.408c0.432-11.879,0.14-24.061,3.021-35.665c2.275-9.163,6.228-17.855,11.219-25.845
			c11.384-18.221,30.357-31.749,52.363-32.025c19.35-0.243,34.263,15.612,43.61,30.858c7.642,12.463,12.596,26.445,16.099,40.579
			c4.183,16.882,4.263,34.082,7.093,51.135c2.483,14.963,7.604,29.294,13.325,43.285c3.731,9.126,9.185,19.006,9.854,29.019
			C749.415,827.164,753.912,827.183,753.718,824.288z"/>
	</g>
</g>
<g>
	<g>
		<path fill="#1D1B3A" d="M636.788,722.399c0.933,3.571,1.173,7.351,1.293,11.025c0.067,2.058-0.002,4.135-0.459,6.146
			c-0.393,1.729-0.604,0.46-1.09-0.737c-1.418-3.499-1.664-7.521-1.765-11.247c-0.071-2.593-0.403-7.325,1.469-9.444
			c-1.06,0-2.119,0-3.179,0c0.903,0.83,1.583,1.808,2.039,2.934c1.323,2.58,5.201,0.305,3.882-2.27
			c-0.768-1.498-1.568-2.654-2.742-3.842c-0.821-0.831-2.371-0.915-3.179,0c-3.258,3.688-2.927,10.05-2.711,14.614
			c0.212,4.507,0.668,11.187,4.298,14.43c3.869,3.456,7.068-1.431,7.633-4.896c0.926-5.678,0.298-12.345-1.154-17.908
			C640.391,718.401,636.055,719.591,636.788,722.399L636.788,722.399z"/>
	</g>
</g>
<g>
	<g>
		<path fill="#1D1B3A" d="M697.217,715.323c0.933,3.571,1.173,7.351,1.293,11.024c0.067,2.058-0.003,4.135-0.459,6.146
			c-0.393,1.73-0.604,0.461-1.09-0.737c-1.418-3.498-1.663-7.52-1.765-11.246c-0.071-2.594-0.402-7.326,1.469-9.445
			c-1.06,0-2.119,0-3.179,0c0.903,0.83,1.583,1.808,2.039,2.935c1.322,2.58,5.201,0.306,3.882-2.27
			c-0.768-1.498-1.568-2.654-2.742-3.843c-0.821-0.832-2.371-0.915-3.179,0c-3.258,3.688-2.927,10.05-2.711,14.615
			c0.213,4.506,0.669,11.187,4.298,14.43c3.869,3.457,7.068-1.432,7.633-4.897c0.926-5.677,0.298-12.344-1.154-17.907
			C700.82,711.325,696.484,712.515,697.217,715.323L697.217,715.323z"/>
	</g>
</g>
<g>
	<path fill="#F4EDE1" d="M598.128,719.271c-16.379-19.387-33.271-3.895-29.041,17.416c1.17,7.141,3.693,20.296,10.947,24.277
		c5.289,3.189,12.202,0.63,18.038,0.44"/>
	<g>
		<path fill="#1D1B3A" d="M599.717,717.682c-5.569-6.301-13.577-11.824-22.225-8.403c-7.873,3.114-10.876,12.186-11.297,19.924
			c-0.477,8.764,2.342,19.485,6.495,27.14c5.657,10.427,15.484,7.926,25.382,7.31c2.879-0.179,2.896-4.675,0-4.494
			c-8.297,0.516-16.34,3.375-21.5-5.084c-3.225-5.287-4.315-11.965-5.317-17.984c-1.217-7.309-0.591-15.364,4.996-20.799
			c6.722-6.54,15.58,0.242,20.288,5.569C598.462,723.037,601.629,719.845,599.717,717.682L599.717,717.682z"/>
	</g>
</g>
<g>
	<path fill="#F4EDE1" d="M588.991,722.768c-18.978-2.792-11.162,19.534,5.583,17.859"/>
	<g>
		<path fill="#1D1B3A" d="M588.991,720.521c-7.217-0.931-15.028,2.36-12.92,10.87c1.964,7.929,10.981,12.069,18.502,11.483
			c2.871-0.223,2.892-4.72,0-4.494c-5.462,0.425-11.582-1.807-13.844-7.213c-2.483-5.935,3.885-6.716,8.262-6.152
			C591.86,725.385,591.824,720.886,588.991,720.521L588.991,720.521z"/>
	</g>
</g>
<g>
	<g>
		<path fill="#1D1B3A" d="M665.306,719.738c7.517,13.891,11.306,32.2,27.066,39.211c11.514,5.122,30.011,6.677,31.051,22.423
			c0.953,14.422-19.965,16.559-30.126,16.036c-17.132-0.881-27.293-12.584-33.547-27.35c-1.127-2.661-4.999-0.367-3.882,2.27
			c3.082,7.274,6.826,14.224,12.656,19.671c6.131,5.729,14.263,8.424,22.398,9.682c11.662,1.804,29.352-0.988,35.364-12.483
			c3.044-5.82,1.742-13.76-1.897-18.988c-4.027-5.785-11.258-8.521-17.621-10.804c-8.363-3-16.193-4.916-22.153-11.955
			c-7.252-8.566-10.155-20.238-15.427-29.981C667.808,714.918,663.927,717.188,665.306,719.738L665.306,719.738z"/>
	</g>
</g>
<g>
	<g>
		<path fill="#1D1B3A" d="M623.217,792.05c29.217,16.467,62.288,32.649,96.125,20.454c2.705-0.975,1.539-5.319-1.195-4.334
			c-32.701,11.786-64.461-4.108-92.662-20.001C622.958,786.744,620.692,790.627,623.217,792.05L623.217,792.05z"/>
	</g>
</g>
<g>
	<path fill="#DC4832" d="M630.209,627.123c-25.621-31.015,35.061-48.545,32.364-12.137c24.273-40.455,68.772,13.486,25.622,21.576
		c16.181-4.045,35.061,4.046,20.228,20.228c-12.137,14.833-52.591,10.788-56.637-9.439c14.833,63.377-71.47,12.137-25.622-4.045
		c-9.439,6.742-37.757,6.742-37.757-9.44c0-14.832,35.061-24.272,41.802-10.787"/>
	<g>
		<path fill="#1D1B3A" d="M631.799,625.534c-4.143-5.155-7.126-11.494-4.737-18.066c1.789-4.919,6.918-8.12,11.657-9.631
			c4.924-1.57,10.518-1.397,15.06,1.183c5.676,3.224,6.898,9.979,6.547,15.967c-0.137,2.324,3.069,2.943,4.188,1.135
			c4.116-6.657,9.977-12.854,18.173-13.705c6.098-0.633,11.94,2.221,16.139,6.476c3.584,3.632,5.997,8.982,4.937,14.122
			c-1.503,7.287-9.806,10.101-16.165,11.382c0.398,1.444,0.797,2.89,1.195,4.334c6.487-1.488,22.952-2.271,22.732,7.979
			c-0.095,4.44-4.651,9.156-8.066,11.629c-2.963,2.145-6.502,3.315-10.024,4.146c-13.011,3.072-35.903-0.098-39.481-15.73
			c-0.647-2.826-4.975-1.627-4.335,1.195c1.786,7.874,3.999,19.777-3.13,25.82c-4.812,4.079-12.718,1.96-17.749-0.419
			c-5.638-2.667-11.506-7.321-13.451-13.478c-2.411-7.632,5.436-12.2,11.473-14.399c-0.578-1.369-1.155-2.738-1.732-4.107
			c-8.272,5.563-38.731,6.899-33.976-9.889c3.225-11.386,30.871-18.761,37.214-7.264c1.401,2.538,5.283,0.271,3.882-2.27
			c-8.365-15.159-39.97-6.66-45.169,7.62c-3.313,9.101,3.63,16.245,11.772,18.839c8.708,2.773,20.824,2.037,28.545-3.156
			c2.005-1.348,0.788-5.025-1.732-4.107c-7.847,2.857-16.594,8.523-15.016,18.113c1.32,8.021,8.545,14.191,15.399,17.722
			c6.843,3.524,16.15,5.423,22.875,0.626c9.437-6.731,7.311-21.218,5.128-30.847c-1.445,0.398-2.89,0.797-4.335,1.195
			c4.643,20.277,34.649,23.401,50.687,17.113c8.155-3.198,18.268-12.867,15.129-22.474c-3.412-10.443-19.478-10.11-27.837-8.192
			c-2.84,0.651-1.624,4.902,1.195,4.334c8.109-1.633,16.478-5.413,19.139-13.884c2.079-6.614-1.125-13.668-5.426-18.594
			c-4.885-5.594-12.421-8.798-19.818-8.331c-9.814,0.619-17.166,8.024-22.055,15.931c1.396,0.379,2.792,0.757,4.188,1.135
			c0.449-7.648-1.678-15.03-8.226-19.508c-5.658-3.868-13.431-3.774-19.723-1.769c-6.306,2.011-11.604,6.417-14.145,12.563
			c-3.269,7.906,0.988,16.334,5.893,22.438C630.436,630.972,633.596,627.77,631.799,625.534L631.799,625.534z"/>
	</g>
</g>
<g>
	<g>
		<path fill="#1D1B3A" d="M615.215,716.398c3.513-6.845,11.128-10.52,17.992-13.177c7.084-2.743,14.771-4.541,22.354-5.062
			c2.875-0.198,2.895-4.694,0-4.496c-8.478,0.583-16.856,2.632-24.768,5.694c-7.53,2.915-15.631,7.312-19.459,14.771
			C610.013,716.703,613.891,718.977,615.215,716.398L615.215,716.398z"/>
	</g>
</g>
<g>
	<g>
		<path fill="#1D1B3A" d="M681.481,695.211c10.979,4.59,23.688,5.253,32.693,13.756c2.105,1.988,5.29-1.185,3.179-3.178
			c-9.702-9.161-22.862-9.974-34.676-14.912C680.002,689.759,678.848,694.111,681.481,695.211L681.481,695.211z"/>
	</g>
</g>
<g>
	<g>
		<path fill="#1D1B3A" d="M690.582,860.753c0.749,9.108-15.093,29.34-22.33,16.065c-1.388-2.545-5.27-0.276-3.882,2.27
			c9.757,17.896,31.83-4.687,30.707-18.335C694.841,857.885,690.344,857.863,690.582,860.753L690.582,860.753z"/>
	</g>
</g>
</svg>
