<?xml version="1.0" encoding="utf-8"?>
<!-- Generator: Adobe Illustrator 16.0.4, SVG Export Plug-In . SVG Version: 6.00 Build 0)  -->
<!DOCTYPE svg PUBLIC "-//W3C//DTD SVG 1.1//EN" "http://www.w3.org/Graphics/SVG/1.1/DTD/svg11.dtd">
<svg version="1.1" id="char2" xmlns="http://www.w3.org/2000/svg" xmlns:xlink="http://www.w3.org/1999/xlink" x="0px" y="0px"
	 width="2554.794px" height="1700.788px" viewBox="0 0 2554.794 1700.788" enable-background="new 0 0 2554.794 1700.788"
	 xml:space="preserve">
<g>
	<g>
		<path fill="#1D1B3A" d="M1163.778,905.495c0,0,33.847,3.632,36.667,7.993c2.821,4.358,36.253,110.218,48.656,114.088
			c10.449,3.263,51.829-78.847,66.637-79.39l14.279,14.715c0,0-57.116,111.728-82.502,105.185
			c-25.387-6.537-88.849-54.499-88.849-54.499S1160.959,903.132,1163.778,905.495z"/>
		<g>
			<path fill="#1D1B3A" d="M1163.778,907.843c5.57,0.602,11.123,1.377,16.652,2.277c3.903,0.635,7.792,1.375,11.632,2.324
				c1.637,0.405,5.875,1.341,6.469,2.428c1.301,2.384,2.368,6.12,3.406,9.032c2.198,6.167,4.349,12.349,6.527,18.522
				c5.661,16.039,11.429,32.048,17.753,47.84c4.722,11.791,9.323,24.888,17.042,35.13c1.599,2.122,3.863,4.837,6.827,4.6
				c3.512-0.281,6.407-3.513,8.631-5.927c9.513-10.329,16.905-22.829,24.683-34.455c7.981-11.929,15.772-24.775,26.061-34.9
				c1.406-1.383,2.904-2.654,4.63-3.616c1.769-0.985,1.564,0.374,0.03-1.207c0.604,0.623,1.208,1.245,1.812,1.867
				c4.142,4.268,8.283,8.535,12.424,12.803c-0.122-0.948-0.245-1.896-0.367-2.846c-10.49,20.503-22.139,40.54-34.808,59.767
				c-8.478,12.865-17.535,25.892-28.888,36.416c-3.6,3.337-7.796,6.73-12.665,7.909c-5.012,1.213-11.422-2.71-15.721-4.768
				c-27.072-12.953-52.165-31.438-76.056-49.48c0.388,0.676,0.775,1.352,1.163,2.027c0.361-17.325,0.832-34.649,1.4-51.97
				c0.403-12.286,0.852-24.573,1.527-36.848c0.238-4.316,0.504-8.635,0.906-12.939c0.117-1.254,0.244-2.509,0.445-3.752
				c0.527-3.269,0.241,1.205-2.7-0.556c2.605,1.56,4.965-2.502,2.37-4.055c-5.665-3.392-5.423,16.313-5.543,18.284
				c-0.929,15.238-1.412,30.507-1.891,45.765c-0.417,13.271-0.767,26.544-1.072,39.818c-0.047,2.066-0.616,4.836-0.054,6.876
				c0.61,2.219,5.217,4.487,6.853,5.689c13.33,9.796,26.914,19.266,40.833,28.205c7.876,5.06,15.893,9.922,24.163,14.313
				c5.988,3.18,12.395,6.485,19.045,8.025c9.746,2.258,19.447-7.981,25.338-14.222c10.924-11.571,19.947-25.022,28.507-38.382
				c11.137-17.38,21.498-35.374,30.903-53.754c0.49-0.959,0.4-2.056-0.367-2.846c-4.294-4.425-8.588-8.85-12.882-13.274
				c-3.111-3.206-6.225-1.815-9.511,0.701c-10.995,8.422-18.781,22.021-26.41,33.318c-8.689,12.867-16.755,26.611-27.053,38.29
				c-1.362,1.544-2.819,3.115-4.517,4.296c-1.298,0.902-1.382,0.91-2.188,0.359c-3.24-2.212-5.322-7.248-7.071-10.568
				c-14.019-26.602-23.063-56.144-33.01-84.431c-1.595-4.537-3.172-9.083-4.863-13.585c-1.055-2.807-1.783-4.977-4.658-6.363
				c-6.311-3.043-14.023-3.812-20.86-4.873c-4.94-0.767-9.905-1.428-14.876-1.965C1160.769,902.821,1160.8,907.521,1163.778,907.843
				z"/>
		</g>
	</g>
	<g>
		<path fill="#F4EDE1" d="M1308.335,956.362c1.411,3.635,7.756,10.172,10.577,11.624c11.988,4.361,16.217,4.365,27.501,9.448
			c10.576,3.636,24.678,6.54,35.962,4.362c4.936-0.73,38.785-5.088,43.719-5.814c6.349-0.729,2.116-5.087-13.398-13.081
			c-2.105-1.547-30.45-8.206-26.795-7.265c7.759,2.179-25.385-3.636-31.027-10.176c-0.703,0-1.409,0.727-1.409,0.727
			c14.808,0,52.886,4.361,45.833-7.266c-16.922-1.457-33.143-7.267-49.358-10.901c-4.232-0.727-2.822-1.453-6.346,0
			c-2.822,0.727-8.712,4.451-11.53,5.178c-3.527,2.182-18.448,10.603-24.833,18.278"/>
		<g>
			<path fill="#1B1D3A" d="M1306.308,957.547c1.734,3.795,4.834,6.997,7.86,9.795c3.69,3.413,8.505,4.484,13.214,5.911
				c11.537,3.497,22.49,8.438,34.418,10.541c16.91,2.98,35.358-1.624,52.204-3.841c3.314-0.437,6.628-0.874,9.94-1.322
				c1.9-0.257,4.144-0.275,5.769-1.4c5.693-3.938-4.574-9.976-7.153-11.567c-10.906-6.727-23.778-10.176-36.354-12.383
				c-2.511-0.44-4.256,2.899-1.81,4.293c0.368,0.209,1.67,0.648,1.486,0.508c-0.28-1.071-0.562-2.143-0.842-3.213
				c0.826-1.68,2.616-0.943,0.578-1.269c-1.057-0.168-2.107-0.379-3.156-0.589c-2.964-0.593-5.902-1.308-8.825-2.076
				c-5.396-1.419-13.106-2.911-17.104-7.135c-0.532-0.562-1.535-0.885-2.284-0.604c-0.985,0.37-1.643,0.67-2.446,1.331
				c-1.646,1.355-0.24,4,1.661,4.009c12.325,0.058,24.705,1.628,37.011,0.314c3.591-0.384,8.44-0.972,10.841-4.047
				c0.981-1.257,1.4-2.808,1.075-4.388c-0.63-3.063-2.005-3.738-4.971-4.021c-11.626-1.111-22.99-4.489-34.231-7.486
				c-7.328-1.954-14.75-5.431-22.027-2.494c-12.631,5.097-26.59,13.06-35.593,23.402c-1.979,2.272,1.329,5.609,3.321,3.32
				c8.693-9.986,22.259-17.65,34.486-22.584c3.436-1.387,5.932-0.285,9.542,0.573c5.451,1.296,10.852,2.804,16.265,4.243
				c9.915,2.635,19.886,4.923,30.114,5.901c-0.676-0.388-1.352-0.775-2.027-1.163c2.688,4.843-14.631,4.521-17.013,4.533
				c-8.939,0.047-17.856-0.76-26.793-0.802c0.554,1.337,1.107,2.673,1.66,4.009c0.125-0.041,0.249-0.081,0.373-0.122
				c-0.762-0.201-1.522-0.403-2.284-0.604c4.826,5.103,13.646,6.889,20.144,8.598c2.367,0.622,14.037,4.977,15.738,1.521
				c0.622-1.263,0.231-2.39-0.842-3.213c-0.229-0.176-2.562-1.12-1.487-0.508c-0.604,1.431-1.206,2.861-1.81,4.292
				c4.201,0.737,8.371,1.982,12.501,3.029c4.315,1.093,10.213,1.72,14.053,4.089c4.165,2.57,8.617,4.539,12.632,7.387
				c0.537,0.392,1.049,0.813,1.535,1.266c1.341,1.189,0.034,0.725,1.354-0.189c-0.557,0.386-1.592,0.332-2.256,0.426
				c-5.725,0.812-11.463,1.532-17.195,2.284c-14.581,1.913-29.873,5.447-44.531,3.164c-10.356-1.612-19.565-6.097-29.499-9.09
				c-4.508-1.358-10.038-2.205-14.109-4.604c-3.666-2.16-7.336-6.581-9.079-10.396
				C1309.106,952.424,1305.059,954.814,1306.308,957.547L1306.308,957.547z"/>
		</g>
	</g>
	<g>
		<g>
			<path fill="#1B1D3A" d="M1376.816,953.372c-7.391,2.555-12.529,8.716-19.6,11.861c-2.763,1.229-0.371,5.274,2.371,4.055
				c6.668-2.966,11.546-8.991,18.477-11.387C1380.909,956.917,1379.687,952.379,1376.816,953.372L1376.816,953.372z"/>
		</g>
	</g>
	<g>
		<g>
			<path fill="#1B1D3A" d="M1404.858,967.901c-11.453-2.939-22.946-5.716-34.552-7.99c-2.958-0.579-4.219,3.946-1.248,4.529
				c11.605,2.274,23.099,5.05,34.552,7.99C1406.546,973.183,1407.79,968.654,1404.858,967.901L1404.858,967.901z"/>
		</g>
	</g>
	<g>
		<g>
			<path fill="#1B1D3A" d="M1387.23,972.992c-7.905-2.111-16.068-2.98-23.975-5.091c-2.93-0.782-4.172,3.749-1.248,4.529
				c7.905,2.109,16.068,2.979,23.975,5.091C1388.912,978.303,1390.154,973.773,1387.23,972.992L1387.23,972.992z"/>
		</g>
	</g>
	<g>
		<path fill="#1D1B3A" d="M1202.941,1325.69c6.798-12.625,35.032-374.956-14.868-418.203c-4.802-4.162-66.93-1.882-86.494-1.663
			c-38.667,0.434-28.421,28.957-28.421,287.061c0,38.415,8.403,117.647,15.606,133.253
			C1088.765,1326.137,1195.39,1339.714,1202.941,1325.69z"/>
		<g>
			<path fill="#1D1B3A" d="M1204.89,1326.829c1.777-3.446,1.957-8.047,2.489-11.802c1.211-8.545,2.106-17.135,2.942-25.724
				c2.667-27.395,4.482-54.877,5.926-82.36c3.583-68.203,5.405-137.142-0.404-205.271c-2.122-24.891-4.803-50.859-13.433-74.477
				c-2.663-7.287-6.093-14.761-11.663-20.309c-2.933-2.921-7.105-3.042-11.037-3.398c-8.18-0.742-16.447-0.723-24.653-0.739
				c-17.618-0.037-35.225,0.572-52.839,0.811c-4.488,0.061-9.1,0.314-13.351,1.881c-9.292,3.424-13.176,12.581-15.207,21.621
				c-4.36,19.408-3.811,40.189-3.95,59.947c-0.28,39.815,0.505,79.642,0.828,119.454c0.404,49.925-0.743,99.756,4.181,149.5
				c1.924,19.438,4.125,39.031,8.213,58.152c0.651,3.047,1.85,13.771,5.833,14.277c2.285,0.29,4.573,0.556,6.862,0.819
				c20.477,2.352,41.054,4.191,61.657,4.884c10.368,0.349,20.852,0.465,31.17-0.753
				C1193.696,1332.724,1201.868,1331.958,1204.89,1326.829c1.48-2.513-2.421-4.782-3.896-2.277
				c-1.229,2.087-4.554,2.728-6.694,3.253c-4.714,1.158-9.633,1.48-14.464,1.733c-12.931,0.677-25.945,0.053-38.855-0.745
				c-17.438-1.079-34.88-2.709-52.214-4.911c0.649,0.372,1.299,0.745,1.948,1.117c-2.431-5.438-3.412-11.697-4.526-17.503
				c-1.842-9.6-3.195-19.296-4.425-28.99c-2.774-21.882-4.74-43.9-5.812-65.932c-1.271-26.09-0.559-52.304-0.708-78.418
				c-0.142-24.984-0.383-49.968-0.631-74.951c-0.323-32.484-1.071-65.046,0.098-97.521c0.503-13.98,0.185-30.938,6.76-43.752
				c3.871-7.545,10.684-9.586,18.941-9.829c16.242-0.479,32.514-0.731,48.763-0.828c8.846-0.053,17.706-0.032,26.542,0.446
				c3.796,0.205,9.258-0.215,12.107,2.622c5.571,5.55,8.704,13.488,11.203,20.785c3.734,10.905,6.016,22.304,7.883,33.656
				c5.039,30.643,6.564,61.893,7.395,92.894c1.789,66.784-0.785,133.813-5.824,200.413c-1.164,15.385-2.476,30.768-4.237,46.097
				c-0.542,4.709-1.123,9.418-1.89,14.097c-0.234,1.429-0.491,2.854-0.807,4.267c-0.162,0.721-0.759,2.403-0.552,2.001
				C1199.663,1327.132,1203.556,1329.416,1204.89,1326.829z"/>
		</g>
	</g>
	<g>
		<path fill="#EFEA77" d="M1158.585,648.832c-9.667-24.706-27.446-48.309-53.591-53.901c-62.19-14.311-73.847,46.632-68.997,93.135
			c2.982,28.256,14.18,74.097-14.995,94.53c-20.03,15.326-43.767-1.165-41.437-26.078c12.208,37.169,17.679,68.544,65.668,67.71
			c42.705,0.494,90.173-30.15,90.61-77.979c1.94-31.366-24.312-55.647-23.433-87.682c0.205-26.25,23.137-27.336,34.203-4.854
			c3.499-5.558,6.633-12.895,7.308-18.678"/>
		<g>
			<path fill="#1D1B3A" d="M1160.761,648.232c-8.619-21.671-22.787-42.682-44.881-52.204c-16.958-7.309-38.997-8.22-55.029,1.815
				c-13.948,8.731-21.18,24.771-24.804,40.223c-4.149,17.688-3.989,36.312-1.816,54.255c2.873,23.719,9.103,50.945-1.804,73.534
				c-5.389,11.161-17.122,21.311-30.099,20.276c-14.543-1.16-21.454-16.815-20.506-29.614c-1.477,0.2-2.954,0.399-4.431,0.6
				c5.586,17.077,9.792,36.314,21.182,50.689c12.458,15.724,31.341,19.096,50.44,18.64c41.562-0.991,83.667-30.224,88.69-73.29
				c1.495-12.818-0.618-25.048-5.091-37.062c-4.741-12.731-11.323-24.691-15.199-37.757c-3.001-10.115-6.559-28.874,3.526-36.425
				c9.515-7.125,19.929,5.521,23.728,12.938c0.795,1.553,3.056,1.377,3.896,0c3.588-5.888,6.534-12.349,7.535-19.217
				c0.415-2.845-3.932-4.069-4.351-1.199c-0.951,6.525-3.67,12.542-7.08,18.139c1.298,0,2.597,0,3.896,0
				c-3.899-7.614-10.023-14.926-18.788-16.736c-7.041-1.454-13.241,2.433-16.556,8.484c-4.967,9.066-3.392,21.372-1.256,30.994
				c2.566,11.562,7.954,22.359,12.671,33.146c5.059,11.566,9.286,23.512,9.026,36.299c-0.24,11.809-2.776,22.914-8.407,33.344
				c-10.64,19.706-30.592,33.158-51.597,39.693c-20.386,6.342-48.575,7.965-65.847-6.743
				c-15.577-13.264-20.011-36.624-26.067-55.136c-0.811-2.48-4.244-1.934-4.431,0.6c-1.427,19.27,13.12,38,33.714,33.474
				c9.466-2.081,17.757-9.874,22.952-17.72c5.396-8.15,7.548-18.055,8.475-27.642c1.975-20.418-2.904-40.619-4.595-60.862
				c-1.525-18.255-0.534-37.245,5.455-54.673c3.283-9.552,8.617-18.416,16.427-24.919c8.549-7.118,19.771-9.418,30.639-9.056
				c15.218,0.509,29.431,5.993,40.829,16.066c11.528,10.188,19.572,24.084,25.205,38.245
				C1157.472,652.101,1161.837,650.938,1160.761,648.232L1160.761,648.232z"/>
		</g>
	</g>
	<g>
		<path fill="#EFEA77" d="M1113.979,623.662c28.603-17.57,79.811,5.276,90.057,21.577c10.318,16.417,12.37,34.842,2.023,62.666
			c-3.593,9.663-85.942,107.879-117.073,91.637C1057.854,783.298,1063.174,654.875,1113.979,623.662z"/>
		<g>
			<path fill="#1D1B3A" d="M1115.117,625.61c19.093-11.309,44.406-5.311,63.308,3.408c7.925,3.655,15.902,8.344,21.795,14.881
				c6.818,7.563,9.853,19.17,10.351,29.073c0.552,10.993-2.1,25.6-6.896,34.72c-1.743,3.315-4.216,6.339-6.5,9.286
				c-9.041,11.671-18.98,22.683-29.243,33.283c-12.165,12.565-25.063,24.667-39.321,34.841
				c-9.315,6.647-22.706,15.967-34.899,13.708c-10.795-1.999-15.332-15.741-17.758-24.84c-4.233-15.87-4.571-32.808-3.567-49.107
				c1.203-19.521,5.074-39.06,12.062-57.349C1090.616,651.372,1100.138,634.99,1115.117,625.61c2.459-1.54,0.196-5.445-2.277-3.896
				c-28.371,17.768-39.058,56.098-43.354,87.204c-2.362,17.104-2.866,34.598-0.639,51.743c1.586,12.212,4.47,25.481,12.381,35.29
				c17.343,21.502,50.343-6.606,64.412-18.478c13.288-11.212,25.552-23.658,37.199-36.55c8.077-8.941,16.162-18.147,22.965-28.117
				c2.091-3.064,3.142-6.178,4.336-9.743c3.098-9.244,5.024-18.953,4.981-28.723c-0.061-13.829-5.421-28.746-16.099-37.86
				c-11.381-9.714-26.338-15.766-40.765-19.137c-14.987-3.502-31.82-3.683-45.416,4.37
				C1110.339,623.195,1112.608,627.096,1115.117,625.61z"/>
		</g>
	</g>
	<g>
		<path fill="#EFEA77" d="M1173.59,658.307c-15.39-38.109-108.629-38.681-120.067-12.536
			c-12.634,28.876-37.902,153.103,12.632,153.103"/>
		<g>
			<path fill="#1D1B3A" d="M1175.766,657.708c-5.754-13.702-19.029-21.466-32.513-26.161c-16.075-5.598-33.886-7.068-50.771-5.603
				c-12.703,1.103-27.953,3.915-37.279,13.422c-3.363,3.429-4.883,8.069-6.427,12.507c-2.083,5.986-3.763,12.113-5.31,18.256
				c-6.823,27.104-11.248,55.938-9.432,83.931c1.283,19.772,7.686,46.771,32.122,47.07c2.911,0.036,2.908-4.477,0-4.512
				c-30.864-0.378-28.794-47.981-27.457-68.639c1.101-17.012,3.866-33.932,7.653-50.542c1.526-6.693,3.271-13.342,5.309-19.898
				c1.414-4.548,2.752-9.669,5.538-13.6c4.878-6.884,14.918-9.729,22.657-11.521c11.188-2.593,22.912-2.908,34.325-2.071
				c19.938,1.462,48.545,7.869,57.235,28.561C1172.524,661.547,1176.892,660.389,1175.766,657.708L1175.766,657.708z"/>
		</g>
	</g>
	<g>
		<path fill="#F4EDE1" d="M1085.846,726.681c-0.677-41.972,77.851-33.171,86.652-67.02h-1.353
			c14.217,14.893,35.961,4.925,33.304,26.167c-0.276,2.205-3.219,46.681-1.84,62.547l3.219,39.322
			c4.599,24.373-2.188,33.758-3.542,36.467c-6.092,14.216-11.509,12.861-26.402,22.339c-23.694,15.57-31.14,18.956-25.048,52.127
			l33.911,8.856l-32.154,38.476l-54.102-37.284l21.204-12.079c0-15.568,5.417-29.786-4.738-42.647
			c-5.417-7.448-12.863-12.188-20.986-16.926c-22.34-13.539-23.694-42.647-25.725-66.343l6.091-2.707
			c-19.632-2.031-20.986-16.924-19.632-34.525c1.354-16.247,12.862-13.539,23.694-2.031"/>
		<g>
			<path fill="#1D1B3A" d="M1088.102,726.681c-0.047-22.185,24.59-29.685,41.822-35.676c16.277-5.658,39.49-11.817,44.749-30.744
				c0.393-1.415-0.711-2.855-2.175-2.855c-0.451,0-0.902,0-1.353,0c-1.967,0-2.988,2.459-1.595,3.852
				c6.735,6.729,15.13,8.751,23.976,11.282c3.535,1.012,7.062,2.445,8.379,6.162c1.029,2.905,0.347,6.125,0.123,9.121
				c-1.285,17.197-2.173,34.526-2.026,51.772c0.107,12.639,1.707,25.324,2.736,37.908c1.178,14.381,5.578,30.238-1.418,43.707
				c-1.483,2.855-2.761,5.803-4.517,8.512c-2.472,3.813-6.36,6.063-10.263,8.156c-9.351,5.017-18.513,10.539-26.939,17.019
				c-5.374,4.132-9.731,9-11.772,15.567c-2.839,9.135-0.812,19.619,0.832,28.766c0.134,0.746,0.871,1.392,1.576,1.576
				c11.304,2.952,22.607,5.904,33.911,8.856c-0.332-1.257-0.664-2.515-0.996-3.771c-10.718,12.824-21.436,25.65-32.154,38.475
				c0.911-0.117,1.823-0.234,2.734-0.353c-18.034-12.428-36.068-24.855-54.102-37.284c0,1.299,0,2.598,0,3.896
				c7.008-3.992,14.017-7.985,21.025-11.978c2.193-1.249,1.349-4.932,1.457-7.008c0.249-4.78,0.873-9.536,1.172-14.313
				c0.558-8.885-0.99-17.273-6.378-24.515c-5.077-6.821-11.757-11.681-18.959-16.059c-7.708-4.685-13.494-10.023-17.784-18.052
				c-7.731-14.467-8.302-32.039-9.66-48.02c-0.372,0.649-0.745,1.299-1.117,1.948c2.03-0.902,4.061-1.805,6.091-2.707
				c2.31-1.026,0.789-3.968-1.139-4.204c-5.735-0.703-11.083-2.676-14.374-7.662c-2.979-4.514-3.313-10.438-3.381-15.67
				c-0.067-5.196-0.833-14.671,4.312-17.717c5.05-2.989,13,5.337,15.909,8.344c2.026,2.094,5.214-1.101,3.19-3.191
				c-4.979-5.144-11.595-10.973-19.29-9.818c-7.589,1.139-8.189,11.609-8.508,17.355c-0.415,7.488-0.124,15.334,3.374,22.123
				c3.654,7.092,11.33,9.837,18.767,10.748c-0.379-1.401-0.759-2.803-1.139-4.204c-2.03,0.902-4.061,1.805-6.091,2.707
				c-0.66,0.294-1.178,1.24-1.117,1.948c1.763,20.748,2.803,43.794,17.15,60.291c8.562,9.844,21.806,13.492,29.868,24.116
				c9.333,12.297,4.598,27.385,4.43,41.509c0.373-0.649,0.745-1.299,1.117-1.948c-7.068,4.026-14.136,8.053-21.204,12.079
				c-1.559,0.889-1.353,2.964,0,3.896c18.034,12.428,36.068,24.855,54.102,37.284c0.774,0.533,2.125,0.375,2.734-0.353
				c10.718-12.826,21.436-25.65,32.154-38.477c1.048-1.254,0.763-3.311-0.996-3.771c-11.304-2.952-22.607-5.904-33.911-8.856
				c0.525,0.525,1.051,1.051,1.576,1.576c-1.636-9.105-3.765-19.966,0.052-28.845c3.079-7.161,10.335-11.712,16.551-15.866
				c4.555-3.045,9.13-6.05,13.917-8.72c3.985-2.223,8.191-4.092,11.836-6.87c5.254-4.005,8.063-10.241,10.758-16.104
				c6.395-13.912,2.319-29.534,1.125-44.123c-1.031-12.595-2.572-25.263-2.736-37.908c-0.229-17.613,0.716-35.378,2.116-52.935
				c0.565-7.09-0.31-13.304-7.218-16.739c-9.129-4.54-18.973-4.165-26.671-11.855c-0.532,1.284-1.063,2.568-1.595,3.852
				c0.451,0,0.902,0,1.353,0c-0.725-0.952-1.45-1.903-2.175-2.855c-2.518,9.06-10.267,14.473-18.267,18.51
				c-9.778,4.934-20.452,7.976-30.719,11.695c-17.602,6.375-37.792,15.812-37.747,37.414
				C1083.596,729.59,1088.108,729.591,1088.102,726.681L1088.102,726.681z"/>
		</g>
	</g>
	<g>
		<g>
			<path fill="#1D1B3A" d="M1189.316,716.93c-0.722,6.686,1.235,13.387,0.081,20.037c1.104-0.449,2.209-0.899,3.314-1.349
				c-4.601-2.313-7.159-19.76-0.332-16.981c2.696,1.097,3.857-3.27,1.199-4.352c-13.228-5.382-11.83,20.862-3.145,25.229
				c1.189,0.598,3.05,0.174,3.314-1.349c1.232-7.097-0.687-14.129,0.081-21.236C1194.14,714.039,1189.625,714.069,1189.316,716.93
				L1189.316,716.93z"/>
		</g>
	</g>
	<g>
		<g>
			<path fill="#1D1B3A" d="M1145.245,719.542c0.571,2.513,1.274,21.101-1.901,19.242c-3.004-1.758-2.627-8.586-2.247-11.379
				c0.517-3.796,2.286-8.472,6.874-6.976c2.774,0.904,3.953-3.453,1.199-4.352c-13.507-4.403-15.614,18.237-9.358,25.563
				c4.379,5.129,9.127-0.038,10.117-4.665c1.248-5.83,0.989-12.819-0.333-18.634C1148.95,715.506,1144.601,716.709,1145.245,719.542
				L1145.245,719.542z"/>
		</g>
	</g>
	<g>
		<path fill="#F4EDE1" d="M1172.941,725.374c2.617,23.551,19.113,46.578,46.154,40.472c-20.063,13.958-45.028,16.417-56.754,3.752"
			/>
		<g>
			<path fill="#1D1B3A" d="M1170.685,725.374c3.101,25.396,21.249,48.407,49.01,42.647c-0.58-1.375-1.159-2.749-1.738-4.124
				c-14.492,9.835-39.551,18.915-54.02,4.104c-2.036-2.084-5.224,1.109-3.19,3.191c15.969,16.345,43.201,7.652,59.488-3.399
				c2.137-1.45,0.802-4.65-1.738-4.124c-24.627,5.11-40.571-15.951-43.299-38.296
				C1174.849,722.524,1170.333,722.49,1170.685,725.374L1170.685,725.374z"/>
		</g>
	</g>
	<g>
		<g>
			<path fill="#1D1B3A" d="M1129.01,712.951c5.186-5.753,11.428-10.339,17.246-15.408c2.198-1.915-1.007-5.093-3.19-3.191
				c-5.818,5.07-12.061,9.656-17.246,15.41C1123.877,711.916,1127.058,715.117,1129.01,712.951L1129.01,712.951z"/>
		</g>
	</g>
	<g>
		<g>
			<path fill="#1D1B3A" d="M1188.593,694.448c3.263,2.339,6.462,4.758,9.431,7.466c2.145,1.955,5.345-1.227,3.19-3.191
				c-3.25-2.963-6.772-5.61-10.344-8.171C1188.5,688.853,1186.25,692.769,1188.593,694.448L1188.593,694.448z"/>
		</g>
	</g>
	<g>
		<path fill="#DC4832" d="M1144.064,790.543c13.54,1.355,44.002-4.738,35.202,10.832l4.233,1.393
			c-16.574-1.746-33.601,4.61-50.943-20.349"/>
		<g>
			<path fill="#1D1B3A" d="M1144.064,792.799c7.31,0.642,14.692-0.146,22.018-0.075c5.223,0.051,15.266-0.071,11.236,7.513
				c-0.707,1.329-0.07,2.848,1.348,3.314c1.411,0.464,2.822,0.928,4.233,1.393c0.2-1.478,0.4-2.954,0.6-4.432
				c-7.81-0.742-15.711,0.098-23.476-1.177c-11.061-1.815-19.197-9.198-25.52-18.055c-1.674-2.346-5.59-0.097-3.896,2.277
				c6.617,9.27,14.734,16.825,25.999,19.671c8.773,2.216,17.973,0.947,26.892,1.795c2.649,0.252,2.902-3.674,0.6-4.432
				c-1.411-0.464-2.822-0.928-4.233-1.393c0.45,1.105,0.899,2.21,1.348,3.314c10.389-19.555-28.306-13.451-37.149-14.227
				C1141.165,788.033,1141.189,792.547,1144.064,792.799L1144.064,792.799z"/>
		</g>
	</g>
	<g>
		<path fill="#DC4832" d="M1147.606,795.797c0.638,20.735,17.872,12.493,25.521,11.405c1.397-0.199,8.676,2.761,0,7.221
			c-10.417,5.354-36.368,2.552-33.178-19.141"/>
		<g>
			<path fill="#1D1B3A" d="M1145.35,795.797c0.358,6.923,2.468,13.88,9.877,15.787c5.923,1.524,12.158-1.032,17.923-2.114
				c3.2-0.602-0.842,2.85-1.792,3.311c-1.456,0.705-3.132,1.037-4.707,1.344c-3.761,0.73-7.776,0.456-11.491-0.362
				c-9.317-2.053-14.109-9.104-12.955-18.479c0.355-2.883-4.161-2.85-4.512,0c-2.459,19.979,20.577,28.84,36.573,21.089
				c3.01-1.459,7.696-5.732,4.036-9.147c-2.537-2.368-5.062-2.428-8.263-1.708c-3.955,0.89-7.813,2.042-11.909,1.936
				c-6.432-0.167-7.989-6.271-8.268-11.654C1149.712,792.903,1145.199,792.888,1145.35,795.797L1145.35,795.797z"/>
		</g>
	</g>
	<path fill="#1D1B3A" stroke="#1D1B3A" stroke-width="1.0355" stroke-miterlimit="10" d="M1204.78,1313.826
		c0,0-20.804,255.988-33.336,266.247c-12.532,10.26-21.712-154.209-14.65-195.294c9.702-56.446,19.404-92.607,19.404-92.607
		L1204.78,1313.826z"/>
	<g>
		<path fill="#1D1B3A" d="M1266.499,1633.798c16.531,20.665-85.826-22.241-99.188-41.328c-10.193-17.663-7.978-44.078,24.796-12.397
			C1192.107,1580.073,1256.855,1626.911,1266.499,1633.798z"/>
	</g>
	<path fill="#1D1B3A" stroke="#1D1B3A" stroke-width="1.0355" stroke-miterlimit="10" d="M1100.491,1312.027
		c0,0-45.692,250.75-28.976,257.437c4.361,1.744,12.583,10.117,15.665-6.216c8.399-44.513,37.744-125.873,40.057-155.378
		c4.458-56.837,11.144-99.186,11.144-99.186L1100.491,1312.027z"/>
	<g>
		<path fill="#1D1B3A" d="M1013.02,1665.484c38.213,1.26,73.805-90.562,76.117-97.734c4.538-19.883-3.851-40.417-25.84-0.488
			C1063.296,1567.261,1015.768,1620.625,1013.02,1665.484z"/>
	</g>
	<g>
		<path fill="#1D1B3A" d="M1105.694,907.895c0,0-33.847,3.632-36.667,7.993c-2.821,4.358-36.253,110.218-48.656,114.088
			c-10.449,3.263-51.829-78.847-66.637-79.39l-14.279,14.715c0,0,57.116,111.728,82.502,105.185
			c25.387-6.537,88.849-54.499,88.849-54.499S1108.513,905.533,1105.694,907.895z"/>
		<g>
			<path fill="#1D1B3A" d="M1105.694,905.546c-5.307,0.574-10.602,1.302-15.876,2.12c-6.795,1.054-14.67,1.847-20.804,5.202
				c-2.535,1.387-3.235,4.577-4.166,7.087c-1.892,5.105-3.667,10.254-5.472,15.39c-5.467,15.555-10.974,31.098-16.888,46.49
				c-5.211,13.562-10.401,27.612-17.959,40.084c-0.913,1.506-3.918,5.968-4.789,5.818c-3.446-0.591-6.792-5.799-8.781-8.255
				c-9.821-12.129-17.949-25.68-26.714-38.566c-7.115-10.46-14.499-22.9-24.898-30.476c-3.559-2.592-6.139-2.685-9.129,0.397
				c-4.141,4.268-8.282,8.535-12.424,12.803c-0.767,0.79-0.857,1.887-0.367,2.846c10.49,20.502,22.139,40.54,34.809,59.766
				c8.427,12.788,17.442,25.677,28.521,36.336c7.504,7.22,15.468,12.576,25.905,8.882c16.282-5.764,31.287-16.006,45.606-25.445
				c12.562-8.281,24.86-16.977,36.946-25.937c1.567-1.162,3.977-2.338,3.931-4.524c-0.068-3.227-0.143-6.453-0.219-9.679
				c-0.339-14.287-0.731-28.572-1.205-42.855c-0.453-13.675-0.931-27.358-1.802-41.014c-0.124-1.943,0.098-19.445-5.41-16.148
				c-2.595,1.553-0.235,5.614,2.37,4.055c-2.878,1.723-3.263-2.695-2.7,0.556c0.215,1.24,0.324,2.5,0.445,3.752
				c0.417,4.303,0.664,8.624,0.906,12.939c0.689,12.273,1.121,24.562,1.527,36.848c0.573,17.319,1.039,34.645,1.4,51.97
				c0.388-0.676,0.775-1.352,1.163-2.027c-23.234,17.546-47.481,34.938-73.453,48.192c-4.88,2.49-11.468,6.511-17.158,6.237
				c-4.529-0.217-8.929-3.853-12.196-6.636c-11.517-9.811-20.443-22.858-28.822-35.315c-13.413-19.942-25.561-40.925-36.509-62.322
				c-0.123,0.949-0.245,1.897-0.367,2.846c4.294-4.425,8.587-8.85,12.881-13.274c1.782-1.836,1.296-0.534-0.227-0.762
				c0.729,0.108,1.365,0.437,1.999,0.789c2.16,1.205,3.955,3.067,5.657,4.828c11.015,11.396,19.389,25.613,28.158,38.725
				c7.285,10.892,14.464,24.146,24.697,32.622c7.501,6.212,12.4-2.104,15.887-8.316c6.666-11.876,11.57-24.844,16.475-37.515
				c5.671-14.653,10.931-29.463,16.145-44.283c1.842-5.235,3.669-10.476,5.545-15.698c0.639-1.779,1.856-6.294,2.666-6.908
				c4.7-3.563,13.464-3.902,19.059-4.813c5.189-0.845,10.409-1.547,15.637-2.111
				C1108.672,909.921,1108.703,905.221,1105.694,905.546z"/>
		</g>
	</g>
	<g>
		<path fill="#F4EDE1" d="M961.137,958.762c-1.411,3.635-7.756,10.172-10.577,11.624c-11.988,4.361-16.217,4.365-27.501,9.448
			c-10.576,3.636-24.678,6.54-35.962,4.362c-4.936-0.73-38.785-5.088-43.72-5.814c-6.348-0.729-2.116-5.087,13.399-13.081
			c2.104-1.547,30.45-8.206,26.794-7.265c-7.759,2.179,25.385-3.636,31.028-10.176c0.703,0,1.409,0.727,1.409,0.727
			c-14.807,0-52.886,4.361-45.833-7.266c16.923-1.457,33.143-7.267,49.359-10.901c4.232-0.727,2.822-1.453,6.346,0
			c2.822,0.727,8.712,4.451,11.53,5.178c3.527,2.182,18.448,10.603,24.833,18.278"/>
		<g>
			<path fill="#1B1D3A" d="M959.109,957.577c-1.732,3.793-4.873,6.903-7.994,9.594c-3.414,2.943-9.718,3.798-14,5.052
				c-9.802,2.871-18.911,7.169-28.997,9.145c-14.79,2.898-30.364-0.785-45.117-2.72c-5.957-0.781-11.917-1.547-17.869-2.368
				c-0.793-0.109-1.585-0.211-2.368-0.383c-0.646-0.294-0.581,0.03,0.197,0.974c0.302-0.541,0.962-1.003,1.413-1.403
				c3.42-3.033,7.911-5.137,11.91-7.264c4.562-2.428,9.804-3.441,14.781-4.721c4.438-1.143,8.931-2.479,13.45-3.271
				c-0.604-1.431-1.207-2.861-1.81-4.292c1.075-0.612-1.258,0.332-1.487,0.508c-1.073,0.823-1.464,1.95-0.843,3.213
				c1.652,3.356,12.472-0.7,14.781-1.275c6.756-1.684,16.097-3.553,21.102-8.843c-0.762,0.201-1.523,0.403-2.285,0.604
				c0.124,0.041,0.248,0.081,0.372,0.122c0.554-1.336,1.107-2.672,1.661-4.009c-8.936,0.042-17.854,0.789-26.793,0.802
				c-2.387,0.003-19.696,0.301-17.013-4.533c-0.676,0.388-1.352,0.775-2.028,1.163c10.234-0.979,20.189-3.289,30.114-5.901
				c4.821-1.27,9.628-2.583,14.462-3.801c2.291-0.577,4.591-1.117,6.906-1.589c1.939-0.395,2.495-0.046,4.439,0.573
				c5.506,1.754,11.123,5.227,16.04,8.256c6.595,4.062,13.325,8.444,18.447,14.328c1.992,2.289,5.3-1.048,3.321-3.32
				c-9.123-10.48-22.578-17.489-35.032-23.166c-2.15-0.979-4.417-1.995-6.798-1.657c-4.67,0.664-9.42,2.243-13.984,3.437
				c-11.917,3.117-23.761,6.565-36.038,7.965c-2.905,0.331-3.93,0.684-4.87,3.529c-0.487,1.474-0.151,3.102,0.606,4.405
				c1.906,3.28,6.968,3.991,10.318,4.41c12.571,1.571,25.295-0.145,37.901-0.203c1.901-0.009,3.306-2.652,1.661-4.009
				c-0.802-0.662-1.46-0.961-2.445-1.331c-0.749-0.28-1.752,0.042-2.285,0.604c-3.819,4.036-10.99,5.441-16.128,6.871
				c-2.987,0.83-6.009,1.539-9.041,2.184c-1.123,0.238-2.25,0.453-3.38,0.654c-2.541,0.453-0.835-0.425,0.043,1.359
				c-0.281,1.07-0.562,2.142-0.843,3.213c-0.184,0.141,1.119-0.299,1.487-0.508c2.446-1.394,0.702-4.733-1.809-4.293
				c-12.161,2.134-24.435,5.494-35.139,11.66c-3.05,1.756-13.262,7.068-8.845,11.923c1.319,1.45,3.849,1.44,5.644,1.687
				c3.176,0.435,6.355,0.852,9.533,1.271c8.437,1.112,16.875,2.209,25.311,3.328c8.829,1.171,17.255,2.303,26.196,0.911
				c12.193-1.899,23.101-6.981,34.846-10.428c4.706-1.38,9.727-2.46,13.623-5.541c3.436-2.717,6.895-6.53,8.729-10.544
				C964.413,957.214,960.366,954.825,959.109,957.577L959.109,957.577z"/>
		</g>
	</g>
	<g>
		<g>
			<path fill="#1B1D3A" d="M891.407,960.301c6.932,2.396,11.809,8.421,18.478,11.387c2.741,1.22,5.133-2.826,2.37-4.055
				c-7.07-3.146-12.209-9.307-19.599-11.861C889.786,954.78,888.563,959.318,891.407,960.301L891.407,960.301z"/>
		</g>
	</g>
	<g>
		<g>
			<path fill="#1B1D3A" d="M865.862,974.831c11.453-2.939,22.946-5.716,34.551-7.99c2.971-0.583,1.71-5.108-1.248-4.529
				c-11.605,2.274-23.099,5.051-34.551,7.99C861.682,971.054,862.926,975.583,865.862,974.831L865.862,974.831z"/>
		</g>
	</g>
	<g>
		<g>
			<path fill="#1B1D3A" d="M883.49,979.921c7.906-2.111,16.069-2.981,23.974-5.091c2.924-0.78,1.682-5.312-1.248-4.529
				c-7.906,2.11-16.069,2.98-23.974,5.091C879.318,976.173,880.56,980.704,883.49,979.921L883.49,979.921z"/>
		</g>
	</g>
</g>
</svg>
