<?xml version="1.0" encoding="utf-8"?>
<!-- Generator: Adobe Illustrator 16.0.4, SVG Export Plug-In . SVG Version: 6.00 Build 0)  -->
<!DOCTYPE svg PUBLIC "-//W3C//DTD SVG 1.1//EN" "http://www.w3.org/Graphics/SVG/1.1/DTD/svg11.dtd">
<svg version="1.1" id="Layer_1" xmlns="http://www.w3.org/2000/svg" xmlns:xlink="http://www.w3.org/1999/xlink" x="0px" y="0px"
	 width="878.529px" height="493.359px" viewBox="0 0 878.529 493.359" enable-background="new 0 0 878.529 493.359"
	 xml:space="preserve">
<path fill="#FFFFFF" d="M269.104,346.886c0,0,6.293,5.325,6.293,15.011c0,0,1.454,6.78,13.56,5.812l-11.622,10.169
	c0,0,0.969,31.959-31.959,23.727l-4.843,17.433l-16.464-3.39c0,0,23.729-19.854,1.938-55.203
	C226.006,360.443,229.881,320.737,269.104,346.886z"/>
<path fill="none" stroke="#1E1E1C" stroke-width="1.3623" stroke-miterlimit="10" d="M259.877,358.484
	c-0.016,2.673,0.935,4.845,2.119,4.851c1.186,0.006,2.161-2.153,2.168-4.828c0.016-2.674-0.938-4.844-2.119-4.848
	C260.856,353.651,259.887,355.81,259.877,358.484z"/>
<path fill="none" stroke="#1E1E1C" stroke-width="1.5261" stroke-miterlimit="10" d="M263.544,383.497c0,0,6.401,3.638,12.359,2.976
	"/>
<path fill="none" d="M262.828,492.024c-1.39-35.487-7.621-40.73-7.621-40.73s1.568,20.492,2.919,42.065h4.741
	C262.854,492.913,262.845,492.475,262.828,492.024z"/>
<path fill="#82CFF5" d="M259.418,342.526c0,0-18.4-1.452-15.011,33.412c0,0-4.844,46.487-15.98,56.172l-1.452-11.138
	c0,0-5.811,5.327-21.79,5.327c0,0,19.37-11.137,10.653-63.435c0,0-9.685-35.348,32.443-26.633c0,0,7.746,1.937,15.01,5.811
	L259.418,342.526z"/>
<path fill="#82CFF5" d="M233.754,412.741l6.778,6.295l1.454-4.843c0,0,16.463-5.811,19.853,26.633l1.937,14.043l-11.621,1.452
	c0,0-3.391,25.665,0.969,35.35l-35.349,0.484c0,0,10.651-35.833,6.294-55.202l-2.904,15.494l-7.748-0.483
	c0,0,0.969-29.055,13.074-36.803"/>
<path fill="#FFFFFF" d="M213.416,451.964c0,0-4.357,20.338,0,40.676l4.358-0.484c0,0,2.421-33.413,3.39-39.708
	C222.132,446.152,213.416,451.964,213.416,451.964z"/>
<path fill="#FFFFFF" d="M261.839,454.385c0,0,6.78,18.401-2.905,38.255h-6.295c0,0,5.811-28.571,1.938-36.803L261.839,454.385z"/>
<g>
</g>
<g>
</g>
<g>
</g>
<g>
</g>
<g>
</g>
<g>
</g>
</svg>
