<?xml version="1.0" encoding="utf-8"?>
<!-- Generator: Adobe Illustrator 16.0.4, SVG Export Plug-In . SVG Version: 6.00 Build 0)  -->
<!DOCTYPE svg PUBLIC "-//W3C//DTD SVG 1.1//EN" "http://www.w3.org/Graphics/SVG/1.1/DTD/svg11.dtd">
<svg version="1.1" id="Layer_1" xmlns="http://www.w3.org/2000/svg" xmlns:xlink="http://www.w3.org/1999/xlink" x="0px" y="0px"
	 width="878.529px" height="493.359px" viewBox="0 0 878.529 493.359" enable-background="new 0 0 878.529 493.359"
	 xml:space="preserve">
<path fill="#82CFF5" d="M824.605,455.229c-0.152,0.678-0.302,1.341-0.449,1.996l3.214,3.367c0,0-1.626,13.528-3.575,31.617h33.717
	c-2.638-18.769-4.595-33.158-4.595-33.158l0.67-0.735c-0.206-0.964-0.417-1.946-0.634-2.96l5.66-6.892
	c0.055,0.515,0.288,1.784,0.642,3.634l0.835-0.916c0,0-3.777-15.257-20.359-16.494c-16.576-1.24-23.022,14.731-23.022,14.731
	l1.759,1.843c0.299-1.494,0.496-2.528,0.549-2.979L824.605,455.229z"/>
<path fill="#82CFF5" d="M871.953,377.38c-0.098,19.59-12.121,98.212-31.97,98.114c-19.848-0.101-41.354-79.376-41.256-98.968
	c0.099-19.593,17.621-34.897,37.469-34.799C856.048,341.827,872.054,357.792,871.953,377.38z"/>
<path fill="#FFFFFF" d="M855.252,366.802c-3.012-8.233-11.475-14.349-20.102-15.261c-9.464-0.999-19.565,3.166-24.687,11.368
	c-3.678,5.895-2.454,12.862,0.438,18.867c1.64,13.102,2.852,27.008,12.428,36.602c5.328,5.331,14.02,7.649,21.229,5.515
	c8.043-2.387,9.408-12.711,10.271-19.682c0.876-7.109,1.271-14.275,1.64-21.428C856.756,377.244,857.184,372.085,855.252,366.802z"
	/>
<path fill="#82CFF5" d="M854.222,352.615c-0.045-0.133-11.883-3.314-11.939-3.434c-0.363-1.171-1.339-2.099-2.953-2.036
	c-9.146,0.346-19.806,0.77-27.347,6.646c-5.623,4.379-7.399,10.578-8.077,17.145c-0.952,3.088-1.558,6.413-0.356,9.121
	c0.165,2.063,0.702,4.019,2.16,5.655c0.397,0.447,0.824,0.754,1.265,0.956c-2.832,2.216,1.919-6.318,5.412-8.207
	c8.778-4.747,39.516,5.727,45.998-1.753C863.246,371.099,856.914,360.56,854.222,352.615z"/>
<path fill="none" stroke="#1E1E1C" stroke-width="1.309" stroke-miterlimit="10" d="M827.976,385.812
	c-0.007,1.715-0.736,3.102-1.635,3.098c-0.895-0.004-1.616-1.398-1.605-3.114c0.006-1.715,0.741-3.097,1.637-3.091
	C827.269,382.708,827.987,384.101,827.976,385.812z"/>
<path fill="none" stroke="#1E1E1C" stroke-width="1.309" stroke-miterlimit="10" d="M845.903,386.344
	c-0.011,1.715-0.742,3.1-1.639,3.097c-0.896-0.005-1.614-1.398-1.607-3.113c0.012-1.715,0.744-3.097,1.641-3.094
	C845.194,383.238,845.912,384.631,845.903,386.344z"/>
<g>
	<g>
		<path fill="#1E1E1C" d="M834.737,389.628c-0.263,1.183-0.296,2.386-0.391,3.589c-0.142,1.79-0.407,1.752-1.803,1.052
			c-0.835-0.42-2.23-1.405-2.972-0.367c-0.963,1.347,0.868,3.768,1.692,4.678c1.043,1.153,2.75,2.276,4.363,1.864
			c0.811-0.207,0.466-1.459-0.346-1.252c-1.848,0.473-3.836-2.09-4.396-3.541c-0.119-0.333-0.171-0.678-0.155-1.034
			c0.005,0.29,0.046,0.221,0.514,0.446c0.589,0.283,1.158,0.619,1.771,0.853c3.33,1.271,2.562-4.084,2.975-5.941
			C836.171,389.158,834.919,388.812,834.737,389.628L834.737,389.628z"/>
	</g>
</g>
<g>
	<g>
		<path fill="#1E1E1C" d="M829.354,404.194c1.513,2.308,3.971,3.322,6.668,3.392c1.496,0.038,4.166-0.321,4.398-2.187
			c0.103-0.829-1.196-0.819-1.299,0c-0.114,0.919-2.932,0.893-3.487,0.878c-2.062-0.053-4.021-1.003-5.159-2.737
			C830.018,402.843,828.894,403.492,829.354,404.194L829.354,404.194z"/>
	</g>
</g>
<path fill="#FFFFFF" d="M845.07,436.235c-1.533-6.144-1.021-12.904-5.268-18.53c-4.69-6.208-5.429,13.038-5.435,13.176
	c-0.173,3.782,0.832,4.391-3.693,4.417c-3.947,0.015-0.59,6.152,0.779,7.068c2.87,1.927,7.373,1.809,10.504,0.734
	C843.527,442.566,850.176,436.598,845.07,436.235C844.971,435.844,846.213,436.316,845.07,436.235z"/>
<g>
	<g>
		<path fill="#FFFFFF" d="M871.484,356.435l7.045-6.589c0,0-22.214-31.578-61.967-24.203l-1.073,10.899L871.484,356.435z"/>
		<path fill="#A42423" d="M867.709,364.106c0,0-22.155-20.007-54.702-21.513l2.858-6.87c0,0,12.073-1.972,31.599,6.461
			c19.521,8.432,24.087,14.268,24.087,14.268L867.709,364.106z"/>
	</g>
</g>
<path fill="#2E2216" d="M813.007,342.594l-5.932,9.396c0,0,30.381,8.566,48.39,4.001
	C855.465,355.991,832.805,341.569,813.007,342.594z"/>
<path fill="none" d="M827.37,460.593l-3.214-3.367c-4.112,18.291-6.189,27.898-7.067,34.984h6.706
	C825.744,474.121,827.37,460.593,827.37,460.593z"/>
<path fill="none" d="M853.587,458.316l-0.67,0.735c0,0,1.957,14.39,4.595,33.158h2.56
	C859.266,485.262,857.34,475.854,853.587,458.316z"/>
<path fill="#FFFFFF" d="M860.071,492.21h5.702c-1.698-15.715-5.094-32.66-6.519-40.111l-5.668,6.218
	C857.34,475.854,859.266,485.262,860.071,492.21z"/>
<path fill="#FFFFFF" d="M824.156,457.226l-5.689-5.963c-1.422,7.098-5.182,24.705-7.086,40.947h5.708
	C817.967,485.124,820.044,475.517,824.156,457.226z"/>
<path fill="#82CFF5" d="M852.953,455.356c0.217,1.014,0.428,1.996,0.634,2.96l5.668-6.218c-0.354-1.85-0.587-3.119-0.642-3.634
	L852.953,455.356z"/>
<path fill="#82CFF5" d="M824.605,455.229l-5.59-6.946c-0.053,0.451-0.25,1.485-0.549,2.979l5.689,5.963
	C824.304,456.57,824.453,455.907,824.605,455.229z"/>
<g>
</g>
<g>
</g>
<g>
</g>
<g>
</g>
<g>
</g>
<g>
</g>
</svg>
