<?xml version="1.0" encoding="utf-8"?>
<!-- Generator: Adobe Illustrator 16.0.4, SVG Export Plug-In . SVG Version: 6.00 Build 0)  -->
<!DOCTYPE svg PUBLIC "-//W3C//DTD SVG 1.1//EN" "http://www.w3.org/Graphics/SVG/1.1/DTD/svg11.dtd">
<svg version="1.1" id="Layer_1" xmlns="http://www.w3.org/2000/svg" xmlns:xlink="http://www.w3.org/1999/xlink" x="0px" y="0px"
	 width="878.529px" height="493.359px" viewBox="0 0 878.529 493.359" enable-background="new 0 0 878.529 493.359"
	 xml:space="preserve">
<path fill="#82CFF5" d="M350.988,433.286h-14.974c0,0-25.239,10.985-35.442,58.924h79.523
	C378.298,469.401,371.23,444.854,350.988,433.286z"/>
<path fill="#FFFFFF" d="M378.134,367.899c0,24.551-15.444,42.85-34.254,42.85c-18.809,0-27.484-18.699-27.484-43.25
	s8.875-44.051,27.684-44.051S378.134,343.349,378.134,367.899z"/>
<path fill="none" stroke="#1E1E1C" stroke-width="1.7206" stroke-miterlimit="10" d="M332.581,372.706c0,0,19.914,8.008,37.84-1.603
	"/>
<path fill="none" stroke="#1E1E1C" stroke-width="1.7351" stroke-miterlimit="10" d="M336.2,353.862
	c-0.012,2.246,0.954,4.072,2.155,4.081c1.2,0.004,2.179-1.812,2.19-4.06c0.014-2.249-0.949-4.077-2.15-4.083
	C337.194,349.796,336.214,351.615,336.2,353.862z"/>
<path fill="none" stroke="#1E1E1C" stroke-width="1.7351" stroke-miterlimit="10" d="M357.711,353.463
	c-0.011,2.244,0.954,4.069,2.153,4.077c1.203,0.006,2.181-1.81,2.193-4.058c0.012-2.249-0.951-4.075-2.152-4.084
	C358.706,349.395,357.724,351.214,357.711,353.463z"/>
<path fill="none" stroke="#1E1E1C" stroke-width="1.7351" stroke-miterlimit="10" d="M344.929,361.493c0,0,4.781,6.407,10.357-0.4
	c0,0,0.396-4.005-3.986-4.005l-0.795-7.608"/>
<g>
	<path fill="#FFFFFF" d="M318.293,333.165l-4.974-8.022c0,0,26.913-25.572,61.369-9.266l-1.363,10.838L318.293,333.165z"/>
	<path fill="#0DA2DD" d="M320.069,341.287c0,0,24.375-14,54.205-8.122l-1.115-7.158c0,0-10.524-4.58-30.031-0.965
		c-19.51,3.614-24.9,8.123-24.9,8.123L320.069,341.287z"/>
	<path fill="#1E1E1C" d="M328.577,337.458c0,0,14.361-7.938,41.611-5.61c10.986,0.938,6.467,4.989-6.551,5.61
		C350.405,338.088,328.577,337.458,328.577,337.458z"/>
</g>
<path fill="#FFFFFF" d="M318.397,356.654c0,0-9.688-9.689-9.688,2.642c0,0,0.881,14.093,10.569,12.33"/>
<path fill="#FFFFFF" d="M338.657,410.384c0,0,1.762,15.856-2.643,22.902c0,0,13.213,14.094,18.498,5.284
	c0,0-10.57-14.092-7.047-29.067"/>
<polygon fill="#FFFFFF" points="336.015,433.286 340.419,457.068 352.751,434.167 "/>
<polygon fill="#0CAAD5" points="329.849,441.213 328.968,426.239 341.3,431.523 353.632,425.357 354.513,442.094 342.181,435.929 
	"/>
<g>
</g>
<g>
</g>
<g>
</g>
<g>
</g>
<g>
</g>
<g>
</g>
</svg>
