<?xml version="1.0" encoding="utf-8"?>
<!-- Generator: Adobe Illustrator 16.0.4, SVG Export Plug-In . SVG Version: 6.00 Build 0)  -->
<!DOCTYPE svg PUBLIC "-//W3C//DTD SVG 1.1//EN" "http://www.w3.org/Graphics/SVG/1.1/DTD/svg11.dtd">
<svg version="1.1" id="Layer_1" xmlns="http://www.w3.org/2000/svg" xmlns:xlink="http://www.w3.org/1999/xlink" x="0px" y="0px"
	 width="878.529px" height="493.359px" viewBox="0 0 878.529 493.359" enable-background="new 0 0 878.529 493.359"
	 xml:space="preserve">
<path fill="#82CFF5" d="M175.08,439.786c-41.595-39.227-57.853-14.611-71.878,10.318c-6.305,11.208-9.954,25.78-11.7,42.105h96.468
	C188.756,468.767,185.398,449.519,175.08,439.786z"/>
<path fill="#FFFFFF" d="M120.182,362.484c0,0-5.832,31.038-3.574,40.256c0,0,4.892,11.099,20.316,14.673l-0.188,11.287l13.356-2.634
	c0,0,16.832-29.256,15.376-66.923s-34.376-9.263-34.376-9.263S120.934,351.573,120.182,362.484z"/>
<g>
	<path fill="#FFFFFF" d="M166.462,352.024l3.92-7.294c0,0-26.553-19.73-56.749-2.897l2.084,9.188L166.462,352.024z"/>
	<path fill="#3E68B0" d="M165.468,359.144c0,0-23.34-10.01-50.119-2.509l0.466-6.235c0,0,9.254-4.797,27.345-3.3
		c18.091,1.495,23.361,4.92,23.361,4.92L165.468,359.144z"/>
	<path fill="#1E1E1C" d="M157.403,356.556c0,0-13.727-5.629-38.426-1.387c-9.959,1.709-5.518,4.813,6.415,4.273
		C137.523,358.895,157.403,356.556,157.403,356.556z"/>
</g>
<path fill="none" stroke="#1E1E1C" stroke-width="1.4589" stroke-miterlimit="10" d="M150.073,383.039
	c-0.012,1.884,0.801,3.421,1.812,3.424c1.013,0.007,1.842-1.521,1.85-3.404c0.008-1.885-0.801-3.412-1.814-3.418
	C150.909,379.636,150.082,381.16,150.073,383.039z"/>
<ellipse transform="matrix(-1 -0.0045 0.0045 -1 253.929 765.0255)" fill="none" stroke="#1E1E1C" stroke-width="1.4589" stroke-miterlimit="10" cx="127.831" cy="382.225" rx="1.832" ry="3.413"/>
<g>
	<g>
		<path fill="#1E1E1C" d="M139.11,383.851c-0.191,4.142-3.235,8.385-5.655,11.588c-0.354,0.468,0.135,1.066,0.625,1.089
			c2.375,0.107,4.58-0.57,6.562-1.869c0.776-0.51,0.052-1.763-0.73-1.25c-1.791,1.174-3.681,1.77-5.831,1.672
			c0.208,0.363,0.417,0.726,0.625,1.089c2.597-3.438,5.648-7.864,5.853-12.318C140.599,382.918,139.152,382.922,139.11,383.851
			L139.11,383.851z"/>
	</g>
</g>
<path fill="#FFFFFF" d="M164.012,376.781c0,0,6.772-3.949,8.089,1.129s-3.198,12.979-9.218,10.157"/>
<path fill="#82CFF5" d="M147.458,357.782c0,0-0.941,9.97,11.851,15.049l-0.752-5.644c0,0,5.831,8.277,6.396,8.653
	c0,0,1.407-13.831,0.516-16.697l-8.064-2.588C157.403,356.556,148.211,357.595,147.458,357.782z"/>
<path fill="none" stroke="#1E1E1C" stroke-width="1.4467" stroke-miterlimit="10" d="M128.867,398.87c0,0,10.146,5.073,21.307-2.029
	"/>
<g>
</g>
<g>
</g>
<g>
</g>
<g>
</g>
<g>
</g>
<g>
</g>
</svg>
