<?xml version="1.0" encoding="utf-8"?>
<!-- Generator: Adobe Illustrator 16.0.4, SVG Export Plug-In . SVG Version: 6.00 Build 0)  -->
<!DOCTYPE svg PUBLIC "-//W3C//DTD SVG 1.1//EN" "http://www.w3.org/Graphics/SVG/1.1/DTD/svg11.dtd">
<svg version="1.1" id="Layer_1" xmlns="http://www.w3.org/2000/svg" xmlns:xlink="http://www.w3.org/1999/xlink" x="0px" y="0px"
	 width="878.529px" height="493.359px" viewBox="0 0 878.529 493.359" enable-background="new 0 0 878.529 493.359"
	 xml:space="preserve">
<path fill="#82CFF5" d="M484.275,440.669c-7.307-38.449-78.873-25.498-80.402-0.973c-5.25,10.569-14.736,31.728-11.207,52.514
	h11.979c-0.076-0.419-0.154-0.837-0.214-1.259c-1.095-7.67,0.8-17.257,3.397-25.868c1.322,8.657,2.564,17.758,3.73,27.127h65.561
	c1.28-7.178,2.62-14.379,4.02-21.568c1.588,6.716,2.458,13.579,1.634,19.354c-0.106,0.743-0.247,1.48-0.401,2.214h12.003
	c0.017-0.088,0.038-0.174,0.055-0.262C498.07,472.144,489.695,451.879,484.275,440.669z"/>
<path fill="#FFFFFF" d="M475.437,385.402c0.529-1.264-2.993-17.221-3.062-17.683c-0.024-0.146-0.046-0.293-0.065-0.441
	c0.039-0.006,0.075-0.02,0.114-0.026c-3.142-6.444-5.22-12.273-10.963-16.982c-2.481-2.034-4.983-3.709-7.591-5.118
	c-0.24-0.044-0.476-0.1-0.721-0.137c-9.42-1.478-19.455,1.711-25.536,8.924c-2.63,3.122-4.364,6.82-5.524,10.733
	c-0.467,0.885-0.906,1.784-1.303,2.717c-0.34,0.807-0.236,1.605,0.129,2.289c-0.551,3.061-0.842,6.153-1,9.124
	c-0.461,8.573-1.271,18.371,1.281,26.716c5.664,18.515,31.34,19.121,45.234,8.592c9.34-7.074,10.508-17.082,9.126-27.893
	C475.524,385.946,475.474,385.674,475.437,385.402z"/>
<path fill="none" stroke="#1E1E1C" stroke-width="1.3688" stroke-miterlimit="10" d="M458.774,376.198
	c-0.006,1.765,0.756,3.202,1.707,3.205c0.947,0.006,1.725-1.424,1.733-3.191c0.009-1.765-0.751-3.202-1.702-3.208
	C459.562,373.001,458.786,374.43,458.774,376.198z"/>
<path fill="none" stroke="#1E1E1C" stroke-width="1.3688" stroke-miterlimit="10" d="M436.19,375.42
	c-0.008,1.771,0.752,3.207,1.707,3.211c0.949,0.003,1.727-1.423,1.732-3.191c0.01-1.771-0.752-3.206-1.699-3.211
	C436.976,372.222,436.2,373.654,436.19,375.42z"/>
<path fill="#FFFFFF" d="M428.017,421.607c-0.037,7.171,7.989,17.515,16.729,17.56c8.737,0.041,21.066-10.314,18.146-16.898
	c-1.726-3.891-9.277-9.026-18.017-9.07C436.136,413.156,428.032,417.968,428.017,421.607z"/>
<g>
	<path fill="#82CFF5" d="M428.995,346.688c1.111,8.895,8.339,19.457,17.789,21.124c11.117,1.111,4.447-6.671-2.225-10.006
		c5.004,3.335,20.014,11.674,26.129,7.227c5.559-3.892-1.111-9.45-6.115-10.006c3.892,3.336,13.342,4.447,10.562-2.78
		c-1.668-3.891-14.453-6.671-18.346-7.782C449.007,342.241,434.554,339.464,428.995,346.688"/>
</g>
<g>
	<g>
		<path fill="#1E1E1C" d="M445.553,374.248c-0.667,5.26-1.268,11.212-4.715,15.489c-1.11,1.377-2.347,3.934-0.323,5.192
			c3.452,2.148,10.314-0.233,11.694-4.022c0.317-0.87-1.067-1.241-1.381-0.381c-0.857,2.355-9.87,5.927-9.972,2.225
			c-0.037-1.34,1.494-2.561,2.212-3.582c0.854-1.214,1.355-2.804,1.837-4.195c1.204-3.475,1.619-7.101,2.079-10.726
			C447.101,373.334,445.667,373.345,445.553,374.248L445.553,374.248z"/>
	</g>
</g>
<g>
	<g>
		<path fill="#1E1E1C" d="M444.646,400c2.428,0.444,4.782,0.066,7.062-0.835c0.848-0.335,0.479-1.721-0.381-1.381
			c-2.022,0.799-4.135,1.231-6.301,0.835C444.125,398.454,443.739,399.834,444.646,400L444.646,400z"/>
	</g>
</g>
<g>
	<path fill="#82CFF5" d="M428.829,343.769c-1.398-1.087-4.815,1.088-6.213,2.019c-5.125,3.417-8.076,9.629-9.319,15.53
		c-0.466,2.175-1.708,9.941,2.485,8.232c2.951-1.242,4.193-6.833,4.504-9.474c-4.039,0.776-2.95,12.269,2.33,11.338
		c6.523-1.244,7.765-13.202,8.853-18.171c0.621-3.418,4.349-7.146,0.932-9.008c-2.641-1.398-4.349-1.087-6.522,0.621"/>
</g>
<path fill="none" d="M407.828,465.083c-2.598,8.611-4.492,18.198-3.397,25.868c0.06,0.422,0.138,0.84,0.214,1.259h6.914
	C410.393,482.841,409.15,473.74,407.828,465.083z"/>
<path fill="none" d="M482.772,489.996c0.824-5.775-0.046-12.639-1.634-19.354c-1.399,7.189-2.739,14.391-4.02,21.568h5.252
	C482.525,491.477,482.666,490.739,482.772,489.996z"/>
<g>
</g>
<g>
</g>
<g>
</g>
<g>
</g>
<g>
</g>
<g>
</g>
</svg>
