<?xml version="1.0" encoding="utf-8"?>
<!-- Generator: Adobe Illustrator 16.0.4, SVG Export Plug-In . SVG Version: 6.00 Build 0)  -->
<!DOCTYPE svg PUBLIC "-//W3C//DTD SVG 1.1//EN" "http://www.w3.org/Graphics/SVG/1.1/DTD/svg11.dtd">
<svg version="1.1" id="Layer_1" xmlns="http://www.w3.org/2000/svg" xmlns:xlink="http://www.w3.org/1999/xlink" x="0px" y="0px"
	 width="878.529px" height="493.359px" viewBox="0 0 878.529 493.359" enable-background="new 0 0 878.529 493.359"
	 xml:space="preserve">
<path fill="#82CFF5" d="M772.256,459.216c-41.594-36.616-57.855-13.639-71.877,9.633c-4.005,6.646-6.929,14.568-8.985,23.361h93.491
	C783.755,477.658,779.935,465.976,772.256,459.216z"/>
<path fill="#82CFF5" d="M747.123,365.258c0,0,24.459-4.11,27.771,21.827c3.31,25.936,22.565,47.718-4.275,57.81
	c-26.843,10.089-63.379,3.561-69.84-7.584c-6.461-11.136,4.519-34.351,12.939-52.828
	C722.138,366.016,738.273,360.803,747.123,365.258z"/>
<path fill="#FFFFFF" d="M711.779,432.047c6.037,19.734,33.401,20.38,48.219,9.156c9.949-7.535,11.196-18.209,9.727-29.729
	c-0.039-0.287-0.094-0.576-0.132-0.867c0.565-1.346-3.188-18.355-3.263-18.848c-0.025-0.155-0.047-0.314-0.068-0.469
	c1.983-0.296,3.671-1.894,2.786-4.242c-3.927-10.431-11.768-17.692-23.21-19.49c-10.038-1.577-20.735,1.822-27.217,9.513
	c-2.799,3.327-4.654,7.27-5.886,11.438c-0.499,0.945-0.97,1.903-1.391,2.899c-0.364,0.858-0.257,1.71,0.137,2.441
	c-0.588,3.259-0.896,6.557-1.064,9.723C709.928,412.708,709.061,423.152,711.779,432.047z"/>
<g>
	<g>
		<path fill="#1E1E1C" d="M741.6,416.723c-1.928,0.32-5.748,1.064-7.259-0.556c-0.638-0.684-1.658,0.342-1.023,1.023
			c1.966,2.106,6.166,1.343,8.667,0.927C742.903,417.965,742.512,416.57,741.6,416.723L741.6,416.723z"/>
	</g>
</g>
<g>
	<g>
		<path fill="#1E1E1C" d="M744.484,405.991c2.545,4.037-14.046,4.255-11.898-0.218c0.401-0.837-0.846-1.571-1.25-0.73
			c-3.698,7.704,18.685,7.02,14.398,0.218C745.238,404.474,743.985,405.199,744.484,405.991L744.484,405.991z"/>
	</g>
</g>
<ellipse transform="matrix(-1 -0.0051 0.0051 -1 1500.5466 804.4108)" fill="none" stroke="#1E1E1C" stroke-width="1.4589" stroke-miterlimit="10" cx="751.292" cy="400.304" rx="1.831" ry="3.414"/>
<path fill="none" stroke="#1E1E1C" stroke-width="1.4589" stroke-miterlimit="10" d="M725.387,399.472
	c-0.012,1.882,0.803,3.414,1.816,3.418c1.013,0.006,1.836-1.519,1.848-3.401c0.01-1.885-0.802-3.418-1.812-3.424
	C726.225,396.06,725.395,397.587,725.387,399.472z"/>
<path fill="#82CFF5" d="M751.27,367.926c0,0,2.489,9.357-3.507,13.731c-5.995,4.379-28.748,2.232-35.594,22.744
	c-7.167,21.474-4.407,12.673-6.372,7.193C703.832,406.124,710.637,348.679,751.27,367.926z"/>
<path fill="#82CFF5" d="M747.644,369.673c0,0-0.602,11.277,9.147,16.793c9.749,5.514,16.698,28.118,16.332,28.823
	C772.757,415.99,781.732,358.908,747.644,369.673z"/>
<path fill="#FFFFFF" d="M712.489,453.557c-0.053,10.548,11.753,25.761,24.608,25.825c12.851,0.062,30.985-15.17,26.691-24.854
	c-2.537-5.723-13.647-13.274-26.498-13.337C724.436,441.124,712.518,448.203,712.489,453.557z"/>
<g>
</g>
<g>
</g>
<g>
</g>
<g>
</g>
<g>
</g>
<g>
</g>
</svg>
