<?xml version="1.0" encoding="utf-8"?>
<!-- Generator: Adobe Illustrator 16.0.4, SVG Export Plug-In . SVG Version: 6.00 Build 0)  -->
<!DOCTYPE svg PUBLIC "-//W3C//DTD SVG 1.1//EN" "http://www.w3.org/Graphics/SVG/1.1/DTD/svg11.dtd">
<svg version="1.1" id="Layer_1" xmlns="http://www.w3.org/2000/svg" xmlns:xlink="http://www.w3.org/1999/xlink" x="0px" y="0px"
	 width="878.529px" height="493.359px" viewBox="0 0 878.529 493.359" enable-background="new 0 0 878.529 493.359"
	 xml:space="preserve">
<path fill="#82CFF5" d="M515.476,484.834c1.639-33.267,7.531-38.128,7.531-38.128s-2.015,23.239-3.569,45.504h51.873
	c-0.67-22.145-1.289-45.916-0.841-45.267c6.842,9.967,7.848,27.798,6.681,45.267h13.572c-0.581-21.907-4.383-46.822-15.739-67.753
	c-8.668-15.983-35.636-15.835-52.346-1.24c-10.384,9.067-18.976,38.352-19.704,68.993h12.363
	C515.299,489.824,515.351,487.371,515.476,484.834z"/>
<path fill="#FFFFFF" d="M558.076,342.112c-5.212-12.96-18.02-20.498-31.476-14.887c-7.246,3.021-13.039,10.09-15.374,17.444
	c-1.261,3.981-1.339,8.136-1.134,12.314c-0.773,2.995-1.865,5.786-3.609,8.01c-2.992,1.122-6.139,1.769-9.495,1.824
	c-2.317,0.033-4.233,3.309-2.103,4.998c1.033,0.819,2.127,1.535,3.256,2.15c0.542,0.753,1.408,1.251,2.504,1.155
	c3.326,1.271,6.822,1.556,10.008,0.549c1.723,5.935,1.977,12.158,3.597,18.141c1.675,6.19,5.517,11.146,10.538,14.994
	c5.301,4.058,12.393,6.722,16.217,11.625c0.232,1.07,2.775,8.441,2.637,9.739c-0.234,2.252,2.63,3.624,4.404,2.56
	c6.041-3.637,7.744-11.307,8.72-17.775c1.069-7.09,0.99-14.265,1.753-21.374c0.752-3.583,1.395-7.185,1.921-10.79
	C562.368,369.525,563.181,354.8,558.076,342.112z"/>
<path fill="#FFFFFF" d="M557.265,373.47c-2.089,6.707-7.339,11.036-11.723,9.672c-4.389-1.368-6.25-7.913-4.161-14.621
	c2.089-6.709,7.341-11.039,11.727-9.671C557.491,360.212,559.354,366.758,557.265,373.47z"/>
<path fill="none" stroke="#1E1E1C" stroke-width="1.2776" stroke-miterlimit="10" d="M519.506,359.63
	c-0.013,2.506-0.923,4.532-2.035,4.528c-1.108-0.007-2.003-2.043-1.991-4.548c0.016-2.511,0.928-4.535,2.037-4.531
	C518.629,355.085,519.52,357.122,519.506,359.63z"/>
<path fill="none" stroke="#1E1E1C" stroke-width="1.4181" stroke-miterlimit="10" d="M512.315,384.297c0,0,16.754,0,20.537-9.188"/>
<path fill="#82CFF5" d="M505.721,339.114c0,0,13.798-18.399,30.224-17.084l11.17,3.942c0,0,46.651,13.14,19.713,59.792l-0.658-5.257
	c0,0-1.314,5.914-11.17,11.827l0.658-9.856c0,0-9.855-10.511-16.428-36.795"/>
<ellipse fill="#FFFFFF" cx="549.087" cy="369.01" rx="7.885" ry="8.87"/>
<path fill="#82CFF5" d="M497.181,350.284l26.938-7.885l-9.199,9.197c0,0,19.712-1.971,28.911-9.197
	c9.199-7.228-23.656-16.427-23.656-16.427S499.151,337.143,497.181,350.284z"/>
<path fill="none" d="M570.47,446.943c-0.448-0.649,0.171,23.122,0.841,45.267h5.84C578.317,474.741,577.312,456.91,570.47,446.943z"
	/>
<path fill="none" d="M523.007,446.706c0,0-5.893,4.861-7.531,38.128c-0.125,2.537-0.177,4.99-0.179,7.376h4.141
	C520.992,469.945,523.007,446.706,523.007,446.706z"/>
<g>
</g>
<g>
</g>
<g>
</g>
<g>
</g>
<g>
</g>
<g>
</g>
</svg>
