<?xml version="1.0" encoding="utf-8"?>
<!-- Generator: Adobe Illustrator 16.0.4, SVG Export Plug-In . SVG Version: 6.00 Build 0)  -->
<!DOCTYPE svg PUBLIC "-//W3C//DTD SVG 1.1//EN" "http://www.w3.org/Graphics/SVG/1.1/DTD/svg11.dtd">
<svg version="1.1" id="Layer_1" xmlns="http://www.w3.org/2000/svg" xmlns:xlink="http://www.w3.org/1999/xlink" x="0px" y="0px"
	 width="878.529px" height="493.359px" viewBox="0 0 878.529 493.359" enable-background="new 0 0 878.529 493.359"
	 xml:space="preserve">
<path fill="#FFFFFF" d="M54.341,444.411c6.567,30.667,7.657,36.861,6.925,47.799h6.386c-0.611-21.678-7.786-53.71-8.126-56.906
	l-1.491,1.817c0.591,1.41,0.821,2.335,0.821,2.335L54.341,444.411z"/>
<path fill="#0CAAD5" d="M27.99,442.072c-0.391,1.734-0.762,3.389-1.118,4.978l1.734,1.818c0,0-2.525,20.099-4.978,43.342h36.098
	c-3.035-23.673-5.571-44.883-5.571-44.883l2.656-2.916c-0.155-0.725-0.312-1.458-0.474-2.211l4.167-5.079
	c-1.812-4.323-7.033-13.226-19.538-14.159c-16.575-1.241-23.021,14.732-23.021,14.732l3.289,3.447
	c0.642-3.152,1.081-5.308,1.164-6.021L27.99,442.072z"/>
<path fill="#82CFF5" d="M12.871,363.523c0,0-26.387,28.785-3.599,54.572c0,0,0.601-8.396,7.197-13.193
	c0,0-0.002,10.194,8.395,13.193c0,0,10.017,6.137,16.103,4.866c0,0,15.681-4.268,21.078-16.262c0,0,2.398,5.997,0,11.994
	c0,0,30.585-35.383-1.798-59.369"/>
<path fill="#FFFFFF" d="M58.638,353.643c-3.01-8.232-11.475-14.349-20.102-15.262c-9.465-0.995-19.566,3.168-24.685,11.37
	c-3.677,5.896-2.454,12.86,0.437,18.863c1.639,13.104,2.85,27.013,12.426,36.603c5.326,5.332,14.021,7.652,21.229,5.517
	c8.043-2.386,9.409-12.712,10.271-19.682c0.877-7.107,1.271-14.276,1.639-21.423C60.14,364.086,60.569,358.928,58.638,353.643z"/>
<path fill="none" stroke="#1E1E1C" stroke-width="1.309" stroke-miterlimit="10" d="M31.363,372.655
	c-0.007,1.712-0.739,3.098-1.639,3.094c-0.894-0.004-1.615-1.396-1.605-3.11c0.007-1.713,0.743-3.098,1.638-3.091
	C30.654,369.551,31.373,370.94,31.363,372.655z"/>
<ellipse transform="matrix(1 0.006 -0.006 1 2.2361 -0.2791)" fill="none" stroke="#1E1E1C" stroke-width="1.309" stroke-miterlimit="10" cx="47.519" cy="371.608" rx="1.624" ry="3.103"/>
<g>
	<g>
		<path fill="#1E1E1C" d="M38.123,376.469c-0.634,2.176-1.326,4.172-2.931,5.815c-0.812,0.832-1.674,1.762-1.392,3.027
			c0.526,2.351,3.271,2.605,5.212,1.969c0.792-0.26,0.453-1.514-0.345-1.252c-0.794,0.261-1.554,0.336-2.379,0.172
			c-2.251-0.448-0.678-2.487,0.221-3.407c1.574-1.612,2.247-3.858,2.865-5.979C39.609,376.009,38.357,375.667,38.123,376.469
			L38.123,376.469z"/>
	</g>
</g>
<path fill="#FFFFFF" d="M48.453,423.077c-1.531-6.146-1.019-12.903-5.265-18.53c-4.691-6.207-5.427,13.037-5.434,13.175
	c-0.176,3.784,0.832,4.391-3.692,4.418c-3.948,0.012-0.595,6.153,0.774,7.071c2.875,1.924,7.377,1.804,10.509,0.732
	C46.913,429.406,53.56,423.438,48.453,423.077C48.358,422.683,49.599,423.158,48.453,423.077z"/>
<path fill="none" stroke="#1E1E1C" stroke-width="1.298" stroke-miterlimit="10" d="M22.466,387.511c0,0,7.795,13.193,28.186,2.398"
	/>
<path fill="#82CFF5" d="M36.26,349.13c0,0-10.795,13.792-16.792,17.392c-5.996,3.597-4.799,10.794-4.799,10.794
	s-17.389-31.184,14.994-41.978c0,0,40.18-4.198,31.783,40.179c0,0-2.399-7.797-8.396-11.993
	C53.05,363.523,42.258,358.725,36.26,349.13z"/>
<path fill="none" d="M28.606,448.868l-1.734-1.818c-6.364,28.391-7.401,34.431-6.773,45.16h3.53
	C26.081,468.967,28.606,448.868,28.606,448.868z"/>
<path fill="none" d="M56.812,444.411l-2.656,2.916c0,0,2.536,21.21,5.571,44.883h4.01C64.469,481.272,63.379,475.078,56.812,444.411
	z"/>
<path fill="#FFFFFF" d="M26.872,447.05l-5.637-5.908c-2.239,11.008-6.938,34.219-7.542,51.068h6.405
	C19.471,481.48,20.508,475.44,26.872,447.05z"/>
<path fill="#0CAAD5" d="M56.812,444.411l4.515-4.955c0,0-0.23-0.925-0.821-2.335l-4.167,5.079
	C56.499,442.953,56.656,443.687,56.812,444.411z"/>
<path fill="#0CAAD5" d="M27.99,442.072l-5.591-6.951c-0.083,0.713-0.522,2.868-1.164,6.021l5.637,5.908
	C27.229,445.461,27.6,443.807,27.99,442.072z"/>
<g>
</g>
<g>
</g>
<g>
</g>
<g>
</g>
<g>
</g>
<g>
</g>
</svg>
