<?xml version="1.0" encoding="utf-8"?>
<!-- Generator: Adobe Illustrator 16.0.4, SVG Export Plug-In . SVG Version: 6.00 Build 0)  -->
<!DOCTYPE svg PUBLIC "-//W3C//DTD SVG 1.1//EN" "http://www.w3.org/Graphics/SVG/1.1/DTD/svg11.dtd">
<svg version="1.1" id="Layer_1" xmlns="http://www.w3.org/2000/svg" xmlns:xlink="http://www.w3.org/1999/xlink" x="0px" y="0px"
	 width="878.529px" height="493.359px" viewBox="0 0 878.529 493.359" enable-background="new 0 0 878.529 493.359"
	 xml:space="preserve">
<pattern  x="154.025" y="-255.686" width="86.081" height="74.172" patternUnits="userSpaceOnUse" id="Unnamed_Pattern_9" viewBox="0 -74.172 86.081 74.172" overflow="visible">
	<g>
		<polygon fill="none" points="0,-74.172 86.082,-74.172 86.082,0 0,0 		"/>
		<path fill="#2EBDEF" d="M27.879-4.633c0-0.561-0.455-1.018-1.017-1.018s-1.019,0.457-1.019,1.018c0,0.562,0.457,1.021,1.019,1.021
			S27.879-4.07,27.879-4.633"/>
		<path fill="#2EBDEF" d="M27.879-9.266c0-0.561-0.455-1.018-1.017-1.018s-1.019,0.457-1.019,1.018c0,0.564,0.457,1.021,1.019,1.021
			S27.879-8.701,27.879-9.266"/>
		<path fill="#2EBDEF" d="M27.879-32.424c0-0.562-0.455-1.018-1.017-1.018s-1.019,0.455-1.019,1.018
			c0,0.562,0.457,1.018,1.019,1.018S27.879-31.862,27.879-32.424"/>
		<path fill="#2EBDEF" d="M27.879-13.895c0-0.562-0.455-1.021-1.017-1.021s-1.019,0.458-1.019,1.021
			c0,0.561,0.457,1.018,1.019,1.018S27.879-13.334,27.879-13.895"/>
		<path fill="#2EBDEF" d="M27.879-27.791c0-0.562-0.455-1.02-1.017-1.02s-1.019,0.458-1.019,1.02c0,0.562,0.457,1.018,1.019,1.018
			S27.879-27.229,27.879-27.791"/>
		<path fill="#2EBDEF" d="M27.879-18.527c0-0.562-0.455-1.021-1.017-1.021s-1.019,0.458-1.019,1.021
			c0,0.562,0.457,1.018,1.019,1.018S27.879-17.966,27.879-18.527"/>
		<path fill="#2EBDEF" d="M27.879-23.158c0-0.564-0.455-1.02-1.017-1.02s-1.019,0.455-1.019,1.02c0,0.561,0.457,1.016,1.019,1.016
			S27.879-22.598,27.879-23.158"/>
		<path fill="#2EBDEF" d="M33.253-64.846c0-0.562-0.457-1.018-1.018-1.018c-0.564,0-1.019,0.456-1.019,1.018
			c0,0.561,0.455,1.018,1.019,1.018C32.796-63.828,33.253-64.285,33.253-64.846"/>
		<path fill="#2EBDEF" d="M33.253-74.109c0-0.021-0.002-0.043-0.004-0.062H31.22c-0.002,0.019-0.004,0.04-0.004,0.062
			c0,0.562,0.455,1.018,1.019,1.018C32.796-73.092,33.253-73.548,33.253-74.109"/>
		<path fill="#2EBDEF" d="M33.253-41.688c0-0.561-0.457-1.018-1.018-1.018c-0.564,0-1.019,0.457-1.019,1.018
			c0,0.562,0.455,1.021,1.019,1.021C32.796-40.667,33.253-41.125,33.253-41.688"/>
		<path fill="#2EBDEF" d="M33.253-37.055c0-0.564-0.457-1.02-1.018-1.02c-0.564,0-1.019,0.455-1.019,1.02
			c0,0.562,0.455,1.018,1.019,1.018C32.796-36.037,33.253-36.493,33.253-37.055"/>
		<path fill="#2EBDEF" d="M33.253-46.318c0-0.562-0.457-1.02-1.018-1.02c-0.564,0-1.019,0.457-1.019,1.02
			c0,0.562,0.455,1.018,1.019,1.018C32.796-45.301,33.253-45.757,33.253-46.318"/>
		<path fill="#2EBDEF" d="M33.253-32.424c0-0.562-0.457-1.018-1.018-1.018c-0.564,0-1.019,0.455-1.019,1.018
			c0,0.562,0.455,1.018,1.019,1.018C32.796-31.406,33.253-31.862,33.253-32.424"/>
		<path fill="#2EBDEF" d="M33.253-55.582c0-0.562-0.457-1.018-1.018-1.018c-0.564,0-1.019,0.455-1.019,1.018
			c0,0.562,0.455,1.018,1.019,1.018C32.796-54.564,33.253-55.021,33.253-55.582"/>
		<path fill="#2EBDEF" d="M33.253-50.951c0-0.562-0.457-1.018-1.018-1.018c-0.564,0-1.019,0.456-1.019,1.018
			s0.455,1.018,1.019,1.018C32.796-49.934,33.253-50.39,33.253-50.951"/>
		<path fill="#2EBDEF" d="M33.253-60.215c0-0.562-0.457-1.018-1.018-1.018c-0.564,0-1.019,0.455-1.019,1.018
			c0,0.562,0.455,1.018,1.019,1.018C32.796-59.197,33.253-59.653,33.253-60.215"/>
		<path fill="#2EBDEF" d="M33.253-69.479c0-0.562-0.457-1.018-1.018-1.018c-0.564,0-1.019,0.456-1.019,1.018
			c0,0.564,0.455,1.018,1.019,1.018C32.796-68.461,33.253-68.914,33.253-69.479"/>
		<path fill="#2EBDEF" d="M27.879-55.582c0-0.562-0.455-1.018-1.017-1.018s-1.019,0.455-1.019,1.018
			c0,0.562,0.457,1.018,1.019,1.018S27.879-55.021,27.879-55.582"/>
		<path fill="#2EBDEF" d="M22.508-23.158c0-0.564-0.456-1.02-1.018-1.02c-0.563,0-1.019,0.455-1.019,1.02
			c0,0.561,0.456,1.016,1.019,1.016C22.052-22.143,22.508-22.598,22.508-23.158"/>
		<path fill="#2EBDEF" d="M22.508-18.527c0-0.562-0.456-1.021-1.018-1.021c-0.563,0-1.019,0.458-1.019,1.021
			c0,0.562,0.456,1.018,1.019,1.018C22.052-17.51,22.508-17.966,22.508-18.527"/>
		<path fill="#2EBDEF" d="M22.508-4.633c0-0.561-0.456-1.018-1.018-1.018c-0.563,0-1.019,0.457-1.019,1.018
			c0,0.562,0.456,1.021,1.019,1.021C22.052-3.612,22.508-4.07,22.508-4.633"/>
		<path fill="#2EBDEF" d="M22.508-9.266c0-0.561-0.456-1.018-1.018-1.018c-0.563,0-1.019,0.457-1.019,1.018
			c0,0.564,0.456,1.021,1.019,1.021C22.052-8.245,22.508-8.701,22.508-9.266"/>
		<path fill="#2EBDEF" d="M27.879-37.055c0-0.564-0.455-1.02-1.017-1.02s-1.019,0.455-1.019,1.02c0,0.562,0.457,1.018,1.019,1.018
			S27.879-36.493,27.879-37.055"/>
		<path fill="#2EBDEF" d="M22.508-37.055c0-0.564-0.456-1.02-1.018-1.02c-0.563,0-1.019,0.455-1.019,1.02
			c0,0.562,0.456,1.018,1.019,1.018C22.052-36.037,22.508-36.493,22.508-37.055"/>
		<path fill="#2EBDEF" d="M22.508-27.791c0-0.562-0.456-1.02-1.018-1.02c-0.563,0-1.019,0.458-1.019,1.02
			c0,0.562,0.456,1.018,1.019,1.018C22.052-26.773,22.508-27.229,22.508-27.791"/>
		<path fill="#2EBDEF" d="M22.508-32.424c0-0.562-0.456-1.018-1.018-1.018c-0.563,0-1.019,0.455-1.019,1.018
			c0,0.562,0.456,1.018,1.019,1.018C22.052-31.406,22.508-31.862,22.508-32.424"/>
		<path fill="#2EBDEF" d="M22.508-13.895c0-0.562-0.456-1.021-1.018-1.021c-0.563,0-1.019,0.458-1.019,1.021
			c0,0.561,0.456,1.018,1.019,1.018C22.052-12.877,22.508-13.334,22.508-13.895"/>
		<path fill="#2EBDEF" d="M33.253-27.791c0-0.562-0.457-1.02-1.018-1.02c-0.564,0-1.019,0.458-1.019,1.02
			c0,0.562,0.455,1.018,1.019,1.018C32.796-26.773,33.253-27.229,33.253-27.791"/>
		<path fill="#2EBDEF" d="M27.879-50.951c0-0.562-0.455-1.018-1.017-1.018s-1.019,0.456-1.019,1.018s0.457,1.018,1.019,1.018
			S27.879-50.39,27.879-50.951"/>
		<path fill="#2EBDEF" d="M43.998-4.633c0-0.561-0.457-1.018-1.019-1.018s-1.017,0.457-1.017,1.018c0,0.562,0.455,1.021,1.017,1.021
			S43.998-4.07,43.998-4.633"/>
		<path fill="#2EBDEF" d="M27.879-41.688c0-0.561-0.455-1.018-1.017-1.018s-1.019,0.457-1.019,1.018
			c0,0.562,0.457,1.021,1.019,1.021S27.879-41.125,27.879-41.688"/>
		<path fill="#2EBDEF" d="M27.879-74.109c0-0.021,0-0.043-0.002-0.062h-2.031c0,0.019-0.003,0.04-0.003,0.062
			c0,0.562,0.457,1.018,1.019,1.018S27.879-73.548,27.879-74.109"/>
		<path fill="#2EBDEF" d="M27.879-60.215c0-0.562-0.455-1.018-1.017-1.018s-1.019,0.455-1.019,1.018
			c0,0.562,0.457,1.018,1.019,1.018S27.879-59.653,27.879-60.215"/>
		<path fill="#2EBDEF" d="M27.879-64.846c0-0.562-0.455-1.018-1.017-1.018s-1.019,0.456-1.019,1.018
			c0,0.561,0.457,1.018,1.019,1.018S27.879-64.285,27.879-64.846"/>
		<path fill="#2EBDEF" d="M27.879-69.479c0-0.562-0.455-1.018-1.017-1.018s-1.019,0.456-1.019,1.018
			c0,0.564,0.457,1.018,1.019,1.018S27.879-68.914,27.879-69.479"/>
		<path fill="#2EBDEF" d="M43.998-18.527c0-0.562-0.457-1.021-1.019-1.021s-1.017,0.458-1.017,1.021
			c0,0.562,0.455,1.018,1.017,1.018S43.998-17.966,43.998-18.527"/>
		<path fill="#2EBDEF" d="M43.998-69.479c0-0.562-0.457-1.018-1.019-1.018s-1.017,0.456-1.017,1.018
			c0,0.564,0.455,1.018,1.017,1.018S43.998-68.914,43.998-69.479"/>
		<path fill="#2EBDEF" d="M43.998-55.582c0-0.562-0.457-1.018-1.019-1.018s-1.017,0.455-1.017,1.018
			c0,0.562,0.455,1.018,1.017,1.018S43.998-55.021,43.998-55.582"/>
		<path fill="#2EBDEF" d="M43.998-60.215c0-0.562-0.457-1.018-1.019-1.018s-1.017,0.455-1.017,1.018
			c0,0.562,0.455,1.018,1.017,1.018S43.998-59.653,43.998-60.215"/>
		<path fill="#2EBDEF" d="M38.625-13.895c0-0.562-0.456-1.021-1.018-1.021s-1.017,0.458-1.017,1.021
			c0,0.561,0.455,1.018,1.017,1.018S38.625-13.334,38.625-13.895"/>
		<path fill="#2EBDEF" d="M38.625-9.266c0-0.561-0.456-1.018-1.018-1.018s-1.017,0.457-1.017,1.018c0,0.564,0.455,1.021,1.017,1.021
			S38.625-8.701,38.625-9.266"/>
		<path fill="#2EBDEF" d="M38.625-4.633c0-0.561-0.456-1.018-1.018-1.018s-1.017,0.457-1.017,1.018c0,0.562,0.455,1.021,1.017,1.021
			S38.625-4.07,38.625-4.633"/>
		<path fill="#2EBDEF" d="M43.998-46.318c0-0.562-0.457-1.02-1.019-1.02s-1.017,0.457-1.017,1.02c0,0.562,0.455,1.018,1.017,1.018
			S43.998-45.757,43.998-46.318"/>
		<path fill="#2EBDEF" d="M43.998-74.109c0-0.021-0.002-0.043-0.004-0.062h-2.029c-0.002,0.019-0.003,0.04-0.003,0.062
			c0,0.562,0.455,1.018,1.017,1.018S43.998-73.548,43.998-74.109"/>
		<path fill="#2EBDEF" d="M43.998-64.846c0-0.562-0.457-1.018-1.019-1.018s-1.017,0.456-1.017,1.018
			c0,0.561,0.455,1.018,1.017,1.018S43.998-64.285,43.998-64.846"/>
		<path fill="#2EBDEF" d="M43.998-50.951c0-0.562-0.457-1.018-1.019-1.018s-1.017,0.456-1.017,1.018s0.455,1.018,1.017,1.018
			S43.998-50.39,43.998-50.951"/>
		<path fill="#2EBDEF" d="M43.998-13.895c0-0.562-0.457-1.021-1.019-1.021s-1.017,0.458-1.017,1.021
			c0,0.561,0.455,1.018,1.017,1.018S43.998-13.334,43.998-13.895"/>
		<path fill="#2EBDEF" d="M43.998-41.688c0-0.561-0.457-1.018-1.019-1.018s-1.017,0.457-1.017,1.018
			c0,0.562,0.455,1.021,1.017,1.021S43.998-41.125,43.998-41.688"/>
		<path fill="#2EBDEF" d="M22.508-41.688c0-0.561-0.456-1.018-1.018-1.018c-0.563,0-1.019,0.457-1.019,1.018
			c0,0.562,0.456,1.021,1.019,1.021C22.052-40.667,22.508-41.125,22.508-41.688"/>
		<path fill="#2EBDEF" d="M43.998-9.266c0-0.561-0.457-1.018-1.019-1.018s-1.017,0.457-1.017,1.018c0,0.564,0.455,1.021,1.017,1.021
			S43.998-8.701,43.998-9.266"/>
		<path fill="#2EBDEF" d="M43.998-23.158c0-0.564-0.457-1.02-1.019-1.02s-1.017,0.455-1.017,1.02c0,0.561,0.455,1.016,1.017,1.016
			S43.998-22.598,43.998-23.158"/>
		<path fill="#2EBDEF" d="M43.998-27.791c0-0.562-0.457-1.02-1.019-1.02s-1.017,0.458-1.017,1.02c0,0.562,0.455,1.018,1.017,1.018
			S43.998-27.229,43.998-27.791"/>
		<path fill="#2EBDEF" d="M43.998-37.055c0-0.564-0.457-1.02-1.019-1.02s-1.017,0.455-1.017,1.02c0,0.562,0.455,1.018,1.017,1.018
			S43.998-36.493,43.998-37.055"/>
		<path fill="#2EBDEF" d="M43.998-32.424c0-0.562-0.457-1.018-1.019-1.018s-1.017,0.455-1.017,1.018
			c0,0.562,0.455,1.018,1.017,1.018S43.998-31.862,43.998-32.424"/>
		<path fill="#2EBDEF" d="M38.625-74.109c0-0.021-0.001-0.043-0.003-0.062h-2.029c-0.002,0.019-0.003,0.04-0.003,0.062
			c0,0.562,0.455,1.018,1.017,1.018S38.625-73.548,38.625-74.109"/>
		<path fill="#2EBDEF" d="M38.625-64.846c0-0.562-0.456-1.018-1.018-1.018s-1.017,0.456-1.017,1.018
			c0,0.561,0.455,1.018,1.017,1.018S38.625-64.285,38.625-64.846"/>
		<path fill="#2EBDEF" d="M33.253-4.633c0-0.561-0.457-1.018-1.018-1.018c-0.564,0-1.019,0.457-1.019,1.018
			c0,0.562,0.455,1.021,1.019,1.021C32.796-3.612,33.253-4.07,33.253-4.633"/>
		<path fill="#2EBDEF" d="M33.253-23.158c0-0.564-0.457-1.02-1.018-1.02c-0.564,0-1.019,0.455-1.019,1.02
			c0,0.561,0.455,1.016,1.019,1.016C32.796-22.143,33.253-22.598,33.253-23.158"/>
		<path fill="#2EBDEF" d="M38.625-60.215c0-0.562-0.456-1.018-1.018-1.018s-1.017,0.455-1.017,1.018
			c0,0.562,0.455,1.018,1.017,1.018S38.625-59.653,38.625-60.215"/>
		<path fill="#2EBDEF" d="M38.625-69.479c0-0.562-0.456-1.018-1.018-1.018s-1.017,0.456-1.017,1.018
			c0,0.564,0.455,1.018,1.017,1.018S38.625-68.914,38.625-69.479"/>
		<path fill="#2EBDEF" d="M33.253-18.527c0-0.562-0.457-1.021-1.018-1.021c-0.564,0-1.019,0.458-1.019,1.021
			c0,0.562,0.455,1.018,1.019,1.018C32.796-17.51,33.253-17.966,33.253-18.527"/>
		<path fill="#2EBDEF" d="M33.253-9.266c0-0.561-0.457-1.018-1.018-1.018c-0.564,0-1.019,0.457-1.019,1.018
			c0,0.564,0.455,1.021,1.019,1.021C32.796-8.245,33.253-8.701,33.253-9.266"/>
		<path fill="#2EBDEF" d="M33.253-13.895c0-0.562-0.457-1.021-1.018-1.021c-0.564,0-1.019,0.458-1.019,1.021
			c0,0.561,0.455,1.018,1.019,1.018C32.796-12.877,33.253-13.334,33.253-13.895"/>
		<path fill="#2EBDEF" d="M38.625-18.527c0-0.562-0.456-1.021-1.018-1.021s-1.017,0.458-1.017,1.021
			c0,0.562,0.455,1.018,1.017,1.018S38.625-17.966,38.625-18.527"/>
		<path fill="#2EBDEF" d="M38.625-32.424c0-0.562-0.456-1.018-1.018-1.018s-1.017,0.455-1.017,1.018
			c0,0.562,0.455,1.018,1.017,1.018S38.625-31.862,38.625-32.424"/>
		<path fill="#2EBDEF" d="M38.625-27.791c0-0.562-0.456-1.02-1.018-1.02s-1.017,0.458-1.017,1.02c0,0.562,0.455,1.018,1.017,1.018
			S38.625-27.229,38.625-27.791"/>
		<path fill="#2EBDEF" d="M38.625-37.055c0-0.564-0.456-1.02-1.018-1.02s-1.017,0.455-1.017,1.02c0,0.562,0.455,1.018,1.017,1.018
			S38.625-36.493,38.625-37.055"/>
		<path fill="#2EBDEF" d="M38.625-23.158c0-0.564-0.456-1.02-1.018-1.02s-1.017,0.455-1.017,1.02c0,0.561,0.455,1.016,1.017,1.016
			S38.625-22.598,38.625-23.158"/>
		<path fill="#2EBDEF" d="M38.625-41.688c0-0.561-0.456-1.018-1.018-1.018s-1.017,0.457-1.017,1.018
			c0,0.562,0.455,1.021,1.017,1.021S38.625-41.125,38.625-41.688"/>
		<path fill="#2EBDEF" d="M38.625-50.951c0-0.562-0.456-1.018-1.018-1.018s-1.017,0.456-1.017,1.018s0.455,1.018,1.017,1.018
			S38.625-50.39,38.625-50.951"/>
		<path fill="#2EBDEF" d="M38.625-55.582c0-0.562-0.456-1.018-1.018-1.018s-1.017,0.455-1.017,1.018
			c0,0.562,0.455,1.018,1.017,1.018S38.625-55.021,38.625-55.582"/>
		<path fill="#2EBDEF" d="M38.625-46.318c0-0.562-0.456-1.02-1.018-1.02s-1.017,0.457-1.017,1.02c0,0.562,0.455,1.018,1.017,1.018
			S38.625-45.757,38.625-46.318"/>
		<path fill="#2EBDEF" d="M27.879-46.318c0-0.562-0.455-1.02-1.017-1.02s-1.019,0.457-1.019,1.02c0,0.562,0.457,1.018,1.019,1.018
			S27.879-45.757,27.879-46.318"/>
		<path fill="#2EBDEF" d="M6.39-46.318c0-0.562-0.456-1.02-1.018-1.02c-0.561,0-1.017,0.457-1.017,1.02
			c0,0.562,0.456,1.018,1.017,1.018C5.934-45.301,6.39-45.757,6.39-46.318"/>
		<path fill="#2EBDEF" d="M6.39-50.951c0-0.562-0.456-1.018-1.018-1.018c-0.561,0-1.017,0.456-1.017,1.018s0.456,1.018,1.017,1.018
			C5.934-49.934,6.39-50.39,6.39-50.951"/>
		<path fill="#2EBDEF" d="M6.39-41.688c0-0.561-0.456-1.018-1.018-1.018c-0.561,0-1.017,0.457-1.017,1.018
			c0,0.562,0.456,1.021,1.017,1.021C5.934-40.667,6.39-41.125,6.39-41.688"/>
		<path fill="#2EBDEF" d="M6.39-37.055c0-0.564-0.456-1.02-1.018-1.02c-0.561,0-1.017,0.455-1.017,1.02
			c0,0.562,0.456,1.018,1.017,1.018C5.934-36.037,6.39-36.493,6.39-37.055"/>
		<path fill="#2EBDEF" d="M6.39-55.582c0-0.562-0.456-1.018-1.018-1.018c-0.561,0-1.017,0.455-1.017,1.018
			c0,0.562,0.456,1.018,1.017,1.018C5.934-54.564,6.39-55.021,6.39-55.582"/>
		<path fill="#2EBDEF" d="M6.39-32.424c0-0.562-0.456-1.018-1.018-1.018c-0.561,0-1.017,0.455-1.017,1.018
			c0,0.562,0.456,1.018,1.017,1.018C5.934-31.406,6.39-31.862,6.39-32.424"/>
		<path fill="#2EBDEF" d="M6.39-64.846c0-0.562-0.456-1.018-1.018-1.018c-0.561,0-1.017,0.456-1.017,1.018
			c0,0.561,0.456,1.018,1.017,1.018C5.934-63.828,6.39-64.285,6.39-64.846"/>
		<path fill="#2EBDEF" d="M6.39-60.215c0-0.562-0.456-1.018-1.018-1.018c-0.561,0-1.017,0.455-1.017,1.018
			c0,0.562,0.456,1.018,1.017,1.018C5.934-59.197,6.39-59.653,6.39-60.215"/>
		<path fill="#2EBDEF" d="M6.39-69.479c0-0.562-0.456-1.018-1.018-1.018c-0.561,0-1.017,0.456-1.017,1.018
			c0,0.564,0.456,1.018,1.017,1.018C5.934-68.461,6.39-68.914,6.39-69.479"/>
		<path fill="#2EBDEF" d="M11.764-74.109c0-0.021-0.003-0.043-0.003-0.062H9.73c-0.002,0.019-0.003,0.04-0.003,0.062
			c0,0.562,0.455,1.018,1.017,1.018C11.308-73.092,11.764-73.548,11.764-74.109"/>
		<path fill="#2EBDEF" d="M6.39-9.266c0-0.561-0.456-1.018-1.018-1.018c-0.561,0-1.017,0.457-1.017,1.018
			c0,0.564,0.456,1.021,1.017,1.021C5.934-8.245,6.39-8.701,6.39-9.266"/>
		<path fill="#2EBDEF" d="M6.39-4.633c0-0.561-0.456-1.018-1.018-1.018c-0.561,0-1.017,0.457-1.017,1.018
			c0,0.562,0.456,1.021,1.017,1.021C5.934-3.612,6.39-4.07,6.39-4.633"/>
		<path fill="#2EBDEF" d="M11.764-64.846c0-0.562-0.456-1.018-1.02-1.018c-0.562,0-1.017,0.456-1.017,1.018
			c0,0.561,0.455,1.018,1.017,1.018C11.308-63.828,11.764-64.285,11.764-64.846"/>
		<path fill="#2EBDEF" d="M6.39-13.895c0-0.562-0.456-1.021-1.018-1.021c-0.561,0-1.017,0.458-1.017,1.021
			c0,0.561,0.456,1.018,1.017,1.018C5.934-12.877,6.39-13.334,6.39-13.895"/>
		<path fill="#2EBDEF" d="M6.39-27.791c0-0.562-0.456-1.02-1.018-1.02c-0.561,0-1.017,0.458-1.017,1.02
			c0,0.562,0.456,1.018,1.017,1.018C5.934-26.773,6.39-27.229,6.39-27.791"/>
		<path fill="#2EBDEF" d="M6.39-23.158c0-0.564-0.456-1.02-1.018-1.02c-0.561,0-1.017,0.455-1.017,1.02
			c0,0.561,0.456,1.016,1.017,1.016C5.934-22.143,6.39-22.598,6.39-23.158"/>
		<path fill="#2EBDEF" d="M6.39-18.527c0-0.562-0.456-1.021-1.018-1.021c-0.561,0-1.017,0.458-1.017,1.021
			c0,0.562,0.456,1.018,1.017,1.018C5.934-17.51,6.39-17.966,6.39-18.527"/>
		<path fill="#2EBDEF" d="M1.019-32.424c0-0.562-0.457-1.018-1.019-1.018v2.035C0.562-31.406,1.019-31.862,1.019-32.424"/>
		<path fill="#2EBDEF" d="M1.019-37.055c0-0.564-0.457-1.02-1.019-1.02v2.037C0.562-36.037,1.019-36.493,1.019-37.055"/>
		<path fill="#2EBDEF" d="M1.019-50.951c0-0.562-0.457-1.018-1.019-1.018v2.035C0.562-49.934,1.019-50.39,1.019-50.951"/>
		<path fill="#2EBDEF" d="M1.019-55.582C1.019-56.145,0.562-56.6,0-56.6v2.035C0.562-54.564,1.019-55.021,1.019-55.582"/>
		<path fill="#2EBDEF" d="M22.508-46.318c0-0.562-0.456-1.02-1.018-1.02c-0.563,0-1.019,0.457-1.019,1.02
			c0,0.562,0.456,1.018,1.019,1.018C22.052-45.301,22.508-45.757,22.508-46.318"/>
		<path fill="#2EBDEF" d="M1.019-46.318c0-0.562-0.457-1.02-1.019-1.02v2.037C0.562-45.301,1.019-45.757,1.019-46.318"/>
		<path fill="#2EBDEF" d="M6.39-74.109c0-0.021-0.001-0.043-0.003-0.062H4.358c-0.002,0.019-0.003,0.04-0.003,0.062
			c0,0.562,0.456,1.018,1.017,1.018C5.934-73.092,6.39-73.548,6.39-74.109"/>
		<path fill="#2EBDEF" d="M1.019-64.846c0-0.562-0.457-1.018-1.019-1.018v2.035C0.562-63.828,1.019-64.285,1.019-64.846"/>
		<path fill="#2EBDEF" d="M1.019-60.215c0-0.562-0.457-1.018-1.019-1.018v2.035C0.562-59.197,1.019-59.653,1.019-60.215"/>
		<path fill="#2EBDEF" d="M1.019-69.479c0-0.562-0.457-1.018-1.019-1.018v2.035C0.562-68.461,1.019-68.914,1.019-69.479"/>
		<path fill="#2EBDEF" d="M11.764-69.479c0-0.562-0.456-1.018-1.02-1.018c-0.562,0-1.017,0.456-1.017,1.018
			c0,0.564,0.455,1.018,1.017,1.018C11.308-68.461,11.764-68.914,11.764-69.479"/>
		<path fill="#2EBDEF" d="M1.019-13.895c0-0.562-0.457-1.021-1.019-1.021v2.038C0.562-12.877,1.019-13.334,1.019-13.895"/>
		<path fill="#2EBDEF" d="M1.019-4.633C1.019-5.193,0.562-5.65,0-5.65v2.038C0.562-3.612,1.019-4.07,1.019-4.633"/>
		<path fill="#2EBDEF" d="M1.019-74.109c0-0.021-0.002-0.043-0.004-0.062H0v1.079C0.562-73.092,1.019-73.548,1.019-74.109"/>
		<path fill="#2EBDEF" d="M1.019-9.266c0-0.561-0.457-1.018-1.019-1.018v2.038C0.562-8.245,1.019-8.701,1.019-9.266"/>
		<path fill="#2EBDEF" d="M1.019-27.791c0-0.562-0.457-1.02-1.019-1.02v2.037C0.562-26.773,1.019-27.229,1.019-27.791"/>
		<path fill="#2EBDEF" d="M1.019-18.527c0-0.562-0.457-1.021-1.019-1.021v2.038C0.562-17.51,1.019-17.966,1.019-18.527"/>
		<path fill="#2EBDEF" d="M1.019-23.158c0-0.564-0.457-1.02-1.019-1.02v2.035C0.562-22.143,1.019-22.598,1.019-23.158"/>
		<path fill="#2EBDEF" d="M1.019-41.688c0-0.561-0.457-1.018-1.019-1.018v2.038C0.562-40.667,1.019-41.125,1.019-41.688"/>
		<path fill="#2EBDEF" d="M17.135-50.951c0-0.562-0.455-1.018-1.019-1.018c-0.561,0-1.017,0.456-1.017,1.018
			s0.456,1.018,1.017,1.018C16.68-49.934,17.135-50.39,17.135-50.951"/>
		<path fill="#2EBDEF" d="M17.135-23.158c0-0.564-0.455-1.02-1.019-1.02c-0.561,0-1.017,0.455-1.017,1.02
			c0,0.561,0.456,1.016,1.017,1.016C16.68-22.143,17.135-22.598,17.135-23.158"/>
		<path fill="#2EBDEF" d="M17.135-32.424c0-0.562-0.455-1.018-1.019-1.018c-0.561,0-1.017,0.455-1.017,1.018
			c0,0.562,0.456,1.018,1.017,1.018C16.68-31.406,17.135-31.862,17.135-32.424"/>
		<path fill="#2EBDEF" d="M17.135-18.527c0-0.562-0.455-1.021-1.019-1.021c-0.561,0-1.017,0.458-1.017,1.021
			c0,0.562,0.456,1.018,1.017,1.018C16.68-17.51,17.135-17.966,17.135-18.527"/>
		<path fill="#2EBDEF" d="M17.135-37.055c0-0.564-0.455-1.02-1.019-1.02c-0.561,0-1.017,0.455-1.017,1.02
			c0,0.562,0.456,1.018,1.017,1.018C16.68-36.037,17.135-36.493,17.135-37.055"/>
		<path fill="#2EBDEF" d="M17.135-46.318c0-0.562-0.455-1.02-1.019-1.02c-0.561,0-1.017,0.457-1.017,1.02
			c0,0.562,0.456,1.018,1.017,1.018C16.68-45.301,17.135-45.757,17.135-46.318"/>
		<path fill="#2EBDEF" d="M17.135-13.895c0-0.562-0.455-1.021-1.019-1.021c-0.561,0-1.017,0.458-1.017,1.021
			c0,0.561,0.456,1.018,1.017,1.018C16.68-12.877,17.135-13.334,17.135-13.895"/>
		<path fill="#2EBDEF" d="M17.135-41.688c0-0.561-0.455-1.018-1.019-1.018c-0.561,0-1.017,0.457-1.017,1.018
			c0,0.562,0.456,1.021,1.017,1.021C16.68-40.667,17.135-41.125,17.135-41.688"/>
		<path fill="#2EBDEF" d="M17.135-27.791c0-0.562-0.455-1.02-1.019-1.02c-0.561,0-1.017,0.458-1.017,1.02
			c0,0.562,0.456,1.018,1.017,1.018C16.68-26.773,17.135-27.229,17.135-27.791"/>
		<path fill="#2EBDEF" d="M22.508-55.582c0-0.562-0.456-1.018-1.018-1.018c-0.563,0-1.019,0.455-1.019,1.018
			c0,0.562,0.456,1.018,1.019,1.018C22.052-54.564,22.508-55.021,22.508-55.582"/>
		<path fill="#2EBDEF" d="M17.135-9.266c0-0.561-0.455-1.018-1.019-1.018c-0.561,0-1.017,0.457-1.017,1.018
			c0,0.564,0.456,1.021,1.017,1.021C16.68-8.245,17.135-8.701,17.135-9.266"/>
		<path fill="#2EBDEF" d="M22.508-69.479c0-0.562-0.456-1.018-1.018-1.018c-0.563,0-1.019,0.456-1.019,1.018
			c0,0.564,0.456,1.018,1.019,1.018C22.052-68.461,22.508-68.914,22.508-69.479"/>
		<path fill="#2EBDEF" d="M22.508-50.951c0-0.562-0.456-1.018-1.018-1.018c-0.563,0-1.019,0.456-1.019,1.018
			s0.456,1.018,1.019,1.018C22.052-49.934,22.508-50.39,22.508-50.951"/>
		<path fill="#2EBDEF" d="M22.508-60.215c0-0.562-0.456-1.018-1.018-1.018c-0.563,0-1.019,0.455-1.019,1.018
			c0,0.562,0.456,1.018,1.019,1.018C22.052-59.197,22.508-59.653,22.508-60.215"/>
		<path fill="#2EBDEF" d="M17.135-4.633c0-0.561-0.455-1.018-1.019-1.018c-0.561,0-1.017,0.457-1.017,1.018
			c0,0.562,0.456,1.021,1.017,1.021C16.68-3.612,17.135-4.07,17.135-4.633"/>
		<path fill="#2EBDEF" d="M22.508-74.109c0-0.021-0.003-0.043-0.003-0.062h-2.031c-0.002,0.019-0.003,0.04-0.003,0.062
			c0,0.562,0.456,1.018,1.019,1.018C22.052-73.092,22.508-73.548,22.508-74.109"/>
		<path fill="#2EBDEF" d="M22.508-64.846c0-0.562-0.456-1.018-1.018-1.018c-0.563,0-1.019,0.456-1.019,1.018
			c0,0.561,0.456,1.018,1.019,1.018C22.052-63.828,22.508-64.285,22.508-64.846"/>
		<path fill="#2EBDEF" d="M11.764-4.633c0-0.561-0.456-1.018-1.02-1.018c-0.562,0-1.017,0.457-1.017,1.018
			c0,0.562,0.455,1.021,1.017,1.021C11.308-3.612,11.764-4.07,11.764-4.633"/>
		<path fill="#2EBDEF" d="M11.764-37.055c0-0.564-0.456-1.02-1.02-1.02c-0.562,0-1.017,0.455-1.017,1.02
			c0,0.562,0.455,1.018,1.017,1.018C11.308-36.037,11.764-36.493,11.764-37.055"/>
		<path fill="#2EBDEF" d="M17.135-55.582c0-0.562-0.455-1.018-1.019-1.018c-0.561,0-1.017,0.455-1.017,1.018
			c0,0.562,0.456,1.018,1.017,1.018C16.68-54.564,17.135-55.021,17.135-55.582"/>
		<path fill="#2EBDEF" d="M11.764-41.688c0-0.561-0.456-1.018-1.02-1.018c-0.562,0-1.017,0.457-1.017,1.018
			c0,0.562,0.455,1.021,1.017,1.021C11.308-40.667,11.764-41.125,11.764-41.688"/>
		<path fill="#2EBDEF" d="M11.764-23.158c0-0.564-0.456-1.02-1.02-1.02c-0.562,0-1.017,0.455-1.017,1.02
			c0,0.561,0.455,1.016,1.017,1.016C11.308-22.143,11.764-22.598,11.764-23.158"/>
		<path fill="#2EBDEF" d="M11.764-27.791c0-0.562-0.456-1.02-1.02-1.02c-0.562,0-1.017,0.458-1.017,1.02
			c0,0.562,0.455,1.018,1.017,1.018C11.308-26.773,11.764-27.229,11.764-27.791"/>
		<path fill="#2EBDEF" d="M11.764-55.582c0-0.562-0.456-1.018-1.02-1.018c-0.562,0-1.017,0.455-1.017,1.018
			c0,0.562,0.455,1.018,1.017,1.018C11.308-54.564,11.764-55.021,11.764-55.582"/>
		<path fill="#2EBDEF" d="M11.764-46.318c0-0.562-0.456-1.02-1.02-1.02c-0.562,0-1.017,0.457-1.017,1.02
			c0,0.562,0.455,1.018,1.017,1.018C11.308-45.301,11.764-45.757,11.764-46.318"/>
		<path fill="#2EBDEF" d="M11.764-50.951c0-0.562-0.456-1.018-1.02-1.018c-0.562,0-1.017,0.456-1.017,1.018s0.455,1.018,1.017,1.018
			C11.308-49.934,11.764-50.39,11.764-50.951"/>
		<path fill="#2EBDEF" d="M11.764-32.424c0-0.562-0.456-1.018-1.02-1.018c-0.562,0-1.017,0.455-1.017,1.018
			c0,0.562,0.455,1.018,1.017,1.018C11.308-31.406,11.764-31.862,11.764-32.424"/>
		<path fill="#2EBDEF" d="M17.135-64.846c0-0.562-0.455-1.018-1.019-1.018c-0.561,0-1.017,0.456-1.017,1.018
			c0,0.561,0.456,1.018,1.017,1.018C16.68-63.828,17.135-64.285,17.135-64.846"/>
		<path fill="#2EBDEF" d="M11.764-18.527c0-0.562-0.456-1.021-1.02-1.021c-0.562,0-1.017,0.458-1.017,1.021
			c0,0.562,0.455,1.018,1.017,1.018C11.308-17.51,11.764-17.966,11.764-18.527"/>
		<path fill="#2EBDEF" d="M17.135-69.479c0-0.562-0.455-1.018-1.019-1.018c-0.561,0-1.017,0.456-1.017,1.018
			c0,0.564,0.456,1.018,1.017,1.018C16.68-68.461,17.135-68.914,17.135-69.479"/>
		<path fill="#2EBDEF" d="M17.135-60.215c0-0.562-0.455-1.018-1.019-1.018c-0.561,0-1.017,0.455-1.017,1.018
			c0,0.562,0.456,1.018,1.017,1.018C16.68-59.197,17.135-59.653,17.135-60.215"/>
		<path fill="#2EBDEF" d="M17.135-74.109c0-0.021-0.002-0.043-0.003-0.062h-2.03c0,0.019-0.003,0.04-0.003,0.062
			c0,0.562,0.456,1.018,1.017,1.018C16.68-73.092,17.135-73.548,17.135-74.109"/>
		<path fill="#2EBDEF" d="M11.764-13.895c0-0.562-0.456-1.021-1.02-1.021c-0.562,0-1.017,0.458-1.017,1.021
			c0,0.561,0.455,1.018,1.017,1.018C11.308-12.877,11.764-13.334,11.764-13.895"/>
		<path fill="#2EBDEF" d="M11.764-9.266c0-0.561-0.456-1.018-1.02-1.018c-0.562,0-1.017,0.457-1.017,1.018
			c0,0.564,0.455,1.021,1.017,1.021C11.308-8.245,11.764-8.701,11.764-9.266"/>
		<path fill="#2EBDEF" d="M11.764-60.215c0-0.562-0.456-1.018-1.02-1.018c-0.562,0-1.017,0.455-1.017,1.018
			c0,0.562,0.455,1.018,1.017,1.018C11.308-59.197,11.764-59.653,11.764-60.215"/>
		<path fill="#2EBDEF" d="M76.232-13.895c0-0.562-0.457-1.021-1.018-1.021c-0.563,0-1.02,0.458-1.02,1.021
			c0,0.561,0.457,1.018,1.02,1.018C75.775-12.877,76.232-13.334,76.232-13.895"/>
		<path fill="#2EBDEF" d="M81.603-69.479c0-0.562-0.456-1.018-1.018-1.018c-0.561,0-1.017,0.456-1.017,1.018
			c0,0.564,0.456,1.018,1.017,1.018C81.147-68.461,81.603-68.914,81.603-69.479"/>
		<path fill="#2EBDEF" d="M81.603-74.109c0-0.021-0.001-0.043-0.002-0.062h-2.03c-0.001,0.019-0.003,0.04-0.003,0.062
			c0,0.562,0.456,1.018,1.017,1.018C81.147-73.092,81.603-73.548,81.603-74.109"/>
		<path fill="#2EBDEF" d="M76.232-27.791c0-0.562-0.457-1.02-1.018-1.02c-0.563,0-1.02,0.458-1.02,1.02
			c0,0.562,0.457,1.018,1.02,1.018C75.775-26.773,76.232-27.229,76.232-27.791"/>
		<path fill="#2EBDEF" d="M81.603-60.215c0-0.562-0.456-1.018-1.018-1.018c-0.561,0-1.017,0.455-1.017,1.018
			c0,0.562,0.456,1.018,1.017,1.018C81.147-59.197,81.603-59.653,81.603-60.215"/>
		<path fill="#2EBDEF" d="M81.603-64.846c0-0.562-0.456-1.018-1.018-1.018c-0.561,0-1.017,0.456-1.017,1.018
			c0,0.561,0.456,1.018,1.017,1.018C81.147-63.828,81.603-64.285,81.603-64.846"/>
		<path fill="#2EBDEF" d="M76.232-18.527c0-0.562-0.457-1.021-1.018-1.021c-0.563,0-1.02,0.458-1.02,1.021
			c0,0.562,0.457,1.018,1.02,1.018C75.775-17.51,76.232-17.966,76.232-18.527"/>
		<path fill="#2EBDEF" d="M76.232-4.633c0-0.561-0.457-1.018-1.018-1.018c-0.563,0-1.02,0.457-1.02,1.018
			c0,0.562,0.457,1.021,1.02,1.021C75.775-3.612,76.232-4.07,76.232-4.633"/>
		<path fill="#2EBDEF" d="M76.232-23.158c0-0.564-0.457-1.02-1.018-1.02c-0.563,0-1.02,0.455-1.02,1.02
			c0,0.561,0.457,1.016,1.02,1.016C75.775-22.143,76.232-22.598,76.232-23.158"/>
		<path fill="#2EBDEF" d="M76.232-9.266c0-0.561-0.457-1.018-1.018-1.018c-0.563,0-1.02,0.457-1.02,1.018
			c0,0.564,0.457,1.021,1.02,1.021C75.775-8.245,76.232-8.701,76.232-9.266"/>
		<path fill="#2EBDEF" d="M81.603-55.582c0-0.562-0.456-1.018-1.018-1.018c-0.561,0-1.017,0.455-1.017,1.018
			c0,0.562,0.456,1.018,1.017,1.018C81.147-54.564,81.603-55.021,81.603-55.582"/>
		<path fill="#2EBDEF" d="M81.603-50.951c0-0.562-0.456-1.018-1.018-1.018c-0.561,0-1.017,0.456-1.017,1.018
			s0.456,1.018,1.017,1.018C81.147-49.934,81.603-50.39,81.603-50.951"/>
		<path fill="#2EBDEF" d="M81.603-32.424c0-0.562-0.456-1.018-1.018-1.018c-0.561,0-1.017,0.455-1.017,1.018
			c0,0.562,0.456,1.018,1.017,1.018C81.147-31.406,81.603-31.862,81.603-32.424"/>
		<path fill="#2EBDEF" d="M81.603-23.158c0-0.564-0.456-1.02-1.018-1.02c-0.561,0-1.017,0.455-1.017,1.02
			c0,0.561,0.456,1.016,1.017,1.016C81.147-22.143,81.603-22.598,81.603-23.158"/>
		<path fill="#2EBDEF" d="M81.603-18.527c0-0.562-0.456-1.021-1.018-1.021c-0.561,0-1.017,0.458-1.017,1.021
			c0,0.562,0.456,1.018,1.017,1.018C81.147-17.51,81.603-17.966,81.603-18.527"/>
		<path fill="#2EBDEF" d="M81.603-27.791c0-0.562-0.456-1.02-1.018-1.02c-0.561,0-1.017,0.458-1.017,1.02
			c0,0.562,0.456,1.018,1.017,1.018C81.147-26.773,81.603-27.229,81.603-27.791"/>
		<path fill="#2EBDEF" d="M81.603-46.318c0-0.562-0.456-1.02-1.018-1.02c-0.561,0-1.017,0.457-1.017,1.02
			c0,0.562,0.456,1.018,1.017,1.018C81.147-45.301,81.603-45.757,81.603-46.318"/>
		<path fill="#2EBDEF" d="M70.859-37.055c0-0.564-0.456-1.02-1.018-1.02s-1.017,0.455-1.017,1.02c0,0.562,0.455,1.018,1.017,1.018
			S70.859-36.493,70.859-37.055"/>
		<path fill="#2EBDEF" d="M81.603-37.055c0-0.564-0.456-1.02-1.018-1.02c-0.561,0-1.017,0.455-1.017,1.02
			c0,0.562,0.456,1.018,1.017,1.018C81.147-36.037,81.603-36.493,81.603-37.055"/>
		<path fill="#2EBDEF" d="M76.232-41.688c0-0.561-0.457-1.018-1.018-1.018c-0.563,0-1.02,0.457-1.02,1.018
			c0,0.562,0.457,1.021,1.02,1.021C75.775-40.667,76.232-41.125,76.232-41.688"/>
		<path fill="#2EBDEF" d="M70.859-18.527c0-0.562-0.456-1.021-1.018-1.021s-1.017,0.458-1.017,1.021
			c0,0.562,0.455,1.018,1.017,1.018S70.859-17.966,70.859-18.527"/>
		<path fill="#2EBDEF" d="M76.232-74.109c0-0.021-0.002-0.043-0.004-0.062h-2.029c-0.002,0.019-0.005,0.04-0.005,0.062
			c0,0.562,0.457,1.018,1.02,1.018C75.775-73.092,76.232-73.548,76.232-74.109"/>
		<path fill="#2EBDEF" d="M70.859-9.266c0-0.561-0.456-1.018-1.018-1.018s-1.017,0.457-1.017,1.018c0,0.564,0.455,1.021,1.017,1.021
			S70.859-8.701,70.859-9.266"/>
		<path fill="#2EBDEF" d="M70.859-4.633c0-0.561-0.456-1.018-1.018-1.018s-1.017,0.457-1.017,1.018c0,0.562,0.455,1.021,1.017,1.021
			S70.859-4.07,70.859-4.633"/>
		<path fill="#2EBDEF" d="M70.859-13.895c0-0.562-0.456-1.021-1.018-1.021s-1.017,0.458-1.017,1.021
			c0,0.561,0.455,1.018,1.017,1.018S70.859-13.334,70.859-13.895"/>
		<path fill="#2EBDEF" d="M70.859-23.158c0-0.564-0.456-1.02-1.018-1.02s-1.017,0.455-1.017,1.02c0,0.561,0.455,1.016,1.017,1.016
			S70.859-22.598,70.859-23.158"/>
		<path fill="#2EBDEF" d="M70.859-32.424c0-0.562-0.456-1.018-1.018-1.018s-1.017,0.455-1.017,1.018
			c0,0.562,0.455,1.018,1.017,1.018S70.859-31.862,70.859-32.424"/>
		<path fill="#2EBDEF" d="M70.859-27.791c0-0.562-0.456-1.02-1.018-1.02s-1.017,0.458-1.017,1.02c0,0.562,0.455,1.018,1.017,1.018
			S70.859-27.229,70.859-27.791"/>
		<path fill="#2EBDEF" d="M76.232-55.582c0-0.562-0.457-1.018-1.018-1.018c-0.563,0-1.02,0.455-1.02,1.018
			c0,0.562,0.457,1.018,1.02,1.018C75.775-54.564,76.232-55.021,76.232-55.582"/>
		<path fill="#2EBDEF" d="M81.603-13.895c0-0.562-0.456-1.021-1.018-1.021c-0.561,0-1.017,0.458-1.017,1.021
			c0,0.561,0.456,1.018,1.017,1.018C81.147-12.877,81.603-13.334,81.603-13.895"/>
		<path fill="#2EBDEF" d="M76.232-46.318c0-0.562-0.457-1.02-1.018-1.02c-0.563,0-1.02,0.457-1.02,1.02
			c0,0.562,0.457,1.018,1.02,1.018C75.775-45.301,76.232-45.757,76.232-46.318"/>
		<path fill="#2EBDEF" d="M76.232-37.055c0-0.564-0.457-1.02-1.018-1.02c-0.563,0-1.02,0.455-1.02,1.02
			c0,0.562,0.457,1.018,1.02,1.018C75.775-36.037,76.232-36.493,76.232-37.055"/>
		<path fill="#2EBDEF" d="M76.232-50.951c0-0.562-0.457-1.018-1.018-1.018c-0.563,0-1.02,0.456-1.02,1.018s0.457,1.018,1.02,1.018
			C75.775-49.934,76.232-50.39,76.232-50.951"/>
		<path fill="#2EBDEF" d="M76.232-60.215c0-0.562-0.457-1.018-1.018-1.018c-0.563,0-1.02,0.455-1.02,1.018
			c0,0.562,0.457,1.018,1.02,1.018C75.775-59.197,76.232-59.653,76.232-60.215"/>
		<path fill="#2EBDEF" d="M76.232-32.424c0-0.562-0.457-1.018-1.018-1.018c-0.563,0-1.02,0.455-1.02,1.018
			c0,0.562,0.457,1.018,1.02,1.018C75.775-31.406,76.232-31.862,76.232-32.424"/>
		<path fill="#2EBDEF" d="M76.232-69.479c0-0.562-0.457-1.018-1.018-1.018c-0.563,0-1.02,0.456-1.02,1.018
			c0,0.564,0.457,1.018,1.02,1.018C75.775-68.461,76.232-68.914,76.232-69.479"/>
		<path fill="#2EBDEF" d="M76.232-64.846c0-0.562-0.457-1.018-1.018-1.018c-0.563,0-1.02,0.456-1.02,1.018
			c0,0.561,0.457,1.018,1.02,1.018C75.775-63.828,76.232-64.285,76.232-64.846"/>
		<path fill="#2EBDEF" d="M81.603-41.688c0-0.561-0.456-1.018-1.018-1.018c-0.561,0-1.017,0.457-1.017,1.018
			c0,0.562,0.456,1.021,1.017,1.021C81.147-40.667,81.603-41.125,81.603-41.688"/>
		<path fill="#2EBDEF" d="M52.706,0h2.036c0-0.562-0.457-1.02-1.018-1.02C53.162-1.02,52.706-0.562,52.706,0"/>
		<path fill="#2EBDEF" d="M63.45,0h2.036c0-0.562-0.455-1.02-1.017-1.02C63.906-1.02,63.45-0.562,63.45,0"/>
		<path fill="#2EBDEF" d="M58.078,0h2.037c0-0.562-0.456-1.02-1.017-1.02C58.535-1.02,58.078-0.562,58.078,0"/>
		<path fill="#2EBDEF" d="M41.961,0h2.036c0-0.562-0.457-1.02-1.018-1.02C42.417-1.02,41.961-0.562,41.961,0"/>
		<path fill="#2EBDEF" d="M49.37-74.109c0-0.021-0.002-0.043-0.003-0.062h-2.03c-0.001,0.019-0.003,0.04-0.003,0.062
			c0,0.562,0.455,1.018,1.018,1.018S49.37-73.548,49.37-74.109"/>
		<path fill="#2EBDEF" d="M79.568,0h2.035c0-0.562-0.456-1.02-1.017-1.02C80.024-1.02,79.568-0.562,79.568,0"/>
		<path fill="#2EBDEF" d="M68.824,0h2.035c0-0.562-0.456-1.02-1.017-1.02C69.279-1.02,68.824-0.562,68.824,0"/>
		<path fill="#2EBDEF" d="M74.194,0h2.038c0-0.562-0.457-1.02-1.018-1.02C74.651-1.02,74.194-0.562,74.194,0"/>
		<path fill="#2EBDEF" d="M47.333,0h2.036c0-0.562-0.455-1.02-1.018-1.02S47.333-0.562,47.333,0"/>
		<path fill="#2EBDEF" d="M4.355,0H6.39c0-0.562-0.456-1.02-1.017-1.02C4.811-1.02,4.355-0.562,4.355,0"/>
		<path fill="#2EBDEF" d="M81.603-9.266c0-0.561-0.456-1.018-1.018-1.018c-0.561,0-1.017,0.457-1.017,1.018
			c0,0.564,0.456,1.021,1.017,1.021C81.147-8.245,81.603-8.701,81.603-9.266"/>
		<path fill="#2EBDEF" d="M9.727,0h2.037c0-0.562-0.456-1.02-1.019-1.02S9.727-0.562,9.727,0"/>
		<path fill="#2EBDEF" d="M0,0H1.02C1.02-0.562,0.562-1.02,0-1.02V0z"/>
		<path fill="#2EBDEF" d="M36.589,0h2.035c0-0.562-0.456-1.02-1.017-1.02C37.044-1.02,36.589-0.562,36.589,0"/>
		<path fill="#2EBDEF" d="M31.216,0h2.037c0-0.562-0.457-1.02-1.018-1.02C31.671-1.02,31.216-0.562,31.216,0"/>
		<path fill="#2EBDEF" d="M20.471,0h2.037c0-0.562-0.456-1.02-1.017-1.02C20.927-1.02,20.471-0.562,20.471,0"/>
		<path fill="#2EBDEF" d="M25.843,0h2.036c0-0.562-0.455-1.02-1.016-1.02C26.3-1.02,25.843-0.562,25.843,0"/>
		<path fill="#2EBDEF" d="M15.099,0h2.036c0-0.562-0.455-1.02-1.018-1.02C15.555-1.02,15.099-0.562,15.099,0"/>
		<path fill="#2EBDEF" d="M85.958-54.564c0.042,0,0.083-0.004,0.124-0.008v-2.021C86.041-56.598,86-56.6,85.958-56.6
			c-0.562,0-1.018,0.455-1.018,1.018S85.396-54.564,85.958-54.564"/>
		<path fill="#2EBDEF" d="M85.958-59.197c0.042,0,0.083-0.002,0.124-0.008v-2.02c-0.041-0.004-0.082-0.008-0.124-0.008
			c-0.562,0-1.018,0.455-1.018,1.018S85.396-59.197,85.958-59.197"/>
		<path fill="#2EBDEF" d="M85.958-45.301c0.042,0,0.083-0.004,0.124-0.008v-2.021c-0.041-0.004-0.082-0.008-0.124-0.008
			c-0.562,0-1.018,0.457-1.018,1.02S85.396-45.301,85.958-45.301"/>
		<path fill="#2EBDEF" d="M85.958-49.934c0.042,0,0.083-0.002,0.124-0.008v-2.02c-0.041-0.004-0.082-0.008-0.124-0.008
			c-0.562,0-1.018,0.455-1.018,1.018S85.396-49.934,85.958-49.934"/>
		<path fill="#2EBDEF" d="M85.958-68.461c0.042,0,0.083-0.002,0.124-0.006v-2.021c-0.041-0.004-0.082-0.008-0.124-0.008
			c-0.562,0-1.018,0.455-1.018,1.018C84.939-68.914,85.396-68.461,85.958-68.461"/>
		<path fill="#2EBDEF" d="M81.603-4.633c0-0.561-0.456-1.018-1.018-1.018c-0.561,0-1.017,0.457-1.017,1.018
			c0,0.562,0.456,1.021,1.017,1.021C81.147-3.612,81.603-4.07,81.603-4.633"/>
		<path fill="#2EBDEF" d="M85.958-63.828c0.042,0,0.083-0.004,0.124-0.008v-2.02c-0.041-0.006-0.082-0.008-0.124-0.008
			c-0.562,0-1.018,0.455-1.018,1.018C84.939-64.285,85.396-63.828,85.958-63.828"/>
		<path fill="#2EBDEF" d="M85.958-73.092c0.042,0,0.083-0.004,0.124-0.008v-1.072h-1.139c-0.002,0.02-0.003,0.041-0.003,0.062
			C84.939-73.547,85.396-73.092,85.958-73.092"/>
		<path fill="#2EBDEF" d="M85.958-22.143c0.042,0,0.083-0.002,0.124-0.008v-2.018c-0.041-0.008-0.082-0.01-0.124-0.01
			c-0.562,0-1.018,0.455-1.018,1.02C84.939-22.598,85.396-22.143,85.958-22.143"/>
		<path fill="#2EBDEF" d="M85.958-12.877c0.042,0,0.083-0.004,0.124-0.01v-2.02c-0.041-0.006-0.082-0.008-0.124-0.008
			c-0.562,0-1.018,0.457-1.018,1.02C84.939-13.334,85.396-12.877,85.958-12.877"/>
		<path fill="#2EBDEF" d="M85.958-40.668c0.042,0,0.083-0.004,0.124-0.01v-2.02c-0.041-0.004-0.082-0.008-0.124-0.008
			c-0.562,0-1.018,0.457-1.018,1.018C84.939-41.125,85.396-40.668,85.958-40.668"/>
		<path fill="#2EBDEF" d="M85.958-17.51c0.042,0,0.083-0.004,0.124-0.008v-2.02c-0.041-0.006-0.082-0.01-0.124-0.01
			c-0.562,0-1.018,0.457-1.018,1.02S85.396-17.51,85.958-17.51"/>
		<path fill="#2EBDEF" d="M85.958-8.246c0.042,0,0.083-0.004,0.124-0.008v-2.02c-0.041-0.006-0.082-0.01-0.124-0.01
			c-0.562,0-1.018,0.457-1.018,1.018C84.939-8.701,85.396-8.246,85.958-8.246"/>
		<path fill="#2EBDEF" d="M85.958-3.613c0.042,0,0.083-0.004,0.124-0.01v-2.02C86.041-5.648,86-5.65,85.958-5.65
			c-0.562,0-1.018,0.457-1.018,1.018C84.939-4.07,85.396-3.613,85.958-3.613"/>
		<path fill="#2EBDEF" d="M85.958-36.037c0.042,0,0.083-0.004,0.124-0.008v-2.021c-0.041-0.004-0.082-0.008-0.124-0.008
			c-0.562,0-1.018,0.455-1.018,1.02C84.939-36.492,85.396-36.037,85.958-36.037"/>
		<path fill="#2EBDEF" d="M85.958-31.406c0.042,0,0.083-0.002,0.124-0.008v-2.02c-0.041-0.006-0.082-0.008-0.124-0.008
			c-0.562,0-1.018,0.455-1.018,1.018S85.396-31.406,85.958-31.406"/>
		<path fill="#2EBDEF" d="M85.958-26.773c0.042,0,0.083-0.002,0.124-0.008v-2.02c-0.041-0.006-0.082-0.01-0.124-0.01
			c-0.562,0-1.018,0.457-1.018,1.02S85.396-26.773,85.958-26.773"/>
		<path fill="#2EBDEF" d="M86.082,0v-1.01C86.041-1.016,86-1.02,85.958-1.02c-0.563,0-1.018,0.458-1.018,1.02H86.082z"/>
		<path fill="#2EBDEF" d="M54.742-41.688c0-0.561-0.457-1.018-1.018-1.018c-0.562,0-1.018,0.457-1.018,1.018
			c0,0.562,0.456,1.021,1.018,1.021C54.285-40.667,54.742-41.125,54.742-41.688"/>
		<path fill="#2EBDEF" d="M54.742-46.318c0-0.562-0.457-1.02-1.018-1.02c-0.562,0-1.018,0.457-1.018,1.02
			c0,0.562,0.456,1.018,1.018,1.018C54.285-45.301,54.742-45.757,54.742-46.318"/>
		<path fill="#2EBDEF" d="M54.742-69.479c0-0.562-0.457-1.018-1.018-1.018c-0.562,0-1.018,0.456-1.018,1.018
			c0,0.564,0.456,1.018,1.018,1.018C54.285-68.461,54.742-68.914,54.742-69.479"/>
		<path fill="#2EBDEF" d="M54.742-32.424c0-0.562-0.457-1.018-1.018-1.018c-0.562,0-1.018,0.455-1.018,1.018
			c0,0.562,0.456,1.018,1.018,1.018C54.285-31.406,54.742-31.862,54.742-32.424"/>
		<path fill="#2EBDEF" d="M54.742-37.055c0-0.564-0.457-1.02-1.018-1.02c-0.562,0-1.018,0.455-1.018,1.02
			c0,0.562,0.456,1.018,1.018,1.018C54.285-36.037,54.742-36.493,54.742-37.055"/>
		<path fill="#2EBDEF" d="M54.742-60.215c0-0.562-0.457-1.018-1.018-1.018c-0.562,0-1.018,0.455-1.018,1.018
			c0,0.562,0.456,1.018,1.018,1.018C54.285-59.197,54.742-59.653,54.742-60.215"/>
		<path fill="#2EBDEF" d="M54.742-55.582c0-0.562-0.457-1.018-1.018-1.018c-0.562,0-1.018,0.455-1.018,1.018
			c0,0.562,0.456,1.018,1.018,1.018C54.285-54.564,54.742-55.021,54.742-55.582"/>
		<path fill="#2EBDEF" d="M54.742-50.951c0-0.562-0.457-1.018-1.018-1.018c-0.562,0-1.018,0.456-1.018,1.018
			s0.456,1.018,1.018,1.018C54.285-49.934,54.742-50.39,54.742-50.951"/>
		<path fill="#2EBDEF" d="M54.742-27.791c0-0.562-0.457-1.02-1.018-1.02c-0.562,0-1.018,0.458-1.018,1.02
			c0,0.562,0.456,1.018,1.018,1.018C54.285-26.773,54.742-27.229,54.742-27.791"/>
		<path fill="#2EBDEF" d="M60.115-60.215c0-0.562-0.456-1.018-1.018-1.018s-1.019,0.455-1.019,1.018
			c0,0.562,0.457,1.018,1.019,1.018S60.115-59.653,60.115-60.215"/>
		<path fill="#2EBDEF" d="M60.115-74.109c0-0.021-0.003-0.043-0.004-0.062h-2.028c-0.003,0.019-0.005,0.04-0.005,0.062
			c0,0.562,0.457,1.018,1.019,1.018S60.115-73.548,60.115-74.109"/>
		<path fill="#2EBDEF" d="M54.742-4.633c0-0.561-0.457-1.018-1.018-1.018c-0.562,0-1.018,0.457-1.018,1.018
			c0,0.562,0.456,1.021,1.018,1.021C54.285-3.612,54.742-4.07,54.742-4.633"/>
		<path fill="#2EBDEF" d="M60.115-69.479c0-0.562-0.456-1.018-1.018-1.018s-1.019,0.456-1.019,1.018
			c0,0.564,0.457,1.018,1.019,1.018S60.115-68.914,60.115-69.479"/>
		<path fill="#2EBDEF" d="M60.115-64.846c0-0.562-0.456-1.018-1.018-1.018s-1.019,0.456-1.019,1.018
			c0,0.561,0.457,1.018,1.019,1.018S60.115-64.285,60.115-64.846"/>
		<path fill="#2EBDEF" d="M54.742-9.266c0-0.561-0.457-1.018-1.018-1.018c-0.562,0-1.018,0.457-1.018,1.018
			c0,0.564,0.456,1.021,1.018,1.021C54.285-8.245,54.742-8.701,54.742-9.266"/>
		<path fill="#2EBDEF" d="M54.742-18.527c0-0.562-0.457-1.021-1.018-1.021c-0.562,0-1.018,0.458-1.018,1.021
			c0,0.562,0.456,1.018,1.018,1.018C54.285-17.51,54.742-17.966,54.742-18.527"/>
		<path fill="#2EBDEF" d="M54.742-13.895c0-0.562-0.457-1.021-1.018-1.021c-0.562,0-1.018,0.458-1.018,1.021
			c0,0.561,0.456,1.018,1.018,1.018C54.285-12.877,54.742-13.334,54.742-13.895"/>
		<path fill="#2EBDEF" d="M54.742-23.158c0-0.564-0.457-1.02-1.018-1.02c-0.562,0-1.018,0.455-1.018,1.02
			c0,0.561,0.456,1.016,1.018,1.016C54.285-22.143,54.742-22.598,54.742-23.158"/>
		<path fill="#2EBDEF" d="M49.37-50.951c0-0.562-0.455-1.018-1.018-1.018s-1.018,0.456-1.018,1.018s0.455,1.018,1.018,1.018
			S49.37-50.39,49.37-50.951"/>
		<path fill="#2EBDEF" d="M49.37-46.318c0-0.562-0.455-1.02-1.018-1.02s-1.018,0.457-1.018,1.02c0,0.562,0.455,1.018,1.018,1.018
			S49.37-45.757,49.37-46.318"/>
		<path fill="#2EBDEF" d="M49.37-55.582c0-0.562-0.455-1.018-1.018-1.018s-1.018,0.455-1.018,1.018c0,0.562,0.455,1.018,1.018,1.018
			S49.37-55.021,49.37-55.582"/>
		<path fill="#2EBDEF" d="M49.37-41.688c0-0.561-0.455-1.018-1.018-1.018s-1.018,0.457-1.018,1.018c0,0.562,0.455,1.021,1.018,1.021
			S49.37-41.125,49.37-41.688"/>
		<path fill="#2EBDEF" d="M49.37-69.479c0-0.562-0.455-1.018-1.018-1.018s-1.018,0.456-1.018,1.018c0,0.564,0.455,1.018,1.018,1.018
			S49.37-68.914,49.37-69.479"/>
		<path fill="#2EBDEF" d="M49.37-64.846c0-0.562-0.455-1.018-1.018-1.018s-1.018,0.456-1.018,1.018c0,0.561,0.455,1.018,1.018,1.018
			S49.37-64.285,49.37-64.846"/>
		<path fill="#2EBDEF" d="M49.37-37.055c0-0.564-0.455-1.02-1.018-1.02s-1.018,0.455-1.018,1.02c0,0.562,0.455,1.018,1.018,1.018
			S49.37-36.493,49.37-37.055"/>
		<path fill="#2EBDEF" d="M49.37-60.215c0-0.562-0.455-1.018-1.018-1.018s-1.018,0.455-1.018,1.018c0,0.562,0.455,1.018,1.018,1.018
			S49.37-59.653,49.37-60.215"/>
		<path fill="#2EBDEF" d="M49.37-27.791c0-0.562-0.455-1.02-1.018-1.02s-1.018,0.458-1.018,1.02c0,0.562,0.455,1.018,1.018,1.018
			S49.37-27.229,49.37-27.791"/>
		<path fill="#2EBDEF" d="M49.37-13.895c0-0.562-0.455-1.021-1.018-1.021s-1.018,0.458-1.018,1.021c0,0.561,0.455,1.018,1.018,1.018
			S49.37-13.334,49.37-13.895"/>
		<path fill="#2EBDEF" d="M49.37-9.266c0-0.561-0.455-1.018-1.018-1.018s-1.018,0.457-1.018,1.018c0,0.564,0.455,1.021,1.018,1.021
			S49.37-8.701,49.37-9.266"/>
		<path fill="#2EBDEF" d="M49.37-4.633c0-0.561-0.455-1.018-1.018-1.018s-1.018,0.457-1.018,1.018c0,0.562,0.455,1.021,1.018,1.021
			S49.37-4.07,49.37-4.633"/>
		<path fill="#2EBDEF" d="M49.37-32.424c0-0.562-0.455-1.018-1.018-1.018s-1.018,0.455-1.018,1.018c0,0.562,0.455,1.018,1.018,1.018
			S49.37-31.862,49.37-32.424"/>
		<path fill="#2EBDEF" d="M54.742-74.109c0-0.021-0.002-0.043-0.004-0.062h-2.029c-0.002,0.019-0.003,0.04-0.003,0.062
			c0,0.562,0.456,1.018,1.018,1.018C54.285-73.092,54.742-73.548,54.742-74.109"/>
		<path fill="#2EBDEF" d="M54.742-64.846c0-0.562-0.457-1.018-1.018-1.018c-0.562,0-1.018,0.456-1.018,1.018
			c0,0.561,0.456,1.018,1.018,1.018C54.285-63.828,54.742-64.285,54.742-64.846"/>
		<path fill="#2EBDEF" d="M49.37-23.158c0-0.564-0.455-1.02-1.018-1.02s-1.018,0.455-1.018,1.02c0,0.561,0.455,1.016,1.018,1.016
			S49.37-22.598,49.37-23.158"/>
		<path fill="#2EBDEF" d="M49.37-18.527c0-0.562-0.455-1.021-1.018-1.021s-1.018,0.458-1.018,1.021c0,0.562,0.455,1.018,1.018,1.018
			S49.37-17.966,49.37-18.527"/>
		<path fill="#2EBDEF" d="M60.115-41.688c0-0.561-0.456-1.018-1.018-1.018s-1.019,0.457-1.019,1.018
			c0,0.562,0.457,1.021,1.019,1.021S60.115-41.125,60.115-41.688"/>
		<path fill="#2EBDEF" d="M65.486-23.158c0-0.564-0.455-1.02-1.018-1.02c-0.562,0-1.018,0.455-1.018,1.02
			c0,0.561,0.456,1.016,1.018,1.016C65.031-22.143,65.486-22.598,65.486-23.158"/>
		<path fill="#2EBDEF" d="M65.486-18.527c0-0.562-0.455-1.021-1.018-1.021c-0.562,0-1.018,0.458-1.018,1.021
			c0,0.562,0.456,1.018,1.018,1.018C65.031-17.51,65.486-17.966,65.486-18.527"/>
		<path fill="#2EBDEF" d="M65.486-27.791c0-0.562-0.455-1.02-1.018-1.02c-0.562,0-1.018,0.458-1.018,1.02
			c0,0.562,0.456,1.018,1.018,1.018C65.031-26.773,65.486-27.229,65.486-27.791"/>
		<path fill="#2EBDEF" d="M65.486-13.895c0-0.562-0.455-1.021-1.018-1.021c-0.562,0-1.018,0.458-1.018,1.021
			c0,0.561,0.456,1.018,1.018,1.018C65.031-12.877,65.486-13.334,65.486-13.895"/>
		<path fill="#2EBDEF" d="M65.486-37.055c0-0.564-0.455-1.02-1.018-1.02c-0.562,0-1.018,0.455-1.018,1.02
			c0,0.562,0.456,1.018,1.018,1.018C65.031-36.037,65.486-36.493,65.486-37.055"/>
		<path fill="#2EBDEF" d="M65.486-41.688c0-0.561-0.455-1.018-1.018-1.018c-0.562,0-1.018,0.457-1.018,1.018
			c0,0.562,0.456,1.021,1.018,1.021C65.031-40.667,65.486-41.125,65.486-41.688"/>
		<path fill="#2EBDEF" d="M65.486-9.266c0-0.561-0.455-1.018-1.018-1.018c-0.562,0-1.018,0.457-1.018,1.018
			c0,0.564,0.456,1.021,1.018,1.021C65.031-8.245,65.486-8.701,65.486-9.266"/>
		<path fill="#2EBDEF" d="M65.486-32.424c0-0.562-0.455-1.018-1.018-1.018c-0.562,0-1.018,0.455-1.018,1.018
			c0,0.562,0.456,1.018,1.018,1.018C65.031-31.406,65.486-31.862,65.486-32.424"/>
		<path fill="#2EBDEF" d="M70.859-55.582c0-0.562-0.456-1.018-1.018-1.018s-1.017,0.455-1.017,1.018
			c0,0.562,0.455,1.018,1.017,1.018S70.859-55.021,70.859-55.582"/>
		<path fill="#2EBDEF" d="M65.486-46.318c0-0.562-0.455-1.02-1.018-1.02c-0.562,0-1.018,0.457-1.018,1.02
			c0,0.562,0.456,1.018,1.018,1.018C65.031-45.301,65.486-45.757,65.486-46.318"/>
		<path fill="#2EBDEF" d="M70.859-50.951c0-0.562-0.456-1.018-1.018-1.018s-1.017,0.456-1.017,1.018s0.455,1.018,1.017,1.018
			S70.859-50.39,70.859-50.951"/>
		<path fill="#2EBDEF" d="M60.115-55.582c0-0.562-0.456-1.018-1.018-1.018s-1.019,0.455-1.019,1.018
			c0,0.562,0.457,1.018,1.019,1.018S60.115-55.021,60.115-55.582"/>
		<path fill="#2EBDEF" d="M65.486-4.633c0-0.561-0.455-1.018-1.018-1.018c-0.562,0-1.018,0.457-1.018,1.018
			c0,0.562,0.456,1.021,1.018,1.021C65.031-3.612,65.486-4.07,65.486-4.633"/>
		<path fill="#2EBDEF" d="M70.859-60.215c0-0.562-0.456-1.018-1.018-1.018s-1.017,0.455-1.017,1.018
			c0,0.562,0.455,1.018,1.017,1.018S70.859-59.653,70.859-60.215"/>
		<path fill="#2EBDEF" d="M70.859-74.109c0-0.021-0.003-0.043-0.003-0.062h-2.029c-0.003,0.019-0.003,0.04-0.003,0.062
			c0,0.562,0.455,1.018,1.017,1.018S70.859-73.548,70.859-74.109"/>
		<path fill="#2EBDEF" d="M70.859-69.479c0-0.562-0.456-1.018-1.018-1.018s-1.017,0.456-1.017,1.018
			c0,0.564,0.455,1.018,1.017,1.018S70.859-68.914,70.859-69.479"/>
		<path fill="#2EBDEF" d="M70.859-64.846c0-0.562-0.456-1.018-1.018-1.018s-1.017,0.456-1.017,1.018
			c0,0.561,0.455,1.018,1.017,1.018S70.859-64.285,70.859-64.846"/>
		<path fill="#2EBDEF" d="M70.859-46.318c0-0.562-0.456-1.02-1.018-1.02s-1.017,0.457-1.017,1.02c0,0.562,0.455,1.018,1.017,1.018
			S70.859-45.757,70.859-46.318"/>
		<path fill="#2EBDEF" d="M60.115-27.791c0-0.562-0.456-1.02-1.018-1.02s-1.019,0.458-1.019,1.02c0,0.562,0.457,1.018,1.019,1.018
			S60.115-27.229,60.115-27.791"/>
		<path fill="#2EBDEF" d="M60.115-18.527c0-0.562-0.456-1.021-1.018-1.021s-1.019,0.458-1.019,1.021
			c0,0.562,0.457,1.018,1.019,1.018S60.115-17.966,60.115-18.527"/>
		<path fill="#2EBDEF" d="M60.115-32.424c0-0.562-0.456-1.018-1.018-1.018s-1.019,0.455-1.019,1.018
			c0,0.562,0.457,1.018,1.019,1.018S60.115-31.862,60.115-32.424"/>
		<path fill="#2EBDEF" d="M60.115-23.158c0-0.564-0.456-1.02-1.018-1.02s-1.019,0.455-1.019,1.02c0,0.561,0.457,1.016,1.019,1.016
			S60.115-22.598,60.115-23.158"/>
		<path fill="#2EBDEF" d="M60.115-37.055c0-0.564-0.456-1.02-1.018-1.02s-1.019,0.455-1.019,1.02c0,0.562,0.457,1.018,1.019,1.018
			S60.115-36.493,60.115-37.055"/>
		<path fill="#2EBDEF" d="M60.115-50.951c0-0.562-0.456-1.018-1.018-1.018s-1.019,0.456-1.019,1.018s0.457,1.018,1.019,1.018
			S60.115-50.39,60.115-50.951"/>
		<path fill="#2EBDEF" d="M60.115-46.318c0-0.562-0.456-1.02-1.018-1.02s-1.019,0.457-1.019,1.02c0,0.562,0.457,1.018,1.019,1.018
			S60.115-45.757,60.115-46.318"/>
		<path fill="#2EBDEF" d="M70.859-41.688c0-0.561-0.456-1.018-1.018-1.018s-1.017,0.457-1.017,1.018
			c0,0.562,0.455,1.021,1.017,1.021S70.859-41.125,70.859-41.688"/>
		<path fill="#2EBDEF" d="M60.115-13.895c0-0.562-0.456-1.021-1.018-1.021s-1.019,0.458-1.019,1.021
			c0,0.561,0.457,1.018,1.019,1.018S60.115-13.334,60.115-13.895"/>
		<path fill="#2EBDEF" d="M65.486-60.215c0-0.562-0.455-1.018-1.018-1.018c-0.562,0-1.018,0.455-1.018,1.018
			c0,0.562,0.456,1.018,1.018,1.018C65.031-59.197,65.486-59.653,65.486-60.215"/>
		<path fill="#2EBDEF" d="M65.486-50.951c0-0.562-0.455-1.018-1.018-1.018c-0.562,0-1.018,0.456-1.018,1.018
			s0.456,1.018,1.018,1.018C65.031-49.934,65.486-50.39,65.486-50.951"/>
		<path fill="#2EBDEF" d="M65.486-69.479c0-0.562-0.455-1.018-1.018-1.018c-0.562,0-1.018,0.456-1.018,1.018
			c0,0.564,0.456,1.018,1.018,1.018C65.031-68.461,65.486-68.914,65.486-69.479"/>
		<path fill="#2EBDEF" d="M65.486-55.582c0-0.562-0.455-1.018-1.018-1.018c-0.562,0-1.018,0.455-1.018,1.018
			c0,0.562,0.456,1.018,1.018,1.018C65.031-54.564,65.486-55.021,65.486-55.582"/>
		<path fill="#2EBDEF" d="M65.486-64.846c0-0.562-0.455-1.018-1.018-1.018c-0.562,0-1.018,0.456-1.018,1.018
			c0,0.561,0.456,1.018,1.018,1.018C65.031-63.828,65.486-64.285,65.486-64.846"/>
		<path fill="#2EBDEF" d="M65.486-74.109c0-0.021-0.002-0.043-0.003-0.062h-2.03c0,0.019-0.003,0.04-0.003,0.062
			c0,0.562,0.456,1.018,1.018,1.018C65.031-73.092,65.486-73.548,65.486-74.109"/>
		<path fill="#2EBDEF" d="M60.115-9.266c0-0.561-0.456-1.018-1.018-1.018s-1.019,0.457-1.019,1.018c0,0.564,0.457,1.021,1.019,1.021
			S60.115-8.701,60.115-9.266"/>
		<path fill="#2EBDEF" d="M60.115-4.633c0-0.561-0.456-1.018-1.018-1.018s-1.019,0.457-1.019,1.018c0,0.562,0.457,1.021,1.019,1.021
			S60.115-4.07,60.115-4.633"/>
	</g>
</pattern>
<g>
	<g>
		<path fill="#FFFFFF" d="M556.208,44.039c0,0.153-0.119,0.272-0.272,0.272h-8.295c-0.152,0-0.271-0.119-0.271-0.272v-0.985
			c0-0.799,0.221-1.139,0.833-1.581c0.595-0.441,2.158-1.614,2.158-1.614c1.343-1.021,3.825-2.465,3.825-4.403
			c0-2.107-1.31-2.617-3.111-2.617c-1.836,0-3.025,0.408-3.604,0.561h-0.067c-0.103,0-0.204-0.051-0.238-0.204l-0.188-0.765v-0.051
			c0-0.119,0.119-0.188,0.204-0.221c0.255-0.103,1.768-0.629,4.028-0.629c2.55,0,4.488,0.951,4.488,3.994
			c0,2.21-2.006,3.604-3.858,4.93l-3.026,2.192v0.34h7.122c0.153,0,0.272,0.119,0.272,0.272V44.039z"/>
		<path fill="#FFFFFF" d="M567.97,38.057c0,0.203-0.017,0.407-0.017,0.595c0,4.437-1.648,5.881-5.252,5.881
			c-1.904,0-3.146-0.391-3.146-0.391c-0.067,0-0.152-0.085-0.152-0.153v-0.034l0.187-0.935c0.018-0.085,0.085-0.136,0.17-0.136
			h0.034c1.173,0.255,1.904,0.356,3.145,0.356c2.635,0,3.502-1.24,3.553-4.062c0,0-1.768,0.663-3.519,0.663
			c-2.72,0-4.59-1.207-4.59-4.164c0-2.873,1.904-4.147,4.743-4.147c4.13,0,4.827,2.464,4.844,6.476V38.057z M563.092,32.787
			c-2.176,0-3.213,0.884-3.213,2.89c0,2.039,1.241,2.872,3.179,2.872c1.02,0,2.448-0.237,3.417-0.595v-0.612
			C566.491,33.96,565.557,32.787,563.092,32.787z"/>
		<path fill="#FFFFFF" d="M572.677,38.005c-2.465,0-2.754-1.598-2.754-3.229s0.289-3.246,2.754-3.246
			c2.447,0,2.736,1.614,2.736,3.246S575.124,38.005,572.677,38.005z M572.66,32.498c-1.411,0-1.581,0.85-1.581,2.261
			c0,1.428,0.187,2.277,1.581,2.277c1.41,0,1.598-0.85,1.598-2.277C574.258,33.348,574.07,32.498,572.66,32.498z M572.966,44.312
			c-0.018,0.034-0.068,0.051-0.119,0.051c-0.034,0-0.051,0-0.085-0.017l-0.561-0.392c-0.052-0.033-0.068-0.085-0.068-0.136
			c0-0.017,0.017-0.051,0.034-0.085l8.057-11.949c0.034-0.052,0.085-0.068,0.119-0.068s0.068,0.017,0.085,0.034l0.578,0.391
			c0.034,0.018,0.068,0.068,0.068,0.119c0,0.034-0.018,0.068-0.034,0.102L572.966,44.312z M580.53,44.532
			c-2.465,0-2.754-1.598-2.754-3.229s0.289-3.246,2.754-3.246s2.753,1.614,2.753,3.246S582.995,44.532,580.53,44.532z
			 M580.53,39.025c-1.411,0-1.599,0.85-1.599,2.277c0,1.411,0.188,2.261,1.599,2.261c1.41,0,1.598-0.85,1.598-2.261
			C582.128,39.875,581.94,39.025,580.53,39.025z"/>
		<path fill="#FFFFFF" d="M556.577,63.498c-1.988,0-3.535-0.476-3.909-0.595c-0.136-0.034-0.221-0.152-0.221-0.271
			c0-0.018,0.017-0.051,0.017-0.068l0.188-0.748c0.017-0.085,0.17-0.152,0.255-0.152h0.033c0.341,0.067,2.074,0.544,3.927,0.544
			c1.547,0,3.196-0.527,3.196-2.38c0-1.769-1.462-2.006-3.383-2.244c-1.972-0.255-4.369-0.68-4.369-3.519s2.346-3.502,4.658-3.502
			c1.988,0,3.535,0.477,3.893,0.596c0.152,0.051,0.221,0.152,0.221,0.271v0.068l-0.187,0.748c-0.034,0.085-0.171,0.152-0.256,0.152
			h-0.033c-0.34-0.067-1.836-0.51-3.689-0.51c-1.461,0-3.178,0.323-3.178,2.057c0,1.734,1.717,2.074,3.349,2.295
			c2.039,0.271,4.437,0.408,4.437,3.468C561.524,62.733,559.025,63.498,556.577,63.498z"/>
		<path fill="#FFFFFF" d="M572.166,52.024h-4.131v11.015c0,0.153-0.118,0.272-0.271,0.272h-0.901c-0.152,0-0.271-0.119-0.271-0.272
			V52.024h-4.131c-0.153,0-0.271-0.119-0.271-0.271v-0.731c0-0.152,0.118-0.271,0.271-0.271h9.706c0.153,0,0.272,0.119,0.272,0.271
			v0.731C572.438,51.905,572.319,52.024,572.166,52.024z"/>
		<path fill="#FFFFFF" d="M583.572,63.107c0,0.103-0.085,0.204-0.188,0.204h-1.173c-0.102,0-0.204-0.068-0.238-0.119l-3.926-5.745
			l-4.012,5.745c-0.034,0.068-0.119,0.119-0.222,0.119h-1.258c-0.102,0-0.187-0.102-0.187-0.187c0-0.034,0.017-0.068,0.034-0.086
			l4.521-6.323l-4.012-5.677c-0.018-0.034-0.018-0.068-0.018-0.085c0-0.103,0.085-0.204,0.188-0.204h1.207
			c0.119,0,0.204,0.051,0.271,0.152l3.485,5.117l3.434-5.134c0.067-0.102,0.152-0.136,0.271-0.136h1.189
			c0.103,0,0.188,0.102,0.188,0.204c0,0.017,0,0.051-0.034,0.085l-3.909,5.677l4.368,6.307
			C583.572,63.057,583.572,63.073,583.572,63.107z"/>
	</g>
</g>
<g>
	<g>
		<path fill="#FFFFFF" d="M569.375,187.542c-3.961,0-4.827-2.107-4.845-6.459v-0.136c-0.017-3.91,0.851-6.408,5.439-6.408
			c1.904,0,3.196,0.391,3.196,0.391c0.085,0,0.152,0.085,0.152,0.152v0.034l-0.187,0.952c-0.018,0.085-0.085,0.136-0.153,0.136
			h-0.034c-1.173-0.255-1.972-0.356-3.212-0.356c-2.635,0-3.672,1.224-3.74,4.045c0,0,1.887-0.662,3.519-0.662
			c2.737,0,4.606,1.206,4.606,4.182C574.117,186.268,572.214,187.542,569.375,187.542z M569.443,180.521
			c-1.021,0-2.448,0.238-3.417,0.596v0.611c-0.034,3.383,0.918,4.556,3.366,4.556c2.176,0,3.229-0.884,3.229-2.89
			C572.622,181.354,571.381,180.521,569.443,180.521z"/>
		<path fill="#FFFFFF" d="M578.653,181.015c-2.465,0-2.754-1.598-2.754-3.229s0.289-3.246,2.754-3.246
			c2.447,0,2.736,1.614,2.736,3.246S581.101,181.015,578.653,181.015z M578.637,175.508c-1.411,0-1.581,0.85-1.581,2.261
			c0,1.428,0.187,2.277,1.581,2.277c1.41,0,1.598-0.85,1.598-2.277C580.234,176.357,580.047,175.508,578.637,175.508z
			 M578.942,187.321c-0.018,0.034-0.068,0.051-0.119,0.051c-0.034,0-0.051,0-0.085-0.017l-0.561-0.392
			c-0.052-0.033-0.068-0.085-0.068-0.136c0-0.017,0.017-0.051,0.034-0.085l8.057-11.949c0.034-0.052,0.085-0.068,0.119-0.068
			s0.068,0.017,0.085,0.034l0.578,0.391c0.034,0.018,0.068,0.068,0.068,0.119c0,0.034-0.018,0.068-0.034,0.102L578.942,187.321z
			 M586.507,187.542c-2.465,0-2.754-1.598-2.754-3.229s0.289-3.246,2.754-3.246s2.753,1.614,2.753,3.246
			S588.972,187.542,586.507,187.542z M586.507,182.035c-1.411,0-1.599,0.85-1.599,2.277c0,1.411,0.188,2.261,1.599,2.261
			c1.41,0,1.598-0.85,1.598-2.261C588.104,182.885,587.917,182.035,586.507,182.035z"/>
		<path fill="#FFFFFF" d="M575.205,206.321h-0.9c-0.153,0-0.272-0.119-0.272-0.272v-5.575h-7.462v5.575
			c0,0.153-0.119,0.272-0.271,0.272h-0.901c-0.153,0-0.271-0.119-0.271-0.272V193.93c0-0.136,0.085-0.188,0.203-0.221l1.021-0.17
			h0.051c0.119,0,0.17,0.118,0.17,0.221v5.389h7.462v-5.219c0-0.136,0.085-0.188,0.204-0.221l1.021-0.17h0.051
			c0.119,0,0.17,0.118,0.17,0.221v12.289C575.478,206.202,575.358,206.321,575.205,206.321z"/>
		<path fill="#FFFFFF" d="M586.103,195.068h-6.119v4.896h5.575c0.137,0,0.255,0.119,0.255,0.272v0.799
			c0,0.136-0.118,0.271-0.255,0.271h-5.575v4.742c0,0.153-0.119,0.272-0.271,0.272h-0.901c-0.153,0-0.271-0.119-0.271-0.272v-12.018
			c0-0.152,0.118-0.271,0.271-0.271h7.275c0.153,0,0.271,0.119,0.271,0.271v0.766C586.357,194.949,586.239,195.068,586.103,195.068z
			"/>
		<path fill="#FFFFFF" d="M589.49,207.399c0,0.033-0.011,0.065-0.032,0.088l-0.426,0.381c-0.032,0.033-0.076,0.055-0.108,0.055
			c-0.055,0-0.109-0.055-0.175-0.152c-0.85-1.264-1.307-3.171-1.307-5.11c0-1.928,0.457-3.846,1.307-5.099
			c0.065-0.098,0.12-0.152,0.175-0.152c0.032,0,0.076,0.011,0.108,0.055l0.426,0.37c0.021,0.022,0.032,0.055,0.032,0.088
			c0,0.032,0,0.054-0.021,0.076c-0.817,1.307-1.111,3.104-1.111,4.662c0,1.559,0.294,3.367,1.111,4.675
			C589.49,207.356,589.49,207.378,589.49,207.399z"/>
		<path fill="#FFFFFF" d="M597.421,206.19c0,0.076-0.044,0.131-0.12,0.131h-0.675c-0.055,0-0.142-0.055-0.153-0.109l-1.176-3.312
			h-3.116l-1.145,3.334c-0.021,0.055-0.108,0.087-0.163,0.087h-0.676c-0.076,0-0.119-0.055-0.119-0.12
			c0-0.032,0.011-0.065,0.021-0.087l2.811-7.702c0.022-0.077,0.142-0.142,0.196-0.142h1.34c0.065,0,0.175,0.064,0.196,0.142
			l2.768,7.702C597.41,206.136,597.421,206.169,597.421,206.19z M593.945,199.032h-0.436l-1.079,3.073h2.615L593.945,199.032z"/>
		<path fill="#FFFFFF" d="M600.263,206.19c0,0.076-0.055,0.099-0.087,0.109c-0.088,0.043-0.382,0.131-0.773,0.131
			c-0.654,0-1.09-0.316-1.09-1.123v-6.896c0-0.088,0.055-0.12,0.131-0.131l0.588-0.152h0.033c0.076,0,0.108,0.076,0.108,0.142v7.016
			c0,0.393,0.272,0.447,0.49,0.447c0.152,0,0.327-0.022,0.382-0.044h0.055c0.032,0,0.065,0.011,0.076,0.076l0.076,0.381
			C600.252,206.169,600.263,206.18,600.263,206.19z"/>
		<path fill="#FFFFFF" d="M609.796,206.321h-0.534c-0.108,0-0.174-0.065-0.174-0.163v-4.031c0-0.719-0.262-0.97-1.024-0.97
			c-1.014,0-2.048,0.305-2.048,0.305v4.696c0,0.108-0.044,0.163-0.153,0.163h-0.533c-0.099,0-0.164-0.065-0.164-0.163v-4.031
			c0-0.719-0.272-0.97-1.035-0.97c-1.013,0-2.037,0.305-2.037,0.305v4.696c0,0.098-0.055,0.163-0.152,0.163h-0.545
			c-0.098,0-0.163-0.065-0.163-0.163v-4.521c0-0.436,0.021-0.632,0.566-0.817c0.566-0.196,1.656-0.359,2.354-0.359
			c0.687,0,1.177,0.131,1.481,0.414c0.61-0.24,1.787-0.414,2.451-0.414c1.297,0,1.874,0.403,1.874,1.568v4.13
			C609.959,206.256,609.894,206.321,609.796,206.321z"/>
		<path fill="#FFFFFF" d="M611.874,207.771c-0.064,0.098-0.119,0.152-0.185,0.152c-0.033,0-0.065-0.021-0.109-0.055l-0.425-0.381
			c-0.021-0.022-0.032-0.055-0.032-0.088c0-0.021,0.011-0.043,0.021-0.064c0.817-1.308,1.111-3.116,1.111-4.675
			c0-1.558-0.294-3.355-1.111-4.662c-0.011-0.022-0.021-0.044-0.021-0.076c0-0.033,0.011-0.065,0.032-0.088l0.425-0.37
			c0.044-0.044,0.076-0.055,0.109-0.055c0.065,0,0.12,0.055,0.185,0.152c0.84,1.253,1.297,3.171,1.297,5.099
			C613.171,204.6,612.714,206.507,611.874,207.771z"/>
	</g>
</g>
<g>
	<g>
		<path fill="#FFFFFF" d="M549.436,232.754c0,0.152-0.119,0.271-0.272,0.271h-8.295c-0.152,0-0.271-0.119-0.271-0.271v-0.986
			c0-0.799,0.221-1.139,0.833-1.581c0.595-0.441,2.158-1.614,2.158-1.614c1.343-1.021,3.825-2.465,3.825-4.403
			c0-2.107-1.31-2.617-3.111-2.617c-1.836,0-3.025,0.408-3.604,0.561h-0.068c-0.102,0-0.203-0.051-0.237-0.204l-0.188-0.765v-0.051
			c0-0.119,0.119-0.188,0.204-0.221c0.255-0.103,1.768-0.63,4.029-0.63c2.549,0,4.487,0.952,4.487,3.995
			c0,2.21-2.006,3.604-3.858,4.93l-3.026,2.192v0.34h7.122c0.153,0,0.272,0.119,0.272,0.272V232.754z"/>
		<path fill="#FFFFFF" d="M554.022,226.719c-2.465,0-2.754-1.598-2.754-3.229s0.289-3.247,2.754-3.247
			c2.447,0,2.736,1.615,2.736,3.247S556.47,226.719,554.022,226.719z M554.006,221.212c-1.411,0-1.581,0.85-1.581,2.261
			c0,1.428,0.187,2.277,1.581,2.277c1.41,0,1.598-0.85,1.598-2.277C555.604,222.062,555.416,221.212,554.006,221.212z
			 M554.312,233.025c-0.018,0.034-0.068,0.051-0.119,0.051c-0.034,0-0.051,0-0.085-0.017l-0.561-0.392
			c-0.052-0.033-0.068-0.085-0.068-0.136c0-0.017,0.017-0.051,0.034-0.085l8.057-11.949c0.034-0.052,0.085-0.068,0.119-0.068
			s0.068,0.017,0.085,0.034l0.578,0.391c0.034,0.018,0.068,0.068,0.068,0.119c0,0.034-0.018,0.068-0.034,0.102L554.312,233.025z
			 M561.876,233.246c-2.465,0-2.754-1.598-2.754-3.229s0.289-3.247,2.754-3.247s2.753,1.615,2.753,3.247
			S564.341,233.246,561.876,233.246z M561.876,227.739c-1.411,0-1.599,0.85-1.599,2.277c0,1.411,0.188,2.261,1.599,2.261
			c1.41,0,1.598-0.85,1.598-2.261C563.474,228.589,563.286,227.739,561.876,227.739z"/>
		<path fill="#FFFFFF" d="M550.88,252.025h-0.9c-0.153,0-0.272-0.119-0.272-0.271v-5.576h-7.462v5.576
			c0,0.152-0.119,0.271-0.271,0.271h-0.901c-0.153,0-0.271-0.119-0.271-0.271v-12.12c0-0.136,0.085-0.188,0.203-0.221l1.021-0.171
			h0.051c0.119,0,0.17,0.119,0.17,0.222v5.389h7.462v-5.219c0-0.136,0.085-0.188,0.204-0.221l1.021-0.171h0.051
			c0.119,0,0.17,0.119,0.17,0.222v12.29C551.152,251.906,551.033,252.025,550.88,252.025z"/>
		<path fill="#FFFFFF" d="M561.777,240.772h-6.119v4.896h5.575c0.137,0,0.255,0.119,0.255,0.272v0.799
			c0,0.136-0.118,0.271-0.255,0.271h-5.575v4.743c0,0.152-0.119,0.271-0.271,0.271h-0.901c-0.153,0-0.271-0.119-0.271-0.271v-12.019
			c0-0.152,0.118-0.271,0.271-0.271h7.275c0.153,0,0.271,0.119,0.271,0.271v0.766C562.032,240.653,561.914,240.772,561.777,240.772z
			"/>
		<path fill="#FFFFFF" d="M565.165,253.104c0,0.033-0.011,0.065-0.032,0.088l-0.425,0.381c-0.033,0.033-0.077,0.055-0.109,0.055
			c-0.055,0-0.109-0.055-0.175-0.152c-0.85-1.264-1.307-3.171-1.307-5.109c0-1.929,0.457-3.847,1.307-5.1
			c0.065-0.098,0.12-0.152,0.175-0.152c0.032,0,0.076,0.011,0.109,0.055l0.425,0.37c0.021,0.022,0.032,0.055,0.032,0.088
			c0,0.032,0,0.054-0.021,0.076c-0.817,1.307-1.111,3.104-1.111,4.663c0,1.558,0.294,3.366,1.111,4.674
			C565.165,253.061,565.165,253.082,565.165,253.104z"/>
		<path fill="#FFFFFF" d="M570.263,251.852c-0.032,0.098-0.108,0.174-0.207,0.174h-1.361c-0.098,0-0.175-0.076-0.207-0.174
			l-2.691-7.692c-0.011-0.021-0.011-0.032-0.011-0.055c0-0.065,0.055-0.13,0.12-0.13h0.719c0.076,0,0.142,0.032,0.175,0.098
			l2.375,7.18h0.403l2.276-7.18c0.022-0.065,0.099-0.098,0.175-0.098h0.719c0.065,0,0.109,0.064,0.109,0.13v0.055L570.263,251.852z"
			/>
		<path fill="#FFFFFF" d="M577.199,252.167c-2.539,0-3.214-1.144-3.214-3.028v-5.056c0-0.087,0.054-0.12,0.13-0.142l0.654-0.109
			h0.032c0.076,0,0.109,0.077,0.109,0.143v5.24c0,1.351,0.403,2.124,2.288,2.124c1.536,0,2.287-0.522,2.287-1.929v-5.327
			c0-0.087,0.055-0.12,0.131-0.142l0.654-0.109h0.032c0.076,0,0.109,0.077,0.109,0.143v5.099
			C580.413,250.652,580.086,252.167,577.199,252.167z"/>
		<path fill="#FFFFFF" d="M587.983,251.535c0,0.055-0.032,0.131-0.174,0.174c-0.479,0.153-1.286,0.393-2.495,0.393
			c-2.691,0-3.432-1.471-3.432-4.118s0.74-4.107,3.432-4.107c1.209,0,2.016,0.24,2.495,0.393c0.142,0.043,0.174,0.119,0.174,0.174
			c0,0.033-0.011,0.065-0.011,0.065l-0.098,0.414c-0.022,0.109-0.077,0.142-0.142,0.142c-0.033,0-0.077-0.011-0.12-0.021
			c-0.523-0.142-1.329-0.338-2.244-0.338c-2.049,0-2.528,1.002-2.528,3.269c0,2.266,0.479,3.29,2.528,3.29
			c0.915,0,1.721-0.174,2.244-0.327c0.043-0.011,0.087-0.011,0.12-0.011c0.064,0,0.119,0.033,0.142,0.131l0.098,0.403
			C587.973,251.47,587.983,251.502,587.983,251.535z"/>
		<path fill="#FFFFFF" d="M589.616,253.475c-0.064,0.098-0.119,0.152-0.185,0.152c-0.033,0-0.065-0.021-0.109-0.055l-0.425-0.381
			c-0.021-0.022-0.032-0.055-0.032-0.088c0-0.021,0.011-0.043,0.021-0.064c0.817-1.308,1.111-3.116,1.111-4.674
			c0-1.559-0.294-3.356-1.111-4.663c-0.011-0.022-0.021-0.044-0.021-0.076c0-0.033,0.011-0.065,0.032-0.088l0.425-0.37
			c0.044-0.044,0.076-0.055,0.109-0.055c0.065,0,0.12,0.055,0.185,0.152c0.84,1.253,1.297,3.171,1.297,5.1
			C590.913,250.304,590.456,252.211,589.616,253.475z"/>
	</g>
</g>
<g>
	<g>
		<path fill="#FFFFFF" d="M496.118,270.35c0,0.152-0.136,0.271-0.271,0.271h-0.901c-0.152,0-0.271-0.119-0.271-0.271v-10.828
			l-1.972-0.137c-0.153-0.017-0.272-0.085-0.272-0.221v-0.629c0-0.152,0.119-0.204,0.272-0.221l3.229-0.477h0.017
			c0.068,0,0.17,0.103,0.17,0.171V270.35z"/>
		<path fill="#FFFFFF" d="M504.869,270.842c-4.726,0-5.27-3.213-5.27-6.493s0.544-6.511,5.27-6.511c4.709,0,5.27,3.23,5.27,6.511
			S509.578,270.842,504.869,270.842z M504.853,259.097c-3.264,0-3.706,1.972-3.706,5.235c0,3.28,0.442,5.252,3.706,5.252
			c3.28,0,3.739-1.972,3.739-5.252C508.592,261.051,508.133,259.097,504.853,259.097z"/>
		<path fill="#FFFFFF" d="M514.828,264.314c-2.465,0-2.754-1.598-2.754-3.229s0.289-3.247,2.754-3.247
			c2.447,0,2.736,1.615,2.736,3.247S517.275,264.314,514.828,264.314z M514.812,258.808c-1.411,0-1.581,0.85-1.581,2.261
			c0,1.428,0.187,2.277,1.581,2.277c1.41,0,1.598-0.85,1.598-2.277C516.409,259.657,516.222,258.808,514.812,258.808z
			 M515.117,270.621c-0.018,0.034-0.068,0.051-0.119,0.051c-0.034,0-0.051,0-0.085-0.017l-0.561-0.392
			c-0.052-0.033-0.068-0.085-0.068-0.136c0-0.017,0.017-0.051,0.034-0.085l8.057-11.949c0.034-0.052,0.085-0.068,0.119-0.068
			s0.068,0.017,0.085,0.034l0.578,0.391c0.034,0.018,0.068,0.068,0.068,0.119c0,0.034-0.018,0.068-0.034,0.102L515.117,270.621z
			 M522.682,270.842c-2.465,0-2.754-1.598-2.754-3.229s0.289-3.247,2.754-3.247s2.753,1.615,2.753,3.247
			S525.146,270.842,522.682,270.842z M522.682,265.335c-1.411,0-1.599,0.85-1.599,2.277c0,1.411,0.188,2.261,1.599,2.261
			c1.41,0,1.598-0.85,1.598-2.261C524.279,266.185,524.092,265.335,522.682,265.335z"/>
		<path fill="#FFFFFF" d="M503.699,289.621h-0.9c-0.153,0-0.272-0.119-0.272-0.271v-5.576h-7.462v5.576
			c0,0.152-0.119,0.271-0.271,0.271h-0.901c-0.153,0-0.271-0.119-0.271-0.271v-12.12c0-0.136,0.085-0.188,0.203-0.221l1.021-0.171
			h0.051c0.119,0,0.17,0.119,0.17,0.222v5.389h7.462v-5.219c0-0.136,0.085-0.188,0.204-0.221l1.021-0.171h0.051
			c0.119,0,0.17,0.119,0.17,0.222v12.29C503.972,289.502,503.853,289.621,503.699,289.621z"/>
		<path fill="#FFFFFF" d="M517.112,289.621h-0.9c-0.153,0-0.272-0.119-0.272-0.271v-5.576h-7.462v5.576
			c0,0.152-0.119,0.271-0.271,0.271h-0.901c-0.153,0-0.271-0.119-0.271-0.271v-12.12c0-0.136,0.085-0.188,0.203-0.221l1.021-0.171
			h0.051c0.119,0,0.17,0.119,0.17,0.222v5.389h7.462v-5.219c0-0.136,0.085-0.188,0.204-0.221l1.021-0.171h0.051
			c0.119,0,0.17,0.119,0.17,0.222v12.29C517.385,289.502,517.266,289.621,517.112,289.621z"/>
		<path fill="#FFFFFF" d="M530.151,289.417c0,0.103-0.086,0.204-0.188,0.204h-1.173c-0.102,0-0.204-0.068-0.238-0.119l-3.927-5.745
			l-4.011,5.745c-0.034,0.068-0.119,0.119-0.222,0.119h-1.258c-0.102,0-0.187-0.102-0.187-0.187c0-0.034,0.017-0.068,0.034-0.085
			l4.521-6.324l-4.012-5.677c-0.018-0.034-0.018-0.068-0.018-0.085c0-0.103,0.085-0.204,0.188-0.204h1.207
			c0.119,0,0.204,0.051,0.271,0.152l3.484,5.117l3.435-5.134c0.067-0.102,0.152-0.136,0.271-0.136h1.19
			c0.102,0,0.187,0.102,0.187,0.204c0,0.017,0,0.051-0.034,0.085l-3.909,5.677l4.368,6.307
			C530.151,289.366,530.151,289.383,530.151,289.417z"/>
	</g>
</g>
<g>
	<g>
		<path fill="#FFFFFF" d="M430.909,284.895c0,0.153-0.119,0.272-0.271,0.272h-1.581v2.872c0,0.153-0.136,0.272-0.272,0.272h-0.918
			c-0.136,0-0.271-0.119-0.271-0.272v-2.872h-6.697c-0.153,0-0.272-0.103-0.272-0.255v-0.918c0-0.051,0-0.153,0.052-0.221
			l5.677-7.922c0.034-0.051,0.119-0.102,0.17-0.102h2.261c0.153,0,0.272,0.119,0.272,0.271v7.87h1.581
			c0.152,0,0.271,0.137,0.271,0.272V284.895z M427.595,276.957h-0.51l-5.049,6.952h5.559V276.957z"/>
		<path fill="#FFFFFF" d="M434.922,282.005c-2.465,0-2.754-1.598-2.754-3.229s0.289-3.246,2.754-3.246
			c2.447,0,2.736,1.614,2.736,3.246S437.369,282.005,434.922,282.005z M434.905,276.498c-1.411,0-1.581,0.85-1.581,2.261
			c0,1.428,0.187,2.277,1.581,2.277c1.41,0,1.598-0.85,1.598-2.277C436.503,277.348,436.315,276.498,434.905,276.498z
			 M435.211,288.312c-0.018,0.034-0.068,0.051-0.119,0.051c-0.034,0-0.051,0-0.085-0.017l-0.561-0.392
			c-0.052-0.033-0.068-0.085-0.068-0.136c0-0.017,0.017-0.051,0.034-0.085l8.057-11.949c0.034-0.052,0.085-0.068,0.119-0.068
			s0.068,0.017,0.085,0.034l0.578,0.391c0.034,0.018,0.068,0.068,0.068,0.119c0,0.034-0.018,0.068-0.034,0.102L435.211,288.312z
			 M442.775,288.532c-2.465,0-2.754-1.598-2.754-3.229s0.289-3.246,2.754-3.246s2.753,1.614,2.753,3.246
			S445.24,288.532,442.775,288.532z M442.775,283.025c-1.411,0-1.599,0.85-1.599,2.277c0,1.411,0.188,2.261,1.599,2.261
			c1.41,0,1.598-0.85,1.598-2.261C444.373,283.875,444.186,283.025,442.775,283.025z"/>
		<path fill="#FFFFFF" d="M422.562,307.312h-0.9c-0.153,0-0.272-0.119-0.272-0.272v-5.575h-7.462v5.575
			c0,0.153-0.119,0.272-0.271,0.272h-0.901c-0.153,0-0.271-0.119-0.271-0.272V294.92c0-0.136,0.085-0.188,0.203-0.221l1.021-0.17
			h0.051c0.119,0,0.17,0.118,0.17,0.221v5.389h7.462v-5.219c0-0.136,0.085-0.188,0.204-0.221l1.021-0.17h0.051
			c0.119,0,0.17,0.118,0.17,0.221v12.289C422.835,307.192,422.716,307.312,422.562,307.312z"/>
		<path fill="#FFFFFF" d="M434.412,296.024h-4.131v11.015c0,0.153-0.118,0.272-0.271,0.272h-0.901c-0.152,0-0.271-0.119-0.271-0.272
			v-11.015h-4.131c-0.153,0-0.271-0.119-0.271-0.271v-0.731c0-0.152,0.118-0.271,0.271-0.271h9.706c0.153,0,0.272,0.119,0.272,0.271
			v0.731C434.685,295.905,434.565,296.024,434.412,296.024z"/>
		<path fill="#FFFFFF" d="M445.819,307.107c0,0.103-0.086,0.204-0.188,0.204h-1.173c-0.102,0-0.204-0.068-0.238-0.119l-3.927-5.745
			l-4.011,5.745c-0.034,0.068-0.119,0.119-0.222,0.119h-1.258c-0.102,0-0.187-0.102-0.187-0.187c0-0.034,0.017-0.068,0.034-0.086
			l4.521-6.323l-4.012-5.677c-0.018-0.034-0.018-0.068-0.018-0.085c0-0.103,0.085-0.204,0.188-0.204h1.207
			c0.119,0,0.204,0.051,0.271,0.152l3.484,5.117l3.435-5.134c0.067-0.102,0.152-0.136,0.271-0.136h1.19
			c0.102,0,0.187,0.102,0.187,0.204c0,0.017,0,0.051-0.034,0.085l-3.909,5.677l4.368,6.307
			C445.819,307.057,445.819,307.073,445.819,307.107z"/>
	</g>
</g>
<g>
	<g>
		<path fill="#FFFFFF" d="M253.703,102.815c0,0.153-0.119,0.272-0.271,0.272h-1.581v2.873c0,0.152-0.136,0.271-0.272,0.271h-0.918
			c-0.136,0-0.271-0.119-0.271-0.271v-2.873h-6.697c-0.153,0-0.272-0.103-0.272-0.255v-0.918c0-0.051,0-0.153,0.052-0.221
			l5.677-7.922c0.034-0.051,0.119-0.102,0.17-0.102h2.261c0.153,0,0.272,0.119,0.272,0.271v7.87h1.581
			c0.152,0,0.271,0.137,0.271,0.272V102.815z M250.389,94.878h-0.51l-5.049,6.952h5.559V94.878z"/>
		<path fill="#FFFFFF" d="M260.771,106.453c-3.399,0-5.049-1.189-5.049-3.654c0-2.006,1.649-2.72,2.822-2.788v-0.476
			c-0.307-0.068-2.601-0.136-2.601-2.686c0-2.669,2.431-3.4,4.827-3.4c2.414,0,4.845,0.731,4.845,3.4
			c0,2.55-2.295,2.635-2.601,2.702v0.477c1.173,0.067,2.821,0.765,2.821,2.771C265.837,105.264,264.188,106.453,260.771,106.453z
			 M260.755,100.419c-1.734,0-3.553,0.493-3.553,2.396c0,1.751,1.258,2.38,3.604,2.38s3.553-0.629,3.553-2.38
			C264.358,100.912,262.505,100.419,260.755,100.419z M260.806,94.708c-2.21,0-3.383,0.561-3.383,2.192
			c0,1.785,1.7,2.244,3.332,2.244c1.648,0,3.382-0.459,3.382-2.244C264.137,95.269,262.998,94.708,260.806,94.708z"/>
		<path fill="#FFFFFF" d="M270.543,99.926c-2.465,0-2.754-1.598-2.754-3.229s0.289-3.247,2.754-3.247
			c2.447,0,2.736,1.615,2.736,3.247S272.99,99.926,270.543,99.926z M270.526,94.419c-1.411,0-1.581,0.85-1.581,2.261
			c0,1.428,0.187,2.277,1.581,2.277c1.41,0,1.598-0.85,1.598-2.277C272.124,95.269,271.937,94.419,270.526,94.419z M270.832,106.232
			c-0.018,0.034-0.068,0.051-0.119,0.051c-0.034,0-0.051,0-0.085-0.017l-0.561-0.392c-0.052-0.033-0.068-0.085-0.068-0.136
			c0-0.017,0.017-0.051,0.034-0.085l8.057-11.949c0.034-0.052,0.085-0.068,0.119-0.068s0.068,0.017,0.085,0.034l0.578,0.391
			c0.034,0.018,0.068,0.068,0.068,0.119c0,0.034-0.018,0.068-0.034,0.102L270.832,106.232z M278.396,106.453
			c-2.465,0-2.754-1.598-2.754-3.229s0.289-3.247,2.754-3.247s2.753,1.615,2.753,3.247S280.861,106.453,278.396,106.453z
			 M278.396,100.946c-1.411,0-1.599,0.85-1.599,2.277c0,1.411,0.188,2.261,1.599,2.261c1.41,0,1.598-0.85,1.598-2.261
			C279.994,101.796,279.807,100.946,278.396,100.946z"/>
		<path fill="#FFFFFF" d="M217.1,125.232h-7.666c-0.153,0-0.271-0.119-0.271-0.271v-12.019c0-0.152,0.136-0.271,0.271-0.271h7.649
			c0.153,0,0.271,0.119,0.271,0.271v0.731c0,0.152-0.118,0.271-0.271,0.271h-6.477v4.08h6.238c0.153,0,0.255,0.119,0.255,0.271
			v0.748c0,0.153-0.102,0.272-0.255,0.272h-6.238v4.641h6.493c0.137,0,0.255,0.118,0.255,0.271v0.731
			C217.354,125.113,217.236,125.232,217.1,125.232z"/>
		<path fill="#FFFFFF" d="M223.815,117.277c-1.122,0-2.04,0.085-2.991,0.323v7.377c0,0.153-0.085,0.255-0.238,0.255h-0.85
			c0,0-0.256-0.102-0.256-0.255v-7.089c0-0.747,0.153-0.969,0.731-1.24c0.748-0.34,2.277-0.562,3.094-0.562h0.425
			c0.085,0,0.238,0.034,0.238,0.256v0.73C223.969,117.192,223.935,117.277,223.815,117.277z"/>
		<path fill="#FFFFFF" d="M232.468,125.232h-0.833c-0.152,0-0.255-0.102-0.255-0.255v-6.289c0-1.122-0.425-1.514-1.615-1.514
			c-1.58,0-3.178,0.477-3.178,0.477v7.326c0,0.153-0.086,0.255-0.238,0.255h-0.85c-0.153,0-0.256-0.102-0.256-0.255v-12.086
			c0-0.136,0.085-0.187,0.204-0.204l0.918-0.238h0.051c0.119,0,0.171,0.119,0.171,0.222v2.94l-0.171,0.986
			c0.936-0.272,2.397-0.511,3.383-0.511c2.023,0,2.924,0.629,2.924,2.448v6.442C232.723,125.131,232.638,125.232,232.468,125.232z"
			/>
		<path fill="#FFFFFF" d="M239.302,124.961c-0.051,0.17-0.188,0.271-0.34,0.271h-1.785c-0.17,0-0.306-0.102-0.356-0.271
			l-2.822-8.347c-0.017-0.034-0.017-0.068-0.017-0.085c0-0.119,0.067-0.221,0.17-0.221h1.02c0.17,0,0.221,0.102,0.255,0.221
			l2.414,7.717h0.442l2.176-7.717c0.033-0.119,0.118-0.221,0.288-0.221h1.055c0.118,0,0.203,0.085,0.203,0.204v0.051
			L239.302,124.961z"/>
		<path fill="#FFFFFF" d="M250.963,121.425c-0.017,0.085-0.136,0.221-0.221,0.221h-6.238c0,0.936,0.17,1.462,0.526,1.904
			c0.493,0.629,1.326,0.815,2.516,0.815c1.055,0,1.7-0.204,2.499-0.425c0.034-0.017,0.068-0.034,0.102-0.034
			c0.068,0,0.137,0.052,0.171,0.153l0.187,0.646v0.068c0,0.085-0.068,0.136-0.17,0.188c-0.68,0.271-1.802,0.492-2.924,0.492
			c-3.332,0-4.317-1.547-4.317-4.674c0-2.873,0.578-4.692,3.943-4.692c1.785,0,2.822,0.544,3.383,1.514
			c0.442,0.765,0.544,1.818,0.544,2.991V121.425z M249.348,118.604c-0.306-1.088-0.969-1.445-2.346-1.445
			c-1.359,0-2.022,0.357-2.312,1.445c-0.17,0.629-0.187,1.291-0.204,1.92l5.065-0.017
			C249.535,119.861,249.501,119.232,249.348,118.604z"/>
		<path fill="#FFFFFF" d="M257.321,117.277c-1.122,0-2.04,0.085-2.991,0.323v7.377c0,0.153-0.085,0.255-0.238,0.255h-0.85
			c0,0-0.256-0.102-0.256-0.255v-7.089c0-0.747,0.153-0.969,0.731-1.24c0.748-0.34,2.277-0.562,3.094-0.562h0.425
			c0.085,0,0.238,0.034,0.238,0.256v0.73C257.475,117.192,257.44,117.277,257.321,117.277z"/>
		<path fill="#FFFFFF" d="M263.54,124.961c-0.051,0.17-0.188,0.271-0.34,0.271h-1.785c-0.17,0-0.306-0.102-0.356-0.271l-2.822-8.347
			c-0.017-0.034-0.017-0.068-0.017-0.085c0-0.119,0.067-0.221,0.17-0.221h1.02c0.17,0,0.221,0.102,0.255,0.221l2.414,7.717h0.442
			l2.176-7.717c0.033-0.119,0.118-0.221,0.288-0.221h1.055c0.118,0,0.203,0.085,0.203,0.204v0.051L263.54,124.961z"/>
		<path fill="#FFFFFF" d="M270.492,125.453c-1.495,0-2.787-0.492-3.008-0.578c-0.068-0.033-0.137-0.067-0.137-0.17v-0.051
			l0.17-0.663c0.018-0.085,0.068-0.152,0.188-0.152h0.085c0.136,0.051,1.343,0.492,2.736,0.492c1.445,0,2.278-0.458,2.278-1.495
			c0-1.411-1.088-1.36-2.414-1.564c-0.833-0.136-2.958-0.289-2.958-2.532c0-2.193,1.955-2.652,3.451-2.652
			c1.462,0,2.584,0.307,2.771,0.357c0.119,0.017,0.17,0.102,0.17,0.187v0.034l-0.119,0.748c-0.017,0.103-0.085,0.136-0.152,0.136
			h-0.034c-0.238-0.017-1.496-0.322-2.499-0.322c-1.224,0-2.244,0.34-2.244,1.41c0,1.156,1.156,1.292,2.21,1.428
			c1.53,0.204,3.179,0.323,3.179,2.635C274.164,124.909,272.465,125.453,270.492,125.453z"/>
		<path fill="#FFFFFF" d="M280.369,121.221h-4.437c-0.152,0-0.255-0.102-0.255-0.255v-0.765c0-0.153,0.103-0.255,0.255-0.255h4.437
			c0.153,0,0.256,0.102,0.256,0.255v0.765C280.625,121.119,280.522,121.221,280.369,121.221z"/>
		<path fill="#FFFFFF" d="M251.708,144.453c-2.992,0-3.74-1.274-3.74-3.519v-5.405c0-0.136,0.085-0.187,0.222-0.221l0.918-0.222
			h0.051c0.119,0,0.153,0.119,0.153,0.222v5.762c0,1.599,0.561,2.312,2.396,2.312c2.21,0,2.38-1.088,2.38-2.363v-5.49
			c0-0.136,0.102-0.187,0.221-0.221l0.918-0.222h0.051c0.119,0,0.17,0.119,0.17,0.222v5.592
			C255.447,142.584,255.209,144.453,251.708,144.453z"/>
		<path fill="#FFFFFF" d="M263.947,144.113c-0.544,0.136-1.258,0.34-2.601,0.34c-3.298,0-4.062-1.495-4.062-4.691
			c0-3.264,0.9-4.675,3.961-4.675c1.173,0,2.022,0.188,2.601,0.341l-0.17-0.986v-2.55c0-0.136,0.085-0.187,0.221-0.204l0.918-0.238
			h0.051c0.119,0,0.153,0.119,0.153,0.222v11.1C265.019,143.399,265.019,143.875,263.947,144.113z M263.676,136.464
			c0,0-1.071-0.306-2.295-0.306c-1.87,0-2.703,0.595-2.703,3.621c0,3.229,0.986,3.604,2.72,3.604c1.258,0,2.278-0.323,2.278-0.323
			V136.464z"/>
		<path fill="#FFFFFF" d="M273.62,144.113c-0.544,0.136-1.258,0.34-2.601,0.34c-3.298,0-4.062-1.495-4.062-4.691
			c0-3.264,0.9-4.675,3.961-4.675c1.173,0,2.022,0.188,2.601,0.341l-0.17-0.986v-2.55c0-0.136,0.085-0.187,0.221-0.204l0.918-0.238
			h0.051c0.119,0,0.153,0.119,0.153,0.222v11.1C274.691,143.399,274.691,143.875,273.62,144.113z M273.349,136.464
			c0,0-1.071-0.306-2.295-0.306c-1.87,0-2.703,0.595-2.703,3.621c0,3.229,0.986,3.604,2.72,3.604c1.258,0,2.278-0.323,2.278-0.323
			V136.464z"/>
		<path fill="#FFFFFF" d="M279.417,144.232h-1.479c-0.152,0-0.255-0.102-0.255-0.255v-1.088c0-0.153,0.103-0.255,0.255-0.255h1.479
			c0.153,0,0.256,0.102,0.256,0.255v1.088C279.673,144.131,279.57,144.232,279.417,144.232z"/>
	</g>
</g>
<circle fill="#B9E2F7" cx="427.244" cy="128.917" r="125.893"/>
<pattern  id="SVGID_1_" xlink:href="#Unnamed_Pattern_9" patternTransform="matrix(0 -1.322 -1.322 0 3796.3228 -14651.123)">
</pattern>
<path fill="url(#SVGID_1_)" d="M302.452,117.474c-6.1,69.745,45.492,131.231,115.239,137.333l11.048-126.284V1.754
	C362.998,1.754,308.183,51.981,302.452,117.474z"/>
<path fill="#407CB0" stroke="#FFFFFF" stroke-width="1.2103" stroke-miterlimit="10" d="M427.519,127.764V2.023
	c69.445,0,125.74,56.295,125.74,125.74c0,11.874-1.211,21.072-4.284,32.543L427.519,127.764z"/>
<path fill="#368CC0" stroke="#FFFFFF" stroke-width="1.2103" stroke-miterlimit="10" d="M427.519,127.764l121.456,32.543
	c-4.35,16.233-10.921,29.706-21.035,43.129L427.519,127.764z"/>
<path fill="#69AFE0" stroke="#FFFFFF" stroke-width="1.2103" stroke-miterlimit="10" d="M427.519,128.131l100.421,75.672
	c-3.344,4.438-6.11,7.679-9.972,11.674L427.519,128.131z"/>
<path fill="#86C4EB" stroke="#FFFFFF" stroke-width="1.2103" stroke-miterlimit="10" d="M427.54,127.764l90.449,87.345
	c-19.488,20.181-40.986,31.613-68.615,36.485L427.54,127.764z"/>
<path fill="#A0D9F4" stroke="#FFFFFF" stroke-width="1.2103" stroke-miterlimit="10" d="M427.13,127.353l21.834,123.83
	c-11.01,1.94-21.654,2.406-32.793,1.43L427.13,127.353z"/>
<circle fill="none" stroke="#FFFFFF" stroke-width="3.631" stroke-miterlimit="10" cx="427.244" cy="127.707" r="125.893"/>
<path fill="#FFFFFF" d="M427.243,187.868c32.559,0,58.951-26.394,58.951-58.95s-26.393-58.951-58.951-58.951
	c-32.558,0-58.95,26.395-58.95,58.951S394.686,187.868,427.243,187.868"/>
<g>
</g>
<g>
</g>
<g>
</g>
<g>
</g>
<g>
</g>
<g>
</g>
</svg>
