<?xml version="1.0" encoding="utf-8"?>
<!-- Generator: Adobe Illustrator 16.0.4, SVG Export Plug-In . SVG Version: 6.00 Build 0)  -->
<!DOCTYPE svg PUBLIC "-//W3C//DTD SVG 1.1//EN" "http://www.w3.org/Graphics/SVG/1.1/DTD/svg11.dtd">
<svg version="1.1" id="Layer_1" xmlns="http://www.w3.org/2000/svg" xmlns:xlink="http://www.w3.org/1999/xlink" x="0px" y="0px"
	 width="878.529px" height="493.359px" viewBox="0 0 878.529 493.359" enable-background="new 0 0 878.529 493.359"
	 xml:space="preserve">
<path fill="#0CAAD5" d="M625.429,447.981c-0.261,1.012-0.513,1.992-0.759,2.954l0.8,0.733c-2.743,16.203-4.407,29.537-5.085,40.541
	h36.988c-0.015-20.409-1.363-39.017-1.363-39.017l3.849-3.369c-0.177-0.648-0.355-1.31-0.538-1.987l6.688-6.935
	c0.069,0.497,0.354,1.481,0.789,2.849l1.966-1.721c0,0-7.694-15.939-27.511-14.692c-19.824,1.248-24.35,16.48-24.35,16.48
	l0.997,0.914c0.425-1.847,0.704-3.114,0.771-3.628L625.429,447.981z"/>
<g>
	<path fill="#82CFF5" d="M628.998,395.423c-8.831,3.621-11.037-0.519-19.868,6.205c-7.726,5.69-15.452,17.067-16.004,26.894
		c11.588,0,20.419,1.034,28.144-8.794c4.968-6.205,9.936-18.1,6.624-24.305"/>
</g>
<path fill="#FFFFFF" d="M621.278,375.526c0.435,7.14,0.902,14.296,1.945,21.392c1.025,6.959,2.65,17.266,12.264,19.644
	c8.617,2.128,19.01-0.193,25.384-5.516c11.452-9.584,12.911-23.47,14.879-36.552c3.463-5.999,4.928-12.955,0.537-18.84
	c-6.117-8.183-18.192-12.335-29.506-11.331c-10.313,0.912-20.435,7.024-24.04,15.246
	C620.428,364.845,620.938,369.997,621.278,375.526z"/>
<path fill="none" stroke="#1E1E1C" stroke-width="1.4301" stroke-miterlimit="10" d="M655.335,378.533
	c0.008,1.713,0.881,3.097,1.953,3.092c1.07-0.005,1.935-1.398,1.92-3.111c-0.004-1.712-0.884-3.091-1.95-3.085
	C656.182,375.435,655.325,376.824,655.335,378.533z"/>
<path fill="none" stroke="#1E1E1C" stroke-width="1.4301" stroke-miterlimit="10" d="M634.082,377.507
	c0.01,1.713,0.885,3.095,1.956,3.092c1.072-0.005,1.93-1.398,1.922-3.11c-0.012-1.71-0.887-3.089-1.958-3.086
	S634.07,375.798,634.082,377.507z"/>
<g>
	<g>
		<path fill="#1E1E1C" d="M645.819,382.709c0.826,2.37,1.738,4.562,3.666,6.224c0.978,0.842,2.286,2.244,0.399,2.957
			c-1.033,0.39-2.278,0.234-3.311-0.052c-0.883-0.245-1.257,1.123-0.377,1.367c1.715,0.476,5.6,0.684,6.092-1.76
			c0.245-1.217-0.115-1.955-0.98-2.801c-0.639-0.624-1.358-1.155-1.988-1.791c-1.088-1.1-1.641-3.106-2.134-4.521
			C646.888,381.475,645.518,381.843,645.819,382.709L645.819,382.709z"/>
	</g>
</g>
<path fill="#FFFFFF" d="M634.866,428.886c1.838-6.135,1.23-12.884,6.31-18.503c5.611-6.202,6.479,13.015,6.486,13.151
	c0.207,3.776-0.995,4.384,4.414,4.406c4.721,0.012,0.702,6.144-0.935,7.059c-3.433,1.927-8.817,1.807-12.557,0.74
	C636.708,435.206,628.762,429.25,634.866,428.886C634.988,428.493,633.501,428.968,634.866,428.886z"/>
<g>
	<path fill="#82CFF5" d="M646.332,336.442c-2.208,22.238,13.797,42.925,35.32,50.684c-0.552-16.032,6.621-26.894-7.175-40.34
		c-7.726-8.275-19.867-11.895-31.457-10.344"/>
</g>
<g>
	<path fill="#82CFF5" d="M647.71,336.959c2.207,22.238-13.798,42.926-35.32,50.685c0.553-16.033-6.622-26.894,7.176-40.34
		c7.727-8.275,19.868-11.895,31.456-10.345"/>
</g>
<path fill="#FFFFFF" d="M626.72,333.212l-1.971-10.925c0,0,40.495-16.334,71.129,16.401l-6.178,11.264L626.72,333.212z"/>
<path fill="#82CFF5" d="M625.15,342.864c0,0,32.716-4.774,62.8,14.553l1.873-8.31c0,0-9.529-9.56-32.429-14.044
	c-22.899-4.48-30.744-1.879-30.744-1.879L625.15,342.864z"/>
<path fill="#1E1E1C" d="M684.05,354.209c-28.798-14.326-47.937-11.856-47.937-11.856s13.813,16.944,43.836,20.779l10.221,1.275
	l-2.22-6.99L684.05,354.209z"/>
<path fill="none" stroke="#1E1E1C" stroke-width="1.4181" stroke-miterlimit="10" d="M632.294,393.484c0,0,15.672,10.81,27.562,0.54
	"/>
<path fill="none" d="M625.47,451.669l-0.8-0.733c-6.275,24.437-8.285,33.059-8.346,41.274h4.061
	C621.062,481.206,622.727,467.872,625.47,451.669z"/>
<path fill="none" d="M659.858,449.824l-3.849,3.369c0,0,1.349,18.607,1.363,39.017h11.888
	C670.68,478.032,669.462,485.114,659.858,449.824z"/>
<path fill="#FFFFFF" d="M624.67,450.936l-6.771-6.203c-1.983,8.636-7.151,30.048-8.63,47.478h7.055
	C616.385,483.994,618.395,475.372,624.67,450.936z"/>
<path fill="#FFFFFF" d="M669.261,492.21h8.348c0.417-16.492-8.114-39.97-10.812-48.459l-6.938,6.073
	C669.462,485.114,670.68,478.032,669.261,492.21z"/>
<path fill="#0CAAD5" d="M625.429,447.981l-6.759-6.877c-0.066,0.514-0.346,1.781-0.771,3.628l6.771,6.203
	C624.916,449.974,625.168,448.993,625.429,447.981z"/>
<path fill="#0CAAD5" d="M659.32,447.837c0.183,0.678,0.361,1.339,0.538,1.987l6.938-6.073c-0.435-1.367-0.72-2.352-0.789-2.849
	L659.32,447.837z"/>
<g>
</g>
<g>
</g>
<g>
</g>
<g>
</g>
<g>
</g>
<g>
</g>
</svg>
