<?xml version="1.0" encoding="utf-8"?>
<!-- Generator: Adobe Illustrator 16.0.4, SVG Export Plug-In . SVG Version: 6.00 Build 0)  -->
<!DOCTYPE svg PUBLIC "-//W3C//DTD SVG 1.1//EN" "http://www.w3.org/Graphics/SVG/1.1/DTD/svg11.dtd">
<svg version="1.1" id="char4" xmlns="http://www.w3.org/2000/svg" xmlns:xlink="http://www.w3.org/1999/xlink" x="0px" y="0px"
	 width="2554.794px" height="1700.788px" viewBox="0 0 2554.794 1700.788" enable-background="new 0 0 2554.794 1700.788"
	 xml:space="preserve">
<g>
	<g>
		<path fill="#F4EDE1" d="M1818.338,685.048c-6.979-5.235-22.685-24.43-34.898-20.939c-24.43,6.979-15.704,48.858,6.979,54.094"/>
		<g>
			<path fill="#1D1B3A" d="M1819.88,683.506c-8.987-6.978-16.005-16.119-26.757-20.65c-9.184-3.869-18.994,1.577-23.482,9.802
				c-9.109,16.693,1.738,42.942,20.198,47.648c2.728,0.695,3.885-3.513,1.16-4.207c-15.895-4.052-24.389-25.93-17.987-40.434
				c3.925-8.894,13.191-11.706,21.558-7.347c8.632,4.497,14.657,12.396,22.227,18.271
				C1818.988,688.293,1822.101,685.229,1819.88,683.506L1819.88,683.506z"/>
		</g>
	</g>
	<g>
		<path fill="#F4EDE1" d="M1936.025,938.908c-3.489-19.195,3.49-69.8,1.745-71.545l5.234-33.153
			c22.685-3.489,47.114-26.175,62.818-41.879c26.175-24.43,27.919-38.39,8.725-69.798c-38.388-59.328-101.206-90.738-171.006-62.819
			c-47.113,19.194-69.798,71.544-54.093,118.657c6.979,26.175,22.685,43.625,41.878,62.819c13.961,13.96,40.136,15.703,52.35,27.918
			l-3.49,1.745c1.745,20.939,1.745,45.369,1.745,68.055"/>
		<g>
			<path fill="#1D1B3A" d="M1938.129,938.328c-1.958-11.438-0.857-23.583-0.15-35.088c0.65-10.603,1.828-21.189,2.227-31.805
				c0.042-1.136,0.075-2.284-0.049-3.416c-0.043-0.381-0.078-0.783-0.219-1.144c-0.698-1.787-0.206,1.97-0.012,0.736
				c0.529-3.349,1.058-6.696,1.586-10.045c1.199-7.593,2.397-15.186,3.597-22.777c-0.508,0.508-1.016,1.016-1.523,1.523
				c24.046-4.089,44.165-23.158,60.921-39.602c14.206-13.941,29.066-28.45,23.792-49.996c-2.792-11.406-9.515-22.1-16.135-31.621
				c-6.878-9.892-14.716-19.115-23.349-27.517c-16.291-15.854-35.991-28.155-57.731-34.927
				c-43.397-13.517-97.979-2.155-127.26,33.996c-29.618,36.568-26.576,88.736-0.337,126.236c4.819,6.889,10.38,13.244,16.108,19.384
				c5.865,6.288,11.689,12.723,19.089,17.221c13.654,8.301,31.67,9.884,43.451,21.162c0.146-1.142,0.294-2.283,0.441-3.426
				c-1.164,0.582-2.327,1.164-3.49,1.745c-0.634,0.317-1.138,1.173-1.08,1.884c1.827,22.63,1.744,45.367,1.744,68.055
				c0,2.813,4.363,2.813,4.363,0c-0.001-22.688,0.082-45.425-1.746-68.055c-0.359,0.628-0.72,1.256-1.08,1.884
				c1.164-0.582,2.327-1.164,3.49-1.745c1.252-0.626,1.412-2.497,0.441-3.426c-7.485-7.167-17.635-10.523-27.137-14.113
				c-5.472-2.067-10.882-4.245-16.021-7.055c-5.874-3.212-10.325-7.842-14.952-12.583c-9.223-9.449-17.931-19.4-24.812-30.713
				c-6.693-11.005-10.928-23.504-13.65-36.052c-4.928-22.71-0.56-46.808,11.053-66.802c12.526-21.57,33.037-35.365,56.488-42.695
				c23.555-7.362,48.694-7.91,72.425-1.088c23.048,6.625,43.431,20.365,60.211,37.26c9.007,9.068,16.866,19.215,23.841,29.908
				c6.16,9.444,12.228,20.799,12.578,32.312c0.321,10.552-6.262,19.503-13.025,26.929c-8.408,9.233-17.859,17.911-27.364,26.001
				c-12.163,10.352-26.352,20.499-42.428,23.231c-0.667,0.113-1.417,0.851-1.523,1.523c-1.198,7.593-2.397,15.186-3.596,22.777
				c-0.96,6.08-1.294,10.507-1.486,15.632c-0.833,22.199-5.684,45.328-1.897,67.449
				C1934.396,942.256,1938.6,941.079,1938.129,938.328L1938.129,938.328z"/>
		</g>
	</g>
	<g>
		<g>
			<path fill="#1D1B3A" d="M1845.157,678.588c-3.998,3.362-10.352,11.204-16.228,9.889c0.343,0.604,0.686,1.207,1.028,1.811
				c0.547-3.878,3.312-7.721,5.761-10.639c1.271-1.514,2.822-3.12,4.717-3.812c2.357-0.861,3.11,2.366,3.501,3.999
				c0.442,1.846,3.279,1.062,2.838-0.781c-1.36-5.68-5.597-8.177-10.448-4.136c-4.049,3.372-8.448,9.22-9.206,14.585
				c-0.107,0.762,0.173,1.619,1.028,1.811c7.388,1.653,14.082-6.435,19.089-10.646
				C1848.691,679.446,1846.599,677.375,1845.157,678.588L1845.157,678.588z"/>
		</g>
	</g>
	<g>
		<path fill="#EFEA77" d="M2018.038,736.492c22.685-40.134,5.235-111.677-36.645-134.36c-55.839-26.176-12.214,47.113-6.979,68.052
			c-20.94-17.449-36.645-48.857-61.073-59.328c-19.195,24.43,10.469,75.034,31.408,88.993
			c-19.195-12.215-34.898-33.155-55.839-38.389c-13.959,29.663,13.96,59.327,31.41,80.268c-6.979-6.98-31.41-24.43-41.879-20.94
			c-8.726,1.746-11.486,23.499-19.194,29.665c-8.726,6.979,19.194,3.489,20.356,15.705c1.165,12.214-16.85,12.668-20.938,12.214
			c-5.233-0.581,16.868,129.127,47.694,66.308c-24.429,33.155,26.176,41.879,29.665,3.49c-1.744,6.981,0,12.215-1.744,19.194
			c52.348-24.428,151.811-94.228,88.992-137.852"/>
		<g>
			<path fill="#1D1B3A" d="M2019.922,737.592c19.215-34.696,10.653-82.672-11.638-113.887
				c-9.958-13.945-25.451-27.273-43.167-29.174c-11.524-1.236-15.092,7.644-13.625,17.671c3.04,20.789,15.631,38.486,20.819,58.561
				c1.216-0.708,2.431-1.415,3.646-2.122c-21.6-18.312-34.753-47.75-61.515-59.67c-1.189-0.529-2.206-0.249-2.984,0.783
				c-10.784,14.303-6.37,34.297,0.142,49.433c6.869,15.969,17.457,32.574,32.05,42.545c0.733-1.256,1.468-2.512,2.201-3.768
				c-18.965-12.305-33.762-32.555-56.359-38.608c-0.867-0.232-2.067,0.119-2.464,1.003c-14.126,31.533,12.947,60.406,31.752,82.91
				c1.027-1.028,2.057-2.056,3.084-3.084c-6.194-6.067-13.653-11.075-21.155-15.356c-6.429-3.668-15.213-8.3-22.846-6.146
				c-7.622,2.151-10.374,12.055-13.107,18.495c-1.662,3.915-3.386,8.114-6.418,11.182c-1.499,1.517-3.641,3.039-2.753,5.501
				c1.567,4.35,10.741,4.771,14.389,5.97c3.148,1.034,6.541,2.674,7.416,6.131c1.338,5.294-4.079,8.175-8.204,9.343
				c-3.1,0.878-6.421,1.091-9.629,0.955c-1.321-0.056-2.591,0.043-3.223,1.414c-1.104,2.398-0.62,5.61-0.421,8.141
				c1.648,20.958,6.943,43.54,16.331,62.391c3.312,6.648,8.33,14.823,16.419,15.797c9.596,1.155,16.15-11.326,19.582-18.223
				c1.268-2.548-2.137-4.47-3.768-2.201c-4.438,6.173-8.339,13.821-6.381,21.611c1.41,5.61,6.58,9.227,12.048,10.167
				c16.319,2.807,26.576-13.016,28.063-27.188c0.258-2.457-3.78-2.965-4.285-0.58c-1.347,6.362-0.4,12.851-1.744,19.194
				c-0.415,1.96,1.453,3.285,3.204,2.464c39.849-18.692,158.824-92.271,88.992-141.619c-2.303-1.627-4.479,2.158-2.201,3.768
				c12.006,8.484,20.85,20.676,18.713,35.975c-2.097,15.008-12.4,28.126-22.426,38.846c-23.474,25.099-54.308,44.735-85.279,59.264
				c1.067,0.821,2.136,1.643,3.204,2.464c1.347-6.362,0.4-12.851,1.744-19.194c-1.429-0.193-2.856-0.387-4.285-0.58
				c-1.244,11.863-9.135,24.245-22.488,22.986c-4.173-0.394-7.818-3.115-9.053-7.125c-1.958-6.358,2.419-13.352,5.941-18.251
				c-1.256-0.733-2.512-1.468-3.768-2.201c-3.372,6.776-11.11,21.491-20.373,13.827c-8.386-6.937-12.16-19.948-15.254-29.896
				c-3.685-11.847-6.408-24.129-8.011-36.435c-0.461-3.537-0.94-7.196-0.716-10.771c0.038-0.601-0.028-0.223,0.148-0.816
				c-0.379,1.275-2.634,1.056-0.17,1.159c3.425,0.145,6.923-0.318,10.242-1.134c9.104-2.236,16.434-13.131,7.523-20.459
				c-3.649-3.001-8.637-4.085-13.11-5.2c-1.753-0.438-3.682-0.774-5.248-1.715c0.923,0.554-0.184,1.104,1.281-0.144
				c1.042-0.886,1.958-1.903,2.742-3.024c3.624-5.186,5.609-11.334,8.204-17.054c2.663-5.872,5.662-10.352,12.689-9.111
				c6.971,1.229,13.54,5.284,19.428,9.012c5.273,3.338,10.458,7.077,14.926,11.453c2.042,2.001,4.861-0.958,3.084-3.084
				c-17.221-20.609-44.136-48.456-31.068-77.625c-0.821,0.335-1.643,0.669-2.464,1.003c22.065,5.91,36.748,26.12,55.318,38.169
				c2.379,1.543,4.5-2.196,2.201-3.768c-13.292-9.081-22.844-24.227-29.443-38.6c-6.563-14.293-11.531-33.683-1.182-47.409
				c-0.995,0.261-1.99,0.521-2.984,0.783c26.34,11.731,39.346,40.942,60.632,58.986c1.618,1.373,4.221,0.104,3.646-2.122
				c-3.192-12.348-9.541-23.989-14.136-35.851c-2.51-6.48-4.829-13.095-6.214-19.917c-0.814-4.018-1.857-10.119,1.305-13.439
				c3.861-4.055,12.508-0.53,16.654,0.993c9.693,3.561,17.768,9.91,24.688,17.474c14.371,15.706,22.446,36.808,25.724,57.594
				c3.105,19.689,1.399,41.268-8.385,58.935C2014.791,737.854,2018.559,740.053,2019.922,737.592L2019.922,737.592z"/>
		</g>
	</g>
	<g>
		<path fill="#F4EDE1" d="M1857.233,740.498c24.895-39.846,49.673,50.14-6.418,41.457"/>
		<g>
			<path fill="#1D1B3A" d="M1859.117,741.598c3-4.704,8.495-11.706,14.771-8.117c5.42,3.098,7.652,10.951,8.405,16.677
				c0.994,7.554-0.301,15.523-4.813,21.778c-5.895,8.169-16.889,9.25-26.085,7.915c-2.751-0.399-3.936,3.804-1.16,4.207
				c11.016,1.599,22.88,0.196,30.289-8.979c5.814-7.199,7.296-17.168,5.973-26.118c-1.075-7.278-4.179-16.036-11.148-19.651
				c-8.413-4.364-15.871,3.614-19.999,10.088C1853.833,741.776,1857.609,743.962,1859.117,741.598L1859.117,741.598z"/>
		</g>
	</g>
	<g>
		<path fill="#58566D" d="M1846.344,1270.938"/>
		<g>
			<path fill="#1D1B3A" d="M1846.344,1273.194c2.91,0,2.91-4.512,0-4.512S1843.434,1273.194,1846.344,1273.194L1846.344,1273.194z"
				/>
		</g>
	</g>
	<g>
		<path fill="#58566D" d="M1981.28,1009.465c8.399,14.127,30.184,29.393,31.713,53.883c1.999,32.008-19.884,80.845-19.884,80.845
			s22.508,31.375,36.884,19.155c20-17,30.556-61.553,33-86c2.444-24.446-23.663-126.233-77.922-174.365
			c-26.698-23.684-110.333-11.86-130.571-8.369c0,0-60.967,2.285-35.414,95.651c17.148,62.657,2.637,226.14,2.637,226.14
			s175.969,21.33,163.526-12.442c-24.885-67.544-3.369-235.735-3.369-235.735"/>
		<g>
			<path fill="#1D1B3A" d="M1979.332,1010.604c5.013,8.188,12.017,15.006,17.979,22.48c7.615,9.546,13.102,20.275,13.531,32.664
				c0.74,21.346-6.621,43.28-13.955,63.05c-1.769,4.769-3.628,9.517-5.688,14.168c-1.371,3.099,4.138,7.667,5.901,9.646
				c5.054,5.669,11.153,11.479,18.327,14.308c7.719,3.044,13.722,0.745,19.32-4.968c14.736-15.036,21.42-38.186,26.054-58.122
				c3.315-14.264,5.571-28.232,3.551-42.784c-5.249-37.799-19.594-75.556-38.201-108.699c-10.531-18.757-23.407-36.562-39.485-50.96
				c-12.271-10.986-31.041-13.255-46.762-14.465c-29.229-2.25-58.457,2.218-86.937,5.574c-17.463,2.058-31.547,13.948-37.948,30.121
				c-6.72,16.978-4.899,36.536-1.494,54.013c1.808,9.279,4.656,18.297,6.331,27.608c1.513,8.413,2.454,16.924,3.201,25.436
				c3.446,39.296,2.438,79.045,0.729,118.405c-0.987,22.727-2.327,45.462-4.303,68.126c-0.006,0.066-0.012,0.133-0.018,0.199
				c-0.118,1.331,1.124,2.119,2.256,2.256c18.017,2.18,36.13,3.717,54.235,4.917c28.914,1.915,59.012,3.833,87.75-0.922
				c7.742-1.281,17.879-3.209,22.776-10.053c1.841-2.573,1.987-5.93,1.071-8.866c-2.262-7.243-4.454-14.345-5.963-21.803
				c-7.755-38.348-6.855-78.711-5.259-117.604c1.317-32.076,3.735-64.247,7.802-96.103c0.368-2.881-4.148-2.846-4.512,0
				c-2.584,20.244-4.342,40.617-5.801,60.968c-2.831,39.462-4.291,79.317-1.211,118.808c1.332,17.083,3.532,34.359,8.522,50.799
				c0.998,3.287,3.691,7.528,1.809,10.961c-1.557,2.84-5.18,4.381-8.047,5.457c-11.025,4.139-23.529,4.71-35.165,5.233
				c-15.4,0.692-30.851,0.307-46.243-0.398c-23.959-1.097-47.951-3.024-71.766-5.905c0.752,0.752,1.504,1.504,2.256,2.256
				c1.853-20.908,3.081-41.886,4.072-62.85c1.861-39.38,2.827-79.037-0.04-118.392c-1.204-16.52-3.429-32.765-7.625-48.794
				c-5.048-19.281-8.218-40.887-1.846-60.255c5.147-15.646,19.561-27.868,35.458-29.212c11.493-0.971,22.928-3.346,34.445-4.416
				c19.784-1.837,39.898-2.582,59.672-0.26c8.944,1.051,18.065,2.927,26.305,6.659c8.338,3.777,14.68,10.659,20.746,17.324
				c15.079,16.565,26.695,36.177,36.384,56.28c9.116,18.918,16.361,38.776,21.922,59.02c3.722,13.55,7.268,27.854,7.422,41.988
				c0.087,7.993-1.736,16.182-3.318,23.973c-2.274,11.197-5.405,22.24-9.496,32.91c-3.905,10.183-9.021,20.356-16.521,28.381
				c-2.958,3.165-5.931,5.394-10.413,5.09c-4.306-0.292-8.541-3.259-11.83-5.812c-5.384-4.18-10.268-9.456-14.258-14.985
				c0,0.759,0,1.519,0,2.277c8.807-19.715,15.816-40.925,19.055-62.287c2.228-14.688,1.575-28.566-5.76-41.776
				c-6.771-12.197-17.892-21.126-25.124-32.941C1981.712,1005.85,1977.809,1008.116,1979.332,1010.604L1979.332,1010.604z"/>
		</g>
	</g>
	<g>
		<path fill="#58566D" d="M1849.437,988.417c0,0-47.136,50.904-44.643,78.331c3.252,35.771,40,69,40,69s-16.644,29.667-44,37
			c-4.932,1.322-52.821-71.614-52.821-114.311c0-29.483,44.737-96.297,66.943-133.307"/>
		<g>
			<path fill="#1D1B3A" d="M1847.841,986.822c-6.886,7.45-13.261,15.409-19.355,23.512c-10.095,13.419-20.282,28.281-24.694,44.688
				c-4.89,18.185,5.036,37.947,14.687,52.83c6.913,10.662,15.291,20.928,24.721,29.491c-0.117-0.912-0.234-1.823-0.353-2.734
				c-7.32,12.948-18.777,24.548-31.801,31.653c-2.618,1.429-5.377,2.553-8.194,3.519c-0.686,0.234-3.779,0.335-1.862,0.767
				c0.484,0.109-0.069-0.071-0.2-0.156c-1.395-0.899-2.629-2.604-3.708-3.897c-4.494-5.387-8.318-11.38-12.04-17.312
				c-10.857-17.309-20.278-35.765-27.228-54.991c-6.113-16.916-10.017-34.001-4.615-51.545
				c6.378-20.719,17.781-40.087,28.617-58.723c11.307-19.446,23.463-38.377,35.05-57.654c1.503-2.5-2.399-4.768-3.896-2.277
				c-11.339,18.867-23.196,37.415-34.323,56.41c-10.877,18.567-21.706,37.668-28.814,58.055c-2.466,7.072-4.269,14.429-4.08,21.957
				c0.228,9.091,2.388,18.136,4.996,26.802c5.884,19.55,15.112,38.201,25.321,55.819c4.835,8.344,10.001,16.577,15.893,24.222
				c2.685,3.482,5.805,8.694,10.771,7.288c18.451-5.224,34.714-21.213,44.012-37.658c0.481-0.853,0.4-2.05-0.353-2.734
				c-8.858-8.043-16.604-17.578-23.279-27.465c-9.999-14.808-19.689-34.153-14.453-52.314c4.5-15.607,14.727-29.803,24.371-42.623
				c5.646-7.504,11.627-14.838,18.004-21.738C1853.003,987.878,1849.82,984.68,1847.841,986.822L1847.841,986.822z"/>
		</g>
	</g>
	<path fill="#1D1B3A" stroke="#1D1B3A" stroke-width="1.1684" stroke-miterlimit="10" d="M2017.383,1622.601
		c0,0-20.232-84.526-25.168-184.658c-3.237-65.682,7.172-187.664-7.814-226.839c-10.336,6.683-24.584,9.712-37.451,9.66
		c-10.104,1.148-20.288,1.328-30.459,1.055c-14.188-0.382-28.391-1.079-42.562-1.817c-13.95-0.727-28.018-1.854-41.627-5.101
		c32.734,362.938,44.241,396.804,40.587,394.351c-104.772-70.302-104.373,2.075,13.497,56.911
		c37.084,17.252,23.282-30.934,23.282-30.934l20.373,1.407c0,0-0.042-0.637-0.119-1.842c11.263,7.249,24.385,14.536,39.409,21.525
		c37.084,17.252,23.282-30.934,23.282-30.934L2017.383,1622.601z M1920.438,1294.02l-1.865-1.544
		C1919.193,1292.705,1919.816,1293.227,1920.438,1294.02z M1950.379,1593.333c-10.366-6.956-15.276-7.149-23.554-11.454
		c-4.357-80.419-10.82-226.953-3.671-282.701C1925.277,1332.755,1953.866,1595.673,1950.379,1593.333z"/>
	<g>
		<path fill="#F4EDE1" d="M1805.301,1172.519c-6.854,14.867,2.972,28.516,15.556,42.47c8.848,9.812,33.929-2.727,45.441-7.877
			c1.749-0.782,3.586-4.896,6.362-9.392c1.564-4.21,3.221-18.655-3.778-26.6c-5.354-6.077-13.701-3.803-19.377-8.86
			c-2.249-1.389,1.297,0.149,5.826,0.358c2.428-0.22,5.856-0.506,9.082-1.194c-0.952,0.052-1.95-0.24-2.854-1.02
			c-0.042-0.036-0.085-0.07-0.127-0.106c-1.234,0.832-21.462-9.715-22.824-10.59"/>
		<g>
			<path fill="#1D1B3A" d="M1803.417,1171.418c-7.422,17.46,4.701,32.609,15.897,45.112c8.477,9.467,26.086,1.901,35.402-1.924
				c4.341-1.782,11.933-3.645,14.806-7.56c4.29-5.843,6.404-11.069,6.681-18.221c0.267-6.897-1.388-13.843-5.779-19.248
				c-2.274-2.8-5.88-4.133-9.233-5.056c-2.889-0.795-9.253-1.749-10.478-3.923c-0.628,1.094-1.256,2.188-1.884,3.282
				c2.132,0.046,4.351,0.744,6.502,0.918c3.035,0.244,6.683-0.7,9.662-1.272c2.037-0.392,2.143-3.913,0-4.207
				c-4.169-0.571-7.876-2.689-12.443-4.888c-4.309-2.074-8.746-4.127-12.841-6.608c-2.412-1.461-4.604,2.312-2.201,3.768
				c4.098,2.482,8.537,4.515,12.84,6.607c2.772,1.349,8.35,5.164,11.665,4.202c-0.708-0.188-1.415-0.374-2.122-0.562
				c1.271,1.066,2.348,1.469,3.942,1.688c0-1.402,0-2.805,0-4.207c-2.819,0.542-5.646,0.858-8.502,1.116
				c-2.204,0.2-4.322-0.87-6.502-0.917c-1.684-0.036-2.678,1.871-1.883,3.282c2.017,3.58,8.223,4.769,11.788,5.609
				c8.233,1.941,11.929,7.38,12.923,15.546c0.557,4.564,0.547,10.285-1.879,14.324c-1.8,2.995-2.957,6.208-6.272,7.71
				c-2.347,1.063-4.689,2.132-7.048,3.169c-8.672,3.813-23.133,10.925-32.422,5.683c-2.596-1.466-4.605-4.734-6.491-6.966
				c-2.843-3.365-5.414-6.916-7.69-10.686c-4.408-7.298-6.084-15.541-2.67-23.572
				C1808.271,1171.062,1804.515,1168.836,1803.417,1171.418L1803.417,1171.418z"/>
		</g>
	</g>
	<g>
		<g>
			<path fill="#1D1B3A" d="M1861.668,1192.202c-2.098-3.843-3.132-8.386-4.515-12.522c-1.126-3.367-4.582-4.247-7.732-4.919
				c-4.161-0.888-8.937-0.769-12.836-2.603c-1.289-0.606-1.789-1.76-3.334-2.176c-1.764-0.475-3.815,0.019-5.504,0.542
				c-1.556,0.481-2.896,1.382-4.086,2.468c-0.522,0.476-0.882,1.172-1.174,1.799c-0.514,1.099-0.91,1.761,0.097,1.393
				c-4.294,1.571-9.098,1.843-12.714,4.987c-2.984,2.596-2.471,4.757,0.03,7.52c1.495,1.651,3.405,2.976,5.156,4.336
				c0.728,0.564,1.445,1.138,2.156,1.724c0.392,0.325,0.769,0.666,1.132,1.022c0.582,0.851,0.801,0.489,0.656-1.083
				c-2.192,1.92,1.012,5.099,3.191,3.189c5.156-4.517-9.546-10.513-10.149-14.143c-0.193,0.731-0.388,1.463-0.581,2.195
				c2.384-2.648,5.643-3.637,8.985-4.521c1.831-0.484,4.078-0.704,5.5-2.083c0.427-0.413,0.766-1.219,0.698-1.833
				c-0.205-1.887,1.745-2.448,3.214-2.903c2.611-0.809,3.401,1.158,5.63,1.991c5.252,1.964,11.252,1.328,16.399,3.552
				c1.774,0.767,2.257,4.825,2.811,6.482c0.884,2.645,1.731,5.405,3.072,7.862
				C1859.166,1197.033,1863.062,1194.756,1861.668,1192.202L1861.668,1192.202z"/>
		</g>
	</g>
	<g>
		<path fill="#F4EDE1" d="M1822.373,1180.167c4.169,2.085,8.338,4.169,11.812,6.948c6.253,3.474,3.474,5.559,5.559,10.422"/>
		<g>
			<path fill="#1D1B3A" d="M1821.272,1182.05c4.779,2.394,9.598,4.925,13.808,8.247c2.129,1.68,1.639,5.446,2.56,7.819
				c1.007,2.593,5.226,1.467,4.207-1.16c-1.249-3.218-0.775-6.477-3.137-9.229c-1.621-1.889-4.364-3.269-6.407-4.63
				c-2.787-1.855-5.842-3.319-8.829-4.815C1820.967,1177.027,1818.756,1180.791,1821.272,1182.05L1821.272,1182.05z"/>
		</g>
	</g>
	<g>
		<g>
			<path fill="#1D1B3A" d="M1840.718,1173.53c-0.116-1.286-0.576-2.421-1.95-2.799c-0.765-0.21-1.562-0.029-2.316,0.111
				c-2.252,0.422-0.742,0.966-0.819-0.92c-0.095-2.335,0.037-2.622,2.453-2.925c1.347-0.169,2.625-0.57,3.912-0.984
				c3.311-1.063,6.46-2.518,9.832-3.4c3.309-0.865,7.454,0.396,10.736,1.007c5.089,0.944,8.147,2.761,9.548,7.81
				c1.763,6.356,1.83,16.98-1.098,22.835c-1.254,2.508,2.509,4.718,3.768,2.201c3.707-7.414,3.271-18.23,1.536-26.196
				c-2.1-9.645-13.125-12.343-21.876-12.293c-4.353,0.024-8.39,1.916-12.4,3.406c-2.994,1.112-7.644,0.831-9.75,3.476
				c-1.579,1.981-1.527,6.569-0.634,8.76c1.324,3.245,4.81,0.673,5.733,1.312c-0.36-0.628-0.721-1.256-1.08-1.884
				c0.015,0.161,0.028,0.323,0.044,0.484C1836.607,1176.308,1840.972,1176.333,1840.718,1173.53L1840.718,1173.53z"/>
		</g>
	</g>
	<g>
		<path fill="#F4EDE1" d="M1832.804,1152.11c1.189-1.638,5.239-5.735,6.22-7.327c4.62-1.796,9.462-4.627,12.505-5.845
			c4.118-2.059,9.266-4.118,13.898-4.633c4.118,5.147,7.207,12.354,12.869,15.957c-2.574,3.604-5.662,5.663-6.692,10.295
			c-1.029,2.574,0,8.751-1.544,10.811c-3.604,5.662-12.354,4.633-13.898,0c-1.545-4.118-5.147-13.384-4.117-18.017
			c0.174-0.24-3.629,6.164-3.629,6.164"/>
		<g>
			<path fill="#1D1B3A" d="M1834.346,1153.652c1.389-1.77,2.946-3.4,4.437-5.084c1.917-2.166,3.25-2.665,5.961-3.944
				c6.919-3.266,13.578-7.1,21.264-8.215c-0.821-0.334-1.643-0.669-2.464-1.003c4.438,5.79,7.54,12.449,13.652,16.74
				c-0.261-0.995-0.522-1.99-0.783-2.984c-2.388,3.143-4.944,5.682-6.496,9.361c-1.551,3.678,0.076,8.333-1.74,11.744
				c-1.388,2.607-4.754,3.096-7.309,2.526c-2.477-0.553-2.977-2.984-3.724-5.016c-1.533-4.175-3.667-9.327-2.996-13.847
				c0.333-2.246-2.801-4.09-3.987-1.681c-1.046,2.123-2.421,4.129-3.629,6.164c-1.439,2.425,2.333,4.617,3.768,2.201
				c1.208-2.035,2.583-4.041,3.629-6.164c-1.329-0.56-2.658-1.12-3.987-1.681c-0.875,5.895,1.402,11.825,3.405,17.278
				c1.66,4.518,4.043,6.851,8.992,7.36c4.561,0.47,9.257-2.803,10.479-7.13c0.838-2.964,0.034-6.177,0.89-9.143
				c1.134-3.933,4.062-6.604,6.473-9.774c0.762-1.003,0.097-2.367-0.783-2.984c-5.395-3.787-8.168-10.062-12.086-15.174
				c-0.666-0.869-1.377-1.16-2.464-1.003c-6.888,1-13.199,4.114-19.365,7.2c-2.384,1.193-6.817,2.106-8.342,4.28
				c-1.731,2.47-4.018,4.514-5.878,6.886C1829.546,1152.754,1832.611,1155.865,1834.346,1153.652L1834.346,1153.652z"/>
		</g>
	</g>
	<g>
		<path fill="#F4EDE1" d="M2022.137,1171.045c0.506-0.616,0.956-1.271,1.383-1.94c-11.863-2.33-22.11-9.602-25.641-20.729
			c-4.228,1.952-8.541,2.089-12.486-2.617c-2.304-2.746-4.03-5.397-7.944-4.532c-3.877,0.857-8.032,7.016-10.204,9.917
			c-2.426,3.238-7.39,5.736-9.044,9.448c-1.917,4.303,0.372,7.929,2.018,12.014c0.815,2.024,1.548,4.007,2.414,5.903
			c-0.896,0.66-1.7,1.449-2.307,2.534c-1.901,3.406,1.174,10.088,2.341,13.349c0.634,1.769,1.725,3.625,3.203,4.953
			c0.201,1.011,0.549,1.919,1.092,2.652c2.438,3.297,5.808,2.212,8.623-0.061c0.528-0.428,1.096-0.924,1.669-1.474
			c1.013,1.487,2.401,2.677,4.224,3.266c2.848,0.919,4.738,0.352,7.482-0.766c1.097-0.446,1.933-1.405,2.73-2.347
			c0.477,2.564,1.288,5.212,3.334,6.115c4.549,2.013,8.133,1.479,12.768,0.042c8.773-2.717,16.154-7.833,16.167-17.84
			C2023.966,1183.549,2018.475,1175.504,2022.137,1171.045z"/>
		<g>
			<g>
				<path fill="#1D1B3A" d="M1981.435,1174.852c2.429-0.375,4.398-1.527,6.291-3.072c3.124-2.551,7.065-6.347,8.651-0.16
					c0.521,2.032,2.799,6.014,1.818,8.051c-1.786,3.712-7.778,6.727-11.055,8.933c-3.21,2.161-16.47,14.712-20.145,11.504
					c-2.611-2.279-4.734-7.175-6.016-10.273c-1.959-4.732,0.908-5.39,4.662-6.938c2.821-1.165,1.586-5.814-1.277-4.633
					c-2.889,1.193-7.818,2.394-8.607,6.04c-1.318,6.085,2.865,11.346,5.734,16.283c6.457,11.109,18.577-1.222,25.273-5.935
					c4.92-3.463,11.31-6.732,14.939-11.686c3.035-4.14,0.4-8.229-0.696-12.622c-1.04-4.162-2.772-6.981-7.298-7.362
					c-5.366-0.453-8.523,6.463-13.554,7.238C1977.104,1170.691,1978.405,1175.319,1981.435,1174.852L1981.435,1174.852z"/>
			</g>
		</g>
		<g>
			<g>
				<path fill="#1D1B3A" d="M2002.256,1181.012c2.981-0.861,8.65-1.885,6.125,2.913c-1.59,3.019-4.323,5.515-6.742,7.868
					c-2.736,2.661-5.799,4.599-9.114,6.479c-1.911,1.084-3.888,2.051-5.866,3.005c-1.221,0.668-2.525,1.104-3.914,1.308
					c-1.589,0.134-5.767-0.643-2.684-3.641c2.224-2.162-1.176-5.556-3.396-3.396c-5.07,4.931-2.363,10.592,4.263,11.703
					c3.572,0.599,6.49-1.023,9.607-2.525c4.185-2.018,8.979-4.307,12.379-7.528c4.542-4.306,10.376-9.175,11.214-15.749
					c0.893-7.009-9.217-6.203-13.148-5.068C1998.009,1177.238,1999.273,1181.874,2002.256,1181.012L2002.256,1181.012z"/>
			</g>
		</g>
		<g>
			<g>
				<path fill="#1D1B3A" d="M2008.893,1188.3c2.628-0.122,5.226-0.287,7.678,0.864c2.905,1.364,5.513,5.685,3.193,8.46
					c-2.014,2.412-5.573,3.752-8.398,4.942c-3.086,1.299-6.279,2.368-9.566,3.015c-3.485,0.686-5.226,0.201-4.066-3.523
					c0.922-2.966-3.716-4.225-4.633-1.277c-4.459,14.34,14.147,8.779,20.923,5.836c4.365-1.897,11.894-5.161,11.629-10.956
					c-0.421-9.216-8.841-12.533-16.759-12.163C2005.809,1183.641,2005.795,1188.445,2008.893,1188.3L2008.893,1188.3z"/>
			</g>
		</g>
		<g>
			<g>
				<path fill="#1D1B3A" d="M1996.396,1146.457c-4.118-2.664-7.831-5.559-10.904-9.407c-1.868-2.34-5.693-2.335-8.266-1.694
					c-2.601,0.648-5.164,3.096-6.544,5.285c-2.107,3.341-3.613,6.313-6.449,9.164c-4.049,4.07-8.427,8.287-8.377,14.43
					c0.027,3.379,2.173,6.067,3.941,8.726c3.285,4.938,5.723,9.861,5.367,15.892c-0.1,1.68,1.598,2.57,3.04,2.316
					c2.604-0.46,5.409-3.218,2.882-5.745s-5.253,0.206-5.836,2.79c-0.316,1.4,0.685,3.192,2.315,3.04
					c5.458-0.509,11.855-2.178,14.537-7.454c1.573-3.096,1.768-7.76,2.175-11.168c0.513-4.301,0.625-8.474-0.457-12.692
					c-0.77-2.998-5.402-1.726-4.633,1.277c1.436,5.591,0.386,11.329-0.649,16.899c-0.529,2.848-0.857,4.617-3.461,6.234
					c-2.165,1.344-5.015,1.867-7.512,2.101c0.772,1.013,1.544,2.026,2.315,3.04c-0.984-0.985-1.969-1.97-2.954-2.955
					c1.014,0.772,2.027,1.545,3.04,2.316c0.422-7.14-2.33-12.348-6.021-18.315c-1.807-2.92-3.897-5.075-3.022-8.719
					c0.66-2.746,3.164-5.028,5.056-6.967c1.592-1.631,3.229-3.202,4.732-4.919c2.004-2.29,2.773-5.134,4.617-7.507
					c1.277-1.645,3.245-2.955,5.466-2.597c1.343,0.216,3.579,3.282,4.611,4.313c2.52,2.519,5.592,4.539,8.566,6.464
					C1996.582,1152.292,1998.987,1148.132,1996.396,1146.457L1996.396,1146.457z"/>
			</g>
		</g>
		<g>
			<g>
				<path fill="#1D1B3A" d="M2025.758,1189.854c0.583-6.196-4.255-11.796-2.96-17.86c0.646-3.021-3.984-4.306-4.631-1.277
					c-1.468,6.869,3.417,12.449,2.788,19.138C2020.665,1192.938,2025.471,1192.911,2025.758,1189.854L2025.758,1189.854z"/>
			</g>
		</g>
	</g>
</g>
</svg>
