<?xml version="1.0" encoding="utf-8"?>
<!-- Generator: Adobe Illustrator 16.0.4, SVG Export Plug-In . SVG Version: 6.00 Build 0)  -->
<!DOCTYPE svg PUBLIC "-//W3C//DTD SVG 1.1//EN" "http://www.w3.org/Graphics/SVG/1.1/DTD/svg11.dtd">
<svg version="1.1" id="char3" xmlns="http://www.w3.org/2000/svg" xmlns:xlink="http://www.w3.org/1999/xlink" x="0px" y="0px"
	 width="2554.794px" height="1700.788px" viewBox="0 0 2554.794 1700.788" enable-background="new 0 0 2554.794 1700.788"
	 xml:space="preserve">
<g>
	<g>
		<path fill="#F4EDE1" d="M1510.179,712.791c-15.892,3.438-51.488,16.38-52.879,18.842c-4.994,18.085,21.708,12.863,36.514,21.443"
			/>
		<g>
			<path fill="#1D1B3A" d="M1509.681,710.983c-10.639,2.361-21.04,5.929-31.294,9.577c-7.066,2.516-16.116,4.75-22.143,9.449
				c-2.2,1.716-1.567,6.988-0.854,9.277c1.05,3.367,4.246,5.578,7.356,6.842c9.734,3.953,20.781,3.411,30.12,8.566
				c2.118,1.169,4.01-2.069,1.893-3.238c-7.602-4.196-16.311-5.104-24.651-6.986c-3.576-0.807-7.463-1.814-10.089-4.525
				c-1.938-2-2.386-6.646,0.187-8.037c7.103-3.842,15.143-6.333,22.738-8.986c9.092-3.177,18.321-6.233,27.732-8.323
				C1513.038,714.075,1512.036,710.459,1509.681,710.983L1509.681,710.983z"/>
		</g>
	</g>
	<g>
		<path fill="#F4EDE1" d="M1606.987,903.165c-6.163-14.086-27.692-86.63-24.652-86.287c8.938,1.01-7.429,40.004,1.914,39.97
			c23.134-0.083,23.944-0.746,40.722-13.448c13.189-9.982,82.911-103.234,43.547-168.009
			c-27.808-49.603-84.646-63.759-134.383-23.587c-34.485,26.414-48.534,85.123-54.74,128.329
			c-1.182,14.647,10.311,29.74,19.973,41.392c5.114,7.401,23.987,13.518,28.154,19.159c14.3,20.7,23.465,74.73,16.951,87.138"/>
		<g>
			<path fill="#1D1B3A" d="M1608.606,902.218c-5.774-13.385-9.582-27.854-13.733-41.796c-4.001-13.438-8.999-27.429-10.853-41.384
				c-0.072-0.539-0.119-1.084-0.092-1.629c-0.043,0.881-2.268,0.832-1.528,1.409c0.318,0.248,0.423,0.662,0.538,1.022
				c0.931,2.91,0.095,6.718-0.342,9.637c-1.057,7.076-2.956,14.104-3.206,21.28c-0.071,2.04,0.101,4.328,1.247,6.079
				c1.789,2.73,5.745,1.878,8.456,1.852c8.124-0.08,16.135-0.358,23.434-4.267c11.087-5.937,19.438-14.659,26.938-24.505
				c10.616-13.94,19.562-29.237,26.877-45.145c8.423-18.317,14.468-37.938,15.767-58.135c1.366-21.234-4.366-40.721-15.795-58.515
				c-11.685-18.191-29.2-32.372-50.042-38.501c-21.193-6.232-43.733-2.326-63.164,7.483c-20.846,10.523-36.792,27.146-47.858,47.513
				c-11.297,20.788-17.927,44.021-22.782,67.061c-1.862,8.841-3.379,17.754-4.697,26.691c-1.487,10.082,2.913,19.753,8.072,28.144
				c4.467,7.266,10.06,15.556,16.889,20.788c6.756,5.177,15.252,7.705,21.868,13.055c5.107,4.13,7.765,13.215,9.908,19.119
				c3.049,8.397,5.242,17.108,7.003,25.857c1.624,8.066,2.733,16.252,3.129,24.473c0.259,5.387,0.665,12.073-1.785,17.068
				c-1.061,2.162,2.173,4.063,3.238,1.893c2.796-5.701,2.534-12.789,2.297-18.961c-0.379-9.837-1.993-19.663-4.053-29.273
				c-2.12-9.892-4.939-19.771-8.964-29.068c-1.646-3.799-3.476-7.492-5.723-10.975c-2.092-3.239-5.581-5.191-8.85-7.061
				c-4.392-2.512-8.938-4.729-13.249-7.383c-5.353-3.294-8.89-8.184-12.668-13.108c-4.308-5.614-8.222-11.614-10.977-18.152
				c-2.893-6.864-2.864-13.338-1.743-20.551c3.64-23.404,8.986-46.699,17.607-68.802c8.875-22.754,21.864-42.668,41.893-56.984
				c19.838-14.181,44.452-21.435,68.644-16.451c23.178,4.775,42.046,20.782,54.337,40.497
				c11.763,18.867,15.603,39.571,13.044,61.551c-2.427,20.842-10.232,40.995-19.801,59.525
				c-7.383,14.297-16.148,28.151-26.488,40.505c-8.398,10.035-19.996,19.424-33.387,20.547c-2.477,0.207-4.97,0.248-7.454,0.296
				c-1.338,0.025-5.742,0.768-6.727-0.067c-1.594-1.352-0.592-6.146-0.402-7.855c0.817-7.371,2.813-14.565,3.452-21.966
				c0.249-2.874,0.434-7.098-2.125-9.094c-1.905-1.486-4.271-1.087-4.577,1.474c-0.287,2.396,0.676,5.273,1.181,7.58
				c1.111,5.077,2.458,10.104,3.815,15.119c5.778,21.355,11.409,43.641,20.193,64.002
				C1606.324,906.326,1609.554,904.414,1608.606,902.218L1608.606,902.218z"/>
		</g>
	</g>
	<g>
		<g>
			<path fill="#1D1B3A" d="M1513.84,706.828c-3.355,4.249-4.568,10.166-5.983,15.283c-0.86,3.113,3.964,4.434,4.822,1.33
				c1.137-4.115,1.992-9.653,4.696-13.078C1519.35,707.862,1515.837,704.297,1513.84,706.828L1513.84,706.828z"/>
		</g>
	</g>
	<g>
		<path fill="#FFFFFF" d="M1490.855,947.951c-1.784-22.276,17.896-35.355,35.534-48.364c38.769-28.588,100.812-27.491,100.812-5.3"
			/>
		<g>
			<path fill="#1D1B3A" d="M1492.73,947.951c-1.092-18.389,12.854-30.511,26.314-40.635c13.318-10.018,26.816-18.066,42.906-22.827
				c13.649-4.039,28.521-5.984,42.698-4.062c7.667,1.039,20.412,4.139,20.678,13.86c0.065,2.413,3.816,2.42,3.75,0
				c-0.281-10.319-10.826-14.857-19.521-16.786c-14.999-3.327-31.294-1.189-45.974,2.641c-18.428,4.809-33.768,14.298-48.778,25.713
				c-13.78,10.479-26.93,23.47-25.823,42.097C1489.123,950.353,1492.874,950.368,1492.73,947.951L1492.73,947.951z"/>
		</g>
	</g>
	<g>
		<path fill="#1D1B3A" d="M1613.983,615.969c-26.1-13.672-51.858-20.455-81.386-6.825c-14.766,6.813-22.195,12.403-27.747,27.233
			c-7.022,16.818-12.706,24.521-14.969,42.263c22.894,11.447,54.832,31.38,54.865,30.695c0.034-0.686,2.568,17.297-2.472,35.588
			c-5.755,18.942-11.58,39.254-20.728,57.338c-6.064,11.372-28.104,58.494-42.179,37.87c17.056,15.968,25.626,18.304,49.262,26.355
			c31.066,10.486,57.237,9.05,89.674,5.867c31.035-2.564,24.08-0.854,50.39-18.764c17.814-12.844,19.632-35.416,22.032-55.899
			c5.449-40.248,7.616-110.877-12.591-146.23c-15.821-26.892-34.25-29.188-63.501-34.773"/>
		<g>
			<path fill="#1D1B3A" d="M1614.93,614.35c-13.989-7.253-28.646-12.988-44.468-14.319c-15.908-1.337-31.245,3.357-45.216,10.639
				c-10.345,5.392-17.257,13.075-21.678,23.846c-5.967,14.541-13.334,27.829-15.494,43.627c-0.11,0.805,0.046,1.707,0.861,2.117
				c12.835,6.456,25.293,13.639,37.694,20.883c4.432,2.589,8.845,5.21,13.29,7.775c1.126,0.649,2.252,1.309,3.417,1.887
				c0.861,0.428,2.362,0.148,1.921,0.334c-0.77-0.437-1.538-0.873-2.307-1.31c1.083,4.887,0.667,10.474,0.465,15.416
				c-0.415,10.188-3.078,19.638-6.02,29.316c-5.203,17.118-10.897,33.983-19.115,49.918c-4.287,8.313-24.916,51.972-37.293,34.706
				c-0.981,0.758-1.964,1.515-2.945,2.272c7.605,7.06,15.645,13.282,25.103,17.653c10.744,4.966,22.452,8.698,33.822,11.887
				c27.926,7.833,56.169,5.268,84.633,2.963c7.755-0.628,16.133-0.603,23.563-3.197c7.027-2.453,13.127-7.693,19.148-11.887
				c9.639-6.713,16.609-13.593,21.156-24.626c4.381-10.628,5.501-22.438,6.808-33.755c4.621-40.016,7.145-81.396-1.866-121.028
				c-3.988-17.542-11.34-34.895-25.212-46.901c-13.799-11.943-32.797-14.4-50.065-17.687c-2.362-0.45-3.37,3.164-0.996,3.615
				c21.03,4.004,41.885,7.266,56.187,24.78c14.416,17.656,18.542,42.192,20.754,64.201c2.371,23.592,1.868,47.516-0.131,71.113
				c-0.927,10.936-2.244,21.887-3.769,32.754c-1.694,12.076-4.609,24.438-12.455,34.101c-5.367,6.61-13.43,11.022-20.368,15.822
				c-3.984,2.757-7.991,5.392-12.715,6.658c-6.434,1.726-13.44,1.757-20.039,2.286c-11.167,0.896-22.287,2.077-33.489,2.475
				c-22.019,0.781-42.888-2.547-63.717-9.614c-7.942-2.695-15.941-5.331-23.418-9.178c-7.551-3.886-14.09-9.339-20.281-15.088
				c-1.498-1.39-4.234,0.475-2.945,2.272c15.487,21.604,36.391-20.521,42.019-31.319c8.494-16.296,14.778-33.238,20.198-50.785
				c4.816-15.592,10.264-33.618,6.601-50.142c-0.201-0.903-1.396-1.693-2.307-1.31c-1.185,0.5,0.219-0.144,0.865,0.003
				c0.206,0.046-0.672-0.359-0.812-0.436c-1.287-0.691-2.548-1.436-3.812-2.169c-4.378-2.537-8.73-5.118-13.101-7.671
				c-12.027-7.025-24.126-13.968-36.573-20.229c0.287,0.706,0.574,1.412,0.861,2.117c1.821-13.316,7.215-24.731,12.646-36.866
				c2.516-5.621,4.511-11.372,8.056-16.464c3.17-4.553,7.732-7.869,12.458-10.64c13.355-7.829,28.462-12.109,43.959-11.49
				c15.617,0.624,30.542,6.813,44.229,13.91C1615.181,618.7,1617.077,615.463,1614.93,614.35L1614.93,614.35z"/>
		</g>
	</g>
	<g>
		<path fill="#F4EDE1" d="M1540.952,717.383c27.295,14.087-1.538,54.752-16.93,52.255"/>
		<g>
			<path fill="#1D1B3A" d="M1540.006,719.002c11.983,6.516,12.13,19.093,6.639,30.244c-3.76,7.634-12.767,19.735-22.622,18.517
				c-2.396-0.297-2.367,3.457,0,3.75c11.687,1.445,21.872-12.277,26.317-21.303c6.25-12.691,4.797-27.248-8.441-34.446
				C1539.773,714.609,1537.881,717.847,1540.006,719.002L1540.006,719.002z"/>
		</g>
	</g>
	<g>
		<path fill="#F4EDE1" d="M1534.787,729.71c6.045,5.068,6.466,15.882,3.524,19.278c-1.938,2.213-4.164,4.104-7.161,5.267"/>
		<g>
			<path fill="#1D1B3A" d="M1533.461,731.037c3.375,3.144,4.703,7.307,4.744,11.836c0.046,4.977-3.784,7.885-8.001,9.764
				c-2.205,0.983-0.296,4.214,1.893,3.238c5.342-2.381,9.083-6.044,9.799-11.908c0.69-5.644-1.676-11.755-5.782-15.582
				C1534.347,726.739,1531.688,729.384,1533.461,731.037L1533.461,731.037z"/>
		</g>
	</g>
	<g>
		<path fill="#DC4832" d="M1514.271,918.701c0,0-89.737,93.554-56.344,119.313c33.393,25.761,109.146,11.907,107.064,33.382
			c-0.583,6.006,93.5-151.698,60.107-165.056C1591.705,892.983,1514.271,918.701,1514.271,918.701z"/>
		<g>
			<path fill="#1D1B3A" d="M1512.944,917.375c-15.283,15.951-29.396,33.36-41.827,51.607c-8.454,12.409-16.538,25.801-20.666,40.352
				c-2.891,10.19-3.075,22.189,5.646,29.604c13.822,11.752,34.322,14.976,51.677,17.272c9.45,1.252,18.944,2.111,28.407,3.248
				c7.122,0.855,14.822,1.661,21.44,4.625c1.983,0.889,3.872,2.103,4.974,4.022c0.847,1.478-0.077,3.513,1.085,4.754
				c1.68,1.794,3.442-0.633,4.344-1.854c4.93-6.683,8.998-14.111,13.149-21.285c15.103-26.104,29.068-53.095,40.384-81.068
				c5.004-12.372,9.68-25.2,11.788-38.429c1.185-7.433,2.081-17.369-3.782-23.203c-5.724-5.694-17.348-5.945-24.814-6.302
				c-13.138-0.627-26.396,1.111-39.316,3.333c-17.434,2.997-34.856,7.275-51.659,12.842c-2.284,0.756-1.306,4.378,0.996,3.615
				c28.154-9.326,59.104-16.887,88.88-16.081c9.982,0.271,24.918,0.504,26.527,12.846c1.428,10.945-2.463,22.735-5.816,32.984
				c-9.632,29.439-24.146,57.468-39.062,84.525c-5.385,9.768-10.923,19.475-16.891,28.9c-1.27,2.005-2.79,4.495-4.129,6.077
				c-1.086,1.284,2.074-3.235,2.585,1.694c-0.089-0.856,0.054-1.704-0.108-2.573c-0.392-2.099-1.486-3.854-3.023-5.312
				c-4.021-3.815-10.359-5.06-15.588-6.082c-8.268-1.619-16.722-2.338-25.089-3.233c-19.543-2.092-40.481-4.082-57.984-13.771
				c-5.691-3.151-10.434-6.961-12.106-13.446c-1.472-5.711-0.255-11.918,1.318-17.463c4.224-14.887,13.043-28.545,21.759-41.155
				c11.807-17.084,25.181-33.39,39.556-48.392C1517.269,918.281,1514.62,915.625,1512.944,917.375z"/>
		</g>
	</g>
	<g>
		<path fill="#1D1B3A" d="M1569.721,1285.615c6.015-36.425,30.486,234.966,39.244,335.546c5.764-5.255,12.128-9.811,19.001-13.662
			c2.495-32.988,23.825-323.462,5.964-389.941c-33.466-124.566-73.406-61.502-117.936-54.181c0,0-35.323,44.67-11.391,135.623
			c23.934,90.953,44.184,317.445,44.184,317.445s-78.234,1.509-81.257,1.509c-30.224,0,45.593,51.488,92.304,21.676
			c0.929-0.594-2.433,21.402-2.433,21.402l18.234-0.841c0,0,11.813-40.181,4.449-49.097
			C1572.721,1602.177,1562.356,1330.2,1569.721,1285.615z"/>
		<g>
			<path fill="#1D1B3A" d="M1571.528,1286.113c0.14-0.818,0.294-1.64,0.576-2.423c0.041-0.113-1.377,0.773-1.911,0.194
				c0.251,0.272,1.086,3.09,1.45,4.561c2.094,8.444,3.233,17.164,4.463,25.764c4.514,31.584,7.797,63.357,11.093,95.087
				c7.33,70.552,13.736,141.202,19.891,211.865c0.143,1.641,1.927,2.467,3.201,1.326c5.737-5.138,11.938-9.55,18.621-13.369
				c1.24-0.709,1.014-2.737,1.106-3.98c0.244-3.263,0.483-6.524,0.72-9.788c0.771-10.662,1.507-21.328,2.217-31.995
				c2.185-32.826,4.107-65.67,5.724-98.529c1.896-38.554,3.375-77.136,3.965-115.733c0.5-32.743,0.649-65.654-1.966-98.32
				c-0.854-10.653-1.959-21.42-4.459-31.831c-4.995-20.799-12.121-43.062-24.345-60.864c-6.632-9.659-15.75-17.541-27.736-18.847
				c-10.427-1.135-20.822,3.189-30.115,7.374c-10.723,4.83-21.112,10.526-32.514,13.652c-2.979,0.817-6.057,0.594-7.897,3.224
				c-1.761,2.518-3.271,5.21-4.684,7.935c-16.792,32.396-17.004,71.625-10.86,106.734c3.304,18.88,8.837,37.369,12.547,56.191
				c3.671,18.624,6.764,37.361,9.643,56.122c6.242,40.674,11.327,81.525,15.98,122.409c3.925,34.481,7.582,69.007,10.675,103.574
				c0.625-0.625,1.25-1.25,1.875-1.875c-25.056,0.483-50.111,0.977-75.168,1.414c-4.712,0.082-16.451-1.106-14.686,6.748
				c0.903,4.021,5.277,7.198,8.331,9.512c5.734,4.346,12.312,7.553,18.92,10.321c16.383,6.863,34.794,10.006,52.416,7.116
				c4.584-0.752,9.046-2.102,13.341-3.853c1.972-0.804,3.877-1.745,5.753-2.75c0.346-0.194,0.691-0.39,1.037-0.585
				c1.628-0.518,1.425-1.254-0.61-2.208c0.024,0.695-0.062,1.404-0.119,2.096c-0.499,6.074-1.49,12.13-2.408,18.152
				c-0.174,1.138,0.477,2.435,1.808,2.373c6.078-0.28,12.156-0.561,18.234-0.841c0.85-0.039,1.564-0.546,1.808-1.377
				c3.732-12.75,7.047-26.459,6.925-39.803c-0.063-6.93-3.402-11.496-4.419-18.052c-3.567-23.01-4.299-46.647-5.568-69.862
				c-3.722-68.036-6.177-136.396-5.152-204.541C1569.439,1314.426,1569.279,1299.982,1571.528,1286.113
				c0.384-2.364-3.229-3.379-3.615-0.996c-3.492,21.529-2.588,44.166-2.593,65.887c-0.008,34.903,0.824,69.811,1.979,104.692
				c1.112,33.57,2.548,67.142,4.721,100.661c0.766,11.804,1.613,23.609,2.82,35.378c0.625,6.095,0.942,12.702,2.836,18.577
				c0.612,1.901,1.879,3.327,2.387,5.312c1.456,5.69,0.384,12.339-0.446,18.038c-1.276,8.772-3.299,17.521-5.789,26.03
				c0.603-0.459,1.205-0.918,1.808-1.377c-6.078,0.28-12.156,0.561-18.234,0.841c0.603,0.791,1.205,1.582,1.808,2.373
				c0.58-3.802,1.128-7.609,1.632-11.422c0.421-3.182,2.025-8.313,0.684-11.42c-0.267-0.615-1.012-0.885-1.619-0.929
				c-1.355-0.097-2.99,1.453-4.104,2.082c-2.249,1.268-4.621,2.306-7.027,3.23c-4.879,1.876-10.06,2.971-15.241,3.559
				c-9.688,1.098-19.541,0.048-29.008-2.106c-13.739-3.127-30.279-9.034-40.073-19.741c-2.766-3.024-2.303-4.637,1.83-4.922
				c3.462-0.238,6.984-0.12,10.451-0.182c15.478-0.276,30.954-0.573,46.431-0.868c8.541-0.163,17.082-0.326,25.623-0.491
				c0.952-0.019,1.968-0.842,1.875-1.875c-4.779-53.419-10.678-106.77-17.463-159.968c-5.03-39.445-10.54-78.887-17.968-117.961
				c-3.369-17.725-8.019-35.082-11.846-52.693c-5.228-24.051-6.973-49.172-3.27-73.577c2.065-13.607,5.942-27.156,12.292-39.407
				c1.36-2.625,2.854-5.197,4.55-7.622c0.996-1.422-0.191-0.074,0.876-0.27c2.934-0.537,5.813-1.349,8.649-2.264
				c11.074-3.574,21.305-9.303,31.934-13.952c9.485-4.15,20.135-7.712,30.479-4.805c14.132,3.972,22.539,19.049,28.378,31.319
				c8.086,16.994,14.24,35.874,17.255,54.492c4.599,28.398,4.504,57.769,4.588,86.454c0.215,73.861-3.678,147.771-8.258,221.47
				c-1.006,16.182-2.077,32.359-3.217,48.531c-0.366,5.195-0.74,10.389-1.123,15.582c-0.123,1.67-0.248,3.339-0.374,5.008
				c0.004-0.05-6.965,3.95-8.308,4.879c-3.584,2.48-6.953,5.269-10.198,8.173c1.067,0.442,2.134,0.884,3.201,1.326
				c-6.22-71.415-12.704-142.815-20.124-214.117c-3.26-31.314-6.564-62.656-10.994-93.831c-1.223-8.609-2.407-17.306-4.462-25.765
				c-0.401-1.651-2.733-10.278-5.967-6.22c-0.88,1.104-1.148,2.525-1.38,3.889
				C1567.511,1287.481,1571.124,1288.494,1571.528,1286.113z"/>
		</g>
	</g>
	<g>
		<path fill="#DC4832" d="M1516.324,998.827c1.84,25.849,4.54,58.631,8.502,98.723c3.072,31.075-13.425,67.268-22.567,81.633
			c-8.253,12.967,140.141,27.188,129.287,1.305c-30.301-72.256-8.926-160.944-6.922-168.271
			c23.165-84.723,12.784-109.3,12.784-109.3s-42.998-8.004-65.485-9.439c-44.162-2.818-87.014,60.141-87.014,60.141"/>
		<g>
			<path fill="#1D1B3A" d="M1514.449,998.827c1.853,25.939,4.053,51.853,6.479,77.744c1.396,14.898,3.391,29.409,1.146,44.325
				c-1.969,13.077-6.169,25.865-11.392,37.982c-1.979,4.594-4.194,9.088-6.585,13.481c-1.179,2.164-3.561,4.712-3.968,7.186
				c-0.43,2.609,1.74,4.374,3.767,5.549c8.424,4.884,19.629,6.112,29.051,7.585c14.588,2.278,29.357,3.529,44.11,3.996
				c13.229,0.419,26.752,0.321,39.801-2.132c6.107-1.148,16.448-3.459,17.121-11.152c0.197-2.253-1.087-4.505-1.884-6.487
				c-2.678-6.653-4.851-13.502-6.743-20.416c-3.649-13.329-5.793-27.044-7.003-40.797c-3.04-34.56-0.531-71.295,8.604-104.892
				c6.312-23.217,11.568-46.913,13.817-70.902c1.002-10.679,1.462-21.685-0.294-32.315c-0.272-1.645-0.606-3.308-1.155-4.885
				c-0.775-2.225-3.977-2.058-5.934-2.408c-18.935-3.392-37.998-6.62-57.164-8.356c-36.726-3.326-67.134,27.1-87.91,53.938
				c-1.724,2.228-3.435,4.475-5.023,6.802c-1.367,2.003,1.884,3.877,3.238,1.893c6.154-9.015,13.448-17.359,21.025-25.189
				c13.811-14.271,30.485-27.863,50.128-32.74c9.703-2.408,19.659-0.969,29.431,0.219c10.892,1.324,21.737,3.045,32.558,4.851
				c5.716,0.954,11.425,1.946,17.123,2.999c-0.74-0.137-1.451-2.107-1.002-0.755c0.23,0.694,0.408,1.406,0.574,2.118
				c2.05,8.789,1.685,18.25,1.164,27.178c-1.323,22.737-6.184,45.268-11.758,67.291c-8.676,34.273-13.439,68.803-11.883,104.304
				c1.155,26.347,6.297,51.958,15.984,76.488c2.815,7.131-11.87,9.249-15.935,9.946c-13.589,2.333-27.737,2.062-41.459,1.483
				c-14.724-0.619-29.472-2.049-43.99-4.597c-7.623-1.338-17.224-2.481-23.78-6.982c-0.615-0.422-0.913-1.107-0.907-0.961
				c-0.028-0.752,3.226-5.398,4.062-6.935c4.882-8.969,8.813-18.482,12.067-28.151c3.8-11.289,6.301-23.044,7.02-34.941
				c0.817-13.541-1.705-27.431-2.949-40.896c-2.168-23.469-4.123-46.958-5.802-70.467
				C1518.028,996.429,1514.276,996.413,1514.449,998.827L1514.449,998.827z"/>
		</g>
	</g>
	<g>
		<path fill="#1D1B3A" d="M1640.375,1608.306c0,0,71.126,1.281,73.874,1.281c27.477,0-41.449,43.714-83.916,18.401
			c-0.844-0.502,2.211,18.171,2.211,18.171l-16.576-0.714c0,0-10.74-34.112-4.046-41.682"/>
		<g>
			<path fill="#1D1B3A" d="M1640.375,1610.181c24.165,0.436,48.329,0.919,72.496,1.266c1.552,0.022,6.786-0.523,5.421,1.989
				c-2.492,4.589-8.946,7.59-13.339,9.861c-16.582,8.577-36.804,12.821-55.321,9.721c-3.874-0.648-7.652-1.764-11.315-3.165
				c-2.244-0.859-6.161-4.143-8.556-3.657c-0.652,0.132-1.11,0.714-1.31,1.31c-0.888,2.66,0.421,6.723,0.795,9.403
				c0.455,3.255,0.961,6.505,1.49,9.749c0.603-0.791,1.205-1.582,1.808-2.373c-5.525-0.238-11.051-0.476-16.576-0.714
				c0.603,0.459,1.205,0.918,1.808,1.377c-1.637-5.228-2.966-10.562-4.11-15.916c-0.925-4.331-1.636-8.708-1.96-13.126
				c-0.239-3.264-0.635-8.064,1.543-10.815c1.483-1.875-1.151-4.548-2.652-2.652c-4.862,6.144-2.582,16.371-1.365,23.386
				c1.178,6.787,2.87,13.546,4.93,20.12c0.259,0.827,0.946,1.34,1.808,1.377c5.525,0.238,11.051,0.476,16.576,0.714
				c1.322,0.057,1.994-1.232,1.808-2.373c-0.919-5.636-2.296-11.533-2.288-17.255c-0.545,0.602-1.091,1.203-1.636,1.805
				c0.695,0.393,1.399,0.768,2.111,1.127c1.056,0.547,2.147,1.021,3.237,1.494c1.955,0.849,3.965,1.547,5.999,2.18
				c4.647,1.447,9.512,2.161,14.353,2.548c17.553,1.4,35.979-3.4,51.51-11.434c3.331-1.723,21.613-12.224,12.414-17.352
				c-2.747-1.531-6.53-1.066-9.582-1.114c-6.258-0.099-12.515-0.21-18.772-0.318c-17.107-0.298-34.215-0.603-51.322-0.911
				C1637.955,1606.387,1637.96,1610.138,1640.375,1610.181L1640.375,1610.181z"/>
		</g>
	</g>
	<g>
		<g>
			<path fill="#1D1B3A" d="M1522.376,992.209c-5.689,7.284-12.862,13.341-18.421,20.658c-4.97,6.542-9.018,13.702-13.725,20.422
				c-1.391,1.986,1.862,3.857,3.238,1.893c4.298-6.136,8.071-12.621,12.444-18.71c5.577-7.765,13.202-14.041,19.115-21.61
				C1526.498,992.98,1523.864,990.305,1522.376,992.209L1522.376,992.209z"/>
		</g>
	</g>
	<g>
		<path fill="#F4EDE1" d="M1482.629,954.269c-0.896-3.034-8.67-7.37-11.71-7.267c-2.544,0.092-3.221,7.408-4.119,9.819
			c-1.426-1.842-2.954-3.748-5.043-4.684c-2.086-0.935-4.887-0.509-5.856,1.52c-0.738,1.542-0.448,3.849-1.957,4.591
			c-1.614,0.797-3.349-1.1-5.146-1.514c-2.786-0.64-4.865,2.378-5.699,5.114c-2.725,8.948-0.737,18.817,1.264,28.185
			c1.45,6.791,0.879,8.421,6.088,17.496c4.112,0.332,4.926-1.414,5.643-5.537c1.05-6.026,0.297-12.451-2.131-18.209
			c4.301,7.881,8.602,15.759,12.899,23.642c0.338,0.615,0.695,1.255,1.266,1.644c1.27,0.865,3.034,0.042,3.716-1.283
			c0.687-1.326,0.595-2.945,0.489-4.476c-0.352-5.044-0.704-10.087-1.055-15.131c2.479,4.08,4.956,8.156,7.435,12.235
			c0.48,0.791,0.999,1.621,1.798,2.062c2.063,1.146,4.319-0.969,5.177-3.118c2.958-7.438-0.871-15.955-3.456-23.79
			c-1.788-5.42-8.068-9.901,2.027-20.322"/>
		<g>
			<path fill="#1B1D3A" d="M1484.248,953.323c-1.799-4.1-8.217-7.885-12.609-8.151c-5.347-0.324-5.511,7.568-6.646,11.152
				c1.044-0.276,2.089-0.552,3.134-0.828c-2.213-2.804-6.035-7.018-10.215-5.517c-1.676,0.602-2.608,1.294-3.63,2.732
				c-0.474,0.668-0.596,1.745-0.762,2.517c-0.352,1.624-4.072-0.333-4.722-0.368c-12.002-0.645-8.793,21.952-7.668,28.575
				c0.891,5.245,1.764,10.804,3.342,15.901c1.128,3.646,2.903,9.986,7.231,10.102c10.838,0.288,6.121-20.902,4.066-26.152
				c-1.142,0.481-2.284,0.963-3.427,1.444c3.072,5.629,6.144,11.257,9.215,16.886c1.821,3.338,3.202,8.274,7.091,9.612
				c8.909,3.063,4.706-20.145,4.504-23.049c-1.165,0.315-2.329,0.631-3.494,0.946c2.168,3.569,4.337,7.138,6.505,10.706
				c1.413,2.325,2.397,4.078,5.097,4.774c5.678,1.464,7.271-7.918,7.372-11.396c0.195-6.606-2.789-14.084-5.365-20.049
				c-0.812-1.881-1.896-3.568-2.491-5.547c-1.275-4.24,2.188-8.203,4.809-11.043c1.636-1.774-1.01-4.434-2.652-2.652
				c-5.835,6.328-7.596,11.981-3.615,19.69c2.755,5.336,4.791,12.065,5.488,18.016c0.228,1.946-0.002,3.826-0.423,5.732
				c-1.627,7.379-5.334-0.002-5.91-0.948c-1.858-3.059-3.717-6.118-5.575-9.177c-0.919-1.513-3.629-0.988-3.494,0.946
				c0.263,3.783,0.527,7.565,0.791,11.348c0.124,1.776,0.253,3.551,0.336,5.329c-0.683,0.541-1.366,1.082-2.049,1.623
				c-0.614-1.126-1.229-2.252-1.842-3.378c-3.685-6.756-7.372-13.51-11.058-20.264c-1.001-1.834-4.211-0.56-3.427,1.444
				c1.619,4.141,2.462,8.256,2.522,12.713c0.032,2.329-0.353,4.649-0.919,6.899c-1.269,5.032-3.59-0.789-4.061-1.713
				c-2.787-5.473-3.44-12.008-4.62-17.959c-0.902-4.553-1.441-9.115-1.421-13.758c0.013-2.771,0.53-5.457,1.25-8.117
				c0.946-3.495,4.557-3.129,7.307-2.133c1.965,0.712,3.74-0.955,4.478-2.512c0.752-1.588,0.153-3.871,2.837-4.162
				c2.458-0.266,4.653,2.969,5.946,4.607c0.928,1.176,2.751,0.381,3.134-0.828c0.504-1.589,1.224-8.727,3.372-8.299
				c3.137,0.625,7.708,3.182,9.03,6.194C1481.979,957.425,1485.21,955.515,1484.248,953.323L1484.248,953.323z"/>
		</g>
	</g>
</g>
</svg>
