<?xml version="1.0" encoding="utf-8"?>
<!-- Generator: Adobe Illustrator 16.0.4, SVG Export Plug-In . SVG Version: 6.00 Build 0)  -->
<!DOCTYPE svg PUBLIC "-//W3C//DTD SVG 1.1//EN" "http://www.w3.org/Graphics/SVG/1.1/DTD/svg11.dtd">
<svg version="1.1" id="char1" xmlns="http://www.w3.org/2000/svg" xmlns:xlink="http://www.w3.org/1999/xlink" x="0px" y="0px"
	 width="2554.794px" height="1700.788px" viewBox="0 0 2554.794 1700.788" enable-background="new 0 0 2554.794 1700.788"
	 xml:space="preserve">
<g>
	<g>
		<path fill="#F4EDE1" d="M714.913,899.751c22.173-19.916,32.304-58.932,30.913-85.914c-1.811-36.016-20.795-51.145-31.766-83.871
			c10.513,6.533,16.74,12.555,34.875,9.765c10.427-1.605,36.417-16.717,20.905-30.021c-17.95-15.398-57.125,4.799-71.573-13.314
			c-18.666-23.404-47.786-55.068-81.386-48.762c-29.475,5.532-34.37,34.832-35.742,60.094c-1.641,30.173,1.893,60.571-1.396,90.666
			c-3.291,30.11-26.181,59.234-8.493,89.188c11.056,18.724,38.778,30.844,59.838,34.002
			C663.818,926.492,690.339,921.82,714.913,899.751z"/>
		<g>
			<path fill="#1D1B3A" d="M716.518,901.357c22.029-20.224,31.564-53.492,31.704-82.64c0.074-15.545-3.894-30.392-10.492-44.374
				c-7.127-15.102-16.043-29.085-21.48-44.98c-1.112,0.854-2.224,1.709-3.335,2.564c8.435,5.296,15.911,10.189,26.15,10.748
				c9.485,0.518,18.219-2.385,26.073-7.524c5.825-3.812,12.88-10.412,11.659-18.143c-1.335-8.447-10.219-13.065-17.776-14.761
				c-9.554-2.143-19.715-0.815-29.37-0.264c-9.093,0.519-20.261,1.309-27.692-4.984c-3.743-3.17-6.609-7.822-9.791-11.548
				c-4.068-4.764-8.34-9.349-12.806-13.74c-8.449-8.309-17.929-15.757-28.595-20.997c-18.654-9.166-43.131-8.837-57.553,7.739
				c-13.562,15.589-14.232,39.59-14.713,59.121c-0.78,31.673,4.294,65.021-4.165,95.981c-6.874,25.159-19.275,50.089-5.047,75.172
				c6.315,11.132,17.777,18.98,28.926,24.649c12.337,6.272,25.65,9.72,39.337,11.328c13.981,1.644,28.216,1.198,41.856-2.44
				C693.358,918.544,705.782,910.86,716.518,901.357c2.197-1.944-1.027-5.145-3.211-3.211
				c-20.188,17.868-44.396,24.518-71.011,22.481c-23.807-1.822-50.001-10.442-65.731-29.337
				c-19.897-23.901-3.667-54.182,2.989-79.668c3.782-14.485,3.892-29.843,3.918-44.72c0.029-16.446-0.744-32.881-0.431-49.328
				c0.389-20.448,1.23-46.504,18.287-60.717c20.709-17.255,49.685-3.579,67.175,11.09c9.191,7.708,17.248,16.729,24.856,25.97
				c2.792,3.392,5.238,6.644,9.046,8.946c3.602,2.179,7.856,3.006,11.968,3.539c9.939,1.29,20.159-0.391,30.118-0.664
				c9.366-0.257,21.708,0.416,27.047,9.5c5.851,9.954-13.313,19.411-20.173,21.587c-6.431,2.041-14.08,1.828-20.497-0.097
				c-5.716-1.715-10.674-5.591-15.664-8.724c-1.637-1.027-3.982,0.674-3.335,2.564c4.819,14.091,12.064,26.9,18.929,40.048
				c7.516,14.396,12.324,29.297,12.848,45.631c0.916,28.545-8.852,62.169-30.34,81.897
				C711.146,900.13,714.366,903.333,716.518,901.357z"/>
		</g>
	</g>
	<g>
		<g>
			<path fill="#1D1B3A" d="M675.01,693.352c3.008,2.163,5.638,5.053,8.046,7.844c0.72,0.834,6.003,7.652,1.903,5.828
				c-3.389-1.508-6.211-4.576-8.64-7.286c-1.936-2.16-5.461-5.915-5.295-9.092c-0.549,0.549-1.098,1.098-1.646,1.646
				c1.016,0.282,2.032,0.563,3.048,0.846c1.927,0.839,3.605-1.998,1.662-2.844c-1.6-0.696-2.974-1.114-4.71-1.295
				c-0.927-0.097-1.604,0.823-1.646,1.646c-0.232,4.43,4.057,8.963,6.774,11.995c2.944,3.285,7.09,7.564,11.729,8.076
				c4.846,0.535,3.588-5.409,2.169-7.813c-2.782-4.714-7.3-9.209-11.731-12.396C674.944,689.266,673.303,692.125,675.01,693.352
				L675.01,693.352z"/>
		</g>
	</g>
	<g>
		<g>
			<path fill="#1D1B3A" d="M662.361,674.175c-6.479,7.11-8.175,13.968-6.399,23.391c0.393,2.086,3.567,1.2,3.176-0.875
				c-1.548-8.211-0.098-13.986,5.552-20.188C666.117,674.938,663.795,672.602,662.361,674.175L662.361,674.175z"/>
		</g>
	</g>
	<g>
		<g>
			<path fill="#1D1B3A" d="M749.281,837.478c-5.791,2.146-11.632,4.109-17.323,6.514c-1.874,0.791-0.259,3.515,1.597,2.73
				c5.437-2.296,11.036-4.145,16.567-6.193C752.018,839.827,751.198,836.768,749.281,837.478L749.281,837.478z"/>
		</g>
	</g>
	<g>
		<path fill="#DC4832" d="M605.568,658.497c9.028-4.358,27.68-10.516,20.091-24.819c-6.652-13.512-27.659-12.088-35.431-0.153
			c12.275-23.892-47.659-21.469-36.273,7.015c-19.179-22.053-47.177,23.843-21.69,33.065c-11.817-6.57-25.35,9.745-28.799,21.907
			c-3.27,14.031,12.732,29.967,23.361,17.365c-22.56,6.621-3.379,56.78,13.809,35.674c-12.298,4.336-5.121,17.949,1.784,21.733
			c7.314,4.475,31.956,6.811,32.89-6.449c5.875,9.081,39.109,0.866,28.321-11.004c1.122,16.716,25.029-2.477,26.033-13.28
			c1.121-11.392-10.901-11.279-18.445-14.576c13.828,13.07,40.662-32.438,8.066-24.71c14.721,16.911,47.588-37.204,7.701-28.445
			c12.916,3.729,8.366-9.376,0.297-12.773c-5.028-2.199-14.606-3.445-18.379,1.933"/>
		<g>
			<path fill="#1D1B3A" d="M606.422,659.958c11.961-5.681,29.52-13.225,19.533-29.146c-8.365-13.334-29.209-9.607-37.189,1.856
				c0.975,0.569,1.949,1.14,2.924,1.709c6.559-13.408-7.058-19.496-18.544-18.744c-13.632,0.895-26.382,10.662-20.824,25.354
				c0.943-0.549,1.886-1.099,2.83-1.647c-20.978-23.082-51.411,24.962-23.337,35.896c1.792,0.698,3.012-2.251,1.305-3.095
				c-14.229-7.031-30.085,11.513-31.586,24.611c-1.619,14.135,14.267,30.667,26.49,17.32c1.088-1.188,0.046-3.378-1.647-2.83
				c-13.004,4.21-13.169,19.938-9.032,30.704c4.241,11.035,15.274,18.644,24.488,7.8c0.975-1.147,0.08-3.522-1.647-2.83
				c-14.379,5.771-6.12,22.392,5.064,26.483c9.83,3.596,30.135,4.426,31.753-9.566c-1.052,0.285-2.103,0.569-3.155,0.854
				c8.222,11.278,42.865,1.016,30.98-13.056c-0.918-1.087-3.036-0.245-2.89,1.197c1.682,16.655,19.558,3.304,24.898-3.499
				c3.847-4.901,6.251-11.159,3.069-17.056c-3.271-6.061-12.577-6.609-18.236-8.935c-1.583-0.649-2.864,1.752-1.647,2.83
				c9.229,8.172,20.416-3.021,24.403-11.322c1.946-4.052,3.2-9.418,0.476-13.415c-3.441-5.049-11.031-3.923-16.065-2.803
				c-1.3,0.29-1.564,1.94-0.747,2.83c9.618,10.466,22.754-2.897,27.136-11.815c2.321-4.724,3.806-10.882,0.849-15.66
				c-3.932-6.352-13.456-5.063-19.537-3.8c-1.665,0.347-1.574,2.863,0,3.266c3.359,0.856,7.675,1.503,9.702-2.016
				c1.602-2.781-0.312-6.7-2.029-8.917c-5.594-7.223-20.06-10.582-26.502-2.738c-1.374,1.673,1.007,4.083,2.395,2.395
				c4.189-5.101,12.848-3.734,17.997-0.801c2.171,1.236,3.953,3.462,4.89,5.749c1.743,4.254-2.788,3.769-5.552,3.062
				c0,1.089,0,2.177,0,3.266c4.827-1.004,12.819-2.433,15.979,2.673c2.265,3.659,0.279,8.977-1.416,12.426
				c-3.315,6.747-13.925,18.779-21.517,10.517c-0.249,0.943-0.498,1.887-0.747,2.83c3.871-0.862,10.346-2.178,12.771,2.096
				c1.745,3.075-0.2,7.621-1.628,10.401c-2.935,5.714-11.67,15.396-18.462,9.383c-0.549,0.943-1.098,1.887-1.647,2.83
				c4.391,1.803,9.201,2.485,13.388,4.779c5.78,3.166,4.024,9.807,1.168,14.282c-2.804,4.395-18.743,19.621-20.001,7.162
				c-0.963,0.399-1.927,0.798-2.89,1.197c7.704,9.121-20.019,16.693-25.662,8.952c-1.031-1.414-2.958-0.852-3.155,0.854
				c-1.182,10.217-17.048,8.781-24.062,7.267c-4.044-0.873-7.422-2.52-10.22-5.613c-4.536-5.014-5.421-12.427,1.751-15.305
				c-0.549-0.943-1.098-1.887-1.647-2.83c-7.826,9.21-15.722,1.778-19.127-7.081c-3.322-8.644-3.697-22.312,6.966-25.763
				c-0.549-0.943-1.098-1.887-1.647-2.83c-10.469,11.432-22.683-4.54-20.531-15.718c1.941-10.084,14.741-26.614,26.312-20.896
				c0.435-1.031,0.87-2.062,1.305-3.095c-22.414-8.729,2.479-49.561,20.042-30.235c1.102,1.213,3.435-0.049,2.83-1.647
				c-4.544-12.013,4.979-19.469,16.117-20.927c8.604-1.125,22.68,2.025,17.062,13.508c-0.964,1.971,1.677,3.5,2.924,1.709
				c7.479-10.744,25.884-12.22,32.507,0.153c6.726,12.562-11.015,18.481-19.483,22.503
				C602.742,657.971,604.461,660.89,606.422,659.958L606.422,659.958z"/>
		</g>
	</g>
	<g>
		<path fill="#F4EDE1" d="M632.992,735.137c-23.902-5.942-28.385,15.846-12.947,30.206c4.979,4.953,14.44,13.864,22.409,12.874
			c5.974-0.495,9.958-6.438,14.44-9.903"/>
		<g>
			<path fill="#1D1B3A" d="M633.596,732.948c-7.535-1.726-16.486-1.852-21.738,4.776c-4.689,5.919-3.327,14.021-0.267,20.318
				c4.028,8.292,13.117,15.813,21.058,20.131c4.082,2.22,8.562,2.971,13.034,1.647c5.168-1.53,8.814-6.625,12.817-9.901
				c2.268-1.855-0.965-5.05-3.211-3.211c-3.067,2.51-5.664,5.545-8.958,7.774c-4.103,2.776-8.694,1.234-12.626-0.903
				c-6.412-3.486-13.124-9.748-17.096-15.889c-2.941-4.549-4.562-10.743-2.06-15.824c3.206-6.511,11.972-5.884,17.841-4.54
				C635.24,737.98,636.45,733.601,633.596,732.948L633.596,732.948z"/>
		</g>
	</g>
	<g>
		<path fill="#F4EDE1" d="M639.749,744.948c-18.418-2.708-10.833,18.958,5.417,17.334"/>
		<g>
			<path fill="#1D1B3A" d="M639.749,742.716c-7.039-0.906-14.64,2.324-12.587,10.614c1.911,7.716,10.682,11.751,18.003,11.183
				c2.85-0.222,2.871-4.686,0-4.463c-5.276,0.41-11.2-1.737-13.386-6.963c-2.396-5.727,3.753-6.452,7.97-5.908
				C642.597,747.545,642.562,743.08,639.749,742.716L639.749,742.716z"/>
		</g>
	</g>
	<g>
		<path fill="#F4EDE1" d="M777.527,1278.153c-6.126-5.783-11.682-6.452-14.958-5.137c-6.191,2.484-8.437,7.646-8.84,7.987
			c-5.13,4.595,11.893,26.992,22.718,33.425c5.456-5.36,9.165-11.28,12.69-22.56"/>
		<g>
			<path fill="#1D1B3A" d="M779.252,1276.428c-6.051-5.371-13.01-8.438-20.499-4.209c-3.701,2.091-8.431,7.165-8.394,11.655
				c0.05,6.037,5.009,12.297,8.447,16.82c4.565,6.006,9.953,11.837,16.409,15.839c0.927,0.575,2.198,0.381,2.956-0.381
				c6.647-6.683,10.458-14.741,13.317-23.636c0.965-3.003-3.745-4.279-4.703-1.297c-2.609,8.116-6.001,15.39-12.063,21.483
				c0.985-0.127,1.97-0.254,2.956-0.381c-8.898-5.518-16.696-15.06-21.205-24.435c-1.677-3.487-1.256-4.855,0.765-7.761
				c5.188-7.455,12.625-5.522,18.565-0.25C778.146,1281.958,781.609,1278.521,779.252,1276.428L779.252,1276.428z"/>
		</g>
	</g>
	<g>
		<path fill="#F4EDE1" d="M533.401,1299.381c6.126-5.784,21.984-18.438,25.26-17.123c6.191,2.485,8.437,7.646,8.84,7.987
			c5.13,4.595-11.893,26.992-22.718,33.426c-5.456-5.361-9.164-11.28-12.69-22.561"/>
		<g>
			<path fill="#1D1B3A" d="M535.125,1301.106c5.166-4.817,10.732-9.268,16.601-13.198c1.72-1.152,4.973-3.876,7.064-2.926
				c3.26,1.48,4.784,4.191,6.86,6.827c2.38,3.021-4.343,11.416-5.98,13.716c-4.307,6.051-9.764,12.102-16.117,16.041
				c0.985,0.127,1.97,0.254,2.956,0.381c-6.062-6.095-9.454-13.367-12.063-21.484c-0.958-2.982-5.668-1.706-4.703,1.297
				c2.859,8.895,6.67,16.953,13.317,23.637c0.757,0.762,2.029,0.956,2.956,0.381c7.799-4.836,14.078-12.24,19.227-19.732
				c2.902-4.224,8.495-12.639,3.985-17.523c-4.46-4.83-8.257-10.919-15.683-7.362c-8.003,3.832-15.425,10.49-21.867,16.498
				C529.372,1299.806,532.829,1303.248,535.125,1301.106L535.125,1301.106z"/>
		</g>
	</g>
	<g>
		<path fill="#A5A4B0" d="M549.106,1033.851c-31.857,50.819-26.547,157.767,10.619,250.302l-32.615,18.204
			c-1.151-3.455-49.341-44.298-55.371-160.867c-5.77-111.554,43.936-209.096,69.023-232.79
			c27.305-25.788,203.713-33.238,235.89,15.171c38.342,57.684,94.062,234.109,15.813,366.42l-31.745-20.541
			c2.32-9.408,37.748-162.598-22.408-253.954"/>
		<g>
			<path fill="#1D1B3A" d="M546.947,1032.589c-19.696,31.843-22.364,72.75-20.982,109.195
				c1.854,48.888,13.241,97.678,31.349,143.033c0.383-0.941,0.766-1.883,1.149-2.824c-10.872,6.068-21.743,12.137-32.615,18.205
				c1.224,0.498,2.448,0.996,3.672,1.494c-1.601-4.183-6.378-8.021-9.083-11.499c-7.306-9.391-13.4-19.724-18.662-30.375
				c-20.895-42.294-28.121-91.43-27.993-138.173c0.145-52.956,12.153-106.377,33.703-154.707
				c7.167-16.073,15.502-31.9,26.004-46.068c6.4-8.635,12.947-14.254,23.065-17.959c13.308-4.872,27.608-7.25,41.615-9.019
				c17.78-2.245,35.742-3.101,53.655-2.997c18.548,0.107,37.149,1.371,55.47,4.318c15.632,2.515,31.467,6.242,45.804,13.121
				c11.828,5.675,19.628,13.372,26.234,24.556c8.313,14.075,14.967,29.135,20.807,44.38c15.769,41.166,25.273,84.98,28.364,128.934
				c4.432,63.035-5.898,127.826-38.195,182.824c1.14-0.299,2.28-0.598,3.42-0.896c-10.582-6.848-21.163-13.694-31.745-20.541
				c0.383,0.94,0.766,1.882,1.149,2.822c5.463-22.241,8.491-45.26,10.549-68.032c3.825-42.317,2.926-85.806-7.436-127.186
				c-5.355-21.387-13.703-42.163-25.773-60.662c-1.754-2.688-6.085-0.186-4.317,2.523c24.811,38.026,32.961,84.386,34.347,129.07
				c1.092,35.248-2.125,70.745-8.526,105.404c-1.084,5.874-2.239,11.751-3.664,17.554c-0.278,1.131,0.182,2.197,1.149,2.822
				c10.582,6.848,21.163,13.694,31.745,20.541c1.146,0.742,2.754,0.238,3.42-0.896c49.638-84.527,48.173-189.726,21.696-281.587
				c-5.254-18.228-11.684-36.131-19.386-53.469c-5.613-12.635-11.786-26.065-20.411-36.979
				c-7.843-9.924-20.207-15.789-31.783-20.091c-15.533-5.772-32.061-8.741-48.452-10.782c-35.49-4.418-72.121-3.809-107.475,1.542
				c-12.986,1.965-26.274,4.581-38.391,9.805c-9.752,4.204-16.028,11.211-22.226,19.677c-10.601,14.481-18.85,30.734-26.078,47.106
				c-9.715,22.004-17.219,44.959-22.793,68.347c-12.903,54.132-13.994,110.893-2.638,165.399
				c5.626,27.003,14.889,53.631,29.232,77.288c3.908,6.445,8.268,12.607,13,18.472c1.389,1.722,2.825,3.404,4.267,5.081
				c0.47,0.547,0.94,1.094,1.395,1.652c-0.055-0.068,0.403,0.76,0.116,0.008c0.578,1.511,2.16,2.339,3.672,1.494
				c10.872-6.067,21.743-12.136,32.615-18.203c0.896-0.5,1.553-1.812,1.149-2.824c-17.601-44.084-28.601-91.098-31.03-138.551
				c-1.866-36.452,0.431-77.931,20.159-109.824C552.966,1032.363,548.64,1029.854,546.947,1032.589L546.947,1032.589z"/>
		</g>
	</g>
	<path fill="#1D1B3A" d="M535.715,1226.291c0,0,69.324,375.479,74.289,410.226c2.01,14.069,24.215,6.08,28.798-3.086
		c4.019-8.039-16.611-314.841,23.584-322.88c40.196-8.038,2.01,317.55,10.049,327.599s103.018-27.271,105.027-41.338
		c2.01-14.068-80.909,17.22-80.909,17.22s93.801-316.756,75.713-379.06S535.715,1226.291,535.715,1226.291z"/>
	<g>
		<path fill="#A5A4B0" d="M529.152,1013.605c-36.407,73.573,9.014,246.246,9.014,246.246s229.502,10.171,243.096-10.642
			c52.718-80.712-24.034-258.683-24.034-258.683"/>
		<g>
			<path fill="#1D1B3A" d="M527.046,1012.375c-16.031,32.832-15.712,72.775-13.669,108.406c2.089,36.439,7.794,72.71,15.24,108.414
				c2.184,10.476,4.479,20.953,7.198,31.305c0.284,1.082,1.271,1.742,2.352,1.79c47.947,2.121,96.036,3.051,144.022,2.247
				c27.614-0.463,56.172-0.593,83.347-6.105c5.839-1.186,14.183-2.671,17.833-7.99c9.672-14.1,14.425-31.598,16.848-48.314
				c5.528-38.139-0.572-77.656-9.242-114.858c-6.825-29.288-15.952-58.108-26.843-86.135c-1.542-3.967-3.113-7.928-4.797-11.837
				c-1.241-2.882-5.442-0.396-4.212,2.461c6.688,15.529,13.438,35.007,18.87,52.228c11.427,36.231,20.309,73.753,22.77,111.751
				c1.228,18.965,0.681,38.225-3.362,56.844c-1.864,8.584-4.603,16.996-8.367,24.938c-2.043,4.311-4.264,9.941-7.95,12.122
				c-7.082,4.19-16.806,4.999-24.771,6.035c-13.816,1.798-27.769,2.581-41.682,3.173c-55.88,2.376-112.021,0.988-167.889-1.245
				c-1.525-0.061-3.05-0.122-4.575-0.189c0.784,0.597,1.568,1.193,2.352,1.79c-5.019-19.107-8.894-38.565-12.361-58.004
				c-6.931-38.859-11.73-78.547-10.517-118.079c0.707-23.018,3.391-47.336,13.618-68.284
				C532.632,1012.021,528.426,1009.547,527.046,1012.375L527.046,1012.375z"/>
		</g>
	</g>
	<path fill="#1D1B3A" d="M740.081,1277.797c0,0,27.819,36.242,43.049,31.167c2.801-0.934-1.867,16.805-1.867,16.805
		s-1.868,23.343-21.474,37.347C749.506,1370.46,742.818,1300.614,740.081,1277.797z"/>
	<path fill="#1D1B3A" d="M567.366,1285.051c0,0-5.465,18.95-19.08,27.457s-13.614,8.507-13.614,8.507s18.085,36.745,30.145,40.519
		C576.877,1365.306,574.149,1307.009,567.366,1285.051z"/>
	<path fill="#1D1B3A" d="M610.004,1636.516c0,0,23.655-60.682,38.054-57.596s-9.256,54.51-9.256,54.51
		S624.403,1646.801,610.004,1636.516z"/>
</g>
</svg>
