<?xml version="1.0" encoding="utf-8"?>
<!-- Generator: Adobe Illustrator 16.0.4, SVG Export Plug-In . SVG Version: 6.00 Build 0)  -->
<!DOCTYPE svg PUBLIC "-//W3C//DTD SVG 1.1//EN" "http://www.w3.org/Graphics/SVG/1.1/DTD/svg11.dtd">
<svg version="1.1" id="char5-arm" xmlns="http://www.w3.org/2000/svg" xmlns:xlink="http://www.w3.org/1999/xlink" x="0px" y="0px"
	 width="2554.794px" height="1700.788px" viewBox="0 0 2554.794 1700.788" enable-background="new 0 0 2554.794 1700.788"
	 xml:space="preserve">
<g>
	<path fill="#F4EDE1" d="M1210.437,434.942c6.395-4.12,13.783-10.531,8.979-16.546l-0.081,1.375
		c-1.04,0.175-2.136,0.445-3.301,0.763l1.28-3.164c-2.479-1.436-10.006-3.332-12.379-1.601c-8.466,1.335-18.895,3.529-27.356,4.86
		l-1.231,0.36c2.741-1.726,4.76-3.665,6.499-7.458c0.569-1.229,8.343-13.597-7.146-13.879l-1.279-0.308
		c-1.143,2.46-1.063,3.29-2.198,5.747c-2.945,2.959-6.546,3.968-11.401,4.288c-9.025,2.557-17.573,0.703-25.938,5.203
		c-8.928,5.734-15.68,16.549-18.409,25.854c-0.686,1.166-1.454,3.166-2.246,5.677c1.046,0.892,1.809,2.251,1.711,3.922
		c-0.436,9.457-5.137,13.28-8.7,21.665c-0.45,1.094-4.018,8.635-4.865,8.896c-0.306,3.049,4.188,6.44,4.596,7.018l13.852,8.336
		c0.476,1.181,11.871-17.192,12.504-16.337c3.244,1.01,8.804-3.661,11.976-2.776c0.31,0.038,17.604-1.744,54.118-31.734
		C1208.973,437.917,1212.149,435.71,1210.437,434.942z"/>
	
		<path fill="none" stroke="#1D1B3A" stroke-width="3.6481" stroke-linecap="round" stroke-linejoin="round" stroke-miterlimit="10" d="
		M1149.992,431.058c11.179-6.975,46.863-15.965,55.311-17.276c2.38-1.744,9.917,0.15,12.397,1.588"/>
	
		<path fill="none" stroke="#1D1B3A" stroke-width="3.6481" stroke-linecap="round" stroke-linejoin="round" stroke-miterlimit="10" d="
		M1172.991,399.035c-1.134,2.453-1.051,3.273-2.193,5.732c-2.948,2.966-6.556,3.983-11.41,4.288
		c-9.021,2.561-17.574,0.71-25.936,5.225c-8.919,5.707-15.67,16.543-18.41,25.847c0.072,2.416-1.054,4.884-0.542,7.322
		c1.924,9.019-16.32,30.432-12.171,36.004c20.966,28.257,27.205-7.154,38.663-5.056"/>
	
		<path fill="none" stroke="#1D1B3A" stroke-width="3.6481" stroke-linecap="round" stroke-linejoin="round" stroke-miterlimit="10" d="
		M1174.269,399.333c15.477,0.285,7.725,12.652,7.152,13.879c-2.273,4.914-4.962,6.712-9.139,8.964
		c-5.424,1.53-11.812,1.5-17.895,1.105c-3.615,1.016-4.314,9.218-6.686,10.952"/>
	
		<path fill="none" stroke="#1D1B3A" stroke-width="3.6481" stroke-linecap="round" stroke-linejoin="round" stroke-miterlimit="10" d="
		M1217.98,418.068c6.948,8.705-2.998,10.695-7.176,12.942"/>
	
		<path fill="none" stroke="#1D1B3A" stroke-width="3.6481" stroke-linecap="round" stroke-linejoin="round" stroke-miterlimit="10" d="
		M1206.098,430.522c1.765,0.904,4.128,2.721,5.937,3.777c-1.938,4.184-13.057,11.612-24.344,19.991
		c-12.272,9.112-16.538,14.821-35.082,21.447c-4.896,1.747-11.469,1.883-16.753,2.163"/>
	
		<path fill="none" stroke="#1D1B3A" stroke-width="3.6481" stroke-linecap="round" stroke-linejoin="round" stroke-miterlimit="10" d="
		M1157.779,428.45c5.672,2.334,6.833,2.685,16.157,12.705"/>
	
		<path fill="none" stroke="#1D1B3A" stroke-width="3.6481" stroke-linecap="round" stroke-linejoin="round" stroke-miterlimit="10" d="
		M1217.883,419.463c-10.246,1.829-24.731,4.024-34.897,9.035c-5.41,1.53-12.668,3.479-18.088,5.002"/>
	<g>
		<g>
			<path fill="#1D1B3A" d="M1176.456,447.225c11.309-3.405,21.556-9.419,32.225-14.353c1.699-0.785,0.222-3.289-1.466-2.508
				c-10.442,4.827-20.464,10.727-31.532,14.06C1173.895,444.962,1174.657,447.767,1176.456,447.225L1176.456,447.225z"/>
		</g>
	</g>
</g>
<g>
	<polygon fill="#FFFFFF" points="1082.675,484.083 1100.12,458.782 1135.187,498.024 1110.943,515.118 	"/>
	<g>
		<path fill="#1D1B3A" d="M1084.237,484.996c5.815-8.434,11.63-16.867,17.445-25.301c-0.947,0.122-1.894,0.244-2.841,0.366
			c11.689,13.081,23.378,26.161,35.067,39.242c0.122-0.947,0.244-1.895,0.366-2.841c-8.082,5.697-16.163,11.396-24.244,17.094
			c0.731,0.094,1.461,0.188,2.192,0.282c-9.423-10.345-18.846-20.69-28.268-31.035c-1.574-1.729-4.125,0.838-2.559,2.559
			c9.423,10.345,18.846,20.69,28.268,31.035c0.51,0.561,1.557,0.73,2.192,0.282c8.082-5.697,16.163-11.396,24.244-17.094
			c0.983-0.693,1.189-1.92,0.366-2.841c-11.689-13.081-23.378-26.161-35.067-39.242c-0.827-0.925-2.216-0.541-2.841,0.366
			c-5.815,8.434-11.63,16.867-17.445,25.301C1079.785,485.096,1082.922,486.903,1084.237,484.996z"/>
	</g>
</g>
<path fill="#1D1B3A" d="M947.514,456.592c-3.354,1.278,45.543,74.289,79.304,70.715c36.223-3.832,62.018-61.46,62.018-61.46
	s26.975,27.983,34.354,45.229c0,0-44.186,55.144-105.231,59.615c-28.884,2.114-62.909-43.016-60.225-44.931
	C960.417,523.845,947.514,456.592,947.514,456.592z"/>
</svg>
