<?xml version="1.0" encoding="utf-8"?>
<!-- Generator: Adobe Illustrator 16.0.4, SVG Export Plug-In . SVG Version: 6.00 Build 0)  -->
<!DOCTYPE svg PUBLIC "-//W3C//DTD SVG 1.1//EN" "http://www.w3.org/Graphics/SVG/1.1/DTD/svg11.dtd">
<svg version="1.1" id="char2" xmlns="http://www.w3.org/2000/svg" xmlns:xlink="http://www.w3.org/1999/xlink" x="0px" y="0px"
	 width="2554.794px" height="1700.788px" viewBox="0 0 2554.794 1700.788" enable-background="new 0 0 2554.794 1700.788"
	 xml:space="preserve">
<g>
	<g>
		<g>
			<path fill="#F4EDE1" d="M1203.563,724.716c9.711,1.269,19.42,2.539,27.917-1.27c0,16.508-12.138,26.664-26.703,30.474"/>
			<g>
				<path fill="#1D1B3A" d="M1203.563,726.897c9.589,1.247,19.309,2.402,28.496-1.347c-0.92-0.701-1.84-1.402-2.761-2.104
					c-0.327,15.049-11.346,24.577-25.102,28.37c-2.708,0.747-1.557,4.956,1.159,4.207c15.676-4.323,27.936-15.583,28.305-32.577
					c0.028-1.297-1.44-2.643-2.761-2.104c-8.835,3.606-18.131,2.389-27.337,1.192
					C1200.78,722.173,1200.814,726.541,1203.563,726.897L1203.563,726.897z"/>
			</g>
		</g>
		<g>
			<path fill="#F4EDE1" d="M1123.926,906.697c0-13.967,3.442-54.457,0.784-54.877c-7.815-1.237-14.821-1.703-22.736-3.918
				c-19.599-5.49-36.337-10.028-50.902-21.458c-41.268-34.283-80.106-97.772-31.558-143.484
				c35.199-35.554,129.872-52.061,162.642-6.349c23.061,30.475,31.558,92.694,26.702,130.788
				c-2.427,12.698-6.068,26.666-16.992,34.283c-6.068,5.079-18.206,2.541-23.06,6.35c-12.139,10.157-8.034,42.985-4.114,61.018"/>
			<g>
				<path fill="#1D1B3A" d="M1126.107,906.697c0.066-17.02,2.585-34.115,1.683-51.131c-0.083-1.56-0.086-3.919-1.295-5.12
					c-1.196-1.188-3.223-1.035-4.761-1.255c-4.032-0.576-8.069-1.071-12.082-1.771c-13.549-2.364-27.759-6.98-40.314-12.573
					c-22.118-9.854-40.065-30.548-52.932-50.571c-12.517-19.479-20.913-43.206-15.578-66.431
					c4.903-21.341,21.983-37.844,40.482-48.276c17.653-9.957,37.914-15.658,57.993-17.84c19.479-2.116,40.232-0.727,58.203,7.617
					c18.716,8.689,29.46,25.813,36.651,44.5c7.692,19.987,11.511,41.551,13.15,62.835c1.534,19.926,2.019,42.124-6.542,60.65
					c-2.497,5.402-6.199,9.654-10.954,13.175c-3.875,2.869-9.833,2.512-14.384,3.157c-7.807,1.109-11.723,5.45-14.33,12.708
					c-2.993,8.329-2.809,17.909-2.311,26.606c0.513,8.954,1.926,17.89,3.802,26.652c0.589,2.75,4.794,1.583,4.207-1.16
					c-2.27-10.596-3.75-21.37-3.885-32.217c-0.097-7.775,0.042-24.024,9.106-27.45c4.643-1.755,10.111-1.295,14.948-2.418
					c5.168-1.199,9.423-5.132,12.713-9.095c6.921-8.336,10.202-20.48,11.502-31.041c2.759-22.396,0.867-45.551-3.102-67.681
					c-3.869-21.574-10.394-44.142-23.352-62.134c-22.741-31.577-66.868-33.583-101.812-26.538
					c-37.649,7.591-80.476,30.411-87.312,71.955c-3.509,21.325,4.095,42.811,14.789,60.978
					c11.412,19.387,28.012,38.881,47.264,50.809c10.859,6.729,23.326,10.545,35.511,14.051c6.783,1.951,13.497,3.735,20.489,4.768
					c3.487,0.514,6.987,0.936,10.473,1.468c-1.182-0.181-1.211-1.622-0.907-0.3c0.146,0.631,0.161,1.299,0.205,1.942
					c1.166,16.963-1.617,34.15-1.683,51.131C1121.734,909.51,1126.096,909.509,1126.107,906.697L1126.107,906.697z"/>
			</g>
		</g>
		<g>
			<g>
				<path fill="#1D1B3A" d="M1085.779,677.204c4.681,9.588,12.099,20.269,1.443,28.699c-1.482,1.172,0.607,3.231,2.072,2.072
					c11.849-9.375,4.31-21.406-0.985-32.25C1087.48,674.027,1084.954,675.513,1085.779,677.204L1085.779,677.204z"/>
			</g>
		</g>
		<g>
			<g>
				<path fill="#1D1B3A" d="M1188.948,714.027c1.145,2.548,1.012,5.42,1.013,8.15c0,1.89,2.932,1.89,2.931,0
					c-0.001-3.325-0.027-6.548-1.413-9.629C1190.705,710.827,1188.18,712.319,1188.948,714.027L1188.948,714.027z"/>
			</g>
		</g>
		<g>
			<path fill="#EFEA77" d="M1162.62,651.969c1.488,1.258,8.288,54.112-2.438,81.898c-9.5,24.614-1.462,76.538-9.75,96.525
				c-8.288,19.989-13.65,27.3-36.075,25.839c-50.602-3.302-115.261-88.93-103.35-147.713
				C1026.12,633.931,1134.345,628.082,1162.62,651.969z"/>
			<g>
				<path fill="#1D1B3A" d="M1161.078,653.511c-0.862-1.05-0.145,0.141,0.014,0.847c0.228,1.015,0.39,2.045,0.555,3.071
					c0.595,3.702,0.962,7.441,1.296,11.174c0.913,10.177,1.189,20.419,0.842,30.63c-0.366,10.771-1.549,21.679-4.942,31.952
					c-3.052,9.239-4.704,18.227-5.404,27.953c-1.537,21.363,1.283,43.686-3.286,64.734c-1.804,8.311-6.168,17.954-12.057,24.182
					c-6.449,6.821-16.999,6.654-25.63,5.836c-18.978-1.802-36.271-14.461-49.733-27.055c-16.285-15.234-29.415-33.965-38.854-54.128
					c-8.815-18.83-14.518-40.564-11.176-61.406c2.868-17.887,12.542-33.664,26.322-45.224c18.56-15.568,43.612-22.719,67.425-24.213
					C1123.898,640.77,1146.882,641.761,1161.078,653.511c2.149,1.779,5.254-1.289,3.085-3.084
					c-9.113-7.543-21.385-10.606-32.877-12.102c-15.654-2.037-31.613-1.071-47.03,2.212c-32.99,7.025-63.661,27.271-73.725,60.81
					c-11.892,39.63,10.253,83.454,34.911,113.391c12.659,15.369,28.287,29.337,46.516,37.69
					c13.364,6.125,34.784,10.902,47.281,0.471c6.183-5.161,9.473-12.877,12.541-20.119c3.187-7.521,4.064-15.566,4.599-23.657
					c1.412-21.366-0.672-43.103,3.101-64.28c1.543-8.661,5.197-16.688,6.71-25.394c1.762-10.131,2.167-20.49,2.094-30.754
					c-0.063-8.908-0.625-17.83-1.652-26.679c-0.383-3.298-0.221-8.852-2.469-11.589
					C1162.376,648.251,1159.308,651.356,1161.078,653.511z"/>
			</g>
		</g>
		<g>
			<path fill="#EFEA77" d="M1065.127,681.169c-20.634-15.239-47.336-25.396-71.611-16.507
				c-58.26,20.316-36.413,76.186-8.497,111.741c16.993,21.586,49.763,53.329,36.413,85.075c-8.497,22.856-36.413,21.586-47.336,0
				c29.13,24.126,49.764,46.982,88.603,21.586c35.2-21.586,58.26-71.107,33.985-110.472c-14.564-26.664-48.55-33.014-64.328-59.681
				c-13.351-21.585,4.855-34.282,25.488-21.585c0-6.349-1.213-13.968-3.64-19.047"/>
			<g>
				<path fill="#1D1B3A" d="M1066.228,679.286c-20.863-15.202-47.713-25.65-73.292-16.727
					c-17.543,6.121-32.973,17.803-37.227,36.673c-3.842,17.045,2.092,35.03,9.543,50.225c9.097,18.551,22.774,33.515,35.471,49.573
					c13.649,17.262,27.613,39.33,18.606,61.869c-3.635,9.095-11.154,15.22-21.168,15.051c-9.82-0.166-17.812-7.316-22.181-15.571
					c-1.142,0.881-2.284,1.762-3.426,2.643c16.583,13.779,33.95,31.981,56.81,33.298c12.384,0.713,24.275-4.862,34.436-11.37
					c9.506-6.089,17.823-13.435,24.886-22.262c13.87-17.335,21.983-39.701,19.822-62.003c-2.218-22.887-15.837-40.997-34.006-54.037
					c-13.753-9.871-29.007-18.103-38.755-32.43c-4.22-6.203-8.988-15.931-2.883-22.497c6.158-6.624,17.56-2.236,23.879,1.491
					c1.41,0.831,3.308-0.228,3.282-1.884c-0.108-6.923-1.134-13.779-3.938-20.147c-1.131-2.57-4.889-0.348-3.767,2.201
					c2.479,5.631,3.246,11.847,3.342,17.946c1.094-0.628,2.188-1.256,3.282-1.884c-7.916-4.668-17.993-7.707-26.542-2.862
					c-7.713,4.372-7.714,14.06-4.983,21.377c7.944,21.281,31.102,32.17,48.159,44.85c20.009,14.874,30.948,37.981,28.555,62.944
					c-2.3,23.988-16.907,46.475-35.813,60.859c-14.203,10.807-31.54,18.889-49.444,13.416
					c-16.704-5.105-30.151-19.218-43.238-30.091c-1.877-1.561-4.63,0.367-3.426,2.643c8.278,15.643,27.795,23.745,42.805,11.996
					c7.816-6.117,11.134-17.385,11.683-26.868c0.647-11.188-3.784-22.173-9.106-31.766c-10.868-19.586-27.766-34.909-39.95-53.598
					c-10.119-15.521-18.673-33.766-18.699-52.636c-0.027-19.124,12.165-32.833,28.908-40.489
					c26.339-12.045,54.002-2.322,76.173,13.834C1066.304,684.712,1068.477,680.925,1066.228,679.286L1066.228,679.286z"/>
			</g>
		</g>
		<g>
			<path fill="#F4EDE1" d="M1161.451,740.32c-21.968,0-8.786,43.172,4.393,46.981"/>
			<g>
				<path fill="#1D1B3A" d="M1161.451,737.924c-25.08,0.684-13.14,46.117,3.756,51.688c2.943,0.97,4.194-3.658,1.273-4.621
					c-12.019-3.962-23.417-41.773-5.029-42.275C1164.534,742.631,1164.542,737.839,1161.451,737.924L1161.451,737.924z"/>
			</g>
		</g>
		<g>
			<g>
				<path fill="#1D1B3A" d="M1164.798,747.958c-10.688,3.654-5.894,19.871-0.528,26.119c2.017,2.348,5.39-1.058,3.389-3.389
					c-2.692-3.135-7.874-15.96-1.587-18.109C1168.978,751.584,1167.73,746.956,1164.798,747.958L1164.798,747.958z"/>
			</g>
		</g>
	</g>
	<g>
		<g>
			<path fill="#1D1B3A" d="M1160.965,893.564c0,0,38.098,4.089,41.272,8.997c3.175,4.906,93.265,179.979,89.543,194.122
				c-8.62,32.757-93.099,122.408-91.375,127.58l-18.964-32.757c0,0,68.961-67.237,63.789-105.167
				c-3.987-29.238-90.02-71.106-90.02-71.106S1157.792,890.906,1160.965,893.564z"/>
			<g>
				<path fill="#1D1B3A" d="M1160.965,896.208c5.244,0.566,10.474,1.278,15.687,2.075c7.258,1.11,15.495,1.941,22.226,5.067
					c1.633,0.759,2.154,2.454,3,4.04c1.75,3.28,3.464,6.579,5.176,9.879c13.458,25.942,26.54,52.085,39.348,78.354
					c13.297,27.271,26.876,54.673,37.786,83.012c1.557,4.044,3.048,8.132,4.196,12.314c0.851,3.099,1.064,4.436,0.37,6.67
					c-4.223,13.601-13.935,26.065-22.163,37.441c-14.527,20.086-30.46,39.129-46.225,58.243
					c-5.608,6.799-11.239,13.586-16.61,20.575c-2.017,2.624-6.739,7.336-5.899,11.088c1.61-0.68,3.221-1.358,4.831-2.037
					c-6.321-10.919-12.643-21.838-18.964-32.757c-0.138,1.067-0.275,2.136-0.413,3.203c19.399-18.942,37.507-40.481,51.311-63.837
					c7.684-13.002,15.477-28.968,13.063-44.513c-2.11-13.587-16.517-24.776-26.533-32.643
					c-19.749-15.512-42.047-28.438-64.607-39.433c0.437,0.761,0.873,1.521,1.309,2.282c0.405-19.462,0.934-38.923,1.572-58.378
					c0.454-13.822,0.957-27.646,1.715-41.455c0.263-4.786,0.558-9.574,0.994-14.349c0.129-1.418,0.267-2.839,0.481-4.247
					c0.079-0.52,0.175-1.035,0.295-1.547c0.337-1.44-0.325,2.437-3.28,0.589c2.899,1.812,5.551-2.763,2.668-4.564
					c-5.872-3.671-5.764,13.462-5.913,15.548c-0.999,14.023-1.481,28.09-1.978,42.138c-0.782,22.083-1.381,44.174-1.84,66.266
					c-0.018,0.871,0.503,1.89,1.309,2.282c23.969,11.683,47.941,25.465,68.441,42.573c10.763,8.982,21.758,19.435,20.329,34.485
					c-1.641,17.279-12.833,33.825-22.539,47.613c-11.921,16.938-25.708,32.972-40.536,47.45c-0.851,0.831-1.003,2.184-0.413,3.203
					c6.321,10.919,12.643,21.838,18.964,32.757c1.543,2.666,5.475,0.841,4.831-2.037c0.187,0.837-0.059,0.989,0.075,0.699
					c0.243-0.524,0.551-1.02,0.853-1.511c1.027-1.67,2.212-3.247,3.385-4.815c3.68-4.918,7.609-9.656,11.501-14.407
					c11.205-13.677,22.542-27.243,33.534-41.093c11.02-13.885,21.906-28.001,31.317-43.043c4.552-7.275,12.152-17.645,10.576-26.757
					c-1.53-8.844-5.646-17.526-9.073-25.745c-5.704-13.681-11.893-27.157-18.181-40.577c-14.002-29.879-28.681-59.445-43.616-88.868
					c-5.967-11.756-11.837-23.596-18.195-35.148c-3.114-5.659-12.248-6.425-17.89-7.531c-8.676-1.701-17.487-2.893-26.277-3.843
					C1157.578,890.555,1157.613,895.845,1160.965,896.208z"/>
			</g>
		</g>
		<g>
			<path fill="#1D1B3A" d="M1113.736,891.84c0,0-38.099,4.088-41.272,8.996c-3.175,4.906-93.265,179.979-89.544,194.123
				c8.62,32.756,93.099,122.407,91.375,127.579l18.965-32.756c0,0-68.961-67.238-63.789-105.167
				c3.987-29.239,90.02-71.107,90.02-71.107S1116.909,889.181,1113.736,891.84z"/>
			<g>
				<path fill="#1D1B3A" d="M1113.736,889.197c-12.65,1.366-26.223,2.552-38.248,6.877c-5.977,2.15-7.697,7.768-10.445,13.031
					c-12.9,24.71-25.385,49.645-37.664,74.669c-13.812,28.147-27.641,56.419-39.484,85.466c-3.064,7.516-6.804,15.586-7.682,23.748
					c-0.401,3.727,1.821,7.739,3.309,11.005c2.942,6.459,6.746,12.533,10.624,18.462c14.384,21.99,31.32,42.345,47.996,62.609
					c7.001,8.508,14.075,16.959,20.95,25.57c2.201,2.756,4.381,5.533,6.412,8.418c0.636,0.904,1.247,1.828,1.799,2.786
					c0.643,1.115,0.196,1.094,0.442-0.003c-0.645,2.878,3.288,4.703,4.831,2.037c6.322-10.919,12.644-21.837,18.965-32.756
					c0.59-1.02,0.438-2.372-0.413-3.203c-19.601-19.14-37.962-40.917-51.604-64.705c-6.759-11.787-16.122-29.769-9.811-43.515
					c6.509-14.179,22.082-24.662,34.454-33.237c16.646-11.536,34.446-21.79,52.657-30.666c0.806-0.393,1.327-1.411,1.309-2.282
					c-0.453-21.764-1.049-43.526-1.806-65.281c-0.492-14.161-1.005-28.333-1.967-42.472c-0.142-2.085-0.022-19.91-5.958-16.197
					c-2.882,1.803-0.231,6.378,2.668,4.564c-2.779-1.559-3.866-1.801-3.263-0.727c-0.374-0.7-0.135-0.293-0.067-0.055
					c0.135,0.469,0.213,0.956,0.296,1.436c0.23,1.34,0.351,2.699,0.482,4.051c0.481,4.938,0.764,9.896,1.041,14.849
					c0.772,13.808,1.258,27.633,1.715,41.454c0.643,19.455,1.167,38.916,1.572,58.378c0.436-0.761,0.873-1.521,1.309-2.282
					c-23.811,11.605-47.344,25.338-67.91,42.072c-10.139,8.25-22.277,19.049-23.592,32.903c-1.513,15.946,7.724,32.438,15.76,45.481
					c13.444,21.82,30.644,42.069,48.975,59.969c-0.138-1.068-0.275-2.136-0.413-3.203c-6.322,10.919-12.644,21.837-18.965,32.756
					c1.61,0.679,3.221,1.357,4.831,2.037c0.582-2.6-1.648-5.258-3.036-7.229c-3.082-4.377-6.49-8.537-9.855-12.697
					c-10.618-13.129-21.502-26.039-32.097-39.188c-11.572-14.362-22.984-28.933-33.144-44.341
					c-3.907-5.925-7.618-12.025-10.625-18.462c-1.065-2.28-1.955-4.64-2.618-7.067c0.075,0.273,0.052-1.474,0.133-1.942
					c1.53-8.844,5.646-17.527,9.073-25.745c5.783-13.872,12.107-27.523,18.498-41.123c13.986-29.765,28.623-59.228,43.521-88.545
					c5.631-11.08,11.211-22.206,17.147-33.128c2.413-4.44,10.545-4.759,15.024-5.637c8.215-1.611,16.549-2.755,24.872-3.653
					C1117.088,894.122,1117.123,888.832,1113.736,889.197z"/>
			</g>
		</g>
		<g>
			<path fill="#1D1B3A" d="M1205.047,1366.535c7.651-14.21,39.432-422.049-16.736-470.729c-5.405-4.684-75.336-2.117-97.357-1.871
				c-43.523,0.488-31.991,32.594-31.991,323.115c0,43.239,9.458,132.424,17.566,149.988
				C1076.53,1367.039,1196.547,1382.322,1205.047,1366.535z"/>
			<g>
				<path fill="#1D1B3A" d="M1207.24,1367.816c1.685-3.253,1.94-7.485,2.475-11.035c1.185-7.868,2.06-15.786,2.885-23.699
					c2.658-25.496,4.511-51.081,6.085-76.664c4.218-68.532,6.29-137.399,3.771-206.039c-1.116-30.412-3.13-60.928-7.978-90.999
					c-3.148-19.533-6.995-41.594-18.305-58.324c-1.881-2.783-4.074-5.517-6.75-7.572c-3.213-2.468-9.637-2.138-13.401-2.394
					c-18.304-1.246-36.793-0.633-55.118-0.287c-11.609,0.219-23.432-0.162-35.008,0.826c-4.264,0.365-8.466,1.231-12.288,3.218
					c-8.651,4.496-12.197,14.427-14.161,23.365c-4.115,18.732-4.004,38.56-4.27,57.632c-0.506,36.21,0.167,72.441,0.52,108.65
					c0.255,26.177,0.47,52.354,0.597,78.531c0.125,25.686-0.459,51.432,0.776,77.097c1.065,22.11,3.055,44.19,5.63,66.174
					c2.078,17.734,4.224,35.739,8.643,53.072c0.784,3.075,1.667,9.769,5.454,10.244c2.824,0.354,5.651,0.683,8.479,1.004
					c13.691,1.559,27.414,2.863,41.157,3.884c17.279,1.284,34.691,2.245,52.017,1.474
					C1186.389,1375.621,1202.471,1375.991,1207.24,1367.816c1.653-2.834-2.736-5.39-4.386-2.562
					c-1.366,2.342-5.235,3.107-7.697,3.699c-5.176,1.246-10.559,1.617-15.858,1.9c-14.557,0.779-29.209,0.085-43.745-0.811
					c-19.712-1.214-39.43-3.053-59.024-5.543c0.731,0.419,1.462,0.838,2.193,1.258c-2.334-5.202-3.372-11.123-4.502-16.672
					c-1.817-8.922-3.173-17.938-4.427-26.954c-3.084-22.181-5.223-44.514-6.753-66.854c-1.615-23.564-1.519-47.077-1.585-70.687
					c-0.078-27.619-0.268-55.238-0.518-82.856c-0.348-38.622-1.017-77.253-0.78-115.877c0.126-20.682-0.132-41.934,3.422-62.385
					c1.58-9.088,4.3-19.35,11.826-23.816c2.967-1.761,7.035-2.636,10.49-2.949c11.561-1.049,23.41-0.604,35.008-0.827
					c18.339-0.353,36.797-0.868,55.118,0.288c3.578,0.226,9.075,0.035,11.574,2.424c2.448,2.339,4.378,5.135,6.094,8.038
					c10.799,18.271,14.13,41.409,17.104,62.052c4.477,31.086,6.094,62.602,6.982,93.969c0.999,35.275,0.713,70.585-0.25,105.858
					c-1.56,57.112-4.398,114.448-10.723,171.254c-0.657,5.901-1.36,11.802-2.293,17.667c-0.291,1.824-0.607,3.646-1.006,5.449
					c-0.127,0.575-0.269,1.146-0.432,1.713c-0.271,0.939-0.146,0.525-0.216,0.661
					C1201.351,1368.157,1205.733,1370.725,1207.24,1367.816z"/>
			</g>
		</g>
		<path fill="#1D1B3A" stroke="#1D1B3A" stroke-width="1.1656" stroke-miterlimit="10" d="M1207.116,1353.181
			c0,0-23.417,288.14-37.523,299.688c-14.106,11.548-24.438-173.578-16.49-219.822c10.92-63.536,21.84-104.239,21.84-104.239
			L1207.116,1353.181z"/>
		<path fill="#1D1B3A" d="M1162.887,1640.103c41.597-33.65,58.974-49.396,71.042-47.672c6.154,0.879-14.022,37.389-62.162,60.291
			C1147.997,1664.031,1162.887,1640.103,1162.887,1640.103z"/>
		<path fill="#1D1B3A" d="M1107.27,1639.636c41.596-33.651,58.973-49.396,71.042-47.674c6.154,0.879-14.022,37.391-62.161,60.293
			C1092.379,1663.564,1107.27,1639.636,1107.27,1639.636z"/>
		<path fill="#1D1B3A" stroke="#1D1B3A" stroke-width="1.1656" stroke-miterlimit="10" d="M1143.327,1353.181
			c0,0-23.417,288.14-37.523,299.688s-24.438-173.578-16.49-219.822c10.92-63.536,21.84-104.239,21.84-104.239L1143.327,1353.181z"
			/>
	</g>
</g>
</svg>
