<?xml version="1.0" encoding="utf-8"?>
<!-- Generator: Adobe Illustrator 16.0.4, SVG Export Plug-In . SVG Version: 6.00 Build 0)  -->
<!DOCTYPE svg PUBLIC "-//W3C//DTD SVG 1.1//EN" "http://www.w3.org/Graphics/SVG/1.1/DTD/svg11.dtd">
<svg version="1.1" id="char5" xmlns="http://www.w3.org/2000/svg" xmlns:xlink="http://www.w3.org/1999/xlink" x="0px" y="0px"
	 width="2554.794px" height="1700.788px" viewBox="0 0 2554.794 1700.788" enable-background="new 0 0 2554.794 1700.788"
	 xml:space="preserve">
<g>
	<path fill="#1D1B3A" d="M849.887,618.994c-23.933-12.929-103.072-53.984-106.979-62.468c-5.363-11.652,65.826-55.08,65.826-55.08
		s9.874-9.166,11.52-6.604c-3.372-24.647-4.659-43.538-27.43-54.684c-18.857,27.749-115.977,71.601-99.784,114.47
		c14.656,38.792,106.641,92.027,106.641,92.027S851.033,628.402,849.887,618.994z"/>
	<path fill="#F4EDE1" d="M843.349,616.406l23.946,10.704c0,0,12.788,6.76,12.803,13.77c0.014,7.009-4.421,30.416-17.125,34.335
		c-12.707,3.921-12.2,8.576-17.396,7.782c-5.198-0.796-31.683-6.938-30.915-11.385c0.766-4.446,7.109-5.808,7.109-5.808
		s-9.144-1.439-9.852-4.856c-0.71-3.42,0.103-8.64,3.107-7.626c3.004,1.015,6.182-0.005,6.182-0.005s-6.586-2.784-7.009-5.391
		c-0.426-2.604,7.382-5.804,7.382-5.804l-8.827-3.837L843.349,616.406z"/>
	<path fill="#1D1B3A" d="M835.379,614.731l0.617,0.09l1.339,0.219l1.42,0.276l1.479,0.319l1.532,0.363l1.581,0.407l2.441,0.683
		l3.371,1.039l3.458,1.175l3.481,1.292l3.458,1.395l3.375,1.482l3.245,1.554l2.322,1.208l1.483,0.825l1.413,0.83l1.348,0.843
		l1.268,0.852l1.191,0.857l1.104,0.869l1.011,0.875l0.913,0.888l0.812,0.904l0.699,0.925l0.578,0.954l0.268,0.545
		c0.017,0.034,0.033,0.071,0.048,0.11l0.263,0.667l0.469,1.554l0.316,1.668l0.159,1.727l0.006,1.77l-0.128,1.808l-0.261,1.843
		l-0.385,1.868l-0.5,1.885l-0.608,1.899l-0.71,1.904l-0.808,1.903l-0.902,1.896l-0.987,1.879l-1.066,1.857l-1.145,1.827
		l-1.214,1.787l-1.282,1.743l-1.343,1.69l-1.397,1.628l-1.451,1.558l-1.498,1.484l-1.54,1.396l-1.58,1.304l-1.615,1.202
		l-1.647,1.095l-1.675,0.972l-1.702,0.849l-1.725,0.708l-1.746,0.56l-1.762,0.398l-1.774,0.226l-0.944,0.045
		c-0.033,0.001-0.065,0.003-0.1,0.002l-0.872-0.007l-1.905-0.107l-1.968-0.225l-1.966-0.317l-2.897-0.583l-2.814-0.659l-1.783-0.444
		l-0.852-0.212c-0.002,0-0.003-0.002-0.006-0.002l-1.029-0.261l-1.979-0.527l-1.845-0.524l-1.713-0.523l-1.582-0.521l-1.457-0.518
		l-1.334-0.52l-1.219-0.516l-1.108-0.516l-0.999-0.516l-0.897-0.521l-0.799-0.525l-0.708-0.539l-0.623-0.554l-0.534-0.583
		l-0.449-0.618l-0.353-0.661l-0.242-0.708l-0.11-0.746l0.039-0.756l0.182-0.729l0.306-0.674l0.591-0.834l1.025-0.961l1.247-0.823
		l1.389-0.691l1.517-0.594l1.625-0.514l1.717-0.439l1.784-0.364l1.829-0.297l1.849-0.217l1.843-0.145l1.81-0.065l1.757,0.018
		l1.679,0.102l1.578,0.195l1.46,0.294l1.04,0.307l0.672,0.258l0.607,0.294l0.575,0.346l0.534,0.413l0.486,0.494l0.41,0.587
		l0.301,0.682l0.158,0.748l-0.003,0.772l-0.074,0.462c-0.026,0.131-0.063,0.254-0.116,0.376l-0.056,0.126l-0.797,0.919l-1.144,0.467
		l-0.939,0.075l-0.844-0.065l-0.823-0.132l-1.239-0.273l-1.696-0.457l-1.631-0.487l-1.084-0.326l-0.612-0.177l-0.494-0.131
		l-0.334-0.069l-0.023,0.002l0.091,0.011l-0.489-0.049l-1.108-0.098l-1.304-0.103l-1.472-0.116l-1.604-0.139l-1.697-0.167
		l-1.757-0.205l-1.786-0.254l-1.784-0.306l-1.75-0.373l-1.687-0.448l-1.599-0.54l-1.487-0.646l-1.055-0.591l-0.672-0.458
		l-0.598-0.493l-0.546-0.548l-0.482-0.611l-0.406-0.676l-0.196-0.428c-0.015-0.032-0.028-0.067-0.039-0.099l-0.106-0.289
		l-0.197-0.671l-0.138-0.699l-0.054-0.69l0.031-0.679l0.12-0.664l0.211-0.638l0.297-0.596l0.542-0.748l0.912-0.837l1.077-0.67
		l1.144-0.501l1.186-0.38l1.204-0.286l1.786-0.307l2.31-0.277l1.573-0.163l0.894-0.107l0.375-0.054c0.006,0,0.012-0.001,0.015-0.001
		l1.174-0.156l2.547-0.207l2.66-0.051l2.695,0.122l2.687,0.296l2.636,0.477l1.94,0.487l1.265,0.391l1.208,0.438l1.166,0.492
		l0.593,0.277c0.986,0.468,1.388,1.609,0.895,2.55c-0.492,0.941-1.689,1.323-2.679,0.854l0,0l-0.434-0.208l-0.969-0.415
		l-1.024-0.373l-1.051-0.331l-1.662-0.427l-2.351-0.435l-2.415-0.275l-2.432-0.115l-2.392,0.036l-2.335,0.184l-1.172,0.156
		l0.015-0.001l-0.467,0.064l-0.949,0.111l-1.51,0.155l-2.105,0.249l-1.536,0.255l-0.918,0.212l-0.808,0.239l-0.661,0.261
		l-0.494,0.253l-0.373,0.27l-0.201,0.22l-0.083,0.115l-0.068,0.132l-0.054,0.168l-0.028,0.215l0.004,0.271l0.051,0.333l0.12,0.433
		l0.106,0.29l-0.04-0.104l0.014,0.064l0.125,0.255l0.187,0.265l0.251,0.274l0.319,0.278l0.36,0.262l0.684,0.402l1.149,0.517
		l1.338,0.458l1.482,0.398l1.589,0.345l1.655,0.284l1.688,0.24l1.684,0.198l1.643,0.163l1.573,0.134l1.469,0.117l1.339,0.109
		l1.17,0.1l0.491,0.052c0.032,0.002,0.061,0.005,0.093,0.009l0.306,0.051l0.515,0.115l0.582,0.154l0.653,0.188l1.073,0.324
		l1.536,0.455l1.517,0.415l1.011,0.228l0.526,0.095l0.344,0.048l0.042,0.046l-0.403,0.287l-0.343,0.557l0.055-0.128l-0.117,0.374
		l0.01,0.049l0.041-0.022l0.043,0.002l0.036-0.016l-0.003-0.055l-0.062-0.099l-0.139-0.132l-0.223-0.152l-0.304-0.156l-0.348-0.146
		l-0.677-0.213l-1.135-0.241l-1.317-0.171l-1.46-0.094l-1.565-0.018l-1.637,0.055l-1.674,0.127l-1.679,0.196l-1.654,0.263
		l-1.592,0.319l-1.498,0.378l-1.366,0.423l-1.2,0.454l-0.99,0.47l-0.742,0.44l-0.508,0.404l-0.227,0.248l-0.07,0.078l-0.048,0.041
		l-0.038,0.037l-0.029,0.065l0.009,0.124l0.072,0.186l0.158,0.252l0.258,0.302l0.371,0.347l0.484,0.379l0.604,0.402l0.724,0.427
		l0.847,0.44l0.972,0.455l1.099,0.469l1.231,0.479l1.362,0.485l1.498,0.493l1.634,0.5l1.778,0.509l1.926,0.512l1.033,0.261h-0.007
		l0.844,0.21l1.733,0.431l2.688,0.632l2.734,0.554l1.784,0.291l1.729,0.205l1.684,0.102l0.87,0.005l-0.1,0.001l0.616-0.016
		l1.372-0.156l1.406-0.304l1.435-0.448l1.455-0.588l1.466-0.722l1.474-0.848l1.469-0.967l1.459-1.08l1.441-1.183l1.417-1.282
		l1.386-1.364l1.347-1.445l1.305-1.515l1.254-1.577l1.2-1.629l1.138-1.671l1.068-1.703l0.999-1.732l0.922-1.743l0.836-1.756
		l0.749-1.755l0.653-1.739l0.556-1.719l0.454-1.689l0.345-1.647l0.234-1.597l0.121-1.532l0.005-1.462l-0.11-1.38l-0.229-1.294
		l-0.362-1.249l-0.266-0.668l0.05,0.109l-0.101-0.23l-0.357-0.621l-0.492-0.669l-0.621-0.708l-0.75-0.734l-0.862-0.754l-0.974-0.77
		l-1.074-0.779l-1.165-0.782l-1.252-0.783l-1.327-0.783l-1.388-0.771l-2.201-1.151l-3.121-1.496l-3.263-1.433l-3.348-1.355
		l-3.374-1.251l-3.346-1.139l-3.264-1.009l-2.357-0.659l-1.507-0.387l-1.452-0.348l-1.387-0.301l-1.315-0.252l-1.25-0.211
		l-0.617-0.091c-1.089-0.154-1.841-1.125-1.675-2.16C833.27,615.287,834.288,614.573,835.379,614.731"/>
	<path fill="#1D1B3A" d="M812.683,637.121l0.604,0.357l1.198,0.666l1.901,0.952l2.698,1.209l2.829,1.167l2.911,1.157l2.931,1.174
		l2.894,1.225l2.118,0.978l1.38,0.69l1.328,0.721l1.278,0.761l1.223,0.807l1.158,0.856l1.088,0.915l1.005,0.982l0.917,1.052
		l0.81,1.133l0.692,1.215l0.559,1.296l0.417,1.379l0.255,1.456l0.092,1.529l-0.081,1.594l-0.256,1.666l-0.436,1.731l-0.296,0.926
		c-0.323,1.005-1.442,1.57-2.496,1.259c-1.054-0.308-1.646-1.373-1.321-2.376l0,0l0.232-0.708l0.367-1.405l0.216-1.298l0.081-1.205
		l-0.047-1.112l-0.16-1.04l-0.272-0.972l-0.377-0.928l-0.485-0.881l-0.586-0.849l-0.691-0.816l-0.795-0.784l-0.887-0.759
		l-0.98-0.733l-1.063-0.706l-1.143-0.68l-1.209-0.659l-1.258-0.634l-2.001-0.923l-2.817-1.199l-2.92-1.167l-2.961-1.177
		l-2.945-1.218l-2.858-1.285l-2.051-1.033l-1.301-0.725l-0.604-0.357c-0.934-0.557-1.221-1.732-0.633-2.621
		C810.517,636.833,811.75,636.561,812.683,637.121"/>
	<path fill="#1D1B3A" d="M828.78,654.099l-1.222-0.036l-2.427-0.168l-2.3-0.29l-1.623-0.288l-1.026-0.229l-0.958-0.245l-0.907-0.273
		l-0.847-0.298l-0.793-0.319l-0.732-0.344l-0.674-0.379l-0.616-0.413l-0.555-0.455l-0.491-0.527l-0.414-0.613l-0.295-0.725
		l-0.115-0.826l0.121-0.862l0.349-0.801l0.517-0.686l0.631-0.578l0.724-0.492l0.813-0.437l0.905-0.391l1.01-0.359l1.12-0.338
		l1.241-0.312l1.365-0.292l1.498-0.268l0.814-0.129c1.089-0.17,2.117,0.531,2.296,1.566c0.18,1.036-0.555,2.017-1.645,2.187l0,0
		l-0.728,0.114l-1.369,0.243l-1.216,0.256l-1.066,0.267l-0.92,0.269l-0.768,0.268l-0.618,0.255l-0.466,0.235l-0.317,0.188
		l-0.177,0.116l-0.067,0.015l-0.021-0.098l-0.038-0.156l-0.071-0.122l-0.06-0.029l0.011,0.076l0.111,0.155l0.22,0.199l0.327,0.232
		l0.424,0.245l0.514,0.252l0.602,0.244l0.675,0.243l0.75,0.227l0.816,0.215l0.86,0.193l1.405,0.256l2.064,0.266l2.257,0.16
		l1.222,0.035c1.103,0.031,1.97,0.908,1.936,1.958S829.883,654.131,828.78,654.099"/>
	<g>
		<path fill="#F4EDE1" d="M884.357,441.681c-17.787-5.417-36.08-11.249-53.021-19.132c2.338-56.094-3.43-148.284-3.43-148.284
			c15.903,0.459,80.789-11.745,80.936,4.626c0.437,48.248,27.824,109.781,45.951,147.67c-4.918,7.298-10.302,14.349-15.182,22.201
			C927.71,467.387,902.043,448.171,884.357,441.681z"/>
	</g>
	<g>
		<path fill="#F5F6F6" d="M827.799,418.964c16.94,7.885,36.593,13.811,54.377,19.226c17.691,6.489,43.354,25.708,55.256,7.081
			c4.882-7.853,17.14-21.439,22.06-28.739c2.42,1.632,4.639,3.183,6.71,4.669c-4.166,12.631,4.967,26.718,17.572,32.446
			l-33.309,108.834l-149.73-110.13C804.963,449.144,824.641,429,827.799,418.964z"/>
	</g>
	<g>
		<path fill="#F4EEE5" d="M886.393,310.019c7.543,8.6,54.221,20.044,47.977,30.328c-7.453,12.942-48.424-3.15-52.367-13.26"/>
		<g>
			<path fill="#1D1B3A" d="M885.149,311.263c5.686,6.083,15.658,8.885,23.095,12.041c5.093,2.162,10.184,4.343,15.105,6.878
				c3.345,1.723,7.638,3.8,9.57,7.204c2.112,3.721-5.607,5.684-7.804,5.921c-5.426,0.586-11.023-0.699-16.208-2.167
				c-5.643-1.598-11.086-3.925-16.188-6.808c-3.39-1.916-7.559-4.416-9.196-8.134c-0.913-2.072-3.945-0.279-3.039,1.777
				c1.764,4.006,6.046,6.72,9.632,8.909c5.518,3.37,11.68,5.802,17.856,7.648c8.027,2.399,23.11,5.664,28.145-3.722
				c4.195-7.821-11.713-14.125-16.331-16.272c-6.084-2.83-12.327-5.31-18.47-8.008c-4.558-2.001-10.2-4.036-13.678-7.757
				C886.085,307.114,883.601,309.608,885.149,311.263L885.149,311.263z"/>
		</g>
	</g>
	<g>
		<g>
			<path fill="#1D1B3A" d="M899.186,370.002c0.643,0.081,3.493,0.317,3.296,1.481c-0.214,1.27-1.402,2.371-2.261,3.235
				c-2.08,2.091-4.795,4.034-7.55,5.13c-2.083,0.829-1.175,4.234,0.936,3.395c4.308-1.715,8.618-4.795,11.275-8.625
				c0.978-1.409,1.611-3.535,0.68-5.129c-1.315-2.249-3.998-2.707-6.376-3.007C896.938,366.2,896.965,369.723,899.186,370.002
				L899.186,370.002z"/>
		</g>
	</g>
	<path fill="#F1EBE2" d="M813.997,304.49c0.436,6.341,6.321,11.151,13.138,10.745c6.821-0.405,11.997-5.873,11.561-12.216
		c-0.438-6.339-6.323-11.15-13.14-10.743C818.739,292.681,813.561,298.151,813.997,304.49z"/>
	<path fill="#1B1D3A" stroke="#1D1B3A" stroke-width="0.7039" stroke-miterlimit="10" d="M847.672,312.257
		c-0.678-2.722-1.454-5.438-2.37-8.109c0.734-0.518,1.246-1.372,1.321-2.409c0.203-2.803-0.34-5.601-1.32-8.334
		c0.736-0.708,1.135-1.783,0.872-2.898c-1.502-6.39-4.883-11.82-8.876-17.13c-1.879-2.499-5.736-0.647-5.526,1.775
		c-0.86-0.375-1.766-0.703-2.745-0.952c-1.628-0.419-3.253,0.786-3.583,2.228c-2.019-0.134-4.198,1.628-3.2,3.645
		c0.436,0.88,0.904,1.739,1.391,2.588c-1.181,0.88-1.775,2.456-0.654,3.702c3.859,4.27,9.756,7.737,12.994,12.541
		c-2.044-0.337-4.394,1.375-3.485,3.613c1.043,2.565,2.39,5.068,4.114,7.289c-1.907-0.064-3.811,1.377-2.929,3.562
		c0.871,2.161,1.855,4.276,2.821,6.397c-1.138,0.661-1.895,1.882-1.29,3.219c1.171,2.585,2.439,5.127,3.634,7.702
		c-0.7,0.664-0.899,1.537-0.768,2.464c-0.338,2.681,3.003,3.938,4.819,2.757c2.053,0.36,3.834-2.008,3.112-3.731
		c-0.151-0.36-0.318-0.716-0.472-1.076c0.57-0.744,0.872-1.7,0.654-2.575c-0.327-1.323-0.742-2.614-1.201-3.89
		c1.129-0.692,1.895-2.113,1.568-3.411c-0.441-1.753-0.896-3.491-1.396-5.208C846.884,315.828,848.092,313.942,847.672,312.257z"/>
	<polygon fill="#FFFFFF" points="924.753,445.195 826.167,396.212 815.987,425.105 909.833,471.541 	"/>
	<path fill="#FFFFFF" d="M924.753,445.195l24.401,20.859c0,0,15.396-52.083,13.275-51.284c-2.115,0.799-11.173-12.813-11.173-12.813
		L924.753,445.195z"/>
	<g>
		<g>
			<path fill="#1D1B3A" d="M922.159,444.252c-7.216,7.738-13.489,16.24-19.839,24.687c0.803-0.211,1.605-0.422,2.408-0.632
				c-17.791-8.311-34.865-18.039-52.479-26.706c-7.151-3.519-14.273-7.047-21.528-10.354c-3.126-1.426-6.258-2.839-9.364-4.309
				c-0.838-0.396-4.73-2.295-4.724-2.254c-0.329-2.239-3.719-1.283-3.394,0.936c0.419,2.859,7.441,4.882,9.479,5.824
				c7.79,3.604,15.636,7.072,23.301,10.939c18.999,9.588,37.649,19.954,56.933,28.962c0.95,0.443,1.789,0.191,2.408-0.632
				c6.17-8.207,12.276-16.453,19.288-23.974C926.193,445.083,923.71,442.589,922.159,444.252L922.159,444.252z"/>
		</g>
	</g>
	<g>
		<g>
			<path fill="#1D1B3A" d="M966.948,419.013c-5.399,6.036-8.271,14.75-11.282,22.125c-3.139,7.689-6.076,15.495-8.672,23.386
				c0.98-0.259,1.961-0.518,2.941-0.776c-6.513-6.878-12.735-14.111-20.195-20c-1.761-1.39-4.27,1.083-2.488,2.488
				c7.46,5.889,13.682,13.123,20.195,20c0.952,1.005,2.542,0.437,2.941-0.776c2.35-7.139,5.014-14.185,7.782-21.17
				c2.934-7.404,5.849-16.729,11.267-22.788C970.944,419.816,968.464,417.318,966.948,419.013L966.948,419.013z"/>
		</g>
	</g>
	<g>
		<g>
			<path fill="#1D1B3A" d="M905.624,278.197c-0.713,7.459,1.43,15.506,3.118,22.71c1.909,8.146,4.986,16.448,8.684,23.95
				c1.003,2.035,4.039,0.251,3.039-1.777c-3.566-7.234-6.432-15.265-8.329-23.108c-1.674-6.921-3.676-14.612-2.992-21.774
				C909.359,275.937,905.838,275.958,905.624,278.197L905.624,278.197z"/>
		</g>
	</g>
	<g>
		<g>
			<path fill="#1D1B3A" d="M922.764,347.787c7.779,18.826,17.002,37.857,18.58,58.458c0.172,2.248,3.693,2.265,3.52,0
				c-1.606-20.977-10.783-40.218-18.706-59.394C925.303,344.785,921.897,345.689,922.764,347.787L922.764,347.787z"/>
		</g>
	</g>
	<g>
		<g>
			<path fill="#1D1B3A" d="M828.135,309.926c-3.144,3.095-2.412,7.862-1.826,11.833c0.397,2.693,1.157,5.332,1.438,8.041
				c0.429,4.13,0.016,8.392-0.177,12.525c-0.793,16.982,1.283,34.184,1.482,51.193c0.026,2.268,3.546,2.271,3.52,0
				c-0.179-15.261-1.666-30.536-1.611-45.78c0.022-6.314,1.114-12.905,0.163-19.182c-0.638-4.21-4.029-12.669-0.5-16.143
				C832.243,310.821,829.753,308.333,828.135,309.926L828.135,309.926z"/>
		</g>
	</g>
	<g>
		<g>
			<path fill="#1D1B3A" d="M825.764,312.127c-7.113,0.036-15.092-3.044-11.008-11.372c3.023-6.163,10.534-9.818,16.779-6.177
				c1.965,1.146,3.735-1.896,1.776-3.039c-8.206-4.785-17.894-0.106-21.848,7.956c-1.68,3.425-1.984,7.492,0.066,10.817
				c2.872,4.657,9.316,5.359,14.234,5.334C828.033,315.635,828.034,312.116,825.764,312.127L825.764,312.127z"/>
		</g>
	</g>
	<g>
		<g>
			<path fill="#1D1B3A" d="M826.172,300.633c2.812,1.22,2.389,3.695-0.227,4.86c-2.07,0.922-0.278,3.954,1.776,3.039
				c4.902-2.184,5.372-8.707,0.227-10.938C825.889,296.701,824.095,299.732,826.172,300.633L826.172,300.633z"/>
		</g>
	</g>
	<g>
		<g>
			<path fill="#1D1B3A" d="M924.699,442.854c-17.174-5.896-33.555-15.417-49.637-23.716c-15.929-8.219-32.286-16.227-47.428-25.856
				c-1.921-1.222-3.685,1.825-1.776,3.039c15.479,9.845,32.211,18.005,48.494,26.406c16.009,8.261,32.317,17.652,49.413,23.521
				C925.916,446.987,926.833,443.586,924.699,442.854L924.699,442.854z"/>
		</g>
	</g>
	<g>
		<g>
			<path fill="#1D1B3A" d="M949.387,405.019c-3.469,6.322-7.98,12.151-12.242,17.947c-4.65,6.325-9.312,12.817-14.664,18.578
				c-1.542,1.66,0.941,4.154,2.488,2.488c4.998-5.379,9.354-11.426,13.74-17.301c4.786-6.411,9.857-12.904,13.716-19.936
				C953.519,404.805,950.479,403.03,949.387,405.019L949.387,405.019z"/>
		</g>
	</g>
	<g>
		<g>
			<path fill="#1D1B3A" d="M968.195,419.161c-5.879-4.411-9.421-11.586-14.271-17.028c-1.513-1.698-3.993,0.8-2.488,2.488
				c5.116,5.741,8.764,12.913,14.983,17.579C968.236,423.563,969.987,420.505,968.195,419.161L968.195,419.161z"/>
		</g>
	</g>
	<g>
		<g>
			<path fill="#1D1B3A" d="M822.937,395.519c-4.956,8.75-4.831,19.451-10.413,27.859c-1.259,1.897,1.791,3.658,3.039,1.777
				c5.614-8.458,5.458-19.11,10.413-27.861C827.096,395.317,824.055,393.544,822.937,395.519L822.937,395.519z"/>
		</g>
	</g>
	<path fill="#1D1B3A" d="M917.922,505.704c-0.074-1.625,0.008-3.228,0.181-4.818c-0.349-0.449-0.553-1.011-0.484-1.682
		c0.943-9.251,0.651-19.258,4.743-27.893c-0.252-1.079,0.3-1.938,1.137-2.411c-1.555-5.525-3.623-10.954-6.713-15.899
		c2.564-2.102,5.131-4.188,7.261-6.708c0.62-0.734,0.882-1.512,0.895-2.258c0.021,0,0.04,0.004,0.06,0.004
		c0.241,0.388,0.576,0.759,1.053,1.093c0.874,0.606,1.749,1.208,2.625,1.807c1.731,1.381,3.586,2.623,5.506,3.797
		c-0.152,0.417-0.421,0.801-0.784,1.101c0.095,0.453,0.013,0.954-0.332,1.483c-3.348,5.108-2.56,11.456-4.075,17.109
		c1.074-0.14,2.258,0.257,2.814,1.423c3.547,7.442,5.943,15.14,7.605,22.99c0.463,0.349,0.802,0.86,0.884,1.559
		c1.163,10.05,3.359,19.952,4.71,29.976c0.578,4.285,1.119,8.736,0.772,13.055c1.877,9.808,2.137,20.06,2.786,29.756
		c0.18,2.707-3.685,3.205-4.779,1.156c-1.045,1.578-3.969,0.932-4.527-0.985c-0.334-0.239-0.622-0.56-0.816-0.97
		c-0.679-1.433-1.318-2.877-1.935-4.324c-1.082,0.122-2.287-0.342-2.824-1.472c-0.779-1.642-1.506-3.293-2.185-4.955
		c-1.101,0.13-2.257-0.312-2.62-1.515c-0.113-0.377-0.197-0.748-0.294-1.118c-0.385-0.35-0.66-0.833-0.702-1.477l-0.046-0.676
		c-0.107-0.704-0.203-1.413-0.303-2.122c-0.094-0.131-0.175-0.269-0.245-0.429C921.057,536.07,918.614,520.981,917.922,505.704z"/>
	<path fill="#1D1B3A" d="M995.195,484.74c-0.974-2.301-5.324-19.441-7.398-24.215c-5.214-9.638-15.443-28.378-21.378-37.737
		c-2.98,14.878,1.079,47.528-3.478,77.275c-5.279,34.455-20.2,64.657-19.871,65.181c0,0-17.434-30.361-47.819-68.756
		c-32.623-39.662-31.518-39.565-80.104-72.692c-4.517,2.373-24.704,11.936-29.889,31.015c-0.524,1.932-1.154,4.017-1.87,6.239
		c22.771,11.146,17.552,10.239,20.923,34.887c14.774,18.352,38.008,74.025,44.244,125.167
		c19.451,10.508,36.505,18.779,36.505,18.779c-5.299,13.711-23.321,28.523-33.28,35.778c-0.415,22.409-3,30.923-3.562,30.943
		l116.471,8.037c0,0,34.955-114.027,35.337-206.607C997.612,500.429,996.338,492.601,995.195,484.74z"/>
	<path fill="#1D1B3A" d="M886.393,637.771c0,0-17.056-8.271-36.506-18.777c1.146,9.408,0.364,26.177,0.389,36.597
		c0.024,10.092,3.141,29.545,3.011,36.557C863.246,684.89,881.094,651.483,886.393,637.771z"/>
	<g>
		<g>
			<path fill="#FFF000" d="M961.663,580.366c-1.589,0.154-3.178,0.388-4.469,1.39c-1.075,0.835-1.17,2.284-0.591,3.426
				c0.447,0.881,1.368,1.55,2.201,2.028c0.886,0.51,1.883,0.904,2.885,1.112c1.667,0.349,3.403,0.235,4.503-1.215
				c1.181-1.557,0.051-3.829-0.84-5.209c-0.52-0.804-1.552-1.132-2.408-0.631c-0.799,0.468-1.153,1.602-0.631,2.408
				c0.193,0.299,0.376,0.604,0.542,0.918c0.07,0.134,0.135,0.27,0.196,0.407c-0.277-0.617-0.041-0.09,0.013,0.07
				c0.036,0.108,0.065,0.22,0.091,0.331c0.012,0.051,0.021,0.102,0.03,0.153c0.045,0.257-0.062-0.529-0.039-0.275
				c0.008,0.088,0.008,0.176,0.004,0.264c-0.014,0.312,0.125-0.576,0.012-0.161c-0.094,0.347,0.221-0.451,0.084-0.192
				c-0.171,0.323,0.217-0.255,0.14-0.165c-0.111,0.128-0.395,0.314,0.182-0.118c-0.065,0.048-0.137,0.088-0.209,0.123
				c0.512-0.252,0.26-0.091-0.048-0.031c-0.319,0.062,0.58-0.06,0.179-0.025c-0.103,0.009-0.207,0.011-0.31,0.01
				c-0.191,0-0.382-0.018-0.571-0.041c0.802,0.101-0.025-0.02-0.24-0.071c-0.21-0.05-0.417-0.111-0.622-0.178
				c-0.201-0.064-1.004-0.392-0.298-0.093c-0.408-0.173-0.802-0.379-1.176-0.616c-0.084-0.053-0.167-0.109-0.248-0.166
				c-0.04-0.028-0.079-0.057-0.117-0.086c-0.2-0.147,0.4,0.314,0.207,0.16c-0.148-0.118-0.287-0.248-0.417-0.387
				c-0.116-0.125-0.332-0.431,0.099,0.144c-0.044-0.059-0.083-0.12-0.121-0.184c-0.191-0.323,0.121,0.323,0.075,0.207
				c-0.023-0.059-0.039-0.12-0.052-0.182c-0.031-0.15,0.037,0.616,0.047,0.259c0.003-0.145-0.127,0.606-0.027,0.263
				c0.077-0.267-0.259,0.513-0.087,0.223c0.136-0.23-0.389,0.43-0.1,0.139c0.281-0.282-0.252,0.178-0.136,0.096
				c0.077-0.055,0.159-0.101,0.242-0.146c0.045-0.025,0.093-0.047,0.14-0.069c0.24-0.114-0.468,0.191-0.214,0.089
				c0.116-0.047,0.236-0.087,0.355-0.125c0.288-0.091,0.583-0.156,0.879-0.214c0.176-0.034,0.353-0.062,0.529-0.087
				c-0.647,0.095,0.173-0.017,0.335-0.032c0.955-0.093,1.76-0.73,1.76-1.76C963.422,581.237,962.619,580.273,961.663,580.366
				L961.663,580.366z"/>
		</g>
	</g>
	<g>
		<g>
			<path fill="#FFF000" d="M923.377,580.462c-2.172,1.271-3.426,3.515-3.085,6.023c0.364,2.678,3.669,3.713,5.953,3.296
				c2.148-0.392,3.778-2.151,3.958-4.33c0.188-2.265-1.339-4.231-3.356-5.09c-0.883-0.376-1.878-0.273-2.408,0.632
				c-0.438,0.748-0.252,2.031,0.631,2.407c0.857,0.365,1.593,0.901,1.632,1.646c0.027,0.505-0.262,1.023-0.922,1.238
				c-0.74,0.241-1.9,0.106-2.095-0.735c-0.178-0.766,0.884-1.707,1.467-2.049C927.111,582.357,925.34,579.314,923.377,580.462
				L923.377,580.462z"/>
		</g>
	</g>
	<g>
		<g>
			<path fill="#FFF000" d="M961.265,612.582c-2.222-1.744-5.229-3.906-8.159-2.62c-2.047,0.899-2.243,3.574-1.846,5.453
				c0.399,1.893,1.612,3.925,3.384,4.815c2.509,1.262,5.072,0,6.732-2.021c0.413-0.503,0.797-1.029,1.147-1.577
				c0.517-0.81,0.171-1.938-0.631-2.408c-0.852-0.499-1.893-0.176-2.408,0.631c-0.207,0.324-0.424,0.641-0.655,0.947
				c0.372-0.492-0.01,0.002-0.104,0.112c-0.121,0.142-0.247,0.277-0.375,0.41c-0.198,0.205-0.411,0.396-0.634,0.573
				c0.521-0.416,0.127-0.102-0.006-0.013c-0.116,0.077-0.236,0.146-0.357,0.212c-0.149,0.081-0.585,0.257,0.069-0.013
				c-0.096,0.04-0.196,0.073-0.295,0.104c-0.095,0.029-0.192,0.052-0.291,0.071c-0.326,0.066,0.577-0.047,0.09-0.015
				c-0.092,0.006-0.184,0.005-0.276,0.001c-0.433-0.016,0.272,0.049,0.154,0.03c-0.191-0.03-0.377-0.085-0.558-0.153
				c-0.112-0.043,0.514,0.239,0.135,0.049c-0.081-0.041-0.159-0.086-0.235-0.133c-0.078-0.048-0.153-0.101-0.228-0.153
				c-0.199-0.144,0.402,0.315,0.21,0.162c-0.049-0.038-0.096-0.079-0.143-0.12c-0.143-0.125-0.275-0.262-0.401-0.404
				c-0.064-0.072-0.125-0.147-0.186-0.224c0.445,0.562,0.142,0.183,0.044,0.039c-0.112-0.164-0.214-0.336-0.31-0.51
				c-0.102-0.186-0.423-0.931-0.124-0.214c-0.159-0.382-0.279-0.779-0.365-1.183c-0.017-0.079-0.031-0.158-0.044-0.237
				c-0.072-0.424,0.056,0.485,0.018,0.139c-0.019-0.168-0.027-0.337-0.03-0.505c-0.002-0.161,0.007-0.322,0.023-0.483
				c0.022-0.223-0.092,0.596-0.028,0.217c0.014-0.08,0.032-0.16,0.052-0.24c0.016-0.064,0.036-0.128,0.056-0.19
				c0.124-0.381-0.131,0.286-0.079,0.168c0.056-0.125,0.126-0.243,0.205-0.354c-0.28,0.397-0.223,0.245,0.018,0.036
				c-0.415,0.36-0.234,0.15,0.048,0.02c-0.674,0.313-0.188,0.08,0.035,0.038c0.209-0.04-0.601,0.061-0.209,0.031
				c0.093-0.007,0.187-0.007,0.28-0.004c0.083,0.002,0.167,0.01,0.249,0.019c0.264,0.027-0.524-0.077-0.257-0.033
				c0.055,0.009,0.109,0.02,0.164,0.031c0.242,0.049,0.479,0.123,0.712,0.205c0.109,0.039,0.216,0.082,0.323,0.126
				c-0.625-0.257-0.083-0.029,0.06,0.04c0.28,0.136,0.551,0.287,0.819,0.445c0.308,0.181,0.606,0.377,0.901,0.578
				c0.178,0.122,0.353,0.248,0.526,0.375c0.092,0.067,0.182,0.136,0.273,0.204c0.327,0.247-0.312-0.245,0.018,0.014
				c0.754,0.592,1.75,0.739,2.488,0C961.882,614.453,962.021,613.174,961.265,612.582L961.265,612.582z"/>
		</g>
	</g>
	<g>
		<g>
			<path fill="#FFF000" d="M931.336,612.365c-1.057-2.016-3.376-4.935-5.952-3.257c-1.729,1.128-2.304,3.492-2.292,5.437
				c0.013,1.958,0.726,3.93,2.648,4.712c1.034,0.421,2.185,0.092,3.146-0.345c1.209-0.548,2.25-1.547,3.154-2.497
				c0.661-0.694,0.691-1.798,0-2.488c-0.665-0.665-1.828-0.695-2.488,0c-0.285,0.299-0.577,0.59-0.881,0.868
				c-0.134,0.123-0.272,0.242-0.411,0.358c-0.065,0.055-0.131,0.108-0.198,0.161c0.467-0.373,0.146-0.112,0.037-0.033
				c-0.228,0.166-0.466,0.317-0.713,0.454c-0.107,0.059-0.217,0.112-0.329,0.162c0.636-0.288,0.18-0.076,0.01-0.022
				c-0.094,0.029-0.19,0.052-0.286,0.071c-0.34,0.068,0.563-0.049,0.156-0.025c-0.083,0.005-0.166,0.002-0.249-0.004
				c-0.239-0.018,0.545,0.082,0.312,0.042c-0.05-0.009-0.1-0.021-0.149-0.034c-0.375-0.102,0.29,0.138,0.178,0.086
				c-0.066-0.031-0.129-0.069-0.19-0.108c-0.252-0.165,0.425,0.359,0.155,0.116c-0.065-0.059-0.124-0.124-0.18-0.191
				c-0.081-0.096,0.332,0.471,0.117,0.137c-0.044-0.067-0.083-0.138-0.12-0.209c-0.191-0.366,0.108,0.28,0.057,0.153
				c-0.038-0.094-0.07-0.189-0.101-0.286c-0.054-0.175-0.094-0.353-0.127-0.532c-0.08-0.437,0.03,0.269,0.015,0.14
				c-0.014-0.113-0.023-0.226-0.03-0.339c-0.027-0.415-0.011-0.833,0.035-1.247c0.04-0.356-0.084,0.556-0.014,0.121
				c0.016-0.099,0.034-0.195,0.054-0.293c0.042-0.206,0.095-0.409,0.156-0.609c0.037-0.119,0.078-0.236,0.123-0.353
				c0.117-0.308-0.19,0.438-0.092,0.211c0.029-0.066,0.061-0.133,0.093-0.198c0.05-0.101,0.105-0.199,0.164-0.295
				c0.028-0.046,0.058-0.091,0.088-0.136c0.204-0.3-0.264,0.329-0.135,0.17c0.062-0.077,0.13-0.148,0.202-0.216
				c0.305-0.289-0.43,0.282-0.082,0.065c0.369-0.229-0.38,0.132-0.153,0.053c0.041-0.015,0.083-0.024,0.125-0.034
				c0.284-0.066-0.567,0.056-0.274,0.036c0.383-0.024-0.035-0.017-0.162-0.039c0.047,0.008,0.094,0.021,0.141,0.035
				c0.344,0.1-0.399-0.183-0.203-0.094c0.105,0.048,0.205,0.107,0.301,0.172c0.126,0.083,0.357,0.281-0.162-0.131
				c0.069,0.055,0.134,0.113,0.198,0.173c0.115,0.107,0.222,0.224,0.326,0.342c0.057,0.065,0.112,0.134,0.167,0.201
				c-0.41-0.511-0.108-0.138-0.02-0.014c0.299,0.421,0.556,0.872,0.795,1.329c0.445,0.849,1.609,1.1,2.408,0.632
				C931.56,614.271,931.782,613.213,931.336,612.365L931.336,612.365z"/>
		</g>
	</g>
	<g>
		<g>
			<path fill="#FFF000" d="M956.461,644.052c-0.381-0.656-0.568-1.555-1.007-2.309c-0.523-0.898-1.559-0.939-2.473-0.849
				c-1.137,0.113-2.151,0.463-3.014,1.231c-1.291,1.15-1.513,3.209-0.877,4.747c0.738,1.785,2.126,3.06,4.096,3.259
				c2.27,0.23,4.055-1.838,5.022-3.617c0.458-0.844,0.215-1.912-0.631-2.408c-0.808-0.473-1.95-0.211-2.408,0.631
				c-0.206,0.379-0.429,0.745-0.682,1.094c0.277-0.384-0.046,0.047-0.111,0.12c-0.122,0.138-0.254,0.265-0.39,0.389
				c-0.357,0.324,0.202-0.135-0.033,0.03c-0.123,0.086-0.254,0.159-0.387,0.227c-0.165,0.077-0.101,0.052,0.19-0.076
				c-0.075,0.03-0.151,0.054-0.229,0.076c-0.05,0.014-0.1,0.026-0.15,0.037c-0.31,0.07,0.483-0.05,0.171-0.02
				c-0.097,0.009-0.194,0.007-0.291,0.003c-0.43-0.016,0.462,0.097,0.047,0.001c-0.154-0.036-0.577-0.215,0.021,0.04
				c-0.108-0.046-0.211-0.104-0.313-0.165c-0.123-0.073-0.426-0.312,0.064,0.069c-0.095-0.074-0.184-0.157-0.27-0.241
				c-0.087-0.086-0.167-0.179-0.245-0.273c0.4,0.485,0.102,0.127,0.018-0.005c-0.053-0.083-0.101-0.171-0.147-0.258
				c-0.023-0.044-0.045-0.088-0.066-0.133c-0.135-0.279,0.174,0.436,0.062,0.147c-0.089-0.228-0.148-0.466-0.188-0.706
				c0.115,0.688,0.019-0.026,0.034-0.241c0.015-0.206-0.105,0.523,0.005,0.057c0.037-0.157,0.219-0.564-0.042,0.031
				c0.037-0.085,0.083-0.165,0.13-0.244c0.213-0.354-0.299,0.33-0.016,0.021c0.108-0.118,0.478-0.377-0.018-0.017
				c0.109-0.079,0.227-0.143,0.346-0.203c0.257-0.131-0.454,0.162-0.014,0.015c0.153-0.051,0.312-0.085,0.469-0.115
				c0.187-0.031,0.135-0.025-0.155,0.017c0.112-0.014,0.225-0.02,0.337-0.026c0.205-0.011,0.411-0.006,0.616,0.003
				c-0.506-0.29-1.013-0.581-1.52-0.872c0.381,0.654,0.569,1.554,1.007,2.309C954.562,647.79,957.604,646.018,956.461,644.052
				L956.461,644.052z"/>
		</g>
	</g>
	<g>
		<g>
			<path fill="#FFF000" d="M927.95,639.549c-1.851-0.833-3.987-1.666-5.969-0.789c-1.582,0.7-1.846,2.523-1.592,4.03
				c0.252,1.497,1.128,2.874,2.041,4.053c0.955,1.234,2.163,2.221,3.617,2.799c1.445,0.575,2.934,0.199,4.114-0.729
				c1.39-1.093,1.914-3.167,2.171-4.821c0.147-0.947-0.226-1.889-1.229-2.165c-0.844-0.231-2.017,0.28-2.165,1.229
				c-0.084,0.541-0.191,1.076-0.339,1.604c-0.062,0.222-0.136,0.439-0.215,0.655c-0.04,0.107-0.199,0.457,0.019-0.035
				c-0.052,0.118-0.111,0.232-0.171,0.346c-0.082,0.155-0.176,0.304-0.275,0.447c-0.185,0.268,0.282-0.347,0.08-0.104
				c-0.048,0.058-0.101,0.112-0.153,0.166c-0.05,0.051-0.104,0.099-0.157,0.146c-0.223,0.196,0.378-0.275,0.14-0.109
				c-0.157,0.11-0.668,0.306-0.033,0.058c-0.115,0.045-0.234,0.074-0.355,0.098c-0.06,0.012,0.513-0.027,0.042-0.029
				c-0.062,0-0.124-0.005-0.186-0.01c-0.288-0.023,0.504,0.078,0.218,0.027c-0.15-0.026-0.297-0.07-0.442-0.119
				c-0.479-0.16,0.343,0.168-0.022-0.008c-0.13-0.062-0.255-0.133-0.378-0.206c-0.128-0.077-0.252-0.161-0.374-0.247
				c-0.105-0.074-0.35-0.268,0.11,0.091c-0.083-0.064-0.163-0.132-0.242-0.199c-0.247-0.21-0.477-0.438-0.697-0.674
				c-0.113-0.121-0.221-0.246-0.327-0.372c-0.054-0.063-0.105-0.129-0.157-0.193c-0.187-0.233,0.289,0.386,0.023,0.025
				c-0.397-0.539-0.737-1.122-1.011-1.733c-0.128-0.287,0.177,0.431,0.061,0.143c-0.027-0.068-0.052-0.138-0.078-0.206
				c-0.048-0.134-0.09-0.269-0.129-0.405c-0.037-0.129-0.066-0.26-0.093-0.391c-0.099-0.496,0.032,0.461,0-0.025
				c-0.007-0.114-0.005-0.229,0.002-0.344c0.007-0.112-0.114,0.544-0.003,0.103c0.104-0.417-0.206,0.399-0.053,0.098
				c0.213-0.418-0.255,0.263-0.048,0.05c0.233-0.238-0.448,0.283-0.079,0.069c0.299-0.174-0.505,0.162-0.065,0.035
				c0.058-0.018,0.118-0.028,0.177-0.04c0.284-0.055-0.507,0.056-0.208,0.031c0.174-0.015,0.349-0.007,0.522,0.006
				c0.132,0.01,0.455,0.063-0.129-0.022c0.091,0.014,0.183,0.031,0.273,0.05c0.238,0.046,0.473,0.111,0.705,0.18
				c0.23,0.068,0.457,0.148,0.681,0.231c0.124,0.046,0.246,0.095,0.369,0.144c0.18,0.074,0.169,0.069-0.033-0.015
				c0.09,0.039,0.179,0.079,0.269,0.12c0.875,0.394,1.885,0.261,2.408-0.632C929.027,641.196,928.825,639.943,927.95,639.549
				L927.95,639.549z"/>
		</g>
	</g>
	<path fill="#1D1B3A" d="M965.303,706.607c0,0-26.324,208.957-27.143,218.616c-2.025,23.914,91.572-3.117,97.013,18.36
		c6.347,25.052-133.587,2.583-133.587,2.583s4.788-18.955,5.562-16.874c1.534,4.119-19.494,7.312-18.033,3.869
		c16.688-39.38,62.368-231.545,46.482-233.776c-6.143-0.865-28.676-18.7-35.306-0.161c-23.86,66.737-31.659,272.047-31.659,272.047
		s-76.421,89.323-96.199,67.446c-19.777-21.87,72.352-65.51,72.352-65.51l-23.452-6.758c0,0,65.18-214.743,48.112-273.311
		C866.104,681.673,965.303,706.607,965.303,706.607z"/>
	<g>
		<g>
			<path fill="#1D1B3A" d="M875.495,302.741c-5.817-0.084-11.641-0.338-17.458-0.301c-2.269,0.015-2.27,3.534,0,3.52
				c5.817-0.037,11.642,0.217,17.458,0.301C877.766,306.292,877.763,302.773,875.495,302.741L875.495,302.741z"/>
		</g>
	</g>
	<g>
		<g>
			<path fill="#1D1B3A" d="M867.476,305.813c0.09,0.545,0.045,1.333-0.094,1.642c-0.166,0.37-0.079,0.236-0.35,0.509
				c-0.129,0.13-0.206,0.126-0.333,0.161c-0.144,0.041-0.396-0.049-0.512-0.149c-0.375-0.324-0.592-0.854-0.666-1.527
				c-0.104-0.953-0.721-1.76-1.76-1.76c-0.88,0-1.865,0.805-1.76,1.76c0.314,2.863,2.115,5.591,5.329,5.125
				c3.194-0.462,3.982-4.029,3.539-6.695c-0.157-0.947-1.313-1.463-2.165-1.229C867.709,303.922,867.319,304.868,867.476,305.813
				L867.476,305.813z"/>
		</g>
	</g>
	<g>
		<g>
			<path fill="#1D1B3A" d="M905.533,303c-2.277-0.317-4.603-0.211-6.896-0.179c-1.451,0.021-2.901,0.051-4.353,0.065
				c-0.535,0.005-1.069,0.004-1.604-0.005c-0.885-0.013-0.359-0.16,0.207,0.4c-1.615-1.596-4.105,0.892-2.488,2.488
				c1.254,1.239,4.401,0.633,5.949,0.608c2.689-0.043,5.576-0.357,8.249,0.016C906.816,306.703,907.773,303.312,905.533,303
				L905.533,303z"/>
		</g>
	</g>
	<g>
		<g>
			<path fill="#1D1B3A" d="M899.485,306.722c0.103,0.621,0.032,1.23-0.137,1.543c-0.116,0.215-0.27,0.254-0.486,0.257
				c-0.209-0.014-0.214-0.011-0.016,0.009c-0.028-0.005-0.528-0.172-0.221-0.038c-0.316-0.138-0.402-0.229-0.536-0.353
				c-0.401-0.374-0.653-0.973-0.728-1.622c-0.109-0.953-0.718-1.76-1.76-1.76c-0.876,0-1.87,0.805-1.76,1.76
				c0.319,2.776,2.067,5.57,5.18,5.521c3.355-0.053,4.312-3.513,3.857-6.253c-0.157-0.947-1.314-1.463-2.165-1.229
				C899.718,304.832,899.329,305.777,899.485,306.722L899.485,306.722z"/>
		</g>
	</g>
	<g>
		<g>
			<path fill="#1D1B3A" d="M906.695,296.705c-7.092-0.782-14.21-1.307-21.338-1.603c-2.271-0.094-2.261,3.426,0,3.52
				c7.128,0.295,14.247,0.82,21.338,1.603C908.95,300.473,908.926,296.951,906.695,296.705L906.695,296.705z"/>
		</g>
	</g>
	<g>
		<g>
			<path fill="#1D1B3A" d="M876.692,294.391c-8.18-5.902-16.874-4.284-25.366,0.116c-2.016,1.045-0.235,4.081,1.776,3.039
				c7.429-3.85,14.658-5.279,21.813-0.116C876.76,298.761,878.514,295.706,876.692,294.391L876.692,294.391z"/>
		</g>
	</g>
	<g>
		<g>
			<path fill="#1D1B3A" d="M900.695,346.052c-3.288,0.757-7.078-0.669-10.193-1.616c-4.265-1.296-8.429-2.909-12.66-4.309
				c-3.129-1.036-11.091-4.059-11.669,1.516c-0.546,5.269,5.63,12.191,9.217,15.205c6.962,5.849,15.573,4.785,22.832,0.119
				c1.902-1.223,0.139-4.271-1.776-3.039c-7.214,4.638-14.476,4.682-20.67-1.497c-1.958-1.952-3.447-4.343-4.692-6.795
				c-0.513-1.01-0.906-2.067-1.224-3.152c-0.313-1.069-0.276-0.604,0.784-0.558c10.346,0.449,20.339,9.97,30.987,7.521
				C903.842,348.938,902.904,345.544,900.695,346.052L900.695,346.052z"/>
		</g>
	</g>
	<g>
		<path fill="#FFFFFF" d="M801.544,635.81c2.013,1.276,11.242,11.86,11.242,11.86l35.143-25.925l-18.211-11.486L801.544,635.81z"/>
		<g>
			<path fill="#1D1B3A" d="M800.726,637.21c4.16,3.01,7.549,7.755,10.913,11.606c0.439,0.503,1.415,0.66,1.965,0.254
				c11.714-8.642,23.429-17.283,35.143-25.925c0.977-0.721,1.105-2.104,0-2.801c-6.07-3.829-12.141-7.657-18.211-11.486
				c-0.636-0.401-1.436-0.227-1.965,0.254c-9.391,8.517-18.782,17.033-28.174,25.551c-1.552,1.407,0.749,3.694,2.294,2.293
				c9.391-8.517,18.782-17.033,28.174-25.551c-0.655,0.085-1.311,0.17-1.965,0.254c6.07,3.829,12.141,7.657,18.211,11.486
				c0-0.934,0-1.867,0-2.801c-11.714,8.642-23.429,17.283-35.143,25.925c0.655,0.085,1.31,0.169,1.965,0.254
				c-3.576-4.095-7.144-8.911-11.57-12.114C800.665,633.181,799.048,635.997,800.726,637.21z"/>
		</g>
	</g>
	<path fill="#1D1B3A" d="M904.624,263.37c-4.092-2.997-8.123-5.041-12.162-6.417c-13.558-7.755-32.505-10.443-46.873-5.686
		c-0.488,0.162-1.023,0.324-1.586,0.497c-3.9,1.193-9.24,2.824-11.135,7.116c-0.13,0.299-0.192,0.604-0.211,0.908
		c-3.155,1.024-6.155,2.203-9.043,3.563c-1.289,0.607-1.91,1.986-1.549,3.26c-0.314,0.279-0.626,0.607-0.901,1.002
		c-2.411,3.443,0.786,9.445,2.678,11.249c1.468,1.397,2.892,1.241,13.4-0.626c2.137-0.379,4.795-0.852,5.357-0.883
		c12.069-0.284,22.75,0.288,32.647,1.753c2.593,0.385,5.279,0.987,8.125,1.628c5.199,1.168,10.519,2.363,15.842,2.363
		c2.475,0,4.952-0.258,7.414-0.898c4.082-1.062,5.196-3.658,5.498-5.111C913.251,271.637,907.021,265.125,904.624,263.37z"/>
</g>
</svg>
