<?xml version="1.0" encoding="utf-8"?>
<!-- Generator: Adobe Illustrator 16.0.4, SVG Export Plug-In . SVG Version: 6.00 Build 0)  -->
<!DOCTYPE svg PUBLIC "-//W3C//DTD SVG 1.1//EN" "http://www.w3.org/Graphics/SVG/1.1/DTD/svg11.dtd">
<svg version="1.1" id="Layer_1" xmlns="http://www.w3.org/2000/svg" xmlns:xlink="http://www.w3.org/1999/xlink" x="0px" y="0px"
	 width="495.715px" height="426.945px" viewBox="0 0 495.715 426.945" enable-background="new 0 0 495.715 426.945"
	 xml:space="preserve">
<g>
	<path fill="#CACBD5" d="M178.395,332.997c-54.455,11.545-127.436-49.901-148.995-74.401c-39.27-46.949-31.432-102.48,2.415-152.023
		C74.308,40.839,158.926,2.783,232.043,0.191C305.16-2.4,372.88,21.518,432.104,63.515c50.677,34.836,76.752,94.757,56.992,159.615
		c-9.574,36.493-49.042,78.181-83.417,96.242c-33.292,16.038-123.137,25.486-159.344,19.171
		c-27.422-4.232,22.264,89.065,44.993,88.192c-41.608,3.801-105.711-44.889-115.391-91.657"/>
</g>
<g>
	<g>
		<path fill="#1D1B3A" d="M262.572,157.368l-24.811,4.767l-15.105-78.625l23.848-4.583c17.183-3.3,26.638,3.011,29.055,15.579
			c1.567,8.162-3.009,15.059-8.978,18.208c9.73,1.361,16.947,5.879,19.072,16.942C288.131,142.546,279.98,154.027,262.572,157.368z
			 M248.007,86.767l-14.286,2.742l4.951,25.784l13.215-2.542c10.956-2.105,15.746-8.48,14.22-16.431
			C264.641,88.697,258.318,84.783,248.007,86.767z M255.993,120.207l-15.793,3.035l5.614,29.217l15.682-3.013
			c10.208-1.96,16.311-9.034,14.597-17.955C274.382,122.576,264.907,118.495,255.993,120.207z"/>
		<g>
			<path fill="#1D1B3A" d="M262.639,157.711l-3.099,0.611l-3.091,0.653c-2.057,0.449-4.109,0.926-6.154,1.439
				c-2.048,0.501-4.081,1.075-6.122,1.609c-2.039,0.548-4.068,1.144-6.103,1.714c-0.793,0.222-1.616-0.241-1.838-1.034l-0.075-0.262
				l-1.376-4.832c-0.469-1.607-0.886-3.227-1.331-4.839c-0.449-1.612-0.868-3.23-1.273-4.851c-0.396-1.623-0.8-3.244-1.159-4.873
				c-1.477-6.511-2.67-13.075-3.634-19.684c-0.452-3.311-0.906-6.62-1.297-9.942c-0.419-3.316-0.783-6.643-1.237-9.952
				c-0.842-6.633-1.913-13.221-3.248-19.758c-0.118-0.575,0.253-1.136,0.827-1.253h0.001l0.023-0.005l5.118-1.045l5.101-1.134
				c1.699-0.378,3.391-0.805,5.086-1.205c1.697-0.397,3.386-0.835,5.077-1.258l2.536-0.64l0.634-0.161l0.696-0.156l1.277-0.284
				l1.276-0.284l1.38-0.218c0.923-0.139,1.855-0.307,2.777-0.354c1.842-0.175,3.729-0.241,5.637-0.069
				c0.954,0.098,1.913,0.162,2.872,0.39l1.441,0.292c0.477,0.133,0.952,0.287,1.428,0.439c1.906,0.59,3.728,1.57,5.438,2.716
				l1.216,0.963c0.2,0.164,0.409,0.32,0.602,0.493l0.543,0.553l1.08,1.119l0.943,1.222c0.666,0.8,1.117,1.708,1.658,2.577
				c0.467,0.894,0.891,1.811,1.274,2.731c0.703,1.887,1.252,3.693,1.594,5.714l0.107,0.645l0.074,0.849
				c0.044,0.567,0.097,1.157,0.074,1.668c0.011,1.059-0.089,2.119-0.246,3.172c-0.334,2.103-1.016,4.153-1.994,6.034
				c-0.97,1.889-2.262,3.588-3.745,5.077c-1.483,1.493-3.197,2.75-5.073,3.737l-1.233-7.044c1.534,0.242,3.077,0.505,4.614,0.956
				c1.539,0.399,3.071,0.998,4.574,1.671c1.491,0.73,2.957,1.571,4.287,2.648c1.353,1.034,2.565,2.276,3.609,3.621
				c0.505,0.688,1.006,1.376,1.408,2.115c0.451,0.718,0.8,1.472,1.136,2.23c0.361,0.751,0.577,1.535,0.864,2.299
				c0.245,0.771,0.406,1.557,0.604,2.33l0.198,1.166l0.097,0.582l0.048,0.29l0.024,0.146l0.006,0.036l0.026,0.162l0.001,0.017
				l0.005,0.067l0.162,2.127c0.039,0.766-0.01,1.665-0.031,2.479c-0.014,0.84-0.189,1.599-0.282,2.393
				c-0.076,0.787-0.335,1.555-0.514,2.321c-0.162,0.772-0.48,1.505-0.759,2.239c-0.255,0.743-0.616,1.44-0.986,2.129l-0.546,1.028
				l-0.646,0.966l-0.644,0.957c-0.227,0.31-0.487,0.594-0.729,0.889c-0.495,0.582-0.962,1.18-1.533,1.681
				c-1.062,1.076-2.23,2.009-3.414,2.895l-1.858,1.198c-0.63,0.374-1.294,0.688-1.927,1.046c-0.629,0.369-1.307,0.636-1.972,0.924
				c-0.663,0.288-1.311,0.612-2.001,0.826l-2.034,0.724l-2.072,0.585l-1.033,0.293l-1.049,0.228L262.639,157.711z M262.506,157.024
				l2.055-0.493c0.688-0.153,1.369-0.324,2.029-0.57l1.994-0.677l1.927-0.84c0.65-0.26,1.249-0.624,1.862-0.953
				c0.605-0.346,1.223-0.667,1.779-1.084c0.567-0.398,1.15-0.771,1.682-1.21l1.552-1.352c0.959-0.973,1.905-1.944,2.65-3.063
				c0.423-0.52,0.73-1.116,1.064-1.686c0.161-0.289,0.342-0.563,0.485-0.859l0.394-0.901l0.391-0.894l0.286-0.931
				c0.196-0.614,0.387-1.224,0.474-1.863c0.113-0.63,0.257-1.244,0.275-1.885c0.032-0.635,0.149-1.25,0.093-1.889
				c-0.039-0.622,0.01-1.277-0.093-1.856l-0.241-1.771l-0.437-2.089l-0.014-0.065l-0.003-0.016c-0.007-0.037,0.043,0.265,0.02,0.13
				l-0.009-0.028l-0.035-0.114l-0.071-0.229l-0.14-0.456l-0.277-0.909l-0.683-1.728c-0.274-0.538-0.479-1.119-0.795-1.619
				c-0.299-0.512-0.572-1.033-0.919-1.494c-0.307-0.494-0.684-0.923-1.047-1.358s-0.775-0.821-1.174-1.218
				c-0.441-0.354-0.841-0.749-1.327-1.054c-0.901-0.684-1.958-1.187-3.018-1.689c-1.102-0.447-2.229-0.873-3.448-1.149
				c-1.199-0.31-2.458-0.533-3.728-0.728l-0.027-0.004c-2.055-0.313-3.467-2.233-3.152-4.288c0.185-1.212,0.946-2.209,1.947-2.752
				c1.201-0.642,2.32-1.474,3.314-2.427c0.995-0.956,1.828-2.063,2.512-3.24c0.677-1.183,1.158-2.463,1.424-3.79
				c0.122-0.664,0.219-1.338,0.236-2.021c0.036-0.359,0.006-0.639,0.003-0.94l-0.003-0.454l-0.082-0.647l-0.079-0.648l-0.021-0.162
				l-0.005-0.04c-0.006-0.04,0.047,0.272,0.022,0.132l-0.003-0.018l-0.015-0.069l-0.06-0.28l-0.23-1.123
				c-0.126-0.764-0.411-1.445-0.6-2.178c-0.254-0.694-0.53-1.379-0.829-2.044c-0.362-0.617-0.635-1.312-1.075-1.865l-0.603-0.883
				l-0.7-0.792c-0.432-0.569-1.021-0.969-1.521-1.474c-1.135-0.849-2.348-1.646-3.747-2.17l-1.034-0.431l-1.096-0.325
				c-0.719-0.256-1.496-0.372-2.264-0.527c-1.544-0.269-3.15-0.441-4.784-0.469c-0.822-0.058-1.619-0.002-2.429,0.021l-1.219,0.039
				l-1.302,0.133l-1.301,0.133l-0.591,0.061l-0.648,0.085l-2.593,0.347c-1.728,0.234-3.458,0.453-5.182,0.713
				c-1.723,0.257-3.451,0.487-5.171,0.766l-5.157,0.838l-5.14,0.927l0.852-1.257c1.183,6.566,2.629,13.082,4.305,19.555
				c0.805,3.242,1.699,6.467,2.539,9.703c0.868,3.229,1.673,6.472,2.479,9.714c1.554,6.496,2.878,13.035,3.919,19.629
				c0.271,1.646,0.496,3.302,0.729,4.955c0.224,1.656,0.434,3.313,0.614,4.978c0.185,1.663,0.396,3.321,0.557,4.988l0.513,4.997
				l-1.913-1.296c2.102-0.225,4.207-0.423,6.304-0.67c2.094-0.26,4.195-0.479,6.282-0.772c2.09-0.282,4.173-0.6,6.251-0.944
				l3.112-0.538L262.506,157.024z"/>
			<path fill="#1D1B3A" d="M248.073,87.111c-0.593,0.128-1.19,0.229-1.779,0.379c-0.59,0.144-1.179,0.289-1.762,0.47
				c-1.169,0.338-2.324,0.75-3.471,1.21c-2.292,0.92-4.554,1.998-6.854,2.87l2.045-3.017c0.396,1.038,0.745,2.085,1.044,3.142
				s0.553,2.122,0.76,3.196c0.22,1.071,0.423,2.146,0.603,3.226c0.189,1.078,0.346,2.162,0.496,3.247
				c0.296,2.171,0.508,4.358,0.622,6.564c0.104,2.207,0.134,4.43-0.073,6.697l-1.229-0.833c2.422-0.901,4.865-1.694,7.314-2.457
				l3.681-1.105l1.847-0.521l1.75-0.557l1.554-0.592c0.508-0.21,1.017-0.468,1.521-0.693l1.418-0.802
				c0.423-0.312,0.898-0.567,1.275-0.905c0.812-0.624,1.471-1.343,2.029-2.07c0.501-0.761,0.979-1.5,1.213-2.329
				c0.287-0.806,0.468-1.646,0.518-2.553c0.053-0.442,0.016-0.916,0.028-1.386c0.012-0.233-0.044-0.48-0.06-0.722l-0.055-0.616
				l-0.169-0.942l-0.042-0.236l-0.042-0.144l-0.078-0.287c-0.069-0.371-0.243-0.828-0.379-1.274
				c-0.326-0.856-0.713-1.683-1.228-2.502c-0.535-0.796-1.215-1.572-2.076-2.272c-0.877-0.658-1.896-1.286-3.045-1.681
				c-1.136-0.445-2.373-0.642-3.62-0.744c-0.625-0.03-1.253-0.013-1.882,0.009C249.32,86.929,248.699,87.036,248.073,87.111z
				 M247.94,86.423c0.633-0.127,1.27-0.224,1.9-0.375c0.641-0.092,1.28-0.216,1.927-0.334c1.298-0.188,2.621-0.387,4.007-0.444
				c1.39-0.118,2.831,0.009,4.32,0.28c1.484,0.309,2.96,0.935,4.336,1.825c1.353,0.927,2.484,2.177,3.38,3.556
				c0.39,0.715,0.81,1.392,1.1,2.247l0.232,0.617l0.112,0.309l0.069,0.229l0.275,0.917l0.034,0.114l0.018,0.058l0.009,0.028
				l0.044,0.197l0.054,0.29l0.102,0.581c0.058,0.391,0.149,0.77,0.174,1.174c0.062,0.803,0.139,1.604,0.059,2.433
				c-0.049,1.642-0.463,3.319-1.114,4.876c-0.643,1.576-1.648,2.96-2.742,4.17c-0.576,0.575-1.146,1.159-1.785,1.621
				c-0.613,0.513-1.268,0.924-1.923,1.327c-0.647,0.424-1.335,0.711-2,1.062c-0.678,0.297-1.363,0.562-2.045,0.816
				c-0.692,0.209-1.364,0.435-2.068,0.617c-0.707,0.157-1.456,0.356-2.121,0.463l-1.981,0.275l-1.908,0.201l-3.829,0.339
				c-2.557,0.2-5.12,0.37-7.704,0.432c-0.502,0.012-0.942-0.271-1.156-0.689l-0.073-0.144c-1.033-2.03-1.828-4.105-2.549-6.194
				c-0.711-2.092-1.324-4.202-1.854-6.328c-0.263-1.063-0.519-2.128-0.741-3.199c-0.233-1.069-0.443-2.143-0.636-3.22
				c-0.205-1.074-0.364-2.158-0.479-3.25c-0.113-1.093-0.177-2.194-0.192-3.305l-0.014-0.893c-0.018-1.156,0.902-2.107,2.059-2.125
				c2.461-0.041,4.961,0.123,7.431,0.129c1.234,0.003,2.461-0.042,3.672-0.161c0.608-0.048,1.209-0.131,1.811-0.216
				C246.75,86.651,247.343,86.524,247.94,86.423z"/>
			<path fill="#1D1B3A" d="M256.06,120.55c-0.656,0.14-1.316,0.254-1.968,0.415c-0.652,0.156-1.305,0.312-1.95,0.505
				c-1.295,0.36-2.576,0.797-3.849,1.277c-2.544,0.964-5.057,2.088-7.609,3.01l2.033-2.999c0.43,1.18,0.81,2.369,1.141,3.567
				c0.325,1.2,0.615,2.406,0.84,3.626c0.474,2.434,0.751,4.904,0.877,7.405c0.131,2.499,0.154,5.02,0.315,7.514
				c0.155,2.494,0.468,4.959,0.961,7.389l-1.235-0.837c2.764-0.542,5.492-1.264,8.192-2.133l4.043-1.347l2.021-0.673l1.012-0.333
				l0.063-0.021l0.031-0.011l0.016-0.005c-0.035,0.007,0.102-0.022-0.074,0.014l0.125-0.046l0.251-0.086l0.502-0.172
				c0.329-0.116,0.683-0.228,0.992-0.347l0.805-0.37c0.534-0.195,1.083-0.517,1.633-0.767c0.552-0.259,1.044-0.599,1.568-0.878
				c0.467-0.354,0.986-0.644,1.409-1.027c0.914-0.702,1.635-1.549,2.3-2.383c0.581-0.889,1.125-1.771,1.439-2.733
				c0.324-0.954,0.583-1.928,0.637-2.962c0.072-0.506,0.024-1.04,0.048-1.567c0-0.266-0.053-0.537-0.073-0.807l-0.038-0.406
				l-0.006-0.103l-0.003-0.052l-0.002-0.025c-0.01-0.05,0.088,0.391,0.045,0.196l-0.003-0.017l-0.052-0.259
				c-0.135-0.673-0.28-1.493-0.415-1.768c-0.08-0.206-0.09-0.398-0.19-0.64l-0.296-0.725c-0.418-0.96-0.927-1.928-1.627-2.839
				c-0.315-0.486-0.724-0.911-1.121-1.375c-0.203-0.226-0.443-0.412-0.664-0.633c-0.223-0.218-0.448-0.442-0.705-0.626
				c-0.973-0.829-2.126-1.478-3.348-2.054c-1.24-0.512-2.572-0.903-3.941-1.029C258.817,120.223,257.429,120.36,256.06,120.55z
				 M255.927,119.863c1.407-0.259,2.824-0.487,4.272-0.598c1.449-0.154,2.92-0.146,4.438-0.108c1.508,0.094,3.067,0.268,4.61,0.718
				c1.546,0.426,3.087,1.087,4.501,2.046c1.443,0.922,2.675,2.218,3.696,3.667c0.97,1.314,1.815,3.644,2.101,4.724l0.078,0.253
				l0.005,0.016l0.052,0.229l0.008,0.04l0.016,0.079l0.03,0.159l0.107,0.639c0.063,0.429,0.154,0.851,0.188,1.288
				c0.045,0.879,0.147,1.755,0.042,2.65c-0.064,1.785-0.543,3.571-1.226,5.235c-0.699,1.675-1.734,3.158-2.88,4.485
				c-1.2,1.271-2.512,2.404-3.938,3.277c-0.693,0.479-1.445,0.817-2.164,1.22c-0.75,0.316-1.486,0.679-2.249,0.926
				c-0.764,0.256-1.507,0.503-2.334,0.676l-1.214,0.25c-0.371,0.058-0.708,0.089-1.064,0.135l-1.146,0.135l-1.063,0.066
				l-2.126,0.124l-4.254,0.247c-2.83,0.193-5.632,0.534-8.399,1.055l-0.015,0.003c-0.567,0.106-1.113-0.267-1.22-0.833l-0.001-0.007
				c-0.442-2.439-1.065-4.845-1.846-7.22c-0.775-2.375-1.687-4.725-2.492-7.095c-0.81-2.369-1.468-4.768-1.93-7.203
				c-0.244-1.215-0.422-2.443-0.563-3.679c-0.138-1.235-0.226-2.481-0.263-3.736l-0.024-0.81c-0.035-1.175,0.882-2.155,2.057-2.189
				c2.712-0.09,5.463,0.022,8.184-0.025c1.359-0.025,2.711-0.095,4.048-0.24c0.671-0.061,1.334-0.157,1.998-0.254
				C254.61,120.115,255.267,119.976,255.927,119.863z"/>
		</g>
	</g>
	<g>
		<path fill="#1D1B3A" d="M298.387,68.959l13.6,70.784l35.232-6.77l1.511,7.844l-44.792,8.604l-15.109-78.628L298.387,68.959z"/>
		<g>
			<path fill="#1D1B3A" d="M298.73,68.894c0.954,2.875,1.834,5.764,2.658,8.664c0.845,2.896,1.621,5.806,2.387,8.716
				c0.79,2.907,1.462,5.836,2.198,8.753c0.725,2.919,1.353,5.856,2.033,8.784c0.684,2.927,1.29,5.868,1.913,8.807
				c0.604,2.942,1.208,5.884,1.758,8.837c0.256,1.479,0.538,2.955,0.771,4.439c0.249,1.481,0.477,2.967,0.696,4.453l0.611,4.47
				c0.207,1.489,0.395,2.982,0.57,4.478l-2.789-1.89l8.926-1.076l4.455-0.583c1.486-0.186,2.965-0.412,4.446-0.625
				c2.956-0.459,5.909-0.935,8.847-1.495c1.472-0.261,2.935-0.569,4.4-0.863l4.395-0.896c0.594-0.122,1.175,0.254,1.31,0.842
				l0.012,0.053c0.596,2.598,1.131,5.206,1.774,7.793c0.176,0.709-0.255,1.426-0.964,1.603l-0.009,0.002l-0.136,0.032
				c-3.703,0.874-7.392,1.821-11.081,2.759c-3.691,0.934-7.376,1.901-11.072,2.807c-1.851,0.442-3.696,0.905-5.55,1.33l-5.564,1.258
				l-11.143,2.438c-1.798,0.393-3.575-0.746-3.968-2.544l-0.003-0.014l-0.034-0.156l-2.097-9.788
				c-0.708-3.262-1.368-6.532-2.018-9.804c-0.626-3.277-1.251-6.555-1.823-9.842c-0.599-3.282-1.125-6.578-1.678-9.868l-1.551-9.894
				c-0.264-1.648-0.481-3.305-0.725-4.957l-0.711-4.959c-0.244-1.651-0.439-3.312-0.662-4.969l-0.645-4.972
				c-0.384-3.323-0.802-6.64-1.133-9.974l-0.022-0.226c-0.065-0.656,0.411-1.242,1.065-1.314c1.618-0.176,3.239-0.336,4.863-0.48
				c1.621-0.161,3.251-0.275,4.877-0.406c0.186-0.015,0.352,0.101,0.407,0.27L298.73,68.894z M298.075,69.418
				c-1.434,0.444-2.864,0.898-4.304,1.313c-1.562,0.467-3.127,0.918-4.695,1.354l1.043-1.54c0.928,3.219,1.77,6.454,2.645,9.684
				l1.244,4.856c0.407,1.62,0.841,3.235,1.227,4.859l1.178,4.87c0.387,1.624,0.798,3.243,1.164,4.872l2.227,9.764
				c0.706,3.261,1.438,6.518,2.1,9.787c0.688,3.266,1.32,6.541,1.954,9.816c0.609,3.28,1.209,6.562,1.76,9.854l1.681,9.868
				l-4.005-2.714l11.253-1.864l5.635-0.894c1.879-0.291,3.766-0.546,5.647-0.82c3.769-0.528,7.55-0.995,11.324-1.495
				c3.774-0.496,7.552-0.982,11.314-1.543l-1.108,1.636c-0.363-2.641-0.835-5.262-1.247-7.894l1.321,0.896l-4.413,0.796
				c-1.471,0.27-2.944,0.526-4.408,0.829c-2.935,0.567-5.854,1.221-8.77,1.89c-1.455,0.352-2.912,0.688-4.361,1.067l-4.354,1.109
				l-8.69,2.309c-1.179,0.313-2.39-0.389-2.703-1.568l-0.086-0.322c-0.391-1.454-0.77-2.91-1.13-4.37l-1.088-4.378
				c-0.348-1.463-0.687-2.927-1.004-4.395c-0.335-1.465-0.619-2.939-0.93-4.409c-0.584-2.945-1.113-5.902-1.643-8.858
				c-0.511-2.961-1.037-5.918-1.486-8.89c-0.452-2.971-0.958-5.932-1.366-8.912c-0.397-2.981-0.858-5.951-1.202-8.943
				c-0.367-2.987-0.725-5.978-1.014-8.979C298.488,75.189,298.253,72.309,298.075,69.418z"/>
		</g>
	</g>
	<g>
		<path fill="#1D1B3A" d="M374.978,54.242l42.498,73.364l-9.991,1.921l-12.569-22.534l-29.323,5.639l-3.217,25.562l-9.994,1.925
			l12.182-83.873L374.978,54.242z M366.704,104.501l24.278-4.659l-19.24-34.617L366.704,104.501z"/>
		<g>
			<path fill="#1D1B3A" d="M375.28,54.066c2.126,2.851,4.19,5.738,6.19,8.662c0.998,1.463,2.024,2.91,2.994,4.39l2.942,4.419
				c0.991,1.468,1.923,2.969,2.888,4.451l2.871,4.461l5.598,9.005l2.753,4.53l2.718,4.549c1.809,3.035,3.59,6.086,5.308,9.174
				c1.71,3.092,3.403,6.193,4.999,9.352c0.803,1.576,1.631,3.138,2.413,4.726l2.373,4.75l0.119,0.238
				c0.503,1.008,0.095,2.233-0.913,2.736c-0.209,0.104-0.435,0.17-0.654,0.198c-3.37,0.43-6.742,0.855-10.104,1.332l-0.16,0.022
				c-0.625,0.088-1.213-0.246-1.475-0.784c-1.885-3.874-3.851-7.701-5.893-11.486c-1.028-1.889-2.047-3.782-3.119-5.646
				l-3.192-5.605l1.19,0.555l-7.293,1.607l-7.271,1.725l-14.512,3.597l1.955-2.087c-0.147,2.146-0.31,4.289-0.496,6.43
				c-0.179,2.141-0.346,4.284-0.564,6.42c-0.402,4.277-0.84,8.55-1.285,12.821c-0.147,1.418-1.195,2.524-2.517,2.81l-0.144,0.03
				l-9.952,2.138c-1.877,0.403-3.726-0.791-4.129-2.668c-0.084-0.391-0.099-0.78-0.052-1.155l0.02-0.15l1.339-10.511
				c0.479-3.499,0.955-6.998,1.482-10.489c0.252-1.748,0.519-3.493,0.798-5.237l0.83-5.231c0.586-3.483,1.144-6.971,1.774-10.448
				l1.855-10.436l1.971-10.419l1.043-5.201c0.354-1.732,0.682-3.469,1.058-5.199c0.736-3.461,1.456-6.925,2.246-10.379l0.044-0.193
				c0.112-0.489,0.521-0.833,0.99-0.89c1.76-0.209,3.524-0.396,5.29-0.575c1.763-0.193,3.534-0.339,5.303-0.503
				c0.146-0.014,0.282,0.052,0.364,0.162L375.28,54.066z M374.786,54.661c-1.617,0.479-3.231,0.974-4.854,1.424
				c-1.706,0.489-3.413,0.969-5.125,1.428l1.034-1.083c-0.226,3.536-0.521,7.062-0.799,10.589c-0.133,1.765-0.312,3.523-0.466,5.285
				l-0.479,5.283l-1.075,10.549l-1.189,10.533c-0.385,3.513-0.842,7.015-1.271,10.521l-0.692,5.252
				c-0.228,1.751-0.469,3.5-0.725,5.247c-0.487,3.498-1.026,6.988-1.563,10.479l-1.706,10.457l-4.161-3.973l10.035-1.712
				l-2.659,2.839c0.627-4.248,1.262-8.496,1.932-12.739c0.317-2.124,0.687-4.241,1.044-6.36c0.35-2.12,0.724-4.236,1.112-6.352
				l0.048-0.263c0.181-0.979,0.973-1.693,1.907-1.824l14.812-2.042l7.392-1.095l7.368-1.212l0.04-0.007
				c0.476-0.078,0.932,0.162,1.15,0.562l3.093,5.661c1.022,1.892,2.098,3.754,3.165,5.621c2.147,3.727,4.371,7.41,6.677,11.048
				l-1.635-0.762c3.299-0.804,6.588-1.659,9.878-2.51l-1.447,3.173l-2.939-4.421c-0.988-1.469-1.932-2.964-2.899-4.444
				c-1.945-2.956-3.793-5.968-5.625-8.989c-1.823-3.026-3.584-6.09-5.316-9.168l-2.595-4.621l-2.56-4.641l-5.026-9.337l-2.441-4.709
				c-0.807-1.574-1.646-3.13-2.425-4.72l-2.37-4.751c-0.801-1.577-1.545-3.188-2.317-4.781
				C377.606,60.987,376.169,57.839,374.786,54.661z"/>
			<path fill="#1D1B3A" d="M367.342,103.813c0.723-0.371,1.441-0.729,2.172-1.065c0.968-0.423,1.939-0.828,2.917-1.197
				c1.954-0.749,3.926-1.403,5.91-1.997c1.982-0.602,3.984-1.101,5.99-1.578c1.008-0.215,2.009-0.464,3.022-0.644
				c1.011-0.199,2.031-0.347,3.058-0.467l-2.079,4.45c-1.397-2.999-2.375-6.231-3.544-9.357c-0.588-1.562-1.24-3.087-1.981-4.562
				c-0.741-1.477-1.556-2.911-2.424-4.316c-0.873-1.403-1.811-2.771-2.797-4.109c-0.995-1.335-2.011-2.659-3.031-3.979
				c-1.018-1.322-1.997-2.666-2.955-4.021c-0.945-1.362-1.824-2.762-2.716-4.154l6.102-1.173c-0.224,3.298-0.418,6.601-0.786,9.88
				c-0.181,1.641-0.406,3.274-0.678,4.903c-0.261,1.63-0.572,3.254-0.9,4.875c-0.661,3.242-1.427,6.471-2.322,9.683
				c-0.232,0.802-0.455,1.605-0.712,2.404c-0.255,0.799-0.487,1.601-0.759,2.397c-0.281,0.796-0.532,1.595-0.838,2.388
				C367.788,102.72,367.563,103.266,367.342,103.813z M366.357,104.457c-0.134-0.849-0.227-1.692-0.311-2.534
				c-0.095-0.845-0.136-1.682-0.207-2.522c-0.062-0.839-0.085-1.674-0.129-2.512c-0.048-0.838-0.06-1.671-0.082-2.505
				c-0.057-3.335,0.018-6.651,0.196-9.956c0.092-1.651,0.2-3.301,0.359-4.944c0.147-1.645,0.342-3.282,0.581-4.915
				c0.473-3.267,1.117-6.511,1.733-9.759l0.074-0.391c0.329-1.735,2.002-2.875,3.737-2.546c1.033,0.196,1.863,0.886,2.29,1.765
				c0.712,1.492,1.437,2.978,2.094,4.5c0.646,1.529,1.271,3.07,1.855,4.633c0.583,1.564,1.171,3.125,1.779,4.675
				c0.616,1.546,1.282,3.063,2.013,4.545c0.735,1.479,1.524,2.93,2.387,4.338c0.862,1.409,1.812,2.769,2.828,4.092
				c2.037,2.644,4.267,5.181,6.076,7.95c0.866,1.326,0.493,3.104-0.833,3.97c-0.257,0.168-0.531,0.289-0.812,0.366l-0.434,0.115
				c-0.997,0.269-2,0.509-3.013,0.698c-1.009,0.208-2.031,0.348-3.047,0.521c-2.04,0.3-4.084,0.577-6.148,0.752
				c-2.062,0.184-4.137,0.305-6.229,0.333c-1.045,0.019-2.097,0.002-3.152-0.033c-1.06-0.055-2.118-0.106-3.194-0.245l-0.016-0.002
				C366.546,104.816,366.388,104.654,366.357,104.457z"/>
		</g>
	</g>
	<g>
		<g>
			<path fill="#1D1B3A" d="M300.835,288.847l-18.341,7.266l-23.027-58.117l17.625-6.982c12.703-5.034,20.875-1.567,24.557,7.723
				c2.391,6.033-0.117,11.989-4.238,15.273c7.662-0.37,13.855,2.044,17.096,10.223C318.281,273.759,313.697,283.75,300.835,288.847z
				 M279.388,236.808l-10.559,4.182l7.55,19.058l9.766-3.87c8.098-3.209,10.846-8.797,8.518-14.673
				C292.428,235.869,287.01,233.787,279.388,236.808z M290.379,261.296l-11.672,4.626l8.557,21.596l11.593-4.593
				c7.542-2.989,11.195-9.303,8.583-15.895C304.828,260.44,296.967,258.687,290.379,261.296z"/>
			<g>
				<path fill="#1D1B3A" d="M300.936,289.101c-3.059,1.205-6.086,2.492-9.076,3.87c-1.498,0.682-2.975,1.419-4.463,2.125
					c-1.484,0.717-2.954,1.47-4.433,2.202c-0.574,0.285-1.27,0.052-1.557-0.52l-0.099-0.196c-2.349-4.673-4.695-9.347-6.765-14.13
					c-2.081-4.779-3.95-9.642-5.651-14.571c-0.828-2.474-1.658-4.946-2.441-7.438c-0.804-2.483-1.567-4.982-2.397-7.455
					c-0.416-1.236-0.802-2.484-1.247-3.709l-1.299-3.688c-0.905-2.443-1.819-4.883-2.821-7.288c-0.175-0.42,0.024-0.902,0.445-1.078
					l0.007-0.003l0.02-0.008c2.524-1.008,5.027-2.071,7.521-3.156c2.489-1.099,4.971-2.215,7.438-3.368l1.853-0.859l0.463-0.215
					l0.511-0.222l0.938-0.404l0.938-0.403l1.027-0.368c0.688-0.24,1.379-0.505,2.079-0.676c1.388-0.402,2.826-0.729,4.313-0.873
					c0.747-0.064,1.491-0.154,2.26-0.119l1.148,0.015c0.386,0.032,0.772,0.081,1.159,0.129c1.549,0.175,3.088,0.662,4.566,1.293
					c0.703,0.39,1.465,0.699,2.104,1.197l0.991,0.701l0.901,0.8c0.627,0.518,1.104,1.148,1.646,1.736
					c0.487,0.617,0.947,1.259,1.375,1.91c0.813,1.345,1.497,2.652,2.053,4.151l0.177,0.479l0.181,0.64
					c0.116,0.43,0.243,0.874,0.299,1.269c0.163,0.811,0.241,1.64,0.273,2.469c0.05,1.662-0.175,3.335-0.651,4.92
					c-0.47,1.591-1.214,3.082-2.135,4.439c-0.922,1.361-2.054,2.574-3.35,3.604l-1.97-5.224c1.212-0.037,2.434-0.061,3.679,0.062
					c1.238,0.082,2.5,0.318,3.751,0.616c1.25,0.343,2.497,0.774,3.674,1.407c1.188,0.597,2.299,1.373,3.296,2.253
					c0.487,0.454,0.971,0.909,1.388,1.417c0.45,0.484,0.828,1.013,1.195,1.546c0.387,0.523,0.666,1.093,0.997,1.638
					c0.301,0.555,0.539,1.135,0.803,1.699l0.67,1.832l0.434,1.608c0.142,0.581,0.234,1.278,0.337,1.906
					c0.112,0.646,0.087,1.254,0.132,1.877c0.021,1.236-0.055,2.479-0.312,3.683c-0.088,0.606-0.263,1.195-0.447,1.776l-0.269,0.868
					l-0.355,0.835l-0.354,0.828c-0.128,0.271-0.287,0.525-0.43,0.787c-0.295,0.519-0.565,1.045-0.931,1.513
					c-0.659,0.98-1.419,1.865-2.198,2.717l-1.25,1.189c-0.429,0.38-0.893,0.717-1.326,1.083c-0.428,0.375-0.909,0.678-1.377,0.996
					c-0.468,0.317-0.916,0.661-1.415,0.925l-1.455,0.852l-1.504,0.75C303.014,288.277,301.953,288.644,300.936,289.101z
					 M300.734,288.593l1.504-0.678c0.505-0.217,1.003-0.448,1.474-0.733l1.431-0.809l1.355-0.925
					c0.461-0.294,0.867-0.661,1.29-1.003c0.414-0.354,0.84-0.689,1.206-1.091c0.377-0.388,0.771-0.758,1.114-1.173l0.993-1.263
					c0.594-0.886,1.178-1.769,1.587-2.735c0.249-0.46,0.397-0.963,0.571-1.448c0.082-0.244,0.181-0.481,0.247-0.729l0.171-0.749
					l0.17-0.741l0.084-0.756c0.062-0.5,0.118-0.995,0.092-1.498c-0.004-0.5,0.017-0.992-0.062-1.486
					c-0.068-0.492-0.068-0.98-0.204-1.462c-0.121-0.472-0.178-0.981-0.341-1.41l-0.443-1.323l-0.639-1.539l-0.02-0.048l-0.005-0.012
					c0.077,0.211,0.019,0.053,0.034,0.097l-0.011-0.021l-0.044-0.083l-0.088-0.164l-0.174-0.33l-0.345-0.657l-0.774-1.226
					c-0.29-0.372-0.531-0.788-0.847-1.126c-0.59-0.714-1.222-1.359-1.922-1.901c-0.698-0.544-1.435-1.023-2.249-1.378
					c-0.792-0.394-1.675-0.626-2.561-0.857c-0.91-0.184-1.837-0.346-2.813-0.381c-0.964-0.062-1.962-0.051-2.965-0.016l-0.022,0.001
					c-1.621,0.059-2.983-1.21-3.041-2.831c-0.034-0.957,0.405-1.832,1.094-2.394c0.828-0.668,1.565-1.469,2.19-2.344
					c0.624-0.878,1.102-1.85,1.455-2.852c0.348-1.006,0.53-2.058,0.541-3.113c-0.003-0.528-0.026-1.059-0.113-1.585
					c-0.024-0.281-0.089-0.491-0.134-0.723l-0.068-0.348l-0.158-0.484c-0.33-1.072-0.854-2.213-1.396-3.223
					c-0.295-0.495-0.606-0.979-0.934-1.446c-0.367-0.421-0.678-0.914-1.096-1.275l-0.59-0.59l-0.653-0.505
					c-0.413-0.374-0.923-0.595-1.381-0.909c-0.993-0.486-2.04-0.922-3.189-1.12l-0.855-0.18l-0.889-0.09
					c-0.588-0.092-1.201-0.067-1.812-0.075c-1.224,0.019-2.481,0.119-3.738,0.337c-0.64,0.075-1.242,0.234-1.86,0.368l-0.93,0.208
					l-0.979,0.292l-0.979,0.291l-0.445,0.132l-0.484,0.16l-1.938,0.643c-2.588,0.85-5.161,1.736-7.727,2.64
					c-2.561,0.918-5.113,1.856-7.644,2.852l0.472-1.089c0.917,2.438,1.922,4.842,2.936,7.241l1.579,3.577
					c0.515,1.197,1.089,2.37,1.632,3.556c1.089,2.37,2.244,4.715,3.359,7.074c1.136,2.352,2.225,4.722,3.315,7.092
					c2.137,4.757,4.105,9.58,5.862,14.487c1.769,4.902,3.26,9.915,4.749,14.929l-1.655-0.716c1.579-0.479,3.165-0.937,4.738-1.431
					c1.568-0.505,3.148-0.979,4.707-1.508C294.593,290.945,297.68,289.81,300.734,288.593z"/>
				<path fill="#1D1B3A" d="M279.488,237.062c-1.763,0.689-3.457,1.552-5.078,2.599c-1.624,1.04-3.202,2.195-4.84,3.199l1.129-2.611
					c0.455,0.739,0.876,1.491,1.259,2.258s0.732,1.547,1.048,2.341c0.655,1.578,1.237,3.185,1.784,4.806
					c0.544,1.622,1.024,3.269,1.434,4.944c0.395,1.681,0.748,3.378,0.918,5.148l-1.064-0.461h0.001
					c1.732-1.031,3.485-2.008,5.254-2.948l2.662-1.383l1.341-0.669l1.262-0.681l1.104-0.68c0.358-0.235,0.712-0.508,1.066-0.754
					l0.971-0.821c0.278-0.301,0.606-0.566,0.846-0.881c0.533-0.596,0.933-1.244,1.256-1.883c0.272-0.657,0.532-1.293,0.591-1.963
					c0.103-0.66,0.119-1.331,0.024-2.033c-0.022-0.348-0.121-0.705-0.179-1.067c-0.026-0.181-0.104-0.362-0.151-0.545l-0.132-0.465
					l-0.267-0.698l-0.066-0.175l-0.054-0.104l-0.102-0.209c-0.107-0.275-0.308-0.6-0.476-0.923c-0.375-0.609-0.792-1.187-1.306-1.74
					c-0.526-0.533-1.161-1.029-1.924-1.441c-0.769-0.377-1.642-0.711-2.58-0.847c-0.936-0.176-1.914-0.146-2.885-0.044
					c-0.483,0.067-0.963,0.173-1.442,0.28C280.419,236.742,279.958,236.914,279.488,237.062z M279.287,236.554
					c0.467-0.189,0.941-0.356,1.403-0.564c0.478-0.163,0.95-0.352,1.429-0.536c0.969-0.332,1.954-0.678,3.01-0.923
					c1.049-0.293,2.172-0.405,3.354-0.414c1.184,0.021,2.407,0.286,3.592,0.769c1.172,0.515,2.223,1.309,3.11,2.236
					c0.402,0.491,0.823,0.948,1.17,1.562l0.269,0.439l0.131,0.221l0.086,0.166l0.346,0.663l0.043,0.082l0.021,0.042l0.011,0.021
					l0.062,0.145l0.084,0.214l0.162,0.432c0.102,0.291,0.228,0.568,0.305,0.875c0.165,0.606,0.34,1.21,0.399,1.857
					c0.202,1.267,0.129,2.613-0.145,3.902c-0.263,1.303-0.833,2.51-1.496,3.598c-0.692,1.071-1.518,2.012-2.415,2.801
					c-0.435,0.42-0.921,0.74-1.379,1.106c-0.477,0.327-0.964,0.629-1.45,0.924c-0.501,0.262-0.983,0.532-1.497,0.775
					c-0.52,0.224-1.063,0.484-1.56,0.664l-1.48,0.499l-1.435,0.432l-2.887,0.816c-1.933,0.526-3.879,1.016-5.848,1.451v0.001
					c-0.241,0.189-0.59,0.148-0.78-0.092l-0.003-0.004l-0.282-0.365c-1.089-1.406-1.993-2.885-2.856-4.38
					c-0.85-1.501-1.627-3.03-2.342-4.585c-0.711-1.556-1.388-3.125-1.991-4.723c-0.313-0.795-0.593-1.603-0.839-2.424
					s-0.455-1.657-0.629-2.507l-0.141-0.683c-0.181-0.885,0.386-1.748,1.271-1.929c1.881-0.39,3.822-0.628,5.718-0.982
					C275.705,237.791,277.53,237.258,279.287,236.554z"/>
				<path fill="#1D1B3A" d="M290.479,261.55c-1.948,0.764-3.829,1.698-5.637,2.815c-1.812,1.109-3.575,2.337-5.398,3.416
					l1.122-2.596c0.502,0.842,0.966,1.699,1.395,2.57c0.424,0.873,0.822,1.757,1.172,2.659c0.717,1.798,1.29,3.653,1.75,5.553
					c0.466,1.897,0.843,3.83,1.34,5.716c0.471,1.896,1.077,3.737,1.807,5.53l-1.069-0.462c2.043-0.812,4.025-1.777,5.975-2.828
					l2.907-1.615l1.452-0.812l0.726-0.405l0.045-0.025l0.023-0.013l0.011-0.007c-0.025,0.011,0.075-0.032-0.056,0.021l0.089-0.054
					l0.181-0.103l0.359-0.205l0.711-0.41l0.564-0.401c0.381-0.228,0.755-0.554,1.141-0.826c0.385-0.278,0.713-0.61,1.075-0.901
					c0.307-0.34,0.663-0.637,0.931-0.993c0.601-0.671,1.025-1.427,1.423-2.159c0.33-0.761,0.604-1.525,0.702-2.31
					c0.109-0.779,0.167-1.562,0.057-2.363c-0.018-0.399-0.132-0.802-0.191-1.209l-0.314-1.11c-0.202-0.496-0.433-1.104-0.576-1.295
					c-0.091-0.146-0.127-0.293-0.239-0.463l-0.333-0.513c-0.46-0.676-0.99-1.344-1.66-1.941c-0.64-0.641-1.429-1.173-2.294-1.658
					c-0.866-0.495-1.846-0.824-2.866-1.089c-1.025-0.213-2.104-0.319-3.173-0.217C292.548,260.898,291.502,261.205,290.479,261.55z
					 M290.278,261.042c1.041-0.403,2.095-0.785,3.19-1.08c1.089-0.329,2.219-0.536,3.389-0.729c1.171-0.146,2.393-0.24,3.641-0.119
					c1.248,0.102,2.526,0.385,3.75,0.915c1.241,0.497,2.374,1.312,3.369,2.274c0.935,0.866,1.923,2.53,2.299,3.317l0.097,0.183
					l0.114,0.267l0.047,0.118l0.176,0.475c0.11,0.319,0.241,0.63,0.331,0.96c0.161,0.668,0.368,1.325,0.417,2.028
					c0.211,1.378,0.104,2.818-0.178,4.194c-0.297,1.386-0.891,2.666-1.562,3.856c-0.727,1.154-1.573,2.211-2.539,3.09
					c-0.462,0.467-0.989,0.836-1.482,1.25c-0.529,0.352-1.041,0.736-1.59,1.037c-0.549,0.308-1.083,0.604-1.692,0.858l-0.895,0.368
					l-0.797,0.258l-0.86,0.271l-0.807,0.201l-1.614,0.403l-3.225,0.813c-2.139,0.569-4.244,1.225-6.289,2.031l-0.008,0.003
					c-0.42,0.166-0.894-0.04-1.06-0.459l-0.002-0.006c-0.697-1.807-1.517-3.563-2.472-5.268c-0.929-1.714-1.979-3.381-2.938-5.082
					c-0.966-1.699-1.819-3.443-2.528-5.245c-0.363-0.896-0.679-1.813-0.967-2.739c-0.285-0.929-0.534-1.871-0.745-2.828
					l-0.137-0.618c-0.197-0.896,0.363-1.781,1.259-1.979c2.067-0.463,4.194-0.777,6.273-1.21
					C286.326,262.428,288.336,261.821,290.278,261.042z"/>
			</g>
		</g>
		<g>
			<path fill="#1D1B3A" d="M315.445,215.818l20.73,52.32l26.04-10.317l2.298,5.796l-33.107,13.118l-23.028-58.118L315.445,215.818z"
				/>
			<g>
				<path fill="#1D1B3A" d="M315.699,215.717c1.15,2.066,2.246,4.154,3.3,6.259c1.069,2.1,2.088,4.218,3.099,6.34
					c1.029,2.114,1.971,4.264,2.96,6.394c0.98,2.134,1.89,4.296,2.837,6.442c0.951,2.146,1.845,4.314,2.75,6.478
					c0.892,2.169,1.782,4.338,2.634,6.523c0.837,2.19,1.656,4.388,2.418,6.608l1.12,3.34c0.375,1.112,0.736,2.23,1.089,3.352
					l-2.415-1.044l6.69-2.124l3.332-1.095c1.115-0.355,2.212-0.755,3.314-1.14c2.207-0.767,4.402-1.562,6.573-2.42
					c2.176-0.846,4.329-1.748,6.49-2.629c0.439-0.179,0.939,0.025,1.128,0.457l0.017,0.037c0.834,1.905,1.623,3.828,2.492,5.719
					c0.238,0.519,0.012,1.131-0.506,1.369l-0.006,0.003l-0.101,0.044c-2.713,1.209-5.404,2.473-8.099,3.729
					c-2.695,1.253-5.381,2.531-8.085,3.764c-1.354,0.608-2.703,1.232-4.063,1.828l-4.085,1.774l-8.192,3.491
					c-1.322,0.563-2.851-0.052-3.414-1.373l-0.005-0.011l-0.048-0.115l-3.033-7.203c-1.018-2.398-1.999-4.812-2.974-7.228
					c-1.932-4.838-3.765-9.715-5.553-14.61l-2.629-7.363l-2.544-7.397c-1.656-4.947-3.272-9.91-4.769-14.921l-0.049-0.166
					c-0.148-0.495,0.132-1.017,0.626-1.168c2.431-0.742,4.883-1.434,7.345-2.098c0.141-0.038,0.284,0.026,0.353,0.148
					L315.699,215.717z M315.272,216.212c-2.159,1.151-4.328,2.281-6.517,3.359l0.577-1.333c2.342,4.675,4.563,9.398,6.745,14.138
					l3.214,7.132l3.128,7.166c2.05,4.791,4.056,9.6,5.961,14.448c0.945,2.428,1.882,4.858,2.783,7.303l2.725,7.326l-3.466-1.499
					l8.36-3.068l4.191-1.505c1.399-0.497,2.81-0.967,4.214-1.451c2.813-0.954,5.646-1.862,8.469-2.795
					c2.823-0.931,5.649-1.854,8.454-2.83l-0.611,1.416c-0.663-1.974-1.405-3.915-2.104-5.873l1.144,0.494
					c-2.178,0.839-4.365,1.656-6.529,2.53c-2.169,0.861-4.313,1.786-6.446,2.738c-1.067,0.476-2.141,0.936-3.196,1.44l-3.178,1.483
					l-6.329,3.035c-0.859,0.412-1.89,0.05-2.302-0.81l-0.113-0.234c-0.512-1.059-1.015-2.121-1.502-3.188l-1.472-3.2
					c-0.966-2.14-1.874-4.303-2.765-6.472c-0.876-2.175-1.713-4.366-2.549-6.557c-0.822-2.196-1.656-4.389-2.434-6.603
					c-0.779-2.214-1.598-4.411-2.345-6.638c-0.738-2.229-1.524-4.44-2.223-6.687c-0.717-2.238-1.426-4.479-2.084-6.74
					C316.43,220.582,315.829,218.406,315.272,216.212z"/>
			</g>
		</g>
		<g>
			<path fill="#1D1B3A" d="M372.057,193.387l43.273,50.096l-7.385,2.925l-12.923-15.456l-21.674,8.589l1.253,20.079l-7.388,2.927
				l-2.857-66.109L372.057,193.387z M373.021,233.146l17.943-7.109l-19.795-23.756L373.021,233.146z"/>
			<g>
				<path fill="#1D1B3A" d="M372.264,193.208c2.045,1.878,4.049,3.792,6.009,5.744c0.979,0.978,1.976,1.938,2.935,2.932l2.9,2.962
					c0.974,0.981,1.907,1.997,2.863,2.994l2.851,3.005l5.604,6.093c1.854,2.044,3.697,4.097,5.518,6.169
					c1.828,2.065,3.639,4.146,5.406,6.265c3.54,4.231,6.903,8.616,10.244,13.02l0.128,0.168c0.531,0.7,0.395,1.699-0.306,2.23
					c-0.145,0.11-0.308,0.192-0.471,0.246c-2.523,0.819-5.048,1.636-7.558,2.489l-0.123,0.042c-0.466,0.158-0.964-0.014-1.241-0.389
					c-0.999-1.353-2.032-2.678-3.066-4.001c-1.026-1.331-2.065-2.65-3.126-3.952c-1.063-1.299-2.121-2.603-3.215-3.877l-3.265-3.835
					l0.993,0.252l-5.36,2.293l-5.326,2.381l-10.609,4.868l1.196-1.885c0.199,1.667,0.387,3.335,0.556,5.005
					c0.174,1.669,0.358,3.337,0.502,5.008l0.88,10.023c0.098,1.106-0.543,2.107-1.515,2.519l-0.114,0.047l-7.325,3.085
					c-1.381,0.581-2.972-0.067-3.554-1.448c-0.12-0.286-0.188-0.581-0.208-0.875l-0.006-0.12c-0.34-5.505-0.691-11.009-0.892-16.52
					c-0.219-5.511-0.364-11.023-0.433-16.54l-0.095-8.274l-0.005-8.279l0.099-8.283c0.061-2.763,0.11-5.524,0.213-8.288l0.006-0.155
					c0.015-0.392,0.278-0.715,0.631-0.826c2.641-0.829,5.301-1.611,7.971-2.366C372.066,193.102,372.185,193.136,372.264,193.208z
					 M371.97,193.736c-2.401,1.244-4.812,2.465-7.242,3.639l0.637-0.98c0.341,2.744,0.628,5.492,0.928,8.238l0.812,8.244l0.71,8.248
					l0.619,8.253c0.408,5.502,0.738,11.007,0.996,16.515c0.276,5.508,0.4,11.021,0.537,16.535l-3.768-2.443l7.449-2.769
					l-1.628,2.565l-0.372-10.056c-0.066-1.676-0.091-3.354-0.125-5.031c-0.041-1.678-0.062-3.355-0.071-5.035l-0.001-0.208
					c-0.005-0.778,0.499-1.441,1.197-1.677l11.064-3.721l5.511-1.914l5.477-2.001l0.029-0.011c0.354-0.129,0.737-0.012,0.964,0.263
					l3.197,3.893c1.06,1.303,2.155,2.574,3.246,3.852c1.093,1.274,2.207,2.53,3.336,3.776c1.119,1.252,2.24,2.503,3.395,3.727
					l-1.364-0.347c2.413-1.097,4.812-2.23,7.212-3.36l-0.648,2.645c-3.871-3.946-7.721-7.91-11.393-12.028
					c-1.839-2.057-3.635-4.15-5.412-6.26c-1.786-2.102-3.549-4.224-5.301-6.355l-5.214-6.431l-2.559-3.257
					c-0.848-1.091-1.717-2.162-2.546-3.268l-2.51-3.3c-0.844-1.094-1.648-2.221-2.474-3.331
					C375.055,198.178,373.494,195.973,371.97,193.736z"/>
				<path fill="#1D1B3A" d="M373.396,232.536c0.506-0.395,1.01-0.776,1.526-1.144c0.688-0.448,1.363-0.924,2.062-1.344
					c1.39-0.859,2.807-1.648,4.242-2.393c1.433-0.75,2.896-1.424,4.364-2.083c1.476-0.644,2.959-1.264,4.502-1.737l-0.947,3.717
					c-1.511-2.095-2.722-4.44-4.086-6.657c-1.331-2.245-2.922-4.274-4.665-6.176c-0.865-0.956-1.803-1.852-2.743-2.745l-2.896-2.618
					c-0.979-0.86-1.928-1.747-2.858-2.649c-0.924-0.907-1.802-1.853-2.688-2.791l4.51-1.787c0.308,2.562,0.639,5.124,0.835,7.693
					c0.1,1.285,0.165,2.571,0.193,3.86c0.037,1.289,0.034,2.579,0.019,3.871c-0.04,2.584-0.143,5.171-0.383,7.767
					c-0.097,1.297-0.257,2.598-0.419,3.897C373.806,230.324,373.621,231.425,373.396,232.536z M372.749,233.163
					c-0.449-1.264-0.793-2.534-1.133-3.805c-0.316-1.271-0.631-2.543-0.882-3.818c-0.549-2.549-0.96-5.105-1.309-7.666
					c-0.17-1.28-0.327-2.562-0.444-3.846c-0.126-1.283-0.215-2.568-0.27-3.855c-0.112-2.574-0.09-5.157-0.091-7.738v-0.311
					c0-1.379,1.118-2.497,2.497-2.497c0.821,0,1.558,0.408,2.013,1.021c0.764,1.041,1.535,2.074,2.262,3.146
					c0.719,1.078,1.42,2.171,2.09,3.29l2.053,3.321c0.709,1.086,1.421,2.169,2.205,3.193c1.556,2.058,3.265,3.988,5.232,5.702
					c1.935,1.742,4.023,3.356,5.812,5.221c0.855,0.893,0.826,2.311-0.067,3.167c-0.168,0.161-0.354,0.291-0.553,0.39l-0.327,0.16
					c-1.448,0.712-2.954,1.276-4.47,1.817c-1.521,0.526-3.05,1.037-4.607,1.472c-1.555,0.44-3.129,0.836-4.729,1.162
					c-0.797,0.172-1.615,0.289-2.423,0.434c-0.82,0.113-1.641,0.228-2.485,0.277l-0.013,0.001
					C372.945,233.411,372.801,233.309,372.749,233.163z"/>
			</g>
		</g>
	</g>
	<g>
		<g>
			<path fill="#1D1B3A" d="M68.817,215.335l-21.599-4.143l13.111-68.438l20.756,3.976c14.961,2.86,20.574,11.015,18.477,21.953
				c-1.357,7.105-7.282,11.205-13.121,11.831c7.427,4.237,11.809,10.209,9.964,19.845C94.255,211.577,83.967,218.232,68.817,215.335
				z M79.778,153.55l-12.438-2.381l-4.294,22.441l11.5,2.203c9.536,1.825,15.463-1.787,16.791-8.706
				C92.607,160.473,88.755,155.272,79.778,153.55z M75.467,183.164l-13.749-2.633l-4.868,25.43l13.651,2.617
				c8.88,1.702,16.097-2.055,17.582-9.814C89.573,191,83.225,184.651,75.467,183.164z"/>
			<g>
				<path fill="#1D1B3A" d="M68.76,215.634c-3.598-0.696-7.215-1.298-10.853-1.792c-1.817-0.255-3.646-0.445-5.47-0.671
					c-1.825-0.215-3.658-0.387-5.486-0.582c-0.711-0.076-1.226-0.711-1.153-1.421l0.024-0.243c0.587-5.8,1.176-11.6,2.091-17.337
					c0.902-5.739,2.053-11.432,3.402-17.086c0.701-2.822,1.399-5.645,2.153-8.456c0.73-2.816,1.507-5.624,2.205-8.446
					c1.456-5.634,2.712-11.306,3.738-17.021c0.09-0.503,0.57-0.837,1.072-0.746l0,0l0.021,0.004l4.475,0.804l4.489,0.727
					l4.501,0.663l4.51,0.618l2.257,0.3l0.564,0.074l0.612,0.098l1.124,0.181l1.124,0.181l1.186,0.269
					c0.792,0.186,1.6,0.35,2.36,0.607c1.546,0.451,3.095,1.006,4.581,1.759c0.74,0.387,1.494,0.747,2.196,1.24l1.072,0.7
					c0.343,0.261,0.678,0.539,1.013,0.814c1.352,1.092,2.508,2.471,3.522,3.948c0.427,0.786,0.959,1.534,1.262,2.385l0.513,1.252
					l0.369,1.292c0.28,0.861,0.353,1.741,0.511,2.617c0.089,0.873,0.137,1.752,0.149,2.62c-0.038,1.751-0.18,3.393-0.552,5.131
					l-0.12,0.556l-0.213,0.711c-0.146,0.474-0.294,0.967-0.478,1.373c-0.331,0.859-0.753,1.686-1.219,2.486
					c-0.948,1.593-2.16,3.031-3.558,4.237c-1.393,1.215-2.984,2.172-4.663,2.898c-1.681,0.729-3.47,1.193-5.305,1.389l1.272-6.093
					c1.161,0.69,2.323,1.4,3.421,2.261c1.115,0.818,2.161,1.796,3.16,2.823c0.97,1.071,1.885,2.224,2.613,3.522
					c0.761,1.272,1.341,2.667,1.752,4.091c0.187,0.719,0.37,1.437,0.457,2.164c0.134,0.725,0.173,1.447,0.2,2.168
					c0.05,0.724-0.027,1.428-0.042,2.138c-0.051,0.702-0.167,1.39-0.255,2.079l-0.21,1.008l-0.106,0.502l-0.054,0.25l-0.028,0.125
					l-0.007,0.031l-0.031,0.143l-0.005,0.014l-0.018,0.055l-0.564,1.77c-0.22,0.63-0.548,1.342-0.828,1.994
					c-0.281,0.675-0.668,1.231-0.999,1.844c-0.315,0.611-0.771,1.148-1.163,1.711c-0.38,0.572-0.873,1.062-1.335,1.565
					c-0.445,0.519-0.962,0.967-1.482,1.403l-0.773,0.656l-0.834,0.572l-0.828,0.567c-0.282,0.177-0.585,0.322-0.876,0.483
					c-0.587,0.311-1.157,0.644-1.78,0.865c-1.206,0.527-2.45,0.905-3.692,1.24l-1.888,0.371c-0.631,0.101-1.269,0.141-1.896,0.227
					c-0.627,0.097-1.261,0.093-1.891,0.112s-1.257,0.074-1.885,0.024l-1.878-0.069l-1.863-0.193
					C71.208,216.101,69.991,215.814,68.76,215.634z M68.875,215.037l1.819,0.262c0.605,0.098,1.212,0.178,1.825,0.191l1.83,0.095
					l1.828-0.06c0.609-0.001,1.211-0.104,1.812-0.172c0.602-0.085,1.203-0.146,1.788-0.305c0.587-0.14,1.179-0.252,1.749-0.437
					l1.689-0.594c1.089-0.478,2.167-0.959,3.13-1.624c0.509-0.284,0.95-0.668,1.403-1.021c0.224-0.182,0.458-0.346,0.67-0.538
					l0.608-0.603l0.604-0.596l0.531-0.66c0.356-0.434,0.707-0.865,0.983-1.354c0.294-0.473,0.608-0.923,0.829-1.436
					c0.231-0.503,0.523-0.963,0.685-1.496c0.168-0.517,0.419-1.03,0.522-1.531c0.116-0.518,0.25-0.955,0.372-1.511l0.31-1.831
					l0.01-0.058l0.003-0.015c-0.055,0.248-0.015,0.062-0.026,0.113l0.002-0.025l0.007-0.104l0.018-0.207l0.035-0.413l0.074-0.823
					l0.012-1.616c-0.049-0.523-0.028-1.06-0.122-1.565c-0.128-1.024-0.336-2.01-0.671-2.939c-0.33-0.929-0.736-1.82-1.29-2.642
					c-0.509-0.844-1.201-1.59-1.896-2.338c-0.746-0.717-1.521-1.424-2.418-2.041c-0.87-0.637-1.815-1.223-2.779-1.789l-0.021-0.013
					c-1.56-0.916-2.082-2.924-1.166-4.483c0.54-0.919,1.477-1.479,2.459-1.597c1.179-0.132,2.352-0.445,3.463-0.896
					c1.113-0.452,2.144-1.08,3.075-1.811c0.928-0.738,1.729-1.618,2.371-2.605c0.312-0.498,0.607-1.011,0.841-1.558
					c0.146-0.279,0.21-0.515,0.306-0.759l0.144-0.368l0.142-0.551c0.331-1.21,0.521-2.593,0.614-3.868
					c0.019-0.643,0.016-1.284-0.013-1.919c-0.094-0.615-0.09-1.265-0.268-1.854l-0.202-0.907l-0.312-0.866
					c-0.165-0.6-0.514-1.111-0.755-1.682c-0.644-1.051-1.368-2.087-2.33-2.961l-0.698-0.681l-0.781-0.616
					c-0.499-0.438-1.09-0.782-1.66-1.154c-1.162-0.715-2.405-1.372-3.718-1.92c-0.646-0.311-1.309-0.522-1.971-0.766l-0.998-0.36
					l-1.095-0.311l-1.095-0.312l-0.498-0.142l-0.552-0.14l-2.208-0.556l-4.419-1.093l-4.428-1.046l-4.439-0.984l-4.455-0.906
					l1.094-0.742c-1.159,5.69-2.089,11.425-2.817,17.198c-0.395,2.881-0.71,5.776-1.073,8.663c-0.339,2.892-0.732,5.772-1.124,8.653
					c-0.836,5.752-1.871,11.467-3.153,17.133c-1.27,5.67-2.866,11.276-4.465,16.883l-1.129-1.664
					c1.771,0.495,3.538,1.014,5.312,1.49c1.777,0.464,3.548,0.964,5.33,1.399C61.691,213.573,65.273,214.353,68.875,215.037z"/>
				<path fill="#1D1B3A" d="M79.721,153.849c-2.071-0.405-4.181-0.607-6.333-0.592c-2.15,0.007-4.326,0.15-6.469,0.115l2.625-1.781
					c-0.014,0.967-0.067,1.926-0.166,2.876s-0.236,1.894-0.414,2.828c-0.328,1.876-0.741,3.735-1.195,5.587
					c-0.459,1.852-0.991,3.688-1.608,5.509c-0.308,0.91-0.658,1.812-1.01,2.714c-0.365,0.899-0.75,1.796-1.205,2.678l-0.727-1.07
					l0.002,0.001c1.125,0.019,2.241,0.091,3.359,0.148c1.12,0.049,2.231,0.14,3.346,0.222l3.332,0.293l1.66,0.174l1.594,0.113
					l1.446,0.021c0.478-0.007,0.973-0.052,1.454-0.071l1.404-0.192c0.441-0.116,0.909-0.169,1.322-0.322
					c0.857-0.242,1.621-0.612,2.308-1.02c0.649-0.455,1.274-0.898,1.729-1.494c0.492-0.56,0.909-1.181,1.24-1.897
					c0.187-0.341,0.309-0.735,0.471-1.111c0.084-0.186,0.119-0.403,0.184-0.604l0.154-0.515l0.167-0.816l0.042-0.204l0.012-0.129
					l0.029-0.258c0.063-0.322,0.069-0.748,0.104-1.152c0.012-0.798-0.036-1.59-0.188-2.417c-0.177-0.817-0.478-1.663-0.947-2.508
					c-0.498-0.813-1.119-1.65-1.922-2.34c-0.774-0.725-1.712-1.283-2.687-1.768c-0.495-0.227-1.009-0.414-1.524-0.601
					C80.788,154.105,80.252,153.991,79.721,153.849z M79.836,153.251c0.552,0.101,1.098,0.229,1.657,0.31
					c0.547,0.132,1.104,0.237,1.664,0.351c1.11,0.268,2.244,0.532,3.383,0.933c1.162,0.353,2.286,0.919,3.402,1.617
					c1.101,0.728,2.093,1.709,2.919,2.871c0.795,1.185,1.309,2.56,1.59,3.963c0.084,0.703,0.207,1.385,0.166,2.171l-0.011,0.573
					l-0.009,0.287l-0.018,0.207l-0.072,0.83l-0.009,0.104l-0.005,0.052l-0.002,0.025l-0.028,0.174l-0.05,0.252l-0.104,0.502
					c-0.079,0.335-0.128,0.671-0.238,1.005c-0.208,0.67-0.403,1.342-0.735,1.986c-0.568,1.312-1.443,2.534-2.471,3.584
					c-1.026,1.067-2.285,1.861-3.56,2.489c-1.292,0.593-2.631,0.984-3.946,1.189c-0.66,0.136-1.309,0.146-1.96,0.216
					c-0.644,0.022-1.283,0.016-1.916,0.003c-0.627-0.055-1.243-0.088-1.872-0.167c-0.622-0.101-1.29-0.181-1.864-0.309l-1.691-0.415
					l-1.607-0.453l-3.204-0.959c-1.065-0.336-2.133-0.662-3.191-1.03c-1.061-0.36-2.123-0.705-3.177-1.104l-0.001,0.001
					c-0.338,0.034-0.641-0.212-0.675-0.551v-0.002l-0.052-0.518c-0.097-0.988-0.124-1.963-0.132-2.934
					c0.007-0.968,0.014-1.936,0.064-2.896c0.099-1.919,0.281-3.823,0.538-5.712c0.262-1.889,0.564-3.77,0.952-5.634
					c0.18-0.936,0.399-1.862,0.659-2.782c0.26-0.919,0.563-1.83,0.907-2.734l0.276-0.726c0.357-0.94,1.408-1.414,2.349-1.056
					c2.004,0.759,3.973,1.695,5.969,2.496C75.726,152.272,77.761,152.863,79.836,153.251z"/>
				<path fill="#1D1B3A" d="M75.409,183.462c-2.289-0.447-4.618-0.693-6.987-0.725c-2.368-0.04-4.763,0.06-7.123-0.017l2.609-1.771
					c-0.031,1.092-0.107,2.176-0.227,3.251c-0.123,1.075-0.277,2.145-0.488,3.202c-0.4,2.12-0.972,4.207-1.675,6.27
					c-0.697,2.063-1.499,4.106-2.158,6.178c-0.691,2.064-1.223,4.159-1.608,6.282l-0.729-1.075c1.204,0.229,2.417,0.407,3.635,0.566
					c1.219,0.152,2.448,0.245,3.676,0.35l3.701,0.22l1.851,0.105l0.926,0.053l0.059,0.004l0.028,0.001l0.015,0.001
					c-0.03-0.006,0.089,0.015-0.065-0.013l0.116,0.003l0.23,0.011l0.462,0.022l0.913,0.04l0.771-0.04
					c0.494,0.014,1.041-0.069,1.566-0.095c0.529-0.031,1.036-0.148,1.551-0.205c0.491-0.136,1.005-0.202,1.471-0.377
					c0.965-0.273,1.819-0.726,2.626-1.186c0.757-0.532,1.48-1.069,2.046-1.747c0.569-0.667,1.092-1.37,1.468-2.188
					c0.223-0.386,0.355-0.833,0.544-1.252c0.085-0.215,0.13-0.451,0.2-0.675l0.101-0.341l0.027-0.085l0.015-0.043l0.007-0.021
					c-0.059,0.366-0.015,0.093-0.027,0.171l0.003-0.014l0.042-0.227c0.107-0.588,0.254-1.297,0.233-1.562
					c0.002-0.193,0.057-0.352,0.052-0.579l-0.005-0.682c-0.029-0.91-0.129-1.856-0.401-2.818c-0.099-0.495-0.292-0.971-0.463-1.473
					c-0.224-0.471-0.421-0.986-0.702-1.459c-0.52-0.983-1.243-1.88-2.046-2.739c-0.837-0.812-1.788-1.559-2.854-2.102
					C77.745,184.086,76.578,183.75,75.409,183.462z M75.524,182.865c1.221,0.243,2.439,0.515,3.646,0.893
					c1.221,0.342,2.408,0.822,3.623,1.341c1.189,0.562,2.395,1.205,3.497,2.065c1.113,0.843,2.146,1.874,2.98,3.104
					c0.87,1.21,1.448,2.654,1.807,4.155c0.361,1.374,0.295,3.531,0.178,4.496l-0.019,0.229l-0.039,0.249l-0.013,0.069l-0.027,0.139
					l-0.118,0.552c-0.087,0.367-0.149,0.737-0.263,1.102c-0.248,0.725-0.446,1.467-0.821,2.157
					c-0.626,1.423-1.589,2.713-2.677,3.838c-1.105,1.129-2.42,1.994-3.773,2.698c-1.379,0.642-2.805,1.135-4.239,1.382
					c-0.715,0.163-1.432,0.195-2.143,0.289c-0.708,0.015-1.42,0.07-2.116,0.025c-0.7-0.039-1.381-0.079-2.105-0.205l-1.062-0.189
					l-0.903-0.233l-0.971-0.262l-0.88-0.293l-1.759-0.587l-3.52-1.164c-1.179-0.357-2.356-0.726-3.545-1.035
					c-1.189-0.302-2.383-0.585-3.586-0.817l-0.01-0.002c-0.493-0.096-0.816-0.573-0.721-1.066l0.001-0.007
					c0.426-2.115,0.705-4.259,0.826-6.433c0.151-2.167,0.161-4.362,0.275-6.537c0.108-2.176,0.349-4.327,0.76-6.445
					c0.194-1.061,0.445-2.111,0.729-3.155c0.287-1.044,0.616-2.079,0.99-3.105l0.241-0.663c0.351-0.961,1.407-1.459,2.369-1.108
					c2.222,0.802,4.41,1.778,6.625,2.616C70.977,181.803,73.23,182.435,75.524,182.865z"/>
			</g>
		</g>
		<g>
			<path fill="#1D1B3A" d="M126.251,155.379l-11.803,61.614l30.67,5.877l-1.308,6.823l-38.991-7.466l13.113-68.445L126.251,155.379z
				"/>
			<g>
				<path fill="#1D1B3A" d="M126.55,155.437c-0.154,2.632-0.373,5.251-0.641,7.861c-0.25,2.613-0.56,5.216-0.878,7.816
					c-0.297,2.604-0.697,5.189-1.041,7.785c-0.361,2.592-0.758,5.178-1.176,7.759c-0.834,5.163-1.721,10.316-2.725,15.446
					c-0.523,2.562-1.067,5.119-1.679,7.663l-0.945,3.812c-0.312,1.271-0.642,2.538-0.98,3.805l-1.646-2.428
					c5.043,1.335,10.08,2.705,15.151,3.896c2.538,0.581,5.079,1.148,7.634,1.642c1.274,0.263,2.557,0.485,3.837,0.719l3.842,0.692
					c0.521,0.093,0.868,0.584,0.788,1.104l-0.008,0.047c-0.356,2.289-0.765,4.568-1.078,6.866c-0.086,0.63-0.666,1.07-1.296,0.984
					l-0.007-0.001l-0.12-0.018c-3.275-0.486-6.563-0.907-9.85-1.337c-3.285-0.434-6.576-0.838-9.856-1.296
					c-1.639-0.238-3.281-0.459-4.917-0.712l-4.904-0.774l-9.795-1.617c-1.581-0.261-2.65-1.754-2.39-3.334l0.002-0.013l0.023-0.138
					l1.458-8.59c0.478-2.865,0.997-5.723,1.526-8.577c1.078-5.707,2.272-11.392,3.519-17.065l1.934-8.499
					c0.659-2.831,1.357-5.653,2.034-8.48c0.334-1.414,0.711-2.82,1.065-4.23l1.08-4.228c0.76-2.812,1.491-5.628,2.297-8.43
					l0.055-0.19c0.158-0.552,0.732-0.872,1.285-0.719c1.365,0.379,2.727,0.771,4.086,1.178c1.362,0.393,2.717,0.825,4.074,1.244
					c0.154,0.047,0.251,0.194,0.242,0.349L126.55,155.437z M125.852,155.65c-1.302-0.103-2.605-0.196-3.902-0.324
					c-1.414-0.126-2.824-0.266-4.232-0.419l1.34-0.908c-0.287,2.901-0.649,5.788-0.981,8.682l-0.559,4.327
					c-0.192,1.441-0.362,2.888-0.574,4.325c-0.416,2.877-0.811,5.758-1.244,8.631l-1.345,8.612
					c-0.939,5.733-1.931,11.457-3.038,17.157c-0.563,2.849-1.137,5.695-1.752,8.534l-1.82,8.521l-2.364-3.484l9.7,2.116l4.844,1.091
					c1.613,0.369,3.221,0.771,4.831,1.155c3.218,0.786,6.426,1.627,9.639,2.438c3.213,0.814,6.424,1.637,9.646,2.396l-1.423,0.966
					c0.558-2.251,1.021-4.521,1.537-6.779l0.78,1.149l-3.826-0.777c-1.275-0.256-2.549-0.523-3.83-0.75
					c-2.557-0.486-5.128-0.898-7.701-1.297c-5.152-0.768-10.339-1.356-15.519-1.98c-1.055-0.127-1.808-1.086-1.68-2.141l0.033-0.287
					c0.152-1.301,0.315-2.601,0.494-3.897l0.531-3.891c0.372-2.59,0.812-5.167,1.271-7.74c0.963-5.139,2.044-10.255,3.177-15.36
					c0.565-2.553,1.152-5.103,1.775-7.645c0.64-2.539,1.223-5.089,1.909-7.618c0.665-2.534,1.34-5.066,2.072-7.588
					C124.327,160.45,125.063,158.044,125.852,155.65z"/>
			</g>
		</g>
		<g>
			<path fill="#1D1B3A" d="M192.921,168.15l10.734,73.004l-8.695-1.663l-2.912-22.27l-25.521-4.89l-10.834,19.643l-8.697-1.667
				l36.858-63.895L192.921,168.15z M170.042,206.123l21.131,4.048l-4.407-34.188L170.042,206.123z"/>
			<g>
				<path fill="#1D1B3A" d="M193.223,168.106c0.801,2.989,1.539,5.988,2.215,8.997c0.336,1.504,0.7,3.004,1.008,4.513l0.956,4.521
					c0.328,1.506,0.599,3.02,0.901,4.529l0.884,4.531c0.565,3.024,1.108,6.053,1.63,9.083c0.515,3.032,1.025,6.064,1.496,9.104
					c0.484,3.036,0.942,6.076,1.337,9.126c0.8,6.098,1.34,12.233,1.849,18.373l0.02,0.235c0.08,0.977-0.646,1.834-1.623,1.915
					c-0.201,0.017-0.404-0.003-0.589-0.05c-2.863-0.737-5.727-1.479-8.598-2.176l-0.136-0.033c-0.534-0.13-0.901-0.59-0.94-1.109
					c-0.277-3.739-0.635-7.467-1.068-11.186c-0.224-1.858-0.438-3.718-0.705-5.57l-0.777-5.561l0.783,0.831l-6.413-1.051
					l-6.434-0.947l-12.89-1.77l2.253-1.057c-0.81,1.688-1.631,3.369-2.472,5.041c-0.834,1.675-1.659,3.354-2.523,5.012
					c-1.703,3.331-3.433,6.646-5.169,9.959c-0.576,1.1-1.781,1.656-2.941,1.461l-0.126-0.022l-8.732-1.48
					c-1.647-0.279-2.756-1.842-2.477-3.488c0.058-0.342,0.171-0.659,0.328-0.947l0.065-0.117c2.974-5.381,5.936-10.769,9.044-16.072
					c1.531-2.665,3.118-5.297,4.688-7.94c1.595-2.628,3.17-5.268,4.799-7.876l4.861-7.841l4.948-7.79
					c1.684-2.577,3.348-5.165,5.047-7.732c1.71-2.562,3.408-5.131,5.159-7.669l0.099-0.143c0.247-0.359,0.688-0.506,1.087-0.4
					c2.979,0.801,5.949,1.655,8.913,2.543c0.123,0.036,0.211,0.134,0.242,0.249L193.223,168.106z M192.631,168.425
					c-3.003-0.266-6.001-0.56-8.988-0.908l1.185-0.543c-1.32,2.786-2.694,5.543-4.056,8.305c-1.372,2.758-2.779,5.493-4.167,8.241
					l-4.267,8.184l-4.354,8.133c-1.442,2.717-2.939,5.401-4.416,8.098c-1.502,2.682-2.986,5.373-4.527,8.033
					c-3.034,5.346-6.215,10.606-9.385,15.875l-2.083-4.553l8.662,1.854l-3.067,1.438c1.875-3.235,3.757-6.467,5.665-9.684
					c0.941-1.616,1.922-3.21,2.894-4.81c0.965-1.603,1.949-3.194,2.945-4.779l0.123-0.197c0.461-0.734,1.332-1.057,2.13-0.86
					l12.632,3.12l6.327,1.497l6.348,1.395l0.034,0.008c0.41,0.09,0.7,0.43,0.749,0.824l0.679,5.573
					c0.219,1.859,0.489,3.711,0.751,5.564c0.537,3.705,1.15,7.399,1.844,11.084l-1.076-1.143c2.926,0.412,5.859,0.779,8.793,1.15
					l-2.192,2.1c-1.28-6.026-2.529-12.058-3.519-18.128c-0.5-3.034-0.937-6.077-1.347-9.125c-0.424-3.045-0.808-6.096-1.188-9.147
					c-0.373-3.053-0.725-6.109-1.054-9.168l-0.458-4.595c-0.145-1.532-0.321-3.06-0.44-4.596l-0.386-4.605
					c-0.14-1.533-0.223-3.074-0.334-4.612C192.874,174.45,192.726,171.442,192.631,168.425z"/>
				<path fill="#1D1B3A" d="M170.759,205.773c0.712-0.069,1.415-0.127,2.12-0.163c0.914-0.011,1.835-0.053,2.744-0.03
					c1.82,0.023,3.626,0.129,5.421,0.288c1.797,0.151,3.576,0.393,5.352,0.651c1.772,0.277,3.54,0.581,5.273,1.059l-3.114,2.93
					c-0.168-2.874,0.097-5.805,0.14-8.707c0.091-2.907-0.191-5.768-0.692-8.6c-0.132-0.707-0.27-1.413-0.427-2.117l-0.512-2.106
					c-0.373-1.399-0.77-2.797-1.169-4.193c-0.396-1.397-0.756-2.799-1.094-4.204c-0.325-1.406-0.586-2.82-0.857-4.233l5.311,1.017
					c-1.243,2.596-2.464,5.203-3.817,7.737c-0.675,1.268-1.383,2.517-2.127,3.746c-0.736,1.234-1.511,2.447-2.299,3.652
					c-1.583,2.407-3.228,4.779-5.006,7.077c-0.867,1.162-1.795,2.289-2.727,3.415C172.469,203.937,171.636,204.863,170.759,205.773z
					 M169.775,205.975c0.334-1.458,0.771-2.857,1.211-4.256c0.463-1.386,0.928-2.771,1.455-4.12
					c1.008-2.726,2.151-5.377,3.355-7.993c0.605-1.307,1.225-2.605,1.883-3.883c0.649-1.282,1.334-2.545,2.053-3.788
					c1.435-2.49,3-4.905,4.545-7.334l0.186-0.292c0.824-1.297,2.545-1.68,3.842-0.855c0.772,0.491,1.222,1.316,1.283,2.165
					c0.096,1.436,0.203,2.87,0.244,4.312c0.03,1.444,0.037,2.892,0.008,4.344c-0.032,1.452-0.062,2.904-0.066,4.354l0.039,2.167
					c0.026,0.721,0.072,1.438,0.124,2.156c0.233,2.866,0.686,5.704,1.511,8.494c0.778,2.796,1.777,5.563,2.344,8.387
					c0.271,1.353-0.605,2.669-1.958,2.939c-0.255,0.052-0.508,0.062-0.753,0.036l-0.404-0.045c-1.787-0.197-3.542-0.567-5.291-0.966
					c-1.746-0.415-3.488-0.849-5.214-1.372c-1.727-0.516-3.443-1.085-5.144-1.736c-0.853-0.314-1.693-0.694-2.539-1.042
					c-0.839-0.384-1.679-0.767-2.504-1.226l-0.013-0.007C169.812,206.326,169.737,206.144,169.775,205.975z"/>
			</g>
		</g>
	</g>
</g>
<g>
	<g>
		<path fill="#D71F28" d="M491.45,45.596C448.185,72.645,101.157,297.941,62.347,325.448c-14.498,9.758-29.453,23.97-43.494,29.275
			l-16.188-12.03l469.02-306.719L491.45,45.596z"/>
		<g>
			<path fill="#D71F28" d="M490.086,43.261c-38.941,24.357-77.335,49.621-115.881,74.593
				c-60.833,39.41-121.597,78.929-182.265,118.593c-42.113,27.532-84.483,54.764-125.987,83.212
				c-10.862,7.445-21.09,15.729-31.828,23.34c-4.41,3.125-9.013,5.958-13.908,8.255c-0.998,0.469,0.594,1.576-1.127,0.297
				c-0.946-0.703-1.893-1.406-2.839-2.11c-4.074-3.027-8.147-6.055-12.221-9.082c0,1.557,0,3.113,0,4.67
				c22.319-14.597,44.64-29.192,66.959-43.789c50.139-32.788,100.276-65.576,150.415-98.364
				c52.725-34.479,105.449-68.959,158.174-103.439c30.078-19.67,60.157-39.34,90.235-59.01c1.079-0.705,2.157-1.411,3.235-2.116
				c-0.909,0-1.819,0-2.729,0c6.588,3.207,13.177,6.415,19.766,9.622c3.121,1.52,5.864-3.144,2.729-4.67
				c-5.614-2.733-11.229-5.466-16.844-8.2c-1.841-0.896-4-2.502-5.983-1.205c-2.39,1.562-4.779,3.125-7.169,4.688
				c-12.842,8.398-25.684,16.796-38.525,25.194c-46.894,30.667-93.788,61.333-140.682,92
				c-54.148,35.41-108.297,70.821-162.445,106.231c-36.17,23.654-72.34,47.309-108.511,70.962c-3.785,2.476-7.57,4.95-11.355,7.426
				c-1.82,1.19-1.644,3.448,0,4.67c4.868,3.617,9.735,7.235,14.604,10.853c2.609,1.939,3.966,1.38,7.043,0.043
				c6.526-2.834,12.434-7.121,18.14-11.31c10.542-7.737,20.85-15.719,31.672-23.062c17.548-11.908,35.273-23.557,52.981-35.224
				c57.478-37.868,115.153-75.437,172.857-112.957c53.21-34.599,106.446-69.159,159.831-103.487
				c11.438-7.354,22.858-14.741,34.387-21.952C495.764,46.087,493.052,41.406,490.086,43.261z"/>
		</g>
	</g>
	<g>
		<path fill="#D71F28" d="M469.612,367.306C393.534,326.295,104.674,55.939,33.313,13.257l-14.226,30.91
			c0,0,442.702,341.293,440.546,342.373C457.479,387.621,469.612,367.306,469.612,367.306z"/>
		<g>
			<path fill="#D71F28" d="M470.977,364.971c-19.457-10.538-37.187-24.606-54.6-38.143c-26.68-20.738-52.661-42.376-78.505-64.142
				c-60.081-50.603-119.152-102.388-178.963-153.308c-24.381-20.756-48.858-41.418-73.858-61.429
				C68.858,34.989,52.5,21.623,34.679,10.922c-1.171-0.703-3.089-0.359-3.7,0.97c-4.742,10.303-9.483,20.607-14.226,30.91
				c-0.68,1.477-0.288,2.729,0.97,3.7C38.878,62.811,60.024,79.13,81.17,95.453c47.516,36.678,95.016,73.377,142.488,110.11
				c49.636,38.406,99.252,76.836,148.767,115.397c27.73,21.596,55.999,42.722,82.935,65.315c0.549,0.46,1.096,0.925,1.631,1.402
				c0.356,0.319,0.963,1.176,0.3,0.172c-1.558-2.359,4.131,0.642,4.942-1.641c0.259-0.729,0.664-1.427,1.009-2.116
				c1.057-2.109,2.217-4.168,3.371-6.225c1.734-3.09,3.52-6.154,5.335-9.197c1.791-3.003-2.886-5.721-4.67-2.73
				c-3.022,5.066-6.011,10.173-8.706,15.422c-0.919,1.792-2.146,3.806-1.776,5.886c0.49,2.76,4.821,2.55,5.452,0.006
				c0.636-2.563-2.724-4.53-4.371-5.891c-10.307-8.513-20.882-16.711-31.392-24.969c-42.439-33.347-85.104-66.406-127.757-99.478
				c-51.329-39.798-102.706-79.531-154.104-119.24c-36.343-28.078-72.696-56.144-109.062-84.192
				C30.526,49.6,25.49,45.716,20.453,41.833c0.323,1.233,0.646,2.466,0.97,3.7c4.742-10.303,9.483-20.607,14.226-30.91
				c-1.233,0.323-2.467,0.647-3.7,0.97c18.643,11.192,35.697,25.257,52.604,38.85c26.17,21.04,51.788,42.766,77.333,64.557
				c59.769,50.986,118.859,102.768,179.027,153.285c24.688,20.728,49.537,41.292,75.045,61.009
				c16.694,12.903,33.679,26.269,52.291,36.349C471.314,371.302,474.044,366.632,470.977,364.971z"/>
		</g>
	</g>
</g>
</svg>
