<?xml version="1.0" encoding="utf-8"?>
<!-- Generator: Adobe Illustrator 16.0.4, SVG Export Plug-In . SVG Version: 6.00 Build 0)  -->
<!DOCTYPE svg PUBLIC "-//W3C//DTD SVG 1.1//EN" "http://www.w3.org/Graphics/SVG/1.1/DTD/svg11.dtd">
<svg version="1.1" id="Layer_1" xmlns="http://www.w3.org/2000/svg" xmlns:xlink="http://www.w3.org/1999/xlink" x="0px" y="0px"
	 width="1019.069px" height="580.661px" viewBox="0 0 1019.069 580.661" enable-background="new 0 0 1019.069 580.661"
	 xml:space="preserve">
<path opacity="0.8" fill="#A42523" d="M669.604,277.67l-102.063-40.705c-18.902,48.839,3.218,104.587,51.439,126.798
	c50.146,23.096,109.525,1.168,132.623-48.98c23.097-50.147,1.168-109.525-48.98-132.625c-9.312-4.289-22.062-6.582-31.72-7.874
	L669.604,277.67z"/>
<path fill="#A42523" d="M664.279,147.209c-47.526-1.847-93.761,23.525-116.688,67.99l118.253,57.282L664.279,147.209z"/>
<g>
	<path fill="#E4F3FB" d="M595.399,217.84c-3.868,0-6.629-0.792-7.674-1.205c-0.253-0.096-0.381-0.221-0.381-0.412
		c0-0.063,0-0.127,0.031-0.159l0.445-1.522c0.062-0.126,0.189-0.221,0.348-0.221c0.096,0,0.16,0.03,0.255,0.03
		c2.22,0.762,4.757,1.08,6.819,1.08c2.822,0,5.643-1.175,5.643-4.282c0-4.249-3.393-4.187-7.801-4.631
		c-0.254,0-0.508-0.127-0.508-0.412v-1.49c0-0.285,0.223-0.38,0.508-0.38c4.6-0.35,7.389-0.921,7.389-4.25
		c0-3.107-2.347-3.965-5.55-3.965c-2.886,0-5.265,0.665-6.945,1.174c-0.096,0.03-0.157,0.03-0.221,0.03
		c-0.191,0-0.319-0.062-0.382-0.251l-0.381-1.429c-0.031-0.095-0.031-0.19-0.031-0.255c0-0.189,0.094-0.316,0.318-0.411
		c1.299-0.54,4.249-1.301,8.054-1.301c5.138,0,7.897,2.22,7.897,6.089c0,4.504-3.711,5.043-4.6,5.266v0.793
		c0.35,0.159,5.012,0.221,5.012,5.582C603.646,216.255,599.491,217.84,595.399,217.84z"/>
	<path fill="#E4F3FB" d="M625.838,211.054c0,0.284-0.222,0.507-0.507,0.507h-2.949v5.36c0,0.285-0.254,0.506-0.509,0.506h-1.711
		c-0.254,0-0.509-0.221-0.509-0.506v-5.36h-12.494c-0.286,0-0.507-0.189-0.507-0.475v-1.714c0-0.096,0-0.286,0.095-0.412
		l10.591-14.777c0.065-0.097,0.223-0.191,0.317-0.191h4.218c0.286,0,0.509,0.222,0.509,0.508v14.683h2.949
		c0.285,0,0.507,0.255,0.507,0.508V211.054z M619.653,196.241h-0.951l-9.418,12.972h10.369V196.241z"/>
	<path fill="#E4F3FB" d="M633.32,205.662c-4.601,0-5.138-2.981-5.138-6.026s0.537-6.058,5.138-6.058
		c4.567,0,5.106,3.013,5.106,6.058S637.888,205.662,633.32,205.662z M633.287,195.385c-2.632,0-2.948,1.589-2.948,4.22
		c0,2.662,0.35,4.25,2.948,4.25c2.634,0,2.982-1.588,2.982-4.25C636.27,196.974,635.921,195.385,633.287,195.385z M633.859,217.427
		c-0.033,0.064-0.129,0.096-0.223,0.096c-0.062,0-0.096,0-0.157-0.031l-1.048-0.729c-0.095-0.063-0.128-0.159-0.128-0.253
		c0-0.033,0.033-0.095,0.065-0.159l15.032-22.296c0.063-0.096,0.159-0.126,0.221-0.126c0.065,0,0.127,0.03,0.16,0.063l1.078,0.73
		c0.062,0.029,0.127,0.126,0.127,0.221c0,0.063-0.031,0.127-0.064,0.191L633.859,217.427z M647.974,217.84
		c-4.6,0-5.14-2.98-5.14-6.026c0-3.044,0.54-6.057,5.14-6.057c4.598,0,5.137,3.013,5.137,6.057
		C653.11,214.859,652.571,217.84,647.974,217.84z M647.974,207.563c-2.635,0-2.982,1.588-2.982,4.25c0,2.633,0.348,4.22,2.982,4.22
		c2.632,0,2.979-1.587,2.979-4.22C650.952,209.151,650.605,207.563,647.974,207.563z"/>
</g>
<g>
</g>
<g>
</g>
<g>
</g>
<g>
</g>
<g>
</g>
<g>
</g>
</svg>
