<?xml version="1.0" encoding="utf-8"?>
<!-- Generator: Adobe Illustrator 16.0.4, SVG Export Plug-In . SVG Version: 6.00 Build 0)  -->
<!DOCTYPE svg PUBLIC "-//W3C//DTD SVG 1.1//EN" "http://www.w3.org/Graphics/SVG/1.1/DTD/svg11.dtd">
<svg version="1.1" id="Layer_1" xmlns="http://www.w3.org/2000/svg" xmlns:xlink="http://www.w3.org/1999/xlink" x="0px" y="0px"
	 width="1019.069px" height="580.661px" viewBox="0 0 1019.069 580.661" enable-background="new 0 0 1019.069 580.661"
	 xml:space="preserve">
<polygon fill="#E4F3FB" points="974.778,580.661 628.338,570.671 619.694,437.321 995.512,419.278 "/>
<g>
	<rect x="667.286" y="462.693" fill="none" width="297.902" height="86.962"/>
	<path fill="#12110E" d="M678.344,474.868h-0.858c-0.146,0-0.259-0.113-0.259-0.259v-5.311h-7.107v5.311
		c0,0.146-0.113,0.259-0.259,0.259h-0.858c-0.146,0-0.259-0.113-0.259-0.259v-11.543c0-0.13,0.081-0.179,0.194-0.211l0.972-0.162
		h0.048c0.113,0,0.162,0.113,0.162,0.211v5.132h7.107v-4.97c0-0.13,0.081-0.179,0.194-0.211l0.972-0.162h0.048
		c0.113,0,0.162,0.113,0.162,0.211v11.705C678.603,474.755,678.489,474.868,678.344,474.868z"/>
	<path fill="#12110E" d="M691.117,474.868h-0.858c-0.146,0-0.259-0.113-0.259-0.259v-5.311h-7.107v5.311
		c0,0.146-0.113,0.259-0.259,0.259h-0.858c-0.146,0-0.259-0.113-0.259-0.259v-11.543c0-0.13,0.081-0.179,0.194-0.211l0.972-0.162
		h0.048c0.113,0,0.162,0.113,0.162,0.211v5.132H690v-4.97c0-0.13,0.081-0.179,0.194-0.211l0.972-0.162h0.048
		c0.113,0,0.162,0.113,0.162,0.211v11.705C691.376,474.755,691.263,474.868,691.117,474.868z"/>
	<path fill="#12110E" d="M703.534,474.674c0,0.098-0.081,0.194-0.178,0.194h-1.117c-0.098,0-0.194-0.064-0.227-0.113l-3.74-5.472
		l-3.82,5.472c-0.032,0.064-0.113,0.113-0.211,0.113h-1.197c-0.098,0-0.179-0.097-0.179-0.178c0-0.033,0.017-0.065,0.032-0.081
		l4.307-6.022l-3.82-5.407c-0.017-0.033-0.017-0.065-0.017-0.081c0-0.098,0.081-0.194,0.178-0.194h1.149
		c0.114,0,0.194,0.048,0.26,0.146l3.318,4.873l3.271-4.89c0.064-0.097,0.146-0.129,0.259-0.129h1.134
		c0.097,0,0.178,0.097,0.178,0.194c0,0.016,0,0.048-0.032,0.081l-3.724,5.407l4.161,6.006
		C703.534,474.625,703.534,474.642,703.534,474.674z"/>
	<path fill="#12110E" d="M716.793,471.241c-0.016,0.081-0.13,0.211-0.21,0.211h-5.942c0,0.891,0.162,1.393,0.502,1.813
		c0.47,0.599,1.263,0.777,2.396,0.777c1.004,0,1.619-0.194,2.38-0.405c0.032-0.017,0.064-0.032,0.097-0.032
		c0.065,0,0.13,0.049,0.162,0.146l0.179,0.615v0.064c0,0.081-0.065,0.13-0.162,0.179c-0.647,0.259-1.717,0.47-2.785,0.47
		c-3.173,0-4.112-1.474-4.112-4.452c0-2.736,0.551-4.469,3.757-4.469c1.699,0,2.688,0.518,3.222,1.44
		c0.421,0.729,0.518,1.732,0.518,2.85V471.241z M715.255,468.555c-0.291-1.036-0.923-1.377-2.234-1.377
		c-1.295,0-1.926,0.341-2.201,1.377c-0.162,0.599-0.179,1.229-0.194,1.829l4.824-0.017
		C715.434,469.752,715.4,469.153,715.255,468.555z"/>
	<path fill="#12110E" d="M722.848,467.291c-1.068,0-1.942,0.081-2.85,0.308v7.026c0,0.146-0.081,0.243-0.227,0.243h-0.81
		c0,0-0.243-0.097-0.243-0.243v-6.751c0-0.712,0.146-0.923,0.696-1.182c0.713-0.324,2.17-0.534,2.947-0.534h0.404
		c0.081,0,0.227,0.032,0.227,0.243v0.695C722.993,467.211,722.961,467.291,722.848,467.291z"/>
	<path fill="#12110E" d="M735.151,474.755c-0.518,0.13-1.198,0.324-2.477,0.324c-3.142,0-3.87-1.425-3.87-4.469
		c0-3.108,0.858-4.452,3.772-4.452c1.117,0,1.927,0.178,2.478,0.324l-0.162-0.939v-2.429c0-0.129,0.081-0.178,0.21-0.194
		l0.875-0.227h0.048c0.113,0,0.146,0.113,0.146,0.211v10.571C736.171,474.075,736.171,474.528,735.151,474.755z M734.893,467.47
		c0,0-1.021-0.292-2.186-0.292c-1.781,0-2.574,0.567-2.574,3.449c0,3.075,0.938,3.432,2.59,3.432c1.198,0,2.17-0.308,2.17-0.308
		V467.47z"/>
	<path fill="#12110E" d="M745.513,471.241c-0.016,0.081-0.13,0.211-0.21,0.211h-5.942c0,0.891,0.162,1.393,0.502,1.813
		c0.47,0.599,1.263,0.777,2.396,0.777c1.004,0,1.619-0.194,2.38-0.405c0.032-0.017,0.064-0.032,0.097-0.032
		c0.065,0,0.13,0.049,0.162,0.146l0.178,0.615v0.064c0,0.081-0.064,0.13-0.161,0.179c-0.647,0.259-1.717,0.47-2.785,0.47
		c-3.173,0-4.112-1.474-4.112-4.452c0-2.736,0.551-4.469,3.757-4.469c1.699,0,2.688,0.518,3.222,1.44
		c0.421,0.729,0.518,1.732,0.518,2.85V471.241z M743.975,468.555c-0.291-1.036-0.923-1.377-2.234-1.377
		c-1.295,0-1.926,0.341-2.201,1.377c-0.162,0.599-0.179,1.229-0.194,1.829l4.824-0.017
		C744.153,469.752,744.12,469.153,743.975,468.555z"/>
	<path fill="#12110E" d="M754.319,474.868h-0.793c-0.146,0-0.243-0.097-0.243-0.243v-5.99c0-1.068-0.404-1.44-1.538-1.44
		c-1.506,0-3.027,0.453-3.027,0.453v6.978c0,0.146-0.081,0.243-0.227,0.243h-0.81c-0.146,0-0.243-0.097-0.243-0.243v-6.719
		c0-0.647,0.033-0.938,0.843-1.214c0.842-0.291,2.46-0.534,3.496-0.534c1.927,0,2.785,0.599,2.785,2.331v6.136
		C754.562,474.771,754.465,474.868,754.319,474.868z"/>
	<path fill="#12110E" d="M765.247,475.079c-2.85,0-3.562-1.215-3.562-3.352v-5.148c0-0.13,0.08-0.178,0.21-0.211l0.874-0.21h0.049
		c0.113,0,0.146,0.113,0.146,0.21v5.488c0,1.522,0.534,2.202,2.283,2.202c2.104,0,2.267-1.036,2.267-2.25v-5.229
		c0-0.13,0.097-0.178,0.21-0.211l0.874-0.21h0.049c0.113,0,0.162,0.113,0.162,0.21v5.327
		C768.809,473.298,768.582,475.079,765.247,475.079z"/>
	<path fill="#12110E" d="M776.903,474.755c-0.518,0.13-1.198,0.324-2.477,0.324c-3.142,0-3.87-1.425-3.87-4.469
		c0-3.108,0.858-4.452,3.772-4.452c1.117,0,1.927,0.178,2.478,0.324l-0.162-0.939v-2.429c0-0.129,0.081-0.178,0.21-0.194
		l0.875-0.227h0.048c0.113,0,0.146,0.113,0.146,0.211v10.571C777.923,474.075,777.923,474.528,776.903,474.755z M776.645,467.47
		c0,0-1.021-0.292-2.186-0.292c-1.781,0-2.574,0.567-2.574,3.449c0,3.075,0.938,3.432,2.59,3.432c1.198,0,2.17-0.308,2.17-0.308
		V467.47z"/>
	<path fill="#12110E" d="M786.115,474.755c-0.518,0.13-1.198,0.324-2.477,0.324c-3.142,0-3.87-1.425-3.87-4.469
		c0-3.108,0.858-4.452,3.772-4.452c1.117,0,1.927,0.178,2.478,0.324l-0.162-0.939v-2.429c0-0.129,0.081-0.178,0.21-0.194
		l0.875-0.227h0.048c0.113,0,0.146,0.113,0.146,0.211v10.571C787.135,474.075,787.135,474.528,786.115,474.755z M785.856,467.47
		c0,0-1.021-0.292-2.186-0.292c-1.781,0-2.574,0.567-2.574,3.449c0,3.075,0.938,3.432,2.59,3.432c1.198,0,2.17-0.308,2.17-0.308
		V467.47z"/>
	<path fill="#12110E" d="M794.793,474.852c-0.47,0.098-1.247,0.228-2.104,0.228c-1.393,0-3.708-0.049-3.708-2.672
		c0-2.169,1.198-2.282,2.801-2.542l3.061-0.502v-0.761c0-0.518-0.017-0.938-0.583-1.149c-0.308-0.129-0.761-0.194-1.474-0.194
		c-1.246,0-2.331,0.308-2.995,0.47c-0.032,0-0.064,0.017-0.097,0.017c-0.064,0-0.13-0.033-0.162-0.13l-0.146-0.729v-0.032
		c0-0.13,0.113-0.179,0.162-0.194c0.518-0.194,1.91-0.502,3.383-0.502c1.15,0,1.895,0.162,2.364,0.421
		c0.825,0.438,0.842,1.198,0.842,1.959v4.646C796.137,474.317,795.91,474.577,794.793,474.852z M794.857,470.384l-2.979,0.502
		c-0.777,0.146-1.57,0.178-1.57,1.457c0,1.619,1.327,1.732,2.396,1.732c0.713,0,1.474-0.098,2.153-0.324V470.384z"/>
	<path fill="#12110E" d="M805.202,474.868h-0.793c-0.146,0-0.243-0.097-0.243-0.243v-5.99c0-1.068-0.404-1.44-1.538-1.44
		c-1.506,0-3.027,0.453-3.027,0.453v6.978c0,0.146-0.081,0.243-0.227,0.243h-0.81c-0.146,0-0.243-0.097-0.243-0.243v-6.719
		c0-0.647,0.033-0.938,0.843-1.214c0.842-0.291,2.46-0.534,3.496-0.534c1.927,0,2.785,0.599,2.785,2.331v6.136
		C805.445,474.771,805.348,474.868,805.202,474.868z"/>
	<path fill="#12110E" d="M814.511,474.868h-0.793c-0.146,0-0.243-0.097-0.243-0.243v-5.99c0-1.068-0.404-1.44-1.538-1.44
		c-1.506,0-3.027,0.453-3.027,0.453v6.978c0,0.146-0.081,0.243-0.227,0.243h-0.81c-0.146,0-0.243-0.097-0.243-0.243v-6.719
		c0-0.647,0.033-0.938,0.843-1.214c0.842-0.291,2.46-0.534,3.496-0.534c1.927,0,2.785,0.599,2.785,2.331v6.136
		C814.754,474.771,814.656,474.868,814.511,474.868z"/>
	<path fill="#12110E" d="M824.093,471.241c-0.016,0.081-0.13,0.211-0.21,0.211h-5.942c0,0.891,0.162,1.393,0.502,1.813
		c0.47,0.599,1.263,0.777,2.396,0.777c1.004,0,1.619-0.194,2.38-0.405c0.032-0.017,0.064-0.032,0.097-0.032
		c0.065,0,0.13,0.049,0.162,0.146l0.178,0.615v0.064c0,0.081-0.064,0.13-0.161,0.179c-0.647,0.259-1.717,0.47-2.785,0.47
		c-3.173,0-4.112-1.474-4.112-4.452c0-2.736,0.551-4.469,3.757-4.469c1.699,0,2.688,0.518,3.222,1.44
		c0.421,0.729,0.518,1.732,0.518,2.85V471.241z M822.555,468.555c-0.291-1.036-0.923-1.377-2.234-1.377
		c-1.295,0-1.926,0.341-2.201,1.377c-0.162,0.599-0.179,1.229-0.194,1.829l4.824-0.017
		C822.733,469.752,822.7,469.153,822.555,468.555z"/>
	<path fill="#12110E" d="M828.917,474.674c0,0.113-0.081,0.146-0.13,0.162c-0.129,0.064-0.566,0.194-1.149,0.194
		c-0.971,0-1.619-0.47-1.619-1.668v-10.248c0-0.129,0.081-0.178,0.194-0.194l0.875-0.227h0.048c0.113,0,0.162,0.113,0.162,0.211
		v10.426c0,0.583,0.405,0.664,0.729,0.664c0.227,0,0.486-0.032,0.566-0.065h0.081c0.049,0,0.098,0.017,0.113,0.114l0.113,0.566
		C828.9,474.642,828.917,474.657,828.917,474.674z"/>
	<path fill="#12110E" d="M832.948,475.079c-1.425,0-2.655-0.47-2.865-0.551c-0.065-0.032-0.13-0.064-0.13-0.162v-0.049l0.162-0.631
		c0.016-0.081,0.064-0.146,0.178-0.146h0.081c0.13,0.048,1.279,0.469,2.606,0.469c1.376,0,2.17-0.437,2.17-1.425
		c0-1.344-1.036-1.295-2.3-1.489c-0.793-0.129-2.816-0.275-2.816-2.412c0-2.088,1.861-2.525,3.286-2.525
		c1.393,0,2.461,0.291,2.64,0.34c0.113,0.017,0.161,0.098,0.161,0.178v0.033l-0.113,0.712c-0.016,0.098-0.081,0.13-0.146,0.13
		h-0.032c-0.227-0.017-1.425-0.308-2.38-0.308c-1.166,0-2.137,0.323-2.137,1.344c0,1.101,1.101,1.23,2.104,1.359
		c1.457,0.194,3.027,0.308,3.027,2.51C836.445,474.561,834.826,475.079,832.948,475.079z"/>
	<path fill="#12110E" d="M845.363,471.241c-0.016,0.081-0.13,0.211-0.21,0.211h-5.942c0,0.891,0.162,1.393,0.502,1.813
		c0.47,0.599,1.263,0.777,2.396,0.777c1.004,0,1.619-0.194,2.38-0.405c0.032-0.017,0.064-0.032,0.097-0.032
		c0.065,0,0.13,0.049,0.162,0.146l0.179,0.615v0.064c0,0.081-0.065,0.13-0.162,0.179c-0.647,0.259-1.717,0.47-2.785,0.47
		c-3.173,0-4.112-1.474-4.112-4.452c0-2.736,0.551-4.469,3.757-4.469c1.699,0,2.688,0.518,3.222,1.44
		c0.421,0.729,0.518,1.732,0.518,2.85V471.241z M843.825,468.555c-0.291-1.036-0.923-1.377-2.234-1.377
		c-1.295,0-1.926,0.341-2.201,1.377c-0.162,0.599-0.179,1.229-0.194,1.829l4.824-0.017
		C844.004,469.752,843.971,469.153,843.825,468.555z"/>
	<path fill="#12110E" d="M849.151,476.503c-0.032,0.162-0.049,0.211-0.243,0.211h-0.761c-0.097,0-0.21-0.017-0.21-0.162v-0.032
		l0.21-3.092c0.017-0.162,0.049-0.211,0.243-0.211h1.101c0.098,0,0.211,0.017,0.211,0.146v0.049L849.151,476.503z"/>
	<path fill="#12110E" d="M864.515,474.868h-0.793c-0.146,0-0.243-0.097-0.243-0.243v-5.99c0-1.068-0.404-1.44-1.538-1.44
		c-1.506,0-3.027,0.453-3.027,0.453v6.978c0,0.146-0.081,0.243-0.227,0.243h-0.81c-0.146,0-0.243-0.097-0.243-0.243v-11.511
		c0-0.129,0.081-0.178,0.194-0.194l0.875-0.227h0.048c0.113,0,0.162,0.113,0.162,0.211v2.801l-0.162,0.938
		c0.891-0.259,2.283-0.485,3.222-0.485c1.927,0,2.785,0.599,2.785,2.331v6.136C864.758,474.771,864.677,474.868,864.515,474.868z"/>
	<path fill="#12110E" d="M871.022,474.609c-0.049,0.162-0.178,0.259-0.324,0.259h-1.699c-0.162,0-0.292-0.097-0.34-0.259
		l-2.688-7.949c-0.017-0.032-0.017-0.064-0.017-0.081c0-0.113,0.064-0.211,0.162-0.211h0.971c0.162,0,0.211,0.098,0.243,0.211
		l2.299,7.35h0.421l2.072-7.35c0.032-0.113,0.113-0.211,0.275-0.211h1.004c0.113,0,0.194,0.081,0.194,0.194v0.049L871.022,474.609z"
		/>
	<path fill="#12110E" d="M878.421,475.079c-3.384,0-3.789-2.024-3.789-4.452c0-2.445,0.405-4.469,3.789-4.469
		c3.399,0,3.788,2.023,3.788,4.469C882.209,473.055,881.82,475.079,878.421,475.079z M878.421,467.194
		c-2.348,0-2.445,1.376-2.445,3.433c0,2.039,0.098,3.416,2.445,3.416s2.444-1.377,2.444-3.416
		C880.865,468.57,880.769,467.194,878.421,467.194z"/>
	<path fill="#12110E" d="M888.183,467.291c-1.068,0-1.942,0.081-2.85,0.308v7.026c0,0.146-0.081,0.243-0.227,0.243h-0.81
		c0,0-0.243-0.097-0.243-0.243v-6.751c0-0.712,0.146-0.923,0.696-1.182c0.713-0.324,2.17-0.534,2.947-0.534h0.404
		c0.081,0,0.227,0.032,0.227,0.243v0.695C888.328,467.211,888.296,467.291,888.183,467.291z"/>
	<path fill="#12110E" d="M899.952,474.852c-0.47,0.098-1.247,0.228-2.104,0.228c-1.393,0-3.708-0.049-3.708-2.672
		c0-2.169,1.198-2.282,2.801-2.542l3.061-0.502v-0.761c0-0.518-0.017-0.938-0.583-1.149c-0.308-0.129-0.761-0.194-1.474-0.194
		c-1.246,0-2.331,0.308-2.995,0.47c-0.032,0-0.064,0.017-0.097,0.017c-0.064,0-0.13-0.033-0.162-0.13l-0.146-0.729v-0.032
		c0-0.13,0.113-0.179,0.162-0.194c0.518-0.194,1.91-0.502,3.384-0.502c1.149,0,1.894,0.162,2.363,0.421
		c0.825,0.438,0.842,1.198,0.842,1.959v4.646C901.296,474.317,901.069,474.577,899.952,474.852z M900.017,470.384l-2.979,0.502
		c-0.777,0.146-1.57,0.178-1.57,1.457c0,1.619,1.327,1.732,2.396,1.732c0.713,0,1.474-0.098,2.153-0.324V470.384z"/>
	<path fill="#12110E" d="M910.361,474.868h-0.793c-0.146,0-0.243-0.097-0.243-0.243v-5.99c0-1.068-0.404-1.44-1.538-1.44
		c-1.506,0-3.027,0.453-3.027,0.453v6.978c0,0.146-0.081,0.243-0.227,0.243h-0.81c-0.146,0-0.243-0.097-0.243-0.243v-6.719
		c0-0.647,0.033-0.938,0.843-1.214c0.842-0.291,2.46-0.534,3.496-0.534c1.927,0,2.785,0.599,2.785,2.331v6.136
		C910.604,474.771,910.507,474.868,910.361,474.868z"/>
	<path fill="#12110E" d="M918.794,474.755c-0.518,0.13-1.198,0.324-2.477,0.324c-3.142,0-3.87-1.425-3.87-4.469
		c0-3.108,0.858-4.452,3.772-4.452c1.117,0,1.927,0.178,2.478,0.324l-0.162-0.939v-2.429c0-0.129,0.081-0.178,0.21-0.194
		l0.875-0.227h0.048c0.113,0,0.146,0.113,0.146,0.211v10.571C919.813,474.075,919.813,474.528,918.794,474.755z M918.535,467.47
		c0,0-1.021-0.292-2.186-0.292c-1.781,0-2.574,0.567-2.574,3.449c0,3.075,0.938,3.432,2.59,3.432c1.198,0,2.17-0.308,2.17-0.308
		V467.47z"/>
	<path fill="#12110E" d="M929.155,471.241c-0.016,0.081-0.13,0.211-0.21,0.211h-5.942c0,0.891,0.162,1.393,0.502,1.813
		c0.47,0.599,1.263,0.777,2.396,0.777c1.004,0,1.619-0.194,2.38-0.405c0.032-0.017,0.064-0.032,0.097-0.032
		c0.065,0,0.13,0.049,0.162,0.146l0.178,0.615v0.064c0,0.081-0.064,0.13-0.161,0.179c-0.647,0.259-1.717,0.47-2.785,0.47
		c-3.173,0-4.112-1.474-4.112-4.452c0-2.736,0.551-4.469,3.757-4.469c1.699,0,2.688,0.518,3.222,1.44
		c0.421,0.729,0.518,1.732,0.518,2.85V471.241z M927.617,468.555c-0.291-1.036-0.923-1.377-2.234-1.377
		c-1.295,0-1.926,0.341-2.201,1.377c-0.162,0.599-0.179,1.229-0.194,1.829l4.824-0.017
		C927.796,469.752,927.763,469.153,927.617,468.555z"/>
	<path fill="#12110E" d="M933.979,474.674c0,0.113-0.081,0.146-0.13,0.162c-0.129,0.064-0.566,0.194-1.149,0.194
		c-0.971,0-1.619-0.47-1.619-1.668v-10.248c0-0.129,0.081-0.178,0.194-0.194l0.875-0.227h0.048c0.113,0,0.162,0.113,0.162,0.211
		v10.426c0,0.583,0.405,0.664,0.729,0.664c0.227,0,0.486-0.032,0.566-0.065h0.081c0.049,0,0.098,0.017,0.113,0.114l0.113,0.566
		C933.963,474.642,933.979,474.657,933.979,474.674z"/>
	<path fill="#12110E" d="M942.495,471.241c-0.016,0.081-0.13,0.211-0.21,0.211h-5.942c0,0.891,0.162,1.393,0.502,1.813
		c0.47,0.599,1.263,0.777,2.396,0.777c1.004,0,1.619-0.194,2.38-0.405c0.032-0.017,0.064-0.032,0.097-0.032
		c0.065,0,0.13,0.049,0.162,0.146l0.178,0.615v0.064c0,0.081-0.064,0.13-0.161,0.179c-0.647,0.259-1.717,0.47-2.785,0.47
		c-3.173,0-4.112-1.474-4.112-4.452c0-2.736,0.551-4.469,3.757-4.469c1.699,0,2.688,0.518,3.222,1.44
		c0.421,0.729,0.518,1.732,0.518,2.85V471.241z M940.957,468.555c-0.291-1.036-0.923-1.377-2.234-1.377
		c-1.295,0-1.926,0.341-2.201,1.377c-0.162,0.599-0.179,1.229-0.194,1.829l4.824-0.017
		C941.136,469.752,941.103,469.153,940.957,468.555z"/>
	<path fill="#12110E" d="M951.302,474.868h-0.793c-0.146,0-0.243-0.097-0.243-0.243v-5.99c0-1.068-0.404-1.44-1.538-1.44
		c-1.506,0-3.027,0.453-3.027,0.453v6.978c0,0.146-0.081,0.243-0.227,0.243h-0.81c-0.146,0-0.243-0.097-0.243-0.243v-6.719
		c0-0.647,0.033-0.938,0.843-1.214c0.842-0.291,2.46-0.534,3.496-0.534c1.927,0,2.785,0.599,2.785,2.331v6.136
		C951.545,474.771,951.447,474.868,951.302,474.868z"/>
	<path fill="#12110E" d="M673.811,493.199c-0.47,0.098-1.247,0.228-2.104,0.228c-1.393,0-3.708-0.049-3.708-2.672
		c0-2.169,1.198-2.282,2.801-2.542l3.061-0.502v-0.761c0-0.518-0.017-0.938-0.583-1.149c-0.308-0.129-0.761-0.194-1.474-0.194
		c-1.246,0-2.331,0.308-2.995,0.47c-0.032,0-0.064,0.017-0.097,0.017c-0.064,0-0.13-0.033-0.162-0.13l-0.146-0.729v-0.032
		c0-0.13,0.113-0.179,0.162-0.194c0.518-0.194,1.91-0.502,3.383-0.502c1.15,0,1.895,0.162,2.364,0.421
		c0.825,0.438,0.842,1.198,0.842,1.959v4.646C675.154,492.665,674.928,492.925,673.811,493.199z M673.875,488.731l-2.979,0.502
		c-0.777,0.146-1.57,0.178-1.57,1.457c0,1.619,1.327,1.732,2.396,1.732c0.713,0,1.474-0.098,2.153-0.324V488.731z"/>
	<path fill="#12110E" d="M682.308,482.077c-0.017,0.13-0.097,0.179-0.227,0.179c-0.324-0.065-0.923-0.179-1.555-0.179
		c-0.437,0-0.776,0.049-1.003,0.227c-0.211,0.162-0.324,0.421-0.324,0.858v1.554h2.396c0.146,0,0.242,0.098,0.242,0.243v0.551
		c0,0.146-0.097,0.242-0.242,0.242h-2.396v7.221c0,0.146-0.081,0.243-0.227,0.243h-0.81c-0.146,0-0.243-0.097-0.243-0.243v-7.221
		h-1.263c-0.146,0-0.242-0.097-0.242-0.242v-0.551c0-0.146,0.097-0.243,0.242-0.243h1.263v-1.424c0-1.555,0.762-2.251,2.348-2.251
		c0.858,0,1.538,0.162,1.91,0.243c0.113,0.032,0.211,0.097,0.211,0.21v0.017L682.308,482.077z"/>
	<path fill="#12110E" d="M696.278,485.38c0,0.032-0.032,0.049-0.081,0.098c-0.355,0.242-0.761,0.34-1.149,0.34
		c-0.259,0-0.275-0.017-0.647-0.081c0,0,0.696,0.583,0.696,1.732c0,2.299-1.425,2.963-3.562,2.963h-1.198
		c-0.842,0-1.036,0.421-1.036,0.842c0,0.68,0.47,0.857,1.182,0.857h2.445c1.554,0,2.654,0.47,2.654,1.91
		c0,2.008-1.618,2.672-3.934,2.672c-2.688,0-3.918-0.534-3.918-2.17c0-1.263,0.858-1.505,1.651-1.667v-0.178
		c-0.729-0.162-1.36-0.243-1.36-1.393c0-0.987,0.534-1.23,1.781-1.425c-0.761-0.243-1.829-0.453-1.829-2.412
		c0-2.218,1.457-2.963,3.545-2.963c1.004,0,1.409,0.162,2.024,0.34c0.178,0.032,0.372,0.064,0.599,0.064
		c0.243,0,0.518-0.048,0.745-0.113c0.291-0.081,0.615-0.227,0.842-0.34c0.048-0.016,0.097-0.048,0.129-0.048
		s0.065,0.032,0.081,0.097l0.308,0.81C696.263,485.348,696.278,485.364,696.278,485.38z M692.781,493.216h-2.186
		c-0.825,0-1.586,0.259-1.586,1.23c0,1.117,1.165,1.263,2.655,1.263c1.003,0,2.639-0.146,2.639-1.474
		C694.304,493.297,693.494,493.216,692.781,493.216z M691.535,485.478c-1.408,0-2.283,0.485-2.283,1.991
		c0,1.489,0.875,1.959,2.283,1.959c1.393,0,2.282-0.47,2.282-1.959C693.817,485.963,692.928,485.478,691.535,485.478z"/>
	<path fill="#12110E" d="M701.249,494.463c-0.47,1.505-0.955,2.152-2.688,2.152c-0.519,0-0.826-0.016-1.134-0.064
		c-0.146-0.032-0.178-0.113-0.178-0.178v-0.713c0-0.081,0.081-0.161,0.178-0.161h0.017c0.162,0,0.615,0.016,0.939,0.016
		c0.825,0,1.295-0.162,1.554-1.068l0.372-1.23h-0.663c-0.146,0-0.275-0.097-0.324-0.259l-2.703-7.981
		c0-0.032-0.017-0.049-0.017-0.065c0-0.097,0.097-0.194,0.194-0.194h0.955c0.162,0,0.211,0.098,0.243,0.211l2.299,7.35h0.421
		l2.072-7.35c0.016-0.113,0.113-0.211,0.259-0.211h1.02c0.098,0,0.194,0.081,0.194,0.194c0,0.017,0,0.033-0.016,0.049
		L701.249,494.463z"/>
	<path fill="#12110E" d="M718.297,493.216h-0.793c-0.162,0-0.26-0.097-0.26-0.243v-5.99c0-1.068-0.389-1.44-1.521-1.44
		c-1.506,0-3.044,0.453-3.044,0.453v6.978c0,0.162-0.064,0.243-0.227,0.243h-0.793c-0.146,0-0.243-0.097-0.243-0.243v-5.99
		c0-1.068-0.404-1.44-1.538-1.44c-1.506,0-3.027,0.453-3.027,0.453v6.978c0,0.146-0.081,0.243-0.227,0.243h-0.81
		c-0.146,0-0.243-0.097-0.243-0.243v-6.719c0-0.647,0.033-0.938,0.843-1.214c0.842-0.291,2.46-0.534,3.496-0.534
		c1.021,0,1.749,0.194,2.202,0.615c0.906-0.356,2.655-0.615,3.643-0.615c1.927,0,2.785,0.599,2.785,2.331v6.136
		C718.54,493.119,718.442,493.216,718.297,493.216z"/>
	<path fill="#12110E" d="M727.59,493.216h-0.793c-0.146,0-0.243-0.097-0.243-0.243v-5.99c0-1.068-0.404-1.44-1.538-1.44
		c-1.506,0-3.027,0.453-3.027,0.453v6.978c0,0.146-0.081,0.243-0.227,0.243h-0.81c-0.146,0-0.243-0.097-0.243-0.243v-6.719
		c0-0.647,0.033-0.938,0.843-1.214c0.842-0.291,2.46-0.534,3.496-0.534c1.927,0,2.785,0.599,2.785,2.331v6.136
		C727.833,493.119,727.735,493.216,727.59,493.216z"/>
	<path fill="#12110E" d="M735.409,493.199c-0.47,0.098-1.247,0.228-2.104,0.228c-1.393,0-3.708-0.049-3.708-2.672
		c0-2.169,1.198-2.282,2.801-2.542l3.061-0.502v-0.761c0-0.518-0.017-0.938-0.583-1.149c-0.308-0.129-0.761-0.194-1.474-0.194
		c-1.246,0-2.331,0.308-2.995,0.47c-0.032,0-0.064,0.017-0.097,0.017c-0.064,0-0.13-0.033-0.162-0.13l-0.146-0.729v-0.032
		c0-0.13,0.113-0.179,0.162-0.194c0.518-0.194,1.91-0.502,3.384-0.502c1.149,0,1.894,0.162,2.363,0.421
		c0.825,0.438,0.842,1.198,0.842,1.959v4.646C736.753,492.665,736.526,492.925,735.409,493.199z M735.474,488.731l-2.979,0.502
		c-0.777,0.146-1.57,0.178-1.57,1.457c0,1.619,1.327,1.732,2.396,1.732c0.713,0,1.474-0.098,2.153-0.324V488.731z"/>
	<path fill="#12110E" d="M741.528,493.427c-1.425,0-2.655-0.47-2.865-0.551c-0.065-0.032-0.13-0.064-0.13-0.162v-0.049l0.162-0.631
		c0.016-0.081,0.064-0.146,0.178-0.146h0.081c0.13,0.048,1.279,0.469,2.606,0.469c1.376,0,2.17-0.437,2.17-1.425
		c0-1.344-1.036-1.295-2.3-1.489c-0.793-0.129-2.816-0.275-2.816-2.412c0-2.088,1.861-2.525,3.286-2.525
		c1.393,0,2.461,0.291,2.64,0.34c0.113,0.017,0.161,0.098,0.161,0.178v0.033l-0.113,0.712c-0.016,0.098-0.081,0.13-0.146,0.13
		h-0.032c-0.227-0.017-1.425-0.308-2.38-0.308c-1.166,0-2.137,0.323-2.137,1.344c0,1.101,1.101,1.23,2.104,1.359
		c1.457,0.194,3.027,0.308,3.027,2.51C745.025,492.908,743.406,493.427,741.528,493.427z"/>
	<path fill="#12110E" d="M748.068,483.259h-0.793c-0.146,0-0.243-0.097-0.243-0.227v-1.748c0-0.146,0.098-0.243,0.243-0.243h0.793
		c0.146,0,0.243,0.098,0.243,0.243v1.748C748.312,483.162,748.214,483.259,748.068,483.259z M748.068,493.216h-0.793
		c-0.146,0-0.243-0.097-0.243-0.243v-8.014c0-0.146,0.098-0.243,0.243-0.243h0.793c0.146,0,0.243,0.098,0.243,0.243v8.014
		C748.312,493.119,748.214,493.216,748.068,493.216z"/>
	<path fill="#12110E" d="M757.896,489.589c-0.016,0.081-0.13,0.211-0.21,0.211h-5.942c0,0.891,0.162,1.393,0.502,1.813
		c0.47,0.599,1.263,0.777,2.396,0.777c1.004,0,1.619-0.194,2.38-0.405c0.032-0.017,0.064-0.032,0.097-0.032
		c0.065,0,0.13,0.049,0.162,0.146l0.178,0.615v0.064c0,0.081-0.064,0.13-0.161,0.179c-0.647,0.259-1.717,0.47-2.785,0.47
		c-3.173,0-4.112-1.474-4.112-4.452c0-2.736,0.551-4.469,3.757-4.469c1.699,0,2.688,0.518,3.222,1.44
		c0.421,0.729,0.518,1.732,0.518,2.85V489.589z M756.357,486.902c-0.291-1.036-0.923-1.377-2.234-1.377
		c-1.295,0-1.926,0.341-2.201,1.377c-0.162,0.599-0.179,1.229-0.194,1.829l4.824-0.017
		C756.536,488.1,756.503,487.501,756.357,486.902z"/>
	<path fill="#12110E" d="M764.711,482.077c-0.017,0.13-0.097,0.179-0.227,0.179c-0.324-0.065-0.923-0.179-1.555-0.179
		c-0.437,0-0.776,0.049-1.003,0.227c-0.211,0.162-0.324,0.421-0.324,0.858v1.554h2.396c0.146,0,0.242,0.098,0.242,0.243v0.551
		c0,0.146-0.097,0.242-0.242,0.242h-2.396v7.221c0,0.146-0.081,0.243-0.227,0.243h-0.81c-0.146,0-0.243-0.097-0.243-0.243v-7.221
		h-1.263c-0.146,0-0.242-0.097-0.242-0.242v-0.551c0-0.146,0.097-0.243,0.242-0.243h1.263v-1.424c0-1.555,0.762-2.251,2.348-2.251
		c0.858,0,1.538,0.162,1.91,0.243c0.113,0.032,0.211,0.097,0.211,0.21v0.017L764.711,482.077z"/>
	<path fill="#12110E" d="M769.403,485.639c-1.068,0-1.942,0.081-2.85,0.308v7.026c0,0.146-0.081,0.243-0.227,0.243h-0.81
		c0,0-0.243-0.097-0.243-0.243v-6.751c0-0.712,0.146-0.923,0.696-1.182c0.713-0.324,2.17-0.534,2.947-0.534h0.404
		c0.081,0,0.227,0.032,0.227,0.243v0.695C769.549,485.559,769.517,485.639,769.403,485.639z"/>
	<path fill="#12110E" d="M777.755,489.589c-0.016,0.081-0.13,0.211-0.21,0.211h-5.942c0,0.891,0.162,1.393,0.502,1.813
		c0.47,0.599,1.263,0.777,2.396,0.777c1.004,0,1.619-0.194,2.38-0.405c0.032-0.017,0.064-0.032,0.097-0.032
		c0.065,0,0.13,0.049,0.162,0.146l0.178,0.615v0.064c0,0.081-0.064,0.13-0.161,0.179c-0.647,0.259-1.717,0.47-2.785,0.47
		c-3.173,0-4.112-1.474-4.112-4.452c0-2.736,0.551-4.469,3.757-4.469c1.699,0,2.688,0.518,3.222,1.44
		c0.421,0.729,0.518,1.732,0.518,2.85V489.589z M776.217,486.902c-0.291-1.036-0.923-1.377-2.234-1.377
		c-1.295,0-1.926,0.341-2.201,1.377c-0.162,0.599-0.179,1.229-0.194,1.829l4.824-0.017
		C776.396,488.1,776.362,487.501,776.217,486.902z"/>
	<path fill="#12110E" d="M792.406,493.216h-0.793c-0.162,0-0.26-0.097-0.26-0.243v-5.99c0-1.068-0.389-1.44-1.521-1.44
		c-1.506,0-3.044,0.453-3.044,0.453v6.978c0,0.162-0.064,0.243-0.227,0.243h-0.793c-0.146,0-0.243-0.097-0.243-0.243v-5.99
		c0-1.068-0.404-1.44-1.538-1.44c-1.506,0-3.027,0.453-3.027,0.453v6.978c0,0.146-0.081,0.243-0.227,0.243h-0.81
		c-0.146,0-0.243-0.097-0.243-0.243v-6.719c0-0.647,0.033-0.938,0.843-1.214c0.842-0.291,2.46-0.534,3.496-0.534
		c1.021,0,1.749,0.194,2.202,0.615c0.906-0.356,2.655-0.615,3.643-0.615c1.927,0,2.785,0.599,2.785,2.331v6.136
		C792.649,493.119,792.552,493.216,792.406,493.216z"/>
	<path fill="#12110E" d="M807.544,493.216h-0.793c-0.162,0-0.26-0.097-0.26-0.243v-5.99c0-1.068-0.389-1.44-1.521-1.44
		c-1.506,0-3.044,0.453-3.044,0.453v6.978c0,0.162-0.064,0.243-0.227,0.243h-0.793c-0.146,0-0.243-0.097-0.243-0.243v-5.99
		c0-1.068-0.404-1.44-1.538-1.44c-1.506,0-3.027,0.453-3.027,0.453v6.978c0,0.146-0.081,0.243-0.227,0.243h-0.81
		c-0.146,0-0.243-0.097-0.243-0.243v-6.719c0-0.647,0.033-0.938,0.843-1.214c0.842-0.291,2.46-0.534,3.496-0.534
		c1.021,0,1.749,0.194,2.202,0.615c0.906-0.356,2.655-0.615,3.643-0.615c1.927,0,2.785,0.599,2.785,2.331v6.136
		C807.787,493.119,807.689,493.216,807.544,493.216z"/>
	<path fill="#12110E" d="M817.11,489.589c-0.016,0.081-0.13,0.211-0.21,0.211h-5.942c0,0.891,0.162,1.393,0.502,1.813
		c0.47,0.599,1.263,0.777,2.396,0.777c1.004,0,1.619-0.194,2.38-0.405c0.032-0.017,0.064-0.032,0.097-0.032
		c0.065,0,0.13,0.049,0.162,0.146l0.178,0.615v0.064c0,0.081-0.064,0.13-0.161,0.179c-0.647,0.259-1.717,0.47-2.785,0.47
		c-3.173,0-4.112-1.474-4.112-4.452c0-2.736,0.551-4.469,3.757-4.469c1.699,0,2.688,0.518,3.222,1.44
		c0.421,0.729,0.518,1.732,0.518,2.85V489.589z M815.572,486.902c-0.291-1.036-0.923-1.377-2.234-1.377
		c-1.295,0-1.926,0.341-2.201,1.377c-0.162,0.599-0.179,1.229-0.194,1.829l4.824-0.017
		C815.751,488.1,815.718,487.501,815.572,486.902z"/>
	<path fill="#12110E" d="M824.962,493.103c-0.518,0.13-1.198,0.324-2.477,0.324c-3.142,0-3.87-1.425-3.87-4.469
		c0-3.108,0.858-4.452,3.772-4.452c1.117,0,1.927,0.178,2.478,0.324l-0.162-0.939v-2.429c0-0.129,0.081-0.178,0.21-0.194
		l0.875-0.227h0.048c0.113,0,0.146,0.113,0.146,0.211v10.571C825.981,492.423,825.981,492.876,824.962,493.103z M824.703,485.817
		c0,0-1.021-0.292-2.186-0.292c-1.781,0-2.574,0.567-2.574,3.449c0,3.075,0.938,3.432,2.59,3.432c1.198,0,2.17-0.308,2.17-0.308
		V485.817z"/>
	<path fill="#12110E" d="M835.323,489.589c-0.016,0.081-0.13,0.211-0.21,0.211h-5.942c0,0.891,0.162,1.393,0.502,1.813
		c0.47,0.599,1.263,0.777,2.396,0.777c1.004,0,1.619-0.194,2.38-0.405c0.032-0.017,0.064-0.032,0.097-0.032
		c0.065,0,0.13,0.049,0.162,0.146l0.178,0.615v0.064c0,0.081-0.064,0.13-0.161,0.179c-0.647,0.259-1.717,0.47-2.785,0.47
		c-3.173,0-4.112-1.474-4.112-4.452c0-2.736,0.551-4.469,3.757-4.469c1.699,0,2.688,0.518,3.222,1.44
		c0.421,0.729,0.518,1.732,0.518,2.85V489.589z M833.785,486.902c-0.291-1.036-0.923-1.377-2.234-1.377
		c-1.295,0-1.926,0.341-2.201,1.377c-0.162,0.599-0.179,1.229-0.194,1.829l4.824-0.017
		C833.964,488.1,833.931,487.501,833.785,486.902z"/>
	<path fill="#12110E" d="M849.343,489.589c-0.016,0.081-0.13,0.211-0.21,0.211h-5.942c0,0.891,0.162,1.393,0.502,1.813
		c0.47,0.599,1.263,0.777,2.396,0.777c1.004,0,1.619-0.194,2.38-0.405c0.032-0.017,0.064-0.032,0.097-0.032
		c0.065,0,0.13,0.049,0.162,0.146l0.178,0.615v0.064c0,0.081-0.064,0.13-0.161,0.179c-0.647,0.259-1.717,0.47-2.785,0.47
		c-3.173,0-4.112-1.474-4.112-4.452c0-2.736,0.551-4.469,3.757-4.469c1.699,0,2.688,0.518,3.222,1.44
		c0.421,0.729,0.518,1.732,0.518,2.85V489.589z M847.805,486.902c-0.291-1.036-0.923-1.377-2.234-1.377
		c-1.295,0-1.926,0.341-2.201,1.377c-0.162,0.599-0.179,1.229-0.194,1.829l4.824-0.017
		C847.983,488.1,847.95,487.501,847.805,486.902z"/>
	<path fill="#12110E" d="M855.397,485.639c-1.068,0-1.942,0.081-2.85,0.308v7.026c0,0.146-0.081,0.243-0.227,0.243h-0.81
		c0,0-0.243-0.097-0.243-0.243v-6.751c0-0.712,0.146-0.923,0.696-1.182c0.713-0.324,2.17-0.534,2.947-0.534h0.404
		c0.081,0,0.227,0.032,0.227,0.243v0.695C855.543,485.559,855.511,485.639,855.397,485.639z"/>
	<path fill="#12110E" d="M864.366,493.427c-1.425,0-2.655-0.47-2.865-0.551c-0.065-0.032-0.13-0.064-0.13-0.162v-0.049l0.162-0.631
		c0.016-0.081,0.064-0.146,0.178-0.146h0.081c0.13,0.048,1.279,0.469,2.606,0.469c1.376,0,2.17-0.437,2.17-1.425
		c0-1.344-1.036-1.295-2.3-1.489c-0.793-0.129-2.816-0.275-2.816-2.412c0-2.088,1.861-2.525,3.286-2.525
		c1.393,0,2.461,0.291,2.64,0.34c0.113,0.017,0.161,0.098,0.161,0.178v0.033l-0.113,0.712c-0.016,0.098-0.081,0.13-0.146,0.13
		h-0.032c-0.227-0.017-1.425-0.308-2.38-0.308c-1.166,0-2.137,0.323-2.137,1.344c0,1.101,1.101,1.23,2.104,1.359
		c1.457,0.194,3.027,0.308,3.027,2.51C867.863,492.908,866.244,493.427,864.366,493.427z"/>
	<path fill="#12110E" d="M874.254,492.957c0,0.064-0.064,0.146-0.13,0.162c-0.355,0.113-1.052,0.308-1.975,0.308
		c-1.603,0-2.364-0.696-2.364-2.251v-8.904c0-0.129,0.081-0.178,0.194-0.194l0.875-0.227h0.048c0.113,0,0.162,0.113,0.162,0.211
		v2.654h2.72c0.146,0,0.243,0.098,0.243,0.243v0.551c0,0.146-0.098,0.242-0.243,0.242h-2.72v5.554c0,0.891,0.485,1.085,1.328,1.085
		c0.501,0,1.149-0.13,1.489-0.211h0.048c0.081,0,0.146,0.049,0.179,0.146l0.146,0.6V492.957z"/>
	<path fill="#12110E" d="M882.511,485.866c0.502,0.809,0.599,1.894,0.599,3.108c0,2.428-0.389,4.452-3.788,4.452
		c-1.23,0-2.057-0.26-2.623-0.713l-0.857,0.987c-0.017,0.032-0.065,0.049-0.098,0.049s-0.064,0-0.097-0.032l-0.438-0.389
		c-0.032-0.032-0.064-0.064-0.064-0.097c0-0.033,0.016-0.065,0.048-0.098l0.923-1.085c-0.485-0.81-0.582-1.894-0.582-3.075
		c0-2.445,0.388-4.469,3.788-4.469c1.214,0,2.056,0.259,2.623,0.712l0.842-1.003c0.032-0.033,0.064-0.049,0.113-0.049
		c0.032,0,0.064,0.016,0.081,0.032l0.437,0.389c0.049,0.032,0.064,0.064,0.064,0.097s-0.016,0.065-0.048,0.098L882.511,485.866z
		 M879.321,485.542c-2.348,0-2.444,1.376-2.444,3.433c0,0.776,0.016,1.457,0.161,1.991l4.129-4.841
		C880.811,485.752,880.228,485.542,879.321,485.542z M881.604,486.935l-4.145,4.873c0.356,0.372,0.939,0.583,1.862,0.583
		c2.348,0,2.444-1.377,2.444-3.416C881.766,488.181,881.75,487.484,881.604,486.935z"/>
	<path fill="#12110E" d="M889.407,485.639c-1.068,0-1.942,0.081-2.85,0.308v7.026c0,0.146-0.081,0.243-0.227,0.243h-0.81
		c0,0-0.243-0.097-0.243-0.243v-6.751c0-0.712,0.146-0.923,0.696-1.182c0.713-0.324,2.17-0.534,2.947-0.534h0.404
		c0.081,0,0.227,0.032,0.227,0.243v0.695C889.553,485.559,889.521,485.639,889.407,485.639z"/>
	<path fill="#12110E" d="M893.516,493.427c-1.425,0-2.655-0.47-2.865-0.551c-0.065-0.032-0.13-0.064-0.13-0.162v-0.049l0.162-0.631
		c0.016-0.081,0.064-0.146,0.178-0.146h0.081c0.13,0.048,1.279,0.469,2.606,0.469c1.376,0,2.17-0.437,2.17-1.425
		c0-1.344-1.036-1.295-2.299-1.489c-0.794-0.129-2.817-0.275-2.817-2.412c0-2.088,1.861-2.525,3.286-2.525
		c1.393,0,2.461,0.291,2.639,0.34c0.114,0.017,0.162,0.098,0.162,0.178v0.033l-0.113,0.712c-0.016,0.098-0.081,0.13-0.146,0.13
		h-0.032c-0.227-0.017-1.425-0.308-2.38-0.308c-1.166,0-2.137,0.323-2.137,1.344c0,1.101,1.101,1.23,2.104,1.359
		c1.457,0.194,3.027,0.308,3.027,2.51C897.013,492.908,895.394,493.427,893.516,493.427z"/>
	<path fill="#12110E" d="M903.403,492.957c0,0.064-0.064,0.146-0.13,0.162c-0.355,0.113-1.052,0.308-1.975,0.308
		c-1.603,0-2.364-0.696-2.364-2.251v-8.904c0-0.129,0.081-0.178,0.194-0.194l0.875-0.227h0.048c0.113,0,0.162,0.113,0.162,0.211
		v2.654h2.72c0.146,0,0.243,0.098,0.243,0.243v0.551c0,0.146-0.098,0.242-0.243,0.242h-2.72v5.554c0,0.891,0.485,1.085,1.328,1.085
		c0.501,0,1.149-0.13,1.489-0.211h0.048c0.081,0,0.146,0.049,0.179,0.146l0.146,0.6V492.957z"/>
	<path fill="#12110E" d="M906.997,493.216h-1.408c-0.146,0-0.243-0.097-0.243-0.243v-1.036c0-0.146,0.098-0.242,0.243-0.242h1.408
		c0.146,0,0.243,0.097,0.243,0.242v1.036C907.24,493.119,907.143,493.216,906.997,493.216z"/>
	<path fill="#12110E" d="M669.86,511.564h-0.858c-0.146,0-0.259-0.113-0.259-0.259v-11.543c0-0.13,0.081-0.179,0.194-0.211
		l0.972-0.162h0.048c0.113,0,0.162,0.113,0.162,0.211v11.705C670.119,511.451,670.006,511.564,669.86,511.564z"/>
	<path fill="#12110E" d="M686.276,511.306c0,0.146-0.113,0.259-0.26,0.259h-7.9c-0.146,0-0.259-0.113-0.259-0.259v-0.939
		c0-0.761,0.211-1.085,0.793-1.506c0.567-0.421,2.057-1.537,2.057-1.537c1.279-0.972,3.643-2.348,3.643-4.193
		c0-2.008-1.247-2.493-2.963-2.493c-1.748,0-2.882,0.389-3.432,0.534h-0.065c-0.097,0-0.194-0.049-0.227-0.194l-0.178-0.729v-0.049
		c0-0.113,0.113-0.178,0.194-0.21c0.242-0.098,1.684-0.6,3.837-0.6c2.428,0,4.273,0.907,4.273,3.805c0,2.104-1.91,3.433-3.675,4.695
		l-2.882,2.088v0.324h6.783c0.146,0,0.26,0.113,0.26,0.259V511.306z"/>
	<path fill="#12110E" d="M693.444,511.775c-4.501,0-5.019-3.061-5.019-6.185c0-3.125,0.518-6.201,5.019-6.201
		c4.484,0,5.019,3.076,5.019,6.201C698.463,508.715,697.929,511.775,693.444,511.775z M693.428,500.588
		c-3.108,0-3.529,1.878-3.529,4.986c0,3.125,0.421,5.003,3.529,5.003c3.125,0,3.562-1.878,3.562-5.003
		C696.99,502.45,696.553,500.588,693.428,500.588z"/>
	<path fill="#12110E" d="M705.487,511.775c-4.501,0-5.019-3.061-5.019-6.185c0-3.125,0.518-6.201,5.019-6.201
		c4.484,0,5.019,3.076,5.019,6.201C710.506,508.715,709.972,511.775,705.487,511.775z M705.471,500.588
		c-3.108,0-3.529,1.878-3.529,4.986c0,3.125,0.421,5.003,3.529,5.003c3.125,0,3.562-1.878,3.562-5.003
		C709.033,502.45,708.596,500.588,705.471,500.588z"/>
	<path fill="#12110E" d="M717.399,511.775c-3.238,0-4.809-1.134-4.809-3.481c0-1.91,1.57-2.59,2.688-2.655v-0.453
		c-0.292-0.064-2.478-0.129-2.478-2.558c0-2.542,2.315-3.238,4.599-3.238c2.299,0,4.613,0.696,4.613,3.238
		c0,2.429-2.186,2.509-2.477,2.574v0.453c1.117,0.064,2.688,0.729,2.688,2.639C722.224,510.642,720.653,511.775,717.399,511.775z
		 M717.383,506.027c-1.651,0-3.384,0.47-3.384,2.283c0,1.667,1.198,2.267,3.433,2.267c2.233,0,3.383-0.6,3.383-2.267
		C720.814,506.497,719.05,506.027,717.383,506.027z M717.432,500.588c-2.104,0-3.222,0.534-3.222,2.089
		c0,1.699,1.618,2.137,3.173,2.137c1.57,0,3.222-0.438,3.222-2.137C720.604,501.122,719.52,500.588,717.432,500.588z"/>
	<path fill="#12110E" d="M736.21,511.419c0,0.081-0.08,0.146-0.161,0.146h-1.344c-0.065,0-0.098-0.032-0.13-0.081l-3.367-3.675
		h-0.664v3.513c0,0.146-0.081,0.243-0.227,0.243h-0.81c-0.146,0-0.243-0.097-0.243-0.243v-11.511c0-0.129,0.081-0.178,0.194-0.194
		l0.875-0.227h0.048c0.113,0,0.162,0.113,0.162,0.211v7.236h0.664l3.271-3.691c0.032-0.048,0.064-0.081,0.129-0.081l1.166,0.033
		c0.081,0,0.162,0.064,0.162,0.146c0,0.032-0.017,0.064-0.032,0.081l-3.562,3.901l3.837,4.112
		C736.194,511.354,736.21,511.387,736.21,511.419z"/>
	<path fill="#12110E" d="M740.775,511.775c-3.384,0-3.789-2.024-3.789-4.452c0-2.445,0.405-4.469,3.789-4.469
		c3.399,0,3.788,2.023,3.788,4.469C744.563,509.751,744.175,511.775,740.775,511.775z M740.775,503.891
		c-2.348,0-2.445,1.376-2.445,3.433c0,2.039,0.098,3.416,2.445,3.416s2.444-1.377,2.444-3.416
		C743.22,505.267,743.123,503.891,740.775,503.891z"/>
	<path fill="#12110E" d="M759.134,511.564h-0.793c-0.162,0-0.26-0.097-0.26-0.243v-5.99c0-1.068-0.389-1.44-1.521-1.44
		c-1.506,0-3.044,0.453-3.044,0.453v6.978c0,0.162-0.064,0.243-0.227,0.243h-0.793c-0.146,0-0.243-0.097-0.243-0.243v-5.99
		c0-1.068-0.404-1.44-1.538-1.44c-1.506,0-3.027,0.453-3.027,0.453v6.978c0,0.146-0.081,0.243-0.227,0.243h-0.81
		c-0.146,0-0.243-0.097-0.243-0.243v-6.719c0-0.647,0.033-0.938,0.843-1.214c0.842-0.291,2.46-0.534,3.496-0.534
		c1.021,0,1.749,0.194,2.202,0.615c0.906-0.356,2.655-0.615,3.643-0.615c1.927,0,2.785,0.599,2.785,2.331v6.136
		C759.377,511.468,759.279,511.564,759.134,511.564z"/>
	<path fill="#12110E" d="M770.937,511.775c-3.772,0-4.599-2.008-4.614-6.152v-0.13c-0.017-3.724,0.81-6.104,5.181-6.104
		c1.813,0,3.043,0.373,3.043,0.373c0.081,0,0.146,0.08,0.146,0.146v0.032l-0.179,0.906c-0.016,0.081-0.081,0.13-0.146,0.13h-0.032
		c-1.117-0.243-1.878-0.34-3.06-0.34c-2.51,0-3.497,1.165-3.562,3.853c0,0,1.797-0.631,3.351-0.631c2.606,0,4.388,1.149,4.388,3.982
		C775.453,510.561,773.64,511.775,770.937,511.775z M771.001,505.089c-0.972,0-2.331,0.227-3.254,0.566v0.583
		c-0.032,3.222,0.874,4.339,3.205,4.339c2.072,0,3.076-0.842,3.076-2.753C774.028,505.882,772.847,505.089,771.001,505.089z"/>
	<path fill="#12110E" d="M782.493,511.775c-4.501,0-5.019-3.061-5.019-6.185c0-3.125,0.518-6.201,5.019-6.201
		c4.484,0,5.019,3.076,5.019,6.201C787.512,508.715,786.978,511.775,782.493,511.775z M782.477,500.588
		c-3.108,0-3.529,1.878-3.529,4.986c0,3.125,0.421,5.003,3.529,5.003c3.125,0,3.562-1.878,3.562-5.003
		C786.039,502.45,785.602,500.588,782.477,500.588z"/>
	<path fill="#12110E" d="M796.351,505.559c-2.348,0-2.622-1.522-2.622-3.076c0-1.555,0.274-3.093,2.622-3.093
		c2.331,0,2.606,1.538,2.606,3.093C798.957,504.036,798.682,505.559,796.351,505.559z M796.335,500.312
		c-1.344,0-1.506,0.81-1.506,2.153c0,1.36,0.178,2.17,1.506,2.17c1.344,0,1.521-0.81,1.521-2.17
		C797.856,501.122,797.679,500.312,796.335,500.312z M796.626,511.564c-0.017,0.032-0.064,0.049-0.113,0.049
		c-0.032,0-0.049,0-0.081-0.017l-0.534-0.372c-0.049-0.032-0.064-0.081-0.064-0.13c0-0.016,0.016-0.049,0.032-0.081l7.674-11.381
		c0.032-0.049,0.081-0.064,0.113-0.064s0.064,0.016,0.081,0.032l0.551,0.372c0.032,0.017,0.064,0.064,0.064,0.113
		c0,0.032-0.017,0.064-0.032,0.098L796.626,511.564z M803.83,511.775c-2.348,0-2.622-1.522-2.622-3.076
		c0-1.555,0.274-3.093,2.622-3.093s2.623,1.538,2.623,3.093C806.453,510.253,806.178,511.775,803.83,511.775z M803.83,506.529
		c-1.344,0-1.521,0.81-1.521,2.17c0,1.344,0.178,2.153,1.521,2.153s1.522-0.81,1.522-2.153
		C805.353,507.339,805.174,506.529,803.83,506.529z"/>
	<path fill="#12110E" d="M818.304,511.548c-0.47,0.098-1.247,0.228-2.104,0.228c-1.393,0-3.708-0.049-3.708-2.672
		c0-2.169,1.198-2.282,2.801-2.542l3.061-0.502v-0.761c0-0.518-0.017-0.938-0.583-1.149c-0.308-0.129-0.761-0.194-1.474-0.194
		c-1.246,0-2.331,0.308-2.995,0.47c-0.032,0-0.064,0.017-0.097,0.017c-0.064,0-0.13-0.033-0.162-0.13l-0.146-0.729v-0.032
		c0-0.13,0.113-0.179,0.162-0.194c0.518-0.194,1.91-0.502,3.384-0.502c1.149,0,1.894,0.162,2.363,0.421
		c0.825,0.438,0.842,1.198,0.842,1.959v4.646C819.647,511.014,819.421,511.273,818.304,511.548z M818.368,507.08l-2.979,0.502
		c-0.777,0.146-1.57,0.178-1.57,1.457c0,1.619,1.327,1.732,2.396,1.732c0.713,0,1.474-0.098,2.153-0.324V507.08z"/>
	<path fill="#12110E" d="M826.801,500.426c-0.017,0.13-0.097,0.179-0.227,0.179c-0.324-0.065-0.923-0.179-1.555-0.179
		c-0.437,0-0.776,0.049-1.003,0.227c-0.211,0.162-0.324,0.421-0.324,0.858v1.554h2.396c0.146,0,0.242,0.098,0.242,0.243v0.551
		c0,0.146-0.097,0.242-0.242,0.242h-2.396v7.221c0,0.146-0.081,0.243-0.227,0.243h-0.81c-0.146,0-0.243-0.097-0.243-0.243v-7.221
		h-1.263c-0.146,0-0.242-0.097-0.242-0.242v-0.551c0-0.146,0.097-0.243,0.242-0.243h1.263v-1.424c0-1.555,0.762-2.251,2.348-2.251
		c0.858,0,1.538,0.162,1.91,0.243c0.113,0.032,0.211,0.097,0.211,0.21v0.017L826.801,500.426z"/>
	<path fill="#12110E" d="M835.219,511.775c-1.425,0-2.655-0.47-2.865-0.551c-0.065-0.032-0.13-0.064-0.13-0.162v-0.049l0.162-0.631
		c0.016-0.081,0.064-0.146,0.178-0.146h0.081c0.13,0.048,1.279,0.469,2.606,0.469c1.376,0,2.17-0.437,2.17-1.425
		c0-1.343-1.036-1.295-2.299-1.489c-0.794-0.129-2.817-0.275-2.817-2.412c0-2.088,1.861-2.525,3.286-2.525
		c1.393,0,2.461,0.291,2.639,0.34c0.114,0.017,0.162,0.098,0.162,0.178v0.033l-0.113,0.712c-0.016,0.098-0.081,0.13-0.146,0.13
		h-0.032c-0.227-0.017-1.425-0.308-2.38-0.308c-1.166,0-2.137,0.323-2.137,1.344c0,1.101,1.101,1.23,2.104,1.359
		c1.457,0.194,3.027,0.308,3.027,2.51C838.716,511.257,837.097,511.775,835.219,511.775z"/>
	<path fill="#12110E" d="M845.106,511.306c0,0.064-0.064,0.146-0.13,0.162c-0.355,0.113-1.052,0.308-1.975,0.308
		c-1.603,0-2.364-0.696-2.364-2.251v-8.904c0-0.129,0.081-0.178,0.194-0.194l0.875-0.227h0.048c0.113,0,0.162,0.113,0.162,0.211
		v2.654h2.72c0.146,0,0.243,0.098,0.243,0.243v0.551c0,0.146-0.098,0.242-0.243,0.242h-2.72v5.554c0,0.891,0.485,1.085,1.328,1.085
		c0.501,0,1.149-0.13,1.489-0.211h0.048c0.081,0,0.146,0.049,0.179,0.146l0.146,0.6V511.306z"/>
	<path fill="#12110E" d="M850.142,511.775c-2.85,0-3.562-1.215-3.562-3.352v-5.148c0-0.13,0.08-0.178,0.21-0.211l0.874-0.21h0.049
		c0.113,0,0.146,0.113,0.146,0.21v5.488c0,1.522,0.534,2.202,2.283,2.202c2.104,0,2.267-1.036,2.267-2.25v-5.229
		c0-0.13,0.097-0.178,0.21-0.211l0.874-0.21h0.049c0.113,0,0.162,0.113,0.162,0.21v5.327
		C853.703,509.994,853.477,511.775,850.142,511.775z"/>
	<path fill="#12110E" d="M861.798,511.451c-0.518,0.13-1.198,0.324-2.477,0.324c-3.142,0-3.87-1.425-3.87-4.469
		c0-3.108,0.858-4.452,3.772-4.452c1.117,0,1.927,0.178,2.478,0.324l-0.162-0.939v-2.429c0-0.129,0.081-0.178,0.21-0.194
		l0.875-0.227h0.048c0.113,0,0.146,0.113,0.146,0.211v10.571C862.817,510.771,862.817,511.225,861.798,511.451z M861.539,504.166
		c0,0-1.021-0.292-2.186-0.292c-1.781,0-2.574,0.567-2.574,3.449c0,3.075,0.938,3.432,2.59,3.432c1.198,0,2.17-0.308,2.17-0.308
		V504.166z"/>
	<path fill="#12110E" d="M872.159,507.938c-0.016,0.08-0.13,0.21-0.21,0.21h-5.942c0,0.891,0.162,1.393,0.502,1.813
		c0.47,0.599,1.263,0.777,2.396,0.777c1.004,0,1.619-0.194,2.38-0.405c0.032-0.017,0.064-0.032,0.097-0.032
		c0.065,0,0.13,0.049,0.162,0.146l0.178,0.615v0.064c0,0.081-0.064,0.13-0.161,0.179c-0.647,0.259-1.717,0.47-2.785,0.47
		c-3.173,0-4.112-1.474-4.112-4.452c0-2.736,0.551-4.469,3.757-4.469c1.699,0,2.688,0.518,3.222,1.44
		c0.421,0.729,0.518,1.732,0.518,2.85V507.938z M870.621,505.251c-0.291-1.036-0.923-1.377-2.234-1.377
		c-1.295,0-1.926,0.341-2.201,1.377c-0.162,0.599-0.179,1.229-0.194,1.829l4.824-0.017
		C870.8,506.448,870.767,505.85,870.621,505.251z"/>
	<path fill="#12110E" d="M880.966,511.564h-0.793c-0.146,0-0.243-0.097-0.243-0.243v-5.99c0-1.068-0.404-1.44-1.538-1.44
		c-1.506,0-3.027,0.453-3.027,0.453v6.978c0,0.146-0.081,0.243-0.227,0.243h-0.81c-0.146,0-0.243-0.097-0.243-0.243v-6.719
		c0-0.647,0.033-0.938,0.843-1.214c0.842-0.291,2.46-0.534,3.496-0.534c1.927,0,2.785,0.599,2.785,2.331v6.136
		C881.209,511.468,881.111,511.564,880.966,511.564z"/>
	<path fill="#12110E" d="M887.862,511.306c0,0.064-0.064,0.146-0.13,0.162c-0.355,0.113-1.052,0.308-1.975,0.308
		c-1.603,0-2.364-0.696-2.364-2.251v-8.904c0-0.129,0.081-0.178,0.194-0.194l0.875-0.227h0.048c0.113,0,0.162,0.113,0.162,0.211
		v2.654h2.72c0.146,0,0.243,0.098,0.243,0.243v0.551c0,0.146-0.098,0.242-0.243,0.242h-2.72v5.554c0,0.891,0.485,1.085,1.328,1.085
		c0.501,0,1.149-0.13,1.489-0.211h0.048c0.081,0,0.146,0.049,0.179,0.146l0.146,0.6V511.306z"/>
	<path fill="#12110E" d="M896.297,507.938c-0.016,0.08-0.13,0.21-0.21,0.21h-5.942c0,0.891,0.162,1.393,0.502,1.813
		c0.47,0.599,1.263,0.777,2.396,0.777c1.004,0,1.619-0.194,2.38-0.405c0.032-0.017,0.064-0.032,0.097-0.032
		c0.065,0,0.13,0.049,0.162,0.146l0.179,0.615v0.064c0,0.081-0.065,0.13-0.162,0.179c-0.647,0.259-1.717,0.47-2.785,0.47
		c-3.173,0-4.112-1.474-4.112-4.452c0-2.736,0.551-4.469,3.757-4.469c1.699,0,2.688,0.518,3.222,1.44
		c0.421,0.729,0.518,1.732,0.518,2.85V507.938z M894.759,505.251c-0.291-1.036-0.923-1.377-2.234-1.377
		c-1.295,0-1.926,0.341-2.201,1.377c-0.162,0.599-0.179,1.229-0.194,1.829l4.824-0.017
		C894.938,506.448,894.904,505.85,894.759,505.251z"/>
	<path fill="#12110E" d="M902.352,503.987c-1.068,0-1.942,0.081-2.85,0.308v7.026c0,0.146-0.081,0.243-0.227,0.243h-0.81
		c0,0-0.243-0.097-0.243-0.243v-6.751c0-0.712,0.146-0.923,0.696-1.182c0.713-0.324,2.17-0.534,2.947-0.534h0.404
		c0.081,0,0.227,0.032,0.227,0.243v0.696C902.497,503.907,902.465,503.987,902.352,503.987z"/>
	<path fill="#12110E" d="M910.592,511.564h-0.793c-0.146,0-0.243-0.097-0.243-0.243v-5.99c0-1.068-0.404-1.44-1.538-1.44
		c-1.506,0-3.027,0.453-3.027,0.453v6.978c0,0.146-0.081,0.243-0.227,0.243h-0.81c-0.146,0-0.243-0.097-0.243-0.243v-6.719
		c0-0.647,0.033-0.938,0.843-1.214c0.842-0.291,2.46-0.534,3.496-0.534c1.927,0,2.785,0.599,2.785,2.331v6.136
		C910.835,511.468,910.737,511.564,910.592,511.564z"/>
	<path fill="#12110E" d="M920.174,507.938c-0.016,0.08-0.13,0.21-0.21,0.21h-5.942c0,0.891,0.162,1.393,0.502,1.813
		c0.47,0.599,1.263,0.777,2.396,0.777c1.004,0,1.619-0.194,2.38-0.405c0.032-0.017,0.064-0.032,0.097-0.032
		c0.065,0,0.13,0.049,0.162,0.146l0.179,0.615v0.064c0,0.081-0.065,0.13-0.162,0.179c-0.647,0.259-1.717,0.47-2.785,0.47
		c-3.173,0-4.112-1.474-4.112-4.452c0-2.736,0.551-4.469,3.757-4.469c1.699,0,2.688,0.518,3.222,1.44
		c0.421,0.729,0.518,1.732,0.518,2.85V507.938z M918.636,505.251c-0.291-1.036-0.923-1.377-2.234-1.377
		c-1.295,0-1.926,0.341-2.201,1.377c-0.162,0.599-0.179,1.229-0.194,1.829l4.824-0.017
		C918.814,506.448,918.781,505.85,918.636,505.251z"/>
	<path fill="#12110E" d="M930.681,511.775c-0.972,0-1.878-0.146-2.461-0.308l0.178,0.955v2.12c0,0.13-0.081,0.179-0.194,0.211
		l-0.874,0.21h-0.049c-0.113,0-0.162-0.113-0.162-0.21v-10.118c0-0.664,0.033-0.956,0.843-1.247
		c0.842-0.308,2.088-0.534,3.141-0.534c2.914,0,3.384,1.813,3.384,4.469C934.485,510.464,933.627,511.775,930.681,511.775z
		 M930.762,503.907c-0.972,0-2.364,0.388-2.364,0.388v6.169c0,0,0.891,0.308,2.267,0.308c1.862,0,2.493-0.858,2.493-3.416
		C933.157,504.279,932.332,503.907,930.762,503.907z"/>
	<path fill="#12110E" d="M941.722,511.548c-0.47,0.098-1.247,0.228-2.104,0.228c-1.393,0-3.708-0.049-3.708-2.672
		c0-2.169,1.198-2.282,2.801-2.542l3.061-0.502v-0.761c0-0.518-0.017-0.938-0.583-1.149c-0.308-0.129-0.761-0.194-1.474-0.194
		c-1.246,0-2.331,0.308-2.995,0.47c-0.032,0-0.064,0.017-0.097,0.017c-0.064,0-0.13-0.033-0.162-0.13l-0.146-0.729v-0.032
		c0-0.13,0.113-0.179,0.162-0.194c0.518-0.194,1.91-0.502,3.384-0.502c1.149,0,1.894,0.162,2.363,0.421
		c0.825,0.438,0.842,1.198,0.842,1.959v4.646C943.065,511.014,942.839,511.273,941.722,511.548z M941.786,507.08l-2.979,0.502
		c-0.777,0.146-1.57,0.178-1.57,1.457c0,1.619,1.327,1.732,2.396,1.732c0.713,0,1.474-0.098,2.153-0.324V507.08z M939.876,502.239
		c-1.23,0-1.91-0.47-1.91-1.748c0-1.279,0.68-1.732,1.91-1.732c1.214,0,1.895,0.453,1.895,1.732
		C941.771,501.77,941.09,502.239,939.876,502.239z M939.876,499.406c-0.745,0-0.923,0.323-0.923,1.101
		c0,0.761,0.178,1.085,0.923,1.085c0.729,0,0.906-0.34,0.906-1.101C940.782,499.729,940.604,499.406,939.876,499.406z"/>
	<path fill="#12110E" d="M678.344,529.913h-0.858c-0.146,0-0.259-0.113-0.259-0.259v-5.311h-7.107v5.311
		c0,0.146-0.113,0.259-0.259,0.259h-0.858c-0.146,0-0.259-0.113-0.259-0.259v-11.543c0-0.13,0.081-0.179,0.194-0.211l0.972-0.162
		h0.048c0.113,0,0.162,0.113,0.162,0.211v5.132h7.107v-4.97c0-0.13,0.081-0.179,0.194-0.211l0.972-0.162h0.048
		c0.113,0,0.162,0.113,0.162,0.211v11.705C678.603,529.8,678.489,529.913,678.344,529.913z"/>
	<path fill="#12110E" d="M691.117,529.913h-0.858c-0.146,0-0.259-0.113-0.259-0.259v-5.311h-7.107v5.311
		c0,0.146-0.113,0.259-0.259,0.259h-0.858c-0.146,0-0.259-0.113-0.259-0.259v-11.543c0-0.13,0.081-0.179,0.194-0.211l0.972-0.162
		h0.048c0.113,0,0.162,0.113,0.162,0.211v5.132H690v-4.97c0-0.13,0.081-0.179,0.194-0.211l0.972-0.162h0.048
		c0.113,0,0.162,0.113,0.162,0.211v11.705C691.376,529.8,691.263,529.913,691.117,529.913z"/>
	<path fill="#12110E" d="M703.534,529.719c0,0.098-0.081,0.194-0.178,0.194h-1.117c-0.098,0-0.194-0.064-0.227-0.113l-3.74-5.472
		l-3.82,5.472c-0.032,0.064-0.113,0.113-0.211,0.113h-1.197c-0.098,0-0.179-0.097-0.179-0.178c0-0.033,0.017-0.065,0.032-0.081
		l4.307-6.022l-3.82-5.407c-0.017-0.033-0.017-0.065-0.017-0.081c0-0.098,0.081-0.194,0.178-0.194h1.149
		c0.114,0,0.194,0.048,0.26,0.146l3.318,4.873l3.271-4.89c0.064-0.097,0.146-0.129,0.259-0.129h1.134
		c0.097,0,0.178,0.097,0.178,0.194c0,0.016,0,0.048-0.032,0.081l-3.724,5.407l4.161,6.006
		C703.534,529.67,703.534,529.687,703.534,529.719z"/>
	<path fill="#12110E" d="M714.607,518.774c-0.017,0.13-0.097,0.179-0.227,0.179c-0.324-0.065-0.923-0.179-1.555-0.179
		c-0.437,0-0.776,0.049-1.003,0.227c-0.211,0.162-0.324,0.421-0.324,0.858v1.554h2.396c0.146,0,0.242,0.098,0.242,0.243v0.551
		c0,0.146-0.097,0.242-0.242,0.242h-2.396v7.221c0,0.146-0.081,0.243-0.227,0.243h-0.81c-0.146,0-0.243-0.097-0.243-0.243v-7.221
		h-1.263c-0.146,0-0.242-0.097-0.242-0.242v-0.551c0-0.146,0.097-0.243,0.242-0.243h1.263v-1.424c0-1.555,0.762-2.251,2.348-2.251
		c0.858,0,1.538,0.162,1.91,0.243c0.113,0.032,0.211,0.097,0.211,0.21v0.017L714.607,518.774z"/>
	<path fill="#12110E" d="M719.3,522.336c-1.068,0-1.942,0.081-2.85,0.308v7.026c0,0.146-0.081,0.243-0.227,0.243h-0.81
		c0,0-0.243-0.097-0.243-0.243v-6.751c0-0.712,0.146-0.923,0.696-1.182c0.713-0.324,2.17-0.534,2.947-0.534h0.404
		c0.081,0,0.227,0.032,0.227,0.243v0.695C719.445,522.256,719.413,522.336,719.3,522.336z"/>
	<path fill="#12110E" d="M725.889,529.896c-0.47,0.098-1.247,0.228-2.104,0.228c-1.393,0-3.708-0.049-3.708-2.672
		c0-2.169,1.198-2.282,2.801-2.542l3.061-0.502v-0.761c0-0.518-0.017-0.938-0.583-1.149c-0.308-0.129-0.761-0.194-1.474-0.194
		c-1.246,0-2.331,0.308-2.995,0.47c-0.032,0-0.064,0.017-0.097,0.017c-0.064,0-0.13-0.033-0.162-0.13l-0.146-0.729v-0.032
		c0-0.13,0.113-0.179,0.162-0.194c0.518-0.194,1.91-0.502,3.383-0.502c1.15,0,1.895,0.162,2.364,0.421
		c0.825,0.438,0.842,1.198,0.842,1.959v4.646C727.232,529.362,727.006,529.622,725.889,529.896z M725.953,525.429l-2.979,0.502
		c-0.777,0.146-1.57,0.178-1.57,1.457c0,1.619,1.327,1.732,2.396,1.732c0.713,0,1.474-0.098,2.153-0.324V525.429z"/>
	<path fill="#12110E" d="M742.579,522.077c0,0.032-0.032,0.049-0.081,0.098c-0.355,0.242-0.761,0.34-1.149,0.34
		c-0.259,0-0.275-0.017-0.647-0.081c0,0,0.696,0.583,0.696,1.732c0,2.299-1.425,2.963-3.562,2.963h-1.198
		c-0.842,0-1.036,0.421-1.036,0.842c0,0.68,0.47,0.857,1.182,0.857h2.445c1.554,0,2.654,0.47,2.654,1.91
		c0,2.008-1.618,2.672-3.934,2.672c-2.688,0-3.918-0.534-3.918-2.17c0-1.263,0.858-1.505,1.651-1.667v-0.178
		c-0.729-0.162-1.36-0.243-1.36-1.393c0-0.987,0.534-1.23,1.781-1.425c-0.761-0.243-1.829-0.453-1.829-2.412
		c0-2.218,1.457-2.963,3.545-2.963c1.004,0,1.409,0.162,2.024,0.34c0.178,0.032,0.372,0.064,0.599,0.064
		c0.243,0,0.518-0.048,0.745-0.113c0.291-0.081,0.615-0.227,0.842-0.34c0.048-0.016,0.097-0.048,0.129-0.048
		s0.065,0.032,0.081,0.097l0.308,0.81C742.563,522.045,742.579,522.062,742.579,522.077z M739.082,529.913h-2.186
		c-0.825,0-1.586,0.259-1.586,1.23c0,1.117,1.165,1.263,2.655,1.263c1.003,0,2.639-0.146,2.639-1.474
		C740.604,529.994,739.795,529.913,739.082,529.913z M737.836,522.175c-1.408,0-2.283,0.485-2.283,1.991
		c0,1.489,0.875,1.959,2.283,1.959c1.393,0,2.282-0.47,2.282-1.959C740.118,522.66,739.229,522.175,737.836,522.175z"/>
	<path fill="#12110E" d="M747.55,531.16c-0.47,1.505-0.955,2.152-2.688,2.152c-0.519,0-0.826-0.016-1.134-0.064
		c-0.146-0.032-0.178-0.113-0.178-0.178v-0.713c0-0.081,0.081-0.161,0.178-0.161h0.017c0.162,0,0.615,0.016,0.939,0.016
		c0.825,0,1.295-0.162,1.554-1.068l0.372-1.23h-0.663c-0.146,0-0.275-0.097-0.324-0.259l-2.703-7.981
		c0-0.032-0.017-0.049-0.017-0.065c0-0.097,0.097-0.194,0.194-0.194h0.955c0.162,0,0.211,0.098,0.243,0.211l2.299,7.35h0.421
		l2.072-7.35c0.016-0.113,0.113-0.211,0.259-0.211h1.02c0.098,0,0.194,0.081,0.194,0.194c0,0.017,0,0.033-0.016,0.049L747.55,531.16
		z"/>
	<path fill="#12110E" d="M764.598,529.913h-0.793c-0.162,0-0.26-0.097-0.26-0.243v-5.99c0-1.068-0.389-1.44-1.521-1.44
		c-1.506,0-3.044,0.453-3.044,0.453v6.978c0,0.162-0.064,0.243-0.227,0.243h-0.793c-0.146,0-0.243-0.097-0.243-0.243v-5.99
		c0-1.068-0.404-1.44-1.538-1.44c-1.506,0-3.027,0.453-3.027,0.453v6.978c0,0.146-0.081,0.243-0.227,0.243h-0.81
		c-0.146,0-0.243-0.097-0.243-0.243v-6.719c0-0.647,0.033-0.938,0.843-1.214c0.842-0.291,2.46-0.534,3.496-0.534
		c1.021,0,1.749,0.194,2.202,0.615c0.906-0.356,2.655-0.615,3.643-0.615c1.927,0,2.785,0.599,2.785,2.331v6.136
		C764.841,529.816,764.743,529.913,764.598,529.913z"/>
	<path fill="#12110E" d="M773.891,529.913h-0.793c-0.146,0-0.243-0.097-0.243-0.243v-5.99c0-1.068-0.404-1.44-1.538-1.44
		c-1.506,0-3.027,0.453-3.027,0.453v6.978c0,0.146-0.081,0.243-0.227,0.243h-0.81c-0.146,0-0.243-0.097-0.243-0.243v-6.719
		c0-0.647,0.033-0.938,0.843-1.214c0.842-0.291,2.46-0.534,3.496-0.534c1.927,0,2.785,0.599,2.785,2.331v6.136
		C774.134,529.816,774.036,529.913,773.891,529.913z"/>
	<path fill="#12110E" d="M781.71,529.896c-0.47,0.098-1.247,0.228-2.104,0.228c-1.393,0-3.708-0.049-3.708-2.672
		c0-2.169,1.198-2.282,2.801-2.542l3.061-0.502v-0.761c0-0.518-0.017-0.938-0.583-1.149c-0.308-0.129-0.761-0.194-1.474-0.194
		c-1.246,0-2.331,0.308-2.995,0.47c-0.032,0-0.064,0.017-0.097,0.017c-0.064,0-0.13-0.033-0.162-0.13l-0.146-0.729v-0.032
		c0-0.13,0.113-0.179,0.162-0.194c0.518-0.194,1.91-0.502,3.384-0.502c1.149,0,1.894,0.162,2.363,0.421
		c0.825,0.438,0.842,1.198,0.842,1.959v4.646C783.054,529.362,782.827,529.622,781.71,529.896z M781.774,525.429l-2.979,0.502
		c-0.777,0.146-1.57,0.178-1.57,1.457c0,1.619,1.327,1.732,2.396,1.732c0.713,0,1.474-0.098,2.153-0.324V525.429z"/>
	<path fill="#12110E" d="M787.829,530.124c-1.425,0-2.655-0.47-2.865-0.551c-0.065-0.032-0.13-0.064-0.13-0.162v-0.049l0.162-0.631
		c0.016-0.081,0.064-0.146,0.178-0.146h0.081c0.13,0.048,1.279,0.469,2.606,0.469c1.376,0,2.17-0.437,2.17-1.425
		c0-1.344-1.036-1.295-2.3-1.489c-0.793-0.129-2.816-0.275-2.816-2.412c0-2.088,1.861-2.525,3.286-2.525
		c1.393,0,2.461,0.291,2.64,0.34c0.113,0.017,0.161,0.098,0.161,0.178v0.033l-0.113,0.712c-0.016,0.098-0.081,0.13-0.146,0.13
		h-0.032c-0.227-0.017-1.425-0.308-2.38-0.308c-1.166,0-2.137,0.323-2.137,1.344c0,1.101,1.101,1.23,2.104,1.359
		c1.457,0.194,3.027,0.308,3.027,2.51C791.326,529.605,789.707,530.124,787.829,530.124z"/>
	<path fill="#12110E" d="M794.369,519.956h-0.793c-0.146,0-0.243-0.097-0.243-0.227v-1.748c0-0.146,0.098-0.243,0.243-0.243h0.793
		c0.146,0,0.243,0.098,0.243,0.243v1.748C794.612,519.859,794.515,519.956,794.369,519.956z M794.369,529.913h-0.793
		c-0.146,0-0.243-0.097-0.243-0.243v-8.014c0-0.146,0.098-0.243,0.243-0.243h0.793c0.146,0,0.243,0.098,0.243,0.243v8.014
		C794.612,529.816,794.515,529.913,794.369,529.913z"/>
	<path fill="#12110E" d="M804.196,526.286c-0.016,0.081-0.13,0.211-0.21,0.211h-5.942c0,0.891,0.162,1.393,0.502,1.813
		c0.47,0.599,1.263,0.777,2.396,0.777c1.004,0,1.619-0.194,2.38-0.405c0.032-0.017,0.064-0.032,0.097-0.032
		c0.065,0,0.13,0.049,0.162,0.146l0.178,0.615v0.064c0,0.081-0.064,0.13-0.161,0.179c-0.647,0.259-1.717,0.47-2.785,0.47
		c-3.173,0-4.112-1.474-4.112-4.452c0-2.736,0.551-4.469,3.757-4.469c1.699,0,2.688,0.518,3.222,1.44
		c0.421,0.729,0.518,1.732,0.518,2.85V526.286z M802.658,523.6c-0.291-1.036-0.923-1.377-2.234-1.377
		c-1.295,0-1.926,0.341-2.201,1.377c-0.162,0.599-0.179,1.229-0.194,1.829l4.824-0.017
		C802.837,524.797,802.804,524.198,802.658,523.6z"/>
	<path fill="#12110E" d="M811.012,518.774c-0.017,0.13-0.097,0.179-0.227,0.179c-0.324-0.065-0.923-0.179-1.555-0.179
		c-0.437,0-0.776,0.049-1.003,0.227c-0.211,0.162-0.324,0.421-0.324,0.858v1.554h2.396c0.146,0,0.242,0.098,0.242,0.243v0.551
		c0,0.146-0.097,0.242-0.242,0.242h-2.396v7.221c0,0.146-0.081,0.243-0.227,0.243h-0.81c-0.146,0-0.243-0.097-0.243-0.243v-7.221
		h-1.263c-0.146,0-0.242-0.097-0.242-0.242v-0.551c0-0.146,0.097-0.243,0.242-0.243h1.263v-1.424c0-1.555,0.762-2.251,2.348-2.251
		c0.858,0,1.538,0.162,1.91,0.243c0.113,0.032,0.211,0.097,0.211,0.21v0.017L811.012,518.774z"/>
	<path fill="#12110E" d="M815.704,522.336c-1.068,0-1.942,0.081-2.85,0.308v7.026c0,0.146-0.081,0.243-0.227,0.243h-0.81
		c0,0-0.243-0.097-0.243-0.243v-6.751c0-0.712,0.146-0.923,0.696-1.182c0.713-0.324,2.17-0.534,2.947-0.534h0.404
		c0.081,0,0.227,0.032,0.227,0.243v0.695C815.85,522.256,815.817,522.336,815.704,522.336z"/>
	<path fill="#12110E" d="M824.056,526.286c-0.016,0.081-0.13,0.211-0.21,0.211h-5.942c0,0.891,0.162,1.393,0.502,1.813
		c0.47,0.599,1.263,0.777,2.396,0.777c1.004,0,1.619-0.194,2.38-0.405c0.032-0.017,0.064-0.032,0.097-0.032
		c0.065,0,0.13,0.049,0.162,0.146l0.178,0.615v0.064c0,0.081-0.064,0.13-0.161,0.179c-0.647,0.259-1.717,0.47-2.785,0.47
		c-3.173,0-4.112-1.474-4.112-4.452c0-2.736,0.551-4.469,3.757-4.469c1.699,0,2.688,0.518,3.222,1.44
		c0.421,0.729,0.518,1.732,0.518,2.85V526.286z M822.518,523.6c-0.291-1.036-0.923-1.377-2.234-1.377
		c-1.295,0-1.926,0.341-2.201,1.377c-0.162,0.599-0.179,1.229-0.194,1.829l4.824-0.017
		C822.696,524.797,822.663,524.198,822.518,523.6z"/>
	<path fill="#12110E" d="M838.707,529.913h-0.793c-0.162,0-0.26-0.097-0.26-0.243v-5.99c0-1.068-0.389-1.44-1.521-1.44
		c-1.506,0-3.044,0.453-3.044,0.453v6.978c0,0.162-0.064,0.243-0.227,0.243h-0.793c-0.146,0-0.243-0.097-0.243-0.243v-5.99
		c0-1.068-0.404-1.44-1.538-1.44c-1.506,0-3.027,0.453-3.027,0.453v6.978c0,0.146-0.081,0.243-0.227,0.243h-0.81
		c-0.146,0-0.243-0.097-0.243-0.243v-6.719c0-0.647,0.033-0.938,0.843-1.214c0.842-0.291,2.46-0.534,3.496-0.534
		c1.021,0,1.749,0.194,2.202,0.615c0.906-0.356,2.655-0.615,3.643-0.615c1.927,0,2.785,0.599,2.785,2.331v6.136
		C838.95,529.816,838.853,529.913,838.707,529.913z"/>
	<path fill="#12110E" d="M853.845,529.913h-0.793c-0.162,0-0.26-0.097-0.26-0.243v-5.99c0-1.068-0.389-1.44-1.521-1.44
		c-1.506,0-3.044,0.453-3.044,0.453v6.978c0,0.162-0.064,0.243-0.227,0.243h-0.793c-0.146,0-0.243-0.097-0.243-0.243v-5.99
		c0-1.068-0.404-1.44-1.538-1.44c-1.506,0-3.027,0.453-3.027,0.453v6.978c0,0.146-0.081,0.243-0.227,0.243h-0.81
		c-0.146,0-0.243-0.097-0.243-0.243v-6.719c0-0.647,0.033-0.938,0.843-1.214c0.842-0.291,2.46-0.534,3.496-0.534
		c1.021,0,1.749,0.194,2.202,0.615c0.906-0.356,2.655-0.615,3.643-0.615c1.927,0,2.785,0.599,2.785,2.331v6.136
		C854.088,529.816,853.99,529.913,853.845,529.913z"/>
	<path fill="#12110E" d="M863.411,526.286c-0.016,0.081-0.13,0.211-0.21,0.211h-5.942c0,0.891,0.162,1.393,0.502,1.813
		c0.47,0.599,1.263,0.777,2.396,0.777c1.004,0,1.619-0.194,2.38-0.405c0.032-0.017,0.064-0.032,0.097-0.032
		c0.065,0,0.13,0.049,0.162,0.146l0.178,0.615v0.064c0,0.081-0.064,0.13-0.161,0.179c-0.647,0.259-1.717,0.47-2.785,0.47
		c-3.173,0-4.112-1.474-4.112-4.452c0-2.736,0.551-4.469,3.757-4.469c1.699,0,2.688,0.518,3.222,1.44
		c0.421,0.729,0.518,1.732,0.518,2.85V526.286z M861.873,523.6c-0.291-1.036-0.923-1.377-2.234-1.377
		c-1.295,0-1.926,0.341-2.201,1.377c-0.162,0.599-0.179,1.229-0.194,1.829l4.824-0.017
		C862.052,524.797,862.019,524.198,861.873,523.6z"/>
	<path fill="#12110E" d="M871.263,529.8c-0.518,0.13-1.198,0.324-2.477,0.324c-3.142,0-3.87-1.425-3.87-4.469
		c0-3.108,0.858-4.452,3.772-4.452c1.117,0,1.927,0.178,2.478,0.324l-0.162-0.939v-2.429c0-0.129,0.081-0.178,0.21-0.194
		l0.875-0.227h0.048c0.113,0,0.146,0.113,0.146,0.211v10.571C872.282,529.12,872.282,529.573,871.263,529.8z M871.004,522.515
		c0,0-1.021-0.292-2.186-0.292c-1.781,0-2.574,0.567-2.574,3.449c0,3.075,0.938,3.432,2.59,3.432c1.198,0,2.17-0.308,2.17-0.308
		V522.515z"/>
	<path fill="#12110E" d="M881.624,526.286c-0.016,0.081-0.13,0.211-0.21,0.211h-5.942c0,0.891,0.162,1.393,0.502,1.813
		c0.47,0.599,1.263,0.777,2.396,0.777c1.004,0,1.619-0.194,2.38-0.405c0.032-0.017,0.064-0.032,0.097-0.032
		c0.065,0,0.13,0.049,0.162,0.146l0.178,0.615v0.064c0,0.081-0.064,0.13-0.161,0.179c-0.647,0.259-1.717,0.47-2.785,0.47
		c-3.173,0-4.112-1.474-4.112-4.452c0-2.736,0.551-4.469,3.757-4.469c1.699,0,2.688,0.518,3.222,1.44
		c0.421,0.729,0.518,1.732,0.518,2.85V526.286z M880.086,523.6c-0.291-1.036-0.923-1.377-2.234-1.377
		c-1.295,0-1.926,0.341-2.201,1.377c-0.162,0.599-0.179,1.229-0.194,1.829l4.824-0.017
		C880.265,524.797,880.231,524.198,880.086,523.6z"/>
	<path fill="#12110E" d="M895.449,529.913h-0.793c-0.146,0-0.243-0.097-0.243-0.243v-5.99c0-1.068-0.404-1.44-1.538-1.44
		c-1.506,0-3.027,0.453-3.027,0.453v6.978c0,0.146-0.081,0.243-0.227,0.243h-0.81c-0.146,0-0.243-0.097-0.243-0.243v-11.511
		c0-0.129,0.081-0.178,0.194-0.194l0.875-0.227h0.048c0.113,0,0.162,0.113,0.162,0.211v2.801l-0.162,0.938
		c0.891-0.259,2.283-0.485,3.222-0.485c1.927,0,2.785,0.599,2.785,2.331v6.136C895.692,529.816,895.611,529.913,895.449,529.913z"/>
	<path fill="#12110E" d="M896.857,533.312c-0.647,0-0.696-0.016-0.906-0.048c-0.065,0-0.26-0.032-0.26-0.211v-0.534
		c0-0.227,0.13-0.259,0.211-0.259c0,0,0.323,0.016,0.631,0.016c1.053,0,1.506-0.178,1.506-1.214v-9.406
		c0-0.146,0.113-0.243,0.243-0.243h0.81c0.146,0,0.227,0.098,0.227,0.243v9.487C899.318,532.73,898.477,533.312,896.857,533.312z
		 M899.092,519.956h-0.81c-0.146,0-0.243-0.097-0.243-0.227v-1.748c0-0.146,0.098-0.243,0.243-0.243h0.81
		c0.146,0,0.227,0.098,0.227,0.243v1.748C899.318,519.859,899.237,519.956,899.092,519.956z"/>
	<path fill="#12110E" d="M908.821,526.286c-0.016,0.081-0.13,0.211-0.21,0.211h-5.942c0,0.891,0.162,1.393,0.502,1.813
		c0.47,0.599,1.263,0.777,2.396,0.777c1.004,0,1.619-0.194,2.38-0.405c0.032-0.017,0.064-0.032,0.097-0.032
		c0.065,0,0.13,0.049,0.162,0.146l0.178,0.615v0.064c0,0.081-0.064,0.13-0.161,0.179c-0.647,0.259-1.717,0.47-2.785,0.47
		c-3.173,0-4.112-1.474-4.112-4.452c0-2.736,0.551-4.469,3.757-4.469c1.699,0,2.688,0.518,3.222,1.44
		c0.421,0.729,0.518,1.732,0.518,2.85V526.286z M907.283,523.6c-0.291-1.036-0.923-1.377-2.234-1.377
		c-1.295,0-1.926,0.341-2.201,1.377c-0.162,0.599-0.179,1.229-0.194,1.829l4.824-0.017
		C907.462,524.797,907.429,524.198,907.283,523.6z"/>
	<path fill="#12110E" d="M923.473,529.913h-0.793c-0.162,0-0.26-0.097-0.26-0.243v-5.99c0-1.068-0.389-1.44-1.521-1.44
		c-1.506,0-3.044,0.453-3.044,0.453v6.978c0,0.162-0.064,0.243-0.227,0.243h-0.793c-0.146,0-0.243-0.097-0.243-0.243v-5.99
		c0-1.068-0.404-1.44-1.538-1.44c-1.506,0-3.027,0.453-3.027,0.453v6.978c0,0.146-0.081,0.243-0.227,0.243h-0.81
		c-0.146,0-0.243-0.097-0.243-0.243v-6.719c0-0.647,0.033-0.938,0.843-1.214c0.842-0.291,2.46-0.534,3.496-0.534
		c1.021,0,1.749,0.194,2.202,0.615c0.906-0.356,2.655-0.615,3.643-0.615c1.927,0,2.785,0.599,2.785,2.331v6.136
		C923.716,529.816,923.618,529.913,923.473,529.913z"/>
	<path fill="#12110E" d="M928.119,529.913h-1.408c-0.146,0-0.243-0.097-0.243-0.243v-1.036c0-0.146,0.098-0.242,0.243-0.242h1.408
		c0.146,0,0.243,0.097,0.243,0.242v1.036C928.362,529.816,928.265,529.913,928.119,529.913z"/>
</g>
<g>
</g>
<g>
</g>
<g>
</g>
<g>
</g>
<g>
</g>
<g>
</g>
</svg>
