<?xml version="1.0" encoding="utf-8"?>
<!-- Generator: Adobe Illustrator 16.0.4, SVG Export Plug-In . SVG Version: 6.00 Build 0)  -->
<!DOCTYPE svg PUBLIC "-//W3C//DTD SVG 1.1//EN" "http://www.w3.org/Graphics/SVG/1.1/DTD/svg11.dtd">
<svg version="1.1" id="Layer_1" xmlns="http://www.w3.org/2000/svg" xmlns:xlink="http://www.w3.org/1999/xlink" x="0px" y="0px"
	 width="1019.068px" height="580.661px" viewBox="0 0 1019.068 580.661" enable-background="new 0 0 1019.068 580.661"
	 xml:space="preserve">
<polygon fill="#E4F3FB" points="1007.781,380.861 644.02,375.068 658.6,262.966 1002.402,262.701 "/>
<g>
	<rect x="675.117" y="283.006" fill="none" width="320.922" height="123.534"/>
	<path fill="#12110C" d="M684.831,289.483c-0.857,0.842-2.234,0.955-3.416,0.955c-0.275,0-0.518-0.017-0.76-0.017l-2.705-0.032
		v4.533c0,0.146-0.113,0.26-0.258,0.26h-0.859c-0.145,0-0.258-0.113-0.258-0.26v-11.446c0-0.146,0.113-0.259,0.258-0.259h5.084
		c1.133,0,2.234,0.146,2.947,0.891c0.518,0.518,0.826,1.359,0.826,2.654C685.691,287.718,685.544,288.754,684.831,289.483z
		 M683.698,284.95c-0.469-0.454-1.197-0.551-2.039-0.551h-3.709v4.97l2.736-0.097c1.279-0.049,2.332-0.049,2.963-0.599
		c0.404-0.341,0.631-0.923,0.631-1.895C684.281,285.873,684.072,285.306,683.698,284.95z"/>
	<path fill="#12110C" d="M692.23,295.165c-0.471,0.098-1.248,0.229-2.105,0.229c-1.393,0-3.707-0.049-3.707-2.672
		c0-2.169,1.197-2.283,2.801-2.542l3.061-0.502v-0.761c0-0.518-0.018-0.938-0.584-1.149c-0.307-0.129-0.76-0.194-1.473-0.194
		c-1.246,0-2.332,0.308-2.996,0.47c-0.031,0-0.064,0.017-0.096,0.017c-0.064,0-0.131-0.033-0.162-0.13l-0.146-0.729v-0.032
		c0-0.13,0.113-0.179,0.162-0.194c0.518-0.194,1.91-0.502,3.385-0.502c1.148,0,1.893,0.162,2.363,0.421
		c0.824,0.438,0.842,1.198,0.842,1.959v4.647C693.573,294.631,693.347,294.891,692.23,295.165z M692.294,290.697l-2.979,0.502
		c-0.777,0.145-1.57,0.178-1.57,1.457c0,1.619,1.326,1.732,2.395,1.732c0.713,0,1.475-0.098,2.154-0.324V290.697z M690.384,285.856
		c-1.23,0-1.91-0.47-1.91-1.748c0-1.279,0.68-1.732,1.91-1.732c1.213,0,1.895,0.453,1.895,1.732
		C692.279,285.387,691.597,285.856,690.384,285.856z M690.384,283.023c-0.746,0-0.924,0.323-0.924,1.101
		c0,0.761,0.178,1.085,0.924,1.085c0.729,0,0.906-0.34,0.906-1.101C691.29,283.347,691.113,283.023,690.384,283.023z"/>
	<path fill="#12110C" d="M704.679,295.36c-1.895,0-3.367-0.453-3.725-0.566c-0.129-0.033-0.211-0.146-0.211-0.26
		c0-0.016,0.018-0.049,0.018-0.064l0.178-0.713c0.016-0.08,0.162-0.145,0.242-0.145h0.033c0.324,0.064,1.975,0.518,3.74,0.518
		c1.473,0,3.043-0.502,3.043-2.268c0-1.683-1.393-1.91-3.223-2.136c-1.877-0.242-4.16-0.647-4.16-3.352
		c0-2.703,2.234-3.335,4.436-3.335c1.895,0,3.367,0.454,3.707,0.567c0.146,0.048,0.211,0.146,0.211,0.259v0.064l-0.178,0.713
		c-0.033,0.081-0.162,0.146-0.242,0.146h-0.033c-0.324-0.064-1.748-0.486-3.514-0.486c-1.391,0-3.027,0.308-3.027,1.959
		s1.637,1.976,3.189,2.186c1.943,0.26,4.227,0.389,4.227,3.302C709.39,294.631,707.009,295.36,704.679,295.36z"/>
	<path fill="#12110C" d="M719.525,284.432h-3.936v10.491c0,0.146-0.113,0.26-0.258,0.26h-0.859c-0.145,0-0.258-0.113-0.258-0.26
		v-10.491h-3.934c-0.146,0-0.26-0.113-0.26-0.259v-0.696c0-0.146,0.113-0.259,0.26-0.259h9.244c0.145,0,0.258,0.113,0.258,0.259
		v0.696C719.782,284.318,719.669,284.432,719.525,284.432z"/>
	<path fill="#12110C" d="M730.386,294.987c0,0.098-0.08,0.195-0.178,0.195h-1.117c-0.098,0-0.193-0.064-0.227-0.113l-3.74-5.472
		l-3.82,5.472c-0.031,0.064-0.113,0.113-0.211,0.113h-1.197c-0.098,0-0.178-0.098-0.178-0.178c0-0.033,0.016-0.066,0.031-0.082
		l4.307-6.022l-3.82-5.407c-0.016-0.033-0.016-0.065-0.016-0.081c0-0.098,0.08-0.194,0.178-0.194h1.148
		c0.115,0,0.195,0.049,0.26,0.146l3.318,4.873l3.271-4.89c0.064-0.097,0.145-0.129,0.258-0.129h1.135
		c0.096,0,0.178,0.097,0.178,0.194c0,0.016,0,0.048-0.033,0.081l-3.723,5.407l4.16,6.006
		C730.386,294.938,730.386,294.956,730.386,294.987z"/>
	<path fill="#12110C" d="M740.812,294.922c-0.049,0.162-0.178,0.26-0.324,0.26h-1.699c-0.162,0-0.291-0.098-0.34-0.26l-2.688-7.949
		c-0.016-0.032-0.016-0.064-0.016-0.081c0-0.113,0.064-0.211,0.162-0.211h0.971c0.162,0,0.211,0.098,0.242,0.211l2.299,7.35h0.422
		l2.072-7.35c0.031-0.113,0.113-0.211,0.275-0.211h1.004c0.113,0,0.193,0.081,0.193,0.194v0.049L740.812,294.922z"/>
	<path fill="#12110C" d="M750.234,295.165c-0.469,0.098-1.246,0.229-2.104,0.229c-1.393,0-3.709-0.049-3.709-2.672
		c0-2.169,1.199-2.283,2.801-2.542l3.061-0.502v-0.761c0-0.518-0.016-0.938-0.582-1.149c-0.309-0.129-0.762-0.194-1.475-0.194
		c-1.246,0-2.33,0.308-2.994,0.47c-0.033,0-0.064,0.017-0.098,0.017c-0.064,0-0.129-0.033-0.162-0.13l-0.145-0.729v-0.032
		c0-0.13,0.113-0.179,0.162-0.194c0.518-0.194,1.91-0.502,3.383-0.502c1.15,0,1.895,0.162,2.363,0.421
		c0.826,0.438,0.842,1.198,0.842,1.959v4.647C751.577,294.631,751.351,294.891,750.234,295.165z M750.298,290.697l-2.979,0.502
		c-0.777,0.145-1.57,0.178-1.57,1.457c0,1.619,1.328,1.732,2.396,1.732c0.713,0,1.473-0.098,2.152-0.324V290.697z"/>
	<path fill="#12110C" d="M757.892,287.604c-1.068,0-1.943,0.081-2.85,0.308v7.026c0,0.146-0.082,0.244-0.227,0.244h-0.811
		c0,0-0.242-0.098-0.242-0.244v-6.75c0-0.712,0.146-0.923,0.695-1.182c0.713-0.324,2.17-0.534,2.947-0.534h0.404
		c0.082,0,0.227,0.032,0.227,0.243v0.696C758.036,287.524,758.005,287.604,757.892,287.604z"/>
	<path fill="#12110C" d="M770.195,295.069c-0.518,0.129-1.197,0.324-2.477,0.324c-3.141,0-3.869-1.426-3.869-4.469
		c0-3.109,0.857-4.453,3.771-4.453c1.117,0,1.928,0.178,2.479,0.324l-0.162-0.939v-2.429c0-0.129,0.08-0.178,0.209-0.194
		l0.875-0.227h0.049c0.113,0,0.145,0.113,0.145,0.211v10.572C771.214,294.389,771.214,294.842,770.195,295.069z M769.937,287.783
		c0,0-1.021-0.292-2.186-0.292c-1.781,0-2.574,0.567-2.574,3.449c0,3.076,0.938,3.432,2.59,3.432c1.197,0,2.17-0.307,2.17-0.307
		V287.783z"/>
	<path fill="#12110C" d="M780.556,291.555c-0.016,0.08-0.129,0.211-0.209,0.211h-5.943c0,0.891,0.162,1.393,0.502,1.812
		c0.471,0.6,1.264,0.777,2.396,0.777c1.004,0,1.619-0.193,2.381-0.404c0.031-0.018,0.064-0.033,0.096-0.033
		c0.066,0,0.131,0.049,0.162,0.146l0.18,0.615v0.064c0,0.08-0.066,0.129-0.162,0.178c-0.648,0.26-1.717,0.471-2.785,0.471
		c-3.174,0-4.113-1.475-4.113-4.453c0-2.736,0.551-4.468,3.758-4.468c1.699,0,2.688,0.518,3.221,1.44
		c0.422,0.729,0.518,1.732,0.518,2.85V291.555z M779.019,288.868c-0.291-1.036-0.924-1.377-2.234-1.377
		c-1.295,0-1.926,0.341-2.201,1.377c-0.162,0.599-0.18,1.229-0.195,1.829l4.824-0.017
		C779.197,290.065,779.163,289.467,779.019,288.868z"/>
	<path fill="#12110C" d="M786.95,294.922c0,0.064-0.064,0.146-0.129,0.162c-0.355,0.113-1.053,0.309-1.975,0.309
		c-1.604,0-2.365-0.697-2.365-2.252v-8.904c0-0.129,0.082-0.178,0.195-0.194l0.875-0.227h0.047c0.113,0,0.162,0.113,0.162,0.211
		v2.654h2.721c0.145,0,0.242,0.098,0.242,0.243v0.551c0,0.146-0.098,0.242-0.242,0.242h-2.721v5.554
		c0,0.891,0.486,1.084,1.328,1.084c0.502,0,1.15-0.129,1.49-0.211h0.047c0.082,0,0.146,0.049,0.18,0.146l0.145,0.6V294.922z"/>
	<path fill="#12110C" d="M794.609,285.225h-0.793c-0.146,0-0.244-0.097-0.244-0.227v-1.748c0-0.146,0.098-0.243,0.244-0.243h0.793
		c0.145,0,0.242,0.098,0.242,0.243v1.748C794.851,285.128,794.753,285.225,794.609,285.225z M794.609,295.182h-0.793
		c-0.146,0-0.244-0.098-0.244-0.244v-8.013c0-0.146,0.098-0.243,0.244-0.243h0.793c0.145,0,0.242,0.098,0.242,0.243v8.013
		C794.851,295.084,794.753,295.182,794.609,295.182z"/>
	<path fill="#12110C" d="M810.927,294.922c0,0.146-0.113,0.26-0.26,0.26h-7.9c-0.145,0-0.258-0.113-0.258-0.26v-0.939
		c0-0.76,0.211-1.084,0.793-1.506c0.566-0.42,2.057-1.537,2.057-1.537c1.279-0.971,3.643-2.347,3.643-4.193
		c0-2.008-1.248-2.493-2.963-2.493c-1.748,0-2.883,0.389-3.432,0.534h-0.066c-0.096,0-0.193-0.049-0.227-0.194l-0.178-0.729v-0.049
		c0-0.113,0.113-0.178,0.195-0.21c0.242-0.098,1.684-0.6,3.836-0.6c2.428,0,4.273,0.907,4.273,3.805c0,2.104-1.91,3.433-3.674,4.695
		l-2.883,2.088v0.324h6.783c0.146,0,0.26,0.113,0.26,0.26V294.922z"/>
	<path fill="#12110C" d="M818.095,295.393c-4.5,0-5.018-3.061-5.018-6.185c0-3.125,0.518-6.201,5.018-6.201
		c4.484,0,5.02,3.076,5.02,6.201C823.115,292.333,822.579,295.393,818.095,295.393z M818.079,284.205
		c-3.109,0-3.529,1.878-3.529,4.986c0,3.125,0.42,5.002,3.529,5.002c3.125,0,3.562-1.877,3.562-5.002
		C821.642,286.067,821.204,284.205,818.079,284.205z"/>
	<path fill="#12110C" d="M830.138,295.393c-4.5,0-5.018-3.061-5.018-6.185c0-3.125,0.518-6.201,5.018-6.201
		c4.484,0,5.02,3.076,5.02,6.201C835.157,292.333,834.622,295.393,830.138,295.393z M830.122,284.205
		c-3.109,0-3.529,1.878-3.529,4.986c0,3.125,0.42,5.002,3.529,5.002c3.125,0,3.562-1.877,3.562-5.002
		C833.685,286.067,833.247,284.205,830.122,284.205z"/>
	<path fill="#12110C" d="M842.05,295.393c-3.238,0-4.809-1.135-4.809-3.482c0-1.91,1.57-2.589,2.688-2.655v-0.453
		c-0.291-0.064-2.477-0.129-2.477-2.558c0-2.542,2.314-3.238,4.598-3.238c2.299,0,4.613,0.696,4.613,3.238
		c0,2.429-2.186,2.509-2.477,2.574v0.453c1.117,0.064,2.688,0.729,2.688,2.638C846.874,294.258,845.304,295.393,842.05,295.393z
		 M842.034,289.645c-1.652,0-3.385,0.47-3.385,2.284c0,1.666,1.199,2.266,3.434,2.266c2.232,0,3.383-0.6,3.383-2.266
		C845.466,290.114,843.7,289.645,842.034,289.645z M842.083,284.205c-2.105,0-3.223,0.534-3.223,2.089
		c0,1.699,1.619,2.137,3.174,2.137c1.57,0,3.221-0.438,3.221-2.137C845.255,284.739,844.171,284.205,842.083,284.205z"/>
	<path fill="#12110C" d="M857.964,295.393c-1.977,0-3.385-0.406-3.918-0.615c-0.131-0.049-0.195-0.115-0.195-0.211
		c0-0.033,0-0.064,0.018-0.082l0.227-0.777c0.031-0.064,0.096-0.113,0.178-0.113c0.049,0,0.08,0.018,0.129,0.018
		c1.133,0.389,2.43,0.551,3.48,0.551c1.441,0,2.883-0.6,2.883-2.186c0-2.17-1.732-2.138-3.982-2.365c-0.131,0-0.26-0.064-0.26-0.21
		v-0.762c0-0.146,0.113-0.194,0.26-0.194c2.348-0.178,3.771-0.469,3.771-2.169c0-1.587-1.197-2.023-2.834-2.023
		c-1.473,0-2.688,0.34-3.545,0.599c-0.049,0.017-0.08,0.017-0.113,0.017c-0.098,0-0.162-0.032-0.193-0.13l-0.195-0.729
		c-0.016-0.049-0.016-0.097-0.016-0.13c0-0.097,0.049-0.161,0.162-0.21c0.664-0.275,2.168-0.664,4.111-0.664
		c2.623,0,4.031,1.134,4.031,3.108c0,2.299-1.895,2.574-2.348,2.688v0.405c0.178,0.081,2.559,0.113,2.559,2.849
		C862.173,294.583,860.052,295.393,857.964,295.393z"/>
	<path fill="#12110C" d="M873.503,291.928c0,0.145-0.113,0.258-0.26,0.258h-1.504v2.736c0,0.146-0.131,0.26-0.26,0.26h-0.875
		c-0.129,0-0.258-0.113-0.258-0.26v-2.736h-6.379c-0.146,0-0.26-0.096-0.26-0.242v-0.875c0-0.049,0-0.145,0.049-0.209l5.408-7.545
		c0.031-0.048,0.113-0.097,0.16-0.097h2.154c0.146,0,0.26,0.113,0.26,0.259v7.497h1.504c0.146,0,0.26,0.129,0.26,0.258V291.928z
		 M870.347,284.367h-0.486l-4.809,6.622h5.295V284.367z"/>
	<path fill="#12110C" d="M882.343,289.176c-2.348,0-2.623-1.522-2.623-3.076c0-1.555,0.275-3.093,2.623-3.093
		c2.33,0,2.605,1.538,2.605,3.093C884.948,287.653,884.673,289.176,882.343,289.176z M882.327,283.93
		c-1.344,0-1.506,0.81-1.506,2.153c0,1.36,0.178,2.17,1.506,2.17c1.344,0,1.521-0.81,1.521-2.17
		C883.849,284.739,883.671,283.93,882.327,283.93z M882.618,295.182c-0.018,0.031-0.064,0.049-0.113,0.049
		c-0.033,0-0.049,0-0.082-0.018l-0.533-0.371c-0.049-0.033-0.064-0.082-0.064-0.131c0-0.016,0.016-0.049,0.031-0.08l7.674-11.381
		c0.033-0.049,0.082-0.064,0.113-0.064c0.033,0,0.064,0.016,0.082,0.032l0.551,0.372c0.031,0.017,0.064,0.064,0.064,0.113
		c0,0.032-0.018,0.064-0.033,0.098L882.618,295.182z M889.822,295.393c-2.348,0-2.621-1.523-2.621-3.076
		c0-1.555,0.273-3.093,2.621-3.093s2.623,1.538,2.623,3.093C892.445,293.87,892.169,295.393,889.822,295.393z M889.822,290.146
		c-1.344,0-1.521,0.809-1.521,2.17c0,1.344,0.178,2.152,1.521,2.152s1.523-0.809,1.523-2.152
		C891.345,290.956,891.165,290.146,889.822,290.146z"/>
	<path fill="#12110C" d="M904.296,295.165c-0.471,0.098-1.248,0.229-2.105,0.229c-1.393,0-3.707-0.049-3.707-2.672
		c0-2.169,1.197-2.283,2.801-2.542l3.061-0.502v-0.761c0-0.518-0.018-0.938-0.584-1.149c-0.307-0.129-0.76-0.194-1.473-0.194
		c-1.246,0-2.332,0.308-2.996,0.47c-0.031,0-0.064,0.017-0.096,0.017c-0.064,0-0.131-0.033-0.162-0.13l-0.146-0.729v-0.032
		c0-0.13,0.113-0.179,0.162-0.194c0.518-0.194,1.91-0.502,3.385-0.502c1.148,0,1.893,0.162,2.363,0.421
		c0.824,0.438,0.842,1.198,0.842,1.959v4.647C905.64,294.631,905.413,294.891,904.296,295.165z M904.361,290.697l-2.979,0.502
		c-0.777,0.145-1.57,0.178-1.57,1.457c0,1.619,1.326,1.732,2.395,1.732c0.713,0,1.475-0.098,2.154-0.324V290.697z"/>
	<path fill="#12110C" d="M912.792,284.043c-0.016,0.13-0.096,0.179-0.227,0.179c-0.324-0.065-0.922-0.179-1.555-0.179
		c-0.436,0-0.775,0.049-1.002,0.227c-0.211,0.162-0.324,0.421-0.324,0.858v1.554h2.396c0.145,0,0.242,0.098,0.242,0.243v0.551
		c0,0.146-0.098,0.242-0.242,0.242h-2.396v7.22c0,0.146-0.082,0.244-0.227,0.244h-0.811c-0.145,0-0.242-0.098-0.242-0.244v-7.22
		h-1.264c-0.145,0-0.242-0.097-0.242-0.242v-0.551c0-0.146,0.098-0.243,0.242-0.243h1.264v-1.424c0-1.555,0.762-2.251,2.348-2.251
		c0.857,0,1.537,0.162,1.91,0.243c0.113,0.032,0.211,0.097,0.211,0.21v0.017L912.792,284.043z"/>
	<path fill="#12110C" d="M925.695,291.555c-0.016,0.08-0.129,0.211-0.209,0.211h-5.943c0,0.891,0.162,1.393,0.502,1.812
		c0.471,0.6,1.264,0.777,2.396,0.777c1.004,0,1.619-0.193,2.381-0.404c0.031-0.018,0.064-0.033,0.096-0.033
		c0.066,0,0.131,0.049,0.162,0.146l0.18,0.615v0.064c0,0.08-0.066,0.129-0.162,0.178c-0.648,0.26-1.717,0.471-2.785,0.471
		c-3.174,0-4.113-1.475-4.113-4.453c0-2.736,0.551-4.468,3.758-4.468c1.699,0,2.688,0.518,3.221,1.44
		c0.422,0.729,0.518,1.732,0.518,2.85V291.555z M924.157,288.868c-0.291-1.036-0.924-1.377-2.234-1.377
		c-1.295,0-1.926,0.341-2.201,1.377c-0.162,0.599-0.18,1.229-0.195,1.829l4.824-0.017
		C924.335,290.065,924.302,289.467,924.157,288.868z"/>
	<path fill="#12110C" d="M930.519,294.987c0,0.113-0.08,0.146-0.129,0.162c-0.129,0.064-0.566,0.195-1.15,0.195
		c-0.971,0-1.619-0.471-1.619-1.668v-10.249c0-0.129,0.082-0.178,0.195-0.194l0.875-0.227h0.047c0.113,0,0.162,0.113,0.162,0.211
		v10.425c0,0.584,0.406,0.664,0.729,0.664c0.227,0,0.486-0.031,0.566-0.064h0.082c0.049,0,0.098,0.016,0.113,0.113l0.113,0.566
		C930.503,294.956,930.519,294.971,930.519,294.987z"/>
	<path fill="#12110C" d="M939.034,291.555c-0.016,0.08-0.129,0.211-0.209,0.211h-5.943c0,0.891,0.162,1.393,0.502,1.812
		c0.471,0.6,1.264,0.777,2.396,0.777c1.004,0,1.619-0.193,2.381-0.404c0.031-0.018,0.064-0.033,0.096-0.033
		c0.066,0,0.131,0.049,0.162,0.146l0.18,0.615v0.064c0,0.08-0.066,0.129-0.162,0.178c-0.648,0.26-1.717,0.471-2.785,0.471
		c-3.174,0-4.113-1.475-4.113-4.453c0-2.736,0.551-4.468,3.758-4.468c1.699,0,2.688,0.518,3.221,1.44
		c0.422,0.729,0.518,1.732,0.518,2.85V291.555z M937.497,288.868c-0.291-1.036-0.924-1.377-2.234-1.377
		c-1.295,0-1.926,0.341-2.201,1.377c-0.162,0.599-0.18,1.229-0.195,1.829l4.824-0.017
		C937.675,290.065,937.642,289.467,937.497,288.868z"/>
	<path fill="#12110C" d="M945.202,294.922c-0.049,0.162-0.178,0.26-0.324,0.26h-1.699c-0.162,0-0.291-0.098-0.34-0.26l-2.688-7.949
		c-0.016-0.032-0.016-0.064-0.016-0.081c0-0.113,0.064-0.211,0.162-0.211h0.971c0.162,0,0.211,0.098,0.242,0.211l2.299,7.35h0.422
		l2.072-7.35c0.031-0.113,0.113-0.211,0.275-0.211h1.004c0.113,0,0.193,0.081,0.193,0.194v0.049L945.202,294.922z"/>
	<path fill="#12110C" d="M956.308,291.555c-0.016,0.08-0.129,0.211-0.209,0.211h-5.943c0,0.891,0.162,1.393,0.502,1.812
		c0.471,0.6,1.264,0.777,2.396,0.777c1.004,0,1.619-0.193,2.381-0.404c0.031-0.018,0.064-0.033,0.096-0.033
		c0.066,0,0.131,0.049,0.162,0.146l0.18,0.615v0.064c0,0.08-0.066,0.129-0.162,0.178c-0.648,0.26-1.717,0.471-2.785,0.471
		c-3.174,0-4.113-1.475-4.113-4.453c0-2.736,0.551-4.468,3.758-4.468c1.699,0,2.688,0.518,3.221,1.44
		c0.422,0.729,0.518,1.732,0.518,2.85V291.555z M954.771,288.868c-0.291-1.036-0.924-1.377-2.234-1.377
		c-1.295,0-1.926,0.341-2.201,1.377c-0.162,0.599-0.18,1.229-0.195,1.829l4.824-0.017
		C954.948,290.065,954.915,289.467,954.771,288.868z"/>
	<path fill="#12110C" d="M962.363,287.604c-1.068,0-1.941,0.081-2.85,0.308v7.026c0,0.146-0.08,0.244-0.227,0.244h-0.809
		c0,0-0.244-0.098-0.244-0.244v-6.75c0-0.712,0.146-0.923,0.697-1.182c0.713-0.324,2.17-0.534,2.947-0.534h0.404
		c0.08,0,0.227,0.032,0.227,0.243v0.696C962.509,287.524,962.476,287.604,962.363,287.604z"/>
	<path fill="#12110C" d="M970.603,295.182h-0.793c-0.145,0-0.242-0.098-0.242-0.244v-5.99c0-1.068-0.404-1.44-1.539-1.44
		c-1.506,0-3.027,0.453-3.027,0.453v6.977c0,0.146-0.08,0.244-0.227,0.244h-0.809c-0.146,0-0.244-0.098-0.244-0.244v-6.718
		c0-0.647,0.033-0.938,0.844-1.214c0.842-0.291,2.459-0.534,3.496-0.534c1.926,0,2.785,0.599,2.785,2.331v6.135
		C970.847,295.084,970.749,295.182,970.603,295.182z"/>
	<path fill="#12110C" d="M980.185,291.555c-0.016,0.08-0.129,0.211-0.209,0.211h-5.943c0,0.891,0.162,1.393,0.502,1.812
		c0.471,0.6,1.264,0.777,2.396,0.777c1.004,0,1.619-0.193,2.381-0.404c0.031-0.018,0.064-0.033,0.096-0.033
		c0.066,0,0.131,0.049,0.162,0.146l0.18,0.615v0.064c0,0.08-0.066,0.129-0.162,0.178c-0.648,0.26-1.717,0.471-2.785,0.471
		c-3.174,0-4.113-1.475-4.113-4.453c0-2.736,0.551-4.468,3.758-4.468c1.699,0,2.688,0.518,3.221,1.44
		c0.422,0.729,0.518,1.732,0.518,2.85V291.555z M978.648,288.868c-0.291-1.036-0.924-1.377-2.234-1.377
		c-1.295,0-1.926,0.341-2.201,1.377c-0.162,0.599-0.18,1.229-0.195,1.829l4.824-0.017
		C978.825,290.065,978.792,289.467,978.648,288.868z"/>
	<path fill="#12110C" d="M983.974,296.817c-0.033,0.162-0.049,0.211-0.244,0.211h-0.76c-0.098,0-0.211-0.018-0.211-0.162v-0.033
		l0.211-3.092c0.016-0.162,0.049-0.211,0.242-0.211h1.102c0.098,0,0.211,0.018,0.211,0.146v0.049L983.974,296.817z"/>
	<path fill="#12110C" d="M682.177,313.417c-0.518,0.129-1.199,0.324-2.477,0.324c-3.143,0-3.871-1.426-3.871-4.469
		c0-3.109,0.859-4.453,3.773-4.453c1.117,0,1.926,0.178,2.477,0.324l-0.162-0.939v-2.428c0-0.129,0.082-0.178,0.211-0.195
		l0.875-0.227h0.047c0.113,0,0.146,0.113,0.146,0.211v10.572C683.197,312.737,683.197,313.19,682.177,313.417z M681.917,306.131
		c0,0-1.02-0.293-2.186-0.293c-1.781,0-2.574,0.568-2.574,3.449c0,3.076,0.939,3.432,2.59,3.432c1.199,0,2.17-0.307,2.17-0.307
		V306.131z"/>
	<path fill="#12110C" d="M692.538,309.903c-0.016,0.08-0.131,0.211-0.211,0.211h-5.941c0,0.891,0.162,1.393,0.502,1.812
		c0.469,0.6,1.262,0.777,2.396,0.777c1.004,0,1.619-0.193,2.379-0.404c0.033-0.018,0.064-0.033,0.098-0.033
		c0.064,0,0.129,0.049,0.162,0.146l0.178,0.615v0.064c0,0.08-0.064,0.129-0.162,0.178c-0.646,0.26-1.717,0.471-2.785,0.471
		c-3.172,0-4.111-1.475-4.111-4.453c0-2.736,0.551-4.469,3.756-4.469c1.699,0,2.688,0.518,3.223,1.441
		c0.42,0.729,0.518,1.732,0.518,2.85V309.903z M690.999,307.215c-0.291-1.035-0.922-1.377-2.234-1.377
		c-1.295,0-1.926,0.342-2.201,1.377c-0.162,0.6-0.178,1.23-0.193,1.83l4.824-0.018C691.179,308.413,691.146,307.815,690.999,307.215
		z"/>
	<path fill="#12110C" d="M698.593,305.952c-1.068,0-1.943,0.082-2.85,0.309v7.025c0,0.146-0.082,0.244-0.227,0.244h-0.811
		c0,0-0.242-0.098-0.242-0.244v-6.75c0-0.713,0.146-0.924,0.695-1.182c0.713-0.324,2.17-0.535,2.947-0.535h0.404
		c0.082,0,0.227,0.033,0.227,0.244v0.695C698.738,305.872,698.706,305.952,698.593,305.952z"/>
	<path fill="#12110C" d="M711.915,313.383c0,0.082-0.08,0.146-0.16,0.146h-1.344c-0.066,0-0.098-0.033-0.131-0.082l-3.367-3.674
		h-0.664v3.512c0,0.146-0.08,0.244-0.227,0.244h-0.809c-0.146,0-0.244-0.098-0.244-0.244v-11.51c0-0.129,0.082-0.178,0.195-0.195
		l0.875-0.227h0.047c0.113,0,0.162,0.113,0.162,0.211v7.236h0.664l3.271-3.691c0.031-0.047,0.064-0.08,0.129-0.08l1.166,0.033
		c0.08,0,0.162,0.064,0.162,0.145c0,0.033-0.018,0.064-0.033,0.082l-3.562,3.9l3.838,4.113
		C711.9,313.319,711.915,313.352,711.915,313.383z"/>
	<path fill="#12110C" d="M716.482,313.741c-3.385,0-3.789-2.025-3.789-4.453c0-2.445,0.404-4.469,3.789-4.469
		c3.398,0,3.787,2.023,3.787,4.469C720.269,311.715,719.88,313.741,716.482,313.741z M716.482,305.856
		c-2.348,0-2.445,1.375-2.445,3.432c0,2.039,0.098,3.416,2.445,3.416s2.443-1.377,2.443-3.416
		C718.925,307.231,718.829,305.856,716.482,305.856z"/>
	<path fill="#12110C" d="M734.839,313.53h-0.793c-0.162,0-0.26-0.098-0.26-0.244v-5.99c0-1.068-0.389-1.439-1.521-1.439
		c-1.506,0-3.043,0.453-3.043,0.453v6.977c0,0.162-0.064,0.244-0.227,0.244h-0.793c-0.146,0-0.244-0.098-0.244-0.244v-5.99
		c0-1.068-0.404-1.439-1.537-1.439c-1.506,0-3.027,0.453-3.027,0.453v6.977c0,0.146-0.082,0.244-0.227,0.244h-0.811
		c-0.145,0-0.242-0.098-0.242-0.244v-6.719c0-0.646,0.033-0.938,0.842-1.213c0.842-0.291,2.461-0.535,3.496-0.535
		c1.021,0,1.75,0.195,2.203,0.615c0.906-0.355,2.654-0.615,3.643-0.615c1.926,0,2.785,0.6,2.785,2.332v6.135
		C735.083,313.432,734.986,313.53,734.839,313.53z"/>
	<path fill="#12110C" d="M747.159,302.391c-0.016,0.129-0.096,0.178-0.227,0.178c-0.324-0.064-0.922-0.178-1.555-0.178
		c-0.436,0-0.775,0.049-1.002,0.227c-0.211,0.162-0.324,0.42-0.324,0.857v1.555h2.396c0.145,0,0.242,0.098,0.242,0.242v0.551
		c0,0.146-0.098,0.242-0.242,0.242h-2.396v7.221c0,0.146-0.082,0.244-0.227,0.244h-0.811c-0.145,0-0.242-0.098-0.242-0.244v-7.221
		h-1.264c-0.145,0-0.242-0.096-0.242-0.242v-0.551c0-0.145,0.098-0.242,0.242-0.242h1.264v-1.424c0-1.555,0.762-2.252,2.348-2.252
		c0.857,0,1.537,0.162,1.91,0.244c0.113,0.031,0.211,0.096,0.211,0.209v0.018L747.159,302.391z"/>
	<path fill="#12110C" d="M751.853,305.952c-1.068,0-1.943,0.082-2.85,0.309v7.025c0,0.146-0.082,0.244-0.227,0.244h-0.811
		c0,0-0.242-0.098-0.242-0.244v-6.75c0-0.713,0.146-0.924,0.695-1.182c0.713-0.324,2.17-0.535,2.947-0.535h0.404
		c0.082,0,0.227,0.033,0.227,0.244v0.695C751.997,305.872,751.966,305.952,751.853,305.952z"/>
	<path fill="#12110C" d="M758.441,313.512c-0.469,0.098-1.246,0.229-2.104,0.229c-1.393,0-3.709-0.049-3.709-2.672
		c0-2.17,1.199-2.283,2.801-2.543l3.061-0.502v-0.76c0-0.518-0.016-0.939-0.582-1.15c-0.309-0.129-0.762-0.193-1.475-0.193
		c-1.246,0-2.33,0.307-2.994,0.469c-0.033,0-0.064,0.018-0.098,0.018c-0.064,0-0.129-0.033-0.162-0.131l-0.145-0.729v-0.031
		c0-0.131,0.113-0.18,0.162-0.195c0.518-0.193,1.91-0.502,3.383-0.502c1.15,0,1.895,0.162,2.363,0.422
		c0.826,0.438,0.842,1.197,0.842,1.959v4.646C759.784,312.979,759.558,313.239,758.441,313.512z M758.505,309.045l-2.979,0.502
		c-0.777,0.145-1.57,0.178-1.57,1.457c0,1.619,1.328,1.732,2.396,1.732c0.713,0,1.473-0.098,2.152-0.324V309.045z"/>
	<path fill="#12110C" d="M775.132,305.694c0,0.031-0.033,0.049-0.082,0.098c-0.355,0.242-0.76,0.34-1.148,0.34
		c-0.26,0-0.275-0.018-0.648-0.082c0,0,0.697,0.584,0.697,1.732c0,2.299-1.426,2.963-3.562,2.963h-1.197
		c-0.842,0-1.037,0.422-1.037,0.842c0,0.68,0.471,0.857,1.182,0.857h2.445c1.555,0,2.654,0.471,2.654,1.91
		c0,2.008-1.617,2.672-3.934,2.672c-2.688,0-3.918-0.533-3.918-2.17c0-1.262,0.859-1.504,1.652-1.666v-0.18
		c-0.729-0.16-1.361-0.242-1.361-1.391c0-0.988,0.535-1.23,1.781-1.426c-0.76-0.242-1.828-0.453-1.828-2.412
		c0-2.217,1.457-2.963,3.545-2.963c1.004,0,1.408,0.162,2.023,0.34c0.178,0.033,0.373,0.064,0.6,0.064
		c0.242,0,0.518-0.047,0.744-0.113c0.291-0.08,0.615-0.227,0.842-0.34c0.049-0.016,0.098-0.049,0.129-0.049
		c0.033,0,0.066,0.033,0.082,0.098l0.307,0.811C775.116,305.661,775.132,305.678,775.132,305.694z M771.634,313.53h-2.186
		c-0.824,0-1.586,0.258-1.586,1.23c0,1.117,1.166,1.262,2.656,1.262c1.002,0,2.639-0.145,2.639-1.473
		C773.157,313.61,772.347,313.53,771.634,313.53z M770.388,305.792c-1.408,0-2.283,0.484-2.283,1.99c0,1.49,0.875,1.959,2.283,1.959
		c1.393,0,2.283-0.469,2.283-1.959C772.671,306.276,771.781,305.792,770.388,305.792z"/>
	<path fill="#12110C" d="M780.103,314.776c-0.471,1.506-0.955,2.152-2.688,2.152c-0.52,0-0.826-0.016-1.135-0.064
		c-0.145-0.031-0.178-0.113-0.178-0.178v-0.713c0-0.08,0.082-0.16,0.178-0.16h0.018c0.162,0,0.615,0.016,0.939,0.016
		c0.824,0,1.295-0.162,1.553-1.068l0.373-1.23h-0.664c-0.146,0-0.275-0.098-0.324-0.26l-2.703-7.98c0-0.033-0.016-0.049-0.016-0.066
		c0-0.096,0.096-0.193,0.193-0.193h0.955c0.162,0,0.211,0.098,0.244,0.211l2.299,7.35h0.42l2.072-7.35
		c0.016-0.113,0.113-0.211,0.26-0.211h1.02c0.098,0,0.193,0.08,0.193,0.193c0,0.018,0,0.033-0.016,0.049L780.103,314.776z"/>
	<path fill="#12110C" d="M797.15,313.53h-0.793c-0.162,0-0.26-0.098-0.26-0.244v-5.99c0-1.068-0.389-1.439-1.521-1.439
		c-1.506,0-3.043,0.453-3.043,0.453v6.977c0,0.162-0.064,0.244-0.227,0.244h-0.793c-0.146,0-0.244-0.098-0.244-0.244v-5.99
		c0-1.068-0.404-1.439-1.537-1.439c-1.506,0-3.027,0.453-3.027,0.453v6.977c0,0.146-0.082,0.244-0.227,0.244h-0.811
		c-0.145,0-0.242-0.098-0.242-0.244v-6.719c0-0.646,0.033-0.938,0.842-1.213c0.842-0.291,2.461-0.535,3.496-0.535
		c1.021,0,1.75,0.195,2.203,0.615c0.906-0.355,2.654-0.615,3.643-0.615c1.926,0,2.785,0.6,2.785,2.332v6.135
		C797.394,313.432,797.296,313.53,797.15,313.53z"/>
	<path fill="#12110C" d="M806.443,313.53h-0.793c-0.145,0-0.242-0.098-0.242-0.244v-5.99c0-1.068-0.404-1.439-1.539-1.439
		c-1.506,0-3.027,0.453-3.027,0.453v6.977c0,0.146-0.08,0.244-0.227,0.244h-0.809c-0.146,0-0.244-0.098-0.244-0.244v-6.719
		c0-0.646,0.033-0.938,0.844-1.213c0.842-0.291,2.459-0.535,3.496-0.535c1.926,0,2.785,0.6,2.785,2.332v6.135
		C806.687,313.432,806.589,313.53,806.443,313.53z"/>
	<path fill="#12110C" d="M814.263,313.512c-0.471,0.098-1.248,0.229-2.105,0.229c-1.393,0-3.707-0.049-3.707-2.672
		c0-2.17,1.197-2.283,2.801-2.543l3.061-0.502v-0.76c0-0.518-0.018-0.939-0.584-1.15c-0.307-0.129-0.76-0.193-1.473-0.193
		c-1.246,0-2.332,0.307-2.996,0.469c-0.031,0-0.064,0.018-0.096,0.018c-0.064,0-0.131-0.033-0.162-0.131l-0.146-0.729v-0.031
		c0-0.131,0.113-0.18,0.162-0.195c0.518-0.193,1.91-0.502,3.385-0.502c1.148,0,1.893,0.162,2.363,0.422
		c0.824,0.438,0.842,1.197,0.842,1.959v4.646C815.607,312.979,815.38,313.239,814.263,313.512z M814.327,309.045l-2.979,0.502
		c-0.777,0.145-1.57,0.178-1.57,1.457c0,1.619,1.326,1.732,2.395,1.732c0.713,0,1.475-0.098,2.154-0.324V309.045z"/>
	<path fill="#12110C" d="M820.382,313.741c-1.426,0-2.656-0.471-2.865-0.551c-0.066-0.033-0.131-0.064-0.131-0.162v-0.049
		l0.162-0.631c0.016-0.082,0.064-0.146,0.178-0.146h0.082c0.129,0.049,1.279,0.469,2.605,0.469c1.377,0,2.17-0.436,2.17-1.424
		c0-1.344-1.035-1.295-2.299-1.49c-0.793-0.129-2.816-0.275-2.816-2.412c0-2.088,1.861-2.525,3.285-2.525
		c1.393,0,2.461,0.291,2.641,0.34c0.113,0.018,0.16,0.098,0.16,0.178v0.033l-0.113,0.713c-0.016,0.098-0.08,0.129-0.145,0.129
		h-0.033c-0.227-0.016-1.424-0.307-2.379-0.307c-1.166,0-2.137,0.322-2.137,1.344c0,1.1,1.1,1.23,2.104,1.359
		c1.457,0.193,3.027,0.307,3.027,2.51C823.878,313.221,822.259,313.741,820.382,313.741z"/>
	<path fill="#12110C" d="M826.921,303.573h-0.793c-0.145,0-0.242-0.098-0.242-0.227v-1.748c0-0.146,0.098-0.244,0.242-0.244h0.793
		c0.146,0,0.244,0.098,0.244,0.244v1.748C827.165,303.475,827.068,303.573,826.921,303.573z M826.921,313.53h-0.793
		c-0.145,0-0.242-0.098-0.242-0.244v-8.014c0-0.145,0.098-0.242,0.242-0.242h0.793c0.146,0,0.244,0.098,0.244,0.242v8.014
		C827.165,313.432,827.068,313.53,826.921,313.53z"/>
	<path fill="#12110C" d="M836.749,309.903c-0.016,0.08-0.131,0.211-0.211,0.211h-5.941c0,0.891,0.162,1.393,0.502,1.812
		c0.469,0.6,1.262,0.777,2.396,0.777c1.004,0,1.619-0.193,2.379-0.404c0.033-0.018,0.064-0.033,0.098-0.033
		c0.064,0,0.129,0.049,0.162,0.146l0.178,0.615v0.064c0,0.08-0.064,0.129-0.162,0.178c-0.646,0.26-1.717,0.471-2.785,0.471
		c-3.172,0-4.111-1.475-4.111-4.453c0-2.736,0.551-4.469,3.756-4.469c1.699,0,2.688,0.518,3.223,1.441
		c0.42,0.729,0.518,1.732,0.518,2.85V309.903z M835.21,307.215c-0.291-1.035-0.922-1.377-2.234-1.377
		c-1.295,0-1.926,0.342-2.201,1.377c-0.162,0.6-0.178,1.23-0.193,1.83l4.824-0.018C835.39,308.413,835.357,307.815,835.21,307.215z"
		/>
	<path fill="#12110C" d="M843.564,302.391c-0.016,0.129-0.096,0.178-0.227,0.178c-0.324-0.064-0.922-0.178-1.555-0.178
		c-0.436,0-0.775,0.049-1.002,0.227c-0.211,0.162-0.324,0.42-0.324,0.857v1.555h2.396c0.145,0,0.242,0.098,0.242,0.242v0.551
		c0,0.146-0.098,0.242-0.242,0.242h-2.396v7.221c0,0.146-0.082,0.244-0.227,0.244h-0.811c-0.145,0-0.242-0.098-0.242-0.244v-7.221
		h-1.264c-0.145,0-0.242-0.096-0.242-0.242v-0.551c0-0.145,0.098-0.242,0.242-0.242h1.264v-1.424c0-1.555,0.762-2.252,2.348-2.252
		c0.857,0,1.537,0.162,1.91,0.244c0.113,0.031,0.211,0.096,0.211,0.209v0.018L843.564,302.391z"/>
	<path fill="#12110C" d="M848.257,305.952c-1.068,0-1.943,0.082-2.85,0.309v7.025c0,0.146-0.082,0.244-0.227,0.244h-0.811
		c0,0-0.242-0.098-0.242-0.244v-6.75c0-0.713,0.146-0.924,0.695-1.182c0.713-0.324,2.17-0.535,2.947-0.535h0.404
		c0.082,0,0.227,0.033,0.227,0.244v0.695C848.402,305.872,848.37,305.952,848.257,305.952z"/>
	<path fill="#12110C" d="M856.609,309.903c-0.016,0.08-0.131,0.211-0.211,0.211h-5.941c0,0.891,0.162,1.393,0.502,1.812
		c0.469,0.6,1.262,0.777,2.396,0.777c1.004,0,1.619-0.193,2.379-0.404c0.033-0.018,0.064-0.033,0.098-0.033
		c0.064,0,0.129,0.049,0.162,0.146l0.178,0.615v0.064c0,0.08-0.064,0.129-0.162,0.178c-0.646,0.26-1.717,0.471-2.785,0.471
		c-3.172,0-4.111-1.475-4.111-4.453c0-2.736,0.551-4.469,3.756-4.469c1.699,0,2.688,0.518,3.223,1.441
		c0.42,0.729,0.518,1.732,0.518,2.85V309.903z M855.07,307.215c-0.291-1.035-0.922-1.377-2.234-1.377
		c-1.295,0-1.926,0.342-2.201,1.377c-0.162,0.6-0.178,1.23-0.193,1.83l4.824-0.018C855.249,308.413,855.216,307.815,855.07,307.215z
		"/>
	<path fill="#12110C" d="M871.259,313.53h-0.793c-0.162,0-0.26-0.098-0.26-0.244v-5.99c0-1.068-0.389-1.439-1.521-1.439
		c-1.506,0-3.043,0.453-3.043,0.453v6.977c0,0.162-0.064,0.244-0.227,0.244h-0.793c-0.146,0-0.244-0.098-0.244-0.244v-5.99
		c0-1.068-0.404-1.439-1.537-1.439c-1.506,0-3.027,0.453-3.027,0.453v6.977c0,0.146-0.082,0.244-0.227,0.244h-0.811
		c-0.145,0-0.242-0.098-0.242-0.244v-6.719c0-0.646,0.033-0.938,0.842-1.213c0.842-0.291,2.461-0.535,3.496-0.535
		c1.021,0,1.75,0.195,2.203,0.615c0.906-0.355,2.654-0.615,3.643-0.615c1.926,0,2.785,0.6,2.785,2.332v6.135
		C871.503,313.432,871.406,313.53,871.259,313.53z"/>
	<path fill="#12110C" d="M886.398,313.53h-0.793c-0.162,0-0.26-0.098-0.26-0.244v-5.99c0-1.068-0.389-1.439-1.521-1.439
		c-1.506,0-3.045,0.453-3.045,0.453v6.977c0,0.162-0.064,0.244-0.227,0.244h-0.793c-0.145,0-0.242-0.098-0.242-0.244v-5.99
		c0-1.068-0.404-1.439-1.539-1.439c-1.506,0-3.027,0.453-3.027,0.453v6.977c0,0.146-0.08,0.244-0.227,0.244h-0.809
		c-0.146,0-0.244-0.098-0.244-0.244v-6.719c0-0.646,0.033-0.938,0.844-1.213c0.842-0.291,2.459-0.535,3.496-0.535
		c1.02,0,1.748,0.195,2.201,0.615c0.906-0.355,2.656-0.615,3.643-0.615c1.928,0,2.785,0.6,2.785,2.332v6.135
		C886.64,313.432,886.542,313.53,886.398,313.53z"/>
	<path fill="#12110C" d="M895.964,309.903c-0.016,0.08-0.131,0.211-0.211,0.211h-5.941c0,0.891,0.162,1.393,0.502,1.812
		c0.469,0.6,1.262,0.777,2.396,0.777c1.004,0,1.619-0.193,2.379-0.404c0.033-0.018,0.064-0.033,0.098-0.033
		c0.064,0,0.129,0.049,0.162,0.146l0.178,0.615v0.064c0,0.08-0.064,0.129-0.162,0.178c-0.646,0.26-1.717,0.471-2.785,0.471
		c-3.172,0-4.111-1.475-4.111-4.453c0-2.736,0.551-4.469,3.756-4.469c1.699,0,2.688,0.518,3.223,1.441
		c0.42,0.729,0.518,1.732,0.518,2.85V309.903z M894.425,307.215c-0.291-1.035-0.922-1.377-2.234-1.377
		c-1.295,0-1.926,0.342-2.201,1.377c-0.162,0.6-0.178,1.23-0.193,1.83l4.824-0.018C894.605,308.413,894.572,307.815,894.425,307.215
		z"/>
	<path fill="#12110C" d="M903.816,313.417c-0.518,0.129-1.199,0.324-2.477,0.324c-3.143,0-3.871-1.426-3.871-4.469
		c0-3.109,0.859-4.453,3.773-4.453c1.117,0,1.926,0.178,2.477,0.324l-0.162-0.939v-2.428c0-0.129,0.082-0.178,0.211-0.195
		l0.875-0.227h0.047c0.113,0,0.146,0.113,0.146,0.211v10.572C904.835,312.737,904.835,313.19,903.816,313.417z M903.556,306.131
		c0,0-1.02-0.293-2.186-0.293c-1.781,0-2.574,0.568-2.574,3.449c0,3.076,0.939,3.432,2.59,3.432c1.199,0,2.17-0.307,2.17-0.307
		V306.131z"/>
	<path fill="#12110C" d="M914.177,309.903c-0.016,0.08-0.131,0.211-0.211,0.211h-5.941c0,0.891,0.162,1.393,0.502,1.812
		c0.469,0.6,1.262,0.777,2.396,0.777c1.004,0,1.619-0.193,2.379-0.404c0.033-0.018,0.064-0.033,0.098-0.033
		c0.064,0,0.129,0.049,0.162,0.146l0.178,0.615v0.064c0,0.08-0.064,0.129-0.162,0.178c-0.646,0.26-1.717,0.471-2.785,0.471
		c-3.172,0-4.111-1.475-4.111-4.453c0-2.736,0.551-4.469,3.756-4.469c1.699,0,2.688,0.518,3.223,1.441
		c0.42,0.729,0.518,1.732,0.518,2.85V309.903z M912.638,307.215c-0.291-1.035-0.922-1.377-2.234-1.377
		c-1.295,0-1.926,0.342-2.201,1.377c-0.162,0.6-0.178,1.23-0.193,1.83l4.824-0.018C912.818,308.413,912.784,307.815,912.638,307.215
		z"/>
	<path fill="#12110C" d="M928.001,313.53h-0.793c-0.145,0-0.242-0.098-0.242-0.244v-5.99c0-1.068-0.404-1.439-1.539-1.439
		c-1.506,0-3.027,0.453-3.027,0.453v6.977c0,0.146-0.08,0.244-0.227,0.244h-0.809c-0.146,0-0.244-0.098-0.244-0.244v-11.51
		c0-0.129,0.082-0.178,0.195-0.195l0.875-0.227h0.047c0.113,0,0.162,0.113,0.162,0.211v2.801l-0.162,0.939
		c0.891-0.26,2.283-0.486,3.223-0.486c1.926,0,2.785,0.6,2.785,2.332v6.135C928.245,313.432,928.163,313.53,928.001,313.53z"/>
	<path fill="#12110C" d="M929.409,316.928c-0.646,0-0.695-0.016-0.906-0.047c-0.064,0-0.26-0.033-0.26-0.211v-0.535
		c0-0.227,0.131-0.258,0.211-0.258c0,0,0.324,0.016,0.631,0.016c1.053,0,1.506-0.178,1.506-1.215v-9.406
		c0-0.145,0.113-0.242,0.244-0.242h0.809c0.146,0,0.227,0.098,0.227,0.242v9.488C931.87,316.346,931.029,316.928,929.409,316.928z
		 M931.644,303.573h-0.809c-0.146,0-0.244-0.098-0.244-0.227v-1.748c0-0.146,0.098-0.244,0.244-0.244h0.809
		c0.146,0,0.227,0.098,0.227,0.244v1.748C931.87,303.475,931.79,303.573,931.644,303.573z"/>
	<path fill="#12110C" d="M941.374,309.903c-0.016,0.08-0.131,0.211-0.211,0.211h-5.941c0,0.891,0.162,1.393,0.502,1.812
		c0.469,0.6,1.262,0.777,2.396,0.777c1.004,0,1.619-0.193,2.379-0.404c0.033-0.018,0.064-0.033,0.098-0.033
		c0.064,0,0.129,0.049,0.162,0.146l0.178,0.615v0.064c0,0.08-0.064,0.129-0.162,0.178c-0.646,0.26-1.717,0.471-2.785,0.471
		c-3.172,0-4.111-1.475-4.111-4.453c0-2.736,0.551-4.469,3.756-4.469c1.699,0,2.688,0.518,3.223,1.441
		c0.42,0.729,0.518,1.732,0.518,2.85V309.903z M939.835,307.215c-0.291-1.035-0.922-1.377-2.234-1.377
		c-1.295,0-1.926,0.342-2.201,1.377c-0.162,0.6-0.178,1.23-0.193,1.83l4.824-0.018C940.015,308.413,939.982,307.815,939.835,307.215
		z"/>
	<path fill="#12110C" d="M956.025,313.53h-0.793c-0.162,0-0.26-0.098-0.26-0.244v-5.99c0-1.068-0.389-1.439-1.521-1.439
		c-1.506,0-3.043,0.453-3.043,0.453v6.977c0,0.162-0.064,0.244-0.227,0.244h-0.793c-0.146,0-0.244-0.098-0.244-0.244v-5.99
		c0-1.068-0.404-1.439-1.537-1.439c-1.506,0-3.027,0.453-3.027,0.453v6.977c0,0.146-0.082,0.244-0.227,0.244h-0.811
		c-0.145,0-0.242-0.098-0.242-0.244v-6.719c0-0.646,0.033-0.938,0.842-1.213c0.842-0.291,2.461-0.535,3.496-0.535
		c1.021,0,1.75,0.195,2.203,0.615c0.906-0.355,2.654-0.615,3.643-0.615c1.926,0,2.785,0.6,2.785,2.332v6.135
		C956.269,313.432,956.171,313.53,956.025,313.53z"/>
	<path fill="#12110C" d="M960.671,313.53h-1.408c-0.145,0-0.242-0.098-0.242-0.244v-1.035c0-0.146,0.098-0.242,0.242-0.242h1.408
		c0.146,0,0.244,0.096,0.244,0.242v1.035C960.915,313.432,960.818,313.53,960.671,313.53z"/>
	<path fill="#12110C" d="M686.175,331.877h-0.857c-0.146,0-0.26-0.113-0.26-0.258v-5.311h-7.107v5.311
		c0,0.145-0.113,0.258-0.258,0.258h-0.859c-0.145,0-0.258-0.113-0.258-0.258v-11.543c0-0.131,0.08-0.18,0.193-0.211l0.973-0.162
		h0.047c0.113,0,0.162,0.113,0.162,0.211v5.131h7.107v-4.969c0-0.131,0.082-0.18,0.195-0.211l0.971-0.162h0.049
		c0.113,0,0.162,0.113,0.162,0.211v11.705C686.435,331.764,686.322,331.877,686.175,331.877z"/>
	<path fill="#12110C" d="M696.099,328.25c-0.016,0.082-0.129,0.211-0.209,0.211h-5.943c0,0.891,0.162,1.393,0.502,1.814
		c0.471,0.598,1.264,0.777,2.396,0.777c1.004,0,1.619-0.195,2.381-0.406c0.031-0.016,0.064-0.031,0.096-0.031
		c0.066,0,0.131,0.049,0.162,0.145l0.18,0.615v0.064c0,0.082-0.066,0.131-0.162,0.18c-0.648,0.258-1.717,0.469-2.785,0.469
		c-3.174,0-4.113-1.473-4.113-4.451c0-2.736,0.551-4.469,3.758-4.469c1.699,0,2.688,0.518,3.221,1.439
		c0.422,0.729,0.518,1.732,0.518,2.85V328.25z M694.562,325.565c-0.291-1.037-0.924-1.377-2.234-1.377
		c-1.295,0-1.926,0.34-2.201,1.377c-0.162,0.598-0.18,1.229-0.195,1.828l4.824-0.016
		C694.74,326.762,694.706,326.163,694.562,325.565z"/>
	<path fill="#12110C" d="M702.154,324.301c-1.068,0-1.941,0.08-2.85,0.307v7.027c0,0.146-0.08,0.242-0.227,0.242h-0.809
		c0,0-0.244-0.096-0.244-0.242v-6.752c0-0.711,0.146-0.922,0.697-1.182c0.713-0.324,2.17-0.533,2.947-0.533h0.404
		c0.08,0,0.227,0.031,0.227,0.242v0.695C702.3,324.221,702.267,324.301,702.154,324.301z"/>
	<path fill="#12110C" d="M708.743,331.862c-0.471,0.098-1.248,0.227-2.105,0.227c-1.393,0-3.707-0.049-3.707-2.672
		c0-2.168,1.197-2.281,2.801-2.541l3.061-0.502v-0.762c0-0.518-0.018-0.938-0.584-1.148c-0.307-0.129-0.76-0.195-1.473-0.195
		c-1.246,0-2.332,0.309-2.996,0.471c-0.031,0-0.064,0.016-0.096,0.016c-0.064,0-0.131-0.033-0.162-0.129l-0.146-0.729v-0.033
		c0-0.129,0.113-0.178,0.162-0.193c0.518-0.195,1.91-0.502,3.385-0.502c1.148,0,1.893,0.162,2.363,0.42
		c0.824,0.438,0.842,1.199,0.842,1.959v4.646C710.087,331.327,709.861,331.586,708.743,331.862z M708.808,327.393l-2.979,0.502
		c-0.777,0.146-1.57,0.178-1.57,1.457c0,1.619,1.326,1.732,2.395,1.732c0.713,0,1.475-0.098,2.154-0.324V327.393z"/>
	<path fill="#12110C" d="M717.24,320.739c-0.016,0.131-0.096,0.18-0.227,0.18c-0.324-0.066-0.922-0.18-1.555-0.18
		c-0.436,0-0.775,0.049-1.002,0.227c-0.211,0.162-0.324,0.422-0.324,0.859v1.553h2.396c0.145,0,0.242,0.098,0.242,0.244v0.551
		c0,0.145-0.098,0.242-0.242,0.242h-2.396v7.221c0,0.146-0.082,0.242-0.227,0.242h-0.811c-0.145,0-0.242-0.096-0.242-0.242v-7.221
		h-1.264c-0.145,0-0.242-0.098-0.242-0.242v-0.551c0-0.146,0.098-0.244,0.242-0.244h1.264v-1.424c0-1.555,0.762-2.25,2.348-2.25
		c0.857,0,1.537,0.162,1.91,0.242c0.113,0.033,0.211,0.098,0.211,0.211v0.016L717.24,320.739z"/>
	<path fill="#12110C" d="M729.948,331.877h-0.793c-0.146,0-0.244-0.096-0.244-0.242v-5.99c0-1.068-0.404-1.441-1.537-1.441
		c-1.506,0-3.027,0.453-3.027,0.453v6.979c0,0.146-0.082,0.242-0.227,0.242h-0.811c-0.145,0-0.242-0.096-0.242-0.242v-11.512
		c0-0.129,0.08-0.178,0.193-0.193l0.875-0.227h0.049c0.113,0,0.162,0.113,0.162,0.211v2.801l-0.162,0.938
		c0.891-0.258,2.283-0.484,3.221-0.484c1.928,0,2.785,0.598,2.785,2.33v6.137C730.191,331.782,730.111,331.877,729.948,331.877z"/>
	<path fill="#12110C" d="M737.767,331.862c-0.469,0.098-1.246,0.227-2.104,0.227c-1.393,0-3.709-0.049-3.709-2.672
		c0-2.168,1.199-2.281,2.801-2.541l3.061-0.502v-0.762c0-0.518-0.016-0.938-0.582-1.148c-0.309-0.129-0.762-0.195-1.475-0.195
		c-1.246,0-2.33,0.309-2.994,0.471c-0.033,0-0.064,0.016-0.098,0.016c-0.064,0-0.129-0.033-0.162-0.129l-0.145-0.729v-0.033
		c0-0.129,0.113-0.178,0.162-0.193c0.518-0.195,1.91-0.502,3.383-0.502c1.15,0,1.895,0.162,2.363,0.42
		c0.826,0.438,0.842,1.199,0.842,1.959v4.646C739.111,331.327,738.884,331.586,737.767,331.862z M737.831,327.393l-2.979,0.502
		c-0.777,0.146-1.57,0.178-1.57,1.457c0,1.619,1.328,1.732,2.396,1.732c0.713,0,1.473-0.098,2.152-0.324V327.393z"/>
	<path fill="#12110C" d="M745.376,331.62c-0.049,0.162-0.178,0.258-0.324,0.258h-1.699c-0.162,0-0.293-0.096-0.34-0.258
		l-2.688-7.949c-0.018-0.033-0.018-0.064-0.018-0.082c0-0.113,0.064-0.211,0.162-0.211h0.971c0.162,0,0.211,0.098,0.244,0.211
		l2.299,7.35h0.42l2.072-7.35c0.033-0.113,0.113-0.211,0.275-0.211h1.004c0.113,0,0.195,0.082,0.195,0.195v0.049L745.376,331.62z"/>
	<path fill="#12110C" d="M755.331,331.764c-0.518,0.131-1.197,0.324-2.477,0.324c-3.141,0-3.869-1.424-3.869-4.469
		c0-3.107,0.857-4.451,3.771-4.451c1.117,0,1.928,0.178,2.479,0.324l-0.162-0.939v-2.43c0-0.129,0.08-0.178,0.209-0.193l0.875-0.227
		h0.049c0.113,0,0.145,0.113,0.145,0.211v10.57C756.351,331.084,756.351,331.538,755.331,331.764z M755.073,324.479
		c0,0-1.021-0.291-2.186-0.291c-1.781,0-2.574,0.566-2.574,3.449c0,3.074,0.938,3.432,2.59,3.432c1.197,0,2.17-0.309,2.17-0.309
		V324.479z"/>
	<path fill="#12110C" d="M765.693,328.25c-0.016,0.082-0.129,0.211-0.209,0.211h-5.943c0,0.891,0.162,1.393,0.502,1.814
		c0.471,0.598,1.264,0.777,2.396,0.777c1.004,0,1.619-0.195,2.381-0.406c0.031-0.016,0.064-0.031,0.096-0.031
		c0.066,0,0.131,0.049,0.162,0.145l0.18,0.615v0.064c0,0.082-0.066,0.131-0.162,0.18c-0.648,0.258-1.717,0.469-2.785,0.469
		c-3.174,0-4.113-1.473-4.113-4.451c0-2.736,0.551-4.469,3.758-4.469c1.699,0,2.688,0.518,3.221,1.439
		c0.422,0.729,0.518,1.732,0.518,2.85V328.25z M764.156,325.565c-0.291-1.037-0.924-1.377-2.234-1.377
		c-1.295,0-1.926,0.34-2.201,1.377c-0.162,0.598-0.18,1.229-0.195,1.828l4.824-0.016C764.333,326.762,764.3,326.163,764.156,325.565
		z"/>
	<path fill="#12110C" d="M779.519,331.877h-0.793c-0.146,0-0.244-0.096-0.244-0.242v-5.99c0-1.068-0.404-1.441-1.537-1.441
		c-1.506,0-3.027,0.453-3.027,0.453v6.979c0,0.146-0.082,0.242-0.227,0.242h-0.811c-0.145,0-0.242-0.096-0.242-0.242v-11.512
		c0-0.129,0.08-0.178,0.193-0.193l0.875-0.227h0.049c0.113,0,0.162,0.113,0.162,0.211v2.801l-0.162,0.938
		c0.891-0.258,2.283-0.484,3.221-0.484c1.928,0,2.785,0.598,2.785,2.33v6.137C779.761,331.782,779.681,331.877,779.519,331.877z"/>
	<path fill="#12110C" d="M787.337,331.862c-0.469,0.098-1.246,0.227-2.104,0.227c-1.393,0-3.709-0.049-3.709-2.672
		c0-2.168,1.199-2.281,2.801-2.541l3.061-0.502v-0.762c0-0.518-0.016-0.938-0.582-1.148c-0.309-0.129-0.762-0.195-1.475-0.195
		c-1.246,0-2.33,0.309-2.994,0.471c-0.033,0-0.064,0.016-0.098,0.016c-0.064,0-0.129-0.033-0.162-0.129l-0.145-0.729v-0.033
		c0-0.129,0.113-0.178,0.162-0.193c0.518-0.195,1.91-0.502,3.383-0.502c1.15,0,1.895,0.162,2.363,0.42
		c0.826,0.438,0.842,1.199,0.842,1.959v4.646C788.681,331.327,788.454,331.586,787.337,331.862z M787.402,327.393l-2.979,0.502
		c-0.777,0.146-1.57,0.178-1.57,1.457c0,1.619,1.328,1.732,2.396,1.732c0.713,0,1.473-0.098,2.152-0.324V327.393z"/>
	<path fill="#12110C" d="M793.765,331.684c0,0.113-0.082,0.145-0.131,0.162c-0.129,0.064-0.566,0.193-1.148,0.193
		c-0.971,0-1.619-0.469-1.619-1.668v-10.248c0-0.129,0.08-0.178,0.193-0.193l0.875-0.227h0.049c0.113,0,0.162,0.113,0.162,0.211
		v10.426c0,0.582,0.404,0.664,0.729,0.664c0.227,0,0.486-0.033,0.566-0.066h0.08c0.049,0,0.098,0.018,0.113,0.115l0.113,0.566
		C793.747,331.651,793.765,331.667,793.765,331.684z"/>
	<path fill="#12110C" d="M799.447,331.62c-0.049,0.162-0.178,0.258-0.324,0.258h-1.699c-0.162,0-0.291-0.096-0.34-0.258
		l-2.688-7.949c-0.016-0.033-0.016-0.064-0.016-0.082c0-0.113,0.064-0.211,0.162-0.211h0.971c0.162,0,0.211,0.098,0.242,0.211
		l2.299,7.35h0.422l2.072-7.35c0.031-0.113,0.113-0.211,0.275-0.211h1.004c0.113,0,0.193,0.082,0.193,0.195v0.049L799.447,331.62z"
		/>
	<path fill="#12110C" d="M809.404,331.764c-0.518,0.131-1.199,0.324-2.477,0.324c-3.143,0-3.871-1.424-3.871-4.469
		c0-3.107,0.859-4.451,3.773-4.451c1.117,0,1.926,0.178,2.477,0.324l-0.162-0.939v-2.43c0-0.129,0.082-0.178,0.211-0.193
		l0.875-0.227h0.047c0.113,0,0.146,0.113,0.146,0.211v10.57C810.423,331.084,810.423,331.538,809.404,331.764z M809.144,324.479
		c0,0-1.02-0.291-2.186-0.291c-1.781,0-2.574,0.566-2.574,3.449c0,3.074,0.939,3.432,2.59,3.432c1.199,0,2.17-0.309,2.17-0.309
		V324.479z"/>
	<path fill="#12110C" d="M819.765,328.25c-0.016,0.082-0.131,0.211-0.211,0.211h-5.941c0,0.891,0.162,1.393,0.502,1.814
		c0.469,0.598,1.262,0.777,2.396,0.777c1.004,0,1.619-0.195,2.379-0.406c0.033-0.016,0.064-0.031,0.098-0.031
		c0.064,0,0.129,0.049,0.162,0.145l0.178,0.615v0.064c0,0.082-0.064,0.131-0.162,0.18c-0.646,0.258-1.717,0.469-2.785,0.469
		c-3.172,0-4.111-1.473-4.111-4.451c0-2.736,0.551-4.469,3.756-4.469c1.699,0,2.688,0.518,3.223,1.439
		c0.42,0.729,0.518,1.732,0.518,2.85V328.25z M818.226,325.565c-0.291-1.037-0.922-1.377-2.234-1.377
		c-1.295,0-1.926,0.34-2.201,1.377c-0.162,0.598-0.178,1.229-0.193,1.828l4.824-0.016
		C818.406,326.762,818.372,326.163,818.226,325.565z"/>
	<path fill="#12110C" d="M824.589,331.684c0,0.113-0.082,0.145-0.131,0.162c-0.129,0.064-0.566,0.193-1.148,0.193
		c-0.971,0-1.619-0.469-1.619-1.668v-10.248c0-0.129,0.08-0.178,0.193-0.193l0.875-0.227h0.049c0.113,0,0.162,0.113,0.162,0.211
		v10.426c0,0.582,0.404,0.664,0.729,0.664c0.227,0,0.486-0.033,0.566-0.066h0.08c0.049,0,0.098,0.018,0.113,0.115l0.113,0.566
		C824.572,331.651,824.589,331.667,824.589,331.684z"/>
	<path fill="#12110C" d="M833.105,328.25c-0.016,0.082-0.131,0.211-0.211,0.211h-5.941c0,0.891,0.162,1.393,0.502,1.814
		c0.469,0.598,1.262,0.777,2.396,0.777c1.004,0,1.619-0.195,2.379-0.406c0.033-0.016,0.064-0.031,0.098-0.031
		c0.064,0,0.129,0.049,0.162,0.145l0.178,0.615v0.064c0,0.082-0.064,0.131-0.162,0.18c-0.646,0.258-1.717,0.469-2.785,0.469
		c-3.172,0-4.111-1.473-4.111-4.451c0-2.736,0.551-4.469,3.756-4.469c1.699,0,2.688,0.518,3.223,1.439
		c0.42,0.729,0.518,1.732,0.518,2.85V328.25z M831.566,325.565c-0.291-1.037-0.922-1.377-2.234-1.377
		c-1.295,0-1.926,0.34-2.201,1.377c-0.162,0.598-0.178,1.229-0.193,1.828l4.824-0.016
		C831.745,326.762,831.712,326.163,831.566,325.565z"/>
	<path fill="#12110C" d="M841.911,331.877h-0.793c-0.146,0-0.244-0.096-0.244-0.242v-5.99c0-1.068-0.404-1.441-1.537-1.441
		c-1.506,0-3.027,0.453-3.027,0.453v6.979c0,0.146-0.082,0.242-0.227,0.242h-0.811c-0.145,0-0.242-0.096-0.242-0.242v-6.719
		c0-0.648,0.033-0.939,0.842-1.215c0.842-0.291,2.461-0.533,3.496-0.533c1.928,0,2.785,0.598,2.785,2.33v6.137
		C842.154,331.782,842.056,331.877,841.911,331.877z"/>
	<path fill="#12110C" d="M852.839,332.088c-2.85,0-3.562-1.215-3.562-3.352v-5.148c0-0.129,0.08-0.178,0.211-0.211l0.873-0.209
		h0.049c0.113,0,0.146,0.113,0.146,0.209v5.488c0,1.523,0.533,2.203,2.283,2.203c2.104,0,2.266-1.037,2.266-2.25v-5.23
		c0-0.129,0.098-0.178,0.211-0.211l0.873-0.209h0.049c0.113,0,0.162,0.113,0.162,0.209v5.328
		C856.4,330.307,856.173,332.088,852.839,332.088z"/>
	<path fill="#12110C" d="M865.45,331.877h-0.793c-0.146,0-0.244-0.096-0.244-0.242v-5.99c0-1.068-0.404-1.441-1.537-1.441
		c-1.506,0-3.027,0.453-3.027,0.453v6.979c0,0.146-0.082,0.242-0.227,0.242h-0.811c-0.145,0-0.242-0.096-0.242-0.242v-6.719
		c0-0.648,0.033-0.939,0.842-1.215c0.842-0.291,2.461-0.533,3.496-0.533c1.928,0,2.785,0.598,2.785,2.33v6.137
		C865.693,331.782,865.595,331.877,865.45,331.877z"/>
	<path fill="#12110C" d="M873.882,331.764c-0.518,0.131-1.197,0.324-2.477,0.324c-3.141,0-3.869-1.424-3.869-4.469
		c0-3.107,0.857-4.451,3.771-4.451c1.117,0,1.928,0.178,2.479,0.324l-0.162-0.939v-2.43c0-0.129,0.08-0.178,0.209-0.193l0.875-0.227
		h0.049c0.113,0,0.145,0.113,0.145,0.211v10.57C874.902,331.084,874.902,331.538,873.882,331.764z M873.624,324.479
		c0,0-1.021-0.291-2.186-0.291c-1.781,0-2.574,0.566-2.574,3.449c0,3.074,0.938,3.432,2.59,3.432c1.197,0,2.17-0.309,2.17-0.309
		V324.479z"/>
	<path fill="#12110C" d="M884.243,328.25c-0.016,0.082-0.129,0.211-0.209,0.211h-5.943c0,0.891,0.162,1.393,0.502,1.814
		c0.471,0.598,1.264,0.777,2.396,0.777c1.004,0,1.619-0.195,2.381-0.406c0.031-0.016,0.064-0.031,0.096-0.031
		c0.066,0,0.131,0.049,0.162,0.145l0.18,0.615v0.064c0,0.082-0.066,0.131-0.162,0.18c-0.648,0.258-1.717,0.469-2.785,0.469
		c-3.174,0-4.113-1.473-4.113-4.451c0-2.736,0.551-4.469,3.758-4.469c1.699,0,2.688,0.518,3.221,1.439
		c0.422,0.729,0.518,1.732,0.518,2.85V328.25z M882.706,325.565c-0.291-1.037-0.924-1.377-2.234-1.377
		c-1.295,0-1.926,0.34-2.201,1.377c-0.162,0.598-0.18,1.229-0.195,1.828l4.824-0.016
		C882.884,326.762,882.851,326.163,882.706,325.565z"/>
	<path fill="#12110C" d="M890.298,324.301c-1.068,0-1.941,0.08-2.85,0.307v7.027c0,0.146-0.08,0.242-0.227,0.242h-0.809
		c0,0-0.244-0.096-0.244-0.242v-6.752c0-0.711,0.146-0.922,0.697-1.182c0.713-0.324,2.17-0.533,2.947-0.533h0.404
		c0.08,0,0.227,0.031,0.227,0.242v0.695C890.445,324.221,890.411,324.301,890.298,324.301z"/>
	<path fill="#12110C" d="M903.622,331.733c0,0.08-0.08,0.145-0.162,0.145h-1.344c-0.064,0-0.098-0.031-0.129-0.08l-3.367-3.676
		h-0.664v3.514c0,0.146-0.082,0.242-0.227,0.242h-0.811c-0.145,0-0.242-0.096-0.242-0.242v-11.512c0-0.129,0.08-0.178,0.193-0.193
		l0.875-0.227h0.049c0.113,0,0.162,0.113,0.162,0.211v7.236h0.664l3.27-3.691c0.033-0.049,0.064-0.082,0.129-0.082l1.166,0.033
		c0.082,0,0.162,0.064,0.162,0.146c0,0.031-0.016,0.064-0.031,0.08l-3.562,3.902l3.836,4.111
		C903.607,331.667,903.622,331.7,903.622,331.733z"/>
	<path fill="#12110C" d="M910.21,331.862c-0.469,0.098-1.246,0.227-2.104,0.227c-1.393,0-3.709-0.049-3.709-2.672
		c0-2.168,1.199-2.281,2.801-2.541l3.061-0.502v-0.762c0-0.518-0.016-0.938-0.582-1.148c-0.309-0.129-0.762-0.195-1.475-0.195
		c-1.246,0-2.33,0.309-2.994,0.471c-0.033,0-0.064,0.016-0.098,0.016c-0.064,0-0.129-0.033-0.162-0.129l-0.145-0.729v-0.033
		c0-0.129,0.113-0.178,0.162-0.193c0.518-0.195,1.91-0.502,3.383-0.502c1.15,0,1.895,0.162,2.363,0.42
		c0.826,0.438,0.842,1.199,0.842,1.959v4.646C911.554,331.327,911.327,331.586,910.21,331.862z M910.275,327.393l-2.979,0.502
		c-0.777,0.146-1.57,0.178-1.57,1.457c0,1.619,1.328,1.732,2.396,1.732c0.713,0,1.473-0.098,2.152-0.324V327.393z"/>
	<path fill="#12110C" d="M917.868,324.301c-1.068,0-1.943,0.08-2.85,0.307v7.027c0,0.146-0.082,0.242-0.227,0.242h-0.811
		c0,0-0.242-0.096-0.242-0.242v-6.752c0-0.711,0.146-0.922,0.695-1.182c0.713-0.324,2.17-0.533,2.947-0.533h0.404
		c0.082,0,0.227,0.031,0.227,0.242v0.695C918.013,324.221,917.982,324.301,917.868,324.301z"/>
	<path fill="#12110C" d="M924.456,331.862c-0.469,0.098-1.246,0.227-2.104,0.227c-1.393,0-3.709-0.049-3.709-2.672
		c0-2.168,1.199-2.281,2.801-2.541l3.061-0.502v-0.762c0-0.518-0.016-0.938-0.582-1.148c-0.309-0.129-0.762-0.195-1.475-0.195
		c-1.246,0-2.33,0.309-2.994,0.471c-0.033,0-0.064,0.016-0.098,0.016c-0.064,0-0.129-0.033-0.162-0.129l-0.145-0.729v-0.033
		c0-0.129,0.113-0.178,0.162-0.193c0.518-0.195,1.91-0.502,3.383-0.502c1.15,0,1.895,0.162,2.363,0.42
		c0.826,0.438,0.842,1.199,0.842,1.959v4.646C925.8,331.327,925.573,331.586,924.456,331.862z M924.521,327.393l-2.979,0.502
		c-0.777,0.146-1.57,0.178-1.57,1.457c0,1.619,1.328,1.732,2.396,1.732c0.713,0,1.473-0.098,2.152-0.324V327.393z"/>
	<path fill="#12110C" d="M934.931,331.733c0,0.08-0.08,0.145-0.162,0.145h-1.344c-0.064,0-0.098-0.031-0.129-0.08l-3.367-3.676
		h-0.664v3.514c0,0.146-0.082,0.242-0.227,0.242h-0.811c-0.145,0-0.242-0.096-0.242-0.242v-11.512c0-0.129,0.08-0.178,0.193-0.193
		l0.875-0.227h0.049c0.113,0,0.162,0.113,0.162,0.211v7.236h0.664l3.27-3.691c0.033-0.049,0.064-0.082,0.129-0.082l1.166,0.033
		c0.082,0,0.162,0.064,0.162,0.146c0,0.031-0.016,0.064-0.031,0.08l-3.562,3.902l3.836,4.111
		C934.915,331.667,934.931,331.7,934.931,331.733z"/>
	<path fill="#12110C" d="M940.628,331.62c0,0.064-0.064,0.145-0.129,0.162c-0.355,0.113-1.053,0.307-1.975,0.307
		c-1.604,0-2.365-0.695-2.365-2.25v-8.904c0-0.129,0.082-0.178,0.195-0.195l0.875-0.227h0.047c0.113,0,0.162,0.113,0.162,0.211
		v2.654h2.721c0.145,0,0.242,0.098,0.242,0.244v0.551c0,0.145-0.098,0.242-0.242,0.242h-2.721v5.553
		c0,0.891,0.486,1.086,1.328,1.086c0.502,0,1.15-0.131,1.49-0.211h0.047c0.082,0,0.146,0.049,0.18,0.145l0.145,0.6V331.62z"/>
	<path fill="#12110C" d="M949.064,328.25c-0.016,0.082-0.131,0.211-0.211,0.211h-5.941c0,0.891,0.162,1.393,0.502,1.814
		c0.469,0.598,1.262,0.777,2.396,0.777c1.004,0,1.619-0.195,2.379-0.406c0.033-0.016,0.064-0.031,0.098-0.031
		c0.064,0,0.129,0.049,0.162,0.145l0.178,0.615v0.064c0,0.082-0.064,0.131-0.162,0.18c-0.646,0.258-1.717,0.469-2.785,0.469
		c-3.172,0-4.111-1.473-4.111-4.451c0-2.736,0.551-4.469,3.756-4.469c1.699,0,2.688,0.518,3.223,1.439
		c0.42,0.729,0.518,1.732,0.518,2.85V328.25z M947.525,325.565c-0.291-1.037-0.922-1.377-2.234-1.377
		c-1.295,0-1.926,0.34-2.201,1.377c-0.162,0.598-0.178,1.229-0.193,1.828l4.824-0.016
		C947.704,326.762,947.671,326.163,947.525,325.565z"/>
	<path fill="#12110C" d="M955.118,324.301c-1.068,0-1.943,0.08-2.85,0.307v7.027c0,0.146-0.082,0.242-0.227,0.242h-0.811
		c0,0-0.242-0.096-0.242-0.242v-6.752c0-0.711,0.146-0.922,0.695-1.182c0.713-0.324,2.17-0.533,2.947-0.533h0.404
		c0.082,0,0.227,0.031,0.227,0.242v0.695C955.263,324.221,955.232,324.301,955.118,324.301z"/>
	<path fill="#12110C" d="M963.47,328.25c-0.016,0.082-0.131,0.211-0.211,0.211h-5.941c0,0.891,0.162,1.393,0.502,1.814
		c0.469,0.598,1.262,0.777,2.396,0.777c1.004,0,1.619-0.195,2.379-0.406c0.033-0.016,0.064-0.031,0.098-0.031
		c0.064,0,0.129,0.049,0.162,0.145l0.178,0.615v0.064c0,0.082-0.064,0.131-0.162,0.18c-0.646,0.258-1.717,0.469-2.785,0.469
		c-3.172,0-4.111-1.473-4.111-4.451c0-2.736,0.551-4.469,3.756-4.469c1.699,0,2.688,0.518,3.223,1.439
		c0.42,0.729,0.518,1.732,0.518,2.85V328.25z M961.931,325.565c-0.291-1.037-0.922-1.377-2.234-1.377
		c-1.295,0-1.926,0.34-2.201,1.377c-0.162,0.598-0.178,1.229-0.193,1.828l4.824-0.016
		C962.111,326.762,962.077,326.163,961.931,325.565z"/>
	<path fill="#12110C" d="M972.277,331.877h-0.793c-0.146,0-0.244-0.096-0.244-0.242v-5.99c0-1.068-0.404-1.441-1.537-1.441
		c-1.506,0-3.027,0.453-3.027,0.453v6.979c0,0.146-0.082,0.242-0.227,0.242h-0.811c-0.145,0-0.242-0.096-0.242-0.242v-6.719
		c0-0.648,0.033-0.939,0.842-1.215c0.842-0.291,2.461-0.533,3.496-0.533c1.928,0,2.785,0.598,2.785,2.33v6.137
		C972.519,331.782,972.421,331.877,972.277,331.877z"/>
	<path fill="#12110C" d="M685.804,346.973c0,0.145-0.113,0.258-0.26,0.258h-1.506v2.736c0,0.146-0.129,0.26-0.26,0.26h-0.873
		c-0.131,0-0.26-0.113-0.26-0.26v-2.736h-6.379c-0.145,0-0.258-0.096-0.258-0.242v-0.875c0-0.049,0-0.145,0.049-0.209l5.406-7.545
		c0.033-0.049,0.113-0.098,0.162-0.098h2.152c0.146,0,0.26,0.113,0.26,0.26v7.496h1.506c0.146,0,0.26,0.129,0.26,0.258V346.973z
		 M682.646,339.413h-0.486l-4.807,6.621h5.293V339.413z"/>
	<path fill="#12110C" d="M694.109,340.27h-0.793c-0.146,0-0.244-0.098-0.244-0.227v-1.748c0-0.146,0.098-0.244,0.244-0.244h0.793
		c0.145,0,0.242,0.098,0.242,0.244v1.748C694.351,340.172,694.253,340.27,694.109,340.27z M694.109,350.227h-0.793
		c-0.146,0-0.244-0.098-0.244-0.244v-8.014c0-0.145,0.098-0.242,0.244-0.242h0.793c0.145,0,0.242,0.098,0.242,0.242v8.014
		C694.351,350.129,694.253,350.227,694.109,350.227z"/>
	<path fill="#12110C" d="M710.023,342.391c0,0.031-0.033,0.049-0.082,0.098c-0.355,0.242-0.76,0.34-1.148,0.34
		c-0.26,0-0.275-0.018-0.648-0.082c0,0,0.697,0.584,0.697,1.732c0,2.299-1.426,2.963-3.562,2.963h-1.197
		c-0.842,0-1.037,0.422-1.037,0.842c0,0.68,0.471,0.857,1.182,0.857h2.445c1.555,0,2.654,0.471,2.654,1.91
		c0,2.008-1.617,2.672-3.934,2.672c-2.688,0-3.918-0.533-3.918-2.17c0-1.262,0.859-1.504,1.652-1.666v-0.18
		c-0.729-0.16-1.361-0.242-1.361-1.391c0-0.988,0.535-1.23,1.781-1.426c-0.76-0.242-1.828-0.453-1.828-2.412
		c0-2.217,1.457-2.963,3.545-2.963c1.004,0,1.408,0.162,2.023,0.34c0.178,0.033,0.373,0.064,0.6,0.064
		c0.242,0,0.518-0.047,0.744-0.113c0.291-0.08,0.615-0.227,0.842-0.34c0.049-0.016,0.098-0.049,0.129-0.049
		c0.033,0,0.066,0.033,0.082,0.098l0.307,0.811C710.007,342.358,710.023,342.375,710.023,342.391z M706.525,350.227h-2.186
		c-0.824,0-1.586,0.258-1.586,1.23c0,1.117,1.166,1.262,2.656,1.262c1.002,0,2.639-0.145,2.639-1.473
		C708.048,350.307,707.238,350.227,706.525,350.227z M705.279,342.489c-1.408,0-2.283,0.484-2.283,1.99
		c0,1.49,0.875,1.959,2.283,1.959c1.393,0,2.283-0.469,2.283-1.959C707.562,342.973,706.671,342.489,705.279,342.489z"/>
	<path fill="#12110C" d="M718.247,346.6c-0.016,0.08-0.131,0.211-0.211,0.211h-5.941c0,0.891,0.162,1.393,0.502,1.812
		c0.469,0.6,1.262,0.777,2.396,0.777c1.004,0,1.619-0.193,2.379-0.404c0.033-0.018,0.064-0.033,0.098-0.033
		c0.064,0,0.129,0.049,0.162,0.146l0.178,0.615v0.064c0,0.08-0.064,0.129-0.162,0.178c-0.646,0.26-1.717,0.471-2.785,0.471
		c-3.172,0-4.111-1.475-4.111-4.453c0-2.736,0.551-4.469,3.756-4.469c1.699,0,2.688,0.518,3.223,1.441
		c0.42,0.729,0.518,1.732,0.518,2.85V346.6z M716.708,343.913c-0.291-1.035-0.922-1.377-2.234-1.377
		c-1.295,0-1.926,0.342-2.201,1.377c-0.162,0.6-0.178,1.23-0.193,1.83l4.824-0.018C716.888,345.11,716.855,344.512,716.708,343.913z
		"/>
	<path fill="#12110C" d="M727.054,350.227h-0.793c-0.146,0-0.244-0.098-0.244-0.244v-5.99c0-1.068-0.404-1.439-1.537-1.439
		c-1.506,0-3.027,0.453-3.027,0.453v6.977c0,0.146-0.082,0.244-0.227,0.244h-0.811c-0.145,0-0.242-0.098-0.242-0.244v-6.719
		c0-0.646,0.033-0.938,0.842-1.213c0.842-0.291,2.461-0.535,3.496-0.535c1.928,0,2.785,0.6,2.785,2.332v6.135
		C727.296,350.129,727.198,350.227,727.054,350.227z"/>
	<path fill="#12110C" d="M736.363,350.227h-0.793c-0.146,0-0.244-0.098-0.244-0.244v-5.99c0-1.068-0.404-1.439-1.537-1.439
		c-1.506,0-3.027,0.453-3.027,0.453v6.977c0,0.146-0.082,0.244-0.227,0.244h-0.811c-0.145,0-0.242-0.098-0.242-0.244v-6.719
		c0-0.646,0.033-0.938,0.842-1.213c0.842-0.291,2.461-0.535,3.496-0.535c1.928,0,2.785,0.6,2.785,2.332v6.135
		C736.605,350.129,736.507,350.227,736.363,350.227z"/>
	<path fill="#12110C" d="M745.945,346.6c-0.016,0.08-0.131,0.211-0.211,0.211h-5.941c0,0.891,0.162,1.393,0.502,1.812
		c0.469,0.6,1.262,0.777,2.396,0.777c1.004,0,1.619-0.193,2.379-0.404c0.033-0.018,0.064-0.033,0.098-0.033
		c0.064,0,0.129,0.049,0.162,0.146l0.178,0.615v0.064c0,0.08-0.064,0.129-0.162,0.178c-0.646,0.26-1.717,0.471-2.785,0.471
		c-3.172,0-4.111-1.475-4.111-4.453c0-2.736,0.551-4.469,3.756-4.469c1.699,0,2.688,0.518,3.223,1.441
		c0.42,0.729,0.518,1.732,0.518,2.85V346.6z M744.406,343.913c-0.291-1.035-0.922-1.377-2.234-1.377
		c-1.295,0-1.926,0.342-2.201,1.377c-0.162,0.6-0.178,1.23-0.193,1.83l4.824-0.018C744.585,345.11,744.552,344.512,744.406,343.913z
		"/>
	<path fill="#12110C" d="M760.595,350.227h-0.793c-0.162,0-0.26-0.098-0.26-0.244v-5.99c0-1.068-0.389-1.439-1.521-1.439
		c-1.506,0-3.043,0.453-3.043,0.453v6.977c0,0.162-0.064,0.244-0.227,0.244h-0.793c-0.146,0-0.244-0.098-0.244-0.244v-5.99
		c0-1.068-0.404-1.439-1.537-1.439c-1.506,0-3.027,0.453-3.027,0.453v6.977c0,0.146-0.082,0.244-0.227,0.244h-0.811
		c-0.145,0-0.242-0.098-0.242-0.244v-6.719c0-0.646,0.033-0.938,0.842-1.213c0.842-0.291,2.461-0.535,3.496-0.535
		c1.021,0,1.75,0.195,2.203,0.615c0.906-0.355,2.654-0.615,3.643-0.615c1.926,0,2.785,0.6,2.785,2.332v6.135
		C760.839,350.129,760.741,350.227,760.595,350.227z"/>
	<path fill="#12110C" d="M765.724,350.438c-1.424,0-2.654-0.471-2.865-0.551c-0.064-0.033-0.129-0.064-0.129-0.162v-0.049
		l0.162-0.631c0.016-0.082,0.064-0.146,0.178-0.146h0.08c0.131,0.049,1.279,0.469,2.607,0.469c1.375,0,2.17-0.436,2.17-1.424
		c0-1.344-1.037-1.295-2.299-1.49c-0.795-0.129-2.818-0.275-2.818-2.412c0-2.088,1.861-2.525,3.287-2.525
		c1.393,0,2.461,0.291,2.639,0.34c0.113,0.018,0.162,0.098,0.162,0.178v0.033l-0.113,0.713c-0.016,0.098-0.082,0.129-0.146,0.129
		h-0.031c-0.227-0.016-1.426-0.307-2.381-0.307c-1.166,0-2.137,0.322-2.137,1.344c0,1.1,1.102,1.23,2.105,1.359
		c1.457,0.193,3.027,0.307,3.027,2.51C769.222,349.918,767.603,350.438,765.724,350.438z"/>
	<path fill="#12110C" d="M777.866,350.227h-0.793c-0.146,0-0.244-0.098-0.244-0.244v-5.99c0-1.068-0.404-1.439-1.537-1.439
		c-1.506,0-3.027,0.453-3.027,0.453v6.977c0,0.146-0.082,0.244-0.227,0.244h-0.811c-0.145,0-0.242-0.098-0.242-0.244v-6.719
		c0-0.646,0.033-0.938,0.842-1.213c0.842-0.291,2.461-0.535,3.496-0.535c1.928,0,2.785,0.6,2.785,2.332v6.135
		C778.109,350.129,778.011,350.227,777.866,350.227z"/>
	<path fill="#12110C" d="M781.573,340.27h-0.793c-0.146,0-0.244-0.098-0.244-0.227v-1.748c0-0.146,0.098-0.244,0.244-0.244h0.793
		c0.145,0,0.242,0.098,0.242,0.244v1.748C781.816,340.172,781.718,340.27,781.573,340.27z M781.573,350.227h-0.793
		c-0.146,0-0.244-0.098-0.244-0.244v-8.014c0-0.145,0.098-0.242,0.244-0.242h0.793c0.145,0,0.242,0.098,0.242,0.242v8.014
		C781.816,350.129,781.718,350.227,781.573,350.227z"/>
	<path fill="#12110C" d="M788.794,349.967c0,0.064-0.064,0.146-0.131,0.162c-0.355,0.113-1.051,0.309-1.975,0.309
		c-1.602,0-2.363-0.697-2.363-2.252v-8.904c0-0.129,0.08-0.178,0.193-0.193l0.875-0.227h0.049c0.113,0,0.162,0.113,0.162,0.211
		v2.654h2.719c0.146,0,0.244,0.098,0.244,0.242v0.551c0,0.146-0.098,0.242-0.244,0.242h-2.719v5.555
		c0,0.891,0.484,1.084,1.328,1.084c0.5,0,1.148-0.129,1.488-0.211h0.049c0.08,0,0.146,0.049,0.178,0.146l0.146,0.6V349.967z"/>
	<path fill="#12110C" d="M800.062,339.088c-0.018,0.129-0.098,0.178-0.227,0.178c-0.324-0.064-0.924-0.178-1.555-0.178
		c-0.438,0-0.777,0.049-1.004,0.227c-0.211,0.162-0.324,0.42-0.324,0.857v1.555h2.396c0.146,0,0.242,0.098,0.242,0.242v0.551
		c0,0.146-0.096,0.242-0.242,0.242h-2.396v7.221c0,0.146-0.08,0.244-0.227,0.244h-0.809c-0.146,0-0.244-0.098-0.244-0.244v-7.221
		h-1.262c-0.146,0-0.242-0.096-0.242-0.242v-0.551c0-0.145,0.096-0.242,0.242-0.242h1.262v-1.424c0-1.555,0.762-2.252,2.348-2.252
		c0.859,0,1.539,0.162,1.91,0.244c0.113,0.031,0.211,0.096,0.211,0.209v0.018L800.062,339.088z"/>
	<path fill="#12110C" d="M804.755,342.649c-1.068,0-1.943,0.082-2.85,0.309v7.025c0,0.146-0.082,0.244-0.227,0.244h-0.811
		c0,0-0.242-0.098-0.242-0.244v-6.75c0-0.713,0.146-0.924,0.695-1.182c0.713-0.324,2.17-0.535,2.947-0.535h0.404
		c0.082,0,0.227,0.033,0.227,0.244v0.695C804.9,342.569,804.868,342.649,804.755,342.649z"/>
	<path fill="#12110C" d="M811.343,350.209c-0.469,0.098-1.246,0.229-2.104,0.229c-1.393,0-3.709-0.049-3.709-2.672
		c0-2.17,1.199-2.283,2.801-2.543l3.061-0.502v-0.76c0-0.518-0.016-0.939-0.582-1.15c-0.309-0.129-0.762-0.193-1.475-0.193
		c-1.246,0-2.33,0.307-2.994,0.469c-0.033,0-0.064,0.018-0.098,0.018c-0.064,0-0.129-0.033-0.162-0.131l-0.145-0.729v-0.031
		c0-0.131,0.113-0.18,0.162-0.195c0.518-0.193,1.91-0.502,3.383-0.502c1.15,0,1.895,0.162,2.363,0.422
		c0.826,0.438,0.842,1.197,0.842,1.959v4.646C812.687,349.676,812.46,349.936,811.343,350.209z M811.407,345.743l-2.979,0.502
		c-0.777,0.145-1.57,0.178-1.57,1.457c0,1.619,1.328,1.732,2.396,1.732c0.713,0,1.473-0.098,2.152-0.324V345.743z"/>
	<path fill="#12110C" d="M828.034,342.391c0,0.031-0.033,0.049-0.082,0.098c-0.355,0.242-0.76,0.34-1.148,0.34
		c-0.26,0-0.275-0.018-0.648-0.082c0,0,0.697,0.584,0.697,1.732c0,2.299-1.426,2.963-3.562,2.963h-1.197
		c-0.842,0-1.037,0.422-1.037,0.842c0,0.68,0.471,0.857,1.182,0.857h2.445c1.555,0,2.654,0.471,2.654,1.91
		c0,2.008-1.617,2.672-3.934,2.672c-2.688,0-3.918-0.533-3.918-2.17c0-1.262,0.859-1.504,1.652-1.666v-0.18
		c-0.729-0.16-1.361-0.242-1.361-1.391c0-0.988,0.535-1.23,1.781-1.426c-0.76-0.242-1.828-0.453-1.828-2.412
		c0-2.217,1.457-2.963,3.545-2.963c1.004,0,1.408,0.162,2.023,0.34c0.178,0.033,0.373,0.064,0.6,0.064
		c0.242,0,0.518-0.047,0.744-0.113c0.291-0.08,0.615-0.227,0.842-0.34c0.049-0.016,0.098-0.049,0.129-0.049
		c0.033,0,0.066,0.033,0.082,0.098l0.307,0.811C828.019,342.358,828.034,342.375,828.034,342.391z M824.536,350.227h-2.186
		c-0.824,0-1.586,0.258-1.586,1.23c0,1.117,1.166,1.262,2.656,1.262c1.002,0,2.639-0.145,2.639-1.473
		C826.06,350.307,825.249,350.227,824.536,350.227z M823.29,342.489c-1.408,0-2.283,0.484-2.283,1.99
		c0,1.49,0.875,1.959,2.283,1.959c1.393,0,2.283-0.469,2.283-1.959C825.573,342.973,824.683,342.489,823.29,342.489z"/>
	<path fill="#12110C" d="M833.23,342.649c-1.068,0-1.943,0.082-2.85,0.309v7.025c0,0.146-0.082,0.244-0.227,0.244h-0.811
		c0,0-0.242-0.098-0.242-0.244v-6.75c0-0.713,0.146-0.924,0.695-1.182c0.713-0.324,2.17-0.535,2.947-0.535h0.404
		c0.082,0,0.227,0.033,0.227,0.244v0.695C833.374,342.569,833.343,342.649,833.23,342.649z"/>
	<path fill="#12110C" d="M838.197,350.438c-2.85,0-3.562-1.215-3.562-3.352v-5.148c0-0.131,0.08-0.178,0.211-0.211l0.873-0.211
		h0.049c0.113,0,0.146,0.113,0.146,0.211v5.488c0,1.521,0.533,2.201,2.283,2.201c2.104,0,2.266-1.035,2.266-2.25v-5.229
		c0-0.131,0.098-0.178,0.211-0.211l0.873-0.211h0.049c0.113,0,0.162,0.113,0.162,0.211v5.326
		C841.757,348.657,841.531,350.438,838.197,350.438z"/>
	<path fill="#12110C" d="M850.808,350.227h-0.793c-0.146,0-0.244-0.098-0.244-0.244v-5.99c0-1.068-0.404-1.439-1.537-1.439
		c-1.506,0-3.027,0.453-3.027,0.453v6.977c0,0.146-0.082,0.244-0.227,0.244h-0.811c-0.145,0-0.242-0.098-0.242-0.244v-6.719
		c0-0.646,0.033-0.938,0.842-1.213c0.842-0.291,2.461-0.535,3.496-0.535c1.928,0,2.785,0.6,2.785,2.332v6.135
		C851.05,350.129,850.952,350.227,850.808,350.227z"/>
	<path fill="#12110C" d="M859.24,350.114c-0.518,0.129-1.197,0.324-2.477,0.324c-3.141,0-3.869-1.426-3.869-4.469
		c0-3.109,0.857-4.453,3.771-4.453c1.117,0,1.928,0.178,2.479,0.324l-0.162-0.939v-2.428c0-0.129,0.08-0.178,0.209-0.195
		l0.875-0.227h0.049c0.113,0,0.145,0.113,0.145,0.211v10.572C860.259,349.434,860.259,349.887,859.24,350.114z M858.982,342.829
		c0,0-1.021-0.293-2.186-0.293c-1.781,0-2.574,0.568-2.574,3.449c0,3.076,0.938,3.432,2.59,3.432c1.197,0,2.17-0.307,2.17-0.307
		V342.829z"/>
	<path fill="#12110C" d="M865.116,350.438c-1.424,0-2.654-0.471-2.865-0.551c-0.064-0.033-0.129-0.064-0.129-0.162v-0.049
		l0.162-0.631c0.016-0.082,0.064-0.146,0.178-0.146h0.08c0.131,0.049,1.279,0.469,2.607,0.469c1.375,0,2.17-0.436,2.17-1.424
		c0-1.344-1.037-1.295-2.299-1.49c-0.795-0.129-2.818-0.275-2.818-2.412c0-2.088,1.861-2.525,3.287-2.525
		c1.393,0,2.461,0.291,2.639,0.34c0.113,0.018,0.162,0.098,0.162,0.178v0.033l-0.113,0.713c-0.016,0.098-0.082,0.129-0.146,0.129
		h-0.031c-0.227-0.016-1.426-0.307-2.381-0.307c-1.166,0-2.137,0.322-2.137,1.344c0,1.1,1.102,1.23,2.105,1.359
		c1.457,0.193,3.027,0.307,3.027,2.51C868.615,349.918,866.995,350.438,865.116,350.438z"/>
	<path fill="#12110C" d="M877.323,350.081c0,0.082-0.08,0.146-0.162,0.146h-1.344c-0.064,0-0.098-0.033-0.129-0.082l-3.367-3.674
		h-0.664v3.512c0,0.146-0.082,0.244-0.227,0.244h-0.811c-0.145,0-0.242-0.098-0.242-0.244v-11.51c0-0.129,0.08-0.178,0.193-0.195
		l0.875-0.227h0.049c0.113,0,0.162,0.113,0.162,0.211v7.236h0.664l3.27-3.691c0.033-0.047,0.064-0.08,0.129-0.08l1.166,0.033
		c0.082,0,0.162,0.064,0.162,0.145c0,0.033-0.016,0.064-0.031,0.082l-3.562,3.9L877.29,350
		C877.308,350.016,877.323,350.049,877.323,350.081z"/>
	<path fill="#12110C" d="M881.888,350.438c-3.383,0-3.789-2.025-3.789-4.453c0-2.445,0.406-4.469,3.789-4.469
		c3.4,0,3.789,2.023,3.789,4.469C885.677,348.413,885.288,350.438,881.888,350.438z M881.888,342.553
		c-2.348,0-2.445,1.375-2.445,3.432c0,2.039,0.098,3.416,2.445,3.416s2.445-1.377,2.445-3.416
		C884.333,343.928,884.236,342.553,881.888,342.553z"/>
	<path fill="#12110C" d="M890.419,350.032c0,0.113-0.08,0.146-0.129,0.162c-0.129,0.064-0.566,0.195-1.15,0.195
		c-0.971,0-1.619-0.471-1.619-1.668v-10.248c0-0.129,0.082-0.178,0.195-0.195l0.875-0.227h0.047c0.113,0,0.162,0.113,0.162,0.211
		v10.426c0,0.584,0.406,0.664,0.729,0.664c0.227,0,0.486-0.031,0.566-0.064h0.082c0.049,0,0.098,0.016,0.113,0.113l0.113,0.566
		C890.404,350,890.419,350.016,890.419,350.032z"/>
	<path fill="#12110C" d="M898.935,346.6c-0.016,0.08-0.129,0.211-0.209,0.211h-5.943c0,0.891,0.162,1.393,0.502,1.812
		c0.471,0.6,1.264,0.777,2.396,0.777c1.004,0,1.619-0.193,2.381-0.404c0.031-0.018,0.064-0.033,0.096-0.033
		c0.066,0,0.131,0.049,0.162,0.146l0.18,0.615v0.064c0,0.08-0.066,0.129-0.162,0.178c-0.648,0.26-1.717,0.471-2.785,0.471
		c-3.174,0-4.113-1.475-4.113-4.453c0-2.736,0.551-4.469,3.758-4.469c1.699,0,2.688,0.518,3.221,1.441
		c0.422,0.729,0.518,1.732,0.518,2.85V346.6z M897.398,343.913c-0.291-1.035-0.924-1.377-2.234-1.377
		c-1.295,0-1.926,0.342-2.201,1.377c-0.162,0.6-0.18,1.23-0.195,1.83l4.824-0.018C897.575,345.11,897.542,344.512,897.398,343.913z"
		/>
	<path fill="#12110C" d="M907.741,350.227h-0.793c-0.145,0-0.242-0.098-0.242-0.244v-5.99c0-1.068-0.404-1.439-1.539-1.439
		c-1.506,0-3.027,0.453-3.027,0.453v6.977c0,0.146-0.08,0.244-0.227,0.244h-0.809c-0.146,0-0.244-0.098-0.244-0.244v-6.719
		c0-0.646,0.033-0.938,0.844-1.213c0.842-0.291,2.459-0.535,3.496-0.535c1.926,0,2.785,0.6,2.785,2.332v6.135
		C907.986,350.129,907.888,350.227,907.741,350.227z"/>
	<path fill="#12110C" d="M912.404,350.227h-1.408c-0.145,0-0.242-0.098-0.242-0.244v-1.035c0-0.146,0.098-0.242,0.242-0.242h1.408
		c0.146,0,0.244,0.096,0.244,0.242v1.035C912.648,350.129,912.55,350.227,912.404,350.227z"/>
</g>
</svg>
