<?xml version="1.0" encoding="utf-8"?>
<!-- Generator: Adobe Illustrator 16.0.4, SVG Export Plug-In . SVG Version: 6.00 Build 0)  -->
<!DOCTYPE svg PUBLIC "-//W3C//DTD SVG 1.1//EN" "http://www.w3.org/Graphics/SVG/1.1/DTD/svg11.dtd">
<svg version="1.1" id="Layer_1" xmlns="http://www.w3.org/2000/svg" xmlns:xlink="http://www.w3.org/1999/xlink" x="0px" y="0px"
	 width="1019.069px" height="580.661px" viewBox="0 0 1019.069 580.661" enable-background="new 0 0 1019.069 580.661"
	 xml:space="preserve">
<path fill="#82CFF5" d="M606.467,359.785c-47.665-18.851-102.554,1.918-125.385,48.765c-23.967,49.181-3.526,108.479,45.655,132.446
	c17.372,8.466,36.006,11.384,53.901,9.459l-19.225-97.433L606.467,359.785z"/>
<path opacity="0.8" fill="#82CFF5" d="M653.522,492.043c21.876-44.891,4.328-98.757-39.11-122.372
	c-10.532,19.179-46.494,84.442-47.69,83.531c-1.172-0.892,14.727,67.059,20.017,89.556
	C614.774,537.586,640.075,519.638,653.522,492.043z"/>
<g>
	<path fill="#1E1E1C" d="M494.808,459.658c-7.466,0-9.102-3.974-9.133-12.178v-0.257c-0.032-7.37,1.602-12.081,10.255-12.081
		c3.589,0,6.024,0.737,6.024,0.737c0.16,0,0.288,0.16,0.288,0.288v0.063l-0.352,1.795c-0.032,0.16-0.161,0.257-0.289,0.257h-0.064
		c-2.211-0.48-3.717-0.673-6.057-0.673c-4.967,0-6.922,2.307-7.05,7.627c0,0,3.557-1.25,6.634-1.25c5.159,0,8.685,2.275,8.685,7.884
		C503.749,457.255,500.16,459.658,494.808,459.658z M494.936,446.423c-1.923,0-4.613,0.449-6.441,1.121v1.154
		c-0.063,6.378,1.73,8.588,6.346,8.588c4.102,0,6.089-1.666,6.089-5.447C500.929,447.993,498.59,446.423,494.936,446.423z"/>
	<path fill="#1E1E1C" d="M517.683,459.658c-8.909,0-9.935-6.057-9.935-12.242c0-6.185,1.025-12.273,9.935-12.273
		c8.876,0,9.935,6.089,9.935,12.273C527.617,453.602,526.559,459.658,517.683,459.658z M517.65,437.515
		c-6.153,0-6.986,3.717-6.986,9.87c0,6.185,0.833,9.901,6.986,9.901c6.186,0,7.051-3.717,7.051-9.901
		C524.701,441.199,523.836,437.515,517.65,437.515z"/>
	<path fill="#1E1E1C" d="M536.451,447.353c-4.646,0-5.191-3.013-5.191-6.09c0-3.076,0.545-6.12,5.191-6.12
		c4.615,0,5.16,3.044,5.16,6.12C541.611,444.34,541.066,447.353,536.451,447.353z M536.419,436.97c-2.659,0-2.98,1.603-2.98,4.262
		c0,2.691,0.353,4.295,2.98,4.295c2.661,0,3.013-1.604,3.013-4.295C539.432,438.572,539.08,436.97,536.419,436.97z M536.996,459.241
		c-0.032,0.064-0.128,0.097-0.225,0.097c-0.063,0-0.096,0-0.16-0.032l-1.057-0.736c-0.097-0.064-0.129-0.161-0.129-0.257
		c0-0.032,0.032-0.097,0.063-0.16l15.19-22.529c0.064-0.097,0.16-0.128,0.225-0.128s0.129,0.031,0.16,0.064l1.09,0.736
		c0.063,0.032,0.128,0.129,0.128,0.225c0,0.064-0.032,0.128-0.064,0.192L536.996,459.241z M551.257,459.658
		c-4.647,0-5.192-3.013-5.192-6.089s0.545-6.121,5.192-6.121c4.646,0,5.191,3.045,5.191,6.121S555.903,459.658,551.257,459.658z
		 M551.257,449.274c-2.659,0-3.013,1.604-3.013,4.295c0,2.66,0.354,4.263,3.013,4.263c2.66,0,3.013-1.603,3.013-4.263
		C554.27,450.878,553.917,449.274,551.257,449.274z"/>
</g>
<g>
</g>
<g>
</g>
<g>
</g>
<g>
</g>
<g>
</g>
<g>
</g>
</svg>
