<?xml version="1.0" encoding="utf-8"?>
<!-- Generator: Adobe Illustrator 16.0.4, SVG Export Plug-In . SVG Version: 6.00 Build 0)  -->
<!DOCTYPE svg PUBLIC "-//W3C//DTD SVG 1.1//EN" "http://www.w3.org/Graphics/SVG/1.1/DTD/svg11.dtd">
<svg version="1.1" id="Layer_1" xmlns="http://www.w3.org/2000/svg" xmlns:xlink="http://www.w3.org/1999/xlink" x="0px" y="0px"
	 width="1019.068px" height="580.661px" viewBox="0 0 1019.068 580.661" enable-background="new 0 0 1019.068 580.661"
	 xml:space="preserve">
<g>
	<path fill="#E4F3FB" d="M186.359,342.709c-60.194,31.418-84.099,104.789-53.379,164.065
		c30.775,59.389,104.722,82.145,165.158,50.822c12.42-6.438,23.302-14.66,32.488-24.175l-95.987-85.521L186.359,342.709z"/>
	<path fill="#82CFF5" d="M367.922,381.929c-34.259-66.111-114.903-92.849-183.148-62.144
		c11.328,27.905,54.136,124.368,53.634,123.396c-0.244-0.472,84.358,71.322,110.629,94.139
		C385.416,494.974,394.79,433.781,367.922,381.929z"/>
</g>
<g>
	<g>
		<path fill="#110906" d="M286.689,425.851c0,0.408-0.316,0.727-0.726,0.727h-4.217v7.662c0,0.408-0.362,0.726-0.726,0.726h-2.449
			c-0.361,0-0.726-0.315-0.726-0.726v-7.662h-17.864c-0.408,0-0.726-0.271-0.726-0.68v-2.449c0-0.137,0-0.408,0.136-0.59
			l15.146-21.129c0.091-0.137,0.316-0.272,0.452-0.272h6.031c0.407,0,0.726,0.317,0.726,0.726v20.994h4.217
			c0.408,0,0.726,0.362,0.726,0.725V425.851L286.689,425.851z M277.848,404.677h-1.36l-13.466,18.545h14.826V404.677z"/>
		<path fill="#110906" d="M317.244,425.851c0,0.408-0.317,0.727-0.727,0.727h-4.217v7.662c0,0.408-0.363,0.726-0.727,0.726h-2.447
			c-0.363,0-0.727-0.315-0.727-0.726v-7.662h-17.864c-0.407,0-0.727-0.271-0.727-0.68v-2.449c0-0.137,0-0.408,0.136-0.59
			l15.146-21.129c0.091-0.137,0.315-0.272,0.452-0.272h6.03c0.407,0,0.727,0.317,0.727,0.726v20.994h4.217
			c0.408,0,0.727,0.362,0.727,0.725V425.851L317.244,425.851z M308.402,404.677h-1.359l-13.467,18.545h14.826V404.677z"/>
		<path fill="#110906" d="M327.939,418.142c-6.575,0-7.345-4.262-7.345-8.613s0.77-8.66,7.345-8.66c6.529,0,7.301,4.309,7.301,8.66
			S334.469,418.142,327.939,418.142z M327.895,403.454c-3.764,0-4.216,2.269-4.216,6.03c0,3.808,0.498,6.076,4.216,6.076
			c3.763,0,4.262-2.27,4.262-6.076C332.156,405.72,331.656,403.454,327.895,403.454z M328.711,434.964
			c-0.047,0.09-0.183,0.137-0.318,0.137c-0.09,0-0.136,0-0.227-0.047l-1.496-1.041c-0.137-0.091-0.182-0.227-0.182-0.363
			c0-0.045,0.045-0.135,0.091-0.227l21.491-31.876c0.092-0.136,0.229-0.181,0.317-0.181c0.092,0,0.182,0.045,0.228,0.09l1.541,1.044
			c0.091,0.044,0.184,0.183,0.184,0.317c0,0.091-0.047,0.181-0.093,0.271L328.711,434.964z M348.888,435.554
			c-6.574,0-7.347-4.262-7.347-8.615c0-4.353,0.771-8.66,7.347-8.66s7.346,4.308,7.346,8.66
			C356.234,431.292,355.463,435.554,348.888,435.554z M348.888,420.863c-3.763,0-4.262,2.269-4.262,6.076
			c0,3.765,0.499,6.031,4.262,6.031c3.764,0,4.262-2.268,4.262-6.031C353.149,423.13,352.651,420.863,348.888,420.863z"/>
	</g>
</g>
<path fill="#008DD1" d="M1015.061,982.864"/>
</svg>
