<?xml version="1.0" encoding="utf-8"?>
<!-- Generator: Adobe Illustrator 16.0.4, SVG Export Plug-In . SVG Version: 6.00 Build 0)  -->
<!DOCTYPE svg PUBLIC "-//W3C//DTD SVG 1.1//EN" "http://www.w3.org/Graphics/SVG/1.1/DTD/svg11.dtd">
<svg version="1.1" id="Layer_1" xmlns="http://www.w3.org/2000/svg" xmlns:xlink="http://www.w3.org/1999/xlink" x="0px" y="0px"
	 width="1019.069px" height="580.661px" viewBox="0 0 1019.069 580.661" enable-background="new 0 0 1019.069 580.661"
	 xml:space="preserve">
<polygon fill="#E4F3FB" points="1002.518,161.082 33.418,175.011 0,0 1019.069,11.95 "/>
<g>
	<g>
		<path fill="#110906" d="M130.562,53.167c-0.076,0.302-0.227,0.415-0.491,0.415c-0.151,0-0.265,0-0.416-0.038
			c-1.737-0.415-4.761-1.436-9.067-1.436c-7.632,0-9.369,3.438-9.369,11.599c0,8.501,1.851,11.637,10.163,11.637
			c3.211,0,6.045-0.68,6.045-0.68v-9.823l-5.101-0.566c-0.189-0.038-0.34-0.151-0.34-0.341V61.97c0-0.189,0.188-0.34,0.377-0.34
			h7.821c0.34,0,0.453,0.15,0.453,0.49v11.297c0,2.115-0.151,3.061-1.775,3.665c-1.965,0.755-5.97,1.058-7.557,1.058
			c-9.86,0-13.374-3.627-13.374-14.433c0-9.294,2.418-14.47,12.618-14.47c5.214,0,9.295,1.322,9.823,1.549
			c0.378,0.151,0.566,0.265,0.566,0.604c0,0.076,0,0.189-0.037,0.34L130.562,53.167z"/>
		<path fill="#110906" d="M145.103,80.558c-1.096,3.514-2.229,5.024-6.271,5.024c-1.209,0-1.927-0.037-2.645-0.15
			c-0.34-0.076-0.415-0.265-0.415-0.416v-1.662c0-0.189,0.188-0.378,0.415-0.378h0.038c0.378,0,1.436,0.038,2.191,0.038
			c1.927,0,3.022-0.378,3.627-2.494l0.868-2.871h-1.549c-0.34,0-0.642-0.227-0.755-0.604l-6.31-18.626
			c0-0.075-0.038-0.113-0.038-0.151c0-0.227,0.227-0.453,0.453-0.453h2.229c0.378,0,0.491,0.227,0.566,0.491l5.365,17.152h0.982
			l4.836-17.152c0.037-0.265,0.264-0.491,0.604-0.491h2.38c0.227,0,0.453,0.189,0.453,0.453c0,0.038,0,0.076-0.037,0.113
			L145.103,80.558z"/>
		<path fill="#110906" d="M184.884,77.648h-1.852c-0.378,0-0.604-0.227-0.604-0.566V63.103c0-2.493-0.907-3.362-3.552-3.362
			c-3.514,0-7.103,1.058-7.103,1.058v16.284c0,0.378-0.151,0.566-0.529,0.566h-1.851c-0.341,0-0.567-0.227-0.567-0.566V63.103
			c0-2.493-0.944-3.362-3.589-3.362c-3.514,0-7.065,1.058-7.065,1.058v16.284c0,0.34-0.188,0.566-0.528,0.566h-1.89
			c-0.34,0-0.566-0.227-0.566-0.566v-15.68c0-1.511,0.075-2.19,1.965-2.833c1.965-0.681,5.742-1.247,8.16-1.247
			c2.381,0,4.081,0.453,5.139,1.436c2.115-0.831,6.196-1.436,8.501-1.436c4.495,0,6.498,1.398,6.498,5.44v14.319
			C185.45,77.422,185.224,77.648,184.884,77.648z"/>
		<path fill="#110906" d="M206.564,77.648h-1.851c-0.341,0-0.567-0.227-0.567-0.566V63.103c0-2.493-0.944-3.362-3.589-3.362
			c-3.514,0-7.065,1.058-7.065,1.058v16.284c0,0.34-0.188,0.566-0.528,0.566h-1.89c-0.34,0-0.566-0.227-0.566-0.566v-15.68
			c0-1.511,0.075-2.19,1.965-2.833c1.965-0.681,5.742-1.247,8.16-1.247c4.496,0,6.499,1.398,6.499,5.44v14.319
			C207.132,77.422,206.905,77.648,206.564,77.648z"/>
		<path fill="#110906" d="M224.81,77.61c-1.096,0.227-2.909,0.529-4.911,0.529c-3.249,0-8.652-0.113-8.652-6.234
			c0-5.062,2.796-5.326,6.536-5.931l7.141-1.172v-1.775c0-1.209-0.038-2.191-1.36-2.683c-0.718-0.302-1.775-0.453-3.438-0.453
			c-2.909,0-5.44,0.718-6.989,1.096c-0.076,0-0.151,0.037-0.227,0.037c-0.151,0-0.303-0.075-0.378-0.302l-0.341-1.7v-0.075
			c0-0.303,0.265-0.416,0.378-0.454c1.209-0.453,4.458-1.171,7.896-1.171c2.683,0,4.42,0.378,5.516,0.982
			c1.927,1.021,1.965,2.796,1.965,4.571V73.72C227.945,76.364,227.417,76.969,224.81,77.61z M224.961,67.184l-6.952,1.171
			c-1.813,0.34-3.664,0.415-3.664,3.4c0,3.777,3.098,4.042,5.591,4.042c1.663,0,3.438-0.227,5.025-0.755V67.184z"/>
		<path fill="#110906" d="M239.088,78.14c-3.324,0-6.196-1.096-6.688-1.284c-0.15-0.076-0.302-0.151-0.302-0.378v-0.113l0.378-1.474
			c0.038-0.189,0.151-0.34,0.415-0.34h0.189c0.302,0.113,2.984,1.096,6.082,1.096c3.212,0,5.063-1.021,5.063-3.325
			c0-3.136-2.418-3.022-5.365-3.476c-1.852-0.303-6.574-0.643-6.574-5.63c0-4.873,4.345-5.894,7.67-5.894
			c3.249,0,5.742,0.681,6.158,0.794c0.265,0.037,0.378,0.227,0.378,0.415v0.075l-0.265,1.663c-0.038,0.227-0.188,0.302-0.34,0.302
			h-0.075c-0.529-0.037-3.325-0.718-5.555-0.718c-2.72,0-4.986,0.756-4.986,3.136c0,2.569,2.568,2.871,4.911,3.174
			c3.4,0.453,7.065,0.718,7.065,5.856C247.249,76.931,243.471,78.14,239.088,78.14z"/>
		<path fill="#110906" d="M254.348,54.413h-1.851c-0.34,0-0.567-0.227-0.567-0.528v-4.081c0-0.34,0.228-0.566,0.567-0.566h1.851
			c0.341,0,0.567,0.227,0.567,0.566v4.081C254.915,54.187,254.688,54.413,254.348,54.413z M254.348,77.648h-1.851
			c-0.34,0-0.567-0.227-0.567-0.566V58.38c0-0.34,0.228-0.566,0.567-0.566h1.851c0.341,0,0.567,0.227,0.567,0.566v18.702
			C254.915,77.422,254.688,77.648,254.348,77.648z"/>
		<path fill="#110906" d="M277.28,69.186c-0.038,0.188-0.303,0.491-0.491,0.491h-13.866c0,2.078,0.378,3.249,1.172,4.231
			c1.096,1.397,2.946,1.813,5.591,1.813c2.343,0,3.778-0.453,5.554-0.944c0.076-0.038,0.151-0.076,0.228-0.076
			c0.15,0,0.302,0.113,0.377,0.341l0.416,1.436v0.15c0,0.189-0.151,0.303-0.378,0.416c-1.511,0.604-4.005,1.096-6.498,1.096
			c-7.405,0-9.597-3.438-9.597-10.39c0-6.385,1.285-10.428,8.766-10.428c3.967,0,6.271,1.209,7.519,3.362
			c0.981,1.7,1.209,4.043,1.209,6.649V69.186z M273.69,62.914c-0.68-2.418-2.153-3.212-5.214-3.212
			c-3.022,0-4.495,0.794-5.138,3.212c-0.378,1.397-0.416,2.871-0.453,4.27l11.258-0.038C274.106,65.71,274.03,64.312,273.69,62.914z
			"/>
		<path fill="#110906" d="M289.896,78.14c-6.649,0-8.312-2.834-8.312-7.82V58.305c0-0.302,0.188-0.416,0.491-0.491l2.04-0.491h0.113
			c0.265,0,0.34,0.265,0.34,0.491v12.808c0,3.552,1.247,5.139,5.327,5.139c4.911,0,5.289-2.418,5.289-5.252V58.305
			c0-0.302,0.227-0.416,0.491-0.491l2.04-0.491h0.113c0.265,0,0.378,0.265,0.378,0.491v12.43
			C298.207,73.983,297.679,78.14,289.896,78.14z"/>
		<path fill="#110906" d="M317.095,77.384c-1.209,0.303-2.796,0.756-5.78,0.756c-7.33,0-9.03-3.325-9.03-10.428
			c0-7.254,2.003-10.39,8.803-10.39c2.607,0,4.496,0.416,5.781,0.756l-0.378-2.191V50.22c0-0.303,0.188-0.416,0.491-0.453
			l2.04-0.529h0.113c0.265,0,0.34,0.265,0.34,0.491v24.671C319.475,75.797,319.475,76.855,317.095,77.384z M316.49,60.383
			c0,0-2.381-0.681-5.101-0.681c-4.156,0-6.007,1.322-6.007,8.048c0,7.179,2.19,8.01,6.045,8.01c2.796,0,5.062-0.718,5.062-0.718
			V60.383z"/>
		<path fill="#110906" d="M338.589,77.384c-1.209,0.303-2.796,0.756-5.78,0.756c-7.33,0-9.03-3.325-9.03-10.428
			c0-7.254,2.003-10.39,8.803-10.39c2.607,0,4.496,0.416,5.781,0.756l-0.378-2.191V50.22c0-0.303,0.188-0.416,0.491-0.453
			l2.04-0.529h0.113c0.265,0,0.34,0.265,0.34,0.491v24.671C340.969,75.797,340.969,76.855,338.589,77.384z M337.984,60.383
			c0,0-2.381-0.681-5.101-0.681c-4.156,0-6.007,1.322-6.007,8.048c0,7.179,2.19,8.01,6.045,8.01c2.796,0,5.062-0.718,5.062-0.718
			V60.383z"/>
		<path fill="#110906" d="M358.836,77.61c-1.096,0.227-2.909,0.529-4.911,0.529c-3.249,0-8.652-0.113-8.652-6.234
			c0-5.062,2.796-5.326,6.536-5.931l7.141-1.172v-1.775c0-1.209-0.038-2.191-1.36-2.683c-0.718-0.302-1.775-0.453-3.438-0.453
			c-2.909,0-5.44,0.718-6.989,1.096c-0.076,0-0.151,0.037-0.228,0.037c-0.15,0-0.302-0.075-0.377-0.302l-0.341-1.7v-0.075
			c0-0.303,0.265-0.416,0.378-0.454c1.209-0.453,4.458-1.171,7.896-1.171c2.683,0,4.42,0.378,5.516,0.982
			c1.927,1.021,1.965,2.796,1.965,4.571V73.72C361.972,76.364,361.442,76.969,358.836,77.61z M358.987,67.184l-6.952,1.171
			c-1.813,0.34-3.664,0.415-3.664,3.4c0,3.777,3.098,4.042,5.591,4.042c1.663,0,3.438-0.227,5.025-0.755V67.184z"/>
		<path fill="#110906" d="M383.126,77.648h-1.851c-0.341,0-0.567-0.227-0.567-0.566V63.103c0-2.493-0.944-3.362-3.589-3.362
			c-3.514,0-7.065,1.058-7.065,1.058v16.284c0,0.34-0.188,0.566-0.528,0.566h-1.89c-0.34,0-0.566-0.227-0.566-0.566v-15.68
			c0-1.511,0.076-2.19,1.965-2.833c1.965-0.681,5.742-1.247,8.16-1.247c4.496,0,6.499,1.398,6.499,5.44v14.319
			C383.693,77.422,383.466,77.648,383.126,77.648z"/>
		<path fill="#110906" d="M404.847,77.648h-1.851c-0.341,0-0.567-0.227-0.567-0.566V63.103c0-2.493-0.944-3.362-3.589-3.362
			c-3.514,0-7.065,1.058-7.065,1.058v16.284c0,0.34-0.188,0.566-0.528,0.566h-1.89c-0.34,0-0.566-0.227-0.566-0.566v-15.68
			c0-1.511,0.076-2.19,1.965-2.833c1.965-0.681,5.742-1.247,8.16-1.247c4.496,0,6.499,1.398,6.499,5.44v14.319
			C405.414,77.422,405.187,77.648,404.847,77.648z"/>
		<path fill="#110906" d="M427.206,69.186c-0.038,0.188-0.303,0.491-0.491,0.491h-13.866c0,2.078,0.378,3.249,1.172,4.231
			c1.096,1.397,2.946,1.813,5.591,1.813c2.343,0,3.778-0.453,5.554-0.944c0.076-0.038,0.151-0.076,0.228-0.076
			c0.15,0,0.302,0.113,0.377,0.341l0.416,1.436v0.15c0,0.189-0.151,0.303-0.378,0.416c-1.511,0.604-4.005,1.096-6.498,1.096
			c-7.405,0-9.597-3.438-9.597-10.39c0-6.385,1.285-10.428,8.766-10.428c3.967,0,6.271,1.209,7.519,3.362
			c0.981,1.7,1.209,4.043,1.209,6.649V69.186z M423.616,62.914c-0.68-2.418-2.153-3.212-5.214-3.212
			c-3.022,0-4.495,0.794-5.138,3.212c-0.378,1.397-0.416,2.871-0.453,4.27l11.258-0.038
			C424.032,65.71,423.956,64.312,423.616,62.914z"/>
		<path fill="#110906" d="M438.461,77.195c0,0.265-0.188,0.34-0.302,0.378c-0.303,0.15-1.322,0.453-2.683,0.453
			c-2.267,0-3.778-1.096-3.778-3.892V50.22c0-0.303,0.189-0.416,0.453-0.453l2.041-0.529h0.113c0.264,0,0.377,0.265,0.377,0.491
			V74.06c0,1.359,0.945,1.549,1.7,1.549c0.529,0,1.134-0.076,1.322-0.151h0.189c0.113,0,0.227,0.038,0.265,0.265l0.264,1.322
			C438.423,77.119,438.461,77.157,438.461,77.195z"/>
		<path fill="#110906" d="M447.867,78.14c-3.324,0-6.196-1.096-6.688-1.284c-0.15-0.076-0.302-0.151-0.302-0.378v-0.113l0.378-1.474
			c0.038-0.189,0.151-0.34,0.415-0.34h0.189c0.302,0.113,2.984,1.096,6.082,1.096c3.212,0,5.063-1.021,5.063-3.325
			c0-3.136-2.418-3.022-5.365-3.476c-1.852-0.303-6.574-0.643-6.574-5.63c0-4.873,4.345-5.894,7.67-5.894
			c3.249,0,5.742,0.681,6.158,0.794c0.265,0.037,0.378,0.227,0.378,0.415v0.075l-0.265,1.663c-0.038,0.227-0.188,0.302-0.34,0.302
			h-0.075c-0.529-0.037-3.325-0.718-5.555-0.718c-2.72,0-4.986,0.756-4.986,3.136c0,2.569,2.568,2.871,4.911,3.174
			c3.4,0.453,7.065,0.718,7.065,5.856C456.028,76.931,452.25,78.14,447.867,78.14z"/>
		<path fill="#110906" d="M476.838,69.186c-0.038,0.188-0.303,0.491-0.491,0.491H462.48c0,2.078,0.378,3.249,1.172,4.231
			c1.096,1.397,2.946,1.813,5.591,1.813c2.343,0,3.778-0.453,5.554-0.944c0.076-0.038,0.151-0.076,0.228-0.076
			c0.15,0,0.302,0.113,0.377,0.341l0.416,1.436v0.15c0,0.189-0.151,0.303-0.378,0.416c-1.511,0.604-4.005,1.096-6.498,1.096
			c-7.405,0-9.597-3.438-9.597-10.39c0-6.385,1.285-10.428,8.766-10.428c3.967,0,6.271,1.209,7.519,3.362
			c0.981,1.7,1.209,4.043,1.209,6.649V69.186z M473.248,62.914c-0.68-2.418-2.153-3.212-5.214-3.212
			c-3.022,0-4.495,0.794-5.138,3.212c-0.378,1.397-0.416,2.871-0.453,4.27l11.259-0.038
			C473.664,65.71,473.588,64.312,473.248,62.914z"/>
		<path fill="#110906" d="M490.964,59.967c-2.493,0-4.533,0.189-6.649,0.718v16.397c0,0.34-0.188,0.566-0.528,0.566h-1.89
			c0,0-0.566-0.227-0.566-0.566V61.327c0-1.662,0.34-2.153,1.625-2.758c1.662-0.756,5.062-1.247,6.876-1.247h0.944
			c0.188,0,0.529,0.075,0.529,0.566v1.625C491.305,59.778,491.229,59.967,490.964,59.967z"/>
		<path fill="#110906" d="M510.192,77.648h-1.851c-0.341,0-0.567-0.227-0.567-0.566V63.103c0-2.493-0.944-3.362-3.589-3.362
			c-3.514,0-7.065,1.058-7.065,1.058v16.284c0,0.34-0.188,0.566-0.528,0.566h-1.89c-0.34,0-0.566-0.227-0.566-0.566v-15.68
			c0-1.511,0.076-2.19,1.965-2.833c1.965-0.681,5.742-1.247,8.16-1.247c4.496,0,6.499,1.398,6.499,5.44v14.319
			C510.76,77.422,510.532,77.648,510.192,77.648z"/>
		<path fill="#110906" d="M532.552,69.186c-0.038,0.188-0.303,0.491-0.491,0.491h-13.866c0,2.078,0.378,3.249,1.172,4.231
			c1.096,1.397,2.946,1.813,5.591,1.813c2.343,0,3.778-0.453,5.554-0.944c0.076-0.038,0.151-0.076,0.228-0.076
			c0.15,0,0.302,0.113,0.377,0.341l0.416,1.436v0.15c0,0.189-0.151,0.303-0.378,0.416c-1.511,0.604-4.005,1.096-6.498,1.096
			c-7.405,0-9.597-3.438-9.597-10.39c0-6.385,1.285-10.428,8.766-10.428c3.967,0,6.271,1.209,7.519,3.362
			c0.981,1.7,1.209,4.043,1.209,6.649V69.186z M528.962,62.914c-0.68-2.418-2.153-3.212-5.214-3.212
			c-3.022,0-4.495,0.794-5.138,3.212c-0.378,1.397-0.416,2.871-0.453,4.27l11.258-0.038
			C529.378,65.71,529.302,64.312,528.962,62.914z"/>
		<path fill="#110906" d="M565.265,69.186c-0.038,0.188-0.303,0.491-0.491,0.491h-13.866c0,2.078,0.378,3.249,1.172,4.231
			c1.096,1.397,2.946,1.813,5.591,1.813c2.343,0,3.778-0.453,5.554-0.944c0.076-0.038,0.151-0.076,0.228-0.076
			c0.15,0,0.302,0.113,0.377,0.341l0.416,1.436v0.15c0,0.189-0.151,0.303-0.378,0.416c-1.511,0.604-4.005,1.096-6.498,1.096
			c-7.405,0-9.597-3.438-9.597-10.39c0-6.385,1.285-10.428,8.766-10.428c3.967,0,6.271,1.209,7.519,3.362
			c0.981,1.7,1.209,4.043,1.209,6.649V69.186z M561.675,62.914c-0.68-2.418-2.153-3.212-5.214-3.212
			c-3.022,0-4.495,0.794-5.138,3.212c-0.378,1.397-0.416,2.871-0.453,4.27l11.258-0.038
			C562.091,65.71,562.015,64.312,561.675,62.914z"/>
		<path fill="#110906" d="M579.391,59.967c-2.493,0-4.533,0.189-6.649,0.718v16.397c0,0.34-0.188,0.566-0.528,0.566h-1.89
			c0,0-0.566-0.227-0.566-0.566V61.327c0-1.662,0.34-2.153,1.625-2.758c1.662-0.756,5.062-1.247,6.876-1.247h0.944
			c0.188,0,0.529,0.075,0.529,0.566v1.625C579.731,59.778,579.655,59.967,579.391,59.967z"/>
		<path fill="#110906" d="M623.968,77.648h-1.851c-0.378,0-0.604-0.227-0.604-0.566V63.103c0-2.493-0.907-3.362-3.552-3.362
			c-3.514,0-7.103,1.058-7.103,1.058v16.284c0,0.378-0.151,0.566-0.529,0.566h-1.851c-0.341,0-0.567-0.227-0.567-0.566V63.103
			c0-2.493-0.944-3.362-3.589-3.362c-3.514,0-7.065,1.058-7.065,1.058v16.284c0,0.34-0.188,0.566-0.528,0.566h-1.89
			c-0.34,0-0.566-0.227-0.566-0.566v-15.68c0-1.511,0.076-2.19,1.965-2.833c1.965-0.681,5.742-1.247,8.16-1.247
			c2.381,0,4.081,0.453,5.139,1.436c2.115-0.831,6.196-1.436,8.501-1.436c4.495,0,6.498,1.398,6.498,5.44v14.319
			C624.535,77.422,624.309,77.648,623.968,77.648z"/>
		<path fill="#110906" d="M646.287,69.186c-0.038,0.188-0.303,0.491-0.491,0.491H631.93c0,2.078,0.378,3.249,1.172,4.231
			c1.096,1.397,2.946,1.813,5.591,1.813c2.343,0,3.778-0.453,5.554-0.944c0.076-0.038,0.151-0.076,0.228-0.076
			c0.15,0,0.302,0.113,0.377,0.341l0.416,1.436v0.15c0,0.189-0.151,0.303-0.378,0.416c-1.511,0.604-4.005,1.096-6.498,1.096
			c-7.405,0-9.597-3.438-9.597-10.39c0-6.385,1.285-10.428,8.766-10.428c3.967,0,6.271,1.209,7.519,3.362
			c0.981,1.7,1.209,4.043,1.209,6.649V69.186z M642.697,62.914c-0.68-2.418-2.153-3.212-5.214-3.212
			c-3.022,0-4.495,0.794-5.138,3.212c-0.378,1.397-0.416,2.871-0.453,4.27l11.259-0.038
			C643.113,65.71,643.037,64.312,642.697,62.914z"/>
		<path fill="#110906" d="M664.608,77.384c-1.209,0.303-2.796,0.756-5.78,0.756c-7.33,0-9.03-3.325-9.03-10.428
			c0-7.254,2.003-10.39,8.803-10.39c2.607,0,4.496,0.416,5.781,0.756l-0.378-2.191V50.22c0-0.303,0.188-0.416,0.491-0.453
			l2.04-0.529h0.113c0.265,0,0.34,0.265,0.34,0.491v24.671C666.988,75.797,666.988,76.855,664.608,77.384z M664.004,60.383
			c0,0-2.381-0.681-5.101-0.681c-4.156,0-6.007,1.322-6.007,8.048c0,7.179,2.19,8.01,6.045,8.01c2.796,0,5.062-0.718,5.062-0.718
			V60.383z"/>
		<path fill="#110906" d="M694.411,77.044c0,0.151-0.151,0.34-0.303,0.378c-0.831,0.265-2.455,0.718-4.609,0.718
			c-3.74,0-5.516-1.625-5.516-5.252V52.108c0-0.302,0.189-0.415,0.453-0.453l2.041-0.529h0.113c0.264,0,0.377,0.265,0.377,0.491
			v6.196h6.348c0.34,0,0.566,0.227,0.566,0.566v1.285c0,0.34-0.227,0.566-0.566,0.566h-6.348V73.19c0,2.078,1.134,2.531,3.099,2.531
			c1.171,0,2.683-0.303,3.476-0.491h0.113c0.189,0,0.34,0.113,0.416,0.34l0.34,1.398V77.044z"/>
		<path fill="#110906" d="M700.567,54.413h-1.851c-0.34,0-0.567-0.227-0.567-0.528v-4.081c0-0.34,0.228-0.566,0.567-0.566h1.851
			c0.341,0,0.567,0.227,0.567,0.566v4.081C701.135,54.187,700.908,54.413,700.567,54.413z M700.567,77.648h-1.851
			c-0.34,0-0.567-0.227-0.567-0.566V58.38c0-0.34,0.228-0.566,0.567-0.566h1.851c0.341,0,0.567,0.227,0.567,0.566v18.702
			C701.135,77.422,700.908,77.648,700.567,77.648z"/>
		<path fill="#110906" d="M713.752,77.195c0,0.265-0.188,0.34-0.302,0.378c-0.303,0.15-1.322,0.453-2.683,0.453
			c-2.267,0-3.778-1.096-3.778-3.892V50.22c0-0.303,0.189-0.416,0.453-0.453l2.041-0.529h0.113c0.264,0,0.377,0.265,0.377,0.491
			V74.06c0,1.359,0.945,1.549,1.7,1.549c0.529,0,1.134-0.076,1.322-0.151h0.189c0.113,0,0.227,0.038,0.265,0.265l0.264,1.322
			C713.714,77.119,713.752,77.157,713.752,77.195z"/>
		<path fill="#110906" d="M741.402,77.61c-1.096,0.227-2.909,0.529-4.911,0.529c-3.249,0-8.652-0.113-8.652-6.234
			c0-5.062,2.796-5.326,6.536-5.931l7.141-1.172v-1.775c0-1.209-0.038-2.191-1.36-2.683c-0.718-0.302-1.775-0.453-3.438-0.453
			c-2.909,0-5.44,0.718-6.989,1.096c-0.076,0-0.151,0.037-0.228,0.037c-0.15,0-0.302-0.075-0.377-0.302l-0.341-1.7v-0.075
			c0-0.303,0.265-0.416,0.378-0.454c1.209-0.453,4.458-1.171,7.896-1.171c2.683,0,4.42,0.378,5.516,0.982
			c1.927,1.021,1.965,2.796,1.965,4.571V73.72C744.538,76.364,744.009,76.969,741.402,77.61z M741.554,67.184l-6.952,1.171
			c-1.813,0.34-3.664,0.415-3.664,3.4c0,3.777,3.098,4.042,5.591,4.042c1.663,0,3.438-0.227,5.025-0.755V67.184z"/>
		<path fill="#110906" d="M760.063,77.044c0,0.151-0.151,0.34-0.303,0.378c-0.831,0.265-2.455,0.718-4.609,0.718
			c-3.74,0-5.516-1.625-5.516-5.252V52.108c0-0.302,0.189-0.415,0.453-0.453l2.041-0.529h0.113c0.264,0,0.377,0.265,0.377,0.491
			v6.196h6.348c0.34,0,0.566,0.227,0.566,0.566v1.285c0,0.34-0.227,0.566-0.566,0.566h-6.348V73.19c0,2.078,1.134,2.531,3.099,2.531
			c1.171,0,2.683-0.303,3.476-0.491h0.113c0.189,0,0.34,0.113,0.416,0.34l0.34,1.398V77.044z"/>
		<path fill="#110906" d="M783.294,78.14c-2.683,0-5.138-0.453-6.385-0.869c-1.889-0.643-1.965-1.587-1.965-2.984V50.22
			c0-0.303,0.189-0.416,0.453-0.453l2.041-0.529h0.113c0.264,0,0.377,0.265,0.377,0.491v6.536l-0.377,2.153
			c0,0,3.702-1.096,6.573-1.096c6.271,0,8.01,3.212,8.01,10.353C792.135,75.042,790.132,78.14,783.294,78.14z M783.634,59.778
			c-2.342,0-5.705,0.906-5.705,0.906v14.395c0,0,2.078,0.681,5.29,0.681c4.345,0,5.818-2.04,5.818-8.01
			C789.037,61.667,787.979,59.778,783.634,59.778z"/>
		<path fill="#110906" d="M806.072,59.967c-2.493,0-4.533,0.189-6.649,0.718v16.397c0,0.34-0.188,0.566-0.528,0.566h-1.89
			c0,0-0.566-0.227-0.566-0.566V61.327c0-1.662,0.34-2.153,1.625-2.758c1.662-0.756,5.062-1.247,6.876-1.247h0.944
			c0.188,0,0.529,0.075,0.529,0.566v1.625C806.413,59.778,806.337,59.967,806.072,59.967z"/>
		<path fill="#110906" d="M818.724,80.558c-1.096,3.514-2.229,5.024-6.271,5.024c-1.209,0-1.927-0.037-2.645-0.15
			c-0.34-0.076-0.415-0.265-0.415-0.416v-1.662c0-0.189,0.188-0.378,0.415-0.378h0.038c0.378,0,1.436,0.038,2.191,0.038
			c1.927,0,3.022-0.378,3.627-2.494l0.868-2.871h-1.549c-0.34,0-0.642-0.227-0.755-0.604l-6.31-18.626
			c0-0.075-0.038-0.113-0.038-0.151c0-0.227,0.227-0.453,0.453-0.453h2.229c0.378,0,0.491,0.227,0.566,0.491l5.365,17.152h0.982
			l4.836-17.152c0.037-0.265,0.264-0.491,0.604-0.491h2.38c0.227,0,0.453,0.189,0.453,0.453c0,0.038,0,0.076-0.037,0.113
			L818.724,80.558z"/>
		<path fill="#110906" d="M842.637,77.384c-1.209,0.303-2.796,0.756-5.78,0.756c-7.33,0-9.03-3.325-9.03-10.428
			c0-7.254,2.003-10.39,8.803-10.39c2.607,0,4.496,0.416,5.781,0.756l-0.378-2.191V50.22c0-0.303,0.188-0.416,0.491-0.453
			l2.04-0.529h0.113c0.265,0,0.34,0.265,0.34,0.491v24.671C845.017,75.797,845.017,76.855,842.637,77.384z M842.032,60.383
			c0,0-2.381-0.681-5.101-0.681c-4.156,0-6.007,1.322-6.007,8.048c0,7.179,2.191,8.01,6.045,8.01c2.795,0,5.062-0.718,5.062-0.718
			V60.383z"/>
		<path fill="#110906" d="M866.813,69.186c-0.038,0.188-0.303,0.491-0.491,0.491h-13.866c0,2.078,0.378,3.249,1.172,4.231
			c1.096,1.397,2.946,1.813,5.591,1.813c2.343,0,3.778-0.453,5.554-0.944c0.076-0.038,0.151-0.076,0.228-0.076
			c0.15,0,0.302,0.113,0.377,0.341l0.416,1.436v0.15c0,0.189-0.151,0.303-0.378,0.416c-1.511,0.604-4.005,1.096-6.498,1.096
			c-7.405,0-9.597-3.438-9.597-10.39c0-6.385,1.285-10.428,8.766-10.428c3.967,0,6.271,1.209,7.519,3.362
			c0.981,1.7,1.209,4.043,1.209,6.649V69.186z M863.224,62.914c-0.68-2.418-2.153-3.212-5.214-3.212
			c-3.022,0-4.495,0.794-5.138,3.212c-0.378,1.397-0.416,2.871-0.453,4.27l11.258-0.038C863.64,65.71,863.563,64.312,863.224,62.914
			z"/>
		<path fill="#110906" d="M896.844,77.384c-1.209,0.303-2.796,0.756-5.78,0.756c-7.33,0-9.03-3.325-9.03-10.428
			c0-7.254,2.003-10.39,8.803-10.39c2.607,0,4.496,0.416,5.781,0.756l-0.378-2.191V50.22c0-0.303,0.188-0.416,0.491-0.453
			l2.04-0.529h0.113c0.265,0,0.34,0.265,0.34,0.491v24.671C899.224,75.797,899.224,76.855,896.844,77.384z M896.239,60.383
			c0,0-2.381-0.681-5.101-0.681c-4.156,0-6.007,1.322-6.007,8.048c0,7.179,2.191,8.01,6.045,8.01c2.795,0,5.062-0.718,5.062-0.718
			V60.383z"/>
		<path fill="#110906" d="M921.021,69.186c-0.038,0.188-0.303,0.491-0.491,0.491h-13.866c0,2.078,0.378,3.249,1.172,4.231
			c1.096,1.397,2.946,1.813,5.591,1.813c2.343,0,3.778-0.453,5.554-0.944c0.076-0.038,0.151-0.076,0.228-0.076
			c0.15,0,0.302,0.113,0.377,0.341L920,76.478v0.15c0,0.189-0.151,0.303-0.378,0.416c-1.511,0.604-4.005,1.096-6.498,1.096
			c-7.405,0-9.597-3.438-9.597-10.39c0-6.385,1.285-10.428,8.766-10.428c3.967,0,6.271,1.209,7.519,3.362
			c0.981,1.7,1.209,4.043,1.209,6.649V69.186z M917.431,62.914c-0.68-2.418-2.153-3.212-5.214-3.212
			c-3.022,0-4.495,0.794-5.138,3.212c-0.378,1.397-0.416,2.871-0.453,4.27l11.258-0.038
			C917.847,65.71,917.771,64.312,917.431,62.914z"/>
		<path fill="#110906" d="M941.569,77.648h-1.851c-0.341,0-0.567-0.227-0.567-0.566V63.103c0-2.493-0.944-3.362-3.589-3.362
			c-3.514,0-7.065,1.058-7.065,1.058v16.284c0,0.34-0.188,0.566-0.528,0.566h-1.89c-0.34,0-0.566-0.227-0.566-0.566v-15.68
			c0-1.511,0.076-2.19,1.965-2.833c1.965-0.681,5.742-1.247,8.16-1.247c4.496,0,6.499,1.398,6.499,5.44v14.319
			C942.137,77.422,941.909,77.648,941.569,77.648z"/>
		<path fill="#110906" d="M124.554,122.979h-1.851c-0.341,0-0.567-0.227-0.567-0.566v-13.979c0-2.493-0.944-3.362-3.589-3.362
			c-3.514,0-7.065,1.058-7.065,1.058v16.284c0,0.34-0.188,0.566-0.528,0.566h-1.89c-0.34,0-0.566-0.227-0.566-0.566v-15.68
			c0-1.511,0.076-2.191,1.965-2.833c1.965-0.681,5.742-1.247,8.16-1.247c4.496,0,6.499,1.398,6.499,5.44v14.319
			C125.121,122.753,124.894,122.979,124.554,122.979z"/>
		<path fill="#110906" d="M146.913,114.517c-0.038,0.188-0.303,0.491-0.491,0.491h-13.866c0,2.078,0.378,3.249,1.172,4.231
			c1.096,1.397,2.946,1.813,5.591,1.813c2.343,0,3.778-0.453,5.554-0.944c0.076-0.038,0.151-0.076,0.228-0.076
			c0.15,0,0.302,0.113,0.377,0.341l0.416,1.436v0.15c0,0.189-0.151,0.303-0.378,0.416c-1.511,0.604-4.005,1.096-6.498,1.096
			c-7.405,0-9.597-3.438-9.597-10.39c0-6.385,1.285-10.428,8.766-10.428c3.967,0,6.271,1.209,7.519,3.362
			c0.981,1.7,1.209,4.043,1.209,6.649V114.517z M143.323,108.245c-0.68-2.418-2.153-3.212-5.214-3.212
			c-3.022,0-4.495,0.794-5.138,3.212c-0.378,1.397-0.416,2.871-0.453,4.27l11.258-0.038
			C143.739,111.041,143.663,109.643,143.323,108.245z"/>
		<path fill="#110906" d="M170.409,104.693c0,0.076-0.075,0.113-0.189,0.227c-0.831,0.567-1.775,0.794-2.682,0.794
			c-0.604,0-0.643-0.038-1.512-0.189c0,0,1.625,1.36,1.625,4.043c0,5.365-3.325,6.914-8.312,6.914h-2.795
			c-1.965,0-2.418,0.982-2.418,1.965c0,1.586,1.096,2.002,2.758,2.002h5.705c3.627,0,6.195,1.096,6.195,4.458
			c0,4.685-3.777,6.233-9.181,6.233c-6.271,0-9.143-1.246-9.143-5.062c0-2.946,2.002-3.514,3.854-3.891v-0.416
			c-1.7-0.378-3.174-0.566-3.174-3.249c0-2.305,1.247-2.871,4.156-3.325c-1.775-0.566-4.27-1.058-4.27-5.629
			c0-5.176,3.4-6.914,8.274-6.914c2.342,0,3.287,0.378,4.723,0.794c0.415,0.075,0.869,0.15,1.397,0.15
			c0.567,0,1.209-0.113,1.738-0.265c0.68-0.188,1.436-0.528,1.965-0.793c0.113-0.038,0.227-0.113,0.302-0.113
			s0.151,0.075,0.189,0.227l0.718,1.889C170.371,104.618,170.409,104.656,170.409,104.693z M162.248,122.979h-5.1
			c-1.927,0-3.703,0.604-3.703,2.871c0,2.607,2.721,2.947,6.196,2.947c2.343,0,6.158-0.34,6.158-3.438
			C165.8,123.168,163.911,122.979,162.248,122.979z M159.339,104.92c-3.286,0-5.326,1.134-5.326,4.647
			c0,3.476,2.04,4.571,5.326,4.571c3.25,0,5.327-1.096,5.327-4.571C164.666,106.054,162.589,104.92,159.339,104.92z"/>
		<path fill="#110906" d="M185.291,122.941c-1.096,0.227-2.909,0.529-4.911,0.529c-3.249,0-8.652-0.113-8.652-6.233
			c0-5.063,2.796-5.327,6.536-5.932l7.141-1.172v-1.775c0-1.209-0.038-2.191-1.36-2.683c-0.718-0.302-1.775-0.453-3.438-0.453
			c-2.909,0-5.44,0.718-6.989,1.096c-0.076,0-0.151,0.038-0.228,0.038c-0.15,0-0.302-0.076-0.377-0.303l-0.341-1.7v-0.075
			c0-0.303,0.265-0.416,0.378-0.454c1.209-0.453,4.458-1.171,7.896-1.171c2.683,0,4.42,0.378,5.516,0.982
			c1.927,1.021,1.965,2.796,1.965,4.571v10.843C188.427,121.695,187.897,122.3,185.291,122.941z M185.442,112.515l-6.952,1.171
			c-1.813,0.34-3.664,0.415-3.664,3.4c0,3.778,3.098,4.042,5.591,4.042c1.663,0,3.438-0.227,5.025-0.755V112.515z"/>
		<path fill="#110906" d="M203.952,122.375c0,0.151-0.151,0.34-0.303,0.378c-0.831,0.265-2.455,0.718-4.609,0.718
			c-3.74,0-5.516-1.625-5.516-5.252V97.439c0-0.302,0.189-0.415,0.453-0.453l2.041-0.529h0.113c0.264,0,0.377,0.265,0.377,0.491
			v6.196h6.348c0.34,0,0.566,0.227,0.566,0.566v1.285c0,0.34-0.227,0.566-0.566,0.566h-6.348v12.959
			c0,2.078,1.134,2.531,3.099,2.531c1.171,0,2.683-0.303,3.476-0.491h0.113c0.189,0,0.34,0.113,0.416,0.34l0.34,1.398V122.375z"/>
		<path fill="#110906" d="M210.107,99.744h-1.851c-0.34,0-0.567-0.227-0.567-0.528v-4.081c0-0.34,0.228-0.566,0.567-0.566h1.851
			c0.341,0,0.567,0.227,0.567,0.566v4.081C210.675,99.518,210.448,99.744,210.107,99.744z M210.107,122.979h-1.851
			c-0.34,0-0.567-0.227-0.567-0.566v-18.702c0-0.34,0.228-0.566,0.567-0.566h1.851c0.341,0,0.567,0.227,0.567,0.566v18.702
			C210.675,122.753,210.448,122.979,210.107,122.979z"/>
		<path fill="#110906" d="M226.428,122.375c-0.113,0.378-0.415,0.604-0.755,0.604h-3.968c-0.378,0-0.68-0.227-0.793-0.604
			l-6.271-18.551c-0.038-0.075-0.038-0.15-0.038-0.188c0-0.265,0.151-0.491,0.378-0.491h2.267c0.378,0,0.491,0.227,0.566,0.491
			l5.365,17.152h0.982l4.836-17.152c0.075-0.265,0.265-0.491,0.643-0.491h2.342c0.265,0,0.454,0.188,0.454,0.453v0.113
			L226.428,122.375z"/>
		<path fill="#110906" d="M252.343,114.517c-0.038,0.188-0.303,0.491-0.491,0.491h-13.866c0,2.078,0.378,3.249,1.172,4.231
			c1.096,1.397,2.946,1.813,5.591,1.813c2.343,0,3.778-0.453,5.554-0.944c0.076-0.038,0.151-0.076,0.228-0.076
			c0.15,0,0.302,0.113,0.377,0.341l0.416,1.436v0.15c0,0.189-0.151,0.303-0.378,0.416c-1.511,0.604-4.005,1.096-6.498,1.096
			c-7.405,0-9.597-3.438-9.597-10.39c0-6.385,1.285-10.428,8.766-10.428c3.967,0,6.271,1.209,7.519,3.362
			c0.981,1.7,1.209,4.043,1.209,6.649V114.517z M248.753,108.245c-0.68-2.418-2.153-3.212-5.214-3.212
			c-3.022,0-4.495,0.794-5.138,3.212c-0.378,1.397-0.416,2.871-0.453,4.27l11.258-0.038
			C249.169,111.041,249.093,109.643,248.753,108.245z"/>
		<path fill="#110906" d="M274.59,123.471c-3.324,0-6.196-1.096-6.688-1.284c-0.15-0.076-0.302-0.151-0.302-0.378v-0.113
			l0.378-1.474c0.038-0.189,0.151-0.34,0.415-0.34h0.189c0.302,0.113,2.984,1.096,6.082,1.096c3.212,0,5.063-1.021,5.063-3.325
			c0-3.136-2.418-3.022-5.365-3.476c-1.852-0.303-6.574-0.643-6.574-5.63c0-4.873,4.345-5.894,7.67-5.894
			c3.249,0,5.742,0.68,6.158,0.794c0.265,0.037,0.378,0.227,0.378,0.415v0.076l-0.265,1.662c-0.038,0.227-0.188,0.302-0.34,0.302
			h-0.075c-0.529-0.037-3.325-0.718-5.555-0.718c-2.72,0-4.986,0.756-4.986,3.136c0,2.569,2.568,2.872,4.911,3.174
			c3.4,0.453,7.065,0.718,7.065,5.856C282.751,122.262,278.973,123.471,274.59,123.471z"/>
		<path fill="#110906" d="M294.724,123.471c-7.896,0-8.841-4.723-8.841-10.39c0-5.705,0.944-10.428,8.841-10.428
			c7.934,0,8.841,4.723,8.841,10.428C303.564,118.748,302.657,123.471,294.724,123.471z M294.724,105.071
			c-5.479,0-5.705,3.212-5.705,8.01c0,4.76,0.227,7.972,5.705,7.972s5.705-3.212,5.705-7.972
			C300.429,108.283,300.202,105.071,294.724,105.071z"/>
		<path fill="#110906" d="M322.366,121.997c0,0.34-0.265,0.416-0.378,0.491c-0.944,0.416-3.589,0.982-5.817,0.982
			c-7.065,0-8.917-3.325-8.917-10.39c0-7.103,1.852-10.428,8.917-10.428c2.229,0,4.873,0.566,5.817,0.982
			c0.113,0.075,0.378,0.151,0.378,0.491c0,0.075-0.037,0.151-0.037,0.188l-0.265,1.285c-0.076,0.302-0.189,0.453-0.454,0.453
			c-0.037,0-0.113-0.038-0.227-0.038c-0.793-0.227-3.06-0.906-5.062-0.906c-4.533,0-5.969,1.927-5.969,7.934
			c0,6.045,1.436,7.972,5.969,7.972c2.003,0,4.27-0.604,5.062-0.831c0.113,0,0.189-0.038,0.227-0.038
			c0.265,0,0.378,0.151,0.454,0.454l0.265,1.209C322.329,121.884,322.366,121.922,322.366,121.997z"/>
		<path fill="#110906" d="M329.277,99.744h-1.851c-0.34,0-0.567-0.227-0.567-0.528v-4.081c0-0.34,0.228-0.566,0.567-0.566h1.851
			c0.341,0,0.567,0.227,0.567,0.566v4.081C329.845,99.518,329.618,99.744,329.277,99.744z M329.277,122.979h-1.851
			c-0.34,0-0.567-0.227-0.567-0.566v-18.702c0-0.34,0.228-0.566,0.567-0.566h1.851c0.341,0,0.567,0.227,0.567,0.566v18.702
			C329.845,122.753,329.618,122.979,329.277,122.979z"/>
		<path fill="#110906" d="M348.28,122.941c-1.096,0.227-2.909,0.529-4.911,0.529c-3.249,0-8.652-0.113-8.652-6.233
			c0-5.063,2.796-5.327,6.536-5.932l7.141-1.172v-1.775c0-1.209-0.038-2.191-1.36-2.683c-0.718-0.302-1.775-0.453-3.438-0.453
			c-2.909,0-5.44,0.718-6.989,1.096c-0.076,0-0.151,0.038-0.227,0.038c-0.151,0-0.303-0.076-0.378-0.303l-0.341-1.7v-0.075
			c0-0.303,0.265-0.416,0.378-0.454c1.209-0.453,4.458-1.171,7.896-1.171c2.683,0,4.42,0.378,5.516,0.982
			c1.927,1.021,1.965,2.796,1.965,4.571v10.843C351.416,121.695,350.888,122.3,348.28,122.941z M348.432,112.515l-6.952,1.171
			c-1.813,0.34-3.664,0.415-3.664,3.4c0,3.778,3.098,4.042,5.591,4.042c1.663,0,3.438-0.227,5.025-0.755V112.515z"/>
		<path fill="#110906" d="M363.276,122.526c0,0.265-0.188,0.34-0.302,0.378c-0.303,0.15-1.322,0.453-2.683,0.453
			c-2.267,0-3.778-1.096-3.778-3.892V95.551c0-0.303,0.189-0.416,0.453-0.453l2.04-0.529h0.114c0.264,0,0.377,0.265,0.377,0.491
			v24.331c0,1.359,0.945,1.549,1.7,1.549c0.529,0,1.134-0.075,1.322-0.151h0.189c0.113,0,0.227,0.038,0.265,0.265l0.265,1.322
			C363.239,122.45,363.276,122.488,363.276,122.526z"/>
		<path fill="#110906" d="M383.147,114.517c-0.038,0.188-0.303,0.491-0.491,0.491H368.79c0,2.078,0.378,3.249,1.172,4.231
			c1.096,1.397,2.946,1.813,5.591,1.813c2.343,0,3.778-0.453,5.554-0.944c0.076-0.038,0.151-0.076,0.228-0.076
			c0.15,0,0.302,0.113,0.377,0.341l0.416,1.436v0.15c0,0.189-0.151,0.303-0.378,0.416c-1.511,0.604-4.005,1.096-6.498,1.096
			c-7.405,0-9.597-3.438-9.597-10.39c0-6.385,1.285-10.428,8.766-10.428c3.967,0,6.271,1.209,7.519,3.362
			c0.981,1.7,1.209,4.043,1.209,6.649V114.517z M379.558,108.245c-0.68-2.418-2.153-3.212-5.214-3.212
			c-3.022,0-4.495,0.794-5.138,3.212c-0.378,1.397-0.416,2.871-0.453,4.27l11.258-0.038
			C379.974,111.041,379.897,109.643,379.558,108.245z"/>
		<path fill="#110906" d="M411.931,122.941c-1.096,0.227-2.909,0.529-4.911,0.529c-3.249,0-8.652-0.113-8.652-6.233
			c0-5.063,2.796-5.327,6.536-5.932l7.141-1.172v-1.775c0-1.209-0.038-2.191-1.36-2.683c-0.718-0.302-1.775-0.453-3.438-0.453
			c-2.909,0-5.44,0.718-6.989,1.096c-0.076,0-0.151,0.038-0.227,0.038c-0.151,0-0.303-0.076-0.378-0.303l-0.341-1.7v-0.075
			c0-0.303,0.265-0.416,0.378-0.454c1.209-0.453,4.458-1.171,7.896-1.171c2.683,0,4.42,0.378,5.516,0.982
			c1.927,1.021,1.965,2.796,1.965,4.571v10.843C415.066,121.695,414.538,122.3,411.931,122.941z M412.082,112.515l-6.952,1.171
			c-1.813,0.34-3.664,0.415-3.664,3.4c0,3.778,3.098,4.042,5.591,4.042c1.663,0,3.438-0.227,5.025-0.755V112.515z"/>
		<path fill="#110906" d="M429.798,105.298c-2.493,0-4.533,0.189-6.649,0.718v16.397c0,0.34-0.188,0.566-0.528,0.566h-1.89
			c0,0-0.566-0.227-0.566-0.566v-15.755c0-1.662,0.34-2.153,1.625-2.758c1.662-0.756,5.062-1.247,6.876-1.247h0.944
			c0.188,0,0.529,0.076,0.529,0.566v1.625C430.139,105.109,430.062,105.298,429.798,105.298z"/>
		<path fill="#110906" d="M443.615,122.375c-0.113,0.378-0.415,0.604-0.755,0.604h-3.968c-0.378,0-0.68-0.227-0.793-0.604
			l-6.271-18.551c-0.038-0.075-0.038-0.15-0.038-0.188c0-0.265,0.151-0.491,0.378-0.491h2.267c0.378,0,0.491,0.227,0.566,0.491
			l5.365,17.152h0.982l4.836-17.152c0.075-0.265,0.265-0.491,0.643-0.491h2.342c0.265,0,0.454,0.188,0.454,0.453v0.113
			L443.615,122.375z"/>
		<path fill="#110906" d="M467.714,99.744h-1.851c-0.34,0-0.567-0.227-0.567-0.528v-4.081c0-0.34,0.228-0.566,0.567-0.566h1.851
			c0.341,0,0.567,0.227,0.567,0.566v4.081C468.281,99.518,468.055,99.744,467.714,99.744z M467.714,122.979h-1.851
			c-0.34,0-0.567-0.227-0.567-0.566v-18.702c0-0.34,0.228-0.566,0.567-0.566h1.851c0.341,0,0.567,0.227,0.567,0.566v18.702
			C468.281,122.753,468.055,122.979,467.714,122.979z"/>
		<path fill="#110906" d="M493.969,123.471c-6.649,0-8.312-2.834-8.312-7.82v-12.015c0-0.303,0.188-0.416,0.491-0.491l2.04-0.491
			h0.113c0.265,0,0.34,0.265,0.34,0.491v12.808c0,3.552,1.247,5.139,5.327,5.139c4.911,0,5.289-2.418,5.289-5.252v-12.203
			c0-0.303,0.227-0.416,0.491-0.491l2.04-0.491h0.113c0.265,0,0.378,0.265,0.378,0.491v12.43
			C502.28,119.314,501.752,123.471,493.969,123.471z"/>
		<path fill="#110906" d="M521.168,122.715c-1.209,0.303-2.796,0.756-5.78,0.756c-7.33,0-9.03-3.325-9.03-10.428
			c0-7.254,2.003-10.39,8.803-10.39c2.607,0,4.496,0.416,5.781,0.756l-0.378-2.191v-5.667c0-0.303,0.188-0.416,0.491-0.453
			l2.04-0.529h0.113c0.265,0,0.34,0.265,0.34,0.491v24.671C523.548,121.128,523.548,122.187,521.168,122.715z M520.563,105.714
			c0,0-2.381-0.681-5.101-0.681c-4.156,0-6.007,1.323-6.007,8.048c0,7.178,2.191,8.01,6.045,8.01c2.795,0,5.062-0.718,5.062-0.718
			V105.714z"/>
		<path fill="#110906" d="M542.662,122.715c-1.209,0.303-2.796,0.756-5.78,0.756c-7.33,0-9.03-3.325-9.03-10.428
			c0-7.254,2.003-10.39,8.803-10.39c2.607,0,4.496,0.416,5.781,0.756l-0.378-2.191v-5.667c0-0.303,0.188-0.416,0.491-0.453
			l2.04-0.529h0.113c0.265,0,0.34,0.265,0.34,0.491v24.671C545.042,121.128,545.042,122.187,542.662,122.715z M542.058,105.714
			c0,0-2.381-0.681-5.101-0.681c-4.156,0-6.007,1.323-6.007,8.048c0,7.178,2.191,8.01,6.045,8.01c2.795,0,5.062-0.718,5.062-0.718
			V105.714z"/>
		<path fill="#110906" d="M562.909,122.941c-1.096,0.227-2.909,0.529-4.911,0.529c-3.249,0-8.652-0.113-8.652-6.233
			c0-5.063,2.796-5.327,6.536-5.932l7.141-1.172v-1.775c0-1.209-0.038-2.191-1.36-2.683c-0.718-0.302-1.775-0.453-3.438-0.453
			c-2.909,0-5.44,0.718-6.989,1.096c-0.076,0-0.151,0.038-0.227,0.038c-0.151,0-0.303-0.076-0.378-0.303l-0.341-1.7v-0.075
			c0-0.303,0.265-0.416,0.378-0.454c1.209-0.453,4.458-1.171,7.896-1.171c2.683,0,4.42,0.378,5.516,0.982
			c1.927,1.021,1.965,2.796,1.965,4.571v10.843C566.045,121.695,565.517,122.3,562.909,122.941z M563.061,112.515l-6.952,1.171
			c-1.813,0.34-3.664,0.415-3.664,3.4c0,3.778,3.098,4.042,5.591,4.042c1.663,0,3.438-0.227,5.025-0.755V112.515z"/>
		<path fill="#110906" d="M587.199,122.979h-1.851c-0.341,0-0.567-0.227-0.567-0.566v-13.979c0-2.493-0.944-3.362-3.589-3.362
			c-3.514,0-7.065,1.058-7.065,1.058v16.284c0,0.34-0.188,0.566-0.528,0.566h-1.89c-0.34,0-0.566-0.227-0.566-0.566v-15.68
			c0-1.511,0.075-2.191,1.965-2.833c1.965-0.681,5.742-1.247,8.16-1.247c4.496,0,6.499,1.398,6.499,5.44v14.319
			C587.767,122.753,587.54,122.979,587.199,122.979z"/>
		<path fill="#110906" d="M608.92,122.979h-1.851c-0.341,0-0.567-0.227-0.567-0.566v-13.979c0-2.493-0.944-3.362-3.589-3.362
			c-3.514,0-7.065,1.058-7.065,1.058v16.284c0,0.34-0.188,0.566-0.528,0.566h-1.89c-0.34,0-0.566-0.227-0.566-0.566v-15.68
			c0-1.511,0.075-2.191,1.965-2.833c1.965-0.681,5.742-1.247,8.16-1.247c4.496,0,6.499,1.398,6.499,5.44v14.319
			C609.487,122.753,609.261,122.979,608.92,122.979z"/>
		<path fill="#110906" d="M631.279,114.517c-0.038,0.188-0.303,0.491-0.491,0.491h-13.866c0,2.078,0.378,3.249,1.172,4.231
			c1.096,1.397,2.946,1.813,5.591,1.813c2.343,0,3.778-0.453,5.554-0.944c0.076-0.038,0.151-0.076,0.228-0.076
			c0.15,0,0.302,0.113,0.377,0.341l0.416,1.436v0.15c0,0.189-0.151,0.303-0.378,0.416c-1.511,0.604-4.005,1.096-6.498,1.096
			c-7.405,0-9.597-3.438-9.597-10.39c0-6.385,1.285-10.428,8.766-10.428c3.967,0,6.271,1.209,7.519,3.362
			c0.981,1.7,1.209,4.043,1.209,6.649V114.517z M627.689,108.245c-0.68-2.418-2.153-3.212-5.214-3.212
			c-3.022,0-4.495,0.794-5.138,3.212c-0.378,1.397-0.416,2.871-0.453,4.27l11.259-0.038
			C628.105,111.041,628.029,109.643,627.689,108.245z"/>
		<path fill="#110906" d="M642.534,122.526c0,0.265-0.188,0.34-0.302,0.378c-0.303,0.15-1.322,0.453-2.683,0.453
			c-2.267,0-3.778-1.096-3.778-3.892V95.551c0-0.303,0.189-0.416,0.453-0.453l2.04-0.529h0.114c0.264,0,0.377,0.265,0.377,0.491
			v24.331c0,1.359,0.945,1.549,1.7,1.549c0.529,0,1.134-0.075,1.322-0.151h0.189c0.113,0,0.227,0.038,0.265,0.265l0.265,1.322
			C642.497,122.45,642.534,122.488,642.534,122.526z"/>
		<path fill="#110906" d="M651.939,123.471c-3.324,0-6.196-1.096-6.688-1.284c-0.15-0.076-0.302-0.151-0.302-0.378v-0.113
			l0.378-1.474c0.038-0.189,0.151-0.34,0.415-0.34h0.189c0.302,0.113,2.984,1.096,6.082,1.096c3.212,0,5.063-1.021,5.063-3.325
			c0-3.136-2.418-3.022-5.365-3.476c-1.852-0.303-6.574-0.643-6.574-5.63c0-4.873,4.345-5.894,7.67-5.894
			c3.249,0,5.742,0.68,6.158,0.794c0.265,0.037,0.378,0.227,0.378,0.415v0.076l-0.265,1.662c-0.038,0.227-0.188,0.302-0.34,0.302
			h-0.075c-0.529-0.037-3.325-0.718-5.555-0.718c-2.72,0-4.986,0.756-4.986,3.136c0,2.569,2.568,2.872,4.911,3.174
			c3.4,0.453,7.065,0.718,7.065,5.856C660.101,122.262,656.322,123.471,651.939,123.471z"/>
		<path fill="#110906" d="M680.91,114.517c-0.038,0.188-0.303,0.491-0.491,0.491h-13.866c0,2.078,0.378,3.249,1.172,4.231
			c1.096,1.397,2.946,1.813,5.591,1.813c2.343,0,3.778-0.453,5.554-0.944c0.076-0.038,0.151-0.076,0.228-0.076
			c0.15,0,0.302,0.113,0.377,0.341l0.416,1.436v0.15c0,0.189-0.151,0.303-0.378,0.416c-1.511,0.604-4.005,1.096-6.498,1.096
			c-7.405,0-9.597-3.438-9.597-10.39c0-6.385,1.285-10.428,8.766-10.428c3.967,0,6.271,1.209,7.519,3.362
			c0.981,1.7,1.209,4.043,1.209,6.649V114.517z M677.32,108.245c-0.68-2.418-2.153-3.212-5.214-3.212
			c-3.022,0-4.495,0.794-5.138,3.212c-0.378,1.397-0.416,2.871-0.453,4.27l11.259-0.038
			C677.736,111.041,677.66,109.643,677.32,108.245z"/>
		<path fill="#110906" d="M691.447,123.471c-3.324,0-6.196-1.096-6.688-1.284c-0.15-0.076-0.302-0.151-0.302-0.378v-0.113
			l0.378-1.474c0.038-0.189,0.151-0.34,0.415-0.34h0.189c0.302,0.113,2.984,1.096,6.082,1.096c3.212,0,5.063-1.021,5.063-3.325
			c0-3.136-2.418-3.022-5.365-3.476c-1.852-0.303-6.574-0.643-6.574-5.63c0-4.873,4.345-5.894,7.67-5.894
			c3.249,0,5.742,0.68,6.158,0.794c0.265,0.037,0.378,0.227,0.378,0.415v0.076l-0.265,1.662c-0.038,0.227-0.188,0.302-0.34,0.302
			h-0.075c-0.529-0.037-3.325-0.718-5.555-0.718c-2.72,0-4.986,0.756-4.986,3.136c0,2.569,2.568,2.872,4.911,3.174
			c3.4,0.453,7.065,0.718,7.065,5.856C699.608,122.262,695.83,123.471,691.447,123.471z"/>
		<path fill="#110906" d="M709.768,123.471c-3.324,0-6.196-1.096-6.688-1.284c-0.15-0.076-0.302-0.151-0.302-0.378v-0.113
			l0.378-1.474c0.038-0.189,0.151-0.34,0.415-0.34h0.189c0.302,0.113,2.984,1.096,6.082,1.096c3.212,0,5.063-1.021,5.063-3.325
			c0-3.136-2.418-3.022-5.365-3.476c-1.852-0.303-6.574-0.643-6.574-5.63c0-4.873,4.345-5.894,7.67-5.894
			c3.249,0,5.742,0.68,6.158,0.794c0.265,0.037,0.378,0.227,0.378,0.415v0.076l-0.265,1.662c-0.038,0.227-0.188,0.302-0.34,0.302
			h-0.075c-0.529-0.037-3.325-0.718-5.555-0.718c-2.72,0-4.986,0.756-4.986,3.136c0,2.569,2.568,2.872,4.911,3.174
			c3.4,0.453,7.065,0.718,7.065,5.856C717.929,122.262,714.15,123.471,709.768,123.471z"/>
		<path fill="#110906" d="M730.959,125.889c-1.096,3.514-2.229,5.024-6.271,5.024c-1.209,0-1.927-0.037-2.645-0.15
			c-0.34-0.076-0.415-0.265-0.415-0.416v-1.662c0-0.189,0.188-0.378,0.415-0.378h0.038c0.378,0,1.436,0.038,2.191,0.038
			c1.927,0,3.022-0.378,3.627-2.494l0.869-2.871h-1.55c-0.34,0-0.642-0.227-0.755-0.604l-6.31-18.626
			c0-0.075-0.038-0.113-0.038-0.151c0-0.227,0.227-0.453,0.453-0.453h2.229c0.378,0,0.491,0.227,0.566,0.491l5.365,17.152h0.982
			l4.836-17.152c0.037-0.265,0.265-0.491,0.604-0.491h2.38c0.227,0,0.453,0.188,0.453,0.453c0,0.038,0,0.076-0.037,0.113
			L730.959,125.889z"/>
		<path fill="#110906" d="M747.089,123.471c-3.324,0-6.196-1.096-6.688-1.284c-0.15-0.076-0.302-0.151-0.302-0.378v-0.113
			l0.378-1.474c0.037-0.189,0.151-0.34,0.415-0.34h0.189c0.302,0.113,2.984,1.096,6.083,1.096c3.211,0,5.062-1.021,5.062-3.325
			c0-3.136-2.418-3.022-5.365-3.476c-1.852-0.303-6.574-0.643-6.574-5.63c0-4.873,4.345-5.894,7.67-5.894
			c3.249,0,5.742,0.68,6.158,0.794c0.265,0.037,0.378,0.227,0.378,0.415v0.076l-0.265,1.662c-0.038,0.227-0.188,0.302-0.34,0.302
			h-0.076c-0.528-0.037-3.324-0.718-5.554-0.718c-2.72,0-4.986,0.756-4.986,3.136c0,2.569,2.568,2.872,4.911,3.174
			c3.4,0.453,7.065,0.718,7.065,5.856C755.25,122.262,751.472,123.471,747.089,123.471z"/>
		<path fill="#110906" d="M770.161,122.375c0,0.151-0.151,0.34-0.303,0.378c-0.831,0.265-2.455,0.718-4.609,0.718
			c-3.74,0-5.516-1.625-5.516-5.252V97.439c0-0.302,0.189-0.415,0.453-0.453l2.041-0.529h0.113c0.264,0,0.377,0.265,0.377,0.491
			v6.196h6.348c0.34,0,0.566,0.227,0.566,0.566v1.285c0,0.34-0.227,0.566-0.566,0.566h-6.348v12.959
			c0,2.078,1.134,2.531,3.099,2.531c1.171,0,2.683-0.303,3.476-0.491h0.113c0.189,0,0.34,0.113,0.416,0.34l0.34,1.398V122.375z"/>
		<path fill="#110906" d="M789.843,114.517c-0.038,0.188-0.303,0.491-0.491,0.491h-13.866c0,2.078,0.378,3.249,1.172,4.231
			c1.096,1.397,2.946,1.813,5.591,1.813c2.343,0,3.778-0.453,5.554-0.944c0.076-0.038,0.151-0.076,0.228-0.076
			c0.15,0,0.302,0.113,0.377,0.341l0.416,1.436v0.15c0,0.189-0.151,0.303-0.378,0.416c-1.511,0.604-4.005,1.096-6.498,1.096
			c-7.405,0-9.597-3.438-9.597-10.39c0-6.385,1.285-10.428,8.766-10.428c3.967,0,6.271,1.209,7.519,3.362
			c0.981,1.7,1.209,4.043,1.209,6.649V114.517z M786.253,108.245c-0.68-2.418-2.153-3.212-5.214-3.212
			c-3.022,0-4.495,0.794-5.138,3.212c-0.378,1.397-0.416,2.871-0.453,4.27l11.258-0.038
			C786.669,111.041,786.593,109.643,786.253,108.245z"/>
		<path fill="#110906" d="M824.03,122.979h-1.851c-0.378,0-0.604-0.227-0.604-0.566v-13.979c0-2.493-0.907-3.362-3.552-3.362
			c-3.514,0-7.103,1.058-7.103,1.058v16.284c0,0.378-0.151,0.566-0.529,0.566h-1.851c-0.341,0-0.567-0.227-0.567-0.566v-13.979
			c0-2.493-0.944-3.362-3.589-3.362c-3.514,0-7.065,1.058-7.065,1.058v16.284c0,0.34-0.188,0.566-0.528,0.566h-1.89
			c-0.34,0-0.566-0.227-0.566-0.566v-15.68c0-1.511,0.076-2.191,1.965-2.833c1.965-0.681,5.742-1.247,8.16-1.247
			c2.381,0,4.081,0.453,5.139,1.436c2.115-0.831,6.196-1.436,8.501-1.436c4.495,0,6.498,1.398,6.498,5.44v14.319
			C824.598,122.753,824.371,122.979,824.03,122.979z"/>
		<path fill="#110906" d="M846.351,114.517c-0.038,0.188-0.303,0.491-0.491,0.491h-13.866c0,2.078,0.378,3.249,1.172,4.231
			c1.096,1.397,2.946,1.813,5.591,1.813c2.343,0,3.778-0.453,5.554-0.944c0.076-0.038,0.151-0.076,0.228-0.076
			c0.15,0,0.302,0.113,0.377,0.341l0.416,1.436v0.15c0,0.189-0.151,0.303-0.378,0.416c-1.511,0.604-4.005,1.096-6.498,1.096
			c-7.405,0-9.597-3.438-9.597-10.39c0-6.385,1.285-10.428,8.766-10.428c3.967,0,6.271,1.209,7.519,3.362
			c0.981,1.7,1.209,4.043,1.209,6.649V114.517z M842.761,108.245c-0.68-2.418-2.153-3.212-5.214-3.212
			c-3.022,0-4.495,0.794-5.138,3.212c-0.378,1.397-0.416,2.871-0.453,4.27l11.258-0.038
			C843.177,111.041,843.101,109.643,842.761,108.245z"/>
		<path fill="#110906" d="M861.271,122.375c0,0.151-0.151,0.34-0.303,0.378c-0.831,0.265-2.455,0.718-4.609,0.718
			c-3.74,0-5.516-1.625-5.516-5.252V97.439c0-0.302,0.189-0.415,0.453-0.453l2.041-0.529h0.113c0.264,0,0.377,0.265,0.377,0.491
			v6.196h6.348c0.34,0,0.566,0.227,0.566,0.566v1.285c0,0.34-0.227,0.566-0.566,0.566h-6.348v12.959
			c0,2.078,1.134,2.531,3.099,2.531c1.171,0,2.683-0.303,3.476-0.491h0.113c0.189,0,0.34,0.113,0.416,0.34l0.34,1.398V122.375z"/>
	</g>
</g>
<g>
</g>
<g>
</g>
<g>
</g>
<g>
</g>
<g>
</g>
<g>
</g>
</svg>
