<?xml version="1.0" encoding="utf-8"?>
<!-- Generator: Adobe Illustrator 16.0.4, SVG Export Plug-In . SVG Version: 6.00 Build 0)  -->
<!DOCTYPE svg PUBLIC "-//W3C//DTD SVG 1.1//EN" "http://www.w3.org/Graphics/SVG/1.1/DTD/svg11.dtd">
<svg version="1.1" id="Layer_1" xmlns="http://www.w3.org/2000/svg" xmlns:xlink="http://www.w3.org/1999/xlink" x="0px" y="0px"
	 width="1019.068px" height="580.661px" viewBox="0 0 1019.068 580.661" enable-background="new 0 0 1019.068 580.661"
	 xml:space="preserve">
<polygon fill="#E4F3FB" points="482.566,325.815 52.329,342.258 35.97,189.534 488.621,195.475 "/>
<path fill="#008DD1" d="M1015.061,982.864"/>
<g>
	
		<rect x="71.193" y="226.372" transform="matrix(-1 0.0099 -0.0099 -1 543.0993 554.0614)" fill="none" width="397.971" height="104.005"/>
	<path fill="#12110C" d="M81.901,240.203c0.001,0.113-0.062,0.194-0.176,0.196l-1.004,0.01c-0.081,0.001-0.213-0.079-0.229-0.16
		l-1.798-4.904l-4.63,0.046l-1.651,4.971c-0.031,0.082-0.159,0.132-0.239,0.133l-1.004,0.01c-0.112,0.001-0.18-0.079-0.181-0.176
		c-0.001-0.049,0.016-0.098,0.032-0.131l4.062-11.486c0.031-0.113,0.208-0.212,0.289-0.213l1.991-0.02
		c0.098-0.001,0.26,0.094,0.294,0.207l4.226,11.404C81.884,240.122,81.9,240.17,81.901,240.203z M76.631,229.618l-0.647,0.007
		l-1.558,4.58l3.887-0.038L76.631,229.618z"/>
	<path fill="#12110C" d="M86.127,240.161c0.001,0.113-0.08,0.146-0.129,0.163c-0.128,0.065-0.563,0.2-1.146,0.206
		c-0.972,0.01-1.623-0.454-1.637-1.652l-0.102-10.247c-0.001-0.129,0.079-0.179,0.192-0.196l0.873-0.235h0.048
		c0.112-0.001,0.163,0.111,0.164,0.209l0.104,10.425c0.006,0.583,0.412,0.66,0.735,0.657c0.227-0.003,0.484-0.037,0.564-0.071
		l0.081-0.001c0.049,0,0.099,0.016,0.114,0.113l0.119,0.565C86.109,240.128,86.127,240.144,86.127,240.161z"/>
	<path fill="#12110C" d="M92.034,240.038c0.001,0.064-0.062,0.146-0.128,0.163c-0.354,0.117-1.048,0.318-1.971,0.327
		c-1.604,0.016-2.371-0.673-2.388-2.228l-0.089-8.903c-0.001-0.129,0.079-0.179,0.192-0.196l0.873-0.235h0.048
		c0.113-0.001,0.163,0.111,0.164,0.209l0.026,2.653l2.72-0.027c0.146-0.001,0.243,0.096,0.245,0.241l0.005,0.551
		c0.002,0.146-0.094,0.243-0.239,0.244l-2.72,0.027l0.055,5.554c0.009,0.891,0.496,1.08,1.339,1.072
		c0.501-0.006,1.148-0.142,1.487-0.227h0.048c0.08-0.001,0.146,0.047,0.18,0.144l0.151,0.599L92.034,240.038L92.034,240.038z"/>
	<path fill="#12110C" d="M99.594,230.264l-0.794,0.008c-0.146,0.001-0.243-0.095-0.244-0.225l-0.019-1.748
		c-0.001-0.146,0.096-0.244,0.241-0.245l0.793-0.008c0.146-0.002,0.244,0.095,0.245,0.24l0.018,1.748
		C99.837,230.165,99.74,230.262,99.594,230.264z M99.694,240.22l-0.793,0.008c-0.146,0.001-0.244-0.095-0.246-0.241l-0.079-8.014
		c-0.002-0.146,0.095-0.244,0.24-0.245l0.793-0.008c0.146-0.002,0.244,0.095,0.246,0.24l0.079,8.014
		C99.936,240.121,99.84,240.218,99.694,240.22z"/>
	<path fill="#12110C" d="M112.855,240.073c-0.469,0.102-1.245,0.239-2.103,0.248c-1.393,0.014-3.709-0.012-3.733-2.635
		c-0.021-2.169,1.175-2.294,2.774-2.57l3.056-0.532l-0.009-0.761c-0.005-0.518-0.025-0.938-0.595-1.144
		c-0.309-0.126-0.763-0.187-1.475-0.18c-1.246,0.013-2.328,0.331-2.99,0.5c-0.032,0-0.064,0.017-0.097,0.018
		c-0.064,0-0.13-0.032-0.163-0.129l-0.153-0.727v-0.032c-0.001-0.13,0.111-0.18,0.16-0.196c0.516-0.199,1.905-0.52,3.379-0.534
		c1.148-0.012,1.896,0.142,2.366,0.396c0.83,0.429,0.854,1.189,0.86,1.95l0.048,4.646
		C114.193,239.525,113.969,239.787,112.855,240.073z M112.875,235.604l-2.973,0.531c-0.775,0.153-1.568,0.193-1.556,1.473
		c0.016,1.619,1.345,1.72,2.412,1.709c0.713-0.007,1.473-0.112,2.148-0.346L112.875,235.604z"/>
	<path fill="#12110C" d="M119.28,239.831c0.001,0.113-0.08,0.146-0.129,0.164c-0.128,0.065-0.564,0.199-1.147,0.205
		c-0.971,0.01-1.623-0.453-1.636-1.651l-0.102-10.247c-0.001-0.129,0.079-0.179,0.191-0.196l0.873-0.235l0.048-0.001
		c0.113-0.001,0.163,0.112,0.164,0.21l0.104,10.425c0.006,0.583,0.412,0.66,0.734,0.656c0.228-0.002,0.484-0.037,0.565-0.07
		l0.081-0.001c0.049-0.001,0.098,0.016,0.114,0.113l0.119,0.564C119.262,239.798,119.28,239.814,119.28,239.831z"/>
	<path fill="#12110C" d="M125.188,239.708c0.001,0.064-0.062,0.146-0.128,0.163c-0.354,0.117-1.049,0.318-1.973,0.328
		c-1.603,0.016-2.371-0.673-2.387-2.228l-0.089-8.903c-0.001-0.129,0.079-0.179,0.192-0.196l0.873-0.235l0.048-0.001
		c0.112-0.001,0.163,0.112,0.164,0.21l0.025,2.653l2.721-0.027c0.146-0.002,0.243,0.095,0.245,0.24l0.006,0.551
		c0.002,0.146-0.096,0.243-0.24,0.245l-2.721,0.027l0.056,5.554c0.009,0.891,0.496,1.08,1.339,1.071
		c0.501-0.005,1.147-0.142,1.487-0.226l0.048-0.001c0.081,0,0.146,0.048,0.181,0.145l0.151,0.598L125.188,239.708L125.188,239.708z"
		/>
	<path fill="#12110C" d="M138.511,239.688c0.001,0.081-0.078,0.146-0.159,0.147l-1.345,0.014c-0.064,0-0.099-0.031-0.131-0.08
		l-3.403-3.642l-0.664,0.007l0.035,3.513c0.002,0.146-0.078,0.244-0.225,0.245l-0.81,0.009c-0.146,0.001-0.244-0.095-0.246-0.241
		l-0.114-11.51c-0.001-0.129,0.079-0.179,0.192-0.196l0.873-0.235h0.048c0.112-0.001,0.163,0.111,0.164,0.209l0.071,7.235
		l0.664-0.007l3.233-3.724c0.032-0.048,0.062-0.082,0.128-0.082l1.167,0.021c0.081-0.001,0.162,0.062,0.163,0.144
		c0,0.032-0.016,0.064-0.032,0.082l-3.521,3.937l3.877,4.074C138.496,239.624,138.511,239.656,138.511,239.688z"/>
	<path fill="#12110C" d="M143.081,240c-3.384,0.033-3.81-1.986-3.833-4.414c-0.023-2.445,0.36-4.473,3.744-4.506
		c3.399-0.034,3.809,1.984,3.833,4.43C146.848,237.937,146.48,239.965,143.081,240z M143.003,232.115
		c-2.348,0.023-2.432,1.4-2.411,3.457c0.021,2.039,0.132,3.415,2.479,3.392s2.431-1.401,2.411-3.44
		C145.461,233.466,145.35,232.091,143.003,232.115z"/>
	<path fill="#12110C" d="M161.436,239.606l-0.793,0.008c-0.162,0.002-0.262-0.094-0.264-0.24l-0.06-5.99
		c-0.011-1.068-0.402-1.437-1.535-1.426c-1.506,0.016-3.04,0.483-3.04,0.483l0.069,6.978c0.002,0.162-0.062,0.244-0.225,0.246
		l-0.793,0.008c-0.146,0.001-0.243-0.095-0.246-0.241l-0.06-5.99c-0.011-1.068-0.418-1.437-1.552-1.425
		c-1.506,0.015-3.022,0.483-3.022,0.483l0.069,6.978c0.002,0.146-0.078,0.243-0.224,0.245l-0.811,0.008
		c-0.146,0.002-0.244-0.094-0.246-0.24l-0.065-6.719c-0.008-0.647,0.022-0.939,0.83-1.223c0.839-0.299,2.453-0.558,3.489-0.567
		c1.021-0.011,1.751,0.176,2.208,0.592c0.903-0.365,2.649-0.641,3.638-0.65c1.927-0.02,2.791,0.57,2.809,2.303l0.061,6.136
		C161.678,239.507,161.582,239.605,161.436,239.606z"/>
	<path fill="#12110C" d="M178.386,236.183c0.001,0.146-0.111,0.26-0.259,0.262l-1.505,0.015l0.027,2.736
		c0.002,0.146-0.127,0.261-0.257,0.262l-0.874,0.009c-0.13,0.001-0.261-0.111-0.263-0.257l-0.026-2.736l-6.378,0.063
		c-0.146,0.002-0.261-0.094-0.262-0.24l-0.009-0.874c-0.001-0.049-0.002-0.146,0.047-0.211l5.331-7.598
		c0.031-0.049,0.112-0.098,0.16-0.098l2.153-0.021c0.146-0.002,0.261,0.11,0.263,0.256l0.074,7.495l1.505-0.015
		c0.146-0.002,0.261,0.126,0.262,0.256L178.386,236.183z M175.154,228.655l-0.486,0.005l-4.742,6.668l5.295-0.053L175.154,228.655z"
		/>
	<path fill="#12110C" d="M189.298,236.075c0.001,0.146-0.11,0.26-0.258,0.262l-1.505,0.015l0.027,2.736
		c0.002,0.146-0.127,0.261-0.257,0.262l-0.874,0.009c-0.131,0.001-0.261-0.111-0.263-0.257l-0.026-2.736l-6.379,0.062
		c-0.146,0.002-0.261-0.094-0.262-0.24l-0.009-0.874c-0.001-0.049-0.002-0.146,0.047-0.211l5.332-7.598
		c0.031-0.049,0.112-0.098,0.16-0.098l2.153-0.021c0.146-0.002,0.261,0.11,0.263,0.256l0.074,7.495l1.505-0.015
		c0.146-0.002,0.261,0.126,0.262,0.256L189.298,236.075z M186.065,228.546l-0.486,0.005l-4.742,6.668l5.294-0.053L186.065,228.546z"
		/>
	<path fill="#12110C" d="M198.108,233.235c-2.349,0.023-2.638-1.496-2.653-3.049c-0.016-1.555,0.244-3.096,2.592-3.119
		c2.331-0.022,2.621,1.513,2.638,3.067C200.699,231.687,200.439,233.212,198.108,233.235z M198.04,227.99
		c-1.344,0.014-1.498,0.825-1.483,2.169c0.014,1.359,0.198,2.167,1.526,2.153c1.344-0.013,1.515-0.824,1.5-2.184
		C199.569,228.785,199.384,227.977,198.04,227.99z M198.443,239.238c-0.018,0.033-0.064,0.05-0.113,0.051
		c-0.032,0-0.049,0-0.081-0.017l-0.538-0.366c-0.049-0.032-0.064-0.08-0.064-0.129c0-0.016,0.015-0.049,0.031-0.082l7.561-11.456
		c0.032-0.049,0.081-0.065,0.113-0.065c0.031,0,0.063,0.015,0.081,0.031l0.555,0.367c0.032,0.016,0.063,0.062,0.065,0.112
		c0,0.032-0.017,0.064-0.031,0.098L198.443,239.238z M205.649,239.377c-2.349,0.023-2.638-1.496-2.652-3.05
		c-0.016-1.555,0.243-3.096,2.591-3.119c2.349-0.023,2.64,1.512,2.654,3.066C208.257,237.829,207.997,239.354,205.649,239.377z
		 M205.596,234.131c-1.345,0.014-1.514,0.825-1.499,2.186c0.013,1.344,0.197,2.151,1.542,2.138c1.344-0.013,1.515-0.824,1.502-2.168
		C207.128,234.926,206.94,234.118,205.596,234.131z"/>
	<path fill="#12110C" d="M220.12,239.006c-0.469,0.103-1.245,0.24-2.103,0.248c-1.394,0.014-3.709-0.012-3.734-2.635
		c-0.021-2.169,1.175-2.294,2.775-2.57l3.056-0.532l-0.008-0.761c-0.005-0.518-0.026-0.938-0.595-1.144
		c-0.31-0.126-0.764-0.187-1.477-0.18c-1.246,0.013-2.328,0.331-2.99,0.5c-0.031,0-0.063,0.017-0.097,0.018
		c-0.064,0-0.13-0.032-0.163-0.129l-0.153-0.728v-0.032c-0.001-0.13,0.111-0.18,0.16-0.196c0.517-0.199,1.905-0.52,3.379-0.534
		c1.149-0.012,1.896,0.142,2.367,0.396c0.83,0.429,0.854,1.189,0.861,1.95l0.047,4.646
		C221.458,238.458,221.234,238.72,220.12,239.006z M220.139,234.538l-2.975,0.531c-0.774,0.153-1.567,0.193-1.556,1.473
		c0.016,1.619,1.345,1.72,2.413,1.709c0.713-0.007,1.473-0.112,2.148-0.346L220.139,234.538z"/>
	<path fill="#12110C" d="M228.505,227.8c-0.015,0.13-0.095,0.18-0.224,0.182c-0.325-0.062-0.925-0.17-1.557-0.164
		c-0.438,0.005-0.775,0.057-1,0.237c-0.21,0.164-0.32,0.424-0.316,0.861l0.016,1.553l2.396-0.023
		c0.146-0.002,0.243,0.095,0.245,0.24l0.005,0.551c0.002,0.146-0.094,0.243-0.239,0.245l-2.396,0.023l0.07,7.221
		c0.002,0.146-0.077,0.244-0.224,0.245l-0.81,0.009c-0.146,0.001-0.244-0.095-0.246-0.241l-0.071-7.221l-1.263,0.013
		c-0.146,0.001-0.243-0.095-0.245-0.24l-0.005-0.551c-0.002-0.146,0.094-0.244,0.238-0.245l1.264-0.013l-0.015-1.423
		c-0.016-1.555,0.739-2.259,2.325-2.274c0.858-0.009,1.539,0.146,1.911,0.225c0.114,0.03,0.212,0.095,0.213,0.208l0.001,0.016
		L228.505,227.8z"/>
	<path fill="#12110C" d="M237.036,239.066c-1.425,0.014-2.66-0.443-2.871-0.522c-0.064-0.032-0.13-0.063-0.131-0.161l-0.001-0.049
		l0.156-0.633c0.015-0.081,0.062-0.146,0.176-0.146l0.081-0.001c0.131,0.047,1.284,0.456,2.611,0.442
		c1.376-0.014,2.166-0.458,2.154-1.446c-0.013-1.344-1.049-1.284-2.312-1.466c-0.795-0.121-2.82-0.248-2.841-2.385
		c-0.021-2.088,1.836-2.543,3.261-2.557c1.393-0.014,2.464,0.266,2.642,0.312c0.115,0.016,0.163,0.096,0.164,0.176l0.001,0.033
		l-0.105,0.714c-0.016,0.098-0.08,0.13-0.146,0.131h-0.032c-0.227-0.014-1.428-0.293-2.383-0.283
		c-1.166,0.011-2.134,0.344-2.123,1.364c0.012,1.101,1.112,1.22,2.118,1.339c1.459,0.18,3.03,0.277,3.052,2.479
		C240.528,238.512,238.914,239.047,237.036,239.066z"/>
	<path fill="#12110C" d="M246.919,238.498c0.001,0.064-0.062,0.146-0.128,0.163c-0.354,0.117-1.049,0.318-1.972,0.327
		c-1.604,0.017-2.371-0.673-2.387-2.228l-0.09-8.903c-0.001-0.129,0.079-0.178,0.192-0.196l0.873-0.234l0.048-0.001
		c0.113-0.001,0.163,0.111,0.164,0.209l0.026,2.653l2.72-0.026c0.146-0.002,0.244,0.095,0.246,0.24l0.005,0.551
		c0.002,0.146-0.095,0.243-0.24,0.245l-2.72,0.026l0.055,5.554c0.01,0.891,0.496,1.081,1.339,1.072
		c0.502-0.005,1.148-0.142,1.487-0.226l0.048-0.001c0.081-0.001,0.147,0.048,0.182,0.144l0.15,0.599L246.919,238.498
		L246.919,238.498z"/>
	<path fill="#12110C" d="M251.957,238.917c-2.85,0.028-3.574-1.18-3.595-3.316l-0.052-5.148c-0.001-0.13,0.079-0.179,0.208-0.213
		l0.872-0.218l0.049-0.001c0.112-0.001,0.146,0.111,0.146,0.208l0.056,5.488c0.016,1.522,0.556,2.197,2.305,2.18
		c2.104-0.021,2.257-1.059,2.245-2.272l-0.053-5.229c-0.001-0.13,0.096-0.179,0.208-0.213l0.871-0.218l0.05-0.001
		c0.112-0.001,0.163,0.111,0.164,0.208l0.053,5.327C255.501,237.101,255.292,238.884,251.957,238.917z"/>
	<path fill="#12110C" d="M263.61,238.477c-0.518,0.135-1.195,0.336-2.474,0.349c-3.143,0.031-3.886-1.386-3.915-4.43
		c-0.03-3.108,0.813-4.46,3.729-4.489c1.117-0.011,1.929,0.158,2.48,0.299l-0.172-0.937l-0.023-2.429
		c-0.001-0.129,0.079-0.179,0.208-0.196l0.873-0.235l0.048-0.001c0.113-0.001,0.146,0.112,0.147,0.21l0.104,10.57
		C264.623,237.788,264.627,238.241,263.61,238.477z M263.278,231.195c0,0-1.023-0.282-2.188-0.271
		c-1.78,0.018-2.567,0.593-2.539,3.475c0.03,3.075,0.973,3.423,2.623,3.406c1.198-0.012,2.167-0.329,2.167-0.329L263.278,231.195z"
		/>
	<path fill="#12110C" d="M273.935,234.861c-0.016,0.081-0.128,0.212-0.208,0.213l-5.942,0.059c0.009,0.891,0.176,1.392,0.521,1.809
		c0.476,0.594,1.271,0.765,2.403,0.754c1.004-0.01,1.617-0.211,2.376-0.429c0.032-0.018,0.064-0.033,0.098-0.033
		c0.064-0.001,0.13,0.047,0.163,0.144l0.186,0.613v0.064c0.001,0.081-0.062,0.131-0.16,0.181c-0.645,0.265-1.712,0.486-2.78,0.497
		c-3.172,0.031-4.126-1.433-4.154-4.411c-0.027-2.736,0.506-4.474,3.711-4.505c1.699-0.018,2.691,0.489,3.235,1.407
		c0.429,0.725,0.534,1.728,0.547,2.845L273.935,234.861z M272.37,232.189c-0.301-1.033-0.937-1.367-2.248-1.354
		c-1.295,0.013-1.922,0.36-2.188,1.398c-0.155,0.601-0.166,1.231-0.177,1.831l4.824-0.064
		C272.561,233.384,272.522,232.787,272.37,232.189z"/>
	<path fill="#12110C" d="M282.778,238.4l-0.793,0.008c-0.146,0.002-0.244-0.094-0.246-0.24l-0.06-5.99
		c-0.012-1.068-0.418-1.437-1.553-1.426c-1.506,0.016-3.022,0.483-3.022,0.483l0.068,6.978c0.002,0.146-0.077,0.244-0.224,0.245
		l-0.81,0.009c-0.146,0.001-0.244-0.095-0.246-0.241l-0.066-6.719c-0.007-0.647,0.023-0.938,0.83-1.223
		c0.84-0.299,2.455-0.558,3.491-0.567c1.927-0.02,2.791,0.57,2.809,2.303l0.062,6.136C283.02,238.301,282.924,238.399,282.778,238.4
		z"/>
	<path fill="#12110C" d="M289.671,238.073c0.001,0.063-0.062,0.146-0.128,0.163c-0.354,0.117-1.049,0.318-1.972,0.327
		c-1.602,0.017-2.37-0.673-2.386-2.228l-0.089-8.903c-0.001-0.129,0.079-0.179,0.191-0.196l0.873-0.235h0.048
		c0.113-0.001,0.163,0.111,0.164,0.209l0.026,2.653l2.719-0.026c0.146-0.002,0.244,0.095,0.246,0.24l0.005,0.551
		c0.002,0.146-0.095,0.243-0.24,0.245l-2.719,0.026l0.055,5.554c0.01,0.891,0.496,1.08,1.339,1.072
		c0.501-0.005,1.147-0.142,1.486-0.226l0.048-0.001c0.081-0.001,0.147,0.048,0.182,0.144l0.15,0.599L289.671,238.073
		L289.671,238.073z"/>
	<path fill="#12110C" d="M298.072,234.621c-0.015,0.081-0.128,0.212-0.208,0.213l-5.942,0.06c0.01,0.891,0.177,1.391,0.521,1.808
		c0.476,0.595,1.271,0.766,2.404,0.754c1.004-0.01,1.616-0.21,2.376-0.429c0.031-0.017,0.063-0.033,0.097-0.033
		c0.064-0.001,0.13,0.048,0.163,0.144l0.185,0.613v0.064c0.001,0.081-0.062,0.131-0.159,0.181c-0.645,0.266-1.712,0.487-2.779,0.497
		c-3.173,0.032-4.127-1.433-4.156-4.411c-0.027-2.736,0.506-4.473,3.712-4.505c1.699-0.017,2.692,0.49,3.236,1.407
		c0.428,0.725,0.534,1.728,0.546,2.845L298.072,234.621z M296.507,231.95c-0.301-1.033-0.937-1.368-2.248-1.355
		c-1.295,0.014-1.922,0.36-2.188,1.399c-0.155,0.6-0.166,1.231-0.176,1.831l4.824-0.064
		C296.698,233.145,296.659,232.546,296.507,231.95z"/>
	<path fill="#12110C" d="M304.088,230.61c-1.067,0.011-1.941,0.101-2.847,0.336l0.069,7.026c0.002,0.146-0.078,0.244-0.225,0.246
		l-0.81,0.008c0,0-0.244-0.095-0.246-0.241l-0.067-6.751c-0.007-0.712,0.139-0.924,0.686-1.188c0.71-0.331,2.165-0.555,2.941-0.562
		l0.404-0.004c0.081-0.001,0.228,0.029,0.229,0.24l0.007,0.695C304.232,230.529,304.201,230.609,304.088,230.61z"/>
	<path fill="#12110C" d="M312.402,238.105l-0.793,0.009c-0.146,0.001-0.244-0.095-0.246-0.241l-0.06-5.99
		c-0.012-1.068-0.418-1.437-1.553-1.425c-1.506,0.015-3.022,0.482-3.022,0.482l0.068,6.978c0.002,0.146-0.077,0.244-0.223,0.246
		l-0.81,0.008c-0.146,0.001-0.244-0.095-0.246-0.241l-0.066-6.719c-0.007-0.646,0.023-0.938,0.83-1.222
		c0.839-0.3,2.454-0.558,3.49-0.568c1.927-0.019,2.791,0.57,2.809,2.303l0.062,6.136
		C312.644,238.006,312.548,238.104,312.402,238.105z"/>
	<path fill="#12110C" d="M321.948,234.383c-0.015,0.081-0.128,0.212-0.208,0.213l-5.942,0.06c0.01,0.891,0.177,1.391,0.521,1.808
		c0.476,0.595,1.271,0.766,2.404,0.754c1.004-0.01,1.616-0.21,2.376-0.429c0.031-0.017,0.063-0.033,0.097-0.033
		c0.064-0.001,0.13,0.048,0.163,0.144l0.185,0.613v0.064c0.001,0.081-0.062,0.131-0.159,0.181c-0.645,0.266-1.712,0.486-2.779,0.497
		c-3.173,0.032-4.127-1.433-4.156-4.411c-0.027-2.736,0.506-4.473,3.712-4.505c1.699-0.017,2.692,0.49,3.236,1.407
		c0.428,0.725,0.534,1.728,0.546,2.845L321.948,234.383z M320.383,231.712c-0.301-1.033-0.937-1.368-2.247-1.355
		c-1.296,0.014-1.923,0.36-2.188,1.399c-0.155,0.6-0.166,1.231-0.176,1.831l4.824-0.064
		C320.574,232.908,320.535,232.309,320.383,231.712z"/>
	<path fill="#12110C" d="M330.107,227.972l-0.793,0.008c-0.146,0.002-0.244-0.094-0.245-0.224l-0.018-1.748
		c-0.001-0.146,0.096-0.244,0.24-0.246l0.794-0.008c0.146-0.001,0.243,0.096,0.244,0.241l0.019,1.748
		C330.349,227.874,330.254,227.971,330.107,227.972z M330.207,237.928l-0.793,0.008c-0.146,0.002-0.243-0.094-0.245-0.24
		l-0.079-8.014c-0.002-0.146,0.095-0.244,0.239-0.246l0.793-0.008c0.146-0.001,0.244,0.096,0.246,0.241l0.079,8.014
		C330.449,237.83,330.352,237.927,330.207,237.928z"/>
	<path fill="#12110C" d="M346.522,237.507c0.002,0.146-0.11,0.26-0.257,0.262l-7.899,0.078c-0.146,0.002-0.26-0.11-0.262-0.256
		l-0.01-0.939c-0.007-0.761,0.2-1.087,0.777-1.514c0.563-0.427,2.042-1.558,2.042-1.558c1.271-0.984,3.619-2.384,3.602-4.229
		c-0.021-2.007-1.272-2.48-2.988-2.463c-1.748,0.018-2.878,0.417-3.426,0.568h-0.065c-0.097,0.001-0.194-0.047-0.229-0.191
		l-0.187-0.727v-0.049c-0.001-0.113,0.111-0.18,0.192-0.212c0.241-0.101,1.678-0.617,3.831-0.638
		c2.428-0.024,4.281,0.864,4.31,3.761c0.021,2.104-1.875,3.452-3.627,4.731l-2.859,2.117l0.003,0.324l6.782-0.067
		c0.146-0.002,0.261,0.11,0.262,0.256L346.522,237.507z"/>
	<path fill="#12110C" d="M353.695,237.906c-4.501,0.045-5.049-3.011-5.08-6.135c-0.03-3.124,0.456-6.205,4.957-6.25
		c4.484-0.044,5.049,3.026,5.08,6.15S358.179,237.862,353.695,237.906z M353.567,226.719c-3.107,0.031-3.511,1.913-3.479,5.021
		c0.03,3.125,0.471,4.999,3.578,4.968c3.125-0.03,3.545-1.913,3.514-5.038C357.148,228.546,356.692,226.689,353.567,226.719z"/>
	<path fill="#12110C" d="M365.737,237.787c-4.5,0.044-5.048-3.011-5.079-6.135c-0.03-3.124,0.456-6.206,4.956-6.25
		c4.484-0.045,5.049,3.025,5.08,6.149S370.221,237.742,365.737,237.787z M365.609,226.6c-3.106,0.03-3.51,1.913-3.479,5.021
		c0.03,3.125,0.471,4.998,3.577,4.968c3.125-0.031,3.545-1.914,3.514-5.039C369.19,228.426,368.734,226.569,365.609,226.6z"/>
	<path fill="#12110C" d="M377.649,237.667c-3.238,0.032-4.82-1.086-4.844-3.434c-0.02-1.91,1.545-2.605,2.661-2.682l-0.004-0.453
		c-0.293-0.062-2.479-0.104-2.503-2.532c-0.025-2.542,2.282-3.261,4.565-3.284c2.299-0.022,4.62,0.65,4.646,3.192
		c0.022,2.428-2.161,2.53-2.451,2.599l0.005,0.453c1.117,0.053,2.694,0.701,2.713,2.611
		C382.463,236.486,380.903,237.635,377.649,237.667z M377.575,231.92c-1.65,0.016-3.379,0.503-3.359,2.316
		c0.017,1.667,1.221,2.255,3.455,2.232c2.232-0.022,3.377-0.633,3.359-2.3C381.011,232.356,379.242,231.904,377.575,231.92z
		 M377.57,226.481c-2.104,0.021-3.217,0.566-3.201,2.121c0.019,1.698,1.641,2.119,3.194,2.104c1.57-0.015,3.218-0.469,3.2-2.167
		C380.748,226.984,379.658,226.46,377.57,226.481z"/>
	<path fill="#12110C" d="M394.29,226.153c-0.015,0.13-0.095,0.18-0.225,0.181c-0.325-0.062-0.925-0.17-1.557-0.163
		c-0.438,0.004-0.775,0.057-1,0.236c-0.21,0.164-0.32,0.424-0.316,0.861l0.016,1.553l2.396-0.023
		c0.146-0.001,0.243,0.096,0.245,0.241l0.005,0.551c0.002,0.146-0.094,0.243-0.239,0.244l-2.396,0.023l0.07,7.221
		c0.002,0.146-0.077,0.244-0.224,0.246l-0.81,0.008c-0.146,0.001-0.244-0.095-0.246-0.241l-0.071-7.221l-1.263,0.013
		c-0.146,0.002-0.243-0.094-0.245-0.239l-0.005-0.551c-0.002-0.146,0.094-0.244,0.238-0.246l1.264-0.013l-0.015-1.423
		c-0.016-1.555,0.739-2.258,2.325-2.273c0.858-0.009,1.539,0.146,1.912,0.224c0.114,0.031,0.212,0.095,0.213,0.208l0.001,0.017
		L394.29,226.153z"/>
	<path fill="#12110C" d="M399.018,229.667c-1.068,0.011-1.942,0.101-2.847,0.336l0.068,7.026c0.002,0.146-0.078,0.244-0.224,0.245
		l-0.811,0.009c0,0-0.243-0.095-0.245-0.241l-0.066-6.751c-0.008-0.712,0.137-0.924,0.684-1.188c0.71-0.331,2.165-0.555,2.942-0.562
		l0.404-0.004c0.081-0.001,0.227,0.029,0.229,0.24l0.007,0.695C399.163,229.585,399.133,229.666,399.018,229.667z"/>
	<path fill="#12110C" d="M405.681,237.162c-0.469,0.103-1.245,0.24-2.103,0.248c-1.393,0.015-3.709-0.012-3.733-2.635
		c-0.021-2.169,1.175-2.294,2.774-2.569l3.056-0.533l-0.009-0.761c-0.005-0.518-0.025-0.938-0.595-1.144
		c-0.309-0.125-0.763-0.187-1.475-0.18c-1.246,0.013-2.328,0.331-2.99,0.5c-0.032,0-0.063,0.018-0.097,0.018
		c-0.064,0.001-0.13-0.032-0.163-0.128l-0.153-0.728v-0.032c-0.001-0.13,0.111-0.18,0.16-0.196c0.516-0.199,1.905-0.52,3.378-0.534
		c1.149-0.012,1.896,0.143,2.367,0.396c0.83,0.429,0.854,1.189,0.861,1.95l0.047,4.646
		C407.019,236.614,406.797,236.876,405.681,237.162z M405.701,232.693l-2.973,0.532c-0.775,0.153-1.568,0.193-1.556,1.473
		c0.016,1.619,1.345,1.719,2.413,1.708c0.712-0.007,1.472-0.112,2.147-0.346L405.701,232.693z"/>
	<path fill="#12110C" d="M421.109,237.025l-0.793,0.008c-0.146,0.001-0.244-0.095-0.246-0.241l-0.06-5.99
		c-0.012-1.068-0.418-1.436-1.553-1.425c-1.506,0.015-3.022,0.483-3.022,0.483l0.069,6.978c0.002,0.146-0.078,0.244-0.225,0.245
		l-0.81,0.008c-0.146,0.002-0.244-0.094-0.246-0.24l-0.114-11.51c-0.001-0.129,0.079-0.179,0.192-0.196l0.873-0.235h0.048
		c0.113-0.002,0.163,0.111,0.164,0.209l0.026,2.801l-0.151,0.939c0.888-0.268,2.277-0.508,3.217-0.517
		c1.927-0.02,2.791,0.569,2.809,2.302l0.062,6.136C421.351,236.925,421.271,237.023,421.109,237.025z"/>
	<path fill="#12110C" d="M422.552,240.411c-0.647,0.006-0.696-0.009-0.906-0.039c-0.065,0-0.261-0.03-0.262-0.209l-0.006-0.534
		c-0.003-0.227,0.128-0.26,0.209-0.261c0,0,0.322,0.013,0.631,0.01c1.053-0.011,1.504-0.192,1.493-1.229l-0.094-9.406
		c-0.002-0.146,0.109-0.245,0.239-0.246l0.811-0.008c0.146-0.002,0.228,0.096,0.229,0.241l0.094,9.487
		C425.006,239.804,424.17,240.394,422.552,240.411z M424.651,227.033l-0.81,0.008c-0.146,0.002-0.243-0.094-0.244-0.224
		l-0.019-1.748c-0.001-0.146,0.096-0.244,0.24-0.246l0.811-0.008c0.146-0.002,0.228,0.096,0.229,0.241l0.019,1.748
		C424.878,226.934,424.798,227.031,424.651,227.033z"/>
	<path fill="#12110C" d="M434.444,233.265c-0.015,0.081-0.128,0.212-0.208,0.213l-5.941,0.059c0.009,0.891,0.176,1.392,0.52,1.809
		c0.476,0.595,1.271,0.765,2.404,0.754c1.004-0.01,1.617-0.211,2.376-0.429c0.032-0.018,0.063-0.033,0.097-0.033
		c0.065-0.001,0.13,0.047,0.163,0.144l0.185,0.613v0.064c0.001,0.081-0.062,0.131-0.158,0.181c-0.646,0.266-1.712,0.486-2.78,0.497
		c-3.173,0.032-4.127-1.433-4.156-4.411c-0.027-2.736,0.506-4.473,3.712-4.505c1.699-0.017,2.692,0.49,3.236,1.407
		c0.428,0.725,0.534,1.728,0.546,2.845L434.444,233.265z M432.88,230.593c-0.302-1.033-0.938-1.367-2.248-1.354
		c-1.295,0.013-1.922,0.36-2.188,1.399c-0.155,0.6-0.166,1.23-0.176,1.831l4.824-0.063
		C433.07,231.79,433.031,231.191,432.88,230.593z"/>
	<path fill="#12110C" d="M449.132,236.747l-0.793,0.008c-0.162,0.001-0.262-0.095-0.264-0.241l-0.06-5.99
		c-0.011-1.068-0.402-1.437-1.535-1.425c-1.506,0.015-3.04,0.483-3.04,0.483l0.069,6.978c0.002,0.162-0.062,0.244-0.225,0.245
		l-0.792,0.008c-0.146,0.002-0.244-0.094-0.246-0.24l-0.06-5.99c-0.011-1.068-0.418-1.437-1.552-1.426
		c-1.506,0.016-3.023,0.483-3.023,0.483l0.069,6.978c0.002,0.146-0.078,0.244-0.225,0.245l-0.81,0.009
		c-0.146,0.001-0.244-0.095-0.246-0.241l-0.065-6.719c-0.008-0.647,0.022-0.938,0.829-1.222c0.841-0.3,2.455-0.558,3.491-0.568
		c1.021-0.01,1.751,0.176,2.208,0.593c0.902-0.366,2.648-0.641,3.636-0.65c1.928-0.02,2.791,0.569,2.81,2.302l0.061,6.136
		C449.373,236.647,449.276,236.745,449.132,236.747z"/>
	<path fill="#12110C" d="M453.422,238.338c-0.03,0.163-0.048,0.212-0.241,0.214l-0.761,0.007c-0.098,0.001-0.21-0.014-0.212-0.159
		l-0.001-0.032l0.181-3.095c0.015-0.162,0.047-0.211,0.241-0.213l1.101-0.011c0.098-0.001,0.211,0.015,0.212,0.144l0.001,0.049
		L453.422,238.338z"/>
	<path fill="#12110C" d="M79.009,258.774l-0.793,0.008c-0.146,0.002-0.243-0.094-0.244-0.24l-0.061-5.99
		c-0.011-1.068-0.419-1.436-1.553-1.425c-1.506,0.016-3.022,0.482-3.022,0.482l0.069,6.978c0.001,0.146-0.079,0.244-0.225,0.245
		l-0.81,0.009c-0.146,0.001-0.244-0.095-0.245-0.241l-0.113-11.51c-0.003-0.129,0.078-0.179,0.191-0.196l0.872-0.235h0.048
		c0.113-0.001,0.163,0.111,0.164,0.209l0.027,2.801l-0.152,0.94c0.888-0.268,2.278-0.509,3.217-0.518
		c1.928-0.02,2.791,0.571,2.81,2.303l0.061,6.136C79.251,258.675,79.171,258.772,79.009,258.774z"/>
	<path fill="#12110C" d="M85.514,258.451c-0.049,0.162-0.177,0.261-0.322,0.262l-1.699,0.017c-0.162,0.002-0.293-0.094-0.342-0.255
		l-2.768-7.922c-0.017-0.032-0.018-0.063-0.018-0.081c-0.001-0.113,0.062-0.211,0.16-0.212l0.971-0.01
		c0.162-0.002,0.212,0.096,0.245,0.208l2.372,7.326l0.421-0.004l1.999-7.369c0.031-0.114,0.111-0.213,0.273-0.214l1.004-0.01
		c0.112-0.002,0.194,0.079,0.195,0.192v0.049L85.514,258.451z"/>
	<path fill="#12110C" d="M92.917,258.846c-3.383,0.034-3.809-1.986-3.833-4.414c-0.023-2.445,0.361-4.472,3.744-4.506
		c3.399-0.033,3.809,1.985,3.832,4.431C96.684,256.785,96.316,258.813,92.917,258.846z M92.838,250.962
		c-2.347,0.023-2.431,1.399-2.409,3.456c0.021,2.039,0.132,3.415,2.479,3.392c2.348-0.022,2.431-1.4,2.41-3.439
		C95.296,252.314,95.185,250.94,92.838,250.962z"/>
	<path fill="#12110C" d="M102.6,250.962c-1.068,0.011-1.941,0.1-2.848,0.335l0.07,7.026c0.001,0.146-0.079,0.244-0.225,0.245
		l-0.811,0.009c0,0-0.244-0.095-0.245-0.241l-0.066-6.751c-0.007-0.711,0.138-0.923,0.685-1.188c0.71-0.331,2.165-0.556,2.942-0.563
		l0.403-0.004c0.081-0.001,0.228,0.03,0.229,0.241l0.007,0.695C102.745,250.881,102.714,250.961,102.6,250.962z"/>
	<path fill="#12110C" d="M113.832,247.289c-0.016,0.131-0.095,0.18-0.225,0.182c-0.325-0.062-0.925-0.17-1.558-0.163
		c-0.437,0.004-0.773,0.056-1,0.236c-0.209,0.164-0.318,0.424-0.314,0.861l0.016,1.554l2.396-0.023
		c0.146-0.002,0.243,0.095,0.244,0.24l0.006,0.551c0.001,0.146-0.095,0.242-0.24,0.244l-2.396,0.023l0.071,7.221
		c0.001,0.146-0.079,0.244-0.225,0.245l-0.811,0.009c-0.146,0.001-0.243-0.095-0.244-0.241l-0.072-7.221l-1.264,0.013
		c-0.146,0.001-0.242-0.094-0.243-0.239l-0.007-0.551c-0.001-0.146,0.096-0.244,0.24-0.245l1.264-0.013l-0.016-1.424
		c-0.015-1.555,0.74-2.259,2.325-2.274c0.858-0.009,1.539,0.147,1.912,0.225c0.113,0.031,0.212,0.095,0.213,0.208v0.017
		L113.832,247.289z"/>
	<path fill="#12110C" d="M117.877,258.598c-3.384,0.034-3.81-1.986-3.834-4.414c-0.023-2.445,0.361-4.472,3.745-4.506
		c3.399-0.033,3.809,1.985,3.832,4.431C121.644,256.537,121.276,258.565,117.877,258.598z M117.798,250.714
		c-2.348,0.023-2.432,1.399-2.41,3.456c0.021,2.039,0.132,3.415,2.479,3.392c2.348-0.022,2.431-1.4,2.41-3.439
		C120.256,252.066,120.145,250.692,117.798,250.714z"/>
	<path fill="#12110C" d="M127.56,250.714c-1.068,0.011-1.941,0.1-2.848,0.335l0.07,7.026c0.001,0.146-0.079,0.244-0.225,0.245
		l-0.811,0.009c0,0-0.244-0.095-0.245-0.241l-0.066-6.751c-0.007-0.711,0.138-0.923,0.685-1.188c0.71-0.331,2.165-0.556,2.942-0.563
		l0.403-0.004c0.081-0.001,0.228,0.03,0.229,0.241l0.007,0.695C127.706,250.633,127.674,250.713,127.56,250.714z"/>
	<path fill="#12110C" d="M141.652,254.686c0.001,0.081-0.111,0.212-0.191,0.213l-5.908,0.059c0.023,0.891,0.189,1.229,0.533,1.646
		c0.477,0.594,1.271,0.765,2.389,0.754c1.02-0.011,1.585-0.21,2.344-0.429c0.032-0.018,0.063-0.033,0.097-0.033
		c0.065-0.001,0.113,0.048,0.147,0.144l0.199,0.613l0.001,0.063c0.001,0.081-0.063,0.131-0.159,0.181
		c-0.662,0.266-1.857,0.488-2.926,0.499c-2.381,0.023-3.039-1.071-3.304-1.587c-0.382,0.716-0.891,1.628-3.06,1.65
		c-1.555,0.015-3.403-0.308-3.427-2.671c-0.02-1.829,0.997-2.228,2.502-2.535l3.358-0.713c-0.015-1.425-0.812-1.918-2.107-1.905
		c-1.102,0.012-2.779,0.433-3.037,0.499l-0.033,0.001c-0.08,0.001-0.162-0.08-0.195-0.192l-0.121-0.646v-0.049
		c-0.001-0.081,0.047-0.146,0.146-0.18c0.306-0.148,1.905-0.521,3.054-0.532c1.117-0.011,2.657,0.184,3.043,1.539
		c0.491-1.072,1.36-1.583,3.028-1.6c1.699-0.017,2.547,0.493,3.09,1.409c0.429,0.725,0.537,1.89,0.548,3.007
		C141.663,254.12,141.666,254.395,141.652,254.686z M134.274,253.578l-2.778,0.61c-0.952,0.204-1.792,0.407-1.78,1.589
		c0.015,1.344,1.021,1.673,2.233,1.661c1.214-0.012,2.359-0.396,2.339-2.484L134.274,253.578z M140.087,251.853
		c-0.285-1.034-0.889-1.367-2.184-1.354c-1.975,0.02-2.384,1.188-2.362,3.391l4.76-0.063
		C140.278,253.21,140.254,252.45,140.087,251.853z"/>
	<path fill="#12110C" d="M146.525,257.909c0.002,0.113-0.079,0.146-0.128,0.163c-0.128,0.064-0.564,0.2-1.147,0.206
		c-0.971,0.01-1.624-0.454-1.636-1.652l-0.102-10.247c-0.003-0.129,0.078-0.179,0.191-0.196l0.873-0.235h0.048
		c0.113-0.001,0.163,0.111,0.164,0.209l0.104,10.425c0.006,0.583,0.412,0.66,0.734,0.657c0.228-0.002,0.484-0.037,0.565-0.071
		l0.081-0.001c0.049,0,0.098,0.016,0.114,0.113l0.118,0.565C146.509,257.876,146.525,257.892,146.525,257.909z"/>
	<path fill="#12110C" d="M153.891,257.917c-0.517,0.135-1.194,0.336-2.474,0.349c-3.141,0.031-3.884-1.387-3.914-4.431
		c-0.03-3.108,0.814-4.459,3.729-4.488c1.117-0.011,1.929,0.158,2.479,0.3l-0.171-0.938l-0.023-2.429
		c-0.002-0.129,0.079-0.178,0.208-0.196l0.873-0.235h0.048c0.112-0.001,0.146,0.111,0.146,0.209l0.104,10.57
		C154.904,257.226,154.909,257.679,153.891,257.917z M153.56,250.633c0,0-1.023-0.28-2.188-0.269
		c-1.78,0.018-2.566,0.592-2.539,3.474c0.031,3.075,0.974,3.422,2.623,3.406c1.198-0.013,2.167-0.33,2.167-0.33L153.56,250.633z"/>
	<path fill="#12110C" d="M161.232,250.379c-1.068,0.011-1.941,0.1-2.848,0.335l0.07,7.026c0.001,0.146-0.079,0.244-0.225,0.246
		l-0.811,0.008c0,0-0.244-0.095-0.245-0.241l-0.066-6.751c-0.007-0.711,0.138-0.923,0.685-1.188c0.71-0.331,2.165-0.556,2.942-0.563
		l0.404-0.004c0.081-0.001,0.227,0.03,0.229,0.241l0.007,0.695C161.378,250.298,161.345,250.378,161.232,250.379z"/>
	<path fill="#12110C" d="M169.624,254.246c-0.016,0.081-0.128,0.213-0.208,0.213l-5.941,0.06c0.009,0.891,0.176,1.391,0.52,1.809
		c0.477,0.594,1.271,0.765,2.404,0.753c1.004-0.01,1.617-0.21,2.376-0.429c0.032-0.017,0.063-0.032,0.097-0.033
		c0.065,0,0.13,0.048,0.163,0.145l0.186,0.613l0.001,0.064c0.001,0.081-0.064,0.13-0.16,0.18c-0.646,0.266-1.712,0.487-2.78,0.498
		c-3.173,0.031-4.127-1.433-4.157-4.411c-0.026-2.736,0.507-4.474,3.713-4.506c1.699-0.017,2.692,0.491,3.235,1.408
		c0.429,0.724,0.535,1.727,0.546,2.844L169.624,254.246z M168.058,251.575c-0.302-1.033-0.938-1.367-2.248-1.354
		c-1.295,0.013-1.922,0.358-2.188,1.397c-0.156,0.601-0.166,1.231-0.176,1.831l4.824-0.064
		C168.249,252.77,168.21,252.171,168.058,251.575z"/>
	<path fill="#12110C" d="M178.465,257.786l-0.793,0.008c-0.146,0.001-0.243-0.095-0.244-0.241l-0.061-5.99
		c-0.011-1.068-0.419-1.436-1.553-1.424c-1.506,0.015-3.022,0.482-3.022,0.482l0.069,6.978c0.001,0.146-0.079,0.244-0.225,0.245
		l-0.811,0.008c-0.146,0.002-0.244-0.094-0.245-0.24l-0.065-6.719c-0.008-0.646,0.022-0.938,0.83-1.222
		c0.839-0.299,2.454-0.559,3.49-0.568c1.928-0.02,2.791,0.57,2.81,2.302l0.061,6.136
		C178.707,257.686,178.61,257.784,178.465,257.786z"/>
	<path fill="#12110C" d="M188.011,254.063c-0.017,0.081-0.129,0.212-0.208,0.213l-5.942,0.06c0.009,0.891,0.176,1.391,0.52,1.809
		c0.477,0.594,1.271,0.765,2.404,0.753c1.004-0.01,1.617-0.21,2.376-0.429c0.032-0.017,0.064-0.033,0.097-0.033
		c0.065-0.001,0.131,0.048,0.163,0.144l0.186,0.614l0.001,0.064c0.001,0.081-0.064,0.13-0.16,0.18
		c-0.646,0.266-1.712,0.487-2.78,0.498c-3.173,0.031-4.127-1.434-4.156-4.412c-0.027-2.736,0.507-4.473,3.713-4.505
		c1.698-0.017,2.691,0.491,3.234,1.407c0.43,0.725,0.535,1.728,0.546,2.845L188.011,254.063z M186.446,251.392
		c-0.301-1.033-0.938-1.367-2.248-1.354c-1.295,0.013-1.922,0.358-2.188,1.397c-0.155,0.601-0.165,1.231-0.176,1.831l4.824-0.064
		C186.636,252.587,186.597,251.989,186.446,251.392z"/>
	<path fill="#12110C" d="M196.171,247.652l-0.793,0.009c-0.146,0.001-0.244-0.095-0.245-0.225l-0.018-1.748
		c-0.001-0.146,0.096-0.244,0.241-0.246l0.793-0.008c0.146-0.001,0.244,0.096,0.245,0.241l0.018,1.748
		C196.413,247.553,196.316,247.651,196.171,247.652z M196.269,257.608l-0.793,0.008c-0.146,0.002-0.244-0.094-0.245-0.24
		l-0.08-8.013c-0.001-0.146,0.096-0.244,0.241-0.245l0.793-0.009c0.146-0.001,0.244,0.096,0.245,0.241l0.079,8.013
		C196.511,257.509,196.415,257.607,196.269,257.608z"/>
	<path fill="#12110C" d="M205.966,257.367c0.001,0.081-0.078,0.146-0.159,0.146l-1.345,0.014c-0.064,0.001-0.098-0.031-0.13-0.08
		l-3.403-3.641l-0.664,0.006l0.034,3.513c0.001,0.146-0.078,0.244-0.225,0.246l-0.81,0.008c-0.146,0.001-0.244-0.095-0.245-0.241
		l-0.114-11.51c-0.002-0.129,0.079-0.178,0.192-0.196l0.873-0.234l0.048-0.001c0.112-0.001,0.163,0.111,0.164,0.209l0.07,7.235
		l0.664-0.006l3.234-3.724c0.031-0.048,0.062-0.081,0.128-0.082l1.166,0.021c0.081-0.001,0.163,0.063,0.164,0.145
		c0,0.032-0.018,0.064-0.031,0.081l-3.523,3.936l3.878,4.074C205.949,257.301,205.966,257.334,205.966,257.367z"/>
	<path fill="#12110C" d="M214.269,257.284c0.001,0.081-0.079,0.146-0.16,0.147l-1.344,0.014c-0.065,0-0.099-0.031-0.131-0.08
		l-3.403-3.642l-0.663,0.007l0.035,3.513c0.001,0.146-0.079,0.244-0.226,0.245l-0.81,0.008c-0.146,0.002-0.244-0.094-0.245-0.24
		l-0.114-11.51c-0.002-0.129,0.079-0.179,0.192-0.196l0.873-0.235h0.048c0.113-0.002,0.163,0.111,0.164,0.209l0.071,7.235
		l0.663-0.007l3.233-3.723c0.031-0.049,0.063-0.082,0.128-0.082l1.166,0.021c0.081-0.001,0.163,0.062,0.164,0.144
		c0,0.032-0.017,0.064-0.031,0.081l-3.523,3.937l3.878,4.074C214.253,257.218,214.269,257.251,214.269,257.284z"/>
	<path fill="#12110C" d="M222.508,253.72c-0.016,0.081-0.128,0.212-0.208,0.213l-5.941,0.06c0.009,0.891,0.176,1.391,0.52,1.809
		c0.477,0.594,1.271,0.765,2.404,0.753c1.004-0.01,1.617-0.21,2.376-0.429c0.032-0.017,0.064-0.033,0.097-0.033
		c0.065-0.001,0.131,0.048,0.163,0.145l0.186,0.613l0.001,0.064c0.001,0.081-0.064,0.131-0.16,0.181
		c-0.646,0.266-1.712,0.487-2.78,0.497c-3.173,0.032-4.127-1.433-4.157-4.411c-0.026-2.736,0.508-4.473,3.714-4.505
		c1.698-0.017,2.691,0.491,3.234,1.407c0.429,0.725,0.535,1.728,0.546,2.845L222.508,253.72z M220.942,251.049
		c-0.301-1.033-0.938-1.367-2.248-1.354c-1.295,0.014-1.922,0.359-2.188,1.398c-0.155,0.6-0.166,1.231-0.176,1.831l4.824-0.064
		C221.133,252.245,221.094,251.646,220.942,251.049z"/>
	<path fill="#12110C" d="M232.08,257.463c-1.425,0.014-2.66-0.443-2.871-0.522c-0.064-0.031-0.131-0.063-0.132-0.161v-0.049
		l0.155-0.632c0.016-0.081,0.062-0.146,0.177-0.147l0.081-0.001c0.13,0.047,1.284,0.456,2.611,0.443
		c1.376-0.014,2.165-0.458,2.154-1.446c-0.013-1.344-1.049-1.285-2.312-1.467c-0.795-0.121-2.82-0.247-2.842-2.384
		c-0.021-2.087,1.837-2.543,3.262-2.558c1.393-0.014,2.464,0.267,2.642,0.313c0.114,0.016,0.163,0.097,0.164,0.177v0.033
		l-0.104,0.712c-0.016,0.098-0.08,0.131-0.146,0.131l-0.031,0.001c-0.228-0.015-1.429-0.293-2.384-0.283
		c-1.166,0.012-2.134,0.344-2.123,1.364c0.012,1.101,1.112,1.219,2.117,1.338c1.459,0.18,3.03,0.277,3.053,2.479
		C235.571,256.91,233.958,257.445,232.08,257.463z"/>
	<path fill="#12110C" d="M244.457,253.502c-0.016,0.081-0.128,0.212-0.208,0.213l-5.941,0.059c0.009,0.891,0.176,1.392,0.52,1.809
		c0.477,0.594,1.271,0.765,2.404,0.754c1.004-0.011,1.617-0.211,2.376-0.43c0.032-0.017,0.063-0.032,0.097-0.033
		c0.065,0,0.13,0.048,0.163,0.145l0.185,0.613l0.001,0.064c0.001,0.081-0.063,0.131-0.159,0.181
		c-0.646,0.265-1.712,0.486-2.78,0.497c-3.173,0.031-4.127-1.433-4.157-4.411c-0.026-2.736,0.507-4.474,3.713-4.505
		c1.699-0.018,2.692,0.49,3.235,1.407c0.429,0.725,0.535,1.728,0.546,2.845L244.457,253.502z M242.891,250.831
		c-0.302-1.033-0.938-1.366-2.248-1.354c-1.295,0.013-1.922,0.359-2.188,1.397c-0.156,0.601-0.166,1.231-0.176,1.831l4.824-0.064
		C243.082,252.026,243.043,251.428,242.891,250.831z"/>
	<path fill="#12110C" d="M249.313,256.886c0.002,0.113-0.079,0.146-0.128,0.164c-0.128,0.065-0.564,0.2-1.146,0.205
		c-0.971,0.01-1.624-0.453-1.636-1.651l-0.103-10.247c-0.002-0.129,0.079-0.179,0.192-0.196l0.873-0.235h0.048
		c0.113-0.002,0.163,0.111,0.164,0.209l0.104,10.425c0.006,0.583,0.412,0.66,0.733,0.657c0.228-0.003,0.485-0.037,0.565-0.071
		l0.081-0.001c0.049-0.001,0.098,0.016,0.113,0.113l0.119,0.565C249.297,256.855,249.313,256.87,249.313,256.886z"/>
	<path fill="#12110C" d="M254.996,256.766c-0.048,0.162-0.176,0.26-0.322,0.262l-1.698,0.017c-0.162,0.002-0.293-0.094-0.343-0.255
		l-2.767-7.922c-0.017-0.032-0.018-0.064-0.018-0.081c-0.001-0.113,0.062-0.211,0.159-0.212l0.972-0.01
		c0.162-0.002,0.212,0.096,0.245,0.208l2.372,7.326l0.421-0.004l1.999-7.37c0.03-0.113,0.11-0.212,0.272-0.213l1.004-0.011
		c0.113-0.001,0.195,0.079,0.196,0.192v0.049L254.996,256.766z"/>
	<path fill="#12110C" d="M270.927,256.866l-0.794,0.009c-0.146,0.001-0.243-0.095-0.244-0.241l-0.061-5.99
		c-0.011-1.068-0.419-1.436-1.553-1.424c-1.505,0.015-3.021,0.482-3.021,0.482l0.069,6.978c0.001,0.146-0.079,0.243-0.225,0.245
		l-0.811,0.008c-0.146,0.002-0.244-0.094-0.245-0.24l-0.113-11.51c-0.002-0.129,0.078-0.179,0.191-0.196l0.873-0.235l0.048-0.001
		c0.113-0.001,0.163,0.112,0.164,0.21l0.027,2.801l-0.152,0.939c0.889-0.268,2.278-0.508,3.216-0.518
		c1.928-0.019,2.791,0.571,2.81,2.303l0.061,6.136C271.169,256.767,271.089,256.865,270.927,256.866z"/>
	<path fill="#12110C" d="M278.746,256.772c-0.469,0.103-1.244,0.24-2.102,0.248c-1.394,0.014-3.709-0.012-3.735-2.635
		c-0.021-2.169,1.176-2.294,2.776-2.569l3.055-0.533l-0.007-0.761c-0.006-0.518-0.026-0.938-0.595-1.144
		c-0.31-0.125-0.764-0.186-1.477-0.179c-1.246,0.013-2.328,0.33-2.99,0.499c-0.031,0-0.063,0.017-0.097,0.018
		c-0.063,0-0.13-0.032-0.163-0.129l-0.153-0.726v-0.032c-0.001-0.13,0.111-0.18,0.16-0.196c0.517-0.199,1.905-0.521,3.379-0.535
		c1.149-0.012,1.896,0.144,2.367,0.397c0.83,0.429,0.854,1.188,0.861,1.949l0.046,4.646
		C280.085,256.224,279.86,256.487,278.746,256.772z M278.766,252.303l-2.975,0.532c-0.775,0.152-1.567,0.193-1.556,1.473
		c0.016,1.619,1.344,1.719,2.412,1.708c0.713-0.007,1.473-0.112,2.149-0.346L278.766,252.303z"/>
	<path fill="#12110C" d="M286.352,256.454c-0.048,0.163-0.177,0.261-0.322,0.263l-1.699,0.017c-0.162,0.002-0.293-0.094-0.342-0.255
		l-2.767-7.922c-0.018-0.032-0.019-0.064-0.019-0.081c-0.001-0.113,0.062-0.212,0.16-0.213l0.971-0.009
		c0.162-0.002,0.212,0.095,0.245,0.208l2.372,7.326l0.421-0.005l1.998-7.369c0.031-0.113,0.111-0.212,0.273-0.214l1.004-0.01
		c0.113-0.001,0.194,0.079,0.196,0.192v0.049L286.352,256.454z"/>
	<path fill="#12110C" d="M296.308,256.5c-0.517,0.135-1.194,0.336-2.474,0.349c-3.142,0.031-3.885-1.386-3.915-4.43
		c-0.03-3.108,0.814-4.46,3.729-4.489c1.117-0.011,1.929,0.159,2.479,0.3l-0.171-0.938l-0.023-2.429
		c-0.002-0.129,0.079-0.179,0.208-0.196l0.873-0.235l0.048-0.001c0.113-0.001,0.146,0.112,0.146,0.21l0.104,10.57
		C297.321,255.811,297.326,256.264,296.308,256.5z M295.977,249.218c0,0-1.023-0.281-2.188-0.27
		c-1.781,0.018-2.567,0.592-2.54,3.474c0.031,3.075,0.974,3.423,2.624,3.406c1.198-0.012,2.167-0.329,2.167-0.329L295.977,249.218z"
		/>
	<path fill="#12110C" d="M306.635,252.884c-0.017,0.081-0.129,0.212-0.208,0.213l-5.942,0.059c0.009,0.891,0.176,1.392,0.52,1.809
		c0.477,0.594,1.271,0.765,2.404,0.754c1.004-0.01,1.617-0.211,2.376-0.429c0.032-0.018,0.064-0.033,0.097-0.033
		c0.065-0.001,0.131,0.047,0.163,0.144l0.185,0.613l0.001,0.064c0.001,0.081-0.063,0.131-0.159,0.181
		c-0.646,0.265-1.712,0.486-2.78,0.497c-3.173,0.031-4.127-1.433-4.157-4.411c-0.026-2.736,0.508-4.474,3.714-4.505
		c1.698-0.018,2.691,0.49,3.234,1.407c0.429,0.725,0.535,1.728,0.546,2.845L306.635,252.884z M305.07,250.212
		c-0.301-1.033-0.938-1.366-2.248-1.354c-1.295,0.013-1.922,0.359-2.188,1.397c-0.156,0.601-0.166,1.231-0.177,1.831l4.824-0.064
		C305.26,251.408,305.221,250.81,305.07,250.212z"/>
	<path fill="#12110C" d="M321.68,248.526c0,0.032-0.032,0.049-0.08,0.099c-0.354,0.245-0.759,0.347-1.146,0.351
		c-0.259,0.002-0.274-0.015-0.647-0.075c0,0,0.701,0.576,0.714,1.726c0.021,2.299-1.396,2.978-3.532,2.998l-1.198,0.013
		c-0.842,0.008-1.032,0.431-1.026,0.852c0.007,0.68,0.478,0.853,1.188,0.846l2.445-0.024c1.554-0.016,2.659,0.443,2.674,1.884
		c0.02,2.008-1.592,2.688-3.907,2.711c-2.688,0.027-3.923-0.495-3.938-2.131c-0.014-1.263,0.844-1.514,1.635-1.684l-0.002-0.178
		c-0.729-0.154-1.362-0.229-1.374-1.379c-0.01-0.987,0.521-1.235,1.767-1.442c-0.763-0.235-1.833-0.435-1.853-2.394
		c-0.022-2.217,1.428-2.977,3.516-2.997c1.004-0.011,1.41,0.147,2.027,0.319c0.179,0.03,0.373,0.061,0.6,0.059
		c0.243-0.003,0.518-0.053,0.744-0.121c0.29-0.084,0.612-0.232,0.838-0.348c0.048-0.017,0.098-0.049,0.129-0.05
		c0.032,0,0.065,0.032,0.082,0.097l0.315,0.806C321.664,248.494,321.68,248.51,321.68,248.526z M318.26,256.396l-2.187,0.021
		c-0.825,0.008-1.583,0.274-1.573,1.246c0.012,1.117,1.179,1.251,2.668,1.236c1.003-0.01,2.638-0.172,2.624-1.5
		C319.784,256.461,318.973,256.388,318.26,256.396z M316.938,248.67c-1.408,0.015-2.278,0.508-2.265,2.014
		c0.016,1.489,0.896,1.95,2.304,1.936c1.393-0.014,2.276-0.492,2.263-1.981C319.225,249.132,318.331,248.657,316.938,248.67z"/>
	<path fill="#12110C" d="M328.135,256.281c-0.469,0.103-1.244,0.24-2.102,0.249c-1.393,0.014-3.709-0.013-3.735-2.636
		c-0.021-2.169,1.177-2.294,2.776-2.569l3.055-0.532l-0.008-0.761c-0.006-0.518-0.025-0.938-0.595-1.144
		c-0.309-0.125-0.763-0.187-1.475-0.179c-1.246,0.012-2.328,0.329-2.99,0.498c-0.032,0-0.064,0.018-0.098,0.018
		c-0.063,0.001-0.13-0.032-0.162-0.128l-0.153-0.727v-0.032c-0.001-0.13,0.111-0.18,0.16-0.195c0.516-0.2,1.905-0.521,3.379-0.536
		c1.148-0.012,1.895,0.144,2.366,0.397c0.83,0.43,0.854,1.188,0.86,1.949l0.047,4.646
		C329.474,255.733,329.251,255.996,328.135,256.281z M328.156,251.813l-2.973,0.531c-0.776,0.153-1.568,0.193-1.557,1.473
		c0.017,1.619,1.345,1.719,2.412,1.708c0.713-0.007,1.473-0.112,2.149-0.345L328.156,251.813z M326.199,246.992
		c-1.229,0.012-1.915-0.451-1.928-1.729c-0.013-1.279,0.662-1.739,1.893-1.751c1.214-0.012,1.898,0.436,1.911,1.714
		C328.089,246.503,327.412,246.98,326.199,246.992z M326.172,244.159c-0.745,0.008-0.921,0.332-0.912,1.109
		c0.008,0.761,0.188,1.084,0.934,1.076c0.729-0.007,0.901-0.349,0.896-1.109C327.079,244.473,326.898,244.152,326.172,244.159z"/>
	<path fill="#12110C" d="M338.704,252.565c-0.016,0.081-0.128,0.213-0.208,0.213l-5.941,0.06c0.009,0.891,0.176,1.391,0.52,1.809
		c0.477,0.594,1.271,0.765,2.404,0.753c1.004-0.01,1.617-0.21,2.376-0.429c0.032-0.017,0.064-0.033,0.097-0.033
		c0.065-0.001,0.13,0.048,0.163,0.144l0.185,0.614l0.001,0.064c0.001,0.081-0.063,0.13-0.159,0.18
		c-0.646,0.266-1.712,0.487-2.78,0.498c-3.173,0.031-4.127-1.433-4.157-4.411c-0.026-2.736,0.507-4.474,3.713-4.506
		c1.699-0.017,2.692,0.491,3.235,1.407c0.429,0.725,0.535,1.729,0.546,2.845L338.704,252.565z M337.138,249.894
		c-0.301-1.033-0.938-1.367-2.248-1.354c-1.295,0.013-1.922,0.358-2.188,1.397c-0.155,0.601-0.166,1.231-0.176,1.831l4.824-0.064
		C337.329,251.089,337.29,250.491,337.138,249.894z"/>
	<path fill="#12110C" d="M345.133,255.87c0,0.064-0.063,0.146-0.129,0.163c-0.354,0.117-1.049,0.318-1.972,0.328
		c-1.603,0.016-2.371-0.673-2.387-2.228l-0.089-8.903c-0.001-0.129,0.079-0.179,0.191-0.196l0.873-0.235l0.049-0.001
		c0.112-0.001,0.162,0.112,0.163,0.21l0.026,2.654l2.72-0.027c0.146-0.002,0.244,0.095,0.245,0.24l0.006,0.551
		c0.001,0.146-0.096,0.242-0.24,0.244l-2.721,0.027l0.057,5.554c0.009,0.891,0.496,1.08,1.339,1.071
		c0.501-0.005,1.147-0.142,1.486-0.226l0.049-0.001c0.081,0,0.146,0.048,0.18,0.146l0.151,0.598L345.133,255.87z"/>
	<path fill="#12110C" d="M352.691,246.096l-0.793,0.008c-0.146,0.002-0.244-0.094-0.245-0.224l-0.018-1.748
		c-0.001-0.146,0.096-0.244,0.241-0.246l0.793-0.008c0.146-0.001,0.243,0.096,0.244,0.241l0.019,1.748
		C352.933,245.998,352.838,246.095,352.691,246.096z M352.79,256.052l-0.793,0.008c-0.146,0.002-0.243-0.094-0.244-0.24l-0.08-8.013
		c-0.001-0.146,0.096-0.244,0.24-0.246l0.793-0.008c0.146-0.001,0.244,0.096,0.245,0.241l0.08,8.013
		C353.032,255.954,352.935,256.051,352.79,256.052z"/>
	<path fill="#12110C" d="M368.627,248.059c0,0.032-0.032,0.05-0.08,0.099c-0.354,0.245-0.759,0.347-1.146,0.351
		c-0.259,0.002-0.273-0.014-0.647-0.075c0,0,0.701,0.576,0.714,1.726c0.021,2.299-1.396,2.978-3.531,2.998l-1.198,0.013
		c-0.842,0.008-1.032,0.431-1.026,0.852c0.007,0.68,0.478,0.853,1.188,0.846l2.444-0.024c1.554-0.015,2.659,0.443,2.674,1.884
		c0.02,2.008-1.592,2.688-3.906,2.711c-2.688,0.027-3.923-0.495-3.938-2.131c-0.014-1.263,0.844-1.514,1.635-1.684l-0.002-0.178
		c-0.729-0.154-1.362-0.229-1.374-1.379c-0.01-0.987,0.521-1.235,1.767-1.442c-0.763-0.235-1.833-0.435-1.853-2.394
		c-0.022-2.217,1.428-2.977,3.516-2.997c1.004-0.011,1.409,0.147,2.026,0.319c0.179,0.03,0.373,0.061,0.6,0.059
		c0.243-0.003,0.518-0.053,0.744-0.121c0.29-0.084,0.612-0.232,0.838-0.348c0.048-0.017,0.097-0.049,0.129-0.05
		c0.032,0,0.065,0.032,0.082,0.097l0.315,0.807C368.609,248.027,368.627,248.043,368.627,248.059z M365.207,255.929l-2.186,0.021
		c-0.825,0.008-1.583,0.274-1.573,1.246c0.012,1.117,1.179,1.251,2.667,1.236c1.004-0.01,2.638-0.172,2.624-1.5
		C366.729,255.995,365.92,255.922,365.207,255.929z M363.885,248.204c-1.408,0.015-2.278,0.508-2.265,2.014
		c0.016,1.489,0.896,1.95,2.304,1.936c1.392-0.014,2.275-0.492,2.262-1.981C366.172,248.666,365.276,248.19,363.885,248.204z"/>
	<path fill="#12110C" d="M373.686,257.092c-0.455,1.509-0.934,2.161-2.666,2.179c-0.519,0.005-0.826-0.008-1.135-0.053
		c-0.146-0.031-0.18-0.112-0.18-0.177l-0.008-0.713c-0.001-0.081,0.08-0.162,0.178-0.162l0.017-0.001
		c0.162-0.001,0.615,0.01,0.938,0.007c0.825-0.009,1.293-0.175,1.543-1.084l0.359-1.234l-0.663,0.007
		c-0.146,0.001-0.275-0.094-0.326-0.256l-2.781-7.953c-0.001-0.032-0.019-0.049-0.019-0.065c-0.001-0.097,0.095-0.195,0.192-0.196
		l0.955-0.01c0.162-0.001,0.212,0.096,0.245,0.209l2.371,7.325l0.422-0.004l1.999-7.369c0.015-0.113,0.11-0.212,0.257-0.214
		l1.021-0.01c0.098-0.001,0.194,0.079,0.195,0.192c0,0.017,0,0.033-0.016,0.049L373.686,257.092z"/>
	<path fill="#12110C" d="M390.72,255.675l-0.793,0.008c-0.162,0.002-0.261-0.094-0.263-0.24l-0.06-5.99
		c-0.011-1.068-0.403-1.436-1.536-1.425c-1.506,0.016-3.039,0.482-3.039,0.482l0.069,6.978c0.002,0.162-0.062,0.244-0.226,0.246
		l-0.792,0.008c-0.146,0.001-0.243-0.095-0.244-0.241l-0.061-5.99c-0.011-1.068-0.419-1.436-1.553-1.424
		c-1.506,0.015-3.022,0.482-3.022,0.482l0.069,6.978c0.001,0.146-0.079,0.243-0.225,0.245l-0.811,0.008
		c-0.146,0.002-0.244-0.094-0.245-0.24l-0.065-6.719c-0.007-0.646,0.022-0.938,0.83-1.222c0.839-0.3,2.454-0.559,3.49-0.569
		c1.021-0.01,1.751,0.178,2.208,0.594c0.901-0.365,2.648-0.642,3.637-0.651c1.927-0.02,2.791,0.571,2.809,2.303l0.061,6.136
		C390.964,255.577,390.866,255.674,390.72,255.675z"/>
	<path fill="#12110C" d="M400.013,255.583l-0.793,0.008c-0.146,0.001-0.244-0.095-0.245-0.241l-0.061-5.99
		c-0.011-1.068-0.419-1.436-1.553-1.424c-1.506,0.015-3.021,0.482-3.021,0.482l0.068,6.978c0.001,0.146-0.079,0.243-0.225,0.245
		l-0.811,0.008c-0.146,0.002-0.243-0.094-0.244-0.24l-0.066-6.719c-0.007-0.646,0.023-0.938,0.83-1.222
		c0.839-0.3,2.455-0.559,3.491-0.569c1.927-0.019,2.791,0.571,2.809,2.303l0.062,6.136
		C400.257,255.484,400.159,255.582,400.013,255.583z"/>
	<path fill="#12110C" d="M407.832,255.489c-0.469,0.103-1.243,0.24-2.102,0.248c-1.392,0.015-3.708-0.012-3.734-2.635
		c-0.021-2.169,1.177-2.294,2.775-2.569l3.055-0.533l-0.007-0.761c-0.006-0.518-0.025-0.938-0.595-1.145
		c-0.31-0.125-0.763-0.186-1.477-0.179c-1.245,0.013-2.326,0.33-2.988,0.499c-0.032,0-0.064,0.017-0.098,0.018
		c-0.063,0-0.13-0.032-0.163-0.129l-0.152-0.726v-0.032c-0.001-0.13,0.11-0.18,0.16-0.196c0.516-0.199,1.903-0.521,3.377-0.535
		c1.149-0.012,1.896,0.144,2.368,0.397c0.829,0.429,0.854,1.188,0.86,1.949l0.046,4.646
		C409.172,254.941,408.946,255.204,407.832,255.489z M407.852,251.02l-2.974,0.532c-0.775,0.152-1.567,0.193-1.556,1.473
		c0.017,1.619,1.343,1.719,2.411,1.708c0.713-0.007,1.473-0.112,2.15-0.346L407.852,251.02z"/>
	<path fill="#12110C" d="M413.954,255.656c-1.425,0.014-2.659-0.443-2.871-0.522c-0.064-0.032-0.131-0.063-0.132-0.161v-0.049
		l0.155-0.633c0.016-0.081,0.063-0.146,0.177-0.146l0.081-0.001c0.13,0.047,1.284,0.456,2.611,0.442
		c1.376-0.014,2.165-0.458,2.155-1.446c-0.014-1.344-1.05-1.284-2.313-1.466c-0.795-0.121-2.82-0.248-2.842-2.385
		c-0.021-2.087,1.837-2.543,3.262-2.557c1.394-0.014,2.464,0.267,2.643,0.313c0.113,0.016,0.162,0.096,0.164,0.176v0.033
		l-0.105,0.712c-0.015,0.099-0.08,0.131-0.145,0.132h-0.032c-0.228-0.014-1.429-0.292-2.383-0.282
		c-1.166,0.011-2.135,0.343-2.123,1.363c0.011,1.101,1.111,1.22,2.116,1.339c1.459,0.18,3.03,0.277,3.054,2.479
		C417.445,255.102,415.832,255.637,413.954,255.656z"/>
	<path fill="#12110C" d="M420.392,245.423l-0.793,0.008c-0.146,0.002-0.244-0.094-0.245-0.224l-0.018-1.748
		c-0.001-0.146,0.096-0.244,0.24-0.246l0.793-0.008c0.146-0.001,0.244,0.096,0.245,0.241l0.019,1.748
		C420.635,245.325,420.538,245.422,420.392,245.423z M420.491,255.379l-0.793,0.008c-0.146,0.002-0.244-0.094-0.245-0.24
		l-0.08-8.013c-0.001-0.146,0.097-0.244,0.241-0.246l0.793-0.008c0.146-0.001,0.244,0.096,0.245,0.241l0.08,8.013
		C420.733,255.281,420.636,255.378,420.491,255.379z"/>
	<path fill="#12110C" d="M430.282,251.655c-0.016,0.081-0.128,0.212-0.208,0.213l-5.941,0.06c0.009,0.891,0.176,1.391,0.52,1.809
		c0.477,0.594,1.271,0.765,2.404,0.753c1.004-0.01,1.617-0.21,2.376-0.429c0.032-0.017,0.063-0.033,0.097-0.033
		c0.065-0.001,0.13,0.048,0.163,0.144l0.186,0.613l0.001,0.064c0.001,0.081-0.064,0.131-0.16,0.181
		c-0.646,0.266-1.712,0.487-2.78,0.497c-3.172,0.032-4.126-1.433-4.156-4.411c-0.026-2.736,0.507-4.473,3.712-4.505
		c1.699-0.017,2.692,0.491,3.235,1.407c0.429,0.725,0.535,1.728,0.546,2.845L430.282,251.655z M428.718,248.984
		c-0.301-1.033-0.938-1.367-2.248-1.354c-1.295,0.014-1.922,0.359-2.188,1.398c-0.155,0.6-0.166,1.231-0.176,1.831l4.824-0.064
		C428.907,250.179,428.868,249.581,428.718,248.984z"/>
	<path fill="#12110C" d="M436.711,254.959c0,0.064-0.063,0.146-0.13,0.163c-0.354,0.117-1.048,0.318-1.971,0.327
		c-1.603,0.017-2.371-0.673-2.387-2.228l-0.089-8.903c-0.001-0.129,0.079-0.178,0.191-0.196l0.873-0.234l0.048-0.001
		c0.113-0.001,0.163,0.111,0.164,0.209l0.026,2.654l2.72-0.026c0.146-0.002,0.244,0.095,0.245,0.24l0.006,0.551
		c0.001,0.146-0.096,0.242-0.241,0.244l-2.72,0.026l0.057,5.554c0.009,0.891,0.495,1.08,1.339,1.072
		c0.501-0.005,1.147-0.142,1.486-0.226l0.049-0.001c0.08-0.001,0.146,0.048,0.18,0.144l0.15,0.599L436.711,254.959z"/>
	<path fill="#12110C" d="M439.95,256.821c-0.029,0.162-0.047,0.212-0.24,0.214l-0.762,0.007c-0.097,0.001-0.21-0.014-0.211-0.159
		l-0.001-0.032l0.181-3.095c0.015-0.162,0.047-0.211,0.24-0.213l1.102-0.011c0.098-0.001,0.211,0.015,0.212,0.144l0.001,0.049
		L439.95,256.821z"/>
	<path fill="#12110C" d="M85.036,277.064l-0.793,0.008c-0.162,0.001-0.261-0.095-0.262-0.241l-0.061-5.99
		c-0.011-1.067-0.402-1.436-1.536-1.424c-1.506,0.015-3.038,0.483-3.038,0.483l0.068,6.977c0.001,0.162-0.062,0.243-0.225,0.245
		l-0.793,0.008c-0.146,0.002-0.244-0.094-0.245-0.24l-0.061-5.99c-0.011-1.067-0.419-1.436-1.553-1.425
		c-1.506,0.016-3.021,0.483-3.021,0.483l0.068,6.977c0.001,0.146-0.079,0.244-0.225,0.245l-0.809,0.009
		c-0.146,0.001-0.244-0.095-0.245-0.241l-0.067-6.718c-0.006-0.647,0.024-0.938,0.83-1.223c0.839-0.299,2.455-0.559,3.491-0.568
		c1.021-0.01,1.751,0.177,2.208,0.594c0.901-0.366,2.648-0.643,3.637-0.652c1.927-0.019,2.791,0.571,2.808,2.304l0.062,6.135
		C85.278,276.964,85.181,277.062,85.036,277.064z"/>
	<path fill="#12110C" d="M94.565,273.342c-0.016,0.08-0.128,0.211-0.208,0.212l-5.941,0.06c0.009,0.891,0.177,1.391,0.521,1.809
		c0.476,0.594,1.271,0.765,2.403,0.753c1.004-0.01,1.616-0.21,2.375-0.429c0.032-0.017,0.063-0.033,0.097-0.033
		c0.064-0.001,0.131,0.048,0.164,0.144l0.184,0.614l0.001,0.064c0.001,0.081-0.062,0.13-0.159,0.18
		c-0.646,0.266-1.713,0.487-2.779,0.498c-3.174,0.031-4.127-1.434-4.156-4.412c-0.027-2.735,0.507-4.473,3.713-4.505
		c1.698-0.017,2.691,0.491,3.234,1.408c0.429,0.725,0.534,1.727,0.546,2.844L94.565,273.342z M93.001,270.67
		c-0.302-1.032-0.936-1.367-2.247-1.354c-1.295,0.013-1.923,0.359-2.188,1.397c-0.156,0.601-0.167,1.231-0.176,1.831l4.821-0.064
		C93.191,271.866,93.152,271.267,93.001,270.67z"/>
	<path fill="#12110C" d="M103.408,276.881l-0.793,0.008c-0.146,0.001-0.244-0.095-0.245-0.241l-0.06-5.99
		c-0.012-1.067-0.419-1.436-1.554-1.424c-1.506,0.015-3.021,0.483-3.021,0.483l0.069,6.977c0.001,0.146-0.079,0.243-0.226,0.245
		l-0.81,0.008c-0.146,0.002-0.244-0.094-0.245-0.24l-0.067-6.718c-0.006-0.647,0.024-0.939,0.831-1.223
		c0.839-0.3,2.455-0.559,3.491-0.569c1.927-0.02,2.791,0.571,2.808,2.304l0.062,6.135
		C103.65,276.782,103.553,276.879,103.408,276.881z"/>
	<path fill="#12110C" d="M117.734,276.739l-0.793,0.008c-0.146,0.001-0.244-0.095-0.245-0.241l-0.06-5.99
		c-0.012-1.067-0.42-1.436-1.554-1.424c-1.506,0.015-3.021,0.483-3.021,0.483l0.068,6.977c0.001,0.146-0.079,0.244-0.225,0.245
		l-0.809,0.008c-0.146,0.002-0.244-0.094-0.245-0.24l-0.114-11.51c-0.002-0.129,0.079-0.179,0.192-0.196l0.87-0.235l0.049-0.001
		c0.112-0.001,0.163,0.112,0.164,0.21l0.027,2.801l-0.152,0.939c0.889-0.269,2.278-0.508,3.218-0.517
		c1.927-0.02,2.791,0.57,2.808,2.303l0.062,6.135C117.976,276.639,117.896,276.737,117.734,276.739z"/>
	<path fill="#12110C" d="M125.553,276.644c-0.47,0.103-1.245,0.24-2.104,0.249c-1.393,0.014-3.708-0.013-3.734-2.636
		c-0.021-2.169,1.177-2.294,2.775-2.569l3.056-0.532l-0.008-0.761c-0.005-0.517-0.024-0.938-0.594-1.143
		c-0.311-0.126-0.763-0.188-1.476-0.18c-1.246,0.012-2.328,0.33-2.99,0.499c-0.032,0-0.064,0.018-0.098,0.018
		c-0.063,0.001-0.131-0.032-0.164-0.128l-0.151-0.728v-0.032c-0.002-0.13,0.111-0.18,0.16-0.195c0.516-0.2,1.904-0.521,3.379-0.536
		c1.148-0.012,1.895,0.145,2.367,0.397c0.828,0.43,0.854,1.189,0.86,1.949l0.046,4.646
		C126.892,276.096,126.668,276.359,125.553,276.644z M125.574,272.175l-2.974,0.532c-0.776,0.153-1.569,0.193-1.558,1.473
		c0.018,1.619,1.346,1.719,2.413,1.708c0.713-0.007,1.474-0.112,2.15-0.346L125.574,272.175z"/>
	<path fill="#12110C" d="M133.159,276.327c-0.048,0.162-0.176,0.26-0.322,0.262l-1.697,0.017c-0.162,0.002-0.293-0.094-0.343-0.255
		l-2.767-7.922c-0.018-0.032-0.018-0.063-0.018-0.081c-0.001-0.113,0.062-0.211,0.159-0.212l0.972-0.01
		c0.162-0.002,0.212,0.096,0.245,0.208l2.37,7.326l0.422-0.004l1.999-7.37c0.03-0.113,0.11-0.212,0.272-0.213l1.004-0.011
		c0.113-0.001,0.195,0.079,0.196,0.192v0.049L133.159,276.327z"/>
	<path fill="#12110C" d="M143.116,276.373c-0.517,0.136-1.195,0.337-2.474,0.35c-3.143,0.031-3.885-1.387-3.914-4.431
		c-0.031-3.107,0.813-4.46,3.729-4.488c1.117-0.012,1.928,0.158,2.48,0.299l-0.172-0.938l-0.023-2.429
		c-0.002-0.129,0.079-0.179,0.208-0.196l0.872-0.235l0.048-0.001c0.113-0.001,0.146,0.112,0.147,0.21l0.104,10.57
		C144.129,275.683,144.134,276.136,143.116,276.373z M142.785,269.091c0,0-1.022-0.282-2.188-0.271
		c-1.781,0.018-2.568,0.593-2.54,3.474c0.029,3.075,0.973,3.423,2.624,3.406c1.197-0.012,2.167-0.329,2.167-0.329L142.785,269.091z"
		/>
	<path fill="#12110C" d="M153.441,272.757c-0.016,0.08-0.128,0.211-0.208,0.212l-5.941,0.059c0.011,0.891,0.178,1.392,0.521,1.809
		c0.476,0.595,1.271,0.766,2.403,0.754c1.004-0.01,1.616-0.21,2.375-0.429c0.032-0.018,0.063-0.033,0.097-0.033
		c0.064-0.001,0.131,0.047,0.164,0.144l0.184,0.613l0.001,0.064c0.001,0.081-0.062,0.131-0.159,0.181
		c-0.646,0.266-1.713,0.486-2.779,0.497c-3.174,0.032-4.127-1.433-4.156-4.411c-0.027-2.735,0.507-4.473,3.713-4.505
		c1.698-0.017,2.691,0.491,3.234,1.408c0.429,0.725,0.534,1.727,0.546,2.844L153.441,272.757z M151.877,270.085
		c-0.302-1.033-0.937-1.367-2.247-1.354c-1.295,0.013-1.923,0.36-2.188,1.398c-0.156,0.6-0.167,1.23-0.176,1.831l4.821-0.064
		C152.067,271.281,152.028,270.682,151.877,270.085z"/>
	<path fill="#12110C" d="M168.487,268.398c0.001,0.032-0.031,0.05-0.08,0.099c-0.353,0.246-0.757,0.348-1.146,0.352
		c-0.26,0.002-0.275-0.014-0.648-0.075c0,0,0.702,0.576,0.714,1.725c0.022,2.299-1.396,2.978-3.532,2.999l-1.197,0.012
		c-0.843,0.008-1.032,0.431-1.028,0.852c0.007,0.68,0.479,0.854,1.189,0.846l2.445-0.024c1.554-0.015,2.659,0.443,2.674,1.884
		c0.021,2.008-1.592,2.688-3.906,2.711c-2.688,0.027-3.925-0.495-3.939-2.131c-0.013-1.263,0.843-1.513,1.635-1.684l-0.002-0.179
		c-0.729-0.153-1.362-0.229-1.374-1.378c-0.01-0.987,0.521-1.235,1.768-1.442c-0.764-0.235-1.833-0.435-1.854-2.394
		c-0.021-2.217,1.428-2.978,3.517-2.997c1.004-0.01,1.409,0.147,2.026,0.319c0.179,0.03,0.373,0.061,0.601,0.059
		c0.242-0.002,0.517-0.053,0.744-0.121c0.289-0.084,0.611-0.232,0.838-0.348c0.048-0.017,0.097-0.05,0.129-0.05
		c0.031-0.001,0.064,0.032,0.082,0.097l0.314,0.807C168.471,268.366,168.487,268.382,168.487,268.398z M165.068,276.268
		l-2.187,0.021c-0.824,0.009-1.583,0.274-1.572,1.246c0.011,1.117,1.178,1.251,2.668,1.236c1.003-0.01,2.637-0.172,2.624-1.5
		C166.592,276.333,165.781,276.261,165.068,276.268z M163.745,268.543c-1.408,0.014-2.278,0.508-2.263,2.013
		c0.015,1.489,0.895,1.95,2.303,1.937c1.394-0.015,2.277-0.493,2.263-1.982C166.032,269.005,165.137,268.529,163.745,268.543z"/>
	<path fill="#12110C" d="M173.684,268.605c-1.068,0.011-1.941,0.101-2.848,0.336l0.07,7.025c0.001,0.146-0.079,0.244-0.225,0.246
		l-0.81,0.008c0,0-0.244-0.095-0.245-0.241l-0.066-6.75c-0.007-0.712,0.138-0.924,0.684-1.188c0.71-0.331,2.165-0.556,2.942-0.563
		l0.403-0.004c0.081-0.001,0.228,0.03,0.229,0.241l0.007,0.696C173.829,268.524,173.798,268.604,173.684,268.605z"/>
	<path fill="#12110C" d="M178.729,276.343c-2.851,0.028-3.573-1.18-3.596-3.316l-0.051-5.147c-0.001-0.13,0.078-0.179,0.208-0.213
		l0.872-0.219h0.049c0.113-0.002,0.146,0.111,0.147,0.208l0.055,5.487c0.016,1.522,0.557,2.197,2.305,2.18
		c2.104-0.021,2.257-1.059,2.244-2.272l-0.052-5.229c-0.001-0.13,0.095-0.179,0.208-0.213l0.872-0.219l0.049-0.001
		c0.113-0.001,0.163,0.112,0.164,0.209l0.053,5.326C182.273,274.527,182.064,276.31,178.729,276.343z"/>
	<path fill="#12110C" d="M191.338,276.006l-0.793,0.009c-0.146,0.001-0.244-0.095-0.245-0.241l-0.06-5.99
		c-0.011-1.067-0.419-1.436-1.552-1.424c-1.506,0.015-3.022,0.483-3.022,0.483l0.069,6.977c0.001,0.146-0.079,0.243-0.226,0.245
		l-0.81,0.008c-0.146,0.002-0.244-0.094-0.245-0.24l-0.066-6.718c-0.007-0.647,0.023-0.939,0.831-1.223
		c0.839-0.3,2.454-0.559,3.49-0.569c1.927-0.019,2.79,0.571,2.808,2.304l0.062,6.135
		C191.58,275.908,191.483,276.005,191.338,276.006z"/>
	<path fill="#12110C" d="M199.768,275.81c-0.518,0.135-1.195,0.336-2.475,0.349c-3.142,0.031-3.884-1.387-3.914-4.431
		c-0.03-3.107,0.814-4.459,3.729-4.488c1.117-0.011,1.928,0.158,2.479,0.3l-0.172-0.938l-0.022-2.429
		c-0.002-0.129,0.079-0.179,0.208-0.196l0.872-0.235h0.048c0.113-0.001,0.146,0.111,0.146,0.209l0.105,10.57
		C200.781,275.12,200.786,275.573,199.768,275.81z M199.437,268.528c0,0-1.023-0.281-2.188-0.27
		c-1.781,0.018-2.567,0.593-2.54,3.474c0.03,3.075,0.974,3.422,2.624,3.405c1.198-0.012,2.167-0.329,2.167-0.329L199.437,268.528z"
		/>
	<path fill="#12110C" d="M205.648,276.076c-1.425,0.014-2.659-0.443-2.87-0.522c-0.066-0.031-0.131-0.062-0.132-0.161v-0.049
		l0.154-0.632c0.016-0.081,0.063-0.146,0.178-0.147l0.081-0.001c0.13,0.047,1.282,0.456,2.609,0.443
		c1.376-0.014,2.166-0.459,2.156-1.447c-0.014-1.343-1.049-1.284-2.312-1.466c-0.797-0.121-2.82-0.247-2.843-2.384
		c-0.021-2.087,1.837-2.543,3.263-2.558c1.393-0.014,2.464,0.267,2.642,0.313c0.114,0.016,0.163,0.097,0.164,0.177v0.033
		l-0.106,0.713c-0.015,0.098-0.078,0.131-0.144,0.131l-0.032,0.001c-0.227-0.015-1.428-0.294-2.383-0.284
		c-1.166,0.012-2.134,0.344-2.124,1.363c0.011,1.101,1.113,1.22,2.118,1.339c1.459,0.18,3.03,0.277,3.053,2.479
		C209.14,275.522,207.526,276.057,205.648,276.076z"/>
	<path fill="#12110C" d="M217.85,275.598c0.001,0.081-0.079,0.146-0.16,0.146l-1.344,0.014c-0.065,0.001-0.099-0.031-0.132-0.08
		l-3.402-3.641l-0.664,0.006l0.035,3.513c0.001,0.146-0.079,0.244-0.226,0.246l-0.81,0.008c-0.146,0.001-0.244-0.095-0.245-0.241
		l-0.114-11.51c-0.002-0.129,0.079-0.179,0.192-0.196l0.872-0.235h0.048c0.113-0.001,0.163,0.111,0.164,0.209l0.072,7.235
		l0.664-0.006l3.233-3.724c0.031-0.048,0.063-0.081,0.128-0.082l1.166,0.021c0.081-0.001,0.163,0.062,0.164,0.144
		c0,0.032-0.017,0.065-0.032,0.082l-3.522,3.936l3.878,4.074C217.834,275.533,217.849,275.566,217.85,275.598z"/>
	<path fill="#12110C" d="M222.42,275.909c-3.384,0.034-3.809-1.986-3.833-4.414c-0.023-2.444,0.361-4.472,3.745-4.506
		c3.399-0.033,3.809,1.986,3.832,4.431C226.188,273.847,225.819,275.875,222.42,275.909z M222.342,268.025
		c-2.348,0.023-2.432,1.399-2.41,3.456c0.021,2.039,0.132,3.415,2.479,3.392s2.431-1.401,2.41-3.44
		C224.8,269.375,224.689,268.001,222.342,268.025z"/>
	<path fill="#12110C" d="M230.946,275.418c0.001,0.113-0.079,0.146-0.128,0.164c-0.128,0.065-0.564,0.199-1.147,0.205
		c-0.97,0.01-1.623-0.453-1.635-1.651l-0.102-10.247c-0.002-0.129,0.079-0.179,0.191-0.196l0.871-0.235l0.048-0.001
		c0.113-0.001,0.163,0.112,0.164,0.21l0.104,10.425c0.005,0.583,0.411,0.66,0.733,0.656c0.228-0.002,0.486-0.037,0.566-0.07
		l0.081-0.001c0.049-0.001,0.098,0.016,0.114,0.113l0.118,0.564C230.929,275.386,230.946,275.402,230.946,275.418z"/>
	<path fill="#12110C" d="M239.427,271.903c-0.016,0.08-0.129,0.211-0.208,0.212l-5.942,0.059c0.009,0.891,0.177,1.392,0.521,1.809
		c0.477,0.594,1.271,0.765,2.404,0.754c1.004-0.01,1.617-0.211,2.376-0.429c0.032-0.018,0.063-0.033,0.096-0.033
		c0.065-0.001,0.132,0.047,0.164,0.144l0.185,0.613l0.001,0.064c0.001,0.081-0.063,0.131-0.159,0.181
		c-0.646,0.265-1.713,0.486-2.781,0.497c-3.173,0.031-4.127-1.433-4.155-4.411c-0.027-2.735,0.507-4.474,3.713-4.505
		c1.698-0.018,2.691,0.49,3.234,1.408c0.43,0.725,0.535,1.727,0.546,2.844L239.427,271.903z M237.863,269.23
		c-0.302-1.032-0.938-1.366-2.248-1.354c-1.295,0.013-1.923,0.36-2.188,1.397c-0.156,0.601-0.168,1.231-0.177,1.831l4.823-0.064
		C238.053,270.425,238.014,269.828,237.863,269.23z"/>
	<path fill="#12110C" d="M248.27,275.441l-0.793,0.008c-0.146,0.002-0.244-0.094-0.245-0.24l-0.061-5.99
		c-0.011-1.067-0.419-1.436-1.553-1.425c-1.506,0.016-3.021,0.483-3.021,0.483l0.068,6.977c0.001,0.146-0.079,0.244-0.225,0.245
		l-0.811,0.009c-0.146,0.001-0.243-0.095-0.244-0.241l-0.067-6.718c-0.006-0.647,0.024-0.938,0.831-1.223
		c0.839-0.299,2.455-0.559,3.491-0.568c1.927-0.02,2.79,0.571,2.807,2.304l0.062,6.135
		C248.511,275.342,248.415,275.439,248.27,275.441z"/>
	<path fill="#12110C" d="M262.755,271.67c-0.015,0.08-0.128,0.211-0.208,0.212l-5.941,0.06c0.01,0.891,0.177,1.391,0.521,1.809
		c0.477,0.594,1.271,0.765,2.404,0.753c1.004-0.01,1.617-0.21,2.376-0.429c0.032-0.017,0.063-0.033,0.096-0.033
		c0.065-0.001,0.131,0.048,0.164,0.144l0.185,0.614l0.001,0.064c0.001,0.081-0.063,0.13-0.159,0.18
		c-0.646,0.266-1.713,0.487-2.781,0.498c-3.173,0.031-4.127-1.434-4.156-4.412c-0.026-2.735,0.508-4.473,3.714-4.505
		c1.698-0.017,2.691,0.491,3.234,1.408c0.429,0.725,0.535,1.727,0.546,2.844L262.755,271.67z M261.19,268.999
		c-0.302-1.032-0.938-1.367-2.248-1.354c-1.295,0.013-1.923,0.359-2.188,1.397c-0.155,0.601-0.167,1.231-0.176,1.831l4.823-0.064
		C261.381,270.194,261.342,269.595,261.19,268.999z"/>
	<path fill="#12110C" d="M267.613,275.054c0.001,0.113-0.079,0.146-0.128,0.163c-0.128,0.066-0.564,0.2-1.147,0.206
		c-0.971,0.01-1.624-0.453-1.636-1.651l-0.102-10.247c-0.002-0.129,0.079-0.179,0.191-0.196l0.872-0.235l0.048-0.001
		c0.113-0.001,0.163,0.112,0.164,0.21l0.104,10.425c0.005,0.583,0.411,0.659,0.733,0.656c0.228-0.002,0.486-0.037,0.566-0.071h0.081
		c0.049-0.001,0.098,0.016,0.114,0.112l0.118,0.565C267.596,275.022,267.613,275.038,267.613,275.054z"/>
	<path fill="#12110C" d="M271.951,275.011c0.001,0.113-0.079,0.146-0.128,0.163c-0.128,0.066-0.564,0.2-1.147,0.206
		c-0.971,0.01-1.623-0.454-1.636-1.652l-0.102-10.247c-0.002-0.129,0.079-0.178,0.191-0.196l0.872-0.234l0.048-0.001
		c0.113-0.001,0.163,0.111,0.164,0.209l0.104,10.425c0.005,0.583,0.411,0.66,0.733,0.657c0.228-0.002,0.485-0.037,0.566-0.071
		l0.081-0.001c0.049,0,0.098,0.016,0.114,0.113l0.119,0.565C271.934,274.979,271.951,274.995,271.951,275.011z"/>
	<path fill="#12110C" d="M280.432,271.495c-0.016,0.08-0.128,0.212-0.208,0.212l-5.942,0.06c0.01,0.891,0.177,1.391,0.521,1.809
		c0.476,0.594,1.271,0.765,2.403,0.753c1.004-0.01,1.617-0.21,2.376-0.429c0.032-0.017,0.063-0.033,0.097-0.033
		c0.064-0.001,0.131,0.048,0.164,0.144l0.185,0.614l0.001,0.064c0.001,0.081-0.064,0.13-0.16,0.18
		c-0.646,0.266-1.713,0.487-2.781,0.498c-3.173,0.031-4.127-1.433-4.155-4.411c-0.027-2.735,0.507-4.474,3.713-4.506
		c1.699-0.017,2.691,0.491,3.234,1.408c0.43,0.725,0.535,1.727,0.546,2.844L280.432,271.495z M278.868,268.823
		c-0.302-1.032-0.937-1.367-2.248-1.354c-1.295,0.013-1.923,0.359-2.188,1.397c-0.156,0.601-0.167,1.231-0.177,1.831l4.823-0.064
		C279.058,270.018,279.019,269.419,278.868,268.823z"/>
	<path fill="#12110C" d="M286.448,267.485c-1.068,0.01-1.941,0.1-2.847,0.336l0.069,7.025c0.001,0.146-0.079,0.243-0.225,0.245
		l-0.81,0.008c0,0-0.244-0.094-0.245-0.24l-0.067-6.75c-0.007-0.712,0.138-0.925,0.686-1.188c0.71-0.332,2.164-0.557,2.941-0.563
		l0.404-0.005c0.081,0,0.227,0.03,0.229,0.241l0.007,0.696C286.593,267.403,286.561,267.483,286.448,267.485z"/>
	<path fill="#12110C" d="M299.939,271.301c-0.016,0.08-0.128,0.211-0.208,0.212l-5.942,0.059c0.009,0.891,0.177,1.392,0.521,1.809
		c0.476,0.594,1.271,0.765,2.403,0.754c1.004-0.01,1.617-0.211,2.376-0.429c0.032-0.018,0.063-0.033,0.097-0.033
		c0.064-0.001,0.131,0.047,0.164,0.144l0.185,0.613l0.001,0.064c0.001,0.081-0.063,0.131-0.16,0.181
		c-0.646,0.265-1.713,0.486-2.78,0.497c-3.174,0.031-4.128-1.433-4.156-4.411c-0.027-2.735,0.507-4.474,3.713-4.505
		c1.699-0.018,2.692,0.49,3.235,1.408c0.429,0.725,0.534,1.727,0.546,2.844L299.939,271.301z M298.375,268.628
		c-0.302-1.032-0.937-1.366-2.248-1.354c-1.295,0.013-1.923,0.36-2.188,1.397c-0.156,0.601-0.167,1.231-0.176,1.831l4.822-0.064
		C298.565,269.825,298.526,269.226,298.375,268.628z"/>
	<path fill="#12110C" d="M308.781,274.839l-0.793,0.008c-0.146,0.002-0.244-0.094-0.245-0.24l-0.06-5.99
		c-0.012-1.067-0.419-1.436-1.553-1.425c-1.506,0.016-3.021,0.483-3.021,0.483l0.069,6.977c0.001,0.146-0.079,0.244-0.226,0.245
		l-0.81,0.009c-0.146,0.001-0.244-0.095-0.245-0.241l-0.067-6.718c-0.006-0.647,0.024-0.938,0.831-1.223
		c0.839-0.299,2.455-0.559,3.491-0.568c1.926-0.02,2.79,0.571,2.807,2.304l0.062,6.135
		C309.023,274.741,308.927,274.838,308.781,274.839z"/>
	<path fill="#12110C" d="M323.266,271.069c-0.016,0.08-0.128,0.212-0.208,0.212l-5.942,0.06c0.01,0.891,0.177,1.391,0.521,1.809
		c0.476,0.594,1.271,0.765,2.403,0.753c1.004-0.01,1.617-0.21,2.376-0.429c0.032-0.017,0.063-0.033,0.097-0.033
		c0.064-0.001,0.131,0.048,0.164,0.144l0.185,0.614l0.001,0.064c0.001,0.081-0.064,0.13-0.16,0.18
		c-0.646,0.266-1.713,0.487-2.781,0.498c-3.173,0.031-4.127-1.433-4.155-4.411c-0.027-2.735,0.507-4.474,3.713-4.506
		c1.699-0.017,2.691,0.491,3.234,1.408c0.43,0.725,0.535,1.727,0.546,2.844L323.266,271.069z M321.702,268.397
		c-0.302-1.032-0.937-1.367-2.248-1.354c-1.295,0.013-1.923,0.359-2.188,1.397c-0.156,0.601-0.167,1.231-0.177,1.831l4.823-0.064
		C321.892,269.592,321.853,268.994,321.702,268.397z"/>
	<path fill="#12110C" d="M329.281,267.059c-1.067,0.01-1.94,0.1-2.847,0.336l0.07,7.025c0.001,0.146-0.078,0.243-0.225,0.245
		l-0.81,0.008c0,0-0.244-0.094-0.245-0.24l-0.067-6.75c-0.007-0.712,0.139-0.925,0.686-1.188c0.709-0.332,2.164-0.557,2.94-0.563
		l0.404-0.005c0.081,0,0.227,0.03,0.229,0.241l0.007,0.696C329.427,266.977,329.394,267.057,329.281,267.059z"/>
	<path fill="#12110C" d="M337.596,274.553l-0.793,0.008c-0.146,0.001-0.244-0.095-0.245-0.241l-0.061-5.99
		c-0.011-1.067-0.419-1.436-1.553-1.424c-1.506,0.015-3.021,0.483-3.021,0.483l0.068,6.977c0.001,0.146-0.079,0.244-0.225,0.245
		l-0.811,0.008c-0.146,0.002-0.243-0.094-0.244-0.24l-0.114-11.51c-0.002-0.129,0.079-0.179,0.191-0.196l0.872-0.235l0.049-0.001
		c0.112-0.001,0.162,0.112,0.163,0.21l0.028,2.801l-0.153,0.938c0.89-0.268,2.279-0.508,3.219-0.517
		c1.927-0.02,2.791,0.57,2.808,2.303l0.062,6.135C337.84,274.454,337.76,274.551,337.596,274.553z"/>
	<path fill="#12110C" d="M344.102,274.229c-0.048,0.163-0.176,0.261-0.322,0.263l-1.699,0.017c-0.161,0.002-0.293-0.094-0.342-0.255
		l-2.767-7.922c-0.019-0.032-0.019-0.064-0.019-0.081c-0.001-0.113,0.062-0.212,0.16-0.213l0.972-0.009
		c0.161-0.002,0.212,0.095,0.244,0.208l2.372,7.326l0.421-0.005l1.999-7.369c0.031-0.113,0.111-0.212,0.273-0.214l1.003-0.01
		c0.113-0.001,0.195,0.079,0.196,0.192v0.049L344.102,274.229z"/>
	<path fill="#12110C" d="M355.174,270.751c-0.016,0.081-0.128,0.212-0.208,0.213l-5.942,0.059c0.01,0.891,0.177,1.391,0.521,1.809
		c0.476,0.594,1.271,0.765,2.403,0.754c1.004-0.011,1.617-0.211,2.376-0.43c0.032-0.017,0.063-0.032,0.097-0.033
		c0.064,0,0.131,0.048,0.164,0.145l0.185,0.613l0.001,0.064c0.001,0.081-0.064,0.131-0.16,0.181
		c-0.646,0.265-1.713,0.486-2.781,0.497c-3.173,0.031-4.127-1.433-4.155-4.411c-0.027-2.735,0.507-4.474,3.713-4.506
		c1.699-0.017,2.691,0.491,3.234,1.409c0.43,0.724,0.535,1.726,0.546,2.843L355.174,270.751z M353.608,268.08
		c-0.302-1.032-0.937-1.367-2.248-1.354c-1.295,0.013-1.923,0.359-2.188,1.397c-0.156,0.601-0.167,1.231-0.177,1.831l4.823-0.064
		C353.8,269.275,353.76,268.677,353.608,268.08z"/>
	<path fill="#12110C" d="M361.188,266.742c-1.068,0.011-1.941,0.101-2.847,0.336l0.069,7.025c0.001,0.146-0.079,0.244-0.225,0.245
		l-0.81,0.008c0,0-0.244-0.094-0.245-0.24l-0.067-6.75c-0.007-0.712,0.138-0.925,0.685-1.188c0.711-0.332,2.165-0.556,2.942-0.562
		l0.404-0.004c0.081-0.001,0.227,0.029,0.229,0.24l0.007,0.696C361.333,266.66,361.302,266.741,361.188,266.742z"/>
	<path fill="#12110C" d="M367.181,274c-0.048,0.162-0.176,0.26-0.322,0.262l-1.698,0.017c-0.162,0.002-0.293-0.094-0.342-0.255
		l-2.767-7.922c-0.019-0.032-0.019-0.064-0.019-0.081c-0.001-0.113,0.062-0.212,0.16-0.213l0.971-0.009
		c0.162-0.002,0.213,0.095,0.245,0.208l2.371,7.326l0.421-0.005l1.999-7.369c0.031-0.113,0.111-0.212,0.273-0.213l1.004-0.011
		c0.113-0.001,0.195,0.079,0.196,0.192v0.049L367.181,274z"/>
	<path fill="#12110C" d="M373.806,274.404c-1.425,0.015-2.659-0.443-2.87-0.522c-0.066-0.031-0.131-0.062-0.132-0.16v-0.049
		l0.155-0.633c0.015-0.081,0.062-0.146,0.177-0.147l0.081-0.001c0.13,0.047,1.283,0.456,2.609,0.443
		c1.376-0.014,2.166-0.458,2.156-1.446c-0.014-1.343-1.049-1.285-2.313-1.467c-0.796-0.121-2.819-0.247-2.842-2.384
		c-0.021-2.087,1.837-2.543,3.263-2.558c1.393-0.014,2.464,0.267,2.643,0.313c0.113,0.016,0.162,0.097,0.163,0.177v0.033
		l-0.106,0.713c-0.015,0.098-0.078,0.131-0.144,0.131l-0.032,0.001c-0.227-0.015-1.428-0.294-2.383-0.284
		c-1.166,0.012-2.134,0.345-2.124,1.364c0.011,1.101,1.113,1.22,2.118,1.338c1.459,0.181,3.03,0.278,3.053,2.48
		C377.3,273.851,375.684,274.385,373.806,274.404z"/>
	<path fill="#12110C" d="M382.55,274.317c-2.851,0.028-3.573-1.18-3.596-3.316l-0.051-5.147c-0.001-0.13,0.078-0.178,0.208-0.213
		l0.872-0.219h0.049c0.113-0.001,0.146,0.111,0.147,0.208l0.055,5.487c0.016,1.522,0.556,2.197,2.305,2.18
		c2.104-0.021,2.257-1.059,2.244-2.272l-0.052-5.229c-0.001-0.13,0.095-0.179,0.208-0.213l0.871-0.219h0.049
		c0.113-0.002,0.163,0.111,0.164,0.208l0.053,5.326C386.093,272.5,385.884,274.284,382.55,274.317z"/>
	<path fill="#12110C" d="M394.201,273.877c-0.517,0.135-1.194,0.336-2.474,0.349c-3.142,0.031-3.884-1.387-3.914-4.431
		c-0.031-3.107,0.814-4.46,3.729-4.488c1.117-0.012,1.929,0.158,2.48,0.3l-0.172-0.938l-0.023-2.429
		c-0.002-0.129,0.079-0.179,0.208-0.196l0.872-0.235h0.048c0.113-0.002,0.146,0.111,0.147,0.209l0.105,10.57
		C395.215,273.187,395.219,273.64,394.201,273.877z M393.87,266.595c0,0-1.022-0.281-2.188-0.271
		c-1.781,0.019-2.568,0.594-2.54,3.475c0.03,3.075,0.973,3.422,2.624,3.405c1.198-0.012,2.167-0.329,2.167-0.329L393.87,266.595z"/>
	<path fill="#12110C" d="M403.413,273.786c-0.517,0.135-1.194,0.336-2.474,0.349c-3.142,0.031-3.884-1.387-3.914-4.431
		c-0.031-3.107,0.814-4.459,3.729-4.488c1.116-0.011,1.928,0.158,2.479,0.3l-0.172-0.938l-0.023-2.429
		c-0.002-0.129,0.079-0.178,0.208-0.196l0.872-0.235h0.049c0.112-0.001,0.146,0.111,0.146,0.209l0.105,10.57
		C404.427,273.095,404.43,273.548,403.413,273.786z M403.082,266.503c0,0-1.022-0.281-2.188-0.27
		c-1.781,0.018-2.568,0.593-2.54,3.474c0.03,3.075,0.973,3.422,2.624,3.405c1.198-0.012,2.167-0.329,2.167-0.329L403.082,266.503z"
		/>
	<path fill="#12110C" d="M412.092,273.795c-0.47,0.103-1.245,0.24-2.104,0.249c-1.393,0.014-3.708-0.012-3.733-2.635
		c-0.021-2.169,1.176-2.295,2.774-2.57l3.057-0.532l-0.009-0.761c-0.005-0.517-0.024-0.938-0.594-1.143
		c-0.31-0.126-0.763-0.187-1.476-0.18c-1.246,0.013-2.328,0.331-2.99,0.499c-0.032,0.001-0.064,0.018-0.097,0.018
		c-0.064,0.001-0.132-0.031-0.164-0.128l-0.152-0.728v-0.032c-0.002-0.13,0.111-0.18,0.16-0.195
		c0.516-0.199,1.905-0.521,3.378-0.536c1.149-0.011,1.896,0.144,2.368,0.397c0.829,0.43,0.854,1.19,0.86,1.95l0.046,4.646
		C413.429,273.249,413.205,273.51,412.092,273.795z M412.111,269.328l-2.974,0.531c-0.776,0.153-1.569,0.193-1.558,1.473
		c0.018,1.619,1.346,1.72,2.413,1.709c0.713-0.008,1.474-0.112,2.15-0.346L412.111,269.328z"/>
	<path fill="#12110C" d="M422.501,273.708l-0.794,0.009c-0.146,0.001-0.243-0.095-0.244-0.241l-0.061-5.99
		c-0.011-1.067-0.419-1.436-1.553-1.424c-1.506,0.015-3.022,0.483-3.022,0.483l0.069,6.977c0.001,0.146-0.079,0.243-0.225,0.245
		l-0.811,0.008c-0.146,0.002-0.244-0.094-0.245-0.24l-0.066-6.718c-0.006-0.647,0.023-0.939,0.831-1.223
		c0.839-0.3,2.455-0.559,3.49-0.569c1.928-0.019,2.791,0.571,2.809,2.304l0.062,6.135
		C422.742,273.61,422.645,273.708,422.501,273.708z"/>
	<path fill="#12110C" d="M431.807,273.617l-0.793,0.008c-0.146,0.001-0.244-0.095-0.245-0.241l-0.06-5.99
		c-0.012-1.067-0.42-1.436-1.554-1.424c-1.506,0.015-3.021,0.483-3.021,0.483l0.068,6.977c0.001,0.146-0.079,0.244-0.225,0.245
		l-0.81,0.008c-0.146,0.002-0.244-0.094-0.245-0.24l-0.067-6.718c-0.006-0.647,0.024-0.939,0.831-1.223
		c0.839-0.299,2.455-0.559,3.491-0.568c1.927-0.02,2.791,0.57,2.808,2.303l0.062,6.135
		C432.051,273.517,431.953,273.615,431.807,273.617z"/>
	<path fill="#12110C" d="M441.353,269.895c-0.015,0.08-0.128,0.212-0.208,0.212l-5.942,0.06c0.01,0.891,0.178,1.391,0.521,1.809
		c0.476,0.594,1.271,0.765,2.404,0.753c1.004-0.01,1.616-0.21,2.376-0.429c0.031-0.017,0.062-0.033,0.096-0.033
		c0.064-0.001,0.131,0.048,0.164,0.144l0.184,0.614l0.001,0.064c0.001,0.081-0.062,0.13-0.159,0.18
		c-0.646,0.266-1.713,0.487-2.78,0.498c-3.173,0.031-4.127-1.434-4.156-4.412c-0.027-2.734,0.507-4.473,3.713-4.505
		c1.699-0.017,2.692,0.491,3.235,1.408c0.429,0.725,0.535,1.727,0.546,2.844L441.353,269.895z M439.789,267.223
		c-0.302-1.032-0.937-1.367-2.247-1.354c-1.296,0.013-1.924,0.359-2.188,1.397c-0.156,0.601-0.167,1.231-0.176,1.831l4.823-0.064
		C439.979,268.418,439.94,267.82,439.789,267.223z"/>
	<path fill="#12110C" d="M446.212,273.279c0.001,0.113-0.079,0.146-0.129,0.163c-0.128,0.066-0.563,0.2-1.146,0.206
		c-0.971,0.01-1.623-0.453-1.635-1.651l-0.103-10.247c-0.002-0.129,0.079-0.179,0.192-0.196l0.871-0.235l0.048-0.001
		c0.113-0.001,0.163,0.112,0.164,0.21l0.104,10.425c0.005,0.583,0.411,0.659,0.734,0.656c0.227-0.002,0.486-0.037,0.566-0.071h0.081
		c0.049-0.001,0.098,0.016,0.113,0.112l0.119,0.565C446.194,273.247,446.212,273.262,446.212,273.279z"/>
	<path fill="#12110C" d="M450.246,273.644c-1.425,0.015-2.658-0.443-2.869-0.522c-0.066-0.031-0.132-0.062-0.133-0.16v-0.049
		l0.155-0.633c0.015-0.081,0.063-0.146,0.177-0.147l0.081-0.001c0.13,0.047,1.283,0.456,2.61,0.443
		c1.376-0.014,2.166-0.458,2.156-1.446c-0.015-1.343-1.05-1.285-2.314-1.467c-0.795-0.121-2.819-0.247-2.841-2.384
		c-0.021-2.087,1.837-2.543,3.262-2.558c1.394-0.014,2.464,0.267,2.644,0.313c0.112,0.016,0.162,0.097,0.163,0.177v0.033
		l-0.106,0.713c-0.015,0.098-0.079,0.131-0.144,0.131l-0.032,0.001c-0.228-0.015-1.429-0.294-2.383-0.284
		c-1.166,0.012-2.135,0.345-2.124,1.364c0.011,1.101,1.112,1.219,2.117,1.338c1.459,0.18,3.03,0.277,3.054,2.479
		C453.738,273.09,452.124,273.625,450.246,273.644z"/>
	<path fill="#12110C" d="M462.623,269.684c-0.015,0.08-0.128,0.211-0.208,0.212l-5.941,0.059c0.009,0.891,0.177,1.392,0.521,1.809
		c0.477,0.594,1.271,0.765,2.404,0.754c1.004-0.01,1.617-0.211,2.376-0.429c0.032-0.018,0.063-0.033,0.096-0.033
		c0.065-0.001,0.132,0.047,0.164,0.144l0.186,0.613l0.001,0.064c0.001,0.081-0.064,0.131-0.16,0.181
		c-0.646,0.265-1.713,0.486-2.781,0.497c-3.173,0.031-4.127-1.433-4.156-4.411c-0.026-2.735,0.508-4.474,3.714-4.505
		c1.698-0.018,2.691,0.49,3.234,1.408c0.429,0.725,0.535,1.727,0.546,2.844L462.623,269.684z M461.058,267.011
		c-0.302-1.032-0.938-1.366-2.248-1.354c-1.295,0.013-1.923,0.36-2.188,1.396c-0.155,0.602-0.167,1.231-0.176,1.831l4.823-0.064
		C461.249,268.208,461.211,267.609,461.058,267.011z"/>
	<path fill="#12110C" d="M75.087,295.723c-1.425,0.014-2.658-0.443-2.869-0.521c-0.065-0.031-0.131-0.063-0.132-0.162l-0.001-0.049
		l0.156-0.632c0.015-0.082,0.062-0.146,0.176-0.147h0.081c0.131,0.047,1.283,0.455,2.61,0.441c1.376-0.014,2.166-0.458,2.156-1.445
		c-0.015-1.345-1.05-1.285-2.313-1.467c-0.796-0.121-2.819-0.248-2.841-2.384c-0.021-2.088,1.835-2.544,3.26-2.558
		c1.394-0.014,2.464,0.267,2.644,0.313c0.113,0.016,0.162,0.096,0.164,0.176v0.033l-0.106,0.714c-0.015,0.098-0.08,0.13-0.146,0.131
		h-0.031c-0.228-0.014-1.429-0.293-2.383-0.283c-1.166,0.011-2.134,0.344-2.123,1.364c0.011,1.101,1.112,1.219,2.117,1.338
		c1.459,0.18,3.03,0.277,3.053,2.479C78.579,295.168,76.965,295.706,75.087,295.723z"/>
	<path fill="#12110C" d="M83.716,295.637c-3.384,0.033-3.809-1.987-3.833-4.415c-0.023-2.444,0.36-4.472,3.744-4.505
		c3.399-0.034,3.81,1.985,3.833,4.43C87.484,293.575,87.115,295.603,83.716,295.637z M83.637,287.753
		c-2.349,0.023-2.433,1.4-2.411,3.457c0.021,2.039,0.132,3.414,2.479,3.392c2.348-0.022,2.432-1.401,2.41-3.44
		C86.095,289.105,85.985,287.73,83.637,287.753z"/>
	<path fill="#12110C" d="M102.071,295.245l-0.793,0.008c-0.162,0.002-0.261-0.094-0.263-0.24l-0.06-5.989
		c-0.011-1.068-0.402-1.437-1.536-1.426c-1.506,0.016-3.04,0.483-3.04,0.483l0.069,6.977c0.002,0.162-0.062,0.244-0.224,0.244
		l-0.793,0.01c-0.146,0.001-0.244-0.096-0.246-0.241l-0.06-5.989c-0.011-1.068-0.419-1.437-1.553-1.425
		c-1.505,0.015-3.022,0.483-3.022,0.483l0.069,6.977c0.002,0.146-0.078,0.243-0.224,0.245l-0.811,0.009
		c-0.146,0.002-0.244-0.095-0.246-0.24l-0.065-6.718c-0.006-0.647,0.023-0.939,0.831-1.223c0.839-0.3,2.453-0.559,3.489-0.569
		c1.021-0.01,1.751,0.178,2.209,0.594c0.901-0.365,2.647-0.642,3.636-0.651c1.927-0.02,2.791,0.571,2.809,2.304L102.31,295
		C102.313,295.145,102.217,295.243,102.071,295.245z"/>
	<path fill="#12110C" d="M116.382,295.101l-0.793,0.008c-0.146,0.002-0.243-0.094-0.246-0.239l-0.059-5.99
		c-0.011-1.068-0.419-1.437-1.553-1.425c-1.506,0.015-3.022,0.482-3.022,0.482l0.069,6.978c0.002,0.146-0.078,0.244-0.224,0.246
		l-0.811,0.008c-0.146,0-0.244-0.096-0.246-0.242l-0.114-11.509c-0.001-0.129,0.08-0.178,0.192-0.196l0.873-0.235h0.048
		c0.113-0.001,0.163,0.111,0.164,0.209l0.028,2.801l-0.153,0.94c0.889-0.268,2.277-0.508,3.216-0.518
		c1.928-0.019,2.791,0.571,2.81,2.304l0.061,6.135C116.624,295.002,116.544,295.1,116.382,295.101z"/>
	<path fill="#12110C" d="M125.634,287.66c0.511,0.804,0.617,1.888,0.631,3.102c0.023,2.428-0.346,4.456-3.744,4.491
		c-1.23,0.012-2.061-0.24-2.63-0.688l-0.849,0.995c-0.017,0.032-0.064,0.05-0.098,0.05c-0.032,0.001-0.064,0.001-0.097-0.031
		l-0.441-0.384c-0.032-0.032-0.065-0.063-0.065-0.097s0.016-0.064,0.048-0.098l0.911-1.094c-0.492-0.807-0.601-1.89-0.611-3.07
		c-0.024-2.444,0.343-4.473,3.743-4.505c1.214-0.012,2.059,0.238,2.631,0.686l0.831-1.011c0.031-0.034,0.063-0.05,0.112-0.051
		c0.032,0,0.064,0.016,0.081,0.032l0.44,0.384c0.049,0.032,0.064,0.064,0.064,0.097c0,0.033-0.015,0.065-0.047,0.098L125.634,287.66
		z M122.441,287.368c-2.349,0.023-2.432,1.4-2.41,3.456c0.008,0.776,0.03,1.458,0.181,1.989l4.081-4.881
		C123.932,287.563,123.347,287.359,122.441,287.368z M124.737,288.738l-4.096,4.913c0.358,0.368,0.944,0.573,1.867,0.564
		c2.349-0.023,2.432-1.401,2.41-3.44C124.912,289.981,124.889,289.286,124.737,288.738z"/>
	<path fill="#12110C" d="M127.489,298.391c-0.647,0.006-0.697-0.01-0.907-0.039c-0.064,0.001-0.26-0.029-0.262-0.209l-0.006-0.534
		c-0.002-0.228,0.128-0.26,0.209-0.261c0,0,0.324,0.013,0.631,0.01c1.053-0.011,1.504-0.191,1.494-1.229l-0.094-9.405
		c-0.002-0.146,0.109-0.245,0.239-0.246l0.811-0.008c0.146-0.002,0.228,0.096,0.229,0.241l0.094,9.487
		C129.944,297.786,129.108,298.375,127.489,298.391z M129.591,285.013l-0.81,0.008c-0.146,0.002-0.244-0.094-0.246-0.224
		l-0.017-1.748c-0.002-0.146,0.095-0.244,0.239-0.246l0.811-0.008c0.146-0.002,0.228,0.096,0.229,0.241l0.018,1.748
		C129.816,284.915,129.736,285.011,129.591,285.013z"/>
	<path fill="#12110C" d="M139.382,291.247c-0.015,0.08-0.128,0.211-0.208,0.213l-5.941,0.059c0.009,0.891,0.176,1.393,0.521,1.809
		c0.477,0.596,1.271,0.766,2.404,0.754c1.004-0.01,1.617-0.211,2.375-0.429c0.032-0.019,0.064-0.032,0.097-0.032
		c0.065-0.002,0.131,0.047,0.164,0.144l0.186,0.612l0.001,0.064c0,0.081-0.064,0.131-0.161,0.182
		c-0.646,0.266-1.712,0.485-2.78,0.496c-3.173,0.032-4.127-1.433-4.156-4.411c-0.026-2.735,0.507-4.473,3.713-4.505
		c1.698-0.017,2.692,0.491,3.235,1.408c0.428,0.725,0.535,1.728,0.546,2.844L139.382,291.247z M137.817,288.575
		c-0.302-1.033-0.938-1.367-2.248-1.354c-1.295,0.013-1.923,0.36-2.188,1.399c-0.155,0.6-0.167,1.229-0.177,1.83l4.824-0.064
		C138.008,289.77,137.969,289.172,137.817,288.575z"/>
	<path fill="#12110C" d="M143.936,295.04c-1.425,0.014-2.66-0.443-2.87-0.522c-0.066-0.031-0.131-0.063-0.132-0.161l-0.001-0.049
		l0.155-0.633c0.016-0.08,0.062-0.146,0.177-0.146l0.081-0.001c0.131,0.048,1.283,0.456,2.61,0.442
		c1.376-0.014,2.166-0.459,2.156-1.446c-0.014-1.345-1.049-1.284-2.314-1.466c-0.795-0.121-2.818-0.247-2.841-2.383
		c-0.021-2.088,1.836-2.544,3.261-2.559c1.394-0.014,2.465,0.267,2.645,0.312c0.113,0.016,0.162,0.097,0.163,0.177v0.033
		l-0.106,0.713c-0.015,0.098-0.08,0.131-0.145,0.131l-0.032,0.001c-0.227-0.015-1.428-0.294-2.383-0.284
		c-1.166,0.012-2.133,0.345-2.123,1.365c0.011,1.101,1.113,1.218,2.118,1.337c1.459,0.18,3.029,0.277,3.052,2.479
		C147.428,294.485,145.814,295.02,143.936,295.04z"/>
	<path fill="#12110C" d="M153.818,294.469c0.001,0.064-0.062,0.146-0.128,0.164c-0.354,0.117-1.049,0.318-1.973,0.328
		c-1.602,0.016-2.369-0.674-2.386-2.229l-0.088-8.903c-0.002-0.129,0.079-0.179,0.192-0.196l0.872-0.235l0.048-0.001
		c0.113-0.001,0.163,0.112,0.164,0.21l0.025,2.654l2.72-0.027c0.146-0.001,0.243,0.096,0.246,0.241l0.006,0.551
		c0.001,0.146-0.097,0.243-0.241,0.244l-2.719,0.027l0.056,5.553c0.009,0.892,0.495,1.08,1.338,1.071
		c0.501-0.006,1.147-0.143,1.486-0.227h0.048c0.081-0.001,0.146,0.047,0.181,0.145l0.151,0.598L153.818,294.469L153.818,294.469z"/>
	<path fill="#12110C" d="M162.219,291.018c-0.016,0.082-0.129,0.213-0.208,0.214l-5.942,0.06c0.009,0.891,0.176,1.391,0.521,1.809
		c0.477,0.594,1.271,0.766,2.404,0.753c1.004-0.011,1.617-0.21,2.375-0.429c0.032-0.018,0.064-0.032,0.097-0.033
		c0.065,0,0.132,0.048,0.164,0.145l0.185,0.613l0.001,0.064c0,0.08-0.063,0.129-0.16,0.18c-0.645,0.266-1.712,0.486-2.78,0.498
		c-3.173,0.031-4.127-1.434-4.155-4.411c-0.027-2.735,0.506-4.474,3.712-4.506c1.698-0.017,2.692,0.491,3.235,1.409
		c0.429,0.724,0.535,1.727,0.546,2.843L162.219,291.018z M160.655,288.348c-0.302-1.033-0.938-1.368-2.248-1.354
		c-1.295,0.013-1.923,0.359-2.188,1.398c-0.156,0.601-0.168,1.23-0.178,1.83l4.824-0.064
		C160.845,289.542,160.806,288.946,160.655,288.348z"/>
	<path fill="#12110C" d="M172.682,294.752c-2.85,0.027-3.572-1.18-3.595-3.315l-0.051-5.147c-0.002-0.13,0.078-0.179,0.207-0.214
		l0.872-0.219h0.049c0.113-0.001,0.146,0.112,0.147,0.208l0.055,5.488c0.016,1.521,0.556,2.195,2.305,2.179
		c2.104-0.021,2.257-1.06,2.244-2.272l-0.052-5.229c-0.002-0.13,0.095-0.179,0.207-0.213l0.872-0.219h0.049
		c0.113-0.001,0.163,0.111,0.164,0.208l0.054,5.326C176.226,292.936,176.017,294.719,172.682,294.752z"/>
	<path fill="#12110C" d="M184.336,294.313c-0.517,0.135-1.194,0.336-2.474,0.35c-3.142,0.03-3.884-1.388-3.914-4.432
		c-0.031-3.107,0.813-4.46,3.728-4.488c1.117-0.012,1.93,0.158,2.481,0.3l-0.172-0.938l-0.024-2.429
		c-0.001-0.129,0.08-0.179,0.208-0.196l0.873-0.235h0.048c0.113-0.001,0.146,0.111,0.147,0.209l0.104,10.57
		C185.348,293.624,185.353,294.077,184.336,294.313z M184.005,287.031c0,0-1.022-0.281-2.188-0.271
		c-1.781,0.02-2.569,0.594-2.54,3.475c0.03,3.075,0.973,3.422,2.624,3.405c1.198-0.013,2.167-0.329,2.167-0.329L184.005,287.031z"/>
	<path fill="#12110C" d="M193.547,294.221c-0.517,0.135-1.194,0.336-2.474,0.349c-3.141,0.031-3.883-1.387-3.913-4.431
		c-0.031-3.107,0.813-4.459,3.728-4.488c1.116-0.011,1.929,0.158,2.48,0.3l-0.172-0.938l-0.024-2.429
		c-0.001-0.129,0.08-0.178,0.208-0.196l0.873-0.235h0.048c0.113-0.001,0.146,0.111,0.147,0.209l0.105,10.57
		C194.559,293.532,194.564,293.984,193.547,294.221z M193.216,286.939c0,0-1.022-0.281-2.188-0.27
		c-1.78,0.018-2.568,0.593-2.539,3.474c0.03,3.074,0.973,3.422,2.623,3.406c1.198-0.014,2.167-0.33,2.167-0.33L193.216,286.939z"/>
	<path fill="#12110C" d="M202.225,294.232c-0.47,0.103-1.245,0.239-2.104,0.248c-1.393,0.015-3.708-0.013-3.733-2.636
		c-0.021-2.168,1.176-2.294,2.774-2.569l3.057-0.531l-0.009-0.761c-0.005-0.518-0.024-0.938-0.595-1.144
		c-0.309-0.126-0.762-0.187-1.475-0.18c-1.246,0.013-2.328,0.331-2.991,0.499c-0.032,0.001-0.064,0.018-0.097,0.018
		c-0.064,0.001-0.131-0.031-0.163-0.128l-0.152-0.727l-0.001-0.032c-0.001-0.13,0.112-0.181,0.16-0.196
		c0.516-0.199,1.905-0.521,3.378-0.536c1.149-0.011,1.896,0.144,2.369,0.397c0.829,0.43,0.854,1.19,0.86,1.951l0.047,4.646
		C203.563,293.684,203.34,293.946,202.225,294.232z M202.245,289.763l-2.974,0.531c-0.775,0.153-1.568,0.193-1.557,1.473
		c0.018,1.618,1.346,1.72,2.413,1.709c0.713-0.007,1.474-0.112,2.15-0.347L202.245,289.763z"/>
	<path fill="#12110C" d="M212.634,294.145l-0.793,0.008c-0.146,0.001-0.243-0.095-0.245-0.24l-0.06-5.99
		c-0.011-1.068-0.419-1.437-1.553-1.425c-1.505,0.015-3.022,0.483-3.022,0.483l0.069,6.977c0.002,0.146-0.078,0.244-0.224,0.246
		l-0.811,0.008c-0.146,0.002-0.244-0.094-0.246-0.24l-0.065-6.718c-0.006-0.647,0.023-0.939,0.831-1.223
		c0.839-0.3,2.454-0.559,3.488-0.569c1.928-0.019,2.791,0.571,2.81,2.304l0.061,6.135
		C212.876,294.045,212.779,294.143,212.634,294.145z"/>
	<path fill="#12110C" d="M221.942,294.051l-0.793,0.009c-0.146,0.001-0.244-0.095-0.246-0.241l-0.059-5.989
		c-0.012-1.068-0.42-1.437-1.554-1.425c-1.506,0.015-3.022,0.483-3.022,0.483l0.068,6.978c0.002,0.145-0.078,0.243-0.224,0.244
		l-0.81,0.008c-0.146,0.002-0.244-0.094-0.246-0.24l-0.066-6.717c-0.006-0.647,0.024-0.938,0.831-1.223
		c0.839-0.299,2.454-0.559,3.49-0.568c1.927-0.02,2.791,0.57,2.809,2.303l0.062,6.135
		C222.184,293.954,222.088,294.049,221.942,294.051z"/>
	<path fill="#12110C" d="M231.487,290.33c-0.015,0.081-0.128,0.213-0.208,0.213l-5.941,0.06c0.01,0.892,0.177,1.392,0.521,1.81
		c0.476,0.594,1.271,0.764,2.404,0.752c1.003-0.01,1.615-0.209,2.374-0.429c0.031-0.017,0.063-0.032,0.097-0.032
		c0.064,0,0.131,0.047,0.164,0.145l0.184,0.613l0.001,0.063c0,0.081-0.062,0.13-0.16,0.181c-0.645,0.266-1.712,0.486-2.778,0.498
		c-3.173,0.03-4.127-1.434-4.156-4.412c-0.027-2.735,0.506-4.474,3.712-4.506c1.698-0.017,2.692,0.491,3.235,1.409
		c0.428,0.724,0.535,1.727,0.546,2.843L231.487,290.33z M229.923,287.66c-0.302-1.033-0.937-1.368-2.247-1.354
		c-1.295,0.013-1.923,0.359-2.188,1.398c-0.156,0.601-0.167,1.23-0.177,1.83l4.822-0.064
		C230.113,288.854,230.074,288.256,229.923,287.66z"/>
	<path fill="#12110C" d="M236.345,293.713c0.001,0.113-0.08,0.146-0.129,0.164c-0.129,0.065-0.563,0.199-1.146,0.205
		c-0.971,0.01-1.624-0.453-1.636-1.65l-0.104-10.247c-0.001-0.129,0.08-0.179,0.192-0.196l0.873-0.235l0.048-0.001
		c0.113-0.001,0.163,0.112,0.164,0.21l0.104,10.424c0.006,0.584,0.412,0.66,0.735,0.656c0.227-0.002,0.486-0.037,0.565-0.07h0.08
		c0.05-0.002,0.1,0.016,0.115,0.113l0.118,0.563C236.329,293.682,236.345,293.698,236.345,293.713z"/>
	<path fill="#12110C" d="M240.381,294.081c-1.425,0.014-2.659-0.443-2.869-0.522c-0.066-0.031-0.132-0.062-0.133-0.16l-0.001-0.049
		l0.156-0.634c0.015-0.08,0.062-0.146,0.176-0.146l0.081-0.001c0.131,0.048,1.284,0.456,2.611,0.442
		c1.376-0.014,2.166-0.457,2.156-1.445c-0.015-1.344-1.05-1.285-2.314-1.467c-0.795-0.121-2.819-0.247-2.841-2.383
		c-0.021-2.088,1.836-2.544,3.261-2.559c1.394-0.014,2.464,0.267,2.645,0.314c0.112,0.015,0.162,0.096,0.163,0.176v0.033
		l-0.106,0.713c-0.015,0.098-0.08,0.131-0.145,0.132h-0.032c-0.228-0.015-1.429-0.294-2.383-0.284
		c-1.166,0.012-2.134,0.345-2.123,1.365c0.011,1.101,1.112,1.219,2.117,1.337c1.459,0.181,3.03,0.278,3.053,2.48
		C243.873,293.527,242.259,294.061,240.381,294.081z"/>
	<path fill="#12110C" d="M252.757,290.119c-0.015,0.081-0.128,0.212-0.208,0.213l-5.94,0.059c0.009,0.891,0.176,1.393,0.521,1.809
		c0.477,0.596,1.271,0.766,2.403,0.754c1.004-0.01,1.617-0.211,2.375-0.429c0.032-0.019,0.064-0.032,0.097-0.032
		c0.065-0.002,0.132,0.047,0.164,0.143l0.186,0.613l0.001,0.064c0,0.081-0.064,0.131-0.161,0.182
		c-0.646,0.264-1.712,0.485-2.78,0.496c-3.172,0.032-4.126-1.433-4.155-4.411c-0.026-2.735,0.507-4.474,3.712-4.505
		c1.698-0.017,2.692,0.491,3.235,1.408c0.428,0.725,0.535,1.728,0.546,2.844L252.757,290.119z M251.192,287.448
		c-0.302-1.033-0.938-1.367-2.248-1.354c-1.294,0.013-1.922,0.36-2.188,1.399c-0.155,0.6-0.167,1.229-0.177,1.83l4.823-0.065
		C251.383,288.643,251.344,288.045,251.192,287.448z"/>
	<path fill="#12110C" d="M256.953,293.704l-1.408,0.016c-0.146,0.001-0.244-0.096-0.246-0.241l-0.01-1.036
		c-0.002-0.146,0.095-0.242,0.24-0.244l1.408-0.015c0.146-0.001,0.244,0.095,0.246,0.239l0.01,1.037
		C257.195,293.605,257.098,293.704,256.953,293.704z"/>
</g>
</svg>
