<?xml version="1.0" encoding="utf-8"?>
<!-- Generator: Adobe Illustrator 16.0.4, SVG Export Plug-In . SVG Version: 6.00 Build 0)  -->
<!DOCTYPE svg PUBLIC "-//W3C//DTD SVG 1.1//EN" "http://www.w3.org/Graphics/SVG/1.1/DTD/svg11.dtd">
<svg version="1.1" id="binocular" xmlns="http://www.w3.org/2000/svg" xmlns:xlink="http://www.w3.org/1999/xlink" x="0px" y="0px"
	 width="2834.646px" height="1467.093px" viewBox="0 0 2834.646 1467.093" enable-background="new 0 0 2834.646 1467.093"
	 xml:space="preserve">
<g>
	<g opacity="0.6">
		<g>
			<path fill="#8A8899" d="M1761.346,658.672l-9.959-1.623c0,0-11.234,8.561-2.572,22.355c0.307,0.488,13.664,1.67,13.664,1.67
				S1760.773,658.914,1761.346,658.672z"/>
		</g>
		<g>
			<path fill="#8A8899" d="M1944.104,650.828c-9.721-0.127-174.393,3.889-174.393,3.889c-19.979,1.779-11.516,19.887-3.963,29.154
				l176.639,30.15"/>
		</g>
		<g>
			<path fill="#8A8899" d="M1852.492,651.934c-19.506,6.346-20.727,32.668-4.215,45.117"/>
		</g>
		<g>
			<path fill="#8A8899" d="M1829.086,651.863c-15.953,6.924-11.494,32.121-1.355,39.385"/>
		</g>
		<g>
			<path fill="#8A8899" d="M1932.604,657.67c-3.131,4.713-5.652,24.006-5.229,30.801c0.432,6.121,4.756,34.139,21.639,21.998
				c13.748-9.885,15.289-27.051,11.178-48.363c-2.283-11.842-14.393-18.914-27.891-4.148"/>
		</g>
		<g>
			<path fill="#8A8899" d="M1940.201,662.111c-3.281,4.879-3.072,16.35-2.854,21.285c0.229,4.445,3.562,28.361,12.197,18.93
				c5.441-5.941,9.957-24.5,5.818-34.912c-3.314-8.188-7.826-15.48-15.375-4.725"/>
		</g>
		<g>
			<path fill="#8A8899" d="M1795.484,699.207l26.139-19.195c0,0,12.764,0.402,13.824,0.652c1.061,0.248-11.926,17.027-11.926,17.027
				L1795.484,699.207z"/>
		</g>
		<g>
			<path fill="#8A8899" d="M1715.723,699.688l-15.334-1.949c0,0-17.242,9.969-3.852,26.162c0.475,0.572,21.037,2.021,21.037,2.021
				S1714.84,699.969,1715.723,699.688z"/>
		</g>
		<g>
			<path fill="#8A8899" d="M1882.697,754.041c-22.881-1.047-158.338-22.264-158.338-22.264c-0.004,0.373-35.854-9.445-8.244-36.387
				c0,0,38.695,0.504,55.059-0.404c36.002-1.773,71.471-4.676,107.498-8.32"/>
		</g>
		<g>
			<path fill="#8A8899" d="M1788.631,694.092c-15.885,5.777-33.291,30.227,0.217,51.633"/>
		</g>
		<g>
			<path fill="#8A8899" d="M1811.016,691.391c-23.76,7.773-30.186,33.328-0.195,55.562"/>
		</g>
		<g>
			<path fill="#8A8899" d="M1876.002,691.004c-6.686,7.775-6.189,26.107-5.709,34c0.49,7.102,7.447,45.348,25.055,30.324
				c11.094-9.467,20.225-39.094,11.697-55.764c-6.826-13.1-16.096-24.783-31.477-7.637"/>
		</g>
		<g>
			<path fill="#8A8899" d="M1883.561,697.5c-3.799,6.055-3.568,20.281-3.32,26.406c0.258,5.512,4.084,35.178,14.076,23.467
				c6.293-7.375,11.533-30.398,6.762-43.314c-3.822-10.148-9.027-19.191-17.764-5.84"/>
		</g>
	</g>
	<g>
		<g>
			<path fill="#CACBD5" d="M1751.108,625.54l-10.072-1.471c0,0-10.473,12.328-0.646,30.277c0.35,0.637,13.773,1.271,13.773,1.271
				S1750.558,625.907,1751.108,625.54z"/>
			<g>
				<path fill="#8A8899" d="M1751.606,623.732c-2.138-0.312-10.291-2.927-11.896-0.989c-2.893,3.493-4.446,8.04-5.117,12.462
					c-0.595,3.922-0.158,7.832,0.752,11.664c0.546,2.294,2.068,8.58,4.683,9.377c4.366,1.33,9.604,1.029,14.136,1.247
					c0.932,0.045,1.994-0.892,1.875-1.875c-0.582-4.799-1.14-9.6-1.679-14.403c-0.383-3.411-0.75-6.824-1.077-10.241
					c-0.106-1.117-0.202-2.235-0.283-3.354c-0.06-0.816,0.33-2.455-0.271-1.133c0.994-2.184-2.237-4.091-3.238-1.893
					c-0.582,1.278-0.257,2.866-0.149,4.216c0.276,3.478,0.67,6.946,1.049,10.414c0.599,5.469,1.237,10.934,1.899,16.395
					c0.625-0.625,1.25-1.25,1.875-1.875c-3.634-0.175-7.269-0.388-10.89-0.741c-3.254-0.316-3.46-4.204-4.312-7.13
					c-1.121-3.851-1.136-7.963-0.37-11.872c0.426-2.171,1.246-4.253,2.264-6.208c0.342-0.657,0.741-1.283,1.151-1.899
					c0.797-1.197,0.191,0.228-1.355,0.001c3.32,0.485,6.64,0.97,9.96,1.454C1752.975,627.693,1753.992,624.08,1751.606,623.732z"/>
			</g>
		</g>
		<g>
			<path fill="#CACBD5" d="M1932.735,601.888c-9.707,0.525-173.623,17.73-173.623,17.73c-19.775,3.822-9.777,27.594-1.445,39.529
				l178.789,27.932"/>
			<g>
				<path fill="#8A8899" d="M1932.735,600.013c-22.059,1.266-44.134,4.291-66.104,6.55c-30.472,3.133-60.938,6.307-91.403,9.493
					c-5.874,0.614-12.055,0.744-17.836,2.025c-19.5,4.32-9.744,28.664-2.951,39.591c1.794,2.887,2.327,3.221,5.224,3.674
					c3.342,0.521,6.685,1.044,10.026,1.566c12.26,1.915,24.519,3.83,36.778,5.745c43.163,6.743,86.326,13.486,129.489,20.229
					c2.364,0.37,3.38-3.243,0.996-3.615c-49.279-7.699-98.559-15.398-147.838-23.097c-9.211-1.438-18.421-2.878-27.631-4.316
					c-0.871-0.137-1.742-0.272-2.612-0.408c-0.198-0.031-0.396-0.062-0.593-0.093c0.914,0.143-0.646-1.647-1.139-2.441
					c-4.521-7.271-9.384-17.321-7.079-26.077c2.216-8.423,13.692-7.833,20.508-8.546c12.699-1.33,25.399-2.655,38.101-3.979
					c26.04-2.711,52.081-5.412,78.127-8.067c15.271-1.557,30.606-3.604,45.938-4.484
					C1935.139,603.625,1935.152,599.874,1932.735,600.013L1932.735,600.013z"/>
			</g>
		</g>
		<g>
			<path fill="#CACBD5" d="M1848.231,609.571c-18.908,9.941-17.863,45.463-0.324,61.037"/>
			<g>
				<path fill="#8A8899" d="M1847.285,607.952c-22.452,12.515-17.098,48.89-0.704,63.982c1.775,1.634,4.435-1.011,2.652-2.652
					c-14.593-13.434-20.395-46.756-0.056-58.092C1851.29,610.013,1849.399,606.773,1847.285,607.952L1847.285,607.952z"/>
			</g>
		</g>
		<g>
			<path fill="#CACBD5" d="M1824.88,611.153c-15.318,10.463-8.705,44.066,2.033,53.117"/>
			<g>
				<path fill="#8A8899" d="M1823.934,609.534c-8.687,6.325-10.462,17.446-9.786,27.546c0.654,9.79,3.831,21.748,11.439,28.517
					c1.801,1.601,4.463-1.042,2.652-2.652c-6.415-5.705-9.029-15.333-10.111-23.542c-1.195-9.075-0.346-20.772,7.698-26.63
					C1827.76,611.364,1825.892,608.108,1823.934,609.534L1823.934,609.534z"/>
			</g>
		</g>
		<g>
			<path fill="#CACBD5" d="M1921.853,611.921c-2.719,6.568-3.574,32.719-2.568,41.84c0.957,8.205,7.68,45.613,23.477,28.061
				c12.861-14.295,12.926-37.51,6.992-65.906c-3.297-15.781-15.984-24.43-28.178-3.586"/>
			<g>
				<path fill="#8A8899" d="M1920.045,611.423c-2.95,7.783-2.693,17.378-2.949,25.562c-0.229,7.311-0.179,14.601,1.062,21.82
					c1.512,8.796,5.546,31.77,18.691,29.275c7.67-1.456,12.75-11.994,15.182-18.392c4.148-10.915,3.845-23.319,2.691-34.735
					c-1.07-10.59-1.986-23.302-8.813-31.96c-5.123-6.498-12.89-5.602-18.752-0.805c-2.993,2.448-5.216,5.934-7.2,9.194
					c-1.261,2.071,1.983,3.954,3.238,1.893c4.771-7.84,13.713-16.741,21.009-6.342c2.698,3.845,3.575,8.569,4.466,13.076
					c1.189,6.019,2.067,12.091,2.612,18.2c0.874,9.811,0.55,19.843-2.449,29.283c-1.674,5.267-7.706,18.569-15.056,16.938
					c-5.135-1.14-7.613-9.764-8.965-13.944c-1.66-5.133-2.765-10.479-3.536-15.812c-0.958-6.63-0.587-13.57-0.343-20.236
					c0.26-7.106,0.174-15.279,2.728-22.02C1924.52,610.154,1920.893,609.184,1920.045,611.423L1920.045,611.423z"/>
			</g>
		</g>
		<g>
			<path fill="#8A8899" d="M1929.813,617.356c-2.857,6.803-1.662,22.227-1.018,28.854c0.609,5.973,5.992,37.928,13.793,24.615
				c4.918-8.391,7.828-33.697,2.805-47.42c-4.012-10.781-9.139-20.275-15.742-5.254"/>
		</g>
		<g>
			<path fill="#CACBD5" d="M1793.61,673.89l26.229-26.012c0,0,12.762,0.484,13.822,0.814c1.059,0.332-12.006,23.023-12.006,23.023
				L1793.61,673.89z"/>
			<g>
				<path fill="#8A8899" d="M1794.937,675.216c6.613-6.56,13.227-13.118,19.841-19.678c1.524-1.512,3.049-3.023,4.573-4.534
					c0.477-0.474,0.954-0.947,1.432-1.421c0.985-0.978-1.455,0.149-0.585,0.184c2.385,0.093,4.77,0.2,7.153,0.319
					c1.489,0.074,2.979,0.162,4.466,0.27c2.354,0.17,0.309-2.385-0.175-1.077c-1.839,4.967-4.955,9.687-7.527,14.294
					c-1.086,1.945-2.185,3.883-3.288,5.817c-1.451,2.545,1.775,0.378-0.221,0.532c-8.998,0.697-17.997,1.396-26.995,2.093
					c-2.395,0.186-2.413,3.937,0,3.75c9.349-0.725,18.696-1.449,28.045-2.174c3.011-0.233,5.892-8.469,7.078-10.608
					c1.638-2.954,3.25-5.923,4.781-8.934c0.723-1.422,2.111-3.465,2.078-5.145c-0.076-3.779-9.814-2.648-12.113-2.751
					c-4.38-0.195-5.036,0.468-8.063,3.47c-7.71,7.647-15.421,15.294-23.132,22.94
					C1790.565,674.269,1793.218,676.92,1794.937,675.216z"/>
			</g>
		</g>
		<g>
			<path fill="#CACBD5" d="M1713.841,674.901l-15.324-2.559c0,0-17.289,13.523-3.971,35.307c0.473,0.768,21.027,2.631,21.027,2.631
				S1712.958,675.282,1713.841,674.901z"/>
			<g>
				<path fill="#8A8899" d="M1714.339,673.094c-2.872-0.48-5.745-0.96-8.617-1.439c-1.828-0.305-6.342-1.99-8.151-0.931
					c-4.671,2.736-7.782,9.489-9.138,14.385c-1.292,4.669-0.878,9.598,0.332,14.225c0.863,3.303,2.574,9.641,6.382,10.47
					c6.639,1.446,13.67,1.737,20.427,2.353c0.966,0.088,1.946-0.921,1.875-1.875c-0.398-5.35-0.764-10.701-1.104-16.055
					c-0.259-4.085-0.497-8.171-0.676-12.261c-0.061-1.404-0.106-2.81-0.129-4.216c-0.017-0.965,0.595-2.735-0.372-1.521
					c1.49-1.871-1.145-4.543-2.652-2.652c-1.128,1.416-0.74,3.729-0.701,5.414c0.095,4.087,0.353,8.172,0.597,12.252
					c0.379,6.349,0.815,12.696,1.288,19.039c0.625-0.625,1.25-1.25,1.875-1.875c-5.622-0.512-11.254-1.041-16.85-1.802
					c-1.01-0.137-2.019-0.294-3.015-0.512c-1.268-0.275-2.849-6.225-3.329-7.756c-1.464-4.668-1.231-9.582,0.256-14.192
					c0.981-3.043,2.816-5.858,4.913-8.246c0.514-0.585,1.07-1.133,1.64-1.663c1.354-1.262-0.876-0.034-0.869-0.033
					c5.008,0.836,10.016,1.672,15.023,2.508C1715.707,677.104,1716.721,673.491,1714.339,673.094z"/>
			</g>
		</g>
		<g>
			<path fill="#CACBD5" d="M1880.579,747.46c-22.879-1.309-158.244-29.309-158.244-29.309c-0.006,0.5-35.812-12.58-8.08-49.051
				c0,0,38.695,0.506,55.062-0.795c36.012-2.557,71.498-6.633,107.541-11.713"/>
			<g>
				<path fill="#8A8899" d="M1880.579,745.585c-11.043-0.678-22.091-2.993-32.965-4.903c-17.053-2.995-34.061-6.25-51.056-9.555
					c-24.453-4.755-48.878-9.656-73.274-14.69c-0.147-0.03-0.294-0.061-0.441-0.091c-0.375-0.078-0.632-0.105-1.006-0.002
					c-1.589,0.437,1.518,0.163,0.72-0.034c-1.208-0.298-2.359-0.957-3.445-1.537c-4.775-2.556-8.817-6.343-11.361-11.144
					c-4.367-8.244-1.402-17.836,2.751-25.478c0.526-0.968,4.562-7.165,3.787-7.176c0.5,0.007,0.999,0.013,1.499,0.018
					c2.823,0.03,5.646,0.049,8.469,0.062c51.36,0.253,102.285-5.517,153.101-12.655c2.387-0.335,1.367-3.947-0.996-3.615
					c-32.955,4.629-66.014,8.477-99.193,11.063c-19.283,1.504-38.597,1.573-57.929,1.426c-1.65-0.013-3.301-0.027-4.95-0.049
					c-1.35-0.017-2.021,1.425-2.701,2.338c-2.155,2.896-4.012,5.998-5.648,9.212c-3.669,7.205-5.345,15.542-2.847,23.38
					c1.773,5.563,5.771,10.039,10.369,13.472c2.204,1.645,5.872,4.34,8.803,4.411c2.519,0.061-1.761-0.354,0.313,0.074
					c1.169,0.241,2.339,0.481,3.509,0.722c4.541,0.934,9.083,1.859,13.626,2.783c15.092,3.068,30.193,6.092,45.305,9.063
					c30,5.899,60.153,12.477,90.527,16.172c1.674,0.203,3.352,0.379,5.035,0.482
					C1882.995,749.483,1882.981,745.732,1880.579,745.585L1880.579,745.585z"/>
			</g>
		</g>
		<g>
			<path fill="#CACBD5" d="M1786.78,667.019c-15.912,7.867-33.43,40.926-0.018,69.648"/>
			<g>
				<path fill="#8A8899" d="M1785.834,665.399c-10.658,5.5-17.484,17.116-19.456,28.668c-2.953,17.303,6.503,32.873,19.059,43.926
					c1.808,1.591,4.471-1.052,2.652-2.652c-12.018-10.577-20.727-24.861-17.91-41.361c1.746-10.224,8.194-20.516,17.548-25.342
					C1789.876,667.528,1787.979,664.293,1785.834,665.399L1785.834,665.399z"/>
			</g>
		</g>
		<g>
			<path fill="#CACBD5" d="M1809.179,663.274c-23.799,10.596-30.34,45.096-0.449,74.951"/>
			<g>
				<path fill="#8A8899" d="M1808.232,661.655c-12.565,5.838-19.977,17.659-21.245,31.279c-1.652,17.749,8.466,34.439,20.416,46.617
					c1.696,1.728,4.347-0.926,2.652-2.652c-11.313-11.526-19.974-26.17-19.394-42.775c0.444-12.747,7.973-23.892,19.463-29.23
					C1812.316,663.875,1810.41,660.644,1808.232,661.655L1808.232,661.655z"/>
			</g>
		</g>
		<g>
			<path fill="#CACBD5" d="M1874.171,662.458c-6.721,10.52-6.309,35.246-5.865,45.889c0.457,9.578,7.242,61.137,24.918,40.791
				c11.139-12.818,20.404-52.828,11.955-75.275c-6.768-17.639-15.986-33.357-31.445-10.156"/>
			<g>
				<path fill="#8A8899" d="M1872.552,661.512c-5.028,8.364-5.696,19.066-6.16,28.578c-0.369,7.555-0.379,15.247,0.424,22.777
					c1.357,12.729,3.293,28.499,11.408,38.893c10.287,13.176,21.576-8.562,24.673-16.418c7.471-18.956,11.151-43.787,3.603-63.234
					c-2.881-7.42-6.593-17.381-14.319-21.038c-8.531-4.038-15.954,5.708-20.065,11.69c-1.373,1.999,1.878,3.872,3.238,1.893
					c2.885-4.198,7.752-11.546,13.838-10.636c4.658,0.696,7.651,6.409,9.644,10.081c5.5,10.139,7.811,20.788,7.743,32.263
					c-0.069,11.685-2.339,23.428-6.029,34.489c-2.241,6.718-6.255,18.332-13.812,20.922c-5.787,1.984-9.322-8.605-10.621-12.307
					c-2.492-7.106-3.893-14.626-4.978-22.061c-0.947-6.497-1.17-12.982-1.172-19.545c-0.005-10.719,0.139-22.871,4.846-32.729
					c0.297-0.592,0.623-1.168,0.979-1.727C1877.039,661.326,1873.796,659.442,1872.552,661.512L1872.552,661.512z"/>
			</g>
		</g>
		<g>
			<path fill="#8A8899" d="M1881.702,671.187c-3.826,8.184-3.664,27.373-3.441,35.635c0.232,7.436,3.924,47.434,13.967,31.592
				c6.328-9.98,11.676-41.059,6.961-58.461c-3.775-13.672-8.939-25.848-17.74-7.797"/>
		</g>
	</g>
</g>
</svg>
