<?xml version="1.0" encoding="utf-8"?>
<!-- Generator: Adobe Illustrator 16.0.4, SVG Export Plug-In . SVG Version: 6.00 Build 0)  -->
<!DOCTYPE svg PUBLIC "-//W3C//DTD SVG 1.1//EN" "http://www.w3.org/Graphics/SVG/1.1/DTD/svg11.dtd">
<svg version="1.1" id="bird" xmlns="http://www.w3.org/2000/svg" xmlns:xlink="http://www.w3.org/1999/xlink" x="0px" y="0px"
	 width="2834.646px" height="1467.093px" viewBox="0 0 2834.646 1467.093" enable-background="new 0 0 2834.646 1467.093"
	 xml:space="preserve">
<g>
	<path fill="#FFFFFF" d="M577.549,139.713c-0.519,0.125-1.021,0.262-1.52,0.404c-0.24-0.033-0.495-0.047-0.777-0.012
		c-7.479,0.943-14.979,0.426-22.489,0.494c-0.063-0.051-0.112-0.107-0.18-0.158c-1.984-1.488-4.264-0.965-6.262,0.34
		c-2.611,0.082-5.224,0.105-7.823-0.223c-1.258-0.164-2.46-0.439-3.639-0.771c-0.058-0.064-0.112-0.133-0.173-0.191
		c-1.612-1.588-3.666-2.141-5.537-1.758c-0.689-0.25-1.379-0.496-2.084-0.73c-8.166-2.691-25.596-4.113-25.808,8.754
		c-0.212,12.57,19.486,13.309,28.099,13.652c4.032,0.16,7.751,0.111,11.534,1.803c2.652,1.184,5.254,2.219,7.91,3.273
		c0.584,0.514,1.304,0.854,2.057,0.816c0.004,0.004,0.011,0.006,0.011,0.006c2.861,1.145,5.302,3.068,8.124,4.289
		c3.541,1.529,7.277,2.314,11.043,3.061c2.547,0.502,4.647-1.998,3.366-4.379c-2.124-3.961-3.362-8.209-3.302-12.736
		c0.083-6.332,3.45-8.822,9.036-10.188C582.862,144.551,581.283,138.801,577.549,139.713z"/>
	<path fill="#CDCDD4" d="M649.956,155.799c-1.107-0.316-2.272-0.514-3.372-0.592c1.044-0.355,2.107-0.77,3.13-1.266
		c3.157-1.49,1.779-7.707-1.432-6.188c-1.616,0.783-3.283,1.367-5.018,1.84c-0.419-0.859-1.177-1.469-2.141-1.357
		c-7.268,0.75-14.204,3.051-21.226,5.189c-0.407,0.115-0.796,0.234-1.169,0.354c-2.631-2.174-5.555-3.479-8.79-3.938
		c-0.085-0.207-0.181-0.412-0.301-0.607c-4.391-7.119-11.05-7.91-17.777-8.008c-0.038,0-0.044-0.014-0.063-0.023
		c-9.925-1.994-21.212,2.734-19.884,17.158c1.123,12.119,10.276,19.258,19.884,17.305c1.214-0.219,1.794-1.221,1.902-2.338
		c1.756,0.018,3.543-0.146,5.279-0.438c3.358-2.025,6.399-4.494,8.693-7.348c0.745-0.926,1.6-1.398,2.461-1.529
		c-0.104-0.523-0.307-1.018-0.646-1.432c5.266,1.586,10.704,2.166,16.12,2.379c8.461,1.506,18.665,4.117,25.518-3.807
		C652.552,159.543,651.907,156.33,649.956,155.799z"/>
	<g>
		<g>
			<path fill="#8A8899" d="M489.672,159.835c5.133-3.814,10.472-3.342,16.135-1.123c2.229,0.873,3.186-2.714,0.985-3.576
				c-6.521-2.555-13.149-2.845-18.992,1.498C485.905,158.043,487.751,161.264,489.672,159.835L489.672,159.835z"/>
		</g>
	</g>
	<g>
		<g>
			<path fill="#8A8899" d="M523.718,137.391c9.634,8.133,26.566,4.708,37.989,4.115c17.351-0.901,37.206-1.163,50.428,11.951
				c1.699,1.686,4.321-0.936,2.622-2.621c-12.121-12.021-29.4-13.675-45.645-13.33c-8.222,0.175-16.419,0.948-24.644,1.073
				c-5.87,0.089-13.367,0.21-18.128-3.81C524.525,133.237,521.888,135.847,523.718,137.391L523.718,137.391z"/>
		</g>
	</g>
	<g>
		<g>
			<path fill="#8A8899" d="M609.196,162.413c-9.95,4.854-20.771,9.66-32.046,9.782c-6.733,0.073-12.681-2.602-18.532-5.627
				c-6.2-3.206-12.407-5.967-19.329-7.185c-4.595-0.81-9.275-0.902-13.924-0.672c-1.867,0.093-3.406,0.473-5.202-0.008
				c-3.484-0.933-6.771-2.434-9.952-4.111c-2.113-1.115-3.987,2.085-1.871,3.201c3.931,2.075,8.113,3.984,12.491,4.896
				c2.441,0.508,5.745-0.354,8.28-0.393c2.743-0.041,5.502,0.14,8.22,0.51c7.724,1.051,14.46,4.438,21.306,7.934
				c6.153,3.143,12.406,5.228,19.385,5.152c11.554-0.125,22.875-5.316,33.045-10.279
				C613.216,164.566,611.336,161.369,609.196,162.413L609.196,162.413z"/>
		</g>
	</g>
	<g>
		<g>
			<path fill="#8A8899" d="M612.953,153.935c5.576,1.386,11.244-0.178,16.64-1.656c6.321-1.731,15.289-5.398,21.071-0.597
				c-0.097-0.748-0.193-1.497-0.29-2.246c-5.338,11.173-24.291,2.646-33.698,7.306c-1.431,0.709-1.075,3.044,0.443,3.389
				c4.42,1.002,9.585-0.076,14.025-0.444c6.102-0.507,12.554-1.363,18.659-0.504c3.486,0.491,2.597,1.671-0.501,2.719
				c-3.36,1.137-7.187,1.061-10.692,1.032c-10.376-0.085-20.817-1.202-31.155,0.054c-2.342,0.284-2.37,3.995,0,3.707
				c12.052-1.464,24.152,0.513,36.225-0.169c3.477-0.196,15.75-2.345,11.778-8.598c-2.697-4.244-12.311-2.747-16.302-2.535
				c-4.247,0.226-8.482,0.636-12.721,0.971c-2.615,0.207-5.732,0.781-8.329,0.191c0.148,1.13,0.295,2.26,0.443,3.389
				c10.523-5.213,28.531,4.966,35.029-8.636c0.336-0.705,0.38-1.689-0.29-2.246c-11.754-9.764-26.546,4.48-39.348,1.298
				C611.617,149.782,610.633,153.357,612.953,153.935L612.953,153.935z"/>
		</g>
	</g>
	<path fill="#9898AC" d="M509.425,142.959c0.409-0.541,1.041-0.879,1.803-0.879c1.388,0,2.745,1.463,2.637,3.189
		c-0.086,1.584-0.83,3.051-2.194,3.412c-1.401,0.367-2.862-0.488-3.26-2.236C508.14,145.195,508.585,143.727,509.425,142.959z"/>
	<g>
		<g>
			<path fill="#8A8899" d="M525.964,134.479c-12.129-6.894-24.542-1.532-28.858,11.496c-0.754,2.276,2.827,3.244,3.575,0.986
				c3.569-10.773,13.448-14.943,23.412-9.281C526.175,138.864,528.042,135.66,525.964,134.479L525.964,134.479z"/>
		</g>
	</g>
	<g>
		<g>
			<path fill="#8A8899" d="M499.672,148.151c-3.372,1.633-7.295,0.731-10.899,1.326c-4.362,0.72-7.307,4.43-9.465,7.964
				c-1.25,2.047,1.958,3.908,3.202,1.871c2.649-4.339,5.446-6.45,10.52-6.46c3.033-0.006,5.74-0.156,8.513-1.5
				C503.695,150.311,501.814,147.113,499.672,148.151L499.672,148.151z"/>
		</g>
	</g>
</g>
</svg>
