<?xml version="1.0" encoding="utf-8"?>
<!-- Generator: Adobe Illustrator 16.0.4, SVG Export Plug-In . SVG Version: 6.00 Build 0)  -->
<!DOCTYPE svg PUBLIC "-//W3C//DTD SVG 1.1//EN" "http://www.w3.org/Graphics/SVG/1.1/DTD/svg11.dtd">
<svg version="1.1" id="char1-finger2_1_" xmlns="http://www.w3.org/2000/svg" xmlns:xlink="http://www.w3.org/1999/xlink" x="0px"
	 y="0px" width="2834.646px" height="1467.093px" viewBox="0 0 2834.646 1467.093" enable-background="new 0 0 2834.646 1467.093"
	 xml:space="preserve">
<g>
	<path fill="#F4EDE1" d="M1342.726,653.142c16.197-2.446,35.678-7.17,49.339,4.965c6.832,6.067,11.704,16.84,12.925,24.935
		c1.571,10.409,5.931,30.611-2.757,31.928c-10.094-0.251-11.075-4.078-15.94-12.807c-3.189-5.436-4.28-19.645-9.606-23.573
		c-4.294-2.486-13.892-3.188-21.611-3.094"/>
	<g>
		<path fill="#1D1B3A" d="M1343.363,655.454c16.422-2.527,35.946-7.152,48.995,6.302c5.848,6.029,9.208,14.718,10.469,22.896
			c1.056,6.847,2.386,13.675,2.229,20.635c-0.049,2.172-0.253,6.232-2.707,7.199c-2.595,1.023-6.837-0.959-8.65-2.74
			c-4.444-4.367-6.688-11.667-8.254-17.49c-1.234-4.591-2.712-13.266-7.548-15.736c-6.812-3.48-15.354-3.459-22.821-3.422
			c-3.092,0.016-3.093,4.812,0,4.797c5.55-0.028,11.106,0.183,16.543,1.381c5.074,1.118,6.378,4.793,7.821,9.34
			c2.396,7.552,4.209,14.195,8.304,21.07c2.927,4.913,9.101,8.962,15.126,7.597c5.975-1.354,6.89-7.935,7.007-13.12
			c0.173-7.651-1.505-15.48-2.786-22.991c-1.495-8.764-6.168-17.47-12.321-23.814c-13.737-14.162-35.54-9.164-52.683-6.526
			C1339.039,651.299,1340.339,655.919,1343.363,655.454L1343.363,655.454z"/>
	</g>
</g>
</svg>
