<?xml version="1.0" encoding="utf-8"?>
<!-- Generator: Adobe Illustrator 16.0.4, SVG Export Plug-In . SVG Version: 6.00 Build 0)  -->
<!DOCTYPE svg PUBLIC "-//W3C//DTD SVG 1.1//EN" "http://www.w3.org/Graphics/SVG/1.1/DTD/svg11.dtd">
<svg version="1.1" id="char1-top" xmlns="http://www.w3.org/2000/svg" xmlns:xlink="http://www.w3.org/1999/xlink" x="0px" y="0px"
	 width="2834.646px" height="1467.093px" viewBox="0 0 2834.646 1467.093" enable-background="new 0 0 2834.646 1467.093"
	 xml:space="preserve">
<g>
	<path fill="#F5F6F6" d="M1215.895,679.881c0,0-11.359-26.775-10.219-33.316c0.183-1.052-1.599-15.508-2.059-31.127
		c0,0-13.59,5.504-29.582,6.184c0,0-6.897,52.297,7.191,61.359C1195.313,692.043,1215.895,679.881,1215.895,679.881z"/>
	<g>
		<path fill="#1D1B3A" d="M1217.965,678.671c0.364,0.858-0.782-1.901-0.979-2.386c-0.854-2.098-1.679-4.207-2.49-6.321
			c-2.135-5.568-4.146-11.212-5.628-16.993c-0.896-3.495-0.747-6.888-1.054-10.443c-0.779-9.022-1.5-18.036-1.799-27.09
			c-0.047-1.415-1.525-2.915-3.036-2.312c-9.137,3.65-19.159,5.568-28.944,6.099c-1.438,0.077-2.221,1.044-2.398,2.397
			c-2.088,15.977-3.112,33.204,0.309,49.036c2.097,9.706,7.182,16.125,17.397,17.76c9.287,1.486,19.751-1.796,27.761-6.466
			c2.669-1.556,0.256-5.702-2.421-4.141c-7.4,4.314-16.807,7.144-25.361,5.774c-10.447-1.672-12.634-11.155-13.785-20.208
			c-1.742-13.699-0.892-28.087,0.895-41.756c-0.799,0.8-1.599,1.599-2.398,2.397c10.215-0.553,20.682-2.459,30.219-6.269
			c-1.012-0.771-2.024-1.542-3.036-2.312c0.298,9.052,1.006,18.069,1.799,27.09c0.352,3.996,0.276,7.77,1.225,11.718
			c2.209,9.194,5.903,18.152,9.582,26.846C1215.026,683.931,1219.156,681.483,1217.965,678.671z"/>
	</g>
</g>
<g>
	<path fill="#F5F6F6" d="M1171.271,677.419c2.968-0.949,34.802-23.203,34.764-20.246c-0.039,2.955,33.925,43.812,31.594,71.381
		c-0.371,4.393-33.507,18.037-33.507,18.037L1171.271,677.419z"/>
	<g>
		<path fill="#1D1B3A" d="M1171.908,679.731c4.263-1.613,8.178-4.803,11.974-7.255c6.006-3.88,11.983-7.843,18.209-11.364
			c0.892-0.505,1.799-0.979,2.721-1.426c0.322-0.156,0.61-0.261,0.946-0.37c1.356-0.441-2.62-3.531-2.022-1.378
			c0.417,1.503,1.433,2.871,2.268,4.16c3.821,5.901,7.838,11.665,11.547,17.641c5.127,8.261,9.831,16.852,13.369,25.921
			c1.603,4.108,2.848,8.346,3.706,12.67c0.465,2.348,1.985,8.476,0.06,10.304c-4.713,4.476-12.125,7.116-17.924,9.811
			c-4.382,2.037-8.81,3.991-13.278,5.834c0.903,0.367,1.806,0.734,2.708,1.103c-10.95-23.058-21.9-46.115-32.851-69.172
			c-1.326-2.793-5.46-0.357-4.141,2.42c10.95,23.058,21.9,46.115,32.851,69.172c0.416,0.877,1.789,1.481,2.708,1.103
			c11.053-4.561,24.168-9,33.318-16.879c4.906-4.224,1.237-15.535-0.19-20.68c-2.719-9.805-7.478-19.073-12.512-27.863
			c-4.248-7.419-9.021-14.51-13.776-21.607c-1.131-1.688-2.336-3.372-3.254-5.19c0.531,1.052-0.393-1.061-0.641-1.335
			c-0.729-0.807-1.72-0.895-2.721-0.756c-5.17,0.713-10.896,5.668-15.148,8.362c-6.019,3.812-11.904,7.865-18.038,11.491
			c-0.232,0.138-1.5,0.787-1.165,0.66C1167.77,676.19,1169.01,680.828,1171.908,679.731z"/>
	</g>
</g>
<path fill="#1D1B3A" d="M1053.284,624.761c-3.942,0.539,131.002-13.048,131.002-13.048s-0.921,44.427,3.159,60.807
	c4.077,16.377-109.31,25.36-114.161,26.241C1068.432,699.639,1053.284,624.761,1053.284,624.761z"/>
<path fill="#1D1B3A" d="M883.853,481.913c9.497,4.904,78.886,188.315,96.224,193.767c35.371,11.115,180.453-20.724,189.288-20.991
	c16.945-0.516,57.923,68.582,46.906,96.406c0,0-127.581,36.76-225.261,24.338c-77.74-9.887-161.468-135.652-161.468-135.652"/>
</svg>
