<?xml version="1.0" encoding="utf-8"?>
<!-- Generator: Adobe Illustrator 16.0.4, SVG Export Plug-In . SVG Version: 6.00 Build 0)  -->
<!DOCTYPE svg PUBLIC "-//W3C//DTD SVG 1.1//EN" "http://www.w3.org/Graphics/SVG/1.1/DTD/svg11.dtd">
<svg version="1.1" id="char1-finger3" xmlns="http://www.w3.org/2000/svg" xmlns:xlink="http://www.w3.org/1999/xlink" x="0px"
	 y="0px" width="2834.646px" height="1467.093px" viewBox="0 0 2834.646 1467.093" enable-background="new 0 0 2834.646 1467.093"
	 xml:space="preserve">
<g>
	<path fill="#F4EDE1" d="M1359.669,656.175c11.055-3.887,22.112-6.76,26.92-2.011c11.434,12.858,5.552,48.052,28.911,36.952
		c8.185-8.906,2.336-49.967-14.794-59.746c-13.903-8.397-46.345-1.783-61.496,3.646"/>
	<g>
		<path fill="#1D1B3A" d="M1360.32,658.536c6.427-2.226,13.152-4.604,20.042-4.35c5.234,0.193,7.268,5.564,8.778,9.765
			c2.604,7.24,3.453,15.036,6.479,22.134c2.433,5.705,6.615,10.01,13.206,9.551c7.818-0.544,11.061-4.998,12.237-12.221
			c2.628-16.141-2.327-36.547-12.974-49.044c-12.655-14.853-38.769-9.533-55.165-5.831c-4.858,1.097-9.665,2.461-14.363,4.114
			c-2.959,1.041-1.686,5.774,1.302,4.723c9.201-3.238,18.827-5.407,28.492-6.676c9.667-1.269,21.281-2.22,30.278,2.307
			c7.398,3.724,11.423,12.316,14.034,19.73c2.959,8.403,4.384,17.523,3.951,26.425c-0.145,2.961-0.602,6.103-1.914,8.791
			c-1.397,2.864-6.827,3.277-9.556,2.409c-5.798-1.845-7.202-12.655-8.416-17.519c-1.681-6.732-3.281-14.35-7.885-19.794
			c-6.862-8.111-21.905-1.981-29.827,0.763C1356.052,654.841,1357.327,659.573,1360.32,658.536L1360.32,658.536z"/>
	</g>
</g>
</svg>
