<?xml version="1.0" encoding="utf-8"?>
<!-- Generator: Adobe Illustrator 16.0.4, SVG Export Plug-In . SVG Version: 6.00 Build 0)  -->
<!DOCTYPE svg PUBLIC "-//W3C//DTD SVG 1.1//EN" "http://www.w3.org/Graphics/SVG/1.1/DTD/svg11.dtd">
<svg version="1.1" id="char1-finger1_1_" xmlns="http://www.w3.org/2000/svg" xmlns:xlink="http://www.w3.org/1999/xlink" x="0px"
	 y="0px" width="2834.646px" height="1467.093px" viewBox="0 0 2834.646 1467.093" enable-background="new 0 0 2834.646 1467.093"
	 xml:space="preserve">
<g>
	<path fill="#F4EDE1" d="M1339.614,675.132c11.746-0.496,29.073,0.83,39.249,7.274c13.544,8.98,17.195,47.334,8.146,48.825
		c-15.705,2.593-15.413-12.761-18.312-23.473c-3.93-13.114-8.467-8.326-24.131-10.985"/>
	<g>
		<path fill="#1D1B3A" d="M1339.614,677.529c14.062-0.506,35.32-0.397,43.437,13.271c5.609,9.444,8.417,23.844,5.688,34.604
			c-1.43,5.64-8.374,4.436-11.744,0.927c-4.184-4.355-4.398-12.651-5.731-18.224c-1.082-4.527-3.227-9.871-7.97-11.584
			c-5.576-2.015-12.28-1.141-18.091-2.062c-3.024-0.479-4.322,4.142-1.274,4.625c3.895,0.617,7.786,0.955,11.724,1.139
			c2.493,0.116,5.502-0.008,7.515,1.714c5,4.275,4.722,14.968,6.649,20.872c2.092,6.412,6.454,10.575,13.292,11.098
			c5.554,0.425,8.733-2.083,10.256-7.229c3.585-12.118-0.388-28.561-6.661-39.124c-8.802-14.821-31.916-15.368-47.089-14.821
			C1336.53,672.845,1336.52,677.641,1339.614,677.529L1339.614,677.529z"/>
	</g>
</g>
</svg>
