<?xml version="1.0" encoding="utf-8"?>
<!-- Generator: Adobe Illustrator 16.0.4, SVG Export Plug-In . SVG Version: 6.00 Build 0)  -->
<!DOCTYPE svg PUBLIC "-//W3C//DTD SVG 1.1//EN" "http://www.w3.org/Graphics/SVG/1.1/DTD/svg11.dtd">
<svg version="1.1" id="char1-finger7" xmlns="http://www.w3.org/2000/svg" xmlns:xlink="http://www.w3.org/1999/xlink" x="0px"
	 y="0px" width="2834.646px" height="1467.093px" viewBox="0 0 2834.646 1467.093" enable-background="new 0 0 2834.646 1467.093"
	 xml:space="preserve">
<g>
	<path fill="#F4EDE1" d="M1345.896,608.016c5.919-4.363,11.044-7.432,16.503-4.268c11.021,7.386,23.718,17.013,26.718,16.014
		c4.173-8.345-6.478-32.068-21.047-35.994c-12.651-3.748-30.267,2.985-40.265,10.111"/>
	<g>
		<path fill="#1D1B3A" d="M1347.107,610.086c3.426-2.483,7.417-5.773,11.948-5.111c3.563,0.521,7.639,4.6,10.537,6.603
			c5.299,3.663,10.626,7.731,16.633,10.17c10.113,4.106,4.75-15.492,3.261-19.057c-4.278-10.242-12.225-19.561-23.462-21.864
			c-13.336-2.734-28.646,3.51-39.429,10.982c-2.522,1.748-0.128,5.907,2.421,4.141c10.042-6.96,23.321-12.365,35.733-10.499
			c10.398,1.564,17.44,11.505,20.975,20.661c1.393,3.606,2.515,7.874,1.578,11.72c0.278-1.142,1.337-0.154-0.864-1.182
			c-1.024-0.479-2-1.07-2.976-1.639c-2.52-1.467-4.933-3.125-7.346-4.758c-4.967-3.357-10.013-8.099-15.786-9.902
			c-5.568-1.741-11.468,2.568-15.644,5.595C1342.208,607.741,1344.598,611.905,1347.107,610.086L1347.107,610.086z"/>
	</g>
</g>
<g>
	<path fill="#F4EDE1" d="M1335.649,607.566c12.674-9.172,29.424-10.523,40.509-7.125c7.274,4.094,21.212,24.633,12.959,30.82
		c-5.333,3.999-3.667-21.168-32.667-13.168"/>
	<g>
		<path fill="#1D1B3A" d="M1336.86,609.637c6.564-4.562,13.92-7.287,21.854-8.228c5.384-0.639,13.816-1.141,18.234,2.531
			c3.977,3.305,7.006,7.829,9.442,12.336c1.585,2.933,5.157,10.471,1.248,13.096c0.842-0.565,1.236,0.641,0.382-0.646
			c-0.606-0.912-1.113-1.895-1.66-2.842c-1.444-2.504-3.15-4.85-5.297-6.796c-6.929-6.281-16.842-5.501-25.249-3.307
			c-2.99,0.781-1.721,5.407,1.274,4.625c6.187-1.615,12.962-2.569,18.758,0.758c3.154,1.811,5.137,4.968,6.889,8.04
			c1.049,1.839,2.222,4.285,4.498,4.794c3.74,0.835,6.233-3.773,6.679-6.787c1.503-10.165-7.777-22.288-15.344-28.062
			c-4.838-3.691-14.207-3.042-19.855-2.536c-8.714,0.78-17.107,3.901-24.274,8.883
			C1331.919,607.247,1334.313,611.407,1336.86,609.637L1336.86,609.637z"/>
	</g>
</g>
</svg>
