<?xml version="1.0" encoding="utf-8"?>
<!-- Generator: Adobe Illustrator 16.0.4, SVG Export Plug-In . SVG Version: 6.00 Build 0)  -->
<!DOCTYPE svg PUBLIC "-//W3C//DTD SVG 1.1//EN" "http://www.w3.org/Graphics/SVG/1.1/DTD/svg11.dtd">
<svg version="1.1" id="char1-finger5" xmlns="http://www.w3.org/2000/svg" xmlns:xlink="http://www.w3.org/1999/xlink" x="0px"
	 y="0px" width="2834.646px" height="1467.093px" viewBox="0 0 2834.646 1467.093" enable-background="new 0 0 2834.646 1467.093"
	 xml:space="preserve">
<g>
	<path fill="#F4EDE1" d="M1343.788,617.454c13.633-2.334,30.101-8.132,41.681,1.915c5.789,5.025,9.953,14.06,11.025,20.893
		c1.38,8.786,5.162,25.813-2.155,27.064c-8.508-0.045-9.355-3.27-13.504-10.577c-2.714-4.549-3.71-16.56-8.218-19.796"/>
	<g>
		<path fill="#1D1B3A" d="M1344.449,619.854c11.604-2.067,24.792-6.742,36.021-0.967c10.755,5.533,13.222,19.056,14.898,29.795
			c0.724,4.639,1.536,9.87,0.188,14.461c-0.807,2.75-4.668,1.655-6.588,0.758c-1.942-0.908-3.025-3.158-4.036-4.916
			c-2.478-4.311-3.783-8.529-5.134-13.288c-1.06-3.731-2.358-7.917-5.421-10.505c-2.437-2.057-5.977,1.447-3.521,3.521
			c4.274,3.608,4.735,11.166,6.455,16.201c1.44,4.219,4.433,10.397,8.393,12.824c3.761,2.306,9.525,3.326,12.891-0.085
			c3.472-3.518,2.719-10.287,2.309-14.678c-1.233-13.202-4.028-27.559-14.89-36.352c-12.137-9.824-29.268-3.998-42.888-1.571
			C1339.969,615.616,1341.311,620.414,1344.449,619.854L1344.449,619.854z"/>
	</g>
</g>
</svg>
