<?xml version="1.0" encoding="utf-8"?>
<!-- Generator: Adobe Illustrator 16.0.4, SVG Export Plug-In . SVG Version: 6.00 Build 0)  -->
<!DOCTYPE svg PUBLIC "-//W3C//DTD SVG 1.1//EN" "http://www.w3.org/Graphics/SVG/1.1/DTD/svg11.dtd">
<svg version="1.1" id="char1-bottom" xmlns="http://www.w3.org/2000/svg" xmlns:xlink="http://www.w3.org/1999/xlink" x="0px"
	 y="0px" width="2834.646px" height="1467.093px" viewBox="0 0 2834.646 1467.093" enable-background="new 0 0 2834.646 1467.093"
	 xml:space="preserve">
<g>
	<polygon fill="#D9D8DE" points="908.879,1302.735 884.41,1301.891 861.216,894.694 897.917,894.694 	"/>
</g>
<path fill="#D9D8DE" d="M790.977,441.666c-15.892,4.543-181.987,54.986-181.987,54.986l103.987,487.014l364.09,49.043
	l155.705-138.105l-327.795-2.938L790.977,441.666z"/>
<path fill="#1D1B3A" d="M1276.465,1015.726c0,0-70.943,325.78-63.668,342.636c4.199,9.728,254.279,53.698,202.068,78.431
	c-84.042,39.809-263.756-40.145-263.756-40.145s1.494-34.521,2.959-30.581l-41.009-1.813c0,0,34.026-266.865,68.419-357.909"/>
<path fill="#1D1B3A" d="M1508.18,1256.711c-7.023-41.369-187.542,10.517-183.707-34.771c0.78-9.192,14.189-92.036,27.335-172.179
	c14.34-72.39,30.896-162.788,29.617-188.37c-0.908-18.167-10.626-27.522-21.821-32.234c-0.003-0.029-0.005-0.063-0.008-0.093
	c-2.229-18.943-213.788-31.303-213.788-31.303l-34.231-22.513c-22.917,45.832-175.525,71.442-175.525,71.442
	c-101.53,47.639-19.13,101.898-3.185,115.029c48.697,40.104,331.824,74.968,340.417,66.374c7-19.333,14.09-50.496,9.501-76.485
	c-3.486-19.746-70.951-47.458-70.951-47.458s62.192,2.478,94.99,6.581c-15.525,83.809-82.09,317.101-82.09,317.101l40.645,1.798
	c-1.635,3.286-4.808,45.964-4.808,45.964S1515.738,1301.224,1508.18,1256.711z"/>
<g>
	<polygon fill="#D9D8DE" points="818.87,1375.243 794.401,1374.422 771.207,978.536 807.908,978.536 	"/>
</g>
<g>
	<polygon fill="#D9D8DE" points="1086.896,1398.579 1062.428,1397.758 1039.233,1001.872 1075.618,1012.762 	"/>
</g>
<g>
	<path fill="#1D1B3A" d="M1011.419,407.503c6.366,4.143,14.359,10.839,16.146,23.943c30.529,223.88,86.071,343.277,85.719,370.314
		c-0.146,11.159-68.928,30.966-84,32"/>
	<g>
		<path fill="#F4EDE1" d="M874.111,414.803c-31.875-14.176-64.6-29.262-94.377-48.076c16.297-108.92,25.885-270.64,25.885-270.64
			c29.431,4.119,154.73-35.003,151.516-3.046c-9.475,94.184,34.484,231.046,40.484,311.713
			c-10.689,13.232-11.677,20.748-22.413,35.074C949.137,473.732,905.572,431.047,874.111,414.803z"/>
	</g>
	<g>
		<path fill="#F5F6F6" d="M775.784,334.386c29.779,18.814,65.525,79.205,97.396,93.381c31.466,16.248,72.289,18.227,92.854,13.369
			c2.352-0.555,39.016-57.516,37.875-59.875c4.146,3.672,14.625,44.75,5.5,61.25c25.441,159.431,76.405,348.168,67.875,373.25
			c0,0-76,94-138,64S718.928,438.849,718.928,438.849C727.465,433.454,767.781,353.317,775.784,334.386z"/>
	</g>
	<g>
		<path fill="#F4EEE5" d="M922.154,182.653c12.176,18.307,96.416,50.098,82.627,68.891c-16.599,23.721-89.248-15.977-94.416-36.494"
			/>
		<g>
			<path fill="#1D1B3A" d="M920.083,183.863c3.181,4.608,7.872,7.996,12.398,11.178c6.68,4.694,13.769,8.813,20.807,12.941
				c14.489,8.498,30.006,16.438,42.709,27.565c3.354,2.938,8.106,7.198,7.884,12.102c-0.241,5.354-8.115,7.886-12.264,8.56
				c-7.638,1.24-15.862-0.825-23.121-3.028c-8.828-2.679-17.252-6.618-25.286-11.119c-7.194-4.031-14.093-8.694-20.278-14.158
				c-4.078-3.603-8.759-8.072-10.255-13.491c-0.821-2.978-5.449-1.711-4.624,1.275c3.496,12.668,18.564,21.962,28.985,28.32
				c14.261,8.702,30.945,16.132,47.813,17.196c8.995,0.567,26.004-3.618,23.657-16.02c-0.957-5.055-4.893-9.146-8.534-12.501
				c-5.565-5.129-12.003-9.348-18.368-13.399c-11.13-7.084-22.702-13.444-34-20.25c-7.839-4.722-18.039-9.85-23.382-17.591
				C922.48,178.916,918.321,181.311,920.083,183.863L920.083,183.863z"/>
		</g>
	</g>
	<g>
		<g>
			<path fill="#1D1B3A" d="M919.036,297.112c2.177,0.531,6.896,1.365,7.02,4.306c0.105,2.493-3.021,5.024-4.648,6.493
				c-4.53,4.089-10.57,7.572-16.434,9.299c-2.96,0.872-1.699,5.5,1.274,4.625c7.923-2.333,16.336-7.357,21.653-13.719
				c6.452-7.719,0.553-13.641-7.591-15.629C917.307,291.754,916.032,296.379,919.036,297.112L919.036,297.112z"/>
		</g>
	</g>
	<path fill="#F1EBE2" d="M775.076,153.183c-0.542,12.453,9.36,23.029,22.106,23.621c12.75,0.59,23.529-9.02,24.07-21.475
		c0.54-12.455-9.363-23.031-22.11-23.625C786.397,131.116,775.617,140.729,775.076,153.183z"/>
	<path fill="#1B1D3A" stroke="#1D1B3A" stroke-width="0.9592" stroke-miterlimit="10" d="M835.952,175.167
		c-0.679-5.449-1.54-10.902-2.675-16.301c1.473-0.861,2.606-2.418,2.969-4.426c0.976-5.424,0.563-10.996-0.674-16.527
		c1.515-1.227,2.486-3.24,2.235-5.473c-1.429-12.762-6.548-24.043-12.831-35.207c-2.957-5.258-10.514-2.428-10.64,2.342
		c-1.519-0.906-3.132-1.73-4.894-2.418c-2.937-1.146-6.209,0.877-7.132,3.617c-3.721-0.672-8.138,2.326-6.719,6.461
		c0.624,1.805,1.307,3.576,2.035,5.33c-2.384,1.471-3.823,4.428-2.004,7.082c6.253,9.113,16.467,17.072,21.454,27.1
		c-3.723-1.074-8.451,1.785-7.242,6.338c1.39,5.217,3.359,10.369,6.089,15.053c-3.529-0.516-7.374,1.912-6.204,6.352
		c1.159,4.391,2.535,8.719,3.876,13.049c-2.256,1.055-3.92,3.283-3.082,6.014c1.623,5.281,3.438,10.494,5.104,15.758
		c-1.441,1.158-1.995,2.812-1.951,4.65c-1.197,5.16,4.741,8.287,8.36,6.357c3.737,1.119,7.55-3.139,6.577-6.646
		c-0.204-0.738-0.436-1.465-0.652-2.195c1.223-1.336,1.987-3.143,1.769-4.891c-0.325-2.645-0.822-5.246-1.4-7.83
		c2.244-1.117,3.97-3.74,3.641-6.338c-0.447-3.502-0.923-6.984-1.481-10.439C833.729,181.966,836.374,178.534,835.952,175.167z"/>
	<g>
		<g>
			<path fill="#1D1B3A" d="M1011.655,424.322c0.137,0.749-1.406,5.51-1.898,7.243c-1.478,5.197-3.132,10.347-4.816,15.48
				c-2.751,8.391-5.175,17.572-9.399,25.376c1.093-0.287,2.187-0.574,3.281-0.86c-4.322-2.296-7.73-8.158-10.712-11.861
				c-5.434-6.748-10.859-13.512-16.941-19.695c-2.171-2.208-5.561,1.186-3.391,3.391c6.081,6.184,11.511,12.945,16.941,19.696
				c3.3,4.102,6.884,10.062,11.682,12.61c1.124,0.598,2.641,0.322,3.281-0.86c4.599-8.494,7.234-18.442,10.228-27.572
				c1.738-5.301,3.411-10.627,4.914-16c0.693-2.479,1.935-5.603,1.456-8.223C1015.725,420.008,1011.104,421.299,1011.655,424.322
				L1011.655,424.322z"/>
		</g>
	</g>
	<g>
		<g>
			<path fill="#1D1B3A" d="M956.877,121.812c-3.207,14.044-4.175,29.146-3.833,43.513c0.175,7.348,2.042,14.465,3.585,21.618
				c1.899,8.802,3.884,17.654,6.862,26.164c1.015,2.899,5.649,1.651,4.625-1.275c-2.806-8.016-4.693-16.329-6.523-24.611
				c-1.599-7.233-3.495-14.47-3.753-21.896c-0.484-13.891,0.564-28.672,3.661-42.237
				C962.188,120.077,957.565,118.798,956.877,121.812L956.877,121.812z"/>
		</g>
	</g>
	<g>
		<g>
			<path fill="#1D1B3A" d="M968.756,259.766c10.909,40.25,23.705,82.089,21.923,124.239c-0.131,3.094,4.666,3.081,4.796,0
				c1.8-42.569-11.078-84.869-22.095-125.515C972.572,255.509,967.945,256.776,968.756,259.766L968.756,259.766z"/>
		</g>
	</g>
	<g>
		<g>
			<path fill="#1D1B3A" d="M801.001,167.261c-6.937,5.083-6.201,15.649-5.805,23.269c0.237,4.563,0.793,9.108,0.904,13.679
				c0.201,8.224-1.598,16.593-2.848,24.686c-2.475,16.023-3.066,32.098-3.902,48.263c-0.914,17.662-2.66,35.464-4.43,53.063
				c-0.31,3.076,4.489,3.047,4.796,0c1.581-15.718,2.929-31.544,4.078-47.297c1.196-16.393,1.253-32.783,3.537-49.094
				c1.643-11.735,4.146-23.377,3.246-35.277c-0.354-4.67-0.748-9.328-0.759-14.015c-0.009-4.015-0.042-10.465,3.604-13.136
				C805.889,169.594,803.5,165.43,801.001,167.261L801.001,167.261z"/>
		</g>
	</g>
	<g>
		<g>
			<path fill="#1D1B3A" d="M794.923,171.499c-7.393-0.727-16.305-2.601-20.321-9.578c-2.953-5.13-0.956-11.517,1.821-16.223
				c6.678-11.313,22.281-18.307,33.608-9.371c2.4,1.894,5.818-1.477,3.392-3.391c-14.036-11.073-32.38-3.688-41.141,10.342
				c-3.845,6.157-5.198,13.747-2.124,20.476c4.16,9.104,15.869,11.667,24.765,12.542C798.001,176.598,797.972,171.8,794.923,171.499
				L794.923,171.499z"/>
		</g>
	</g>
	<g>
		<g>
			<path fill="#1D1B3A" d="M799.268,147.419c5.202,3.089,3.928,9.114-1.533,10.977c-2.91,0.992-1.66,5.626,1.275,4.625
				c9.294-3.17,11.591-14.449,2.679-19.742C799.022,141.695,796.612,145.842,799.268,147.419L799.268,147.419z"/>
		</g>
	</g>
	<g>
		<g>
			<path fill="#1D1B3A" d="M772.833,333.354c-11.214,15.786-12.536,36.72-24.904,51.731c-1.95,2.366,1.423,5.779,3.392,3.391
				c12.71-15.427,14.182-36.553,25.653-52.702C778.769,333.246,774.607,330.854,772.833,333.354L772.833,333.354z"/>
		</g>
	</g>
	<g>
		<g>
			<path fill="#050708" d="M761.866,389.552c-7.532,5.577-12.47,13.581-19.312,19.871c-2.281,2.097,1.119,5.479,3.392,3.391
				c6.511-5.984,11.187-13.822,18.342-19.121C766.743,391.874,764.355,387.708,761.866,389.552L761.866,389.552z"/>
		</g>
	</g>
	<path fill="#1D1B3A" d="M953.284,749.761c-15.035,8.144-16.232,299.288-20.698,299.053c-32.225-1.695-163.881-9.234-223.881-71.234
		c-3.455-21.385,14.804-153.951,13.569-298.508c-1.046-122.502-18.646-261.607,13.2-282.83
		c53.178-35.438,135.952,42.852,158.789,104.455"/>
	<g>
		<g>
			<path fill="#1D1B3A" d="M902.103,171.876c-11.343-1.017-22.803,2.906-34.129,2.518c-3.094-0.105-3.084,4.69,0,4.797
				c11.327,0.388,22.786-3.535,34.129-2.518C905.184,176.948,905.157,172.15,902.103,171.876L902.103,171.876z"/>
		</g>
	</g>
	<g>
		<g>
			<path fill="#1D1B3A" d="M895.133,177.171c0.113,2.045-0.1,3.986-0.722,5.939c-0.438,1.373-1.26,2.754-2.151,3.258
				c-0.045,0.025-0.219-0.081-0.052,0.001c-0.366-0.18-0.823-0.781-1.167-1.354c-1.711-2.853-2.159-6.588-2.61-9.812
				c-0.427-3.052-5.047-1.748-4.624,1.275c0.625,4.474,2.587,16.726,9.9,14.448c5.171-1.611,6.474-9.194,6.223-13.756
				C899.76,174.096,894.963,174.079,895.133,177.171L895.133,177.171z"/>
		</g>
	</g>
	<g>
		<g>
			<path fill="#1D1B3A" d="M956.759,170.302c-4.448-1.02-9.539,0.021-13.989,0.534c-2.65,0.306-5.295,0.655-7.942,0.986
				c-1.002,0.126-2.004,0.244-3.008,0.354c-1.904,0.207-1.814-0.483-0.632,0.761c-2.135-2.246-5.521,1.15-3.392,3.391
				c2.036,2.143,8.416,0.117,10.805-0.185c5.128-0.648,11.752-2.393,16.884-1.216C958.494,175.616,959.772,170.993,956.759,170.302
				L956.759,170.302z"/>
		</g>
	</g>
	<g>
		<g>
			<path fill="#1D1B3A" d="M947.801,173.327c-0.085,2.726-0.245,5.688-1.361,8.225c-0.318,0.723-0.689,1.31-1.201,1.801
				c-0.136,0.131-0.404,0.213-0.508,0.215c-0.352,0.01,0.234,0.097-0.373-0.102c0.462,0.151-0.289-0.21-0.395-0.283
				c0.305,0.211-0.338-0.384-0.405-0.459c0.106,0.118-0.331-0.505-0.403-0.627c-0.824-1.381-1.025-3.06-1.014-4.652
				c0.021-3.094-4.774-3.092-4.796,0c-0.031,4.498,2.041,10.678,7.386,10.919c6.858,0.31,7.725-10.492,7.867-15.036
				C952.694,170.232,947.898,170.242,947.801,173.327L947.801,173.327z"/>
		</g>
	</g>
	<g>
		<g>
			<path fill="#1D1B3A" d="M922.572,253.692c-15.358,2.418-33.645-9.376-41.727-21.864c-1.673-2.586-5.827-0.185-4.141,2.42
				c9.38,14.496,29.482,26.85,47.142,24.069C926.895,257.837,925.597,253.217,922.572,253.692L922.572,253.692z"/>
		</g>
	</g>
	<g>
		<g>
			<path fill="#1D1B3A" d="M856.34,164.128c18.005-1.109,34.522-10.706,52.495-11.813c3.072-0.188,3.09-4.985,0-4.795
				c-18.005,1.108-34.522,10.705-52.495,11.812C853.269,159.521,853.25,164.317,856.34,164.128L856.34,164.128z"/>
		</g>
	</g>
	<g>
		<g>
			<path fill="#1D1B3A" d="M929.904,154.152c4.958-0.231,9.796,0.659,14.602,1.793c2.348,0.554,5.431,2.052,7.889,1.601
				c1.197-0.22,2.116-1.804,1.675-2.95c-0.009-0.022-0.018-0.045-0.027-0.068c-1.1-2.854-5.738-1.615-4.624,1.275
				c0.009,0.022,0.018,0.046,0.026,0.068c0.558-0.983,1.116-1.967,1.675-2.95c1.371-0.251-1.16-0.529-1.725-0.679
				c-1.913-0.507-3.831-0.982-5.761-1.416c-4.49-1.009-9.122-1.685-13.73-1.469C926.825,149.501,926.811,154.298,929.904,154.152
				L929.904,154.152z"/>
		</g>
	</g>
	<g>
		<path fill="#1D1B3A" d="M800.594,123.507c-10.072-6.383-23.968-19.062-10.496-33.729c7.922-8.49,29.741-4.301,28.97-5.092
			c-0.771-0.789,9.423-3.783,22.012-10.648c27.531-14.482,128.366-19.178,127.767,26.666c-0.326,24.994-64.383,24.939-85.4,19.195
			c-15.58-3.33-31.151-7.438-47.562-6.869c-14.85,0.584-18.127,12.26-32.217,14.422"/>
	</g>
	<g>
		<g>
			<path fill="#1D1B3A" d="M1016.086,418.861c-2.993-5.396-3.438-12.683-4.513-18.651c-1.262-7.004-2.337-14.292-5.313-20.815
				c-0.614-1.347-2.827-1.598-3.766-0.485c-5.688,6.734-9.664,15.259-14.131,22.804c-6.577,11.106-13.169,22.566-21.587,32.407
				c-1.998,2.336,1.378,5.744,3.392,3.391c7.84-9.164,14.111-19.64,20.297-29.952c4.942-8.238,9.194-17.886,15.421-25.259
				c-1.255-0.161-2.511-0.323-3.766-0.485c2.952,6.47,3.812,14.022,5.061,20.958c1.093,6.069,1.721,13.023,4.765,18.509
				C1013.445,423.985,1017.588,421.567,1016.086,418.861L1016.086,418.861z"/>
		</g>
	</g>
	<path fill="none" stroke="#1D1B3A" stroke-width="0.9592" stroke-miterlimit="10" d="M946.023,412.581"/>
	<path fill="#1D1B3A" d="M946.619,457.088c0,0,6.86,57.53,22.745,52.466c15.885-5.066,11.23-52.582,11.23-52.582
		s-7.975-21.884-13.642-18.217C960.868,442.692,946.619,457.088,946.619,457.088z"/>
	<path fill="#1D1B3A" d="M1010.605,743.522c-25.441-130.597-60.536-239.906-40.638-245.117
		c9.723-2.545,50.814,83.989,74.559,209.499c17.801,94.095,43.916,110.729,42.402,111.94
		C1078.448,826.629,1028.702,836.422,1010.605,743.522z"/>
	<polygon fill="#FFFFFF" points="964.802,440.466 869.409,390.636 778.121,334.528 753.534,383.386 812.534,410.761 
		848.409,435.261 922.623,485.028 	"/>
	<g>
		<g>
			<path fill="#1D1B3A" d="M962.421,439.521c-14.927,13.429-28.14,28.544-41.515,43.479c0.969-0.125,1.938-0.25,2.906-0.375
				c-18.294-11.563-35.979-24.039-53.669-36.497c-16.244-11.44-32.388-23.427-49.473-33.594
				c-12.887-7.669-26.815-13.573-40.652-19.28c-5.621-2.318-11.276-4.552-16.895-6.876c-1.794-0.741-3.578-1.509-5.334-2.335
				c-0.584-0.275-1.157-0.571-1.723-0.881c-1.599-0.874-0.091-0.654-0.373,1.37c0.421-3.023-4.199-4.327-4.625-1.275
				c-0.385,2.766,2.184,3.901,4.301,4.927c4.443,2.152,9.1,3.902,13.673,5.75c14.718,5.948,29.421,11.992,43.433,19.49
				c17.741,9.494,34.102,21.979,50.532,33.525c19.275,13.547,38.465,27.225,58.386,39.816c0.87,0.55,2.21,0.402,2.906-0.375
				c13.374-14.935,26.587-30.05,41.514-43.479C968.116,440.839,964.713,437.458,962.421,439.521L962.421,439.521z"/>
		</g>
	</g>
	<g>
		<g>
			<path fill="#1D1B3A" d="M965.276,439.79c-26.477-12.781-52.063-27.67-77.658-42.1c-31.158-17.567-62.421-35.225-92.403-54.758
				c-5.248-3.418-10.585-6.858-15.396-10.885c-2.354-1.971-5.766,1.403-3.392,3.391c8.574,7.178,18.366,13.023,27.826,18.929
				c15.13,9.445,30.508,18.494,45.933,27.447c31.169,18.093,62.604,35.782,94.42,52.715c6.038,3.214,12.086,6.428,18.248,9.401
				C965.627,445.269,968.061,441.134,965.276,439.79L965.276,439.79z"/>
		</g>
	</g>
</g>
</svg>
