<?xml version="1.0" encoding="utf-8"?>
<!-- Generator: Adobe Illustrator 16.0.4, SVG Export Plug-In . SVG Version: 6.00 Build 0)  -->
<!DOCTYPE svg PUBLIC "-//W3C//DTD SVG 1.1//EN" "http://www.w3.org/Graphics/SVG/1.1/DTD/svg11.dtd">
<svg version="1.1" id="char1-finger6" xmlns="http://www.w3.org/2000/svg" xmlns:xlink="http://www.w3.org/1999/xlink" x="0px"
	 y="0px" width="2834.646px" height="1467.093px" viewBox="0 0 2834.646 1467.093" enable-background="new 0 0 2834.646 1467.093"
	 xml:space="preserve">
<g>
	<path fill="#F4EDE1" d="M1321.262,578.651c9.178-3.288,25.704-7.103,35.35-4.507c12.939,3.774,25.287,33.247,18.487,36.659
		c-11.797,5.921-15.351-6.309-20.287-14.079c-4.85-7.192-5.479-5.403-11.331-3.376"/>
	<g>
		<path fill="#1D1B3A" d="M1321.899,580.964c10.235-3.578,24.149-7.803,34.867-4.244c8.544,2.837,14.192,15.171,16.683,22.977
			c0.541,1.695,2.57,7.729,0.44,9.037c-6.146,3.773-10.336-1.628-13.132-6.414c-2.32-3.973-4.284-9.003-8.078-11.834
			c-3.252-2.428-6.455-0.677-9.835,0.551c-2.883,1.047-1.639,5.683,1.274,4.625c2.122-0.771,4.495-2.541,6.369-0.713
			c2.427,2.367,3.946,5.868,5.569,8.801c2.499,4.516,5.391,8.913,10.481,10.644c3.756,1.277,9.804-0.206,11.924-3.707
			c1.946-3.213,0.769-7.986-0.113-11.319c-2.614-9.885-9.027-21.182-18.161-26.322c-5.361-3.016-12.602-2.332-18.437-1.675
			c-7.188,0.809-14.307,2.586-21.127,4.97C1317.725,577.353,1318.972,581.987,1321.899,580.964L1321.899,580.964z"/>
	</g>
</g>
</svg>
