<?xml version="1.0" encoding="utf-8"?>
<!-- Generator: Adobe Illustrator 16.0.4, SVG Export Plug-In . SVG Version: 6.00 Build 0)  -->
<!DOCTYPE svg PUBLIC "-//W3C//DTD SVG 1.1//EN" "http://www.w3.org/Graphics/SVG/1.1/DTD/svg11.dtd">
<svg version="1.1" id="table" xmlns="http://www.w3.org/2000/svg" xmlns:xlink="http://www.w3.org/1999/xlink" x="0px" y="0px"
	 width="2834.646px" height="1467.093px" viewBox="0 0 2834.646 1467.093" enable-background="new 0 0 2834.646 1467.093"
	 xml:space="preserve">
<g>
	<polygon fill="#D9D8DE" points="2115.17,1137.719 2086.511,1136.611 2059.344,602.455 2102.331,602.455 	"/>
</g>
<g>
	<polygon fill="#D9D8DE" points="2336.107,1455.751 2303.317,1458.28 2293.5,888.979 2341.681,891.213 	"/>
	<g>
		<path fill="#23234E" d="M2336.107,1453.192c-10.93,0.843-21.86,1.687-32.79,2.529c0.853,0.853,1.706,1.706,2.559,2.559
			c-0.453-26.293-0.906-52.586-1.36-78.879c-1.025-59.448-2.05-118.896-3.075-178.344c-1.095-63.455-2.188-126.911-3.283-190.366
			c-0.66-38.316-1.321-76.633-1.982-114.948c-0.038-2.255-0.077-4.51-0.116-6.765c-0.853,0.853-1.706,1.706-2.559,2.559
			c16.061,0.745,32.12,1.489,48.181,2.234c-0.853-0.853-1.706-1.706-2.559-2.559c-0.262,26.521-0.523,53.043-0.785,79.564
			c-0.59,59.745-1.18,119.489-1.77,179.234c-0.625,63.237-1.249,126.476-1.873,189.714c-0.365,37.001-0.73,74.002-1.096,111.004
			c-0.017,1.674-0.033,3.348-0.05,5.021c-0.032,3.301,5.085,3.298,5.117,0c0.262-26.521,0.523-53.043,0.785-79.564
			c0.59-59.745,1.18-119.489,1.77-179.234c0.624-63.237,1.249-126.476,1.873-189.713c0.365-37.002,0.73-74.003,1.096-111.004
			c0.017-1.675,0.033-3.349,0.05-5.022c0.015-1.443-1.177-2.494-2.559-2.559c-16.061-0.745-32.12-1.489-48.181-2.234
			c-1.377-0.063-2.582,1.212-2.559,2.559c0.453,26.293,0.907,52.586,1.36,78.879c1.025,59.448,2.05,118.896,3.075,178.344
			c1.095,63.455,2.188,126.911,3.283,190.366c0.66,38.316,1.321,76.633,1.981,114.949c0.039,2.254,0.078,4.509,0.117,6.764
			c0.022,1.312,1.149,2.667,2.559,2.559c10.93-0.843,21.86-1.687,32.79-2.529C2339.376,1458.058,2339.4,1452.938,2336.107,1453.192z
			"/>
	</g>
</g>
<g>
	<polygon fill="#D9D8DE" points="1136.19,1464.533 1103.578,1463.861 1093.557,894.56 1142.469,893.795 	"/>
	<g>
		<path fill="#23234E" d="M1136.19,1461.975c-10.871-0.224-21.742-0.448-32.612-0.672c0.853,0.853,1.706,1.706,2.559,2.559
			c-0.463-26.293-0.926-52.586-1.388-78.879c-1.046-59.448-2.093-118.896-3.139-178.344c-1.117-63.455-2.234-126.911-3.351-190.366
			c-0.675-38.316-1.349-76.633-2.023-114.948c-0.04-2.255-0.08-4.51-0.119-6.765c-0.853,0.853-1.706,1.706-2.559,2.559
			c16.304-0.255,32.608-0.51,48.912-0.765c-0.853-0.853-1.706-1.706-2.559-2.559c-0.289,26.248-0.578,52.495-0.866,78.743
			c-0.654,59.399-1.307,118.799-1.96,178.197c-0.699,63.534-1.398,127.068-2.097,190.603c-0.425,38.652-0.851,77.305-1.276,115.957
			c-0.026,2.413-0.053,4.825-0.08,7.238c-0.036,3.302,5.081,3.298,5.117,0c0.289-26.248,0.578-52.495,0.866-78.743
			c0.654-59.399,1.307-118.799,1.96-178.197c0.699-63.534,1.398-127.068,2.097-190.603c0.425-38.652,0.851-77.305,1.276-115.957
			c0.026-2.413,0.053-4.825,0.08-7.238c0.015-1.379-1.175-2.58-2.559-2.559c-16.304,0.255-32.608,0.51-48.912,0.765
			c-1.375,0.021-2.583,1.147-2.559,2.559c0.463,26.293,0.926,52.586,1.388,78.879c1.046,59.448,2.093,118.896,3.139,178.344
			c1.117,63.455,2.234,126.911,3.351,190.366c0.675,38.316,1.349,76.632,2.023,114.948c0.04,2.255,0.08,4.51,0.119,6.765
			c0.025,1.416,1.146,2.529,2.559,2.559c10.871,0.224,21.742,0.448,32.612,0.672
			C1139.492,1467.16,1139.485,1462.042,1136.19,1461.975z"/>
	</g>
</g>
<polygon fill="#D9D8DE" points="2424.2,882.693 1059.022,885.88 1300.698,581.27 2121.169,582.33 "/>
<g>
	<g>
		<path fill="#1D1B3A" d="M2421.421,877.603c-39.459-39.193-78.918-78.387-118.377-117.581
			c-54.541-54.173-109.082-108.347-163.623-162.521c-5-4.966-10-9.933-15-14.898c-0.564-0.562-1.551-0.911-2.333-0.617
			c0.837-0.314-0.964,0.044-1.744,0.068c-1.97,0.063-3.942,0.088-5.913,0.113c-7.212,0.091-14.424,0.108-21.636,0.126
			c-25.539,0.061-51.079-0.011-76.618-0.085c-79.837-0.233-159.674-0.658-239.51-1.085c-88.271-0.472-176.543-0.984-264.814-1.47
			c-60.813-0.334-121.627-0.729-182.442-0.854c-6.707-0.014-13.415-0.026-20.122,0c-1.689,0.008-6.976-0.804-8.275,0.822
			c-11.507,14.407-23.013,28.814-34.52,43.222c-52.132,65.272-104.264,130.545-156.396,195.817
			c-17.022,21.313-34.045,42.628-51.068,63.941c-1.909,2.391,1.461,5.808,3.392,3.391c36.25-45.387,72.5-90.774,108.749-136.161
			c43.361-54.291,86.722-108.581,130.083-162.872c1.035-1.296,2.07-2.592,3.105-3.888c-0.854,1.069-2.188,0.597,0.273,0.56
			c4.787-0.071,9.576-0.051,14.362-0.049c21.633,0.006,43.265,0.111,64.897,0.208c75.792,0.339,151.584,0.787,227.375,1.213
			c89.251,0.502,178.502,1.007,267.754,1.438c66.817,0.323,133.637,0.69,200.456,0.664c13.769-0.006,27.579,0.208,41.343-0.272
			c0.461-0.016,0.922-0.035,1.383-0.068c2.438-0.176-0.226,0.168-1.155-0.756c0.965,0.959,1.931,1.918,2.896,2.876
			c6.333,6.291,12.666,12.581,18.999,18.871c56.602,56.221,113.203,112.441,169.805,168.662
			c35.095,34.858,70.189,69.717,105.284,104.574C2420.226,883.175,2423.617,879.784,2421.421,877.603L2421.421,877.603z"/>
	</g>
</g>
<g>
	<polygon fill="#D9D8DE" points="2421.2,904.938 1059.284,915.761 1058.283,885.677 2421.2,882.693 	"/>
	<g>
		<path fill="#1D1B3A" d="M2421.2,902.438c-22.088,0.176-44.176,0.351-66.263,0.526c-57.638,0.458-115.274,0.916-172.912,1.374
			c-80.247,0.638-160.495,1.275-240.743,1.913c-89.92,0.715-179.839,1.43-269.759,2.145c-86.652,0.688-173.305,1.377-259.957,2.065
			c-70.447,0.56-140.894,1.12-211.34,1.68c-41.302,0.328-82.604,0.656-123.906,0.984c-5.679,0.046-11.358,0.091-17.037,0.136
			c0.833,0.833,1.667,1.667,2.5,2.5c-0.333-10.028-0.667-20.056-1.001-30.084c-0.833,0.833-1.667,1.667-2.5,2.5
			c22.048-0.048,44.096-0.097,66.144-0.145c57.546-0.126,115.092-0.252,172.638-0.378c80.147-0.176,160.294-0.351,240.442-0.526
			c89.853-0.197,179.704-0.394,269.557-0.59c86.66-0.19,173.32-0.38,259.98-0.569c70.571-0.154,141.144-0.31,211.715-0.464
			c41.586-0.091,83.173-0.182,124.759-0.272c5.895-0.014,11.788-0.026,17.683-0.039c-0.833-0.833-1.667-1.667-2.5-2.5
			c0,7.415,0,14.829,0,22.244c0,3.225,5,3.225,5,0c0-7.415,0-14.829,0-22.244c0-1.36-1.137-2.503-2.5-2.5
			c-22.048,0.048-44.096,0.097-66.144,0.145c-57.546,0.126-115.092,0.252-172.638,0.378c-80.147,0.176-160.295,0.352-240.442,0.526
			c-89.853,0.197-179.704,0.394-269.557,0.59c-86.66,0.19-173.32,0.38-259.98,0.569c-70.572,0.154-141.143,0.309-211.715,0.464
			c-41.586,0.091-83.173,0.182-124.759,0.272c-5.894,0.014-11.788,0.026-17.682,0.039c-1.329,0.003-2.545,1.135-2.5,2.5
			c0.333,10.028,0.667,20.056,1.001,30.084c0.045,1.354,1.103,2.511,2.5,2.5c22.088-0.176,44.175-0.352,66.263-0.526
			c57.637-0.458,115.274-0.916,172.911-1.374c80.248-0.638,160.496-1.275,240.744-1.914c89.92-0.714,179.839-1.429,269.759-2.144
			c86.652-0.688,173.305-1.377,259.957-2.065c70.446-0.561,140.894-1.12,211.34-1.68c41.302-0.328,82.604-0.656,123.905-0.984
			c5.68-0.046,11.358-0.091,17.037-0.136C2424.423,907.412,2424.426,902.412,2421.2,902.438z"/>
	</g>
</g>
</svg>
