<?xml version="1.0" encoding="utf-8"?>
<!-- Generator: Adobe Illustrator 16.0.4, SVG Export Plug-In . SVG Version: 6.00 Build 0)  -->
<!DOCTYPE svg PUBLIC "-//W3C//DTD SVG 1.1//EN" "http://www.w3.org/Graphics/SVG/1.1/DTD/svg11.dtd">
<svg version="1.1" id="wall_1_" xmlns="http://www.w3.org/2000/svg" xmlns:xlink="http://www.w3.org/1999/xlink" x="0px" y="0px"
	 width="2834.646px" height="1467.093px" viewBox="0 0 2834.646 1467.093" enable-background="new 0 0 2834.646 1467.093"
	 xml:space="preserve">
<path fill="#E7E7EC" stroke="#FFFFFF" stroke-width="20" stroke-miterlimit="10" d="M-20-20l0,1507.093l2874.645,0.001V-20H-20z
	 M568.537,298.82c-77.741,0-140.768-63.021-140.768-140.766c0-77.742,63.026-140.768,140.768-140.768
	c77.743,0,140.767,63.025,140.767,140.768C709.304,235.799,646.28,298.82,568.537,298.82z M1224.279,298.809
	c-77.738,0.971-141.545-61.26-142.517-138.998c-0.972-77.734,61.259-141.539,138.997-142.512
	c77.736-0.971,141.541,61.258,142.514,138.994C1364.244,234.031,1302.016,297.836,1224.279,298.809z M1665.783,298.809
	c-77.736,0.971-141.545-61.26-142.516-138.998c-0.973-77.734,61.26-141.539,138.996-142.512
	c77.736-0.971,141.543,61.258,142.516,138.994C1805.748,234.031,1743.521,297.836,1665.783,298.809z"/>
</svg>
