<?xml version="1.0" encoding="utf-8"?>
<!-- Generator: Adobe Illustrator 16.0.4, SVG Export Plug-In . SVG Version: 6.00 Build 0)  -->
<!DOCTYPE svg PUBLIC "-//W3C//DTD SVG 1.1//EN" "http://www.w3.org/Graphics/SVG/1.1/DTD/svg11.dtd">
<svg version="1.1" id="char1-armright2" xmlns="http://www.w3.org/2000/svg" xmlns:xlink="http://www.w3.org/1999/xlink" x="0px"
	 y="0px" width="3035.786px" height="1466.93px" viewBox="0 0 3035.786 1466.93" enable-background="new 0 0 3035.786 1466.93"
	 xml:space="preserve">
<g>
	<path fill="#F4EDE1" d="M1747.126,453.553c13.613,0.848,12.671,8.264,23.029,9.584c10.619,1.355,44.286,5.717,50.241,2.314
		c13.612-7.656,25.333-48.672,8.318-47.822c5.956-2.553,48.644-0.744,46.28-10.998c-2.554-11.057-77.007-0.736-81.261-2.439
		l15.754,16.053c-5.956-9.357-18.715-19.566-26.373-20.418c-7.656,0-22.118,19.566-33.177,22.971"/>
</g>
<g>
	<path fill="#1D1B3A" d="M1498.626,344.354c0,0,0.931-37.814,13.739-25.76c12.808,12.053,120.969,108.453,135.292,109.885
		c22.602,2.262,98.696-6.027,98.696-6.027l3.012,33.15c0,0-87.394,21.096-118.284,9.039c-25.74-10.043-87.105-45.479-87.105-45.479
		S1511.506,382.993,1498.626,344.354z"/>
	<g>
		<path fill="#1D1B3A" d="M1500.951,344.354c0.112-4.197,1.922-30.356,9.139-24.677c7.541,5.935,14.393,13.065,21.571,19.437
			c25.698,22.806,51.671,45.381,78.548,66.794c9.162,7.299,18.419,14.703,28.384,20.893c2.45,1.521,5.171,3.235,8.027,3.857
			c5.683,1.239,12.221,0.583,17.98,0.445c27.289-0.655,54.625-3.376,81.752-6.326c-0.775-0.775-1.55-1.55-2.325-2.325
			c1.004,11.05,2.008,22.101,3.012,33.15c0.569-0.747,1.138-1.495,1.707-2.242c-27.986,6.74-57.07,11.854-85.874,12.623
			c-8.376,0.224-16.901-0.002-25.117-1.778c-7.366-1.594-14.309-5.265-21.054-8.506c-17.595-8.455-34.742-17.87-51.792-27.366
			c-5.993-3.339-11.967-6.711-17.92-10.12c-0.529-0.304-1.059-0.607-1.588-0.912c-0.654-0.377,0.565,0.612-0.044-0.077
			c-1.543-1.747-3.032-3.542-4.51-5.344c-16.624-20.274-31.499-43.219-39.979-68.144c-0.96-2.822-5.453-1.611-4.484,1.236
			c7.826,23.003,20.907,43.98,35.624,63.181c3.265,4.259,6.621,8.464,10.175,12.487c1.636,1.851,4.89,2.979,6.977,4.165
			c15.318,8.71,30.751,17.229,46.363,25.4c14.137,7.4,29.325,16.744,45.308,19.287c22.206,3.533,45.8-0.083,67.792-3.555
			c13.862-2.188,27.712-4.807,41.36-8.094c0.934-0.225,1.797-1.249,1.707-2.242c-1.004-11.05-2.008-22.101-3.012-33.15
			c-0.104-1.151-0.983-2.472-2.325-2.325c-28.969,3.15-58.251,6.214-87.409,6.415c-4.477,0.031-9.603,0.568-13.3-1.141
			c-4.002-1.85-7.688-4.477-11.291-6.989c-12.415-8.659-24.153-18.319-35.825-27.94c-25.087-20.682-49.62-42.062-73.814-63.778
			c-4.438-3.983-14.038-16.444-20.687-11.514c-4.603,3.414-5.663,10.785-6.495,16.018c-0.69,4.341-1.114,8.762-1.23,13.157
			C1496.221,347.354,1500.872,347.347,1500.951,344.354z"/>
	</g>
</g>
<g>
	<g>
		<path fill="#1D1B3A" d="M1748.805,425.33c10.409-3.578,17.741-13.09,26.234-19.621c1.708-1.313,3.558-2.576,5.643-3.182
			c2.424-0.705,6.068,1.824,8.037,2.956c6.722,3.863,12.742,9.786,17.01,16.226c1.648,2.487,5.678,0.16,4.016-2.348
			c-4.056-6.12-9.271-11.198-15.15-15.562c-4.162-3.09-10.408-7.134-15.841-5.555c-5.28,1.534-9.892,6.472-13.865,10.009
			c-5.191,4.621-10.603,10.283-17.32,12.593C1744.75,421.814,1745.961,426.308,1748.805,425.33L1748.805,425.33z"/>
	</g>
</g>
<g>
	<g>
		<path fill="#1D1B3A" d="M1796.151,406.908c2.595,0.851,6.042,0.2,8.687,0.042c5.837-0.35,11.667-0.838,17.5-1.26
			c13.898-1.004,27.993-2.109,41.922-1.113c3.317,0.237,8.807,0.303,11.377,2.829c0.472,0.464-0.099,0.308,0.2-0.077
			c-0.564,0.726-1.619,1.128-2.439,1.457c-2.689,1.079-5.616,1.622-8.452,2.154c-6.947,1.305-14.021,1.935-21.046,2.65
			c-4.464,0.454-9.789,0.355-14.034,1.978c-2.34,0.894-2.162,4.605,0.618,4.567c13.602-0.187-3.446,42.822-15.427,44.967
			c-5.188,0.929-11.002,0.039-16.188-0.464c-6.625-0.642-13.217-1.607-19.805-2.546c-5.162-0.736-9.596-1.257-13.836-4.563
			c-4.629-3.609-9.179-5.324-15.063-5.827c-2.99-0.256-2.965,4.396,0,4.65c4.083,0.35,7.525,1.383,10.861,3.769
			c2.199,1.572,4.144,3.269,6.637,4.389c5.639,2.532,13.174,2.517,19.24,3.339c7.112,0.964,14.254,1.847,21.432,2.108
			c4.85,0.178,9.718,0.118,13.648-3.029c9.155-7.332,14.677-20.143,17.292-31.284c1.801-7.675,2.083-20.308-8.789-20.158
			c0.206,1.522,0.412,3.045,0.618,4.567c4.724-1.805,10.696-1.595,15.664-2.104c7.648-0.783,15.355-1.561,22.871-3.227
			c3.449-0.766,10.614-2.287,10.758-6.959c0.122-3.945-4.125-5.697-7.295-6.552c-13.423-3.617-29.125-1.574-42.781-0.715
			c-7.323,0.46-14.636,1.055-21.955,1.57c-3.092,0.218-8.601,1.135-10.975,0.357
			C1794.529,401.487,1793.314,405.979,1796.151,406.908L1796.151,406.908z"/>
	</g>
</g>
<g>
	<g>
		<path fill="#1D1B3A" d="M1828.851,415.01c-12.657,2.978-29.361,1.081-39.569,10.518c-0.698,0.646-0.966,2.019-0.363,2.818
			c4.174,5.532,12.437,6.052,18.797,6.504c8.353,0.594,16.829,0.073,25.15-0.747c2.944-0.29,3.006-4.896,0-4.65
			c-8.423,0.686-16.846,1.232-25.228,2.358c-7.815,1.05-17.312,2.095-23.842,6.965c-1.284,0.958-1.713,3.15,0,4.016
			c6.393,3.229,14.044,3.503,21.064,3.726c8.176,0.26,16.341-0.299,24.515-0.338c2.544-0.012,3.275-4.185,0.618-4.567
			c-7.078-1.02-14.666-0.198-21.732,0.485c-6.709,0.648-16.006,1.071-21.306,5.826c-5.603,5.026,2.387,10.212,6.708,11.316
			c7.682,1.963,16.557,1.603,24.364,0.557c2.927-0.392,2.965-5.048,0-4.65c-5.628,0.754-11.401,0.828-17.061,0.468
			c-2.302-0.146-15.679-2.193-8.809-5.578c5.97-2.94,13.862-3.159,20.359-3.655c5.232-0.399,11.008-1.038,16.241-0.284
			c0.206-1.522,0.412-3.045,0.618-4.567c-6.843,0.032-13.679,0.407-20.523,0.398c-7.31-0.009-16.016,0.229-22.708-3.151
			c0,1.339,0,2.677,0,4.016c6.193-4.62,15.359-5.506,22.778-6.502c7.949-1.068,15.955-1.536,23.943-2.187c0-1.55,0-3.101,0-4.65
			c-6.417,0.633-12.86,0.982-19.31,0.951c-5.442-0.026-16.845,0.6-20.622-4.405c-0.121,0.939-0.242,1.879-0.363,2.818
			c4.855-4.488,12.318-5.493,18.597-6.482c6.293-0.99,12.706-1.378,18.919-2.84C1833.006,418.808,1831.768,414.323,1828.851,415.01
			L1828.851,415.01z"/>
	</g>
</g>
<g>
	<g>
		<path fill="#1D1B3A" d="M1770.614,430.606c9.496,0.007,13.577-7.627,13.773-16.276c-1.166,0.669-2.333,1.339-3.499,2.008
			c5.336,2.403,8.563,6.94,14.957,6.776c2.993-0.077,3.001-4.728,0-4.65c-5.378,0.138-8.151-4.134-12.609-6.142
			c-1.588-0.715-3.456,0.115-3.499,2.008c-0.137,5.998-2.235,11.631-9.123,11.626
			C1767.615,425.954,1767.615,430.604,1770.614,430.606L1770.614,430.606z"/>
	</g>
</g>
</svg>
