<?xml version="1.0" encoding="utf-8"?>
<!-- Generator: Adobe Illustrator 16.0.4, SVG Export Plug-In . SVG Version: 6.00 Build 0)  -->
<!DOCTYPE svg PUBLIC "-//W3C//DTD SVG 1.1//EN" "http://www.w3.org/Graphics/SVG/1.1/DTD/svg11.dtd">
<svg version="1.1" id="char1-eyeclosed" xmlns="http://www.w3.org/2000/svg" xmlns:xlink="http://www.w3.org/1999/xlink" x="0px"
	 y="0px" width="3035.786px" height="1466.93px" viewBox="0 0 3035.786 1466.93" enable-background="new 0 0 3035.786 1466.93"
	 xml:space="preserve">
<g>
	<g>
		<path fill="#1D1B3A" d="M1463.606,155.964c-11.117-2.114-21.756,0.345-31.741,5.391c-2.677,1.353-0.322,5.364,2.348,4.016
			c8.799-4.446,18.335-6.79,28.157-4.922C1465.3,161.006,1466.55,156.523,1463.606,155.964L1463.606,155.964z"/>
	</g>
</g>
<g>
	<g>
		<path fill="#1D1B3A" d="M1500.52,159.2c7.4-0.971,14.407,0.161,21.31,2.931c2.786,1.118,3.983-3.382,1.236-4.484
			c-7.247-2.908-14.777-4.116-22.546-3.097C1497.59,154.934,1497.552,159.59,1500.52,159.2L1500.52,159.2z"/>
	</g>
</g>
</svg>
