<?xml version="1.0" encoding="utf-8"?>
<!-- Generator: Adobe Illustrator 16.0.4, SVG Export Plug-In . SVG Version: 6.00 Build 0)  -->
<!DOCTYPE svg PUBLIC "-//W3C//DTD SVG 1.1//EN" "http://www.w3.org/Graphics/SVG/1.1/DTD/svg11.dtd">
<svg version="1.1" id="char1" xmlns="http://www.w3.org/2000/svg" xmlns:xlink="http://www.w3.org/1999/xlink" x="0px" y="0px"
	 width="3035.786px" height="1466.93px" viewBox="0 0 3035.786 1466.93" enable-background="new 0 0 3035.786 1466.93"
	 xml:space="preserve">
<path fill="#1D1B3A" stroke="#1D1B3A" stroke-width="5.9934" stroke-linecap="round" d="M1544.962,845.479
	c0,0-26.602,249.866-18.115,267.159c8.496,17.311,111.935,64.087,83.19,64.033c-64.832-0.124-94.076-37.669-94.076-37.669
	l-2.636,28.122H1501.9c0,0-7.186-44.673,5.371-54.687c3.789-3.035-10.646-158.372-10.646-192.602
	c0-36.349,4.744-53.243,6.231-57.119C1513.276,835.582,1542.657,841.6,1544.962,845.479z"/>
<g>
	<g>
		<path fill="#F4EDE1" d="M1340.786,560.097c-0.435-2.536,3.061-2.461,2.553-5.006c-0.835-4.028,6.561-6.646,8.183-2.674
			c0.099,0.308,0.2,0.628,0.322,0.936c0.028,0,0.028,0,0.028,0c0,0.03,0,0.073,0,0.084c0.116,0.3,0.199,0.585,0.313,0.872
			c0.321,0.3,0.564,0.637,0.759,1.047c0.143-0.082,0.251-0.162,0.407-0.22c0.72-2.469,3.82-3.756,6.059-3.156
			c4.467-2.498,9.623,2.709,5.172,5.644c-1.467,0.958-2.131,2.914-2.411,5.149c0.029,2.163,0,4.297-0.225,6.473
			c-0.028,0.151-0.101,0.246-0.126,0.408c-0.032,1.057-0.042,2.02-0.184,2.743c-0.184,1.313-1.127,2.225-2.27,2.849
			c0.295,1.037,0.596,2.081,0.844,3.128c0.833,2.998-2.474,4.727-5.211,4.363c-2.282,1.184-5.848,0.714-6.634-2.102
			c-0.058-0.183-0.098-0.382-0.168-0.577C1345.732,574.531,1340.965,566.09,1340.786,560.097z"/>
	</g>
	<g>
		<path fill="#F4EDE1" d="M1343.879,596.119c3.047-11.711,0.354-21.623-3.647-32.061l-3.775,14.659
			c2.69,1.047,4.056,1.578,5.027,3.568c-8.222-5.62-18.564-17.689-28.944-12.044c6.83,13.955,17.773,20.606,31.218,23.432
			c-11.696-3.751-27.43-17.92-37.856-12.282c9.074,14.007,26.695,26.82,36.614,40.384c13.889-7.531,40.918-17.163,41.782-37.806
			c1.972-16.187-18.792-31.077-26.006-43.566"/>
		<g>
			<path fill="#1D1B3A" d="M1346.193,596.757c2.746-11.605,0.492-22.364-3.647-33.336c-0.792-2.099-3.993-2.468-4.628,0
				c-1.258,4.886-2.517,9.772-3.775,14.659c-0.353,1.371,0.444,2.465,1.676,2.951c1.593,0.63,2.684,0.933,3.592,2.466
				c1.095-1.094,2.189-2.188,3.283-3.283c-9.238-6.532-19.034-17.893-31.366-12.044c-1.231,0.584-1.413,2.197-0.861,3.283
				c6.764,13.315,18.203,21.34,32.652,24.535c3.036,0.671,4.194-3.624,1.275-4.628c-12.064-4.151-26.187-18.46-39.705-12.041
				c-1.133,0.538-1.542,2.263-0.861,3.283c10.171,15.247,25.681,25.784,36.614,40.384c0.806,1.077,2.028,1.533,3.283,0.861
				c15.228-8.157,34.975-14.925,41.601-32.521c8.116-21.552-15.416-36.254-24.965-52.135c-1.592-2.648-5.743-0.237-4.144,2.422
				c9.091,15.12,31.012,28.251,24.48,48.437c-5.137,15.879-26.151,22.559-39.395,29.652c1.094,0.287,2.188,0.574,3.283,0.861
				c-10.926-14.592-26.471-25.18-36.614-40.384c-0.287,1.094-0.574,2.188-0.861,3.283c6.047-2.872,13.215,1.136,18.547,3.907
				c5.765,2.997,11.286,6.492,17.46,8.617c0.425-1.543,0.85-3.086,1.275-4.628c-13.328-2.947-23.537-10.033-29.784-22.329
				c-0.287,1.094-0.574,2.188-0.861,3.283c9.726-4.612,19.36,6.98,26.522,12.044c2.027,1.434,4.45-1.312,3.283-3.283
				c-1.532-2.587-3.742-3.597-6.461-4.671c0.559,0.983,1.118,1.968,1.676,2.951c1.258-4.886,2.517-9.772,3.775-14.659
				c-1.542,0-3.085,0-4.628,0c3.815,10.113,6.192,20.029,3.647,30.785C1340.853,598.491,1345.48,599.769,1346.193,596.757
				L1346.193,596.757z"/>
		</g>
	</g>
</g>
<g>
	<path fill="#1D1B3A" d="M1350.077,566.747c-7.382-0.564-117.852-73.235-115.867-92.551c4.69-46.109,90.253-114.337,130.713-142.362
		c11.34,21.6,17.004,59.986,8.495,83.464c-12.666,11.274-64.829,46.807-70.181,59.974c-3.7,9.012,63.768,61.79,63.768,61.79
		S1359.517,567.446,1350.077,566.747z"/>
</g>
<g>
	<path fill="#F2C132" d="M1542.147,103.258c0.74-5.059-4.936-25.154-9.767-27.439c-0.111-0.303-8.698-6.668-8.836-6.977
		c-1.608-2.867-5.074-4.66-8.836-6.51c-4.978-3.82-11.136-6.148-18.075-7.543c-1.516-0.295-3.059-0.498-4.54-0.678
		c-4.651-1.836-9.403-3.459-14.244-4.725c-17.106-4.467-33.895-0.956-51.38,0.514c-0.073,0.031-0.2,0.068-0.277,0.092
		c-0.072,0.031-0.161,0.078-0.25,0.115c-0.087,0.037-0.161,0.061-0.263,0.111c-1.342,0.672-2.016,1.926-2.108,3.244
		c-2.579,0.463-5.128,1.031-7.659,1.742c1.089-1.711,2.016-3.475,2.796-5.291c-2.362,2.643-6.584,6.858-9.254,4.517
		c-1.881,3.787-0.342-4.286-0.568-4.456c-2.067-1.842-2.985-5.336-1.49-7.85c1.04-1.748,1.97-3.568,2.869-5.443
		c0.25-0.779,0.555-1.572,0.793-2.377c-1.181-1.02-2.006-2.48-2.083-4.375c-0.062-2.594,0.075-5.119,0.37-7.617
		c-0.017-0.033-0.032-0.068-0.049-0.1c-0.557-0.377-1.102-0.746-1.638-1.076c0.176-0.301,0.302-0.627,0.395-0.963
		c-0.61-0.896-1.278-1.777-2.012-2.648c-0.701-0.832-0.958-1.746-0.917-2.621c-4.496-3.57-2.836-7.865-8.078-9.312
		c-2.671-1.658-12.601-0.375-15.896-0.695c-1.278-0.111-2.355,0.244-3.172,0.887c-0.187,0.01-0.375,0.01-0.579,0.037
		c-15.186,0-31.086,6.121-43.101,14.242c-11.335,7.664-22.648,19.314-26.773,32.314c-3.672,6.188-6.196,12.777-6.874,19.482
		c-2.081,20.633,18.412,29.091,35.304,29.071c-7.965,11.174-13.915,29.449-15.167,45c-2.233,27.602-0.548,50.093,11.605,75.224
		c9.343,19.348,26.061,40.607,46.98,42.553c0.436,1.711,1.365,0.627,3.582,0.723c-1.151-0.055,4.29,1.779,5,2
		c1.103,0.287,19.563,1.754,20.253-0.396c0.188-0.053-6.64-5.508-6.511-5.58c1.113-0.145-0.16-3.338,0.53-4.793
		c0.212-0.447-4.012-0.797-5.703-1.719c-2.307-14.52-10.106-27.26-15.236-41.012c-0.688-1.863,0.9-4.053-1.006-4.141
		c-13.314-0.723-22.609-15.711-23.94-27.82c-0.499-4.24-0.826-11.16,3.161-14.09c5.61-4.166,13.308-0.928,18.902,1.662
		c2.721,1.268,6.206-0.74,5.915-3.914c-1.454-15.744,2.671-31.359,18.062-38.523c13.77-6.426,29.445-7.432,44.458-7.658
		c12.676-0.229,25.417,0.342,38.109,0.24c9.453-0.074,19.99,0.035,28.929-3.43C1526.478,110.381,1539.356,122.326,1542.147,103.258z
		"/>
</g>
<g>
	<g>
		<path fill="#1D1B3A" d="M1408.371,53.302c5.254-14.298,7.553-34.503-4.732-45.991c-7.163-6.699-17.826-6.927-27.018-6.339
			c-12.051,0.771-23.728,4.69-34.347,10.307c-10.863,5.745-20.178,13.886-28.027,23.272c-7.412,8.863-14.527,19.527-16.093,31.232
			c-3.128,23.378,16.928,35.957,37.912,36.499c3.001,0.078,2.993-4.573,0-4.65c-8.835-0.229-17.867-2.331-24.914-7.918
			c-8.564-6.791-10.072-17.878-7.405-27.919c2.75-10.354,9.819-19.487,16.743-27.41c7.162-8.196,15.945-14.761,25.54-19.835
			c9.447-4.997,19.958-8.019,30.592-8.928c8.449-0.722,17.93-0.448,24.451,5.651c10.562,9.878,7.194,28.873,2.814,40.792
			C1402.85,54.887,1407.346,56.093,1408.371,53.302L1408.371,53.302z"/>
	</g>
</g>
<g>
	<g>
		<path fill="#1D1B3A" d="M1357.595,12.219c4.287,6.604,9.903,12.082,15,18.038c6.809,7.957,9.959,17.192,10.581,27.562
			c0.178,2.979,4.83,2.997,4.65,0c-0.541-9.033-2.667-17.529-7.618-25.188c-5.34-8.261-13.233-14.496-18.597-22.76
			C1359.985,7.366,1355.957,9.694,1357.595,12.219L1357.595,12.219z"/>
	</g>
</g>
<g>
	<g>
		<path fill="#1D1B3A" d="M1340.485,19.395c0.031,18.848,6.923,37.64,18.242,52.621c1.784,2.36,5.825,0.048,4.016-2.348
			c-10.852-14.363-17.577-32.181-17.607-50.273C1345.13,16.396,1340.479,16.396,1340.485,19.395L1340.485,19.395z"/>
	</g>
</g>
<g>
	<g>
		<path fill="#1D1B3A" d="M1316.541,53.97c2.219,16.02,15.005,27.258,29.652,32.429c2.835,1.001,4.044-3.493,1.236-4.484
			c-13.257-4.681-24.407-14.762-26.404-29.181C1320.616,49.773,1316.135,51.038,1316.541,53.97L1316.541,53.97z"/>
	</g>
</g>
<g>
	<path fill="#F4EDE1" d="M1348.481,170.414c-0.369-1.361,1.967-4.619,1.917-6.275c-0.085-2.377,3.493-4.934,5.722-5.209
		c2.8-0.363,3.632-3.199,6.329-4.043c1.695-1.697,6.586,0.811,9.581,0.555c1.832-0.15,7.471,3.244,9.09,3.822
		c1.375-10.215-1.696-27.711,4.298-36.008c3.921-10.014,10.565-15.525,19.869-21.492c3.187-3.436,10.799-4.246,16.317-5.057
		c1.189-0.166,2.656-1.668,3.81-1.82c2.021-0.453,5.825-2.107,7.906-2.324c3.273-5.676,8.995-4.258,15.966-5.299
		c14.51-2.152,25.216-5.896,38.833-1.833c0.754-0.412,3.082-0.409,4.134-0.085c3.477,1.047,5.908-1.027,9.257,0.176
		c1.015-0.684,5.73,3.016,7.172,3.773c5.52,2.898,10.629,5.646,15.77,9.136c1.229,0.828,9.944,10.603,10.108,11.776
		c8.516,7.385,5.904,9.139,10.429,20.178c2.131,5.232,4.998,9.765,5.775,15.317c2.007,6.197,5.294,12.883,6.173,19.291
		c0.303,2.176-0.136,6.694,0,8.874c8.101,32.148-6.752,64.522-32.985,84.896c-13.205,10.248-28.54,15.438-45.167,20.167
		c0.461,5.805-0.236,9.062-1.276,14.594c0.564,2.58,1.254,5.135,1.98,7.668c-1.896,8.309,6.383,20.562,7.312,29.348
		c0.187,1.967-8.932-0.527-7.701,0.471c-0.14,0.166-0.25,0.35-0.391,0.498c-1.029,1.086-2.056,2.021-3.059,2.869
		c-2.322,2.455-5.179,4.375-8.237,5.465c-3.351,1.18-7.124,1.711-10.711,1.967c-6.883,0.504-31.963,1.32-35.729-4.693
		c-10.445-1.988-1.43-16.371,1.094-28.697c2.093-10.566,1.919-20.781-0.715-30.859c-0.153-0.18-0.379-0.342-0.503-0.52
		c-1.707-0.781-3.301-5.223-4.897-6.609c-18.607-16.422-30.631-33.077-31.833-56.833c-1.653-0.307-0.639-3.003-2.222-3.61
		c-0.362-0.129-6.168-1.248-8.311-1.879c-6.672-1.967-12.469-5.266-17.696-9.984C1347.388,190.441,1342.02,178.59,1348.481,170.414z
		"/>
</g>
<g>
	<g>
		<path fill="#1D1B3A" d="M1453.529,282.405c23.612,1.697,46.967-3.474,66.475-17.187c14.815-10.414,26.968-25.483,34.036-42.163
			c14.195-33.501,7.695-77.281-11.201-107.61c-8.843-14.192-21.519-25.601-37.111-31.812c-2.789-1.111-3.987,3.389-1.236,4.484
			c38.208,15.225,53.236,61.682,52.042,99.633c-0.573,18.219-5.736,35.007-16.017,50.066c-12.112,17.741-30.09,30.79-50.716,36.737
			c-11.768,3.394-24.107,4.075-36.272,3.201C1450.535,277.539,1450.556,282.191,1453.529,282.405L1453.529,282.405z"/>
	</g>
</g>
<g>
	<g>
		<path fill="#1D1B3A" d="M1476.114,156.752c-0.082,21.542,25.73,22.674,39.662,31.43c-0.157-1.218-0.313-2.435-0.47-3.652
			c-5.994,5.322-14.879,7.522-22.65,8.378c-7.548,0.83-17.754,0.337-22.418-6.646c-1.657-2.479-5.687-0.154-4.016,2.348
			c5.521,8.264,16.066,9.653,25.268,9.051c9.375-0.614,19.943-3.482,27.105-9.842c1.158-1.028,0.735-2.895-0.47-3.652
			c-12.009-7.548-37.429-8.954-37.359-27.414C1480.776,153.752,1476.125,153.754,1476.114,156.752L1476.114,156.752z"/>
	</g>
</g>
<g>
	<g>
		<path fill="#1D1B3A" d="M1520.773,81.312c-29.618,0.201-59.696,0.074-88.618,7.338c-13.697,3.44-27.361,8.9-38.019,18.395
			c-10.36,9.229-15.471,22.224-15.622,35.952c-0.098,8.975,1.952,17.934,4.717,26.417c1.495-0.412,2.99-0.824,4.484-1.236
			c-3.305-9.925-11.449-17.996-22.54-16.855c-11.775,1.211-18.829,12.589-20.204,23.431c-1.512,11.921,8.087,22.503,16.73,29.394
			c4.805,3.831,17.05,12.583,22.339,5.019c-1.444-0.392-2.889-0.782-4.333-1.174c2.869,21.363,11.392,47.143,29.69,60.274
			c2.834,2.034,5.323,2.635,7.051,5.82c1.892,3.49,2.552,7.814,3.04,11.698c1.156,9.2,0.708,18.77-0.793,27.9
			c-0.601,3.652-1.477,7.272-2.764,10.745c-0.808,2.181-2.87,4.116-3.201,6.413c-0.673,4.67,4.432,7.559,8,9.201
			c14.415,6.637,33.447,6.856,48.198,1.381c5.766-2.141,10.966-5.541,15.112-10.086c2.017-2.211-1.263-5.509-3.288-3.289
			c-12.504,13.709-34.402,14.486-51.269,10.146c-1.9-0.489-13.046-3.463-12.128-6.781c0.575-2.079,2.542-4.346,3.34-6.5
			c1.436-3.872,2.194-8.005,2.815-12.074c1.362-8.921,1.626-18.084,0.629-27.056c-0.678-6.102-1.899-13.738-6.727-18.075
			c-2.949-2.649-6.787-4.077-9.766-6.875c-4.51-4.236-7.928-9.546-10.936-14.906c-6.492-11.569-10.589-24.813-12.352-37.937
			c-0.306-2.282-2.925-3.188-4.333-1.174c-2.868,4.102-15.601-6.366-17.573-8.061c-6.174-5.309-13.099-13.149-13.063-21.779
			c0.038-8.947,5.839-18.487,14.714-20.784c9.205-2.382,16.468,5.235,19.127,13.221c0.942,2.828,5.417,1.627,4.484-1.236
			c-5.039-15.463-7.258-32.752,1.159-47.462c7.016-12.26,20.206-19.53,33.091-24.144c28.797-10.31,60.719-10.424,90.939-10.569
			c2.623-0.013,5.245-0.022,7.868-0.04C1523.771,85.941,1523.773,81.291,1520.773,81.312L1520.773,81.312z"/>
	</g>
</g>
<g>
	<g>
		<path fill="#1D1B3A" d="M1322.902,146.143c2.212-21.983,11.539-41.882,27.317-57.367c13.509-13.259,30.783-22.322,48.558-28.428
			c19.327-6.638,39.822-9.521,60.215-9.56c25.762-0.048,53.483,4.959,71.274,25.048c7.405,8.362,13.25,19.896,8.956,31.034
			c-1.081,2.803,3.417,4.004,4.484,1.236c7.922-20.548-12.641-42.475-29.601-50.976c-22.976-11.517-50.798-12.414-75.878-9.937
			c-35.571,3.516-72.726,16.849-96.907,44.198c-13.548,15.323-21.035,34.523-23.07,54.75
			C1317.952,149.126,1322.605,149.097,1322.902,146.143L1322.902,146.143z"/>
	</g>
</g>
<g>
	<g>
		<path fill="#1D1B3A" d="M1319.907,146.338c-3.3,33.512,3.052,68.184,24.456,94.944c11.743,14.681,32.01,30.66,52.159,28.195
			c2.938-0.359,2.973-5.014,0-4.65c-19.156,2.343-37.637-13.088-48.871-26.833c-20.797-25.447-26.234-59.767-23.094-91.656
			C1324.852,143.354,1320.198,143.382,1319.907,146.338L1319.907,146.338z"/>
	</g>
</g>
<g>
	<g>
		<path fill="#1D1B3A" d="M1451.577,116.991c-8.548,0.443-16.896,4.13-24.519,7.763c-4.905,2.338-14.416,6.106-16.314,11.896
			c-0.938,2.858,3.554,4.072,4.484,1.236c0.507-1.547,3.239-2.918,4.482-3.745c3.075-2.045,6.383-3.749,9.695-5.371
			c6.751-3.306,14.555-6.732,22.172-7.128C1454.561,121.487,1454.576,116.835,1451.577,116.991L1451.577,116.991z"/>
	</g>
</g>
<g>
	<g>
		<path fill="#1D1B3A" d="M1475.497,283.322c-0.219,10.667-0.256,21.627,2.324,32.054c1.455,5.878,4.417,11.041,7.26,16.321
			c1.422,2.641,5.438,0.293,4.016-2.348c-2.535-4.707-5.104-9.229-6.578-14.407c-2.883-10.132-2.585-21.2-2.372-31.62
			C1480.209,280.321,1475.559,280.327,1475.497,283.322L1475.497,283.322z"/>
	</g>
</g>
<g>
	<g>
		<path fill="#1D1B3A" d="M1366.398,170.082c3.948,3.714,8.645,12.494,3.849,17.178c-2.149,2.099,1.142,5.385,3.288,3.289
			c6.758-6.599,2.044-18.212-3.848-23.756C1367.505,164.74,1364.21,168.022,1366.398,170.082L1366.398,170.082z"/>
	</g>
</g>
<g>
	<g>
		<path fill="#1D1B3A" d="M1527.21,128.085c-3.444-9.915-20.466-13.046-29.315-10.157c-2.838,0.927-1.623,5.418,1.236,4.484
			c6.153-2.009,21.073-0.35,23.595,6.909C1523.703,132.136,1528.197,130.926,1527.21,128.085L1527.21,128.085z"/>
	</g>
</g>
<g>
	<g>
		<path fill="#1D1B3A" d="M1472.874,82.873c-13.189-6.358-26.313-12.872-40.423-16.962c-15.534-4.502-31.286-1.073-47.127-2.109
			c-2.996-0.196-2.977,4.456,0,4.65c14.764,0.966,29.59-2.251,44.124,1.462c14.405,3.681,27.757,10.553,41.079,16.975
			C1473.214,88.185,1475.574,84.175,1472.874,82.873L1472.874,82.873z"/>
	</g>
</g>
<g>
	<g>
		<path fill="#1D1B3A" d="M1422.271,90.547c-8.884-3.197-16.887-8.217-25.504-12.005c-8.523-3.746-17.406-5.252-26.68-4.4
			c-2.961,0.271-2.987,4.925,0,4.65c9.984-0.917,18.958,1.155,27.951,5.42c7.681,3.643,14.969,7.93,22.998,10.819
			C1423.864,96.05,1425.071,91.555,1422.271,90.547L1422.271,90.547z"/>
	</g>
</g>
<g>
	<path fill="#DC4832" d="M1471.666,218.18c1.665,0.102,4.148,0.465,6.935,0.727c4.075-3.064,9.869-4.105,14.835-4.627
		c0.879-0.092,1.603,0.109,2.143,0.482c2.811-2.02,9.549,0.543,7.408,4.102c-3.312,5.434-11.883,7.416-18.503,7.426
		c2.03,1.291,4.1,2.545,6.256,3.688c2.607,1.377,6.621,6.893,3.486,7.412c-4.341,0.711-13.504-0.068-16.993-3.152
		c-1.869-1.641-3.121-3.91-3.335-6.273c-1.354-0.967-2.711-1.969-4.048-2.971C1467.199,223.043,1467.661,217.938,1471.666,218.18z"
		/>
</g>
<g>
	<g>
		<path fill="#1D1B3A" d="M1482.586,230.391c7.886,2.685,33.972-10.499,21.32-18.326c-5.301-3.279-15.367,0.621-20.674,1.975
			c-7.867,2.007-17.735,6.183-25.975,4.785c-2.933-0.498-4.188,3.983-1.236,4.484c5.272,0.895,10.731-0.409,15.861-1.584
			c7.085-1.622,14.042-3.764,21.169-5.21c3.588-0.729,13.387-1.7,7.02,3.909c-3.505,3.088-11.464,7.111-16.25,5.482
			C1480.975,224.938,1479.764,229.43,1482.586,230.391L1482.586,230.391z"/>
	</g>
</g>
<g>
	<g>
		<path fill="#1D1B3A" d="M1481.493,229.885c2.978,0.845,5.962,1.767,8.755,3.114c0.903,0.437,1.775,0.936,2.599,1.508
			c0.199,0.138,0.242,0.177,0.588,0.499c0.141,0.131,0.27,0.273,0.398,0.417c0.395,0.442-0.261-0.389,0.038,0.069
			c0.362,0.556-0.06-0.364,0.105,0.216c0.051,0.248,0.043,0.164-0.024-0.25c0.019,0.194-0.07,0.589,0.052-0.149
			c-0.096,0.578,0.273-0.419-0.03,0.1c-0.232,0.397,0.371-0.425,0.052-0.067c-0.091,0.102-0.196,0.192-0.299,0.282
			c0.598-0.522-1.235,0.581-0.667,0.354c-0.684,0.274-1.406,0.449-2.128,0.592c-2.846,0.561-6.59,0.16-9.725-1.012
			c-3.125-1.167-5.495-3.536-6.132-7.003c-0.542-2.947-5.023-1.695-4.484,1.236c1.79,9.738,13.693,13.066,22.203,11.13
			c3.417-0.777,7.134-3.475,5.3-7.384c-0.876-1.867-2.866-3.134-4.604-4.092c-3.347-1.845-7.103-3.007-10.761-4.044
			C1479.838,224.58,1478.612,229.068,1481.493,229.885L1481.493,229.885z"/>
	</g>
</g>
<g>
	<path fill="#1D1B3A" d="M1538.471,448.363c6.64-13.422-1.167-32.469-8.124-45.096c-4.93-5.861-10.154-11.916-11.94-19.441
		c-2.8-11.795,13.688-44.352,9.913-48.301c-21.107-22.084-20.249-22.942-29.694-22.942c0.512,1.828-16.747,2.228-15.456,4.293
		c12.88,20.607-49.624,24.287-66.976,0c-19.867,0.939-35.145,3.233-39.166,6.04c-1.392,0.975-6.087,4.105-12.863,8.918
		c10.052,19.582-7.094,72.877-7.094,72.877s34.642,94.873,15.686,137.955c-56.11,127.582-10.85,354.627-6.688,356.264
		c101.717,40,178.717-14,178.717-14s3.193-234.215-41.761-322.357C1458.602,475.529,1527.644,470.121,1538.471,448.363z"/>
	<g>
		<path fill="#1D1B3A" d="M1540.421,449.503c3.717-8.18,3.19-16.81,1.066-25.361c-2.137-8.606-5.955-18.172-11.663-24.999
			c-6.01-7.187-10.581-14.367-8.922-23.89c1.29-7.405,3.917-14.595,6.248-21.718c1.656-5.059,3.744-10.386,3.991-15.76
			c0.062-1.351-0.269-2.846-1.225-3.847c-3.677-3.854-7.324-7.733-10.983-11.603c-6.18-6.537-10.943-11.979-20.308-12.002
			c-1.299-0.003-2.169,1.034-2.258,2.259c1-1.178,1.114-1.608,0.345-1.289c-0.635,0.207-1.313,0.313-1.967,0.44
			c-1.418,0.275-2.856,0.458-4.285,0.663c-2.479,0.355-5.672,0.417-7.9,1.71c-3.863,2.243,0.86,6.33-0.235,9.732
			c-1.344,4.171-8.001,5.709-11.614,6.522c-6.884,1.551-14.195,1.35-21.158,0.516c-7.29-0.873-14.574-3.008-21.051-6.472
			c-2.872-1.535-5.482-3.459-7.815-5.725c-1.075-1.044-1.849-2.357-2.895-3.402c-1.568-1.568-5.312-0.468-7.229-0.352
			c-9.631,0.581-19.505,1.371-28.886,3.755c-7,1.778-12.89,7.123-18.65,11.201c-1.063,0.753-1.387,1.907-0.811,3.09
			c3.718,7.634,3.115,17.087,2.427,25.303c-0.802,9.587-2.74,19.087-4.972,28.432c-1.333,5.583-2.835,11.134-4.531,16.618
			c-0.6,1.941,0.293,3.484,0.931,5.34c10.848,31.586,19.621,65.424,20.091,98.957c0.128,9.156-0.6,18.376-3.021,27.231
			c-2.466,9.02-6.967,17.557-10.016,26.412c-6.971,20.248-11.444,41.315-14.586,62.472c-6.493,43.719-7.007,88.247-4.699,132.316
			c1.867,35.646,5.721,71.26,11.688,106.456c1.689,9.963,3.506,19.94,5.941,29.753c0.537,2.163,1.055,4.395,1.916,6.458
			c0.249,0.597,0.521,1.367,1.052,1.785c1.713,1.352,4.283,1.852,6.302,2.598c3.992,1.475,8.042,2.785,12.112,4.025
			c43.34,13.208,90.492,11.34,132.7-5.003c9.835-3.809,19.507-8.35,28.442-13.979c3.412-2.149,3.071-4.144,3.09-7.929
			c0.303-61.524-2.482-123.357-9.698-184.465c-4.361-36.937-10.141-74.378-22.177-109.689
			c-10.375-30.44-38.159-66.528-17.385-98.501c5.867-9.031,14.935-15.379,23.715-21.307
			C1528.291,461.697,1536.548,457.01,1540.421,449.503c1.333-2.584-2.564-4.869-3.9-2.279c-4.146,8.037-13.91,12.785-21.053,17.717
			c-9.613,6.638-18.686,14.29-24.156,24.82c-17.149,33.01,9.444,67.886,19.854,98.424c12.183,35.745,17.8,73.808,22.126,111.191
			c4.384,37.886,6.789,75.999,8.151,114.105c0.85,23.792,1.407,47.639,1.086,71.448c0.373-0.65,0.746-1.3,1.119-1.95
			c-19.621,13.705-44.53,21.395-67.791,25.538c-24.796,4.417-50.359,3.692-74.98-1.433c-6.844-1.425-13.591-3.28-20.258-5.372
			c-3.511-1.102-6.979-2.336-10.43-3.611c-1.411-0.521-2.569-0.874-2.515-0.771c-0.347-0.66-1.236-3.865-1.662-5.526
			c-6.393-24.894-9.653-50.835-12.618-76.312c-4.84-41.604-7.133-83.592-5.935-125.471c1.253-43.797,6.308-88.331,20.828-129.879
			c3.049-8.726,7.414-17.048,9.72-26.01c2.215-8.608,2.731-17.657,2.673-26.51c-0.128-19.719-3.755-39.447-8.268-58.581
			c-2.728-11.567-5.965-23.019-9.587-34.337c-0.953-2.977-1.94-5.942-2.97-8.893c-0.193-0.552-0.388-1.104-0.587-1.653
			c0.481,1.329,0.026,1.037,0.519-0.576c3.417-11.21,6.128-22.674,7.986-34.244c1.969-12.261,3.997-27.038-1.656-38.645
			c-0.27,1.03-0.54,2.06-0.811,3.09c5.812-4.114,11.497-9.203,18.509-10.984c10.469-2.66,21.641-3.13,32.38-3.665
			c-0.65-0.373-1.3-0.746-1.95-1.119c12.62,17.027,40.602,21.327,60.026,16.122c6.24-1.673,14.248-6.138,12.709-13.825
			c-0.156-0.782-0.383-1.506-0.681-2.246c-0.153-0.381-0.32-0.757-0.501-1.126c-0.414-1.155-0.769-0.783-1.066,1.117
			c2.113-0.869,4.691-0.983,6.93-1.305c2.749-0.395,8.942-0.313,9.224-4.17c-0.753,0.753-1.505,1.506-2.258,2.259
			c8.364,0.02,12.519,5.817,17.989,11.604c2.921,3.089,5.833,6.187,8.762,9.267c1.715,1.804,1.272,2.967,0.753,5.371
			c-1.308,6.057-3.582,11.938-5.478,17.826c-1.858,5.767-3.718,11.649-4.502,17.675c-0.838,6.438,0.886,11.774,4.204,17.348
			c2.062,3.464,4.76,6.592,7.336,9.674c3.199,3.825,5.172,9.508,6.963,14.082c3.593,9.179,6.125,20.164,1.867,29.536
			C1535.325,449.854,1539.217,452.151,1540.421,449.503z"/>
	</g>
</g>
<g>
	<path fill="#FFFFFF" d="M1483.892,312.77c11.912,20.013,17.67,108.304,3.812,111.975c-8.414,2.229-71.68-100.815-89.579-107.209
		c-6.671-2.383-26.683,6.194-26.683,6.194s49.578,88.267-2.296,156.595c-3.083,4.07,12.101,37.084,2.12,62.855
		c-27.821,72.094,11.521,312.75,11.521,312.75s170.142,30.084,170.142-42.717c0-16,6.928-151.043-26.748-261.377
		c-7.069-23.16-21.098-44.607-10.196-65.123c10.838-20.5,28.344-28.367,30.177-44.299c1.824-15.928-5.993-32.938-15.423-50.086
		c-9.444-17.133-28.088-73.188-33.981-79.082C1493.898,310.387,1483.892,312.77,1483.892,312.77z"/>
	<g>
		<path fill="#1D1B3A" d="M1481.942,313.909c3.08,5.325,4.532,11.583,5.874,17.529c1.94,8.595,3.151,17.354,4.074,26.109
			c1.792,16.99,2.844,34.781,0.364,51.759c-0.536,3.668-1.164,10.509-4.509,12.942c-0.614,0.446-0.001,0.529-1.251-0.329
			c-1.445-0.993-2.674-2.402-3.864-3.674c-9.474-10.121-17.381-21.868-25.519-33.052c-13.984-19.216-27.536-39.008-43.26-56.87
			c-4.18-4.749-9.029-10.642-15.124-12.967c-4.927-1.88-11.801,0.604-16.511,2.037c-4.044,1.229-8.023,2.729-11.912,4.385
			c-1.149,0.489-1.353,2.121-0.811,3.09c13.906,24.856,21.161,55.288,21.056,83.586c-0.094,25.577-8.011,50.225-23.353,70.729
			c-1.17,1.564-0.725,4.146-0.464,5.904c0.615,4.138,1.645,8.211,2.525,12.297c2.58,11.978,4.353,24.354,2.255,36.548
			c-1.24,7.211-4.504,14.047-6.229,21.179c-1.576,6.516-2.615,13.15-3.473,19.794c-2.104,16.283-2.664,32.763-2.749,49.167
			c-0.196,37.983,2.637,75.987,6.344,113.768c3.893,39.67,8.776,79.343,15.203,118.689c0.114,0.7,0.883,1.455,1.577,1.577
			c16.481,2.905,33.272,4.529,49.964,5.521c28.771,1.709,59.679,1.806,87.219-7.78c11.174-3.89,21.853-9.958,28.886-19.697
			c6.11-8.46,6.79-18.131,7.021-28.17c0.809-35.146,0.553-70.263-1.715-105.357c-1.69-26.151-4.49-52.238-8.623-78.118
			c-4.387-27.475-9.97-55.439-19.418-81.669c-4.772-13.249-11.421-26.545-11.267-40.935c0.149-13.943,10.658-25.394,19.568-35.039
			c6.408-6.938,13.151-14.118,14.519-23.849c1.852-13.179-3.167-26.418-8.603-38.155c-4.942-10.67-10.706-20.724-15.178-31.626
			c-4.571-11.146-8.824-22.421-13.239-33.629c-3.212-8.156-6.302-16.525-10.455-24.264c-3.679-6.854-10.648-6.345-17.572-4.749
			c-2.837,0.654-1.634,5.009,1.201,4.355c2.762-0.637,8.206-2.01,10.667-0.104c1.537,1.189,2.474,4.022,3.289,5.702
			c3.712,7.644,6.711,15.654,9.81,23.559c6.456,16.467,12.062,33.783,20.529,49.364c7.428,13.667,15.07,28.229,15.381,44.137
			c0.233,11.98-7.81,19.826-15.375,28.053c-8.152,8.865-16.333,18.898-18.55,31.049c-2.325,12.742,2.738,25.754,7.182,37.444
			c19.624,51.618,27.236,107.664,31.208,162.489c2.637,36.399,3.039,72.894,2.171,109.366c-0.238,10.012-0.491,19.289-6.451,27.866
			c-7.049,10.146-19.372,15.641-30.8,19.125c-28.06,8.555-59.06,7.761-88.011,5.681c-14.085-1.012-28.24-2.473-42.156-4.926
			c0.525,0.525,1.051,1.052,1.577,1.577c-8.078-49.456-13.924-99.42-17.875-149.364c-2.907-36.757-4.851-73.867-2.629-110.717
			c0.86-14.264,2.381-28.642,6.08-42.478c2.178-8.149,5.384-15.631,6.194-24.148c1.067-11.231-1.013-22.651-3.37-33.592
			c-0.748-3.472-1.585-6.929-2.171-10.434c-0.635-3.796,1.609-5.378,3.743-8.495c6.206-9.068,10.881-19.137,14.277-29.567
			c6.173-18.964,7.004-39.392,4.569-59.069c-2.741-22.151-9.426-45.279-20.389-64.875c-0.27,1.029-0.54,2.06-0.811,3.09
			c6.022-2.565,13.786-5.442,20.782-6.217c4.974-0.55,8.127,2.627,11.467,5.868c10.662,10.345,19.485,22.771,28.312,34.655
			c10.283,13.845,20.242,27.929,30.55,41.755c6.032,8.09,12.294,18.427,20.767,24.248c13.519,9.288,13.611-37.488,13.556-41.782
			c-0.18-14.158-1.453-28.334-3.65-42.318c-1.581-10.063-3.343-21.303-8.523-30.259
			C1484.385,309.11,1480.481,311.383,1481.942,313.909z"/>
	</g>
</g>
<g>
	<g>
		<path fill="#1D1B3A" d="M1438.842,474.864c-14.111-1.559-29.214-5.813-41.904-12.202c-2.671-1.345-5.027,2.667-2.348,4.016
			c13.496,6.795,29.255,11.182,44.251,12.837C1441.821,479.844,1441.79,475.189,1438.842,474.864L1438.842,474.864z"/>
	</g>
</g>
<path fill="#1D1B3A" stroke="#1D1B3A" stroke-width="5.9934" stroke-linecap="round" d="M1409.506,905.026
	c12.023,40.442-11.753,227.767-4.056,243.45c8.496,17.311,83.465,105.336,63.252,104.457c-51.809-2.253-74.591-74.386-71.658-70.62
	l-5.116,20.649h-11.425c0,0-7.186-44.673,5.371-54.687c3.789-3.035-24.14-186.131-10.639-239.096
	C1383.687,876.022,1398.083,866.601,1409.506,905.026z"/>
</svg>
