<?xml version="1.0" encoding="utf-8"?>
<!-- Generator: Adobe Illustrator 16.0.4, SVG Export Plug-In . SVG Version: 6.00 Build 0)  -->
<!DOCTYPE svg PUBLIC "-//W3C//DTD SVG 1.1//EN" "http://www.w3.org/Graphics/SVG/1.1/DTD/svg11.dtd">
<svg version="1.1" id="computer" xmlns="http://www.w3.org/2000/svg" xmlns:xlink="http://www.w3.org/1999/xlink" x="0px" y="0px"
	 width="3035.786px" height="1466.93px" viewBox="0 0 3035.786 1466.93" enable-background="new 0 0 3035.786 1466.93"
	 xml:space="preserve">
<g>
	<path fill="#EDEDEF" d="M1747.007,559.154l185.701-18.137l45.952-153.038l17,2.334l182.558,55.249
		c0,0-70.32,214.928-70.207,216.285c0.113,1.359-225.499,30.943-225.499,30.943l-129.58-115.361L1747.007,559.154z"/>
	<g>
		<g>
			<path fill="#CACBD5" d="M1882.136,676.975c-0.117-0.357-0.269-0.717-0.397-1.082c0.257-0.01,0.519-0.045,0.774-0.113
				C1882.393,676.182,1882.259,676.59,1882.136,676.975z"/>
			<path fill="#CACBD5" d="M2106.547,662.848l1.464-1c-0.319,0.012-0.81,0.039-1.465,0.08
				C2106.437,662.42,2106.421,662.75,2106.547,662.848z"/>
		</g>
		<polygon fill="#CACBD5" points="2086.263,633.414 2149.993,453.313 1983.412,404.75 1945.06,538.92 		"/>
		<g>
			<g>
				<path fill="#1D1B3A" d="M1747.007,561.45c57.591-6.852,115.44-14.133,173.342-17.675c4.113-0.252,8.237-0.476,12.359-0.462
					c2.961,0.01,2.96-4.582,0-4.592c-11.42-0.037-22.893,1.148-34.258,2.12c-17.596,1.505-35.169,3.272-52.735,5.092
					c-30.546,3.164-61.07,6.556-91.575,10.092c-2.377,0.275-4.755,0.551-7.132,0.833
					C1744.105,557.204,1744.071,561.799,1747.007,561.45L1747.007,561.45z"/>
			</g>
		</g>
		<g>
			<g>
				<path fill="#1D1B3A" d="M1976.5,388.136c-2.944,7.775-4.96,15.998-7.312,23.963c-4.547,15.4-9.041,30.816-13.565,46.223
					c-7.735,26.344-14.559,53.351-24.163,79.097c-0.36,0.965-0.409,1.175-0.825,1.932c-1.427,2.596,2.538,4.911,3.964,2.316
					c3.82-6.947,5.54-15.676,7.86-23.184c4.701-15.209,9.208-30.479,13.71-45.748c7.902-26.797,15.331-53.77,23.761-80.407
					c0.315-0.995,0.626-1.994,0.996-2.971C1981.978,386.582,1977.538,385.395,1976.5,388.136L1976.5,388.136z"/>
			</g>
		</g>
		<g>
			<g>
				<path fill="#1D1B3A" d="M1978.836,390.594c25.645,9.727,52.583,16.642,78.792,24.655c31.188,9.537,62.708,18.575,93.31,29.896
					c3.035,1.122,6.102,2.25,8.991,3.717c2.633,1.336,4.957-2.624,2.316-3.965c-8.916-4.525-18.876-7.366-28.328-10.509
					c-16.258-5.406-32.622-10.492-48.988-15.553c-31.453-9.728-63.07-18.968-94.398-29.096c-3.508-1.135-7.026-2.265-10.474-3.573
					C1977.283,385.114,1976.096,389.554,1978.836,390.594L1978.836,390.594z"/>
			</g>
		</g>
		<g>
			<g>
				<path fill="#1D1B3A" d="M1981.845,402.084c6.381,3.961,15.191,5.563,22.259,7.779c14.959,4.689,29.989,9.154,45.012,13.634
					c29.179,8.7,58.599,16.867,87.452,26.613c2.49,0.841,5.342,1.736,7.467,2.794c2.643,1.314,4.969-2.646,2.318-3.965
					c-7.615-3.788-16.387-5.85-24.466-8.365c-15.288-4.761-30.638-9.319-45.982-13.892c-28.528-8.5-57.361-16.389-85.511-26.098
					c-2.147-0.74-4.433-1.349-6.232-2.466C1981.639,396.554,1979.336,400.526,1981.845,402.084L1981.845,402.084z"/>
			</g>
		</g>
		<g>
			<g>
				<path fill="#1D1B3A" d="M1982.235,399.978c-1.743,7.79-4.502,15.454-6.828,23.081c-4.555,14.938-9.171,29.856-13.791,44.775
					c-7.266,23.464-14.797,46.859-21.812,70.399c-0.848,2.845,3.583,4.051,4.427,1.221c6.915-23.202,14.336-46.262,21.499-69.388
					c4.644-14.994,9.281-29.99,13.865-45.003c2.408-7.885,5.266-15.811,7.067-23.865
					C1987.307,398.314,1982.881,397.089,1982.235,399.978L1982.235,399.978z"/>
			</g>
		</g>
		<g>
			<g>
				<path fill="#1D1B3A" d="M1881.422,677.318c-5.404-7.306-13.481-13.146-20.302-19.023
					c-12.823-11.051-25.836-21.881-38.783-32.784c-14.034-11.819-28.044-23.671-41.795-35.82
					c-10.015-8.849-20.28-17.747-29.094-27.829c-1.217-1.393-2.38-2.83-3.371-4.395c-1.46-2.307-4.608-0.737-4.195,1.769
					c0.889,5.403,1.779,10.806,2.668,16.209c0.217,1.319,2.508,2.771,3.372,3.562c7.16,6.563,14.32,13.127,21.48,19.69
					c23.271,21.332,46.542,42.664,69.813,63.996c11.867,10.878,23.734,21.756,35.601,32.634c1.844,1.69,5.152-0.551,3.605-2.781
					c-0.645-0.931-0.059-5.839-0.06-7.425c-0.001-2.4,0.406-5.508-0.456-7.812c-1.028-2.746-5.467-1.558-4.427,1.221
					c0.913,2.439,0.292,6.065,0.292,8.627c0,2.098-0.606,5.842,0.686,7.705c1.202-0.927,2.403-1.854,3.605-2.781
					c-36.836-33.767-73.672-67.533-110.508-101.3c-5.683-5.209-11.365-10.418-17.048-15.627c-0.56-0.513-1.119-1.025-1.678-1.538
					c-1.097-1.006,0.263,1.305,0.042-0.037c-0.854-5.188-1.708-10.376-2.562-15.564c-1.398,0.59-2.797,1.18-4.195,1.769
					c5.692,8.99,14.656,16.345,22.406,23.465c12.911,11.86,26.267,23.24,39.634,34.58c13.744,11.659,27.585,23.203,41.336,34.853
					c9.244,7.831,18.72,15.557,27.326,24.1c0.833,0.827,2.211,2.272,2.642,2.854
					C1879.198,681.987,1883.186,679.701,1881.422,677.318L1881.422,677.318z"/>
			</g>
		</g>
		<g>
			<g>
				<path fill="#1D1B3A" d="M1878.246,678.685c7.537-0.385,15.097-1.709,22.567-2.71c14.457-1.938,28.901-3.973,43.345-6.001
					c34.556-4.851,69.102-9.793,103.71-14.263c14.437-1.864,29.583-4.918,44.198-4.646c2.962,0.055,2.957-4.536,0-4.592
					c-8.131-0.151-16.443,1.252-24.493,2.198c-14.819,1.742-29.611,3.723-44.398,5.72c-34.354,4.641-68.668,9.569-103.004,14.338
					c-13.852,1.924-27.937,4.65-41.925,5.363C1875.3,674.243,1875.286,678.835,1878.246,678.685L1878.246,678.685z"/>
			</g>
		</g>
		<g>
			<g>
				<path fill="#1D1B3A" d="M1929.827,542.451c19.15,11.375,37.35,24.671,55.901,36.983c27.541,18.28,55.057,36.635,83.052,54.218
					c6.992,4.392,14.132,9.566,21.84,12.661c2.75,1.104,3.932-3.339,1.221-4.428c-6.816-2.736-14.708-8.406-21.389-12.603
					c-13.122-8.242-26.102-16.711-39.063-25.2c-27.213-17.823-54.264-35.892-81.366-53.883c-5.921-3.93-11.765-8.082-17.877-11.714
					C1929.592,536.971,1927.285,540.94,1929.827,542.451L1929.827,542.451z"/>
			</g>
		</g>
		<g>
			<g>
				<path fill="#1D1B3A" d="M2084.699,629.057c-6.806-2.927-13.154-7.877-19.363-11.843c-12.797-8.176-25.513-16.479-38.223-24.79
					c-25.074-16.396-50.056-32.933-75.124-49.337c-2.959-1.938-5.878-4.04-8.961-5.78c-2.582-1.457-4.895,2.51-2.317,3.965
					c5.99,3.381,11.644,7.532,17.387,11.305c12.445,8.175,24.878,16.367,37.321,24.545c25.42,16.707,50.767,33.563,76.542,49.723
					c3.356,2.104,6.766,4.604,10.422,6.178C2085.07,634.178,2087.412,630.224,2084.699,629.057L2084.699,629.057z"/>
			</g>
		</g>
		<g>
			<g>
				<path fill="#1D1B3A" d="M2089.875,631.471c-0.107,0.994,0.271-1.029,0.371-1.413c0.359-1.377,0.758-2.744,1.156-4.111
					c1.261-4.329,2.595-8.637,3.933-12.942c4.163-13.398,8.467-26.752,12.802-40.095c9.987-30.739,20.125-61.443,30.913-91.912
					c2.312-6.527,4.652-13.046,7.16-19.501c0.747-1.922,1.508-3.841,2.351-5.724c0.269-0.6,0.552-1.193,0.859-1.774
					c0.335-0.634,0.359-0.594,0.307-0.541c2.091-2.1-1.155-5.347-3.246-3.246c-1.439,1.445-2.149,3.807-2.914,5.634
					c-1.637,3.91-3.12,7.885-4.589,11.86c-4.746,12.847-9.188,25.808-13.604,38.771c-10.483,30.768-20.641,61.65-30.478,92.631
					c-2.34,7.369-4.662,14.745-6.89,22.149c-0.994,3.302-2.349,6.763-2.72,10.215
					C2084.967,634.413,2089.562,634.382,2089.875,631.471L2089.875,631.471z"/>
			</g>
		</g>
		<g>
			<g>
				<path fill="#1D1B3A" d="M1977.555,388.897c5.998,2.829,13.076,1.438,19.159,3.887c2.948,1.187,5.988,2.161,9,3.169
					c11.864,3.97,23.811,7.697,35.747,11.442c31.766,9.967,63.597,19.723,95.379,29.642c8.793,2.744,17.584,5.496,26.353,8.318
					c3.879,1.248,9.859,2.993,12.643,4.273c2.67,1.228,5.004-2.729,2.316-3.965c-6.257-2.877-13.229-4.584-19.77-6.664
					c-13.66-4.345-27.353-8.587-41.043-12.835c-31.167-9.67-62.37-19.226-93.46-29.137c-7.157-2.282-14.317-4.563-21.416-7.021
					c-1.46-0.506-4.135-1.468-4.855-1.787c-5.496-2.438-12.287-0.718-17.735-3.288
					C1977.21,383.678,1974.878,387.635,1977.555,388.897L1977.555,388.897z"/>
			</g>
		</g>
		<g>
			<g>
				<path fill="#1D1B3A" d="M2161.71,448.403c-1.575,6.973-4.343,13.798-6.679,20.535c-4.59,13.247-9.322,26.445-14.062,39.64
					c-11.299,31.458-22.76,62.857-34.106,94.297c-3.729,10.331-7.455,20.664-11.092,31.027c-1.424,4.058-4.307,9.302-4.383,13.709
					c-0.051,2.962,4.54,2.957,4.591,0c-0.017,0.979,0.153-0.422,0.291-0.881c0.347-1.155,0.731-2.3,1.114-3.444
					c1.279-3.825,2.623-7.629,3.966-11.433c4.385-12.42,8.87-24.806,13.349-37.192c11.414-31.559,22.914-63.086,34.22-94.684
					c3.918-10.951,7.82-21.909,11.607-32.906c1.974-5.728,4.273-11.524,5.612-17.447
					C2166.789,446.74,2162.363,445.516,2161.71,448.403L2161.71,448.403z"/>
			</g>
		</g>
		<g>
			<g>
				<path fill="#1D1B3A" d="M1879.931,695.627c4.948,0.479,10.899-1.271,15.773-1.917c12.541-1.663,25.074-3.383,37.609-5.095
					c34.072-4.652,68.141-9.325,102.24-13.777c14.862-1.94,29.729-3.847,44.616-5.586c8.53-0.996,17.166-2.251,25.764-2.462
					c2.955-0.073,2.962-4.664,0-4.592c-8.122,0.2-16.273,1.368-24.333,2.297c-14.377,1.658-28.734,3.501-43.085,5.366
					c-33.962,4.413-67.893,9.064-101.825,13.699c-13.274,1.813-26.547,3.636-39.827,5.404c-5.228,0.696-11.625,2.585-16.932,2.07
					C1876.984,690.75,1877.012,695.344,1879.931,695.627L1879.931,695.627z"/>
			</g>
		</g>
		<g>
			<g>
				<path fill="#1D1B3A" d="M2108.699,662c0.911,1.107,0.43,1.867,0.714,0.495c0.23-1.11,0.542-2.206,0.851-3.296
					c1.001-3.537,2.148-7.035,3.293-10.527c3.734-11.381,7.701-22.686,11.654-33.991c10.624-30.379,21.428-60.694,31.809-91.157
					c5.997-17.598,11.985-35.232,17.104-53.109c1.46-5.099,2.922-10.252,3.786-15.491c0.431-2.614,1.232-6.593-1.878-7.84
					c-2.751-1.102-3.934,3.34-1.221,4.428c-1.409-0.565-1.091-1.624-1.091-0.291c0,1.125-0.163,2.062-0.347,3.128
					c-0.635,3.686-1.606,7.317-2.583,10.924c-3.148,11.63-6.896,23.104-10.656,34.547c-10.055,30.592-20.83,60.946-31.514,91.321
					c-6.01,17.087-12.067,34.159-17.835,51.33c-1.692,5.038-3.38,10.084-4.858,15.189c-0.625,2.162-2.118,5.588-0.475,7.587
					C2107.334,667.535,2110.563,664.268,2108.699,662L2108.699,662z"/>
			</g>
		</g>
		<g>
			<g>
				<path fill="#1D1B3A" d="M2164.933,449.538c3.092-0.208,5.797,1.188,8.896,1.311c2.962,0.116,2.95-4.475,0-4.592
					c-1.49-0.059-2.752-0.37-4.145-0.864c-1.519-0.538-3.164-0.553-4.751-0.446C2161.995,445.144,2161.976,449.736,2164.933,449.538
					L2164.933,449.538z"/>
			</g>
		</g>
		<g>
			<g>
				<path fill="#1D1B3A" d="M1982.295,591.428c12.951,9.298,26.502,17.811,39.761,26.658c7.691,5.133,15.374,10.279,22.978,15.541
					c3.687,2.552,8.629,5.102,11.522,8.621c0.541-1.307,1.082-2.612,1.623-3.919c-8.776,0.278-17.56,1.595-26.256,2.729
					c-2.763,0.36-5.525,0.733-8.285,1.119c1.547-0.216-2.31-2.388-3.194-3.011c-2.467-1.737-4.887-3.542-7.298-5.356
					c-18.811-14.157-36.324-29.974-55.229-44.005c-0.386,1.426-0.772,2.852-1.159,4.278c8.898-0.781,17.796-1.562,26.694-2.342
					c2.925-0.257,2.951-4.851,0-4.592c-8.898,0.781-17.796,1.562-26.694,2.342c-2.365,0.208-3.016,2.899-1.159,4.278
					c19.264,14.297,37.138,30.389,56.31,44.817c2.051,1.544,4.127,3.054,6.218,4.543c1.511,1.077,3.973,3.584,5.926,3.584
					c2.257,0,4.679-0.644,6.905-0.938c9.012-1.193,18.124-2.566,27.22-2.854c2.124-0.067,2.875-2.396,1.623-3.919
					c-2.794-3.398-7.516-5.896-11.069-8.378c-7.734-5.401-15.583-10.639-23.426-15.879c-13.565-9.062-27.44-17.766-40.694-27.282
					C1982.203,585.732,1979.914,589.718,1982.295,591.428z"/>
			</g>
		</g>
		<g>
			<g>
				<path fill="#1D1B3A" d="M1978.961,581.509c-6.963-4.326-13.672-9.041-20.547-13.503c-3.52-2.283-4.729-2.027-8.709-1.78
					c-7.065,0.439-14.13,0.879-21.195,1.318c-2.189,0.136-2.701,2.657-1.055,3.893c6.431,4.826,12.446,10.178,18.836,15.058
					c3.316,2.532,4.833,1.874,8.798,1.436c7.605-0.843,15.211-1.686,22.817-2.528c2.647-0.293,2.676-4.475,0-4.178
					c-7.054,0.781-14.107,1.562-21.161,2.344c-1.672,0.186-3.345,0.37-5.018,0.556c-2.167,0.24-1.512,0.112-3.328-1.237
					c-6.452-4.795-12.404-10.23-18.835-15.057c-0.352,1.298-0.703,2.595-1.055,3.893c6.52-0.405,13.039-0.811,19.558-1.216
					c1.625-0.101,3.251-0.201,4.877-0.303c1.858-0.115,1.583,0.275,3.36,1.411c6.906,4.414,13.583,9.176,20.546,13.502
					C1979.147,586.543,1981.244,582.927,1978.961,581.509z"/>
			</g>
		</g>
		<g>
			<g>
				<path fill="#1D1B3A" d="M1948.882,559.928c-4.909-3.303-9.872-6.524-14.69-9.959c-2.799-1.996-4.304-4.157-7.739-3.834
					c-3.697,0.349-7.396,0.684-11.095,1.002c-1.985,0.17-3.972,0.331-5.959,0.473c-1.195,0.085-3.472-0.435-1.908,0.396
					c-2.135-1.135-4.767,1.874-2.7,3.499c5.543,4.357,10.05,9.847,15.597,14.201c1.654,1.299,4.675,0.379,6.574,0.211
					c6.932-0.612,13.864-1.226,20.796-1.838c2.839-0.251,2.863-4.708,0-4.455c-6.07,0.536-12.14,1.072-18.209,1.608
					c-2.512,0.223-5.023,0.444-7.536,0.666c-0.045,0.004-4.821-5.007-5.681-5.854c-2.711-2.671-5.394-5.335-8.391-7.69
					c-0.9,1.166-1.8,2.333-2.7,3.499c1.741,0.925,4.648,0.18,6.481,0.038c4.25-0.329,8.494-0.723,12.738-1.115
					c1.107-0.103,2.214-0.206,3.32-0.312c0.889-0.084-0.089,0.14-0.289-0.026c1.081,0.903,2.225,1.738,3.354,2.579
					c5.105,3.805,10.507,7.205,15.787,10.758C1949.025,565.384,1951.252,561.522,1948.882,559.928z"/>
			</g>
		</g>
		<g>
			<g>
				<path fill="#1D1B3A" d="M2014.638,644.432c-17.796-13.866-35.382-28.032-52.767-42.409c-3.628-3.001-7.244-6.019-10.791-9.116
					c-2.585-2.258-3.437-2.274-6.696-1.852c-7.744,1.004-15.488,2.007-23.231,3.011c-1.857,0.241-3.204,2.375-1.623,3.919
					c17.55,17.145,37.721,31.415,55.264,48.586c2.151,2.106,4.226,5.826,7.413,6.197c3.266,0.38,6.928-0.519,10.149-0.966
					c7.116-0.988,14.205-2.226,21.269-3.533c2.909-0.539,1.673-4.963-1.221-4.428c-6.445,1.193-12.91,2.294-19.392,3.263
					c-3.433,0.514-6.958,1.119-10.441,1.092c-0.918-0.008,1.276,1.314-0.044-0.192c-0.774-0.884-1.589-1.731-2.402-2.579
					c-1.679-1.749-3.435-3.425-5.196-5.091c-16.779-15.866-35.634-29.458-52.152-45.595c-0.541,1.306-1.082,2.612-1.623,3.919
					c7.514-0.975,15.027-1.948,22.542-2.923c1.185-0.153,2.37-0.307,3.556-0.461c1.101-0.143-1.627-1.086-0.37,0.037
					c0.664,0.593,1.336,1.177,2.008,1.76c3.747,3.253,7.574,6.414,11.4,9.573c16.843,13.903,33.874,27.61,51.103,41.034
					C2013.697,649.475,2016.971,646.25,2014.638,644.432z"/>
			</g>
		</g>
		<g>
			<g>
				<path fill="#1D1B3A" d="M1943.191,585.36c-5.492-3.932-10.936-7.929-16.392-11.908c-3.271-2.386-5.337-4.794-9.367-4.23
					c-6.487,0.906-12.973,1.812-19.46,2.719c-1.514,0.212-2.054,2.556-0.922,3.492c5.501,4.552,10.973,9.14,16.451,13.719
					c2.907,2.431,3.597,2.355,7.12,2.038c7.172-0.646,14.344-1.291,21.517-1.937c2.661-0.239,2.685-4.42,0-4.178
					c-6.383,0.574-12.766,1.148-19.148,1.723c-1.415,0.127-2.829,0.255-4.243,0.382c-2.084,0.188-0.812,0.253-2.29-0.982
					c-5.479-4.579-10.949-9.168-16.45-13.72c-0.308,1.164-0.615,2.328-0.922,3.492c6.056-0.846,12.111-1.692,18.167-2.538
					c0.975-0.137,1.95-0.272,2.926-0.409c-0.911,0.128,3.761,3.489,4.515,4.038c5.459,3.976,10.9,7.976,16.392,11.907
					C1943.278,590.54,1945.361,586.914,1943.191,585.36z"/>
			</g>
		</g>
		<g>
			<g>
				<path fill="#1D1B3A" d="M1914.603,563.799c-5.602-4.627-11.703-8.624-16.948-13.674c-0.754-0.726-1.867-0.874-2.782-0.359
					c-0.214,0.121-0.428,0.241-0.642,0.361c-1.977,1.113-1.125,4.328,1.159,4.278c0.026-0.001,0.053-0.002,0.079-0.002
					c2.956-0.065,2.965-4.602,0-4.591c-3.832,0.014-7.669,0.164-11.498,0.309c-2.971,0.112-8.271-0.547-10.761,1.481
					c-0.597,0.485-0.82,1.523-0.59,2.233c0.653,2.02,3.27,3.689,4.735,5.125c3.208,3.145,6.415,6.288,9.624,9.432
					c2.49,2.439,3.563,1.952,6.778,1.575c6.408-0.75,12.816-1.5,19.224-2.25c2.904-0.341,2.937-4.936,0-4.592
					c-5.28,0.618-10.561,1.237-15.841,1.855c-2.315,0.271-4.631,0.542-6.947,0.812c0.267-0.031-4.729-5.313-5.467-6.036
					c-1.375-1.348-2.75-2.695-4.124-4.043c-0.52-0.51-3.387-2.581-3.554-3.1c-0.197,0.744-0.394,1.488-0.59,2.233
					c-1.274,1.037,1.219,0.201,2.337,0.123c2.345-0.165,4.696-0.245,7.045-0.327c3.207-0.113,6.421-0.229,9.63-0.241
					c0-1.53,0-3.061,0-4.591c-0.026,0-0.052,0.001-0.079,0.001c0.386,1.427,0.772,2.853,1.159,4.278
					c0.214-0.121,0.428-0.241,0.642-0.361c-0.927-0.12-1.854-0.239-2.782-0.359c5.25,5.054,11.343,9.045,16.948,13.674
					C1913.62,568.915,1916.887,565.686,1914.603,563.799z"/>
			</g>
		</g>
		<g>
			<g>
				<path fill="#1D1B3A" d="M1811.993,582.797c3.456,3.837,7.736,7.069,11.659,10.4c7.202,6.115,14.476,12.146,21.722,18.208
					c7.219,6.038,14.434,12.085,21.525,18.272c3.383,2.951,8.776,6.519,10.929,10.438c0.457-1.124,0.915-2.248,1.372-3.372
					c-8.801,1.328-17.602,2.656-26.402,3.984c0.745,0.197,1.489,0.394,2.233,0.591c-24.162-19.677-48.325-39.353-72.487-59.029
					c-0.541,1.306-1.082,2.612-1.623,3.919c5.149,0.64,10.688-0.188,15.827-0.588c5.287-0.413,10.737-0.688,15.949-1.725
					c2.902-0.577,1.67-5.002-1.221-4.428c-4.811,0.957-9.85,1.166-14.729,1.561c-5.133,0.416-10.684,1.228-15.827,0.588
					c-1.945-0.241-3.107,2.711-1.623,3.919c17.668,14.389,35.337,28.776,53.005,43.164c6.48,5.277,12.959,10.554,19.439,15.83
					c2.445,1.991,9.433-0.454,12.13-0.861c5.517-0.832,11.033-1.665,16.549-2.497c1.522-0.23,2.017-2.198,1.372-3.372
					c-2.212-4.027-7.024-7.297-10.384-10.261c-6.936-6.117-14.036-12.048-21.125-17.986c-7.347-6.155-14.722-12.278-22.043-18.464
					c-4.368-3.691-9.161-7.273-13.001-11.537C1813.254,577.347,1810.018,580.604,1811.993,582.797L1811.993,582.797z"/>
			</g>
		</g>
		<g>
			<g>
				<path fill="#1D1B3A" d="M1910.559,659.859c-4.638-5.617-9.874-11.162-15.396-15.916c-0.541,1.307-1.082,2.612-1.623,3.919
					c12.972-1.406,25.951-2.862,38.954-3.947c2.25-0.188,3.165-2.996,1.159-4.278c-7.22-4.614-11.066-12.891-17.454-18.346
					c-0.541,1.307-1.082,2.612-1.623,3.919c7.713-0.8,14.947-4.021,22.743-4.072c-0.661-0.38-1.321-0.759-1.982-1.138
					c1.13,2.432,3.633,4.467,5.511,6.293c3.611,3.51,7.402,6.838,11.188,10.157c6.578,5.767,13.358,11.301,19.931,17.071
					c0.541-1.307,1.082-2.612,1.623-3.919c-7.956,0.239-16.333,2.916-24.145,4.287c-13.39,2.351-26.949,4.608-40.561,5.023
					c-2.954,0.091-2.962,4.682,0,4.592c13.166-0.402,26.286-2.543,39.249-4.75c5.619-0.956,11.223-1.995,16.826-3.043
					c2.75-0.514,5.99-1.438,8.63-1.518c1.879-0.057,3.201-2.534,1.623-3.919c-6.019-5.284-12.217-10.365-18.265-15.618
					c-3.921-3.405-7.811-6.852-11.596-10.409c-1.991-1.872-4.871-4.023-6.052-6.564c-0.33-0.71-1.234-1.143-1.982-1.138
					c-7.86,0.052-15.004,3.271-22.743,4.072c-1.781,0.185-3.309,2.479-1.623,3.919c6.711,5.731,10.777,14.203,18.382,19.064
					c0.386-1.426,0.772-2.852,1.159-4.278c-13.003,1.086-25.982,2.542-38.954,3.947c-1.782,0.193-3.307,2.47-1.623,3.919
					c5.521,4.755,10.758,10.299,15.396,15.916C1909.199,665.391,1912.428,662.123,1910.559,659.859L1910.559,659.859z"/>
			</g>
		</g>
		<g>
			<g>
				<path fill="#1D1B3A" d="M1879.886,595.739c-4.292-3.895-8.918-7.377-13.493-10.927c-2.806-2.178-6.571-7.241-10.326-7.065
					c-8.865,0.413-17.777,0.692-26.597,1.727c-1.564,0.183-3.08,2.28-1.478,3.566c6.209,4.98,12.419,9.962,18.628,14.942
					c3.239,2.599,3.973,3.13,8.438,2.805c7.778-0.565,15.575-0.848,23.349-1.481c2.666-0.217,2.688-4.397,0-4.178
					c-7.306,0.595-14.631,0.91-21.945,1.385c-1.348,0.087-2.694,0.189-4.04,0.295c-0.342,0.026,0.736,1.095-0.292,0.271
					c-1.252-1.004-2.504-2.008-3.756-3.013c-5.809-4.66-11.619-9.32-17.428-13.98c-0.493,1.189-0.985,2.378-1.478,3.566
					c8.066-0.945,16.213-1.241,24.321-1.62c4.302-0.201,7.748,4.262,11.049,6.824c4.11,3.188,8.235,6.34,12.09,9.839
					C1878.921,600.5,1881.885,597.554,1879.886,595.739z"/>
			</g>
		</g>
		<g>
			<g>
				<path fill="#1D1B3A" d="M1882.689,600.751c-8.839,1.164-17.87,1.162-26.746,2.066c-1.831,0.188-3.247,2.444-1.623,3.919
					c3.102,2.818,6.203,5.637,9.305,8.455c2.145,1.949,4.289,3.897,6.433,5.846c0.851,0.773,1.988,2.219,3.16,2.542
					c3.328,0.915,8.609-0.694,11.97-1.021c4.435-0.43,8.87-0.86,13.305-1.29c1.611-0.157,3.018-1.869,1.982-3.454
					c-4.061-6.218-11.688-9.638-15.803-15.926c-1.613-2.467-5.59-0.169-3.964,2.316c2.151,3.288,5.179,5.964,8.036,8.621
					c2.422,2.252,5.942,4.512,7.767,7.305c0.661-1.151,1.321-2.303,1.982-3.454c-8.205,0.796-16.409,1.592-24.614,2.388
					c1.096-0.105,2.106,1.162,0.991,0.148c-0.693-0.629-1.385-1.259-2.078-1.888c-1.973-1.793-3.947-3.587-5.92-5.38
					c-3.102-2.818-6.203-5.637-9.305-8.455c-0.541,1.306-1.082,2.612-1.623,3.919c8.876-0.905,17.907-0.903,26.746-2.066
					C1885.581,604.962,1885.618,600.366,1882.689,600.751z"/>
			</g>
		</g>
		<g>
			<g>
				<path fill="#1D1B3A" d="M1903.266,621.909c-7.36,1.311-14.873,2.741-22.361,2.9c-1.837,0.04-2.972,2.384-1.542,3.723
					c2.659,2.487,5.318,4.976,7.977,7.463c1.708,1.599,3.501,4.259,6.055,4.015c7.287-0.695,14.573-1.392,21.859-2.087
					c1.437-0.138,2.989-1.826,1.883-3.281c-3.406-4.478-8.204-7.78-11.75-12.172c-1.767-2.188-4.833,0.918-3.083,3.084
					c3.303,4.089,7.908,7.134,11.068,11.289c0.628-1.094,1.255-2.188,1.883-3.281c-6.97,0.666-13.939,1.332-20.909,1.997
					c-2.284,0.219-1.181-0.082-0.459,0.593c-1.154-1.079-2.309-2.159-3.463-3.239c-2.659-2.488-5.318-4.976-7.978-7.464
					c-0.514,1.241-1.028,2.481-1.542,3.723c7.865-0.169,15.791-1.681,23.52-3.057C1907.19,625.622,1906.015,621.42,1903.266,621.909
					z"/>
			</g>
		</g>
		<g>
			<g>
				<path fill="#1D1B3A" d="M1849.898,571.953c-4.48-4.703-9.288-9.064-14.221-13.285c-2.499-2.139-3.562-3.426-6.873-3.079
					c-8.465,0.886-17.924,1.627-26.389,0.492c-1.95-0.261-3.097,2.718-1.623,3.919c5.885,4.8,11.771,9.6,17.656,14.399
					c1.499,1.223,3.71,3.87,5.846,3.537c7.922-1.235,15.985-1.584,23.98-2.064c2.941-0.178,2.958-4.77,0-4.592
					c-8.412,0.507-16.866,0.929-25.201,2.229c0.745,0.197,1.489,0.394,2.233,0.591c-7.089-5.782-14.179-11.563-21.269-17.346
					c-0.541,1.306-1.082,2.612-1.623,3.919c4.734,0.634,9.698,0.272,14.454,0.143c4.814-0.132,9.836-0.101,14.587-0.992
					c-0.745-0.197-1.489-0.394-2.233-0.591c6.105,4.974,11.997,10.265,17.429,15.967
					C1848.698,577.347,1851.939,574.096,1849.898,571.953z"/>
			</g>
		</g>
		<g>
			<g>
				<path fill="#1D1B3A" d="M1911.635,589.979c-3.197-2.807-6.631-5.327-10.041-7.866c-3.664-2.729-7.204-6.494-11.11-8.782
					c-2.574-1.508-9.351,0.39-12.225,0.643c-4.792,0.423-9.592,0.834-14.405,0.895c-1.707,0.021-2.92,2.335-1.478,3.566
					c6.501,5.548,13.002,11.096,19.503,16.644c2.585,2.206,7.591,0.533,10.695,0.21c5.852-0.609,11.711-1.343,17.583-1.742
					c2.673-0.182,2.691-4.361,0-4.178c-5.128,0.349-10.245,0.978-15.356,1.51c-2.663,0.276-5.326,0.556-7.989,0.828
					c-0.833,0.086-1.667,0.169-2.501,0.249c0.768-0.074,1.531,1.027,0.224-0.088c-6.401-5.463-12.802-10.925-19.202-16.388
					c-0.493,1.189-0.985,2.378-1.478,3.566c4.292-0.053,8.571-0.398,12.847-0.759c2.041-0.172,4.081-0.358,6.121-0.539
					c1.074-0.095,5.19-1.082,6.035-0.323c6.245,5.611,13.514,9.972,19.822,15.51
					C1910.696,594.704,1913.663,591.761,1911.635,589.979z"/>
			</g>
		</g>
		<g>
			<g>
				<path fill="#1D1B3A" d="M1913.922,596.612c-7.682,0.713-15.271,2.163-22.94,2.98c-1.896,0.202-3.161,2.391-1.623,3.919
					c4.516,4.487,9.031,8.974,13.547,13.461c1.298,1.289,2.461,3.071,4.49,2.774c2.786-0.408,5.568-0.845,8.347-1.295
					c3.812-0.617,7.625-1.262,11.399-2.086c1.767-0.386,4.309-0.738,4.933-2.741c0.717-2.306-3.105-4.312-4.532-5.522
					c-4.103-3.478-8.198-7.006-11.997-10.817c-2.092-2.099-5.338,1.147-3.246,3.246c3.001,3.011,6.206,5.814,9.413,8.601
					c1.83,1.59,5.628,4.477,6.525,5.506c-0.197-0.744-0.394-1.489-0.59-2.233c0.494-1.586,1.3-1.231-0.468-0.764
					c-0.901,0.238-1.817,0.422-2.729,0.612c-2.678,0.56-5.378,1.013-8.075,1.467c-3.411,0.573-6.828,1.106-10.25,1.607
					c0.745,0.197,1.489,0.394,2.233,0.591c-5.251-5.218-10.502-10.435-15.753-15.652c-0.541,1.306-1.082,2.612-1.623,3.919
					c7.669-0.818,15.259-2.269,22.94-2.98C1916.844,600.933,1916.871,596.339,1913.922,596.612z"/>
			</g>
		</g>
		<g>
			<g>
				<path fill="#1D1B3A" d="M1883.062,567.318c-4.591-4.833-9.606-9.176-15.016-13.065c-1.937-1.394-2.949-1.912-5.291-1.812
					c-6.743,0.286-13.486,0.573-20.229,0.859c-1.923,0.082-3.141,2.482-1.623,3.919c4.459,4.222,8.919,8.443,13.379,12.665
					c1.145,1.083,3.126,3.809,4.932,3.805c7.494-0.019,14.782-1.843,22.225-2.451c2.929-0.24,2.953-4.833,0-4.592
					c-6.329,0.518-12.547,1.876-18.877,2.373c-2.185,0.172-1.344,1.11-2.648-0.124c-0.995-0.941-1.99-1.884-2.984-2.825
					c-4.26-4.032-8.519-8.064-12.779-12.097c-0.541,1.306-1.082,2.612-1.623,3.919c6.077-0.259,12.153-0.518,18.229-0.775
					c1.11-0.048,2.221-0.095,3.332-0.142c0.868-0.037,0.116,0.171-0.603-0.289c0.532,0.34,1.05,0.7,1.57,1.058
					c5.38,3.704,10.268,8.093,14.761,12.821C1881.859,572.715,1885.1,569.463,1883.062,567.318z"/>
			</g>
		</g>
	</g>
	<g>
		<g>
			<path fill="#1D1B3A" d="M1760.821,566.632c8.016,0.088,16.011-0.903,24.026-1.02c7.522-0.109,14.601,7.456,20.84,11.38
				c0.386-1.426,0.772-2.852,1.159-4.278c-9.787,1.079-19.536,2.951-29.358,3.653c-1.268,0.091-0.509-0.343,0.197,0.361
				c-0.416-0.414-0.914-0.763-1.375-1.121c-1.619-1.254-3.301-2.425-4.976-3.602c-2.437-1.714-8.248-4.39-9.454-7.215
				c-1.159-2.716-5.113-0.374-3.964,2.316c1.249,2.927,6.011,5.277,8.453,7.003c2.865,2.024,6.214,5.506,9.465,6.767
				c3.093,1.199,8.966-0.731,12.073-1.143c6.31-0.835,12.612-1.732,18.939-2.429c2.202-0.243,3.219-2.982,1.159-4.278
				c-3.527-2.217-6.981-4.525-10.365-6.955c-3.028-2.174-5.387-4.865-9.213-5.016c-9.22-0.36-18.393,1.086-27.604,0.983
				C1757.859,562.008,1757.863,566.599,1760.821,566.632L1760.821,566.632z"/>
		</g>
	</g>
	<g>
		<g>
			<path fill="#1D1B3A" d="M1859.78,647.432c-0.707,0.4-1.041,0.926-1.33,1.663c-0.521,1.329,0.561,2.833,1.812,3.191
				c3.229,0.927,8.432-1.068,11.589-1.672c4.229-0.808,8.453-1.651,12.671-2.513c-0.842-0.223-1.683-0.445-2.524-0.667
				c5.819,5.378,11.639,10.756,17.458,16.135c0.381-1.446,0.763-2.892,1.145-4.337c-7.822,1.115-15.645,2.229-23.467,3.344
				c0.842,0.223,1.683,0.445,2.524,0.667c-5.578-5.135-11.157-10.271-16.735-15.406c-2.457-2.262-6.136,1.398-3.669,3.67
				c2.909,2.678,5.817,5.355,8.726,8.033c2.339,2.153,5.934,7.154,9.154,8.04c3.315,0.912,8.855-1.065,12.136-1.533
				c4.237-0.604,8.474-1.207,12.71-1.811c1.951-0.278,2.459-3.121,1.145-4.337c-2.91-2.688-5.819-5.378-8.729-8.067
				c-2.871-2.652-5.854-6.481-9.254-8.473c-2.438-1.429-8.575,1.062-11.01,1.541c-2.676,0.526-5.354,1.039-8.037,1.531
				c-1.178,0.216-2.358,0.42-3.54,0.613c-0.403,0.065-1.831-0.025-0.914,0.238c0.604,1.063,1.208,2.127,1.812,3.191
				c-0.352,0.479-0.704,0.958-1.055,1.438C1865.309,650.262,1862.695,645.779,1859.78,647.432z"/>
		</g>
	</g>
</g>
</svg>
