<?xml version="1.0" encoding="utf-8"?>
<!-- Generator: Adobe Illustrator 16.0.4, SVG Export Plug-In . SVG Version: 6.00 Build 0)  -->
<!DOCTYPE svg PUBLIC "-//W3C//DTD SVG 1.1//EN" "http://www.w3.org/Graphics/SVG/1.1/DTD/svg11.dtd">
<svg version="1.1" id="desk" xmlns="http://www.w3.org/2000/svg" xmlns:xlink="http://www.w3.org/1999/xlink" x="0px" y="0px"
	 width="3035.786px" height="1466.93px" viewBox="0 0 3035.786 1466.93" enable-background="new 0 0 3035.786 1466.93"
	 xml:space="preserve">
<polygon fill="#8A8C99" points="3035.786,1178.93 1877.786,1184.93 1657.786,1024.93 1641.786,544.93 3035.786,530.93 "/>
<polygon fill="#B7B6C0" points="3035.786,730.93 1881.786,742.93 1643.536,544.43 3035.786,530.679 "/>
<g>
	<g>
		<path fill="#CACBD5" d="M2601.314,462.19c-0.796-2.033-1.742-3.943-2.857-5.66l1.668-1.426c1.915-9.938-0.957-24.445-7.397-35.355
			c0.386-0.172,0.791-0.328,1.166-0.51l1.875-1.309c3.263-10.934,1.061-28.227-6.046-40.084c2.105-0.646,4.102-1.396,5.957-2.268
			l1.892-1.287c3.268-10.465,1.565-26.857-4.737-38.717c2.628-1.17,4.438-2.51,4.623-3.947l-0.58-0.09
			c4.748-5.955,4.878-30.74-4.897-42.115c-0.891-1.035-1.753-2.014-2.605-2.943c2.247-1.643,3.675-3.281,3.557-4.697l-0.586,0.029
			c0.231-0.463,0.42-1.014,0.573-1.629c7.174,2.855,22.425,1.547,18.96-13.051c-1.941-8.176-19.023-13.918-26.051-17.244
			c-1.998-3.297-4.372-6.195-7.113-8.293c-10.469-8.018-17.431-11.619-34.953-8.625c-19.44,3.318-20.883,6.564-28.841,15.814
			c-10.447,12.148-10.756,36.883-4.165,49.896l2.081,0.965c1.144,0.326,2.337,0.592,3.555,0.828
			c-4.023,10.441-5.132,22.57-2.891,31.047l1.832,1.363c0.676,0.355,1.392,0.676,2.105,1c-0.525,0.936-1.01,1.912-1.458,2.924
			c-7.05,4.598-20.87,12.426-21.387,20.227c-0.882,13.307,11.1,13.857,18.403,11.023c0.357,1.092,0.781,2.01,1.276,2.689
			l-0.584,0.064c0.113,1.346,1.645,2.666,3.936,3.877c-9.134,11.574-9.589,34.838-5.192,40.719l-0.582,0.072
			c0.162,1.68,2.531,3.293,5.841,4.691c-1.178,1.961-2.126,4.166-2.866,6.516c-6.492,5.336-19.348,14.613-18.986,22.422
			c0.617,13.32,12.586,12.572,19.527,8.965c0.478,1.045,1.002,1.912,1.57,2.533l-0.571,0.129c0.285,1.434,2.211,2.658,4.948,3.656
			c-4.253,10.6,4.261,71.469,6.553,80.139l-1.718,5.168c14.654,7.672,38.727,7.928,57.042,7.164
			c7.762-0.322,24.496-3.885,25.082-8.422l-0.58-0.09c0.524-0.658,0.989-1.557,1.394-2.631c7.173,3.143,12.992-49.076,12.701-62.408
			C2621.614,475.497,2608.155,467.087,2601.314,462.19z M2602.062,270.22c-1.372,4.35-5.948,1.387-9.071,0.32
			c-0.389-2.848-1.072-5.939-2.04-9.053C2596.247,262.915,2603.342,266.165,2602.062,270.22z M2504.791,358.505
			c-1.709-3.346,3.113-7.121,7.696-9.516c-0.534,3.312-0.774,6.596-0.749,9.605C2509.208,360.155,2506.41,361.677,2504.791,358.505z
			 M2506.139,449.466c-2.073-3.141,2.294-7.416,6.581-10.291c-0.159,3.352-0.03,6.639,0.333,9.629
			C2510.713,450.628,2508.104,452.442,2506.139,449.466z M2611.531,484.347c-1.757,3.098-5.381-4.328-7.84-5.996
			c0.158-3.008,0.959-0.508,0.572-3.84C2608.738,477.099,2613.387,481.077,2611.531,484.347z"/>
	</g>
</g>
<g>
	<g>
		<g>
			<g>
				<path fill="#CACBD5" d="M2682.413,567.741c3.895-14.996-1.858-40.729-15.232-51.145c-10.188-7.93-12.38-11.002-33.028-10.268
					c-18.612,0.66-24.955,5.92-33.919,16.543c-10.238,12.123-10.101,38.543-5.129,44.889l-0.607,0.098
					c0.613,4.836,18.137,8.633,26.265,8.977c19.179,0.814,44.387,0.541,59.731-7.639"/>
				<g>
					<path fill="#8A8899" d="M2684.221,568.239c3.759-15.577-0.408-35.5-10.674-47.919c-4.136-5.004-10.017-9.689-15.784-12.741
						c-6.588-3.484-14.607-3.33-21.836-3.18c-8.535,0.178-17.167,1.227-24.643,5.62c-6.081,3.575-11.643,9.638-15.262,15.633
						c-4.221,6.989-5.628,15.659-6.035,23.685c-0.309,6.067-0.2,14.189,3.498,19.37c0.374-0.918,0.747-1.837,1.121-2.755
						c-0.203,0.033-0.405,0.066-0.607,0.098c-1.026,0.166-1.538,1.4-1.31,2.307c1.161,4.622,7.717,6.299,11.623,7.482
						c7.303,2.213,14.785,2.86,22.368,3.076c18.07,0.514,38.297,0.332,54.759-8.1c2.153-1.103,0.255-4.338-1.893-3.238
						c-14.121,7.232-31.144,7.719-46.682,7.687c-6.784-0.015-13.568-0.122-20.26-1.321c-3.625-0.649-15.192-2.176-16.301-6.582
						c-0.437,0.769-0.873,1.537-1.31,2.307c0.203-0.033,0.405-0.066,0.607-0.098c1.143-0.184,1.78-1.832,1.121-2.755
						c-3.164-4.433-3.089-11.064-3.025-16.259c0.094-7.512,1.599-15.25,4.995-21.982c2.885-5.721,8.354-11.169,13.617-14.765
						c6.884-4.704,15.534-5.409,23.616-5.659c6.642-0.205,13.831-0.304,19.943,2.668c5.202,2.529,10.438,6.926,14.246,11.211
						c10.013,11.271,13.981,30.737,10.489,45.215C2680.038,569.593,2683.654,570.59,2684.221,568.239L2684.221,568.239z"/>
				</g>
			</g>
			<g>
				<path fill="#CACBD5" d="M2597.491,562.554c-5.63,5.174-23.979,8.637-23.611-8.498c0.195-9.049,16.809-18.846,23.125-23.781
					c4.818-3.764,9.724,9.674,1.408,11.611c-3.943,0.918-16.751,7.969-13.795,13.271c2.864,5.141,8.192-1.953,11.084-2.352
					C2599.217,552.319,2603.299,557.214,2597.491,562.554z"/>
				<g>
					<path fill="#8A8899" d="M2596.165,561.228c-7.147,6.149-19.663,4.965-20.401-5.861c-0.428-6.281,5.917-11.152,10.271-14.703
						c2.525-2.06,5.213-3.926,7.867-5.812c1.757-1.248,4.564-4.635,6.239-2.121c1.383,2.076,1.263,5.333-0.864,6.83
						c-1.443,1.016-3.943,1.414-5.584,2.191c-4.14,1.961-9.006,5.079-10.892,9.441c-1.368,3.166,0.385,6.396,3.45,7.578
						c1.561,0.602,3.508-0.396,4.844-1.093c1.198-0.624,2.288-1.509,3.406-2.261c0.803-0.673,1.746-0.814,2.833-0.426
						C2598.796,557.566,2598.406,559.646,2596.165,561.228c-1.66,1.756,0.987,4.412,2.652,2.652
						c2.442-2.582,4.058-5.288,3.083-8.883c-0.571-2.107-3.117-4.109-5.313-4.078c-2.938,0.041-4.989,2.043-7.384,3.521
						c-3.726,2.3-2.976-2.288-1.415-4.056c1.624-1.839,3.814-3.164,5.908-4.395c4.881-2.865,10.423-2.869,11.071-9.621
						c0.389-4.055-2.947-9.992-7.659-8.285c-2.81,1.018-5.649,3.914-8.067,5.648c-3.371,2.422-6.65,4.963-9.704,7.778
						c-5.61,5.173-8.717,11.151-6.51,18.781c3.249,11.229,18.847,9.733,25.99,3.589
						C2600.653,562.3,2597.988,559.659,2596.165,561.228z"/>
				</g>
			</g>
		</g>
		<g>
			<g>
				<path fill="#8A8899" d="M2632.727,505.302c-4.244-0.318-9.403,1.521-12.602,4.324c-2.939,2.578-3.202,6.021,0.598,7.857
					c4.754,2.297,11.235,1.136,16.192,0.318c5.259-0.865,11.784-2.535,15.333-6.844c0.622-0.756,0.812-1.92,0-2.652
					c-5.338-4.818-14.337-3.613-20.877-2.779c-2.365,0.301-2.395,4.055,0,3.75c5.284-0.674,13.898-2.225,18.225,1.682
					c0-0.885,0-1.768,0-2.652c-4.551,5.527-14.616,6.435-21.245,6.615c-2.049,0.055-9.108,0.001-5.26-2.866
					c2.622-1.954,6.362-3.249,9.636-3.003C2635.14,509.233,2635.123,505.481,2632.727,505.302L2632.727,505.302z"/>
			</g>
		</g>
	</g>
	<g>
		<g>
			<g>
				<path fill="#CACBD5" d="M2596.562,523.989c-2.882-15.223,4.579-40.512,18.621-50.01c10.695-7.23,13.088-10.15,33.641-8.035
					c18.526,1.904,24.503,7.578,32.736,18.775c9.404,12.781,7.5,39.133,2.114,45.133l0.599,0.137
					c-0.935,4.783-18.673,7.398-26.807,7.197c-19.19-0.469-44.323-2.428-59.086-11.615"/>
				<g>
					<path fill="#8A8899" d="M2598.37,523.491c-2.53-14.766,2.921-32.336,12.771-43.484c3.835-4.34,9.478-7.924,14.635-10.551
						c5.93-3.021,13.098-2.45,19.505-1.966c8.081,0.61,16.299,1.86,23.261,6.257c5.432,3.43,10.118,9.333,13.244,14.854
						c3.772,6.658,4.546,15.004,4.494,22.499c-0.037,5.335-0.354,13.055-3.932,17.427c-0.835,1.021-0.666,2.793,0.828,3.135
						c0.199,0.045,0.398,0.09,0.599,0.137c-0.437-0.77-0.873-1.538-1.31-2.307c-1.332,4.113-12.89,4.891-16.291,5.318
						c-6.807,0.855-13.675,0.41-20.499,0.015c-15.566-0.901-32.71-2.685-46.349-10.872c-2.079-1.248-3.963,1.995-1.893,3.238
						c15.52,9.316,35.106,10.784,52.775,11.623c7.679,0.363,15.086,0.148,22.652-1.295c4.286-0.818,11.643-2.162,13.219-7.031
						c0.305-0.94-0.345-2.086-1.31-2.307c-0.199-0.045-0.398-0.09-0.599-0.137c0.276,1.045,0.552,2.09,0.828,3.135
						c3.887-4.75,4.55-11.69,4.938-17.584c0.539-8.168-0.405-17.243-3.869-24.736c-2.973-6.432-8.223-12.957-13.954-17.16
						c-6.844-5.02-15.002-6.707-23.292-7.629c-7.612-0.847-16.195-1.643-23.438,1.472c-6.104,2.624-12.347,7.004-16.896,11.813
						c-11.088,11.72-16.439,31.359-13.735,47.133C2595.162,526.868,2598.775,525.855,2598.37,523.491L2598.37,523.491z"/>
				</g>
			</g>
			<g>
				<path fill="#CACBD5" d="M2681.642,524.495c5.271,5.541,23.347,10.223,24.126-6.898c0.411-9.041-15.51-19.93-21.481-25.275
					c-4.556-4.076-10.349,9.002-2.182,11.492c3.872,1.178,16.18,9.07,12.876,14.164c-3.202,4.938-8.043-2.496-10.902-3.088
					C2680.604,514.171,2676.204,518.78,2681.642,524.495z"/>
				<g>
					<path fill="#8A8899" d="M2680.315,525.821c6.944,6.836,21.257,8.604,25.934-1.604c6.496-14.179-11.937-26.845-21.591-33.937
						c-4.137-3.037-7.832,3.202-8.399,6.414c-1.219,6.908,4.812,8.225,9.462,11.008c1.812,1.084,3.466,2.391,5.021,3.814
						c0.655,0.618,1.258,1.285,1.807,2.002c0.317,0.412,2.969,5.875-1.356,3.884c-2.432-1.12-4.266-4.157-7.113-4.388
						c-2.723-0.22-4.763,1.062-6.179,3.318C2675.863,519.578,2678.285,523.366,2680.315,525.821
						c1.543,1.865,4.181-0.804,2.652-2.652c-0.67-1.287-1.339-2.576-2.008-3.863c0.543-2.377,1.713-3.104,3.508-2.181
						c1.138,0.642,2.086,1.646,3.147,2.402c1.613,1.151,3.111,1.964,5.116,1.984c3.571,0.036,4.972-4.208,4.455-7.031
						c-0.745-4.071-5.521-7.296-8.652-9.429c-3.924-2.673-10.903-3.697-7.868-9.951c1.49-3.071,3.597-0.317,5.264,1.056
						c2.239,1.843,4.489,3.669,6.686,5.563c4.518,3.896,11.177,9.389,11.277,15.877c0.188,12.071-14.171,12.223-20.925,5.572
						C2681.243,521.472,2678.591,524.122,2680.315,525.821z"/>
				</g>
			</g>
		</g>
		<g>
			<g>
				<path fill="#8A8899" d="M2650.189,468.761c3.142-0.023,6.098,1.457,8.66,3.155c0.928,0.614,2.924,1.913,1.293,2.57
					c-1.614,0.65-3.521,0.544-5.226,0.481c-6.482-0.237-17.365-2.129-21.427-7.796c-0.098,0.757-0.195,1.515-0.293,2.272
					c4.406-3.473,12.866-1.41,17.833-0.436c2.361,0.463,3.368-3.151,0.996-3.617c-6.699-1.312-15.66-3.186-21.481,1.4
					c-0.609,0.48-0.737,1.652-0.293,2.272c3.219,4.491,8.859,6.425,13.971,7.872c5.316,1.505,11.479,2.6,16.917,1.166
					c3.983-1.051,4.224-4.65,1.939-7.453c-2.789-3.424-8.573-5.672-12.89-5.639C2647.772,465.029,2647.771,468.779,2650.189,468.761
					L2650.189,468.761z"/>
			</g>
		</g>
	</g>
	<g>
		<g>
			<g>
				<path fill="#CACBD5" d="M2601.125,484.364c-4.359-14.867,0.592-40.766,13.636-51.594c9.937-8.242,12.031-11.381,32.693-11.289
					c18.624,0.084,25.126,5.145,34.416,15.482c10.61,11.801,11.294,38.211,6.521,44.711l0.61,0.076
					c-0.462,4.852-17.86,9.193-25.975,9.787c-19.144,1.41-44.347,1.922-59.938-5.779"/>
				<g>
					<path fill="#8A8899" d="M2602.933,483.866c-3.94-14.359-0.405-31.709,7.841-43.942c3.329-4.938,8.724-9.192,13.686-12.437
						c5.735-3.75,12.908-3.969,19.536-4.113c8.234-0.18,16.739,0.22,24.167,4.119c5.771,3.029,11.28,8.627,14.796,14.062
						c4.066,6.286,5.625,14.259,6.227,21.603c0.446,5.441,0.765,12.812-2.413,17.571c-0.877,1.313,0.331,2.661,1.619,2.821
						c0.203,0.025,0.407,0.051,0.61,0.076c-0.603-0.791-1.205-1.582-1.808-2.373c-0.941,4.307-11.359,6.008-14.834,6.851
						c-6.522,1.582-13.177,1.88-19.856,2.179c-15.944,0.712-33.741,0.834-48.469-6.143c-2.173-1.029-4.077,2.203-1.893,3.238
						c16.337,7.738,35.802,7.389,53.452,6.508c7.74-0.387,15.157-1.269,22.613-3.467c4.087-1.205,11.528-3.255,12.602-8.17
						c0.284-1.298-0.568-2.219-1.808-2.373c-0.203-0.025-0.407-0.051-0.61-0.076c0.54,0.94,1.079,1.881,1.619,2.821
						c3.383-5.065,3.254-12.437,3.002-18.247c-0.356-8.186-2.29-16.483-6.217-23.701c-3.456-6.354-9.716-12.113-15.819-15.891
						c-7.491-4.639-16.736-5.178-25.297-5.176c-7.366,0.002-15.088,0.338-21.734,3.828c-5.694,2.991-11.497,8.192-15.391,13.215
						c-9.87,12.727-13.481,32.749-9.236,48.213C2599.956,487.192,2603.574,486.202,2602.933,483.866L2602.933,483.866z"/>
				</g>
			</g>
			<g>
				<path fill="#CACBD5" d="M2670.757,477.247c4.87,5.18,19.895,8.754,18.513-8.264c-0.729-8.986-8.412-17.203-13.821-22.148
					c-4.127-3.773-13.915,4.566-6.743,9.881c2.709,2.008,14.02,8.037,11.971,13.283c-1.987,5.082-5.629-2.318-7.987-2.734
					C2669.822,466.759,2665.731,471.903,2670.757,477.247z"/>
				<g>
					<path fill="#8A8899" d="M2669.431,478.573c5.429,5.402,17.351,7.701,20.72-1.2c2.657-7.022,0.238-14.56-3.545-20.642
						c-2.764-4.445-8.267-12.703-14.132-12.703c-4.589,0-8.604,4.868-8.093,9.257c0.604,5.165,8.184,7.952,11.62,10.919
						c1.241,1.071,2.394,2.334,2.961,3.896c1.362,3.754-2.615-0.48-3.146-0.997c-1.51-1.468-3.067-2.012-5.113-1.454
						C2664.48,467.345,2666.649,475.126,2669.431,478.573c1.52,1.882,4.155-0.789,2.652-2.652c-2.906-3.6-1.25-8.531,2.403-4.858
						c0.967,0.972,2.107,2.082,3.473,2.458c2.575,0.708,4.724-1.913,4.802-4.313c0.116-3.585-2.414-6.192-4.96-8.39
						c-2.474-2.135-9.356-4.849-9.773-8.418c-0.264-2.257,2.332-3.99,4.116-4.552c2.374-0.748,5.431,3.647,6.815,5.138
						c4.855,5.229,8.504,11.428,8.517,18.717c0.017,9.471-9.96,9.626-15.393,4.219
						C2670.367,474.214,2667.716,476.865,2669.431,478.573z"/>
				</g>
			</g>
		</g>
		<g>
			<g>
				<path fill="#8A8899" d="M2649.898,424.048c3.13-0.332,6.215,0.752,8.947,2.199c5.36,2.841-1.605,3.449-4.273,3.531
					c-6.559,0.203-16.817-0.619-21.457-5.91c0,0.885,0,1.768,0,2.652c4.229-4.062,12.807-2.801,18.146-2.289
					c2.407,0.23,2.385-3.521,0-3.75c-6.527-0.625-15.634-1.575-20.799,3.387c-0.771,0.742-0.662,1.896,0,2.652
					c3.489,3.977,9.323,5.305,14.303,6.2c5.429,0.977,11.678,1.565,16.953-0.396c3.741-1.392,4.169-4.866,1.512-7.543
					c-3.11-3.134-9.014-4.94-13.332-4.483C2647.52,420.55,2647.495,424.302,2649.898,424.048L2649.898,424.048z"/>
			</g>
		</g>
	</g>
	<g>
		<g>
			<g>
				<path fill="#CACBD5" d="M2599.237,437.849c-4.544-14.814,0.084-40.771,12.994-51.758c9.832-8.365,11.888-11.533,32.548-11.697
					c18.625-0.15,25.189,4.832,34.607,15.051c10.756,11.668,11.768,38.068,7.077,44.625l0.611,0.07
					c-0.403,4.857-17.745,9.414-25.851,10.111c-19.125,1.646-44.32,2.471-60.007-5.031"/>
				<g>
					<path fill="#8A8899" d="M2601.045,437.351c-4.118-14.311-0.821-31.7,7.276-44.039c3.262-4.969,8.604-9.309,13.521-12.613
						c5.691-3.824,12.851-4.143,19.479-4.369c8.226-0.281,16.747,0,24.22,3.805c5.808,2.957,11.396,8.477,14.979,13.867
						c4.144,6.233,5.813,14.184,6.507,21.52c0.513,5.428,0.933,12.811-2.182,17.603c-0.853,1.312,0.312,2.671,1.619,2.821
						c0.204,0.023,0.407,0.047,0.611,0.07c-0.603-0.791-1.205-1.582-1.808-2.373c-0.893,4.336-11.248,6.16-14.732,7.051
						c-6.502,1.664-13.149,2.051-19.825,2.432c-15.929,0.91-33.735,1.264-48.546-5.523c-2.182-1-4.089,2.232-1.893,3.238
						c16.438,7.532,35.881,6.951,53.527,5.852c7.733-0.482,15.14-1.451,22.567-3.742c4.059-1.252,11.505-3.393,12.517-8.311
						c0.266-1.291-0.554-2.229-1.808-2.373c-0.204-0.023-0.407-0.047-0.611-0.07c0.54,0.94,1.079,1.881,1.619,2.821
						c3.321-5.111,3.11-12.465,2.785-18.278c-0.458-8.18-2.483-16.457-6.499-23.626c-3.534-6.309-9.857-11.997-16.008-15.7
						c-7.551-4.546-16.792-4.979-25.357-4.87c-7.358,0.093-15.089,0.515-21.688,4.088c-5.385,2.916-11.127,7.967-14.783,12.803
						c-9.918,13.119-13.66,33.087-9.104,48.915C2598.097,440.667,2601.716,439.679,2601.045,437.351L2601.045,437.351z"/>
				</g>
			</g>
			<g>
				<path fill="#CACBD5" d="M2683.854,428.97c5.849,4.924,24.331,7.588,23.218-9.516c-0.588-9.031-17.612-18.098-24.136-22.752
					c-4.979-3.551-9.295,10.086-0.903,11.66c3.979,0.744,17.082,7.232,14.359,12.658c-2.639,5.262-8.27-1.594-11.176-1.867
					C2681.684,418.821,2677.818,423.888,2683.854,428.97z"/>
				<g>
					<path fill="#8A8899" d="M2682.527,430.296c7.9,6.219,22.23,6.367,25.847-4.578c2.329-7.049-1.324-12.96-6.271-17.639
						c-3.005-2.844-6.496-5.219-9.919-7.521c-2.771-1.862-6.159-4.962-9.344-6.01c-4.599-1.514-6.974,3.483-7.405,7.222
						c-0.807,6.973,5.68,7.789,10.436,9.963c2.947,1.348,8.65,4.082,9.015,7.786c0.349,3.55-4.993-0.13-5.698-0.575
						c-1.098-0.691-2.594-1.707-3.972-1.666C2677.145,417.519,2678.186,426.091,2682.527,430.296
						c1.737,1.682,4.392-0.967,2.652-2.652c-0.649-0.711-1.298-1.424-1.947-2.135c-1.187-3.061-0.376-4.483,2.433-4.271
						c1.191,0.51,2.292,1.367,3.393,2.041c1.614,0.99,3.371,1.707,5.282,1.515c3.507-0.353,5.144-4.841,3.736-7.743
						c-1.984-4.092-6.389-6.62-10.312-8.555c-4.197-2.068-10.062-2.215-8.181-8.49c0.947-3.161,2.931-1.299,4.738-0.103
						c2.346,1.553,4.723,3.056,7.058,4.625c4.953,3.331,12.987,8.372,13.817,14.927c1.499,11.829-12.384,14.199-20.017,8.189
						C2683.302,426.166,2680.629,428.8,2682.527,430.296z"/>
				</g>
			</g>
		</g>
		<g>
			<g>
				<path fill="#8A8899" d="M2646.241,377.052c3.124-0.369,6.226,0.662,8.978,2.076c1.722,0.886,3.589,1.809,0.939,2.83
					c-1.617,0.625-3.418,0.689-5.126,0.764c-6.538,0.284-16.839-0.4-21.536-5.625c0,0.885,0,1.768,0,2.652
					c4.201-4.137,12.736-2.977,18.109-2.529c2.411,0.201,2.392-3.551,0-3.75c-6.518-0.543-15.671-1.385-20.762,3.627
					c-0.756,0.746-0.679,1.897,0,2.652c3.545,3.941,9.372,5.197,14.373,6.031c5.439,0.908,11.697,1.432,16.948-0.596
					c3.71-1.432,4.157-4.896,1.456-7.549c-3.147-3.092-9.064-4.844-13.38-4.334C2643.87,373.582,2643.843,377.335,2646.241,377.052
					L2646.241,377.052z"/>
			</g>
		</g>
	</g>
	<g>
		<g>
			<g>
				<path fill="#CACBD5" d="M2687.272,392.257c3.895-14.998-1.857-40.729-15.232-51.145c-10.188-7.93-12.379-11.004-33.027-10.27
					c-18.613,0.66-24.955,5.922-33.92,16.543c-10.237,12.125-10.101,38.543-5.129,44.891l-0.607,0.096
					c0.613,4.836,18.138,8.633,26.266,8.977c19.179,0.814,44.387,0.543,59.731-7.637"/>
				<g>
					<path fill="#8A8899" d="M2689.08,392.755c3.758-15.578-0.407-35.5-10.673-47.919c-4.137-5.004-10.018-9.689-15.785-12.741
						c-6.587-3.486-14.606-3.332-21.835-3.182c-8.536,0.178-17.168,1.227-24.643,5.621c-6.081,3.574-11.644,9.637-15.263,15.633
						c-4.22,6.99-5.627,15.658-6.035,23.684c-0.308,6.068-0.2,14.189,3.498,19.372c0.374-0.918,0.747-1.837,1.121-2.755
						c-0.203,0.033-0.405,0.064-0.607,0.096c-1.026,0.162-1.537,1.402-1.31,2.307c1.161,4.622,7.718,6.299,11.624,7.482
						c7.303,2.213,14.785,2.86,22.368,3.076c18.07,0.514,38.297,0.334,54.759-8.098c2.153-1.103,0.255-4.338-1.893-3.238
						c-14.12,7.232-31.144,7.718-46.682,7.685c-6.784-0.015-13.569-0.122-20.26-1.321c-3.626-0.649-15.193-2.176-16.302-6.582
						c-0.437,0.769-0.873,1.537-1.31,2.307c0.203-0.033,0.405-0.064,0.607-0.096c1.144-0.181,1.778-1.834,1.121-2.755
						c-3.164-4.434-3.089-11.065-3.024-16.259c0.093-7.513,1.599-15.251,4.994-21.984c2.885-5.721,8.354-11.168,13.617-14.764
						c6.884-4.704,15.535-5.41,23.617-5.66c6.642-0.205,13.831-0.303,19.942,2.67c5.202,2.529,10.438,6.926,14.246,11.211
						c10.014,11.271,13.981,30.736,10.489,45.215C2684.897,394.108,2688.514,395.105,2689.08,392.755L2689.08,392.755z"/>
				</g>
			</g>
			<g>
				<path fill="#CACBD5" d="M2617.452,387.304c-4.706,5.33-19.612,9.369-18.76-7.684c0.45-9.006,7.874-17.457,13.126-22.566
					c4.008-3.9,14.05,4.131,7.048,9.666c-2.646,2.092-13.763,8.467-11.553,13.646c2.143,5.02,5.553-2.488,7.897-2.979
					C2618.061,376.792,2622.309,381.806,2617.452,387.304z"/>
				<g>
					<path fill="#8A8899" d="M2616.126,385.978c-5.469,5.785-14.688,5.61-15.551-3.562c-0.682-7.242,3.464-13.74,7.886-19.064
						c1.418-1.707,3.863-5.369,6.302-5.445c3.234-0.102,5.756,4.031,3.703,6.642c-3.938,5.009-13.767,7.072-13.262,15.034
						c0.153,2.418,2.292,4.949,4.878,4.238c1.369-0.377,2.46-1.558,3.409-2.538c0.705-0.728,1.919-2.618,3.32-1.483
						c2.312,1.871,0.266,4.916-0.979,6.56c-1.46,1.93,1.799,3.794,3.238,1.893c2.599-3.433,4.075-11.104-1.869-12.524
						c-2.144-0.512-3.503,0.103-5.082,1.557c-0.985,0.908-1.764,2.004-2.851,2.809c-0.5-0.986-0.445-1.921,0.164-2.802
						c0.539-1.095,1.484-1.965,2.332-2.816c3.237-3.257,10.866-5.983,11.316-11.259c0.42-4.923-3.759-8.455-8.319-9.059
						c-5.295-0.702-10.46,8.189-12.927,11.773c-4.227,6.141-6.484,14.088-4.073,21.355c3.147,9.49,15.542,7.134,21.016,1.346
						C2620.438,386.874,2617.791,384.218,2616.126,385.978z"/>
				</g>
			</g>
		</g>
		<g>
			<g>
				<path fill="#8A8899" d="M2636.59,329.735c-4.244-0.316-9.403,1.521-12.602,4.325c-2.939,2.579-3.201,6.021,0.598,7.858
					c4.754,2.298,11.235,1.136,16.192,0.318c5.259-0.865,11.784-2.535,15.333-6.844c0.622-0.756,0.811-1.92,0-2.652
					c-5.337-4.819-14.337-3.613-20.877-2.779c-2.365,0.301-2.395,4.055,0,3.75c5.284-0.674,13.898-2.227,18.225,1.682
					c0-0.885,0-1.768,0-2.652c-4.551,5.527-14.616,6.435-21.245,6.615c-2.05,0.055-9.108,0-5.26-2.867
					c2.622-1.954,6.362-3.248,9.636-3.004C2639.004,333.665,2638.986,329.915,2636.59,329.735L2636.59,329.735z"/>
			</g>
		</g>
	</g>
	<g>
		<g>
			<g>
				<path fill="#CACBD5" d="M2690.146,357.253c6.902-13.871,6.579-40.236-4.361-53.186c-8.333-9.861-9.844-13.32-30.2-16.857
					c-18.349-3.191-25.64,0.648-36.602,9.193c-12.517,9.754-17.83,35.633-14.273,42.867l-0.614-0.029
					c-0.397,4.857,15.967,12.188,23.851,14.197c18.598,4.754,43.32,9.684,60.021,4.842"/>
				<g>
					<path fill="#8A8899" d="M2691.766,358.199c7.173-15.08,6.704-35.269-0.971-50.058c-2.891-5.57-7.97-11.414-12.934-15.27
						c-6.131-4.762-14.347-6.144-21.778-7.471c-8.618-1.538-17.458-1.93-25.664,1.521c-6.546,2.752-13.479,7.635-17.769,13.336
						c-5.002,6.646-8.034,14.568-9.774,22.654c-1.175,5.463-2.103,12.02,0.215,17.304c0.54-0.94,1.079-1.881,1.619-2.821
						c-0.205-0.01-0.409-0.02-0.614-0.029c-0.99-0.047-1.917,0.889-1.875,1.875c0.215,5.006,6.528,8.058,10.312,10.083
						c6.632,3.55,13.699,5.673,20.976,7.418c17.486,4.192,37.21,8.161,54.958,3.347c2.332-0.633,1.341-4.25-0.996-3.617
						c-15.625,4.239-32.722,1.1-48.212-2.258c-6.178-1.34-12.322-2.771-18.215-5.084c-3.324-1.304-14.88-5.406-15.072-9.889
						c-0.625,0.625-1.25,1.25-1.875,1.875c0.205,0.01,0.409,0.02,0.614,0.029c1.561,0.074,2.147-1.615,1.619-2.821
						c-2.148-4.898-0.473-11.805,0.681-16.712c1.68-7.147,4.68-14.244,9.314-19.984c4.186-5.186,10.917-9.547,17.12-11.9
						c7.985-3.029,16.913-1.621,25.044-0.085c6.283,1.188,12.944,2.699,17.97,6.885c4.292,3.573,8.377,8.696,11.1,13.507
						c7.394,13.067,7.355,32.847,0.97,46.272C2687.494,358.478,2690.728,360.382,2691.766,358.199L2691.766,358.199z"/>
				</g>
			</g>
			<g>
				<path fill="#CACBD5" d="M2605.607,336.808c-6.577,3.902-25.244,3.508-21.352-13.184c2.056-8.812,20.332-14.975,27.53-18.502
					c5.491-2.689,7.521,11.471-1.016,11.65c-4.048,0.086-18.033,4.346-16.235,10.145c1.742,5.619,8.419-0.223,11.331-0.018
					C2609.405,327.149,2612.391,332.78,2605.607,336.808z"/>
				<g>
					<path fill="#8A8899" d="M2604.661,335.188c-3.694,2.031-8.338,2.197-12.357,1.189c-6.204-1.559-7.641-7.498-5.991-13.1
						c1.632-5.543,9.977-8.988,14.664-11.256c2.474-1.195,5.004-2.273,7.522-3.369c2.128-0.924,4.933-3.291,5.952-0.146
						c2.047,6.32-4.879,6.265-8.919,7.329c-3.999,1.055-9.407,2.977-11.815,6.598c-1.705,2.563-1.664,7.496,2.034,8.496
						c2.289,0.619,4.305-0.057,6.449-0.927c1.136-0.461,2.628-1.393,3.914-1.163
						C2610.205,329.571,2605.991,334.288,2604.661,335.188c-1.99,1.348-0.116,4.598,1.893,3.238
						c4.151-2.811,8.011-10.23,1.267-12.919c-2.711-1.081-5.061,0.248-7.586,1.274c-2.746,1.114-4.672-1.173-2.354-3.332
						c1.765-1.644,4.427-2.586,6.641-3.376c5.312-1.896,11.259-0.685,13.501-6.995c1.394-3.922-0.33-9.807-4.987-10.17
						c-2.273-0.177-5.425,2.07-7.421,2.938c-4.116,1.788-8.194,3.635-12.108,5.838c-6.398,3.603-11.082,8.008-11.642,15.593
						c-0.956,12.971,15.556,16.17,24.69,11.148C2608.673,337.262,2606.781,334.022,2604.661,335.188z"/>
				</g>
			</g>
		</g>
		<g>
			<g>
				<path fill="#8A8899" d="M2652.001,288.077c-4.485-1.301-9.931-0.311-13.954,1.951c-3.274,1.842-3.38,5.766-0.102,7.698
					c4.907,2.893,11.013,3.327,16.586,3.45c5.28,0.115,11.332-0.404,15.597-3.811c0.605-0.484,0.741-1.65,0.293-2.272
					c-4.314-5.987-13.54-6.597-20.292-7.144c-2.412-0.195-2.393,3.557,0,3.75c5.062,0.41,13.773,0.734,17.054,5.286
					c0.098-0.757,0.195-1.515,0.293-2.272c-5.361,4.283-15.506,3.01-21.739,1.873c-1.889-0.344-8.692-1.692-5.099-3.713
					c2.872-1.615,7.228-2.091,10.367-1.18C2653.332,292.369,2654.319,288.75,2652.001,288.077L2652.001,288.077z"/>
			</g>
		</g>
	</g>
	<g>
		<g>
			<path fill="#CACBD5" d="M2654.971,554.261c-4.276,14.893,0.816,40.764,13.92,51.518c9.982,8.188,12.094,11.316,32.755,11.109
				c18.622-0.184,25.097-5.281,34.331-15.67c10.543-11.857,11.084-38.271,6.275-44.744l0.608-0.08
				c-0.487-4.85-17.909-9.096-26.026-9.645c-19.15-1.307-44.357-1.678-59.906,6.105"/>
			<g>
				<path fill="#8A8899" d="M2653.163,553.763c-4.157,15.484-0.45,35.491,9.491,48.165c4.019,5.123,9.758,9.923,15.462,13.131
					c6.485,3.647,14.539,3.679,21.754,3.714c8.744,0.041,17.577-0.854,25.269-5.307c6.257-3.623,12.105-9.771,15.736-15.975
					c4.136-7.066,5.629-15.669,6.092-23.733c0.329-5.749,0.27-13.251-3.096-18.23c-0.54,0.94-1.079,1.881-1.619,2.821
					c0.203-0.027,0.405-0.053,0.608-0.08c1.232-0.162,2.1-1.07,1.808-2.373c-1.036-4.631-7.617-6.473-11.461-7.745
					c-7.247-2.399-14.708-3.224-22.284-3.634c-18.068-0.977-38.255-1.294-54.941,6.719c-2.18,1.047-0.276,4.279,1.893,3.238
					c14.291-6.863,31.349-6.895,46.868-6.463c6.784,0.188,13.558,0.48,20.218,1.85c3.649,0.751,15.09,2.555,16.093,7.031
					c0.603-0.791,1.205-1.582,1.808-2.373c-0.203,0.027-0.405,0.053-0.608,0.08c-1.277,0.168-2.508,1.506-1.619,2.821
					c3.045,4.506,2.781,11.154,2.584,16.338c-0.286,7.508-2.015,15.2-5.58,21.841c-3.095,5.766-8.883,11.178-14.391,14.629
					c-7.395,4.635-16.619,4.826-25.06,4.787c-6.436-0.031-13.149-0.367-18.874-3.586c-4.835-2.719-9.697-6.978-13.251-11.189
					c-9.725-11.527-13.142-31.104-9.283-45.48C2657.406,552.421,2653.789,551.429,2653.163,553.763L2653.163,553.763z"/>
			</g>
		</g>
		<g>
			<path fill="#CACBD5" d="M2737.835,567.284c6.228-4.439,24.861-5.609,22.382,11.348c-1.31,8.955-19.006,16.627-25.883,20.746
				c-5.246,3.139-8.456-10.801,0.035-11.695c4.026-0.424,17.607-5.842,15.327-11.469c-2.206-5.455-8.369,0.926-11.287,0.967
				C2734.861,577.228,2731.414,571.866,2737.835,567.284z"/>
			<g>
				<path fill="#8A8899" d="M2738.781,568.903c8.64-5.741,21.954-2.004,19.443,10.121c-1.234,5.959-9.533,10.135-14.25,12.883
					c-2.405,1.401-4.874,2.697-7.323,4.02c-2.308,1.246-4.351,3.213-5.429-0.258c-1.91-6.148,5.344-6.301,9.26-7.818
					c4.03-1.561,8.556-3.869,10.717-7.799c1.717-3.119-0.261-7.221-3.696-7.848c-1.762-0.32-3.513,0.531-5.067,1.242
					c-1.302,0.596-2.486,1.369-3.853,1.827c-1.856-0.169-2.639-1.243-2.349-3.22c0.651-1.445,1.627-2.593,2.927-3.443
					c1.875-1.529-0.795-4.166-2.652-2.652c-4.476,3.647-6.185,10.719,0.59,12.948c2.438,0.802,5.203-1.193,7.229-2.222
					c1.438-1.076,2.671-0.672,3.699,1.211c-0.166,1.061-1.236,1.91-1.965,2.587c-1.803,1.676-4.338,2.812-6.577,3.753
					c-5.07,2.129-11.077,1.623-12.116,8.355c-0.534,3.47,1.486,10.188,6.248,9.036c2.741-0.663,5.433-2.733,7.898-4.065
					c3.748-2.021,7.431-4.143,10.928-6.576c6.143-4.275,10.405-9.336,9.769-17.123c-0.998-12.209-16.917-13.783-25.323-8.197
					C2734.885,566.997,2736.761,570.246,2738.781,568.903z"/>
			</g>
		</g>
		<g>
			<g>
				<path fill="#8A8899" d="M2653.896,553.054c-5.156,6.132,8.575,8.701,11.896,9.4c9.687,2.037,19.748,3.137,29.631,3.611
					c6.529,0.313,54.162-1.025,48.521-13.165c-1.019-2.191-4.25-0.286-3.238,1.893c1.297,2.79-18.192,5.556-19.728,5.745
					c-8.061,0.996-16.512,1.99-24.648,1.811c-7.271-0.16-14.611-1.109-21.797-2.162c-4.031-0.591-8.05-1.316-11.995-2.338
					c-1.184-0.305-5.907-2.241-5.989-2.143C2658.093,553.868,2655.454,551.2,2653.896,553.054L2653.896,553.054z"/>
			</g>
		</g>
	</g>
</g>
<g>
	<g>
		<g>
			<g>
				<path fill="#CACBD5" d="M2245.018,342.597c2.205-2.197,3.381-4.496,3.381-6.865c0-1.666-5.866-1.646-8.12-2.875
					c0.972-1.068,1.768-2.23,2.291-3.492c1.771-1.994,3.161-4.174,1.976-5.486c-12.72-14.051-41.911-22.611-94.409-23.93
					c-20.723-0.789-41.272-0.33-60.936,1.537c-35.735,2.926-60.412,9.574-63.058,19.842c-2.375,2.969-2.773,6.164-0.002,9.463
					c-1.04,1.467-1.625,2.971-1.719,4.506c-5.211,1.557-6.626,5.381-2.17,9.441l3.088-5.363c0.404,0.779,0.933,1.549,1.586,2.309
					c-1.42,1.416-2.408,2.873-2.936,4.363l-0.843-0.006c0.237,0.145,0.475,0.281,0.713,0.422c-0.203,0.689-0.318,1.385-0.318,2.086
					c0,0.051,0.006,0.102,0.008,0.152c-4.344,2.23-2.023,6.488-0.15,9.914c-0.131,0.555-0.203,1.111-0.203,1.674
					c0,0.258,0.015,0.514,0.044,0.77c-2.935,1.324-1.535,5.74,0.192,8.393c-0.275,0.686-0.462,1.377-0.537,2.074
					c-5.751,3.211-4.316,10.818-0.171,15.061c0.074,0.301,0.171,0.602,0.282,0.9c-8.918-3.363-4.259,3.383-0.134,8.309
					c-0.271,0.797-0.417,1.6-0.417,2.412c0,0.623,0.091,1.24,0.25,1.854c-4.925,0.525-2.652,4.041,0.327,7.393l0.231-5.869
					c0.481,1.006,1.169,1.998,2.063,2.969c-0.881,1.133-1.462,2.293-1.783,3.471c-0.173-0.189-0.344-0.379-0.512-0.57l-0.219,5.549
					c0.182-0.334,0.449-0.592,0.812-0.752c0.371,1.143,1.01,2.266,1.908,3.365c-0.905,0.828-1.652,1.674-2.256,2.533
					c-0.241-0.602-0.45-1.252-0.594-1.898l-0.12,3.047c-0.014,0.025-0.022,0.049-0.035,0.074l-0.277-0.002
					c0.073,0.043,0.146,0.084,0.217,0.129c-0.015,0.029-0.028,0.061-0.043,0.092c-8.509-0.107-3.675,8.576-1.378,12.316
					c-0.068,0.129-0.123,0.258-0.183,0.387c-7.268-1.635-3.342,5.613,0.375,10.809c-1.309,1.715-2.001,3.484-2.001,5.295
					c0,0.611,0.087,1.217,0.24,1.818c-0.209,1.428,0.381,3.133,1.587,4.412c-0.274,0.346-0.525,0.693-0.749,1.043
					c-7.107,0.008-2.41,7.262,0.207,11.215c-0.46,0.609-0.84,1.223-1.143,1.846c-5.048,0.168-2.228,4.885,0.881,8.822l0.02-0.492
					c0.276,0.393,0.576,0.783,0.916,1.168c-0.071,0.078-0.134,0.154-0.203,0.232c-0.244-0.299-0.488-0.6-0.732-0.908l-0.074,1.881
					c-0.587,0.773-1.047,1.557-1.375,2.352c-5.101,0.941-1.692,8.881,0.154,12.877c-0.175,0.363-0.313,0.729-0.433,1.094
					c-8.474-1.344-2.704,7.584,0.541,11.832l0.217-5.508c0.449,0.785,1.029,1.561,1.732,2.322c-0.869,1.117-1.445,2.26-1.77,3.422
					c-0.059-0.076-0.12-0.156-0.18-0.236l-0.061,1.52c-0.022,0.23-0.066,0.459-0.066,0.691c0,0.104,0.011,0.205,0.016,0.307
					c-3.315,2.094-4.225,5.393-0.292,7.686l0.298-7.551c0.207,3.375,2.792,6.605,7.354,9.592l-6.311-0.086
					c-4.026,3.91,25.942,11.732,36.23,14.338c16.55,3.912,38.019,6.193,60.831,6.846c45.452,1.299,80.056,1.303,119.417-18.252
					l-5.84-0.078c7.863-3.84,12.302-8.189,12.302-12.801c0-2.184-0.994-4.307-2.875-6.346c1.357-1.746,2.078-3.553,2.078-5.398
					c0-2.291-1.105-4.518-3.175-6.65c2.104-2.15,3.229-4.398,3.229-6.711c0-1.389-0.415-2.756-1.197-4.09
					c1.09-0.539,2.12-1.07,3.082-1.594l-4.168,0.043c-0.12-0.146-0.236-0.297-0.366-0.443c1.954-2.074,2.994-4.242,2.994-6.465
					c0-1.312-0.369-2.6-1.063-3.861c0.837-0.557,1.559-1.111,2.157-1.658l-3.261,0.018c-0.081-0.1-0.155-0.203-0.239-0.303
					c1.796-1.994,2.751-4.07,2.751-6.205c0-1.209-0.308-2.4-0.902-3.572c0.29-0.139,0.55-0.264,0.757-0.369l-0.965-0.004
					c-0.326-0.582-0.716-1.158-1.181-1.727c1.72-1.953,2.632-3.982,2.632-6.066c0-1.32-0.374-2.621-1.082-3.893
					c0.669-0.342,1.32-0.682,1.937-1.018l-2.563,0.027c-0.25-0.357-0.519-0.713-0.821-1.064c2.206-2.199,3.384-4.5,3.384-6.867
					c0-1.641-0.598-3.244-1.676-4.807c0.275-0.219,0.546-0.438,0.783-0.652l-1.228,0.008c-0.003-0.006-0.004-0.008-0.006-0.012
					c2.354-2.264,3.612-4.641,3.612-7.092c0-1.939-0.787-3.834-2.284-5.664c2.578-2.361,3.958-4.848,3.958-7.412
					c0-2.184-0.992-4.307-2.872-6.346c1.354-1.748,2.074-3.551,2.074-5.398c0-0.023-0.004-0.049-0.005-0.074
					c0.106-0.09,0.229-0.182,0.328-0.273l-0.345,0.002c-0.105-2.17-1.187-4.281-3.152-6.307c2.107-2.146,3.229-4.395,3.229-6.707
					c0-2.092-0.919-4.127-2.65-6.088c1.955-2.074,2.994-4.24,2.994-6.465c0-1.99-0.832-3.93-2.404-5.805
					c1.797-1.994,2.749-4.068,2.749-6.201c0-1.943-0.789-3.84-2.29-5.672c1.721-1.955,2.634-3.986,2.634-6.068
					C2247.547,346.505,2246.668,344.515,2245.018,342.597z M2024.114,380.104l0.134-3.391c0.355,0.561,0.769,1.117,1.254,1.668
					C2024.966,378.948,2024.507,379.524,2024.114,380.104z M2025.171,353.333c0.202,0.295,0.418,0.594,0.659,0.887
					c-0.265,0.301-0.505,0.605-0.731,0.91L2025.171,353.333z M2024.714,364.897c0.265,0.402,0.556,0.801,0.888,1.195
					c-0.367,0.408-0.688,0.818-0.984,1.232L2024.714,364.897z M2023.759,389.042c0.499,0.83,1.142,1.65,1.924,2.457
					c-0.896,0.914-1.602,1.848-2.131,2.795L2023.759,389.042z M2022.293,426.153c0.351,0.789,0.805,1.568,1.406,2.336
					c-0.593,0.57-1.115,1.148-1.567,1.732L2022.293,426.153z M2021.731,440.368c0.269,0.391,0.56,0.777,0.891,1.162
					c-0.356,0.355-0.676,0.713-0.979,1.074L2021.731,440.368z M2021.208,453.647c0.105,0.141,0.207,0.279,0.321,0.418
					c-0.126,0.143-0.238,0.287-0.354,0.432L2021.208,453.647z M2020.75,465.241c0.172,0.234,0.355,0.469,0.55,0.699
					c-0.214,0.238-0.416,0.479-0.605,0.721L2020.75,465.241z M2019.794,489.403c0.443,0.656,0.966,1.305,1.587,1.943
					c-0.695,0.711-1.273,1.432-1.749,2.162L2019.794,489.403z"/>
			</g>
		</g>
		<g>
			<path fill="#CACBD5" d="M2022.685,416.249l0.129-3.248C2022.374,413.8,2022.41,415.015,2022.685,416.249z"/>
		</g>
	</g>
	<g>
		<path fill="#CACBD5" d="M2242.755,332.677c10.736-1.627,4.921,13.039,0,15.645c12.077-0.977,2.236,10.756-0.446,13.363
			c8.946-1.305,3.131,5.537-0.447,7.172c3.13,3.582,8.499,4.887,8.051,10.1c-0.446,3.912-5.367,8.475-9.393,11.08
			c9.841,0.326,11.183,5.867,3.132,10.104c5.366,0.324,8.051-0.324,8.051,4.236c0,3.258-4.474,6.844-7.157,8.799
			c11.63,0,0,6.518-3.579,8.801c8.5,0,2.686,9.449-2.236,10.754c10.736,1.305,6.71,10.43,1.342,14.34
			c4.026,0.977,7.157-0.979,8.052,2.607c0.448,2.279-4.472,6.191-6.71,7.168c12.078,3.584,3.578,7.822-1.788,13.037
			c12.971,2.281,8.498,5.539,0.446,10.756c16.55-0.328-2.235,13.688-5.366,16.295c2.682,0.324,11.182,1.301,12.077,3.582
			c0.894,2.611-6.263,6.518-8.053,8.477c12.973,5.213,0.896,11.08-7.154,14.012"/>
	</g>
</g>
<g>
	<g>
		<path fill="#CACBD5" d="M2299.223,357.019l0.102-2.836C2298.978,354.88,2299.006,355.94,2299.223,357.019z"/>
	</g>
	<g>
		<g>
			<path fill="#CACBD5" d="M2475.74,354.399c0.258-0.609,0.438-1.225,0.532-1.846c1.798-1.701,3.593-3.873,3.593-5.902
				c0-3.312-1.469-3.479-4.394-3.604c0.146-0.559,0.242-1.121,0.25-1.689c3.083-2.799,2.411-5.766-1.752-6.828
				c1.136-1.539,1.754-3.131,1.794-4.76c1.433-1.721,2.512-3.592,2.689-5.316c0.19-2.455-0.957-3.916-2.438-5.232
				c0.016-0.195,0.03-0.389,0.03-0.584c0-1.631-0.585-3.225-1.682-4.766c1.252-1.305,2.191-2.916,1.694-3.857
				c0.167-0.613,0.259-1.234,0.259-1.859c0-1.035-0.234-2.057-0.684-3.057c1.558-2.572,2.655-5.482,0.934-6.77
				c0.009-0.141,0.021-0.283,0.021-0.426c0-1.203-0.322-2.383-0.926-3.539c2.511-4.496,3.476-11.383-2.854-10.318l-0.044,0.836
				c-0.749-0.18-1.431-0.393-1.91-0.682c0.767-0.932,1.395-1.947,1.809-3.047c1.396-1.742,2.492-3.646,1.557-4.791
				c-10.031-12.268-33.049-19.742-74.443-20.895c-16.359-0.691-32.578-0.289-48.097,1.342c-28.183,2.555-47.644,8.361-49.729,17.324
				c-1.874,2.594-2.188,5.383-0.002,8.264c-0.82,1.279-1.282,2.594-1.355,3.934c-4.11,1.359-5.227,4.699-1.712,8.244l2.436-4.684
				c0.319,0.682,0.735,1.354,1.251,2.016c-1.12,1.236-1.899,2.51-2.315,3.811l-0.665-0.004c0.188,0.125,0.375,0.244,0.562,0.369
				c-0.16,0.602-0.251,1.207-0.251,1.82c0,0.045,0.005,0.088,0.006,0.133c-3.426,1.947-1.596,5.664-0.118,8.656
				c-0.104,0.484-0.16,0.971-0.16,1.463c0,0.225,0.012,0.447,0.033,0.67c-2.313,1.156-1.21,5.016,0.153,7.33
				c-0.218,0.598-0.364,1.201-0.424,1.812c-4.536,2.803-3.404,9.443-0.134,13.148c0.058,0.264,0.134,0.525,0.222,0.787
				c-7.035-2.938-3.359,2.953-0.105,7.254c-0.214,0.695-0.329,1.396-0.329,2.107c0,0.543,0.071,1.082,0.197,1.617
				c-3.885,0.459-2.092,3.529,0.258,6.455l0.183-5.125c0.38,0.879,0.922,1.744,1.628,2.592c-0.695,0.99-1.153,2.002-1.407,3.031
				c-0.136-0.166-0.271-0.33-0.403-0.498l-0.173,4.846c0.144-0.291,0.354-0.518,0.643-0.656c0.292,0.996,0.795,1.977,1.504,2.936
				c-0.714,0.725-1.304,1.465-1.779,2.213c-0.19-0.523-0.355-1.092-0.469-1.656l-0.095,2.66c-0.01,0.021-0.018,0.043-0.027,0.064
				l-0.219-0.002c0.057,0.037,0.114,0.074,0.172,0.111c-0.013,0.027-0.023,0.055-0.035,0.082c-6.711-0.094-2.898,7.488-1.088,10.754
				c-0.053,0.113-0.096,0.227-0.143,0.34c-5.732-1.428-2.636,4.9,0.296,9.436c-1.032,1.498-1.578,3.043-1.578,4.625
				c0,0.533,0.068,1.061,0.189,1.586c-0.165,1.248,0.3,2.736,1.251,3.854c-0.217,0.303-0.414,0.605-0.591,0.91
				c-5.605,0.01-1.9,6.342,0.165,9.793c-0.363,0.531-0.664,1.068-0.902,1.611c-3.981,0.146-1.758,4.268,0.694,7.703l0.016-0.428
				c0.218,0.342,0.454,0.682,0.723,1.02c-0.057,0.066-0.105,0.135-0.16,0.201c-0.192-0.26-0.386-0.523-0.578-0.793l-0.059,1.643
				c-0.462,0.676-0.825,1.361-1.084,2.055c-4.023,0.82-1.335,7.756,0.121,11.244c-0.138,0.316-0.246,0.635-0.341,0.953
				c-6.684-1.172-2.134,6.623,0.426,10.334l0.172-4.811c0.354,0.686,0.812,1.361,1.366,2.027c-0.686,0.975-1.14,1.973-1.396,2.988
				c-0.046-0.066-0.095-0.137-0.143-0.205l-0.047,1.326c-0.018,0.201-0.053,0.4-0.053,0.604c0,0.09,0.009,0.18,0.013,0.268
				c-2.615,1.828-3.332,4.709-0.23,6.709l0.235-6.592c0.163,2.947,2.202,5.768,5.801,8.375l-4.978-0.074
				c-3.176,3.414,20.462,10.244,28.576,12.52c13.054,3.414,29.986,5.408,47.979,5.977c35.857,1.135,63.151,1.139,94.197-15.936
				l-3.078-0.047c5.367-2.26,12.209-6.139,8.06-9.938c0.077-0.418,0.115-0.84,0.115-1.262c0-1.035-0.239-2.055-0.688-3.057
				c1.985-1.648,4.16-3.582,3.706-5.051c-0.319-0.898-1.864-1.564-3.655-2.051c0.001-0.033,0.009-0.064,0.009-0.096
				c0-1.646-0.599-3.254-1.716-4.809c4.338-4.256,9.115-10.234,0.835-10.395c-0.007-0.012-0.014-0.025-0.021-0.037
				c0.859-0.471,1.672-0.936,2.431-1.393l-1.243,0.016c4.575-3.418,6.492-5.764-0.14-7.498c-0.138-0.635-0.362-1.262-0.671-1.883
				c0.66-0.486,1.23-0.971,1.702-1.449l-0.265,0.002c3.357-3.184,5.795-5.912-0.84-8.309c-0.062-0.158-0.125-0.318-0.198-0.479
				c0.229-0.119,0.434-0.23,0.597-0.32l-0.109-0.002c1.917-1.309,4.641-4.006,4.342-5.689c-0.511-2.268-1.951-1.998-3.912-2
				c-0.093-0.717-0.297-1.424-0.607-2.123c0.227-0.281,0.442-0.572,0.646-0.873c0.233-0.137,0.473-0.273,0.698-0.41l-0.436,0.006
				c1.62-2.59,2.244-5.664,0.372-7.607c-0.121-1.189-0.548-2.355-1.259-3.496c0.217-0.191,0.431-0.381,0.617-0.57l-0.382,0.002
				c1.159-1.355,2.002-3.049,2.028-4.445c0.148-0.58,0.23-1.162,0.23-1.752c0-1.018-0.228-2.02-0.662-3.002
				C2477.419,357.704,2480.491,354.864,2475.74,354.399z M2300.349,325.458l0.106-2.961c0.28,0.49,0.606,0.977,0.989,1.455
				C2301.022,324.448,2300.66,324.95,2300.349,325.458z M2301.184,302.081c0.16,0.26,0.331,0.518,0.521,0.775
				c-0.209,0.264-0.398,0.527-0.577,0.795L2301.184,302.081z M2300.823,312.181c0.209,0.35,0.438,0.697,0.7,1.043
				c-0.289,0.355-0.543,0.715-0.776,1.076L2300.823,312.181z M2300.07,333.261c0.394,0.727,0.901,1.441,1.518,2.146
				c-0.707,0.799-1.264,1.613-1.681,2.439L2300.07,333.261z M2298.914,365.667c0.276,0.688,0.635,1.369,1.109,2.039
				c-0.468,0.498-0.88,1.002-1.236,1.514L2298.914,365.667z M2298.471,378.079c0.212,0.34,0.441,0.678,0.702,1.014
				c-0.281,0.311-0.533,0.623-0.771,0.938L2298.471,378.079z M2298.058,389.675c0.083,0.121,0.163,0.244,0.253,0.365
				c-0.099,0.125-0.188,0.25-0.279,0.375L2298.058,389.675z M2297.696,399.798c0.136,0.205,0.28,0.408,0.434,0.611
				c-0.169,0.207-0.328,0.418-0.479,0.627L2297.696,399.798z M2296.943,420.896c0.35,0.572,0.762,1.139,1.251,1.695
				c-0.549,0.621-1.004,1.252-1.379,1.889L2296.943,420.896z M2463.263,449.88c0.263-0.141,0.517-0.283,0.77-0.428l-0.023,0.439
				L2463.263,449.88z"/>
		</g>
	</g>
</g>
<g>
	<g>
		<path fill="#CACBD5" d="M2372.188,531.56c0-2.404,0.972-4.738,2.792-6.973c-1.79-2.217-2.745-4.531-2.745-6.916
			c0-2.311,0.899-4.559,2.588-6.717c-1.494-2.039-2.291-4.154-2.291-6.326c0-2.213,0.825-4.371,2.377-6.443
			c-1.359-1.945-2.078-3.963-2.078-6.033c0-2.164,0.789-4.275,2.276-6.307c-1.296-1.904-1.978-3.875-1.978-5.895
			c0-2.463,1.017-4.852,2.923-7.135c-1.429-1.994-2.188-4.062-2.188-6.184c0-2.547,1.085-5.016,3.12-7.371
			c-1.199-1.836-1.837-3.732-1.837-5.674c0-2.668,1.196-5.25,3.423-7.705c-1.294-1.902-1.975-3.869-1.975-5.887
			c0-1.92,0.622-3.793,1.796-5.609c-1.624-2.117-2.483-4.326-2.483-6.594c0-2.402,0.97-4.738,2.79-6.973
			c-1.788-2.215-2.743-4.529-2.743-6.912c0-2.312,0.897-4.562,2.586-6.719c-1.496-2.039-2.29-4.154-2.29-6.326
			c0-2.213,0.824-4.369,2.377-6.443c-1.359-1.947-2.079-3.965-2.079-6.031c0-2.168,0.791-4.277,2.277-6.309
			c-1.297-1.904-1.979-3.877-1.979-5.895c0-2.463,1.019-4.852,2.926-7.137c-1.43-1.99-2.188-4.061-2.188-6.184
			c0-2.545,1.085-5.016,3.12-7.369c-1.203-1.836-1.837-3.732-1.837-5.674c0-16.107,41.217-24.336,94.695-24.336
			s82.363,9.145,94.35,25.062c1.6,2.127-2.217,6.451-4.253,8.807c1.201,1.836,7.585,1.568,7.585,3.51
			c0,2.463-1.018,4.854-2.924,7.137c1.428,1.992,2.187,4.061,2.187,6.184c0,2.164-0.789,4.275-2.276,6.307
			c1.298,1.904,1.979,3.875,1.979,5.896c0,2.213-0.823,4.369-2.376,6.443c1.359,1.947,2.078,3.963,2.078,6.031
			c0,2.312-0.897,4.562-2.588,6.719c1.496,2.037,2.291,4.154,2.291,6.326c0,2.402-0.971,4.738-2.792,6.973
			c1.79,2.215,2.743,4.531,2.743,6.912c0,1.92-0.621,3.793-1.793,5.611c1.625,2.117,2.483,4.324,2.483,6.592
			c0,2.668-1.193,5.25-3.422,7.705c1.294,1.902,1.975,3.869,1.975,5.887c0,2.547-1.087,5.016-3.123,7.371
			c1.202,1.836,1.838,3.732,1.838,5.674c0,2.461-1.018,4.854-2.925,7.137c1.428,1.992,2.188,4.061,2.188,6.182
			c0,2.166-0.789,4.275-2.276,6.307c1.298,1.904,1.981,3.877,1.981,5.895c0,2.217-0.826,4.373-2.378,6.445
			c1.358,1.947,2.079,3.963,2.079,6.031c0,2.312-0.898,4.564-2.588,6.721c1.496,2.035,2.291,4.152,2.291,6.322
			c0,2.404-0.973,4.738-2.792,6.975c1.79,2.217,2.745,4.531,2.745,6.914c0,1.916-0.623,3.793-1.796,5.607
			c1.625,2.121,2.484,4.328,2.484,6.594c0,16.111-43.353,29.166-96.831,29.166s-96.83-13.055-96.83-29.166
			c0-1.918,0.621-3.793,1.795-5.609C2373.046,536.034,2372.188,533.827,2372.188,531.56z"/>
	</g>
	<g>
		<g>
			<path fill="#8A8899" d="M2568.508,351.565c-0.998-7.9-11.103-11.996-17.432-14.732c-10.498-4.541-21.796-7.381-32.988-9.566
				c-29.801-5.82-61.945-4.887-91.903-0.81c-10.229,1.393-20.017,3.522-29.542,7.56c-7.162,3.035-15.482,6.923-19.61,13.896
				c-4.172,7.047,2.045,12.965,7.088,17.193c7.532,6.316,16.517,10.467,25.875,13.276c13.639,4.095,28.162,5.198,42.3,6.096
				c16.822,1.068,33.768,1.142,50.543-0.636c15.589-1.653,30.984-5.779,45.526-11.602c8.712-3.488,20.462-9.418,20.144-20.338
				c-0.066-2.258-3.576-2.265-3.51,0c0.337,11.558-16.525,16.776-25.088,19.753c-13.158,4.573-26.605,7.673-40.475,9.022
				c-14.086,1.371-28.314,1.238-42.435,0.555c-13.267-0.643-26.62-1.711-39.613-4.569c-10.748-2.364-21.088-6.501-29.833-13.271
				c-3.234-2.504-8.065-5.928-8.377-10.373c-0.293-4.188,4.341-7.646,7.326-9.738c19.671-13.788,47.174-15.045,70.18-15.994
				c22.453-0.928,45.481-0.128,67.453,4.833c7.939,1.793,15.83,4.048,23.411,7.023c4.991,1.958,16.647,6.063,17.45,12.421
				C2565.277,353.779,2568.791,353.807,2568.508,351.565L2568.508,351.565z"/>
		</g>
	</g>
	<g>
		<g>
			<path fill="#8A8899" d="M2560.066,555.632c-15.059,8.875-31.204,14.689-48.48,17.325c-17.197,2.624-34.803,2.032-52.125,1.462
				c-18.198-0.599-37.046-1.972-54.556-7.318c-2.953-0.9-30.592-10.613-29.591-12.114c1.259-1.89-1.782-3.645-3.031-1.771
				c-4.5,6.751,19.071,13.173,22.434,14.311c16.791,5.682,34.033,8.476,51.692,9.76c20.206,1.469,41.001,2.001,61.16-0.287
				c19.313-2.192,37.541-8.478,54.269-18.335C2563.785,557.515,2562.021,554.48,2560.066,555.632L2560.066,555.632z"/>
		</g>
	</g>
	<g>
		<g>
			<path fill="#8A8899" d="M2373.025,555.855c2.264,0,2.264-3.51,0-3.51S2370.762,555.855,2373.025,555.855L2373.025,555.855z"/>
		</g>
	</g>
	<g>
		<g>
			<path fill="#8A8899" d="M2376.893,355.012c2.264,0,2.264-3.51,0-3.51S2374.629,355.012,2376.893,355.012L2376.893,355.012z"/>
		</g>
	</g>
	<g>
		<g>
			<path fill="#8A8899" d="M2566.254,373.417c-9.24,5.535-19.782,9.221-30.002,12.428c-21.205,6.654-43.061,9.248-65.223,9.529
				c-18.773,0.239-37.861-0.488-56.128-5.171c-13.67-3.504-26.102-9.921-37.51-18.14c-1.841-1.325-3.59,1.721-1.771,3.031
				c11.697,8.426,24.394,14.777,38.349,18.492c18.491,4.924,38.041,5.468,57.061,5.297c22.503-0.201,44.609-3.041,66.155-9.655
				c10.485-3.218,21.379-7.114,30.841-12.78C2569.964,375.286,2568.2,372.251,2566.254,373.417L2566.254,373.417z"/>
		</g>
	</g>
	<g>
		<g>
			<path fill="#8A8899" d="M2566.671,384.53c-7.061,7.532-19.775,10.605-29.29,13.334c-17.278,4.955-35.198,7.803-53.089,9.31
				c-19.241,1.62-38.81,1.478-57.898-1.614c-17.155-2.777-34.806-8.262-48.26-19.674c-1.715-1.455-4.21,1.016-2.482,2.48
				c27.888,23.655,70.428,24.955,105.063,22.59c18.169-1.24,36.328-4.076,53.946-8.705c11.06-2.906,23.57-6.35,32.705-13.578
				c0.639-0.506,1.229-1.067,1.787-1.662C2570.699,385.362,2568.222,382.876,2566.671,384.53L2566.671,384.53z"/>
		</g>
	</g>
	<g>
		<g>
			<path fill="#8A8899" d="M2567.413,397.124c-22.281,14.404-50.629,20.941-76.644,23.809
				c-38.371,4.231-77.777-2.068-111.446-21.436c-1.966-1.13-3.732,1.902-1.771,3.031c34.319,19.74,74.129,25.975,113.218,21.914
				c26.578-2.76,55.672-9.586,78.415-24.287C2571.077,398.931,2569.32,395.892,2567.413,397.124L2567.413,397.124z"/>
		</g>
	</g>
	<g>
		<g>
			<path fill="#8A8899" d="M2568.187,415.075c-9.239,5.535-19.782,9.221-30.001,12.428c-21.206,6.655-43.061,9.248-65.223,9.529
				c-18.773,0.239-37.861-0.488-56.128-5.171c-13.67-3.504-26.102-9.921-37.511-18.14c-1.841-1.325-3.59,1.721-1.771,3.031
				c11.697,8.426,24.395,14.777,38.35,18.492c18.491,4.924,38.041,5.468,57.061,5.297c22.503-0.201,44.608-3.041,66.155-9.654
				c10.485-3.219,21.379-7.113,30.84-12.781C2571.896,416.944,2570.133,413.909,2568.187,415.075L2568.187,415.075z"/>
		</g>
	</g>
	<g>
		<g>
			<path fill="#8A8899" d="M2568.604,426.19c-7.061,7.531-19.775,10.604-29.29,13.332c-17.277,4.955-35.198,7.803-53.088,9.311
				c-19.241,1.619-38.811,1.477-57.899-1.613c-17.154-2.778-34.806-8.262-48.26-19.674c-1.715-1.455-4.21,1.016-2.482,2.48
				c27.888,23.654,70.429,24.954,105.063,22.588c18.17-1.24,36.329-4.075,53.947-8.704c11.059-2.906,23.569-6.349,32.704-13.577
				c0.639-0.506,1.229-1.067,1.787-1.662C2572.633,427.022,2570.155,424.536,2568.604,426.19L2568.604,426.19z"/>
		</g>
	</g>
	<g>
		<g>
			<path fill="#8A8899" d="M2569.347,438.786c-22.281,14.402-50.629,20.938-76.644,23.807c-38.371,4.23-77.776-2.07-111.444-21.438
				c-1.966-1.13-3.732,1.902-1.771,3.031c34.319,19.74,74.127,25.975,113.216,21.916c26.579-2.76,55.672-9.584,78.415-24.285
				C2573.012,440.593,2571.254,437.554,2569.347,438.786L2569.347,438.786z"/>
		</g>
	</g>
	<g>
		<g>
			<path fill="#8A8899" d="M2565.48,449.622c-9.239,5.535-19.782,9.221-30.002,12.428c-21.205,6.654-43.061,9.248-65.222,9.529
				c-18.773,0.238-37.861-0.49-56.129-5.172c-13.669-3.504-26.101-9.92-37.51-18.139c-1.841-1.325-3.59,1.721-1.771,3.031
				c11.697,8.426,24.394,14.775,38.349,18.491c18.492,4.924,38.042,5.468,57.062,5.298c22.503-0.201,44.608-3.041,66.155-9.655
				c10.484-3.218,21.378-7.114,30.84-12.78C2569.19,451.491,2567.427,448.456,2565.48,449.622L2565.48,449.622z"/>
		</g>
	</g>
	<g>
		<g>
			<path fill="#8A8899" d="M2565.512,459.72c-7.062,7.531-19.775,10.604-29.291,13.333c-17.277,4.954-35.198,7.803-53.089,9.31
				c-19.241,1.621-38.81,1.479-57.899-1.613c-17.154-2.777-34.806-8.262-48.26-19.674c-1.715-1.455-4.211,1.016-2.482,2.48
				c27.888,23.655,70.429,24.955,105.064,22.59c18.17-1.242,36.329-4.076,53.947-8.706c11.06-2.906,23.569-6.349,32.705-13.577
				c0.639-0.506,1.229-1.067,1.787-1.662C2569.54,460.552,2567.062,458.065,2565.512,459.72L2565.512,459.72z"/>
		</g>
	</g>
	<g>
		<g>
			<path fill="#8A8899" d="M2566.64,473.331c-22.281,14.403-50.629,20.939-76.644,23.807c-38.371,4.23-77.776-2.07-111.444-21.438
				c-1.966-1.13-3.732,1.902-1.771,3.031c34.319,19.741,74.127,25.976,113.216,21.916c26.579-2.76,55.672-9.584,78.415-24.285
				C2570.304,475.138,2568.547,472.099,2566.64,473.331L2566.64,473.331z"/>
		</g>
	</g>
	<g>
		<g>
			<path fill="#8A8899" d="M2565.48,486.54c-9.241,5.532-19.781,9.22-30.002,12.427c-21.205,6.654-43.061,9.247-65.222,9.528
				c-18.773,0.238-37.861-0.489-56.129-5.172c-13.67-3.504-26.102-9.92-37.51-18.139c-1.841-1.325-3.59,1.721-1.771,3.031
				c11.697,8.426,24.394,14.776,38.349,18.492c18.492,4.924,38.042,5.467,57.062,5.297c22.503-0.201,44.608-3.041,66.155-9.654
				c10.485-3.219,21.376-7.115,30.84-12.779C2569.191,488.41,2567.428,485.375,2565.48,486.54L2565.48,486.54z"/>
		</g>
	</g>
	<g>
		<g>
			<path fill="#8A8899" d="M2565.898,497.653c-7.062,7.532-19.775,10.605-29.29,13.334c-17.278,4.954-35.199,7.802-53.089,9.309
				c-19.241,1.62-38.811,1.477-57.899-1.614c-17.154-2.778-34.806-8.263-48.26-19.675c-1.715-1.455-4.21,1.016-2.482,2.48
				c27.888,23.655,70.428,24.957,105.064,22.591c18.169-1.241,36.328-4.075,53.946-8.704c11.06-2.906,23.57-6.35,32.705-13.578
				c0.639-0.506,1.229-1.067,1.787-1.662C2569.927,498.485,2567.449,495.999,2565.898,497.653L2565.898,497.653z"/>
		</g>
	</g>
	<g>
		<g>
			<path fill="#8A8899" d="M2566.64,510.249c-22.281,14.403-50.629,20.939-76.644,23.807c-38.37,4.23-77.776-2.07-111.444-21.438
				c-1.966-1.13-3.732,1.902-1.771,3.031c34.319,19.74,74.128,25.975,113.216,21.916c26.579-2.76,55.672-9.584,78.415-24.285
				C2570.304,512.056,2568.547,509.017,2566.64,510.249L2566.64,510.249z"/>
		</g>
	</g>
	<g>
		<g>
			<path fill="#8A8899" d="M2563.226,525.474c-7.061,7.531-19.774,10.604-29.289,13.333c-17.278,4.954-35.199,7.803-53.089,9.31
				c-19.241,1.62-38.81,1.478-57.898-1.613c-17.155-2.778-34.806-8.264-48.26-19.676c-1.715-1.455-4.21,1.016-2.482,2.48
				c27.887,23.656,70.428,24.957,105.063,22.591c18.169-1.241,36.328-4.075,53.946-8.705c11.06-2.905,23.569-6.349,32.704-13.577
				c0.639-0.506,1.229-1.067,1.787-1.662C2567.254,526.306,2564.776,523.819,2563.226,525.474L2563.226,525.474z"/>
		</g>
	</g>
	<g>
		<g>
			<path fill="#8A8899" d="M2563.969,538.069c-22.281,14.402-50.629,20.938-76.644,23.807c-38.371,4.23-77.776-2.07-111.445-21.438
				c-1.966-1.13-3.732,1.902-1.771,3.031c34.319,19.74,74.128,25.975,113.217,21.916c26.579-2.76,55.672-9.584,78.415-24.285
				C2567.633,539.876,2565.876,536.837,2563.969,538.069L2563.969,538.069z"/>
		</g>
	</g>
	<g>
		<g>
			<path fill="#8A8899" d="M2530.645,350.337c3.034,13.316-26.885,14.65-34.433,15.227c-16.813,1.283-34.124,0.854-50.879-0.771
				c-6.906-0.67-13.753-1.822-20.479-3.526c-3.029-0.768-5.995-1.756-8.921-2.85c-2.524-0.943-10.595-3.514-6.621-7.334
				c4.52-4.345,12.434-6.113,18.282-7.684c7.686-2.062,15.64-3.032,23.561-3.589c12.208-0.858,24.542-0.264,36.723,0.736
				c12.173,0.999,24.596,2.503,36.259,6.274c2.16,0.699,3.077-2.69,0.934-3.383c-11.008-3.561-22.658-5.012-34.133-6.127
				c-12.053-1.172-24.223-1.686-36.325-1.201c-13.234,0.531-27.108,2.428-39.349,7.713c-6.835,2.951-16.243,9.15-6.449,15.229
				c10.383,6.443,24.645,7.998,36.519,9.251c9.649,1.019,19.385,1.256,29.082,1.382c15.017,0.194,30.812-0.145,45.321-4.381
				c7.373-2.152,16.362-6.814,14.293-15.9C2533.526,347.197,2530.143,348.134,2530.645,350.337L2530.645,350.337z"/>
		</g>
	</g>
	<g>
		<g>
			<path fill="#8A8899" d="M2518.11,351.228c-16.783-5.705-33.81-6.438-51.364-6.625c-14.501-0.155-29.317,0.404-43.146,5.271
				c-2.119,0.746-1.207,4.137,0.934,3.383c12.947-4.557,26.694-5.215,40.282-5.16c17.854,0.072,35.291,0.713,52.36,6.514
				C2519.326,355.341,2520.24,351.951,2518.11,351.228L2518.11,351.228z"/>
		</g>
	</g>
	<g>
		<g>
			<path fill="#8A8899" d="M2380.759,359.971c-3.305,0.392-6.852,1.468-8.468,4.653c-1.589,3.131,0.121,6.449,2.199,8.84
				c1.487,1.712,3.959-0.781,2.482-2.48c-1.158-1.332-2.368-3.175-1.464-4.957c0.903-1.779,3.472-2.336,5.25-2.546
				C2382.978,363.218,2383.004,359.705,2380.759,359.971L2380.759,359.971z"/>
		</g>
	</g>
	<g>
		<g>
			<path fill="#8A8899" d="M2377.552,374.097c-7.256,3.1-3.811,9.73-1.58,15.189c0.409-0.72,0.817-1.439,1.226-2.158
				c-6.031,1.667-3.756,9.354-1.049,13.077c0.21-0.8,0.42-1.601,0.63-2.401c-8.226,4.104-6.272,15.389-0.355,20.705
				c0.709-0.918,1.418-1.837,2.127-2.756c-3.086-1.513-9.01-3.42-8.194,2.244c0.654,4.545,5.034,9.167,7.728,12.69
				c0.506-0.88,1.011-1.761,1.516-2.641c-3.844-0.368-8.603,0.296-7.501,5.259c0.961,4.329,5.326,7.068,7.146,10.929
				c0.801-0.8,1.601-1.601,2.401-2.401c-7.658-4.215-8.407,3.711-5.882,9.175c0.506-0.88,1.011-1.761,1.516-2.641
				c-10.649-0.962-6.811,10.071-3.837,15.85c0.661-0.859,1.321-1.719,1.982-2.577c-12.554-3.359-1.396,15.299,1.387,18.85
				c0.569-0.977,1.139-1.955,1.708-2.932c-8.06-1.518-8.623,7.688-3.286,11.676c0.451-1.069,0.901-2.139,1.353-3.207
				c-12.308-1.799-5.454,10.35-2.755,16.122c0.661-0.859,1.321-1.719,1.982-2.577c-13.023-1.898-2.498,12.254,0.336,16.804
				c0.661-0.859,1.321-1.719,1.982-2.577c-3.732-1.344-8.369-1.66-9.319,3.143c-0.84,4.248,1.422,9.035,2.907,12.9
				c0.72-0.72,1.439-1.439,2.159-2.158c-12.074-2.693-4.43,11.865-1.208,16.464c0.21-0.8,0.42-1.601,0.63-2.401
				c-4.57,2.852-6.377,7.676-1.902,11.562c1.7,1.477,4.193-0.994,2.482-2.48c-1.821-2.959-1.424-4.977,1.191-6.051
				c0.76-0.475,1.19-1.602,0.63-2.401c-1.097-1.564-2.082-3.195-3.008-4.866c-1.094-1.975-4.277-7.453,0.251-6.443
				c1.185,0.265,2.671-0.826,2.159-2.158c-0.854-2.219-1.687-4.433-2.319-6.727c-0.373-1.354-0.586-2.713-0.584-4.115
				c0.006-2.872,3.401-1.458,4.997-0.885c1.467,0.527,2.762-1.326,1.982-2.577c-1.029-1.651-2.262-3.185-3.356-4.794
				c-1.15-1.693-5.494-7.518-0.944-6.855c1.558,0.228,2.675-1.096,1.982-2.577c-0.744-1.589-1.666-3.097-2.469-4.656
				c-1.343-2.61-3.658-7.028,1.259-6.312c1.998,0.293,2.99-1.983,1.353-3.207c-1.164-0.869-4.106-6.144,0.581-5.262
				c1.815,0.342,2.794-1.545,1.708-2.932c-1.53-1.953-2.787-4.16-3.991-6.321c-0.836-1.499-4.446-7.638-0.812-6.665
				c1.546,0.414,2.675-1.23,1.982-2.577c-1.71-3.323-6.009-11.185,0.806-10.568c1.452,0.131,2.017-1.557,1.516-2.641
				c-0.835-1.806-2.536-6.362,1.079-4.372c1.624,0.894,3.133-0.848,2.401-2.401c-0.986-2.093-2.794-3.888-4.182-5.716
				c-0.848-1.115-1.611-2.279-2.272-3.515c-1.358-2.538,2.434-1.805,3.778-1.676c1.246,0.12,2.299-1.616,1.516-2.641
				c-1.592-2.081-3.14-4.188-4.584-6.374c-0.915-1.387-1.81-2.84-2.452-4.375c-0.479-1.148-0.127-0.617-0.554-0.679
				c1.144,0.164,2.233,0.795,3.254,1.296c1.705,0.836,3.688-1.353,2.127-2.756c-4.238-3.809-6.581-12.088-0.355-15.193
				c0.796-0.397,1.167-1.662,0.63-2.401c-0.976-1.341-4.2-7.051-1.049-7.923c0.839-0.231,1.588-1.27,1.226-2.158
				c-1.468-3.59-5.291-8.979-0.033-11.225C2381.398,376.241,2379.608,373.218,2377.552,374.097L2377.552,374.097z"/>
		</g>
	</g>
	<g>
		<g>
			<path fill="#8A8899" d="M2566.365,361.447c6.778-0.835,2.177,10.725-0.886,12.987c-1.279,0.945-1.026,3.369,0.886,3.271
				c6.846-0.354,0.527,8.294-1.628,10.89c-0.847,1.02-0.448,3.199,1.241,2.995c4.117-0.499,0.203,3.253-1.272,4.183
				c-1.027,0.648-1.077,1.867-0.355,2.756c1.954,2.406,5.099,4.162,6.264,7.133c1.804,4.594-4.38,9.903-7.423,12.398
				c-1.301,1.066-0.114,2.883,1.241,2.995c1.638,0.136,5.21,0.333,5.489,2.757c0.215,1.866-2.485,3.654-3.668,4.475
				c-1.443,1.002-0.908,3.166,0.886,3.271c3.383,0.198,6.653,0.638,4.356,5.185c-1.061,2.1-3.1,3.821-4.825,5.367
				c-1.197,1.072-0.2,2.939,1.241,2.995c3.396,0.13,2.438,0.533,0.565,2.294c-1.404,1.32-3.01,2.422-4.545,3.58
				c-1.392,1.051-0.945,3.134,0.886,3.271c4.881,0.364-0.598,6.979-2.4,7.729c-1.426,0.593-1.9,3,0,3.383
				c7.229,1.462,4.173,8.39,0.386,11.973c-0.916,0.866-0.521,2.672,0.774,2.932c1.363,0.274,2.6,0.393,3.995,0.383
				c4.172-0.025-2.766,6.268-3.254,6.568c-1.39,0.857-0.955,2.662,0.419,3.207c4.176,1.659,4.449,3.33,1.734,6.328
				c-1.321,1.459-2.746,2.816-4.055,4.289c-0.834,0.938-0.582,2.617,0.774,2.932c1.663,0.387,7.052,1.094,4.902,3.687
				c-1.464,1.767-3.498,3.153-5.291,4.558c-1.268,0.992-0.15,2.984,1.241,2.995c2.325,0.019,4.846,0.077,3.566,2.933
				c-0.767,1.709-2.049,3.22-3.244,4.635c-1.916,2.268-4.093,4.291-6.202,6.373c-0.853,0.842-0.573,2.736,0.774,2.932
				c2.831,0.412,5.762,0.822,8.389,2.014c2.124,0.963-4.876,6.654-5.685,7.584c-0.713,0.82-0.697,2.189,0.355,2.756
				c8.643,4.64-1.326,9.35-6.186,11.533c-2.062,0.927-0.275,3.95,1.771,3.031c4.221-1.897,9.317-4.24,11.487-8.604
				c2.064-4.152-2.138-7.293-5.302-8.992c0.118,0.919,0.236,1.838,0.355,2.756c2.317-2.664,8.607-6.164,7.412-10.512
				c-1.104-4.016-8.448-4.482-11.665-4.949c0.258,0.977,0.516,1.955,0.774,2.932c3.761-3.711,8.093-7.477,10.295-12.388
				c2.397-5.35-2.262-7.507-6.897-7.543c0.414,0.999,0.827,1.997,1.241,2.995c2.233-1.748,7.306-4.811,7.186-8.255
				c-0.145-4.123-5.131-5.105-8.346-5.853c0.258,0.977,0.516,1.955,0.774,2.932c2.527-2.842,6.567-5.689,7.312-9.648
				c0.725-3.848-3.734-5.718-6.541-6.832c0.14,1.068,0.279,2.138,0.419,3.207c3.103-1.912,6.518-5.104,6.669-8.965
				c0.185-4.732-5.424-3.834-8.248-4.4c0.258,0.977,0.516,1.955,0.774,2.932c5.835-5.52,7.999-15.829-1.935-17.836
				c0,1.127,0,2.256,0,3.383c5.938-2.471,11.041-13.908,1.467-14.622c0.295,1.091,0.591,2.181,0.886,3.271
				c2.788-2.105,6.534-4.265,8.001-7.575c1.711-3.86-3.125-4.737-5.793-4.84c0.414,0.999,0.827,1.997,1.241,2.995
				c3.307-2.963,7.624-7.168,6.568-12.117c-0.943-4.428-4.795-4.203-8.582-4.425c0.295,1.091,0.591,2.181,0.886,3.271
				c2.497-1.732,6.594-5.119,5.253-8.756c-1.412-3.829-5.112-4.705-8.846-5.017c0.413,0.999,0.827,1.997,1.241,2.995
				c3.499-2.868,8.683-7.74,8.633-12.756c-0.057-5.705-4.206-7.712-7.474-11.736c-0.119,0.918-0.237,1.837-0.355,2.756
				c4.858-3.065,8.446-11.807-0.499-10.724c0.414,0.999,0.827,1.997,1.241,2.995c4.045-4.871,10.868-17.486-0.854-16.88
				c0.295,1.091,0.591,2.181,0.886,3.271c5.425-4.01,10.609-20.945-0.886-19.528
				C2564.149,358.211,2564.123,361.724,2566.365,361.447L2566.365,361.447z"/>
		</g>
	</g>
</g>
<g>
	<g>
		<path fill="#CACBD5" d="M2376.329,565.356c0-2.73-1.036-5.381-2.975-7.918c1.906-2.518,2.924-5.146,2.924-7.854
			c0-2.627-0.958-5.182-2.757-7.631c1.592-2.314,2.44-4.719,2.44-7.186c0-2.516-0.879-4.963-2.532-7.318
			c1.449-2.209,2.215-4.502,2.215-6.852c0-2.461-0.842-4.857-2.427-7.164c1.382-2.164,2.108-4.402,2.108-6.695
			c0-2.797-1.083-5.51-3.115-8.104c1.524-2.264,2.331-4.613,2.331-7.025c0-2.891-1.156-5.695-3.324-8.369
			c1.279-2.086,1.957-4.24,1.957-6.445c0-3.031-1.273-5.963-3.646-8.752c1.378-2.158,2.104-4.396,2.104-6.686
			c0-2.18-0.662-4.309-1.914-6.371c1.732-2.406,2.647-4.914,2.647-7.488c0-2.73-1.034-5.381-2.975-7.918
			c1.906-2.518,2.925-5.146,2.925-7.854c0-2.627-0.956-5.182-2.757-7.631c1.594-2.314,2.44-4.719,2.44-7.186
			c0-2.516-0.878-4.965-2.533-7.318c1.449-2.211,2.216-4.502,2.216-6.852c0-2.461-0.843-4.857-2.427-7.164
			c1.383-2.162,2.109-4.402,2.109-6.695c0-2.797-1.084-5.51-3.116-8.104c1.522-2.264,2.332-4.613,2.332-7.023
			c0-2.891-1.157-5.697-3.326-8.371c1.281-2.084,1.958-4.24,1.958-6.445c0-18.295-43.916-27.641-100.896-27.641
			c-56.979,0-87.756,10.387-100.527,28.467c-1.706,2.414,2.362,7.328,4.531,10.002c-1.28,2.086-8.082,1.783-8.082,3.988
			c0,2.797,1.085,5.512,3.116,8.105c-1.522,2.262-2.331,4.611-2.331,7.021c0,2.459,0.842,4.857,2.425,7.164
			c-1.381,2.162-2.108,4.402-2.108,6.695c0,2.516,0.878,4.965,2.532,7.32c-1.448,2.211-2.214,4.5-2.214,6.85
			c0,2.627,0.956,5.184,2.756,7.633c-1.593,2.312-2.44,4.717-2.44,7.184c0,2.73,1.035,5.381,2.975,7.92
			c-1.906,2.518-2.923,5.146-2.923,7.852c0,2.178,0.661,4.309,1.912,6.369c-1.732,2.406-2.647,4.914-2.647,7.49
			c0,3.029,1.272,5.963,3.646,8.752c-1.379,2.16-2.103,4.395-2.103,6.686c0,2.893,1.157,5.697,3.326,8.373
			c-1.28,2.084-1.957,4.238-1.957,6.441c0,2.797,1.083,5.512,3.115,8.107c-1.521,2.262-2.331,4.611-2.331,7.021
			c0,2.461,0.842,4.857,2.426,7.162c-1.383,2.164-2.109,4.402-2.109,6.697c0,2.516,0.879,4.965,2.533,7.32
			c-1.448,2.211-2.216,4.5-2.216,6.85c0,2.627,0.958,5.184,2.757,7.631c-1.594,2.314-2.439,4.719-2.439,7.186
			c0,2.729,1.034,5.381,2.974,7.918c-1.906,2.52-2.924,5.146-2.924,7.854c0,2.178,0.663,4.309,1.913,6.369
			c-1.731,2.406-2.647,4.914-2.647,7.49c0,18.295,46.19,33.127,103.171,33.127c56.979,0,103.171-14.832,103.171-33.127
			c0-2.18-0.662-4.309-1.913-6.369C2375.414,570.438,2376.329,567.933,2376.329,565.356z"/>
	</g>
	<g>
		<g>
			<path fill="#8A8899" d="M2170.835,360.919c0.502-4.471,5.844-7.531,9.276-9.609c4.421-2.677,9.242-4.723,14.063-6.55
				c12.175-4.614,25.096-7.659,37.959-9.536c31.842-4.645,65.837-3.189,97.369,2.854c9.01,1.727,17.889,5.275,25.906,9.672
				c6.432,3.527,17.107,10.562,12.104,19.096c-2.521,4.302-7.655,7.949-11.619,10.807c-4.547,3.275-9.588,5.853-14.777,7.938
				c-11.153,4.479-23.266,6.363-35.146,7.654c-25.764,2.802-52.555,3.559-78.171-0.835c-12.138-2.082-24.128-5.985-35.541-10.552
				c-8.694-3.478-21.78-9.493-21.425-20.553c0.075-2.338-3.548-2.33-3.623,0c-0.294,9.124,6.843,15.127,14.096,19.34
				c10.511,6.104,22.837,9.621,34.48,12.83c26.344,7.262,55.061,6.273,82.038,4.147c21.522-1.695,44.696-4.919,62.246-18.582
				c5.911-4.601,13.444-10.374,12.279-18.724c-1.015-7.275-9.384-12.432-15.113-15.695c-12.783-7.279-26.847-10.403-41.269-12.446
				c-21.666-3.069-43.651-3.506-65.476-2.249c-19.268,1.109-38.229,4.459-56.423,11.023c-8.856,3.195-25.613,8.871-26.859,19.971
				C2166.951,363.239,2170.577,363.214,2170.835,360.919L2170.835,360.919z"/>
		</g>
	</g>
	<g>
		<g>
			<path fill="#8A8899" d="M2174.289,595.983c17.273,10.861,36.068,17.832,56.291,20.605c21.089,2.893,42.9,2.032,64.082,0.703
				c19.432-1.221,38.423-4.477,56.794-10.956c3.944-1.392,29.497-8.792,24.721-16.292c-1.251-1.965-4.388-0.148-3.129,1.828
				c1.429,2.243-27.207,12.589-30.113,13.551c-18.484,6.118-38.376,7.963-57.727,8.728c-18.854,0.744-37.902,1.274-56.627-1.476
				c-18.811-2.764-36.405-9.723-52.464-19.82C2174.133,591.606,2172.316,594.743,2174.289,595.983L2174.289,595.983z"/>
		</g>
	</g>
	<g>
		<g>
			<path fill="#8A8899" d="M2375.437,592.77c2.337,0,2.337-3.623,0-3.623S2373.1,592.77,2375.437,592.77L2375.437,592.77z"/>
		</g>
	</g>
	<g>
		<g>
			<path fill="#8A8899" d="M2371.316,364.654c2.337,0,2.337-3.623,0-3.623S2368.979,364.654,2371.316,364.654L2371.316,364.654z"/>
		</g>
	</g>
	<g>
		<g>
			<path fill="#8A8899" d="M2167.697,389.026c9.943,6.355,21.487,10.688,32.608,14.42c22.698,7.617,46.234,10.679,70.101,11.029
				c20.468,0.301,41.354-0.554,61.205-5.951c15.065-4.097,28.698-11.563,41.03-21.037c1.826-1.402,0.025-4.553-1.828-3.129
				c-12.154,9.336-25.373,16.503-40.165,20.672c-19.474,5.487-40.146,6.043-60.242,5.822c-23.599-0.26-46.686-3.519-69.138-10.9
				c-10.847-3.566-22.065-7.87-31.743-14.055C2167.551,384.636,2165.735,387.772,2167.697,389.026L2167.697,389.026z"/>
		</g>
	</g>
	<g>
		<g>
			<path fill="#8A8899" d="M2166.507,401.052c6.794,7.741,18.652,11.466,28.068,14.613c16.379,5.477,33.496,8.776,50.599,10.968
				c36.48,4.674,78.184,4.708,111.521-12.881c5.745-3.031,11.09-6.805,15.903-11.161c1.735-1.571-0.835-4.126-2.562-2.562
				c-28.178,25.506-72.562,27.113-108.399,24.613c-18.673-1.304-37.29-4.361-55.363-9.244c-11.679-3.156-25.089-6.871-34.738-14.553
				c-0.892-0.709-1.714-1.5-2.465-2.355C2167.525,396.729,2164.973,399.304,2166.507,401.052L2166.507,401.052z"/>
		</g>
	</g>
	<g>
		<g>
			<path fill="#8A8899" d="M2166.462,415.954c23.977,16.535,55.022,24.217,83.52,27.559c41.735,4.895,84.594-2.767,120.602-24.865
				c1.987-1.22,0.169-4.354-1.828-3.129c-35.676,21.895-77.494,28.951-118.773,24.371c-27.817-3.086-58.343-10.962-81.691-27.064
				C2166.361,411.495,2164.552,414.638,2166.462,415.954L2166.462,415.954z"/>
		</g>
	</g>
	<g>
		<g>
			<path fill="#8A8899" d="M2165.637,436.341c9.943,6.355,21.487,10.688,32.608,14.42c22.698,7.617,46.234,10.682,70.101,11.031
				c20.468,0.3,41.354-0.555,61.205-5.952c15.065-4.097,28.698-11.562,41.031-21.036c1.826-1.402,0.025-4.553-1.828-3.129
				c-12.154,9.336-25.373,16.502-40.166,20.671c-19.474,5.487-40.146,6.043-60.242,5.823c-23.599-0.26-46.686-3.52-69.138-10.902
				c-10.847-3.566-22.065-7.87-31.743-14.055C2165.49,431.95,2163.675,435.087,2165.637,436.341L2165.637,436.341z"/>
		</g>
	</g>
	<g>
		<g>
			<path fill="#8A8899" d="M2164.446,448.368c6.794,7.74,18.652,11.465,28.068,14.613c16.379,5.475,33.496,8.775,50.599,10.967
				c36.48,4.674,78.184,4.709,111.521-12.881c5.745-3.031,11.09-6.804,15.903-11.16c1.735-1.571-0.835-4.126-2.562-2.562
				c-28.178,25.504-72.563,27.111-108.399,24.611c-18.673-1.303-37.29-4.36-55.363-9.244c-11.679-3.155-25.089-6.871-34.738-14.551
				c-0.892-0.709-1.714-1.5-2.465-2.355C2165.465,444.046,2162.912,446.62,2164.446,448.368L2164.446,448.368z"/>
		</g>
	</g>
	<g>
		<g>
			<path fill="#8A8899" d="M2164.401,463.271c23.977,16.535,55.022,24.217,83.521,27.559c41.734,4.893,84.593-2.769,120.601-24.867
				c1.987-1.22,0.169-4.354-1.828-3.129c-35.676,21.895-77.494,28.951-118.772,24.372c-27.818-3.087-58.343-10.962-81.692-27.063
				C2164.301,458.812,2162.491,461.954,2164.401,463.271L2164.401,463.271z"/>
		</g>
	</g>
	<g>
		<g>
			<path fill="#8A8899" d="M2168.521,475.579c9.944,6.355,21.487,10.688,32.608,14.42c22.698,7.617,46.235,10.68,70.102,11.029
				c20.468,0.3,41.354-0.555,61.205-5.951c15.065-4.096,28.698-11.562,41.03-21.037c1.826-1.402,0.024-4.553-1.828-3.129
				c-12.154,9.337-25.373,16.504-40.166,20.672c-19.473,5.486-40.145,6.042-60.241,5.822c-23.6-0.26-46.686-3.519-69.139-10.9
				c-10.847-3.566-22.065-7.87-31.743-14.055C2168.374,471.188,2166.559,474.325,2168.521,475.579L2168.521,475.579z"/>
		</g>
	</g>
	<g>
		<g>
			<path fill="#8A8899" d="M2167.742,486.452c6.794,7.74,18.652,11.465,28.068,14.613c16.38,5.475,33.496,8.775,50.6,10.967
				c36.48,4.674,78.184,4.709,111.521-12.881c5.745-3.031,11.09-6.804,15.903-11.16c1.735-1.571-0.835-4.126-2.562-2.562
				c-28.178,25.504-72.563,27.111-108.399,24.611c-18.673-1.303-37.291-4.36-55.363-9.244c-11.679-3.155-25.09-6.871-34.739-14.551
				c-0.892-0.709-1.714-1.5-2.465-2.355C2168.761,482.13,2166.208,484.704,2167.742,486.452L2167.742,486.452z"/>
		</g>
	</g>
	<g>
		<g>
			<path fill="#8A8899" d="M2167.285,502.507c23.977,16.537,55.022,24.219,83.521,27.561c41.734,4.895,84.593-2.768,120.601-24.867
				c1.987-1.22,0.169-4.354-1.828-3.129c-35.675,21.896-77.494,28.953-118.772,24.373c-27.818-3.088-58.344-10.963-81.692-27.066
				C2167.185,498.048,2165.375,501.19,2167.285,502.507L2167.285,502.507z"/>
		</g>
	</g>
	<g>
		<g>
			<path fill="#8A8899" d="M2168.521,517.511c9.945,6.353,21.486,10.686,32.608,14.418c22.699,7.617,46.235,10.679,70.102,11.029
				c20.468,0.301,41.354-0.553,61.205-5.951c15.065-4.096,28.698-11.562,41.03-21.037c1.826-1.402,0.024-4.553-1.828-3.129
				c-12.154,9.338-25.373,16.504-40.166,20.672c-19.473,5.488-40.145,6.043-60.241,5.822c-23.6-0.26-46.686-3.519-69.139-10.9
				c-10.848-3.566-22.063-7.871-31.743-14.053C2168.373,513.12,2166.558,516.257,2168.521,517.511L2168.521,517.511z"/>
		</g>
	</g>
	<g>
		<g>
			<path fill="#8A8899" d="M2167.33,529.536c6.794,7.74,18.652,11.465,28.068,14.613c16.379,5.475,33.496,8.775,50.599,10.967
				c36.48,4.674,78.184,4.709,111.521-12.881c5.745-3.031,11.09-6.804,15.903-11.16c1.735-1.571-0.835-4.126-2.562-2.562
				c-28.178,25.504-72.563,27.111-108.399,24.611c-18.673-1.303-37.29-4.36-55.363-9.244c-11.679-3.155-25.089-6.871-34.738-14.551
				c-0.892-0.709-1.714-1.5-2.465-2.355C2168.349,525.214,2165.796,527.788,2167.33,529.536L2167.33,529.536z"/>
		</g>
	</g>
	<g>
		<g>
			<path fill="#8A8899" d="M2167.285,544.437c23.977,16.537,55.022,24.219,83.521,27.561c41.734,4.895,84.593-2.768,120.601-24.867
				c1.987-1.22,0.169-4.354-1.828-3.129c-35.675,21.896-77.494,28.953-118.772,24.373c-27.818-3.088-58.344-10.963-81.692-27.066
				C2167.185,539.978,2165.375,543.12,2167.285,544.437L2167.285,544.437z"/>
		</g>
	</g>
	<g>
		<g>
			<path fill="#8A8899" d="M2170.176,561.134c6.794,7.74,18.652,11.465,28.068,14.613c16.38,5.475,33.496,8.775,50.6,10.967
				c36.48,4.674,78.184,4.709,111.521-12.881c5.745-3.031,11.09-6.804,15.903-11.16c1.735-1.571-0.835-4.126-2.562-2.562
				c-28.178,25.504-72.563,27.111-108.399,24.611c-18.673-1.303-37.291-4.36-55.363-9.244c-11.679-3.155-25.09-6.871-34.739-14.551
				c-0.892-0.709-1.714-1.5-2.465-2.355C2171.194,556.812,2168.642,559.386,2170.176,561.134L2170.176,561.134z"/>
		</g>
	</g>
	<g>
		<g>
			<path fill="#8A8899" d="M2170.132,576.034c23.976,16.537,55.021,24.219,83.52,27.561c41.735,4.895,84.594-2.768,120.601-24.867
				c1.987-1.22,0.169-4.354-1.828-3.129c-35.675,21.896-77.494,28.953-118.772,24.373c-27.818-3.087-58.343-10.963-81.691-27.066
				C2170.031,571.575,2168.222,574.717,2170.132,576.034L2170.132,576.034z"/>
		</g>
	</g>
	<g>
		<g>
			<path fill="#8A8899" d="M2203.945,358.514c-2.894,13.401,13.772,17.983,23.687,19.964c14.084,2.812,28.761,3.119,43.079,2.779
				c11.179-0.264,22.379-0.637,33.463-2.222c11.657-1.667,26.381-3.973,35.76-11.731c8.127-6.723-6.853-13.996-11.396-15.825
				c-12.945-5.211-26.79-7.277-40.662-7.96c-12.488-0.613-25.085,0.139-37.516,1.337c-12.41,1.196-25.083,2.923-36.909,7.008
				c-2.194,0.759-1.252,4.259,0.963,3.494c11.546-3.987,23.843-5.649,35.946-6.878c11.88-1.207,23.873-1.768,35.812-1.404
				c14.823,0.45,30.104,2.703,43.681,8.924c2.667,1.223,5.273,2.677,7.421,4.693c3.812,3.581-3.904,6.562-6.314,7.66
				c-6.682,3.044-13.973,4.777-21.156,6.137c-18.298,3.462-37.636,3.699-56.25,3.045c-8.358-0.295-16.732-0.99-24.956-2.551
				c-6.525-1.238-14.141-2.997-19.026-7.817c-2.112-2.084-2.745-4.842-2.13-7.689
				C2207.932,357.198,2204.438,356.229,2203.945,358.514L2203.945,358.514z"/>
		</g>
	</g>
	<g>
		<g>
			<path fill="#8A8899" d="M2221.829,364.205c17.818-6.472,35.962-7.21,54.707-7.397c14.853-0.148,29.973,0.566,44.034,5.858
				c2.191,0.825,3.129-2.679,0.963-3.494c-14.363-5.405-29.835-6.09-44.997-5.987c-19.053,0.129-37.569,0.951-55.67,7.526
				C2218.688,361.502,2219.628,365.005,2221.829,364.205L2221.829,364.205z"/>
		</g>
	</g>
	<g>
		<g>
			<path fill="#8A8899" d="M2367.196,374.271c2.068,0.263,4.321,0.936,5.522,2.766c1.305,1.987-0.175,4.501-1.447,6.065
				c-1.461,1.795,1.087,4.375,2.562,2.562c2.2-2.704,3.881-6.131,2.422-9.6c-1.529-3.639-5.442-4.958-9.06-5.417
				C2364.883,370.354,2364.911,373.981,2367.196,374.271L2367.196,374.271z"/>
		</g>
	</g>
	<g>
		<g>
			<path fill="#8A8899" d="M2368.755,389.796c5.777,2.566,1.563,8.829-0.009,12.956c-0.354,0.93,0.385,1.978,1.266,2.229
				c3.483,0.991-0.014,7.708-1.083,9.265c-0.541,0.787-0.179,2.045,0.65,2.479c6.752,3.533,4.183,13.223-0.367,17.541
				c-1.541,1.463,0.417,3.781,2.195,2.846c1.034-0.543,2.053-1.049,3.166-1.411c0.917-0.299,0.295-0.762-0.062,0.502
				c-0.504,1.776-1.587,3.45-2.519,5.026c-1.56,2.641-3.339,5.148-5.124,7.639c-0.763,1.064,0.246,2.863,1.564,2.726
				c1.255-0.131,4.935-0.927,4.403,1.294c-0.4,1.676-1.647,3.264-2.599,4.658c-1.498,2.199-3.532,4.253-4.605,6.709
				c-0.683,1.562,0.777,3.484,2.479,2.479c3.933-2.324,2.046,3.342,1.229,5.215c-0.482,1.107,0.042,2.883,1.564,2.726
				c7.526-0.776,2.688,8.595,0.908,12.276c-0.661,1.367,0.418,3.135,2.046,2.661c4.119-1.2,0.287,5.644-0.573,7.396
				c-1.361,2.77-2.934,5.537-4.77,8.023c-1.027,1.391,0.656,2.955,2.046,2.661c5.091-1.077,2.056,5.22,0.298,6.589
				c-1.606,1.252,0.215,3.274,1.763,3.028c4.939-0.785,3.181,3.362,1.923,6.31c-0.937,2.193-2.192,4.232-3.146,6.416
				c-0.662,1.516,0.4,2.924,2.046,2.661c4.96-0.794,0.835,5.107-0.445,7.251c-1.274,2.133-2.824,4.098-4.071,6.244
				c-0.74,1.272,0.5,3.26,2.046,2.661c5.205-2.014,5.931,0.382,4.961,5.106c-0.593,2.889-1.66,5.672-2.658,8.438
				c-0.49,1.358,0.98,2.532,2.229,2.229c4.779-1.163,1.892,4.306,0.774,6.69c-1.041,2.225-2.296,4.369-3.645,6.42
				c-0.562,0.855-0.142,1.961,0.65,2.479c2.855,1.867,4.373,4.355,1.281,7.156c-1.735,1.572,0.835,4.127,2.562,2.562
				c4.721-4.277,2.861-9.659-2.016-12.848c0.217,0.826,0.434,1.652,0.65,2.479c3.16-4.803,11.77-21.596-1.222-18.433
				c0.742,0.743,1.485,1.485,2.229,2.229c1.61-4.466,3.661-9.39,3.142-14.23c-0.589-5.476-5.829-5.347-9.901-3.771
				c0.682,0.888,1.364,1.774,2.046,2.661c2.781-4.784,14.386-21.051,0.425-18.817c0.682,0.888,1.364,1.774,2.046,2.661
				c2.648-6.064,10.426-20.16-2.869-18.048c0.587,1.009,1.175,2.019,1.763,3.028c5.457-4.25,4.475-14.4-3.823-12.646
				c0.682,0.888,1.364,1.774,2.046,2.661c2.761-3.738,14.437-24.582,1.251-20.741c0.682,0.888,1.364,1.774,2.046,2.661
				c2.938-6.074,7.546-18.922-4.037-17.728c0.521,0.909,1.043,1.817,1.564,2.726c2.466-5.654,2.164-15.107-6.187-10.172
				c0.826,0.826,1.652,1.652,2.479,2.479c1.931-4.42,5.951-7.562,7.569-12.231c1.857-5.36-4.1-6.278-7.897-5.881
				c0.521,0.909,1.043,1.817,1.564,2.726c3.025-4.22,6.276-8.588,8.008-13.53c2.318-6.617-5.019-4.975-8.426-3.183
				c0.731,0.949,1.463,1.896,2.195,2.846c6.249-5.931,8.491-18.598-0.367-23.232c0.217,0.826,0.434,1.652,0.65,2.479
				c2.783-4.049,5.439-12.73-1.083-14.587c0.422,0.743,0.844,1.485,1.266,2.229c2.271-5.965,6.182-13.566-1.657-17.048
				C2368.468,385.728,2366.623,388.849,2368.755,389.796L2368.755,389.796z"/>
		</g>
	</g>
	<g>
		<g>
			<path fill="#8A8899" d="M2169.917,368.404c-12.358-1.705-7.8,16.8-1.763,21.493c0.427-1.031,0.854-2.062,1.281-3.093
				c-12.659-0.744-4.928,13.662-0.869,18.864c0.588-1.01,1.176-2.02,1.763-3.028c-9.763-1.329-6.517,8.111-0.983,11.774
				c-0.217-0.826-0.434-1.652-0.65-2.479c-3.395,4.496-7.645,6.64-7.664,12.838c-0.018,5.55,5.347,11.023,9.183,14.361
				c0.427-1.031,0.854-2.062,1.281-3.093c-3.27,0.28-8.378,1.224-9.257,5.161c-1,4.482,2.094,7.665,5.459,10.141
				c0.305-1.125,0.609-2.251,0.914-3.376c-3.75,0.238-7.397-0.06-8.918,3.959c-2.093,5.53,3.26,11.128,6.813,14.521
				c0.427-1.031,0.854-2.062,1.281-3.093c-2.39,0.093-7.587,0.796-6.358,4.576c1.268,3.899,5.329,6.452,8.372,8.903
				c0.427-1.031,0.854-2.062,1.281-3.093c-9.822,0.702-5.106,13.354,1.146,16.071c0.144-1.104,0.288-2.207,0.433-3.312
				c-10.774,2.261-8.062,13.919-2.036,19.952c0.267-1.01,0.533-2.02,0.8-3.028c-3.188,0.716-8.848-0.349-8.745,4.825
				c0.083,4.188,3.763,7.875,7.077,10.027c0.144-1.104,0.288-2.207,0.433-3.312c-3.101,1.299-7.796,3.49-6.915,7.7
				c0.9,4.305,5.081,7.489,7.763,10.715c0.267-1.01,0.533-2.02,0.8-3.028c-2.825,0.694-8.816,1.953-8.843,5.937
				c-0.028,4.246,4.757,7.391,7.631,9.787c0.427-1.031,0.854-2.062,1.281-3.093c-5.395,0.028-9.582,2.638-7.247,8.43
				c2.186,5.423,6.962,9.741,10.91,13.897c0.267-1.01,0.533-2.02,0.8-3.028c-3.522,0.546-11.195,1.152-12.39,5.496
				c-1.3,4.725,5.431,8.733,7.882,11.765c0.122-0.949,0.244-1.896,0.367-2.846c-3.825,2.178-7.41,5.311-5.59,10.051
				c1.82,4.738,7.955,7.598,12.182,9.619c2.097,1.003,3.936-2.121,1.828-3.129c-2.302-1.102-4.512-2.305-6.64-3.717
				c-1.353-0.896-2.589-2.018-3.567-3.314c-2.214-2.936,1.477-5.164,3.615-6.381c1.097-0.624,1.083-1.96,0.367-2.846
				c-2.085-2.578-4.894-4.465-6.671-7.306c-1.426-2.28,8.296-3.699,9.579-3.898c1.417-0.22,1.647-2.136,0.8-3.028
				c-2.234-2.352-4.486-4.666-6.554-7.17c-1.446-1.752-2.851-3.702-3.704-5.822c-1.22-3.024,1.687-3.137,4.032-3.149
				c1.473-0.008,2.543-2.04,1.281-3.093c-1.815-1.514-3.615-3.027-5.251-4.736c-3.207-3.352,2.349-4.312,4.863-4.931
				c1.425-0.351,1.628-2.032,0.8-3.028c-1.492-1.795-3.099-3.484-4.639-5.237c-2.977-3.39-1.932-5.394,2.191-7.121
				c1.426-0.597,1.854-2.388,0.433-3.312c-1.968-1.278-3.519-3.043-4.767-5.016c-2.102-3.323,4.222-2.911,5.569-3.214
				c1.35-0.304,1.728-2.099,0.8-3.028c-4.017-4.021-7.495-12.231,0.437-13.896c1.447-0.304,1.875-2.685,0.433-3.312
				c-2.455-1.066-8.396-8.932-2.975-9.319c1.399-0.1,2.627-2.009,1.281-3.093c-1.407-1.133-2.822-2.25-4.189-3.432
				c-1.856-1.604-4.71-3.695-0.387-3.862c1.525-0.059,2.469-1.959,1.281-3.093c-1.963-1.873-3.724-3.803-5.149-6.13
				c-3.075-5.015,0.915-5.924,4.691-6.164c1.885-0.12,2.361-2.312,0.914-3.376c-1.657-1.219-3.099-2.477-3.822-4.449
				c-1.199-3.27,3.941-3.941,5.792-4.101c1.433-0.122,2.582-1.96,1.281-3.093c-3.916-3.407-8.878-8.357-7.98-14.043
				c0.533-3.375,5.038-6.129,7.028-8.766c0.619-0.82,0.098-1.983-0.65-2.479c-1.09-0.722-6.04-5.728-1.808-5.151
				c1.849,0.251,2.926-1.537,1.763-3.028c-2.295-2.941-9.239-13.122-1.693-12.679c1.479,0.087,2.537-2.116,1.281-3.093
				c-2.862-2.225-8.876-16.418-1.763-15.437C2171.238,372.214,2172.224,368.723,2169.917,368.404L2169.917,368.404z"/>
		</g>
	</g>
</g>
</svg>
