<?xml version="1.0" encoding="utf-8"?>
<!-- Generator: Adobe Illustrator 16.0.4, SVG Export Plug-In . SVG Version: 6.00 Build 0)  -->
<!DOCTYPE svg PUBLIC "-//W3C//DTD SVG 1.1//EN" "http://www.w3.org/Graphics/SVG/1.1/DTD/svg11.dtd">
<svg version="1.1" id="text-big" xmlns="http://www.w3.org/2000/svg" xmlns:xlink="http://www.w3.org/1999/xlink" x="0px" y="0px"
	 width="3035.786px" height="1466.93px" viewBox="0 0 3035.786 1466.93" enable-background="new 0 0 3035.786 1466.93"
	 xml:space="preserve">
<g>
	<path fill="#1D1B3A" d="M1771.803,82.846c-3.238,3.773-7.124,9.08-16.964,10.736c-5.008,0.829-11.549,0.245-13.556-3.231
		c-1.18-2.062-0.359-7.366-0.301-9.429c0.173-5.539,0.283-15.557-0.369-21.272c-2.299-0.883-2.125-5.715-1.302-7.482
		c1.295-2.653,0.41-3.065,3.592-4.069c2.71-0.886,2.888,0.882,3.831,1.058c2.652-0.237,9.37-1.009,11.903-1.188
		c5.775-0.299,9.134-0.183,12.495,1.523c3.065,1.589,3.835,6.244,2.128,9.251c-0.707,1.237-3.533,4.009-8.598,8.079
		c3.595,0.704,8.9,2.999,10.375,4.589C1777.041,73.707,1774.275,79.956,1771.803,82.846z M1745.632,74.85
		c-0.646,2.121-0.466,7.013-0.17,9.075c4.363,2.885,11.965,2.702,18.267-2.135c2.474-1.888,4.593-5.484,2.117-6.955
		C1758.889,70.715,1748.755,74.141,1745.632,74.85z M1745.973,57.524c-1.059,2.535-0.523,9.841-0.523,9.841
		c3.89-0.18,12.903-3.367,15.495-4.843c2.592-1.416,6.126-3.188,5.476-5.661C1765.771,54.504,1749.862,56.343,1745.973,57.524z"/>
	<path fill="#1D1B3A" d="M1811.741,55.768c-3.771,0.356-15.145,0.306-23.452,2.198c0,0-4.003,5.776-2.115,9.017
		c5.185-1.595,19.386-1.958,22.981-2.079c3.595-0.062,3.892,2.708,4.07,4.417c0.356,3.83-3.239,2.949-6.657,3.01
		c-3.948,0.121-18.739,1.192-21.39,2.138c0,0-3.058,7.604,1.009,9.31c4.832-0.238,13.849-0.305,20.978-2.195
		c4.124-1.122,7.659-2.068,7.132,1.821c-0.528,3.891-2.177,4.362-5.241,4.954c-1.709,0.296-9.958,2.247-18.738,2.371
		c-5.657,0.121-6.186,1.537-9.369,1.067c-1.592-0.294-2.418-2.827-2.243-4.948c0.234-2.122,0.702-6.424,1.054-8.428
		c0.293-2.062,0.409-5.599,0.406-9.37c0.057-3.713,1.288-12.611,1.58-15.5c0.527-5.245,3.063-2.241,6.363-3.068
		c3.653-0.887,17.854-1.369,22.451-2.021c4.36-0.651,5.246,2.235,5.012,3.886C1815.276,54.292,1815.571,55.352,1811.741,55.768z"/>
	<path fill="#1D1B3A" d="M1842.938,82.027c-7.068,5.19-19.792,12.154-22.445,9.504c-1.18-1.177-1.476-2.355-1.358-3.711
		c0.117-1.709,0.822-3.36,1.411-4.951c1.412-3.949,0.341-16.501-0.251-21.863c-2.358-0.999-2.186-7.423,0.347-9.369
		c2.179-1.652,4.537-1.241,9.663-1.716c7.366-0.713,20.154-0.486,25.163-0.137c4.714,0.292,9.905,6.652,5.844,14.434
		C1857.779,70.997,1850.594,76.483,1842.938,82.027z M1826.419,58.055c-0.879,6.13-0.866,24.045-0.866,24.045
		c4.006-1.064,15.435-6.67,20.146-10.917c2.414-2.183,12.192-8.672,10.421-12.265C1854.468,55.561,1833.136,56.636,1826.419,58.055z
		"/>
	<path fill="#1D1B3A" d="M1901.386,64.012c-0.353,0.354-9.423,7.373-13.37,9.615c3.065,1.53,9.729,7.478,11.558,10.01
		c1.357,1.885,2.656,5.185,0.949,8.427c-0.706,1.355-3.003,2.241-4.065,1.005c-1.71-2.062-2.654-4.183-7.195-8.305
		c-2.182-2.061-6.958-4.945-9.846-5.65c-1.532-0.353-2.77-0.233-4.184,0.356c-1.649,0.709-1.47,4.187-1.351,6.13
		c0.12,3.064-0.644,6.071-3.649,6.839c-3.005,0.768-3.008-3.239-2.126-6.657c1.175-4.774,0.93-18.092-0.138-27.166
		c-0.768-2.239-2.065-3.653-0.063-6.482c0.883-1.298,4.772-1.89,8.484-2.54c3.653-0.592,8.662-0.891,12.374-1.07
		c7.602-0.3,11.668,0.464,14.264,4.41C1905.742,57.114,1904.036,61.122,1901.386,64.012z M1883.29,56.718
		c-2.18,0.532-8.544,1.126-9.427,2.54c-1.589,2.596-0.465,8.016,0.008,10.902c5.597-1.359,12.903-3.957,16.79-6.848
		c4.476-3.303,6.419-5.603,5.24-6.25C1893.248,55.532,1886,56.067,1883.29,56.718z"/>
	<path fill="#1D1B3A" d="M1940.336,55.675c-3.771,0.356-15.145,0.307-23.452,2.198c0,0-4.003,5.777-2.115,9.017
		c5.185-1.595,19.386-1.958,22.981-2.079c3.595-0.061,3.892,2.708,4.07,4.417c0.356,3.83-3.239,2.949-6.657,3.01
		c-3.948,0.121-18.739,1.192-21.39,2.138c0,0-3.058,7.604,1.009,9.31c4.832-0.238,13.849-0.305,20.978-2.195
		c4.124-1.122,7.659-2.068,7.132,1.822c-0.528,3.89-2.177,4.361-5.241,4.953c-1.709,0.297-9.958,2.247-18.738,2.371
		c-5.657,0.121-6.186,1.537-9.369,1.067c-1.592-0.294-2.418-2.827-2.243-4.948c0.233-2.121,0.702-6.424,1.054-8.428
		c0.293-2.062,0.409-5.599,0.406-9.37c0.057-3.712,1.288-12.611,1.58-15.499c0.527-5.246,3.062-2.242,6.362-3.069
		c3.653-0.887,17.854-1.368,22.451-2.021c4.36-0.651,5.246,2.235,5.012,3.887C1943.871,54.199,1944.166,55.26,1940.336,55.675z"/>
	<path fill="#1D1B3A" d="M2002.887,85.389c-7.127,4.721-20.443,8.029-26.985,7.032c-3.359-0.468-5.188-3.885-5.604-8.128
		c-0.178-1.709,2.059-4.774,3.063-1.534c1.003,3.122,5.482,2.647,11.198,1.878c8.426-1.243,18.205-6.673,19.204-9.147
		c1.236-2.889-8.428-1.586-10.49-1.349c-7.483,0.831-13.669,3.84-18.148,2.548c-2.357-0.706-4.839-9.779,0.284-14.615
		c5.064-4.777,11.895-13.149,21.557-15.396c5.185-1.183,7.015,3.471,7.017,6.417c0.002,3.123-0.526,5.835-2.589,5.129
		c-0.708-0.234-1.003-1.943-1.357-2.71c-1.357-2.71-8.779,1.304-13.904,5.196c-2.415,1.887-7.125,6.487-7.655,8.314
		c4.419-1.182,14.141-2.544,17.147-2.546c4.832-0.004,13.023-0.128,14.617,3.879C2012.309,75.482,2010.073,80.729,2002.887,85.389z"
		/>
	<path fill="#1D1B3A" d="M2044.947,58.369c-4.535,4.07-9.128,8.139-13.781,12.09c6.189,1.823,13.205,6.887,15.152,9.713
		c1.829,2.533,2.066,4.654,1.479,7.837c-0.528,2.712-2.474,1.652-3.889,0.533c-1.533-1.178-3.42-3.887-5.13-4.77
		c-8.843-4.768-14.972-5.765-18.332-6.764c-0.528,3.242-0.35,4.42,0.006,8.662c0.298,3.653,0.653,6.718-2.529,6.603
		c-1.65,0.001-3.302-2.708-3.245-5.242c-0.002-3.3,0.349-6.955,0.523-9.665c0.232-5.363,0.52-14.025-0.543-17.737
		c-1.004-3.477,0.582-9.665,3.174-10.434c3.594-1.062,3.244,3.77,2.598,6.894c-0.411,1.945,0.243,9.723,0.48,11.373
		c5.302-3.187,13.429-9.32,18.199-13.743c2.179-2.064,5.006-4.836,6.301-6.782c1.472-2.299,4.656,1.412,4.953,3.944
		C2050.6,53.18,2046.655,56.836,2044.947,58.369z"/>
	<path fill="#1D1B3A" d="M2061.41,83.521c-0.057,3.241,0.183,9.016-2.115,9.843c-2.533,0.886-4.597-0.999-3.716-5.714
		c0.88-4.95,0.748-25.635,0.45-29.523c-0.238-3.301-1.419-7.13,2.764-7.545c4.891-0.476,3.542,7.952,2.836,9.897
		C2060.688,63.073,2061.523,78.275,2061.41,83.521z"/>
	<path fill="#1D1B3A" d="M2095.417,89.448c-3.3,0.592-11.962,1.423-18.443,2.665c-0.884,0.118-5.361,0.888-5.892,0.829
		c-1.709-0.176-1.946-2.062-1.946-2.945c-0.001-1.297,0.35-4.95,0.349-6.247c-0.003-5.067,0.928-20.271,0.749-24.573
		c-0.239-4.597-1.656-8.249,1.171-10.313c1.354-1.062,4.303,1.116,4.245,2.59c0.001,2.121-0.348,7.778-0.936,10.431
		c-0.646,3.006-0.523,9.9-0.691,21.215c6.069,0.113,12.257-0.421,18.208-1.546c5.538-1.064,9.781-1.951,9.193,1.409
		C2100.719,86.91,2099.778,88.62,2095.417,89.448z"/>
	<path fill="#1D1B3A" d="M2126.452,56.602c-2.77-0.233-9.192,1.657-11.195,1.775c-1.413,2.005-2.169,16.62-1.515,23.986
		c0.653,7.13,1.716,9.545-0.7,10.372c-2.533,0.944-4.48-2.59-4.247-5.242c0.644-7.13,0.05-12.375,0.575-19.446
		c0.175-2.711-0.24-6.836-0.418-8.545c-0.767-0.647-3.478-0.587-6.246-0.408c-2.416,0.179-5.127,1.064-8.015,1.185
		c-3.063,0.179-1.596-7.129-0.477-7.72c2.18-1.062,5.479-1.123,8.367-1.302c4.95-0.181,15.732-1.839,20.799-2.02
		c5.48-0.181,5.307,1.706,5.426,3.296C2129.044,54.772,2127.749,56.719,2126.452,56.602z"/>
	<path fill="#1D1B3A" d="M2164.304,76.787c0.119,2.475,0.418,10.548,0.066,13.023c-0.293,2.239-4.533,4.895-5.715,0.534
		c-0.768-2.65-5.543-6.654-8.08-9.953c-1.475-2.002-9.555-11.779-12.268-12.838c-1,2.535,0.717,12.316,0.131,18.622
		c-0.408,4.773-1.053,8.604-4.709,7.075c-1.887-0.824-1.299-3.652-1.123-5.244c0.293-2.771,1.115-5.599,1.113-8.369
		c-0.006-7.72-0.012-15.733-0.664-23.748c-0.119-1.474-0.121-4.302,1.293-4.716c3.652-1.062,7.367,2.529,8.844,6.005
		c2.598,6.245,9.971,15.787,14.982,20.202c1.408-6.188,1.168-14.379,0.986-20.685c0-1.237-0.355-4.008-0.18-5.717
		c0.232-2.003,1.176-3.596,3.416-2.358c2.535,1.412,3.361,5.183,2.598,7.069C2163.524,59.286,2164.063,72.485,2164.304,76.787z"/>
	<path fill="#1D1B3A" d="M2178.866,83.437c-0.057,3.241,0.184,9.015-2.115,9.842c-2.533,0.886-4.598-0.998-3.715-5.713
		c0.879-4.951,0.746-25.636,0.449-29.523c-0.238-3.301-1.42-7.13,2.764-7.546c4.891-0.475,3.541,7.953,2.836,9.897
		C2178.144,62.988,2178.979,78.19,2178.866,83.437z"/>
	<path fill="#1D1B3A" d="M2217.874,76.749c0.119,2.475,0.418,10.548,0.066,13.023c-0.293,2.239-4.533,4.894-5.715,0.534
		c-0.768-2.65-5.543-6.655-8.08-9.953c-1.475-2.003-9.555-11.779-12.268-12.838c-1,2.535,0.717,12.315,0.131,18.622
		c-0.408,4.772-1.053,8.604-4.709,7.074c-1.887-0.823-1.299-3.652-1.123-5.244c0.293-2.77,1.115-5.599,1.113-8.369
		c-0.006-7.72-0.012-15.733-0.664-23.747c-0.119-1.474-0.121-4.302,1.293-4.716c3.652-1.063,7.367,2.528,8.844,6.004
		c2.598,6.245,9.971,15.787,14.982,20.202c1.408-6.188,1.168-14.379,0.986-20.684c0-1.237-0.355-4.008-0.18-5.717
		c0.232-2.003,1.176-3.596,3.416-2.359c2.535,1.412,3.361,5.184,2.598,7.069C2217.095,59.247,2217.634,72.447,2217.874,76.749z"/>
	<path fill="#1D1B3A" d="M2265.144,86.438c-3.533,1.829-7.717,3.601-14.787,4.725c-12.904,2.071-27.342,1.61-27-15.597
		c0.34-16.972,20.189-28.89,34.275-27.545c6.777,0.643,5.131,4.239,3.779,9.367c-0.646,2.299-2.002,2.3-3.064,0.297
		c-1.18-2.18-5.363-1.94-10.432-1.171c-5.068,0.828-14.197,7.494-17.904,14.333c-4.885,8.842,0.01,12.61,6.963,13.195
		c11.904,0.992,19.682-1.724,24.1-4.438c0.705-3.242,0.703-5.776-1.184-7.13c-3.654-0.174-11.904,1.306-14.672,3.193
		c-4.064,2.772-4.658-3.238-4.012-6.244c0.822-3.831,7.365-3.247,14.906-4.076c7.955-0.891,10.135-2.13,9.373,5.591
		c-0.115,1.474-1.113,5.718,0.184,7.838C2267.38,81.486,2266.97,85.494,2265.144,86.438z"/>
	<path fill="#1D1B3A" d="M2304.571,83.346c-0.057,3.241,0.184,9.016-2.113,9.842c-2.535,0.886-4.598-0.998-3.717-5.713
		c0.881-4.95,0.748-25.635,0.449-29.523c-0.238-3.301-1.418-7.13,2.764-7.545c4.893-0.476,3.543,7.952,2.838,9.897
		C2303.849,62.897,2304.687,78.101,2304.571,83.346z"/>
	<path fill="#1D1B3A" d="M2371.929,81.823c-1.766,2.301-5.711,4.482-10.012,6.372c-4.301,1.889-8.662,2.775-10.781,3.779
		c-3.889,1.829-9.133,1.185-10.844,0.185c-3.242-1.942-2.949-3.003-2.715-6.126c0.525-7.073,1.691-25.283,1.336-27.934
		c-4.424-3.945-4.66-5.537-1.539-7.896c2.121-1.652,8.602-2.306,13.375-2.721c6.129-0.477,17.148-1.191,22.514,2.163
		c2.77,1.767,3.186,3.829,1.006,7.071c-1.354,1.945-6.654,6.251-11.543,9.319c4.42-0.003,10.785,1.937,12.496,5.413
		C2376.815,74.631,2374.403,78.698,2371.929,81.823z M2343.874,74.242c-1.354,2.063-1.703,8.723-0.523,11.078
		c5.775-0.475,9.959-1.598,13.611-2.779c3.711-1.181,12.725-5.489,13.076-7.729C2370.39,72.396,2353.007,72.055,2343.874,74.242z
		 M2344.333,56.74c-0.824,2.888-1.174,7.307-0.465,9.311c1.414,0.706,7.424-1.479,10.664-2.896c1.414-0.59,16.908-6.141,11.84-8.317
		C2364.013,53.838,2350.224,54.437,2344.333,56.74z"/>
	<path fill="#1D1B3A" d="M2387.315,83.286c-0.057,3.241,0.184,9.016-2.115,9.842c-2.533,0.886-4.598-0.998-3.715-5.713
		c0.879-4.95,0.746-25.635,0.449-29.523c-0.238-3.301-1.42-7.13,2.764-7.545c4.891-0.476,3.541,7.952,2.836,9.897
		C2386.593,62.838,2387.429,78.041,2387.315,83.286z"/>
	<path fill="#1D1B3A" d="M2424.384,85.086c-7.127,4.72-20.443,8.029-26.984,7.031c-3.359-0.468-5.189-3.885-5.605-8.127
		c-0.178-1.709,2.059-4.775,3.064-1.535c1.004,3.123,5.482,2.647,11.197,1.878c8.426-1.243,18.205-6.672,19.205-9.147
		c1.234-2.889-8.428-1.586-10.49-1.348c-7.484,0.83-13.67,3.84-18.148,2.547c-2.357-0.706-4.84-9.778,0.283-14.615
		c5.064-4.777,11.895-13.149,21.557-15.396c5.186-1.183,7.016,3.472,7.018,6.418c0.002,3.123-0.525,5.834-2.588,5.129
		c-0.707-0.235-1.004-1.944-1.357-2.71c-1.357-2.71-8.779,1.303-13.904,5.195c-2.414,1.888-7.127,6.487-7.654,8.315
		c4.418-1.183,14.141-2.545,17.146-2.547c4.832-0.004,13.023-0.128,14.617,3.879C2433.806,75.18,2431.569,80.425,2424.384,85.086z"
		/>
	<path fill="#1D1B3A" d="M2463.673,56.359c-2.77-0.233-9.191,1.656-11.195,1.775c-1.412,2.005-2.168,16.619-1.514,23.985
		c0.652,7.13,1.715,9.546-0.701,10.372c-2.533,0.944-4.48-2.589-4.246-5.241c0.643-7.131,0.049-12.375,0.574-19.447
		c0.176-2.711-0.24-6.836-0.418-8.545c-0.766-0.647-3.477-0.587-6.246-0.408c-2.416,0.18-5.127,1.065-8.014,1.185
		c-3.064,0.179-1.596-7.129-0.477-7.72c2.18-1.062,5.479-1.123,8.367-1.302c4.949-0.18,15.732-1.838,20.799-2.019
		c5.48-0.181,5.307,1.705,5.426,3.296C2466.265,54.53,2464.97,56.477,2463.673,56.359z"/>
	<path fill="#1D1B3A" d="M2503.694,63.578c-0.354,0.354-9.424,7.373-13.369,9.615c3.064,1.53,9.729,7.478,11.557,10.01
		c1.357,1.885,2.654,5.184,0.949,8.427c-0.707,1.355-3.004,2.241-4.066,1.005c-1.709-2.062-2.654-4.183-7.195-8.305
		c-2.182-2.061-6.957-4.945-9.846-5.65c-1.531-0.353-2.77-0.233-4.184,0.356c-1.648,0.709-1.471,4.186-1.35,6.13
		c0.119,3.064-0.645,6.071-3.648,6.839c-3.006,0.768-3.008-3.239-2.127-6.657c1.176-4.774,0.93-18.092-0.137-27.166
		c-0.77-2.239-2.066-3.653-0.064-6.482c0.883-1.298,4.771-1.89,8.484-2.541c3.652-0.591,8.662-0.89,12.375-1.069
		c7.6-0.3,11.668,0.464,14.264,4.41C2508.05,56.681,2506.345,60.688,2503.694,63.578z M2485.599,56.284
		c-2.182,0.532-8.545,1.126-9.428,2.54c-1.59,2.596-0.467,8.016,0.008,10.902c5.598-1.359,12.902-3.957,16.791-6.848
		c4.475-3.303,6.418-5.603,5.24-6.25C2495.556,55.099,2488.308,55.634,2485.599,56.284z"/>
	<path fill="#1D1B3A" d="M2532.356,89.604c-14.73,2.84-20.332-0.339-23.049-10.708c-2.422-9.191,4.758-19.863,10.707-24.169
		c4.947-3.599,13.018-8.024,19.029-7.498c6.424,0.585,12.025,4.765,13.979,15.901C2554.974,74.208,2543.315,87.476,2532.356,89.604z
		 M2533.806,55.896c-6.895,1.478-19.734,9.854-20.084,17.693c-0.346,9.192,8.26,9.835,16.449,8.297
		c5.539-1.007,17.555-9.146,17.902-15.1C2548.481,59.186,2544.294,53.708,2533.806,55.896z"/>
	<path fill="#1D1B3A" d="M2589.321,55.208c-3.771,0.356-15.145,0.306-23.453,2.197c0,0-4.002,5.777-2.115,9.018
		c5.186-1.595,19.387-1.959,22.982-2.079c3.594-0.062,3.891,2.708,4.068,4.417c0.357,3.83-3.238,2.948-6.656,3.01
		c-3.949,0.121-18.738,1.192-21.391,2.138c0,0-3.059,7.604,1.01,9.31c4.83-0.239,13.848-0.305,20.977-2.196
		c4.123-1.122,7.658-2.067,7.131,1.822s-2.178,4.362-5.24,4.954c-1.709,0.296-9.957,2.246-18.738,2.371
		c-5.656,0.121-6.186,1.536-9.369,1.067c-1.592-0.294-2.418-2.828-2.242-4.949c0.234-2.121,0.703-6.423,1.055-8.427
		c0.293-2.063,0.408-5.6,0.406-9.371c0.055-3.712,1.287-12.611,1.578-15.499c0.527-5.245,3.064-2.241,6.363-3.069
		c3.652-0.886,17.855-1.368,22.451-2.02c4.359-0.651,5.246,2.235,5.012,3.886C2592.856,53.731,2593.151,54.792,2589.321,55.208z"/>
	<path fill="#1D1B3A" d="M2628.765,76.453c0.119,2.475,0.418,10.548,0.066,13.023c-0.293,2.239-4.533,4.894-5.715,0.534
		c-0.768-2.65-5.543-6.655-8.08-9.953c-1.475-2.003-9.555-11.779-12.268-12.838c-1,2.535,0.717,12.316,0.131,18.622
		c-0.408,4.772-1.053,8.604-4.709,7.074c-1.887-0.823-1.299-3.652-1.123-5.244c0.293-2.77,1.115-5.599,1.113-8.369
		c-0.006-7.72-0.012-15.733-0.664-23.747c-0.119-1.474-0.121-4.302,1.293-4.716c3.652-1.063,7.367,2.529,8.844,6.004
		c2.598,6.246,9.971,15.787,14.982,20.202c1.408-6.188,1.168-14.378,0.986-20.684c0-1.237-0.355-4.008-0.18-5.717
		c0.232-2.003,1.176-3.596,3.416-2.359c2.535,1.412,3.361,5.184,2.598,7.069C2627.985,58.951,2628.524,72.151,2628.765,76.453z"/>
</g>
</svg>
