<?xml version="1.0" encoding="utf-8"?>
<!-- Generator: Adobe Illustrator 16.0.4, SVG Export Plug-In . SVG Version: 6.00 Build 0)  -->
<!DOCTYPE svg PUBLIC "-//W3C//DTD SVG 1.1//EN" "http://www.w3.org/Graphics/SVG/1.1/DTD/svg11.dtd">
<svg version="1.1" id="Layer_1" xmlns="http://www.w3.org/2000/svg" xmlns:xlink="http://www.w3.org/1999/xlink" x="0px" y="0px"
	 width="1094.717px" height="517.497px" viewBox="0 0 1094.717 517.497" enable-background="new 0 0 1094.717 517.497"
	 xml:space="preserve">
<pattern  x="237.174" y="-147.016" width="86.081" height="74.172" patternUnits="userSpaceOnUse" id="Unnamed_Pattern_9" viewBox="0 -74.172 86.081 74.172" overflow="visible">
	<g>
		<polygon fill="none" points="0,-74.172 86.082,-74.172 86.082,0 0,0 		"/>
		<path fill="#2EBDEF" d="M27.879-4.633c0-0.561-0.455-1.018-1.017-1.018s-1.019,0.457-1.019,1.018c0,0.562,0.457,1.021,1.019,1.021
			S27.879-4.07,27.879-4.633"/>
		<path fill="#2EBDEF" d="M27.879-9.266c0-0.561-0.455-1.018-1.017-1.018s-1.019,0.457-1.019,1.018c0,0.564,0.457,1.021,1.019,1.021
			S27.879-8.701,27.879-9.266"/>
		<path fill="#2EBDEF" d="M27.879-32.424c0-0.562-0.455-1.018-1.017-1.018s-1.019,0.455-1.019,1.018
			c0,0.562,0.457,1.018,1.019,1.018S27.879-31.862,27.879-32.424"/>
		<path fill="#2EBDEF" d="M27.879-13.895c0-0.562-0.455-1.021-1.017-1.021s-1.019,0.458-1.019,1.021
			c0,0.561,0.457,1.018,1.019,1.018S27.879-13.334,27.879-13.895"/>
		<path fill="#2EBDEF" d="M27.879-27.791c0-0.562-0.455-1.02-1.017-1.02s-1.019,0.458-1.019,1.02c0,0.562,0.457,1.018,1.019,1.018
			S27.879-27.229,27.879-27.791"/>
		<path fill="#2EBDEF" d="M27.879-18.527c0-0.562-0.455-1.021-1.017-1.021s-1.019,0.458-1.019,1.021
			c0,0.562,0.457,1.018,1.019,1.018S27.879-17.966,27.879-18.527"/>
		<path fill="#2EBDEF" d="M27.879-23.158c0-0.564-0.455-1.02-1.017-1.02s-1.019,0.455-1.019,1.02c0,0.561,0.457,1.016,1.019,1.016
			S27.879-22.598,27.879-23.158"/>
		<path fill="#2EBDEF" d="M33.253-64.846c0-0.562-0.457-1.018-1.018-1.018c-0.564,0-1.019,0.456-1.019,1.018
			c0,0.561,0.455,1.018,1.019,1.018C32.796-63.828,33.253-64.285,33.253-64.846"/>
		<path fill="#2EBDEF" d="M33.253-74.109c0-0.021-0.002-0.043-0.004-0.062H31.22c-0.002,0.019-0.004,0.04-0.004,0.062
			c0,0.562,0.455,1.018,1.019,1.018C32.796-73.092,33.253-73.548,33.253-74.109"/>
		<path fill="#2EBDEF" d="M33.253-41.688c0-0.561-0.457-1.018-1.018-1.018c-0.564,0-1.019,0.457-1.019,1.018
			c0,0.562,0.455,1.021,1.019,1.021C32.796-40.667,33.253-41.125,33.253-41.688"/>
		<path fill="#2EBDEF" d="M33.253-37.055c0-0.564-0.457-1.02-1.018-1.02c-0.564,0-1.019,0.455-1.019,1.02
			c0,0.562,0.455,1.018,1.019,1.018C32.796-36.037,33.253-36.493,33.253-37.055"/>
		<path fill="#2EBDEF" d="M33.253-46.318c0-0.562-0.457-1.02-1.018-1.02c-0.564,0-1.019,0.457-1.019,1.02
			c0,0.562,0.455,1.018,1.019,1.018C32.796-45.301,33.253-45.757,33.253-46.318"/>
		<path fill="#2EBDEF" d="M33.253-32.424c0-0.562-0.457-1.018-1.018-1.018c-0.564,0-1.019,0.455-1.019,1.018
			c0,0.562,0.455,1.018,1.019,1.018C32.796-31.406,33.253-31.862,33.253-32.424"/>
		<path fill="#2EBDEF" d="M33.253-55.582c0-0.562-0.457-1.018-1.018-1.018c-0.564,0-1.019,0.455-1.019,1.018
			c0,0.562,0.455,1.018,1.019,1.018C32.796-54.564,33.253-55.021,33.253-55.582"/>
		<path fill="#2EBDEF" d="M33.253-50.951c0-0.562-0.457-1.018-1.018-1.018c-0.564,0-1.019,0.456-1.019,1.018
			s0.455,1.018,1.019,1.018C32.796-49.934,33.253-50.39,33.253-50.951"/>
		<path fill="#2EBDEF" d="M33.253-60.215c0-0.562-0.457-1.018-1.018-1.018c-0.564,0-1.019,0.455-1.019,1.018
			c0,0.562,0.455,1.018,1.019,1.018C32.796-59.197,33.253-59.653,33.253-60.215"/>
		<path fill="#2EBDEF" d="M33.253-69.479c0-0.562-0.457-1.018-1.018-1.018c-0.564,0-1.019,0.456-1.019,1.018
			c0,0.564,0.455,1.018,1.019,1.018C32.796-68.461,33.253-68.914,33.253-69.479"/>
		<path fill="#2EBDEF" d="M27.879-55.582c0-0.562-0.455-1.018-1.017-1.018s-1.019,0.455-1.019,1.018
			c0,0.562,0.457,1.018,1.019,1.018S27.879-55.021,27.879-55.582"/>
		<path fill="#2EBDEF" d="M22.508-23.158c0-0.564-0.456-1.02-1.018-1.02c-0.563,0-1.019,0.455-1.019,1.02
			c0,0.561,0.456,1.016,1.019,1.016C22.052-22.143,22.508-22.598,22.508-23.158"/>
		<path fill="#2EBDEF" d="M22.508-18.527c0-0.562-0.456-1.021-1.018-1.021c-0.563,0-1.019,0.458-1.019,1.021
			c0,0.562,0.456,1.018,1.019,1.018C22.052-17.51,22.508-17.966,22.508-18.527"/>
		<path fill="#2EBDEF" d="M22.508-4.633c0-0.561-0.456-1.018-1.018-1.018c-0.563,0-1.019,0.457-1.019,1.018
			c0,0.562,0.456,1.021,1.019,1.021C22.052-3.612,22.508-4.07,22.508-4.633"/>
		<path fill="#2EBDEF" d="M22.508-9.266c0-0.561-0.456-1.018-1.018-1.018c-0.563,0-1.019,0.457-1.019,1.018
			c0,0.564,0.456,1.021,1.019,1.021C22.052-8.245,22.508-8.701,22.508-9.266"/>
		<path fill="#2EBDEF" d="M27.879-37.055c0-0.564-0.455-1.02-1.017-1.02s-1.019,0.455-1.019,1.02c0,0.562,0.457,1.018,1.019,1.018
			S27.879-36.493,27.879-37.055"/>
		<path fill="#2EBDEF" d="M22.508-37.055c0-0.564-0.456-1.02-1.018-1.02c-0.563,0-1.019,0.455-1.019,1.02
			c0,0.562,0.456,1.018,1.019,1.018C22.052-36.037,22.508-36.493,22.508-37.055"/>
		<path fill="#2EBDEF" d="M22.508-27.791c0-0.562-0.456-1.02-1.018-1.02c-0.563,0-1.019,0.458-1.019,1.02
			c0,0.562,0.456,1.018,1.019,1.018C22.052-26.773,22.508-27.229,22.508-27.791"/>
		<path fill="#2EBDEF" d="M22.508-32.424c0-0.562-0.456-1.018-1.018-1.018c-0.563,0-1.019,0.455-1.019,1.018
			c0,0.562,0.456,1.018,1.019,1.018C22.052-31.406,22.508-31.862,22.508-32.424"/>
		<path fill="#2EBDEF" d="M22.508-13.895c0-0.562-0.456-1.021-1.018-1.021c-0.563,0-1.019,0.458-1.019,1.021
			c0,0.561,0.456,1.018,1.019,1.018C22.052-12.877,22.508-13.334,22.508-13.895"/>
		<path fill="#2EBDEF" d="M33.253-27.791c0-0.562-0.457-1.02-1.018-1.02c-0.564,0-1.019,0.458-1.019,1.02
			c0,0.562,0.455,1.018,1.019,1.018C32.796-26.773,33.253-27.229,33.253-27.791"/>
		<path fill="#2EBDEF" d="M27.879-50.951c0-0.562-0.455-1.018-1.017-1.018s-1.019,0.456-1.019,1.018s0.457,1.018,1.019,1.018
			S27.879-50.39,27.879-50.951"/>
		<path fill="#2EBDEF" d="M43.998-4.633c0-0.561-0.457-1.018-1.019-1.018s-1.017,0.457-1.017,1.018c0,0.562,0.455,1.021,1.017,1.021
			S43.998-4.07,43.998-4.633"/>
		<path fill="#2EBDEF" d="M27.879-41.688c0-0.561-0.455-1.018-1.017-1.018s-1.019,0.457-1.019,1.018
			c0,0.562,0.457,1.021,1.019,1.021S27.879-41.125,27.879-41.688"/>
		<path fill="#2EBDEF" d="M27.879-74.109c0-0.021,0-0.043-0.002-0.062h-2.031c0,0.019-0.003,0.04-0.003,0.062
			c0,0.562,0.457,1.018,1.019,1.018S27.879-73.548,27.879-74.109"/>
		<path fill="#2EBDEF" d="M27.879-60.215c0-0.562-0.455-1.018-1.017-1.018s-1.019,0.455-1.019,1.018
			c0,0.562,0.457,1.018,1.019,1.018S27.879-59.653,27.879-60.215"/>
		<path fill="#2EBDEF" d="M27.879-64.846c0-0.562-0.455-1.018-1.017-1.018s-1.019,0.456-1.019,1.018
			c0,0.561,0.457,1.018,1.019,1.018S27.879-64.285,27.879-64.846"/>
		<path fill="#2EBDEF" d="M27.879-69.479c0-0.562-0.455-1.018-1.017-1.018s-1.019,0.456-1.019,1.018
			c0,0.564,0.457,1.018,1.019,1.018S27.879-68.914,27.879-69.479"/>
		<path fill="#2EBDEF" d="M43.998-18.527c0-0.562-0.457-1.021-1.019-1.021s-1.017,0.458-1.017,1.021
			c0,0.562,0.455,1.018,1.017,1.018S43.998-17.966,43.998-18.527"/>
		<path fill="#2EBDEF" d="M43.998-69.479c0-0.562-0.457-1.018-1.019-1.018s-1.017,0.456-1.017,1.018
			c0,0.564,0.455,1.018,1.017,1.018S43.998-68.914,43.998-69.479"/>
		<path fill="#2EBDEF" d="M43.998-55.582c0-0.562-0.457-1.018-1.019-1.018s-1.017,0.455-1.017,1.018
			c0,0.562,0.455,1.018,1.017,1.018S43.998-55.021,43.998-55.582"/>
		<path fill="#2EBDEF" d="M43.998-60.215c0-0.562-0.457-1.018-1.019-1.018s-1.017,0.455-1.017,1.018
			c0,0.562,0.455,1.018,1.017,1.018S43.998-59.653,43.998-60.215"/>
		<path fill="#2EBDEF" d="M38.625-13.895c0-0.562-0.456-1.021-1.018-1.021s-1.017,0.458-1.017,1.021
			c0,0.561,0.455,1.018,1.017,1.018S38.625-13.334,38.625-13.895"/>
		<path fill="#2EBDEF" d="M38.625-9.266c0-0.561-0.456-1.018-1.018-1.018s-1.017,0.457-1.017,1.018c0,0.564,0.455,1.021,1.017,1.021
			S38.625-8.701,38.625-9.266"/>
		<path fill="#2EBDEF" d="M38.625-4.633c0-0.561-0.456-1.018-1.018-1.018s-1.017,0.457-1.017,1.018c0,0.562,0.455,1.021,1.017,1.021
			S38.625-4.07,38.625-4.633"/>
		<path fill="#2EBDEF" d="M43.998-46.318c0-0.562-0.457-1.02-1.019-1.02s-1.017,0.457-1.017,1.02c0,0.562,0.455,1.018,1.017,1.018
			S43.998-45.757,43.998-46.318"/>
		<path fill="#2EBDEF" d="M43.998-74.109c0-0.021-0.002-0.043-0.004-0.062h-2.029c-0.002,0.019-0.003,0.04-0.003,0.062
			c0,0.562,0.455,1.018,1.017,1.018S43.998-73.548,43.998-74.109"/>
		<path fill="#2EBDEF" d="M43.998-64.846c0-0.562-0.457-1.018-1.019-1.018s-1.017,0.456-1.017,1.018
			c0,0.561,0.455,1.018,1.017,1.018S43.998-64.285,43.998-64.846"/>
		<path fill="#2EBDEF" d="M43.998-50.951c0-0.562-0.457-1.018-1.019-1.018s-1.017,0.456-1.017,1.018s0.455,1.018,1.017,1.018
			S43.998-50.39,43.998-50.951"/>
		<path fill="#2EBDEF" d="M43.998-13.895c0-0.562-0.457-1.021-1.019-1.021s-1.017,0.458-1.017,1.021
			c0,0.561,0.455,1.018,1.017,1.018S43.998-13.334,43.998-13.895"/>
		<path fill="#2EBDEF" d="M43.998-41.688c0-0.561-0.457-1.018-1.019-1.018s-1.017,0.457-1.017,1.018
			c0,0.562,0.455,1.021,1.017,1.021S43.998-41.125,43.998-41.688"/>
		<path fill="#2EBDEF" d="M22.508-41.688c0-0.561-0.456-1.018-1.018-1.018c-0.563,0-1.019,0.457-1.019,1.018
			c0,0.562,0.456,1.021,1.019,1.021C22.052-40.667,22.508-41.125,22.508-41.688"/>
		<path fill="#2EBDEF" d="M43.998-9.266c0-0.561-0.457-1.018-1.019-1.018s-1.017,0.457-1.017,1.018c0,0.564,0.455,1.021,1.017,1.021
			S43.998-8.701,43.998-9.266"/>
		<path fill="#2EBDEF" d="M43.998-23.158c0-0.564-0.457-1.02-1.019-1.02s-1.017,0.455-1.017,1.02c0,0.561,0.455,1.016,1.017,1.016
			S43.998-22.598,43.998-23.158"/>
		<path fill="#2EBDEF" d="M43.998-27.791c0-0.562-0.457-1.02-1.019-1.02s-1.017,0.458-1.017,1.02c0,0.562,0.455,1.018,1.017,1.018
			S43.998-27.229,43.998-27.791"/>
		<path fill="#2EBDEF" d="M43.998-37.055c0-0.564-0.457-1.02-1.019-1.02s-1.017,0.455-1.017,1.02c0,0.562,0.455,1.018,1.017,1.018
			S43.998-36.493,43.998-37.055"/>
		<path fill="#2EBDEF" d="M43.998-32.424c0-0.562-0.457-1.018-1.019-1.018s-1.017,0.455-1.017,1.018
			c0,0.562,0.455,1.018,1.017,1.018S43.998-31.862,43.998-32.424"/>
		<path fill="#2EBDEF" d="M38.625-74.109c0-0.021-0.001-0.043-0.003-0.062h-2.029c-0.002,0.019-0.003,0.04-0.003,0.062
			c0,0.562,0.455,1.018,1.017,1.018S38.625-73.548,38.625-74.109"/>
		<path fill="#2EBDEF" d="M38.625-64.846c0-0.562-0.456-1.018-1.018-1.018s-1.017,0.456-1.017,1.018
			c0,0.561,0.455,1.018,1.017,1.018S38.625-64.285,38.625-64.846"/>
		<path fill="#2EBDEF" d="M33.253-4.633c0-0.561-0.457-1.018-1.018-1.018c-0.564,0-1.019,0.457-1.019,1.018
			c0,0.562,0.455,1.021,1.019,1.021C32.796-3.612,33.253-4.07,33.253-4.633"/>
		<path fill="#2EBDEF" d="M33.253-23.158c0-0.564-0.457-1.02-1.018-1.02c-0.564,0-1.019,0.455-1.019,1.02
			c0,0.561,0.455,1.016,1.019,1.016C32.796-22.143,33.253-22.598,33.253-23.158"/>
		<path fill="#2EBDEF" d="M38.625-60.215c0-0.562-0.456-1.018-1.018-1.018s-1.017,0.455-1.017,1.018
			c0,0.562,0.455,1.018,1.017,1.018S38.625-59.653,38.625-60.215"/>
		<path fill="#2EBDEF" d="M38.625-69.479c0-0.562-0.456-1.018-1.018-1.018s-1.017,0.456-1.017,1.018
			c0,0.564,0.455,1.018,1.017,1.018S38.625-68.914,38.625-69.479"/>
		<path fill="#2EBDEF" d="M33.253-18.527c0-0.562-0.457-1.021-1.018-1.021c-0.564,0-1.019,0.458-1.019,1.021
			c0,0.562,0.455,1.018,1.019,1.018C32.796-17.51,33.253-17.966,33.253-18.527"/>
		<path fill="#2EBDEF" d="M33.253-9.266c0-0.561-0.457-1.018-1.018-1.018c-0.564,0-1.019,0.457-1.019,1.018
			c0,0.564,0.455,1.021,1.019,1.021C32.796-8.245,33.253-8.701,33.253-9.266"/>
		<path fill="#2EBDEF" d="M33.253-13.895c0-0.562-0.457-1.021-1.018-1.021c-0.564,0-1.019,0.458-1.019,1.021
			c0,0.561,0.455,1.018,1.019,1.018C32.796-12.877,33.253-13.334,33.253-13.895"/>
		<path fill="#2EBDEF" d="M38.625-18.527c0-0.562-0.456-1.021-1.018-1.021s-1.017,0.458-1.017,1.021
			c0,0.562,0.455,1.018,1.017,1.018S38.625-17.966,38.625-18.527"/>
		<path fill="#2EBDEF" d="M38.625-32.424c0-0.562-0.456-1.018-1.018-1.018s-1.017,0.455-1.017,1.018
			c0,0.562,0.455,1.018,1.017,1.018S38.625-31.862,38.625-32.424"/>
		<path fill="#2EBDEF" d="M38.625-27.791c0-0.562-0.456-1.02-1.018-1.02s-1.017,0.458-1.017,1.02c0,0.562,0.455,1.018,1.017,1.018
			S38.625-27.229,38.625-27.791"/>
		<path fill="#2EBDEF" d="M38.625-37.055c0-0.564-0.456-1.02-1.018-1.02s-1.017,0.455-1.017,1.02c0,0.562,0.455,1.018,1.017,1.018
			S38.625-36.493,38.625-37.055"/>
		<path fill="#2EBDEF" d="M38.625-23.158c0-0.564-0.456-1.02-1.018-1.02s-1.017,0.455-1.017,1.02c0,0.561,0.455,1.016,1.017,1.016
			S38.625-22.598,38.625-23.158"/>
		<path fill="#2EBDEF" d="M38.625-41.688c0-0.561-0.456-1.018-1.018-1.018s-1.017,0.457-1.017,1.018
			c0,0.562,0.455,1.021,1.017,1.021S38.625-41.125,38.625-41.688"/>
		<path fill="#2EBDEF" d="M38.625-50.951c0-0.562-0.456-1.018-1.018-1.018s-1.017,0.456-1.017,1.018s0.455,1.018,1.017,1.018
			S38.625-50.39,38.625-50.951"/>
		<path fill="#2EBDEF" d="M38.625-55.582c0-0.562-0.456-1.018-1.018-1.018s-1.017,0.455-1.017,1.018
			c0,0.562,0.455,1.018,1.017,1.018S38.625-55.021,38.625-55.582"/>
		<path fill="#2EBDEF" d="M38.625-46.318c0-0.562-0.456-1.02-1.018-1.02s-1.017,0.457-1.017,1.02c0,0.562,0.455,1.018,1.017,1.018
			S38.625-45.757,38.625-46.318"/>
		<path fill="#2EBDEF" d="M27.879-46.318c0-0.562-0.455-1.02-1.017-1.02s-1.019,0.457-1.019,1.02c0,0.562,0.457,1.018,1.019,1.018
			S27.879-45.757,27.879-46.318"/>
		<path fill="#2EBDEF" d="M6.39-46.318c0-0.562-0.456-1.02-1.018-1.02c-0.561,0-1.017,0.457-1.017,1.02
			c0,0.562,0.456,1.018,1.017,1.018C5.934-45.301,6.39-45.757,6.39-46.318"/>
		<path fill="#2EBDEF" d="M6.39-50.951c0-0.562-0.456-1.018-1.018-1.018c-0.561,0-1.017,0.456-1.017,1.018s0.456,1.018,1.017,1.018
			C5.934-49.934,6.39-50.39,6.39-50.951"/>
		<path fill="#2EBDEF" d="M6.39-41.688c0-0.561-0.456-1.018-1.018-1.018c-0.561,0-1.017,0.457-1.017,1.018
			c0,0.562,0.456,1.021,1.017,1.021C5.934-40.667,6.39-41.125,6.39-41.688"/>
		<path fill="#2EBDEF" d="M6.39-37.055c0-0.564-0.456-1.02-1.018-1.02c-0.561,0-1.017,0.455-1.017,1.02
			c0,0.562,0.456,1.018,1.017,1.018C5.934-36.037,6.39-36.493,6.39-37.055"/>
		<path fill="#2EBDEF" d="M6.39-55.582c0-0.562-0.456-1.018-1.018-1.018c-0.561,0-1.017,0.455-1.017,1.018
			c0,0.562,0.456,1.018,1.017,1.018C5.934-54.564,6.39-55.021,6.39-55.582"/>
		<path fill="#2EBDEF" d="M6.39-32.424c0-0.562-0.456-1.018-1.018-1.018c-0.561,0-1.017,0.455-1.017,1.018
			c0,0.562,0.456,1.018,1.017,1.018C5.934-31.406,6.39-31.862,6.39-32.424"/>
		<path fill="#2EBDEF" d="M6.39-64.846c0-0.562-0.456-1.018-1.018-1.018c-0.561,0-1.017,0.456-1.017,1.018
			c0,0.561,0.456,1.018,1.017,1.018C5.934-63.828,6.39-64.285,6.39-64.846"/>
		<path fill="#2EBDEF" d="M6.39-60.215c0-0.562-0.456-1.018-1.018-1.018c-0.561,0-1.017,0.455-1.017,1.018
			c0,0.562,0.456,1.018,1.017,1.018C5.934-59.197,6.39-59.653,6.39-60.215"/>
		<path fill="#2EBDEF" d="M6.39-69.479c0-0.562-0.456-1.018-1.018-1.018c-0.561,0-1.017,0.456-1.017,1.018
			c0,0.564,0.456,1.018,1.017,1.018C5.934-68.461,6.39-68.914,6.39-69.479"/>
		<path fill="#2EBDEF" d="M11.764-74.109c0-0.021-0.003-0.043-0.003-0.062H9.73c-0.002,0.019-0.003,0.04-0.003,0.062
			c0,0.562,0.455,1.018,1.017,1.018C11.308-73.092,11.764-73.548,11.764-74.109"/>
		<path fill="#2EBDEF" d="M6.39-9.266c0-0.561-0.456-1.018-1.018-1.018c-0.561,0-1.017,0.457-1.017,1.018
			c0,0.564,0.456,1.021,1.017,1.021C5.934-8.245,6.39-8.701,6.39-9.266"/>
		<path fill="#2EBDEF" d="M6.39-4.633c0-0.561-0.456-1.018-1.018-1.018c-0.561,0-1.017,0.457-1.017,1.018
			c0,0.562,0.456,1.021,1.017,1.021C5.934-3.612,6.39-4.07,6.39-4.633"/>
		<path fill="#2EBDEF" d="M11.764-64.846c0-0.562-0.456-1.018-1.02-1.018c-0.562,0-1.017,0.456-1.017,1.018
			c0,0.561,0.455,1.018,1.017,1.018C11.308-63.828,11.764-64.285,11.764-64.846"/>
		<path fill="#2EBDEF" d="M6.39-13.895c0-0.562-0.456-1.021-1.018-1.021c-0.561,0-1.017,0.458-1.017,1.021
			c0,0.561,0.456,1.018,1.017,1.018C5.934-12.877,6.39-13.334,6.39-13.895"/>
		<path fill="#2EBDEF" d="M6.39-27.791c0-0.562-0.456-1.02-1.018-1.02c-0.561,0-1.017,0.458-1.017,1.02
			c0,0.562,0.456,1.018,1.017,1.018C5.934-26.773,6.39-27.229,6.39-27.791"/>
		<path fill="#2EBDEF" d="M6.39-23.158c0-0.564-0.456-1.02-1.018-1.02c-0.561,0-1.017,0.455-1.017,1.02
			c0,0.561,0.456,1.016,1.017,1.016C5.934-22.143,6.39-22.598,6.39-23.158"/>
		<path fill="#2EBDEF" d="M6.39-18.527c0-0.562-0.456-1.021-1.018-1.021c-0.561,0-1.017,0.458-1.017,1.021
			c0,0.562,0.456,1.018,1.017,1.018C5.934-17.51,6.39-17.966,6.39-18.527"/>
		<path fill="#2EBDEF" d="M1.019-32.424c0-0.562-0.457-1.018-1.019-1.018v2.035C0.562-31.406,1.019-31.862,1.019-32.424"/>
		<path fill="#2EBDEF" d="M1.019-37.055c0-0.564-0.457-1.02-1.019-1.02v2.037C0.562-36.037,1.019-36.493,1.019-37.055"/>
		<path fill="#2EBDEF" d="M1.019-50.951c0-0.562-0.457-1.018-1.019-1.018v2.035C0.562-49.934,1.019-50.39,1.019-50.951"/>
		<path fill="#2EBDEF" d="M1.019-55.582C1.019-56.145,0.562-56.6,0-56.6v2.035C0.562-54.564,1.019-55.021,1.019-55.582"/>
		<path fill="#2EBDEF" d="M22.508-46.318c0-0.562-0.456-1.02-1.018-1.02c-0.563,0-1.019,0.457-1.019,1.02
			c0,0.562,0.456,1.018,1.019,1.018C22.052-45.301,22.508-45.757,22.508-46.318"/>
		<path fill="#2EBDEF" d="M1.019-46.318c0-0.562-0.457-1.02-1.019-1.02v2.037C0.562-45.301,1.019-45.757,1.019-46.318"/>
		<path fill="#2EBDEF" d="M6.39-74.109c0-0.021-0.001-0.043-0.003-0.062H4.358c-0.002,0.019-0.003,0.04-0.003,0.062
			c0,0.562,0.456,1.018,1.017,1.018C5.934-73.092,6.39-73.548,6.39-74.109"/>
		<path fill="#2EBDEF" d="M1.019-64.846c0-0.562-0.457-1.018-1.019-1.018v2.035C0.562-63.828,1.019-64.285,1.019-64.846"/>
		<path fill="#2EBDEF" d="M1.019-60.215c0-0.562-0.457-1.018-1.019-1.018v2.035C0.562-59.197,1.019-59.653,1.019-60.215"/>
		<path fill="#2EBDEF" d="M1.019-69.479c0-0.562-0.457-1.018-1.019-1.018v2.035C0.562-68.461,1.019-68.914,1.019-69.479"/>
		<path fill="#2EBDEF" d="M11.764-69.479c0-0.562-0.456-1.018-1.02-1.018c-0.562,0-1.017,0.456-1.017,1.018
			c0,0.564,0.455,1.018,1.017,1.018C11.308-68.461,11.764-68.914,11.764-69.479"/>
		<path fill="#2EBDEF" d="M1.019-13.895c0-0.562-0.457-1.021-1.019-1.021v2.038C0.562-12.877,1.019-13.334,1.019-13.895"/>
		<path fill="#2EBDEF" d="M1.019-4.633C1.019-5.193,0.562-5.65,0-5.65v2.038C0.562-3.612,1.019-4.07,1.019-4.633"/>
		<path fill="#2EBDEF" d="M1.019-74.109c0-0.021-0.002-0.043-0.004-0.062H0v1.079C0.562-73.092,1.019-73.548,1.019-74.109"/>
		<path fill="#2EBDEF" d="M1.019-9.266c0-0.561-0.457-1.018-1.019-1.018v2.038C0.562-8.245,1.019-8.701,1.019-9.266"/>
		<path fill="#2EBDEF" d="M1.019-27.791c0-0.562-0.457-1.02-1.019-1.02v2.037C0.562-26.773,1.019-27.229,1.019-27.791"/>
		<path fill="#2EBDEF" d="M1.019-18.527c0-0.562-0.457-1.021-1.019-1.021v2.038C0.562-17.51,1.019-17.966,1.019-18.527"/>
		<path fill="#2EBDEF" d="M1.019-23.158c0-0.564-0.457-1.02-1.019-1.02v2.035C0.562-22.143,1.019-22.598,1.019-23.158"/>
		<path fill="#2EBDEF" d="M1.019-41.688c0-0.561-0.457-1.018-1.019-1.018v2.038C0.562-40.667,1.019-41.125,1.019-41.688"/>
		<path fill="#2EBDEF" d="M17.135-50.951c0-0.562-0.455-1.018-1.019-1.018c-0.561,0-1.017,0.456-1.017,1.018
			s0.456,1.018,1.017,1.018C16.68-49.934,17.135-50.39,17.135-50.951"/>
		<path fill="#2EBDEF" d="M17.135-23.158c0-0.564-0.455-1.02-1.019-1.02c-0.561,0-1.017,0.455-1.017,1.02
			c0,0.561,0.456,1.016,1.017,1.016C16.68-22.143,17.135-22.598,17.135-23.158"/>
		<path fill="#2EBDEF" d="M17.135-32.424c0-0.562-0.455-1.018-1.019-1.018c-0.561,0-1.017,0.455-1.017,1.018
			c0,0.562,0.456,1.018,1.017,1.018C16.68-31.406,17.135-31.862,17.135-32.424"/>
		<path fill="#2EBDEF" d="M17.135-18.527c0-0.562-0.455-1.021-1.019-1.021c-0.561,0-1.017,0.458-1.017,1.021
			c0,0.562,0.456,1.018,1.017,1.018C16.68-17.51,17.135-17.966,17.135-18.527"/>
		<path fill="#2EBDEF" d="M17.135-37.055c0-0.564-0.455-1.02-1.019-1.02c-0.561,0-1.017,0.455-1.017,1.02
			c0,0.562,0.456,1.018,1.017,1.018C16.68-36.037,17.135-36.493,17.135-37.055"/>
		<path fill="#2EBDEF" d="M17.135-46.318c0-0.562-0.455-1.02-1.019-1.02c-0.561,0-1.017,0.457-1.017,1.02
			c0,0.562,0.456,1.018,1.017,1.018C16.68-45.301,17.135-45.757,17.135-46.318"/>
		<path fill="#2EBDEF" d="M17.135-13.895c0-0.562-0.455-1.021-1.019-1.021c-0.561,0-1.017,0.458-1.017,1.021
			c0,0.561,0.456,1.018,1.017,1.018C16.68-12.877,17.135-13.334,17.135-13.895"/>
		<path fill="#2EBDEF" d="M17.135-41.688c0-0.561-0.455-1.018-1.019-1.018c-0.561,0-1.017,0.457-1.017,1.018
			c0,0.562,0.456,1.021,1.017,1.021C16.68-40.667,17.135-41.125,17.135-41.688"/>
		<path fill="#2EBDEF" d="M17.135-27.791c0-0.562-0.455-1.02-1.019-1.02c-0.561,0-1.017,0.458-1.017,1.02
			c0,0.562,0.456,1.018,1.017,1.018C16.68-26.773,17.135-27.229,17.135-27.791"/>
		<path fill="#2EBDEF" d="M22.508-55.582c0-0.562-0.456-1.018-1.018-1.018c-0.563,0-1.019,0.455-1.019,1.018
			c0,0.562,0.456,1.018,1.019,1.018C22.052-54.564,22.508-55.021,22.508-55.582"/>
		<path fill="#2EBDEF" d="M17.135-9.266c0-0.561-0.455-1.018-1.019-1.018c-0.561,0-1.017,0.457-1.017,1.018
			c0,0.564,0.456,1.021,1.017,1.021C16.68-8.245,17.135-8.701,17.135-9.266"/>
		<path fill="#2EBDEF" d="M22.508-69.479c0-0.562-0.456-1.018-1.018-1.018c-0.563,0-1.019,0.456-1.019,1.018
			c0,0.564,0.456,1.018,1.019,1.018C22.052-68.461,22.508-68.914,22.508-69.479"/>
		<path fill="#2EBDEF" d="M22.508-50.951c0-0.562-0.456-1.018-1.018-1.018c-0.563,0-1.019,0.456-1.019,1.018
			s0.456,1.018,1.019,1.018C22.052-49.934,22.508-50.39,22.508-50.951"/>
		<path fill="#2EBDEF" d="M22.508-60.215c0-0.562-0.456-1.018-1.018-1.018c-0.563,0-1.019,0.455-1.019,1.018
			c0,0.562,0.456,1.018,1.019,1.018C22.052-59.197,22.508-59.653,22.508-60.215"/>
		<path fill="#2EBDEF" d="M17.135-4.633c0-0.561-0.455-1.018-1.019-1.018c-0.561,0-1.017,0.457-1.017,1.018
			c0,0.562,0.456,1.021,1.017,1.021C16.68-3.612,17.135-4.07,17.135-4.633"/>
		<path fill="#2EBDEF" d="M22.508-74.109c0-0.021-0.003-0.043-0.003-0.062h-2.031c-0.002,0.019-0.003,0.04-0.003,0.062
			c0,0.562,0.456,1.018,1.019,1.018C22.052-73.092,22.508-73.548,22.508-74.109"/>
		<path fill="#2EBDEF" d="M22.508-64.846c0-0.562-0.456-1.018-1.018-1.018c-0.563,0-1.019,0.456-1.019,1.018
			c0,0.561,0.456,1.018,1.019,1.018C22.052-63.828,22.508-64.285,22.508-64.846"/>
		<path fill="#2EBDEF" d="M11.764-4.633c0-0.561-0.456-1.018-1.02-1.018c-0.562,0-1.017,0.457-1.017,1.018
			c0,0.562,0.455,1.021,1.017,1.021C11.308-3.612,11.764-4.07,11.764-4.633"/>
		<path fill="#2EBDEF" d="M11.764-37.055c0-0.564-0.456-1.02-1.02-1.02c-0.562,0-1.017,0.455-1.017,1.02
			c0,0.562,0.455,1.018,1.017,1.018C11.308-36.037,11.764-36.493,11.764-37.055"/>
		<path fill="#2EBDEF" d="M17.135-55.582c0-0.562-0.455-1.018-1.019-1.018c-0.561,0-1.017,0.455-1.017,1.018
			c0,0.562,0.456,1.018,1.017,1.018C16.68-54.564,17.135-55.021,17.135-55.582"/>
		<path fill="#2EBDEF" d="M11.764-41.688c0-0.561-0.456-1.018-1.02-1.018c-0.562,0-1.017,0.457-1.017,1.018
			c0,0.562,0.455,1.021,1.017,1.021C11.308-40.667,11.764-41.125,11.764-41.688"/>
		<path fill="#2EBDEF" d="M11.764-23.158c0-0.564-0.456-1.02-1.02-1.02c-0.562,0-1.017,0.455-1.017,1.02
			c0,0.561,0.455,1.016,1.017,1.016C11.308-22.143,11.764-22.598,11.764-23.158"/>
		<path fill="#2EBDEF" d="M11.764-27.791c0-0.562-0.456-1.02-1.02-1.02c-0.562,0-1.017,0.458-1.017,1.02
			c0,0.562,0.455,1.018,1.017,1.018C11.308-26.773,11.764-27.229,11.764-27.791"/>
		<path fill="#2EBDEF" d="M11.764-55.582c0-0.562-0.456-1.018-1.02-1.018c-0.562,0-1.017,0.455-1.017,1.018
			c0,0.562,0.455,1.018,1.017,1.018C11.308-54.564,11.764-55.021,11.764-55.582"/>
		<path fill="#2EBDEF" d="M11.764-46.318c0-0.562-0.456-1.02-1.02-1.02c-0.562,0-1.017,0.457-1.017,1.02
			c0,0.562,0.455,1.018,1.017,1.018C11.308-45.301,11.764-45.757,11.764-46.318"/>
		<path fill="#2EBDEF" d="M11.764-50.951c0-0.562-0.456-1.018-1.02-1.018c-0.562,0-1.017,0.456-1.017,1.018s0.455,1.018,1.017,1.018
			C11.308-49.934,11.764-50.39,11.764-50.951"/>
		<path fill="#2EBDEF" d="M11.764-32.424c0-0.562-0.456-1.018-1.02-1.018c-0.562,0-1.017,0.455-1.017,1.018
			c0,0.562,0.455,1.018,1.017,1.018C11.308-31.406,11.764-31.862,11.764-32.424"/>
		<path fill="#2EBDEF" d="M17.135-64.846c0-0.562-0.455-1.018-1.019-1.018c-0.561,0-1.017,0.456-1.017,1.018
			c0,0.561,0.456,1.018,1.017,1.018C16.68-63.828,17.135-64.285,17.135-64.846"/>
		<path fill="#2EBDEF" d="M11.764-18.527c0-0.562-0.456-1.021-1.02-1.021c-0.562,0-1.017,0.458-1.017,1.021
			c0,0.562,0.455,1.018,1.017,1.018C11.308-17.51,11.764-17.966,11.764-18.527"/>
		<path fill="#2EBDEF" d="M17.135-69.479c0-0.562-0.455-1.018-1.019-1.018c-0.561,0-1.017,0.456-1.017,1.018
			c0,0.564,0.456,1.018,1.017,1.018C16.68-68.461,17.135-68.914,17.135-69.479"/>
		<path fill="#2EBDEF" d="M17.135-60.215c0-0.562-0.455-1.018-1.019-1.018c-0.561,0-1.017,0.455-1.017,1.018
			c0,0.562,0.456,1.018,1.017,1.018C16.68-59.197,17.135-59.653,17.135-60.215"/>
		<path fill="#2EBDEF" d="M17.135-74.109c0-0.021-0.002-0.043-0.003-0.062h-2.03c0,0.019-0.003,0.04-0.003,0.062
			c0,0.562,0.456,1.018,1.017,1.018C16.68-73.092,17.135-73.548,17.135-74.109"/>
		<path fill="#2EBDEF" d="M11.764-13.895c0-0.562-0.456-1.021-1.02-1.021c-0.562,0-1.017,0.458-1.017,1.021
			c0,0.561,0.455,1.018,1.017,1.018C11.308-12.877,11.764-13.334,11.764-13.895"/>
		<path fill="#2EBDEF" d="M11.764-9.266c0-0.561-0.456-1.018-1.02-1.018c-0.562,0-1.017,0.457-1.017,1.018
			c0,0.564,0.455,1.021,1.017,1.021C11.308-8.245,11.764-8.701,11.764-9.266"/>
		<path fill="#2EBDEF" d="M11.764-60.215c0-0.562-0.456-1.018-1.02-1.018c-0.562,0-1.017,0.455-1.017,1.018
			c0,0.562,0.455,1.018,1.017,1.018C11.308-59.197,11.764-59.653,11.764-60.215"/>
		<path fill="#2EBDEF" d="M76.232-13.895c0-0.562-0.457-1.021-1.018-1.021c-0.563,0-1.02,0.458-1.02,1.021
			c0,0.561,0.457,1.018,1.02,1.018C75.775-12.877,76.232-13.334,76.232-13.895"/>
		<path fill="#2EBDEF" d="M81.603-69.479c0-0.562-0.456-1.018-1.018-1.018c-0.561,0-1.017,0.456-1.017,1.018
			c0,0.564,0.456,1.018,1.017,1.018C81.147-68.461,81.603-68.914,81.603-69.479"/>
		<path fill="#2EBDEF" d="M81.603-74.109c0-0.021-0.001-0.043-0.002-0.062h-2.03c-0.001,0.019-0.003,0.04-0.003,0.062
			c0,0.562,0.456,1.018,1.017,1.018C81.147-73.092,81.603-73.548,81.603-74.109"/>
		<path fill="#2EBDEF" d="M76.232-27.791c0-0.562-0.457-1.02-1.018-1.02c-0.563,0-1.02,0.458-1.02,1.02
			c0,0.562,0.457,1.018,1.02,1.018C75.775-26.773,76.232-27.229,76.232-27.791"/>
		<path fill="#2EBDEF" d="M81.603-60.215c0-0.562-0.456-1.018-1.018-1.018c-0.561,0-1.017,0.455-1.017,1.018
			c0,0.562,0.456,1.018,1.017,1.018C81.147-59.197,81.603-59.653,81.603-60.215"/>
		<path fill="#2EBDEF" d="M81.603-64.846c0-0.562-0.456-1.018-1.018-1.018c-0.561,0-1.017,0.456-1.017,1.018
			c0,0.561,0.456,1.018,1.017,1.018C81.147-63.828,81.603-64.285,81.603-64.846"/>
		<path fill="#2EBDEF" d="M76.232-18.527c0-0.562-0.457-1.021-1.018-1.021c-0.563,0-1.02,0.458-1.02,1.021
			c0,0.562,0.457,1.018,1.02,1.018C75.775-17.51,76.232-17.966,76.232-18.527"/>
		<path fill="#2EBDEF" d="M76.232-4.633c0-0.561-0.457-1.018-1.018-1.018c-0.563,0-1.02,0.457-1.02,1.018
			c0,0.562,0.457,1.021,1.02,1.021C75.775-3.612,76.232-4.07,76.232-4.633"/>
		<path fill="#2EBDEF" d="M76.232-23.158c0-0.564-0.457-1.02-1.018-1.02c-0.563,0-1.02,0.455-1.02,1.02
			c0,0.561,0.457,1.016,1.02,1.016C75.775-22.143,76.232-22.598,76.232-23.158"/>
		<path fill="#2EBDEF" d="M76.232-9.266c0-0.561-0.457-1.018-1.018-1.018c-0.563,0-1.02,0.457-1.02,1.018
			c0,0.564,0.457,1.021,1.02,1.021C75.775-8.245,76.232-8.701,76.232-9.266"/>
		<path fill="#2EBDEF" d="M81.603-55.582c0-0.562-0.456-1.018-1.018-1.018c-0.561,0-1.017,0.455-1.017,1.018
			c0,0.562,0.456,1.018,1.017,1.018C81.147-54.564,81.603-55.021,81.603-55.582"/>
		<path fill="#2EBDEF" d="M81.603-50.951c0-0.562-0.456-1.018-1.018-1.018c-0.561,0-1.017,0.456-1.017,1.018
			s0.456,1.018,1.017,1.018C81.147-49.934,81.603-50.39,81.603-50.951"/>
		<path fill="#2EBDEF" d="M81.603-32.424c0-0.562-0.456-1.018-1.018-1.018c-0.561,0-1.017,0.455-1.017,1.018
			c0,0.562,0.456,1.018,1.017,1.018C81.147-31.406,81.603-31.862,81.603-32.424"/>
		<path fill="#2EBDEF" d="M81.603-23.158c0-0.564-0.456-1.02-1.018-1.02c-0.561,0-1.017,0.455-1.017,1.02
			c0,0.561,0.456,1.016,1.017,1.016C81.147-22.143,81.603-22.598,81.603-23.158"/>
		<path fill="#2EBDEF" d="M81.603-18.527c0-0.562-0.456-1.021-1.018-1.021c-0.561,0-1.017,0.458-1.017,1.021
			c0,0.562,0.456,1.018,1.017,1.018C81.147-17.51,81.603-17.966,81.603-18.527"/>
		<path fill="#2EBDEF" d="M81.603-27.791c0-0.562-0.456-1.02-1.018-1.02c-0.561,0-1.017,0.458-1.017,1.02
			c0,0.562,0.456,1.018,1.017,1.018C81.147-26.773,81.603-27.229,81.603-27.791"/>
		<path fill="#2EBDEF" d="M81.603-46.318c0-0.562-0.456-1.02-1.018-1.02c-0.561,0-1.017,0.457-1.017,1.02
			c0,0.562,0.456,1.018,1.017,1.018C81.147-45.301,81.603-45.757,81.603-46.318"/>
		<path fill="#2EBDEF" d="M70.859-37.055c0-0.564-0.456-1.02-1.018-1.02s-1.017,0.455-1.017,1.02c0,0.562,0.455,1.018,1.017,1.018
			S70.859-36.493,70.859-37.055"/>
		<path fill="#2EBDEF" d="M81.603-37.055c0-0.564-0.456-1.02-1.018-1.02c-0.561,0-1.017,0.455-1.017,1.02
			c0,0.562,0.456,1.018,1.017,1.018C81.147-36.037,81.603-36.493,81.603-37.055"/>
		<path fill="#2EBDEF" d="M76.232-41.688c0-0.561-0.457-1.018-1.018-1.018c-0.563,0-1.02,0.457-1.02,1.018
			c0,0.562,0.457,1.021,1.02,1.021C75.775-40.667,76.232-41.125,76.232-41.688"/>
		<path fill="#2EBDEF" d="M70.859-18.527c0-0.562-0.456-1.021-1.018-1.021s-1.017,0.458-1.017,1.021
			c0,0.562,0.455,1.018,1.017,1.018S70.859-17.966,70.859-18.527"/>
		<path fill="#2EBDEF" d="M76.232-74.109c0-0.021-0.002-0.043-0.004-0.062h-2.029c-0.002,0.019-0.005,0.04-0.005,0.062
			c0,0.562,0.457,1.018,1.02,1.018C75.775-73.092,76.232-73.548,76.232-74.109"/>
		<path fill="#2EBDEF" d="M70.859-9.266c0-0.561-0.456-1.018-1.018-1.018s-1.017,0.457-1.017,1.018c0,0.564,0.455,1.021,1.017,1.021
			S70.859-8.701,70.859-9.266"/>
		<path fill="#2EBDEF" d="M70.859-4.633c0-0.561-0.456-1.018-1.018-1.018s-1.017,0.457-1.017,1.018c0,0.562,0.455,1.021,1.017,1.021
			S70.859-4.07,70.859-4.633"/>
		<path fill="#2EBDEF" d="M70.859-13.895c0-0.562-0.456-1.021-1.018-1.021s-1.017,0.458-1.017,1.021
			c0,0.561,0.455,1.018,1.017,1.018S70.859-13.334,70.859-13.895"/>
		<path fill="#2EBDEF" d="M70.859-23.158c0-0.564-0.456-1.02-1.018-1.02s-1.017,0.455-1.017,1.02c0,0.561,0.455,1.016,1.017,1.016
			S70.859-22.598,70.859-23.158"/>
		<path fill="#2EBDEF" d="M70.859-32.424c0-0.562-0.456-1.018-1.018-1.018s-1.017,0.455-1.017,1.018
			c0,0.562,0.455,1.018,1.017,1.018S70.859-31.862,70.859-32.424"/>
		<path fill="#2EBDEF" d="M70.859-27.791c0-0.562-0.456-1.02-1.018-1.02s-1.017,0.458-1.017,1.02c0,0.562,0.455,1.018,1.017,1.018
			S70.859-27.229,70.859-27.791"/>
		<path fill="#2EBDEF" d="M76.232-55.582c0-0.562-0.457-1.018-1.018-1.018c-0.563,0-1.02,0.455-1.02,1.018
			c0,0.562,0.457,1.018,1.02,1.018C75.775-54.564,76.232-55.021,76.232-55.582"/>
		<path fill="#2EBDEF" d="M81.603-13.895c0-0.562-0.456-1.021-1.018-1.021c-0.561,0-1.017,0.458-1.017,1.021
			c0,0.561,0.456,1.018,1.017,1.018C81.147-12.877,81.603-13.334,81.603-13.895"/>
		<path fill="#2EBDEF" d="M76.232-46.318c0-0.562-0.457-1.02-1.018-1.02c-0.563,0-1.02,0.457-1.02,1.02
			c0,0.562,0.457,1.018,1.02,1.018C75.775-45.301,76.232-45.757,76.232-46.318"/>
		<path fill="#2EBDEF" d="M76.232-37.055c0-0.564-0.457-1.02-1.018-1.02c-0.563,0-1.02,0.455-1.02,1.02
			c0,0.562,0.457,1.018,1.02,1.018C75.775-36.037,76.232-36.493,76.232-37.055"/>
		<path fill="#2EBDEF" d="M76.232-50.951c0-0.562-0.457-1.018-1.018-1.018c-0.563,0-1.02,0.456-1.02,1.018s0.457,1.018,1.02,1.018
			C75.775-49.934,76.232-50.39,76.232-50.951"/>
		<path fill="#2EBDEF" d="M76.232-60.215c0-0.562-0.457-1.018-1.018-1.018c-0.563,0-1.02,0.455-1.02,1.018
			c0,0.562,0.457,1.018,1.02,1.018C75.775-59.197,76.232-59.653,76.232-60.215"/>
		<path fill="#2EBDEF" d="M76.232-32.424c0-0.562-0.457-1.018-1.018-1.018c-0.563,0-1.02,0.455-1.02,1.018
			c0,0.562,0.457,1.018,1.02,1.018C75.775-31.406,76.232-31.862,76.232-32.424"/>
		<path fill="#2EBDEF" d="M76.232-69.479c0-0.562-0.457-1.018-1.018-1.018c-0.563,0-1.02,0.456-1.02,1.018
			c0,0.564,0.457,1.018,1.02,1.018C75.775-68.461,76.232-68.914,76.232-69.479"/>
		<path fill="#2EBDEF" d="M76.232-64.846c0-0.562-0.457-1.018-1.018-1.018c-0.563,0-1.02,0.456-1.02,1.018
			c0,0.561,0.457,1.018,1.02,1.018C75.775-63.828,76.232-64.285,76.232-64.846"/>
		<path fill="#2EBDEF" d="M81.603-41.688c0-0.561-0.456-1.018-1.018-1.018c-0.561,0-1.017,0.457-1.017,1.018
			c0,0.562,0.456,1.021,1.017,1.021C81.147-40.667,81.603-41.125,81.603-41.688"/>
		<path fill="#2EBDEF" d="M52.706,0h2.036c0-0.562-0.457-1.02-1.018-1.02C53.162-1.02,52.706-0.562,52.706,0"/>
		<path fill="#2EBDEF" d="M63.45,0h2.036c0-0.562-0.455-1.02-1.017-1.02C63.906-1.02,63.45-0.562,63.45,0"/>
		<path fill="#2EBDEF" d="M58.078,0h2.037c0-0.562-0.456-1.02-1.017-1.02C58.535-1.02,58.078-0.562,58.078,0"/>
		<path fill="#2EBDEF" d="M41.961,0h2.036c0-0.562-0.457-1.02-1.018-1.02C42.417-1.02,41.961-0.562,41.961,0"/>
		<path fill="#2EBDEF" d="M49.37-74.109c0-0.021-0.002-0.043-0.003-0.062h-2.03c-0.001,0.019-0.003,0.04-0.003,0.062
			c0,0.562,0.455,1.018,1.018,1.018S49.37-73.548,49.37-74.109"/>
		<path fill="#2EBDEF" d="M79.568,0h2.035c0-0.562-0.456-1.02-1.017-1.02C80.024-1.02,79.568-0.562,79.568,0"/>
		<path fill="#2EBDEF" d="M68.824,0h2.035c0-0.562-0.456-1.02-1.017-1.02C69.279-1.02,68.824-0.562,68.824,0"/>
		<path fill="#2EBDEF" d="M74.194,0h2.038c0-0.562-0.457-1.02-1.018-1.02C74.651-1.02,74.194-0.562,74.194,0"/>
		<path fill="#2EBDEF" d="M47.333,0h2.036c0-0.562-0.455-1.02-1.018-1.02S47.333-0.562,47.333,0"/>
		<path fill="#2EBDEF" d="M4.355,0H6.39c0-0.562-0.456-1.02-1.017-1.02C4.811-1.02,4.355-0.562,4.355,0"/>
		<path fill="#2EBDEF" d="M81.603-9.266c0-0.561-0.456-1.018-1.018-1.018c-0.561,0-1.017,0.457-1.017,1.018
			c0,0.564,0.456,1.021,1.017,1.021C81.147-8.245,81.603-8.701,81.603-9.266"/>
		<path fill="#2EBDEF" d="M9.727,0h2.037c0-0.562-0.456-1.02-1.019-1.02S9.727-0.562,9.727,0"/>
		<path fill="#2EBDEF" d="M0,0H1.02C1.02-0.562,0.562-1.02,0-1.02V0z"/>
		<path fill="#2EBDEF" d="M36.589,0h2.035c0-0.562-0.456-1.02-1.017-1.02C37.044-1.02,36.589-0.562,36.589,0"/>
		<path fill="#2EBDEF" d="M31.216,0h2.037c0-0.562-0.457-1.02-1.018-1.02C31.671-1.02,31.216-0.562,31.216,0"/>
		<path fill="#2EBDEF" d="M20.471,0h2.037c0-0.562-0.456-1.02-1.017-1.02C20.927-1.02,20.471-0.562,20.471,0"/>
		<path fill="#2EBDEF" d="M25.843,0h2.036c0-0.562-0.455-1.02-1.016-1.02C26.3-1.02,25.843-0.562,25.843,0"/>
		<path fill="#2EBDEF" d="M15.099,0h2.036c0-0.562-0.455-1.02-1.018-1.02C15.555-1.02,15.099-0.562,15.099,0"/>
		<path fill="#2EBDEF" d="M85.958-54.564c0.042,0,0.083-0.004,0.124-0.008v-2.021C86.041-56.598,86-56.6,85.958-56.6
			c-0.562,0-1.018,0.455-1.018,1.018S85.396-54.564,85.958-54.564"/>
		<path fill="#2EBDEF" d="M85.958-59.197c0.042,0,0.083-0.002,0.124-0.008v-2.02c-0.041-0.004-0.082-0.008-0.124-0.008
			c-0.562,0-1.018,0.455-1.018,1.018S85.396-59.197,85.958-59.197"/>
		<path fill="#2EBDEF" d="M85.958-45.301c0.042,0,0.083-0.004,0.124-0.008v-2.021c-0.041-0.004-0.082-0.008-0.124-0.008
			c-0.562,0-1.018,0.457-1.018,1.02S85.396-45.301,85.958-45.301"/>
		<path fill="#2EBDEF" d="M85.958-49.934c0.042,0,0.083-0.002,0.124-0.008v-2.02c-0.041-0.004-0.082-0.008-0.124-0.008
			c-0.562,0-1.018,0.455-1.018,1.018S85.396-49.934,85.958-49.934"/>
		<path fill="#2EBDEF" d="M85.958-68.461c0.042,0,0.083-0.002,0.124-0.006v-2.021c-0.041-0.004-0.082-0.008-0.124-0.008
			c-0.562,0-1.018,0.455-1.018,1.018C84.939-68.914,85.396-68.461,85.958-68.461"/>
		<path fill="#2EBDEF" d="M81.603-4.633c0-0.561-0.456-1.018-1.018-1.018c-0.561,0-1.017,0.457-1.017,1.018
			c0,0.562,0.456,1.021,1.017,1.021C81.147-3.612,81.603-4.07,81.603-4.633"/>
		<path fill="#2EBDEF" d="M85.958-63.828c0.042,0,0.083-0.004,0.124-0.008v-2.02c-0.041-0.006-0.082-0.008-0.124-0.008
			c-0.562,0-1.018,0.455-1.018,1.018C84.939-64.285,85.396-63.828,85.958-63.828"/>
		<path fill="#2EBDEF" d="M85.958-73.092c0.042,0,0.083-0.004,0.124-0.008v-1.072h-1.139c-0.002,0.02-0.003,0.041-0.003,0.062
			C84.939-73.547,85.396-73.092,85.958-73.092"/>
		<path fill="#2EBDEF" d="M85.958-22.143c0.042,0,0.083-0.002,0.124-0.008v-2.018c-0.041-0.008-0.082-0.01-0.124-0.01
			c-0.562,0-1.018,0.455-1.018,1.02C84.939-22.598,85.396-22.143,85.958-22.143"/>
		<path fill="#2EBDEF" d="M85.958-12.877c0.042,0,0.083-0.004,0.124-0.01v-2.02c-0.041-0.006-0.082-0.008-0.124-0.008
			c-0.562,0-1.018,0.457-1.018,1.02C84.939-13.334,85.396-12.877,85.958-12.877"/>
		<path fill="#2EBDEF" d="M85.958-40.668c0.042,0,0.083-0.004,0.124-0.01v-2.02c-0.041-0.004-0.082-0.008-0.124-0.008
			c-0.562,0-1.018,0.457-1.018,1.018C84.939-41.125,85.396-40.668,85.958-40.668"/>
		<path fill="#2EBDEF" d="M85.958-17.51c0.042,0,0.083-0.004,0.124-0.008v-2.02c-0.041-0.006-0.082-0.01-0.124-0.01
			c-0.562,0-1.018,0.457-1.018,1.02S85.396-17.51,85.958-17.51"/>
		<path fill="#2EBDEF" d="M85.958-8.246c0.042,0,0.083-0.004,0.124-0.008v-2.02c-0.041-0.006-0.082-0.01-0.124-0.01
			c-0.562,0-1.018,0.457-1.018,1.018C84.939-8.701,85.396-8.246,85.958-8.246"/>
		<path fill="#2EBDEF" d="M85.958-3.613c0.042,0,0.083-0.004,0.124-0.01v-2.02C86.041-5.648,86-5.65,85.958-5.65
			c-0.562,0-1.018,0.457-1.018,1.018C84.939-4.07,85.396-3.613,85.958-3.613"/>
		<path fill="#2EBDEF" d="M85.958-36.037c0.042,0,0.083-0.004,0.124-0.008v-2.021c-0.041-0.004-0.082-0.008-0.124-0.008
			c-0.562,0-1.018,0.455-1.018,1.02C84.939-36.492,85.396-36.037,85.958-36.037"/>
		<path fill="#2EBDEF" d="M85.958-31.406c0.042,0,0.083-0.002,0.124-0.008v-2.02c-0.041-0.006-0.082-0.008-0.124-0.008
			c-0.562,0-1.018,0.455-1.018,1.018S85.396-31.406,85.958-31.406"/>
		<path fill="#2EBDEF" d="M85.958-26.773c0.042,0,0.083-0.002,0.124-0.008v-2.02c-0.041-0.006-0.082-0.01-0.124-0.01
			c-0.562,0-1.018,0.457-1.018,1.02S85.396-26.773,85.958-26.773"/>
		<path fill="#2EBDEF" d="M86.082,0v-1.01C86.041-1.016,86-1.02,85.958-1.02c-0.563,0-1.018,0.458-1.018,1.02H86.082z"/>
		<path fill="#2EBDEF" d="M54.742-41.688c0-0.561-0.457-1.018-1.018-1.018c-0.562,0-1.018,0.457-1.018,1.018
			c0,0.562,0.456,1.021,1.018,1.021C54.285-40.667,54.742-41.125,54.742-41.688"/>
		<path fill="#2EBDEF" d="M54.742-46.318c0-0.562-0.457-1.02-1.018-1.02c-0.562,0-1.018,0.457-1.018,1.02
			c0,0.562,0.456,1.018,1.018,1.018C54.285-45.301,54.742-45.757,54.742-46.318"/>
		<path fill="#2EBDEF" d="M54.742-69.479c0-0.562-0.457-1.018-1.018-1.018c-0.562,0-1.018,0.456-1.018,1.018
			c0,0.564,0.456,1.018,1.018,1.018C54.285-68.461,54.742-68.914,54.742-69.479"/>
		<path fill="#2EBDEF" d="M54.742-32.424c0-0.562-0.457-1.018-1.018-1.018c-0.562,0-1.018,0.455-1.018,1.018
			c0,0.562,0.456,1.018,1.018,1.018C54.285-31.406,54.742-31.862,54.742-32.424"/>
		<path fill="#2EBDEF" d="M54.742-37.055c0-0.564-0.457-1.02-1.018-1.02c-0.562,0-1.018,0.455-1.018,1.02
			c0,0.562,0.456,1.018,1.018,1.018C54.285-36.037,54.742-36.493,54.742-37.055"/>
		<path fill="#2EBDEF" d="M54.742-60.215c0-0.562-0.457-1.018-1.018-1.018c-0.562,0-1.018,0.455-1.018,1.018
			c0,0.562,0.456,1.018,1.018,1.018C54.285-59.197,54.742-59.653,54.742-60.215"/>
		<path fill="#2EBDEF" d="M54.742-55.582c0-0.562-0.457-1.018-1.018-1.018c-0.562,0-1.018,0.455-1.018,1.018
			c0,0.562,0.456,1.018,1.018,1.018C54.285-54.564,54.742-55.021,54.742-55.582"/>
		<path fill="#2EBDEF" d="M54.742-50.951c0-0.562-0.457-1.018-1.018-1.018c-0.562,0-1.018,0.456-1.018,1.018
			s0.456,1.018,1.018,1.018C54.285-49.934,54.742-50.39,54.742-50.951"/>
		<path fill="#2EBDEF" d="M54.742-27.791c0-0.562-0.457-1.02-1.018-1.02c-0.562,0-1.018,0.458-1.018,1.02
			c0,0.562,0.456,1.018,1.018,1.018C54.285-26.773,54.742-27.229,54.742-27.791"/>
		<path fill="#2EBDEF" d="M60.115-60.215c0-0.562-0.456-1.018-1.018-1.018s-1.019,0.455-1.019,1.018
			c0,0.562,0.457,1.018,1.019,1.018S60.115-59.653,60.115-60.215"/>
		<path fill="#2EBDEF" d="M60.115-74.109c0-0.021-0.003-0.043-0.004-0.062h-2.028c-0.003,0.019-0.005,0.04-0.005,0.062
			c0,0.562,0.457,1.018,1.019,1.018S60.115-73.548,60.115-74.109"/>
		<path fill="#2EBDEF" d="M54.742-4.633c0-0.561-0.457-1.018-1.018-1.018c-0.562,0-1.018,0.457-1.018,1.018
			c0,0.562,0.456,1.021,1.018,1.021C54.285-3.612,54.742-4.07,54.742-4.633"/>
		<path fill="#2EBDEF" d="M60.115-69.479c0-0.562-0.456-1.018-1.018-1.018s-1.019,0.456-1.019,1.018
			c0,0.564,0.457,1.018,1.019,1.018S60.115-68.914,60.115-69.479"/>
		<path fill="#2EBDEF" d="M60.115-64.846c0-0.562-0.456-1.018-1.018-1.018s-1.019,0.456-1.019,1.018
			c0,0.561,0.457,1.018,1.019,1.018S60.115-64.285,60.115-64.846"/>
		<path fill="#2EBDEF" d="M54.742-9.266c0-0.561-0.457-1.018-1.018-1.018c-0.562,0-1.018,0.457-1.018,1.018
			c0,0.564,0.456,1.021,1.018,1.021C54.285-8.245,54.742-8.701,54.742-9.266"/>
		<path fill="#2EBDEF" d="M54.742-18.527c0-0.562-0.457-1.021-1.018-1.021c-0.562,0-1.018,0.458-1.018,1.021
			c0,0.562,0.456,1.018,1.018,1.018C54.285-17.51,54.742-17.966,54.742-18.527"/>
		<path fill="#2EBDEF" d="M54.742-13.895c0-0.562-0.457-1.021-1.018-1.021c-0.562,0-1.018,0.458-1.018,1.021
			c0,0.561,0.456,1.018,1.018,1.018C54.285-12.877,54.742-13.334,54.742-13.895"/>
		<path fill="#2EBDEF" d="M54.742-23.158c0-0.564-0.457-1.02-1.018-1.02c-0.562,0-1.018,0.455-1.018,1.02
			c0,0.561,0.456,1.016,1.018,1.016C54.285-22.143,54.742-22.598,54.742-23.158"/>
		<path fill="#2EBDEF" d="M49.37-50.951c0-0.562-0.455-1.018-1.018-1.018s-1.018,0.456-1.018,1.018s0.455,1.018,1.018,1.018
			S49.37-50.39,49.37-50.951"/>
		<path fill="#2EBDEF" d="M49.37-46.318c0-0.562-0.455-1.02-1.018-1.02s-1.018,0.457-1.018,1.02c0,0.562,0.455,1.018,1.018,1.018
			S49.37-45.757,49.37-46.318"/>
		<path fill="#2EBDEF" d="M49.37-55.582c0-0.562-0.455-1.018-1.018-1.018s-1.018,0.455-1.018,1.018c0,0.562,0.455,1.018,1.018,1.018
			S49.37-55.021,49.37-55.582"/>
		<path fill="#2EBDEF" d="M49.37-41.688c0-0.561-0.455-1.018-1.018-1.018s-1.018,0.457-1.018,1.018c0,0.562,0.455,1.021,1.018,1.021
			S49.37-41.125,49.37-41.688"/>
		<path fill="#2EBDEF" d="M49.37-69.479c0-0.562-0.455-1.018-1.018-1.018s-1.018,0.456-1.018,1.018c0,0.564,0.455,1.018,1.018,1.018
			S49.37-68.914,49.37-69.479"/>
		<path fill="#2EBDEF" d="M49.37-64.846c0-0.562-0.455-1.018-1.018-1.018s-1.018,0.456-1.018,1.018c0,0.561,0.455,1.018,1.018,1.018
			S49.37-64.285,49.37-64.846"/>
		<path fill="#2EBDEF" d="M49.37-37.055c0-0.564-0.455-1.02-1.018-1.02s-1.018,0.455-1.018,1.02c0,0.562,0.455,1.018,1.018,1.018
			S49.37-36.493,49.37-37.055"/>
		<path fill="#2EBDEF" d="M49.37-60.215c0-0.562-0.455-1.018-1.018-1.018s-1.018,0.455-1.018,1.018c0,0.562,0.455,1.018,1.018,1.018
			S49.37-59.653,49.37-60.215"/>
		<path fill="#2EBDEF" d="M49.37-27.791c0-0.562-0.455-1.02-1.018-1.02s-1.018,0.458-1.018,1.02c0,0.562,0.455,1.018,1.018,1.018
			S49.37-27.229,49.37-27.791"/>
		<path fill="#2EBDEF" d="M49.37-13.895c0-0.562-0.455-1.021-1.018-1.021s-1.018,0.458-1.018,1.021c0,0.561,0.455,1.018,1.018,1.018
			S49.37-13.334,49.37-13.895"/>
		<path fill="#2EBDEF" d="M49.37-9.266c0-0.561-0.455-1.018-1.018-1.018s-1.018,0.457-1.018,1.018c0,0.564,0.455,1.021,1.018,1.021
			S49.37-8.701,49.37-9.266"/>
		<path fill="#2EBDEF" d="M49.37-4.633c0-0.561-0.455-1.018-1.018-1.018s-1.018,0.457-1.018,1.018c0,0.562,0.455,1.021,1.018,1.021
			S49.37-4.07,49.37-4.633"/>
		<path fill="#2EBDEF" d="M49.37-32.424c0-0.562-0.455-1.018-1.018-1.018s-1.018,0.455-1.018,1.018c0,0.562,0.455,1.018,1.018,1.018
			S49.37-31.862,49.37-32.424"/>
		<path fill="#2EBDEF" d="M54.742-74.109c0-0.021-0.002-0.043-0.004-0.062h-2.029c-0.002,0.019-0.003,0.04-0.003,0.062
			c0,0.562,0.456,1.018,1.018,1.018C54.285-73.092,54.742-73.548,54.742-74.109"/>
		<path fill="#2EBDEF" d="M54.742-64.846c0-0.562-0.457-1.018-1.018-1.018c-0.562,0-1.018,0.456-1.018,1.018
			c0,0.561,0.456,1.018,1.018,1.018C54.285-63.828,54.742-64.285,54.742-64.846"/>
		<path fill="#2EBDEF" d="M49.37-23.158c0-0.564-0.455-1.02-1.018-1.02s-1.018,0.455-1.018,1.02c0,0.561,0.455,1.016,1.018,1.016
			S49.37-22.598,49.37-23.158"/>
		<path fill="#2EBDEF" d="M49.37-18.527c0-0.562-0.455-1.021-1.018-1.021s-1.018,0.458-1.018,1.021c0,0.562,0.455,1.018,1.018,1.018
			S49.37-17.966,49.37-18.527"/>
		<path fill="#2EBDEF" d="M60.115-41.688c0-0.561-0.456-1.018-1.018-1.018s-1.019,0.457-1.019,1.018
			c0,0.562,0.457,1.021,1.019,1.021S60.115-41.125,60.115-41.688"/>
		<path fill="#2EBDEF" d="M65.486-23.158c0-0.564-0.455-1.02-1.018-1.02c-0.562,0-1.018,0.455-1.018,1.02
			c0,0.561,0.456,1.016,1.018,1.016C65.031-22.143,65.486-22.598,65.486-23.158"/>
		<path fill="#2EBDEF" d="M65.486-18.527c0-0.562-0.455-1.021-1.018-1.021c-0.562,0-1.018,0.458-1.018,1.021
			c0,0.562,0.456,1.018,1.018,1.018C65.031-17.51,65.486-17.966,65.486-18.527"/>
		<path fill="#2EBDEF" d="M65.486-27.791c0-0.562-0.455-1.02-1.018-1.02c-0.562,0-1.018,0.458-1.018,1.02
			c0,0.562,0.456,1.018,1.018,1.018C65.031-26.773,65.486-27.229,65.486-27.791"/>
		<path fill="#2EBDEF" d="M65.486-13.895c0-0.562-0.455-1.021-1.018-1.021c-0.562,0-1.018,0.458-1.018,1.021
			c0,0.561,0.456,1.018,1.018,1.018C65.031-12.877,65.486-13.334,65.486-13.895"/>
		<path fill="#2EBDEF" d="M65.486-37.055c0-0.564-0.455-1.02-1.018-1.02c-0.562,0-1.018,0.455-1.018,1.02
			c0,0.562,0.456,1.018,1.018,1.018C65.031-36.037,65.486-36.493,65.486-37.055"/>
		<path fill="#2EBDEF" d="M65.486-41.688c0-0.561-0.455-1.018-1.018-1.018c-0.562,0-1.018,0.457-1.018,1.018
			c0,0.562,0.456,1.021,1.018,1.021C65.031-40.667,65.486-41.125,65.486-41.688"/>
		<path fill="#2EBDEF" d="M65.486-9.266c0-0.561-0.455-1.018-1.018-1.018c-0.562,0-1.018,0.457-1.018,1.018
			c0,0.564,0.456,1.021,1.018,1.021C65.031-8.245,65.486-8.701,65.486-9.266"/>
		<path fill="#2EBDEF" d="M65.486-32.424c0-0.562-0.455-1.018-1.018-1.018c-0.562,0-1.018,0.455-1.018,1.018
			c0,0.562,0.456,1.018,1.018,1.018C65.031-31.406,65.486-31.862,65.486-32.424"/>
		<path fill="#2EBDEF" d="M70.859-55.582c0-0.562-0.456-1.018-1.018-1.018s-1.017,0.455-1.017,1.018
			c0,0.562,0.455,1.018,1.017,1.018S70.859-55.021,70.859-55.582"/>
		<path fill="#2EBDEF" d="M65.486-46.318c0-0.562-0.455-1.02-1.018-1.02c-0.562,0-1.018,0.457-1.018,1.02
			c0,0.562,0.456,1.018,1.018,1.018C65.031-45.301,65.486-45.757,65.486-46.318"/>
		<path fill="#2EBDEF" d="M70.859-50.951c0-0.562-0.456-1.018-1.018-1.018s-1.017,0.456-1.017,1.018s0.455,1.018,1.017,1.018
			S70.859-50.39,70.859-50.951"/>
		<path fill="#2EBDEF" d="M60.115-55.582c0-0.562-0.456-1.018-1.018-1.018s-1.019,0.455-1.019,1.018
			c0,0.562,0.457,1.018,1.019,1.018S60.115-55.021,60.115-55.582"/>
		<path fill="#2EBDEF" d="M65.486-4.633c0-0.561-0.455-1.018-1.018-1.018c-0.562,0-1.018,0.457-1.018,1.018
			c0,0.562,0.456,1.021,1.018,1.021C65.031-3.612,65.486-4.07,65.486-4.633"/>
		<path fill="#2EBDEF" d="M70.859-60.215c0-0.562-0.456-1.018-1.018-1.018s-1.017,0.455-1.017,1.018
			c0,0.562,0.455,1.018,1.017,1.018S70.859-59.653,70.859-60.215"/>
		<path fill="#2EBDEF" d="M70.859-74.109c0-0.021-0.003-0.043-0.003-0.062h-2.029c-0.003,0.019-0.003,0.04-0.003,0.062
			c0,0.562,0.455,1.018,1.017,1.018S70.859-73.548,70.859-74.109"/>
		<path fill="#2EBDEF" d="M70.859-69.479c0-0.562-0.456-1.018-1.018-1.018s-1.017,0.456-1.017,1.018
			c0,0.564,0.455,1.018,1.017,1.018S70.859-68.914,70.859-69.479"/>
		<path fill="#2EBDEF" d="M70.859-64.846c0-0.562-0.456-1.018-1.018-1.018s-1.017,0.456-1.017,1.018
			c0,0.561,0.455,1.018,1.017,1.018S70.859-64.285,70.859-64.846"/>
		<path fill="#2EBDEF" d="M70.859-46.318c0-0.562-0.456-1.02-1.018-1.02s-1.017,0.457-1.017,1.02c0,0.562,0.455,1.018,1.017,1.018
			S70.859-45.757,70.859-46.318"/>
		<path fill="#2EBDEF" d="M60.115-27.791c0-0.562-0.456-1.02-1.018-1.02s-1.019,0.458-1.019,1.02c0,0.562,0.457,1.018,1.019,1.018
			S60.115-27.229,60.115-27.791"/>
		<path fill="#2EBDEF" d="M60.115-18.527c0-0.562-0.456-1.021-1.018-1.021s-1.019,0.458-1.019,1.021
			c0,0.562,0.457,1.018,1.019,1.018S60.115-17.966,60.115-18.527"/>
		<path fill="#2EBDEF" d="M60.115-32.424c0-0.562-0.456-1.018-1.018-1.018s-1.019,0.455-1.019,1.018
			c0,0.562,0.457,1.018,1.019,1.018S60.115-31.862,60.115-32.424"/>
		<path fill="#2EBDEF" d="M60.115-23.158c0-0.564-0.456-1.02-1.018-1.02s-1.019,0.455-1.019,1.02c0,0.561,0.457,1.016,1.019,1.016
			S60.115-22.598,60.115-23.158"/>
		<path fill="#2EBDEF" d="M60.115-37.055c0-0.564-0.456-1.02-1.018-1.02s-1.019,0.455-1.019,1.02c0,0.562,0.457,1.018,1.019,1.018
			S60.115-36.493,60.115-37.055"/>
		<path fill="#2EBDEF" d="M60.115-50.951c0-0.562-0.456-1.018-1.018-1.018s-1.019,0.456-1.019,1.018s0.457,1.018,1.019,1.018
			S60.115-50.39,60.115-50.951"/>
		<path fill="#2EBDEF" d="M60.115-46.318c0-0.562-0.456-1.02-1.018-1.02s-1.019,0.457-1.019,1.02c0,0.562,0.457,1.018,1.019,1.018
			S60.115-45.757,60.115-46.318"/>
		<path fill="#2EBDEF" d="M70.859-41.688c0-0.561-0.456-1.018-1.018-1.018s-1.017,0.457-1.017,1.018
			c0,0.562,0.455,1.021,1.017,1.021S70.859-41.125,70.859-41.688"/>
		<path fill="#2EBDEF" d="M60.115-13.895c0-0.562-0.456-1.021-1.018-1.021s-1.019,0.458-1.019,1.021
			c0,0.561,0.457,1.018,1.019,1.018S60.115-13.334,60.115-13.895"/>
		<path fill="#2EBDEF" d="M65.486-60.215c0-0.562-0.455-1.018-1.018-1.018c-0.562,0-1.018,0.455-1.018,1.018
			c0,0.562,0.456,1.018,1.018,1.018C65.031-59.197,65.486-59.653,65.486-60.215"/>
		<path fill="#2EBDEF" d="M65.486-50.951c0-0.562-0.455-1.018-1.018-1.018c-0.562,0-1.018,0.456-1.018,1.018
			s0.456,1.018,1.018,1.018C65.031-49.934,65.486-50.39,65.486-50.951"/>
		<path fill="#2EBDEF" d="M65.486-69.479c0-0.562-0.455-1.018-1.018-1.018c-0.562,0-1.018,0.456-1.018,1.018
			c0,0.564,0.456,1.018,1.018,1.018C65.031-68.461,65.486-68.914,65.486-69.479"/>
		<path fill="#2EBDEF" d="M65.486-55.582c0-0.562-0.455-1.018-1.018-1.018c-0.562,0-1.018,0.455-1.018,1.018
			c0,0.562,0.456,1.018,1.018,1.018C65.031-54.564,65.486-55.021,65.486-55.582"/>
		<path fill="#2EBDEF" d="M65.486-64.846c0-0.562-0.455-1.018-1.018-1.018c-0.562,0-1.018,0.456-1.018,1.018
			c0,0.561,0.456,1.018,1.018,1.018C65.031-63.828,65.486-64.285,65.486-64.846"/>
		<path fill="#2EBDEF" d="M65.486-74.109c0-0.021-0.002-0.043-0.003-0.062h-2.03c0,0.019-0.003,0.04-0.003,0.062
			c0,0.562,0.456,1.018,1.018,1.018C65.031-73.092,65.486-73.548,65.486-74.109"/>
		<path fill="#2EBDEF" d="M60.115-9.266c0-0.561-0.456-1.018-1.018-1.018s-1.019,0.457-1.019,1.018c0,0.564,0.457,1.021,1.019,1.021
			S60.115-8.701,60.115-9.266"/>
		<path fill="#2EBDEF" d="M60.115-4.633c0-0.561-0.456-1.018-1.018-1.018s-1.019,0.457-1.019,1.018c0,0.562,0.457,1.021,1.019,1.021
			S60.115-4.07,60.115-4.633"/>
	</g>
</pattern>
<polygon fill="#82CFF5" points="594.547,499.516 1080.334,504.307 1094.717,10.703 593.044,20.239 "/>
<pattern  id="SVGID_1_" xlink:href="#Unnamed_Pattern_9" patternTransform="matrix(1 0 0 -1 -2644.3545 1988.1992)">
</pattern>
<polyline fill="url(#SVGID_1_)" points="595.303,496.167 595.303,278.756 1085.552,313.736 1080.41,503.414 "/>
<pattern  id="SVGID_2_" xlink:href="#Unnamed_Pattern_9" patternTransform="matrix(1 0 0 -1 -2644.3545 1988.1992)">
</pattern>
<polyline fill="url(#SVGID_2_)" points="595.303,496.167 595.303,278.756 1085.552,313.736 1080.41,503.414 "/>
<g>
	<g>
		<polygon fill="#FFFFFF" points="781.323,444.492 814.997,452.37 817.169,448.432 815.712,444.492 781.323,436.978 		"/>
		<path fill="#A42423" d="M866.546,443.484l-50.921,8.886l-1.101,0.192c0,0,2.207-2.186,0.78-7.902l50.333-8.239
			C865.638,436.421,868.366,437.299,866.546,443.484z"/>
		<polygon fill="#A42423" points="865.617,436.421 830.823,430.287 781.323,436.978 815.712,444.492 		"/>
	</g>
	<g>
		<polygon fill="#FFFFFF" points="782.647,434.73 816.322,442.605 818.491,438.669 817.036,425.843 782.647,420.551 		"/>
		<path fill="#0E8CCD" d="M867.866,433.721l-50.918,8.885l-1.098,0.192c0,0,2.202-11.071,0.776-16.787l50.333-8.239
			C866.96,417.771,869.688,427.535,867.866,433.721z"/>
		<polygon fill="#0E8CCD" points="866.939,417.771 827.815,411.043 781.555,420.24 817.036,425.843 		"/>
	</g>
	<polygon fill="#A42523" points="870.066,415.732 781.973,404.77 781.973,417.527 786.827,417.959 815.896,423.55 	"/>
	<path fill="#FFFFFF" d="M784.303,416.779c0,0-1.391-10.988-0.308-11.643c1.085-0.662,32.534,1.926,32.534,1.926l49.936-3.797
		l-1.279,12.268l-49.688,6.43L784.303,416.779z"/>
	<polygon fill="#A42523" points="870.066,403.846 828.576,399.416 781.973,404.77 815.499,410.121 	"/>
	<polygon fill="#FFFFFF" points="790.193,403.266 819.07,408.324 820.933,405.795 819.683,403.266 790.193,399.869 	"/>
	<path fill="#0E8CCD" d="M863.272,402.619l-43.665,5.705l-0.941,0.122c0,0,1.889-1.401,0.668-5.073l43.16-5.285
		C862.494,398.088,864.832,398.65,863.272,402.619z"/>
	<polygon fill="#0E8CCD" points="862.476,398.088 832.64,394.148 790.193,399.869 819.683,403.266 	"/>
</g>
<g>
	<g>
		<path fill="#0E8CCD" d="M705.375,437.597c0,0-15.021-36.259-14.859-57.138c0.163-20.881-21.688-24.889-31.386-17.902
			c-9.699,6.99-13.347,22.039-10.332,43.686c3.017,21.646,11.467,43.377,20.015,45.867
			C677.354,454.6,700.16,457.207,705.375,437.597z"/>
		<path fill="#110906" d="M710.183,438.084c0,0,33.52-47.508,46.953-35.623c19.549,17.3,17.951,50.568,17.76,49.874
			c0,0,36.413,10.474,29.896,14.192c-14.861,8.47-36.182-6.065-36.182-6.065s-8.477-52.321-20.419-42.802
			c-7.48,5.969-22.476,33.476-39.36,42.492c-15.058,8.039-24.508,5.195-17.711-1.827c8.04-8.309,7.849-15.681,7.849-15.681
			S710.142,439.49,710.183,438.084z"/>
		<path fill="#110906" d="M691.053,437.82c0,0,21.989-39.982,44.578-27.449c22.594,12.537,20.398,52.822,20.398,52.822
			s40.259,9.717,33.433,13.422c-15.557,8.45-42.047-6.217-42.047-6.217s-5.748-57.052-18.248-47.55
			c-12.501,9.507-18.787,39.687-31.851,41.981s-19.283,1.529-28.696-5.895c-9.413-7.426-8.181-14.336-8.181-14.336
			S679.816,442.564,691.053,437.82z"/>
		<path fill="#110906" d="M666.52,326.129c0,0,1.713,9.935-7.574,11.221c-9.286,1.282-8.174-0.753-8.174-0.753
			s1.884,8.933,8.021,9.259c6.136,0.329,6.548-3.318,6.548-3.318s-1.417,7.25-3.843,7.248c-2.434-0.011,7.968,6.191,11.588,1.714
			c3.619-4.472,4.052-22.202,3.535-22.406C676.103,328.891,666.52,326.129,666.52,326.129"/>
		<path fill="#FFFFFF" d="M673.986,323.488c-1.303,3.814-2.271,7.718-2.947,11.668c-0.644,3.75-0.31,7.205,0.091,10.84
			c1.233,7.608-5.457,15.249-5.457,15.249c3.901,5.272,13.514,6.817,13.824,5.358c0.556-2.621,1.396-11.948,6.1-8.008
			c22.144,18.564,28.769-6.184,28.988-7.793c0.532-1.278,1.002-2.551,1.442-3.76c1.597-4.372,3.268-8.652,5.368-12.836
			c2.997-5.958,7.797-14.553,3.618-21.02c-4.479-6.945-14.222-9.785-22.413-10.197c-8.268-0.416-17.538,0.855-21.775,8.439
			c-0.233,0.415-0.442,0.844-0.649,1.268C677.319,315.754,675.324,319.604,673.986,323.488z"/>
		<path fill="#110906" d="M708.029,311.148c0.445,0.369-5.091,8.245-14.236,11.488c-9.151,3.24-12.292,8.695-14.354,15.813
			c-0.107,0.372-5.915-8.579-2.705-15.764c0.342-0.757-4.715,5.135-4.261,8.087c0.454,2.953-14.902-6.412-0.612-20.826
			c14.3-14.416,20.52-10.23,20.52-10.23s-3.26-4.918-12.384-1.285c0,0,7.307-6.828,15.791-4.049
			c17.344,5.686,16.618,11.324,16.618,11.324"/>
		<path fill="#FFFFFF" d="M676.307,323.498c-0.528-0.779-1.2-1.479-2.021-2.057c-0.612-0.435-1.331-0.715-2.084-0.84
			c-1.86-0.684-3.898-0.123-5.224,2.402c-1.065,2.025-0.99,4.189-0.157,6.115c0.179,0.733,0.43,1.461,0.77,2.189
			c0.972,2.097,2.358,4.63,4.812,5.451c0.769,0.263,1.442,0.035,1.897-0.393c0.821,0.213,1.697,0.163,2.35-0.238
			C675.406,332.062,675.825,327.775,676.307,323.498z"/>
		<path fill="none" stroke="#020303" stroke-width="0.8056" stroke-miterlimit="10" d="M714.686,340.148
			c-0.627,1.396-0.509,2.773,0.253,3.074c0.767,0.302,1.892-0.584,2.513-1.981c0.626-1.393,0.51-2.771-0.253-3.069
			C716.431,337.867,715.311,338.752,714.686,340.148z"/>
		<path fill="none" stroke="#020303" stroke-width="0.8056" stroke-miterlimit="10" d="M699.253,335.721
			c-0.622,1.395-0.508,2.77,0.258,3.072c0.76,0.303,1.888-0.583,2.51-1.979c0.621-1.396,0.509-2.773-0.252-3.075
			C701.001,333.439,699.877,334.327,699.253,335.721z"/>
		<path fill="none" stroke="#1E1E1C" stroke-width="1.9911" stroke-miterlimit="10" d="M705.533,332.974
			c0,0-0.351,8.781-4.829,8.063c-4.474-0.709-13.303-1.51-12.765-5.232c0.542-3.716,0.251-7.857,5.954-7.143
			C699.592,329.379,705.318,330.492,705.533,332.974z"/>
		<path fill="none" stroke="#1E1E1C" stroke-width="1.9911" stroke-miterlimit="10" d="M711.361,335.746
			c0,0-3.622,7.555-1.141,8.961c2.486,1.412,7.917,3.068,9.225-0.398c1.306-3.461,3.27-4.818,0.188-6.778
			C716.55,335.572,712.515,333.699,711.361,335.746z"/>
		<g>
			<path fill="#FFFFFF" d="M709.088,335.795c-0.161,0.123,3.018,9.008,5.442,14.338c-2.243,0.455-8.025,0.301-10.018-0.482"/>
			<g>
				<path fill="#1E1E1C" d="M708.59,335.795c-0.164,1.453,1.178,3.738,1.659,5.051c1.182,3.218,2.445,6.411,3.852,9.538
					c0.099-0.243,0.198-0.487,0.298-0.731c-3.021,0.523-6.841,0.511-9.754-0.482c-0.609-0.207-0.868,0.755-0.264,0.961
					c3.108,1.06,7.079,1.036,10.281,0.482c0.346-0.061,0.417-0.467,0.298-0.731c-1.283-2.855-2.429-5.77-3.528-8.7
					c-0.502-1.338-2.013-3.916-1.846-5.387C709.658,335.157,708.661,335.164,708.59,335.795L708.59,335.795z"/>
			</g>
		</g>
		<g>
			<g>
				<path fill="#1E1E1C" d="M671.775,324.182c0.677,0.77,1.244,1.607,1.729,2.509c0.236,0.439,0.44,0.925,0.5,1.424
					c0.104,0.879-2.226-0.334-2.217-0.329c-0.314-0.149-0.604-0.016-0.731,0.297c-0.361,0.891,0,1.76,0.402,2.572
					c0.295,0.596,0.668,1.153,0.988,1.736c0.743,1.351-0.809,1.178-1.726,1.099c-0.64-0.055-0.635,0.941,0,0.996
					c1.099,0.094,3.098,0.24,3.025-1.375c-0.073-1.629-2.411-3.089-1.729-4.763c-0.244,0.099-0.488,0.198-0.731,0.297
					c0.846,0.403,3.67,1.669,3.71-0.315c0.036-1.78-1.403-3.588-2.518-4.851C672.054,322.996,671.353,323.702,671.775,324.182
					L671.775,324.182z"/>
			</g>
		</g>
		<g>
			<g>
				<path fill="#1E1E1C" d="M711.175,336.551c0.074-3.067-4.456-3.522-6.524-2.539c-1.159,0.551-0.147,2.267,1.006,1.719
					c0.724-0.344,3.558-0.422,3.528,0.82C709.153,337.836,711.145,337.832,711.175,336.551L711.175,336.551z"/>
			</g>
		</g>
		<path fill="#110906" d="M696.895,312.074c1.031,0.406,18.161-0.809,19.831,15.818c1.688,16.81,9.801,16.985,9.801,16.985
			s-5.784-3.805-1.006-13.136c5.422-10.579,7.456-30.696-12.775-28.424C692.509,305.594,696.895,312.074,696.895,312.074z"/>
		<g>
			<g>
				<path fill="#020303" d="M692.828,325.283c3.902,0.149,7.759,0.915,11.516,1.953c0.502,0.139,0.715-0.639,0.215-0.777
					c-3.825-1.057-7.758-1.83-11.73-1.982C692.309,324.457,692.311,325.263,692.828,325.283L692.828,325.283z"/>
			</g>
		</g>
		<g>
			<g>
				<path fill="#020303" d="M714.277,329.635c3.191,1.771,6.818,2.569,9.933,4.492c0.443,0.274,0.848-0.423,0.406-0.695
					c-3.116-1.925-6.74-2.722-9.933-4.492C714.229,328.688,713.823,329.383,714.277,329.635L714.277,329.635z"/>
			</g>
		</g>
		<g>
			<g>
				<path fill="#020303" d="M707.835,353.781c-3.614,0.302-6.459-1.089-9.604-2.729c-0.46-0.24-0.867,0.455-0.406,0.695
					c3.273,1.707,6.247,3.153,10.01,2.838C708.349,354.543,708.353,353.737,707.835,353.781L707.835,353.781z"/>
			</g>
		</g>
		<path fill="none" stroke="#1E1E1C" stroke-width="1.9911" stroke-miterlimit="10" d="M688.261,329.943
			c-0.846-0.336-8.151-5.565-8.151-5.565"/>
		<path fill="#FFFFFF" d="M652.66,389.842l10.382-0.611c0,0-0.486,22.252,4.244,29.058c6.131,8.817,11.479-7.558,17.476-18.173
			c0.013-0.014,0.026-0.031,0.04-0.045c1.578-1.811,3.429-3.649,5.647-4.773c0.508,0.84,1.007,1.687,1.464,2.553
			c0.265,0.502,0.603,0.875,0.984,1.147c-0.831,5.884-5.656,33.047-24.189,33.31C647.923,432.6,652.66,389.842,652.66,389.842z"/>
		<polygon fill="#0E8CCD" points="690.453,407.266 730.684,391.76 755.908,397.506 726.543,413.052 		"/>
		<path fill="#FFFFFF" d="M710.92,393.483l11.605,8.052c0,0-0.181,2.36-5.311,0.305c-5.127-2.049-6.797-3.441-6.797-3.441
			s11.315,5.797,11.528,9.004c0.212,3.211-14.933-6.41-14.933-6.41s7.816,4.164,6.841,7.499c-0.979,3.333-11.184-5.483-11.184-5.483
			s-13.241,8.162-15.438-3.116C685.74,392.242,710.92,393.483,710.92,393.483z"/>
		<path fill="#FFFFFF" d="M715.079,394.385c0,0,8.759,8.171,10.008,6.156c1.251-2.014-2.843-4.676-2.843-4.676
			s6.374,4.248,7.968,3.431c1.594-0.812-4.597-5.288-4.597-5.288s5.37,2.781,4.461,0.641c-0.908-2.141-5.591-5.531-8.755-7.24
			c-1.84-0.992-7.218-1.265-12.266-0.088c-1.244,0.291-10.325,5.637-10.437,6.1c-0.182,0.77,0.085,1.979,1.082,2.934
			C701.586,398.157,706.078,399.051,715.079,394.385z"/>
		<g>
			<polygon fill="#C3E5F6" points="726.526,416.891 764.682,403.291 785.737,362.091 750.302,368.575 			"/>
		</g>
		<polygon fill="#FFFFFF" points="786.234,362.129 779.686,360.043 746.034,367.342 750.061,369.418 		"/>
		<polygon fill="#82CFF5" points="750.061,369.418 746.034,367.342 724.27,411.237 690.453,407.266 691.686,412.65 728.362,416.935 
					"/>
	</g>
	
		<ellipse transform="matrix(-0.9957 -0.0931 0.0931 -0.9957 1308.54 722.3832)" fill="#0E8CCD" cx="671.115" cy="330.679" rx="7.901" ry="12.754"/>
	
		<ellipse transform="matrix(-0.9957 -0.0931 0.0931 -0.9957 1301.8881 719.0846)" fill="#E4F3FB" cx="667.713" cy="329.183" rx="7.901" ry="12.754"/>
	<path fill="#0E8CCD" d="M718.859,303.271l-8.006-4.687c0,0-5.906-1.934-21.48-0.586c-22.898,1.981-26.646,32.77-26.091,30.447
		l5.88,2.818c0,0,4.961-23.851,19.038-28.189C707.257,297.202,715.931,302.293,718.859,303.271z"/>
	<path fill="none" stroke="#C3E5F6" stroke-width="1.0867" stroke-miterlimit="10" d="M664.826,341.4
		c0,0-19.743,23.277-3.831,27.108c9.458,2.278,11.787,3.243,14.145,10.608c2.356,7.365-3.242,12.079-4.715,22.982
		c-1.474,10.902-2.946,20.922,5.01,27.403c7.955,6.483,26.518,28.878,41.545-15.615"/>
</g>
<g>
	<polygon fill="#C3E5F6" points="970.598,237.633 719.833,253.945 721.152,72.723 970.598,85.921 	"/>
	<g>
		
			<line fill="none" stroke="#0E8CCD" stroke-linecap="round" stroke-miterlimit="10" x1="767.541" y1="202.277" x2="913.368" y2="199.426"/>
		
			<line fill="none" stroke="#0E8CCD" stroke-linecap="round" stroke-miterlimit="10" x1="835.265" y1="227.506" x2="835.669" y2="128.838"/>
		<path fill="none" stroke="#0E8CCD" stroke-linecap="round" stroke-miterlimit="10" d="M792.389,134.371
			c0,0-2.152,66.406,42.876,65.713c45.029-0.693,45.126-71.246,45.126-71.246"/>
		<g>
			<g>
				<path fill="#0E8CCD" d="M832.413,196.383c1.901,0,3.803,0,5.704,0c0.645,0,0.645-1,0-1c-1.901,0-3.803,0-5.704,0
					C831.769,195.383,831.769,196.383,832.413,196.383L832.413,196.383z"/>
			</g>
		</g>
		<g>
			<g>
				<path fill="#0E8CCD" d="M832.413,189.855c1.901,0,3.803,0,5.704,0c0.645,0,0.645-1,0-1c-1.901,0-3.803,0-5.704,0
					C831.769,188.855,831.769,189.855,832.413,189.855L832.413,189.855z"/>
			</g>
		</g>
		<g>
			<g>
				<path fill="#0E8CCD" d="M832.413,182.395c1.901,0,3.803,0,5.704,0c0.645,0,0.645-1,0-1c-1.901,0-3.803,0-5.704,0
					C831.769,181.395,831.769,182.395,832.413,182.395L832.413,182.395z"/>
			</g>
		</g>
		<g>
			<g>
				<path fill="#0E8CCD" d="M832.683,174.623c1.901,0,3.803,0,5.704,0c0.645,0,0.645-1,0-1c-1.901,0-3.803,0-5.704,0
					C832.038,173.623,832.038,174.623,832.683,174.623L832.683,174.623z"/>
			</g>
		</g>
		<g>
			<g>
				<path fill="#0E8CCD" d="M832.548,168.65c1.901,0,3.803,0,5.704,0c0.645,0,0.645-1,0-1c-1.901,0-3.803,0-5.704,0
					C831.903,167.65,831.903,168.65,832.548,168.65L832.548,168.65z"/>
			</g>
		</g>
		<g>
			<g>
				<path fill="#0E8CCD" d="M832.548,162.122c1.901,0,3.803,0,5.704,0c0.645,0,0.645-1,0-1c-1.901,0-3.803,0-5.704,0
					C831.903,161.122,831.903,162.122,832.548,162.122L832.548,162.122z"/>
			</g>
		</g>
		<g>
			<g>
				<path fill="#0E8CCD" d="M832.548,154.662c1.901,0,3.803,0,5.704,0c0.645,0,0.645-1,0-1c-1.901,0-3.803,0-5.704,0
					C831.903,153.662,831.903,154.662,832.548,154.662L832.548,154.662z"/>
			</g>
		</g>
		<g>
			<g>
				<path fill="#0E8CCD" d="M832.817,146.891c1.901,0,3.803,0,5.704,0c0.645,0,0.645-1,0-1c-1.901,0-3.803,0-5.704,0
					C832.173,145.891,832.173,146.891,832.817,146.891L832.817,146.891z"/>
			</g>
		</g>
		<g>
			<g>
				<path fill="#0E8CCD" d="M832.548,229.334c1.901,0,3.803,0,5.704,0c0.645,0,0.645-1,0-1c-1.901,0-3.803,0-5.704,0
					C831.903,228.334,831.903,229.334,832.548,229.334L832.548,229.334z"/>
			</g>
		</g>
		<g>
			<g>
				<path fill="#0E8CCD" d="M832.548,222.807c1.901,0,3.803,0,5.704,0c0.645,0,0.645-1,0-1c-1.901,0-3.803,0-5.704,0
					C831.903,221.807,831.903,222.807,832.548,222.807L832.548,222.807z"/>
			</g>
		</g>
		<g>
			<g>
				<path fill="#0E8CCD" d="M832.548,215.346c1.901,0,3.803,0,5.704,0c0.645,0,0.645-1,0-1c-1.901,0-3.803,0-5.704,0
					C831.903,214.346,831.903,215.346,832.548,215.346L832.548,215.346z"/>
			</g>
		</g>
		<g>
			<g>
				<path fill="#0E8CCD" d="M832.817,207.574c1.901,0,3.803,0,5.704,0c0.645,0,0.645-1,0-1c-1.901,0-3.803,0-5.704,0
					C832.173,206.574,832.173,207.574,832.817,207.574L832.817,207.574z"/>
			</g>
		</g>
		<g>
			<g>
				<path fill="#0E8CCD" d="M866.28,202.816c0-1.901,0-3.803,0-5.704c0-0.645-1-0.645-1,0c0,1.901,0,3.803,0,5.704
					C865.28,203.461,866.28,203.461,866.28,202.816L866.28,202.816z"/>
			</g>
		</g>
		<g>
			<g>
				<path fill="#0E8CCD" d="M859.752,202.816c0-1.901,0-3.803,0-5.704c0-0.645-1-0.645-1,0c0,1.901,0,3.803,0,5.704
					C858.752,203.461,859.752,203.461,859.752,202.816L859.752,202.816z"/>
			</g>
		</g>
		<g>
			<g>
				<path fill="#0E8CCD" d="M852.292,202.816c0-1.901,0-3.803,0-5.704c0-0.645-1-0.645-1,0c0,1.901,0,3.803,0,5.704
					C851.292,203.461,852.292,203.461,852.292,202.816L852.292,202.816z"/>
			</g>
		</g>
		<g>
			<g>
				<path fill="#0E8CCD" d="M844.521,202.547c0-1.901,0-3.803,0-5.704c0-0.645-1-0.645-1,0c0,1.901,0,3.803,0,5.704
					C843.521,203.192,844.521,203.192,844.521,202.547L844.521,202.547z"/>
			</g>
		</g>
		<g>
			<g>
				<path fill="#0E8CCD" d="M894.88,202.682c0-1.901,0-3.803,0-5.704c0-0.645-1-0.645-1,0c0,1.901,0,3.803,0,5.704
					C893.88,203.327,894.88,203.327,894.88,202.682L894.88,202.682z"/>
			</g>
		</g>
		<g>
			<g>
				<path fill="#0E8CCD" d="M888.352,202.682c0-1.901,0-3.803,0-5.704c0-0.645-1-0.645-1,0c0,1.901,0,3.803,0,5.704
					C887.352,203.327,888.352,203.327,888.352,202.682L888.352,202.682z"/>
			</g>
		</g>
		<g>
			<g>
				<path fill="#0E8CCD" d="M880.891,202.682c0-1.901,0-3.803,0-5.704c0-0.645-1-0.645-1,0c0,1.901,0,3.803,0,5.704
					C879.891,203.327,880.891,203.327,880.891,202.682L880.891,202.682z"/>
			</g>
		</g>
		<g>
			<g>
				<path fill="#0E8CCD" d="M873.119,202.412c0-1.901,0-3.802,0-5.703c0-0.645-1-0.645-1,0c0,1.901,0,3.802,0,5.703
					C872.119,203.057,873.119,203.057,873.119,202.412L873.119,202.412z"/>
			</g>
		</g>
		<g>
			<g>
				<path fill="#0E8CCD" d="M828.2,202.682c0-1.901,0-3.803,0-5.704c0-0.645-1-0.645-1,0c0,1.901,0,3.803,0,5.704
					C827.2,203.327,828.2,203.327,828.2,202.682L828.2,202.682z"/>
			</g>
		</g>
		<g>
			<g>
				<path fill="#0E8CCD" d="M821.672,202.682c0-1.901,0-3.803,0-5.704c0-0.645-1-0.645-1,0c0,1.901,0,3.803,0,5.704
					C820.672,203.327,821.672,203.327,821.672,202.682L821.672,202.682z"/>
			</g>
		</g>
		<g>
			<g>
				<path fill="#0E8CCD" d="M814.211,202.682c0-1.901,0-3.803,0-5.704c0-0.645-1-0.645-1,0c0,1.901,0,3.803,0,5.704
					C813.211,203.327,814.211,203.327,814.211,202.682L814.211,202.682z"/>
			</g>
		</g>
		<g>
			<g>
				<path fill="#0E8CCD" d="M806.439,202.412c0-1.901,0-3.802,0-5.703c0-0.645-1-0.645-1,0c0,1.901,0,3.802,0,5.703
					C805.439,203.057,806.439,203.057,806.439,202.412L806.439,202.412z"/>
			</g>
		</g>
		<g>
			<g>
				<path fill="#0E8CCD" d="M798.668,202.547c0-1.901,0-3.803,0-5.704c0-0.645-1-0.645-1,0c0,1.901,0,3.803,0,5.704
					C797.668,203.192,798.668,203.192,798.668,202.547L798.668,202.547z"/>
			</g>
		</g>
		<g>
			<g>
				<path fill="#0E8CCD" d="M792.14,202.547c0-1.901,0-3.803,0-5.704c0-0.645-1-0.645-1,0c0,1.901,0,3.803,0,5.704
					C791.14,203.192,792.14,203.192,792.14,202.547L792.14,202.547z"/>
			</g>
		</g>
		<g>
			<g>
				<path fill="#0E8CCD" d="M784.68,202.547c0-1.901,0-3.803,0-5.704c0-0.645-1-0.645-1,0c0,1.901,0,3.803,0,5.704
					C783.68,203.192,784.68,203.192,784.68,202.547L784.68,202.547z"/>
			</g>
		</g>
		<g>
			<g>
				<path fill="#0E8CCD" d="M776.908,202.277c0-1.901,0-3.802,0-5.703c0-0.645-1-0.645-1,0c0,1.901,0,3.802,0,5.703
					C775.908,202.922,776.908,202.922,776.908,202.277L776.908,202.277z"/>
			</g>
		</g>
	</g>
	<g>
		<g>
			<path fill="#010202" d="M858.8,111.959c-0.017,2.559-0.11,5.131-0.026,7.688c0.032,0.99,0.415,2.738,1.545,3.079
				c1.374,0.414,2.187-0.189,2.993-1.28c1.477-1.996,2.139-5.023,3.061-7.307c-0.327-0.044-0.655-0.088-0.982-0.133
				c0.217,5.102,0.288,10.205,0.212,15.311c-0.006,0.549-0.072,1.092-0.2,1.628c-0.221,1.579-1.253,1.722-3.097,0.431
				c-0.51-1.34,0.895-3.144,1.594-4.191c1.556-2.332,3.43-4.43,5.438-6.375c0.464-0.449-0.244-1.156-0.707-0.707
				c-1.815,1.758-12.228,12.729-4.762,13.691c2.162,0.279,2.663-3.061,2.733-4.477c0.252-5.078,0.004-10.235-0.212-15.311
				c-0.025-0.594-0.776-0.643-0.982-0.133c-0.464,1.15-0.928,2.301-1.392,3.452c-0.232,0.575-0.465,1.15-0.696,1.726
				c-0.186,0.441-0.37,0.882-0.556,1.323c-0.396,1.116-1.325,1.246-2.787,0.39c-0.512-1.269-0.215-3.057-0.206-4.386
				c0.01-1.473,0.02-2.946,0.029-4.418C859.804,111.314,858.804,111.314,858.8,111.959L858.8,111.959z"/>
		</g>
	</g>
	<g>
		<g>
			<path fill="#010202" d="M871.294,114.461c2.001,0,4.003,0,6.004,0c0.645,0,0.645-1,0-1c-2.001,0-4.003,0-6.004,0
				C870.649,113.461,870.649,114.461,871.294,114.461L871.294,114.461z"/>
		</g>
	</g>
	<g>
		<g>
			<path fill="#010202" d="M870.896,117.285c1.981-0.171,3.928-0.073,5.879,0.318c0.63,0.126,0.897-0.837,0.266-0.964
				c-2.035-0.409-4.075-0.533-6.145-0.354C870.258,116.34,870.253,117.341,870.896,117.285L870.896,117.285z"/>
		</g>
	</g>
	<g>
		<g>
			<path fill="#010202" d="M889.282,111.713c-2.454,0.154-4.575,1.045-6.403,2.688c-1.236,1.111-2.4,3.326-1.345,4.933
				c0.927,1.411,2.373,1.796,3.805,0.83c0.751-0.507,1.25-1.42,1.679-2.186c0.922-1.649,1.705-3.202,2.948-4.659
				c-0.284-0.118-0.569-0.236-0.854-0.354c0.047,1.51-1.282,3.801-0.135,5.18c0.758,0.91,1.854,1.12,2.77,0.335
				c0.49-0.42-0.221-1.125-0.707-0.707c-0.497-0.383-0.994-0.767-1.491-1.15c0.046-0.581,0.156-1.148,0.33-1.702
				c0.183-0.672,0.255-1.268,0.233-1.956c-0.013-0.404-0.555-0.704-0.854-0.354c-1.689,1.98-2.506,4.507-4.179,6.447
				c-1.237,1.435-3.104-0.22-2.855-1.812c0.163-1.047,1.071-1.878,1.815-2.547c1.424-1.28,3.372-1.869,5.242-1.987
				C889.923,112.673,889.927,111.672,889.282,111.713L889.282,111.713z"/>
		</g>
	</g>
	<g>
		<g>
			<path fill="#010202" d="M893.646,111.215c2.159,2.379,4.318,4.759,6.478,7.139c0.435,0.479,1.14-0.231,0.707-0.707
				c-2.159-2.38-4.318-4.759-6.478-7.139C893.918,110.029,893.213,110.739,893.646,111.215L893.646,111.215z"/>
		</g>
	</g>
	<g>
		<g>
			<path fill="#010202" d="M893.402,118.481c2.416-2.668,4.833-5.336,7.249-8.004c0.432-0.477-0.273-1.186-0.707-0.707
				c-2.416,2.668-4.833,5.336-7.249,8.004C892.264,118.251,892.969,118.96,893.402,118.481L893.402,118.481z"/>
		</g>
	</g>
	<g>
		<g>
			<path fill="#010202" d="M903,106.355c0.02-1.088,0.039-2.177,0.06-3.266c-0.251,0.144-0.502,0.288-0.752,0.432
				c2.436,1.808,2.533,5.578,0.33,7.596c-0.334,0.306-0.062,0.842,0.354,0.854c1.043,0.029,2.085,0.06,3.128,0.089
				c0.646,0.018,0.644-0.982,0-1c-1.043-0.029-2.085-0.06-3.128-0.089c0.118,0.285,0.235,0.569,0.354,0.854
				c2.721-2.491,2.394-6.994-0.533-9.166c-0.318-0.237-0.745,0.087-0.752,0.432c-0.021,1.088-0.04,2.177-0.06,3.266
				C901.988,107,902.988,107,903,106.355L903,106.355z"/>
		</g>
	</g>
	<g>
		<g>
			<path fill="#010202" d="M909.322,113.261c1.334,0,2.669,0,4.003,0c0.645,0,0.645-1,0-1c-1.334,0-2.669,0-4.003,0
				C908.678,112.261,908.678,113.261,909.322,113.261L909.322,113.261z"/>
		</g>
	</g>
	<g>
		<g>
			<path fill="#010202" d="M910.622,114.361c0-1.734,0-3.469,0-5.203c0-0.645-1-0.645-1,0c0,1.734,0,3.469,0,5.203
				C909.622,115.006,910.622,115.006,910.622,114.361L910.622,114.361z"/>
		</g>
	</g>
	<g>
		<g>
			<path fill="#010202" d="M920.211,106.287c-1.42,3.544-2.859,7.895-1.985,11.738c0.275,1.209,2.922,4.454,4.377,2.844
				c1.781-1.97,1.984-5.523,0.053-7.393c-2.684-2.598-4.4,2.212-5.986,3.231c-0.541,0.347-0.04,1.213,0.504,0.863
				c0.78-0.5,1.237-1.081,1.737-1.863c0.105-0.171,0.21-0.341,0.315-0.512c0.872-1.735,2.138-1.341,3.795,1.184
				c0.151,1.285-0.586,5.064-2.99,2.875c-2.924-2.663-0.044-9.733,1.146-12.701C921.416,105.954,920.448,105.696,920.211,106.287
				L920.211,106.287z"/>
		</g>
	</g>
	<g>
		<g>
			<path fill="#010202" d="M926.063,112.012c1.983,2.391,3.877,4.85,5.684,7.377c0.371,0.52,1.239,0.021,0.863-0.505
				c-1.855-2.597-3.802-5.123-5.84-7.58C926.358,110.808,925.655,111.52,926.063,112.012L926.063,112.012z"/>
		</g>
	</g>
	<g>
		<g>
			<path fill="#010202" d="M926.088,119.119c2.601-2.588,4.897-5.424,6.892-8.502c0.352-0.543-0.515-1.044-0.863-0.505
				c-1.949,3.009-4.194,5.772-6.735,8.3C924.923,118.867,925.631,119.574,926.088,119.119L926.088,119.119z"/>
		</g>
	</g>
	<g>
		<g>
			<path fill="#010202" d="M938.947,111.295c1.848-0.189,3.666-0.117,5.49,0.24c0.63,0.124,0.898-0.84,0.266-0.964
				c-1.909-0.374-3.818-0.474-5.756-0.276C938.312,110.36,938.306,111.36,938.947,111.295L938.947,111.295z"/>
		</g>
	</g>
	<g>
		<g>
			<path fill="#010202" d="M941.846,112.761c0-1.735,0-3.469,0-5.204c0-0.645-1-0.645-1,0c0,1.735,0,3.469,0,5.204
				C940.846,113.406,941.846,113.406,941.846,112.761L941.846,112.761z"/>
		</g>
	</g>
	<g>
		<g>
			<path fill="#010202" d="M953.42,106.883c-3.366-1.395-6.99,1.112-6.392,4.794c0.566,3.479,5.536,4.026,6.979,0.905
				c0.269-0.582-0.593-1.09-0.863-0.505c-1.157,2.505-4.532,1.836-5.15-0.666c-0.752-3.043,2.777-4.552,5.161-3.565
				C953.75,108.094,954.007,107.126,953.42,106.883L953.42,106.883z"/>
		</g>
	</g>
</g>
<g>
	<path fill="#FFFFFF" d="M746.523,175.219c0,0,27.672,4.729,43.388-2.09c18.239-7.912,25.294-16.15,28.471-21.779
		c3.176-5.63-4.042-7.775-1.262-11.305c2.781-3.529,12.702-6.744,12.702-6.744s6.646,2.943,6.669,5.066
		c0.024,2.121-9.71-0.154-10.852,3.664s4.979,0.553,4.979,0.553l4.918,0.926c0,0-7.977,6.316-10.174,6.744
		c-2.198,0.426-27.628,46.578-77.653,34.081C740.098,182.434,746.523,175.219,746.523,175.219z"/>
	<path fill="#110906" d="M755.579,323.545c-1.331-5.768,6.142-46.705,8.771-70.699c-3.002,0.104-8.955,3.946-12.305,4.487
		c4.168,15.183-0.581,31.839-5.185,80.312c-0.283,2.982,4.401,0.652,5.617,1.498c1.853,1.289,0-7.114,0-7.114
		c5.616,3.584,10.138,8.812,11.643,8.999c6.502,0.811,8.461,1.5,9.211,0C774.83,338.031,757.077,330.036,755.579,323.545z"/>
	<path fill="#110906" d="M746.043,327.152c-1.498-6.49,3.429-68.457,1.432-74.449c-0.039-0.117-1.654,1.779-1.711,1.658
		c-3.811,0.543-7.483-1.253-10.248,0.917c9.902,19.823,1.783,52.368,1.809,85.974c0.003,2.996,4.401,0.652,5.617,1.498
		c1.854,1.289,0-7.115,0-7.115c5.617,3.586,10.139,8.812,11.643,9c6.502,0.811,8.461,1.5,9.211,0
		C765.293,341.639,747.541,333.643,746.043,327.152z"/>
	<path fill="#0E8CCD" d="M734.868,215.638c-7.123,19.588,0.647,45.376,0.647,50.394c12.068,9.15,27.779-5.271,27.779-5.271
		c7.529-39.569-3.248-39.782-1.818-56.876c2.168-25.939,3.546-24.098-6.278-30.912c-7.033-4.877-15.218-13.363-20.167-3.265
		c-2.834,5.782-0.521,20.31,0.128,26.483C736.012,204.307,736.008,207.542,734.868,215.638
		C734.519,218.126,740.343,200.585,734.868,215.638z"/>
	<path fill="#FFFFFF" d="M762.093,112.537c-12.691-7.377-24.398-0.879-29.785,10.059c-0.535,1.723-5.935,4.711-6.228,6.578
		c-1.173,7.48,6.588,12.684,9.306,19.488c2.672,6.686,3.766,11.047,1.428,18.028c0.008,0.091,0.024,0.181,0.03,0.271
		c-0.072,0.031-0.133,0.084-0.2,0.123c-0.116,0.248-0.251,0.471-0.413,0.657c0.748,0.684-2.271-0.813,2.27,2.021
		s14.815,2.914,15.244,2.516c-0.067-0.271-5.743-6.684-6.175-8.832c-0.584-2.926,2.404-5.099,4.556-4.027
		c1.579,0.237,3.171,0.42,4.768,0.507C772.957,154.07,775.715,120.453,762.093,112.537z"/>
	<g>
		<g>
			<path fill="#020303" d="M769.988,135.683c-0.019,0.493-0.137,1.618-0.814,1.688c-0.659,0.068-0.801-1.305-0.815-1.688
				c-0.019-0.492,0.161-1.626,0.815-1.693C769.831,133.921,769.974,135.301,769.988,135.683c0.024,0.643,1.024,0.645,1,0
				c-0.043-1.163-0.482-2.555-1.814-2.693c-1.321-0.137-1.78,1.751-1.815,2.693c-0.043,1.16,0.542,2.557,1.815,2.688
				c1.317,0.136,1.779-1.748,1.814-2.688C771.013,135.038,770.013,135.04,769.988,135.683z"/>
		</g>
	</g>
	<g>
		<g>
			<path fill="#020303" d="M756.995,135.492c-0.019,0.494-0.137,1.62-0.815,1.69c-0.658,0.068-0.801-1.308-0.815-1.69
				c-0.019-0.491,0.162-1.624,0.815-1.691C756.837,133.733,756.98,135.11,756.995,135.492c0.024,0.643,1.024,0.645,1,0
				c-0.044-1.163-0.484-2.553-1.815-2.691c-1.32-0.137-1.78,1.75-1.815,2.691c-0.043,1.16,0.542,2.559,1.815,2.69
				c1.318,0.136,1.78-1.75,1.815-2.69C758.02,134.847,757.02,134.85,756.995,135.492z"/>
		</g>
	</g>
	<g>
		<g>
			<path fill="#020303" d="M762.853,135.482c0.062-0.032,0.125-0.065,0.188-0.098c-0.244-0.188-0.489-0.376-0.734-0.564
				c-0.399,2.373-0.87,5.535,0.239,7.78c0.116,0.236,0.467,0.32,0.684,0.179c0.694-0.451,1.553-0.624,2.369-0.474
				c1.566,0.288-0.778,1.989-1.099,2.123c-0.784,0.33-1.657,0.262-2.426-0.049c-0.598-0.243-0.855,0.725-0.266,0.964
				c1.936,0.786,5.548-0.252,5.198-2.875c-0.249-1.876-3.263-1.214-4.281-0.552c0.228,0.06,0.456,0.12,0.684,0.179
				c-0.937-1.896-0.475-5.01-0.138-7.009c0.072-0.431-0.322-0.78-0.734-0.564c-0.062,0.032-0.125,0.065-0.188,0.098
				C761.776,134.917,762.282,135.78,762.853,135.482L762.853,135.482z"/>
		</g>
	</g>
	<g>
		<g>
			<path fill="#020303" d="M756.515,146.805c1.719,1.348,7.517,3.351,8.641,0.396c0.101-0.265-0.11-0.535-0.35-0.615
				c-2.082-0.697-4.167,0.009-6.285-0.31c-0.631-0.095-0.901,0.868-0.266,0.964c2.102,0.317,4.235-0.376,6.285,0.31
				c-0.116-0.205-0.233-0.41-0.35-0.615c-0.724,1.902-5.903-0.002-6.969-0.838C756.721,145.705,756.008,146.407,756.515,146.805
				L756.515,146.805z"/>
		</g>
	</g>
	<g>
		<g>
			<path fill="#020303" d="M756.437,146.704c0.948,2.193,1.5,5.887,4.496,6.137c0.88,0.074,3.224-0.167,2.831-1.597
				c-0.478-1.734-2.957-1.011-4.159-1.08c-0.645-0.037-0.641,0.963,0,1c0.534,0.031,1.057-0.042,1.588-0.095
				c0.492-0.049,2.229,0.292,1.052,0.683c-1.101,0.365-2.169-0.043-2.899-0.873c-1.11-1.26-1.394-3.174-2.045-4.681
				C757.045,145.608,756.184,146.118,756.437,146.704L756.437,146.704z"/>
		</g>
	</g>
	<path fill="#0E8CCD" d="M766.858,113.751c3.762-3.06-5.14-11.894-8.365-7.903c-1.809-4.051-11.857-9.513-13.207-3.979
		c-2.848-2.105-7.11-2.09-10.278-0.752c-2.421,1.023-3.668,2.953-2.07,4.692c-2.153-0.171-4.383,0.368-6.062,1.761
		c-1.566,1.297-1.403,2.957-0.588,4.408c-0.854-0.358-1.777-0.43-2.724,0.044c-1.562,0.783-2.248,2.812-2.492,4.411
		c-0.434,2.829,0.526,5.396,2.496,6.665c-1.63,0.438-3.129,1.374-4.093,2.737c-1.119,1.582-0.873,2.891,0.097,3.785
		c-1.206,0.459-2.042,1.818-2.141,3.514c-0.209,3.623,2.698,5.551,5.839,5.9c-2.509,2.046,1.312,7.867,5.135,8.266
		c-0.725,0.623-1.134,1.442-0.372,2.387c1.076,1.336,3.396,1.772,4.98,1.993c1.146,0.159,3.52,0.448,4.267-0.774
		c0.547-0.896-0.083-1.869-0.924-2.683c1.383-0.007,2.612-1.032,3.192-2.718c0.928-2.694-2.112-5.653-3.789-7.345
		c-0.121-0.122-0.276-0.116-0.423-0.054c-2.62,1.105-5.035-2.781-5.577-4.804c-0.432-1.614,0.255-3.191,1.906-3.704
		c1.398-0.433,2.898,1.049,3.825,1.875c1.33,1.188,2.57,2.422,4.316,1.105c1.21-0.912,0.685-2.227-0.182-3.178
		c1.213,0.098,2.372-0.293,2.933-1.593c0.402-0.935,0.19-1.862-0.305-2.653c0.86,0.191,1.648-0.012,2.071-0.877
		c0.064,0.25,0.143,0.502,0.249,0.758c0.484,1.164,1.445,2.205,2.741,2.383c1.343,0.186,2.453-0.715,3.297-1.709
		c0.207,1.576,1.186,2.856,3.028,2.735c1.957-0.128,2.992-1.856,3.18-3.611c1.328,1.568,3.407,2.71,5.441,1.76
		c1.922-0.897,2.077-2.716,1.327-4.341c1.212,0.52,2.532,0.748,3.754,0.066c1.285-0.719,1.742-2.352,1.844-3.713
		C769.329,116.697,768.486,114.365,766.858,113.751z"/>
	<g>
		<g>
			<path fill="#020303" d="M759.493,136.45c-0.109,2.691-1.198,6.14-4.377,6.399c-3.15,0.257-4.282-4.104-4.376-6.399
				c-0.109-2.682,1.364-6.152,4.376-6.398C758.268,129.794,759.399,134.154,759.493,136.45c0.026,0.643,1.026,0.645,1,0
				c-0.136-3.315-1.628-7.092-5.377-7.398c-3.725-0.304-5.261,4.574-5.376,7.398c-0.135,3.306,1.813,7.108,5.376,7.399
				c3.726,0.304,5.262-4.574,5.377-7.399C760.52,135.805,759.52,135.808,759.493,136.45z"/>
		</g>
	</g>
	<g>
		<g>
			<path fill="#020303" d="M773.22,135.492c-0.111,2.489-1.118,5.564-4.047,5.817c-2.902,0.25-3.951-3.708-4.046-5.817
				c-0.11-2.479,1.292-5.581,4.046-5.818C772.076,129.423,773.125,133.382,773.22,135.492c0.028,0.642,1.028,0.645,1,0
				c-0.14-3.119-1.562-6.518-5.047-6.818c-3.462-0.299-4.929,4.185-5.046,6.818c-0.139,3.108,1.752,6.533,5.046,6.817
				c3.461,0.299,4.929-4.184,5.047-6.817C774.248,134.847,773.248,134.85,773.22,135.492z"/>
		</g>
	</g>
	<path fill="none" stroke="#020303" stroke-width="1.0994" stroke-miterlimit="10" d="M758.662,131.724c0,0,3.205-2.741,6.911-0.661
		"/>
	<g>
		<g>
			<path fill="#020303" d="M750.373,135.199c-4.167-0.653-8.335-1.306-12.502-1.959c-0.631-0.099-0.901,0.864-0.266,0.964
				c4.167,0.653,8.335,1.306,12.502,1.959C750.738,136.262,751.009,135.298,750.373,135.199L750.373,135.199z"/>
		</g>
	</g>
	<path fill="#FFFFFF" d="M706.318,194.608c-3.361-0.433-7.504-4.428-10.067-6.592c-3.305-2.783-6.295-6.56-7.546-10.776
		c-0.017-0.067-0.048-0.119-0.085-0.164c-0.05-0.242-0.107-0.475-0.182-0.689c0.004-0.158-0.224-0.898-0.436-0.915
		c-2.609-4.182-10.986-1.634-12.128-7.764c-0.049-0.272-0.408-0.399-0.627-0.258c-2.606,1.679-3.695,3.974-0.774,5.952
		c0.784,0.529,1.654,0.963,2.564,1.334c0.572,0.39,1.177,0.715,1.802,0.99c-1.674,0.233-3.341,0.514-5.003,0.842
		c-8.022,1.565-9.858,0.989-14.453,2.395c-0.223,0.066-0.362,0.297-0.301,0.531c0.515,1.894,1.99,1.666,3.608,1.876
		c-1.334,0.448-3.375,0.688-4.685,1.222c-0.306,0.126,0.107,1.741,0.332,2.004c1.433,1.682,3.351,2.073,5.389,1.871
		c-0.688,0.293-1.373,0.582-2.063,0.872c-0.296,0.125-0.481,0.612-0.103,0.791c2.296,1.073,8.797,0.698,14.688-0.827
		c4.775-1.031,5.811-1.202,8.199-3.404c0.231-0.16,0.445-0.327,0.651-0.495c5.646,5.362,13.992,17.495,21.534,20.511
		c0.141,0.059,21.005-12.562,29.916-17.896c8.912-5.334,7.026-16.481,0.72-15.973C727.202,177.49,707.391,194.642,706.318,194.608z"
		/>
	<path fill="#0E8CCD" d="M736.23,167.741c0,0-7.672,5.753-10.27,7.856c0,0,4.382,0.262,8.836,5.828
		c4.453,5.566,1.979,5.814,1.979,5.814s11.133-3.293,9.401-9.75C744.445,171.034,736.23,167.741,736.23,167.741z"/>
	<path fill="#0E8CCD" d="M825.64,140.83c0,0-11.714,1.894-10.472,6.449c1.145,4.197,15.56-1.302,15.56-1.302l7.854-3.589
		l1.849-2.209l-3.301-0.344L825.64,140.83z"/>
</g>
<g>
	<g>
		<path fill="#FEEDA4" d="M919.416,183.623c-7.814,50.592,51.568,81.27,77.655,51.137c4.782-5.521,10.196-17.953,7.303-27.158
			c-2.245-7.131-17.031-15.545-20.024-6.691c-2.19,6.488,3.565,18.779,9.923,15.121c6.169-3.553-1.836-7.812-2.539-5.068
			c-0.841,3.268-3.161,0.113-2.014-3.657c1.188-3.896,4.449-4.677,7.42-2.381c10.914,8.431-2.158,16.781-8.014,19.116
			c-9.186,3.668-16.8-8.271-10.013-16.926c5.569-7.094,7.272-11.394,6.349-21.93c-1.103-12.567-1.583-21.25-11.816-28.893
			c-4.261-3.176-9.179-5.09-13.921-4.959c-2.334,0.064-4.89,2.774-6.851,2.062c-2.076-3.651-20.4,8.535-22.855,10.809
			C924.888,168.959,920.679,175.449,919.416,183.623C917.155,198.268,920.69,175.373,919.416,183.623z M990.282,200.806
			c2.102,0.159-2.67,3.454-3.297,5.382C986.248,202.604,986.731,200.535,990.282,200.806
			C990.621,200.834,989.212,200.723,990.282,200.806z"/>
		<path fill="#FFFFFF" d="M946.305,226.724c1.193,0.733-11.174,33.856-38.805,29.774c-4.462-0.659-6.955,4.645,5.461,3.938
			c32.815-1.867,38.098-33.812,38.098-33.812S945.676,226.337,946.305,226.724z"/>
		<path fill="#FFFFFF" d="M957.728,341.054c0,0,10.713-19.024,9.526-33.707c-0.54-6.69-3.85-9.372-3.85-9.372
			s13.125-28.496,1.167-40.861c-12.241-12.658-5.805,0.283-5.805,0.283s-0.858,39.574-0.713,40.322
			C958.804,301.529,957.728,341.054,957.728,341.054z"/>
		<path fill="#FFFFFF" d="M955.888,339.761c0,0-9.005-16.476-7.817-31.16c0.54-6.688,2.72-10.755,2.72-10.755
			s-10.124-27.33-0.862-42.316c9.261-14.988,6.411,0.136,6.411,0.136s0.714,41.818,0.567,42.565
			C956.156,302.04,955.888,339.761,955.888,339.761z"/>
		<path fill="#1E1E1C" d="M951.171,253.557c0.562-8.004,0.951-20.748,0.951-26.271c0-0.471-6.183-0.197-6.168-0.314
			c0.928-7.41,5.332-12.82,14.148-13.564c14.563-1.226,13.381,13.662,13.381,13.662c-1.295-0.789-5.51,0.631-5.623,0.725
			c-3.919,3.402-1.507,23.411-1.507,23.411"/>
		<g>
			<path fill="#FFFFFF" d="M970.737,191.981c-0.002-0.001-0.002-0.001-0.002-0.001c-0.795-2.551-2.477-1.828-4.019-0.574
				c0.305-2.086,0.897-4.271,0.94-6.154c0.015-0.715,0.044-1.551,0.051-2.43c-4.731-0.336-9.455-1.252-13.927-2.425
				c-5.863-1.535-10.304-4.316-14.234-8.333c-2.245,1.32-4.127,3.349-5.841,5.999c-0.44,0.683-4.919,9.641-6.056,12.353
				c-2.424,5.768,9.532,14.089,13.847,19.26c1.084,1.296,6.656,0.178,11.692-1.068c0.878-0.219,2.855-1.378,3.83-1.514
				c0.537,1.883,0.315,9.922,0.257,12.141c-0.048,1.658,1.98,2.297,3.081,1.346c0.31-0.146,0.585-0.409,0.772-0.832
				c0.19-0.43,0.37-0.914,0.542-1.421c1.325-2.915,0.753-10.233,3.082-16.917c3.097-2.408,7.371-4.953,5.983-9.427
				C971.06,193.02,971.62,194.833,970.737,191.981z"/>
		</g>
		<path fill="none" stroke="#020303" stroke-width="0.7328" stroke-miterlimit="10" d="M937.13,186.606
			c0.444,0.839,0.302,1.789-0.316,2.124c-0.62,0.336-1.479-0.07-1.924-0.908c-0.442-0.838-0.297-1.787,0.321-2.125
			C935.829,185.361,936.689,185.77,937.13,186.606z"/>
		<g>
			<g>
				<path fill="#020303" d="M943.66,185.286c-0.664,1.391-0.323,2.987-0.938,4.376c-0.745,1.687-2.832-0.544-3.986,0.61
					c-2.157,2.158,2.112,4.027,3.716,4.113c0.625,0.034,0.622-0.937,0-0.97c-1.093-0.059-2.776-0.604-3.219-1.712
					c0.32-0.733,0.735-0.954,1.245-0.663c0.329,0.118,0.627,0.226,0.972,0.287c0.323,0.058,0.732-0.031,1.021-0.174
					c2.081-1.033,1.191-3.628,2.026-5.378C944.766,185.213,943.93,184.721,943.66,185.286L943.66,185.286z"/>
			</g>
		</g>
		<g>
			<path fill="#1E1E1C" d="M947.995,187.799c1.65-3.48,8.004-3.072,10.016-1.027c0.918-0.408,2.383-1.517,2.842-2.336
				c-2.383,0.922-2.459,0.673-3.157,0.443c-3.814-1.25-7.03-2.18-9.613,2.633"/>
			<g>
				<path fill="#020303" d="M948.302,187.978c1.725-3.067,6.981-3.169,9.458-0.956c0.124,0.112,0.281,0.133,0.431,0.056
					c1.172-0.608,2.199-1.384,2.969-2.463c0.177-0.248-0.116-0.627-0.401-0.522c-1.39,0.515-2.181,0.699-3.565,0.25
					c-1.31-0.425-2.616-0.76-3.994-0.823c-2.551-0.115-4.251,1.79-5.423,3.813c-0.23,0.397,0.384,0.755,0.613,0.358
					c1.968-3.395,4.478-3.887,8.027-2.847c1.945,0.569,2.523,0.678,4.531-0.065c-0.134-0.174-0.268-0.348-0.401-0.522
					c-0.223,0.312-2.065,2.459-2.584,1.996c-0.36-0.322-0.812-0.526-1.245-0.727c-1.024-0.475-2.178-0.614-3.291-0.672
					c-2.268-0.117-4.596,0.735-5.737,2.766C947.464,188.02,948.077,188.377,948.302,187.978L948.302,187.978z"/>
			</g>
		</g>
		<g>
			<path fill="#1E1E1C" d="M940.785,187.6c-1.263-2.666-6.133-2.354-7.675-0.785c-0.701-0.315-1.823-1.166-2.176-1.792
				c1.825,0.706,1.883,0.517,2.417,0.343c2.926-0.959,5.389-1.672,7.365,2.016"/>
			<g>
				<path fill="#020303" d="M941.021,187.462c-0.91-1.62-2.631-2.105-4.396-2.119c-0.832-0.006-1.769,0.166-2.522,0.515
					c-0.332,0.154-0.679,0.31-0.954,0.557c-0.395,0.353-1.809-1.293-1.979-1.531c-0.103,0.133-0.205,0.267-0.308,0.4
					c1.267,0.469,1.821,0.583,3.045,0.186c2.831-0.918,4.962-0.728,6.574,2.047c0.177,0.303,0.647,0.03,0.471-0.274
					c-0.934-1.607-2.061-2.764-3.976-2.918c-0.913-0.074-1.878,0.223-2.739,0.473c-1.331,0.385-1.874,0.465-3.23-0.038
					c-0.218-0.081-0.443,0.21-0.308,0.4c0.591,0.826,1.377,1.421,2.273,1.89c0.114,0.06,0.235,0.043,0.33-0.042
					c1.896-1.696,5.927-1.621,7.247,0.73C940.722,188.043,941.192,187.769,941.021,187.462L941.021,187.462z"/>
			</g>
		</g>
		<ellipse fill="#F6AD9E" cx="956.675" cy="194.375" rx="3.338" ry="2.293"/>
		<ellipse fill="#F6AD9E" cx="932.943" cy="192.236" rx="3.337" ry="2.294"/>
		<path fill="none" stroke="#020303" stroke-width="0.7328" stroke-miterlimit="10" d="M953.459,186.258
			c0.595,0.961,0.502,2.104-0.207,2.557c-0.709,0.451-1.765,0.037-2.358-0.921c-0.597-0.958-0.506-2.103,0.202-2.555
			C951.807,184.889,952.863,185.298,953.459,186.258z"/>
		<path fill="#1E1E1C" d="M953.635,335.323c-0.125,0.315-11.126,8.544-11.126,8.544l14.698-3.128l0.595-5.416H953.635z"/>
		<path fill="#1E1E1C" d="M961.157,336.675c0.12,0.283,9.526,9.369,9.526,9.369l-13.347-5.222l-0.052-4.991L961.157,336.675z"/>
		<g>
			<g>
				<path fill="#FFFFFF" d="M947.083,165.372c1.219,5.31,6.573,8.143,11.259,9.931c5.19,1.98,11.13,3.131,16.701,2.938
					c0.543-0.019,0.545-0.863,0-0.845c-4.995,0.173-10.092-0.831-14.834-2.335c-4.901-1.556-11.045-4.395-12.312-9.913
					C947.775,164.617,946.961,164.842,947.083,165.372L947.083,165.372z"/>
			</g>
		</g>
		<g>
			<g>
				<path fill="#FFFFFF" d="M954.953,166.102c2.379,4.211,8.113,5.157,12.464,5.845c0.532,0.084,0.762-0.729,0.225-0.814
					c-4.116-0.65-9.711-1.476-11.96-5.456C955.414,165.202,954.685,165.627,954.953,166.102L954.953,166.102z"/>
			</g>
		</g>
		<g>
			<g>
				<path fill="#FFFFFF" d="M936.318,167.719c-4.209,2.723-6.976,6.935-10.104,10.745c-0.343,0.417,0.252,1.019,0.598,0.598
					c3.075-3.746,5.794-7.936,9.933-10.613C937.2,168.154,936.777,167.423,936.318,167.719L936.318,167.719z"/>
			</g>
		</g>
		<g>
			<g>
				<path fill="#020303" d="M938.35,179.6c-1.811,0.722-3.716,1.053-5.62,1.429c-0.463,0.092-0.267,0.798,0.195,0.707
					c1.903-0.376,3.81-0.707,5.62-1.429C938.979,180.134,938.789,179.425,938.35,179.6L938.35,179.6z"/>
			</g>
		</g>
		<g>
			<g>
				<path fill="#020303" d="M940.528,196.697c2.675,1.325,5.87,1.129,8.752,0.784c-0.156-0.205-0.312-0.409-0.468-0.614
					c-0.975,2.748-9.156,1.095-8.483-0.562c0.235-0.58-0.703-0.829-0.936-0.258c-1.331,3.276,9.03,4.807,10.354,1.077
					c0.098-0.275-0.164-0.65-0.468-0.614c-2.687,0.322-5.765,0.586-8.262-0.652C940.46,195.583,939.969,196.419,940.528,196.697
					L940.528,196.697z"/>
			</g>
		</g>
		<g>
			<g>
				<path fill="#020303" d="M948.592,197.818c0.075,2.184-2.038,4.374-3.839,5.312c-0.459,0.239-0.96,0.337-1.472,0.321
					c-0.172-0.005-1.413-0.577-0.872-0.772c0.441-0.16,1.089-0.068,1.531,0.019c1.172,0.231,1.978,0.409,3.054-0.254
					c0.53-0.328,0.044-1.167-0.49-0.838c-1.162,0.718-2.258,0.028-3.503,0.036c-0.605,0.003-1.418,0.128-1.757,0.707
					c-0.796,1.358,1.568,2.125,2.517,2.064c2.799-0.178,5.896-3.844,5.802-6.595C949.541,197.195,948.57,197.192,948.592,197.818
					L948.592,197.818z"/>
			</g>
		</g>
		<path fill="#0E8CCD" d="M966.476,249.996c-1.154,0.388-7.934,1.167-10.623,0.973s-2.689-0.194-2.689-0.194l-2.304-0.583
			c0,0-6.727,22.86-12.872,27.637c0,0,6.915,7.007,24.589,5.838c15.089-0.997,17.289-8.954,17.289-8.954L966.476,249.996z"/>
		<path fill="#FFFFFF" d="M973.483,227.068c0.271-0.939-1.429,24.376-16.467,16.266c-15.043-8.111-24.261-11.553-26.687-11.307
			c-2.424,0.245,1.456,5.161-1.455,6.145c-2.91,0.984-6.064,0-6.064,0s-0.243,7.127-1.94,6.636
			c-1.699-0.491-2.911-14.257,2.183-17.204c5.095-2.95,38.328,12.778,40.026,11.797c1.697-0.98,4.125-12.779,4.125-12.779
			L973.483,227.068z"/>
		<path fill="#E4F3FB" d="M888.646,255.385l23.573-11.557c0,0,18.034,1.53,31.86,13.922c0,0-23.674,14.908-23.843,14.732
			C914.929,266.939,909.175,259.992,888.646,255.385z"/>
	</g>
	<g>
		<path fill="#0E8CCD" d="M931.478,259.729c0.224,0.044,0.503,0.032,0.721-0.038c0.306-0.099,0.372-0.277,0.146-0.4l-21.842-10.996
			c-0.322-0.152-0.773-0.178-1.002-0.055s-0.154,0.348,0.162,0.5l21.58,10.912C931.308,259.686,931.389,259.713,931.478,259.729z"/>
		<path fill="#0E8CCD" d="M912.496,259.512c0.199,0.037,0.428,0.014,0.588-0.072l14.174-6.014c0.296-0.1,0.314-0.297,0.038-0.441
			c-0.274-0.141-0.74-0.178-1.034-0.076l-14.007,6.068c-0.227,0.123-0.224,0.327,0.005,0.455
			C912.328,259.469,912.409,259.496,912.496,259.512z"/>
		<path fill="#0E8CCD" d="M918.294,262.045c0.186,0.033,0.412,0.013,0.588-0.063c0.223-0.095,5.744-2.271,6.32-4.702
			c0.178-0.977-0.56-1.896-2.205-2.738c-7.42-3.709-16.698,1.133-16.781,1.186c-0.204,0.131-0.158,0.348,0.1,0.485
			c0.256,0.135,0.633,0.142,0.841,0.012c0.076-0.048,8.573-4.454,14.86-1.284c1.357,0.697,1.977,1.46,1.85,2.271
			c-0.448,2.2-5.644,4.306-5.693,4.328c-0.256,0.112-0.304,0.303-0.108,0.425C918.126,262.002,918.205,262.029,918.294,262.045z"/>
	</g>
</g>
<g>
	<path fill="#110906" d="M997.896,275.383c0.163,0.682-1.299,17.391-1.95,28.473c-0.651,11.085,5.16,38.449,5.16,38.449
		s-19.518,7.102-21.469,2.667c-1.954-4.434,15.645-6.483,15.645-6.483s-9.422-29.348-9.1-38.383
		c0.328-9.037,0.978-31.542,0.978-31.542"/>
	<path fill="#110906" d="M1013.911,279.823c0.163,0.682-1.3,17.392-1.951,28.472c-0.65,11.082,5.16,38.45,5.16,38.45
		s-19.521,7.101-21.473,2.667c-1.95-4.433,15.649-6.482,15.649-6.482s-2.603-8.104-5.023-17.105
		c-2.188-8.129-4.229-16.991-4.074-21.279c0.324-9.038,0.977-31.541,0.977-31.541"/>
	<path fill="#0E8CCD" d="M1005.838,205.654c0,0-9.565,6.596-13.099,19.953c-3.531,13.359-14.999,60.083-14.999,60.083
		s35.788,9.11,42.7,5.085c0,0,1.114-18.947-0.728-32.035c-2.185-15.512-0.243-24.664,2.427-42.972
		C1023.476,206.597,1015.636,203.734,1005.838,205.654z"/>
	<path fill="#FFFFFF" d="M991.486,148.117c22.561-13.113,42.162,15.514,31.623,37.85c-0.108,0.987-0.128,1.994-0.201,2.995
		c-0.161,2.221-0.985,4.319-1.707,6.392c-1.265,3.635-2.924,7.547-3.198,11.494c0.326,0.143,0.604,0.37,0.799,0.678
		c-0.837,0.766-1.671,1.531-2.538,2.264c-2.196,0.308-4.267,0.415-5.347,0.512c-1.943,0.169-3.948,0.107-5.952-0.033
		c-0.523-0.365-0.997-0.725-1.446-1.145c0.071-0.285,0.098-0.571,0.08-0.855c1.534-1.205,2.688-2.855,3.141-5.111
		c0.613-3.074-2.525-5.355-4.784-4.23c-1.659,0.25-3.331,0.441-5.008,0.533C980.076,193.311,977.18,156.431,991.486,148.117z"/>
	<path fill="none" stroke="#020303" stroke-width="0.9823" stroke-miterlimit="10" d="M988.452,172.062c0,1.27,0.619,2.3,1.38,2.3
		c0.766,0,1.382-1.03,1.382-2.3c0-1.272-0.616-2.302-1.382-2.302C989.071,169.76,988.452,170.789,988.452,172.062z"/>
	
		<ellipse fill="none" stroke="#020303" stroke-width="0.9823" stroke-miterlimit="10" cx="1000.161" cy="172.424" rx="1.381" ry="2.301"/>
	<g>
		<g>
			<path fill="#020303" d="M994.55,171.338c-0.065-0.035-0.132-0.069-0.197-0.104c-0.405-0.213-0.793,0.132-0.722,0.554
				c0.355,2.11,0.841,5.388-0.148,7.388c0.224-0.059,0.447-0.117,0.672-0.176c-1.043-0.678-4.188-1.389-4.445,0.55
				c-0.363,2.734,3.402,3.805,5.417,2.987c0.578-0.235,0.325-1.186-0.262-0.947c-1.449,0.589-3.957,0.195-4.212-1.743
				c-0.157-1.186,2.666-0.22,3.006,0.001c0.213,0.139,0.558,0.056,0.672-0.176c1.162-2.348,0.666-5.664,0.248-8.145
				c-0.24,0.185-0.481,0.37-0.722,0.554c0.065,0.035,0.132,0.069,0.197,0.104C994.614,172.48,995.11,171.632,994.55,171.338
				L994.55,171.338z"/>
		</g>
	</g>
	<path fill="#110906" d="M979.437,164.803c0,0,15.582-1.236,17.704-0.74c2.123,0.494,2.123,0.494,2.123,0.494l1.653-7.423
		l2.125,7.669l8.733,3.217c0,0,1.572,44.787-1.571,50.334c-4.486,7.916,23.87,3.572,23.87,3.572s-2.47-18.035-3.415-36.096
		c-0.945-18.059,0.224-48.629-32.811-45.518C979.437,142.043,979.437,164.803,979.437,164.803z"/>
	<g>
		<g>
			<path fill="#020303" d="M1000.724,183.841c-1.141,0.894-6.602,2.897-7.375,0.865c-0.114,0.201-0.229,0.403-0.343,0.604
				c2.154-0.721,4.393,0.006,6.601-0.325c0.624-0.094,0.358-1.04-0.262-0.947c-2.225,0.334-4.415-0.406-6.601,0.325
				c-0.234,0.079-0.441,0.344-0.343,0.604c1.168,3.069,7.235,0.964,9.018-0.432C1001.917,184.146,1001.217,183.456,1000.724,183.841
				L1000.724,183.841z"/>
		</g>
	</g>
	<g>
		<g>
			<path fill="#020303" d="M1000.647,183.94c-0.705,1.628-1.035,3.503-2.153,4.922c-0.679,0.862-1.658,1.145-2.722,1
				c-1.336-0.181-0.595-0.874,0.406-0.88c0.678-0.004,1.337,0.161,2.019,0.121c0.63-0.037,0.633-1.019,0-0.982
				c-1.242,0.072-3.84-0.689-4.335,1.109c-0.405,1.474,2.042,1.709,2.94,1.634c3.126-0.262,3.703-4.142,4.692-6.428
				C1001.744,183.861,1000.898,183.361,1000.647,183.94L1000.647,183.94z"/>
		</g>
	</g>
	<path fill="#FFFFFF" d="M1017.763,225.921c0,0-10.504-1.329-10.104,0.215c0.402,1.544,3.479,60.321,5.324,66.752
		c1.846,6.429,12.611,4.592,12.611,4.592l5.229-9.489c0,0-2.769-1.531-3.999-0.307c-1.23,1.223-1.846,4.59-1.846,4.59
		c0.307-0.039,1.165-1.107,0.307-0.039c-0.86,1.07,0.214-6.631,0.214-6.631l-3.985-3.285l0.762,10.131c0,0-2.794-2.781-4.514-4.492
		C1016.044,286.246,1014.97,243.678,1017.763,225.921z"/>
</g>
<g>
	<path fill="#FFFFFF" d="M1038.432,246.503l29.903-0.298l-0.89,10.068l7.996,4.145c0,0-7.106,68.984-7.995,78.162
		c0,0,21.613,5.033,15.691,11.546s-21.612-9.476-21.612-9.476s-1.481-75.791-8.587-75.199s-3.256,76.088-3.256,76.088
		s-17.458,15.212-25.166,9.179c-6.811-5.329,20.725-11.546,20.725-11.546l-15.691-78.754l10.066-5.329L1038.432,246.503z"/>
	<path fill="#0E8CCD" d="M1033.102,258.938c0.381,0.854,7.105-4.146,7.105-4.146s-5.922-12.434-5.033-32.566
		s4.441-23.093,4.441-23.093s-4.15,50.835-2.665,51.81c18.948,12.436,32.863-2.07,32.863-2.07s-1.987-50.469-1.48-49.741
		c10.066,14.507-0.296,56.845-0.296,56.845l10.066,3.85c0,0,9.474-44.113-7.106-74.312c-5.295-9.645-21.611-9.474-31.679-0.592
		C1029.252,193.803,1022.148,234.364,1033.102,258.938z"/>
	<path fill="#FFFFFF" d="M1060.515,135.74c-3.192-7.826-10.965-12.348-19.089-8.911c-4.376,1.851-7.86,6.144-9.25,10.603
		c-0.751,2.412-0.785,4.926-0.649,7.455c-0.458,1.814-1.109,3.506-2.16,4.857c-1.805,0.688-3.709,1.087-5.738,1.13
		c-1.401,0.029-2.551,2.017-1.257,3.032c0.627,0.492,1.291,0.923,1.977,1.291c0.329,0.453,0.855,0.752,1.519,0.691
		c2.016,0.758,4.133,0.92,6.059,0.303c1.06,3.586,1.231,7.35,2.23,10.965c1.032,3.74,3.37,6.729,6.421,9.039
		c3.221,2.439,7.519,4.031,9.849,6.985c0.143,0.646,1.703,5.099,1.625,5.886c-0.136,1.363,1.602,2.185,2.673,1.533
		c3.644-2.217,4.649-6.863,5.22-10.781c0.627-4.293,0.558-8.633,0.996-12.938c0.444-2.17,0.824-4.352,1.13-6.535
		C1063.195,152.314,1063.642,143.402,1060.515,135.74z"/>
	<path fill="#0E8CCD" d="M1037.838,126.301c0,0-4.145,8.586,9.771,18.948s11.843,23.981,13.619,25.462s14.508-10.363,14.508-10.363
		s-7.344-0.447-8.882-8.881C1063.392,132.478,1063.597,117.418,1037.838,126.301z"/>
	
		<ellipse transform="matrix(0.9562 0.2926 -0.2926 0.9562 91.0178 -302.0618)" fill="#FFFFFF" cx="1055.307" cy="153.243" rx="5.033" ry="7.697"/>
	
		<ellipse fill="none" stroke="#1E1E1C" stroke-width="0.98" stroke-miterlimit="10" cx="1036.013" cy="146.457" rx="1.217" ry="2.746"/>
</g>
<g>
	<g>
		<path fill="#1E1E1C" d="M1035.65,164.898c1.899,0.144,3.8,0.287,5.699,0.431c0.631,0.047,0.626-0.933,0-0.98
			c-1.899-0.144-3.8-0.287-5.699-0.431C1035.02,163.871,1035.024,164.851,1035.65,164.898L1035.65,164.898z"/>
	</g>
</g>
<g>
</g>
<g>
</g>
<g>
</g>
<g>
</g>
<g>
</g>
<g>
</g>
</svg>
