<?xml version="1.0" encoding="utf-8"?>
<!-- Generator: Adobe Illustrator 16.0.4, SVG Export Plug-In . SVG Version: 6.00 Build 0)  -->
<!DOCTYPE svg PUBLIC "-//W3C//DTD SVG 1.1//EN" "http://www.w3.org/Graphics/SVG/1.1/DTD/svg11.dtd">
<svg version="1.1" id="Layer_1" xmlns="http://www.w3.org/2000/svg" xmlns:xlink="http://www.w3.org/1999/xlink" x="0px" y="0px"
	 width="1094.717px" height="517.497px" viewBox="0 0 1094.717 517.497" enable-background="new 0 0 1094.717 517.497"
	 xml:space="preserve">
<g>
	<polygon fill="#C3E5F6" points="970.598,237.633 719.833,253.945 721.152,72.723 970.598,85.921 	"/>
	<g>
		
			<line fill="none" stroke="#0E8CCD" stroke-linecap="round" stroke-miterlimit="10" x1="767.541" y1="202.277" x2="913.368" y2="199.426"/>
		
			<line fill="none" stroke="#0E8CCD" stroke-linecap="round" stroke-miterlimit="10" x1="835.265" y1="227.506" x2="835.669" y2="128.838"/>
		<path fill="none" stroke="#0E8CCD" stroke-linecap="round" stroke-miterlimit="10" d="M792.389,134.371
			c0,0-2.152,66.406,42.876,65.713c45.029-0.693,45.126-71.246,45.126-71.246"/>
		<g>
			<g>
				<path fill="#0E8CCD" d="M832.413,196.383c1.901,0,3.803,0,5.704,0c0.645,0,0.645-1,0-1c-1.901,0-3.803,0-5.704,0
					C831.769,195.383,831.769,196.383,832.413,196.383L832.413,196.383z"/>
			</g>
		</g>
		<g>
			<g>
				<path fill="#0E8CCD" d="M832.413,189.855c1.901,0,3.803,0,5.704,0c0.645,0,0.645-1,0-1c-1.901,0-3.803,0-5.704,0
					C831.769,188.855,831.769,189.855,832.413,189.855L832.413,189.855z"/>
			</g>
		</g>
		<g>
			<g>
				<path fill="#0E8CCD" d="M832.413,182.395c1.901,0,3.803,0,5.704,0c0.645,0,0.645-1,0-1c-1.901,0-3.803,0-5.704,0
					C831.769,181.395,831.769,182.395,832.413,182.395L832.413,182.395z"/>
			</g>
		</g>
		<g>
			<g>
				<path fill="#0E8CCD" d="M832.683,174.623c1.901,0,3.803,0,5.704,0c0.645,0,0.645-1,0-1c-1.901,0-3.803,0-5.704,0
					C832.038,173.623,832.038,174.623,832.683,174.623L832.683,174.623z"/>
			</g>
		</g>
		<g>
			<g>
				<path fill="#0E8CCD" d="M832.548,168.65c1.901,0,3.803,0,5.704,0c0.645,0,0.645-1,0-1c-1.901,0-3.803,0-5.704,0
					C831.903,167.65,831.903,168.65,832.548,168.65L832.548,168.65z"/>
			</g>
		</g>
		<g>
			<g>
				<path fill="#0E8CCD" d="M832.548,162.122c1.901,0,3.803,0,5.704,0c0.645,0,0.645-1,0-1c-1.901,0-3.803,0-5.704,0
					C831.903,161.122,831.903,162.122,832.548,162.122L832.548,162.122z"/>
			</g>
		</g>
		<g>
			<g>
				<path fill="#0E8CCD" d="M832.548,154.662c1.901,0,3.803,0,5.704,0c0.645,0,0.645-1,0-1c-1.901,0-3.803,0-5.704,0
					C831.903,153.662,831.903,154.662,832.548,154.662L832.548,154.662z"/>
			</g>
		</g>
		<g>
			<g>
				<path fill="#0E8CCD" d="M832.817,146.891c1.901,0,3.803,0,5.704,0c0.645,0,0.645-1,0-1c-1.901,0-3.803,0-5.704,0
					C832.173,145.891,832.173,146.891,832.817,146.891L832.817,146.891z"/>
			</g>
		</g>
		<g>
			<g>
				<path fill="#0E8CCD" d="M832.548,229.334c1.901,0,3.803,0,5.704,0c0.645,0,0.645-1,0-1c-1.901,0-3.803,0-5.704,0
					C831.903,228.334,831.903,229.334,832.548,229.334L832.548,229.334z"/>
			</g>
		</g>
		<g>
			<g>
				<path fill="#0E8CCD" d="M832.548,222.807c1.901,0,3.803,0,5.704,0c0.645,0,0.645-1,0-1c-1.901,0-3.803,0-5.704,0
					C831.903,221.807,831.903,222.807,832.548,222.807L832.548,222.807z"/>
			</g>
		</g>
		<g>
			<g>
				<path fill="#0E8CCD" d="M832.548,215.346c1.901,0,3.803,0,5.704,0c0.645,0,0.645-1,0-1c-1.901,0-3.803,0-5.704,0
					C831.903,214.346,831.903,215.346,832.548,215.346L832.548,215.346z"/>
			</g>
		</g>
		<g>
			<g>
				<path fill="#0E8CCD" d="M832.817,207.574c1.901,0,3.803,0,5.704,0c0.645,0,0.645-1,0-1c-1.901,0-3.803,0-5.704,0
					C832.173,206.574,832.173,207.574,832.817,207.574L832.817,207.574z"/>
			</g>
		</g>
		<g>
			<g>
				<path fill="#0E8CCD" d="M866.28,202.816c0-1.901,0-3.803,0-5.704c0-0.645-1-0.645-1,0c0,1.901,0,3.803,0,5.704
					C865.28,203.461,866.28,203.461,866.28,202.816L866.28,202.816z"/>
			</g>
		</g>
		<g>
			<g>
				<path fill="#0E8CCD" d="M859.752,202.816c0-1.901,0-3.803,0-5.704c0-0.645-1-0.645-1,0c0,1.901,0,3.803,0,5.704
					C858.752,203.461,859.752,203.461,859.752,202.816L859.752,202.816z"/>
			</g>
		</g>
		<g>
			<g>
				<path fill="#0E8CCD" d="M852.292,202.816c0-1.901,0-3.803,0-5.704c0-0.645-1-0.645-1,0c0,1.901,0,3.803,0,5.704
					C851.292,203.461,852.292,203.461,852.292,202.816L852.292,202.816z"/>
			</g>
		</g>
		<g>
			<g>
				<path fill="#0E8CCD" d="M844.521,202.547c0-1.901,0-3.803,0-5.704c0-0.645-1-0.645-1,0c0,1.901,0,3.803,0,5.704
					C843.521,203.192,844.521,203.192,844.521,202.547L844.521,202.547z"/>
			</g>
		</g>
		<g>
			<g>
				<path fill="#0E8CCD" d="M894.88,202.682c0-1.901,0-3.803,0-5.704c0-0.645-1-0.645-1,0c0,1.901,0,3.803,0,5.704
					C893.88,203.327,894.88,203.327,894.88,202.682L894.88,202.682z"/>
			</g>
		</g>
		<g>
			<g>
				<path fill="#0E8CCD" d="M888.352,202.682c0-1.901,0-3.803,0-5.704c0-0.645-1-0.645-1,0c0,1.901,0,3.803,0,5.704
					C887.352,203.327,888.352,203.327,888.352,202.682L888.352,202.682z"/>
			</g>
		</g>
		<g>
			<g>
				<path fill="#0E8CCD" d="M880.891,202.682c0-1.901,0-3.803,0-5.704c0-0.645-1-0.645-1,0c0,1.901,0,3.803,0,5.704
					C879.891,203.327,880.891,203.327,880.891,202.682L880.891,202.682z"/>
			</g>
		</g>
		<g>
			<g>
				<path fill="#0E8CCD" d="M873.119,202.412c0-1.901,0-3.802,0-5.703c0-0.645-1-0.645-1,0c0,1.901,0,3.802,0,5.703
					C872.119,203.057,873.119,203.057,873.119,202.412L873.119,202.412z"/>
			</g>
		</g>
		<g>
			<g>
				<path fill="#0E8CCD" d="M828.2,202.682c0-1.901,0-3.803,0-5.704c0-0.645-1-0.645-1,0c0,1.901,0,3.803,0,5.704
					C827.2,203.327,828.2,203.327,828.2,202.682L828.2,202.682z"/>
			</g>
		</g>
		<g>
			<g>
				<path fill="#0E8CCD" d="M821.672,202.682c0-1.901,0-3.803,0-5.704c0-0.645-1-0.645-1,0c0,1.901,0,3.803,0,5.704
					C820.672,203.327,821.672,203.327,821.672,202.682L821.672,202.682z"/>
			</g>
		</g>
		<g>
			<g>
				<path fill="#0E8CCD" d="M814.211,202.682c0-1.901,0-3.803,0-5.704c0-0.645-1-0.645-1,0c0,1.901,0,3.803,0,5.704
					C813.211,203.327,814.211,203.327,814.211,202.682L814.211,202.682z"/>
			</g>
		</g>
		<g>
			<g>
				<path fill="#0E8CCD" d="M806.439,202.412c0-1.901,0-3.802,0-5.703c0-0.645-1-0.645-1,0c0,1.901,0,3.802,0,5.703
					C805.439,203.057,806.439,203.057,806.439,202.412L806.439,202.412z"/>
			</g>
		</g>
		<g>
			<g>
				<path fill="#0E8CCD" d="M798.668,202.547c0-1.901,0-3.803,0-5.704c0-0.645-1-0.645-1,0c0,1.901,0,3.803,0,5.704
					C797.668,203.192,798.668,203.192,798.668,202.547L798.668,202.547z"/>
			</g>
		</g>
		<g>
			<g>
				<path fill="#0E8CCD" d="M792.14,202.547c0-1.901,0-3.803,0-5.704c0-0.645-1-0.645-1,0c0,1.901,0,3.803,0,5.704
					C791.14,203.192,792.14,203.192,792.14,202.547L792.14,202.547z"/>
			</g>
		</g>
		<g>
			<g>
				<path fill="#0E8CCD" d="M784.68,202.547c0-1.901,0-3.803,0-5.704c0-0.645-1-0.645-1,0c0,1.901,0,3.803,0,5.704
					C783.68,203.192,784.68,203.192,784.68,202.547L784.68,202.547z"/>
			</g>
		</g>
		<g>
			<g>
				<path fill="#0E8CCD" d="M776.908,202.277c0-1.901,0-3.802,0-5.703c0-0.645-1-0.645-1,0c0,1.901,0,3.802,0,5.703
					C775.908,202.922,776.908,202.922,776.908,202.277L776.908,202.277z"/>
			</g>
		</g>
	</g>
	<g>
		<g>
			<path fill="#010202" d="M858.8,111.959c-0.017,2.559-0.11,5.131-0.026,7.688c0.032,0.99,0.415,2.738,1.545,3.079
				c1.374,0.414,2.187-0.189,2.993-1.28c1.477-1.996,2.139-5.023,3.061-7.307c-0.327-0.044-0.655-0.088-0.982-0.133
				c0.217,5.102,0.288,10.205,0.212,15.311c-0.006,0.549-0.072,1.092-0.2,1.628c-0.221,1.579-1.253,1.722-3.097,0.431
				c-0.51-1.34,0.895-3.144,1.594-4.191c1.556-2.332,3.43-4.43,5.438-6.375c0.464-0.449-0.244-1.156-0.707-0.707
				c-1.815,1.758-12.228,12.729-4.762,13.691c2.162,0.279,2.663-3.061,2.733-4.477c0.252-5.078,0.004-10.235-0.212-15.311
				c-0.025-0.594-0.776-0.643-0.982-0.133c-0.464,1.15-0.928,2.301-1.392,3.452c-0.232,0.575-0.465,1.15-0.696,1.726
				c-0.186,0.441-0.37,0.882-0.556,1.323c-0.396,1.116-1.325,1.246-2.787,0.39c-0.512-1.269-0.215-3.057-0.206-4.386
				c0.01-1.473,0.02-2.946,0.029-4.418C859.804,111.314,858.804,111.314,858.8,111.959L858.8,111.959z"/>
		</g>
	</g>
	<g>
		<g>
			<path fill="#010202" d="M871.294,114.461c2.001,0,4.003,0,6.004,0c0.645,0,0.645-1,0-1c-2.001,0-4.003,0-6.004,0
				C870.649,113.461,870.649,114.461,871.294,114.461L871.294,114.461z"/>
		</g>
	</g>
	<g>
		<g>
			<path fill="#010202" d="M870.896,117.285c1.981-0.171,3.928-0.073,5.879,0.318c0.63,0.126,0.897-0.837,0.266-0.964
				c-2.035-0.409-4.075-0.533-6.145-0.354C870.258,116.34,870.253,117.341,870.896,117.285L870.896,117.285z"/>
		</g>
	</g>
	<g>
		<g>
			<path fill="#010202" d="M889.282,111.713c-2.454,0.154-4.575,1.045-6.403,2.688c-1.236,1.111-2.4,3.326-1.345,4.933
				c0.927,1.411,2.373,1.796,3.805,0.83c0.751-0.507,1.25-1.42,1.679-2.186c0.922-1.649,1.705-3.202,2.948-4.659
				c-0.284-0.118-0.569-0.236-0.854-0.354c0.047,1.51-1.282,3.801-0.135,5.18c0.758,0.91,1.854,1.12,2.77,0.335
				c0.49-0.42-0.221-1.125-0.707-0.707c-0.497-0.383-0.994-0.767-1.491-1.15c0.046-0.581,0.156-1.148,0.33-1.702
				c0.183-0.672,0.255-1.268,0.233-1.956c-0.013-0.404-0.555-0.704-0.854-0.354c-1.689,1.98-2.506,4.507-4.179,6.447
				c-1.237,1.435-3.104-0.22-2.855-1.812c0.163-1.047,1.071-1.878,1.815-2.547c1.424-1.28,3.372-1.869,5.242-1.987
				C889.923,112.673,889.927,111.672,889.282,111.713L889.282,111.713z"/>
		</g>
	</g>
	<g>
		<g>
			<path fill="#010202" d="M893.646,111.215c2.159,2.379,4.318,4.759,6.478,7.139c0.435,0.479,1.14-0.231,0.707-0.707
				c-2.159-2.38-4.318-4.759-6.478-7.139C893.918,110.029,893.213,110.739,893.646,111.215L893.646,111.215z"/>
		</g>
	</g>
	<g>
		<g>
			<path fill="#010202" d="M893.402,118.481c2.416-2.668,4.833-5.336,7.249-8.004c0.432-0.477-0.273-1.186-0.707-0.707
				c-2.416,2.668-4.833,5.336-7.249,8.004C892.264,118.251,892.969,118.96,893.402,118.481L893.402,118.481z"/>
		</g>
	</g>
	<g>
		<g>
			<path fill="#010202" d="M903,106.355c0.02-1.088,0.039-2.177,0.06-3.266c-0.251,0.144-0.502,0.288-0.752,0.432
				c2.436,1.808,2.533,5.578,0.33,7.596c-0.334,0.306-0.062,0.842,0.354,0.854c1.043,0.029,2.085,0.06,3.128,0.089
				c0.646,0.018,0.644-0.982,0-1c-1.043-0.029-2.085-0.06-3.128-0.089c0.118,0.285,0.235,0.569,0.354,0.854
				c2.721-2.491,2.394-6.994-0.533-9.166c-0.318-0.237-0.745,0.087-0.752,0.432c-0.021,1.088-0.04,2.177-0.06,3.266
				C901.988,107,902.988,107,903,106.355L903,106.355z"/>
		</g>
	</g>
	<g>
		<g>
			<path fill="#010202" d="M909.322,113.261c1.334,0,2.669,0,4.003,0c0.645,0,0.645-1,0-1c-1.334,0-2.669,0-4.003,0
				C908.678,112.261,908.678,113.261,909.322,113.261L909.322,113.261z"/>
		</g>
	</g>
	<g>
		<g>
			<path fill="#010202" d="M910.622,114.361c0-1.734,0-3.469,0-5.203c0-0.645-1-0.645-1,0c0,1.734,0,3.469,0,5.203
				C909.622,115.006,910.622,115.006,910.622,114.361L910.622,114.361z"/>
		</g>
	</g>
	<g>
		<g>
			<path fill="#010202" d="M920.211,106.287c-1.42,3.544-2.859,7.895-1.985,11.738c0.275,1.209,2.922,4.454,4.377,2.844
				c1.781-1.97,1.984-5.523,0.053-7.393c-2.684-2.598-4.4,2.212-5.986,3.231c-0.541,0.347-0.04,1.213,0.504,0.863
				c0.78-0.5,1.237-1.081,1.737-1.863c0.105-0.171,0.21-0.341,0.315-0.512c0.872-1.735,2.138-1.341,3.795,1.184
				c0.151,1.285-0.586,5.064-2.99,2.875c-2.924-2.663-0.044-9.733,1.146-12.701C921.416,105.954,920.448,105.696,920.211,106.287
				L920.211,106.287z"/>
		</g>
	</g>
	<g>
		<g>
			<path fill="#010202" d="M926.063,112.012c1.983,2.391,3.877,4.85,5.684,7.377c0.371,0.52,1.239,0.021,0.863-0.505
				c-1.855-2.597-3.802-5.123-5.84-7.58C926.358,110.808,925.655,111.52,926.063,112.012L926.063,112.012z"/>
		</g>
	</g>
	<g>
		<g>
			<path fill="#010202" d="M926.088,119.119c2.601-2.588,4.897-5.424,6.892-8.502c0.352-0.543-0.515-1.044-0.863-0.505
				c-1.949,3.009-4.194,5.772-6.735,8.3C924.923,118.867,925.631,119.574,926.088,119.119L926.088,119.119z"/>
		</g>
	</g>
	<g>
		<g>
			<path fill="#010202" d="M938.947,111.295c1.848-0.189,3.666-0.117,5.49,0.24c0.63,0.124,0.898-0.84,0.266-0.964
				c-1.909-0.374-3.818-0.474-5.756-0.276C938.312,110.36,938.306,111.36,938.947,111.295L938.947,111.295z"/>
		</g>
	</g>
	<g>
		<g>
			<path fill="#010202" d="M941.846,112.761c0-1.735,0-3.469,0-5.204c0-0.645-1-0.645-1,0c0,1.735,0,3.469,0,5.204
				C940.846,113.406,941.846,113.406,941.846,112.761L941.846,112.761z"/>
		</g>
	</g>
	<g>
		<g>
			<path fill="#010202" d="M953.42,106.883c-3.366-1.395-6.99,1.112-6.392,4.794c0.566,3.479,5.536,4.026,6.979,0.905
				c0.269-0.582-0.593-1.09-0.863-0.505c-1.157,2.505-4.532,1.836-5.15-0.666c-0.752-3.043,2.777-4.552,5.161-3.565
				C953.75,108.094,954.007,107.126,953.42,106.883L953.42,106.883z"/>
		</g>
	</g>
</g>
<g>
</g>
<g>
</g>
<g>
</g>
<g>
</g>
<g>
</g>
<g>
</g>
</svg>
