<?xml version="1.0" encoding="utf-8"?>
<!-- Generator: Adobe Illustrator 16.0.4, SVG Export Plug-In . SVG Version: 6.00 Build 0)  -->
<!DOCTYPE svg PUBLIC "-//W3C//DTD SVG 1.1//EN" "http://www.w3.org/Graphics/SVG/1.1/DTD/svg11.dtd">
<svg version="1.1" id="Layer_1" xmlns="http://www.w3.org/2000/svg" xmlns:xlink="http://www.w3.org/1999/xlink" x="0px" y="0px"
	 width="1094.717px" height="517.497px" viewBox="0 0 1094.717 517.497" enable-background="new 0 0 1094.717 517.497"
	 xml:space="preserve">
<g>
	<path fill="#110906" d="M997.896,275.383c0.163,0.682-1.299,17.391-1.95,28.473c-0.651,11.085,5.16,38.449,5.16,38.449
		s-19.518,7.102-21.469,2.667c-1.954-4.434,15.645-6.483,15.645-6.483s-9.422-29.348-9.1-38.383
		c0.328-9.037,0.978-31.542,0.978-31.542"/>
	<path fill="#110906" d="M1013.911,279.823c0.163,0.682-1.3,17.392-1.951,28.472c-0.65,11.082,5.16,38.45,5.16,38.45
		s-19.521,7.101-21.473,2.667c-1.95-4.433,15.649-6.482,15.649-6.482s-2.603-8.104-5.023-17.105
		c-2.188-8.129-4.229-16.991-4.074-21.279c0.324-9.038,0.977-31.541,0.977-31.541"/>
	<path fill="#0E8CCD" d="M1005.838,205.654c0,0-9.565,6.596-13.099,19.953c-3.531,13.359-14.999,60.083-14.999,60.083
		s35.788,9.11,42.7,5.085c0,0,1.114-18.947-0.728-32.035c-2.185-15.512-0.243-24.664,2.427-42.972
		C1023.476,206.597,1015.636,203.734,1005.838,205.654z"/>
	<path fill="#FFFFFF" d="M991.486,148.117c22.561-13.113,42.162,15.514,31.623,37.85c-0.108,0.987-0.128,1.994-0.201,2.995
		c-0.161,2.221-0.985,4.319-1.707,6.392c-1.265,3.635-2.924,7.547-3.198,11.494c0.326,0.143,0.604,0.37,0.799,0.678
		c-0.837,0.766-1.671,1.531-2.538,2.264c-2.196,0.308-4.267,0.415-5.347,0.512c-1.943,0.169-3.948,0.107-5.952-0.033
		c-0.523-0.365-0.997-0.725-1.446-1.145c0.071-0.285,0.098-0.571,0.08-0.855c1.534-1.205,2.688-2.855,3.141-5.111
		c0.613-3.074-2.525-5.355-4.784-4.23c-1.659,0.25-3.331,0.441-5.008,0.533C980.076,193.311,977.18,156.431,991.486,148.117z"/>
	<path fill="none" stroke="#020303" stroke-width="0.9823" stroke-miterlimit="10" d="M988.452,172.062c0,1.27,0.619,2.3,1.38,2.3
		c0.766,0,1.382-1.03,1.382-2.3c0-1.272-0.616-2.302-1.382-2.302C989.071,169.76,988.452,170.789,988.452,172.062z"/>
	
		<ellipse fill="none" stroke="#020303" stroke-width="0.9823" stroke-miterlimit="10" cx="1000.161" cy="172.424" rx="1.381" ry="2.301"/>
	<g>
		<g>
			<path fill="#020303" d="M994.55,171.338c-0.065-0.035-0.132-0.069-0.197-0.104c-0.405-0.213-0.793,0.132-0.722,0.554
				c0.355,2.11,0.841,5.388-0.148,7.388c0.224-0.059,0.447-0.117,0.672-0.176c-1.043-0.678-4.188-1.389-4.445,0.55
				c-0.363,2.734,3.402,3.805,5.417,2.987c0.578-0.235,0.325-1.186-0.262-0.947c-1.449,0.589-3.957,0.195-4.212-1.743
				c-0.157-1.186,2.666-0.22,3.006,0.001c0.213,0.139,0.558,0.056,0.672-0.176c1.162-2.348,0.666-5.664,0.248-8.145
				c-0.24,0.185-0.481,0.37-0.722,0.554c0.065,0.035,0.132,0.069,0.197,0.104C994.614,172.48,995.11,171.632,994.55,171.338
				L994.55,171.338z"/>
		</g>
	</g>
	<path fill="#110906" d="M979.437,164.803c0,0,15.582-1.236,17.704-0.74c2.123,0.494,2.123,0.494,2.123,0.494l1.653-7.423
		l2.125,7.669l8.733,3.217c0,0,1.572,44.787-1.571,50.334c-4.486,7.916,23.87,3.572,23.87,3.572s-2.47-18.035-3.415-36.096
		c-0.945-18.059,0.224-48.629-32.811-45.518C979.437,142.043,979.437,164.803,979.437,164.803z"/>
	<g>
		<g>
			<path fill="#020303" d="M1000.724,183.841c-1.141,0.894-6.602,2.897-7.375,0.865c-0.114,0.201-0.229,0.403-0.343,0.604
				c2.154-0.721,4.393,0.006,6.601-0.325c0.624-0.094,0.358-1.04-0.262-0.947c-2.225,0.334-4.415-0.406-6.601,0.325
				c-0.234,0.079-0.441,0.344-0.343,0.604c1.168,3.069,7.235,0.964,9.018-0.432C1001.917,184.146,1001.217,183.456,1000.724,183.841
				L1000.724,183.841z"/>
		</g>
	</g>
	<g>
		<g>
			<path fill="#020303" d="M1000.647,183.94c-0.705,1.628-1.035,3.503-2.153,4.922c-0.679,0.862-1.658,1.145-2.722,1
				c-1.336-0.181-0.595-0.874,0.406-0.88c0.678-0.004,1.337,0.161,2.019,0.121c0.63-0.037,0.633-1.019,0-0.982
				c-1.242,0.072-3.84-0.689-4.335,1.109c-0.405,1.474,2.042,1.709,2.94,1.634c3.126-0.262,3.703-4.142,4.692-6.428
				C1001.744,183.861,1000.898,183.361,1000.647,183.94L1000.647,183.94z"/>
		</g>
	</g>
	<path fill="#FFFFFF" d="M1017.763,225.921c0,0-10.504-1.329-10.104,0.215c0.402,1.544,3.479,60.321,5.324,66.752
		c1.846,6.429,12.611,4.592,12.611,4.592l5.229-9.489c0,0-2.769-1.531-3.999-0.307c-1.23,1.223-1.846,4.59-1.846,4.59
		c0.307-0.039,1.165-1.107,0.307-0.039c-0.86,1.07,0.214-6.631,0.214-6.631l-3.985-3.285l0.762,10.131c0,0-2.794-2.781-4.514-4.492
		C1016.044,286.246,1014.97,243.678,1017.763,225.921z"/>
</g>
<g>
	<g>
		<path fill="#1E1E1C" d="M1035.65,164.898c1.899,0.144,3.8,0.287,5.699,0.431c0.631,0.047,0.626-0.933,0-0.98
			c-1.899-0.144-3.8-0.287-5.699-0.431C1035.02,163.871,1035.024,164.851,1035.65,164.898L1035.65,164.898z"/>
	</g>
</g>
<g>
</g>
<g>
</g>
<g>
</g>
<g>
</g>
<g>
</g>
<g>
</g>
</svg>
