<?xml version="1.0" encoding="utf-8"?>
<!-- Generator: Adobe Illustrator 16.0.4, SVG Export Plug-In . SVG Version: 6.00 Build 0)  -->
<!DOCTYPE svg PUBLIC "-//W3C//DTD SVG 1.1//EN" "http://www.w3.org/Graphics/SVG/1.1/DTD/svg11.dtd">
<svg version="1.1" id="Layer_1" xmlns="http://www.w3.org/2000/svg" xmlns:xlink="http://www.w3.org/1999/xlink" x="0px" y="0px"
	 width="1094.717px" height="517.497px" viewBox="0 0 1094.717 517.497" enable-background="new 0 0 1094.717 517.497"
	 xml:space="preserve">
<g>
	<g>
		<path fill="#FEEDA4" d="M919.416,183.623c-7.814,50.592,51.568,81.27,77.655,51.137c4.782-5.521,10.196-17.953,7.303-27.158
			c-2.245-7.131-17.031-15.545-20.024-6.691c-2.19,6.488,3.565,18.779,9.923,15.121c6.169-3.553-1.836-7.812-2.539-5.068
			c-0.841,3.268-3.161,0.113-2.014-3.657c1.188-3.896,4.449-4.677,7.42-2.381c10.914,8.431-2.158,16.781-8.014,19.116
			c-9.186,3.668-16.8-8.271-10.013-16.926c5.569-7.094,7.272-11.394,6.349-21.93c-1.103-12.567-1.583-21.25-11.816-28.893
			c-4.261-3.176-9.179-5.09-13.921-4.959c-2.334,0.064-4.89,2.774-6.851,2.062c-2.076-3.651-20.4,8.535-22.855,10.809
			C924.888,168.959,920.679,175.449,919.416,183.623C917.155,198.268,920.69,175.373,919.416,183.623z M990.282,200.806
			c2.102,0.159-2.67,3.454-3.297,5.382C986.248,202.604,986.731,200.535,990.282,200.806
			C990.621,200.834,989.212,200.723,990.282,200.806z"/>
		<path fill="#FFFFFF" d="M946.305,226.724c1.193,0.733-11.174,33.856-38.805,29.774c-4.462-0.659-6.955,4.645,5.461,3.938
			c32.815-1.867,38.098-33.812,38.098-33.812S945.676,226.337,946.305,226.724z"/>
		<path fill="#FFFFFF" d="M957.728,341.054c0,0,10.713-19.024,9.526-33.707c-0.54-6.69-3.85-9.372-3.85-9.372
			s13.125-28.496,1.167-40.861c-12.241-12.658-5.805,0.283-5.805,0.283s-0.858,39.574-0.713,40.322
			C958.804,301.529,957.728,341.054,957.728,341.054z"/>
		<path fill="#FFFFFF" d="M955.888,339.761c0,0-9.005-16.476-7.817-31.16c0.54-6.688,2.72-10.755,2.72-10.755
			s-10.124-27.33-0.862-42.316c9.261-14.988,6.411,0.136,6.411,0.136s0.714,41.818,0.567,42.565
			C956.156,302.04,955.888,339.761,955.888,339.761z"/>
		<path fill="#1E1E1C" d="M951.171,253.557c0.562-8.004,0.951-20.748,0.951-26.271c0-0.471-6.183-0.197-6.168-0.314
			c0.928-7.41,5.332-12.82,14.148-13.564c14.563-1.226,13.381,13.662,13.381,13.662c-1.295-0.789-5.51,0.631-5.623,0.725
			c-3.919,3.402-1.507,23.411-1.507,23.411"/>
		<g>
			<path fill="#FFFFFF" d="M970.737,191.981c-0.002-0.001-0.002-0.001-0.002-0.001c-0.795-2.551-2.477-1.828-4.019-0.574
				c0.305-2.086,0.897-4.271,0.94-6.154c0.015-0.715,0.044-1.551,0.051-2.43c-4.731-0.336-9.455-1.252-13.927-2.425
				c-5.863-1.535-10.304-4.316-14.234-8.333c-2.245,1.32-4.127,3.349-5.841,5.999c-0.44,0.683-4.919,9.641-6.056,12.353
				c-2.424,5.768,9.532,14.089,13.847,19.26c1.084,1.296,6.656,0.178,11.692-1.068c0.878-0.219,2.855-1.378,3.83-1.514
				c0.537,1.883,0.315,9.922,0.257,12.141c-0.048,1.658,1.98,2.297,3.081,1.346c0.31-0.146,0.585-0.409,0.772-0.832
				c0.19-0.43,0.37-0.914,0.542-1.421c1.325-2.915,0.753-10.233,3.082-16.917c3.097-2.408,7.371-4.953,5.983-9.427
				C971.06,193.02,971.62,194.833,970.737,191.981z"/>
		</g>
		<path fill="none" stroke="#020303" stroke-width="0.7328" stroke-miterlimit="10" d="M937.13,186.606
			c0.444,0.839,0.302,1.789-0.316,2.124c-0.62,0.336-1.479-0.07-1.924-0.908c-0.442-0.838-0.297-1.787,0.321-2.125
			C935.829,185.361,936.689,185.77,937.13,186.606z"/>
		<g>
			<g>
				<path fill="#020303" d="M943.66,185.286c-0.664,1.391-0.323,2.987-0.938,4.376c-0.745,1.687-2.832-0.544-3.986,0.61
					c-2.157,2.158,2.112,4.027,3.716,4.113c0.625,0.034,0.622-0.937,0-0.97c-1.093-0.059-2.776-0.604-3.219-1.712
					c0.32-0.733,0.735-0.954,1.245-0.663c0.329,0.118,0.627,0.226,0.972,0.287c0.323,0.058,0.732-0.031,1.021-0.174
					c2.081-1.033,1.191-3.628,2.026-5.378C944.766,185.213,943.93,184.721,943.66,185.286L943.66,185.286z"/>
			</g>
		</g>
		<g>
			<path fill="#1E1E1C" d="M947.995,187.799c1.65-3.48,8.004-3.072,10.016-1.027c0.918-0.408,2.383-1.517,2.842-2.336
				c-2.383,0.922-2.459,0.673-3.157,0.443c-3.814-1.25-7.03-2.18-9.613,2.633"/>
			<g>
				<path fill="#020303" d="M948.302,187.978c1.725-3.067,6.981-3.169,9.458-0.956c0.124,0.112,0.281,0.133,0.431,0.056
					c1.172-0.608,2.199-1.384,2.969-2.463c0.177-0.248-0.116-0.627-0.401-0.522c-1.39,0.515-2.181,0.699-3.565,0.25
					c-1.31-0.425-2.616-0.76-3.994-0.823c-2.551-0.115-4.251,1.79-5.423,3.813c-0.23,0.397,0.384,0.755,0.613,0.358
					c1.968-3.395,4.478-3.887,8.027-2.847c1.945,0.569,2.523,0.678,4.531-0.065c-0.134-0.174-0.268-0.348-0.401-0.522
					c-0.223,0.312-2.065,2.459-2.584,1.996c-0.36-0.322-0.812-0.526-1.245-0.727c-1.024-0.475-2.178-0.614-3.291-0.672
					c-2.268-0.117-4.596,0.735-5.737,2.766C947.464,188.02,948.077,188.377,948.302,187.978L948.302,187.978z"/>
			</g>
		</g>
		<g>
			<path fill="#1E1E1C" d="M940.785,187.6c-1.263-2.666-6.133-2.354-7.675-0.785c-0.701-0.315-1.823-1.166-2.176-1.792
				c1.825,0.706,1.883,0.517,2.417,0.343c2.926-0.959,5.389-1.672,7.365,2.016"/>
			<g>
				<path fill="#020303" d="M941.021,187.462c-0.91-1.62-2.631-2.105-4.396-2.119c-0.832-0.006-1.769,0.166-2.522,0.515
					c-0.332,0.154-0.679,0.31-0.954,0.557c-0.395,0.353-1.809-1.293-1.979-1.531c-0.103,0.133-0.205,0.267-0.308,0.4
					c1.267,0.469,1.821,0.583,3.045,0.186c2.831-0.918,4.962-0.728,6.574,2.047c0.177,0.303,0.647,0.03,0.471-0.274
					c-0.934-1.607-2.061-2.764-3.976-2.918c-0.913-0.074-1.878,0.223-2.739,0.473c-1.331,0.385-1.874,0.465-3.23-0.038
					c-0.218-0.081-0.443,0.21-0.308,0.4c0.591,0.826,1.377,1.421,2.273,1.89c0.114,0.06,0.235,0.043,0.33-0.042
					c1.896-1.696,5.927-1.621,7.247,0.73C940.722,188.043,941.192,187.769,941.021,187.462L941.021,187.462z"/>
			</g>
		</g>
		<ellipse fill="#F6AD9E" cx="956.675" cy="194.375" rx="3.338" ry="2.293"/>
		<ellipse fill="#F6AD9E" cx="932.943" cy="192.236" rx="3.337" ry="2.294"/>
		<path fill="none" stroke="#020303" stroke-width="0.7328" stroke-miterlimit="10" d="M953.459,186.258
			c0.595,0.961,0.502,2.104-0.207,2.557c-0.709,0.451-1.765,0.037-2.358-0.921c-0.597-0.958-0.506-2.103,0.202-2.555
			C951.807,184.889,952.863,185.298,953.459,186.258z"/>
		<path fill="#1E1E1C" d="M953.635,335.323c-0.125,0.315-11.126,8.544-11.126,8.544l14.698-3.128l0.595-5.416H953.635z"/>
		<path fill="#1E1E1C" d="M961.157,336.675c0.12,0.283,9.526,9.369,9.526,9.369l-13.347-5.222l-0.052-4.991L961.157,336.675z"/>
		<g>
			<g>
				<path fill="#FFFFFF" d="M947.083,165.372c1.219,5.31,6.573,8.143,11.259,9.931c5.19,1.98,11.13,3.131,16.701,2.938
					c0.543-0.019,0.545-0.863,0-0.845c-4.995,0.173-10.092-0.831-14.834-2.335c-4.901-1.556-11.045-4.395-12.312-9.913
					C947.775,164.617,946.961,164.842,947.083,165.372L947.083,165.372z"/>
			</g>
		</g>
		<g>
			<g>
				<path fill="#FFFFFF" d="M954.953,166.102c2.379,4.211,8.113,5.157,12.464,5.845c0.532,0.084,0.762-0.729,0.225-0.814
					c-4.116-0.65-9.711-1.476-11.96-5.456C955.414,165.202,954.685,165.627,954.953,166.102L954.953,166.102z"/>
			</g>
		</g>
		<g>
			<g>
				<path fill="#FFFFFF" d="M936.318,167.719c-4.209,2.723-6.976,6.935-10.104,10.745c-0.343,0.417,0.252,1.019,0.598,0.598
					c3.075-3.746,5.794-7.936,9.933-10.613C937.2,168.154,936.777,167.423,936.318,167.719L936.318,167.719z"/>
			</g>
		</g>
		<g>
			<g>
				<path fill="#020303" d="M938.35,179.6c-1.811,0.722-3.716,1.053-5.62,1.429c-0.463,0.092-0.267,0.798,0.195,0.707
					c1.903-0.376,3.81-0.707,5.62-1.429C938.979,180.134,938.789,179.425,938.35,179.6L938.35,179.6z"/>
			</g>
		</g>
		<g>
			<g>
				<path fill="#020303" d="M940.528,196.697c2.675,1.325,5.87,1.129,8.752,0.784c-0.156-0.205-0.312-0.409-0.468-0.614
					c-0.975,2.748-9.156,1.095-8.483-0.562c0.235-0.58-0.703-0.829-0.936-0.258c-1.331,3.276,9.03,4.807,10.354,1.077
					c0.098-0.275-0.164-0.65-0.468-0.614c-2.687,0.322-5.765,0.586-8.262-0.652C940.46,195.583,939.969,196.419,940.528,196.697
					L940.528,196.697z"/>
			</g>
		</g>
		<g>
			<g>
				<path fill="#020303" d="M948.592,197.818c0.075,2.184-2.038,4.374-3.839,5.312c-0.459,0.239-0.96,0.337-1.472,0.321
					c-0.172-0.005-1.413-0.577-0.872-0.772c0.441-0.16,1.089-0.068,1.531,0.019c1.172,0.231,1.978,0.409,3.054-0.254
					c0.53-0.328,0.044-1.167-0.49-0.838c-1.162,0.718-2.258,0.028-3.503,0.036c-0.605,0.003-1.418,0.128-1.757,0.707
					c-0.796,1.358,1.568,2.125,2.517,2.064c2.799-0.178,5.896-3.844,5.802-6.595C949.541,197.195,948.57,197.192,948.592,197.818
					L948.592,197.818z"/>
			</g>
		</g>
		<path fill="#0E8CCD" d="M966.476,249.996c-1.154,0.388-7.934,1.167-10.623,0.973s-2.689-0.194-2.689-0.194l-2.304-0.583
			c0,0-6.727,22.86-12.872,27.637c0,0,6.915,7.007,24.589,5.838c15.089-0.997,17.289-8.954,17.289-8.954L966.476,249.996z"/>
		<path fill="#FFFFFF" d="M973.483,227.068c0.271-0.939-1.429,24.376-16.467,16.266c-15.043-8.111-24.261-11.553-26.687-11.307
			c-2.424,0.245,1.456,5.161-1.455,6.145c-2.91,0.984-6.064,0-6.064,0s-0.243,7.127-1.94,6.636
			c-1.699-0.491-2.911-14.257,2.183-17.204c5.095-2.95,38.328,12.778,40.026,11.797c1.697-0.98,4.125-12.779,4.125-12.779
			L973.483,227.068z"/>
		<path fill="#E4F3FB" d="M888.646,255.385l23.573-11.557c0,0,18.034,1.53,31.86,13.922c0,0-23.674,14.908-23.843,14.732
			C914.929,266.939,909.175,259.992,888.646,255.385z"/>
	</g>
	<g>
		<path fill="#0E8CCD" d="M931.478,259.729c0.224,0.044,0.503,0.032,0.721-0.038c0.306-0.099,0.372-0.277,0.146-0.4l-21.842-10.996
			c-0.322-0.152-0.773-0.178-1.002-0.055s-0.154,0.348,0.162,0.5l21.58,10.912C931.308,259.686,931.389,259.713,931.478,259.729z"/>
		<path fill="#0E8CCD" d="M912.496,259.512c0.199,0.037,0.428,0.014,0.588-0.072l14.174-6.014c0.296-0.1,0.314-0.297,0.038-0.441
			c-0.274-0.141-0.74-0.178-1.034-0.076l-14.007,6.068c-0.227,0.123-0.224,0.327,0.005,0.455
			C912.328,259.469,912.409,259.496,912.496,259.512z"/>
		<path fill="#0E8CCD" d="M918.294,262.045c0.186,0.033,0.412,0.013,0.588-0.063c0.223-0.095,5.744-2.271,6.32-4.702
			c0.178-0.977-0.56-1.896-2.205-2.738c-7.42-3.709-16.698,1.133-16.781,1.186c-0.204,0.131-0.158,0.348,0.1,0.485
			c0.256,0.135,0.633,0.142,0.841,0.012c0.076-0.048,8.573-4.454,14.86-1.284c1.357,0.697,1.977,1.46,1.85,2.271
			c-0.448,2.2-5.644,4.306-5.693,4.328c-0.256,0.112-0.304,0.303-0.108,0.425C918.126,262.002,918.205,262.029,918.294,262.045z"/>
	</g>
</g>
<g>
</g>
<g>
</g>
<g>
</g>
<g>
</g>
<g>
</g>
<g>
</g>
</svg>
