<?xml version="1.0" encoding="utf-8"?>
<!-- Generator: Adobe Illustrator 16.0.4, SVG Export Plug-In . SVG Version: 6.00 Build 0)  -->
<!DOCTYPE svg PUBLIC "-//W3C//DTD SVG 1.1//EN" "http://www.w3.org/Graphics/SVG/1.1/DTD/svg11.dtd">
<svg version="1.1" id="Layer_1" xmlns="http://www.w3.org/2000/svg" xmlns:xlink="http://www.w3.org/1999/xlink" x="0px" y="0px"
	 width="1094.717px" height="517.497px" viewBox="0 0 1094.717 517.497" enable-background="new 0 0 1094.717 517.497"
	 xml:space="preserve">
<g>
	<path fill="#FFFFFF" d="M746.523,175.219c0,0,27.672,4.729,43.388-2.09c18.239-7.912,25.294-16.15,28.471-21.779
		c3.176-5.63-4.042-7.775-1.262-11.305c2.781-3.529,12.702-6.744,12.702-6.744s6.646,2.943,6.669,5.066
		c0.024,2.121-9.71-0.154-10.852,3.664s4.979,0.553,4.979,0.553l4.918,0.926c0,0-7.977,6.316-10.174,6.744
		c-2.198,0.426-27.628,46.578-77.653,34.081C740.098,182.434,746.523,175.219,746.523,175.219z"/>
	<path fill="#110906" d="M755.579,323.545c-1.331-5.768,6.142-46.705,8.771-70.699c-3.002,0.104-8.955,3.946-12.305,4.487
		c4.168,15.183-0.581,31.839-5.185,80.312c-0.283,2.982,4.401,0.652,5.617,1.498c1.853,1.289,0-7.114,0-7.114
		c5.616,3.584,10.138,8.812,11.643,8.999c6.502,0.811,8.461,1.5,9.211,0C774.83,338.031,757.077,330.036,755.579,323.545z"/>
	<path fill="#110906" d="M746.043,327.152c-1.498-6.49,3.429-68.457,1.432-74.449c-0.039-0.117-1.654,1.779-1.711,1.658
		c-3.811,0.543-7.483-1.253-10.248,0.917c9.902,19.823,1.783,52.368,1.809,85.974c0.003,2.996,4.401,0.652,5.617,1.498
		c1.854,1.289,0-7.115,0-7.115c5.617,3.586,10.139,8.812,11.643,9c6.502,0.811,8.461,1.5,9.211,0
		C765.293,341.639,747.541,333.643,746.043,327.152z"/>
	<path fill="#0E8CCD" d="M734.868,215.638c-7.123,19.588,0.647,45.376,0.647,50.394c12.068,9.15,27.779-5.271,27.779-5.271
		c7.529-39.569-3.248-39.782-1.818-56.876c2.168-25.939,3.546-24.098-6.278-30.912c-7.033-4.877-15.218-13.363-20.167-3.265
		c-2.834,5.782-0.521,20.31,0.128,26.483C736.012,204.307,736.008,207.542,734.868,215.638
		C734.519,218.126,740.343,200.585,734.868,215.638z"/>
	<path fill="#FFFFFF" d="M762.093,112.537c-12.691-7.377-24.398-0.879-29.785,10.059c-0.535,1.723-5.935,4.711-6.228,6.578
		c-1.173,7.48,6.588,12.684,9.306,19.488c2.672,6.686,3.766,11.047,1.428,18.028c0.008,0.091,0.024,0.181,0.03,0.271
		c-0.072,0.031-0.133,0.084-0.2,0.123c-0.116,0.248-0.251,0.471-0.413,0.657c0.748,0.684-2.271-0.813,2.27,2.021
		s14.815,2.914,15.244,2.516c-0.067-0.271-5.743-6.684-6.175-8.832c-0.584-2.926,2.404-5.099,4.556-4.027
		c1.579,0.237,3.171,0.42,4.768,0.507C772.957,154.07,775.715,120.453,762.093,112.537z"/>
	<g>
		<g>
			<path fill="#020303" d="M769.988,135.683c-0.019,0.493-0.137,1.618-0.814,1.688c-0.659,0.068-0.801-1.305-0.815-1.688
				c-0.019-0.492,0.161-1.626,0.815-1.693C769.831,133.921,769.974,135.301,769.988,135.683c0.024,0.643,1.024,0.645,1,0
				c-0.043-1.163-0.482-2.555-1.814-2.693c-1.321-0.137-1.78,1.751-1.815,2.693c-0.043,1.16,0.542,2.557,1.815,2.688
				c1.317,0.136,1.779-1.748,1.814-2.688C771.013,135.038,770.013,135.04,769.988,135.683z"/>
		</g>
	</g>
	<g>
		<g>
			<path fill="#020303" d="M756.995,135.492c-0.019,0.494-0.137,1.62-0.815,1.69c-0.658,0.068-0.801-1.308-0.815-1.69
				c-0.019-0.491,0.162-1.624,0.815-1.691C756.837,133.733,756.98,135.11,756.995,135.492c0.024,0.643,1.024,0.645,1,0
				c-0.044-1.163-0.484-2.553-1.815-2.691c-1.32-0.137-1.78,1.75-1.815,2.691c-0.043,1.16,0.542,2.559,1.815,2.69
				c1.318,0.136,1.78-1.75,1.815-2.69C758.02,134.847,757.02,134.85,756.995,135.492z"/>
		</g>
	</g>
	<g>
		<g>
			<path fill="#020303" d="M762.853,135.482c0.062-0.032,0.125-0.065,0.188-0.098c-0.244-0.188-0.489-0.376-0.734-0.564
				c-0.399,2.373-0.87,5.535,0.239,7.78c0.116,0.236,0.467,0.32,0.684,0.179c0.694-0.451,1.553-0.624,2.369-0.474
				c1.566,0.288-0.778,1.989-1.099,2.123c-0.784,0.33-1.657,0.262-2.426-0.049c-0.598-0.243-0.855,0.725-0.266,0.964
				c1.936,0.786,5.548-0.252,5.198-2.875c-0.249-1.876-3.263-1.214-4.281-0.552c0.228,0.06,0.456,0.12,0.684,0.179
				c-0.937-1.896-0.475-5.01-0.138-7.009c0.072-0.431-0.322-0.78-0.734-0.564c-0.062,0.032-0.125,0.065-0.188,0.098
				C761.776,134.917,762.282,135.78,762.853,135.482L762.853,135.482z"/>
		</g>
	</g>
	<g>
		<g>
			<path fill="#020303" d="M756.515,146.805c1.719,1.348,7.517,3.351,8.641,0.396c0.101-0.265-0.11-0.535-0.35-0.615
				c-2.082-0.697-4.167,0.009-6.285-0.31c-0.631-0.095-0.901,0.868-0.266,0.964c2.102,0.317,4.235-0.376,6.285,0.31
				c-0.116-0.205-0.233-0.41-0.35-0.615c-0.724,1.902-5.903-0.002-6.969-0.838C756.721,145.705,756.008,146.407,756.515,146.805
				L756.515,146.805z"/>
		</g>
	</g>
	<g>
		<g>
			<path fill="#020303" d="M756.437,146.704c0.948,2.193,1.5,5.887,4.496,6.137c0.88,0.074,3.224-0.167,2.831-1.597
				c-0.478-1.734-2.957-1.011-4.159-1.08c-0.645-0.037-0.641,0.963,0,1c0.534,0.031,1.057-0.042,1.588-0.095
				c0.492-0.049,2.229,0.292,1.052,0.683c-1.101,0.365-2.169-0.043-2.899-0.873c-1.11-1.26-1.394-3.174-2.045-4.681
				C757.045,145.608,756.184,146.118,756.437,146.704L756.437,146.704z"/>
		</g>
	</g>
	<path fill="#0E8CCD" d="M766.858,113.751c3.762-3.06-5.14-11.894-8.365-7.903c-1.809-4.051-11.857-9.513-13.207-3.979
		c-2.848-2.105-7.11-2.09-10.278-0.752c-2.421,1.023-3.668,2.953-2.07,4.692c-2.153-0.171-4.383,0.368-6.062,1.761
		c-1.566,1.297-1.403,2.957-0.588,4.408c-0.854-0.358-1.777-0.43-2.724,0.044c-1.562,0.783-2.248,2.812-2.492,4.411
		c-0.434,2.829,0.526,5.396,2.496,6.665c-1.63,0.438-3.129,1.374-4.093,2.737c-1.119,1.582-0.873,2.891,0.097,3.785
		c-1.206,0.459-2.042,1.818-2.141,3.514c-0.209,3.623,2.698,5.551,5.839,5.9c-2.509,2.046,1.312,7.867,5.135,8.266
		c-0.725,0.623-1.134,1.442-0.372,2.387c1.076,1.336,3.396,1.772,4.98,1.993c1.146,0.159,3.52,0.448,4.267-0.774
		c0.547-0.896-0.083-1.869-0.924-2.683c1.383-0.007,2.612-1.032,3.192-2.718c0.928-2.694-2.112-5.653-3.789-7.345
		c-0.121-0.122-0.276-0.116-0.423-0.054c-2.62,1.105-5.035-2.781-5.577-4.804c-0.432-1.614,0.255-3.191,1.906-3.704
		c1.398-0.433,2.898,1.049,3.825,1.875c1.33,1.188,2.57,2.422,4.316,1.105c1.21-0.912,0.685-2.227-0.182-3.178
		c1.213,0.098,2.372-0.293,2.933-1.593c0.402-0.935,0.19-1.862-0.305-2.653c0.86,0.191,1.648-0.012,2.071-0.877
		c0.064,0.25,0.143,0.502,0.249,0.758c0.484,1.164,1.445,2.205,2.741,2.383c1.343,0.186,2.453-0.715,3.297-1.709
		c0.207,1.576,1.186,2.856,3.028,2.735c1.957-0.128,2.992-1.856,3.18-3.611c1.328,1.568,3.407,2.71,5.441,1.76
		c1.922-0.897,2.077-2.716,1.327-4.341c1.212,0.52,2.532,0.748,3.754,0.066c1.285-0.719,1.742-2.352,1.844-3.713
		C769.329,116.697,768.486,114.365,766.858,113.751z"/>
	<g>
		<g>
			<path fill="#020303" d="M759.493,136.45c-0.109,2.691-1.198,6.14-4.377,6.399c-3.15,0.257-4.282-4.104-4.376-6.399
				c-0.109-2.682,1.364-6.152,4.376-6.398C758.268,129.794,759.399,134.154,759.493,136.45c0.026,0.643,1.026,0.645,1,0
				c-0.136-3.315-1.628-7.092-5.377-7.398c-3.725-0.304-5.261,4.574-5.376,7.398c-0.135,3.306,1.813,7.108,5.376,7.399
				c3.726,0.304,5.262-4.574,5.377-7.399C760.52,135.805,759.52,135.808,759.493,136.45z"/>
		</g>
	</g>
	<g>
		<g>
			<path fill="#020303" d="M773.22,135.492c-0.111,2.489-1.118,5.564-4.047,5.817c-2.902,0.25-3.951-3.708-4.046-5.817
				c-0.11-2.479,1.292-5.581,4.046-5.818C772.076,129.423,773.125,133.382,773.22,135.492c0.028,0.642,1.028,0.645,1,0
				c-0.14-3.119-1.562-6.518-5.047-6.818c-3.462-0.299-4.929,4.185-5.046,6.818c-0.139,3.108,1.752,6.533,5.046,6.817
				c3.461,0.299,4.929-4.184,5.047-6.817C774.248,134.847,773.248,134.85,773.22,135.492z"/>
		</g>
	</g>
	<path fill="none" stroke="#020303" stroke-width="1.0994" stroke-miterlimit="10" d="M758.662,131.724c0,0,3.205-2.741,6.911-0.661
		"/>
	<g>
		<g>
			<path fill="#020303" d="M750.373,135.199c-4.167-0.653-8.335-1.306-12.502-1.959c-0.631-0.099-0.901,0.864-0.266,0.964
				c4.167,0.653,8.335,1.306,12.502,1.959C750.738,136.262,751.009,135.298,750.373,135.199L750.373,135.199z"/>
		</g>
	</g>
	<path fill="#FFFFFF" d="M706.318,194.608c-3.361-0.433-7.504-4.428-10.067-6.592c-3.305-2.783-6.295-6.56-7.546-10.776
		c-0.017-0.067-0.048-0.119-0.085-0.164c-0.05-0.242-0.107-0.475-0.182-0.689c0.004-0.158-0.224-0.898-0.436-0.915
		c-2.609-4.182-10.986-1.634-12.128-7.764c-0.049-0.272-0.408-0.399-0.627-0.258c-2.606,1.679-3.695,3.974-0.774,5.952
		c0.784,0.529,1.654,0.963,2.564,1.334c0.572,0.39,1.177,0.715,1.802,0.99c-1.674,0.233-3.341,0.514-5.003,0.842
		c-8.022,1.565-9.858,0.989-14.453,2.395c-0.223,0.066-0.362,0.297-0.301,0.531c0.515,1.894,1.99,1.666,3.608,1.876
		c-1.334,0.448-3.375,0.688-4.685,1.222c-0.306,0.126,0.107,1.741,0.332,2.004c1.433,1.682,3.351,2.073,5.389,1.871
		c-0.688,0.293-1.373,0.582-2.063,0.872c-0.296,0.125-0.481,0.612-0.103,0.791c2.296,1.073,8.797,0.698,14.688-0.827
		c4.775-1.031,5.811-1.202,8.199-3.404c0.231-0.16,0.445-0.327,0.651-0.495c5.646,5.362,13.992,17.495,21.534,20.511
		c0.141,0.059,21.005-12.562,29.916-17.896c8.912-5.334,7.026-16.481,0.72-15.973C727.202,177.49,707.391,194.642,706.318,194.608z"
		/>
	<path fill="#0E8CCD" d="M736.23,167.741c0,0-7.672,5.753-10.27,7.856c0,0,4.382,0.262,8.836,5.828
		c4.453,5.566,1.979,5.814,1.979,5.814s11.133-3.293,9.401-9.75C744.445,171.034,736.23,167.741,736.23,167.741z"/>
	<path fill="#0E8CCD" d="M825.64,140.83c0,0-11.714,1.894-10.472,6.449c1.145,4.197,15.56-1.302,15.56-1.302l7.854-3.589
		l1.849-2.209l-3.301-0.344L825.64,140.83z"/>
</g>
<g>
</g>
<g>
</g>
<g>
</g>
<g>
</g>
<g>
</g>
<g>
</g>
</svg>
