<?xml version="1.0" encoding="utf-8"?>
<!-- Generator: Adobe Illustrator 16.0.4, SVG Export Plug-In . SVG Version: 6.00 Build 0)  -->
<!DOCTYPE svg PUBLIC "-//W3C//DTD SVG 1.1//EN" "http://www.w3.org/Graphics/SVG/1.1/DTD/svg11.dtd">
<svg version="1.1" id="Layer_1" xmlns="http://www.w3.org/2000/svg" xmlns:xlink="http://www.w3.org/1999/xlink" x="0px" y="0px"
	 width="1094.717px" height="517.497px" viewBox="0 0 1094.717 517.497" enable-background="new 0 0 1094.717 517.497"
	 xml:space="preserve">
<g>
	<path fill="#FFFFFF" d="M1038.432,246.503l29.903-0.298l-0.89,10.068l7.996,4.145c0,0-7.106,68.984-7.995,78.162
		c0,0,21.613,5.033,15.691,11.546s-21.612-9.476-21.612-9.476s-1.481-75.791-8.587-75.199s-3.256,76.088-3.256,76.088
		s-17.458,15.212-25.166,9.179c-6.811-5.329,20.725-11.546,20.725-11.546l-15.691-78.754l10.066-5.329L1038.432,246.503z"/>
	<path fill="#0E8CCD" d="M1033.102,258.938c0.381,0.854,7.105-4.146,7.105-4.146s-5.922-12.434-5.033-32.566
		s4.441-23.093,4.441-23.093s-4.15,50.835-2.665,51.81c18.948,12.436,32.863-2.07,32.863-2.07s-1.987-50.469-1.48-49.741
		c10.066,14.507-0.296,56.845-0.296,56.845l10.066,3.85c0,0,9.474-44.113-7.106-74.312c-5.295-9.645-21.611-9.474-31.679-0.592
		C1029.252,193.803,1022.148,234.364,1033.102,258.938z"/>
	<path fill="#FFFFFF" d="M1060.515,135.74c-3.192-7.826-10.965-12.348-19.089-8.911c-4.376,1.851-7.86,6.144-9.25,10.603
		c-0.751,2.412-0.785,4.926-0.649,7.455c-0.458,1.814-1.109,3.506-2.16,4.857c-1.805,0.688-3.709,1.087-5.738,1.13
		c-1.401,0.029-2.551,2.017-1.257,3.032c0.627,0.492,1.291,0.923,1.977,1.291c0.329,0.453,0.855,0.752,1.519,0.691
		c2.016,0.758,4.133,0.92,6.059,0.303c1.06,3.586,1.231,7.35,2.23,10.965c1.032,3.74,3.37,6.729,6.421,9.039
		c3.221,2.439,7.519,4.031,9.849,6.985c0.143,0.646,1.703,5.099,1.625,5.886c-0.136,1.363,1.602,2.185,2.673,1.533
		c3.644-2.217,4.649-6.863,5.22-10.781c0.627-4.293,0.558-8.633,0.996-12.938c0.444-2.17,0.824-4.352,1.13-6.535
		C1063.195,152.314,1063.642,143.402,1060.515,135.74z"/>
	<path fill="#0E8CCD" d="M1037.838,126.301c0,0-4.145,8.586,9.771,18.948s11.843,23.981,13.619,25.462s14.508-10.363,14.508-10.363
		s-7.344-0.447-8.882-8.881C1063.392,132.478,1063.597,117.418,1037.838,126.301z"/>
	
		<ellipse transform="matrix(0.9562 0.2926 -0.2926 0.9562 91.0178 -302.0618)" fill="#FFFFFF" cx="1055.307" cy="153.243" rx="5.033" ry="7.697"/>
	
		<ellipse fill="none" stroke="#1E1E1C" stroke-width="0.98" stroke-miterlimit="10" cx="1036.013" cy="146.457" rx="1.217" ry="2.746"/>
</g>
<g>
	<g>
		<path fill="#1E1E1C" d="M1035.65,164.898c1.899,0.144,3.8,0.287,5.699,0.431c0.631,0.047,0.626-0.933,0-0.98
			c-1.899-0.144-3.8-0.287-5.699-0.431C1035.02,163.871,1035.024,164.851,1035.65,164.898L1035.65,164.898z"/>
	</g>
</g>
<g>
</g>
<g>
</g>
<g>
</g>
<g>
</g>
<g>
</g>
<g>
</g>
</svg>
