<?xml version="1.0" encoding="utf-8"?>
<!-- Generator: Adobe Illustrator 16.0.4, SVG Export Plug-In . SVG Version: 6.00 Build 0)  -->
<!DOCTYPE svg PUBLIC "-//W3C//DTD SVG 1.1//EN" "http://www.w3.org/Graphics/SVG/1.1/DTD/svg11.dtd">
<svg version="1.1" id="Layer_1" xmlns="http://www.w3.org/2000/svg" xmlns:xlink="http://www.w3.org/1999/xlink" x="0px" y="0px"
	 width="1094.717px" height="517.497px" viewBox="0 0 1094.717 517.497" enable-background="new 0 0 1094.717 517.497"
	 xml:space="preserve">
<g>
	<g>
		<polygon fill="#FFFFFF" points="781.323,444.492 814.997,452.37 817.169,448.432 815.712,444.492 781.323,436.978 		"/>
		<path fill="#A42423" d="M866.546,443.484l-50.921,8.886l-1.101,0.192c0,0,2.207-2.186,0.78-7.902l50.333-8.239
			C865.638,436.421,868.366,437.299,866.546,443.484z"/>
		<polygon fill="#A42423" points="865.617,436.421 830.823,430.287 781.323,436.978 815.712,444.492 		"/>
	</g>
	<g>
		<polygon fill="#FFFFFF" points="782.647,434.73 816.322,442.605 818.491,438.669 817.036,425.843 782.647,420.551 		"/>
		<path fill="#0E8CCD" d="M867.866,433.721l-50.918,8.885l-1.098,0.192c0,0,2.202-11.071,0.776-16.787l50.333-8.239
			C866.96,417.771,869.688,427.535,867.866,433.721z"/>
		<polygon fill="#0E8CCD" points="866.939,417.771 827.815,411.043 781.555,420.24 817.036,425.843 		"/>
	</g>
	<polygon fill="#A42523" points="870.066,415.732 781.973,404.77 781.973,417.527 786.827,417.959 815.896,423.55 	"/>
	<path fill="#FFFFFF" d="M784.303,416.779c0,0-1.391-10.988-0.308-11.643c1.085-0.662,32.534,1.926,32.534,1.926l49.936-3.797
		l-1.279,12.268l-49.688,6.43L784.303,416.779z"/>
	<polygon fill="#A42523" points="870.066,403.846 828.576,399.416 781.973,404.77 815.499,410.121 	"/>
	<polygon fill="#FFFFFF" points="790.193,403.266 819.07,408.324 820.933,405.795 819.683,403.266 790.193,399.869 	"/>
	<path fill="#0E8CCD" d="M863.272,402.619l-43.665,5.705l-0.941,0.122c0,0,1.889-1.401,0.668-5.073l43.16-5.285
		C862.494,398.088,864.832,398.65,863.272,402.619z"/>
	<polygon fill="#0E8CCD" points="862.476,398.088 832.64,394.148 790.193,399.869 819.683,403.266 	"/>
</g>
<g>
	<g>
		<path fill="#0E8CCD" d="M705.375,437.597c0,0-15.021-36.259-14.859-57.138c0.163-20.881-21.688-24.889-31.386-17.902
			c-9.699,6.99-13.347,22.039-10.332,43.686c3.017,21.646,11.467,43.377,20.015,45.867
			C677.354,454.6,700.16,457.207,705.375,437.597z"/>
		<path fill="#110906" d="M710.183,438.084c0,0,33.52-47.508,46.953-35.623c19.549,17.3,17.951,50.568,17.76,49.874
			c0,0,36.413,10.474,29.896,14.192c-14.861,8.47-36.182-6.065-36.182-6.065s-8.477-52.321-20.419-42.802
			c-7.48,5.969-22.476,33.476-39.36,42.492c-15.058,8.039-24.508,5.195-17.711-1.827c8.04-8.309,7.849-15.681,7.849-15.681
			S710.142,439.49,710.183,438.084z"/>
		<path fill="#110906" d="M691.053,437.82c0,0,21.989-39.982,44.578-27.449c22.594,12.537,20.398,52.822,20.398,52.822
			s40.259,9.717,33.433,13.422c-15.557,8.45-42.047-6.217-42.047-6.217s-5.748-57.052-18.248-47.55
			c-12.501,9.507-18.787,39.687-31.851,41.981s-19.283,1.529-28.696-5.895c-9.413-7.426-8.181-14.336-8.181-14.336
			S679.816,442.564,691.053,437.82z"/>
		<path fill="#110906" d="M666.52,326.129c0,0,1.713,9.935-7.574,11.221c-9.286,1.282-8.174-0.753-8.174-0.753
			s1.884,8.933,8.021,9.259c6.136,0.329,6.548-3.318,6.548-3.318s-1.417,7.25-3.843,7.248c-2.434-0.011,7.968,6.191,11.588,1.714
			c3.619-4.472,4.052-22.202,3.535-22.406C676.103,328.891,666.52,326.129,666.52,326.129"/>
		<path fill="#FFFFFF" d="M673.986,323.488c-1.303,3.814-2.271,7.718-2.947,11.668c-0.644,3.75-0.31,7.205,0.091,10.84
			c1.233,7.608-5.457,15.249-5.457,15.249c3.901,5.272,13.514,6.817,13.824,5.358c0.556-2.621,1.396-11.948,6.1-8.008
			c22.144,18.564,28.769-6.184,28.988-7.793c0.532-1.278,1.002-2.551,1.442-3.76c1.597-4.372,3.268-8.652,5.368-12.836
			c2.997-5.958,7.797-14.553,3.618-21.02c-4.479-6.945-14.222-9.785-22.413-10.197c-8.268-0.416-17.538,0.855-21.775,8.439
			c-0.233,0.415-0.442,0.844-0.649,1.268C677.319,315.754,675.324,319.604,673.986,323.488z"/>
		<path fill="#110906" d="M708.029,311.148c0.445,0.369-5.091,8.245-14.236,11.488c-9.151,3.24-12.292,8.695-14.354,15.813
			c-0.107,0.372-5.915-8.579-2.705-15.764c0.342-0.757-4.715,5.135-4.261,8.087c0.454,2.953-14.902-6.412-0.612-20.826
			c14.3-14.416,20.52-10.23,20.52-10.23s-3.26-4.918-12.384-1.285c0,0,7.307-6.828,15.791-4.049
			c17.344,5.686,16.618,11.324,16.618,11.324"/>
		<path fill="#FFFFFF" d="M676.307,323.498c-0.528-0.779-1.2-1.479-2.021-2.057c-0.612-0.435-1.331-0.715-2.084-0.84
			c-1.86-0.684-3.898-0.123-5.224,2.402c-1.065,2.025-0.99,4.189-0.157,6.115c0.179,0.733,0.43,1.461,0.77,2.189
			c0.972,2.097,2.358,4.63,4.812,5.451c0.769,0.263,1.442,0.035,1.897-0.393c0.821,0.213,1.697,0.163,2.35-0.238
			C675.406,332.062,675.825,327.775,676.307,323.498z"/>
		<path fill="none" stroke="#020303" stroke-width="0.8056" stroke-miterlimit="10" d="M714.686,340.148
			c-0.627,1.396-0.509,2.773,0.253,3.074c0.767,0.302,1.892-0.584,2.513-1.981c0.626-1.393,0.51-2.771-0.253-3.069
			C716.431,337.867,715.311,338.752,714.686,340.148z"/>
		<path fill="none" stroke="#020303" stroke-width="0.8056" stroke-miterlimit="10" d="M699.253,335.721
			c-0.622,1.395-0.508,2.77,0.258,3.072c0.76,0.303,1.888-0.583,2.51-1.979c0.621-1.396,0.509-2.773-0.252-3.075
			C701.001,333.439,699.877,334.327,699.253,335.721z"/>
		<path fill="none" stroke="#1E1E1C" stroke-width="1.9911" stroke-miterlimit="10" d="M705.533,332.974
			c0,0-0.351,8.781-4.829,8.063c-4.474-0.709-13.303-1.51-12.765-5.232c0.542-3.716,0.251-7.857,5.954-7.143
			C699.592,329.379,705.318,330.492,705.533,332.974z"/>
		<path fill="none" stroke="#1E1E1C" stroke-width="1.9911" stroke-miterlimit="10" d="M711.361,335.746
			c0,0-3.622,7.555-1.141,8.961c2.486,1.412,7.917,3.068,9.225-0.398c1.306-3.461,3.27-4.818,0.188-6.778
			C716.55,335.572,712.515,333.699,711.361,335.746z"/>
		<g>
			<path fill="#FFFFFF" d="M709.088,335.795c-0.161,0.123,3.018,9.008,5.442,14.338c-2.243,0.455-8.025,0.301-10.018-0.482"/>
			<g>
				<path fill="#1E1E1C" d="M708.59,335.795c-0.164,1.453,1.178,3.738,1.659,5.051c1.182,3.218,2.445,6.411,3.852,9.538
					c0.099-0.243,0.198-0.487,0.298-0.731c-3.021,0.523-6.841,0.511-9.754-0.482c-0.609-0.207-0.868,0.755-0.264,0.961
					c3.108,1.06,7.079,1.036,10.281,0.482c0.346-0.061,0.417-0.467,0.298-0.731c-1.283-2.855-2.429-5.77-3.528-8.7
					c-0.502-1.338-2.013-3.916-1.846-5.387C709.658,335.157,708.661,335.164,708.59,335.795L708.59,335.795z"/>
			</g>
		</g>
		<g>
			<g>
				<path fill="#1E1E1C" d="M671.775,324.182c0.677,0.77,1.244,1.607,1.729,2.509c0.236,0.439,0.44,0.925,0.5,1.424
					c0.104,0.879-2.226-0.334-2.217-0.329c-0.314-0.149-0.604-0.016-0.731,0.297c-0.361,0.891,0,1.76,0.402,2.572
					c0.295,0.596,0.668,1.153,0.988,1.736c0.743,1.351-0.809,1.178-1.726,1.099c-0.64-0.055-0.635,0.941,0,0.996
					c1.099,0.094,3.098,0.24,3.025-1.375c-0.073-1.629-2.411-3.089-1.729-4.763c-0.244,0.099-0.488,0.198-0.731,0.297
					c0.846,0.403,3.67,1.669,3.71-0.315c0.036-1.78-1.403-3.588-2.518-4.851C672.054,322.996,671.353,323.702,671.775,324.182
					L671.775,324.182z"/>
			</g>
		</g>
		<g>
			<g>
				<path fill="#1E1E1C" d="M711.175,336.551c0.074-3.067-4.456-3.522-6.524-2.539c-1.159,0.551-0.147,2.267,1.006,1.719
					c0.724-0.344,3.558-0.422,3.528,0.82C709.153,337.836,711.145,337.832,711.175,336.551L711.175,336.551z"/>
			</g>
		</g>
		<path fill="#110906" d="M696.895,312.074c1.031,0.406,18.161-0.809,19.831,15.818c1.688,16.81,9.801,16.985,9.801,16.985
			s-5.784-3.805-1.006-13.136c5.422-10.579,7.456-30.696-12.775-28.424C692.509,305.594,696.895,312.074,696.895,312.074z"/>
		<g>
			<g>
				<path fill="#020303" d="M692.828,325.283c3.902,0.149,7.759,0.915,11.516,1.953c0.502,0.139,0.715-0.639,0.215-0.777
					c-3.825-1.057-7.758-1.83-11.73-1.982C692.309,324.457,692.311,325.263,692.828,325.283L692.828,325.283z"/>
			</g>
		</g>
		<g>
			<g>
				<path fill="#020303" d="M714.277,329.635c3.191,1.771,6.818,2.569,9.933,4.492c0.443,0.274,0.848-0.423,0.406-0.695
					c-3.116-1.925-6.74-2.722-9.933-4.492C714.229,328.688,713.823,329.383,714.277,329.635L714.277,329.635z"/>
			</g>
		</g>
		<g>
			<g>
				<path fill="#020303" d="M707.835,353.781c-3.614,0.302-6.459-1.089-9.604-2.729c-0.46-0.24-0.867,0.455-0.406,0.695
					c3.273,1.707,6.247,3.153,10.01,2.838C708.349,354.543,708.353,353.737,707.835,353.781L707.835,353.781z"/>
			</g>
		</g>
		<path fill="none" stroke="#1E1E1C" stroke-width="1.9911" stroke-miterlimit="10" d="M688.261,329.943
			c-0.846-0.336-8.151-5.565-8.151-5.565"/>
		<path fill="#FFFFFF" d="M652.66,389.842l10.382-0.611c0,0-0.486,22.252,4.244,29.058c6.131,8.817,11.479-7.558,17.476-18.173
			c0.013-0.014,0.026-0.031,0.04-0.045c1.578-1.811,3.429-3.649,5.647-4.773c0.508,0.84,1.007,1.687,1.464,2.553
			c0.265,0.502,0.603,0.875,0.984,1.147c-0.831,5.884-5.656,33.047-24.189,33.31C647.923,432.6,652.66,389.842,652.66,389.842z"/>
		<polygon fill="#0E8CCD" points="690.453,407.266 730.684,391.76 755.908,397.506 726.543,413.052 		"/>
		<path fill="#FFFFFF" d="M710.92,393.483l11.605,8.052c0,0-0.181,2.36-5.311,0.305c-5.127-2.049-6.797-3.441-6.797-3.441
			s11.315,5.797,11.528,9.004c0.212,3.211-14.933-6.41-14.933-6.41s7.816,4.164,6.841,7.499c-0.979,3.333-11.184-5.483-11.184-5.483
			s-13.241,8.162-15.438-3.116C685.74,392.242,710.92,393.483,710.92,393.483z"/>
		<path fill="#FFFFFF" d="M715.079,394.385c0,0,8.759,8.171,10.008,6.156c1.251-2.014-2.843-4.676-2.843-4.676
			s6.374,4.248,7.968,3.431c1.594-0.812-4.597-5.288-4.597-5.288s5.37,2.781,4.461,0.641c-0.908-2.141-5.591-5.531-8.755-7.24
			c-1.84-0.992-7.218-1.265-12.266-0.088c-1.244,0.291-10.325,5.637-10.437,6.1c-0.182,0.77,0.085,1.979,1.082,2.934
			C701.586,398.157,706.078,399.051,715.079,394.385z"/>
		<g>
			<polygon fill="#C3E5F6" points="726.526,416.891 764.682,403.291 785.737,362.091 750.302,368.575 			"/>
		</g>
		<polygon fill="#FFFFFF" points="786.234,362.129 779.686,360.043 746.034,367.342 750.061,369.418 		"/>
		<polygon fill="#82CFF5" points="750.061,369.418 746.034,367.342 724.27,411.237 690.453,407.266 691.686,412.65 728.362,416.935 
					"/>
	</g>
	
		<ellipse transform="matrix(-0.9957 -0.0931 0.0931 -0.9957 1308.54 722.3832)" fill="#0E8CCD" cx="671.115" cy="330.679" rx="7.901" ry="12.754"/>
	
		<ellipse transform="matrix(-0.9957 -0.0931 0.0931 -0.9957 1301.8881 719.0846)" fill="#E4F3FB" cx="667.713" cy="329.183" rx="7.901" ry="12.754"/>
	<path fill="#0E8CCD" d="M718.859,303.271l-8.006-4.687c0,0-5.906-1.934-21.48-0.586c-22.898,1.981-26.646,32.77-26.091,30.447
		l5.88,2.818c0,0,4.961-23.851,19.038-28.189C707.257,297.202,715.931,302.293,718.859,303.271z"/>
	<path fill="none" stroke="#C3E5F6" stroke-width="1.0867" stroke-miterlimit="10" d="M664.826,341.4
		c0,0-19.743,23.277-3.831,27.108c9.458,2.278,11.787,3.243,14.145,10.608c2.356,7.365-3.242,12.079-4.715,22.982
		c-1.474,10.902-2.946,20.922,5.01,27.403c7.955,6.483,26.518,28.878,41.545-15.615"/>
</g>
<g>
</g>
<g>
</g>
<g>
</g>
<g>
</g>
<g>
</g>
<g>
</g>
</svg>
