<?xml version="1.0" encoding="UTF-8"?>
<svg xmlns="http://www.w3.org/2000/svg" xmlns:xlink="http://www.w3.org/1999/xlink" version="1.2" >
<font id="MaxLF-Light">
<font-face  font-family="MaxLF-Light" units-per-em="1000" ascent="748.779" descent="-251.221" font-style="normal" font-weight="300" font-stretch="normal" cap-height="750" x-height="500" underline-position="-75" underline-thickness="50" />
<missing-glyph  horiz-adv-x="1000" d="" />
<glyph glyph-name="NULL" d="" />
<glyph glyph-name="CR" unicode="&#xd;" horiz-adv-x="250" d="" />
<glyph glyph-name="space" unicode="&#x20;" horiz-adv-x="310" d="" />
<glyph glyph-name="exclam" unicode="&#x21;" horiz-adv-x="270" d="M182 742 C182 747 178 752 174 752 L173 752 L107 736 C99 734 94 731 94 723 L101 216 C101 211 105 207 111 207 L166 207 C171 207 175 211 175 216 L182 742 Z M182 15 L182 127 C182 137 177 142 168 142 L108 142 C99 142 93 137 93 127 L93 15 C93 5 99 0 108 0 L168 0 C177 0 182 5 182 15 L182 15 Z " />
<glyph glyph-name="quotedbl" unicode="&#x22;" horiz-adv-x="317" d="M269 730 C269 735 264 739 259 739 L197 739 C192 739 187 735 187 730 L187 511 C187 506 192 501 197 501 L245 501 C250 501 254 506 255 511 L269 730 Z M129 730 C130 735 125 739 120 739 L58 739 C52 739 48 735 48 730 L48 511 C48 506 52 501 58 501 L106 501 C111 501 115 506 115 511 L129 730 Z " />
<glyph glyph-name="numbersign" unicode="&#x23;" horiz-adv-x="702" d="M621 537 L621 538 C621 542 616 546 612 546 L516 546 L546 730 L546 731 C546 735 541 739 536 739 L479 739 C474 739 469 735 469 730 L439 546 L315 546 L345 730 L345 731 C345 735 340 739 335 739 L278 739 C273 739 268 735 268 730 L238 546 L139 546 C134 546 131 542 130 537 L120 475 L120 474 C120 470 125 466 129 466 L225 466 L199 303 L100 303 C95 303 92 299 91 294 L81 232 L81 231 C81 227 85 223 90 223 L186 223 L152 9 L152 8 C152 4 157 0 161 0 L219 0 C224 0 228 4 229 9 L263 223 L387 223 L353 9 L353 8 C353 4 358 0 362 0 L420 0 C425 0 429 4 430 9 L464 223 L563 223 C568 223 571 227 572 232 L582 294 L582 295 C582 299 577 303 573 303 L477 303 L503 466 L602 466 C607 466 610 470 611 475 L621 537 Z M426 466 L400 303 L276 303 L302 466 L426 466 Z " />
<glyph glyph-name="dollar" unicode="&#x24;" horiz-adv-x="666" d="M611 212 C611 392 464 400 344 416 C248 429 147 449 147 551 C147 653 248 672 334 672 C443 672 531 646 551 642 L553 642 C558 642 566 646 568 651 L579 695 L579 699 C579 706 575 712 566 715 C548 721 474 743 380 748 L380 849 C380 858 373 864 365 864 L311 864 C303 864 297 858 297 849 L297 749 C174 741 60 695 60 544 C60 377 204 352 320 337 C433 323 525 309 525 205 C525 96 428 65 337 65 C228 65 126 93 106 97 L104 97 C99 97 90 93 89 88 L78 44 C78 43 77 41 77 40 C77 33 82 26 90 24 C111 18 192 -7 297 -11 L297 -110 C297 -119 303 -125 311 -125 L365 -125 C373 -125 380 -119 380 -110 L380 -8 C501 4 611 59 611 212 L611 212 Z " />
<glyph glyph-name="percent" unicode="&#x25;" horiz-adv-x="825" d="M806 177 C806 273 789 368 644 368 C499 368 482 273 482 177 C482 81 499 -13 644 -13 C789 -13 806 81 806 177 L806 177 Z M343 561 C343 657 326 752 182 752 C37 752 20 657 20 561 C20 465 37 371 182 371 C326 371 343 465 343 561 L343 561 Z M674 703 C675 705 676 707 676 709 C676 712 674 715 672 716 L638 739 C637 740 635 741 633 741 C631 741 628 740 626 737 L152 34 C151 32 150 30 150 29 C150 26 151 23 154 21 L187 -2 C189 -3 190 -3 192 -3 C195 -3 198 -2 199 0 L674 703 Z M738 177 C738 94 727 44 644 44 C561 44 550 94 550 177 C550 261 561 311 644 311 C727 311 738 261 738 177 L738 177 Z M275 562 C275 478 264 428 181 428 C99 428 88 478 88 562 C88 645 98 695 181 695 C264 695 275 645 275 562 L275 562 Z " />
<glyph glyph-name="ampersand" unicode="&#x26;" horiz-adv-x="720" d="M706 18 L697 59 C696 65 691 68 686 68 L683 68 C662 63 624 55 593 55 C541 55 515 67 515 122 L515 338 L667 348 C676 349 682 354 682 363 L682 397 C682 406 676 411 667 412 L515 421 L515 605 C515 611 512 618 505 618 L502 618 L442 604 C435 602 430 600 430 591 L430 411 C428 416 427 416 420 416 C353 421 289 426 243 441 C189 460 155 493 155 550 C155 648 229 674 330 674 C359 674 383 669 400 667 L406 667 C412 667 418 669 419 675 L426 720 C427 724 427 727 427 729 C427 736 425 739 417 741 C387 747 364 752 317 752 C155 752 68 682 68 560 C68 418 185 401 213 394 L213 369 C202 364 55 362 55 193 C55 37 186 -13 315 -13 C366 -13 398 -5 405 -3 C413 0 415 3 415 9 C415 12 415 14 414 18 L407 62 C406 69 400 70 394 70 L388 70 C371 68 356 64 320 64 C231 64 142 100 142 198 C142 273 184 307 246 324 C295 337 358 338 420 344 C426 344 428 345 430 350 L430 126 C430 30 477 -13 576 -13 C633 -13 676 -1 698 6 C702 7 706 12 706 17 L706 18 Z " />
<glyph glyph-name="quotesingle" unicode="&#x27;" horiz-adv-x="177" d="M129 730 C130 735 125 739 120 739 L58 739 C52 739 48 735 48 730 L48 488 C48 483 52 478 58 478 L106 478 C111 478 115 483 115 488 L129 730 Z " />
<glyph glyph-name="parenleft" unicode="&#x28;" horiz-adv-x="293" d="M248 -93 C173 27 146 193 146 336 C146 479 173 644 248 764 C250 766 250 768 250 771 C250 774 249 777 247 779 L208 813 C205 817 201 818 198 818 C193 818 188 813 182 804 C104 689 62 513 62 336 C62 158 104 -17 182 -133 C188 -142 193 -147 198 -147 C201 -147 205 -145 208 -142 L247 -107 C249 -105 250 -102 250 -99 C250 -97 250 -95 248 -93 L248 -93 Z " />
<glyph glyph-name="parenright" unicode="&#x29;" horiz-adv-x="293" d="M231 336 C231 513 189 689 112 804 C106 813 101 818 95 818 C92 818 89 817 85 813 L46 779 C44 777 43 774 43 771 C43 768 44 766 45 764 C120 644 147 479 147 336 C147 193 120 27 45 -93 C44 -95 43 -97 43 -99 C43 -102 44 -105 46 -107 L85 -142 C89 -145 92 -147 95 -147 C101 -147 106 -142 112 -133 C189 -17 231 158 231 336 L231 336 Z " />
<glyph glyph-name="asterisk" unicode="&#x2a;" horiz-adv-x="687" d="M542 533 L542 589 C542 594 539 599 534 599 L533 599 L387 589 L482 703 C483 705 484 707 484 710 C484 713 483 715 480 717 L436 751 C434 752 433 752 431 752 C428 752 424 750 423 748 L344 623 L264 748 C263 750 260 752 256 752 C255 752 253 752 252 751 L207 717 C205 715 203 713 203 710 C203 707 204 705 206 703 L301 589 L154 599 C149 599 145 594 145 589 L145 533 C145 528 149 524 154 524 L301 532 L207 418 C205 416 204 414 204 412 C204 409 206 406 208 404 L252 371 C254 369 255 369 257 369 C260 369 264 371 265 373 L344 499 L424 373 C425 371 429 369 432 369 C434 369 435 369 437 371 L481 404 C483 406 485 409 485 412 C485 414 484 416 482 418 L386 532 L533 524 L534 524 C539 524 542 528 542 533 L542 533 Z " />
<glyph glyph-name="plus" unicode="&#x2b;" horiz-adv-x="584" d="M528 303 L528 348 C528 356 521 362 513 362 L329 362 L329 547 C329 555 323 562 314 562 L269 562 C260 562 254 556 254 547 L254 362 L71 362 C62 362 55 356 55 347 L55 303 C55 294 61 288 70 288 L254 288 L254 104 C254 96 260 90 269 90 L315 90 C323 90 330 96 330 105 L329 288 L513 288 C522 288 528 294 528 303 L528 303 Z " />
<glyph glyph-name="comma" unicode="&#x2c;" horiz-adv-x="329" d="M219 90 L219 93 C219 101 212 102 206 102 L138 102 C126 102 124 99 123 89 L110 -102 L110 -104 C110 -113 117 -114 123 -114 L170 -114 C182 -114 183 -111 185 -101 L219 90 Z " />
<glyph glyph-name="hyphen" unicode="&#x2d;" horiz-adv-x="391" d="M341 251 L341 296 C341 305 335 311 326 311 L65 311 C56 311 50 305 50 296 L50 251 C50 242 56 236 65 236 L326 236 C335 236 341 242 341 251 L341 251 Z " />
<glyph glyph-name="period" unicode="&#x2e;" horiz-adv-x="329" d="M223 15 L223 79 C223 88 217 94 208 94 L121 94 C112 94 106 88 106 79 L106 15 C106 6 112 0 121 0 L208 0 C217 0 223 6 223 15 L223 15 Z " />
<glyph glyph-name="slash" unicode="&#x2f;" horiz-adv-x="349" d="M321 768 L321 771 C321 775 319 779 315 780 L257 793 C256 794 256 794 255 794 C251 794 247 791 246 787 L28 -27 L28 -30 C28 -34 30 -38 34 -39 L92 -52 C93 -53 93 -53 94 -53 C98 -53 102 -50 103 -46 L321 768 Z " />
<glyph glyph-name="zero" unicode="0" horiz-adv-x="729" d="M675 369 C675 562 642 752 365 752 C87 752 55 562 55 369 C55 176 87 -13 365 -13 C642 -13 675 176 675 369 L675 369 Z M584 370 C584 177 557 61 364 61 C172 61 146 177 146 370 C146 562 172 678 364 678 C557 678 584 563 584 370 L584 370 Z " />
<glyph glyph-name="one" unicode="1" horiz-adv-x="337" d="M237 742 C237 746 231 752 227 752 L226 752 L36 724 C27 723 20 720 20 711 L20 674 C20 666 27 662 36 661 L152 653 L152 16 C152 7 159 0 168 0 L221 0 C229 0 237 7 237 16 L237 742 Z " />
<glyph glyph-name="two" unicode="2" horiz-adv-x="646" d="M598 62 C598 71 591 78 582 78 L163 78 L163 98 L341 227 C450 305 568 387 568 517 C568 696 454 752 304 752 C171 752 82 721 67 715 C62 713 55 709 55 702 L55 699 L66 654 C68 645 74 642 80 642 L84 642 C118 651 188 675 296 675 C402 675 479 645 479 521 C479 407 333 322 254 262 C254 262 162 193 127 167 C91 141 78 121 78 74 L78 16 C78 7 85 0 94 0 L582 0 C591 0 598 7 598 16 L598 62 Z " />
<glyph glyph-name="three" unicode="3" horiz-adv-x="635" d="M580 193 C580 362 433 364 422 369 L422 394 C450 401 567 418 567 560 C567 682 480 752 318 752 C198 752 105 728 64 711 C57 708 54 704 54 698 C54 696 54 693 55 690 L67 645 C69 639 73 637 79 637 C81 637 83 637 86 638 C139 654 214 675 305 675 C406 675 480 648 480 550 C480 445 392 427 247 416 C238 416 231 413 231 404 L231 357 C231 348 239 344 247 344 C386 330 493 332 493 198 C493 100 404 63 315 63 C250 63 170 73 100 97 C97 97 95 98 92 98 C87 98 83 95 81 91 L67 43 C66 42 66 40 66 38 C66 32 70 28 78 25 C111 12 198 -13 320 -13 C449 -13 580 37 580 193 L580 193 Z " />
<glyph glyph-name="four" unicode="4" horiz-adv-x="714" d="M660 244 C660 252 653 260 644 260 L551 260 L551 723 C551 732 544 739 535 739 L402 739 C399 739 394 736 392 733 L58 267 C55 263 55 257 55 254 L55 200 C55 191 62 185 71 185 L465 185 L465 16 C465 7 473 0 481 0 L535 0 C543 0 551 7 551 16 L551 185 L644 185 C653 185 660 192 660 201 L660 244 Z M465 259 L138 259 L435 668 L465 668 L465 259 Z " />
<glyph glyph-name="five" unicode="5" horiz-adv-x="624" d="M569 222 C569 390 450 457 301 457 C236 457 142 431 142 431 L156 663 L523 663 C532 663 538 670 538 678 L538 723 C538 732 531 739 523 739 L92 739 C86 739 80 733 79 728 L55 361 L55 360 C55 353 60 350 63 347 C66 343 71 342 77 342 L84 342 C101 347 201 380 299 380 C449 380 483 290 483 224 C483 91 385 63 280 63 C176 63 107 78 83 84 L79 84 C73 84 71 80 70 75 L61 27 C61 26 60 24 60 23 C60 18 63 15 69 12 C84 6 173 -13 290 -13 C455 -13 569 60 569 222 L569 222 Z " />
<glyph glyph-name="six" unicode="6" horiz-adv-x="674" d="M619 230 C619 405 509 476 348 476 C252 476 141 437 141 437 C145 603 206 675 361 675 C434 675 481 669 550 654 L552 654 C556 654 560 657 561 662 L572 718 L572 720 C572 724 568 729 563 729 C563 729 487 752 375 752 C105 752 54 605 55 375 L55 367 C56 111 107 -13 340 -13 C507 -13 619 62 619 230 L619 230 Z M531 231 C531 113 469 61 341 61 C197 61 141 130 143 329 L143 365 C200 386 284 400 344 400 C458 400 531 351 531 231 L531 231 Z " />
<glyph glyph-name="seven" unicode="7" horiz-adv-x="602" d="M566 670 L566 723 C566 732 560 739 551 739 L36 739 C27 739 20 732 20 723 L20 678 C20 669 27 662 36 662 L479 662 C330 480 208 226 142 17 L142 14 C142 8 145 0 159 0 L215 0 C223 0 230 7 231 11 C307 232 377 410 560 647 C565 654 566 663 566 670 L566 670 Z " />
<glyph glyph-name="eight" unicode="8" horiz-adv-x="705" d="M650 202 C650 320 553 361 484 365 L484 393 C502 397 637 402 637 552 C637 709 494 752 352 752 C211 752 68 709 68 552 C68 402 203 398 221 394 L221 366 C152 362 55 320 55 202 C55 57 152 -13 352 -13 C553 -13 650 57 650 202 L650 202 Z M563 201 C563 98 492 61 354 61 C216 61 142 98 142 201 C142 313 249 342 351 342 C454 342 563 313 563 201 L563 201 Z M550 549 C550 444 448 417 351 417 C255 417 155 444 155 549 C155 645 224 678 354 678 C483 678 550 645 550 549 L550 549 Z " />
<glyph glyph-name="nine" unicode="9" horiz-adv-x="674" d="M619 371 C618 607 577 752 334 752 C167 752 55 677 55 508 C55 334 165 263 325 263 C428 263 532 302 532 302 C529 136 478 63 323 63 C250 63 207 69 138 84 L136 84 C131 84 127 81 126 76 L115 21 L115 19 C115 15 120 10 124 10 C124 10 197 -13 309 -13 C521 -13 618 72 618 333 C618 344 619 356 619 368 L619 371 Z M531 410 L531 374 C474 353 390 339 330 339 C216 339 143 388 143 508 C143 626 204 678 332 678 C477 678 532 609 531 410 L531 410 Z " />
<glyph glyph-name="colon" unicode="&#x3a;" horiz-adv-x="329" d="M223 446 L223 510 C223 519 217 525 208 525 L121 525 C112 525 106 519 106 510 L106 446 C106 437 112 431 121 431 L208 431 C217 431 223 437 223 446 L223 446 Z M223 15 L223 79 C223 88 217 94 208 94 L121 94 C112 94 106 88 106 79 L106 15 C106 6 112 0 121 0 L208 0 C217 0 223 6 223 15 L223 15 Z " />
<glyph glyph-name="semicolon" unicode="&#x3b;" horiz-adv-x="329" d="M215 90 L215 93 C215 101 208 102 201 102 L133 102 C122 102 120 99 119 89 L106 -102 L106 -104 C105 -113 112 -114 119 -114 L166 -114 C178 -114 179 -111 181 -101 L215 90 Z M223 446 L223 510 C223 519 218 525 209 525 L121 525 C113 525 106 519 106 510 L106 446 C106 437 113 431 121 431 L209 431 C218 431 223 437 223 446 L223 446 Z " />
<glyph glyph-name="less" unicode="&#x3c;" horiz-adv-x="584" d="M525 106 C526 107 526 109 526 110 C526 114 525 116 521 118 L138 316 L521 514 C525 516 526 518 526 522 C526 523 526 525 525 526 L501 577 C499 580 496 581 493 581 C491 581 489 581 488 580 L64 354 C60 352 59 349 59 344 L59 285 C59 282 61 278 64 276 L488 52 C489 51 491 51 493 51 C496 51 499 52 501 55 L525 106 Z " />
<glyph glyph-name="equal" unicode="&#x3d;" horiz-adv-x="584" d="M509 421 C509 430 503 436 494 436 L90 436 C81 436 75 430 75 421 L75 373 C75 364 82 358 90 358 L494 358 C502 358 509 364 509 373 L509 421 Z M509 265 C509 274 503 280 494 280 L90 280 C81 280 75 274 75 265 L75 217 C75 208 82 202 90 202 L494 202 C502 202 509 208 509 217 L509 265 Z " />
<glyph glyph-name="greater" unicode="&#x3e;" horiz-adv-x="584" d="M525 286 L525 344 C525 349 524 352 520 354 L97 580 C95 581 93 581 91 581 C88 581 85 580 83 577 L59 526 C58 525 58 523 58 522 C58 518 59 516 63 514 L446 316 L63 118 C59 116 58 114 58 110 C58 109 58 107 59 106 L83 55 C85 52 88 51 91 51 C93 51 95 51 97 52 L520 276 C523 278 525 282 525 286 L525 286 Z " />
<glyph glyph-name="question" unicode="&#x3f;" horiz-adv-x="584" d="M513 578 C513 700 422 752 280 752 C191 752 94 725 81 720 C73 717 70 713 70 708 C70 707 70 706 71 704 L82 658 C84 649 87 647 91 647 C94 647 98 648 103 649 C120 653 199 675 278 675 C342 675 425 663 425 581 C425 516 355 480 336 466 C261 412 211 397 211 285 C211 259 216 234 218 224 C221 212 224 211 233 211 L284 211 C295 211 301 214 301 223 L301 225 C298 247 295 256 295 291 C295 360 365 386 403 413 C426 430 513 475 513 578 L513 578 Z M306 15 L306 127 C306 137 301 142 291 142 L231 142 C222 142 216 137 216 127 L216 15 C216 5 222 0 231 0 L291 0 C301 0 306 5 306 15 L306 15 Z " />
<glyph glyph-name="at" unicode="&#x40;" horiz-adv-x="883" d="M823 368 C823 627 743 752 442 752 C141 752 60 627 60 368 C60 110 141 -13 442 -13 C478 -13 513 -10 543 -7 C550 -6 556 -2 556 6 L556 48 C556 54 551 61 544 61 L543 61 C513 59 478 54 441 54 C185 54 130 147 130 368 C130 483 145 562 193 613 C239 662 315 685 441 685 C569 685 646 661 692 611 C739 560 753 480 753 368 C753 333 750 301 748 271 L748 270 C748 264 753 257 761 257 L805 257 C813 257 818 263 818 269 C821 300 823 333 823 368 L823 368 Z M618 243 L618 466 C618 508 618 546 575 570 C551 583 514 591 457 591 C385 591 317 576 291 566 C287 565 280 561 280 553 L280 550 L287 515 C289 508 294 506 299 506 L305 506 C355 518 397 529 450 529 C485 529 507 526 521 520 C546 510 547 493 547 467 L547 433 L401 409 C369 404 328 400 301 381 C275 364 260 335 260 281 C260 148 379 146 446 146 C488 146 526 152 549 158 C606 171 618 186 618 243 L618 243 Z M548 218 C516 208 480 204 446 204 C394 204 333 209 333 284 C333 341 364 344 407 351 L548 375 L548 218 Z " />
<glyph glyph-name="A" unicode="A" horiz-adv-x="697" d="M684 19 L430 726 C428 733 418 739 412 739 L289 739 C284 739 273 733 271 726 L13 19 C12 17 11 14 11 11 C11 5 15 0 22 0 L84 0 C89 0 97 3 99 8 L204 314 L490 314 L598 10 C599 5 607 0 612 0 L674 0 C681 0 685 5 685 12 C685 14 684 17 684 19 L684 19 Z M467 387 L227 387 L326 669 L366 669 L467 387 Z " />
<glyph glyph-name="B" unicode="B" horiz-adv-x="712" d="M667 193 C667 309 616 358 519 370 L519 397 C594 413 643 454 643 558 C643 680 582 739 431 739 L106 739 C97 739 90 732 90 723 L90 16 C90 7 97 0 106 0 L418 0 C578 0 667 59 667 193 L667 193 Z M580 202 C580 130 544 73 427 73 L175 73 L175 347 L421 341 C541 338 580 296 580 202 L580 202 Z M557 543 C557 453 506 424 419 420 L175 411 L175 666 L431 666 C520 666 557 624 557 543 L557 543 Z " />
<glyph glyph-name="C" unicode="C" horiz-adv-x="653" d="M614 52 L605 89 C603 98 598 101 592 101 C589 101 585 101 581 100 C533 86 459 70 375 70 C187 70 143 164 143 372 C143 580 187 672 375 672 C459 672 533 654 581 641 C585 640 589 639 592 639 C598 639 603 642 605 652 L614 690 C614 690 615 693 615 696 C615 701 612 708 599 712 C555 726 481 748 370 748 C123 748 55 614 55 371 C55 128 123 -7 370 -7 C481 -7 555 15 599 29 C612 33 615 40 615 45 C615 48 614 51 614 52 L614 52 Z " />
<glyph glyph-name="D" unicode="D" horiz-adv-x="768" d="M713 370 C713 692 588 739 372 739 L106 739 C97 739 90 732 90 723 L90 16 C90 7 97 0 106 0 L372 0 C588 0 713 47 713 370 L713 370 Z M626 372 C626 105 539 74 360 74 L175 74 L175 666 L360 666 C539 666 626 639 626 372 L626 372 Z " />
<glyph glyph-name="E" unicode="E" horiz-adv-x="627" d="M572 16 L572 59 C572 68 565 75 557 75 L175 75 L175 348 L542 348 C551 348 557 355 557 364 L557 408 C557 417 551 424 542 424 L175 424 L175 664 L556 664 C565 664 572 671 572 680 L572 723 C572 732 565 739 556 739 L106 739 C98 739 90 732 90 723 L90 16 C90 7 97 0 106 0 L557 0 C565 0 572 7 572 16 L572 16 Z " />
<glyph glyph-name="F" unicode="F" horiz-adv-x="574" d="M550 678 L550 723 C550 732 543 739 534 739 L106 739 C97 739 90 732 90 723 L90 16 C90 7 97 0 106 0 L159 0 C168 0 175 7 175 16 L175 295 L503 295 C511 295 518 303 518 311 L518 358 C518 367 511 374 503 374 L175 374 L175 662 L535 662 C543 662 550 669 550 678 L550 678 Z " />
<glyph glyph-name="G" unicode="G" horiz-adv-x="733" d="M663 686 C664 690 664 693 664 695 C664 704 659 707 649 711 C635 717 527 752 389 752 C119 752 55 615 55 369 C55 83 148 -13 409 -13 C451 -13 557 -5 609 15 C652 31 656 56 656 112 L656 411 C656 420 653 424 644 424 L437 424 C432 424 427 420 427 415 L427 363 C427 358 431 355 436 354 L571 339 L571 79 C571 79 496 61 411 61 C191 61 142 144 142 369 C142 585 188 676 390 676 C504 676 584 649 630 638 C634 637 637 637 641 637 C648 637 652 640 654 648 L663 686 Z " />
<glyph glyph-name="H" unicode="H" horiz-adv-x="789" d="M699 16 L699 739 C699 745 696 752 689 752 L686 752 L626 742 C619 740 614 737 614 729 L614 422 L175 422 L175 739 C175 745 172 752 165 752 L162 752 L102 742 C95 740 90 737 90 729 L90 16 C90 7 97 0 106 0 L159 0 C168 0 175 7 175 16 L175 344 L614 344 L614 16 C614 7 621 0 630 0 L683 0 C692 0 699 7 699 16 L699 16 Z " />
<glyph glyph-name="I" unicode="I" horiz-adv-x="265" d="M175 16 L175 739 C175 745 172 752 165 752 L162 752 L102 742 C95 740 90 737 90 729 L90 16 C90 7 97 0 106 0 L159 0 C168 0 175 7 175 16 L175 16 Z " />
<glyph glyph-name="J" unicode="J" horiz-adv-x="270" d="M180 -45 L180 739 C180 745 178 752 170 752 L168 752 L108 742 C100 740 95 737 95 729 L95 -42 C95 -110 63 -121 -5 -122 C-26 -123 -53 -125 -53 -125 L-55 -124 C-59 -124 -65 -126 -65 -139 L-65 -174 C-65 -187 -54 -187 -50 -187 C-36 -189 -27 -190 16 -190 C124 -190 180 -151 180 -45 L180 -45 Z " />
<glyph glyph-name="K" unicode="K" horiz-adv-x="633" d="M625 14 L282 381 L599 723 C600 724 601 726 601 727 C601 732 596 737 591 737 L511 739 C507 739 501 735 499 733 L212 416 L175 416 L175 723 C175 732 168 739 159 739 L106 739 C97 739 90 732 90 723 L90 16 C90 7 97 0 106 0 L159 0 C168 0 175 7 175 16 L175 338 L212 338 L513 6 C515 4 521 0 525 0 L617 0 C622 0 627 5 627 10 C627 11 626 13 625 14 L625 14 Z " />
<glyph glyph-name="L" unicode="L" horiz-adv-x="572" d="M557 16 L557 62 C557 71 551 78 542 78 L175 78 L175 739 C175 745 172 752 165 752 L162 752 L102 742 C95 740 90 737 90 729 L90 16 C90 7 97 0 106 0 L542 0 C551 0 557 7 557 16 L557 16 Z " />
<glyph glyph-name="M" unicode="M" horiz-adv-x="983" d="M908 16 L848 723 C847 732 841 739 832 739 L677 739 C668 739 661 731 658 723 L487 214 L324 723 C322 731 314 739 305 739 L149 739 C140 739 134 732 133 723 L75 16 L75 15 C75 6 83 0 91 0 L140 0 C149 0 155 7 156 16 L214 668 L251 668 L425 159 C427 151 435 143 444 143 L527 143 C536 143 543 151 546 159 L726 668 L763 668 L823 16 C824 7 831 0 839 0 L892 0 C900 0 909 6 908 14 L908 16 Z " />
<glyph glyph-name="N" unicode="N" horiz-adv-x="827" d="M737 16 L737 726 C737 733 734 739 723 739 L665 739 C657 739 652 735 652 726 L652 66 L644 66 L277 723 C273 731 267 739 258 739 L106 739 C97 739 90 732 90 723 L90 16 C90 7 97 0 106 0 L159 0 C168 0 175 7 175 16 L175 669 L211 669 L581 16 C585 8 591 0 600 0 L721 0 C730 0 737 7 737 16 L737 16 Z " />
<glyph glyph-name="O" unicode="O" horiz-adv-x="769" d="M714 370 C714 591 665 752 385 752 C104 752 55 591 55 370 C55 148 104 -13 385 -13 C665 -13 714 148 714 370 L714 370 Z M626 370 C626 184 606 63 384 63 C162 63 144 183 144 369 C144 555 162 676 384 676 C606 676 626 556 626 370 L626 370 Z " />
<glyph glyph-name="P" unicode="P" horiz-adv-x="694" d="M653 520 C653 600 634 652 602 684 C558 730 490 739 420 739 L106 739 C97 739 90 732 90 723 L90 16 C90 7 97 0 106 0 L159 0 C168 0 175 7 175 16 L175 296 L342 294 C357 294 372 293 389 293 C462 293 547 300 600 352 C644 397 653 461 653 520 L653 520 Z M566 519 C566 459 552 423 527 402 C488 368 423 368 344 365 L175 359 L175 666 L404 666 C456 666 501 660 530 632 C553 610 566 575 566 519 L566 519 Z " />
<glyph glyph-name="Q" unicode="Q" horiz-adv-x="769" d="M714 370 C714 591 665 752 385 752 C104 752 55 591 55 370 C55 162 99 7 336 -11 L350 -57 C378 -151 409 -190 516 -190 L611 -190 C620 -190 627 -183 627 -174 L627 -123 C627 -114 620 -108 611 -108 L443 -108 L418 -12 C668 1 714 158 714 370 L714 370 Z M626 370 C626 184 606 63 384 63 C162 63 144 183 144 369 C144 555 162 676 384 676 C606 676 626 556 626 370 L626 370 Z " />
<glyph glyph-name="R" unicode="R" horiz-adv-x="729" d="M669 16 L662 154 C654 312 569 321 498 330 L498 356 C617 371 655 429 655 534 C655 685 571 739 426 739 L106 739 C97 739 90 732 90 723 L90 16 C90 7 97 0 106 0 L159 0 C168 0 175 7 175 16 L175 307 L397 302 C517 299 568 255 574 162 L583 14 C584 4 588 0 599 0 L655 0 C663 0 669 8 669 15 L669 16 Z M568 521 C568 401 486 384 387 380 L175 373 L175 666 L435 666 C532 666 568 616 568 521 L568 521 Z " />
<glyph glyph-name="S" unicode="S" horiz-adv-x="657" d="M602 212 C602 392 461 400 341 416 C245 429 144 449 144 551 C144 653 245 672 331 672 C440 672 528 646 548 642 L550 642 C555 642 563 646 565 651 L576 695 L576 699 C576 706 572 712 563 715 C542 722 451 750 334 750 C198 750 60 711 60 544 C60 377 201 352 317 337 C430 323 516 309 516 205 C516 96 419 65 328 65 C219 65 117 93 97 97 L95 97 C90 97 81 93 80 88 L69 44 C69 43 68 41 68 40 C68 33 73 26 81 24 C103 17 194 -11 311 -11 C455 -11 602 34 602 212 L602 212 Z " />
<glyph glyph-name="T" unicode="T" horiz-adv-x="611" d="M607 680 L607 723 C607 732 600 739 591 739 L20 739 C11 739 4 732 4 723 L4 680 C4 671 11 664 20 664 L263 664 L263 16 C263 7 270 0 279 0 L332 0 C341 0 348 7 348 16 L348 664 L591 664 C600 664 607 671 607 680 L607 680 Z " />
<glyph glyph-name="U" unicode="U" horiz-adv-x="750" d="M670 271 L670 739 C670 745 667 752 660 752 L657 752 L597 742 C590 740 585 737 585 729 L585 240 C585 111 516 63 375 63 C202 63 165 134 165 258 L165 739 C165 745 162 752 155 752 L152 752 L92 742 C85 740 80 737 80 729 L80 265 C80 92 142 -13 375 -13 C640 -13 670 126 670 271 L670 271 Z " />
<glyph glyph-name="V" unicode="V" horiz-adv-x="677" d="M663 722 L663 727 C663 733 659 739 653 739 L587 739 C580 739 573 736 571 730 L362 71 L325 71 L107 730 C104 736 98 739 91 739 L25 739 C19 739 14 733 14 727 C14 725 14 724 15 722 L262 16 C265 7 272 0 281 0 L406 0 C415 0 422 7 425 16 L663 722 Z " />
<glyph glyph-name="W" unicode="W" horiz-adv-x="997" d="M967 722 L967 726 C967 733 964 739 958 739 L892 739 C885 739 877 737 876 730 L756 73 L720 73 L562 663 C560 672 552 679 543 679 L452 679 C443 679 435 672 433 663 L276 73 L240 73 L121 730 C120 737 112 739 105 739 L40 739 C33 739 30 733 30 726 L30 722 L176 16 C178 7 186 0 195 0 L324 0 C333 0 341 7 343 16 L497 608 L651 16 C653 7 661 0 670 0 L802 0 C811 0 819 7 821 16 L967 722 Z " />
<glyph glyph-name="X" unicode="X" horiz-adv-x="663" d="M660 17 L403 388 L633 722 C635 724 635 726 635 727 C635 733 630 739 624 739 L554 739 C547 739 542 737 538 731 L336 429 L131 730 C127 736 122 739 115 739 L44 739 C38 739 33 733 33 727 C33 726 33 724 34 722 L270 388 L4 16 C3 15 2 13 2 11 C2 6 7 0 13 0 L87 0 C93 0 98 3 100 7 L336 345 L567 7 C569 4 575 0 581 0 L650 0 C656 0 661 6 661 12 C661 14 661 15 660 17 L660 17 Z " />
<glyph glyph-name="Y" unicode="Y" horiz-adv-x="618" d="M623 722 C624 724 625 726 625 727 C625 733 619 739 614 739 L544 739 C537 739 533 737 529 731 L311 380 L90 730 C86 736 81 739 74 739 L5 739 C-1 739 -7 733 -7 727 C-7 726 -6 724 -5 722 L265 307 L265 16 C265 7 273 0 281 0 L334 0 C343 0 350 7 350 16 L350 306 L623 722 Z " />
<glyph glyph-name="Z" unicode="Z" horiz-adv-x="633" d="M593 59 C593 68 587 75 578 75 L145 75 L576 650 C581 658 584 661 584 673 L584 723 C584 732 577 739 569 739 L55 739 C47 739 40 732 40 723 L40 680 C40 671 47 664 55 664 L479 664 L54 88 C47 78 43 78 43 59 L43 16 C43 7 49 0 58 0 L578 0 C587 0 593 7 593 16 L593 59 Z " />
<glyph glyph-name="bracketleft" unicode="&#x5b;" horiz-adv-x="299" d="M237 -97 C238 -95 238 -94 238 -92 C238 -89 236 -87 233 -86 L153 -50 L153 721 L232 756 C236 758 238 761 238 765 C238 766 237 767 237 768 L219 812 C217 815 215 818 211 818 C210 818 209 817 208 817 L84 778 C79 777 75 770 75 764 L75 -93 C75 -99 79 -106 84 -108 L209 -146 C210 -147 211 -147 212 -147 C215 -147 217 -145 219 -141 L237 -97 Z " />
<glyph glyph-name="backslash" unicode="&#x5c;" horiz-adv-x="276" d="M327 -87 L21 807 C20 811 16 813 13 813 L10 813 L-45 795 C-49 793 -51 790 -51 786 C-51 785 -50 784 -50 782 L255 -112 C257 -115 260 -118 264 -118 L267 -118 L321 -99 C325 -98 327 -94 327 -91 L327 -87 Z " />
<glyph glyph-name="bracketright" unicode="&#x5d;" horiz-adv-x="299" d="M224 -93 L224 764 C224 769 220 777 215 779 L91 817 C90 817 89 818 88 818 C84 818 82 815 80 812 L62 768 C61 767 61 766 61 765 C61 761 63 758 67 756 L146 721 L146 -50 L66 -86 C63 -87 61 -89 61 -92 C61 -94 61 -95 62 -97 L80 -141 C82 -145 84 -147 87 -147 C88 -147 89 -147 90 -146 L215 -108 C220 -106 224 -99 224 -93 L224 -93 Z " />
<glyph glyph-name="asciicircum" unicode="&#x5e;" horiz-adv-x="584" d="M538 323 L331 733 C330 736 325 739 321 739 L263 739 C259 739 254 736 253 733 L46 323 C45 321 44 319 44 317 C44 314 46 311 49 309 L95 286 C97 286 98 285 100 285 C103 285 107 287 109 290 L291 662 L475 290 C477 287 481 285 484 285 C486 285 487 286 489 286 L535 309 C538 311 540 314 540 317 C540 319 539 321 538 323 L538 323 Z " />
<glyph glyph-name="underscore" unicode="&#x5f;" horiz-adv-x="500" d="M500 -125 L500 -75 L0 -75 L0 -125 L500 -125 Z " />
<glyph glyph-name="grave" unicode="&#x60;" horiz-adv-x="331" d="M256 637 C257 638 257 640 257 642 C257 645 256 647 254 649 L119 750 C118 751 116 752 114 752 C112 752 109 751 107 748 L75 708 C74 707 73 705 73 703 C73 701 74 698 77 696 L213 597 C214 596 216 595 218 595 C220 595 223 597 225 599 L256 637 Z " />
<glyph glyph-name="a" unicode="a" horiz-adv-x="551" d="M486 104 L486 391 C486 438 485 485 434 512 C405 528 359 538 288 538 C197 538 111 519 79 507 C76 506 69 503 69 495 L69 493 L78 448 C80 442 84 440 88 440 C90 440 92 441 94 441 C135 451 202 470 279 470 C323 470 351 466 370 458 C405 445 406 419 406 387 L406 340 L217 309 C118 293 44 286 44 152 C44 -10 187 -13 273 -13 C326 -13 374 -5 403 1 C472 18 486 34 486 104 L486 104 Z M407 69 C365 55 318 49 274 49 C208 49 126 56 126 156 C126 235 175 237 223 246 L407 277 L407 69 Z " />
<glyph glyph-name="b" unicode="b" horiz-adv-x="569" d="M525 264 C525 453 479 538 313 538 C237 538 139 509 139 509 L149 566 L149 739 C149 745 146 752 139 752 L136 752 L82 738 C75 737 70 734 70 726 L70 89 C70 52 72 27 122 10 C155 -1 220 -13 291 -13 C472 -13 525 69 525 264 L525 264 Z M443 262 C443 104 404 50 289 50 C204 50 149 68 149 68 L149 449 C149 449 238 473 300 473 C415 473 443 423 443 262 L443 262 Z " />
<glyph glyph-name="c" unicode="c" horiz-adv-x="478" d="M443 31 L436 63 C434 71 431 75 424 75 C423 75 421 74 418 74 C397 68 337 52 284 52 C164 52 126 103 126 263 C126 422 164 473 284 473 C337 473 397 455 418 449 C421 449 423 448 424 448 C431 448 434 452 436 460 L443 494 C443 495 444 497 444 499 C444 508 437 510 434 512 C409 523 339 538 280 538 C93 538 44 450 44 262 C44 75 93 -13 280 -13 C339 -13 409 2 434 13 C437 15 444 17 444 26 C444 28 443 29 443 31 L443 31 Z " />
<glyph glyph-name="d" unicode="d" horiz-adv-x="569" d="M499 86 L499 739 C499 745 497 752 490 752 L487 752 L433 738 C425 737 420 734 420 726 L420 576 L430 518 C396 527 346 538 277 538 C97 538 44 455 44 263 C44 75 89 -13 283 -13 C362 -13 404 -1 436 7 C499 21 499 49 499 86 L499 86 Z M420 69 C420 69 360 50 286 50 C184 50 126 72 126 262 C126 440 175 475 285 475 C357 475 420 457 420 457 L420 69 Z " />
<glyph glyph-name="e" unicode="e" horiz-adv-x="556" d="M507 273 C507 342 501 404 475 449 C442 506 381 538 276 538 C78 538 44 431 44 262 C44 78 102 -13 298 -13 C364 -13 430 0 470 16 C476 19 480 22 480 27 L480 31 L469 69 C467 75 463 78 459 78 C457 78 455 77 453 76 C406 63 368 51 306 51 C236 51 187 62 158 99 C137 125 127 156 127 211 L494 211 C499 211 506 219 507 224 L507 273 Z M424 278 L126 277 C127 314 128 353 138 390 C155 454 194 475 274 475 C355 475 394 454 412 390 C421 353 423 316 424 278 L424 278 Z " />
<glyph glyph-name="f" unicode="f" horiz-adv-x="352" d="M377 723 L377 724 C377 731 371 735 364 737 C341 742 299 752 246 752 C148 752 101 709 101 613 L101 525 L23 525 C14 525 8 519 8 510 L8 476 C8 467 14 461 23 461 L101 461 L101 15 C101 6 107 0 116 0 L166 0 C175 0 180 6 180 15 L180 461 L328 461 C337 461 343 467 343 476 L343 510 C343 519 337 525 328 525 L180 525 L180 621 C180 648 187 664 200 674 C214 685 235 688 262 688 C301 688 338 681 358 677 C366 677 371 680 372 688 L377 723 Z " />
<glyph glyph-name="g" unicode="g" horiz-adv-x="574" d="M571 488 L552 538 C551 542 549 544 547 544 C545 544 542 542 539 541 C525 534 505 525 487 520 C473 516 456 513 441 513 C427 513 415 515 404 517 C366 528 341 538 279 538 C150 538 60 492 60 355 C60 234 126 221 173 206 C96 194 63 179 63 118 C63 47 102 42 147 32 L147 21 C98 11 45 -4 45 -82 C45 -183 121 -216 287 -216 C430 -216 530 -175 530 -51 C530 38 462 67 366 67 L215 67 C171 67 142 78 142 120 C142 146 154 172 206 172 L280 172 C412 172 500 213 500 355 C500 426 457 462 457 462 C480 458 481 457 497 457 C521 457 546 463 568 478 C571 481 573 482 573 484 C573 485 572 486 571 488 L571 488 Z M421 355 C421 263 366 234 280 234 C193 234 139 263 139 355 C139 448 193 478 280 478 C366 478 421 448 421 355 L421 355 Z M451 -63 C451 -145 350 -154 288 -154 C196 -154 124 -145 124 -76 C124 -16 171 0 222 0 L357 0 C401 0 451 -5 451 -63 L451 -63 Z " />
<glyph glyph-name="h" unicode="h" horiz-adv-x="575" d="M510 15 L510 394 C510 501 457 538 338 538 C280 538 194 524 139 508 L149 566 L149 739 C149 745 146 752 139 752 L136 752 L82 738 C75 737 70 734 70 726 L70 15 C70 6 76 0 85 0 L135 0 C144 0 149 6 149 15 L149 446 C149 446 243 474 336 474 C406 474 431 451 431 385 L431 15 C431 6 437 0 446 0 L495 0 C505 0 510 6 510 15 L510 15 Z " />
<glyph glyph-name="i" unicode="i" horiz-adv-x="249" d="M164 15 L164 510 C164 519 158 525 149 525 L100 525 C91 525 85 519 85 510 L85 15 C85 6 91 0 100 0 L149 0 C158 0 164 6 164 15 L164 15 Z M164 629 L164 737 C164 746 158 752 149 752 L100 752 C91 752 85 746 85 737 L85 629 C85 621 91 615 100 615 L149 615 C158 615 164 621 164 629 L164 629 Z " />
<glyph glyph-name="j" unicode="j" horiz-adv-x="239" d="M159 -76 L159 510 C159 519 154 525 145 525 L95 525 C87 525 80 519 80 510 L80 -71 C80 -135 52 -146 -13 -146 C-32 -146 -52 -145 -52 -145 C-57 -145 -65 -147 -65 -161 L-65 -194 C-65 -205 -53 -207 -49 -207 C-36 -209 -33 -210 7 -210 C107 -210 159 -174 159 -76 L159 -76 Z M159 629 L159 737 C159 746 154 752 145 752 L95 752 C86 752 80 746 80 737 L80 629 C80 621 86 615 95 615 L145 615 C154 615 159 621 159 629 L159 629 Z " />
<glyph glyph-name="k" unicode="k" horiz-adv-x="513" d="M497 14 L260 268 L480 509 C481 510 482 512 482 514 C482 519 477 523 472 523 L400 525 C396 525 394 523 392 520 L190 292 L149 292 L149 739 C149 745 146 752 139 752 L136 752 L82 738 C75 737 70 734 70 726 L70 15 C70 6 76 0 85 0 L135 0 C144 0 149 6 149 15 L149 232 L190 232 L398 5 C400 2 402 0 406 0 L489 0 C494 0 499 4 499 9 C499 11 498 13 497 14 L497 14 Z " />
<glyph glyph-name="l" unicode="l" horiz-adv-x="268" d="M248 16 L241 51 C240 57 237 58 234 58 L229 58 C224 56 208 54 194 54 C174 54 149 59 149 95 L149 739 C149 745 146 752 139 752 L136 752 L82 738 C75 737 70 734 70 726 L70 93 C70 19 110 -10 170 -10 C206 -10 233 -2 241 2 C244 3 249 5 249 12 C249 13 248 14 248 16 L248 16 Z " />
<glyph glyph-name="m" unicode="m" horiz-adv-x="935" d="M871 15 L871 394 C871 501 818 538 699 538 C638 538 530 522 474 500 C446 526 401 538 338 538 C274 538 174 523 122 505 C72 488 70 470 70 430 L70 15 C70 6 76 0 85 0 L135 0 C144 0 149 6 149 15 L149 446 C149 446 243 474 336 474 C406 474 431 451 431 385 L431 15 C431 6 437 0 446 0 L495 0 C505 0 509 5 509 15 L509 446 C509 446 604 474 697 474 C767 474 791 451 791 385 L791 15 C791 6 797 0 807 0 L856 0 C865 0 871 6 871 15 L871 15 Z " />
<glyph glyph-name="n" unicode="n" horiz-adv-x="575" d="M510 15 L510 394 C510 501 457 538 338 538 C274 538 174 523 122 505 C72 488 70 470 70 430 L70 15 C70 6 76 0 85 0 L135 0 C144 0 149 6 149 15 L149 446 C149 446 243 474 336 474 C406 474 431 451 431 385 L431 15 C431 6 437 0 446 0 L495 0 C504 0 510 6 510 15 L510 15 Z " />
<glyph glyph-name="o" unicode="o" horiz-adv-x="556" d="M512 262 C512 413 488 538 278 538 C69 538 44 413 44 262 C44 112 69 -13 278 -13 C488 -13 512 112 512 262 L512 262 Z M429 262 C429 136 423 51 278 51 C133 51 127 136 127 262 C127 389 133 474 278 474 C423 474 429 389 429 262 L429 262 Z " />
<glyph glyph-name="p" unicode="p" horiz-adv-x="569" d="M525 262 C525 426 496 538 316 538 C251 538 174 524 122 505 C72 487 70 469 70 428 L70 -197 C70 -203 73 -210 80 -210 L83 -210 L137 -197 C144 -195 149 -192 149 -184 L149 -53 L138 6 C174 -4 230 -13 290 -13 C472 -13 525 68 525 262 L525 262 Z M443 260 C443 102 404 49 289 49 C204 49 149 68 149 68 L149 449 C149 449 235 473 295 473 C392 473 443 450 443 260 L443 260 Z " />
<glyph glyph-name="q" unicode="q" horiz-adv-x="569" d="M499 -184 L499 442 C499 489 484 505 437 517 C404 525 351 538 277 538 C97 538 44 454 44 262 C44 74 89 -13 283 -13 C357 -13 399 -2 431 6 L420 -52 L420 -197 C420 -203 423 -210 430 -210 L433 -210 L487 -197 C494 -195 499 -192 499 -184 L499 -184 Z M420 69 C420 69 360 50 286 50 C184 50 126 71 126 261 C126 440 175 474 285 474 C357 474 420 457 420 457 L420 69 Z " />
<glyph glyph-name="r" unicode="r" horiz-adv-x="339" d="M334 480 L334 523 C334 536 325 538 320 538 L295 538 C247 538 157 525 113 505 C79 489 70 476 70 432 L70 15 C70 6 85 0 85 0 L135 0 C144 0 149 6 149 15 L149 449 C205 463 259 468 325 468 C332 468 334 473 334 480 L334 480 Z " />
<glyph glyph-name="s" unicode="s" horiz-adv-x="485" d="M446 149 C446 285 349 292 259 304 C197 312 129 320 129 388 C129 451 189 471 261 471 C320 471 394 453 408 452 L410 452 C414 452 418 454 419 460 L426 504 L426 506 C426 511 423 516 416 517 C405 520 339 538 253 538 C165 538 50 511 50 382 C50 250 175 241 224 233 C302 221 366 224 366 141 C366 80 317 53 232 53 C150 53 79 79 71 82 L66 82 C59 82 56 78 55 73 L45 34 L45 31 C45 25 49 23 53 21 C66 16 142 -13 230 -13 C346 -13 446 19 446 149 L446 149 Z " />
<glyph glyph-name="t" unicode="t" horiz-adv-x="360" d="M346 18 L337 55 C335 61 331 64 326 64 L323 64 C302 59 262 51 231 51 C179 51 149 63 149 118 L149 461 L317 461 C326 461 332 467 332 476 L332 510 C332 519 326 525 317 525 L149 525 L149 689 C149 695 146 702 139 702 L136 702 L82 688 C75 687 70 684 70 676 L70 126 C70 30 117 -13 216 -13 C273 -13 316 -1 338 6 C342 7 346 12 346 16 L346 18 Z " />
<glyph glyph-name="u" unicode="u" horiz-adv-x="569" d="M505 196 L505 525 C505 531 502 538 495 538 L492 538 L438 525 C431 523 425 520 425 512 L425 189 C425 114 415 50 285 50 C177 50 144 92 144 186 L144 525 C144 531 142 538 135 538 L132 538 L78 525 C70 523 65 520 65 512 L65 194 C65 62 109 -13 285 -13 C491 -13 505 97 505 196 L505 196 Z " />
<glyph glyph-name="v" unicode="v" horiz-adv-x="511" d="M491 510 L491 513 C491 520 486 525 479 525 L417 525 C407 525 402 519 400 512 L272 58 L246 58 L104 512 C102 519 99 525 89 525 L29 525 C23 525 19 519 19 512 C19 511 19 509 20 507 L186 16 C189 6 197 0 207 0 L312 0 C321 0 329 6 332 16 L491 510 Z " />
<glyph glyph-name="w" unicode="w" horiz-adv-x="796" d="M776 509 L776 513 C776 519 771 525 764 525 L705 525 C696 525 692 519 691 512 L589 58 L563 58 L464 489 C461 499 453 505 443 505 L352 505 C342 505 333 499 331 489 L230 58 L204 58 L103 512 C102 519 98 525 88 525 L29 525 C23 525 19 519 19 512 C19 510 20 509 20 507 L142 16 C145 6 153 0 163 0 L273 0 C283 0 291 6 294 16 L396 445 L398 445 L496 16 C498 6 507 0 516 0 L627 0 C637 0 646 6 648 16 L776 509 Z " />
<glyph glyph-name="x" unicode="x" horiz-adv-x="505" d="M485 20 L300 275 L472 506 C474 508 475 511 475 513 C475 519 471 525 466 525 L396 525 C387 525 382 518 378 512 L253 323 L129 512 C125 518 120 525 110 525 L40 525 C35 525 32 519 32 514 C32 511 32 508 34 506 L202 272 L20 20 C18 18 17 15 17 12 C17 5 21 0 28 0 L95 0 C100 0 106 4 109 8 L253 222 L396 8 C399 4 406 0 411 0 L477 0 C483 0 488 5 488 12 C488 15 487 18 485 20 L485 20 Z " />
<glyph glyph-name="y" unicode="y" horiz-adv-x="503" d="M491 510 C492 511 492 512 492 513 C492 520 486 525 480 525 L417 525 C408 525 402 519 401 512 L273 58 L247 58 L105 512 C103 519 100 525 90 525 L31 525 C25 525 19 519 19 513 C19 512 20 511 20 509 L187 16 C190 6 198 0 207 0 L248 0 L225 -76 C209 -132 180 -142 129 -142 C109 -142 81 -141 71 -141 L70 -141 C64 -141 59 -146 59 -151 L59 -195 C59 -199 61 -204 70 -206 C89 -209 108 -210 140 -210 C247 -210 277 -170 306 -77 L491 510 Z " />
<glyph glyph-name="z" unicode="z" horiz-adv-x="483" d="M448 15 L448 49 C448 58 442 64 433 64 L129 64 L438 442 C445 450 446 455 446 461 L446 510 C446 519 440 525 431 525 L50 525 C41 525 35 519 35 510 L35 476 C35 467 41 461 50 461 L358 461 L50 84 C43 75 41 73 41 63 L41 15 C41 6 47 0 56 0 L433 0 C442 0 448 6 448 15 L448 15 Z " />
<glyph glyph-name="braceleft" unicode="&#x7b;" horiz-adv-x="357" d="M295 -96 C296 -95 296 -93 296 -92 C296 -89 295 -87 291 -85 L212 -50 L212 201 C212 305 145 319 136 325 L136 344 C145 350 212 364 212 468 L212 721 L290 757 C294 758 296 762 296 765 C296 766 296 768 295 769 L277 812 C276 816 273 818 269 818 L266 818 L142 779 C138 777 133 770 133 765 L133 484 C133 410 124 380 64 370 C59 370 55 366 55 361 L55 308 C55 303 59 299 64 299 C124 289 133 259 133 185 L133 -93 C133 -98 138 -106 142 -107 L267 -146 L270 -146 C273 -146 276 -144 277 -141 L295 -96 Z " />
<glyph glyph-name="bar" unicode="&#x7c;" horiz-adv-x="235" d="M155 -147 L155 767 C155 776 149 782 140 782 L95 782 C86 782 80 776 80 767 L80 -147 C80 -156 86 -162 95 -162 L140 -162 C149 -162 155 -156 155 -147 L155 -147 Z " />
<glyph glyph-name="braceright" unicode="&#x7d;" horiz-adv-x="357" d="M302 308 L302 361 C302 366 298 370 293 370 C233 380 224 410 224 484 L224 765 C224 770 220 777 215 779 L91 818 L88 818 C84 818 82 816 80 812 L62 769 C61 768 61 766 61 765 C61 762 63 758 67 757 L146 721 L146 468 C146 364 212 350 221 344 L221 325 C212 319 146 305 146 201 L146 -50 L66 -85 C63 -87 61 -89 61 -92 C61 -93 61 -95 62 -96 L80 -141 C82 -144 84 -146 87 -146 L90 -146 L215 -107 C220 -106 224 -98 224 -93 L224 185 C224 259 233 289 293 299 C298 299 302 303 302 308 L302 308 Z " />
<glyph glyph-name="asciitilde" unicode="&#x7e;" horiz-adv-x="584" d="M508 296 C508 298 507 302 506 304 L481 343 C478 347 476 351 471 351 C467 351 463 348 460 346 C434 326 405 304 373 304 C347 304 322 319 292 332 C265 344 238 357 209 357 C159 357 105 316 83 297 C79 294 76 292 76 287 C76 285 77 281 78 279 L103 240 C106 236 108 232 113 232 C117 232 121 235 124 237 C150 257 179 279 211 279 C237 279 262 264 292 251 C319 239 346 227 375 227 C425 227 479 267 501 286 C505 289 508 291 508 296 L508 296 Z " />
<glyph glyph-name="nbspace" unicode="&#xa0;" horiz-adv-x="310" d="" />
<glyph glyph-name="exclamdown" unicode="&#xa1;" horiz-adv-x="270" d="M182 -4 L175 522 C175 527 171 532 165 532 L110 532 C105 532 101 527 101 522 L94 16 L94 15 C94 8 99 5 107 3 L173 -13 L174 -13 C178 -13 182 -8 182 -4 L182 -4 Z M182 611 L182 724 C182 733 177 739 168 739 L108 739 C99 739 93 733 93 724 L93 611 C93 602 99 596 108 596 L168 596 C177 596 182 602 182 611 L182 611 Z " />
<glyph glyph-name="cent" unicode="&#xa2;" horiz-adv-x="478" d="M443 31 L436 63 C434 71 431 75 424 75 C423 75 421 74 418 74 C397 68 337 52 284 52 C164 52 126 103 126 263 C126 422 164 473 284 473 C337 473 397 457 418 451 C421 451 423 450 424 450 C431 450 434 454 436 462 L443 494 C443 496 444 497 444 499 C444 508 437 510 434 512 C414 521 363 533 313 537 L313 611 C313 620 306 626 298 626 L253 626 C245 626 239 620 239 611 L239 536 C86 524 44 435 44 262 C44 90 86 1 239 -11 L239 -83 C239 -92 245 -98 254 -98 L298 -98 C307 -98 313 -92 313 -83 L313 -12 C363 -8 414 4 434 13 C437 15 444 17 444 26 C444 28 443 29 443 31 L443 31 Z " />
<glyph glyph-name="sterling" unicode="&#xa3;" horiz-adv-x="664" d="M604 712 C605 713 605 714 605 715 C605 722 600 724 594 727 C594 727 500 752 401 752 C241 752 146 695 146 539 C146 455 198 297 198 226 C198 147 147 94 73 81 C60 78 60 74 60 66 L60 14 C60 5 65 0 74 0 L587 0 C596 0 603 7 603 16 L603 61 C603 69 596 77 587 77 L205 76 C228 91 286 128 286 223 C286 275 276 308 276 308 L497 308 C506 308 513 315 513 324 L513 366 C513 375 506 382 497 382 L262 382 C258 398 232 498 232 549 C232 660 326 676 404 676 C482 676 583 651 583 651 C588 651 593 653 594 658 L604 712 Z " />
<glyph glyph-name="currency" unicode="&#xa4;" horiz-adv-x="662" d="M528 191 L481 235 C494 265 500 300 500 335 C500 370 494 405 481 436 L528 480 C530 481 530 483 530 485 C530 488 529 490 528 492 L487 536 C484 539 481 541 478 541 C477 541 475 540 474 539 L428 495 C404 509 372 518 331 518 C290 518 258 509 234 495 L188 539 C187 540 185 541 184 541 C181 541 178 539 175 536 L134 492 C133 490 132 488 132 485 C132 483 132 481 134 480 L181 436 C168 405 162 370 162 335 C162 300 168 265 181 235 L134 191 C132 189 132 187 132 185 C132 183 133 180 134 179 L175 134 C178 132 181 130 184 130 C185 130 187 130 188 132 L234 175 C258 162 290 152 331 152 C372 152 404 162 428 175 L474 132 C475 130 477 130 478 130 C481 130 484 132 487 134 L528 179 C529 180 530 183 530 185 C530 187 530 189 528 191 L528 191 Z M435 335 C435 255 414 211 331 211 C247 211 227 255 227 335 C227 415 247 460 331 460 C414 460 435 415 435 335 L435 335 Z " />
<glyph glyph-name="yen" unicode="&#xa5;" horiz-adv-x="598" d="M603 722 C604 724 605 726 605 727 C605 733 599 739 594 739 L524 739 C517 739 513 737 509 731 L301 380 L90 730 C86 736 81 739 74 739 L5 739 C-1 739 -7 733 -7 727 C-7 726 -6 724 -5 722 L230 345 L64 345 C55 345 49 339 49 330 L49 290 C49 281 55 275 64 275 L536 275 C545 275 551 281 551 290 L551 330 C551 339 545 345 536 345 L367 345 L603 722 Z M511 163 L511 203 C511 212 505 218 496 218 L104 218 C95 218 89 212 89 203 L89 163 C89 154 95 148 104 148 L258 148 L258 16 C258 7 265 0 274 0 L327 0 C335 0 343 7 343 16 L343 148 L496 148 C505 148 511 154 511 163 L511 163 Z " />
<glyph glyph-name="brokenbar" unicode="&#xa6;" horiz-adv-x="260" d="M168 180 C168 189 162 195 153 195 L108 195 C99 195 93 189 93 180 L93 -160 C93 -169 99 -175 108 -175 L153 -175 C162 -175 168 -168 168 -160 L168 180 Z M168 660 C168 668 162 675 153 675 L108 675 C99 675 93 669 93 660 L93 320 C93 311 99 305 108 305 L153 305 C162 305 168 312 168 320 L168 660 Z " />
<glyph glyph-name="section" unicode="&#xa7;" horiz-adv-x="701" d="M618 270 C618 422 519 440 376 460 C350 464 326 467 305 471 C246 481 195 497 195 569 C195 655 255 688 366 688 C425 688 522 668 537 667 L538 667 C542 667 546 668 547 674 L554 719 L554 721 C554 725 551 730 544 732 C533 734 456 752 369 752 C277 752 235 743 191 720 C142 694 113 635 113 568 C113 467 180 447 215 434 L215 415 C152 399 84 360 84 265 C84 112 182 94 326 74 C352 70 376 67 397 64 C455 54 507 37 507 -34 C507 -120 446 -146 336 -146 C253 -146 150 -118 142 -116 C140 -115 138 -115 137 -115 C130 -115 127 -120 126 -124 L116 -164 C116 -165 115 -166 115 -167 C115 -173 120 -175 124 -177 C137 -182 244 -210 333 -210 C425 -210 467 -201 510 -178 C560 -152 589 -101 589 -34 C589 67 521 88 487 100 L487 119 C550 136 618 174 618 270 L618 270 Z M291 157 C229 166 166 181 166 265 C166 360 243 387 343 387 C343 387 389 381 410 378 C472 369 535 353 535 269 C535 174 459 148 359 148 C359 148 313 154 291 157 L291 157 Z " />
<glyph glyph-name="dieresis" unicode="&#xa8;" horiz-adv-x="457" d="M383 729 C383 735 378 739 373 739 L274 739 C269 739 265 735 265 729 L265 675 C265 669 269 665 274 665 L373 665 C378 665 383 669 383 675 L383 729 Z M193 729 C193 735 188 739 183 739 L84 739 C79 739 75 735 75 729 L75 675 C75 669 79 665 84 665 L183 665 C188 665 193 669 193 675 L193 729 Z " />
<glyph glyph-name="copyright" unicode="&#xa9;" horiz-adv-x="883" d="M823 368 C823 627 743 752 442 752 C141 752 60 627 60 368 C60 110 141 -13 442 -13 C743 -13 823 110 823 368 L823 368 Z M753 369 C753 250 737 168 684 118 C637 73 562 54 441 54 C321 54 245 73 199 117 C146 168 130 250 130 368 C130 487 146 569 199 620 C246 664 321 685 441 685 C562 685 637 664 684 619 C737 568 753 488 753 369 L753 369 Z M590 558 L590 563 C590 568 588 573 583 576 C557 592 478 599 453 599 C298 599 258 525 258 373 C258 221 298 146 453 146 C501 146 559 158 580 168 C582 169 585 171 587 173 C589 176 590 179 590 183 L590 188 L584 214 C582 222 577 227 570 227 C568 227 566 226 564 226 C546 221 498 208 456 208 C363 208 334 246 334 373 C334 500 363 538 456 538 C493 538 529 529 564 519 C566 518 568 518 570 518 C577 518 582 523 584 531 L590 558 Z " />
<glyph glyph-name="ordfeminine" unicode="&#xaa;" horiz-adv-x="436" d="M348 500 L348 660 C348 681 348 704 333 722 C316 741 284 752 222 752 C166 752 113 741 93 733 C90 732 83 730 83 723 L83 720 L91 690 C92 684 95 683 99 683 C101 683 103 684 106 684 C142 692 179 701 217 701 C242 701 258 698 269 694 C288 687 289 674 289 658 L289 641 L178 624 C122 615 68 606 68 528 C68 426 162 425 213 425 C246 425 275 430 293 434 C338 444 348 456 348 500 L348 500 Z M289 483 C265 476 238 473 213 473 C173 473 130 477 130 530 C130 568 157 573 184 577 L289 594 L289 483 Z M360 354 C360 363 354 368 345 368 L85 368 C77 368 71 363 71 354 L71 330 C71 321 77 315 86 315 L345 315 C354 315 360 321 360 330 L360 354 Z " />
<glyph glyph-name="guillemotleft" unicode="&#xab;" horiz-adv-x="517" d="M461 79 L312 289 L461 499 C462 500 463 502 463 503 C463 507 461 510 458 512 L419 540 C418 541 416 541 415 541 C411 541 408 539 406 536 L241 295 C240 293 239 291 239 289 C239 286 240 284 241 282 L406 42 C408 39 411 37 415 37 C416 37 418 37 419 38 L458 66 C461 68 463 71 463 75 C463 76 462 78 461 79 L461 79 Z M276 79 L127 289 L276 499 C277 500 278 502 278 503 C278 507 276 510 273 512 L234 540 C233 541 231 541 230 541 C226 541 223 539 221 536 L56 295 C55 293 54 291 54 289 C54 286 55 284 56 282 L221 42 C223 39 226 37 230 37 C231 37 233 37 234 38 L273 66 C276 68 278 71 278 75 C278 76 277 78 276 79 L276 79 Z " />
<glyph glyph-name="logicalnot" unicode="&#xac;" horiz-adv-x="584" d="M529 156 L529 376 C529 385 523 391 514 391 L70 391 C61 391 55 385 55 376 L55 331 C55 322 61 316 70 316 L454 316 L454 156 C454 147 461 141 469 141 L515 141 C524 141 529 147 529 156 L529 156 Z " />
<glyph glyph-name="registered" unicode="&#xae;" horiz-adv-x="883" d="M823 368 C823 627 743 752 442 752 C141 752 60 627 60 368 C60 110 141 -13 442 -13 C743 -13 823 110 823 368 L823 368 Z M753 369 C753 250 737 168 684 118 C637 73 562 54 441 54 C321 54 245 73 199 117 C146 168 130 250 130 368 C130 487 146 569 199 620 C246 664 321 685 441 685 C562 685 637 664 684 619 C737 568 753 488 753 369 L753 369 Z M628 171 L624 250 C622 295 608 318 589 332 C572 345 551 348 531 351 L531 365 C596 377 620 403 620 462 C620 554 567 587 480 587 L298 587 C287 587 279 577 279 567 L279 173 C279 168 284 158 294 158 L337 158 C345 158 352 164 352 173 L352 331 L452 326 C520 323 546 304 549 254 L555 170 C555 161 559 158 568 158 L617 158 C624 158 628 165 628 171 L628 171 Z M546 455 C546 400 519 392 458 390 L352 386 L352 521 L485 521 C531 521 546 501 546 455 L546 455 Z " />
<glyph glyph-name="macron" unicode="&#xaf;" horiz-adv-x="469" d="M390 681 L390 682 C390 686 388 688 383 690 C361 698 301 719 235 719 C169 719 108 698 86 690 C81 688 79 686 79 682 L79 681 L86 634 C87 629 90 625 94 625 C114 633 172 654 235 654 C298 654 355 633 376 625 C380 625 382 629 383 634 L390 681 Z " />
<glyph glyph-name="degree" unicode="&#xb0;" horiz-adv-x="400" d="M350 602 C350 684 282 752 200 752 C117 752 50 684 50 602 C51 519 117 452 200 452 C282 452 350 519 350 602 L350 602 Z M288 602 C288 553 248 514 200 514 C152 514 112 553 112 602 C112 649 152 690 199 690 C247 690 288 649 288 602 L288 602 Z " />
<glyph glyph-name="plusminus" unicode="&#xb1;" horiz-adv-x="584" d="M514 319 L514 364 C514 373 507 379 499 379 L330 379 L330 526 C330 534 324 541 315 541 L270 541 C261 541 255 535 255 526 L255 378 L86 378 C78 378 71 372 71 363 L71 319 C71 310 77 304 86 304 L255 304 L255 157 C255 149 261 143 269 143 L314 143 C323 143 329 149 329 158 L329 305 L499 305 C508 305 514 311 514 319 L514 319 Z M514 60 C514 69 508 75 499 75 L85 75 C76 75 70 69 70 60 L70 15 C70 6 77 0 85 0 L498 0 C507 0 514 6 514 15 L514 60 Z " />
<glyph glyph-name="twosuperior" unicode="&#xb2;" horiz-adv-x="489" d="M399 344 C399 352 396 357 388 357 L139 357 L139 371 L248 444 C308 485 389 529 389 615 C389 725 314 752 220 752 C137 752 79 732 69 728 C64 726 59 722 59 715 C59 714 60 713 60 711 L67 684 C68 677 72 673 79 673 L83 673 C128 685 167 695 214 695 C278 695 321 683 321 614 C321 557 251 520 211 491 C211 491 113 423 99 413 C84 402 76 389 76 364 L76 309 C76 300 80 298 89 298 L388 298 C396 298 399 303 399 311 L399 344 Z " />
<glyph glyph-name="threesuperior" unicode="&#xb3;" horiz-adv-x="472" d="M393 419 C393 484 357 512 296 522 L296 538 C350 550 384 573 384 634 C384 710 327 752 226 752 C153 752 95 738 69 727 C62 724 59 722 59 717 C59 716 59 714 60 711 L67 680 C69 675 72 672 78 672 C80 672 83 672 86 673 C119 682 161 694 216 694 C277 694 317 679 317 628 C317 573 269 562 181 553 C175 553 167 553 167 542 L167 516 C167 508 174 505 182 504 C203 502 221 500 239 498 C286 491 325 480 325 422 C325 363 263 351 217 351 C162 351 113 360 103 362 C100 362 97 363 94 363 C89 363 86 361 85 356 L79 322 L79 319 C79 312 83 310 90 307 C96 305 152 293 224 293 C306 293 393 322 393 419 L393 419 Z " />
<glyph glyph-name="acute" unicode="&#xb4;" horiz-adv-x="331" d="M256 708 L224 748 C222 751 219 752 217 752 C215 752 213 751 212 750 L77 649 C74 647 73 645 73 642 C73 640 74 638 75 637 L106 599 C108 597 111 595 113 595 C115 595 117 596 118 597 L254 696 C256 698 257 701 257 703 C257 705 257 707 256 708 L256 708 Z " />
<glyph glyph-name="mu" unicode="&#xb5;" horiz-adv-x="577" d="M512 129 L512 525 C512 531 510 538 502 538 L499 538 L445 525 C438 523 433 520 433 512 L433 151 C433 79 419 54 334 54 C233 54 149 85 149 85 L149 525 C149 531 147 538 140 538 L136 538 L83 525 C75 523 70 520 70 512 L70 -197 C70 -203 73 -210 80 -210 L83 -210 L137 -197 C144 -195 149 -192 149 -184 L149 -35 L138 23 C211 -2 262 -13 352 -13 C458 -13 512 14 512 129 L512 129 Z " />
<glyph glyph-name="paragraph" unicode="&#xb6;" horiz-adv-x="670" d="M446 -182 L446 724 C446 729 437 739 432 739 L272 739 C100 739 44 654 44 509 C44 318 140 283 259 283 L272 283 L370 285 L370 -201 C370 -205 375 -210 379 -210 L381 -210 L438 -195 C443 -194 446 -187 446 -182 L446 -182 Z M370 351 L272 353 C195 355 129 371 129 509 C129 628 156 669 272 669 L370 669 L370 351 Z M600 -162 L600 743 C600 748 596 752 592 752 L590 752 L533 737 C528 736 525 729 525 724 L525 -181 C525 -185 529 -190 533 -190 L535 -190 L592 -175 C597 -174 600 -167 600 -162 L600 -162 Z " />
<glyph glyph-name="periodcentered" unicode="&#xb7;" horiz-adv-x="169" d="M129 248 L129 320 C129 329 123 335 115 335 L55 335 C46 335 40 329 40 320 L40 248 C40 239 46 233 55 233 L115 233 C123 233 129 239 129 248 L129 248 Z " />
<glyph glyph-name="cedilla" unicode="&#xb8;" horiz-adv-x="317" d="M246 -118 C246 -71 221 -37 153 -37 C99 -37 83 -44 77 -46 C73 -47 70 -49 71 -54 L71 -55 L74 -81 C75 -85 78 -88 83 -87 L85 -87 C91 -87 109 -82 133 -82 C154 -82 176 -88 176 -119 C176 -149 154 -155 133 -155 C109 -155 91 -150 85 -150 L83 -150 C78 -150 75 -152 74 -157 L72 -182 L72 -183 C71 -188 74 -191 78 -192 C84 -193 104 -200 149 -200 C205 -200 246 -179 246 -118 L246 -118 Z " />
<glyph glyph-name="onesuperior" unicode="&#xb9;" horiz-adv-x="373" d="M227 308 L227 740 C227 747 222 752 215 752 L214 752 L80 735 C75 734 70 733 70 722 L70 694 C70 683 76 683 83 682 L163 678 L163 308 C163 299 167 297 176 297 L213 297 C222 297 227 299 227 308 L227 308 Z " />
<glyph glyph-name="ordmasculine" unicode="&#xba;" horiz-adv-x="435" d="M367 589 C367 676 351 752 219 752 C87 752 72 676 72 589 C72 501 87 426 219 426 C351 426 367 501 367 589 L367 589 Z M307 589 C307 517 303 473 219 473 C136 473 132 517 132 589 C132 661 136 704 219 704 C303 704 307 661 307 589 L307 589 Z M364 354 C364 363 358 368 349 368 L89 368 C81 368 75 363 75 354 L75 330 C75 321 81 315 90 315 L349 315 C358 315 364 321 364 330 L364 354 Z " />
<glyph glyph-name="guillemotright" unicode="&#xbb;" horiz-adv-x="517" d="M461 295 L297 536 C295 539 291 541 288 541 C286 541 284 541 283 540 L244 512 C241 510 239 507 239 503 C239 502 240 500 241 499 L391 289 L241 79 C240 78 239 76 239 75 C239 71 241 68 244 66 L283 38 C284 37 286 37 288 37 C291 37 295 39 297 42 L461 282 C463 284 463 286 463 289 C463 291 463 293 461 295 L461 295 Z M276 295 L112 536 C110 539 106 541 103 541 C101 541 99 541 98 540 L59 512 C56 510 54 507 54 503 C54 502 55 500 56 499 L206 289 L56 79 C55 78 54 76 54 75 C54 71 56 68 59 66 L98 38 C99 37 101 37 103 37 C106 37 110 39 112 42 L276 282 C278 284 278 286 278 289 C278 291 278 293 276 295 L276 295 Z " />
<glyph glyph-name="onequarter" unicode="&#xbc;" horiz-adv-x="961" d="M881 150 C881 158 879 163 870 163 L814 163 L814 438 C814 448 809 450 801 450 L711 450 C707 450 702 447 700 444 L499 168 C496 164 496 156 496 156 L496 121 C496 112 499 107 508 107 L750 107 L750 12 C750 2 755 0 764 0 L801 0 C810 0 814 3 814 12 L814 107 L870 107 C879 107 881 112 881 121 L881 150 Z M690 703 C691 705 691 707 691 709 C691 712 690 715 687 716 L654 739 C653 740 651 741 649 741 C646 741 643 740 642 737 L167 34 C166 32 166 30 166 29 C166 26 167 23 170 21 L203 -2 C204 -3 206 -3 208 -3 C211 -3 214 -2 215 0 L690 703 Z M227 310 L227 740 C227 747 222 752 215 752 L214 752 L80 735 C75 734 70 733 70 722 L70 694 C70 683 76 683 83 682 L163 678 L163 310 C163 300 167 298 176 298 L213 298 C222 298 227 301 227 310 L227 310 Z M750 163 L564 163 L730 396 L750 396 L750 163 Z " />
<glyph glyph-name="onehalf" unicode="&#xbd;" horiz-adv-x="1000" d="M910 46 C910 54 907 59 898 59 L650 59 L650 73 L759 146 C819 187 899 231 899 317 C899 427 825 454 731 454 C648 454 590 434 580 430 C575 428 570 424 570 417 C570 416 570 415 571 413 L578 386 C579 379 583 375 589 375 L594 375 C638 387 678 397 724 397 C789 397 831 386 831 317 C831 259 762 222 722 193 C722 193 624 125 610 115 C595 104 586 91 586 66 L586 12 C586 3 591 0 600 0 L898 0 C907 0 910 5 910 13 L910 46 Z M690 703 C691 705 691 707 691 709 C691 712 690 715 687 716 L654 739 C653 740 651 741 649 741 C646 741 643 740 642 737 L167 34 C166 32 166 30 166 29 C166 26 167 23 170 21 L203 -2 C204 -3 206 -3 208 -3 C211 -3 214 -2 215 0 L690 703 Z M227 308 L227 740 C227 747 222 752 215 752 L214 752 L80 735 C75 734 70 733 70 722 L70 694 C70 683 76 683 83 682 L163 678 L163 308 C163 299 167 297 176 297 L213 297 C222 297 227 299 227 308 L227 308 Z " />
<glyph glyph-name="threequarters" unicode="&#xbe;" horiz-adv-x="1077" d="M997 150 C997 158 994 163 985 163 L929 163 L929 439 C929 448 925 450 916 450 L826 450 C822 450 817 447 815 445 L614 168 C611 164 611 156 611 156 L611 121 C611 112 614 108 623 108 L866 108 L866 12 C866 3 870 0 879 0 L916 0 C925 0 929 3 929 12 L929 108 L985 108 C994 108 997 112 997 121 L997 150 Z M393 419 C393 484 357 512 296 522 L296 538 C350 550 384 573 384 634 C384 710 327 752 226 752 C153 752 95 738 69 727 C62 724 59 722 59 717 C59 716 59 714 60 711 L67 680 C69 675 72 672 78 672 C80 672 83 672 86 673 C119 682 161 694 216 694 C277 694 317 679 317 628 C317 573 269 562 181 553 C175 553 167 553 167 542 L167 516 C167 508 174 505 182 504 C203 502 221 500 239 498 C286 491 325 480 325 422 C325 363 263 351 217 351 C162 351 113 360 103 362 C100 362 97 363 94 363 C89 363 86 361 85 356 L79 322 L79 319 C79 312 83 310 90 307 C96 305 152 293 224 293 C306 293 393 322 393 419 L393 419 Z M805 703 C806 705 807 707 807 709 C807 712 805 715 803 716 L769 739 C768 740 766 741 764 741 C762 741 759 740 757 737 L283 34 C282 32 281 30 281 29 C281 26 282 23 285 21 L318 -2 C320 -3 321 -3 323 -3 C326 -3 329 -2 330 0 L805 703 Z M866 163 L679 163 L845 396 L866 396 L866 163 Z " />
<glyph glyph-name="questiondown" unicode="&#xbf;" horiz-adv-x="584" d="M513 35 L502 81 C500 90 497 92 493 92 C490 92 486 91 481 90 C464 86 385 64 306 64 C242 64 159 76 159 158 C159 223 229 259 248 273 C323 327 373 342 373 454 C373 480 368 505 366 515 C363 527 360 528 351 528 L300 528 C289 528 283 525 283 517 L283 514 C286 492 289 483 289 448 C289 379 219 354 181 326 C158 309 71 264 71 161 C71 40 162 -13 304 -13 C393 -13 490 14 503 19 C511 22 514 26 514 31 C514 32 514 34 513 35 L513 35 Z M371 612 L371 724 C371 734 365 739 356 739 L296 739 C286 739 281 734 281 724 L281 612 C281 603 286 597 296 597 L356 597 C365 597 371 603 371 612 L371 612 Z " />
<glyph glyph-name="Agrave" unicode="&#xc0;" horiz-adv-x="697" d="M684 19 L430 726 C428 733 418 739 412 739 L289 739 C284 739 273 733 271 726 L13 19 C12 17 11 14 11 11 C11 5 15 0 22 0 L84 0 C89 0 97 3 99 8 L204 314 L490 314 L598 10 C599 5 607 0 612 0 L674 0 C681 0 685 5 685 12 C685 14 684 17 684 19 L684 19 Z M467 387 L227 387 L326 669 L366 669 L467 387 Z M429 844 C430 845 430 847 430 849 C430 852 429 854 427 856 L292 957 C290 958 289 959 287 959 C284 959 282 958 279 955 L248 915 C247 914 246 912 246 910 C246 908 247 905 250 903 L385 804 C387 803 389 802 390 802 C393 802 396 804 398 806 L429 844 Z " />
<glyph glyph-name="Aacute" unicode="&#xc1;" horiz-adv-x="697" d="M684 19 L430 726 C428 733 418 739 412 739 L289 739 C284 739 273 733 271 726 L13 19 C12 17 11 14 11 11 C11 5 15 0 22 0 L84 0 C89 0 97 3 99 8 L204 314 L490 314 L598 10 C599 5 607 0 612 0 L674 0 C681 0 685 5 685 12 C685 14 684 17 684 19 L684 19 Z M467 387 L227 387 L326 669 L366 669 L467 387 Z M433 915 L402 955 C400 958 397 959 394 959 C393 959 391 958 389 957 L255 856 C252 854 251 852 251 849 C251 847 252 845 253 844 L283 806 C286 804 288 802 291 802 C293 802 294 803 296 804 L432 903 C434 905 435 908 435 910 C435 912 435 914 433 915 L433 915 Z " />
<glyph glyph-name="Acircumflex" unicode="&#xc2;" horiz-adv-x="697" d="M684 19 L430 726 C428 733 418 739 412 739 L289 739 C284 739 273 733 271 726 L13 19 C12 17 11 14 11 11 C11 5 15 0 22 0 L84 0 C89 0 97 3 99 8 L204 314 L490 314 L598 10 C599 5 607 0 612 0 L674 0 C681 0 685 5 685 12 C685 14 684 17 684 19 L684 19 Z M467 387 L227 387 L326 669 L366 669 L467 387 Z M501 844 C502 845 503 847 503 849 C503 852 501 854 499 856 L363 957 L330 957 L194 856 C192 854 191 852 191 849 C191 847 191 845 193 844 L222 809 C225 807 227 805 230 805 C232 805 233 806 235 807 L347 895 L459 807 C460 806 462 805 464 805 C466 805 469 807 471 809 L501 844 Z " />
<glyph glyph-name="Atilde" unicode="&#xc3;" horiz-adv-x="697" d="M684 19 L430 726 C428 733 418 739 412 739 L289 739 C284 739 273 733 271 726 L13 19 C12 17 11 14 11 11 C11 5 15 0 22 0 L84 0 C89 0 97 3 99 8 L204 314 L490 314 L598 10 C599 5 607 0 612 0 L674 0 C681 0 685 5 685 12 C685 14 684 17 684 19 L684 19 Z M467 387 L227 387 L326 669 L366 669 L467 387 Z M507 882 C507 884 507 886 506 888 L487 924 C485 927 483 930 479 930 C476 930 473 928 471 926 C451 910 429 894 404 894 C384 894 365 905 342 916 C322 925 301 934 278 934 C240 934 198 903 181 889 C179 887 177 884 177 881 C177 879 177 876 178 875 L197 839 C199 836 201 833 205 833 C207 833 211 835 213 836 C233 852 255 869 280 869 C300 869 319 857 342 847 C362 838 383 828 406 828 C444 828 485 859 503 874 C505 876 507 878 507 882 L507 882 Z " />
<glyph glyph-name="Adieresis" unicode="&#xc4;" horiz-adv-x="697" d="M684 19 L430 726 C428 733 418 739 412 739 L289 739 C284 739 273 733 271 726 L13 19 C12 17 11 14 11 11 C11 5 15 0 22 0 L84 0 C89 0 97 3 99 8 L204 314 L490 314 L598 10 C599 5 607 0 612 0 L674 0 C681 0 685 5 685 12 C685 14 684 17 684 19 L684 19 Z M467 387 L227 387 L326 669 L366 669 L467 387 Z M501 909 C501 915 496 919 491 919 L392 919 C387 919 383 915 383 909 L383 855 C383 849 387 845 392 845 L491 845 C496 845 501 849 501 855 L501 909 Z M311 909 C311 915 306 919 301 919 L202 919 C197 919 193 915 193 909 L193 855 C193 849 197 845 202 845 L301 845 C306 845 311 849 311 855 L311 909 Z " />
<glyph glyph-name="Aring" unicode="&#xc5;" horiz-adv-x="697" d="M684 19 L430 726 C428 733 418 739 412 739 L289 739 C284 739 273 733 271 726 L13 19 C12 17 11 14 11 11 C11 5 15 0 22 0 L84 0 C89 0 97 3 99 8 L204 314 L490 314 L598 10 C599 5 607 0 612 0 L674 0 C681 0 685 5 685 12 C685 14 684 17 684 19 L684 19 Z M477 874 C477 960 432 990 351 990 C269 990 224 960 224 874 C224 789 269 758 351 758 C432 758 477 789 477 874 L477 874 Z M467 387 L227 387 L326 669 L366 669 L467 387 Z M411 875 C411 824 400 801 351 801 C301 801 290 823 290 874 C290 925 301 947 351 947 C400 947 411 926 411 875 L411 875 Z " />
<glyph glyph-name="AE" unicode="&#xc6;" horiz-adv-x="855" d="M800 16 L800 59 C800 68 793 75 785 75 L485 75 L485 330 L771 330 C780 330 786 337 786 346 L786 390 C786 399 780 406 771 406 L485 406 L485 664 L784 664 C793 664 800 671 800 680 L800 723 C800 732 793 739 784 739 L278 739 C273 739 262 733 260 726 L13 9 L13 8 C13 3 18 0 22 0 L93 0 C98 0 104 4 105 9 L214 330 L400 330 L400 16 C400 7 407 0 416 0 L785 0 C793 0 800 7 800 16 L800 16 Z M400 663 L400 403 L237 403 L323 663 L400 663 Z " />
<glyph glyph-name="Ccedilla" unicode="&#xc7;" horiz-adv-x="653" d="M614 52 L605 89 C603 98 598 101 592 101 C589 101 585 101 581 100 C533 86 459 70 375 70 C187 70 143 164 143 372 C143 580 187 672 375 672 C459 672 533 654 581 641 C585 640 589 639 592 639 C598 639 603 642 605 652 L614 690 C614 690 615 693 615 696 C615 701 612 708 599 712 C555 726 481 748 370 748 C123 748 55 614 55 371 C55 128 123 -7 370 -7 C481 -7 555 15 599 29 C612 33 615 40 615 45 C615 48 614 51 614 52 L614 52 Z M478 -118 C478 -71 452 -38 385 -38 C331 -38 315 -45 309 -46 C305 -47 302 -50 302 -54 L302 -56 L306 -81 C306 -85 309 -88 315 -88 L317 -88 C323 -87 340 -83 365 -83 C386 -83 408 -89 408 -119 C408 -149 386 -155 365 -155 C340 -155 323 -151 317 -150 L315 -150 C309 -150 306 -153 306 -157 L303 -182 L303 -183 C303 -188 306 -191 310 -192 C315 -193 335 -200 381 -200 C437 -200 478 -179 478 -118 L478 -118 Z " />
<glyph glyph-name="Egrave" unicode="&#xc8;" horiz-adv-x="627" d="M572 16 L572 59 C572 68 565 75 557 75 L175 75 L175 348 L542 348 C551 348 557 355 557 364 L557 408 C557 417 551 424 542 424 L175 424 L175 664 L556 664 C565 664 572 671 572 680 L572 723 C572 732 565 739 556 739 L106 739 C98 739 90 732 90 723 L90 16 C90 7 97 0 106 0 L557 0 C565 0 572 7 572 16 L572 16 Z M416 844 C417 845 417 847 417 849 C417 852 416 854 414 856 L279 957 C277 958 276 959 274 959 C271 959 269 958 266 955 L235 915 C234 914 233 912 233 910 C233 908 234 905 237 903 L372 804 C374 803 376 802 377 802 C380 802 383 804 385 806 L416 844 Z " />
<glyph glyph-name="Eacute" unicode="&#xc9;" horiz-adv-x="627" d="M572 16 L572 59 C572 68 565 75 557 75 L175 75 L175 348 L542 348 C551 348 557 355 557 364 L557 408 C557 417 551 424 542 424 L175 424 L175 664 L556 664 C565 664 572 671 572 680 L572 723 C572 732 565 739 556 739 L106 739 C98 739 90 732 90 723 L90 16 C90 7 97 0 106 0 L557 0 C565 0 572 7 572 16 L572 16 Z M440 915 L409 955 C407 958 404 959 401 959 C400 959 398 958 396 957 L262 856 C259 854 258 852 258 849 C258 847 259 845 260 844 L290 806 C293 804 295 802 298 802 C300 802 301 803 303 804 L439 903 C441 905 442 908 442 910 C442 912 442 914 440 915 L440 915 Z " />
<glyph glyph-name="Ecircumflex" unicode="&#xca;" horiz-adv-x="627" d="M572 16 L572 59 C572 68 565 75 557 75 L175 75 L175 348 L542 348 C551 348 557 355 557 364 L557 408 C557 417 551 424 542 424 L175 424 L175 664 L556 664 C565 664 572 671 572 680 L572 723 C572 732 565 739 556 739 L106 739 C98 739 90 732 90 723 L90 16 C90 7 97 0 106 0 L557 0 C565 0 572 7 572 16 L572 16 Z M489 844 C490 845 491 847 491 849 C491 852 489 854 487 856 L351 957 L318 957 L182 856 C180 854 179 852 179 849 C179 847 179 845 181 844 L210 809 C213 807 215 805 218 805 C220 805 221 806 223 807 L335 895 L447 807 C448 806 450 805 452 805 C454 805 457 807 459 809 L489 844 Z " />
<glyph glyph-name="Edieresis" unicode="&#xcb;" horiz-adv-x="627" d="M572 16 L572 59 C572 68 565 75 557 75 L175 75 L175 348 L542 348 C551 348 557 355 557 364 L557 408 C557 417 551 424 542 424 L175 424 L175 664 L556 664 C565 664 572 671 572 680 L572 723 C572 732 565 739 556 739 L106 739 C98 739 90 732 90 723 L90 16 C90 7 97 0 106 0 L557 0 C565 0 572 7 572 16 L572 16 Z M294 909 C294 915 289 919 284 919 L185 919 C180 919 176 915 176 909 L176 855 C176 849 180 845 185 845 L284 845 C289 845 294 849 294 855 L294 909 Z M484 909 C484 915 479 919 474 919 L375 919 C370 919 366 915 366 909 L366 855 C366 849 370 845 375 845 L474 845 C479 845 484 849 484 855 L484 909 Z " />
<glyph glyph-name="Igrave" unicode="&#xcc;" horiz-adv-x="265" d="M175 16 L175 739 C175 745 172 752 165 752 L162 752 L102 742 C95 740 90 737 90 729 L90 16 C90 7 97 0 106 0 L159 0 C168 0 175 7 175 16 L175 16 Z M202 844 C203 845 203 847 203 849 C203 852 202 854 200 856 L65 957 C63 958 62 959 60 959 C57 959 55 958 52 955 L21 915 C20 914 19 912 19 910 C19 908 20 905 23 903 L158 804 C160 803 162 802 163 802 C166 802 169 804 171 806 L202 844 Z " />
<glyph glyph-name="Iacute" unicode="&#xcd;" horiz-adv-x="265" d="M175 16 L175 739 C175 745 172 752 165 752 L162 752 L102 742 C95 740 90 737 90 729 L90 16 C90 7 97 0 106 0 L159 0 C168 0 175 7 175 16 L175 16 Z M214 915 L183 955 C181 958 178 959 175 959 C174 959 172 958 170 957 L36 856 C33 854 32 852 32 849 C32 847 33 845 34 844 L64 806 C67 804 69 802 72 802 C74 802 75 803 77 804 L213 903 C215 905 216 908 216 910 C216 912 216 914 214 915 L214 915 Z " />
<glyph glyph-name="Icircumflex" unicode="&#xce;" horiz-adv-x="265" d="M175 16 L175 739 C175 745 172 752 165 752 L162 752 L102 742 C95 740 90 737 90 729 L90 16 C90 7 97 0 106 0 L159 0 C168 0 175 7 175 16 L175 16 Z M288 844 C289 845 290 847 290 849 C290 852 288 854 286 856 L150 957 L117 957 L-19 856 C-21 854 -22 852 -22 849 C-22 847 -22 845 -20 844 L9 809 C12 807 14 805 17 805 C19 805 20 806 22 807 L134 895 L246 807 C247 806 249 805 251 805 C253 805 256 807 258 809 L288 844 Z " />
<glyph glyph-name="Idieresis" unicode="&#xcf;" horiz-adv-x="265" d="M175 16 L175 739 C175 745 172 752 165 752 L162 752 L102 742 C95 740 90 737 90 729 L90 16 C90 7 97 0 106 0 L159 0 C168 0 175 7 175 16 L175 16 Z M95 909 C95 915 90 919 85 919 L-14 919 C-19 919 -23 915 -23 909 L-23 855 C-23 849 -19 845 -14 845 L85 845 C90 845 95 849 95 855 L95 909 Z M285 909 C285 915 280 919 275 919 L176 919 C171 919 167 915 167 909 L167 855 C167 849 171 845 176 845 L275 845 C280 845 285 849 285 855 L285 909 Z " />
<glyph glyph-name="Eth" unicode="&#xd0;" horiz-adv-x="783" d="M728 370 C728 692 603 739 387 739 L121 739 C112 739 105 732 105 723 L105 410 L25 410 C16 410 10 404 10 395 L10 355 C10 346 16 337 25 337 L105 337 L105 16 C105 7 112 0 121 0 L387 0 C603 0 728 47 728 370 L728 370 Z M641 372 C641 105 554 74 375 74 L190 74 L190 337 L453 337 C462 337 468 346 468 355 L468 395 C468 404 462 410 453 410 L190 410 L190 666 L375 666 C554 666 641 639 641 372 L641 372 Z " />
<glyph glyph-name="Ntilde" unicode="&#xd1;" horiz-adv-x="827" d="M737 16 L737 726 C737 733 734 739 723 739 L665 739 C657 739 652 735 652 726 L652 66 L644 66 L277 723 C273 731 267 739 258 739 L106 739 C97 739 90 732 90 723 L90 16 C90 7 97 0 106 0 L159 0 C168 0 175 7 175 16 L175 669 L211 669 L581 16 C585 8 591 0 600 0 L721 0 C730 0 737 7 737 16 L737 16 Z M596 882 C596 884 596 886 595 888 L576 924 C574 927 572 930 568 930 C565 930 562 928 560 926 C540 910 518 894 493 894 C473 894 454 905 431 916 C411 925 390 934 367 934 C329 934 287 903 270 889 C268 887 266 884 266 881 C266 879 266 876 267 875 L286 839 C288 836 290 833 294 833 C296 833 300 835 302 836 C322 852 344 869 369 869 C389 869 408 857 431 847 C451 838 472 828 495 828 C533 828 574 859 592 874 C594 876 596 878 596 882 L596 882 Z " />
<glyph glyph-name="Ograve" unicode="&#xd2;" horiz-adv-x="769" d="M714 370 C714 591 665 752 385 752 C104 752 55 591 55 370 C55 148 104 -13 385 -13 C665 -13 714 148 714 370 L714 370 Z M626 370 C626 184 606 63 384 63 C162 63 144 183 144 369 C144 555 162 676 384 676 C606 676 626 556 626 370 L626 370 Z M453 844 C454 845 454 847 454 849 C454 852 453 854 451 856 L316 957 C314 958 313 959 311 959 C308 959 306 958 303 955 L272 915 C271 914 270 912 270 910 C270 908 271 905 274 903 L409 804 C411 803 413 802 414 802 C417 802 420 804 422 806 L453 844 Z " />
<glyph glyph-name="Oacute" unicode="&#xd3;" horiz-adv-x="769" d="M714 370 C714 591 665 752 385 752 C104 752 55 591 55 370 C55 148 104 -13 385 -13 C665 -13 714 148 714 370 L714 370 Z M626 370 C626 184 606 63 384 63 C162 63 144 183 144 369 C144 555 162 676 384 676 C606 676 626 556 626 370 L626 370 Z M470 915 L439 955 C437 958 434 959 431 959 C430 959 428 958 426 957 L292 856 C289 854 288 852 288 849 C288 847 289 845 290 844 L320 806 C323 804 325 802 328 802 C330 802 331 803 333 804 L469 903 C471 905 472 908 472 910 C472 912 472 914 470 915 L470 915 Z " />
<glyph glyph-name="Ocircumflex" unicode="&#xd4;" horiz-adv-x="769" d="M714 370 C714 591 665 752 385 752 C104 752 55 591 55 370 C55 148 104 -13 385 -13 C665 -13 714 148 714 370 L714 370 Z M626 370 C626 184 606 63 384 63 C162 63 144 183 144 369 C144 555 162 676 384 676 C606 676 626 556 626 370 L626 370 Z M534 844 C535 845 536 847 536 849 C536 852 534 854 532 856 L396 957 L363 957 L227 856 C225 854 224 852 224 849 C224 847 224 845 226 844 L255 809 C258 807 260 805 263 805 C265 805 266 806 268 807 L380 895 L492 807 C493 806 495 805 497 805 C499 805 502 807 504 809 L534 844 Z " />
<glyph glyph-name="Otilde" unicode="&#xd5;" horiz-adv-x="769" d="M714 370 C714 591 665 752 385 752 C104 752 55 591 55 370 C55 148 104 -13 385 -13 C665 -13 714 148 714 370 L714 370 Z M626 370 C626 184 606 63 384 63 C162 63 144 183 144 369 C144 555 162 676 384 676 C606 676 626 556 626 370 L626 370 Z M539 882 C539 884 539 886 538 888 L519 924 C517 927 515 930 511 930 C508 930 505 928 503 926 C483 910 461 894 436 894 C416 894 397 905 374 916 C354 925 333 934 310 934 C272 934 230 903 213 889 C211 887 209 884 209 881 C209 879 209 876 210 875 L229 839 C231 836 233 833 237 833 C239 833 243 835 245 836 C265 852 287 869 312 869 C332 869 351 857 374 847 C394 838 415 828 438 828 C476 828 517 859 535 874 C537 876 539 878 539 882 L539 882 Z " />
<glyph glyph-name="Odieresis" unicode="&#xd6;" horiz-adv-x="769" d="M714 370 C714 591 665 752 385 752 C104 752 55 591 55 370 C55 148 104 -13 385 -13 C665 -13 714 148 714 370 L714 370 Z M626 370 C626 184 606 63 384 63 C162 63 144 183 144 369 C144 555 162 676 384 676 C606 676 626 556 626 370 L626 370 Z M529 909 C529 915 524 919 519 919 L420 919 C415 919 411 915 411 909 L411 855 C411 849 415 845 420 845 L519 845 C524 845 529 849 529 855 L529 909 Z M339 909 C339 915 334 919 329 919 L230 919 C225 919 221 915 221 909 L221 855 C221 849 225 845 230 845 L329 845 C334 845 339 849 339 855 L339 909 Z " />
<glyph glyph-name="multiply" unicode="&#xd7;" horiz-adv-x="584" d="M516 156 L341 325 L516 494 C518 496 519 498 519 500 C519 503 518 506 516 508 L475 548 C473 550 470 551 468 551 C465 551 462 550 461 549 L292 375 L123 549 C122 550 119 551 116 551 C114 551 111 550 109 548 L68 508 C66 506 65 503 65 500 C65 498 66 496 68 494 L243 325 L68 156 C66 154 65 152 65 149 C65 147 66 144 68 142 L109 102 C111 100 114 99 116 99 C119 99 122 100 123 101 L292 275 L461 101 C462 100 465 99 468 99 C470 99 473 100 475 102 L516 142 C518 144 519 147 519 149 C519 152 518 154 516 156 L516 156 Z " />
<glyph glyph-name="Oslash" unicode="&#xd8;" horiz-adv-x="785" d="M730 719 C732 721 733 723 733 725 C733 727 732 729 729 732 L692 763 C690 764 688 765 686 765 C683 765 681 764 679 761 L620 692 C570 730 498 752 396 752 C115 752 66 591 66 370 C66 264 77 172 120 104 L55 29 C53 26 52 24 52 23 C52 20 54 18 56 16 L93 -15 C95 -16 97 -17 99 -17 C102 -17 104 -16 106 -14 L164 54 C213 11 287 -13 396 -13 C676 -13 725 148 725 370 C725 480 713 575 666 643 L730 719 Z M637 370 C637 184 617 63 395 63 C308 63 252 82 216 115 L608 576 C633 524 637 453 637 370 L637 370 Z M567 630 L178 173 C158 224 155 291 155 369 C155 555 173 676 395 676 C477 676 531 660 567 630 L567 630 Z " />
<glyph glyph-name="Ugrave" unicode="&#xd9;" horiz-adv-x="750" d="M670 271 L670 739 C670 745 667 752 660 752 L657 752 L597 742 C590 740 585 737 585 729 L585 240 C585 111 516 63 375 63 C202 63 165 134 165 258 L165 739 C165 745 162 752 155 752 L152 752 L92 742 C85 740 80 737 80 729 L80 265 C80 92 142 -13 375 -13 C640 -13 670 126 670 271 L670 271 Z M436 844 C437 845 437 847 437 849 C437 852 436 854 434 856 L299 957 C297 958 296 959 294 959 C291 959 289 958 286 955 L255 915 C254 914 253 912 253 910 C253 908 254 905 257 903 L392 804 C394 803 396 802 397 802 C400 802 403 804 405 806 L436 844 Z " />
<glyph glyph-name="Uacute" unicode="&#xda;" horiz-adv-x="750" d="M670 271 L670 739 C670 745 667 752 660 752 L657 752 L597 742 C590 740 585 737 585 729 L585 240 C585 111 516 63 375 63 C202 63 165 134 165 258 L165 739 C165 745 162 752 155 752 L152 752 L92 742 C85 740 80 737 80 729 L80 265 C80 92 142 -13 375 -13 C640 -13 670 126 670 271 L670 271 Z M470 915 L439 955 C437 958 434 959 431 959 C430 959 428 958 426 957 L292 856 C289 854 288 852 288 849 C288 847 289 845 290 844 L320 806 C323 804 325 802 328 802 C330 802 331 803 333 804 L469 903 C471 905 472 908 472 910 C472 912 472 914 470 915 L470 915 Z " />
<glyph glyph-name="Ucircumflex" unicode="&#xdb;" horiz-adv-x="750" d="M670 271 L670 739 C670 745 667 752 660 752 L657 752 L597 742 C590 740 585 737 585 729 L585 240 C585 111 516 63 375 63 C202 63 165 134 165 258 L165 739 C165 745 162 752 155 752 L152 752 L92 742 C85 740 80 737 80 729 L80 265 C80 92 142 -13 375 -13 C640 -13 670 126 670 271 L670 271 Z M525 844 C526 845 527 847 527 849 C527 852 525 854 523 856 L387 957 L354 957 L218 856 C216 854 215 852 215 849 C215 847 215 845 217 844 L246 809 C249 807 251 805 254 805 C256 805 257 806 259 807 L371 895 L483 807 C484 806 486 805 488 805 C490 805 493 807 495 809 L525 844 Z " />
<glyph glyph-name="Udieresis" unicode="&#xdc;" horiz-adv-x="750" d="M670 271 L670 739 C670 745 667 752 660 752 L657 752 L597 742 C590 740 585 737 585 729 L585 240 C585 111 516 63 375 63 C202 63 165 134 165 258 L165 739 C165 745 162 752 155 752 L152 752 L92 742 C85 740 80 737 80 729 L80 265 C80 92 142 -13 375 -13 C640 -13 670 126 670 271 L670 271 Z M333 909 C333 915 328 919 323 919 L224 919 C219 919 215 915 215 909 L215 855 C215 849 219 845 224 845 L323 845 C328 845 333 849 333 855 L333 909 Z M523 909 C523 915 518 919 513 919 L414 919 C409 919 405 915 405 909 L405 855 C405 849 409 845 414 845 L513 845 C518 845 523 849 523 855 L523 909 Z " />
<glyph glyph-name="Yacute" unicode="&#xdd;" horiz-adv-x="618" d="M623 722 C624 724 625 726 625 727 C625 733 619 739 614 739 L544 739 C537 739 533 737 529 731 L311 380 L90 730 C86 736 81 739 74 739 L5 739 C-1 739 -7 733 -7 727 C-7 726 -6 724 -5 722 L265 307 L265 16 C265 7 273 0 281 0 L334 0 C343 0 350 7 350 16 L350 306 L623 722 Z M402 915 L370 955 C368 958 365 959 363 959 C361 959 359 958 357 957 L223 856 C220 854 219 852 219 849 C219 847 220 845 221 844 L251 806 C254 804 256 802 259 802 C261 802 263 803 264 804 L400 903 C402 905 403 908 403 910 C403 912 403 914 402 915 L402 915 Z " />
<glyph glyph-name="Thorn" unicode="&#xde;" horiz-adv-x="694" d="M653 377 C653 457 633 509 602 541 C557 587 490 596 420 596 L175 596 L175 739 C175 745 172 752 165 752 L162 752 L102 742 C95 740 90 737 90 729 L90 16 C90 7 97 0 106 0 L159 0 C168 0 175 7 175 16 L175 153 L342 151 C356 150 372 150 389 150 C462 150 547 157 600 209 C644 253 653 317 653 377 L653 377 Z M566 376 C566 319 553 284 531 262 C492 225 426 225 344 222 L175 216 L175 522 L404 522 C456 522 501 517 530 489 C553 467 566 432 566 376 L566 376 Z " />
<glyph glyph-name="germandbls" unicode="&#xdf;" horiz-adv-x="567" d="M524 171 C524 310 421 345 364 373 C356 377 352 383 352 390 C352 396 355 403 363 407 C425 443 474 477 474 572 C474 701 386 752 268 752 C106 752 70 675 70 575 L70 -197 C70 -203 73 -210 80 -210 L83 -210 L137 -197 C144 -195 149 -192 149 -184 L149 575 C149 662 190 685 271 685 C345 685 394 649 394 571 C394 453 279 465 279 386 C279 301 443 304 443 160 C443 89 387 53 321 53 C276 53 229 65 215 68 C214 68 213 69 212 69 C207 69 201 65 200 60 L193 22 C193 20 192 18 192 17 C192 10 196 7 200 6 C240 -8 287 -13 330 -13 C448 -13 524 50 524 171 L524 171 Z " />
<glyph glyph-name="agrave" unicode="&#xe0;" horiz-adv-x="551" d="M486 104 L486 391 C486 438 485 485 434 512 C405 528 359 538 288 538 C197 538 111 519 79 507 C76 506 69 503 69 495 L69 493 L78 448 C80 442 84 440 88 440 C90 440 92 441 94 441 C135 451 202 470 279 470 C323 470 351 466 370 458 C405 445 406 419 406 387 L406 340 L217 309 C118 293 44 286 44 152 C44 -10 187 -13 273 -13 C326 -13 374 -5 403 1 C472 18 486 34 486 104 L486 104 Z M407 69 C365 55 318 49 274 49 C208 49 126 56 126 156 C126 235 175 237 223 246 L407 277 L407 69 Z M376 637 C377 638 377 640 377 642 C377 645 376 647 374 649 L239 750 C237 751 236 752 234 752 C231 752 229 751 226 748 L195 708 C194 707 193 705 193 703 C193 701 194 698 197 696 L332 597 C334 596 336 595 337 595 C340 595 343 597 345 599 L376 637 Z " />
<glyph glyph-name="aacute" unicode="&#xe1;" horiz-adv-x="551" d="M486 104 L486 391 C486 438 485 485 434 512 C405 528 359 538 288 538 C197 538 111 519 79 507 C76 506 69 503 69 495 L69 493 L78 448 C80 442 84 440 88 440 C90 440 92 441 94 441 C135 451 202 470 279 470 C323 470 351 466 370 458 C405 445 406 419 406 387 L406 340 L217 309 C118 293 44 286 44 152 C44 -10 187 -13 273 -13 C326 -13 374 -5 403 1 C472 18 486 34 486 104 L486 104 Z M407 69 C365 55 318 49 274 49 C208 49 126 56 126 156 C126 235 175 237 223 246 L407 277 L407 69 Z M385 708 L354 748 C352 751 349 752 346 752 C345 752 343 751 341 750 L207 649 C204 647 203 645 203 642 C203 640 204 638 205 637 L235 599 C238 597 240 595 243 595 C245 595 246 596 248 597 L384 696 C386 698 387 701 387 703 C387 705 387 707 385 708 L385 708 Z " />
<glyph glyph-name="acircumflex" unicode="&#xe2;" horiz-adv-x="551" d="M486 104 L486 391 C486 438 485 485 434 512 C405 528 359 538 288 538 C197 538 111 519 79 507 C76 506 69 503 69 495 L69 493 L78 448 C80 442 84 440 88 440 C90 440 92 441 94 441 C135 451 202 470 279 470 C323 470 351 466 370 458 C405 445 406 419 406 387 L406 340 L217 309 C118 293 44 286 44 152 C44 -10 187 -13 273 -13 C326 -13 374 -5 403 1 C472 18 486 34 486 104 L486 104 Z M407 69 C365 55 318 49 274 49 C208 49 126 56 126 156 C126 235 175 237 223 246 L407 277 L407 69 Z M433 637 C434 638 435 640 435 642 C435 645 433 647 431 649 L295 750 L262 750 L126 649 C124 647 123 645 123 642 C123 640 123 638 125 637 L154 602 C157 600 159 598 162 598 C164 598 165 599 167 600 L279 688 L391 600 C392 599 394 598 396 598 C398 598 401 600 403 602 L433 637 Z " />
<glyph glyph-name="atilde" unicode="&#xe3;" horiz-adv-x="551" d="M486 104 L486 391 C486 438 485 485 434 512 C405 528 359 538 288 538 C197 538 111 519 79 507 C76 506 69 503 69 495 L69 493 L78 448 C80 442 84 440 88 440 C90 440 92 441 94 441 C135 451 202 470 279 470 C323 470 351 466 370 458 C405 445 406 419 406 387 L406 340 L217 309 C118 293 44 286 44 152 C44 -10 187 -13 273 -13 C326 -13 374 -5 403 1 C472 18 486 34 486 104 L486 104 Z M407 69 C365 55 318 49 274 49 C208 49 126 56 126 156 C126 235 175 237 223 246 L407 277 L407 69 Z M440 672 C440 674 440 677 439 678 L420 714 C418 717 416 720 412 720 C409 720 406 718 404 717 C384 701 362 684 337 684 C317 684 298 695 275 706 C255 715 234 724 211 724 C173 724 131 693 114 679 C112 677 110 675 110 671 C110 669 110 667 111 665 L130 629 C132 626 134 623 138 623 C140 623 144 625 146 626 C166 642 188 659 213 659 C233 659 252 648 275 637 C295 628 316 619 339 619 C377 619 418 650 436 664 C438 666 440 669 440 672 L440 672 Z " />
<glyph glyph-name="adieresis" unicode="&#xe4;" horiz-adv-x="551" d="M486 104 L486 391 C486 438 485 485 434 512 C405 528 359 538 288 538 C197 538 111 519 79 507 C76 506 69 503 69 495 L69 493 L78 448 C80 442 84 440 88 440 C90 440 92 441 94 441 C135 451 202 470 279 470 C323 470 351 466 370 458 C405 445 406 419 406 387 L406 340 L217 309 C118 293 44 286 44 152 C44 -10 187 -13 273 -13 C326 -13 374 -5 403 1 C472 18 486 34 486 104 L486 104 Z M407 69 C365 55 318 49 274 49 C208 49 126 56 126 156 C126 235 175 237 223 246 L407 277 L407 69 Z M434 695 C434 701 429 705 424 705 L325 705 C320 705 316 701 316 695 L316 641 C316 635 320 631 325 631 L424 631 C429 631 434 635 434 641 L434 695 Z M244 695 C244 701 239 705 234 705 L135 705 C130 705 126 701 126 695 L126 641 C126 635 130 631 135 631 L234 631 C239 631 244 635 244 641 L244 695 Z " />
<glyph glyph-name="aring" unicode="&#xe5;" horiz-adv-x="551" d="M486 104 L486 391 C486 438 485 485 434 512 C405 528 359 538 288 538 C197 538 111 519 79 507 C76 506 69 503 69 495 L69 493 L78 448 C80 442 84 440 88 440 C90 440 92 441 94 441 C135 451 202 470 279 470 C323 470 351 466 370 458 C405 445 406 419 406 387 L406 340 L217 309 C118 293 44 286 44 152 C44 -10 187 -13 273 -13 C326 -13 374 -5 403 1 C472 18 486 34 486 104 L486 104 Z M407 69 C365 55 318 49 274 49 C208 49 126 56 126 156 C126 235 175 237 223 246 L407 277 L407 69 Z M406 684 C406 763 364 791 289 791 C213 791 171 763 171 684 C171 605 213 576 289 576 C364 576 406 605 406 684 L406 684 Z M345 684 C345 637 334 616 289 616 C243 616 232 636 232 683 C232 731 243 751 289 751 C334 751 345 731 345 684 L345 684 Z " />
<glyph glyph-name="ae" unicode="&#xe6;" horiz-adv-x="914" d="M865 263 C865 332 859 404 833 449 C800 506 748 538 643 538 C540 538 486 507 455 441 C432 525 337 538 268 538 C197 538 98 516 79 507 C73 505 70 501 70 496 L70 493 L77 453 C79 446 84 441 89 441 L91 441 C107 445 211 470 279 470 C359 470 408 439 408 351 L200 309 C107 291 44 267 44 154 C44 8 158 -13 254 -13 C388 -13 420 43 444 87 C460 55 500 -13 647 -13 C713 -13 787 0 828 16 C834 19 838 22 838 27 L838 31 L826 69 C824 75 821 78 817 78 C815 78 813 77 811 76 C764 63 729 51 666 51 C597 51 548 62 519 99 C498 125 488 146 487 201 L852 201 C857 201 864 209 864 214 C865 232 865 249 865 263 L865 263 Z M781 268 L487 267 C487 403 513 475 635 475 C715 475 752 454 769 390 C779 353 780 306 781 268 L781 268 Z M409 202 C409 73 338 50 263 50 C188 50 126 71 126 154 C126 227 178 239 237 251 L409 287 L409 202 Z " />
<glyph glyph-name="ccedilla" unicode="&#xe7;" horiz-adv-x="478" d="M443 31 L436 63 C434 71 431 75 424 75 C423 75 421 74 418 74 C397 68 337 52 284 52 C164 52 126 103 126 263 C126 422 164 473 284 473 C337 473 397 455 418 449 C421 449 423 448 424 448 C431 448 434 452 436 460 L443 494 C443 495 444 497 444 499 C444 508 437 510 434 512 C409 523 339 538 280 538 C93 538 44 450 44 262 C44 75 93 -13 280 -13 C339 -13 409 2 434 13 C437 15 444 17 444 26 C444 28 443 29 443 31 L443 31 Z M378 -118 C378 -71 353 -37 286 -37 C231 -37 215 -44 209 -46 C205 -47 203 -49 203 -54 L203 -55 L207 -81 C207 -85 210 -88 216 -87 L217 -87 C224 -87 241 -82 265 -82 C287 -82 308 -88 308 -119 C308 -149 287 -155 265 -155 C241 -155 224 -150 217 -150 L216 -150 C210 -150 207 -152 207 -157 L204 -182 L204 -183 C204 -188 206 -191 210 -192 C216 -193 236 -200 282 -200 C338 -200 378 -179 378 -118 L378 -118 Z " />
<glyph glyph-name="egrave" unicode="&#xe8;" horiz-adv-x="556" d="M507 273 C507 342 501 404 475 449 C442 506 381 538 276 538 C78 538 44 431 44 262 C44 78 102 -13 298 -13 C364 -13 430 0 470 16 C476 19 480 22 480 27 L480 31 L469 69 C467 75 463 78 459 78 C457 78 455 77 453 76 C406 63 368 51 306 51 C236 51 187 62 158 99 C137 125 127 156 127 211 L494 211 C499 211 506 219 507 224 L507 273 Z M424 278 L126 277 C127 314 128 353 138 390 C155 454 194 475 274 475 C355 475 394 454 412 390 C421 353 423 316 424 278 L424 278 Z M362 637 C363 638 363 640 363 642 C363 645 362 647 360 649 L225 750 C223 751 222 752 220 752 C217 752 215 751 212 748 L181 708 C180 707 179 705 179 703 C179 701 180 698 183 696 L318 597 C320 596 322 595 323 595 C326 595 329 597 331 599 L362 637 Z " />
<glyph glyph-name="eacute" unicode="&#xe9;" horiz-adv-x="556" d="M507 273 C507 342 501 404 475 449 C442 506 381 538 276 538 C78 538 44 431 44 262 C44 78 102 -13 298 -13 C364 -13 430 0 470 16 C476 19 480 22 480 27 L480 31 L469 69 C467 75 463 78 459 78 C457 78 455 77 453 76 C406 63 368 51 306 51 C236 51 187 62 158 99 C137 125 127 156 127 211 L494 211 C499 211 506 219 507 224 L507 273 Z M424 278 L126 277 C127 314 128 353 138 390 C155 454 194 475 274 475 C355 475 394 454 412 390 C421 353 423 316 424 278 L424 278 Z M383 708 L352 748 C350 751 347 752 344 752 C343 752 341 751 339 750 L205 649 C202 647 201 645 201 642 C201 640 202 638 203 637 L233 599 C236 597 238 595 241 595 C243 595 244 596 246 597 L382 696 C384 698 385 701 385 703 C385 705 385 707 383 708 L383 708 Z " />
<glyph glyph-name="ecircumflex" unicode="&#xea;" horiz-adv-x="556" d="M507 273 C507 342 501 404 475 449 C442 506 381 538 276 538 C78 538 44 431 44 262 C44 78 102 -13 298 -13 C364 -13 430 0 470 16 C476 19 480 22 480 27 L480 31 L469 69 C467 75 463 78 459 78 C457 78 455 77 453 76 C406 63 368 51 306 51 C236 51 187 62 158 99 C137 125 127 156 127 211 L494 211 C499 211 506 219 507 224 L507 273 Z M424 278 L126 277 C127 314 128 353 138 390 C155 454 194 475 274 475 C355 475 394 454 412 390 C421 353 423 316 424 278 L424 278 Z M436 637 C437 638 438 640 438 642 C438 645 436 647 434 649 L298 750 L265 750 L129 649 C127 647 126 645 126 642 C126 640 126 638 128 637 L157 602 C160 600 162 598 165 598 C167 598 168 599 170 600 L282 688 L394 600 C395 599 397 598 399 598 C401 598 404 600 406 602 L436 637 Z " />
<glyph glyph-name="edieresis" unicode="&#xeb;" horiz-adv-x="556" d="M507 273 C507 342 501 404 475 449 C442 506 381 538 276 538 C78 538 44 431 44 262 C44 78 102 -13 298 -13 C364 -13 430 0 470 16 C476 19 480 22 480 27 L480 31 L469 69 C467 75 463 78 459 78 C457 78 455 77 453 76 C406 63 368 51 306 51 C236 51 187 62 158 99 C137 125 127 156 127 211 L494 211 C499 211 506 219 507 224 L507 273 Z M424 278 L126 277 C127 314 128 353 138 390 C155 454 194 475 274 475 C355 475 394 454 412 390 C421 353 423 316 424 278 L424 278 Z M433 695 C433 701 428 705 423 705 L324 705 C319 705 315 701 315 695 L315 641 C315 635 319 631 324 631 L423 631 C428 631 433 635 433 641 L433 695 Z M243 695 C243 701 238 705 233 705 L134 705 C129 705 125 701 125 695 L125 641 C125 635 129 631 134 631 L233 631 C238 631 243 635 243 641 L243 695 Z " />
<glyph glyph-name="igrave" unicode="&#xec;" horiz-adv-x="249" d="M164 15 L164 510 C164 519 158 525 149 525 L100 525 C91 525 85 519 85 510 L85 15 C85 6 91 0 100 0 L149 0 C158 0 164 6 164 15 L164 15 Z M205 637 C207 638 207 640 207 642 C207 645 206 647 204 649 L69 750 C67 751 66 752 64 752 C61 752 59 751 56 748 L25 708 C23 707 23 705 23 703 C23 701 24 698 26 696 L162 597 C164 596 165 595 167 595 C170 595 172 597 175 599 L205 637 Z " />
<glyph glyph-name="iacute" unicode="&#xed;" horiz-adv-x="249" d="M164 15 L164 510 C164 519 158 525 149 525 L100 525 C91 525 85 519 85 510 L85 15 C85 6 91 0 100 0 L149 0 C158 0 164 6 164 15 L164 15 Z M205 708 L174 748 C171 751 169 752 166 752 C164 752 163 751 161 750 L26 649 C24 647 23 645 23 642 C23 640 23 638 25 637 L55 599 C58 597 60 595 63 595 C65 595 66 596 68 597 L204 696 C206 698 207 701 207 703 C207 705 207 707 205 708 L205 708 Z " />
<glyph glyph-name="icircumflex" unicode="&#xee;" horiz-adv-x="249" d="M163 15 L163 510 C163 519 158 525 149 525 L99 525 C91 525 84 519 84 510 L84 15 C84 6 91 0 99 0 L149 0 C158 0 163 6 163 15 L163 15 Z M276 637 C277 638 277 640 277 642 C277 645 276 647 274 649 L138 750 L105 750 L-31 649 C-33 647 -34 645 -34 642 C-34 640 -34 638 -33 637 L-3 602 C-1 600 2 598 5 598 C6 598 8 599 10 600 L121 688 L233 600 C235 599 237 598 238 598 C241 598 244 600 246 602 L276 637 Z " />
<glyph glyph-name="idieresis" unicode="&#xef;" horiz-adv-x="249" d="M166 15 L166 510 C166 519 160 525 151 525 L102 525 C93 525 87 519 87 510 L87 15 C87 6 93 0 102 0 L151 0 C160 0 166 6 166 15 L166 15 Z M88 695 C88 701 84 705 79 705 L-20 705 C-25 705 -29 701 -29 695 L-29 641 C-29 635 -25 631 -20 631 L79 631 C84 631 88 635 88 641 L88 695 Z M278 695 C278 701 274 705 269 705 L170 705 C165 705 161 701 161 695 L161 641 C161 635 165 631 170 631 L269 631 C274 631 278 635 278 641 L278 695 Z " />
<glyph glyph-name="eth" unicode="&#xf0;" horiz-adv-x="556" d="M512 292 C512 513 456 647 359 722 L432 768 C435 769 438 773 438 776 C438 777 437 778 436 780 L409 811 C407 813 405 814 402 814 C401 814 399 813 398 812 L308 755 C235 797 142 807 70 807 C65 807 54 806 54 789 L54 755 C54 743 60 740 74 739 C100 738 182 737 243 709 L156 654 C154 652 152 650 152 647 C152 645 152 644 154 643 L181 613 C182 611 185 610 187 610 C189 610 190 610 192 611 L296 677 C329 656 398 587 413 474 C380 501 335 521 278 521 C49 521 44 340 44 254 C44 133 72 -13 279 -13 C508 -13 512 169 512 281 L512 292 Z M428 253 C428 150 414 51 278 51 C143 51 127 150 127 253 C127 357 143 457 278 457 C414 457 428 357 428 253 L428 253 Z " />
<glyph glyph-name="ntilde" unicode="&#xf1;" horiz-adv-x="575" d="M510 15 L510 394 C510 501 457 538 338 538 C274 538 174 523 122 505 C72 488 70 470 70 430 L70 15 C70 6 76 0 85 0 L135 0 C144 0 149 6 149 15 L149 446 C149 446 243 474 336 474 C406 474 431 451 431 385 L431 15 C431 6 437 0 446 0 L495 0 C504 0 510 6 510 15 L510 15 Z M455 672 C455 674 455 677 454 678 L435 714 C433 717 431 720 427 720 C424 720 421 718 419 717 C399 701 377 684 352 684 C332 684 313 695 290 706 C270 715 249 724 226 724 C188 724 146 693 129 679 C127 677 125 675 125 671 C125 669 125 667 126 665 L145 629 C147 626 149 623 153 623 C155 623 159 625 161 626 C181 642 203 659 228 659 C248 659 267 648 290 637 C310 628 331 619 354 619 C392 619 433 650 451 664 C453 666 455 669 455 672 L455 672 Z " />
<glyph glyph-name="ograve" unicode="&#xf2;" horiz-adv-x="556" d="M512 262 C512 413 488 538 278 538 C69 538 44 413 44 262 C44 112 69 -13 278 -13 C488 -13 512 112 512 262 L512 262 Z M429 262 C429 136 423 51 278 51 C133 51 127 136 127 262 C127 389 133 474 278 474 C423 474 429 389 429 262 L429 262 Z M364 637 C365 638 365 640 365 642 C365 645 364 647 362 649 L227 750 C225 751 224 752 222 752 C219 752 217 751 214 748 L183 708 C182 707 181 705 181 703 C181 701 182 698 185 696 L320 597 C322 596 324 595 325 595 C328 595 331 597 333 599 L364 637 Z " />
<glyph glyph-name="oacute" unicode="&#xf3;" horiz-adv-x="556" d="M512 262 C512 413 488 538 278 538 C69 538 44 413 44 262 C44 112 69 -13 278 -13 C488 -13 512 112 512 262 L512 262 Z M429 262 C429 136 423 51 278 51 C133 51 127 136 127 262 C127 389 133 474 278 474 C423 474 429 389 429 262 L429 262 Z M379 708 L348 748 C346 751 343 752 340 752 C339 752 337 751 335 750 L201 649 C198 647 197 645 197 642 C197 640 198 638 199 637 L229 599 C232 597 234 595 237 595 C239 595 240 596 242 597 L378 696 C380 698 381 701 381 703 C381 705 381 707 379 708 L379 708 Z " />
<glyph glyph-name="ocircumflex" unicode="&#xf4;" horiz-adv-x="556" d="M512 262 C512 413 488 538 278 538 C69 538 44 413 44 262 C44 112 69 -13 278 -13 C488 -13 512 112 512 262 L512 262 Z M429 262 C429 136 423 51 278 51 C133 51 127 136 127 262 C127 389 133 474 278 474 C423 474 429 389 429 262 L429 262 Z M433 637 C434 638 435 640 435 642 C435 645 433 647 431 649 L295 750 L262 750 L126 649 C124 647 123 645 123 642 C123 640 123 638 125 637 L154 602 C157 600 159 598 162 598 C164 598 165 599 167 600 L279 688 L391 600 C392 599 394 598 396 598 C398 598 401 600 403 602 L433 637 Z " />
<glyph glyph-name="otilde" unicode="&#xf5;" horiz-adv-x="556" d="M512 262 C512 413 488 538 278 538 C69 538 44 413 44 262 C44 112 69 -13 278 -13 C488 -13 512 112 512 262 L512 262 Z M429 262 C429 136 423 51 278 51 C133 51 127 136 127 262 C127 389 133 474 278 474 C423 474 429 389 429 262 L429 262 Z M443 672 C443 674 443 677 442 678 L423 714 C421 717 419 720 415 720 C412 720 409 718 407 717 C387 701 365 684 340 684 C320 684 301 695 278 706 C258 715 237 724 214 724 C176 724 134 693 117 679 C115 677 113 675 113 671 C113 669 113 667 114 665 L133 629 C135 626 137 623 141 623 C143 623 147 625 149 626 C169 642 191 659 216 659 C236 659 255 648 278 637 C298 628 319 619 342 619 C380 619 421 650 439 664 C441 666 443 669 443 672 L443 672 Z " />
<glyph glyph-name="odieresis" unicode="&#xf6;" horiz-adv-x="556" d="M512 262 C512 413 488 538 278 538 C69 538 44 413 44 262 C44 112 69 -13 278 -13 C488 -13 512 112 512 262 L512 262 Z M429 262 C429 136 423 51 278 51 C133 51 127 136 127 262 C127 389 133 474 278 474 C423 474 429 389 429 262 L429 262 Z M428 695 C428 701 423 705 418 705 L319 705 C314 705 310 701 310 695 L310 641 C310 635 314 631 319 631 L418 631 C423 631 428 635 428 641 L428 695 Z M238 695 C238 701 233 705 228 705 L129 705 C124 705 120 701 120 695 L120 641 C120 635 124 631 129 631 L228 631 C233 631 238 635 238 641 L238 695 Z " />
<glyph glyph-name="divide" unicode="&#xf7;" horiz-adv-x="584" d="M534 346 C534 355 528 361 519 361 L65 361 C56 361 50 355 50 346 L50 301 C50 292 56 286 65 286 L519 286 C528 286 534 292 534 301 L534 346 Z M344 555 C344 561 340 565 335 565 L249 565 C244 565 240 561 240 555 L240 451 C240 445 244 441 249 441 L335 441 C340 441 344 445 344 451 L344 555 Z M344 197 C344 202 340 207 335 207 L249 207 C244 207 240 202 240 197 L240 92 C240 87 244 83 249 83 L335 83 C340 83 344 87 344 92 L344 197 Z " />
<glyph glyph-name="oslash" unicode="&#xf8;" horiz-adv-x="597" d="M553 521 C555 523 556 525 556 527 C556 529 555 531 552 533 L525 557 C524 558 522 559 520 559 C517 559 515 558 513 556 L461 494 C426 522 374 538 299 538 C89 538 65 413 65 262 C65 189 71 122 101 72 L44 5 C42 3 41 1 41 -1 C41 -3 43 -5 45 -7 L72 -31 C74 -33 76 -33 78 -33 C80 -33 83 -32 84 -30 L137 31 C172 3 223 -13 299 -13 C509 -13 533 112 533 262 C533 337 527 404 496 454 L553 521 Z M450 262 C450 136 444 51 299 51 C242 51 206 64 184 87 L440 388 C449 354 450 311 450 262 L450 262 Z M413 438 L158 139 C149 172 148 214 148 262 C148 389 154 474 299 474 C355 474 391 461 413 438 L413 438 Z " />
<glyph glyph-name="ugrave" unicode="&#xf9;" horiz-adv-x="569" d="M505 196 L505 525 C505 531 502 538 495 538 L492 538 L438 525 C431 523 425 520 425 512 L425 189 C425 114 415 50 285 50 C177 50 144 92 144 186 L144 525 C144 531 142 538 135 538 L132 538 L78 525 C70 523 65 520 65 512 L65 194 C65 62 109 -13 285 -13 C491 -13 505 97 505 196 L505 196 Z M370 637 C371 638 371 640 371 642 C371 645 370 647 368 649 L233 750 C231 751 230 752 228 752 C225 752 223 751 220 748 L189 708 C188 707 187 705 187 703 C187 701 188 698 191 696 L326 597 C328 596 330 595 331 595 C334 595 337 597 339 599 L370 637 Z " />
<glyph glyph-name="uacute" unicode="&#xfa;" horiz-adv-x="569" d="M505 196 L505 525 C505 531 502 538 495 538 L492 538 L438 525 C431 523 425 520 425 512 L425 189 C425 114 415 50 285 50 C177 50 144 92 144 186 L144 525 C144 531 142 538 135 538 L132 538 L78 525 C70 523 65 520 65 512 L65 194 C65 62 109 -13 285 -13 C491 -13 505 97 505 196 L505 196 Z M384 708 L353 748 C351 751 348 752 345 752 C344 752 342 751 340 750 L206 649 C203 647 202 645 202 642 C202 640 203 638 204 637 L234 599 C237 597 239 595 242 595 C244 595 245 596 247 597 L383 696 C385 698 386 701 386 703 C386 705 386 707 384 708 L384 708 Z " />
<glyph glyph-name="ucircumflex" unicode="&#xfb;" horiz-adv-x="569" d="M505 196 L505 525 C505 531 502 538 495 538 L492 538 L438 525 C431 523 425 520 425 512 L425 189 C425 114 415 50 285 50 C177 50 144 92 144 186 L144 525 C144 531 142 538 135 538 L132 538 L78 525 C70 523 65 520 65 512 L65 194 C65 62 109 -13 285 -13 C491 -13 505 97 505 196 L505 196 Z M440 637 C441 638 442 640 442 642 C442 645 440 647 438 649 L302 750 L269 750 L133 649 C131 647 130 645 130 642 C130 640 130 638 132 637 L161 602 C164 600 166 598 169 598 C171 598 172 599 174 600 L286 688 L398 600 C399 599 401 598 403 598 C405 598 408 600 410 602 L440 637 Z " />
<glyph glyph-name="udieresis" unicode="&#xfc;" horiz-adv-x="569" d="M505 196 L505 525 C505 531 502 538 495 538 L492 538 L438 525 C431 523 425 520 425 512 L425 189 C425 114 415 50 285 50 C177 50 144 92 144 186 L144 525 C144 531 142 538 135 538 L132 538 L78 525 C70 523 65 520 65 512 L65 194 C65 62 109 -13 285 -13 C491 -13 505 97 505 196 L505 196 Z M246 695 C246 701 241 705 236 705 L137 705 C132 705 128 701 128 695 L128 641 C128 635 132 631 137 631 L236 631 C241 631 246 635 246 641 L246 695 Z M436 695 C436 701 431 705 426 705 L327 705 C322 705 318 701 318 695 L318 641 C318 635 322 631 327 631 L426 631 C431 631 436 635 436 641 L436 695 Z " />
<glyph glyph-name="yacute" unicode="&#xfd;" horiz-adv-x="503" d="M491 510 C492 511 492 512 492 513 C492 520 486 525 480 525 L417 525 C408 525 402 519 401 512 L273 58 L247 58 L105 512 C103 519 100 525 90 525 L31 525 C25 525 19 519 19 513 C19 512 20 511 20 509 L187 16 C190 6 198 0 207 0 L248 0 L225 -76 C209 -132 180 -142 129 -142 C109 -142 81 -141 71 -141 L70 -141 C64 -141 59 -146 59 -151 L59 -195 C59 -199 61 -204 70 -206 C89 -209 108 -210 140 -210 C247 -210 277 -170 306 -77 L491 510 Z M360 708 L329 748 C327 750 324 752 321 752 C320 752 318 751 316 750 L182 649 C179 647 178 644 178 642 C178 640 179 638 180 637 L210 599 C213 596 215 595 218 595 C220 595 221 596 223 597 L359 696 C361 698 362 700 362 703 C362 705 362 706 360 708 L360 708 Z " />
<glyph glyph-name="thorn" unicode="&#xfe;" horiz-adv-x="569" d="M525 263 C525 452 479 538 312 538 C237 538 139 508 139 508 L149 565 L149 739 C149 745 146 752 139 752 L136 752 L82 738 C75 737 70 734 70 726 L70 -197 C70 -203 73 -210 80 -210 L83 -210 L137 -197 C144 -195 149 -192 149 -184 L149 -53 L138 6 C174 -4 231 -13 291 -13 C472 -13 525 69 525 263 L525 263 Z M443 261 C443 103 404 49 289 49 C204 49 149 68 149 68 L149 449 C149 449 238 473 300 473 C415 473 443 422 443 261 L443 261 Z " />
<glyph glyph-name="ydieresis" unicode="&#xff;" horiz-adv-x="503" d="M491 510 C492 511 492 512 492 513 C492 520 486 525 480 525 L417 525 C408 525 402 519 401 512 L273 58 L247 58 L105 512 C103 519 100 525 90 525 L31 525 C25 525 19 519 19 513 C19 512 20 511 20 509 L187 16 C190 6 198 0 207 0 L248 0 L225 -76 C209 -132 180 -142 129 -142 C109 -142 81 -141 71 -141 L70 -141 C64 -141 59 -146 59 -151 L59 -195 C59 -199 61 -204 70 -206 C89 -209 108 -210 140 -210 C247 -210 277 -170 306 -77 L491 510 Z M215 695 C215 701 210 705 205 705 L106 705 C101 705 97 701 97 695 L97 641 C97 635 101 631 106 631 L205 631 C210 631 215 635 215 641 L215 695 Z M405 695 C405 701 400 705 395 705 L296 705 C291 705 287 701 287 695 L287 641 C287 635 291 631 296 631 L395 631 C400 631 405 635 405 641 L405 695 Z " />
<glyph glyph-name="dotlessi" unicode="&#x131;" horiz-adv-x="249" d="M164 15 L164 510 C164 519 158 525 149 525 L100 525 C91 525 85 519 85 510 L85 15 C85 6 91 0 100 0 L149 0 C158 0 164 6 164 15 L164 15 Z " />
<glyph glyph-name="Lslash" unicode="&#x141;" horiz-adv-x="587" d="M573 16 L573 62 C573 71 566 78 557 78 L190 78 L190 354 L446 433 C451 435 456 438 456 442 L456 445 L441 494 C440 498 436 500 432 500 L429 500 L190 424 L190 739 C190 745 188 752 180 752 L177 752 L118 742 C110 740 105 737 105 729 L105 398 L17 371 C13 369 10 367 10 362 L10 359 L24 312 C25 308 29 306 33 306 L35 306 L105 328 L105 16 C105 7 112 0 121 0 L557 0 C566 0 573 7 573 16 L573 16 Z " />
<glyph glyph-name="lslash" unicode="&#x142;" horiz-adv-x="322" d="M322 402 L307 450 C306 454 302 457 298 457 C297 457 296 457 295 456 L184 422 L184 739 C184 745 181 752 174 752 L171 752 L117 738 C110 737 105 734 105 726 L105 398 L17 371 C13 369 10 367 10 362 L10 359 L24 312 C25 308 29 306 33 306 L35 306 L105 327 L105 93 C105 19 145 -10 205 -10 C241 -10 268 -2 276 2 C279 3 284 5 284 12 C284 13 283 14 283 16 L276 51 C275 57 272 58 269 58 L264 58 C259 56 243 54 229 54 C209 54 184 59 184 95 L184 352 L313 391 C317 392 322 395 322 400 L322 402 Z " />
<glyph glyph-name="OE" unicode="&#x152;" horiz-adv-x="1068" d="M1013 16 L1013 59 C1013 68 1006 75 998 75 L651 75 L651 347 L983 347 C991 347 998 354 998 363 L998 407 C998 416 991 423 983 423 L651 423 L651 664 L997 664 C1006 664 1013 671 1013 680 L1013 723 C1013 732 1006 739 997 739 L582 739 C573 739 566 732 566 724 L566 676 C521 718 454 752 354 752 C86 752 55 558 55 369 C55 180 86 -13 354 -13 C454 -13 521 20 566 62 L566 16 C566 7 573 0 582 0 L998 0 C1006 0 1013 7 1013 16 L1013 16 Z M565 369 C565 181 541 64 353 64 C166 64 143 181 143 369 C143 558 166 675 353 675 C541 675 565 558 565 369 L565 369 Z " />
<glyph glyph-name="oe" unicode="&#x153;" horiz-adv-x="937" d="M888 273 C888 342 882 403 856 449 C823 506 762 538 657 538 C559 538 502 513 469 467 C435 511 377 538 278 538 C69 538 44 410 44 263 C44 115 69 -13 278 -13 C381 -13 439 16 471 63 C510 12 575 -13 679 -13 C745 -13 811 0 851 16 C857 19 861 22 861 27 L861 31 L850 68 C848 75 844 77 840 77 C838 77 836 77 834 76 C787 63 749 51 687 51 C617 51 568 62 539 99 C518 125 508 156 508 211 L875 211 C880 211 887 219 888 224 L888 273 Z M429 263 C429 140 423 51 278 51 C133 51 127 140 127 263 C127 385 133 474 278 474 C423 474 429 385 429 263 L429 263 Z M805 278 L507 277 C508 314 509 353 519 390 C536 454 575 474 655 474 C736 474 775 454 793 390 C802 353 804 315 805 278 L805 278 Z " />
<glyph glyph-name="Scaron" unicode="&#x160;" horiz-adv-x="657" d="M602 212 C602 392 461 400 341 416 C245 429 144 449 144 551 C144 653 245 672 331 672 C440 672 528 646 548 642 L550 642 C555 642 563 646 565 651 L576 695 L576 699 C576 706 572 712 563 715 C542 722 451 750 334 750 C198 750 60 711 60 544 C60 377 201 352 317 337 C430 323 516 309 516 205 C516 96 419 65 328 65 C219 65 117 93 97 97 L95 97 C90 97 81 93 80 88 L69 44 C69 43 68 41 68 40 C68 33 73 26 81 24 C103 17 194 -11 311 -11 C455 -11 602 34 602 212 L602 212 Z M499 933 L469 968 C467 971 464 972 462 972 C460 972 458 971 457 970 L345 883 L233 970 C231 971 230 972 228 972 C225 972 223 971 220 968 L191 933 C189 932 189 930 189 928 C189 926 190 923 192 921 L328 820 L361 820 L497 921 C499 923 501 926 501 928 C501 930 500 932 499 933 L499 933 Z " />
<glyph glyph-name="scaron" unicode="&#x161;" horiz-adv-x="485" d="M446 149 C446 285 349 292 259 304 C197 312 129 320 129 388 C129 451 189 471 261 471 C320 471 394 453 408 452 L410 452 C414 452 418 454 419 460 L426 504 L426 506 C426 511 423 516 416 517 C405 520 339 538 253 538 C165 538 50 511 50 382 C50 250 175 241 224 233 C302 221 366 224 366 141 C366 80 317 53 232 53 C150 53 79 79 71 82 L66 82 C59 82 56 78 55 73 L45 34 L45 31 C45 25 49 23 53 21 C66 16 142 -13 230 -13 C346 -13 446 19 446 149 L446 149 Z M407 715 L377 750 C375 753 372 754 370 754 C368 754 366 753 365 752 L253 665 L141 752 C139 753 138 754 136 754 C133 754 131 753 128 750 L99 715 C97 714 97 712 97 710 C97 708 98 705 100 703 L236 602 L269 602 L405 703 C407 705 409 708 409 710 C409 712 408 714 407 715 L407 715 Z " />
<glyph glyph-name="Ydieresis" unicode="&#x178;" horiz-adv-x="618" d="M623 722 C624 724 625 726 625 727 C625 733 619 739 614 739 L544 739 C537 739 533 737 529 731 L311 380 L90 730 C86 736 81 739 74 739 L5 739 C-1 739 -7 733 -7 727 C-7 726 -6 724 -5 722 L265 307 L265 16 C265 7 273 0 281 0 L334 0 C343 0 350 7 350 16 L350 306 L623 722 Z M260 909 C260 915 255 919 250 919 L151 919 C146 919 142 915 142 909 L142 855 C142 849 146 845 151 845 L250 845 C255 845 260 849 260 855 L260 909 Z M450 909 C450 915 445 919 440 919 L341 919 C336 919 332 915 332 909 L332 855 C332 849 336 845 341 845 L440 845 C445 845 450 849 450 855 L450 909 Z " />
<glyph glyph-name="Zcaron" unicode="&#x17d;" horiz-adv-x="633" d="M593 59 C593 68 587 75 578 75 L145 75 L576 650 C581 658 584 661 584 673 L584 723 C584 732 577 739 569 739 L55 739 C47 739 40 732 40 723 L40 680 C40 671 47 664 55 664 L479 664 L54 88 C47 78 43 78 43 59 L43 16 C43 7 49 0 58 0 L578 0 C587 0 593 7 593 16 L593 59 Z M468 933 L438 968 C436 971 433 972 430 972 C429 972 427 971 425 970 L313 883 L202 970 C200 971 198 972 197 972 C194 972 191 971 189 968 L159 933 C158 932 158 930 158 928 C158 926 159 923 161 921 L297 820 L330 820 L466 921 C468 923 469 926 469 928 C469 930 469 932 468 933 L468 933 Z " />
<glyph glyph-name="zcaron" unicode="&#x17e;" horiz-adv-x="483" d="M448 15 L448 49 C448 58 442 64 433 64 L129 64 L438 442 C445 450 446 455 446 461 L446 510 C446 519 440 525 431 525 L50 525 C41 525 35 519 35 510 L35 476 C35 467 41 461 50 461 L358 461 L50 84 C43 75 41 73 41 63 L41 15 C41 6 47 0 56 0 L433 0 C442 0 448 6 448 15 L448 15 Z M401 715 L372 750 C369 753 367 754 364 754 C362 754 361 753 359 752 L247 665 L135 752 C134 753 132 754 130 754 C128 754 125 753 123 750 L93 715 C92 714 91 712 91 710 C91 708 93 705 95 703 L231 602 L264 602 L400 703 C402 705 403 708 403 710 C403 712 403 714 401 715 L401 715 Z " />
<glyph glyph-name="florin" unicode="&#x192;" horiz-adv-x="543" d="M463 737 L464 738 C464 742 459 746 454 747 C454 747 431 752 404 752 C271 752 240 709 218 584 L199 473 L112 473 C107 473 103 469 102 464 L93 417 L93 416 C93 412 97 408 103 408 L187 408 L80 -196 L80 -197 C80 -201 85 -205 89 -205 L150 -205 C155 -205 159 -201 159 -196 L267 409 L398 409 C403 409 406 413 407 418 L416 465 L416 466 C416 470 412 474 407 474 L278 474 L298 591 C310 659 316 687 396 687 C413 687 430 684 446 684 L447 684 C451 684 455 688 455 693 L463 737 Z " />
<glyph glyph-name="circumflex" unicode="&#x2c6;" horiz-adv-x="458" d="M383 637 C384 638 385 640 385 642 C385 645 384 647 382 649 L246 750 L213 750 L77 649 C74 647 73 645 73 642 C73 640 74 638 75 637 L105 602 C107 600 110 598 112 598 C114 598 116 599 117 600 L229 688 L341 600 C343 599 344 598 346 598 C349 598 351 600 354 602 L383 637 Z " />
<glyph glyph-name="caron" unicode="&#x2c7;" horiz-adv-x="458" d="M383 715 L354 750 C351 753 349 754 346 754 C344 754 343 753 341 752 L229 665 L117 752 C116 753 114 754 112 754 C110 754 107 753 105 750 L75 715 C74 714 73 712 73 710 C73 708 74 705 77 703 L213 602 L246 602 L382 703 C384 705 385 708 385 710 C385 712 384 714 383 715 L383 715 Z " />
<glyph glyph-name="breve" unicode="&#x2d8;" horiz-adv-x="483" d="M408 730 C408 735 405 739 399 739 L359 739 C354 739 351 735 351 730 C349 663 324 636 241 636 C158 636 134 663 132 730 C132 735 129 739 123 739 L83 739 C78 739 75 735 75 730 C75 614 133 579 241 579 C350 579 408 614 408 730 L408 730 Z " />
<glyph glyph-name="dotaccent" unicode="&#x2d9;" horiz-adv-x="267" d="M193 646 L193 690 C193 699 187 705 178 705 L90 705 C81 705 75 699 75 690 L75 646 C75 637 81 631 90 631 L178 631 C187 631 193 637 193 646 L193 646 Z " />
<glyph glyph-name="ring" unicode="&#x2da;" horiz-adv-x="384" d="M309 684 C309 763 268 791 192 791 C117 791 75 763 75 684 C75 605 117 576 192 576 C268 576 309 605 309 684 L309 684 Z M248 684 C248 637 238 616 192 616 C146 616 136 636 136 683 C136 731 146 751 192 751 C238 751 248 731 248 684 L248 684 Z " />
<glyph glyph-name="ogonek" unicode="&#x2db;" horiz-adv-x="357" d="M283 -179 L279 -153 C278 -148 275 -143 271 -143 L270 -143 C250 -145 239 -151 212 -151 C160 -151 142 -134 142 -98 C142 -50 182 2 212 32 L176 57 C140 26 75 -35 75 -110 C75 -183 133 -200 190 -200 C235 -200 254 -194 273 -190 C278 -189 283 -185 283 -180 L283 -179 Z " />
<glyph glyph-name="tilde" unicode="&#x2dc;" horiz-adv-x="481" d="M406 672 C406 674 405 676 404 678 L385 714 C384 717 381 720 377 720 C375 720 371 718 369 717 C350 701 327 684 303 684 C282 684 263 695 240 706 C220 715 199 724 177 724 C138 724 97 693 80 679 C77 677 75 675 75 671 C75 669 76 667 76 665 L95 629 C97 626 99 623 103 623 C106 623 109 625 111 626 C131 642 153 659 178 659 C198 659 218 648 241 637 C261 628 281 619 304 619 C342 619 384 650 401 664 C403 666 406 669 406 672 L406 672 Z " />
<glyph glyph-name="hungarumlaut" unicode="&#x2dd;" horiz-adv-x="486" d="M411 715 L384 748 C382 751 379 752 377 752 C375 752 373 751 372 750 L237 649 C234 647 233 645 233 642 C233 640 234 638 235 637 L261 604 C263 602 265 600 268 600 C270 600 272 601 273 602 L409 703 C411 705 412 708 412 710 C412 712 412 714 411 715 L411 715 Z M251 715 L224 748 C222 751 219 752 217 752 C215 752 213 751 212 750 L77 649 C74 647 73 645 73 642 C73 640 74 638 75 637 L101 604 C103 602 105 600 108 600 C110 600 112 601 113 602 L249 703 C251 705 252 708 252 710 C252 712 252 714 251 715 L251 715 Z " />
<glyph glyph-name="endash" unicode="&#x2013;" horiz-adv-x="469" d="M485 297 C485 305 479 311 470 311 L0 311 C-9 311 -15 305 -15 297 L-15 251 C-15 242 -9 236 0 236 L469 236 C478 236 485 242 485 251 L485 297 Z " />
<glyph glyph-name="emdash" unicode="&#x2014;" horiz-adv-x="1000" d="M1000 297 C1000 305 994 311 985 311 L15 311 C6 311 0 305 0 297 L0 251 C0 242 6 236 15 236 L985 236 C993 236 1000 242 1000 251 L1000 297 Z " />
<glyph glyph-name="quoteleft" unicode="&#x2018;" horiz-adv-x="220" d="M173 724 L173 727 C173 734 170 739 162 739 L125 739 C121 739 114 736 112 727 L48 519 C47 517 47 514 47 512 C47 506 50 501 59 501 L127 501 C133 501 140 506 141 513 L173 724 Z " />
<glyph glyph-name="quoteright" unicode="&#x2019;" horiz-adv-x="220" d="M173 721 C173 724 174 726 174 728 C174 735 170 739 161 739 L94 739 C87 739 81 734 80 728 L48 516 L48 513 C48 506 51 501 59 501 L96 501 C99 501 106 505 109 513 L173 721 Z " />
<glyph glyph-name="quotesinglbase" unicode="&#x201a;" horiz-adv-x="177" d="M129 155 C130 160 125 164 120 164 L58 164 C52 164 48 160 48 155 L48 -64 C48 -69 52 -74 58 -74 L106 -74 C111 -74 115 -69 115 -64 L129 155 Z " />
<glyph glyph-name="quotedblleft" unicode="&#x201c;" horiz-adv-x="377" d="M173 724 L173 727 C173 734 170 739 162 739 L125 739 C121 739 114 736 112 727 L48 519 C47 517 47 514 47 512 C47 506 50 501 59 501 L127 501 C133 501 140 506 141 513 L173 724 Z M329 724 L329 727 C329 734 326 739 318 739 L281 739 C278 739 270 736 268 727 L204 519 C204 517 203 514 203 512 C203 506 206 501 216 501 L283 501 C290 501 296 506 297 513 L329 724 Z " />
<glyph glyph-name="quotedblright" unicode="&#x201d;" horiz-adv-x="377" d="M329 721 C330 724 330 726 330 728 C330 735 327 739 317 739 L250 739 C244 739 237 734 236 728 L204 516 L204 513 C204 506 207 501 215 501 L252 501 C256 501 263 505 265 513 L329 721 Z M173 721 C173 724 174 726 174 728 C174 735 170 739 161 739 L94 739 C87 739 81 734 80 728 L48 516 L48 513 C48 506 51 501 59 501 L96 501 C99 501 106 505 109 513 L173 721 Z " />
<glyph glyph-name="quotedblbase" unicode="&#x201e;" horiz-adv-x="317" d="M269 155 C269 160 264 164 259 164 L197 164 C192 164 187 160 187 155 L187 -64 C187 -69 192 -74 197 -74 L245 -74 C250 -74 254 -69 255 -64 L269 155 Z M129 155 C130 160 125 164 120 164 L58 164 C52 164 48 160 48 155 L48 -64 C48 -69 52 -74 58 -74 L106 -74 C111 -74 115 -69 115 -64 L129 155 Z " />
<glyph glyph-name="dagger" unicode="&#x2020;" horiz-adv-x="691" d="M562 299 L562 339 C562 348 556 354 547 354 L379 354 L389 411 L388 739 C388 745 386 752 378 752 L375 752 L317 738 C309 737 303 734 303 726 L303 411 L313 354 L145 354 C136 354 130 348 130 339 L130 299 C130 290 136 284 145 284 L313 284 L303 227 L303 -197 C303 -203 306 -210 314 -210 L317 -210 L375 -197 C383 -195 388 -192 388 -184 L388 227 L379 284 L547 284 C556 284 562 290 562 299 L562 299 Z " />
<glyph glyph-name="daggerdbl" unicode="&#x2021;" horiz-adv-x="691" d="M562 379 L562 419 C562 428 556 434 547 434 L379 434 L389 491 L388 739 C388 745 386 752 378 752 L375 752 L317 738 C309 737 303 734 303 726 L303 491 L313 434 L145 434 C136 434 130 428 130 419 L130 379 C130 370 136 364 145 364 L313 364 L303 307 L303 235 L313 178 L145 178 C136 178 130 172 130 163 L130 123 C130 114 136 108 145 108 L313 108 L303 51 L303 -197 C303 -203 306 -210 314 -210 L317 -210 L375 -197 C383 -195 388 -192 388 -184 L388 51 L378 108 L547 108 C556 108 562 114 562 123 L562 163 C562 172 556 178 547 178 L378 178 L388 235 L388 307 L379 364 L547 364 C556 364 562 370 562 379 L562 379 Z " />
<glyph glyph-name="bullet" unicode="&#x2022;" horiz-adv-x="424" d="M344 256 L344 434 C344 458 325 478 301 478 L123 478 C99 478 80 458 80 434 L80 256 C80 232 100 212 124 212 L301 212 C325 212 344 232 344 256 L344 256 Z " />
<glyph glyph-name="ellipsis" unicode="&#x2026;" horiz-adv-x="931" d="M835 15 L835 67 C835 76 829 82 820 82 L711 82 C702 82 696 76 696 67 L696 15 C696 6 702 0 711 0 L820 0 C829 0 835 6 835 15 L835 15 Z M542 15 L542 67 C542 76 536 82 527 82 L418 82 C409 82 403 76 403 67 L403 15 C403 6 409 0 418 0 L527 0 C536 0 542 6 542 15 L542 15 Z M249 15 L249 67 C249 76 243 82 234 82 L125 82 C116 82 110 76 110 67 L110 15 C110 6 116 0 125 0 L234 0 C243 0 249 6 249 15 L249 15 Z " />
<glyph glyph-name="perthousand" unicode="&#x2030;" horiz-adv-x="1206" d="M1186 177 C1186 273 1169 368 1024 368 C879 368 862 273 862 177 C862 81 879 -13 1024 -13 C1169 -13 1186 81 1186 177 L1186 177 Z M806 177 C806 273 789 368 644 368 C499 368 482 273 482 177 C482 81 499 -13 644 -13 C789 -13 806 81 806 177 L806 177 Z M343 561 C343 657 326 752 182 752 C37 752 20 657 20 561 C20 465 37 371 182 371 C326 371 343 465 343 561 L343 561 Z M674 703 C675 705 676 707 676 709 C676 712 674 715 672 716 L638 739 C637 740 635 741 633 741 C631 741 628 740 626 737 L152 34 C151 32 150 30 150 29 C150 26 151 23 154 21 L187 -2 C189 -3 190 -3 192 -3 C195 -3 198 -2 199 0 L674 703 Z M738 177 C738 94 727 44 644 44 C561 44 550 94 550 177 C550 261 561 311 644 311 C727 311 738 261 738 177 L738 177 Z M1118 177 C1118 94 1107 44 1024 44 C941 44 930 94 930 177 C930 261 941 311 1024 311 C1107 311 1118 261 1118 177 L1118 177 Z M275 562 C275 478 264 428 181 428 C99 428 88 478 88 562 C88 645 98 695 181 695 C264 695 275 645 275 562 L275 562 Z " />
<glyph glyph-name="guilsinglleft" unicode="&#x2039;" horiz-adv-x="332" d="M276 79 L127 289 L276 499 C277 500 278 502 278 503 C278 507 276 510 273 512 L234 540 C233 541 231 541 230 541 C226 541 223 539 221 536 L56 295 C55 293 54 291 54 289 C54 286 55 284 56 282 L221 42 C223 39 226 37 230 37 C231 37 233 37 234 38 L273 66 C276 68 278 71 278 75 C278 76 277 78 276 79 L276 79 Z " />
<glyph glyph-name="guilsinglright" unicode="&#x203a;" horiz-adv-x="332" d="M276 295 L112 536 C110 539 106 541 103 541 C101 541 99 541 98 540 L59 512 C56 510 54 507 54 503 C54 502 55 500 56 499 L206 289 L56 79 C55 78 54 76 54 75 C54 71 56 68 59 66 L98 38 C99 37 101 37 103 37 C106 37 110 39 112 42 L276 282 C278 284 278 286 278 289 C278 291 278 293 276 295 L276 295 Z " />
<glyph glyph-name="fraction" unicode="&#x2044;" horiz-adv-x="512" d="M517 703 C518 705 519 707 519 709 C519 712 518 715 515 716 L482 739 C480 740 479 741 477 741 C474 741 471 740 469 737 L-5 34 C-6 32 -7 30 -7 29 C-7 26 -5 23 -3 21 L31 -2 C32 -3 34 -3 35 -3 C38 -3 41 -2 43 0 L517 703 Z " />
<glyph glyph-name="Euro" unicode="&#x20ac;" horiz-adv-x="658" d="M633 49 L621 90 C619 96 614 99 608 99 C605 99 602 98 599 97 C565 88 488 67 401 67 C242 67 216 159 207 284 L546 284 C553 284 557 289 558 294 L565 341 L565 343 C565 347 562 350 557 350 L51 350 C42 350 36 344 36 335 L36 299 C36 290 42 284 51 284 L121 284 C133 96 190 -10 407 -10 C497 -10 582 12 621 28 C630 31 634 37 634 43 C634 45 633 47 633 49 L633 49 Z M633 690 C633 692 634 694 634 696 C634 702 630 707 621 711 C582 727 497 748 407 748 C206 748 137 657 122 475 L51 475 C42 475 36 469 36 460 L36 424 C36 415 42 409 51 409 L556 409 C562 409 566 414 567 419 L574 466 L574 468 C575 472 571 475 567 475 L208 475 C217 575 242 672 401 672 C488 672 565 651 599 641 C602 641 605 640 608 640 C614 640 619 643 621 649 L633 690 Z " />
<glyph glyph-name="trademark" unicode="&#x2122;" horiz-adv-x="1010" d="M949 333 L924 724 C923 733 918 739 909 739 L781 739 C776 739 773 735 772 730 L696 469 L625 730 C623 735 620 739 615 739 L486 739 C477 739 472 733 471 724 L446 333 L446 332 C446 324 453 318 461 318 L503 318 C512 318 517 324 517 333 L537 672 L568 672 L644 420 C646 415 649 411 654 411 L738 411 C743 411 745 415 747 420 L827 672 L858 672 L878 333 C878 324 884 318 893 318 L934 318 C943 318 949 324 949 332 L949 333 Z M417 695 L417 725 C417 733 411 739 402 739 L60 739 C51 739 45 733 45 724 L45 694 C45 686 51 680 60 680 L193 680 L193 333 C193 324 200 318 208 318 L254 318 C263 318 268 324 268 333 L268 680 L402 680 C411 680 417 686 417 695 L417 695 Z " />
<glyph glyph-name="minus" unicode="&#x2212;" horiz-adv-x="584" d="M493 348 C493 357 487 363 478 363 L106 363 C97 363 91 357 91 348 L91 303 C91 294 97 288 106 288 L478 288 C487 288 493 294 493 303 L493 348 Z " />
<glyph glyph-name="fi" unicode="&#xfb01;" horiz-adv-x="554" d="M469 15 L469 510 C469 519 463 525 455 525 L180 525 L180 586 C180 667 209 687 288 687 C361 687 403 672 429 667 L431 667 C438 667 442 671 443 678 L449 715 L449 717 C449 724 442 728 435 730 C421 734 358 752 275 752 C200 752 161 737 132 701 C110 674 101 628 101 586 L101 525 L23 525 C14 525 8 519 8 510 L8 476 C8 467 14 461 23 461 L101 461 L101 15 C101 6 106 0 116 0 L166 0 C175 0 180 6 180 15 L180 461 L390 461 L390 15 C390 6 396 0 405 0 L455 0 C463 0 469 6 469 15 L469 15 Z " />
<glyph glyph-name="fl" unicode="&#xfb02;" horiz-adv-x="588" d="M568 16 L561 51 C560 57 557 58 554 58 L550 58 C544 56 528 54 514 54 C494 54 469 59 469 95 L469 739 C469 745 467 752 459 752 L456 752 L403 738 C395 737 390 734 390 726 L390 525 L180 525 L180 621 C180 676 210 688 262 688 C301 688 338 681 358 677 C366 677 371 680 372 688 L377 723 L377 724 C377 731 371 735 364 737 C341 742 299 752 246 752 C148 752 101 709 101 613 L101 525 L23 525 C14 525 8 519 8 510 L8 476 C8 467 14 461 23 461 L101 461 L101 15 C101 6 107 0 116 0 L166 0 C175 0 180 6 180 15 L180 461 L390 461 L390 93 C390 19 430 -10 490 -10 C526 -10 553 -2 562 2 C564 3 569 5 569 12 C569 13 569 14 568 16 L568 16 Z " />
</font>
</svg>
