<?xml version="1.0" encoding="utf-8"?>
<!-- Generator: Adobe Illustrator 16.0.4, SVG Export Plug-In . SVG Version: 6.00 Build 0)  -->
<!DOCTYPE svg PUBLIC "-//W3C//DTD SVG 1.1//EN" "http://www.w3.org/Graphics/SVG/1.1/DTD/svg11.dtd">
<svg version="1.1" id="Layer_1" xmlns="http://www.w3.org/2000/svg" xmlns:xlink="http://www.w3.org/1999/xlink" x="0px" y="0px"
	 width="1670.938px" height="704.009px" viewBox="0 0 1670.938 704.009" enable-background="new 0 0 1670.938 704.009"
	 xml:space="preserve">
<g>
	<g>
		<path fill="#FFFFFF" d="M1248.802,344.613c0,0,25.252,8.471,48.093-11.445c22.841-19.915,20.439-44.713,20.439-44.713
			l-9.525-8.625l7.57-8.891c0,0,1.918-27.765,5.298-26.931c3.381,0.834-0.47,18.261,0.693,18.996
			c1.163,0.736,9.197,4.509,10.36,5.245c1.164,0.736-8.175,18.602-8.175,18.602s1.167,67.971-66.386,67.445L1248.802,344.613z"/>
		<path fill="#110906" d="M1289.782,420.57c0,0,34.903,8.452,37.361,16.575c2.458,8.12-26.947,49.105-26.947,49.105
			s30.647,8.349,26.192,13.476c-4.456,5.127-35.681-10.498-35.681-10.498s28.071-37.512,26.132-44.269
			c-5.958-20.745-56.069-16.499-56.069-16.499"/>
		<path fill="#110906" d="M1234.749,435.999c0,0-33.841,40.94-42.258,39.852c-8.416-1.089-33.731-44.721-33.731-44.721
			s-20.187,24.528-23.033,18.362c-2.849-6.166,24.21-28.232,24.21-28.232s22.695,40.985,29.656,41.988
			c21.361,3.075,38.043-44.367,38.043-44.367"/>
		<path fill="#110906" d="M1201.104,331.471c-1.369,0.194,25.361,46.813,78.463,0.77c3.111-2.699,11.021-33.222,9.566-57.04
			c-1.455-23.806-16.493-48.228-42.771-38.705C1174.196,262.643,1239.851,325.945,1201.104,331.471z"/>
		<path fill="#0E8CCD" d="M1209.051,443.566c0,0,34.824-36.17,13.216-102.855c-2.679-8.27,29.92-6.984,33.819-0.271
			c2.425,4.171,1.233,67.006,47.626,81.867c0.941,0.303-27.815,24.596-52.842,29.428
			C1229.089,455.941,1209.051,443.566,1209.051,443.566z"/>
		<g>
			<g>
				<path fill="#C5843D" d="M1234.628,282.048c-0.037,0.049-0.078,0.093-0.102,0.124
					C1234.55,282.141,1234.593,282.096,1234.628,282.048z"/>
				<path fill="#C5843D" d="M1238.222,277.723c0.066-0.082,0.123-0.145,0.161-0.188
					C1238.35,277.575,1238.293,277.64,1238.222,277.723z"/>
				<path fill="#FFFFFF" d="M1222.384,292.638c1.252-0.028,2.629,0.286,3.843,0.866c0.394,0.068,0.792,0.163,1.192,0.297
					c0.842,0.28,1.609,0.766,2.371,1.185c0.16,0.091,0.338,0.169,0.506,0.257c-0.014-0.044-0.032-0.077-0.045-0.122
					c-0.805-3.181-0.054-6.405-0.301-9.647c-0.118-1.541-0.186-3.029-0.182-4.503c3.824-0.544,7.655-1.036,11.494-1.454
					c1.305-0.143-0.021-14.983-0.28-15.415c-0.13-0.216,6.401,14.813,7.503,14.722c1.814-0.15,8.052,0.203,6.961-1.253
					c-0.126-0.169-0.885-8.073-0.415-7.986c0.555,0.102,3.935,8.51,4.454,8.473c0.859-0.06,1.722-0.122,2.582-0.181
					c3.978-0.272,7.965-0.497,11.908-0.454c3.641,0.036,7.154,0.099,10.641-0.562c0.486-0.022,0.974-0.029,1.461-0.064
					c1.627,5.195,4.189,10.051,7.603,14.459c3.091,4.704,6.719,9.318,6.788,14.713c0.106,7.99-31.654,16.033-37.861,18.504
					c-7.286,2.898-5.064,21.907-20.395,17.466c-2.499-0.723,9.624-18.262,7.978-18.657c-3.207-0.216-18.534-12.274-21.196-13.807
					c-3.466-1.643-7.507-3.467-9.755-6.422c-0.02-0.02-0.04-0.036-0.058-0.056c-0.477-0.542-0.797-1.114-0.987-1.693
					c-0.278-0.632-0.487-1.305-0.596-2.03C1217.228,296.817,1219.318,292.723,1222.384,292.638z"/>
				<path fill="#C5843D" d="M1238.383,277.534C1238.465,277.433,1238.461,277.441,1238.383,277.534L1238.383,277.534z"/>
			</g>
			<path fill="#C5843D" d="M1234.526,282.172C1234.438,282.273,1234.446,282.269,1234.526,282.172L1234.526,282.172z"/>
		</g>
		<path fill="none" stroke="#020303" stroke-width="1.2457" stroke-miterlimit="10" d="M1278.657,289.872
			c0.369,2.145,1.611,0.917,2.983,0.679c1.374-0.236,2.354,0.61,1.984-1.535c-0.368-2.139-1.778-3.684-3.153-3.447
			C1279.101,285.806,1278.289,287.733,1278.657,289.872z"/>
		<path fill="none" stroke="#020303" stroke-width="1.2457" stroke-miterlimit="10" d="M1249.356,294.005
			c0.132,2.171,1.197,1.088,2.585,1.003c1.391-0.085,2.581,0.863,2.448-1.311c-0.133-2.168-1.368-3.858-2.758-3.773
			C1250.243,290.009,1249.224,291.836,1249.356,294.005z"/>
		<path fill="#FFFFFF" d="M1230.265,338.096"/>
		<g>
			<path fill="#FFFFFF" d="M1269.52,287.648c-0.339,4.355,0.466,5.303,1.91,9.301c1.788-0.351,3.488-0.536,4.626-1.57
				c4.754,7.606-2.313,7.169-5.628,7.133"/>
			<g>
				<path fill="#020304" d="M1268.951,287.648c-0.221,3.534,0.725,6.18,1.931,9.452c0.114,0.31,0.374,0.458,0.699,0.397
					c1.702-0.321,3.353-0.561,4.762-1.627c-0.26-0.068-0.519-0.136-0.777-0.204c1.223,2.049,2.693,5.022-0.436,5.975
					c-1.488,0.453-3.165,0.323-4.702,0.303c-0.733-0.01-0.732,1.127,0,1.137c2.18,0.029,4.819,0.236,6.67-1.139
					c2.299-1.708,0.546-5.009-0.552-6.849c-0.145-0.242-0.528-0.393-0.777-0.204c-1.332,1.009-2.893,1.212-4.49,1.513
					c0.233,0.132,0.466,0.265,0.699,0.397c-1.159-3.143-2.104-5.737-1.89-9.15C1270.134,286.917,1268.997,286.921,1268.951,287.648
					L1268.951,287.648z"/>
			</g>
		</g>
		<g>
			<g>
				<path fill="#020303" d="M1251.131,302.177c6.051,4.619,34.372,14.976,33.324-0.345c-0.055-0.797-1.301-0.802-1.246,0
					c0.934,13.636-26.081,3.368-31.449-0.731C1251.121,300.613,1250.502,301.696,1251.131,302.177L1251.131,302.177z"/>
			</g>
		</g>
		<path fill="#E4F3FB" d="M1259.471,341.597l-5.377-4.54l-25.861,60.803c0,0-23.933,12.829-24.361,14.015
			c-0.426,1.185-11.723,20.074-8.937,24.294c2.788,4.22,11.68,9.947,15.688,5.635c4.008-4.311,15.155-30.415,15.155-30.415
			L1259.471,341.597z"/>
		<path fill="#FFFFFF" d="M1230.265,338.096c-4.459-2.249-47.902,7.837-44.822,30.785c3.081,22.945,28.936,38.063,28.936,38.063
			s5.631-2.386,11.4,4.443c1.846,2.183,4.48,6.928,5.82,6.235s2.1-0.8,0.986-4c-0.725-2.082-6.466-7.592-9.225-8.271
			c-2.757-0.681,7.414,1.974,12.153,8.263c0.974,1.293,2.441-1.007,2.196-2.384s-8.742-8.446-12.5-9.227
			c-3.757-0.78,7.826,2.077,12.18,5.784c2.13,1.812,2.091-3.143,1.298-3.485c-0.794-0.342-12.596-7.057-19.929-5.793
			c-7.335,1.265-28.172-19.819-24.111-32.132c4.059-12.31,35.292-15.578,35.292-15.578S1234.011,339.984,1230.265,338.096z"/>
	</g>
</g>
<g>
</g>
<g>
</g>
<g>
</g>
<g>
</g>
<g>
</g>
<g>
</g>
</svg>
