<?xml version="1.0" encoding="utf-8"?>
<!-- Generator: Adobe Illustrator 16.0.4, SVG Export Plug-In . SVG Version: 6.00 Build 0)  -->
<!DOCTYPE svg PUBLIC "-//W3C//DTD SVG 1.1//EN" "http://www.w3.org/Graphics/SVG/1.1/DTD/svg11.dtd">
<svg version="1.1" id="Layer_1" xmlns="http://www.w3.org/2000/svg" xmlns:xlink="http://www.w3.org/1999/xlink" x="0px" y="0px"
	 width="1670.938px" height="704.009px" viewBox="0 0 1670.938 704.009" enable-background="new 0 0 1670.938 704.009"
	 xml:space="preserve">
<g>
	<g>
		<path fill="#FFFFFF" d="M1267.917,172.331c-0.529-0.099,38.841,7.722,38.841,7.722s5.718-20.585,21.759-36.247
			c16.042-15.662,32.754-64.62-20.341-75.248c-53.093-10.628-60.225,32.43-46.999,58.703
			C1274.403,153.533,1268.669,172.47,1267.917,172.331z"/>
		<g>
			<path fill="#0E8CCD" d="M1304.531,183.202c0,0-36.093-7.764-37.465-7.743c0,0-0.53,1.828-0.956,4.633l38.107,6.488
				C1304.485,184.533,1304.531,183.202,1304.531,183.202z"/>
			<path fill="#0E8CCD" d="M1281.188,208.746c7.114,1.576,12.057-0.44,15.5-3.916l-27.75-4.315
				C1271.272,204.299,1275.086,207.396,1281.188,208.746z"/>
			<path fill="#0E8CCD" d="M1303.602,190.217l-37.758-8.088c-0.18,1.643-0.291,3.493-0.253,5.438l36.768,7.323
				C1302.892,193.271,1303.298,191.679,1303.602,190.217z"/>
			<path fill="#0E8CCD" d="M1301.632,196.889l-35.765-5.561c0.231,1.771,0.624,3.556,1.228,5.282l31.306,6.235
				C1299.757,201.022,1300.809,198.967,1301.632,196.889z"/>
		</g>
		<path fill="#82CFF5" d="M1286.269,166.408c0,0,3.441-67.568,1.949-68.392c-1.49-0.824-4.699,0.227-4.699,0.227l-0.017,66.833
			L1286.269,166.408z"/>
		<path fill="#82CFF5" d="M1292.082,168.902c0,0,20.924-64.338,22.61-64.575c1.687-0.236,4.309,1.892,4.309,1.892l-23.859,62.428
			L1292.082,168.902z"/>
		<g>
			<g>
				<path fill="#82CFF5" d="M1287.399,101.436c-1.827,2.254-2.436,5.637,1.221,6.25c3.897,0.653,7.172-2.578,8.512-5.887
					c0.268-0.659-0.663-1.379-1.232-0.948c-3.053,2.318-2.202,6.354,0.597,8.534c4.187,3.263,7.432-1.185,8.408-5.012
					c0.165-0.645-0.609-1.422-1.232-0.948c-2.607,1.987-2.741,5.485-0.199,7.64c3.551,3.01,6.566-1.365,7.555-4.424
					c0.337-1.042-1.247-1.444-1.617-0.446c-1.036,2.788-0.616,5.745,1.796,7.649c0.84,0.663,2.036-0.517,1.188-1.187
					c-1.996-1.575-2.215-3.731-1.366-6.017c-0.539-0.149-1.078-0.297-1.617-0.446c-0.631,1.951-2.085,5.226-4.643,3.749
					c-1.923-1.11-1.916-3.8-0.248-5.07c-0.411-0.316-0.822-0.632-1.232-0.948c-0.663,2.598-2.299,6.198-5.483,4.338
					c-2.022-1.181-3.188-4.348-1.057-5.965c-0.411-0.316-0.822-0.632-1.232-0.948c-0.971,2.397-2.939,4.369-5.591,4.698
					c-2.73,0.339-2.755-1.682-1.337-3.429C1289.262,101.79,1288.082,100.595,1287.399,101.436L1287.399,101.436z"/>
			</g>
		</g>
	</g>
	<polygon fill="#FFFFFF" points="1241.163,87.76 1198.426,62.399 1199.835,77.897 	"/>
	<polygon fill="#FFFFFF" points="1327.388,51.434 1355.472,10.435 1339.915,10.833 	"/>
	<polygon fill="#FFFFFF" points="1273.387,49.656 1271.399,0 1259.166,9.617 	"/>
	<path fill="#FFFFFF" d="M1356.577,132.652l49.318,6.113l-10.604,11.391L1356.577,132.652z M1390.183,59.844l-3.785-15.094
		l-31.972,38.046L1390.183,59.844z"/>
</g>
<g>
</g>
<g>
</g>
<g>
</g>
<g>
</g>
<g>
</g>
<g>
</g>
</svg>
