<?xml version="1.0" encoding="utf-8"?>
<!-- Generator: Adobe Illustrator 16.0.4, SVG Export Plug-In . SVG Version: 6.00 Build 0)  -->
<!DOCTYPE svg PUBLIC "-//W3C//DTD SVG 1.1//EN" "http://www.w3.org/Graphics/SVG/1.1/DTD/svg11.dtd">
<svg version="1.1" id="Layer_1" xmlns="http://www.w3.org/2000/svg" xmlns:xlink="http://www.w3.org/1999/xlink" x="0px" y="0px"
	 width="81.689px" height="86.509px" viewBox="0 0 81.689 86.509" enable-background="new 0 0 81.689 86.509" xml:space="preserve">
<g>
	<path fill="#1D1B3A" d="M73.212,25.688h-2.866V10.423C70.346,4.676,65.885,0,60.402,0H20.441C14.96,0,10.5,4.676,10.5,10.423
		v15.266H8.479c-4.684,0-8.479,3.6-8.479,8.038v20.322c0,4.444,3.795,8.04,8.479,8.04H10.5v13.998c0,5.747,4.46,10.422,9.941,10.422
		h39.961c5.482,0,9.943-4.675,9.943-10.422V62.089h2.866c4.682,0,8.478-3.596,8.478-8.04V33.727
		C81.689,29.288,77.894,25.688,73.212,25.688z M64.254,62.089v13.998c0,2.391-1.728,4.332-3.852,4.332H20.441
		c-2.122,0-3.851-1.941-3.851-4.332V62.089V50.531h47.663V62.089z M64.254,25.688H16.591V10.423c0-2.389,1.729-4.332,3.851-4.332
		h39.961c2.124,0,3.852,1.943,3.852,4.332V25.688z M69.628,40.714c-2.571,0-4.656-2.083-4.656-4.654
		c0-2.572,2.085-4.656,4.656-4.656c2.572,0,4.655,2.084,4.655,4.656C74.283,38.631,72.2,40.714,69.628,40.714z"/>
	<rect x="21.022" y="57.586" fill="#1D1B3A" width="33.438" height="6.755"/>
	<rect x="22.116" y="69.022" fill="#1D1B3A" width="19.045" height="6.665"/>
</g>
</svg>
