<?xml version="1.0" encoding="utf-8"?>
<!-- Generator: Adobe Illustrator 16.0.4, SVG Export Plug-In . SVG Version: 6.00 Build 0)  -->
<!DOCTYPE svg PUBLIC "-//W3C//DTD SVG 1.1//EN" "http://www.w3.org/Graphics/SVG/1.1/DTD/svg11.dtd">
<svg version="1.1" id="Layer_1" xmlns="http://www.w3.org/2000/svg" xmlns:xlink="http://www.w3.org/1999/xlink" x="0px" y="0px"
	 width="1112.031px" height="522.384px" viewBox="0 0 1112.031 522.384" enable-background="new 0 0 1112.031 522.384"
	 xml:space="preserve">
<pattern  x="-46.767" y="-127.525" width="86.081" height="74.172" patternUnits="userSpaceOnUse" id="Unnamed_Pattern_9" viewBox="0 -74.172 86.081 74.172" overflow="visible">
	<g>
		<polygon fill="none" points="0,-74.172 86.082,-74.172 86.082,0 0,0 		"/>
		<path fill="#2EBDEF" d="M27.879-4.633c0-0.561-0.455-1.018-1.017-1.018s-1.019,0.457-1.019,1.018c0,0.562,0.457,1.021,1.019,1.021
			S27.879-4.07,27.879-4.633"/>
		<path fill="#2EBDEF" d="M27.879-9.266c0-0.561-0.455-1.018-1.017-1.018s-1.019,0.457-1.019,1.018c0,0.564,0.457,1.021,1.019,1.021
			S27.879-8.701,27.879-9.266"/>
		<path fill="#2EBDEF" d="M27.879-32.424c0-0.562-0.455-1.018-1.017-1.018s-1.019,0.455-1.019,1.018
			c0,0.562,0.457,1.018,1.019,1.018S27.879-31.862,27.879-32.424"/>
		<path fill="#2EBDEF" d="M27.879-13.895c0-0.562-0.455-1.021-1.017-1.021s-1.019,0.458-1.019,1.021
			c0,0.561,0.457,1.018,1.019,1.018S27.879-13.334,27.879-13.895"/>
		<path fill="#2EBDEF" d="M27.879-27.791c0-0.562-0.455-1.02-1.017-1.02s-1.019,0.458-1.019,1.02c0,0.562,0.457,1.018,1.019,1.018
			S27.879-27.229,27.879-27.791"/>
		<path fill="#2EBDEF" d="M27.879-18.527c0-0.562-0.455-1.021-1.017-1.021s-1.019,0.458-1.019,1.021
			c0,0.562,0.457,1.018,1.019,1.018S27.879-17.966,27.879-18.527"/>
		<path fill="#2EBDEF" d="M27.879-23.158c0-0.564-0.455-1.02-1.017-1.02s-1.019,0.455-1.019,1.02c0,0.561,0.457,1.016,1.019,1.016
			S27.879-22.598,27.879-23.158"/>
		<path fill="#2EBDEF" d="M33.253-64.846c0-0.562-0.457-1.018-1.018-1.018c-0.564,0-1.019,0.456-1.019,1.018
			c0,0.561,0.455,1.018,1.019,1.018C32.796-63.828,33.253-64.285,33.253-64.846"/>
		<path fill="#2EBDEF" d="M33.253-74.109c0-0.021-0.002-0.043-0.004-0.062H31.22c-0.002,0.019-0.004,0.04-0.004,0.062
			c0,0.562,0.455,1.018,1.019,1.018C32.796-73.092,33.253-73.548,33.253-74.109"/>
		<path fill="#2EBDEF" d="M33.253-41.688c0-0.561-0.457-1.018-1.018-1.018c-0.564,0-1.019,0.457-1.019,1.018
			c0,0.562,0.455,1.021,1.019,1.021C32.796-40.667,33.253-41.125,33.253-41.688"/>
		<path fill="#2EBDEF" d="M33.253-37.055c0-0.564-0.457-1.02-1.018-1.02c-0.564,0-1.019,0.455-1.019,1.02
			c0,0.562,0.455,1.018,1.019,1.018C32.796-36.037,33.253-36.493,33.253-37.055"/>
		<path fill="#2EBDEF" d="M33.253-46.318c0-0.562-0.457-1.02-1.018-1.02c-0.564,0-1.019,0.457-1.019,1.02
			c0,0.562,0.455,1.018,1.019,1.018C32.796-45.301,33.253-45.757,33.253-46.318"/>
		<path fill="#2EBDEF" d="M33.253-32.424c0-0.562-0.457-1.018-1.018-1.018c-0.564,0-1.019,0.455-1.019,1.018
			c0,0.562,0.455,1.018,1.019,1.018C32.796-31.406,33.253-31.862,33.253-32.424"/>
		<path fill="#2EBDEF" d="M33.253-55.582c0-0.562-0.457-1.018-1.018-1.018c-0.564,0-1.019,0.455-1.019,1.018
			c0,0.562,0.455,1.018,1.019,1.018C32.796-54.564,33.253-55.021,33.253-55.582"/>
		<path fill="#2EBDEF" d="M33.253-50.951c0-0.562-0.457-1.018-1.018-1.018c-0.564,0-1.019,0.456-1.019,1.018
			s0.455,1.018,1.019,1.018C32.796-49.934,33.253-50.39,33.253-50.951"/>
		<path fill="#2EBDEF" d="M33.253-60.215c0-0.562-0.457-1.018-1.018-1.018c-0.564,0-1.019,0.455-1.019,1.018
			c0,0.562,0.455,1.018,1.019,1.018C32.796-59.197,33.253-59.653,33.253-60.215"/>
		<path fill="#2EBDEF" d="M33.253-69.479c0-0.562-0.457-1.018-1.018-1.018c-0.564,0-1.019,0.456-1.019,1.018
			c0,0.564,0.455,1.018,1.019,1.018C32.796-68.461,33.253-68.914,33.253-69.479"/>
		<path fill="#2EBDEF" d="M27.879-55.582c0-0.562-0.455-1.018-1.017-1.018s-1.019,0.455-1.019,1.018
			c0,0.562,0.457,1.018,1.019,1.018S27.879-55.021,27.879-55.582"/>
		<path fill="#2EBDEF" d="M22.508-23.158c0-0.564-0.456-1.02-1.018-1.02c-0.563,0-1.019,0.455-1.019,1.02
			c0,0.561,0.456,1.016,1.019,1.016C22.052-22.143,22.508-22.598,22.508-23.158"/>
		<path fill="#2EBDEF" d="M22.508-18.527c0-0.562-0.456-1.021-1.018-1.021c-0.563,0-1.019,0.458-1.019,1.021
			c0,0.562,0.456,1.018,1.019,1.018C22.052-17.51,22.508-17.966,22.508-18.527"/>
		<path fill="#2EBDEF" d="M22.508-4.633c0-0.561-0.456-1.018-1.018-1.018c-0.563,0-1.019,0.457-1.019,1.018
			c0,0.562,0.456,1.021,1.019,1.021C22.052-3.612,22.508-4.07,22.508-4.633"/>
		<path fill="#2EBDEF" d="M22.508-9.266c0-0.561-0.456-1.018-1.018-1.018c-0.563,0-1.019,0.457-1.019,1.018
			c0,0.564,0.456,1.021,1.019,1.021C22.052-8.245,22.508-8.701,22.508-9.266"/>
		<path fill="#2EBDEF" d="M27.879-37.055c0-0.564-0.455-1.02-1.017-1.02s-1.019,0.455-1.019,1.02c0,0.562,0.457,1.018,1.019,1.018
			S27.879-36.493,27.879-37.055"/>
		<path fill="#2EBDEF" d="M22.508-37.055c0-0.564-0.456-1.02-1.018-1.02c-0.563,0-1.019,0.455-1.019,1.02
			c0,0.562,0.456,1.018,1.019,1.018C22.052-36.037,22.508-36.493,22.508-37.055"/>
		<path fill="#2EBDEF" d="M22.508-27.791c0-0.562-0.456-1.02-1.018-1.02c-0.563,0-1.019,0.458-1.019,1.02
			c0,0.562,0.456,1.018,1.019,1.018C22.052-26.773,22.508-27.229,22.508-27.791"/>
		<path fill="#2EBDEF" d="M22.508-32.424c0-0.562-0.456-1.018-1.018-1.018c-0.563,0-1.019,0.455-1.019,1.018
			c0,0.562,0.456,1.018,1.019,1.018C22.052-31.406,22.508-31.862,22.508-32.424"/>
		<path fill="#2EBDEF" d="M22.508-13.895c0-0.562-0.456-1.021-1.018-1.021c-0.563,0-1.019,0.458-1.019,1.021
			c0,0.561,0.456,1.018,1.019,1.018C22.052-12.877,22.508-13.334,22.508-13.895"/>
		<path fill="#2EBDEF" d="M33.253-27.791c0-0.562-0.457-1.02-1.018-1.02c-0.564,0-1.019,0.458-1.019,1.02
			c0,0.562,0.455,1.018,1.019,1.018C32.796-26.773,33.253-27.229,33.253-27.791"/>
		<path fill="#2EBDEF" d="M27.879-50.951c0-0.562-0.455-1.018-1.017-1.018s-1.019,0.456-1.019,1.018s0.457,1.018,1.019,1.018
			S27.879-50.39,27.879-50.951"/>
		<path fill="#2EBDEF" d="M43.998-4.633c0-0.561-0.457-1.018-1.019-1.018s-1.017,0.457-1.017,1.018c0,0.562,0.455,1.021,1.017,1.021
			S43.998-4.07,43.998-4.633"/>
		<path fill="#2EBDEF" d="M27.879-41.688c0-0.561-0.455-1.018-1.017-1.018s-1.019,0.457-1.019,1.018
			c0,0.562,0.457,1.021,1.019,1.021S27.879-41.125,27.879-41.688"/>
		<path fill="#2EBDEF" d="M27.879-74.109c0-0.021,0-0.043-0.002-0.062h-2.031c0,0.019-0.003,0.04-0.003,0.062
			c0,0.562,0.457,1.018,1.019,1.018S27.879-73.548,27.879-74.109"/>
		<path fill="#2EBDEF" d="M27.879-60.215c0-0.562-0.455-1.018-1.017-1.018s-1.019,0.455-1.019,1.018
			c0,0.562,0.457,1.018,1.019,1.018S27.879-59.653,27.879-60.215"/>
		<path fill="#2EBDEF" d="M27.879-64.846c0-0.562-0.455-1.018-1.017-1.018s-1.019,0.456-1.019,1.018
			c0,0.561,0.457,1.018,1.019,1.018S27.879-64.285,27.879-64.846"/>
		<path fill="#2EBDEF" d="M27.879-69.479c0-0.562-0.455-1.018-1.017-1.018s-1.019,0.456-1.019,1.018
			c0,0.564,0.457,1.018,1.019,1.018S27.879-68.914,27.879-69.479"/>
		<path fill="#2EBDEF" d="M43.998-18.527c0-0.562-0.457-1.021-1.019-1.021s-1.017,0.458-1.017,1.021
			c0,0.562,0.455,1.018,1.017,1.018S43.998-17.966,43.998-18.527"/>
		<path fill="#2EBDEF" d="M43.998-69.479c0-0.562-0.457-1.018-1.019-1.018s-1.017,0.456-1.017,1.018
			c0,0.564,0.455,1.018,1.017,1.018S43.998-68.914,43.998-69.479"/>
		<path fill="#2EBDEF" d="M43.998-55.582c0-0.562-0.457-1.018-1.019-1.018s-1.017,0.455-1.017,1.018
			c0,0.562,0.455,1.018,1.017,1.018S43.998-55.021,43.998-55.582"/>
		<path fill="#2EBDEF" d="M43.998-60.215c0-0.562-0.457-1.018-1.019-1.018s-1.017,0.455-1.017,1.018
			c0,0.562,0.455,1.018,1.017,1.018S43.998-59.653,43.998-60.215"/>
		<path fill="#2EBDEF" d="M38.625-13.895c0-0.562-0.456-1.021-1.018-1.021s-1.017,0.458-1.017,1.021
			c0,0.561,0.455,1.018,1.017,1.018S38.625-13.334,38.625-13.895"/>
		<path fill="#2EBDEF" d="M38.625-9.266c0-0.561-0.456-1.018-1.018-1.018s-1.017,0.457-1.017,1.018c0,0.564,0.455,1.021,1.017,1.021
			S38.625-8.701,38.625-9.266"/>
		<path fill="#2EBDEF" d="M38.625-4.633c0-0.561-0.456-1.018-1.018-1.018s-1.017,0.457-1.017,1.018c0,0.562,0.455,1.021,1.017,1.021
			S38.625-4.07,38.625-4.633"/>
		<path fill="#2EBDEF" d="M43.998-46.318c0-0.562-0.457-1.02-1.019-1.02s-1.017,0.457-1.017,1.02c0,0.562,0.455,1.018,1.017,1.018
			S43.998-45.757,43.998-46.318"/>
		<path fill="#2EBDEF" d="M43.998-74.109c0-0.021-0.002-0.043-0.004-0.062h-2.029c-0.002,0.019-0.003,0.04-0.003,0.062
			c0,0.562,0.455,1.018,1.017,1.018S43.998-73.548,43.998-74.109"/>
		<path fill="#2EBDEF" d="M43.998-64.846c0-0.562-0.457-1.018-1.019-1.018s-1.017,0.456-1.017,1.018
			c0,0.561,0.455,1.018,1.017,1.018S43.998-64.285,43.998-64.846"/>
		<path fill="#2EBDEF" d="M43.998-50.951c0-0.562-0.457-1.018-1.019-1.018s-1.017,0.456-1.017,1.018s0.455,1.018,1.017,1.018
			S43.998-50.39,43.998-50.951"/>
		<path fill="#2EBDEF" d="M43.998-13.895c0-0.562-0.457-1.021-1.019-1.021s-1.017,0.458-1.017,1.021
			c0,0.561,0.455,1.018,1.017,1.018S43.998-13.334,43.998-13.895"/>
		<path fill="#2EBDEF" d="M43.998-41.688c0-0.561-0.457-1.018-1.019-1.018s-1.017,0.457-1.017,1.018
			c0,0.562,0.455,1.021,1.017,1.021S43.998-41.125,43.998-41.688"/>
		<path fill="#2EBDEF" d="M22.508-41.688c0-0.561-0.456-1.018-1.018-1.018c-0.563,0-1.019,0.457-1.019,1.018
			c0,0.562,0.456,1.021,1.019,1.021C22.052-40.667,22.508-41.125,22.508-41.688"/>
		<path fill="#2EBDEF" d="M43.998-9.266c0-0.561-0.457-1.018-1.019-1.018s-1.017,0.457-1.017,1.018c0,0.564,0.455,1.021,1.017,1.021
			S43.998-8.701,43.998-9.266"/>
		<path fill="#2EBDEF" d="M43.998-23.158c0-0.564-0.457-1.02-1.019-1.02s-1.017,0.455-1.017,1.02c0,0.561,0.455,1.016,1.017,1.016
			S43.998-22.598,43.998-23.158"/>
		<path fill="#2EBDEF" d="M43.998-27.791c0-0.562-0.457-1.02-1.019-1.02s-1.017,0.458-1.017,1.02c0,0.562,0.455,1.018,1.017,1.018
			S43.998-27.229,43.998-27.791"/>
		<path fill="#2EBDEF" d="M43.998-37.055c0-0.564-0.457-1.02-1.019-1.02s-1.017,0.455-1.017,1.02c0,0.562,0.455,1.018,1.017,1.018
			S43.998-36.493,43.998-37.055"/>
		<path fill="#2EBDEF" d="M43.998-32.424c0-0.562-0.457-1.018-1.019-1.018s-1.017,0.455-1.017,1.018
			c0,0.562,0.455,1.018,1.017,1.018S43.998-31.862,43.998-32.424"/>
		<path fill="#2EBDEF" d="M38.625-74.109c0-0.021-0.001-0.043-0.003-0.062h-2.029c-0.002,0.019-0.003,0.04-0.003,0.062
			c0,0.562,0.455,1.018,1.017,1.018S38.625-73.548,38.625-74.109"/>
		<path fill="#2EBDEF" d="M38.625-64.846c0-0.562-0.456-1.018-1.018-1.018s-1.017,0.456-1.017,1.018
			c0,0.561,0.455,1.018,1.017,1.018S38.625-64.285,38.625-64.846"/>
		<path fill="#2EBDEF" d="M33.253-4.633c0-0.561-0.457-1.018-1.018-1.018c-0.564,0-1.019,0.457-1.019,1.018
			c0,0.562,0.455,1.021,1.019,1.021C32.796-3.612,33.253-4.07,33.253-4.633"/>
		<path fill="#2EBDEF" d="M33.253-23.158c0-0.564-0.457-1.02-1.018-1.02c-0.564,0-1.019,0.455-1.019,1.02
			c0,0.561,0.455,1.016,1.019,1.016C32.796-22.143,33.253-22.598,33.253-23.158"/>
		<path fill="#2EBDEF" d="M38.625-60.215c0-0.562-0.456-1.018-1.018-1.018s-1.017,0.455-1.017,1.018
			c0,0.562,0.455,1.018,1.017,1.018S38.625-59.653,38.625-60.215"/>
		<path fill="#2EBDEF" d="M38.625-69.479c0-0.562-0.456-1.018-1.018-1.018s-1.017,0.456-1.017,1.018
			c0,0.564,0.455,1.018,1.017,1.018S38.625-68.914,38.625-69.479"/>
		<path fill="#2EBDEF" d="M33.253-18.527c0-0.562-0.457-1.021-1.018-1.021c-0.564,0-1.019,0.458-1.019,1.021
			c0,0.562,0.455,1.018,1.019,1.018C32.796-17.51,33.253-17.966,33.253-18.527"/>
		<path fill="#2EBDEF" d="M33.253-9.266c0-0.561-0.457-1.018-1.018-1.018c-0.564,0-1.019,0.457-1.019,1.018
			c0,0.564,0.455,1.021,1.019,1.021C32.796-8.245,33.253-8.701,33.253-9.266"/>
		<path fill="#2EBDEF" d="M33.253-13.895c0-0.562-0.457-1.021-1.018-1.021c-0.564,0-1.019,0.458-1.019,1.021
			c0,0.561,0.455,1.018,1.019,1.018C32.796-12.877,33.253-13.334,33.253-13.895"/>
		<path fill="#2EBDEF" d="M38.625-18.527c0-0.562-0.456-1.021-1.018-1.021s-1.017,0.458-1.017,1.021
			c0,0.562,0.455,1.018,1.017,1.018S38.625-17.966,38.625-18.527"/>
		<path fill="#2EBDEF" d="M38.625-32.424c0-0.562-0.456-1.018-1.018-1.018s-1.017,0.455-1.017,1.018
			c0,0.562,0.455,1.018,1.017,1.018S38.625-31.862,38.625-32.424"/>
		<path fill="#2EBDEF" d="M38.625-27.791c0-0.562-0.456-1.02-1.018-1.02s-1.017,0.458-1.017,1.02c0,0.562,0.455,1.018,1.017,1.018
			S38.625-27.229,38.625-27.791"/>
		<path fill="#2EBDEF" d="M38.625-37.055c0-0.564-0.456-1.02-1.018-1.02s-1.017,0.455-1.017,1.02c0,0.562,0.455,1.018,1.017,1.018
			S38.625-36.493,38.625-37.055"/>
		<path fill="#2EBDEF" d="M38.625-23.158c0-0.564-0.456-1.02-1.018-1.02s-1.017,0.455-1.017,1.02c0,0.561,0.455,1.016,1.017,1.016
			S38.625-22.598,38.625-23.158"/>
		<path fill="#2EBDEF" d="M38.625-41.688c0-0.561-0.456-1.018-1.018-1.018s-1.017,0.457-1.017,1.018
			c0,0.562,0.455,1.021,1.017,1.021S38.625-41.125,38.625-41.688"/>
		<path fill="#2EBDEF" d="M38.625-50.951c0-0.562-0.456-1.018-1.018-1.018s-1.017,0.456-1.017,1.018s0.455,1.018,1.017,1.018
			S38.625-50.39,38.625-50.951"/>
		<path fill="#2EBDEF" d="M38.625-55.582c0-0.562-0.456-1.018-1.018-1.018s-1.017,0.455-1.017,1.018
			c0,0.562,0.455,1.018,1.017,1.018S38.625-55.021,38.625-55.582"/>
		<path fill="#2EBDEF" d="M38.625-46.318c0-0.562-0.456-1.02-1.018-1.02s-1.017,0.457-1.017,1.02c0,0.562,0.455,1.018,1.017,1.018
			S38.625-45.757,38.625-46.318"/>
		<path fill="#2EBDEF" d="M27.879-46.318c0-0.562-0.455-1.02-1.017-1.02s-1.019,0.457-1.019,1.02c0,0.562,0.457,1.018,1.019,1.018
			S27.879-45.757,27.879-46.318"/>
		<path fill="#2EBDEF" d="M6.39-46.318c0-0.562-0.456-1.02-1.018-1.02c-0.561,0-1.017,0.457-1.017,1.02
			c0,0.562,0.456,1.018,1.017,1.018C5.934-45.301,6.39-45.757,6.39-46.318"/>
		<path fill="#2EBDEF" d="M6.39-50.951c0-0.562-0.456-1.018-1.018-1.018c-0.561,0-1.017,0.456-1.017,1.018s0.456,1.018,1.017,1.018
			C5.934-49.934,6.39-50.39,6.39-50.951"/>
		<path fill="#2EBDEF" d="M6.39-41.688c0-0.561-0.456-1.018-1.018-1.018c-0.561,0-1.017,0.457-1.017,1.018
			c0,0.562,0.456,1.021,1.017,1.021C5.934-40.667,6.39-41.125,6.39-41.688"/>
		<path fill="#2EBDEF" d="M6.39-37.055c0-0.564-0.456-1.02-1.018-1.02c-0.561,0-1.017,0.455-1.017,1.02
			c0,0.562,0.456,1.018,1.017,1.018C5.934-36.037,6.39-36.493,6.39-37.055"/>
		<path fill="#2EBDEF" d="M6.39-55.582c0-0.562-0.456-1.018-1.018-1.018c-0.561,0-1.017,0.455-1.017,1.018
			c0,0.562,0.456,1.018,1.017,1.018C5.934-54.564,6.39-55.021,6.39-55.582"/>
		<path fill="#2EBDEF" d="M6.39-32.424c0-0.562-0.456-1.018-1.018-1.018c-0.561,0-1.017,0.455-1.017,1.018
			c0,0.562,0.456,1.018,1.017,1.018C5.934-31.406,6.39-31.862,6.39-32.424"/>
		<path fill="#2EBDEF" d="M6.39-64.846c0-0.562-0.456-1.018-1.018-1.018c-0.561,0-1.017,0.456-1.017,1.018
			c0,0.561,0.456,1.018,1.017,1.018C5.934-63.828,6.39-64.285,6.39-64.846"/>
		<path fill="#2EBDEF" d="M6.39-60.215c0-0.562-0.456-1.018-1.018-1.018c-0.561,0-1.017,0.455-1.017,1.018
			c0,0.562,0.456,1.018,1.017,1.018C5.934-59.197,6.39-59.653,6.39-60.215"/>
		<path fill="#2EBDEF" d="M6.39-69.479c0-0.562-0.456-1.018-1.018-1.018c-0.561,0-1.017,0.456-1.017,1.018
			c0,0.564,0.456,1.018,1.017,1.018C5.934-68.461,6.39-68.914,6.39-69.479"/>
		<path fill="#2EBDEF" d="M11.764-74.109c0-0.021-0.003-0.043-0.003-0.062H9.73c-0.002,0.019-0.003,0.04-0.003,0.062
			c0,0.562,0.455,1.018,1.017,1.018C11.308-73.092,11.764-73.548,11.764-74.109"/>
		<path fill="#2EBDEF" d="M6.39-9.266c0-0.561-0.456-1.018-1.018-1.018c-0.561,0-1.017,0.457-1.017,1.018
			c0,0.564,0.456,1.021,1.017,1.021C5.934-8.245,6.39-8.701,6.39-9.266"/>
		<path fill="#2EBDEF" d="M6.39-4.633c0-0.561-0.456-1.018-1.018-1.018c-0.561,0-1.017,0.457-1.017,1.018
			c0,0.562,0.456,1.021,1.017,1.021C5.934-3.612,6.39-4.07,6.39-4.633"/>
		<path fill="#2EBDEF" d="M11.764-64.846c0-0.562-0.456-1.018-1.02-1.018c-0.562,0-1.017,0.456-1.017,1.018
			c0,0.561,0.455,1.018,1.017,1.018C11.308-63.828,11.764-64.285,11.764-64.846"/>
		<path fill="#2EBDEF" d="M6.39-13.895c0-0.562-0.456-1.021-1.018-1.021c-0.561,0-1.017,0.458-1.017,1.021
			c0,0.561,0.456,1.018,1.017,1.018C5.934-12.877,6.39-13.334,6.39-13.895"/>
		<path fill="#2EBDEF" d="M6.39-27.791c0-0.562-0.456-1.02-1.018-1.02c-0.561,0-1.017,0.458-1.017,1.02
			c0,0.562,0.456,1.018,1.017,1.018C5.934-26.773,6.39-27.229,6.39-27.791"/>
		<path fill="#2EBDEF" d="M6.39-23.158c0-0.564-0.456-1.02-1.018-1.02c-0.561,0-1.017,0.455-1.017,1.02
			c0,0.561,0.456,1.016,1.017,1.016C5.934-22.143,6.39-22.598,6.39-23.158"/>
		<path fill="#2EBDEF" d="M6.39-18.527c0-0.562-0.456-1.021-1.018-1.021c-0.561,0-1.017,0.458-1.017,1.021
			c0,0.562,0.456,1.018,1.017,1.018C5.934-17.51,6.39-17.966,6.39-18.527"/>
		<path fill="#2EBDEF" d="M1.019-32.424c0-0.562-0.457-1.018-1.019-1.018v2.035C0.562-31.406,1.019-31.862,1.019-32.424"/>
		<path fill="#2EBDEF" d="M1.019-37.055c0-0.564-0.457-1.02-1.019-1.02v2.037C0.562-36.037,1.019-36.493,1.019-37.055"/>
		<path fill="#2EBDEF" d="M1.019-50.951c0-0.562-0.457-1.018-1.019-1.018v2.035C0.562-49.934,1.019-50.39,1.019-50.951"/>
		<path fill="#2EBDEF" d="M1.019-55.582C1.019-56.145,0.562-56.6,0-56.6v2.035C0.562-54.564,1.019-55.021,1.019-55.582"/>
		<path fill="#2EBDEF" d="M22.508-46.318c0-0.562-0.456-1.02-1.018-1.02c-0.563,0-1.019,0.457-1.019,1.02
			c0,0.562,0.456,1.018,1.019,1.018C22.052-45.301,22.508-45.757,22.508-46.318"/>
		<path fill="#2EBDEF" d="M1.019-46.318c0-0.562-0.457-1.02-1.019-1.02v2.037C0.562-45.301,1.019-45.757,1.019-46.318"/>
		<path fill="#2EBDEF" d="M6.39-74.109c0-0.021-0.001-0.043-0.003-0.062H4.358c-0.002,0.019-0.003,0.04-0.003,0.062
			c0,0.562,0.456,1.018,1.017,1.018C5.934-73.092,6.39-73.548,6.39-74.109"/>
		<path fill="#2EBDEF" d="M1.019-64.846c0-0.562-0.457-1.018-1.019-1.018v2.035C0.562-63.828,1.019-64.285,1.019-64.846"/>
		<path fill="#2EBDEF" d="M1.019-60.215c0-0.562-0.457-1.018-1.019-1.018v2.035C0.562-59.197,1.019-59.653,1.019-60.215"/>
		<path fill="#2EBDEF" d="M1.019-69.479c0-0.562-0.457-1.018-1.019-1.018v2.035C0.562-68.461,1.019-68.914,1.019-69.479"/>
		<path fill="#2EBDEF" d="M11.764-69.479c0-0.562-0.456-1.018-1.02-1.018c-0.562,0-1.017,0.456-1.017,1.018
			c0,0.564,0.455,1.018,1.017,1.018C11.308-68.461,11.764-68.914,11.764-69.479"/>
		<path fill="#2EBDEF" d="M1.019-13.895c0-0.562-0.457-1.021-1.019-1.021v2.038C0.562-12.877,1.019-13.334,1.019-13.895"/>
		<path fill="#2EBDEF" d="M1.019-4.633C1.019-5.193,0.562-5.65,0-5.65v2.038C0.562-3.612,1.019-4.07,1.019-4.633"/>
		<path fill="#2EBDEF" d="M1.019-74.109c0-0.021-0.002-0.043-0.004-0.062H0v1.079C0.562-73.092,1.019-73.548,1.019-74.109"/>
		<path fill="#2EBDEF" d="M1.019-9.266c0-0.561-0.457-1.018-1.019-1.018v2.038C0.562-8.245,1.019-8.701,1.019-9.266"/>
		<path fill="#2EBDEF" d="M1.019-27.791c0-0.562-0.457-1.02-1.019-1.02v2.037C0.562-26.773,1.019-27.229,1.019-27.791"/>
		<path fill="#2EBDEF" d="M1.019-18.527c0-0.562-0.457-1.021-1.019-1.021v2.038C0.562-17.51,1.019-17.966,1.019-18.527"/>
		<path fill="#2EBDEF" d="M1.019-23.158c0-0.564-0.457-1.02-1.019-1.02v2.035C0.562-22.143,1.019-22.598,1.019-23.158"/>
		<path fill="#2EBDEF" d="M1.019-41.688c0-0.561-0.457-1.018-1.019-1.018v2.038C0.562-40.667,1.019-41.125,1.019-41.688"/>
		<path fill="#2EBDEF" d="M17.135-50.951c0-0.562-0.455-1.018-1.019-1.018c-0.561,0-1.017,0.456-1.017,1.018
			s0.456,1.018,1.017,1.018C16.68-49.934,17.135-50.39,17.135-50.951"/>
		<path fill="#2EBDEF" d="M17.135-23.158c0-0.564-0.455-1.02-1.019-1.02c-0.561,0-1.017,0.455-1.017,1.02
			c0,0.561,0.456,1.016,1.017,1.016C16.68-22.143,17.135-22.598,17.135-23.158"/>
		<path fill="#2EBDEF" d="M17.135-32.424c0-0.562-0.455-1.018-1.019-1.018c-0.561,0-1.017,0.455-1.017,1.018
			c0,0.562,0.456,1.018,1.017,1.018C16.68-31.406,17.135-31.862,17.135-32.424"/>
		<path fill="#2EBDEF" d="M17.135-18.527c0-0.562-0.455-1.021-1.019-1.021c-0.561,0-1.017,0.458-1.017,1.021
			c0,0.562,0.456,1.018,1.017,1.018C16.68-17.51,17.135-17.966,17.135-18.527"/>
		<path fill="#2EBDEF" d="M17.135-37.055c0-0.564-0.455-1.02-1.019-1.02c-0.561,0-1.017,0.455-1.017,1.02
			c0,0.562,0.456,1.018,1.017,1.018C16.68-36.037,17.135-36.493,17.135-37.055"/>
		<path fill="#2EBDEF" d="M17.135-46.318c0-0.562-0.455-1.02-1.019-1.02c-0.561,0-1.017,0.457-1.017,1.02
			c0,0.562,0.456,1.018,1.017,1.018C16.68-45.301,17.135-45.757,17.135-46.318"/>
		<path fill="#2EBDEF" d="M17.135-13.895c0-0.562-0.455-1.021-1.019-1.021c-0.561,0-1.017,0.458-1.017,1.021
			c0,0.561,0.456,1.018,1.017,1.018C16.68-12.877,17.135-13.334,17.135-13.895"/>
		<path fill="#2EBDEF" d="M17.135-41.688c0-0.561-0.455-1.018-1.019-1.018c-0.561,0-1.017,0.457-1.017,1.018
			c0,0.562,0.456,1.021,1.017,1.021C16.68-40.667,17.135-41.125,17.135-41.688"/>
		<path fill="#2EBDEF" d="M17.135-27.791c0-0.562-0.455-1.02-1.019-1.02c-0.561,0-1.017,0.458-1.017,1.02
			c0,0.562,0.456,1.018,1.017,1.018C16.68-26.773,17.135-27.229,17.135-27.791"/>
		<path fill="#2EBDEF" d="M22.508-55.582c0-0.562-0.456-1.018-1.018-1.018c-0.563,0-1.019,0.455-1.019,1.018
			c0,0.562,0.456,1.018,1.019,1.018C22.052-54.564,22.508-55.021,22.508-55.582"/>
		<path fill="#2EBDEF" d="M17.135-9.266c0-0.561-0.455-1.018-1.019-1.018c-0.561,0-1.017,0.457-1.017,1.018
			c0,0.564,0.456,1.021,1.017,1.021C16.68-8.245,17.135-8.701,17.135-9.266"/>
		<path fill="#2EBDEF" d="M22.508-69.479c0-0.562-0.456-1.018-1.018-1.018c-0.563,0-1.019,0.456-1.019,1.018
			c0,0.564,0.456,1.018,1.019,1.018C22.052-68.461,22.508-68.914,22.508-69.479"/>
		<path fill="#2EBDEF" d="M22.508-50.951c0-0.562-0.456-1.018-1.018-1.018c-0.563,0-1.019,0.456-1.019,1.018
			s0.456,1.018,1.019,1.018C22.052-49.934,22.508-50.39,22.508-50.951"/>
		<path fill="#2EBDEF" d="M22.508-60.215c0-0.562-0.456-1.018-1.018-1.018c-0.563,0-1.019,0.455-1.019,1.018
			c0,0.562,0.456,1.018,1.019,1.018C22.052-59.197,22.508-59.653,22.508-60.215"/>
		<path fill="#2EBDEF" d="M17.135-4.633c0-0.561-0.455-1.018-1.019-1.018c-0.561,0-1.017,0.457-1.017,1.018
			c0,0.562,0.456,1.021,1.017,1.021C16.68-3.612,17.135-4.07,17.135-4.633"/>
		<path fill="#2EBDEF" d="M22.508-74.109c0-0.021-0.003-0.043-0.003-0.062h-2.031c-0.002,0.019-0.003,0.04-0.003,0.062
			c0,0.562,0.456,1.018,1.019,1.018C22.052-73.092,22.508-73.548,22.508-74.109"/>
		<path fill="#2EBDEF" d="M22.508-64.846c0-0.562-0.456-1.018-1.018-1.018c-0.563,0-1.019,0.456-1.019,1.018
			c0,0.561,0.456,1.018,1.019,1.018C22.052-63.828,22.508-64.285,22.508-64.846"/>
		<path fill="#2EBDEF" d="M11.764-4.633c0-0.561-0.456-1.018-1.02-1.018c-0.562,0-1.017,0.457-1.017,1.018
			c0,0.562,0.455,1.021,1.017,1.021C11.308-3.612,11.764-4.07,11.764-4.633"/>
		<path fill="#2EBDEF" d="M11.764-37.055c0-0.564-0.456-1.02-1.02-1.02c-0.562,0-1.017,0.455-1.017,1.02
			c0,0.562,0.455,1.018,1.017,1.018C11.308-36.037,11.764-36.493,11.764-37.055"/>
		<path fill="#2EBDEF" d="M17.135-55.582c0-0.562-0.455-1.018-1.019-1.018c-0.561,0-1.017,0.455-1.017,1.018
			c0,0.562,0.456,1.018,1.017,1.018C16.68-54.564,17.135-55.021,17.135-55.582"/>
		<path fill="#2EBDEF" d="M11.764-41.688c0-0.561-0.456-1.018-1.02-1.018c-0.562,0-1.017,0.457-1.017,1.018
			c0,0.562,0.455,1.021,1.017,1.021C11.308-40.667,11.764-41.125,11.764-41.688"/>
		<path fill="#2EBDEF" d="M11.764-23.158c0-0.564-0.456-1.02-1.02-1.02c-0.562,0-1.017,0.455-1.017,1.02
			c0,0.561,0.455,1.016,1.017,1.016C11.308-22.143,11.764-22.598,11.764-23.158"/>
		<path fill="#2EBDEF" d="M11.764-27.791c0-0.562-0.456-1.02-1.02-1.02c-0.562,0-1.017,0.458-1.017,1.02
			c0,0.562,0.455,1.018,1.017,1.018C11.308-26.773,11.764-27.229,11.764-27.791"/>
		<path fill="#2EBDEF" d="M11.764-55.582c0-0.562-0.456-1.018-1.02-1.018c-0.562,0-1.017,0.455-1.017,1.018
			c0,0.562,0.455,1.018,1.017,1.018C11.308-54.564,11.764-55.021,11.764-55.582"/>
		<path fill="#2EBDEF" d="M11.764-46.318c0-0.562-0.456-1.02-1.02-1.02c-0.562,0-1.017,0.457-1.017,1.02
			c0,0.562,0.455,1.018,1.017,1.018C11.308-45.301,11.764-45.757,11.764-46.318"/>
		<path fill="#2EBDEF" d="M11.764-50.951c0-0.562-0.456-1.018-1.02-1.018c-0.562,0-1.017,0.456-1.017,1.018s0.455,1.018,1.017,1.018
			C11.308-49.934,11.764-50.39,11.764-50.951"/>
		<path fill="#2EBDEF" d="M11.764-32.424c0-0.562-0.456-1.018-1.02-1.018c-0.562,0-1.017,0.455-1.017,1.018
			c0,0.562,0.455,1.018,1.017,1.018C11.308-31.406,11.764-31.862,11.764-32.424"/>
		<path fill="#2EBDEF" d="M17.135-64.846c0-0.562-0.455-1.018-1.019-1.018c-0.561,0-1.017,0.456-1.017,1.018
			c0,0.561,0.456,1.018,1.017,1.018C16.68-63.828,17.135-64.285,17.135-64.846"/>
		<path fill="#2EBDEF" d="M11.764-18.527c0-0.562-0.456-1.021-1.02-1.021c-0.562,0-1.017,0.458-1.017,1.021
			c0,0.562,0.455,1.018,1.017,1.018C11.308-17.51,11.764-17.966,11.764-18.527"/>
		<path fill="#2EBDEF" d="M17.135-69.479c0-0.562-0.455-1.018-1.019-1.018c-0.561,0-1.017,0.456-1.017,1.018
			c0,0.564,0.456,1.018,1.017,1.018C16.68-68.461,17.135-68.914,17.135-69.479"/>
		<path fill="#2EBDEF" d="M17.135-60.215c0-0.562-0.455-1.018-1.019-1.018c-0.561,0-1.017,0.455-1.017,1.018
			c0,0.562,0.456,1.018,1.017,1.018C16.68-59.197,17.135-59.653,17.135-60.215"/>
		<path fill="#2EBDEF" d="M17.135-74.109c0-0.021-0.002-0.043-0.003-0.062h-2.03c0,0.019-0.003,0.04-0.003,0.062
			c0,0.562,0.456,1.018,1.017,1.018C16.68-73.092,17.135-73.548,17.135-74.109"/>
		<path fill="#2EBDEF" d="M11.764-13.895c0-0.562-0.456-1.021-1.02-1.021c-0.562,0-1.017,0.458-1.017,1.021
			c0,0.561,0.455,1.018,1.017,1.018C11.308-12.877,11.764-13.334,11.764-13.895"/>
		<path fill="#2EBDEF" d="M11.764-9.266c0-0.561-0.456-1.018-1.02-1.018c-0.562,0-1.017,0.457-1.017,1.018
			c0,0.564,0.455,1.021,1.017,1.021C11.308-8.245,11.764-8.701,11.764-9.266"/>
		<path fill="#2EBDEF" d="M11.764-60.215c0-0.562-0.456-1.018-1.02-1.018c-0.562,0-1.017,0.455-1.017,1.018
			c0,0.562,0.455,1.018,1.017,1.018C11.308-59.197,11.764-59.653,11.764-60.215"/>
		<path fill="#2EBDEF" d="M76.232-13.895c0-0.562-0.457-1.021-1.018-1.021c-0.563,0-1.02,0.458-1.02,1.021
			c0,0.561,0.457,1.018,1.02,1.018C75.775-12.877,76.232-13.334,76.232-13.895"/>
		<path fill="#2EBDEF" d="M81.603-69.479c0-0.562-0.456-1.018-1.018-1.018c-0.561,0-1.017,0.456-1.017,1.018
			c0,0.564,0.456,1.018,1.017,1.018C81.147-68.461,81.603-68.914,81.603-69.479"/>
		<path fill="#2EBDEF" d="M81.603-74.109c0-0.021-0.001-0.043-0.002-0.062h-2.03c-0.001,0.019-0.003,0.04-0.003,0.062
			c0,0.562,0.456,1.018,1.017,1.018C81.147-73.092,81.603-73.548,81.603-74.109"/>
		<path fill="#2EBDEF" d="M76.232-27.791c0-0.562-0.457-1.02-1.018-1.02c-0.563,0-1.02,0.458-1.02,1.02
			c0,0.562,0.457,1.018,1.02,1.018C75.775-26.773,76.232-27.229,76.232-27.791"/>
		<path fill="#2EBDEF" d="M81.603-60.215c0-0.562-0.456-1.018-1.018-1.018c-0.561,0-1.017,0.455-1.017,1.018
			c0,0.562,0.456,1.018,1.017,1.018C81.147-59.197,81.603-59.653,81.603-60.215"/>
		<path fill="#2EBDEF" d="M81.603-64.846c0-0.562-0.456-1.018-1.018-1.018c-0.561,0-1.017,0.456-1.017,1.018
			c0,0.561,0.456,1.018,1.017,1.018C81.147-63.828,81.603-64.285,81.603-64.846"/>
		<path fill="#2EBDEF" d="M76.232-18.527c0-0.562-0.457-1.021-1.018-1.021c-0.563,0-1.02,0.458-1.02,1.021
			c0,0.562,0.457,1.018,1.02,1.018C75.775-17.51,76.232-17.966,76.232-18.527"/>
		<path fill="#2EBDEF" d="M76.232-4.633c0-0.561-0.457-1.018-1.018-1.018c-0.563,0-1.02,0.457-1.02,1.018
			c0,0.562,0.457,1.021,1.02,1.021C75.775-3.612,76.232-4.07,76.232-4.633"/>
		<path fill="#2EBDEF" d="M76.232-23.158c0-0.564-0.457-1.02-1.018-1.02c-0.563,0-1.02,0.455-1.02,1.02
			c0,0.561,0.457,1.016,1.02,1.016C75.775-22.143,76.232-22.598,76.232-23.158"/>
		<path fill="#2EBDEF" d="M76.232-9.266c0-0.561-0.457-1.018-1.018-1.018c-0.563,0-1.02,0.457-1.02,1.018
			c0,0.564,0.457,1.021,1.02,1.021C75.775-8.245,76.232-8.701,76.232-9.266"/>
		<path fill="#2EBDEF" d="M81.603-55.582c0-0.562-0.456-1.018-1.018-1.018c-0.561,0-1.017,0.455-1.017,1.018
			c0,0.562,0.456,1.018,1.017,1.018C81.147-54.564,81.603-55.021,81.603-55.582"/>
		<path fill="#2EBDEF" d="M81.603-50.951c0-0.562-0.456-1.018-1.018-1.018c-0.561,0-1.017,0.456-1.017,1.018
			s0.456,1.018,1.017,1.018C81.147-49.934,81.603-50.39,81.603-50.951"/>
		<path fill="#2EBDEF" d="M81.603-32.424c0-0.562-0.456-1.018-1.018-1.018c-0.561,0-1.017,0.455-1.017,1.018
			c0,0.562,0.456,1.018,1.017,1.018C81.147-31.406,81.603-31.862,81.603-32.424"/>
		<path fill="#2EBDEF" d="M81.603-23.158c0-0.564-0.456-1.02-1.018-1.02c-0.561,0-1.017,0.455-1.017,1.02
			c0,0.561,0.456,1.016,1.017,1.016C81.147-22.143,81.603-22.598,81.603-23.158"/>
		<path fill="#2EBDEF" d="M81.603-18.527c0-0.562-0.456-1.021-1.018-1.021c-0.561,0-1.017,0.458-1.017,1.021
			c0,0.562,0.456,1.018,1.017,1.018C81.147-17.51,81.603-17.966,81.603-18.527"/>
		<path fill="#2EBDEF" d="M81.603-27.791c0-0.562-0.456-1.02-1.018-1.02c-0.561,0-1.017,0.458-1.017,1.02
			c0,0.562,0.456,1.018,1.017,1.018C81.147-26.773,81.603-27.229,81.603-27.791"/>
		<path fill="#2EBDEF" d="M81.603-46.318c0-0.562-0.456-1.02-1.018-1.02c-0.561,0-1.017,0.457-1.017,1.02
			c0,0.562,0.456,1.018,1.017,1.018C81.147-45.301,81.603-45.757,81.603-46.318"/>
		<path fill="#2EBDEF" d="M70.859-37.055c0-0.564-0.456-1.02-1.018-1.02s-1.017,0.455-1.017,1.02c0,0.562,0.455,1.018,1.017,1.018
			S70.859-36.493,70.859-37.055"/>
		<path fill="#2EBDEF" d="M81.603-37.055c0-0.564-0.456-1.02-1.018-1.02c-0.561,0-1.017,0.455-1.017,1.02
			c0,0.562,0.456,1.018,1.017,1.018C81.147-36.037,81.603-36.493,81.603-37.055"/>
		<path fill="#2EBDEF" d="M76.232-41.688c0-0.561-0.457-1.018-1.018-1.018c-0.563,0-1.02,0.457-1.02,1.018
			c0,0.562,0.457,1.021,1.02,1.021C75.775-40.667,76.232-41.125,76.232-41.688"/>
		<path fill="#2EBDEF" d="M70.859-18.527c0-0.562-0.456-1.021-1.018-1.021s-1.017,0.458-1.017,1.021
			c0,0.562,0.455,1.018,1.017,1.018S70.859-17.966,70.859-18.527"/>
		<path fill="#2EBDEF" d="M76.232-74.109c0-0.021-0.002-0.043-0.004-0.062h-2.029c-0.002,0.019-0.005,0.04-0.005,0.062
			c0,0.562,0.457,1.018,1.02,1.018C75.775-73.092,76.232-73.548,76.232-74.109"/>
		<path fill="#2EBDEF" d="M70.859-9.266c0-0.561-0.456-1.018-1.018-1.018s-1.017,0.457-1.017,1.018c0,0.564,0.455,1.021,1.017,1.021
			S70.859-8.701,70.859-9.266"/>
		<path fill="#2EBDEF" d="M70.859-4.633c0-0.561-0.456-1.018-1.018-1.018s-1.017,0.457-1.017,1.018c0,0.562,0.455,1.021,1.017,1.021
			S70.859-4.07,70.859-4.633"/>
		<path fill="#2EBDEF" d="M70.859-13.895c0-0.562-0.456-1.021-1.018-1.021s-1.017,0.458-1.017,1.021
			c0,0.561,0.455,1.018,1.017,1.018S70.859-13.334,70.859-13.895"/>
		<path fill="#2EBDEF" d="M70.859-23.158c0-0.564-0.456-1.02-1.018-1.02s-1.017,0.455-1.017,1.02c0,0.561,0.455,1.016,1.017,1.016
			S70.859-22.598,70.859-23.158"/>
		<path fill="#2EBDEF" d="M70.859-32.424c0-0.562-0.456-1.018-1.018-1.018s-1.017,0.455-1.017,1.018
			c0,0.562,0.455,1.018,1.017,1.018S70.859-31.862,70.859-32.424"/>
		<path fill="#2EBDEF" d="M70.859-27.791c0-0.562-0.456-1.02-1.018-1.02s-1.017,0.458-1.017,1.02c0,0.562,0.455,1.018,1.017,1.018
			S70.859-27.229,70.859-27.791"/>
		<path fill="#2EBDEF" d="M76.232-55.582c0-0.562-0.457-1.018-1.018-1.018c-0.563,0-1.02,0.455-1.02,1.018
			c0,0.562,0.457,1.018,1.02,1.018C75.775-54.564,76.232-55.021,76.232-55.582"/>
		<path fill="#2EBDEF" d="M81.603-13.895c0-0.562-0.456-1.021-1.018-1.021c-0.561,0-1.017,0.458-1.017,1.021
			c0,0.561,0.456,1.018,1.017,1.018C81.147-12.877,81.603-13.334,81.603-13.895"/>
		<path fill="#2EBDEF" d="M76.232-46.318c0-0.562-0.457-1.02-1.018-1.02c-0.563,0-1.02,0.457-1.02,1.02
			c0,0.562,0.457,1.018,1.02,1.018C75.775-45.301,76.232-45.757,76.232-46.318"/>
		<path fill="#2EBDEF" d="M76.232-37.055c0-0.564-0.457-1.02-1.018-1.02c-0.563,0-1.02,0.455-1.02,1.02
			c0,0.562,0.457,1.018,1.02,1.018C75.775-36.037,76.232-36.493,76.232-37.055"/>
		<path fill="#2EBDEF" d="M76.232-50.951c0-0.562-0.457-1.018-1.018-1.018c-0.563,0-1.02,0.456-1.02,1.018s0.457,1.018,1.02,1.018
			C75.775-49.934,76.232-50.39,76.232-50.951"/>
		<path fill="#2EBDEF" d="M76.232-60.215c0-0.562-0.457-1.018-1.018-1.018c-0.563,0-1.02,0.455-1.02,1.018
			c0,0.562,0.457,1.018,1.02,1.018C75.775-59.197,76.232-59.653,76.232-60.215"/>
		<path fill="#2EBDEF" d="M76.232-32.424c0-0.562-0.457-1.018-1.018-1.018c-0.563,0-1.02,0.455-1.02,1.018
			c0,0.562,0.457,1.018,1.02,1.018C75.775-31.406,76.232-31.862,76.232-32.424"/>
		<path fill="#2EBDEF" d="M76.232-69.479c0-0.562-0.457-1.018-1.018-1.018c-0.563,0-1.02,0.456-1.02,1.018
			c0,0.564,0.457,1.018,1.02,1.018C75.775-68.461,76.232-68.914,76.232-69.479"/>
		<path fill="#2EBDEF" d="M76.232-64.846c0-0.562-0.457-1.018-1.018-1.018c-0.563,0-1.02,0.456-1.02,1.018
			c0,0.561,0.457,1.018,1.02,1.018C75.775-63.828,76.232-64.285,76.232-64.846"/>
		<path fill="#2EBDEF" d="M81.603-41.688c0-0.561-0.456-1.018-1.018-1.018c-0.561,0-1.017,0.457-1.017,1.018
			c0,0.562,0.456,1.021,1.017,1.021C81.147-40.667,81.603-41.125,81.603-41.688"/>
		<path fill="#2EBDEF" d="M52.706,0h2.036c0-0.562-0.457-1.02-1.018-1.02C53.162-1.02,52.706-0.562,52.706,0"/>
		<path fill="#2EBDEF" d="M63.45,0h2.036c0-0.562-0.455-1.02-1.017-1.02C63.906-1.02,63.45-0.562,63.45,0"/>
		<path fill="#2EBDEF" d="M58.078,0h2.037c0-0.562-0.456-1.02-1.017-1.02C58.535-1.02,58.078-0.562,58.078,0"/>
		<path fill="#2EBDEF" d="M41.961,0h2.036c0-0.562-0.457-1.02-1.018-1.02C42.417-1.02,41.961-0.562,41.961,0"/>
		<path fill="#2EBDEF" d="M49.37-74.109c0-0.021-0.002-0.043-0.003-0.062h-2.03c-0.001,0.019-0.003,0.04-0.003,0.062
			c0,0.562,0.455,1.018,1.018,1.018S49.37-73.548,49.37-74.109"/>
		<path fill="#2EBDEF" d="M79.568,0h2.035c0-0.562-0.456-1.02-1.017-1.02C80.024-1.02,79.568-0.562,79.568,0"/>
		<path fill="#2EBDEF" d="M68.824,0h2.035c0-0.562-0.456-1.02-1.017-1.02C69.279-1.02,68.824-0.562,68.824,0"/>
		<path fill="#2EBDEF" d="M74.194,0h2.038c0-0.562-0.457-1.02-1.018-1.02C74.651-1.02,74.194-0.562,74.194,0"/>
		<path fill="#2EBDEF" d="M47.333,0h2.036c0-0.562-0.455-1.02-1.018-1.02S47.333-0.562,47.333,0"/>
		<path fill="#2EBDEF" d="M4.355,0H6.39c0-0.562-0.456-1.02-1.017-1.02C4.811-1.02,4.355-0.562,4.355,0"/>
		<path fill="#2EBDEF" d="M81.603-9.266c0-0.561-0.456-1.018-1.018-1.018c-0.561,0-1.017,0.457-1.017,1.018
			c0,0.564,0.456,1.021,1.017,1.021C81.147-8.245,81.603-8.701,81.603-9.266"/>
		<path fill="#2EBDEF" d="M9.727,0h2.037c0-0.562-0.456-1.02-1.019-1.02S9.727-0.562,9.727,0"/>
		<path fill="#2EBDEF" d="M0,0H1.02C1.02-0.562,0.562-1.02,0-1.02V0z"/>
		<path fill="#2EBDEF" d="M36.589,0h2.035c0-0.562-0.456-1.02-1.017-1.02C37.044-1.02,36.589-0.562,36.589,0"/>
		<path fill="#2EBDEF" d="M31.216,0h2.037c0-0.562-0.457-1.02-1.018-1.02C31.671-1.02,31.216-0.562,31.216,0"/>
		<path fill="#2EBDEF" d="M20.471,0h2.037c0-0.562-0.456-1.02-1.017-1.02C20.927-1.02,20.471-0.562,20.471,0"/>
		<path fill="#2EBDEF" d="M25.843,0h2.036c0-0.562-0.455-1.02-1.016-1.02C26.3-1.02,25.843-0.562,25.843,0"/>
		<path fill="#2EBDEF" d="M15.099,0h2.036c0-0.562-0.455-1.02-1.018-1.02C15.555-1.02,15.099-0.562,15.099,0"/>
		<path fill="#2EBDEF" d="M85.958-54.564c0.042,0,0.083-0.004,0.124-0.008v-2.021C86.041-56.598,86-56.6,85.958-56.6
			c-0.562,0-1.018,0.455-1.018,1.018S85.396-54.564,85.958-54.564"/>
		<path fill="#2EBDEF" d="M85.958-59.197c0.042,0,0.083-0.002,0.124-0.008v-2.02c-0.041-0.004-0.082-0.008-0.124-0.008
			c-0.562,0-1.018,0.455-1.018,1.018S85.396-59.197,85.958-59.197"/>
		<path fill="#2EBDEF" d="M85.958-45.301c0.042,0,0.083-0.004,0.124-0.008v-2.021c-0.041-0.004-0.082-0.008-0.124-0.008
			c-0.562,0-1.018,0.457-1.018,1.02S85.396-45.301,85.958-45.301"/>
		<path fill="#2EBDEF" d="M85.958-49.934c0.042,0,0.083-0.002,0.124-0.008v-2.02c-0.041-0.004-0.082-0.008-0.124-0.008
			c-0.562,0-1.018,0.455-1.018,1.018S85.396-49.934,85.958-49.934"/>
		<path fill="#2EBDEF" d="M85.958-68.461c0.042,0,0.083-0.002,0.124-0.006v-2.021c-0.041-0.004-0.082-0.008-0.124-0.008
			c-0.562,0-1.018,0.455-1.018,1.018C84.939-68.914,85.396-68.461,85.958-68.461"/>
		<path fill="#2EBDEF" d="M81.603-4.633c0-0.561-0.456-1.018-1.018-1.018c-0.561,0-1.017,0.457-1.017,1.018
			c0,0.562,0.456,1.021,1.017,1.021C81.147-3.612,81.603-4.07,81.603-4.633"/>
		<path fill="#2EBDEF" d="M85.958-63.828c0.042,0,0.083-0.004,0.124-0.008v-2.02c-0.041-0.006-0.082-0.008-0.124-0.008
			c-0.562,0-1.018,0.455-1.018,1.018C84.939-64.285,85.396-63.828,85.958-63.828"/>
		<path fill="#2EBDEF" d="M85.958-73.092c0.042,0,0.083-0.004,0.124-0.008v-1.072h-1.139c-0.002,0.02-0.003,0.041-0.003,0.062
			C84.939-73.547,85.396-73.092,85.958-73.092"/>
		<path fill="#2EBDEF" d="M85.958-22.143c0.042,0,0.083-0.002,0.124-0.008v-2.018c-0.041-0.008-0.082-0.01-0.124-0.01
			c-0.562,0-1.018,0.455-1.018,1.02C84.939-22.598,85.396-22.143,85.958-22.143"/>
		<path fill="#2EBDEF" d="M85.958-12.877c0.042,0,0.083-0.004,0.124-0.01v-2.02c-0.041-0.006-0.082-0.008-0.124-0.008
			c-0.562,0-1.018,0.457-1.018,1.02C84.939-13.334,85.396-12.877,85.958-12.877"/>
		<path fill="#2EBDEF" d="M85.958-40.668c0.042,0,0.083-0.004,0.124-0.01v-2.02c-0.041-0.004-0.082-0.008-0.124-0.008
			c-0.562,0-1.018,0.457-1.018,1.018C84.939-41.125,85.396-40.668,85.958-40.668"/>
		<path fill="#2EBDEF" d="M85.958-17.51c0.042,0,0.083-0.004,0.124-0.008v-2.02c-0.041-0.006-0.082-0.01-0.124-0.01
			c-0.562,0-1.018,0.457-1.018,1.02S85.396-17.51,85.958-17.51"/>
		<path fill="#2EBDEF" d="M85.958-8.246c0.042,0,0.083-0.004,0.124-0.008v-2.02c-0.041-0.006-0.082-0.01-0.124-0.01
			c-0.562,0-1.018,0.457-1.018,1.018C84.939-8.701,85.396-8.246,85.958-8.246"/>
		<path fill="#2EBDEF" d="M85.958-3.613c0.042,0,0.083-0.004,0.124-0.01v-2.02C86.041-5.648,86-5.65,85.958-5.65
			c-0.562,0-1.018,0.457-1.018,1.018C84.939-4.07,85.396-3.613,85.958-3.613"/>
		<path fill="#2EBDEF" d="M85.958-36.037c0.042,0,0.083-0.004,0.124-0.008v-2.021c-0.041-0.004-0.082-0.008-0.124-0.008
			c-0.562,0-1.018,0.455-1.018,1.02C84.939-36.492,85.396-36.037,85.958-36.037"/>
		<path fill="#2EBDEF" d="M85.958-31.406c0.042,0,0.083-0.002,0.124-0.008v-2.02c-0.041-0.006-0.082-0.008-0.124-0.008
			c-0.562,0-1.018,0.455-1.018,1.018S85.396-31.406,85.958-31.406"/>
		<path fill="#2EBDEF" d="M85.958-26.773c0.042,0,0.083-0.002,0.124-0.008v-2.02c-0.041-0.006-0.082-0.01-0.124-0.01
			c-0.562,0-1.018,0.457-1.018,1.02S85.396-26.773,85.958-26.773"/>
		<path fill="#2EBDEF" d="M86.082,0v-1.01C86.041-1.016,86-1.02,85.958-1.02c-0.563,0-1.018,0.458-1.018,1.02H86.082z"/>
		<path fill="#2EBDEF" d="M54.742-41.688c0-0.561-0.457-1.018-1.018-1.018c-0.562,0-1.018,0.457-1.018,1.018
			c0,0.562,0.456,1.021,1.018,1.021C54.285-40.667,54.742-41.125,54.742-41.688"/>
		<path fill="#2EBDEF" d="M54.742-46.318c0-0.562-0.457-1.02-1.018-1.02c-0.562,0-1.018,0.457-1.018,1.02
			c0,0.562,0.456,1.018,1.018,1.018C54.285-45.301,54.742-45.757,54.742-46.318"/>
		<path fill="#2EBDEF" d="M54.742-69.479c0-0.562-0.457-1.018-1.018-1.018c-0.562,0-1.018,0.456-1.018,1.018
			c0,0.564,0.456,1.018,1.018,1.018C54.285-68.461,54.742-68.914,54.742-69.479"/>
		<path fill="#2EBDEF" d="M54.742-32.424c0-0.562-0.457-1.018-1.018-1.018c-0.562,0-1.018,0.455-1.018,1.018
			c0,0.562,0.456,1.018,1.018,1.018C54.285-31.406,54.742-31.862,54.742-32.424"/>
		<path fill="#2EBDEF" d="M54.742-37.055c0-0.564-0.457-1.02-1.018-1.02c-0.562,0-1.018,0.455-1.018,1.02
			c0,0.562,0.456,1.018,1.018,1.018C54.285-36.037,54.742-36.493,54.742-37.055"/>
		<path fill="#2EBDEF" d="M54.742-60.215c0-0.562-0.457-1.018-1.018-1.018c-0.562,0-1.018,0.455-1.018,1.018
			c0,0.562,0.456,1.018,1.018,1.018C54.285-59.197,54.742-59.653,54.742-60.215"/>
		<path fill="#2EBDEF" d="M54.742-55.582c0-0.562-0.457-1.018-1.018-1.018c-0.562,0-1.018,0.455-1.018,1.018
			c0,0.562,0.456,1.018,1.018,1.018C54.285-54.564,54.742-55.021,54.742-55.582"/>
		<path fill="#2EBDEF" d="M54.742-50.951c0-0.562-0.457-1.018-1.018-1.018c-0.562,0-1.018,0.456-1.018,1.018
			s0.456,1.018,1.018,1.018C54.285-49.934,54.742-50.39,54.742-50.951"/>
		<path fill="#2EBDEF" d="M54.742-27.791c0-0.562-0.457-1.02-1.018-1.02c-0.562,0-1.018,0.458-1.018,1.02
			c0,0.562,0.456,1.018,1.018,1.018C54.285-26.773,54.742-27.229,54.742-27.791"/>
		<path fill="#2EBDEF" d="M60.115-60.215c0-0.562-0.456-1.018-1.018-1.018s-1.019,0.455-1.019,1.018
			c0,0.562,0.457,1.018,1.019,1.018S60.115-59.653,60.115-60.215"/>
		<path fill="#2EBDEF" d="M60.115-74.109c0-0.021-0.003-0.043-0.004-0.062h-2.028c-0.003,0.019-0.005,0.04-0.005,0.062
			c0,0.562,0.457,1.018,1.019,1.018S60.115-73.548,60.115-74.109"/>
		<path fill="#2EBDEF" d="M54.742-4.633c0-0.561-0.457-1.018-1.018-1.018c-0.562,0-1.018,0.457-1.018,1.018
			c0,0.562,0.456,1.021,1.018,1.021C54.285-3.612,54.742-4.07,54.742-4.633"/>
		<path fill="#2EBDEF" d="M60.115-69.479c0-0.562-0.456-1.018-1.018-1.018s-1.019,0.456-1.019,1.018
			c0,0.564,0.457,1.018,1.019,1.018S60.115-68.914,60.115-69.479"/>
		<path fill="#2EBDEF" d="M60.115-64.846c0-0.562-0.456-1.018-1.018-1.018s-1.019,0.456-1.019,1.018
			c0,0.561,0.457,1.018,1.019,1.018S60.115-64.285,60.115-64.846"/>
		<path fill="#2EBDEF" d="M54.742-9.266c0-0.561-0.457-1.018-1.018-1.018c-0.562,0-1.018,0.457-1.018,1.018
			c0,0.564,0.456,1.021,1.018,1.021C54.285-8.245,54.742-8.701,54.742-9.266"/>
		<path fill="#2EBDEF" d="M54.742-18.527c0-0.562-0.457-1.021-1.018-1.021c-0.562,0-1.018,0.458-1.018,1.021
			c0,0.562,0.456,1.018,1.018,1.018C54.285-17.51,54.742-17.966,54.742-18.527"/>
		<path fill="#2EBDEF" d="M54.742-13.895c0-0.562-0.457-1.021-1.018-1.021c-0.562,0-1.018,0.458-1.018,1.021
			c0,0.561,0.456,1.018,1.018,1.018C54.285-12.877,54.742-13.334,54.742-13.895"/>
		<path fill="#2EBDEF" d="M54.742-23.158c0-0.564-0.457-1.02-1.018-1.02c-0.562,0-1.018,0.455-1.018,1.02
			c0,0.561,0.456,1.016,1.018,1.016C54.285-22.143,54.742-22.598,54.742-23.158"/>
		<path fill="#2EBDEF" d="M49.37-50.951c0-0.562-0.455-1.018-1.018-1.018s-1.018,0.456-1.018,1.018s0.455,1.018,1.018,1.018
			S49.37-50.39,49.37-50.951"/>
		<path fill="#2EBDEF" d="M49.37-46.318c0-0.562-0.455-1.02-1.018-1.02s-1.018,0.457-1.018,1.02c0,0.562,0.455,1.018,1.018,1.018
			S49.37-45.757,49.37-46.318"/>
		<path fill="#2EBDEF" d="M49.37-55.582c0-0.562-0.455-1.018-1.018-1.018s-1.018,0.455-1.018,1.018c0,0.562,0.455,1.018,1.018,1.018
			S49.37-55.021,49.37-55.582"/>
		<path fill="#2EBDEF" d="M49.37-41.688c0-0.561-0.455-1.018-1.018-1.018s-1.018,0.457-1.018,1.018c0,0.562,0.455,1.021,1.018,1.021
			S49.37-41.125,49.37-41.688"/>
		<path fill="#2EBDEF" d="M49.37-69.479c0-0.562-0.455-1.018-1.018-1.018s-1.018,0.456-1.018,1.018c0,0.564,0.455,1.018,1.018,1.018
			S49.37-68.914,49.37-69.479"/>
		<path fill="#2EBDEF" d="M49.37-64.846c0-0.562-0.455-1.018-1.018-1.018s-1.018,0.456-1.018,1.018c0,0.561,0.455,1.018,1.018,1.018
			S49.37-64.285,49.37-64.846"/>
		<path fill="#2EBDEF" d="M49.37-37.055c0-0.564-0.455-1.02-1.018-1.02s-1.018,0.455-1.018,1.02c0,0.562,0.455,1.018,1.018,1.018
			S49.37-36.493,49.37-37.055"/>
		<path fill="#2EBDEF" d="M49.37-60.215c0-0.562-0.455-1.018-1.018-1.018s-1.018,0.455-1.018,1.018c0,0.562,0.455,1.018,1.018,1.018
			S49.37-59.653,49.37-60.215"/>
		<path fill="#2EBDEF" d="M49.37-27.791c0-0.562-0.455-1.02-1.018-1.02s-1.018,0.458-1.018,1.02c0,0.562,0.455,1.018,1.018,1.018
			S49.37-27.229,49.37-27.791"/>
		<path fill="#2EBDEF" d="M49.37-13.895c0-0.562-0.455-1.021-1.018-1.021s-1.018,0.458-1.018,1.021c0,0.561,0.455,1.018,1.018,1.018
			S49.37-13.334,49.37-13.895"/>
		<path fill="#2EBDEF" d="M49.37-9.266c0-0.561-0.455-1.018-1.018-1.018s-1.018,0.457-1.018,1.018c0,0.564,0.455,1.021,1.018,1.021
			S49.37-8.701,49.37-9.266"/>
		<path fill="#2EBDEF" d="M49.37-4.633c0-0.561-0.455-1.018-1.018-1.018s-1.018,0.457-1.018,1.018c0,0.562,0.455,1.021,1.018,1.021
			S49.37-4.07,49.37-4.633"/>
		<path fill="#2EBDEF" d="M49.37-32.424c0-0.562-0.455-1.018-1.018-1.018s-1.018,0.455-1.018,1.018c0,0.562,0.455,1.018,1.018,1.018
			S49.37-31.862,49.37-32.424"/>
		<path fill="#2EBDEF" d="M54.742-74.109c0-0.021-0.002-0.043-0.004-0.062h-2.029c-0.002,0.019-0.003,0.04-0.003,0.062
			c0,0.562,0.456,1.018,1.018,1.018C54.285-73.092,54.742-73.548,54.742-74.109"/>
		<path fill="#2EBDEF" d="M54.742-64.846c0-0.562-0.457-1.018-1.018-1.018c-0.562,0-1.018,0.456-1.018,1.018
			c0,0.561,0.456,1.018,1.018,1.018C54.285-63.828,54.742-64.285,54.742-64.846"/>
		<path fill="#2EBDEF" d="M49.37-23.158c0-0.564-0.455-1.02-1.018-1.02s-1.018,0.455-1.018,1.02c0,0.561,0.455,1.016,1.018,1.016
			S49.37-22.598,49.37-23.158"/>
		<path fill="#2EBDEF" d="M49.37-18.527c0-0.562-0.455-1.021-1.018-1.021s-1.018,0.458-1.018,1.021c0,0.562,0.455,1.018,1.018,1.018
			S49.37-17.966,49.37-18.527"/>
		<path fill="#2EBDEF" d="M60.115-41.688c0-0.561-0.456-1.018-1.018-1.018s-1.019,0.457-1.019,1.018
			c0,0.562,0.457,1.021,1.019,1.021S60.115-41.125,60.115-41.688"/>
		<path fill="#2EBDEF" d="M65.486-23.158c0-0.564-0.455-1.02-1.018-1.02c-0.562,0-1.018,0.455-1.018,1.02
			c0,0.561,0.456,1.016,1.018,1.016C65.031-22.143,65.486-22.598,65.486-23.158"/>
		<path fill="#2EBDEF" d="M65.486-18.527c0-0.562-0.455-1.021-1.018-1.021c-0.562,0-1.018,0.458-1.018,1.021
			c0,0.562,0.456,1.018,1.018,1.018C65.031-17.51,65.486-17.966,65.486-18.527"/>
		<path fill="#2EBDEF" d="M65.486-27.791c0-0.562-0.455-1.02-1.018-1.02c-0.562,0-1.018,0.458-1.018,1.02
			c0,0.562,0.456,1.018,1.018,1.018C65.031-26.773,65.486-27.229,65.486-27.791"/>
		<path fill="#2EBDEF" d="M65.486-13.895c0-0.562-0.455-1.021-1.018-1.021c-0.562,0-1.018,0.458-1.018,1.021
			c0,0.561,0.456,1.018,1.018,1.018C65.031-12.877,65.486-13.334,65.486-13.895"/>
		<path fill="#2EBDEF" d="M65.486-37.055c0-0.564-0.455-1.02-1.018-1.02c-0.562,0-1.018,0.455-1.018,1.02
			c0,0.562,0.456,1.018,1.018,1.018C65.031-36.037,65.486-36.493,65.486-37.055"/>
		<path fill="#2EBDEF" d="M65.486-41.688c0-0.561-0.455-1.018-1.018-1.018c-0.562,0-1.018,0.457-1.018,1.018
			c0,0.562,0.456,1.021,1.018,1.021C65.031-40.667,65.486-41.125,65.486-41.688"/>
		<path fill="#2EBDEF" d="M65.486-9.266c0-0.561-0.455-1.018-1.018-1.018c-0.562,0-1.018,0.457-1.018,1.018
			c0,0.564,0.456,1.021,1.018,1.021C65.031-8.245,65.486-8.701,65.486-9.266"/>
		<path fill="#2EBDEF" d="M65.486-32.424c0-0.562-0.455-1.018-1.018-1.018c-0.562,0-1.018,0.455-1.018,1.018
			c0,0.562,0.456,1.018,1.018,1.018C65.031-31.406,65.486-31.862,65.486-32.424"/>
		<path fill="#2EBDEF" d="M70.859-55.582c0-0.562-0.456-1.018-1.018-1.018s-1.017,0.455-1.017,1.018
			c0,0.562,0.455,1.018,1.017,1.018S70.859-55.021,70.859-55.582"/>
		<path fill="#2EBDEF" d="M65.486-46.318c0-0.562-0.455-1.02-1.018-1.02c-0.562,0-1.018,0.457-1.018,1.02
			c0,0.562,0.456,1.018,1.018,1.018C65.031-45.301,65.486-45.757,65.486-46.318"/>
		<path fill="#2EBDEF" d="M70.859-50.951c0-0.562-0.456-1.018-1.018-1.018s-1.017,0.456-1.017,1.018s0.455,1.018,1.017,1.018
			S70.859-50.39,70.859-50.951"/>
		<path fill="#2EBDEF" d="M60.115-55.582c0-0.562-0.456-1.018-1.018-1.018s-1.019,0.455-1.019,1.018
			c0,0.562,0.457,1.018,1.019,1.018S60.115-55.021,60.115-55.582"/>
		<path fill="#2EBDEF" d="M65.486-4.633c0-0.561-0.455-1.018-1.018-1.018c-0.562,0-1.018,0.457-1.018,1.018
			c0,0.562,0.456,1.021,1.018,1.021C65.031-3.612,65.486-4.07,65.486-4.633"/>
		<path fill="#2EBDEF" d="M70.859-60.215c0-0.562-0.456-1.018-1.018-1.018s-1.017,0.455-1.017,1.018
			c0,0.562,0.455,1.018,1.017,1.018S70.859-59.653,70.859-60.215"/>
		<path fill="#2EBDEF" d="M70.859-74.109c0-0.021-0.003-0.043-0.003-0.062h-2.029c-0.003,0.019-0.003,0.04-0.003,0.062
			c0,0.562,0.455,1.018,1.017,1.018S70.859-73.548,70.859-74.109"/>
		<path fill="#2EBDEF" d="M70.859-69.479c0-0.562-0.456-1.018-1.018-1.018s-1.017,0.456-1.017,1.018
			c0,0.564,0.455,1.018,1.017,1.018S70.859-68.914,70.859-69.479"/>
		<path fill="#2EBDEF" d="M70.859-64.846c0-0.562-0.456-1.018-1.018-1.018s-1.017,0.456-1.017,1.018
			c0,0.561,0.455,1.018,1.017,1.018S70.859-64.285,70.859-64.846"/>
		<path fill="#2EBDEF" d="M70.859-46.318c0-0.562-0.456-1.02-1.018-1.02s-1.017,0.457-1.017,1.02c0,0.562,0.455,1.018,1.017,1.018
			S70.859-45.757,70.859-46.318"/>
		<path fill="#2EBDEF" d="M60.115-27.791c0-0.562-0.456-1.02-1.018-1.02s-1.019,0.458-1.019,1.02c0,0.562,0.457,1.018,1.019,1.018
			S60.115-27.229,60.115-27.791"/>
		<path fill="#2EBDEF" d="M60.115-18.527c0-0.562-0.456-1.021-1.018-1.021s-1.019,0.458-1.019,1.021
			c0,0.562,0.457,1.018,1.019,1.018S60.115-17.966,60.115-18.527"/>
		<path fill="#2EBDEF" d="M60.115-32.424c0-0.562-0.456-1.018-1.018-1.018s-1.019,0.455-1.019,1.018
			c0,0.562,0.457,1.018,1.019,1.018S60.115-31.862,60.115-32.424"/>
		<path fill="#2EBDEF" d="M60.115-23.158c0-0.564-0.456-1.02-1.018-1.02s-1.019,0.455-1.019,1.02c0,0.561,0.457,1.016,1.019,1.016
			S60.115-22.598,60.115-23.158"/>
		<path fill="#2EBDEF" d="M60.115-37.055c0-0.564-0.456-1.02-1.018-1.02s-1.019,0.455-1.019,1.02c0,0.562,0.457,1.018,1.019,1.018
			S60.115-36.493,60.115-37.055"/>
		<path fill="#2EBDEF" d="M60.115-50.951c0-0.562-0.456-1.018-1.018-1.018s-1.019,0.456-1.019,1.018s0.457,1.018,1.019,1.018
			S60.115-50.39,60.115-50.951"/>
		<path fill="#2EBDEF" d="M60.115-46.318c0-0.562-0.456-1.02-1.018-1.02s-1.019,0.457-1.019,1.02c0,0.562,0.457,1.018,1.019,1.018
			S60.115-45.757,60.115-46.318"/>
		<path fill="#2EBDEF" d="M70.859-41.688c0-0.561-0.456-1.018-1.018-1.018s-1.017,0.457-1.017,1.018
			c0,0.562,0.455,1.021,1.017,1.021S70.859-41.125,70.859-41.688"/>
		<path fill="#2EBDEF" d="M60.115-13.895c0-0.562-0.456-1.021-1.018-1.021s-1.019,0.458-1.019,1.021
			c0,0.561,0.457,1.018,1.019,1.018S60.115-13.334,60.115-13.895"/>
		<path fill="#2EBDEF" d="M65.486-60.215c0-0.562-0.455-1.018-1.018-1.018c-0.562,0-1.018,0.455-1.018,1.018
			c0,0.562,0.456,1.018,1.018,1.018C65.031-59.197,65.486-59.653,65.486-60.215"/>
		<path fill="#2EBDEF" d="M65.486-50.951c0-0.562-0.455-1.018-1.018-1.018c-0.562,0-1.018,0.456-1.018,1.018
			s0.456,1.018,1.018,1.018C65.031-49.934,65.486-50.39,65.486-50.951"/>
		<path fill="#2EBDEF" d="M65.486-69.479c0-0.562-0.455-1.018-1.018-1.018c-0.562,0-1.018,0.456-1.018,1.018
			c0,0.564,0.456,1.018,1.018,1.018C65.031-68.461,65.486-68.914,65.486-69.479"/>
		<path fill="#2EBDEF" d="M65.486-55.582c0-0.562-0.455-1.018-1.018-1.018c-0.562,0-1.018,0.455-1.018,1.018
			c0,0.562,0.456,1.018,1.018,1.018C65.031-54.564,65.486-55.021,65.486-55.582"/>
		<path fill="#2EBDEF" d="M65.486-64.846c0-0.562-0.455-1.018-1.018-1.018c-0.562,0-1.018,0.456-1.018,1.018
			c0,0.561,0.456,1.018,1.018,1.018C65.031-63.828,65.486-64.285,65.486-64.846"/>
		<path fill="#2EBDEF" d="M65.486-74.109c0-0.021-0.002-0.043-0.003-0.062h-2.03c0,0.019-0.003,0.04-0.003,0.062
			c0,0.562,0.456,1.018,1.018,1.018C65.031-73.092,65.486-73.548,65.486-74.109"/>
		<path fill="#2EBDEF" d="M60.115-9.266c0-0.561-0.456-1.018-1.018-1.018s-1.019,0.457-1.019,1.018c0,0.564,0.457,1.021,1.019,1.021
			S60.115-8.701,60.115-9.266"/>
		<path fill="#2EBDEF" d="M60.115-4.633c0-0.561-0.456-1.018-1.018-1.018s-1.019,0.457-1.019,1.018c0,0.562,0.457,1.021,1.019,1.021
			S60.115-4.07,60.115-4.633"/>
	</g>
</pattern>
<polygon fill="#82CFF5" points="611.861,488.812 1097.648,493.604 1112.031,0 610.358,9.536 "/>
<pattern  id="SVGID_1_" xlink:href="#Unnamed_Pattern_9" patternTransform="matrix(1 0 0 -1 -2605.6572 1903.3105)">
</pattern>
<polyline fill="url(#SVGID_1_)" points="1103.584,205.903 1110.251,0.34 608.251,7.543 614.251,109.494 "/>
<g>
	<polygon fill="#0DA2DD" points="786.556,115.659 783.873,115.569 783.944,137.135 786.629,137.227 	"/>
	<polygon fill="#0DA2DD" points="798.673,118.467 795.219,119.139 795.301,139.514 798.432,138.334 	"/>
	<polygon fill="#0DA2DD" points="766.979,141.378 768.065,163.294 771.133,163.281 771.036,139.998 	"/>
	<polygon fill="#0DA2DD" points="786.702,143.102 791.922,143.589 791.396,169.047 787.515,168.331 	"/>
	<polygon fill="#0DA2DD" points="796.802,142.458 801.186,140.683 800.534,161.747 797.612,161.76 	"/>
	<polygon fill="#0DA2DD" points="778.364,141.498 782.379,141.482 781.239,159.928 778.439,159.939 	"/>
	<polygon fill="#E4F3FB" points="780.912,135.242 763.323,138.469 793.431,144.436 803.456,137.033 	"/>
	<polygon fill="#C3E5F6" points="803.456,136.952 802.89,140.52 793.401,148.088 793.431,144.436 	"/>
	<path fill="#C3E5F6" d="M778.623,111.794c0.327-0.114,23.536,1.563,23.536,1.563l0.892,0.973l-0.101,9.059l-0.645,0.978
		l-0.856-10.959L778.623,111.794z"/>
	<polygon fill="#E4F3FB" points="779.13,121.652 802.328,124.288 802.284,113.412 778.623,111.794 	"/>
	<polygon fill="#C3E5F6" points="763.323,138.469 763.492,142.123 793.401,148.088 793.431,144.436 	"/>
</g>
<g>
	<path fill="#0DA2DD" d="M721.207,175.158c-0.374,0.438-20.923,2.398-21.3,2.624c-0.377,0.227-7.749,16.293-7.749,16.293
		l25.891-3.631L721.207,175.158z"/>
	<polygon fill="#0DA2DD" points="722.226,193.816 727.631,193.437 728.79,233.097 723.383,233.477 	"/>
	<polygon fill="#0DA2DD" points="698.318,191.117 704.722,193.554 706.055,239.179 699.654,236.745 	"/>
	<polygon fill="#0DA2DD" points="763.611,250.099 763.037,299.239 756.851,299.415 755.326,247.277 	"/>
	<polygon fill="#0DA2DD" points="723.952,255.268 713.458,256.704 716.396,313.668 724.174,311.808 	"/>
	<polygon fill="#0DA2DD" points="702.8,242.278 693.239,240.067 696.692,285.714 702.59,285.546 	"/>
	<polygon fill="#0DA2DD" points="740.275,239.62 732.175,239.85 735.837,281.071 741.484,280.912 	"/>
	<polygon fill="#E4F3FB" points="734.771,228.655 770.774,243.342 710.478,258.7 689.713,237.366 	"/>
	<polygon fill="#C3E5F6" points="689.639,237.335 689.895,245.14 710.804,266.877 710.478,258.7 	"/>
	<path fill="#C3E5F6" d="M737.943,184.634c-0.668-0.233-4.616-0.957-4.616-0.957l-45.158,4.344l1.552,24.189l1.371,2.146
		l0.923-24.595L737.943,184.634z"/>
	<polygon fill="#E4F3FB" points="737.509,206.796 690.903,214.239 690.192,189.886 737.807,184.69 	"/>
	<polygon fill="#C3E5F6" points="770.774,243.342 770.703,251.535 710.804,266.877 710.478,258.7 	"/>
	<path fill="#C3E5F6" d="M731.011,205.339c0,0-24.062,5.244-23.492,5.014c0.57-0.231-4.668-30.967-4.668-30.967l21.298-2.623
		L731.011,205.339z"/>
	<polygon fill="#C3E5F6" points="724.129,176.132 721.207,175.158 699.907,177.782 702.829,178.757 	"/>
	<path fill="#0DA2DD" d="M710.346,191.749l2.664-0.653c0,0-0.976-2.899,1.852-2.891c2.827,0.013-2.098,8.04-2.098,8.04
		s-0.797,3.168-0.653,3.266c0.142,0.102,9.442-1.149,9.442-1.149l0.008-2.948l-6.263,0.98c0,0,7.278-10.098,0.73-10.602
		C709.479,185.288,710.247,191.601,710.346,191.749z"/>
	<g>
		<path fill="#0DA2DD" d="M735.171,246.823c0,0,0.805-3.481,8.982-6.404c3.709-1.324,10.461-0.188,10.461-0.188l-14.035-10.691
			c0,0-10.527,7.491-11.063,9.75C728.976,241.556,735.171,246.823,735.171,246.823z"/>
		<path fill="#0DA2DD" d="M735.083,246.944c0,0-3.81,0.08-8.461,2.57c-7.297,3.904-8.784,9.575-8.784,9.575l-21.883-16.582
			c0,0,6.306-16.252,22.529-13.644C719.007,228.951,735.083,246.944,735.083,246.944z"/>
		<path fill="#FFFFFF" d="M734.96,246.738c-0.063,0.426-17.148-18.179-17.148-18.179s0.903-13.937,19.16-10.208l17.198,18.589
			C754.17,236.94,736.894,233.364,734.96,246.738z"/>
		<path fill="#FFFFFF" d="M734.837,246.728c0.394-0.023-17.194-18.182-17.194-18.182s-14.329-4.439-21.933,10.81l21.083,16.594
			C716.793,255.949,722.495,247.453,734.837,246.728z"/>
		<path fill="#A42423" d="M736.085,229.827c-0.835-0.974-0.29-2.585-0.271-3.767c0.02-1.399-0.779-2.267-1.907-2.699
			c-1.632-0.63-3.746-0.268-4.984,1.066c-0.553,0.598-0.619,1.24-0.434,1.839c-0.838-0.206-1.452,1.126-0.587,1.504
			c0.857,0.377,1.671,0.539,2.591,0.551c0.772,0.01,0.971-1.184,0.33-1.58c-0.97-0.602-0.992-1.258,0.006-1.719
			c0.748-0.346,1.638-0.264,2.42-0.115c0.933,0.18,1.084,0.751,1.033,1.678c-0.091,1.672-0.378,3.125,0.772,4.464
			C735.731,231.839,736.761,230.61,736.085,229.827z"/>
		<path fill="#A42423" d="M738.121,231.943c-0.975,0.03-0.919,1.712,0.056,1.681C739.155,233.593,739.1,231.91,738.121,231.943z"/>
	</g>
</g>
<g>
	<path fill="#0E8CCD" d="M815.917,410.972c-0.046,0.051-0.129-0.027-0.245-0.222C815.981,410.717,816.091,410.782,815.917,410.972z"
		/>
</g>
<g>
	<path fill="#FFFFFF" d="M1002.838,352.092c0.022,2.411,0.477,5,1.223,7.664c3.552,0.284,7.104,2.111,10.657,3.225
		c-1.649-4.096-2.739-7.545-2.788-9.66c-0.125-5.58,6.098-27.479,10.062-37.031c-2.771-1.972-5.358-4.439-9.002-5.332
		C1008.336,323.361,1002.738,341.373,1002.838,352.092z"/>
	<path fill="#FFFFFF" d="M1027.911,352.65c0.717-8.576,11.448-20.728,15.722-30.34c-6.084-1.003-12.242-1.914-18.09-4.084
		c-1.309,9.658-6.513,27.547-6.499,34.959c0.003,1.912,1.278,4.881,3.333,8.437c4.293,0.793,8.722,6.8,13.147,6.255
		C1034.227,364.67,1027.736,354.754,1027.911,352.65z"/>
	<path fill="#FFFFFF" d="M1037.551,229.246c1.92,11.589-3.044,15.384-6.266,13.158c-3.944-2.726-45.637-19.312-47.617-23.809
		c-1.981-4.497,23.655-43.437,23.655-43.437s3.378-7.758,4.028-8.6c5.361-6.911,5.939-12.656,8.563-14.543
		s13.691-3.115,14.568-1.695c0.877,1.422-1.632,1.434-5.213,2.104c-3.583,0.669-5.981,1.674-5.981,1.674s-2.688,4.245-1.354,5.237
		c1.336,0.988-0.92-0.119-0.92-0.119l7.814-5.174l11.025-0.679c0,0-0.273,3.386-1.776,3.548c-1.503,0.158-7.052,0.893-7.052,0.893
		s-3.729,2.779-5.375,5.051c-1.615,2.225,5.521-2.51,7.557-2.263c2.099,0.254,5.98,2.181,5.991,2.548
		c0.099,3.123-5.076,0.87-7.81,1.316l-4.781,2.312c0,0-3.715,10.037-7.153,11.293l-8.577,5.498c0,0-14.315,31.098-10.293,33.153
		C1018.745,225.998,1037.426,228.492,1037.551,229.246z"/>
	<path fill="#110906" d="M988.488,403.127c10.316,9.854,43.268-3.44,44.388-2.809c0.144,0.08-1.354-4.538-1.324-4.635
		c-3.598-0.862-4.87,1.987-8.275,0.331C1013.638,395.885,982.135,397.058,988.488,403.127z"/>
	<path fill="#0E8CCD" d="M1025.151,396.278c0.126,0.19,0.821-0.566-1.213-0.595c3.405,1.656,2.361,0.131,5.959,0.993
		c0.471-1.511-10.827-23.854-16.552-38.068c-3.642,2.317-5.733,1.432-9.285,1.147
		C1008.623,376.055,1024.53,395.334,1025.151,396.278z"/>
	<path fill="#110906" d="M1050.826,308.385c0,0-32.749-10.811-32.908-10.668c-0.667,0.584-7.991,11.812-11.986,24.319
		c3.644,0.893,11.939,1.843,14.711,3.814c1.153-2.778,3.664-12.69,4.224-12.673c1.3,0.04-3.648,12.68-2.779,13.027
		c7.469,0.521,15.05,3.79,21.019,6.774C1046.648,325.012,1050.826,308.385,1050.826,308.385z"/>
	<path fill="#0E8CCD" d="M1062.51,403.965c-5.293-8.199-24.145-28.474-29.634-42.046c-3.383,2.432-2.647,1.324-10.499-0.297
		c7.977,13.804,27.901,36.581,32.662,41.952C1057.479,403.523,1059.993,403.713,1062.51,403.965z"/>
	<path fill="#110906" d="M1055.039,403.574c0.663,0.748,1.037,1.164,1.037,1.164s-49.502,1.316-36.657,10.31
		c11.394,7.978,43.306-8.081,44.435-7.687c0.816,0.283,0.191-1.016-1.344-3.396C1059.993,403.713,1057.479,403.523,1055.039,403.574
		z"/>
	<path fill="#0E8CCD" d="M1057.826,239.191c3.504,14.315,8.652,16.697-6.062,71.489c-1.036,3.876-41.324-9.376-39.214-11.532
		c14.027-14.326,11.454-32.452,10.72-44.963c-0.604-10.346,4.147-32.826,14.814-33.104
		C1048.275,220.814,1055.353,229.096,1057.826,239.191z"/>
	<path fill="#110906" d="M1064.796,195.936c0,0-7.431,7.459-0.48,13.582c6.948,6.121,7.256,3.797,7.256,3.797
		s-6.97,6.527-12.271,3.475c-5.302-3.051-3.442-6.356-3.442-6.356s-3.203,6.895-1.179,8.204c2.026,1.312-10.378,0.913-10.684-4.832
		c-0.307-5.742,10.055-20.951,10.607-20.847C1055.159,193.068,1064.796,195.936,1064.796,195.936"/>
	<path fill="#FFFFFF" d="M1061.561,177.186c0.082-0.475,0.167-0.949,0.229-1.43c1.061-8.703-5.885-14.805-13.016-18.936
		c-7.065-4.092-16.887-6.978-24.812-3.543c-7.386,3.201-8.591,13.064-9.699,19.725c-0.783,4.67-1.979,9.186-3.295,13.75
		c-0.367,1.258-0.741,2.591-1.076,3.956c-0.786,1.479-5.59,22.585,6.585,22.718c4.315,0.048,8.59-0.111,12.821-0.414
		c6.332-0.445,5.323,8.537,4.202,11.053c-0.627,1.402-4.215,6.045-3.023,6.257c0.819,0.147,16.267-4.259,16.063-4.767
		c-3.89-9.718-0.006-10.721,2.412-15.342c2.531-2.849,4.896-5.59,6.63-9.1c1.825-3.709,3.384-7.528,4.602-11.457
		C1061.423,185.646,1062.093,181.312,1061.561,177.186z"/>
	<path fill="#110906" d="M1039.324,160.772c-0.589,0.069-0.75,9.721,4.899,17.423c5.653,7.701,4.968,14.008,2.381,21.142
		c-0.136,0.376,10.105-4.038,11.777-11.851c0.178-0.822,0.817,6.894-1.345,9.143c-2.164,2.249,16.276,2.663,13.104-17.262
		c-3.175-19.926-10.885-19.766-10.885-19.766s5.688-2.391,11.082,5.627c0,0-1.953-9.729-10.691-11.98
		c-17.863-4.607-20.674,0.554-20.674,0.554"/>
	<path fill="#FFFFFF" d="M1058.247,188.401c0.915-0.366,1.894-0.601,2.926-0.641c0.772-0.034,1.54,0.12,2.238,0.425
		c1.967,0.428,3.322,2.009,2.898,4.861c-0.343,2.287-1.709,4.076-3.57,5.25c-0.589,0.52-1.242,1-1.961,1.43
		c-2.076,1.246-4.764,2.633-7.299,2c-0.8-0.201-1.221-0.756-1.343-1.364c-0.812-0.265-1.511-0.78-1.812-1.474
		C1053.819,196.126,1056.065,192.277,1058.247,188.401z"/>
	<path fill="none" stroke="#1E1E1C" stroke-width="0.8718" stroke-miterlimit="10" d="M1017.734,181.945
		c-0.325,1.52-1.252,2.615-2.07,2.46c-0.818-0.162-1.22-1.522-0.893-3.037c0.323-1.518,1.252-2.619,2.068-2.459
		C1017.658,179.067,1018.059,180.428,1017.734,181.945z"/>
	<path fill="none" stroke="#1E1E1C" stroke-width="0.8718" stroke-miterlimit="10" d="M1034.386,185.949
		c-0.327,1.516-0.047,1.17-2.129,1.046c-0.831-0.048-1.158-0.104-0.829-1.622c0.32-1.52,1.247-2.619,2.065-2.461
		C1034.311,183.074,1034.71,184.432,1034.386,185.949z"/>
	<path fill="none" stroke="#1E1E1C" stroke-width="1.7399" stroke-miterlimit="10" d="M1029.611,181.604c0,0-5.014,7.605-0.861,9.43
		c4.158,1.826,11.984,5.937,13.783,2.504c1.8-3.434,4.545-6.775-0.63-9.26C1036.729,181.789,1031.291,179.623,1029.611,181.604z"/>
	<path fill="none" stroke="#1E1E1C" stroke-width="1.7399" stroke-miterlimit="10" d="M1023.479,180.507
		c0,0-1.188,8.504-4.567,8.148c-3.382-0.353-9.864-2.312-8.968-5.993c0.896-3.68-0.196-6.016,4.131-5.75
		C1018.4,177.177,1023.63,178.1,1023.479,180.507z"/>
	<g>
		<path fill="#FFFFFF" d="M1026.167,182.316c0.058,0.197-7.956,5.973-13.199,9.157c1.591,1.606,6.492,4.612,8.63,5.03"/>
		<g>
			<path fill="#1E1E1C" d="M1025.791,182.097c-0.285,0.524-1.211,0.96-1.678,1.308c-1.093,0.809-2.204,1.592-3.316,2.373
				c-2.633,1.847-5.307,3.641-8.049,5.32c-0.233,0.144-0.295,0.486-0.088,0.684c2.343,2.227,5.659,4.37,8.822,5.143
				c0.545,0.133,0.775-0.707,0.23-0.84c-2.981-0.727-6.229-2.82-8.438-4.918c-0.029,0.228-0.059,0.455-0.088,0.684
				c3.11-1.907,6.129-3.963,9.108-6.067c1.151-0.813,3.535-1.942,4.247-3.246C1026.812,182.043,1026.061,181.604,1025.791,182.097
				L1025.791,182.097z"/>
		</g>
	</g>
	<g>
		<g>
			<path fill="#1E1E1C" d="M1061.416,190.533c-1.497,0.412-4.098,1.156-4.91,2.637c-0.96,1.75,1.739,2.1,2.86,2.24
				c-0.14-0.184-0.279-0.367-0.419-0.551c-0.376,1.607-3.127,1.979-4.246,2.984c-1.294,1.164,0.781,2.379,1.63,2.826
				c0.496,0.262,0.936-0.488,0.439-0.75c-0.751-0.396-2.199-1.025-1.013-1.791c0.559-0.359,1.195-0.611,1.791-0.904
				c0.931-0.457,1.983-1.049,2.236-2.133c0.071-0.301-0.135-0.516-0.419-0.551c-0.135-0.018-2.699-0.18-2.026-1.035
				c0.307-0.391,0.795-0.646,1.215-0.893c0.957-0.562,2.025-0.947,3.092-1.24C1062.188,191.225,1061.957,190.385,1061.416,190.533
				L1061.416,190.533z"/>
		</g>
	</g>
	<g>
		<g>
			<path fill="#1E1E1C" d="M1024.438,181.408c0.805-1.17,3.23,0.496,3.697,1.301c0.563,0.969,2.067,0.094,1.502-0.879
				c-1.196-2.059-5.058-3.69-6.701-1.299C1022.299,181.458,1023.808,182.326,1024.438,181.408L1024.438,181.408z"/>
		</g>
	</g>
	<path fill="#110906" d="M1048.029,167.592c-1.106-0.217-14.621-10.535-26.064,2.604c-11.566,13.285-18.423,9.037-18.423,9.037
		s7.112-0.082,8.781-10.549c1.888-11.881,12.356-29.98,27.814-17.087C1055.596,164.492,1048.029,167.592,1048.029,167.592z"/>
	<path fill="none" stroke="#1E1E1C" stroke-width="1.7399" stroke-miterlimit="10" d="M1044.408,187.362
		c0.904,0.178,10.145-0.278,10.145-0.278"/>
	<g>
		<g>
			<path fill="#110906" d="M1041.431,180.555c-0.648-4.072-3.771-9.75-8.656-7.549c-0.502,0.227-0.066,0.963,0.432,0.738
				c4.309-1.941,6.86,3.647,7.4,7.037C1040.693,181.324,1041.517,181.094,1041.431,180.555L1041.431,180.555z"/>
		</g>
	</g>
	<g>
		<g>
			<path fill="#110906" d="M1025.405,170.781c-2.356,1.062-4.878,1.562-7.399,2.061c-0.541,0.107-0.312,0.931,0.227,0.824
				c2.602-0.516,5.175-1.052,7.604-2.146C1026.339,171.293,1025.903,170.557,1025.405,170.781L1025.405,170.781z"/>
		</g>
	</g>
	<g>
		<g>
			<path fill="#110906" d="M1020.075,199.987c2.622-0.426,5.277-0.324,7.822,0.452c0.946,0.288,1.844,0.701,2.678,1.23
				c2.48,1.576-0.741,1.883-1.483,1.895c-3.062,0.049-5.983-1.02-8.998-1.328c-0.548-0.057-0.543,0.799,0,0.854
				c2.244,0.23,4.453,0.865,6.693,1.161c1.164,0.153,4.584,0.739,5.261-0.812c0.72-1.648-1.189-2.736-2.464-3.271
				c-3.104-1.305-6.421-1.543-9.735-1.005C1019.306,199.252,1019.537,200.074,1020.075,199.987L1020.075,199.987z"/>
		</g>
	</g>
	<path fill="#0E8CCD" d="M1047.292,224.4c0,0,8.116,1.623,13.526,4.598c5.527,3.039,1.894,15.15,1.894,15.15
		s-6.471,10.404-17.952,3.424C1033.277,240.594,1047.292,224.4,1047.292,224.4z"/>
	<path fill="#FFFFFF" d="M1055.266,229.441c-2.976,11.361,2.127,17.1,5.539,15.178c4.179-2.352,41.183-17.818,43.567-22.113
		c2.386-4.295-31.723-40.203-31.723-40.203s-1.329-9.352-1.902-10.248c-4.702-7.375-4.751-13.147-7.19-15.268
		c-2.438-2.119-13.347-4.36-14.352-3.025c-1.002,1.334,1.493,1.578,4.998,2.574c3.508,0.994,5.805,2.213,5.805,2.213
		s2.285,4.477,0.865,5.341c-1.42,0.862,0.929-0.034,0.929-0.034l-7.307-5.869l-10.917-1.688c0,0-0.039,3.396,1.442,3.695
		c1.483,0.297,6.94,1.537,6.94,1.537s3.457,3.11,4.89,5.521c1.404,2.365-5.269-3.004-7.318-2.945
		c-2.112,0.059-6.155,1.621-6.2,1.986c-0.386,3.102,4.977,1.332,7.656,2.027l4.55,2.742c0,0,2.777,10.336,6.085,11.902l5.137,2.836
		c0,0,25.846,31.439,21.652,33.116C1069.477,226.294,1055.459,228.701,1055.266,229.441z"/>
	<path fill="#0E8CCD" d="M1055.062,226.861c0.099-0.324,7.83,0.33,7.83,0.33s0.907,17.801,5.521,16.978s-10.549,4.532-10.549,4.532
		S1051.107,239.965,1055.062,226.861z"/>
	<g>
		<g>
			<path fill="#110906" d="M1024.799,394.871c-2.944,0.936-6.061-0.927-8.289-2.707c-1.19-0.949-2.199-2.119-2.978-3.424
				c-0.118-0.199-0.807-1.576-0.528-1.65c0.871-0.232,1.771-0.07,2.608,0.19c4.785,1.485,6.703,7.821,10.723,10.49
				c0.503,0.334,0.95-0.376,0.605-0.785c-2.519-2.991-1.82-8.198,1.38-10.455c2.449-1.728,8.336,0.651,5.679,3.87
				c-3.107,3.762-8.396,4.863-12.299,7.5c-0.531,0.359-0.032,1.226,0.504,0.863c2.906-1.963,6.327-3.151,9.295-5.051
				c1.921-1.229,5.298-3.52,4.014-6.217c-1.577-3.312-6.639-3.07-8.862-0.854c-2.852,2.843-2.95,8.041-0.417,11.05
				c0.202-0.262,0.404-0.523,0.605-0.785c-4.735-3.144-7.572-12.524-14.619-10.644c-0.193,0.052-0.396,0.268-0.367,0.482
				c0.686,5.142,8.049,10.73,13.212,9.088C1025.677,395.641,1025.415,394.674,1024.799,394.871L1024.799,394.871z"/>
		</g>
	</g>
	<g>
		<g>
			<path fill="#110906" d="M1055.188,404.801c-3.506-1.414-7.132-2.515-10.526-4.197c-1.839-0.912-3.506-2.09-4.938-3.561
				c-1.386-1.424,2.497-1.689,3.419-1.453c4.921,1.262,6.468,7.812,11.117,9.514c0.303,0.11,0.643-0.176,0.633-0.482
				c-0.156-4.847,2.931-10.126,8.115-10.58c1.135-0.1,3.7,0.162,4.438,1.321c0.504,0.792-1.526,2.066-1.964,2.364
				c-4.113,2.805-9.177,4.51-13.87,6.082c-0.608,0.203-0.348,1.169,0.266,0.963c2.921-0.978,5.8-2.092,8.622-3.325
				c2.321-1.015,6.835-2.56,7.854-5.209c1.114-2.897-4.555-3.39-6.102-3.124c-5.328,0.916-8.523,6.369-8.358,11.508
				c0.211-0.16,0.422-0.321,0.633-0.482c-3.33-1.219-5.517-5.559-8.152-7.805c-2.614-2.227-5.501-2.497-8.224-0.342
				c-0.232,0.184-0.151,0.513,0,0.707c4.061,5.212,10.936,6.712,16.772,9.066C1055.521,406.007,1055.778,405.039,1055.188,404.801
				L1055.188,404.801z"/>
		</g>
	</g>
</g>
<g>
	<g>
		<path fill="#0DA2DD" d="M951.345,241.218c0.435,0.434,23.677,1.736,24.11,1.955c0.435,0.217,9.342,16.294,9.342,16.294
			l-29.326-2.826L951.345,241.218z"/>
		<g>
			<polygon fill="#0DA2DD" points="946.858,261.456 939.62,261.132 939.26,308.902 946.496,309.229 			"/>
			<polygon fill="#0DA2DD" points="978.713,257.632 970.229,260.717 969.814,315.68 978.299,312.596 			"/>
			<polygon fill="#0DA2DD" points="890.244,341.655 892.486,400.806 900.76,400.867 901.233,338.063 			"/>
			<polygon fill="#0DA2DD" points="943.386,346.927 957.445,348.402 955.228,417.046 944.781,414.997 			"/>
			<polygon fill="#0DA2DD" points="966.187,321.858 978.896,318.965 975.649,374 967.766,373.942 			"/>
			<polygon fill="#0DA2DD" points="924.174,318.914 935.003,318.997 931.346,368.708 923.799,368.651 			"/>
			<polygon fill="#E4F3FB" points="931.938,303.843 883.206,333.699 964.226,350.733 992.19,314.152 			"/>
			<polygon fill="#C3E5F6" points="989.457,314.151 989.379,324.663 961.294,360.587 961.492,350.732 			"/>
			<path fill="#C3E5F6" d="M925.578,250.784c0.889-0.303,6.145-1.266,6.145-1.266l60.457,4.145l-1.346,29.155l-1.771,2.616
				l-1.968-29.586L925.578,250.784z"/>
			<polygon fill="#E4F3FB" points="926.641,277.385 989.128,285.225 989.348,255.894 925.578,250.784 			"/>
		</g>
		<polygon fill="#C3E5F6" points="882.462,333.557 882.805,343.416 962.004,359.734 962.202,349.88 		"/>
		<path fill="#C3E5F6" d="M941.41,271.564c0,0,27.323,4.524,26.672,4.308c-0.652-0.217,4.114-31.615,4.114-31.615l-24.11-1.953
			L941.41,271.564z"/>
		<polygon fill="#C3E5F6" points="948.086,242.304 951.345,241.218 975.455,243.173 972.196,244.257 		"/>
		<polygon fill="#0DA2DD" points="953.338,254.335 956.817,249.364 961.289,250.36 959.302,267.589 955.492,266.098 
			957.148,252.679 954.166,256.655 		"/>
	</g>
	<g>
		<path fill="#0DA2DD" d="M931.315,331.416c0,0-1.53-3.866-12.37-5.982c-4.915-0.958-13.351,1.367-13.351,1.367l16.333-14.387
			c0,0,14.491,6.995,15.505,9.509C938.448,324.437,931.315,331.416,931.315,331.416z"/>
		<path fill="#0DA2DD" d="M931.443,331.544c0,0,4.868-0.482,11.148,1.666c9.863,3.374,12.576,9.653,12.576,9.653l25.482-22.34
			c0,0-10.379-17.684-30.67-12.232C949.328,308.467,931.443,331.544,931.443,331.544z"/>
		<path fill="#FFFFFF" d="M931.571,331.288c0.141,0.483,19.222-23.451,19.222-23.451s-3.165-15.851-25.884-8.809l-19.227,23.934
			C905.683,322.962,927.178,316.242,931.571,331.288z"/>
		<path fill="#FFFFFF" d="M931.727,331.261c-0.503,0.034,19.279-23.463,19.279-23.463s17.612-7.266,29.503,9.075l-24.462,22.231
			C956.047,339.104,947.554,330.22,931.727,331.261z"/>
		<path fill="#A42423" d="M951.416,314.021c-0.206,0.583,0.632,0.934,0.894,0.431c0.829,0.375,1.678,0.699,2.504,1.085
			c0.443,0.208,0.915-0.418,0.571-0.779c-1.666-1.751,1.455-1.607,2.534-1.312c2.727,0.744,1.863,3.539-0.217,4.639
			c-1.833,0.969-4.474,0.104-6.479,0.311c-1.879,0.191-3.113,1.448-3.978,3.021c-0.171,0.312,0.133,0.619,0.412,0.68
			c0.997,0.214,1.939,0.634,2.938,0.848c0.349,0.074,0.563-0.287,0.548-0.579c-0.178-3.204,12.421,0.968,13.507-3.995
			C966.15,311.511,953.89,307.056,951.416,314.021z"/>
		<path fill="#A42423" d="M949.492,324.331c-0.696-0.275-1.343-0.655-2.038-0.932c-0.159-0.062-0.298-0.039-0.411,0.026
			c-0.062,0.03-0.123,0.077-0.175,0.144c-0.557,0.716-1.205,1.346-1.653,2.141c-0.156,0.273-0.109,0.633,0.22,0.762
			c0.714,0.275,1.539,0.651,2.317,0.426c0.87-0.251,1.448-1.117,1.959-1.805C949.903,324.833,949.791,324.448,949.492,324.331z"/>
	</g>
</g>
<g>
	<g>
		<path fill="#FFFFFF" d="M735.675,108.518c0,0-7.631-5.388-9.203-16.836c-1.262-9.186,5.162-15.038,5.162-15.038l-1.796-3.592
			l-2.469,3.816l2.244-6.735c0,0-2.469-1.796-4.489,0s1.124,8.979,0.449,9.204c-0.674,0.225-6.734,10.551-2.245,20.875
			c4.489,10.325,7.857,14.591,7.857,14.591L735.675,108.518z"/>
		<path fill="#0E8CCD" d="M722.313,147.38c0,0-4.82-28.312,6.852-23.375c1.462,0.619-2.918-9.203,2.469-16.611
			c8.624-11.858,14.239-4.349,17.92,1.828c9.114,15.3-3.185,55.672-3.664,55.146c-0.517-0.567,6.25,2.084,5.861,3.975
			c-0.293,1.424-5.947,0.629-9.309-1.764c-0.234-0.166-0.886-25.551-1.094-25.612c-0.203-0.06-10.548-10.589-13.581-8.718
			c-3.594,2.216,0.05,16.896,0.05,16.896s-6.573,5.238-10.083,3.15C716.57,151.603,722.313,147.38,722.313,147.38z"/>
		<path fill="#0E8CCD" d="M737.323,81.751c0,0-6.466-1.119-7.377,5.737c-0.91,6.858-6.034,12.596,1.055,15.301
			s16.764,1.026,18.487-1.913c1.726-2.938-1.148-9.094-3.352-13.992C743.935,81.985,739.671,80.585,737.323,81.751z"/>
		<path fill="#FFFFFF" d="M746.587,99.468c-1.625,5.214-8.867,5.348-12.771,2.361c-2.623-2.009-2.938-4.836-2.533-7.881
			c0.011-0.076,0.025-0.152,0.035-0.229c-0.147-0.357,0.869-4.854,0.889-4.982c0.006-0.042,0.013-0.083,0.02-0.125
			c-0.525-0.08-0.969-0.506-0.732-1.126c1.052-2.755,3.137-4.665,6.167-5.126c2.657-0.402,5.484,0.511,7.188,2.555
			c0.736,0.882,1.222,1.93,1.543,3.034c0.13,0.249,0.254,0.503,0.364,0.767c0.095,0.229,0.064,0.453-0.04,0.647
			c0.15,0.862,0.228,1.733,0.269,2.573C747.102,94.354,747.317,97.12,746.587,99.468z"/>
		<g>
			<g>
				<path fill="#1E1E1C" d="M737.638,92.338c-1.137,1.79,4.771,2.008,3.81-0.041c-0.104-0.223-0.435-0.029-0.33,0.193
					c0.556,1.186-3.826,1.107-3.149,0.041C738.101,92.322,737.77,92.131,737.638,92.338L737.638,92.338z"/>
			</g>
		</g>
		
			<ellipse fill="none" stroke="#1E1E1C" stroke-width="0.386" stroke-miterlimit="10" cx="736.174" cy="91.019" rx="0.484" ry="0.901"/>
		
			<ellipse fill="none" stroke="#1E1E1C" stroke-width="0.386" stroke-miterlimit="10" cx="742.544" cy="90.831" rx="0.485" ry="0.903"/>
		<path fill="#0E8CCD" d="M736.223,82.45c0,0-0.671,2.473,0.91,3.639c1.58,1.166,7.604,0.629,9.386,6.064
			c1.869,5.691,1.15,3.359,1.678,1.912C748.724,92.621,747,77.411,736.223,82.45z"/>
		<path fill="#0E8CCD" d="M737.18,82.917c0,0,0.144,2.986-2.442,4.432c-2.587,1.445-4.455,7.418-4.359,7.604
			C730.474,95.14,728.176,80.024,737.18,82.917z"/>
		<path fill="#FFFFFF" d="M746.369,105.159c0,2.791-3.144,6.801-6.544,6.801s-8.032-4.305-6.574-6.697
			c0.52-0.854,3.174-3.408,6.574-3.408S746.369,103.743,746.369,105.159z"/>
		<path fill="#FFFFFF" d="M745.745,104.149c0,0,7.66-3.938,9.232-15.386c1.262-9.187-5.162-15.039-5.162-15.039l1.795-3.592
			l2.246,4.04l-2.021-6.958c0,0,2.47-1.796,4.49,0c2.02,1.796-1.124,8.979-0.45,9.203c0.675,0.226,6.735,10.551,2.245,20.876
			c-4.489,10.324-6.406,15.123-8.482,15.049S745.745,104.149,745.745,104.149z"/>
		<polygon fill="#0E8CCD" points="754.081,75.407 742.408,77.429 741.286,56.104 754.306,52.063 		"/>
	</g>
	<g>
		<g>
			<path fill="#1E1E1C" d="M734.574,93.627c2.591,1.354,5.197,1.965,8.033,0.906c0.557-0.207,1.029-0.547,1.497-0.902
				c0.509-0.387,0.545-0.742,0.434,0.153c-0.405,3.259-3.292,3.845-6.031,3.646c-0.246-0.019-0.245,0.365,0,0.383
				c3.359,0.243,7.021-1.201,6.472-5.24c-0.019-0.14-0.234-0.188-0.32-0.085c-2.584,3.11-6.696,2.479-9.891,0.809
				C734.549,93.183,734.355,93.513,734.574,93.627L734.574,93.627z"/>
		</g>
	</g>
	<g>
		<g>
			<path fill="#0E8CCD" d="M693.718,122.081c0,0-0.12-23.093-0.67-25.118c-0.552-2.026,7.021-2.405,8.121-0.888
				c0.684,0.944,3.129,23.842,2.331,24.783C701.707,122.978,693.718,122.081,693.718,122.081z"/>
			<path fill="#0E8CCD" d="M690.362,93.485c0.243,0.23,13.377,0.552,12.905,0.316c-0.891-0.445,3.147-7.85,3.147-13.613
				c0-5.762-2.992-9.963-9.744-9.963C689.918,70.226,683.752,87.271,690.362,93.485z"/>
			<g>
				<g>
					<path fill="#C5843D" d="M693.178,80.943c-0.011,0.012-0.019,0.021-0.026,0.028C693.159,80.964,693.168,80.955,693.178,80.943z"
						/>
					<path fill="#C5843D" d="M694.108,79.952c0.018-0.017,0.031-0.032,0.042-0.043C694.142,79.92,694.126,79.933,694.108,79.952z"/>
					<path fill="#FFFFFF" d="M690.069,83.315c0.302,0.012,0.629,0.108,0.914,0.268c0.093,0.021,0.188,0.05,0.283,0.088
						c0.199,0.08,0.377,0.209,0.555,0.32c0.037,0.024,0.079,0.046,0.117,0.069c-0.002-0.011-0.006-0.02-0.009-0.03
						c-0.147-0.777,0.082-1.546,0.07-2.329c-0.006-0.375,0-0.735,0.021-1.09c1.952-0.157,3.908-0.257,5.864-0.255
						c1.605,0,3.247-0.064,4.848,0.05c0.877,0.063,1.725,0.13,2.574,0.022c0.118,0,0.235,0.008,0.354,0.006
						c0.315,1.277,0.86,2.486,1.619,3.598c0.676,1.18,1.482,2.347,1.421,3.648c-0.094,1.928-7.869,3.398-9.403,3.904
						c-1.799,0.591,1.066,5.901-2.565,4.604c-0.592-0.211,0.452-4.77,0.062-4.89c-0.771-0.101-4.76-3.419-5.379-3.826
						c-0.812-0.447-1.76-0.947-2.258-1.693c-0.005-0.004-0.01-0.008-0.014-0.014c-0.107-0.138-0.176-0.28-0.212-0.422
						c-0.059-0.157-0.101-0.323-0.114-0.5C688.765,84.249,689.329,83.29,690.069,83.315z"/>
					<path fill="#C5843D" d="M694.15,79.909C694.171,79.887,694.17,79.89,694.15,79.909L694.15,79.909z"/>
				</g>
				<path fill="#C5843D" d="M693.151,80.972C693.13,80.994,693.13,80.994,693.151,80.972L693.151,80.972z"/>
			</g>
			
				<ellipse transform="matrix(-0.994 0.1091 -0.1091 -0.994 1413.4053 90.6624)" fill="none" stroke="#020303" stroke-width="0.3009" stroke-miterlimit="10" cx="704.222" cy="84.001" rx="0.609" ry="0.949"/>
			
				<ellipse fill="none" stroke="#020303" stroke-width="0.3009" stroke-miterlimit="10" cx="696.672" cy="84.499" rx="0.61" ry="0.949"/>
			<path fill="#FFFFFF" d="M695.914,100.932"/>
			<g>
				<path fill="#FFFFFF" d="M701.3,83.116c-0.146,1.045,0.032,1.285,0.323,2.271c0.437-0.059,0.849-0.078,1.138-0.312
					c1.034,1.905-0.662,1.694-1.461,1.637"/>
				<g>
					<path fill="#020304" d="M701.162,83.116c-0.103,0.852,0.084,1.499,0.328,2.308c0.017,0.053,0.072,0.109,0.133,0.102
						c0.353-0.045,0.689-0.08,1.02-0.217c0.288-0.119,0.327,0.925,0.171,1.1c-0.312,0.347-1.104,0.198-1.514,0.168
						c-0.177-0.014-0.176,0.261,0,0.273c0.53,0.04,1.133,0.119,1.609-0.17c0.601-0.362,0.2-1.223-0.03-1.673
						c-0.032-0.064-0.127-0.089-0.188-0.05c-0.285,0.186-0.519,0.223-0.853,0.266c-0.21,0.028-0.289-0.534-0.329-0.666
						c-0.146-0.482-0.133-0.947-0.072-1.44C701.458,82.941,701.184,82.943,701.162,83.116L701.162,83.116z"/>
				</g>
			</g>
			<path fill="#0E8CCD" d="M702.346,120.601c0.312,0.36,6.439,7.719-0.843,10.206c-7.283,2.485-7.283,2.485-7.283,2.485
				l-0.406,9.766c0,0,3.542,2.297,3.67-0.26c0.126-2.559-1.145-8.061-1.145-8.061s10.385-1.506,10.433-6.57
				c0.046-5.066-3.213-9.3-3.213-9.3"/>
			<path fill="#0E8CCD" d="M697.101,118.022c-0.15,0.451-3.314,9.49-9.189,4.519c-5.875-4.971-5.875-4.971-5.875-4.971l-8.587,4.669
				c0,0-0.15,4.219,2.109,3.014c2.259-1.205,6.327-5.122,6.327-5.122s6.627,8.136,10.997,5.573c4.369-2.561,6.327-7.531,6.327-7.531
				"/>
		</g>
		<path fill="#FFFFFF" d="M693.722,98.622c0,0-6.74,0.188-12.921-6.742c-6.18-6.93-4.12-8.24-4.12-8.24s2.246-1.498,3.184-2.996
			c0.937-1.498-0.937-2.247-0.937-2.247s-0.749,2.061-1.686,2.997c-0.936,0.936-1.497-6.742-1.497-6.742l-2.061,0.374l-0.146,1.057
			c0,0-0.763,0.952-1.017,1.397c-0.254,0.443,1.649,5.775,1.904,6.664c0.254,0.889,7,16.051,18.279,16.755
			C694.737,101.025,693.722,98.755,693.722,98.622z"/>
		<path fill="#FFFFFF" d="M699.45,96.663c0,0,6.74,0.188,12.921-6.742c6.18-6.93,4.12-8.239,4.12-8.239s-2.246-1.499-3.184-2.997
			c-0.937-1.498,0.937-2.247,0.937-2.247s0.749,2.062,1.685,2.997c0.937,0.936,1.498-6.742,1.498-6.742l2.061,0.375l0.146,1.057
			c0,0,0.763,0.952,1.017,1.396c0.254,0.443-1.649,5.775-1.904,6.664c-0.254,0.889-7,16.051-18.279,16.756
			C698.435,99.067,699.45,96.797,699.45,96.663z"/>
		<g>
			<g>
				<path fill="#1E1E1C" d="M697.812,87.29c0.67,1.894,2.502,2.495,4.091,1.224c0.192-0.154-0.08-0.424-0.271-0.271
					c-1.362,1.092-2.884,0.547-3.45-1.054C698.1,86.957,697.73,87.057,697.812,87.29L697.812,87.29z"/>
			</g>
		</g>
	</g>
</g>
<g>
	<path fill="#FFFFFF" d="M856.027,234.594c0,0,33.696-1.984,38.067-12.009c7.704-17.675-7.705-39.655-7.705-39.655l-7.024-0.906
		l1.135-4.758c0,0,4.714,0.227,9.515,0.227c0.228,0,3.627-8.612,1.814-9.743c-4.986-3.116-12.917-1.134-12.236-1.359
		c0.679-0.228-0.681-4.08-0.681-4.08s5.893-2.718,14.503-0.453c8.609,2.267,4.304,21.754,2.039,21.981
		c-2.265,0.226,19.034,34.441,2.267,48.718c-17.327,14.751-38.748,15.634-41.468,10.876S855.573,234.143,856.027,234.594z"/>
	<path fill="#110906" d="M861.154,311.396c-0.201,0.84,1.596,21.379,2.397,35.002c0.801,13.626-6.344,47.266-6.344,47.266
		s23.993,8.729,26.393,3.279c2.401-5.451-19.232-7.971-19.232-7.971s11.582-36.076,11.187-47.185
		c-0.403-11.108-2.798-40.656-2.798-40.656"/>
	<path fill="#110906" d="M840.923,323.387c-0.2,0.838,1.598,21.381,2.399,35c0.799,13.625-6.343,47.269-6.343,47.269
		s23.995,8.729,26.396,3.276c2.398-5.447-19.237-7.967-19.237-7.967s3.198-9.963,6.175-21.027
		c2.691-9.993,5.199-20.889,5.008-26.159c-0.397-11.112-1.199-38.772-1.199-38.772"/>
	<path fill="#0E8CCD" d="M872.882,294.412c-1.285-16.165-3.152-34.88-5.388-43.336c-4.344-16.419-16.103-24.528-16.103-24.528
		c-12.044-2.359-21.682,1.159-20.039,12.436c3.282,22.505,5.668,33.756,2.982,52.824c-0.264,1.871-0.385,3.822-0.401,5.809
		C847.178,299.56,861.203,299.83,872.882,294.412z"/>
	<path fill="#110906" d="M833.934,297.616c-0.13,15.093,6.028,32.246,6.028,32.246c4.718-5.857,13.641-1.335,13.641-5.804
		c0-12.407,7.836-11.318,8.416-5.224c0.53,5.576,12.77,3.772,12.77,3.772s-0.695-12.968-1.906-28.195
		C861.203,299.83,847.178,299.56,833.934,297.616z"/>
	<path fill="#FFFFFF" d="M878.061,158.506c-18.988-15.614-42.053,0.226-46.484,21.372c-1.588,7.58-1.642,18.985,2.204,25.5
		c3.014,5.105,2.492,12.344,1.758,17.957c-0.998,7.632-0.498,6.355,6.641,8.189c4.137,1.047,10.692,0.545,7.857-4.361
		c-2.018-3.491-0.548-13.268,5.268-9.084c9.521,3.07,16.452-2.344,21.689-10.28C885.15,195.438,891.682,169.704,878.061,158.506
		C853.284,138.133,893.772,171.424,878.061,158.506z"/>
	<path fill="none" stroke="#020303" stroke-width="1.2075" stroke-miterlimit="10" d="M877.002,188.159
		c-0.251,1.54-1.206,2.667-2.128,2.515c-0.931-0.15-1.474-1.521-1.221-3.062c0.25-1.541,1.203-2.67,2.131-2.519
		C876.707,185.243,877.254,186.615,877.002,188.159z"/>
	
		<ellipse transform="matrix(0.987 0.1609 -0.1609 0.987 41.2294 -136.4263)" fill="none" stroke="#020303" stroke-width="1.2075" stroke-miterlimit="10" cx="862.726" cy="186.281" rx="1.699" ry="2.829"/>
	<g>
		<g>
			<path fill="#020303" d="M870.124,187.219c0.087-0.029,0.174-0.059,0.26-0.088c-0.247-0.248-0.495-0.495-0.742-0.742
				c-0.961,2.826-2.212,6.798-1.296,9.785c0.124,0.403,0.527,0.519,0.887,0.36c0.659-0.29,4.913-0.74,3.02,1.608
				c-1.096,1.357-3.547,1.151-4.863,0.336c-0.664-0.411-1.27,0.634-0.609,1.043c2.019,1.25,7.115,1.059,7.213-2.254
				c0.078-2.646-3.678-2.521-5.369-1.776c0.296,0.12,0.591,0.241,0.887,0.36c-0.833-2.717,0.41-6.536,1.296-9.143
				c0.145-0.425-0.317-0.887-0.742-0.742c-0.087,0.029-0.174,0.059-0.26,0.088C869.07,186.303,869.385,187.469,870.124,187.219
				L870.124,187.219z"/>
		</g>
	</g>
	<path fill="#110906" d="M866.253,147.596c-25.822,0.901-33.63-1.502-38.734,7.506s-1.909,47.083,0.413,48.329
		c3.389,1.818,7.473,0.236,10.199-2.129c0.434-0.756,0.834-1.518,1.195-2.266c2.448-5.074-1.889-8.104-3.613-12.646
		c-1.517-3.995-2.13-8.499,1.865-11.163c3.904-2.604,4.053,3.413,7.08,7.484c0.631,1.641,4.038,0.253,4.038,0.253l0.253-8.204
		l9.466,1.262l1.515-8.835c0,0,4.506,9.26,4.291,9.214c-2.619-0.56,25.158,4.736,25.158,4.736S888.975,146.803,866.253,147.596z"/>
	<path fill="#FFFFFF" d="M836.73,250.592c0,0,12.914-1.633,12.423,0.265c-0.495,1.897-4.278,74.153-6.546,82.059
		c-2.269,7.903-15.503,5.645-15.503,5.645l-6.429-11.665c0,0,3.402-1.883,4.917-0.377c1.512,1.503,2.269,5.643,2.269,5.643
		c-0.378-0.047-1.433-1.363-0.378-0.047c1.058,1.313-0.262-8.152-0.262-8.152l4.897-4.039l-0.936,12.455c0,0,3.434-3.42,5.547-5.523
		C838.847,324.75,840.165,272.422,836.73,250.592z"/>
	<g>
		<g>
			<path fill="#020303" d="M864.192,204.387c0.809-1.013,2.813-0.922,3.979-0.811c0.599,0.057,0.594-0.877,0-0.934
				c-1.407-0.133-3.663-0.137-4.639,1.084C863.161,204.191,863.816,204.856,864.192,204.387L864.192,204.387z"/>
		</g>
	</g>
	<g>
		<g>
			<path fill="#020303" d="M860.297,184.682c1.812-0.573,3.713,0.145,5.537-0.32c0.583-0.148,0.335-1.047-0.248-0.898
				c-1.816,0.463-3.713-0.258-5.537,0.32C859.478,183.963,859.722,184.864,860.297,184.682L860.297,184.682z"/>
		</g>
	</g>
	<g>
		<g>
			<path fill="#020303" d="M860.715,189.027c-0.017-0.023-0.033-0.048-0.05-0.072c-0.093,0.229-0.186,0.457-0.278,0.686
				c1.247-0.312,2.867-0.208,4.128-0.023c0.588,0.087,0.842-0.812,0.248-0.898c-1.439-0.212-3.2-0.334-4.624,0.022
				c-0.276,0.069-0.451,0.438-0.279,0.685c0.017,0.024,0.033,0.049,0.051,0.072C860.252,189.986,861.062,189.521,860.715,189.027
				L860.715,189.027z"/>
		</g>
	</g>
	<g>
		<g>
			<path fill="#020303" d="M872.882,183.962c0.614-1.748,3.765-4.263,5.399-2.407c0.398,0.451,1.056-0.211,0.66-0.66
				c-2.166-2.457-6.123,0.441-6.96,2.819C871.782,184.283,872.684,184.525,872.882,183.962L872.882,183.962z"/>
		</g>
	</g>
	<path fill="#110906" d="M836.989,154.39c0,0-6.048-23.335-25.117-13.784c-19.068,9.551-14.881,10.37-14.881,10.37l7.634,8.513
		c0,0,3.686-2.66,6.699-5.299l-4.627,7.253c0,0,7.744,3.001,9.086,2.963c1.343-0.039,0.116-9.946,8.764-12.882
		s10.667,6.544,10.667,6.544L836.989,154.39z"/>
</g>
<g>
</g>
<g>
</g>
<g>
</g>
<g>
</g>
<g>
</g>
<g>
</g>
</svg>
