<?xml version="1.0" encoding="utf-8"?>
<!-- Generator: Adobe Illustrator 16.0.4, SVG Export Plug-In . SVG Version: 6.00 Build 0)  -->
<!DOCTYPE svg PUBLIC "-//W3C//DTD SVG 1.1//EN" "http://www.w3.org/Graphics/SVG/1.1/DTD/svg11.dtd">
<svg version="1.1" id="Layer_1" xmlns="http://www.w3.org/2000/svg" xmlns:xlink="http://www.w3.org/1999/xlink" x="0px" y="0px"
	 width="1112.031px" height="522.383px" viewBox="0 0 1112.031 522.383" enable-background="new 0 0 1112.031 522.383"
	 xml:space="preserve">
<g>
	<polygon fill="#0DA2DD" points="786.556,115.659 783.873,115.569 783.944,137.135 786.63,137.227 	"/>
	<polygon fill="#0DA2DD" points="798.674,118.467 795.219,119.139 795.302,139.514 798.432,138.334 	"/>
	<polygon fill="#0DA2DD" points="766.979,141.378 768.065,163.294 771.134,163.281 771.036,139.998 	"/>
	<polygon fill="#0DA2DD" points="786.702,143.102 791.923,143.589 791.396,169.047 787.515,168.331 	"/>
	<polygon fill="#0DA2DD" points="796.802,142.458 801.186,140.683 800.534,161.747 797.612,161.76 	"/>
	<polygon fill="#0DA2DD" points="778.364,141.498 782.38,141.482 781.239,159.928 778.439,159.939 	"/>
	<polygon fill="#E4F3FB" points="780.912,135.242 763.323,138.469 793.431,144.436 803.456,137.033 	"/>
	<polygon fill="#C3E5F6" points="803.456,136.952 802.89,140.52 793.401,148.088 793.431,144.436 	"/>
	<path fill="#C3E5F6" d="M778.623,111.794c0.327-0.114,23.536,1.563,23.536,1.563l0.893,0.973l-0.102,9.059l-0.645,0.978
		l-0.856-10.959L778.623,111.794z"/>
	<polygon fill="#E4F3FB" points="779.131,121.652 802.328,124.288 802.284,113.412 778.623,111.794 	"/>
	<polygon fill="#C3E5F6" points="763.323,138.469 763.492,142.123 793.401,148.088 793.431,144.436 	"/>
</g>
<g>
	<path fill="#0E8CCD" d="M815.917,410.972c-0.046,0.051-0.129-0.027-0.244-0.222C815.981,410.717,816.092,410.782,815.917,410.972z"
		/>
</g>
</svg>
