<?xml version="1.0" encoding="utf-8"?>
<!-- Generator: Adobe Illustrator 16.0.4, SVG Export Plug-In . SVG Version: 6.00 Build 0)  -->
<!DOCTYPE svg PUBLIC "-//W3C//DTD SVG 1.1//EN" "http://www.w3.org/Graphics/SVG/1.1/DTD/svg11.dtd">
<svg version="1.1" id="Layer_1" xmlns="http://www.w3.org/2000/svg" xmlns:xlink="http://www.w3.org/1999/xlink" x="0px" y="0px"
	 width="1112.031px" height="522.384px" viewBox="0 0 1112.031 522.384" enable-background="new 0 0 1112.031 522.384"
	 xml:space="preserve">
<g>
	<path fill="#0E8CCD" d="M815.917,410.972c-0.046,0.051-0.129-0.027-0.245-0.222C815.981,410.717,816.091,410.782,815.917,410.972z"
		/>
</g>
<g>
	<path fill="#FFFFFF" d="M856.027,234.594c0,0,33.696-1.984,38.067-12.009c7.704-17.675-7.705-39.655-7.705-39.655l-7.024-0.906
		l1.135-4.758c0,0,4.714,0.227,9.515,0.227c0.228,0,3.627-8.612,1.814-9.743c-4.986-3.116-12.917-1.134-12.236-1.359
		c0.679-0.228-0.681-4.08-0.681-4.08s5.893-2.718,14.503-0.453c8.609,2.267,4.304,21.754,2.039,21.981
		c-2.265,0.226,19.034,34.441,2.267,48.718c-17.327,14.751-38.748,15.634-41.468,10.876S855.573,234.143,856.027,234.594z"/>
	<path fill="#110906" d="M861.154,311.396c-0.201,0.84,1.596,21.379,2.397,35.002c0.801,13.626-6.344,47.266-6.344,47.266
		s23.993,8.729,26.393,3.279c2.401-5.451-19.232-7.971-19.232-7.971s11.582-36.076,11.187-47.185
		c-0.403-11.108-2.798-40.656-2.798-40.656"/>
	<path fill="#110906" d="M840.923,323.387c-0.2,0.838,1.598,21.381,2.399,35c0.799,13.625-6.343,47.269-6.343,47.269
		s23.995,8.729,26.396,3.276c2.398-5.447-19.237-7.967-19.237-7.967s3.198-9.963,6.175-21.027
		c2.691-9.993,5.199-20.889,5.008-26.159c-0.397-11.112-1.199-38.772-1.199-38.772"/>
	<path fill="#0E8CCD" d="M872.882,294.412c-1.285-16.165-3.152-34.88-5.388-43.336c-4.344-16.419-16.103-24.528-16.103-24.528
		c-12.044-2.359-21.682,1.159-20.039,12.436c3.282,22.505,5.668,33.756,2.982,52.824c-0.264,1.871-0.385,3.822-0.401,5.809
		C847.178,299.56,861.203,299.83,872.882,294.412z"/>
	<path fill="#110906" d="M833.934,297.616c-0.13,15.093,6.028,32.246,6.028,32.246c4.718-5.857,13.641-1.335,13.641-5.804
		c0-12.407,7.836-11.318,8.416-5.224c0.53,5.576,12.77,3.772,12.77,3.772s-0.695-12.968-1.906-28.195
		C861.203,299.83,847.178,299.56,833.934,297.616z"/>
	<path fill="#FFFFFF" d="M878.061,158.506c-18.988-15.614-42.053,0.226-46.484,21.372c-1.588,7.58-1.642,18.985,2.204,25.5
		c3.014,5.105,2.492,12.344,1.758,17.957c-0.998,7.632-0.498,6.355,6.641,8.189c4.137,1.047,10.692,0.545,7.857-4.361
		c-2.018-3.491-0.548-13.268,5.268-9.084c9.521,3.07,16.452-2.344,21.689-10.28C885.15,195.438,891.682,169.704,878.061,158.506
		C853.284,138.133,893.772,171.424,878.061,158.506z"/>
	<path fill="none" stroke="#020303" stroke-width="1.2075" stroke-miterlimit="10" d="M877.002,188.159
		c-0.251,1.54-1.206,2.667-2.128,2.515c-0.931-0.15-1.474-1.521-1.221-3.062c0.25-1.541,1.203-2.67,2.131-2.519
		C876.707,185.243,877.254,186.615,877.002,188.159z"/>
	
		<ellipse transform="matrix(0.987 0.1609 -0.1609 0.987 41.2294 -136.4263)" fill="none" stroke="#020303" stroke-width="1.2075" stroke-miterlimit="10" cx="862.726" cy="186.281" rx="1.699" ry="2.829"/>
	<g>
		<g>
			<path fill="#020303" d="M870.124,187.219c0.087-0.029,0.174-0.059,0.26-0.088c-0.247-0.248-0.495-0.495-0.742-0.743
				c-0.961,2.826-2.212,6.798-1.296,9.785c0.124,0.404,0.527,0.519,0.887,0.361c0.659-0.291,4.913-0.74,3.02,1.608
				c-1.096,1.358-3.547,1.152-4.863,0.336c-0.664-0.411-1.27,0.634-0.609,1.043c2.019,1.25,7.114,1.059,7.213-2.254
				c0.078-2.646-3.677-2.521-5.369-1.776c0.296,0.121,0.591,0.241,0.887,0.361c-0.833-2.718,0.41-6.537,1.296-9.143
				c0.145-0.425-0.317-0.887-0.742-0.743c-0.087,0.029-0.174,0.059-0.26,0.088C869.07,186.303,869.385,187.469,870.124,187.219
				L870.124,187.219z"/>
		</g>
	</g>
	<path fill="#110906" d="M866.253,147.596c-25.822,0.901-33.63-1.502-38.734,7.506s-1.909,47.083,0.413,48.329
		c3.389,1.818,7.473,0.236,10.199-2.129c0.434-0.756,0.834-1.518,1.195-2.266c2.448-5.074-1.889-8.104-3.613-12.646
		c-1.517-3.995-2.13-8.499,1.865-11.163c3.904-2.604,4.053,3.413,7.08,7.484c0.631,1.641,4.038,0.253,4.038,0.253l0.253-8.204
		l9.466,1.262l1.515-8.835c0,0,4.506,9.26,4.291,9.214c-2.619-0.56,25.158,4.736,25.158,4.736S888.975,146.803,866.253,147.596z"/>
	<path fill="#FFFFFF" d="M836.73,250.592c0,0,12.914-1.633,12.423,0.265c-0.495,1.897-4.278,74.153-6.546,82.059
		c-2.269,7.903-15.503,5.645-15.503,5.645l-6.429-11.665c0,0,3.402-1.883,4.917-0.377c1.512,1.503,2.269,5.643,2.269,5.643
		c-0.378-0.047-1.433-1.363-0.378-0.047c1.058,1.313-0.262-8.152-0.262-8.152l4.897-4.039l-0.936,12.455c0,0,3.434-3.42,5.547-5.523
		C838.847,324.75,840.165,272.422,836.73,250.592z"/>
	<g>
		<g>
			<path fill="#020303" d="M864.192,204.386c0.809-1.012,2.813-0.921,3.979-0.811c0.599,0.057,0.594-0.876,0-0.933
				c-1.406-0.134-3.663-0.137-4.639,1.084C863.161,204.192,863.816,204.856,864.192,204.386L864.192,204.386z"/>
		</g>
	</g>
	<g>
		<g>
			<path fill="#020303" d="M860.297,184.682c1.812-0.574,3.713,0.145,5.537-0.32c0.583-0.148,0.335-1.048-0.248-0.899
				c-1.816,0.463-3.712-0.257-5.537,0.32C859.478,183.963,859.722,184.864,860.297,184.682L860.297,184.682z"/>
		</g>
	</g>
	<g>
		<g>
			<path fill="#020303" d="M860.715,189.027c-0.017-0.024-0.033-0.048-0.05-0.072c-0.093,0.229-0.186,0.457-0.279,0.685
				c1.248-0.312,2.868-0.208,4.129-0.023c0.588,0.086,0.842-0.812,0.248-0.899c-1.439-0.211-3.2-0.333-4.624,0.023
				c-0.276,0.069-0.451,0.439-0.279,0.685c0.017,0.024,0.033,0.048,0.051,0.072C860.252,189.987,861.062,189.521,860.715,189.027
				L860.715,189.027z"/>
		</g>
	</g>
	<g>
		<g>
			<path fill="#020303" d="M872.882,183.962c0.614-1.748,3.765-4.263,5.399-2.408c0.398,0.452,1.056-0.21,0.66-0.659
				c-2.166-2.458-6.123,0.44-6.96,2.819C871.782,184.283,872.684,184.525,872.882,183.962L872.882,183.962z"/>
		</g>
	</g>
	<path fill="#110906" d="M836.989,154.39c0,0-6.048-23.335-25.117-13.784c-19.068,9.551-14.881,10.37-14.881,10.37l7.634,8.513
		c0,0,3.686-2.66,6.699-5.299l-4.627,7.253c0,0,7.744,3.001,9.086,2.963c1.343-0.039,0.116-9.946,8.764-12.882
		s10.667,6.544,10.667,6.544L836.989,154.39z"/>
</g>
<g>
</g>
<g>
</g>
<g>
</g>
<g>
</g>
<g>
</g>
<g>
</g>
</svg>
