<?xml version="1.0" encoding="utf-8"?>
<!-- Generator: Adobe Illustrator 16.0.4, SVG Export Plug-In . SVG Version: 6.00 Build 0)  -->
<!DOCTYPE svg PUBLIC "-//W3C//DTD SVG 1.1//EN" "http://www.w3.org/Graphics/SVG/1.1/DTD/svg11.dtd">
<svg version="1.1" id="Layer_1" xmlns="http://www.w3.org/2000/svg" xmlns:xlink="http://www.w3.org/1999/xlink" x="0px" y="0px"
	 width="1112.031px" height="522.383px" viewBox="0 0 1112.031 522.383" enable-background="new 0 0 1112.031 522.383"
	 xml:space="preserve">
<g>
	<path fill="#0E8CCD" d="M815.917,410.972c-0.046,0.051-0.129-0.027-0.244-0.222C815.981,410.717,816.092,410.782,815.917,410.972z"
		/>
</g>
<g>
	<g>
		<path fill="#FFFFFF" d="M735.676,108.518c0,0-7.631-5.388-9.203-16.836c-1.263-9.186,5.162-15.038,5.162-15.038l-1.796-3.592
			l-2.47,3.816l2.244-6.735c0,0-2.469-1.796-4.489,0c-2.02,1.796,1.124,8.979,0.449,9.204c-0.674,0.225-6.733,10.551-2.245,20.875
			c4.489,10.325,7.857,14.591,7.857,14.591L735.676,108.518z"/>
		<path fill="#0E8CCD" d="M722.313,147.38c0,0-4.82-28.312,6.852-23.375c1.463,0.619-2.918-9.203,2.47-16.611
			c8.624-11.858,14.238-4.349,17.92,1.828c9.114,15.3-3.186,55.672-3.664,55.146c-0.518-0.567,6.25,2.084,5.86,3.975
			c-0.293,1.424-5.946,0.629-9.309-1.764c-0.234-0.166-0.886-25.551-1.094-25.612c-0.203-0.06-10.548-10.589-13.581-8.718
			c-3.594,2.216,0.05,16.896,0.05,16.896s-6.573,5.238-10.083,3.15C716.57,151.603,722.313,147.38,722.313,147.38z"/>
		<path fill="#0E8CCD" d="M737.323,81.751c0,0-6.466-1.119-7.377,5.737c-0.91,6.858-6.034,12.596,1.055,15.301
			c7.09,2.705,16.765,1.026,18.487-1.913c1.727-2.938-1.147-9.094-3.352-13.992C743.935,81.985,739.672,80.585,737.323,81.751z"/>
		<path fill="#FFFFFF" d="M746.588,99.468c-1.625,5.214-8.867,5.348-12.771,2.361c-2.623-2.009-2.938-4.836-2.533-7.881
			c0.011-0.076,0.025-0.152,0.035-0.229c-0.146-0.357,0.869-4.854,0.889-4.982c0.007-0.042,0.014-0.083,0.021-0.125
			c-0.525-0.08-0.969-0.506-0.732-1.126c1.053-2.755,3.138-4.665,6.167-5.126c2.657-0.402,5.484,0.511,7.188,2.555
			c0.736,0.882,1.222,1.93,1.543,3.034c0.13,0.249,0.254,0.503,0.364,0.767c0.095,0.229,0.063,0.453-0.04,0.647
			c0.149,0.862,0.228,1.733,0.269,2.573C747.102,94.354,747.317,97.12,746.588,99.468z"/>
		<g>
			<g>
				<path fill="#1E1E1C" d="M737.638,92.338c-1.138,1.79,4.771,2.008,3.81-0.041c-0.104-0.223-0.435-0.029-0.33,0.193
					c0.557,1.185-3.826,1.107-3.148,0.041C738.101,92.322,737.77,92.13,737.638,92.338L737.638,92.338z"/>
			</g>
		</g>
		
			<ellipse fill="none" stroke="#1E1E1C" stroke-width="0.386" stroke-miterlimit="10" cx="736.175" cy="91.019" rx="0.483" ry="0.901"/>
		
			<ellipse fill="none" stroke="#1E1E1C" stroke-width="0.386" stroke-miterlimit="10" cx="742.545" cy="90.831" rx="0.484" ry="0.903"/>
		<path fill="#0E8CCD" d="M736.223,82.45c0,0-0.671,2.473,0.91,3.639c1.58,1.166,7.604,0.629,9.386,6.064
			c1.869,5.691,1.15,3.359,1.678,1.912C748.724,92.621,747.001,77.411,736.223,82.45z"/>
		<path fill="#0E8CCD" d="M737.18,82.917c0,0,0.144,2.986-2.442,4.432c-2.587,1.445-4.455,7.418-4.358,7.604
			C730.474,95.14,728.177,80.024,737.18,82.917z"/>
		<path fill="#FFFFFF" d="M746.369,105.159c0,2.791-3.144,6.801-6.544,6.801c-3.399,0-8.031-4.305-6.573-6.697
			c0.52-0.854,3.174-3.408,6.573-3.408C743.225,101.855,746.369,103.743,746.369,105.159z"/>
		<path fill="#FFFFFF" d="M745.745,104.149c0,0,7.66-3.938,9.232-15.386c1.262-9.187-5.162-15.039-5.162-15.039l1.795-3.592
			l2.246,4.04l-2.021-6.958c0,0,2.471-1.796,4.49,0c2.021,1.796-1.124,8.979-0.45,9.203c0.676,0.226,6.735,10.551,2.245,20.876
			c-4.488,10.324-6.405,15.123-8.481,15.049C747.562,112.268,745.745,104.149,745.745,104.149z"/>
		<polygon fill="#0E8CCD" points="754.081,75.407 742.408,77.429 741.286,56.104 754.306,52.063 		"/>
	</g>
	<g>
		<g>
			<path fill="#1E1E1C" d="M734.574,93.627c2.591,1.354,5.197,1.965,8.033,0.907c0.557-0.207,1.029-0.548,1.497-0.903
				c0.509-0.386,0.545-0.742,0.434,0.153c-0.404,3.259-3.292,3.845-6.03,3.646c-0.246-0.018-0.245,0.365,0,0.383
				c3.358,0.243,7.021-1.201,6.472-5.24c-0.019-0.139-0.234-0.188-0.32-0.084c-2.584,3.11-6.695,2.478-9.891,0.808
				C734.55,93.183,734.355,93.513,734.574,93.627L734.574,93.627z"/>
		</g>
	</g>
</g>
</svg>
