<?xml version="1.0" encoding="utf-8"?>
<!-- Generator: Adobe Illustrator 16.0.4, SVG Export Plug-In . SVG Version: 6.00 Build 0)  -->
<!DOCTYPE svg PUBLIC "-//W3C//DTD SVG 1.1//EN" "http://www.w3.org/Graphics/SVG/1.1/DTD/svg11.dtd">
<svg version="1.1" id="Layer_1" xmlns="http://www.w3.org/2000/svg" xmlns:xlink="http://www.w3.org/1999/xlink" x="0px" y="0px"
	 width="1112.031px" height="522.384px" viewBox="0 0 1112.031 522.384" enable-background="new 0 0 1112.031 522.384"
	 xml:space="preserve">
<g>
	<path fill="#0DA2DD" d="M721.207,175.158c-0.374,0.438-20.923,2.398-21.3,2.624c-0.377,0.227-7.749,16.293-7.749,16.293
		l25.891-3.631L721.207,175.158z"/>
	<polygon fill="#0DA2DD" points="722.226,193.816 727.631,193.437 728.79,233.097 723.383,233.477 	"/>
	<polygon fill="#0DA2DD" points="698.318,191.117 704.722,193.554 706.055,239.179 699.654,236.745 	"/>
	<polygon fill="#0DA2DD" points="763.611,250.099 763.037,299.239 756.851,299.415 755.326,247.277 	"/>
	<polygon fill="#0DA2DD" points="723.952,255.268 713.458,256.704 716.396,313.668 724.174,311.808 	"/>
	<polygon fill="#0DA2DD" points="702.8,242.278 693.239,240.067 696.692,285.714 702.59,285.546 	"/>
	<polygon fill="#0DA2DD" points="740.275,239.62 732.175,239.85 735.837,281.071 741.484,280.912 	"/>
	<polygon fill="#E4F3FB" points="734.771,228.655 770.774,243.342 710.478,258.7 689.713,237.366 	"/>
	<polygon fill="#C3E5F6" points="689.639,237.335 689.895,245.14 710.804,266.877 710.478,258.7 	"/>
	<path fill="#C3E5F6" d="M737.943,184.634c-0.668-0.233-4.616-0.957-4.616-0.957l-45.158,4.344l1.552,24.189l1.371,2.146
		l0.923-24.595L737.943,184.634z"/>
	<polygon fill="#E4F3FB" points="737.509,206.796 690.903,214.239 690.192,189.886 737.807,184.69 	"/>
	<polygon fill="#C3E5F6" points="770.774,243.342 770.703,251.535 710.804,266.877 710.478,258.7 	"/>
	<path fill="#C3E5F6" d="M731.011,205.339c0,0-24.062,5.244-23.492,5.014c0.57-0.231-4.668-30.967-4.668-30.967l21.298-2.623
		L731.011,205.339z"/>
	<polygon fill="#C3E5F6" points="724.129,176.132 721.207,175.158 699.907,177.782 702.829,178.757 	"/>
	<path fill="#0DA2DD" d="M710.346,191.749l2.664-0.653c0,0-0.976-2.899,1.852-2.891c2.827,0.013-2.098,8.04-2.098,8.04
		s-0.797,3.168-0.653,3.266c0.142,0.102,9.442-1.149,9.442-1.149l0.008-2.948l-6.263,0.98c0,0,7.278-10.098,0.73-10.602
		C709.479,185.288,710.247,191.601,710.346,191.749z"/>
	<g>
		<path fill="#0DA2DD" d="M735.171,246.823c0,0,0.805-3.481,8.982-6.404c3.709-1.324,10.461-0.188,10.461-0.188l-14.035-10.691
			c0,0-10.527,7.491-11.063,9.75C728.976,241.556,735.171,246.823,735.171,246.823z"/>
		<path fill="#0DA2DD" d="M735.083,246.944c0,0-3.81,0.08-8.461,2.57c-7.297,3.904-8.784,9.575-8.784,9.575l-21.883-16.582
			c0,0,6.306-16.252,22.529-13.644C719.007,228.951,735.083,246.944,735.083,246.944z"/>
		<path fill="#FFFFFF" d="M734.96,246.738c-0.063,0.426-17.148-18.179-17.148-18.179s0.903-13.937,19.16-10.208l17.198,18.589
			C754.17,236.94,736.894,233.364,734.96,246.738z"/>
		<path fill="#FFFFFF" d="M734.837,246.728c0.394-0.023-17.194-18.182-17.194-18.182s-14.329-4.439-21.933,10.81l21.083,16.594
			C716.793,255.949,722.495,247.453,734.837,246.728z"/>
		<path fill="#A42423" d="M736.085,229.827c-0.835-0.974-0.29-2.585-0.271-3.767c0.02-1.399-0.779-2.267-1.907-2.699
			c-1.632-0.63-3.746-0.268-4.984,1.066c-0.553,0.598-0.619,1.24-0.434,1.839c-0.838-0.206-1.452,1.126-0.587,1.504
			c0.857,0.377,1.671,0.539,2.591,0.551c0.772,0.01,0.971-1.184,0.33-1.58c-0.97-0.602-0.992-1.258,0.006-1.719
			c0.748-0.346,1.638-0.264,2.42-0.115c0.933,0.18,1.084,0.751,1.033,1.678c-0.091,1.672-0.378,3.125,0.772,4.464
			C735.731,231.839,736.761,230.61,736.085,229.827z"/>
		<path fill="#A42423" d="M738.121,231.943c-0.975,0.03-0.919,1.712,0.056,1.681C739.155,233.593,739.1,231.91,738.121,231.943z"/>
	</g>
</g>
<g>
	<path fill="#0E8CCD" d="M815.917,410.972c-0.046,0.051-0.129-0.027-0.245-0.222C815.981,410.717,816.091,410.782,815.917,410.972z"
		/>
</g>
<g>
</g>
<g>
</g>
<g>
</g>
<g>
</g>
<g>
</g>
<g>
</g>
</svg>
