<?xml version="1.0" encoding="utf-8"?>
<!-- Generator: Adobe Illustrator 16.0.4, SVG Export Plug-In . SVG Version: 6.00 Build 0)  -->
<!DOCTYPE svg PUBLIC "-//W3C//DTD SVG 1.1//EN" "http://www.w3.org/Graphics/SVG/1.1/DTD/svg11.dtd">
<svg version="1.1" id="Layer_1" xmlns="http://www.w3.org/2000/svg" xmlns:xlink="http://www.w3.org/1999/xlink" x="0px" y="0px"
	 width="1112.031px" height="522.384px" viewBox="0 0 1112.031 522.384" enable-background="new 0 0 1112.031 522.384"
	 xml:space="preserve">
<pattern  x="-46.767" y="-127.525" width="86.081" height="74.172" patternUnits="userSpaceOnUse" id="Unnamed_Pattern_9" viewBox="0 -74.172 86.081 74.172" overflow="visible">
	<g>
		<polygon fill="none" points="0,-74.172 86.082,-74.172 86.082,0 0,0 		"/>
		<path fill="#2EBDEF" d="M27.879-4.633c0-0.561-0.455-1.018-1.017-1.018s-1.019,0.457-1.019,1.018c0,0.562,0.457,1.021,1.019,1.021
			S27.879-4.07,27.879-4.633"/>
		<path fill="#2EBDEF" d="M27.879-9.266c0-0.561-0.455-1.018-1.017-1.018s-1.019,0.457-1.019,1.018c0,0.564,0.457,1.021,1.019,1.021
			S27.879-8.701,27.879-9.266"/>
		<path fill="#2EBDEF" d="M27.879-32.424c0-0.562-0.455-1.018-1.017-1.018s-1.019,0.455-1.019,1.018
			c0,0.562,0.457,1.018,1.019,1.018S27.879-31.862,27.879-32.424"/>
		<path fill="#2EBDEF" d="M27.879-13.895c0-0.562-0.455-1.021-1.017-1.021s-1.019,0.458-1.019,1.021
			c0,0.561,0.457,1.018,1.019,1.018S27.879-13.334,27.879-13.895"/>
		<path fill="#2EBDEF" d="M27.879-27.791c0-0.562-0.455-1.02-1.017-1.02s-1.019,0.458-1.019,1.02c0,0.562,0.457,1.018,1.019,1.018
			S27.879-27.229,27.879-27.791"/>
		<path fill="#2EBDEF" d="M27.879-18.527c0-0.562-0.455-1.021-1.017-1.021s-1.019,0.458-1.019,1.021
			c0,0.562,0.457,1.018,1.019,1.018S27.879-17.966,27.879-18.527"/>
		<path fill="#2EBDEF" d="M27.879-23.158c0-0.564-0.455-1.02-1.017-1.02s-1.019,0.455-1.019,1.02c0,0.561,0.457,1.016,1.019,1.016
			S27.879-22.598,27.879-23.158"/>
		<path fill="#2EBDEF" d="M33.253-64.846c0-0.562-0.457-1.018-1.018-1.018c-0.564,0-1.019,0.456-1.019,1.018
			c0,0.561,0.455,1.018,1.019,1.018C32.796-63.828,33.253-64.285,33.253-64.846"/>
		<path fill="#2EBDEF" d="M33.253-74.109c0-0.021-0.002-0.043-0.004-0.062H31.22c-0.002,0.019-0.004,0.04-0.004,0.062
			c0,0.562,0.455,1.018,1.019,1.018C32.796-73.092,33.253-73.548,33.253-74.109"/>
		<path fill="#2EBDEF" d="M33.253-41.688c0-0.561-0.457-1.018-1.018-1.018c-0.564,0-1.019,0.457-1.019,1.018
			c0,0.562,0.455,1.021,1.019,1.021C32.796-40.667,33.253-41.125,33.253-41.688"/>
		<path fill="#2EBDEF" d="M33.253-37.055c0-0.564-0.457-1.02-1.018-1.02c-0.564,0-1.019,0.455-1.019,1.02
			c0,0.562,0.455,1.018,1.019,1.018C32.796-36.037,33.253-36.493,33.253-37.055"/>
		<path fill="#2EBDEF" d="M33.253-46.318c0-0.562-0.457-1.02-1.018-1.02c-0.564,0-1.019,0.457-1.019,1.02
			c0,0.562,0.455,1.018,1.019,1.018C32.796-45.301,33.253-45.757,33.253-46.318"/>
		<path fill="#2EBDEF" d="M33.253-32.424c0-0.562-0.457-1.018-1.018-1.018c-0.564,0-1.019,0.455-1.019,1.018
			c0,0.562,0.455,1.018,1.019,1.018C32.796-31.406,33.253-31.862,33.253-32.424"/>
		<path fill="#2EBDEF" d="M33.253-55.582c0-0.562-0.457-1.018-1.018-1.018c-0.564,0-1.019,0.455-1.019,1.018
			c0,0.562,0.455,1.018,1.019,1.018C32.796-54.564,33.253-55.021,33.253-55.582"/>
		<path fill="#2EBDEF" d="M33.253-50.951c0-0.562-0.457-1.018-1.018-1.018c-0.564,0-1.019,0.456-1.019,1.018
			s0.455,1.018,1.019,1.018C32.796-49.934,33.253-50.39,33.253-50.951"/>
		<path fill="#2EBDEF" d="M33.253-60.215c0-0.562-0.457-1.018-1.018-1.018c-0.564,0-1.019,0.455-1.019,1.018
			c0,0.562,0.455,1.018,1.019,1.018C32.796-59.197,33.253-59.653,33.253-60.215"/>
		<path fill="#2EBDEF" d="M33.253-69.479c0-0.562-0.457-1.018-1.018-1.018c-0.564,0-1.019,0.456-1.019,1.018
			c0,0.564,0.455,1.018,1.019,1.018C32.796-68.461,33.253-68.914,33.253-69.479"/>
		<path fill="#2EBDEF" d="M27.879-55.582c0-0.562-0.455-1.018-1.017-1.018s-1.019,0.455-1.019,1.018
			c0,0.562,0.457,1.018,1.019,1.018S27.879-55.021,27.879-55.582"/>
		<path fill="#2EBDEF" d="M22.508-23.158c0-0.564-0.456-1.02-1.018-1.02c-0.563,0-1.019,0.455-1.019,1.02
			c0,0.561,0.456,1.016,1.019,1.016C22.052-22.143,22.508-22.598,22.508-23.158"/>
		<path fill="#2EBDEF" d="M22.508-18.527c0-0.562-0.456-1.021-1.018-1.021c-0.563,0-1.019,0.458-1.019,1.021
			c0,0.562,0.456,1.018,1.019,1.018C22.052-17.51,22.508-17.966,22.508-18.527"/>
		<path fill="#2EBDEF" d="M22.508-4.633c0-0.561-0.456-1.018-1.018-1.018c-0.563,0-1.019,0.457-1.019,1.018
			c0,0.562,0.456,1.021,1.019,1.021C22.052-3.612,22.508-4.07,22.508-4.633"/>
		<path fill="#2EBDEF" d="M22.508-9.266c0-0.561-0.456-1.018-1.018-1.018c-0.563,0-1.019,0.457-1.019,1.018
			c0,0.564,0.456,1.021,1.019,1.021C22.052-8.245,22.508-8.701,22.508-9.266"/>
		<path fill="#2EBDEF" d="M27.879-37.055c0-0.564-0.455-1.02-1.017-1.02s-1.019,0.455-1.019,1.02c0,0.562,0.457,1.018,1.019,1.018
			S27.879-36.493,27.879-37.055"/>
		<path fill="#2EBDEF" d="M22.508-37.055c0-0.564-0.456-1.02-1.018-1.02c-0.563,0-1.019,0.455-1.019,1.02
			c0,0.562,0.456,1.018,1.019,1.018C22.052-36.037,22.508-36.493,22.508-37.055"/>
		<path fill="#2EBDEF" d="M22.508-27.791c0-0.562-0.456-1.02-1.018-1.02c-0.563,0-1.019,0.458-1.019,1.02
			c0,0.562,0.456,1.018,1.019,1.018C22.052-26.773,22.508-27.229,22.508-27.791"/>
		<path fill="#2EBDEF" d="M22.508-32.424c0-0.562-0.456-1.018-1.018-1.018c-0.563,0-1.019,0.455-1.019,1.018
			c0,0.562,0.456,1.018,1.019,1.018C22.052-31.406,22.508-31.862,22.508-32.424"/>
		<path fill="#2EBDEF" d="M22.508-13.895c0-0.562-0.456-1.021-1.018-1.021c-0.563,0-1.019,0.458-1.019,1.021
			c0,0.561,0.456,1.018,1.019,1.018C22.052-12.877,22.508-13.334,22.508-13.895"/>
		<path fill="#2EBDEF" d="M33.253-27.791c0-0.562-0.457-1.02-1.018-1.02c-0.564,0-1.019,0.458-1.019,1.02
			c0,0.562,0.455,1.018,1.019,1.018C32.796-26.773,33.253-27.229,33.253-27.791"/>
		<path fill="#2EBDEF" d="M27.879-50.951c0-0.562-0.455-1.018-1.017-1.018s-1.019,0.456-1.019,1.018s0.457,1.018,1.019,1.018
			S27.879-50.39,27.879-50.951"/>
		<path fill="#2EBDEF" d="M43.998-4.633c0-0.561-0.457-1.018-1.019-1.018s-1.017,0.457-1.017,1.018c0,0.562,0.455,1.021,1.017,1.021
			S43.998-4.07,43.998-4.633"/>
		<path fill="#2EBDEF" d="M27.879-41.688c0-0.561-0.455-1.018-1.017-1.018s-1.019,0.457-1.019,1.018
			c0,0.562,0.457,1.021,1.019,1.021S27.879-41.125,27.879-41.688"/>
		<path fill="#2EBDEF" d="M27.879-74.109c0-0.021,0-0.043-0.002-0.062h-2.031c0,0.019-0.003,0.04-0.003,0.062
			c0,0.562,0.457,1.018,1.019,1.018S27.879-73.548,27.879-74.109"/>
		<path fill="#2EBDEF" d="M27.879-60.215c0-0.562-0.455-1.018-1.017-1.018s-1.019,0.455-1.019,1.018
			c0,0.562,0.457,1.018,1.019,1.018S27.879-59.653,27.879-60.215"/>
		<path fill="#2EBDEF" d="M27.879-64.846c0-0.562-0.455-1.018-1.017-1.018s-1.019,0.456-1.019,1.018
			c0,0.561,0.457,1.018,1.019,1.018S27.879-64.285,27.879-64.846"/>
		<path fill="#2EBDEF" d="M27.879-69.479c0-0.562-0.455-1.018-1.017-1.018s-1.019,0.456-1.019,1.018
			c0,0.564,0.457,1.018,1.019,1.018S27.879-68.914,27.879-69.479"/>
		<path fill="#2EBDEF" d="M43.998-18.527c0-0.562-0.457-1.021-1.019-1.021s-1.017,0.458-1.017,1.021
			c0,0.562,0.455,1.018,1.017,1.018S43.998-17.966,43.998-18.527"/>
		<path fill="#2EBDEF" d="M43.998-69.479c0-0.562-0.457-1.018-1.019-1.018s-1.017,0.456-1.017,1.018
			c0,0.564,0.455,1.018,1.017,1.018S43.998-68.914,43.998-69.479"/>
		<path fill="#2EBDEF" d="M43.998-55.582c0-0.562-0.457-1.018-1.019-1.018s-1.017,0.455-1.017,1.018
			c0,0.562,0.455,1.018,1.017,1.018S43.998-55.021,43.998-55.582"/>
		<path fill="#2EBDEF" d="M43.998-60.215c0-0.562-0.457-1.018-1.019-1.018s-1.017,0.455-1.017,1.018
			c0,0.562,0.455,1.018,1.017,1.018S43.998-59.653,43.998-60.215"/>
		<path fill="#2EBDEF" d="M38.625-13.895c0-0.562-0.456-1.021-1.018-1.021s-1.017,0.458-1.017,1.021
			c0,0.561,0.455,1.018,1.017,1.018S38.625-13.334,38.625-13.895"/>
		<path fill="#2EBDEF" d="M38.625-9.266c0-0.561-0.456-1.018-1.018-1.018s-1.017,0.457-1.017,1.018c0,0.564,0.455,1.021,1.017,1.021
			S38.625-8.701,38.625-9.266"/>
		<path fill="#2EBDEF" d="M38.625-4.633c0-0.561-0.456-1.018-1.018-1.018s-1.017,0.457-1.017,1.018c0,0.562,0.455,1.021,1.017,1.021
			S38.625-4.07,38.625-4.633"/>
		<path fill="#2EBDEF" d="M43.998-46.318c0-0.562-0.457-1.02-1.019-1.02s-1.017,0.457-1.017,1.02c0,0.562,0.455,1.018,1.017,1.018
			S43.998-45.757,43.998-46.318"/>
		<path fill="#2EBDEF" d="M43.998-74.109c0-0.021-0.002-0.043-0.004-0.062h-2.029c-0.002,0.019-0.003,0.04-0.003,0.062
			c0,0.562,0.455,1.018,1.017,1.018S43.998-73.548,43.998-74.109"/>
		<path fill="#2EBDEF" d="M43.998-64.846c0-0.562-0.457-1.018-1.019-1.018s-1.017,0.456-1.017,1.018
			c0,0.561,0.455,1.018,1.017,1.018S43.998-64.285,43.998-64.846"/>
		<path fill="#2EBDEF" d="M43.998-50.951c0-0.562-0.457-1.018-1.019-1.018s-1.017,0.456-1.017,1.018s0.455,1.018,1.017,1.018
			S43.998-50.39,43.998-50.951"/>
		<path fill="#2EBDEF" d="M43.998-13.895c0-0.562-0.457-1.021-1.019-1.021s-1.017,0.458-1.017,1.021
			c0,0.561,0.455,1.018,1.017,1.018S43.998-13.334,43.998-13.895"/>
		<path fill="#2EBDEF" d="M43.998-41.688c0-0.561-0.457-1.018-1.019-1.018s-1.017,0.457-1.017,1.018
			c0,0.562,0.455,1.021,1.017,1.021S43.998-41.125,43.998-41.688"/>
		<path fill="#2EBDEF" d="M22.508-41.688c0-0.561-0.456-1.018-1.018-1.018c-0.563,0-1.019,0.457-1.019,1.018
			c0,0.562,0.456,1.021,1.019,1.021C22.052-40.667,22.508-41.125,22.508-41.688"/>
		<path fill="#2EBDEF" d="M43.998-9.266c0-0.561-0.457-1.018-1.019-1.018s-1.017,0.457-1.017,1.018c0,0.564,0.455,1.021,1.017,1.021
			S43.998-8.701,43.998-9.266"/>
		<path fill="#2EBDEF" d="M43.998-23.158c0-0.564-0.457-1.02-1.019-1.02s-1.017,0.455-1.017,1.02c0,0.561,0.455,1.016,1.017,1.016
			S43.998-22.598,43.998-23.158"/>
		<path fill="#2EBDEF" d="M43.998-27.791c0-0.562-0.457-1.02-1.019-1.02s-1.017,0.458-1.017,1.02c0,0.562,0.455,1.018,1.017,1.018
			S43.998-27.229,43.998-27.791"/>
		<path fill="#2EBDEF" d="M43.998-37.055c0-0.564-0.457-1.02-1.019-1.02s-1.017,0.455-1.017,1.02c0,0.562,0.455,1.018,1.017,1.018
			S43.998-36.493,43.998-37.055"/>
		<path fill="#2EBDEF" d="M43.998-32.424c0-0.562-0.457-1.018-1.019-1.018s-1.017,0.455-1.017,1.018
			c0,0.562,0.455,1.018,1.017,1.018S43.998-31.862,43.998-32.424"/>
		<path fill="#2EBDEF" d="M38.625-74.109c0-0.021-0.001-0.043-0.003-0.062h-2.029c-0.002,0.019-0.003,0.04-0.003,0.062
			c0,0.562,0.455,1.018,1.017,1.018S38.625-73.548,38.625-74.109"/>
		<path fill="#2EBDEF" d="M38.625-64.846c0-0.562-0.456-1.018-1.018-1.018s-1.017,0.456-1.017,1.018
			c0,0.561,0.455,1.018,1.017,1.018S38.625-64.285,38.625-64.846"/>
		<path fill="#2EBDEF" d="M33.253-4.633c0-0.561-0.457-1.018-1.018-1.018c-0.564,0-1.019,0.457-1.019,1.018
			c0,0.562,0.455,1.021,1.019,1.021C32.796-3.612,33.253-4.07,33.253-4.633"/>
		<path fill="#2EBDEF" d="M33.253-23.158c0-0.564-0.457-1.02-1.018-1.02c-0.564,0-1.019,0.455-1.019,1.02
			c0,0.561,0.455,1.016,1.019,1.016C32.796-22.143,33.253-22.598,33.253-23.158"/>
		<path fill="#2EBDEF" d="M38.625-60.215c0-0.562-0.456-1.018-1.018-1.018s-1.017,0.455-1.017,1.018
			c0,0.562,0.455,1.018,1.017,1.018S38.625-59.653,38.625-60.215"/>
		<path fill="#2EBDEF" d="M38.625-69.479c0-0.562-0.456-1.018-1.018-1.018s-1.017,0.456-1.017,1.018
			c0,0.564,0.455,1.018,1.017,1.018S38.625-68.914,38.625-69.479"/>
		<path fill="#2EBDEF" d="M33.253-18.527c0-0.562-0.457-1.021-1.018-1.021c-0.564,0-1.019,0.458-1.019,1.021
			c0,0.562,0.455,1.018,1.019,1.018C32.796-17.51,33.253-17.966,33.253-18.527"/>
		<path fill="#2EBDEF" d="M33.253-9.266c0-0.561-0.457-1.018-1.018-1.018c-0.564,0-1.019,0.457-1.019,1.018
			c0,0.564,0.455,1.021,1.019,1.021C32.796-8.245,33.253-8.701,33.253-9.266"/>
		<path fill="#2EBDEF" d="M33.253-13.895c0-0.562-0.457-1.021-1.018-1.021c-0.564,0-1.019,0.458-1.019,1.021
			c0,0.561,0.455,1.018,1.019,1.018C32.796-12.877,33.253-13.334,33.253-13.895"/>
		<path fill="#2EBDEF" d="M38.625-18.527c0-0.562-0.456-1.021-1.018-1.021s-1.017,0.458-1.017,1.021
			c0,0.562,0.455,1.018,1.017,1.018S38.625-17.966,38.625-18.527"/>
		<path fill="#2EBDEF" d="M38.625-32.424c0-0.562-0.456-1.018-1.018-1.018s-1.017,0.455-1.017,1.018
			c0,0.562,0.455,1.018,1.017,1.018S38.625-31.862,38.625-32.424"/>
		<path fill="#2EBDEF" d="M38.625-27.791c0-0.562-0.456-1.02-1.018-1.02s-1.017,0.458-1.017,1.02c0,0.562,0.455,1.018,1.017,1.018
			S38.625-27.229,38.625-27.791"/>
		<path fill="#2EBDEF" d="M38.625-37.055c0-0.564-0.456-1.02-1.018-1.02s-1.017,0.455-1.017,1.02c0,0.562,0.455,1.018,1.017,1.018
			S38.625-36.493,38.625-37.055"/>
		<path fill="#2EBDEF" d="M38.625-23.158c0-0.564-0.456-1.02-1.018-1.02s-1.017,0.455-1.017,1.02c0,0.561,0.455,1.016,1.017,1.016
			S38.625-22.598,38.625-23.158"/>
		<path fill="#2EBDEF" d="M38.625-41.688c0-0.561-0.456-1.018-1.018-1.018s-1.017,0.457-1.017,1.018
			c0,0.562,0.455,1.021,1.017,1.021S38.625-41.125,38.625-41.688"/>
		<path fill="#2EBDEF" d="M38.625-50.951c0-0.562-0.456-1.018-1.018-1.018s-1.017,0.456-1.017,1.018s0.455,1.018,1.017,1.018
			S38.625-50.39,38.625-50.951"/>
		<path fill="#2EBDEF" d="M38.625-55.582c0-0.562-0.456-1.018-1.018-1.018s-1.017,0.455-1.017,1.018
			c0,0.562,0.455,1.018,1.017,1.018S38.625-55.021,38.625-55.582"/>
		<path fill="#2EBDEF" d="M38.625-46.318c0-0.562-0.456-1.02-1.018-1.02s-1.017,0.457-1.017,1.02c0,0.562,0.455,1.018,1.017,1.018
			S38.625-45.757,38.625-46.318"/>
		<path fill="#2EBDEF" d="M27.879-46.318c0-0.562-0.455-1.02-1.017-1.02s-1.019,0.457-1.019,1.02c0,0.562,0.457,1.018,1.019,1.018
			S27.879-45.757,27.879-46.318"/>
		<path fill="#2EBDEF" d="M6.39-46.318c0-0.562-0.456-1.02-1.018-1.02c-0.561,0-1.017,0.457-1.017,1.02
			c0,0.562,0.456,1.018,1.017,1.018C5.934-45.301,6.39-45.757,6.39-46.318"/>
		<path fill="#2EBDEF" d="M6.39-50.951c0-0.562-0.456-1.018-1.018-1.018c-0.561,0-1.017,0.456-1.017,1.018s0.456,1.018,1.017,1.018
			C5.934-49.934,6.39-50.39,6.39-50.951"/>
		<path fill="#2EBDEF" d="M6.39-41.688c0-0.561-0.456-1.018-1.018-1.018c-0.561,0-1.017,0.457-1.017,1.018
			c0,0.562,0.456,1.021,1.017,1.021C5.934-40.667,6.39-41.125,6.39-41.688"/>
		<path fill="#2EBDEF" d="M6.39-37.055c0-0.564-0.456-1.02-1.018-1.02c-0.561,0-1.017,0.455-1.017,1.02
			c0,0.562,0.456,1.018,1.017,1.018C5.934-36.037,6.39-36.493,6.39-37.055"/>
		<path fill="#2EBDEF" d="M6.39-55.582c0-0.562-0.456-1.018-1.018-1.018c-0.561,0-1.017,0.455-1.017,1.018
			c0,0.562,0.456,1.018,1.017,1.018C5.934-54.564,6.39-55.021,6.39-55.582"/>
		<path fill="#2EBDEF" d="M6.39-32.424c0-0.562-0.456-1.018-1.018-1.018c-0.561,0-1.017,0.455-1.017,1.018
			c0,0.562,0.456,1.018,1.017,1.018C5.934-31.406,6.39-31.862,6.39-32.424"/>
		<path fill="#2EBDEF" d="M6.39-64.846c0-0.562-0.456-1.018-1.018-1.018c-0.561,0-1.017,0.456-1.017,1.018
			c0,0.561,0.456,1.018,1.017,1.018C5.934-63.828,6.39-64.285,6.39-64.846"/>
		<path fill="#2EBDEF" d="M6.39-60.215c0-0.562-0.456-1.018-1.018-1.018c-0.561,0-1.017,0.455-1.017,1.018
			c0,0.562,0.456,1.018,1.017,1.018C5.934-59.197,6.39-59.653,6.39-60.215"/>
		<path fill="#2EBDEF" d="M6.39-69.479c0-0.562-0.456-1.018-1.018-1.018c-0.561,0-1.017,0.456-1.017,1.018
			c0,0.564,0.456,1.018,1.017,1.018C5.934-68.461,6.39-68.914,6.39-69.479"/>
		<path fill="#2EBDEF" d="M11.764-74.109c0-0.021-0.003-0.043-0.003-0.062H9.73c-0.002,0.019-0.003,0.04-0.003,0.062
			c0,0.562,0.455,1.018,1.017,1.018C11.308-73.092,11.764-73.548,11.764-74.109"/>
		<path fill="#2EBDEF" d="M6.39-9.266c0-0.561-0.456-1.018-1.018-1.018c-0.561,0-1.017,0.457-1.017,1.018
			c0,0.564,0.456,1.021,1.017,1.021C5.934-8.245,6.39-8.701,6.39-9.266"/>
		<path fill="#2EBDEF" d="M6.39-4.633c0-0.561-0.456-1.018-1.018-1.018c-0.561,0-1.017,0.457-1.017,1.018
			c0,0.562,0.456,1.021,1.017,1.021C5.934-3.612,6.39-4.07,6.39-4.633"/>
		<path fill="#2EBDEF" d="M11.764-64.846c0-0.562-0.456-1.018-1.02-1.018c-0.562,0-1.017,0.456-1.017,1.018
			c0,0.561,0.455,1.018,1.017,1.018C11.308-63.828,11.764-64.285,11.764-64.846"/>
		<path fill="#2EBDEF" d="M6.39-13.895c0-0.562-0.456-1.021-1.018-1.021c-0.561,0-1.017,0.458-1.017,1.021
			c0,0.561,0.456,1.018,1.017,1.018C5.934-12.877,6.39-13.334,6.39-13.895"/>
		<path fill="#2EBDEF" d="M6.39-27.791c0-0.562-0.456-1.02-1.018-1.02c-0.561,0-1.017,0.458-1.017,1.02
			c0,0.562,0.456,1.018,1.017,1.018C5.934-26.773,6.39-27.229,6.39-27.791"/>
		<path fill="#2EBDEF" d="M6.39-23.158c0-0.564-0.456-1.02-1.018-1.02c-0.561,0-1.017,0.455-1.017,1.02
			c0,0.561,0.456,1.016,1.017,1.016C5.934-22.143,6.39-22.598,6.39-23.158"/>
		<path fill="#2EBDEF" d="M6.39-18.527c0-0.562-0.456-1.021-1.018-1.021c-0.561,0-1.017,0.458-1.017,1.021
			c0,0.562,0.456,1.018,1.017,1.018C5.934-17.51,6.39-17.966,6.39-18.527"/>
		<path fill="#2EBDEF" d="M1.019-32.424c0-0.562-0.457-1.018-1.019-1.018v2.035C0.562-31.406,1.019-31.862,1.019-32.424"/>
		<path fill="#2EBDEF" d="M1.019-37.055c0-0.564-0.457-1.02-1.019-1.02v2.037C0.562-36.037,1.019-36.493,1.019-37.055"/>
		<path fill="#2EBDEF" d="M1.019-50.951c0-0.562-0.457-1.018-1.019-1.018v2.035C0.562-49.934,1.019-50.39,1.019-50.951"/>
		<path fill="#2EBDEF" d="M1.019-55.582C1.019-56.145,0.562-56.6,0-56.6v2.035C0.562-54.564,1.019-55.021,1.019-55.582"/>
		<path fill="#2EBDEF" d="M22.508-46.318c0-0.562-0.456-1.02-1.018-1.02c-0.563,0-1.019,0.457-1.019,1.02
			c0,0.562,0.456,1.018,1.019,1.018C22.052-45.301,22.508-45.757,22.508-46.318"/>
		<path fill="#2EBDEF" d="M1.019-46.318c0-0.562-0.457-1.02-1.019-1.02v2.037C0.562-45.301,1.019-45.757,1.019-46.318"/>
		<path fill="#2EBDEF" d="M6.39-74.109c0-0.021-0.001-0.043-0.003-0.062H4.358c-0.002,0.019-0.003,0.04-0.003,0.062
			c0,0.562,0.456,1.018,1.017,1.018C5.934-73.092,6.39-73.548,6.39-74.109"/>
		<path fill="#2EBDEF" d="M1.019-64.846c0-0.562-0.457-1.018-1.019-1.018v2.035C0.562-63.828,1.019-64.285,1.019-64.846"/>
		<path fill="#2EBDEF" d="M1.019-60.215c0-0.562-0.457-1.018-1.019-1.018v2.035C0.562-59.197,1.019-59.653,1.019-60.215"/>
		<path fill="#2EBDEF" d="M1.019-69.479c0-0.562-0.457-1.018-1.019-1.018v2.035C0.562-68.461,1.019-68.914,1.019-69.479"/>
		<path fill="#2EBDEF" d="M11.764-69.479c0-0.562-0.456-1.018-1.02-1.018c-0.562,0-1.017,0.456-1.017,1.018
			c0,0.564,0.455,1.018,1.017,1.018C11.308-68.461,11.764-68.914,11.764-69.479"/>
		<path fill="#2EBDEF" d="M1.019-13.895c0-0.562-0.457-1.021-1.019-1.021v2.038C0.562-12.877,1.019-13.334,1.019-13.895"/>
		<path fill="#2EBDEF" d="M1.019-4.633C1.019-5.193,0.562-5.65,0-5.65v2.038C0.562-3.612,1.019-4.07,1.019-4.633"/>
		<path fill="#2EBDEF" d="M1.019-74.109c0-0.021-0.002-0.043-0.004-0.062H0v1.079C0.562-73.092,1.019-73.548,1.019-74.109"/>
		<path fill="#2EBDEF" d="M1.019-9.266c0-0.561-0.457-1.018-1.019-1.018v2.038C0.562-8.245,1.019-8.701,1.019-9.266"/>
		<path fill="#2EBDEF" d="M1.019-27.791c0-0.562-0.457-1.02-1.019-1.02v2.037C0.562-26.773,1.019-27.229,1.019-27.791"/>
		<path fill="#2EBDEF" d="M1.019-18.527c0-0.562-0.457-1.021-1.019-1.021v2.038C0.562-17.51,1.019-17.966,1.019-18.527"/>
		<path fill="#2EBDEF" d="M1.019-23.158c0-0.564-0.457-1.02-1.019-1.02v2.035C0.562-22.143,1.019-22.598,1.019-23.158"/>
		<path fill="#2EBDEF" d="M1.019-41.688c0-0.561-0.457-1.018-1.019-1.018v2.038C0.562-40.667,1.019-41.125,1.019-41.688"/>
		<path fill="#2EBDEF" d="M17.135-50.951c0-0.562-0.455-1.018-1.019-1.018c-0.561,0-1.017,0.456-1.017,1.018
			s0.456,1.018,1.017,1.018C16.68-49.934,17.135-50.39,17.135-50.951"/>
		<path fill="#2EBDEF" d="M17.135-23.158c0-0.564-0.455-1.02-1.019-1.02c-0.561,0-1.017,0.455-1.017,1.02
			c0,0.561,0.456,1.016,1.017,1.016C16.68-22.143,17.135-22.598,17.135-23.158"/>
		<path fill="#2EBDEF" d="M17.135-32.424c0-0.562-0.455-1.018-1.019-1.018c-0.561,0-1.017,0.455-1.017,1.018
			c0,0.562,0.456,1.018,1.017,1.018C16.68-31.406,17.135-31.862,17.135-32.424"/>
		<path fill="#2EBDEF" d="M17.135-18.527c0-0.562-0.455-1.021-1.019-1.021c-0.561,0-1.017,0.458-1.017,1.021
			c0,0.562,0.456,1.018,1.017,1.018C16.68-17.51,17.135-17.966,17.135-18.527"/>
		<path fill="#2EBDEF" d="M17.135-37.055c0-0.564-0.455-1.02-1.019-1.02c-0.561,0-1.017,0.455-1.017,1.02
			c0,0.562,0.456,1.018,1.017,1.018C16.68-36.037,17.135-36.493,17.135-37.055"/>
		<path fill="#2EBDEF" d="M17.135-46.318c0-0.562-0.455-1.02-1.019-1.02c-0.561,0-1.017,0.457-1.017,1.02
			c0,0.562,0.456,1.018,1.017,1.018C16.68-45.301,17.135-45.757,17.135-46.318"/>
		<path fill="#2EBDEF" d="M17.135-13.895c0-0.562-0.455-1.021-1.019-1.021c-0.561,0-1.017,0.458-1.017,1.021
			c0,0.561,0.456,1.018,1.017,1.018C16.68-12.877,17.135-13.334,17.135-13.895"/>
		<path fill="#2EBDEF" d="M17.135-41.688c0-0.561-0.455-1.018-1.019-1.018c-0.561,0-1.017,0.457-1.017,1.018
			c0,0.562,0.456,1.021,1.017,1.021C16.68-40.667,17.135-41.125,17.135-41.688"/>
		<path fill="#2EBDEF" d="M17.135-27.791c0-0.562-0.455-1.02-1.019-1.02c-0.561,0-1.017,0.458-1.017,1.02
			c0,0.562,0.456,1.018,1.017,1.018C16.68-26.773,17.135-27.229,17.135-27.791"/>
		<path fill="#2EBDEF" d="M22.508-55.582c0-0.562-0.456-1.018-1.018-1.018c-0.563,0-1.019,0.455-1.019,1.018
			c0,0.562,0.456,1.018,1.019,1.018C22.052-54.564,22.508-55.021,22.508-55.582"/>
		<path fill="#2EBDEF" d="M17.135-9.266c0-0.561-0.455-1.018-1.019-1.018c-0.561,0-1.017,0.457-1.017,1.018
			c0,0.564,0.456,1.021,1.017,1.021C16.68-8.245,17.135-8.701,17.135-9.266"/>
		<path fill="#2EBDEF" d="M22.508-69.479c0-0.562-0.456-1.018-1.018-1.018c-0.563,0-1.019,0.456-1.019,1.018
			c0,0.564,0.456,1.018,1.019,1.018C22.052-68.461,22.508-68.914,22.508-69.479"/>
		<path fill="#2EBDEF" d="M22.508-50.951c0-0.562-0.456-1.018-1.018-1.018c-0.563,0-1.019,0.456-1.019,1.018
			s0.456,1.018,1.019,1.018C22.052-49.934,22.508-50.39,22.508-50.951"/>
		<path fill="#2EBDEF" d="M22.508-60.215c0-0.562-0.456-1.018-1.018-1.018c-0.563,0-1.019,0.455-1.019,1.018
			c0,0.562,0.456,1.018,1.019,1.018C22.052-59.197,22.508-59.653,22.508-60.215"/>
		<path fill="#2EBDEF" d="M17.135-4.633c0-0.561-0.455-1.018-1.019-1.018c-0.561,0-1.017,0.457-1.017,1.018
			c0,0.562,0.456,1.021,1.017,1.021C16.68-3.612,17.135-4.07,17.135-4.633"/>
		<path fill="#2EBDEF" d="M22.508-74.109c0-0.021-0.003-0.043-0.003-0.062h-2.031c-0.002,0.019-0.003,0.04-0.003,0.062
			c0,0.562,0.456,1.018,1.019,1.018C22.052-73.092,22.508-73.548,22.508-74.109"/>
		<path fill="#2EBDEF" d="M22.508-64.846c0-0.562-0.456-1.018-1.018-1.018c-0.563,0-1.019,0.456-1.019,1.018
			c0,0.561,0.456,1.018,1.019,1.018C22.052-63.828,22.508-64.285,22.508-64.846"/>
		<path fill="#2EBDEF" d="M11.764-4.633c0-0.561-0.456-1.018-1.02-1.018c-0.562,0-1.017,0.457-1.017,1.018
			c0,0.562,0.455,1.021,1.017,1.021C11.308-3.612,11.764-4.07,11.764-4.633"/>
		<path fill="#2EBDEF" d="M11.764-37.055c0-0.564-0.456-1.02-1.02-1.02c-0.562,0-1.017,0.455-1.017,1.02
			c0,0.562,0.455,1.018,1.017,1.018C11.308-36.037,11.764-36.493,11.764-37.055"/>
		<path fill="#2EBDEF" d="M17.135-55.582c0-0.562-0.455-1.018-1.019-1.018c-0.561,0-1.017,0.455-1.017,1.018
			c0,0.562,0.456,1.018,1.017,1.018C16.68-54.564,17.135-55.021,17.135-55.582"/>
		<path fill="#2EBDEF" d="M11.764-41.688c0-0.561-0.456-1.018-1.02-1.018c-0.562,0-1.017,0.457-1.017,1.018
			c0,0.562,0.455,1.021,1.017,1.021C11.308-40.667,11.764-41.125,11.764-41.688"/>
		<path fill="#2EBDEF" d="M11.764-23.158c0-0.564-0.456-1.02-1.02-1.02c-0.562,0-1.017,0.455-1.017,1.02
			c0,0.561,0.455,1.016,1.017,1.016C11.308-22.143,11.764-22.598,11.764-23.158"/>
		<path fill="#2EBDEF" d="M11.764-27.791c0-0.562-0.456-1.02-1.02-1.02c-0.562,0-1.017,0.458-1.017,1.02
			c0,0.562,0.455,1.018,1.017,1.018C11.308-26.773,11.764-27.229,11.764-27.791"/>
		<path fill="#2EBDEF" d="M11.764-55.582c0-0.562-0.456-1.018-1.02-1.018c-0.562,0-1.017,0.455-1.017,1.018
			c0,0.562,0.455,1.018,1.017,1.018C11.308-54.564,11.764-55.021,11.764-55.582"/>
		<path fill="#2EBDEF" d="M11.764-46.318c0-0.562-0.456-1.02-1.02-1.02c-0.562,0-1.017,0.457-1.017,1.02
			c0,0.562,0.455,1.018,1.017,1.018C11.308-45.301,11.764-45.757,11.764-46.318"/>
		<path fill="#2EBDEF" d="M11.764-50.951c0-0.562-0.456-1.018-1.02-1.018c-0.562,0-1.017,0.456-1.017,1.018s0.455,1.018,1.017,1.018
			C11.308-49.934,11.764-50.39,11.764-50.951"/>
		<path fill="#2EBDEF" d="M11.764-32.424c0-0.562-0.456-1.018-1.02-1.018c-0.562,0-1.017,0.455-1.017,1.018
			c0,0.562,0.455,1.018,1.017,1.018C11.308-31.406,11.764-31.862,11.764-32.424"/>
		<path fill="#2EBDEF" d="M17.135-64.846c0-0.562-0.455-1.018-1.019-1.018c-0.561,0-1.017,0.456-1.017,1.018
			c0,0.561,0.456,1.018,1.017,1.018C16.68-63.828,17.135-64.285,17.135-64.846"/>
		<path fill="#2EBDEF" d="M11.764-18.527c0-0.562-0.456-1.021-1.02-1.021c-0.562,0-1.017,0.458-1.017,1.021
			c0,0.562,0.455,1.018,1.017,1.018C11.308-17.51,11.764-17.966,11.764-18.527"/>
		<path fill="#2EBDEF" d="M17.135-69.479c0-0.562-0.455-1.018-1.019-1.018c-0.561,0-1.017,0.456-1.017,1.018
			c0,0.564,0.456,1.018,1.017,1.018C16.68-68.461,17.135-68.914,17.135-69.479"/>
		<path fill="#2EBDEF" d="M17.135-60.215c0-0.562-0.455-1.018-1.019-1.018c-0.561,0-1.017,0.455-1.017,1.018
			c0,0.562,0.456,1.018,1.017,1.018C16.68-59.197,17.135-59.653,17.135-60.215"/>
		<path fill="#2EBDEF" d="M17.135-74.109c0-0.021-0.002-0.043-0.003-0.062h-2.03c0,0.019-0.003,0.04-0.003,0.062
			c0,0.562,0.456,1.018,1.017,1.018C16.68-73.092,17.135-73.548,17.135-74.109"/>
		<path fill="#2EBDEF" d="M11.764-13.895c0-0.562-0.456-1.021-1.02-1.021c-0.562,0-1.017,0.458-1.017,1.021
			c0,0.561,0.455,1.018,1.017,1.018C11.308-12.877,11.764-13.334,11.764-13.895"/>
		<path fill="#2EBDEF" d="M11.764-9.266c0-0.561-0.456-1.018-1.02-1.018c-0.562,0-1.017,0.457-1.017,1.018
			c0,0.564,0.455,1.021,1.017,1.021C11.308-8.245,11.764-8.701,11.764-9.266"/>
		<path fill="#2EBDEF" d="M11.764-60.215c0-0.562-0.456-1.018-1.02-1.018c-0.562,0-1.017,0.455-1.017,1.018
			c0,0.562,0.455,1.018,1.017,1.018C11.308-59.197,11.764-59.653,11.764-60.215"/>
		<path fill="#2EBDEF" d="M76.232-13.895c0-0.562-0.457-1.021-1.018-1.021c-0.563,0-1.02,0.458-1.02,1.021
			c0,0.561,0.457,1.018,1.02,1.018C75.775-12.877,76.232-13.334,76.232-13.895"/>
		<path fill="#2EBDEF" d="M81.603-69.479c0-0.562-0.456-1.018-1.018-1.018c-0.561,0-1.017,0.456-1.017,1.018
			c0,0.564,0.456,1.018,1.017,1.018C81.147-68.461,81.603-68.914,81.603-69.479"/>
		<path fill="#2EBDEF" d="M81.603-74.109c0-0.021-0.001-0.043-0.002-0.062h-2.03c-0.001,0.019-0.003,0.04-0.003,0.062
			c0,0.562,0.456,1.018,1.017,1.018C81.147-73.092,81.603-73.548,81.603-74.109"/>
		<path fill="#2EBDEF" d="M76.232-27.791c0-0.562-0.457-1.02-1.018-1.02c-0.563,0-1.02,0.458-1.02,1.02
			c0,0.562,0.457,1.018,1.02,1.018C75.775-26.773,76.232-27.229,76.232-27.791"/>
		<path fill="#2EBDEF" d="M81.603-60.215c0-0.562-0.456-1.018-1.018-1.018c-0.561,0-1.017,0.455-1.017,1.018
			c0,0.562,0.456,1.018,1.017,1.018C81.147-59.197,81.603-59.653,81.603-60.215"/>
		<path fill="#2EBDEF" d="M81.603-64.846c0-0.562-0.456-1.018-1.018-1.018c-0.561,0-1.017,0.456-1.017,1.018
			c0,0.561,0.456,1.018,1.017,1.018C81.147-63.828,81.603-64.285,81.603-64.846"/>
		<path fill="#2EBDEF" d="M76.232-18.527c0-0.562-0.457-1.021-1.018-1.021c-0.563,0-1.02,0.458-1.02,1.021
			c0,0.562,0.457,1.018,1.02,1.018C75.775-17.51,76.232-17.966,76.232-18.527"/>
		<path fill="#2EBDEF" d="M76.232-4.633c0-0.561-0.457-1.018-1.018-1.018c-0.563,0-1.02,0.457-1.02,1.018
			c0,0.562,0.457,1.021,1.02,1.021C75.775-3.612,76.232-4.07,76.232-4.633"/>
		<path fill="#2EBDEF" d="M76.232-23.158c0-0.564-0.457-1.02-1.018-1.02c-0.563,0-1.02,0.455-1.02,1.02
			c0,0.561,0.457,1.016,1.02,1.016C75.775-22.143,76.232-22.598,76.232-23.158"/>
		<path fill="#2EBDEF" d="M76.232-9.266c0-0.561-0.457-1.018-1.018-1.018c-0.563,0-1.02,0.457-1.02,1.018
			c0,0.564,0.457,1.021,1.02,1.021C75.775-8.245,76.232-8.701,76.232-9.266"/>
		<path fill="#2EBDEF" d="M81.603-55.582c0-0.562-0.456-1.018-1.018-1.018c-0.561,0-1.017,0.455-1.017,1.018
			c0,0.562,0.456,1.018,1.017,1.018C81.147-54.564,81.603-55.021,81.603-55.582"/>
		<path fill="#2EBDEF" d="M81.603-50.951c0-0.562-0.456-1.018-1.018-1.018c-0.561,0-1.017,0.456-1.017,1.018
			s0.456,1.018,1.017,1.018C81.147-49.934,81.603-50.39,81.603-50.951"/>
		<path fill="#2EBDEF" d="M81.603-32.424c0-0.562-0.456-1.018-1.018-1.018c-0.561,0-1.017,0.455-1.017,1.018
			c0,0.562,0.456,1.018,1.017,1.018C81.147-31.406,81.603-31.862,81.603-32.424"/>
		<path fill="#2EBDEF" d="M81.603-23.158c0-0.564-0.456-1.02-1.018-1.02c-0.561,0-1.017,0.455-1.017,1.02
			c0,0.561,0.456,1.016,1.017,1.016C81.147-22.143,81.603-22.598,81.603-23.158"/>
		<path fill="#2EBDEF" d="M81.603-18.527c0-0.562-0.456-1.021-1.018-1.021c-0.561,0-1.017,0.458-1.017,1.021
			c0,0.562,0.456,1.018,1.017,1.018C81.147-17.51,81.603-17.966,81.603-18.527"/>
		<path fill="#2EBDEF" d="M81.603-27.791c0-0.562-0.456-1.02-1.018-1.02c-0.561,0-1.017,0.458-1.017,1.02
			c0,0.562,0.456,1.018,1.017,1.018C81.147-26.773,81.603-27.229,81.603-27.791"/>
		<path fill="#2EBDEF" d="M81.603-46.318c0-0.562-0.456-1.02-1.018-1.02c-0.561,0-1.017,0.457-1.017,1.02
			c0,0.562,0.456,1.018,1.017,1.018C81.147-45.301,81.603-45.757,81.603-46.318"/>
		<path fill="#2EBDEF" d="M70.859-37.055c0-0.564-0.456-1.02-1.018-1.02s-1.017,0.455-1.017,1.02c0,0.562,0.455,1.018,1.017,1.018
			S70.859-36.493,70.859-37.055"/>
		<path fill="#2EBDEF" d="M81.603-37.055c0-0.564-0.456-1.02-1.018-1.02c-0.561,0-1.017,0.455-1.017,1.02
			c0,0.562,0.456,1.018,1.017,1.018C81.147-36.037,81.603-36.493,81.603-37.055"/>
		<path fill="#2EBDEF" d="M76.232-41.688c0-0.561-0.457-1.018-1.018-1.018c-0.563,0-1.02,0.457-1.02,1.018
			c0,0.562,0.457,1.021,1.02,1.021C75.775-40.667,76.232-41.125,76.232-41.688"/>
		<path fill="#2EBDEF" d="M70.859-18.527c0-0.562-0.456-1.021-1.018-1.021s-1.017,0.458-1.017,1.021
			c0,0.562,0.455,1.018,1.017,1.018S70.859-17.966,70.859-18.527"/>
		<path fill="#2EBDEF" d="M76.232-74.109c0-0.021-0.002-0.043-0.004-0.062h-2.029c-0.002,0.019-0.005,0.04-0.005,0.062
			c0,0.562,0.457,1.018,1.02,1.018C75.775-73.092,76.232-73.548,76.232-74.109"/>
		<path fill="#2EBDEF" d="M70.859-9.266c0-0.561-0.456-1.018-1.018-1.018s-1.017,0.457-1.017,1.018c0,0.564,0.455,1.021,1.017,1.021
			S70.859-8.701,70.859-9.266"/>
		<path fill="#2EBDEF" d="M70.859-4.633c0-0.561-0.456-1.018-1.018-1.018s-1.017,0.457-1.017,1.018c0,0.562,0.455,1.021,1.017,1.021
			S70.859-4.07,70.859-4.633"/>
		<path fill="#2EBDEF" d="M70.859-13.895c0-0.562-0.456-1.021-1.018-1.021s-1.017,0.458-1.017,1.021
			c0,0.561,0.455,1.018,1.017,1.018S70.859-13.334,70.859-13.895"/>
		<path fill="#2EBDEF" d="M70.859-23.158c0-0.564-0.456-1.02-1.018-1.02s-1.017,0.455-1.017,1.02c0,0.561,0.455,1.016,1.017,1.016
			S70.859-22.598,70.859-23.158"/>
		<path fill="#2EBDEF" d="M70.859-32.424c0-0.562-0.456-1.018-1.018-1.018s-1.017,0.455-1.017,1.018
			c0,0.562,0.455,1.018,1.017,1.018S70.859-31.862,70.859-32.424"/>
		<path fill="#2EBDEF" d="M70.859-27.791c0-0.562-0.456-1.02-1.018-1.02s-1.017,0.458-1.017,1.02c0,0.562,0.455,1.018,1.017,1.018
			S70.859-27.229,70.859-27.791"/>
		<path fill="#2EBDEF" d="M76.232-55.582c0-0.562-0.457-1.018-1.018-1.018c-0.563,0-1.02,0.455-1.02,1.018
			c0,0.562,0.457,1.018,1.02,1.018C75.775-54.564,76.232-55.021,76.232-55.582"/>
		<path fill="#2EBDEF" d="M81.603-13.895c0-0.562-0.456-1.021-1.018-1.021c-0.561,0-1.017,0.458-1.017,1.021
			c0,0.561,0.456,1.018,1.017,1.018C81.147-12.877,81.603-13.334,81.603-13.895"/>
		<path fill="#2EBDEF" d="M76.232-46.318c0-0.562-0.457-1.02-1.018-1.02c-0.563,0-1.02,0.457-1.02,1.02
			c0,0.562,0.457,1.018,1.02,1.018C75.775-45.301,76.232-45.757,76.232-46.318"/>
		<path fill="#2EBDEF" d="M76.232-37.055c0-0.564-0.457-1.02-1.018-1.02c-0.563,0-1.02,0.455-1.02,1.02
			c0,0.562,0.457,1.018,1.02,1.018C75.775-36.037,76.232-36.493,76.232-37.055"/>
		<path fill="#2EBDEF" d="M76.232-50.951c0-0.562-0.457-1.018-1.018-1.018c-0.563,0-1.02,0.456-1.02,1.018s0.457,1.018,1.02,1.018
			C75.775-49.934,76.232-50.39,76.232-50.951"/>
		<path fill="#2EBDEF" d="M76.232-60.215c0-0.562-0.457-1.018-1.018-1.018c-0.563,0-1.02,0.455-1.02,1.018
			c0,0.562,0.457,1.018,1.02,1.018C75.775-59.197,76.232-59.653,76.232-60.215"/>
		<path fill="#2EBDEF" d="M76.232-32.424c0-0.562-0.457-1.018-1.018-1.018c-0.563,0-1.02,0.455-1.02,1.018
			c0,0.562,0.457,1.018,1.02,1.018C75.775-31.406,76.232-31.862,76.232-32.424"/>
		<path fill="#2EBDEF" d="M76.232-69.479c0-0.562-0.457-1.018-1.018-1.018c-0.563,0-1.02,0.456-1.02,1.018
			c0,0.564,0.457,1.018,1.02,1.018C75.775-68.461,76.232-68.914,76.232-69.479"/>
		<path fill="#2EBDEF" d="M76.232-64.846c0-0.562-0.457-1.018-1.018-1.018c-0.563,0-1.02,0.456-1.02,1.018
			c0,0.561,0.457,1.018,1.02,1.018C75.775-63.828,76.232-64.285,76.232-64.846"/>
		<path fill="#2EBDEF" d="M81.603-41.688c0-0.561-0.456-1.018-1.018-1.018c-0.561,0-1.017,0.457-1.017,1.018
			c0,0.562,0.456,1.021,1.017,1.021C81.147-40.667,81.603-41.125,81.603-41.688"/>
		<path fill="#2EBDEF" d="M52.706,0h2.036c0-0.562-0.457-1.02-1.018-1.02C53.162-1.02,52.706-0.562,52.706,0"/>
		<path fill="#2EBDEF" d="M63.45,0h2.036c0-0.562-0.455-1.02-1.017-1.02C63.906-1.02,63.45-0.562,63.45,0"/>
		<path fill="#2EBDEF" d="M58.078,0h2.037c0-0.562-0.456-1.02-1.017-1.02C58.535-1.02,58.078-0.562,58.078,0"/>
		<path fill="#2EBDEF" d="M41.961,0h2.036c0-0.562-0.457-1.02-1.018-1.02C42.417-1.02,41.961-0.562,41.961,0"/>
		<path fill="#2EBDEF" d="M49.37-74.109c0-0.021-0.002-0.043-0.003-0.062h-2.03c-0.001,0.019-0.003,0.04-0.003,0.062
			c0,0.562,0.455,1.018,1.018,1.018S49.37-73.548,49.37-74.109"/>
		<path fill="#2EBDEF" d="M79.568,0h2.035c0-0.562-0.456-1.02-1.017-1.02C80.024-1.02,79.568-0.562,79.568,0"/>
		<path fill="#2EBDEF" d="M68.824,0h2.035c0-0.562-0.456-1.02-1.017-1.02C69.279-1.02,68.824-0.562,68.824,0"/>
		<path fill="#2EBDEF" d="M74.194,0h2.038c0-0.562-0.457-1.02-1.018-1.02C74.651-1.02,74.194-0.562,74.194,0"/>
		<path fill="#2EBDEF" d="M47.333,0h2.036c0-0.562-0.455-1.02-1.018-1.02S47.333-0.562,47.333,0"/>
		<path fill="#2EBDEF" d="M4.355,0H6.39c0-0.562-0.456-1.02-1.017-1.02C4.811-1.02,4.355-0.562,4.355,0"/>
		<path fill="#2EBDEF" d="M81.603-9.266c0-0.561-0.456-1.018-1.018-1.018c-0.561,0-1.017,0.457-1.017,1.018
			c0,0.564,0.456,1.021,1.017,1.021C81.147-8.245,81.603-8.701,81.603-9.266"/>
		<path fill="#2EBDEF" d="M9.727,0h2.037c0-0.562-0.456-1.02-1.019-1.02S9.727-0.562,9.727,0"/>
		<path fill="#2EBDEF" d="M0,0H1.02C1.02-0.562,0.562-1.02,0-1.02V0z"/>
		<path fill="#2EBDEF" d="M36.589,0h2.035c0-0.562-0.456-1.02-1.017-1.02C37.044-1.02,36.589-0.562,36.589,0"/>
		<path fill="#2EBDEF" d="M31.216,0h2.037c0-0.562-0.457-1.02-1.018-1.02C31.671-1.02,31.216-0.562,31.216,0"/>
		<path fill="#2EBDEF" d="M20.471,0h2.037c0-0.562-0.456-1.02-1.017-1.02C20.927-1.02,20.471-0.562,20.471,0"/>
		<path fill="#2EBDEF" d="M25.843,0h2.036c0-0.562-0.455-1.02-1.016-1.02C26.3-1.02,25.843-0.562,25.843,0"/>
		<path fill="#2EBDEF" d="M15.099,0h2.036c0-0.562-0.455-1.02-1.018-1.02C15.555-1.02,15.099-0.562,15.099,0"/>
		<path fill="#2EBDEF" d="M85.958-54.564c0.042,0,0.083-0.004,0.124-0.008v-2.021C86.041-56.598,86-56.6,85.958-56.6
			c-0.562,0-1.018,0.455-1.018,1.018S85.396-54.564,85.958-54.564"/>
		<path fill="#2EBDEF" d="M85.958-59.197c0.042,0,0.083-0.002,0.124-0.008v-2.02c-0.041-0.004-0.082-0.008-0.124-0.008
			c-0.562,0-1.018,0.455-1.018,1.018S85.396-59.197,85.958-59.197"/>
		<path fill="#2EBDEF" d="M85.958-45.301c0.042,0,0.083-0.004,0.124-0.008v-2.021c-0.041-0.004-0.082-0.008-0.124-0.008
			c-0.562,0-1.018,0.457-1.018,1.02S85.396-45.301,85.958-45.301"/>
		<path fill="#2EBDEF" d="M85.958-49.934c0.042,0,0.083-0.002,0.124-0.008v-2.02c-0.041-0.004-0.082-0.008-0.124-0.008
			c-0.562,0-1.018,0.455-1.018,1.018S85.396-49.934,85.958-49.934"/>
		<path fill="#2EBDEF" d="M85.958-68.461c0.042,0,0.083-0.002,0.124-0.006v-2.021c-0.041-0.004-0.082-0.008-0.124-0.008
			c-0.562,0-1.018,0.455-1.018,1.018C84.939-68.914,85.396-68.461,85.958-68.461"/>
		<path fill="#2EBDEF" d="M81.603-4.633c0-0.561-0.456-1.018-1.018-1.018c-0.561,0-1.017,0.457-1.017,1.018
			c0,0.562,0.456,1.021,1.017,1.021C81.147-3.612,81.603-4.07,81.603-4.633"/>
		<path fill="#2EBDEF" d="M85.958-63.828c0.042,0,0.083-0.004,0.124-0.008v-2.02c-0.041-0.006-0.082-0.008-0.124-0.008
			c-0.562,0-1.018,0.455-1.018,1.018C84.939-64.285,85.396-63.828,85.958-63.828"/>
		<path fill="#2EBDEF" d="M85.958-73.092c0.042,0,0.083-0.004,0.124-0.008v-1.072h-1.139c-0.002,0.02-0.003,0.041-0.003,0.062
			C84.939-73.547,85.396-73.092,85.958-73.092"/>
		<path fill="#2EBDEF" d="M85.958-22.143c0.042,0,0.083-0.002,0.124-0.008v-2.018c-0.041-0.008-0.082-0.01-0.124-0.01
			c-0.562,0-1.018,0.455-1.018,1.02C84.939-22.598,85.396-22.143,85.958-22.143"/>
		<path fill="#2EBDEF" d="M85.958-12.877c0.042,0,0.083-0.004,0.124-0.01v-2.02c-0.041-0.006-0.082-0.008-0.124-0.008
			c-0.562,0-1.018,0.457-1.018,1.02C84.939-13.334,85.396-12.877,85.958-12.877"/>
		<path fill="#2EBDEF" d="M85.958-40.668c0.042,0,0.083-0.004,0.124-0.01v-2.02c-0.041-0.004-0.082-0.008-0.124-0.008
			c-0.562,0-1.018,0.457-1.018,1.018C84.939-41.125,85.396-40.668,85.958-40.668"/>
		<path fill="#2EBDEF" d="M85.958-17.51c0.042,0,0.083-0.004,0.124-0.008v-2.02c-0.041-0.006-0.082-0.01-0.124-0.01
			c-0.562,0-1.018,0.457-1.018,1.02S85.396-17.51,85.958-17.51"/>
		<path fill="#2EBDEF" d="M85.958-8.246c0.042,0,0.083-0.004,0.124-0.008v-2.02c-0.041-0.006-0.082-0.01-0.124-0.01
			c-0.562,0-1.018,0.457-1.018,1.018C84.939-8.701,85.396-8.246,85.958-8.246"/>
		<path fill="#2EBDEF" d="M85.958-3.613c0.042,0,0.083-0.004,0.124-0.01v-2.02C86.041-5.648,86-5.65,85.958-5.65
			c-0.562,0-1.018,0.457-1.018,1.018C84.939-4.07,85.396-3.613,85.958-3.613"/>
		<path fill="#2EBDEF" d="M85.958-36.037c0.042,0,0.083-0.004,0.124-0.008v-2.021c-0.041-0.004-0.082-0.008-0.124-0.008
			c-0.562,0-1.018,0.455-1.018,1.02C84.939-36.492,85.396-36.037,85.958-36.037"/>
		<path fill="#2EBDEF" d="M85.958-31.406c0.042,0,0.083-0.002,0.124-0.008v-2.02c-0.041-0.006-0.082-0.008-0.124-0.008
			c-0.562,0-1.018,0.455-1.018,1.018S85.396-31.406,85.958-31.406"/>
		<path fill="#2EBDEF" d="M85.958-26.773c0.042,0,0.083-0.002,0.124-0.008v-2.02c-0.041-0.006-0.082-0.01-0.124-0.01
			c-0.562,0-1.018,0.457-1.018,1.02S85.396-26.773,85.958-26.773"/>
		<path fill="#2EBDEF" d="M86.082,0v-1.01C86.041-1.016,86-1.02,85.958-1.02c-0.563,0-1.018,0.458-1.018,1.02H86.082z"/>
		<path fill="#2EBDEF" d="M54.742-41.688c0-0.561-0.457-1.018-1.018-1.018c-0.562,0-1.018,0.457-1.018,1.018
			c0,0.562,0.456,1.021,1.018,1.021C54.285-40.667,54.742-41.125,54.742-41.688"/>
		<path fill="#2EBDEF" d="M54.742-46.318c0-0.562-0.457-1.02-1.018-1.02c-0.562,0-1.018,0.457-1.018,1.02
			c0,0.562,0.456,1.018,1.018,1.018C54.285-45.301,54.742-45.757,54.742-46.318"/>
		<path fill="#2EBDEF" d="M54.742-69.479c0-0.562-0.457-1.018-1.018-1.018c-0.562,0-1.018,0.456-1.018,1.018
			c0,0.564,0.456,1.018,1.018,1.018C54.285-68.461,54.742-68.914,54.742-69.479"/>
		<path fill="#2EBDEF" d="M54.742-32.424c0-0.562-0.457-1.018-1.018-1.018c-0.562,0-1.018,0.455-1.018,1.018
			c0,0.562,0.456,1.018,1.018,1.018C54.285-31.406,54.742-31.862,54.742-32.424"/>
		<path fill="#2EBDEF" d="M54.742-37.055c0-0.564-0.457-1.02-1.018-1.02c-0.562,0-1.018,0.455-1.018,1.02
			c0,0.562,0.456,1.018,1.018,1.018C54.285-36.037,54.742-36.493,54.742-37.055"/>
		<path fill="#2EBDEF" d="M54.742-60.215c0-0.562-0.457-1.018-1.018-1.018c-0.562,0-1.018,0.455-1.018,1.018
			c0,0.562,0.456,1.018,1.018,1.018C54.285-59.197,54.742-59.653,54.742-60.215"/>
		<path fill="#2EBDEF" d="M54.742-55.582c0-0.562-0.457-1.018-1.018-1.018c-0.562,0-1.018,0.455-1.018,1.018
			c0,0.562,0.456,1.018,1.018,1.018C54.285-54.564,54.742-55.021,54.742-55.582"/>
		<path fill="#2EBDEF" d="M54.742-50.951c0-0.562-0.457-1.018-1.018-1.018c-0.562,0-1.018,0.456-1.018,1.018
			s0.456,1.018,1.018,1.018C54.285-49.934,54.742-50.39,54.742-50.951"/>
		<path fill="#2EBDEF" d="M54.742-27.791c0-0.562-0.457-1.02-1.018-1.02c-0.562,0-1.018,0.458-1.018,1.02
			c0,0.562,0.456,1.018,1.018,1.018C54.285-26.773,54.742-27.229,54.742-27.791"/>
		<path fill="#2EBDEF" d="M60.115-60.215c0-0.562-0.456-1.018-1.018-1.018s-1.019,0.455-1.019,1.018
			c0,0.562,0.457,1.018,1.019,1.018S60.115-59.653,60.115-60.215"/>
		<path fill="#2EBDEF" d="M60.115-74.109c0-0.021-0.003-0.043-0.004-0.062h-2.028c-0.003,0.019-0.005,0.04-0.005,0.062
			c0,0.562,0.457,1.018,1.019,1.018S60.115-73.548,60.115-74.109"/>
		<path fill="#2EBDEF" d="M54.742-4.633c0-0.561-0.457-1.018-1.018-1.018c-0.562,0-1.018,0.457-1.018,1.018
			c0,0.562,0.456,1.021,1.018,1.021C54.285-3.612,54.742-4.07,54.742-4.633"/>
		<path fill="#2EBDEF" d="M60.115-69.479c0-0.562-0.456-1.018-1.018-1.018s-1.019,0.456-1.019,1.018
			c0,0.564,0.457,1.018,1.019,1.018S60.115-68.914,60.115-69.479"/>
		<path fill="#2EBDEF" d="M60.115-64.846c0-0.562-0.456-1.018-1.018-1.018s-1.019,0.456-1.019,1.018
			c0,0.561,0.457,1.018,1.019,1.018S60.115-64.285,60.115-64.846"/>
		<path fill="#2EBDEF" d="M54.742-9.266c0-0.561-0.457-1.018-1.018-1.018c-0.562,0-1.018,0.457-1.018,1.018
			c0,0.564,0.456,1.021,1.018,1.021C54.285-8.245,54.742-8.701,54.742-9.266"/>
		<path fill="#2EBDEF" d="M54.742-18.527c0-0.562-0.457-1.021-1.018-1.021c-0.562,0-1.018,0.458-1.018,1.021
			c0,0.562,0.456,1.018,1.018,1.018C54.285-17.51,54.742-17.966,54.742-18.527"/>
		<path fill="#2EBDEF" d="M54.742-13.895c0-0.562-0.457-1.021-1.018-1.021c-0.562,0-1.018,0.458-1.018,1.021
			c0,0.561,0.456,1.018,1.018,1.018C54.285-12.877,54.742-13.334,54.742-13.895"/>
		<path fill="#2EBDEF" d="M54.742-23.158c0-0.564-0.457-1.02-1.018-1.02c-0.562,0-1.018,0.455-1.018,1.02
			c0,0.561,0.456,1.016,1.018,1.016C54.285-22.143,54.742-22.598,54.742-23.158"/>
		<path fill="#2EBDEF" d="M49.37-50.951c0-0.562-0.455-1.018-1.018-1.018s-1.018,0.456-1.018,1.018s0.455,1.018,1.018,1.018
			S49.37-50.39,49.37-50.951"/>
		<path fill="#2EBDEF" d="M49.37-46.318c0-0.562-0.455-1.02-1.018-1.02s-1.018,0.457-1.018,1.02c0,0.562,0.455,1.018,1.018,1.018
			S49.37-45.757,49.37-46.318"/>
		<path fill="#2EBDEF" d="M49.37-55.582c0-0.562-0.455-1.018-1.018-1.018s-1.018,0.455-1.018,1.018c0,0.562,0.455,1.018,1.018,1.018
			S49.37-55.021,49.37-55.582"/>
		<path fill="#2EBDEF" d="M49.37-41.688c0-0.561-0.455-1.018-1.018-1.018s-1.018,0.457-1.018,1.018c0,0.562,0.455,1.021,1.018,1.021
			S49.37-41.125,49.37-41.688"/>
		<path fill="#2EBDEF" d="M49.37-69.479c0-0.562-0.455-1.018-1.018-1.018s-1.018,0.456-1.018,1.018c0,0.564,0.455,1.018,1.018,1.018
			S49.37-68.914,49.37-69.479"/>
		<path fill="#2EBDEF" d="M49.37-64.846c0-0.562-0.455-1.018-1.018-1.018s-1.018,0.456-1.018,1.018c0,0.561,0.455,1.018,1.018,1.018
			S49.37-64.285,49.37-64.846"/>
		<path fill="#2EBDEF" d="M49.37-37.055c0-0.564-0.455-1.02-1.018-1.02s-1.018,0.455-1.018,1.02c0,0.562,0.455,1.018,1.018,1.018
			S49.37-36.493,49.37-37.055"/>
		<path fill="#2EBDEF" d="M49.37-60.215c0-0.562-0.455-1.018-1.018-1.018s-1.018,0.455-1.018,1.018c0,0.562,0.455,1.018,1.018,1.018
			S49.37-59.653,49.37-60.215"/>
		<path fill="#2EBDEF" d="M49.37-27.791c0-0.562-0.455-1.02-1.018-1.02s-1.018,0.458-1.018,1.02c0,0.562,0.455,1.018,1.018,1.018
			S49.37-27.229,49.37-27.791"/>
		<path fill="#2EBDEF" d="M49.37-13.895c0-0.562-0.455-1.021-1.018-1.021s-1.018,0.458-1.018,1.021c0,0.561,0.455,1.018,1.018,1.018
			S49.37-13.334,49.37-13.895"/>
		<path fill="#2EBDEF" d="M49.37-9.266c0-0.561-0.455-1.018-1.018-1.018s-1.018,0.457-1.018,1.018c0,0.564,0.455,1.021,1.018,1.021
			S49.37-8.701,49.37-9.266"/>
		<path fill="#2EBDEF" d="M49.37-4.633c0-0.561-0.455-1.018-1.018-1.018s-1.018,0.457-1.018,1.018c0,0.562,0.455,1.021,1.018,1.021
			S49.37-4.07,49.37-4.633"/>
		<path fill="#2EBDEF" d="M49.37-32.424c0-0.562-0.455-1.018-1.018-1.018s-1.018,0.455-1.018,1.018c0,0.562,0.455,1.018,1.018,1.018
			S49.37-31.862,49.37-32.424"/>
		<path fill="#2EBDEF" d="M54.742-74.109c0-0.021-0.002-0.043-0.004-0.062h-2.029c-0.002,0.019-0.003,0.04-0.003,0.062
			c0,0.562,0.456,1.018,1.018,1.018C54.285-73.092,54.742-73.548,54.742-74.109"/>
		<path fill="#2EBDEF" d="M54.742-64.846c0-0.562-0.457-1.018-1.018-1.018c-0.562,0-1.018,0.456-1.018,1.018
			c0,0.561,0.456,1.018,1.018,1.018C54.285-63.828,54.742-64.285,54.742-64.846"/>
		<path fill="#2EBDEF" d="M49.37-23.158c0-0.564-0.455-1.02-1.018-1.02s-1.018,0.455-1.018,1.02c0,0.561,0.455,1.016,1.018,1.016
			S49.37-22.598,49.37-23.158"/>
		<path fill="#2EBDEF" d="M49.37-18.527c0-0.562-0.455-1.021-1.018-1.021s-1.018,0.458-1.018,1.021c0,0.562,0.455,1.018,1.018,1.018
			S49.37-17.966,49.37-18.527"/>
		<path fill="#2EBDEF" d="M60.115-41.688c0-0.561-0.456-1.018-1.018-1.018s-1.019,0.457-1.019,1.018
			c0,0.562,0.457,1.021,1.019,1.021S60.115-41.125,60.115-41.688"/>
		<path fill="#2EBDEF" d="M65.486-23.158c0-0.564-0.455-1.02-1.018-1.02c-0.562,0-1.018,0.455-1.018,1.02
			c0,0.561,0.456,1.016,1.018,1.016C65.031-22.143,65.486-22.598,65.486-23.158"/>
		<path fill="#2EBDEF" d="M65.486-18.527c0-0.562-0.455-1.021-1.018-1.021c-0.562,0-1.018,0.458-1.018,1.021
			c0,0.562,0.456,1.018,1.018,1.018C65.031-17.51,65.486-17.966,65.486-18.527"/>
		<path fill="#2EBDEF" d="M65.486-27.791c0-0.562-0.455-1.02-1.018-1.02c-0.562,0-1.018,0.458-1.018,1.02
			c0,0.562,0.456,1.018,1.018,1.018C65.031-26.773,65.486-27.229,65.486-27.791"/>
		<path fill="#2EBDEF" d="M65.486-13.895c0-0.562-0.455-1.021-1.018-1.021c-0.562,0-1.018,0.458-1.018,1.021
			c0,0.561,0.456,1.018,1.018,1.018C65.031-12.877,65.486-13.334,65.486-13.895"/>
		<path fill="#2EBDEF" d="M65.486-37.055c0-0.564-0.455-1.02-1.018-1.02c-0.562,0-1.018,0.455-1.018,1.02
			c0,0.562,0.456,1.018,1.018,1.018C65.031-36.037,65.486-36.493,65.486-37.055"/>
		<path fill="#2EBDEF" d="M65.486-41.688c0-0.561-0.455-1.018-1.018-1.018c-0.562,0-1.018,0.457-1.018,1.018
			c0,0.562,0.456,1.021,1.018,1.021C65.031-40.667,65.486-41.125,65.486-41.688"/>
		<path fill="#2EBDEF" d="M65.486-9.266c0-0.561-0.455-1.018-1.018-1.018c-0.562,0-1.018,0.457-1.018,1.018
			c0,0.564,0.456,1.021,1.018,1.021C65.031-8.245,65.486-8.701,65.486-9.266"/>
		<path fill="#2EBDEF" d="M65.486-32.424c0-0.562-0.455-1.018-1.018-1.018c-0.562,0-1.018,0.455-1.018,1.018
			c0,0.562,0.456,1.018,1.018,1.018C65.031-31.406,65.486-31.862,65.486-32.424"/>
		<path fill="#2EBDEF" d="M70.859-55.582c0-0.562-0.456-1.018-1.018-1.018s-1.017,0.455-1.017,1.018
			c0,0.562,0.455,1.018,1.017,1.018S70.859-55.021,70.859-55.582"/>
		<path fill="#2EBDEF" d="M65.486-46.318c0-0.562-0.455-1.02-1.018-1.02c-0.562,0-1.018,0.457-1.018,1.02
			c0,0.562,0.456,1.018,1.018,1.018C65.031-45.301,65.486-45.757,65.486-46.318"/>
		<path fill="#2EBDEF" d="M70.859-50.951c0-0.562-0.456-1.018-1.018-1.018s-1.017,0.456-1.017,1.018s0.455,1.018,1.017,1.018
			S70.859-50.39,70.859-50.951"/>
		<path fill="#2EBDEF" d="M60.115-55.582c0-0.562-0.456-1.018-1.018-1.018s-1.019,0.455-1.019,1.018
			c0,0.562,0.457,1.018,1.019,1.018S60.115-55.021,60.115-55.582"/>
		<path fill="#2EBDEF" d="M65.486-4.633c0-0.561-0.455-1.018-1.018-1.018c-0.562,0-1.018,0.457-1.018,1.018
			c0,0.562,0.456,1.021,1.018,1.021C65.031-3.612,65.486-4.07,65.486-4.633"/>
		<path fill="#2EBDEF" d="M70.859-60.215c0-0.562-0.456-1.018-1.018-1.018s-1.017,0.455-1.017,1.018
			c0,0.562,0.455,1.018,1.017,1.018S70.859-59.653,70.859-60.215"/>
		<path fill="#2EBDEF" d="M70.859-74.109c0-0.021-0.003-0.043-0.003-0.062h-2.029c-0.003,0.019-0.003,0.04-0.003,0.062
			c0,0.562,0.455,1.018,1.017,1.018S70.859-73.548,70.859-74.109"/>
		<path fill="#2EBDEF" d="M70.859-69.479c0-0.562-0.456-1.018-1.018-1.018s-1.017,0.456-1.017,1.018
			c0,0.564,0.455,1.018,1.017,1.018S70.859-68.914,70.859-69.479"/>
		<path fill="#2EBDEF" d="M70.859-64.846c0-0.562-0.456-1.018-1.018-1.018s-1.017,0.456-1.017,1.018
			c0,0.561,0.455,1.018,1.017,1.018S70.859-64.285,70.859-64.846"/>
		<path fill="#2EBDEF" d="M70.859-46.318c0-0.562-0.456-1.02-1.018-1.02s-1.017,0.457-1.017,1.02c0,0.562,0.455,1.018,1.017,1.018
			S70.859-45.757,70.859-46.318"/>
		<path fill="#2EBDEF" d="M60.115-27.791c0-0.562-0.456-1.02-1.018-1.02s-1.019,0.458-1.019,1.02c0,0.562,0.457,1.018,1.019,1.018
			S60.115-27.229,60.115-27.791"/>
		<path fill="#2EBDEF" d="M60.115-18.527c0-0.562-0.456-1.021-1.018-1.021s-1.019,0.458-1.019,1.021
			c0,0.562,0.457,1.018,1.019,1.018S60.115-17.966,60.115-18.527"/>
		<path fill="#2EBDEF" d="M60.115-32.424c0-0.562-0.456-1.018-1.018-1.018s-1.019,0.455-1.019,1.018
			c0,0.562,0.457,1.018,1.019,1.018S60.115-31.862,60.115-32.424"/>
		<path fill="#2EBDEF" d="M60.115-23.158c0-0.564-0.456-1.02-1.018-1.02s-1.019,0.455-1.019,1.02c0,0.561,0.457,1.016,1.019,1.016
			S60.115-22.598,60.115-23.158"/>
		<path fill="#2EBDEF" d="M60.115-37.055c0-0.564-0.456-1.02-1.018-1.02s-1.019,0.455-1.019,1.02c0,0.562,0.457,1.018,1.019,1.018
			S60.115-36.493,60.115-37.055"/>
		<path fill="#2EBDEF" d="M60.115-50.951c0-0.562-0.456-1.018-1.018-1.018s-1.019,0.456-1.019,1.018s0.457,1.018,1.019,1.018
			S60.115-50.39,60.115-50.951"/>
		<path fill="#2EBDEF" d="M60.115-46.318c0-0.562-0.456-1.02-1.018-1.02s-1.019,0.457-1.019,1.02c0,0.562,0.457,1.018,1.019,1.018
			S60.115-45.757,60.115-46.318"/>
		<path fill="#2EBDEF" d="M70.859-41.688c0-0.561-0.456-1.018-1.018-1.018s-1.017,0.457-1.017,1.018
			c0,0.562,0.455,1.021,1.017,1.021S70.859-41.125,70.859-41.688"/>
		<path fill="#2EBDEF" d="M60.115-13.895c0-0.562-0.456-1.021-1.018-1.021s-1.019,0.458-1.019,1.021
			c0,0.561,0.457,1.018,1.019,1.018S60.115-13.334,60.115-13.895"/>
		<path fill="#2EBDEF" d="M65.486-60.215c0-0.562-0.455-1.018-1.018-1.018c-0.562,0-1.018,0.455-1.018,1.018
			c0,0.562,0.456,1.018,1.018,1.018C65.031-59.197,65.486-59.653,65.486-60.215"/>
		<path fill="#2EBDEF" d="M65.486-50.951c0-0.562-0.455-1.018-1.018-1.018c-0.562,0-1.018,0.456-1.018,1.018
			s0.456,1.018,1.018,1.018C65.031-49.934,65.486-50.39,65.486-50.951"/>
		<path fill="#2EBDEF" d="M65.486-69.479c0-0.562-0.455-1.018-1.018-1.018c-0.562,0-1.018,0.456-1.018,1.018
			c0,0.564,0.456,1.018,1.018,1.018C65.031-68.461,65.486-68.914,65.486-69.479"/>
		<path fill="#2EBDEF" d="M65.486-55.582c0-0.562-0.455-1.018-1.018-1.018c-0.562,0-1.018,0.455-1.018,1.018
			c0,0.562,0.456,1.018,1.018,1.018C65.031-54.564,65.486-55.021,65.486-55.582"/>
		<path fill="#2EBDEF" d="M65.486-64.846c0-0.562-0.455-1.018-1.018-1.018c-0.562,0-1.018,0.456-1.018,1.018
			c0,0.561,0.456,1.018,1.018,1.018C65.031-63.828,65.486-64.285,65.486-64.846"/>
		<path fill="#2EBDEF" d="M65.486-74.109c0-0.021-0.002-0.043-0.003-0.062h-2.03c0,0.019-0.003,0.04-0.003,0.062
			c0,0.562,0.456,1.018,1.018,1.018C65.031-73.092,65.486-73.548,65.486-74.109"/>
		<path fill="#2EBDEF" d="M60.115-9.266c0-0.561-0.456-1.018-1.018-1.018s-1.019,0.457-1.019,1.018c0,0.564,0.457,1.021,1.019,1.021
			S60.115-8.701,60.115-9.266"/>
		<path fill="#2EBDEF" d="M60.115-4.633c0-0.561-0.456-1.018-1.018-1.018s-1.019,0.457-1.019,1.018c0,0.562,0.457,1.021,1.019,1.021
			S60.115-4.07,60.115-4.633"/>
	</g>
</pattern>
<polygon fill="#82CFF5" points="611.861,488.812 1097.648,493.604 1112.031,0 610.358,9.536 "/>
<pattern  id="SVGID_1_" xlink:href="#Unnamed_Pattern_9" patternTransform="matrix(1 0 0 -1 -2605.6572 1903.3105)">
</pattern>
<polyline fill="url(#SVGID_1_)" points="1103.584,205.903 1110.251,0.34 608.251,7.543 614.251,109.494 "/>
<g>
	<path fill="#0E8CCD" d="M815.917,410.972c-0.046,0.051-0.129-0.027-0.245-0.222C815.981,410.717,816.091,410.782,815.917,410.972z"
		/>
</g>
<g>
</g>
<g>
</g>
<g>
</g>
<g>
</g>
<g>
</g>
<g>
</g>
</svg>
