<?xml version="1.0" encoding="utf-8"?>
<!-- Generator: Adobe Illustrator 16.0.4, SVG Export Plug-In . SVG Version: 6.00 Build 0)  -->
<!DOCTYPE svg PUBLIC "-//W3C//DTD SVG 1.1//EN" "http://www.w3.org/Graphics/SVG/1.1/DTD/svg11.dtd">
<svg version="1.1" id="Layer_1" xmlns="http://www.w3.org/2000/svg" xmlns:xlink="http://www.w3.org/1999/xlink" x="0px" y="0px"
	 width="1112.031px" height="522.383px" viewBox="0 0 1112.031 522.383" enable-background="new 0 0 1112.031 522.383"
	 xml:space="preserve">
<g>
	<path fill="#0E8CCD" d="M815.917,410.972c-0.046,0.051-0.129-0.027-0.244-0.222C815.981,410.717,816.092,410.782,815.917,410.972z"
		/>
</g>
<g>
	<g>
		<g>
			<path fill="#0E8CCD" d="M693.719,122.081c0,0-0.12-23.093-0.67-25.118c-0.553-2.026,7.021-2.405,8.121-0.888
				c0.684,0.944,3.129,23.842,2.331,24.783C701.707,122.978,693.719,122.081,693.719,122.081z"/>
			<path fill="#0E8CCD" d="M690.362,93.485c0.243,0.23,13.377,0.552,12.905,0.316c-0.891-0.445,3.146-7.85,3.146-13.613
				c0-5.762-2.991-9.963-9.743-9.963C689.919,70.226,683.753,87.271,690.362,93.485z"/>
			<g>
				<g>
					<path fill="#C5843D" d="M693.178,80.943c-0.012,0.012-0.02,0.021-0.026,0.028C693.159,80.964,693.169,80.955,693.178,80.943z"
						/>
					<path fill="#C5843D" d="M694.108,79.952c0.018-0.017,0.031-0.032,0.042-0.043C694.142,79.92,694.126,79.933,694.108,79.952z"/>
					<path fill="#FFFFFF" d="M690.069,83.315c0.302,0.012,0.629,0.108,0.914,0.268c0.093,0.021,0.188,0.05,0.283,0.088
						c0.199,0.08,0.377,0.209,0.555,0.32c0.037,0.024,0.079,0.046,0.117,0.069c-0.002-0.011-0.006-0.02-0.009-0.03
						c-0.147-0.777,0.082-1.546,0.069-2.329c-0.006-0.375,0-0.735,0.021-1.09c1.952-0.157,3.908-0.257,5.864-0.255
						c1.604,0,3.247-0.064,4.848,0.05c0.877,0.062,1.726,0.13,2.574,0.021c0.118,0,0.235,0.008,0.354,0.006
						c0.315,1.277,0.86,2.486,1.619,3.598c0.677,1.18,1.482,2.347,1.421,3.648c-0.094,1.928-7.869,3.398-9.402,3.904
						c-1.799,0.591,1.065,5.901-2.565,4.604c-0.592-0.211,0.452-4.77,0.062-4.89c-0.771-0.101-4.761-3.419-5.38-3.826
						c-0.812-0.447-1.76-0.947-2.258-1.693c-0.005-0.004-0.01-0.008-0.014-0.014c-0.107-0.138-0.176-0.28-0.212-0.422
						c-0.06-0.157-0.101-0.323-0.114-0.5C688.765,84.249,689.329,83.29,690.069,83.315z"/>
					<path fill="#C5843D" d="M694.15,79.909C694.172,79.887,694.171,79.89,694.15,79.909L694.15,79.909z"/>
				</g>
				<path fill="#C5843D" d="M693.151,80.972C693.131,80.994,693.131,80.994,693.151,80.972L693.151,80.972z"/>
			</g>
			
				<ellipse transform="matrix(0.1096 0.994 -0.994 0.1096 710.5604 -625.2116)" fill="none" stroke="#020303" stroke-width="0.3009" stroke-miterlimit="10" cx="704.244" cy="83.996" rx="0.949" ry="0.609"/>
			
				<ellipse fill="none" stroke="#020303" stroke-width="0.3009" stroke-miterlimit="10" cx="696.673" cy="84.499" rx="0.609" ry="0.949"/>
			<path fill="#FFFFFF" d="M695.914,100.932"/>
			<g>
				<path fill="#FFFFFF" d="M701.301,83.116c-0.146,1.045,0.031,1.285,0.322,2.271c0.438-0.059,0.85-0.078,1.139-0.312
					c1.034,1.905-0.662,1.694-1.461,1.637"/>
				<g>
					<path fill="#020304" d="M701.162,83.116c-0.103,0.852,0.083,1.499,0.329,2.308c0.017,0.053,0.071,0.108,0.132,0.101
						c0.354-0.044,0.689-0.079,1.021-0.216c0.288-0.12,0.327,0.925,0.171,1.099c-0.312,0.347-1.104,0.199-1.514,0.168
						c-0.177-0.013-0.177,0.261,0,0.274c0.53,0.04,1.133,0.118,1.608-0.17c0.602-0.363,0.2-1.223-0.029-1.673
						c-0.032-0.064-0.127-0.088-0.188-0.049c-0.285,0.185-0.519,0.221-0.853,0.266c-0.21,0.028-0.289-0.535-0.329-0.667
						c-0.146-0.482-0.133-0.946-0.072-1.44C701.458,82.941,701.184,82.943,701.162,83.116L701.162,83.116z"/>
				</g>
			</g>
			<path fill="#0E8CCD" d="M702.346,120.601c0.312,0.36,6.438,7.719-0.843,10.206c-7.283,2.485-7.283,2.485-7.283,2.485
				l-0.406,9.766c0,0,3.542,2.297,3.67-0.26c0.126-2.559-1.145-8.061-1.145-8.061s10.385-1.506,10.433-6.57
				c0.046-5.066-3.213-9.3-3.213-9.3"/>
			<path fill="#0E8CCD" d="M697.101,118.022c-0.15,0.451-3.314,9.49-9.189,4.519s-5.875-4.971-5.875-4.971l-8.587,4.669
				c0,0-0.149,4.219,2.109,3.014s6.327-5.122,6.327-5.122s6.627,8.136,10.997,5.573c4.369-2.561,6.327-7.531,6.327-7.531"/>
		</g>
		<path fill="#FFFFFF" d="M693.722,98.622c0,0-6.74,0.188-12.921-6.742c-6.181-6.93-4.12-8.24-4.12-8.24s2.246-1.498,3.184-2.996
			s-0.937-2.247-0.937-2.247s-0.749,2.061-1.687,2.997c-0.936,0.936-1.497-6.742-1.497-6.742l-2.061,0.374l-0.146,1.057
			c0,0-0.763,0.952-1.017,1.397c-0.254,0.443,1.649,5.775,1.904,6.664c0.254,0.889,7,16.051,18.278,16.755
			C694.737,101.025,693.722,98.755,693.722,98.622z"/>
		<path fill="#FFFFFF" d="M699.45,96.663c0,0,6.74,0.188,12.921-6.742c6.181-6.93,4.12-8.239,4.12-8.239s-2.246-1.499-3.184-2.997
			s0.937-2.247,0.937-2.247s0.749,2.062,1.686,2.997c0.937,0.936,1.498-6.742,1.498-6.742l2.061,0.375l0.146,1.057
			c0,0,0.763,0.952,1.017,1.396c0.254,0.443-1.648,5.775-1.904,6.664c-0.254,0.889-7,16.051-18.278,16.756
			C698.435,99.067,699.45,96.797,699.45,96.663z"/>
		<g>
			<g>
				<path fill="#1E1E1C" d="M697.812,87.29c0.67,1.894,2.502,2.496,4.091,1.223c0.192-0.154-0.08-0.423-0.271-0.271
					c-1.362,1.092-2.884,0.546-3.45-1.054C698.1,86.958,697.729,87.057,697.812,87.29L697.812,87.29z"/>
			</g>
		</g>
	</g>
</g>
</svg>
