<?xml version="1.0" encoding="utf-8"?>
<!-- Generator: Adobe Illustrator 16.0.4, SVG Export Plug-In . SVG Version: 6.00 Build 0)  -->
<!DOCTYPE svg PUBLIC "-//W3C//DTD SVG 1.1//EN" "http://www.w3.org/Graphics/SVG/1.1/DTD/svg11.dtd">
<svg version="1.1" id="Layer_1" xmlns="http://www.w3.org/2000/svg" xmlns:xlink="http://www.w3.org/1999/xlink" x="0px" y="0px"
	 width="1112.031px" height="522.384px" viewBox="0 0 1112.031 522.384" enable-background="new 0 0 1112.031 522.384"
	 xml:space="preserve">
<g>
	<path fill="#0E8CCD" d="M815.917,410.972c-0.046,0.051-0.129-0.027-0.245-0.222C815.981,410.717,816.091,410.782,815.917,410.972z"
		/>
</g>
<g>
	<path fill="#FFFFFF" d="M1002.838,352.092c0.022,2.411,0.477,5,1.223,7.664c3.552,0.284,7.104,2.111,10.657,3.225
		c-1.649-4.096-2.739-7.545-2.788-9.66c-0.125-5.58,6.098-27.479,10.062-37.031c-2.771-1.972-5.358-4.439-9.002-5.332
		C1008.336,323.361,1002.738,341.373,1002.838,352.092z"/>
	<path fill="#FFFFFF" d="M1027.911,352.65c0.717-8.576,11.448-20.728,15.722-30.34c-6.084-1.003-12.242-1.914-18.09-4.084
		c-1.309,9.658-6.513,27.547-6.499,34.959c0.003,1.912,1.278,4.881,3.333,8.437c4.293,0.793,8.722,6.8,13.147,6.255
		C1034.227,364.67,1027.736,354.754,1027.911,352.65z"/>
	<path fill="#FFFFFF" d="M1037.551,229.246c1.92,11.589-3.044,15.384-6.266,13.158c-3.944-2.726-45.637-19.312-47.617-23.809
		c-1.981-4.497,23.655-43.437,23.655-43.437s3.378-7.758,4.028-8.6c5.361-6.911,5.939-12.656,8.563-14.543
		s13.691-3.115,14.568-1.695c0.877,1.422-1.632,1.434-5.213,2.104c-3.583,0.669-5.981,1.674-5.981,1.674s-2.688,4.245-1.354,5.237
		c1.336,0.988-0.92-0.119-0.92-0.119l7.814-5.174l11.025-0.679c0,0-0.273,3.386-1.776,3.548c-1.503,0.158-7.052,0.893-7.052,0.893
		s-3.729,2.779-5.375,5.051c-1.615,2.225,5.521-2.51,7.557-2.263c2.099,0.254,5.98,2.181,5.991,2.548
		c0.099,3.123-5.076,0.87-7.81,1.316l-4.781,2.312c0,0-3.715,10.037-7.153,11.293l-8.577,5.498c0,0-14.315,31.098-10.293,33.153
		C1018.745,225.998,1037.426,228.492,1037.551,229.246z"/>
	<path fill="#110906" d="M988.488,403.127c10.316,9.854,43.268-3.44,44.388-2.809c0.144,0.08-1.354-4.538-1.324-4.635
		c-3.598-0.862-4.87,1.987-8.275,0.331C1013.638,395.885,982.135,397.058,988.488,403.127z"/>
	<path fill="#0E8CCD" d="M1025.151,396.278c0.126,0.19,0.821-0.566-1.213-0.595c3.405,1.656,2.361,0.131,5.959,0.993
		c0.471-1.511-10.827-23.854-16.552-38.068c-3.642,2.317-5.733,1.432-9.285,1.147
		C1008.623,376.055,1024.53,395.334,1025.151,396.278z"/>
	<path fill="#110906" d="M1050.826,308.385c0,0-32.749-10.811-32.908-10.668c-0.667,0.584-7.991,11.812-11.986,24.319
		c3.644,0.893,11.939,1.843,14.711,3.814c1.153-2.778,3.664-12.69,4.224-12.673c1.3,0.04-3.648,12.68-2.779,13.027
		c7.469,0.521,15.05,3.79,21.019,6.774C1046.648,325.012,1050.826,308.385,1050.826,308.385z"/>
	<path fill="#0E8CCD" d="M1062.51,403.965c-5.293-8.199-24.145-28.474-29.634-42.046c-3.383,2.432-2.647,1.324-10.499-0.297
		c7.977,13.804,27.901,36.581,32.662,41.952C1057.479,403.523,1059.993,403.713,1062.51,403.965z"/>
	<path fill="#110906" d="M1055.039,403.574c0.663,0.748,1.037,1.164,1.037,1.164s-49.502,1.316-36.657,10.31
		c11.394,7.978,43.306-8.081,44.435-7.687c0.816,0.283,0.191-1.016-1.344-3.396C1059.993,403.713,1057.479,403.523,1055.039,403.574
		z"/>
	<path fill="#0E8CCD" d="M1057.826,239.191c3.504,14.315,8.652,16.697-6.062,71.489c-1.036,3.876-41.324-9.376-39.214-11.532
		c14.027-14.326,11.454-32.452,10.72-44.963c-0.604-10.346,4.147-32.826,14.814-33.104
		C1048.275,220.814,1055.353,229.096,1057.826,239.191z"/>
	<path fill="#110906" d="M1064.796,195.936c0,0-7.431,7.459-0.48,13.582c6.948,6.121,7.256,3.797,7.256,3.797
		s-6.97,6.527-12.271,3.475c-5.302-3.051-3.442-6.356-3.442-6.356s-3.203,6.895-1.179,8.204c2.026,1.312-10.378,0.913-10.684-4.832
		c-0.307-5.742,10.055-20.951,10.607-20.847C1055.159,193.068,1064.796,195.936,1064.796,195.936"/>
	<path fill="#FFFFFF" d="M1061.561,177.186c0.082-0.475,0.167-0.949,0.229-1.43c1.061-8.703-5.885-14.805-13.016-18.936
		c-7.065-4.092-16.887-6.978-24.812-3.543c-7.386,3.201-8.591,13.064-9.699,19.725c-0.783,4.67-1.979,9.186-3.295,13.75
		c-0.367,1.258-0.741,2.591-1.076,3.956c-0.786,1.479-5.59,22.585,6.585,22.718c4.315,0.048,8.59-0.111,12.821-0.414
		c6.332-0.445,5.323,8.537,4.202,11.053c-0.627,1.402-4.215,6.045-3.023,6.257c0.819,0.147,16.267-4.259,16.063-4.767
		c-3.89-9.718-0.006-10.721,2.412-15.342c2.531-2.849,4.896-5.59,6.63-9.1c1.825-3.709,3.384-7.528,4.602-11.457
		C1061.423,185.646,1062.093,181.312,1061.561,177.186z"/>
	<path fill="#110906" d="M1039.324,160.772c-0.589,0.069-0.75,9.721,4.899,17.423c5.653,7.701,4.968,14.008,2.381,21.142
		c-0.136,0.376,10.105-4.038,11.777-11.851c0.178-0.822,0.817,6.894-1.345,9.143c-2.164,2.249,16.276,2.663,13.104-17.262
		c-3.175-19.926-10.885-19.766-10.885-19.766s5.688-2.391,11.082,5.627c0,0-1.953-9.729-10.691-11.98
		c-17.863-4.607-20.674,0.554-20.674,0.554"/>
	<path fill="#FFFFFF" d="M1058.247,188.401c0.915-0.366,1.894-0.601,2.926-0.641c0.772-0.034,1.54,0.12,2.238,0.425
		c1.967,0.428,3.322,2.009,2.898,4.861c-0.343,2.287-1.709,4.076-3.57,5.25c-0.589,0.52-1.242,1-1.961,1.43
		c-2.076,1.246-4.764,2.633-7.299,2c-0.8-0.201-1.221-0.756-1.343-1.364c-0.812-0.265-1.511-0.78-1.812-1.474
		C1053.819,196.126,1056.065,192.277,1058.247,188.401z"/>
	<path fill="none" stroke="#1E1E1C" stroke-width="0.8718" stroke-miterlimit="10" d="M1017.734,181.945
		c-0.325,1.52-1.252,2.615-2.07,2.46c-0.818-0.162-1.22-1.522-0.893-3.037c0.323-1.518,1.252-2.619,2.068-2.459
		C1017.658,179.067,1018.059,180.428,1017.734,181.945z"/>
	<path fill="none" stroke="#1E1E1C" stroke-width="0.8718" stroke-miterlimit="10" d="M1034.386,185.949
		c-0.327,1.516-0.047,1.17-2.129,1.046c-0.831-0.048-1.158-0.104-0.829-1.622c0.32-1.52,1.247-2.619,2.065-2.461
		C1034.311,183.074,1034.71,184.432,1034.386,185.949z"/>
	<path fill="none" stroke="#1E1E1C" stroke-width="1.7399" stroke-miterlimit="10" d="M1029.611,181.604c0,0-5.014,7.605-0.861,9.43
		c4.158,1.826,11.984,5.937,13.783,2.504c1.8-3.434,4.545-6.775-0.63-9.26C1036.729,181.789,1031.291,179.623,1029.611,181.604z"/>
	<path fill="none" stroke="#1E1E1C" stroke-width="1.7399" stroke-miterlimit="10" d="M1023.479,180.507
		c0,0-1.188,8.504-4.567,8.148c-3.382-0.353-9.864-2.312-8.968-5.993c0.896-3.68-0.196-6.016,4.131-5.75
		C1018.4,177.177,1023.63,178.1,1023.479,180.507z"/>
	<g>
		<path fill="#FFFFFF" d="M1026.167,182.316c0.058,0.197-7.956,5.973-13.199,9.157c1.591,1.606,6.492,4.612,8.63,5.03"/>
		<g>
			<path fill="#1E1E1C" d="M1025.791,182.097c-0.285,0.524-1.211,0.96-1.679,1.307c-1.092,0.81-2.203,1.593-3.315,2.374
				c-2.633,1.847-5.307,3.64-8.049,5.321c-0.233,0.143-0.295,0.486-0.088,0.683c2.343,2.226,5.659,4.37,8.822,5.142
				c0.545,0.133,0.775-0.706,0.23-0.839c-2.981-0.728-6.229-2.821-8.438-4.918c-0.029,0.228-0.059,0.456-0.088,0.683
				c3.11-1.907,6.128-3.962,9.108-6.067c1.151-0.813,3.535-1.942,4.247-3.246C1026.812,182.043,1026.06,181.604,1025.791,182.097
				L1025.791,182.097z"/>
		</g>
	</g>
	<g>
		<g>
			<path fill="#1E1E1C" d="M1061.416,190.534c-1.497,0.411-4.098,1.155-4.91,2.636c-0.96,1.75,1.739,2.1,2.86,2.241
				c-0.14-0.184-0.279-0.367-0.42-0.551c-0.375,1.607-3.126,1.978-4.245,2.984c-1.294,1.165,0.78,2.378,1.63,2.827
				c0.496,0.262,0.936-0.489,0.439-0.751c-0.751-0.396-2.199-1.025-1.013-1.79c0.559-0.36,1.195-0.612,1.79-0.904
				c0.932-0.457,1.984-1.049,2.238-2.134c0.07-0.301-0.136-0.515-0.42-0.551c-0.135-0.017-2.699-0.179-2.026-1.035
				c0.306-0.39,0.796-0.645,1.215-0.892c0.957-0.562,2.025-0.948,3.092-1.241C1062.188,191.224,1061.958,190.385,1061.416,190.534
				L1061.416,190.534z"/>
		</g>
	</g>
	<g>
		<g>
			<path fill="#1E1E1C" d="M1024.438,181.409c0.805-1.17,3.23,0.496,3.697,1.3c0.563,0.97,2.067,0.094,1.502-0.878
				c-1.196-2.059-5.058-3.691-6.701-1.3C1022.299,181.458,1023.808,182.327,1024.438,181.409L1024.438,181.409z"/>
		</g>
	</g>
	<path fill="#110906" d="M1048.029,167.592c-1.106-0.217-14.621-10.535-26.064,2.604c-11.566,13.285-18.423,9.037-18.423,9.037
		s7.112-0.082,8.781-10.549c1.888-11.881,12.356-29.98,27.814-17.087C1055.596,164.492,1048.029,167.592,1048.029,167.592z"/>
	<path fill="none" stroke="#1E1E1C" stroke-width="1.7399" stroke-miterlimit="10" d="M1044.408,187.362
		c0.904,0.178,10.145-0.278,10.145-0.278"/>
	<g>
		<g>
			<path fill="#110906" d="M1041.431,180.554c-0.648-4.072-3.771-9.75-8.656-7.548c-0.502,0.227-0.066,0.962,0.432,0.738
				c4.309-1.942,6.86,3.647,7.4,7.038C1040.693,181.325,1041.517,181.093,1041.431,180.554L1041.431,180.554z"/>
		</g>
	</g>
	<g>
		<g>
			<path fill="#110906" d="M1025.405,170.781c-2.356,1.062-4.878,1.562-7.399,2.061c-0.541,0.107-0.312,0.931,0.227,0.824
				c2.602-0.515,5.175-1.052,7.604-2.146C1026.339,171.293,1025.903,170.557,1025.405,170.781L1025.405,170.781z"/>
		</g>
	</g>
	<g>
		<g>
			<path fill="#110906" d="M1020.075,199.987c2.622-0.426,5.277-0.324,7.822,0.452c0.946,0.289,1.844,0.701,2.678,1.231
				c2.48,1.577-0.741,1.883-1.483,1.895c-3.062,0.049-5.983-1.02-8.998-1.329c-0.548-0.056-0.543,0.799,0,0.854
				c2.244,0.23,4.453,0.865,6.693,1.161c1.164,0.153,4.584,0.74,5.261-0.812c0.72-1.648-1.189-2.736-2.465-3.272
				c-3.104-1.305-6.42-1.542-9.734-1.004C1019.306,199.251,1019.536,200.075,1020.075,199.987L1020.075,199.987z"/>
		</g>
	</g>
	<path fill="#0E8CCD" d="M1047.292,224.4c0,0,8.116,1.623,13.526,4.598c5.527,3.039,1.894,15.15,1.894,15.15
		s-6.471,10.404-17.952,3.424C1033.277,240.594,1047.292,224.4,1047.292,224.4z"/>
	<path fill="#FFFFFF" d="M1055.266,229.441c-2.976,11.361,2.127,17.1,5.539,15.178c4.179-2.352,41.183-17.818,43.567-22.113
		c2.386-4.295-31.723-40.203-31.723-40.203s-1.329-9.352-1.902-10.248c-4.702-7.375-4.751-13.147-7.19-15.268
		c-2.438-2.119-13.347-4.36-14.352-3.025c-1.002,1.334,1.493,1.578,4.998,2.574c3.508,0.994,5.805,2.213,5.805,2.213
		s2.285,4.477,0.865,5.341c-1.42,0.862,0.929-0.034,0.929-0.034l-7.307-5.869l-10.917-1.688c0,0-0.039,3.396,1.442,3.695
		c1.483,0.297,6.94,1.537,6.94,1.537s3.457,3.11,4.89,5.521c1.404,2.365-5.269-3.004-7.318-2.945
		c-2.112,0.059-6.155,1.621-6.2,1.986c-0.386,3.102,4.977,1.332,7.656,2.027l4.55,2.742c0,0,2.777,10.336,6.085,11.902l5.137,2.836
		c0,0,25.846,31.439,21.652,33.116C1069.477,226.294,1055.459,228.701,1055.266,229.441z"/>
	<path fill="#0E8CCD" d="M1055.062,226.861c0.099-0.324,7.83,0.33,7.83,0.33s0.907,17.801,5.521,16.978s-10.549,4.532-10.549,4.532
		S1051.107,239.965,1055.062,226.861z"/>
	<g>
		<g>
			<path fill="#110906" d="M1024.799,394.87c-2.944,0.937-6.061-0.926-8.289-2.705c-1.19-0.951-2.198-2.12-2.978-3.425
				c-0.118-0.198-0.807-1.576-0.528-1.65c0.871-0.232,1.771-0.07,2.608,0.19c4.785,1.485,6.703,7.822,10.723,10.49
				c0.502,0.334,0.95-0.376,0.605-0.785c-2.519-2.991-1.82-8.198,1.38-10.455c2.45-1.728,8.336,0.651,5.679,3.869
				c-3.107,3.763-8.396,4.865-12.299,7.501c-0.531,0.358-0.031,1.226,0.504,0.863c2.906-1.963,6.327-3.151,9.295-5.051
				c1.921-1.229,5.298-3.519,4.014-6.216c-1.577-3.314-6.639-3.071-8.862-0.854c-2.852,2.843-2.95,8.041-0.417,11.05
				c0.202-0.262,0.404-0.523,0.605-0.785c-4.735-3.145-7.572-12.525-14.619-10.644c-0.193,0.052-0.396,0.268-0.367,0.482
				c0.686,5.142,8.049,10.729,13.212,9.089C1025.677,395.64,1025.415,394.675,1024.799,394.87L1024.799,394.87z"/>
		</g>
	</g>
	<g>
		<g>
			<path fill="#110906" d="M1055.188,404.801c-3.506-1.414-7.132-2.515-10.526-4.198c-1.839-0.911-3.506-2.089-4.938-3.56
				c-1.386-1.424,2.497-1.689,3.419-1.453c4.921,1.262,6.469,7.812,11.117,9.514c0.303,0.11,0.643-0.176,0.633-0.482
				c-0.156-4.847,2.931-10.126,8.115-10.58c1.135-0.1,3.7,0.161,4.438,1.321c0.504,0.792-1.527,2.066-1.965,2.364
				c-4.112,2.804-9.176,4.51-13.869,6.081c-0.608,0.204-0.348,1.17,0.266,0.965c2.921-0.979,5.8-2.093,8.622-3.326
				c2.321-1.015,6.835-2.56,7.854-5.209c1.114-2.897-4.555-3.39-6.102-3.124c-5.328,0.916-8.523,6.369-8.358,11.508
				c0.211-0.161,0.422-0.321,0.633-0.482c-3.33-1.219-5.517-5.559-8.152-7.804c-2.614-2.228-5.501-2.498-8.224-0.343
				c-0.232,0.184-0.151,0.513,0,0.707c4.061,5.212,10.936,6.712,16.772,9.066C1055.521,406.007,1055.778,405.039,1055.188,404.801
				L1055.188,404.801z"/>
		</g>
	</g>
</g>
<g>
</g>
<g>
</g>
<g>
</g>
<g>
</g>
<g>
</g>
<g>
</g>
</svg>
