<?xml version="1.0" encoding="utf-8"?>
<!-- Generator: Adobe Illustrator 16.0.4, SVG Export Plug-In . SVG Version: 6.00 Build 0)  -->
<!DOCTYPE svg PUBLIC "-//W3C//DTD SVG 1.1//EN" "http://www.w3.org/Graphics/SVG/1.1/DTD/svg11.dtd">
<svg version="1.1" id="Layer_1" xmlns="http://www.w3.org/2000/svg" xmlns:xlink="http://www.w3.org/1999/xlink" x="0px" y="0px"
	 width="1112.031px" height="522.384px" viewBox="0 0 1112.031 522.384" enable-background="new 0 0 1112.031 522.384"
	 xml:space="preserve">
<g>
	<path fill="#0E8CCD" d="M815.917,410.972c-0.046,0.051-0.129-0.027-0.245-0.222C815.981,410.717,816.091,410.782,815.917,410.972z"
		/>
</g>
<g>
	<g>
		<path fill="#0DA2DD" d="M951.345,241.218c0.435,0.434,23.677,1.736,24.11,1.955c0.435,0.217,9.342,16.294,9.342,16.294
			l-29.326-2.826L951.345,241.218z"/>
		<g>
			<polygon fill="#0DA2DD" points="946.858,261.456 939.62,261.132 939.26,308.902 946.496,309.229 			"/>
			<polygon fill="#0DA2DD" points="978.713,257.632 970.229,260.717 969.814,315.68 978.299,312.596 			"/>
			<polygon fill="#0DA2DD" points="890.244,341.655 892.486,400.806 900.76,400.867 901.233,338.063 			"/>
			<polygon fill="#0DA2DD" points="943.386,346.927 957.445,348.402 955.228,417.046 944.781,414.997 			"/>
			<polygon fill="#0DA2DD" points="966.187,321.858 978.896,318.965 975.649,374 967.766,373.942 			"/>
			<polygon fill="#0DA2DD" points="924.174,318.914 935.003,318.997 931.346,368.708 923.799,368.651 			"/>
			<polygon fill="#E4F3FB" points="931.938,303.843 883.206,333.699 964.226,350.733 992.19,314.152 			"/>
			<polygon fill="#C3E5F6" points="989.457,314.151 989.379,324.663 961.294,360.587 961.492,350.732 			"/>
			<path fill="#C3E5F6" d="M925.578,250.784c0.889-0.303,6.145-1.266,6.145-1.266l60.457,4.145l-1.346,29.155l-1.771,2.616
				l-1.968-29.586L925.578,250.784z"/>
			<polygon fill="#E4F3FB" points="926.641,277.385 989.128,285.225 989.348,255.894 925.578,250.784 			"/>
		</g>
		<polygon fill="#C3E5F6" points="882.462,333.557 882.805,343.416 962.004,359.734 962.202,349.88 		"/>
		<path fill="#C3E5F6" d="M941.41,271.564c0,0,27.323,4.524,26.672,4.308c-0.652-0.217,4.114-31.615,4.114-31.615l-24.11-1.953
			L941.41,271.564z"/>
		<polygon fill="#C3E5F6" points="948.086,242.304 951.345,241.218 975.455,243.173 972.196,244.257 		"/>
		<polygon fill="#0DA2DD" points="953.338,254.335 956.817,249.364 961.289,250.36 959.302,267.589 955.492,266.098 
			957.148,252.679 954.166,256.655 		"/>
	</g>
	<g>
		<path fill="#0DA2DD" d="M931.315,331.416c0,0-1.53-3.866-12.37-5.982c-4.915-0.958-13.351,1.367-13.351,1.367l16.333-14.387
			c0,0,14.491,6.995,15.505,9.509C938.448,324.437,931.315,331.416,931.315,331.416z"/>
		<path fill="#0DA2DD" d="M931.443,331.544c0,0,4.868-0.482,11.148,1.666c9.863,3.374,12.576,9.653,12.576,9.653l25.482-22.34
			c0,0-10.379-17.684-30.67-12.232C949.328,308.467,931.443,331.544,931.443,331.544z"/>
		<path fill="#FFFFFF" d="M931.571,331.288c0.141,0.483,19.222-23.451,19.222-23.451s-3.165-15.851-25.884-8.809l-19.227,23.934
			C905.683,322.962,927.178,316.242,931.571,331.288z"/>
		<path fill="#FFFFFF" d="M931.727,331.261c-0.503,0.034,19.279-23.463,19.279-23.463s17.612-7.266,29.503,9.075l-24.462,22.231
			C956.047,339.104,947.554,330.22,931.727,331.261z"/>
		<path fill="#A42423" d="M951.416,314.021c-0.206,0.583,0.632,0.934,0.894,0.431c0.829,0.375,1.678,0.699,2.504,1.085
			c0.443,0.208,0.915-0.418,0.571-0.779c-1.666-1.751,1.455-1.607,2.534-1.312c2.727,0.744,1.863,3.539-0.217,4.639
			c-1.833,0.969-4.474,0.104-6.479,0.311c-1.879,0.191-3.113,1.448-3.978,3.021c-0.171,0.312,0.133,0.619,0.412,0.68
			c0.997,0.214,1.939,0.634,2.938,0.848c0.349,0.074,0.563-0.287,0.548-0.579c-0.178-3.204,12.421,0.968,13.507-3.995
			C966.15,311.511,953.89,307.056,951.416,314.021z"/>
		<path fill="#A42423" d="M949.492,324.331c-0.696-0.275-1.343-0.655-2.038-0.932c-0.159-0.062-0.298-0.039-0.411,0.026
			c-0.062,0.03-0.123,0.077-0.175,0.144c-0.557,0.716-1.205,1.346-1.653,2.141c-0.156,0.273-0.109,0.633,0.22,0.762
			c0.714,0.275,1.539,0.651,2.317,0.426c0.87-0.251,1.448-1.117,1.959-1.805C949.903,324.833,949.791,324.448,949.492,324.331z"/>
	</g>
</g>
<g>
</g>
<g>
</g>
<g>
</g>
<g>
</g>
<g>
</g>
<g>
</g>
</svg>
