<?xml version="1.0" encoding="utf-8"?>
<!-- Generator: Adobe Illustrator 16.0.4, SVG Export Plug-In . SVG Version: 6.00 Build 0)  -->
<!DOCTYPE svg PUBLIC "-//W3C//DTD SVG 1.1//EN" "http://www.w3.org/Graphics/SVG/1.1/DTD/svg11.dtd">
<svg version="1.1" id="p1" xmlns="http://www.w3.org/2000/svg" xmlns:xlink="http://www.w3.org/1999/xlink" x="0px" y="0px"
	 width="2440.785px" height="984.563px" viewBox="0 0 2440.785 984.563" enable-background="new 0 0 2440.785 984.563"
	 xml:space="preserve">
<g>
	<g>
		<g>
			<path fill="#1D1B3A" d="M1207.751,121.869c-42.989,0-85.979,0-128.968,0c-50.359,0-100.718,0-151.077,0c-0.94,0-1.881,0-2.821,0
				c0.417,0.417,0.833,0.833,1.25,1.25c0-25.115,0-50.23,0-75.346c-0.417,0.417-0.833,0.833-1.25,1.25c42.989,0,85.979,0,128.968,0
				c50.359,0,100.718,0,151.077,0c0.94,0,1.881,0,2.821,0c-0.417-0.417-0.833-0.833-1.25-1.25c0,25.115,0,50.23,0,75.346
				c0,1.612,2.5,1.612,2.5,0c0-25.115,0-50.23,0-75.346c0-0.682-0.569-1.25-1.25-1.25c-42.989,0-85.979,0-128.968,0
				c-50.359,0-100.718,0-151.077,0c-0.94,0-1.881,0-2.821,0c-0.681,0-1.25,0.568-1.25,1.25c0,25.115,0,50.23,0,75.346
				c0,0.682,0.569,1.25,1.25,1.25c42.989,0,85.979,0,128.968,0c50.359,0,100.718,0,151.077,0c0.94,0,1.881,0,2.821,0
				C1209.363,124.369,1209.363,121.869,1207.751,121.869z"/>
		</g>
	</g>
	
		<rect x="938.325" y="61.612" fill="#1B1D3A" stroke="#1B1D3A" stroke-width="0.6424" stroke-linecap="round" stroke-miterlimit="10" width="70.898" height="10.836"/>
	
		<rect x="938.325" y="79.169" fill="#1B1D3A" stroke="#1B1D3A" stroke-width="0.6424" stroke-linecap="round" stroke-miterlimit="10" width="96.683" height="6.18"/>
	
		<rect x="938.325" y="90.317" fill="#1B1D3A" stroke="#1B1D3A" stroke-width="0.6424" stroke-linecap="round" stroke-miterlimit="10" width="96.683" height="6.181"/>
	
		<rect x="938.325" y="101.468" fill="#1B1D3A" stroke="#1B1D3A" stroke-width="0.6424" stroke-linecap="round" stroke-miterlimit="10" width="50.312" height="6.179"/>
	<g>
		<rect x="1066.835" y="78.063" fill="#78EBA6" width="22.271" height="18.055"/>
		<rect x="1091.513" y="78.063" fill="#DC4832" width="22.273" height="18.055"/>
		<rect x="1116.192" y="78.063" fill="#78EBA6" width="22.273" height="18.055"/>
		<rect x="1140.872" y="78.063" fill="#78EBA6" width="22.273" height="18.055"/>
		<rect x="1165.553" y="78.063" fill="#DC4832" width="22.272" height="18.055"/>
	</g>
</g>
</svg>
