<?xml version="1.0" encoding="utf-8"?>
<!-- Generator: Adobe Illustrator 16.0.4, SVG Export Plug-In . SVG Version: 6.00 Build 0)  -->
<!DOCTYPE svg PUBLIC "-//W3C//DTD SVG 1.1//EN" "http://www.w3.org/Graphics/SVG/1.1/DTD/svg11.dtd">
<svg version="1.1" id="p2" xmlns="http://www.w3.org/2000/svg" xmlns:xlink="http://www.w3.org/1999/xlink" x="0px" y="0px"
	 width="2440.785px" height="984.563px" viewBox="0 0 2440.785 984.563" enable-background="new 0 0 2440.785 984.563"
	 xml:space="preserve">
<g>
	<g>
		<g>
			<path fill="#1D1B3A" d="M1207.751,201.641c-42.989,0-85.979,0-128.968,0c-50.359,0-100.718,0-151.077,0c-0.94,0-1.881,0-2.821,0
				c0.417,0.417,0.833,0.833,1.25,1.25c0-26.513,0-53.024,0-79.537c-0.417,0.417-0.833,0.833-1.25,1.25c42.989,0,85.979,0,128.968,0
				c50.359,0,100.718,0,151.077,0c0.94,0,1.881,0,2.821,0c-0.417-0.417-0.833-0.833-1.25-1.25c0,26.513,0,53.024,0,79.537
				c0,1.612,2.5,1.612,2.5,0c0-26.513,0-53.024,0-79.537c0-0.682-0.569-1.25-1.25-1.25c-42.989,0-85.979,0-128.968,0
				c-50.359,0-100.718,0-151.077,0c-0.94,0-1.881,0-2.821,0c-0.681,0-1.25,0.568-1.25,1.25c0,26.513,0,53.024,0,79.537
				c0,0.682,0.569,1.25,1.25,1.25c42.989,0,85.979,0,128.968,0c50.359,0,100.718,0,151.077,0c0.94,0,1.881,0,2.821,0
				C1209.363,204.141,1209.363,201.641,1207.751,201.641z"/>
		</g>
	</g>
	<g>
		<rect x="1065.952" y="156.249" fill="#78EBA6" width="22.271" height="18.054"/>
		<rect x="1090.63" y="156.249" fill="#78EBA6" width="22.273" height="18.054"/>
		<rect x="1115.31" y="156.249" fill="#78EBA6" width="22.273" height="18.054"/>
		<rect x="1139.989" y="156.249" fill="#DC4832" width="22.273" height="18.054"/>
		<rect x="1164.67" y="156.249" fill="#78EBA6" width="22.272" height="18.054"/>
	</g>
	
		<rect x="938.325" y="140.96" fill="#1B1D3A" stroke="#1B1D3A" stroke-width="0.6424" stroke-linecap="round" stroke-miterlimit="10" width="70.898" height="10.839"/>
	
		<rect x="938.325" y="158.518" fill="#1B1D3A" stroke="#1B1D3A" stroke-width="0.6424" stroke-linecap="round" stroke-miterlimit="10" width="96.683" height="6.181"/>
	
		<rect x="938.325" y="169.668" fill="#1B1D3A" stroke="#1B1D3A" stroke-width="0.6424" stroke-linecap="round" stroke-miterlimit="10" width="96.683" height="6.178"/>
	
		<rect x="938.325" y="180.815" fill="#1B1D3A" stroke="#1B1D3A" stroke-width="0.6424" stroke-linecap="round" stroke-miterlimit="10" width="50.312" height="6.181"/>
</g>
</svg>
