<?xml version="1.0" encoding="utf-8"?>
<!-- Generator: Adobe Illustrator 16.0.4, SVG Export Plug-In . SVG Version: 6.00 Build 0)  -->
<!DOCTYPE svg PUBLIC "-//W3C//DTD SVG 1.1//EN" "http://www.w3.org/Graphics/SVG/1.1/DTD/svg11.dtd">
<svg version="1.1" id="man_x5F_arm" xmlns="http://www.w3.org/2000/svg" xmlns:xlink="http://www.w3.org/1999/xlink" x="0px"
	 y="0px" width="2440.785px" height="984.563px" viewBox="0 0 2440.785 984.563" enable-background="new 0 0 2440.785 984.563"
	 xml:space="preserve">
<g>
	<path fill="#F4EDE1" d="M1550.187,252.808c0,0-11.678,2.663-19.465,2.869c-7.787,0.204-14.344-12.089-11.678-25.611
		c2.662-13.522-8.607-20.079-8.607-20.079s-13.521,60.033-13.264,63.374s19.82,24.114,23.1,25.14
		c3.277,1.024,7.172,19.464,6.557,19.874c0,0,10.449,2.869,15.365-0.205"/>
	<g>
		<path fill="#1B1D3A" d="M1549.76,251.259c-5.823,1.313-11.749,2.342-17.707,2.756c-10.187,0.708-12.357-13.093-11.882-20.601
			c0.43-6.778,1.483-11.945-2.234-18.097c-1.599-2.646-4.025-5.123-6.689-6.718c-0.86-0.515-2.131-0.053-2.359,0.96
			c-4.487,19.929-9.292,39.878-12.822,60.002c-0.488,2.787-0.729,4.449,0.859,6.925c3.52,5.487,8.366,10.321,12.887,14.971
			c2.111,2.172,4.286,4.291,6.583,6.269c1.377,1.186,3.286,1.938,4.215,3.486c1.667,2.776,2.435,6.257,3.241,9.361
			c0.389,1.494,0.714,3.003,1.018,4.517c0.148,0.741,0.182,3.34,0.574,2.474c-0.419,0.924-0.121,2.071,0.96,2.359
			c5.272,1.402,11.604,2.25,16.603-0.367c1.836-0.961,0.212-3.733-1.621-2.773c-4.157,2.177-9.771,1.202-14.128,0.043
			c0.32,0.787,0.64,1.573,0.96,2.359c1.543-3.4-1.393-10.164-2.373-13.405c-0.749-2.48-1.637-5.123-3.152-7.252
			c-0.968-1.36-2.75-2.013-4.025-3.073c-5.316-4.422-10.045-9.723-14.55-14.947c-2.594-3.009-5.696-5.619-5.033-9.618
			c3.365-20.298,8.385-40.409,12.903-60.476c-0.787,0.32-1.573,0.64-2.359,0.96c4.02,2.407,6.729,6.677,7.856,11.132
			c1.163,4.589-0.593,9.515-0.646,14.167c-0.042,3.655,0.714,7.602,2.197,10.938c2.497,5.619,6.559,9.89,13.019,9.617
			c6.215-0.263,12.505-1.505,18.561-2.87C1552.634,253.9,1551.777,250.804,1549.76,251.259L1549.76,251.259z"/>
	</g>
</g>
<path fill="#1D1B3A" d="M1486.859,207.638c1.027-0.343,20.879-13.349,25.326-11.637c4.451,1.712,34.227,52.021,35.938,61.947
	s-33.385,16.448-36.715,17.636C1508.08,276.772,1486.859,207.638,1486.859,207.638z"/>
<g>
	<g>
		<path fill="#FFFFFF" d="M1497.414,366.329c0,0,45.219,70.127,54.42,39.454c8.164-27.21-26.656-90.13-26.656-90.13l28.018-2.384
			c0,0,46.281,134.631,40.816,148.296c-2.723,6.802-99.318-9.524-99.318-9.524L1497.414,366.329z"/>
		<g>
			<path fill="#1B1D3A" d="M1496.027,367.14c4.929,7.631,10.34,14.979,15.989,22.089c7.361,9.264,16.584,21.467,28.304,25.347
				c12.418,4.112,14.628-12.579,14.297-20.959c-0.71-17.98-8.051-35.856-15.114-52.151c-3.918-9.038-8.174-17.994-12.938-26.622
				c-0.462,0.806-0.925,1.611-1.387,2.416c9.339-0.794,18.679-1.589,28.018-2.383c-0.517-0.394-1.032-0.786-1.549-1.18
				c7.079,20.6,13.821,41.322,20.315,62.113c5.002,16.013,9.837,32.087,14.142,48.302c2.877,10.834,6.475,22.386,6.747,33.682
				c0.047,1.928,0.3,2.971-1.374,3.379c-3.158,0.771-6.713,0.48-9.925,0.375c-11.276-0.369-22.541-1.8-33.724-3.216
				c-17.617-2.231-35.197-4.882-52.708-7.839c0.394,0.517,0.786,1.032,1.179,1.549c0.907-28.57,1.814-57.142,2.721-85.712
				c0.066-2.072-3.146-2.066-3.211,0c-0.907,28.57-1.814,57.142-2.721,85.712c-0.021,0.657,0.499,1.434,1.179,1.549
				c24.429,4.124,49.015,7.882,73.683,10.221c6.18,0.585,12.407,1.099,18.62,1.006c2.534-0.037,6.953,0.174,8.666-2.176
				c1.515-2.077,0.828-6.024,0.589-8.352c-0.535-5.199-1.632-10.346-2.77-15.441c-9.538-42.715-24.099-84.648-38.311-126.005
				c-0.219-0.637-0.813-1.242-1.549-1.18c-9.339,0.795-18.679,1.59-28.018,2.385c-1.205,0.102-2.011,1.286-1.387,2.416
				c5.587,10.116,10.492,20.664,14.939,31.322c6.765,16.216,14.355,35.234,12.474,53.148c-0.491,4.68-2.521,11.831-8.526,10.914
				c-5.547-0.848-10.495-5.608-14.392-9.278c-9.866-9.293-18.093-20.437-25.782-31.548c-1.258-1.818-2.504-3.646-3.703-5.504
				C1497.681,363.785,1494.899,365.395,1496.027,367.14z"/>
		</g>
	</g>
	<g>
		<path fill="#FFFFFF" d="M1517.822,310.547l6.803,19.048l40.814-9.523l-6.803-21.768
			C1558.636,298.304,1515.101,311.909,1517.822,310.547z"/>
		<g>
			<path fill="#1B1D3A" d="M1516.273,310.974c2.268,6.35,4.535,12.699,6.803,19.048c0.304,0.85,1.074,1.332,1.976,1.122
				c13.604-3.175,27.21-6.35,40.814-9.523c0.831-0.194,1.375-1.165,1.122-1.976c-2.268-7.256-4.535-14.512-6.803-21.768
				c-0.254-0.812-1.119-1.39-1.976-1.122c-6.374,1.991-12.752,3.967-19.135,5.929c-4.608,1.417-9.221,2.825-13.842,4.205
				c-1.681,0.501-3.363,0.996-5.051,1.477c-0.562,0.16-1.126,0.315-1.69,0.466c-1.225,0.326-0.914-0.165,0.019,0.41
				c0.108,0.841,0.217,1.682,0.325,2.522c-0.068,0.057-0.136,0.113-0.203,0.17c1.809-1.009,0.189-3.783-1.621-2.773
				c-0.163,0.091-0.312,0.202-0.447,0.333c-0.762,0.732-0.54,1.988,0.325,2.521c1.393,0.859,4.485-0.646,5.809-1.029
				c4.842-1.403,9.66-2.885,14.479-4.36c7.303-2.235,14.597-4.495,21.886-6.772c-0.658-0.374-1.316-0.748-1.976-1.122
				c2.268,7.256,4.535,14.512,6.803,21.768c0.374-0.658,0.748-1.316,1.122-1.976c-13.604,3.175-27.21,6.35-40.814,9.523
				c0.658,0.374,1.316,0.748,1.976,1.122c-2.268-6.35-4.535-12.698-6.803-19.048
				C1518.679,308.185,1515.575,309.019,1516.273,310.974z"/>
		</g>
	</g>
</g>
<g>
	<path fill="#F4EDE1" d="M1547.539,215.401c-4.539-11.775-21.656-3.061-30.43,2.514c-8.988,5.712-14.066,15.19-6.477,15.757"/>
	<g>
		<path fill="#1B1D3A" d="M1548.925,214.591c-5.156-11.664-19.881-5.191-27.983-0.815c-5.81,3.139-11.588,7.117-14.675,13.137
			c-2.019,3.937-0.492,7.671,3.938,8.309c2.024,0.291,2.897-2.804,0.854-3.098c-6.247-0.898,1.52-8.562,3.435-10.291
			c2.929-2.646,6.679-4.581,10.162-6.392c6.313-3.282,17.594-8.056,21.496,0.771
			C1546.988,218.103,1549.754,216.467,1548.925,214.591L1548.925,214.591z"/>
	</g>
</g>
<g>
	<path fill="#F4EDE1" d="M1539.033,304.998c2.219-5.293,15.197-18.101,20.311-20.891c3.059-1.411,3.887-28.801,2.1-39.566
		c-0.662-4.488,0.537-13.053-3.416-14.216c-7.295-2.146-21.205,6.974-28.234,9.53c-5.938,2.216-16.934,5.918-4.506,8.581
		c5.258,1.218,11.443,0.395,16.594-1.392c2.486-0.592,5.025-2.485,7.547-2.074c-0.412,2.521-0.895,2.734-1.824,4.773
		c-0.715,2.432-1.086,8.747-1.104,11.055"/>
	<g>
		<path fill="#1B1D3A" d="M1540.419,305.809c3.079-6.589,9.632-12.199,15.041-16.869c1.626-1.404,4.521-2.572,5.691-4.396
			c1.225-1.909,1.488-4.397,1.807-6.588c1.068-7.35,1.134-14.891,0.963-22.301c-0.162-7.06-0.588-14.571-1.626-21.543
			c-1.045-7.012-8.087-6.075-13.288-4.52c-8.16,2.442-15.647,7.113-23.583,10.202c-2.229,0.867-11.393,5.109-5.822,8.326
			c3.659,2.112,8.173,2.529,12.313,2.472c2.415-0.033,4.848-0.528,7.193-1.052c3.439-0.768,6.762-2.962,10.318-2.964
			c-0.517-0.678-1.032-1.355-1.549-2.033c-0.562,2.758-1.978,4.962-2.374,7.797c-0.392,2.796-0.556,5.637-0.61,8.458
			c-0.041,2.072,3.171,2.068,3.211,0c0.059-2.929,0.253-5.863,0.659-8.766c0.325-2.327,1.738-4.315,2.212-6.636
			c0.206-1.012-0.451-2.033-1.549-2.033c-3.377,0.003-6.373,1.617-9.548,2.638c-5.213,1.676-10.573,1.75-15.858,0.479
			c-5.064-1.219,2.753-3.789,4.294-4.37c2.46-0.929,4.851-1.912,7.224-3.048c6.385-3.056,13.317-7.503,20.617-7.44
			c4.188,0.036,3.366,7.093,3.451,9.828c0.078,2.541,0.532,5.04,0.758,7.569c0.52,5.844,0.479,11.752,0.288,17.608
			c-0.168,5.095-0.25,10.63-1.861,15.515c-0.428,1.297-2.879,2.335-3.97,3.182c-2.463,1.911-4.732,4.079-6.959,6.256
			c-3.729,3.648-7.976,7.81-10.217,12.606C1536.775,306.052,1539.543,307.684,1540.419,305.809L1540.419,305.809z"/>
	</g>
</g>
<g>
	<path fill="#F4EDE1" d="M1555.404,228.068c0.66-2.24-1.43-10.51-4.312-11.357c-1.922-0.566-10.84,2.908-12.723,3.398
		c-5.012,1.657-10.613,3.852-15.076,6.017c-4.559,2.487-17.551,9.915-13.281,15.487c3.787,4.941,23.312-8.511,25.535-5.421"/>
	<g>
		<path fill="#1B1D3A" d="M1556.953,228.495c0.657-3.728-0.759-8.032-2.75-11.16c-2.028-3.186-5.24-2.224-8.305-1.362
			c-10.807,3.036-21.923,6.979-31.102,13.549c-2.826,2.022-6.94,5.22-7.188,9.052c-0.177,2.737,1.342,5.306,4.202,5.66
			c3.758,0.465,7.649-1.319,11.042-2.697c1.474-0.599,10.298-5.442,11.558-4.208c1.48,1.449,3.753-0.82,2.271-2.271
			c-2.768-2.711-8.607,0.817-11.347,1.976c-3.174,1.342-6.332,2.719-9.66,3.642c-1.228,0.34-2.853,0.753-4.082,0.212
			c-2.933-1.29,1.442-5.689,2.462-6.662c6.639-6.332,16.601-10.195,25.207-12.701c3.188-0.929,6.265-2.174,9.492-2.987
			c3.964-0.999,5.65,5.99,5.101,9.106C1553.498,229.666,1556.593,230.532,1556.953,228.495L1556.953,228.495z"/>
	</g>
</g>
</svg>
