<?xml version="1.0" encoding="utf-8"?>
<!-- Generator: Adobe Illustrator 16.0.4, SVG Export Plug-In . SVG Version: 6.00 Build 0)  -->
<!DOCTYPE svg PUBLIC "-//W3C//DTD SVG 1.1//EN" "http://www.w3.org/Graphics/SVG/1.1/DTD/svg11.dtd">
<svg version="1.1" id="man_x5F_nouse" xmlns="http://www.w3.org/2000/svg" xmlns:xlink="http://www.w3.org/1999/xlink" x="0px"
	 y="0px" width="2440.785px" height="984.563px" viewBox="0 0 2440.785 984.563" enable-background="new 0 0 2440.785 984.563"
	 xml:space="preserve">
<g>
	<path fill="#F4EDE1" d="M1478.044,225.047c0,0,69.52,56.83,59.482,65.884c-10.037,9.056-64.508-43.462-64.508-43.462"/>
	<path fill="#1D1B3A" d="M1540.007,287.97l-0.115-0.94l-0.201-0.953l-0.285-0.968l-0.357-0.987l-0.434-1.006l-0.5-1.029
		l-0.564-1.053l-0.627-1.076l-0.688-1.098l-0.744-1.121l-0.801-1.145l-0.852-1.164l-0.906-1.191l-1.443-1.814l-2.072-2.475
		l-2.227-2.529l-2.361-2.576l-2.475-2.608l-2.568-2.634l-2.643-2.639l-4.053-3.947l-5.455-5.17l-4.043-3.751l-2.633-2.419
		l-2.557-2.335l-2.461-2.238l-2.344-2.13l-1.668-1.519l-1.064-0.969l-1.021-0.937l-0.979-0.898l-0.93-0.859l-0.881-0.82
		l-0.826-0.776l-0.771-0.733l-0.711-0.686l-0.65-0.638l-0.584-0.585l-0.514-0.527l-0.438-0.47l-0.367-0.413l-0.174-0.208
		c-0.67-0.794-1.857-0.896-2.65-0.226c-0.795,0.668-0.896,1.855-0.229,2.649l0.174,0.205l0.432,0.488l0.502,0.538l0.564,0.581
		l0.619,0.624l0.68,0.665l0.736,0.71l0.791,0.752l0.842,0.79l0.891,0.832l0.941,0.868l0.984,0.904l1.027,0.942l1.068,0.974
		l1.672,1.521l2.346,2.133l2.461,2.238l2.553,2.33l2.625,2.412l4.027,3.736l5.428,5.143l4.012,3.911l2.611,2.608l2.533,2.598
		l2.438,2.57l2.318,2.527l2.176,2.475l2.012,2.404l1.383,1.741l0.859,1.126l0.809,1.106l0.752,1.078l0.693,1.046l0.633,1.013
		l0.566,0.976l0.5,0.935l0.428,0.893l0.357,0.844l0.283,0.791l0.207,0.734l0.133,0.671l0.061,0.599l-0.008,0.525l-0.068,0.444
		l-0.121,0.371l-0.162,0.311l-0.061,0.068l0.08-0.123l-0.189,0.268l-0.293,0.309l-0.27,0.191l-0.301,0.152l-0.34,0.117l-0.398,0.086
		l-0.467,0.052l-0.537,0.009l-0.607-0.039l-0.676-0.093l-0.734-0.147l-0.797-0.206l-0.844-0.262l-0.895-0.316l-0.936-0.372
		l-0.975-0.425l-1.014-0.474l-1.049-0.523l-1.635-0.877l-2.27-1.316l-2.348-1.468l-2.424-1.605l-2.475-1.727l-2.516-1.829
		l-2.537-1.912l-3.82-2.998l-5.025-4.128l-3.645-3.114l-2.344-2.058l-2.266-2.024l-2.164-1.972l-2.053-1.896l-1.92-1.812
		l-0.828-0.797c-0.842-0.988-1.773-1.902-2.797-2.726l-0.139-0.137l-0.719-0.723l-0.674-0.683l-0.625-0.64l-0.572-0.599l-0.52-0.552
		l-0.465-0.501l-0.404-0.452l-0.342-0.395l-0.145-0.169c-0.67-0.792-1.857-0.893-2.648-0.222c-0.316,0.267-0.518,0.615-0.607,0.986
		l-0.285-0.195c0.973,7.688,9.188,12.226,15.355,16.863c0.174-0.132,0.268-0.267,0.236-0.404l2.1,1.877l2.381,2.086l3.701,3.163
		l5.09,4.183l3.877,3.04l2.59,1.952l2.578,1.871l2.547,1.777l2.51,1.658l2.453,1.533l2.381,1.378l1.73,0.926l1.133,0.566
		l1.111,0.519l1.09,0.471l1.066,0.42l1.043,0.366l1.021,0.312l0.998,0.251l0.977,0.188l0.959,0.117l0.939,0.043l0.922-0.043
		l0.9-0.137l0.869-0.246l0.828-0.358l0.768-0.478l0.688-0.59l0.557-0.634l0.189-0.266c0.029-0.04,0.057-0.08,0.08-0.122l0.273-0.48
		l0.363-0.863l0.223-0.902l0.096-0.916L1540.007,287.97z"/>
</g>
</svg>
