<?xml version="1.0" encoding="utf-8"?>
<!-- Generator: Adobe Illustrator 16.0.4, SVG Export Plug-In . SVG Version: 6.00 Build 0)  -->
<!DOCTYPE svg PUBLIC "-//W3C//DTD SVG 1.1//EN" "http://www.w3.org/Graphics/SVG/1.1/DTD/svg11.dtd">
<svg version="1.1" id="lip_x5F_up" xmlns="http://www.w3.org/2000/svg" xmlns:xlink="http://www.w3.org/1999/xlink" x="0px" y="0px"
	 width="2440.785px" height="984.563px" viewBox="0 0 2440.785 984.563" enable-background="new 0 0 2440.785 984.563"
	 xml:space="preserve">
<g>
	<path fill="#DC4832" d="M725.625,247.84c-5.588,9.663-29.843,0.294-24.161-4.985c1.868-1.91,11.587,0.914,13.789,2.406
		c2.138,1.713,4.257,6.05,9.866,2.93"/>
	<g>
		<path fill="#1B1D3A" d="M724.239,247.029c-2.604,3.972-8.105,3.712-12.227,2.94c-1.875-0.351-10.259-2.495-9.784-5.473
			c0.511-3.203,12.249,2.178,13.545,3.519c3.037,3.142,6.299,3.389,10.157,1.562c1.871-0.886,0.24-3.654-1.621-2.773
			c-4.839,2.292-5.798-1.794-9.393-3.54c-2.701-1.312-5.875-2.145-8.849-2.486c-3.851-0.443-8.569,1.094-6.524,5.834
			c1.898,4.398,9.375,6.154,13.473,6.769c5.185,0.777,10.937-0.064,13.996-4.729C728.151,246.912,725.369,245.305,724.239,247.029
			L724.239,247.029z"/>
	</g>
</g>
</svg>
