<?xml version="1.0" encoding="utf-8"?>
<!-- Generator: Adobe Illustrator 16.0.4, SVG Export Plug-In . SVG Version: 6.00 Build 0)  -->
<!DOCTYPE svg PUBLIC "-//W3C//DTD SVG 1.1//EN" "http://www.w3.org/Graphics/SVG/1.1/DTD/svg11.dtd">
<svg version="1.1" id="shelfs" xmlns="http://www.w3.org/2000/svg" xmlns:xlink="http://www.w3.org/1999/xlink" x="0px" y="0px"
	 width="2440.785px" height="984.563px" viewBox="0 0 2440.785 984.563" enable-background="new 0 0 2440.785 984.563"
	 xml:space="preserve">
<g>
	<rect x="778.558" y="73.769" fill="#F4F5F7" width="34.629" height="117.273"/>
	<rect x="821.846" y="73.769" fill="#F4F5F7" width="34.629" height="117.273"/>
	<rect x="860.552" y="73.769" fill="#F4F5F7" width="34.63" height="117.273"/>
	<rect x="902.603" y="73.769" fill="#F4F5F7" width="34.629" height="117.273"/>
	<rect x="654.403" y="51.104" fill="#F4F5F7" width="476.834" height="11.135"/>
	<rect x="654.403" y="198.087" fill="#F4F5F7" width="476.834" height="11.137"/>
	<rect x="651.474" y="342.207" fill="#F4F5F7" width="476.835" height="11.136"/>
	<rect x="652.812" y="497.78" fill="#F4F5F7" width="476.835" height="11.136"/>
	<rect x="651.797" y="51.276" fill="#F4F5F7" width="11.338" height="706.084"/>
	<rect x="1119.589" y="52.231" fill="#F4F5F7" width="11.336" height="705.129"/>
	<g>
		<polygon fill="#F4F5F7" points="739.454,195.336 706.017,186.529 737.224,73.292 770.661,82.098 		"/>
		<path fill="#FFFFFF" d="M734.086,175.322c-1.06,3.843-5.105,6.118-9.036,5.082c-3.931-1.034-6.259-4.988-5.2-8.831
			c1.06-3.842,5.104-6.118,9.035-5.084C732.816,167.525,735.145,171.479,734.086,175.322z"/>
	</g>
	<ellipse fill="#FFFFFF" cx="793.839" cy="173.082" rx="7.372" ry="7.206"/>
	<ellipse fill="#FFFFFF" cx="838.067" cy="173.082" rx="7.371" ry="7.206"/>
	<ellipse fill="#FFFFFF" cx="878.083" cy="173.082" rx="7.372" ry="7.206"/>
	<ellipse fill="#FFFFFF" cx="918.098" cy="173.082" rx="7.371" ry="7.206"/>
	<rect x="943.56" y="74.723" fill="#F4F5F7" width="34.63" height="117.274"/>
	<rect x="986.847" y="74.723" fill="#F4F5F7" width="34.63" height="117.274"/>
	<rect x="1025.554" y="74.723" fill="#F4F5F7" width="34.63" height="117.274"/>
	<rect x="1067.604" y="74.723" fill="#F4F5F7" width="34.629" height="117.274"/>
	<ellipse fill="#FFFFFF" cx="958.841" cy="174.036" rx="7.371" ry="7.206"/>
	<ellipse fill="#FFFFFF" cx="1003.068" cy="174.036" rx="7.372" ry="7.206"/>
	<ellipse fill="#FFFFFF" cx="1043.084" cy="174.036" rx="7.371" ry="7.206"/>
	<ellipse fill="#FFFFFF" cx="1083.1" cy="174.036" rx="7.371" ry="7.206"/>
	<rect x="981.756" y="372.506" fill="#F4F5F7" width="34.63" height="117.275"/>
	<rect x="938.468" y="372.508" fill="#F4F5F7" width="34.63" height="117.273"/>
	<rect x="899.762" y="372.508" fill="#F4F5F7" width="34.63" height="117.273"/>
	<rect x="857.712" y="372.508" fill="#F4F5F7" width="34.63" height="117.273"/>
	<g>
		<polygon fill="#F4F5F7" points="1055.49,494.074 1088.927,485.269 1057.72,372.03 1024.282,380.837 		"/>
		<path fill="#FFFFFF" d="M1060.858,474.06c1.059,3.844,5.104,6.119,9.036,5.084c3.93-1.034,6.259-4.99,5.199-8.833
			c-1.059-3.841-5.104-6.118-9.034-5.083C1062.127,466.263,1059.799,470.219,1060.858,474.06z"/>
	</g>
	<ellipse fill="#FFFFFF" cx="1001.105" cy="471.821" rx="7.372" ry="7.205"/>
	<ellipse fill="#FFFFFF" cx="956.877" cy="471.821" rx="7.371" ry="7.205"/>
	<ellipse fill="#FFFFFF" cx="916.861" cy="471.821" rx="7.372" ry="7.205"/>
	<ellipse fill="#FFFFFF" cx="876.845" cy="471.821" rx="7.371" ry="7.205"/>
	<rect x="816.754" y="373.46" fill="#F4F5F7" width="34.63" height="117.275"/>
	<rect x="773.466" y="373.462" fill="#F4F5F7" width="34.63" height="117.273"/>
	<rect x="734.76" y="373.462" fill="#F4F5F7" width="34.629" height="117.273"/>
	<rect x="692.71" y="373.462" fill="#F4F5F7" width="34.63" height="117.273"/>
	<ellipse fill="#FFFFFF" cx="836.104" cy="472.775" rx="7.371" ry="7.207"/>
	<ellipse fill="#FFFFFF" cx="791.875" cy="472.775" rx="7.372" ry="7.207"/>
	<ellipse fill="#FFFFFF" cx="751.86" cy="472.775" rx="7.371" ry="7.207"/>
	<ellipse fill="#FFFFFF" cx="711.844" cy="472.775" rx="7.372" ry="7.207"/>
	<rect x="1065.393" y="219.798" fill="#F4F5F7" width="34.63" height="117.273"/>
	<rect x="1026.687" y="219.798" fill="#F4F5F7" width="34.629" height="117.273"/>
	<rect x="984.637" y="219.798" fill="#F4F5F7" width="34.629" height="117.273"/>
	<ellipse fill="#FFFFFF" cx="1083.802" cy="319.112" rx="7.371" ry="7.205"/>
	<ellipse fill="#FFFFFF" cx="1043.786" cy="319.112" rx="7.371" ry="7.205"/>
	<ellipse fill="#FFFFFF" cx="1003.77" cy="319.112" rx="7.372" ry="7.205"/>
	<rect x="944.606" y="218.843" fill="#F4F5F7" width="34.63" height="117.274"/>
	<ellipse fill="#FFFFFF" cx="963.74" cy="318.157" rx="7.371" ry="7.207"/>
	<rect x="756.151" y="218.842" fill="#F4F5F7" width="34.629" height="117.275"/>
	<rect x="717.444" y="218.842" fill="#F4F5F7" width="34.629" height="117.275"/>
	<rect x="675.394" y="218.842" fill="#F4F5F7" width="34.63" height="117.275"/>
	<path fill="#FFFFFF" d="M767.188,318.155c0,3.981,3.301,7.208,7.372,7.208c4.071,0,7.372-3.227,7.372-7.208
		c0-3.978-3.3-7.205-7.372-7.205C770.489,310.95,767.188,314.178,767.188,318.155z"/>
	<path fill="#FFFFFF" d="M727.172,318.155c0,3.981,3.3,7.208,7.372,7.208c4.071,0,7.371-3.227,7.371-7.208
		c0-3.978-3.3-7.205-7.371-7.205C730.473,310.95,727.172,314.178,727.172,318.155z"/>
	<path fill="#FFFFFF" d="M687.156,318.155c0,3.981,3.301,7.208,7.372,7.208s7.371-3.227,7.371-7.208c0-3.978-3.3-7.205-7.371-7.205
		S687.156,314.178,687.156,318.155z"/>
	<rect x="881.123" y="215.979" fill="#F4F5F7" width="34.629" height="117.274"/>
	<rect x="842.417" y="215.979" fill="#F4F5F7" width="34.628" height="117.274"/>
	<rect x="800.366" y="215.979" fill="#F4F5F7" width="34.63" height="117.274"/>
	<ellipse fill="#FFFFFF" cx="899.531" cy="315.294" rx="7.372" ry="7.205"/>
	<ellipse fill="#FFFFFF" cx="859.515" cy="315.294" rx="7.371" ry="7.205"/>
	<ellipse fill="#FFFFFF" cx="819.499" cy="315.294" rx="7.372" ry="7.205"/>
	<rect x="651.474" y="652.526" fill="#F4F5F7" width="476.835" height="11.134"/>
	<rect x="1065.393" y="530.115" fill="#F4F5F7" width="34.63" height="117.274"/>
	<rect x="1026.687" y="530.115" fill="#F4F5F7" width="34.629" height="117.274"/>
	<rect x="987.191" y="529.02" fill="#F4F5F7" width="34.63" height="117.274"/>
	<ellipse fill="#FFFFFF" cx="1083.802" cy="629.43" rx="7.371" ry="7.208"/>
	<ellipse fill="#FFFFFF" cx="1043.786" cy="629.43" rx="7.371" ry="7.208"/>
	<path fill="#FFFFFF" d="M998.954,628.333c0,3.98,3.301,7.209,7.372,7.209c4.071,0,7.372-3.229,7.372-7.209
		c0-3.979-3.3-7.204-7.372-7.204C1002.255,621.129,998.954,624.354,998.954,628.333z"/>
	<rect x="927.778" y="525.423" fill="#F4F5F7" width="34.629" height="117.274"/>
	<ellipse fill="#FFFFFF" cx="946.912" cy="624.737" rx="7.372" ry="7.206"/>
	<rect x="756.151" y="529.161" fill="#F4F5F7" width="34.629" height="117.273"/>
	<rect x="717.444" y="529.161" fill="#F4F5F7" width="34.629" height="117.273"/>
	<rect x="675.394" y="529.161" fill="#F4F5F7" width="34.63" height="117.273"/>
	<ellipse fill="#FFFFFF" cx="774.559" cy="628.476" rx="7.372" ry="7.205"/>
	<ellipse fill="#FFFFFF" cx="734.543" cy="628.476" rx="7.371" ry="7.205"/>
	<ellipse fill="#FFFFFF" cx="694.527" cy="628.476" rx="7.372" ry="7.205"/>
	<rect x="881.123" y="526.298" fill="#F4F5F7" width="34.629" height="117.273"/>
	<rect x="842.417" y="526.298" fill="#F4F5F7" width="34.628" height="117.273"/>
	<rect x="800.366" y="526.298" fill="#F4F5F7" width="34.63" height="117.273"/>
	<ellipse fill="#FFFFFF" cx="899.531" cy="625.612" rx="7.372" ry="7.206"/>
	<ellipse fill="#FFFFFF" cx="859.515" cy="625.612" rx="7.371" ry="7.206"/>
	<ellipse fill="#FFFFFF" cx="819.499" cy="625.612" rx="7.372" ry="7.206"/>
</g>
<g>
	<rect x="263.935" y="75.159" fill="#F4F5F7" width="34.63" height="117.274"/>
	<rect x="307.223" y="75.161" fill="#F4F5F7" width="34.629" height="117.272"/>
	<rect x="345.929" y="75.161" fill="#F4F5F7" width="34.63" height="117.272"/>
	<rect x="387.979" y="75.161" fill="#F4F5F7" width="34.629" height="117.272"/>
	<rect x="139.78" y="52.496" fill="#F4F5F7" width="476.835" height="11.135"/>
	<rect x="139.78" y="199.479" fill="#F4F5F7" width="476.835" height="11.137"/>
	<rect x="136.851" y="343.599" fill="#F4F5F7" width="476.834" height="11.136"/>
	<rect x="138.19" y="499.172" fill="#F4F5F7" width="476.835" height="11.136"/>
	<rect x="137.175" y="52.668" fill="#F4F5F7" width="11.338" height="704.692"/>
	<rect x="604.966" y="53.623" fill="#F4F5F7" width="11.337" height="703.737"/>
	<g>
		<polygon fill="#F4F5F7" points="224.832,196.728 191.394,187.921 222.601,74.684 256.039,83.489 		"/>
		<path fill="#FFFFFF" d="M219.464,176.714c-1.06,3.843-5.105,6.118-9.036,5.082c-3.931-1.035-6.259-4.988-5.2-8.831
			c1.06-3.842,5.104-6.118,9.035-5.084C218.194,168.917,220.522,172.87,219.464,176.714z"/>
	</g>
	<ellipse fill="#FFFFFF" cx="279.216" cy="174.474" rx="7.371" ry="7.206"/>
	<ellipse fill="#FFFFFF" cx="323.444" cy="174.474" rx="7.372" ry="7.206"/>
	<ellipse fill="#FFFFFF" cx="363.46" cy="174.474" rx="7.371" ry="7.206"/>
	<ellipse fill="#FFFFFF" cx="403.476" cy="174.474" rx="7.371" ry="7.206"/>
	<rect x="428.937" y="76.114" fill="#F4F5F7" width="34.63" height="117.274"/>
	<rect x="472.224" y="76.114" fill="#F4F5F7" width="34.63" height="117.274"/>
	<rect x="510.931" y="76.114" fill="#F4F5F7" width="34.63" height="117.274"/>
	<rect x="552.981" y="76.114" fill="#F4F5F7" width="34.629" height="117.274"/>
	<ellipse fill="#FFFFFF" cx="444.218" cy="175.429" rx="7.372" ry="7.205"/>
	<ellipse fill="#FFFFFF" cx="488.445" cy="175.429" rx="7.372" ry="7.205"/>
	<ellipse fill="#FFFFFF" cx="528.461" cy="175.429" rx="7.372" ry="7.205"/>
	<ellipse fill="#FFFFFF" cx="568.478" cy="175.429" rx="7.371" ry="7.205"/>
	<rect x="467.133" y="373.897" fill="#F4F5F7" width="34.63" height="117.275"/>
	<rect x="423.846" y="373.899" fill="#F4F5F7" width="34.63" height="117.273"/>
	<rect x="385.139" y="373.899" fill="#F4F5F7" width="34.63" height="117.273"/>
	<rect x="343.089" y="373.899" fill="#F4F5F7" width="34.63" height="117.273"/>
	<g>
		<polygon fill="#F4F5F7" points="540.868,495.466 574.305,486.66 543.097,373.422 509.66,382.229 		"/>
		<path fill="#FFFFFF" d="M546.235,475.452c1.059,3.843,5.104,6.118,9.036,5.083c3.93-1.034,6.259-4.989,5.199-8.833
			c-1.059-3.841-5.104-6.117-9.034-5.084C547.504,467.655,545.176,471.61,546.235,475.452z"/>
	</g>
	<ellipse fill="#FFFFFF" cx="486.482" cy="473.214" rx="7.372" ry="7.205"/>
	<ellipse fill="#FFFFFF" cx="442.255" cy="473.214" rx="7.371" ry="7.205"/>
	<ellipse fill="#FFFFFF" cx="402.239" cy="473.214" rx="7.372" ry="7.205"/>
	<ellipse fill="#FFFFFF" cx="362.223" cy="473.214" rx="7.371" ry="7.205"/>
	<rect x="302.132" y="374.852" fill="#F4F5F7" width="34.63" height="117.276"/>
	<rect x="258.844" y="374.854" fill="#F4F5F7" width="34.63" height="117.274"/>
	<rect x="220.138" y="374.854" fill="#F4F5F7" width="34.629" height="117.274"/>
	<rect x="178.088" y="374.854" fill="#F4F5F7" width="34.63" height="117.274"/>
	<ellipse fill="#FFFFFF" cx="321.481" cy="474.167" rx="7.371" ry="7.207"/>
	<ellipse fill="#FFFFFF" cx="277.253" cy="474.167" rx="7.372" ry="7.207"/>
	<ellipse fill="#FFFFFF" cx="237.237" cy="474.167" rx="7.371" ry="7.207"/>
	<ellipse fill="#FFFFFF" cx="197.221" cy="474.167" rx="7.372" ry="7.207"/>
	<rect x="550.771" y="221.188" fill="#F4F5F7" width="34.63" height="117.274"/>
	<rect x="512.064" y="221.188" fill="#F4F5F7" width="34.629" height="117.274"/>
	<rect x="470.014" y="221.188" fill="#F4F5F7" width="34.63" height="117.274"/>
	<ellipse fill="#FFFFFF" cx="569.179" cy="320.503" rx="7.371" ry="7.206"/>
	<ellipse fill="#FFFFFF" cx="529.163" cy="320.503" rx="7.372" ry="7.206"/>
	<ellipse fill="#FFFFFF" cx="489.147" cy="320.503" rx="7.372" ry="7.206"/>
	<rect x="429.984" y="220.234" fill="#F4F5F7" width="34.63" height="117.274"/>
	<ellipse fill="#FFFFFF" cx="449.117" cy="319.549" rx="7.372" ry="7.207"/>
	<rect x="241.528" y="220.233" fill="#F4F5F7" width="34.629" height="117.275"/>
	<rect x="202.822" y="220.233" fill="#F4F5F7" width="34.629" height="117.275"/>
	<rect x="160.771" y="220.233" fill="#F4F5F7" width="34.629" height="117.275"/>
	<path fill="#FFFFFF" d="M252.565,319.547c0,3.981,3.301,7.208,7.372,7.208s7.371-3.227,7.371-7.208c0-3.978-3.3-7.205-7.371-7.205
		S252.565,315.569,252.565,319.547z"/>
	<path fill="#FFFFFF" d="M212.55,319.547c0,3.981,3.3,7.208,7.372,7.208c4.07,0,7.371-3.227,7.371-7.208
		c0-3.978-3.3-7.205-7.371-7.205C215.85,312.342,212.55,315.569,212.55,319.547z"/>
	<path fill="#FFFFFF" d="M172.533,319.547c0,3.981,3.301,7.208,7.372,7.208c4.071,0,7.372-3.227,7.372-7.208
		c0-3.978-3.3-7.205-7.372-7.205C175.834,312.342,172.533,315.569,172.533,319.547z"/>
	<rect x="366.5" y="217.372" fill="#F4F5F7" width="34.63" height="117.273"/>
	<rect x="327.793" y="217.372" fill="#F4F5F7" width="34.629" height="117.273"/>
	<rect x="285.743" y="217.372" fill="#F4F5F7" width="34.63" height="117.273"/>
	<ellipse fill="#FFFFFF" cx="384.908" cy="316.686" rx="7.371" ry="7.205"/>
	<ellipse fill="#FFFFFF" cx="344.892" cy="316.686" rx="7.371" ry="7.205"/>
	<ellipse fill="#FFFFFF" cx="304.876" cy="316.686" rx="7.372" ry="7.205"/>
	<rect x="136.851" y="653.919" fill="#F4F5F7" width="476.834" height="11.133"/>
	<rect x="550.771" y="531.507" fill="#F4F5F7" width="34.63" height="117.274"/>
	<rect x="512.064" y="531.507" fill="#F4F5F7" width="34.629" height="117.274"/>
	<rect x="472.569" y="530.411" fill="#F4F5F7" width="34.63" height="117.274"/>
	<ellipse fill="#FFFFFF" cx="569.179" cy="630.821" rx="7.371" ry="7.208"/>
	<ellipse fill="#FFFFFF" cx="529.163" cy="630.821" rx="7.372" ry="7.208"/>
	<ellipse fill="#FFFFFF" cx="491.702" cy="629.726" rx="7.371" ry="7.207"/>
	<rect x="413.155" y="526.815" fill="#F4F5F7" width="34.63" height="117.273"/>
	<ellipse fill="#FFFFFF" cx="432.29" cy="626.13" rx="7.372" ry="7.205"/>
	<rect x="241.528" y="530.553" fill="#F4F5F7" width="34.629" height="117.274"/>
	<rect x="202.822" y="530.553" fill="#F4F5F7" width="34.629" height="117.274"/>
	<rect x="160.771" y="530.553" fill="#F4F5F7" width="34.629" height="117.274"/>
	<ellipse fill="#FFFFFF" cx="259.937" cy="629.867" rx="7.372" ry="7.206"/>
	<ellipse fill="#FFFFFF" cx="219.921" cy="629.867" rx="7.371" ry="7.206"/>
	<ellipse fill="#FFFFFF" cx="179.905" cy="629.867" rx="7.372" ry="7.206"/>
	<rect x="366.5" y="527.689" fill="#F4F5F7" width="34.63" height="117.274"/>
	<rect x="327.793" y="527.689" fill="#F4F5F7" width="34.629" height="117.274"/>
	<rect x="285.743" y="527.689" fill="#F4F5F7" width="34.63" height="117.274"/>
	<ellipse fill="#FFFFFF" cx="384.908" cy="627.004" rx="7.371" ry="7.206"/>
	<ellipse fill="#FFFFFF" cx="344.892" cy="627.004" rx="7.371" ry="7.206"/>
	<ellipse fill="#FFFFFF" cx="304.876" cy="627.004" rx="7.372" ry="7.206"/>
</g>
</svg>
