<?xml version="1.0" encoding="utf-8"?>
<!-- Generator: Adobe Illustrator 16.0.4, SVG Export Plug-In . SVG Version: 6.00 Build 0)  -->
<!DOCTYPE svg PUBLIC "-//W3C//DTD SVG 1.1//EN" "http://www.w3.org/Graphics/SVG/1.1/DTD/svg11.dtd">
<svg version="1.1" id="Layer_1" xmlns="http://www.w3.org/2000/svg" xmlns:xlink="http://www.w3.org/1999/xlink" x="0px" y="0px"
	 width="2801.172px" height="1165.977px" viewBox="0 0 2801.172 1165.977" enable-background="new 0 0 2801.172 1165.977"
	 xml:space="preserve">
<g id="char4">
	<path fill="#F2C132" d="M1645.596,545.297c-0.285-2.838-1.354-5.627-2.908-8.247c-1.746-5.503-6.535-10.435-11.336-13.68
		c-5.084-3.438-11.816-6.029-18.246-6.029c-0.084-0.011-0.164-0.011-0.244-0.016c-0.346-0.271-0.801-0.422-1.342-0.375
		c-1.396,0.135-2.793,0.391-3.924,1.094c-2.496,0.687-4.848,1.887-6.93,3.727c-0.709,0.64-0.727,1.441-0.371,2.054
		c-0.232,0.144-0.471,0.306-0.715,0.47c0.127,1.067,0.184,2.145,0.158,3.251c-0.031,0.802-0.383,1.42-0.881,1.853
		c0.1,0.339,0.229,0.676,0.334,1.005c0.381,0.794,0.775,1.564,1.215,2.304c0.633,1.064,0.244,2.543-0.631,3.323
		c-0.096,0.072-0.186,0.142-0.26,0.212c-1.131,0.993-2.898,0.881-3.898-0.239c0.33,0.77,0.723,1.516,1.186,2.24
		c-1.072-0.3-2.15-0.542-3.244-0.738c-0.037-0.558-0.324-1.088-0.891-1.373c-0.045-0.021-0.076-0.031-0.113-0.047
		s-0.074-0.035-0.105-0.048c-0.031-0.01-0.086-0.026-0.117-0.04l0,0c-7.172-2.413-14.508-2.107-21.75-0.217
		c-2.051,0.536-4.061,1.224-6.031,2c-0.627,0.076-1.279,0.163-1.922,0.288c-2.936,0.589-5.074,1.974-7.184,3.591
		c-1.592,0.783-3.029,1.733-3.709,2.946c-0.061,0.13-0.098,0.263-0.145,0.391c-2.045,0.968-3.928,2.129-5.584,3.522
		c-7.688,6.521,3.986,13.083,9.322,15.146c3.785,1.468,8.244,1.421,12.248,1.452c5.371,0.043,10.766-0.196,16.133-0.101
		c6.355,0.096,12.99,0.521,18.82,3.242c6.514,3.033,8.26,9.644,7.645,16.309c-0.123,1.343,1.354,2.193,2.504,1.656
		c2.369-1.096,5.629-2.466,8.002-0.703c1.688,1.24,1.551,4.17,1.338,5.964c-0.562,5.128-4.496,11.472-10.133,11.778
		c-0.809,0.037-1.463,0.366-1.754,1.154c-2.172,5.821-4.146,11.815-5.123,17.96c-0.717,0.39-1.193,1.197-0.861,1.954
		c0.008,0.199,0.064,0.396,0.156,0.584c0.291,0.616,0.705,0.886,1.178,0.947c0.053,0.032,0.133,0.056,0.213,0.078
		c0.291,0.911,1.369,1.417,2.404,1.014c0.428-0.173,0.893-0.29,1.359-0.412c0.301-0.093,0.652-0.175,0.977-0.252
		c-0.012,0.005,0.844-0.122,0.355-0.099c0.939-0.042,1.539-0.693,1.725-1.417c8.855-0.823,15.688-8.086,19.643-16.277
		c5.146-10.638,6.764-23.459,5.82-35.145c-0.531-6.583-2.74-12.236-6.111-16.967
		C1639.018,556.396,1646.479,554.032,1645.596,545.297z"/>
	<path fill="none" stroke="#1D1B3A" stroke-width="2.7181" stroke-linecap="round" stroke-miterlimit="10" d="M1601.629,536.492
		c-2.994-7.939-3.043-20.003,7.82-20.898c10.893-0.886,22.041,4.428,29.129,12.455c4.549,5.155,9.736,12.686,7.342,19.918
		c-2.029,6.079-8.754,8.455-14.633,8.537"/>
	<path fill="none" stroke="#1D1B3A" stroke-width="2.7181" stroke-linecap="round" stroke-miterlimit="10" d="M1621.324,518.864
		c-2.209,3.547-5.549,6.188-7.873,9.636c-2.07,3.05-2.92,6.516-3.09,10.166"/>
	<path fill="none" stroke="#1D1B3A" stroke-width="2.7181" stroke-linecap="round" stroke-miterlimit="10" d="M1628.434,522.4
		c0.08,7.507-3.033,15.879-7.588,21.779"/>
	<path fill="none" stroke="#1D1B3A" stroke-width="2.7181" stroke-linecap="round" stroke-miterlimit="10" d="M1638.604,536.774
		c-0.73,6.397-6.035,11.077-11.865,13.041"/>
	<path fill="#F4EDE1" d="M1626.031,586.332c0.156-0.576-0.832-1.956-0.811-2.657c0.037-1.006-1.783-1.407-2.729-1.524
		c-1.184-0.153-1.232-2.036-2.373-2.392c-0.717-0.719-2.787,0.342-4.057,0.233c-0.773-0.063-1.492,0.056-2.176,0.3
		c-0.584-4.324-2.131-8.507-4.668-12.02c-1.66-4.239-4.602-7.809-8.541-10.336c-1.35-1.455-3.264-2.466-5.602-2.809
		c-0.504-0.072-0.992-0.132-1.48-0.196c-0.854-0.191-1.699-0.34-2.58-0.433c-1.385-2.402-3.945-3.993-6.896-4.434
		c-6.143-0.912-12.268-0.517-18.033,1.203c-0.318-0.175-0.473-1.088-0.918-0.95c-1.471,0.443-2.5-0.436-3.92,0.074
		c-0.43-0.289-2.426,1.277-3.035,1.598c-2.336,1.226-3.902,2.984-6.078,4.462c-0.521,0.35-0.76,0.833-0.83,1.33
		c-3.604,3.127-6.545,6.928-8.463,11.603c-0.902,2.214-1.49,4.523-1.82,6.875c-0.848,2.623-1.459,5.322-1.83,8.035
		c-0.129,0.921-0.197,1.834-0.256,2.757c-3.43,13.61,1.635,26.151,12.74,34.776c5.592,4.337,12.344,7.384,19.385,9.386
		c-0.197,2.458-0.09,4.892,0.35,7.233c-0.238,1.091-0.531,2.174-0.838,3.246c0.801,3.517-2.703,8.704-3.096,12.423
		c-0.08,0.833,3.779-0.223,3.26,0.199c0.059,0.071,0.105,0.148,0.164,0.212c0.436,0.459,0.871,0.855,1.295,1.214
		c0.984,1.04,2.193,1.853,3.488,2.314c1.418,0.499,3.016,0.725,4.533,0.833c2.916,0.212,13.533,0.558,15.125-1.988
		c4.422-0.842,0.605-6.931-0.461-12.149c-0.887-4.473-0.812-8.797,0.301-13.062c0.066-0.078,0.16-0.146,0.213-0.221
		c0.723-0.331,1.43-0.782,2.104-1.37c7.879-6.952,11.818-16.383,12.326-26.44c0.701-0.13,1.393-0.319,2.062-0.576
		c0.152-0.053,2.611-0.528,3.518-0.796c2.824-0.831,5.277-2.228,7.49-4.226C1626.494,594.81,1628.768,589.793,1626.031,586.332z"/>
	<g>
		<path fill="#F4EDE1" d="M1544.281,739.24c-0.047-0.966-0.111-1.935-0.18-2.896c-0.117-1.54,2.834-2.142,3.275-0.592
			c0.037,0.127,0.043,0.245,0.08,0.364c0.01,0,0.01,0,0.01,0c0,0.018,0,0.031,0,0.039c0.021,0.108,0.031,0.223,0.068,0.333
			c0.113,0.125,0.188,0.268,0.25,0.419c0.059-0.019,0.107-0.048,0.16-0.053c0.393-0.881,1.65-1.203,2.484-0.868
			c1.83-0.695,3.557,1.484,1.705,2.343c-0.602,0.28-0.939,0.978-1.168,1.787c-0.074,0.802-0.207,1.593-0.404,2.386
			c-0.012,0.051-0.037,0.093-0.064,0.146c-0.047,0.397-0.123,0.75-0.207,1.014c-0.127,0.47-0.531,0.768-0.986,0.939
			c0.047,0.396,0.105,0.791,0.168,1.197c0.172,1.155-1.172,1.635-2.223,1.351c-0.936,0.324-2.268-0.016-2.438-1.104
			c-0.021-0.066-0.021-0.141-0.021-0.218C1544.092,743.66,1544.068,741.461,1544.281,739.24z"/>
		<path fill="#F4EDE1" stroke="#1D1B3A" stroke-width="2.7181" stroke-linecap="round" stroke-miterlimit="10" d="M1543.311,751.294
			c1.734-4.194,1.178-7.99,0.133-12.06l-2.156,5.243c0.988,0.523,1.492,0.788,1.764,1.577c-2.889-2.498-6.275-7.475-10.543-5.906
			c1.957,5.51,5.838,8.523,10.883,10.232c-4.328-1.97-9.695-8.003-13.953-6.435c2.809,5.641,8.945,11.269,12.115,16.776
			c5.688-2.095,16.543-4.319,17.859-11.91c1.523-5.909-5.729-12.455-7.898-17.437"/>
	</g>
	<path fill="#1D1B3A" stroke="#1D1B3A" stroke-width="2.7181" stroke-linecap="round" d="M1619.041,742.25
		c-8.059-17.275,6.668-55.318,6.668-55.318s-7.289-21.371-3.016-29.223c-2.881-1.929-4.877-3.185-5.469-3.575
		c-1.709-1.125-11.414-1.8-19.859-2.177c-8.352,6.673-20.529,8.839-28.838,0.812c-0.723-0.698-0.877-1.519-0.658-2.251
		c-2.311,0.037-4.57,0.175-6.604,0.478c-14.643,2.221-56.328,52.719-54.033,60.821c2.191,7.786,34.262,27.422,35.355,30.305
		c1.051-0.902,9.996-8.112,9.158-9.418c-4.719-7.483-23.23-24.827-23.23-24.827l27.064-26.82c0,0-11.564,14.655-6.988,23.377
		c4.604,8.725,22.203,13.1,3.318,48.003c-19.111,35.343-7.756,115.541-7.756,115.541s85.643,15.808,83.428,3.074
		C1625.98,861.821,1642.895,793.409,1619.041,742.25z"/>
	<path fill="#1D1B3A" stroke="#1D1B3A" stroke-width="2.7181" stroke-linecap="round" d="M1546.033,749.25
		c0.064-0.016,0.064-0.093,0.016-0.215C1545.828,749.226,1545.789,749.313,1546.033,749.25z"/>
	<path fill="none" stroke="#1D1B3A" stroke-width="2.7181" stroke-linecap="round" stroke-miterlimit="10" d="M1581.561,632.757
		c-22.334,1.76-35.385-11.475-41.037-23.165c-8.219-16.972-2.518-50.617,19.201-59.048"/>
	<path fill="none" stroke="#1D1B3A" stroke-width="2.7181" stroke-linecap="round" stroke-miterlimit="10" d="M1571.018,580.547
		c0.26,8.362-11.324,9.201-16.305,12.455c4.125,3.843,17.086,6.267,20.625,0.536"/>
	<path fill="none" stroke="#1D1B3A" stroke-width="2.7181" stroke-linecap="round" stroke-miterlimit="10" d="M1584.137,577.542
		c0.387,2.992-0.178,6.538,1.564,9.089c5.002-3.125,2.744-15.698-1.842-9.572"/>
	<path fill="none" stroke="#1D1B3A" stroke-width="2.7181" stroke-linecap="round" stroke-miterlimit="10" d="M1557.49,574.578
		c0.398,2.992-0.191,6.535,1.576,9.086c4.98-3.129,2.75-15.698-1.863-9.574"/>
	<path fill="none" stroke="#1D1B3A" stroke-width="2.7181" stroke-linecap="round" stroke-miterlimit="10" d="M1553.094,549.594
		c20.652,0.149,69.6-1.078,57.277,36.052c3.006-9.657,14.979-8.409,16.234,3.098c0.732,7.141-14.18,20.468-14.828,12.15
		c-1.295,10.235-6.814,23.751-13.643,26.945c-4.873,2.277-3.998,21.532-0.541,25.974c3.109,3.979-19.357,10.052-28.254-0.053"/>
	<path fill="none" stroke="#1D1B3A" stroke-width="2.7181" stroke-linecap="round" stroke-miterlimit="10" d="M1637.844,576.057
		c-2.59-27.585-28.566-37.603-44.684-40.225c-12.193-1.989-27.691-1.79-38.42,4.273c-5.793,3.591-13.506,12.237-10.404,19.587"/>
	<path fill="none" stroke="#1D1B3A" stroke-width="2.7181" stroke-linecap="round" stroke-miterlimit="10" d="M1637.145,576.139
		c3.674,35.604-20.031,52.674-31.449,51.145"/>
	<path fill="none" stroke="#1D1B3A" stroke-width="2.7181" stroke-linecap="round" stroke-miterlimit="10" d="M1588.133,564.138
		c4.975,0.144,10.188,6.292,10.592,8.163"/>
	<path fill="none" stroke="#1D1B3A" stroke-width="2.7181" stroke-linecap="round" stroke-miterlimit="10" d="M1571.277,634.13
		c0.318,13.529-1.662,15.753-3.924,19.982"/>
	<path fill="#1D1B3A" stroke="#1D1B3A" stroke-width="2.7181" stroke-linecap="round" d="M1546.438,863.063
		c0,0,16.676,87.532,12.381,94.421c-4.301,6.893-60.797,25.439-46.023,25.53c33.324,0.201,50.207-15.948,50.207-15.948
		l-2.029,11.422l4.922,0.17c0,0,5.967-16.895-0.525-20.951c-1.959-1.229,2.123-75.479-0.117-89.093
		C1563.002,855.005,1546.098,863.281,1546.438,863.063z"/>
	<path fill="#1D1B3A" stroke="#1D1B3A" stroke-width="2.7181" stroke-linecap="round" d="M1626.031,865.614
		c-0.619-1.405,4.051,11.25,6.027,32.479c2.395,25.941,3.229,53.84,7.582,58.501c4.348,4.656,27.164,30.515,21.277,34.429
		c-5.873,3.906-27.197-17.391-29.104-33.877c-1.221-10.715-20.434-78.637-20.576-86.436
		C1611.078,862.907,1626.031,865.614,1626.031,865.614z"/>
	<path fill="none" stroke="#1D1B3A" stroke-width="2.7181" stroke-linecap="round" stroke-miterlimit="10" d="M1617.75,585.495
		c-2.037,1.792-4.055,6.583-1.629,8.664"/>
	<path fill="none" stroke="#1D1B3A" stroke-width="2.7181" stroke-linecap="round" stroke-miterlimit="10" d="M1552.244,566.947
		c0.85-3.146,5.045-5.232,7.875-6.116"/>
	<path fill="none" stroke="#1D1B3A" stroke-width="2.7181" stroke-linecap="round" d="M1573.869,550.122
		c6.533-3.143,12.688-6.309,19.912-7.828c5.602-0.828,11.08,0.326,16.654-0.111"/>
	<path fill="none" stroke="#1D1B3A" stroke-width="2.7181" stroke-linecap="round" d="M1595.055,553.47
		c7.693-2.678,12.398-7.923,21.832-6.909"/>
	<path fill="#FFFFFF" stroke="#1D1B3A" stroke-width="2.7181" stroke-linecap="round" stroke-miterlimit="10" d="M1562.248,648.851
		c1.574,0.101,9.82,47.355,12.824,47.371c3.701,0.032,31.27-48.358,31.27-48.358l14.855,2.445c0,0-22.309,40.233-0.256,67.632
		c1.311,1.633-5.145,14.871-0.902,25.204c11.828,28.909,0.414,111.162,0.414,111.162s-68.281,1.723-82.738-7.756
		c-1.82-1.189-2.496-60.014,16.383-100.38c4.137-8.842,8.441-14.114,3.807-22.339c-4.607-8.221-13.15-14.565-13.93-20.954
		c-0.775-6.387,4.262-13.346,8.27-20.222c4.016-6.869-1.215-30.191-1.215-30.191L1562.248,648.851z"/>
	<path fill="none" stroke="#1D1B3A" stroke-width="2.7181" stroke-linecap="round" stroke-miterlimit="10" d="M1590.762,715.995
		c4.773-0.481,13.176-2.901,17.273-5.02"/>
	<g>
		<path fill="#F4EDE1" d="M1629.223,741.108c0.164-0.923,0.34-1.852,0.531-2.775c0.314-1.465-2.473-2.416-3.084-0.972
			c-0.037,0.112-0.076,0.229-0.121,0.34c-0.012,0-0.012,0-0.012,0c0,0.011,0,0.026,0,0.031c-0.043,0.109-0.074,0.213-0.117,0.317
			c-0.121,0.108-0.213,0.231-0.287,0.379c-0.053-0.029-0.094-0.058-0.152-0.08c-0.271-0.897-1.439-1.364-2.283-1.147
			c-1.684-0.907-3.627,0.985-1.949,2.052c0.553,0.348,0.803,1.059,0.908,1.872c-0.012,0.786,0,1.561,0.084,2.352
			c0.012,0.056,0.039,0.09,0.049,0.148c0.012,0.385,0.016,0.735,0.068,0.999c0.07,0.478,0.426,0.809,0.855,1.035
			c-0.111,0.377-0.225,0.757-0.318,1.137c-0.312,1.09,0.934,1.72,1.965,1.587c0.859,0.43,2.203,0.26,2.5-0.765
			c0.021-0.066,0.037-0.139,0.062-0.209C1628.852,745.398,1629.154,743.285,1629.223,741.108z"/>
		<path fill="#F4EDE1" stroke="#1D1B3A" stroke-width="2.7181" stroke-linecap="round" stroke-miterlimit="10" d="M1629.018,752.891
			c-1.148-4.257-0.135-7.859,1.373-11.655l1.424,5.33c-1.014,0.379-1.529,0.573-1.895,1.298c3.098-2.044,6.996-6.432,10.908-4.38
			c-2.574,5.073-6.699,7.49-11.766,8.518c4.408-1.364,10.338-6.514,14.268-4.464c-3.42,5.091-10.061,9.75-13.799,14.679
			c-5.234-2.737-15.422-6.238-15.746-13.742c-0.744-5.885,7.082-11.297,9.801-15.836"/>
	</g>
	<path fill="#1D1B3A" d="M1627.854,742.34c2.783-0.204,44.85-25.859,44.102-32.88c-1.768-16.763-34.014-41.563-49.262-51.751
		c-4.273,7.852-6.408,21.806-3.201,30.34c4.773,4.098,24.432,17.015,26.449,21.801c1.395,3.275-24.033,22.461-24.033,22.461
		S1624.297,742.595,1627.854,742.34z"/>
	<path fill="#F2C132" d="M1587.74,627.271"/>
	<path fill="#DC4832" d="M1573.885,606.553c-0.705,0.043-1.758,0.197-2.938,0.308c-1.725-1.298-4.178-1.739-6.279-1.959
		c-0.373-0.039-0.68,0.045-0.908,0.205c-1.189-0.855-3.158,0.533-2.25,2.038c1.4,2.301,4.145,2.835,6.949,2.84
		c-0.861,0.546-1.736,1.077-2.65,1.561c-1.104,0.583-0.971,2.602,0.357,2.822c1.836,0.302,3.885,0.287,5.361-1.017
		c0.791-0.696,1.322-1.656,1.412-2.657c0.572-0.409,1.146-0.833,1.713-1.257C1575.773,608.61,1575.578,606.45,1573.885,606.553z"/>
	<path fill="none" stroke="#1D1B3A" stroke-width="2.7181" stroke-linecap="round" stroke-miterlimit="10" d="M1569,610.773
		c-2.453,1.039-11.76-3.293-8.43-5.857c2.51-1.826,15.258,3.764,19.674,2.859"/>
	<path fill="none" stroke="#1D1B3A" stroke-width="2.7181" stroke-linecap="round" stroke-miterlimit="10" d="M1569.463,610.559
		c-14.977,4.199,2.652,8.12,3.928,0.647"/>
</g>
</svg>
