<?xml version="1.0" encoding="utf-8"?>
<!-- Generator: Adobe Illustrator 16.0.4, SVG Export Plug-In . SVG Version: 6.00 Build 0)  -->
<!DOCTYPE svg PUBLIC "-//W3C//DTD SVG 1.1//EN" "http://www.w3.org/Graphics/SVG/1.1/DTD/svg11.dtd">
<svg version="1.1" id="Layer_1" xmlns="http://www.w3.org/2000/svg" xmlns:xlink="http://www.w3.org/1999/xlink" x="0px" y="0px"
	 width="2801.172px" height="1165.977px" viewBox="0 0 2801.172 1165.977" enable-background="new 0 0 2801.172 1165.977"
	 xml:space="preserve">
<g id="char1">
	<path fill="#1D1B3A" stroke="#1D1B3A" stroke-width="2.7181" stroke-linecap="round" stroke-miterlimit="10" d="M1010.115,761.851
		c2.873,15.865,4.273,31.37,1.285,47.129c-2.188,12.415-5.797,23.978-7.257,36.676c-0.542,5.137-2.464,10.92-2.071,16.032
		l-0.043,1.848c-6.572,0.823-26.709,5.526-33.35,3.942c0,0-5.309-47.443-6.35-56.34c-3.191-27.163-1.252-37.935,6.147-48.937"/>
	<path fill="#1D1B3A" stroke="#1D1B3A" stroke-width="2.7181" stroke-linecap="round" stroke-miterlimit="10" d="M991.864,535.784
		c18.229-10.023,38.318,9.078,44.317,25.007c9.651,25.235-13.5,42.723-24.686,63.167c-4.008,7.432-1.863,17.394,7.606,18.605
		c-3.179,5.274-11.737,4.037-16.944,2.686c-3.074-0.815-6.154-2.229-8.951-3.958c-2.172-1.149-5.957-5.585-8.097-5.826
		c-2.149-0.529-5.091,2.908-7.464,4.204c-5.389,2.917-11.43,4.329-17.163,5.736c-6.042,1.107-17.308,0.57-19.738-8.178
		c30.382-1.598-4.147-33.924-6.828-41.144c-9.396-27.067-1.942-55.116,24.029-65.572c18.894-7.618,35.647,2.171,35.437,4.919"/>
	<path fill="#F4EDE1" stroke="#1B1D3A" stroke-width="2.7181" stroke-linecap="round" stroke-miterlimit="10" d="M990.913,668.879
		c-5.798,0-11.615-0.355-17.481-0.791c0.249-4.812-0.309-10.991-2.061-19.059c-6.52-30.188-46.118-108.866,11.998-107.09
		c58.101,1.778,35.708,80.968,16.85,101.033C988.572,655.397,987.611,663.547,990.913,668.879z"/>
	<path fill="#1B1D3A" stroke="#1B1D3A" stroke-width="2.7181" stroke-linecap="round" stroke-miterlimit="10" d="M1029.067,579.906
		c6.573-4.019-1.045-13.046-2.196-20.609c-1.977-13.627-14.318-19.305-26.815-19.807l0.292-0.313
		c-2.002-5.707-6.615-7.083-12.084-6.902c-7.602,0.249-21.855,1.325-27.441,7.291c-6.449,6.905-6.672,18.768-8.823,27.663
		c-1.862,7.971-0.493,12.483-9.194,16.12c9.943,6.365,30.059-1.298,39.317-6.771c6.274-3.546,21.427-14.387,19.925-23.16
		C1002.264,560.104,1021.746,584.395,1029.067,579.906z"/>
	<path fill="none" stroke="#1B1D3A" stroke-width="2.7181" stroke-linecap="round" stroke-miterlimit="10" d="M999.557,588.602
		c-2.357,9.161,7.82,8.48,4.814-0.111C1004.371,588.491,1000.75,583.962,999.557,588.602z"/>
	<path fill="none" stroke="#1B1D3A" stroke-width="2.7181" stroke-linecap="round" stroke-miterlimit="10" d="M976.664,588.718
		c-2.32,10.127,8.324,9.522,5.06-0.042C981.724,588.676,977.849,583.601,976.664,588.718z"/>
	<path fill="#DC4832" stroke="#1B1D3A" stroke-width="2.7181" stroke-linecap="round" stroke-miterlimit="10" d="M990.42,617.646
		c8.122-0.262,4.098,4.869,2.261,5.174c-2.431,0.452-4.741-0.974-5.553-3.154"/>
	<path fill="none" stroke="#1B1D3A" stroke-width="2.7181" stroke-linecap="round" stroke-miterlimit="10" d="M1010.242,579.518
		c-1.698-2.684-4.527-5.333-7.441-6.487"/>
	<path fill="#DC4832" stroke="#1D1B3A" stroke-width="2.7181" stroke-linecap="round" stroke-miterlimit="10" d="M961.741,691.609
		c2.847-5.808,4.979-10.179,5.653-12.693c2.904-11.273,2.421-15.653,2.421-15.653s5.485,2.134,13.198,1.837
		c7.703-0.308,11.445-2.192,11.445-2.192s-1.904,2.033,3.584,9.081c5.495,7.053,49.219,38.229,49.293,49.449
		c0.191,28.283-22.547,50.241-22.547,50.241l-7.826-9.52c0,0,21.793-18.849,19.262-39.237c-0.865-6.96-28.573-23.163-30.616-30.719
		c-0.638-2.376,3.132,9.651,1.131,15.116c-2.528,6.944-8.951,10.564-8.729,23.179c0.171,10.695,15.099,25.223,11.372,31.912
		c-2.559,4.603-49.117,11.687-41.536-9.227c8.437-23.284-2.888-50.729-2.888-50.729s-1.801,0.154-2.246,0.839"/>
	<path fill="none" stroke="#1B1D3A" stroke-width="2.7181" stroke-linecap="round" stroke-miterlimit="10" d="M981.851,714.804
		c-2.622-0.85-5.229-1.941-7.628-3.263"/>
	<g>
		<path fill="#F2C132" stroke="#1D1B3A" stroke-width="2.7181" stroke-linecap="round" stroke-miterlimit="10" d="M997.252,763.144
			c-26.506-3.326-82.516-0.558-93.064-0.209c3.387,32.097,3.34,42.662,4.029,63.814c29.279-2.37,50.238-0.247,79.549-1.21
			c0,0,5.717-47.337,9.518-61.464"/>
		<path fill="#FFFFFF" stroke="#1D1B3A" stroke-width="2.7181" stroke-linecap="round" stroke-miterlimit="10" d="M903.875,759.748
			c34.072-2.978,77.471-3.005,88.026-3.357c-4.412,31.42-7.301,49.547-6.599,70.703c-29.385-0.448-43.815-5.091-73.141-4.133
			c0,0-4.338-49.343-9.068-63.191"/>
		<path fill="#FFFFFF" stroke="#1D1B3A" stroke-width="2.7181" stroke-linecap="round" stroke-miterlimit="10" d="M899.441,764.022
			c32.904-2.949,77.037-4.396,87.58-4.749c-4.283,34.691-3.514,46.631-2.808,67.784c-29.364-0.454-47.153-0.783-76.479,0.175
			c0,0-4.343-49.337-9.068-63.184"/>
		<path fill="#F2C132" stroke="#1D1B3A" stroke-width="2.7181" stroke-linecap="round" stroke-miterlimit="10" d="M894.866,769.304
			c32.909-2.946,75.066-4.793,85.636-5.147c-1.273,32.254-0.849,45.308,2.852,63.396c-29.369-0.452-47.042,2.941-76.363,3.899
			c0,0-10.447-46.325-15.178-60.176"/>
	</g>
	<path fill="#F4EDE1" stroke="#1D1B3A" stroke-width="2.7181" stroke-linecap="round" stroke-miterlimit="10" d="M1023.525,770.828
		c-5.007,7.023-4.337,0.658-12.996,2.646c-7.406,2.352-8.389,14.538-14.473,19.395c-1.83-5.444,3.51-13.545,4.604-18.663
		c-1.947,4.294-9.38,12.467-12.614,15.542c-0.515-3.376,7.051-16.834,9.031-19.863c-11.346,12.362-13.606,15.249-14.361,10.958
		c-0.44-0.831,11.128-15.319,12.552-15.775c7.039-2.213,24.594-7.626,27.451,5.388"/>
	<path fill="#F4EDE1" stroke="#1D1B3A" stroke-width="2.7181" stroke-linecap="round" stroke-miterlimit="10" d="M952.377,810.451
		c2.775,1.279,11.812,3.127,13.091,6.018c1.036,2.113,1.735,5.797,2.592,8.115c0.669,1.733,5.552,6.846,3.604,8.276
		c-3.058,2.246-6.949-3.287-7.819-6.384c-0.436-1.354-2.941-6.341-5.076-5.691c-1.74,0.452,1.891,3.844,2.693,4.991l1.697,3.846
		c-3.774,3.836-2.488,6.918-6.222,7.042c-2.712,0.09-13.516-1.707-15.326-3.207c-3.202-2.434,0.731-13.5,2.353-17.652"/>
	<path fill="#DC4832" stroke="#1D1B3A" stroke-width="2.7181" stroke-linecap="round" stroke-miterlimit="10" d="M968.738,702.872
		c-3.191,4.923-9.232,17.251-15.74,37.611c-10.975,34.332-1.164,68.76,1.486,68.68c2.617-0.085-13.447,6.697-13.447,6.697
		s-13.197-32.333,0.537-78.52c3.158-10.647,10.26-25.551,20.167-45.731"/>
	<path fill="#1D1B3A" stroke="#1D1B3A" stroke-width="2.7181" stroke-linecap="round" stroke-miterlimit="10" d="M1001.616,862.475
		c-4.624,5.357-8.005,76.354-2.108,93.794c5.771,17.018,24.761,22.196,31.577,23.548c12.079,2.41-2.696,16.868-23.619-0.02
		c-8.425-6.803-11.387-10.387-11.387-10.387l1.63,13.397l-5.76-0.104c0,0-4.875-17.236-3.85-19.484
		c1.04-2.249,5.781-7.001,5.781-7.001s-7.4-30.091-8.855-49.075c-1.131-14.521,8.882-50.895,8.882-50.895"/>
	<path fill="#1D1B3A" stroke="#1D1B3A" stroke-width="2.7181" stroke-linecap="round" stroke-miterlimit="10" d="M986.379,858.761
		c0,0-6.557,44.783-8.238,58.001c-1.684,13.214-11.877,45.03-8.196,48.156c3.679,3.13,1.013,20.684,1.013,20.684
		s-3.525,1.837-5.463,2.228c-1.241,0.252-0.439-8.636-0.949-7.102c-5.027,15.044-16.193,27.971-24.458,27.277
		c-19.394-1.633,13.25-18.061,23.029-43.188c3.128-8.035,8.993-87.983,7.671-99.477"/>
	<path fill="#DC4832" stroke="#1B1D3A" stroke-width="2.7181" stroke-linecap="round" stroke-miterlimit="10" d="M982.462,614.613
		c2.313,6.286,17.614,3.232,14.796-0.47c-0.908-1.322-6.944-0.647-8.398,0.008c-1.439,0.793-3.139,3.141-6.133,0.722"/>
	<path fill="none" stroke="#1B1D3A" stroke-width="2.7181" stroke-linecap="round" stroke-miterlimit="10" d="M991.523,591.32
		c-1.391,6.168,4.273,8.9,6.822,13.081c-2.363,1.139-5.812,1.518-7.99-0.005"/>
	<path fill="none" stroke="#1B1D3A" stroke-width="2.7181" stroke-linecap="round" stroke-miterlimit="10" d="M972.344,587.291
		c0.923,1.157,2.303,2.084,3.699,2.314"/>
	<path fill="none" stroke="#1B1D3A" stroke-width="2.7181" stroke-linecap="round" stroke-miterlimit="10" d="M1005.449,588.219
		c0,0.693,1.158-0.929,1.848-1.622"/>
	<path fill="#DC4832" stroke="#1B1D3A" stroke-width="2.7181" stroke-linecap="round" stroke-miterlimit="10" d="M957.355,605.879
		c-5.711,2.66-5.93,11.952,1.062,10.092c2.113-0.528,5.096-2.652,4.666-5.84c-0.206-3.188-4.035-3.979-6.147-4.78"/>
	<path fill="none" stroke="#1D1B3A" stroke-width="2.7181" stroke-linecap="round" stroke-miterlimit="10" d="M988.297,631.553
		c1.199,2.163,5.059,3.368,6.014,0.236"/>
</g>
</svg>
