<?xml version="1.0" encoding="utf-8"?>
<!-- Generator: Adobe Illustrator 16.0.4, SVG Export Plug-In . SVG Version: 6.00 Build 0)  -->
<!DOCTYPE svg PUBLIC "-//W3C//DTD SVG 1.1//EN" "http://www.w3.org/Graphics/SVG/1.1/DTD/svg11.dtd">
<svg version="1.1" id="Layer_1" xmlns="http://www.w3.org/2000/svg" xmlns:xlink="http://www.w3.org/1999/xlink" x="0px" y="0px"
	 width="2801.172px" height="1165.977px" viewBox="0 0 2801.172 1165.977" enable-background="new 0 0 2801.172 1165.977"
	 xml:space="preserve">
<g id="char3">
	<path fill="#F4EDE1" d="M1359.299,531.364c-5.92-4.765-9.472-9.981-17.439-10.543c-8.235-0.515-9.28,6.444-6.467,13.846
		c0.525,1.263,2.851,3.259,5.967,5.621c0.059-0.023,13.002,9.416,12.948,9.663c4.077,3.244,7.306,6.319,7.698,8.518
		L1359.299,531.364z"/>
	<path fill="#1D1B3A" stroke="#1D1B3A" stroke-width="2.7181" stroke-linecap="round" stroke-miterlimit="10" d="M1387.043,770.87
		c4.937-65.715,26.682-105.064,8.207-142.737c-7.416-0.012-25.387,3.526-31.881,1.107c-9.805,64.67-10.973,87.089-22.047,129.319
		c-0.402,1.568-0.717,3.39-0.944,5.446C1354.658,771.539,1371.443,774.09,1387.043,770.87z"/>
	<path fill="#F4EDE1" d="M1417.094,516.053c-7.24,1.888-10.053,7.061-14.529,12.444c-0.223-12.309-1.635-22.94-3.074-35.832
		c-3.073-27.526-37.756-13.819-55.646-5.011c-11.695,5.744,27.749,96.35,23.178,133.533c-0.393,3.108,5.007,29.108,4.641,32.036
		c7.867,3.469,13.713-20.556,14.562-23.898c8.271-32.545,12.699-55.146,14.785-72.741c6.371-3.56,23.73-24.095,24.639-28.092
		C1427.271,520.682,1425.127,514.025,1417.094,516.053z"/>
	<path fill="#F4EDE1" stroke="#1D1B3A" stroke-width="2.7181" stroke-linecap="round" stroke-miterlimit="10" d="M1416.012,826.586
		c0.473-0.242,0.809-0.768,0.639-1.5c-0.361-1.603-0.867-3.159-1.418-4.708c-0.271-2.04-0.713-4.035-1.223-6.031
		c-0.025-0.406-0.037-0.812-0.047-1.221c-0.012-0.372-0.164-0.672-0.387-0.895c-0.023-0.101-0.043-0.207-0.061-0.306
		c-0.051-0.27-0.186-0.472-0.338-0.628c-0.01-0.016-0.01-0.032-0.01-0.051c-0.145-1.858-0.213-3.734-0.16-5.627
		c0.025-1.191-1.115-1.545-1.869-1.115c-0.537-0.485-1.418-0.332-1.848,0.266c-0.578-0.337-1.486-0.191-1.863,0.425
		c-0.652,0.95-1.264,1.919-1.869,2.888c-0.148,0.239-0.266,0.43-0.365,0.584c-0.006-0.008-0.006-0.008-0.006-0.016
		c-0.031-0.096-0.09-0.173-0.158-0.236c0.068-0.342,0.127-0.756,0.1-1.2c-0.08-1.232-1.777-1.94-2.373-0.669
		c-0.451,0.929-0.742,1.622-1.1,2.591c-0.089,0.229-0.1,0.438-0.068,0.634c-0.121,0.218-0.229,0.443-0.377,0.654
		c-0.764,1.343,0.955,2.558,1.928,1.692c0.016,0.188,0.025,0.373,0.041,0.571c-0.201,0.995,0.729,1.81,1.514,1.707
		c0.012,1.091,1.174,1.69,1.912,1.26c-0.012,0.118-0.012,0.224-0.027,0.34c0,0.348,0.111,0.625,0.287,0.842
		c0.297,2.129,0.924,4.183,2.145,5.991c0.594,0.878,1.604,0.833,2.215,0c0.127-0.186,0.238-0.39,0.355-0.576
		c0.742,1.956,1.527,3.907,2.281,5.824c0.627,1.577,3.096,0.889,2.479-0.71C1416.225,827.106,1416.123,826.849,1416.012,826.586z"/>
	<path fill="#1D1B3A" stroke="#1D1B3A" stroke-width="2.7181" stroke-linecap="round" stroke-miterlimit="10" d="M1415.141,956.996
		c-17.174-2.766-35.467-1.038-35.334-13.039c0.541-51.369,2.979-73.835,4.682-137.826c0.148-5.639,2.15-29.985,2.555-35.262
		c-15.6,3.221-32.385,0.669-46.665-6.864c-4.455,39.522,22.954,164.125,27.774,180.676c2.151,7.34,2.867,7.722-23.899,15.063
		c-8.808,2.415-58.712,7.066-33.458,19.024c13.688,6.487,63.709-20.933,63.709-22.663c0-0.599-0.855-2.651-1.355-9.878
		c-2.42-36.301-25.328-141.332-12.471-142.866c12.838-1.554,13.018,133.225,15.322,152.518c0.127,0.939,57.686,25.923,68.924,24.602
		C1457.342,979.037,1452.553,963.019,1415.141,956.996z"/>
	<path fill="#EFEA77" stroke="#1D1B3A" stroke-width="2.7181" stroke-linecap="round" stroke-miterlimit="10" d="M1386.846,768.54
		c0.361,4.178,2.708,11.663,2.606,10.641c2.485-0.942-27.245,6.732-27.245,6.732l-1.631-18.04"/>
	<path fill="#EFEA77" stroke="#1D1B3A" stroke-width="2.7181" stroke-linecap="round" stroke-miterlimit="10" d="M1340.324,767.464
		c-0.275,3.99-2.055,11.138-1.979,10.162c-1.901-0.897,20.709,6.435,20.709,6.435l1.243-17.24"/>
	<path fill="#1D1B3A" stroke="#1D1B3A" stroke-width="2.7181" stroke-linecap="round" stroke-miterlimit="10" d="M1364.725,633.827
		c-19.055,30.319-27.086,30.258-42.243,50.621c-15.052,20.189-3.7,31.035,8.266,18.679c11.982-12.354,34.82-51.217,34.534-52.728
		C1364.989,648.896,1364.725,633.827,1364.725,633.827z"/>
	<path fill="none" stroke="#1D1B3A" stroke-width="2.7181" stroke-linecap="round" stroke-miterlimit="10" d="M1346.705,521.875
		c-4.529-1.906-11.807-2.331-13.018,3.939c-0.498,2.588,0.074,5.465,0.957,7.897c0.445,1.208,1.082,2.012,2,2.894
		c1.004,0.963,3.154,3.331,4.443,3.413"/>
	<path fill="#F4EDE1" stroke="#1D1B3A" stroke-width="2.7181" stroke-linecap="round" stroke-miterlimit="10" d="M1369.799,534.055
		c3.297,12.717-17.863,30.516-27.256,35.092c14.102,8.642,22.096-2.033,30.553-13.219"/>
	<path fill="none" stroke="#1D1B3A" stroke-width="2.7181" stroke-linecap="round" stroke-miterlimit="10" d="M1361.029,532.675
		c1.332-4.367,10.197-6.073,13.133-4.751"/>
	<path fill="none" stroke="#1D1B3A" stroke-width="2.7181" stroke-linecap="round" stroke-miterlimit="10" d="M1397.479,541.485
		c-2.399,4.268-8.122,3.913-12.104,4.239c-3.695,0.279-7.268,1.513-8.643-2.952c-1.514-5.568-2.898-12.287-3.266-18.052
		c-0.615-9.755,18.608-5.79,24.257-4.935l-0.409,0.226c-0.473,2.015,0.871,16.463,0.834,21.483"/>
	<path fill="none" stroke="#1D1B3A" stroke-width="2.7181" stroke-linecap="round" stroke-miterlimit="10" d="M1361.428,534.425
		c-0.361-3.515,0.722-11.505-3.383-12.943c-3.223-1.118-12.958,1.696-15.278,4.09c-1.784,2.079-0.175,26.701,6.97,24.463
		c6.61-2.082,12.121-4.786,12.295-10.862"/>
	<path fill="none" stroke="#1D1B3A" stroke-width="2.7181" stroke-linecap="round" stroke-miterlimit="10" d="M1386.271,528.672
		c0.144,1.276,0.144,2.554,0.144,3.998"/>
	<path fill="none" stroke="#1D1B3A" stroke-width="2.7181" stroke-linecap="round" stroke-miterlimit="10" d="M1354.658,532.354
		c0.143,0,0.143,2.712,0.303,3.669"/>
	<path fill="none" stroke="#1D1B3A" stroke-width="2.7181" stroke-linecap="round" stroke-miterlimit="10" d="M1359.834,508.533
		c3.393-0.157,7.831-1.112,11.516-1.437"/>
	<path fill="none" stroke="#1D1B3A" stroke-width="2.7181" stroke-linecap="round" stroke-miterlimit="10" d="M1361.746,504.063
		c1.045,0.162,2.224,0,3.401-0.156"/>
	<path fill="none" stroke="#1D1B3A" stroke-width="2.7181" stroke-linecap="round" stroke-miterlimit="10" d="M1404.879,506.479
		c0.145-0.321,0.436-0.478,0.59-0.637c-1.486,1.438-7.235,10.551-3.404,11.667c2.959,0.799,5.162-6.714,5.617-8.792
		c-1.332,1.123-4.719,9.753-3.26,11.507c2.078,2.396,5.182-6.389,5.48-7.669c-0.6,1.118-5.023,11.027-1.477,9.105"/>
	<path fill="none" stroke="#1D1B3A" stroke-width="2.7181" stroke-linecap="round" stroke-miterlimit="10" d="M1417.086,522.293
		c-2.805,0.866-5.072,2.745-7.221,4.918c-1.471,1.587-5.209,5.787-4.943,8.25c0.393,2.887,5.207-0.584,4.008,3.475
		c-0.807,3.328-5.766,2.888-5.893,6.654"/>
	<path fill="none" stroke="#1D1B3A" stroke-width="2.7181" stroke-linecap="round" stroke-miterlimit="10" d="M1350.793,533.24
		c1.741-0.725,3.754-1.303,5.622-1.446"/>
	<path fill="none" stroke="#1D1B3A" stroke-width="2.7181" stroke-linecap="round" stroke-miterlimit="10" d="M1383.438,528.033
		c2.404,0,4.938-0.287,7.363-0.287"/>
	<path fill="none" stroke="#1D1B3A" stroke-width="2.7181" stroke-linecap="round" stroke-miterlimit="10" d="M1347.448,522.713
		c-3.673-11.443-10.341-29.609-2.983-36.326c6.328-5.781,22.308-7.212,30.351-8.457c7.363-0.998,15.401-2.739,21.851,2.989
		c3.223,2.729,4.131,6.214,4.594,10.694c0.504,8.109,1.602,28.057,2.674,34.917"/>
	<path fill="none" stroke="#1D1B3A" stroke-width="2.7181" stroke-linecap="round" stroke-miterlimit="10" d="M1410.492,519.44
		c6.227-2.98,17.285-7.472,16.293,3.75c-0.74,8.935-7.795,19.834-15.26,25.106c-2.979,2.057-6.715,5.267-10.446,5.731"/>
	<path fill="none" stroke="#1D1B3A" stroke-width="2.7181" stroke-linecap="round" stroke-miterlimit="10" d="M1353.951,548.517
		c-0.228,2.74,2.342,7.597,2.693,8.531"/>
	<path fill="none" stroke="#1D1B3A" stroke-width="2.7181" stroke-linecap="round" stroke-miterlimit="10" d="M1360.27,570.545
		c1.641,5.824,3.971,12.128,4.656,16.359c0.924,6.961,1.386,14.18,1.613,21.398c0.233,3.731,0,7.461,0.233,11.193"/>
	<path fill="#EFEA77" stroke="#1D1B3A" stroke-width="2.7181" stroke-linecap="round" stroke-miterlimit="10" d="M1373.823,626.031
		c1.714,1.377,0.298,22.573,0.298,22.573l7.723-23.048l9.525-1.593l2.978,16.428l-23.231,18.913l-10.119-23.402l2.082-13.535
		C1363.078,622.368,1373.292,625.606,1373.823,626.031z"/>
	<path fill="#EFEA77" stroke="#1D1B3A" stroke-width="2.7181" stroke-linecap="round" stroke-miterlimit="10" d="M1381.844,625.556
		c-0.673,1.088,3.664,15.889,3.664,15.889l19.025-14.087l-5.005-11.19L1381.844,625.556z"/>
	<path fill="none" stroke="#1D1B3A" stroke-width="2.7181" stroke-linecap="round" stroke-miterlimit="10" d="M1400.994,557.311
		c1.385,6.721-10.028,57.869-12.551,63.84"/>
	<path fill="#EFEA77" stroke="#1D1B3A" stroke-width="2.7181" stroke-linecap="round" stroke-miterlimit="10" d="M1354.891,626.649
		c-0.52-0.95,3.621-13.349,3.621-13.349l15.312,12.731l-4.556,9.303L1354.891,626.649z"/>
	<path fill="none" stroke="#1D1B3A" stroke-width="2.7181" stroke-linecap="round" stroke-miterlimit="10" d="M1366.534,571.403
		c6.265,1.292,17.296,1.941,20.279-5.489"/>
	<path fill="#FFFFFF" stroke="#1D1B3A" stroke-width="2.7181" stroke-linecap="round" stroke-miterlimit="10" d="M1317.825,663.283
		c7.061-3.683,54.904,3.446,65.973,3.083c0.245,15.485-17.641,89.353-15.161,86.231"/>
	<path fill="#F2C132" stroke="#1D1B3A" stroke-width="2.7181" stroke-linecap="round" stroke-miterlimit="10" d="M1319.291,664.308
		c15.272-0.263,61.386,5.776,61.386,5.776c-7.448,20.189-16.952,90.738-16.952,90.738c-10.261,4.029-48.107-8.975-60.291-9.126
		c0,0,13.043-74.815,16.111-89.207L1319.291,664.308z"/>
	<path fill="#F4EDE1" stroke="#1D1B3A" stroke-width="2.7181" stroke-linecap="round" stroke-miterlimit="10" d="M1348.266,726.565
		c1.848-3.953,4.703-16.948,8.621-18.642c2.879-1.418,7.838-2.259,10.964-3.396c2.353-0.839,9.403-7.677,11.238-4.799
		c2.867,4.518-4.708,9.888-8.886,11.018c-1.826,0.566-8.611,3.956-7.842,7.061c0.531,2.54,5.239-2.538,6.801-3.671l5.219-2.257
		c4.963,5.646,9.146,3.921,9.146,9.312c0,3.96-2.872,19.494-4.958,22.045c-3.403,4.515-18.019-1.699-23.513-4.239"/>
	<path fill="#1D1B3A" stroke="#1D1B3A" stroke-width="2.7181" stroke-linecap="round" stroke-miterlimit="10" d="M1312.644,692.583
		c0,0-25.334,26.514-7.235,37.36c18.103,10.854,44.906,8.547,44.906,8.547s7.221-11.43,0.968-14.032
		c-4.735-1.978-44.202-1.744-42.529-12.292c1.661-10.546,1.612-6.695,1.612-6.695L1312.644,692.583z"/>
	<path fill="#1D1B3A" stroke="#1D1B3A" stroke-width="2.7181" stroke-linecap="round" stroke-miterlimit="10" d="M1391.496,661.016
		c2.654,6.711,9.014,47.647,9.938,74.191c2.042,59.47-2.149,72.031-1.231,72.113c0.457,0.056,15.16,3.557,15.16,3.557
		s3.633-30.626-2.877-90.115c-1.512-13.713-3.588-45.248-10.871-72.06"/>
	<path fill="#F4EDE1" stroke="#1D1B3A" stroke-width="2.7181" stroke-linecap="round" stroke-miterlimit="10" d="M1420.6,828.851
		c-4.236-4.582-5.299-9.737-5.809-15.457l5.277,5.72c-1.062,1.147-1.588,1.72-1.588,2.864c2.645-4.579,4.768-12.603,11.117-12.603
		c0,8.024-3.701,13.752-9.529,18.329c4.773-4.576,9.014-14.888,15.348-14.888c-1.047,8.587-6.514,18.751-8.09,27.343
		c-8.473,0-23.785,2.282-29.082-6.878c-4.768-6.875,1.715-18.746,2.245-26.194"/>
	<path fill="none" stroke="#1D1B3A" stroke-width="2.7181" stroke-linecap="round" stroke-miterlimit="10" d="M1376.552,580.197
		c-1.848,3.182,2.474,3.604,4.523,2.757"/>
</g>
</svg>
