<?xml version="1.0" encoding="utf-8"?>
<!-- Generator: Adobe Illustrator 16.0.4, SVG Export Plug-In . SVG Version: 6.00 Build 0)  -->
<!DOCTYPE svg PUBLIC "-//W3C//DTD SVG 1.1//EN" "http://www.w3.org/Graphics/SVG/1.1/DTD/svg11.dtd">
<svg version="1.1" id="Layer_1" xmlns="http://www.w3.org/2000/svg" xmlns:xlink="http://www.w3.org/1999/xlink" x="0px" y="0px"
	 width="2801.172px" height="1165.977px" viewBox="0 0 2801.172 1165.977" enable-background="new 0 0 2801.172 1165.977"
	 xml:space="preserve">
<g id="char2">
	<path fill="#1D1B3A" d="M1221.349,677.785c-0.086-0.404-31.685-28.268-31.907-28.506c0-0.059,0-0.125,0-0.183
		c0.802-0.308,1.46-1.062,1.439-2.299c0-0.367-0.017-0.739-0.017-1.104c1.477,0.202,3.171-1.144,2.771-3.122
		c-1.38-6.806-2.771-13.62-4.083-20.45c-0.206-2.232-0.439-4.454-0.673-6.684c-0.106-4.821,8.79-6.955,8.419-11.743
		c20.854,20.377,58,67.071,49.133,104.626c-5.982,25.254-40.399,56.006-40.399,56.006l-18.199-22.499
		C1221.938,714.429,1228.664,697.369,1221.349,677.785z"/>
	<path fill="#F4EDE1" d="M1144.253,611.896c-11.595-3.793-23.485-7.873-34.519-13.392c1.529-39.259-2.219-103.774-2.219-103.774
		c10.357,0.316,54.033-7.913,54.124,3.547c0.282,33.766,16.647,76.517,28.444,103.028c-3.217,5.118-6.709,10.047-9.891,15.549
		C1172.459,629.886,1155.757,616.44,1144.253,611.896z"/>
	<path fill="#F5F6F6" d="M1107.92,595.999c11.016,5.513,23.814,9.659,35.383,13.455c11.51,4.542,28.205,17.987,35.957,4.956
		c3.164-5.498,11.148-15.008,14.344-20.121c1.583,1.147,3.027,2.23,4.381,3.276c-2.724,8.839,3.227,18.7,11.43,22.708
		l-25.107,71.529l-94.008-72.436C1093.06,617.12,1105.863,603.02,1107.92,595.999z"/>
	<path fill="#1D1B3A" d="M1151.043,487.266c3.68,0.604,22.479,2.795,21.192,9.37c-2.483,10.745-60.048,3.042-65.432-3.055
		c9.036-9.471,38.792-7.433,49.724-6.661"/>
	<path fill="#F4EEE5" stroke="#1D1B3A" stroke-width="2.7181" stroke-linecap="round" stroke-miterlimit="10" d="M1146.041,519.74
		c4.912,6.031,35.278,14.037,31.217,21.227c-4.842,9.065-31.502-2.198-34.066-9.271"/>
	<polygon fill="#1B1D3A" points="1102.566,497.095 1161.066,493.347 1160.137,478.889 1101.654,482.633 	"/>
	<path fill="#FFFFFF" stroke="#1D1B3A" stroke-width="2.7181" stroke-linecap="round" stroke-miterlimit="10" d="M1086.016,476.497
		c1.146,9.107,22.041,13.959,46.686,10.843c24.611-3.119,43.654-13.022,42.492-22.126c-1.147-9.108-22.054-13.958-46.681-10.849
		C1103.873,457.488,1084.863,467.392,1086.016,476.497z"/>
	<path fill="none" stroke="#1D1B3A" stroke-width="2.7181" stroke-linecap="round" stroke-miterlimit="10" d="M1154.367,560.499
		c7.979,0.902-0.621,7.963-3.936,9.309"/>
	<path fill="#F1EBE2" d="M1098.937,515.875c0.286,4.444,4.109,7.807,8.548,7.52c4.427-0.281,7.804-4.106,7.522-8.546
		c-0.271-4.433-4.125-7.804-8.552-7.518C1102.021,507.614,1098.64,511.443,1098.937,515.875z"/>
	<path fill="#1B1D3A" stroke="#1D1B3A" stroke-width="2.7181" stroke-linecap="round" stroke-miterlimit="10" d="M1120.857,521.316
		c-0.463-1.906-0.961-3.803-1.545-5.68c0.461-0.364,0.807-0.957,0.854-1.678c0.129-1.962-0.223-3.926-0.854-5.839
		c0.473-0.497,0.732-1.248,0.562-2.031c-0.982-4.465-3.196-8.269-5.775-11.987c-1.228-1.744-3.728-0.455-3.605,1.245
		c-0.557-0.263-1.141-0.491-1.773-0.669c-1.072-0.302-2.117,0.553-2.346,1.556c-1.318-0.087-2.713,1.149-2.087,2.559
		c0.297,0.613,0.605,1.215,0.913,1.805c-0.765,0.621-1.152,1.723-0.419,2.598c2.511,2.984,6.354,5.413,8.446,8.774
		c-1.328-0.236-2.856,0.963-2.262,2.526c0.68,1.803,1.565,3.552,2.68,5.094c-1.241-0.031-2.478,0.971-1.911,2.503
		c0.579,1.513,1.212,2.992,1.837,4.475c-0.742,0.467-1.226,1.322-0.844,2.254c0.77,1.815,1.594,3.593,2.373,5.396
		c-0.445,0.456-0.584,1.075-0.51,1.718c-0.206,1.876,1.949,2.755,3.139,1.932c1.343,0.252,2.51-1.406,2.033-2.614
		c-0.107-0.252-0.196-0.501-0.309-0.751c0.367-0.523,0.553-1.192,0.42-1.803c-0.208-0.929-0.482-1.831-0.78-2.723
		c0.737-0.483,1.231-1.481,1.029-2.386c-0.292-1.232-0.579-2.442-0.918-3.65C1120.337,523.809,1121.111,522.49,1120.857,521.316z"/>
	<polygon fill="#FFFFFF" points="1171.004,614.36 1106.848,580.075 1100.232,600.296 1161.294,632.794 	"/>
	<path fill="#FFFFFF" d="M1171.004,614.36l15.879,14.596c0,0,13.098-31.006,11.723-30.443c-1.387,0.562-10.348-14.419-10.348-14.419
		L1171.004,614.36z"/>
	<path fill="none" stroke="#1D1B3A" stroke-width="2.7181" stroke-linecap="round" stroke-miterlimit="10" d="M1170.123,614.569
		c-4.699,5.349-8.829,11.457-12.725,17.024c-11.803-5.888-23.429-13.117-35.256-19.267c-9.658-5.5-22.85-11.04-22.601-11.993"/>
	<path fill="none" stroke="#1D1B3A" stroke-width="2.7181" stroke-linecap="round" stroke-miterlimit="10" d="M1200.166,597.823
		c-3.961,4.507-12.582,23.664-13.893,27.996c-4.004-4.523-9.774-7.616-14.275-11.308"/>
	<path fill="none" stroke="#1D1B3A" stroke-width="2.7181" stroke-linecap="round" stroke-miterlimit="10" d="M1160.998,502.664
		c-0.473,4.048,0.286,8.982,1.3,12.94c1.247,3.928,3.185,10.249,4.932,13.907"/>
	<path fill="none" stroke="#1D1B3A" stroke-width="2.7181" stroke-linecap="round" stroke-miterlimit="10" d="M1170.823,545.854
		c5.065,13.227,11.298,27.42,12.12,41.239"/>
	<path fill="none" stroke="#1D1B3A" stroke-width="2.7181" stroke-linecap="round" stroke-miterlimit="10" d="M1108.934,520.552
		c-2.612,2.173-0.096,10.036,0.096,13.046c0.275,4.242-0.234,8.282-0.208,12.55c-0.073,6.527,0.818,12.742,0.744,19.268
		c0.011,4.26,0.271,8.504,0.308,12.769"/>
	<path fill="none" stroke="#1D1B3A" stroke-width="2.7181" stroke-linecap="round" stroke-miterlimit="10" d="M1106.592,522.45
		c-17.789,0.396-5.617-21.201,4.332-14.57"/>
	<path fill="none" stroke="#1D1B3A" stroke-width="2.7181" stroke-linecap="round" stroke-miterlimit="10" d="M1107.432,512.117
		c2.574,1.085,2.542,4.351-0.139,5.524"/>
	<path fill="none" stroke="#1D1B3A" stroke-width="2.7181" stroke-linecap="round" stroke-miterlimit="10" d="M1170.664,613.909
		c-10.012-3.629-54.766-28.857-63.436-34.822"/>
	<path fill="none" stroke="#1D1B3A" stroke-width="2.7181" stroke-linecap="round" stroke-miterlimit="10" d="M1189.309,583.86
		c-2.441,4.924-15.459,24.819-18.984,28.811"/>
	<path fill="none" stroke="#1D1B3A" stroke-width="2.7181" stroke-linecap="round" stroke-miterlimit="10" d="M1199.184,597.026
		c-4.746-3.708-6.789-8.096-10.592-12.617"/>
	<path fill="none" stroke="#1D1B3A" stroke-width="2.7181" stroke-linecap="round" stroke-miterlimit="10" d="M1105.737,580.211
		c-3.366,5.988-3.11,13.991-6.779,19.501"/>
	<path fill="none" stroke="#050707" stroke-width="2.7181" stroke-linecap="round" stroke-miterlimit="10" d="M1103.806,600.904
		c-2.374,2.156-3.681,5.25-5.792,7.645"/>
	<path fill="#1D1B3A" d="M1166.561,656.708c-0.053-1.139,0-2.264,0.117-3.379c-0.229-0.31-0.355-0.7-0.309-1.175
		c0.615-6.472,0.42-13.475,3.079-19.521c-0.163-0.751,0.197-1.354,0.733-1.688c-1.004-3.865-2.347-7.669-4.364-11.128
		c1.672-1.47,3.334-2.925,4.726-4.695c0.408-0.513,0.584-1.051,0.589-1.582c0.016,0,0.016,0.008,0.026,0.008
		c0.159,0.269,0.383,0.528,0.695,0.764c0.562,0.425,1.131,0.847,1.71,1.261c1.125,0.966,2.33,1.839,3.583,2.66
		c-0.101,0.292-0.276,0.56-0.515,0.772c0.052,0.316,0,0.664-0.212,1.035c-2.178,3.572-1.672,8.019-2.645,11.977
		c0.686-0.101,1.455,0.186,1.82,0.995c2.311,5.211,3.861,10.597,4.954,16.086c0.308,0.25,0.509,0.603,0.573,1.094
		c0.759,7.034,2.182,13.965,3.058,20.98c0.377,2.999,0.728,6.108,0.51,9.137c1.216,6.867,1.386,14.037,1.82,20.83
		c0.097,1.892-2.403,2.24-3.126,0.809c-0.68,1.102-2.585,0.647-2.936-0.695c-0.219-0.167-0.414-0.391-0.527-0.68
		c-0.455-1.003-0.863-2.009-1.278-3.023c-0.705,0.084-1.464-0.242-1.837-1.027c-0.494-1.152-0.966-2.307-1.418-3.472
		c-0.711,0.093-1.459-0.212-1.703-1.059c-0.074-0.263-0.122-0.522-0.182-0.783c-0.26-0.245-0.43-0.582-0.455-1.033l-0.027-0.467
		c-0.068-0.5-0.143-0.999-0.212-1.492c-0.053-0.093-0.106-0.188-0.144-0.294C1168.6,677.955,1167.007,667.398,1166.561,656.708z"/>
	<path fill="#1D1B3A" d="M1081.497,619.741c3.386-13.347,16.505-20.044,19.468-21.711c0,0,30.079,22.08,52.122,50.885
		c19.765,26.871,31.104,48.119,31.104,48.119c-0.201-0.369,9.497-21.504,12.927-45.619c2.968-20.816-0.45-44.167,1.487-54.583
		c3.848,6.543,11.312,20.163,14.694,26.911c1.344,3.339,1.132,8.985,2.83,12.148c0.673,1.588,1.358,3.186,1.985,4.797
		c0.748,5.5,1.57,10.983,3.147,16.301c-0.261,64.808-23.003,144.607-23.003,144.607l-75.783-5.624
		c0.482-0.021,1.491-9.371,1.422-39.012c-0.127-55.878-24.94-92.106-24.94-92.106s-15.804,36.713-12.316,44.864
		c4.618,10.765,52.626,33.834,52.626,33.834c-0.567,1.606-1.168,3.422-2.362,4.999c-8.536,11.451-22.573,26.278-22.573,26.278
		s-38.998-28.333-48.545-55.485C1054.528,687.271,1076.215,640.67,1081.497,619.741z"/>
	<path fill="none" stroke="#FBEA23" stroke-width="2.7181" stroke-linecap="round" stroke-miterlimit="10" d="M1195.021,710.192
		c-7.41,0.848,5.256,8.832,1.422,0.643"/>
	<path fill="none" stroke="#FBEA23" stroke-width="2.7181" stroke-linecap="round" stroke-miterlimit="10" d="M1170.686,710.089
		c-1.587,0.931-2.267,3.463-0.286,4.169c3.104,0.908,4.22-3.035,1.386-4.234"/>
	<path fill="none" stroke="#FBEA23" stroke-width="2.7181" stroke-linecap="round" stroke-miterlimit="10" d="M1174.307,731.977
		c-3.51-7.239-5.299,8.078,0.621,1.343"/>
	<path fill="none" stroke="#FBEA23" stroke-width="2.7181" stroke-linecap="round" stroke-miterlimit="10" d="M1192.404,751.862
		c-0.324-0.529-0.351-1.081-0.653-1.618c-4.72-0.246-0.897,7.524,1.784,2.1"/>
	<path fill="#1D1B3A" d="M1198.881,796.804c0,0-17.131,146.247-17.657,153.005c-1.321,16.742,59.569-2.176,63.122,12.854
		c4.137,17.536-86.922,1.805-86.922,1.805s3.111-13.266,3.615-11.806c0.988,2.886-12.678,5.117-11.743,2.704
		c10.867-27.558,40.598-162.05,30.25-163.61c-3.992-0.611-18.655-13.094-22.966-0.114c-15.533,46.705-20.614,190.404-20.614,190.404
		s-49.718,62.512-62.586,47.203c-12.88-15.312,47.073-45.852,47.073-45.852l-15.252-4.729c0,0,42.396-150.295,31.307-191.288
		C1134.336,779.358,1198.881,796.804,1198.881,796.804z"/>
	<path fill="none" stroke="#FBEA23" stroke-width="2.7181" stroke-linecap="round" stroke-miterlimit="10" d="M1153.592,486.076
		c-4.402-9.094-6.652,10.156,0.807,1.683"/>
	<path fill="#F1EBE2" d="M1142.597,753.189c4.847,2.726,8.7,4.079,13.092,7.685c-2.019,3.762-23.954,16.115-24.645,15.708
		c-3.62-2.171-4.618-3.36-7.937-6.607c2.549-7.414,8.356-14.557,19.388-16.818"/>
	<path fill="none" stroke="#1D1B3A" stroke-width="2.7181" stroke-linecap="round" stroke-miterlimit="10" d="M1138.949,515.881
		c-1.449-0.022-10.734-0.221-11.371-0.205"/>
	<path fill="none" stroke="#1D1B3A" stroke-width="2.7181" stroke-linecap="round" stroke-miterlimit="10" d="M1134.84,516.478
		c0.643,3.756-3.223,4.4-3.535,0.77"/>
	<path fill="none" stroke="#1D1B3A" stroke-width="2.7181" stroke-linecap="round" stroke-miterlimit="10" d="M1158.194,516.023
		c-1.519-0.278-8.745,0.136-8.728-0.119"/>
	<path fill="none" stroke="#1D1B3A" stroke-width="2.7181" stroke-linecap="round" stroke-miterlimit="10" d="M1155.667,517.109
		c0.643,3.756-3.319,3.703-3.626,0.184"/>
	<path fill="none" stroke="#1D1B3A" stroke-width="2.7181" stroke-linecap="round" stroke-miterlimit="10" d="M1159.262,511.665
		c-4.332-0.53-9.679-0.956-13.883-1.128"/>
	<path fill="none" stroke="#1D1B3A" stroke-width="2.7181" stroke-linecap="round" stroke-miterlimit="10" d="M1139.156,509.871
		c-4.586-3.827-9.513-3.315-15.348,0.08"/>
	<path fill="none" stroke="#1D1B3A" stroke-width="2.7181" stroke-linecap="round" stroke-miterlimit="10" d="M1152.519,547.755
		c-5.233,1.616-13.192-2.437-16.234-6.432"/>
	<path fill="none" stroke="#FBEA23" stroke-width="2.7181" stroke-linecap="round" stroke-miterlimit="10" d="M1172.029,748.624
		c-0.123-3.021,4.428-0.171,4.799,1.68c0.615,4.366-6.27,4.029-5.398-0.167"/>
	<path fill="none" stroke="#FBEA23" stroke-width="2.7181" stroke-linecap="round" stroke-miterlimit="10" d="M1193.158,730.061
		c-0.096-2.161,3.354-0.122,3.621,1.197c0.477,3.122-4.736,2.882-4.083-0.119"/>
	<path fill="#FFFFFF" d="M1136.66,747.049l7.471,5.943c0,0-8.638,14.96-20.089,24.137l-6.609-5.662L1136.66,747.049z"/>
</g>
</svg>
