<?xml version="1.0" encoding="utf-8"?>
<!-- Generator: Adobe Illustrator 16.0.4, SVG Export Plug-In . SVG Version: 6.00 Build 0)  -->
<!DOCTYPE svg PUBLIC "-//W3C//DTD SVG 1.1//EN" "http://www.w3.org/Graphics/SVG/1.1/DTD/svg11.dtd">
<svg version="1.1" id="char1-rightarm" xmlns="http://www.w3.org/2000/svg" xmlns:xlink="http://www.w3.org/1999/xlink" x="0px"
	 y="0px" width="1243.257px" height="1080.03px" viewBox="0 0 1243.257 1080.03" enable-background="new 0 0 1243.257 1080.03"
	 xml:space="preserve">
<path fill="#F9FCFC" d="M792.116,239.386l125.565-67.203c0,0,59.578,90.977,72.379,110.018s32.816,65.082,32.816,65.082
	l-131.46,63.418C891.417,410.701,808.628,248.105,792.116,239.386z"/>
<g>
	<path fill="#F4EDE1" d="M860.516,357.358c0,0-9.444,9.562-18.865,9.562c-6.289,0-10.858,2.606-14.196,7.206
		c-3.335,4.6-2.443,16.508-2.443,16.508l-17.111-10.826c0,0,3.187-49.715,8.396-61.318c5.208-11.604,23.26-20.238,27.69-27.047
		c4.429-6.809,7.644-19.057,11.768-19.057c4.123,0,5.523,6.491,2.584,19.057c-4.271,6.484-4.71,12.788-13.145,18.289
		c-8.438,5.501,1.688,14.348,1.688,14.348"/>
	<g>
		<path fill="#1B1D3A" d="M859.1,355.942c-2.747,2.737-5.97,4.951-9.382,6.77c-5.869,3.129-12.582,1.638-18.425,5.019
			c-8.121,4.697-8.867,14.493-8.284,22.903c1.004-0.576,2.008-1.152,3.013-1.729c-5.146-3.256-10.291-6.512-15.437-9.767
			c-2.339-1.479-0.577-0.979-0.682,0.643c0.025-0.4,0.053-0.801,0.08-1.201c0.176-2.572,0.372-5.143,0.576-7.713
			c1.296-16.353,1.924-33.933,6.85-49.677c2.998-9.583,13.461-15.797,20.948-21.608c3.075-2.387,5.951-4.856,8.012-8.189
			c2.979-4.817,4.612-10.344,7.589-15.168c4.059-6.577,3.729,7.696,3.483,9.442c-0.863,6.125-4.68,13.572-8.653,18.381
			c-2.798,3.387-8.324,5.059-8.854,10.017c-0.395,3.685,1.472,6.792,3.721,9.547c0.548,0.671,1.165,1.305,1.811,1.883
			c1.918,1.716,4.76-1.106,2.832-2.832c-2.198-1.966-4.314-4.636-4.458-7.682c-0.131-2.798,4.871-5.279,6.748-7.009
			c1.83-1.686,3.232-3.873,4.468-6.007c4.548-7.854,9.438-18.533,5.888-27.745c-0.899-2.335-2.739-3.638-5.189-3.837
			c-3.062-0.249-5.158,3.558-6.377,5.738c-2.604,4.661-4.301,9.753-7.119,14.311c-2.506,4.051-7.599,6.989-11.281,9.806
			c-6.812,5.209-14.214,10.947-17.227,19.289c-2.409,6.672-3.175,14.124-4.096,21.112c-1.714,12.999-2.912,26.085-3.756,39.169
			c-0.046,0.709,0.419,1.367,0.991,1.729c5.704,3.609,11.408,7.218,17.111,10.826c1.23,0.779,3.117-0.222,3.013-1.729
			c-0.688-9.933,1.269-20.363,13.101-21.658c8.587-0.938,15.597-4.005,21.818-10.201C863.763,356.95,860.931,354.119,859.1,355.942
			L859.1,355.942z"/>
	</g>
</g>
<path fill="#000100" stroke="#1D1B3A" stroke-width="0.8008" stroke-miterlimit="10" d="M842.829,315.92l1.363,2.738l2.688,5.419
	l3.967,8.026l3.937,7.984l2.63,5.341l2.655,5.391l2.698,5.466l2.058,4.16l1.393,2.811l1.411,2.845l1.432,2.884l1.458,2.921
	l1.479,2.965l1.508,3.013l1.535,3.059l1.564,3.118l1.6,3.172l1.632,3.229l1.672,3.295l1.708,3.362l1.75,3.431l1.79,3.504l1.833,3.58
	l0.937,1.822c0.311,0.605,0.065,1.348-0.553,1.655c-0.618,0.305-1.369,0.062-1.681-0.545l-0.936-1.823l-1.838-3.583l-1.792-3.507
	l-1.75-3.434l-1.708-3.364l-1.673-3.298l-1.634-3.233l-1.599-3.174l-1.568-3.116l-1.536-3.064l-1.509-3.014l-1.479-2.965
	l-1.456-2.924l-1.435-2.884l-1.411-2.848l-1.395-2.812l-2.059-4.165l-2.698-5.464l-2.655-5.392l-2.631-5.341l-3.935-7.981
	l-3.966-8.021l-2.687-5.416l-1.363-2.74c-0.303-0.609-0.049-1.349,0.572-1.646C841.773,315.057,842.525,315.312,842.829,315.92"/>
<g>
	<path fill="#F4EDE1" d="M793.715,239.351c0,0,29.96,42.582,35.284,51.755c5.329,9.171,5.329,9.171,5.329,9.171"/>
	<g>
		<path fill="#1B1D3A" d="M791.986,240.361c14.042,19.962,28.345,39.812,40.613,60.927c1.296,2.23,4.757,0.216,3.457-2.021
			c-12.269-21.114-26.57-40.964-40.613-60.926C793.971,236.246,790.496,238.244,791.986,240.361L791.986,240.361z"/>
	</g>
</g>
<path fill="#000100" stroke="#1D1B3A" stroke-width="0.8008" stroke-miterlimit="10" d="M918.825,171.629l-0.356,0.169l-0.787,0.385
	l-0.9,0.452l-1.015,0.514l-1.124,0.577l-1.226,0.639l-1.327,0.695l-1.423,0.751l-1.514,0.805l-1.603,0.855l-1.687,0.904
	l-1.767,0.951l-1.845,0.995l-1.918,1.04l-1.986,1.077l-2.052,1.117l-2.114,1.152l-2.171,1.186l-2.226,1.218l-2.277,1.246
	l-2.323,1.274l-2.366,1.299l-2.404,1.322l-2.443,1.344l-3.718,2.05l-5.049,2.783l-5.122,2.83l-5.169,2.858l-5.184,2.867l-5.167,2.86
	l-5.122,2.835l-5.047,2.793l-3.721,2.059l-2.439,1.35l-2.403,1.331l-2.365,1.308l-2.322,1.282l-2.275,1.258l-2.226,1.23
	l-2.169,1.197l-2.112,1.165l-2.05,1.13l-1.987,1.094l-1.915,1.052l-1.844,1.012l-1.765,0.969l-1.687,0.921l-1.604,0.874
	l-1.513,0.825l-1.424,0.772l-1.325,0.718l-1.23,0.661l-1.124,0.604l-1.022,0.542l-0.912,0.479l-0.798,0.416l-0.355,0.185
	c-0.615,0.314-1.371,0.081-1.69-0.521c-0.319-0.604-0.083-1.348,0.529-1.663l0.348-0.177l0.788-0.411l0.901-0.475l1.014-0.539
	l1.121-0.6l1.226-0.66l1.323-0.716l1.421-0.771l1.51-0.824l1.602-0.873l1.684-0.921l1.766-0.967l1.843-1.011l1.914-1.052
	l1.982-1.093l2.049-1.13l2.113-1.164l2.168-1.198l2.227-1.229l2.274-1.258l2.322-1.283l2.364-1.308l2.404-1.33l2.439-1.351
	l3.718-2.058l5.047-2.794l5.123-2.836l5.168-2.86l5.184-2.868l5.168-2.857l5.124-2.83l5.05-2.785l3.724-2.05l2.441-1.343
	l2.404-1.323l2.369-1.3l2.324-1.274l2.277-1.249l2.229-1.219l2.172-1.186l2.116-1.153l2.054-1.118l1.989-1.078l1.921-1.042
	l1.847-0.997l1.772-0.953l1.689-0.907l1.606-0.857l1.52-0.808l1.429-0.752l1.334-0.7l1.236-0.643l1.135-0.585l1.029-0.523
	l0.924-0.459l0.806-0.395l0.356-0.17c0.621-0.296,1.37-0.041,1.67,0.571C919.707,170.597,919.446,171.334,918.825,171.629"/>
<path fill="#000100" stroke="#1D1B3A" stroke-width="0.8008" stroke-miterlimit="10" d="M914.259,200.613l-1.046,0.845l-2.118,1.677
	l-3.217,2.464l-4.359,3.194l-4.436,3.097l-4.499,3.006l-4.556,2.925l-4.609,2.852l-4.648,2.785l-4.683,2.729l-4.715,2.681
	l-7.104,3.946l-9.507,5.173l-9.495,5.132l-4.721,2.569c-0.604,0.328-1.366,0.114-1.701-0.483c-0.335-0.594-0.115-1.345,0.491-1.673
	l4.729-2.572l9.486-5.127l9.488-5.161l7.083-3.936l4.689-2.667l4.66-2.712l4.618-2.767l4.569-2.829l4.519-2.9l4.456-2.977
	l4.39-3.064l4.316-3.163l3.187-2.439l2.098-1.662l1.045-0.843c0.533-0.433,1.324-0.357,1.762,0.168
	C914.869,199.405,914.793,200.181,914.259,200.613"/>
<path fill="#000100" stroke="#1D1B3A" stroke-width="0.8008" stroke-miterlimit="10" d="M923.908,213.113l-4.39,2.748l-8.765,5.534
	l-8.769,5.562l-8.79,5.548l-8.83,5.498l-6.657,4.065l-4.459,2.678l-4.478,2.639l-4.496,2.601l-4.521,2.556l-4.542,2.508
	l-2.287,1.235c-0.606,0.328-1.366,0.11-1.699-0.488c-0.333-0.595-0.111-1.344,0.495-1.671l2.264-1.224l4.521-2.495l4.5-2.546
	l4.479-2.59l4.459-2.629l4.443-2.665l6.638-4.056l8.818-5.489l8.785-5.547l8.773-5.562l8.772-5.541l4.39-2.75
	c0.583-0.364,1.355-0.196,1.727,0.379C924.662,211.987,924.491,212.748,923.908,213.113"/>
<path fill="#000100" stroke="#1D1B3A" stroke-width="0.8008" stroke-miterlimit="10" d="M931.206,225.824l-1.042,0.521l-2.056,1.062
	l-2.035,1.097l-2.02,1.133l-3.011,1.761l-3.973,2.444l-3.931,2.539l-3.902,2.612l-5.824,4.013l-7.742,5.413l-5.835,4.021
	l-3.922,2.624l-3.955,2.551l-4,2.462l-3.037,1.775l-2.044,1.144l-2.058,1.109l-2.076,1.069l-1.049,0.523
	c-0.617,0.306-1.37,0.065-1.683-0.542c-0.313-0.609-0.065-1.349,0.552-1.656l0,0l1.018-0.507l2.037-1.051l2.02-1.087l2.007-1.121
	l2.986-1.746l3.955-2.433l3.92-2.53l3.894-2.603l5.819-4.011l7.757-5.426l5.852-4.03l3.938-2.634l3.975-2.566l4.023-2.476
	l3.05-1.784l2.056-1.151l2.074-1.117l2.087-1.08l1.042-0.519c0.615-0.308,1.369-0.067,1.682,0.54
	C932.067,224.775,931.822,225.518,931.206,225.824"/>
<path fill="#000100" stroke="#1D1B3A" stroke-width="0.8008" stroke-miterlimit="10" d="M953.549,261.785l-1.136,0.757l-2.346,1.521
	l-2.42,1.508l-2.483,1.496l-2.538,1.488l-2.592,1.477l-3.97,2.198l-5.434,2.908l-5.554,2.894l-5.631,2.885l-5.666,2.884l-5.66,2.893
	l-5.614,2.91l-5.523,2.935l-4.06,2.223l-2.656,1.49l-2.612,1.504l-2.562,1.515l-2.505,1.53l-2.444,1.54l-2.377,1.557l-2.307,1.572
	l-2.229,1.587l-2.148,1.604l-1.034,0.805c-0.542,0.42-1.329,0.331-1.756-0.202c-0.43-0.535-0.338-1.311,0.205-1.73l0,0l1.07-0.833
	l2.195-1.638l2.273-1.617l2.344-1.599l2.414-1.58l2.476-1.561l2.534-1.545l2.588-1.531l2.635-1.518l2.68-1.505l4.086-2.236
	l5.548-2.946l5.626-2.917l5.665-2.894l5.66-2.88l5.615-2.878l5.528-2.878l5.402-2.895l3.944-2.182l2.565-1.461l2.509-1.471
	l2.452-1.477l2.382-1.487l2.317-1.499l1.138-0.758c0.573-0.384,1.351-0.235,1.74,0.327
	C954.272,260.638,954.122,261.404,953.549,261.785"/>
<path fill="#000100" stroke="#1D1B3A" stroke-width="0.8008" stroke-miterlimit="10" d="M1020.657,351.004l-0.448,0.153
	l-0.952,0.337l-1.035,0.381l-1.119,0.433l-1.205,0.476l-1.282,0.521l-1.359,0.565l-1.433,0.605l-1.501,0.647l-1.569,0.685
	l-1.637,0.725l-1.697,0.76l-1.753,0.794l-1.812,0.828l-1.866,0.859l-1.918,0.89l-1.963,0.921l-2.009,0.947l-2.055,0.975l-2.09,1
	l-2.129,1.026l-2.161,1.046l-2.196,1.07l-2.221,1.088l-3.384,1.665l-4.587,2.282l-4.651,2.336l-4.694,2.38l-7.082,3.632
	l-7.056,3.673l-4.653,2.455l-4.59,2.442l-4.503,2.425l-4.396,2.397l-3.209,1.768l-2.097,1.167l-2.058,1.152l-2.014,1.135
	l-1.969,1.12l-1.924,1.101l-1.869,1.084l-1.82,1.062l-1.762,1.043l-1.703,1.019l-1.641,0.991l-1.578,0.97l-1.512,0.939l-1.441,0.91
	l-1.367,0.88l-1.293,0.85l-1.213,0.816l-1.133,0.782l-0.531,0.374c-0.544,0.386-7.276,1.335-7.643,0.769
	c-0.368-0.567,5.769-2.438,6.313-2.822l0.551-0.389l1.155-0.797l1.235-0.831l1.312-0.861l1.385-0.89l1.456-0.922l1.521-0.948
	l1.591-0.976l1.654-1l1.714-1.023l1.771-1.048l1.826-1.067l1.88-1.088l1.929-1.106l1.977-1.123l2.021-1.14l2.062-1.155l2.104-1.169
	l3.222-1.775l4.404-2.402l4.513-2.43l4.599-2.446l4.664-2.461l7.068-3.681l7.091-3.637l4.702-2.383l4.661-2.342l4.593-2.284
	l3.389-1.67l2.229-1.089l2.2-1.07l2.166-1.051l2.134-1.026l2.097-1.001l2.056-0.979l2.017-0.952l1.972-0.922l1.922-0.895
	l1.874-0.862l1.817-0.831l1.765-0.8l1.707-0.763l1.645-0.729l1.582-0.688l1.513-0.651l1.447-0.612l1.375-0.574l1.303-0.527
	l1.227-0.484l1.147-0.441l1.067-0.396l0.979-0.346l0.45-0.152c0.624-0.211,1.294,0.146,1.496,0.797
	C1021.624,350.097,1021.282,350.795,1020.657,351.004"/>
<path fill="#000100" stroke="#1D1B3A" stroke-width="0.8008" stroke-miterlimit="10" d="M1020.368,350.25l-0.635-1.822l-1.289-3.625
	l-1.996-5.417l-2.778-7.178l-2.896-7.117l-3.007-7.062l-3.104-6.992l-3.194-6.917l-3.271-6.838l-3.339-6.75l-3.396-6.661
	l-3.443-6.558l-3.481-6.455l-3.505-6.342l-3.521-6.226l-3.527-6.1l-3.522-5.971l-3.504-5.833l-2.615-4.279l-1.729-2.809
	l-1.722-2.769l-1.711-2.733l-1.7-2.692l-1.684-2.654l-1.67-2.61l-1.654-2.57l-1.637-2.529l-1.615-2.484l-1.596-2.44l-1.577-2.396
	l-1.554-2.35l-1.527-2.303l-1.504-2.258l-1.477-2.208l-1.447-2.16l-1.419-2.111l-1.391-2.059l-1.354-2.011l-1.325-1.958
	l-1.288-1.906l-1.253-1.852l-1.215-1.797l-1.178-1.743l-1.141-1.688l-1.097-1.632l-1.054-1.574l-1.013-1.517l-0.967-1.458
	l-0.467-0.708c-0.373-0.564-0.235-1.336,0.304-1.724c0.541-0.388,1.278-0.247,1.651,0.317l0,0l0.463,0.704l0.965,1.451l1.009,1.513
	l1.053,1.571l1.095,1.628l1.136,1.686l1.179,1.742l1.217,1.798l1.253,1.852l1.289,1.908l1.323,1.958l1.358,2.013l1.391,2.061
	l1.421,2.114l1.451,2.164l1.477,2.213l1.508,2.259l1.53,2.308l1.555,2.355l1.581,2.4l1.598,2.446l1.621,2.49l1.64,2.532l1.657,2.577
	l1.674,2.619l1.689,2.658l1.703,2.701l1.715,2.739l1.726,2.778l1.739,2.816l2.62,4.295l3.517,5.852l3.533,5.989l3.539,6.121
	l3.533,6.246l3.52,6.366l3.494,6.481l3.455,6.583l3.41,6.689l3.354,6.78l3.288,6.871l3.207,6.95l3.118,7.027l3.023,7.095
	l2.911,7.161l2.79,7.216l2.009,5.446l1.298,3.642l0.631,1.821c0.225,0.643-0.094,1.354-0.71,1.588
	C1021.272,351.227,1020.591,350.893,1020.368,350.25"/>
<path fill="#000100" stroke="#1D1B3A" stroke-width="0.8008" stroke-miterlimit="10" d="M963.499,275.187l-1.321,0.644l-2.606,1.325
	l-2.583,1.369l-2.565,1.417l-2.549,1.461l-2.534,1.499l-3.782,2.318l-5.004,3.188l-4.975,3.273l-7.44,5.006l-7.454,5.018
	l-5.001,3.305l-5.044,3.229l-3.818,2.361l-2.57,1.532l-2.586,1.496l-2.604,1.453l-2.624,1.411l-2.649,1.365l-2.674,1.312
	l-2.702,1.254l-2.73,1.193l-2.76,1.128l-1.399,0.545c-0.614,0.237-1.297-0.092-1.525-0.734c-0.228-0.644,0.086-1.354,0.701-1.594
	l0,0l1.357-0.523l2.709-1.11l2.684-1.172l2.657-1.232l2.634-1.292l2.612-1.343l2.591-1.392l2.572-1.44l2.558-1.479l2.54-1.518
	l3.785-2.335l5.016-3.213l4.984-3.291l7.455-5.019l7.462-5.02l5.003-3.292l5.038-3.211l3.815-2.336l2.561-1.516l2.581-1.478
	l2.601-1.437l2.62-1.39l2.64-1.339l1.319-0.645c0.594-0.29,1.302-0.021,1.579,0.6C964.351,274.158,964.093,274.896,963.499,275.187"
	/>
<path fill="#000100" stroke="#1D1B3A" stroke-width="0.8008" stroke-miterlimit="10" d="M978.062,297.686l-1.268,0.862l-2.565,1.709
	l-2.596,1.674l-2.618,1.64l-2.638,1.61l-2.656,1.578l-4.016,2.317l-5.409,3.012l-5.458,2.938l-8.243,4.303l-11.034,5.653
	l-8.246,4.252l-5.457,2.87l-5.41,2.93l-5.348,2.998l-3.964,2.307l-2.613,1.565l-2.595,1.6l-2.568,1.628l-1.271,0.823
	c-0.557,0.363-1.291,0.183-1.635-0.399c-0.346-0.583-0.176-1.347,0.382-1.708l1.293-0.836l2.596-1.643l2.617-1.614l2.641-1.583
	l3.994-2.322l5.38-3.017l5.433-2.939l5.476-2.885l8.251-4.254l11.018-5.644l8.218-4.29l5.43-2.921l5.376-2.993l3.991-2.304
	l2.635-1.564l2.613-1.596l2.59-1.621l2.566-1.656l2.545-1.692l1.267-0.864c0.55-0.373,1.285-0.213,1.646,0.361
	C978.767,296.542,978.612,297.311,978.062,297.686"/>
<path fill="#000100" stroke="#1D1B3A" stroke-width="0.8008" stroke-miterlimit="10" d="M984.329,313.333l-2.512,1.641l-5.086,3.219
	l-5.144,3.121l-5.194,3.04l-5.23,2.968l-5.261,2.911l-7.934,4.285l-10.612,5.626l-10.603,5.625l-7.901,4.273l-5.229,2.898
	l-5.19,2.954l-5.142,3.021l-2.548,1.536c-0.567,0.343-1.294,0.142-1.622-0.453c-0.329-0.592-0.134-1.351,0.433-1.694l2.573-1.55
	l5.171-3.038l5.213-2.965l5.249-2.911l7.917-4.282l10.602-5.623l10.6-5.62l7.911-4.273l5.24-2.898l5.202-2.951l5.161-3.021
	l5.109-3.101l5.053-3.196l2.512-1.643c0.557-0.363,1.29-0.189,1.636,0.394C985.052,312.205,984.885,312.968,984.329,313.333"/>
<path fill="#000100" stroke="#1D1B3A" stroke-width="0.8008" stroke-miterlimit="10" d="M988.533,327.451l-2.769,1.636l-5.596,3.183
	l-5.646,3.088l-5.684,2.997l-5.709,2.93l-5.729,2.88l-8.609,4.271l-8.6,4.259l-5.714,2.87l-5.687,2.908l-5.653,2.971l-5.608,3.054
	l-5.556,3.148l-4.127,2.438l-2.725,1.661l-2.713,1.701l-2.693,1.737l-1.334,0.878c-0.557,0.367-1.289,0.193-1.639-0.384
	c-0.352-0.578-0.186-1.347,0.369-1.71l1.355-0.895l2.719-1.755l2.736-1.714l2.757-1.68l4.161-2.459l5.591-3.17l5.639-3.064
	l5.676-2.984l5.703-2.918l5.725-2.874l8.599-4.261l8.598-4.261l5.711-2.873l5.688-2.917l5.652-2.982l5.609-3.062l5.565-3.171
	l2.771-1.634c0.571-0.334,1.294-0.125,1.616,0.47C989.306,326.359,989.106,327.114,988.533,327.451"/>
<g>
	<path fill="#DC4832" d="M655.421,335.015c11.668,7.721,80.883,109.41,102.694,109.41c29.469,0,37.754-57.952,37.672-64.203
		c-0.098-6.173,37.939,12.109,37.939,12.109s-26.661,92.828-81.007,84.758c-37.048-5.504-75.012-89.801-124.572-126.03"/>
	<g>
		<path fill="#1D1B3A" d="M654.41,336.744c2.953,2.028,5.333,5.273,7.633,7.968c4.303,5.038,8.416,10.24,12.533,15.43
			c10.914,13.755,21.703,27.608,32.918,41.121c10.284,12.392,20.839,24.905,33.027,35.489c8.47,7.354,16.584,12.333,27.745,7.367
			c9.889-4.4,15.955-15.261,20.014-24.724c4.268-9.952,6.988-20.609,8.658-31.293c0.404-2.587,0.85-5.253,0.851-7.88
			c0,1.097-1.073,0.714,0.455,0.736c0.977,0.016,1.951,0.267,2.897,0.482c2.643,0.602,5.221,1.518,7.769,2.432
			c8.112,2.911,16.037,6.46,23.806,10.188c-0.307-0.753-0.613-1.507-0.92-2.261c-6.277,21.76-16.873,43.801-31.448,61.162
			c-10.319,12.291-24.145,22.348-40.738,22.622c-17.08,0.283-30.071-12.585-40.85-24.336
			c-30.529-33.286-52.741-74.687-89.602-101.917c-2.08-1.537-4.074,1.941-2.021,3.457c36.458,26.934,58.756,68.181,88.791,101.291
			c9.89,10.902,22.404,23.373,37.795,25.15c15.737,1.818,29.951-4.712,41.455-15.085c13.424-12.104,22.863-28.503,30.331-44.765
			c3.934-8.565,7.532-17.446,10.148-26.516c0.232-0.808-0.127-1.881-0.92-2.261c-10.568-5.07-21.711-10.561-33.183-13.172
			c-3.487-0.794-7.607-0.956-7.786,3.507c-0.202,5.044-1.303,10.128-2.369,15.042c-3.218,14.827-8.586,33.227-21.499,42.56
			c-4.543,3.283-10.752,5.167-16.038,2.719c-5.052-2.34-9.397-6.254-13.463-9.974c-18.418-16.852-33.857-37.171-49.317-56.673
			c-7.213-9.099-14.337-18.27-21.67-27.271c-3.878-4.762-7.846-10.527-12.98-14.054C654.297,331.82,652.297,335.292,654.41,336.744
			L654.41,336.744z"/>
	</g>
</g>
</svg>
