<?xml version="1.0" encoding="utf-8"?>
<!-- Generator: Adobe Illustrator 16.0.4, SVG Export Plug-In . SVG Version: 6.00 Build 0)  -->
<!DOCTYPE svg PUBLIC "-//W3C//DTD SVG 1.1//EN" "http://www.w3.org/Graphics/SVG/1.1/DTD/svg11.dtd">
<svg version="1.1" id="char1-leftarm" xmlns="http://www.w3.org/2000/svg" xmlns:xlink="http://www.w3.org/1999/xlink" x="0px"
	 y="0px" width="1243.257px" height="1080.03px" viewBox="0 0 1243.257 1080.03" enable-background="new 0 0 1243.257 1080.03"
	 xml:space="preserve">
<path fill="#F4EDE1" d="M401.907,325.797c-6.556-11.824-15.624-22.477-30.643-19.104c-4.809,1.079-14.002,2.442-16.293,7.483
	c-2.25,4.951,1.242,8.903,3.597,13.003c-3.334,1.347-5.305,4.955-5.067,8.813c0.316,5.128,3.72,9.969,7.393,13.794
	c-1.62,1.021-1.444,3.858,0.532,4.485c1.362,2.438,4.047,3.791,6.91,5.107c1.723,0.793,3.695,2.118,5.642,2.271
	c0.525,0.041,2.04-0.269,2.809-0.693c0.793,0.144,1.59,0.253,2.396,0.302c5.276,0.321,10.728-1.317,14.773-4.705
	c2.041-1.711,3.438-3.797,4.82-6.021c1.849-2.971,4.838-5.538,6.232-8.751C407.349,336.382,404.538,330.541,401.907,325.797z"/>
<g>
	<g>
		<path fill="#EFEA77" d="M406.838,306.372c5.155-4.04,22.462-22.102,27.617-26.141c-5.677-5.633-52.523-35.512-59.164-40.184
			c-5.598,3.679-53.419,43.378-57.586,48.402c10.511,3.35,21.006,12.969,29.85,18.886c6.717,4.5,13.405,9.033,20.044,13.624
			c2.593,1.793,5.179,3.594,7.749,5.416c4.214,2.986,16.747-7.188,21.338-10.38"/>
		<g>
			<path fill="#1D1B3A" d="M408.254,307.788c9.875-7.949,17.742-18.194,27.617-26.142c0.84-0.676,0.725-2.135,0-2.831
				c-8.257-7.931-19.189-13.857-28.679-20.14c-10.274-6.802-20.786-13.301-30.89-20.357c-0.547-0.382-1.472-0.369-2.021,0
				c-10.194,6.848-19.483,15.456-28.894,23.308c-6.311,5.265-12.59,10.569-18.798,15.955c-3.468,3.009-7.297,5.956-10.299,9.453
				c-1.01,1.176-0.599,2.834,0.883,3.346c9.125,3.15,16.739,9.469,24.394,15.15c8.112,6.02,16.709,11.419,25.022,17.158
				c5.558,3.838,9.096,7.965,15.838,4.9c5.555-2.525,10.316-6.365,15.27-9.864c2.091-1.477,0.094-4.951-2.021-3.457
				c-4.379,3.092-8.602,6.375-13.329,8.936c-3.966,2.147-5.457,1.811-9.079-0.733c-4.089-2.871-8.213-5.694-12.339-8.512
				c-7.139-4.873-14.329-9.626-21.253-14.802c-6.681-4.993-13.488-9.893-21.438-12.637c0.294,1.116,0.589,2.231,0.883,3.346
				c2.818-3.282,6.394-6.047,9.641-8.88c5.862-5.114,11.811-10.128,17.775-15.122c9.685-8.11,19.259-17.03,29.765-24.087
				c-0.673,0-1.347,0-2.021,0c9.483,6.623,19.343,12.735,28.996,19.105c6.265,4.134,12.514,8.294,18.697,12.551
				c3.731,2.569,7.784,5.062,11.065,8.214c0-0.944,0-1.887,0-2.831c-9.875,7.948-17.743,18.192-27.617,26.141
				C403.411,306.576,406.263,309.39,408.254,307.788L408.254,307.788z"/>
		</g>
	</g>
	<g>
		<g>
			<path fill="#1D1B3A" d="M367.901,261.31c13.786,9.81,27.634,19.531,41.42,29.342c2.109,1.501,4.105-1.974,2.021-3.458
				c-13.785-9.81-27.634-19.531-41.419-29.342C367.813,256.352,365.817,259.826,367.901,261.31L367.901,261.31z"/>
		</g>
	</g>
	<g>
		<path fill="#F4EDE1" d="M371.516,364.268c0,0,24.946,7.35,34.367,7.35c6.289,0,8.454,5.978,11.791,10.579
			c3.337,4.598,2.444,16.508,2.444,16.508l17.113-10.828c0,0-3.189-49.712-8.398-61.316c-5.208-11.604-27.314-20.898-31.743-27.708
			c-4.43-6.81-4.295-16.8-8.418-16.8c-4.123,0-8.99,9.597-4.759,22.852c4.269,6.485,7.589,7.396,16.024,12.899
			c8.436,5.499-0.494,9.115-0.494,9.115"/>
		<g>
			<path fill="#1B1D3A" d="M370.983,366.199c9.575,2.812,19.338,5.429,29.216,6.903c2.505,0.374,5.145,0.253,7.609,0.791
				c3.862,0.843,6.096,6.383,8.137,9.314c2.864,4.115,2.504,10.685,2.171,15.497c-0.104,1.507,1.782,2.507,3.013,1.729
				c5.704-3.609,11.409-7.219,17.113-10.828c0.572-0.361,1.037-1.02,0.991-1.729c-0.821-12.715-1.986-25.428-3.612-38.064
				c-0.931-7.229-1.858-14.638-4.042-21.615c-2.437-7.79-9.414-12.982-15.776-17.537c-3.961-2.836-8.094-5.424-12.041-8.282
				c-4.393-3.181-6.442-6.664-8.115-11.877c-1.624-5.057-4.529-14.559-11.203-8.446c-6.275,5.749-5.295,19.909-0.693,26.051
				c2.588,3.454,6.088,5.765,9.712,8.002c1.826,1.126,9.789,4.788,7.489,7.465c-0.63,0.733-1.64,1.242-2.52,1.618
				c-2.369,1.012-0.326,4.46,2.021,3.457c1.889-0.807,3.996-2.318,4.717-4.32c1.567-4.354-2.559-7.181-5.746-9.232
				c-4.701-3.026-9.569-5.479-12.992-10.048c-3.582-4.779-3.126-15.629,0.844-20.161c2.214-2.526,3.31,2.751,3.742,4.145
				c0.729,2.354,1.381,4.742,2.375,7.002c1.752,3.981,4.051,6.597,7.511,9.178c8.3,6.192,18.501,11.068,24.667,19.655
				c4.074,5.674,4.542,14.453,5.52,21.121c1.342,9.165,2.232,18.4,3.037,27.626c0.414,4.741,0.791,9.487,1.1,14.237
				c-0.105-1.62,1.658-2.123-0.682-0.643c-1.344,0.851-2.688,1.701-4.033,2.552c-3.244,2.052-6.487,4.104-9.73,6.156
				c-0.558,0.354-1.117,0.707-1.675,1.061c1.004,0.576,2.009,1.152,3.013,1.729c0.349-5.033,0.43-11.204-1.798-15.846
				c-2.866-5.969-7.308-12.751-14.439-13.243c-11.467-0.792-22.833-4.047-33.835-7.278
				C369.564,361.608,368.511,365.473,370.983,366.199L370.983,366.199z"/>
		</g>
	</g>
	<g>
		<path fill="#DC4832" d="M597.151,343.901c-38.334,26.9-95.683,108.106-110.138,108.596c-29.451,0.996-37.754-57.952-37.672-64.202
			c0.096-6.175-37.94,12.109-37.94,12.109s26.662,92.829,81.008,84.754c37.048-5.501,65.994-52.985,99.796-92.454"/>
		<g>
			<path fill="#1D1B3A" d="M596.141,342.172c-15.634,11.081-28.968,25.323-41.901,39.354c-14.054,15.245-27.456,31.076-41.455,46.37
				c-5.166,5.645-10.422,11.249-16.126,16.358c-3.225,2.889-6.844,6.354-11.403,6.228c-16.526-0.455-24.584-21.924-28.585-34.912
				c-2.24-7.271-3.901-14.797-4.896-22.343c-0.471-3.566,0.337-7.97-4.442-8.207c-6.864-0.343-14.864,3.981-21,6.533
				c-5.372,2.234-10.695,4.604-15.94,7.122c-0.793,0.38-1.153,1.453-0.92,2.261c6.141,21.286,16.386,42.462,30.012,59.908
				c9.4,12.035,21.849,22.593,37.101,25.87c19.167,4.119,37.377-5.609,51.705-17.479c25.512-21.133,43.981-50.092,65.333-75.116
				c1.665-1.953-1.153-4.799-2.832-2.832c-18.038,21.142-34.103,44.036-53.469,64.024c-14.773,15.249-34.009,30.412-56.533,28.056
				c-16.41-1.717-29.751-13.982-39.356-26.495c-9.205-11.989-16.206-25.711-21.906-39.665c-2.314-5.667-4.495-11.449-6.193-17.336
				c-0.307,0.754-0.613,1.508-0.92,2.261c10.521-5.048,21.876-10.944,33.438-13.001c1.855-0.33,1.605,0.532,1.489-0.837
				c0.048,0.56,0.038,1.13,0.08,1.692c0.172,2.275,0.509,4.544,0.854,6.798c1.08,7.032,2.728,13.984,4.821,20.781
				c4.186,13.587,11.084,29.612,25.096,35.444c11.571,4.816,19.6-3.968,27.202-11.531c15.405-15.328,29.246-32.246,43.756-48.406
				c15.06-16.77,30.524-34.339,49.013-47.443C600.25,344.15,598.253,340.675,596.141,342.172L596.141,342.172z"/>
		</g>
	</g>
	<g>
		<g>
			<path fill="#1D1B3A" d="M396.386,321.797l-0.009-0.045c-0.65,0.649-1.338,1.27-2.062,1.856l0.026,0.319l0.007,0.77l-0.05,0.729
				l-0.106,0.679l-0.155,0.627l-0.204,0.573l-0.248,0.516l-0.288,0.459l-0.326,0.398l-0.359,0.338l-0.393,0.28l-0.429,0.227
				l-0.467,0.169l-0.511,0.111l-0.56,0.055l-0.612-0.016l-0.666-0.084l-0.721-0.167l-0.335-0.101l-0.18-0.06l-0.374-0.145
				l-0.394-0.177l-0.425-0.211l-0.455-0.243l-0.356-0.208c-0.926,0.343-1.866,0.633-2.817,0.884l0.408,0.279l0.571,0.37l0.558,0.341
				l0.542,0.313l0.526,0.281l0.512,0.251l0.498,0.219l0.467,0.177l0.2,0.066c0.013,0.007,0.028,0.011,0.042,0.016l0.511,0.146
				l0.951,0.204l0.921,0.102l0.887-0.002l0.848-0.102l0.804-0.204l0.751-0.302l0.689-0.396l0.624-0.479l0.553-0.552l0.479-0.62
				l0.408-0.68l0.335-0.732l0.264-0.777l0.194-0.823l0.123-0.861l0.055-0.897l-0.015-0.929l-0.083-0.962L396.386,321.797z"/>
			<g>
				<path fill="#1D1B3A" d="M396.989,321.631c-0.003-0.015-0.006-0.03-0.009-0.045c-0.093-0.478-0.728-0.582-1.044-0.276
					c-0.62,0.599-2.312,1.473-2.232,2.459c0.059,0.726-0.001,1.453-0.114,2.171c-0.225,1.432-1.06,2.653-2.433,3.15
					c-1.069,0.387-2.415,0.063-3.439-0.333c-0.516-0.2-1.013-0.466-1.49-0.744c-0.954-0.557-2.519,0.449-3.477,0.717
					c-0.549,0.153-0.584,0.845-0.149,1.143c2.87,1.966,7.18,4.134,10.627,2.156C397.033,329.846,397.619,325.648,396.989,321.631
					c-0.125-0.795-1.329-0.456-1.205,0.332c0.486,3.1,0.227,7.611-3.231,9.001c-3.343,1.344-6.573-0.29-9.32-2.172
					c-0.05,0.381-0.1,0.762-0.149,1.143c1.568-0.438,2.188-0.972,3.573-0.284c0.405,0.2,0.832,0.364,1.265,0.494
					c1.338,0.401,2.715,0.459,4.036-0.019c1.139-0.412,2.082-1.535,2.48-2.654c0.281-0.787,0.456-1.574,0.513-2.41
					c0.11-1.616,0.591-1.632,1.871-2.867c-0.348-0.093-0.696-0.185-1.044-0.276c0.003,0.015,0.006,0.03,0.009,0.045
					C395.938,322.754,397.143,322.418,396.989,321.631z"/>
			</g>
		</g>
		<g>
			<path fill="#1D1B3A" d="M362.416,330.899l-0.494,0.011l-0.943,0.046l-0.896,0.077l-0.852,0.112l-0.801,0.153l-0.744,0.197
				l-0.681,0.243l-0.614,0.287l-0.545,0.334l-0.473,0.383l-0.406,0.438l-0.342,0.494l-0.207,0.401l-0.12,0.286l-0.112,0.326
				l-0.097,0.354l-0.079,0.378l-0.061,0.408l-0.04,0.437l-0.021,0.466l0,0.231l-0.001-0.036l0.009,0.36l0.063,0.642l0.115,0.612
				l0.169,0.604l0.221,0.596l0.27,0.597l0.321,0.589l0.37,0.582l0.416,0.58l0.461,0.572l0.505,0.56l0.547,0.553l0.585,0.541
				l0.625,0.53l0.659,0.519l0.692,0.503l0.722,0.489l0.75,0.473l1.179,0.686l1.643,0.848l1.704,0.771l1.749,0.69l1.775,0.606
				l1.784,0.517l1.768,0.425l1.735,0.329l1.258,0.176l0.814,0.087l0.8,0.062l0.778,0.034l0.75,0.005l0.724-0.018l0.69-0.046
				l0.654-0.073l0.617-0.104l0.576-0.128l0.531-0.15l0.484-0.179l0.435-0.2l0.381-0.22l0.329-0.237l0.276-0.255l0.226-0.269
				l0.18-0.284l0.136-0.302l0.096-0.329l0.055-0.36l0.013-0.405l-0.037-0.451l-0.094-0.502l-0.155-0.555l-0.224-0.608l-0.296-0.659
				l-0.375-0.709l-0.456-0.76l-0.539-0.808l-0.295-0.412c-0.364-0.509-0.24-1.212,0.278-1.569s1.232-0.235,1.596,0.273l0,0
				l0.338,0.473l0.598,0.902l0.516,0.866l0.437,0.839l0.357,0.807l0.279,0.786l0.199,0.758l0.12,0.734l0.04,0.712l-0.045,0.684
				l-0.128,0.653l-0.214,0.616l-0.29,0.57l-0.361,0.52l-0.423,0.467l-0.476,0.411l-0.522,0.359l-0.564,0.314l-0.603,0.267
				l-0.636,0.225l-0.67,0.188l-0.701,0.151l-0.73,0.119l-0.757,0.083l-0.784,0.051l-0.809,0.021l-0.831-0.013l-0.851-0.037
				l-0.87-0.068l-0.894-0.095l-1.363-0.197l-1.846-0.349l-1.874-0.451l-1.885-0.551l-1.879-0.645l-1.853-0.736l-1.811-0.82
				l-1.742-0.903l-1.253-0.73l-0.812-0.514l-0.786-0.532l-0.758-0.555l-0.728-0.574l-0.695-0.593l-0.661-0.614l-0.622-0.631
				l-0.582-0.653l-0.539-0.674l-0.492-0.689l-0.444-0.714l-0.391-0.732l-0.334-0.75l-0.274-0.772l-0.21-0.788l-0.143-0.803
				l-0.072-0.792l-0.009-0.36c0-0.015,0-0.026,0-0.039l0.003-0.313l0.028-0.581l0.056-0.558l0.085-0.535l0.111-0.517l0.142-0.492
				l0.168-0.471l0.206-0.462l0.358-0.642l0.551-0.746l0.637-0.644l0.709-0.549l0.769-0.453l0.818-0.37l0.86-0.295l0.897-0.233
				l0.931-0.171l0.958-0.123l0.984-0.086l0.997-0.046l0.495-0.013c0.632-0.014,1.158,0.479,1.172,1.102
				C363.549,330.368,363.048,330.882,362.416,330.899"/>
			<g>
				<path fill="#1D1B3A" d="M362.416,330.274c-4.612,0.101-9.142,1.365-9.153,6.688c0.417,0,0.833,0,1.25,0
					c0-0.012,0-0.024-0.001-0.036c-0.022-0.805-1.271-0.807-1.25,0c0.165,6.388,7.236,10.736,12.484,12.808
					c4.685,1.85,14.767,5.541,19.378,1.288c1.404-1.295,1.147-3.358,0.431-4.95c-0.332-0.738-0.71-1.434-1.126-2.128
					c-0.625-1.042-0.29-2.3,0.598-0.961c1.142,1.722,2.045,3.548,2.162,5.638c0.484,8.709-16.616,3.926-20.216,2.691
					c-5.771-1.979-13.446-6.327-14.621-12.941c-0.349-1.963-0.025-3.948,0.942-5.682c0.881-1.579,2.755-2.453,4.42-2.886
					c0.873-0.228,1.765-0.354,2.664-0.432c-0.02,0.002,3.604,0.168,1.723,0.987c-0.737,0.321-0.1,1.398,0.631,1.08
					c1.012-0.441,2.398-2.403,0.614-3.085c-1.726-0.658-3.733-0.2-5.515,0.127c-3.003,0.552-5.623,2.572-6.482,5.547
					c-1.805,6.252,2.862,11.464,7.672,14.723c6.535,4.427,16.118,7.454,24.025,5.746c6.585-1.423,6.529-8.991,2.326-13.195
					c-1.448-1.447-4.167,0.225-2.855,2.054c1.017,1.419,2.22,3.122,2.366,4.923c0.265,3.265-4.751,3.231-6.897,3.138
					c-7.396-0.325-23.225-4.88-23.472-14.489c-0.417,0-0.833,0-1.25,0c0,0.012,0,0.024,0.001,0.036c0.022,0.805,1.249,0.808,1.25,0
					c0.01-4.545,4.024-5.354,7.903-5.438C363.221,331.506,363.223,330.256,362.416,330.274L362.416,330.274z"/>
			</g>
		</g>
		<g>
			<path fill="#1D1B3A" d="M362.786,351.133l-0.397,0.218l-0.674,0.411l-0.552,0.4l-0.45,0.392l-0.353,0.373l-0.26,0.355
				l-0.178,0.331l-0.105,0.308l-0.046,0.284l0.003,0.275l0.046,0.274l0.091,0.288l0.139,0.306l0.196,0.325l0.251,0.344l0.31,0.354
				l0.367,0.364l0.422,0.37l0.476,0.371l0.523,0.37l0.568,0.366l0.612,0.358l0.994,0.53l1.436,0.669l1.529,0.614l1.607,0.561
				l1.655,0.497l1.677,0.423l1.67,0.346l1.638,0.261l1.184,0.139l0.761,0.063l0.743,0.036l0.715,0.013l0.683-0.013l0.648-0.036
				l0.607-0.065l0.562-0.088l0.513-0.115l0.461-0.137l0.399-0.159l0.338-0.172l0.273-0.19l0.207-0.193l0.149-0.194l0.096-0.201
				l0.057-0.211l0.023-0.236l-0.014-0.283l-0.062-0.341l-0.123-0.405l-0.196-0.473l-0.277-0.53l-0.366-0.595l-0.459-0.648
				l-0.556-0.7l-0.308-0.362c-0.405-0.478-0.339-1.188,0.146-1.587c0.485-0.399,1.208-0.335,1.613,0.143l0.359,0.425l0.63,0.801
				l0.539,0.769l0.449,0.743l0.361,0.718l0.273,0.698l0.182,0.684l0.085,0.669l-0.017,0.65l-0.125,0.622l-0.228,0.576l-0.32,0.517
				l-0.395,0.445l-0.455,0.379l-0.502,0.321l-0.543,0.265l-0.582,0.22l-0.617,0.178l-0.65,0.138l-0.681,0.106l-0.713,0.072
				l-0.741,0.041l-0.767,0.012l-0.792-0.016l-0.812-0.042l-0.84-0.07l-1.284-0.148l-1.742-0.282l-1.771-0.369l-1.772-0.451
				l-1.753-0.527l-1.709-0.599l-1.642-0.664l-1.545-0.726l-1.082-0.577l-0.687-0.407l-0.653-0.423l-0.614-0.437l-0.574-0.454
				l-0.53-0.47l-0.483-0.49l-0.432-0.511l-0.375-0.535l-0.311-0.562l-0.24-0.593l-0.154-0.614l-0.059-0.631l0.044-0.635l0.147-0.627
				l0.249-0.606l0.341-0.579l0.43-0.555l0.516-0.527l0.603-0.51l0.691-0.49l0.767-0.467l0.399-0.22
				c0.552-0.304,1.25-0.109,1.558,0.435C363.538,350.142,363.339,350.83,362.786,351.133"/>
			<g>
				<path fill="#1D1B3A" d="M362.47,350.593c-5.778,3.166-2.182,7.108,2.354,9.222c4.097,1.908,15.233,6.347,19.486,2.375
					c1.729-1.615-0.138-4.154-1.243-5.546c-1.018-1.282,0.76-0.772,1.45,0.211c0.529,0.754,0.953,1.535,1.29,2.394
					c0.663,1.693-0.034,3.228-1.488,4.157c-2.819,1.803-7.757,0.937-10.742,0.314c-4.582-0.955-9.348-2.433-13.068-5.378
					c-1.292-1.022-2.5-2.549-2.378-4.28c0.067-0.97,0.6-1.827,1.265-2.506c0.433-0.443,0.921-0.809,1.426-1.166
					c-0.085,0.061,2.767-1.245,1.522,0.301c-0.5,0.622,0.378,1.513,0.884,0.885c0.601-0.748,1.282-3.365-0.686-3.138
					c-1.601,0.185-2.903,1.082-4.031,2.233c-1.844,1.885-2.149,4.508-0.617,6.69c4.24,6.043,14.613,8.105,21.446,8.24
					c6.447,0.127,10.006-4.033,5.987-9.763c-0.824-1.175-1.902-2.503-3.457-1.593c-1.756,1.028,0.057,2.888,0.724,3.829
					c2.13,3.01,0.248,3.958-2.868,4.016c-3.688,0.069-26.088-5.233-16.625-10.418C363.808,351.286,363.177,350.207,362.47,350.593
					L362.47,350.593z"/>
			</g>
		</g>
		<g>
			<path fill="#1D1B3A" d="M392.324,339.119l-0.087-0.458l-0.122-0.47l-0.155-0.486l-0.187-0.505l-0.22-0.523l-0.253-0.546
				l-0.288-0.567l-0.32-0.587l-0.355-0.61l-0.393-0.637l-0.427-0.661l-0.465-0.69l-0.249-0.356
				c-0.358-0.514-1.071-0.646-1.593-0.294c-0.522,0.351-0.655,1.055-0.297,1.567l0.231,0.331l0.439,0.651l0.402,0.618l0.364,0.591
				l0.326,0.56l0.29,0.527l0.254,0.499l0.22,0.468l0.186,0.439l0.152,0.405l0.121,0.369l0.091,0.337l0.062,0.305l0.037,0.267
				l0.016,0.234l-0.003,0.196l-0.018,0.163l-0.027,0.133l-0.033,0.11l-0.041,0.093l-0.051,0.084l-0.065,0.079l-0.087,0.078
				l-0.086,0.064L389.488,341l-0.418,0.12l-0.533,0.069l-0.639,0.005l-0.732-0.058l-0.813-0.125l-0.888-0.186l-0.953-0.248
				l-1.01-0.306l-1.061-0.363l-1.106-0.418l-1.145-0.467l-1.177-0.513l-1.204-0.557l-1.225-0.603l-1.236-0.636l-1.872-1.021
				l-2.506-1.473l-2.472-1.576l-1.804-1.235l-1.165-0.84l-1.131-0.854l-1.092-0.86l-1.047-0.864l-0.996-0.868l-0.94-0.866
				l-0.878-0.858l-0.811-0.852l-0.738-0.838l-0.661-0.82l-0.576-0.798l-0.488-0.766l-0.395-0.732l-0.302-0.689l-0.206-0.64
				l-0.116-0.582l-0.031-0.53l0.05-0.479l0.146-0.476l0.179-0.351l0.145-0.213l0.176-0.214l0.208-0.211l0.243-0.209l0.174-0.128
				c-0.516-0.559-1.001-1.139-1.457-1.741l-0.073,0.053l-0.377,0.313l-0.343,0.335l-0.307,0.355l-0.27,0.376l-0.319,0.571
				l-0.296,0.819l-0.146,0.884l0.009,0.906l0.149,0.908l0.272,0.909l0.381,0.904l0.48,0.907l0.569,0.907l0.652,0.913l0.732,0.912
				l0.803,0.917l0.871,0.917l0.934,0.916l0.991,0.914l1.044,0.91l1.091,0.902l1.132,0.895l1.171,0.883l1.205,0.868l1.85,1.268
				l2.535,1.617l2.576,1.516l1.937,1.057l1.284,0.663l1.266,0.623l1.249,0.578l1.225,0.535l1.197,0.489l1.163,0.437l1.128,0.389
				l1.087,0.331l1.042,0.273l0.993,0.213l0.943,0.147l0.891,0.076l0.839,0.002l0.791-0.083l0.739-0.18l0.548-0.224l0.359-0.206
				l0.31-0.232l0.283-0.273l0.247-0.31l0.207-0.347l0.16-0.369l0.112-0.396l0.067-0.407l0.025-0.42l-0.014-0.435L392.324,339.119z"
				/>
			<g>
				<path fill="#1D1B3A" d="M392.927,338.953c-0.356-1.878-1.25-3.605-2.246-5.221c-0.579-0.939-4.574-5.145-4.574-1.282
					c0,2.193,6.786,8.939,0.818,8.022c-7.152-1.1-14.056-5.587-19.916-9.6c-2.496-1.709-15.109-10.895-10.253-14.458
					c0.336-0.247,0.412-0.657,0.126-0.982c-0.514-0.556-1-1.137-1.457-1.741c-0.161-0.201-0.551-0.247-0.757-0.098
					c-9.762,7.076,9.792,20.149,15.008,23.219c3.529,2.077,24.613,13.707,23.273,2.307c-0.093-0.791-1.344-0.8-1.25,0
					c0.961,8.176-14.238,0.531-17.147-0.972c-7.004-3.618-18.373-10.08-20.803-18.204c-0.518-1.731-0.263-3.548,1.056-4.834
					c0.318-0.311,1.26,0.245,0.777,0.66c-0.361,0.311-0.727,0.804-0.868,1.265c-0.856,2.789,1.385,5.582,3.108,7.54
					c5.809,6.596,14.072,11.515,22.051,14.991c2.236,0.974,12.251,5.048,10.626-0.978c-0.219-0.812-0.616-1.586-0.995-2.33
					c-0.293-0.577-0.641-1.128-0.98-1.678c-0.197-0.32-0.411-0.632-0.621-0.944c-0.205-0.304-0.072-1.919,0.484-1.12
					c1.43,2.051,2.86,4.277,3.333,6.77C391.872,340.077,393.076,339.74,392.927,338.953z"/>
			</g>
		</g>
	</g>
</g>
</svg>
