<?xml version="1.0" encoding="utf-8"?>
<!-- Generator: Adobe Illustrator 16.0.4, SVG Export Plug-In . SVG Version: 6.00 Build 0)  -->
<!DOCTYPE svg PUBLIC "-//W3C//DTD SVG 1.1//EN" "http://www.w3.org/Graphics/SVG/1.1/DTD/svg11.dtd">
<svg version="1.1" id="char1_1_" xmlns="http://www.w3.org/2000/svg" xmlns:xlink="http://www.w3.org/1999/xlink" x="0px" y="0px"
	 width="1243.257px" height="1080.03px" viewBox="0 0 1243.257 1080.03" enable-background="new 0 0 1243.257 1080.03"
	 xml:space="preserve">
<g>
	<g>
		<ellipse fill="#D9D8DE" cx="625.529" cy="528.259" rx="83.962" ry="122.87"/>
		<g>
			<path fill="#23234E" d="M707.489,528.259c-0.194,43.512-16.923,100.17-61.898,117.217c-18.521,7.02-38.473,3.273-54.621-7.614
				c-18.595-12.535-30.792-33.229-38.196-53.941c-16.68-46.66-11.935-105.373,18.127-145.729
				c12.03-16.15,29.691-28.865,50.17-30.629c20.117-1.733,38.541,8.253,52.124,22.411
				C697.814,455.637,707.334,493.603,707.489,528.259c0.012,2.582,4.016,2.583,4.004,0c-0.191-42.977-15.363-94.152-55.216-116.669
				c-15.854-8.958-34.76-10.552-51.874-4.408c-18.387,6.601-32.662,21.356-42.84,37.593c-25.959,41.409-28.321,97.72-11.668,142.921
				c13.159,35.714,44.4,71.313,86.113,64.511c23.153-3.775,41.467-21.288,53.486-40.463c15.484-24.701,21.869-54.608,21.998-83.484
				C711.505,525.676,707.501,525.677,707.489,528.259z"/>
		</g>
	</g>
	<g>
		<path fill="#DC4832" d="M679.331,390.017c-9.935-36.407-27.079-65.924-27.079-65.924s-8.613,1.279-27.075,2.007
			c-18.484,0.699-31.629-4.333-31.629-4.333s1.156,10.331-5.803,36.915c-1.614,5.93-6.729,16.238-13.548,29.936
			c0,0,34.85,90.294,14.632,145.207c-18.172,49.321,93.417,32.613,99.548,21.761c8.93-15.773-26.848-50.036-27.255-75.258
			c-0.535-29.75,14.857-38.287,20.92-54.665C686.835,412.773,677.801,384.408,679.331,390.017z"/>
		<g>
			<path fill="#1D1B3A" d="M681.262,389.485c-6.342-22.9-15.348-45.783-27.281-66.402c-0.49-0.848-1.359-1.051-2.261-0.92
				c-17.909,2.61-39.926,4.334-57.64-2.326c-1.146-0.431-2.663,0.696-2.534,1.931c0.437,4.182-0.234,8.624-0.799,12.75
				c-1.552,11.35-3.981,22.812-8.674,33.291c-2.729,6.093-5.754,12.056-8.726,18.032c-0.931,1.873-1.353,2.568-0.705,4.31
				c1.487,3.998,2.846,8.045,4.158,12.104c5.561,17.198,9.952,34.803,12.949,52.629c3.674,21.857,5.249,44.846,0.557,66.669
				c-2.618,12.178-10.052,24.557-0.419,35.594c7.572,8.678,21.185,10.751,31.971,11.718c13.928,1.248,28.156,0.064,41.895-2.365
				c7.798-1.379,19.538-2.854,25.493-8.781c8.597-8.557-3.416-26.919-7.709-34.506c-4.594-8.116-9.461-16.08-13.388-24.552
				c-4.255-9.179-5.622-17.927-4.594-27.998c0.957-9.368,4.768-17.844,9.744-25.716c3.872-6.125,8.053-11.938,10.673-18.75
				c2.74-7.123,1.46-15.766,0.338-23.08c-0.718-4.682-1.306-10.508-3.426-14.833c-0.872-1.781-3.841-0.94-3.73,1.01
				c0.024,0.438,0.134,0.839,0.246,1.258C678.066,393.042,681.93,391.983,681.262,389.485c-0.044-0.165-0.151-1.041-0.104-0.193
				c-1.243,0.337-2.487,0.674-3.73,1.011c2.183,4.454,3.275,14.396,3.805,20.325c0.883,9.874-1.706,17.279-6.956,25.502
				c-4.815,7.543-9.667,14.763-12.447,23.36c-3.148,9.736-3.819,20.9-1.102,30.793c5.314,19.345,20.309,34.414,26.107,53.482
				c1.396,4.59,1.933,10.117-2.596,12.639c-3.951,2.2-8.573,3.341-12.928,4.421c-13.32,3.301-27.255,4.662-40.96,4.461
				c-11.809-0.173-26.588-1.244-35.978-9.334c-3.974-3.422-5.715-8.126-5.508-13.3c0.131-3.261,1.207-6.388,2.301-9.429
				c1.812-5.033,3.028-10.27,3.969-15.528c3.768-21.056,1.907-42.913-1.524-63.877c-3.598-21.971-9.372-43.845-17.107-64.732
				c-0.484-1.31-0.145-0.327,0.302-1.225c2.331-4.684,4.652-9.371,6.9-14.096c3.645-7.659,6.223-15.087,8.126-23.364
				c2.052-8.926,4.688-19.343,3.718-28.634c-0.845,0.644-1.689,1.287-2.534,1.931c18.472,6.945,40.608,5.118,59.769,2.326
				c-0.754-0.307-1.508-0.613-2.261-0.92c11.773,20.343,20.619,42.849,26.877,65.445
				C678.089,393.035,681.952,391.978,681.262,389.485z"/>
		</g>
	</g>
	<g>
		<g>
			<path fill="#1B1D3A" d="M622.924,441.388c-6.15-2.001-12.093-4.45-17.804-7.491c-2.278-1.213-4.301,2.243-2.021,3.457
				c6.012,3.201,12.286,5.79,18.761,7.896C624.322,446.05,625.368,442.183,622.924,441.388L622.924,441.388z"/>
		</g>
	</g>
	<g>
		<g>
			<path fill="#D9D8DE" d="M631.528,847.583l-1.113-248.867l-30.076-1.931l6.028,247.183l-119.398,66.644l0.72,18.426
				l119.551-49.273l0.438,18.052l13.03-2.613l23.528,23.87c-0.558-0.188-1.128-0.31-1.712-0.31c-5.768,0-10.443,9.518-10.443,21.259
				s4.676,21.26,10.443,21.26c5.767,0,10.442-9.519,10.442-21.26c0-6.064-1.252-11.521-3.253-15.393l14.124,14.328l0.292-18.424
				l-25.652-35.246l102.711,42.333l0.72-18.425L631.528,847.583z"/>
		</g>
		<g>
			<ellipse fill="#D9D8DE" cx="500.651" cy="945.69" rx="10.442" ry="21.259"/>
		</g>
		<g>
			<ellipse fill="#D9D8DE" cx="707.341" cy="939.313" rx="10.442" ry="21.259"/>
		</g>
	</g>
	<path fill="#1D1B3A" stroke="#1B1D3A" stroke-width="0.8008" stroke-linecap="round" stroke-miterlimit="10" d="M590.306,535.6
		c0,0-51.072,79.354,7.06,127.023c58.133,47.67,77.511,79.45,77.511,79.45l79.153-24.101c0,0-39.497-95.265-69.24-181.055
		C684.1,534.931,590.306,535.6,590.306,535.6z"/>
	<path fill="#1D1B3A" stroke="#1B1D3A" stroke-width="0.8008" stroke-linecap="round" stroke-miterlimit="10" d="M740.695,685.971
		c9.75,19.252,24.084,31.169,13,48.502c-45.539,53.011-95.611,117.552-110.871,141.263c-23.854,37.137-4.955,79.54,2.8,93.962
		c13.715,25.585-36.421,21.625-35.812-42.655c0.252-25.889,2.625-36.86,2.625-36.86l-23.203,23.98l-8.542-10.561
		c0,0,25.636-35.866,31.501-37.544c5.885-1.654,22.189-0.558,22.189-0.558s39.103-124.775,73.276-157.212
		c26.116-24.844,30.871-27.15,30.871-27.15"/>
	<path fill="#1D1B3A" stroke="#1B1D3A" stroke-width="0.8008" stroke-linecap="round" stroke-miterlimit="10" d="M736.862,701.805
		c-17.285,0.065-135.946,157.118-160.417,195.144c-23.853,37.14-4.955,79.541,2.801,93.964
		c13.713,25.584-36.421,21.623-35.812-42.657c0.253-25.887,2.623-36.858,2.623-36.858l-23.202,23.979l-8.542-10.559
		c0,0,25.636-35.865,31.5-37.545c5.888-1.653,22.19-0.558,22.19-0.558s39.104-124.774,73.278-157.211
		c26.114-24.845,72.189-57.187,72.189-57.187"/>
</g>
</svg>
