<?xml version="1.0" encoding="utf-8"?>
<!-- Generator: Adobe Illustrator 16.0.4, SVG Export Plug-In . SVG Version: 6.00 Build 0)  -->
<!DOCTYPE svg PUBLIC "-//W3C//DTD SVG 1.1//EN" "http://www.w3.org/Graphics/SVG/1.1/DTD/svg11.dtd">
<svg version="1.1" id="char1-head" xmlns="http://www.w3.org/2000/svg" xmlns:xlink="http://www.w3.org/1999/xlink" x="0px" y="0px"
	 width="1243.257px" height="1080.03px" viewBox="0 0 1243.257 1080.03" enable-background="new 0 0 1243.257 1080.03"
	 xml:space="preserve">
<g>
	<g>
		<path fill="#DC4832" d="M699.963,212.346c-13.688,6.272-14.208,28.188,2.55,23.802c5.061-1.247,12.209-6.254,11.181-13.775
			c-0.494-7.519-9.67-9.382-14.732-11.272"/>
		<g>
			<path fill="#1B1D3A" d="M698.952,210.617c-6.494,3.223-10.789,9.531-11.145,16.802c-0.312,6.399,4.18,10.942,10.384,11.305
				c7.454,0.436,17.062-5.688,17.526-13.65c0.601-10.278-8.132-12.999-16.225-15.903c-2.437-0.875-3.476,2.996-1.064,3.861
				c4.87,1.748,12.437,3.158,13.263,9.342c1.002,7.499-6.952,12.208-13.5,12.346c-5.252,0.112-6.9-4.959-6.175-9.318
				c0.844-5.073,4.471-9.101,8.957-11.327C703.287,212.927,701.258,209.473,698.952,210.617L698.952,210.617z"/>
		</g>
	</g>
	<g>
		<path fill="#1D1B3A" d="M646.391,21.133c43.69-23.638,91.837,21.408,106.215,58.973c23.132,59.514-32.358,100.755-59.165,148.969
			c-9.606,17.529-4.466,41.023,18.233,43.877c-7.623,12.44-28.132,9.522-40.613,6.336c-7.368-1.924-14.748-5.261-21.454-9.336
			c-5.201-2.708-14.276-13.171-19.402-13.739c-5.153-1.245-12.201,6.861-17.892,9.917c-12.912,6.877-27.392,10.208-41.131,13.526
			c-14.483,2.611-41.48,1.347-47.306-19.287c72.814-3.768-9.94-80.004-16.364-97.03c-22.522-63.833-4.657-129.982,57.59-154.642
			c45.278-17.965,85.433,5.121,84.925,11.602"/>
		<g>
			<path fill="#1D1B3A" d="M647.401,22.862C693.642-1.4,743.922,49.647,754.22,92.026c11.528,47.438-30.006,86.375-53.942,122.103
				c-7.56,11.283-14.922,22.993-13.108,37.142c1.651,12.888,11.338,21.768,23.973,23.613c-0.398-0.98-0.798-1.961-1.196-2.941
				c-5.094,7.674-14.794,8.446-23.208,7.98c-9.695-0.537-19.359-3.284-28.123-7.362c-8.24-3.836-14.05-9.587-21.247-14.863
				c-6.406-4.696-11.125-4.045-17.469,0.536c-3.365,2.43-6.449,5.054-10.153,6.977c-5.535,2.875-11.449,4.964-17.387,6.833
				c-8.921,2.807-18.407,5.679-27.761,6.428c-14.901,1.193-33.795-2.404-38.791-18.633c-0.644,0.845-1.287,1.689-1.931,2.534
				c11.962-0.698,28.417-3.439,31.384-17.408c2.568-12.091-5.481-25.235-11.636-34.942c-7.912-12.481-17.437-23.823-26.405-35.535
				c-2.777-3.627-5.796-7.353-7.719-11.528c-4.791-10.409-6.839-23.247-8.257-34.529c-4.962-39.487,7.563-80.501,40.433-104.687
				c19.025-13.999,42.589-21.22,66.171-19.419c9.68,0.739,19.408,3.207,28.236,7.248c2.534,1.16,11.932,5.136,11.941,8.728
				c0.007,2.582,4.011,2.583,4.004,0c-0.012-4.386-5.733-7.639-8.929-9.567c-7.938-4.789-17.167-7.554-26.221-9.232
				c-24.938-4.622-50.332,1.728-71.644,15.003c-37.727,23.502-52.73,67.793-48.157,110.543c1.62,15.15,4.375,32.458,13.437,45.104
				c7.661,10.693,16.267,20.679,23.907,31.396c7.29,10.227,15.973,22.413,17.166,35.311c1.436,15.519-15.698,18.809-27.712,19.51
				c-1.257,0.073-2.332,1.229-1.931,2.534c4.9,15.918,21.045,21.313,36.279,21.742c8.681,0.244,16.799-1.792,25.153-3.924
				c11.166-2.849,23.515-6.164,33.066-12.871c3.702-2.599,7.048-6.073,11.404-7.569c4.198-1.442,9.392,4.363,12.136,6.723
				c8.069,6.939,17.008,11.861,27.145,15.231c14.048,4.669,36.702,8.152,46.273-6.271c0.657-0.99,0.06-2.757-1.196-2.941
				c-10.922-1.595-18.711-8.274-20.927-19.207c-2.236-11.031,3.123-20.88,8.726-29.898c12.267-19.746,27.604-37.374,40.232-56.88
				c11.631-17.964,20.573-38.098,19.811-59.897c-0.777-22.236-12.16-42.96-26.394-59.472C712.06,20.616,677.327,2.642,645.38,19.404
				C643.093,20.604,645.117,24.06,647.401,22.862L647.401,22.862z"/>
		</g>
	</g>
	<g>
		<path fill="#F4EDE1" d="M644.112,335.015c-13.898,0-27.839-0.84-41.902-1.866c0.601-11.352,16.477-37.936,1.899-51.097
			c-50.875-45.928-100.243-239.668,21.92-246.404c139.097-7.671,85.582,190.949,40.384,238.268
			C638.499,303.218,636.195,322.438,644.112,335.015z"/>
		<g>
			<path fill="#1B1D3A" d="M644.112,333.013c-13.991-0.038-27.951-0.856-41.902-1.866c0.667,0.667,1.335,1.335,2.002,2.002
				c1.336-16.972,16.823-37.552,1.313-52.512c-8.744-8.434-15.656-18.134-21.661-28.678c-15.485-27.188-25.113-58.151-29.713-89.013
				c-4.381-29.396-4.309-62.559,10.289-89.305c15.639-28.653,46.865-37.958,77.817-35.913c14.748,0.975,29.281,5.304,41.246,14.151
				c10.507,7.769,17.92,19.082,22.562,31.164c10.52,27.381,8.511,58.842,3.182,87.115c-5.332,28.295-14.85,56.511-29.261,81.511
				c-2.821,4.895-5.905,9.642-9.311,14.151c-5.376,7.119-11.942,13.229-17.409,20.294c-9.563,12.357-19.781,30.055-12.908,46.005
				c0.585,1.356,1.255,2.646,2.025,3.907c1.343,2.199,4.807,0.188,3.457-2.021c-10.468-17.14,3.64-37.291,14.479-50.315
				c4.767-5.728,10.103-10.868,14.563-16.849c3.422-4.588,6.457-9.46,9.293-14.428c14.235-24.936,23.532-53.073,28.932-81.19
				c5.401-28.123,7.157-58.741-2.108-86.263c-8.729-25.927-28.796-44.039-55.667-49.513c-29.22-5.952-63.534-0.702-84.37,22.116
				c-19.395,21.239-23.858,52.221-23.095,79.9c0.877,31.77,8.711,63.728,21.045,92.942c5.438,12.881,11.84,25.417,19.875,36.885
				c3.262,4.657,6.84,9.114,10.803,13.193c2.577,2.652,5.262,4.834,6.979,8.216c2.615,5.149,1.788,11.762,0.752,17.186
				c-1.753,9.178-6.378,17.915-7.113,27.264c-0.09,1.146,0.982,1.929,2.002,2.002c13.951,1.01,27.911,1.828,41.902,1.866
				C646.694,337.024,646.694,333.02,644.112,333.013z"/>
		</g>
	</g>
	<g>
		<path fill="#1B1D3A" d="M735.554,125.184c15.754-9.479-2.505-30.768-5.266-48.604c-4.736-32.136-34.318-45.527-64.266-46.709
			l0.697-0.737c-4.795-13.46-15.855-16.707-28.961-16.278c-18.218,0.587-52.379,3.121-65.765,17.194
			c-15.46,16.282-15.992,44.261-21.148,65.237c-4.464,18.798-1.182,29.438-22.036,38.016c23.83,15.014,72.041-3.062,94.232-15.968
			c15.038-8.364,51.396-47.097,47.797-67.785C671.358,65.319,718.008,135.77,735.554,125.184z"/>
		<g>
			<path fill="#1B1D3A" d="M736.564,126.913c9.806-6.386,7.673-16.966,4.12-26.516c-2.402-6.458-5.368-12.675-7.333-19.294
				c-1.883-6.341-2.501-12.702-5.113-18.872c-10.208-24.104-38.085-33.259-62.216-34.362c0.472,1.139,0.943,2.278,1.416,3.417
				c0.232-0.246,0.465-0.491,0.697-0.737c0.457-0.484,0.768-1.285,0.515-1.948c-7.239-18.946-25.944-18.35-43.194-17.104
				c-17.811,1.287-39.282,3.542-53.365,15.672c-16.219,13.969-17.733,39.942-21.421,59.427c-1.696,8.963-3.265,18.135-5.387,27.005
				c-2.246,9.384-8.927,14.335-17.484,17.973c-1.448,0.615-1.156,2.758,0,3.457c14.231,8.602,32.437,6.464,47.903,3.008
				c17.085-3.817,33.743-10.631,48.924-19.304c12.494-7.137,23.163-19.423,31.816-30.663c8.14-10.571,18.432-24.876,16.327-39.055
				c-0.333-2.243-4.054-1.699-3.933,0.532c0.387,7.107,4.528,14.245,7.805,20.358c5.581,10.41,12.228,20.29,19.431,29.64
				c6.504,8.441,13.615,16.645,22.156,23.089C723.225,126.406,730.416,130.355,736.564,126.913c2.253-1.261,0.234-4.72-2.021-3.458
				c-5.427,3.039-12.559-2.784-16.479-6.005c-7.829-6.43-14.43-14.456-20.506-22.51c-6.277-8.321-11.986-17.106-17.015-26.236
				c-3.095-5.62-7.343-12.557-7.702-19.153c-1.311,0.177-2.622,0.355-3.933,0.532c1.98,13.345-9.47,27.875-17.188,37.562
				c-8.136,10.212-17.813,20.856-29.115,27.634c-13.505,8.099-28.676,13.893-43.86,17.898c-15.351,4.049-34.571,7.074-48.925-1.602
				c0,1.152,0,2.305,0,3.457c6.975-2.964,13.381-6.932,16.976-13.822c3.222-6.177,3.656-13.616,4.91-20.351
				c1.81-9.724,3.906-19.392,5.678-29.13c1.896-10.423,4.235-20.907,9.089-30.398c9.335-18.259,29.958-22.49,48.671-24.827
				c16.777-2.095,42.092-6.606,49.646,13.164c0.172-0.649,0.344-1.299,0.515-1.948c-0.232,0.246-0.465,0.491-0.697,0.737
				c-1.229,1.299-0.332,3.338,1.416,3.417c22.002,1.005,45.648,8.56,57.033,28.86c2.834,5.052,4.39,10.694,5.302,16.379
				c0.931,5.802,3.174,11.292,5.386,16.702c3.58,8.756,11.272,22.821,0.8,29.641C732.389,124.858,734.394,128.327,736.564,126.913z"
				/>
		</g>
	</g>
	<g>
		<g>
			<path fill="#1B1D3A" d="M658.793,145.158c-1.438,5.729-1.729,13.224,3.815,16.909c4.037,2.684,9.174,0.609,11.464-3.279
				c2.61-4.433,2.139-12.262-1.474-15.955c-1.854-1.895-4.312-3.826-7.05-4.044C661.692,138.479,659.717,141.919,658.793,145.158
				c-0.71,2.488,3.154,3.543,3.861,1.064c0.609-2.136,1.473-4.221,3.902-3.036c1.509,0.736,2.763,1.959,3.882,3.186
				c0.123,0.136,0.244,0.275,0.362,0.416c-0.592-0.7-0.035,0.494,0.07,0.85c0.382,1.289,0.623,2.609,0.712,3.949
				c0.126,1.894-0.156,3.8-1.127,5.449c-1.34,2.275-3.956,2.817-6.055,1.422c-3.663-2.435-2.613-8.785-1.747-12.235
				C663.283,143.717,659.421,142.654,658.793,145.158z"/>
		</g>
	</g>
	<g>
		<g>
			<path fill="#1B1D3A" d="M603.927,145.437c-1.399,6.275-1.661,14.358,4.17,18.534c4.156,2.976,9.547,0.773,11.846-3.358
				c2.694-4.843,2.149-13.31-1.607-17.394c-1.936-2.104-4.461-4.228-7.392-4.588C606.827,138.124,604.798,142.045,603.927,145.437
				c-0.643,2.503,3.22,3.564,3.861,1.064c0.525-2.045,1.315-4.751,3.853-3.558c1.729,0.813,3.142,2.273,4.386,3.688
				c0.15,0.17,0.296,0.345,0.439,0.521c0.268,0.327-0.481-1.019-0.013,0.468c0.504,1.6,0.85,3.252,0.989,4.923
				c0.18,2.164-0.049,4.416-1.117,6.335c-1.275,2.292-4.104,3.29-6.266,1.601c-4.003-3.125-3.228-9.693-2.271-13.978
				C608.35,143.985,604.489,142.917,603.927,145.437z"/>
		</g>
	</g>
	<g>
		<g>
			<path fill="#1B1D3A" d="M639.54,151.571c-2.9,14.917,9.422,21.437,16.554,32.392c0.239-0.913,0.479-1.826,0.718-2.739
				c-5.421,2.371-11.877,3.16-17.128-0.012c-2.217-1.338-4.228,2.125-2.021,3.458c6.555,3.958,14.426,2.961,21.171,0.012
				c0.968-0.424,1.263-1.903,0.718-2.739c-6.2-9.526-18.675-16.321-16.149-29.307C643.892,150.113,640.032,149.038,639.54,151.571
				L639.54,151.571z"/>
		</g>
	</g>
	<g>
		<g>
			<path fill="#1B1D3A" d="M594.087,144.015c2.495,2.967,5.906,5.251,9.751,5.974c2.523,0.474,3.601-3.385,1.064-3.861
				c-3.246-0.61-5.881-2.442-7.983-4.943C595.255,139.205,592.438,142.053,594.087,144.015L594.087,144.015z"/>
		</g>
	</g>
	<g>
		<g>
			<path fill="#1B1D3A" d="M672.846,144.789c0.06,1.335,0.823,2.228,2.168,2.393c0.874,0.107,1.689-0.561,2.286-1.103
				c1.236-1.124,2.213-2.515,3.391-3.699c1.822-1.832-1.009-4.663-2.832-2.831c-0.778,0.782-1.484,1.633-2.215,2.459
				c-0.342,0.386-0.69,0.766-1.059,1.128c-0.093,0.091-0.628,0.514-0.133,0.148c-0.533,0.395,0.8-0.077,0.562-0.106
				c0.337,0.091,0.674,0.182,1.011,0.273c0.518,0.342,0.793,0.788,0.825,1.338C676.735,142.217,672.73,142.207,672.846,144.789
				L672.846,144.789z"/>
		</g>
	</g>
	<g>
		<path fill="#DC4832" d="M559.936,212.346c-13.685,6.272-14.208,28.188,2.551,23.802c5.062-1.247,12.209-6.254,11.181-13.775
			c-0.492-7.519-9.668-9.382-14.732-11.272"/>
		<g>
			<path fill="#1B1D3A" d="M558.925,210.617c-6.493,3.224-10.787,9.532-11.143,16.802c-0.313,6.399,4.179,10.942,10.383,11.305
				c7.454,0.437,17.062-5.688,17.526-13.65c0.601-10.279-8.13-12.999-16.225-15.903c-2.437-0.874-3.477,2.996-1.064,3.861
				c4.87,1.748,12.438,3.157,13.263,9.342c1,7.5-6.95,12.208-13.5,12.346c-5.252,0.112-6.899-4.959-6.174-9.318
				c0.844-5.072,4.47-9.101,8.955-11.327C563.259,212.926,561.229,209.473,558.925,210.617L558.925,210.617z"/>
		</g>
	</g>
	<g>
		<g>
			<path fill="#1D1B3A" d="M636.11,247.996c4.164,6.801,14.973,8.799,18.072,0.076c0.866-2.439-3.003-3.479-3.861-1.064
				c-1.899,5.347-8.542,2.58-10.754-1.032C638.222,243.777,634.758,245.787,636.11,247.996L636.11,247.996z"/>
		</g>
	</g>
	<g>
		<path fill="#DC4832" d="M629.637,217.263c31.611-2.022,22.437,12.674,18.035,13.395c-5.829,1.066-17.007-7.086-18.948-12.226"/>
		<g>
			<path fill="#1B1D3A" d="M629.637,219.265c2.935-0.168,24.075-1.396,20.367,6.706c-3.798,8.298-17.452-3.692-19.552-8.55
				c-1.021-2.365-4.471-0.324-3.457,2.021c3.394,7.854,20.179,19.784,26.326,8.825c1.757-3.132,1.205-6.822-1.47-9.226
				c-5.505-4.945-15.507-4.165-22.215-3.78C627.07,215.409,627.056,219.414,629.637,219.265L629.637,219.265z"/>
		</g>
	</g>
	<g>
		<path fill="#DC4832" d="M623.181,206.804c5.544,14.823,42.213,7.625,35.458-1.11c-2.178-3.116-16.641-1.525-20.129,0.022
			c-3.448,1.872-7.52,7.406-14.698,1.7"/>
		<g>
			<path fill="#1B1D3A" d="M621.25,207.336c5.413,12.924,28.851,13.02,38.243,4.667c1.684-1.498,2.419-3.849,1.609-5.973
				c-1.174-3.081-4.269-3.67-7.21-4.009c-4.588-0.528-9.562,0.135-14.042,1.167c-6.084,1.403-8.216,7.323-15.028,2.499
				c-2.113-1.496-4.11,1.978-2.021,3.457c3.231,2.288,6.419,3.407,10.291,2.194c2.915-0.913,4.876-3.499,7.823-4.289
				c1.715-0.459,19.258-2.125,16.104,1.752c-3.135,3.853-10.676,4.378-15.163,4.532c-5.798,0.198-14.182-0.944-16.744-7.062
				C624.129,203.927,620.253,204.955,621.25,207.336L621.25,207.336z"/>
		</g>
	</g>
</g>
</svg>
