<?xml version="1.0" encoding="utf-8"?>
<!-- Generator: Adobe Illustrator 16.0.4, SVG Export Plug-In . SVG Version: 6.00 Build 0)  -->
<!DOCTYPE svg PUBLIC "-//W3C//DTD SVG 1.1//EN" "http://www.w3.org/Graphics/SVG/1.1/DTD/svg11.dtd">
<svg version="1.1" id="table" xmlns="http://www.w3.org/2000/svg" xmlns:xlink="http://www.w3.org/1999/xlink" x="0px" y="0px"
	 width="1243.257px" height="1080.03px" viewBox="0 0 1243.257 1080.03" enable-background="new 0 0 1243.257 1080.03"
	 xml:space="preserve">
<g>
	<polygon fill="#D9D8DE" points="119.604,1066.344 89.463,1065.561 60.892,688.155 106.103,688.155 	"/>
	<g>
		<path fill="#23234E" d="M119.604,1064.342c-10.047-0.262-20.094-0.522-30.141-0.783c0.667,0.667,1.335,1.335,2.002,2.002
			c-2.711-35.808-5.421-71.616-8.132-107.424c-4.807-63.488-9.613-126.976-14.419-190.464c-2.006-26.506-4.013-53.013-6.02-79.519
			c-0.667,0.667-1.334,1.335-2.002,2.002c15.07,0,30.141,0,45.211,0c-0.667-0.667-1.335-1.335-2.002-2.002
			c1.281,35.883,2.562,71.765,3.843,107.647c2.271,63.619,4.542,127.239,6.814,190.858c0.948,26.562,1.896,53.122,2.845,79.684
			c0.092,2.574,4.096,2.583,4.004,0c-1.281-35.883-2.562-71.765-3.843-107.646c-2.271-63.62-4.542-127.24-6.814-190.859
			c-0.948-26.562-1.896-53.122-2.845-79.684c-0.039-1.091-0.881-2.002-2.002-2.002c-15.07,0-30.141,0-45.211,0
			c-1.029,0-2.084,0.912-2.002,2.002c2.711,35.808,5.421,71.616,8.132,107.424c4.807,63.488,9.613,126.976,14.419,190.464
			c2.006,26.506,4.013,53.013,6.02,79.519c0.084,1.11,0.848,1.973,2.002,2.002c10.047,0.262,20.094,0.522,30.141,0.783
			C122.188,1068.414,122.181,1064.409,119.604,1064.342z"/>
	</g>
</g>
<g>
	<polygon fill="#D9D8DE" points="1168.597,1077.309 1198.738,1078.027 1211.868,712.628 1166.657,712.628 	"/>
	<g>
		<path fill="#23234E" d="M1168.597,1079.311c10.047,0.239,20.095,0.479,30.142,0.718c1.12,0.026,1.964-0.932,2.002-2.002
			c1.319-36.716,2.639-73.432,3.958-110.147c2.266-63.039,4.53-126.077,6.796-189.115c0.792-22.046,1.584-44.091,2.376-66.136
			c0.039-1.091-0.94-2.002-2.002-2.002c-15.07,0-30.141,0-45.211,0c-1.087,0-2.008,0.91-2.002,2.002
			c0.195,36.756,0.391,73.513,0.586,110.269c0.335,62.993,0.67,125.987,1.006,188.98c0.115,21.811,0.231,43.621,0.348,65.432
			c0.014,2.581,4.018,2.583,4.004,0c-0.195-36.756-0.391-73.513-0.586-110.269c-0.335-62.993-0.67-125.987-1.006-188.981
			c-0.115-21.81-0.231-43.62-0.348-65.431c-0.667,0.667-1.335,1.335-2.002,2.002c15.07,0,30.141,0,45.211,0
			c-0.667-0.667-1.335-1.335-2.002-2.002c-1.319,36.716-2.639,73.432-3.958,110.147c-2.266,63.039-4.53,126.077-6.796,189.115
			c-0.792,22.045-1.584,44.091-2.376,66.136c0.667-0.667,1.335-1.335,2.002-2.002c-10.047-0.239-20.095-0.479-30.142-0.718
			C1166.013,1075.246,1166.019,1079.25,1168.597,1079.311z"/>
	</g>
</g>
<g>
	<polygon fill="#D9D8DE" points="269.576,922.61 244.552,921.843 220.831,552.483 258.367,552.483 	"/>
</g>
<g>
	<polygon fill="#D9D8DE" points="979.459,917.621 1004.482,918.323 1015.385,560.714 977.85,560.714 	"/>
</g>
<polygon fill="#D9D8DE" points="1238.782,722.128 1.358,721.312 0.082,701.188 238.202,533.353 1002.203,538.2 1238.782,695.747 "/>
<path fill="#F9FCFC" d="M715.825,563.194l149.16-1.383L977.395,669.3c0,0-175.716,5.123-193.99,2.036
	C765.127,668.249,715.825,563.194,715.825,563.194z"/>
<path fill="#23234E" d="M516.338,597.124c0,0,1.119,7.459,7.414,8.347c6.294,0.887,63.729-14.064,63.729-14.064
	s50.443-14.537,51.156-15.896c0.712-1.358-2.938-9.239-2.938-9.239l-59.731,14.631l-4.971-2.653L516.338,597.124z"/>
<g>
	<path fill="#1D1B3A" d="M635.555,568.186l-1.938,0.222l-3.835,0.518l-3.808,0.608l-3.797,0.692l-3.783,0.769l-3.772,0.835
		l-5.649,1.354l-7.51,1.946l-7.498,2.039l-7.506,2.054l-7.528,1.993l-3.782,0.953c-0.782,0.198-1.576-0.267-1.774-1.034
		c-0.2-0.769,0.271-1.549,1.051-1.745l0,0l3.748-0.943l7.505-1.988l7.511-2.057l7.531-2.047l7.562-1.959l5.7-1.365l3.823-0.846
		l3.841-0.779l3.859-0.704l3.881-0.62l3.894-0.523l1.938-0.222c0.801-0.091,1.524,0.471,1.617,1.26
		C636.928,567.382,636.355,568.096,635.555,568.186"/>
	<path fill="#1D1B3A" d="M638.532,565.583l0.123,0.491l0.283,1.057l0.306,1.185l0.271,1.286l0.177,1.346l0.03,1.058l-0.05,0.731
		l-0.12,0.708l-0.202,0.707l-0.302,0.692l-0.41,0.666l-0.286,0.36c-0.029,0.038-0.062,0.074-0.098,0.108l-0.058,0.058l-0.311,0.251
		l-0.354,0.227l-0.375,0.202l-0.415,0.198l-0.46,0.207l-0.51,0.213l-0.558,0.225l-0.608,0.231l-0.658,0.247l-0.704,0.252
		l-0.753,0.266l-1.208,0.413l-1.757,0.586l-1.911,0.618l-2.05,0.646l-2.167,0.667l-2.273,0.688l-2.36,0.706l-2.435,0.715
		l-3.748,1.082l-5.098,1.441l-5.092,1.405l-3.735,1.009l-2.42,0.641l-2.343,0.614l-2.251,0.578l-2.146,0.542l-2.016,0.499
		l-1.879,0.451l-1.309,0.305l-0.82,0.189l-0.773,0.172l-0.731,0.158l-0.682,0.143l-0.632,0.126l-0.583,0.113l-0.531,0.095
		l-0.479,0.077l-0.427,0.059l-0.205,0.027c-0.8,0.093-1.525-0.467-1.622-1.256c-0.096-0.784,0.474-1.499,1.273-1.595l0,0
		l0.144-0.017l0.366-0.051l0.433-0.068l0.494-0.09l0.555-0.104l0.608-0.123l0.662-0.14l0.713-0.152l0.76-0.17l0.806-0.184
		l1.289-0.302l1.859-0.447l2.004-0.496l2.13-0.539l2.24-0.574l2.333-0.612l2.408-0.639l3.72-1.003l5.073-1.4l5.08-1.434l3.737-1.08
		l2.422-0.712l2.349-0.7l2.259-0.686l2.151-0.663l2.029-0.64l1.89-0.61l1.729-0.575l1.186-0.405l0.73-0.258l0.679-0.244l0.628-0.233
		l0.571-0.221l0.514-0.204l0.451-0.189l0.383-0.168l0.306-0.146l0.222-0.113l0.11-0.06l0.022-0.003l0.06-0.059l-0.099,0.11
		l0.088-0.095l0.212-0.298l0.168-0.34l0.126-0.388l0.085-0.43l0.043-0.45l-0.01-0.763l-0.138-1.121l-0.244-1.163l-0.296-1.156
		l-0.296-1.101l-0.124-0.492c-0.193-0.769,0.284-1.547,1.067-1.737C637.547,564.346,638.339,564.814,638.532,565.583"/>
	<path fill="#1D1B3A" d="M573.075,578.361l0.431,0.277l0.896,0.669l0.829,0.766l0.738,0.829l0.649,0.88l0.568,0.92l0.49,0.953
		l0.42,0.976l0.355,0.991l0.301,0.999l0.35,1.483l0.33,1.955l0.207,1.881l0.07,0.903c0.051,0.688-0.4,1.316-1.077,1.493l-0.01,0.004
		l-0.071,0.018l-0.141,0.037l-0.21,0.057l-0.271,0.07l-0.336,0.089l-0.395,0.103l-0.455,0.119l-0.509,0.134l-0.566,0.148
		l-0.616,0.161l-0.668,0.175l-0.713,0.185l-0.762,0.196l-1.22,0.319l-1.768,0.458l-1.912,0.493l-2.039,0.524l-2.147,0.552
		l-2.242,0.572l-2.315,0.591l-3.579,0.902l-4.876,1.222l-4.872,1.202l-3.565,0.865l-2.307,0.553l-2.229,0.526l-2.132,0.494
		l-2.021,0.459l-1.892,0.418l-1.749,0.374l-1.204,0.25l-0.751,0.15l-0.707,0.135l-0.659,0.122l-0.609,0.105l-0.562,0.091
		l-0.51,0.073l-0.46,0.059l-0.411,0.043l-0.368,0.023l-0.194,0.004c-0.036,0-0.074,0-0.109-0.001l-0.15-0.009l-0.535-0.096
		l-0.559-0.198l-0.511-0.268l-0.672-0.477l-0.841-0.792l-0.795-0.945l-0.734-1.054l-0.666-1.144l-0.584-1.205l-0.486-1.24
		l-0.367-1.257l-0.188-0.957l-0.074-0.647l-0.025-0.62l0.025-0.616l0.084-0.606l0.152-0.596l0.231-0.583l0.323-0.556l0.421-0.511
		l0.518-0.448l0.608-0.36l0.679-0.266l0.411-0.108c0.031-0.007,0.061-0.014,0.092-0.019l0.256-0.044l0.619-0.057l0.646,0.019
		l0.628,0.105l0.598,0.193l0.555,0.273l0.503,0.345l0.444,0.4l0.388,0.442l0.337,0.475l0.408,0.734l0.433,1.062l0.327,1.134
		l0.237,1.165l0.169,1.172l0.11,1.161l0.07,1.122l0.038,1.062l0.019,0.969l0.009,0.853l0.009,0.701l0.007,0.273
		c0.021,0.793-0.612,1.452-1.418,1.473c-0.805,0.021-1.475-0.604-1.497-1.396l0,0l-0.008-0.313l-0.008-0.709l-0.008-0.828
		l-0.018-0.923l-0.035-0.987l-0.063-1.026l-0.095-1.035l-0.142-1.011l-0.187-0.951l-0.234-0.857l-0.289-0.756l-0.248-0.476
		l-0.162-0.246l-0.16-0.204l-0.156-0.162l-0.156-0.132l-0.159-0.101l-0.179-0.079l-0.211-0.057l-0.258-0.025l-0.354,0.024
		l-0.257,0.044l0.091-0.017l-0.1,0.014l-0.248,0.067l-0.191,0.082l-0.156,0.1l-0.138,0.128l-0.125,0.169l-0.107,0.223l-0.083,0.276
		l-0.058,0.328l-0.024,0.374l0.011,0.414l0.042,0.425l0.127,0.704l0.286,1.016l0.396,1.035l0.483,1.013l0.542,0.952l0.581,0.85
		l0.573,0.708l0.549,0.544l0.359,0.276l0.16,0.104l0.086,0.057l0.092,0.034l0.15,0.012l-0.11-0.003h0.07l0.254-0.015l0.333-0.032
		l0.401-0.05l0.468-0.069l0.524-0.086l0.585-0.101l0.635-0.116l0.687-0.132l0.733-0.146l1.183-0.244l1.729-0.37l1.873-0.415
		l2.008-0.456l2.122-0.493l2.218-0.522l2.297-0.55l3.558-0.865l4.86-1.198l4.868-1.218l3.576-0.904l2.314-0.59l2.236-0.57
		l2.146-0.55l2.036-0.525l1.911-0.493l1.765-0.458l1.222-0.318l0.759-0.196l0.714-0.184l0.666-0.176l0.616-0.16l0.563-0.147
		l0.509-0.133l0.456-0.121l0.395-0.103l0.333-0.088l0.273-0.071l0.207-0.054l0.14-0.039l0.071-0.018l0.007-0.002l-1.075,1.491
		l-0.061-0.814l-0.185-1.72l-0.293-1.772l-0.309-1.324l-0.253-0.854l-0.293-0.831l-0.339-0.802l-0.383-0.763l-0.436-0.72
		l-0.485-0.676l-0.541-0.627l-0.604-0.571l-0.704-0.542l-0.431-0.274c-0.676-0.432-0.866-1.321-0.428-1.983
		C571.497,578.118,572.402,577.93,573.075,578.361"/>
	<path fill="#1D1B3A" d="M572.01,580.966l-0.38,0.081l-0.831,0.197l-0.957,0.24l-1.079,0.285l-1.189,0.326l-1.292,0.362
		l-1.385,0.396l-1.473,0.426l-1.546,0.457l-1.615,0.479l-1.675,0.502l-1.729,0.518l-2.671,0.81l-3.665,1.113l-3.729,1.136
		l-3.723,1.128l-3.658,1.104l-2.66,0.795l-1.721,0.51l-1.666,0.487l-1.604,0.467l-1.538,0.439l-1.46,0.409l-1.379,0.378
		l-1.284,0.344l-1.186,0.305l-1.081,0.266l-0.504,0.117c-0.784,0.182-1.57-0.294-1.755-1.066c-0.186-0.771,0.298-1.543,1.082-1.726
		l0.473-0.109l1.047-0.257l1.16-0.3l1.266-0.336l1.36-0.374l1.448-0.407l1.526-0.435l1.597-0.463l1.658-0.488l1.713-0.505
		l2.654-0.793l3.65-1.102l3.724-1.132l3.728-1.133l3.669-1.116l2.678-0.809l1.729-0.521l1.683-0.502l1.621-0.481l1.557-0.457
		l1.485-0.431l1.398-0.4l1.312-0.368l1.215-0.332l1.11-0.294l1.002-0.251l0.878-0.206l0.379-0.086
		c0.786-0.17,1.564,0.317,1.739,1.092C573.291,580.025,572.795,580.792,572.01,580.966"/>
	<path fill="#1D1B3A" d="M531.68,587.809l0.11-0.409l0.244-0.818l0.262-0.785l0.28-0.742l0.298-0.705l0.315-0.663l0.494-0.909
		l0.721-1.086l0.797-0.959l0.861-0.821l0.922-0.684l0.975-0.552l1.013-0.421l1.04-0.3l1.055-0.192l1.062-0.097l1.064-0.02
		l1.063,0.047l1.059,0.097l1.567,0.22l2.075,0.37l2.034,0.383l1.954,0.316l1.383,0.148l0.867,0.037l0.84-0.013l0.794-0.075
		l0.748-0.141l0.7-0.212l0.651-0.285l0.61-0.367l0.255-0.193l-0.06,0.044l0.345-0.271l0.565-0.506l0.466-0.482l0.386-0.475
		l0.318-0.461l0.248-0.446l0.189-0.431l0.135-0.409l0.086-0.389l0.039-0.366l0.002-0.345l-0.033-0.319l-0.064-0.298l-0.093-0.27
		l-0.115-0.245l-0.136-0.216l-0.149-0.187l-0.161-0.158l-0.168-0.127l-0.173-0.096l-0.171-0.066l-0.165-0.036l-0.167-0.011
		l-0.164,0.014l-0.166,0.039l-0.176,0.067l-0.188,0.101l-0.208,0.146l-0.223,0.199l-0.238,0.264l-0.246,0.334l-0.25,0.416
		l-0.11,0.211c-0.375,0.7-1.256,0.97-1.97,0.601c-0.713-0.368-0.985-1.237-0.611-1.938l0,0l0.204-0.379l0.412-0.644l0.449-0.571
		l0.488-0.493l0.525-0.418l0.558-0.335l0.583-0.247l0.601-0.157l0.601-0.065l0.594,0.022l0.572,0.106l0.545,0.183l0.51,0.25
		l0.468,0.313l0.427,0.368l0.377,0.419l0.33,0.463l0.279,0.503l0.223,0.539l0.167,0.57l0.107,0.598l0.041,0.62l-0.023,0.64
		l-0.094,0.652l-0.165,0.66l-0.234,0.662l-0.31,0.665l-0.386,0.659l-0.461,0.652l-0.541,0.644l-0.619,0.63l-0.68,0.602l-0.346,0.274
		c-0.019,0.015-0.037,0.029-0.058,0.043l-0.494,0.347l-0.942,0.533l-0.977,0.4l-0.996,0.281l-1.011,0.176l-1.019,0.088l-1.022,0.012
		l-1.038-0.054l-1.541-0.169l-2.03-0.327l-2.007-0.38l-1.968-0.353l-1.433-0.204l-0.916-0.088l-0.885-0.043l-0.849,0.008
		l-0.808,0.064l-0.769,0.128l-0.73,0.194l-0.694,0.269l-0.669,0.357l-0.645,0.454l-0.626,0.571l-0.606,0.707l-0.589,0.872
		l-0.42,0.765l-0.267,0.552l-0.254,0.598l-0.245,0.645l-0.231,0.691l-0.226,0.749l-0.111,0.41c-0.209,0.765-1.008,1.221-1.784,1.017
		C531.934,589.36,531.473,588.575,531.68,587.809"/>
</g>
<g>
	<g>
		<path fill="#F2C132" d="M397.563,683.224c8.388-35.113,51.14-112.332,50.671-126.255c-73.186,5.444-113.168-8.425-161.354-6.872
			c4.498,38.603-86.665,85.562-110.931,119.049C175.95,669.146,365.512,678.63,397.563,683.224"/>
		<g>
			<path fill="#1D1B3A" d="M399.494,683.756c6.127-25.111,18.512-48.944,29.244-72.312c5.104-11.115,10.254-22.215,14.979-33.499
				c2.646-6.321,6.591-13.928,6.52-20.976c-0.011-1.031-0.904-2.082-2.002-2.002c-30.104,2.178-60.058,1.096-90.052-1.977
				c-23.721-2.43-47.401-5.599-71.302-4.896c-1.006,0.029-2.113,0.892-2.002,2.002c1.172,11.685-5.959,22.219-13.095,30.781
				c-9.634,11.562-21.353,21.378-32.973,30.861c-12.365,10.092-25.12,19.696-37.456,29.824
				c-9.743,7.998-19.623,16.361-27.133,26.571c-0.962,1.308,0.361,2.944,1.729,3.013c53.387,2.672,106.771,5.556,160.111,9.044
				c20.276,1.326,40.832,2.115,60.97,4.963c2.524,0.357,3.613-3.501,1.064-3.861c-25.229-3.568-51-4.429-76.403-6.026
				c-34.487-2.17-68.99-4.087-103.496-5.928c-14.081-0.751-28.163-1.49-42.246-2.195c0.576,1.004,1.152,2.008,1.729,3.013
				c7.987-10.857,18.907-19.588,29.287-28.033c12.77-10.389,25.927-20.292,38.613-30.786c11.436-9.46,22.89-19.438,31.961-31.262
				c6.545-8.53,12.461-18.831,11.343-29.979c-0.667,0.667-1.334,1.335-2.002,2.002c23.895-0.703,47.588,2.439,71.302,4.896
				c29.983,3.105,59.958,4.153,90.052,1.977c-0.667-0.667-1.335-1.335-2.002-2.002c0.069,6.894-4.16,14.617-6.747,20.794
				c-4.955,11.832-10.437,23.446-15.787,35.102c-10.346,22.543-22.157,45.608-28.067,69.827
				C395.021,685.2,398.882,686.264,399.494,683.756L399.494,683.756z"/>
		</g>
	</g>
	<g>
		<path fill="#FFFFFF" d="M445.134,551.959c-3.417,32.163-54.177,119.852-55.291,124.159c-71.406-4.876-164.081-9.044-212.273-7.476
			c40.543-44.148,119.096-74.741,117.816-113.451C295.386,555.192,413.459,558.625,445.134,551.959"/>
		<g>
			<path fill="#1D1B3A" d="M443.132,551.959c-1.256,10.964-5.715,21.701-9.853,31.831c-5.659,13.854-12.202,27.354-18.906,40.728
				c-5.832,11.632-11.902,23.143-18.02,34.626c-2.765,5.191-6.754,10.752-8.441,16.442c0.644-0.49,1.287-0.979,1.931-1.47
				c-38.248-2.604-76.534-4.682-114.842-6.154c-32.43-1.247-64.979-2.344-97.431-1.321c0.472,1.139,0.944,2.278,1.416,3.418
				c22.111-23.86,50.372-40.836,76.338-60.039c17.26-12.765,42.499-30.643,42.064-54.828c-0.667,0.667-1.334,1.335-2.002,2.002
				c20.99,0.608,41.997,0.862,62.996,0.884c16.839,0.018,33.686-0.152,50.514-0.819c12.222-0.485,24.752-0.898,36.771-3.368
				c2.528-0.52,1.456-4.379-1.064-3.861c-12.006,2.468-24.545,2.782-36.753,3.267c-16.478,0.653-32.978,0.785-49.467,0.778
				c-20.998-0.011-42.006-0.276-62.996-0.884c-1.077-0.031-2.021,0.934-2.002,2.002c0.196,10.913-5.95,20.197-12.994,28.021
				c-9.168,10.183-20.391,18.497-31.419,26.527c-24.94,18.161-51.7,34.699-72.817,57.487c-1.14,1.23-0.401,3.476,1.416,3.418
				c32.455-1.021,64.999,0.092,97.431,1.321c38.308,1.453,76.595,3.551,114.842,6.154c0.893,0.061,1.69-0.657,1.931-1.47
				c1.545-5.211,6.048-11.749,8.822-16.959c6.221-11.682,12.363-23.405,18.281-35.243c6.499-13.002,12.723-26.153,18.264-39.594
				c4.328-10.502,8.693-21.53,9.995-32.896C447.43,549.397,443.422,549.425,443.132,551.959L443.132,551.959z"/>
		</g>
	</g>
	<g>
		<path fill="#FFFFFF" d="M440.694,549.478c-9.737,42.742-57.74,106.366-57.261,120.283c-78.857-4.61-157.56-4.131-205.746-2.558
			c50.75-38.223,109.388-79.022,108.11-117.729C285.797,549.474,409.021,556.14,440.694,549.478"/>
		<g>
			<path fill="#1D1B3A" d="M438.763,548.946c-5.983,25.539-19.999,49.071-32.917,71.619c-5.786,10.1-11.757,20.103-17.22,30.383
				c-2.913,5.481-7.231,12.36-7.196,18.813c0.667-0.667,1.334-1.335,2.002-2.002c-68.459-3.966-137.207-4.771-205.746-2.558
				c0.337,1.243,0.674,2.487,1.01,3.73c25.59-19.258,51.928-37.916,75.122-60.097c16.035-15.335,34.423-35.664,33.98-59.361
				c-0.667,0.667-1.334,1.335-2.002,2.002c21.839,1.179,43.707,1.97,65.571,2.5c17.419,0.423,34.853,0.644,52.276,0.304
				c12.458-0.243,25.325-0.359,37.581-2.871c2.529-0.519,1.456-4.378-1.064-3.861c-12.233,2.507-25.116,2.506-37.549,2.748
				c-17.078,0.333-34.169,0.081-51.244-0.323c-21.864-0.518-43.732-1.321-65.571-2.5c-1.076-0.059-2.022,0.954-2.002,2.002
				c0.443,23.692-19.141,43.624-35.124,58.731c-22.288,21.067-47.538,38.863-71.995,57.27c-1.464,1.102-1.171,3.801,1.01,3.73
				c68.539-2.213,137.287-1.407,205.746,2.558c1.086,0.063,2.008-0.958,2.002-2.002c-0.034-6.257,4.734-13.227,7.566-18.51
				c5.61-10.465,11.726-20.658,17.619-30.964c12.633-22.096,26.146-45.27,32.004-70.277
				C443.213,547.499,439.352,546.432,438.763,548.946L438.763,548.946z"/>
		</g>
	</g>
	<g>
		<path fill="#F2C132" d="M431.463,545.6c-1.6,20.581-58.951,115.696-58.951,115.696c-73.4-0.706-154.629-0.648-195.927,4.785
			c61.881-62.285,99.408-113.492,99.623-117.462C276.208,548.62,392.35,544.217,431.463,545.6"/>
		<g>
			<path fill="#1D1B3A" d="M429.461,545.6c-0.437,4.752-2.529,9.49-4.303,13.86c-2.89,7.12-6.283,14.044-9.72,20.912
				c-7.918,15.823-16.514,31.311-25.259,46.688c-5.92,10.411-11.949,20.763-18.09,31.046c-0.416,0.696-0.833,1.393-1.251,2.088
				c0.886-1.473-4.598-0.959-5.51-0.967c-4.221-0.038-8.441-0.071-12.663-0.102c-15.139-0.11-30.278-0.165-45.417-0.141
				c-43.388,0.07-87.548-0.49-130.663,5.094c0.472,1.139,0.944,2.278,1.416,3.418c25.808-26.019,50.607-53.095,73.71-81.553
				c6.784-8.356,13.438-16.841,19.675-25.614c2.281-3.208,6.35-7.594,6.824-11.711c-0.667,0.667-1.334,1.335-2.002,2.002
				c20.789-0.787,41.583-1.439,62.379-2.012c30.904-0.852,61.963-2.062,92.876-1.008c2.583,0.088,2.575-3.916,0-4.004
				c-30.527-1.042-61.194,0.146-91.713,0.976c-21.183,0.574-42.366,1.242-63.542,2.044c-1.188,0.045-1.874,0.885-2.002,2.002
				c0.06-0.522-0.207,0.294-0.413,0.689c-0.441,0.846-0.947,1.658-1.451,2.468c-1.639,2.63-3.433,5.164-5.235,7.684
				c-6.269,8.767-12.983,17.216-19.787,25.569c-22.624,27.779-46.929,54.207-72.151,79.636c-1.113,1.122-0.406,3.654,1.416,3.418
				c22.171-2.871,44.623-3.641,66.95-4.271c29.087-0.821,58.195-0.896,87.292-0.801c7.279,0.024,14.559,0.067,21.838,0.118
				c3.62,0.025,7.24,0.056,10.86,0.086c2.546,0.021,7.768,1.114,9.998-0.191c1.643-0.962,2.783-4.168,3.686-5.688
				c6.96-11.713,13.779-23.51,20.461-35.384c8.313-14.774,16.438-29.678,23.874-44.916c4.684-9.6,10.924-20.589,11.921-31.438
				C433.701,543.028,429.695,543.051,429.461,545.6L429.461,545.6z"/>
		</g>
	</g>
</g>
<g>
	<path fill="#B7B6C0" d="M238.381,531.479c91.707,1.881,668.712,5.325,760.424,5.325"/>
	<g>
		<path fill="#1D1B3A" d="M238.381,533.481c43.07,0.879,86.158,1.11,129.235,1.492c70.934,0.628,141.87,1.141,212.805,1.621
			c74.881,0.508,149.762,0.97,224.643,1.383c54.915,0.303,109.83,0.601,164.746,0.771c9.665,0.03,19.33,0.058,28.995,0.058
			c2.582,0,2.582-4.004,0-4.004c-43.079-0.002-86.159-0.273-129.237-0.489c-70.937-0.355-141.872-0.771-212.807-1.222
			c-74.882-0.476-149.762-0.989-224.643-1.584c-54.915-0.436-109.831-0.86-164.743-1.575c-9.665-0.126-19.33-0.258-28.994-0.455
			C235.797,529.424,235.802,533.428,238.381,533.481L238.381,533.481z"/>
	</g>
</g>
<g>
	<g>
		<path fill="#1D1B3A" d="M6.05,699.901c47.021-36.161,96.046-69.898,144.225-104.483c29.566-21.224,59.771-41.791,88.708-63.874
			c2.024-1.544,0.033-5.024-2.021-3.457c-14.84,11.324-30.277,21.928-45.438,32.814c-28.486,20.456-56.987,40.892-85.461,61.366
			c-34.111,24.528-68.725,48.56-102.036,74.177C2.013,697.995,4.003,701.475,6.05,699.901L6.05,699.901z"/>
	</g>
</g>
<g>
	<g>
		<path fill="#1D1B3A" d="M1237.499,692.258c-18.725-14.375-38.881-27.066-58.517-40.133
			c-30.102-20.032-60.344-39.853-90.586-59.671c-19.194-12.579-38.401-25.138-57.566-37.76c-9.488-6.248-19.377-12.192-28.432-19.07
			c-2.058-1.563-4.049,1.917-2.021,3.457c15.033,11.42,31.597,21.167,47.366,31.513c29.5,19.353,59.033,38.657,88.501,58.059
			c20.642,13.59,41.264,27.213,61.769,41.008c12.598,8.476,25.414,16.803,37.465,26.055
			C1237.526,697.289,1239.517,693.807,1237.499,692.258L1237.499,692.258z"/>
	</g>
</g>
<g>
	<g>
		<path fill="#1D1B3A" d="M1241.255,720.096c-20.047-0.014-40.095-0.027-60.143-0.041c-52.324-0.035-104.648-0.071-156.974-0.106
			c-72.875-0.05-145.75-0.099-218.625-0.148c-81.7-0.056-163.399-0.11-245.099-0.166c-78.797-0.054-157.594-0.107-236.391-0.16
			c-64.168-0.044-128.336-0.088-192.505-0.131c-37.813-0.025-75.626-0.052-113.439-0.077c-5.359-0.004-10.719-0.007-16.078-0.011
			c0.667,0.667,1.335,1.335,2.002,2.002c0-7.415,0-14.829,0-22.244c-0.667,0.667-1.334,1.335-2.002,2.002
			c20.047,0.014,40.095,0.027,60.142,0.041c52.325,0.035,104.649,0.071,156.974,0.106c72.875,0.05,145.75,0.099,218.626,0.148
			c81.699,0.056,163.399,0.11,245.098,0.166c78.797,0.054,157.594,0.107,236.392,0.16c64.168,0.044,128.336,0.088,192.505,0.131
			c37.812,0.025,75.626,0.052,113.438,0.077c5.359,0.004,10.719,0.007,16.078,0.011c-0.667-0.667-1.335-1.335-2.002-2.002
			c0,7.415,0,14.829,0,22.244c0,2.582,4.004,2.582,4.004,0c0-7.415,0-14.829,0-22.244c0-1.092-0.91-2.001-2.002-2.002
			c-20.047-0.014-40.095-0.027-60.143-0.041c-52.324-0.035-104.648-0.071-156.974-0.106c-72.875-0.05-145.75-0.099-218.625-0.148
			c-81.7-0.056-163.399-0.11-245.099-0.166c-78.797-0.054-157.594-0.107-236.391-0.16c-64.168-0.044-128.336-0.088-192.505-0.131
			c-37.813-0.025-75.626-0.052-113.439-0.077c-5.359-0.004-10.719-0.007-16.078-0.011C0.911,697.01,0,697.922,0,699.013
			c0,7.415,0,14.829,0,22.244c0,1.092,0.911,2.001,2.002,2.002c20.047,0.014,40.095,0.027,60.142,0.041
			c52.325,0.035,104.649,0.071,156.974,0.106c72.875,0.05,145.75,0.099,218.626,0.148c81.699,0.056,163.399,0.11,245.098,0.166
			c78.797,0.054,157.594,0.107,236.392,0.16c64.168,0.044,128.336,0.088,192.505,0.131c37.812,0.025,75.626,0.052,113.438,0.077
			c5.359,0.004,10.719,0.007,16.078,0.011C1243.837,724.102,1243.837,720.098,1241.255,720.096z"/>
	</g>
</g>
<g>
	<g>
		<path fill="#1D1B3A" d="M716.669,567.809c6.704-0.926,17.002-0.459,24.75-0.552c16.142-0.194,32.284-0.301,48.427-0.419
			c16.368-0.12,32.736-0.231,49.104-0.414c9.033-0.102,18.192,0.134,27.205-0.593c0.363-0.029,0.725-0.082,1.086-0.132
			c2.549-0.353,1.46-4.21-1.064-3.861c-6.705,0.927-17.003,0.46-24.751,0.553c-16.143,0.194-32.285,0.301-48.427,0.42
			c-16.368,0.12-32.736,0.23-49.104,0.413c-9.032,0.101-18.19-0.134-27.203,0.592c-0.363,0.029-0.725,0.082-1.086,0.132
			C713.056,564.299,714.145,568.158,716.669,567.809L716.669,567.809z"/>
	</g>
</g>
<g>
	<g>
		<path fill="#1D1B3A" d="M777.109,666.759c-5.927-0.153-12.002-9.798-14.86-13.958c-2.847-4.143-4.952-8.646-7.033-13.195
			c-3.846-8.406-7.75-16.786-11.659-25.162c-8.215-17.6-16.026-35.577-25.269-52.671c-1.229-2.271-4.686-0.25-3.457,2.021
			c9.774,18.078,18.012,37.107,26.692,55.724c3.815,8.182,7.628,16.365,11.363,24.584c2.852,6.272,6.484,11.992,10.865,17.308
			c3.162,3.838,7.936,9.213,13.357,9.354C779.693,670.831,779.687,666.826,777.109,666.759L777.109,666.759z"/>
	</g>
</g>
<g>
	<g>
		<path fill="#1D1B3A" d="M777.648,671.774c4.852,1.774,11.217,1.298,16.283,1.542c8.784,0.424,17.579,0.646,26.371,0.834
			c10.316,0.22,20.634,0.383,30.953,0.287c34.954-0.322,69.934-1.322,104.857-2.787c5.525-0.231,11.063-0.435,16.576-0.887
			c2.555-0.209,2.575-4.215,0-4.004c-31.184,2.558-62.752,2.55-94.017,3.221c-27.248,0.585-54.452,0.59-81.689-0.532
			c-5.628-0.232-12.887,0.434-18.271-1.535C776.282,667.024,775.244,670.895,777.648,671.774L777.648,671.774z"/>
	</g>
</g>
<g>
	<g>
		<path fill="#1D1B3A" d="M869.211,562.497c-0.179-0.121-0.356-0.241-0.534-0.361c-2.022-1.368-3.766,1.504-2.427,3.145
			c4.842,5.93,11.269,11.208,16.933,16.617c11.076,10.576,22.164,21.141,33.245,31.713c19.104,18.226,38.61,36.141,57.177,54.92
			c0.3,0.303,0.601,0.607,0.883,0.927c1.715,1.938,4.536-0.905,2.832-2.832c-5.305-5.994-11.542-11.335-17.306-16.874
			c-11.554-11.104-23.146-22.167-34.736-33.23c-17.475-16.678-35.389-32.997-52.444-50.105c-1.293-1.296-2.578-2.529-3.751-3.967
			c-0.809,1.049-1.618,2.097-2.427,3.145c0.179,0.121,0.356,0.241,0.534,0.361C869.335,567.405,871.337,563.934,869.211,562.497
			L869.211,562.497z"/>
	</g>
</g>
</svg>
