<?xml version="1.0" encoding="utf-8"?>
<!-- Generator: Adobe Illustrator 16.0.4, SVG Export Plug-In . SVG Version: 6.00 Build 0)  -->
<!DOCTYPE svg PUBLIC "-//W3C//DTD SVG 1.1//EN" "http://www.w3.org/Graphics/SVG/1.1/DTD/svg11.dtd">
<svg version="1.1" id="Layer_1" xmlns="http://www.w3.org/2000/svg" xmlns:xlink="http://www.w3.org/1999/xlink" x="0px" y="0px"
	 width="569.211px" height="617.435px" viewBox="0 0 569.211 617.435" enable-background="new 0 0 569.211 617.435"
	 xml:space="preserve">
<polygon fill="#2EBDEF" points="569.211,617.344 296.31,606.487 292.588,326.458 551.373,326.458 "/>
<g>
	<g>
		<path fill="#FFFFFF" d="M482.229,400.398l12.221-7.272c0,0-22.059-52.479-81.643-54.366l-4.979,15.363L482.229,400.398z"/>
		<path fill="#A42423" d="M474.376,410.261c0,0-25.615-35.79-72.025-48.203l6.279-8.996c0,0,18.014,0.959,43.481,19.25
			c25.469,18.29,30.21,28.132,30.21,28.132L474.376,410.261z"/>
		<path fill="#1E1E1C" d="M464.742,399.209c0,0-15.295-20.659-55.699-36.148c-16.29-6.245-12.492,2.376,5.674,12.137
			C433.187,385.121,464.742,399.209,464.742,399.209z"/>
	</g>
	<g>
		<path fill="#DFF1FB" d="M552.363,616.714c-2.332-17.951-5.261-61.456-10.34-67.839c-15.039-18.898-32.783-15.645-42.774-23.563
			c-3.526-2.795,6.572-7.135,2.425-8.812c-9.366-3.789-43.525-8.539-61.476-7.712c-21.066,0.967-39.002,9.254-52.663,14.102
			c-3.507,1.245-42.629,24.525-45.002,27.135c-10.418,11.457-3.723,34.282-1.67,58.378
			C341.117,608.539,552.363,616.714,552.363,616.714z"/>
		<path fill="#FFFFFF" d="M482.449,519.15c-12.385-10.026-11.801-90.254-15.201-118.58c-2.891-3.184-5.748-6.403-8.599-9.629
			c-2.404-1.985-4.854-3.905-7.316-5.764c-0.341-0.256-0.678-0.516-1.013-0.777c-16.35-4.301-40.693-5.321-46.954,6.72
			c-9.004,17.317-27.015,94.204-21.475,101.825c5.54,7.619,18.011,7.617,22.167,11.081c4.156,3.465-6.927,27.015-6.927,27.015
			s28.479,52.738,28.716,51.698C434.91,542.916,484.063,520.459,482.449,519.15z"/>
		<path fill="#1E1E1C" d="M458.649,390.942c-2.403-1.986-4.854-3.906-7.316-5.765c-3.102-2.34-6.013-4.811-8.065-8.178
			c-1.275-2.095-2.148-4.33-3.189-6.45c-1.791-1.847-3.601-3.674-5.447-5.464c-6.559-3.184-12.357-4.633-15.005-2.123
			c-5.951-3.519-12.907-5.094-19.279-2.277c-3.681,1.625-5.187,4.056-5.356,6.756c-5.038-1.358-10.254-1.16-14.158,2.119
			c-7.559,6.347,1.991,15.078,8.203,17.736c11.35,4.854,23.735,3.51,35.804,3.131c6.309-0.197,23.304,1.018,29.396,3.007
			c0.259,0.085,2.97,16.748,2.701,14.046c0.271,0.811,14.376,3.922,15.128,4.592c0.383-2.008,0.596-3.858,0.659-5.586
			C467.93,401.41,463.283,396.184,458.649,390.942z"/>
		<ellipse fill="#FFFFFF" cx="476.098" cy="432.682" rx="13.162" ry="13.507"/>
		<g>
			<g>
				<path fill="#020303" d="M434.307,433.145c0.079,2.844,0.704,7.616,4.261,8.043c3.486,0.418,4.202-5.906,4.262-8.043
					c0.079-2.831-0.805-7.63-4.262-8.044C435.082,424.683,434.366,431.009,434.307,433.145c-0.027,0.968,1.473,0.965,1.5,0
					c0.048-1.714,0.306-6.25,2.761-6.544c2.351-0.282,2.727,5.3,2.762,6.544c0.047,1.703-0.376,6.257-2.762,6.543
					c-2.35,0.281-2.726-5.3-2.761-6.543C435.78,432.18,434.28,432.177,434.307,433.145z"/>
			</g>
		</g>
		<g>
			<g>
				<path fill="#020303" d="M423.506,430.442c0.141,5.533-1.805,10.76-2.434,16.208c0.376-0.216,0.752-0.432,1.128-0.647
					c-4.709-2.634-15.969-1.496-13.071,6.25c2.549,6.814,14.881,10.043,19.555,3.961c0.59-0.768-0.714-1.513-1.295-0.758
					c-3.837,4.993-13.428,1.869-16.35-2.72c-4.208-6.609,6.559-7.588,10.404-5.438c0.538,0.301,1.064-0.094,1.128-0.647
					c0.63-5.458,2.575-10.659,2.434-16.208C424.981,429.477,423.481,429.475,423.506,430.442L423.506,430.442z"/>
			</g>
		</g>
		<g>
			<g>
				<path fill="#020303" d="M480.636,426.207c-2.606-0.675-6.1-1.237-8.363,0.615c-2.153,1.761,1.152,4.437,2.384,5.348
					c0.68,0.504,4.819,1.335,2.628,2.757c-0.841,0.546-2.04,0.681-2.965,1.08c-2.25,0.973-1.211,2.947,0.186,4.15
					c0.729,0.628,1.794-0.428,1.061-1.061c-2.275-1.96,0.763-2.04,2.227-2.753c1.181-0.575,1.7-2.012,1.529-3.262
					c-0.189-1.381-3.03-1.729-3.907-2.207c-0.448-0.245-2.854-2.026-2.08-2.992c0.425-0.53,1.61-0.665,2.199-0.737
					c1.575-0.192,3.188,0.115,4.705,0.509C481.174,427.896,481.572,426.45,480.636,426.207L480.636,426.207z"/>
			</g>
		</g>
		<g>
			<g>
				<path fill="#1E1E1C" d="M450.439,418.467c-5.002-4.188-10.042-8.523-15.508-12.099c-1.083-0.709-2.084,1.023-1.01,1.727
					c5.326,3.483,10.229,7.705,15.104,11.786C450.007,420.703,451.43,419.296,450.439,418.467L450.439,418.467z"/>
			</g>
		</g>
		<g>
			<g>
				<path fill="#1E1E1C" d="M415.761,417.535c-5.376-0.135-10.636,0.899-15.978,1.304c-1.278,0.097-1.287,2.098,0,2
					c5.341-0.404,10.601-1.438,15.978-1.304C417.051,419.567,417.048,417.567,415.761,417.535L415.761,417.535z"/>
			</g>
		</g>
		<path fill="#1E1E1C" d="M472.064,413.424l-14.588-2.701l1.351,9.994c0,0,14.044-3.238,12.695-2.7
			C470.173,418.557,472.064,413.424,472.064,413.424z"/>
		<g>
			<g>
				<path fill="#020303" d="M405.461,465.968c10.434,1.243,21.236,1.987,31.693,0.516c1.316-0.185,10.136-1.096,8.985-4.123
					c-0.266-0.699-1.19-0.727-1.446,0c-2.307,6.55-7.161,16.234-14.903,17.036c-5.399,0.56-11.097-1.032-16.237-2.509
					c-3.15-0.904-6.284-1.943-9.331-3.158c-0.899-0.358-1.286,1.093-0.398,1.447c3.43,1.367,6.964,2.497,10.517,3.494
					c5.332,1.497,11.593,3.124,17.142,1.972c7.532-1.565,12.345-11.317,14.657-17.884c-0.482,0-0.964,0-1.446,0
					c-0.013-0.034-0.097,0.136-0.5,0.379c-0.635,0.383-1.367,0.604-2.071,0.819c-2.66,0.812-5.477,1.139-8.234,1.397
					c-9.441,0.886-19.038,0.232-28.427-0.887C404.501,464.354,404.513,465.854,405.461,465.968L405.461,465.968z"/>
			</g>
		</g>
		<g>
			<g>
				<path fill="#1E1E1C" d="M422.776,589.663c-2.522-7.385-5.828-14.408-9.975-21.021c-3.431-5.47-7.455-10.522-11.253-15.732
					c-1.82-2.496-3.445-5.11-5.178-7.665c-1.558-2.297-3.241-5.039-5.671-6.519c-4.018-2.449-8.358,5.036-10.204,7.346
					c0.285,0.118,0.569,0.235,0.854,0.354c0.123-7.368,3.114-14.706,4.862-21.796c0.256-1.04,0.372-1.253,1.377-1.78
					c1.742-0.913,3.628-1.577,5.46-2.281c3.826-1.472,7.743-2.792,11.431-4.595c0.579-0.283,0.072-1.146-0.505-0.863
					c-4.137,2.022-8.559,3.456-12.841,5.133c-1.539,0.603-5.377,1.46-5.729,3.412c-1.369,7.611-4.925,14.934-5.056,22.771
					c-0.007,0.404,0.573,0.705,0.854,0.354c1.765-2.208,3.465-4.555,5.577-6.449c2.02-1.812,3.719-0.816,5.345,0.926
					c3.984,4.268,6.792,9.806,10.283,14.496c7.982,10.725,15.042,21.409,19.405,34.177
					C422.019,590.535,422.985,590.274,422.776,589.663L422.776,589.663z"/>
			</g>
		</g>
		<g>
			<g>
				<path fill="#1E1E1C" d="M425.291,583.514c-1.853-8.08-5.677-15.55-9.706-22.735c-5.703-10.171-12.033-19.986-18.021-29.989
					c-0.331-0.553-1.195-0.051-0.863,0.504c5.865,9.8,12.019,19.434,17.666,29.361c4.146,7.289,8.074,14.9,9.961,23.125
					C424.471,584.408,425.435,584.142,425.291,583.514L425.291,583.514z"/>
			</g>
		</g>
		<path fill="none" stroke="#1E1E1C" stroke-miterlimit="10" d="M482.449,519.15c-2.725-0.799-50.778,28.417-56.432,67.82
			c-2.679,18.661-2.679,18.661-2.679,18.661"/>
		<g>
			<g>
				<path fill="#1E1E1C" d="M480.304,511.012c7.66,2.15,15.439,3.354,22.815,6.46c-0.1-0.245-0.199-0.49-0.299-0.734
					c-5.672,7.413-6.019,19.562-3.28,28.164c0.278-0.162,0.557-0.324,0.835-0.486c-5.321-5.257-11.487-9.773-14.78-16.694
					c-0.092-0.193-0.367-0.296-0.564-0.23c-4.02,1.329-7.503,4.104-10.724,6.767c-4.951,4.093-9.471,8.716-13.822,13.431
					c-7.499,8.128-15.292,16.918-20.692,26.639c-0.313,0.563,0.55,1.068,0.863,0.504c2.883-5.189,6.627-9.94,10.327-14.561
					c4.973-6.21,10.272-12.174,15.892-17.806c4.631-4.642,9.58-9.349,15.312-12.608c0.735-0.418,2.542-1.635,2.89-0.904
					c1.032,2.168,2.499,4.109,4.041,5.937c3.162,3.746,7.072,6.798,10.55,10.234c0.346,0.342,0.991,0.001,0.835-0.486
					c-2.666-8.374-2.34-20.181,3.179-27.395c0.218-0.285-0.037-0.624-0.299-0.734c-7.376-3.106-15.155-4.309-22.815-6.46
					C479.947,509.872,479.684,510.837,480.304,511.012L480.304,511.012z"/>
			</g>
		</g>
		<g>
			<g>
				<path fill="#020303" d="M403.296,432.308c3.512,0.054,6.782,1.056,10.171,1.851c-0.06-0.457-0.12-0.914-0.179-1.371
					c-3.205,1.512-6.88,1.973-10.349,2.497c-0.954,0.145-0.547,1.59,0.398,1.447c3.622-0.548,7.365-1.072,10.708-2.649
					c0.592-0.279,0.424-1.229-0.179-1.371c-3.521-0.825-6.923-1.848-10.569-1.903C402.328,430.793,402.33,432.293,403.296,432.308
					L403.296,432.308z"/>
			</g>
		</g>
		<g>
			<g>
				<path fill="#020303" d="M409.022,471.429c8.36,4.394,19.135,3.62,27.573,0.076c0.878-0.369,0.493-1.821-0.398-1.447
					c-8.059,3.386-18.401,4.289-26.417,0.076C408.924,469.685,408.166,470.979,409.022,471.429L409.022,471.429z"/>
			</g>
		</g>
		<g>
			<g>
				<path fill="#020303" d="M404.712,466.197c0,3.056,0,6.111,0,9.167c0,0.967,1.5,0.967,1.5,0c0-3.056,0-6.111,0-9.167
					C406.212,465.229,404.712,465.229,404.712,466.197L404.712,466.197z"/>
			</g>
		</g>
	</g>
</g>
<g>
</g>
<g>
</g>
<g>
</g>
<g>
</g>
<g>
</g>
<g>
</g>
</svg>
