<?xml version="1.0" encoding="utf-8"?>
<!-- Generator: Adobe Illustrator 16.0.4, SVG Export Plug-In . SVG Version: 6.00 Build 0)  -->
<!DOCTYPE svg PUBLIC "-//W3C//DTD SVG 1.1//EN" "http://www.w3.org/Graphics/SVG/1.1/DTD/svg11.dtd">
<svg version="1.1" id="Layer_1" xmlns="http://www.w3.org/2000/svg" xmlns:xlink="http://www.w3.org/1999/xlink" x="0px" y="0px"
	 width="569.211px" height="617.435px" viewBox="0 0 569.211 617.435" enable-background="new 0 0 569.211 617.435"
	 xml:space="preserve">
<polygon fill="#2EBDEF" points="0,617.435 272.9,606.579 276.623,326.549 17.837,326.549 "/>
<g>
	<path fill="#0E8CCD" d="M134.113,612.214l56.083-2.167c0.834-15.024,2.674-83.356,2.236-93.65
		c-0.494-11.631-49.259-11.625-55.758-2.655C133.06,518.727,134.309,595.838,134.113,612.214z"/>
	<path fill="#110906" d="M229.672,416.433c22.429,25.281-22.403,63.391-17.809,75.985c13.665,37.448-137.869-21.048-111.563-70.081
		c16.084-29.98,32.318-61.598,72.182-61.598C212.351,360.739,197.444,380.106,229.672,416.433z"/>
	<g>
		<g>
			<path fill="#C5843D" d="M193.106,424.022c0.061,0.068,0.115,0.125,0.154,0.167C193.222,424.147,193.164,424.088,193.106,424.022z
				"/>
			<path fill="#C5843D" d="M187.612,418.179c-0.103-0.109-0.187-0.197-0.246-0.256C187.42,417.979,187.501,418.064,187.612,418.179z
				"/>
			<path fill="#FFFFFF" d="M211.459,438.035c-1.787,0.065-3.719,0.634-5.396,1.565c-0.554,0.134-1.112,0.299-1.673,0.524
				c-1.17,0.472,2.372,1.231,1.325,1.896c-0.224,0.143-0.468,0.268-0.698,0.407c0.015-0.063,0.039-0.112,0.049-0.176
				c0.869-4.599-0.476-9.126-0.405-13.762c0.092-6.054-0.269-11.524-2.063-17.378c-3.383-11.027-21.227-12.461-31.908-13.813
				c-13.478-1.704-27.734-1.237-41.138,0.763c-4.591,0.684-14.425,8.345-14.388,9.528c0.348,11.122,2.682,18.766-5.321,34.675
				c-3.993,6.967-5.77,13.873-5.401,21.558c0.547,11.383,36.58,20.049,45.633,23.025c10.62,3.492-4.901,36.042,16.535,28.388
				c3.496-1.248-2.308-27.4,0-28.108c38.39-7.107,30.257-20.167,36.904-24.55c4.789-2.643,10.385-5.593,13.328-9.99
				c0.025-0.031,0.053-0.057,0.078-0.089c0.634-0.813,1.038-1.653,1.258-2.495c0.342-0.924,0.58-1.899,0.673-2.943
				C219.162,443.535,215.826,437.886,211.459,438.035z"/>
			<path fill="#C5843D" d="M187.366,417.923C187.241,417.786,187.251,417.8,187.366,417.923L187.366,417.923z"/>
		</g>
		<path fill="#C5843D" d="M193.261,424.189C193.394,424.331,193.385,424.321,193.261,424.189L193.261,424.189z"/>
	</g>
	<path fill="none" stroke="#020303" stroke-width="1.5" stroke-miterlimit="10" d="M134.091,439.781
		c0,3.104-1.611,5.611-3.597,5.611s-3.593-2.507-3.593-5.611c0-3.096,1.607-5.608,3.593-5.608S134.091,436.686,134.091,439.781z"/>
	<path fill="none" stroke="#020303" stroke-width="1.5" stroke-miterlimit="10" d="M180.055,440.896
		c0,3.104-1.608,5.613-3.595,5.613c-1.984,0-3.596-2.509-3.596-5.613c0-3.097,1.611-5.611,3.596-5.611
		C178.446,435.284,180.055,437.799,180.055,440.896z"/>
	<g>
		<g>
			<path fill="#020303" d="M127.999,464.525c6.146,1.989,13.538,1.574,19.896,1.512c7.203-0.071,15.323-0.088,22.17-2.631
				c0.898-0.334,0.51-1.784-0.398-1.447c-6.75,2.508-14.668,2.48-21.772,2.578c-6.216,0.085-13.496,0.484-19.498-1.459
				C127.475,462.779,127.083,464.229,127.999,464.525L127.999,464.525z"/>
		</g>
	</g>
	<g>
		<g>
			<path fill="#020303" d="M128.577,464.449c13.343-5.792,27.825-1.939,41.709-1.466c0.968,0.033,0.964-1.467,0-1.5
				c-14.225-0.485-28.807-4.259-42.466,1.671C126.935,463.538,127.699,464.83,128.577,464.449L128.577,464.449z"/>
		</g>
	</g>
	<g>
		<g>
			<path fill="#020303" d="M169.143,462.483c-0.582,2.154-3.196,3.371-5.042,4.224c-3.362,1.554-7.135,2.341-10.789,2.803
				c-7.505,0.947-16.622,0.409-22.54-4.861c-0.622-0.554-1.628,0.15-1.178,0.909c4.352,7.322,13.104,11.704,21.501,11.189
				c8.12-0.496,15.642-6.7,19.417-13.686c0.46-0.852-0.835-1.608-1.295-0.758c-3.601,6.663-10.478,12.201-18.122,12.943
				c-7.787,0.757-16.207-3.718-20.206-10.447c-0.393,0.304-0.785,0.606-1.178,0.909c6.424,5.723,16.039,6.256,24.176,5.228
				c3.909-0.493,7.787-1.464,11.371-3.119c2.121-0.98,4.677-2.52,5.33-4.936C170.842,461.946,169.395,461.551,169.143,462.483z"/>
		</g>
	</g>
	<g>
		<g>
			<path fill="#A42423" d="M157.584,433.251c9.701-3.543,21.431-3.595,31.369-0.899c3.905,1.06,5.412,3.717,5.432,7.579
				c0.018,3.506-0.381,7.617-2.148,10.711c-1.937,3.392-6.28,3.854-9.776,4.066c-4.124,0.251-8.309,0.309-12.386-0.447
				c-4.432-0.821-7.965-2.854-9.729-7.132c-1.871-4.538-2.203-9.946-1.547-14.774c0.257-1.891-2.634-2.707-2.893-0.797
				c-0.742,5.469-0.39,11.168,1.547,16.369c1.75,4.697,5.246,7.391,9.965,8.787c4.814,1.424,10.086,1.273,15.042,0.994
				c4.255-0.239,8.782-0.954,11.608-4.475c2.667-3.322,3.03-8.096,3.281-12.182c0.244-3.964-0.644-7.605-3.994-9.998
				c-2.089-1.492-4.845-1.945-7.306-2.388c-3.094-0.555-6.233-0.863-9.371-1.013c-6.689-0.318-13.582,0.399-19.893,2.705
				C154.985,431.017,155.763,433.916,157.584,433.251L157.584,433.251z"/>
		</g>
	</g>
	<path fill="none" stroke="#A42423" stroke-width="2.3926" stroke-miterlimit="10" d="M144.409,431.243
		c0,0,6.909-3.672,12.943,0.713"/>
	<g>
		<g>
			<path fill="#A42423" d="M197.435,438.625c3.271-0.857,6.534-1.745,9.793-2.645c1.862-0.514,1.07-3.408-0.798-2.893
				c-3.259,0.899-6.522,1.787-9.793,2.645C194.768,436.223,195.562,439.116,197.435,438.625L197.435,438.625z"/>
		</g>
	</g>
	<g>
		<g>
			<path fill="#020303" d="M168.519,420.928c3.617,0.982,7.331,1.554,10.889,2.758c0.919,0.311,1.31-1.139,0.398-1.447
				c-3.557-1.203-7.271-1.774-10.889-2.758C167.982,419.227,167.586,420.674,168.519,420.928L168.519,420.928z"/>
		</g>
	</g>
	<g>
		<g>
			<path fill="#020303" d="M123.825,421.465c0.553-0.548,3.205-0.587,4.078-0.715c1.799-0.263,3.619-0.461,5.398-0.842
				c0.946-0.203,0.544-1.649-0.398-1.447c-1.925,0.413-3.896,0.623-5.842,0.907c-1.167,0.171-3.384,0.133-4.296,1.036
				C122.077,421.086,123.138,422.146,123.825,421.465L123.825,421.465z"/>
		</g>
	</g>
	<path fill="#FFFFFF" d="M182.902,513.741"/>
	<g>
		<g>
			<path fill="#FFFFFF" d="M139.973,385.638c-1.419-1.152-3.188-2.744-2.651-4.772c0.422-1.595,2.46-2.439,3.847-2.9
				c3.543-1.177,8.361-0.886,11.081,1.907c0.382,0.392,0.995-0.014,0.881-0.513c-1.674-7.335,10.271-12.838,14.23-6.107
				c0.308,0.523,1.105,0.172,0.963-0.405c-1.13-4.61,4.478-7.843,7.804-4.37c0.471,0.491,1.215-0.255,0.745-0.746
				c-4.082-4.261-10.934-0.188-9.565,5.396c0.321-0.135,0.642-0.271,0.963-0.405c-4.576-7.779-18.095-1.575-16.157,6.918
				c0.294-0.171,0.587-0.342,0.881-0.513c-3.313-3.4-9.156-3.477-13.304-1.728c-4.739,1.997-3.978,6.131-0.463,8.985
				C139.75,386.808,140.501,386.066,139.973,385.638L139.973,385.638z"/>
		</g>
	</g>
	<g>
		<g>
			<path fill="#FFFFFF" d="M178.093,386.956c-0.736-1.771-0.879-3.827-1.023-5.714c-0.121-1.589,2.295-1.59,3.46-1.618
				c1.833-0.044,3.509,0.911,4.929,1.958c0.177-0.304,0.355-0.606,0.532-0.91c-3.178-2.102-1.294-4.236,1.462-5.323
				c2.19-0.863,5.246-1.252,7.23,0.264c0.541,0.412,1.064-0.504,0.532-0.91c-4.572-3.492-17.001,2.089-9.757,6.88
				c0.577,0.381,1.067-0.516,0.532-0.91c-3.043-2.243-6.306-2.621-9.757-1.086c-0.162,0.072-0.264,0.286-0.261,0.455
				c0.044,2.327,0.2,5.021,1.103,7.194C177.334,387.854,178.354,387.583,178.093,386.956L178.093,386.956z"/>
		</g>
	</g>
	<g>
		<g>
			<path fill="#A42423" d="M142.963,431.642c0.655,4.438,0.231,9.263-1.567,13.396c-1.709,3.928-5.306,5.449-9.276,6.267
				c-3.922,0.807-8.051,0.685-12.029,0.501c-3.55-0.163-7.937-0.365-10.248-3.504c-1.895-2.574-2.116-6.438-2.233-9.508
				c-0.147-3.862,1.642-5.959,5.304-7.036c4.803-1.413,10.205-1.595,15.179-1.612c5.449-0.02,10.905,0.681,16.083,2.407
				c1.841,0.614,2.624-2.284,0.798-2.893c-5.989-1.997-12.317-2.597-18.603-2.498c-5.515,0.087-11.939,0.412-17.021,2.738
				c-3.578,1.639-4.782,5.215-4.741,8.894c0.042,3.842,0.608,8.621,3.145,11.688c2.736,3.309,7.093,4.022,11.152,4.261
				c4.891,0.287,9.827,0.314,14.646-0.677c4.569-0.939,8.367-3.256,10.433-7.515c2.315-4.772,2.632-10.537,1.869-15.707
				C145.574,428.937,142.684,429.75,142.963,431.642L142.963,431.642z"/>
		</g>
	</g>
	<g>
		<path fill="#FFFFFF" d="M149.099,434.315c0.858,6.168-0.199,7.588-1.912,13.406c-2.575-0.344-5.008-0.461-6.719-1.832
			c-6.11,11.24,3.918,10.007,8.631,9.664"/>
		<g>
			<path fill="#020304" d="M148.599,434.315c0.372,2.889,0.383,5.565-0.391,8.389c-0.373,1.359-0.836,2.696-1.252,4.044
				c-0.447,1.449-5.597-0.849-6.236-1.29c-0.217-0.15-0.564-0.049-0.684,0.18c-1.492,2.84-3.479,7.239-0.14,9.551
				c2.488,1.722,6.397,1.074,9.203,0.865c0.639-0.048,0.644-1.048,0-1c-2.41,0.18-4.889,0.449-7.266-0.128
				c-4.471-1.088-2.387-6.017-0.934-8.784c-0.228,0.061-0.456,0.12-0.684,0.18c2.071,1.434,4.539,1.592,6.971,1.9
				c0.22,0.028,0.424-0.174,0.482-0.367c1.415-4.724,2.57-8.561,1.93-13.539C149.518,433.685,148.517,433.677,148.599,434.315
				L148.599,434.315z"/>
		</g>
	</g>
	<g>
		<path fill="#FFFFFF" d="M223.284,386.718l8.643-16.081c0,0-58.544-43.505-125.122-6.393l4.595,20.261L223.284,386.718z"/>
		<path fill="#3E68B0" d="M221.094,402.41c0,0-51.46-22.066-110.506-5.529l1.027-13.745c0,0,20.401-10.578,60.289-7.279
			c39.888,3.298,51.511,10.85,51.511,10.85L221.094,402.41z"/>
		<path fill="#1E1E1C" d="M203.312,396.707c0,0-30.264-12.409-84.723-3.06c-21.957,3.77-12.166,10.615,14.144,9.425
			C159.48,401.863,203.312,396.707,203.312,396.707z"/>
	</g>
	<g>
		<g>
			<path fill="#FFFFFF" d="M192.874,482.292c0.507,3.206,2.579,5.102,5.634,3.219c2.859-1.762,4.9-5.77,4.062-9.085
				c-0.294,0.171-0.587,0.342-0.881,0.513c4.696,4.301,13.364-1.719,10.292-7.55c-0.276,0.213-0.552,0.426-0.828,0.638
				c3.136,2.896,8.031,0.189,7-4.042c-0.161-0.66-1.177-0.381-1.017,0.279c0.777,3.19-2.861,5.212-5.238,3.019
				c-0.444-0.411-1.108,0.104-0.828,0.638c2.51,4.764-4.835,9.756-8.637,6.272c-0.387-0.354-1.013-0.01-0.881,0.513
				c0.634,2.508-0.668,5.004-2.322,6.82c-0.792,0.871-1.87,1.658-3.073,1.765c-1.675,0.147-2.079-2.078-2.268-3.277
				C193.784,481.343,192.769,481.628,192.874,482.292L192.874,482.292z"/>
		</g>
	</g>
	<path fill="#110906" d="M229.323,484.481c-0.039-6.475-5.298-11.712-11.781-11.712c-6.51,0-11.786,5.276-11.786,11.786
		c0,1.437,0.27,2.807,0.74,4.08c-0.827-0.189-1.686-0.299-2.571-0.299c-6.347,0-11.492,5.146-11.492,11.492
		c0,6.17,4.866,11.189,10.969,11.466c2.098,4.757,6.848,8.08,12.38,8.08c7.475,0,13.534-6.06,13.534-13.534
		c0-1.571-0.281-3.074-0.774-4.479c0.255,0.023,0.513,0.039,0.774,0.039c4.673,0,8.461-3.787,8.461-8.46
		C237.776,488.272,233.992,484.486,229.323,484.481z"/>
	<g>
		<g>
			<path fill="#FFFFFF" d="M203.063,495.617c-2.39,1.402-4.251,4.015-3.365,6.876c0.881,2.845,4.241,2.318,6.328,1.426
				c-0.177-0.304-0.355-0.606-0.532-0.91c-4.416,2.55-2.26,6.187,1.799,7.445c5.157,1.599,9.851-1.249,9.557-6.84
				c-0.345,0.047-0.69,0.094-1.035,0.14c1.326,5.852,10.883,3.229,7.662-2.325c-0.341-0.588-1.251-0.058-0.91,0.531
				c2.417,4.166-4.737,5.92-5.735,1.515c-0.131-0.579-1.066-0.455-1.035,0.14c0.239,4.543-2.956,6.801-7.258,6.056
				c-3.324-0.576-6.616-3.382-2.512-5.751c0.604-0.35,0.075-1.17-0.532-0.91c-2.042,0.874-4.745,1.02-4.98-1.803
				c-0.17-2.042,1.472-3.734,3.082-4.679C204.181,496.184,203.65,495.272,203.063,495.617L203.063,495.617z"/>
		</g>
	</g>
	<g>
		<g>
			<path fill="#FFFFFF" d="M208.389,490.952c-1.385,2.119-1.212,4.895,1.722,5.314c3.064,0.439,4.515-2.524,4.319-5.13
				c-0.345,0.047-0.69,0.094-1.035,0.14c1.248,4.396,5.313,5.727,9.216,3.595c3.412-1.863,3.788-5.593,0.022-7.193
				c-0.136,0.321-0.271,0.643-0.406,0.963c3.468,0.735,6.816-1.024,5.726-4.945c-1.395-5.013-7.32-3.959-11.177-3.722
				c-0.675,0.042-0.679,1.096,0,1.055c2.425-0.15,4.843-0.631,7.237,0.016c2.008,0.542,3.421,2.818,3.067,4.844
				c-0.368,2.107-3.052,2.06-4.572,1.737c-0.552-0.117-0.982,0.718-0.406,0.963c3.358,1.427,2.391,4.056-0.345,5.55
				c-3.195,1.744-6.373,0.282-7.345-3.141c-0.159-0.559-1.081-0.468-1.035,0.14c0.149,1.987-0.547,4.01-2.816,4.11
				c-2.432,0.107-2.217-2.301-1.261-3.764C209.672,490.913,208.759,490.386,208.389,490.952L208.389,490.952z"/>
		</g>
	</g>
	<path fill="#FFFFFF" d="M81.478,471.194c0,0,3.594,2.805,3.521-7.791c-0.032-4.572-0.248-17.539-0.231-19.241
		c0.009-0.863,5.021-1.71,5.153,1.737c0.097,2.498-0.036,20.687,0.986,23.18c1.379,3.363,3.211,0.564,3.211,0.564
		s1.734-19.447,2.077-20.207c2.051-4.553,4.431,0.746,4.431,0.746s-3.332,34.894,0.755,37.288c0,0,1.622-9.122,5.753-10.779
		c4.131-1.656,5.496,1.073,5.496,1.073s-3.607,3.44-5.143,10.072c-2.635,11.391-8.002,15.005-15.548,22.17
		c0,0-7.172,60.632-1.745,62.506c6.865,2.371,23.104-27.336,32.629-37.229c2.719,5.678,6.249,8.926,8.774,14.699
		c0.379,0.866-40.501,50.78-48.614,38.297c-12.067-18.565-4.104-79.513-4.104-79.513l-5.713-9.177c0,0-1.646-4.403-3.897-21.877
		c-0.642-4.986-5.706-17.417-6.192-18.789c-0.992-2.794,1.547-2.642,2.527-1.667c3.42,3.398,7.028,15.182,8.342,16.998
		c1.158,1.604,2.571-0.618,2.571-0.618l-4.979-23.073c0,0,0.578-5.321,2.834-2.993C76.63,449.897,81.478,471.194,81.478,471.194z"/>
	<path fill="#0E8CCD" d="M115.163,542.013l14.184,18.582l13.48-28.156l-5.426-19.242
		C137.401,513.196,121.291,532.821,115.163,542.013z"/>
	<polygon fill="#E4F3FB" points="209.863,609.131 199.984,547.374 187.276,551.204 196.03,609.881 	"/>
	<path fill="#0E8CCD" d="M204.569,549.794l-19.543,12.828l-3.382-31.033l9.713-17.848
		C191.357,513.741,201.836,539.091,204.569,549.794z"/>
</g>
<g>
</g>
<g>
</g>
<g>
</g>
<g>
</g>
<g>
</g>
<g>
</g>
</svg>
