<?xml version="1.0" encoding="utf-8"?>
<!-- Generator: Adobe Illustrator 16.0.4, SVG Export Plug-In . SVG Version: 6.00 Build 0)  -->
<!DOCTYPE svg PUBLIC "-//W3C//DTD SVG 1.1//EN" "http://www.w3.org/Graphics/SVG/1.1/DTD/svg11.dtd">
<svg version="1.1" id="Layer_1" xmlns="http://www.w3.org/2000/svg" xmlns:xlink="http://www.w3.org/1999/xlink" x="0px" y="0px"
	 width="569.211px" height="617.435px" viewBox="0 0 569.211 617.435" enable-background="new 0 0 569.211 617.435"
	 xml:space="preserve">
<polygon fill="#2EBDEF" points="1.525,304.904 274.426,294.048 278.148,14.019 19.363,14.019 "/>
<g>
	<path fill="#3E68B0" d="M188.91,297.495c0,0,11.956-72.229-43.092-79.847c-55.047-7.617-36.158-4.402-40.077-1.211
		c-1.747,1.424-8.807,11.779-8.807,11.779c3.97,43.312-6.837,73.2-6.837,73.2L188.91,297.495z"/>
	<path fill="#110906" d="M93.766,133.06c0,0,14.599,41.783-0.451,50.884c-15.051,9.103-14.702,4.551-14.702,4.551
		s10.152,15.052,21.002,11.199c10.852-3.85,8.753-10.856,8.753-10.856s3.148,14.357-1.052,16.107
		c-4.201,1.75,18.552,5.603,21.352-5.251c2.799-10.85-10.15-43.752-11.201-43.752c-1.052,0-5.486-24.821-5.486-24.821"/>
	<path fill="#FFFFFF" d="M104.947,136.879c1.522,7.836-3.589,29.778,3.055,43.997c6.643,14.219,13.374,17.931,32.457,20.791
		c2.927,8.479-2.292,28.147,0,30.55c14.925,15.646,22.241,9.842,23.886,2.082c0.468-2.211-3.313-33.386,4.367-35.699
		c31.502-9.486,22.302-41.122,21.703-45.418c-0.02-0.134-0.058-0.266-0.076-0.4c-0.357-2.64-0.793-5.218-1.222-7.663
		c-1.593-9.083-2.973-18.058-3.55-27.263c-0.817-13.114-1.219-32.461-14.298-39.979c-14.034-8.067-32.755-4.209-46.593,2.481
		C110.712,87.109,103.394,128.88,104.947,136.879z"/>
	
		<ellipse transform="matrix(-0.9878 0.1557 -0.1557 -0.9878 351.2007 245.422)" fill="none" stroke="#1E1E1C" stroke-width="1.0314" stroke-miterlimit="10" cx="165.987" cy="136.467" rx="2.813" ry="5.464"/>
	
		<ellipse transform="matrix(-0.8868 0.4621 -0.4621 -0.8868 303.3843 197.8429)" fill="none" stroke="#020303" stroke-width="1.5" stroke-miterlimit="10" cx="127.466" cy="136.071" rx="2.812" ry="5.463"/>
	<path fill="none" stroke="#1E1E1C" stroke-width="2.0584" stroke-miterlimit="10" d="M112.49,127.702
		c-1.723,0-14.331,4.286-14.331,4.286"/>
	<g>
		<g>
			<path fill="#FFFFFF" d="M171.125,97.289c1.707-1.378,3.852-3.457,3.454-5.905c-0.339-2.084-2.096-3.375-3.903-4.205
				c-4.612-2.12-11.475-1.874-15.153,1.935c0.293,0.171,0.587,0.342,0.881,0.513c2.237-9.595-13.167-16.654-18.297-7.836
				c0.321,0.136,0.642,0.271,0.963,0.406c1.585-6.285-6.228-10.913-10.79-6.084c-0.466,0.494,0.277,1.24,0.745,0.745
				c3.819-4.042,10.367-0.249,9.028,5.059c-0.146,0.577,0.659,0.929,0.963,0.406c4.518-7.767,18.339-1.416,16.371,7.023
				c-0.116,0.499,0.501,0.906,0.881,0.513c3.105-3.215,8.311-3.387,12.381-2.294c1.775,0.477,3.657,1.393,4.601,3.042
				c1.309,2.29-1.297,4.667-2.869,5.937C169.851,96.971,170.601,97.711,171.125,97.289L171.125,97.289z"/>
		</g>
	</g>
	<g>
		<g>
			<path fill="#020303" d="M148.546,132.847c0.025,0.894,1.013,1.961,1.46,2.664c1.429,2.249,2.855,4.498,4.244,6.771
				c4.203,6.885,8.155,14.014,11.014,21.572c0.115-0.282,0.229-0.564,0.345-0.847c-2.785,1.762-6.893,1.525-10.057,1.556
				c-3.186,0.031-6.366-0.186-9.551-0.205c-0.968-0.006-0.967,1.494,0,1.5c3.612,0.021,7.215,0.251,10.829,0.187
				c3.052-0.054,6.859-0.05,9.536-1.744c0.265-0.167,0.465-0.528,0.345-0.847c-2.585-6.835-6.044-13.295-9.752-19.579
				c-1.531-2.593-3.127-5.147-4.743-7.688c-0.488-0.767-0.978-1.533-1.463-2.302c-0.186-0.293-0.716-1.402-0.706-1.04
				C150.018,131.881,148.518,131.879,148.546,132.847L148.546,132.847z"/>
		</g>
	</g>
	<path fill="#110906" d="M134.184,94.896c1,0.448-9.103,17.916-21.766,34.021c-12.667,16.105-13.709,40.082-11.868,58.721
		c0.098,0.979-9.352-16.752-9.352-36.607c0-2.091-3.979,16.432-1.062,22.948c2.92,6.518-9.312-4.98-5.842-50.98
		c3.718-49.284,15.745-40.438,15.745-40.438s4.275-13.049-8.056,3.949c0,0-6.262-18.297,9.736-19.638
		c32.707-2.744,35.662,11.184,35.662,11.184"/>
	<ellipse fill="#FFFFFF" cx="98.159" cy="155.873" rx="11.448" ry="13.482"/>
	<g>
		<path fill="none" stroke="#1E1E1C" stroke-width="4" stroke-miterlimit="10" d="M141.401,131.861c0,0,5.188,16.729-3.193,18.172
			c-8.385,1.446-24.511,5.435-26.021-1.896c-1.509-7.327-4.765-14.938,5.786-17.135C128.52,128.803,139.377,127.326,141.401,131.861
			z"/>
		<path fill="none" stroke="#1E1E1C" stroke-width="4" stroke-miterlimit="10" d="M155.635,133.285c0,0-0.217,16.641,7.238,16.155
			c7.459-0.484,22.104-0.297,21.554-7.421c-0.551-7.123,0.306-14.889-9.174-14.63C165.777,127.646,156.218,128.64,155.635,133.285z"
			/>
		<g>
			<g>
				<path fill="#1E1E1C" d="M157.018,133.746c-2.106-5.943-12.449-5.565-16.907-2.927c-2.217,1.312-0.207,4.771,2.019,3.454
					c1.791-1.06,3.996-1.171,6.027-1.129c1.217,0.025,4.485,0.202,5.003,1.665C154.016,137.223,157.881,136.183,157.018,133.746
					L157.018,133.746z"/>
			</g>
		</g>
	</g>
	<path fill="#FFFFFF" d="M181.562,235.286l6.011,30.851c0,0,42.116,17.628,66.506-3.975c14.189-12.567-12.049-98.844-12.049-98.844
		s7.936-38.048,7.797-44.598c-0.138-6.547-16.174-19.798-16.174-19.798h-13.742l9.994,11.85c6.751,6.405-6.08,33.854-6.08,33.854
		s-12.687-16.928-14.915-17.722c-2.229-0.797-10.581,1.846-8.096,3.152c7.4,3.892,14.561,25.535,14.561,25.535
		s7.884,6.51,10.435,10.566c1.798,2.866,22.504,72.351,6.191,85.246C218.946,261.725,181.562,235.286,181.562,235.286z"/>
	<path fill="#1E1E1C" d="M116.913,103.991c0,0,33.326,54.034,62.92,61.304c29.593,7.271,38.6-8.373,38.6-8.373
		s-23.365,10.523-28.158-4.979c0,0,10.788,6.405,17.221,3.78c6.434-2.625-18.359-0.824-17.221-22.324
		c1.138-21.5-0.393-44.238-11.729-44.402C157.132,88.686,116.913,103.991,116.913,103.991z"/>
	<g>
		<path fill="#FFFFFF" d="M88.576,88.274l-3.545-19.651c0,0,72.852-29.386,127.965,29.505l-11.115,20.267L88.576,88.274z"/>
		<path fill="#82CFF5" d="M85.754,105.64c0,0,58.855-8.587,112.979,26.184l3.369-14.951c0,0-17.143-17.2-58.341-25.263
			c-41.198-8.062-55.313-3.386-55.313-3.386L85.754,105.64z"/>
		<path fill="#1E1E1C" d="M105.476,104.723c0,0,34.433-4.445,86.242,21.331c20.889,10.393,8.843,14.847-17.253,5.942
			C147.934,122.941,105.476,104.723,105.476,104.723z"/>
	</g>
	<g>
		<g>
			<path fill="#020303" d="M140.804,176.309c6.021-0.729,11.955-0.063,17.664,1.991c0.912,0.329,1.302-1.122,0.398-1.446
				c-5.824-2.096-11.917-2.788-18.062-2.044C139.856,174.923,139.845,176.425,140.804,176.309L140.804,176.309z"/>
		</g>
	</g>
	<polygon fill="#3E68B0" points="164.19,223.477 200.814,242.623 193.924,280.483 167.511,276.004 	"/>
	
		<line fill="none" stroke="#1E1E1C" stroke-width="2.0584" stroke-miterlimit="10" x1="110.766" y1="136.468" x2="98.159" y2="136.07"/>
	<path fill="#FFFFFF" d="M94.116,214.469l-4.479,28.093c0,0-55.006-8.166-70.74-35.504c-9.155-15.905,41.494-87.016,41.494-87.016
		s4.432-37.367,6.574-43.336c2.143-5.968,20.942-13.192,20.942-13.192s19.778-3.421,20.405-2.436
		c2.506,3.937-6.627,11.48-16.075,12.935c-4.804,0.739-9.792,6.467-9.792,6.467c-3.326,4.988,0.41,28.01,0.41,28.01
		s9.124-3.762,11.415-3.805c2.291-0.045,11.922,0.12,9.238,0.554c-7.99,1.294-16.274,15.919-16.274,15.919s-9.239,3.547-12.83,6.485
		c-2.533,2.077-42.934,59.479-31.932,76.338C51.278,217.473,94.116,214.469,94.116,214.469z"/>
	<path fill="#3E68B0" d="M114.581,213.216c0,0-22.728-5.137-25.037-1.955l-8.6,40.72l30.264,12.518L114.581,213.216z"/>
	<path fill="#FFFFFF" d="M63.414,103.391c0.555-0.369-4.619-24.389-5.543-30.302s3.511-25.499,3.511-25.499
		s7.576,5.913,6.098,14.228s5.543,24.76,5.543,24.76"/>
</g>
<g>
</g>
<g>
</g>
<g>
</g>
<g>
</g>
<g>
</g>
<g>
</g>
</svg>
