<?xml version="1.0" encoding="utf-8"?>
<!-- Generator: Adobe Illustrator 16.0.4, SVG Export Plug-In . SVG Version: 6.00 Build 0)  -->
<!DOCTYPE svg PUBLIC "-//W3C//DTD SVG 1.1//EN" "http://www.w3.org/Graphics/SVG/1.1/DTD/svg11.dtd">
<svg version="1.1" id="Layer_1" xmlns="http://www.w3.org/2000/svg" xmlns:xlink="http://www.w3.org/1999/xlink" x="0px" y="0px"
	 width="569.211px" height="617.435px" viewBox="0 0 569.211 617.435" enable-background="new 0 0 569.211 617.435"
	 xml:space="preserve">
<polygon fill="#2EBDEF" points="545.212,298.142 294.839,298.142 290.968,19.599 557.894,0 "/>
<g>
	<g>
		<path fill="#FEEDA4" d="M379.226,298.79h131.445c15.493-13.534,32.485-37.94,31.039-60.21
			c-1.312-20.055-36.097-51.75-50.288-30.674c-10.397,15.447-2.968,51.271,16.919,45.947c19.294-5.164,0.268-21.563-3.519-14.88
			c-4.515,7.951-8.73-1.793-3.032-10.857c5.888-9.361,15.35-9.236,21.926-1.295c24.169,29.178-17.275,42.281-34.893,44.488
			c-27.633,3.471-40.395-32.659-15.951-50.7c20.059-14.801,27.641-24.867,32.25-52.925c5.498-33.456,2.773-38.755-20.692-48.672
			c-13.46-5.688-13.763-53.729-26.837-56.523c-6.432-1.376-15.266,3.994-20.154,0.841c-3.211-10.891-61.637,8.722-69.898,13.024
			c-17.271,8.99,31.6,48.247-21.696,60.145C267.686,153.948,327.081,264.039,379.226,298.79z M495.054,223.394
			c0.416-9.826,3.136-14.893,12.678-11.836C513.377,213.362,498.08,218.787,495.054,223.394z"/>
		<path fill="#1E1E1C" d="M379.852,250.661c6.983,6.044,5.834,33.355,4.648,48.129h35.707c-0.892-18.064-1.46-38.946-1.46-49.385
			c0-1.158,15.287-0.481,15.248-0.77c-2.291-18.263-13.101-33.28-34.966-33.428c-26.396-0.177-33.07,33.667-33.07,33.667
			C365.959,249.698,379.575,250.43,379.852,250.661z"/>
		<g>
			<path fill="#FFFFFF" d="M371.54,156.361c0.002-0.003,0.002-0.003,0.002-0.005c1.998-6.535,6.22-4.68,10.091-1.465
				c-0.764-5.347-2.253-10.949-2.361-15.777c-0.042-1.831-0.11-3.976-0.129-6.223c11.883-0.862,23.74-3.214,34.974-6.217
				c14.723-3.937,25.875-11.062,35.75-21.357c5.633,3.388,10.36,8.584,14.662,15.373c1.107,1.754,12.354,24.708,15.213,31.659
				c6.082,14.784-23.939,36.108-34.779,49.364c-2.717,3.32-16.713,0.457-29.357-2.741c-2.209-0.561-7.176-3.531-9.621-3.879
				c-1.348,4.827-0.796,25.436-0.641,31.112c0.115,4.251-4.975,5.891-7.742,3.446c-0.779-0.366-1.47-1.039-1.939-2.127
				c-0.478-1.1-0.928-2.34-1.362-3.639c-3.328-7.47-1.889-26.234-7.734-43.363c-7.782-6.171-18.516-12.69-15.026-24.153
				C370.73,159.021,369.317,163.667,371.54,156.361z"/>
		</g>
		<path fill="none" stroke="#020303" stroke-width="1.5" stroke-miterlimit="10" d="M455.183,143.279
			c0,2.459,1.478,4.455,3.295,4.455c1.827,0,3.302-1.996,3.302-4.455c0-2.458-1.475-4.45-3.302-4.45
			C456.66,138.829,455.183,140.821,455.183,143.279z"/>
		<g>
			<g>
				<path fill="#020303" d="M433.176,139.298c2.331,4.551-0.333,12.449,6.18,14.082c1.112,0.279,2.242-0.145,3.271-0.528
					c0.671-0.25,1.327-0.492,2.023-0.663c2.075-0.508,2.671,2.028,2.007,3.422c-1.277,2.683-5.863,4.141-8.613,4.231
					c-0.965,0.032-0.968,1.532,0,1.5c4.124-0.135,15.153-5.477,8.62-10.321c-1.1-0.816-2.82-0.212-3.926,0.19
					c-2.373,0.862-4.549,1.044-5.917-1.502c-1.811-3.371-0.57-7.693-2.351-11.167C434.03,137.68,432.735,138.439,433.176,139.298
					L433.176,139.298z"/>
			</g>
		</g>
		<g>
			<path fill="#1E1E1C" d="M422.587,144.48c-10.602-5.897-20.771-4.343-26,0.956c-2.38-1.061-6.184-3.931-7.374-6.049
				c6.185,2.384,6.382,1.741,8.192,1.149C407.313,137.3,412.387,133.362,422.587,144.48"/>
			<g>
				<path fill="#020303" d="M422.806,144.106c-5.909-3.179-12.565-4.793-19.188-3.125c-2.375,0.598-4.556,1.787-6.447,3.323
					c-1.931,1.57-6.534-3.464-7.583-5.135c-0.163,0.212-0.327,0.425-0.49,0.637c2.123,0.805,4.676,2.061,7.024,1.613
					c2.463-0.471,4.909-1.701,7.278-2.512c2.876-0.984,5.821-1.703,8.856-1.088c4.053,0.821,7.314,4.069,10.024,6.968
					c0.383,0.41,0.995-0.205,0.613-0.613c-4.584-4.904-9.67-8.561-16.6-7.024c-3.158,0.7-6.208,2.017-9.264,3.058
					c-2.681,0.914-5.151-0.271-7.701-1.238c-0.362-0.137-0.682,0.332-0.49,0.637c1.7,2.708,4.68,4.846,7.53,6.205
					c0.18,0.086,0.376,0.077,0.525-0.068c6.975-6.761,17.647-5.099,25.475-0.888C422.861,145.12,423.299,144.371,422.806,144.106
					L422.806,144.106z"/>
			</g>
		</g>
		<g>
			<path fill="#1E1E1C" d="M449.331,144.28c3.276-6.901,15.913-6.094,19.92-2.035c1.82-0.815,4.734-3.014,5.646-4.634
				c-4.738,1.823-4.889,1.334-6.274,0.881c-7.592-2.479-13.983-4.326-19.12,5.217"/>
			<g>
				<path fill="#020303" d="M449.618,144.448c3.28-6.329,14.555-6.562,19.398-1.968c0.115,0.109,0.264,0.12,0.403,0.052
					c2.203-1.079,4.413-2.676,5.766-4.753c0.152-0.234-0.102-0.592-0.375-0.488c-2.088,0.787-3.929,1.626-6.098,0.881
					c-2.485-0.854-5.03-1.607-7.644-1.925c-5.521-0.671-9.302,2.738-11.852,7.294c-0.209,0.375,0.365,0.71,0.574,0.336
					c1.58-2.824,3.541-5.396,6.664-6.555c2.527-0.938,5.377-0.409,7.901,0.224c1.792,0.449,3.507,1.186,5.294,1.63
					c1.704,0.424,3.823-0.674,5.336-1.245c-0.125-0.163-0.25-0.325-0.375-0.488c-1.095,1.682-2.763,2.898-4.444,3.944
					c-1.053,0.656-1.499-0.128-2.421-0.681c-1.944-1.166-4.287-1.625-6.513-1.838c-4.565-0.437-9.936,0.896-12.188,5.243
					C448.847,144.493,449.421,144.829,449.618,144.448L449.618,144.448z"/>
			</g>
		</g>
		<path fill="#F6AD9E" d="M400.249,160.594c0,3.274,3.876,5.935,8.663,5.935s8.665-2.66,8.665-5.935c0-3.28-3.878-5.937-8.665-5.937
			S400.249,157.313,400.249,160.594z"/>
		<path fill="#F6AD9E" d="M457.071,158.245c0,3.276,3.877,5.938,8.661,5.938c4.785,0,8.666-2.661,8.666-5.938
			c0-3.278-3.881-5.938-8.666-5.938C460.948,152.308,457.071,154.967,457.071,158.245z"/>
		<g>
			<g>
				<path fill="#020303" d="M468.717,128.399c-3.692-3.545-8.032-6.216-12.298-9.001c-0.812-0.531-1.563,0.769-0.757,1.295
					c4.159,2.716,8.393,5.31,11.995,8.767C468.354,130.13,469.416,129.07,468.717,128.399L468.717,128.399z"/>
			</g>
		</g>
		<path fill="#82CFF5" d="M455.932,285.226h-25.3c-2.043,0-3.715-1.672-3.715-3.715v-51.319c0-2.043,1.672-3.714,3.715-3.714h25.3
			c2.043,0,3.715,1.671,3.715,3.714v51.319C459.646,283.554,457.975,285.226,455.932,285.226z"/>
		<ellipse fill="#F5F5F6" cx="446.309" cy="255.852" rx="6.022" ry="6.189"/>
		<ellipse fill="#1E1E1C" cx="432.522" cy="232.307" rx="1.473" ry="1.514"/>
		<path fill="#FFFFFF" d="M443.835,259.817l-7.207-0.053c0,0,3.078-1.662,7.27-2.986c3.379-1.066,10.884-0.184,12.092-0.71
			c0.613-0.268,0.008-3.815-0.923-3.792c-1.937,0.047-7.146,0.08-11.125,0.836c-3.921,0.744-7.143,1.81-9.231,1.834
			c-2.814,0.035,3.616-4.676,3.616-4.676l7.237-1.695c0,0,4.185,0,4.457-2.854c0.274-2.854-14.523,1.406-14.523,1.406
			s-12.203,10.373-10.396,7.179c1.808-3.195,1.815-1.531,1.815-1.531v-4.081c0,0-4.135,0.4-8.431,6.941
			c-4.295,6.54-12.012,9.43-12.012,9.43s-37.993,26.493-44.056,20.161c-6.422-6.707,12.506-24.753,16.679-34.54
			c-4.871-0.221-8.257-1.756-13.139-1.811c-0.732-0.008-23.374,42.133-12.604,46.266c20.396,7.826,56.127-20.222,56.127-20.222
			l10.161,0.273c0,0,13.519-2.832,22.828-4.113c3.858-0.531,7.097-0.76,8.186-0.467c0.171,0.045,2.188-1.651,1.196-2.056
			c-3.459-1.411-12.74-1.091-14.434-1.478c-1.494-0.341-0.336-2.021-0.336-2.021l7.732-1.074l10.082,0.039l1.277-2.928
			l-11.314-1.323C444.519,259.741,444.173,259.756,443.835,259.817z"/>
		<path fill="none" stroke="#020303" stroke-width="1.5" stroke-miterlimit="10" d="M405.09,145.971c0,2.851,1.713,5.164,3.82,5.164
			c2.117,0,3.827-2.313,3.827-5.164c0-2.85-1.71-5.158-3.827-5.158C406.803,140.812,405.09,143.121,405.09,145.971z"/>
		<g>
			<g>
				<path fill="#020303" d="M432.548,174.266c1.127,0.033,3.032,0.15,3.856-0.849c1.397-1.693,0.583-3.623,1.485-5.551
					c2.281-4.872,10.073,1.14,5.089,4.432c-2.682,1.771-6.259,2.233-9.105,0.7c-0.852-0.459-1.609,0.836-0.757,1.295
					c4.706,2.535,15.258,0.172,12.386-6.858c-0.998-2.443-4.051-3.587-6.435-2.458c-1.262,0.598-2.468,1.571-2.865,2.987
					c-0.224,0.796-0.311,1.501-0.315,2.334c-0.013,2.19-1.604,2.518-3.34,2.468C431.58,172.737,431.583,174.238,432.548,174.266
					L432.548,174.266z"/>
			</g>
		</g>
		<g>
			<g>
				<path fill="#020303" d="M437.045,175.485c2.236-0.012,4.538-0.553,5.963,1.532c0.691,1.011,1.689,2.717,0.335,3.723
					c-1.424,1.058-2.82,0.852-3.873-0.557c-1.847-2.471-2.353-5.707-5.74-6.574c-0.938-0.24-1.335,1.207-0.398,1.446
					c3.187,0.816,3.829,4.924,5.854,7.11c1.49,1.608,4.226,0.689,5.593-0.639c1.742-1.691,0.259-4.192-0.875-5.85
					c-1.633-2.388-4.285-1.704-6.859-1.691C436.078,173.99,436.078,175.49,437.045,175.485L437.045,175.485z"/>
			</g>
		</g>
	</g>
	<path fill="#FFFFFF" d="M366.461,100.189l-9.633-15.537c0,0,52.131-49.535,118.87-17.948l-2.641,20.994L366.461,100.189z"/>
	<path fill="#0DA2DD" d="M369.902,115.923c0,0,47.215-27.118,104.995-15.733l-2.164-13.862c0,0-20.383-8.873-58.169-1.871
		s-48.229,15.733-48.229,15.733L369.902,115.923z"/>
	<path fill="#1E1E1C" d="M386.383,108.505c0,0,27.817-15.373,80.599-10.865c21.281,1.816,12.525,9.663-12.688,10.865
		C428.661,109.726,386.383,108.505,386.383,108.505z"/>
</g>
<g>
</g>
<g>
</g>
<g>
</g>
<g>
</g>
<g>
</g>
<g>
</g>
</svg>
