<?xml version="1.0" encoding="utf-8"?>
<!-- Generator: Adobe Illustrator 16.0.4, SVG Export Plug-In . SVG Version: 6.00 Build 0)  -->
<!DOCTYPE svg PUBLIC "-//W3C//DTD SVG 1.1//EN" "http://www.w3.org/Graphics/SVG/1.1/DTD/svg11.dtd">
<svg version="1.1" id="Layer_1" xmlns="http://www.w3.org/2000/svg" xmlns:xlink="http://www.w3.org/1999/xlink" x="0px" y="0px"
	 width="569.211px" height="617.435px" viewBox="0 0 569.211 617.435" enable-background="new 0 0 569.211 617.435"
	 xml:space="preserve">
<polygon fill="#2EBDEF" points="545.212,298.142 294.839,298.142 290.968,19.599 557.894,0 "/>
<polygon fill="#2EBDEF" points="1.525,304.904 274.426,294.048 278.148,14.019 19.363,14.019 "/>
<polygon fill="#2EBDEF" points="569.211,617.344 296.31,606.487 292.588,326.458 551.373,326.458 "/>
<polygon fill="#2EBDEF" points="0,617.435 272.9,606.579 276.623,326.549 17.837,326.549 "/>
<g>
	<g>
		<path fill="#FEEDA4" d="M379.226,298.79h131.445c15.493-13.534,32.485-37.94,31.039-60.21
			c-1.312-20.055-36.097-51.75-50.288-30.674c-10.397,15.447-2.968,51.271,16.919,45.947c19.294-5.164,0.268-21.563-3.519-14.88
			c-4.515,7.951-8.73-1.793-3.032-10.857c5.888-9.361,15.35-9.236,21.926-1.295c24.169,29.178-17.275,42.281-34.893,44.488
			c-27.633,3.471-40.395-32.659-15.951-50.7c20.059-14.801,27.641-24.867,32.25-52.925c5.498-33.456,2.773-38.755-20.692-48.672
			c-13.46-5.688-13.763-53.729-26.837-56.523c-6.432-1.376-15.266,3.994-20.154,0.841c-3.211-10.891-61.637,8.722-69.898,13.024
			c-17.271,8.99,31.6,48.247-21.696,60.145C267.686,153.948,327.081,264.039,379.226,298.79z M495.054,223.394
			c0.416-9.826,3.136-14.893,12.678-11.836C513.377,213.362,498.08,218.787,495.054,223.394z"/>
		<path fill="#1E1E1C" d="M379.852,250.661c6.983,6.044,5.834,33.355,4.648,48.129h35.707c-0.892-18.064-1.46-38.946-1.46-49.385
			c0-1.158,15.287-0.481,15.248-0.77c-2.291-18.263-13.101-33.28-34.966-33.428c-26.396-0.177-33.07,33.667-33.07,33.667
			C365.959,249.698,379.575,250.43,379.852,250.661z"/>
		<g>
			<path fill="#FFFFFF" d="M371.54,156.361c0.002-0.003,0.002-0.003,0.002-0.005c1.998-6.535,6.22-4.68,10.091-1.465
				c-0.764-5.347-2.253-10.949-2.361-15.777c-0.042-1.831-0.11-3.976-0.129-6.223c11.883-0.862,23.74-3.214,34.974-6.217
				c14.723-3.937,25.875-11.062,35.75-21.357c5.633,3.388,10.36,8.584,14.662,15.373c1.107,1.754,12.354,24.708,15.213,31.659
				c6.082,14.784-23.939,36.108-34.779,49.364c-2.717,3.32-16.713,0.457-29.357-2.741c-2.209-0.561-7.176-3.531-9.621-3.879
				c-1.348,4.827-0.796,25.436-0.641,31.112c0.115,4.251-4.975,5.891-7.742,3.446c-0.779-0.366-1.47-1.039-1.939-2.127
				c-0.478-1.1-0.928-2.34-1.362-3.639c-3.328-7.47-1.889-26.234-7.734-43.363c-7.782-6.171-18.516-12.69-15.026-24.153
				C370.73,159.021,369.317,163.667,371.54,156.361z"/>
		</g>
		<path fill="none" stroke="#020303" stroke-width="1.5" stroke-miterlimit="10" d="M455.183,143.279
			c0,2.459,1.478,4.455,3.295,4.455c1.827,0,3.302-1.996,3.302-4.455c0-2.458-1.475-4.45-3.302-4.45
			C456.66,138.829,455.183,140.821,455.183,143.279z"/>
		<g>
			<g>
				<path fill="#020303" d="M433.176,139.298c2.331,4.551-0.333,12.449,6.18,14.082c1.112,0.279,2.242-0.145,3.271-0.528
					c0.671-0.25,1.327-0.492,2.023-0.663c2.075-0.508,2.671,2.028,2.007,3.422c-1.277,2.683-5.863,4.141-8.613,4.231
					c-0.965,0.032-0.968,1.532,0,1.5c4.124-0.135,15.153-5.477,8.62-10.321c-1.1-0.816-2.82-0.212-3.926,0.19
					c-2.373,0.862-4.549,1.044-5.917-1.502c-1.811-3.371-0.57-7.693-2.351-11.167C434.03,137.68,432.735,138.439,433.176,139.298
					L433.176,139.298z"/>
			</g>
		</g>
		<g>
			<path fill="#1E1E1C" d="M422.587,144.48c-10.602-5.897-20.771-4.343-26,0.956c-2.38-1.061-6.184-3.931-7.374-6.049
				c6.185,2.384,6.382,1.741,8.192,1.149C407.313,137.3,412.387,133.362,422.587,144.48"/>
			<g>
				<path fill="#020303" d="M422.806,144.106c-5.909-3.179-12.565-4.793-19.188-3.125c-2.375,0.598-4.556,1.787-6.447,3.323
					c-1.931,1.57-6.534-3.464-7.583-5.135c-0.163,0.212-0.327,0.425-0.49,0.637c2.123,0.805,4.676,2.061,7.024,1.613
					c2.463-0.471,4.909-1.701,7.278-2.512c2.876-0.984,5.821-1.703,8.856-1.088c4.053,0.821,7.314,4.069,10.024,6.968
					c0.383,0.41,0.995-0.205,0.613-0.613c-4.584-4.904-9.67-8.561-16.6-7.024c-3.158,0.7-6.208,2.017-9.264,3.058
					c-2.681,0.914-5.151-0.271-7.701-1.238c-0.362-0.137-0.682,0.332-0.49,0.637c1.7,2.708,4.68,4.846,7.53,6.205
					c0.18,0.086,0.376,0.077,0.525-0.068c6.975-6.761,17.647-5.099,25.475-0.888C422.861,145.12,423.299,144.371,422.806,144.106
					L422.806,144.106z"/>
			</g>
		</g>
		<g>
			<path fill="#1E1E1C" d="M449.331,144.28c3.276-6.901,15.913-6.094,19.92-2.035c1.82-0.815,4.734-3.014,5.646-4.634
				c-4.738,1.823-4.889,1.334-6.274,0.881c-7.592-2.479-13.983-4.326-19.12,5.217"/>
			<g>
				<path fill="#020303" d="M449.618,144.448c3.28-6.329,14.555-6.562,19.398-1.968c0.115,0.109,0.264,0.12,0.403,0.052
					c2.203-1.079,4.413-2.676,5.766-4.753c0.152-0.234-0.102-0.592-0.375-0.488c-2.088,0.787-3.929,1.626-6.098,0.881
					c-2.485-0.854-5.03-1.607-7.644-1.925c-5.521-0.671-9.302,2.738-11.852,7.294c-0.209,0.375,0.365,0.71,0.574,0.336
					c1.58-2.824,3.541-5.396,6.664-6.555c2.527-0.938,5.377-0.409,7.901,0.224c1.792,0.449,3.507,1.186,5.294,1.63
					c1.704,0.424,3.823-0.674,5.336-1.245c-0.125-0.163-0.25-0.325-0.375-0.488c-1.095,1.682-2.763,2.898-4.444,3.944
					c-1.053,0.656-1.499-0.128-2.421-0.681c-1.944-1.166-4.287-1.625-6.513-1.838c-4.565-0.437-9.936,0.896-12.188,5.243
					C448.847,144.493,449.421,144.829,449.618,144.448L449.618,144.448z"/>
			</g>
		</g>
		<path fill="#F6AD9E" d="M400.249,160.594c0,3.274,3.876,5.935,8.663,5.935s8.665-2.66,8.665-5.935c0-3.28-3.878-5.937-8.665-5.937
			S400.249,157.313,400.249,160.594z"/>
		<path fill="#F6AD9E" d="M457.071,158.245c0,3.276,3.877,5.938,8.661,5.938c4.785,0,8.666-2.661,8.666-5.938
			c0-3.278-3.881-5.938-8.666-5.938C460.948,152.308,457.071,154.967,457.071,158.245z"/>
		<g>
			<g>
				<path fill="#020303" d="M468.717,128.399c-3.692-3.545-8.032-6.216-12.298-9.001c-0.812-0.531-1.563,0.769-0.757,1.295
					c4.159,2.716,8.393,5.31,11.995,8.767C468.354,130.13,469.416,129.07,468.717,128.399L468.717,128.399z"/>
			</g>
		</g>
		<path fill="#82CFF5" d="M455.932,285.226h-25.3c-2.043,0-3.715-1.672-3.715-3.715v-51.319c0-2.043,1.672-3.714,3.715-3.714h25.3
			c2.043,0,3.715,1.671,3.715,3.714v51.319C459.646,283.554,457.975,285.226,455.932,285.226z"/>
		<ellipse fill="#F5F5F6" cx="446.309" cy="255.852" rx="6.022" ry="6.189"/>
		<ellipse fill="#1E1E1C" cx="432.522" cy="232.307" rx="1.473" ry="1.514"/>
		<path fill="#FFFFFF" d="M443.835,259.817l-7.207-0.053c0,0,3.078-1.662,7.27-2.986c3.379-1.066,10.884-0.184,12.092-0.71
			c0.613-0.268,0.008-3.815-0.923-3.792c-1.937,0.047-7.146,0.08-11.125,0.836c-3.921,0.744-7.143,1.81-9.231,1.834
			c-2.814,0.035,3.616-4.676,3.616-4.676l7.237-1.695c0,0,4.185,0,4.457-2.854c0.274-2.854-14.523,1.406-14.523,1.406
			s-12.203,10.373-10.396,7.179c1.808-3.195,1.815-1.531,1.815-1.531v-4.081c0,0-4.135,0.4-8.431,6.941
			c-4.295,6.54-12.012,9.43-12.012,9.43s-37.993,26.493-44.056,20.161c-6.422-6.707,12.506-24.753,16.679-34.54
			c-4.871-0.221-8.257-1.756-13.139-1.811c-0.732-0.008-23.374,42.133-12.604,46.266c20.396,7.826,56.127-20.222,56.127-20.222
			l10.161,0.273c0,0,13.519-2.832,22.828-4.113c3.858-0.531,7.097-0.76,8.186-0.467c0.171,0.045,2.188-1.651,1.196-2.056
			c-3.459-1.411-12.74-1.091-14.434-1.478c-1.494-0.341-0.336-2.021-0.336-2.021l7.732-1.074l10.082,0.039l1.277-2.928
			l-11.314-1.323C444.519,259.741,444.173,259.756,443.835,259.817z"/>
		<path fill="none" stroke="#020303" stroke-width="1.5" stroke-miterlimit="10" d="M405.09,145.971c0,2.851,1.713,5.164,3.82,5.164
			c2.117,0,3.827-2.313,3.827-5.164c0-2.85-1.71-5.158-3.827-5.158C406.803,140.812,405.09,143.121,405.09,145.971z"/>
		<g>
			<g>
				<path fill="#020303" d="M432.548,174.266c1.127,0.033,3.032,0.15,3.856-0.849c1.397-1.693,0.583-3.623,1.485-5.551
					c2.281-4.872,10.073,1.14,5.089,4.432c-2.682,1.771-6.259,2.233-9.105,0.7c-0.852-0.459-1.609,0.836-0.757,1.295
					c4.706,2.535,15.258,0.172,12.386-6.858c-0.998-2.443-4.051-3.587-6.435-2.458c-1.262,0.598-2.468,1.571-2.865,2.987
					c-0.224,0.796-0.311,1.501-0.315,2.334c-0.013,2.19-1.604,2.518-3.34,2.468C431.58,172.737,431.583,174.238,432.548,174.266
					L432.548,174.266z"/>
			</g>
		</g>
		<g>
			<g>
				<path fill="#020303" d="M437.045,175.485c2.236-0.012,4.538-0.553,5.963,1.532c0.691,1.011,1.689,2.717,0.335,3.723
					c-1.424,1.058-2.82,0.852-3.873-0.557c-1.847-2.471-2.353-5.707-5.74-6.574c-0.938-0.24-1.335,1.207-0.398,1.446
					c3.187,0.816,3.829,4.924,5.854,7.11c1.49,1.608,4.226,0.689,5.593-0.639c1.742-1.691,0.259-4.192-0.875-5.85
					c-1.633-2.388-4.285-1.704-6.859-1.691C436.078,173.99,436.078,175.49,437.045,175.485L437.045,175.485z"/>
			</g>
		</g>
	</g>
	<path fill="#FFFFFF" d="M366.461,100.189l-9.633-15.537c0,0,52.131-49.535,118.87-17.948l-2.641,20.994L366.461,100.189z"/>
	<path fill="#0DA2DD" d="M369.902,115.923c0,0,47.215-27.118,104.995-15.733l-2.164-13.862c0,0-20.383-8.873-58.169-1.871
		s-48.229,15.733-48.229,15.733L369.902,115.923z"/>
	<path fill="#1E1E1C" d="M386.383,108.505c0,0,27.817-15.373,80.599-10.865c21.281,1.816,12.525,9.663-12.688,10.865
		C428.661,109.726,386.383,108.505,386.383,108.505z"/>
</g>
<g>
	<path fill="#3E68B0" d="M188.91,297.495c0,0,11.956-72.229-43.092-79.847c-55.047-7.617-36.158-4.402-40.077-1.211
		c-1.747,1.424-8.807,11.779-8.807,11.779c3.97,43.312-6.837,73.2-6.837,73.2L188.91,297.495z"/>
	<path fill="#110906" d="M93.766,133.06c0,0,14.599,41.783-0.451,50.884c-15.051,9.103-14.702,4.551-14.702,4.551
		s10.152,15.052,21.002,11.199c10.852-3.85,8.753-10.856,8.753-10.856s3.148,14.357-1.052,16.107
		c-4.201,1.75,18.552,5.603,21.352-5.251c2.799-10.85-10.15-43.752-11.201-43.752c-1.052,0-5.486-24.821-5.486-24.821"/>
	<path fill="#FFFFFF" d="M104.947,136.879c1.522,7.836-3.589,29.778,3.055,43.997c6.643,14.219,13.374,17.931,32.457,20.791
		c2.927,8.479-2.292,28.147,0,30.55c14.925,15.646,22.241,9.842,23.886,2.082c0.468-2.211-3.313-33.386,4.367-35.699
		c31.502-9.486,22.302-41.122,21.703-45.418c-0.02-0.134-0.058-0.266-0.076-0.4c-0.357-2.64-0.793-5.218-1.222-7.663
		c-1.593-9.083-2.973-18.058-3.55-27.263c-0.817-13.114-1.219-32.461-14.298-39.979c-14.034-8.067-32.755-4.209-46.593,2.481
		C110.712,87.109,103.394,128.88,104.947,136.879z"/>
	
		<ellipse transform="matrix(-0.9878 0.1557 -0.1557 -0.9878 351.2007 245.422)" fill="none" stroke="#1E1E1C" stroke-width="1.0314" stroke-miterlimit="10" cx="165.987" cy="136.467" rx="2.813" ry="5.464"/>
	
		<ellipse transform="matrix(-0.8868 0.4621 -0.4621 -0.8868 303.3843 197.8429)" fill="none" stroke="#020303" stroke-width="1.5" stroke-miterlimit="10" cx="127.466" cy="136.071" rx="2.812" ry="5.463"/>
	<path fill="none" stroke="#1E1E1C" stroke-width="2.0584" stroke-miterlimit="10" d="M112.49,127.702
		c-1.723,0-14.331,4.286-14.331,4.286"/>
	<g>
		<g>
			<path fill="#FFFFFF" d="M171.125,97.289c1.707-1.378,3.852-3.457,3.454-5.905c-0.339-2.084-2.096-3.375-3.903-4.205
				c-4.612-2.12-11.475-1.874-15.153,1.935c0.293,0.171,0.587,0.342,0.881,0.513c2.237-9.595-13.167-16.654-18.297-7.836
				c0.321,0.136,0.642,0.271,0.963,0.406c1.585-6.285-6.228-10.913-10.79-6.084c-0.466,0.494,0.277,1.24,0.745,0.745
				c3.819-4.042,10.367-0.249,9.028,5.059c-0.146,0.577,0.659,0.929,0.963,0.406c4.518-7.767,18.339-1.416,16.371,7.023
				c-0.116,0.499,0.501,0.906,0.881,0.513c3.105-3.215,8.311-3.387,12.381-2.294c1.775,0.477,3.657,1.393,4.601,3.042
				c1.309,2.29-1.297,4.667-2.869,5.937C169.851,96.971,170.601,97.711,171.125,97.289L171.125,97.289z"/>
		</g>
	</g>
	<g>
		<g>
			<path fill="#020303" d="M148.546,132.847c0.025,0.894,1.013,1.961,1.46,2.664c1.429,2.249,2.855,4.498,4.244,6.771
				c4.203,6.885,8.155,14.014,11.014,21.572c0.115-0.282,0.229-0.564,0.345-0.847c-2.785,1.762-6.893,1.525-10.057,1.556
				c-3.186,0.031-6.366-0.186-9.551-0.205c-0.968-0.006-0.967,1.494,0,1.5c3.612,0.021,7.215,0.251,10.829,0.187
				c3.052-0.054,6.859-0.05,9.536-1.744c0.265-0.167,0.465-0.528,0.345-0.847c-2.585-6.835-6.044-13.295-9.752-19.579
				c-1.531-2.593-3.127-5.147-4.743-7.688c-0.488-0.767-0.978-1.533-1.463-2.302c-0.186-0.293-0.716-1.402-0.706-1.04
				C150.018,131.881,148.518,131.879,148.546,132.847L148.546,132.847z"/>
		</g>
	</g>
	<path fill="#110906" d="M134.184,94.896c1,0.448-9.103,17.916-21.766,34.021c-12.667,16.105-13.709,40.082-11.868,58.721
		c0.098,0.979-9.352-16.752-9.352-36.607c0-2.091-3.979,16.432-1.062,22.948c2.92,6.518-9.312-4.98-5.842-50.98
		c3.718-49.284,15.745-40.438,15.745-40.438s4.275-13.049-8.056,3.949c0,0-6.262-18.297,9.736-19.638
		c32.707-2.744,35.662,11.184,35.662,11.184"/>
	<ellipse fill="#FFFFFF" cx="98.159" cy="155.873" rx="11.448" ry="13.482"/>
	<g>
		<path fill="none" stroke="#1E1E1C" stroke-width="4" stroke-miterlimit="10" d="M141.401,131.861c0,0,5.188,16.729-3.193,18.172
			c-8.385,1.446-24.511,5.435-26.021-1.896c-1.509-7.327-4.765-14.938,5.786-17.135C128.52,128.803,139.377,127.326,141.401,131.861
			z"/>
		<path fill="none" stroke="#1E1E1C" stroke-width="4" stroke-miterlimit="10" d="M155.635,133.285c0,0-0.217,16.641,7.238,16.155
			c7.459-0.484,22.104-0.297,21.554-7.421c-0.551-7.123,0.306-14.889-9.174-14.63C165.777,127.646,156.218,128.64,155.635,133.285z"
			/>
		<g>
			<g>
				<path fill="#1E1E1C" d="M157.018,133.746c-2.106-5.943-12.449-5.565-16.907-2.927c-2.217,1.312-0.207,4.771,2.019,3.454
					c1.791-1.06,3.996-1.171,6.027-1.129c1.217,0.025,4.485,0.202,5.003,1.665C154.016,137.223,157.881,136.183,157.018,133.746
					L157.018,133.746z"/>
			</g>
		</g>
	</g>
	<path fill="#FFFFFF" d="M181.562,235.286l6.011,30.851c0,0,42.116,17.628,66.506-3.975c14.189-12.567-12.049-98.844-12.049-98.844
		s7.936-38.048,7.797-44.598c-0.138-6.547-16.174-19.798-16.174-19.798h-13.742l9.994,11.85c6.751,6.405-6.08,33.854-6.08,33.854
		s-12.687-16.928-14.915-17.722c-2.229-0.797-10.581,1.846-8.096,3.152c7.4,3.892,14.561,25.535,14.561,25.535
		s7.884,6.51,10.435,10.566c1.798,2.866,22.504,72.351,6.191,85.246C218.946,261.725,181.562,235.286,181.562,235.286z"/>
	<path fill="#1E1E1C" d="M116.913,103.991c0,0,33.326,54.034,62.92,61.304c29.593,7.271,38.6-8.373,38.6-8.373
		s-23.365,10.523-28.158-4.979c0,0,10.788,6.405,17.221,3.78c6.434-2.625-18.359-0.824-17.221-22.324
		c1.138-21.5-0.393-44.238-11.729-44.402C157.132,88.686,116.913,103.991,116.913,103.991z"/>
	<g>
		<path fill="#FFFFFF" d="M88.576,88.274l-3.545-19.651c0,0,72.852-29.386,127.965,29.505l-11.115,20.267L88.576,88.274z"/>
		<path fill="#82CFF5" d="M85.754,105.64c0,0,58.855-8.587,112.979,26.184l3.369-14.951c0,0-17.143-17.2-58.341-25.263
			c-41.198-8.062-55.313-3.386-55.313-3.386L85.754,105.64z"/>
		<path fill="#1E1E1C" d="M105.476,104.723c0,0,34.433-4.445,86.242,21.331c20.889,10.393,8.843,14.847-17.253,5.942
			C147.934,122.941,105.476,104.723,105.476,104.723z"/>
	</g>
	<g>
		<g>
			<path fill="#020303" d="M140.804,176.309c6.021-0.729,11.955-0.063,17.664,1.991c0.912,0.329,1.302-1.122,0.398-1.446
				c-5.824-2.096-11.917-2.788-18.062-2.044C139.856,174.923,139.845,176.425,140.804,176.309L140.804,176.309z"/>
		</g>
	</g>
	<polygon fill="#3E68B0" points="164.19,223.477 200.814,242.623 193.924,280.483 167.511,276.004 	"/>
	
		<line fill="none" stroke="#1E1E1C" stroke-width="2.0584" stroke-miterlimit="10" x1="110.766" y1="136.468" x2="98.159" y2="136.07"/>
	<path fill="#FFFFFF" d="M94.116,214.469l-4.479,28.093c0,0-55.006-8.166-70.74-35.504c-9.155-15.905,41.494-87.016,41.494-87.016
		s4.432-37.367,6.574-43.336c2.143-5.968,20.942-13.192,20.942-13.192s19.778-3.421,20.405-2.436
		c2.506,3.937-6.627,11.48-16.075,12.935c-4.804,0.739-9.792,6.467-9.792,6.467c-3.326,4.988,0.41,28.01,0.41,28.01
		s9.124-3.762,11.415-3.805c2.291-0.045,11.922,0.12,9.238,0.554c-7.99,1.294-16.274,15.919-16.274,15.919s-9.239,3.547-12.83,6.485
		c-2.533,2.077-42.934,59.479-31.932,76.338C51.278,217.473,94.116,214.469,94.116,214.469z"/>
	<path fill="#3E68B0" d="M114.581,213.216c0,0-22.728-5.137-25.037-1.955l-8.6,40.72l30.264,12.518L114.581,213.216z"/>
	<path fill="#FFFFFF" d="M63.414,103.391c0.555-0.369-4.619-24.389-5.543-30.302s3.511-25.499,3.511-25.499
		s7.576,5.913,6.098,14.228s5.543,24.76,5.543,24.76"/>
</g>
<g>
	<g>
		<path fill="#FFFFFF" d="M482.229,400.398l12.221-7.272c0,0-22.059-52.479-81.643-54.366l-4.979,15.363L482.229,400.398z"/>
		<path fill="#A42423" d="M474.376,410.261c0,0-25.615-35.79-72.025-48.203l6.279-8.996c0,0,18.014,0.959,43.481,19.25
			c25.469,18.29,30.21,28.132,30.21,28.132L474.376,410.261z"/>
		<path fill="#1E1E1C" d="M464.742,399.209c0,0-15.295-20.659-55.699-36.148c-16.29-6.245-12.492,2.376,5.674,12.137
			C433.187,385.121,464.742,399.209,464.742,399.209z"/>
	</g>
	<g>
		<path fill="#DFF1FB" d="M552.363,616.714c-2.332-17.951-5.261-61.456-10.34-67.839c-15.039-18.898-32.783-15.645-42.774-23.563
			c-3.526-2.795,6.572-7.135,2.425-8.812c-9.366-3.789-43.525-8.539-61.476-7.712c-21.066,0.967-39.002,9.254-52.663,14.102
			c-3.507,1.245-42.629,24.525-45.002,27.135c-10.418,11.457-3.723,34.282-1.67,58.378
			C341.117,608.539,552.363,616.714,552.363,616.714z"/>
		<path fill="#FFFFFF" d="M482.449,519.15c-12.385-10.026-11.801-90.254-15.201-118.58c-2.891-3.184-5.748-6.403-8.599-9.629
			c-2.404-1.985-4.854-3.905-7.316-5.764c-0.341-0.256-0.678-0.516-1.013-0.777c-16.35-4.301-40.693-5.321-46.954,6.72
			c-9.004,17.317-27.015,94.204-21.475,101.825c5.54,7.619,18.011,7.617,22.167,11.081c4.156,3.465-6.927,27.015-6.927,27.015
			s28.479,52.738,28.716,51.698C434.91,542.916,484.063,520.459,482.449,519.15z"/>
		<path fill="#1E1E1C" d="M458.649,390.942c-2.403-1.986-4.854-3.906-7.316-5.765c-3.102-2.34-6.013-4.811-8.065-8.178
			c-1.275-2.095-2.148-4.33-3.189-6.45c-1.791-1.847-3.601-3.674-5.447-5.464c-6.559-3.184-12.357-4.633-15.005-2.123
			c-5.951-3.519-12.907-5.094-19.279-2.277c-3.681,1.625-5.187,4.056-5.356,6.756c-5.038-1.358-10.254-1.16-14.158,2.119
			c-7.559,6.347,1.991,15.078,8.203,17.736c11.35,4.854,23.735,3.51,35.804,3.131c6.309-0.197,23.304,1.018,29.396,3.007
			c0.259,0.085,2.97,16.748,2.701,14.046c0.271,0.811,14.376,3.922,15.128,4.592c0.383-2.008,0.596-3.858,0.659-5.586
			C467.93,401.41,463.283,396.184,458.649,390.942z"/>
		<ellipse fill="#FFFFFF" cx="476.098" cy="432.682" rx="13.162" ry="13.507"/>
		<g>
			<g>
				<path fill="#020303" d="M434.307,433.145c0.079,2.844,0.704,7.616,4.261,8.043c3.486,0.418,4.202-5.906,4.262-8.043
					c0.079-2.831-0.805-7.63-4.262-8.044C435.082,424.683,434.366,431.009,434.307,433.145c-0.027,0.968,1.473,0.965,1.5,0
					c0.048-1.714,0.306-6.25,2.761-6.544c2.351-0.282,2.727,5.3,2.762,6.544c0.047,1.703-0.376,6.257-2.762,6.543
					c-2.35,0.281-2.726-5.3-2.761-6.543C435.78,432.18,434.28,432.177,434.307,433.145z"/>
			</g>
		</g>
		<g>
			<g>
				<path fill="#020303" d="M423.506,430.442c0.141,5.533-1.805,10.76-2.434,16.208c0.376-0.216,0.752-0.432,1.128-0.647
					c-4.709-2.634-15.969-1.496-13.071,6.25c2.549,6.814,14.881,10.043,19.555,3.961c0.59-0.768-0.714-1.513-1.295-0.758
					c-3.837,4.993-13.428,1.869-16.35-2.72c-4.208-6.609,6.559-7.588,10.404-5.438c0.538,0.301,1.064-0.094,1.128-0.647
					c0.63-5.458,2.575-10.659,2.434-16.208C424.981,429.477,423.481,429.475,423.506,430.442L423.506,430.442z"/>
			</g>
		</g>
		<g>
			<g>
				<path fill="#020303" d="M480.636,426.207c-2.606-0.675-6.1-1.237-8.363,0.615c-2.153,1.761,1.152,4.437,2.384,5.348
					c0.68,0.504,4.819,1.335,2.628,2.757c-0.841,0.546-2.04,0.681-2.965,1.08c-2.25,0.973-1.211,2.947,0.186,4.15
					c0.729,0.628,1.794-0.428,1.061-1.061c-2.275-1.96,0.763-2.04,2.227-2.753c1.181-0.575,1.7-2.012,1.529-3.262
					c-0.189-1.381-3.03-1.729-3.907-2.207c-0.448-0.245-2.854-2.026-2.08-2.992c0.425-0.53,1.61-0.665,2.199-0.737
					c1.575-0.192,3.188,0.115,4.705,0.509C481.174,427.896,481.572,426.45,480.636,426.207L480.636,426.207z"/>
			</g>
		</g>
		<g>
			<g>
				<path fill="#1E1E1C" d="M450.439,418.467c-5.002-4.188-10.042-8.523-15.508-12.099c-1.083-0.709-2.084,1.023-1.01,1.727
					c5.326,3.483,10.229,7.705,15.104,11.786C450.007,420.703,451.43,419.296,450.439,418.467L450.439,418.467z"/>
			</g>
		</g>
		<g>
			<g>
				<path fill="#1E1E1C" d="M415.761,417.535c-5.376-0.135-10.636,0.899-15.978,1.304c-1.278,0.097-1.287,2.098,0,2
					c5.341-0.404,10.601-1.438,15.978-1.304C417.051,419.567,417.048,417.567,415.761,417.535L415.761,417.535z"/>
			</g>
		</g>
		<path fill="#1E1E1C" d="M472.064,413.424l-14.588-2.701l1.351,9.994c0,0,14.044-3.238,12.695-2.7
			C470.173,418.557,472.064,413.424,472.064,413.424z"/>
		<g>
			<g>
				<path fill="#020303" d="M405.461,465.968c10.434,1.243,21.236,1.987,31.693,0.516c1.316-0.185,10.136-1.096,8.985-4.123
					c-0.266-0.699-1.19-0.727-1.446,0c-2.307,6.55-7.161,16.234-14.903,17.036c-5.399,0.56-11.097-1.032-16.237-2.509
					c-3.15-0.904-6.284-1.943-9.331-3.158c-0.899-0.358-1.286,1.093-0.398,1.447c3.43,1.367,6.964,2.497,10.517,3.494
					c5.332,1.497,11.593,3.124,17.142,1.972c7.532-1.565,12.345-11.317,14.657-17.884c-0.482,0-0.964,0-1.446,0
					c-0.013-0.034-0.097,0.136-0.5,0.379c-0.635,0.383-1.367,0.604-2.071,0.819c-2.66,0.812-5.477,1.139-8.234,1.397
					c-9.441,0.886-19.038,0.232-28.427-0.887C404.501,464.354,404.513,465.854,405.461,465.968L405.461,465.968z"/>
			</g>
		</g>
		<g>
			<g>
				<path fill="#1E1E1C" d="M422.776,589.663c-2.522-7.385-5.828-14.408-9.975-21.021c-3.431-5.47-7.455-10.522-11.253-15.732
					c-1.82-2.496-3.445-5.11-5.178-7.665c-1.558-2.297-3.241-5.039-5.671-6.519c-4.018-2.449-8.358,5.036-10.204,7.346
					c0.285,0.118,0.569,0.235,0.854,0.354c0.123-7.368,3.114-14.706,4.862-21.796c0.256-1.04,0.372-1.253,1.377-1.78
					c1.742-0.913,3.628-1.577,5.46-2.281c3.826-1.472,7.743-2.792,11.431-4.595c0.579-0.283,0.072-1.146-0.505-0.863
					c-4.137,2.022-8.559,3.456-12.841,5.133c-1.539,0.603-5.377,1.46-5.729,3.412c-1.369,7.611-4.925,14.934-5.056,22.771
					c-0.007,0.404,0.573,0.705,0.854,0.354c1.765-2.208,3.465-4.555,5.577-6.449c2.02-1.812,3.719-0.816,5.345,0.926
					c3.984,4.268,6.792,9.806,10.283,14.496c7.982,10.725,15.042,21.409,19.405,34.177
					C422.019,590.535,422.985,590.274,422.776,589.663L422.776,589.663z"/>
			</g>
		</g>
		<g>
			<g>
				<path fill="#1E1E1C" d="M425.291,583.514c-1.853-8.08-5.677-15.55-9.706-22.735c-5.703-10.171-12.033-19.986-18.021-29.989
					c-0.331-0.553-1.195-0.051-0.863,0.504c5.865,9.8,12.019,19.434,17.666,29.361c4.146,7.289,8.074,14.9,9.961,23.125
					C424.471,584.408,425.435,584.142,425.291,583.514L425.291,583.514z"/>
			</g>
		</g>
		<path fill="none" stroke="#1E1E1C" stroke-miterlimit="10" d="M482.449,519.15c-2.725-0.799-50.778,28.417-56.432,67.82
			c-2.679,18.661-2.679,18.661-2.679,18.661"/>
		<g>
			<g>
				<path fill="#1E1E1C" d="M480.304,511.012c7.66,2.15,15.439,3.354,22.815,6.46c-0.1-0.245-0.199-0.49-0.299-0.734
					c-5.672,7.413-6.019,19.562-3.28,28.164c0.278-0.162,0.557-0.324,0.835-0.486c-5.321-5.257-11.487-9.773-14.78-16.694
					c-0.092-0.193-0.367-0.296-0.564-0.23c-4.02,1.329-7.503,4.104-10.724,6.767c-4.951,4.093-9.471,8.716-13.822,13.431
					c-7.499,8.128-15.292,16.918-20.692,26.639c-0.313,0.563,0.55,1.068,0.863,0.504c2.883-5.189,6.627-9.94,10.327-14.561
					c4.973-6.21,10.272-12.174,15.892-17.806c4.631-4.642,9.58-9.349,15.312-12.608c0.735-0.418,2.542-1.635,2.89-0.904
					c1.032,2.168,2.499,4.109,4.041,5.937c3.162,3.746,7.072,6.798,10.55,10.234c0.346,0.342,0.991,0.001,0.835-0.486
					c-2.666-8.374-2.34-20.181,3.179-27.395c0.218-0.285-0.037-0.624-0.299-0.734c-7.376-3.106-15.155-4.309-22.815-6.46
					C479.947,509.872,479.684,510.837,480.304,511.012L480.304,511.012z"/>
			</g>
		</g>
		<g>
			<g>
				<path fill="#020303" d="M403.296,432.308c3.512,0.054,6.782,1.056,10.171,1.851c-0.06-0.457-0.12-0.914-0.179-1.371
					c-3.205,1.512-6.88,1.973-10.349,2.497c-0.954,0.145-0.547,1.59,0.398,1.447c3.622-0.548,7.365-1.072,10.708-2.649
					c0.592-0.279,0.424-1.229-0.179-1.371c-3.521-0.825-6.923-1.848-10.569-1.903C402.328,430.793,402.33,432.293,403.296,432.308
					L403.296,432.308z"/>
			</g>
		</g>
		<g>
			<g>
				<path fill="#020303" d="M409.022,471.429c8.36,4.394,19.135,3.62,27.573,0.076c0.878-0.369,0.493-1.821-0.398-1.447
					c-8.059,3.386-18.401,4.289-26.417,0.076C408.924,469.685,408.166,470.979,409.022,471.429L409.022,471.429z"/>
			</g>
		</g>
		<g>
			<g>
				<path fill="#020303" d="M404.712,466.197c0,3.056,0,6.111,0,9.167c0,0.967,1.5,0.967,1.5,0c0-3.056,0-6.111,0-9.167
					C406.212,465.229,404.712,465.229,404.712,466.197L404.712,466.197z"/>
			</g>
		</g>
	</g>
</g>
<g>
	<path fill="#0E8CCD" d="M134.113,612.214l56.083-2.167c0.834-15.024,2.674-83.356,2.236-93.65
		c-0.494-11.631-49.259-11.625-55.758-2.655C133.06,518.727,134.309,595.838,134.113,612.214z"/>
	<path fill="#110906" d="M229.672,416.433c22.429,25.281-22.403,63.391-17.809,75.985c13.665,37.448-137.869-21.048-111.563-70.081
		c16.084-29.98,32.318-61.598,72.182-61.598C212.351,360.739,197.444,380.106,229.672,416.433z"/>
	<g>
		<g>
			<path fill="#C5843D" d="M193.106,424.022c0.061,0.068,0.115,0.125,0.154,0.167C193.222,424.147,193.164,424.088,193.106,424.022z
				"/>
			<path fill="#C5843D" d="M187.612,418.179c-0.103-0.109-0.187-0.197-0.246-0.256C187.42,417.979,187.501,418.064,187.612,418.179z
				"/>
			<path fill="#FFFFFF" d="M211.459,438.035c-1.787,0.065-3.719,0.634-5.396,1.565c-0.554,0.134-1.112,0.299-1.673,0.524
				c-1.17,0.472,2.372,1.231,1.325,1.896c-0.224,0.143-0.468,0.268-0.698,0.407c0.015-0.063,0.039-0.112,0.049-0.176
				c0.869-4.599-0.476-9.126-0.405-13.762c0.092-6.054-0.269-11.524-2.063-17.378c-3.383-11.027-21.227-12.461-31.908-13.813
				c-13.478-1.704-27.734-1.237-41.138,0.763c-4.591,0.684-14.425,8.345-14.388,9.528c0.348,11.122,2.682,18.766-5.321,34.675
				c-3.993,6.967-5.77,13.873-5.401,21.558c0.547,11.383,36.58,20.049,45.633,23.025c10.62,3.492-4.901,36.042,16.535,28.388
				c3.496-1.248-2.308-27.4,0-28.108c38.39-7.107,30.257-20.167,36.904-24.55c4.789-2.643,10.385-5.593,13.328-9.99
				c0.025-0.031,0.053-0.057,0.078-0.089c0.634-0.813,1.038-1.653,1.258-2.495c0.342-0.924,0.58-1.899,0.673-2.943
				C219.162,443.535,215.826,437.886,211.459,438.035z"/>
			<path fill="#C5843D" d="M187.366,417.923C187.241,417.786,187.251,417.8,187.366,417.923L187.366,417.923z"/>
		</g>
		<path fill="#C5843D" d="M193.261,424.189C193.394,424.331,193.385,424.321,193.261,424.189L193.261,424.189z"/>
	</g>
	<path fill="none" stroke="#020303" stroke-width="1.5" stroke-miterlimit="10" d="M134.091,439.781
		c0,3.104-1.611,5.611-3.597,5.611s-3.593-2.507-3.593-5.611c0-3.096,1.607-5.608,3.593-5.608S134.091,436.686,134.091,439.781z"/>
	<path fill="none" stroke="#020303" stroke-width="1.5" stroke-miterlimit="10" d="M180.055,440.896
		c0,3.104-1.608,5.613-3.595,5.613c-1.984,0-3.596-2.509-3.596-5.613c0-3.097,1.611-5.611,3.596-5.611
		C178.446,435.284,180.055,437.799,180.055,440.896z"/>
	<g>
		<g>
			<path fill="#020303" d="M127.999,464.525c6.146,1.989,13.538,1.574,19.896,1.512c7.203-0.071,15.323-0.088,22.17-2.631
				c0.898-0.334,0.51-1.784-0.398-1.447c-6.75,2.508-14.668,2.48-21.772,2.578c-6.216,0.085-13.496,0.484-19.498-1.459
				C127.475,462.779,127.083,464.229,127.999,464.525L127.999,464.525z"/>
		</g>
	</g>
	<g>
		<g>
			<path fill="#020303" d="M128.577,464.449c13.343-5.792,27.825-1.939,41.709-1.466c0.968,0.033,0.964-1.467,0-1.5
				c-14.225-0.485-28.807-4.259-42.466,1.671C126.935,463.538,127.699,464.83,128.577,464.449L128.577,464.449z"/>
		</g>
	</g>
	<g>
		<g>
			<path fill="#020303" d="M169.143,462.483c-0.582,2.154-3.196,3.371-5.042,4.224c-3.362,1.554-7.135,2.341-10.789,2.803
				c-7.505,0.947-16.622,0.409-22.54-4.861c-0.622-0.554-1.628,0.15-1.178,0.909c4.352,7.322,13.104,11.704,21.501,11.189
				c8.12-0.496,15.642-6.7,19.417-13.686c0.46-0.852-0.835-1.608-1.295-0.758c-3.601,6.663-10.478,12.201-18.122,12.943
				c-7.787,0.757-16.207-3.718-20.206-10.447c-0.393,0.304-0.785,0.606-1.178,0.909c6.424,5.723,16.039,6.256,24.176,5.228
				c3.909-0.493,7.787-1.464,11.371-3.119c2.121-0.98,4.677-2.52,5.33-4.936C170.842,461.946,169.395,461.551,169.143,462.483z"/>
		</g>
	</g>
	<g>
		<g>
			<path fill="#A42423" d="M157.584,433.251c9.701-3.543,21.431-3.595,31.369-0.899c3.905,1.06,5.412,3.717,5.432,7.579
				c0.018,3.506-0.381,7.617-2.148,10.711c-1.937,3.392-6.28,3.854-9.776,4.066c-4.124,0.251-8.309,0.309-12.386-0.447
				c-4.432-0.821-7.965-2.854-9.729-7.132c-1.871-4.538-2.203-9.946-1.547-14.774c0.257-1.891-2.634-2.707-2.893-0.797
				c-0.742,5.469-0.39,11.168,1.547,16.369c1.75,4.697,5.246,7.391,9.965,8.787c4.814,1.424,10.086,1.273,15.042,0.994
				c4.255-0.239,8.782-0.954,11.608-4.475c2.667-3.322,3.03-8.096,3.281-12.182c0.244-3.964-0.644-7.605-3.994-9.998
				c-2.089-1.492-4.845-1.945-7.306-2.388c-3.094-0.555-6.233-0.863-9.371-1.013c-6.689-0.318-13.582,0.399-19.893,2.705
				C154.985,431.017,155.763,433.916,157.584,433.251L157.584,433.251z"/>
		</g>
	</g>
	<path fill="none" stroke="#A42423" stroke-width="2.3926" stroke-miterlimit="10" d="M144.409,431.243
		c0,0,6.909-3.672,12.943,0.713"/>
	<g>
		<g>
			<path fill="#A42423" d="M197.435,438.625c3.271-0.857,6.534-1.745,9.793-2.645c1.862-0.514,1.07-3.408-0.798-2.893
				c-3.259,0.899-6.522,1.787-9.793,2.645C194.768,436.223,195.562,439.116,197.435,438.625L197.435,438.625z"/>
		</g>
	</g>
	<g>
		<g>
			<path fill="#020303" d="M168.519,420.928c3.617,0.982,7.331,1.554,10.889,2.758c0.919,0.311,1.31-1.139,0.398-1.447
				c-3.557-1.203-7.271-1.774-10.889-2.758C167.982,419.227,167.586,420.674,168.519,420.928L168.519,420.928z"/>
		</g>
	</g>
	<g>
		<g>
			<path fill="#020303" d="M123.825,421.465c0.553-0.548,3.205-0.587,4.078-0.715c1.799-0.263,3.619-0.461,5.398-0.842
				c0.946-0.203,0.544-1.649-0.398-1.447c-1.925,0.413-3.896,0.623-5.842,0.907c-1.167,0.171-3.384,0.133-4.296,1.036
				C122.077,421.086,123.138,422.146,123.825,421.465L123.825,421.465z"/>
		</g>
	</g>
	<path fill="#FFFFFF" d="M182.902,513.741"/>
	<g>
		<g>
			<path fill="#FFFFFF" d="M139.973,385.638c-1.419-1.152-3.188-2.744-2.651-4.772c0.422-1.595,2.46-2.439,3.847-2.9
				c3.543-1.177,8.361-0.886,11.081,1.907c0.382,0.392,0.995-0.014,0.881-0.513c-1.674-7.335,10.271-12.838,14.23-6.107
				c0.308,0.523,1.105,0.172,0.963-0.405c-1.13-4.61,4.478-7.843,7.804-4.37c0.471,0.491,1.215-0.255,0.745-0.746
				c-4.082-4.261-10.934-0.188-9.565,5.396c0.321-0.135,0.642-0.271,0.963-0.405c-4.576-7.779-18.095-1.575-16.157,6.918
				c0.294-0.171,0.587-0.342,0.881-0.513c-3.313-3.4-9.156-3.477-13.304-1.728c-4.739,1.997-3.978,6.131-0.463,8.985
				C139.75,386.808,140.501,386.066,139.973,385.638L139.973,385.638z"/>
		</g>
	</g>
	<g>
		<g>
			<path fill="#FFFFFF" d="M178.093,386.956c-0.736-1.771-0.879-3.827-1.023-5.714c-0.121-1.589,2.295-1.59,3.46-1.618
				c1.833-0.044,3.509,0.911,4.929,1.958c0.177-0.304,0.355-0.606,0.532-0.91c-3.178-2.102-1.294-4.236,1.462-5.323
				c2.19-0.863,5.246-1.252,7.23,0.264c0.541,0.412,1.064-0.504,0.532-0.91c-4.572-3.492-17.001,2.089-9.757,6.88
				c0.577,0.381,1.067-0.516,0.532-0.91c-3.043-2.243-6.306-2.621-9.757-1.086c-0.162,0.072-0.264,0.286-0.261,0.455
				c0.044,2.327,0.2,5.021,1.103,7.194C177.334,387.854,178.354,387.583,178.093,386.956L178.093,386.956z"/>
		</g>
	</g>
	<g>
		<g>
			<path fill="#A42423" d="M142.963,431.642c0.655,4.438,0.231,9.263-1.567,13.396c-1.709,3.928-5.306,5.449-9.276,6.267
				c-3.922,0.807-8.051,0.685-12.029,0.501c-3.55-0.163-7.937-0.365-10.248-3.504c-1.895-2.574-2.116-6.438-2.233-9.508
				c-0.147-3.862,1.642-5.959,5.304-7.036c4.803-1.413,10.205-1.595,15.179-1.612c5.449-0.02,10.905,0.681,16.083,2.407
				c1.841,0.614,2.624-2.284,0.798-2.893c-5.989-1.997-12.317-2.597-18.603-2.498c-5.515,0.087-11.939,0.412-17.021,2.738
				c-3.578,1.639-4.782,5.215-4.741,8.894c0.042,3.842,0.608,8.621,3.145,11.688c2.736,3.309,7.093,4.022,11.152,4.261
				c4.891,0.287,9.827,0.314,14.646-0.677c4.569-0.939,8.367-3.256,10.433-7.515c2.315-4.772,2.632-10.537,1.869-15.707
				C145.574,428.937,142.684,429.75,142.963,431.642L142.963,431.642z"/>
		</g>
	</g>
	<g>
		<path fill="#FFFFFF" d="M149.099,434.315c0.858,6.168-0.199,7.588-1.912,13.406c-2.575-0.344-5.008-0.461-6.719-1.832
			c-6.11,11.24,3.918,10.007,8.631,9.664"/>
		<g>
			<path fill="#020304" d="M148.599,434.315c0.372,2.889,0.383,5.565-0.391,8.389c-0.373,1.359-0.836,2.696-1.252,4.044
				c-0.447,1.449-5.597-0.849-6.236-1.29c-0.217-0.15-0.564-0.049-0.684,0.18c-1.492,2.84-3.479,7.239-0.14,9.551
				c2.488,1.722,6.397,1.074,9.203,0.865c0.639-0.048,0.644-1.048,0-1c-2.41,0.18-4.889,0.449-7.266-0.128
				c-4.471-1.088-2.387-6.017-0.934-8.784c-0.228,0.061-0.456,0.12-0.684,0.18c2.071,1.434,4.539,1.592,6.971,1.9
				c0.22,0.028,0.424-0.174,0.482-0.367c1.415-4.724,2.57-8.561,1.93-13.539C149.518,433.685,148.517,433.677,148.599,434.315
				L148.599,434.315z"/>
		</g>
	</g>
	<g>
		<path fill="#FFFFFF" d="M223.284,386.718l8.643-16.081c0,0-58.544-43.505-125.122-6.393l4.595,20.261L223.284,386.718z"/>
		<path fill="#3E68B0" d="M221.094,402.41c0,0-51.46-22.066-110.506-5.529l1.027-13.745c0,0,20.401-10.578,60.289-7.279
			c39.888,3.298,51.511,10.85,51.511,10.85L221.094,402.41z"/>
		<path fill="#1E1E1C" d="M203.312,396.707c0,0-30.264-12.409-84.723-3.06c-21.957,3.77-12.166,10.615,14.144,9.425
			C159.48,401.863,203.312,396.707,203.312,396.707z"/>
	</g>
	<g>
		<g>
			<path fill="#FFFFFF" d="M192.874,482.292c0.507,3.206,2.579,5.102,5.634,3.219c2.859-1.762,4.9-5.77,4.062-9.085
				c-0.294,0.171-0.587,0.342-0.881,0.513c4.696,4.301,13.364-1.719,10.292-7.55c-0.276,0.213-0.552,0.426-0.828,0.638
				c3.136,2.896,8.031,0.189,7-4.042c-0.161-0.66-1.177-0.381-1.017,0.279c0.777,3.19-2.861,5.212-5.238,3.019
				c-0.444-0.411-1.108,0.104-0.828,0.638c2.51,4.764-4.835,9.756-8.637,6.272c-0.387-0.354-1.013-0.01-0.881,0.513
				c0.634,2.508-0.668,5.004-2.322,6.82c-0.792,0.871-1.87,1.658-3.073,1.765c-1.675,0.147-2.079-2.078-2.268-3.277
				C193.784,481.343,192.769,481.628,192.874,482.292L192.874,482.292z"/>
		</g>
	</g>
	<path fill="#110906" d="M229.323,484.481c-0.039-6.475-5.298-11.712-11.781-11.712c-6.51,0-11.786,5.276-11.786,11.786
		c0,1.437,0.27,2.807,0.74,4.08c-0.827-0.189-1.686-0.299-2.571-0.299c-6.347,0-11.492,5.146-11.492,11.492
		c0,6.17,4.866,11.189,10.969,11.466c2.098,4.757,6.848,8.08,12.38,8.08c7.475,0,13.534-6.06,13.534-13.534
		c0-1.571-0.281-3.074-0.774-4.479c0.255,0.023,0.513,0.039,0.774,0.039c4.673,0,8.461-3.787,8.461-8.46
		C237.776,488.272,233.992,484.486,229.323,484.481z"/>
	<g>
		<g>
			<path fill="#FFFFFF" d="M203.063,495.617c-2.39,1.402-4.251,4.015-3.365,6.876c0.881,2.845,4.241,2.318,6.328,1.426
				c-0.177-0.304-0.355-0.606-0.532-0.91c-4.416,2.55-2.26,6.187,1.799,7.445c5.157,1.599,9.851-1.249,9.557-6.84
				c-0.345,0.047-0.69,0.094-1.035,0.14c1.326,5.852,10.883,3.229,7.662-2.325c-0.341-0.588-1.251-0.058-0.91,0.531
				c2.417,4.166-4.737,5.92-5.735,1.515c-0.131-0.579-1.066-0.455-1.035,0.14c0.239,4.543-2.956,6.801-7.258,6.056
				c-3.324-0.576-6.616-3.382-2.512-5.751c0.604-0.35,0.075-1.17-0.532-0.91c-2.042,0.874-4.745,1.02-4.98-1.803
				c-0.17-2.042,1.472-3.734,3.082-4.679C204.181,496.184,203.65,495.272,203.063,495.617L203.063,495.617z"/>
		</g>
	</g>
	<g>
		<g>
			<path fill="#FFFFFF" d="M208.389,490.952c-1.385,2.119-1.212,4.895,1.722,5.314c3.064,0.439,4.515-2.524,4.319-5.13
				c-0.345,0.047-0.69,0.094-1.035,0.14c1.248,4.396,5.313,5.727,9.216,3.595c3.412-1.863,3.788-5.593,0.022-7.193
				c-0.136,0.321-0.271,0.643-0.406,0.963c3.468,0.735,6.816-1.024,5.726-4.945c-1.395-5.013-7.32-3.959-11.177-3.722
				c-0.675,0.042-0.679,1.096,0,1.055c2.425-0.15,4.843-0.631,7.237,0.016c2.008,0.542,3.421,2.818,3.067,4.844
				c-0.368,2.107-3.052,2.06-4.572,1.737c-0.552-0.117-0.982,0.718-0.406,0.963c3.358,1.427,2.391,4.056-0.345,5.55
				c-3.195,1.744-6.373,0.282-7.345-3.141c-0.159-0.559-1.081-0.468-1.035,0.14c0.149,1.987-0.547,4.01-2.816,4.11
				c-2.432,0.107-2.217-2.301-1.261-3.764C209.672,490.913,208.759,490.386,208.389,490.952L208.389,490.952z"/>
		</g>
	</g>
	<path fill="#FFFFFF" d="M81.478,471.194c0,0,3.594,2.805,3.521-7.791c-0.032-4.572-0.248-17.539-0.231-19.241
		c0.009-0.863,5.021-1.71,5.153,1.737c0.097,2.498-0.036,20.687,0.986,23.18c1.379,3.363,3.211,0.564,3.211,0.564
		s1.734-19.447,2.077-20.207c2.051-4.553,4.431,0.746,4.431,0.746s-3.332,34.894,0.755,37.288c0,0,1.622-9.122,5.753-10.779
		c4.131-1.656,5.496,1.073,5.496,1.073s-3.607,3.44-5.143,10.072c-2.635,11.391-8.002,15.005-15.548,22.17
		c0,0-7.172,60.632-1.745,62.506c6.865,2.371,23.104-27.336,32.629-37.229c2.719,5.678,6.249,8.926,8.774,14.699
		c0.379,0.866-40.501,50.78-48.614,38.297c-12.067-18.565-4.104-79.513-4.104-79.513l-5.713-9.177c0,0-1.646-4.403-3.897-21.877
		c-0.642-4.986-5.706-17.417-6.192-18.789c-0.992-2.794,1.547-2.642,2.527-1.667c3.42,3.398,7.028,15.182,8.342,16.998
		c1.158,1.604,2.571-0.618,2.571-0.618l-4.979-23.073c0,0,0.578-5.321,2.834-2.993C76.63,449.897,81.478,471.194,81.478,471.194z"/>
	<path fill="#0E8CCD" d="M115.163,542.013l14.184,18.582l13.48-28.156l-5.426-19.242
		C137.401,513.196,121.291,532.821,115.163,542.013z"/>
	<polygon fill="#E4F3FB" points="209.863,609.131 199.984,547.374 187.276,551.204 196.03,609.881 	"/>
	<path fill="#0E8CCD" d="M204.569,549.794l-19.543,12.828l-3.382-31.033l9.713-17.848
		C191.357,513.741,201.836,539.091,204.569,549.794z"/>
</g>
<g>
</g>
<g>
</g>
<g>
</g>
<g>
</g>
<g>
</g>
<g>
</g>
</svg>
