<?xml version="1.0" encoding="utf-8"?>
<!-- Generator: Adobe Illustrator 16.0.4, SVG Export Plug-In . SVG Version: 6.00 Build 0)  -->
<!DOCTYPE svg PUBLIC "-//W3C//DTD SVG 1.1//EN" "http://www.w3.org/Graphics/SVG/1.1/DTD/svg11.dtd">
<svg version="1.1" id="Layer_1" xmlns="http://www.w3.org/2000/svg" xmlns:xlink="http://www.w3.org/1999/xlink" x="0px" y="0px"
	 width="150px" height="150px" viewBox="0 0 150 150" enable-background="new 0 0 150 150" xml:space="preserve">
<g id="Bump-_x3E_">
	<g id="Color_11_">
		<path fill-rule="evenodd" clip-rule="evenodd" fill="#FFFFFF" d="M85.41,9.377l32.619,18.799c2.047,1.18,2.75,3.795,1.57,5.843
			l-40.16,69.687c-1.18,2.047-3.796,2.75-5.843,1.57l-32.62-18.797c-2.047-1.182-2.75-3.797-1.57-5.844l40.161-69.688
			C80.746,8.901,83.361,8.198,85.41,9.377z M78.26,20.071l34.102,19.652L81.6,93.101L47.498,73.448L78.26,20.071z M94.336,20.448
			l8.896,5.127c0.615,0.354,0.826,1.139,0.473,1.753c-0.355,0.614-1.139,0.825-1.754,0.471l-8.896-5.126
			c-0.613-0.354-0.824-1.14-0.471-1.754C92.938,20.305,93.723,20.094,94.336,20.448z"/>
		<path fill-rule="evenodd" clip-rule="evenodd" fill="#FFFFFF" d="M80.332,62.743c-2.062,0.805-4.715-1.744-5.782,0.543
			c-1.757,3.765,2.508,10.334,2.452,10.377c0,0,0.09,0.265-0.133,1.169c-0.352,1.43-1.955,4.532-4.252,8.153
			c-1.143,1.801-4.263,3.771-5.491,5.924c-1.614,2.83-2.595,4.1-4.109,7.309c-1.831-0.982-7.156-3.199-12.462-3.162
			c-5.309,0.037-9.768,5.943-10.661,7.869c-0.949,2.047,0.311,4.258,0.549,5.188c0.424,1.658,1.281,7.691,2.847,8.627
			c0.863,0.516,4.448,0.65,6.508-2.438c2.011-3.016,0.937-5.666,1.509-6.045c0.777-0.516,1.411-1.348,1.986-2.697
			c2.619,3.705,5.617,2.873,5.449,3.4c-3.236,10.105-3.771,20.498-3.805,22.129c-0.049,2.328,0.191,3.51,1.123,5.777
			c4.509,10.977,36.875,17.938,35.351,9.152c-0.77-4.437-1.26-3.028,2.424-8.582c3.684-5.553,13.713-28.135,18.842-36.277
			c1.051-1.672,3.35-5.049,3.957-8.584c0.859-4.996-2.291-8.15-1.912-11.629c0.861-7.898-0.439-13.458-0.922-18.474
			c-0.391-4.055-5.125-7.163-5.307-7.178c0,0-0.199-0.818-0.664,0.009c-1.92,3.402-7.289,12.147-9.277,15.902
			c-0.549,1.037-0.311,1.857-0.312,1.881c0,0,0.582-0.701,0.186-0.27c-0.801,0.868-1.932,3.096-1.895,3.236
			c0,0,3.314-11.763-3.699-14.333C85.92,57.189,82.451,61.917,80.332,62.743z"/>
		<path fill-rule="evenodd" clip-rule="evenodd" fill="#FFFFFF" d="M49.006,67.404c0,0-2.849,4.942-5.127,8.897
			c-1.144,1.983,1.256,4.675,1.256,4.675s-0.474-0.258-1.236-0.277c-1.285-0.035-3.653,0.723-4.921,0.68
			c-3.868-0.137-8.375-2.676-6.445-7.667c1.776-4.595,5.126-2.467,8.175-3.876C47.987,66.471,49.1,67.397,49.006,67.404z"/>
		<path fill-rule="evenodd" clip-rule="evenodd" fill="#FFFFFF" d="M57.55,52.577l-6.835,11.862c0,0-10.292-0.977-7.188-8.093
			c1.706-3.911,3.644-2.842,6.697-3.053C54.97,52.964,57.641,52.576,57.55,52.577z"/>
		<path fill-rule="evenodd" clip-rule="evenodd" fill="#FFFFFF" d="M55.724,44.858c0,0,16.938-35.076,19.123-39.021
			c2.184-3.943,4.208-4.422,7.571-2.807c3.246,1.56,6.348,3.564,6.404,3.559c0.096-0.01-4.312-1.316-6.508-2.016
			c-1.967-0.626-4.182-1.364-6.053,2.056C74.451,9.936,55.56,44.917,55.724,44.858z"/>
		<path fill-rule="evenodd" clip-rule="evenodd" fill="#FFFFFF" d="M120.447,24.657c0,0,9.037,4.566,7.164,8.417
			c-1.85,3.8-16.512,21.057-17.164,21.583c-0.131,0.104,15.555-20.716,15.475-23.078C125.82,28.642,120.447,24.657,120.447,24.657z"
			/>
		<path fill-rule="evenodd" clip-rule="evenodd" fill="#FFFFFF" d="M21.773,21.881c0,0,6.829-9.15,19.868-12.257
			c10.617-2.53,18.421,0.815,18.421,0.815l1.3-4.828l6.085,10.045l-10.244,5.406l1.3-4.828c0,0-8.788-3.615-17.112-2.539
			C30.923,15.05,21.669,21.849,21.773,21.881z"/>
	</g>
	<g id="Shadows_10_">
		
			<linearGradient id="SVGID_1_" gradientUnits="userSpaceOnUse" x1="-60.1611" y1="51.3516" x2="-64.174" y2="51.2336" gradientTransform="matrix(0.863 0.5053 -0.5053 0.863 121.2974 60.9307)">
			<stop  offset="0" style="stop-color:#000000"/>
			<stop  offset="1" style="stop-color:#000000;stop-opacity:0"/>
		</linearGradient>
		<path opacity="0.5" fill="url(#SVGID_1_)" d="M39.055,80.968l8.02-13.759c0,0-3.017,1.046-3.368,1.073
			c-0.603,0.044-7.52,12.196-6.956,12.307C37.64,80.767,39.055,80.968,39.055,80.968z"/>
		
			<linearGradient id="SVGID_2_" gradientUnits="userSpaceOnUse" x1="-60.2354" y1="32.8877" x2="-63.9656" y2="32.778" gradientTransform="matrix(0.863 0.5053 -0.5053 0.863 121.2974 60.9307)">
			<stop  offset="0" style="stop-color:#000000"/>
			<stop  offset="1" style="stop-color:#000000;stop-opacity:0"/>
		</linearGradient>
		<path opacity="0.5" fill="url(#SVGID_2_)" d="M49.071,63.859l6.512-11.181c0,0-2.275,0.205-2.627,0.233
			c-0.601,0.045-6.618,10.229-6.055,10.342C47.791,63.43,49.071,63.859,49.071,63.859z"/>
		
			<linearGradient id="SVGID_3_" gradientUnits="userSpaceOnUse" x1="-28.2441" y1="53.2954" x2="-40.812" y2="70.0469" gradientTransform="matrix(0.863 0.5053 -0.5053 0.863 121.2974 60.9307)">
			<stop  offset="0" style="stop-color:#000000"/>
			<stop  offset="1" style="stop-color:#000000;stop-opacity:0"/>
		</linearGradient>
		<path fill="url(#SVGID_3_)" d="M53.009,93.085c-1.413-0.834-5.546-0.607-9.455,2.721c-0.511,0.434,9.455-2.721,13.378,3.012
			c0.799,1.168,0.375,3.131,0.59,4.391c0.324,1.912,1.021,2.939,1.021,2.939l3.136-7.986C61.68,98.161,54.424,93.917,53.009,93.085z
			"/>
		
			<linearGradient id="SVGID_4_" gradientUnits="userSpaceOnUse" x1="-29.6011" y1="54.5864" x2="-36.7519" y2="54.9507" gradientTransform="matrix(0.863 0.5053 -0.5053 0.863 121.2974 60.9307)">
			<stop  offset="0" style="stop-color:#000000"/>
			<stop  offset="1" style="stop-color:#000000;stop-opacity:0"/>
		</linearGradient>
		<path fill="url(#SVGID_4_)" d="M69.439,85.917c0,0-1.671,1.875-3.546,4.682c-1.685,2.52-3.941,7.189-3.941,7.189l-1.384-0.68
			c0,0,0.551-2.568,2.219-5.848c1.69-3.326,4.339-6.695,4.339-6.695L69.439,85.917z"/>
		
			<linearGradient id="SVGID_5_" gradientUnits="userSpaceOnUse" x1="-15.3315" y1="29.1318" x2="-8.9324" y2="24.1904" gradientTransform="matrix(0.863 0.5053 -0.5053 0.863 121.2974 60.9307)">
			<stop  offset="0" style="stop-color:#000000"/>
			<stop  offset="1" style="stop-color:#000000;stop-opacity:0"/>
		</linearGradient>
		<path fill="url(#SVGID_5_)" d="M97.082,66.099c0,0,0.025,3.789,1.352,11.667c1.315,7.814,0.846,12.531,0.846,12.531
			s2.325-6.482,2.188-12.264c-0.052-2.214-1.602-4.666-2.526-5.489c0.006-0.262,0.031,0.255,0,0
			c-0.507-3.917-1.229-7.519-1.229-7.519L97.082,66.099z"/>
		
			<linearGradient id="SVGID_6_" gradientUnits="userSpaceOnUse" x1="-20.2817" y1="14.3584" x2="-10.7524" y2="13.8154" gradientTransform="matrix(0.863 0.5053 -0.5053 0.863 121.2974 60.9307)">
			<stop  offset="0" style="stop-color:#000000"/>
			<stop  offset="1" style="stop-color:#000000;stop-opacity:0"/>
		</linearGradient>
		<path fill="url(#SVGID_6_)" d="M108.418,53.47l-9.477,19.075c0,0,3.859,8.518,3.787,9.321c-0.071,0.805-0.475-8.944,0.664-11.93
			c0.607-1.591,3.077-6.938,4.367-10.616C108.892,56.099,108.418,53.47,108.418,53.47z"/>
	</g>
</g>
</svg>
