<?xml version="1.0" encoding="utf-8"?>
<!-- Generator: Adobe Illustrator 16.0.4, SVG Export Plug-In . SVG Version: 6.00 Build 0)  -->
<!DOCTYPE svg PUBLIC "-//W3C//DTD SVG 1.1//EN" "http://www.w3.org/Graphics/SVG/1.1/DTD/svg11.dtd">
<svg version="1.1" id="Layer_1" xmlns="http://www.w3.org/2000/svg" xmlns:xlink="http://www.w3.org/1999/xlink" x="0px" y="0px"
	 width="150px" height="150px" viewBox="0 0 150 150" enable-background="new 0 0 150 150" xml:space="preserve">
<g id="Bump_x3C_-">
	<g id="Color_12_">
		<path fill-rule="evenodd" clip-rule="evenodd" fill="#FFFFFF" d="M15.807,42.145l32.644-21.853
			c2.049-1.371,4.82-0.823,6.192,1.226l46.683,69.74c1.373,2.049,0.824,4.822-1.225,6.193l-32.643,21.852
			c-2.05,1.373-4.821,0.822-6.193-1.227L14.58,48.338C13.209,46.29,13.757,43.517,15.807,42.145z M22.515,53.771l34.127-22.846
			L92.4,84.344l-34.128,22.844L22.515,53.771z M30.286,38.898l8.903-5.958c0.614-0.412,1.446-0.247,1.858,0.367
			c0.411,0.614,0.247,1.445-0.369,1.856l-8.901,5.962c-0.615,0.41-1.448,0.246-1.86-0.369C29.507,40.142,29.671,39.31,30.286,38.898
			z"/>
		<path fill-rule="evenodd" clip-rule="evenodd" fill="#FFFFFF" d="M63.406,71.521c-0.199,2.302-3.809,3.607-2.161,5.661
			c2.713,3.381,10.829,2.422,10.843,2.494c0,0,0.29,0.037,1.033,0.664c1.175,0.99,3.34,3.92,5.668,7.742
			c1.158,1.9,1.562,5.729,3.01,7.871c1.904,2.818,2.639,4.322,4.943,7.219c-1.766,1.26-6.297,5.219-8.711,10.203
			c-2.414,4.984,1.055,11.883,2.447,13.607c1.475,1.834,4.127,1.674,5.107,1.883c1.748,0.365,7.789,2.35,9.387,1.314
			c0.881-0.57,2.66-3.861,0.721-7.215c-1.893-3.273-4.869-3.49-4.961-4.201c-0.123-0.965-0.609-1.941-1.605-3.105
			c4.674-0.738,5.279-3.928,5.693-3.527c7.967,7.689,17.444,12.986,18.956,13.77c2.154,1.121,1.5,6.775,4.002,9.717
			c4.85,5.697,26.359-1.819,27.938-17.123c0.594-5.74-1.725-13.83-3.443-16.395c-2.301-3.436-1.738-6.49-3.303-9.182
			c-3.498-6.008-21.307-26.306-26.562-34.862c-1.078-1.755-3.179-5.464-6.204-7.664c-4.279-3.108-8.686-1.616-11.768-3.576
			c-6.992-4.451-12.797-5.798-17.713-7.662c-3.976-1.507-9.069,1.492-9.166,1.653c0,0-0.86-0.191-0.299,0.626
			c2.297,3.366,8.005,12.426,10.601,16.02c0.717,0.993,1.596,1.149,1.615,1.161c0,0-0.387-0.869-0.166-0.298
			c0.443,1.149,2.006,3.236,2.154,3.266c0,0-9.48-8.528-15.121-3.151C60.786,63.729,63.61,69.158,63.406,71.521z"/>
		<path fill-rule="evenodd" clip-rule="evenodd" fill="#FFFFFF" d="M53.312,102.988c0,0,3.312,4.945,5.96,8.902
			c1.33,1.984,4.956,0.982,4.956,0.982s-0.461,0.324-0.832,1.027c-0.626,1.186-1.009,3.754-1.634,4.92
			c-1.912,3.557-6.369,6.604-10.148,2.494c-3.48-3.783,0.057-5.934,0.145-9.439C51.969,103.512,53.35,102.898,53.312,102.988z"/>
		<path fill-rule="evenodd" clip-rule="evenodd" fill="#FFFFFF" d="M43.378,88.152l7.948,11.867c0,0-5.663,9.182-10.891,2.992
			c-2.873-3.402-0.978-4.721,0.234-7.676C42.551,90.744,43.419,88.064,43.378,88.152z"/>
		<path fill-rule="evenodd" clip-rule="evenodd" fill="#FFFFFF" d="M35.313,86.297c0,0-25.01-32.037-27.694-35.901
			c-2.682-3.864-2.197-5.978,0.867-8.379c2.957-2.32,6.265-4.296,6.286-4.352c0.035-0.095-3.222,3.428-4.89,5.16
			c-1.493,1.552-3.206,3.282-0.869,6.611C11.272,52.659,35.293,86.479,35.313,86.297z"/>
		<path fill-rule="evenodd" clip-rule="evenodd" fill="#FFFFFF" d="M46.273,16.408c0,0,8.442-6.352,11.183-2.822
			c2.701,3.483,12.087,25.167,12.276,26.021c0.039,0.17-12.207-24.115-14.456-25.13C52.483,13.216,46.273,16.408,46.273,16.408z"/>
		<path fill-rule="evenodd" clip-rule="evenodd" fill="#FFFFFF" d="M92.059,18.444c-8.738-0.646-17.686,3.622-17.686,3.622
			l1.629,4.956L65.02,21.974l5.77-10.812l1.628,4.956c0,0,7.94-3.93,19.145-1.9c13.762,2.493,21.399,11.637,21.399,11.637
			C113.067,25.814,103.037,19.259,92.059,18.444z"/>
	</g>
	<g id="Shadows_11_">
		
			<linearGradient id="SVGID_1_" gradientUnits="userSpaceOnUse" x1="131.7764" y1="41.1353" x2="127.5865" y2="41.0121" gradientTransform="matrix(0.8348 -0.5505 0.5505 0.8348 -74.9453 149.8452)">
			<stop  offset="0" style="stop-color:#000000"/>
			<stop  offset="1" style="stop-color:#000000;stop-opacity:0"/>
		</linearGradient>
		<path opacity="0.5" fill="url(#SVGID_1_)" d="M61.414,118.557l-9.175-13.852c0,0-0.414,3.305-0.55,3.646
			c-0.237,0.584,7.944,12.666,8.308,12.188C60.573,119.791,61.414,118.557,61.414,118.557z"/>
		
			<linearGradient id="SVGID_2_" gradientUnits="userSpaceOnUse" x1="131.6992" y1="21.8672" x2="127.8052" y2="21.7527" gradientTransform="matrix(0.8348 -0.5505 0.5505 0.8348 -74.9453 149.8452)">
			<stop  offset="0" style="stop-color:#000000"/>
			<stop  offset="1" style="stop-color:#000000;stop-opacity:0"/>
		</linearGradient>
		<path opacity="0.5" fill="url(#SVGID_2_)" d="M50.026,101.291l-7.459-11.254c0,0-0.857,2.225-0.994,2.566
			c-0.235,0.584,6.52,10.914,6.883,10.438C49.034,102.291,50.026,101.291,50.026,101.291z"/>
		
			<linearGradient id="SVGID_3_" gradientUnits="userSpaceOnUse" x1="165.083" y1="43.1582" x2="151.9678" y2="60.6392" gradientTransform="matrix(0.8348 -0.5505 0.5505 0.8348 -74.9453 149.8452)">
			<stop  offset="0" style="stop-color:#000000"/>
			<stop  offset="1" style="stop-color:#000000;stop-opacity:0"/>
		</linearGradient>
		<path fill="url(#SVGID_3_)" d="M79.193,111.092c-1.434,0.936-3.129,4.908-1.818,10.102c0.172,0.68,1.818-10.102,8.994-11.129
			c1.461-0.209,3.102,1.092,4.379,1.473c1.938,0.58,3.221,0.4,3.221,0.4l-6.023-6.619C87.945,105.318,80.625,110.15,79.193,111.092z
			"/>
		
			<linearGradient id="SVGID_4_" gradientUnits="userSpaceOnUse" x1="163.667" y1="44.5059" x2="156.2019" y2="44.8861" gradientTransform="matrix(0.8348 -0.5505 0.5505 0.8348 -74.9453 149.8452)">
			<stop  offset="0" style="stop-color:#000000"/>
			<stop  offset="1" style="stop-color:#000000;stop-opacity:0"/>
		</linearGradient>
		<path fill="url(#SVGID_4_)" d="M80.066,92.406c0,0,0.982,2.432,2.744,5.479c1.58,2.74,4.908,7.006,4.908,7.006l-1.273,0.982
			c0,0-2.148-1.701-4.449-4.773c-2.332-3.117-4.262-7.152-4.262-7.152L80.066,92.406z"/>
		
			<linearGradient id="SVGID_5_" gradientUnits="userSpaceOnUse" x1="178.5547" y1="17.9468" x2="185.2329" y2="12.7898" gradientTransform="matrix(0.8348 -0.5505 0.5505 0.8348 -74.9453 149.8452)">
			<stop  offset="0" style="stop-color:#000000"/>
			<stop  offset="1" style="stop-color:#000000;stop-opacity:0"/>
		</linearGradient>
		<path fill="url(#SVGID_5_)" d="M74.275,57.394c0,0,3.557,1.724,11.542,4.119c7.922,2.375,12.117,4.99,12.117,4.99
			s-4.992-5.167-10.465-7.707c-2.096-0.973-5.105-0.653-6.303-0.166c-0.242-0.128,0.252,0.087,0,0
			c-3.9-1.335-7.604-2.319-7.604-2.319L74.275,57.394z"/>
		
			<linearGradient id="SVGID_6_" gradientUnits="userSpaceOnUse" x1="173.3848" y1="2.5312" x2="183.3305" y2="1.9646" gradientTransform="matrix(0.8348 -0.5505 0.5505 0.8348 -74.9453 149.8452)">
			<stop  offset="0" style="stop-color:#000000"/>
			<stop  offset="1" style="stop-color:#000000;stop-opacity:0"/>
		</linearGradient>
		<path fill="url(#SVGID_6_)" d="M67.686,40.961l13.48,17.669c0,0,9.754,0.315,10.469,0.756c0.721,0.438-8.588-3.684-10.857-6.129
			c-1.209-1.301-5.075-6.078-7.918-8.985C70.366,41.729,67.686,40.961,67.686,40.961z"/>
	</g>
</g>
</svg>
