<?xml version="1.0" encoding="utf-8"?>
<!-- Generator: Adobe Illustrator 16.0.4, SVG Export Plug-In . SVG Version: 6.00 Build 0)  -->
<!DOCTYPE svg PUBLIC "-//W3C//DTD SVG 1.1//EN" "http://www.w3.org/Graphics/SVG/1.1/DTD/svg11.dtd">
<svg version="1.1" id="Layer_1" xmlns="http://www.w3.org/2000/svg" xmlns:xlink="http://www.w3.org/1999/xlink" x="0px" y="0px"
	 width="22.546px" height="21.074px" viewBox="0 0 22.546 21.074" enable-background="new 0 0 22.546 21.074" xml:space="preserve">
<path fill="none" stroke="#1D1D1B" stroke-width="0.6" stroke-linejoin="round" d="M22.246,18.761c0,1.109-0.902,2.014-2.018,2.014
	H2.314c-1.111,0-2.015-0.904-2.015-2.014V2.319c0-1.115,0.903-2.02,2.015-2.02h17.914c1.115,0,2.018,0.904,2.018,2.02V18.761z"/>
<path fill-rule="evenodd" clip-rule="evenodd" fill="#404041" d="M9.758,8.848v3.344c0,0.043,0.034,0.066,0.075,0.066
	c0.015,0,0.015,0,0.024-0.019l2.904-1.666c0.02-0.014,0.026-0.035,0.026-0.06c0-0.02-0.006-0.05-0.026-0.056L9.87,8.778
	C9.858,8.767,9.849,8.767,9.849,8.767C9.792,8.767,9.758,8.807,9.758,8.848z"/>
</svg>
