<?xml version="1.0" encoding="utf-8"?>
<!-- Generator: Adobe Illustrator 16.0.4, SVG Export Plug-In . SVG Version: 6.00 Build 0)  -->
<!DOCTYPE svg PUBLIC "-//W3C//DTD SVG 1.1//EN" "http://www.w3.org/Graphics/SVG/1.1/DTD/svg11.dtd">
<svg version="1.1" id="Layer_1" xmlns="http://www.w3.org/2000/svg" xmlns:xlink="http://www.w3.org/1999/xlink" x="0px" y="0px"
	 width="22.544px" height="21.075px" viewBox="0 0 22.544 21.075" enable-background="new 0 0 22.544 21.075" xml:space="preserve">
<path fill="none" stroke="#1D1D1B" stroke-width="0.6" stroke-linejoin="round" d="M22.245,18.761c0,1.109-0.902,2.014-2.016,2.014
	H2.313c-1.112,0-2.014-0.904-2.014-2.014V2.319c0-1.115,0.901-2.02,2.014-2.02h17.916c1.113,0,2.016,0.904,2.016,2.02V18.761z"/>
<path fill-rule="evenodd" clip-rule="evenodd" fill="#404041" d="M12.788,12.201V8.854c0-0.043-0.037-0.063-0.079-0.063
	c-0.015,0-0.015,0-0.023,0.019l-2.907,1.667c-0.019,0.015-0.021,0.037-0.021,0.06c0,0.02,0.002,0.05,0.021,0.055l2.897,1.678
	c0.01,0.014,0.019,0.014,0.019,0.014C12.75,12.283,12.788,12.242,12.788,12.201z"/>
</svg>
