<?xml version="1.0" encoding="utf-8"?>
<!-- Generator: Adobe Illustrator 16.0.4, SVG Export Plug-In . SVG Version: 6.00 Build 0)  -->
<!DOCTYPE svg PUBLIC "-//W3C//DTD SVG 1.1//EN" "http://www.w3.org/Graphics/SVG/1.1/DTD/svg11.dtd">
<svg version="1.1" id="Layer_1" xmlns="http://www.w3.org/2000/svg" xmlns:xlink="http://www.w3.org/1999/xlink" x="0px" y="0px"
	 width="172.464px" height="172.464px" viewBox="0 0 172.464 172.464" enable-background="new 0 0 172.464 172.464"
	 xml:space="preserve">
<g>
	<path fill="#B6B6C0" d="M172.464,11.161C172.464,4.998,167.468,0,161.305,0H11.163C4.996,0,0,4.998,0,11.161v150.143
		c0,6.164,4.996,11.16,11.163,11.16h150.142c6.163,0,11.159-4.996,11.159-11.16V11.161z"/>
	<path fill="#FFFFFF" d="M159.994,24.312v123.837c0,6.531-5.315,11.844-11.849,11.844H24.318c-6.533,0-11.848-5.312-11.848-11.844
		V24.312c0-6.53,5.314-11.844,11.848-11.844h123.827C154.679,12.469,159.994,17.782,159.994,24.312z M148.146,154.712
		c3.621,0,6.567-2.943,6.567-6.562V24.312c0-3.618-2.946-6.562-6.567-6.562H24.318c-3.621,0-6.566,2.944-6.566,6.562v123.837
		c0,3.619,2.945,6.562,6.566,6.562H148.146z"/>
	<g>
		<rect x="84.334" y="80.741" fill="#FFFFFF" width="42.14" height="10.981"/>
		<g>
			<polygon fill="#FFFFFF" points="92.912,69.004 45.99,86.22 92.912,103.458 			"/>
		</g>
	</g>
</g>
</svg>
