<?xml version="1.0" encoding="utf-8"?>
<!-- Generator: Adobe Illustrator 16.0.4, SVG Export Plug-In . SVG Version: 6.00 Build 0)  -->
<!DOCTYPE svg PUBLIC "-//W3C//DTD SVG 1.1//EN" "http://www.w3.org/Graphics/SVG/1.1/DTD/svg11.dtd">
<svg version="1.1" id="Layer_1" xmlns="http://www.w3.org/2000/svg" xmlns:xlink="http://www.w3.org/1999/xlink" x="0px" y="0px"
	 width="150px" height="150px" viewBox="0 0 150 150" enable-background="new 0 0 150 150" xml:space="preserve">
<g id="Shake">
	<g id="Color">
		<path fill-rule="evenodd" clip-rule="evenodd" fill="#FFFFFF" d="M99.438,37.827c2.479,0.761,3.779,7.478,4,8
			c0.105,0.251,1.881,1.791,3.189,4.044c1.487,2.562,4.186,4.57,4.77,5.642c0.535,0.983,1.49,3.823,4.55,8.072
			c1.032,1.434,1.493,3.698,2.491,5.242c2.133,3.298,5.406,6.024,6,8c0.918,3.057,0.419,9.637-0.59,16.492
			c-1.099,7.467-1.304,15.871-1.41,17.508c-0.193,2.98,6.227,9.787,6,12c-0.23,2.248-33.125,21.881-42.848,17.568
			c-2.941-1.305-5.648-6.086-9.066-9.143c-9.589-8.574-14.071-15.52-14.086-15.426c0,0-0.815-1.873,0-2c5.242-0.807,26-2,26-2
			c-0.126,0.359,7.034,1.873,6.821-14.057c-0.229-17.146,0.179-40.943,0.179-40.943c0.039,0.148-1.474-9.73,0.289-15.901
			C96.707,37.499,98.942,37.674,99.438,37.827z"/>
		<path fill-rule="evenodd" clip-rule="evenodd" fill="#FFFFFF" d="M51.438,101.826c1.72-4.99-2-7-2-7v-4c0,0,2.145-0.607,3-3
			c2.908-8.133-3-10-3-10v-4c0,0-4.546-0.521-7,2c-1.665,1.71-3.13,6.566-1.259,10.462c0.893,1.857,2.188,4.48,2.259,4.537
			c0,0,0.318,0.232,0,1c-0.718,1.734-2.388,5.225-2,8c0.368,2.641,3.244,4.828,5,5C49.268,105.104,51.08,102.867,51.438,101.826z"/>
		<path fill-rule="evenodd" clip-rule="evenodd" fill="#FFFFFF" d="M49.438,70.827c0,0-7.308,4.52-10-2
			c-0.776-1.879,1.248-3.53,1.999-5.438c1.287-3.271,2.19-4.564,4.001-5.562c1.822-1.003,3-1,3-1
			c-0.009-0.023-11.317-4.63-12.059-8.161c-1.752-8.339,13.059-5.839,13.059-5.839V70.827z"/>
		<path fill-rule="evenodd" clip-rule="evenodd" fill="#FFFFFF" d="M53.333,24.846l38.286-0.014
			c2.402-0.001,4.352,1.957,4.352,4.373l0.03,82.238c0.001,2.416-1.946,4.377-4.349,4.377l-38.286,0.014
			c-2.402,0.002-4.352-1.957-4.352-4.373l-0.029-82.239C48.983,26.806,50.931,24.847,53.333,24.846z M52.918,37.97l40.026-0.015
			l0.022,62.992l-40.025,0.014L52.918,37.97z M67.272,30.09l10.441-0.003c0.721-0.001,1.306,0.587,1.306,1.312
			c0.001,0.725-0.584,1.312-1.305,1.312l-10.441,0.004c-0.721,0-1.305-0.587-1.306-1.312C65.968,30.679,66.552,30.091,67.272,30.09z
			"/>
		<path fill-rule="evenodd" clip-rule="evenodd" fill="#FFFFFF" d="M30.446,44.65c-0.433,7.508,7.029,11.975,6.992,13.177
			c-0.056,1.803-2.569,4.912-3,8c-0.618,4.428,2.396,7.157,2.649,9.255c0.209,1.725-1.758,5.622-1.649,7.745
			c0.163,3.205,3.381,5.314,4,8c0.738,3.203-0.812,4.686-0.868,6.412c-0.079,2.365,1.866,5.586,1.868,5.588
			c0,0-1.361-3.363-1.257-5.307c0.113-2.123,3.439-5.016-0.743-10.693c-4.21-5.715,2.183-9.506-2-16c-4.183-6.494,4.429-12.608,2-14
			c-6.969-3.992-7.384-11.056-7.007-13.649c0.266-1.83,2.007-3.351,2.007-3.351S30.744,39.493,30.446,44.65z"/>
		<path fill-rule="evenodd" clip-rule="evenodd" fill="#FFFFFF" d="M30.438,35.827c-1.472,1.622-3.79,1.424-5,5
			c-1.879,5.555,3.649,13.901,5,15C23.168,42.37,27.192,39.662,30.438,35.827z"/>
		<path fill-rule="evenodd" clip-rule="evenodd" fill="#FFFFFF" d="M31.438,60.827c0,0-1.754,3.481-1,7c0.746,3.481,4,7,4,7
			s-2.812-1.137-4.771-5.652C28.039,65.418,31.525,60.959,31.438,60.827z"/>
		<path fill-rule="evenodd" clip-rule="evenodd" fill="#FFFFFF" d="M33.438,77.826c0,0-1.402,2.898-1.536,6.076
			c-0.146,3.445,3.656,6.965,3.536,6.924c-0.128-0.043-2.426-4.186-2.27-7.352C33.322,80.35,33.438,77.826,33.438,77.826z"/>
		<path fill-rule="evenodd" clip-rule="evenodd" fill="#FFFFFF" d="M26.438,33.827c0.034-0.052-3.931,2.018-4.724,5.997
			c-0.671,3.368,1.773,9.063,1.724,9.003c-0.081-0.102-1.271-5.444-0.839-8.825C22.865,37.925,26.249,34.118,26.438,33.827z"/>
		<path fill-rule="evenodd" clip-rule="evenodd" fill="#FFFFFF" d="M66.438,22.827c1.011-0.067,30.965-5.839,35,0
			c1.371,1.985-0.486,10.535,1,12s5.118,7.349,5,9s10.141,13.607,11,15s7.955,11.314,8,14s1.218,10.599,1,13s0.859-9.256,0-13
			c-0.854-3.724-5.006-9.848-8.102-14.481c-3.147-4.71-9.596-11.168-10.898-15.519s-4.033-6.825-5-9c-2.004-4.508,0.181-10.522-1-12
			C97.245,15.325,65.428,22.894,66.438,22.827z"/>
		<path fill-rule="evenodd" clip-rule="evenodd" fill="#FFFFFF" d="M86.438,15.827c0,0,18.566-1.318,23,5c1.933,2.754-2,14-2,14
			c-0.094,0.001,4.943-10.784,2.799-14.619C106.126,12.854,86.418,15.865,86.438,15.827z"/>
		<path fill-rule="evenodd" clip-rule="evenodd" fill="#FFFFFF" d="M109.446,35.833c2.041,2.597,3.031,5.12,3.992,8.993
			C113.491,41.977,113.415,37.699,109.446,35.833z"/>
		<path fill-rule="evenodd" clip-rule="evenodd" fill="#FFFFFF" d="M115.438,48.827c5.391,3.675,14.354,23.153,14,25
			c-0.005-1.786,0.029-3.881-3.296-10.687C122.851,56.401,118.337,50.616,115.438,48.827z"/>
		<path fill-rule="evenodd" clip-rule="evenodd" fill="#FFFFFF" d="M35.438,37.827l-3.716-11.416l13.553,5.855L35.438,37.827z"/>
		<path fill-rule="evenodd" clip-rule="evenodd" fill="#FFFFFF" d="M35.259,29.746c0.133-0.221,3.448-8.99,10.751-13.254
			c7.096-4.142,14.791-4.623,14.783-4.658l0.264,5.08c-0.051,0.027-9.387-1.152-13.425,1.579
			c-6.644,4.494-7.767,13.637-7.897,13.696L35.259,29.746z"/>
		<path fill-rule="evenodd" clip-rule="evenodd" fill="#FFFFFF" d="M67.883,13.669L59.094,7.25l0.213,14.994L67.883,13.669z"/>
	</g>
	<g id="Shadows">
		<linearGradient id="SVGID_1_" gradientUnits="userSpaceOnUse" x1="86.3242" y1="85.8867" x2="103.5567" y2="85.8867">
			<stop  offset="0" style="stop-color:#000000"/>
			<stop  offset="1" style="stop-color:#000000;stop-opacity:0"/>
		</linearGradient>
		<path fill-rule="evenodd" clip-rule="evenodd" fill="url(#SVGID_1_)" d="M92.418,115.887c4.447,0,4-5,4-5s-0.039,0.128,0,0
			c0,0,0-52.063,0-56c0.137,3.712,1.962,5.936,3.293,10.313c1.555,5.111,1.379,7.148,3.333,8.509
			c0.667,0.464-3.708,4.99-4.196,13.019c-0.483,7.943,0.262,28.601-3.43,30.159L92.418,115.887z"/>
		<linearGradient id="SVGID_2_" gradientUnits="userSpaceOnUse" x1="42.9038" y1="101.1045" x2="53.8607" y2="101.1045">
			<stop  offset="0" style="stop-color:#000000"/>
			<stop  offset="1" style="stop-color:#000000;stop-opacity:0"/>
		</linearGradient>
		<path fill-rule="evenodd" clip-rule="evenodd" fill="url(#SVGID_2_)" d="M46.418,104.887c2.829,0.276,4.596-1.81,4.925-2.86
			c1.346-4.301-1.996-7.009-1.925-7.14c0.05-0.092,2.899-2.688,3.159,3.476c0.046,1.093-0.309,5.212-0.398,6.702
			c-0.142,2.307-1.24,3.11-1.761,2.822c-0.835-0.462-1.108-2.99-1-3C49.418,104.887,44.662,104.715,46.418,104.887z"/>
		<linearGradient id="SVGID_3_" gradientUnits="userSpaceOnUse" x1="38.4136" y1="85.9072" x2="55.6265" y2="85.9072">
			<stop  offset="0" style="stop-color:#000000"/>
			<stop  offset="1" style="stop-color:#000000;stop-opacity:0"/>
		</linearGradient>
		<path fill-rule="evenodd" clip-rule="evenodd" fill="url(#SVGID_3_)" d="M44.418,90.887c-0.16,0.133,1.256,0.936,2.127,1.908
			c1.113,1.244,0.931,2.294,1.362,2.34c0.438,0.045,0.805,0.156,1.511-0.248c0.235-0.135,1.327-1.138,2.202-0.221
			c1.366-1.299,1.947-5.312,1.619-10.922c-0.19-3.254-1.805-8.184-3.795-6.906c-1.012,0.648-1.012,0.648-1.012,0.648
			s5.646,4.422,3.985,10.4c-0.681,2.448-0.781,3.137-3,4S44.418,90.887,44.418,90.887z"/>
		<linearGradient id="SVGID_4_" gradientUnits="userSpaceOnUse" x1="52.4238" y1="65.3867" x2="46.1984" y2="65.3867">
			<stop  offset="0" style="stop-color:#000000"/>
			<stop  offset="1" style="stop-color:#000000;stop-opacity:0"/>
		</linearGradient>
		<path fill-rule="evenodd" clip-rule="evenodd" fill="url(#SVGID_4_)" d="M46.418,71.887c0,0,5.283-2.695,0.753-8.919
			c-2.599-3.57,2.247-4.081,2.247-4.081v12L46.418,71.887z"/>
		<linearGradient id="SVGID_5_" gradientUnits="userSpaceOnUse" x1="54.8584" y1="50.0991" x2="45.1039" y2="50.0991">
			<stop  offset="0" style="stop-color:#000000"/>
			<stop  offset="1" style="stop-color:#000000;stop-opacity:0"/>
		</linearGradient>
		<path fill-rule="evenodd" clip-rule="evenodd" fill="url(#SVGID_5_)" d="M45.451,55.429c0,0,2.555,0.411,3.394-5.33
			c0.555-3.794-1.427-7.212-1.427-7.212h2l-0.08,14.424L45.451,55.429z"/>
		<linearGradient id="SVGID_6_" gradientUnits="userSpaceOnUse" x1="99.2695" y1="47.2749" x2="92.8896" y2="47.2749">
			<stop  offset="0" style="stop-color:#000000"/>
			<stop  offset="1" style="stop-color:#000000;stop-opacity:0"/>
		</linearGradient>
		<path fill-rule="evenodd" clip-rule="evenodd" fill="url(#SVGID_6_)" d="M96.418,54.887c0,0-2.452-3.054-3-6
			c-1.494-8.03,2.583-9.223,2.583-9.223s-1.393,3.672-1.393,7.611C94.608,51.334,96.418,54.887,96.418,54.887z"/>
		<linearGradient id="SVGID_7_" gradientUnits="userSpaceOnUse" x1="78.9287" y1="111.4951" x2="78.9287" y2="123.1757">
			<stop  offset="0" style="stop-color:#000000"/>
			<stop  offset="1" style="stop-color:#000000;stop-opacity:0"/>
		</linearGradient>
		<path fill-rule="evenodd" clip-rule="evenodd" fill="url(#SVGID_7_)" d="M95.418,116.887c-2.121,0.896-28.867,0.965-26.259,7.13
			c-5.218-5.442-6.721-8.19-6.721-8.19s25.255,0.061,29.979,0.061L95.418,116.887z"/>
	</g>
</g>
</svg>
