<?xml version="1.0" encoding="utf-8"?>
<!-- Generator: Adobe Illustrator 16.0.4, SVG Export Plug-In . SVG Version: 6.00 Build 0)  -->
<!DOCTYPE svg PUBLIC "-//W3C//DTD SVG 1.1//EN" "http://www.w3.org/Graphics/SVG/1.1/DTD/svg11.dtd">
<svg version="1.1" id="Layer_1" xmlns="http://www.w3.org/2000/svg" xmlns:xlink="http://www.w3.org/1999/xlink" x="0px" y="0px"
	 width="100px" height="100px" viewBox="0 0 100 100" enable-background="new 0 0 100 100" xml:space="preserve">
<g id="_x39__3_">
	<g id="Color_40_">
		<path fill-rule="evenodd" clip-rule="evenodd" fill="#FFFFFF" d="M66.599,25.228l14.78-12.825l-14.203-12.1l-0.953,6.676
			c-0.041,0.016-14.081-0.304-24.617,2.192c-12.525,2.967-22.964,6.946-22.908,7.232c0.036,0.186,12.081-2.566,26.459-2.323
			c11.524,0.195,21.717,3.522,21.717,3.522L66.599,25.228z M66.105,12.332c0.104-2.895,2.536-5.157,5.431-5.052
			c2.896,0.105,5.156,2.537,5.052,5.432s-2.537,5.157-5.432,5.052S66.001,15.227,66.105,12.332z"/>
		<path fill="#FFFFFF" d="M36.721,51.865c0,0,0.532-1.046,1.164-1.88c1.176-1.553,3.096-4.03,4.877-7.346
			c2.155-4.014,2.67-5.635,5.183-8.042c1.788-1.712,9.865-12.096,12.082-15.241c2.578-3.659,7.14-8.966,8.499-9.767
			c3.145-1.85,5.007-0.931,6.355,1.646c0.376,0.719,0.248,1.504-0.197,2.729c-0.652,1.765-1.289,2.37-2.435,3.928
			c-1.654,2.249-4.223,5.256-4.67,6.135c-1.367,2.696-6.126,9.655-6.126,9.655s3.433-2.961,7.629-1.907
			c2.356,0.869,4.588,2.151,4.769,3.814c0.349,3.221,0,5.722,0,5.722s2.861,0.139,3.815,2.861c0.953,2.722-0.392,7.692-0.392,7.692
			s1.455,0.576,2.146,2.879c0.691,2.303,0.615,6.333,0.755,7.339c0.277,2.013,0.316,0.75,0.238,2.17
			c-0.021,0.354,0.037,2.065-0.901,4.247c-2.835,6.588-9.204,18.725-9.638,20.884c-0.16,0.793,0.192,2.053,0.095,2.683
			c-0.247,1.653-0.733,2.195-0.384,2.682c0.481,0.671-0.068,0.583-0.503,1.878c-0.434,1.292-28.811,6.139-32.425-1.907
			c-1.214-2.705-1.621-6.963-3.355-10.268c-0.935-1.782-4.284-6.058-7.083-12.358c-2.394-5.387-4.254-12.907-4.481-14.494
			c-0.359-2.512,1.547-6.044,2.602-9.934c0.878-3.239,1.658-6.808,2.504-7.47c2.7-2.113,5.026-2.482,5.026-2.482
			s0.778-0.67,1.081-0.771c0.304-0.101,2.227-3.891,4.42-3.991c1.252-0.057,2.26,0.838,2.699,3.085
			c0.126,0.646,0.13,1.954-0.101,3.287c-0.25,1.433-1.477,2.866-2.404,4.406c-1.202,1.997-2.827,2.475-2.815,2.352
			c-0.106,0.658,0.739,1.263,0.278,2.83c-0.477,1.616-1.078,1.186-1.232,1.939c0,0,1.38-0.272,1.907,0
			C36.157,51.082,36.721,51.865,36.721,51.865z"/>
	</g>
	<g id="Shadows_40_">
		
			<linearGradient id="SVGID_1_" gradientUnits="userSpaceOnUse" x1="386.6768" y1="195.7422" x2="382.3101" y2="205.4324" gradientTransform="matrix(0.6809 0.7323 -0.7323 0.6809 -52.1631 -382.0345)">
			<stop  offset="0" style="stop-color:#000000;stop-opacity:0"/>
			<stop  offset="1" style="stop-color:#000000"/>
		</linearGradient>
		<path opacity="0.5" fill="url(#SVGID_1_)" d="M57.941,41.002c-0.098,0.225,2.082-1.332,3.242-2.284
			c1.638-1.341,3.658-3.761,5.064-4.64c1.96-1.222,3.134-1.02,2.995-1.786c-2.367-0.276-3.112-0.284-3.842-0.25
			c-1.356,0.065-3.42,1.413-3.42,1.413S58.319,40.095,57.941,41.002z"/>
		
			<linearGradient id="SVGID_2_" gradientUnits="userSpaceOnUse" x1="282.8242" y1="186.5508" x2="279.4629" y2="187.8803" gradientTransform="matrix(0.8529 0.5221 -0.5221 0.8529 -69.8318 -261.6765)">
			<stop  offset="0" style="stop-color:#000000;stop-opacity:0"/>
			<stop  offset="1" style="stop-color:#000000"/>
		</linearGradient>
		<path opacity="0.5" fill="url(#SVGID_2_)" d="M69.906,49.882c0,0,0.531-1.948,1.424-4.438c0.889-2.49,2.572-5.865,2.572-5.865
			s0.309,0.836-0.313,2.829c-0.524,1.686-0.739,1.17-2.995,5.903C70.173,49.195,70.512,48.648,69.906,49.882z"/>
		
			<linearGradient id="SVGID_3_" gradientUnits="userSpaceOnUse" x1="303.0176" y1="192.1992" x2="301.5807" y2="192.7675" gradientTransform="matrix(0.8376 0.5462 -0.5462 0.8376 -71.3623 -273.5605)">
			<stop  offset="0" style="stop-color:#000000;stop-opacity:0"/>
			<stop  offset="1" style="stop-color:#000000"/>
		</linearGradient>
		<path opacity="0.5" fill="url(#SVGID_3_)" d="M75.888,56.384c0,0-0.345-0.787-0.104-2.041c0.24-1.257,2.018-5.112,2.018-5.112
			s-0.283,1.318-0.402,2.344c-0.104,0.868-0.359,0.521-1.254,2.784C75.978,54.781,75.785,55.198,75.888,56.384z"/>
		
			<linearGradient id="SVGID_4_" gradientUnits="userSpaceOnUse" x1="845.1885" y1="390.3047" x2="839.4979" y2="391.9904" gradientTransform="matrix(0.183 0.4497 -0.5364 0.2183 119.673 -450.8147)">
			<stop  offset="0" style="stop-color:#000000"/>
			<stop  offset="1" style="stop-color:#000000;stop-opacity:0"/>
		</linearGradient>
		<path opacity="0.5" fill="url(#SVGID_4_)" d="M62.316,16.318c-0.246,0.238-0.441,0.039-0.441,0.039l4.36-4.869
			c0,0,0.244-1.173,0.153-0.681c-0.092,0.493-0.241,1.011-0.241,1.011C65.802,11.991,62.562,16.082,62.316,16.318z"/>
		<linearGradient id="SVGID_5_" gradientUnits="userSpaceOnUse" x1="68.75" y1="19.0522" x2="73.4022" y2="21.5436">
			<stop  offset="0" style="stop-color:#000000"/>
			<stop  offset="1" style="stop-color:#000000;stop-opacity:0"/>
		</linearGradient>
		<path fill="url(#SVGID_5_)" d="M72.425,17.655l-5.159,7.02l5.96-5.198l1.968-3.392c0,0-0.738,0.608-1.453,1.125
			C73.023,17.728,72.425,17.655,72.425,17.655z"/>
	</g>
</g>
</svg>
