<?xml version="1.0" encoding="utf-8"?>
<!-- Generator: Adobe Illustrator 16.0.4, SVG Export Plug-In . SVG Version: 6.00 Build 0)  -->
<!DOCTYPE svg PUBLIC "-//W3C//DTD SVG 1.1//EN" "http://www.w3.org/Graphics/SVG/1.1/DTD/svg11.dtd">
<svg version="1.1" id="Layer_1" xmlns="http://www.w3.org/2000/svg" xmlns:xlink="http://www.w3.org/1999/xlink" x="0px" y="0px"
	 width="100px" height="100px" viewBox="0 0 100 100" enable-background="new 0 0 100 100" xml:space="preserve">
<g id="_x38__2_">
	<g id="Color_39_">
		<path fill-rule="evenodd" clip-rule="evenodd" fill="#FFFFFF" d="M29.67,25.23L15.667,11.807l14.89-12.055l0.562,6.841
			c0.039,0.018,14.076-0.005,24.449,2.771c12.333,3.303,22.522,7.594,22.45,7.885c-0.047,0.189-11.912-2.883-26.283-2.946
			c-11.519-0.049-21.892,3.13-21.892,3.13L29.67,25.23z M25.564,6.686c-2.896,0.044-5.297,2.48-5.362,5.44s2.23,5.324,5.127,5.279
			c2.896-0.044,5.298-2.48,5.363-5.44C30.758,9.005,28.462,6.642,25.564,6.686z"/>
		<path fill-rule="evenodd" clip-rule="evenodd" fill="#FFFFFF" d="M50.546,91.299c-2.709-1.404-4.491-1.237-9.722-3.464
			c-5.559-2.368-11.926-5.787-13.648-7.72c-1.601-1.797-3.029-5.523-4.561-8.481c-1.666-3.221-3.369-5.665-3.382-7.206
			c-0.015-1.609,1.253-3.705,1.946-6.736c0.581-2.543,0.038-5.293,1.123-6.742c1.256-1.677,7.883,1.263,7.776,10.198
			c2.066,2.616,3.066,5.092,3.066,5.092l1.253-0.409c0,0.019-0.095-17.165-2.229-23.217c-0.949-2.692-3.135-8.563-6.109-15.175
			c-3.12-6.935-4.913-15.796-2.539-17.403c4.856-3.285,5.418,2.524,8.081,7.655c1.174,2.263,3.831,4.394,4.883,6.464
			c1.85,3.639,3.522,6.312,3.603,6.273c0.335-0.161-0.423-4.609,3.469-7.063c2.083-1.314,5.453,0.602,7.208,1.711
			c4.639,2.932,4.687,4.542,4.601,4.223c0,0,2.856-1.092,5.191,0.062c4.017,1.986,5.521,6.434,5.257,6.411
			c0,0,1.509-0.712,3.696-0.114c4.784,1.309,5.62,6.488,7,8.602c2.709,4.15,7.799,23.083,7.306,30.031
			c-0.252,3.547,3.674,7.304,1.636,13.262c-4.056,11.86-25.945,14.757-31.139,10.752C53.587,97.748,53.255,92.7,50.546,91.299z"/>
	</g>
	<g id="Shadows_39_">
		
			<linearGradient id="SVGID_1_" gradientUnits="userSpaceOnUse" x1="-10.6279" y1="-19.7812" x2="-14.9757" y2="-10.1331" gradientTransform="matrix(0.9805 -0.1965 0.1965 0.9805 58.2919 43.4407)">
			<stop  offset="0" style="stop-color:#000000;stop-opacity:0"/>
			<stop  offset="1" style="stop-color:#000000"/>
		</linearGradient>
		<path opacity="0.5" fill="url(#SVGID_1_)" d="M44.442,37.917c0.142,0.198-0.042-2.46-0.245-3.943
			c-0.284-2.088-1.283-5.062-1.294-6.713c-0.014-2.299,0.769-3.189,0.048-3.472c-1.469,1.864-1.865,2.493-2.216,3.129
			c-0.652,1.182-0.586,3.637-0.586,3.637S43.871,37.123,44.442,37.917z"/>
		
			<linearGradient id="SVGID_2_" gradientUnits="userSpaceOnUse" x1="2.6475" y1="-10.0269" x2="-0.6983" y2="-8.7035" gradientTransform="matrix(0.9805 -0.1965 0.1965 0.9805 58.2919 43.4407)">
			<stop  offset="0" style="stop-color:#000000;stop-opacity:0"/>
			<stop  offset="1" style="stop-color:#000000"/>
		</linearGradient>
		<path opacity="0.5" fill="url(#SVGID_2_)" d="M59.174,39.349c0,0-0.93-1.782-1.963-4.202c-1.035-2.421-2.089-6.025-2.089-6.025
			s0.792,0.402,1.686,2.277c0.757,1.587,0.251,1.355,1.806,6.338C58.903,38.667,58.781,38.039,59.174,39.349z"/>
		
			<linearGradient id="SVGID_3_" gradientUnits="userSpaceOnUse" x1="10.8232" y1="-3.3892" x2="9.3917" y2="-2.823" gradientTransform="matrix(0.9805 -0.1965 0.1965 0.9805 58.2919 43.4407)">
			<stop  offset="0" style="stop-color:#000000;stop-opacity:0"/>
			<stop  offset="1" style="stop-color:#000000"/>
		</linearGradient>
		<path opacity="0.5" fill="url(#SVGID_3_)" d="M69.318,41.23c0,0-0.793-0.319-1.498-1.378c-0.705-1.061-2.062-4.197-2.062-4.197
			s0.651,0.292,1.28,1.104c0.531,0.688,0.107,0.622,1.05,2.852C68.265,40.029,68.419,40.459,69.318,41.23z"/>
		
			<linearGradient id="SVGID_4_" gradientUnits="userSpaceOnUse" x1="-80.3262" y1="286.3291" x2="-84.3668" y2="287.5261" gradientTransform="matrix(0.4789 0.0796 -0.095 0.5712 88.7362 -139.9779)">
			<stop  offset="0" style="stop-color:#000000"/>
			<stop  offset="1" style="stop-color:#000000;stop-opacity:0"/>
		</linearGradient>
		<path opacity="0.5" fill="url(#SVGID_4_)" d="M22.917,17.773c0.073,0.333,0.249,1.312,0.249,1.312l-1.807-3.528
			c0,0,0.362,0.4,0.732,0.734c0.37,0.334,0.652,0.438,0.652,0.438C22.708,17.113,22.844,17.44,22.917,17.773z"/>
		<linearGradient id="SVGID_5_" gradientUnits="userSpaceOnUse" x1="30.6865" y1="17.0601" x2="31.6015" y2="15.0725">
			<stop  offset="0" style="stop-color:#000000"/>
			<stop  offset="1" style="stop-color:#000000;stop-opacity:0"/>
		</linearGradient>
		<polygon fill="url(#SVGID_5_)" points="30.097,14.35 31.272,17.035 32.699,16.674 30.228,14.068 		"/>
	</g>
</g>
</svg>
