<?xml version="1.0" encoding="utf-8"?>
<!-- Generator: Adobe Illustrator 16.0.4, SVG Export Plug-In . SVG Version: 6.00 Build 0)  -->
<!DOCTYPE svg PUBLIC "-//W3C//DTD SVG 1.1//EN" "http://www.w3.org/Graphics/SVG/1.1/DTD/svg11.dtd">
<svg version="1.1" id="char2" xmlns="http://www.w3.org/2000/svg" xmlns:xlink="http://www.w3.org/1999/xlink" x="0px" y="0px"
	 width="2759.179px" height="1308.038px" viewBox="0 0 2759.179 1308.038" enable-background="new 0 0 2759.179 1308.038"
	 xml:space="preserve">
<g>
	<path fill="#1D1B3A" d="M1106.426,653.29c0,0,24.117,94.168,17.567,138.58c-6.55,44.412-48.797,144.435-48.797,144.435
		s100.462-7.883,99.546,11.711c-0.917,19.595-124.92,5.855-124.92,5.855s53.104-143.547,48.797-167.857
		s-25.803-85.147-27.326-83.928c-9.76,7.807,10.362,78.379,6.153,93.542c-4.209,15.163-52.948,171.729-45.224,172.868
		c7.724,1.139,117.347,20.432,103.483,34.171s-136.632-15.614-136.632-15.614s29.005-148.377,35.134-191.279
		c3.904-27.326-52.554-146.646-48.517-156.212C1007.443,588.011,1106.426,653.29,1106.426,653.29z"/>
	<g>
		<path fill="#58566D" d="M1077.259,484.298c3.84,0.96,42.24-0.959,42.24-0.959l13.439,31.679l-57.702,18.075L1077.259,484.298z"/>
		<g>
			<path fill="#1D1B3A" d="M1076.751,486.139c6.301,1.296,13.569,0.26,19.934,0.056c7.432-0.237,14.862-0.559,22.29-0.921
				c1.486-0.072-1.41-1.645-0.996-0.667c0.39,0.92,0.781,1.84,1.171,2.76c1.549,3.65,3.097,7.301,4.646,10.951
				c2.498,5.888,4.996,11.776,7.493,17.664c0.38-0.936,0.761-1.87,1.141-2.805c-19.234,6.025-38.468,12.05-57.702,18.075
				c0.805,0.613,1.611,1.228,2.417,1.841c0.674-16.265,1.349-32.53,2.023-48.795c0.102-2.463-3.717-2.453-3.818,0
				c-0.674,16.265-1.349,32.53-2.023,48.795c-0.05,1.217,1.261,2.203,2.417,1.841c19.234-6.025,38.468-12.05,57.702-18.075
				c1.286-0.402,1.628-1.657,1.141-2.805c-4.479-10.56-8.959-21.119-13.439-31.679c-0.244-0.574-1.051-0.975-1.648-0.945
				c-6.211,0.31-12.425,0.572-18.639,0.802c-7.251,0.269-15.921,1.7-23.093,0.226
				C1075.363,481.963,1074.34,485.643,1076.751,486.139z"/>
		</g>
	</g>
	<g>
		<path fill="#58566D" d="M985.075,654.764c-5.843-3.945-22.948-223.175,51.791-324.364c41.631-56.364,48.546,20.534,52.208,40.579
			c3.66,20.046,7.051,237.957,28.203,253.82C1138.428,640.662,1050.293,698.829,985.075,654.764z"/>
		<g>
			<path fill="#1D1B3A" d="M986.425,653.414c0.028,0.021-0.03,0.055-0.262-0.657c-0.334-1.026-0.551-2.095-0.762-3.151
				c-0.69-3.449-1.113-6.954-1.506-10.447c-1.337-11.896-1.971-23.875-2.385-35.833c-1.262-36.372,0.143-72.909,4.218-109.071
				c4.625-41.03,12.869-82.467,29.094-120.604c7.673-18.035,17.383-36.104,30.588-50.723c4.577-5.068,11.009-11.314,18.41-10.855
				c5.458,0.338,9.104,5.968,11.401,10.266c6.398,11.975,8.379,26.451,10.481,39.691c1.151,7.253,2.155,14.252,2.643,21.583
				c1.869,28.094,2.857,56.248,4.435,84.359c1.931,34.402,4.087,68.875,8.386,103.076c1.578,12.55,3.369,25.172,6.541,37.433
				c1.834,7.091,4.003,13.489,9.301,18.61c5.216,5.042-2.926,13.424-6.386,16.716c-8.705,8.281-20.097,13.908-31.263,18.017
				c-30.74,11.312-65.668,9.663-93.32-8.708c-2.057-1.367-3.967,1.941-1.927,3.297c34.633,23.01,80.881,20.572,116.022-0.175
				c8.63-5.096,21.624-13.834,22.249-25.076c0.22-3.95-2.235-6.022-4.709-8.574c-2.123-2.189-3.252-5.48-4.242-8.291
				c-3.76-10.681-5.458-22.171-7.1-33.328c-2.347-15.939-3.904-31.997-5.283-48.045c-2.967-34.539-4.764-69.172-6.484-103.791
				c-0.65-13.079-1.256-26.161-2.014-39.233c-0.405-6.971-0.71-13.989-1.892-20.88c-2.183-12.727-3.826-25.534-7.765-37.883
				c-2.998-9.396-8.534-22.784-20.231-22.925c-6.423-0.077-12.191,4.504-16.63,8.628c-7.226,6.713-12.972,15.179-18.224,23.473
				c-10.227,16.151-17.914,33.856-24.176,51.878c-13.428,38.645-19.981,79.6-23.542,120.242
				c-2.892,33.016-3.598,66.298-2.055,99.405c0.487,10.456,1.183,20.932,2.521,31.317c0.393,3.047,0.347,10.769,3.168,12.959
				C985.644,657.604,988.368,654.923,986.425,653.414z"/>
		</g>
	</g>
	<g>
		<g>
			<path fill="#F4EDE1" d="M1200.186,240.432c-17.391-34.779-65.39-39.622-65.39-69.629c0.562,0,6.484,5.295,11.696,7.665
				c18.488,8.402,23.489,2.979,40.442-3.54c-14.628-7.125-19.65-10.363-31.442-19.639c-8.905-7.004-16.534-15.434-24.359-23.577
				c-9.408-9.787-21.843-47.669-36.825-47.669l-103.094,42.956c0,38.108,9.649,66.119,34.159,95.661
				c10.124,12.203,21.377,22.623,28.206,37.261c4.369,9.359,5.795,18.032,6.921,28.16c-0.164-1.474-1.615,16.493-2.701,27.808
				c5.153,10.223,12.124,19.759,20.121,24.155c0.639,0.037,1.277,0.048,1.906,0.008c1.325-0.087,2.6-0.382,3.834-0.824
				c1.18-14.022-0.51-39.409,1.998-46.478c1.869-5.268,15.093-21.851,15.093-21.851c22.965,0,44.961,11.429,68.765,4.628
				C1181.532,272.096,1207.717,255.491,1200.186,240.432z"/>
			<g>
				<path fill="#1D1B3A" d="M1201.834,239.468c-8.036-15.61-22.183-25.701-36.521-35.078c-12.229-7.996-28.311-17.078-28.608-33.587
					c-0.958,0.55-1.915,1.099-2.873,1.648c3.668,1.558,6.857,5.039,10.381,7.017c4.61,2.586,10.318,4.572,15.593,5.043
					c9.909,0.884,18.695-4.248,27.635-7.742c1.384-0.541,2.097-2.687,0.456-3.489c-11.166-5.463-21.271-11.669-31.056-19.34
					c-5.627-4.412-10.732-9.434-15.717-14.546c-4.022-4.125-8.421-8.137-11.646-12.939c-5.156-7.681-8.981-16.248-13.618-24.241
					c-3.944-6.797-8.595-14.458-15.614-18.465c-6.826-3.897-14.861,1.96-21.197,4.6c-14.104,5.877-28.207,11.753-42.311,17.63
					c-15.344,6.394-30.689,12.787-46.033,19.181c-0.797,0.332-1.405,0.91-1.402,1.841c0.105,27.995,6.178,54.586,21.125,78.472
					c7.968,12.733,18.189,23.584,27.868,34.984c5.338,6.287,10.045,12.989,13.632,20.43c4.095,8.496,5.601,17.917,6.66,27.196
					c1.25-0.169,2.5-0.339,3.75-0.508c-0.007-0.028-0.015-0.056-0.022-0.084c-0.418-1.583-2.683-1.901-3.489-0.456
					c-1.441,2.582-0.985,7.325-1.243,10.156c-0.285,3.124-0.56,6.249-0.839,9.374c-0.248,2.768-1.525,7.155-0.789,9.833
					c0.884,3.214,3.517,6.568,5.299,9.351c2.137,3.334,4.628,6.441,7.327,9.333c2.125,2.276,4.583,4.211,7.18,5.915
					c2.562,1.681,5.645,0.938,8.403,0.073c0.864-0.271,1.333-0.961,1.402-1.841c0.683-8.821,0.466-17.696,0.504-26.536
					c0.027-6.376-0.952-14.858,2.037-20.734c3.104-6.103,7.723-11.641,11.894-17.034c0.585-0.757,1.175-1.509,1.767-2.259
					c0.29-0.368,3.138,0.268,4.13,0.325c6.703,0.384,13.336,1.733,19.914,3.009c19.216,3.726,38.089,6.148,55.841-3.782
					C1192.523,266.137,1208.232,253.622,1201.834,239.468c-1.013-2.24-4.303-0.298-3.297,1.928
					c6.657,14.727-17.762,28.422-28.745,32.054c-22.042,7.29-45.126-3.648-67.322-4.438c-4.358-0.155-6.534,4.955-8.904,8.11
					c-3.569,4.75-8.101,9.948-9.935,15.7c-1.956,6.132-1.335,13.538-1.376,19.869c-0.058,8.842,0.179,17.713-0.504,26.536
					c0.467-0.613,0.935-1.228,1.402-1.841c-6.604,2.068-11.164-3.936-15.01-8.586c-3.742-4.523-8.635-10.696-8.075-16.746
					c0.458-4.954,0.889-9.91,1.337-14.865c0.178-1.973,0.14-7.188,0.721-8.229c-1.163-0.152-2.326-0.304-3.489-0.456
					c0.007,0.028,0.015,0.057,0.022,0.085c0.537,2.031,3.999,1.672,3.75-0.508c-1.774-15.546-5.787-29.271-14.954-42.131
					c-8.993-12.616-20.399-23.283-29.397-35.93c-17.56-24.681-24.823-52.981-24.935-83.021c-0.467,0.613-0.935,1.228-1.402,1.841
					c22.032-9.18,44.064-18.36,66.097-27.54c11.233-4.681,22.467-9.361,33.701-14.042c3.718-1.549,5.508-1.496,9.17,1.344
					c7.22,5.599,11.704,15.01,15.97,22.856c3.09,5.684,5.999,11.49,9.524,16.923c4.261,6.567,10.51,12.027,16.008,17.527
					c12.831,12.837,27.54,22.722,43.781,30.668c0.152-1.163,0.304-2.326,0.456-3.489c-8.167,3.191-16.379,8.08-25.399,7.714
					c-5.562-0.226-11.448-2.701-16.209-5.372c-3.115-1.747-5.803-4.892-9.059-6.274c-1.262-0.536-2.901,0.056-2.873,1.648
					c0.275,15.237,12.199,24.633,23.82,32.484c15.865,10.718,32.749,20.465,41.831,38.108
					C1199.665,243.585,1202.959,241.653,1201.834,239.468z"/>
			</g>
		</g>
		<g>
			<path fill="#1D1B3A" d="M990.383,129.919c0-10.848,28.261-24.563,35.534-30.833c15.871-13.673,36.532-24.493,56.603-30.469
				c9.829-2.93,41.841-10.337,24.674,6.837c-17.343,10.406-38.725,23.067-45.101,25.773l-4.297,2.147
				c0,14.725-3.023,25.698,0,40.804c2.425,14.568,10.679,27.804,17.183,40.81c-20.592,0-40.159-62.771-52.991-22.784
				c-6.007,18.725,3.47,34.444,15.864,48.962c2.043,2.397,4.67,30.901-5.083,23.776
				C1023.015,227.816,981.381,195.556,990.383,129.919z"/>
			<g>
				<path fill="#1D1B3A" d="M992.292,129.919c0.371-6.956,10.1-12.72,15.095-16.178c6.062-4.196,12.585-7.75,18.479-12.185
					c9.076-6.831,17.699-13.508,27.741-18.943c10.074-5.451,20.838-9.832,31.889-12.854c5.959-1.63,12.115-2.977,18.296-3.319
					c1.227-0.068,5.819-0.494,6.433,1.08c1.257,3.224-6.447,7.756-8.169,8.787c-14.864,8.897-29.729,17.676-45.224,25.42
					c-0.594,0.297-0.94,1.009-0.946,1.648c-0.121,14.588-2.272,28.468,0.374,42.986c2.585,14.187,10.671,26.908,17.07,39.591
					c0.549-0.958,1.099-1.915,1.648-2.873c-6.452-0.195-11.615-6.118-15.581-10.57c-4.919-5.524-9.196-11.584-14.096-17.124
					c-3.291-3.721-7.319-7.857-12.516-8.399c-5.606-0.583-9.036,5.686-10.874,9.939c-4.71,10.901-4.633,22.328-0.15,33.267
					c2.284,5.574,5.624,10.636,9.204,15.449c2.499,3.36,5.451,5.792,6.215,9.976c0.449,2.457,2.381,18.262-1.653,18.557
					c-2.769,0.202-8.403-6.112-10.229-7.76C998.016,201.815,987.58,165.849,992.292,129.919c0.319-2.437-3.503-2.405-3.818,0
					c-4.943,37.687,6.736,75.105,35.561,100.475c2.949,2.596,6.301,5.849,9.981,7.347c5.536,2.253,7.143-5.905,7.513-9.442
					c0.541-5.172,0.699-12.844-1.759-17.64c-0.888-1.732-2.552-3.208-3.771-4.715c-2.298-2.84-4.393-5.83-6.357-8.908
					c-3.979-6.235-6.777-13.17-7.493-20.56c-0.615-6.348,0.957-12.758,3.462-18.556c1.141-2.641,2.846-6.076,5.807-7.005
					c4.944-1.55,10.779,6.63,13.351,9.684c7.577,8.996,16.796,25.894,30.21,26.299c1.526,0.046,2.273-1.635,1.648-2.873
					c-6.595-13.068-14.33-25.755-16.991-40.354c-1.317-7.228-1.423-14.344-0.964-21.654c0.207-3.287,0.498-6.569,0.721-9.855
					c0.117-1.725,0.188-3.451,0.254-5.179c0.086-2.293-1.246-1.78,0.472-2.639c7.707-3.852,15.237-7.911,22.699-12.233
					c5.657-3.276,11.28-6.612,16.897-9.958c4.866-2.898,9.292-5.172,12.643-9.831c3.094-4.302,1.489-8.584-3.702-9.482
					c-6.579-1.139-13.975,0.77-20.349,2.267c-23.642,5.555-45.663,17.557-64.221,33.032c-6.901,5.754-15.315,9.784-22.562,15.112
					c-5.364,3.943-12.661,9.375-13.05,16.669C988.342,132.381,992.161,132.368,992.292,129.919z"/>
			</g>
		</g>
		<g>
			<g>
				<path fill="#1D1B3A" d="M1104.54,127.307c-10.703,3.521-5.967,24.723,1.69,29.263c1.268,0.752,2.843-0.218,2.873-1.648
					c0.114-5.533,1.125-11.015,1.231-16.56c0.084-4.417-0.122-10.411-4.323-13.011c-2.1-1.3-4.016,2.005-1.927,3.297
					c3.513,2.174,2.486,9.707,2.308,13.15c-0.227,4.381-1.017,8.737-1.107,13.123c0.958-0.55,1.915-1.099,2.873-1.648
					c-4.718-2.798-9.577-19.989-2.603-22.284C1107.882,130.223,1106.885,126.535,1104.54,127.307L1104.54,127.307z"/>
			</g>
		</g>
		<g>
			<g>
				<path fill="#1D1B3A" d="M1105.047,197.636c12.791-1.005,26.688,1.283,38.686-4.168c2.239-1.018,0.297-4.308-1.927-3.297
					c-11.18,5.079-24.834,2.71-36.759,3.646C1102.609,194.009,1102.59,197.828,1105.047,197.636L1105.047,197.636z"/>
			</g>
		</g>
		<g>
			<g>
				<path fill="#1D1B3A" d="M1103.491,188.391c-1.146,4.146-2.187,8.317-3.065,12.528c-0.456,2.188-1.175,4.759-0.923,7.018
					c0.27,2.419,4.091,2.445,3.818,0c-0.257-2.312,0.552-4.876,1.02-7.116c0.801-3.838,1.789-7.637,2.833-11.414
					C1107.829,187.028,1104.146,186.021,1103.491,188.391L1103.491,188.391z"/>
			</g>
		</g>
		<g>
			<g>
				<path fill="#1D1B3A" d="M1080.59,129.401c10.017-4.133,19.656-9.628,29.071-14.97c2.141-1.215,0.218-4.514-1.927-3.297
					c-9.116,5.172-18.461,10.584-28.159,14.585C1077.333,126.645,1078.314,130.341,1080.59,129.401L1080.59,129.401z"/>
			</g>
		</g>
	</g>
	<g>
		<path fill="#B7B6C0" d="M1103.876,505.626c-0.826,0.237-0.341-15.435,0-15.406c40.314,3.364,160.104-23.177,160.104-23.177
			l118.185,46.349l-3.132,17.987l-216.81,30.845L1103.876,505.626z"/>
		<g>
			<path fill="#1D1B3A" d="M1104.84,503.978c0.953,0.502,0.704,1.414,0.587,0.011c-0.062-0.749-0.067-1.506-0.084-2.258
				c-0.042-1.884,0-3.771,0.047-5.655c0.039-1.57,0.107-3.141,0.22-4.708c0.093-1.281-2.083,0.743-0.398,0.86
				c0.943,0.065,1.887,0.102,2.832,0.136c7.284,0.266,14.6-0.207,21.856-0.797c18.517-1.504,36.938-4.314,55.256-7.354
				c26.476-4.392,52.862-9.506,79.074-15.271c0.589-0.13-1.463-0.334-0.152,0.18c1.004,0.394,2.008,0.787,3.012,1.181
				c4.103,1.609,8.207,3.219,12.31,4.828c13.616,5.339,27.231,10.679,40.847,16.019c20.471,8.028,40.941,16.056,61.413,24.084
				c-0.445-0.783-0.889-1.565-1.333-2.349c-1.011,5.805-2.021,11.608-3.032,17.412c-0.217,1.249,2.25-0.902,0.645-0.674
				c-0.814,0.115-1.628,0.231-2.442,0.347c-8.085,1.15-16.17,2.301-24.255,3.451c-29.838,4.245-59.676,8.49-89.514,12.734
				c-27.768,3.951-55.536,7.901-83.304,11.852c-5.498,0.782-10.995,1.564-16.493,2.347c-0.524,0.074,2.438,1.292,1.09-0.017
				c-1.212-1.176-2.424-2.352-3.636-3.526c-4.59-4.452-9.179-8.904-13.769-13.356c-13.463-13.059-26.926-26.118-40.388-39.177
				c-1.768-1.715-4.47,0.982-2.7,2.699c17.78,17.247,35.56,34.494,53.339,51.74c1.295,1.257,4.235,5.417,6.357,5.417
				c1.241,0,2.58-0.363,3.8-0.537c8.227-1.17,16.453-2.34,24.679-3.511c57.562-8.188,115.125-16.378,172.687-24.567
				c5.384-0.766,10.768-1.532,16.151-2.298c0.59-0.084,1.233-0.756,1.333-1.333c1.044-5.996,2.088-11.992,3.132-17.987
				c0.194-1.112-0.291-1.939-1.333-2.349c-21.088-8.271-42.177-16.541-63.266-24.812c-13.64-5.349-27.279-10.698-40.919-16.047
				c-3.883-1.523-7.767-3.046-11.65-4.569c-1.364-0.535-2.396-1.133-3.868-0.811c-22.322,4.904-44.771,9.281-67.278,13.242
				c-16.983,2.989-34.028,5.698-51.157,7.715c-13.393,1.577-27.164,3.102-40.658,2.041c-0.65-0.051-1.336,0.398-1.648,0.945
				c-1.383,2.428-0.677,7.06-0.71,9.714c-0.023,1.915-0.816,7.139,1.396,8.305C1105.089,508.422,1107.019,505.126,1104.84,503.978z"
				/>
		</g>
	</g>
	<g>
		<path fill="#F4EDE1" d="M1106.19,490.404c13.969-9.892,30.973-29.857,47.719-26.331c16.745,3.523,21.84,5.195,38.586,1.673
			c13.221,24.674-22.914,25.555-37.016,22.031c-5.288-0.881-6.169-3.525-12.339-3.525c-5.288,0.881-7.032,4.05-8.145,4.05"/>
		<g>
			<path fill="#1D1B3A" d="M1107.154,492.053c12.29-8.87,23.238-22.277,38.465-26.012c7.649-1.875,16.158,1.982,23.767,2.995
				c8.023,1.067,15.727,0.159,23.616-1.449c-0.718-0.292-1.437-0.585-2.156-0.877c3.098,6.037,4.053,12.562-2.305,16.655
				c-5.166,3.327-12.089,3.875-18.057,4.01c-5.982,0.135-12.995-0.218-18.529-2.694c-2.778-1.244-6.162-2.968-9.324-2.27
				c-1.927,0.425-3.576,1.021-5.287,1.998c-0.875,0.501-1.878,1.805-2.857,2.052c-2.387,0.602-1.374,4.283,1.015,3.682
				c0.827-0.208,1.438-0.67,2.093-1.199c2.733-2.207,5.553-3.156,9.102-2.35c3.784,0.859,7.141,2.887,11.065,3.612
				c6.839,1.265,13.909,1.272,20.784,0.341c5.843-0.792,12.357-2.789,16.149-7.595c4.326-5.483,2.34-12.534-0.552-18.17
				c-0.407-0.792-1.346-1.042-2.156-0.877c-8.365,1.705-16.303,2.376-24.744,0.956c-7.624-1.282-14.87-3.996-22.64-2.502
				c-15.46,2.974-27.186,17.598-39.377,26.396C1103.25,490.183,1105.153,493.497,1107.154,492.053L1107.154,492.053z"/>
		</g>
	</g>
	<g>
		<g>
			<path fill="#1D1B3A" d="M1281.617,528.268c-4.019,5.142,9.699,3.02,10.991,2.876c11.411-1.271,22.778-2.991,34.123-4.741
				c12.008-1.854,24.005-3.819,35.941-6.099c3.871-0.739,7.747-1.501,11.567-2.475c1.513-0.386,4.43-0.834,4.873-2.688
				c0.572-2.394-3.109-3.409-3.682-1.016c0.274-1.148,1.024-0.936-0.474-0.463c-1.145,0.362-2.319,0.638-3.487,0.915
				c-3.494,0.831-7.025,1.511-10.553,2.185c-10.084,1.927-20.219,3.594-30.358,5.2c-10.326,1.636-20.669,3.18-31.038,4.521
				c-3.601,0.466-7.206,0.904-10.821,1.247c-1.222,0.116-2.446,0.214-3.672,0.269c-0.36,0.017-0.72,0.021-1.081,0.018
				c-1.479-0.011,2.877-0.259,0.37,2.949C1285.814,529.052,1283.132,526.328,1281.617,528.268L1281.617,528.268z"/>
		</g>
	</g>
	<g>
		<g>
			<path fill="#1D1B3A" d="M1117.332,504.559c8.104-0.102,16.49-2.072,24.473-3.276c15.724-2.37,31.428-4.88,47.126-7.411
				c24.334-3.926,49.082-7.032,73.178-12.278c2.406-0.523,1.385-4.204-1.015-3.682c-23.412,5.097-47.451,8.118-71.091,11.94
				c-15.853,2.563-31.711,5.093-47.587,7.503c-8.181,1.242-16.777,3.281-25.083,3.386
				C1114.872,500.771,1114.869,504.59,1117.332,504.559L1117.332,504.559z"/>
		</g>
	</g>
	<g>
		<g>
			<path fill="#1D1B3A" d="M1259.975,478.873c-1.038,4.234,8.95,7.465,11.498,8.632c9.952,4.558,20.188,8.52,30.397,12.456
				c11.005,4.242,22.07,8.334,33.166,12.334c5.616,2.025,11.272,4.403,17.05,5.944c2.382,0.636,3.392-3.048,1.015-3.682
				c-15.102-4.028-29.934-10.566-44.521-16.102c-10.186-3.865-20.354-7.809-30.362-12.115c-3.501-1.507-6.985-3.066-10.376-4.81
				c-1.058-0.543-2.098-1.122-3.105-1.755c-1.526-0.958-0.736-1.289-1.08,0.112C1264.242,477.497,1260.561,476.482,1259.975,478.873
				L1259.975,478.873z"/>
		</g>
	</g>
	<g>
		<g>
			<path fill="#1D1B3A" d="M1103.586,493.07c2.723,3.434,6.495,6.297,9.723,9.227c6.317,5.733,12.716,11.379,19.142,16.992
				c6.434,5.62,12.906,11.198,19.472,16.662c3.357,2.794,7.057,6.717,11.1,8.534c2.226,1.001,4.169-2.289,1.927-3.297
				c-3.78-1.699-7.185-5.33-10.327-7.937c-6.575-5.454-13.035-11.047-19.472-16.663c-6.429-5.608-12.818-11.265-19.142-16.992
				c-3.229-2.925-7-5.794-9.722-9.226C1104.757,488.442,1102.074,491.163,1103.586,493.07L1103.586,493.07z"/>
		</g>
	</g>
	<g>
		<g>
			<path fill="#1D1B3A" d="M1261.474,467.539c0.019,3.31,0.235,6.612,0.254,9.922c0.014,2.462,3.832,2.463,3.818,0
				c-0.019-3.31-0.235-6.612-0.254-9.922C1265.278,465.077,1261.46,465.076,1261.474,467.539L1261.474,467.539z"/>
		</g>
	</g>
	<g>
		<g>
			<path fill="#1D1B3A" d="M1166.949,547.049c3.537,0.207,6.873-0.539,10.312-1.283c4.479-0.97,9.146-1.261,13.688-1.865
				c8.788-1.17,17.563-2.736,26.125-5.06c2.374-0.644,1.365-4.327-1.015-3.682c-7.809,2.118-15.79,3.577-23.791,4.737
				c-4.27,0.62-8.589,0.955-12.849,1.622c-4.171,0.653-8.209,1.961-12.469,1.712
				C1164.488,543.087,1164.502,546.906,1166.949,547.049L1166.949,547.049z"/>
		</g>
	</g>
	<g>
		<g>
			<path fill="#1D1B3A" d="M1163.072,544.629c1.099,5.587-0.029,11.292-2.035,16.542c-0.88,2.305,2.812,3.292,3.682,1.016
				c2.262-5.923,3.267-12.305,2.035-18.573C1166.279,541.199,1162.6,542.224,1163.072,544.629L1163.072,544.629z"/>
		</g>
	</g>
	<g>
		<g>
			<path fill="#1D1B3A" d="M1251.861,424.963c-0.316,1.812-6.899,2.527-8.265,2.775c-5.331,0.969-10.82,1.176-16.226,1.282
				c-5.408,0.106-10.823-0.169-16.201-0.734c-3.531-0.371-9.15-0.698-12.076-3.062c0.487,0.394,1.216-0.235,2.442-0.673
				c1.847-0.657,3.816-0.997,5.739-1.347c5.961-1.083,12.117-1.256,18.16-1.295c5.596-0.036,11.222,0.296,16.765,1.072
				c1.502,0.21,9.309,0.981,9.66,2.997c0.422,2.422,4.101,1.393,3.682-1.016c-0.53-3.041-4.775-4.021-7.223-4.676
				c-7.35-1.967-15.332-2.146-22.884-2.196c-7.629-0.05-15.437,0.45-22.883,2.196c-2.469,0.58-7.292,1.861-7.292,5.184
				c0,3.03,3.952,4.2,6.229,4.9c6.975,2.144,14.788,2.326,22.011,2.468c7.895,0.155,15.922-0.315,23.667-1.914
				c2.656-0.548,7.794-1.612,8.375-4.946C1255.962,423.57,1252.282,422.541,1251.861,424.963z"/>
		</g>
	</g>
	<g>
		<g>
			<path fill="#1D1B3A" d="M1194.418,425.979c1.079,5.144,0.824,10.831,1.055,16.056c0.447,10.134,0.765,20.272,1.066,30.411
				c0.282,9.484,0.53,18.971,0.749,28.456c0.076,3.277,0.146,6.555,0.206,9.833c0.016,0.906,0.031,1.813,0.042,2.721
				c0.012,1.005-0.3,0.646,0.376-0.198c-0.545,0.681-1.09,1.361-1.635,2.042c-0.89,1.11-0.636,2.738,0.843,3.19
				c8.796,2.69,18.042,2.316,27.075,1.212c3.321-0.405,5.168-2.382,7.813-4.378c6.945-5.238,13.89-10.478,20.835-15.717
				c0.741-0.559,1.052-1.224,0.877-2.156c-0.645-3.444-0.206-8.523-0.194-12.386c0.024-8.168,0.13-16.336,0.211-24.504
				c0.079-8.06,0.158-16.119,0.112-24.179c-0.022-3.812,0.576-8.621-0.585-12.331c-0.733-2.341-4.419-1.341-3.682,1.016
				c1.123,3.585,0.433,8.433,0.453,12.127c0.046,8.14-0.047,16.281-0.127,24.42c-0.08,8.09-0.179,16.18-0.203,24.27
				c-0.012,4.086-0.424,8.537,0.333,12.583c0.292-0.719,0.585-1.438,0.877-2.156c-6.015,4.537-12.029,9.074-18.043,13.611
				c-2.606,1.966-5.212,3.931-7.818,5.896c-0.84,0.634-4.806,0.507-6.03,0.618c-2.302,0.209-4.611,0.274-6.921,0.303
				c-4.743,0.058-9.433-0.544-13.969-1.931c0.281,1.063,0.562,2.127,0.843,3.19c1.636-2.043,2.4-2.991,2.363-5.543
				c-0.044-3.071-0.113-6.143-0.181-9.214c-0.218-9.907-0.48-19.813-0.77-29.719c-0.307-10.498-0.645-20.995-1.098-31.488
				c-0.242-5.579-0.039-11.575-1.191-17.071C1197.594,422.554,1193.914,423.576,1194.418,425.979L1194.418,425.979z"/>
		</g>
	</g>
	<path fill="#1D1B3A" d="M1203.553,464.677c0,0,14.589-8.661,41.487-0.455l1.823,47.411c0,0-32.99,4.475-41.943,0
		C1203.097,510.723,1203.553,464.677,1203.553,464.677z"/>
	<g>
		<path fill="#F4EDE1" d="M1200.164,558.436c16.039,6.753,19.416-33.764,29.545-43.896c22.792-21.945,44.632-7.018,50.54,16.617
			c-5.065-1.689-13.396-1.421-18.462-3.109c0.845,6.755,12.685,15.686,21.305,16.803c14.926,1.934,36.411-7.057,34.273,1.658
			c-3.593,14.648-14.649,21.835-36.762,25.151c-8.347,1.252-9.397-0.828-10.779-0.555c4.222,3.379,15.695-2.038,19.072,3.871
			c-17.136,14.925-45.68,23.135-70.161,13.005c-5.91-2.53-10.974-5.908-17.727-6.754c-5.065-0.844-12.663,3.378-16.883-0.844
			c-10.13-13.506,7.598-21.947,18.571-17.727"/>
		<g>
			<path fill="#1D1B3A" d="M1199.677,560.199c6.829,2.604,11.776-2.157,15.042-7.716c4.68-7.968,6.969-17.279,10.3-25.839
				c4.444-11.419,14.128-20.556,27.019-20.98c14.274-0.471,23.242,13.896,26.448,25.979c0.75-0.75,1.5-1.5,2.25-2.25
				c-6.03-1.758-12.436-1.353-18.462-3.109c-1.425-0.415-2.503,0.931-2.25,2.25c1.763,9.184,13.06,15.938,21.44,17.891
				c10.524,2.453,21.328-2.126,31.854-1.946c2.847,0.048,2.351,1.44,1.688,3.686c-0.746,2.528-1.94,4.863-3.371,7.065
				c-2.755,4.244-7.087,7.125-11.554,9.299c-5.694,2.771-12.13,4.062-18.327,5.112c-2.938,0.499-6.044,0.921-8.993,0.269
				c-0.997-0.222-1.891-0.711-2.938-0.633c-1.808,0.137-2.503,2.387-0.923,3.408c5.041,3.259,14.882-1.811,18.416,3.215
				c0.096-0.738,0.191-1.478,0.286-2.216c-19.158,16.312-47.633,22.266-70.841,11.398c-5.016-2.349-9.737-4.741-15.268-5.618
				c-4.849-0.768-13.245,3.645-16.613-1.182c-7.881-11.291,8.955-16.75,17.328-13.861c2.236,0.771,3.188-2.763,0.973-3.527
				c-8.424-2.905-21.033-0.175-23.651,9.484c-1.038,3.829,0.976,10.438,4.625,12.365c6.111,3.227,13.098-0.59,19.613,0.866
				c7.674,1.715,14.437,6.585,22.084,8.676c7.726,2.112,15.911,2.377,23.836,1.554c14.854-1.544,29.163-7.918,40.499-17.569
				c0.582-0.496,0.727-1.589,0.286-2.216c-5.042-7.169-13.678-0.615-19.728-4.527c-0.308,1.136-0.615,2.271-0.923,3.408
				c1.034-0.078,2.409,0.615,3.466,0.778c2.575,0.397,5.244,0.11,7.799-0.289c6.714-1.05,13.519-2.425,19.746-5.243
				c9.196-4.162,16.586-11.651,18.419-21.89c1.577-8.81-14.915-4.67-18.849-4.104c-7.09,1.021-14.638,2.091-21.542-0.34
				c-6.008-2.114-14.031-7.611-15.313-14.286c-0.75,0.75-1.5,1.5-2.25,2.25c6.03,1.757,12.436,1.352,18.462,3.109
				c1.354,0.395,2.602-0.922,2.25-2.25c-3.083-11.619-9.816-22.449-21.312-27.124c-11.584-4.711-25.532,1.771-33.188,10.703
				c-5.814,6.783-8.017,16.964-11.018,25.161c-2.282,6.233-6.668,20.761-15.845,17.262
				C1198.442,555.83,1197.497,559.367,1199.677,560.199L1199.677,560.199z"/>
		</g>
	</g>
	<g>
		<path fill="#58566D" d="M1066.894,404.105c3.525,19.976,3.032,74.108,6.463,94.006c2.938,17.04,5.289,27.027,7.638,31.141
			c2.938-1.175,14.689-6.465,18.215-7.638c3.524,8.225-10.577,18.212-12.339,24.675c4.701,0,12.339-10.575,16.451-11.749
			c3.525-1.764,10.576,11.751,15.277,10.576c12.338-2.351,53.467,2.351,65.806,1.763c38.192-2.938,14.102,32.313,3.525,35.251
			c-32.049,8.906-109.874,3.526-128.675,1.765c-18.802-1.765-40.542-90.482-44.655-101.059"/>
		<g>
			<path fill="#1D1B3A" d="M1065.053,404.613c3.637,21.327,2.961,43.594,3.998,65.149c0.452,9.378,0.895,18.825,2.341,28.113
				c1.616,10.378,2.854,22.92,7.955,32.34c0.37,0.684,1.394,1.188,2.156,0.877c6.088-2.485,12.003-5.466,18.215-7.638
				c-0.783-0.444-1.565-0.889-2.348-1.333c2.975,8.619-9.794,16.105-12.339,23.659c-0.37,1.097,0.633,2.545,1.841,2.417
				c3.59-0.38,6.293-2.847,8.892-5.163c1.775-1.584,3.468-3.254,5.265-4.814c2.43-2.109,3.404-2.057,5.655,0.113
				c2.763,2.661,5.038,5.788,8.317,7.868c2.555,1.62,5.901,0.446,8.699,0.284c18.782-1.092,37.677,1.941,56.447,2.336
				c6.771,0.143,17.675-2.245,22.093,4.575c3.264,5.039-0.897,12.432-3.683,16.671c-3.069,4.672-7.255,9.233-12.802,10.661
				c-8.782,2.261-17.95,3.048-26.971,3.657c-21.327,1.44-42.808,0.91-64.143-0.06c-8.529-0.388-17.054-0.901-25.569-1.531
				c-4.599-0.34-10.12,0.211-13.841-2.927c-4.733-3.991-7.776-10.116-10.507-15.542c-3.905-7.758-7.041-15.899-10.001-24.055
				c-5.599-15.422-10.227-31.174-14.85-46.908c-1.083-3.685-2.062-7.443-3.43-11.036c-0.867-2.277-4.559-1.29-3.682,1.016
				c4.243,11.147,6.895,23.032,10.434,34.417c5.115,16.454,10.58,33.018,18.232,48.493c2.732,5.525,5.878,11.15,10.271,15.545
				c3.398,3.4,6.916,3.966,11.506,4.353c17.56,1.48,35.187,2.335,52.803,2.72c20.411,0.446,41.11,0.425,61.344-2.607
				c6.125-0.918,12.086-1.794,16.999-5.757c4.652-3.753,8.414-9.063,10.782-14.517c2.062-4.746,3.045-10.443,0.075-15.028
				c-3.951-6.099-12.961-6.354-19.363-6.087c-18.436,0.771-36.939-2.128-55.386-2.326c-3.928-0.042-7.867,0.045-11.757,0.62
				c-3.759,0.556-8.104-6.513-10.654-8.772c-8.01-7.099-13.987,9.223-21.176,9.983c0.614,0.806,1.227,1.611,1.841,2.417
				c2.914-8.65,15.976-15.152,12.339-25.69c-0.321-0.93-1.32-1.692-2.348-1.333c-6.212,2.172-12.127,5.152-18.215,7.638
				c0.718,0.292,1.437,0.585,2.156,0.877c-4.931-9.106-5.901-21.415-7.569-31.428c-1.625-9.757-1.864-19.818-2.327-29.681
				c-0.989-21.064-0.458-42.738-4.012-63.582C1068.322,401.175,1064.643,402.205,1065.053,404.613L1065.053,404.613z"/>
		</g>
	</g>
</g>
</svg>
