<?xml version="1.0" encoding="utf-8"?>
<!-- Generator: Adobe Illustrator 16.0.4, SVG Export Plug-In . SVG Version: 6.00 Build 0)  -->
<!DOCTYPE svg PUBLIC "-//W3C//DTD SVG 1.1//EN" "http://www.w3.org/Graphics/SVG/1.1/DTD/svg11.dtd">
<svg version="1.1" id="char1" xmlns="http://www.w3.org/2000/svg" xmlns:xlink="http://www.w3.org/1999/xlink" x="0px" y="0px"
	 width="2759.179px" height="1308.038px" viewBox="0 0 2759.179 1308.038" enable-background="new 0 0 2759.179 1308.038"
	 xml:space="preserve">
<g>
	<g>
		<path fill="#1D1B3A" d="M1773.392,435.086c-9.722,17.979-15.021,45.526-17.618,75.873l133.228,33.761
			c4-46.666-11.498-98.12-23.973-124.875c-6.245-13.389-0.386-16.699-1.911-16.962c3.554-18.234,13.994-74.34,19.683-132.01
			c13.284-10.902-6.196-11.107-7.271-11.819c-3.104-2.043-19.349,1.935-34.694,1.25c-16.121-3.825-32.667-9.917-50.917-13.25
			c-4.227,4.549-15.433,20.717-20.093,24.848c-0.329,0.292-0.682,0.521-1.042,0.719c-0.701,1.894-1.089,3.907-1.037,6.065
			c0.053,2.167-0.95,3.658-2.358,4.488c-0.68,7.315-8.267,12.452-10.053,19.546c-1.376,5.479,0.763,12.045-3.046,16.313
			c-5.371,9.196-11.401,23.075-6.272,32.853C1754.377,367.737,1807.698,371.675,1773.392,435.086z"/>
		<g>
			<path fill="#1D1B3A" d="M1771.768,434.137c-12.325,23.265-15.61,50.973-17.875,76.822c-0.071,0.811,0.625,1.622,1.381,1.813
				c44.261,11.216,88.521,22.432,132.781,33.647c0.148,0.038,0.298,0.075,0.446,0.113c1.256,0.318,2.282-0.591,2.381-1.813
				c2.439-30.308-2.47-60.932-10.95-89.993c-3.361-11.52-7.448-22.849-12.351-33.805c-2.188-4.892-4.89-10.458-2.919-15.863
				c0.579-1.588,1.036-3.306-1.045-3.989c0.438,0.771,0.876,1.542,1.313,2.313c3.948-20.291,7.438-40.671,10.593-61.1
				c2.267-14.685,4.307-29.404,6.128-44.15c0.96-7.768,1.829-15.546,2.634-23.33c0.441-4.265,4.934-6.155,5.006-10.547
				c0.088-5.251-8.11-6.159-11.757-6.699c-1.938-0.286-3.78-0.975-6.081-0.968c-6.094,0.02-12.232,1.121-18.303,1.582
				c-7.759,0.589-14.412-0.239-21.889-2.302c-7.523-2.075-14.989-4.355-22.521-6.403c-3.603-0.979-7.228-1.868-10.866-2.702
				c-2.246-0.515-6.191-2.146-8.458-1.523c-2.694,0.741-5.549,6.281-7.176,8.41c-3.168,4.143-6.286,8.325-9.587,12.364
				c-2.693,3.293-5.989,5.073-6.554,9.539c-0.242,1.915,0.131,4.615-1.663,5.996c-0.369,0.284-0.788,0.622-0.864,1.124
				c-0.478,3.134-1.857,5.65-3.604,8.248c-3.219,4.785-6.282,8.727-6.954,14.612c-0.361,3.16,0.028,6.277-0.651,9.42
				c-0.595,2.752-3.207,5.766-4.499,8.307c-2.773,5.455-4.742,11.229-5.528,17.304c-0.895,6.91,1.466,13.189,6.665,17.629
				c8.343,7.124,18.655,11.268,26.09,19.582c12.191,13.634,7.756,32.512,1.026,47.633
				C1774.795,428.379,1773.299,431.27,1771.768,434.137c-1.142,2.139,2.105,4.039,3.248,1.898c8.02-15.018,16.177-34.404,8.881-51.3
				c-4.742-10.984-14.707-17.598-24.438-23.789c-3.799-2.417-8.116-4.869-10.883-8.522c-7.962-10.513,1.916-25.326,6.788-34.752
				c2.452-4.743,0.65-10.744,2.183-15.761c1.75-5.724,6.978-9.923,9.1-15.588c0.632-1.687,1.657-2.783,2.281-4.393
				c0.845-2.182-0.071-7.083,1.846-8.405c3.295-2.272,5.831-6.408,8.249-9.515c2.796-3.593,5.512-7.246,8.298-10.846
				c1.127-1.457,2.275-2.896,3.481-4.289c0.281-0.324,8.733,2.132,9.735,2.37c7.129,1.695,14.164,3.773,21.199,5.814
				c3.399,0.986,6.803,1.961,10.215,2.901c2.752,0.76,6.023,2.128,8.883,2.223c6.325,0.21,12.604-0.215,18.896-0.826
				c4.558-0.442,9.784-1.68,14.354-0.86c2.604,0.466,12.915,1.573,10.988,5.274c-0.909,1.748-2.951,2.536-3.897,4.151
				c-1.234,2.107-0.807,6.388-1.061,8.8c-0.816,7.754-1.733,15.496-2.7,23.232c-1.853,14.812-3.989,29.587-6.297,44.333
				c-2.936,18.753-6.189,37.462-9.814,56.094c-0.203,1.045,0.283,1.975,1.313,2.313c-1.925-0.632-0.704-2.718-1.234-1.478
				c-0.183,0.428-0.354,0.856-0.513,1.294c-0.444,1.217-0.574,2.541-0.661,3.823c-0.346,5.073,2.089,10.008,4.125,14.484
				c5.047,11.1,8.996,22.712,12.408,34.406c8.239,28.232,12.745,58.077,10.378,87.493c0.794-0.604,1.587-1.209,2.381-1.813
				c-44.261-11.216-88.521-22.432-132.781-33.647c-0.148-0.038-0.298-0.075-0.446-0.113c0.46,0.604,0.921,1.209,1.381,1.813
				c2.201-25.131,5.371-52.291,17.361-74.924C1776.15,433.894,1772.903,431.992,1771.768,434.137z"/>
		</g>
	</g>
	<g>
		<path fill="#F2C132" d="M1938.773,79.71c-0.121-4.989-1.61-9.989-3.974-14.761c-2.306-9.827-9.995-19.061-17.923-25.359
			c-8.407-6.671-17.178-13.345-28.377-14.203c-0.149-0.035-2.777-0.651-2.917-0.667c-0.563-0.517-1.716,0.327-2.666,0.334
			c-2.446,0.051-8.855-0.747-10.916,0.331c-4.445,0.865-4.519,4.395-8.392,7.321c-1.325,1.019-1.46,2.418-0.923,3.532
			c-0.429,0.218-0.864,0.469-1.314,0.723c0.083,1.877,0.041,3.764-0.155,5.689c-0.162,1.391-0.855,2.426-1.78,3.11
			c0.129,0.605,0.308,1.208,0.448,1.799c0.559,1.434,1.14,2.829,1.809,4.18c0.961,1.938,0.031,8.201-0.11,8.314
			c-2.102,1.577-12.887-2.809-13.837-3.38c-0.072-0.04-0.125-0.063-0.188-0.099c-0.063-0.031-0.128-0.07-0.177-0.096
			c-0.055-0.02-0.146-0.057-0.202-0.082l0,0c-12.179-5.163-25.006-5.615-37.878-3.284c-3.646,0.658-13.168,1.39-14.302,1.523
			c-5.2,0.639-10.773,1.796-14.666,4.333c-2.878,1.152-7.15,2.81-8.5,4.834c-0.121,0.222-3.992,6.021-7.064,8.23
			c-15.103,26.852,5.203,23.333,14.225,27.643c6.402,3.062,14.182,3.573,21.153,4.165c9.359,0.791,18.793,1.094,28.129,1.978
			c11.065,1.017,22.574,2.641,32.373,8.161c10.949,6.155,13.112,17.91,11.147,29.445c-0.392,2.325,2.061,4.002,4.141,3.221
			c4.275-1.593,10.137-3.545,14.041-0.153c2.776,2.383,2.144,7.473,1.535,10.571c-1.666,8.861-9.372,19.395-19.235,19.176
			c-1.41-0.043-2.595,0.438-3.209,1.774c-4.563,9.856-10.049,19.79-12.569,30.372c-1.302,0.584-5.149,3.799-4.666,5.167
			c-0.015,0.347,5.807,5.233,7.666,4.666c0.77-0.243,4.612-1.581,5.443-1.732c0.537-0.123,1.16-0.219,1.733-0.31
			c-0.019,0.006,1.489-0.104,0.635-0.122c1.642,0.049,2.604,2.236,3.022,0.997c15.667-4,28.591-15.232,36.579-28.983
			c10.387-17.852,14.92-39.985,14.831-60.475c-0.045-11.55-3.137-21.691-8.38-30.388
			C1925.826,98.177,1939.143,95.052,1938.773,79.71z"/>
	</g>
	<g>
		<g>
			<path fill="#1D1B3A" d="M1864.218,58.445c-2.594-9.28-3.55-21.739,3.828-29.167c4.405-4.435,11.256-4.057,16.955-3.485
				c7.91,0.792,15.545,3.817,22.405,7.705c13.051,7.396,24.07,20.35,28.957,34.56c2.873,8.354,1.511,17.74-5.803,23.262
				c-5.355,4.043-12.641,4.887-19.133,4.587c-2.426-0.112-2.415,3.65,0,3.762c15.441,0.713,30.344-7.117,30.123-24.219
				c-0.115-8.983-5.205-17.616-10.175-24.749c-5.23-7.509-11.798-13.767-19.412-18.817c-7.473-4.956-16.096-8.186-24.93-9.586
				c-6.675-1.058-14.5-1.296-20.133,3.066c-10.038,7.774-9.39,23.069-6.311,34.082C1861.243,61.778,1864.872,60.786,1864.218,58.445
				L1864.218,58.445z"/>
		</g>
	</g>
	<g>
		<g>
			<path fill="#1D1B3A" d="M1897.759,29.524c-4.466,5.764-10.36,10.14-15.007,15.741c-4.277,5.158-6.312,11.599-7.229,18.135
				c-0.332,2.371,3.291,3.394,3.627,1c0.93-6.63,3.014-12.559,7.33-17.764c4.288-5.17,9.805-9.118,13.938-14.452
				C1901.885,30.292,1899.243,27.609,1897.759,29.524L1897.759,29.524z"/>
		</g>
	</g>
	<g>
		<path fill="#F4EDE1" d="M1897.425,148.44c0.349-0.983-1.191-3.522-1.06-4.739c0.197-1.748-0.818-4.822-2.448-5.147
			c-2.045-0.43-3.978-1.589-5.923-2.361c-1.154-1.348-4.902,0.226-7.099-0.132c-1.343-0.215-4.748,1.162-5.979,1.493
			c-0.434-7.613,2.953-18.373-1-24.834c-2.327-7.611-8.47-12.989-15-17.917c-2.154-2.717-7.253-3.973-11.276-4.88
			c-0.868-0.19,0.45-1.276-0.391-1.453c-1.465-0.446-3.725-1.22-5.25-1.5c-2.093-4.373-8.833-3.506-13.916-4.667
			c-10.584-2.409-20.179-5.206-30.455-2.979c-0.534-0.345-0.68-1.959-1.475-1.78c-2.625,0.581-4.302-1.092-6.841-0.391
			c-0.708-0.564-4.396,1.898-5.502,2.379c-4.237,1.821-7.203,4.68-11.191,6.967c-0.953,0.538-1.435,1.345-1.62,2.203
			c-6.705,4.973-12.339,11.202-16.3,19.093c-1.871,3.741-3.203,7.686-4.093,11.741c-1.83,4.457-3.254,9.079-4.263,13.759
			c-0.348,1.589-0.59,3.17-0.812,4.772c-7.797,23.262-0.645,45.798,17.56,62.309c9.162,8.31,16.746,16.852,28.752,21.283
			c8.929,3.784,4.037,13.169,4.489,17.311c-0.564,1.87-5.114,14.392-6.292,20.819c-0.253,1.441,2.896-0.907,1.932-0.243
			c0.09,0.133,0.164,0.271,0.256,0.388c0.7,0.859,1.405,1.608,2.097,2.293c1.577,1.94,3.575,3.518,5.773,4.497
			c2.402,1.058,5.156,1.665,7.787,2.057c5.051,0.757,26.328-0.504,29.447-4.727c7.819-0.878,0.915-9.012-0.25-18.25
			c-0.948-7.913-1.765-13.13,0.75-20.417c0.121-0.123-0.397-3.765-0.294-3.886c1.305-0.48,2.587-2.091,3.844-3.025
			c14.657-11.062,26.135-22.545,28.366-40.005c1.238-0.133-0.42-2.367,0.784-2.725c0.274-0.073,4.229,1.26,5.844,0.917
			c5.037-1.075,9.888-5.011,14.014-8.196C1897.1,163.274,1901.732,154.835,1897.425,148.44z"/>
	</g>
	<g>
		<g>
			<path fill="#1D1B3A" d="M1815.457,222.166c-19.965-0.139-38.522-7.055-52.331-21.701c-10.322-10.949-16.792-25.113-18.095-40.078
				c-2.688-30.88,11.87-70.635,43.845-80.729c2.305-0.728,1.319-4.359-1-3.627c-34.2,10.797-49.386,52.43-46.513,85.434
				c1.367,15.694,8.552,30.097,19.104,41.66c14.13,15.487,34.342,22.66,54.99,22.804
				C1817.884,225.944,1817.882,222.183,1815.457,222.166L1815.457,222.166z"/>
		</g>
	</g>
	<g>
		<g>
			<path fill="#1D1B3A" d="M1801.29,131.644c-1.097,13.327-19.941,13.128-29.144,17.907c-1.092,0.566-1.197,2.123-0.381,2.954
				c8.305,8.445,29.844,14.461,38.535,3.684c1.507-1.869-1.137-4.549-2.66-2.66c-7.335,9.096-26.259,3.391-33.215-3.684
				c-0.127,0.984-0.254,1.97-0.381,2.954c11.072-5.75,29.681-5.041,31.007-21.155
				C1805.251,129.225,1801.487,129.244,1801.29,131.644L1801.29,131.644z"/>
		</g>
	</g>
	<g>
		<g>
			<path fill="#1D1B3A" d="M1824.559,128.158c0.188,5.812-0.977,11.602,1.773,17c0.469,0.92,1.723,1.16,2.573,0.675
				c5.545-3.168,7.55-10.701,6.56-16.691c-0.394-2.38-1.369-5.056-3.787-6.025c-2.709-1.086-5.263,0.953-6.99,2.835
				c-1.637,1.783,1.017,4.45,2.66,2.66c0.645-0.703,2.254-2.744,3.324-1.739c1.062,0.997,1.174,3.087,1.245,4.421
				c0.22,4.098-1.141,9.139-4.91,11.292c0.857,0.225,1.716,0.45,2.573,0.675c-2.36-4.634-1.1-10.113-1.26-15.102
				C1828.242,125.739,1824.48,125.731,1824.559,128.158L1824.559,128.158z"/>
		</g>
	</g>
	<g>
		<g>
			<path fill="#1D1B3A" d="M1778.516,119.433c0.202,5.813-0.995,11.604,1.793,16.994c0.474,0.915,1.72,1.165,2.573,0.675
				c5.532-3.178,7.532-10.707,6.544-16.693c-0.393-2.381-1.369-5.057-3.788-6.024c-2.713-1.086-5.272,0.95-7.008,2.831
				c-1.642,1.779,1.012,4.446,2.66,2.66c0.649-0.704,2.269-2.743,3.343-1.736c1.062,0.997,1.174,3.086,1.245,4.421
				c0.219,4.091-1.137,9.136-4.895,11.294c0.857,0.225,1.716,0.45,2.573,0.675c-2.394-4.627-1.105-10.104-1.279-15.096
				C1782.193,117.014,1778.432,117.006,1778.516,119.433L1778.516,119.433z"/>
		</g>
	</g>
	<g>
		<g>
			<path fill="#1D1B3A" d="M1776.069,77.185c22.829,1.903,46.201,3.504,67.84,11.633c10.22,3.839,20.392,9.77,26.153,19.344
				c6.913,11.487,3.998,25.456-0.791,37.125c-0.808,1.968,2.603,3.399,3.438,1.449c2.617-6.114,7.868-10.755,14.84-8.877
				c6.998,1.885,10.746,11.406,9.219,17.964c-1.439,6.184-7.125,11.661-11.967,15.387c-2.538,1.952-11.169,7.897-11.421,1.34
				c-0.079-2.053-3.231-2.647-3.694-0.5c-1.922,8.92-5.207,17.411-9.572,25.416c-3.951,7.244-9.287,14.949-16.942,18.599
				c-10.663,5.083-8.624,19.934-7.2,29.423c0.741,4.939,2.117,9.925,2.234,14.935c0.023,1.003-0.369,0.94-2.04,1.76
				c-2.101,1.03-4.367,1.74-6.604,2.407c-12.585,3.752-28.817,4.367-37.757-6.899c-1.508-1.899-4.15,0.781-2.66,2.66
				c8.823,11.12,23.928,11.642,36.795,9.023c4.697-0.956,9.714-2.385,13.857-4.874c3.113-1.871,2.152-5.539,1.719-8.619
				c-1.526-10.835-8.424-30.857,4.505-37.021c7.344-3.501,12.577-11.407,16.578-18.155c5.034-8.489,8.639-18.021,10.714-27.654
				c-1.231-0.167-2.463-0.333-3.694-0.5c0.295,7.668,6.891,7.593,12.448,4.856c7.782-3.832,15.197-11.605,18.1-19.809
				c2.864-8.096-2.124-19.446-10.008-22.753c-8.834-3.704-17.186,1.79-20.697,9.993c1.146,0.483,2.292,0.966,3.438,1.449
				c4.896-11.927,7.26-25.062,1.869-37.225c-4.668-10.533-15.002-17.412-25.162-21.943c-22.881-10.205-48.911-11.642-73.536-13.695
				C1773.65,73.222,1773.67,76.984,1776.069,77.185L1776.069,77.185z"/>
		</g>
	</g>
	<g>
		<g>
			<path fill="#1D1B3A" d="M1922.129,132.738c-0.501-19.068-7.769-36.374-21.172-49.951c-11.762-11.916-27.199-19.911-42.955-25.146
				c-20.13-6.688-42.73-9.176-63.634-5.178c-16.951,3.242-42.724,18.943-36.729,39.77c0.67,2.326,4.3,1.336,3.627-1
				c-3.1-10.77,5.533-20.441,13.465-26.548c8.446-6.503,19.273-8.871,29.681-9.895c18.535-1.824,37.875,1.315,55.399,7.434
				c14.229,4.968,27.709,12.617,38.487,23.223c12.823,12.616,19.6,29.4,20.069,47.291
				C1918.431,135.159,1922.192,135.165,1922.129,132.738L1922.129,132.738z"/>
		</g>
	</g>
	<g>
		<g>
			<path fill="#1D1B3A" d="M1917.133,132.793c0.481,23.783-5.524,47.929-21.922,65.797c-8.725,9.509-23.566,20.042-37.34,17.328
				c-2.369-0.467-3.379,3.158-1,3.627c15.018,2.959,30.407-7.357,40.313-17.567c17.732-18.277,24.212-44.338,23.71-69.185
				C1920.846,130.371,1917.084,130.366,1917.133,132.793L1917.133,132.793z"/>
		</g>
	</g>
	<g>
		<g>
			<path fill="#1D1B3A" d="M1794.036,221.554c1.062,14.703-0.623,28.317-6.851,41.688c-1.018,2.185,2.225,4.096,3.248,1.898
				c6.521-13.999,8.478-28.165,7.364-43.586C1797.624,219.149,1793.861,219.132,1794.036,221.554L1794.036,221.554z"/>
		</g>
	</g>
	<g>
		<g>
			<path fill="#1D1B3A" d="M1882.634,145.177c-4.818,3.896-8.657,12.208-3.994,17.542c1.6,1.829,4.249-0.842,2.66-2.66
				c-3.187-3.645,1.037-9.831,3.994-12.222C1887.181,146.311,1884.502,143.667,1882.634,145.177L1882.634,145.177z"/>
		</g>
	</g>
	<g>
		<g>
			<path fill="#1D1B3A" d="M1812.705,80.812c9.96-3.897,19.865-7.871,30.363-10.09c11.32-2.394,22.566,1.03,33.927,1.202
				c2.427,0.036,2.423-3.725,0-3.762c-11.139-0.168-22.02-3.264-33.15-1.405c-11.137,1.86-21.687,6.337-32.14,10.428
				C1809.473,78.06,1810.443,81.697,1812.705,80.812L1812.705,80.812z"/>
		</g>
	</g>
	<g>
		<g>
			<path fill="#1D1B3A" d="M1849.187,89.472c12.979-3.632,23.895-11.427,37.971-9.126c2.372,0.388,3.39-3.236,1-3.627
				c-6.962-1.138-13.459-0.604-20.151,1.604c-6.729,2.22-12.97,5.604-19.819,7.521C1845.854,86.497,1846.846,90.127,1849.187,89.472
				L1849.187,89.472z"/>
		</g>
	</g>
	<g>
		<path fill="#DC4832" d="M1819.994,173.777c-1.234-0.018-14.867,1.261-16.938,1.297c-2.833-2.49-9.981-1.751-13.615-2.416
			c-0.641-0.115-1.188-0.011-1.608,0.236c-1.957-1.65-5.573,0.505-4.196,3.254c2.136,4.195,6.847,5.496,11.73,5.876
			c-1.568,0.841-3.166,1.647-4.821,2.365c-2.003,0.871-2.043,4.406,0.239,4.971c3.163,0.766,6.735,1.017,9.484-1.059
			c1.469-1.106,10.828-0.81,11.122-2.541c1.055-0.637,5.535-5.784,6.58-6.449C1820.035,178.021,1822.96,173.826,1819.994,173.777z"
			/>
	</g>
	<g>
		<g>
			<path fill="#1D1B3A" d="M1817.611,177.228c-8.349,1.646-17.184,2.682-25.581,0.754c-1.729-0.396-9.879-4.399-3.84-4.459
				c6.021-0.06,12.241,2.294,18.198,3.081c7.432,0.982,14.77,0.991,21.731-2.074c2.216-0.976,0.3-4.216-1.898-3.248
				c-9.922,4.369-21.225,1.404-31.354-0.596c-3.728-0.736-10.925-2.596-12.591,2.502c-1.417,4.334,3.809,6.821,7.041,7.937
				c9.186,3.168,20.033,1.555,29.293-0.27C1820.99,180.386,1819.98,176.761,1817.611,177.228L1817.611,177.228z"/>
		</g>
	</g>
	<g>
		<g>
			<path fill="#1D1B3A" d="M1795.109,179.273c-3.436,0.97-8.751,2.233-10.089,6.086c-1.089,3.136,2.913,4.979,5.181,5.671
				c9.527,2.911,22.061-0.305,28.656-7.737c1.604-1.808-1.047-4.478-2.66-2.66c-5.204,5.864-13.223,7.843-20.825,7.454
				c-2.071-0.106-5.06-0.392-6.666-1.888c-0.005-0.005,0.342-0.386,1.147-0.909c1.86-1.21,4.146-1.794,6.256-2.39
				C1798.439,182.242,1797.448,178.613,1795.109,179.273L1795.109,179.273z"/>
		</g>
	</g>
	<g>
		<g>
			<path fill="#1D1B3A" d="M1773.902,103.513c3.031-3.373,6.689-5.945,10.964-7.496c2.262-0.82,1.286-4.456-1-3.627
				c-4.88,1.771-9.15,4.599-12.624,8.463C1769.626,102.651,1772.277,105.32,1773.902,103.513L1773.902,103.513z"/>
		</g>
	</g>
	<g>
		<g>
			<path fill="#1D1B3A" d="M1838.845,103.798c3.663,5.993,7.82,11.691,10.714,18.12c0.994,2.209,4.235,0.295,3.248-1.898
				c-2.894-6.429-7.051-12.127-10.714-18.12C1840.83,99.834,1837.576,101.723,1838.845,103.798L1838.845,103.798z"/>
		</g>
	</g>
	<g>
		<g>
			<path fill="#1D1B3A" d="M1821.118,169.457c4.677,1.738,8.513,4.812,12.027,8.285c1.727,1.705,4.388-0.953,2.66-2.66
				c-4.002-3.953-8.378-7.279-13.688-9.252C1819.84,164.983,1818.865,168.62,1821.118,169.457L1821.118,169.457z"/>
		</g>
	</g>
	<g>
		<path fill="#FFFFFF" d="M1771.384,389.718c8.42,14.948-18.175,60.393-23.635,77.266c-12.081,29.736-14.836,65.749-17.081,80.07
			l158.333-2.667l-0.611-33.428c2.278-18.239-22.597-103.199-23.711-103.199c-39.62,0-13.22-158.801,21.236-143.483
			c8.182,3.637-9.997-22.726-38.177-9.092c-28.179,13.638-65.52,81.563-71.475,78.444c-37.677-19.73,11.525-79.023,13.299-86.626
			c0,0-14.484,1.489-23.358,9.822c-8.875,8.329-16.057,37.336-20.313,48.558c-5.127,13.515-8.642,20.917-7.231,32.523
			C1740.073,349.514,1763.017,374.783,1771.384,389.718z"/>
		<g>
			<path fill="#1D1B3A" d="M1769.76,390.667c4.821,9.263-1.818,23.665-5.179,32.396c-4.732,12.297-10.699,24.062-15.85,36.18
				c-11.943,28.095-15.3,57.473-19.877,87.312c-0.18,1.171,0.481,2.403,1.813,2.381c49.171-0.828,98.342-1.656,147.513-2.485
				c3.606-0.061,7.214-0.121,10.82-0.182c1.011-0.018,1.899-0.843,1.881-1.881c-0.204-11.13-0.407-22.26-0.61-33.39
				c-0.244-13.34-2.848-26.21-5.818-39.227c-3.805-16.674-8.243-33.22-13.072-49.624c-1.332-4.522-2.64-9.079-4.256-13.51
				c-1.261-3.455-3.795-2.445-6.87-3.613c-8.882-3.374-11.216-16.853-12.41-24.883c-2.126-14.288-1.179-29.141,0.629-43.404
				c1.889-14.9,5.237-29.781,10.472-43.873c3.43-9.233,8.305-21.214,17.332-26.378c3.474-1.986,6.337-1.233,9.891-0.123
				c4.655,1.454,3.465-4.144,1.86-6.226c-10.403-13.501-30.695-12.863-44.16-4.992c-15.211,8.893-26.694,24.702-37.195,38.441
				c-5.635,7.373-11.044,14.914-16.54,22.39c-3.673,4.996-7.286,10.298-11.782,14.606c-0.464,0.443-1.037,1.023-1.654,1.254
				c-0.361,0.134-4.159-2.81-5.004-3.521c-3.621-3.048-5.898-7.158-7.033-11.704c-2.35-9.415,1.001-19.762,4.483-28.45
				c3.685-9.191,8.745-17.824,13.92-26.24c2.725-4.432,6.93-9.308,8.313-14.417c0.293-1.081-0.571-2.517-1.813-2.381
				c-11.653,1.276-23.347,6.427-29.453,16.773c-7.784,13.191-10.736,28.764-16.032,42.987c-3.298,8.856-7.168,17.475-7.6,27.048
				c-0.303,6.709,1.802,12.111,5.091,17.817C1749.853,364.12,1761.531,376.262,1769.76,390.667c1.203,2.105,4.453,0.211,3.248-1.898
				c-7.225-12.647-16.962-23.731-25.015-35.842c-3.325-5-6.98-10.474-7.615-16.578c-0.983-9.446,2.651-18.297,5.971-26.924
				c5.146-13.376,8.459-27.421,14.389-40.503c3.03-6.686,6.655-11.617,13.209-15.214c4.653-2.554,10.32-4.244,15.616-4.824
				c-0.604-0.794-1.209-1.587-1.813-2.381c-1.085,4.007-4.479,7.957-6.639,11.426c-4.133,6.639-8.108,13.371-11.601,20.372
				c-6.334,12.699-13.225,29.791-6.981,43.799c1.398,3.138,3.351,5.847,5.806,8.242c1.879,1.833,5.505,5.213,8.263,5.266
				c3.393,0.066,6.397-4.358,8.273-6.615c11.113-13.369,20.556-28.092,31.43-41.665c11.385-14.21,25.548-32.185,45.038-34.105
				c8.317-0.82,17.19,2.242,22.979,8.315c0.613,0.644,1.287,1.426,1.623,2.264c0.37,0.924,1.908-0.854,0.875-1.176
				c-0.42-0.132-0.826-0.343-1.238-0.502c-1.712-0.658-3.636-0.864-5.455-0.712c-8.892,0.743-14.892,9.907-18.763,16.952
				c-6.555,11.926-10.38,25.422-13.271,38.645c-3.226,14.754-5.035,29.922-5.116,45.028c-0.063,11.867,0.816,24.547,5.744,35.509
				c1.719,3.82,4.25,7.291,7.728,9.674c1.476,1.011,3.217,1.684,4.954,2.076c0.915,0.206,1.867,0.291,2.803,0.338
				c-1.024-0.051-1.243-1.447-0.701,0.003c4.429,11.846,7.452,24.371,10.708,36.57c5.111,19.156,10.928,39.082,12.34,58.944
				c0.921,12.955,0.337,26.232,0.574,39.236c0.627-0.627,1.254-1.254,1.881-1.881c-49.171,0.828-98.342,1.656-147.513,2.484
				c-3.607,0.062-7.214,0.122-10.82,0.183c0.604,0.794,1.209,1.587,1.813,2.381c2.192-14.288,3.659-28.642,6.433-42.846
				c3.164-16.199,7.977-32.049,14.621-47.163c5.563-12.654,11.676-25.064,16.391-38.077c3.229-8.909,7.856-21.525,3.082-30.699
				C1771.888,386.616,1768.642,388.519,1769.76,390.667z"/>
		</g>
	</g>
	<g>
		<g>
			<path fill="#1D1B3A" d="M1817.172,374.767c9.541-1.209,18.112-5.508,26.558-9.873c2.155-1.114,0.253-4.36-1.898-3.248
				c-7.797,4.03-15.837,8.241-24.659,9.359C1814.799,371.306,1814.77,375.07,1817.172,374.767L1817.172,374.767z"/>
		</g>
	</g>
</g>
</svg>
