<?xml version="1.0" encoding="utf-8"?>
<!-- Generator: Adobe Illustrator 16.0.4, SVG Export Plug-In . SVG Version: 6.00 Build 0)  -->
<!DOCTYPE svg PUBLIC "-//W3C//DTD SVG 1.1//EN" "http://www.w3.org/Graphics/SVG/1.1/DTD/svg11.dtd">
<svg version="1.1" id="char1-armfront" xmlns="http://www.w3.org/2000/svg" xmlns:xlink="http://www.w3.org/1999/xlink" x="0px"
	 y="0px" width="2759.179px" height="1308.038px" viewBox="0 0 2759.179 1308.038" enable-background="new 0 0 2759.179 1308.038"
	 xml:space="preserve">
<g>
	<g>
		<path fill="#F4EDE1" d="M1647.501,282.235c-14.997-5.456-9.999-19.943-9.444-26.605c0.555-9.441,1.665-24.988-4.999-32.761
			c-8.884-11.107-56.26-13.807-67.366-8.809c2.22,5.551,37.381,11.031,43.49,12.14c-7.774,0-47.054-1.585-53.717,2.858
			c6.663,9.44,43.167,7.138,53.16,7.691c-4.996,1.11-46.013,6.097-41.57,12.761c3.333,4.442,37.127-2.211,42.127-2.766
			c-5-1.11-22.13,5.872-27.127,7.536c-5.555,6.663,26.185,0.456,33.406,5.454c7.772,4.998-6.818,32.043,24.543,25.226"/>
		<g>
			<path fill="#1D1B3A" d="M1648.001,280.422c-13.757-5.484-8.107-20.769-7.693-32.133c0.405-11.109-0.294-24.835-11.202-30.77
				c-9.766-5.314-22.138-6.491-33.022-7.333c-9.591-0.742-21.764-1.79-30.892,2.061c-1.151,0.485-1.727,1.577-1.124,2.763
				c2.789,5.483,14.079,6.875,19.237,8.102c8.389,1.995,16.895,3.384,25.377,4.902c0.167-1.231,0.333-2.463,0.5-3.694
				c-9.481-0.029-18.953-0.364-28.437-0.219c-5.375,0.082-10.756,0.29-16.104,0.854c-3.353,0.354-7.174,0.699-10.126,2.479
				c-1.133,0.684-1.12,2.003-0.381,2.954c5.238,6.736,17.211,7.033,24.896,7.613c9.859,0.744,19.734,0.152,29.594,0.629
				c-0.167-1.231-0.333-2.463-0.5-3.694c-7.887,1.662-15.934,2.539-23.832,4.192c-4.841,1.014-17.802,2.484-19.369,8.634
				c-2.62,10.278,39.283,1.464,44.258,0.863c1.908-0.23,2.782-3.347,0.5-3.694c-5.956-0.908-12.588,2.017-18.091,3.926
				c-3.147,1.091-11.568,2.296-12.032,6.509c-0.386,3.504,4.461,3.858,6.832,4.044c6.405,0.503,12.88-0.117,19.3,0.145
				c4.226,0.172,9.349,0.157,10.347,5.018c0.785,3.821,0.354,7.891,0.877,11.764c1.661,12.282,13.73,12.461,23.59,10.438
				c2.375-0.487,1.367-4.112-1-3.627c-5.014,1.028-12.12,2.438-16.33-1.473c-2.537-2.356-2.742-6.51-2.909-9.72
				c-0.298-5.732,0.341-12.276-5.892-14.831c-8.596-3.522-19.663-0.821-28.708-1.532c-0.814-0.063-1.596-0.216-2.377-0.448
				c-0.062-0.019-0.494,0.873,0.515,0.519c2.556-0.901,5.091-1.862,7.644-2.774c4.908-1.754,11.888-5.145,17.235-4.329
				c0.167-1.231,0.333-2.463,0.5-3.694c-7.255,0.876-14.436,2.34-21.688,3.257c-4.362,0.552-8.753,0.982-13.153,1.029
				c-1.506,0.016-3.025-0.046-4.506-0.332c-1.276-0.247-1.451-0.098-0.808-0.725c2.099-2.044,6.032-2.771,8.738-3.533
				c4.107-1.157,8.308-1.997,12.497-2.796c6.259-1.194,12.631-1.888,18.863-3.201c2.162-0.455,1.539-3.596-0.5-3.694
				c-8.675-0.419-17.375-0.009-26.057-0.416c-7.437-0.349-20.649-0.133-25.773-6.725c-0.127,0.984-0.254,1.97-0.381,2.954
				c2.865-1.729,6.895-1.848,10.123-2.156c5.489-0.524,11.022-0.63,16.532-0.696c8.708-0.105,17.406,0.224,26.112,0.251
				c2.073,0.006,2.631-3.312,0.5-3.694c-7.017-1.256-14.039-2.441-21.014-3.924c-4.522-0.961-9.021-2.05-13.44-3.412
				c-2.207-0.681-6.743-1.641-7.912-3.939c-0.375,0.921-0.749,1.842-1.124,2.763c8.873-3.743,20.557-2.578,29.892-1.927
				c10.812,0.756,23.714,2.02,33.097,7.977c5.804,3.686,6.869,11.86,7.301,18.097c0.426,6.154,0.214,12.64-0.729,18.741
				c-1.717,11.1-0.235,20.709,11.25,25.287C1649.256,284.948,1650.226,281.309,1648.001,280.422L1648.001,280.422z"/>
		</g>
	</g>
	<path fill="#1D1B3A" stroke="#1D1B3A" stroke-width="0.7523" stroke-linecap="round" d="M1640.072,272.478
		c2.631,0.549,80.345,50.481,118.676,41.716s104.932-61.056,123.79-46.15c18.856,14.902,1.353,69.998-27.891,75.989
		c-29.243,5.988-99.003,16.726-144.263-4.496c-45.267-21.224-85.51-50.735-82.927-57.882
		C1630.044,274.51,1640.072,272.478,1640.072,272.478z"/>
</g>
</svg>
