<?xml version="1.0" encoding="utf-8"?>
<!-- Generator: Adobe Illustrator 16.0.4, SVG Export Plug-In . SVG Version: 6.00 Build 0)  -->
<!DOCTYPE svg PUBLIC "-//W3C//DTD SVG 1.1//EN" "http://www.w3.org/Graphics/SVG/1.1/DTD/svg11.dtd">
<svg version="1.1" id="sign" xmlns="http://www.w3.org/2000/svg" xmlns:xlink="http://www.w3.org/1999/xlink" x="0px" y="0px"
	 width="2759.179px" height="1308.038px" viewBox="0 0 2759.179 1308.038" enable-background="new 0 0 2759.179 1308.038"
	 xml:space="preserve">
<g>
	<g>
		<g>
			<path fill="#FFFFFF" d="M1605.523,347.944c-12.869,1.43-214.485-9.296-225.923-14.303l2.144,0.716
				c-4.289-8.577-8.938-291.341-13.226-299.921l-0.714,2.145c10.724,2.144,217.343-32.888,228.069-34.319l1.072-0.356
				c2.146,20.735,15.013,333.884,15.729,343.177"/>
			<g>
				<path fill="#1D1B3A" d="M1605.523,346.063c-6.588,0.679-13.492,0.007-20.087-0.205c-13.575-0.435-27.144-1.055-40.709-1.709
					c-34.158-1.646-68.306-3.604-102.419-6.002c-13.987-0.983-27.975-2.028-41.931-3.394c-6.332-0.619-14.293-0.434-20.277-2.926
					c-0.333,1.209-0.667,2.418-1,3.627c0.714,0.238,1.429,0.478,2.144,0.716c1.71,0.571,2.763-1.39,2.124-2.763
					c0.298,0.641-0.145-0.755-0.205-1.092c-0.169-0.951-0.25-1.743-0.36-2.773c-0.342-3.206-0.558-6.426-0.768-9.644
					c-0.684-10.495-1.122-21.008-1.551-31.517c-1.268-31.057-2.186-62.128-3.142-93.196c-1.001-32.567-1.959-65.136-3.147-97.697
					c-0.719-19.713-0.817-39.722-3.097-59.338c-0.18-1.551-0.288-3.228-0.956-4.664c-0.738-1.586-2.97-0.954-3.438,0.449
					c-0.238,0.715-0.476,1.43-0.714,2.145c-0.302,0.907,0.341,2.14,1.313,2.313c5.745,1.026,12.565-0.663,18.25-1.364
					c12.641-1.562,25.246-3.419,37.843-5.298c33.384-4.979,66.709-10.363,100.024-15.782c16.519-2.688,33.033-5.401,49.548-8.108
					c7.874-1.291,16.879-1.598,24.476-4.123c-0.794-0.604-1.587-1.209-2.381-1.813c1.583,15.592,1.846,31.399,2.598,47.044
					c1.472,30.627,2.832,61.26,4.184,91.892c2.668,60.454,5.204,120.913,7.874,181.367c0.336,7.617,0.506,15.269,1.073,22.874
					c0.18,2.403,3.942,2.421,3.762,0c-1.024-13.729-1.282-27.553-1.881-41.304c-1.293-29.748-2.566-59.497-3.853-89.245
					c-2.672-61.79-5.229-123.591-8.372-185.359c-0.462-9.075-0.705-18.223-1.623-27.269c-0.116-1.146-1.123-2.231-2.381-1.813
					c-5.679,1.888-12.348,2.139-18.235,3.101c-12.645,2.067-25.287,4.148-37.932,6.217c-33.321,5.451-66.652,10.854-100.024,15.987
					c-16.108,2.478-32.225,4.92-48.382,7.061c-5.328,0.706-10.663,1.383-16.012,1.905c-2.196,0.215-6.189,0.649-7.556,0.405
					c0.438,0.771,0.875,1.542,1.313,2.313c0.238-0.715,0.476-1.43,0.714-2.145c-1.146,0.149-2.292,0.3-3.438,0.449
					c-0.297-0.64,0.145,0.755,0.205,1.092c0.169,0.952,0.25,1.743,0.36,2.773c0.342,3.206,0.558,6.427,0.768,9.645
					c0.684,10.495,1.122,21.009,1.551,31.517c1.268,31.058,2.187,62.129,3.142,93.197c1.001,32.567,1.96,65.137,3.148,97.697
					c0.719,19.713,0.817,39.721,3.097,59.336c0.18,1.552,0.288,3.228,0.956,4.664c0.708-0.921,1.416-1.842,2.124-2.763
					c-0.714-0.238-1.429-0.478-2.144-0.716c-2.357-0.787-3.168,2.724-1,3.627c5.727,2.386,13.302,2.251,19.368,2.869
					c13.321,1.357,26.68,2.354,40.034,3.313c34.099,2.453,68.238,4.403,102.384,6.086c14.412,0.71,28.828,1.37,43.25,1.854
					c7.017,0.235,14.378,0.97,21.388,0.248C1607.912,349.579,1607.936,345.815,1605.523,346.063L1605.523,346.063z"/>
			</g>
		</g>
		<g>
			<g>
				<path fill="#1D1B3A" d="M1403.346,78.989c5.286-3.469,14.418-9.716,21.126-6.476c4.64,2.242,4.508,8.954,4.038,13.247
					c-1.193,10.891-9.322,27.861-22.068,28.145c0.627,0.627,1.254,1.254,1.881,1.881c-0.429-7.221,0.478-14.74,0.852-21.948
					c0.268-5.151,0.575-10.301,0.971-15.444c0.151-1.961,0.327-3.92,0.542-5.875c0.1-0.911,0.854-3.409,0.27-2.792
					c1.667-1.76-0.989-4.424-2.66-2.66c-1.458,1.54-1.306,4.795-1.508,6.732c-0.553,5.311-0.848,10.652-1.154,15.98
					c-0.49,8.529-1.581,17.461-1.074,26.007c0.06,1.005,0.811,1.904,1.881,1.881c15.439-0.344,24.455-19.354,25.901-32.556
					c0.631-5.766-0.456-12.765-5.972-15.846c-7.868-4.393-18.569,2.307-24.923,6.476
					C1399.429,77.065,1401.312,80.324,1403.346,78.989L1403.346,78.989z"/>
			</g>
		</g>
		<g>
			<g>
				<path fill="#1D1B3A" d="M1443.342,71.09c2.958-0.685,4.674-2.398,5.357-5.357c-1.231-0.167-2.463-0.333-3.694-0.5
					c-0.312,15.234-7.784,29.219-8.089,44.488c-0.044,2.198,3.04,2.459,3.694,0.5c0.676-2.022,1.349-4.046,2.024-6.068
					c0.771-2.308-2.863-3.289-3.627-1c-0.675,2.022-1.349,4.046-2.024,6.068c1.231,0.167,2.463,0.333,3.694,0.5
					c0.305-15.249,7.776-29.229,8.089-44.488c0.043-2.11-3.214-2.581-3.694-0.5c-0.13,1.689-1.04,2.6-2.73,2.73
					C1439.979,68.01,1440.981,71.636,1443.342,71.09L1443.342,71.09z"/>
			</g>
		</g>
		<g>
			<g>
				<path fill="#1D1B3A" d="M1442.15,74.65c2.223-2.518,4.672-4.35,7.706-5.771c-0.921-0.375-1.842-0.749-2.763-1.124
					c2.547,8.11,2.853,16.807,4.055,25.179c0.781,5.437,1.694,13.25,6.923,16.39c2.085,1.252,3.975-2.001,1.898-3.248
					c-5.025-3.017-5.169-13.632-5.797-18.669c-0.86-6.898-1.358-13.986-3.452-20.651c-0.387-1.233-1.645-1.647-2.763-1.124
					c-3.329,1.562-6.037,3.607-8.467,6.359C1437.892,73.801,1440.542,76.472,1442.15,74.65L1442.15,74.65z"/>
			</g>
		</g>
		<g>
			<g>
				<path fill="#1D1B3A" d="M1442.15,100.938c4.365-4.075,10.539-5.282,15.797-7.793c2.188-1.045,0.279-4.288-1.898-3.248
					c-5.618,2.684-11.882,4.016-16.559,8.381C1437.714,99.937,1440.379,102.591,1442.15,100.938L1442.15,100.938z"/>
			</g>
		</g>
		<g>
			<g>
				<path fill="#1D1B3A" d="M1471.847,59.854c-4.59,5.01-6.794,13.487-8.687,19.804c-1.581,5.273-5.218,16.508,0.2,20.832
					c6.033,4.814,14.502-3.31,14.211-9.564c-0.146-3.141-1.708-6.375-3.805-8.674c-1.649-1.807-4.174-1.382-4.494,1.179
					c-0.3,2.402,3.465,2.374,3.762,0c-2.078,0.328-2.721,0.822-1.927,1.481c0.263,0.264,0.496,0.552,0.701,0.863
					c0.731,1.022,1.228,2.186,1.622,3.371c1.117,3.368-0.092,6.091-3.15,7.793c-5.935,3.303-6.004-2.812-5.56-6.993
					c0.599-5.637,2.535-11.24,4.501-16.523c1.292-3.472,2.717-8.104,5.287-10.908C1476.142,60.73,1473.489,58.062,1471.847,59.854
					L1471.847,59.854z"/>
			</g>
		</g>
		<g>
			<g>
				<path fill="#1D1B3A" d="M1479.384,67.255c-0.181,11.037-4.65,26.736,5.375,34.875c6.545,5.314,12.273,0.993,12.544-6.565
					c0.087-2.427-3.675-2.418-3.762,0c-0.307,8.557-7.174,4.392-9.796-0.496c-4.087-7.62-0.734-19.589-0.599-27.813
					C1483.186,64.828,1479.424,64.832,1479.384,67.255L1479.384,67.255z"/>
			</g>
		</g>
		<g>
			<g>
				<path fill="#1D1B3A" d="M1483.288,87.333c5.183-0.11,11.124-2.246,13.758-6.997c1.177-2.123-2.072-4.02-3.248-1.898
					c-1.981,3.573-6.642,5.052-10.51,5.134C1480.866,83.623,1480.86,87.385,1483.288,87.333L1483.288,87.333z"/>
			</g>
		</g>
		<g>
			<g>
				<path fill="#1D1B3A" d="M1484.912,68.204c1.255-2.461,5.687-12.36,9.622-8.488c3.778,3.718,4.845,10.909,5.943,15.823
					c1.399,6.264,2.34,12.623,3.306,18.964c0.466,3.064,0.387,7.93,2.444,10.479c0.863,1.068,2.898,0.491,3.144-0.83
					c0.841-4.528-0.4-8.85-1.489-13.234c-0.729-2.934-1.359-5.913-0.812-8.936c0.723-3.993,2.058-1.587,3.544,0.508
					c2.715,3.826,6.92,14.314,12.832,14.086c14.366-0.555-2.792-32.969,6.354-33.511c2.41-0.143,2.424-3.905,0-3.762
					c-7.345,0.436-6.527,9.15-5.925,14.435c0.477,4.187,1.254,8.333,1.538,12.541c0.233,3.456-0.396,8.902-4.45,4.699
					c-4.028-4.177-6.833-14.707-13.406-15.494c-3.591-0.43-4.49,7.376-4.467,9.548c0.065,6.103,3.793,11.985,2.653,18.12
					c1.048-0.276,2.096-0.553,3.144-0.83c0.485,0.602-0.089-0.73-0.169-1.08c-0.229-0.998-0.396-2.013-0.567-3.023
					c-0.543-3.204-0.996-6.424-1.496-9.635c-1.156-7.42-2.405-14.894-4.662-22.071c-1.281-4.073-3.382-10.369-8.178-11.443
					c-5.95-1.333-10.086,7.187-12.151,11.236C1480.564,68.462,1483.81,70.365,1484.912,68.204L1484.912,68.204z"/>
			</g>
		</g>
		<g>
			<g>
				<path fill="#1D1B3A" d="M1541.239,58.473c1.349-1.349,2.698-2.697,4.047-4.046c1.118-1.119,0.341-3.292-1.33-3.211
					c-10.4,0.503-13.879,12.511-12.775,21.243c0.627,4.956,2.871,8.108,6.529,11.273c3.666,3.171,5.702,7.618,6.295,12.361
					c0.559,4.467-4.691,11.469-8.831,6.229c-1.503-1.902-4.146,0.779-2.66,2.66c3.623,4.585,9.291,3.599,12.695-0.822
					c4.298-5.581,2.526-12.639-0.822-18.309c-1.79-3.03-4.641-4.885-6.969-7.388c-2.117-2.276-2.603-5.978-2.714-8.925
					c-0.22-5.812,2.343-14.228,9.251-14.562c-0.443-1.07-0.887-2.141-1.33-3.211c-1.348,1.35-2.697,2.698-4.047,4.046
					C1536.862,57.528,1539.521,60.188,1541.239,58.473L1541.239,58.473z"/>
			</g>
		</g>
		<g>
			<g>
				<path fill="#1D1B3A" d="M1426.805,146.123c-0.004,0.139,0.001,0.277,0.017,0.415c0.071,0.797,0.516,1.64,1.381,1.813
					c0.006,0.002,0.013,0.003,0.019,0.004c0.957,0.193,2.09-0.261,2.313-1.313c0.649-3.06,0.51-6.436,0.606-9.542
					c0.09-2.911,0.889-7.912-0.831-10.528c-0.84-1.276-3.067-1.235-3.438,0.449c-1.948,8.863-0.154,19.447,0.989,28.292
					c0.8,6.19,1.45,19.621,8.415,22.558c1.324,0.559,2.731-1.062,2.313-2.313c-0.674-2.022-1.348-4.045-2.02-6.068
					c-0.761-2.29-4.395-1.309-3.627,1c0.672,2.023,1.346,4.046,2.02,6.068c0.771-0.771,1.542-1.542,2.313-2.313
					c-2.357-0.994-3.22-6.446-3.752-8.538c-1.22-4.802-1.874-9.758-2.411-14.675c-0.783-7.166-2.186-15.857-0.613-23.01
					c-1.146,0.149-2.292,0.3-3.438,0.449c1.209,1.838,0.369,6.539,0.317,8.63c-0.065,2.615-0.027,6.452-0.471,8.542
					c0.771-0.438,1.542-0.876,2.313-1.313c-0.006-0.001-0.013-0.002-0.019-0.004c0.46,0.604,0.92,1.209,1.38,1.813
					c-0.016-0.138-0.021-0.276-0.016-0.415C1430.529,143.7,1426.768,143.696,1426.805,146.123L1426.805,146.123z"/>
			</g>
		</g>
		<g>
			<g>
				<path fill="#1D1B3A" d="M1408.065,145.048c3.423-6.21,12.967-10.148,19.03-12.988c4.267-1.999,8.724-3.632,13.306-4.74
					c2.682-0.648,7.288-1.721,9.728,0.208c2.127,1.681,0.817,7.742,0.736,10.043c-0.184,5.252-0.328,10.504-0.207,15.759
					c0.104,4.511-0.345,16.483,6.34,16.921c2.423,0.158,2.408-3.604,0-3.762c-4.373-0.286-2.479-25.804-2.372-28.918
					c0.21-6.087,1.432-13.717-6.572-14.644c-8.366-0.969-17.378,3.237-24.708,6.764c-6.172,2.97-15.043,7.135-18.529,13.459
					C1403.646,145.275,1406.895,147.172,1408.065,145.048L1408.065,145.048z"/>
			</g>
		</g>
		<g>
			<g>
				<path fill="#1D1B3A" d="M1464.585,126.107c-3.4,0.877-2.199,9.761-2.147,12.07c0.175,7.915,0.951,15.916,2.638,23.657
					c1.057,4.852,2.76,12.233,8.075,14.136c6.505,2.33,11.697-8.621,13.782-12.721c1.097-2.157-2.148-4.061-3.248-1.898
					c-1.17,2.301-5.94,13.065-10.016,10.753c-3.727-2.114-4.672-9.685-5.403-13.369c-1.255-6.328-1.791-12.814-2.029-19.254
					c-0.091-2.466-0.108-4.937-0.009-7.402c0.031-0.778,0.089-1.556,0.173-2.331c0.161-1.484,0.544-0.364-0.817-0.014
					C1467.933,129.129,1466.936,125.501,1464.585,126.107L1464.585,126.107z"/>
			</g>
		</g>
		<g>
			<g>
				<path fill="#1D1B3A" d="M1485.708,126.849c3.681,5.997,3.399,13.688,3.146,20.474c-0.263,7.027-1.306,14.013-1.382,21.047
					c1.254,0,2.508,0,3.762,0c0-1.349,0-2.697,0-4.046c0-2.426-3.762-2.426-3.762,0c0,1.349,0,2.697,0,4.046
					c0,2.427,3.735,2.424,3.762,0c0.147-13.636,5.364-30.968-2.277-43.419C1487.69,122.887,1484.436,124.775,1485.708,126.849
					L1485.708,126.849z"/>
			</g>
		</g>
		<g>
			<g>
				<path fill="#1D1B3A" d="M1485.809,125.69c5.508-1.525,13.881-3.799,18.896,0.31c3.658,2.995,2.855,8.638,1.781,12.628
					c-2.11,7.836-9.707,21.497-19.154,21.792c0.627,0.627,1.254,1.254,1.881,1.881c0.373-6.186,12.162-12.163,17.143-7.941
					c4.846,4.106-2.123,12.716-4.848,15.811c-1.818,2.065-3.837,3.958-5.803,5.88c-0.899,0.88-1.595,1.32-2.812,1.644
					c0.442-0.117-2.421,0.34-2.21,0.094c1.566-1.833-1.082-4.507-2.66-2.66c-4.859,5.686,3.548,7.833,7.921,5.492
					c3.89-2.082,7.347-6.664,10.12-10.008c3.146-3.795,5.573-8.297,5.352-13.338c-0.647-14.767-25.27-6.491-25.964,5.027
					c-0.06,1.001,0.901,1.911,1.881,1.881c11.871-0.37,20.675-15.859,23.125-25.892c1.256-5.146,1.012-11.131-3.092-14.95
					c-5.824-5.42-15.828-3.14-22.556-1.276C1482.475,122.71,1483.467,126.339,1485.809,125.69L1485.809,125.69z"/>
			</g>
		</g>
		<g>
			<g>
				<path fill="#1D1B3A" d="M1516.041,128.993c-5.617,9.176-4.272,23.154-1.338,32.988c1.262,4.229,6.2,13.618,11.5,8.039
					c4.737-4.988,5.114-14.875,5.925-21.257c0.875-6.877,1.528-13.902,1.575-20.843c0.016-2.427-3.746-2.425-3.762,0
					c-0.076,11.386-1.013,23.584-4.197,34.532c-0.421,1.447-1.22,4.857-2.875,5.48c-1.952,0.736-4.218-5.99-4.54-6.952
					c-2.882-8.626-3.995-21.997,0.959-30.09C1520.559,128.816,1517.305,126.929,1516.041,128.993L1516.041,128.993z"/>
			</g>
		</g>
		<g>
			<g>
				<path fill="#1D1B3A" d="M1538.285,122.805c9.647,13.607,5.915,32,5.813,47.584c1.231-0.167,2.463-0.333,3.694-0.5
					c-0.506-1.973-1.229-3.297-2.507-4.874c-1.528-1.885-4.172,0.794-2.66,2.66c0.514,1.071,1.027,2.143,1.54,3.214
					c0.533,2.079,3.681,1.61,3.694-0.5c0.105-16.284,3.763-35.25-6.327-49.482C1540.143,118.945,1536.879,120.821,1538.285,122.805
					L1538.285,122.805z"/>
			</g>
		</g>
		<g>
			<g>
				<path fill="#1D1B3A" d="M1545.286,127.229c6.377-5.957,14.073-6.339,20.579-0.415c6.118,5.57,7.552,13.89,5.083,21.47
					c-4.618,14.177-20.013,22.813-33.56,26.359c-2.345,0.613-1.349,4.242,1,3.627c17.399-4.554,35.149-16.617,37.714-35.691
					c1.086-8.074-4.614-16.658-10.893-21.075c-7.481-5.264-16.375-2.734-22.584,3.065
					C1540.85,126.229,1543.516,128.883,1545.286,127.229L1545.286,127.229z"/>
			</g>
		</g>
		<g>
			<g>
				<path fill="#1D1B3A" d="M1433.425,238.454c1.571,1.726,1.468,4.571,1.469,6.757c0.002,2.426,3.763,2.426,3.762,0
					c-0.002-3.304-0.24-6.856-2.571-9.417C1434.449,233.997,1431.797,236.665,1433.425,238.454L1433.425,238.454z"/>
			</g>
		</g>
		<g>
			<g>
				<path fill="#1D1B3A" d="M1436.775,247.379c-13.105-0.464,4.181-33.187,7.123-38.061c3.11-5.153,9.534-11.942,16.213-9.97
					c6.359,1.879,6.566,13.836,6.655,18.889c0.414,23.447-15.922,40.228-25.293,60.357c-2.378,5.107-8.108,15.927-2.08,20.383
					c4.623,3.417,13.206,1.812,18.362,1.108c7.428-1.015,14.729-2.672,21.987-4.523c2.349-0.599,1.352-4.227-1-3.627
					c-5.366,1.368-10.75,2.626-16.201,3.616c-5.9,1.072-15.675,3.516-21.25,0.178c-2.676-1.603,1.616-10.827,2.434-12.926
					c2.54-6.519,6.344-12.561,9.992-18.499c6.192-10.081,12.927-20.33,15.509-32.05c2.162-9.81,4.006-30.582-7.091-36.116
					c-5.792-2.889-13.327,1.629-17.384,5.596c-4.319,4.224-7.094,10.725-9.601,16.092c-3.427,7.336-14.45,32.745,1.625,33.314
					C1439.202,251.227,1439.194,247.465,1436.775,247.379L1436.775,247.379z"/>
			</g>
		</g>
		<g>
			<g>
				<path fill="#1D1B3A" d="M1494.73,223.661c-7.816-6.969-17.53,14.01-19.547,18.439c-6.19,13.591-10.751,31.087-4.562,45.444
					c3.013,6.989,10.111,12.393,17.642,13.298c7.81,0.938,13.366-6.334,16.165-12.599c3.72-8.327,4.608-17.912,2.07-26.669
					c-1.681-5.801-4.897-11.041-6.784-16.77c-1.118-3.394-1.77-6.968-2.671-10.423c-0.879-3.368-1.688-7.975-4.259-10.548
					c-2.352-2.354-4.496,0.617-5.245,2.676c-0.832,2.285,2.805,3.261,3.627,1c0.625-0.863,0.364-1.116-0.786-0.757
					c0.392,0.52,0.669,1.197,0.915,1.788c0.545,1.313,0.943,2.692,1.349,4.053c0.984,3.298,1.749,6.661,2.578,9.999
					c2.335,9.402,8.346,17.553,9.007,27.395c0.498,7.414-1.868,15.666-6.04,21.763c-5.584,8.161-14.88,5.474-20.867-0.76
					c-9.778-10.183-5.635-28.308-1.64-40.037c0.721-2.117,12.186-28.38,16.388-24.633
					C1493.875,227.93,1496.544,225.279,1494.73,223.661L1494.73,223.661z"/>
			</g>
		</g>
		<g>
			<g>
				<path fill="#1D1B3A" d="M1533.845,206.931c-12.491-1.253-21.015,14.753-19.725,25.545c0.967,8.091,14.171,16.777,20.236,8.579
					c2.387-3.228,1.857-8.375,1.379-12.064c-0.726-5.607-2.347-11.083-4.263-16.389c-1.326-3.67-2.747-7.722-5.048-10.916
					c-1.558-2.163-4.465-1.976-4.572,1.061c-0.086,2.427,3.676,2.418,3.762,0c-0.041,1.15-3.054-0.195-1.9,1.641
					c0.581,0.925,1.057,1.92,1.529,2.903c1.427,2.973,2.564,6.087,3.613,9.211c2.109,6.285,4.717,14.24,3.042,20.898
					c-0.709,2.819-2.908,3.271-5.484,2.68c-5.08-1.165-8.342-3.916-8.686-9.297c-0.54-8.461,6.47-21.059,16.118-20.09
					C1536.258,210.935,1536.234,207.171,1533.845,206.931L1533.845,206.931z"/>
			</g>
		</g>
		<g>
			<g>
				<path fill="#1D1B3A" d="M1548.398,207.862c-2.613,5.818-2.033,12.518-0.476,18.554c0.762,2.953,3.263,10.311,7.7,8.442
					c5.667-2.385,4.512-13.303,3.687-17.873c-1.06-5.875-4.586-13.536-11.309-14.099c-2.418-0.202-2.399,3.561,0,3.762
					c4.422,0.37,6.427,6.554,7.393,10.064c0.661,2.399,0.811,4.867,0.785,7.34c-0.004,0.374-1.238,7.529-1.667,7.348
					c-2.439-1.037-3.217-6.819-3.646-9.012c-0.788-4.03-0.933-8.812,0.781-12.628
					C1552.631,207.567,1549.391,205.652,1548.398,207.862L1548.398,207.862z"/>
			</g>
		</g>
		<g>
			<g>
				<path fill="#1D1B3A" d="M1515.689,259.456c17.507-2.222,35.561,0.094,53.034-2.317c2.394-0.33,1.371-3.954-1-3.627
					c-15.787,2.179-35.131,0.038-52.034,2.183C1513.317,255.995,1513.288,259.761,1515.689,259.456L1515.689,259.456z"/>
			</g>
		</g>
	</g>
	<g>
		<path fill="#CACBD5" d="M1488.531,349.269c2.293,13.757-3.438,128.388-1.146,131.826"/>
		<g>
			<path fill="#1D1B3A" d="M1486.718,349.769c1.324,8.448,0.51,17.579,0.389,26.083c-0.213,14.937-0.657,29.869-1.074,44.801
				c-0.385,13.769-0.802,27.539-1.009,41.312c-0.069,4.602-0.124,9.207-0.018,13.808c0.043,1.897-0.2,4.539,0.755,6.272
				c1.17,2.125,4.419,0.228,3.248-1.898c0.217,0.395-0.068-0.743-0.11-1.301c-0.113-1.503-0.135-3.013-0.16-4.52
				c-0.082-4.916,0.002-9.836,0.083-14.751c0.233-14.045,0.669-28.086,1.061-42.127c0.403-14.45,0.814-28.902,1.009-43.357
				c0.112-8.31,0.745-17.069-0.548-25.321C1489.97,346.378,1486.346,347.396,1486.718,349.769L1486.718,349.769z"/>
		</g>
	</g>
	<g>
		<g>
			<path fill="#1D1B3A" d="M1452.554,464.373c-9.572,1.659-19.358,1.87-28.814,4.234c-4.071,1.019-12.802,4.141-11.434,9.97
				c0.588,2.505,4.279,3.525,6.34,4.173c4.792,1.506,9.862,2.229,14.822,2.929c14.93,2.104,30.057,2.965,45.122,3.32
				c14.874,0.351,29.898,0.19,44.664-1.805c5.686-0.769,14.829-1.601,18.718-6.561c5.117-6.524-5.977-9.55-10.309-10.452
				c-14.073-2.934-28.938-2.923-43.248-3.11c-15.226-0.199-30.463,0.095-45.678,0.673c-2.417,0.092-2.427,3.854,0,3.762
				c18.891-0.718,37.82-1.01,56.719-0.438c9.065,0.275,18.188,0.717,27.169,2.035c1.882,0.276,12.59,1.352,12.829,4.26
				c0.195,2.37-5.616,3.781-7.11,4.215c-5.617,1.629-11.536,2.26-17.341,2.78c-15.692,1.405-31.562,1.204-47.285,0.511
				c-15.334-0.675-31.334-1.403-46.27-5.237c-1.696-0.435-3.436-0.922-4.971-1.783c-0.343-0.192-0.727-0.759-0.542-0.271
				c-0.338-0.894,2.574-2.941,3.699-3.544c5.147-2.759,11.875-3.258,17.555-3.963c5.457-0.679,10.946-1.13,16.367-2.07
				C1455.94,467.586,1454.925,463.962,1452.554,464.373L1452.554,464.373z"/>
		</g>
	</g>
	<g>
		<g>
			<path fill="#1D1B3A" d="M1418.199,481.649c0.708,6.015,1.415,12.028,2.123,18.043c0.309,2.626,0.82,4.117,3.35,5.367
				c9.104,4.499,21.168,4.806,31.063,5.76c16.018,1.544,32.162,2.119,48.25,1.857c12.672-0.206,26.243-0.438,38.465-4.185
				c3.305-1.014,8.247-2.886,8.853-6.856c0.445-2.92-0.283-6.341-0.459-9.271c-0.214-3.572-0.429-7.144-0.643-10.716
				c-0.145-2.41-3.907-2.424-3.762,0c0.361,6.015,0.722,12.028,1.083,18.043c0.163,2.72-2.201,3.814-5.094,4.849
				c-11.943,4.27-25.936,4.138-38.443,4.374c-16.088,0.304-32.23-0.354-48.25-1.857c-6.485-0.608-12.965-1.389-19.369-2.589
				c-3.548-0.665-7.689-1.279-10.814-3.218c-0.646-0.401-0.309-0.194-0.307-0.179c-0.23-1.958-0.46-3.916-0.691-5.875
				c-0.531-4.516-1.062-9.032-1.593-13.548C1421.681,479.271,1417.917,479.243,1418.199,481.649L1418.199,481.649z"/>
		</g>
	</g>
</g>
</svg>
