<?xml version="1.0" encoding="utf-8"?>
<!-- Generator: Adobe Illustrator 16.0.4, SVG Export Plug-In . SVG Version: 6.00 Build 0)  -->
<!DOCTYPE svg PUBLIC "-//W3C//DTD SVG 1.1//EN" "http://www.w3.org/Graphics/SVG/1.1/DTD/svg11.dtd">
<svg version="1.1" id="Layer_1" xmlns="http://www.w3.org/2000/svg" xmlns:xlink="http://www.w3.org/1999/xlink" x="0px" y="0px"
	 width="1365.704px" height="646.712px" viewBox="0 0 1365.704 646.712" enable-background="new 0 0 1365.704 646.712"
	 xml:space="preserve">
<path fill="#AC3236" d="M603.408,275.6c0,0-65.8-10.184-89.3,17.232c0,0-28.983,26.635-8.617,60.316
	c0,0-19.583,50.918-21.149,79.117c0,0,16.45,68.934,115.149,27.416c64.849-27.277,14.884-148.049,14.884-148.049l-3.802-27.57
	L603.408,275.6z"/>
<polygon fill="#58B7E1" points="894.826,156.791 892.576,224.326 884.321,224.326 885.072,280.605 881.32,280.605 882.07,297.115 
	876.817,298.615 878.318,288.861 873.816,287.359 877.567,258.845 872.314,245.337 867.812,258.845 867.812,286.609 
	864.061,288.109 864.061,306.869 858.058,311.371 861.81,315.125 860.309,424.681 939.851,430.685 951.857,312.123 943.603,311.371 
	945.854,290.361 939.851,285.107 942.102,261.845 938.35,246.087 935.349,258.093 930.846,294.863 926.344,294.113 924.843,303.869 
	921.091,305.369 927.844,225.827 920.34,223.576 923.342,155.29 914.338,190.559 909.835,190.559 909.084,150.788 901.58,190.559 
	897.078,191.309 "/>
<polygon fill="#58B7E1" points="1035.149,162.043 1033.649,234.831 1025.395,234.831 1026.146,291.111 1022.394,291.111 
	1023.144,307.619 1017.891,309.121 1019.393,299.365 1014.89,297.865 1015.64,268.599 1013.389,255.841 1008.887,269.349 
	1008.887,297.115 1005.135,298.615 1005.135,317.375 999.131,321.876 1002.884,325.628 1001.383,435.185 1080.924,441.189 
	1092.931,322.626 1084.676,321.876 1086.928,300.867 1080.924,295.613 1083.176,272.351 1079.424,256.593 1076.422,268.599 
	1071.919,305.369 1067.417,304.619 1065.916,314.373 1062.164,315.875 1068.918,236.332 1061.414,234.081 1063.664,160.542 
	1055.411,201.063 1050.908,201.063 1049.407,156.04 1042.654,201.063 1038.152,201.813 "/>
<path fill="#58B7E1" d="M942.102,385.662c2.251,0,13.507-0.752,13.507-0.752l-1.501,18.762l6.754,0.75c0,0-0.752-19.512,1.5-18.76
	c2.252,0.75,13.508,1.5,13.508,1.5l0.75,18.01l8.254-0.75v-18.01l12.007,2.25l1.501,17.26l11.256,0.75l-0.75,29.266l-85.545-6.754
	L942.102,385.662z"/>
<path fill="#3092CB" d="M843.16,280.022l-0.75-33.768c0,0,1.501-15.758,4.502-9.005c0,0,2.252,5.253,2.252,9.005l-0.751,33.768
	H843.16z"/>
<path fill="#3092CB" d="M860.42,278.52l3.001-34.517c0,0,1.501-9.755,3.752-7.504s-1.501,43.523-1.501,43.523L860.42,278.52z"/>
<path fill="#3092CB" d="M984.234,288.276l0.75-36.019c0,0-1.501-7.503,3.752-6.003s2.252,40.522,1.501,42.022
	C989.487,289.776,984.234,288.276,984.234,288.276z"/>
<path fill="#3092CB" d="M999.992,289.776l2.252-37.519c0,0,2.25-9.004,5.252-5.253c3.002,3.752-2.251,42.772-2.251,42.772H999.992z"
	/>
<ellipse fill="#58B7E1" cx="894.826" cy="166.546" rx="4.502" ry="1.501"/>
<ellipse fill="#58B7E1" cx="895.577" cy="176.302" rx="3.001" ry="2.251"/>
<ellipse fill="#58B7E1" cx="909.084" cy="160.918" rx="4.502" ry="1.876"/>
<ellipse fill="#58B7E1" cx="909.459" cy="171.048" rx="4.877" ry="2.252"/>
<ellipse fill="#58B7E1" cx="923.342" cy="164.295" rx="3.002" ry="2.251"/>
<ellipse fill="#58B7E1" cx="921.466" cy="175.176" rx="4.878" ry="1.876"/>
<ellipse fill="#58B7E1" cx="1035.901" cy="172.174" rx="5.252" ry="1.876"/>
<ellipse fill="#58B7E1" cx="1034.775" cy="183.431" rx="4.127" ry="1.875"/>
<ellipse fill="#58B7E1" cx="1050.533" cy="167.672" rx="5.628" ry="2.626"/>
<ellipse fill="#58B7E1" cx="1048.282" cy="180.428" rx="5.628" ry="1.876"/>
<ellipse fill="#58B7E1" cx="1062.915" cy="174.426" rx="5.253" ry="2.626"/>
<ellipse fill="#58B7E1" cx="1061.039" cy="187.557" rx="6.378" ry="2.251"/>
<path fill="#3092CB" d="M846.912,224.492c0,0-1.5-24.012,3.002-22.512c4.502,1.501,1.501,24.013,1.501,24.013L846.912,224.492z"/>
<path fill="#3092CB" d="M860.42,225.243c0,0-3.002-22.512,1.5-23.263c4.502-0.75,3.002,24.013,3.002,24.013L860.42,225.243z"/>
<path fill="#3092CB" d="M987.986,234.998c0,0-2.251-24.764,1.501-24.013c3.751,0.751,2.251,24.763,2.251,24.763L987.986,234.998z"/>
<path fill="#3092CB" d="M1001.493,235.748c0,0-4.502-19.51,0-21.761c4.503-2.251,3.752,21.761,3.752,21.761H1001.493z"/>
<path fill="#58B7E1" d="M787.065,469.111c0,0,2.372-29.652,2.372-27.873s5.338-1.186,5.338-1.186l0.593,6.523h4.745
	c0,0-2.373-7.117-0.594-7.117s9.488-1.186,9.488-1.186l-1.187,7.711l5.931-2.373v-5.338l3.559-1.779l3.559,7.117l4.744-1.186v-6.523
	l8.895-0.594l-0.593,6.523l4.745-0.594l0.592-5.93c0,0,4.745-3.559,4.745-1.779s1.186,8.303,1.186,8.303l4.744-1.186
	c0,0-0.593-8.896,1.187-7.711c1.779,1.188,8.303-0.592,8.303-0.592l-1.779,7.115h6.523l0.593,23.723L787.065,469.111z"/>
<path fill="#58B7E1" d="M717.031,416.773c7.965,3.186,148.096-21.156,148.096-21.156l173.483,19.746l46.545,7.051l95.909,26.799
	l9.873,53.596l-474.958,19.865C715.979,522.673,709.979,413.953,717.031,416.773z"/>
<polygon fill="#58B7E1" points="739.271,395.906 744.016,343.527 746.837,397.123 "/>
<polygon fill="#58B7E1" points="770.301,381.931 775.046,329.552 777.867,383.148 "/>
<polygon fill="#58B7E1" points="795.16,378.949 799.905,326.57 802.727,380.167 "/>
<polygon fill="#58B7E1" points="826.943,374.716 831.688,322.337 834.51,375.935 "/>
<polygon fill="#58B7E1" points="739.854,398.988 737.098,420.349 746.056,421.039 744.678,398.988 "/>
<polyline fill="#58B7E1" points="769.611,385.376 768.795,416.904 777.753,412.769 777.178,386.593 767.417,385.894 "/>
<polygon fill="#58B7E1" points="795.16,381.707 794.98,408.634 802.561,410.013 802.727,382.923 "/>
<polygon fill="#58B7E1" points="827.548,376.193 827.368,403.123 834.948,404.501 835.114,377.412 "/>
<path fill="#58B7E1" d="M718.492,414.837c0.2,7.447-2.067,8.268-2.067,8.268l144.019-19.293l-3.445-3.445v-8.959l-7.58,1.379v6.891
	l-4.135,0.689l-1.378-5.514l-3.445,1.379l-1.378,5.512l-4.134,2.758l-7.58-1.379l-4.824,0.689l0.689-6.203l-4.824,1.379
	l-2.067,6.891l-2.756,0.689l-1.378-6.891l-4.135,1.377l-1.378,7.58l-15.16,2.068v-8.27l-4.823,1.379v6.201h-4.135V404.5
	l-3.445,2.068l-1.379,6.201l-13.092,1.379l0.688-6.891l-4.823,0.688l-1.378,6.203l-4.135,2.066l-0.689-6.201l-5.513,1.377
	l-0.688,6.203h-8.27l-7.58,1.377l1.379-6.201l-3.446,0.689l-1.378,5.512l-4.823,0.689l-0.689-6.891L718.492,414.837z"/>
<polygon fill="#58B7E1" points="1191.813,413.638 1189.557,361.093 1184.198,414.496 "/>
<polygon fill="#58B7E1" points="1161.48,398.208 1159.223,345.664 1153.864,399.066 "/>
<polygon fill="#58B7E1" points="1136.79,394.052 1134.532,341.507 1129.175,394.91 "/>
<polygon fill="#58B7E1" points="1105.243,388.318 1102.984,335.773 1097.628,389.177 "/>
<polygon fill="#58B7E1" points="1191.086,416.687 1192.826,438.158 1183.846,438.421 1186.267,416.458 "/>
<polyline fill="#58B7E1" points="1162.006,401.683 1161.328,433.212 1152.575,428.66 1154.391,402.541 1164.173,402.304 "/>
<polygon fill="#58B7E1" points="1136.659,396.806 1135.563,423.712 1127.927,424.73 1129.044,397.664 "/>
<polygon fill="#58B7E1" points="1104.57,389.765 1103.473,416.671 1095.836,417.691 1096.954,390.623 "/>
<path fill="#58B7E1" d="M1211.672,433.533c-0.553,7.43-9.025,104.141-9.025,104.141l-142.368-38.08l13.729-87.078l0.425-8.949
	l7.507,1.736l-0.327,6.883l4.098,0.887l1.637-5.443l3.377,1.541l1.115,5.57l3.998,2.951l7.637-1.02l4.787,0.918l-0.395-6.229
	l4.753,1.605l1.739,6.98l2.72,0.818l1.702-6.816l4.065,1.572l1.018,7.637l15.045,2.783l0.392-8.26l4.753,1.605l-0.294,6.193
	l4.13,0.197l0.261-5.506l3.344,2.227l1.083,6.262l13.012,1.996l-0.36-6.914l4.785,0.916l1.082,6.26l4.032,2.26l0.982-6.162
	l5.441,1.639l0.394,6.227l8.261,0.393l7.506,1.734l-1.083-6.26l3.41,0.852l1.114,5.572l4.786,0.916l1.015-6.85L1211.672,433.533z"/>
<path fill="#58B7E1" d="M317.256,646.712c0,0,211.49-170.99,677.967-146.992c0,0,314.984,3,370.481,146.992H317.256z"/>
<path fill="#1F2121" d="M535.577,521.051c-5.711-2.373,3-163.492,37.498-224.988l37.498-12l13.499,31.498l10.5-28.498l32.998,15
	c0,0,20.999,142.492,19.499,224.988C687.069,527.051,651.072,569.049,535.577,521.051z"/>
<path fill="#1F2121" d="M636.109,456.553c0,0-37.23,9.549-51.059,1.936l19.721,104.139c0,0-39.675,1.084-31.899,8.113
	c7.775,7.025,36.994-3.893,36.994-3.893s-7.935-83.359,0-83.359c14.69,0,5.371,83.152,5.371,83.152s39.068,14.053,40.299,6.439
	c1.229-7.611-33.514-11.125-33.514-11.125L636.109,456.553z"/>
<path fill="#2A2928" d="M667.57,302.063c0,0,58.498-13.5,83.996-85.497l5.999,10.5c0,0-23.998,71.995-88.495,100.495"/>
<path fill="#FFFFFF" d="M645.071,207.567c0,0,12.831,12.696,10.372,28.271c0,0,34.429,4.098-4.099,39.346
	c0,0,0.82,14.756-13.115,17.215c0,0-4.1,4.918-28.691-11.477c0,0-47.544-18.854-22.952-44.265c0,0-7.059-27.842,31.149-34.429
	C641.508,198.13,645.071,207.567,645.071,207.567z"/>
<path fill="#2A2928" d="M592.574,213.566l-1.5-25.498c0,0-16.499,8.999-49.498,5.999l80.996-29.998l70.496,13.499l-52.497,9
	l4.5,20.999C645.071,207.567,621.073,200.066,592.574,213.566z"/>
<g>
	
		<rect x="726.402" y="193.796" transform="matrix(0.3141 0.9494 -0.9494 0.3141 711.7193 -591.5654)" fill="#FEF2B7" width="77.74" height="5.981"/>
	
		<rect x="746.501" y="188.572" transform="matrix(0.3141 0.9494 -0.9494 0.3141 720.5319 -614.2292)" fill="#FEF2B7" width="77.74" height="5.98"/>
	
		<rect x="765.933" y="181.067" transform="matrix(0.3141 0.9494 -0.9494 0.3141 726.7223 -637.8235)" fill="#FEF2B7" width="77.739" height="5.98"/>
	<circle fill="#FEF2B7" cx="754.34" cy="99.238" r="15.283"/>
	
		<rect x="758.128" y="123.266" transform="matrix(0.9493 -0.3142 0.3142 0.9493 -4.3923 248.191)" fill="#FEF2B7" width="18.935" height="28.905"/>
	
		<rect x="757.636" y="107.783" transform="matrix(0.9494 -0.3142 0.3142 0.9494 1.8883 244.889)" fill="#FEF2B7" width="5.936" height="17.608"/>
	
		<rect x="764.401" y="223" transform="matrix(0.9494 -0.3141 0.3141 0.9494 -31.8419 262.3466)" fill="#FEF2B7" width="67.441" height="13.953"/>
	
		<rect x="740.25" y="149.923" transform="matrix(0.9494 -0.3141 0.3141 0.9494 -8.9083 250.5378)" fill="#FEF2B7" width="65.447" height="5.978"/>
	<g>
		<path fill="#FEF2B7" stroke="#FFFFFF" stroke-width="1.6021" stroke-miterlimit="10" d="M760.847,108.031
			c-4.881,3.444-11.925,2.196-15.727-2.786c-3.808-4.979-2.937-11.811,1.945-15.25c4.879-3.441,11.927-2.197,15.731,2.786
			C766.599,97.761,765.727,104.591,760.847,108.031z"/>
		
			<path fill="#FEF2B7" stroke="#FFFFFF" stroke-width="1.6021" stroke-linecap="round" stroke-linejoin="round" stroke-miterlimit="10" d="
			M751.321,91.622c-0.225-0.126,6.112,4.796,6.112,4.796l-4.455-0.784l4.174,8.936l-2.941,1.29l-5.429-13.442
			C748.782,92.417,751.547,91.749,751.321,91.622z"/>
	</g>
</g>
<path fill="#FFFFFF" d="M514.108,447.932"/>
<path fill="#1F2121" d="M573.075,296.063c0,0-54.267,57.871-48,89.203c0,0,7.05,21.934,72.85-21.934l-2.351-9.398l-60.316,26.633
	l32.9-51.701L573.075,296.063z"/>
<path fill="#FFFFFF" d="M584.608,360.2l4.699,10.184l9.4-3.916c0,0,21.15,6.268,16.45-18.801c0,0-5.482-14.1-12.533-10.967
	s-12.533,2.35-11.75,13.316C590.875,350.016,593.226,355.5,584.608,360.2z"/>
<path fill="#FFFFFF" d="M591.658,359.417c0,0-12.533-10.967,7.05-28.199l4.7-3.918c0,0,9.399-1.566-2.351,16.451"/>
<polygon fill="#AC3236" points="572.858,293.618 596.358,339.833 602.625,336.7 588.524,287.35 "/>
<polygon fill="#AC3236" points="598.708,366.467 539.175,418.95 537.608,434.616 605.758,368.817 "/>
<path fill="none" stroke="#2C2E2E" stroke-width="1.1559" stroke-miterlimit="10" d="M602.625,233.3c0,0,11.75-3.133,18.8,1.567"/>
<path fill="none" stroke="#2C2E2E" stroke-width="1.1559" stroke-miterlimit="10" d="M638.658,235.65c0,0,6.266-7.834,15.666-3.917"
	/>
<path fill="none" stroke="#2C2E2E" stroke-width="1.1559" stroke-miterlimit="10" d="M633.175,232.517l6.267,8.617
	c0,0,16.45-4.701,16.45,3.916c0,0-4.7,10.968-22.717,7.834"/>
<path fill="none" stroke="#202222" stroke-width="0.8382" stroke-miterlimit="10" d="M602.625,256.8c0,0,14.883,6.267,27.416,5.484
	c0,0,10.184-4.699,22.717-3.916l-5.483,11.75l-6.267,0.783C641.008,270.901,614.375,284.215,602.625,256.8z"/>
<path fill="#FFFFFF" d="M586.586,236.657c0,0-7.462-12.758-10.595-9.624s-7.051,18.018,7.05,26.634"/>
<path fill="#EF7E02" d="M619.858,205.101c0,0-21.15,9.398-25.851,28.199l-0.783-11.749l-7.833,9.399
	C585.392,230.95,575.992,206.667,619.858,205.101z"/>
<path fill="none" stroke="#202222" stroke-width="0.8382" stroke-miterlimit="10" d="M608.892,262.284
	c0,0,10.183,10.184,24.283,6.266c0,0,12.532-2.35,14.883-2.35"/>
<path fill="#FFFFFF" d="M757.563,212.8c0,0-16.727-12.585-10.218-23.101c6.507-10.52,17.851-12.338,17.851-12.338l6.99-4.074
	c0,0,4.046,4.483-0.844,8.779c-4.896,4.293-10.532,5.303-10.532,5.303l-0.042,6.287c0,0,17.853,9.834,15.924,14.826"/>
<g>
	<path fill="#FFFFFF" d="M763.897,187.789c-4.877,2.633-9.105,4.016-13.32,7.682c-6.824,6.059,0.134,4.775,4.887,2.71
		c3.264-1.356,17.119-4.204,18.559-8.04c1.452-4.572-9.092-2.625-11.036-1.865"/>
</g>
<g>
	<path fill="#FFFFFF" d="M759.265,196.816c-2.365,1.999-6.146,3.686-7.841,5.984c-3.226,5.215,5.032,4.072,7.952,2.937
		c4-1.343,13.622-5.3,15.859-9.403c1.475-2.636-0.247-4.943-3.196-5.004"/>
</g>
<g>
	<path fill="#FFFFFF" d="M760.502,203.314c-1.175,1.967-4.345,4.232-4.951,6.324c-1.642,5.418,8.151,1.35,10.617,0.264
		c3.782-1.688,18.368-10.033,7.921-13.079"/>
</g>
<g>
	<path fill="#FFFFFF" d="M762.408,211.958c-1.429,0.425-5.581,3.811-5.218,5.52c0.728,3.426,8.76-0.737,10.422-1.556
		c2.182-1.15,12.398-6.458,12.171-9.473c-0.08-1.648-3.521-2.851-4.933-3.166"/>
</g>
<polyline fill="#FFFFFF" points="759.863,225.506 768.534,214.295 770.69,211.41 759.376,205.737 750.765,217.54 "/>
<polygon fill="#E5222B" points="503.157,404.5 484.673,496.042 527.803,428.266 513.031,414.02 "/>
<polygon fill="#FFFFFF" points="504.917,432.667 513.031,414.02 519.881,418.584 509.318,434.428 518.12,444.11 513.72,451.151 
	506.678,444.991 496.115,479.319 484.673,496.042 489.073,476.678 501.396,441.469 496.995,435.307 498.756,427.385 "/>
<g>
</g>
<g>
</g>
<g>
</g>
<g>
</g>
<g>
</g>
<g>
</g>
</svg>
