<?xml version="1.0" encoding="utf-8"?>
<!-- Generator: Adobe Illustrator 16.0.4, SVG Export Plug-In . SVG Version: 6.00 Build 0)  -->
<!DOCTYPE svg PUBLIC "-//W3C//DTD SVG 1.1//EN" "http://www.w3.org/Graphics/SVG/1.1/DTD/svg11.dtd">
<svg version="1.1" id="Layer_1" xmlns="http://www.w3.org/2000/svg" xmlns:xlink="http://www.w3.org/1999/xlink" x="0px" y="0px"
	 width="1365.703px" height="646.711px" viewBox="0 0 1365.703 646.711" enable-background="new 0 0 1365.703 646.711"
	 xml:space="preserve">
<path fill="#AC3236" d="M603.407,275.6c0,0-65.8-10.184-89.3,17.232c0,0-28.982,26.635-8.617,60.316
	c0,0-19.583,50.918-21.148,79.116c0,0,16.45,68.936,115.148,27.416c64.85-27.275,14.885-148.048,14.885-148.048l-3.803-27.57
	L603.407,275.6z"/>
<path fill="#1F2121" d="M535.576,521.051c-5.711-2.373,3-163.492,37.498-224.988l37.498-12l13.499,31.498l10.5-28.498l32.998,15
	c0,0,20.999,142.492,19.499,224.988C687.069,527.051,651.072,569.049,535.576,521.051z"/>
<path fill="#1F2121" d="M636.109,456.553c0,0-37.229,9.549-51.059,1.936l19.721,104.139c0,0-39.675,1.084-31.899,8.113
	c7.775,7.025,36.994-3.893,36.994-3.893s-7.935-83.359,0-83.359c14.69,0,5.371,83.152,5.371,83.152s39.068,14.053,40.299,6.439
	c1.229-7.611-33.514-11.125-33.514-11.125L636.109,456.553z"/>
<path fill="#2A2928" d="M667.57,302.063c0,0,58.498-13.5,83.996-85.497l5.999,10.5c0,0-23.998,71.995-88.495,100.495"/>
<path fill="#FFFFFF" d="M645.071,207.567c0,0,12.831,12.696,10.372,28.271c0,0,34.429,4.098-4.099,39.346
	c0,0,0.819,14.756-13.115,17.215c0,0-4.1,4.918-28.691-11.477c0,0-47.544-18.854-22.951-44.265c0,0-7.06-27.842,31.148-34.429
	C641.508,198.13,645.071,207.567,645.071,207.567z"/>
<path fill="#2A2928" d="M592.573,213.566l-1.5-25.498c0,0-16.499,8.999-49.498,5.999l80.996-29.998l70.496,13.499l-52.497,9
	l4.5,20.999C645.071,207.567,621.073,200.066,592.573,213.566z"/>
<g>
	
		<rect x="726.392" y="193.804" transform="matrix(-0.3141 -0.9494 0.9494 -0.3141 818.7927 985.1398)" fill="#FEF2B7" width="77.741" height="5.98"/>
	
		<rect x="746.478" y="188.582" transform="matrix(-0.3141 -0.9494 0.9494 -0.3141 850.1459 997.3461)" fill="#FEF2B7" width="77.741" height="5.98"/>
	
		<rect x="765.897" y="181.078" transform="matrix(-0.3141 -0.9494 0.9494 -0.3141 882.7911 1005.9218)" fill="#FEF2B7" width="77.74" height="5.98"/>
	<circle fill="#FEF2B7" cx="754.34" cy="99.238" r="15.283"/>
	
		<rect x="758.09" y="123.297" transform="matrix(-0.9494 0.3142 -0.3142 -0.9494 1539.521 27.342)" fill="#FEF2B7" width="18.934" height="28.903"/>
	
		<rect x="757.669" y="107.791" transform="matrix(-0.9494 0.3142 -0.3142 -0.9494 1519.3865 -11.7098)" fill="#FEF2B7" width="5.936" height="17.609"/>
	
		<rect x="764.408" y="223.02" transform="matrix(-0.9494 0.3141 -0.3141 -0.9494 1628.108 197.6672)" fill="#FEF2B7" width="67.442" height="13.953"/>
	
		<rect x="740.259" y="149.932" transform="matrix(-0.9494 0.3141 -0.3141 -0.9494 1554.876 55.3078)" fill="#FEF2B7" width="65.447" height="5.978"/>
	<g>
		<path fill="#FEF2B7" stroke="#FFFFFF" stroke-width="1.6021" stroke-miterlimit="10" d="M760.847,108.031
			c-4.881,3.444-11.925,2.196-15.728-2.786c-3.808-4.979-2.937-11.811,1.945-15.25c4.879-3.441,11.927-2.197,15.731,2.786
			C766.599,97.761,765.727,104.591,760.847,108.031z"/>
		
			<path fill="#FEF2B7" stroke="#FFFFFF" stroke-width="1.6021" stroke-linecap="round" stroke-linejoin="round" stroke-miterlimit="10" d="
			M751.321,91.622c-0.225-0.126,6.112,4.796,6.112,4.796l-4.455-0.784l4.174,8.936l-2.94,1.29l-5.43-13.442
			C748.781,92.417,751.547,91.749,751.321,91.622z"/>
	</g>
</g>
<path fill="#FFFFFF" d="M514.108,447.932"/>
<path fill="#1F2121" d="M573.074,296.063c0,0-54.267,57.871-48,89.203c0,0,7.051,21.934,72.851-21.934l-2.352-9.398l-60.315,26.633
	l32.899-51.701L573.074,296.063z"/>
<path fill="#FFFFFF" d="M584.608,360.2l4.699,10.184l9.399-3.916c0,0,21.15,6.269,16.45-18.801c0,0-5.481-14.1-12.533-10.967
	c-7.051,3.133-12.532,2.35-11.75,13.316C590.875,350.016,593.226,355.5,584.608,360.2z"/>
<path fill="#FFFFFF" d="M591.657,359.417c0,0-12.532-10.967,7.05-28.199l4.7-3.918c0,0,9.399-1.565-2.351,16.451"/>
<polygon fill="#AC3236" points="572.858,293.618 596.358,339.833 602.625,336.7 588.524,287.35 "/>
<polygon fill="#AC3236" points="598.707,366.467 539.175,418.95 537.608,434.616 605.758,368.817 "/>
<path fill="none" stroke="#2C2E2E" stroke-width="1.1559" stroke-miterlimit="10" d="M602.625,233.3c0,0,11.75-3.133,18.8,1.567"/>
<path fill="none" stroke="#2C2E2E" stroke-width="1.1559" stroke-miterlimit="10" d="M638.657,235.65c0,0,6.267-7.834,15.666-3.917"
	/>
<path fill="none" stroke="#2C2E2E" stroke-width="1.1559" stroke-miterlimit="10" d="M633.175,232.517l6.267,8.617
	c0,0,16.45-4.701,16.45,3.916c0,0-4.7,10.968-22.717,7.834"/>
<path fill="none" stroke="#202222" stroke-width="0.8382" stroke-miterlimit="10" d="M602.625,256.8c0,0,14.883,6.267,27.416,5.484
	c0,0,10.184-4.699,22.717-3.916l-5.483,11.75l-6.267,0.783C641.008,270.901,614.375,284.215,602.625,256.8z"/>
<path fill="#FFFFFF" d="M586.586,236.657c0,0-7.463-12.758-10.596-9.624c-3.133,3.134-7.051,18.018,7.051,26.634"/>
<path fill="#EF7E02" d="M619.858,205.101c0,0-21.15,9.398-25.851,28.199l-0.783-11.749l-7.833,9.399
	C585.392,230.95,575.991,206.667,619.858,205.101z"/>
<path fill="none" stroke="#202222" stroke-width="0.8382" stroke-miterlimit="10" d="M608.892,262.284
	c0,0,10.183,10.184,24.283,6.266c0,0,12.532-2.35,14.883-2.35"/>
<path fill="#FFFFFF" d="M757.563,212.8c0,0-16.727-12.585-10.218-23.101c6.507-10.52,17.851-12.338,17.851-12.338l6.99-4.074
	c0,0,4.046,4.483-0.844,8.779c-4.896,4.293-10.532,5.303-10.532,5.303l-0.042,6.287c0,0,17.853,9.834,15.924,14.826"/>
<g>
	<path fill="#FFFFFF" d="M763.897,187.789c-4.877,2.633-9.105,4.016-13.32,7.682c-6.823,6.059,0.135,4.775,4.888,2.71
		c3.264-1.356,17.118-4.204,18.559-8.04c1.452-4.572-9.092-2.625-11.036-1.865"/>
</g>
<g>
	<path fill="#FFFFFF" d="M759.265,196.816c-2.365,1.999-6.146,3.686-7.841,5.984c-3.227,5.215,5.031,4.072,7.952,2.937
		c4-1.343,13.622-5.3,15.858-9.403c1.476-2.636-0.247-4.943-3.195-5.004"/>
</g>
<g>
	<path fill="#FFFFFF" d="M760.502,203.314c-1.176,1.967-4.346,4.232-4.951,6.324c-1.643,5.418,8.15,1.35,10.617,0.264
		c3.781-1.688,18.367-10.033,7.921-13.079"/>
</g>
<g>
	<path fill="#FFFFFF" d="M762.407,211.958c-1.429,0.425-5.581,3.811-5.218,5.52c0.729,3.426,8.76-0.737,10.422-1.556
		c2.183-1.15,12.398-6.458,12.171-9.473c-0.08-1.648-3.521-2.851-4.933-3.166"/>
</g>
<polyline fill="#FFFFFF" points="759.863,225.506 768.533,214.295 770.69,211.41 759.375,205.737 750.765,217.54 "/>
<polygon fill="#E5222B" points="503.156,404.5 484.673,496.042 527.803,428.266 513.031,414.02 "/>
<polygon fill="#FFFFFF" points="504.916,432.667 513.031,414.02 519.881,418.584 509.318,434.428 518.119,444.11 513.72,451.151 
	506.678,444.991 496.115,479.319 484.673,496.042 489.073,476.678 501.396,441.469 496.994,435.307 498.756,427.385 "/>
</svg>
