<?xml version="1.0" encoding="utf-8"?>
<!-- Generator: Adobe Illustrator 16.0.4, SVG Export Plug-In . SVG Version: 6.00 Build 0)  -->
<!DOCTYPE svg PUBLIC "-//W3C//DTD SVG 1.1//EN" "http://www.w3.org/Graphics/SVG/1.1/DTD/svg11.dtd">
<svg version="1.1" id="Layer_1" xmlns="http://www.w3.org/2000/svg" xmlns:xlink="http://www.w3.org/1999/xlink" x="0px" y="0px"
	 width="488.682px" height="700.438px" viewBox="0 0 488.682 700.438" enable-background="new 0 0 488.682 700.438"
	 xml:space="preserve">
<pattern  x="-356.438" y="-96.229" width="132.545" height="114.207" patternUnits="userSpaceOnUse" id="New_Pattern_5" viewBox="0 -114.207 132.545 114.207" overflow="visible">
	<g>
		<polygon fill="none" points="0,-114.207 132.545,-114.207 132.545,0 0,0 		"/>
		<path fill="#CBDA82" d="M42.928-107.075c0,0.866-0.701,1.567-1.567,1.567c-0.867,0-1.568-0.702-1.568-1.567
			s0.702-1.568,1.568-1.568C42.227-108.643,42.928-107.94,42.928-107.075z M42.928-99.942c0,0.866-0.701,1.567-1.567,1.567
			c-0.867,0-1.568-0.702-1.568-1.567c0-0.867,0.702-1.568,1.568-1.568C42.227-101.51,42.928-100.809,42.928-99.942z M42.928-64.282
			c0,0.866-0.701,1.567-1.567,1.567c-0.867,0-1.568-0.702-1.568-1.567c0-0.867,0.702-1.568,1.568-1.568
			C42.227-65.851,42.928-65.149,42.928-64.282z M42.928-92.811c0,0.866-0.701,1.567-1.567,1.567c-0.867,0-1.568-0.701-1.568-1.567
			c0-0.866,0.702-1.568,1.568-1.568C42.227-94.379,42.928-93.677,42.928-92.811z M42.928-71.415c0,0.866-0.701,1.568-1.567,1.568
			c-0.867,0-1.568-0.702-1.568-1.568s0.702-1.568,1.568-1.568C42.227-72.983,42.928-72.281,42.928-71.415z M42.928-85.679
			c0,0.866-0.701,1.568-1.567,1.568c-0.867,0-1.568-0.703-1.568-1.568c0-0.866,0.702-1.568,1.568-1.568
			C42.227-87.247,42.928-86.545,42.928-85.679z M42.928-78.547c0,0.867-0.701,1.569-1.567,1.569c-0.867,0-1.568-0.702-1.568-1.569
			c0-0.866,0.702-1.567,1.568-1.567C42.227-80.114,42.928-79.413,42.928-78.547z M51.2-14.359c0,0.866-0.701,1.567-1.567,1.567
			s-1.568-0.701-1.568-1.567c0-0.865,0.702-1.568,1.568-1.568S51.2-15.224,51.2-14.359z M51.2-0.095
			c0,0.032-0.002,0.063-0.004,0.095H48.07c-0.002-0.032-0.005-0.062-0.005-0.095c0-0.866,0.702-1.567,1.568-1.567
			S51.2-0.961,51.2-0.095z M51.2-50.019c0,0.866-0.701,1.567-1.567,1.567s-1.568-0.702-1.568-1.567s0.702-1.568,1.568-1.568
			S51.2-50.884,51.2-50.019z M51.2-57.15c0,0.866-0.701,1.568-1.567,1.568s-1.568-0.702-1.568-1.568s0.702-1.568,1.568-1.568
			S51.2-58.017,51.2-57.15z M51.2-42.887c0,0.866-0.701,1.568-1.567,1.568s-1.568-0.702-1.568-1.568
			c0-0.866,0.702-1.567,1.568-1.567S51.2-43.753,51.2-42.887z M51.2-64.282c0,0.866-0.701,1.567-1.567,1.567
			s-1.568-0.702-1.568-1.567c0-0.867,0.702-1.568,1.568-1.568S51.2-65.149,51.2-64.282z M51.2-28.623
			c0,0.866-0.701,1.567-1.567,1.567s-1.568-0.702-1.568-1.567c0-0.866,0.702-1.568,1.568-1.568S51.2-29.489,51.2-28.623z
			 M51.2-35.755c0,0.866-0.701,1.567-1.567,1.567s-1.568-0.701-1.568-1.567c0-0.866,0.702-1.567,1.568-1.567
			S51.2-36.621,51.2-35.755z M51.2-21.491c0,0.866-0.701,1.568-1.567,1.568s-1.568-0.702-1.568-1.568s0.702-1.567,1.568-1.567
			S51.2-22.356,51.2-21.491z M51.2-7.227c0,0.866-0.701,1.568-1.567,1.568s-1.568-0.702-1.568-1.568
			c0-0.866,0.702-1.567,1.568-1.567S51.2-8.093,51.2-7.227z M42.928-28.623c0,0.866-0.701,1.567-1.567,1.567
			c-0.867,0-1.568-0.702-1.568-1.567c0-0.866,0.702-1.568,1.568-1.568C42.227-30.19,42.928-29.489,42.928-28.623z M34.656-78.547
			c0,0.867-0.702,1.569-1.568,1.569s-1.567-0.702-1.567-1.569c0-0.866,0.702-1.567,1.567-1.567S34.656-79.413,34.656-78.547z
			 M34.656-85.679c0,0.866-0.702,1.568-1.568,1.568s-1.567-0.703-1.567-1.568c0-0.866,0.702-1.568,1.567-1.568
			S34.656-86.545,34.656-85.679z M34.656-107.075c0,0.866-0.702,1.567-1.568,1.567s-1.567-0.702-1.567-1.567
			s0.702-1.568,1.567-1.568S34.656-107.94,34.656-107.075z M34.656-99.942c0,0.866-0.702,1.567-1.568,1.567
			s-1.567-0.702-1.567-1.567c0-0.867,0.702-1.568,1.567-1.568S34.656-100.809,34.656-99.942z M42.928-57.15
			c0,0.866-0.701,1.568-1.567,1.568c-0.867,0-1.568-0.702-1.568-1.568s0.702-1.568,1.568-1.568
			C42.227-58.718,42.928-58.017,42.928-57.15z M34.656-57.15c0,0.866-0.702,1.568-1.568,1.568s-1.567-0.702-1.567-1.568
			s0.702-1.568,1.567-1.568S34.656-58.017,34.656-57.15z M34.656-71.415c0,0.866-0.702,1.568-1.568,1.568s-1.567-0.702-1.567-1.568
			s0.702-1.568,1.567-1.568S34.656-72.281,34.656-71.415z M34.656-64.282c0,0.866-0.702,1.567-1.568,1.567s-1.567-0.702-1.567-1.567
			c0-0.867,0.702-1.568,1.567-1.568S34.656-65.149,34.656-64.282z M34.656-92.811c0,0.866-0.702,1.567-1.568,1.567
			s-1.567-0.701-1.567-1.567c0-0.866,0.702-1.568,1.567-1.568S34.656-93.677,34.656-92.811z M51.2-71.415
			c0,0.866-0.701,1.568-1.567,1.568s-1.568-0.702-1.568-1.568s0.702-1.568,1.568-1.568S51.2-72.281,51.2-71.415z M42.928-35.755
			c0,0.866-0.701,1.567-1.567,1.567c-0.867,0-1.568-0.701-1.568-1.567c0-0.866,0.702-1.567,1.568-1.567
			C42.227-37.322,42.928-36.621,42.928-35.755z M67.746-107.075c0,0.866-0.703,1.567-1.568,1.567c-0.866,0-1.568-0.702-1.568-1.567
			s0.702-1.568,1.568-1.568C67.043-108.643,67.746-107.94,67.746-107.075z M42.928-50.019c0,0.866-0.701,1.567-1.567,1.567
			c-0.867,0-1.568-0.702-1.568-1.567s0.702-1.568,1.568-1.568C42.227-51.587,42.928-50.884,42.928-50.019z M42.928-0.095
			c0,0.032-0.003,0.063-0.004,0.095h-3.127c-0.002-0.032-0.004-0.062-0.004-0.095c0-0.866,0.702-1.567,1.568-1.567
			C42.227-1.662,42.928-0.961,42.928-0.095z M42.928-21.491c0,0.866-0.701,1.568-1.567,1.568c-0.867,0-1.568-0.702-1.568-1.568
			s0.702-1.567,1.568-1.567C42.227-23.058,42.928-22.356,42.928-21.491z M42.928-14.359c0,0.866-0.701,1.567-1.567,1.567
			c-0.867,0-1.568-0.701-1.568-1.567c0-0.865,0.702-1.568,1.568-1.568C42.227-15.927,42.928-15.224,42.928-14.359z M42.928-7.227
			c0,0.866-0.701,1.568-1.567,1.568c-0.867,0-1.568-0.702-1.568-1.568c0-0.866,0.702-1.567,1.568-1.567
			C42.227-8.794,42.928-8.093,42.928-7.227z M67.746-85.679c0,0.866-0.703,1.568-1.568,1.568c-0.866,0-1.568-0.703-1.568-1.568
			c0-0.866,0.702-1.568,1.568-1.568C67.043-87.247,67.746-86.545,67.746-85.679z M67.746-7.227c0,0.866-0.703,1.568-1.568,1.568
			c-0.866,0-1.568-0.702-1.568-1.568c0-0.866,0.702-1.567,1.568-1.567C67.043-8.794,67.746-8.093,67.746-7.227z M67.746-28.623
			c0,0.866-0.703,1.567-1.568,1.567c-0.866,0-1.568-0.702-1.568-1.567c0-0.866,0.702-1.568,1.568-1.568
			C67.043-30.19,67.746-29.489,67.746-28.623z M67.746-21.491c0,0.866-0.703,1.568-1.568,1.568c-0.866,0-1.568-0.702-1.568-1.568
			s0.702-1.567,1.568-1.567C67.043-23.058,67.746-22.356,67.746-21.491z M59.474-92.811c0,0.866-0.703,1.567-1.568,1.567
			s-1.568-0.701-1.568-1.567c0-0.866,0.702-1.568,1.568-1.568S59.474-93.677,59.474-92.811z M59.474-99.942
			c0,0.866-0.703,1.567-1.568,1.567s-1.568-0.702-1.568-1.567c0-0.867,0.702-1.568,1.568-1.568S59.474-100.809,59.474-99.942z
			 M59.474-107.075c0,0.866-0.703,1.567-1.568,1.567s-1.568-0.702-1.568-1.567s0.702-1.568,1.568-1.568
			S59.474-107.94,59.474-107.075z M67.746-42.887c0,0.866-0.703,1.568-1.568,1.568c-0.866,0-1.568-0.702-1.568-1.568
			c0-0.866,0.702-1.567,1.568-1.567C67.043-44.454,67.746-43.753,67.746-42.887z M67.746-0.095c0,0.032-0.003,0.063-0.005,0.095
			h-3.126c-0.002-0.032-0.005-0.062-0.005-0.095c0-0.866,0.702-1.567,1.568-1.567C67.043-1.662,67.746-0.961,67.746-0.095z
			 M67.746-14.359c0,0.866-0.703,1.567-1.568,1.567c-0.866,0-1.568-0.701-1.568-1.567c0-0.865,0.702-1.568,1.568-1.568
			C67.043-15.927,67.746-15.224,67.746-14.359z M67.746-35.755c0,0.866-0.703,1.567-1.568,1.567c-0.866,0-1.568-0.701-1.568-1.567
			c0-0.866,0.702-1.567,1.568-1.567C67.043-37.322,67.746-36.621,67.746-35.755z M67.746-92.811c0,0.866-0.703,1.567-1.568,1.567
			c-0.866,0-1.568-0.701-1.568-1.567c0-0.866,0.702-1.568,1.568-1.568C67.043-94.379,67.746-93.677,67.746-92.811z M67.746-50.019
			c0,0.866-0.703,1.567-1.568,1.567c-0.866,0-1.568-0.702-1.568-1.567s0.702-1.568,1.568-1.568
			C67.043-51.587,67.746-50.884,67.746-50.019z M34.656-50.019c0,0.866-0.702,1.567-1.568,1.567s-1.567-0.702-1.567-1.567
			s0.702-1.568,1.567-1.568S34.656-50.884,34.656-50.019z M67.746-99.942c0,0.866-0.703,1.567-1.568,1.567
			c-0.866,0-1.568-0.702-1.568-1.567c0-0.867,0.702-1.568,1.568-1.568C67.043-101.51,67.746-100.809,67.746-99.942z M67.746-78.547
			c0,0.867-0.703,1.569-1.568,1.569c-0.866,0-1.568-0.702-1.568-1.569c0-0.866,0.702-1.567,1.568-1.567
			C67.043-80.114,67.746-79.413,67.746-78.547z M67.746-71.415c0,0.866-0.703,1.568-1.568,1.568c-0.866,0-1.568-0.702-1.568-1.568
			s0.702-1.568,1.568-1.568C67.043-72.983,67.746-72.281,67.746-71.415z M67.746-57.15c0,0.866-0.703,1.568-1.568,1.568
			c-0.866,0-1.568-0.702-1.568-1.568s0.702-1.568,1.568-1.568C67.043-58.718,67.746-58.017,67.746-57.15z M67.746-64.282
			c0,0.866-0.703,1.567-1.568,1.567c-0.866,0-1.568-0.702-1.568-1.567c0-0.867,0.702-1.568,1.568-1.568
			C67.043-65.851,67.746-65.149,67.746-64.282z M59.474-0.095c0,0.032-0.004,0.063-0.006,0.095h-3.125
			c-0.002-0.032-0.005-0.062-0.005-0.095c0-0.866,0.702-1.567,1.568-1.567S59.474-0.961,59.474-0.095z M59.474-14.359
			c0,0.866-0.703,1.567-1.568,1.567s-1.568-0.701-1.568-1.567c0-0.865,0.702-1.568,1.568-1.568S59.474-15.224,59.474-14.359z
			 M51.2-107.075c0,0.866-0.701,1.567-1.567,1.567s-1.568-0.702-1.568-1.567s0.702-1.568,1.568-1.568S51.2-107.94,51.2-107.075z
			 M51.2-78.547c0,0.867-0.701,1.569-1.567,1.569s-1.568-0.702-1.568-1.569c0-0.866,0.702-1.567,1.568-1.567
			S51.2-79.413,51.2-78.547z M59.474-21.491c0,0.866-0.703,1.568-1.568,1.568s-1.568-0.702-1.568-1.568s0.702-1.567,1.568-1.567
			S59.474-22.356,59.474-21.491z M59.474-7.227c0,0.866-0.703,1.568-1.568,1.568s-1.568-0.702-1.568-1.568
			c0-0.866,0.702-1.567,1.568-1.567S59.474-8.093,59.474-7.227z M51.2-85.679c0,0.866-0.701,1.568-1.567,1.568
			s-1.568-0.703-1.568-1.568c0-0.866,0.702-1.568,1.568-1.568S51.2-86.545,51.2-85.679z M51.2-99.942
			c0,0.866-0.701,1.567-1.567,1.567s-1.568-0.702-1.568-1.567c0-0.867,0.702-1.568,1.568-1.568S51.2-100.809,51.2-99.942z
			 M51.2-92.811c0,0.866-0.701,1.567-1.567,1.567s-1.568-0.701-1.568-1.567c0-0.866,0.702-1.568,1.568-1.568
			S51.2-93.677,51.2-92.811z M59.474-85.679c0,0.866-0.703,1.568-1.568,1.568s-1.568-0.703-1.568-1.568
			c0-0.866,0.702-1.568,1.568-1.568S59.474-86.545,59.474-85.679z M59.474-64.282c0,0.866-0.703,1.567-1.568,1.567
			s-1.568-0.702-1.568-1.567c0-0.867,0.702-1.568,1.568-1.568S59.474-65.149,59.474-64.282z M59.474-71.415
			c0,0.866-0.703,1.568-1.568,1.568s-1.568-0.702-1.568-1.568s0.702-1.568,1.568-1.568S59.474-72.281,59.474-71.415z M59.474-57.15
			c0,0.866-0.703,1.568-1.568,1.568s-1.568-0.702-1.568-1.568s0.702-1.568,1.568-1.568S59.474-58.017,59.474-57.15z M59.474-78.547
			c0,0.867-0.703,1.569-1.568,1.569s-1.568-0.702-1.568-1.569c0-0.866,0.702-1.567,1.568-1.567S59.474-79.413,59.474-78.547z
			 M59.474-50.019c0,0.866-0.703,1.567-1.568,1.567s-1.568-0.702-1.568-1.567s0.702-1.568,1.568-1.568S59.474-50.884,59.474-50.019z
			 M59.474-35.755c0,0.866-0.703,1.567-1.568,1.567s-1.568-0.701-1.568-1.567c0-0.866,0.702-1.567,1.568-1.567
			S59.474-36.621,59.474-35.755z M59.474-28.623c0,0.866-0.703,1.567-1.568,1.567s-1.568-0.702-1.568-1.567
			c0-0.866,0.702-1.568,1.568-1.568S59.474-29.489,59.474-28.623z M59.474-42.887c0,0.866-0.703,1.568-1.568,1.568
			s-1.568-0.702-1.568-1.568c0-0.866,0.702-1.567,1.568-1.567S59.474-43.753,59.474-42.887z M42.928-42.887
			c0,0.866-0.701,1.568-1.567,1.568c-0.867,0-1.568-0.702-1.568-1.568c0-0.866,0.702-1.567,1.568-1.567
			C42.227-44.454,42.928-43.753,42.928-42.887z M9.839-42.887c0,0.866-0.702,1.568-1.567,1.568s-1.567-0.702-1.567-1.568
			c0-0.866,0.702-1.567,1.567-1.567S9.839-43.753,9.839-42.887z M9.839-35.755c0,0.866-0.702,1.567-1.567,1.567
			s-1.567-0.701-1.567-1.567c0-0.866,0.702-1.567,1.567-1.567S9.839-36.621,9.839-35.755z M9.839-50.019
			c0,0.866-0.702,1.567-1.567,1.567s-1.567-0.702-1.567-1.567s0.702-1.568,1.567-1.568S9.839-50.884,9.839-50.019z M9.839-57.15
			c0,0.866-0.702,1.568-1.567,1.568s-1.567-0.702-1.567-1.568s0.702-1.568,1.567-1.568S9.839-58.017,9.839-57.15z M9.839-28.623
			c0,0.866-0.702,1.567-1.567,1.567s-1.567-0.702-1.567-1.567c0-0.866,0.702-1.568,1.567-1.568S9.839-29.489,9.839-28.623z
			 M9.839-64.282c0,0.866-0.702,1.567-1.567,1.567s-1.567-0.702-1.567-1.567c0-0.867,0.702-1.568,1.567-1.568
			S9.839-65.149,9.839-64.282z M9.839-14.359c0,0.866-0.702,1.567-1.567,1.567s-1.567-0.701-1.567-1.567
			c0-0.865,0.702-1.568,1.567-1.568S9.839-15.224,9.839-14.359z M9.839-21.491c0,0.866-0.702,1.568-1.567,1.568
			s-1.567-0.702-1.567-1.568s0.702-1.567,1.567-1.567S9.839-22.356,9.839-21.491z M9.839-7.227c0,0.866-0.702,1.568-1.567,1.568
			S6.705-6.361,6.705-7.227c0-0.866,0.702-1.567,1.567-1.567S9.839-8.093,9.839-7.227z M18.112-0.095
			c0,0.032-0.003,0.063-0.005,0.095h-3.126c-0.002-0.032-0.005-0.062-0.005-0.095c0-0.866,0.702-1.567,1.568-1.567
			C17.41-1.662,18.112-0.961,18.112-0.095z M9.839-99.942c0,0.866-0.702,1.567-1.567,1.567s-1.567-0.702-1.567-1.567
			c0-0.867,0.702-1.568,1.567-1.568S9.839-100.809,9.839-99.942z M9.839-107.075c0,0.866-0.702,1.567-1.567,1.567
			s-1.567-0.702-1.567-1.567s0.702-1.568,1.567-1.568S9.839-107.94,9.839-107.075z M18.112-14.359c0,0.866-0.702,1.567-1.568,1.567
			c-0.866,0-1.568-0.701-1.568-1.567c0-0.865,0.702-1.568,1.568-1.568C17.41-15.927,18.112-15.224,18.112-14.359z M9.839-92.811
			c0,0.866-0.702,1.567-1.567,1.567s-1.567-0.701-1.567-1.567c0-0.866,0.702-1.568,1.567-1.568S9.839-93.677,9.839-92.811z
			 M9.839-71.415c0,0.866-0.702,1.568-1.567,1.568s-1.567-0.702-1.567-1.568s0.702-1.568,1.567-1.568S9.839-72.281,9.839-71.415z
			 M9.839-78.547c0,0.867-0.702,1.569-1.567,1.569s-1.567-0.702-1.567-1.569c0-0.866,0.702-1.567,1.567-1.567
			S9.839-79.413,9.839-78.547z M9.839-85.679c0,0.866-0.702,1.568-1.567,1.568s-1.567-0.703-1.567-1.568
			c0-0.866,0.702-1.568,1.567-1.568S9.839-86.545,9.839-85.679z M1.568-64.282c0,0.866-0.703,1.567-1.568,1.567v-3.136
			C0.865-65.851,1.568-65.149,1.568-64.282z M1.568-57.15c0,0.866-0.703,1.568-1.568,1.568v-3.136
			C0.865-58.718,1.568-58.017,1.568-57.15z M1.568-35.755c0,0.866-0.703,1.567-1.568,1.567v-3.134
			C0.865-37.322,1.568-36.621,1.568-35.755z M1.568-28.623c0,0.866-0.703,1.567-1.568,1.567v-3.135
			C0.865-30.19,1.568-29.489,1.568-28.623z M34.656-42.887c0,0.866-0.702,1.568-1.568,1.568s-1.567-0.702-1.567-1.568
			c0-0.866,0.702-1.567,1.567-1.567S34.656-43.753,34.656-42.887z M1.568-42.887c0,0.866-0.703,1.568-1.568,1.568v-3.135
			C0.865-44.454,1.568-43.753,1.568-42.887z M9.839-0.095c0,0.032-0.003,0.063-0.004,0.095H6.709
			C6.707-0.032,6.705-0.062,6.705-0.095c0-0.866,0.702-1.567,1.567-1.567S9.839-0.961,9.839-0.095z M1.568-14.359
			c0,0.866-0.703,1.567-1.568,1.567v-3.135C0.865-15.927,1.568-15.224,1.568-14.359z M1.568-21.491c0,0.866-0.703,1.568-1.568,1.568
			v-3.135C0.865-23.058,1.568-22.356,1.568-21.491z M1.568-7.227c0,0.866-0.703,1.568-1.568,1.568v-3.135
			C0.865-8.794,1.568-8.093,1.568-7.227z M18.112-7.227c0,0.866-0.702,1.568-1.568,1.568c-0.866,0-1.568-0.702-1.568-1.568
			c0-0.866,0.702-1.567,1.568-1.567C17.41-8.794,18.112-8.093,18.112-7.227z M1.568-92.811c0,0.866-0.703,1.567-1.568,1.567v-3.135
			C0.865-94.379,1.568-93.677,1.568-92.811z M1.568-107.075c0,0.866-0.703,1.567-1.568,1.567v-3.135
			C0.865-108.643,1.568-107.94,1.568-107.075z M1.568-0.095c0,0.032-0.003,0.063-0.005,0.095H0v-1.662
			C0.865-1.662,1.568-0.961,1.568-0.095z M1.568-99.942c0,0.866-0.703,1.567-1.568,1.567v-3.135
			C0.865-101.51,1.568-100.809,1.568-99.942z M1.568-71.415c0,0.866-0.703,1.568-1.568,1.568v-3.136
			C0.865-72.983,1.568-72.281,1.568-71.415z M1.568-85.679c0,0.866-0.703,1.568-1.568,1.568v-3.136
			C0.865-87.247,1.568-86.545,1.568-85.679z M1.568-78.547c0,0.867-0.703,1.569-1.568,1.569v-3.136
			C0.865-80.114,1.568-79.413,1.568-78.547z M1.568-50.019c0,0.866-0.703,1.567-1.568,1.567v-3.136
			C0.865-51.587,1.568-50.884,1.568-50.019z M26.384-35.755c0,0.866-0.702,1.567-1.568,1.567s-1.567-0.701-1.567-1.567
			c0-0.866,0.702-1.567,1.567-1.567S26.384-36.621,26.384-35.755z M26.384-78.547c0,0.867-0.702,1.569-1.568,1.569
			s-1.567-0.702-1.567-1.569c0-0.866,0.702-1.567,1.567-1.567S26.384-79.413,26.384-78.547z M26.384-64.282
			c0,0.866-0.702,1.567-1.568,1.567s-1.567-0.702-1.567-1.567c0-0.867,0.702-1.568,1.567-1.568S26.384-65.149,26.384-64.282z
			 M26.384-85.679c0,0.866-0.702,1.568-1.568,1.568s-1.567-0.703-1.567-1.568c0-0.866,0.702-1.568,1.567-1.568
			S26.384-86.545,26.384-85.679z M26.384-57.15c0,0.866-0.702,1.568-1.568,1.568s-1.567-0.702-1.567-1.568s0.702-1.568,1.567-1.568
			S26.384-58.017,26.384-57.15z M26.384-42.887c0,0.866-0.702,1.568-1.568,1.568s-1.567-0.702-1.567-1.568
			c0-0.866,0.702-1.567,1.567-1.567S26.384-43.753,26.384-42.887z M26.384-92.811c0,0.866-0.702,1.567-1.568,1.567
			s-1.567-0.701-1.567-1.567c0-0.866,0.702-1.568,1.567-1.568S26.384-93.677,26.384-92.811z M26.384-50.019
			c0,0.866-0.702,1.567-1.568,1.567s-1.567-0.702-1.567-1.567s0.702-1.568,1.567-1.568S26.384-50.884,26.384-50.019z M26.384-71.415
			c0,0.866-0.702,1.568-1.568,1.568s-1.567-0.702-1.567-1.568s0.702-1.568,1.567-1.568S26.384-72.281,26.384-71.415z M34.656-28.623
			c0,0.866-0.702,1.567-1.568,1.567s-1.567-0.702-1.567-1.567c0-0.866,0.702-1.568,1.567-1.568S34.656-29.489,34.656-28.623z
			 M26.384-99.942c0,0.866-0.702,1.567-1.568,1.567s-1.567-0.702-1.567-1.567c0-0.867,0.702-1.568,1.567-1.568
			S26.384-100.809,26.384-99.942z M34.656-7.227c0,0.866-0.702,1.568-1.568,1.568s-1.567-0.702-1.567-1.568
			c0-0.866,0.702-1.567,1.567-1.567S34.656-8.093,34.656-7.227z M34.656-35.755c0,0.866-0.702,1.567-1.568,1.567
			s-1.567-0.701-1.567-1.567c0-0.866,0.702-1.567,1.567-1.567S34.656-36.621,34.656-35.755z M34.656-21.491
			c0,0.866-0.702,1.568-1.568,1.568s-1.567-0.702-1.567-1.568s0.702-1.567,1.567-1.567S34.656-22.356,34.656-21.491z
			 M26.384-107.075c0,0.866-0.702,1.567-1.568,1.567s-1.567-0.702-1.567-1.567s0.702-1.568,1.567-1.568
			S26.384-107.94,26.384-107.075z M34.656-0.095c0,0.032-0.003,0.063-0.005,0.095h-3.126c-0.002-0.032-0.004-0.062-0.004-0.095
			c0-0.866,0.702-1.567,1.567-1.567S34.656-0.961,34.656-0.095z M34.656-14.359c0,0.866-0.702,1.567-1.568,1.567
			s-1.567-0.701-1.567-1.567c0-0.865,0.702-1.568,1.567-1.568S34.656-15.224,34.656-14.359z M18.112-107.075
			c0,0.866-0.702,1.567-1.568,1.567c-0.866,0-1.568-0.702-1.568-1.567s0.702-1.568,1.568-1.568
			C17.41-108.643,18.112-107.94,18.112-107.075z M18.112-57.15c0,0.866-0.702,1.568-1.568,1.568c-0.866,0-1.568-0.702-1.568-1.568
			s0.702-1.568,1.568-1.568C17.41-58.718,18.112-58.017,18.112-57.15z M26.384-28.623c0,0.866-0.702,1.567-1.568,1.567
			s-1.567-0.702-1.567-1.567c0-0.866,0.702-1.568,1.567-1.568S26.384-29.489,26.384-28.623z M18.112-50.019
			c0,0.866-0.702,1.567-1.568,1.567c-0.866,0-1.568-0.702-1.568-1.567s0.702-1.568,1.568-1.568
			C17.41-51.587,18.112-50.884,18.112-50.019z M18.112-78.547c0,0.867-0.702,1.569-1.568,1.569c-0.866,0-1.568-0.702-1.568-1.569
			c0-0.866,0.702-1.567,1.568-1.567C17.41-80.114,18.112-79.413,18.112-78.547z M18.112-71.415c0,0.866-0.702,1.568-1.568,1.568
			c-0.866,0-1.568-0.702-1.568-1.568s0.702-1.568,1.568-1.568C17.41-72.983,18.112-72.281,18.112-71.415z M18.112-28.623
			c0,0.866-0.702,1.567-1.568,1.567c-0.866,0-1.568-0.702-1.568-1.567c0-0.866,0.702-1.568,1.568-1.568
			C17.41-30.19,18.112-29.489,18.112-28.623z M18.112-42.887c0,0.866-0.702,1.568-1.568,1.568c-0.866,0-1.568-0.702-1.568-1.568
			c0-0.866,0.702-1.567,1.568-1.567C17.41-44.454,18.112-43.753,18.112-42.887z M18.112-35.755c0,0.866-0.702,1.567-1.568,1.567
			c-0.866,0-1.568-0.701-1.568-1.567c0-0.866,0.702-1.567,1.568-1.567C17.41-37.322,18.112-36.621,18.112-35.755z M18.112-64.282
			c0,0.866-0.702,1.567-1.568,1.567c-0.866,0-1.568-0.702-1.568-1.567c0-0.867,0.702-1.568,1.568-1.568
			C17.41-65.851,18.112-65.149,18.112-64.282z M26.384-14.359c0,0.866-0.702,1.567-1.568,1.567s-1.567-0.701-1.567-1.567
			c0-0.865,0.702-1.568,1.567-1.568S26.384-15.224,26.384-14.359z M18.112-85.679c0,0.866-0.702,1.568-1.568,1.568
			c-0.866,0-1.568-0.703-1.568-1.568c0-0.866,0.702-1.568,1.568-1.568C17.41-87.247,18.112-86.545,18.112-85.679z M26.384-7.227
			c0,0.866-0.702,1.568-1.568,1.568s-1.567-0.702-1.567-1.568c0-0.866,0.702-1.567,1.567-1.567S26.384-8.093,26.384-7.227z
			 M26.384-21.491c0,0.866-0.702,1.568-1.568,1.568s-1.567-0.702-1.567-1.568s0.702-1.567,1.567-1.567S26.384-22.356,26.384-21.491z
			 M26.384-0.095c0,0.032-0.003,0.063-0.005,0.095h-3.125c-0.002-0.032-0.005-0.062-0.005-0.095c0-0.866,0.702-1.567,1.567-1.567
			S26.384-0.961,26.384-0.095z M18.112-92.811c0,0.866-0.702,1.567-1.568,1.567c-0.866,0-1.568-0.701-1.568-1.567
			c0-0.866,0.702-1.568,1.568-1.568C17.41-94.379,18.112-93.677,18.112-92.811z M18.112-99.942c0,0.866-0.702,1.567-1.568,1.567
			c-0.866,0-1.568-0.702-1.568-1.567c0-0.867,0.702-1.568,1.568-1.568C17.41-101.51,18.112-100.809,18.112-99.942z M18.112-21.491
			c0,0.866-0.702,1.568-1.568,1.568c-0.866,0-1.568-0.702-1.568-1.568s0.702-1.567,1.568-1.567
			C17.41-23.058,18.112-22.356,18.112-21.491z M117.378-92.811c0,0.866-0.703,1.567-1.567,1.567c-0.866,0-1.569-0.701-1.569-1.567
			c0-0.866,0.704-1.568,1.569-1.568C116.676-94.379,117.378-93.677,117.378-92.811z M125.65-7.227c0,0.866-0.701,1.568-1.567,1.568
			s-1.568-0.702-1.568-1.568c0-0.866,0.702-1.567,1.568-1.567S125.65-8.093,125.65-7.227z M125.65-0.095
			c0,0.032-0.002,0.063-0.004,0.095h-3.126c-0.002-0.032-0.005-0.062-0.005-0.095c0-0.866,0.702-1.567,1.568-1.567
			S125.65-0.961,125.65-0.095z M117.378-71.415c0,0.866-0.703,1.568-1.567,1.568c-0.866,0-1.569-0.702-1.569-1.568
			s0.704-1.568,1.569-1.568C116.676-72.983,117.378-72.281,117.378-71.415z M125.65-21.491c0,0.866-0.701,1.568-1.567,1.568
			s-1.568-0.702-1.568-1.568s0.702-1.567,1.568-1.567S125.65-22.356,125.65-21.491z M125.65-14.359c0,0.866-0.701,1.567-1.567,1.567
			s-1.568-0.701-1.568-1.567c0-0.865,0.702-1.568,1.568-1.568S125.65-15.224,125.65-14.359z M117.378-85.679
			c0,0.866-0.703,1.568-1.567,1.568c-0.866,0-1.569-0.703-1.569-1.568c0-0.866,0.704-1.568,1.569-1.568
			C116.676-87.247,117.378-86.545,117.378-85.679z M117.378-107.075c0,0.866-0.703,1.567-1.567,1.567
			c-0.866,0-1.569-0.702-1.569-1.567s0.704-1.568,1.569-1.568C116.676-108.643,117.378-107.94,117.378-107.075z M117.378-78.547
			c0,0.867-0.703,1.569-1.567,1.569c-0.866,0-1.569-0.702-1.569-1.569c0-0.866,0.704-1.567,1.569-1.567
			C116.676-80.114,117.378-79.413,117.378-78.547z M117.378-99.942c0,0.866-0.703,1.567-1.567,1.567
			c-0.866,0-1.569-0.702-1.569-1.567c0-0.867,0.704-1.568,1.569-1.568C116.676-101.51,117.378-100.809,117.378-99.942z
			 M125.65-28.623c0,0.866-0.701,1.567-1.567,1.567s-1.568-0.702-1.568-1.567c0-0.866,0.702-1.568,1.568-1.568
			S125.65-29.489,125.65-28.623z M125.65-35.755c0,0.866-0.701,1.567-1.567,1.567s-1.568-0.701-1.568-1.567
			c0-0.866,0.702-1.567,1.568-1.567S125.65-36.621,125.65-35.755z M125.65-64.282c0,0.866-0.701,1.567-1.567,1.567
			s-1.568-0.702-1.568-1.567c0-0.867,0.702-1.568,1.568-1.568S125.65-65.149,125.65-64.282z M125.65-78.547
			c0,0.867-0.701,1.569-1.567,1.569s-1.568-0.702-1.568-1.569c0-0.866,0.702-1.567,1.568-1.567S125.65-79.413,125.65-78.547z
			 M125.65-85.679c0,0.866-0.701,1.568-1.567,1.568s-1.568-0.703-1.568-1.568c0-0.866,0.702-1.568,1.568-1.568
			S125.65-86.545,125.65-85.679z M125.65-71.415c0,0.866-0.701,1.568-1.567,1.568s-1.568-0.702-1.568-1.568s0.702-1.568,1.568-1.568
			S125.65-72.281,125.65-71.415z M125.65-42.887c0,0.866-0.701,1.568-1.567,1.568s-1.568-0.702-1.568-1.568
			c0-0.866,0.702-1.567,1.568-1.567S125.65-43.753,125.65-42.887z M109.106-57.15c0,0.866-0.703,1.568-1.568,1.568
			s-1.567-0.702-1.567-1.568s0.702-1.568,1.567-1.568S109.106-58.017,109.106-57.15z M125.65-57.15c0,0.866-0.701,1.568-1.567,1.568
			s-1.568-0.702-1.568-1.568s0.702-1.568,1.568-1.568S125.65-58.017,125.65-57.15z M117.378-50.019c0,0.866-0.703,1.567-1.567,1.567
			c-0.866,0-1.569-0.702-1.569-1.567s0.704-1.568,1.569-1.568C116.676-51.587,117.378-50.884,117.378-50.019z M109.106-85.679
			c0,0.866-0.703,1.568-1.568,1.568s-1.567-0.703-1.567-1.568c0-0.866,0.702-1.568,1.567-1.568S109.106-86.545,109.106-85.679z
			 M117.378-0.095c0,0.032-0.003,0.063-0.004,0.095h-3.126c-0.002-0.032-0.006-0.062-0.006-0.095c0-0.866,0.704-1.567,1.569-1.567
			C116.676-1.662,117.378-0.961,117.378-0.095z M109.106-99.942c0,0.866-0.703,1.567-1.568,1.567s-1.567-0.702-1.567-1.567
			c0-0.867,0.702-1.568,1.567-1.568S109.106-100.809,109.106-99.942z M109.106-107.075c0,0.866-0.703,1.567-1.568,1.567
			s-1.567-0.702-1.567-1.567s0.702-1.568,1.567-1.568S109.106-107.94,109.106-107.075z M109.106-92.811
			c0,0.866-0.703,1.567-1.568,1.567s-1.567-0.701-1.567-1.567c0-0.866,0.702-1.568,1.567-1.568S109.106-93.677,109.106-92.811z
			 M109.106-78.547c0,0.867-0.703,1.569-1.568,1.569s-1.567-0.702-1.567-1.569c0-0.866,0.702-1.567,1.567-1.567
			S109.106-79.413,109.106-78.547z M109.106-64.282c0,0.866-0.703,1.567-1.568,1.567s-1.567-0.702-1.567-1.567
			c0-0.867,0.702-1.568,1.567-1.568S109.106-65.149,109.106-64.282z M109.106-71.415c0,0.866-0.703,1.568-1.568,1.568
			s-1.567-0.702-1.567-1.568s0.702-1.568,1.567-1.568S109.106-72.281,109.106-71.415z M117.378-28.623
			c0,0.866-0.703,1.567-1.567,1.567c-0.866,0-1.569-0.702-1.569-1.567c0-0.866,0.704-1.568,1.569-1.568
			C116.676-30.19,117.378-29.489,117.378-28.623z M125.65-92.811c0,0.866-0.701,1.567-1.567,1.567s-1.568-0.701-1.568-1.567
			c0-0.866,0.702-1.568,1.568-1.568S125.65-93.677,125.65-92.811z M117.378-42.887c0,0.866-0.703,1.568-1.567,1.568
			c-0.866,0-1.569-0.702-1.569-1.568c0-0.866,0.704-1.567,1.569-1.567C116.676-44.454,117.378-43.753,117.378-42.887z
			 M117.378-57.15c0,0.866-0.703,1.568-1.567,1.568c-0.866,0-1.569-0.702-1.569-1.568s0.704-1.568,1.569-1.568
			C116.676-58.718,117.378-58.017,117.378-57.15z M117.378-35.755c0,0.866-0.703,1.567-1.567,1.567
			c-0.866,0-1.569-0.701-1.569-1.567c0-0.866,0.704-1.567,1.569-1.567C116.676-37.322,117.378-36.621,117.378-35.755z
			 M117.378-21.491c0,0.866-0.703,1.568-1.567,1.568c-0.866,0-1.569-0.702-1.569-1.568s0.704-1.567,1.569-1.567
			C116.676-23.058,117.378-22.356,117.378-21.491z M117.378-64.282c0,0.866-0.703,1.567-1.567,1.567
			c-0.866,0-1.569-0.702-1.569-1.567c0-0.867,0.704-1.568,1.569-1.568C116.676-65.851,117.378-65.149,117.378-64.282z
			 M117.378-7.227c0,0.866-0.703,1.568-1.567,1.568c-0.866,0-1.569-0.702-1.569-1.568c0-0.866,0.704-1.567,1.569-1.567
			C116.676-8.794,117.378-8.093,117.378-7.227z M117.378-14.359c0,0.866-0.703,1.567-1.567,1.567c-0.866,0-1.569-0.701-1.569-1.567
			c0-0.865,0.704-1.568,1.569-1.568C116.676-15.927,117.378-15.224,117.378-14.359z M125.65-50.019c0,0.866-0.701,1.567-1.567,1.567
			s-1.568-0.702-1.568-1.567s0.702-1.568,1.568-1.568S125.65-50.884,125.65-50.019z M81.154-114.207h3.136
			c0,0.866-0.703,1.568-1.568,1.568C81.856-112.639,81.154-113.341,81.154-114.207z M97.698-114.207h3.136
			c0,0.866-0.702,1.568-1.568,1.568C98.4-112.639,97.698-113.341,97.698-114.207z M89.426-114.207h3.136
			c0,0.866-0.703,1.568-1.568,1.568C90.128-112.639,89.426-113.341,89.426-114.207z M64.609-114.207h3.136
			c0,0.866-0.703,1.568-1.568,1.568C65.312-112.639,64.609-113.341,64.609-114.207z M76.017-0.095c0,0.032-0.002,0.063-0.004,0.095
			h-3.126c-0.001-0.032-0.004-0.062-0.004-0.095c0-0.866,0.701-1.567,1.567-1.567S76.017-0.961,76.017-0.095z M122.515-114.207
			h3.135c0,0.866-0.701,1.568-1.567,1.568S122.515-113.341,122.515-114.207z M105.971-114.207h3.136
			c0,0.866-0.703,1.568-1.568,1.568S105.971-113.341,105.971-114.207z M114.242-114.207h3.137c0,0.866-0.703,1.568-1.567,1.568
			C114.945-112.639,114.242-113.341,114.242-114.207z M72.882-114.207h3.134c0,0.866-0.702,1.568-1.567,1.568
			S72.882-113.341,72.882-114.207z M6.705-114.207h3.135c0,0.866-0.702,1.568-1.567,1.568S6.705-113.341,6.705-114.207z
			 M125.65-99.942c0,0.866-0.701,1.567-1.567,1.567s-1.568-0.702-1.568-1.567c0-0.867,0.702-1.568,1.568-1.568
			S125.65-100.809,125.65-99.942z M14.976-114.207h3.136c0,0.866-0.702,1.568-1.568,1.568
			C15.678-112.639,14.976-113.341,14.976-114.207z M0-114.207h1.568c0,0.866-0.703,1.568-1.568,1.568V-114.207z M56.337-114.207
			h3.136c0,0.866-0.703,1.568-1.568,1.568S56.337-113.341,56.337-114.207z M48.065-114.207H51.2c0,0.866-0.701,1.568-1.567,1.568
			S48.065-113.341,48.065-114.207z M31.521-114.207h3.135c0,0.866-0.702,1.568-1.568,1.568S31.521-113.341,31.521-114.207z
			 M39.793-114.207h3.135c0,0.866-0.701,1.568-1.567,1.568C40.495-112.639,39.793-113.341,39.793-114.207z M23.249-114.207h3.135
			c0,0.866-0.702,1.568-1.568,1.568S23.249-113.341,23.249-114.207z M132.355-30.19c0.064,0,0.127,0.005,0.19,0.013v3.11
			c-0.062,0.008-0.125,0.013-0.19,0.013c-0.866,0-1.568-0.702-1.568-1.567C130.787-29.489,131.489-30.19,132.355-30.19z
			 M132.355-23.058c0.064,0,0.127,0.004,0.19,0.012v3.11c-0.062,0.008-0.125,0.013-0.19,0.013c-0.866,0-1.568-0.702-1.568-1.568
			S131.489-23.058,132.355-23.058z M132.355-44.454c0.064,0,0.127,0.005,0.19,0.012v3.11c-0.062,0.007-0.125,0.013-0.19,0.013
			c-0.866,0-1.568-0.702-1.568-1.568C130.787-43.753,131.489-44.454,132.355-44.454z M132.355-37.322
			c0.064,0,0.127,0.004,0.19,0.012v3.11c-0.062,0.008-0.125,0.012-0.19,0.012c-0.866,0-1.568-0.701-1.568-1.567
			C130.787-36.621,131.489-37.322,132.355-37.322z M132.355-8.794c0.064,0,0.127,0.005,0.19,0.013v3.11
			c-0.062,0.007-0.125,0.013-0.19,0.013c-0.866,0-1.568-0.702-1.568-1.568C130.787-8.093,131.489-8.794,132.355-8.794z
			 M125.65-107.075c0,0.866-0.701,1.567-1.567,1.567s-1.568-0.702-1.568-1.567s0.702-1.568,1.568-1.568
			S125.65-107.94,125.65-107.075z M132.355-15.927c0.064,0,0.127,0.005,0.19,0.013v3.11c-0.062,0.007-0.125,0.012-0.19,0.012
			c-0.866,0-1.568-0.701-1.568-1.567C130.787-15.224,131.489-15.927,132.355-15.927z M132.355-1.662c0.064,0,0.127,0.005,0.19,0.012
			V0h-1.753c-0.002-0.032-0.005-0.062-0.005-0.095C130.787-0.961,131.489-1.662,132.355-1.662z M132.355-80.114
			c0.064,0,0.127,0.005,0.19,0.012v3.111c-0.062,0.008-0.125,0.013-0.19,0.013c-0.866,0-1.568-0.702-1.568-1.569
			C130.787-79.413,131.489-80.114,132.355-80.114z M132.355-94.379c0.064,0,0.127,0.005,0.19,0.013v3.11
			c-0.062,0.007-0.125,0.012-0.19,0.012c-0.866,0-1.568-0.701-1.568-1.567C130.787-93.677,131.489-94.379,132.355-94.379z
			 M132.355-51.587c0.064,0,0.127,0.006,0.19,0.013v3.11c-0.062,0.007-0.125,0.013-0.19,0.013c-0.866,0-1.568-0.702-1.568-1.567
			S131.489-51.587,132.355-51.587z M132.355-87.247c0.064,0,0.127,0.005,0.19,0.013v3.11c-0.062,0.008-0.125,0.014-0.19,0.014
			c-0.866,0-1.568-0.703-1.568-1.568C130.787-86.545,131.489-87.247,132.355-87.247z M132.355-101.51
			c0.064,0,0.127,0.005,0.19,0.012v3.11c-0.062,0.007-0.125,0.013-0.19,0.013c-0.866,0-1.568-0.702-1.568-1.567
			C130.787-100.809,131.489-101.51,132.355-101.51z M132.355-108.643c0.064,0,0.127,0.005,0.19,0.013v3.11
			c-0.062,0.008-0.125,0.013-0.19,0.013c-0.866,0-1.568-0.702-1.568-1.567S131.489-108.643,132.355-108.643z M132.355-58.718
			c0.064,0,0.127,0.004,0.19,0.013v3.11c-0.062,0.007-0.125,0.013-0.19,0.013c-0.866,0-1.568-0.702-1.568-1.568
			S131.489-58.718,132.355-58.718z M132.355-65.851c0.064,0,0.127,0.004,0.19,0.013v3.11c-0.062,0.008-0.125,0.013-0.19,0.013
			c-0.866,0-1.568-0.702-1.568-1.567C130.787-65.149,131.489-65.851,132.355-65.851z M132.355-72.983
			c0.064,0,0.127,0.005,0.19,0.013v3.11c-0.062,0.008-0.125,0.013-0.19,0.013c-0.866,0-1.568-0.702-1.568-1.568
			S131.489-72.983,132.355-72.983z M132.545-114.207v1.556c-0.062,0.007-0.125,0.012-0.19,0.012c-0.866,0-1.568-0.702-1.568-1.568
			H132.545z M84.29-50.019c0,0.866-0.703,1.567-1.568,1.567c-0.866,0-1.567-0.702-1.567-1.567s0.702-1.568,1.567-1.568
			C83.587-51.587,84.29-50.884,84.29-50.019z M84.29-42.887c0,0.866-0.703,1.568-1.568,1.568c-0.866,0-1.567-0.702-1.567-1.568
			c0-0.866,0.702-1.567,1.567-1.567C83.587-44.454,84.29-43.753,84.29-42.887z M84.29-7.227c0,0.866-0.703,1.568-1.568,1.568
			c-0.866,0-1.567-0.702-1.567-1.568c0-0.866,0.702-1.567,1.567-1.567C83.587-8.794,84.29-8.093,84.29-7.227z M84.29-64.282
			c0,0.866-0.703,1.567-1.568,1.567c-0.866,0-1.567-0.702-1.567-1.567c0-0.867,0.702-1.568,1.567-1.568
			C83.587-65.851,84.29-65.149,84.29-64.282z M84.29-57.15c0,0.866-0.703,1.568-1.568,1.568c-0.866,0-1.567-0.702-1.567-1.568
			s0.702-1.568,1.567-1.568C83.587-58.718,84.29-58.017,84.29-57.15z M84.29-21.491c0,0.866-0.703,1.568-1.568,1.568
			c-0.866,0-1.567-0.702-1.567-1.568s0.702-1.567,1.567-1.567C83.587-23.058,84.29-22.356,84.29-21.491z M84.29-28.623
			c0,0.866-0.703,1.567-1.568,1.567c-0.866,0-1.567-0.702-1.567-1.567c0-0.866,0.702-1.568,1.567-1.568
			C83.587-30.19,84.29-29.489,84.29-28.623z M84.29-35.755c0,0.866-0.703,1.567-1.568,1.567c-0.866,0-1.567-0.701-1.567-1.567
			c0-0.866,0.702-1.567,1.567-1.567C83.587-37.322,84.29-36.621,84.29-35.755z M84.29-71.415c0,0.866-0.703,1.568-1.568,1.568
			c-0.866,0-1.567-0.702-1.567-1.568s0.702-1.568,1.567-1.568C83.587-72.983,84.29-72.281,84.29-71.415z M92.562-21.491
			c0,0.866-0.703,1.568-1.568,1.568c-0.866,0-1.568-0.702-1.568-1.568s0.703-1.567,1.568-1.567
			C91.859-23.058,92.562-22.356,92.562-21.491z M92.562-0.095c0,0.032-0.003,0.063-0.005,0.095h-3.125
			c-0.003-0.032-0.006-0.062-0.006-0.095c0-0.866,0.703-1.567,1.568-1.567C91.859-1.662,92.562-0.961,92.562-0.095z M84.29-107.075
			c0,0.866-0.703,1.567-1.568,1.567c-0.866,0-1.567-0.702-1.567-1.567s0.702-1.568,1.567-1.568
			C83.587-108.643,84.29-107.94,84.29-107.075z M92.562-7.227c0,0.866-0.703,1.568-1.568,1.568c-0.866,0-1.568-0.702-1.568-1.568
			c0-0.866,0.703-1.567,1.568-1.567C91.859-8.794,92.562-8.093,92.562-7.227z M92.562-14.359c0,0.866-0.703,1.567-1.568,1.567
			c-0.866,0-1.568-0.701-1.568-1.567c0-0.865,0.703-1.568,1.568-1.568C91.859-15.927,92.562-15.224,92.562-14.359z M84.29-99.942
			c0,0.866-0.703,1.567-1.568,1.567c-0.866,0-1.567-0.702-1.567-1.567c0-0.867,0.702-1.568,1.567-1.568
			C83.587-101.51,84.29-100.809,84.29-99.942z M84.29-85.679c0,0.866-0.703,1.568-1.568,1.568c-0.866,0-1.567-0.703-1.567-1.568
			c0-0.866,0.702-1.568,1.567-1.568C83.587-87.247,84.29-86.545,84.29-85.679z M84.29-92.811c0,0.866-0.703,1.567-1.568,1.567
			c-0.866,0-1.567-0.701-1.567-1.567c0-0.866,0.702-1.568,1.567-1.568C83.587-94.379,84.29-93.677,84.29-92.811z M84.29-78.547
			c0,0.867-0.703,1.569-1.568,1.569c-0.866,0-1.567-0.702-1.567-1.569c0-0.866,0.702-1.567,1.567-1.567
			C83.587-80.114,84.29-79.413,84.29-78.547z M76.017-35.755c0,0.866-0.702,1.567-1.567,1.567s-1.567-0.701-1.567-1.567
			c0-0.866,0.701-1.567,1.567-1.567S76.017-36.621,76.017-35.755z M76.017-42.887c0,0.866-0.702,1.568-1.567,1.568
			s-1.567-0.702-1.567-1.568c0-0.866,0.701-1.567,1.567-1.567S76.017-43.753,76.017-42.887z M76.017-28.623
			c0,0.866-0.702,1.567-1.567,1.567s-1.567-0.702-1.567-1.567c0-0.866,0.701-1.568,1.567-1.568S76.017-29.489,76.017-28.623z
			 M76.017-50.019c0,0.866-0.702,1.567-1.567,1.567s-1.567-0.702-1.567-1.567s0.701-1.568,1.567-1.568S76.017-50.884,76.017-50.019z
			 M76.017-7.227c0,0.866-0.702,1.568-1.567,1.568s-1.567-0.702-1.567-1.568c0-0.866,0.701-1.567,1.567-1.567
			S76.017-8.093,76.017-7.227z M76.017-14.359c0,0.866-0.702,1.567-1.567,1.567s-1.567-0.701-1.567-1.567
			c0-0.865,0.701-1.568,1.567-1.568S76.017-15.224,76.017-14.359z M76.017-57.15c0,0.866-0.702,1.568-1.567,1.568
			s-1.567-0.702-1.567-1.568s0.701-1.568,1.567-1.568S76.017-58.017,76.017-57.15z M76.017-21.491c0,0.866-0.702,1.568-1.567,1.568
			s-1.567-0.702-1.567-1.568s0.701-1.567,1.567-1.567S76.017-22.356,76.017-21.491z M76.017-71.415c0,0.866-0.702,1.568-1.567,1.568
			s-1.567-0.702-1.567-1.568s0.701-1.568,1.567-1.568S76.017-72.281,76.017-71.415z M76.017-92.811c0,0.866-0.702,1.567-1.567,1.567
			s-1.567-0.701-1.567-1.567c0-0.866,0.701-1.568,1.567-1.568S76.017-93.677,76.017-92.811z M76.017-99.942
			c0,0.866-0.702,1.567-1.567,1.567s-1.567-0.702-1.567-1.567c0-0.867,0.701-1.568,1.567-1.568S76.017-100.809,76.017-99.942z
			 M76.017-107.075c0,0.866-0.702,1.567-1.567,1.567s-1.567-0.702-1.567-1.567s0.701-1.568,1.567-1.568
			S76.017-107.94,76.017-107.075z M76.017-64.282c0,0.866-0.702,1.567-1.567,1.567s-1.567-0.702-1.567-1.567
			c0-0.867,0.701-1.568,1.567-1.568S76.017-65.149,76.017-64.282z M84.29-0.095c0,0.032-0.003,0.063-0.005,0.095h-3.126
			c-0.002-0.032-0.004-0.062-0.004-0.095c0-0.866,0.702-1.567,1.567-1.567C83.587-1.662,84.29-0.961,84.29-0.095z M84.29-14.359
			c0,0.866-0.703,1.567-1.568,1.567c-0.866,0-1.567-0.701-1.567-1.567c0-0.865,0.702-1.568,1.567-1.568
			C83.587-15.927,84.29-15.224,84.29-14.359z M76.017-78.547c0,0.867-0.702,1.569-1.567,1.569s-1.567-0.702-1.567-1.569
			c0-0.866,0.701-1.567,1.567-1.567S76.017-79.413,76.017-78.547z M76.017-85.679c0,0.866-0.702,1.568-1.567,1.568
			s-1.567-0.703-1.567-1.568c0-0.866,0.701-1.568,1.567-1.568S76.017-86.545,76.017-85.679z M92.562-50.019
			c0,0.866-0.703,1.567-1.568,1.567c-0.866,0-1.568-0.702-1.568-1.567s0.703-1.568,1.568-1.568
			C91.859-51.587,92.562-50.884,92.562-50.019z M100.834-78.547c0,0.867-0.702,1.569-1.568,1.569c-0.865,0-1.567-0.702-1.567-1.569
			c0-0.866,0.702-1.567,1.567-1.567C100.132-80.114,100.834-79.413,100.834-78.547z M100.834-85.679
			c0,0.866-0.702,1.568-1.568,1.568c-0.865,0-1.567-0.703-1.567-1.568c0-0.866,0.702-1.568,1.567-1.568
			C100.132-87.247,100.834-86.545,100.834-85.679z M100.834-71.415c0,0.866-0.702,1.568-1.568,1.568
			c-0.865,0-1.567-0.702-1.567-1.568s0.702-1.568,1.567-1.568C100.132-72.983,100.834-72.281,100.834-71.415z M100.834-92.811
			c0,0.866-0.702,1.567-1.568,1.567c-0.865,0-1.567-0.701-1.567-1.567c0-0.866,0.702-1.568,1.567-1.568
			C100.132-94.379,100.834-93.677,100.834-92.811z M100.834-57.15c0,0.866-0.702,1.568-1.568,1.568
			c-0.865,0-1.567-0.702-1.567-1.568s0.702-1.568,1.567-1.568C100.132-58.718,100.834-58.017,100.834-57.15z M100.834-50.019
			c0,0.866-0.702,1.567-1.568,1.567c-0.865,0-1.567-0.702-1.567-1.567s0.702-1.568,1.567-1.568
			C100.132-51.587,100.834-50.884,100.834-50.019z M100.834-99.942c0,0.866-0.702,1.567-1.568,1.567
			c-0.865,0-1.567-0.702-1.567-1.567c0-0.867,0.702-1.568,1.567-1.568C100.132-101.51,100.834-100.809,100.834-99.942z
			 M100.834-64.282c0,0.866-0.702,1.567-1.568,1.567c-0.865,0-1.567-0.702-1.567-1.567c0-0.867,0.702-1.568,1.567-1.568
			C100.132-65.851,100.834-65.149,100.834-64.282z M109.106-28.623c0,0.866-0.703,1.567-1.568,1.567s-1.567-0.702-1.567-1.567
			c0-0.866,0.702-1.568,1.567-1.568S109.106-29.489,109.106-28.623z M100.834-42.887c0,0.866-0.702,1.568-1.568,1.568
			c-0.865,0-1.567-0.702-1.567-1.568c0-0.866,0.702-1.567,1.567-1.567C100.132-44.454,100.834-43.753,100.834-42.887z
			 M109.106-35.755c0,0.866-0.703,1.567-1.568,1.567s-1.567-0.701-1.567-1.567c0-0.866,0.702-1.567,1.567-1.567
			S109.106-36.621,109.106-35.755z M92.562-28.623c0,0.866-0.703,1.567-1.568,1.567c-0.866,0-1.568-0.702-1.568-1.567
			c0-0.866,0.703-1.568,1.568-1.568C91.859-30.19,92.562-29.489,92.562-28.623z M100.834-107.075c0,0.866-0.702,1.567-1.568,1.567
			c-0.865,0-1.567-0.702-1.567-1.567s0.702-1.568,1.567-1.568C100.132-108.643,100.834-107.94,100.834-107.075z M109.106-21.491
			c0,0.866-0.703,1.568-1.568,1.568s-1.567-0.702-1.567-1.568s0.702-1.567,1.567-1.567S109.106-22.356,109.106-21.491z
			 M109.106-0.095c0,0.032-0.003,0.063-0.005,0.095h-3.126c-0.002-0.032-0.004-0.062-0.004-0.095c0-0.866,0.702-1.567,1.567-1.567
			S109.106-0.961,109.106-0.095z M109.106-7.227c0,0.866-0.703,1.568-1.568,1.568s-1.567-0.702-1.567-1.568
			c0-0.866,0.702-1.567,1.567-1.567S109.106-8.093,109.106-7.227z M109.106-14.359c0,0.866-0.703,1.567-1.568,1.567
			s-1.567-0.701-1.567-1.567c0-0.865,0.702-1.568,1.567-1.568S109.106-15.224,109.106-14.359z M109.106-42.887
			c0,0.866-0.703,1.568-1.568,1.568s-1.567-0.702-1.567-1.568c0-0.866,0.702-1.567,1.567-1.567S109.106-43.753,109.106-42.887z
			 M92.562-71.415c0,0.866-0.703,1.568-1.568,1.568c-0.866,0-1.568-0.702-1.568-1.568s0.703-1.568,1.568-1.568
			C91.859-72.983,92.562-72.281,92.562-71.415z M92.562-85.679c0,0.866-0.703,1.568-1.568,1.568c-0.866,0-1.568-0.703-1.568-1.568
			c0-0.866,0.703-1.568,1.568-1.568C91.859-87.247,92.562-86.545,92.562-85.679z M92.562-64.282c0,0.866-0.703,1.567-1.568,1.567
			c-0.866,0-1.568-0.702-1.568-1.567c0-0.867,0.703-1.568,1.568-1.568C91.859-65.851,92.562-65.149,92.562-64.282z M92.562-78.547
			c0,0.867-0.703,1.569-1.568,1.569c-0.866,0-1.568-0.702-1.568-1.569c0-0.866,0.703-1.567,1.568-1.567
			C91.859-80.114,92.562-79.413,92.562-78.547z M92.562-57.15c0,0.866-0.703,1.568-1.568,1.568c-0.866,0-1.568-0.702-1.568-1.568
			s0.703-1.568,1.568-1.568C91.859-58.718,92.562-58.017,92.562-57.15z M92.562-35.755c0,0.866-0.703,1.567-1.568,1.567
			c-0.866,0-1.568-0.701-1.568-1.567c0-0.866,0.703-1.567,1.568-1.567C91.859-37.322,92.562-36.621,92.562-35.755z M92.562-42.887
			c0,0.866-0.703,1.568-1.568,1.568c-0.866,0-1.568-0.702-1.568-1.568c0-0.866,0.703-1.567,1.568-1.567
			C91.859-44.454,92.562-43.753,92.562-42.887z M109.106-50.019c0,0.866-0.703,1.567-1.568,1.567s-1.567-0.702-1.567-1.567
			s0.702-1.568,1.567-1.568S109.106-50.884,109.106-50.019z M92.562-92.811c0,0.866-0.703,1.567-1.568,1.567
			c-0.866,0-1.568-0.701-1.568-1.567c0-0.866,0.703-1.568,1.568-1.568C91.859-94.379,92.562-93.677,92.562-92.811z M100.834-21.491
			c0,0.866-0.702,1.568-1.568,1.568c-0.865,0-1.567-0.702-1.567-1.568s0.702-1.567,1.567-1.567
			C100.132-23.058,100.834-22.356,100.834-21.491z M100.834-35.755c0,0.866-0.702,1.567-1.568,1.567
			c-0.865,0-1.567-0.701-1.567-1.567c0-0.866,0.702-1.567,1.567-1.567C100.132-37.322,100.834-36.621,100.834-35.755z
			 M100.834-7.227c0,0.866-0.702,1.568-1.568,1.568c-0.865,0-1.567-0.702-1.567-1.568c0-0.866,0.702-1.567,1.567-1.567
			C100.132-8.794,100.834-8.093,100.834-7.227z M100.834-28.623c0,0.866-0.702,1.567-1.568,1.567c-0.865,0-1.567-0.702-1.567-1.567
			c0-0.866,0.702-1.568,1.567-1.568C100.132-30.19,100.834-29.489,100.834-28.623z M100.834-14.359c0,0.866-0.702,1.567-1.568,1.567
			c-0.865,0-1.567-0.701-1.567-1.567c0-0.865,0.702-1.568,1.567-1.568C100.132-15.927,100.834-15.224,100.834-14.359z
			 M100.834-0.095c0,0.032-0.003,0.063-0.005,0.095h-3.126c-0.001-0.032-0.004-0.062-0.004-0.095c0-0.866,0.702-1.567,1.567-1.567
			C100.132-1.662,100.834-0.961,100.834-0.095z M92.562-99.942c0,0.866-0.703,1.567-1.568,1.567c-0.866,0-1.568-0.702-1.568-1.567
			c0-0.867,0.703-1.568,1.568-1.568C91.859-101.51,92.562-100.809,92.562-99.942z M92.562-107.075c0,0.866-0.703,1.567-1.568,1.567
			c-0.866,0-1.568-0.702-1.568-1.567s0.703-1.568,1.568-1.568C91.859-108.643,92.562-107.94,92.562-107.075z"/>
	</g>
</pattern>
<path fill="#B1DDF6" d="M107.588,126.405c-261.51,108.119,35.942,312.704,35.942,312.704
	c-227.06-209.57-14.082-285.008-14.082-285.008"/>
<circle fill="#33A2D7" cx="272.371" cy="476.41" r="216.311"/>
<path fill="#ECF5FB" d="M105.161,149.841c0,0-34.08-74.977,0-51.121l27.265,29.82c0,0,132.598-36.721,162.539-73.792
	c0,0,35.979-36.117,92.677,0c0,0,47.351,29.87-48.178,75.496C339.464,130.245,251.707,179.662,105.161,149.841z"/>
<path fill="#ECF5FB" d="M201.129,130.245l-132.848,79.48c0,0,5.966,3.688,15.494,0.774c22.3-6.819,83.558-29.652,167.726-79.795
	L201.129,130.245z"/>
<path fill="#3092CB" d="M364.481,43.728l-26.412,20.448l7.668,11.928l43.066-20.967C388.804,55.137,372.149,43.728,364.481,43.728z"
	/>
<path fill="#ECF5FB" d="M213.057,105.537l-48.564-18.744l5.111-2.556c0,0,92.017,1.704,94.573,1.704"/>
<ellipse fill="#3092CB" cx="294.423" cy="94.887" rx="9.798" ry="8.946"/>
<circle fill="#3092CB" cx="251.823" cy="114.483" r="8.094"/>
<circle fill="#3092CB" cx="215.612" cy="127.689" r="5.964"/>
<circle fill="#E30613" cx="187.922" cy="134.931" r="5.538"/>
<circle fill="#3092CB" cx="156.824" cy="141.321" r="5.112"/>
<circle fill="#3092CB" cx="127.347" cy="141.147" r="4.26"/>
<path fill="#ECF5FB" d="M98.888,384.144c0,0,4.26-19.597,10.225-22.152"/>
<path fill="none" d="M128.359,371.597c-7.294,4.521-12.981,12.428-14.987,15.103l-0.503,2.765c0.71-0.105,1.419-0.26,2.122-0.504
	C122.12,386.491,124.562,378.43,128.359,371.597z"/>
<path fill="none" d="M184.94,335.58c-8.521,4.26-0.852,5.964-0.852,5.964s-0.56,2.237-0.771,4.446
	c4.159-4.4,7.276-9.889,10.656-15.141C191.649,332.141,188.714,333.693,184.94,335.58z"/>
<g>
	
		<pattern  id="SVGID_1_" xlink:href="#New_Pattern_5" patternTransform="matrix(0.8875 -0.4608 0.4608 0.8875 2316.0889 -4317.5532)">
	</pattern>
	<path fill="url(#SVGID_1_)" d="M149.156,499.165c-3.408-27.265,4.261-48.564-11.076-47.712s-0.853,12.78-5.112,9.372
		s-15.336-23.004-10.224-35.784s-17.04-34.933-40.044-20.448c-23.005,14.484-20.449,95.425-22.152,97.98
		c0,0,7.668,6.816,16.188,21.3c8.521,14.483,1.493,46.732,1.493,46.732c11.928,38.34,65.815,73.401,69.224,79.365
		s4.26-25.561,1.704-34.933s4.261-40.044,34.933-55.38s1.704-30.673,1.704-30.673S152.564,526.429,149.156,499.165z"/>
	
		<pattern  id="SVGID_2_" xlink:href="#New_Pattern_5" patternTransform="matrix(0.8875 -0.4608 0.4608 0.8875 2316.0889 -4317.5532)">
	</pattern>
	<path fill="url(#SVGID_2_)" d="M149.156,499.165c-3.408-27.265,4.261-48.564-11.076-47.712s-0.853,12.78-5.112,9.372
		s-15.336-23.004-10.224-35.784s-17.04-34.933-40.044-20.448c-23.005,14.484-20.449,95.425-22.152,97.98
		c0,0,7.668,6.816,16.188,21.3c8.521,14.483,1.493,46.732,1.493,46.732c11.928,38.34,65.815,73.401,69.224,79.365
		s4.26-25.561,1.704-34.933s4.261-40.044,34.933-55.38s1.704-30.673,1.704-30.673S152.564,526.429,149.156,499.165z"/>
</g>
<g>
	
		<pattern  id="SVGID_3_" xlink:href="#New_Pattern_5" patternTransform="matrix(0.8875 -0.4608 0.4608 0.8875 2316.0889 -4317.5532)">
	</pattern>
	<path fill="url(#SVGID_3_)" d="M453.322,384.996c-2.557-2.557,0,0-0.852-3.407s0,0-1.704-5.965s0,0-13.632-13.632s0,0-2.557-3.408
		s-1.704-4.26-5.111-11.076s0,0-6.816-6.815c-1.271-1.271-2.062-2.062-2.539-2.538c-0.007-0.008-0.017-0.017-0.023-0.023
		c-0.301-0.301-0.474-0.475-0.554-0.555c-0.019-0.019-0.039-0.039-0.059-0.059c-0.076-0.076-0.144-0.144-0.233-0.233
		c-3.408-3.408,0,0-1.704-5.964s0,0-6.815-5.112s-3.408-1.704-9.372-5.112s-3.408-3.408-11.076-9.372s-2.557-1.704-3.408-5.111
		s0,0-10.225-7.669s0,0-15.336-1.703s0,0,0,5.111s1.704,2.557,5.112,7.668s0,0-7.668,1.704s0,0-4.26-1.704s-3.408,0.853-6.816-0.852
		s-4.26,0-13.632,0.852s0,0-8.521,1.704s0,0-8.52,6.816s0,0-5.112,2.556s-7.668,1.704-7.668,1.704s-7.668,0-17.04-4.26
		s0,0-4.261-0.853s-2.556,2.557-5.964,5.965s0,0-5.964,4.26s0,0-5.112,4.26s0,0-17.892,7.668c-1.908,0.818-3.39,1.453-4.56,1.954
		l-4.812,4.01c0.852-2.556-7.669,0.853,0.852-2.556c7.611-3.045-5.834,2.741,3.961-1.454l0.3-0.25c0,0,4.26-3.408,11.075-11.928
		s0,0,2.557-4.26s5.964-5.965,5.964-11.076s0,0-4.26-1.704s-4.261,1.704-6.816,0s0,0-12.78-0.853s0,0-21.3,5.964
		s-5.964,3.408-10.225,4.261s-5.111,3.408-7.668,5.111c-1.424,0.949-3.38,2.164-6.303,3.79c-3.38,5.252-6.497,10.74-10.656,15.141
		c-0.05,0.517-0.081,1.032-0.081,1.518c0,2.556,7.668-1.704,9.372,0s7.668-1.704,7.668-1.704l6.816-3.407
		c0,0,8.521-4.261,10.224-6.816s19.597-3.408,15.337-0.852s-12.78,11.075-17.893,17.04s-9.372,0.852-14.484,1.704
		s-12.779,5.111-23.855,5.964s-8.521,1.704-11.929,7.668s-16.188,8.52-17.892,5.964c-1.705-2.556-1.704-6.816-11.928-4.26
		c-2.2,0.55-4.313,1.55-6.313,2.789c-3.798,6.833-6.239,14.894-13.368,17.363c-0.703,0.244-1.412,0.398-2.122,0.504l-1.201,6.607
		l14.484,7.668c0,0,2.556-5.111,5.964-6.815s5.964-4.26,8.52-3.408c2.557,0.852,2.557,0.852,2.557,0.852s1.704,1.705,0,5.965
		s-7.668,8.52-7.668,8.52s-3.408-0.852-1.704,3.408s1.704,4.26,1.704,4.26s2.556,3.408,5.964,0s3.407-3.408,6.815-7.668
		s0.001-3.407,3.408-4.26c3.408-0.853,3.408-0.853,3.408-0.853l3.408,0.853c0,0,0.852,1.704-0.852,4.26
		c-1.705,2.556-2.557,1.704-4.26,5.112c-1.705,3.408,0,0.001-1.705,3.408c-1.703,3.407-1.703,0-2.556,5.964
		s-1.704-5.112-0.853,5.964c0.853,11.076-7.668,21.301,0.853,11.076s6.815-6.817,8.521-10.225c1.703-3.407-3.408-1.703,1.703-3.407
		c5.112-1.704-1.704-3.408,5.112-1.704s6.816,1.704,6.816,1.704s-3.409,3.407-6.816,6.815s-6.815,3.409-6.815,10.225
		s-11.076,0-0.853,9.372s10.225,8.521,14.484,9.372s0,4.26,4.26,0.852s3.407,1.703,4.26-3.408s0.853-5.111,0.853-5.111
		s2.556,3.407,2.556,6.815s-3.408,6.815-3.408,9.372s4.26-0.851,0,2.557s-4.26,3.407-4.26,3.407l-4.26,0.853
		c0,0-1.704-17.041-8.521-8.521s-4.26,5.112-6.816,8.521c-2.555,3.408-2.555,3.408-2.555,3.408l2.555,4.26
		c0,0-2.556-0.852,1.705,5.112c4.26,5.964-6.816-13.632,4.26,5.964s6.816,16.188,11.076,19.596s1.704,1.704,4.26,3.408
		s-0.853-1.704,2.556,1.704s1.705,6.815,5.965,7.668s-3.407-3.407,9.372,0.853s6.814,3.408,12.779,4.26s-13.631,10.224,5.965,0.852
		s13.632-3.408,19.596-9.372s5.111,3.408,5.964-5.964s-4.26-28.116-15.336-26.412s-11.929-8.52-14.484-11.928
		s-7.669-7.669-1.704-11.929s5.965-4.26,5.965-4.26s5.112-1.704,7.668,5.964s0.851,9.372,5.111,11.076s6.815,4.26,11.076,5.964
		s0.001,1.704,4.261,1.704s4.26,0,4.26,0s0-2.556,4.26-0.852s-0.001,5.112,4.26,1.704s3.409-5.965,5.965-8.521
		c2.282-2.282-2.224-1.169,1.034-2.118c0.39-0.114,0.884-0.255,1.521-0.438c5.964-1.704,0.852-5.964,5.964-1.704
		c0.912,0.76,1.544,1.24,2.001,1.555c2.104,1.448,0.312-0.795,3.111,2.705c3.408,4.26-3.407,3.407,3.408,4.26
		s6.815,0.853,6.815,0.853s-7.667-5.111,2.557-2.556s3.407-0.001,8.52,3.407c5.166,9.04,2.503,4.378,1.651,1.22
		c-0.271-1.009-0.359-1.865,0.053-2.071c1.704-0.852,2.557,1.704,5.964,3.408s4.261,4.26,4.261,4.26l5.111,2.556
		c0,0,0.853,5.965,1.704,8.521s2.557,4.26,3.408,7.668s1.704,5.964,1.704,5.964s3.408,4.26,4.26,8.521s4.261,3.408,5.112,9.372
		s2.556,4.26,1.704,11.928s11.076,3.408,12.78,0c0,0,3.408,0.853,4.26-2.556s0.852-5.964,1.704-11.076s0.852-2.557,1.704-7.668
		s0,0,0.852-3.408s0,0-0.852-5.964s0,0,0-2.557s1.704-3.407,0.852-5.964s2.557-7.668,2.557-11.076s3.407-2.556,5.964-4.26
		s12.78-4.26,12.78-4.26l9.521-15.682l-0.438-1.117l1.243-0.209l-0.805,1.326l5.815,14.829l16.188,6.816
		c0,0,4.261-6.816,7.668-8.521s4.259-7.668,6.815,0s3.408,5.111,6.816,7.668s4.259,1.704,8.52,1.704s4.261,0,4.261,0
		c7.069-7.069-3.454-24.102-8.704-30.672c0.576,0,1.19,0,1.888,0c7.668,0,0,0,16.188-22.152s0,0-3.408-11.928s0,0,0.852-9.372
		s-3.407-5.964-3.407-5.964s0,0-1.704-2.557s7.668-9.372,7.668-9.372s0,0,7.668-17.892c0.616-1.438,1.124-2.623,1.553-3.628
		c-0.194-0.378-0.394-0.753-0.59-1.129C455.606,384.414,454.179,385.852,453.322,384.996z"/>
	
		<pattern  id="SVGID_4_" xlink:href="#New_Pattern_5" patternTransform="matrix(0.8875 -0.4608 0.4608 0.8875 2316.0889 -4317.5532)">
	</pattern>
	<path fill="url(#SVGID_4_)" d="M453.322,384.996c-2.557-2.557,0,0-0.852-3.407s0,0-1.704-5.965s0,0-13.632-13.632s0,0-2.557-3.408
		s-1.704-4.26-5.111-11.076s0,0-6.816-6.815c-1.271-1.271-2.062-2.062-2.539-2.538c-0.007-0.008-0.017-0.017-0.023-0.023
		c-0.301-0.301-0.474-0.475-0.554-0.555c-0.019-0.019-0.039-0.039-0.059-0.059c-0.076-0.076-0.144-0.144-0.233-0.233
		c-3.408-3.408,0,0-1.704-5.964s0,0-6.815-5.112s-3.408-1.704-9.372-5.112s-3.408-3.408-11.076-9.372s-2.557-1.704-3.408-5.111
		s0,0-10.225-7.669s0,0-15.336-1.703s0,0,0,5.111s1.704,2.557,5.112,7.668s0,0-7.668,1.704s0,0-4.26-1.704s-3.408,0.853-6.816-0.852
		s-4.26,0-13.632,0.852s0,0-8.521,1.704s0,0-8.52,6.816s0,0-5.112,2.556s-7.668,1.704-7.668,1.704s-7.668,0-17.04-4.26
		s0,0-4.261-0.853s-2.556,2.557-5.964,5.965s0,0-5.964,4.26s0,0-5.112,4.26s0,0-17.892,7.668c-1.908,0.818-3.39,1.453-4.56,1.954
		l-4.812,4.01c0.852-2.556-7.669,0.853,0.852-2.556c7.611-3.045-5.834,2.741,3.961-1.454l0.3-0.25c0,0,4.26-3.408,11.075-11.928
		s0,0,2.557-4.26s5.964-5.965,5.964-11.076s0,0-4.26-1.704s-4.261,1.704-6.816,0s0,0-12.78-0.853s0,0-21.3,5.964
		s-5.964,3.408-10.225,4.261s-5.111,3.408-7.668,5.111c-1.424,0.949-3.38,2.164-6.303,3.79c-3.38,5.252-6.497,10.74-10.656,15.141
		c-0.05,0.517-0.081,1.032-0.081,1.518c0,2.556,7.668-1.704,9.372,0s7.668-1.704,7.668-1.704l6.816-3.407
		c0,0,8.521-4.261,10.224-6.816s19.597-3.408,15.337-0.852s-12.78,11.075-17.893,17.04s-9.372,0.852-14.484,1.704
		s-12.779,5.111-23.855,5.964s-8.521,1.704-11.929,7.668s-16.188,8.52-17.892,5.964c-1.705-2.556-1.704-6.816-11.928-4.26
		c-2.2,0.55-4.313,1.55-6.313,2.789c-3.798,6.833-6.239,14.894-13.368,17.363c-0.703,0.244-1.412,0.398-2.122,0.504l-1.201,6.607
		l14.484,7.668c0,0,2.556-5.111,5.964-6.815s5.964-4.26,8.52-3.408c2.557,0.852,2.557,0.852,2.557,0.852s1.704,1.705,0,5.965
		s-7.668,8.52-7.668,8.52s-3.408-0.852-1.704,3.408s1.704,4.26,1.704,4.26s2.556,3.408,5.964,0s3.407-3.408,6.815-7.668
		s0.001-3.407,3.408-4.26c3.408-0.853,3.408-0.853,3.408-0.853l3.408,0.853c0,0,0.852,1.704-0.852,4.26
		c-1.705,2.556-2.557,1.704-4.26,5.112c-1.705,3.408,0,0.001-1.705,3.408c-1.703,3.407-1.703,0-2.556,5.964
		s-1.704-5.112-0.853,5.964c0.853,11.076-7.668,21.301,0.853,11.076s6.815-6.817,8.521-10.225c1.703-3.407-3.408-1.703,1.703-3.407
		c5.112-1.704-1.704-3.408,5.112-1.704s6.816,1.704,6.816,1.704s-3.409,3.407-6.816,6.815s-6.815,3.409-6.815,10.225
		s-11.076,0-0.853,9.372s10.225,8.521,14.484,9.372s0,4.26,4.26,0.852s3.407,1.703,4.26-3.408s0.853-5.111,0.853-5.111
		s2.556,3.407,2.556,6.815s-3.408,6.815-3.408,9.372s4.26-0.851,0,2.557s-4.26,3.407-4.26,3.407l-4.26,0.853
		c0,0-1.704-17.041-8.521-8.521s-4.26,5.112-6.816,8.521c-2.555,3.408-2.555,3.408-2.555,3.408l2.555,4.26
		c0,0-2.556-0.852,1.705,5.112c4.26,5.964-6.816-13.632,4.26,5.964s6.816,16.188,11.076,19.596s1.704,1.704,4.26,3.408
		s-0.853-1.704,2.556,1.704s1.705,6.815,5.965,7.668s-3.407-3.407,9.372,0.853s6.814,3.408,12.779,4.26s-13.631,10.224,5.965,0.852
		s13.632-3.408,19.596-9.372s5.111,3.408,5.964-5.964s-4.26-28.116-15.336-26.412s-11.929-8.52-14.484-11.928
		s-7.669-7.669-1.704-11.929s5.965-4.26,5.965-4.26s5.112-1.704,7.668,5.964s0.851,9.372,5.111,11.076s6.815,4.26,11.076,5.964
		s0.001,1.704,4.261,1.704s4.26,0,4.26,0s0-2.556,4.26-0.852s-0.001,5.112,4.26,1.704s3.409-5.965,5.965-8.521
		c2.282-2.282-2.224-1.169,1.034-2.118c0.39-0.114,0.884-0.255,1.521-0.438c5.964-1.704,0.852-5.964,5.964-1.704
		c0.912,0.76,1.544,1.24,2.001,1.555c2.104,1.448,0.312-0.795,3.111,2.705c3.408,4.26-3.407,3.407,3.408,4.26
		s6.815,0.853,6.815,0.853s-7.667-5.111,2.557-2.556s3.407-0.001,8.52,3.407c5.166,9.04,2.503,4.378,1.651,1.22
		c-0.271-1.009-0.359-1.865,0.053-2.071c1.704-0.852,2.557,1.704,5.964,3.408s4.261,4.26,4.261,4.26l5.111,2.556
		c0,0,0.853,5.965,1.704,8.521s2.557,4.26,3.408,7.668s1.704,5.964,1.704,5.964s3.408,4.26,4.26,8.521s4.261,3.408,5.112,9.372
		s2.556,4.26,1.704,11.928s11.076,3.408,12.78,0c0,0,3.408,0.853,4.26-2.556s0.852-5.964,1.704-11.076s0.852-2.557,1.704-7.668
		s0,0,0.852-3.408s0,0-0.852-5.964s0,0,0-2.557s1.704-3.407,0.852-5.964s2.557-7.668,2.557-11.076s3.407-2.556,5.964-4.26
		s12.78-4.26,12.78-4.26l9.521-15.682l-0.438-1.117l1.243-0.209l-0.805,1.326l5.815,14.829l16.188,6.816
		c0,0,4.261-6.816,7.668-8.521s4.259-7.668,6.815,0s3.408,5.111,6.816,7.668s4.259,1.704,8.52,1.704s4.261,0,4.261,0
		c7.069-7.069-3.454-24.102-8.704-30.672c0.576,0,1.19,0,1.888,0c7.668,0,0,0,16.188-22.152s0,0-3.408-11.928s0,0,0.852-9.372
		s-3.407-5.964-3.407-5.964s0,0-1.704-2.557s7.668-9.372,7.668-9.372s0,0,7.668-17.892c0.616-1.438,1.124-2.623,1.553-3.628
		c-0.194-0.378-0.394-0.753-0.59-1.129C455.606,384.414,454.179,385.852,453.322,384.996z"/>
</g>
<path fill="#ECF5FB" d="M419.534,337.576c0.08,0.08,0.253,0.254,0.554,0.555C419.913,337.955,419.651,337.693,419.534,337.576z"/>
<path fill="#33A2D7" d="M298.616,656.831c-29.872,15.51-55.522,27.824-86.93,34.378c20.968,6.9,37.951,9.229,61.201,9.229
	c118.553,0,214.66-97.005,214.66-216.667c0-18.924-2.428-37.27-6.946-54.765C455.747,523.797,392.437,608.12,298.616,656.831z"/>
<path fill="#33A2D7" d="M95.747,381.752c4.6,4.575,10.935,8.631,17.122,7.712l0.503-2.765c2.006-2.675,7.693-10.581,14.987-15.103
	c1.015-1.825,2.121-3.567,3.446-5.087c10.876-12.47,32.173-6.996,46.092-15.945c2.022-1.301,3.797-2.859,5.42-4.575
	c0.212-2.209,0.771-4.446,0.771-4.446s-7.669-1.704,0.852-5.964c3.773-1.887,6.709-3.438,9.033-4.73
	c1.243-1.933,2.522-3.834,3.906-5.632c6.202-8.055,14.564-14.127,22.805-20.083c9.555-6.906,21.409-14.153,32.36-9.782
	c6.047,2.415,20.152-10.937,35.531-27.147c-7.133-0.723-14.367-1.1-21.688-1.1c-34.855,0-67.765,8.393-96.867,23.273
	c-0.373,5.438,1.084,10.568,5.542,13.552l1.08-1.133c-0.925,7.756-10.004,11.383-17.704,12.693
	c-9.601,1.635-19.387,2.128-29.104,1.525c-18.062,15.14-33.62,33.212-45.966,53.493C88.315,373.469,91.892,377.917,95.747,381.752z"
	/>
<path fill="#33A2D7" d="M461.761,387.765c-7.716,18.114-7.716,18.114-7.716,18.114s-9.431,6.901-7.716,9.489
	c1.715,2.589,1.715,2.589,1.715,2.589s4.285-3.451,3.429,6.038c-0.857,9.489-4.287-2.588-0.857,9.489
	c3.43,12.076,19.72-10.353,3.43,12.076s-8.574,22.429-16.29,22.429c-0.702,0-1.32,0-1.899,0c5.282,6.652,15.872,23.897,8.759,31.055
	c0,0-3.692,3.715-3.808,3.831c0.115-0.116,3.808-3.831,3.808-3.831s0,0-4.288,0c-4.287,0-5.144,0.863-8.573-1.725
	c-3.43-2.589-4.286,0-6.859-7.764c-2.572-7.764-3.429-1.726-6.857,0c-3.429,1.725-7.717,8.626-7.717,8.626l-16.29-6.901
	l-5.852-15.014l-9.581,15.877c0,0-10.288,2.588-12.86,4.313c-2.573,1.725-6.001,0.862-6.001,4.312c0,3.451-3.431,8.626-2.573,11.215
	c0.858,2.588-0.856,3.449-0.856,6.038c0,2.588-0.857-3.45,0,2.588c0.856,6.039,1.714,2.588,0.856,6.039
	c-0.856,3.45,0.001-1.725-0.856,3.45c-0.858,5.175-0.857,2.588-1.715,7.764c-0.858,5.177-0.858,7.764-1.715,11.215
	c-0.857,3.45-4.287,2.587-4.287,2.587c-1.715,3.451-13.718,7.764-12.86,0c0.856-7.764-0.858-6.038-1.715-12.076
	c-0.857-6.038-4.288-5.175-5.145-9.489c-0.856-4.313-4.286-8.627-4.286-8.627s-0.858-2.587-1.715-6.038
	c-0.857-3.45-2.573-5.176-3.43-7.764c-0.857-2.588-1.715-8.627-1.715-8.627l-5.144-2.587c0,0-0.859-2.588-4.288-4.313
	c-3.43,1.726,0,0-2.571,0.862c-2.23,0.747-0.6,0.196-3.482-2.216c0.856,3.197,3.536,7.918-1.662-1.234
	c-5.145-3.451,1.715-0.862-8.573-3.45s-2.572,2.588-2.572,2.588s0,0-6.858-0.863s0,0-3.43-4.313
	c-2.817-3.543-1.015-1.272-3.131-2.738c-2.455,1.965-5.128,3.467-9.546,0.594c-3.278,0.961,1.256-0.166-1.041,2.145
	c-2.572,2.588-1.715,5.177-6.002,8.627c-4.288,3.451,0,0-4.287-1.726c-4.286-1.725-4.286,0.862-4.286,0.862s0,0-4.287,0
	c-4.286,0,0,0-4.287-1.725c-4.288-1.726-6.858-4.313-11.146-6.039c-4.288-1.725-2.572-3.45-5.144-11.214
	c-2.572-7.764-7.717-6.038-7.717-6.038s0,0-6.002,4.312c-6.003,4.312-0.857,8.627,1.715,12.077
	c2.571,3.451,3.43,13.803,14.575,12.077s16.29,17.253,15.433,26.741c-0.858,9.489,0,0-6.002,6.039c-6.001,6.038,0,0-19.719,9.488
	c-19.719,9.489,0,0-6.002-0.862c-6.003-0.861,0,0-12.86-4.312c-12.859-4.312-5.144,0-9.431-0.863c0,0,29.15,15.528-1.715,31.056
	s-37.725,46.582-35.152,56.071c2.572,9.488,1.714,41.406-1.715,35.368s-59.829-44.034-71.833-82.853c0,0,9.246-30.154,0.672-44.818
	c-8.573-14.664-16.289-21.565-16.289-21.565c1.714-2.588-0.858-84.538,22.291-99.204c23.148-14.665,45.44,7.764,40.296,20.704
	c-5.145,12.939,6.002,32.78,10.288,36.23c4.287,3.451-10.289-8.626,5.145-9.489c15.433-0.863,7.716,20.703,11.146,48.308
	s36.867,30.192,36.867,30.192c-4.286-0.863-2.572-4.312-6.002-7.764c-3.43-3.45,0,0-2.572-1.726c-2.571-1.725,0,0-4.286-3.45
	c-4.287-3.451,0,0-11.146-19.841c-11.146-19.84,0,0-4.287-6.038s-1.715-5.176-1.715-5.176l-2.571-4.313c0,0,0,0,2.571-3.45
	c2.572-3.451,0,0,6.859-8.627s8.574,8.627,8.574,8.627l4.286-0.863c0,0,0,0,4.287-3.45c4.286-3.449,0,0,0-2.588
	c0-2.589,3.43-6.038,3.43-9.489s-2.572-6.9-2.572-6.9s0,0-0.857,5.175c-0.858,5.175,0,0-4.287,3.451c-4.286,3.45,0,0-4.286-0.862
	c-4.287-0.862-4.288,0-14.576-9.489s0.857-2.589,0.857-9.489s3.43-6.901,6.859-10.352c3.429-3.451,6.859-6.9,6.859-6.9
	s0,0-6.859-1.726s0,0-5.145,1.726c-5.144,1.725,0,0-1.715,3.449c-1.715,3.45,0,0-8.573,10.353c-8.573,10.352,0,0-0.857-11.215
	c-0.857-11.214,0,0,0.857-6.038s0.857-2.589,2.572-6.038c1.715-3.45,0,0,1.715-3.451c1.715-3.45,2.571-2.588,4.286-5.176
	s0.857-4.313,0.857-4.313l-3.43-0.862c0,0,0,0-3.429,0.862c-3.429,0.863,0,0-3.43,4.313c-3.429,4.312-3.429,4.312-6.858,7.764
	c-3.43,3.45-6.002,0-6.002,0s0,0-1.715-4.313c-1.715-4.312,1.715-3.45,1.715-3.45s6.002-4.313,7.717-8.626s0-6.039,0-6.039
	s0,0-2.572-0.862s-5.145,1.726-8.574,3.45c-3.43,1.726-6.001,6.901-6.001,6.901l-14.575-7.764l1.209-6.69
	c-6.227,0.931-12.602-3.176-17.23-7.808c-3.879-3.884-7.478-8.387-11.953-11.384c-20.189,33.369-31.84,72.639-31.84,114.675
	c0,97.396,69.663,177.409,156.153,206.051c31.604-6.636,55.688-15.128,85.747-30.831c94.41-49.319,158.119-134.693,183.13-230.668
	c-4.106-15.994-9.923-31.288-17.278-45.645C462.893,385.109,462.381,386.308,461.761,387.765z"/>
<path fill="#33A2D7" d="M253.045,295.352c-10.951-4.371-22.806,2.876-32.36,9.782c-8.24,5.956-16.603,12.028-22.805,20.083
	c-1.384,1.798-2.663,3.699-3.906,5.632c2.923-1.626,4.879-2.841,6.303-3.79c2.557-1.703,3.407-4.259,7.668-5.111
	s-11.075,1.703,10.225-4.261s8.52-6.816,21.3-5.964s10.225-0.852,12.78,0.853s2.557-1.704,6.816,0s4.26-3.407,4.26,1.704
	s-3.407,6.816-5.964,11.076s4.259-4.26-2.557,4.26s-11.075,11.928-11.075,11.928l-0.3,0.25c1.17-0.501,2.651-1.136,4.56-1.954
	c17.892-7.668,12.779-3.408,17.892-7.668s-0.852,0,5.112-4.26s2.556-0.852,5.964-4.26s1.703-6.817,5.964-5.965
	s-5.111-3.407,4.261,0.853s17.04,4.26,17.04,4.26s2.556,0.852,7.668-1.704s-3.407,4.261,5.112-2.556s-0.001-5.112,8.52-6.816
	s-0.852-0.853,8.521-1.704s10.224-2.556,13.632-0.852s2.557-0.853,6.816,0.852s-3.408,3.408,4.26,1.704s11.076,3.407,7.668-1.704
	s-5.112-2.557-5.112-7.668s-15.336-6.814,0-5.111s5.111-5.966,15.336,1.703s9.373,4.262,10.225,7.669s-4.26-0.853,3.408,5.111
	s5.112,5.964,11.076,9.372s2.557,0,9.372,5.112s5.111-0.852,6.815,5.112s-1.704,2.556,1.704,5.964
	c0.09,0.09,0.157,0.157,0.233,0.233c0.02,0.02,0.04,0.04,0.059,0.059c0.426,0.426,0.641,0.641,0.704,0.704
	c0.016,0.016,0.026,0.026,0.022,0.022c0.004,0.004-0.007-0.007-0.022-0.022c-0.024-0.024-0.07-0.07-0.127-0.126
	c0.478,0.477,1.268,1.267,2.539,2.538c6.816,6.815,3.409-0.001,6.816,6.815s2.555,7.668,5.111,11.076s-11.075-10.224,2.557,3.408
	s11.928,7.667,13.632,13.632s0.853,2.558,1.704,5.965s-1.705,0.851,0.852,3.407c0.856,0.856,2.284-0.582,3.52-2.2
	c-32.774-62.682-95.1-107.179-168.266-114.591C273.197,284.416,259.092,297.767,253.045,295.352z"/>
<path fill="#33A2D7" d="M146.601,373.068c1.703,2.556,14.483,0,17.892-5.964s0.853-6.815,11.929-7.668s18.743-5.111,23.855-5.964
	s9.372,4.261,14.484-1.704s13.633-14.483,17.893-17.04s-13.634-1.704-15.337,0.852s-10.224,6.816-10.224,6.816l-6.816,3.407
	c0,0-5.964,3.408-7.668,1.704s-9.372,2.556-9.372,0c0-0.485,0.031-1.001,0.081-1.518c-1.623,1.716-3.397,3.274-5.42,4.575
	c-13.919,8.949-35.216,3.476-46.092,15.945c-1.325,1.52-2.432,3.262-3.446,5.087c2-1.239,4.113-2.239,6.313-2.789
	C144.896,366.251,144.896,370.512,146.601,373.068z"/>
<path fill="#33A2D7" d="M158.938,315.491c7.7-1.311,16.779-4.938,17.704-12.693l-1.08,1.133c-4.458-2.983-5.915-8.113-5.542-13.552
	c-14.405,7.365-27.877,16.318-40.187,26.638C139.552,317.619,149.338,317.125,158.938,315.491z"/>
<path fill="#36A9E1" d="M456.842,382.795c0.196,0.376,0.396,0.751,0.59,1.129C460.551,376.615,458.997,379.969,456.842,382.795z"/>
<path fill="#36A9E1" d="M420.111,338.154c0.057,0.056,0.103,0.102,0.127,0.126c-0.063-0.063-0.278-0.278-0.704-0.704
	c0.117,0.117,0.379,0.379,0.554,0.555C420.095,338.137,420.104,338.146,420.111,338.154z"/>
<path fill="#36A9E1" d="M297.405,487.237c-0.412,0.206-0.324,1.062-0.053,2.071c2.865,2.382,1.244,2.927,3.461,2.188
	c2.556-0.852-0.853,0.853,2.556-0.852C299.962,488.941,299.109,486.385,297.405,487.237z"/>
<path fill="#36A9E1" d="M239.469,343.248c-8.521,3.408,0,0-0.852,2.556l4.812-4.01C233.635,345.989,247.08,340.203,239.469,343.248z
	"/>
<path fill="#36A9E1" d="M263.325,479.569c-0.638,0.183-1.132,0.323-1.521,0.438c4.391,2.838,7.047,1.354,9.486-0.587
	c-0.457-0.314-1.089-0.795-2.001-1.555C264.177,473.605,269.289,477.865,263.325,479.569z"/>
<polygon fill="#36A9E1" points="382.316,473.846 382.755,474.963 383.56,473.637 "/>
<g>
	<g>
		<g>
			<g>
				<path fill="#FEF2B7" d="M61.968,66.34c-0.428,0.12-0.057,6.88-17.552,17.586c-2.743,1.678,29.905,16.297,28.211,9.779
					c-4.264-16.406,0.122-23.489,0.122-23.489L61.968,66.34z"/>
				<path fill="#FEF2B7" d="M37.666,97.911c0.231,0.31,12.447,11.81,30.752,12.027c0,0,18.413-13.746-8.511-23.5
					C34.122,77.097,37.247,97.343,37.666,97.911z"/>
				<path fill="#FEF2B7" d="M88.659,66.509c-0.067-0.026-0.135-0.054-0.198-0.085c-1.02-0.482-5.567-0.301-4.005-4.894
					c1.131-3.327,6.092-5.327,12.957-8.102c13.783-5.56,24.944-11.032,21.95-21.726c-0.825-2.956-2.233-3.952-2.778-3.804
					c-0.459,0.124-1.128,1.39-0.587,3.741c0.604,2.623-0.376,4.293-1.306,5.235c-3.69,3.729-13.264,1.961-15.146,1.568l1.01-4.341
					c4.284,0.889,9.723,0.978,10.986-0.301c0.087-0.088,0.285-0.291,0.104-1.078c-1.197-5.206,1.158-8.368,3.852-9.102
					c2.897-0.792,6.546,1.008,8.168,6.802c4.321,15.42-10.767,20.661-22.306,25.316c-3.931,1.587-12.224,5.78-12.68,7.127
					c-0.218,0.633,2.557-0.378,2.547,0.222c-0.012,0.532,3.566-2.001,3.566-2.001c1.025,0.882,1.189,2.321,0.401,3.5
					C94.079,66.252,90.904,67.417,88.659,66.509z"/>
				<path fill="#FEF2B7" d="M67.969,14.541l34.606,13.857c0,0-8.098,49.052-36.009,38.394
					C38.657,56.135,67.969,14.541,67.969,14.541z"/>
				<path fill="#FEF2B7" d="M61.85,63.623c0.033,0.545-3.628,5.706,3.355,8.256c6.981,2.552,9.788-4.944,9.788-4.944L61.85,63.623z"
					/>
				<path fill="#FEF2B7" d="M50.136,54.179c0.067,0.028,0.134,0.055,0.201,0.077c1.072,0.362,3.801,0.738,6.045-3.579
					c1.625-3.126-0.416-7.954-3.242-14.64c-5.675-13.407-9.562-24.955,0.346-30.444c2.737-1.517,4.458-1.251,4.733-0.772
					c0.233,0.406-0.215,1.759-2.311,3.046c-2.337,1.436-2.864,3.292-2.894,4.594c-0.117,5.175,7.93,10.517,9.543,11.536l2.455-3.76
					c-3.672-2.324-7.576-6.003-7.535-7.778c0-0.119,0.009-0.399,0.71-0.831c4.642-2.85,5.282-6.701,3.917-9.075
					c-1.468-2.552-5.353-3.795-10.723-0.819c-14.291,7.911-7.111,24.876-2.361,36.104c1.616,3.829,4.063,9.611,3.407,10.875
					c-0.312,0.597-0.566,0.94-0.739,1.133c-0.183-0.258-1.934-3.714-1.934-3.714c-1.365-0.082-2.531,0.821-2.834,2.197
					C46.496,50.268,47.887,53.273,50.136,54.179z"/>
			</g>
		</g>
	</g>
</g>
<path fill="none" stroke="#000000" stroke-miterlimit="10" d="M58.2,40.213c0,0,9.717-12.954,9.717-3.778l-0.541,8.636
	c0,0,9.176-9.715,11.875-7.017c0,0,1.619,3.238,0.54,10.795c0,0,8.636-6.477,9.716-4.857c0,0-0.54,6.477-0.54,7.556"/>
<path fill="none" stroke="#000000" stroke-miterlimit="10" d="M65.757,24.561c0,0,17.812,8.096,29.688,11.875"/>
<path fill="none" stroke="#000000" stroke-miterlimit="10" d="M42.548,88.251c0,0,12.954,9.175,28.607,10.255"/>
<path fill="#3092CB" d="M91.126,95.268"/>
<polyline fill="#E30613" points="192.6,131.971 178.565,119.017 169.93,142.227 187.922,140.469 "/>
<path fill="#FFFFFF" d="M104.611,56.225c0,0-7.054-3.527-0.705-8.465c0,0,0.177-7.407,7.054-4.762l3.527,1.411l-2.115,1.764
	l2.998,4.762C115.37,50.934,112.548,56.401,104.611,56.225z"/>
<path fill="#FFFFFF" d="M110.96,50.581c0,0,3.528-5.644,7.938-2.822c0,0,5.29,1.234-1.412,10.582c0,0,25.043,43.384,60.315,64.372
	c0,0,1.058,6.173-3.88,12.875c0,0-34.566-28.746-61.373-73.013c0,0-6.878,2.997-8.642-3l1.587-5.82L110.96,50.581z"/>
<path fill="#FFFFFF" d="M98.672,51.792c0,0,0.396,2.767,1.976,4.347c0,0,1.316,0.592,2.027-0.884l-0.656-3.28l1.367-0.93
	C103.386,51.044,99.462,47.642,98.672,51.792z"/>
<path fill="#FFFFFF" d="M103.729,54.989l-2.004,0.678c0,0,0.417,8.14,6.942,7.611s1.411-8.642,1.411-8.642"/>
<path fill="#FFFFFF" stroke="#000000" stroke-linecap="round" stroke-miterlimit="10" d="M116.138,47.039
	c0,0-7.577,0.14-9.822,3.789c0,0,0.421,4.771,7.998,1.824"/>
<path fill="none" stroke="#000000" stroke-miterlimit="10" d="M112.489,53.493c0.141,0.421-6.174,4.911,0.421,7.577"/>
<path fill="#FFFFFF" stroke="#000000" stroke-linecap="round" stroke-miterlimit="10" d="M110.806,48.161
	c0.141,0.281,3.367,2.386-0.982,3.929l-2.104,0.702"/>
<polygon fill="#ECF5FB" points="106.242,141.55 75.253,160.531 82.226,162.467 125.223,149.685 "/>
<g>
</g>
<g>
</g>
<g>
</g>
<g>
</g>
<g>
</g>
<g>
</g>
</svg>
