<?xml version="1.0" encoding="utf-8"?>
<!-- Generator: Adobe Illustrator 16.0.4, SVG Export Plug-In . SVG Version: 6.00 Build 0)  -->
<!DOCTYPE svg PUBLIC "-//W3C//DTD SVG 1.1//EN" "http://www.w3.org/Graphics/SVG/1.1/DTD/svg11.dtd">
<svg version="1.1" id="bubble1" xmlns="http://www.w3.org/2000/svg" xmlns:xlink="http://www.w3.org/1999/xlink" x="0px" y="0px"
	 width="2554.794px" height="1700.788px" viewBox="0 0 2554.794 1700.788" enable-background="new 0 0 2554.794 1700.788"
	 xml:space="preserve">
<g>
	<g>
		<path fill="#F9FCFC" d="M796.023,185.096c116.149,0,210.306,79.024,210.306,176.506c0,62.092-53.282,130.002-78.848,137.672
			c14.618,33.824,72.375,111.334,76.698,132.943c-30.189-27.01-140.614-102.264-140.16-103.545
			c-21.33,6.113-44.2,9.436-67.997,9.436c-116.148,0-210.305-79.023-210.305-176.506
			C585.718,264.121,679.875,185.096,796.023,185.096z"/>
		<g>
			<path fill="#1D1B3A" d="M796.023,187.226c48.051,0.144,95.788,13.817,135.143,41.734c35.133,24.921,61.779,61.772,70.308,104.333
				c7.094,35.402-1.316,70.145-18.064,101.602c-7.949,14.929-17.709,29.006-29.129,41.488c-7.429,8.12-16.574,17.432-27.366,20.837
				c-1.422,0.448-1.832,1.851-1.273,3.129c10.885,24.906,27.278,47.692,41.862,70.508c7.734,12.101,15.474,24.211,22.694,36.628
				c4.545,7.817,10.016,16.331,11.928,25.299c1.187-0.691,2.374-1.382,3.561-2.073c-24.748-22.046-52.735-40.844-79.658-60.08
				c-13.862-9.903-27.781-19.727-41.668-29.595c-4.519-3.212-9.037-6.425-13.516-9.691c-1.291-0.941-2.577-1.89-3.846-2.86
				c-1.487-1.139-0.947-1.521-0.848,0.188c-0.08-1.362-1.302-2.448-2.697-2.054c-93.358,26.375-209.431-4.459-257.649-94.07
				c-20.367-37.853-23.3-82.892-8.469-123.158c15.206-41.284,48.173-73.9,86.336-94.607
				C717.987,196.164,757.114,187.342,796.023,187.226c2.747-0.008,2.748-4.269,0-4.26c-87.388,0.261-181.156,48.444-206.66,137.086
				c-11.499,39.963-5.245,83.05,15.177,119.013c21.221,37.371,56.779,65.615,96.052,82.162
				c51.555,21.722,110.242,24.686,163.995,9.499c-0.899-0.685-1.798-1.369-2.697-2.054c0.119,2.04,2.903,3.46,4.326,4.524
				c3.803,2.846,7.682,5.594,11.549,8.353c13.173,9.4,26.405,18.718,39.587,28.105c28.187,20.072,57.212,39.748,83.426,62.4
				c0.637,0.55,1.267,1.108,1.896,1.669c1.618,1.44,4.012,0.043,3.561-2.073c-1.852-8.683-6.987-16.918-11.327-24.527
				c-7.243-12.698-15.164-25.011-23.029-37.328c-14.801-23.181-31.501-46.299-42.557-71.597c-0.424,1.043-0.849,2.086-1.273,3.129
				c14.904-4.701,27-18.7,36.518-30.355c14.633-17.922,26.253-38.409,34.333-60.073c15.583-41.78,10.83-86.949-10.774-125.674
				c-37.729-67.629-117.096-102.035-192.101-102.259C793.275,182.958,793.276,187.218,796.023,187.226z"/>
		</g>
	</g>
	<g>
		<g>
			<path fill="#EFEA77" d="M825.479,442.311c-14.298,6.09-38.425,0.719-38.425,0.719s-8.086-27.527-26.98-57.498
				c-26.054-41.338-12.881-110.963,44.458-107.998c59.771,3.091,72.442,63.205,45.922,110.635
				C830.563,423.745,826.531,441.862,825.479,442.311z"/>
			<g>
				<path fill="#1D1B3A" d="M824.912,440.257c-11.436,4.553-25.471,3.31-37.292,0.719c0.496,0.495,0.992,0.991,1.488,1.487
					c-5.135-17.348-13.268-34.121-22.223-49.765c-5.398-9.432-10.883-18.021-14.003-28.534c-2.64-8.898-3.687-18.199-3.432-27.462
					c0.479-17.374,6.711-35.188,20.245-46.629c15.477-13.084,38.602-12.684,56.712-5.993c31.557,11.659,39.538,47.393,32.445,77.13
					c-4.598,19.275-16.225,35.848-24.428,53.665c-2.782,6.044-5.345,12.191-7.691,18.417c-0.682,1.81-1.333,3.63-1.992,5.447
					c-0.434,1.199-1.493,2.501-0.338,1.731c-2.274,1.516-0.144,5.208,2.15,3.68c2.229-1.485,2.953-6.113,3.8-8.416
					c3.144-8.538,6.799-16.867,10.742-25.064c5.382-11.191,12.206-21.749,16.905-33.251c3.732-9.135,6.184-18.616,7.271-28.425
					c1.941-17.516-1.615-36.096-12.344-50.346c-11.506-15.282-29.793-22.139-48.398-23.245c-17.131-1.02-33.713,5.296-44.721,18.625
					c-10.508,12.724-14.621,29.698-14.669,45.914c-0.057,19.055,6.465,35.581,16.143,51.632
					c9.748,16.168,18.339,33.857,23.716,52.021c0.203,0.687,0.764,1.329,1.488,1.487c12.535,2.748,27.417,4.115,39.558-0.719
					C828.565,443.362,827.467,439.24,824.912,440.257z"/>
			</g>
		</g>
		<g>
			<path fill="#F4EDE1" d="M836.123,350.104c7.343,13.445-14.057,11.441-16.203-4.525c9.197,9.697-16.359,25.572-16.461,1.49
				c8.657,9.125-11.704,22.486-13.077,1.631c0.923,4.963-1.005,10.354-6.178,12.324"/>
			<g>
				<path fill="#1D1B3A" d="M834.283,351.179c2.163,4.25,0.812,6.656-3.899,5.175c-4.923-1.547-7.619-6.597-8.41-11.342
					c-1.187,0.691-2.374,1.382-3.561,2.073c3.288,3.772-0.278,8.39-4.102,9.97c-6.726,2.779-8.598-4.91-8.723-9.986
					c-1.212,0.502-2.424,1.004-3.637,1.507c2.58,2.969,1.408,6.539-1.785,8.434c-5.335,3.166-7.329-4.65-7.656-8.31
					c-1.395,0.188-2.79,0.378-4.185,0.566c0.608,4.43-1.086,8.034-5.199,9.918c-2.495,1.144-0.329,4.815,2.15,3.68
					c5.963-2.732,8.011-8.513,7.157-14.73c-0.326-2.374-4.397-1.815-4.185,0.566c0.614,6.864,4.489,15.899,12.997,12.481
					c6.59-2.647,8.258-10.392,3.717-15.619c-1.231-1.417-3.681-0.275-3.637,1.507c0.207,8.385,4.853,17.922,14.71,13.849
					c6.787-2.805,10.643-10.814,5.388-16.846c-1.543-1.77-3.877,0.175-3.561,2.073c1.263,7.575,6.809,14.185,14.724,14.977
					c7.651,0.765,7.927-7.073,5.372-12.093C836.715,346.58,833.04,348.736,834.283,351.179L834.283,351.179z"/>
			</g>
		</g>
		<g>
			<g>
				<path fill="#1D1B3A" d="M837.957,345.685c-5.103,11.909-8.021,25.135-11.819,37.497c-4.388,14.28-8.248,28.96-13.693,42.887
					c-1.002,2.562,3.12,3.662,4.108,1.133c5.312-13.585,9.085-27.899,13.368-41.829c3.717-12.091,7.032-26.609,11.715-37.537
					C842.705,345.339,839.036,343.167,837.957,345.685L837.957,345.685z"/>
			</g>
		</g>
		<g>
			<g>
				<path fill="#1D1B3A" d="M775.407,348.766c2.364,12.536,7.303,24.986,10.982,37.177c4.317,14.302,9.295,28.642,12.537,43.239
					c0.596,2.682,4.703,1.544,4.108-1.133c-3.162-14.239-8.008-28.228-12.216-42.179c-3.783-12.539-8.871-25.344-11.302-38.237
					C779.006,344.935,774.9,346.082,775.407,348.766L775.407,348.766z"/>
			</g>
		</g>
		<g>
			<g>
				<path fill="#1D1B3A" d="M825.553,449.762c-5.913,3.075-14.555,2.265-20.987,2.134c-5.779-0.118-12.604,0.077-18.147-1.82
					c-2.607-0.893-3.716,3.224-1.133,4.107c6.25,2.14,13.945,1.864,20.447,1.997c6.934,0.141,15.615,0.566,21.971-2.738
					C830.142,452.173,827.987,448.497,825.553,449.762L825.553,449.762z"/>
			</g>
		</g>
		<g>
			<g>
				<path fill="#1D1B3A" d="M825.976,458.8c-10.625,3.206-25.266,4.568-35.854,0.568c-2.575-0.974-3.677,3.146-1.133,4.107
					c11.288,4.266,26.779,2.854,38.119-0.568C829.731,462.117,828.613,458.004,825.976,458.8L825.976,458.8z"/>
			</g>
		</g>
		<g>
			<g>
				<path fill="#1D1B3A" d="M826.538,468.199c-10.757,3.557-24.989,4.721-35.641,0.619c-2.568-0.989-3.669,3.131-1.133,4.107
					c11.308,4.355,26.491,3.156,37.906-0.619C830.266,471.449,829.154,467.333,826.538,468.199L826.538,468.199z"/>
			</g>
		</g>
		<g>
			<g>
				<path fill="#1D1B3A" d="M825.2,477.948c-9.539,4.616-23.122,5.119-32.491,0.201c-2.43-1.275-4.584,2.402-2.15,3.68
					c10.827,5.683,25.816,5.11,36.792-0.201C829.823,480.43,827.661,476.757,825.2,477.948L825.2,477.948z"/>
			</g>
		</g>
	</g>
</g>
</svg>
