<?xml version="1.0" encoding="utf-8"?>
<!-- Generator: Adobe Illustrator 16.0.4, SVG Export Plug-In . SVG Version: 6.00 Build 0)  -->
<!DOCTYPE svg PUBLIC "-//W3C//DTD SVG 1.1//EN" "http://www.w3.org/Graphics/SVG/1.1/DTD/svg11.dtd">
<svg version="1.1" id="bubble2" xmlns="http://www.w3.org/2000/svg" xmlns:xlink="http://www.w3.org/1999/xlink" x="0px" y="0px"
	 width="2554.794px" height="1700.788px" viewBox="0 0 2554.794 1700.788" enable-background="new 0 0 2554.794 1700.788"
	 xml:space="preserve">
<g>
	<g>
		<path fill="#F9FCFC" d="M1465.579,164.042c-127.873,0-231.534,87.001-231.534,194.322c0,68.359,42.063,128.465,105.645,163.105
			c-0.287,3.26-80.191,126.189-76.103,128.914c1.362-1.363,115.048-97.152,127.133-108.084c23.482,6.73,48.661,10.389,74.859,10.389
			c127.873,0,231.533-87.002,231.533-194.324C1697.112,251.043,1593.452,164.042,1465.579,164.042z"/>
		<g>
			<path fill="#1D1B3A" d="M1465.579,161.913c-88.548,0.239-182.122,44.263-219.277,128.456
				c-17.7,40.108-18.879,85.925-3.657,126.998c16.698,45.056,51.923,81.056,93.277,104.453c0.894,0.503,1.792,0.999,2.692,1.49
				c-0.326-0.803-0.653-1.604-0.979-2.406c-0.102,0.597-2.095,3.824-2.953,5.266c-2.559,4.296-5.196,8.546-7.829,12.797
				c-7.936,12.812-15.951,25.576-23.909,38.374c-8.53,13.719-17.029,27.459-25.305,41.333c-5.305,8.892-11.079,17.855-15.177,27.395
				c-0.685,1.594-2.046,4.354-0.382,5.822c0.885,0.781,2.135,0.842,3.013,0c4.856-4.651,10.317-8.795,15.445-13.137
				c11.616-9.835,23.239-19.662,34.858-29.494c23.401-19.803,46.861-39.544,70.083-59.559c2.262-1.949,4.529-3.895,6.746-5.895
				c-0.69,0.184-1.381,0.365-2.072,0.549c93.276,26.39,203.96,2.428,267.419-73.989c26.426-31.822,41.825-71.788,41.665-113.282
				c-0.159-41.538-16.758-81.127-43.297-112.67C1609.565,189.291,1536.405,162.104,1465.579,161.913
				c-2.748-0.008-2.747,4.253,0,4.26c90.349,0.245,186.986,47.3,219.523,136.211c14.729,40.249,12.603,85.106-4.937,124.098
				c-17.96,39.925-50.79,71.537-88.724,92.587c-43.9,24.361-94.965,34.076-144.841,30.847c-15.737-1.02-31.345-3.573-46.65-7.345
				c-3.244-0.799-8.422-3.844-11.28-1.289c-1.173,1.048-2.361,2.079-3.549,3.11c-9.202,7.991-18.506,15.867-27.792,23.761
				c-20.313,17.265-40.67,34.479-61.023,51.696c-11.351,9.603-23.483,18.739-34.227,29.03c1.004,0,2.008,0,3.013,0
				c1.106,0.975,0.15,1.728,0.926-0.338c0.554-1.475,1.295-2.889,2.005-4.293c2.34-4.629,4.934-9.133,7.528-13.622
				c7.624-13.192,15.624-26.17,23.631-39.133c13.71-22.196,28.394-43.966,41.229-66.688c0.458-0.811,1.173-1.834,1.332-2.769
				s-0.084-1.914-0.979-2.406c-43.433-23.844-79.658-61.29-95.902-108.698c-14.628-42.692-10.208-89.756,10.498-129.623
				c39.51-76.072,127.442-114.912,210.219-115.137C1468.326,166.166,1468.327,161.905,1465.579,161.913z"/>
		</g>
	</g>
	<g>
		<g>
			<path fill="#EFEA77" d="M1452.089,441.921c15.938,6.227,42.308-0.486,42.308-0.486s7.983-30.561,27.777-64.172
				c27.294-46.355,10.48-122.537-52.517-117.365c-65.672,5.391-77.615,71.965-46.852,123.276
				C1445.876,421.661,1450.915,441.462,1452.089,441.921z"/>
			<g>
				<path fill="#1D1B3A" d="M1451.522,443.976c13.457,4.918,29.792,2.943,43.44-0.486c0.709-0.179,1.303-0.785,1.487-1.488
					c4.58-17.394,11.982-34.272,20.153-50.228c5.095-9.948,11.157-19.181,14.889-29.771c2.987-8.478,4.598-17.419,5.217-26.37
					c2.321-33.534-13.934-70.778-49.949-77.184c-18.747-3.335-40.104,1.438-55.6,12.469c-14.124,10.054-22.572,25.85-25.464,42.715
					c-3.212,18.732,0.35,38.221,7.644,55.586c4.742,11.291,11.617,21.516,17.467,32.239c4.996,9.157,9.611,18.529,13.741,28.109
					c1.451,3.366,2.787,6.779,4.146,10.184c0.528,1.322,1.008,3.219,2.319,4.011c2.358,1.423,4.499-2.262,2.15-3.68
					c1.032,0.623-0.141-0.912-0.514-1.847c-0.966-2.416-1.918-4.836-2.912-7.239c-3.497-8.453-7.426-16.714-11.618-24.842
					c-5.946-11.528-13.196-22.377-18.841-34.047c-4.484-9.27-7.543-19.22-9.266-29.361c-3.115-18.348-0.631-38.029,9.616-53.819
					c11.272-17.371,31.278-25.514,51.289-26.991c18.739-1.383,36.555,5.807,47.887,20.974
					c10.709,14.332,14.394,32.963,13.759,50.535c-0.338,9.342-2.182,18.584-5.181,27.426c-3.853,11.36-10.743,21.357-16.115,32.012
					c-7.678,15.231-14.571,31.446-18.926,47.987c0.495-0.496,0.991-0.992,1.487-1.488c-12.943,3.254-28.416,5.149-41.175,0.486
					C1450.068,438.921,1448.964,443.041,1451.522,443.976z"/>
			</g>
		</g>
		<g>
			<path fill="#F4EDE1" d="M1437.306,340.809c-7.632,15.041,15.852,12.123,17.68-5.52c-9.797,10.978,18.854,27.597,18.163,1.093
				c-9.222,10.329,13.629,24.355,14.446,1.357c-0.851,5.495,1.451,11.361,7.209,13.357"/>
			<g>
				<path fill="#1D1B3A" d="M1435.466,339.734c-2.808,5.916-2.036,13.401,6.121,12.858c8.87-0.591,14.466-9.302,15.528-17.303
					c0.242-1.817-2.515-2.863-3.636-1.507c-5.5,6.652-1.134,15.23,6.31,18.047c10.799,4.085,15.561-6.318,15.489-15.447
					c-0.013-1.723-2.402-3.002-3.637-1.506c-4.688,5.686-2.854,13.739,4.115,16.613c9.368,3.863,13.541-6.201,13.968-13.75
					c0.158-2.786-3.966-2.669-4.26,0c-0.763,6.921,2.313,12.724,8.772,15.412c2.536,1.055,3.631-3.069,1.133-4.109
					c-4.773-1.985-6.171-6.525-5.646-11.303c-1.42,0-2.84,0-4.26,0c-0.263,4.639-1.813,11.928-8.005,9.877
					c-4.195-1.389-5.513-6.444-2.805-9.729c-1.213-0.502-2.425-1.004-3.637-1.506c0.047,6.086-1.789,14.025-9.502,11.563
					c-4.464-1.425-8.536-6.903-5.025-11.149c-1.212-0.503-2.424-1.005-3.636-1.507c-0.719,5.409-3.889,10.386-9.074,12.46
					c-5.307,2.122-6.789-1.329-4.636-5.865C1440.316,339.417,1436.644,337.252,1435.466,339.734L1435.466,339.734z"/>
			</g>
		</g>
		<g>
			<g>
				<path fill="#1D1B3A" d="M1431.313,338.327c1.738,3.727,3.429,9.493,4.951,13.915c3.094,8.99,6.144,17.996,9.21,26.996
					c5.241,15.381,9.95,31.187,16.336,46.146c1.076,2.521,4.745,0.347,3.68-2.15c-6.382-14.949-11.027-30.809-16.266-46.18
					c-3.038-8.916-6.062-17.836-9.126-26.742c-1.615-4.693-3.004-9.625-5.105-14.135
					C1433.833,333.688,1430.161,335.853,1431.313,338.327L1431.313,338.327z"/>
			</g>
		</g>
		<g>
			<g>
				<path fill="#1D1B3A" d="M1499.741,336.194c-0.736,4.728-2.309,9.426-3.533,14.04c-2.415,9.104-4.88,18.194-7.327,27.289
					c-4.27,15.863-9.271,31.793-12.343,47.947c-0.51,2.685,3.596,3.83,4.109,1.133c3.002-15.793,7.882-31.365,12.053-46.874
					c2.47-9.182,4.954-18.358,7.399-27.547c1.3-4.881,2.971-9.854,3.751-14.855C1504.269,334.64,1500.164,333.486,1499.741,336.194
					L1499.741,336.194z"/>
			</g>
		</g>
		<g>
			<g>
				<path fill="#1D1B3A" d="M1450.059,454.027c7.112,3.456,16.562,2.619,24.203,2.285c7.065-0.309,15.61-0.297,22.328-2.85
					c2.542-0.967,1.44-5.087-1.133-4.109c-6.091,2.315-13.605,2.271-20.017,2.639c-7.021,0.403-16.676,1.542-23.231-1.645
					C1449.749,449.152,1447.588,452.826,1450.059,454.027L1450.059,454.027z"/>
			</g>
		</g>
		<g>
			<g>
				<path fill="#1D1B3A" d="M1450.969,464.419c6.802,1.84,13.943,2.327,20.963,2.378c6.868,0.051,14.471-0.314,20.892-2.985
					c2.498-1.04,1.403-5.164-1.133-4.109c-11.508,4.788-27.786,3.801-39.589,0.607
					C1449.445,459.592,1448.319,463.703,1450.969,464.419L1450.969,464.419z"/>
			</g>
		</g>
		<g>
			<g>
				<path fill="#1D1B3A" d="M1450.665,474.781c12.897,3.865,29.653,4.526,42.127-0.76c2.522-1.069,0.349-4.738-2.15-3.68
					c-11.302,4.79-27.193,3.822-38.844,0.33C1449.159,469.881,1448.04,473.994,1450.665,474.781L1450.665,474.781z"/>
			</g>
		</g>
		<g>
			<g>
				<path fill="#1D1B3A" d="M1451.385,485.029c12.114,5.458,28.679,5.666,40.278-0.932c2.388-1.358,0.241-5.04-2.15-3.68
					c-10.151,5.775-25.296,5.745-35.978,0.932C1451.052,480.23,1448.883,483.901,1451.385,485.029L1451.385,485.029z"/>
			</g>
		</g>
	</g>
</g>
</svg>
