<?xml version="1.0" encoding="utf-8"?>
<!-- Generator: Adobe Illustrator 16.0.4, SVG Export Plug-In . SVG Version: 6.00 Build 0)  -->
<!DOCTYPE svg PUBLIC "-//W3C//DTD SVG 1.1//EN" "http://www.w3.org/Graphics/SVG/1.1/DTD/svg11.dtd">
<svg version="1.1" id="char2" xmlns="http://www.w3.org/2000/svg" xmlns:xlink="http://www.w3.org/1999/xlink" x="0px" y="0px"
	 width="2554.794px" height="1700.788px" viewBox="0 0 2554.794 1700.788" enable-background="new 0 0 2554.794 1700.788"
	 xml:space="preserve">
<g>
	<g>
		<path fill="#1D1B3A" d="M1163.778,905.494c0,0,33.847,3.632,36.667,7.993c2.821,4.358,36.253,110.218,48.656,114.087
			c10.449,3.264,51.829-78.846,66.637-79.389l14.279,14.715c0,0-57.116,111.727-82.502,105.184
			c-25.387-6.537-88.849-54.498-88.849-54.498S1160.959,903.131,1163.778,905.494z"/>
		<g>
			<path fill="#1D1B3A" d="M1163.778,907.842c5.57,0.602,11.123,1.377,16.652,2.276c3.903,0.636,7.792,1.376,11.632,2.325
				c1.637,0.405,5.875,1.341,6.469,2.428c1.301,2.384,2.368,6.12,3.406,9.032c2.198,6.166,4.349,12.35,6.527,18.521
				c5.661,16.04,11.429,32.049,17.753,47.841c4.722,11.791,9.323,24.887,17.042,35.129c1.599,2.122,3.863,4.837,6.827,4.6
				c3.511-0.281,6.407-3.512,8.631-5.926c9.513-10.329,16.905-22.829,24.683-34.455c7.981-11.929,15.772-24.776,26.061-34.9
				c1.406-1.384,2.904-2.654,4.63-3.616c1.769-0.986,1.564,0.375,0.03-1.207c0.604,0.623,1.208,1.245,1.812,1.867
				c4.142,4.268,8.283,8.535,12.424,12.803c-0.122-0.948-0.245-1.896-0.367-2.846c-10.49,20.503-22.139,40.54-34.808,59.766
				c-8.478,12.865-17.535,25.893-28.888,36.416c-3.6,3.337-7.796,6.73-12.665,7.909c-5.012,1.213-11.422-2.71-15.721-4.768
				c-27.072-12.953-52.165-31.438-76.056-49.479c0.388,0.676,0.775,1.352,1.163,2.027c0.361-17.325,0.832-34.649,1.4-51.97
				c0.403-12.286,0.852-24.573,1.527-36.848c0.238-4.316,0.504-8.635,0.906-12.939c0.117-1.254,0.244-2.509,0.445-3.752
				c0.527-3.269,0.241,1.205-2.7-0.556c2.605,1.56,4.965-2.502,2.37-4.055c-5.665-3.392-5.423,16.313-5.543,18.284
				c-0.929,15.238-1.412,30.507-1.891,45.765c-0.417,13.271-0.767,26.545-1.072,39.818c-0.047,2.066-0.616,4.836-0.054,6.876
				c0.61,2.219,5.217,4.487,6.853,5.688c13.33,9.797,26.914,19.266,40.833,28.206c7.876,5.059,15.893,9.921,24.163,14.312
				c5.988,3.18,12.395,6.485,19.045,8.025c9.746,2.258,19.447-7.981,25.338-14.222c10.924-11.57,19.947-25.022,28.507-38.381
				c11.137-17.38,21.498-35.374,30.903-53.754c0.49-0.959,0.4-2.055-0.367-2.846c-4.294-4.425-8.588-8.85-12.882-13.275
				c-3.111-3.205-6.225-1.814-9.511,0.702c-10.995,8.422-18.781,22.021-26.41,33.318c-8.689,12.867-16.755,26.61-27.053,38.289
				c-1.362,1.545-2.819,3.116-4.517,4.297c-1.298,0.902-1.382,0.909-2.188,0.358c-3.24-2.212-5.322-7.247-7.071-10.567
				c-14.019-26.602-23.063-56.144-33.01-84.431c-1.595-4.537-3.172-9.083-4.863-13.585c-1.055-2.807-1.783-4.977-4.658-6.363
				c-6.311-3.044-14.023-3.812-20.86-4.873c-4.94-0.767-9.905-1.427-14.876-1.965C1160.769,902.82,1160.8,907.52,1163.778,907.842z"
				/>
		</g>
	</g>
	<g>
		<path fill="#F4EDE1" d="M1308.335,956.361c1.411,3.635,7.756,10.172,10.577,11.624c11.988,4.361,16.217,4.365,27.501,9.448
			c10.576,3.636,24.678,6.54,35.962,4.362c4.936-0.73,38.785-5.088,43.719-5.814c6.349-0.729,2.116-5.087-13.398-13.081
			c-2.105-1.547-30.45-8.206-26.795-7.265c7.759,2.179-25.385-3.636-31.027-10.176c-0.703,0-1.409,0.727-1.409,0.727
			c14.808,0,52.886,4.361,45.833-7.266c-16.922-1.457-33.143-7.267-49.358-10.901c-4.232-0.727-2.822-1.453-6.346,0
			c-2.822,0.727-8.712,4.451-11.53,5.178c-3.527,2.182-18.448,10.603-24.833,18.278"/>
		<g>
			<path fill="#1B1D3A" d="M1306.308,957.546c1.734,3.795,4.834,6.996,7.86,9.795c3.69,3.413,8.505,4.484,13.214,5.911
				c11.537,3.497,22.49,8.438,34.418,10.541c16.91,2.98,35.358-1.624,52.204-3.841c3.314-0.437,6.628-0.875,9.94-1.322
				c1.9-0.257,4.144-0.275,5.769-1.4c5.693-3.938-4.574-9.977-7.153-11.566c-10.906-6.728-23.778-10.177-36.354-12.383
				c-2.511-0.441-4.256,2.898-1.81,4.291c0.368,0.21,1.67,0.649,1.486,0.508c-0.28-1.07-0.562-2.142-0.842-3.213
				c0.826-1.679,2.616-0.943,0.578-1.268c-1.057-0.168-2.107-0.379-3.156-0.589c-2.964-0.593-5.902-1.308-8.825-2.076
				c-5.396-1.419-13.106-2.911-17.103-7.135c-0.532-0.562-1.536-0.885-2.285-0.604c-0.985,0.37-1.643,0.67-2.446,1.331
				c-1.646,1.356-0.24,3.999,1.661,4.009c12.325,0.057,24.705,1.628,37.011,0.314c3.591-0.383,8.44-0.971,10.841-4.047
				c0.981-1.257,1.4-2.808,1.075-4.388c-0.63-3.063-2.005-3.738-4.971-4.021c-11.626-1.112-22.99-4.489-34.231-7.486
				c-7.329-1.954-14.75-5.431-22.027-2.494c-12.631,5.097-26.59,13.06-35.593,23.402c-1.979,2.272,1.329,5.609,3.321,3.32
				c8.693-9.986,22.259-17.65,34.486-22.584c3.436-1.386,5.932-0.285,9.542,0.573c5.451,1.296,10.852,2.805,16.265,4.243
				c9.915,2.635,19.886,4.923,30.114,5.901c-0.676-0.388-1.352-0.775-2.027-1.163c2.688,4.843-14.631,4.521-17.013,4.533
				c-8.939,0.048-17.856-0.76-26.793-0.802c0.554,1.337,1.107,2.673,1.661,4.009c0.124-0.04,0.249-0.081,0.373-0.122
				c-0.761-0.201-1.523-0.402-2.285-0.604c4.827,5.103,13.646,6.89,20.144,8.598c2.367,0.622,14.037,4.977,15.738,1.521
				c0.622-1.263,0.231-2.39-0.842-3.213c-0.229-0.176-2.562-1.12-1.487-0.508c-0.604,1.431-1.206,2.861-1.81,4.292
				c4.201,0.737,8.371,1.982,12.501,3.029c4.315,1.093,10.213,1.72,14.053,4.089c4.165,2.57,8.617,4.539,12.632,7.387
				c0.537,0.392,1.049,0.813,1.535,1.266c1.341,1.189,0.034,0.725,1.354-0.189c-0.557,0.385-1.592,0.332-2.256,0.426
				c-5.725,0.812-11.463,1.531-17.195,2.284c-14.581,1.913-29.873,5.447-44.531,3.165c-10.356-1.613-19.565-6.098-29.499-9.091
				c-4.508-1.358-10.038-2.204-14.109-4.604c-3.666-2.159-7.336-6.581-9.079-10.396
				C1309.106,952.423,1305.059,954.812,1306.308,957.546L1306.308,957.546z"/>
		</g>
	</g>
	<g>
		<g>
			<path fill="#1B1D3A" d="M1376.816,953.371c-7.391,2.555-12.529,8.716-19.599,11.861c-2.763,1.229-0.371,5.274,2.37,4.055
				c6.668-2.966,11.546-8.991,18.477-11.387C1380.909,956.917,1379.687,952.378,1376.816,953.371L1376.816,953.371z"/>
		</g>
	</g>
	<g>
		<g>
			<path fill="#1B1D3A" d="M1404.858,967.9c-11.453-2.939-22.946-5.716-34.552-7.99c-2.958-0.579-4.219,3.947-1.248,4.529
				c11.605,2.274,23.099,5.051,34.552,7.99C1406.546,973.182,1407.79,968.653,1404.858,967.9L1404.858,967.9z"/>
		</g>
	</g>
	<g>
		<g>
			<path fill="#1B1D3A" d="M1387.23,972.991c-7.905-2.11-16.068-2.98-23.975-5.091c-2.93-0.781-4.172,3.749-1.248,4.529
				c7.905,2.109,16.068,2.979,23.975,5.091C1388.912,978.302,1390.154,973.772,1387.23,972.991L1387.23,972.991z"/>
		</g>
	</g>
	<g>
		<path fill="#1D1B3A" d="M1188.749,908.113c-2.409-0.585-4.78-1.304-7.128-2.181c-17.409-1.921-63.654-0.293-80.041-0.109
			c-0.24,0.003-0.462,0.016-0.699,0.021c-0.601,0.314-1.292,0.532-2.087,0.603c-0.297,0.026-0.592,0.06-0.889,0.09
			c-3.276,1.858-6.99,3.1-10.115,3.731c-1.053,0.213-2.001,0.115-2.827-0.191c-18.656,14.19-11.805,71.716-11.805,282.807
			c0,38.416,8.403,117.648,15.606,133.254c0,0,106.625,13.576,114.176-0.447C1209.708,1313.122,1237.712,954.05,1188.749,908.113z"
			/>
		<g>
			<path fill="#1D1B3A" d="M1189.349,905.937c-4.794-1.236-8.825-2.446-13.757-2.735c-4.855-0.285-9.723-0.363-14.585-0.419
				c-11.039-0.127-22.081,0.054-33.117,0.262c-8.77,0.166-17.539,0.416-26.309,0.522c-5.504,0.066-10.403,5.562-16.017,4.333
				c-1.535-0.336-2.7,0.917-3.718,1.893c-8.363,8.01-9.455,22.24-10.489,33.001c-2.527,26.298-1.77,53.004-1.589,79.381
				c0.337,49.154,0.988,98.305,1.108,147.461c0.108,44.22,2.458,88.266,9.7,131.963c1.179,7.115,2.46,14.289,4.561,21.199
				c1.031,3.39,1.763,5.37,5.301,5.802c11.192,1.365,22.416,2.493,33.65,3.45c16.479,1.405,33.051,2.478,49.597,2.203
				c6.49-0.107,13.016-0.467,19.416-1.599c3.734-0.66,8.247-1.695,10.917-4.619c2.552-2.794,2.643-8.104,3.16-11.604
				c1.221-8.264,2.097-16.58,2.924-24.891c6.134-61.637,8.826-123.795,9.175-185.72c0.192-34.049-0.469-68.167-3.265-102.113
				c-2.08-25.252-4.732-51.536-13.264-75.561c-2.753-7.752-6.348-15.86-12.403-21.629c-2.105-2.005-5.301,1.181-3.19,3.191
				c5.641,5.374,8.875,12.972,11.437,20.185c3.827,10.776,6.15,22.084,8.054,33.337c5.18,30.607,6.742,61.858,7.612,92.844
				c1.885,67.141-0.692,134.537-5.739,201.494c-1.493,19.801-2.908,39.755-5.954,59.392c-0.328,2.114-0.675,4.235-1.192,6.313
				c-0.084,0.34-0.647,1.903-0.303,1.125c-0.504,1.139-1.832,1.717-2.892,2.207c-4.757,2.203-10.724,2.434-15.854,2.787
				c-7.66,0.529-15.364,0.454-23.035,0.251c-23.548-0.624-47.158-2.794-70.524-5.763c0.649,0.372,1.299,0.745,1.948,1.117
				c-2.431-5.438-3.412-11.697-4.526-17.503c-1.842-9.6-3.195-19.296-4.425-28.99c-2.774-21.882-4.74-43.9-5.812-65.933
				c-1.278-26.237-0.56-52.6-0.71-78.862c-0.144-25.128-0.387-50.254-0.637-75.381c-0.323-32.524-1.088-65.132,0.146-97.646
				c0.523-13.797,0.214-30.76,7.015-43.296c1.142-2.106,2.277-3.588,4.104-5.16c0.757-0.651-0.118,0.327-0.175,0.314
				c1.32,0.289,2.787-0.119,4.071-0.407c3.33-0.748,6.364-2.899,9.631-3.513c4.589-0.862,9.336-0.662,14.029-0.763
				c12.849-0.275,25.698-0.556,38.551-0.596c6.15-0.02,12.3,0.031,18.447,0.225c2.352,0.074,4.701,0.189,7.049,0.341
				c3.74,0.242,7.059,1.526,10.679,2.46C1190.969,911.015,1192.165,906.664,1189.349,905.937z"/>
		</g>
	</g>
	<path fill="#1D1B3A" stroke="#1D1B3A" stroke-width="1.0355" stroke-miterlimit="10" d="M1204.78,1313.824
		c0,0-20.804,255.988-33.336,266.248s-21.712-154.209-14.65-195.295c9.702-56.445,19.404-92.607,19.404-92.607L1204.78,1313.824z"/>
	<g>
		<path fill="#1D1B3A" d="M1266.499,1633.796c16.531,20.666-85.826-22.24-99.188-41.328c-10.193-17.662-7.978-44.078,24.796-12.396
			C1192.107,1580.072,1256.855,1626.91,1266.499,1633.796z"/>
	</g>
	<path fill="#1D1B3A" stroke="#1D1B3A" stroke-width="1.0355" stroke-miterlimit="10" d="M1100.491,1312.025
		c0,0-45.692,250.75-28.976,257.438c4.361,1.744,12.583,10.117,15.665-6.217c8.399-44.512,37.744-125.873,40.057-155.377
		c4.458-56.838,11.144-99.186,11.144-99.186L1100.491,1312.025z"/>
	<g>
		<path fill="#1D1B3A" d="M1013.02,1665.482c38.213,1.26,73.805-90.561,76.117-97.734c4.538-19.883-3.851-40.416-25.84-0.488
			C1063.296,1567.259,1015.768,1620.623,1013.02,1665.482z"/>
	</g>
	<g>
		<path fill="#1D1B3A" d="M1098.694,906.894c0,0-26.847,3.632-29.667,7.993c-2.821,4.358-36.253,110.218-48.656,114.087
			c-10.449,3.264-51.829-78.846-66.637-79.389L939.455,964.3c0,0,57.116,111.727,82.502,105.184
			c25.387-6.537,88.849-54.498,88.849-54.498S1101.513,904.532,1098.694,906.894z"/>
		<g>
			<path fill="#1D1B3A" d="M1098.069,904.629c-6.18,0.844-12.342,1.952-18.412,3.394c-4.107,0.975-11.132,2.127-13.078,6.532
				c-4.243,9.604-7.224,19.886-10.72,29.772c-5.687,16.084-11.489,32.137-17.886,47.953c-2.845,7.035-5.834,14.021-9.195,20.826
				c-2.112,4.276-4.337,8.938-7.625,12.458c-1.737,1.86-2.508,0.986-4.662-0.961c-3.885-3.513-7.022-7.925-10.089-12.136
				c-8.941-12.273-16.998-25.173-25.66-37.642c-6.208-8.938-13.037-20.394-22.604-26.168c-3.758-2.269-5.671-1.141-8.428,1.7
				c-3.973,4.094-7.945,8.188-11.917,12.281c-0.767,0.791-0.857,1.887-0.367,2.846c10.49,20.502,22.139,40.539,34.809,59.766
				c8.427,12.788,17.442,25.676,28.521,36.335c7.504,7.22,15.468,12.576,25.905,8.882c16.282-5.764,31.287-16.006,45.606-25.444
				c12.562-8.281,24.86-16.977,36.946-25.937c1.498-1.11,4.085-2.385,3.904-4.519c-0.27-3.191-0.546-6.383-0.825-9.573
				c-1.235-14.168-2.527-28.332-3.899-42.488c-1.348-13.898-2.722-27.805-4.519-41.653c-0.265-2.042-1.016-19.151-6.367-15.987
				c-2.604,1.539-0.243,5.6,2.37,4.055c-2.443,1.445-3.156-1.518-2.812-0.465c0.138,0.423,0.237,0.859,0.338,1.293
				c0.31,1.329,0.531,2.681,0.753,4.026c0.708,4.3,1.234,8.629,1.755,12.954c1.474,12.232,2.691,24.496,3.88,36.759
				c1.664,17.155,3.219,34.322,4.665,51.497c0.388-0.676,0.775-1.352,1.163-2.027c-23.234,17.546-47.481,34.938-73.453,48.191
				c-4.88,2.49-11.468,6.511-17.158,6.237c-4.529-0.217-8.929-3.853-12.196-6.636c-11.517-9.811-20.443-22.858-28.822-35.315
				c-13.413-19.942-25.561-40.924-36.509-62.321c-0.123,0.949-0.245,1.897-0.367,2.846c4.294-4.425,8.587-8.85,12.881-13.274
				c1.782-1.836,1.296-0.534-0.227-0.762c0.729,0.108,1.365,0.437,1.999,0.79c2.16,1.203,3.955,3.066,5.657,4.827
				c11.015,11.396,19.389,25.613,28.158,38.724c7.285,10.892,14.464,24.146,24.697,32.622c7.501,6.212,12.4-2.104,15.887-8.316
				c6.33-11.276,11.033-23.554,15.723-35.574c5.424-13.904,10.455-27.961,15.422-42.034c3.075-8.713,5.865-17.595,9.369-26.148
				c1.152-2.812,9.041-4.002,12.272-4.739c5.396-1.231,10.881-2.168,16.365-2.916C1102.308,908.75,1101.03,904.226,1098.069,904.629
				z"/>
		</g>
	</g>
	<g>
		<path fill="#F4EDE1" d="M961.137,958.761c-1.411,3.635-7.756,10.172-10.577,11.624c-11.988,4.361-16.217,4.365-27.501,9.448
			c-10.576,3.636-24.678,6.54-35.962,4.362c-4.936-0.73-38.785-5.088-43.72-5.814c-6.348-0.729-2.116-5.087,13.399-13.081
			c2.104-1.547,30.45-8.206,26.794-7.265c-7.759,2.179,25.385-3.636,31.028-10.176c0.703,0,1.409,0.727,1.409,0.727
			c-14.807,0-52.886,4.361-45.833-7.266c16.923-1.457,33.143-7.267,49.359-10.901c4.232-0.727,2.822-1.453,6.346,0
			c2.822,0.727,8.712,4.451,11.53,5.178c3.527,2.182,18.448,10.603,24.833,18.278"/>
		<g>
			<path fill="#1B1D3A" d="M959.109,957.576c-1.732,3.793-4.873,6.902-7.994,9.594c-3.414,2.943-9.718,3.798-14,5.052
				c-9.802,2.871-18.911,7.169-28.997,9.145c-14.79,2.898-30.364-0.785-45.117-2.72c-5.957-0.781-11.917-1.547-17.869-2.368
				c-0.793-0.109-1.585-0.211-2.368-0.383c-0.646-0.294-0.581,0.03,0.197,0.974c0.302-0.541,0.962-1.003,1.413-1.403
				c3.42-3.033,7.911-5.137,11.91-7.265c4.562-2.427,9.804-3.439,14.781-4.721c4.438-1.141,8.931-2.478,13.45-3.271
				c-0.604-1.431-1.207-2.861-1.81-4.292c1.075-0.612-1.258,0.332-1.487,0.508c-1.073,0.823-1.464,1.95-0.843,3.213
				c1.652,3.356,12.472-0.7,14.781-1.275c6.756-1.684,16.097-3.553,21.102-8.843c-0.762,0.202-1.523,0.403-2.285,0.604
				c0.124,0.041,0.248,0.082,0.372,0.122c0.554-1.336,1.107-2.672,1.661-4.009c-8.936,0.042-17.854,0.789-26.793,0.802
				c-2.387,0.003-19.696,0.301-17.013-4.533c-0.676,0.388-1.352,0.775-2.028,1.163c10.234-0.979,20.189-3.289,30.114-5.901
				c4.821-1.269,9.628-2.583,14.462-3.801c2.291-0.577,4.591-1.117,6.906-1.589c1.939-0.395,2.495-0.046,4.439,0.573
				c5.506,1.754,11.123,5.227,16.04,8.256c6.595,4.062,13.325,8.444,18.447,14.328c1.992,2.289,5.3-1.048,3.321-3.32
				c-9.123-10.48-22.578-17.489-35.032-23.166c-2.15-0.979-4.417-1.995-6.798-1.657c-4.67,0.664-9.42,2.243-13.984,3.437
				c-11.917,3.117-23.761,6.565-36.038,7.965c-2.905,0.331-3.93,0.685-4.87,3.53c-0.487,1.473-0.151,3.101,0.606,4.404
				c1.906,3.281,6.968,3.991,10.318,4.41c12.571,1.571,25.295-0.145,37.901-0.203c1.901-0.01,3.306-2.652,1.661-4.009
				c-0.802-0.661-1.46-0.961-2.445-1.331c-0.749-0.281-1.752,0.042-2.285,0.604c-3.819,4.036-10.99,5.442-16.128,6.871
				c-2.987,0.831-6.009,1.539-9.041,2.183c-1.123,0.239-2.25,0.454-3.38,0.655c-2.541,0.454-0.835-0.425,0.043,1.358
				c-0.281,1.071-0.562,2.143-0.843,3.213c-0.184,0.142,1.119-0.298,1.487-0.508c2.446-1.393,0.702-4.732-1.809-4.291
				c-12.161,2.133-24.435,5.493-35.139,11.658c-3.05,1.758-13.262,7.069-8.845,11.924c1.319,1.45,3.849,1.44,5.644,1.687
				c3.176,0.435,6.355,0.852,9.533,1.271c8.437,1.112,16.875,2.209,25.311,3.328c8.829,1.171,17.255,2.303,26.196,0.911
				c12.193-1.899,23.101-6.981,34.846-10.427c4.706-1.381,9.727-2.461,13.623-5.542c3.436-2.717,6.895-6.53,8.729-10.544
				C964.413,957.212,960.366,954.824,959.109,957.576L959.109,957.576z"/>
		</g>
	</g>
	<g>
		<g>
			<path fill="#1B1D3A" d="M891.408,960.3c6.931,2.396,11.808,8.421,18.477,11.387c2.741,1.22,5.133-2.826,2.37-4.055
				c-7.07-3.145-12.209-9.307-19.599-11.861C889.786,954.779,888.563,959.317,891.408,960.3L891.408,960.3z"/>
		</g>
	</g>
	<g>
		<g>
			<path fill="#1B1D3A" d="M865.862,974.83c11.453-2.939,22.946-5.716,34.551-7.99c2.971-0.582,1.71-5.108-1.248-4.529
				c-11.605,2.274-23.099,5.051-34.551,7.99C861.682,971.053,862.926,975.583,865.862,974.83L865.862,974.83z"/>
		</g>
	</g>
	<g>
		<g>
			<path fill="#1B1D3A" d="M883.49,979.92c7.906-2.111,16.069-2.981,23.974-5.091c2.924-0.78,1.682-5.311-1.248-4.529
				c-7.906,2.11-16.069,2.98-23.974,5.091C879.318,976.172,880.56,980.703,883.49,979.92L883.49,979.92z"/>
		</g>
	</g>
</g>
<g>
	<path fill="#F4EDE1" d="M1095.46,820.445c14-3,12.113,11.571,12.667,12.333c10.154,12.861,4,62.667,3.333,65.333l-12.97,7.566
		l54.102,37.284l32.154-38.476l-26.911-8.856c-5.331-29.025-6.591-56.984,10.625-68.518
		C1150.421,831.487,1113.1,825.799,1095.46,820.445z"/>
	<g>
		<path fill="#1D1B3A" d="M1096.06,822.621c5.532-1.002,8.813,1.268,9.498,6.77c0.367,2.952,0.632,4.162,2.075,6.818
			c4.847,8.921,4.136,21.572,3.998,31.372c-0.128,9.11-0.798,18.25-1.937,27.29c-0.099,0.782-0.209,1.562-0.347,2.339
			c-0.081,0.458,1.76-1.505,0.37-0.694c-0.756,0.441-1.512,0.883-2.268,1.324c-3.366,1.963-6.731,3.927-10.097,5.89
			c-1.546,0.902-1.364,2.956,0,3.896c18.034,12.428,36.068,24.855,54.102,37.284c0.774,0.533,2.125,0.375,2.734-0.354
			c10.718-12.824,21.436-25.65,32.154-38.475c1.104-1.321,0.706-3.211-0.996-3.771c-8.97-2.952-17.94-5.904-26.911-8.856
			c0.525,0.525,1.051,1.051,1.576,1.576c-3.55-19.616-9.913-52.256,9.588-65.97c2.072-1.457,0.837-4.713-1.738-4.124
			c-11.442,2.615-23.77,1.536-35.324,0.315c-12.27-1.297-24.639-3.454-36.477-6.982c-2.795-0.833-3.981,3.522-1.199,4.352
			c11.788,3.513,24.027,5.539,36.224,6.979c12.413,1.467,25.673,2.499,37.975-0.312c-0.58-1.375-1.159-2.749-1.738-4.124
			c-21.684,15.249-15.666,48.943-11.662,71.065c0.141,0.781,0.871,1.344,1.576,1.576c8.97,2.952,17.94,5.904,26.911,8.856
			c-0.332-1.257-0.664-2.514-0.996-3.771c-10.718,12.826-21.436,25.65-32.154,38.477c0.911-0.118,1.823-0.235,2.734-0.354
			c-18.034-12.428-36.068-24.855-54.102-37.284c0,1.299,0,2.598,0,3.896c3.594-2.097,7.188-4.194,10.782-6.29
			c2.7-1.575,3.258-2.443,3.666-5.488c1.452-10.849,2.125-21.853,2.091-32.795c-0.019-5.978-0.387-11.947-1.291-17.858
			c-0.41-2.686-1.037-5.334-1.914-7.905c-0.644-1.886-2.023-3.523-2.708-5.227c-1.017-2.527-0.524-6.538-2.265-9.574
			c-2.72-4.744-8.321-5.09-13.13-4.219C1092,818.788,1093.216,823.135,1096.06,822.621z"/>
	</g>
</g>
</svg>
