<?xml version="1.0" encoding="utf-8"?>
<!-- Generator: Adobe Illustrator 16.0.4, SVG Export Plug-In . SVG Version: 6.00 Build 0)  -->
<!DOCTYPE svg PUBLIC "-//W3C//DTD SVG 1.1//EN" "http://www.w3.org/Graphics/SVG/1.1/DTD/svg11.dtd">
<svg version="1.1" id="char1" xmlns="http://www.w3.org/2000/svg" xmlns:xlink="http://www.w3.org/1999/xlink" x="0px" y="0px"
	 width="2554.794px" height="1700.788px" viewBox="0 0 2554.794 1700.788" enable-background="new 0 0 2554.794 1700.788"
	 xml:space="preserve">
<path fill="#1D1B3A" d="M535.803,1215.197c0,0,69.452,352.993,74.417,387.74c2.01,14.069-83.858,81.917-80.393,86.423
	c20.098,26.127,111.986-57.158,116.569-66.324c4.019-8.039-24.118-315.54,16.078-323.579c40.196-8.038,2.01,317.55,10.049,327.599
	s142.697,32.156,144.706,18.089c2.01-14.068-120.588-42.207-120.588-42.207s93.801-316.756,75.713-379.06
	S535.803,1215.197,535.803,1215.197z"/>
<g>
	<path fill="#A5A4B0" d="M526.155,1003.54c-36.407,73.573,9.014,246.246,9.014,246.246s229.502,10.171,243.096-10.642
		c52.718-80.712-24.034-258.683-24.034-258.683"/>
	<g>
		<path fill="#1D1B3A" d="M524.049,1002.308c-16.031,32.833-15.712,72.776-13.669,108.407c2.089,36.439,7.794,72.71,15.24,108.415
			c2.184,10.475,4.479,20.952,7.198,31.304c0.284,1.082,1.271,1.742,2.352,1.79c47.947,2.121,96.036,3.051,144.022,2.247
			c27.614-0.463,56.172-0.593,83.347-6.106c5.839-1.184,14.183-2.67,17.833-7.99c9.672-14.099,14.425-31.597,16.848-48.312
			c5.528-38.14-0.572-77.657-9.242-114.859c-6.825-29.288-15.952-58.108-26.843-86.135c-1.542-3.967-3.113-7.928-4.797-11.838
			c-1.241-2.881-5.442-0.395-4.212,2.463c6.688,15.528,13.438,35.006,18.87,52.227c11.427,36.231,20.309,73.753,22.77,111.751
			c1.228,18.965,0.681,38.225-3.362,56.844c-1.864,8.584-4.603,16.996-8.367,24.938c-2.043,4.31-4.264,9.941-7.95,12.122
			c-7.082,4.19-16.806,4.999-24.771,6.035c-13.816,1.797-27.769,2.581-41.682,3.172c-55.88,2.377-112.021,0.99-167.889-1.244
			c-1.524-0.061-3.05-0.122-4.574-0.189c0.784,0.597,1.568,1.193,2.352,1.79c-5.019-19.107-8.894-38.565-12.361-58.004
			c-6.931-38.858-11.73-78.548-10.517-118.079c0.707-23.018,3.391-47.336,13.618-68.283
			C529.635,1001.956,525.429,999.482,524.049,1002.308L524.049,1002.308z"/>
	</g>
</g>
<g>
	<path fill="#F4EDE1" d="M774.53,1268.087c-6.126-5.783-11.682-6.452-14.958-5.137c-6.191,2.484-8.437,7.646-8.84,7.987
		c-5.13,4.595,11.893,26.992,22.718,33.425c5.456-5.36,9.165-11.28,12.69-22.56"/>
	<g>
		<path fill="#1D1B3A" d="M776.254,1266.363c-6.051-5.371-13.01-8.438-20.499-4.209c-3.701,2.091-8.431,7.166-8.394,11.655
			c0.05,6.037,5.009,12.297,8.447,16.819c4.565,6.007,9.953,11.838,16.409,15.84c0.927,0.575,2.198,0.381,2.956-0.381
			c6.647-6.683,10.458-14.741,13.317-23.636c0.965-3.003-3.745-4.278-4.703-1.297c-2.609,8.116-6.001,15.39-12.063,21.483
			c0.985-0.127,1.97-0.254,2.956-0.381c-8.898-5.518-16.696-15.06-21.205-24.435c-1.677-3.487-1.256-4.856,0.765-7.761
			c5.188-7.455,12.625-5.523,18.565-0.25C775.148,1271.892,778.611,1268.455,776.254,1266.363L776.254,1266.363z"/>
	</g>
</g>
<path fill="#1D1B3A" d="M737.083,1267.732c0,0,27.819,36.242,43.049,31.167c2.801-0.934-1.867,16.805-1.867,16.805
	s-1.868,23.343-21.474,37.347C746.508,1360.395,739.821,1290.548,737.083,1267.732z"/>
<g>
	<path fill="#F4EDE1" d="M530.403,1289.316c6.126-5.784,21.984-18.438,25.26-17.123c6.191,2.485,8.437,7.646,8.84,7.987
		c5.13,4.595-11.893,26.992-22.718,33.426c-5.456-5.361-9.164-11.28-12.69-22.561"/>
	<g>
		<path fill="#1D1B3A" d="M532.128,1291.041c5.166-4.817,10.732-9.268,16.601-13.198c1.72-1.152,4.973-3.876,7.064-2.926
			c3.26,1.48,4.784,4.191,6.86,6.827c2.38,3.021-4.343,11.416-5.98,13.716c-4.307,6.051-9.764,12.102-16.117,16.041
			c0.985,0.127,1.97,0.254,2.956,0.381c-6.062-6.095-9.454-13.368-12.063-21.484c-0.958-2.981-5.668-1.706-4.703,1.297
			c2.859,8.896,6.67,16.953,13.317,23.637c0.757,0.762,2.029,0.956,2.956,0.381c7.799-4.836,14.078-12.24,19.227-19.732
			c2.902-4.224,8.495-12.639,3.985-17.523c-4.46-4.83-8.257-10.919-15.683-7.362c-8.003,3.832-15.425,10.49-21.867,16.498
			C526.374,1289.741,529.831,1293.183,532.128,1291.041L532.128,1291.041z"/>
	</g>
</g>
<path fill="#1D1B3A" d="M564.368,1274.986c0,0-5.465,18.95-19.08,27.457s-13.614,8.507-13.614,8.507s18.085,36.745,30.145,40.519
	C573.879,1355.241,571.151,1296.944,564.368,1274.986z"/>
<g>
	<path fill="#A5A4B0" d="M546.108,1023.786c-31.857,50.819-26.547,157.767,10.619,250.302l-32.615,18.204
		c-1.151-3.455-49.341-44.298-55.371-160.867c-5.77-111.554,43.936-209.096,69.023-232.79
		c27.305-25.788,203.713-33.238,235.89,15.171c38.342,57.684,94.062,234.109,15.813,366.42l-31.745-20.541
		c2.32-9.408,37.748-162.598-22.408-253.954"/>
	<g>
		<path fill="#1D1B3A" d="M543.95,1022.524c-19.696,31.843-22.364,72.75-20.982,109.195c1.854,48.888,13.241,97.677,31.349,143.032
			c0.383-0.94,0.766-1.882,1.149-2.822c-10.872,6.067-21.743,12.136-32.615,18.203c1.224,0.498,2.448,0.996,3.672,1.494
			c-1.601-4.182-6.378-8.021-9.083-11.498c-7.306-9.391-13.4-19.724-18.662-30.375c-20.895-42.293-28.121-91.43-27.993-138.173
			c0.145-52.956,12.153-106.377,33.703-154.707c7.167-16.073,15.503-31.899,26.004-46.067c6.4-8.636,12.947-14.255,23.065-17.959
			c13.308-4.873,27.608-7.252,41.615-9.02c17.78-2.245,35.742-3.101,53.655-2.997c18.548,0.107,37.149,1.371,55.47,4.318
			c15.632,2.515,31.467,6.241,45.804,13.121c11.828,5.675,19.628,13.372,26.234,24.556c8.313,14.075,14.967,29.135,20.807,44.38
			c15.769,41.166,25.273,84.981,28.364,128.934c4.432,63.035-5.898,127.827-38.195,182.824c1.14-0.299,2.28-0.598,3.42-0.897
			c-10.582-6.847-21.163-13.693-31.745-20.541c0.383,0.941,0.766,1.883,1.149,2.824c5.463-22.242,8.491-45.26,10.549-68.033
			c3.825-42.316,2.926-85.806-7.436-127.186c-5.355-21.387-13.703-42.163-25.773-60.662c-1.754-2.688-6.085-0.186-4.317,2.523
			c24.811,38.026,32.961,84.386,34.347,129.07c1.092,35.248-2.125,70.745-8.526,105.404c-1.084,5.874-2.239,11.751-3.664,17.553
			c-0.278,1.132,0.182,2.198,1.149,2.824c10.582,6.847,21.163,13.693,31.745,20.541c1.146,0.741,2.754,0.237,3.42-0.897
			c49.638-84.527,48.173-189.726,21.696-281.587c-5.254-18.228-11.684-36.131-19.386-53.469
			c-5.613-12.635-11.786-26.065-20.411-36.979c-7.843-9.924-20.207-15.788-31.783-20.091c-15.533-5.772-32.061-8.741-48.452-10.782
			c-35.49-4.419-72.121-3.808-107.475,1.542c-12.986,1.965-26.274,4.58-38.391,9.805c-9.752,4.204-16.028,11.211-22.226,19.678
			c-10.601,14.48-18.85,30.733-26.078,47.105c-9.715,22.004-17.219,44.959-22.793,68.347
			c-12.903,54.132-13.994,110.893-2.638,165.399c5.626,27.003,14.889,53.631,29.232,77.288c3.908,6.445,8.268,12.607,13,18.472
			c1.389,1.722,2.825,3.404,4.267,5.081c0.47,0.547,0.94,1.093,1.395,1.652c-0.055-0.068,0.403,0.76,0.116,0.009
			c0.578,1.51,2.16,2.338,3.672,1.494c10.872-6.068,21.743-12.137,32.615-18.205c0.896-0.499,1.553-1.812,1.149-2.822
			c-17.601-44.085-28.601-91.099-31.03-138.552c-1.866-36.452,0.431-77.931,20.159-109.824
			C549.968,1022.297,545.642,1019.789,543.95,1022.524L543.95,1022.524z"/>
	</g>
</g>
<g>
	<path fill="#F4EDE1" d="M585.71,873.893c13.484,4.047,17.53,18.88,26.969,28.319c13.486,12.136,31.016,21.575,48.546,24.272
		c52.59,10.787,48.545-35.062,56.635-71.47"/>
	<g>
		<path fill="#1D1B3A" d="M585.113,876.06c9.658,3.215,14.43,12.387,19.886,20.254c6.269,9.039,15.317,15.506,24.713,21.023
			c10.556,6.198,21.882,9.713,33.86,11.87c8.083,1.456,16.546,1.742,24.481-0.626c12.646-3.775,19.424-15.194,23.136-27.088
			c4.644-14.877,5.52-30.7,8.838-45.881c0.617-2.826-3.716-4.026-4.335-1.195c-3.046,13.937-4.243,28.229-7.764,42.066
			c-3.232,12.7-9.408,24.688-22.938,28.29c-8.662,2.306-17.851,0.59-26.454-1.04c-11.671-2.212-22.603-7.482-32.475-13.952
			c-9.285-6.085-15.46-13.151-21.565-22.231c-4.688-6.973-10-13.099-18.188-15.824C583.55,870.807,582.377,875.15,585.113,876.06
			L585.113,876.06z"/>
	</g>
</g>
</svg>
