<?xml version="1.0" encoding="utf-8"?>
<!-- Generator: Adobe Illustrator 16.0.4, SVG Export Plug-In . SVG Version: 6.00 Build 0)  -->
<!DOCTYPE svg PUBLIC "-//W3C//DTD SVG 1.1//EN" "http://www.w3.org/Graphics/SVG/1.1/DTD/svg11.dtd">
<svg version="1.1" id="char1-head" xmlns="http://www.w3.org/2000/svg" xmlns:xlink="http://www.w3.org/1999/xlink" x="0px" y="0px"
	 width="2554.794px" height="1700.788px" viewBox="0 0 2554.794 1700.788" enable-background="new 0 0 2554.794 1700.788"
	 xml:space="preserve">
<g>
	<path fill="#DC4832" d="M670.197,669.415c8.722,0.54,25.528,3.818,25.861-10.295c0.71-13.108-15.867-20.99-26.867-15.234
		c19.526-12.925-27.071-36.655-30.567-10.145c-5.171-24.946-46.038-2.005-30.599,15.879c-6.178-10.035-23.429-3.406-31.238,4.367
		c-8.473,9.272-3.109,28.214,10.349,23.17c-19.976-4.594-26.797,41.722-4.726,33.009c-11.199-1.949-11.55,11.46-7.917,17.283
		c3.65,6.521,21.387,18.813,27.754,9.131c0.591,9.411,29.361,17.347,26.226,3.72c-6.281,13.184,20.082,8.799,25.456,1.014
		c5.711-8.184-3.475-13.228-7.804-18.952c4.937,15.836,44.753-7.31,16.676-15.342c3.976,19.136,52.051-7.979,17.991-18.34
		c8.228,8.346,10.36-3.557,5.677-9.582c-2.884-3.816-9.633-8.853-14.796-6.371"/>
	<g>
		<path fill="#1D1B3A" d="M670.197,671.662c11.15,0.769,27.181,2.752,28.109-12.542c0.935-15.4-17.979-23.034-30.249-17.175
			c0.756,1.294,1.512,2.587,2.269,3.881c11.254-7.85,3.459-18.987-6.294-23.583c-11.14-5.247-25.412-3.023-27.575,10.9
			c1.445,0,2.89,0,4.335,0c-6.437-27.611-51.822-3.317-34.355,18.065c1.615,1.978,4.973-0.631,3.53-2.724
			c-8.748-12.688-30.33-3.764-36.998,6.944c-6.747,10.834,0.557,28.588,14.765,23.895c1.965-0.648,2.319-3.873,0-4.334
			c-12.14-2.414-19.422,9.516-20.949,20.005c-1.56,10.716,3.952,21.865,16.223,17.338c2.485-0.917,1.901-4.093-0.598-4.415
			c-12.812-1.649-15.072,14.176-8.692,22.363c6.207,7.967,22.416,18.277,30.471,7.434c-1.396-0.379-2.792-0.757-4.188-1.135
			c1.636,13.12,33.855,20.214,30.641,3.122c-0.343-1.82-3.341-2.301-4.108-0.537c-5.557,12.777,10.449,12.657,18.499,10.168
			c4.891-1.513,10.857-4.558,12.396-9.906c2.369-8.227-5.199-13.027-9.713-18.654c-1.407-1.754-4.487,0.129-3.757,2.187
			c3.802,10.703,17.502,7.219,24.615,2.203c3.374-2.379,6.591-6.012,6.392-10.392c-0.265-5.81-6.892-8.497-11.565-9.918
			c-1.692-0.515-3.156,1.149-2.765,2.765c3.058,12.623,19.217,8.285,26.857,3.027c4.034-2.775,8.051-7.197,7.629-12.438
			c-0.544-6.766-8.211-9.933-13.73-11.694c-2.14-0.684-3.812,2.234-2.187,3.756c2.084,1.952,5.646,4.864,8.703,3.01
			c2.959-1.795,3.455-5.269,3.136-8.47c-0.856-8.591-11.353-17.386-19.966-14.249c-2.701,0.983-1.535,5.328,1.195,4.334
			c4.999-1.819,10.117,2.268,12.854,6.194c1.14,1.635,1.503,3.713,1.536,5.658c0.064,3.745-2.55,1.964-4.28,0.345
			c-0.729,1.252-1.458,2.504-2.187,3.756c3.617,1.155,10.099,3.228,10.474,7.895c0.287,3.571-3.444,6.646-6.043,8.433
			c-4.963,3.415-17.512,8.101-19.657-0.752c-0.922,0.922-1.843,1.844-2.765,2.765c22.602,6.872-10.048,23.453-13.911,12.577
			c-1.252,0.729-2.504,1.458-3.757,2.187c2.872,3.58,7.306,6.547,8.802,11.026c1.583,4.742-4.325,8.005-7.766,9.403
			c-3.384,1.376-18.667,5.125-15.158-2.945c-1.37-0.18-2.739-0.358-4.108-0.537c1.642,8.728-20.901,2.972-21.811-4.317
			c-0.283-2.269-2.799-3.004-4.188-1.135c-5.518,7.429-18.15-2.505-22.321-7.009c-4.859-5.248-5.121-17.252,4.424-16.022
			c-0.199-1.472-0.398-2.943-0.598-4.415c-9.22,3.401-11.702-4.88-10.581-12.582c1.087-7.469,6.205-17.902,15.307-16.093
			c0-1.444,0-2.89,0-4.334c-11.403,3.766-13.738-10.788-9.128-18.19c4.638-7.447,22.535-14.952,28.675-6.045
			c1.177-0.908,2.354-1.816,3.53-2.724c-12.388-15.166,21.946-34.696,26.842-13.692c0.481,2.063,3.987,2.238,4.335,0
			c1.661-10.692,11.281-11.907,20.069-8.597c6.488,2.444,15.67,10.292,7.196,16.203c-2.383,1.662-0.354,5.134,2.269,3.881
			c10.463-4.996,25.091,2.614,23.329,15.075c-1.404,9.932-16.736,6.729-23.458,6.267
			C667.303,666.967,667.322,671.464,670.197,671.662L670.197,671.662z"/>
	</g>
</g>
<g>
	<path fill="#F4EDE1" d="M751.47,824.287c-0.831-16.54-22.459-45.767-25.042-88.193c-3.812-62.606-33.53-110.692-69.14-108.881
		c-42.412,2.155-64.458,46.375-65.874,72.405c-1.69,31.093-1.527,59.188-4.917,90.198c-3.391,31.027-26.978,61.037-8.751,91.901
		c11.393,19.294,39.959,31.783,61.659,35.037c33.728,5.059,61.056,0.245,86.377-22.496
		C748.631,873.737,752.906,852.091,751.47,824.287z"/>
	<g>
		<path fill="#1D1B3A" d="M753.718,824.287c-0.499-7.462-3.574-14.546-6.368-21.386c-4.157-10.177-8.412-20.283-11.748-30.771
			c-8.287-26.057-6.816-53.658-14.304-79.948c-5.744-20.167-15.423-40.713-31.425-54.763c-13.961-12.258-31.174-15.038-48.738-9.518
			c-18.838,5.921-33.22,21.229-42.187,38.33c-4.056,7.736-7.024,16.111-8.693,24.684c-2.39,12.277-1.873,25.297-2.316,37.748
			c-0.564,15.836-1.142,31.671-2.393,47.471c-1.183,14.941-4.071,28.582-8.704,42.806c-4.011,12.315-8.051,24.741-8.183,37.818
			c-0.123,12.1,4.432,23.698,12.091,32.951c12.23,14.776,32.081,23.35,50.31,27.721c19.608,4.702,41.36,5.007,60.735-0.829
			c19.682-5.928,37.633-19.536,49.38-36.295C752.689,863.88,754.653,843.776,753.718,824.287c-0.138-2.886-4.634-2.898-4.495,0
			c0.58,12.09,0.197,24.163-3.253,35.844c-3.635,12.307-11.288,22.685-20.525,31.397c-19.361,18.262-43.921,25.853-70.2,24.622
			c-24.558-1.149-50.748-8.947-68.575-26.628c-10.027-9.945-14.21-23.523-13.346-37.419c0.849-13.656,6.307-26.821,10.345-39.749
			c8.911-28.525,7.896-59.815,8.971-89.408c0.432-11.879,0.14-24.061,3.021-35.665c2.274-9.163,6.228-17.855,11.219-25.845
			c11.384-18.221,30.357-31.749,52.363-32.025c19.35-0.243,34.263,15.612,43.61,30.858c7.642,12.463,12.596,26.445,16.099,40.579
			c4.183,16.882,4.263,34.082,7.093,51.135c2.483,14.963,7.604,29.294,13.324,43.285c3.731,9.126,9.185,19.006,9.854,29.019
			C749.415,827.164,753.911,827.182,753.718,824.287z"/>
	</g>
</g>
<g>
	<g>
		<path fill="#1D1B3A" d="M636.788,722.398c0.933,3.571,1.173,7.351,1.293,11.025c0.067,2.058-0.002,4.135-0.459,6.146
			c-0.393,1.729-0.604,0.46-1.09-0.738c-1.418-3.498-1.664-7.52-1.766-11.246c-0.071-2.593-0.402-7.325,1.469-9.444
			c-1.06,0-2.119,0-3.179,0c0.903,0.829,1.583,1.808,2.039,2.934c1.323,2.58,5.201,0.306,3.882-2.27
			c-0.768-1.498-1.568-2.654-2.742-3.842c-0.821-0.831-2.371-0.915-3.179,0c-3.258,3.688-2.927,10.05-2.711,14.614
			c0.212,4.507,0.668,11.187,4.298,14.43c3.869,3.457,7.068-1.431,7.633-4.896c0.926-5.678,0.298-12.345-1.154-17.908
			C640.391,718.4,636.055,719.59,636.788,722.398L636.788,722.398z"/>
	</g>
</g>
<g>
	<g>
		<path fill="#1D1B3A" d="M697.217,715.322c0.933,3.571,1.173,7.35,1.293,11.024c0.067,2.058-0.003,4.135-0.459,6.146
			c-0.393,1.73-0.604,0.462-1.09-0.737c-1.418-3.498-1.663-7.52-1.765-11.246c-0.071-2.594-0.402-7.326,1.469-9.445
			c-1.06,0-2.119,0-3.179,0c0.903,0.83,1.583,1.808,2.039,2.935c1.322,2.58,5.201,0.306,3.882-2.27
			c-0.768-1.498-1.568-2.654-2.742-3.843c-0.821-0.832-2.371-0.915-3.179,0c-3.258,3.688-2.927,10.05-2.711,14.615
			c0.213,4.506,0.669,11.186,4.298,14.43c3.869,3.457,7.068-1.432,7.633-4.896c0.926-5.678,0.298-12.345-1.154-17.908
			C700.82,711.324,696.484,712.514,697.217,715.322L697.217,715.322z"/>
	</g>
</g>
<g>
	<path fill="#F4EDE1" d="M598.128,719.27c-16.379-19.387-33.271-3.895-29.041,17.416c1.17,7.141,3.693,20.296,10.947,24.277
		c5.289,3.189,12.202,0.63,18.038,0.44"/>
	<g>
		<path fill="#1D1B3A" d="M599.718,717.681c-5.569-6.301-13.577-11.824-22.225-8.403c-7.873,3.114-10.876,12.186-11.297,19.924
			c-0.477,8.763,2.342,19.485,6.495,27.14c5.657,10.427,15.484,7.926,25.382,7.311c2.879-0.18,2.896-4.676,0-4.496
			c-8.297,0.517-16.34,3.376-21.5-5.083c-3.225-5.287-4.315-11.966-5.317-17.984c-1.217-7.309-0.591-15.364,4.996-20.8
			c6.722-6.539,15.58,0.243,20.288,5.57C598.462,723.036,601.629,719.844,599.718,717.681L599.718,717.681z"/>
	</g>
</g>
<g>
	<path fill="#F4EDE1" d="M588.991,722.767c-18.978-2.792-11.162,19.534,5.583,17.859"/>
	<g>
		<path fill="#1D1B3A" d="M588.991,720.519c-7.217-0.93-15.028,2.361-12.92,10.871c1.964,7.929,10.981,12.069,18.502,11.484
			c2.871-0.224,2.892-4.721,0-4.496c-5.462,0.426-11.582-1.806-13.844-7.212c-2.483-5.935,3.885-6.716,8.262-6.151
			C591.86,725.384,591.825,720.884,588.991,720.519L588.991,720.519z"/>
	</g>
</g>
<g>
	<g>
		<path fill="#1D1B3A" d="M665.307,719.737c7.517,13.891,11.306,32.2,27.066,39.211c11.514,5.122,30.011,6.677,31.051,22.423
			c0.953,14.422-19.965,16.559-30.126,16.036c-17.132-0.881-27.293-12.584-33.547-27.35c-1.127-2.661-4.999-0.367-3.882,2.27
			c3.082,7.274,6.826,14.224,12.656,19.671c6.131,5.729,14.263,8.424,22.398,9.682c11.662,1.804,29.352-0.988,35.364-12.483
			c3.044-5.82,1.742-13.76-1.897-18.988c-4.027-5.785-11.258-8.521-17.621-10.804c-8.363-3-16.193-4.916-22.153-11.955
			c-7.252-8.566-10.155-20.238-15.427-29.981C667.809,714.917,663.927,717.187,665.307,719.737L665.307,719.737z"/>
	</g>
</g>
<g>
	<g>
		<path fill="#1D1B3A" d="M623.218,792.049c29.217,16.467,62.288,32.649,96.125,20.454c2.705-0.975,1.539-5.319-1.195-4.334
			c-32.701,11.785-64.461-4.108-92.662-20.001C622.958,786.744,620.693,790.626,623.218,792.049L623.218,792.049z"/>
	</g>
</g>
<g>
	<path fill="#DC4832" d="M630.21,627.122c-25.621-31.015,35.061-48.545,32.364-12.137c24.273-40.455,68.772,13.486,25.622,21.576
		c16.181-4.045,35.061,4.046,20.228,20.228c-12.137,14.833-52.591,10.788-56.637-9.439c14.833,63.377-71.47,12.137-25.622-4.045
		c-9.439,6.742-37.757,6.742-37.757-9.44c0-14.832,35.061-24.272,41.802-10.787"/>
	<g>
		<path fill="#1D1B3A" d="M631.799,625.533c-4.143-5.155-7.126-11.494-4.737-18.066c1.789-4.919,6.918-8.12,11.657-9.631
			c4.924-1.57,10.518-1.397,15.06,1.183c5.676,3.224,6.898,9.979,6.547,15.967c-0.137,2.324,3.069,2.944,4.188,1.135
			c4.116-6.657,9.977-12.854,18.173-13.705c6.098-0.633,11.94,2.222,16.139,6.476c3.585,3.632,5.997,8.982,4.937,14.122
			c-1.503,7.287-9.806,10.101-16.165,11.382c0.398,1.444,0.797,2.89,1.195,4.334c6.487-1.488,22.952-2.271,22.732,7.979
			c-0.095,4.44-4.651,9.156-8.066,11.629c-2.963,2.145-6.502,3.315-10.024,4.146c-13.011,3.072-35.903-0.098-39.481-15.73
			c-0.647-2.826-4.975-1.627-4.335,1.195c1.786,7.874,3.999,19.777-3.13,25.82c-4.812,4.079-12.718,1.96-17.749-0.419
			c-5.638-2.667-11.506-7.321-13.451-13.478c-2.411-7.632,5.436-12.2,11.473-14.399c-0.578-1.369-1.155-2.738-1.732-4.107
			c-8.272,5.563-38.731,6.899-33.976-9.889c3.225-11.386,30.871-18.761,37.214-7.264c1.401,2.538,5.283,0.271,3.882-2.27
			c-8.365-15.159-39.97-6.661-45.169,7.62c-3.313,9.101,3.63,16.245,11.772,18.839c8.708,2.773,20.824,2.037,28.545-3.156
			c2.005-1.349,0.788-5.025-1.732-4.107c-7.847,2.857-16.594,8.523-15.016,18.113c1.32,8.021,8.545,14.191,15.399,17.722
			c6.843,3.524,16.15,5.423,22.875,0.626c9.437-6.731,7.311-21.218,5.128-30.847c-1.445,0.398-2.89,0.797-4.335,1.195
			c4.643,20.277,34.649,23.401,50.687,17.113c8.155-3.198,18.268-12.867,15.129-22.474c-3.412-10.444-19.478-10.11-27.837-8.192
			c-2.84,0.651-1.624,4.902,1.195,4.334c8.109-1.633,16.478-5.414,19.139-13.884c2.079-6.614-1.125-13.668-5.426-18.594
			c-4.885-5.594-12.421-8.798-19.818-8.331c-9.814,0.619-17.166,8.024-22.055,15.931c1.396,0.379,2.792,0.757,4.188,1.135
			c0.449-7.648-1.678-15.03-8.226-19.508c-5.658-3.868-13.431-3.774-19.723-1.769c-6.306,2.011-11.603,6.417-14.145,12.562
			c-3.269,7.907,0.988,16.335,5.893,22.439C630.437,630.971,633.596,627.769,631.799,625.533L631.799,625.533z"/>
	</g>
</g>
<g>
	<g>
		<path fill="#1D1B3A" d="M615.216,716.397c3.513-6.845,11.128-10.52,17.992-13.177c7.084-2.743,14.771-4.541,22.354-5.062
			c2.875-0.197,2.895-4.693,0-4.494c-8.478,0.582-16.856,2.631-24.768,5.693c-7.53,2.915-15.631,7.312-19.459,14.771
			C610.013,716.702,613.892,718.976,615.216,716.397L615.216,716.397z"/>
	</g>
</g>
<g>
	<g>
		<path fill="#1D1B3A" d="M681.481,695.21c10.979,4.59,23.688,5.253,32.693,13.756c2.105,1.988,5.29-1.185,3.179-3.178
			c-9.702-9.161-22.862-9.973-34.676-14.912C680.003,689.758,678.848,694.11,681.481,695.21L681.481,695.21z"/>
	</g>
</g>
<g>
	<g>
		<path fill="#1D1B3A" d="M690.582,860.752c0.749,9.108-15.093,29.34-22.33,16.065c-1.388-2.545-5.27-0.276-3.882,2.27
			c9.757,17.896,31.83-4.687,30.707-18.335C694.841,857.884,690.344,857.862,690.582,860.752L690.582,860.752z"/>
	</g>
</g>
</svg>
