<?xml version="1.0" encoding="utf-8"?>
<!-- Generator: Adobe Illustrator 16.0.4, SVG Export Plug-In . SVG Version: 6.00 Build 0)  -->
<!DOCTYPE svg PUBLIC "-//W3C//DTD SVG 1.1//EN" "http://www.w3.org/Graphics/SVG/1.1/DTD/svg11.dtd">
<svg version="1.1" id="char4" xmlns="http://www.w3.org/2000/svg" xmlns:xlink="http://www.w3.org/1999/xlink" x="0px" y="0px"
	 width="2554.794px" height="1700.788px" viewBox="0 0 2554.794 1700.788" enable-background="new 0 0 2554.794 1700.788"
	 xml:space="preserve">
<path fill="#58566D" d="M1851.765,965.669c-5.304-9.053-14.081-15.827-24.204-18.612c-9.454-2.601-22.999-2.095-31.208,4.083
	c-0.587,0.441-1.149,0.901-1.729,1.349c-5.545,0.584-10.923,2.243-14.938,5.317c-9.426,7.22-17.208,13.226-23.196,23.863
	c-7.134,12.673-7.412,28.229,0,40.883c6.932,11.833,20.92,20.774,34.971,20.059c11.756-0.599,23.04-3.678,32.692-10.639
	c7.138-5.147,13.429-11.016,20.271-16.465c-1.286,0.994-2.572,1.987-3.858,2.98c7.182-5.812,12.631-11.973,15.282-21.61
	C1858.723,986.424,1857.244,975.023,1851.765,965.669z"/>
<path fill="#1D1B3A" d="M1938.449,1194.457c33.379,76.997-36.381,69.836-36.182,77.66c0.188,13.132-9.794,100.992-5.198,128.467
	c5.441,32.542,27.863,180.748,35.725,202.195c0.396,2.121,6.422,3.853,4.978,3.729c-5.649-0.487-14.079-2.106-18.424-5.132
	c1.93,6.528,3.325,13.139,4.657,19.747c0,0-183.84,47.649-172.038,14.937c10.116-28.044,121.285-13.796,120.741-45.676
	c-13.595-125.76-33.39-241.554-22.669-382.215C1851.164,1193.399,1919.25,1195.023,1938.449,1194.457z"/>
<path fill="#1D1B3A" d="M1997.371,1193.77c-3.111,7.805-31.195,160.867-30.632,168.91c0.789,13.498,2.576,26.979,4.599,40.417
	c4.255,28.317,15.324,68.097,21.419,96.247c7.221,33.341,24.761,103.562,34.037,125.435c0.514,2.172,2.911,15.353,1.381,15.259
	c-5.999-0.364-14.987-1.831-19.714-4.838c2.332,6.667,4.107,13.434,5.81,20.198c0,0-199.791,63.981-188.781,30.057
	c9.439-29.087,135.163-27.671,133.157-60.445c-15.521-99.941-57.91-236.615-43.147-414.239
	C1916.761,1195.595,1977.097,1194.812,1997.371,1193.77z"/>
<g>
	<path fill="#58566D" d="M1769.461,1038.777c66.667-157.333,88.589-148.202,99.058-150.993h3.01
		c20.238-3.491,93.317-16.516,123.325-0.602c39.707,21.056,120.162,116.938,121.94,159.597s-68.766,130.279-68.766,130.279
		l-36.701-38.408c0,0,67.687-58.1,53.467-91.871s-67.847-73.609-67.847-73.609s-19.555,156.419,5.33,223.963
		c12.442,33.772-163.526,12.442-163.526,12.442s-16.623-184.131-7.29-240.131"/>
	<g>
		<path fill="#1D1B3A" d="M1771.409,1039.916c17.161-40.439,34.887-81.925,59.459-118.557c7.302-10.887,17.116-25.216,29.825-29.564
			c2.588-0.886,5.276-1.121,7.928-1.713c1.129-0.252,3.528-0.126,5.229-0.42c3.259-0.563,6.519-1.116,9.781-1.649
			c9.116-1.49,18.262-2.785,27.438-3.841c20.971-2.412,42.772-4.055,63.735-0.758c16.563,2.605,29.157,11.335,41.683,21.988
			c31.148,26.493,58.546,59.611,79.587,94.616c8.083,13.447,16.655,28.782,18.319,44.679c1.65,15.773-6.06,32.373-12.758,46.156
			c-14.63,30.104-34.241,58.549-55.203,84.609c1.064,0,2.127,0,3.191,0c-12.234-12.803-24.468-25.605-36.701-38.408
			c0,1.064,0,2.127,0,3.191c19.903-17.119,39.874-38.305,50.863-62.355c3.087-6.755,5.269-14.033,5.221-21.513
			c-0.052-8.045-4.064-15.268-8.193-21.928c-10.949-17.665-26.489-32.602-41.983-46.252c-6.696-5.899-13.582-11.646-20.744-16.977
			c-1.542-1.147-3.21,0.47-3.395,1.948c-2.676,21.455-4.342,43.07-5.61,64.648c-2.352,40.027-3.312,80.801,2.086,120.63
			c1.208,8.913,2.773,17.771,4.992,26.492c0.95,3.735,2.066,7.428,3.325,11.07c0.547,1.586,1.4,3.303,1.143,5.041
			c-1.061,7.141-13.674,9.029-19.087,10.066c-13.398,2.567-27.297,2.81-40.896,2.845c-15.598,0.041-31.196-0.666-46.759-1.668
			c-18.405-1.187-36.821-2.76-55.134-4.976c0.752,0.752,1.504,1.504,2.256,2.256c-5.084-56.374-8.9-113.033-9.956-169.631
			c-0.432-23.108-1.162-47.003,2.586-69.9c0.466-2.846-3.882-4.065-4.352-1.199c-5.087,31.084-3.181,63.75-2.099,95.072
			c1.246,36.111,3.537,72.188,6.259,108.216c0.942,12.486,1.925,24.972,3.05,37.442c0.121,1.343,0.945,2.098,2.256,2.256
			c18.017,2.18,36.13,3.717,54.234,4.917c28.914,1.916,59.014,3.833,87.751-0.922c7.742-1.281,17.879-3.209,22.776-10.053
			c1.841-2.573,1.988-5.93,1.071-8.866c-2.414-7.73-4.759-15.308-6.369-23.268c-7.981-39.448-7.142-80.929-5.387-120.941
			c1.164-26.54,3.086-53.157,6.375-79.528c-1.132,0.649-2.263,1.299-3.395,1.948c10.006,7.447,19.478,15.703,28.586,24.21
			c7.924,7.4,15.479,15.21,22.413,23.55c6.425,7.729,12.943,16.487,16.394,26.029c5.52,15.265-5.586,32.915-13.897,44.913
			c-9.202,13.284-20.392,25.249-32.07,36.377c-2.451,2.335-4.934,4.649-7.502,6.857c-0.947,0.815-0.8,2.354,0,3.191
			c12.234,12.803,24.468,25.605,36.701,38.408c0.782,0.817,2.432,0.944,3.191,0c16.23-20.181,31.1-41.716,44.257-64.009
			c9.188-15.568,17.853-32.026,22.676-49.536c3.873-14.062,2.404-26.76-2.868-40.224c-6.809-17.385-17.062-33.422-27.786-48.614
			c-12.218-17.309-25.79-33.699-40.302-49.127c-12.285-13.061-25.409-25.679-40.109-36.014
			c-14.113-9.923-29.774-12.984-46.81-13.758c-30.836-1.398-62.429,3.498-92.72,8.638c-8.956,1.521-15.838,5.708-22.32,12.108
			c-12.053,11.901-21.054,27.059-29.387,41.654c-17.921,31.388-32.639,64.633-46.742,97.865
			C1766.39,1040.285,1770.275,1042.586,1771.409,1039.916L1771.409,1039.916z"/>
	</g>
</g>
<g>
	<path fill="#F4EDE1" d="M1825.254,894.745c-2.075-20.893,19.556-35.154,12.562-60.021c-3.342-11.885-19.008-43.686-38.254-38.354
		c-46.739,12.954,3.378,90.101,0,110.937C1796.183,928.142,1828.984,932.297,1825.254,894.745z"/>
	<g>
		<path fill="#1D1B3A" d="M1827.51,894.745c-0.838-10.819,4.566-20.075,8.828-29.62c4.257-9.535,6.312-19.178,4.04-29.521
			c-1.764-8.031-6.006-15.913-10.362-22.788c-4.542-7.169-10.8-14.831-18.993-17.896c-14.202-5.316-29.085,5.918-32.605,19.509
			c-3.982,15.368,1.682,32.781,6.371,47.331c3.487,10.819,7.682,21.425,10.745,32.377c1.063,3.804,2.048,7.758,1.919,11.733
			c-0.138,4.283-0.562,7.729,1.287,11.776c3.175,6.949,11.479,9.123,18.125,6.28C1827.498,919.377,1828.358,904.412,1827.51,894.745
			c-0.252-2.875-4.767-2.899-4.512,0c0.705,8.032,0.697,19.15-6.737,24.353c-4.349,3.042-10.155,1.722-13.018-2.63
			c-2.995-4.551-0.946-10.631-1.641-15.755c-0.911-6.716-3.306-13.281-5.474-19.668c-5.543-16.338-12.225-32.802-14.033-50.092
			c-0.758-7.239-0.472-14.953,3.026-21.494c3.609-6.748,11.888-11.521,19.504-11.413c9.045,0.13,16.276,9.309,20.844,16.054
			c4.651,6.87,8.46,14.66,10.557,22.704c5.496,21.08-14.631,37.247-13.028,57.941
			C1823.221,897.626,1827.734,897.648,1827.51,894.745z"/>
	</g>
</g>
<g>
	<path fill="#F4EDE1" d="M1773.595,805.07c-4.187-1.396-1.395-15.355,4.885-16.053c0,0,30.624-9.713,39.084-2.792
		c8.462,6.923,18.843,16.749,18.843,16.749c0.478,1.421-2.201,5.629-11.382,4.354s-22.315-7.396-22.315-7.396l-12.369,6.503"/>
	<g>
		<path fill="#1D1B3A" d="M1774.733,803.122c-2.011-0.996-0.484-5.693-0.004-7.197c0.765-2.397,2.132-4.04,4.499-4.778
			c3.484-1.087,7.03-1.983,10.587-2.799c6.006-1.378,12.143-2.401,18.32-2.345c7.556,0.069,11.877,5.143,17.233,9.91
			c2.485,2.211,4.937,4.46,7.375,6.723c0.608,0.564,1.214,1.132,1.818,1.7c-0.651-0.612,0.175-1.181-1.364-0.121
			c-5.9,4.06-17.546-1.448-23.354-3.694c-3.28-1.269-6.132-3.662-9.449-1.918c-3.731,1.962-7.463,3.924-11.194,5.885
			c-2.576,1.354-0.296,5.249,2.277,3.896c4.123-2.168,8.246-4.336,12.369-6.503c-0.759,0-1.519,0-2.277,0
			c5.664,2.619,11.545,4.845,17.558,6.513c5.391,1.495,14.845,3.287,18.647-2.384c2.62-3.908-1.532-6.288-4.144-8.692
			c-3.59-3.304-7.234-6.547-10.936-9.726c-2.467-2.118-4.657-4.119-7.759-5.169c-5.612-1.898-12.295-0.856-17.995-0.02
			c-5.859,0.859-11.656,2.275-17.342,3.921c-4.094,1.186-6.742,2.84-8.629,6.918c-1.751,3.783-3.261,11.424,1.484,13.776
			C1775.054,808.306,1777.341,804.415,1774.733,803.122L1774.733,803.122z"/>
	</g>
</g>
<g>
	<path fill="#F4EDE1" d="M1765.933,820.765c-4.188-1.396-1.396-15.354,4.886-16.053c0,0,30.622-9.713,39.084-2.79
		c8.462,6.921,18.843,16.747,18.843,16.747"/>
	<g>
		<path fill="#1D1B3A" d="M1767.071,818.817c-2.603-1.29,0.125-7.732,1.027-9.371c1.06-1.922,2.7-2.381,4.6-2.946
			c5.479-1.631,11.064-2.926,16.699-3.879c6.244-1.057,14.793-2.498,20.074,1.857c6.09,5.023,11.941,10.365,17.678,15.787
			c2.113,1.996,5.31-1.189,3.191-3.191c-2.744-2.593-5.533-5.138-8.337-7.666c-3.908-3.523-8.009-8.15-12.754-10.523
			c-7.355-3.68-17.667-1.346-25.29,0.164c-3.691,0.73-7.347,1.652-10.969,2.669c-2.006,0.562-4.402,0.976-6.04,2.293
			c-4.203,3.38-8.797,15.412-2.157,18.703C1767.392,824,1769.679,820.109,1767.071,818.817L1767.071,818.817z"/>
	</g>
</g>
<g>
	<path fill="#F4EDE1" d="M1818.974,862.639c-7.932-12.199-31.172-17.797-34.25-29.334l1.074-0.359
		c10.736-4.697,13.419-5.367,23.485-1.343c9.395,2.685,12.108,4.865,20.158-3.859c7.385-7.382-19.434-11.38-34.195-16.749
		c-12.08,5.369-24.552,5.23-34.923,14.381c0.671,14.764,20.802,59.757,34.224,63.784"/>
	<g>
		<path fill="#1D1B3A" d="M1820.922,861.5c-4.161-6.03-10.344-9.984-16.495-13.749c-6.048-3.701-15.229-7.719-17.527-15.046
			c-0.525,0.925-1.051,1.85-1.576,2.775c4.921-1.646,9.309-4.412,14.658-4.227c5.617,0.194,11.104,3.614,16.626,4.712
			c6.152,1.222,15.763-4.009,16.352-10.723c0.555-6.331-12.312-9.053-16.33-10.264c-5.003-1.507-10.067-2.804-15.076-4.293
			c-1.882-0.56-4.349-1.948-6.307-1.948c-2.835,0-6.866,2.461-9.694,3.306c-5.633,1.684-11.45,2.912-16.818,5.38
			c-3.549,1.632-10.998,4.489-10.569,9.213c0.717,7.905,3.815,15.719,6.763,23.007c3.681,9.104,8.079,17.971,13.389,26.237
			c3.567,5.554,8.178,12.412,14.529,15.039c0.358,0.162,0.726,0.301,1.103,0.415c2.764,0.936,3.939-3.423,1.199-4.352
			c-5.387-1.824-9.325-8.006-12.325-12.453c-4.463-6.614-8.1-13.801-11.386-21.059c-3.1-6.847-5.78-13.949-7.663-21.23
			c-0.349-1.349-0.631-2.712-0.879-4.081c-0.469-2.586,0.411-2.397,2.551-3.862c4.997-3.42,11.017-5.033,16.777-6.631
			c2.532-0.703,5.057-1.413,7.562-2.203c1.369-0.432,4.491-2.426,5.937-1.913c3.989,1.416,8.099,2.507,12.174,3.641
			c4.072,1.133,8.144,2.263,12.154,3.598c2.56,0.853,6.561,1.896,8.262,4.21c1.257,1.71-6.859,6.498-8.444,6.696
			c-3.589,0.45-8.343-1.63-11.596-2.896c-3.734-1.453-7.562-2.383-11.575-1.929c-4.483,0.508-8.366,2.852-12.571,4.258
			c-1.133,0.379-1.959,1.555-1.576,2.775c2.011,6.405,7.768,10.341,13.164,13.803c7.37,4.728,16.198,8.658,21.313,16.07
			C1818.666,866.155,1822.579,863.902,1820.922,861.5L1820.922,861.5z"/>
	</g>
</g>
<g>
	<g>
		<path fill="#1D1B3A" d="M1865.534,894.244c11.438,9.055,26.796,13.127,41.124,14.063c20.804,1.359,40.649-6.574,54.888-21.741
			c1.989-2.118-1.195-5.315-3.189-3.189c-13.349,14.217-31.094,21.146-50.495,20.479c-13.291-0.457-28.527-4.402-39.136-12.801
			C1866.47,889.268,1863.254,892.439,1865.534,894.244L1865.534,894.244z"/>
	</g>
</g>
<g>
	<path fill="#58566D" d="M1783.461,1039.444c0.667-16.667,49.978-125.033,52.77-141.78l-1.227-0.659
		c-12.561,6.281-35.064,6.242-48.325,2.054l-0.664,0.198c0.873,29.706-99.718,143.366-38.554,176.188
		c27.333,14.667,80-48.667,80-48.667"/>
	<g>
		<path fill="#1D1B3A" d="M1785.717,1039.444c0.483-8.845,5.093-18.279,8.134-26.444c5.55-14.899,11.581-29.62,17.588-44.34
			c5.885-14.422,11.842-28.816,17.554-43.308c3.424-8.687,7.776-17.829,9.414-27.089c0.173-0.98-0.091-2.039-1.037-2.548
			c-3.207-1.724-5.417,0.31-8.723,1.371c-5.177,1.662-10.663,2.271-16.068,2.561c-5.549,0.297-11.161-0.009-16.657-0.808
			c-3.109-0.452-7.48-2.662-10.506-1.759c-0.954,0.285-1.671,1.158-1.656,2.176c0.148,10.389-7.117,21.528-11.806,30.332
			c-7.864,14.771-16.352,29.198-24.067,44.051c-7.748,14.911-15.005,30.355-19.361,46.64c-3.447,12.885-4.844,27.012,0.646,39.524
			c3.917,8.927,12.93,17.357,22.548,19.58c11.158,2.577,22.995-3.74,32.062-9.527c17.087-10.906,32.326-25.942,45.275-41.483
			c1.849-2.219-1.325-5.429-3.189-3.191c-6.363,7.637-13.363,14.799-20.576,21.627c-11.848,11.218-25.793,23.422-41.924,27.69
			c-13.739,3.636-26.59-6.598-31.175-19.185c-4.918-13.501-1.171-28.95,3.148-42.07c7.713-23.428,20.399-45.068,32.353-66.517
			c5.132-9.209,10.327-18.418,14.765-27.988c2.773-5.98,5.91-12.74,5.813-19.482c-0.552,0.726-1.104,1.45-1.656,2.176
			c0.872-0.261,3.183,0.811,4.201,1.041c1.931,0.437,3.899,0.745,5.862,0.995c4.798,0.61,9.592,0.843,14.426,0.745
			c8.536-0.173,17.288-1.572,25.039-5.261c-0.759,0-1.519,0-2.277,0c0.409,0.22,0.817,0.439,1.227,0.659
			c-0.346-0.85-0.691-1.698-1.037-2.548c-1.638,9.263-5.996,18.396-9.413,27.089c-5.838,14.848-11.954,29.585-17.982,44.355
			c-5.979,14.652-11.953,29.314-17.478,44.146c-3.114,8.36-7.482,17.74-7.977,26.79
			C1781.046,1042.353,1785.559,1042.337,1785.717,1039.444L1785.717,1039.444z"/>
	</g>
</g>
<path fill="#F4EDE1" d="M2006.512,1145.922l-27.601,10.923c0,0-14.816,7.062-15.348,15.307c-0.529,8.242,2.729,36.086,16.671,41.58
	c13.943,5.496,13.034,10.937,18.914,10.363s35.991-5.951,35.458-11.236c-0.535-5.285-7.538-7.328-7.538-7.328
	s10.344-1.058,11.39-5.027s0.517-10.167-2.924-9.185c-3.438,0.981-6.923-0.437-6.923-0.437s7.581-2.816,8.247-5.853
	c0.666-3.035-7.847-7.34-7.847-7.34l10.167-3.9L2006.512,1145.922z"/>
<path fill="#1D1B3A" stroke="#1D1B3A" stroke-width="1.0793" stroke-miterlimit="10" d="M2015.562,1144.506l-0.697,0.063
	l-1.518,0.166l-1.611,0.224l-1.678,0.273l-1.745,0.321l-1.801,0.368l-2.782,0.633l-3.852,0.986l-3.959,1.143l-3.995,1.277
	l-3.972,1.398l-3.89,1.509l-3.748,1.603l-2.689,1.261l-1.723,0.866l-1.645,0.879l-1.568,0.896l-1.483,0.913l-1.396,0.928
	l-1.298,0.942l-1.2,0.961l-1.088,0.98l-0.974,1.008l-0.85,1.039l-0.719,1.08l-0.339,0.623c-0.021,0.041-0.043,0.085-0.062,0.127
	l-0.344,0.768l-0.639,1.794l-0.477,1.941l-0.304,2.02l-0.137,2.081l0.013,2.137l0.158,2.185l0.293,2.224l0.422,2.252l0.542,2.276
	l0.657,2.29l0.768,2.295l0.87,2.292l0.966,2.281l1.061,2.258l1.148,2.228l1.229,2.188l1.307,2.14l1.381,2.081l1.446,2.013
	l1.51,1.934l1.57,1.849l1.621,1.75l1.676,1.644l1.72,1.526l1.765,1.402l1.807,1.261l1.843,1.115l1.881,0.953l1.914,0.779
	l1.943,0.593l1.971,0.388l1.057,0.118c0.036,0.004,0.073,0.009,0.109,0.011l0.979,0.053l2.142,0.004l2.22-0.127l2.225-0.233
	l3.288-0.487l3.2-0.577l2.03-0.398l0.97-0.19c0.002,0,0.004-0.002,0.006-0.002l1.175-0.236l2.251-0.48l2.106-0.488l1.956-0.498
	l1.811-0.502l1.67-0.508l1.532-0.517l1.402-0.522l1.277-0.529l1.157-0.537l1.041-0.551l0.937-0.562l0.835-0.584l0.735-0.609
	l0.644-0.647l0.546-0.695l0.444-0.753l0.32-0.818l0.178-0.868l0.013-0.892l-0.15-0.868l-0.293-0.816l-0.603-1.022l-1.077-1.201
	l-1.335-1.055l-1.505-0.91l-1.657-0.806l-1.781-0.717l-1.891-0.637l-1.971-0.552l-2.028-0.475l-2.054-0.386l-2.053-0.297
	l-2.024-0.205l-1.969-0.101l-1.887,0.002l-1.781,0.12l-1.657,0.244l-1.187,0.289l-0.771,0.255l-0.702,0.304l-0.668,0.367
	l-0.629,0.448l-0.579,0.549l-0.502,0.662l-0.388,0.779l-0.232,0.869l-0.053,0.908l0.049,0.551c0.02,0.153,0.053,0.303,0.104,0.448
	l0.053,0.154l0.826,1.134l1.248,0.631l1.046,0.151l0.946-0.017l0.932-0.097l1.408-0.236l1.934-0.422l1.863-0.457l1.237-0.308
	l0.698-0.165l0.564-0.12l0.38-0.059l0.024,0.004l-0.103,0.006l0.552-0.025l1.246-0.035l1.47-0.029l1.656-0.036l1.807-0.051
	l1.912-0.078l1.984-0.12l2.02-0.173l2.02-0.236l1.985-0.315l1.923-0.411l1.832-0.523l1.712-0.657l1.225-0.62l0.786-0.493
	l0.706-0.537l0.651-0.605l0.586-0.688l0.502-0.768l0.251-0.486c0.021-0.04,0.036-0.078,0.053-0.116l0.139-0.333l0.271-0.773
	l0.204-0.812l0.112-0.81l0.017-0.802l-0.087-0.79l-0.191-0.766l-0.289-0.721l-0.552-0.917l-0.96-1.048l-1.157-0.864l-1.248-0.668
	l-1.296-0.527l-1.328-0.422l-1.978-0.484l-2.57-0.489l-1.747-0.302l-0.995-0.188l-0.415-0.089c-0.007,0-0.013-0.002-0.017-0.002
	l-1.304-0.266l-2.837-0.421l-2.977-0.245l-3.027-0.044l-3.031,0.16l-2.987,0.377l-2.207,0.438l-1.446,0.371l-1.385,0.431
	l-1.344,0.497l-0.683,0.287c-1.141,0.482-1.674,1.796-1.191,2.937c0.483,1.141,1.797,1.674,2.937,1.19l0,0l0.504-0.215l1.115-0.419
	l1.175-0.369l1.199-0.316l1.896-0.386l2.662-0.348l2.726-0.154l2.732,0.032l2.677,0.208l2.602,0.382l1.301,0.264l-0.017-0.002
	l0.519,0.107l1.057,0.198l1.68,0.289l2.34,0.44l1.701,0.406l1.014,0.312l0.886,0.337l0.724,0.353l0.533,0.331l0.398,0.344
	l0.209,0.271l0.086,0.142l0.065,0.162l0.046,0.2l0.018,0.253l-0.023,0.32l-0.082,0.388l-0.167,0.5l-0.139,0.333l0.053-0.116
	l-0.021,0.072l-0.158,0.293l-0.228,0.299l-0.302,0.304l-0.379,0.306l-0.422,0.282l-0.797,0.426l-1.324,0.527l-1.532,0.447
	l-1.688,0.366l-1.805,0.291l-1.876,0.222l-1.906,0.164l-1.901,0.116l-1.853,0.078l-1.771,0.049l-1.654,0.035l-1.508,0.032
	l-1.319,0.037l-0.552,0.025c-0.034,0.003-0.07,0.005-0.104,0.007l-0.346,0.038l-0.586,0.099l-0.662,0.142l-0.746,0.177l-1.226,0.306
	l-1.754,0.431l-1.729,0.381l-1.148,0.198l-0.597,0.074l-0.388,0.031l-0.053,0.053l0.432,0.364l0.342,0.68l-0.051-0.154l0.104,0.447
	l-0.015,0.057l-0.042-0.029h-0.049l-0.038-0.02l0.004-0.065l0.076-0.111l0.167-0.146l0.261-0.164l0.353-0.163l0.4-0.147l0.773-0.204
	l1.29-0.204l1.488-0.108l1.641-0.01l1.756,0.088l1.828,0.18l1.865,0.266l1.868,0.348l1.831,0.424l1.761,0.487l1.648,0.548
	l1.501,0.592l1.312,0.62l1.073,0.62l0.797,0.571l0.541,0.51l0.236,0.308l0.072,0.095l0.05,0.053l0.04,0.047l0.025,0.08l-0.017,0.144
	l-0.095,0.215l-0.196,0.284l-0.31,0.338l-0.44,0.381l-0.569,0.411l-0.706,0.433l-0.842,0.451l-0.982,0.459l-1.121,0.469
	l-1.265,0.474l-1.413,0.477l-1.562,0.477l-1.714,0.477l-1.868,0.475l-2.025,0.474l-2.199,0.469l-1.172,0.235h0.006l-0.961,0.188
	l-1.971,0.385l-3.057,0.557l-3.104,0.462l-2.02,0.218l-1.95,0.119l-1.896,0.003l-0.976-0.055l0.111,0.01l-0.688-0.065l-1.524-0.277
	l-1.554-0.456l-1.575-0.626l-1.585-0.793l-1.592-0.95l-1.587-1.099l-1.575-1.241l-1.554-1.373l-1.528-1.492l-1.492-1.604
	l-1.453-1.703l-1.403-1.794l-1.35-1.872l-1.29-1.941l-1.225-1.998l-1.153-2.045l-1.073-2.079l-0.992-2.105l-0.902-2.119l-0.81-2.123
	l-0.711-2.114l-0.604-2.091l-0.498-2.062l-0.384-2.018l-0.266-1.963l-0.146-1.894l-0.021-1.811l0.101-1.72l0.224-1.617l0.351-1.506
	l0.499-1.443l0.344-0.768l-0.063,0.127l0.129-0.266l0.444-0.707l0.602-0.752l0.748-0.789l0.892-0.813l1.022-0.826l1.146-0.837
	l1.261-0.841l1.362-0.839l1.459-0.835l1.545-0.829l1.61-0.812l2.549-1.199l3.604-1.543l3.759-1.459l3.848-1.359l3.873-1.238
	l3.828-1.106l3.731-0.959l7.458-7.154l-3.055,6.193l1.65-0.307l1.577-0.259l1.49-0.206l1.415-0.158l0.697-0.063
	c1.233-0.107,2.145-1.195,2.037-2.429C2017.883,1145.309,2016.795,1144.399,2015.562,1144.506"/>
<path fill="#1D1B3A" stroke="#1D1B3A" stroke-width="1.0793" stroke-miterlimit="10" d="M2039.344,1172.423l-0.702,0.38l-1.39,0.7
	l-2.198,0.986l-3.109,1.235l-3.255,1.176l-3.344,1.155l-3.371,1.179l-3.328,1.239l-2.445,1.004l-1.597,0.717l-1.538,0.755
	l-1.488,0.805l-1.428,0.862l-1.361,0.928l-1.286,1.001l-1.197,1.086l-1.101,1.174l-0.991,1.276l-0.864,1.38l-0.723,1.486
	l-0.565,1.592l-0.394,1.695l-0.216,1.792l-0.025,1.882l0.167,1.976l0.36,2.066l0.264,1.112c0.289,1.204,1.499,1.944,2.703,1.653
	c1.203-0.289,1.945-1.501,1.654-2.703l0,0l-0.209-0.85l-0.308-1.678l-0.147-1.543l-0.002-1.421l0.133-1.308l0.257-1.21l0.376-1.128
	l0.488-1.062l0.607-1.003l0.721-0.957l0.833-0.911l0.946-0.868l1.052-0.831l1.151-0.792l1.242-0.757l1.328-0.721l1.401-0.691
	l1.459-0.658l2.306-0.949l3.245-1.209l3.355-1.173l3.403-1.176l3.387-1.228l3.293-1.312l2.374-1.071l1.512-0.764l0.704-0.379
	c1.086-0.593,1.49-1.952,0.9-3.04C2041.793,1172.236,2040.432,1171.832,2039.344,1172.423"/>
<path fill="#1D1B3A" stroke="#1D1B3A" stroke-width="1.0793" stroke-miterlimit="10" d="M2020.073,1191.274l1.37,0.045l2.732-0.03
	l2.595-0.179l1.841-0.228l1.166-0.196l1.092-0.224l1.035-0.259l0.972-0.289l0.91-0.32l0.846-0.356l0.782-0.396l0.719-0.442
	l0.655-0.5l0.589-0.584l0.508-0.693l0.384-0.831l0.189-0.965l-0.071-1.022l-0.333-0.966l-0.529-0.843l-0.666-0.724l-0.774-0.63
	l-0.877-0.567l-0.986-0.524l-1.104-0.496l-1.229-0.472l-1.369-0.455l-1.507-0.437l-1.657-0.42l-0.902-0.209
	c-1.208-0.275-2.409,0.477-2.688,1.683c-0.276,1.206,0.477,2.409,1.683,2.686l0,0l0.808,0.186l1.513,0.382l1.346,0.386l1.176,0.388
	l1.008,0.38l0.843,0.368l0.673,0.344l0.506,0.308l0.342,0.243l0.189,0.149l0.074,0.021l0.029-0.112l0.055-0.181l0.089-0.142
	l0.067-0.027l-0.017,0.089l-0.138,0.17l-0.261,0.224l-0.382,0.249l-0.493,0.259l-0.595,0.26l-0.691,0.249l-0.776,0.235l-0.855,0.216
	l-0.93,0.195l-0.976,0.169l-1.594,0.202l-2.332,0.169l-2.538,0.029l-1.372-0.042c-1.235-0.04-2.272,0.932-2.311,2.169
	C2017.864,1190.201,2018.836,1191.234,2020.073,1191.274"/>
<g>
	<path fill="#F4EDE1" d="M1881.786,891.252c0.109-0.229,0.205-0.46,0.308-0.689c-1.718-0.442-3.448-0.911-5.193-1.403
		L1881.786,891.252z"/>
	<g>
		<path fill="#1D1B3A" d="M1883.734,892.391c0.105-0.229,0.208-0.458,0.308-0.689c0.567-1.295,0.187-2.917-1.349-3.314
			c-1.736-0.448-3.467-0.917-5.193-1.403c-0.974-0.273-2.039,0.168-2.548,1.037c-0.562,0.961-0.321,2.602,0.81,3.087
			c1.629,0.697,3.257,1.395,4.886,2.093C1881.778,893.685,1883.056,893.548,1883.734,892.391c0.562-0.961,0.321-2.603-0.81-3.087
			c-1.629-0.697-3.257-1.395-4.886-2.093c-0.579,1.375-1.159,2.749-1.738,4.124c1.727,0.485,3.457,0.954,5.193,1.403
			c-0.449-1.105-0.899-2.21-1.349-3.314c-0.1,0.231-0.202,0.461-0.308,0.689c-0.508,1.12-0.332,2.418,0.81,3.087
			C1881.625,893.773,1883.226,893.511,1883.734,892.391z"/>
	</g>
</g>
<g>
	<path fill="#F4EDE1" d="M1881.786,891.252c0.109-0.229,0.205-0.46,0.308-0.689c-1.718-0.442-3.448-0.911-5.193-1.403
		L1881.786,891.252z"/>
	<g>
		<path fill="#1D1B3A" d="M1883.734,892.391c0.105-0.229,0.208-0.458,0.308-0.689c0.567-1.295,0.187-2.917-1.349-3.314
			c-1.736-0.448-3.467-0.917-5.193-1.403c-0.974-0.273-2.039,0.168-2.548,1.037c-0.562,0.961-0.321,2.602,0.81,3.087
			c1.629,0.697,3.257,1.395,4.886,2.093C1881.778,893.685,1883.056,893.548,1883.734,892.391c0.562-0.961,0.321-2.603-0.81-3.087
			c-1.629-0.697-3.257-1.395-4.886-2.093c-0.579,1.375-1.159,2.749-1.738,4.124c1.727,0.485,3.457,0.954,5.193,1.403
			c-0.449-1.105-0.899-2.21-1.349-3.314c-0.1,0.231-0.202,0.461-0.308,0.689c-0.508,1.12-0.332,2.418,0.81,3.087
			C1881.625,893.773,1883.226,893.511,1883.734,892.391z"/>
	</g>
</g>
<g>
	<path fill="#F4EDE1" d="M1881.786,891.252c0.109-0.229,0.205-0.46,0.308-0.689c-1.718-0.442-3.448-0.911-5.193-1.403
		L1881.786,891.252z"/>
	<g>
		<path fill="#1D1B3A" d="M1883.734,892.391c0.105-0.229,0.208-0.458,0.308-0.689c0.567-1.295,0.187-2.917-1.349-3.314
			c-1.736-0.448-3.467-0.917-5.193-1.403c-0.974-0.273-2.039,0.168-2.548,1.037c-0.562,0.961-0.321,2.602,0.81,3.087
			c1.629,0.697,3.257,1.395,4.886,2.093C1881.778,893.685,1883.056,893.548,1883.734,892.391c0.562-0.961,0.321-2.603-0.81-3.087
			c-1.629-0.697-3.257-1.395-4.886-2.093c-0.579,1.375-1.159,2.749-1.738,4.124c1.727,0.485,3.457,0.954,5.193,1.403
			c-0.449-1.105-0.899-2.21-1.349-3.314c-0.1,0.231-0.202,0.461-0.308,0.689c-0.508,1.12-0.332,2.418,0.81,3.087
			C1881.625,893.773,1883.226,893.511,1883.734,892.391z"/>
	</g>
</g>
<g>
	<path fill="#F4EDE1" d="M1881.786,891.252c0.109-0.229,0.205-0.46,0.308-0.689c-1.718-0.442-3.448-0.911-5.193-1.403
		L1881.786,891.252z"/>
	<g>
		<path fill="#1D1B3A" d="M1883.734,892.391c0.105-0.229,0.208-0.458,0.308-0.689c0.567-1.295,0.187-2.917-1.349-3.314
			c-1.736-0.448-3.467-0.917-5.193-1.403c-0.974-0.273-2.039,0.168-2.548,1.037c-0.562,0.961-0.321,2.602,0.81,3.087
			c1.629,0.697,3.257,1.395,4.886,2.093C1881.778,893.685,1883.056,893.548,1883.734,892.391c0.562-0.961,0.321-2.603-0.81-3.087
			c-1.629-0.697-3.257-1.395-4.886-2.093c-0.579,1.375-1.159,2.749-1.738,4.124c1.727,0.485,3.457,0.954,5.193,1.403
			c-0.449-1.105-0.899-2.21-1.349-3.314c-0.1,0.231-0.202,0.461-0.308,0.689c-0.508,1.12-0.332,2.418,0.81,3.087
			C1881.625,893.773,1883.226,893.511,1883.734,892.391z"/>
	</g>
</g>
<g>
	<path fill="#F4EDE1" d="M1881.786,891.252c0.109-0.229,0.205-0.46,0.308-0.689c-1.718-0.442-3.448-0.911-5.193-1.403
		L1881.786,891.252z"/>
	<g>
		<path fill="#1D1B3A" d="M1883.734,892.391c0.105-0.229,0.208-0.458,0.308-0.689c0.567-1.295,0.187-2.917-1.349-3.314
			c-1.736-0.448-3.467-0.917-5.193-1.403c-0.974-0.273-2.039,0.168-2.548,1.037c-0.562,0.961-0.321,2.602,0.81,3.087
			c1.629,0.697,3.257,1.395,4.886,2.093C1881.778,893.685,1883.056,893.548,1883.734,892.391c0.562-0.961,0.321-2.603-0.81-3.087
			c-1.629-0.697-3.257-1.395-4.886-2.093c-0.579,1.375-1.159,2.749-1.738,4.124c1.727,0.485,3.457,0.954,5.193,1.403
			c-0.449-1.105-0.899-2.21-1.349-3.314c-0.1,0.231-0.202,0.461-0.308,0.689c-0.508,1.12-0.332,2.418,0.81,3.087
			C1881.625,893.773,1883.226,893.511,1883.734,892.391z"/>
	</g>
</g>
<g>
	<path fill="#F4EDE1" d="M1881.786,891.252c0.109-0.229,0.205-0.46,0.308-0.689c-1.718-0.442-3.448-0.911-5.193-1.403
		L1881.786,891.252z"/>
	<g>
		<path fill="#1D1B3A" d="M1883.734,892.391c0.105-0.229,0.208-0.458,0.308-0.689c0.567-1.295,0.187-2.917-1.349-3.314
			c-1.736-0.448-3.467-0.917-5.193-1.403c-0.974-0.273-2.039,0.168-2.548,1.037c-0.562,0.961-0.321,2.602,0.81,3.087
			c1.629,0.697,3.257,1.395,4.886,2.093C1881.778,893.685,1883.056,893.548,1883.734,892.391c0.562-0.961,0.321-2.603-0.81-3.087
			c-1.629-0.697-3.257-1.395-4.886-2.093c-0.579,1.375-1.159,2.749-1.738,4.124c1.727,0.485,3.457,0.954,5.193,1.403
			c-0.449-1.105-0.899-2.21-1.349-3.314c-0.1,0.231-0.202,0.461-0.308,0.689c-0.508,1.12-0.332,2.418,0.81,3.087
			C1881.625,893.773,1883.226,893.511,1883.734,892.391z"/>
	</g>
</g>
<g>
	<path fill="#F4EDE1" d="M1881.077,832.245c1.547,18.316,7.217,39.979,0.899,59.119c25.067,8.727,51.487,12.844,73.693-11.888
		l-6.54-2.76c0.614-19.06,2.517-27.488,2.774-48.442C1935.969,807.319,1880.876,792.888,1881.077,832.245z"/>
	<g>
		<path fill="#1D1B3A" d="M1878.821,832.245c1.756,19.438,6.949,39.307,0.979,58.52c-0.382,1.229,0.444,2.386,1.576,2.775
			c12.614,4.343,25.761,7.67,39.201,6.626c14.503-1.126,26.979-8.547,36.687-19.094c1.254-1.362,0.562-3.113-0.995-3.771
			c-2.18-0.92-4.36-1.84-6.54-2.76c0.553,0.726,1.104,1.451,1.656,2.176c0.306-8.754,1.041-17.465,1.737-26.193
			c0.353-4.414,0.619-8.832,0.808-13.256c0.147-3.486,1.355-8.302-0.911-11.203c-6.771-8.668-17.661-14.201-27.869-17.637
			c-9.869-3.322-21.52-4.833-31.452-0.977C1883.233,811.513,1878.914,821.583,1878.821,832.245c-0.025,2.911,4.486,2.908,4.512,0
			c0.089-10.206,4.436-18.568,14.642-21.474c9.365-2.666,19.878-0.279,28.766,2.989c4.655,1.711,9.081,4.042,13.231,6.747
			c2.816,1.834,9.701,6.151,9.647,9.695c-0.232,15.546-2.203,30.982-2.745,46.514c-0.038,1.096,0.74,1.789,1.656,2.176
			c2.18,0.92,4.359,1.84,6.54,2.76c-0.332-1.257-0.664-2.514-0.995-3.771c-9.381,10.191-20.922,16.797-34.862,17.879
			c-12.481,0.97-24.958-2.549-36.637-6.571c0.525,0.926,1.051,1.851,1.576,2.775c6.107-19.657,0.978-39.827-0.819-59.719
			C1883.073,829.372,1878.56,829.346,1878.821,832.245z"/>
	</g>
</g>
<g>
	<path fill="#F4EDE1" d="M1881.786,891.252c0.109-0.229,0.205-0.46,0.308-0.689c-1.718-0.442-3.448-0.911-5.193-1.403
		L1881.786,891.252z"/>
	<g>
		<path fill="#1D1B3A" d="M1883.734,892.391c0.105-0.229,0.208-0.458,0.308-0.689c0.567-1.295,0.187-2.917-1.349-3.314
			c-1.736-0.448-3.467-0.917-5.193-1.403c-0.974-0.273-2.039,0.168-2.548,1.037c-0.562,0.961-0.321,2.602,0.81,3.087
			c1.629,0.697,3.257,1.395,4.886,2.093C1881.778,893.685,1883.056,893.548,1883.734,892.391c0.562-0.961,0.321-2.603-0.81-3.087
			c-1.629-0.697-3.257-1.395-4.886-2.093c-0.579,1.375-1.159,2.749-1.738,4.124c1.727,0.485,3.457,0.954,5.193,1.403
			c-0.449-1.105-0.899-2.21-1.349-3.314c-0.1,0.231-0.202,0.461-0.308,0.689c-0.508,1.12-0.332,2.418,0.81,3.087
			C1881.625,893.773,1883.226,893.511,1883.734,892.391z"/>
	</g>
</g>
</svg>
