<?xml version="1.0" encoding="utf-8"?>
<!-- Generator: Adobe Illustrator 16.0.4, SVG Export Plug-In . SVG Version: 6.00 Build 0)  -->
<!DOCTYPE svg PUBLIC "-//W3C//DTD SVG 1.1//EN" "http://www.w3.org/Graphics/SVG/1.1/DTD/svg11.dtd">
<svg version="1.1" id="char3-headFront" xmlns="http://www.w3.org/2000/svg" xmlns:xlink="http://www.w3.org/1999/xlink" x="0px"
	 y="0px" width="2554.794px" height="1700.788px" viewBox="0 0 2554.794 1700.788" enable-background="new 0 0 2554.794 1700.788"
	 xml:space="preserve">
<g>
	<path fill="#F4EDE1" d="M1651.609,722.039c0,0,4.959-3.896,6.326-4.81c9.576-7.296,20.521-10.487,23.711,3.19
		c2.28,10.945-2.278,25.992-10.031,34.656c-5.927,5.927-15.108,6.363-22.404,5.453c0,0-7.557,42.1-12.707,44.706
		c-3.477,1.76-21.853,7.051-49.217,16.631c-10.552,3.692-46.996,14.377-54.292,11.184c-13.68-5.472-27.359-16.87-39.215-26.445
		c-8.663-7.298-23.712-17.784-27.816-29.185c-2.734-6.84,0.913-15.959,2.737-22.8c7.751-26.902,13.223-54.718,19.149-82.076
		c0,0,150.745-10.766,158.271,2.919C1653.646,689.144,1651.609,722.039,1651.609,722.039z"/>
	<g>
		<path fill="#1D1B3A" d="M1653.126,723.556c4.382-3.438,8.836-7.164,14.016-9.33c8.872-3.713,12.599,3.511,12.939,11.498
			c0.355,8.334-2.648,16.858-6.98,23.854c-5.319,8.591-14.57,9.845-23.89,8.805c-0.874-0.098-1.915,0.721-2.068,1.575
			c-2.271,12.612-4.737,25.45-8.88,37.595c-0.531,1.558-1.312,4.884-2.842,5.829c-2.047,1.266-4.88,1.812-7.141,2.561
			c-10.859,3.6-21.761,7.065-32.592,10.753c-17.945,6.109-36.613,12.898-55.608,14.656c-10.971,1.016-21.665-8.361-29.942-14.514
			c-10.618-7.894-21.294-16.326-31.01-25.32c-7.053-6.527-13.183-13.997-11.588-24.13c1.526-9.693,5.287-19.306,7.724-28.81
			c5.553-21.664,9.931-43.611,14.655-65.465c-0.689,0.525-1.379,1.05-2.068,1.575c20.704-1.476,41.45-2.504,62.193-3.242
			c16.603-0.59,33.225-0.947,49.838-0.709c12.401,0.178,25.288,0.229,37.458,2.902c2.196,0.481,4.499,1.058,6.39,2.323
			c2.845,1.903,3.791,9.944,4.405,13.414c1.884,10.641,1.979,21.886,1.329,32.661c-0.166,2.766,4.125,2.749,4.291,0
			c0.869-14.429,1.233-31.561-4.55-45.056c-3.361-7.844-13.161-8.18-20.652-9.036c-30.677-3.505-62.322-1.552-93.08-0.213
			c-15.882,0.691-31.765,1.534-47.622,2.664c-0.919,0.065-1.858,0.602-2.068,1.575c-3.375,15.611-6.607,31.253-10.164,46.825
			c-3.4,14.89-7.682,29.494-11.525,44.262c-1.41,5.42-1.813,10.826,0.266,16.105c2.009,5.104,5.8,9.417,9.578,13.293
			c8.785,9.013,19.415,16.696,29.298,24.452c5.334,4.187,10.813,8.174,16.565,11.769c4.247,2.653,9.505,6.168,14.572,6.913
			c7.547,1.11,16.053-1.378,23.332-3.06c20.908-4.831,40.969-12.453,61.342-19.074c5.967-1.939,12.231-3.547,17.975-6.109
			c3.776-1.685,5.053-7.547,6.173-11.062c3.644-11.43,5.962-23.392,8.086-35.188c-0.689,0.525-1.379,1.05-2.068,1.575
			c9.567,1.067,19.954-0.308,25.987-8.624c6.407-8.831,9.938-20.111,9-31.037c-0.658-7.663-5.408-15.438-14.055-14.028
			c-7.755,1.266-14.058,6.834-20.051,11.536C1647.917,722.228,1650.976,725.243,1653.126,723.556z"/>
	</g>
</g>
<g>
	<g>
		<path fill="#1D1B3A" d="M1517.948,702.425c-5.575,6.587-10.91,14.813-9.266,23.811c0.259,1.414,1.925,2.15,3.207,1.82
			c9.993-2.578,21.142-31.099,5.122-28.719c-3.315,0.493-1.901,5.516,1.387,5.027c3.521-0.523,0.726,7.036,0.187,8.508
			c-1.296,3.538-4.085,9.125-8.082,10.156c1.069,0.607,2.138,1.214,3.207,1.82c-1.256-6.868,3.732-13.784,7.924-18.738
			C1523.791,703.562,1520.122,699.855,1517.948,702.425L1517.948,702.425z"/>
	</g>
</g>
<g>
	<g>
		<path fill="#1D1B3A" d="M1583.793,703.217c-6.37,7.497-13.053,18.465-9.427,28.61c0.57,1.594,2.276,2.421,3.829,1.558
			c8.475-4.714,17.926-24.113,8.297-31.616c-2.617-2.041-6.335,1.621-3.686,3.686c6.697,5.22-1.514,20.242-7.242,23.429
			c1.276,0.52,2.553,1.039,3.829,1.558c-2.96-8.28,2.889-17.421,8.085-23.538C1589.642,704.358,1585.973,700.651,1583.793,703.217
			L1583.793,703.217z"/>
	</g>
</g>
<g>
	<g>
		<path fill="#1D1B3A" d="M1533.527,717.763c-4.979,4.742-8.758,10.517-13.158,15.764c-3.223,3.844-6.844,7.301-9.938,11.266
			c-4.542,5.818-10.216,15.682-3.444,22.062c5.202,4.902,14.196,1.028,19.568-1.38c7.395-3.315,13.818-8.253,20.973-11.966
			c2.456-1.274,0.286-4.978-2.166-3.705c-4.903,2.545-9.45,5.799-14.262,8.52c-5.385,3.045-13.179,7.8-19.652,6.198
			c-9.919-2.455,3.323-18.447,6.077-21.559c6.401-7.231,12.064-15.523,19.036-22.164
			C1538.568,718.886,1535.529,715.857,1533.527,717.763L1533.527,717.763z"/>
	</g>
</g>
<g>
	<path fill="#EF7B6F" d="M1528.661,785.854c-3.648,1.369-8.664,4.561-5.472,8.208c5.472,6.385,33.59-10.39,37.237-14.036"/>
	<g>
		<path fill="#1D1B3A" d="M1528.091,783.785c-4.23,1.744-11.532,6.674-6.418,11.795c3.114,3.118,8.065,2.058,11.854,1.024
			c5.85-1.596,11.438-4.476,16.729-7.376c3.988-2.188,8.354-4.533,11.688-7.686c2.015-1.903-1.024-4.933-3.033-3.033
			c-4.539,4.289-10.983,7.258-16.522,9.976c-3.759,1.846-7.661,3.437-11.736,4.43c-1.483,0.361-3.098,0.602-4.618,0.336
			c-4.499-0.788,1.729-4.722,3.198-5.327C1531.753,786.884,1530.649,782.731,1528.091,783.785L1528.091,783.785z"/>
	</g>
</g>
<g>
	<path fill="#1D1B3A" d="M1535.978,605.681c-68.393-11.689-69.371,93.646-71.149,94.408c-4.79,2.054,29.62-8.218,54.046-7.524
		c78.93,2.241,111.453,14.611,124.861,22.912c3.28-35.763,8.544-63.961-24.979-92.011c-20.008-16.738-55.287-22.594-82.095-18.47"/>
</g>
<g>
	<path fill="#EF7B6F" d="M1565.596,775.822c-6.384,2.28-12.312,5.475-19.151,6.385c-5.016,0.913-28.729,4.561-31.007-2.735
		c-2.736-9.119,14.592-5.472,17.783-4.56c9.12,2.735,15.96,4.103,25.991,2.735"/>
	<g>
		<path fill="#1D1B3A" d="M1565.025,773.753c-8.274,3.061-15.964,6.112-24.758,7.234c-6.465,0.825-15.1,2.192-21.223-0.678
			c-3.995-1.873-0.497-4.448,2.194-4.695c3.145-0.288,6.394,0.255,9.462,0.892c9.895,2.054,18.232,4.538,28.511,3.286
			c2.711-0.33,2.743-4.625,0-4.291c-7.605,0.926-14.706,0.268-22.097-1.699c-3.827-1.02-7.467-1.967-11.421-2.379
			c-5.723-0.596-15.362,1.104-12.102,9.172c2.771,6.858,14.959,5.638,20.641,5.275c3.964-0.254,7.923-0.779,11.84-1.431
			c7.096-1.179,13.396-4.071,20.093-6.55C1568.737,776.939,1567.626,772.791,1565.025,773.753L1565.025,773.753z"/>
	</g>
</g>
<g>
	<g>
		<path fill="#1D1B3A" d="M1663.092,723.172c-11.44,0.636-21.331,23.124-5.247,23.319c-0.715-0.715-1.431-1.431-2.146-2.146
			c-0.197,0.778-0.645,1.366-1.342,1.765c-2.1,1.81,0.95,4.831,3.033,3.033c1.629-1.404,2.321-2.704,2.6-4.798
			c0.155-1.172-1.094-2.133-2.146-2.146c-9.638-0.117-0.797-14.401,5.247-14.737C1665.843,727.31,1665.857,723.019,1663.092,723.172
			L1663.092,723.172z"/>
	</g>
</g>
<g>
	<g>
		<path fill="#1D1B3A" d="M1654.148,740.181c3.149-1.267,6.267-2.604,9.514-3.607c2.636-0.813,1.511-4.956-1.141-4.137
			c-3.247,1.003-6.364,2.34-9.514,3.607C1650.475,737.063,1651.58,741.215,1654.148,740.181L1654.148,740.181z"/>
	</g>
</g>
</svg>
