<?xml version="1.0" encoding="utf-8"?>
<!-- Generator: Adobe Illustrator 16.0.4, SVG Export Plug-In . SVG Version: 6.00 Build 0)  -->
<!DOCTYPE svg PUBLIC "-//W3C//DTD SVG 1.1//EN" "http://www.w3.org/Graphics/SVG/1.1/DTD/svg11.dtd">
<svg version="1.1" id="char4-head" xmlns="http://www.w3.org/2000/svg" xmlns:xlink="http://www.w3.org/1999/xlink" x="0px" y="0px"
	 width="2554.794px" height="1700.788px" viewBox="0 0 2554.794 1700.788" enable-background="new 0 0 2554.794 1700.788"
	 xml:space="preserve">
<g>
	<path fill="#F4EDE1" d="M1975.414,647.602c-14.064-13.69-34.438-20.343-53.521-24.15c-14.201-2.832-29.149-3.816-43.413-0.78
		c-51.041,10.863-68.184,65.754-61.633,110.984c6.919,47.773,11.423,93.698,65.279,94.456c0.169,0.004,11.849,6.637,12,6.666
		c-6.672,6.981,55.947,14.946,68-9.332c7.154-14.41,1.658-41.058,12-53.334c16.01-19.002,10.243-50.866,14.3-75.535
		C1991.308,679.045,1988.803,660.632,1975.414,647.602z"/>
	<g>
		<g>
			<path fill="#1D1B3A" d="M1997.896,716.224c-5.288,2.577-10.412,6.473-11.198,12.649c-0.494,3.884,3.338,7.922,6.943,8.579
				c3.555,0.646,7.119,1.175,10.632,2.041c1.672,0.412,3.356,0.896,4.861,1.745c0.791,0.447,0.737-0.829,0.08-0.184
				c-1.12,1.098-3.09,1.637-4.498,2.161c-2.701,1.007-1.533,5.369,1.199,4.352c2.995-1.116,7.948-2.661,8.045-6.582
				c0.078-3.121-4.084-4.5-6.403-5.258c-3.801-1.241-7.831-1.805-11.762-2.463c-2.42-0.404-2.363-0.072-4.07-2.418
				c-3.203-4.403,5.588-9.333,8.448-10.727C2002.789,718.845,2000.501,714.956,1997.896,716.224L1997.896,716.224z"/>
		</g>
	</g>
	<g>
		<path fill="#F4EDE1" d="M1950.894,835.174c15.233-8.396,38.567-38.396,35.578-66.055l3.5-5.812
			c44.664,11.167,43.967-78.168-6.98-52.347"/>
		<g>
			<path fill="#1D1B3A" d="M1952.032,837.123c12.724-7.257,22.406-20.232,29.016-33.023c3.76-7.274,6.556-15.309,7.505-23.464
				c0.224-1.923,0.367-3.832,0.429-5.768c0.038-1.189-0.693-4.392-0.257-5.116c1.065-1.768,2.13-3.536,3.195-5.305
				c-0.85,0.346-1.698,0.691-2.548,1.037c9.88,2.343,19.823,0.408,26.793-7.312c6.461-7.154,8.918-17.443,8.406-26.876
				c-0.486-8.975-4.067-17.908-11.45-23.338c-9.332-6.862-21.808-3.632-31.269,1.055c-2.607,1.292-0.32,5.184,2.277,3.896
				c8.349-4.137,18.454-6.736,26.714-1.055c6.339,4.359,8.857,12.835,9.253,20.127c0.944,17.417-10.838,33.582-29.525,29.15
				c-0.999-0.236-2.011,0.146-2.548,1.037c-0.953,1.584-1.907,3.167-2.86,4.75c-1.28,2.126-0.76,4.047-0.69,6.508
				c0.251,8.871-2.413,17.726-6.03,25.731c-5.945,13.156-15.942,26.799-28.688,34.067
				C1947.229,834.667,1949.501,838.566,1952.032,837.123L1952.032,837.123z"/>
		</g>
	</g>
	<g>
		<path fill="#F4EDE1" d="M1830.139,645.589c-4.537,7.184-34.795,74.404-31.845,104.189c6.979,70.487,75.117,95.413,104.428,94.018"
			/>
		<g>
			<path fill="#1D1B3A" d="M1828.19,644.451c-6.927,11.22-11.502,24.525-16.203,36.766c-6.997,18.218-13.501,37.234-15.714,56.714
				c-2.166,19.058,4.258,39.369,13.962,55.605c9.31,15.575,23.133,28.105,38.731,37.187c15.812,9.205,35.221,16.093,53.755,15.33
				c2.898-0.119,2.91-4.632,0-4.512c-13.6,0.56-27.44-3.424-39.799-8.804c-16.532-7.196-31.299-18.212-42.517-32.353
				c-12.476-15.729-20.744-37.377-19.999-57.593c0.716-19.401,7.958-38.994,14.654-57c4.84-13.013,9.687-27.176,17.025-39.063
				C1833.62,644.245,1829.716,641.981,1828.19,644.451L1828.19,644.451z"/>
		</g>
	</g>
	<g>
		<path fill="#EFEA77" d="M1962.036,646.289c-6.979,23.728-29.311,5.582-23.029-11.866c-3.491,16.055-16.749,34.198-36.291,28.615
			c-16.752-4.188-10.47-26.521,4.187-27.22c-9.771,15.356-73.605,37.759-89.657,26.591c-19.542-12.562,37.315-30.08,48.479-30.08
			c-11.863,6.282-76.206,23.334-76.905,0.305c-0.697-21.638,102.618-34.958,115.989-37.99c67.695-15.355,59.323,16.051,60.02,18.146
			c0.697,2.093,42.571,13.957,42.571,13.957c7.678,33.499-4.886,68.395-4.886,78.165c0,0-6.77,8.737-18.135,15.354
			c-12.682,7.384-18.845-2.093-19.542-16.749c-0.699-13.261,5.583-43.271-2.792-53.738"/>
		<g>
			<path fill="#1D1B3A" d="M1959.86,645.689c-2.041,6.409-6.593,12.505-13.518,7.924c-5.923-3.919-7.206-12.33-5.16-18.591
				c-1.451-0.399-2.9-0.8-4.352-1.199c-3.315,14.296-14.01,30.114-30.632,27.702c-6.528-0.947-11.568-4.628-11.178-11.628
				c0.347-6.216,5.875-11.321,11.881-11.823c-0.649-1.132-1.299-2.263-1.948-3.395c-3.193,4.782-8.854,7.927-13.74,10.672
				c-7.27,4.084-15.037,7.27-22.891,10.034c-13.582,4.78-30.667,10.225-45.184,7.048c-3.386-0.741-9.441-3.485-6.996-7.748
				c2.698-4.704,9.446-7.499,14.094-9.681c6.609-3.102,13.601-5.443,20.613-7.443c4.76-1.357,9.884-2.894,14.874-2.977
				c-0.38-1.401-0.759-2.803-1.139-4.204c-12.48,6.443-28.236,9.206-42.015,10.898c-6.472,0.795-35.389,3.547-31.222-10.46
				c1.275-4.287,6.932-7.076,10.533-8.958c6.557-3.428,13.698-5.751,20.759-7.889c16.505-4.998,33.507-8.378,50.455-11.477
				c11.346-2.074,22.846-3.567,34.106-6.077c11.259-2.51,22.931-4.335,34.494-3.538c5.653,0.39,11.919,1.713,16.297,5.558
				c4.365,3.833,4.405,8.722,4.534,14.019c0.085,3.475,5.778,4.555,8.283,5.445c7.4,2.628,14.953,4.851,22.478,7.089
				c4.495,1.338,8.998,2.651,13.511,3.932c-0.525-0.525-1.051-1.051-1.576-1.576c4.404,20.167,1.94,40.636-2.081,60.638
				c-1.085,5.397-2.551,10.864-2.873,16.381c0.053-0.908,0.944-1.385-0.01-0.247c-0.823,0.982-1.705,1.916-2.591,2.842
				c-3.441,3.598-7.325,6.725-11.444,9.509c-3.413,2.307-7.515,4.866-11.794,3.817c-3.482-0.854-5.097-5.098-6.024-8.104
				c-2.121-6.878-1.364-14.438-0.844-21.494c0.579-7.858,1.279-15.71,1.098-23.598c-0.144-6.232-0.84-13.288-4.667-18.45
				c-1.713-2.31-5.632-0.063-3.896,2.277c4.634,6.249,4.218,15.294,4.038,22.684c-0.214,8.748-1.356,17.443-1.594,26.188
				c-0.188,6.896,0.494,15.869,5.354,21.271c4.954,5.504,11.668,4.414,17.622,1.154c6.854-3.754,13.206-9.267,18.22-15.247
				c1.16-1.385,1.018-2.789,1.213-4.523c0.409-3.64,1.315-7.258,2.051-10.841c4.433-21.609,7.341-43.626,2.574-65.455
				c-0.166-0.761-0.85-1.37-1.576-1.576c-12.06-3.419-24.152-6.883-35.987-11.021c-1.905-0.666-3.984-1.273-5.702-2.365
				c1.239,0.788,0.703,1.803,0.772-0.406c0.083-2.653-0.179-5.335-0.98-7.873c-3.079-9.747-13.303-13.261-22.53-14.362
				c-16.286-1.942-32.379,2.849-48.291,5.553c-30.563,5.194-62.836,9.415-91.466,21.869c-7.996,3.479-19.892,9.748-16.632,20.344
				c3.9,12.678,24.578,10.646,34.364,9.6c14.911-1.596,31.841-4.676,45.316-11.632c2.018-1.042,1.051-4.24-1.139-4.204
				c-5.708,0.095-11.521,1.839-16.964,3.392c-7.705,2.197-15.286,4.977-22.507,8.455c-8.377,4.036-22.709,13.961-10.147,22.438
				c5.149,3.475,12.162,3.516,18.118,3.207c8.899-0.46,17.742-2.509,26.281-4.951c15.466-4.424,33.307-10.703,45.249-21.951
				c1.173-1.105,2.202-2.366,3.096-3.705c0.909-1.361-0.274-3.534-1.948-3.395c-14.892,1.243-23.515,22.299-8.567,30.263
				c20.602,10.977,38.678-10.827,42.848-28.803c0.659-2.843-3.449-3.96-4.352-1.199c-2.893,8.855,0.033,18.921,7.929,24.145
				c9.262,6.128,16.826-2.833,19.452-11.079C1965.097,644.108,1960.74,642.927,1959.86,645.689L1959.86,645.689z"/>
		</g>
	</g>
	<g>
		<g>
			<path fill="#1D1B3A" d="M1865.16,796.943c8.577-0.048,17.335-3.222,25.339-5.962c13.174-4.51,25.939-10.302,38.222-16.841
				c2.569-1.368,0.29-5.263-2.277-3.896c-11.968,6.372-24.346,11.901-37.144,16.387c-7.557,2.648-16.025,5.755-24.14,5.801
				C1862.251,792.448,1862.25,796.959,1865.16,796.943L1865.16,796.943z"/>
		</g>
	</g>
	<g>
		<g>
			<path fill="#1D1B3A" d="M1849.648,689.683c-2.267,7.371-5.198,15.004-5.106,22.822c0.088,7.54,7.514,8.549,11.703,3.146
				c4.582-5.912,5.744-14.869,4.677-22.074c-1.103-7.44-7.24-9.718-13.275-5.621c-2.392,1.624-0.138,5.535,2.277,3.896
				c10.596-7.192,5.862,16.187,3.163,20.509c-0.456,0.73-2.834,3.532-3.705,2.084c-1.227-2.043-0.056-6.226,0.343-8.326
				c0.986-5.196,2.725-10.194,4.275-15.236C1854.857,688.093,1850.501,686.911,1849.648,689.683L1849.648,689.683z"/>
		</g>
	</g>
	<g>
		<g>
			<path fill="#1D1B3A" d="M1917.613,689.421c0.406,1.834-1.378,7.045-1.851,9.48c-0.865,4.46-1.654,9.031-1.576,13.588
				c0.104,6.121,5.937,11.318,10.445,4.957c4.696-6.627,8.697-39.07-7.093-30.503c-2.558,1.388-0.28,5.284,2.277,3.896
				c5.165-2.803,4.958,6.373,4.882,9.407c-0.117,4.726-0.872,11.599-4.279,15.237c-1.495,1.597-1.68-2.241-1.721-2.995
				c-0.188-3.491,0.46-7.054,1.06-10.475c0.705-4.024,3.116-9.682,2.207-13.793C1921.336,685.381,1916.986,686.586,1917.613,689.421
				L1917.613,689.421z"/>
		</g>
	</g>
	<g>
		<g>
			<path fill="#1D1B3A" d="M1832.832,702.798c1.008-11.393,5.982-27.468,19.1-29.408c2.87-0.425,1.646-4.772-1.199-4.352
				c-15.245,2.256-21.241,20.515-22.412,33.76C1828.063,705.698,1832.578,705.673,1832.832,702.798L1832.832,702.798z"/>
		</g>
	</g>
	<g>
		<g>
			<path fill="#1D1B3A" d="M1911.778,689.63c9.964-0.151,19.103,3.503,25.944,10.798c1.994,2.126,5.178-1.071,3.189-3.191
				c-7.615-8.12-18.043-12.287-29.134-12.118C1908.871,685.163,1908.867,689.674,1911.778,689.63L1911.778,689.63z"/>
		</g>
	</g>
	<g>
		<g>
			<path fill="#1D1B3A" d="M1916.868,764.328c6.88,4.381,9.143,13.222,11.396,20.558c0.853,2.772,5.208,1.59,4.352-1.199
				c-2.641-8.59-5.464-18.156-13.471-23.255C1916.684,758.864,1914.422,762.77,1916.868,764.328L1916.868,764.328z"/>
		</g>
	</g>
	<g>
		<g>
			<path fill="#1D1B3A" d="M1877.873,711.248c2.058,20.853-21.923,19.345-34.191,28.31c-8.877,6.486-10.281,16.496-1.146,23.12
				c9.066,6.572,21.528,6.984,32.014,4.593c13.081-2.983,22.238-12.576,26.05-25.209c0.843-2.793-3.513-3.978-4.352-1.199
				c-3.769,12.49-12.783,20.099-25.467,22.604c-9.342,1.846-21.316,0.327-28.317-6.713c-4.318-4.344-0.641-9.367,2.869-12.747
				c4.766-4.588,12.221-5.915,18.28-7.955c11.461-3.857,20.035-11.999,18.771-24.803
				C1882.102,708.379,1877.587,708.352,1877.873,711.248L1877.873,711.248z"/>
		</g>
	</g>
	<g>
		<g>
			<path fill="#1D1B3A" d="M1997.31,715.941c-5.707,6.167-14.43,10.852-14.968,20.129c-0.171,2.934,1.539,5.664,4.019,7.057
				c3.355,1.884,7.096-0.535,9.635-2.598c-1.283-0.531-2.567-1.062-3.851-1.595c0.389,2.965-0.052,5.605-1.046,8.41
				c-0.974,2.75,3.387,3.922,4.352,1.199c1.125-3.177,1.646-6.251,1.206-9.609c-0.263-2.007-2.228-2.913-3.851-1.595
				c-3.717,3.016-6.583,1.201-5.699-3.222c0.467-2.34,2.298-4.32,3.847-6c2.966-3.216,6.572-5.771,9.548-8.987
				C2002.473,717,1999.29,713.8,1997.31,715.941L1997.31,715.941z"/>
		</g>
	</g>
	<g>
		<g>
			<path fill="#1D1B3A" d="M1991.597,730.746c4.262-2.077,8.786-3.603,13.503-4.197c2.847-0.358,2.882-4.875,0-4.512
				c-5.56,0.7-10.749,2.361-15.78,4.812C1986.704,728.125,1988.992,732.014,1991.597,730.746L1991.597,730.746z"/>
		</g>
	</g>
</g>
</svg>
