<?xml version="1.0" encoding="utf-8"?>
<!-- Generator: Adobe Illustrator 16.0.4, SVG Export Plug-In . SVG Version: 6.00 Build 0)  -->
<!DOCTYPE svg PUBLIC "-//W3C//DTD SVG 1.1//EN" "http://www.w3.org/Graphics/SVG/1.1/DTD/svg11.dtd">
<svg version="1.1" id="char2-head" xmlns="http://www.w3.org/2000/svg" xmlns:xlink="http://www.w3.org/1999/xlink" x="0px" y="0px"
	 width="2554.794px" height="1700.788px" viewBox="0 0 2554.794 1700.788" enable-background="new 0 0 2554.794 1700.788"
	 xml:space="preserve">
<g>
	<g>
		<path fill="#EFEA77" d="M1169.586,648.831c-9.667-24.706-27.445-48.309-53.591-53.901c-62.19-14.311-73.847,46.632-68.997,93.135
			c2.981,28.256,14.18,74.097-14.995,94.53c-20.03,15.326-43.767-1.165-41.437-26.078c12.208,37.169,17.679,68.544,65.668,67.71
			c42.704,0.494,90.173-30.15,90.61-77.979c1.94-31.366-24.312-55.647-23.434-87.682c0.205-26.25,23.138-27.336,34.203-4.854
			c3.499-5.558,6.634-12.895,7.308-18.678"/>
		<g>
			<path fill="#1D1B3A" d="M1171.761,648.231c-8.619-21.671-22.787-42.682-44.881-52.204c-16.958-7.309-38.997-8.22-55.029,1.815
				c-13.948,8.731-21.18,24.771-24.804,40.224c-4.149,17.688-3.989,36.312-1.816,54.254c2.872,23.719,9.103,50.945-1.804,73.534
				c-5.389,11.161-17.122,21.311-30.099,20.276c-14.543-1.16-21.454-16.816-20.506-29.614c-1.477,0.2-2.954,0.399-4.431,0.6
				c5.586,17.077,9.792,36.314,21.182,50.69c12.458,15.723,31.341,19.095,50.44,18.639c41.562-0.991,83.666-30.224,88.69-73.29
				c1.495-12.817-0.618-25.048-5.091-37.062c-4.741-12.732-11.323-24.692-15.199-37.758c-3.001-10.115-6.559-28.874,3.525-36.426
				c9.515-7.124,19.929,5.522,23.727,12.939c0.795,1.553,3.057,1.377,3.896,0c3.588-5.887,6.534-12.349,7.535-19.217
				c0.415-2.845-3.933-4.069-4.351-1.199c-0.951,6.525-3.669,12.543-7.081,18.139c1.299,0,2.598,0,3.896,0
				c-3.9-7.615-10.023-14.926-18.788-16.736c-7.041-1.454-13.241,2.433-16.556,8.484c-4.967,9.066-3.392,21.372-1.256,30.994
				c2.565,11.562,7.953,22.359,12.671,33.146c5.059,11.566,9.286,23.512,9.026,36.299c-0.24,11.809-2.776,22.914-8.408,33.344
				c-10.64,19.706-30.591,33.158-51.597,39.693c-20.387,6.342-48.575,7.965-65.847-6.743
				c-15.577-13.264-20.011-36.624-26.067-55.136c-0.811-2.48-4.244-1.934-4.431,0.6c-1.427,19.27,13.12,38,33.714,33.474
				c9.466-2.081,17.757-9.874,22.952-17.72c5.396-8.151,7.547-18.056,8.475-27.642c1.975-20.418-2.903-40.619-4.594-60.862
				c-1.525-18.255-0.534-37.245,5.455-54.673c3.283-9.552,8.617-18.416,16.427-24.918c8.549-7.119,19.771-9.419,30.639-9.057
				c15.218,0.509,29.431,5.993,40.829,16.066c11.528,10.188,19.572,24.084,25.204,38.245
				C1168.472,652.1,1172.838,650.937,1171.761,648.231L1171.761,648.231z"/>
		</g>
	</g>
	<g>
		<path fill="#EFEA77" d="M1124.979,623.661c28.603-17.57,79.811,5.276,90.057,21.577c10.318,16.417,12.37,34.842,2.023,62.666
			c-3.594,9.663-85.942,107.879-117.073,91.637C1068.855,783.297,1074.175,654.875,1124.979,623.661z"/>
		<g>
			<path fill="#1D1B3A" d="M1126.118,625.609c19.093-11.309,44.405-5.311,63.308,3.408c7.924,3.655,15.902,8.344,21.795,14.881
				c6.818,7.563,9.853,19.17,10.351,29.073c0.552,10.993-2.099,25.6-6.896,34.72c-1.744,3.315-4.216,6.339-6.5,9.286
				c-9.041,11.671-18.981,22.683-29.244,33.283c-12.165,12.565-25.062,24.667-39.321,34.841
				c-9.315,6.646-22.706,15.967-34.899,13.708c-10.795-1.999-15.332-15.741-17.758-24.84c-4.233-15.87-4.571-32.808-3.567-49.107
				c1.203-19.521,5.074-39.06,12.062-57.349C1101.617,651.371,1111.139,634.989,1126.118,625.609
				c2.459-1.54,0.196-5.445-2.277-3.896c-28.371,17.768-39.058,56.098-43.354,87.204c-2.362,17.104-2.866,34.599-0.639,51.743
				c1.586,12.213,4.47,25.482,12.381,35.29c17.343,21.502,50.343-6.606,64.412-18.478c13.288-11.212,25.552-23.658,37.199-36.551
				c8.077-8.94,16.162-18.146,22.965-28.116c2.091-3.064,3.142-6.178,4.336-9.743c3.098-9.244,5.023-18.953,4.98-28.723
				c-0.061-13.829-5.421-28.746-16.099-37.86c-11.381-9.714-26.338-15.766-40.765-19.137c-14.987-3.502-31.82-3.683-45.416,4.37
				C1121.34,623.194,1123.609,627.095,1126.118,625.609z"/>
		</g>
	</g>
	<g>
		<path fill="#EFEA77" d="M1184.591,658.306c-15.39-38.109-108.629-38.681-120.066-12.536
			c-12.634,28.876-37.902,153.103,12.632,153.103"/>
		<g>
			<path fill="#1D1B3A" d="M1186.766,657.707c-5.754-13.702-19.028-21.466-32.513-26.161c-16.075-5.598-33.885-7.068-50.771-5.603
				c-12.703,1.103-27.953,3.915-37.279,13.422c-3.363,3.429-4.883,8.069-6.427,12.507c-2.083,5.986-3.763,12.113-5.31,18.256
				c-6.823,27.104-11.248,55.938-9.432,83.931c1.283,19.772,7.685,46.771,32.122,47.07c2.911,0.036,2.907-4.477,0-4.512
				c-30.864-0.377-28.793-47.982-27.457-68.639c1.101-17.012,3.866-33.932,7.653-50.541c1.526-6.694,3.271-13.343,5.309-19.899
				c1.414-4.548,2.752-9.669,5.538-13.6c4.878-6.884,14.918-9.729,22.657-11.521c11.188-2.593,22.911-2.908,34.325-2.071
				c19.938,1.462,48.545,7.869,57.234,28.561C1183.524,661.546,1187.893,660.388,1186.766,657.707L1186.766,657.707z"/>
		</g>
	</g>
	<g>
		<path fill="#F4EDE1" d="M1149.127,852.779c20.667,4,29.994,3.016,33.333,0.666c18-12.666,39.266-45.627,34.667-70l-3.518-35.07
			c-1.379-15.866,1.564-60.342,1.841-62.547c2.592-20.729-18.047-11.75-32.258-25.143c-10.162,32.678-89.401,26.221-88.731,67.761
			l-5.062,2.973c-10.831-11.508-22.34-14.216-23.693,2.031c-1.354,17.602,0,32.494,19.632,34.525l-6.091,2.707
			c2.03,23.695,3.384,52.804,25.725,66.343c4.729,2.759,12.489,7.086,15.156,9.086"/>
		<g>
			<path fill="#1D1B3A" d="M1148.528,854.955c9.755,1.847,20.243,3.889,30.175,2.244c7.467-1.236,13.654-8.898,18.329-14.218
				c14.415-16.397,24.553-37.595,22.337-59.683c-1.167-11.629-2.333-23.258-3.5-34.887c-1.747-17.413,0.121-35.614,1.172-53.028
				c0.408-6.754,2.847-16.362-1.944-21.94c-2.976-3.466-7.428-4.757-11.688-5.905c-6.783-1.827-13.267-3.637-18.622-8.448
				c-1.292-1.161-3.225-0.66-3.771,0.996c-3.015,9.151-11.599,14.48-19.818,18.495c-10.017,4.892-20.8,8.111-31.21,12.037
				c-17.45,6.58-37.827,16.324-37.784,37.828c0.372-0.649,0.745-1.299,1.117-1.948c-1.687,0.991-3.375,1.982-5.062,2.973
				c0.911,0.118,1.823,0.235,2.734,0.354c-4.979-5.145-11.594-10.974-19.29-9.819c-7.588,1.139-8.189,11.609-8.507,17.355
				c-0.415,7.488-0.124,15.334,3.374,22.124c3.653,7.091,11.329,9.836,18.766,10.747c-0.379-1.401-0.759-2.803-1.139-4.204
				c-2.03,0.902-4.061,1.805-6.091,2.707c-0.66,0.293-1.178,1.24-1.117,1.948c1.331,15.673,2.103,32.213,8.611,46.788
				c3.113,6.973,7.411,13.116,13.3,18.018c6.083,5.063,13.669,7.978,20.086,12.571c2.372,1.697,4.621-2.219,2.277-3.896
				c-5.545-3.97-11.828-6.78-17.47-10.595c-6.744-4.561-11.463-11.636-14.575-19.036c-5.781-13.747-6.472-29.186-7.718-43.85
				c-0.372,0.649-0.745,1.299-1.117,1.948c2.03-0.902,4.061-1.805,6.091-2.707c2.31-1.027,0.789-3.968-1.139-4.204
				c-5.734-0.703-11.083-2.676-14.374-7.662c-2.979-4.515-3.313-10.438-3.381-15.67c-0.067-5.196-0.833-14.671,4.312-17.717
				c5.05-2.989,12.999,5.337,15.909,8.343c0.702,0.727,1.871,0.86,2.734,0.354c1.687-0.991,3.375-1.982,5.062-2.973
				c1.885-1.107,1.135-4.766,1.408-6.61c0.734-4.956,3.143-9.358,6.489-13.025c7.607-8.335,19.238-12.636,29.542-16.484
				c17.794-6.646,45.539-12.377,52.33-32.989c-1.257,0.332-2.514,0.664-3.771,0.996c7.078,6.358,15.551,7.901,24.314,10.682
				c8.029,2.548,7.551,8.758,7.044,15.87c-1.25,17.521-2.239,35.187-1.923,52.756c0.228,12.659,2.185,25.368,3.447,37.951
				c0.793,7.909,1.311,15.194-0.557,23.086c-2.928,12.373-9.593,23.976-17.382,33.911c-4.272,5.45-10.785,14.118-17.787,16.041
				c-9.001,2.471-20.194-0.302-29.027-1.975C1146.884,850.065,1145.671,854.414,1148.528,854.955L1148.528,854.955z"/>
		</g>
	</g>
	<g>
		<g>
			<path fill="#1D1B3A" d="M1200.316,716.929c-0.722,6.686,1.235,13.387,0.081,20.037c1.104-0.449,2.209-0.898,3.314-1.349
				c-4.601-2.313-7.159-19.76-0.331-16.981c2.696,1.097,3.857-3.27,1.199-4.352c-13.229-5.381-11.83,20.862-3.146,25.229
				c1.189,0.598,3.05,0.174,3.314-1.349c1.232-7.097-0.687-14.129,0.081-21.236C1205.141,714.039,1200.625,714.068,1200.316,716.929
				L1200.316,716.929z"/>
		</g>
	</g>
	<g>
		<g>
			<path fill="#1D1B3A" d="M1156.246,719.542c0.571,2.513,1.274,21.101-1.901,19.242c-3.004-1.758-2.627-8.586-2.248-11.379
				c0.517-3.796,2.286-8.472,6.874-6.976c2.774,0.904,3.953-3.453,1.199-4.352c-13.507-4.403-15.613,18.237-9.357,25.563
				c4.379,5.129,9.127-0.038,10.117-4.665c1.248-5.83,0.988-12.819-0.333-18.634
				C1159.952,715.505,1155.602,716.708,1156.246,719.542L1156.246,719.542z"/>
		</g>
	</g>
	<g>
		<path fill="#F4EDE1" d="M1183.941,725.373c2.617,23.551,19.113,46.578,46.154,40.472c-20.062,13.958-45.028,16.417-56.754,3.752"
			/>
		<g>
			<path fill="#1D1B3A" d="M1181.686,725.373c3.101,25.396,21.25,48.407,49.01,42.647c-0.579-1.375-1.159-2.749-1.738-4.124
				c-14.492,9.835-39.551,18.915-54.02,4.105c-2.036-2.084-5.224,1.108-3.19,3.189c15.969,16.346,43.201,7.654,59.488-3.398
				c2.137-1.451,0.802-4.65-1.738-4.124c-24.627,5.11-40.571-15.951-43.299-38.296
				C1185.85,722.523,1181.333,722.489,1181.686,725.373L1181.686,725.373z"/>
		</g>
	</g>
	<g>
		<g>
			<path fill="#1D1B3A" d="M1140.01,712.951c5.186-5.754,11.428-10.34,17.246-15.41c2.198-1.914-1.007-5.092-3.19-3.189
				c-5.818,5.069-12.061,9.655-17.246,15.408C1134.877,711.915,1138.059,715.116,1140.01,712.951L1140.01,712.951z"/>
		</g>
	</g>
	<g>
		<g>
			<path fill="#1D1B3A" d="M1199.594,694.447c3.263,2.339,6.462,4.758,9.431,7.465c2.145,1.956,5.345-1.226,3.19-3.189
				c-3.25-2.964-6.772-5.611-10.344-8.172C1199.501,688.851,1197.252,692.767,1199.594,694.447L1199.594,694.447z"/>
		</g>
	</g>
	<g>
		<path fill="#DC4832" d="M1155.065,790.542c13.539,1.355,44.002-4.738,35.201,10.832l4.233,1.393
			c-16.574-1.746-33.601,4.61-50.943-20.349"/>
		<g>
			<path fill="#1D1B3A" d="M1155.065,792.798c7.31,0.642,14.692-0.146,22.017-0.075c5.223,0.051,15.266-0.071,11.236,7.513
				c-0.706,1.33-0.069,2.848,1.349,3.314c1.411,0.464,2.822,0.928,4.233,1.393c0.2-1.478,0.4-2.955,0.6-4.432
				c-7.81-0.742-15.711,0.098-23.476-1.177c-11.061-1.815-19.197-9.198-25.519-18.055c-1.675-2.346-5.591-0.097-3.896,2.277
				c6.618,9.27,14.735,16.825,26,19.671c8.773,2.216,17.973,0.947,26.892,1.795c2.649,0.252,2.902-3.674,0.6-4.432
				c-1.411-0.464-2.822-0.928-4.233-1.393c0.45,1.105,0.899,2.21,1.349,3.314c10.389-19.555-28.306-13.451-37.149-14.227
				C1152.166,788.032,1152.19,792.546,1155.065,792.798L1155.065,792.798z"/>
		</g>
	</g>
	<g>
		<path fill="#DC4832" d="M1158.606,795.796c0.639,20.735,17.872,12.493,25.521,11.405c1.397-0.199,8.676,2.761,0,7.221
			c-10.418,5.354-36.368,2.552-33.179-19.141"/>
		<g>
			<path fill="#1D1B3A" d="M1156.351,795.796c0.358,6.924,2.469,13.88,9.877,15.787c5.924,1.525,12.158-1.032,17.923-2.114
				c3.2-0.602-0.842,2.85-1.792,3.311c-1.456,0.705-3.132,1.037-4.708,1.344c-3.76,0.729-7.776,0.456-11.491-0.362
				c-9.317-2.053-14.109-9.104-12.956-18.479c0.355-2.884-4.161-2.849-4.512,0c-2.458,19.979,20.578,28.84,36.573,21.089
				c3.01-1.459,7.696-5.732,4.036-9.147c-2.537-2.368-5.062-2.428-8.263-1.708c-3.955,0.89-7.813,2.042-11.909,1.936
				c-6.432-0.167-7.989-6.27-8.269-11.654C1160.712,792.902,1156.2,792.887,1156.351,795.796L1156.351,795.796z"/>
		</g>
	</g>
</g>
</svg>
