<?xml version="1.0" encoding="utf-8"?>
<!-- Generator: Adobe Illustrator 16.0.4, SVG Export Plug-In . SVG Version: 6.00 Build 0)  -->
<!DOCTYPE svg PUBLIC "-//W3C//DTD SVG 1.1//EN" "http://www.w3.org/Graphics/SVG/1.1/DTD/svg11.dtd">
<svg version="1.1" id="char3" xmlns="http://www.w3.org/2000/svg" xmlns:xlink="http://www.w3.org/1999/xlink" x="0px" y="0px"
	 width="2554.794px" height="1700.788px" viewBox="0 0 2554.794 1700.788" enable-background="new 0 0 2554.794 1700.788"
	 xml:space="preserve">
<g>
	<g>
		<path fill="#1D1B3A" d="M1517.993,1145.306c0,0-35.6,45.019-11.479,136.683s44.529,319.927,44.529,319.927
			s-36.818,28.831-92.82,47.479c-47.407,15.785,56.877,5.934,103.953-24.113c0.936-0.598-2.451,21.57-2.451,21.57l18.376-0.848
			c0,0,11.906-40.494,4.484-49.48s-17.867-283.09-10.445-328.023c7.421-44.934,42.712,374.961,42.712,374.961s20.126,0,19.251,2.543
			c-1.668,4.848-4.375-21.191-5.25-22.038c-0.619-0.6,27.225,28.99,34.112,35.616c17.417,16.756,43.088,26.194,48.139,24.565
			c2.626-0.847-8.326-25.165-22.75-39.839c-22.908-23.308-57.751-48.315-57.751-48.315s25.34-325.022,6.248-396.082
			C1603.123,1074.371,1562.87,1137.927,1517.993,1145.306z"/>
		<g>
			<path fill="#1D1B3A" d="M1516.226,1143.539c-12.921,16.439-17.769,40.058-19.773,60.239
				c-4.221,42.504,9.782,82.857,17.458,124.085c14.079,75.62,22.452,152.408,30.252,228.892c1.15,11.28,2.263,22.563,3.332,33.852
				c0.279,2.951,0.555,5.903,0.826,8.854c0.061,0.665,0.121,1.33,0.182,1.995c0.133,1.47,1.347-1.748,0.843-1.363
				c-10.755,8.205-22.502,15.215-34.332,21.728c-11.525,6.346-23.431,12.01-35.587,17.036c-9.886,4.087-20.258,6.963-30.055,11.227
				c-2.089,0.909-4.908,2.147-5.62,4.54c-0.795,2.668,1.991,4.083,4.123,4.422c9.047,1.441,19.137-0.736,28.039-2.188
				c15.232-2.484,30.302-6.147,45.021-10.773c7.421-2.331,14.754-4.987,21.906-8.047c3.497-1.496,6.949-3.083,10.349-4.791
				c1.629-0.817,3.232-1.686,4.827-2.569c0.932-0.516,1.849-1.057,2.765-1.598c0.007-0.004,2.619-1.208,1.466-1.292
				c-0.72-0.412-1.438-0.825-2.158-1.238c-0.51-1.18-0.256-0.216-0.279,0.297c-0.042,0.894-0.144,1.785-0.234,2.674
				c-0.258,2.534-0.601,5.06-0.945,7.583c-0.415,3.031-0.855,6.061-1.316,9.086c-0.23,1.517,0.637,3.246,2.411,3.164
				c6.125-0.282,12.251-0.565,18.376-0.848c1.133-0.053,2.086-0.728,2.411-1.836c3.719-12.705,6.938-26.274,7.009-39.561
				c0.041-7.63-3.324-11.779-4.412-18.612c-3.605-22.643-4.292-45.956-5.559-68.811c-3.781-68.263-6.201-136.83-5.336-205.204
				c0.146-11.447,0.392-22.91,1.191-34.333c0.248-3.558,0.54-7.126,1.092-10.651c0.118-0.76,0.258-1.517,0.465-2.258
				c0.252-0.897,0.06-0.275-0.004-0.216c-1.292,1.205-2.788,0.187-2.994-0.114c0.621,0.904,0.229,0.297,0.516,1.09
				c0.672,1.869,1.104,3.831,1.528,5.768c1.52,6.92,2.556,13.954,3.582,20.961c7.859,53.681,12.676,107.877,17.888,161.862
				c5.145,53.294,9.955,106.62,14.57,159.962c0.776,8.97,1.55,17.939,2.304,26.91c0.114,1.359,1.051,2.498,2.5,2.5
				c3.161,0.004,6.322,0.109,9.478,0.288c2.333,0.132,4.674,0.316,6.963,0.803c3.816,0.812,4.115-1.735,3.517-4.175
				c-1.087-4.435-1.636-9.021-2.341-13.525c-0.347-2.219-0.283-6.101-2.361-7.55c-2.451-1.71-4.809,1.904-3.029,3.927
				c9.324,10.594,19.408,20.645,29.261,30.745c13.283,13.618,30.715,26.149,49.747,29.95c5.294,1.057,8.946-0.385,7.387-6.254
				c-2.443-9.192-8.225-18.038-13.587-25.737c-7.143-10.255-16.446-18.685-25.759-26.922c-9.052-8.006-18.467-15.602-28.025-22.991
				c-4.692-3.628-9.419-7.223-14.236-10.686c0.413,0.72,0.825,1.439,1.238,2.159c3.193-40.982,5.714-82.027,7.92-123.073
				c3.785-70.407,7.242-141.224,4.783-211.738c-0.455-13.055-1.175-26.12-2.63-39.105c-1.493-13.322-4.508-25.828-8.507-38.651
				c-7.767-24.9-22.2-66.683-55.459-62.948c-22.088,2.48-40.016,18.687-61.882,22.42c-3.173,0.541-1.823,5.359,1.33,4.82
				c11.557-1.973,22.221-7.196,32.721-12.185c9.682-4.599,19.914-9.774,30.82-10.297c12.477-0.597,21.947,7.411,28.757,17.123
				c12.35,17.612,19.279,40.241,24.165,60.94c5.606,23.751,5.623,49.207,6.107,73.465c0.701,35.17-0.06,70.371-1.21,105.523
				c-2.059,62.902-5.657,125.764-10.074,188.543c-0.49,6.974-0.994,13.946-1.519,20.917c-0.1,1.33-0.2,2.659-0.304,3.988
				c-0.178,2.301,3.477,4.059,5.025,5.204c18.318,13.546,36.229,27.959,52.373,44.061c8.475,8.452,15.143,18.681,20.325,29.437
				c1.245,2.584,3.089,5.931,3.146,8.892c-0.033-1.685,2.035-1.497,0.345-1.504c-0.647-0.003-1.287-0.113-1.923-0.222
				c-2.097-0.358-4.146-1.012-6.163-1.673c-17.651-5.785-31.958-17.235-44.666-30.379c-8.719-9.018-17.684-17.939-25.973-27.358
				c-1.01,1.31-2.02,2.618-3.029,3.927c-1.575-1.099-0.976-1.331-0.634,0.403c0.22,1.113,0.391,2.236,0.57,3.355
				c0.519,3.228,0.997,6.46,1.551,9.682c0.331,1.926,1.508,12.17,5.902,9.196c5.021-3.397-1.49-6.457-4.534-6.915
				c-5.132-0.772-10.404-0.873-15.587-0.88c0.833,0.833,1.667,1.667,2.5,2.5c-2.742-32.625-5.631-65.239-8.577-97.847
				c-5.481-60.679-11.15-121.351-17.762-181.918c-2.562-23.465-5.198-46.939-8.602-70.299c-1.021-7.01-2.081-14.035-3.582-20.961
				c-0.623-2.876-1.166-7.586-3.854-9.387c-4.175-2.797-5.253,4.644-5.56,6.893c-1.246,9.142-1.553,18.418-1.843,27.629
				c-0.975,30.855-0.473,61.773,0.164,92.631c0.742,35.981,1.979,71.957,3.702,107.904c1.29,26.933,2.573,53.953,5.446,80.772
				c0.599,5.586,0.291,14.585,3.874,19.351c2.294,3.051,1.834,8.194,1.695,11.751c-0.21,5.406-1.119,10.778-2.134,16.082
				c-1.239,6.481-2.777,12.941-4.632,19.277c0.804-0.612,1.607-1.225,2.411-1.836c-6.125,0.282-12.251,0.565-18.376,0.848
				c0.804,1.055,1.607,2.109,2.411,3.164c0.592-3.885,1.149-7.776,1.665-11.674c0.447-3.382,2.028-8.521,0.605-11.817
				c-0.354-0.821-1.349-1.179-2.159-1.238c-2.621-0.19-7.292,3.89-9.619,5.128c-4.503,2.396-9.163,4.505-13.875,6.454
				c-9.236,3.822-18.769,6.923-28.379,9.654c-16.442,4.673-33.437,8.38-50.481,9.938c-3.738,0.342-8.414,1.108-12.075-0.048
				c2.046,0.646-0.962,3.253,1.547,1.749c2.188-1.312,4.671-2.156,7.059-3.012c23.883-8.557,46.92-18.177,68.916-30.919
				c9.448-5.473,18.852-11.318,27.472-18.048c1.191-0.93,0.603-3.209,0.487-4.457c-0.277-3.033-0.562-6.065-0.849-9.098
				c-2.663-28.128-5.59-56.232-8.73-84.312c-4.499-40.226-9.456-80.41-15.342-120.458c-5.218-35.509-10.905-71.116-19.934-105.886
				c-8.378-32.269-11.148-66.958-2.824-99.534c2.198-8.603,5.247-17.021,9.347-24.903c1.11-2.134,2.317-4.221,3.628-6.237
				c0.263-0.405,1.991-2.771,1.167-1.724C1521.729,1144.57,1518.217,1141.004,1516.226,1143.539z"/>
		</g>
	</g>
	<g>
		<path fill="#DC4832" d="M1634.737,925.214c-8.543-33.168-7.124-46.054-7.124-46.054s-16.133,6.28-38.825,5.407
			c-22.662-0.904-33.673-6.453-33.673-6.453s-9.249,45.506-33.25,87.519c-1.964,7.307-7.378,30.848-2.881,43.134
			c7.442,20.431,16.751,34.515,16.097,71.622c-0.499,31.467-21.717,66.368-30.931,80.846c-8.317,13.068,141.236,27.4,130.298,1.315
			c-30.538-72.82,7.455-168.094,7.455-168.094S1636.719,932.609,1634.737,925.214z"/>
		<g>
			<path fill="#1D1B3A" d="M1637.148,924.55c-2.916-11.441-5.497-23.036-6.677-34.801c-0.347-3.458-0.721-7.11-0.358-10.589
				c0.159-1.533-1.733-2.96-3.165-2.411c-11.379,4.366-24.218,5.539-36.284,5.375c-10.988-0.149-24.192-1.173-34.287-6.168
				c-1.355-0.671-3.329-0.185-3.673,1.494c-3.006,14.688-7.693,29.14-12.851,43.189c-5.111,13.926-11.214,27.477-18.33,40.493
				c-4.464,8.167-5.477,18.433-6.394,27.604c-1.055,10.548,0.706,19.149,4.599,28.863c3.424,8.541,6.877,17.021,9.183,25.949
				c6.721,26.033,4.083,52.557-5.978,77.268c-4.472,10.983-10.17,21.479-16.271,31.633c-1.958,3.259-6.876,7.96-4.719,12.113
				c1.338,2.577,4.794,3.868,7.297,4.874c4.482,1.802,9.273,2.885,13.985,3.885c27.475,5.827,57.138,7.984,85.126,5.53
				c8.479-0.743,20.098-1.524,26.601-7.832c2.3-2.229,3.058-5.414,2.157-8.458c-1.51-5.1-3.829-9.992-5.362-15.115
				c-1.893-6.322-3.259-12.794-4.341-19.3c-6.818-40.985,0.641-84.577,13.576-123.678c0.874-2.642,3.659-7.161,3.418-10.034
				c-0.473-5.633-0.968-11.264-1.47-16.894c-0.935-10.479-1.908-20.953-2.989-31.417
				C1639.208,939.025,1638.904,931.497,1637.148,924.55c-0.79-3.125-5.612-1.799-4.822,1.328c1.269,5.017,1.553,10.384,2.113,15.509
				c0.923,8.449,1.727,16.912,2.512,25.376c0.672,7.233,1.314,14.469,1.94,21.706c0.152,1.754,0.302,3.508,0.45,5.262
				c0.114,1.35,0.396-0.59-0.142,0.815c-11.903,31.074-18.386,65.199-19.091,98.403c-0.26,12.226,0.576,24.449,2.477,36.527
				c1.89,12.012,5.753,22.999,9.702,34.415c2.156,6.231-12.142,8.334-16.073,8.994c-13.554,2.274-27.654,1.995-41.335,1.418
				c-14.668-0.619-29.357-2.037-43.824-4.556c-5.465-0.952-10.918-2.089-16.236-3.675c-2.781-0.83-6.499-1.896-8.43-3.852
				c-0.146-0.146-0.169-0.551-0.068,0.219c-0.009-0.066-0.344,0.577,0.443-0.66c2.496-3.931,4.91-7.912,7.245-11.941
				c5.963-10.288,11.201-20.988,15.487-32.084c9.202-23.825,10.369-49.524,4.527-74.35c-2.12-9.01-5.615-17.583-9.074-26.141
				c-1.633-4.039-3.461-8.108-4.461-12.358c-1.328-5.646-0.793-11.829-0.223-17.536c0.517-5.17,1.497-10.299,2.614-15.369
				c1.21-5.483,3.839-9.866,6.423-14.842c6.141-11.823,11.319-24.151,15.908-36.652c4.975-13.557,9.413-27.559,12.314-41.729
				c-1.225,0.498-2.449,0.996-3.673,1.494c10.499,5.196,23.464,6.264,34.935,6.795c12.942,0.6,27.278-0.811,39.49-5.496
				c-1.056-0.804-2.11-1.607-3.165-2.411c-0.362,3.485,0.035,7.122,0.358,10.589c1.14,12.209,3.833,24.27,6.854,36.129
				C1633.122,929.001,1637.944,927.676,1637.148,924.55z"/>
		</g>
	</g>
	<g>
		<path fill="#F4EDE1" d="M1589.406,978.771c0,0,41.153-3.674,50.346,20.2c9.192,23.875,11.178,34.791-3.49,39.978
			s-27.196-24.315-45.728-32.284C1571.21,998.354,1589.406,978.771,1589.406,978.771z"/>
		<g>
			<path fill="#1B1D3A" d="M1589.406,981.271c10.84-0.938,22.397,0.317,32.543,4.264c9.168,3.565,13.879,9.954,17.208,18.911
				c2.742,7.379,8.141,19.016,3.944,26.767c-4.029,7.439-13.143,6.494-18.795,2.108c-7.54-5.852-13.268-13.873-20.246-20.353
				c-3.375-3.133-7.102-5.919-11.222-7.988c-4.527-2.274-8.662-4.472-8.69-10.127c-0.024-5.129,3.663-10.651,7.025-14.314
				c2.176-2.37-1.351-5.915-3.535-3.535c-3.553,3.869-6.404,8.604-7.863,13.654c-2.558,8.85,2.861,15.15,10.54,18.639
				c9.401,4.271,16.26,13.312,23.175,20.646c5.169,5.48,11.426,11.945,19.483,12.111c6.62,0.137,13.368-4.988,15.642-10.982
				c3.098-8.168-1.372-18.839-4.082-26.433c-3.213-9.004-6.876-15.987-15.264-21.055c-6.851-4.138-14.969-5.881-22.812-6.864
				c-5.602-0.703-11.415-0.937-17.051-0.449C1586.22,976.546,1586.192,981.549,1589.406,981.271z"/>
		</g>
	</g>
	<g>
		<path fill="#DC4832" d="M1641.227,1054.937c33.343-2.083,51.387-78.931,24.68-140.068c-23.78-54.427-47.135-35.294-37.812-6.438
			c31.59,97.765,8.564,102.352-7.012,106.912c-12.849,3.768-41.123-23.447-57.022-3.75l-26.323,11.065
			C1537.736,1022.659,1586.071,1058.382,1641.227,1054.937z"/>
		<g>
			<path fill="#1D1B3A" d="M1641.227,1057.437c15.552-1.252,25.409-15.283,30.939-28.555c8.586-20.604,10.358-43.826,8.411-65.875
				c-2.206-24.997-10.022-51.385-24.974-71.812c-6.231-8.514-19.739-20.225-28.669-8.248c-3.519,4.72-3.786,11.589-3.189,17.183
				c0.469,4.392,1.801,8.515,3.134,12.704c2.329,7.321,4.494,14.695,6.497,22.112c4.739,17.548,9.448,36.55,7.656,54.881
				c-0.739,7.554-3.476,15.128-10.235,19.192c-2.364,1.421-4.976,2.307-7.603,3.101c-6.02,1.819-10.977,0.103-16.726-2.178
				c-13.471-5.345-29.961-13.75-42.519-1.961c-1.186,1.113-0.172,1.041-1.196,1.471c-0.989,0.416-1.979,0.832-2.968,1.248
				c-3.031,1.274-6.062,2.548-9.094,3.822c-4.54,1.909-9.08,3.817-13.621,5.726c-2.06,0.866-2.446,3.209-0.597,4.57
				c9.697,7.137,20.689,12.784,31.639,17.688C1591.009,1052.76,1616.043,1058.833,1641.227,1057.437c3.206-0.178,3.223-5.179,0-5
				c-35.443,1.964-73.637-10.894-102.229-31.938c-0.199,1.523-0.398,3.047-0.597,4.57c5.448-2.291,10.897-4.582,16.347-6.872
				c2.86-1.202,5.721-2.405,8.582-3.607c2.923-1.229,4.527-3.746,7.196-5.474c8.17-5.289,19.353-0.565,27.364,2.664
				c6.759,2.725,14.918,7.502,22.497,6.253c5.866-0.968,12.169-3.534,16.676-7.425c6.718-5.799,8.667-15.188,9.195-23.624
				c1.184-18.921-3.972-38.475-8.922-56.531c-3.004-10.954-8.436-22.26-8.835-33.726c-0.158-4.549,0.761-11.733,5.755-13.626
				c6.151-2.331,12.6,5.178,15.923,9.194c8.608,10.405,14.165,23.857,18.364,36.545c7.905,23.882,9.859,50.148,5.616,74.938
				c-2.941,17.184-11.48,46.93-32.934,48.657C1638.035,1052.694,1638.011,1057.696,1641.227,1057.437z"/>
		</g>
	</g>
	<g>
		<path fill="#DC4832" d="M1553.113,878.115c0,0-139.032,155.169-64.414,168.487c45.499,8.121,107.214-42.097,107.214-42.097
			s-1.419-37.965-16.357-29.891c-22.533,12.173-68.169,26.903-73.535,10.247c-2.059-6.386,9.69-14.745,25.8-38.497"/>
		<g>
			<path fill="#1D1B3A" d="M1551.346,876.347c-10.839,12.104-21.046,24.812-30.958,37.678
				c-17.906,23.242-35.396,47.762-47.394,74.662c-7.391,16.572-16.633,43.586,2.664,55.86c13.165,8.374,31.781,5.916,45.992,2.323
				c19.424-4.91,37.669-14.604,54.475-25.304c5.715-3.638,11.291-7.501,16.718-11.557c1.555-1.163,5.667-3.232,5.565-5.62
				c-0.413-9.708-1.306-24.639-9.359-31.324c-5.782-4.801-12.323,0.335-17.818,2.933c-9.984,4.72-20.504,8.44-31.207,11.146
				c-8.415,2.127-18.513,4.322-26.998,1.41c-7.66-2.629-3.72-8.786-0.373-13.117c7.161-9.267,14.702-18.126,21.327-27.812
				c1.825-2.669-2.51-5.167-4.318-2.523c-6.678,9.764-14.382,18.627-21.503,28.04c-3.307,4.371-6.242,8.834-3.766,14.279
				c2.772,6.099,10.853,7.269,16.711,7.397c9.815,0.217,19.819-2.479,29.111-5.348c9.861-3.045,19.515-6.99,28.7-11.693
				c2.71-1.388,4.993-2.77,7.513-0.361c2.361,2.255,3.404,5.93,4.277,8.962c1.597,5.548,2.305,11.385,2.657,17.136
				c0.139,2.266,1.7-1.501,0.168-0.286c-1.356,1.076-2.742,2.116-4.131,3.149c-13.572,10.094-28.123,19-43.42,26.223
				c-17.88,8.441-39.48,15.694-59.372,11.011c-24.649-5.804-17.492-33.051-10.257-50.189c11.426-27.064,29.104-51.652,46.832-74.89
				c10.095-13.23,20.595-26.238,31.694-38.646c0.001-0.002,0.003-0.003,0.004-0.005
				C1557.024,877.489,1553.501,873.94,1551.346,876.347L1551.346,876.347z"/>
		</g>
	</g>
	<g>
		<path fill="#F4EDE1" d="M1552.471,989.953c0.46-3.155-12.826-23.714-15.653-24.901c-2.366-0.989-6.073,5.42-7.913,7.248
			c-0.527-2.287-1.122-4.676-2.639-6.414c-1.516-1.735-4.258-2.528-6.001-1.081c-1.327,1.101-2.035,3.333-3.729,3.376
			c-1.813,0.049-2.6-2.42-4.07-3.557c-2.279-1.761-5.456,0.123-7.373,2.276c-6.27,7.039-8.616,16.91-10.737,26.328
			c-1.539,6.826-2.749,8.077-1.812,18.581c3.624,2.039,5.106,0.784,7.502-2.687c3.503-5.072,5.525-11.27,5.733-17.564
			c0.61,9.028,1.222,18.053,1.829,27.081c0.05,0.706,0.106,1.441,0.465,2.038c0.797,1.327,2.759,1.318,3.942,0.394
			c1.188-0.925,1.787-2.445,2.337-3.89c1.807-4.765,3.612-9.529,5.419-14.293c0.547,4.779,1.095,9.556,1.642,14.335
			c0.106,0.927,0.23,1.906,0.775,2.646c1.405,1.919,4.362,0.936,6.053-0.67c5.846-5.558,5.937-14.969,6.877-23.23
			c0.65-5.716,0.551-10.056,5.327-4.512"/>
		<g>
			<path fill="#1B1D3A" d="M1554.971,989.953c0.077-2.947-2.048-6.105-3.405-8.569c-2.511-4.553-5.395-8.933-8.483-13.112
				c-1.524-2.063-3.458-5.283-6.218-5.73c-4.419-0.717-7.288,5.312-9.728,7.991c1.393,0.367,2.785,0.735,4.179,1.103
				c-0.933-3.877-3.322-10.631-8.622-10.074c-2.077,0.218-3.453,0.698-4.932,2.246c-2.758,2.889-0.998,0.152-4.035-1.342
				c-11.249-5.531-17.811,14.745-19.884,22.217c-1.43,5.151-2.832,10.517-3.733,15.794c-0.479,2.808-1.863,12.023,1.171,13.493
				c11.757,5.692,16.515-14.255,16.997-22.41c-1.667,0-3.333,0-5,0c0.436,6.447,0.872,12.896,1.308,19.344
				c0.241,3.576-0.786,10.462,3.01,12.686c2.562,1.501,6.207,0.164,7.589-2.354c3.011-5.482,4.781-11.84,6.997-17.682
				c-1.638-0.221-3.274-0.442-4.911-0.664c0.666,5.82,0.378,12.844,2.759,18.242c1.852,4.201,7.591,1.722,9.979-0.164
				c3.991-3.15,5.491-9.187,6.329-13.893c0.479-2.69,0.706-5.433,0.973-8.15c0.143-1.451,0.302-2.9,0.458-4.351
				c0.084-0.966,0.207-1.926,0.369-2.882c-0.975,0.357-0.795,0.869,0.54,1.533c2.193,2.372,5.721-1.172,3.535-3.535
				c-1.692-1.83-4.161-4.374-6.867-2.789c-2.706,1.586-2.446,6.453-2.728,9.068c-0.633,5.875-0.815,12-3.279,17.471
				c-0.515,1.062-1.146,2.053-1.893,2.973c-2.018,2.561-3.712-0.747-3.943-2.772c-0.41-3.584-0.821-7.167-1.231-10.751
				c-0.323-2.821-3.88-3.383-4.911-0.664c-1.129,2.977-2.258,5.955-3.387,8.933c-0.677,1.786-1.354,3.573-2.032,5.36
				c-2.226,5.871-2.018-0.624-2.094-1.747c-0.521-7.737-1.045-15.475-1.568-23.212c-0.218-3.214-4.809-3.229-5,0
				c-0.196,3.319-3.421,21.023-9.474,18.092c0.413,0.72,0.825,1.439,1.238,2.159c-0.912-11.275,2.128-22.945,6.102-33.47
				c1.329-3.521,3.298-6.799,5.716-9.672c3.945-4.686,4.798,0.882,8.032,1.682c1.555,0.384,3.015,0.43,4.322-0.663
				c0.715-0.598,1.253-1.226,1.812-1.969c2.771-0.735,4.354,0.098,4.748,2.501c0.278,0.905,0.518,1.82,0.72,2.746
				c0.43,1.784,2.926,2.479,4.179,1.103c0.898-0.985,5.358-6.509,5.259-6.597c2.042,1.799,3.581,4.305,5.118,6.519
				c2.033,2.931,3.92,5.964,5.707,9.05c1.039,1.793,3.269,4.837,3.215,6.914C1549.887,993.179,1554.887,993.17,1554.971,989.953
				L1554.971,989.953z"/>
		</g>
	</g>
</g>
<g>
	<path fill="#F4EDE1" d="M1559.942,893.33c0.119,0.333,0.208,0.688,0.225,1.095c0.175,4.254-0.541,8.521-0.271,12.764
		c0.305,4.779,1.99,9.51,3.437,14.054c2.815,8.848,6.899,17.133,9.942,25.863c2.186,6.268,2.968,12.33,3.409,18.873
		c0.111,1.67-0.01,4.291,0.589,6.174c0.209-0.094,0.588-0.258,1.162-0.7c0.564-0.45,1.118-0.915,1.663-1.391
		c0.999-0.858,2.032-1.668,3.078-2.467c7.159-5.47,14.812-10.441,21.354-16.668c6.227-5.929,11.658-12.804,15.898-20.288
		c4.289-7.566,8.017-15.879,9.656-24.469c0.229-1.203,7.376-19.142,7.533-20.328c-8.372-4.985-23.1-6.062-23.601-19.095
		c-1.08-28.065,7.443-111.968,7.443-111.968l-49.334,12c0,0,5.008,95.614-1.471,111.807
		C1568.783,883.267,1564.74,888.398,1559.942,893.33z"/>
	<g>
		<path fill="#1D1B3A" d="M1557.874,893.9c0.627,3.057-0.019,6.558-0.157,9.646c-0.146,3.253,0.275,6.39,0.95,9.561
			c1.515,7.122,4.396,14.105,7.132,20.827c2.744,6.741,5.678,13.405,7.285,20.53c1.358,6.02,0.734,12.307,2.12,18.258
			c0.332,1.428,1.961,1.87,3.151,1.282c3.692-1.824,6.932-5.357,10.245-7.794c5.008-3.683,10.041-7.303,14.774-11.339
			c8.981-7.661,15.979-17.356,21.4-27.776c4.099-7.878,5.762-16.276,8.855-24.469c1.99-5.273,4.82-10.704,6.056-16.215
			c0.21-0.936-0.121-1.933-0.985-2.423c-6.02-3.411-13.294-4.634-18.686-9.124c-5.014-4.174-3.997-11.598-3.917-17.451
			c0.189-13.765,1.152-27.527,2.148-41.252c1.485-20.482,3.286-40.951,5.359-61.383c0.146-1.441-1.474-2.371-2.716-2.068
			c-16.444,4-32.89,8-49.334,12c-0.888,0.216-1.623,1.144-1.575,2.068c0.941,18.039,1.512,36.106,1.76,54.168
			c0.178,12.915,0.195,25.859-0.527,38.76c-0.26,4.627-0.605,9.28-1.438,13.845c-1.336,7.331-6.332,13.005-11.351,18.261
			c-1.91,2,1.119,5.039,3.033,3.035c4.938-5.172,10.201-11.012,12.018-18.116c1.065-4.169,1.405-8.569,1.747-12.845
			c1.053-13.179,0.974-26.467,0.847-39.677c-0.184-19.147-0.8-38.308-1.798-57.431c-0.525,0.689-1.05,1.379-1.575,2.068
			c16.444-4,32.89-8,49.334-12c-0.905-0.689-1.811-1.379-2.716-2.068c-2.193,21.618-4.077,43.275-5.615,64.949
			c-0.988,13.934-1.926,27.918-1.922,41.893c0.001,6.213,0.432,11.759,5.203,16.278c5.351,5.068,13.301,6.251,19.554,9.795
			c-0.328-0.808-0.657-1.615-0.985-2.423c-1.104,4.921-3.603,9.788-5.399,14.486c-3.001,7.848-4.633,15.947-8.292,23.595
			c-4.946,10.338-11.782,19.495-20.168,27.286c-4.72,4.385-10.063,8.075-15.256,11.867c-3.244,2.37-6.646,6.016-10.245,7.794
			c1.051,0.428,2.102,0.854,3.151,1.282c-1.239-5.326-0.873-11.126-1.787-16.562c-1.202-7.144-4.178-13.863-6.916-20.519
			c-2.803-6.813-5.35-13.682-7.383-20.768c-2.029-7.067,0.186-14.007-1.244-20.974C1561.455,890.049,1557.319,891.2,1557.874,893.9z
			"/>
	</g>
</g>
<g>
	<path fill="#FFFFFF" d="M1570.775,976.325c1.206-0.775,2.38-0.795,3.362-0.372c1.066-0.584,2.135-1.167,3.202-1.75
		c5.888-36.764-35.445-69.615-8.805-98.231l3.432-18.021c-64.477,12.148-17.969,77.997-5.008,120.681
		C1568.242,977.887,1569.521,977.131,1570.775,976.325z"/>
	<g>
		<path fill="#1D1B3A" d="M1572.006,978.43c0.97-0.437,1.832,0.135,2.78-0.126c1.285-0.354,3.335-1.435,4.278-2.377
			c1.64-1.641,1.225-6.214,1.289-8.326c0.191-6.293-1.03-12.629-2.66-18.675c-3.362-12.47-9.421-24.011-13.245-36.326
			c-3.914-12.604-3.339-24.749,5.812-34.904c1.772-1.968,1.694-6.684,2.159-9.123c0.633-3.325,1.267-6.649,1.899-9.975
			c0.36-1.891-1.1-3.374-3-3c-11.907,2.344-23.897,7.091-30.547,17.825c-5.619,9.069-5.181,20.475-3.407,30.572
			c4.641,26.413,19.409,49.853,27.243,75.283c0.462,1.498,2.189,2.271,3.582,1.457
			C1569.475,979.985,1570.745,979.22,1572.006,978.43c2.657-1.666,0.212-5.887-2.461-4.211c-1.261,0.79-2.532,1.555-3.816,2.306
			c1.193,0.485,2.388,0.972,3.582,1.457c-7.166-23.262-19.471-44.64-25.68-68.24c-2.594-9.855-4.305-21.201-0.182-30.895
			c4.948-11.633,17.656-16.28,29.166-18.546c-1-1-2-2-3-3c-0.572,3.004-1.144,6.007-1.716,9.011
			c-0.664,3.487-0.738,7.446-2.897,10.011c-7.401,8.791-9.018,19.661-6.995,30.691c2.193,11.961,8.005,23.105,12.154,34.449
			c2.321,6.347,4.221,12.896,5.014,19.622c0.357,3.037,0.362,6.098,0.186,9.146c-0.224,3.853-3.086,2.759-5.815,3.987
			C1566.681,975.507,1569.163,979.709,1572.006,978.43z"/>
	</g>
</g>
<g>
	<path fill="#FFFFFF" d="M1613.996,853.327l0.669,17.182c28.26,24.223-14.141,68.375-34.597,104.902
		c0.095-0.042,0.187-0.091,0.281-0.133c2.399-1.05,4.648,0.228,5.609,2.021c0.984,0.349,1.776,1.063,2.235,1.981
		c5.839-6.809,12.375-12.959,18.914-18.098c15.112-12.954,39.939-20.51,50.733-38.859
		C1675.112,894.256,1653.9,850.538,1613.996,853.327z"/>
	<g>
		<path fill="#1D1B3A" d="M1611.558,853.327c0.124,3.193,0.248,6.387,0.373,9.58c0.077,1.997-0.763,7.751,1.01,9.326
			c9.16,8.142,10.049,18.846,6.783,30.114c-3.746,12.921-11.528,24.698-18.775,35.881c-7.736,11.936-15.98,23.558-22.985,35.952
			c-1.273,2.252,1.195,4.347,3.336,3.336c0.77-0.363,4.261,2.205,4.79,2.995c0.818,1.225,2.741,1.745,3.83,0.494
			c7.283-8.373,15.522-16.085,24.634-22.447c7.615-5.318,15.932-9.573,23.765-14.553c13.775-8.756,25.212-20.598,27.574-37.327
			c1.973-13.973-2.705-28.076-11.517-38.906c-9.798-12.042-25.107-17.757-40.379-16.884c-3.126,0.179-3.144,5.057,0,4.877
			c14.8-0.846,28.241,4.775,37.626,16.311c8.614,10.588,11.794,25.41,8.546,38.593c-3.967,16.101-18.147,25.596-31.551,33.557
			c-15.775,9.37-29.992,19.358-42.147,33.331c1.277,0.165,2.554,0.329,3.83,0.494c-2.521-3.771-6.895-6.902-11.462-4.745
			c1.112,1.112,2.224,2.224,3.336,3.336c13.834-24.477,34.636-46.722,42.582-74.135c2.882-9.942,2.44-20.647-3.989-29.107
			c-0.755-0.993-3.731-4.642-3.674-3.18c-0.07-1.794-0.14-3.587-0.21-5.381c-0.149-3.837-0.299-7.675-0.448-11.512
			C1616.312,850.192,1611.435,850.18,1611.558,853.327z"/>
	</g>
</g>
</svg>
