<?xml version="1.0" encoding="utf-8"?>
<!-- Generator: Adobe Illustrator 16.0.4, SVG Export Plug-In . SVG Version: 6.00 Build 0)  -->
<!DOCTYPE svg PUBLIC "-//W3C//DTD SVG 1.1//EN" "http://www.w3.org/Graphics/SVG/1.1/DTD/svg11.dtd">
<svg version="1.1" id="char3-headBack" xmlns="http://www.w3.org/2000/svg" xmlns:xlink="http://www.w3.org/1999/xlink" x="0px"
	 y="0px" width="2554.794px" height="1700.788px" viewBox="0 0 2554.794 1700.788" enable-background="new 0 0 2554.794 1700.788"
	 xml:space="preserve">
<g>
	<g>
		<path fill="#DC4832" d="M1553.113,878.115"/>
		<g>
			<path fill="#1D1B3A" d="M1553.113,880.615c3.225,0,3.225-5,0-5S1549.889,880.615,1553.113,880.615L1553.113,880.615z"/>
		</g>
	</g>
</g>
<g>
	<path fill="#1D1B3A" d="M1468.927,800.904c-17.774,19.994-13.027,31.521-42.863,38.301c14.927,36.25,115.536,48.176,146.428,46.555
		c56.438-2.958,101.795-17.99,141.757-57.953c-54.704,20.516-26.007-73.086-24.152-102.696
		c3.611-57.687-11.129-100.907-68.367-120.804c-48.327-16.8-107.693-16.493-129.121,37.697
		c-21.433,54.209,3.032,105.749-23.813,159.442"/>
</g>
<g>
	<path fill="#FFFFFF" d="M1568.535,875.971l3.432-18.021"/>
	<g>
		<path fill="#1D1B3A" d="M1570.887,876.62c1.144-6.007,2.288-12.015,3.432-18.021c0.585-3.073-4.115-4.384-4.703-1.297
			c-1.144,6.007-2.288,12.015-3.432,18.021C1565.599,878.396,1570.299,879.707,1570.887,876.62L1570.887,876.62z"/>
	</g>
</g>
<g>
	<path fill="#FFFFFF" d="M1613.996,853.327l0.669,17.182"/>
	<g>
		<path fill="#1D1B3A" d="M1611.558,853.327c0.223,5.728,0.445,11.454,0.669,17.182c0.122,3.135,5,3.146,4.877,0
			c-0.223-5.728-0.446-11.454-0.669-17.182C1616.312,850.192,1611.435,850.18,1611.558,853.327L1611.558,853.327z"/>
	</g>
</g>
</svg>
