<?xml version="1.0" encoding="utf-8"?>
<!-- Generator: Adobe Illustrator 16.0.4, SVG Export Plug-In . SVG Version: 6.00 Build 0)  -->
<!DOCTYPE svg PUBLIC "-//W3C//DTD SVG 1.1//EN" "http://www.w3.org/Graphics/SVG/1.1/DTD/svg11.dtd">
<svg version="1.1" id="Layer_1" xmlns="http://www.w3.org/2000/svg" xmlns:xlink="http://www.w3.org/1999/xlink" x="0px" y="0px"
	 width="568.635px" height="601.823px" viewBox="0 0 568.635 601.823" enable-background="new 0 0 568.635 601.823"
	 xml:space="preserve">
<path fill="#FFFFFF" d="M381.385,137.013c0,0,46.497,34.499,16.499,52.498l-48.52,13.558l-0.849-11.022l49.368-17.536
	l-19.499-19.499L381.385,137.013z"/>
<polygon fill="#96CCE8" points="532.227,601.823 561.559,556.582 568.635,471.668 435.604,447.609 429.943,355.62 210.583,342.882 
	145.482,352.789 155.388,454.685 69.06,456.1 0,476.593 "/>
<polyline fill="#FFFFFF" points="0,476.593 140.884,479.203 145.482,352.789 381.825,362.695 393.952,476.593 532.227,489.638 
	532.227,601.823 8.205,599.038 "/>
<g>
	<rect x="132.745" y="391" fill="none" width="253.326" height="142.938"/>
	<path d="M185.812,418.803c0,0.34-0.302,0.604-0.604,0.604h-2.003c-0.34,0-0.604-0.264-0.604-0.604v-24.066l-4.383-0.303
		c-0.34-0.037-0.604-0.189-0.604-0.491v-1.397c0-0.34,0.265-0.453,0.604-0.491l7.179-1.058h0.038c0.15,0,0.377,0.227,0.377,0.377
		V418.803z"/>
	<path d="M196.578,423.223c-0.075,0.378-0.113,0.491-0.566,0.491h-1.775c-0.227,0-0.492-0.038-0.492-0.378v-0.076l0.492-7.215
		c0.037-0.379,0.113-0.492,0.566-0.492h2.568c0.228,0,0.492,0.038,0.492,0.34v0.113L196.578,423.223z"/>
	<path d="M215.806,419.899c-10.502,0-11.711-7.141-11.711-14.433s1.209-14.47,11.711-14.47c10.466,0,11.713,7.178,11.713,14.47
		S226.272,419.899,215.806,419.899z M215.769,393.792c-7.254,0-8.236,4.383-8.236,11.637c0,7.292,0.982,11.674,8.236,11.674
		c7.291,0,8.312-4.382,8.312-11.674C224.081,398.137,223.06,393.792,215.769,393.792z"/>
	<path d="M243.908,419.899c-10.504,0-11.713-7.141-11.713-14.433s1.209-14.47,11.713-14.47c10.465,0,11.711,7.178,11.711,14.47
		S254.373,419.899,243.908,419.899z M243.87,393.792c-7.254,0-8.236,4.383-8.236,11.637c0,7.292,0.982,11.674,8.236,11.674
		c7.292,0,8.312-4.382,8.312-11.674C252.181,398.137,251.162,393.792,243.87,393.792z"/>
	<path d="M272.007,419.899c-10.502,0-11.711-7.141-11.711-14.433s1.209-14.47,11.711-14.47c10.466,0,11.713,7.178,11.713,14.47
		S282.473,419.899,272.007,419.899z M271.97,393.792c-7.254,0-8.236,4.383-8.236,11.637c0,7.292,0.982,11.674,8.236,11.674
		c7.291,0,8.312-4.382,8.312-11.674C280.282,398.137,279.261,393.792,271.97,393.792z"/>
	<path d="M300.108,419.899c-10.503,0-11.712-7.141-11.712-14.433s1.209-14.47,11.712-14.47c10.466,0,11.713,7.178,11.713,14.47
		S310.574,419.899,300.108,419.899z M300.071,393.792c-7.254,0-8.236,4.383-8.236,11.637c0,7.292,0.982,11.674,8.236,11.674
		c7.291,0,8.312-4.382,8.312-11.674C308.382,398.137,307.362,393.792,300.071,393.792z"/>
	<path d="M328.209,419.899c-10.503,0-11.712-7.141-11.712-14.433s1.209-14.47,11.712-14.47c10.465,0,11.712,7.178,11.712,14.47
		S338.674,419.899,328.209,419.899z M328.171,393.792c-7.254,0-8.236,4.383-8.236,11.637c0,7.292,0.982,11.674,8.236,11.674
		c7.292,0,8.312-4.382,8.312-11.674C336.484,398.137,335.463,393.792,328.171,393.792z"/>
	<path d="M224.242,465.229c-2.268,0-4.383-0.34-5.743-0.717l0.415,2.229v4.949c0,0.303-0.188,0.416-0.453,0.491l-2.04,0.491h-0.113
		c-0.265,0-0.378-0.265-0.378-0.491v-23.613c0-1.549,0.076-2.229,1.965-2.909c1.965-0.718,4.873-1.246,7.329-1.246
		c6.801,0,7.896,4.23,7.896,10.428C233.12,462.169,231.117,465.229,224.242,465.229z M224.43,446.868
		c-2.267,0-5.517,0.907-5.517,0.907v14.395c0,0,2.078,0.718,5.289,0.718c4.346,0,5.818-2.002,5.818-7.972
		C230.021,447.737,228.095,446.868,224.43,446.868z"/>
	<path d="M244.185,464.285c0,0.265-0.188,0.341-0.302,0.378c-0.302,0.151-1.322,0.453-2.683,0.453c-2.267,0-3.777-1.096-3.777-3.891
		v-23.916c0-0.302,0.188-0.415,0.453-0.453l2.04-0.529h0.113c0.265,0,0.378,0.266,0.378,0.492v24.33c0,1.36,0.944,1.549,1.7,1.549
		c0.528,0,1.134-0.075,1.322-0.15h0.188c0.113,0,0.227,0.037,0.265,0.264l0.265,1.322
		C244.148,464.209,244.185,464.247,244.185,464.285z"/>
	<path d="M260.127,464.701c-1.096,0.227-2.909,0.528-4.911,0.528c-3.25,0-8.652-0.113-8.652-6.233c0-5.062,2.796-5.327,6.536-5.932
		l7.141-1.171v-1.775c0-1.209-0.038-2.191-1.36-2.684c-0.717-0.302-1.775-0.453-3.438-0.453c-2.909,0-5.44,0.719-6.99,1.096
		c-0.075,0-0.15,0.038-0.227,0.038c-0.15,0-0.302-0.075-0.377-0.302l-0.34-1.701v-0.075c0-0.302,0.264-0.415,0.377-0.453
		c1.209-0.454,4.459-1.171,7.896-1.171c2.683,0,4.42,0.377,5.516,0.982c1.928,1.02,1.965,2.795,1.965,4.57v10.844
		C263.263,463.454,262.734,464.058,260.127,464.701z M260.279,454.273l-6.951,1.171c-1.814,0.34-3.666,0.416-3.666,3.4
		c0,3.778,3.099,4.043,5.592,4.043c1.662,0,3.438-0.227,5.025-0.756V454.273z"/>
	<path d="M282.189,464.473c-1.209,0.303-2.796,0.756-5.781,0.756c-7.329,0-9.029-3.324-9.029-10.428
		c0-7.254,2.002-10.389,8.803-10.389c2.607,0,4.496,0.415,5.781,0.756l-0.378-2.191v-5.668c0-0.302,0.188-0.415,0.491-0.453
		l2.04-0.529h0.113c0.265,0,0.34,0.266,0.34,0.492v24.67C284.569,462.887,284.569,463.945,282.189,464.473z M281.584,447.473
		c0,0-2.38-0.681-5.101-0.681c-4.156,0-6.008,1.322-6.008,8.048c0,7.178,2.191,8.009,6.045,8.009c2.797,0,5.063-0.718,5.063-0.718
		V447.473z"/>
	<path d="M295.9,465.229c-3.325,0-6.196-1.096-6.688-1.284c-0.151-0.075-0.303-0.151-0.303-0.378v-0.113l0.379-1.473
		c0.037-0.189,0.15-0.341,0.415-0.341h0.188c0.303,0.113,2.984,1.096,6.083,1.096c3.211,0,5.062-1.021,5.062-3.325
		c0-3.135-2.418-3.021-5.364-3.475c-1.852-0.303-6.574-0.643-6.574-5.63c0-4.874,4.345-5.894,7.669-5.894
		c3.25,0,5.743,0.68,6.159,0.793c0.264,0.038,0.377,0.227,0.377,0.416v0.075l-0.264,1.662c-0.038,0.228-0.189,0.303-0.341,0.303
		h-0.075c-0.529-0.038-3.324-0.718-5.554-0.718c-2.72,0-4.987,0.756-4.987,3.136c0,2.569,2.569,2.871,4.912,3.173
		c3.399,0.454,7.064,0.719,7.064,5.856C304.06,464.02,300.282,465.229,295.9,465.229z"/>
</g>
<path fill="#194395" d="M297.289,189.885c0,3.275-5.458,16.373-5.458,16.373l-40.477-8.542l8.731,42.569l64.49-7.83l-3.274,37.11
	l34.928,2.184c0,0-8.731-117.882-8.731-118.974"/>
<polygon fill="#89D2F6" points="329.844,100.774 264.354,123.696 273.085,153.167 297.099,138.977 290.55,193.552 288.367,205.559 
	351.673,204.467 357.131,129.153 378.385,155.012 390.391,135.365 "/>
<path fill="#FFFFFF" d="M324.097,5.373l-32.455,67.023c0,0,16.371,16.373,30.562,18.556l-1.092,14.189l15.281,2.183V89.86
	c0,0,26.195-14.189,34.928-69.856C371.321,20.004,359.993-6.592,324.097,5.373z"/>
<path fill="none" stroke="#000000" stroke-width="0.7713" stroke-miterlimit="10" d="M330.08,27.208c0,0-5.084,7.777-15.517,11.351
	c0,0-23.069,8.092,7.74,14.374"/>
<path fill="none" stroke="#000000" stroke-width="0.7713" stroke-miterlimit="10" d="M306.45,52.036c0,0,16.151,10.169,36.193,3.589
	"/>
<path fill="none" stroke="#000000" stroke-width="0.7713" stroke-miterlimit="10" d="M321.406,8.064c0,0,15.256-1.196,21.836,16.452
	c0,0,5.085,17.349,16.451,18.545"/>
<path fill="#936037" d="M324.097,5.373c0,0,14.657,1.795,19.742,14.357c0,0,6.281,23.332,22.733,21.238
	c0,0,15.256-18.845-5.085-33.501C361.488,7.466,350.121-4.2,324.097,5.373z"/>
<ellipse fill="none" stroke="#000000" stroke-width="0.7713" stroke-miterlimit="10" cx="322.003" cy="28.105" rx="2.094" ry="4.188"/>
<ellipse fill="none" stroke="#000000" stroke-width="0.7713" stroke-miterlimit="10" cx="337.109" cy="31.545" rx="2.842" ry="5.235"/>
<ellipse transform="matrix(0.8684 0.4958 -0.4958 0.8684 72.5479 -175.3005)" fill="#FFFFFF" cx="366.573" cy="49.043" rx="6.88" ry="10.17"/>
<path fill="#936037" d="M330.08,6.868c0,0-1.795-0.599-10.768-2.393c-8.974-1.794,15.853-9.272,37.091,0.299
	C377.64,14.346,330.08,6.868,330.08,6.868z"/>
<path fill="#FFFFFF" d="M326.302,271.418c0,0-1,48-5,69l11-2l6-68L326.302,271.418z"/>
<path d="M333.302,322.418l-10,3l-6,26c0,0,50,8,57,6c0,0-5-16-33-11C341.302,346.418,330.302,343.418,333.302,322.418z"/>
<path fill="#FFFFFF" d="M254.302,202.418c0,0-49.996-16.301-47.996,9.699l26.996,67.301l15,1l-27.214-67.315l36.214,7.315
	L254.302,202.418z"/>
<ellipse fill="#FFFFFF" cx="210.302" cy="317.418" rx="38" ry="36"/>
<polygon points="230.302,293.418 228.302,307.418 240.302,317.418 243.302,305.418 "/>
<polygon points="179.792,335.399 183.792,327.399 195.792,333.399 196.792,345.399 189.792,346.399 "/>
<polygon points="195.302,293.418 190.302,311.418 201.302,319.418 214.302,315.418 214.302,300.418 "/>
<polygon points="213.302,335.418 228.302,326.418 237.302,333.418 230.302,343.418 215.302,346.418 "/>
<path d="M176.576,300.601l2.727,10.817l-7,6C172.302,317.418,171.576,309.601,176.576,300.601z"/>
<path d="M197.21,281.476c0,0,3.02-11.576,17.112-8.053c0,0,17.323,10.983,18.979,5.995l-6.301-16.054l12.486-6.55
	c0,0,13.085,31.707,14.092,39.76S197.21,281.476,197.21,281.476z"/>
<polygon fill="#FFFFFF" points="266.422,129.334 247.892,131.014 222.394,84.516 216.394,90.516 237.393,141.513 270.391,143.013 
	"/>
<path fill="#FFFFFF" d="M216.257,41.979c0,0-2.544,16.692,11.869,24.204c0,0,5.935,10.016-2.543,22.535
	c0,0-30.522,18.361-32.218-5.843c0,0-0.879-14.341,5.056-12.672c0,0-3.275-9.855,6.898-9.855l10.938,5.835
	c0,0-10.174-9.181-9.326-14.189S206.083,40.31,216.257,41.979z"/>
<g>
</g>
<g>
</g>
<g>
</g>
<g>
</g>
<g>
</g>
<g>
</g>
</svg>
