<?xml version="1.0" encoding="utf-8"?>
<!-- Generator: Adobe Illustrator 16.0.4, SVG Export Plug-In . SVG Version: 6.00 Build 0)  -->
<!DOCTYPE svg PUBLIC "-//W3C//DTD SVG 1.1//EN" "http://www.w3.org/Graphics/SVG/1.1/DTD/svg11.dtd">
<svg version="1.1" id="Layer_1" xmlns="http://www.w3.org/2000/svg" xmlns:xlink="http://www.w3.org/1999/xlink" x="0px" y="0px"
	 width="568.635px" height="601.824px" viewBox="0 0 568.635 601.824" enable-background="new 0 0 568.635 601.824"
	 xml:space="preserve">
<path fill="#FFFFFF" d="M381.385,137.013c0,0,46.497,34.499,16.499,52.498l-48.521,13.558l-0.849-11.022l49.368-17.536
	l-19.499-19.499L381.385,137.013z"/>
<path fill="#194395" d="M297.289,189.885c0,3.275-5.458,16.373-5.458,16.373l-40.478-8.542l8.731,42.569l64.489-7.83l-3.273,37.11
	l34.928,2.184c0,0-8.731-117.882-8.731-118.974"/>
<polygon fill="#89D2F6" points="329.844,100.774 264.354,123.696 273.085,153.167 297.099,138.977 290.55,193.552 288.367,205.559 
	351.673,204.467 357.131,129.153 378.385,155.012 390.391,135.365 "/>
<path fill="#FFFFFF" d="M324.097,5.373l-32.455,67.023c0,0,16.371,16.373,30.562,18.556l-1.092,14.189l15.281,2.183V89.86
	c0,0,26.195-14.189,34.928-69.856C371.321,20.004,359.992-6.592,324.097,5.373z"/>
<path fill="none" stroke="#000000" stroke-width="0.7713" stroke-miterlimit="10" d="M330.079,27.208c0,0-5.084,7.777-15.517,11.351
	c0,0-23.068,8.092,7.74,14.374"/>
<path fill="none" stroke="#000000" stroke-width="0.7713" stroke-miterlimit="10" d="M306.449,52.036
	c0,0,16.151,10.169,36.193,3.589"/>
<path fill="none" stroke="#000000" stroke-width="0.7713" stroke-miterlimit="10" d="M321.406,8.064c0,0,15.256-1.196,21.836,16.452
	c0,0,5.085,17.349,16.451,18.545"/>
<path fill="#936037" d="M324.097,5.373c0,0,14.657,1.795,19.742,14.357c0,0,6.28,23.332,22.732,21.238
	c0,0,15.256-18.845-5.085-33.501C361.488,7.466,350.12-4.2,324.097,5.373z"/>
<ellipse fill="none" stroke="#000000" stroke-width="0.7713" stroke-miterlimit="10" cx="322.003" cy="28.105" rx="2.094" ry="4.188"/>
<ellipse fill="none" stroke="#000000" stroke-width="0.7713" stroke-miterlimit="10" cx="337.109" cy="31.545" rx="2.842" ry="5.235"/>
<ellipse transform="matrix(0.4958 -0.8684 0.8684 0.4958 142.2296 343.0554)" fill="#FFFFFF" cx="366.564" cy="49.035" rx="10.17" ry="6.879"/>
<path fill="#936037" d="M330.079,6.868c0,0-1.795-0.599-10.768-2.393c-8.974-1.794,15.853-9.272,37.091,0.299
	C377.64,14.346,330.079,6.868,330.079,6.868z"/>
<path fill="#FFFFFF" d="M326.302,271.418c0,0-1,48-5,69l11-2l6-68L326.302,271.418z"/>
<path d="M333.302,322.417l-10,3l-6,26c0,0,50,8,57,6c0,0-5-16-33-11C341.302,346.417,330.302,343.417,333.302,322.417z"/>
<path fill="#FFFFFF" d="M254.302,202.418c0,0-49.996-16.301-47.996,9.699l26.996,67.301l15,1l-27.214-67.315l36.214,7.315
	L254.302,202.418z"/>
<ellipse fill="#FFFFFF" cx="210.302" cy="317.418" rx="38" ry="36"/>
<polygon points="230.302,293.418 228.302,307.417 240.302,317.417 243.302,305.417 "/>
<polygon points="179.792,335.399 183.792,327.399 195.792,333.399 196.792,345.399 189.792,346.399 "/>
<polygon points="195.302,293.418 190.302,311.417 201.302,319.417 214.302,315.417 214.302,300.418 "/>
<polygon points="213.302,335.417 228.302,326.417 237.302,333.417 230.302,343.417 215.302,346.417 "/>
<path d="M176.576,300.601l2.727,10.816l-7,6C172.302,317.417,171.576,309.601,176.576,300.601z"/>
<path d="M197.21,281.476c0,0,3.02-11.576,17.111-8.053c0,0,17.323,10.983,18.979,5.995L227,263.364l12.485-6.55
	c0,0,13.085,31.707,14.093,39.76C254.585,304.626,197.21,281.476,197.21,281.476z"/>
<polygon fill="#FFFFFF" points="266.422,129.334 247.892,131.014 222.394,84.516 216.394,90.516 237.393,141.513 270.391,143.013 
	"/>
<path fill="#FFFFFF" d="M216.257,41.979c0,0-2.544,16.692,11.869,24.204c0,0,5.935,10.016-2.543,22.535
	c0,0-30.522,18.361-32.218-5.843c0,0-0.88-14.341,5.056-12.672c0,0-3.275-9.855,6.897-9.855l10.938,5.835
	c0,0-10.174-9.181-9.326-14.189C207.779,46.986,206.083,40.31,216.257,41.979z"/>
</svg>
