<?xml version="1.0" encoding="utf-8"?>
<!-- Generator: Adobe Illustrator 16.0.4, SVG Export Plug-In . SVG Version: 6.00 Build 0)  -->
<!DOCTYPE svg PUBLIC "-//W3C//DTD SVG 1.1//EN" "http://www.w3.org/Graphics/SVG/1.1/DTD/svg11.dtd">
<svg version="1.1" id="Layer_1" xmlns="http://www.w3.org/2000/svg" xmlns:xlink="http://www.w3.org/1999/xlink" x="0px" y="0px"
	 width="568.635px" height="601.824px" viewBox="0 0 568.635 601.824" enable-background="new 0 0 568.635 601.824"
	 xml:space="preserve">
<polygon fill="#96CCE8" points="532.227,601.824 561.559,556.582 568.635,471.667 435.604,447.609 429.943,355.621 210.583,342.882 
	145.482,352.789 155.388,454.685 69.06,456.099 0,476.593 "/>
<polyline fill="#FFFFFF" points="0,476.593 140.884,479.203 145.482,352.789 381.824,362.695 393.951,476.593 532.227,489.638 
	532.227,601.824 8.205,599.039 "/>
<g>
	<rect x="132.745" y="391" fill="none" width="253.325" height="142.938"/>
	<path d="M185.812,418.803c0,0.34-0.302,0.604-0.604,0.604h-2.003c-0.341,0-0.604-0.265-0.604-0.604v-24.066l-4.383-0.303
		c-0.34-0.037-0.604-0.188-0.604-0.491v-1.396c0-0.34,0.266-0.453,0.604-0.491l7.179-1.058h0.038c0.15,0,0.377,0.227,0.377,0.377
		V418.803L185.812,418.803z"/>
	<path d="M196.578,423.222c-0.075,0.379-0.113,0.492-0.566,0.492h-1.775c-0.227,0-0.491-0.039-0.491-0.379v-0.076l0.491-7.215
		c0.037-0.379,0.113-0.491,0.566-0.491h2.568c0.228,0,0.491,0.038,0.491,0.34v0.112L196.578,423.222z"/>
	<path d="M215.806,419.899c-10.502,0-11.711-7.142-11.711-14.433c0-7.293,1.209-14.471,11.711-14.471
		c10.466,0,11.713,7.178,11.713,14.471C227.519,412.757,226.272,419.899,215.806,419.899z M215.769,393.792
		c-7.254,0-8.235,4.383-8.235,11.637c0,7.292,0.981,11.674,8.235,11.674c7.291,0,8.312-4.382,8.312-11.674
		S223.06,393.792,215.769,393.792z"/>
	<path d="M243.908,419.899c-10.505,0-11.714-7.142-11.714-14.433c0-7.293,1.209-14.471,11.714-14.471
		c10.465,0,11.711,7.178,11.711,14.471C255.619,412.757,254.373,419.899,243.908,419.899z M243.87,393.792
		c-7.254,0-8.236,4.383-8.236,11.637c0,7.292,0.982,11.674,8.236,11.674c7.292,0,8.312-4.382,8.312-11.674
		C252.181,398.137,251.162,393.792,243.87,393.792z"/>
	<path d="M272.007,419.899c-10.502,0-11.711-7.142-11.711-14.433c0-7.293,1.209-14.471,11.711-14.471
		c10.466,0,11.713,7.178,11.713,14.471C283.72,412.757,282.473,419.899,272.007,419.899z M271.97,393.792
		c-7.254,0-8.236,4.383-8.236,11.637c0,7.292,0.982,11.674,8.236,11.674c7.291,0,8.312-4.382,8.312-11.674
		S279.261,393.792,271.97,393.792z"/>
	<path d="M300.108,419.899c-10.503,0-11.712-7.142-11.712-14.433c0-7.293,1.209-14.471,11.712-14.471
		c10.466,0,11.713,7.178,11.713,14.471C311.821,412.757,310.573,419.899,300.108,419.899z M300.071,393.792
		c-7.254,0-8.235,4.383-8.235,11.637c0,7.292,0.981,11.674,8.235,11.674c7.291,0,8.312-4.382,8.312-11.674
		C308.382,398.137,307.362,393.792,300.071,393.792z"/>
	<path d="M328.209,419.899c-10.504,0-11.713-7.142-11.713-14.433c0-7.293,1.209-14.471,11.713-14.471
		c10.465,0,11.712,7.178,11.712,14.471C339.921,412.757,338.674,419.899,328.209,419.899z M328.171,393.792
		c-7.255,0-8.236,4.383-8.236,11.637c0,7.292,0.981,11.674,8.236,11.674c7.292,0,8.312-4.382,8.312-11.674
		C336.484,398.137,335.463,393.792,328.171,393.792z"/>
	<path d="M224.242,465.228c-2.269,0-4.384-0.34-5.743-0.717l0.415,2.23v4.949c0,0.303-0.188,0.416-0.453,0.49l-2.04,0.49h-0.113
		c-0.265,0-0.378-0.264-0.378-0.49v-23.613c0-1.549,0.076-2.229,1.965-2.908c1.965-0.719,4.873-1.246,7.329-1.246
		c6.801,0,7.896,4.229,7.896,10.428C233.12,462.169,231.117,465.228,224.242,465.228z M224.43,446.869
		c-2.267,0-5.517,0.906-5.517,0.906v14.395c0,0,2.078,0.719,5.289,0.719c4.346,0,5.817-2.002,5.817-7.973
		C230.021,447.738,228.095,446.869,224.43,446.869z"/>
	<path d="M244.185,464.285c0,0.266-0.188,0.342-0.302,0.379c-0.302,0.15-1.322,0.453-2.683,0.453c-2.268,0-3.777-1.098-3.777-3.893
		v-23.916c0-0.301,0.188-0.414,0.453-0.451l2.04-0.529h0.112c0.266,0,0.379,0.266,0.379,0.492v24.33
		c0,1.359,0.943,1.549,1.699,1.549c0.528,0,1.135-0.076,1.322-0.15h0.188c0.112,0,0.227,0.037,0.265,0.264l0.265,1.322
		C244.148,464.208,244.185,464.248,244.185,464.285z"/>
	<path d="M260.127,464.701c-1.097,0.227-2.909,0.527-4.911,0.527c-3.25,0-8.652-0.111-8.652-6.232c0-5.062,2.796-5.326,6.536-5.932
		l7.142-1.172v-1.773c0-1.209-0.038-2.191-1.36-2.686c-0.717-0.301-1.775-0.451-3.438-0.451c-2.908,0-5.439,0.719-6.989,1.096
		c-0.075,0-0.15,0.037-0.228,0.037c-0.149,0-0.302-0.074-0.377-0.301l-0.34-1.701v-0.076c0-0.301,0.264-0.414,0.377-0.453
		c1.209-0.453,4.459-1.17,7.896-1.17c2.683,0,4.42,0.377,5.516,0.98c1.928,1.021,1.965,2.797,1.965,4.57v10.844
		C263.263,463.455,262.734,464.058,260.127,464.701z M260.279,454.273l-6.95,1.172c-1.814,0.34-3.666,0.416-3.666,3.398
		c0,3.779,3.099,4.043,5.592,4.043c1.662,0,3.438-0.227,5.024-0.756V454.273z"/>
	<path d="M282.189,464.472c-1.209,0.305-2.796,0.756-5.78,0.756c-7.329,0-9.029-3.322-9.029-10.428
		c0-7.254,2.002-10.389,8.803-10.389c2.607,0,4.496,0.416,5.781,0.756l-0.378-2.191v-5.668c0-0.301,0.188-0.414,0.491-0.451
		l2.04-0.529h0.112c0.266,0,0.34,0.266,0.34,0.492v24.67C284.569,462.886,284.569,463.945,282.189,464.472z M281.584,447.472
		c0,0-2.38-0.68-5.102-0.68c-4.155,0-6.008,1.322-6.008,8.047c0,7.178,2.191,8.01,6.045,8.01c2.797,0,5.063-0.719,5.063-0.719
		L281.584,447.472L281.584,447.472z"/>
	<path d="M295.9,465.228c-3.324,0-6.195-1.096-6.688-1.283c-0.151-0.074-0.303-0.15-0.303-0.377v-0.113l0.379-1.473
		c0.037-0.189,0.149-0.342,0.415-0.342h0.188c0.303,0.113,2.984,1.096,6.083,1.096c3.211,0,5.062-1.021,5.062-3.324
		c0-3.135-2.418-3.021-5.363-3.477c-1.853-0.303-6.574-0.643-6.574-5.629c0-4.875,4.345-5.895,7.669-5.895
		c3.25,0,5.743,0.68,6.159,0.793c0.264,0.039,0.377,0.227,0.377,0.416v0.076l-0.265,1.662c-0.037,0.227-0.188,0.303-0.341,0.303
		h-0.075c-0.528-0.039-3.323-0.719-5.554-0.719c-2.72,0-4.986,0.756-4.986,3.137c0,2.568,2.568,2.871,4.912,3.172
		c3.398,0.455,7.063,0.719,7.063,5.857C304.06,464.019,300.281,465.228,295.9,465.228z"/>
</g>
</svg>
