<?xml version="1.0" encoding="utf-8"?>
<!-- Generator: Adobe Illustrator 16.0.4, SVG Export Plug-In . SVG Version: 6.00 Build 0)  -->
<!DOCTYPE svg PUBLIC "-//W3C//DTD SVG 1.1//EN" "http://www.w3.org/Graphics/SVG/1.1/DTD/svg11.dtd">
<svg version="1.1" id="Layer_1" xmlns="http://www.w3.org/2000/svg" xmlns:xlink="http://www.w3.org/1999/xlink" x="0px" y="0px"
	 width="1105.214px" height="517.497px" viewBox="0 0 1105.214 517.497" enable-background="new 0 0 1105.214 517.497"
	 xml:space="preserve">
<pattern  x="250.674" y="-164.077" width="86.081" height="74.172" patternUnits="userSpaceOnUse" id="Unnamed_Pattern_9" viewBox="0 -74.172 86.081 74.172" overflow="visible">
	<g>
		<polygon fill="none" points="0,-74.172 86.082,-74.172 86.082,0 0,0 		"/>
		<path fill="#2EBDEF" d="M27.879-4.633c0-0.561-0.455-1.018-1.017-1.018s-1.019,0.457-1.019,1.018c0,0.562,0.457,1.021,1.019,1.021
			S27.879-4.07,27.879-4.633"/>
		<path fill="#2EBDEF" d="M27.879-9.266c0-0.561-0.455-1.018-1.017-1.018s-1.019,0.457-1.019,1.018c0,0.564,0.457,1.021,1.019,1.021
			S27.879-8.701,27.879-9.266"/>
		<path fill="#2EBDEF" d="M27.879-32.424c0-0.562-0.455-1.018-1.017-1.018s-1.019,0.455-1.019,1.018
			c0,0.562,0.457,1.018,1.019,1.018S27.879-31.862,27.879-32.424"/>
		<path fill="#2EBDEF" d="M27.879-13.895c0-0.562-0.455-1.021-1.017-1.021s-1.019,0.458-1.019,1.021
			c0,0.561,0.457,1.018,1.019,1.018S27.879-13.334,27.879-13.895"/>
		<path fill="#2EBDEF" d="M27.879-27.791c0-0.562-0.455-1.02-1.017-1.02s-1.019,0.458-1.019,1.02c0,0.562,0.457,1.018,1.019,1.018
			S27.879-27.229,27.879-27.791"/>
		<path fill="#2EBDEF" d="M27.879-18.527c0-0.562-0.455-1.021-1.017-1.021s-1.019,0.458-1.019,1.021
			c0,0.562,0.457,1.018,1.019,1.018S27.879-17.966,27.879-18.527"/>
		<path fill="#2EBDEF" d="M27.879-23.158c0-0.564-0.455-1.02-1.017-1.02s-1.019,0.455-1.019,1.02c0,0.561,0.457,1.016,1.019,1.016
			S27.879-22.598,27.879-23.158"/>
		<path fill="#2EBDEF" d="M33.253-64.846c0-0.562-0.457-1.018-1.018-1.018c-0.564,0-1.019,0.456-1.019,1.018
			c0,0.561,0.455,1.018,1.019,1.018C32.796-63.828,33.253-64.285,33.253-64.846"/>
		<path fill="#2EBDEF" d="M33.253-74.109c0-0.021-0.002-0.043-0.004-0.062H31.22c-0.002,0.019-0.004,0.04-0.004,0.062
			c0,0.562,0.455,1.018,1.019,1.018C32.796-73.092,33.253-73.548,33.253-74.109"/>
		<path fill="#2EBDEF" d="M33.253-41.688c0-0.561-0.457-1.018-1.018-1.018c-0.564,0-1.019,0.457-1.019,1.018
			c0,0.562,0.455,1.021,1.019,1.021C32.796-40.667,33.253-41.125,33.253-41.688"/>
		<path fill="#2EBDEF" d="M33.253-37.055c0-0.564-0.457-1.02-1.018-1.02c-0.564,0-1.019,0.455-1.019,1.02
			c0,0.562,0.455,1.018,1.019,1.018C32.796-36.037,33.253-36.493,33.253-37.055"/>
		<path fill="#2EBDEF" d="M33.253-46.318c0-0.562-0.457-1.02-1.018-1.02c-0.564,0-1.019,0.457-1.019,1.02
			c0,0.562,0.455,1.018,1.019,1.018C32.796-45.301,33.253-45.757,33.253-46.318"/>
		<path fill="#2EBDEF" d="M33.253-32.424c0-0.562-0.457-1.018-1.018-1.018c-0.564,0-1.019,0.455-1.019,1.018
			c0,0.562,0.455,1.018,1.019,1.018C32.796-31.406,33.253-31.862,33.253-32.424"/>
		<path fill="#2EBDEF" d="M33.253-55.582c0-0.562-0.457-1.018-1.018-1.018c-0.564,0-1.019,0.455-1.019,1.018
			c0,0.562,0.455,1.018,1.019,1.018C32.796-54.564,33.253-55.021,33.253-55.582"/>
		<path fill="#2EBDEF" d="M33.253-50.951c0-0.562-0.457-1.018-1.018-1.018c-0.564,0-1.019,0.456-1.019,1.018
			s0.455,1.018,1.019,1.018C32.796-49.934,33.253-50.39,33.253-50.951"/>
		<path fill="#2EBDEF" d="M33.253-60.215c0-0.562-0.457-1.018-1.018-1.018c-0.564,0-1.019,0.455-1.019,1.018
			c0,0.562,0.455,1.018,1.019,1.018C32.796-59.197,33.253-59.653,33.253-60.215"/>
		<path fill="#2EBDEF" d="M33.253-69.479c0-0.562-0.457-1.018-1.018-1.018c-0.564,0-1.019,0.456-1.019,1.018
			c0,0.564,0.455,1.018,1.019,1.018C32.796-68.461,33.253-68.914,33.253-69.479"/>
		<path fill="#2EBDEF" d="M27.879-55.582c0-0.562-0.455-1.018-1.017-1.018s-1.019,0.455-1.019,1.018
			c0,0.562,0.457,1.018,1.019,1.018S27.879-55.021,27.879-55.582"/>
		<path fill="#2EBDEF" d="M22.508-23.158c0-0.564-0.456-1.02-1.018-1.02c-0.563,0-1.019,0.455-1.019,1.02
			c0,0.561,0.456,1.016,1.019,1.016C22.052-22.143,22.508-22.598,22.508-23.158"/>
		<path fill="#2EBDEF" d="M22.508-18.527c0-0.562-0.456-1.021-1.018-1.021c-0.563,0-1.019,0.458-1.019,1.021
			c0,0.562,0.456,1.018,1.019,1.018C22.052-17.51,22.508-17.966,22.508-18.527"/>
		<path fill="#2EBDEF" d="M22.508-4.633c0-0.561-0.456-1.018-1.018-1.018c-0.563,0-1.019,0.457-1.019,1.018
			c0,0.562,0.456,1.021,1.019,1.021C22.052-3.612,22.508-4.07,22.508-4.633"/>
		<path fill="#2EBDEF" d="M22.508-9.266c0-0.561-0.456-1.018-1.018-1.018c-0.563,0-1.019,0.457-1.019,1.018
			c0,0.564,0.456,1.021,1.019,1.021C22.052-8.245,22.508-8.701,22.508-9.266"/>
		<path fill="#2EBDEF" d="M27.879-37.055c0-0.564-0.455-1.02-1.017-1.02s-1.019,0.455-1.019,1.02c0,0.562,0.457,1.018,1.019,1.018
			S27.879-36.493,27.879-37.055"/>
		<path fill="#2EBDEF" d="M22.508-37.055c0-0.564-0.456-1.02-1.018-1.02c-0.563,0-1.019,0.455-1.019,1.02
			c0,0.562,0.456,1.018,1.019,1.018C22.052-36.037,22.508-36.493,22.508-37.055"/>
		<path fill="#2EBDEF" d="M22.508-27.791c0-0.562-0.456-1.02-1.018-1.02c-0.563,0-1.019,0.458-1.019,1.02
			c0,0.562,0.456,1.018,1.019,1.018C22.052-26.773,22.508-27.229,22.508-27.791"/>
		<path fill="#2EBDEF" d="M22.508-32.424c0-0.562-0.456-1.018-1.018-1.018c-0.563,0-1.019,0.455-1.019,1.018
			c0,0.562,0.456,1.018,1.019,1.018C22.052-31.406,22.508-31.862,22.508-32.424"/>
		<path fill="#2EBDEF" d="M22.508-13.895c0-0.562-0.456-1.021-1.018-1.021c-0.563,0-1.019,0.458-1.019,1.021
			c0,0.561,0.456,1.018,1.019,1.018C22.052-12.877,22.508-13.334,22.508-13.895"/>
		<path fill="#2EBDEF" d="M33.253-27.791c0-0.562-0.457-1.02-1.018-1.02c-0.564,0-1.019,0.458-1.019,1.02
			c0,0.562,0.455,1.018,1.019,1.018C32.796-26.773,33.253-27.229,33.253-27.791"/>
		<path fill="#2EBDEF" d="M27.879-50.951c0-0.562-0.455-1.018-1.017-1.018s-1.019,0.456-1.019,1.018s0.457,1.018,1.019,1.018
			S27.879-50.39,27.879-50.951"/>
		<path fill="#2EBDEF" d="M43.998-4.633c0-0.561-0.457-1.018-1.019-1.018s-1.017,0.457-1.017,1.018c0,0.562,0.455,1.021,1.017,1.021
			S43.998-4.07,43.998-4.633"/>
		<path fill="#2EBDEF" d="M27.879-41.688c0-0.561-0.455-1.018-1.017-1.018s-1.019,0.457-1.019,1.018
			c0,0.562,0.457,1.021,1.019,1.021S27.879-41.125,27.879-41.688"/>
		<path fill="#2EBDEF" d="M27.879-74.109c0-0.021,0-0.043-0.002-0.062h-2.031c0,0.019-0.003,0.04-0.003,0.062
			c0,0.562,0.457,1.018,1.019,1.018S27.879-73.548,27.879-74.109"/>
		<path fill="#2EBDEF" d="M27.879-60.215c0-0.562-0.455-1.018-1.017-1.018s-1.019,0.455-1.019,1.018
			c0,0.562,0.457,1.018,1.019,1.018S27.879-59.653,27.879-60.215"/>
		<path fill="#2EBDEF" d="M27.879-64.846c0-0.562-0.455-1.018-1.017-1.018s-1.019,0.456-1.019,1.018
			c0,0.561,0.457,1.018,1.019,1.018S27.879-64.285,27.879-64.846"/>
		<path fill="#2EBDEF" d="M27.879-69.479c0-0.562-0.455-1.018-1.017-1.018s-1.019,0.456-1.019,1.018
			c0,0.564,0.457,1.018,1.019,1.018S27.879-68.914,27.879-69.479"/>
		<path fill="#2EBDEF" d="M43.998-18.527c0-0.562-0.457-1.021-1.019-1.021s-1.017,0.458-1.017,1.021
			c0,0.562,0.455,1.018,1.017,1.018S43.998-17.966,43.998-18.527"/>
		<path fill="#2EBDEF" d="M43.998-69.479c0-0.562-0.457-1.018-1.019-1.018s-1.017,0.456-1.017,1.018
			c0,0.564,0.455,1.018,1.017,1.018S43.998-68.914,43.998-69.479"/>
		<path fill="#2EBDEF" d="M43.998-55.582c0-0.562-0.457-1.018-1.019-1.018s-1.017,0.455-1.017,1.018
			c0,0.562,0.455,1.018,1.017,1.018S43.998-55.021,43.998-55.582"/>
		<path fill="#2EBDEF" d="M43.998-60.215c0-0.562-0.457-1.018-1.019-1.018s-1.017,0.455-1.017,1.018
			c0,0.562,0.455,1.018,1.017,1.018S43.998-59.653,43.998-60.215"/>
		<path fill="#2EBDEF" d="M38.625-13.895c0-0.562-0.456-1.021-1.018-1.021s-1.017,0.458-1.017,1.021
			c0,0.561,0.455,1.018,1.017,1.018S38.625-13.334,38.625-13.895"/>
		<path fill="#2EBDEF" d="M38.625-9.266c0-0.561-0.456-1.018-1.018-1.018s-1.017,0.457-1.017,1.018c0,0.564,0.455,1.021,1.017,1.021
			S38.625-8.701,38.625-9.266"/>
		<path fill="#2EBDEF" d="M38.625-4.633c0-0.561-0.456-1.018-1.018-1.018s-1.017,0.457-1.017,1.018c0,0.562,0.455,1.021,1.017,1.021
			S38.625-4.07,38.625-4.633"/>
		<path fill="#2EBDEF" d="M43.998-46.318c0-0.562-0.457-1.02-1.019-1.02s-1.017,0.457-1.017,1.02c0,0.562,0.455,1.018,1.017,1.018
			S43.998-45.757,43.998-46.318"/>
		<path fill="#2EBDEF" d="M43.998-74.109c0-0.021-0.002-0.043-0.004-0.062h-2.029c-0.002,0.019-0.003,0.04-0.003,0.062
			c0,0.562,0.455,1.018,1.017,1.018S43.998-73.548,43.998-74.109"/>
		<path fill="#2EBDEF" d="M43.998-64.846c0-0.562-0.457-1.018-1.019-1.018s-1.017,0.456-1.017,1.018
			c0,0.561,0.455,1.018,1.017,1.018S43.998-64.285,43.998-64.846"/>
		<path fill="#2EBDEF" d="M43.998-50.951c0-0.562-0.457-1.018-1.019-1.018s-1.017,0.456-1.017,1.018s0.455,1.018,1.017,1.018
			S43.998-50.39,43.998-50.951"/>
		<path fill="#2EBDEF" d="M43.998-13.895c0-0.562-0.457-1.021-1.019-1.021s-1.017,0.458-1.017,1.021
			c0,0.561,0.455,1.018,1.017,1.018S43.998-13.334,43.998-13.895"/>
		<path fill="#2EBDEF" d="M43.998-41.688c0-0.561-0.457-1.018-1.019-1.018s-1.017,0.457-1.017,1.018
			c0,0.562,0.455,1.021,1.017,1.021S43.998-41.125,43.998-41.688"/>
		<path fill="#2EBDEF" d="M22.508-41.688c0-0.561-0.456-1.018-1.018-1.018c-0.563,0-1.019,0.457-1.019,1.018
			c0,0.562,0.456,1.021,1.019,1.021C22.052-40.667,22.508-41.125,22.508-41.688"/>
		<path fill="#2EBDEF" d="M43.998-9.266c0-0.561-0.457-1.018-1.019-1.018s-1.017,0.457-1.017,1.018c0,0.564,0.455,1.021,1.017,1.021
			S43.998-8.701,43.998-9.266"/>
		<path fill="#2EBDEF" d="M43.998-23.158c0-0.564-0.457-1.02-1.019-1.02s-1.017,0.455-1.017,1.02c0,0.561,0.455,1.016,1.017,1.016
			S43.998-22.598,43.998-23.158"/>
		<path fill="#2EBDEF" d="M43.998-27.791c0-0.562-0.457-1.02-1.019-1.02s-1.017,0.458-1.017,1.02c0,0.562,0.455,1.018,1.017,1.018
			S43.998-27.229,43.998-27.791"/>
		<path fill="#2EBDEF" d="M43.998-37.055c0-0.564-0.457-1.02-1.019-1.02s-1.017,0.455-1.017,1.02c0,0.562,0.455,1.018,1.017,1.018
			S43.998-36.493,43.998-37.055"/>
		<path fill="#2EBDEF" d="M43.998-32.424c0-0.562-0.457-1.018-1.019-1.018s-1.017,0.455-1.017,1.018
			c0,0.562,0.455,1.018,1.017,1.018S43.998-31.862,43.998-32.424"/>
		<path fill="#2EBDEF" d="M38.625-74.109c0-0.021-0.001-0.043-0.003-0.062h-2.029c-0.002,0.019-0.003,0.04-0.003,0.062
			c0,0.562,0.455,1.018,1.017,1.018S38.625-73.548,38.625-74.109"/>
		<path fill="#2EBDEF" d="M38.625-64.846c0-0.562-0.456-1.018-1.018-1.018s-1.017,0.456-1.017,1.018
			c0,0.561,0.455,1.018,1.017,1.018S38.625-64.285,38.625-64.846"/>
		<path fill="#2EBDEF" d="M33.253-4.633c0-0.561-0.457-1.018-1.018-1.018c-0.564,0-1.019,0.457-1.019,1.018
			c0,0.562,0.455,1.021,1.019,1.021C32.796-3.612,33.253-4.07,33.253-4.633"/>
		<path fill="#2EBDEF" d="M33.253-23.158c0-0.564-0.457-1.02-1.018-1.02c-0.564,0-1.019,0.455-1.019,1.02
			c0,0.561,0.455,1.016,1.019,1.016C32.796-22.143,33.253-22.598,33.253-23.158"/>
		<path fill="#2EBDEF" d="M38.625-60.215c0-0.562-0.456-1.018-1.018-1.018s-1.017,0.455-1.017,1.018
			c0,0.562,0.455,1.018,1.017,1.018S38.625-59.653,38.625-60.215"/>
		<path fill="#2EBDEF" d="M38.625-69.479c0-0.562-0.456-1.018-1.018-1.018s-1.017,0.456-1.017,1.018
			c0,0.564,0.455,1.018,1.017,1.018S38.625-68.914,38.625-69.479"/>
		<path fill="#2EBDEF" d="M33.253-18.527c0-0.562-0.457-1.021-1.018-1.021c-0.564,0-1.019,0.458-1.019,1.021
			c0,0.562,0.455,1.018,1.019,1.018C32.796-17.51,33.253-17.966,33.253-18.527"/>
		<path fill="#2EBDEF" d="M33.253-9.266c0-0.561-0.457-1.018-1.018-1.018c-0.564,0-1.019,0.457-1.019,1.018
			c0,0.564,0.455,1.021,1.019,1.021C32.796-8.245,33.253-8.701,33.253-9.266"/>
		<path fill="#2EBDEF" d="M33.253-13.895c0-0.562-0.457-1.021-1.018-1.021c-0.564,0-1.019,0.458-1.019,1.021
			c0,0.561,0.455,1.018,1.019,1.018C32.796-12.877,33.253-13.334,33.253-13.895"/>
		<path fill="#2EBDEF" d="M38.625-18.527c0-0.562-0.456-1.021-1.018-1.021s-1.017,0.458-1.017,1.021
			c0,0.562,0.455,1.018,1.017,1.018S38.625-17.966,38.625-18.527"/>
		<path fill="#2EBDEF" d="M38.625-32.424c0-0.562-0.456-1.018-1.018-1.018s-1.017,0.455-1.017,1.018
			c0,0.562,0.455,1.018,1.017,1.018S38.625-31.862,38.625-32.424"/>
		<path fill="#2EBDEF" d="M38.625-27.791c0-0.562-0.456-1.02-1.018-1.02s-1.017,0.458-1.017,1.02c0,0.562,0.455,1.018,1.017,1.018
			S38.625-27.229,38.625-27.791"/>
		<path fill="#2EBDEF" d="M38.625-37.055c0-0.564-0.456-1.02-1.018-1.02s-1.017,0.455-1.017,1.02c0,0.562,0.455,1.018,1.017,1.018
			S38.625-36.493,38.625-37.055"/>
		<path fill="#2EBDEF" d="M38.625-23.158c0-0.564-0.456-1.02-1.018-1.02s-1.017,0.455-1.017,1.02c0,0.561,0.455,1.016,1.017,1.016
			S38.625-22.598,38.625-23.158"/>
		<path fill="#2EBDEF" d="M38.625-41.688c0-0.561-0.456-1.018-1.018-1.018s-1.017,0.457-1.017,1.018
			c0,0.562,0.455,1.021,1.017,1.021S38.625-41.125,38.625-41.688"/>
		<path fill="#2EBDEF" d="M38.625-50.951c0-0.562-0.456-1.018-1.018-1.018s-1.017,0.456-1.017,1.018s0.455,1.018,1.017,1.018
			S38.625-50.39,38.625-50.951"/>
		<path fill="#2EBDEF" d="M38.625-55.582c0-0.562-0.456-1.018-1.018-1.018s-1.017,0.455-1.017,1.018
			c0,0.562,0.455,1.018,1.017,1.018S38.625-55.021,38.625-55.582"/>
		<path fill="#2EBDEF" d="M38.625-46.318c0-0.562-0.456-1.02-1.018-1.02s-1.017,0.457-1.017,1.02c0,0.562,0.455,1.018,1.017,1.018
			S38.625-45.757,38.625-46.318"/>
		<path fill="#2EBDEF" d="M27.879-46.318c0-0.562-0.455-1.02-1.017-1.02s-1.019,0.457-1.019,1.02c0,0.562,0.457,1.018,1.019,1.018
			S27.879-45.757,27.879-46.318"/>
		<path fill="#2EBDEF" d="M6.39-46.318c0-0.562-0.456-1.02-1.018-1.02c-0.561,0-1.017,0.457-1.017,1.02
			c0,0.562,0.456,1.018,1.017,1.018C5.934-45.301,6.39-45.757,6.39-46.318"/>
		<path fill="#2EBDEF" d="M6.39-50.951c0-0.562-0.456-1.018-1.018-1.018c-0.561,0-1.017,0.456-1.017,1.018s0.456,1.018,1.017,1.018
			C5.934-49.934,6.39-50.39,6.39-50.951"/>
		<path fill="#2EBDEF" d="M6.39-41.688c0-0.561-0.456-1.018-1.018-1.018c-0.561,0-1.017,0.457-1.017,1.018
			c0,0.562,0.456,1.021,1.017,1.021C5.934-40.667,6.39-41.125,6.39-41.688"/>
		<path fill="#2EBDEF" d="M6.39-37.055c0-0.564-0.456-1.02-1.018-1.02c-0.561,0-1.017,0.455-1.017,1.02
			c0,0.562,0.456,1.018,1.017,1.018C5.934-36.037,6.39-36.493,6.39-37.055"/>
		<path fill="#2EBDEF" d="M6.39-55.582c0-0.562-0.456-1.018-1.018-1.018c-0.561,0-1.017,0.455-1.017,1.018
			c0,0.562,0.456,1.018,1.017,1.018C5.934-54.564,6.39-55.021,6.39-55.582"/>
		<path fill="#2EBDEF" d="M6.39-32.424c0-0.562-0.456-1.018-1.018-1.018c-0.561,0-1.017,0.455-1.017,1.018
			c0,0.562,0.456,1.018,1.017,1.018C5.934-31.406,6.39-31.862,6.39-32.424"/>
		<path fill="#2EBDEF" d="M6.39-64.846c0-0.562-0.456-1.018-1.018-1.018c-0.561,0-1.017,0.456-1.017,1.018
			c0,0.561,0.456,1.018,1.017,1.018C5.934-63.828,6.39-64.285,6.39-64.846"/>
		<path fill="#2EBDEF" d="M6.39-60.215c0-0.562-0.456-1.018-1.018-1.018c-0.561,0-1.017,0.455-1.017,1.018
			c0,0.562,0.456,1.018,1.017,1.018C5.934-59.197,6.39-59.653,6.39-60.215"/>
		<path fill="#2EBDEF" d="M6.39-69.479c0-0.562-0.456-1.018-1.018-1.018c-0.561,0-1.017,0.456-1.017,1.018
			c0,0.564,0.456,1.018,1.017,1.018C5.934-68.461,6.39-68.914,6.39-69.479"/>
		<path fill="#2EBDEF" d="M11.764-74.109c0-0.021-0.003-0.043-0.003-0.062H9.73c-0.002,0.019-0.003,0.04-0.003,0.062
			c0,0.562,0.455,1.018,1.017,1.018C11.308-73.092,11.764-73.548,11.764-74.109"/>
		<path fill="#2EBDEF" d="M6.39-9.266c0-0.561-0.456-1.018-1.018-1.018c-0.561,0-1.017,0.457-1.017,1.018
			c0,0.564,0.456,1.021,1.017,1.021C5.934-8.245,6.39-8.701,6.39-9.266"/>
		<path fill="#2EBDEF" d="M6.39-4.633c0-0.561-0.456-1.018-1.018-1.018c-0.561,0-1.017,0.457-1.017,1.018
			c0,0.562,0.456,1.021,1.017,1.021C5.934-3.612,6.39-4.07,6.39-4.633"/>
		<path fill="#2EBDEF" d="M11.764-64.846c0-0.562-0.456-1.018-1.02-1.018c-0.562,0-1.017,0.456-1.017,1.018
			c0,0.561,0.455,1.018,1.017,1.018C11.308-63.828,11.764-64.285,11.764-64.846"/>
		<path fill="#2EBDEF" d="M6.39-13.895c0-0.562-0.456-1.021-1.018-1.021c-0.561,0-1.017,0.458-1.017,1.021
			c0,0.561,0.456,1.018,1.017,1.018C5.934-12.877,6.39-13.334,6.39-13.895"/>
		<path fill="#2EBDEF" d="M6.39-27.791c0-0.562-0.456-1.02-1.018-1.02c-0.561,0-1.017,0.458-1.017,1.02
			c0,0.562,0.456,1.018,1.017,1.018C5.934-26.773,6.39-27.229,6.39-27.791"/>
		<path fill="#2EBDEF" d="M6.39-23.158c0-0.564-0.456-1.02-1.018-1.02c-0.561,0-1.017,0.455-1.017,1.02
			c0,0.561,0.456,1.016,1.017,1.016C5.934-22.143,6.39-22.598,6.39-23.158"/>
		<path fill="#2EBDEF" d="M6.39-18.527c0-0.562-0.456-1.021-1.018-1.021c-0.561,0-1.017,0.458-1.017,1.021
			c0,0.562,0.456,1.018,1.017,1.018C5.934-17.51,6.39-17.966,6.39-18.527"/>
		<path fill="#2EBDEF" d="M1.019-32.424c0-0.562-0.457-1.018-1.019-1.018v2.035C0.562-31.406,1.019-31.862,1.019-32.424"/>
		<path fill="#2EBDEF" d="M1.019-37.055c0-0.564-0.457-1.02-1.019-1.02v2.037C0.562-36.037,1.019-36.493,1.019-37.055"/>
		<path fill="#2EBDEF" d="M1.019-50.951c0-0.562-0.457-1.018-1.019-1.018v2.035C0.562-49.934,1.019-50.39,1.019-50.951"/>
		<path fill="#2EBDEF" d="M1.019-55.582C1.019-56.145,0.562-56.6,0-56.6v2.035C0.562-54.564,1.019-55.021,1.019-55.582"/>
		<path fill="#2EBDEF" d="M22.508-46.318c0-0.562-0.456-1.02-1.018-1.02c-0.563,0-1.019,0.457-1.019,1.02
			c0,0.562,0.456,1.018,1.019,1.018C22.052-45.301,22.508-45.757,22.508-46.318"/>
		<path fill="#2EBDEF" d="M1.019-46.318c0-0.562-0.457-1.02-1.019-1.02v2.037C0.562-45.301,1.019-45.757,1.019-46.318"/>
		<path fill="#2EBDEF" d="M6.39-74.109c0-0.021-0.001-0.043-0.003-0.062H4.358c-0.002,0.019-0.003,0.04-0.003,0.062
			c0,0.562,0.456,1.018,1.017,1.018C5.934-73.092,6.39-73.548,6.39-74.109"/>
		<path fill="#2EBDEF" d="M1.019-64.846c0-0.562-0.457-1.018-1.019-1.018v2.035C0.562-63.828,1.019-64.285,1.019-64.846"/>
		<path fill="#2EBDEF" d="M1.019-60.215c0-0.562-0.457-1.018-1.019-1.018v2.035C0.562-59.197,1.019-59.653,1.019-60.215"/>
		<path fill="#2EBDEF" d="M1.019-69.479c0-0.562-0.457-1.018-1.019-1.018v2.035C0.562-68.461,1.019-68.914,1.019-69.479"/>
		<path fill="#2EBDEF" d="M11.764-69.479c0-0.562-0.456-1.018-1.02-1.018c-0.562,0-1.017,0.456-1.017,1.018
			c0,0.564,0.455,1.018,1.017,1.018C11.308-68.461,11.764-68.914,11.764-69.479"/>
		<path fill="#2EBDEF" d="M1.019-13.895c0-0.562-0.457-1.021-1.019-1.021v2.038C0.562-12.877,1.019-13.334,1.019-13.895"/>
		<path fill="#2EBDEF" d="M1.019-4.633C1.019-5.193,0.562-5.65,0-5.65v2.038C0.562-3.612,1.019-4.07,1.019-4.633"/>
		<path fill="#2EBDEF" d="M1.019-74.109c0-0.021-0.002-0.043-0.004-0.062H0v1.079C0.562-73.092,1.019-73.548,1.019-74.109"/>
		<path fill="#2EBDEF" d="M1.019-9.266c0-0.561-0.457-1.018-1.019-1.018v2.038C0.562-8.245,1.019-8.701,1.019-9.266"/>
		<path fill="#2EBDEF" d="M1.019-27.791c0-0.562-0.457-1.02-1.019-1.02v2.037C0.562-26.773,1.019-27.229,1.019-27.791"/>
		<path fill="#2EBDEF" d="M1.019-18.527c0-0.562-0.457-1.021-1.019-1.021v2.038C0.562-17.51,1.019-17.966,1.019-18.527"/>
		<path fill="#2EBDEF" d="M1.019-23.158c0-0.564-0.457-1.02-1.019-1.02v2.035C0.562-22.143,1.019-22.598,1.019-23.158"/>
		<path fill="#2EBDEF" d="M1.019-41.688c0-0.561-0.457-1.018-1.019-1.018v2.038C0.562-40.667,1.019-41.125,1.019-41.688"/>
		<path fill="#2EBDEF" d="M17.135-50.951c0-0.562-0.455-1.018-1.019-1.018c-0.561,0-1.017,0.456-1.017,1.018
			s0.456,1.018,1.017,1.018C16.68-49.934,17.135-50.39,17.135-50.951"/>
		<path fill="#2EBDEF" d="M17.135-23.158c0-0.564-0.455-1.02-1.019-1.02c-0.561,0-1.017,0.455-1.017,1.02
			c0,0.561,0.456,1.016,1.017,1.016C16.68-22.143,17.135-22.598,17.135-23.158"/>
		<path fill="#2EBDEF" d="M17.135-32.424c0-0.562-0.455-1.018-1.019-1.018c-0.561,0-1.017,0.455-1.017,1.018
			c0,0.562,0.456,1.018,1.017,1.018C16.68-31.406,17.135-31.862,17.135-32.424"/>
		<path fill="#2EBDEF" d="M17.135-18.527c0-0.562-0.455-1.021-1.019-1.021c-0.561,0-1.017,0.458-1.017,1.021
			c0,0.562,0.456,1.018,1.017,1.018C16.68-17.51,17.135-17.966,17.135-18.527"/>
		<path fill="#2EBDEF" d="M17.135-37.055c0-0.564-0.455-1.02-1.019-1.02c-0.561,0-1.017,0.455-1.017,1.02
			c0,0.562,0.456,1.018,1.017,1.018C16.68-36.037,17.135-36.493,17.135-37.055"/>
		<path fill="#2EBDEF" d="M17.135-46.318c0-0.562-0.455-1.02-1.019-1.02c-0.561,0-1.017,0.457-1.017,1.02
			c0,0.562,0.456,1.018,1.017,1.018C16.68-45.301,17.135-45.757,17.135-46.318"/>
		<path fill="#2EBDEF" d="M17.135-13.895c0-0.562-0.455-1.021-1.019-1.021c-0.561,0-1.017,0.458-1.017,1.021
			c0,0.561,0.456,1.018,1.017,1.018C16.68-12.877,17.135-13.334,17.135-13.895"/>
		<path fill="#2EBDEF" d="M17.135-41.688c0-0.561-0.455-1.018-1.019-1.018c-0.561,0-1.017,0.457-1.017,1.018
			c0,0.562,0.456,1.021,1.017,1.021C16.68-40.667,17.135-41.125,17.135-41.688"/>
		<path fill="#2EBDEF" d="M17.135-27.791c0-0.562-0.455-1.02-1.019-1.02c-0.561,0-1.017,0.458-1.017,1.02
			c0,0.562,0.456,1.018,1.017,1.018C16.68-26.773,17.135-27.229,17.135-27.791"/>
		<path fill="#2EBDEF" d="M22.508-55.582c0-0.562-0.456-1.018-1.018-1.018c-0.563,0-1.019,0.455-1.019,1.018
			c0,0.562,0.456,1.018,1.019,1.018C22.052-54.564,22.508-55.021,22.508-55.582"/>
		<path fill="#2EBDEF" d="M17.135-9.266c0-0.561-0.455-1.018-1.019-1.018c-0.561,0-1.017,0.457-1.017,1.018
			c0,0.564,0.456,1.021,1.017,1.021C16.68-8.245,17.135-8.701,17.135-9.266"/>
		<path fill="#2EBDEF" d="M22.508-69.479c0-0.562-0.456-1.018-1.018-1.018c-0.563,0-1.019,0.456-1.019,1.018
			c0,0.564,0.456,1.018,1.019,1.018C22.052-68.461,22.508-68.914,22.508-69.479"/>
		<path fill="#2EBDEF" d="M22.508-50.951c0-0.562-0.456-1.018-1.018-1.018c-0.563,0-1.019,0.456-1.019,1.018
			s0.456,1.018,1.019,1.018C22.052-49.934,22.508-50.39,22.508-50.951"/>
		<path fill="#2EBDEF" d="M22.508-60.215c0-0.562-0.456-1.018-1.018-1.018c-0.563,0-1.019,0.455-1.019,1.018
			c0,0.562,0.456,1.018,1.019,1.018C22.052-59.197,22.508-59.653,22.508-60.215"/>
		<path fill="#2EBDEF" d="M17.135-4.633c0-0.561-0.455-1.018-1.019-1.018c-0.561,0-1.017,0.457-1.017,1.018
			c0,0.562,0.456,1.021,1.017,1.021C16.68-3.612,17.135-4.07,17.135-4.633"/>
		<path fill="#2EBDEF" d="M22.508-74.109c0-0.021-0.003-0.043-0.003-0.062h-2.031c-0.002,0.019-0.003,0.04-0.003,0.062
			c0,0.562,0.456,1.018,1.019,1.018C22.052-73.092,22.508-73.548,22.508-74.109"/>
		<path fill="#2EBDEF" d="M22.508-64.846c0-0.562-0.456-1.018-1.018-1.018c-0.563,0-1.019,0.456-1.019,1.018
			c0,0.561,0.456,1.018,1.019,1.018C22.052-63.828,22.508-64.285,22.508-64.846"/>
		<path fill="#2EBDEF" d="M11.764-4.633c0-0.561-0.456-1.018-1.02-1.018c-0.562,0-1.017,0.457-1.017,1.018
			c0,0.562,0.455,1.021,1.017,1.021C11.308-3.612,11.764-4.07,11.764-4.633"/>
		<path fill="#2EBDEF" d="M11.764-37.055c0-0.564-0.456-1.02-1.02-1.02c-0.562,0-1.017,0.455-1.017,1.02
			c0,0.562,0.455,1.018,1.017,1.018C11.308-36.037,11.764-36.493,11.764-37.055"/>
		<path fill="#2EBDEF" d="M17.135-55.582c0-0.562-0.455-1.018-1.019-1.018c-0.561,0-1.017,0.455-1.017,1.018
			c0,0.562,0.456,1.018,1.017,1.018C16.68-54.564,17.135-55.021,17.135-55.582"/>
		<path fill="#2EBDEF" d="M11.764-41.688c0-0.561-0.456-1.018-1.02-1.018c-0.562,0-1.017,0.457-1.017,1.018
			c0,0.562,0.455,1.021,1.017,1.021C11.308-40.667,11.764-41.125,11.764-41.688"/>
		<path fill="#2EBDEF" d="M11.764-23.158c0-0.564-0.456-1.02-1.02-1.02c-0.562,0-1.017,0.455-1.017,1.02
			c0,0.561,0.455,1.016,1.017,1.016C11.308-22.143,11.764-22.598,11.764-23.158"/>
		<path fill="#2EBDEF" d="M11.764-27.791c0-0.562-0.456-1.02-1.02-1.02c-0.562,0-1.017,0.458-1.017,1.02
			c0,0.562,0.455,1.018,1.017,1.018C11.308-26.773,11.764-27.229,11.764-27.791"/>
		<path fill="#2EBDEF" d="M11.764-55.582c0-0.562-0.456-1.018-1.02-1.018c-0.562,0-1.017,0.455-1.017,1.018
			c0,0.562,0.455,1.018,1.017,1.018C11.308-54.564,11.764-55.021,11.764-55.582"/>
		<path fill="#2EBDEF" d="M11.764-46.318c0-0.562-0.456-1.02-1.02-1.02c-0.562,0-1.017,0.457-1.017,1.02
			c0,0.562,0.455,1.018,1.017,1.018C11.308-45.301,11.764-45.757,11.764-46.318"/>
		<path fill="#2EBDEF" d="M11.764-50.951c0-0.562-0.456-1.018-1.02-1.018c-0.562,0-1.017,0.456-1.017,1.018s0.455,1.018,1.017,1.018
			C11.308-49.934,11.764-50.39,11.764-50.951"/>
		<path fill="#2EBDEF" d="M11.764-32.424c0-0.562-0.456-1.018-1.02-1.018c-0.562,0-1.017,0.455-1.017,1.018
			c0,0.562,0.455,1.018,1.017,1.018C11.308-31.406,11.764-31.862,11.764-32.424"/>
		<path fill="#2EBDEF" d="M17.135-64.846c0-0.562-0.455-1.018-1.019-1.018c-0.561,0-1.017,0.456-1.017,1.018
			c0,0.561,0.456,1.018,1.017,1.018C16.68-63.828,17.135-64.285,17.135-64.846"/>
		<path fill="#2EBDEF" d="M11.764-18.527c0-0.562-0.456-1.021-1.02-1.021c-0.562,0-1.017,0.458-1.017,1.021
			c0,0.562,0.455,1.018,1.017,1.018C11.308-17.51,11.764-17.966,11.764-18.527"/>
		<path fill="#2EBDEF" d="M17.135-69.479c0-0.562-0.455-1.018-1.019-1.018c-0.561,0-1.017,0.456-1.017,1.018
			c0,0.564,0.456,1.018,1.017,1.018C16.68-68.461,17.135-68.914,17.135-69.479"/>
		<path fill="#2EBDEF" d="M17.135-60.215c0-0.562-0.455-1.018-1.019-1.018c-0.561,0-1.017,0.455-1.017,1.018
			c0,0.562,0.456,1.018,1.017,1.018C16.68-59.197,17.135-59.653,17.135-60.215"/>
		<path fill="#2EBDEF" d="M17.135-74.109c0-0.021-0.002-0.043-0.003-0.062h-2.03c0,0.019-0.003,0.04-0.003,0.062
			c0,0.562,0.456,1.018,1.017,1.018C16.68-73.092,17.135-73.548,17.135-74.109"/>
		<path fill="#2EBDEF" d="M11.764-13.895c0-0.562-0.456-1.021-1.02-1.021c-0.562,0-1.017,0.458-1.017,1.021
			c0,0.561,0.455,1.018,1.017,1.018C11.308-12.877,11.764-13.334,11.764-13.895"/>
		<path fill="#2EBDEF" d="M11.764-9.266c0-0.561-0.456-1.018-1.02-1.018c-0.562,0-1.017,0.457-1.017,1.018
			c0,0.564,0.455,1.021,1.017,1.021C11.308-8.245,11.764-8.701,11.764-9.266"/>
		<path fill="#2EBDEF" d="M11.764-60.215c0-0.562-0.456-1.018-1.02-1.018c-0.562,0-1.017,0.455-1.017,1.018
			c0,0.562,0.455,1.018,1.017,1.018C11.308-59.197,11.764-59.653,11.764-60.215"/>
		<path fill="#2EBDEF" d="M76.232-13.895c0-0.562-0.457-1.021-1.018-1.021c-0.563,0-1.02,0.458-1.02,1.021
			c0,0.561,0.457,1.018,1.02,1.018C75.775-12.877,76.232-13.334,76.232-13.895"/>
		<path fill="#2EBDEF" d="M81.603-69.479c0-0.562-0.456-1.018-1.018-1.018c-0.561,0-1.017,0.456-1.017,1.018
			c0,0.564,0.456,1.018,1.017,1.018C81.147-68.461,81.603-68.914,81.603-69.479"/>
		<path fill="#2EBDEF" d="M81.603-74.109c0-0.021-0.001-0.043-0.002-0.062h-2.03c-0.001,0.019-0.003,0.04-0.003,0.062
			c0,0.562,0.456,1.018,1.017,1.018C81.147-73.092,81.603-73.548,81.603-74.109"/>
		<path fill="#2EBDEF" d="M76.232-27.791c0-0.562-0.457-1.02-1.018-1.02c-0.563,0-1.02,0.458-1.02,1.02
			c0,0.562,0.457,1.018,1.02,1.018C75.775-26.773,76.232-27.229,76.232-27.791"/>
		<path fill="#2EBDEF" d="M81.603-60.215c0-0.562-0.456-1.018-1.018-1.018c-0.561,0-1.017,0.455-1.017,1.018
			c0,0.562,0.456,1.018,1.017,1.018C81.147-59.197,81.603-59.653,81.603-60.215"/>
		<path fill="#2EBDEF" d="M81.603-64.846c0-0.562-0.456-1.018-1.018-1.018c-0.561,0-1.017,0.456-1.017,1.018
			c0,0.561,0.456,1.018,1.017,1.018C81.147-63.828,81.603-64.285,81.603-64.846"/>
		<path fill="#2EBDEF" d="M76.232-18.527c0-0.562-0.457-1.021-1.018-1.021c-0.563,0-1.02,0.458-1.02,1.021
			c0,0.562,0.457,1.018,1.02,1.018C75.775-17.51,76.232-17.966,76.232-18.527"/>
		<path fill="#2EBDEF" d="M76.232-4.633c0-0.561-0.457-1.018-1.018-1.018c-0.563,0-1.02,0.457-1.02,1.018
			c0,0.562,0.457,1.021,1.02,1.021C75.775-3.612,76.232-4.07,76.232-4.633"/>
		<path fill="#2EBDEF" d="M76.232-23.158c0-0.564-0.457-1.02-1.018-1.02c-0.563,0-1.02,0.455-1.02,1.02
			c0,0.561,0.457,1.016,1.02,1.016C75.775-22.143,76.232-22.598,76.232-23.158"/>
		<path fill="#2EBDEF" d="M76.232-9.266c0-0.561-0.457-1.018-1.018-1.018c-0.563,0-1.02,0.457-1.02,1.018
			c0,0.564,0.457,1.021,1.02,1.021C75.775-8.245,76.232-8.701,76.232-9.266"/>
		<path fill="#2EBDEF" d="M81.603-55.582c0-0.562-0.456-1.018-1.018-1.018c-0.561,0-1.017,0.455-1.017,1.018
			c0,0.562,0.456,1.018,1.017,1.018C81.147-54.564,81.603-55.021,81.603-55.582"/>
		<path fill="#2EBDEF" d="M81.603-50.951c0-0.562-0.456-1.018-1.018-1.018c-0.561,0-1.017,0.456-1.017,1.018
			s0.456,1.018,1.017,1.018C81.147-49.934,81.603-50.39,81.603-50.951"/>
		<path fill="#2EBDEF" d="M81.603-32.424c0-0.562-0.456-1.018-1.018-1.018c-0.561,0-1.017,0.455-1.017,1.018
			c0,0.562,0.456,1.018,1.017,1.018C81.147-31.406,81.603-31.862,81.603-32.424"/>
		<path fill="#2EBDEF" d="M81.603-23.158c0-0.564-0.456-1.02-1.018-1.02c-0.561,0-1.017,0.455-1.017,1.02
			c0,0.561,0.456,1.016,1.017,1.016C81.147-22.143,81.603-22.598,81.603-23.158"/>
		<path fill="#2EBDEF" d="M81.603-18.527c0-0.562-0.456-1.021-1.018-1.021c-0.561,0-1.017,0.458-1.017,1.021
			c0,0.562,0.456,1.018,1.017,1.018C81.147-17.51,81.603-17.966,81.603-18.527"/>
		<path fill="#2EBDEF" d="M81.603-27.791c0-0.562-0.456-1.02-1.018-1.02c-0.561,0-1.017,0.458-1.017,1.02
			c0,0.562,0.456,1.018,1.017,1.018C81.147-26.773,81.603-27.229,81.603-27.791"/>
		<path fill="#2EBDEF" d="M81.603-46.318c0-0.562-0.456-1.02-1.018-1.02c-0.561,0-1.017,0.457-1.017,1.02
			c0,0.562,0.456,1.018,1.017,1.018C81.147-45.301,81.603-45.757,81.603-46.318"/>
		<path fill="#2EBDEF" d="M70.859-37.055c0-0.564-0.456-1.02-1.018-1.02s-1.017,0.455-1.017,1.02c0,0.562,0.455,1.018,1.017,1.018
			S70.859-36.493,70.859-37.055"/>
		<path fill="#2EBDEF" d="M81.603-37.055c0-0.564-0.456-1.02-1.018-1.02c-0.561,0-1.017,0.455-1.017,1.02
			c0,0.562,0.456,1.018,1.017,1.018C81.147-36.037,81.603-36.493,81.603-37.055"/>
		<path fill="#2EBDEF" d="M76.232-41.688c0-0.561-0.457-1.018-1.018-1.018c-0.563,0-1.02,0.457-1.02,1.018
			c0,0.562,0.457,1.021,1.02,1.021C75.775-40.667,76.232-41.125,76.232-41.688"/>
		<path fill="#2EBDEF" d="M70.859-18.527c0-0.562-0.456-1.021-1.018-1.021s-1.017,0.458-1.017,1.021
			c0,0.562,0.455,1.018,1.017,1.018S70.859-17.966,70.859-18.527"/>
		<path fill="#2EBDEF" d="M76.232-74.109c0-0.021-0.002-0.043-0.004-0.062h-2.029c-0.002,0.019-0.005,0.04-0.005,0.062
			c0,0.562,0.457,1.018,1.02,1.018C75.775-73.092,76.232-73.548,76.232-74.109"/>
		<path fill="#2EBDEF" d="M70.859-9.266c0-0.561-0.456-1.018-1.018-1.018s-1.017,0.457-1.017,1.018c0,0.564,0.455,1.021,1.017,1.021
			S70.859-8.701,70.859-9.266"/>
		<path fill="#2EBDEF" d="M70.859-4.633c0-0.561-0.456-1.018-1.018-1.018s-1.017,0.457-1.017,1.018c0,0.562,0.455,1.021,1.017,1.021
			S70.859-4.07,70.859-4.633"/>
		<path fill="#2EBDEF" d="M70.859-13.895c0-0.562-0.456-1.021-1.018-1.021s-1.017,0.458-1.017,1.021
			c0,0.561,0.455,1.018,1.017,1.018S70.859-13.334,70.859-13.895"/>
		<path fill="#2EBDEF" d="M70.859-23.158c0-0.564-0.456-1.02-1.018-1.02s-1.017,0.455-1.017,1.02c0,0.561,0.455,1.016,1.017,1.016
			S70.859-22.598,70.859-23.158"/>
		<path fill="#2EBDEF" d="M70.859-32.424c0-0.562-0.456-1.018-1.018-1.018s-1.017,0.455-1.017,1.018
			c0,0.562,0.455,1.018,1.017,1.018S70.859-31.862,70.859-32.424"/>
		<path fill="#2EBDEF" d="M70.859-27.791c0-0.562-0.456-1.02-1.018-1.02s-1.017,0.458-1.017,1.02c0,0.562,0.455,1.018,1.017,1.018
			S70.859-27.229,70.859-27.791"/>
		<path fill="#2EBDEF" d="M76.232-55.582c0-0.562-0.457-1.018-1.018-1.018c-0.563,0-1.02,0.455-1.02,1.018
			c0,0.562,0.457,1.018,1.02,1.018C75.775-54.564,76.232-55.021,76.232-55.582"/>
		<path fill="#2EBDEF" d="M81.603-13.895c0-0.562-0.456-1.021-1.018-1.021c-0.561,0-1.017,0.458-1.017,1.021
			c0,0.561,0.456,1.018,1.017,1.018C81.147-12.877,81.603-13.334,81.603-13.895"/>
		<path fill="#2EBDEF" d="M76.232-46.318c0-0.562-0.457-1.02-1.018-1.02c-0.563,0-1.02,0.457-1.02,1.02
			c0,0.562,0.457,1.018,1.02,1.018C75.775-45.301,76.232-45.757,76.232-46.318"/>
		<path fill="#2EBDEF" d="M76.232-37.055c0-0.564-0.457-1.02-1.018-1.02c-0.563,0-1.02,0.455-1.02,1.02
			c0,0.562,0.457,1.018,1.02,1.018C75.775-36.037,76.232-36.493,76.232-37.055"/>
		<path fill="#2EBDEF" d="M76.232-50.951c0-0.562-0.457-1.018-1.018-1.018c-0.563,0-1.02,0.456-1.02,1.018s0.457,1.018,1.02,1.018
			C75.775-49.934,76.232-50.39,76.232-50.951"/>
		<path fill="#2EBDEF" d="M76.232-60.215c0-0.562-0.457-1.018-1.018-1.018c-0.563,0-1.02,0.455-1.02,1.018
			c0,0.562,0.457,1.018,1.02,1.018C75.775-59.197,76.232-59.653,76.232-60.215"/>
		<path fill="#2EBDEF" d="M76.232-32.424c0-0.562-0.457-1.018-1.018-1.018c-0.563,0-1.02,0.455-1.02,1.018
			c0,0.562,0.457,1.018,1.02,1.018C75.775-31.406,76.232-31.862,76.232-32.424"/>
		<path fill="#2EBDEF" d="M76.232-69.479c0-0.562-0.457-1.018-1.018-1.018c-0.563,0-1.02,0.456-1.02,1.018
			c0,0.564,0.457,1.018,1.02,1.018C75.775-68.461,76.232-68.914,76.232-69.479"/>
		<path fill="#2EBDEF" d="M76.232-64.846c0-0.562-0.457-1.018-1.018-1.018c-0.563,0-1.02,0.456-1.02,1.018
			c0,0.561,0.457,1.018,1.02,1.018C75.775-63.828,76.232-64.285,76.232-64.846"/>
		<path fill="#2EBDEF" d="M81.603-41.688c0-0.561-0.456-1.018-1.018-1.018c-0.561,0-1.017,0.457-1.017,1.018
			c0,0.562,0.456,1.021,1.017,1.021C81.147-40.667,81.603-41.125,81.603-41.688"/>
		<path fill="#2EBDEF" d="M52.706,0h2.036c0-0.562-0.457-1.02-1.018-1.02C53.162-1.02,52.706-0.562,52.706,0"/>
		<path fill="#2EBDEF" d="M63.45,0h2.036c0-0.562-0.455-1.02-1.017-1.02C63.906-1.02,63.45-0.562,63.45,0"/>
		<path fill="#2EBDEF" d="M58.078,0h2.037c0-0.562-0.456-1.02-1.017-1.02C58.535-1.02,58.078-0.562,58.078,0"/>
		<path fill="#2EBDEF" d="M41.961,0h2.036c0-0.562-0.457-1.02-1.018-1.02C42.417-1.02,41.961-0.562,41.961,0"/>
		<path fill="#2EBDEF" d="M49.37-74.109c0-0.021-0.002-0.043-0.003-0.062h-2.03c-0.001,0.019-0.003,0.04-0.003,0.062
			c0,0.562,0.455,1.018,1.018,1.018S49.37-73.548,49.37-74.109"/>
		<path fill="#2EBDEF" d="M79.568,0h2.035c0-0.562-0.456-1.02-1.017-1.02C80.024-1.02,79.568-0.562,79.568,0"/>
		<path fill="#2EBDEF" d="M68.824,0h2.035c0-0.562-0.456-1.02-1.017-1.02C69.279-1.02,68.824-0.562,68.824,0"/>
		<path fill="#2EBDEF" d="M74.194,0h2.038c0-0.562-0.457-1.02-1.018-1.02C74.651-1.02,74.194-0.562,74.194,0"/>
		<path fill="#2EBDEF" d="M47.333,0h2.036c0-0.562-0.455-1.02-1.018-1.02S47.333-0.562,47.333,0"/>
		<path fill="#2EBDEF" d="M4.355,0H6.39c0-0.562-0.456-1.02-1.017-1.02C4.811-1.02,4.355-0.562,4.355,0"/>
		<path fill="#2EBDEF" d="M81.603-9.266c0-0.561-0.456-1.018-1.018-1.018c-0.561,0-1.017,0.457-1.017,1.018
			c0,0.564,0.456,1.021,1.017,1.021C81.147-8.245,81.603-8.701,81.603-9.266"/>
		<path fill="#2EBDEF" d="M9.727,0h2.037c0-0.562-0.456-1.02-1.019-1.02S9.727-0.562,9.727,0"/>
		<path fill="#2EBDEF" d="M0,0H1.02C1.02-0.562,0.562-1.02,0-1.02V0z"/>
		<path fill="#2EBDEF" d="M36.589,0h2.035c0-0.562-0.456-1.02-1.017-1.02C37.044-1.02,36.589-0.562,36.589,0"/>
		<path fill="#2EBDEF" d="M31.216,0h2.037c0-0.562-0.457-1.02-1.018-1.02C31.671-1.02,31.216-0.562,31.216,0"/>
		<path fill="#2EBDEF" d="M20.471,0h2.037c0-0.562-0.456-1.02-1.017-1.02C20.927-1.02,20.471-0.562,20.471,0"/>
		<path fill="#2EBDEF" d="M25.843,0h2.036c0-0.562-0.455-1.02-1.016-1.02C26.3-1.02,25.843-0.562,25.843,0"/>
		<path fill="#2EBDEF" d="M15.099,0h2.036c0-0.562-0.455-1.02-1.018-1.02C15.555-1.02,15.099-0.562,15.099,0"/>
		<path fill="#2EBDEF" d="M85.958-54.564c0.042,0,0.083-0.004,0.124-0.008v-2.021C86.041-56.598,86-56.6,85.958-56.6
			c-0.562,0-1.018,0.455-1.018,1.018S85.396-54.564,85.958-54.564"/>
		<path fill="#2EBDEF" d="M85.958-59.197c0.042,0,0.083-0.002,0.124-0.008v-2.02c-0.041-0.004-0.082-0.008-0.124-0.008
			c-0.562,0-1.018,0.455-1.018,1.018S85.396-59.197,85.958-59.197"/>
		<path fill="#2EBDEF" d="M85.958-45.301c0.042,0,0.083-0.004,0.124-0.008v-2.021c-0.041-0.004-0.082-0.008-0.124-0.008
			c-0.562,0-1.018,0.457-1.018,1.02S85.396-45.301,85.958-45.301"/>
		<path fill="#2EBDEF" d="M85.958-49.934c0.042,0,0.083-0.002,0.124-0.008v-2.02c-0.041-0.004-0.082-0.008-0.124-0.008
			c-0.562,0-1.018,0.455-1.018,1.018S85.396-49.934,85.958-49.934"/>
		<path fill="#2EBDEF" d="M85.958-68.461c0.042,0,0.083-0.002,0.124-0.006v-2.021c-0.041-0.004-0.082-0.008-0.124-0.008
			c-0.562,0-1.018,0.455-1.018,1.018C84.939-68.914,85.396-68.461,85.958-68.461"/>
		<path fill="#2EBDEF" d="M81.603-4.633c0-0.561-0.456-1.018-1.018-1.018c-0.561,0-1.017,0.457-1.017,1.018
			c0,0.562,0.456,1.021,1.017,1.021C81.147-3.612,81.603-4.07,81.603-4.633"/>
		<path fill="#2EBDEF" d="M85.958-63.828c0.042,0,0.083-0.004,0.124-0.008v-2.02c-0.041-0.006-0.082-0.008-0.124-0.008
			c-0.562,0-1.018,0.455-1.018,1.018C84.939-64.285,85.396-63.828,85.958-63.828"/>
		<path fill="#2EBDEF" d="M85.958-73.092c0.042,0,0.083-0.004,0.124-0.008v-1.072h-1.139c-0.002,0.02-0.003,0.041-0.003,0.062
			C84.939-73.547,85.396-73.092,85.958-73.092"/>
		<path fill="#2EBDEF" d="M85.958-22.143c0.042,0,0.083-0.002,0.124-0.008v-2.018c-0.041-0.008-0.082-0.01-0.124-0.01
			c-0.562,0-1.018,0.455-1.018,1.02C84.939-22.598,85.396-22.143,85.958-22.143"/>
		<path fill="#2EBDEF" d="M85.958-12.877c0.042,0,0.083-0.004,0.124-0.01v-2.02c-0.041-0.006-0.082-0.008-0.124-0.008
			c-0.562,0-1.018,0.457-1.018,1.02C84.939-13.334,85.396-12.877,85.958-12.877"/>
		<path fill="#2EBDEF" d="M85.958-40.668c0.042,0,0.083-0.004,0.124-0.01v-2.02c-0.041-0.004-0.082-0.008-0.124-0.008
			c-0.562,0-1.018,0.457-1.018,1.018C84.939-41.125,85.396-40.668,85.958-40.668"/>
		<path fill="#2EBDEF" d="M85.958-17.51c0.042,0,0.083-0.004,0.124-0.008v-2.02c-0.041-0.006-0.082-0.01-0.124-0.01
			c-0.562,0-1.018,0.457-1.018,1.02S85.396-17.51,85.958-17.51"/>
		<path fill="#2EBDEF" d="M85.958-8.246c0.042,0,0.083-0.004,0.124-0.008v-2.02c-0.041-0.006-0.082-0.01-0.124-0.01
			c-0.562,0-1.018,0.457-1.018,1.018C84.939-8.701,85.396-8.246,85.958-8.246"/>
		<path fill="#2EBDEF" d="M85.958-3.613c0.042,0,0.083-0.004,0.124-0.01v-2.02C86.041-5.648,86-5.65,85.958-5.65
			c-0.562,0-1.018,0.457-1.018,1.018C84.939-4.07,85.396-3.613,85.958-3.613"/>
		<path fill="#2EBDEF" d="M85.958-36.037c0.042,0,0.083-0.004,0.124-0.008v-2.021c-0.041-0.004-0.082-0.008-0.124-0.008
			c-0.562,0-1.018,0.455-1.018,1.02C84.939-36.492,85.396-36.037,85.958-36.037"/>
		<path fill="#2EBDEF" d="M85.958-31.406c0.042,0,0.083-0.002,0.124-0.008v-2.02c-0.041-0.006-0.082-0.008-0.124-0.008
			c-0.562,0-1.018,0.455-1.018,1.018S85.396-31.406,85.958-31.406"/>
		<path fill="#2EBDEF" d="M85.958-26.773c0.042,0,0.083-0.002,0.124-0.008v-2.02c-0.041-0.006-0.082-0.01-0.124-0.01
			c-0.562,0-1.018,0.457-1.018,1.02S85.396-26.773,85.958-26.773"/>
		<path fill="#2EBDEF" d="M86.082,0v-1.01C86.041-1.016,86-1.02,85.958-1.02c-0.563,0-1.018,0.458-1.018,1.02H86.082z"/>
		<path fill="#2EBDEF" d="M54.742-41.688c0-0.561-0.457-1.018-1.018-1.018c-0.562,0-1.018,0.457-1.018,1.018
			c0,0.562,0.456,1.021,1.018,1.021C54.285-40.667,54.742-41.125,54.742-41.688"/>
		<path fill="#2EBDEF" d="M54.742-46.318c0-0.562-0.457-1.02-1.018-1.02c-0.562,0-1.018,0.457-1.018,1.02
			c0,0.562,0.456,1.018,1.018,1.018C54.285-45.301,54.742-45.757,54.742-46.318"/>
		<path fill="#2EBDEF" d="M54.742-69.479c0-0.562-0.457-1.018-1.018-1.018c-0.562,0-1.018,0.456-1.018,1.018
			c0,0.564,0.456,1.018,1.018,1.018C54.285-68.461,54.742-68.914,54.742-69.479"/>
		<path fill="#2EBDEF" d="M54.742-32.424c0-0.562-0.457-1.018-1.018-1.018c-0.562,0-1.018,0.455-1.018,1.018
			c0,0.562,0.456,1.018,1.018,1.018C54.285-31.406,54.742-31.862,54.742-32.424"/>
		<path fill="#2EBDEF" d="M54.742-37.055c0-0.564-0.457-1.02-1.018-1.02c-0.562,0-1.018,0.455-1.018,1.02
			c0,0.562,0.456,1.018,1.018,1.018C54.285-36.037,54.742-36.493,54.742-37.055"/>
		<path fill="#2EBDEF" d="M54.742-60.215c0-0.562-0.457-1.018-1.018-1.018c-0.562,0-1.018,0.455-1.018,1.018
			c0,0.562,0.456,1.018,1.018,1.018C54.285-59.197,54.742-59.653,54.742-60.215"/>
		<path fill="#2EBDEF" d="M54.742-55.582c0-0.562-0.457-1.018-1.018-1.018c-0.562,0-1.018,0.455-1.018,1.018
			c0,0.562,0.456,1.018,1.018,1.018C54.285-54.564,54.742-55.021,54.742-55.582"/>
		<path fill="#2EBDEF" d="M54.742-50.951c0-0.562-0.457-1.018-1.018-1.018c-0.562,0-1.018,0.456-1.018,1.018
			s0.456,1.018,1.018,1.018C54.285-49.934,54.742-50.39,54.742-50.951"/>
		<path fill="#2EBDEF" d="M54.742-27.791c0-0.562-0.457-1.02-1.018-1.02c-0.562,0-1.018,0.458-1.018,1.02
			c0,0.562,0.456,1.018,1.018,1.018C54.285-26.773,54.742-27.229,54.742-27.791"/>
		<path fill="#2EBDEF" d="M60.115-60.215c0-0.562-0.456-1.018-1.018-1.018s-1.019,0.455-1.019,1.018
			c0,0.562,0.457,1.018,1.019,1.018S60.115-59.653,60.115-60.215"/>
		<path fill="#2EBDEF" d="M60.115-74.109c0-0.021-0.003-0.043-0.004-0.062h-2.028c-0.003,0.019-0.005,0.04-0.005,0.062
			c0,0.562,0.457,1.018,1.019,1.018S60.115-73.548,60.115-74.109"/>
		<path fill="#2EBDEF" d="M54.742-4.633c0-0.561-0.457-1.018-1.018-1.018c-0.562,0-1.018,0.457-1.018,1.018
			c0,0.562,0.456,1.021,1.018,1.021C54.285-3.612,54.742-4.07,54.742-4.633"/>
		<path fill="#2EBDEF" d="M60.115-69.479c0-0.562-0.456-1.018-1.018-1.018s-1.019,0.456-1.019,1.018
			c0,0.564,0.457,1.018,1.019,1.018S60.115-68.914,60.115-69.479"/>
		<path fill="#2EBDEF" d="M60.115-64.846c0-0.562-0.456-1.018-1.018-1.018s-1.019,0.456-1.019,1.018
			c0,0.561,0.457,1.018,1.019,1.018S60.115-64.285,60.115-64.846"/>
		<path fill="#2EBDEF" d="M54.742-9.266c0-0.561-0.457-1.018-1.018-1.018c-0.562,0-1.018,0.457-1.018,1.018
			c0,0.564,0.456,1.021,1.018,1.021C54.285-8.245,54.742-8.701,54.742-9.266"/>
		<path fill="#2EBDEF" d="M54.742-18.527c0-0.562-0.457-1.021-1.018-1.021c-0.562,0-1.018,0.458-1.018,1.021
			c0,0.562,0.456,1.018,1.018,1.018C54.285-17.51,54.742-17.966,54.742-18.527"/>
		<path fill="#2EBDEF" d="M54.742-13.895c0-0.562-0.457-1.021-1.018-1.021c-0.562,0-1.018,0.458-1.018,1.021
			c0,0.561,0.456,1.018,1.018,1.018C54.285-12.877,54.742-13.334,54.742-13.895"/>
		<path fill="#2EBDEF" d="M54.742-23.158c0-0.564-0.457-1.02-1.018-1.02c-0.562,0-1.018,0.455-1.018,1.02
			c0,0.561,0.456,1.016,1.018,1.016C54.285-22.143,54.742-22.598,54.742-23.158"/>
		<path fill="#2EBDEF" d="M49.37-50.951c0-0.562-0.455-1.018-1.018-1.018s-1.018,0.456-1.018,1.018s0.455,1.018,1.018,1.018
			S49.37-50.39,49.37-50.951"/>
		<path fill="#2EBDEF" d="M49.37-46.318c0-0.562-0.455-1.02-1.018-1.02s-1.018,0.457-1.018,1.02c0,0.562,0.455,1.018,1.018,1.018
			S49.37-45.757,49.37-46.318"/>
		<path fill="#2EBDEF" d="M49.37-55.582c0-0.562-0.455-1.018-1.018-1.018s-1.018,0.455-1.018,1.018c0,0.562,0.455,1.018,1.018,1.018
			S49.37-55.021,49.37-55.582"/>
		<path fill="#2EBDEF" d="M49.37-41.688c0-0.561-0.455-1.018-1.018-1.018s-1.018,0.457-1.018,1.018c0,0.562,0.455,1.021,1.018,1.021
			S49.37-41.125,49.37-41.688"/>
		<path fill="#2EBDEF" d="M49.37-69.479c0-0.562-0.455-1.018-1.018-1.018s-1.018,0.456-1.018,1.018c0,0.564,0.455,1.018,1.018,1.018
			S49.37-68.914,49.37-69.479"/>
		<path fill="#2EBDEF" d="M49.37-64.846c0-0.562-0.455-1.018-1.018-1.018s-1.018,0.456-1.018,1.018c0,0.561,0.455,1.018,1.018,1.018
			S49.37-64.285,49.37-64.846"/>
		<path fill="#2EBDEF" d="M49.37-37.055c0-0.564-0.455-1.02-1.018-1.02s-1.018,0.455-1.018,1.02c0,0.562,0.455,1.018,1.018,1.018
			S49.37-36.493,49.37-37.055"/>
		<path fill="#2EBDEF" d="M49.37-60.215c0-0.562-0.455-1.018-1.018-1.018s-1.018,0.455-1.018,1.018c0,0.562,0.455,1.018,1.018,1.018
			S49.37-59.653,49.37-60.215"/>
		<path fill="#2EBDEF" d="M49.37-27.791c0-0.562-0.455-1.02-1.018-1.02s-1.018,0.458-1.018,1.02c0,0.562,0.455,1.018,1.018,1.018
			S49.37-27.229,49.37-27.791"/>
		<path fill="#2EBDEF" d="M49.37-13.895c0-0.562-0.455-1.021-1.018-1.021s-1.018,0.458-1.018,1.021c0,0.561,0.455,1.018,1.018,1.018
			S49.37-13.334,49.37-13.895"/>
		<path fill="#2EBDEF" d="M49.37-9.266c0-0.561-0.455-1.018-1.018-1.018s-1.018,0.457-1.018,1.018c0,0.564,0.455,1.021,1.018,1.021
			S49.37-8.701,49.37-9.266"/>
		<path fill="#2EBDEF" d="M49.37-4.633c0-0.561-0.455-1.018-1.018-1.018s-1.018,0.457-1.018,1.018c0,0.562,0.455,1.021,1.018,1.021
			S49.37-4.07,49.37-4.633"/>
		<path fill="#2EBDEF" d="M49.37-32.424c0-0.562-0.455-1.018-1.018-1.018s-1.018,0.455-1.018,1.018c0,0.562,0.455,1.018,1.018,1.018
			S49.37-31.862,49.37-32.424"/>
		<path fill="#2EBDEF" d="M54.742-74.109c0-0.021-0.002-0.043-0.004-0.062h-2.029c-0.002,0.019-0.003,0.04-0.003,0.062
			c0,0.562,0.456,1.018,1.018,1.018C54.285-73.092,54.742-73.548,54.742-74.109"/>
		<path fill="#2EBDEF" d="M54.742-64.846c0-0.562-0.457-1.018-1.018-1.018c-0.562,0-1.018,0.456-1.018,1.018
			c0,0.561,0.456,1.018,1.018,1.018C54.285-63.828,54.742-64.285,54.742-64.846"/>
		<path fill="#2EBDEF" d="M49.37-23.158c0-0.564-0.455-1.02-1.018-1.02s-1.018,0.455-1.018,1.02c0,0.561,0.455,1.016,1.018,1.016
			S49.37-22.598,49.37-23.158"/>
		<path fill="#2EBDEF" d="M49.37-18.527c0-0.562-0.455-1.021-1.018-1.021s-1.018,0.458-1.018,1.021c0,0.562,0.455,1.018,1.018,1.018
			S49.37-17.966,49.37-18.527"/>
		<path fill="#2EBDEF" d="M60.115-41.688c0-0.561-0.456-1.018-1.018-1.018s-1.019,0.457-1.019,1.018
			c0,0.562,0.457,1.021,1.019,1.021S60.115-41.125,60.115-41.688"/>
		<path fill="#2EBDEF" d="M65.486-23.158c0-0.564-0.455-1.02-1.018-1.02c-0.562,0-1.018,0.455-1.018,1.02
			c0,0.561,0.456,1.016,1.018,1.016C65.031-22.143,65.486-22.598,65.486-23.158"/>
		<path fill="#2EBDEF" d="M65.486-18.527c0-0.562-0.455-1.021-1.018-1.021c-0.562,0-1.018,0.458-1.018,1.021
			c0,0.562,0.456,1.018,1.018,1.018C65.031-17.51,65.486-17.966,65.486-18.527"/>
		<path fill="#2EBDEF" d="M65.486-27.791c0-0.562-0.455-1.02-1.018-1.02c-0.562,0-1.018,0.458-1.018,1.02
			c0,0.562,0.456,1.018,1.018,1.018C65.031-26.773,65.486-27.229,65.486-27.791"/>
		<path fill="#2EBDEF" d="M65.486-13.895c0-0.562-0.455-1.021-1.018-1.021c-0.562,0-1.018,0.458-1.018,1.021
			c0,0.561,0.456,1.018,1.018,1.018C65.031-12.877,65.486-13.334,65.486-13.895"/>
		<path fill="#2EBDEF" d="M65.486-37.055c0-0.564-0.455-1.02-1.018-1.02c-0.562,0-1.018,0.455-1.018,1.02
			c0,0.562,0.456,1.018,1.018,1.018C65.031-36.037,65.486-36.493,65.486-37.055"/>
		<path fill="#2EBDEF" d="M65.486-41.688c0-0.561-0.455-1.018-1.018-1.018c-0.562,0-1.018,0.457-1.018,1.018
			c0,0.562,0.456,1.021,1.018,1.021C65.031-40.667,65.486-41.125,65.486-41.688"/>
		<path fill="#2EBDEF" d="M65.486-9.266c0-0.561-0.455-1.018-1.018-1.018c-0.562,0-1.018,0.457-1.018,1.018
			c0,0.564,0.456,1.021,1.018,1.021C65.031-8.245,65.486-8.701,65.486-9.266"/>
		<path fill="#2EBDEF" d="M65.486-32.424c0-0.562-0.455-1.018-1.018-1.018c-0.562,0-1.018,0.455-1.018,1.018
			c0,0.562,0.456,1.018,1.018,1.018C65.031-31.406,65.486-31.862,65.486-32.424"/>
		<path fill="#2EBDEF" d="M70.859-55.582c0-0.562-0.456-1.018-1.018-1.018s-1.017,0.455-1.017,1.018
			c0,0.562,0.455,1.018,1.017,1.018S70.859-55.021,70.859-55.582"/>
		<path fill="#2EBDEF" d="M65.486-46.318c0-0.562-0.455-1.02-1.018-1.02c-0.562,0-1.018,0.457-1.018,1.02
			c0,0.562,0.456,1.018,1.018,1.018C65.031-45.301,65.486-45.757,65.486-46.318"/>
		<path fill="#2EBDEF" d="M70.859-50.951c0-0.562-0.456-1.018-1.018-1.018s-1.017,0.456-1.017,1.018s0.455,1.018,1.017,1.018
			S70.859-50.39,70.859-50.951"/>
		<path fill="#2EBDEF" d="M60.115-55.582c0-0.562-0.456-1.018-1.018-1.018s-1.019,0.455-1.019,1.018
			c0,0.562,0.457,1.018,1.019,1.018S60.115-55.021,60.115-55.582"/>
		<path fill="#2EBDEF" d="M65.486-4.633c0-0.561-0.455-1.018-1.018-1.018c-0.562,0-1.018,0.457-1.018,1.018
			c0,0.562,0.456,1.021,1.018,1.021C65.031-3.612,65.486-4.07,65.486-4.633"/>
		<path fill="#2EBDEF" d="M70.859-60.215c0-0.562-0.456-1.018-1.018-1.018s-1.017,0.455-1.017,1.018
			c0,0.562,0.455,1.018,1.017,1.018S70.859-59.653,70.859-60.215"/>
		<path fill="#2EBDEF" d="M70.859-74.109c0-0.021-0.003-0.043-0.003-0.062h-2.029c-0.003,0.019-0.003,0.04-0.003,0.062
			c0,0.562,0.455,1.018,1.017,1.018S70.859-73.548,70.859-74.109"/>
		<path fill="#2EBDEF" d="M70.859-69.479c0-0.562-0.456-1.018-1.018-1.018s-1.017,0.456-1.017,1.018
			c0,0.564,0.455,1.018,1.017,1.018S70.859-68.914,70.859-69.479"/>
		<path fill="#2EBDEF" d="M70.859-64.846c0-0.562-0.456-1.018-1.018-1.018s-1.017,0.456-1.017,1.018
			c0,0.561,0.455,1.018,1.017,1.018S70.859-64.285,70.859-64.846"/>
		<path fill="#2EBDEF" d="M70.859-46.318c0-0.562-0.456-1.02-1.018-1.02s-1.017,0.457-1.017,1.02c0,0.562,0.455,1.018,1.017,1.018
			S70.859-45.757,70.859-46.318"/>
		<path fill="#2EBDEF" d="M60.115-27.791c0-0.562-0.456-1.02-1.018-1.02s-1.019,0.458-1.019,1.02c0,0.562,0.457,1.018,1.019,1.018
			S60.115-27.229,60.115-27.791"/>
		<path fill="#2EBDEF" d="M60.115-18.527c0-0.562-0.456-1.021-1.018-1.021s-1.019,0.458-1.019,1.021
			c0,0.562,0.457,1.018,1.019,1.018S60.115-17.966,60.115-18.527"/>
		<path fill="#2EBDEF" d="M60.115-32.424c0-0.562-0.456-1.018-1.018-1.018s-1.019,0.455-1.019,1.018
			c0,0.562,0.457,1.018,1.019,1.018S60.115-31.862,60.115-32.424"/>
		<path fill="#2EBDEF" d="M60.115-23.158c0-0.564-0.456-1.02-1.018-1.02s-1.019,0.455-1.019,1.02c0,0.561,0.457,1.016,1.019,1.016
			S60.115-22.598,60.115-23.158"/>
		<path fill="#2EBDEF" d="M60.115-37.055c0-0.564-0.456-1.02-1.018-1.02s-1.019,0.455-1.019,1.02c0,0.562,0.457,1.018,1.019,1.018
			S60.115-36.493,60.115-37.055"/>
		<path fill="#2EBDEF" d="M60.115-50.951c0-0.562-0.456-1.018-1.018-1.018s-1.019,0.456-1.019,1.018s0.457,1.018,1.019,1.018
			S60.115-50.39,60.115-50.951"/>
		<path fill="#2EBDEF" d="M60.115-46.318c0-0.562-0.456-1.02-1.018-1.02s-1.019,0.457-1.019,1.02c0,0.562,0.457,1.018,1.019,1.018
			S60.115-45.757,60.115-46.318"/>
		<path fill="#2EBDEF" d="M70.859-41.688c0-0.561-0.456-1.018-1.018-1.018s-1.017,0.457-1.017,1.018
			c0,0.562,0.455,1.021,1.017,1.021S70.859-41.125,70.859-41.688"/>
		<path fill="#2EBDEF" d="M60.115-13.895c0-0.562-0.456-1.021-1.018-1.021s-1.019,0.458-1.019,1.021
			c0,0.561,0.457,1.018,1.019,1.018S60.115-13.334,60.115-13.895"/>
		<path fill="#2EBDEF" d="M65.486-60.215c0-0.562-0.455-1.018-1.018-1.018c-0.562,0-1.018,0.455-1.018,1.018
			c0,0.562,0.456,1.018,1.018,1.018C65.031-59.197,65.486-59.653,65.486-60.215"/>
		<path fill="#2EBDEF" d="M65.486-50.951c0-0.562-0.455-1.018-1.018-1.018c-0.562,0-1.018,0.456-1.018,1.018
			s0.456,1.018,1.018,1.018C65.031-49.934,65.486-50.39,65.486-50.951"/>
		<path fill="#2EBDEF" d="M65.486-69.479c0-0.562-0.455-1.018-1.018-1.018c-0.562,0-1.018,0.456-1.018,1.018
			c0,0.564,0.456,1.018,1.018,1.018C65.031-68.461,65.486-68.914,65.486-69.479"/>
		<path fill="#2EBDEF" d="M65.486-55.582c0-0.562-0.455-1.018-1.018-1.018c-0.562,0-1.018,0.455-1.018,1.018
			c0,0.562,0.456,1.018,1.018,1.018C65.031-54.564,65.486-55.021,65.486-55.582"/>
		<path fill="#2EBDEF" d="M65.486-64.846c0-0.562-0.455-1.018-1.018-1.018c-0.562,0-1.018,0.456-1.018,1.018
			c0,0.561,0.456,1.018,1.018,1.018C65.031-63.828,65.486-64.285,65.486-64.846"/>
		<path fill="#2EBDEF" d="M65.486-74.109c0-0.021-0.002-0.043-0.003-0.062h-2.03c0,0.019-0.003,0.04-0.003,0.062
			c0,0.562,0.456,1.018,1.018,1.018C65.031-73.092,65.486-73.548,65.486-74.109"/>
		<path fill="#2EBDEF" d="M60.115-9.266c0-0.561-0.456-1.018-1.018-1.018s-1.019,0.457-1.019,1.018c0,0.564,0.457,1.021,1.019,1.021
			S60.115-8.701,60.115-9.266"/>
		<path fill="#2EBDEF" d="M60.115-4.633c0-0.561-0.456-1.018-1.018-1.018s-1.019,0.457-1.019,1.018c0,0.562,0.457,1.021,1.019,1.021
			S60.115-4.07,60.115-4.633"/>
	</g>
</pattern>
<polygon fill="#82CFF5" points="605.044,500.531 1094.565,505.016 1105.214,11.719 603.541,21.255 "/>
<pattern  id="SVGID_1_" xlink:href="#Unnamed_Pattern_9" patternTransform="matrix(0.9842 0 0 -1.127 -2691.709 3130.8301)">
</pattern>
<polyline fill="url(#SVGID_1_)" points="602.154,499.052 607.869,334.827 1098.417,332.398 1093.71,501.039 "/>
<g>
	<polygon fill="#0E8CCD" points="991.219,343.758 1066.323,343.758 1066.316,333.702 991.219,333.608 	"/>
	<rect x="1051.083" y="341.592" fill="#0E8CCD" width="8.119" height="46.687"/>
	<rect x="1000.979" y="342.743" fill="#0E8CCD" width="8.119" height="46.687"/>
	<rect x="1039.247" y="328.765" fill="#0E8CCD" width="8.119" height="46.687"/>
	<rect x="990.006" y="327.614" fill="#0E8CCD" width="8.119" height="46.687"/>
	<path fill="#0DA2DD" d="M1068.329,334.277c-1.159,0.279-20.995-9.779-20.995-9.779l-61.55,1.726c0,0,5.576,10.658,6.04,8.341
		C991.854,334.413,1068.912,334.137,1068.329,334.277z"/>
	<polyline fill="#0E8CCD" points="991.824,334.564 993.55,344.056 985.497,337.441 985.784,326.224 991.219,333.608 	"/>
</g>
<g>
	<polygon fill="#0E8CCD" points="986.717,294.716 771.554,289.353 771.554,278.624 986.717,279.294 	"/>
	<path fill="#0E8CCD" d="M800.133,276.801c-1.585,1.137,10.65-0.803,10.65-0.803l1.121,94.754l-9.528-0.803
		C802.376,369.949,801.253,275.999,800.133,276.801z"/>
	<path fill="#0E8CCD" d="M948.87,275.743c-1.585,1.137,10.65-0.803,10.65-0.803l1.121,94.754l-9.528-0.803
		C951.113,368.892,949.99,274.941,948.87,275.743z"/>
	<path fill="#0DA2DD" d="M770.646,278.859l28.878-14.353l171.034,1.866c0,0,17.133,12.983,15.703,13.3
		C984.831,279.99,770.646,278.859,770.646,278.859z"/>
</g>
<g>
	<polygon fill="#0E8CCD" points="743.97,339.116 668.865,339.116 668.872,329.061 743.97,328.967 	"/>
	<rect x="675.986" y="336.95" fill="#0E8CCD" width="8.119" height="46.687"/>
	<rect x="726.091" y="338.102" fill="#0E8CCD" width="8.119" height="46.687"/>
	<rect x="687.822" y="324.123" fill="#0E8CCD" width="8.119" height="46.687"/>
	<rect x="737.063" y="322.973" fill="#0E8CCD" width="8.119" height="46.687"/>
	<path fill="#0DA2DD" d="M666.859,329.636c1.159,0.279,20.995-9.779,20.995-9.779l61.55,1.726c0,0-5.576,10.658-6.04,8.341
		C743.334,329.771,666.276,329.495,666.859,329.636z"/>
	<polyline fill="#0E8CCD" points="743.364,329.923 741.639,339.414 749.691,332.8 749.404,321.582 743.97,328.967 	"/>
</g>
<polygon fill="#0DA2DD" points="1016.542,229.591 724.968,223.472 711.083,68.649 1031.749,65.59 "/>
<g>
	
		<line fill="none" stroke="#82CFF5" stroke-width="0.9069" stroke-miterlimit="10" x1="847.676" y1="168.602" x2="979.913" y2="165.248"/>
	
		<line fill="none" stroke="#82CFF5" stroke-width="0.9069" stroke-miterlimit="10" x1="909.228" y1="191.126" x2="909.076" y2="101.639"/>
	<path fill="none" stroke="#82CFF5" stroke-width="0.9069" stroke-miterlimit="10" d="M869.854,106.886
		c0,0-1.603,60.235,39.229,59.371c40.835-0.866,40.553-64.852,40.553-64.852"/>
	<g>
		<g>
			<path fill="#82CFF5" d="M906.476,162.915c1.725-0.01,3.45-0.02,5.175-0.029c0.585-0.003,0.585-0.911,0-0.907
				c-1.725,0.01-3.45,0.02-5.175,0.029C905.891,162.011,905.891,162.918,906.476,162.915L906.476,162.915z"/>
		</g>
	</g>
	<g>
		<g>
			<path fill="#82CFF5" d="M906.441,156.995c1.725-0.01,3.448-0.02,5.173-0.029c0.585-0.003,0.585-0.911,0-0.907
				c-1.725,0.01-3.448,0.02-5.173,0.029C905.856,156.091,905.856,156.998,906.441,156.995L906.441,156.995z"/>
		</g>
	</g>
	<g>
		<g>
			<path fill="#82CFF5" d="M906.402,150.228c1.725-0.01,3.448-0.02,5.173-0.03c0.585-0.004,0.585-0.911,0-0.907
				c-1.725,0.011-3.448,0.021-5.173,0.03C905.817,149.324,905.817,150.231,906.402,150.228L906.402,150.228z"/>
		</g>
	</g>
	<g>
		<g>
			<path fill="#82CFF5" d="M906.606,143.178c1.724-0.008,3.448-0.018,5.172-0.028c0.585-0.004,0.585-0.911,0-0.907
				c-1.724,0.011-3.448,0.021-5.172,0.028C906.021,142.274,906.021,143.181,906.606,143.178L906.606,143.178z"/>
		</g>
	</g>
	<g>
		<g>
			<path fill="#82CFF5" d="M906.453,137.763c1.725-0.01,3.448-0.02,5.173-0.03c0.585-0.004,0.585-0.911,0-0.907
				c-1.725,0.011-3.448,0.021-5.173,0.03C905.868,136.859,905.868,137.767,906.453,137.763L906.453,137.763z"/>
		</g>
	</g>
	<g>
		<g>
			<path fill="#82CFF5" d="M906.418,131.842c1.725-0.01,3.448-0.021,5.173-0.029c0.585-0.003,0.585-0.91,0-0.907
				c-1.725,0.009-3.448,0.02-5.173,0.029C905.833,130.938,905.833,131.846,906.418,131.842L906.418,131.842z"/>
		</g>
	</g>
	<g>
		<g>
			<path fill="#82CFF5" d="M906.38,125.076c1.724-0.009,3.448-0.02,5.172-0.029c0.585-0.003,0.585-0.911,0-0.907
				c-1.724,0.01-3.448,0.021-5.172,0.029C905.795,124.172,905.795,125.079,906.38,125.076L906.38,125.076z"/>
		</g>
	</g>
	<g>
		<g>
			<path fill="#82CFF5" d="M906.582,118.028c1.725-0.01,3.45-0.021,5.175-0.029c0.585-0.003,0.585-0.91,0-0.907
				c-1.725,0.009-3.45,0.02-5.175,0.029C905.997,117.124,905.997,118.031,906.582,118.028L906.582,118.028z"/>
		</g>
	</g>
	<g>
		<g>
			<path fill="#82CFF5" d="M906.771,192.797c1.725-0.01,3.449-0.021,5.174-0.029c0.585-0.003,0.585-0.91,0-0.907
				c-1.725,0.009-3.449,0.02-5.174,0.029C906.186,191.894,906.186,192.801,906.771,192.797L906.771,192.797z"/>
		</g>
	</g>
	<g>
		<g>
			<path fill="#82CFF5" d="M906.737,186.877c1.724-0.01,3.448-0.021,5.172-0.029c0.585-0.003,0.585-0.91,0-0.907
				c-1.724,0.009-3.448,0.02-5.172,0.029C906.152,185.974,906.152,186.881,906.737,186.877L906.737,186.877z"/>
		</g>
	</g>
	<g>
		<g>
			<path fill="#82CFF5" d="M906.697,180.112c1.725-0.011,3.45-0.021,5.175-0.03c0.585-0.003,0.585-0.91,0-0.907
				c-1.725,0.009-3.45,0.02-5.175,0.03C906.112,179.208,906.112,180.115,906.697,180.112L906.697,180.112z"/>
		</g>
	</g>
	<g>
		<g>
			<path fill="#82CFF5" d="M906.901,173.062c1.725-0.011,3.449-0.02,5.174-0.03c0.585-0.004,0.585-0.911,0-0.907
				c-1.725,0.011-3.449,0.02-5.174,0.03C906.316,172.159,906.316,173.065,906.901,173.062L906.901,173.062z"/>
		</g>
	</g>
	<g>
		<g>
			<path fill="#82CFF5" d="M937.226,168.573c-0.009-1.724-0.018-3.449-0.029-5.173c-0.004-0.584-0.91-0.585-0.906,0
				c0.011,1.724,0.02,3.449,0.029,5.173C936.322,169.158,937.229,169.158,937.226,168.573L937.226,168.573z"/>
		</g>
	</g>
	<g>
		<g>
			<path fill="#82CFF5" d="M931.306,168.609c-0.01-1.725-0.02-3.45-0.03-5.175c-0.003-0.584-0.91-0.585-0.906,0
				c0.011,1.725,0.021,3.45,0.03,5.175C930.402,169.194,931.31,169.194,931.306,168.609L931.306,168.609z"/>
		</g>
	</g>
	<g>
		<g>
			<path fill="#82CFF5" d="M924.541,168.648c-0.01-1.725-0.021-3.45-0.03-5.175c-0.003-0.584-0.909-0.585-0.906,0
				c0.009,1.725,0.021,3.45,0.03,5.175C923.638,169.233,924.545,169.233,924.541,168.648L924.541,168.648z"/>
		</g>
	</g>
	<g>
		<g>
			<path fill="#82CFF5" d="M917.491,168.444c-0.01-1.725-0.02-3.45-0.029-5.175c-0.003-0.584-0.91-0.585-0.906,0
				c0.01,1.725,0.02,3.45,0.029,5.175C916.588,169.029,917.495,169.029,917.491,168.444L917.491,168.444z"/>
		</g>
	</g>
	<g>
		<g>
			<path fill="#82CFF5" d="M963.164,168.303c-0.01-1.725-0.021-3.449-0.031-5.174c-0.003-0.584-0.91-0.585-0.906,0
				c0.01,1.725,0.021,3.449,0.031,5.174C962.261,168.887,963.168,168.888,963.164,168.303L963.164,168.303z"/>
		</g>
	</g>
	<g>
		<g>
			<path fill="#82CFF5" d="M957.243,168.336c-0.011-1.725-0.021-3.449-0.031-5.174c-0.003-0.584-0.91-0.585-0.906,0
				c0.011,1.725,0.021,3.449,0.031,5.174C956.34,168.92,957.247,168.921,957.243,168.336L957.243,168.336z"/>
		</g>
	</g>
	<g>
		<g>
			<path fill="#82CFF5" d="M950.477,168.375c-0.011-1.725-0.021-3.449-0.03-5.174c-0.003-0.584-0.91-0.585-0.906,0
				c0.01,1.725,0.02,3.449,0.03,5.174C949.573,168.959,950.48,168.96,950.477,168.375L950.477,168.375z"/>
		</g>
	</g>
	<g>
		<g>
			<path fill="#82CFF5" d="M943.426,168.172c-0.009-1.724-0.02-3.449-0.029-5.173c-0.003-0.584-0.91-0.585-0.906,0
				c0.01,1.724,0.02,3.449,0.029,5.173C942.522,168.756,943.429,168.757,943.426,168.172L943.426,168.172z"/>
		</g>
	</g>
	<g>
		<g>
			<path fill="#82CFF5" d="M902.69,168.651c-0.009-1.724-0.019-3.449-0.03-5.173c-0.004-0.584-0.91-0.585-0.906,0
				c0.012,1.724,0.021,3.449,0.03,5.173C901.787,169.236,902.693,169.236,902.69,168.651L902.69,168.651z"/>
		</g>
	</g>
	<g>
		<g>
			<path fill="#82CFF5" d="M896.771,168.687c-0.011-1.725-0.021-3.449-0.029-5.174c-0.003-0.584-0.909-0.585-0.906,0
				c0.009,1.725,0.019,3.449,0.029,5.174C895.867,169.271,896.774,169.271,896.771,168.687L896.771,168.687z"/>
		</g>
	</g>
	<g>
		<g>
			<path fill="#82CFF5" d="M890.004,168.726c-0.011-1.725-0.021-3.449-0.03-5.174c-0.003-0.584-0.91-0.585-0.906,0
				c0.01,1.725,0.02,3.449,0.03,5.174C889.101,169.31,890.008,169.311,890.004,168.726L890.004,168.726z"/>
		</g>
	</g>
	<g>
		<g>
			<path fill="#82CFF5" d="M882.954,168.521c-0.01-1.724-0.02-3.448-0.03-5.172c-0.003-0.584-0.91-0.585-0.906,0
				c0.011,1.724,0.021,3.448,0.03,5.172C882.051,169.106,882.958,169.106,882.954,168.521L882.954,168.521z"/>
		</g>
	</g>
	<g>
		<g>
			<path fill="#82CFF5" d="M875.907,168.686c-0.01-1.725-0.021-3.449-0.03-5.174c-0.003-0.584-0.91-0.585-0.906,0
				c0.01,1.725,0.021,3.449,0.03,5.174C875.004,169.27,875.911,169.271,875.907,168.686L875.907,168.686z"/>
		</g>
	</g>
	<g>
		<g>
			<path fill="#82CFF5" d="M869.985,168.719c-0.01-1.725-0.019-3.449-0.028-5.174c-0.003-0.584-0.91-0.585-0.906,0
				c0.01,1.725,0.019,3.449,0.028,5.174C869.082,169.303,869.989,169.304,869.985,168.719L869.985,168.719z"/>
		</g>
	</g>
	<g>
		<g>
			<path fill="#82CFF5" d="M863.22,168.758c-0.01-1.725-0.019-3.449-0.029-5.174c-0.003-0.584-0.91-0.585-0.906,0
				c0.011,1.725,0.02,3.449,0.029,5.174C862.316,169.342,863.224,169.343,863.22,168.758L863.22,168.758z"/>
		</g>
	</g>
	<g>
		<g>
			<path fill="#82CFF5" d="M856.171,168.556c-0.01-1.724-0.02-3.449-0.028-5.173c-0.003-0.584-0.909-0.585-0.906,0
				c0.009,1.724,0.019,3.449,0.028,5.173C855.268,169.14,856.175,169.141,856.171,168.556L856.171,168.556z"/>
		</g>
	</g>
</g>
<g>
	<g>
		<g>
			<path fill="#82CFF5" d="M753.021,123.139c1.161,0.776,1.99,2.699,2.715,3.849c0.454,0.722,1.154,2.55,2.022,2.882
				c0.179,0.068,0.429-0.041,0.513-0.208c0.002-0.005,0.005-0.01,0.007-0.014c0.26-0.522-0.522-0.981-0.783-0.458
				c-0.002,0.005-0.005,0.01-0.007,0.014c0.171-0.069,0.341-0.139,0.512-0.208c0.304,0.116,0.043-0.064-0.071-0.234
				c-0.17-0.254-0.332-0.513-0.495-0.771c-0.5-0.792-0.993-1.588-1.496-2.378c-0.669-1.049-1.393-2.543-2.459-3.256
				C752.99,122.029,752.536,122.815,753.021,123.139L753.021,123.139z"/>
		</g>
	</g>
	<g>
		<g>
			<path fill="#82CFF5" d="M761.302,121.679c-1.418,3.57-3.328,6.947-5.244,10.269c-0.816,1.416-1.659,2.816-2.521,4.206
				c-0.316,0.512-0.823,1.721-1.3,2.042c-0.482,0.325-0.029,1.111,0.457,0.783c0.436-0.293,0.723-0.944,0.996-1.368
				c0.987-1.532,1.919-3.101,2.841-4.672c2.082-3.551,4.123-7.186,5.646-11.019C762.393,121.376,761.516,121.143,761.302,121.679
				L761.302,121.679z"/>
		</g>
	</g>
	<g>
		<g>
			<path fill="#82CFF5" d="M765.544,125.809c1.014,0.004,2.027-0.001,3.041-0.021c0.562-0.011,1.372,0.092,1.896-0.168
				c0.128-0.064,0.241-0.246,0.225-0.392c-0.001-0.004-0.001-0.009-0.002-0.014c-0.065-0.574-0.973-0.581-0.906,0
				c0,0.004,0.001,0.009,0.001,0.014c0.075-0.13,0.15-0.261,0.225-0.392c-0.262,0.131-1.262,0.041-1.668,0.049
				c-0.937,0.019-1.874,0.021-2.811,0.017C764.959,124.899,764.959,125.807,765.544,125.809L765.544,125.809z"/>
		</g>
	</g>
	<g>
		<g>
			<path fill="#82CFF5" d="M765.106,128.078c1.747-0.001,3.489-0.13,5.236-0.133c0.585-0.001,0.585-0.908,0-0.907
				c-1.747,0.003-3.489,0.132-5.236,0.133C764.521,127.171,764.521,128.078,765.106,128.078L765.106,128.078z"/>
		</g>
	</g>
	<g>
		<g>
			<path fill="#82CFF5" d="M781.198,126.946c0.687-1.834-1.111-4.171-3.042-3.788c-2.27,0.45-3.868,3.801-3.947,5.856
				c-0.072,1.882,1.029,3.647,3.042,3.218c3.134-0.669,3.84-5.739,5.345-7.966c0.291-0.431-0.361-0.919-0.712-0.55
				c-1.632,1.717-3.536,6.303-0.546,7.872c2.397,1.257,5.248-0.247,6.233-2.606c0.225-0.54-0.653-0.772-0.875-0.241
				c-0.681,1.63-2.439,2.613-4.182,2.361c-3.367-0.487-1.301-5.364,0.01-6.744c-0.237-0.183-0.475-0.367-0.712-0.55
				c-0.777,1.15-3.998,10.051-6.247,7.043c-0.839-1.121-0.468-3.017,0.162-4.11c0.424-0.736,0.979-1.384,1.573-1.985
				c1.338-1.353,3.766-0.036,3.022,1.948C780.118,127.253,780.995,127.488,781.198,126.946L781.198,126.946z"/>
		</g>
	</g>
	<g>
		<g>
			<path fill="#82CFF5" d="M789.082,125.012c1.517,0.931,2.869,2.234,4.238,3.364c1.059,0.873,2.271,2.304,3.537,2.872
				c0.528,0.237,0.99-0.544,0.457-0.783c-1.284-0.576-2.527-2.049-3.604-2.938c-1.346-1.11-2.679-2.382-4.171-3.298
				C789.039,123.922,788.584,124.707,789.082,125.012L789.082,125.012z"/>
		</g>
	</g>
	<g>
		<g>
			<path fill="#82CFF5" d="M795.168,123.69c-0.355,0.21-0.643,0.623-0.918,0.919c-0.728,0.781-1.446,1.57-2.169,2.355
				c-0.724,0.787-1.45,1.571-2.187,2.347c-0.283,0.298-0.569,0.594-0.86,0.885c-0.105,0.105-0.214,0.208-0.322,0.311
				c-0.29,0.274-0.191,0.041,0.18,0.198c-0.531-0.226-0.994,0.556-0.457,0.783c0.956,0.405,2.826-2.304,3.342-2.859
				c0.85-0.915,1.691-1.836,2.537-2.754c0.353-0.383,1.03-1.235,1.312-1.402C796.128,124.176,795.672,123.392,795.168,123.69
				L795.168,123.69z"/>
		</g>
	</g>
	<g>
		<g>
			<path fill="#82CFF5" d="M797.436,118.009c0.169-1.442,2.812-2.031,2.39-0.465c-0.192,0.715-0.898,1.337-1.392,1.852
				c-0.795,0.828-2.022,1.71-2.335,2.874c-0.071,0.266,0.138,0.6,0.438,0.574c1.362-0.117,2.718-0.297,4.076-0.446
				c0.448-0.049,0.912-0.049,1.356-0.128c0.287-0.051,0.789-0.269,1.072-0.203c-0.11-0.146-0.222-0.292-0.333-0.438
				c0.006-0.031,0.012-0.062,0.018-0.092c-0.363,0.451,0.274,1.097,0.641,0.642c0.147-0.183,0.261-0.305,0.249-0.549
				c-0.01-0.196-0.131-0.391-0.333-0.437c-0.656-0.151-1.5,0.191-2.16,0.248c-1.532,0.132-3.054,0.365-4.586,0.496
				c0.146,0.191,0.292,0.383,0.438,0.574c0.275-1.027,1.577-1.927,2.284-2.665c0.696-0.725,1.526-1.618,1.529-2.685
				c0.003-0.95-1.021-1.485-1.831-1.565c-1.257-0.123-2.301,1.327-2.427,2.413C796.461,118.589,797.369,118.583,797.436,118.009
				L797.436,118.009z"/>
		</g>
	</g>
	<g>
		<g>
			<path fill="#82CFF5" d="M815.659,125.208c1.456-1.159,2.331-3.306,3.001-4.977c0.443-1.107,1.773-3.85,0.88-5.059
				c-0.638-0.863-1.889-0.552-2.458,0.271c-1.561,2.255-1.699,5.495-2.123,8.122c-0.329,2.032-1.321,4.305-0.311,6.276
				c1.025,2.001,3.325-0.082,4.055-1.09c0.498-0.688,1.85-3.748,0.238-4.103c-1.766-0.39-3.701,1.421-4.786,2.6
				c-0.396,0.429,0.244,1.072,0.641,0.642c0.79-0.857,1.69-1.556,2.718-2.105c1.671-0.894,0.932,1.449,0.656,2.082
				c-0.642,1.472-3.064,1.867-3.046-0.171c0.022-2.428,0.891-5.26,1.343-7.646c0.249-1.313,0.551-2.666,1.19-3.849
				c0.6-1.109,1.196-0.59,1.169,0.206c-0.02,0.603-0.224,1.219-0.391,1.793c-0.594,2.038-1.688,4.99-3.417,6.367
				C814.561,124.93,815.207,125.567,815.659,125.208L815.659,125.208z"/>
		</g>
	</g>
	<g>
		<g>
			<path fill="#82CFF5" d="M821.638,130.78c2.523-2.454,5.356-4.644,8.022-6.94c0.444-0.382-0.2-1.021-0.641-0.642
				c-2.667,2.297-5.5,4.487-8.022,6.94C820.577,130.547,821.219,131.188,821.638,130.78L821.638,130.78z"/>
		</g>
	</g>
	<g>
		<g>
			<path fill="#82CFF5" d="M823.15,124.355c-0.021,0.626-0.683,0.214-0.345,0.417c0.11,0.065,0.213,0.146,0.313,0.225
				c0.284,0.223,0.553,0.465,0.82,0.707c0.697,0.627,1.366,1.286,2.031,1.947c0.793,0.788,2.268,1.926,2.721,2.835
				c0.261,0.523,1.043,0.064,0.783-0.458c-0.256-0.513-0.866-0.976-1.255-1.381c-0.867-0.905-1.753-1.793-2.654-2.663
				c-0.239-0.23-3.262-3.331-3.321-1.629C822.224,124.94,823.13,124.938,823.15,124.355L823.15,124.355z"/>
		</g>
	</g>
	<g>
		<g>
			<path fill="#82CFF5" d="M832.163,127.118c1.617-0.147,3.234-0.294,4.852-0.441c0.577-0.053,0.583-0.96,0-0.907
				c-1.617,0.147-3.234,0.294-4.852,0.441C831.586,126.263,831.58,127.17,832.163,127.118L832.163,127.118z"/>
		</g>
	</g>
	<g>
		<g>
			<path fill="#82CFF5" d="M834.622,124.662c-0.527,0.35-0.631-0.492-0.527,0.045c0.037,0.193,0.056,0.391,0.076,0.586
				c0.05,0.464,0.082,0.93,0.114,1.395c0.042,0.608,0.076,1.217,0.104,1.826c0.025,0.583,0.933,0.585,0.906,0
				c-0.041-0.927-0.097-1.854-0.176-2.779c-0.029-0.354-0.067-2.445-0.954-1.857C833.68,124.201,834.134,124.986,834.622,124.662
				L834.622,124.662z"/>
		</g>
	</g>
	<g>
		<g>
			<path fill="#82CFF5" d="M804.538,128.115c1.617-0.148,3.235-0.296,4.853-0.443c0.577-0.053,0.583-0.96,0-0.907
				c-1.617,0.148-3.235,0.296-4.853,0.443C803.961,127.26,803.955,128.168,804.538,128.115L804.538,128.115z"/>
		</g>
	</g>
	<g>
		<g>
			<path fill="#82CFF5" d="M806.997,125.657c-0.528,0.348-0.631-0.491-0.527,0.045c0.037,0.193,0.056,0.391,0.076,0.586
				c0.05,0.464,0.083,0.93,0.115,1.395c0.042,0.608,0.075,1.217,0.104,1.826c0.026,0.583,0.933,0.585,0.906,0
				c-0.042-0.927-0.098-1.854-0.176-2.778c-0.03-0.356-0.067-2.443-0.955-1.857C806.054,125.194,806.508,125.98,806.997,125.657
				L806.997,125.657z"/>
		</g>
	</g>
	<g>
		<g>
			<path fill="#82CFF5" d="M847.472,123.081c-0.295-1.781-2.944-0.716-3.88-0.257c-1.803,0.884-3.266,2.439-2.91,4.548
				c0.526,3.118,7.098,4.82,7.486,0.924c0.059-0.582-0.849-0.576-0.906,0c-0.121,1.206-1.452,1.373-2.428,1.301
				c-1.259-0.093-2.516-0.812-3.105-1.935c-0.792-1.504,0.445-2.856,1.608-3.644c0.402-0.272,3.091-1.721,3.26-0.697
				C846.692,123.897,847.566,123.652,847.472,123.081L847.472,123.081z"/>
		</g>
	</g>
</g>
<g>
	<path fill="#0E8CCD" d="M694.759,115.724"/>
	<path fill="#110906" d="M749.393,306.577c4.943-7.417,39.091,4.446,39.311,16.117c0.159,8.431-25.525,35.34-23.525,44.007
		c2,8.666,25.703,19.343,23.703,23.343c-1.001,2.003-3.616,1.082-12.298,0c-2.009-0.251-8.046-7.23-15.546-12.017
		c0,0,2.474,11.222,0,9.5c-1.624-1.13-7.347,1.997-7.5-2c-1-25.932,27.919-54.717,20.04-59.986s-32.196-14.453-32.196-14.453"/>
	<path fill="#110906" d="M740.696,304.844c0,0,32.607,14.667,35.273,22.667c2.667,8-25.525,35.34-23.525,44.007
		c2,8.666,25.703,19.343,23.703,23.343c-1.001,2.003-3.617,1.083-12.298,0c-2.009-0.25-8.046-7.229-15.546-12.017
		c0,0,2.474,11.222,0,9.5c-1.624-1.129-7.347,1.997-7.5-2c-1-25.931,27.919-54.717,20.04-59.986
		c-7.879-5.269-32.196-7.55-32.196-7.55"/>
	<path fill="#FFFFFF" d="M731.178,243.375c-0.263,0.092-3.974,12.146-1.887,12.327c0.556,0.452,36.812,17.324,36.975,17.257
		c8.737-3.494,16.09-14.074,22.63-20.285c0.238,0.193,0.486,0.387,0.755,0.574c2.767,2.551,3.966,2.748,9.499,3.943
		c6.824,1.766,14.355,2.201,17.016,0.957c0.439-0.205,0.225-0.771-0.119-0.916c-0.799-0.336-1.592-0.672-2.39-1.01
		c2.36,0.234,4.583-0.221,6.243-2.168c0.26-0.305,0.738-2.176,0.385-2.322c-1.518-0.617-3.883-0.895-5.428-1.414
		c1.874-0.244,3.584,0.02,4.18-2.174c0.072-0.271-0.09-0.539-0.348-0.615c-5.322-1.629-7.45-0.961-16.744-2.775
		c-1.926-0.379-3.855-0.703-5.795-0.975c0.723-0.318,1.424-0.695,2.086-1.146c1.055-0.43,2.062-0.932,2.973-1.547
		c3.383-2.291,2.121-4.949-0.898-6.895c-0.254-0.164-0.67-0.018-0.727,0.299c-1.322,7.102-11.026,4.15-14.05,8.994
		c-0.246,0.02-0.509,0.877-0.505,1.061c-0.086,0.248-0.152,0.518-0.21,0.799c-0.043,0.051-0.079,0.111-0.099,0.189
		c-1.449,4.887-4.913,9.26-8.741,12.484c-2.971,2.508-6.611,4.818-10.505,5.32C764.231,263.375,731.071,243.355,731.178,243.375z"/>
	<path fill="#0E8CCD" d="M704.118,297.896c-8.034,43.962,32.743,31.511,56.15,32.095c-2.533-10.301,2.706-27.402,2.706-27.402
		c0-3-25.237-4-23.329-26.826c2.896-34.634,4.735-32.174-8.383-41.272c-9.391-6.514-20.318-17.844-26.927-4.36
		c-3.784,7.721-0.694,27.119,0.171,35.363C705.646,276.326,705.64,287.086,704.118,297.896
		C703.65,301.218,707.963,276.857,704.118,297.896z"/>
	<path fill="#FFFFFF" d="M740.47,153.793c-16.946-9.85-32.578-1.174-39.771,13.431c-0.715,2.301-7.696,5.159-8.087,7.653
		c-1.566,9.986,8.569,18.066,12.198,27.15c3.566,8.928,5.028,14.75,1.906,24.072c0.01,0.121-0.138,0.473-0.227,0.527
		c-0.155,0.33-0.336,0.628-0.552,0.877c0.998,0.912-3.032-1.086,3.03,2.697s19.782,3.892,20.354,3.357
		c-0.09-0.361-7.668-8.922-8.244-11.791c-0.78-3.908,3.211-6.809,6.082-5.379c2.109,0.318,4.235,0.562,6.366,0.678
		C754.976,209.25,758.658,164.363,740.47,153.793z"/>
	<path fill="none" stroke="#020303" stroke-width="1.0994" stroke-miterlimit="10" d="M749.679,184.697
		c0,1.614-0.788,2.923-1.755,2.923c-0.975,0-1.756-1.309-1.756-2.923c0-1.619,0.781-2.928,1.756-2.928
		C748.891,181.77,749.679,183.078,749.679,184.697z"/>
	<path fill="none" stroke="#020303" stroke-width="1.0994" stroke-miterlimit="10" d="M732.331,184.443
		c0,1.614-0.788,2.925-1.757,2.925c-0.974,0-1.757-1.311-1.757-2.925c0-1.615,0.783-2.926,1.757-2.926
		C731.543,181.518,732.331,182.828,732.331,184.443z"/>
	<g>
		<g>
			<path fill="#020303" d="M739.425,184.329c0.083-0.044,0.167-0.088,0.25-0.132c-0.27-0.207-0.538-0.414-0.808-0.621
				c-0.543,3.148-1.156,7.335,0.308,10.298c0.128,0.259,0.515,0.354,0.752,0.197c0.984-0.646,2.469-1.007,3.594-0.516
				c1.774,0.774-1.593,2.851-2.116,3.032c-0.99,0.342-2.048,0.227-2.992-0.165c-0.655-0.271-0.938,0.793-0.293,1.061
				c2.542,1.053,7.113-0.283,6.809-3.665c-0.222-2.461-4.31-1.513-5.556-0.696c0.251,0.066,0.501,0.131,0.752,0.197
				c-1.264-2.56-0.665-6.737-0.196-9.452c0.081-0.472-0.355-0.859-0.808-0.621c-0.083,0.044-0.167,0.088-0.25,0.132
				C738.243,183.71,738.799,184.66,739.425,184.329L739.425,184.329z"/>
		</g>
	</g>
	<g>
		<g>
			<path fill="#020303" d="M731.104,199.465c2.215,1.737,9.881,4.415,11.34,0.582c0.11-0.291-0.121-0.588-0.384-0.676
				c-2.776-0.928-5.564,0.013-8.392-0.413c-0.693-0.104-0.992,0.955-0.293,1.061c2.809,0.422,5.649-0.504,8.392,0.413
				c-0.128-0.226-0.256-0.451-0.384-0.676c-1.015,2.666-8,0.111-9.502-1.067C731.331,198.255,730.547,199.028,731.104,199.465
				L731.104,199.465z"/>
		</g>
	</g>
	<g>
		<g>
			<path fill="#020303" d="M731.019,199.354c1.241,2.87,1.973,7.807,5.902,8.137c1.084,0.091,4.163-0.174,3.665-1.984
				c-0.614-2.232-3.905-1.267-5.438-1.355c-0.709-0.041-0.705,1.059,0,1.1c0.714,0.041,1.41-0.055,2.12-0.126
				c0.791-0.08,3.146,0.573,1.435,1.143c-1.505,0.501-2.984-0.06-3.985-1.196c-1.493-1.694-1.873-4.248-2.749-6.273
				C731.688,198.149,730.74,198.71,731.019,199.354L731.019,199.354z"/>
		</g>
	</g>
	<path fill="#A42523" d="M744.833,155.414c5.022-4.085-6.863-15.881-11.17-10.553c-2.416-5.409-15.832-12.702-17.636-5.312
		c-3.802-2.812-9.493-2.792-13.724-1.004c-3.231,1.365-4.896,3.94-2.764,6.265c-2.876-0.229-5.852,0.49-8.094,2.35
		c-2.091,1.734-1.873,3.949-0.784,5.887c-1.14-0.479-2.374-0.574-3.637,0.059c-2.087,1.047-3.002,3.756-3.328,5.89
		c-0.579,3.778,0.703,7.207,3.334,8.9c-2.178,0.583-4.179,1.835-5.467,3.655c-1.494,2.111-1.165,3.858,0.13,5.053
		c-1.61,0.613-2.726,2.43-2.857,4.691c-0.28,4.838,3.603,7.412,7.796,7.881c-3.351,2.73,1.751,10.503,6.855,11.035
		c-0.967,0.832-1.514,1.926-0.497,3.188c1.438,1.783,4.535,2.365,6.651,2.66c1.528,0.213,4.698,0.6,5.696-1.035
		c0.73-1.196-0.111-2.495-1.233-3.58c1.847-0.011,3.488-1.379,4.263-3.63c1.238-3.597-2.82-7.548-5.061-9.806
		c-0.16-0.163-0.368-0.156-0.563-0.073c-3.498,1.478-6.724-3.712-7.447-6.413c-0.577-2.154,0.34-4.262,2.545-4.945
		c1.868-0.578,3.871,1.4,5.107,2.504c1.776,1.586,3.433,3.232,5.764,1.475c1.616-1.218,0.915-2.973-0.242-4.244
		c1.62,0.133,3.167-0.391,3.915-2.125c0.537-1.248,0.256-2.487-0.406-3.543c1.148,0.256,2.201-0.016,2.766-1.17
		c0.086,0.332,0.19,0.668,0.332,1.01c0.647,1.557,1.931,2.944,3.66,3.183c1.794,0.247,3.276-0.954,4.402-2.281
		c0.277,2.104,1.583,3.813,4.044,3.651c2.612-0.17,3.996-2.479,4.246-4.822c1.772,2.095,4.549,3.619,7.266,2.35
		c2.565-1.199,2.773-3.625,1.771-5.795c1.618,0.693,3.382,0.998,5.012,0.088c1.717-0.959,2.327-3.139,2.463-4.956
		C748.131,159.348,747.006,156.234,744.833,155.414z"/>
	
		<ellipse fill="none" stroke="#020303" stroke-width="1.0994" stroke-miterlimit="10" cx="729.154" cy="185.723" rx="6.511" ry="9.211"/>
	
		<ellipse fill="none" stroke="#020303" stroke-width="1.0994" stroke-miterlimit="10" cx="747.923" cy="184.443" rx="6.071" ry="8.436"/>
	<path fill="none" stroke="#020303" stroke-width="1.0994" stroke-miterlimit="10" d="M733.889,179.412c0,0,4.278-3.66,9.229-0.883"
		/>
	
		<line fill="none" stroke="#020303" stroke-width="1.0994" stroke-miterlimit="10" x1="722.644" y1="184.695" x2="705.949" y2="182.08"/>
	<path fill="#FFFFFF" d="M725.262,256.28c1.559,2.843-2.864,29.911,3.396,39.358c6.26,9.449,24.416-4.051,24.416-4.051l14.844,4.051
		l5.046,12.938l-19.89-6.989c0,0-32.258,15.903-36.758-8.282s-6.894-38.526-6.894-38.526S720.883,248.296,725.262,256.28z"/>
</g>
<path fill="#0E8CCD" d="M781.945,284.355c-1.389,1.34,11.991-1.352,11.991-1.352l0.982,111.688l-8.348-0.946
	C786.571,393.745,782.927,283.41,781.945,284.355z"/>
<g>
	<path fill="#110906" d="M1005.658,303.677c0,0-28.908-14.598-34.16-4.447c-5.254,10.153,29.739,55.688,29.739,55.688
		s-23.333,26.812-12.469,29.251c10.871,2.436,21.898-29.251,21.898-29.251s-28-39.035-24.561-44.722
		c3.439-5.684,26.07,20.367,26.07,20.367L1005.658,303.677z"/>
	<path fill="#E4F3FB" d="M1054.464,319.214c-3.365,5.883,30.534-66.817,19.912-79.61c-7.683-9.253-7.185-12.506-12.292-16.385
		c-1.799-1.366,3.359-3.492,1.241-4.312c-4.785-1.857-22.236-4.182-31.407-3.78c-10.762,0.477-19.924,4.533-26.901,6.909
		c-1.795,0.608-1.378,9.728-2.588,11.006c-5.397,5.687-5.269,8.273-4.087,20.339c2.558,26.156,9.03,56.008,9.03,56.008
		S1056.013,319.658,1054.464,319.214"/>
	<path fill="#FFFFFF" d="M1051.471,216.232c0.826,0.641-30.732,6.915-35.361,26.415c-0.121,0.508-6.189-16.621-6.189-16.621
		s5.661-11.529,3.536-13.228c-2.121-1.695-8.49-1.695-11.323-5.426c-2.832-3.733,6.371-41.383,10.97-49.859
		c4.603-8.484,28.31-3.734,31.495,0C1047.781,161.242,1044.037,210.465,1051.471,216.232z"/>
	<path fill="#1E1E1C" d="M1001.59,146.954c1.995-1.604,4.658-1.705,7.234-1.038c0.087-1.321,0.855-2.513,2.737-3.31
		c3.257-1.376,6.81-0.606,9.848,1.117c3.353-3.048,16.58,5.792,21.13,10.025c4.306,4.002,7.015,7.221,5.658,14.021
		c-0.384-0.329-7.588-1.852-7.727-2.25c0.135,1.325-1.25-6.836-1.38-6.877c-3.114-0.974-11.796-1.568-15.019-1.472
		c-6.163,0.185-12.491,0.844-18.291-1.536C1002.609,154.335,997.729,150.063,1001.59,146.954z"/>
	<ellipse fill="#FFFFFF" cx="1050.258" cy="177.862" rx="6.724" ry="6.614"/>
	<g>
		<g>
			<path fill="#020303" d="M1022.319,178.089c0.054,1.582,0.451,3.866,2.344,4.12c1.859,0.25,2.306-2.954,2.345-4.12
				c0.053-1.576-0.52-3.875-2.345-4.12C1022.807,173.72,1022.359,176.925,1022.319,178.089c-0.024,0.709,1.075,0.707,1.1,0
				c0.03-0.886,0.127-2.591,1.147-3.008c1.057-0.431,1.329,2.638,1.342,3.008c0.025,0.743-0.171,2.877-1.245,3.021
				c-1.045,0.14-1.227-2.512-1.244-3.021C1023.395,177.382,1022.295,177.379,1022.319,178.089z"/>
		</g>
	</g>
	<g>
		<g>
			<path fill="#020303" d="M1007.143,177.694c0.054,1.583,0.449,3.867,2.343,4.121c1.859,0.25,2.304-2.956,2.343-4.121
				c0.053-1.576-0.517-3.876-2.343-4.121C1007.628,173.325,1007.182,176.53,1007.143,177.694c-0.023,0.709,1.075,0.707,1.1,0
				c0.025-0.748,0.135-2.873,1.243-3.021c1.048-0.141,1.226,2.512,1.243,3.021c0.025,0.742-0.17,2.878-1.243,3.021
				c-1.046,0.14-1.226-2.513-1.243-3.021C1008.218,176.987,1007.119,176.985,1007.143,177.694z"/>
		</g>
	</g>
	<g>
		<g>
			<path fill="#020303" d="M1016.388,176.767c0.02,2.71-0.887,5.27-1.243,7.936c0.275-0.158,0.552-0.316,0.827-0.475
				c-2.454-1.233-8.083-0.95-7.001,3.067c1.022,3.804,7.806,5.134,10.285,2.294c0.464-0.532-0.311-1.312-0.777-0.777
				c-1.999,2.289-5.808,1.048-7.744-0.711c-1.499-1.361-0.716-2.849,0.894-3.348c1.229-0.381,2.665-0.141,3.789,0.424
				c0.405,0.204,0.771-0.057,0.827-0.475c0.358-2.68,1.263-5.208,1.243-7.936C1017.482,176.058,1016.383,176.058,1016.388,176.767
				L1016.388,176.767z"/>
		</g>
	</g>
	<g>
		<g>
			<path fill="#1E1E1C" d="M1049.727,174.739c-1.132-0.282-3.151-0.693-4.133,0.222c-1.038,0.968,0.349,2.057,1.128,2.608
				c0.363,0.256,2.54,0.693,1.343,1.436c-0.445,0.276-1.044,0.293-1.516,0.528c-1.048,0.523-0.638,1.339,0.108,1.955
				c0.314,0.26,0.768-0.188,0.451-0.45c-1.179-0.973,0.442-1.094,1.149-1.423c0.566-0.264,0.838-0.943,0.752-1.542
				c-0.095-0.663-1.537-0.828-1.966-1.053c-0.867-0.455-1.674-1.53-0.302-1.861c0.907-0.219,1.933-0.025,2.814,0.195
				C1049.956,175.453,1050.125,174.838,1049.727,174.739L1049.727,174.739z"/>
		</g>
	</g>
	<g>
		<g>
			<path fill="#020303" d="M1029.09,170.81c-3.293-0.557-6.629-1.154-9.966-1.353c-0.708-0.042-0.704,1.058,0,1.1
				c3.24,0.192,6.476,0.772,9.673,1.313C1029.49,171.987,1029.787,170.928,1029.09,170.81L1029.09,170.81z"/>
		</g>
	</g>
	<g>
		<g>
			<path fill="#020303" d="M1012.52,169.469c-2.746,0.044-5.41,0.636-8.13,0.938c-0.696,0.078-0.704,1.178,0,1.1
				c2.717-0.303,5.388-0.895,8.13-0.938C1013.228,170.557,1013.229,169.458,1012.52,169.469L1012.52,169.469z"/>
		</g>
	</g>
	<path fill="#1E1E1C" d="M1048.197,168.433l-7.451-1.324l0.69,4.898c0,0,7.174-1.586,6.485-1.325
		C1047.23,170.943,1048.197,168.433,1048.197,168.433z"/>
	<g>
		<g>
			<path fill="#020303" d="M1025.368,193.426c-3.019,1.607-6.365,1.66-9.705,1.662c-0.709,0-0.709,1.1,0,1.1
				c3.548-0.002,7.061-0.108,10.26-1.812C1026.549,194.042,1025.993,193.093,1025.368,193.426L1025.368,193.426z"/>
		</g>
	</g>
	<g>
		<g>
			<path fill="#1E1E1C" d="M1016.394,242.144c-1.564-6.234-5.152-11.368-9.1-16.325c-0.236-0.297-0.65,0.123-0.416,0.416
				c3.888,4.882,7.406,9.921,8.947,16.065C1015.918,242.668,1016.485,242.512,1016.394,242.144L1016.394,242.144z"/>
		</g>
	</g>
	<path fill="none" stroke="#1E1E1C" stroke-width="0.5887" stroke-miterlimit="10" d="M1040.751,220.204
		c-1.395-0.391-25.94,13.914-28.83,33.21c-1.367,9.14-2.009,18.944-2.009,18.944"/>
	<g>
		<g>
			<path fill="#1E1E1C" d="M1052.397,216.267c2.52,0.666,5.085,1.125,7.606,1.779c0.343,0.089,3.616,1.253,3.589,1.286
				c-0.791,0.947-1.568,1.903-2.324,2.879c-2.093,2.702-5.113,6.62-4.117,10.289c0.164-0.095,0.328-0.191,0.492-0.286
				c-1.937-1.731-4.479-2.806-6.76-3.995c-2.679-1.397-6.586-2.964-8.106-5.744c-0.061-0.112-0.21-0.175-0.332-0.135
				c-4.369,1.41-8.279,4.328-11.861,7.114c-5.639,4.386-10.901,9.227-15.961,14.265c-0.27,0.268,0.146,0.684,0.416,0.416
				c7.433-7.4,15.497-15.358,24.941-20.156c0.713-0.362,1.453-0.667,2.205-0.937c0.276-0.099,0.899,0.861,1.057,1.029
				c1.112,1.183,2.629,2.036,4.012,2.847c3.227,1.894,7.16,3.198,9.974,5.713c0.215,0.192,0.572,0.009,0.492-0.286
				c-1.24-4.565,3.975-9.824,6.618-12.989c0.151-0.181,0.084-0.407-0.13-0.492c-3.784-1.503-7.736-2.128-11.654-3.163
				C1052.187,215.603,1052.03,216.17,1052.397,216.267L1052.397,216.267z"/>
		</g>
	</g>
	<path fill="#110906" d="M1006.811,306.577c0,0,4.496,10.304-28.664,21.17c-13.95,4.571-10.032,54.4-10.032,54.4
		s-48.025,8.978-31.784,15.476c16.241,6.499,41.434-9.034,41.434-9.034s-2.412-52.765,8.012-52.358
		c10.424,0.405,35.592-1.979,50.702-0.624c17.279,1.554,20.168-22.119,20.168-22.119S1012.14,309.966,1006.811,306.577z"/>
	<path fill="#FFFFFF" d="M1020.953,263.523c1.704,0.853,8.946,13.208,6.816,20.45s-51.282-7.243-51.282-7.243
		s-14.059,3.41-17.041,1.705c0,0-12.354,2.556-11.503-0.427s5.964-3.834,5.964-3.834l-9.799,2.982l-3.834-2.131
		c0,0,17.04-7.241,26.84-7.668s9.8-0.427,9.8-0.427L1020.953,263.523z"/>
	<g>
		<g>
			<path fill="#1E1E1C" d="M1015.466,262.879c2.43-2.398,5.024-4.437,8.084-5.973c0.86-0.432,2.834,0.072,3.896,0.274
				c5.59,1.063,8.789,6.976,10.188,11.957c1.346,4.792,1.162,10.813-0.855,15.396c-2.351,5.341-8.001,3.512-12,1.315
				c-0.333-0.184-0.63,0.325-0.297,0.508c3.157,1.735,7.373,3.618,10.691,1.239c3.388-2.428,3.641-7.998,3.811-11.719
				c0.221-4.804-1.186-9.687-3.82-13.697c-1.222-1.859-2.856-3.4-4.776-4.515c-1.036-0.602-2.204-0.942-3.372-1.165
				c-0.578-0.11-2.217,0.085-2.557-0.369c-0.103-0.138-0.244-0.179-0.402-0.106c-3.448,1.597-6.313,3.779-9.006,6.437
				C1014.779,262.729,1015.195,263.146,1015.466,262.879L1015.466,262.879z"/>
		</g>
	</g>
	<g>
		<g>
			<path fill="#1E1E1C" d="M1027.891,264.629c3.979,2.788,4.656,9.038,5.402,13.458c0.063,0.374,0.631,0.215,0.568-0.156
				c-0.777-4.602-1.515-10.896-5.674-13.81C1027.876,263.902,1027.582,264.413,1027.891,264.629L1027.891,264.629z"/>
		</g>
	</g>
	<g>
		<g>
			<path fill="#1E1E1C" d="M1036.212,287.239c7.487-1.797,14.571-6.695,20.579-11.31c4.749-3.646,11.958-9.251,12.441-15.814
				c0.028-0.379-0.561-0.376-0.588,0c-0.231,3.13-2.36,5.865-4.338,8.145c-2.727,3.144-5.997,5.829-9.325,8.305
				c-5.557,4.134-12.103,8.47-18.926,10.106C1035.687,286.76,1035.843,287.327,1036.212,287.239L1036.212,287.239z"/>
		</g>
	</g>
	<g>
		<g>
			<path fill="#1E1E1C" d="M1029.316,257.001c4.234,0.181,8.552-1.937,12.131-3.981c3.291-1.88,7.533-4.706,8.604-8.591
				c0.101-0.367-0.468-0.522-0.568-0.156c-1.035,3.761-5.195,6.376-8.332,8.238c-3.432,2.038-7.742,4.076-11.834,3.901
				C1028.937,256.396,1028.938,256.985,1029.316,257.001L1029.316,257.001z"/>
		</g>
	</g>
</g>
<path fill="#0E8CCD" d="M976.168,287.829c1.812,1.338-12.166-0.947-12.166-0.947l-1.281,111.688l10.887-0.946
	C973.607,397.623,974.889,286.882,976.168,287.829z"/>
<g>
	<g>
		<path fill="#FFFFFF" d="M887.243,253.546l-54.496,9.646l40.428,13.114c0,0,52.504-12.922,51.332-12.445
			C923.335,264.341,887.243,253.546,887.243,253.546z"/>
		<path fill="#FFFFFF" d="M887.243,253.546c-0.947-1.451-0.684-38.335-0.684-38.335l-59.466,4.903l5.653,43.077L887.243,253.546z"/>
		<path fill="#C3E5F6" d="M886.589,215.524l-9.367-0.389c0,0-54.396,4.383-52.75,4.63c1.646,0.247,2.651,0.663,2.651,0.663
			L886.589,215.524z"/>
		<polygon fill="#C3E5F6" points="873.175,276.306 872.268,280.617 831.429,265.8 824.8,219.944 827.123,220.429 832.747,263.191 		
			"/>
		<path fill="#C3E5F6" d="M924.507,263.86c-0.514-0.162-0.929,3.078-0.929,3.078l-51.19,13.708l0.787-4.341L924.507,263.86z"/>
		<path fill="#0E8CCD" d="M883.874,218.74c0.559,0.657,0.657,32.32-0.062,32.614c-0.718,0.294-47.413,8.604-47.413,8.604
			l-5.567-36.846L883.874,218.74z"/>
		<polygon fill="#110906" points="886.56,256.757 843.719,263.807 848.603,265.512 892.137,257.938 		"/>
		<path fill="#110906" d="M865.645,264.341c-0.719,0.293-13.727,2.07-13.727,2.07l19.732,6.34l6.369-0.994l-13.863-4.717
			l5.811-1.649L865.645,264.341z"/>
		<polygon fill="#110906" points="895.946,258.796 913.511,263.204 882.416,270.925 870.187,267.727 875.01,266.146 
			867.595,263.945 		"/>
	</g>
	<path fill="#C3E5F6" d="M843.147,258.954c0,0-5.384-31.943-5.025-31.831s42.721-4.531,42.721-4.531s1.077,28.772,1.077,29.112
		S843.147,258.954,843.147,258.954z"/>
	<polygon fill="#0E8CCD" points="878.21,230.125 842.31,234.315 842.31,231.144 878.21,226.953 	"/>
	<polygon fill="#0E8CCD" points="864.329,235.902 843.027,238.507 843.027,235.335 864.329,232.73 	"/>
	<polygon fill="#0E8CCD" points="878.271,234.259 865.704,235.957 865.704,232.785 878.271,231.087 	"/>
	<polygon fill="#0E8CCD" points="878.15,242.755 865.584,244.452 865.584,241.281 878.15,239.583 	"/>
	<polygon fill="#0E8CCD" points="878.629,246.737 866.062,248.437 866.062,245.265 878.629,243.566 	"/>
	<polygon fill="#0E8CCD" points="878.869,250.797 866.303,252.495 866.303,249.323 878.869,247.626 	"/>
	<polygon fill="#0E8CCD" points="878.569,238.621 857.268,241.226 857.268,238.054 878.569,235.449 	"/>
	<polygon fill="#0E8CCD" points="865.285,252.27 844.343,255.838 843.744,244.058 864.328,241.282 	"/>
	<polygon fill="#0E8CCD" points="856.013,241.622 843.446,243.32 843.446,240.148 856.013,238.45 	"/>
</g>
<g>
</g>
<g>
</g>
<g>
</g>
<g>
</g>
<g>
</g>
<g>
</g>
</svg>
