<?xml version="1.0" encoding="utf-8"?>
<!-- Generator: Adobe Illustrator 16.0.4, SVG Export Plug-In . SVG Version: 6.00 Build 0)  -->
<!DOCTYPE svg PUBLIC "-//W3C//DTD SVG 1.1//EN" "http://www.w3.org/Graphics/SVG/1.1/DTD/svg11.dtd">
<svg version="1.1" id="Layer_1" xmlns="http://www.w3.org/2000/svg" xmlns:xlink="http://www.w3.org/1999/xlink" x="0px" y="0px"
	 width="1105.214px" height="517.497px" viewBox="0 0 1105.214 517.497" enable-background="new 0 0 1105.214 517.497"
	 xml:space="preserve">
<g>
	<g>
		<path fill="#FFFFFF" d="M887.243,253.546l-54.496,9.646l40.428,13.114c0,0,52.504-12.922,51.332-12.445
			C923.335,264.341,887.243,253.546,887.243,253.546z"/>
		<path fill="#FFFFFF" d="M887.243,253.546c-0.947-1.451-0.684-38.335-0.684-38.335l-59.466,4.903l5.653,43.077L887.243,253.546z"/>
		<path fill="#C3E5F6" d="M886.589,215.524l-9.367-0.389c0,0-54.396,4.383-52.75,4.63c1.646,0.247,2.651,0.663,2.651,0.663
			L886.589,215.524z"/>
		<polygon fill="#C3E5F6" points="873.175,276.306 872.268,280.617 831.429,265.8 824.8,219.944 827.123,220.429 832.747,263.191 		
			"/>
		<path fill="#C3E5F6" d="M924.507,263.86c-0.514-0.162-0.929,3.078-0.929,3.078l-51.19,13.708l0.787-4.341L924.507,263.86z"/>
		<path fill="#0E8CCD" d="M883.874,218.74c0.559,0.657,0.657,32.32-0.062,32.614c-0.718,0.294-47.413,8.604-47.413,8.604
			l-5.567-36.846L883.874,218.74z"/>
		<polygon fill="#110906" points="886.56,256.757 843.719,263.807 848.603,265.512 892.137,257.938 		"/>
		<path fill="#110906" d="M865.645,264.341c-0.719,0.293-13.727,2.07-13.727,2.07l19.732,6.34l6.369-0.994l-13.863-4.717
			l5.811-1.649L865.645,264.341z"/>
		<polygon fill="#110906" points="895.946,258.796 913.511,263.204 882.416,270.925 870.187,267.727 875.01,266.146 
			867.595,263.945 		"/>
	</g>
	<path fill="#C3E5F6" d="M843.147,258.954c0,0-5.384-31.943-5.025-31.831s42.721-4.531,42.721-4.531s1.077,28.772,1.077,29.112
		S843.147,258.954,843.147,258.954z"/>
	<polygon fill="#0E8CCD" points="878.21,230.125 842.31,234.315 842.31,231.144 878.21,226.953 	"/>
	<polygon fill="#0E8CCD" points="864.329,235.902 843.027,238.507 843.027,235.335 864.329,232.73 	"/>
	<polygon fill="#0E8CCD" points="878.271,234.259 865.704,235.957 865.704,232.785 878.271,231.087 	"/>
	<polygon fill="#0E8CCD" points="878.15,242.755 865.584,244.452 865.584,241.281 878.15,239.583 	"/>
	<polygon fill="#0E8CCD" points="878.629,246.737 866.062,248.437 866.062,245.265 878.629,243.566 	"/>
	<polygon fill="#0E8CCD" points="878.869,250.797 866.303,252.495 866.303,249.323 878.869,247.626 	"/>
	<polygon fill="#0E8CCD" points="878.569,238.621 857.268,241.226 857.268,238.054 878.569,235.449 	"/>
	<polygon fill="#0E8CCD" points="865.285,252.27 844.343,255.838 843.744,244.058 864.328,241.282 	"/>
	<polygon fill="#0E8CCD" points="856.013,241.622 843.446,243.32 843.446,240.148 856.013,238.45 	"/>
</g>
<g>
</g>
<g>
</g>
<g>
</g>
<g>
</g>
<g>
</g>
<g>
</g>
</svg>
