<?xml version="1.0" encoding="utf-8"?>
<!-- Generator: Adobe Illustrator 16.0.4, SVG Export Plug-In . SVG Version: 6.00 Build 0)  -->
<!DOCTYPE svg PUBLIC "-//W3C//DTD SVG 1.1//EN" "http://www.w3.org/Graphics/SVG/1.1/DTD/svg11.dtd">
<svg version="1.1" id="Layer_1" xmlns="http://www.w3.org/2000/svg" xmlns:xlink="http://www.w3.org/1999/xlink" x="0px" y="0px"
	 width="1105.214px" height="517.497px" viewBox="0 0 1105.214 517.497" enable-background="new 0 0 1105.214 517.497"
	 xml:space="preserve">
<polygon fill="#0DA2DD" points="1016.542,229.591 724.968,223.472 711.083,68.649 1031.749,65.59 "/>
<g>
	
		<line fill="none" stroke="#82CFF5" stroke-width="0.9069" stroke-miterlimit="10" x1="847.676" y1="168.602" x2="979.913" y2="165.248"/>
	
		<line fill="none" stroke="#82CFF5" stroke-width="0.9069" stroke-miterlimit="10" x1="909.228" y1="191.126" x2="909.076" y2="101.639"/>
	<path fill="none" stroke="#82CFF5" stroke-width="0.9069" stroke-miterlimit="10" d="M869.854,106.886
		c0,0-1.603,60.235,39.229,59.371c40.835-0.866,40.553-64.852,40.553-64.852"/>
	<g>
		<g>
			<path fill="#82CFF5" d="M906.476,162.915c1.725-0.01,3.45-0.02,5.175-0.029c0.585-0.003,0.585-0.911,0-0.907
				c-1.725,0.01-3.45,0.02-5.175,0.029C905.891,162.011,905.891,162.918,906.476,162.915L906.476,162.915z"/>
		</g>
	</g>
	<g>
		<g>
			<path fill="#82CFF5" d="M906.441,156.995c1.725-0.01,3.448-0.02,5.173-0.029c0.585-0.003,0.585-0.911,0-0.907
				c-1.725,0.01-3.448,0.02-5.173,0.029C905.856,156.091,905.856,156.998,906.441,156.995L906.441,156.995z"/>
		</g>
	</g>
	<g>
		<g>
			<path fill="#82CFF5" d="M906.402,150.228c1.725-0.01,3.448-0.02,5.173-0.03c0.585-0.004,0.585-0.911,0-0.907
				c-1.725,0.011-3.448,0.021-5.173,0.03C905.817,149.324,905.817,150.231,906.402,150.228L906.402,150.228z"/>
		</g>
	</g>
	<g>
		<g>
			<path fill="#82CFF5" d="M906.606,143.178c1.724-0.008,3.448-0.018,5.172-0.028c0.585-0.004,0.585-0.911,0-0.907
				c-1.724,0.011-3.448,0.021-5.172,0.028C906.021,142.274,906.021,143.181,906.606,143.178L906.606,143.178z"/>
		</g>
	</g>
	<g>
		<g>
			<path fill="#82CFF5" d="M906.453,137.763c1.725-0.01,3.448-0.02,5.173-0.03c0.585-0.004,0.585-0.911,0-0.907
				c-1.725,0.011-3.448,0.021-5.173,0.03C905.868,136.859,905.868,137.767,906.453,137.763L906.453,137.763z"/>
		</g>
	</g>
	<g>
		<g>
			<path fill="#82CFF5" d="M906.418,131.842c1.725-0.01,3.448-0.021,5.173-0.029c0.585-0.003,0.585-0.91,0-0.907
				c-1.725,0.009-3.448,0.02-5.173,0.029C905.833,130.938,905.833,131.846,906.418,131.842L906.418,131.842z"/>
		</g>
	</g>
	<g>
		<g>
			<path fill="#82CFF5" d="M906.38,125.076c1.724-0.009,3.448-0.02,5.172-0.029c0.585-0.003,0.585-0.911,0-0.907
				c-1.724,0.01-3.448,0.021-5.172,0.029C905.795,124.172,905.795,125.079,906.38,125.076L906.38,125.076z"/>
		</g>
	</g>
	<g>
		<g>
			<path fill="#82CFF5" d="M906.582,118.028c1.725-0.01,3.45-0.021,5.175-0.029c0.585-0.003,0.585-0.91,0-0.907
				c-1.725,0.009-3.45,0.02-5.175,0.029C905.997,117.124,905.997,118.031,906.582,118.028L906.582,118.028z"/>
		</g>
	</g>
	<g>
		<g>
			<path fill="#82CFF5" d="M906.771,192.797c1.725-0.01,3.449-0.021,5.174-0.029c0.585-0.003,0.585-0.91,0-0.907
				c-1.725,0.009-3.449,0.02-5.174,0.029C906.186,191.894,906.186,192.801,906.771,192.797L906.771,192.797z"/>
		</g>
	</g>
	<g>
		<g>
			<path fill="#82CFF5" d="M906.737,186.877c1.724-0.01,3.448-0.021,5.172-0.029c0.585-0.003,0.585-0.91,0-0.907
				c-1.724,0.009-3.448,0.02-5.172,0.029C906.152,185.974,906.152,186.881,906.737,186.877L906.737,186.877z"/>
		</g>
	</g>
	<g>
		<g>
			<path fill="#82CFF5" d="M906.697,180.112c1.725-0.011,3.45-0.021,5.175-0.03c0.585-0.003,0.585-0.91,0-0.907
				c-1.725,0.009-3.45,0.02-5.175,0.03C906.112,179.208,906.112,180.115,906.697,180.112L906.697,180.112z"/>
		</g>
	</g>
	<g>
		<g>
			<path fill="#82CFF5" d="M906.901,173.062c1.725-0.011,3.449-0.02,5.174-0.03c0.585-0.004,0.585-0.911,0-0.907
				c-1.725,0.011-3.449,0.02-5.174,0.03C906.316,172.159,906.316,173.065,906.901,173.062L906.901,173.062z"/>
		</g>
	</g>
	<g>
		<g>
			<path fill="#82CFF5" d="M937.226,168.573c-0.009-1.724-0.018-3.449-0.029-5.173c-0.004-0.584-0.91-0.585-0.906,0
				c0.011,1.724,0.02,3.449,0.029,5.173C936.322,169.158,937.229,169.158,937.226,168.573L937.226,168.573z"/>
		</g>
	</g>
	<g>
		<g>
			<path fill="#82CFF5" d="M931.306,168.609c-0.01-1.725-0.02-3.45-0.03-5.175c-0.003-0.584-0.91-0.585-0.906,0
				c0.011,1.725,0.021,3.45,0.03,5.175C930.402,169.194,931.31,169.194,931.306,168.609L931.306,168.609z"/>
		</g>
	</g>
	<g>
		<g>
			<path fill="#82CFF5" d="M924.541,168.648c-0.01-1.725-0.021-3.45-0.03-5.175c-0.003-0.584-0.909-0.585-0.906,0
				c0.009,1.725,0.021,3.45,0.03,5.175C923.638,169.233,924.545,169.233,924.541,168.648L924.541,168.648z"/>
		</g>
	</g>
	<g>
		<g>
			<path fill="#82CFF5" d="M917.491,168.444c-0.01-1.725-0.02-3.45-0.029-5.175c-0.003-0.584-0.91-0.585-0.906,0
				c0.01,1.725,0.02,3.45,0.029,5.175C916.588,169.029,917.495,169.029,917.491,168.444L917.491,168.444z"/>
		</g>
	</g>
	<g>
		<g>
			<path fill="#82CFF5" d="M963.164,168.303c-0.01-1.725-0.021-3.449-0.031-5.174c-0.003-0.584-0.91-0.585-0.906,0
				c0.01,1.725,0.021,3.449,0.031,5.174C962.261,168.887,963.168,168.888,963.164,168.303L963.164,168.303z"/>
		</g>
	</g>
	<g>
		<g>
			<path fill="#82CFF5" d="M957.243,168.336c-0.011-1.725-0.021-3.449-0.031-5.174c-0.003-0.584-0.91-0.585-0.906,0
				c0.011,1.725,0.021,3.449,0.031,5.174C956.34,168.92,957.247,168.921,957.243,168.336L957.243,168.336z"/>
		</g>
	</g>
	<g>
		<g>
			<path fill="#82CFF5" d="M950.477,168.375c-0.011-1.725-0.021-3.449-0.03-5.174c-0.003-0.584-0.91-0.585-0.906,0
				c0.01,1.725,0.02,3.449,0.03,5.174C949.573,168.959,950.48,168.96,950.477,168.375L950.477,168.375z"/>
		</g>
	</g>
	<g>
		<g>
			<path fill="#82CFF5" d="M943.426,168.172c-0.009-1.724-0.02-3.449-0.029-5.173c-0.003-0.584-0.91-0.585-0.906,0
				c0.01,1.724,0.02,3.449,0.029,5.173C942.522,168.756,943.429,168.757,943.426,168.172L943.426,168.172z"/>
		</g>
	</g>
	<g>
		<g>
			<path fill="#82CFF5" d="M902.69,168.651c-0.009-1.724-0.019-3.449-0.03-5.173c-0.004-0.584-0.91-0.585-0.906,0
				c0.012,1.724,0.021,3.449,0.03,5.173C901.787,169.236,902.693,169.236,902.69,168.651L902.69,168.651z"/>
		</g>
	</g>
	<g>
		<g>
			<path fill="#82CFF5" d="M896.771,168.687c-0.011-1.725-0.021-3.449-0.029-5.174c-0.003-0.584-0.909-0.585-0.906,0
				c0.009,1.725,0.019,3.449,0.029,5.174C895.867,169.271,896.774,169.271,896.771,168.687L896.771,168.687z"/>
		</g>
	</g>
	<g>
		<g>
			<path fill="#82CFF5" d="M890.004,168.726c-0.011-1.725-0.021-3.449-0.03-5.174c-0.003-0.584-0.91-0.585-0.906,0
				c0.01,1.725,0.02,3.449,0.03,5.174C889.101,169.31,890.008,169.311,890.004,168.726L890.004,168.726z"/>
		</g>
	</g>
	<g>
		<g>
			<path fill="#82CFF5" d="M882.954,168.521c-0.01-1.724-0.02-3.448-0.03-5.172c-0.003-0.584-0.91-0.585-0.906,0
				c0.011,1.724,0.021,3.448,0.03,5.172C882.051,169.106,882.958,169.106,882.954,168.521L882.954,168.521z"/>
		</g>
	</g>
	<g>
		<g>
			<path fill="#82CFF5" d="M875.907,168.686c-0.01-1.725-0.021-3.449-0.03-5.174c-0.003-0.584-0.91-0.585-0.906,0
				c0.01,1.725,0.021,3.449,0.03,5.174C875.004,169.27,875.911,169.271,875.907,168.686L875.907,168.686z"/>
		</g>
	</g>
	<g>
		<g>
			<path fill="#82CFF5" d="M869.985,168.719c-0.01-1.725-0.019-3.449-0.028-5.174c-0.003-0.584-0.91-0.585-0.906,0
				c0.01,1.725,0.019,3.449,0.028,5.174C869.082,169.303,869.989,169.304,869.985,168.719L869.985,168.719z"/>
		</g>
	</g>
	<g>
		<g>
			<path fill="#82CFF5" d="M863.22,168.758c-0.01-1.725-0.019-3.449-0.029-5.174c-0.003-0.584-0.91-0.585-0.906,0
				c0.011,1.725,0.02,3.449,0.029,5.174C862.316,169.342,863.224,169.343,863.22,168.758L863.22,168.758z"/>
		</g>
	</g>
	<g>
		<g>
			<path fill="#82CFF5" d="M856.171,168.556c-0.01-1.724-0.02-3.449-0.028-5.173c-0.003-0.584-0.909-0.585-0.906,0
				c0.009,1.724,0.019,3.449,0.028,5.173C855.268,169.14,856.175,169.141,856.171,168.556L856.171,168.556z"/>
		</g>
	</g>
</g>
<g>
	<g>
		<g>
			<path fill="#82CFF5" d="M753.021,123.139c1.161,0.776,1.99,2.699,2.715,3.849c0.454,0.722,1.154,2.55,2.022,2.882
				c0.179,0.068,0.429-0.041,0.513-0.208c0.002-0.005,0.005-0.01,0.007-0.014c0.26-0.522-0.522-0.981-0.783-0.458
				c-0.002,0.005-0.005,0.01-0.007,0.014c0.171-0.069,0.341-0.139,0.512-0.208c0.304,0.116,0.043-0.064-0.071-0.234
				c-0.17-0.254-0.332-0.513-0.495-0.771c-0.5-0.792-0.993-1.588-1.496-2.378c-0.669-1.049-1.393-2.543-2.459-3.256
				C752.99,122.029,752.536,122.815,753.021,123.139L753.021,123.139z"/>
		</g>
	</g>
	<g>
		<g>
			<path fill="#82CFF5" d="M761.302,121.679c-1.418,3.57-3.328,6.947-5.244,10.269c-0.816,1.416-1.659,2.816-2.521,4.206
				c-0.316,0.512-0.823,1.721-1.3,2.042c-0.482,0.325-0.029,1.111,0.457,0.783c0.436-0.293,0.723-0.944,0.996-1.368
				c0.987-1.532,1.919-3.101,2.841-4.672c2.082-3.551,4.123-7.186,5.646-11.019C762.393,121.376,761.516,121.143,761.302,121.679
				L761.302,121.679z"/>
		</g>
	</g>
	<g>
		<g>
			<path fill="#82CFF5" d="M765.544,125.809c1.014,0.004,2.027-0.001,3.041-0.021c0.562-0.011,1.372,0.092,1.896-0.168
				c0.128-0.064,0.241-0.246,0.225-0.392c-0.001-0.004-0.001-0.009-0.002-0.014c-0.065-0.574-0.973-0.581-0.906,0
				c0,0.004,0.001,0.009,0.001,0.014c0.075-0.13,0.15-0.261,0.225-0.392c-0.262,0.131-1.262,0.041-1.668,0.049
				c-0.937,0.019-1.874,0.021-2.811,0.017C764.959,124.899,764.959,125.807,765.544,125.809L765.544,125.809z"/>
		</g>
	</g>
	<g>
		<g>
			<path fill="#82CFF5" d="M765.106,128.078c1.747-0.001,3.489-0.13,5.236-0.133c0.585-0.001,0.585-0.908,0-0.907
				c-1.747,0.003-3.489,0.132-5.236,0.133C764.521,127.171,764.521,128.078,765.106,128.078L765.106,128.078z"/>
		</g>
	</g>
	<g>
		<g>
			<path fill="#82CFF5" d="M781.198,126.946c0.687-1.834-1.111-4.171-3.042-3.788c-2.27,0.45-3.868,3.801-3.947,5.856
				c-0.072,1.882,1.029,3.647,3.042,3.218c3.134-0.669,3.84-5.739,5.345-7.966c0.291-0.431-0.361-0.919-0.712-0.55
				c-1.632,1.717-3.536,6.303-0.546,7.872c2.397,1.257,5.248-0.247,6.233-2.606c0.225-0.54-0.653-0.772-0.875-0.241
				c-0.681,1.63-2.439,2.613-4.182,2.361c-3.367-0.487-1.301-5.364,0.01-6.744c-0.237-0.183-0.475-0.367-0.712-0.55
				c-0.777,1.15-3.998,10.051-6.247,7.043c-0.839-1.121-0.468-3.017,0.162-4.11c0.424-0.736,0.979-1.384,1.573-1.985
				c1.338-1.353,3.766-0.036,3.022,1.948C780.118,127.253,780.995,127.488,781.198,126.946L781.198,126.946z"/>
		</g>
	</g>
	<g>
		<g>
			<path fill="#82CFF5" d="M789.082,125.012c1.517,0.931,2.869,2.234,4.238,3.364c1.059,0.873,2.271,2.304,3.537,2.872
				c0.528,0.237,0.99-0.544,0.457-0.783c-1.284-0.576-2.527-2.049-3.604-2.938c-1.346-1.11-2.679-2.382-4.171-3.298
				C789.039,123.922,788.584,124.707,789.082,125.012L789.082,125.012z"/>
		</g>
	</g>
	<g>
		<g>
			<path fill="#82CFF5" d="M795.168,123.69c-0.355,0.21-0.643,0.623-0.918,0.919c-0.728,0.781-1.446,1.57-2.169,2.355
				c-0.724,0.787-1.45,1.571-2.187,2.347c-0.283,0.298-0.569,0.594-0.86,0.885c-0.105,0.105-0.214,0.208-0.322,0.311
				c-0.29,0.274-0.191,0.041,0.18,0.198c-0.531-0.226-0.994,0.556-0.457,0.783c0.956,0.405,2.826-2.304,3.342-2.859
				c0.85-0.915,1.691-1.836,2.537-2.754c0.353-0.383,1.03-1.235,1.312-1.402C796.128,124.176,795.672,123.392,795.168,123.69
				L795.168,123.69z"/>
		</g>
	</g>
	<g>
		<g>
			<path fill="#82CFF5" d="M797.436,118.009c0.169-1.442,2.812-2.031,2.39-0.465c-0.192,0.715-0.898,1.337-1.392,1.852
				c-0.795,0.828-2.022,1.71-2.335,2.874c-0.071,0.266,0.138,0.6,0.438,0.574c1.362-0.117,2.718-0.297,4.076-0.446
				c0.448-0.049,0.912-0.049,1.356-0.128c0.287-0.051,0.789-0.269,1.072-0.203c-0.11-0.146-0.222-0.292-0.333-0.438
				c0.006-0.031,0.012-0.062,0.018-0.092c-0.363,0.451,0.274,1.097,0.641,0.642c0.147-0.183,0.261-0.305,0.249-0.549
				c-0.01-0.196-0.131-0.391-0.333-0.437c-0.656-0.151-1.5,0.191-2.16,0.248c-1.532,0.132-3.054,0.365-4.586,0.496
				c0.146,0.191,0.292,0.383,0.438,0.574c0.275-1.027,1.577-1.927,2.284-2.665c0.696-0.725,1.526-1.618,1.529-2.685
				c0.003-0.95-1.021-1.485-1.831-1.565c-1.257-0.123-2.301,1.327-2.427,2.413C796.461,118.589,797.369,118.583,797.436,118.009
				L797.436,118.009z"/>
		</g>
	</g>
	<g>
		<g>
			<path fill="#82CFF5" d="M815.659,125.208c1.456-1.159,2.331-3.306,3.001-4.977c0.443-1.107,1.773-3.85,0.88-5.059
				c-0.638-0.863-1.889-0.552-2.458,0.271c-1.561,2.255-1.699,5.495-2.123,8.122c-0.329,2.032-1.321,4.305-0.311,6.276
				c1.025,2.001,3.325-0.082,4.055-1.09c0.498-0.688,1.85-3.748,0.238-4.103c-1.766-0.39-3.701,1.421-4.786,2.6
				c-0.396,0.429,0.244,1.072,0.641,0.642c0.79-0.857,1.69-1.556,2.718-2.105c1.671-0.894,0.932,1.449,0.656,2.082
				c-0.642,1.472-3.064,1.867-3.046-0.171c0.022-2.428,0.891-5.26,1.343-7.646c0.249-1.313,0.551-2.666,1.19-3.849
				c0.6-1.109,1.196-0.59,1.169,0.206c-0.02,0.603-0.224,1.219-0.391,1.793c-0.594,2.038-1.688,4.99-3.417,6.367
				C814.561,124.93,815.207,125.567,815.659,125.208L815.659,125.208z"/>
		</g>
	</g>
	<g>
		<g>
			<path fill="#82CFF5" d="M821.638,130.78c2.523-2.454,5.356-4.644,8.022-6.94c0.444-0.382-0.2-1.021-0.641-0.642
				c-2.667,2.297-5.5,4.487-8.022,6.94C820.577,130.547,821.219,131.188,821.638,130.78L821.638,130.78z"/>
		</g>
	</g>
	<g>
		<g>
			<path fill="#82CFF5" d="M823.15,124.355c-0.021,0.626-0.683,0.214-0.345,0.417c0.11,0.065,0.213,0.146,0.313,0.225
				c0.284,0.223,0.553,0.465,0.82,0.707c0.697,0.627,1.366,1.286,2.031,1.947c0.793,0.788,2.268,1.926,2.721,2.835
				c0.261,0.523,1.043,0.064,0.783-0.458c-0.256-0.513-0.866-0.976-1.255-1.381c-0.867-0.905-1.753-1.793-2.654-2.663
				c-0.239-0.23-3.262-3.331-3.321-1.629C822.224,124.94,823.13,124.938,823.15,124.355L823.15,124.355z"/>
		</g>
	</g>
	<g>
		<g>
			<path fill="#82CFF5" d="M832.163,127.118c1.617-0.147,3.234-0.294,4.852-0.441c0.577-0.053,0.583-0.96,0-0.907
				c-1.617,0.147-3.234,0.294-4.852,0.441C831.586,126.263,831.58,127.17,832.163,127.118L832.163,127.118z"/>
		</g>
	</g>
	<g>
		<g>
			<path fill="#82CFF5" d="M834.622,124.662c-0.527,0.35-0.631-0.492-0.527,0.045c0.037,0.193,0.056,0.391,0.076,0.586
				c0.05,0.464,0.082,0.93,0.114,1.395c0.042,0.608,0.076,1.217,0.104,1.826c0.025,0.583,0.933,0.585,0.906,0
				c-0.041-0.927-0.097-1.854-0.176-2.779c-0.029-0.354-0.067-2.445-0.954-1.857C833.68,124.201,834.134,124.986,834.622,124.662
				L834.622,124.662z"/>
		</g>
	</g>
	<g>
		<g>
			<path fill="#82CFF5" d="M804.538,128.115c1.617-0.148,3.235-0.296,4.853-0.443c0.577-0.053,0.583-0.96,0-0.907
				c-1.617,0.148-3.235,0.296-4.853,0.443C803.961,127.26,803.955,128.168,804.538,128.115L804.538,128.115z"/>
		</g>
	</g>
	<g>
		<g>
			<path fill="#82CFF5" d="M806.997,125.657c-0.528,0.348-0.631-0.491-0.527,0.045c0.037,0.193,0.056,0.391,0.076,0.586
				c0.05,0.464,0.083,0.93,0.115,1.395c0.042,0.608,0.075,1.217,0.104,1.826c0.026,0.583,0.933,0.585,0.906,0
				c-0.042-0.927-0.098-1.854-0.176-2.778c-0.03-0.356-0.067-2.443-0.955-1.857C806.054,125.194,806.508,125.98,806.997,125.657
				L806.997,125.657z"/>
		</g>
	</g>
	<g>
		<g>
			<path fill="#82CFF5" d="M847.472,123.081c-0.295-1.781-2.944-0.716-3.88-0.257c-1.803,0.884-3.266,2.439-2.91,4.548
				c0.526,3.118,7.098,4.82,7.486,0.924c0.059-0.582-0.849-0.576-0.906,0c-0.121,1.206-1.452,1.373-2.428,1.301
				c-1.259-0.093-2.516-0.812-3.105-1.935c-0.792-1.504,0.445-2.856,1.608-3.644c0.402-0.272,3.091-1.721,3.26-0.697
				C846.692,123.897,847.566,123.652,847.472,123.081L847.472,123.081z"/>
		</g>
	</g>
</g>
<g>
</g>
<g>
</g>
<g>
</g>
<g>
</g>
<g>
</g>
<g>
</g>
</svg>
