<?xml version="1.0" encoding="utf-8"?>
<!-- Generator: Adobe Illustrator 16.0.4, SVG Export Plug-In . SVG Version: 6.00 Build 0)  -->
<!DOCTYPE svg PUBLIC "-//W3C//DTD SVG 1.1//EN" "http://www.w3.org/Graphics/SVG/1.1/DTD/svg11.dtd">
<svg version="1.1" id="Layer_1" xmlns="http://www.w3.org/2000/svg" xmlns:xlink="http://www.w3.org/1999/xlink" x="0px" y="0px"
	 width="1105.214px" height="517.497px" viewBox="0 0 1105.214 517.497" enable-background="new 0 0 1105.214 517.497"
	 xml:space="preserve">
<g>
	<polygon fill="#0E8CCD" points="986.717,294.716 771.554,289.353 771.554,278.624 986.717,279.294 	"/>
	<path fill="#0E8CCD" d="M800.133,276.801c-1.585,1.137,10.65-0.803,10.65-0.803l1.121,94.754l-9.528-0.803
		C802.376,369.949,801.253,275.999,800.133,276.801z"/>
	<path fill="#0E8CCD" d="M948.87,275.743c-1.585,1.137,10.65-0.803,10.65-0.803l1.121,94.754l-9.528-0.803
		C951.113,368.892,949.99,274.941,948.87,275.743z"/>
	<path fill="#0DA2DD" d="M770.646,278.859l28.878-14.353l171.034,1.866c0,0,17.133,12.983,15.703,13.3
		C984.831,279.99,770.646,278.859,770.646,278.859z"/>
</g>
<g>
</g>
<g>
</g>
<g>
</g>
<g>
</g>
<g>
</g>
<g>
</g>
</svg>
