<?xml version="1.0" encoding="utf-8"?>
<!-- Generator: Adobe Illustrator 16.0.4, SVG Export Plug-In . SVG Version: 6.00 Build 0)  -->
<!DOCTYPE svg PUBLIC "-//W3C//DTD SVG 1.1//EN" "http://www.w3.org/Graphics/SVG/1.1/DTD/svg11.dtd">
<svg version="1.1" id="Layer_1" xmlns="http://www.w3.org/2000/svg" xmlns:xlink="http://www.w3.org/1999/xlink" x="0px" y="0px"
	 width="1105.214px" height="517.497px" viewBox="0 0 1105.214 517.497" enable-background="new 0 0 1105.214 517.497"
	 xml:space="preserve">
<g>
	<polygon fill="#0E8CCD" points="991.219,343.758 1066.323,343.758 1066.316,333.702 991.219,333.608 	"/>
	<rect x="1051.083" y="341.592" fill="#0E8CCD" width="8.119" height="46.687"/>
	<rect x="1000.979" y="342.743" fill="#0E8CCD" width="8.119" height="46.687"/>
	<rect x="1039.247" y="328.765" fill="#0E8CCD" width="8.119" height="46.687"/>
	<rect x="990.006" y="327.614" fill="#0E8CCD" width="8.119" height="46.687"/>
	<path fill="#0DA2DD" d="M1068.329,334.277c-1.159,0.279-20.995-9.779-20.995-9.779l-61.55,1.726c0,0,5.576,10.658,6.04,8.341
		C991.854,334.413,1068.912,334.137,1068.329,334.277z"/>
	<polyline fill="#0E8CCD" points="991.824,334.564 993.55,344.056 985.497,337.441 985.784,326.224 991.219,333.608 	"/>
</g>
<g>
	<path fill="#110906" d="M1005.658,303.677c0,0-28.908-14.598-34.16-4.447c-5.254,10.153,29.739,55.688,29.739,55.688
		s-23.333,26.812-12.469,29.251c10.871,2.436,21.898-29.251,21.898-29.251s-28-39.035-24.561-44.722
		c3.439-5.684,26.07,20.367,26.07,20.367L1005.658,303.677z"/>
	<path fill="#E4F3FB" d="M1054.464,319.214c-3.365,5.883,30.534-66.817,19.912-79.61c-7.683-9.253-7.185-12.506-12.292-16.385
		c-1.799-1.366,3.359-3.492,1.241-4.312c-4.785-1.857-22.236-4.182-31.407-3.78c-10.762,0.477-19.924,4.533-26.901,6.909
		c-1.795,0.608-1.378,9.728-2.588,11.006c-5.397,5.687-5.269,8.273-4.087,20.339c2.558,26.156,9.03,56.008,9.03,56.008
		S1056.013,319.658,1054.464,319.214"/>
	<path fill="#FFFFFF" d="M1051.471,216.232c0.826,0.641-30.732,6.915-35.361,26.415c-0.121,0.508-6.189-16.621-6.189-16.621
		s5.661-11.529,3.536-13.228c-2.121-1.695-8.49-1.695-11.323-5.426c-2.832-3.733,6.371-41.383,10.97-49.859
		c4.603-8.484,28.31-3.734,31.495,0C1047.781,161.242,1044.037,210.465,1051.471,216.232z"/>
	<path fill="#1E1E1C" d="M1001.59,146.954c1.995-1.604,4.658-1.705,7.234-1.038c0.087-1.321,0.855-2.513,2.737-3.31
		c3.257-1.376,6.81-0.606,9.848,1.117c3.353-3.048,16.58,5.792,21.13,10.025c4.306,4.002,7.015,7.221,5.658,14.021
		c-0.384-0.329-7.588-1.852-7.727-2.25c0.135,1.325-1.25-6.836-1.38-6.877c-3.114-0.974-11.796-1.568-15.019-1.472
		c-6.163,0.185-12.491,0.844-18.291-1.536C1002.609,154.335,997.729,150.063,1001.59,146.954z"/>
	<ellipse fill="#FFFFFF" cx="1050.258" cy="177.862" rx="6.724" ry="6.614"/>
	<g>
		<g>
			<path fill="#020303" d="M1022.319,178.089c0.054,1.582,0.451,3.866,2.344,4.12c1.859,0.25,2.306-2.954,2.345-4.12
				c0.053-1.576-0.52-3.875-2.345-4.12C1022.807,173.72,1022.359,176.925,1022.319,178.089c-0.024,0.709,1.075,0.707,1.1,0
				c0.03-0.886,0.127-2.591,1.147-3.008c1.057-0.431,1.329,2.638,1.342,3.008c0.025,0.743-0.171,2.877-1.245,3.021
				c-1.045,0.14-1.227-2.512-1.244-3.021C1023.395,177.382,1022.295,177.379,1022.319,178.089z"/>
		</g>
	</g>
	<g>
		<g>
			<path fill="#020303" d="M1007.143,177.694c0.054,1.583,0.449,3.867,2.343,4.121c1.859,0.25,2.304-2.956,2.343-4.121
				c0.053-1.576-0.517-3.876-2.343-4.121C1007.628,173.325,1007.182,176.53,1007.143,177.694c-0.023,0.709,1.075,0.707,1.1,0
				c0.025-0.748,0.135-2.873,1.243-3.021c1.048-0.141,1.226,2.512,1.243,3.021c0.025,0.742-0.17,2.878-1.243,3.021
				c-1.046,0.14-1.226-2.513-1.243-3.021C1008.218,176.987,1007.119,176.985,1007.143,177.694z"/>
		</g>
	</g>
	<g>
		<g>
			<path fill="#020303" d="M1016.388,176.767c0.02,2.71-0.887,5.27-1.243,7.936c0.275-0.158,0.552-0.316,0.827-0.475
				c-2.454-1.233-8.083-0.95-7.001,3.067c1.022,3.804,7.806,5.134,10.285,2.294c0.464-0.532-0.311-1.312-0.777-0.777
				c-1.999,2.289-5.808,1.048-7.744-0.711c-1.499-1.361-0.716-2.849,0.894-3.348c1.229-0.381,2.665-0.141,3.789,0.424
				c0.405,0.204,0.771-0.057,0.827-0.475c0.358-2.68,1.263-5.208,1.243-7.936C1017.482,176.058,1016.383,176.058,1016.388,176.767
				L1016.388,176.767z"/>
		</g>
	</g>
	<g>
		<g>
			<path fill="#1E1E1C" d="M1049.727,174.739c-1.132-0.282-3.151-0.693-4.133,0.222c-1.038,0.968,0.349,2.057,1.128,2.608
				c0.363,0.256,2.54,0.693,1.343,1.436c-0.445,0.276-1.044,0.293-1.516,0.528c-1.048,0.523-0.638,1.339,0.108,1.955
				c0.314,0.26,0.768-0.188,0.451-0.45c-1.179-0.973,0.442-1.094,1.149-1.423c0.566-0.264,0.838-0.943,0.752-1.542
				c-0.095-0.663-1.537-0.828-1.966-1.053c-0.867-0.455-1.674-1.53-0.302-1.861c0.907-0.219,1.933-0.025,2.814,0.195
				C1049.956,175.453,1050.125,174.838,1049.727,174.739L1049.727,174.739z"/>
		</g>
	</g>
	<g>
		<g>
			<path fill="#020303" d="M1029.09,170.81c-3.293-0.557-6.629-1.154-9.966-1.353c-0.708-0.042-0.704,1.058,0,1.1
				c3.24,0.192,6.476,0.772,9.673,1.313C1029.49,171.987,1029.787,170.928,1029.09,170.81L1029.09,170.81z"/>
		</g>
	</g>
	<g>
		<g>
			<path fill="#020303" d="M1012.52,169.469c-2.746,0.044-5.41,0.636-8.13,0.938c-0.696,0.078-0.704,1.178,0,1.1
				c2.717-0.303,5.388-0.895,8.13-0.938C1013.228,170.557,1013.229,169.458,1012.52,169.469L1012.52,169.469z"/>
		</g>
	</g>
	<path fill="#1E1E1C" d="M1048.197,168.433l-7.451-1.324l0.69,4.898c0,0,7.174-1.586,6.485-1.325
		C1047.23,170.943,1048.197,168.433,1048.197,168.433z"/>
	<g>
		<g>
			<path fill="#020303" d="M1025.368,193.426c-3.019,1.607-6.365,1.66-9.705,1.662c-0.709,0-0.709,1.1,0,1.1
				c3.548-0.002,7.061-0.108,10.26-1.812C1026.549,194.042,1025.993,193.093,1025.368,193.426L1025.368,193.426z"/>
		</g>
	</g>
	<g>
		<g>
			<path fill="#1E1E1C" d="M1016.394,242.144c-1.564-6.234-5.152-11.368-9.1-16.325c-0.236-0.297-0.65,0.123-0.416,0.416
				c3.888,4.882,7.406,9.921,8.947,16.065C1015.918,242.668,1016.485,242.512,1016.394,242.144L1016.394,242.144z"/>
		</g>
	</g>
	<path fill="none" stroke="#1E1E1C" stroke-width="0.5887" stroke-miterlimit="10" d="M1040.751,220.204
		c-1.395-0.391-25.94,13.914-28.83,33.21c-1.367,9.14-2.009,18.944-2.009,18.944"/>
	<g>
		<g>
			<path fill="#1E1E1C" d="M1052.397,216.267c2.52,0.666,5.085,1.125,7.606,1.779c0.343,0.089,3.616,1.253,3.589,1.286
				c-0.791,0.947-1.568,1.903-2.324,2.879c-2.093,2.702-5.113,6.62-4.117,10.289c0.164-0.095,0.328-0.191,0.492-0.286
				c-1.937-1.731-4.479-2.806-6.76-3.995c-2.679-1.397-6.586-2.964-8.106-5.744c-0.061-0.112-0.21-0.175-0.332-0.135
				c-4.369,1.41-8.279,4.328-11.861,7.114c-5.639,4.386-10.901,9.227-15.961,14.265c-0.27,0.268,0.146,0.684,0.416,0.416
				c7.433-7.4,15.497-15.358,24.941-20.156c0.713-0.362,1.453-0.667,2.205-0.937c0.276-0.099,0.899,0.861,1.057,1.029
				c1.112,1.183,2.629,2.036,4.012,2.847c3.227,1.894,7.16,3.198,9.974,5.713c0.215,0.192,0.572,0.009,0.492-0.286
				c-1.24-4.565,3.975-9.824,6.618-12.989c0.151-0.181,0.084-0.407-0.13-0.492c-3.784-1.503-7.736-2.128-11.654-3.163
				C1052.187,215.603,1052.03,216.17,1052.397,216.267L1052.397,216.267z"/>
		</g>
	</g>
	<path fill="#110906" d="M1006.811,306.577c0,0,4.496,10.304-28.664,21.17c-13.95,4.571-10.032,54.4-10.032,54.4
		s-48.025,8.978-31.784,15.476c16.241,6.499,41.434-9.034,41.434-9.034s-2.412-52.765,8.012-52.358
		c10.424,0.405,35.592-1.979,50.702-0.624c17.279,1.554,20.168-22.119,20.168-22.119S1012.14,309.966,1006.811,306.577z"/>
	<path fill="#FFFFFF" d="M1020.953,263.523c1.704,0.853,8.946,13.208,6.816,20.45s-51.282-7.243-51.282-7.243
		s-14.059,3.41-17.041,1.705c0,0-12.354,2.556-11.503-0.427s5.964-3.834,5.964-3.834l-9.799,2.982l-3.834-2.131
		c0,0,17.04-7.241,26.84-7.668s9.8-0.427,9.8-0.427L1020.953,263.523z"/>
	<g>
		<g>
			<path fill="#1E1E1C" d="M1015.466,262.879c2.43-2.398,5.024-4.437,8.084-5.973c0.86-0.432,2.834,0.072,3.896,0.274
				c5.59,1.063,8.789,6.976,10.188,11.957c1.346,4.792,1.162,10.813-0.855,15.396c-2.351,5.341-8.001,3.512-12,1.315
				c-0.333-0.184-0.63,0.325-0.297,0.508c3.157,1.735,7.373,3.618,10.691,1.239c3.388-2.428,3.641-7.998,3.811-11.719
				c0.221-4.804-1.186-9.687-3.82-13.697c-1.222-1.859-2.856-3.4-4.776-4.515c-1.036-0.602-2.204-0.942-3.372-1.165
				c-0.578-0.11-2.217,0.085-2.557-0.369c-0.103-0.138-0.244-0.179-0.402-0.106c-3.448,1.597-6.313,3.779-9.006,6.437
				C1014.779,262.729,1015.195,263.146,1015.466,262.879L1015.466,262.879z"/>
		</g>
	</g>
	<g>
		<g>
			<path fill="#1E1E1C" d="M1027.891,264.629c3.979,2.788,4.656,9.038,5.402,13.458c0.063,0.374,0.631,0.215,0.568-0.156
				c-0.777-4.602-1.515-10.896-5.674-13.81C1027.876,263.902,1027.582,264.413,1027.891,264.629L1027.891,264.629z"/>
		</g>
	</g>
	<g>
		<g>
			<path fill="#1E1E1C" d="M1036.212,287.239c7.487-1.797,14.571-6.695,20.579-11.31c4.749-3.646,11.958-9.251,12.441-15.814
				c0.028-0.379-0.561-0.376-0.588,0c-0.231,3.13-2.36,5.865-4.338,8.145c-2.727,3.144-5.997,5.829-9.325,8.305
				c-5.557,4.134-12.103,8.47-18.926,10.106C1035.687,286.76,1035.843,287.327,1036.212,287.239L1036.212,287.239z"/>
		</g>
	</g>
	<g>
		<g>
			<path fill="#1E1E1C" d="M1029.316,257.001c4.234,0.181,8.552-1.937,12.131-3.981c3.291-1.88,7.533-4.706,8.604-8.591
				c0.101-0.367-0.468-0.522-0.568-0.156c-1.035,3.761-5.195,6.376-8.332,8.238c-3.432,2.038-7.742,4.076-11.834,3.901
				C1028.937,256.396,1028.938,256.985,1029.316,257.001L1029.316,257.001z"/>
		</g>
	</g>
</g>
<g>
</g>
<g>
</g>
<g>
</g>
<g>
</g>
<g>
</g>
<g>
</g>
</svg>
