<?xml version="1.0" encoding="utf-8"?>
<!-- Generator: Adobe Illustrator 16.0.4, SVG Export Plug-In . SVG Version: 6.00 Build 0)  -->
<!DOCTYPE svg PUBLIC "-//W3C//DTD SVG 1.1//EN" "http://www.w3.org/Graphics/SVG/1.1/DTD/svg11.dtd">
<svg version="1.1" id="Layer_1" xmlns="http://www.w3.org/2000/svg" xmlns:xlink="http://www.w3.org/1999/xlink" x="0px" y="0px"
	 width="1105.214px" height="517.497px" viewBox="0 0 1105.214 517.497" enable-background="new 0 0 1105.214 517.497"
	 xml:space="preserve">
<g>
	<polygon fill="#0E8CCD" points="743.97,339.116 668.865,339.116 668.872,329.061 743.97,328.967 	"/>
	<rect x="675.986" y="336.95" fill="#0E8CCD" width="8.119" height="46.687"/>
	<rect x="726.091" y="338.102" fill="#0E8CCD" width="8.119" height="46.687"/>
	<rect x="687.822" y="324.123" fill="#0E8CCD" width="8.119" height="46.687"/>
	<rect x="737.063" y="322.973" fill="#0E8CCD" width="8.119" height="46.687"/>
	<path fill="#0DA2DD" d="M666.859,329.636c1.159,0.279,20.995-9.779,20.995-9.779l61.55,1.726c0,0-5.576,10.658-6.04,8.341
		C743.334,329.771,666.276,329.495,666.859,329.636z"/>
	<polyline fill="#0E8CCD" points="743.364,329.923 741.639,339.414 749.691,332.8 749.404,321.582 743.97,328.967 	"/>
</g>
<g>
	<path fill="#0E8CCD" d="M694.759,115.724"/>
	<path fill="#110906" d="M749.393,306.577c4.943-7.417,39.091,4.446,39.311,16.117c0.159,8.431-25.525,35.34-23.525,44.007
		c2,8.666,25.703,19.343,23.703,23.343c-1.001,2.003-3.616,1.082-12.298,0c-2.009-0.251-8.046-7.23-15.546-12.017
		c0,0,2.474,11.222,0,9.5c-1.624-1.13-7.347,1.997-7.5-2c-1-25.932,27.919-54.717,20.04-59.986s-32.196-14.453-32.196-14.453"/>
	<path fill="#110906" d="M740.696,304.844c0,0,32.607,14.667,35.273,22.667c2.667,8-25.525,35.34-23.525,44.007
		c2,8.666,25.703,19.343,23.703,23.343c-1.001,2.003-3.617,1.083-12.298,0c-2.009-0.25-8.046-7.229-15.546-12.017
		c0,0,2.474,11.222,0,9.5c-1.624-1.129-7.347,1.997-7.5-2c-1-25.931,27.919-54.717,20.04-59.986
		c-7.879-5.269-32.196-7.55-32.196-7.55"/>
	<path fill="#FFFFFF" d="M731.178,243.375c-0.263,0.092-3.974,12.146-1.887,12.327c0.556,0.452,36.812,17.324,36.975,17.257
		c8.737-3.494,16.09-14.074,22.63-20.285c0.238,0.193,0.486,0.387,0.755,0.574c2.767,2.551,3.966,2.748,9.499,3.943
		c6.824,1.766,14.355,2.201,17.016,0.957c0.439-0.205,0.225-0.771-0.119-0.916c-0.799-0.336-1.592-0.672-2.39-1.01
		c2.36,0.234,4.583-0.221,6.243-2.168c0.26-0.305,0.738-2.176,0.385-2.322c-1.518-0.617-3.883-0.895-5.428-1.414
		c1.874-0.244,3.584,0.02,4.18-2.174c0.072-0.271-0.09-0.539-0.348-0.615c-5.322-1.629-7.45-0.961-16.744-2.775
		c-1.926-0.379-3.855-0.703-5.795-0.975c0.723-0.318,1.424-0.695,2.086-1.146c1.055-0.43,2.062-0.932,2.973-1.547
		c3.383-2.291,2.121-4.949-0.898-6.895c-0.254-0.164-0.67-0.018-0.727,0.299c-1.322,7.102-11.026,4.15-14.05,8.994
		c-0.246,0.02-0.509,0.877-0.505,1.061c-0.086,0.248-0.152,0.518-0.21,0.799c-0.043,0.051-0.079,0.111-0.099,0.189
		c-1.449,4.887-4.913,9.26-8.741,12.484c-2.971,2.508-6.611,4.818-10.505,5.32C764.231,263.375,731.071,243.355,731.178,243.375z"/>
	<path fill="#0E8CCD" d="M704.118,297.896c-8.034,43.962,32.743,31.511,56.15,32.095c-2.533-10.301,2.706-27.402,2.706-27.402
		c0-3-25.237-4-23.329-26.826c2.896-34.634,4.735-32.174-8.383-41.272c-9.391-6.514-20.318-17.844-26.927-4.36
		c-3.784,7.721-0.694,27.119,0.171,35.363C705.646,276.326,705.64,287.086,704.118,297.896
		C703.65,301.218,707.963,276.857,704.118,297.896z"/>
	<path fill="#FFFFFF" d="M740.47,153.793c-16.946-9.85-32.578-1.174-39.771,13.431c-0.715,2.301-7.696,5.159-8.087,7.653
		c-1.566,9.986,8.569,18.066,12.198,27.15c3.566,8.928,5.028,14.75,1.906,24.072c0.01,0.121-0.138,0.473-0.227,0.527
		c-0.155,0.33-0.336,0.628-0.552,0.877c0.998,0.912-3.032-1.086,3.03,2.697s19.782,3.892,20.354,3.357
		c-0.09-0.361-7.668-8.922-8.244-11.791c-0.78-3.908,3.211-6.809,6.082-5.379c2.109,0.318,4.235,0.562,6.366,0.678
		C754.976,209.25,758.658,164.363,740.47,153.793z"/>
	<path fill="none" stroke="#020303" stroke-width="1.0994" stroke-miterlimit="10" d="M749.679,184.697
		c0,1.614-0.788,2.923-1.755,2.923c-0.975,0-1.756-1.309-1.756-2.923c0-1.619,0.781-2.928,1.756-2.928
		C748.891,181.77,749.679,183.078,749.679,184.697z"/>
	<path fill="none" stroke="#020303" stroke-width="1.0994" stroke-miterlimit="10" d="M732.331,184.443
		c0,1.614-0.788,2.925-1.757,2.925c-0.974,0-1.757-1.311-1.757-2.925c0-1.615,0.783-2.926,1.757-2.926
		C731.543,181.518,732.331,182.828,732.331,184.443z"/>
	<g>
		<g>
			<path fill="#020303" d="M739.425,184.329c0.083-0.044,0.167-0.088,0.25-0.132c-0.27-0.207-0.538-0.414-0.808-0.621
				c-0.543,3.148-1.156,7.335,0.308,10.298c0.128,0.259,0.515,0.354,0.752,0.197c0.984-0.646,2.469-1.007,3.594-0.516
				c1.774,0.774-1.593,2.851-2.116,3.032c-0.99,0.342-2.048,0.227-2.992-0.165c-0.655-0.271-0.938,0.793-0.293,1.061
				c2.542,1.053,7.113-0.283,6.809-3.665c-0.222-2.461-4.31-1.513-5.556-0.696c0.251,0.066,0.501,0.131,0.752,0.197
				c-1.264-2.56-0.665-6.737-0.196-9.452c0.081-0.472-0.355-0.859-0.808-0.621c-0.083,0.044-0.167,0.088-0.25,0.132
				C738.243,183.71,738.799,184.66,739.425,184.329L739.425,184.329z"/>
		</g>
	</g>
	<g>
		<g>
			<path fill="#020303" d="M731.104,199.465c2.215,1.737,9.881,4.415,11.34,0.582c0.11-0.291-0.121-0.588-0.384-0.676
				c-2.776-0.928-5.564,0.013-8.392-0.413c-0.693-0.104-0.992,0.955-0.293,1.061c2.809,0.422,5.649-0.504,8.392,0.413
				c-0.128-0.226-0.256-0.451-0.384-0.676c-1.015,2.666-8,0.111-9.502-1.067C731.331,198.255,730.547,199.028,731.104,199.465
				L731.104,199.465z"/>
		</g>
	</g>
	<g>
		<g>
			<path fill="#020303" d="M731.019,199.354c1.241,2.87,1.973,7.807,5.902,8.137c1.084,0.091,4.163-0.174,3.665-1.984
				c-0.614-2.232-3.905-1.267-5.438-1.355c-0.709-0.041-0.705,1.059,0,1.1c0.714,0.041,1.41-0.055,2.12-0.126
				c0.791-0.08,3.146,0.573,1.435,1.143c-1.505,0.501-2.984-0.06-3.985-1.196c-1.493-1.694-1.873-4.248-2.749-6.273
				C731.688,198.149,730.74,198.71,731.019,199.354L731.019,199.354z"/>
		</g>
	</g>
	<path fill="#A42523" d="M744.833,155.414c5.022-4.085-6.863-15.881-11.17-10.553c-2.416-5.409-15.832-12.702-17.636-5.312
		c-3.802-2.812-9.493-2.792-13.724-1.004c-3.231,1.365-4.896,3.94-2.764,6.265c-2.876-0.229-5.852,0.49-8.094,2.35
		c-2.091,1.734-1.873,3.949-0.784,5.887c-1.14-0.479-2.374-0.574-3.637,0.059c-2.087,1.047-3.002,3.756-3.328,5.89
		c-0.579,3.778,0.703,7.207,3.334,8.9c-2.178,0.583-4.179,1.835-5.467,3.655c-1.494,2.111-1.165,3.858,0.13,5.053
		c-1.61,0.613-2.726,2.43-2.857,4.691c-0.28,4.838,3.603,7.412,7.796,7.881c-3.351,2.73,1.751,10.503,6.855,11.035
		c-0.967,0.832-1.514,1.926-0.497,3.188c1.438,1.783,4.535,2.365,6.651,2.66c1.528,0.213,4.698,0.6,5.696-1.035
		c0.73-1.196-0.111-2.495-1.233-3.58c1.847-0.011,3.488-1.379,4.263-3.63c1.238-3.597-2.82-7.548-5.061-9.806
		c-0.16-0.163-0.368-0.156-0.563-0.073c-3.498,1.478-6.724-3.712-7.447-6.413c-0.577-2.154,0.34-4.262,2.545-4.945
		c1.868-0.578,3.871,1.4,5.107,2.504c1.776,1.586,3.433,3.232,5.764,1.475c1.616-1.218,0.915-2.973-0.242-4.244
		c1.62,0.133,3.167-0.391,3.915-2.125c0.537-1.248,0.256-2.487-0.406-3.543c1.148,0.256,2.201-0.016,2.766-1.17
		c0.086,0.332,0.19,0.668,0.332,1.01c0.647,1.557,1.931,2.944,3.66,3.183c1.794,0.247,3.276-0.954,4.402-2.281
		c0.277,2.104,1.583,3.813,4.044,3.651c2.612-0.17,3.996-2.479,4.246-4.822c1.772,2.095,4.549,3.619,7.266,2.35
		c2.565-1.199,2.773-3.625,1.771-5.795c1.618,0.693,3.382,0.998,5.012,0.088c1.717-0.959,2.327-3.139,2.463-4.956
		C748.131,159.348,747.006,156.234,744.833,155.414z"/>
	
		<ellipse fill="none" stroke="#020303" stroke-width="1.0994" stroke-miterlimit="10" cx="729.154" cy="185.723" rx="6.511" ry="9.211"/>
	
		<ellipse fill="none" stroke="#020303" stroke-width="1.0994" stroke-miterlimit="10" cx="747.923" cy="184.443" rx="6.071" ry="8.436"/>
	<path fill="none" stroke="#020303" stroke-width="1.0994" stroke-miterlimit="10" d="M733.889,179.412c0,0,4.278-3.66,9.229-0.883"
		/>
	
		<line fill="none" stroke="#020303" stroke-width="1.0994" stroke-miterlimit="10" x1="722.644" y1="184.695" x2="705.949" y2="182.08"/>
	<path fill="#FFFFFF" d="M725.262,256.28c1.559,2.843-2.864,29.911,3.396,39.358c6.26,9.449,24.416-4.051,24.416-4.051l14.844,4.051
		l5.046,12.938l-19.89-6.989c0,0-32.258,15.903-36.758-8.282s-6.894-38.526-6.894-38.526S720.883,248.296,725.262,256.28z"/>
</g>
<g>
</g>
<g>
</g>
<g>
</g>
<g>
</g>
<g>
</g>
<g>
</g>
</svg>
