<?xml version="1.0" encoding="utf-8"?>
<!-- Generator: Adobe Illustrator 16.0.4, SVG Export Plug-In . SVG Version: 6.00 Build 0)  -->
<!DOCTYPE svg PUBLIC "-//W3C//DTD SVG 1.1//EN" "http://www.w3.org/Graphics/SVG/1.1/DTD/svg11.dtd">
<svg version="1.1" id="Layer_1" xmlns="http://www.w3.org/2000/svg" xmlns:xlink="http://www.w3.org/1999/xlink" x="0px" y="0px"
	 width="568.334px" height="529.972px" viewBox="115.208 215.877 568.334 529.972"
	 enable-background="new 115.208 215.877 568.334 529.972" xml:space="preserve">
<g>
	<g>
		
			<rect x="593.374" y="309.376" transform="matrix(0.3141 0.9494 -0.9494 0.3141 725.8292 -380.8097)" fill="#FEEDA4" width="66.177" height="5.093"/>
		
			<rect x="610.459" y="304.927" transform="matrix(0.3141 0.9494 -0.9494 0.3141 733.3224 -400.0827)" fill="#FEEDA4" width="66.177" height="5.091"/>
		
			<rect x="627.001" y="298.538" transform="matrix(0.3141 0.9494 -0.9494 0.3141 738.6 -420.1691)" fill="#FEEDA4" width="66.176" height="5.091"/>
		<circle fill="#FEEDA4" cx="617.158" cy="228.886" r="13.009"/>
		
			<rect x="620.382" y="249.351" transform="matrix(0.9493 -0.3142 0.3142 0.9493 -50.3871 210.7274)" fill="#FEEDA4" width="16.12" height="24.607"/>
		
			<rect x="619.985" y="236.159" transform="matrix(0.9494 -0.314 0.314 0.9494 -45.0219 207.7878)" fill="#FEEDA4" width="5.052" height="14.988"/>
		
			<rect x="625.721" y="334.254" transform="matrix(0.9494 -0.3141 0.3141 0.9494 -73.7319 222.7595)" fill="#FEEDA4" width="57.409" height="11.876"/>
		
			<rect x="605.163" y="272.043" transform="matrix(0.9494 -0.3141 0.3141 0.9494 -54.2114 212.7341)" fill="#FEEDA4" width="55.713" height="5.09"/>
		<g>
			<path fill="#FEEDA4" stroke="#FFFFFF" stroke-width="1.3638" stroke-miterlimit="10" d="M622.697,236.371
				c-4.152,2.933-10.148,1.869-13.387-2.372c-3.241-4.238-2.5-10.053,1.656-12.98c4.15-2.93,10.15-1.871,13.391,2.371
				C627.594,227.628,626.852,233.442,622.697,236.371z"/>
			
				<path fill="#FEEDA4" stroke="#FFFFFF" stroke-width="1.3638" stroke-linecap="round" stroke-linejoin="round" stroke-miterlimit="10" d="
				M614.59,222.403c-0.19-0.107,5.202,4.082,5.202,4.082l-3.791-0.668l3.553,7.607l-2.504,1.098l-4.621-11.443
				C612.428,223.079,614.781,222.512,614.59,222.403z"/>
		</g>
	</g>
	<g>
		<path fill="#110906" d="M470.991,467.984c0.999,9.156,2.289,22.63,2.928,42.93c0.078,2.503-18.646,31.783-11.553,34.048
			c11.029,3.519,17.361-32.921,17.361-32.921s1.617-21.097-2.449-42.938c-1.162-6.233-1.438-12.143-1.337-17.46
			c-1.896-0.112-3.792-0.259-5.688-0.446C470.63,460.39,470.928,467.399,470.991,467.984z"/>
		<path fill="#FFFFFF" d="M479.281,406.146c-5.409-1.225-10.914-2.554-10.914-2.554s1.109,28.509,1.889,47.603
			c1.896,0.188,3.791,0.334,5.688,0.446c0.166-8.895,1.448-16.151,1.737-20.61L479.281,406.146z"/>
		<path fill="#110906" d="M507.004,469.39c0.767,9.182,2.076,22.649,5.333,42.699c0.396,2.471,22.854,27.081,16.538,31.038
			c-8.639,5.413-22.026-28.825-22.026-28.825s-5.619-20.396-5.805-42.614c-0.053-6.343-0.905-12.191-2.023-17.395
			c1.838-0.474,3.674-0.978,5.497-1.526C505.906,461.862,506.952,468.802,507.004,469.39z"/>
		<path fill="#FFFFFF" d="M487.046,410.275c5.075-2.235,10.226-4.594,10.226-4.594s4.36,28.196,7.246,47.083
			c-1.823,0.551-3.659,1.055-5.497,1.526c-1.864-8.695-4.51-15.577-5.646-19.897L487.046,410.275z"/>
		<path fill="#110906" d="M472.836,393.259l25.855,1.552c0,0,12.664,35.077,12.221,35.237c-12.568,4.607-46.401-1.023-46.401-1.023
			L472.836,393.259z"/>
		<path fill="#FFFFFF" d="M490.995,328.824c0,0-24.311-37.397-37.766-34.042c-13.457,3.354,4.868,34.131,4.868,34.131l7.058,2.815
			c0,0-16.307-24.994-6.296-27.811c10.012-2.816,25.831,34.153,26.462,34.298"/>
		<path fill="#0E8CCD" d="M500.662,402.723l-34.665-6.841c3.15-8.522,21.926-78.663,23.522-72.651
			c4.844,18.248,27.629,26.492,36.607,27.627C529.816,351.325,504.49,393.604,500.662,402.723z"/>
		<path fill="#FFFFFF" d="M492.972,344.654"/>
		<path fill="#110906" d="M483.131,275.639c-8,18.426,12.968,45.549,24.769,50.674c21.732,9.434,45.876,2.049,53.935-16.506
			c8.053-18.543-3.043-41.228-24.772-50.663C515.325,249.706,491.18,257.095,483.131,275.639z"/>
		<path fill="#110906" d="M495.354,239.058c-3.934,9.069,1.488,20.156,12.106,24.766c10.628,4.615,22.433,1.006,26.365-8.065
			c3.938-9.062-1.48-20.153-12.107-24.765C511.095,226.382,499.29,229.989,495.354,239.058z"/>
		<g>
			<g>
				<path fill="#FFFFFF" d="M525.224,250.141c2.323,0.099,4.536-0.81,5.475-3.042c1.037-2.466-1.725-3.907-3.658-4.257
					c-0.045,0.332-0.09,0.665-0.135,0.997c4.395,0.212,4.434-3.439,2.119-6.223c-2.937-3.535-7.531-3.51-9.902,0.513
					c0.312,0.13,0.618,0.261,0.93,0.391c1.724-4.792-6.238-7.348-6.577-1.854c-0.04,0.654,0.976,0.65,1.016,0
					c0.239-3.895,5.835-1.896,4.583,1.585c-0.198,0.554,0.645,0.875,0.929,0.391c1.938-3.292,5.153-3.316,7.812-0.834
					c2.048,1.914,2.918,5.201-0.905,5.017c-0.564-0.027-0.701,0.894-0.135,0.997c1.602,0.291,3.496,1.021,2.949,3.009
					c-0.509,1.849-2.893,2.365-4.496,2.297C524.569,249.099,524.571,250.114,525.224,250.141L525.224,250.141z"/>
			</g>
		</g>
		<g>
			<g>
				<path fill="#FFFFFF" d="M515.536,247.866c1.959-0.9,3.014-2.747,1.339-4.51c-1.907-2.009-4.533-0.34-5.619,1.553
					c0.31,0.13,0.617,0.261,0.928,0.391c1.132-3.656-1.069-6.416-4.759-6.801c-3.369-0.352-5.456,2.202-3.486,5.153
					c0.266-0.205,0.531-0.41,0.797-0.615c-2.105-2.088-5.131-2.397-6.329,0.727c-1.622,4.23,3.335,6.4,6.144,7.994
					c0.567,0.324,1.081-0.553,0.512-0.876c-1.553-0.882-3.188-1.593-4.549-2.776c-1.223-1.062-1.463-2.559-1.126-4.072
					c0.6-2.688,3.391-1.51,4.634-0.279c0.401,0.398,1.123-0.125,0.797-0.615c-1.62-2.425,0.112-3.758,2.609-3.625
					c3.071,0.163,4.666,2.655,3.778,5.517c-0.172,0.555,0.646,0.887,0.93,0.391c0.771-1.349,1.918-2.379,3.515-1.694
					c1.969,0.845,0.757,2.628-0.621,3.262C514.431,247.263,514.947,248.137,515.536,247.866L515.536,247.866z"/>
			</g>
		</g>
		<g>
			<g>
				<path fill="#FFFFFF" d="M549.14,281.189c7.438-2.201-0.877-9.496-5.828-7.607c0.19,0.249,0.382,0.497,0.573,0.746
					c3.041-4.389-2.878-10.965-7.438-7.842c0.231,0.231,0.463,0.464,0.694,0.695c2.027-2.952-0.709-6.708-4.149-5.463
					c-0.608,0.221-0.348,1.202,0.271,0.979c2.575-0.931,4.554,1.715,3.003,3.971c-0.284,0.415,0.28,0.979,0.693,0.694
					c3.739-2.562,8.518,2.892,6.05,6.451c-0.244,0.354,0.163,0.902,0.571,0.746c3.658-1.394,11.19,3.905,5.289,5.65
					C548.243,280.396,548.511,281.375,549.14,281.189L549.14,281.189z"/>
			</g>
		</g>
		<g>
			<g>
				<path fill="#FFFFFF" d="M528.398,272.663c1.021-1.021,1.738-2.396,2.34-3.69c0.102-0.216,0.088-0.436-0.08-0.615
					c-1.596-1.711-3.505-2.226-5.775-1.722c-0.646,0.145-0.366,1.101,0.27,0.979c5.321-1.018-0.337-7.212-3.886-6.416
					c-0.639,0.143-0.368,1.122,0.27,0.979c2.299-0.515,7.071,3.747,3.349,4.458c0.09,0.326,0.18,0.652,0.27,0.979
					c0.968-0.214,1.637-0.245,2.603-0.03c0.237,0.053,2.128,0.838,1.916,1.295c-0.494,1.065-1.152,2.233-1.985,3.066
					C527.219,272.408,527.936,273.126,528.398,272.663L528.398,272.663z"/>
			</g>
		</g>
		<g>
			<g>
				<path fill="#C5843D" d="M509.271,292.798c-0.044,0.021-0.086,0.043-0.115,0.056
					C509.185,292.841,509.227,292.818,509.271,292.798z"/>
				<path fill="#C5843D" d="M513.385,291.025c0.077-0.031,0.143-0.059,0.188-0.073C513.53,290.965,513.471,290.994,513.385,291.025z
					"/>
				<path fill="#FFFFFF" d="M496.746,295.896c0.899,0.432,1.767,1.15,2.415,2.002c0.258,0.193,0.503,0.402,0.741,0.644
					c0.497,0.502-1.489,0.103-1.1,0.679c0.082,0.121,0.183,0.237,0.269,0.36c0.006-0.036,0.001-0.065,0.016-0.101
					c0.572-2.553,2.271-4.569,3.271-6.963c1.296-3.125,2.697-5.848,4.924-8.449c4.188-4.896,13.651-1.663,19.428,0.021
					c7.287,2.127,14.49,5.541,20.92,9.547c2.199,1.373,5.532,7.49,5.253,8.084c-2.65,5.625-5.552,9.021-4.989,18.959
					c0.497,4.462-0.128,8.396-2.031,12.255c-2.812,5.711-23.211,2.137-28.514,1.646c-6.217-0.575-3.167,20.625-14.348,8.428
					c-1.401-1.53,6.838-11.09,5.811-11.965c-18.096-12.187-11.021-17.073-13.45-20.799c-1.868-2.418-4.081-5.175-4.605-8.085
					c-0.012-0.022-0.021-0.042-0.022-0.062c-0.145-0.558-0.162-1.078-0.09-1.562c0.031-0.548,0.126-1.101,0.312-1.656
					C491.575,297.003,494.54,294.85,496.746,295.896z"/>
				<path fill="#C5843D" d="M513.572,290.952C513.666,290.907,513.656,290.912,513.572,290.952L513.572,290.952z"/>
			</g>
			<path fill="#C5843D" d="M509.155,292.854C509.057,292.895,509.062,292.891,509.155,292.854L509.155,292.854z"/>
		</g>
		<path fill="none" stroke="#020303" stroke-width="0.8382" stroke-miterlimit="10" d="M536.015,314.01
			c-0.694,1.592,0.028,1.704,1.042,2.146c1.02,0.438,1.952,1.044,2.643-0.551c0.689-1.584,0.427-3.229-0.598-3.672
			C538.09,311.493,536.7,312.423,536.015,314.01z"/>
		<path fill="none" stroke="#020303" stroke-width="0.8382" stroke-miterlimit="10" d="M512.205,304.354
			c-0.688,1.588,0.549,1.27,1.566,1.709c1.015,0.442,1.428,1.482,2.12-0.107c0.688-1.588,0.422-3.236-0.599-3.678
			C514.279,301.835,512.896,302.764,512.205,304.354z"/>
		<g>
			<g>
				<path fill="#020303" d="M532.679,327.089c-3.484-0.378-7.065-2.165-10.219-3.565c-3.631-1.611-7.675-3.4-10.599-6.157
					c-0.393-0.371-0.984,0.221-0.592,0.593c2.995,2.825,7.062,4.613,10.766,6.289c3.307,1.495,6.993,3.284,10.644,3.679
					C533.217,327.984,533.211,327.146,532.679,327.089L532.679,327.089z"/>
			</g>
		</g>
		<g>
			<g>
				<path fill="#020303" d="M532.638,327.245c-5.722-6.027-13.996-7.386-21.408-10.281c-0.504-0.196-0.721,0.614-0.223,0.81
					c7.272,2.842,15.423,4.147,21.039,10.064C532.419,328.23,533.01,327.636,532.638,327.245L532.638,327.245z"/>
			</g>
		</g>
		<g>
			<g>
				<path fill="#020303" d="M510.967,317.51c-0.369,3.307,4.284,6.244,6.607,7.694c3.934,2.453,9.079,4.248,13.674,2.81
					c-0.105-0.256-0.215-0.512-0.321-0.767c-4.289,3.051-10.446,2.96-14.53-0.362c-2.665-2.167-4.289-5.984-4.592-9.375
					C511.757,316.977,510.919,316.971,510.967,317.51c0.351,3.924,2.238,7.856,5.304,10.348c4.155,3.381,10.793,3.162,15.08,0.113
					c0.367-0.261,0.157-0.916-0.323-0.766c-4.264,1.335-8.787-0.322-12.512-2.418c-2.178-1.227-7.052-4.221-6.711-7.276
					C511.863,316.973,511.025,316.979,510.967,317.51z"/>
			</g>
		</g>
		<g>
			<g>
				<path fill="#A42423" d="M526.547,304.191c-4.551-4.25-11.776-7.855-18.109-7.928c-4.686-0.055-6.532,6.545-6.34,10.268
					c0.271,5.25,8.307,7.796,12.473,8.644c6.542,1.331,10.451-4.567,12.07-10.131c0.303-1.04-1.315-1.481-1.617-0.444
					c-0.705,2.424-1.838,4.66-3.438,6.618c-1.953,2.388-4.392,2.784-7.289,2.194c-3.541-0.721-10.324-3.092-10.549-7.391
					c-0.099-1.905,0.762-4.15,1.555-5.851c1.128-2.419,3.345-2.407,5.67-1.907c5.233,1.125,10.454,3.437,14.391,7.113
					C526.149,306.114,527.338,304.932,526.547,304.191L526.547,304.191z"/>
			</g>
		</g>
		<path fill="none" stroke="#A42423" stroke-width="1.337" stroke-miterlimit="10" d="M532.623,307.338c0,0-2.724-3.419-6.793-2.517
			"/>
		<g>
			<g>
				<path fill="#A42423" d="M504.925,298.076c-1.488-1.166-2.965-2.348-4.438-3.534c-0.833-0.672-2.024,0.506-1.186,1.187
					c1.471,1.188,2.945,2.369,4.436,3.533C504.578,299.92,505.774,298.742,504.925,298.076L504.925,298.076z"/>
			</g>
		</g>
		<g>
			<g>
				<path fill="#020303" d="M522.732,295.863c-2.111-0.303-4.179-0.844-6.308-1.023c-0.539-0.046-0.534,0.792,0,0.838
					c2.054,0.174,4.049,0.702,6.085,0.994C523.037,296.748,523.266,295.939,522.732,295.863L522.732,295.863z"/>
			</g>
		</g>
		<g>
			<g>
				<path fill="#020303" d="M546.148,306.643c-0.235-0.64-1.259-1.076-1.788-1.41c-1.015-0.637-2.07-1.223-3.044-1.922
					c-0.44-0.315-0.858,0.412-0.424,0.725c0.744,0.533,1.541,0.994,2.32,1.473c0.462,0.284,0.923,0.57,1.378,0.866
					c0.163,0.106,0.757,0.512,0.749,0.491C545.524,307.367,546.336,307.15,546.148,306.643L546.148,306.643z"/>
			</g>
		</g>
		<g>
			<g>
				<path fill="#A42423" d="M531.9,306.915c-2.776,4.603-3.938,10.708,0.897,14.296c3.512,2.605,9.927,6.077,14.332,4.15
					c3.357-1.469,6.58-7.889,3.721-10.959c-4.315-4.635-12.118-7.416-18.282-8.01c-1.076-0.103-1.064,1.574,0,1.678
					c5.102,0.49,9.867,2.591,14.195,5.246c2.188,1.345,4.183,2.816,3.263,5.584c-0.615,1.852-2.041,4.033-3.742,5.016
					c-3.029,1.75-9.022-1.811-11.565-3.391c-1.994-1.238-3.442-2.879-3.609-5.284c-0.18-2.587,0.935-5.312,2.24-7.479
					C533.907,306.833,532.457,305.991,531.9,306.915L531.9,306.915z"/>
			</g>
		</g>
		<g>
			<path fill="#FFFFFF" d="M529.535,307.868c-1.81,2.971-1.587,3.934-2.003,7.297c1.397,0.397,2.672,0.879,3.855,0.558
				c0.627,7.12-4.237,4.258-6.579,3.03"/>
			<g>
				<path fill="#020304" d="M529.296,307.727c-1.438,2.438-1.72,4.676-2.041,7.438c-0.017,0.123,0.096,0.237,0.205,0.271
					c1.035,0.303,2.293,0.836,3.402,0.654c0.873-0.143-0.173,3.371-0.746,3.77c-1.405,0.981-3.922-0.691-5.167-1.348
					c-0.316-0.168-0.601,0.314-0.279,0.482c1.39,0.732,3.239,1.926,4.896,1.625c2.255-0.41,2.219-3.098,2.103-4.897
					c-0.015-0.194-0.169-0.3-0.354-0.27c-1.138,0.187-1.984-0.06-3.019-0.355c-0.742-0.212-0.273-1.843-0.223-2.329
					c0.19-1.759,0.812-3.242,1.702-4.759C529.962,307.698,529.478,307.417,529.296,307.727L529.296,307.727z"/>
			</g>
		</g>
		<path fill="#FFFFFF" d="M623.449,310.383c-0.312-0.107-0.624-0.214-0.938-0.322c0.133,0.305,0.268,0.614,0.404,0.932
			c0,0-53.12,34.744-90.643,36.615l8.809,6.981c28.847-3.012,83.091-32.333,88.401-39.771
			C627.361,313.544,625.327,312.055,623.449,310.383z"/>
		<path fill="#0E8CCD" d="M509.538,349.973c0.429,1.795,35.021-6.113,35.021-6.113l1.048,19.404c0,0-26.62-0.505-38.062,6.76
			C496.1,377.29,509.119,348.209,509.538,349.973z"/>
		<path fill="#FFFFFF" d="M622.134,313.557c0,0-6.804-10.091-1.229-14.634c5.572-4.545,12.15-3.391,12.15-3.391l4.614-0.911
			c0,0,1.372,3.23-2.132,4.663c-3.505,1.43-6.794,0.914-6.794,0.914l-1.217,3.446c0,0,7.943,8.793,5.938,11.17
			c-0.193,0.229-3.543,1.812-3.854,0.47l-1.73,1.176L622.134,313.557z"/>
	</g>
	<g>
		<g>
			<path fill="#FFFFFF" d="M458.906,319.023c-0.88-1.131-2.729-3.842-3.985-5.457c-2.783,2.427-5.293,13.199-3.554,16.771
				c4.041-0.811,2.584-9.016,5.277-11.889c0.663,0.52,1.131,1.453,1.185,2.189"/>
		</g>
		<g>
			<path fill="#FFFFFF" d="M467.346,325.764c-0.545-6.729-3.118-8-4.375-9.615c-2.782,2.427-5.292,13.199-3.551,16.771
				c4.041-0.811,2.583-9.016,5.273-11.889c0.665,0.52-1.119,3.46-0.536,3.397"/>
		</g>
		<g>
			<path fill="#FFFFFF" d="M462.777,320.15c-0.88-1.131-2.729-3.842-3.984-5.457c-2.783,2.428-5.295,13.201-3.554,16.773
				c4.041-0.81,2.583-9.016,5.275-11.89c0.665,0.521,1.132,1.454,1.187,2.19"/>
		</g>
		<g>
			<path fill="#FFFFFF" d="M454.09,315.969c-1.005-1.293-1.979-2.871-3.503-3.501c-1.383,2.892-4.719,13.271-2.291,16.054
				c3.443-1.904,1.322-10.631,4.557-10.812"/>
		</g>
	</g>
	<path fill="#A42423" d="M505.867,336.423c0,0-22.349,1.843,2.988,20.604c11.521,8.529,10.168,25.449,10.168,25.449
		s4.132-18.977-6.2-26.428c-9.6-6.924-18.272-17.404-8.977-16.191C503.968,339.874,505.935,336.573,505.867,336.423z"/>
	<path fill="#81CFF5" d="M511.931,343.497l1.399-3.708c0,0,10.927,9.165,12.365,20.154c1.451,11.086-6.611,22.451-6.673,22.533
		c0,0,6.014-12.735,4.271-22.672C520.822,345.721,511.931,343.497,511.931,343.497z"/>
	<path fill="#81CFF5" d="M516.686,355.081c-4.354-3.14-6.4-6.445-10.896-10.19c-3.685-4.275-3.253-3.009-2.325-5.789
		c0.724-0.722,0.938-1.947,1.733-2.601c-4.862,1.839-9.758,6.765,7.521,19.56c11.518,8.528,10.168,25.45,10.168,25.45
		S527.018,362.534,516.686,355.081z"/>
	<path fill="#A42423" d="M511.427,344.77l1.399-3.707c0,0,10.928,9.164,12.365,20.155c1.453,11.085,0.447,21.938,0.389,22.021
		c0,0-1.048-12.225-2.791-22.159C520.318,346.991,511.427,344.77,511.427,344.77z"/>
	<g>
		<path fill="#FEEDA4" d="M516.581,423.976c-6.694,2.574-14.386-1.223-17.162-8.467c-2.781-7.243,0.396-15.202,7.094-17.772
			c6.702-2.569,14.384,1.219,17.162,8.467C526.453,413.445,523.28,421.402,516.581,423.976z"/>
		<path fill="#FEEDA4" stroke="#FFFFFF" stroke-width="1.9543" stroke-miterlimit="10" d="M519.66,423.662
			c-6.696,2.573-14.38-1.22-17.156-8.464c-2.782-7.245,0.393-15.203,7.092-17.775c6.691-2.567,14.383,1.224,17.163,8.468
			C529.532,413.135,526.357,421.096,519.66,423.662z"/>
		
			<path fill="#FEEDA4" stroke="#FFFFFF" stroke-width="1.9543" stroke-linecap="round" stroke-linejoin="round" stroke-miterlimit="10" d="
			M513.955,400.771c-0.217-0.227,5.49,7.769,5.49,7.769l-4.863-2.392l1.943,12.138l-3.787,0.603l-1.944-17.982
			C510.794,400.904,514.177,400.997,513.955,400.771z"/>
	</g>
	<g>
		<path fill="#FEEDA4" d="M525.788,404.771c-6.693,2.576-14.385-1.223-17.162-8.465c-2.78-7.244,0.396-15.203,7.095-17.773
			c6.7-2.569,14.384,1.22,17.162,8.468C535.659,394.243,532.488,402.199,525.788,404.771z"/>
		<path fill="#FEEDA4" stroke="#FFFFFF" stroke-width="1.9543" stroke-miterlimit="10" d="M528.868,404.462
			c-6.696,2.572-14.38-1.221-17.156-8.465c-2.782-7.246,0.394-15.204,7.09-17.774c6.693-2.568,14.385,1.221,17.165,8.467
			C538.74,393.934,535.564,401.895,528.868,404.462z"/>
		
			<path fill="#FEEDA4" stroke="#FFFFFF" stroke-width="1.9543" stroke-linecap="round" stroke-linejoin="round" stroke-miterlimit="10" d="
			M523.163,381.568c-0.217-0.227,5.49,7.771,5.49,7.771l-4.862-2.391l1.942,12.136l-3.787,0.604l-1.944-17.984
			C520,381.702,523.384,381.796,523.163,381.568z"/>
	</g>
	<g>
		<path fill="#FFFFFF" d="M630.36,301.016c-3.179,0.521-5.765,0.479-8.775,1.692c-4.899,2.033-0.834,2.647,2.171,2.416
			c2.051-0.125,10.204,0.94,11.724-0.896c1.666-2.235-4.497-3.168-5.71-3.119"/>
	</g>
	<g>
		<path fill="#FFFFFF" d="M626.102,305.096c-1.68,0.649-4.077,0.858-5.444,1.801c-2.763,2.254,1.992,3.192,3.812,3.123
			c2.453,0.021,8.491-0.326,10.5-2.155c1.311-1.169,0.803-2.765-0.809-3.356"/>
	</g>
	<g>
		<path fill="#FFFFFF" d="M625.549,308.902c-1.021,0.855-3.19,1.5-3.921,2.533c-1.934,2.666,4.223,2.289,5.781,2.16
			c2.398-0.209,11.998-2.024,6.836-5.683"/>
	</g>
	<g>
		<path fill="#FFFFFF" d="M624.953,314.014c-0.863-0.037-3.79,1.033-3.915,2.041c-0.25,2.021,4.953,1.26,6.022,1.124
			c1.417-0.218,8.038-1.194,8.485-2.895c0.27-0.921-1.395-2.234-2.109-2.677"/>
	</g>
</g>
</svg>
