<?xml version="1.0" encoding="utf-8"?>
<!-- Generator: Adobe Illustrator 16.0.4, SVG Export Plug-In . SVG Version: 6.00 Build 0)  -->
<!DOCTYPE svg PUBLIC "-//W3C//DTD SVG 1.1//EN" "http://www.w3.org/Graphics/SVG/1.1/DTD/svg11.dtd">
<svg version="1.1" id="Layer_1" xmlns="http://www.w3.org/2000/svg" xmlns:xlink="http://www.w3.org/1999/xlink" x="0px" y="0px"
	 width="568.336px" height="529.969px" viewBox="115.21 215.877 568.336 529.969"
	 enable-background="new 115.21 215.877 568.336 529.969" xml:space="preserve">
<g>
	<g>
		<g>
			<path fill="#FFFFFF" d="M458.906,319.023c-0.88-1.131-2.729-3.842-3.983-5.457c-2.783,2.429-5.293,13.199-3.556,16.771
				c4.041-0.812,2.584-9.016,5.277-11.889c0.663,0.52,1.131,1.452,1.185,2.188"/>
		</g>
		<g>
			<path fill="#FFFFFF" d="M467.346,325.764c-0.545-6.729-3.118-8-4.375-9.615c-2.782,2.428-5.292,13.199-3.551,16.771
				c4.041-0.812,2.583-9.016,5.271-11.889c0.665,0.52-1.119,3.461-0.536,3.395"/>
		</g>
		<g>
			<path fill="#FFFFFF" d="M462.777,320.15c-0.88-1.131-2.729-3.842-3.982-5.457c-2.783,2.429-5.297,13.201-3.556,16.772
				c4.041-0.811,2.583-9.016,5.275-11.891c0.665,0.521,1.132,1.455,1.187,2.19"/>
		</g>
		<g>
			<path fill="#FFFFFF" d="M454.09,315.967c-1.005-1.293-1.979-2.869-3.503-3.5c-1.385,2.893-4.721,13.271-2.291,16.055
				c3.441-1.902,1.32-10.631,4.557-10.812"/>
		</g>
	</g>
</g>
</svg>
