<?xml version="1.0" encoding="utf-8"?>
<!-- Generator: Adobe Illustrator 16.0.4, SVG Export Plug-In . SVG Version: 6.00 Build 0)  -->
<!DOCTYPE svg PUBLIC "-//W3C//DTD SVG 1.1//EN" "http://www.w3.org/Graphics/SVG/1.1/DTD/svg11.dtd">
<svg version="1.1" id="Layer_1" xmlns="http://www.w3.org/2000/svg" xmlns:xlink="http://www.w3.org/1999/xlink" x="0px" y="0px"
	 width="568.342px" height="529.97px" viewBox="115.209 215.877 568.342 529.97"
	 enable-background="new 115.209 215.877 568.342 529.97" xml:space="preserve">
<g>
	<path fill="#FFFFFF" d="M406.033,412.229c-0.95-3.453-5.79-4.01-8.689-4.51c-5.673-0.974-10.569-1.831-15.646-4.784
		c-4.707-2.734-8.818-6.845-12.683-10.644c-4.551-4.473-7.252-8.747-8.659-14.941c-0.361-1.585-1.921-1.851-3.046-1.264
		c-2.356-1.271-5.522-0.923-8.706-0.652c-4.025,0.337-9.356-1.322-12.881,1.234c-1.023,0.146-2.054,1.014-1.943,2.135
		c1.067,10.955,6.398,19.766,15.099,26.419c5.184,3.963,10.655,7.107,16.841,9.221c3.3,1.127,6.743,1.774,10.183,2.28
		c1.695,0.252,3.404,0.274,5.111,0.264c-1.558,1.077-2.871,2.437-4.817,2.903c-1.641,0.396-2.024,2.472-0.956,3.623
		c4.58,4.922,12.264,8.729,19.045,6.984c3.492-0.898,6.146-4.521,7.967-7.38C403.847,420.611,406.892,415.348,406.033,412.229z"/>
	<path fill="#DFF1FB" d="M394.539,318.065c1.618-0.369-39.33,8.731-57.046,30.228c-8.46,10.266-9.304,21.008-8.329,28.636
		c-0.562,0.058-1.083,0.054-1.565-0.002c-0.194-0.055-0.389-0.095-0.58-0.095c-0.378,0-0.704,0.087-0.986,0.23
		c-1.126,0.483-1.685,1.804-1.343,2.804c-0.323,0.926,0.024,2.086,0.97,2.545c0.103,0.054,0.194,0.109,0.294,0.16
		c-0.495,0.671-0.693,1.565-0.14,2.282c0.515,0.66,1.097,1.229,1.751,1.668c-0.708,1.335-0.108,3.256,1.83,3.05
		c8.202-0.871,15.678-4.667,23.678-6.451c6.012-1.343,12.61-2.858,10.594-9.986c-0.082-0.293-0.254-0.58-0.48-0.834
		c0.868-1.324-0.176-3.258-1.897-3.252c-0.141,0-0.282,0.02-0.424,0.021c2.819-4.508,8.277-10.223,18.753-13.908
		C399.139,348.292,394.377,317.842,394.539,318.065z M349.538,379.683l0.496-0.218c1.255-0.213,2.51-0.443,3.754-0.73
		c1.714-0.394,3.227-1.316,4.816-2.025C356.809,378.347,352.625,379.121,349.538,379.683z"/>
</g>
<g>
	<g>
		<path fill="#DFF1FB" d="M438.41,436.984c-3.917,7.146,35.552-81.164,23.187-96.701c-8.944-11.242-8.365-15.191-14.312-19.9
			c-2.099-1.664,3.908-4.243,1.441-5.241c-5.571-2.255-25.89-5.078-36.567-4.589c-12.527,0.576-23.195,5.505-31.321,8.39
			c-2.085,0.74-1.604,11.813-3.016,13.367c-6.281,6.907-6.135,10.054-4.761,24.707c3.046,32.481,4.197,37.508,17.038,82.956
			C390.102,439.972,440.213,437.525,438.41,436.984"/>
		<path fill="#FFFFFF" d="M438.982,315.564c1.031,0.801-30.353,14.566-36.14,38.977c-0.15,0.64-18.335-31.688-18.335-31.688
			s7.073-14.433,4.422-16.556c-2.653-2.125-10.614-2.125-14.152-6.793c-3.537-4.672,7.962-51.799,13.71-62.413
			c5.75-10.613,35.384-4.669,39.362,0C431.829,241.761,429.695,308.346,438.982,315.564z"/>
		<path fill="#1E1E1C" d="M374.1,223.876c2.494-2.008,5.822-2.131,9.04-1.297c0.11-1.656,1.07-3.146,3.421-4.143
			c4.069-1.727,8.51-0.76,12.311,1.396c4.188-3.811,20.723,7.252,26.408,12.55c5.382,5.009,8.769,9.038,7.072,17.552
			c-0.479-0.412-9.484-2.318-9.659-2.816c0.173,1.658-1.56-8.558-1.724-8.609c-3.896-1.219-14.741-1.963-18.771-1.842
			c-7.704,0.23-15.611,1.058-22.858-1.918C375.371,233.118,369.273,227.768,374.1,223.876z"/>
		<ellipse fill="#FFFFFF" cx="434.927" cy="262.565" rx="8.4" ry="8.277"/>
		<g>
			<g>
				<path fill="#1E1E1C" d="M407.185,261.863c0.062,1.874,0.508,4.699,2.775,5.005c2.222,0.297,2.729-3.634,2.773-5.005
					c0.062-1.864-0.589-4.711-2.773-5.005C407.739,256.561,407.231,260.492,407.185,261.863c-0.023,0.688,1.045,0.687,1.068,0
					c0.04-1.196,0.182-3.358,1.545-3.915c1.496-0.61,1.852,3.368,1.87,3.915c0.032,1.037-0.244,3.74-1.708,3.937
					c-1.44,0.193-1.686-3.219-1.707-3.937C408.229,261.176,407.159,261.174,407.185,261.863z"/>
			</g>
		</g>
		<g>
			<g>
				<path fill="#1E1E1C" d="M390.114,261.697c0.063,1.875,0.508,4.699,2.776,5.003c2.221,0.297,2.729-3.632,2.776-5.003
					c0.062-1.865-0.591-4.712-2.776-5.006C390.669,256.394,390.159,260.324,390.114,261.697c-0.021,0.688,1.045,0.687,1.068,0
					c0.035-1.046,0.188-3.734,1.708-3.938c1.439-0.193,1.684,3.219,1.708,3.938c0.035,1.036-0.245,3.739-1.708,3.935
					c-1.442,0.195-1.687-3.216-1.708-3.935C391.157,261.01,390.092,261.008,390.114,261.697z"/>
			</g>
		</g>
		<g>
			<g>
				<path fill="#1E1E1C" d="M398.682,261.36c0.048,3.396-1.121,6.595-1.554,9.935c0.29-0.168,0.579-0.334,0.867-0.5
					c-2.999-1.543-10.221-1.082-8.518,3.904c1.508,4.412,9.588,6.227,12.603,2.635c0.479-0.565-0.337-1.389-0.813-0.815
					c-2.401,2.858-7.121,1.399-9.586-0.651c-1.95-1.625-1.501-3.828,0.785-4.578c1.595-0.521,3.479-0.25,4.945,0.506
					c0.427,0.217,0.813-0.062,0.87-0.5c0.437-3.351,1.604-6.522,1.557-9.934C399.825,260.616,398.672,260.615,398.682,261.36
					L398.682,261.36z"/>
			</g>
		</g>
		<g>
			<g>
				<path fill="#1E1E1C" d="M437.851,258.483c-1.71-0.426-3.942-0.767-5.438,0.407c-1.449,1.141,0.728,2.884,1.541,3.464
					c0.376,0.268,2.854,0.757,1.683,1.486c-0.557,0.345-1.309,0.368-1.896,0.662c-1.419,0.709-0.92,1.889,0.101,2.73
					c0.566,0.471,1.392-0.342,0.813-0.816c-1.297-1.075,0.565-1.111,1.403-1.502c0.784-0.366,1.139-1.31,1.021-2.132
					c-0.132-0.927-1.928-1.104-2.541-1.425c-0.15-0.081-1.727-1.147-1.308-1.648c0.253-0.303,0.995-0.378,1.334-0.418
					c0.996-0.117,2.015,0.068,2.979,0.308C438.268,259.777,438.573,258.663,437.851,258.483L437.851,258.483z"/>
			</g>
		</g>
		<g>
			<g>
				<path fill="#1E1E1C" d="M418.076,253.846c-4.104-0.696-8.266-1.445-12.427-1.688c-0.745-0.043-0.741,1.113,0,1.156
					c4.062,0.237,8.113,0.967,12.12,1.646C418.501,255.084,418.812,253.97,418.076,253.846L418.076,253.846z"/>
			</g>
		</g>
		<g>
			<g>
				<path fill="#1E1E1C" d="M397.396,251.335c-3.432,0.055-6.763,0.792-10.162,1.172c-0.729,0.082-0.74,1.239,0,1.156
					c3.396-0.379,6.734-1.117,10.162-1.172C398.141,252.479,398.143,251.323,397.396,251.335L397.396,251.335z"/>
			</g>
		</g>
		<path fill="#1E1E1C" d="M432.352,250.762l-9.314-1.655l0.862,6.126c0,0,8.969-1.985,8.107-1.656
			C431.144,253.907,432.352,250.762,432.352,250.762z"/>
		<path fill="#DFF1FB" d="M459.236,357.102c10.695,3.912,16.272,9.979,19.146,14.763c-0.146-0.003-0.287-0.017-0.435-0.021
			c-1.758-0.006-2.826,2.05-1.938,3.451c-0.229,0.269-0.406,0.574-0.49,0.886c-2.056,7.567,4.682,9.176,10.816,10.601
			c8.169,1.896,15.804,5.926,24.176,6.85c1.977,0.221,2.59-1.82,1.873-3.238c0.666-0.463,1.262-1.07,1.785-1.771
			c0.562-0.761,0.36-1.709-0.142-2.422c0.101-0.054,0.195-0.115,0.297-0.168c0.966-0.49,1.321-1.722,0.992-2.703
			c0.349-1.06-0.223-2.464-1.37-2.978c-0.29-0.149-0.622-0.244-1.008-0.244c-0.195,0-0.396,0.043-0.593,0.103
			c-0.492,0.061-1.023,0.062-1.597,0.002c0.99-8.099,0.135-19.5-8.505-30.398c-18.09-22.818-59.898-32.479-58.244-32.084
			C444.171,317.49,439.311,349.811,459.236,357.102z M480.695,379.975c1.623,0.754,3.166,1.731,4.916,2.151
			c1.271,0.306,2.553,0.549,3.832,0.773l0.509,0.232C486.803,382.535,482.53,381.714,480.695,379.975z"/>
		<path fill="#110906" d="M438.894,432.208c0,0-37.23,9.549-51.059,1.936l19.721,104.141c0,0-39.675,1.086-31.899,8.113
			c7.775,7.023,36.994-3.895,36.994-3.895s-7.935-83.357,0-83.357c14.69,0,5.371,83.15,5.371,83.15s39.068,14.053,40.299,6.439
			c1.229-7.611-33.514-11.125-33.514-11.125L438.894,432.208z"/>
		<g>
			<g>
				<path fill="#020303" d="M388.891,282.707c6.521,0.734,13.284,1.215,19.812,0.275c0.815-0.115,5.957-0.592,5.34-2.428
					c-0.149-0.441-0.724-0.424-0.88,0c-1.521,4.119-4.585,9.688-9.429,10.121c-5.118,0.459-10.876-1.572-15.609-3.379
					c-0.552-0.209-0.784,0.67-0.242,0.877c5.129,1.957,11.445,4.162,16.992,3.27c4.625-0.746,7.716-6.711,9.168-10.646
					c-0.292,0-0.587,0-0.88,0c0.239,0.707-6.786,1.535-7.157,1.566c-5.69,0.471-11.456,0.074-17.115-0.564
					C388.309,281.73,388.315,282.641,388.891,282.707L388.891,282.707z"/>
			</g>
		</g>
		<g>
			<g>
				<path fill="#020303" d="M391.099,285.947c5.236,2.615,11.762,2.127,17.049,0.047c0.539-0.213,0.304-1.094-0.242-0.877
					c-5.046,1.984-11.329,2.553-16.348,0.045C391.033,284.9,390.573,285.686,391.099,285.947L391.099,285.947z"/>
			</g>
		</g>
		<g>
			<g>
				<path fill="#020303" d="M389.206,283.068c1.35,0.498-0.329,3.781-0.663,4.625c-0.219,0.545,0.66,0.779,0.877,0.24
					c0.587-1.48,2.336-4.891,0.028-5.742C388.898,281.988,388.661,282.867,389.206,283.068L389.206,283.068z"/>
			</g>
		</g>
		<path fill="#0E8CCD" d="M424.984,429.123l-7.515-67.104l59.293,11.797l-41.954,56.341c0,0,0.604,5.451,6.397,12.096
			c0.482,0.549-6.936,3.611-6.936,3.611s1.178,2.969,0.012,4.082c-4.003,3.814-15.358-3.531-15.358-3.531s1.849-2.189,0.721-2.777
			c-1.367-0.715-4.545-4.146-4.41-4.064C416.225,440.167,424.984,429.123,424.984,429.123z"/>
		<path fill="#81CFF5" d="M419.941,428.228l-24.188-70.421l81.278,28.401l-45.756,41.287c0,0,1.556,5.635,9.191,11.559
			c0.636,0.494-7.312,5.1-7.312,5.1s1.812,2.902,0.659,4.297c-3.95,4.768-18.027-0.869-18.027-0.869s1.76-2.652,0.378-3.064
			c-1.666-0.5-5.82-3.529-5.656-3.469C411.728,441.494,419.941,428.228,419.941,428.228z"/>
		<path fill="#FFFFFF" d="M501.271,389.609c-2.057-4.064-4.855-5.717-8.435-7.957c-2.834-1.775-13.716-4.5-14.81-3.199
			c-4.274,5.088-8.833,7.773-15.207,9.756c-5.414,1.685-11.207,3.539-16.896,3.834c-3.826,0.195-7.201-0.338-10.592-1.203
			c-0.1,1.81-5.497,3.729-4.567,5.166c2.851,4.396-7.236,7.966-3.804,11.888c3.04,1,25.15,2.041,28.319,2.506
			c6.771,0.99,13.36,0.69,20.081-0.517c11.277-2.026,20.45-7.674,26.69-17.354C502.693,391.535,502.153,390.234,501.271,389.609z"/>
		<polygon fill="#A42423" points="393.463,369.809 383.014,328.865 390.302,338.996 394.626,366.419 		"/>
		<polygon fill="#0E8CCD" points="394.871,346.408 388.448,336.277 394.538,365.292 394.626,366.419 		"/>
		<g>
			<path fill="#FEEDA4" d="M399.781,426.556c7.354,0.002,13.312-6.454,13.312-14.405c-0.002-7.95-5.973-14.396-13.319-14.396
				c-7.355,0.008-13.312,6.455-13.307,14.41C386.469,420.111,392.43,426.558,399.781,426.556z"/>
			<path fill="#FEEDA4" stroke="#FFFFFF" stroke-width="2.0029" stroke-miterlimit="10" d="M396.721,427.392
				c7.354-0.002,13.31-6.454,13.305-14.402c-0.004-7.955-5.965-14.4-13.314-14.398c-7.351,0.004-13.312,6.455-13.311,14.41
				C383.406,420.949,389.371,427.396,396.721,427.392z"/>
			
				<path fill="#FEEDA4" stroke="#FFFFFF" stroke-width="2.0029" stroke-linecap="round" stroke-linejoin="round" stroke-miterlimit="10" d="
				M393.767,403.396c0.123-0.297-2.397,9.449-2.397,9.449l3.774-4.072l2.603,12.324l3.847-0.818l-4.751-17.918
				C396.84,402.359,393.638,403.691,393.767,403.396z"/>
		</g>
		<g>
			<path fill="#FEEDA4" d="M388.471,409.354c7.336-0.479,12.857-7.315,12.334-15.248c-0.522-7.937-6.9-13.978-14.232-13.491
				c-7.341,0.487-12.858,7.312-12.335,15.25C374.764,403.796,381.134,409.837,388.471,409.354z"/>
			<path fill="#FFFFFF" stroke="#FEEDA4" stroke-width="2.0029" stroke-miterlimit="10" d="M385.347,409.658
				c7.337-0.482,12.854-7.312,12.329-15.246c-0.525-7.938-6.896-13.979-14.231-13.494c-7.333,0.484-12.855,7.314-12.334,15.252
				C371.637,404.104,378.012,410.143,385.347,409.658z"/>
			<path fill="#FEEDA4" d="M383.145,385.55c0.179-0.268-4.108,8.843-4.108,8.843l4.469-3.304l0.268,12.593l3.93-0.091l-1.34-18.487
				C386.359,385.104,382.967,385.816,383.145,385.55z"/>
		</g>
		<g>
			<path fill="#FEEDA4" d="M390.339,393.464c6.859,2.64,14.739-1.252,17.59-8.676c2.851-7.426-0.407-15.58-7.271-18.215
				c-6.868-2.635-14.738,1.248-17.59,8.678C380.222,382.673,383.473,390.828,390.339,393.464z"/>
			<path fill="#FEEDA4" stroke="#FFFFFF" stroke-width="2.0029" stroke-miterlimit="10" d="M387.182,393.146
				c6.864,2.635,14.737-1.252,17.584-8.676c2.852-7.428-0.402-15.582-7.266-18.219c-6.86-2.633-14.741,1.252-17.593,8.68
				C377.064,382.354,380.319,390.514,387.182,393.146z"/>
			
				<path fill="#FEEDA4" stroke="#FFFFFF" stroke-width="2.0029" stroke-linecap="round" stroke-linejoin="round" stroke-miterlimit="10" d="
				M393.028,369.686c0.226-0.231-5.628,7.963-5.628,7.963l4.987-2.45l-1.992,12.438l3.88,0.617l1.994-18.43
				C396.27,369.82,392.804,369.916,393.028,369.686z"/>
		</g>
		<path fill="#FFFFFF" d="M446.94,398.136c0,0-1.925-9.215-6.271-10.772c-8.199-2.942-23.439,0.841-23.439,0.841
			s-0.512,7.026,3.416,6.646c6.729-0.654,12.312-1.537,11.93,3.517c-0.279,3.717-19.395,9.547-23.792,1.684l-1.255,3.697
			c0,0,1.229,18.412,4.021,19.32c2.795,0.904,2.193,3.543,7.137,1.803c4.94-1.744,21.47-6.671,26.505-15.843
			C450.23,399.852,446.94,398.136,446.94,398.136z"/>
		
			<ellipse transform="matrix(-0.2364 0.9717 -0.9717 -0.2364 906.602 17.594)" fill="#FFFFFF" cx="446.387" cy="365.045" rx="21.155" ry="50.92"/>
		<g>
			<g>
				<path fill="#A42423" d="M401.756,351.468c-0.063,0.14,1.688-1.844,4.646-1.368c2.962,0.479,3.104,1.381,3.104,1.381
					s0.063-5.215-4.222-4.519C401.007,347.66,401.756,351.468,401.756,351.468z"/>
				<path fill="#A42423" d="M408.901,357.41c0,0,2.158-3.678,1.417-6.115c-0.744-2.438-1.217-3.828-1.217-3.828
					s5.051,0.244,4.059,4.195C412.175,355.611,408.901,357.41,408.901,357.41z"/>
				<path fill="#A42423" d="M410.118,357.398c0.062-0.135-6.549,1.912-8.684,1.816c-2.132-0.094,2.62,2.662,5.215,1.518
					C409.242,359.587,410.074,357.49,410.118,357.398z"/>
				<path fill="#A42423" d="M403.493,357.964c0,0-3.008-5.688-2.439-7.27c0.562-1.582,0.562-1.582,0.562-1.582
					s-5.494,4.041-2.896,6.867C401.322,358.8,403.493,357.964,403.493,357.964z"/>
				<path fill="#A42423" d="M397.531,350.88c0.089-0.067-0.819,5.688,1.958,7.041c1.9,0.931-4.548,0.855-3.535-2.299
					C396.971,352.462,397.531,350.88,397.531,350.88z"/>
				<path fill="#A42423" d="M398.175,351.373c0,0-1.023-4.129,1.73-5.145c2.757-1.012,6.162-0.471,6.162-0.471
					s-3.28,1.356-5.386,3.201C398.572,350.805,398.175,351.373,398.175,351.373z"/>
				<path fill="#A42423" d="M404.399,350.764c0.203,0.036,4.807-0.203,4.992,1.75c0.184,1.957-3.356,4.06-3.356,4.06
					s3.124-3.134,2.194-3.896C407.299,351.91,404.399,350.764,404.399,350.764z"/>
				<path fill="#A42423" d="M403.371,351.404c0,0-2.504,1.801-0.596,3.465c1.91,1.666,3.048,1.131,3.048,1.131
					s-1.966-0.271-2.221-2.312C403.347,351.645,403.371,351.404,403.371,351.404z"/>
				<path fill="#A42423" d="M403.544,356.535c-0.103-0.131,1.786,1.439,3.541,0.187c1.752-1.257,2.438-2.078,2.438-2.078
					S406.882,360.839,403.544,356.535z"/>
				<path fill="#A42423" d="M405.152,355.033c0,0,2.119-1.129,1.126-1.75c-0.994-0.619-1.698-0.725-1.698-0.725
					s3.395-1.234,3.447,0.871C408.079,355.537,405.152,355.033,405.152,355.033z"/>
				<path fill="#A42423" d="M405.849,353.566c0.141,0.385-0.138,0.836-0.62,1.012c-0.483,0.178-0.987,0.014-1.127-0.367
					c-0.143-0.381,0.139-0.832,0.619-1.012C405.201,353.021,405.71,353.188,405.849,353.566z"/>
			</g>
			<g>
				<path fill="#A42423" d="M405.884,338.938c-0.062,0.129,1.592-1.735,4.379-1.287c2.79,0.447,2.924,1.298,2.924,1.298
					s0.062-4.91-3.973-4.255C405.177,335.352,405.884,338.938,405.884,338.938z"/>
				<path fill="#A42423" d="M412.61,344.537c0,0,2.036-3.467,1.338-5.762c-0.7-2.295-1.146-3.604-1.146-3.604
					s4.758,0.229,3.825,3.949C415.693,342.841,412.61,344.537,412.61,344.537z"/>
				<path fill="#A42423" d="M413.76,344.523c0.061-0.127-6.168,1.803-8.181,1.713c-2.007-0.09,2.472,2.508,4.912,1.428
					C412.938,346.589,413.721,344.609,413.76,344.523z"/>
				<path fill="#A42423" d="M407.522,345.057c0,0-2.833-5.356-2.302-6.847s0.531-1.487,0.531-1.487s-5.181,3.808-2.729,6.467
					C405.477,345.843,407.522,345.057,407.522,345.057z"/>
				<path fill="#A42423" d="M401.906,338.389c0.084-0.068-0.773,5.354,1.843,6.629c1.792,0.873-4.28,0.81-3.324-2.166
					C401.377,339.876,401.906,338.389,401.906,338.389z"/>
				<path fill="#A42423" d="M402.509,338.848c0,0-0.961-3.888,1.634-4.841c2.598-0.955,5.805-0.446,5.805-0.446
					s-3.089,1.28-5.074,3.021C402.887,338.312,402.509,338.848,402.509,338.848z"/>
				<path fill="#A42423" d="M408.37,338.273c0.192,0.035,4.528-0.191,4.703,1.648c0.174,1.842-3.157,3.82-3.157,3.82
					s2.939-2.947,2.063-3.671C411.104,339.354,408.37,338.273,408.37,338.273z"/>
				<path fill="#A42423" d="M407.406,338.88c0,0-2.356,1.695-0.562,3.263c1.8,1.565,2.872,1.063,2.872,1.063
					s-1.854-0.252-2.098-2.178C407.384,339.104,407.406,338.88,407.406,338.88z"/>
				<path fill="#A42423" d="M407.566,343.71c-0.094-0.119,1.688,1.355,3.336,0.176c1.648-1.182,2.297-1.959,2.297-1.959
					S410.712,347.768,407.566,343.71z"/>
				<path fill="#A42423" d="M409.081,342.296c0,0,1.996-1.063,1.062-1.646c-0.938-0.584-1.601-0.686-1.601-0.686
					s3.193-1.162,3.246,0.822C411.843,342.771,409.081,342.296,409.081,342.296z"/>
				
					<ellipse transform="matrix(0.3459 0.9383 -0.9383 0.3459 587.618 -160.4648)" fill="#A42423" cx="408.903" cy="341.237" rx="0.692" ry="0.877"/>
			</g>
			<g>
				<path fill="#A42423" d="M448.525,362.529c0.121-0.197-2.914,2.441-7.277,1.133c-4.364-1.305-4.401-2.688-4.401-2.688
					s-1.136,7.846,5.461,7.646C448.897,368.419,448.525,362.529,448.525,362.529z"/>
				<path fill="#A42423" d="M438.943,352.158c0,0-3.989,5.109-3.354,8.934c0.634,3.816,1.067,6.009,1.067,6.009
					s-7.557-1.373-5.282-7.129C433.651,354.21,438.943,352.158,438.943,352.158z"/>
				<path fill="#A42423" d="M437.1,351.932c-0.12,0.188,10.245-1.582,13.441-1.015c3.194,0.562-3.421-4.537-7.557-3.324
					C438.853,348.802,437.182,351.8,437.1,351.932z"/>
				<path fill="#A42423" d="M447.193,352.395c0,0,3.399,9.168,2.238,11.438c-1.164,2.272-1.164,2.272-1.164,2.272
					s9.087-5.004,5.727-9.772C450.634,351.566,447.193,352.395,447.193,352.395z"/>
				<path fill="#A42423" d="M454.769,364.25c-0.146,0.09,2.371-8.406-1.548-10.998c-2.685-1.774,7.021-0.393,4.869,4.166
					C455.932,361.979,454.769,364.25,454.769,364.25z"/>
				<path fill="#A42423" d="M453.906,363.382c0,0,0.722,6.427-3.639,7.4c-4.354,0.982-9.375-0.51-9.375-0.51
					s5.209-1.396,8.749-3.756C453.185,364.158,453.906,363.382,453.906,363.382z"/>
				<path fill="#A42423" d="M444.405,363.064c-0.304-0.098-7.29-0.646-7.181-3.629c0.11-2.979,5.862-5.447,5.862-5.447
					s-5.327,4.1-4.077,5.436C440.26,360.766,444.405,363.064,444.405,363.064z"/>
				<path fill="#A42423" d="M446.073,362.302c0,0,4.133-2.215,1.586-5.1c-2.547-2.891-4.364-2.312-4.364-2.312
					s2.91,0.795,2.888,3.924C446.16,361.949,446.073,362.302,446.073,362.302z"/>
				<path fill="#A42423" d="M446.839,354.539c0.123,0.211-2.412-2.529-5.302-0.983c-2.89,1.543-4.094,2.649-4.094,2.649
					S442.657,347.386,446.839,354.539z"/>
				<path fill="#A42423" d="M444.111,356.48c0,0-3.416,1.279-2.04,2.412c1.375,1.133,2.411,1.428,2.411,1.428
					s-5.354,1.188-5.02-1.998C439.801,355.139,444.111,356.48,444.111,356.48z"/>
				<path fill="#A42423" d="M442.773,358.546c-0.135-0.598,0.373-1.223,1.137-1.396c0.765-0.172,1.488,0.176,1.625,0.777
					c0.138,0.604-0.372,1.229-1.134,1.398C443.637,359.5,442.909,359.152,442.773,358.546z"/>
			</g>
			<g>
				<path fill="#A42423" d="M433.992,376.718c-0.056,0.158,1.64-2.163,4.888-1.946c3.245,0.211,3.488,1.17,3.488,1.17
					s-0.46-5.64-5.02-4.45C432.796,372.682,433.992,376.718,433.992,376.718z"/>
				<path fill="#A42423" d="M442.316,382.41c0,0,1.959-4.188,0.908-6.748c-1.049-2.559-1.703-4.014-1.703-4.014
					s5.482-0.248,4.815,4.115C445.671,380.137,442.316,382.41,442.316,382.41z"/>
				<path fill="#A42423" d="M443.635,382.275c0.053-0.148-6.882,2.73-9.194,2.848c-2.314,0.113,3.104,2.609,5.785,1.107
					C442.91,384.732,443.596,382.378,443.635,382.275z"/>
				<path fill="#A42423" d="M436.533,383.562c0,0-3.827-5.84-3.379-7.604c0.445-1.771,0.445-1.771,0.445-1.771
					s-5.525,4.932-2.428,7.715C434.273,384.686,436.533,383.562,436.533,383.562z"/>
				<path fill="#A42423" d="M429.372,376.516c0.089-0.084-0.312,6.229,2.829,7.407c2.149,0.81-4.825,1.392-4.051-2.125
					C428.926,378.283,429.372,376.516,429.372,376.516z"/>
				<path fill="#A42423" d="M430.111,376.979c0,0-1.521-4.354,1.354-5.729s6.605-1.137,6.605-1.137s-3.404,1.801-5.493,4.008
					C430.488,376.328,430.111,376.979,430.111,376.979z"/>
				<path fill="#A42423" d="M436.774,375.688c0.229,0.021,5.176-0.709,5.576,1.386c0.396,2.09-3.212,4.727-3.212,4.727
					s3.055-3.701,1.974-4.437C440.028,376.632,436.774,375.688,436.774,375.688z"/>
				<path fill="#A42423" d="M435.735,376.486c0,0-2.522,2.197-0.292,3.805c2.232,1.603,3.408,0.912,3.408,0.912
					s-2.154-0.094-2.635-2.272C435.729,376.75,435.735,376.486,435.735,376.486z"/>
				<path fill="#A42423" d="M436.44,382.009c-0.119-0.125,2.079,1.378,3.845-0.155c1.767-1.535,2.428-2.498,2.428-2.498
					S440.486,386.324,436.44,382.009z"/>
				<path fill="#A42423" d="M438.025,380.225c0,0,2.177-1.437,1.039-2.002c-1.137-0.57-1.906-0.611-1.906-0.611
					s3.537-1.68,3.812,0.593C441.24,380.471,438.025,380.225,438.025,380.225z"/>
				
					<ellipse transform="matrix(0.4312 0.9022 -0.9022 0.4312 590.9362 -179.3738)" fill="#A42423" cx="437.737" cy="379.008" rx="0.797" ry="1.011"/>
			</g>
			<g>
				<path fill="#A42423" d="M422.399,373.514c0.227-0.162-4.363,1.312-8.558-2.197c-4.194-3.504-3.575-5.049-3.575-5.049
					s-4.964,8.108,2.396,11.01C420.027,380.18,422.399,373.514,422.399,373.514z"/>
				<path fill="#A42423" d="M416.743,357.542c0,0-6.812,3.748-7.917,8.26c-1.104,4.509-1.663,7.128-1.663,7.128
					s-7.687-5.089-2.451-10.354C409.941,357.309,416.743,357.542,416.743,357.542z"/>
				<path fill="#A42423" d="M414.823,356.421c-0.221,0.154,12.041,3.105,15.297,5.244c3.26,2.133-1.623-6.615-6.756-7.235
					C418.233,353.803,414.979,356.318,414.823,356.421z"/>
				<path fill="#A42423" d="M425.727,361.708c0,0-0.589,11.715-2.941,13.666c-2.354,1.953-2.354,1.953-2.354,1.953
					s12.377-1.211,10.933-8.061C429.909,362.423,425.727,361.708,425.727,361.708z"/>
				<path fill="#A42423" d="M428.474,378.359c-0.207,0.031,6.585-8.141,3.494-12.852c-2.119-3.225,7.924,2.895,3.393,6.896
					C430.825,376.41,428.474,378.359,428.474,378.359z"/>
				<path fill="#A42423" d="M427.927,377c0,0-2.245,7.42-7.511,6.437c-5.265-0.979-10.095-5-10.095-5s6.404,0.929,11.424,0.004
					C426.77,377.509,427.927,377,427.927,377z"/>
				<path fill="#A42423" d="M417.605,372.152c-0.289-0.25-7.727-4.16-6.19-7.396c1.53-3.233,9.037-3.231,9.037-3.231
					s-7.812,1.996-7.069,4.063C414.129,367.648,417.605,372.152,417.605,372.152z"/>
				<path fill="#A42423" d="M419.811,372.1c0,0,5.6-0.481,4.16-4.871c-1.441-4.392-3.721-4.612-3.721-4.612s2.83,2.256,1.323,5.694
					C420.074,371.75,419.811,372.1,419.811,372.1z"/>
				<path fill="#A42423" d="M424.323,363.904c0.033,0.289-1.461-3.926-5.377-3.592c-3.912,0.336-5.763,0.982-5.763,0.982
					S423.104,354.048,424.323,363.904z"/>
				<path fill="#A42423" d="M420.402,364.757c0,0-4.375-0.207-3.396,1.689c0.979,1.9,1.981,2.719,1.981,2.719
					s-6.462-1.227-4.591-4.58C416.278,361.236,420.402,364.757,420.402,364.757z"/>
				<path fill="#A42423" d="M417.946,366.402c0.134-0.727,0.987-1.18,1.914-1.006c0.924,0.174,1.561,0.9,1.423,1.629
					c-0.135,0.729-0.989,1.178-1.91,1.008C418.447,367.857,417.81,367.13,417.946,366.402z"/>
			</g>
			<g>
				<path fill="#A42423" d="M425.669,352.014c0.192-0.104-3.614,0.676-6.685-2.498c-3.062-3.179-2.432-4.363-2.432-4.363
					s-4.688,6.078,0.973,9.043C423.187,357.16,425.669,352.014,425.669,352.014z"/>
				<path fill="#A42423" d="M422.51,338.707c0,0-5.79,2.422-7.067,5.945c-1.281,3.521-1.951,5.576-1.951,5.576
					s-5.729-4.748-1.078-8.521C417.069,337.932,422.51,338.707,422.51,338.707z"/>
				<path fill="#A42423" d="M421.064,337.643c-0.191,0.104,9.396,3.539,11.824,5.53c2.43,1.996-0.73-5.446-4.795-6.391
					C424.028,335.837,421.196,337.57,421.064,337.643z"/>
				<path fill="#A42423" d="M429.358,342.833c0,0-1.486,9.351-3.546,10.709c-2.061,1.365-2.061,1.365-2.061,1.365
					s10.042,0.096,9.475-5.525C432.656,343.766,429.358,342.833,429.358,342.833z"/>
				<path fill="#A42423" d="M430.119,356.434c-0.171,0.004,5.991-5.966,3.918-10.017c-1.42-2.771,6.108,3.01,2.128,5.832
					C432.182,355.07,430.119,356.434,430.119,356.434z"/>
				<path fill="#A42423" d="M429.803,355.292c0,0-2.444,5.76-6.585,4.519c-4.144-1.242-7.669-4.89-7.669-4.89s5.058,1.3,9.169,0.99
					C428.826,355.604,429.803,355.292,429.803,355.292z"/>
				<path fill="#A42423" d="M421.935,350.507c-0.206-0.225-5.84-4.008-4.329-6.471c1.509-2.467,7.532-1.812,7.532-1.812
					s-6.444,0.926-6.022,2.647C419.531,346.598,421.935,350.507,421.935,350.507z"/>
				<path fill="#A42423" d="M423.705,350.654c0,0,4.539,0.098,3.765-3.547c-0.774-3.646-2.588-4.025-2.588-4.025
					s2.079,2.055,0.573,4.688C423.951,350.396,423.705,350.654,423.705,350.654z"/>
				<path fill="#A42423" d="M428.039,344.473c0.009,0.235-0.829-3.279-4.004-3.351c-3.17-0.07-4.711,0.289-4.711,0.289
					S427.914,336.453,428.039,344.473z"/>
				<path fill="#A42423" d="M424.819,344.814c0,0-3.491-0.545-2.87,1.064c0.622,1.608,1.357,2.354,1.357,2.354
					s-5.084-1.543-3.287-4.072C421.817,341.632,424.819,344.814,424.819,344.814z"/>
				<path fill="#A42423" d="M422.704,345.923c0.176-0.569,0.899-0.858,1.625-0.639c0.729,0.217,1.178,0.854,0.999,1.43
					c-0.169,0.57-0.896,0.855-1.623,0.64C422.983,347.136,422.533,346.498,422.704,345.923z"/>
			</g>
			<g>
				<path fill="#A42423" d="M463.271,381.443c-0.063,0.141,1.689-1.842,4.648-1.367c2.963,0.479,3.104,1.383,3.104,1.383
					s0.064-5.217-4.221-4.52C462.521,377.636,463.271,381.443,463.271,381.443z"/>
				<path fill="#A42423" d="M470.414,387.389c0,0,2.161-3.679,1.421-6.115c-0.743-2.437-1.22-3.828-1.22-3.828
					s5.051,0.244,4.062,4.193C473.69,385.591,470.414,387.389,470.414,387.389z"/>
				<path fill="#A42423" d="M471.636,387.378c0.062-0.137-6.549,1.912-8.686,1.814c-2.132-0.092,2.621,2.662,5.218,1.52
					C470.761,389.564,471.593,387.468,471.636,387.378z"/>
				<path fill="#A42423" d="M465.013,387.939c0,0-3.008-5.688-2.444-7.268c0.562-1.58,0.562-1.58,0.562-1.58
					s-5.494,4.043-2.896,6.865C462.841,388.777,465.013,387.939,465.013,387.939z"/>
				<path fill="#A42423" d="M459.051,380.859c0.087-0.07-0.822,5.688,1.955,7.039c1.9,0.93-4.546,0.857-3.534-2.299
					C458.486,382.439,459.051,380.859,459.051,380.859z"/>
				<path fill="#A42423" d="M459.689,381.352c0,0-1.024-4.129,1.732-5.144c2.759-1.016,6.159-0.471,6.159-0.471
					s-3.276,1.355-5.385,3.199C460.091,380.783,459.689,381.352,459.689,381.352z"/>
				<path fill="#A42423" d="M465.912,380.74c0.205,0.039,4.811-0.203,4.994,1.75c0.186,1.955-3.354,4.061-3.354,4.061
					s3.121-3.133,2.189-3.896C468.815,381.887,465.912,380.74,465.912,380.74z"/>
				<path fill="#A42423" d="M464.891,381.384c0,0-2.505,1.798-0.596,3.464c1.907,1.661,3.046,1.133,3.046,1.133
					s-1.969-0.271-2.224-2.313C464.865,381.623,464.891,381.384,464.891,381.384z"/>
				<path fill="#A42423" d="M465.059,386.512c-0.098-0.128,1.791,1.442,3.542,0.188c1.752-1.259,2.442-2.08,2.442-2.08
					S468.396,390.816,465.059,386.512z"/>
				<path fill="#A42423" d="M466.67,385.009c0,0,2.116-1.129,1.126-1.745c-0.994-0.621-1.697-0.728-1.697-0.728
					s3.391-1.236,3.445,0.873C469.6,385.516,466.67,385.009,466.67,385.009z"/>
				
					<ellipse transform="matrix(0.3451 0.9386 -0.9386 0.3451 665.8146 -186.4193)" fill="#A42423" cx="466.484" cy="383.871" rx="0.733" ry="0.931"/>
			</g>
			<g>
				<path fill="#A42423" d="M479.233,377.438c-0.091,0.192,2.373-2.59,6.53-1.922c4.164,0.672,4.362,1.938,4.362,1.938
					s0.093-7.328-5.931-6.348C478.178,372.085,479.233,377.438,479.233,377.438z"/>
				<path fill="#A42423" d="M489.273,385.789c0,0,3.034-5.168,1.99-8.594c-1.045-3.424-1.71-5.379-1.71-5.379
					s7.098,0.344,5.702,5.895C493.87,383.262,489.273,385.789,489.273,385.789z"/>
				<path fill="#A42423" d="M490.984,385.771c0.087-0.188-9.202,2.688-12.197,2.557c-2.999-0.135,3.684,3.738,7.326,2.131
					C489.758,388.85,490.925,385.902,490.984,385.771z"/>
				<path fill="#A42423" d="M481.679,386.564c0,0-4.229-7.994-3.438-10.213c0.792-2.221,0.792-2.221,0.792-2.221
					s-7.721,5.68-4.065,9.645C478.626,387.744,481.679,386.564,481.679,386.564z"/>
				<path fill="#A42423" d="M473.302,376.617c0.122-0.1-1.156,7.99,2.748,9.891c2.674,1.306-6.392,1.205-4.965-3.229
					C472.51,378.837,473.302,376.617,473.302,376.617z"/>
				<path fill="#A42423" d="M474.198,377.307c0,0-1.436-5.802,2.438-7.226c3.875-1.424,8.658-0.662,8.658-0.662
					s-4.607,1.904-7.565,4.496C474.762,376.505,474.198,377.307,474.198,377.307z"/>
				<path fill="#A42423" d="M482.947,376.447c0.287,0.055,6.756-0.287,7.02,2.457c0.257,2.754-4.719,5.705-4.719,5.705
					s4.39-4.4,3.081-5.477C487.021,378.061,482.947,376.447,482.947,376.447z"/>
				<path fill="#A42423" d="M481.507,377.352c0,0-3.521,2.526-0.837,4.866c2.685,2.339,4.279,1.591,4.279,1.591
					s-2.763-0.382-3.12-3.25C481.47,377.688,481.507,377.352,481.507,377.352z"/>
				<path fill="#A42423" d="M481.742,384.557c-0.139-0.179,2.517,2.026,4.979,0.262c2.46-1.764,3.429-2.922,3.429-2.922
					S486.434,390.605,481.742,384.557z"/>
				<path fill="#A42423" d="M484.009,382.445c0,0,2.976-1.584,1.58-2.453c-1.396-0.873-2.388-1.021-2.388-1.021
					s4.768-1.734,4.843,1.228C488.121,383.158,484.009,382.445,484.009,382.445z"/>
				<path fill="#A42423" d="M484.984,380.391c0.197,0.536-0.195,1.17-0.871,1.418c-0.679,0.25-1.39,0.021-1.584-0.515
					c-0.199-0.539,0.194-1.172,0.872-1.42C484.076,379.625,484.785,379.855,484.984,380.391z"/>
			</g>
			<g>
				<path fill="#A42423" d="M486.354,361.552c-0.06,0.132,1.592-1.735,4.379-1.286c2.789,0.448,2.924,1.297,2.924,1.297
					s0.062-4.91-3.975-4.254C485.646,357.964,486.354,361.552,486.354,361.552z"/>
				<path fill="#A42423" d="M493.08,367.148c0,0,2.035-3.465,1.339-5.758c-0.7-2.297-1.146-3.605-1.146-3.605
					s4.758,0.229,3.825,3.947C496.162,365.457,493.08,367.148,493.08,367.148z"/>
				<path fill="#A42423" d="M494.23,367.141c0.059-0.129-6.168,1.799-8.177,1.709c-2.01-0.091,2.469,2.51,4.911,1.43
					C493.406,369.201,494.19,367.225,494.23,367.141z"/>
				<path fill="#A42423" d="M487.99,367.669c0,0-2.832-5.354-2.301-6.846c0.531-1.49,0.531-1.49,0.531-1.49
					s-5.178,3.812-2.729,6.469C485.945,368.457,487.99,367.669,487.99,367.669z"/>
				<path fill="#A42423" d="M482.378,361.001c0.084-0.067-0.775,5.354,1.843,6.631c1.792,0.873-4.282,0.808-3.327-2.168
					C481.848,362.49,482.378,361.001,482.378,361.001z"/>
				<path fill="#A42423" d="M482.979,361.462c0,0-0.961-3.887,1.633-4.84c2.602-0.957,5.809-0.447,5.809-0.447
					s-3.094,1.281-5.075,3.019C483.357,360.927,482.979,361.462,482.979,361.462z"/>
				<path fill="#A42423" d="M488.844,360.889c0.19,0.036,4.526-0.19,4.704,1.647c0.172,1.842-3.16,3.82-3.16,3.82
					s2.938-2.949,2.062-3.67C491.573,361.968,488.844,360.889,488.844,360.889z"/>
				<path fill="#A42423" d="M487.878,361.496c0,0-2.358,1.691-0.562,3.26c1.799,1.568,2.871,1.064,2.871,1.064
					s-1.854-0.254-2.095-2.178C487.854,361.721,487.878,361.496,487.878,361.496z"/>
				<path fill="#A42423" d="M488.036,366.326c-0.095-0.121,1.688,1.355,3.335,0.174c1.648-1.182,2.301-1.959,2.301-1.959
					S491.182,370.38,488.036,366.326z"/>
				<path fill="#A42423" d="M489.554,364.912c0,0,1.995-1.065,1.06-1.647c-0.934-0.584-1.599-0.685-1.599-0.685
					s3.194-1.162,3.247,0.822C492.313,365.386,489.554,364.912,489.554,364.912z"/>
				
					<ellipse transform="matrix(0.3447 0.9387 -0.9387 0.3447 662.284 -221.0138)" fill="#A42423" cx="489.441" cy="363.847" rx="0.691" ry="0.877"/>
			</g>
			<g>
				<path fill="#A42423" d="M440.355,342.951c0.158-0.088-2.982,0.557-5.511-2.062c-2.527-2.619-2.005-3.6-2.005-3.6
					s-3.865,5.014,0.802,7.459C438.308,347.192,440.355,342.951,440.355,342.951z"/>
				<path fill="#A42423" d="M437.746,331.979c0,0-4.771,1.994-5.825,4.901c-1.058,2.904-1.608,4.599-1.608,4.599
					s-4.727-3.914-0.888-7.026C433.265,331.337,437.746,331.979,437.746,331.979z"/>
				<path fill="#A42423" d="M436.557,331.1c-0.156,0.086,7.75,2.918,9.752,4.562c2.003,1.646-0.602-4.492-3.953-5.271
					C439.003,329.607,436.669,331.041,436.557,331.1z"/>
				<path fill="#A42423" d="M443.397,335.378c0,0-1.225,7.711-2.925,8.832c-1.698,1.125-1.698,1.125-1.698,1.125
					s8.281,0.082,7.812-4.557C446.115,336.146,443.397,335.378,443.397,335.378z"/>
				<path fill="#A42423" d="M444.025,346.596c-0.139,0.002,4.942-4.919,3.232-8.261c-1.172-2.287,5.039,2.48,1.753,4.81
					C445.724,345.471,444.025,346.596,444.025,346.596z"/>
				<path fill="#A42423" d="M443.765,345.652c0,0-2.021,4.75-5.436,3.727c-3.41-1.022-6.319-4.03-6.319-4.03
					s4.171,1.069,7.561,0.815C442.962,345.912,443.765,345.652,443.765,345.652z"/>
				<path fill="#A42423" d="M437.275,341.708c-0.17-0.188-4.812-3.307-3.57-5.336c1.244-2.033,6.211-1.496,6.211-1.496
					s-5.312,0.767-4.966,2.187C435.296,338.48,437.275,341.708,437.275,341.708z"/>
				<path fill="#A42423" d="M438.736,341.828c0,0,3.745,0.082,3.104-2.926c-0.643-3.006-2.138-3.318-2.138-3.318
					s1.719,1.693,0.478,3.865C438.938,341.619,438.736,341.828,438.736,341.828z"/>
				<path fill="#A42423" d="M442.311,336.729c0.005,0.198-0.685-2.703-3.301-2.761c-2.613-0.057-3.883,0.24-3.883,0.24
					S442.212,330.119,442.311,336.729z"/>
				<path fill="#A42423" d="M439.655,337.016c0,0-2.88-0.449-2.366,0.875c0.515,1.327,1.117,1.94,1.117,1.94
					s-4.188-1.271-2.709-3.358C437.179,334.391,439.655,337.016,439.655,337.016z"/>
				<path fill="#A42423" d="M437.909,337.928c0.146-0.472,0.741-0.71,1.345-0.525c0.597,0.179,0.967,0.705,0.821,1.177
					c-0.142,0.475-0.736,0.707-1.339,0.528C438.141,338.927,437.771,338.398,437.909,337.928z"/>
			</g>
			<g>
				<path fill="#A42423" d="M458.768,340.514c-0.178,0.026,2.998,0.471,4.506,3.784c1.508,3.312,0.689,4.062,0.689,4.062
					s5.314-3.435,1.731-7.299C462.115,337.195,458.768,340.514,458.768,340.514z"/>
				<path fill="#A42423" d="M457.559,351.727c0,0,5.167-0.283,7.131-2.675c1.965-2.385,3.055-3.797,3.055-3.797
					s3.147,5.271-1.514,6.92C461.573,353.828,457.559,351.727,457.559,351.727z"/>
				<path fill="#A42423" d="M458.389,352.955c0.179-0.031-6.328-5.344-7.668-7.562c-1.336-2.219-0.935,4.438,1.966,6.291
					C455.588,353.539,458.266,352.971,458.389,352.955z"/>
				<path fill="#A42423" d="M453.369,346.634c0,0,3.73-6.858,5.707-7.35c1.979-0.492,1.979-0.492,1.979-0.492
					s-7.778-2.842-8.884,1.685C451.065,345,453.369,346.634,453.369,346.634z"/>
				<path fill="#A42423" d="M456.525,335.854c0.133,0.043-6.302,2.983-5.805,6.703c0.34,2.549-3.92-4.021-0.046-5.115
					C454.549,336.343,456.525,335.854,456.525,335.854z"/>
				<path fill="#A42423" d="M456.455,336.828c0,0,3.488-3.807,6.366-1.699c2.873,2.105,4.612,5.912,4.612,5.912
					s-3.574-2.399-6.854-3.295C457.303,336.854,456.455,336.828,456.455,336.828z"/>
				<path fill="#A42423" d="M461.257,342.71c0.099,0.232,3.434,4.728,1.582,6.228c-1.854,1.498-6.354-0.668-6.354-0.668
					s5.262,1.054,5.411-0.399C462.046,346.416,461.257,342.71,461.257,342.71z"/>
				<path fill="#A42423" d="M459.92,342.109c0,0-3.501-1.326-3.902,1.723c-0.4,3.047,0.903,3.84,0.903,3.84s-1.054-2.17,0.845-3.801
					C459.656,342.242,459.92,342.109,459.92,342.109z"/>
				<path fill="#A42423" d="M454.846,345.723c0.062-0.187-0.256,2.778,2.188,3.707c2.445,0.926,3.741,1.069,3.741,1.069
					S452.734,351.99,454.846,345.723z"/>
				<path fill="#A42423" d="M457.445,346.343c0,0,2.565,1.386,2.524-0.036c-0.04-1.423-0.405-2.203-0.405-2.203
					s3.525,2.601,1.431,4.069C458.904,349.643,457.445,346.343,457.445,346.343z"/>
				<path fill="#A42423" d="M459.394,346.062c-0.291,0.396-0.935,0.422-1.439,0.053c-0.504-0.369-0.675-0.99-0.385-1.387
					c0.292-0.398,0.936-0.42,1.44-0.051C459.51,345.042,459.683,345.666,459.394,346.062z"/>
			</g>
			<g>
				<path fill="#A42423" d="M464.621,359.919c-0.147,0.179,3.239-1.992,7.365-0.062c4.131,1.928,3.963,3.305,3.963,3.305
					s2.271-7.598-4.286-8.361C465.111,354.039,464.621,359.919,464.621,359.919z"/>
				<path fill="#A42423" d="M472.593,371.574c0,0,4.688-4.473,4.621-8.348c-0.074-3.869-0.187-6.1-0.187-6.1
					s7.275,2.459,4.188,7.819C478.129,370.314,472.593,371.574,472.593,371.574z"/>
				<path fill="#A42423" d="M474.384,372.068c0.145-0.166-10.366,0.074-13.446-0.951c-3.081-1.023,2.722,4.98,6.988,4.385
					C472.191,374.91,474.281,372.188,474.384,372.068z"/>
				<path fill="#A42423" d="M464.466,370.141c0,0-2.028-9.565-0.553-11.642c1.482-2.078,1.482-2.078,1.482-2.078
					s-9.718,3.625-7.086,8.832C460.941,370.458,464.466,370.141,464.466,370.141z"/>
				<path fill="#A42423" d="M458.698,357.307c0.155-0.063-3.569,7.973-0.068,11.108c2.394,2.146-7.011-0.641-4.214-4.832
					C457.216,359.384,458.698,357.307,458.698,357.307z"/>
				<path fill="#A42423" d="M459.425,358.292c0,0,0.223-6.461,4.677-6.793c4.448-0.342,9.201,1.869,9.201,1.869
					s-5.357,0.623-9.204,2.439C460.251,357.626,459.425,358.292,459.425,358.292z"/>
				<path fill="#A42423" d="M468.777,359.988c0.286,0.143,7.117,1.699,6.576,4.639c-0.545,2.931-6.594,4.533-6.594,4.533
					s5.867-3.275,4.826-4.783C472.548,362.871,468.777,359.988,468.777,359.988z"/>
				<path fill="#A42423" d="M467.014,360.503c0,0-4.41,1.588-2.312,4.812c2.101,3.229,3.983,2.922,3.983,2.922
					s-2.765-1.211-2.284-4.303C466.877,360.841,467.014,360.503,467.014,360.503z"/>
				<path fill="#A42423" d="M465.13,368.068c-0.093-0.223,2.018,2.855,5.098,1.748c3.085-1.104,4.436-2.025,4.436-2.025
					S468.22,375.755,465.13,368.068z"/>
				<path fill="#A42423" d="M468.108,366.544c0,0,3.566-0.768,2.372-2.088c-1.197-1.319-2.18-1.764-2.18-1.764
					s5.47-0.396,4.676,2.709C472.18,368.501,468.108,366.544,468.108,366.544z"/>
				<path fill="#A42423" d="M469.733,364.697c0.046,0.611-0.546,1.154-1.329,1.215c-0.774,0.062-1.442-0.391-1.494-1.008
					c-0.045-0.611,0.552-1.156,1.328-1.219C469.018,363.63,469.686,364.078,469.733,364.697z"/>
			</g>
			<g>
				<path fill="#A42423" d="M483.383,351.486c0.077-0.146-1.938,1.904-5.115,1.217c-3.182-0.682-3.284-1.664-3.284-1.664
					s-0.367,5.644,4.317,5.133C483.98,355.658,483.383,351.486,483.383,351.486z"/>
				<path fill="#A42423" d="M475.977,344.645c0,0-2.549,3.86-1.881,6.545c0.666,2.683,1.102,4.218,1.102,4.218
					s-5.461-0.55-4.164-4.775C472.326,346.402,475.977,344.645,475.977,344.645z"/>
				<path fill="#A42423" d="M474.656,344.585c-0.074,0.142,7.204-1.699,9.509-1.479c2.311,0.226-2.687-3.03-5.562-1.938
					S474.706,344.486,474.656,344.585z"/>
				<path fill="#A42423" d="M481.864,344.35c0,0,2.938,6.332,2.236,8.015c-0.698,1.684-0.698,1.684-0.698,1.684
					s6.187-4.068,3.525-7.277C484.266,343.564,481.864,344.35,481.864,344.35z"/>
				<path fill="#A42423" d="M487.926,352.359c-0.103,0.07,1.214-6.115-1.723-7.738c-2.012-1.111,4.979-0.67,3.696,2.691
					C488.626,350.682,487.926,352.359,487.926,352.359z"/>
				<path fill="#A42423" d="M487.262,351.794c0,0,0.873,4.529-2.171,5.472c-3.045,0.942-6.703,0.161-6.703,0.161
					s3.63-1.284,6.017-3.163C486.794,352.384,487.262,351.794,487.262,351.794z"/>
				<path fill="#A42423" d="M480.48,352.104c-0.222-0.056-5.223-0.054-5.312-2.185c-0.092-2.125,3.864-4.207,3.864-4.207
					s-3.562,3.218-2.598,4.099C477.4,350.691,480.48,352.104,480.48,352.104z"/>
				<path fill="#A42423" d="M481.627,351.462c0,0,2.815-1.809,0.843-3.719c-1.979-1.91-3.238-1.397-3.238-1.397
					s2.118,0.401,2.274,2.631C481.669,351.205,481.627,351.462,481.627,351.462z"/>
				<path fill="#A42423" d="M481.731,345.896c0.101,0.141-1.855-1.664-3.825-0.404c-1.969,1.262-2.762,2.117-2.762,2.117
					S478.357,341.039,481.731,345.896z"/>
				<path fill="#A42423" d="M479.904,347.43c0,0-2.358,1.104-1.316,1.834c1.042,0.726,1.797,0.879,1.797,0.879
					s-3.744,1.147-3.688-1.14C476.759,346.721,479.904,347.43,479.904,347.43z"/>
				<path fill="#A42423" d="M479.064,348.979c-0.129-0.422,0.195-0.896,0.732-1.062c0.529-0.164,1.067,0.041,1.198,0.463
					s-0.193,0.896-0.729,1.062C479.732,349.605,479.198,349.398,479.064,348.979z"/>
			</g>
			<g>
				<path fill="#A42423" d="M450.727,382.746c0.18-0.002-2.896-0.902-3.906-4.397c-1.008-3.502-0.088-4.121-0.088-4.121
					s-5.763,2.623-2.78,6.972C446.933,385.539,450.727,382.746,450.727,382.746z"/>
				<path fill="#A42423" d="M453.557,371.828c0,0-5.153-0.471-7.445,1.605c-2.291,2.074-3.572,3.312-3.572,3.312
					s-2.349-5.674,2.506-6.627C449.892,369.166,453.557,371.828,453.557,371.828z"/>
				<path fill="#A42423" d="M452.912,370.492c-0.18,0.006,5.482,6.209,6.485,8.598c0.998,2.394,1.569-4.256-1.027-6.51
					C455.772,370.32,453.035,370.496,452.912,370.492z"/>
				<path fill="#A42423" d="M456.955,377.477c0,0-4.688,6.244-6.716,6.438c-2.025,0.199-2.025,0.199-2.025,0.199
					s7.279,3.945,9.032-0.369C459.002,379.432,456.955,377.477,456.955,377.477z"/>
				<path fill="#A42423" d="M452.266,387.684c-0.124-0.062,6.67-2.035,6.718-5.787c0.036-2.571,3.292,4.552-0.698,5.067
					C454.295,387.486,452.266,387.684,452.266,387.684z"/>
				<path fill="#A42423" d="M452.476,386.729c0,0-4.004,3.256-6.544,0.752c-2.538-2.502-3.701-6.521-3.701-6.521
					s3.184,2.896,6.298,4.259C451.644,386.582,452.476,386.729,452.476,386.729z"/>
				<path fill="#A42423" d="M448.587,380.208c-0.062-0.246-2.711-5.176-0.658-6.389c2.049-1.213,6.188,1.582,6.188,1.582
					s-5.054-1.809-5.411-0.389C448.344,376.432,448.587,380.208,448.587,380.208z"/>
				<path fill="#A42423" d="M449.82,380.998c0,0,3.272,1.822,4.113-1.133c0.838-2.957-0.337-3.934-0.337-3.934
					s0.725,2.299-1.386,3.637C450.098,380.906,449.82,380.998,449.82,380.998z"/>
				<path fill="#A42423" d="M455.365,378.162c-0.09,0.176,0.655-2.711-1.628-3.984c-2.284-1.271-3.545-1.604-3.545-1.604
					S458.367,372.271,455.365,378.162z"/>
				<path fill="#A42423" d="M452.885,377.171c0,0-2.336-1.744-2.504-0.332c-0.168,1.414,0.08,2.238,0.08,2.238
					s-3.107-3.086-0.822-4.234C451.923,373.693,452.885,377.171,452.885,377.171z"/>
				<path fill="#A42423" d="M450.914,377.164c0.35-0.35,0.986-0.279,1.435,0.162c0.445,0.437,0.521,1.076,0.177,1.426
					c-0.346,0.353-0.979,0.277-1.43-0.158C450.651,378.154,450.57,377.518,450.914,377.164z"/>
			</g>
		</g>
	</g>
</g>
</svg>
