<?xml version="1.0" encoding="utf-8"?>
<!-- Generator: Adobe Illustrator 16.0.4, SVG Export Plug-In . SVG Version: 6.00 Build 0)  -->
<!DOCTYPE svg PUBLIC "-//W3C//DTD SVG 1.1//EN" "http://www.w3.org/Graphics/SVG/1.1/DTD/svg11.dtd">
<svg version="1.1" id="Layer_1" xmlns="http://www.w3.org/2000/svg" xmlns:xlink="http://www.w3.org/1999/xlink" x="0px" y="0px"
	 width="568.334px" height="529.972px" viewBox="115.208 215.877 568.334 529.972"
	 enable-background="new 115.208 215.877 568.334 529.972" xml:space="preserve">
<g>
	<g>
		<path fill="#0981B3" d="M189.695,503.264c0,0,2.145,18.422,4.6,17.078c2.455-1.343,24.396-8.063,36.878-14.635
			c12.48-6.566,45.229-17.879,45.229-17.879s1.313-27.26-1.643-25.945c-2.956,1.312-23.286,17.229-47.785,29.127
			C218.086,495.327,189.695,503.264,189.695,503.264z"/>
		<path fill="#110906" d="M293.687,527.775c0,0-2.114,13.023-28.074,17.145s-58.515-15.659-55.219,16.896
			c3.297,32.555,2.886,50.271,2.886,50.271s-48.627,10.714-48.215,0s38.324-6.181,38.324-6.181s-7.008-47.39,2.06-63.872
			c9.066-16.483,44.094-12.362,50.688-13.188c7.896-0.985,7.782-1.142,12.772-2.474L293.687,527.775z"/>
		<g>
			<path fill="#0E8CCD" d="M307.711,465.268c11.167,45.651-0.625,73.541-2.367,74.199c-3.896,1.477-38.77,4.284-36.193-10.415
				c0.356-2.038-0.188-3.722,1.562-26.038c2.084-26.56,2.833-52.688,11.979-55.98C292.075,443.652,305.145,454.779,307.711,465.268z
				"/>
			<g>
				<path fill="#110906" d="M296.419,404.816c0,0-2.695,12.099,7.943,14.311c10.645,2.21,9.505-0.373,9.505-0.373
					s-2.819,10.861-9.935,10.846c-7.118-0.011-7.337-4.525-7.337-4.525s1.119,9.016,3.928,9.172c2.809,0.158-9.662,7.08-13.522,1.33
					c-3.862-5.746-3.081-27.584-2.472-27.799C285.143,407.559,296.419,404.816,296.419,404.816"/>
				<path fill="#FFFFFF" d="M281.607,387.372c-0.212-0.54-0.423-1.079-0.661-1.61c-4.35-9.613-14.976-11.807-24.562-11.854
					c-9.496-0.047-20.964,2.783-26.642,11.02c-5.298,7.674-0.369,18.57,2.664,26.104c2.131,5.287,3.749,10.658,5.276,16.146
					c0.423,1.52,0.877,3.113,1.396,4.723c0.143,1.997,6.259,26.963,20.569,19.564c4.403-2.275,8.465-5.102,12.377-8.012
					c9.733-7.24,4.337,11.068,3.92,12.502c-1.071,3.672,1.136,2.973,5.818-0.344c11.665-8.262,11.374-7.35,11.082-7.936
					c-5.204-10.402-2.706-12.543-3.189-18.746c0.729-4.438,1.363-8.667,0.893-13.316c-0.501-4.908-1.328-9.773-2.566-14.554
					C286.716,396.189,284.691,391.318,281.607,387.372z"/>
				<path fill="#110906" d="M249.522,383.576c-0.541,0.422,5.284,10.486,15.628,15.093c10.343,4.606,13.578,11.524,15.451,20.421
					c0.098,0.471,7.454-10.148,4.261-19.201c-0.337-0.953,5.078,6.635,4.342,10.236c-0.737,3.602,17.69-6.88,2.21-25.578
					c-15.48-18.697-22.979-13.97-22.979-13.97s4.127-5.833,14.406-0.742c0,0-7.953-8.892-17.962-6.05
					c-20.457,5.812-20.022,12.803-20.022,12.803"/>
				<path fill="#FFFFFF" d="M285.298,400.913c0.673-0.923,1.492-1.738,2.481-2.394c0.74-0.492,1.593-0.785,2.474-0.887
					c2.199-0.718,4.517,0.11,5.863,3.305c1.084,2.562,0.845,5.221-0.259,7.535c-0.264,0.887-0.604,1.766-1.049,2.637
					c-1.271,2.517-3.062,5.537-5.953,6.379c-0.91,0.269-1.669-0.055-2.165-0.609c-0.966,0.207-1.975,0.088-2.702-0.455
					C285.726,411.509,285.551,406.206,285.298,400.913z"/>
				
					<ellipse transform="matrix(-0.9082 0.4186 -0.4186 -0.9082 633.3396 698.3261)" fill="none" stroke="#1E1E1C" stroke-width="1.0257" stroke-miterlimit="10" cx="240.074" cy="418.631" rx="1.74" ry="3.376"/>
				<path fill="none" stroke="#1E1E1C" stroke-width="1.0257" stroke-miterlimit="10" d="M260.046,412.559
					c0.839,1.664,0.825,3.364-0.031,3.791c-0.855,0.438-2.23-0.563-3.071-2.229c-0.839-1.664-0.823-3.366,0.03-3.797
					C257.833,409.893,259.203,410.893,260.046,412.559z"/>
				<path fill="none" stroke="#1E1E1C" stroke-width="2.047" stroke-miterlimit="10" d="M252.867,410.834
					c0,0-0.227,10.822,4.996,10.246c5.226-0.572,15.487-0.961,15.134-5.57c-0.355-4.609,0.276-9.684-6.365-9.188
					C259.993,406.814,253.293,407.795,252.867,410.834z"/>
				<path fill="none" stroke="#1E1E1C" stroke-width="2.047" stroke-miterlimit="10" d="M246.144,413.334
					c0,0,4.101,9.479,0.551,11.111c-3.552,1.635-11.157,3.445-12.556-0.883c-1.396-4.332-3.922-6.094,0.508-8.379
					C239.078,412.895,244.798,410.754,246.144,413.334z"/>
				<g>
					<path fill="#FFFFFF" d="M249.914,413.607c0.176,0.17-4.139,10.876-7.327,17.269c2.562,0.712,9.256,0.915,11.616,0.082"/>
					<g>
						<path fill="#1E1E1C" d="M249.402,413.607c0.051,0.479-0.468,1.375-0.641,1.832c-0.515,1.354-1.065,2.695-1.619,4.035
							c-1.554,3.762-3.192,7.494-4.998,11.144c-0.143,0.288-0.033,0.667,0.307,0.752c3.616,0.903,8.292,1.184,11.889,0.082
							c0.629-0.193,0.36-1.181-0.271-0.987c-3.382,1.036-7.944,0.769-11.344-0.082c0.103,0.251,0.203,0.501,0.306,0.752
							c1.748-3.536,3.327-7.15,4.853-10.789c0.645-1.535,1.27-3.08,1.868-4.633c0.219-0.568,0.745-1.464,0.678-2.104
							C250.357,412.959,249.333,412.952,249.402,413.607L249.402,413.607z"/>
					</g>
				</g>
				<g>
					<g>
						<path fill="#1E1E1C" d="M289.75,401.244c-1.412,1.516-3.002,3.496-3.223,5.627c-0.245,2.389,3.259,1.021,4.204,0.609
							c-0.251-0.102-0.502-0.203-0.752-0.306c0.636,2.034-2.039,3.863-2.357,5.798c-0.3,1.815,2.269,1.766,3.373,1.731
							c0.657-0.021,0.659-1.044,0-1.022c-0.9,0.027-2.794,0.271-2.173-1.166c0.317-0.733,0.826-1.404,1.246-2.08
							c0.659-1.059,1.292-2.271,0.896-3.533c-0.105-0.344-0.444-0.438-0.752-0.307c-0.183,0.079-2.603,1.316-2.663,0.273
							c-0.034-0.602,0.389-1.286,0.648-1.791c0.592-1.141,1.401-2.178,2.273-3.113C290.924,401.484,290.201,400.76,289.75,401.244
							L289.75,401.244z"/>
					</g>
				</g>
				<g>
					<g>
						<path fill="#1E1E1C" d="M247.658,413.682c0.058-1.683,3.45-1.393,4.39-0.845c1.144,0.667,2.173-1.103,1.033-1.769
							c-2.373-1.383-7.352-0.842-7.471,2.613C245.566,415.002,247.613,414.998,247.658,413.682L247.658,413.682z"/>
					</g>
				</g>
				<path fill="#110906" d="M262.327,385.469c-1.227,0.434-20.938-2.229-24.063,18.106c-3.163,20.562-12.557,20.229-12.557,20.229
					s6.962-4.288,2.107-16.083c-5.5-13.385-6.404-38.27,16.82-34.1C267.858,377.792,262.327,385.469,262.327,385.469z"/>
				<g>
					<g>
						<path fill="#110906" d="M266.104,400.989c-4.611-0.083-9.228,0.61-13.711,1.651c-0.631,0.146-0.363,1.115,0.269,0.969
							c4.401-1.021,8.915-1.696,13.442-1.614C266.752,402.007,266.751,401.001,266.104,400.989L266.104,400.989z"/>
					</g>
				</g>
				<g>
					<g>
						<path fill="#110906" d="M240.5,405.012c-3.803,1.954-8.083,2.709-11.803,4.852c-0.562,0.322-0.055,1.191,0.509,0.867
							c3.714-2.139,8-2.896,11.802-4.851C241.584,405.584,241.076,404.716,240.5,405.012L240.5,405.012z"/>
					</g>
				</g>
				<g>
					<g>
						<path fill="#110906" d="M250.185,437.263c4.771,0.566,10.066-2.202,12.871-5.981c0.387-0.521-0.487-1.022-0.868-0.508
							c-2.604,3.513-7.601,6.008-12.002,5.483C249.542,436.181,249.549,437.188,250.185,437.263L250.185,437.263z"/>
					</g>
				</g>
				<g>
					<g>
						<path fill="#110906" d="M261.247,430.397c0.875,0.683,1.5,1.594,2.171,2.464c0.391,0.505,1.265,0.005,0.868-0.51
							c-0.723-0.935-1.389-1.933-2.329-2.667C261.453,429.293,260.736,429.999,261.247,430.397L261.247,430.397z"/>
					</g>
				</g>
				<path fill="none" stroke="#1E1E1C" stroke-width="2.047" stroke-miterlimit="10" d="M271.016,408.029
					c1.003-0.354,9.824-6.293,9.824-6.293"/>
			</g>
		</g>
		<path fill="#110906" d="M305.599,538.258c1.546-0.658,0.703,12.543-25.258,16.666c-25.962,4.121-63.397-16.085-60.104,16.47
			c3.296,32.557,2.887,50.272,2.887,50.272s-48.626,10.715-48.215,0c0.41-10.713,38.323-6.181,38.323-6.181
			s-7.006-47.391,2.061-63.872c9.065-16.482,41.27-12.529,47.861-13.355c1.546-0.189,5.515-8.906,5.729-8.331
			C268.885,529.927,287.129,546.131,305.599,538.258z"/>
		<g>
			<g>
				<path fill="#FEEDA4" d="M173.188,510.098c-0.164,0.413,5.435,4.225,3.32,24.625c-0.33,3.197,31.104-13.872,24.896-16.48
					c-15.626-6.57-18.592-14.355-18.592-14.355L173.188,510.098z"/>
				<path fill="#FEEDA4" d="M183.524,548.576c0.387,0.004,16.94-2.725,28.226-17.139c0,0,0.255-22.977-23.84-7.503
					C164.834,538.757,182.818,548.564,183.524,548.576z"/>
				<path fill="#FEEDA4" d="M189.525,488.99c-0.062,0.039-0.125,0.074-0.188,0.104c-1.003,0.52-3.619,4.242-6.319,0.213
					c-1.957-2.918-0.535-8.073,1.429-15.215c3.948-14.328,6.375-26.52-3.939-30.633c-2.852-1.137-4.497-0.623-4.709-0.102
					c-0.181,0.439,0.419,1.739,2.617,2.737c2.448,1.111,3.184,2.905,3.367,4.216c0.722,5.195-6.494,11.73-7.949,12.988l-2.836-3.438
					c3.308-2.865,6.68-7.133,6.431-8.914c-0.017-0.122-0.058-0.402-0.794-0.736c-4.862-2.209-5.946-5.999-4.895-8.586
					c1.129-2.783,4.772-4.59,10.362-2.361c14.876,5.93,9.882,21.101,6.577,33.096c-1.125,4.088-2.827,13.223-2.035,14.399
					c0.372,0.56,1.253-2.26,1.725-1.889c0.416,0.333,0.574-4.048,0.574-4.048c1.323-0.28,2.565,0.463,3.023,1.806
					C192.612,484.527,191.609,487.758,189.525,488.99z"/>
				<path fill="#FEEDA4" d="M135.668,473.885l32.021-19.088c0,0,34.062,36.213,8.649,51.922
					C150.928,522.428,135.668,473.885,135.668,473.885z"/>
				<path fill="#FEEDA4" d="M170.957,508.543c0.453,0.305,2.332,6.347,8.6,2.346c6.267-3.999,2.012-10.778,2.012-10.778
					L170.957,508.543z"/>
				<path fill="#FEEDA4" d="M156.343,512.119c0.062-0.036,0.124-0.074,0.184-0.113c0.938-0.632,2.896-2.572,0.825-6.977
					c-1.497-3.189-6.573-4.498-13.602-6.312c-14.101-3.631-25.638-7.552-23.982-18.757c0.457-3.096,1.712-4.302,2.259-4.229
					c0.466,0.061,1.269,1.236,1.019,3.686c-0.276,2.729,0.877,4.273,1.896,5.087c4.04,3.235,13.171,0.085,14.96-0.58l-1.497-4.23
					c-4.074,1.507-9.368,2.376-10.755,1.267c-0.095-0.074-0.312-0.25-0.229-1.07c0.554-5.418-2.118-8.266-4.833-8.619
					c-2.92-0.385-6.268,1.948-7.162,8.021c-2.388,16.158,15.451,20.753,27.259,23.793c4.022,1.041,10.104,2.605,10.71,3.896
					c0.285,0.607,0.402,1.02,0.45,1.273c-0.314-0.012-4.123-0.719-4.123-0.719c-0.896,1.035-0.886,2.51,0.024,3.586
					C151.023,512.637,154.257,513.355,156.343,512.119z"/>
			</g>
		</g>
		<path fill="#FFFFFF" d="M194.004,504.165l-6.689-2.658c0,0-4.566,2.536-9.643,3.134c-5.075,0.6-4.842-1.166-5.736,0.326
			c-0.896,1.493,3.009,6.118,7.509,4.262c4.5-1.854,5.817-3.584,3.9-0.705c-2.671,4.005-5.753,5.396-7.652,5.233
			c-1.9-0.159-2.229-1.556-2.229-1.556l-2.655,6.172c0,0,3.281,7.498,5.67,8.096c2.39,0.6,18.063-7.882,21.021-8.539
			c19.332-4.297,14.164-9.854,10.183-9.854C202.423,508.076,194.004,504.165,194.004,504.165z"/>
		<path fill="#A42423" d="M275.094,459.337c0.118-0.801-3.675,12.249-3.675,12.249s4.17,74.314,11.763,79.738
			c7.595,5.423,3.979-0.904,3.979-0.904S272.745,475.246,275.094,459.337z"/>
		<path fill="#0E8CCD" d="M199.676,506.059c0,0,1.83,19.399,4.285,18.059c5.24-2.869,35.113-17.148,44.887-22.082
			c18.723-9.449,40.422-21.697,40.422-21.697s-5.603-22.514-7.001-19.599c-4.57,9.527-27.39,23.655-44.797,32.196
			C228.601,497.285,199.676,506.059,199.676,506.059z"/>
		<path fill="#A42423" d="M311.387,482.817l2.662,21.094c0,0-5.12,35.225-26.111,49.769l-2.628-5.91
			C285.31,547.77,308.759,535.366,311.387,482.817z"/>
		<path fill="#A42423" d="M287.16,550.42c0,0,13.259,11.146,14.571,11.471c1.312,0.33-0.33,18.396-0.33,18.396l-9.194,4.597
			l0.655-22.99l-6.239-8.864l-2.299,9.194l-0.328,21.678l-9.854-5.256l-0.329-14.777l9.524-13.469"/>
	</g>
</g>
</svg>
