<?xml version="1.0" encoding="utf-8"?>
<!-- Generator: Adobe Illustrator 16.0.4, SVG Export Plug-In . SVG Version: 6.00 Build 0)  -->
<!DOCTYPE svg PUBLIC "-//W3C//DTD SVG 1.1//EN" "http://www.w3.org/Graphics/SVG/1.1/DTD/svg11.dtd">
<svg version="1.1" id="Layer_1" xmlns="http://www.w3.org/2000/svg" xmlns:xlink="http://www.w3.org/1999/xlink" x="0px" y="0px"
	 width="568.334px" height="529.972px" viewBox="115.208 215.877 568.334 529.972"
	 enable-background="new 115.208 215.877 568.334 529.972" xml:space="preserve">
<g>
	<g>
		<g>
			<path fill="#FFFFFF" d="M372.528,435.227l-2.562,41.48c0,0,7.683,11.024,6.691,22.193c-0.986,11.168-7.354,30.881-7.354,30.881
				l-11.101-49.035l-0.114-38.127L372.528,435.227z"/>
			<polygon fill="#1E1E1C" points="366.17,524.839 373.975,527.534 374.216,540.671 353.948,550.389 364.338,535.625 			"/>
			<path fill="#FEEDA4" d="M383.11,318.036c0.656-11.315-3.163-21.241-8.729-29.116c-2.662-3.773-23.932-25.48-27.796-21.202
				c-2.858,0.374-5.532-4.007-8.672-4.78c-6.38-1.576-13.586-0.463-20.268,2.537c-16.055,7.214-19.217,18.697-24.34,35.195
				c-4.299,13.833-3.231,20.09,2.254,31.229c6.68,13.584-7.076,27.318-18.444,19.707c-7.244-4.854-22.515-19.883-5.312-27.95
				c4.684-2.199,8.871-0.193,9.35,5.37c0.464,5.389-3.588,8.927-3.779,4.307c-0.159-3.883-12.219-0.536-4.898,6.035
				c7.542,6.771,18.885-7.987,17.795-17.318c-1.49-12.732-23.928-5.826-29.022,3.057c-6.574,11.473-2.849,29.707,2.024,38.508
				C289.853,411.637,379.06,388.064,383.11,318.036C383.771,306.613,381.935,338.305,383.11,318.036z M282.271,320.16
				c4.885,0.682,4.938,3.591,2.908,8.176C284.884,325.57,279.382,319.753,282.271,320.16
				C283.742,320.361,281.808,320.093,282.271,320.16z"/>
			<path fill="#1E1E1C" d="M359.439,417.152c-1.64-11.969-3.487-31.08-4.03-39.383c-0.048-0.705,9.317-0.877,9.282-1.052
				c-2.132-11.046-9.317-18.76-22.702-19.044c-22.112-0.472-18.857,21.786-18.857,21.786c1.878-1.308,8.383,0.431,8.562,0.56
				c6.253,4.74,4.587,35.026,4.587,35.026"/>
			<path fill="#FFFFFF" d="M316.778,530.203c-0.796-0.375,2.969-16.345,13.635-32.522c8.455-12.828,13.152-14.827,13.152-14.827
				s-22.515-39.285-5.678-58.99c17.233-20.172,8.795-0.123,8.795-0.123s8.139,55.512,7.881,56.627
				C350.526,497.734,316.778,530.203,316.778,530.203z"/>
			<path fill="#0DA2DD" d="M373.155,439.223c1.431,5.639-1.841-12.621-7.527-20.818c-5.924-8.538-8.076-8.021-8.076-8.021
				l-20.768,1.685c-3.922,4.92-12.347,20.131-9.875,29.391c2.017,7.54,25.438,11.023,25.438,11.023L373.155,439.223z"/>
			<path fill="#0E8CCD" d="M350.67,451.371l-25.093-10.484c0,0-0.637,6.125-1.769,6.195c-2.086,0.133-0.648,0.203,26.681,7.533
				L350.67,451.371z"/>
			<path fill="#0E8CCD" d="M350.984,451.658l22.464-12.977c0,0,1.849,6.959,2.983,6.891c1.133-0.07-25.272,9.396-25.272,9.396
				L350.984,451.658z"/>
			<g>
				<path fill="#FFFFFF" d="M310.82,322.096l0.002-0.002c0.909-3.857,3.436-2.938,5.8-1.215c-0.646-3.068-1.723-6.258-1.973-9.049
					c-0.091-1.061-0.211-2.299-0.309-3.6c6.86-0.931,13.651-2.723,20.057-4.865c8.396-2.812,14.591-7.344,19.93-13.664
					c3.402,1.762,6.341,4.596,9.096,8.372c0.709,0.976,6.667,16.211,8.588,20.131c4.092,8.339-11.074,19.421-16.859,27.483
					c-1.451,2.022-6.004,1.191-13.463-0.203c-1.302-0.244-0.518,12.139-0.212,15.422c0.229,2.457-2.664,3.588-4.36,2.273
					c-0.467-0.185-0.894-0.549-1.209-1.16c-0.314-0.619-0.625-1.324-0.927-2.06c-1.719-3.263-2.21-9.299-4.156-16.951
					c-0.562-2.198-9.463-5.301-10.361-7.471c-4.748-3.291-11.228-6.679-9.641-13.44C310.452,323.664,309.812,326.405,310.82,322.096
					z"/>
			</g>
			<path fill="none" stroke="#020303" stroke-width="0.8594" stroke-miterlimit="10" d="M355.24,311.236
				c0.097,1.422,1.028,2.521,2.083,2.459c1.062-0.068,1.839-1.277,1.746-2.7s-1.021-2.522-2.084-2.455
				C355.929,308.605,355.146,309.811,355.24,311.236z"/>
			<g>
				<g>
					<path fill="#020303" d="M345.03,308.674c1.379,2.43,0.433,5.986,3.084,7.657c1.134,0.714,2.328,0.269,3.42-0.224
						c2.064-0.196,2.589,0.467,1.572,1.988c-0.395,0.508-0.99,0.842-1.533,1.162c-0.824,0.488-1.817,0.844-2.773,0.954
						c-0.722,0.083-0.729,1.222,0,1.138c2.853-0.33,7.725-2.897,5.156-6.216c-1.426-1.843-4.093,1.388-5.854-0.229
						c-1.598-1.466-1.015-4.91-2.088-6.804C345.65,307.462,344.669,308.035,345.03,308.674L345.03,308.674z"/>
				</g>
			</g>
			<g>
				<g>
					<path fill="#020303" d="M339.381,326.559c5.593,1.045,11.749,3.787,16.666-0.627c0.212-0.19,0.231-0.617,0-0.805
						c-1.248-1-3.549-1.04-5.062-1.161c-2.906-0.233-5.796,0.37-8.12,2.167c-0.579,0.448,0.232,1.247,0.807,0.805
						c2.123-1.642,4.711-1.957,7.313-1.834c1.013,0.049,3.37,0.119,4.255,0.828c0-0.268,0-0.537,0-0.805
						c-4.536,4.073-10.441,1.292-15.559,0.334C338.967,325.327,338.659,326.423,339.381,326.559L339.381,326.559z"/>
				</g>
			</g>
			<g>
				<g>
					<path fill="#020303" d="M353.469,327.514c-1.751,1.901-6.577,2.094-8.495,0.351c-0.542-0.492-1.351,0.31-0.805,0.805
						c2.375,2.158,7.903,2.038,10.104-0.351C354.769,327.78,353.967,326.973,353.469,327.514L353.469,327.514z"/>
				</g>
			</g>
			<g>
				<path fill="#1E1E1C" d="M340.808,313.5c-2.826-5.062-12.354-3.855-15.188-0.598c-1.418-0.527-3.735-2.053-4.511-3.236
					c3.684,1.16,3.771,0.779,4.802,0.372c5.624-2.237,10.374-3.931,14.739,3.038"/>
				<g>
					<path fill="#020303" d="M341.166,313.29c-1.884-3.035-5.43-3.798-8.791-3.579c-1.68,0.109-3.313,0.581-4.837,1.284
						c-0.717,0.331-1.354,0.799-1.938,1.323c-0.678,0.607-3.774-2.396-4.133-2.862c-0.156,0.204-0.313,0.408-0.472,0.612
						c1.152,0.352,2.646,0.982,3.897,0.758c1.22-0.221,2.407-0.897,3.569-1.318c1.92-0.695,3.933-1.193,5.98-0.9
						c2.639,0.377,4.476,2.601,5.843,4.68c0.294,0.445,1.018,0.029,0.721-0.421c-2.21-3.357-5.015-5.581-9.187-5.095
						c-1.866,0.219-3.666,0.942-5.402,1.619c-1.944,0.756-3.144,0.502-5.201-0.125c-0.322-0.1-0.7,0.312-0.472,0.611
						c1.208,1.572,2.947,2.667,4.762,3.428c0.129,0.055,0.312-0.011,0.403-0.106c3.436-3.617,11.725-4.015,14.533,0.514
						C340.73,314.166,341.45,313.748,341.166,313.29L341.166,313.29z"/>
				</g>
			</g>
			<g>
				<path fill="#1E1E1C" d="M352.67,311.934c1.637-4.115,9.002-4.104,11.48-1.901c1.025-0.536,2.632-1.916,3.102-2.886
					c-2.683,1.226-2.789,0.947-3.608,0.735c-4.5-1.161-8.279-1.999-10.896,3.714"/>
				<g>
					<path fill="#020303" d="M352.944,312.094c1.736-3.71,7.958-4.24,10.981-1.837c0.111,0.091,0.253,0.129,0.387,0.05
						c1.276-0.754,2.438-1.722,3.214-2.998c0.182-0.299-0.164-0.558-0.437-0.438c-1.93,0.852-2.652,0.873-4.571,0.398
						c-1.321-0.326-2.646-0.551-4.007-0.543c-2.979,0.015-4.826,2.244-6.039,4.707c-0.184,0.368,0.369,0.691,0.551,0.322
						c1.916-3.893,4.639-4.874,8.734-4.008c2.47,0.521,3.256,0.732,5.652-0.327c-0.146-0.146-0.291-0.291-0.437-0.437
						c-0.637,1.047-1.522,1.795-2.518,2.492c-0.432,0.303-1.218-0.408-1.601-0.576c-1.146-0.502-2.439-0.631-3.676-0.662
						c-2.688-0.066-5.601,0.984-6.79,3.531C352.22,312.143,352.771,312.466,352.944,312.094L352.944,312.094z"/>
				</g>
			</g>
			<path fill="#F6AD9E" d="M327.203,324.242c0.125,1.894,2.479,3.297,5.252,3.121c2.778-0.172,4.93-1.854,4.805-3.748
				c-0.125-1.898-2.478-3.299-5.256-3.123C329.229,320.664,327.08,322.344,327.203,324.242z"/>
			<path fill="#F6AD9E" d="M356.132,321.648c0.127,1.895,2.479,3.295,5.252,3.121c2.774-0.174,4.928-1.853,4.803-3.75
				c-0.126-1.898-2.478-3.297-5.255-3.125C358.154,318.066,356.008,319.75,356.132,321.648z"/>
			<path fill="none" stroke="#020303" stroke-width="0.8594" stroke-miterlimit="10" d="M328.49,313.178
				c0.112,1.697,1.226,3.01,2.485,2.934c1.262-0.079,2.188-1.521,2.079-3.219c-0.114-1.699-1.224-3.01-2.483-2.93
				C329.311,310.041,328.38,311.479,328.49,313.178z"/>
			<g>
				<g>
					<path fill="#FFFFFF" d="M342.721,279.3c-1.282,8.379-10.151,13.097-17.242,15.982c-7.037,2.864-14.92,4.877-22.544,5.071
						c-0.638,0.016-0.639,1.006,0,0.989c8.139-0.207,16.572-2.407,24.021-5.608c7.012-3.012,15.452-7.881,16.723-16.17
						C343.771,278.939,342.817,278.67,342.721,279.3L342.721,279.3z"/>
				</g>
			</g>
			<g>
				<g>
					<path fill="#FFFFFF" d="M331.045,280.859c-2.911,6.252-11.443,8.048-17.544,9.392c-0.623,0.138-0.359,1.092,0.264,0.955
						c6.328-1.394,15.104-3.341,18.136-9.847C332.166,280.784,331.313,280.281,331.045,280.859L331.045,280.859z"/>
				</g>
			</g>
			<path fill="#1E1E1C" d="M319.699,516.698c1.188,0.364,6.809,6.04,6.809,6.04l-8.829,13.983l-12.09,7.892l2.542-12.732
				L319.699,516.698z"/>
		</g>
	</g>
	<path fill="#FFFFFF" d="M378.077,352.208c4.205,6.722-5.104,23.562-38.877,31.81c-25.286,6.174-46.51-4.125-50.721-10.849
		c-4.205-6.712,13.014-16.586,38.461-22.045C352.391,345.667,373.864,345.491,378.077,352.208z"/>
	<path fill="#EFF8FD" d="M362.351,428.933l17.742-61.155l-82.489,22.059l30.967,27.297l23.797,16.258c0,0,1.354,4.711-2.329,12.31
		c-0.308,0.634,8.635,0.425,8.635,0.425s-0.155,2.877,1.479,3.365c5.617,1.672,14.906-8.555,14.906-8.555s-2.749-1.119-1.775-2.021
		c1.184-1.089,3.276-5.084,3.163-4.965C375.621,434.803,362.351,428.933,362.351,428.933z"/>
	<path fill="#FFFFFF" d="M320.906,410.527c-3.543,5.56-4.993,17.687,17.062,9.555c21.018-7.748,27.593-14.116,27.593-14.116
		l10.36-8.763l-2.729-6.908c0,0-4.79-1.279-4.337,0.021c0.725,2.07-2.386,4.735-7.117,8.631c-3.763,3.094,2.25-2.321,1.611-6.398
		c-0.641-4.083-4.048-0.73-4.048-0.73s4.015,3.566-4.271,7.812c-4.143,2.126-0.801,7.1-0.801,7.1s-20.58,10.496-29.922,8.598
		C323.222,415.105,321.531,409.55,320.906,410.527z"/>
	<g>
		<g>
			<path fill="#A42423" d="M289.12,369.333c-0.028,0.131,1.107-1.908,3.748-2.058c2.645-0.147,2.938,0.604,2.938,0.604
				s-0.929-4.508-4.49-3.099C287.754,366.189,289.12,369.333,289.12,369.333z"/>
			<path fill="#A42423" d="M296.401,373.105c0,0,1.167-3.578,0.066-5.539c-1.102-1.959-1.771-3.069-1.771-3.069
				s4.399-0.743,4.292,2.849C298.884,370.938,296.401,373.105,296.401,373.105z"/>
			<path fill="#A42423" d="M297.45,372.866c0.027-0.128-5.284,2.885-7.143,3.207c-1.854,0.321,2.762,1.799,4.782,0.323
				C297.11,374.919,297.431,372.953,297.45,372.866z"/>
			<path fill="#A42423" d="M291.848,374.604c0,0-3.668-4.336-3.479-5.805c0.188-1.47,0.188-1.47,0.188-1.47
				s-3.975,4.522-1.199,6.465S291.848,374.604,291.848,374.604z"/>
			<path fill="#A42423" d="M285.37,369.626c0.062-0.078,0.365,5.058,3.017,5.697c1.814,0.44-3.759,1.6-3.48-1.313
				C285.184,371.094,285.37,369.626,285.37,369.626z"/>
			<path fill="#A42423" d="M286.014,369.928c0,0-1.661-3.365,0.522-4.761c2.187-1.394,5.224-1.567,5.224-1.567
				s-2.57,1.787-4.037,3.774C286.252,369.361,286.014,369.928,286.014,369.928z"/>
			<path fill="#A42423" d="M291.265,368.227c0.185-0.006,4.106-1.084,4.636,0.564c0.528,1.652-2.127,4.134-2.127,4.134
				s2.102-3.291,1.156-3.774C293.982,368.667,291.265,368.227,291.265,368.227z"/>
			<path fill="#A42423" d="M290.503,368.975c0,0-1.818,2.023,0.142,3.1c1.96,1.072,2.84,0.398,2.84,0.398s-1.745,0.139-2.352-1.574
				C290.525,369.186,290.503,368.975,290.503,368.975z"/>
			<path fill="#A42423" d="M291.618,373.361c-0.109-0.092,1.813,0.906,3.087-0.508c1.272-1.412,1.713-2.254,1.713-2.254
				S295.307,376.443,291.618,373.361z"/>
			<path fill="#A42423" d="M292.722,371.764c0,0,1.612-1.371,0.642-1.719c-0.975-0.347-1.601-0.306-1.601-0.306
				s2.689-1.705,3.135,0.104C295.343,371.646,292.722,371.764,292.722,371.764z"/>
			
				<ellipse transform="matrix(-0.843 0.5378 -0.5378 -0.843 738.2849 526.2181)" fill="#A42423" cx="292.362" cy="370.832" rx="0.821" ry="0.647"/>
		</g>
		<g>
			<path fill="#A42423" d="M290.312,357.753c-0.026,0.123,1.044-1.799,3.531-1.938c2.489-0.139,2.765,0.567,2.765,0.567
				s-0.873-4.245-4.229-2.917C289.025,354.794,290.312,357.753,290.312,357.753z"/>
			<path fill="#A42423" d="M297.169,361.307c0,0,1.103-3.369,0.064-5.216c-1.037-1.847-1.67-2.893-1.67-2.893
				s4.146-0.701,4.043,2.684C299.508,359.266,297.169,361.307,297.169,361.307z"/>
			<path fill="#A42423" d="M298.156,361.08c0.026-0.12-4.977,2.718-6.726,3.02c-1.748,0.305,2.604,1.696,4.504,0.307
				C297.838,363.016,298.139,361.162,298.156,361.08z"/>
			<path fill="#A42423" d="M292.881,362.718c0,0-3.452-4.084-3.276-5.469c0.179-1.383,0.179-1.383,0.179-1.383
				s-3.745,4.26-1.132,6.089C291.265,363.783,292.881,362.718,292.881,362.718z"/>
			<path fill="#A42423" d="M286.78,358.027c0.061-0.073,0.343,4.765,2.841,5.367c1.711,0.416-3.539,1.508-3.278-1.237
				C286.604,359.412,286.78,358.027,286.78,358.027z"/>
			<path fill="#A42423" d="M287.386,358.312c0,0-1.563-3.17,0.493-4.481c2.059-1.313,4.919-1.479,4.919-1.479
				s-2.421,1.687-3.805,3.559C287.611,357.779,287.386,358.312,287.386,358.312z"/>
			<path fill="#A42423" d="M292.332,356.711c0.174-0.005,3.867-1.021,4.364,0.533c0.498,1.553-2.001,3.892-2.001,3.892
				s1.979-3.101,1.088-3.557C294.891,357.126,292.332,356.711,292.332,356.711z"/>
			<path fill="#A42423" d="M291.615,357.415c0,0-1.714,1.905,0.133,2.918c1.847,1.01,2.678,0.376,2.678,0.376
				s-1.646,0.132-2.219-1.482C291.637,357.614,291.615,357.415,291.615,357.415z"/>
			<path fill="#A42423" d="M292.664,361.548c-0.103-0.084,1.71,0.853,2.907-0.479c1.199-1.329,1.612-2.123,1.612-2.123
				S296.141,364.45,292.664,361.548z"/>
			<path fill="#A42423" d="M293.705,360.043c0,0,1.521-1.294,0.604-1.62c-0.918-0.325-1.509-0.286-1.509-0.286
				s2.534-1.605,2.953,0.096C296.173,359.934,293.705,360.043,293.705,360.043z"/>
			
				<ellipse transform="matrix(-0.8426 0.5386 -0.5386 -0.8426 734.0064 503.7583)" fill="#A42423" cx="293.378" cy="359.155" rx="0.774" ry="0.609"/>
		</g>
		<g>
			<path fill="#A42423" d="M331.525,370.036c0.066-0.193-2.051,2.657-6.059,2.351c-4.014-0.3-4.306-1.486-4.306-1.486
				s0.502,6.978,6.149,5.56S331.525,370.036,331.525,370.036z"/>
			<path fill="#A42423" d="M321.307,362.904c0,0-2.476,5.158-1.204,8.335c1.269,3.17,2.058,4.977,2.058,4.977
				s-6.771,0.243-5.898-5.146C317.134,365.675,321.307,362.904,321.307,362.904z"/>
			<path fill="#A42423" d="M319.676,363.059c-0.067,0.186,8.531-3.3,11.396-3.412c2.861-0.121-3.803-3.266-7.139-1.439
				C320.596,360.029,319.723,362.93,319.676,363.059z"/>
			<path fill="#A42423" d="M328.465,361.551c0,0,4.661,7.262,4.089,9.438c-0.574,2.179-0.574,2.179-0.574,2.179
				s6.889-6.026,3.091-9.503C331.271,360.188,328.465,361.551,328.465,361.551z"/>
			<path fill="#A42423" d="M337.232,370.342c-0.109,0.102,0.457-7.695-3.412-9.189c-2.646-1.023,5.982-1.662,4.984,2.674
				C337.807,368.162,337.232,370.342,337.232,370.342z"/>
			<path fill="#A42423" d="M336.325,369.756c0,0,1.833,5.401-1.736,7.067c-3.565,1.669-8.181,1.329-8.181,1.329
				s4.229-2.186,6.834-4.891C335.851,370.562,336.325,369.756,336.325,369.756z"/>
			<path fill="#A42423" d="M328.074,371.277c-0.278-0.028-6.403,0.818-6.876-1.772c-0.467-2.589,4.025-5.804,4.025-5.804
				s-3.818,4.538-2.488,5.456C324.065,370.075,328.074,371.277,328.074,371.277z"/>
			<path fill="#A42423" d="M329.369,370.302c0,0,3.146-2.688,0.403-4.694c-2.739-2.008-4.201-1.168-4.201-1.168
				s2.662,0.138,3.229,2.838C329.38,369.98,329.369,370.302,329.369,370.302z"/>
			<path fill="#A42423" d="M328.562,363.468c0.145,0.156-2.558-1.725-4.755,0.15c-2.199,1.877-3.026,3.059-3.026,3.059
				S323.609,358.09,328.562,363.468z"/>
			<path fill="#A42423" d="M326.578,365.657c0,0-2.701,1.747-1.304,2.464c1.398,0.716,2.348,0.775,2.348,0.775
				s-4.391,2.033-4.702-0.774C322.608,365.314,326.578,365.657,326.578,365.657z"/>
			
				<ellipse transform="matrix(0.9064 -0.4224 0.4224 0.9064 -124.4777 172.4638)" fill="#A42423" cx="326.978" cy="367.153" rx="1.251" ry="0.985"/>
		</g>
		<g>
			<path fill="#A42423" d="M321.68,385.012c-0.021,0.146,1.002-2.175,3.842-2.602c2.838-0.432,3.23,0.349,3.23,0.349
				s-1.46-4.772-5.166-2.888C319.883,381.757,321.68,385.012,321.68,385.012z"/>
			<path fill="#A42423" d="M329.928,388.348c0,0,0.896-3.984-0.491-5.99s-2.226-3.137-2.226-3.137s4.678-1.25,4.928,2.641
				C332.39,385.755,329.928,388.348,329.928,388.348z"/>
			<path fill="#A42423" d="M331.036,387.98c0.02-0.139-5.414,3.654-7.387,4.189c-1.975,0.538,3.166,1.666,5.197-0.135
				C330.879,390.234,331.024,388.079,331.036,387.98z"/>
			<path fill="#A42423" d="M325.16,390.432c0,0-4.398-4.312-4.349-5.918c0.049-1.607,0.049-1.607,0.049-1.607
				s-3.83,5.292-0.634,7.107C323.426,391.825,325.16,390.432,325.16,390.432z"/>
			<path fill="#A42423" d="M317.657,385.709c0.062-0.087,0.907,5.428,3.837,5.854c2.008,0.289-3.896,2.108-3.894-1.066
				C317.604,387.316,317.657,385.709,317.657,385.709z"/>
			<path fill="#A42423" d="M318.382,385.971c0,0-2.137-3.466,0.084-5.191c2.218-1.731,5.479-2.23,5.479-2.23
				s-2.594,2.195-3.979,4.492C318.585,385.337,318.382,385.971,318.382,385.971z"/>
			<path fill="#A42423" d="M323.882,383.598c0.198-0.023,4.325-1.588,5.065,0.143c0.738,1.727-1.876,4.68-1.876,4.68
				s1.937-3.768,0.864-4.195C326.863,383.797,323.882,383.598,323.882,383.598z"/>
			<path fill="#A42423" d="M323.136,384.484c0,0-1.761,2.369,0.467,3.33s3.11,0.146,3.11,0.146s-1.875,0.328-2.7-1.461
				C323.181,384.71,323.136,384.484,323.136,384.484z"/>
			<path fill="#A42423" d="M324.786,389.109c-0.127-0.084,2.054,0.795,3.285-0.86c1.23-1.655,1.617-2.608,1.617-2.608
				S329.09,392.064,324.786,389.109z"/>
			<path fill="#A42423" d="M325.817,387.273c0,0,1.604-1.648,0.516-1.924c-1.087-0.274-1.758-0.168-1.758-0.168
				s2.731-2.115,3.399-0.209C328.636,386.878,325.817,387.273,325.817,387.273z"/>
			
				<ellipse transform="matrix(-0.7892 0.6141 -0.6141 -0.7892 819.294 491.3684)" fill="#A42423" cx="325.324" cy="386.281" rx="0.892" ry="0.703"/>
		</g>
		<g>
			<path fill="#A42423" d="M311.078,384.438c0.164-0.181-3.514,1.955-7.793-0.275c-4.274-2.229-4.032-3.678-4.032-3.678
				s-2.75,7.927,4.146,9.037C310.294,390.631,311.078,384.438,311.078,384.438z"/>
			<path fill="#A42423" d="M303.188,371.739c0,0-5.164,4.516-5.266,8.614c-0.104,4.095-0.088,6.457-0.088,6.457
				s-7.585-2.934-4.068-8.461C297.279,372.82,303.188,371.739,303.188,371.739z"/>
			<path fill="#A42423" d="M301.322,371.135c-0.162,0.176,10.965,0.405,14.175,1.633c3.211,1.223-2.646-5.396-7.188-4.961
				C303.765,368.232,301.437,371.018,301.322,371.135z"/>
			<path fill="#A42423" d="M311.719,373.633c0,0,1.705,10.213,0.046,12.338c-1.664,2.129-1.664,2.129-1.664,2.129
				s10.438-3.384,7.902-9.012C315.46,373.46,311.719,373.633,311.719,373.633z"/>
			<path fill="#A42423" d="M317.229,387.469c-0.174,0.065,4.141-8.261,0.585-11.736c-2.435-2.381,7.378,1,4.229,5.305
				C318.892,385.343,317.229,387.469,317.229,387.469z"/>
			<path fill="#A42423" d="M316.503,386.398c0,0-0.535,6.82-5.261,6.965c-4.722,0.15-9.644-2.403-9.644-2.403
				s5.695-0.409,9.848-2.153C315.6,387.059,316.503,386.398,316.503,386.398z"/>
			<path fill="#A42423" d="M306.689,384.171c-0.296-0.162-7.445-2.13-6.733-5.209c0.708-3.073,7.182-4.489,7.182-4.489
				s-6.357,3.192-5.328,4.836C302.843,380.945,306.689,384.171,306.689,384.171z"/>
			<path fill="#A42423" d="M308.579,383.708c0,0,4.736-1.474,2.666-4.983c-2.07-3.512-4.079-3.273-4.079-3.273
				s2.868,1.408,2.222,4.656S308.579,383.708,308.579,383.708z"/>
			<path fill="#A42423" d="M310.924,375.792c0.084,0.244-2-3.106-5.312-2.082c-3.311,1.026-4.783,1.938-4.783,1.938
				S308.01,367.523,310.924,375.792z"/>
			<path fill="#A42423" d="M307.702,377.27c0,0-3.809,0.645-2.606,2.098c1.204,1.453,2.225,1.969,2.225,1.969
				s-5.802,0.164-4.823-3.082C303.484,375.011,307.702,377.27,307.702,377.27z"/>
			<path fill="#A42423" d="M305.897,379.148c-0.021-0.649,0.629-1.2,1.461-1.227c0.829-0.025,1.512,0.48,1.533,1.135
				c0.021,0.652-0.634,1.199-1.456,1.228C306.604,380.311,305.916,379.802,305.897,379.148z"/>
		</g>
		<g>
			<path fill="#A42423" d="M309.838,365.288c0.146-0.128-2.99,1.267-6.23-0.894c-3.243-2.16-2.922-3.304-2.922-3.304
				s-2.894,6.126,2.546,7.614C308.669,370.191,309.838,365.288,309.838,365.288z"/>
			<path fill="#A42423" d="M304.6,354.415c0,0-4.533,3.178-4.969,6.459c-0.439,3.278-0.63,5.176-0.63,5.176
				s-5.838-3.012-2.538-7.145C299.765,354.771,304.6,354.415,304.6,354.415z"/>
			<path fill="#A42423" d="M303.154,353.77c-0.145,0.127,8.77,1.276,11.237,2.535c2.47,1.264-1.658-4.559-5.339-4.605
				C305.367,351.652,303.256,353.686,303.154,353.77z"/>
			<path fill="#A42423" d="M311.283,356.677c0,0,0.484,8.341-1.035,9.902c-1.519,1.565-1.519,1.565-1.519,1.565
				s8.676-1.813,7.125-6.552C314.303,356.857,311.283,356.677,311.283,356.677z"/>
			<path fill="#A42423" d="M314.509,368.257c-0.146,0.035,4.041-6.272,1.485-9.373c-1.748-2.122,5.835,1.441,2.937,4.625
				C316.027,366.693,314.509,368.257,314.509,368.257z"/>
			<path fill="#A42423" d="M314.021,367.333c0,0-1.02,5.429-4.823,5.138c-3.805-0.289-7.534-2.766-7.534-2.766
				s4.604,0.163,8.092-0.877C313.238,367.786,314.021,367.333,314.021,367.333z"/>
			<path fill="#A42423" d="M306.332,364.693c-0.22-0.155-5.788-2.352-4.95-4.76c0.835-2.41,6.147-2.984,6.147-2.984
				s-5.38,2.017-4.689,3.421C303.523,361.775,306.332,364.693,306.332,364.693z"/>
			<path fill="#A42423" d="M307.889,364.484c0,0,3.933-0.771,2.574-3.767c-1.357-2.997-2.992-2.981-2.992-2.981
				s2.181,1.379,1.381,3.933C308.053,364.221,307.889,364.484,307.889,364.484z"/>
			<path fill="#A42423" d="M310.456,358.337c0.052,0.204-1.336-2.668-4.083-2.13c-2.743,0.54-4.007,1.141-4.007,1.141
				S308.838,351.449,310.456,358.337z"/>
			<path fill="#A42423" d="M307.745,359.243c0,0-3.111,0.19-2.271,1.459c0.84,1.271,1.613,1.771,1.613,1.771
				s-4.674-0.371-3.604-2.889C304.556,357.064,307.745,359.243,307.745,359.243z"/>
			
				<ellipse transform="matrix(0.9971 0.0758 -0.0758 0.9971 28.2261 -22.2611)" fill="#A42423" cx="307.364" cy="360.699" rx="1.211" ry="0.954"/>
		</g>
		<g>
			<path fill="#A42423" d="M347.809,383.559c-0.028,0.131,1.109-1.908,3.749-2.058c2.645-0.147,2.937,0.604,2.937,0.604
				s-0.928-4.508-4.486-3.099C346.443,380.416,347.809,383.559,347.809,383.559z"/>
			<path fill="#A42423" d="M355.091,387.331c0,0,1.169-3.578,0.066-5.539c-1.102-1.959-1.771-3.067-1.771-3.067
				s4.398-0.746,4.291,2.848C357.572,385.163,355.091,387.331,355.091,387.331z"/>
			<path fill="#A42423" d="M356.139,387.091c0.028-0.127-5.284,2.886-7.142,3.207c-1.855,0.322,2.763,1.8,4.781,0.324
				C355.8,389.145,356.118,387.18,356.139,387.091z"/>
			<path fill="#A42423" d="M350.536,388.829c0,0-3.668-4.338-3.479-5.806c0.188-1.469,0.188-1.469,0.188-1.469
				s-3.975,4.522-1.198,6.465C348.82,389.96,350.536,388.829,350.536,388.829z"/>
			<path fill="#A42423" d="M344.06,383.85c0.062-0.076,0.365,5.059,3.015,5.7c1.816,0.441-3.757,1.599-3.479-1.315
				C343.871,385.318,344.06,383.85,344.06,383.85z"/>
			<path fill="#A42423" d="M344.702,384.152c0,0-1.661-3.365,0.524-4.762c2.185-1.394,5.222-1.567,5.222-1.567
				s-2.569,1.788-4.037,3.774C344.94,383.587,344.702,384.152,344.702,384.152z"/>
			<path fill="#A42423" d="M349.954,382.45c0.184-0.005,4.105-1.084,4.637,0.565c0.525,1.652-2.126,4.133-2.126,4.133
				s2.1-3.289,1.152-3.772C352.671,382.893,349.954,382.45,349.954,382.45z"/>
			<path fill="#A42423" d="M349.191,383.199c0,0-1.817,2.021,0.142,3.098c1.963,1.073,2.843,0.4,2.843,0.4s-1.746,0.138-2.354-1.575
				C349.217,383.408,349.191,383.199,349.191,383.199z"/>
			<path fill="#A42423" d="M350.307,387.588c-0.109-0.092,1.812,0.903,3.087-0.509c1.273-1.413,1.713-2.253,1.713-2.253
				S353.995,390.669,350.307,387.588z"/>
			<path fill="#A42423" d="M351.409,385.988c0,0,1.615-1.371,0.644-1.719c-0.975-0.349-1.603-0.305-1.603-0.305
				s2.69-1.705,3.137,0.102C354.031,385.871,351.409,385.988,351.409,385.988z"/>
			<path fill="#A42423" d="M351.734,384.598c0.193,0.301,0.037,0.742-0.344,0.985c-0.384,0.244-0.852,0.199-1.042-0.103
				c-0.193-0.305-0.038-0.746,0.346-0.989C351.075,384.248,351.541,384.294,351.734,384.598z"/>
		</g>
		<g>
			<path fill="#A42423" d="M360.812,377.089c-0.041,0.185,1.558-2.68,5.267-2.889c3.718-0.208,4.128,0.848,4.128,0.848
				s-1.305-6.334-6.31-4.353C358.892,372.675,360.812,377.089,360.812,377.089z"/>
			<path fill="#A42423" d="M371.041,382.393c0,0,1.644-5.028,0.099-7.783c-1.549-2.752-2.491-4.312-2.491-4.312
				s6.183-1.045,6.029,4.002C374.529,379.346,371.041,382.393,371.041,382.393z"/>
			<path fill="#A42423" d="M372.516,382.057c0.039-0.181-7.425,4.051-10.033,4.504c-2.606,0.453,3.88,2.528,6.72,0.455
				C372.037,384.938,372.488,382.177,372.516,382.057z"/>
			<path fill="#A42423" d="M364.644,384.495c0,0-5.154-6.093-4.889-8.154c0.263-2.063,0.263-2.063,0.263-2.063
				s-5.584,6.354-1.688,9.082C362.233,386.087,364.644,384.495,364.644,384.495z"/>
			<path fill="#A42423" d="M355.544,377.501c0.087-0.108,0.512,7.106,4.234,8.008c2.552,0.619-5.278,2.244-4.89-1.85
				C355.28,379.564,355.544,377.501,355.544,377.501z"/>
			<path fill="#A42423" d="M356.447,377.927c0,0-2.334-4.729,0.736-6.688c3.07-1.962,7.338-2.207,7.338-2.207
				s-3.613,2.513-5.673,5.305C356.781,377.13,356.447,377.927,356.447,377.927z"/>
			<path fill="#A42423" d="M363.825,375.534c0.257-0.009,5.771-1.523,6.515,0.795c0.739,2.323-2.988,5.808-2.988,5.808
				s2.95-4.623,1.623-5.304C367.643,376.154,363.825,375.534,363.825,375.534z"/>
			<path fill="#A42423" d="M362.757,376.585c0,0-2.56,2.845,0.194,4.354s3.991,0.562,3.991,0.562s-2.453,0.194-3.304-2.213
				C362.786,376.88,362.757,376.585,362.757,376.585z"/>
			<path fill="#A42423" d="M364.32,382.751c-0.15-0.128,2.551,1.272,4.34-0.714c1.786-1.984,2.404-3.166,2.404-3.166
				S369.505,387.081,364.32,382.751z"/>
			<path fill="#A42423" d="M365.871,380.505c0,0,2.269-1.928,0.9-2.414c-1.368-0.489-2.249-0.43-2.249-0.43s3.78-2.396,4.404,0.146
				C369.555,380.339,365.871,380.505,365.871,380.505z"/>
			<path fill="#A42423" d="M366.325,378.548c0.271,0.427,0.055,1.045-0.48,1.388c-0.539,0.344-1.194,0.278-1.464-0.146
				c-0.271-0.425-0.055-1.045,0.482-1.388C365.402,378.059,366.056,378.124,366.325,378.548z"/>
		</g>
		<g>
			<path fill="#A42423" d="M363.948,362.05c-0.023,0.123,1.045-1.797,3.533-1.937c2.488-0.141,2.764,0.566,2.764,0.566
				s-0.873-4.244-4.229-2.916C362.661,359.093,363.948,362.05,363.948,362.05z"/>
			<path fill="#A42423" d="M370.806,365.604c0,0,1.103-3.369,0.063-5.215c-1.034-1.848-1.669-2.893-1.669-2.893
				s4.146-0.702,4.042,2.682C373.145,363.562,370.806,365.604,370.806,365.604z"/>
			<path fill="#A42423" d="M371.796,365.378c0.024-0.119-4.979,2.718-6.728,3.021s2.604,1.695,4.504,0.305
				C371.475,367.312,371.777,365.462,371.796,365.378z"/>
			<path fill="#A42423" d="M366.518,367.016c0,0-3.453-4.084-3.276-5.468c0.179-1.384,0.179-1.384,0.179-1.384
				s-3.744,4.261-1.133,6.089C364.903,368.081,366.518,367.016,366.518,367.016z"/>
			<path fill="#A42423" d="M360.419,362.327c0.059-0.075,0.342,4.762,2.84,5.366c1.71,0.416-3.538,1.506-3.277-1.238
				C360.241,363.71,360.419,362.327,360.419,362.327z"/>
			<path fill="#A42423" d="M361.023,362.609c0,0-1.562-3.168,0.494-4.481c2.059-1.312,4.919-1.479,4.919-1.479
				s-2.42,1.687-3.804,3.56C361.251,362.078,361.023,362.609,361.023,362.609z"/>
			<path fill="#A42423" d="M365.97,361.009c0.174-0.006,3.867-1.021,4.366,0.533c0.495,1.554-2.002,3.892-2.002,3.892
				s1.978-3.1,1.086-3.555C368.529,361.423,365.97,361.009,365.97,361.009z"/>
			<path fill="#A42423" d="M365.254,361.712c0,0-1.717,1.907,0.132,2.918c1.848,1.013,2.677,0.376,2.677,0.376
				s-1.646,0.133-2.218-1.48S365.254,361.712,365.254,361.712z"/>
			<path fill="#A42423" d="M366.302,365.848c-0.104-0.087,1.709,0.852,2.909-0.479c1.195-1.329,1.609-2.122,1.609-2.122
				S369.777,368.748,366.302,365.848z"/>
			<path fill="#A42423" d="M367.343,364.341c0,0,1.521-1.295,0.604-1.62c-0.916-0.326-1.508-0.285-1.508-0.285
				s2.535-1.607,2.955,0.094C369.811,364.229,367.343,364.341,367.343,364.341z"/>
			
				<ellipse transform="matrix(-0.8429 0.538 -0.538 -0.8429 871.9687 472.3854)" fill="#A42423" cx="367.031" cy="363.472" rx="0.775" ry="0.609"/>
		</g>
		<g>
			<path fill="#A42423" d="M375.45,353.255c0.148-0.13-2.988,1.265-6.229-0.894c-3.242-2.161-2.921-3.305-2.921-3.305
				s-2.896,6.127,2.546,7.613C374.282,358.159,375.45,353.255,375.45,353.255z"/>
			<path fill="#A42423" d="M370.217,342.38c0,0-4.536,3.179-4.973,6.459c-0.438,3.278-0.629,5.179-0.629,5.179
				s-5.838-3.013-2.538-7.146C365.382,342.736,370.217,342.38,370.217,342.38z"/>
			<path fill="#A42423" d="M368.769,341.734c-0.146,0.127,8.769,1.277,11.237,2.535c2.471,1.263-1.657-4.559-5.339-4.604
				C370.982,339.618,368.868,341.65,368.769,341.734z"/>
			<path fill="#A42423" d="M376.899,344.643c0,0,0.483,8.342-1.035,9.903c-1.518,1.563-1.518,1.563-1.518,1.563
				s8.675-1.812,7.122-6.551C379.919,344.825,376.899,344.643,376.899,344.643z"/>
			<path fill="#A42423" d="M380.123,356.225c-0.146,0.034,4.038-6.273,1.485-9.375c-1.747-2.121,5.836,1.441,2.938,4.625
				C381.642,354.659,380.123,356.225,380.123,356.225z"/>
			<path fill="#A42423" d="M379.635,355.298c0,0-1.021,5.429-4.823,5.14c-3.805-0.289-7.533-2.767-7.533-2.767
				s4.604,0.164,8.089-0.877C378.853,355.751,379.635,355.298,379.635,355.298z"/>
			<path fill="#A42423" d="M371.947,352.661c-0.22-0.156-5.79-2.353-4.953-4.761c0.836-2.411,6.15-2.985,6.15-2.985
				s-5.379,2.017-4.691,3.422C369.139,349.742,371.947,352.661,371.947,352.661z"/>
			<path fill="#A42423" d="M373.503,352.452c0,0,3.934-0.772,2.574-3.769c-1.356-2.996-2.991-2.98-2.991-2.98
				s2.182,1.378,1.381,3.931C373.669,352.186,373.503,352.452,373.503,352.452z"/>
			<path fill="#A42423" d="M376.072,346.305c0.049,0.202-1.336-2.669-4.084-2.132c-2.745,0.539-4.006,1.14-4.006,1.14
				S374.45,339.415,376.072,346.305z"/>
			<path fill="#A42423" d="M373.36,347.208c0,0-3.113,0.19-2.271,1.461c0.838,1.269,1.61,1.771,1.61,1.771s-4.673-0.371-3.603-2.89
				C370.171,345.032,373.36,347.208,373.36,347.208z"/>
			
				<ellipse transform="matrix(0.9971 0.0758 -0.0758 0.9971 27.5127 -27.2807)" fill="#A42423" cx="372.987" cy="348.645" rx="1.211" ry="0.954"/>
		</g>
		<g>
			<path fill="#A42423" d="M320.784,354.7c0.122-0.104-2.466,1.045-5.139-0.735c-2.674-1.779-2.408-2.724-2.408-2.724
				s-2.385,5.053,2.102,6.276C319.822,358.746,320.784,354.7,320.784,354.7z"/>
			<path fill="#A42423" d="M316.469,345.734c0,0-3.74,2.621-4.102,5.326c-0.359,2.703-0.519,4.269-0.519,4.269
				s-4.812-2.481-2.092-5.892C312.479,346.029,316.469,345.734,316.469,345.734z"/>
			<path fill="#A42423" d="M315.274,345.202c-0.12,0.104,7.231,1.053,9.267,2.092c2.038,1.04-1.365-3.76-4.401-3.799
				C317.101,343.456,315.357,345.132,315.274,345.202z"/>
			<path fill="#A42423" d="M321.979,347.602c0,0,0.399,6.877-0.854,8.166c-1.254,1.289-1.254,1.289-1.254,1.289
				s7.154-1.494,5.875-5.4C324.469,347.751,321.979,347.602,321.979,347.602z"/>
			<path fill="#A42423" d="M324.638,357.15c-0.119,0.027,3.332-5.176,1.227-7.729c-1.44-1.752,4.812,1.188,2.419,3.812
				C325.891,355.859,324.638,357.15,324.638,357.15z"/>
			<path fill="#A42423" d="M324.235,356.389c0,0-0.842,4.477-3.979,4.236c-3.138-0.236-6.213-2.281-6.213-2.281
				s3.798,0.135,6.671-0.724C323.592,356.762,324.235,356.389,324.235,356.389z"/>
			<path fill="#A42423" d="M317.896,354.213c-0.182-0.13-4.775-1.939-4.085-3.926c0.688-1.987,5.071-2.462,5.071-2.462
				s-4.438,1.661-3.868,2.819C315.579,351.807,317.896,354.213,317.896,354.213z"/>
			<path fill="#A42423" d="M319.179,354.04c0,0,3.242-0.638,2.124-3.106c-1.121-2.472-2.469-2.457-2.469-2.457
				s1.799,1.137,1.14,3.239C319.313,353.82,319.179,354.04,319.179,354.04z"/>
			<path fill="#A42423" d="M321.298,348.971c0.04,0.168-1.104-2.201-3.367-1.758c-2.267,0.444-3.303,0.939-3.303,0.939
				S319.962,343.29,321.298,348.971z"/>
			<path fill="#A42423" d="M319.061,349.716c0,0-2.568,0.158-1.874,1.203c0.691,1.049,1.331,1.463,1.331,1.463
				s-3.854-0.306-2.971-2.384C316.432,347.922,319.061,349.716,319.061,349.716z"/>
			<path fill="#A42423" d="M317.73,350.833c0.034-0.433,0.505-0.751,1.057-0.707c0.551,0.041,0.969,0.426,0.936,0.858
				c-0.033,0.437-0.504,0.75-1.055,0.709S317.698,351.268,317.73,350.833z"/>
		</g>
		<g>
			<path fill="#A42423" d="M336.197,349.124c-0.146,0.06,2.674-0.16,4.601,2.41c1.926,2.571,1.358,3.37,1.358,3.37
				s3.938-3.965,0.117-6.618C338.456,345.634,336.197,349.124,336.197,349.124z"/>
			<path fill="#A42423" d="M337.272,359.02c0,0,4.4-1.224,5.643-3.652c1.243-2.428,1.915-3.85,1.915-3.85s3.708,3.948,0.007,6.252
				C341.131,360.07,337.272,359.02,337.272,359.02z"/>
			<path fill="#A42423" d="M338.22,359.919c0.146-0.062-6.464-3.407-8.037-5.067c-1.571-1.66,0.034,4.002,2.882,5.053
				C335.914,360.952,338.116,359.956,338.22,359.919z"/>
			<path fill="#A42423" d="M332.7,355.419c0,0,1.921-6.617,3.532-7.413c1.611-0.798,1.611-0.798,1.611-0.798
				s-7.243-0.979-7.341,3.129C330.404,354.443,332.7,355.419,332.7,355.419z"/>
			<path fill="#A42423" d="M333.386,345.529c0.121,0.013-4.87,3.763-3.738,6.875c0.775,2.132-4.14-2.728-1.007-4.401
				C331.773,346.326,333.386,345.529,333.386,345.529z"/>
			<path fill="#A42423" d="M333.51,346.384c0,0,2.287-3.94,5.166-2.667c2.876,1.272,5.093,4.227,5.093,4.227
				s-3.534-1.396-6.529-1.547C334.241,346.244,333.51,346.384,333.51,346.384z"/>
			<path fill="#A42423" d="M338.759,350.548c0.129,0.185,3.853,3.427,2.539,5.066c-1.312,1.645-5.604,0.627-5.604,0.627
				s4.734-0.086,4.588-1.367C340.138,353.591,338.759,350.548,338.759,350.548z"/>
			<path fill="#A42423" d="M337.491,350.284c0,0-3.271-0.483-3.04,2.219c0.229,2.703,1.505,3.142,1.505,3.142
				s-1.313-1.672,0.011-3.437C337.29,350.445,337.491,350.284,337.491,350.284z"/>
			<path fill="#A42423" d="M333.802,354.355c0.019-0.172,0.304,2.441,2.587,2.779s3.429,0.217,3.429,0.217
				S333.162,360.156,333.802,354.355z"/>
			<path fill="#A42423" d="M336.157,354.398c0,0,2.475,0.709,2.17-0.51c-0.304-1.218-0.767-1.822-0.767-1.822
				s3.53,1.576,2.003,3.238C338.038,356.968,336.157,354.398,336.157,354.398z"/>
			<path fill="#A42423" d="M337.784,353.789c-0.176,0.396-0.727,0.54-1.23,0.314c-0.504-0.223-0.771-0.726-0.592-1.121
				c0.176-0.399,0.725-0.537,1.229-0.315C337.693,352.889,337.96,353.391,337.784,353.789z"/>
		</g>
		<g>
			<path fill="#A42423" d="M344.908,364.745c-0.095,0.185,2.416-2.328,6.337-1.44c3.928,0.881,4.041,2.098,4.041,2.098
				s0.521-6.975-5.271-6.396C344.221,359.585,344.908,364.745,344.908,364.745z"/>
			<path fill="#A42423" d="M353.98,373.29c0,0,3.199-4.742,2.406-8.067c-0.794-3.322-1.312-5.226-1.312-5.226
				s6.736,0.746,5.088,5.951C358.514,371.157,353.98,373.29,353.98,373.29z"/>
			<path fill="#A42423" d="M355.616,373.378c0.095-0.174-8.922,2.021-11.771,1.715c-2.85-0.297,3.287,3.785,6.853,2.464
				C354.266,376.239,355.552,373.497,355.616,373.378z"/>
			<path fill="#A42423" d="M346.702,373.589c0,0-3.555-7.864-2.672-9.935c0.886-2.07,0.886-2.07,0.886-2.07s-7.691,4.96-4.44,8.952
				C343.727,374.525,346.702,373.589,346.702,373.589z"/>
			<path fill="#A42423" d="M339.308,363.611c0.123-0.084-1.572,7.548,2.037,9.591c2.47,1.397-6.16,0.772-4.542-3.371
				C338.424,365.686,339.308,363.611,339.308,363.611z"/>
			<path fill="#A42423" d="M340.118,364.326c0,0-1.025-5.611,2.75-6.74c3.771-1.132,8.285-0.125,8.285-0.125
				s-4.502,1.548-7.475,3.844C340.706,363.598,340.118,364.326,340.118,364.326z"/>
			<path fill="#A42423" d="M348.505,364.021c0.271,0.068,6.457,0.123,6.543,2.758c0.086,2.628-4.826,5.152-4.826,5.152
				s4.438-3.933,3.256-5.035C352.296,365.795,348.505,364.021,348.505,364.021z"/>
			<path fill="#A42423" d="M347.079,364.798c0,0-3.502,2.202-1.082,4.587c2.417,2.387,3.986,1.768,3.986,1.768
				s-2.613-0.523-2.782-3.279C347.025,365.116,347.079,364.798,347.079,364.798z"/>
			<path fill="#A42423" d="M346.885,371.677c-0.121-0.178,2.276,2.08,4.725,0.544c2.45-1.535,3.441-2.584,3.441-2.584
				S351.001,377.721,346.885,371.677z"/>
			<path fill="#A42423" d="M349.164,369.8c0,0,2.932-1.334,1.649-2.248c-1.28-0.911-2.211-1.108-2.211-1.108
				s4.641-1.373,4.542,1.451C353.045,370.718,349.164,369.8,349.164,369.8z"/>
			
				<ellipse transform="matrix(-0.9584 0.2853 -0.2853 -0.9584 788.5603 621.6649)" fill="#A42423" cx="348.992" cy="368.278" rx="1.249" ry="0.983"/>
		</g>
		<g>
			<path fill="#A42423" d="M359.487,353.936c0.04-0.142-1.308,2.006-4.181,2.015c-2.87,0.013-3.146-0.815-3.146-0.815
				s0.75,4.936,4.69,3.609C360.79,357.417,359.487,353.936,359.487,353.936z"/>
			<path fill="#A42423" d="M351.812,349.436c0,0-1.469,3.811-0.387,5.998c1.081,2.185,1.746,3.426,1.746,3.426
				s-4.812,0.558-4.491-3.33C349.001,351.641,351.812,349.436,351.812,349.436z"/>
			<path fill="#A42423" d="M350.661,349.634c-0.036,0.136,5.891-2.825,7.919-3.069c2.03-0.244-2.89-2.106-5.159-0.621
				C351.147,347.427,350.688,349.54,350.661,349.634z"/>
			<path fill="#A42423" d="M356.831,348.066c0,0,3.729,4.906,3.439,6.488c-0.283,1.582-0.283,1.582-0.283,1.582
				s4.562-4.676,1.665-6.938C358.755,346.939,356.831,348.066,356.831,348.066z"/>
			<path fill="#A42423" d="M363.567,353.831c-0.071,0.078-0.106-5.502-2.943-6.349c-1.942-0.578,4.164-1.52,3.694,1.623
				C363.854,352.249,363.567,353.831,363.567,353.831z"/>
			<path fill="#A42423" d="M362.89,353.468c0,0,1.606,3.74-0.839,5.125c-2.445,1.39-5.748,1.407-5.748,1.407
				s2.888-1.794,4.591-3.864C362.598,354.064,362.89,353.468,362.89,353.468z"/>
			<path fill="#A42423" d="M357.104,355.014c-0.2-0.005-4.513,0.94-4.994-0.877c-0.478-1.816,2.538-4.357,2.538-4.357
				s-2.461,3.445-1.465,4.023C354.182,354.382,357.104,355.014,357.104,355.014z"/>
			<path fill="#A42423" d="M357.969,354.245c0,0,2.09-2.089,0.022-3.364c-2.062-1.273-3.056-0.596-3.056-0.596
				s1.902-0.051,2.457,1.839C357.956,354.016,357.969,354.245,357.969,354.245z"/>
			<path fill="#A42423" d="M357.01,349.427c0.11,0.104-1.914-1.083-3.375,0.375c-1.458,1.46-1.981,2.345-1.981,2.345
				S353.184,345.878,357.01,349.427z"/>
			<path fill="#A42423" d="M355.725,351.096c0,0-1.828,1.397-0.792,1.829c1.035,0.431,1.715,0.418,1.715,0.418
				s-3.011,1.697-3.393-0.286C352.878,351.077,355.725,351.096,355.725,351.096z"/>
			<path fill="#A42423" d="M355.29,352.588c-0.188-0.338,0-0.809,0.434-1.052c0.428-0.244,0.93-0.166,1.122,0.172
				c0.19,0.34,0,0.81-0.432,1.051C355.986,353.003,355.486,352.926,355.29,352.588z"/>
		</g>
		<g>
			<path fill="#A42423" d="M337.24,387.047c0.155-0.036-2.666-0.229-4.194-3.054c-1.531-2.826-0.854-3.535-0.854-3.535
				s-4.473,3.351-1.082,6.533C334.496,390.171,337.24,387.047,337.24,387.047z"/>
			<path fill="#A42423" d="M337.618,377.104c0,0-4.529,0.566-6.113,2.789c-1.582,2.222-2.454,3.53-2.454,3.53
				s-3.096-4.446,0.904-6.187C333.954,375.499,337.618,377.104,337.618,377.104z"/>
			<path fill="#A42423" d="M336.812,376.073c-0.154,0.036,5.898,4.313,7.213,6.186c1.313,1.871,0.551-3.965-2.115-5.419
				S336.919,376.052,336.812,376.073z"/>
			<path fill="#A42423" d="M341.616,381.329c0,0-2.862,6.267-4.572,6.817c-1.713,0.556-1.713,0.556-1.713,0.556
				s7.021,2.026,7.721-2.022C343.746,382.627,341.616,381.329,341.616,381.329z"/>
			<path fill="#A42423" d="M339.501,391.014c-0.119-0.029,5.363-3.014,4.697-6.259c-0.455-2.223,3.697,3.304,0.355,4.502
				C341.212,390.459,339.501,391.014,339.501,391.014z"/>
			<path fill="#A42423" d="M339.502,390.15c0,0-2.839,3.563-5.499,1.886c-2.66-1.679-4.426-4.923-4.426-4.923
				s3.294,1.896,6.235,2.48C338.756,390.182,339.502,390.15,339.502,390.15z"/>
			<path fill="#A42423" d="M334.915,385.266c-0.101-0.201-3.312-3.949-1.771-5.384c1.537-1.434,5.632,0.199,5.632,0.199
				s-4.696-0.604-4.737,0.685C333.993,382.055,334.915,385.266,334.915,385.266z"/>
			<path fill="#A42423" d="M336.13,385.711c0,0,3.166,0.954,3.332-1.753s-1.033-3.325-1.033-3.325s1.059,1.846-0.508,3.396
				C336.352,385.579,336.13,385.711,336.13,385.711z"/>
			<path fill="#A42423" d="M340.376,382.221c-0.045,0.168,0.055-2.46-2.155-3.128c-2.21-0.666-3.358-0.715-3.358-0.715
				S341.85,376.575,340.376,382.221z"/>
			<path fill="#A42423" d="M338.05,381.834c0,0-2.346-1.061-2.223,0.188c0.121,1.25,0.492,1.914,0.492,1.914
				s-3.263-2.072-1.51-3.496C336.562,379.021,338.05,381.834,338.05,381.834z"/>
			<path fill="#A42423" d="M336.35,382.2c0.231-0.367,0.798-0.429,1.265-0.132c0.468,0.293,0.655,0.828,0.423,1.195
				c-0.229,0.368-0.795,0.426-1.264,0.133C336.311,383.104,336.119,382.568,336.35,382.2z"/>
		</g>
	</g>
</g>
</svg>
