<?xml version="1.0" encoding="utf-8"?>
<!-- Generator: Adobe Illustrator 16.0.4, SVG Export Plug-In . SVG Version: 6.00 Build 0)  -->
<!DOCTYPE svg PUBLIC "-//W3C//DTD SVG 1.1//EN" "http://www.w3.org/Graphics/SVG/1.1/DTD/svg11.dtd">
<svg version="1.1" id="chair" xmlns="http://www.w3.org/2000/svg" xmlns:xlink="http://www.w3.org/1999/xlink" x="0px" y="0px"
	 width="2455.33px" height="1090.996px" viewBox="0 0 2455.33 1090.996" enable-background="new 0 0 2455.33 1090.996"
	 xml:space="preserve">
<path fill="#B7B6C0" d="M667.524,1026.903c0.086-0.956-1.077-122.031-1-123c10.768-135.082-57.333-223.667-132.143-223.032
	c-72.119,0.612-130.588,79.008-130.588,176.471c0,17.101,9.369,155.261,12.731,170.895L667.524,1026.903z"/>
<path fill="#B7B6C0" d="M657.191,1026.236c2.74-14.231,1.853-144.798,1.853-160.189c0-97.461-58.466-176.471-130.588-176.471
	c-72.122,0-130.588,79.01-130.588,176.471c0,15.393,7.583,148.956,10.324,163.189L657.191,1026.236z"/>
<g>
	<g>
		<path fill="#9594A2" d="M652.733,1027.236c0.261-23.414,0.395-46.83,0.589-70.244c0.211-25.494,1.025-51.075,0.25-76.566
			c-2.1-69.076-22.167-149.535-92.126-178.967c-23.184-9.754-48.59-12.82-73.581-11.658c-2.408,0.112-2.418,3.862,0,3.75
			c24.188-1.124,48.619,1.753,71.158,10.929c27.466,11.182,49.12,32.163,63.471,57.877c34.087,61.076,27.57,135.266,27.011,202.753
			c-0.172,20.709-0.291,41.419-0.521,62.127C648.956,1029.655,652.706,1029.653,652.733,1027.236L652.733,1027.236z"/>
	</g>
</g>
<g>
	<g>
		<path fill="#9594A2" d="M516.685,685.249c15.382-1.754,30.947-2.011,45.925,2.421c14.554,4.307,27.613,12.999,39.331,22.422
			c23.077,18.558,38.811,43.691,48.818,71.338c8.247,22.784,13.145,47.697,14.188,71.91c0.526,12.201,0.59,24.429,0.728,36.639
			c0.51,45.225,1.663,90.713,0.086,135.925c-0.079,2.274,3.446,2.267,3.525,0c0.93-26.673,0.362-53.465,0.28-80.147
			c-0.093-30.486,0.106-61.043-1.058-91.514c-1.534-40.134-12.704-82.356-35.449-115.743
			c-12.552-18.425-29.598-33.722-48.778-45.008c-20.967-12.338-43.799-14.481-67.597-11.768
			C514.454,681.978,514.429,685.505,516.685,685.249L516.685,685.249z"/>
	</g>
</g>
</svg>
