<?xml version="1.0" encoding="utf-8"?>
<!-- Generator: Adobe Illustrator 16.0.4, SVG Export Plug-In . SVG Version: 6.00 Build 0)  -->
<!DOCTYPE svg PUBLIC "-//W3C//DTD SVG 1.1//EN" "http://www.w3.org/Graphics/SVG/1.1/DTD/svg11.dtd">
<svg version="1.1" id="hand" xmlns="http://www.w3.org/2000/svg" xmlns:xlink="http://www.w3.org/1999/xlink" x="0px" y="0px"
	 width="2455.33px" height="1090.996px" viewBox="0 0 2455.33 1090.996" enable-background="new 0 0 2455.33 1090.996"
	 xml:space="preserve">
<g>
	<g>
		<path fill="#EDEDF7" d="M983.901,798.673c-16.912,18.516,2.38,17.727,18.049,18.516c8.128,0.531,39.602-8.207,45.639-15.535
			c10.973-14.779-6.303-36.555-18.207-43.234c-13.655-7.643-38.634-3.975-46.34,11.555c-4.497,10.172,5.398,18.15,6.84,25.178"/>
		<g>
			<path fill="#1B1D3A" d="M982.634,797.407c-3.611,4.064-11.221,12.999-4.348,17.804c6.324,4.421,16.37,3.42,23.663,3.77
				c7.775,0.373,16.169-2.461,23.49-4.7c7.644-2.338,16.424-5.092,22.553-10.456c6.659-5.829,5.525-16.992,2.332-24.191
				c-3.994-9.005-10.84-16.992-19.179-22.257c-14.742-9.307-38.795-4.803-48.522,9.694c-7.161,10.673,3.012,18.713,5.532,28.559
				c0.573,2.236,4.027,1.286,3.454-0.953c-2.299-8.981-11.748-16.02-5.894-25.798c4.781-7.984,14.898-11.526,23.675-12.374
				c18.693-1.805,37.624,13.638,39.82,32.495c1.112,9.546-5.122,14.064-12.792,17.486c-8.084,3.606-16.838,6.06-25.49,7.856
				c-6.848,1.423-13.573,0.996-20.513,0.458c-3.329-0.259-7.791-0.521-10.452-2.829c-3.479-3.016,3.473-10.083,5.203-12.03
				C986.696,798.219,984.172,795.677,982.634,797.407L982.634,797.407z"/>
		</g>
	</g>
	<g>
		<path fill="#F4EDE1" d="M922.292,789.511c32-15,36.619-43.23,43.603-52.355c2.587-3.143,5.515-9.297,9.119-11.559
			c12.697,2.957,25.885,4.824,38.368,9.664c9.583,4.129,12.723,6.008,22.025,9.344c6.134,8.32,22.107,28.424,19.166,38.008
			c-2.784,1.592-9.203-7.52-15.111-11.238c-9.047-5.596-10.716-7.309-18.222-0.146c-17.107,16.377-52.904,42.34-79.948,31.283"/>
		<g>
			<path fill="#1B1D3A" d="M923.196,791.058c18.697-9,30.223-24.063,38.719-42.497c3.289-7.136,7.163-14.249,12.464-20.119
				c1.763-1.952,8.431,0.685,10.632,1.141c3.522,0.73,7.041,1.47,10.547,2.267c8,1.818,15.615,4.319,23.096,7.691
				c4.828,2.176,9.641,4.322,14.602,6.182c3.508,1.315,6.847,8.192,8.954,11.209c2.955,4.229,5.698,8.61,8.003,13.229
				c1.1,2.204,1.947,4.496,2.556,6.88c0.267,1.047,0.349,2.109,0.37,3.184c0.039,1.995-1.067-0.181-2.297-1.231
				c-4.009-3.426-7.398-7.253-11.917-10.061c-3.084-1.917-7.33-5.158-11.274-4.054c-4.114,1.151-7.043,4.532-10.084,7.337
				c-4.256,3.925-8.763,7.576-13.413,11.022c-16.989,12.594-40.862,25.869-62.384,17.547c-2.158-0.835-3.083,2.63-0.952,3.453
				c21.229,8.21,44.441-3.566,61.742-15.475c4.187-2.882,8.202-6.017,12.109-9.263c4.159-3.456,7.945-8.101,12.664-10.747
				c4.249-2.383,12.232,4.693,15.066,7.198c3.25,2.873,6.291,7.162,10.573,8.532c7.53,2.408,1.278-14.137,0.335-16.131
				c-4.212-8.915-10.517-16.771-16.352-24.652c-1.146-1.548-4.023-1.908-5.736-2.57c-2.777-1.073-5.493-2.296-8.204-3.524
				c-6.41-2.903-12.716-5.532-19.502-7.45c-6.922-1.958-14.018-3.287-21.054-4.756c-2.106-0.44-5.82-2.107-7.919-1.529
				c-1.897,0.521-3.686,3.034-4.75,4.502c-3.085,4.257-6.268,8.604-8.603,13.33c-2.361,4.775-4.432,9.679-6.923,14.393
				c-7.438,14.074-18.498,24.95-32.874,31.869C919.307,788.966,921.125,792.054,923.196,791.058L923.196,791.058z"/>
		</g>
	</g>
</g>
</svg>
