<?xml version="1.0" encoding="utf-8"?>
<!-- Generator: Adobe Illustrator 16.0.4, SVG Export Plug-In . SVG Version: 6.00 Build 0)  -->
<!DOCTYPE svg PUBLIC "-//W3C//DTD SVG 1.1//EN" "http://www.w3.org/Graphics/SVG/1.1/DTD/svg11.dtd">
<svg version="1.1" id="char1" xmlns="http://www.w3.org/2000/svg" xmlns:xlink="http://www.w3.org/1999/xlink" x="0px" y="0px"
	 width="2455.33px" height="1090.996px" viewBox="0 0 2455.33 1090.996" enable-background="new 0 0 2455.33 1090.996"
	 xml:space="preserve">
<g>
	<g>
		<path fill="#DC4832" d="M709.833,715.742c1.705,7.464,3.43,15.794,12.406,18.486c-1,2,0,4,1,6
			c1.063,1.595,2.288,3.135,3.596,4.645c-0.242-2.512-0.674-4.539-1.321-5.996C719.765,725.918,715.339,721.166,709.833,715.742z"/>
		<g>
			<path fill="#DC4832" d="M708.106,716.218c1.975,8.651,4.566,16.584,13.657,19.736c-0.417-0.734-0.834-1.469-1.251-2.203
				c-1.34,4.95,2.023,8.807,5.056,12.388c0.959,1.132,3.244,0.269,3.058-1.267c-1.422-11.707-9.337-22.295-17.526-30.397
				c-1.643-1.625-4.177,0.907-2.533,2.533c7.4,7.32,15.188,17.246,16.478,27.864c1.019-0.422,2.038-0.844,3.058-1.267
				c-1.966-2.32-5.086-5.392-4.135-8.901c0.268-0.989-0.327-1.883-1.251-2.203c-7.746-2.687-9.515-10.048-11.155-17.236
				C711.046,713.014,707.593,713.969,708.106,716.218z"/>
		</g>
	</g>
	<g>
		<path fill="#DC4832" d="M722.24,734.228c-1.846-0.554-3.382-1.349-4.677-2.323l6.444,9.925c0.836,0.873,1.706,1.807,2.598,2.779
			c-1.222-1.425-2.363-2.88-3.364-4.381C722.24,738.228,721.24,736.228,722.24,734.228z"/>
		<g>
			<path fill="#DC4832" d="M722.716,732.501c-1.558-0.509-2.918-1.194-4.25-2.144c-1.474-1.051-3.397,0.991-2.45,2.451
				c2.951,4.544,5.65,9.079,9.321,13.066c1.583,1.719,4.003-0.792,2.533-2.533c-1.894-2.241-5.062-5.454-3.904-8.638
				c0.792-2.176-2.67-3.105-3.454-0.953c-1.67,4.591,2.056,8.845,4.825,12.124c0.844-0.845,1.689-1.688,2.533-2.533
				c-3.448-3.744-5.986-8.065-8.762-12.342c-0.817,0.817-1.633,1.634-2.45,2.451c1.576,1.124,3.269,1.904,5.105,2.503
				C723.966,736.673,724.902,733.214,722.716,732.501z"/>
		</g>
	</g>
	<g>
		<path fill="#DC4832" d="M723.24,740.228c-1-2-2-4-1-6c-6.156-1.847-10.557-11.379-10.557-11.379
			c-1.046-3.161,7.279-10.53,6.508-13.613c26-38,20-18,18-44c-0.728-9.457-2.375-34.75-16.25-47.875
			c-0.157-0.331-10.694-8.445-11-8.541c-10.25-3.208-48.833-0.709-61.917-6.959c-3.815-8.269-9.422-12.375-9.422-12.375
			s0.08,2.646-43.203,7.25c-13.708,1.458-36-2.459-42.917-5.459c9.75,11.542,10.321,11.509-6.083,28.374
			c-34.083,35.04,20.505,313.933,1.792,401.585l113,0.334c13.438-32.857,71.623-246.418,70.54-276.585
			C729.423,743.475,724.303,741.823,723.24,740.228z"/>
	</g>
	<g>
		<g>
			<path fill="#1B1D3A" d="M646.553,603.357c11.081,6.236,26.663,4.813,38.891,5.111c7.287,0.178,14.709,0.259,21.877,1.711
				c5.444,1.102,8.135,4.45,12.104,8.073c1.702,1.553,4.243-0.973,2.533-2.533c-3.334-3.043-6.099-6.56-10.425-8.116
				c-5.826-2.096-12.553-2.202-18.662-2.479c-7.936-0.359-15.882-0.348-23.816-0.765c-6.808-0.357-14.608-0.67-20.694-4.096
				C646.345,599.129,644.54,602.224,646.553,603.357L646.553,603.357z"/>
		</g>
	</g>
	<g>
		<g>
			<path fill="#1B1D3A" d="M549.945,592.958c2.388,3.184,7.832,8.5,6.796,12.928c-0.925,3.954-6.344,6.25-9.189,8.758
				c-3.174,2.798-5.46,6.568-7.246,10.357c-5.116,10.86-6.726,23.291-7.847,35.116c-3.629,38.294-0.249,77.406,2.491,115.646
				c5.812,81.142,15.677,163.038,10.45,244.473c-0.148,2.308,3.435,2.293,3.582,0c5.965-92.938-7.486-186.12-12.671-278.784
				c-1.739-31.073-3.739-63.312,1.361-94.183c1.511-9.147,3.774-18.829,9.208-26.519c3.156-4.467,8.315-6.7,11.706-10.932
				c5.113-6.38-1.774-13.638-5.548-18.669C551.67,589.327,548.558,591.108,549.945,592.958L549.945,592.958z"/>
		</g>
	</g>
	<g>
		<g>
			<path fill="#1B1D3A" d="M561.021,594.58c13.397,3.776,28.374,3.5,42.131,2.78c15.934-0.833,33.111-3.133,47.221-11.062
				c2.014-1.132,0.208-4.227-1.808-3.094c-13.969,7.851-31.011,9.82-46.747,10.644c-12.991,0.679-27.209,0.839-39.846-2.722
				C559.746,590.499,558.801,593.955,561.021,594.58L561.021,594.58z"/>
		</g>
	</g>
	<g>
		<g>
			<path fill="#1B1D3A" d="M663.918,1023.046c6.03-19.322,10.855-39.08,16.085-58.626c9.041-33.79,17.955-67.614,26.772-101.464
				c5.859-22.491,11.681-44.992,17.356-67.53c3.042-12.079,6.501-24.203,8.713-36.472c0.407-2.259-3.044-3.224-3.454-0.953
				c-3.582,19.866-9.447,39.504-14.447,59.04c-8.673,33.886-17.534,67.724-26.467,101.541
				c-9.11,34.491-17.381,69.444-28.013,103.511C659.774,1024.305,663.232,1025.244,663.918,1023.046L663.918,1023.046z"/>
		</g>
	</g>
</g>
</svg>
