<?xml version="1.0" encoding="utf-8"?>
<!-- Generator: Adobe Illustrator 16.0.4, SVG Export Plug-In . SVG Version: 6.00 Build 0)  -->
<!DOCTYPE svg PUBLIC "-//W3C//DTD SVG 1.1//EN" "http://www.w3.org/Graphics/SVG/1.1/DTD/svg11.dtd">
<svg version="1.1" id="arm_up" xmlns="http://www.w3.org/2000/svg" xmlns:xlink="http://www.w3.org/1999/xlink" x="0px" y="0px"
	 width="2455.33px" height="1090.996px" viewBox="0 0 2455.33 1090.996" enable-background="new 0 0 2455.33 1090.996"
	 xml:space="preserve">
<g>
	<g>
		<path fill="#DC4832" d="M876.066,814.861c1.5-12.75,6.978-19.849-6.25-27.625c-12.108-4.237-46.493-14.965-79-44.375
			c-40.268-36.431-63.341-107.723-71.055-124.233c-8.287,2.69-36.412,3.233-40.706,11.689c-11.131,20.931-11.72,19.901-8.864,42.919
			c0.751,3.088,20.859,31.35,21.885,34.518l14.039,12.98c1.289,0.982,3.636,6.836,5.479,7.4c-1.012,1.994,1.149,0.95,2.137,2.957
			c0.991,1.507,2.124,2.969,3.336,4.401c0.912,1.006-2.846,6.517-1.876,7.618c4.114,4.432,11.365,6.591,14.25,11.25
			c31.669,37.319,87.125,92.375,127.875,92.625C866.816,825.861,871.816,822.986,876.066,814.861z"/>
	</g>
	<g>
		<g>
			<path fill="#1B1D3A" d="M713.583,612.591c5.883,5.181,8.926,14.146,11.968,21.118c5.394,12.364,10.42,24.88,16.082,37.128
				c14.419,31.193,32.895,61.16,59.394,83.542c18.648,15.751,40.852,26.576,64.64,31.935c2.25,0.507,3.205-2.946,0.952-3.453
				c-39.183-8.826-71.044-32.84-94.236-65.134c-18.08-25.175-30.023-53.679-42.1-82.021c-3.576-8.393-7.088-19.414-14.166-25.648
				C714.39,608.539,711.846,611.062,713.583,612.591L713.583,612.591z"/>
		</g>
	</g>
	<g>
		<g>
			<path fill="#1B1D3A" d="M713.04,743.598c8.907,6.935,16.521,15.849,24.418,23.864c12.837,13.027,25.852,25.889,39.536,38.031
				c13.622,12.086,28.008,23.701,43.918,32.657c11.499,6.474,25.209,12.237,38.649,9.702c0.455-0.092,0.907-0.195,1.357-0.311
				c2.244-0.543,1.292-3.997-0.952-3.453c-13.468,3.262-27.595-3.497-38.993-10.022c-16.008-9.165-30.364-21.168-44.059-33.436
				c-12.993-11.639-25.355-23.961-37.595-36.383c-7.68-7.793-15.087-16.44-23.748-23.184
				C713.773,739.665,711.219,742.18,713.04,743.598L713.04,743.598z"/>
		</g>
	</g>
</g>
</svg>
