<?xml version="1.0" encoding="utf-8"?>
<!-- Generator: Adobe Illustrator 16.0.4, SVG Export Plug-In . SVG Version: 6.00 Build 0)  -->
<!DOCTYPE svg PUBLIC "-//W3C//DTD SVG 1.1//EN" "http://www.w3.org/Graphics/SVG/1.1/DTD/svg11.dtd">
<svg version="1.1" id="arm_down" xmlns="http://www.w3.org/2000/svg" xmlns:xlink="http://www.w3.org/1999/xlink" x="0px" y="0px"
	 width="2455.33px" height="1090.996px" viewBox="0 0 2455.33 1090.996" enable-background="new 0 0 2455.33 1090.996"
	 xml:space="preserve">
<g>
	<g>
		<path fill="#DC4832" d="M930.419,770.304c0,0-80.009,19.566-75.258,21.015c6.84,2.084,5.284,2.734-2.149,0.133
			c-3.571,7.784-3.071,17.534-2.571,19.784c-2.5,17-9.606,33.203,13.5,36.5c7.036-0.359,13.987-0.791,21.25-3
			c14.644-4.456,75.227-13.398,76.182-25.604C962.2,808.562,981.449,778.781,930.419,770.304z"/>
	</g>
	<g>
		<g>
			<path fill="#1B1D3A" d="M850.033,790.49c3.63,0.851,8.075-0.598,11.587-1.383c7.406-1.657,14.719-3.752,22.016-5.825
				c7.653-2.174,15.282-4.432,22.934-6.607c4.365-1.241,9.08-3.064,13.636-3.431c2.286-0.184,2.304-3.768,0-3.582
				c-4.068,0.327-8.146,1.756-12.052,2.844c-7.106,1.979-14.179,4.079-21.267,6.12c-7.311,2.104-14.634,4.18-22.016,6.025
				c-3.878,0.97-9.827,3.336-13.887,2.386C848.738,786.51,847.785,789.963,850.033,790.49L850.033,790.49z"/>
		</g>
	</g>
	<g>
		<g>
			<path fill="#1B1D3A" d="M855.641,849.113c5.375,1.328,12.317-0.553,17.644-1.302c11.317-1.593,22.564-3.745,33.722-6.21
				c11.586-2.561,23.149-5.518,34.316-9.56c6.604-2.391,14.776-5.226,19.175-11.058c1.392-1.846-1.721-3.628-3.093-1.809
				c-4.227,5.604-13.408,8.168-19.671,10.349c-10.681,3.718-21.725,6.424-32.759,8.861c-10.249,2.265-20.583,4.184-30.965,5.729
				c-5.013,0.746-12.565,2.744-17.417,1.546C854.35,845.105,853.399,848.559,855.641,849.113L855.641,849.113z"/>
		</g>
	</g>
	<g>
		<g>
			<path fill="#1B1D3A" d="M922.896,772.681c1.436-1.988,8.331-1.143,10.516-0.947c6.197,0.555,12.38,2.465,17.824,5.455
				c6.041,3.318,10.823,8.477,12.803,15.148c2.954,9.954-1.42,20.741-6.113,29.379c-1.103,2.03,1.99,3.838,3.093,1.809
				c5.188-9.549,9.18-20.435,6.672-31.386c-1.765-7.708-7.41-13.724-14.025-17.687c-6.263-3.753-13.618-5.707-20.846-6.354
				c-3.817-0.341-10.424-0.814-13.016,2.773C918.447,772.75,921.557,774.535,922.896,772.681L922.896,772.681z"/>
		</g>
	</g>
</g>
</svg>
