<?xml version="1.0" encoding="utf-8"?>
<!-- Generator: Adobe Illustrator 16.0.4, SVG Export Plug-In . SVG Version: 6.00 Build 0)  -->
<!DOCTYPE svg PUBLIC "-//W3C//DTD SVG 1.1//EN" "http://www.w3.org/Graphics/SVG/1.1/DTD/svg11.dtd">
<svg version="1.1" xmlns="http://www.w3.org/2000/svg" xmlns:xlink="http://www.w3.org/1999/xlink" x="0px" y="0px"
	 width="2455.33px" height="1090.996px" viewBox="0 0 2455.33 1090.996" enable-background="new 0 0 2455.33 1090.996"
	 xml:space="preserve">
<g id="bars">
	<path fill="#9594A2" d="M905.042,482.267c0,0-1.52,20.519-1.52,20.518c-3.04,0,126.909-4.559,126.909-4.559l3.04-18.238
		L905.042,482.267z"/>
	<path fill="#9594A2" d="M908.842,377.396c0,0-1.52,20.519-1.52,20.518c-3.04,0,126.909-4.559,126.909-4.559l3.04-18.238
		L908.842,377.396z"/>
	<path fill="#9594A2" d="M908.841,407.793c0,0-1.439,17.479-1.439,17.478c-7.713,0,328.212-3.799,328.212-3.799l1.521-18.999
		L908.841,407.793z"/>
	<path fill="#9594A2" d="M908.841,434.391l-2.199,22.038c-7.713,0,324.412-3.799,324.412-3.799l3.04-19.758L908.841,434.391z"/>
	<path fill="#9594A2" d="M906.561,511.144l-1.439,17.479c-7.713,0,328.212-3.8,328.212-3.8l1.52-18.999L906.561,511.144z"/>
	<path fill="#9594A2" d="M906.561,537.742c0,0-2.199,22.038-2.199,22.037c-7.713,0,324.412-3.799,324.412-3.799l3.041-19.758
		L906.561,537.742z"/>
	<path fill="#9594A2" d="M902.002,579.539c0,0-1.52,20.519-1.52,20.518c-3.04,0,126.909-4.559,126.909-4.559l3.04-18.238
		L902.002,579.539z"/>
	<path fill="#9594A2" d="M903.521,608.416l-1.439,17.479c-7.713,0,328.214-3.8,328.214-3.8l1.52-18.999L903.521,608.416z"/>
	<path fill="#9594A2" d="M903.521,635.013c0,0-2.199,22.038-2.199,22.037c-7.713,0,324.413-3.799,324.413-3.799l3.041-19.758
		L903.521,635.013z"/>
	<path fill="#9594A2" d="M903.522,672.25c0,0-1.52,20.519-1.52,20.518c-3.04,0,126.909-4.559,126.909-4.559l3.04-18.238
		L903.522,672.25z"/>
	<path fill="#9594A2" d="M905.042,701.127l-1.439,17.479c-7.713,0,328.214-3.8,328.214-3.8l1.52-18.999L905.042,701.127z"/>
	<path fill="#9594A2" d="M905.042,727.725c0,0-2.199,22.038-2.199,22.037c-7.713,0,324.414-3.799,324.414-3.799l3.041-19.758
		L905.042,727.725z"/>
</g>
<g id="bars_red">
	<path fill="#E20613" d="M905.042,482.267c0,0-1.52,20.519-1.52,20.518c-3.04,0,126.909-4.559,126.909-4.559l3.04-18.238
		L905.042,482.267z"/>
	<path fill="#E20613" d="M906.561,511.144l-1.439,17.479c-7.713,0,328.212-3.8,328.212-3.8l1.52-18.999L906.561,511.144z"/>
	<path fill="#E20613" d="M906.561,537.742c0,0-2.199,22.038-2.199,22.037c-7.713,0,324.412-3.799,324.412-3.799l3.041-19.758
		L906.561,537.742z"/>
</g>
</svg>
