<?xml version="1.0" encoding="utf-8"?>
<!-- Generator: Adobe Illustrator 16.0.4, SVG Export Plug-In . SVG Version: 6.00 Build 0)  -->
<!DOCTYPE svg PUBLIC "-//W3C//DTD SVG 1.1//EN" "http://www.w3.org/Graphics/SVG/1.1/DTD/svg11.dtd">
<svg version="1.1" id="computer_1_" xmlns="http://www.w3.org/2000/svg" xmlns:xlink="http://www.w3.org/1999/xlink" x="0px"
	 y="0px" width="2455.33px" height="1090.996px" viewBox="0 0 2455.33 1090.996" enable-background="new 0 0 2455.33 1090.996"
	 xml:space="preserve">
<g>
	<g>
		<g>
			<g>
				<path fill="#9594A2" d="M1123.191,741.861c3.431-31.174-12.2-131.801-11.25-137.811l-65.116,9.34
					c-1.654,16.775,15.576,119.643,13.491,128.096"/>
			</g>
			<g>
				<path fill="#9594A2" d="M959.469,753.378c30.022-3.895,106.879-27.201,98.598-25.018c-8.798,2.318,86-1.625,151,3.875
					c-16.475,6.113-41.961,19.844-60.17,24.879c-26.461,7.799-149.207-5.238-182.639-2.334"/>
			</g>
			<g>
				<polygon fill="#D9D8DE" points="1272.192,656.236 858.286,657.13 866.191,315.569 1286.859,309.236 1287.914,313.361 				"/>
			</g>
			<g>
				<polygon fill="#B7B6C0" points="1289.193,307.57 1301.859,323.236 1295.193,645.57 1298.526,652.903 1272.526,657.57 				"/>
			</g>
			<g>
				<g>
					<path fill="#1B1D3A" d="M855.41,658.908c11.668-0.571,23.455-0.161,35.131-0.172c26.17-0.022,52.341,0.001,78.511,0.021
						c66.208,0.048,132.415,0.13,198.623,0.043c24.509-0.031,49.019-0.073,73.526-0.244c10.71-0.074,22.069,0.808,32.724-0.589
						c2.257-0.296,2.285-3.882,0-3.582c-11.427,1.498-23.622,0.529-35.108,0.605c-26.165,0.173-52.331,0.208-78.497,0.237
						c-66.208,0.072-132.416-0.012-198.623-0.059c-24.514-0.017-49.027-0.036-73.541-0.012c-10.884,0.011-21.869-0.364-32.746,0.169
						C853.111,655.438,853.1,659.021,855.41,658.908L855.41,658.908z"/>
				</g>
			</g>
			<g>
				<g>
					<path fill="#1B1D3A" d="M1051.051,667.798c1.104,3.801,1.153,8.097,1.552,12.009c0.78,7.648,1.46,15.308,2.159,22.964
						c0.659,7.225,1.313,14.45,2.049,21.668c0.402,3.946,0.48,8.289,1.594,12.123c0.643,2.213,4.1,1.271,3.454-0.953
						c-1.104-3.801-1.153-8.097-1.552-12.01c-0.78-7.648-1.46-15.308-2.159-22.964c-0.659-7.225-1.313-14.45-2.049-21.668
						c-0.402-3.945-0.48-8.288-1.594-12.122C1053.862,664.632,1050.405,665.575,1051.051,667.798L1051.051,667.798z"/>
				</g>
			</g>
			<g>
				<g>
					<path fill="#1B1D3A" d="M1116.602,666.781c1.102,3.802,1.151,8.098,1.55,12.011c0.779,7.649,1.46,15.309,2.158,22.965
						c0.659,7.225,1.313,14.45,2.05,21.668c0.402,3.945,0.479,8.288,1.594,12.122c0.643,2.213,4.1,1.271,3.453-0.953
						c-1.104-3.801-1.152-8.097-1.551-12.009c-0.78-7.648-1.46-15.308-2.159-22.964c-0.659-7.225-1.312-14.451-2.049-21.669
						c-0.402-3.947-0.48-8.288-1.593-12.124C1119.413,663.614,1115.957,664.557,1116.602,666.781L1116.602,666.781z"/>
				</g>
			</g>
			<g>
				<g>
					<path fill="#1B1D3A" d="M1124.588,730.917c5.127-0.877,10.712-0.384,15.881-0.311c8.831,0.126,17.66,0.429,26.485,0.734
						c13.829,0.479,27.925,1.828,41.763,1.211c2.301-0.103,2.311-3.685,0-3.582c-14.21,0.634-28.688-0.759-42.889-1.25
						c-8.755-0.303-17.513-0.583-26.272-0.708c-5.229-0.074-10.737-0.435-15.921,0.452
						C1121.361,727.853,1122.329,731.304,1124.588,730.917L1124.588,730.917z"/>
				</g>
			</g>
			<g>
				<g>
					<path fill="#1B1D3A" d="M989.919,746.285c11.415-0.729,22.983-4.25,34.02-7.019c10.906-2.735,22.593-5.109,32.889-9.761
						c2.103-0.95,0.28-4.036-1.808-3.094c-9.99,4.514-21.458,6.729-32.033,9.4c-10.7,2.704-21.998,6.184-33.067,6.891
						C987.625,742.849,987.611,746.432,989.919,746.285L989.919,746.285z"/>
				</g>
			</g>
			<g>
				<path fill="#F4F5F7" d="M1252.191,633.736h-375l5.25-295l380-0.5c0,0-0.047,2.007-1.25,103.25
					C1259.441,588.736,1252.191,633.736,1252.191,633.736z"/>
			</g>
			<g>
				<g>
					<path fill="#1B1D3A" d="M881.426,337.995c-0.593,5.047-0.456,10.251-0.575,15.322c-0.259,10.986-0.433,21.974-0.607,32.962
						c-0.506,31.955-0.919,63.912-1.397,95.867c-0.486,32.5-0.991,65.001-1.785,97.495c-0.285,11.668-0.601,23.337-1.092,34.998
						c-0.246,5.83-0.243,12.324-1.217,17.848c-0.042,0.243-0.096,0.484-0.163,0.722c-0.626,2.229,2.83,3.173,3.454,0.953
						c1.347-4.796,1.079-10.412,1.318-15.335c0.53-10.891,0.829-21.793,1.116-32.691c0.841-31.875,1.336-63.759,1.824-95.641
						c0.498-32.563,0.923-65.126,1.422-97.689c0.273-17.884-0.004-35.925,1.193-53.781c0.023-0.344,0.051-0.687,0.091-1.029
						C885.277,335.704,881.692,335.729,881.426,337.995L881.426,337.995z"/>
				</g>
			</g>
			<g>
				<g>
					<path fill="#1B1D3A" d="M863.852,316.236c-1.647,13.993-0.941,28.591-1.229,42.649c-0.611,29.811-1.126,59.623-1.671,89.435
						c-1.113,60.886-1.847,121.819-4.226,182.672c-0.309,7.891,0.387,17.973-1.659,25.249c-0.626,2.229,2.83,3.173,3.454,0.953
						c1.181-4.199,0.977-9.103,1.209-13.414c0.521-9.678,0.839-19.367,1.148-29.054c0.948-29.715,1.57-59.44,2.179-89.164
						c1.25-61.018,2.103-122.045,3.501-183.06c0.199-8.674-0.14-17.634,0.876-26.267
						C867.703,313.944,864.118,313.971,863.852,316.236L863.852,316.236z"/>
				</g>
			</g>
			<g>
				<g>
					<path fill="#1B1D3A" d="M883.942,339.944c36.31,0.008,72.62,0.016,108.929,0.024c63.328,0.014,126.657,0.028,189.985,0.042
						c24.155,0.005,48.31,0.011,72.465,0.016c2.31,0,2.31-3.582,0-3.582c-36.31-0.008-72.619-0.016-108.929-0.024
						c-63.329-0.014-126.657-0.028-189.985-0.042c-24.155-0.005-48.31-0.011-72.465-0.016
						C881.632,336.361,881.632,339.943,883.942,339.944L883.942,339.944z"/>
				</g>
			</g>
			<g>
				<g>
					<path fill="#1B1D3A" d="M1253.619,633.687c2.19-3.037,1.72-9.468,2.019-12.962c0.854-9.986,1.359-20.006,1.854-30.016
						c1.51-30.574,2.479-61.178,3.375-91.776c1.532-52.296,3.854-104.842,3.002-157.171c-0.022-1.404,0.017-2.864-0.241-4.252
						c-0.42-2.269-3.872-1.305-3.453,0.952c-0.123-0.66,0.033,0.599,0.049,0.948c0.043,0.962,0.058,1.925,0.072,2.888
						c0.046,3.104,0.037,6.21,0.025,9.316c-0.039,10.357-0.19,20.714-0.354,31.07c-0.487,30.913-1.2,61.822-2.024,92.728
						c-0.862,32.337-1.845,64.674-3.202,96.993c-0.793,18.884-0.605,38.488-3.66,57.191c-0.139,0.852-0.562,2.294-0.554,2.282
						C1249.172,633.756,1252.281,635.542,1253.619,633.687L1253.619,633.687z"/>
				</g>
			</g>
			<g>
				<g>
					<path fill="#1B1D3A" d="M1254.699,632.509c-3.006-0.647-6.513-0.226-9.555-0.254c-7.994-0.072-15.988-0.094-23.982-0.116
						c-26.479-0.073-52.958-0.068-79.438-0.063c-64.129,0.01-128.258,0.1-192.388,0.096c-16.218-0.001-32.436-0.004-48.654-0.05
						c-6.934-0.019-14.022,0.349-20.944-0.177c-2.305-0.175-2.288,3.408,0,3.582c11.763,0.894,23.84,0.189,35.623,0.206
						c26.948,0.037,53.896,0.021,80.845,0.007c63.928-0.033,127.856-0.122,191.784-0.071c15.605,0.013,31.212,0.028,46.818,0.103
						c4.576,0.021,9.152,0.047,13.729,0.103c1.303,0.016,2.604,0.034,3.906,0.066c0.396,0.01,2.17,0.21,1.303,0.022
						C1255.999,636.448,1256.956,632.995,1254.699,632.509L1254.699,632.509z"/>
				</g>
			</g>
			<g>
				<g>
					<path fill="#1B1D3A" d="M1289.475,309.411c-0.094,0.737-3.446,0.374-3.469-0.139c0.021,0.461,0.007,0.926,0,1.387
						c-0.027,1.936-0.097,3.871-0.163,5.805c-0.255,7.5-0.576,14.997-0.895,22.494c-1.085,25.521-2.264,51.037-3.438,76.553
						c-2.82,61.219-5.735,122.433-8.485,183.654c-0.636,14.151-1.271,28.303-1.831,42.457c-0.083,2.098-2.308,15.774,0.896,16.619
						c0.607,0.161,1.302,0.003,1.742-0.46c0.002-0.002,0.004-0.004,0.006-0.006c1.59-1.674-0.939-4.211-2.533-2.533
						c3.309-3.482,3.014,2.891,3.013,0.499c-0.001-0.644,0.016-1.287,0.031-1.93c0.054-2.258,0.137-4.514,0.219-6.771
						c0.294-8.037,0.642-16.072,0.989-24.107c1.131-26.178,2.343-52.351,3.553-78.524c2.812-60.854,5.712-121.705,8.421-182.564
						c0.634-14.234,1.277-28.468,1.8-42.707c0.111-3.048,0.247-6.101,0.266-9.151c0.017-2.891-3.303-3.715-3.703-0.577
						C1285.601,311.698,1289.187,311.67,1289.475,309.411L1289.475,309.411z"/>
				</g>
			</g>
			<g>
				<g>
					<path fill="#1B1D3A" d="M1300.02,321.566c-1.771,14.979-1.312,30.499-1.765,45.55c-0.935,31.191-1.699,62.388-2.381,93.585
						c-1.273,58.222-3.493,116.732-1.73,174.965c0.122,4.016,0.136,8.148,0.842,12.118c0.403,2.271,3.855,1.306,3.453-0.953
						c-0.902-5.079-0.747-11.484-0.855-16.973c-0.22-11.141-0.207-22.286-0.168-33.429c0.11-31.902,0.633-63.804,1.228-95.7
						c1.057-56.661,2.029-113.376,4.439-169.999c0.129-3.044,0.161-6.135,0.52-9.165
						C1303.872,319.275,1300.287,319.301,1300.02,321.566L1300.02,321.566z"/>
				</g>
			</g>
			<g>
				<g>
					<path fill="#1B1D3A" d="M869.414,317.693c35.839-1.765,71.869-1.635,107.738-2.349c65.458-1.303,130.919-2.503,196.384-3.355
						c26.325-0.342,52.651-0.648,78.979-0.686c12.039-0.017,26.702-1.03,37.821,0.658c0.235,0.036,0.998,0.296,0.277-0.011
						c2.101,0.894,3.928-2.19,1.809-3.093c-2.832-1.206-6.768-0.803-9.764-0.888c-7.472-0.213-14.95-0.231-22.425-0.247
						c-24.955-0.049-49.911,0.235-74.863,0.536c-65.449,0.79-130.895,1.985-196.336,3.269c-39.531,0.775-79.08,1.35-118.601,2.547
						c-0.339,0.01-0.68,0.02-1.019,0.036C867.115,314.225,867.104,317.807,869.414,317.693L869.414,317.693z"/>
				</g>
			</g>
			<g>
				<g>
					<path fill="#1B1D3A" d="M1288.852,310.021c3.385,0.012,5.53,5.021,7.001,7.464c1.614,2.683,3.522,6.12,6.804,6.932
						c2.243,0.554,3.194-2.9,0.953-3.454c-3.105-0.768-5.047-6.008-6.602-8.448c-1.874-2.942-4.361-6.062-8.156-6.076
						C1286.541,306.431,1286.542,310.013,1288.852,310.021L1288.852,310.021z"/>
				</g>
			</g>
			<g>
				<g>
					<path fill="#1B1D3A" d="M1270.193,659.554c10.344-0.464,19.539-1.689,29.28-5.605c2.114-0.85,1.192-4.315-0.953-3.453
						c-9.417,3.785-18.314,5.027-28.327,5.477C1267.894,656.076,1267.883,659.658,1270.193,659.554L1270.193,659.554z"/>
				</g>
			</g>
		</g>
	</g>
	<g>
		<path fill="#D9D8DE" d="M1800.855,603.257c2.506-8.713,37.611-15.619,80.555-15.619c44.572,0,80.701,7.438,80.701,16.617
			c0,0.188-0.02,0.375-0.049,0.559l0.842,0.01l-35.791,148.951c-0.941,1.688-37.201,31.648-92.77,2.955l-37.4-153.51
			L1800.855,603.257z"/>
		<path fill="#B7B6C0" d="M1816.848,605.873c0,6.988,29.68,12.652,66.291,12.652s66.293-5.664,66.293-12.652
			c0-6.984-29.682-12.648-66.293-12.648S1816.848,598.888,1816.848,605.873z"/>
		<g>
			<path fill="#B7B6C0" d="M1874.018,618.095c19.35-16.928,34.99-38.016,51.809-57.693c8.348-9.764,16.984-19.668,26.816-27.711
				c9.566-7.828,20.449-13.518,31.766-17.709c24.195-8.967,50.879-13.645,76.41-14.248c21.377-0.506,47.156,1.332,64.402,16.805
				c11.26,10.098,14.906,24.795,12.494,40.102c-25.385-9.584-48.109-25.621-73.164-36.041c-24.891-10.355-50.947-14.434-77.207-8.25
				c-22.953,5.404-45.639,15.52-65.404,29.234c-18.832,13.068-36.654,30.586-45.832,53.08"/>
		</g>
		<g>
			<path fill="#B7B6C0" d="M1870.293,617.56c3.502-27.654,14.238-53.67,27.182-77.58c12.779-23.605,27.68-46.088,44.207-66.789
				c16.291-20.405,34.664-39.991,55.559-54.87c20.166-14.363,43.545-22.91,67.301-26.967c48.041-8.209,102.283-0.637,132.828,44.539
				c14.398,21.293,30.348,58.833,8.17,80.557c-20.637-44.551-67.035-64.243-110.898-65.679
				c-53.932-1.767-104.098,22.861-149.113,52.814c-21.152,14.072-41.695,29.625-60.748,46.877
				c-18.221,16.494-35.199,35.256-47.109,57.666"/>
		</g>
		<g>
			<path fill="#B7B6C0" d="M1851.752,613.773c-3.344-31.248-1.387-66.09-18.283-93.359c-10-16.143-25.213-27.396-41.162-35.766
				c-15.752-8.264-31.941-13.281-49.457-14.279c-34.471-1.959-69.76,8.42-99.992,26.002c-28.088,16.336-55.262,41.225-65.965,74.738
				c-2.846,8.91-4.379,18.291-4.379,27.725c28.008-19.898,59.033-35.164,91.254-45.104c31.633-9.762,65.346-14.648,98.107-9.611
				c30.746,4.727,59.838,19.168,80.633,44.547c6.9,8.42,12.775,17.789,17.645,27.725"/>
		</g>
		<g>
			<path fill="#B7B6C0" d="M1892.256,589.328c32.557-70.119,18.889-153.419-28.324-213.879c-2.484-2.688-4.971-4.031-7.455-6.717
				c-53.428-64.491-145.371-71.208-212.908-29.716c30.561-2.497,13.057-7.354,0,0c30.561-2.497,61.154,8.373,87.979,23.41
				c30.705,17.216,58.393,40.989,81.707,68.552c22.172,26.211,41.279,56.799,51.553,90.77c8.863,29.297,10.395,61.848-2.49,90.07
				c-0.754,1.652-1.549,3.281-2.391,4.883"/>
		</g>
		<g>
			<g>
				<path fill="#EFEFF1" d="M1891.377,545.806c5.516-26.699-2.52-51.002-11.646-75.858c-4.161-11.332-7.253-23.114-11.802-34.282
					c-3.397-8.342-7.665-16.308-12.281-24.031c-11.105-18.579-24.765-35.946-40.54-50.779
					c-13.842-13.014-30.866-25.299-50.113-28.094c-2.284-0.332-4.574-0.492-6.881-0.519c-3.564-0.042-3.561,5.484,0,5.525
					c19.179,0.224,36.346,12.101,50.176,24.338c15.951,14.113,29.382,31.167,40.662,49.173c4.788,7.643,9.127,15.588,12.786,23.834
					c4.503,10.148,7.155,21.092,10.922,31.527c9.165,25.396,19.057,50.264,13.39,77.696
					C1885.33,547.815,1890.656,549.294,1891.377,545.806L1891.377,545.806z"/>
			</g>
		</g>
		<g>
			<g>
				<path fill="#EFEFF1" d="M1843.596,395.605c-6.188-18.057-30.205-28.085-47.992-23.396c-3.443,0.908-1.98,6.238,1.469,5.328
					c14.729-3.883,36.001,4.38,41.195,19.537C1839.416,400.425,1844.754,398.986,1843.596,395.605L1843.596,395.605z"/>
			</g>
		</g>
		<g>
			<g>
				<path fill="#EFEFF1" d="M1864.022,422.545c-10.219-20.288-29.137-31.893-51.759-32.034c-3.564-0.022-3.562,5.503,0,5.525
					c20.763,0.13,37.619,10.697,46.987,29.298C1860.854,428.517,1865.621,425.719,1864.022,422.545L1864.022,422.545z"/>
			</g>
		</g>
		<g>
			<g>
				<path fill="#EFEFF1" d="M1835.633,561.205c-8.089-21.709-21.235-39.937-41.705-51.34
					c-20.466-11.401-44.406-15.711-66.934-21.123c-3.463-0.832-4.933,4.496-1.469,5.328c21.462,5.156,43.865,9.352,63.659,19.521
					c20.196,10.377,33.297,28.088,41.12,49.083C1831.537,565.982,1836.88,564.55,1835.633,561.205L1835.633,561.205z"/>
			</g>
		</g>
		<g>
			<g>
				<path fill="#EFEFF1" d="M2141.09,427.409c-32.941-12.044-68.469-15.329-101.933-3.681
					c-30.708,10.688-58.827,31.062-76.734,58.369c-1.96,2.989,2.826,5.755,4.771,2.789c17.188-26.21,44.118-45.339,73.432-55.829
					c32.408-11.598,67.098-7.982,98.995,3.68C2142.976,433.964,2144.408,428.622,2141.09,427.409L2141.09,427.409z"/>
			</g>
		</g>
		<g>
			<g>
				<path fill="#EFEFF1" d="M2111.688,434.977c0.632,0.051-1.704-0.648-2.251-0.862c-1.998-0.779-3.968-1.632-5.944-2.464
					c-5.766-2.426-11.553-4.796-17.433-6.935c-9.77-3.554-23.644-9.029-34.034-4.974c-3.281,1.281-1.855,6.625,1.469,5.328
					c10.01-3.907,23.897,2.307,33.246,5.763c5.416,2.001,10.743,4.236,16.063,6.475c2.767,1.164,5.835,2.946,8.884,3.194
					C2115.241,440.792,2115.214,435.263,2111.688,434.977L2111.688,434.977z"/>
			</g>
		</g>
		<g>
			<g>
				<path fill="#EFEFF1" d="M2068.486,436.888c-11.447-7.17-26.64-7.314-39.619-6.511c-3.539,0.219-3.561,5.746,0,5.525
					c12.023-0.744,26.202-0.9,36.83,5.757C2068.727,443.557,2071.498,438.774,2068.486,436.888L2068.486,436.888z"/>
			</g>
		</g>
	</g>
	<g>
		<polygon fill="#9594A2" points="1711.678,651.974 1747.656,766.972 1701.801,762.033 		"/>
		<g>
			<g>
				<polygon fill="#D9D8DE" points="1708.18,787.916 1511.123,773.535 1552.973,514.113 1741.953,516.144 				"/>
			</g>
			<g>
				<polygon fill="#B7B6C0" points="1686.578,766.691 1528.322,760.082 1560.531,540.08 1710.713,540.263 				"/>
			</g>
			<ellipse fill="#EFEFF1" cx="1653.169" cy="616.736" rx="23.731" ry="37.383"/>
			<path fill="#EFEFF1" d="M1653.381,573.054c0,0,47.885-1.262,40.744,37.801c-7.141,39.064-17.643,40.324-13.443,41.164
				c8.207,1.641,10.082-3.781,10.082-3.781s-2.939,20.162-19.32,12.182c-16.383-7.98-28.984-61.324-28.984-61.324
				S1613.477,574.734,1653.381,573.054z"/>
			<ellipse fill="#B7B6C0" cx="1655.898" cy="612.117" rx="2.73" ry="5.461"/>
			<ellipse fill="#B7B6C0" cx="1644.139" cy="609.173" rx="2.73" ry="5.461"/>
			<path fill="#D2D1D8" d="M1643.027,759.697c0,0-33.828-87.471-13.531-95.686s41.562-1.934,45.428,6.283
				c3.865,8.215-5.801,89.885-5.801,89.885L1643.027,759.697z"/>
			<path fill="#EFEFF1" d="M1599.031,713.224c0,0,1.496,6.756,26.645,9.529c25.145,2.773,36.037-37.818,36.037-37.818
				s-47.396-3.043-47.893-4.254c-1.168-2.871-4.107-17.992-4.107-17.992s-16.941-1.262-21.42,5.461
				c-0.842,1.258-12.568-8.545-13.023-6.723c-0.418,1.682,9.242,15.965,7.562,21.424c-1.682,5.459-26.883,76.865-26.883,76.865
				l58.805,1.26c0,0-5.041-33.182-7.98-44.525"/>
			<polygon fill="#EFEFF1" points="1600.377,664.167 1607.176,648.525 1607.709,664.005 			"/>
			<ellipse fill="#B7B6C0" cx="1596.692" cy="679.072" rx="2.729" ry="5.459"/>
			<ellipse fill="#B7B6C0" cx="1608.982" cy="675.394" rx="2.73" ry="5.461"/>
		</g>
	</g>
	<path fill="#9594A2" d="M1333.459,750.876c0,0,36.816,9.062,53.809,10.195c31.361,2.092,55.127,2.416,66.148-7.914
		c4.141-3.883,24.975-73.789-36.326-74.924C1349.885,676.988,1333.459,750.876,1333.459,750.876z"/>
	<path fill="#9594A2" d="M1371.191,722.794c0,0,31.15,13.584,46.373,3.367c15.225-10.217,15.209-37.617,15.209-37.617
		s5.34-96.574,1.336-100.58c-5.01-5.008-50.289-5.43-52.43,0.838C1378.924,596.867,1362.49,713.712,1371.191,722.794z"/>
	<path fill="#C7C6CE" d="M1381.426,630.003c0.168-0.65,4.174-31.803,7.289-36.252c0.361-0.516,35.158-2.227,36.049,0.443
		c1.193,3.582-1.061,37.773-3.561,38.273C1416.293,633.451,1380.488,633.634,1381.426,630.003z"/>
	<path fill="#B7B6C0" d="M1394.598,675.33c7.613,0.516,15.223,1.047,22.848,1.295c0.455-4.148,0.869-8.244,1.219-12.072
		c-8.006-0.938-16.021-2.014-24.078-2.342c-5.65-0.232-11.664-0.486-17.434,0.203c-0.32,3.793-0.611,7.799-0.871,11.807
		C1382.359,673.97,1388.795,674.935,1394.598,675.33z"/>
	<path fill="#B7B6C0" d="M1415.008,696.314c0.514-3.684,1.027-7.654,1.518-11.711c-6.666-0.24-13.318-0.689-19.975-1.141
		c-4.559-0.311-9.119-0.627-13.686-0.807c-2.244-0.088-4.705-0.387-7.072-0.348c-0.195,3.471-0.365,6.824-0.514,9.918
		C1388.412,695.177,1401.656,696.468,1415.008,696.314z"/>
	<path fill="#B7B6C0" d="M1374.918,700.332c-0.219,5.252-0.328,8.625-0.328,8.625c0,5.367,31.896,10.352,36.492,7.121
		c0.668-0.471,1.658-5.076,2.732-11.762C1400.748,704.386,1387.764,703.095,1374.918,700.332z"/>
	<path fill="#B7B6C0" d="M1419.316,656.626c0.494-6.918,0.623-11.986,0.156-13.252c-1.154-3.131-33.758-4.734-38.209-3.844
		c-1.295,0.258-2.4,6.244-3.318,14.6C1391.539,652.583,1406.127,655.078,1419.316,656.626z"/>
	<path fill="#B7B6C0" d="M1454.951,753.142c0.627-0.639,16.906-45.818-11.045-62.303c-11.045-6.514-56.379,62.848-52.676,69.949
		C1394.629,767.302,1438.525,769.851,1454.951,753.142z"/>
</g>
</svg>
