<?xml version="1.0" encoding="utf-8"?>
<!-- Generator: Adobe Illustrator 16.0.4, SVG Export Plug-In . SVG Version: 6.00 Build 0)  -->
<!DOCTYPE svg PUBLIC "-//W3C//DTD SVG 1.1//EN" "http://www.w3.org/Graphics/SVG/1.1/DTD/svg11.dtd">
<svg version="1.1" id="shelfs" xmlns="http://www.w3.org/2000/svg" xmlns:xlink="http://www.w3.org/1999/xlink" x="0px" y="0px"
	 width="2455.33px" height="1090.996px" viewBox="0 0 2455.33 1090.996" enable-background="new 0 0 2455.33 1090.996"
	 xml:space="preserve">
<rect x="1128.509" y="457.811" fill="#F4F5F7" width="90.909" height="314.937"/>
<rect x="1229.152" y="458.894" fill="#F4F5F7" width="90.908" height="314.938"/>
<rect x="1339.813" y="450.351" fill="#F4F5F7" width="90.908" height="314.937"/>
<rect x="1450.944" y="451.424" fill="#F4F5F7" width="90.91" height="314.937"/>
<rect x="1566.822" y="456.188" fill="#F4F5F7" width="90.91" height="314.937"/>
<rect x="1673.965" y="456.188" fill="#F4F5F7" width="90.91" height="314.937"/>
<rect x="1784.355" y="456.188" fill="#F4F5F7" width="90.91" height="314.937"/>
<rect x="1891.498" y="456.188" fill="#F4F5F7" width="90.91" height="314.937"/>
<path fill="#F4F5F7" d="M1635.004,204.565"/>
<rect x="1141.495" y="64.954" fill="#F4F5F7" width="90.909" height="314.938"/>
<rect x="1254.168" y="64.954" fill="#F4F5F7" width="90.91" height="314.938"/>
<rect x="1364.559" y="64.954" fill="#F4F5F7" width="90.908" height="314.938"/>
<rect x="1471.699" y="64.954" fill="#F4F5F7" width="90.912" height="314.938"/>
<rect x="1585.338" y="64.956" fill="#F4F5F7" width="90.91" height="314.936"/>
<rect x="1686.951" y="64.956" fill="#F4F5F7" width="90.91" height="314.936"/>
<rect x="1797.342" y="64.956" fill="#F4F5F7" width="90.91" height="314.936"/>
<rect x="1920.744" y="60.059" transform="matrix(0.994 0.1096 -0.1096 0.994 35.6685 -214.1075)" fill="#F4F5F7" width="90.909" height="314.935"/>
<rect x="1133.805" y="402.102" fill="#F4F5F7" width="933.018" height="29.762"/>
<rect x="1089.772" fill="#F4F5F7" width="976.779" height="29.762"/>
<rect x="1092.895" fill="#F4F5F7" width="29.084" height="894.783"/>
<rect x="2035.439" y="9.761" fill="#F4F5F7" width="33.309" height="883.516"/>
<path fill="#F4F5F7" d="M1615.4,604.039"/>
<circle fill="#FFFFFF" cx="1407.766" cy="330.479" r="19.352"/>
<circle fill="#FFFFFF" cx="1517.261" cy="337.835" r="19.352"/>
<circle fill="#FFFFFF" cx="1627.922" cy="331.661" r="19.352"/>
<circle fill="#FFFFFF" cx="1732.973" cy="331.661" r="19.352"/>
<circle fill="#FFFFFF" cx="1176.777" cy="342.334" r="19.352"/>
<circle fill="#FFFFFF" cx="1299.771" cy="343.834" r="19.352"/>
<circle fill="#FFFFFF" cx="1838.021" cy="331.661" r="19.352"/>
<circle fill="#FFFFFF" cx="1950.443" cy="328.322" r="19.352"/>
</svg>
