<?xml version="1.0" encoding="utf-8"?>
<!-- Generator: Adobe Illustrator 16.0.4, SVG Export Plug-In . SVG Version: 6.00 Build 0)  -->
<!DOCTYPE svg PUBLIC "-//W3C//DTD SVG 1.1//EN" "http://www.w3.org/Graphics/SVG/1.1/DTD/svg11.dtd">
<svg version="1.1" id="Layer_1" xmlns="http://www.w3.org/2000/svg" xmlns:xlink="http://www.w3.org/1999/xlink" x="0px" y="0px"
	 width="449.041px" height="359.604px" viewBox="0 0 449.041 359.604" enable-background="new 0 0 449.041 359.604"
	 xml:space="preserve">
<g>
	<g>
		<g>
			<path fill="#C3E5F6" d="M17.434,69.109c0,0-5.492,7.663-3.18,11.419c2.312,3.759,9.572,5.803,22.695,3.614
				c15.611-2.6,19.642-11.466,31.812-17.071c12.174-5.604,29.302-4.916,21.215-18.004c-8.087-13.089-30.542,4.46-41.199,8.508
				C41.469,60.354,26.878,59.443,17.434,69.109z"/>
			<path fill="#A42523" d="M16.566,78.072c4.336,4.771,9.612,4.73,19.515,2.456c10.37-2.378,22.112-14.531,34.536-18.076
				c10.769-3.07,17.902-4.26,19.449-10.111c1.941-7.357-1.522-11.931-4.627-15.833c-0.496-0.623-3.957-5.143-15.934-1.343
				c-11.976,3.797-20.274,10.362-30.562,15.96C22.541,60.048,12.23,73.304,16.566,78.072z"/>
			<path fill="#023E56" d="M55.692,48.816c0,0,15.457-13.706,23.062-13.055c7.604,0.654,8.999,4.306,3.171,9.998
				c-2.516,2.455-20.82,8.587-24.28,5.74C54.185,48.653,55.71,48.237,55.692,48.816z"/>
			<path fill="#B85858" d="M27.148,68.58c0,0,16.069-12.146,19.032-15.839c1.548-1.934,1.012-7.927,1.308-13.713
				c0.286-5.559,14.146-1.88,12.112,6.767c-3.3,14.022-11.05,8.444-11.05,8.444S32.92,67.824,27.148,68.58z"/>
		</g>
		<path fill="#C3E5F6" d="M41.116,51.376c0,0,0.941,4.322,6.956,5.831c6.018,1.503,2.444,4.321-1.505,3.007
			C42.619,58.899,36.229,49.687,41.116,51.376z"/>
		<path fill="#C3E5F6" d="M36.924,55.137c0,0,0.941,4.319,6.959,5.826c6.014,1.505,2.44,4.324-1.507,3.01
			C38.428,62.655,32.037,53.446,36.924,55.137z"/>
		<path fill="#C3E5F6" d="M33.187,59.652c0,0,0.874,4.011,6.451,5.405c5.581,1.395,2.265,4.008-1.396,2.788
			C34.583,66.626,28.654,58.085,33.187,59.652z"/>
		<g>
			<g>
				<path fill="#C3E5F6" d="M46.91,53.183c-0.184-8.126,6.723-14.861,7.737-22.817c0.415-3.255-0.503-6.044-3.291-7.907
					c-2.449-1.636-6.46-2.641-9.35-1.75c-5.419,1.672-2.854,10.125-1.732,13.75c1.929,6.228,5.021,11.95,7.396,17.993
					c0.274-0.274,0.549-0.549,0.823-0.823c-5.433-0.958-6.471-5.855-9.227-9.816c-2.141-3.077-5.079-6.163-8.607-7.613
					c-3.481-1.432-6.796-1.004-9.874,1.145c-1.84,1.284-2.884,3.205-2.389,5.438c1.101,4.963,8.299,8.352,12.472,10.058
					c2.578,1.054,5.299,1.93,7.963,2.733c2.524,0.761,6.371,1.896,8.588-0.142c0.408-0.375,0.111-1.197-0.474-1.143
					c-1.78,0.165-3.157,0.912-4.672,1.826c-2.104,1.27-4.464,2.15-6.771,2.979c-3.998,1.437-8.453,2.07-12.688,1.875
					C13.757,58.553,5.436,52.848,1.24,44.936c-0.404-0.763-1.561-0.086-1.156,0.676c4.125,7.777,11.713,13.063,20.384,14.45
					c4.266,0.682,8.726,0.095,12.893-0.919c1.982-0.482,3.884-1.251,5.762-2.037c2.482-1.038,5.143-3.228,7.824-3.477
					c-0.158-0.381-0.315-0.762-0.474-1.143c-2.101,1.931-6.718,0.006-9.008-0.745c-1.954-0.64-3.943-1.281-5.856-2.034
					c-4.12-1.621-10.114-4.535-11.815-8.937c-1.167-3.019,2.465-5.122,4.812-5.875c3.849-1.234,7.729,1.432,10.372,3.927
					c2.615,2.468,4.642,5.605,6.107,8.872c1.29,2.874,4.028,4.693,7.054,5.227c0.444,0.078,1.028-0.301,0.823-0.823
					c-1.976-5.025-4.456-9.829-6.337-14.898c-1.245-3.359-5.005-12.246-0.844-14.925c2.418-1.558,6.749,0.075,8.899,1.341
					c3.449,2.03,2.967,6.112,1.994,9.393c-1.964,6.623-7.265,13.039-7.103,20.175C45.592,54.044,46.93,54.046,46.91,53.183
					L46.91,53.183z"/>
			</g>
		</g>
		<g>
			<g>
				<path fill="#C3E5F6" d="M10.001,37.841c2.923,8.356,8.256,16.088,17.63,17.326c6.683,0.882,12.859-1.655,19.444-1.73
					c0.862-0.01,0.863-1.349,0-1.339c-5.816,0.067-11.382,2.16-17.258,1.934c-9.806-0.376-15.502-7.902-18.525-16.546
					C11.009,36.676,9.716,37.024,10.001,37.841L10.001,37.841z"/>
			</g>
		</g>
	</g>
	<path fill="#1E1E1C" d="M237.951,193.217c1.809,1.086,10.854,8.319,10.854,8.319l-6.583,15.646l-29.952-4.072l-8.271-5.87
		l15.869-14.746L237.951,193.217z"/>
	<polygon fill="#1E1E1C" points="369.009,222.104 324.328,236.734 334.609,194.032 	"/>
	<path fill="#FEEDA4" d="M250.351,108.715c-0.077,15.07-9.325,75.552-24.593,75.476c-15.27-0.078-31.812-61.059-31.736-76.13
		c0.074-15.071,13.556-26.848,28.822-26.771C238.115,81.368,250.427,93.647,250.351,108.715z"/>
	<path fill="#FFFFFF" d="M144.957,170.659c1.719-0.222,71.715-17.572,71.715-17.572l1.399,10.502l-77.317,12.869L144.957,170.659z"
		/>
	<path fill="#FFFFFF" d="M309.93,171.874c-1.718-0.219-71.715-17.571-71.715-17.571l-1.398,10.502l77.318,12.868L309.93,171.874z"/>
	<path fill="#FFFFFF" d="M166.215,157.455c-9.895-3.562-22.525-4.206-35.037-5.402c5.893,12.579,5.998,50.706,9.327,64.015
		C149.174,199.037,158.772,174.062,166.215,157.455z"/>
	<path fill="#C3E5F6" d="M162.509,246.582c0.465-2.421,0.956-4.835,1.475-7.239c13.406-62.006,24.306-72.039,8.298-81.135
		c-1.67-0.951-5.015-2.844-6.905-3.549c-8.733,11.434-21.345,34.628-22.531,34.233c0.396,0.395-5.062-25.729-10.957-38.727
		c-3.369-0.332-6.732-0.706-10.03-1.196c-22.776-3.361-11.122,62.889-7.834,90.811C129.944,240.169,146.365,246.979,162.509,246.582
		z"/>
	<path fill="#1E1E1C" d="M154.174,344.104c-0.037,0.214-0.075,0.3-0.126,0.246C153.893,344.178,153.949,344.101,154.174,344.104
		c0.648-3.928-0.904-52.319,8.335-98.954c-16.144,0.383-32.564-6.205-48.485-6.582c0.837,6.887,1.131,11.363,0.174,11.703
		c-50.425,17.873-27.447,70.211-27.447,70.211s-20.264,16.325-16.596,18.509c11.062,6.583,30-14.679,30-14.679
		s-7.898-31.794,0.453-42.15c9.759-12.105,32.73-21.57,37.206-17.211c0.492,0.48,4.631,85.843,5.37,86.363
		c10.594,7.54,28.415,10.047,29.338,5.557C173.631,351.483,156.295,344.136,154.174,344.104z"/>
	<path fill="#FFFFFF" d="M171.169,144.285c-5.122,16.434-27.948,16.854-40.253,7.442c-8.268-6.333-9.262-15.24-7.984-24.84
		c0.035-0.237,0.078-0.477,0.111-0.72c-0.463-1.124,2.739-15.296,2.801-15.701c0.017-0.134,0.041-0.261,0.06-0.396
		c-1.653-0.252-3.052-1.592-2.308-3.549c3.316-8.683,9.889-14.701,19.438-16.154c8.375-1.27,17.284,1.61,22.656,8.053
		c2.319,2.777,3.85,6.081,4.862,9.562c0.409,0.785,0.799,1.586,1.146,2.417c0.3,0.719,0.204,1.427-0.125,2.041
		c0.474,2.716,0.718,5.461,0.847,8.111C172.789,128.171,173.471,136.886,171.169,144.285z"/>
	<g>
		<g>
			<path fill="#1E1E1C" d="M143.601,117.984c-3.58,5.639,15.041,6.332,12.009-0.131c-0.33-0.704-1.37-0.091-1.041,0.609
				c1.754,3.738-12.059,3.489-9.927,0.131C145.061,117.935,144.016,117.33,143.601,117.984L143.601,117.984z"/>
		</g>
	</g>
	<path fill="none" stroke="#1E1E1C" stroke-width="1.2166" stroke-miterlimit="10" d="M140.515,113.826
		c0,1.565-0.681,2.842-1.528,2.842c-0.843,0-1.524-1.276-1.524-2.842c0-1.579,0.682-2.843,1.524-2.843
		C139.834,110.983,140.515,112.247,140.515,113.826z"/>
	<path fill="none" stroke="#1E1E1C" stroke-width="1.2166" stroke-miterlimit="10" d="M160.593,113.233
		c0,1.574-0.683,2.851-1.528,2.851c-0.844,0-1.529-1.276-1.529-2.851c0-1.57,0.686-2.846,1.529-2.846
		C159.91,110.388,160.593,111.663,160.593,113.233z"/>
	<path fill="#FFFFFF" d="M74.447,74.773c0,0,4.645-6.712,7.744-10.325c3.096-3.615-1.584-10.127-1.584-10.127l-14.105-6.87
		c0,0-2.693,6.37-0.63,7.404c2.066,1.033,8.575,2.883,7.543,7.012c-1.033,4.129-2.832,0.458-9.532,5.912
		c-1.444,1.178-6.455,6.982-6.455,6.982s-0.285,5.485,1.795,14.765c5.701-0.939,11.432-2.034,16.99-3.533
		C74.641,79.183,74.447,74.773,74.447,74.773z"/>
	<path fill="#1E1E1C" d="M93.035,121.754c-10.079-13.04-14.705-26.583-16.822-35.761c-5.559,1.499-19.397,3.902-25.1,4.84
		c0.609,2.705,11.863,32.025,25.307,50.61c13.988,19.339,36.768,36.158,38.316,36.673c1.549,0.517,7.037-26.141,7.037-26.141
		S110.586,144.469,93.035,121.754z"/>
	<path fill="none" stroke="#1E1E1C" stroke-width="1.2202" stroke-miterlimit="10" d="M133.899,121.604
		c4.354,4.226,12.812,5.449,18.547,4.945c1.599-0.141,9.232-1.235,9.387-3.521"/>
	<path fill="#FFFFFF" d="M127.301,115.158c0.314,4.61-2.012,8.521-5.197,8.74c-3.188,0.216-6.023-3.341-6.339-7.948
		c-0.317-4.609,2.013-8.52,5.196-8.737C124.148,106.991,126.986,110.552,127.301,115.158z"/>
	
		<ellipse transform="matrix(0.9769 0.2137 -0.2137 0.9769 28.9407 -34.1794)" fill="#FFFFFF" cx="172.597" cy="116.801" rx="5.782" ry="8.362"/>
	<path fill="#1E1E1C" d="M171.57,159.837c-1.576,0.882,49.279,26.931,49.279,26.931l-1.615,20.985l-51.132-14.588L171.57,159.837z"
		/>
	<path fill="#FEEDA4" d="M167.049,88.228c-2.133-4.34-7.376-6.671-11.67-4.377c-2.582-7.511-14.47-9.484-15.627-1.824
		c-1.121-1.621-2.829-2.626-5.112-2.207c-3.028,0.556-3.449,3.69-2.554,6.073c-3.314,1.22-5.868,3.871-3.628,7.703
		c1.699,2.903,4.81,3.61,7.648,2.835c-0.104,1.225,0.706,2.566,2.291,3.65c3.647,2.484,8.367,1.717,10.984-1.613
		c3.771,3.953,13.452,4.733,12.331-2.272C166.42,96.067,169.42,93.054,167.049,88.228z"/>
	<g>
		<g>
			<path fill="#FEEDA4" d="M399.857,86.535c-0.137,0.519,7.107,4.253,7.553,28.94c0.071,3.871,35.148-21.103,27.35-23.32
				c-19.628-5.572-24.305-14.445-24.305-14.445L399.857,86.535z"/>
			<path fill="#FEEDA4" d="M417.809,131.01c0.463-0.052,19.848-5.72,31.232-24.586c0,0-3.039-27.49-29.579-5.496
				C394.049,121.998,416.963,131.097,417.809,131.01z"/>
			<path fill="#FEEDA4" d="M416.308,58.937c-0.067,0.055-0.138,0.105-0.21,0.154c-1.123,0.762-3.706,5.595-7.52,1.174
				c-2.764-3.203-1.816-9.574-0.508-18.391c2.634-17.693,3.76-32.614-9.168-36.028c-3.57-0.943-5.463-0.09-5.641,0.563
				c-0.152,0.555,0.753,2.021,3.527,2.891c3.089,0.971,4.225,3.011,4.635,4.55c1.619,6.102-6.053,14.96-7.609,16.678l-3.887-3.697
				c3.534-3.905,6.944-9.496,6.389-11.586c-0.04-0.144-0.129-0.476-1.058-0.765c-6.134-1.932-7.979-6.305-7.098-9.549
				c0.943-3.487,5.034-6.178,12.04-4.329c18.638,4.919,14.877,23.774,12.674,38.588c-0.75,5.048-1.453,16.211-0.334,17.504
				c0.525,0.612,1.167-2.883,1.785-2.508c0.545,0.339,0.098-4.921,0.098-4.921c1.539-0.527,3.133,0.181,3.875,1.718
				C419.348,53.155,418.619,57.158,416.308,58.937z"/>
			<path fill="#FEEDA4" d="M349.754,48.726l35.484-27.469c0,0,45.971,38.312,17.894,60.781
				C375.052,104.51,349.754,48.726,349.754,48.726z"/>
			<path fill="#FEEDA4" d="M396.966,85.003c0.586,0.297,3.712,7.243,10.616,1.552c6.905-5.692,0.835-13.175,0.835-13.175
				L396.966,85.003z"/>
			<path fill="#FEEDA4" d="M380.023,91.402c0.07-0.052,0.137-0.105,0.201-0.16c1.029-0.895,3.086-3.495-0.029-8.46
				c-2.253-3.592-8.507-4.418-17.17-5.559c-17.377-2.287-31.732-5.293-31.387-18.923c0.093-3.764,1.419-5.386,2.083-5.384
				c0.562,0.006,1.693,1.297,1.753,4.257c0.064,3.3,1.668,4.979,3.003,5.801c5.298,3.278,15.749-1.812,17.792-2.87l-2.405-4.836
				c-4.649,2.393-10.849,4.2-12.665,3.078c-0.124-0.077-0.412-0.257-0.434-1.245c-0.126-6.556-3.73-9.569-7.028-9.6
				c-3.544-0.034-7.203,3.242-7.39,10.629c-0.502,19.657,21.483,22.548,36.032,24.467c4.962,0.654,12.454,1.641,13.364,3.093
				c0.43,0.688,0.631,1.159,0.725,1.457c-0.375,0.033-5.03-0.258-5.03-0.258c-0.921,1.366-0.693,3.128,0.552,4.281
				C373.744,92.794,377.711,93.183,380.023,91.402z"/>
		</g>
	</g>
	<path fill="#0E8CCD" d="M340.151,237.056l-0.278-0.723C339.932,236.763,340.024,237.011,340.151,237.056z"/>
	<path fill="#0E8CCD" d="M329.891,348.72c0.056,0.061,0.1-0.028,0.138-0.243C329.795,348.472,329.733,348.548,329.891,348.72z"/>
	<path fill="#1E1E1C" d="M328.802,341.866c-0.04,0.234-0.087,0.334-0.146,0.266C328.482,341.944,328.551,341.86,328.802,341.866
		c0.716-4.128-1.112-53.481,10.722-106.445l0.35,0.912c-0.074-0.542-0.096-1.385-0.082-2.473
		c-18.939,4.979-39.339,3.893-58.63-0.686c0.27,1.174,0.54,2.367,0.811,3.58c11.835,52.966,10.007,102.318,10.722,106.446
		c0.252-0.003,0.319,0.077,0.146,0.267c-0.059,0.066-0.107-0.033-0.146-0.267c-2.362,0.057-21.269,8.079-20.06,13.963
		c1.011,4.91,20.503,2.171,32.09-6.077c0.81-0.571,5.338-84.483,5.874-85.008l0.301-1.334c0.537,0.523,5.064,84.436,5.871,85.006
		c11.59,8.248,31.08,10.988,32.093,6.08C350.072,349.943,331.165,341.925,328.802,341.866z"/>
	<path fill="#0E8CCD" d="M297.148,349.94c0.157-0.172,0.096-0.248-0.137-0.244C297.049,349.911,297.094,350.002,297.148,349.94z"/>
	<path fill="#C3E5F6" d="M339.791,233.86c0.21-16.463,9.184-90.85-16.36-87.201c-19.549,2.793-27.108-1.729-41.071,5.95
		c-17.187,9.45-15.479,18.273-1.198,80.565C300.452,237.753,320.852,238.839,339.791,233.86z"/>
	<path fill="#FFFFFF" d="M281.828,137.727c5.602,17.976,30.568,18.435,44.026,8.138c9.043-6.924,10.13-16.668,8.733-27.168
		c-0.041-0.261-0.088-0.521-0.122-0.785c0.509-1.232-2.995-16.73-3.062-17.176c-0.022-0.146-0.043-0.284-0.069-0.432
		c1.812-0.277,3.341-1.744,2.525-3.882c-3.626-9.497-10.813-16.081-21.257-17.672c-9.164-1.386-18.906,1.762-24.784,8.806
		c-2.536,3.042-4.21,6.654-5.317,10.464c-0.449,0.856-0.876,1.732-1.256,2.642c-0.324,0.786-0.223,1.562,0.138,2.23
		c-0.519,2.973-0.784,5.975-0.926,8.873C280.054,120.099,279.309,129.632,281.828,137.727z"/>
	<path fill="none" stroke="#1E1E1C" stroke-width="1.3307" stroke-miterlimit="10" d="M315.881,108.679
		c0,1.713,0.744,3.106,1.67,3.106c0.923,0,1.668-1.394,1.668-3.106c0-1.727-0.745-3.106-1.668-3.106
		C316.625,105.572,315.881,106.952,315.881,108.679z"/>
	<path fill="none" stroke="#1E1E1C" stroke-width="1.3307" stroke-miterlimit="10" d="M296.113,109.521
		c0,1.722,0.746,3.118,1.673,3.118c0.922,0,1.671-1.396,1.671-3.118c0-1.719-0.749-3.115-1.671-3.115
		C296.859,106.405,296.113,107.802,296.113,109.521z"/>
	<g>
		<g>
			<path fill="#1E1E1C" d="M308.194,102.045c-0.667,2.655-1.225,5.324-1.544,8.045c-0.318,2.718-0.621,6.645,1.298,8.914
				c0.8,0.947,1.791,1.467,3.045,1.428c0.402-0.012,0.867-0.271,1.147-0.548c1.125-1.113,2.293-1.668,3.916-1.422
				c4.174,0.632,1.533,5.577-0.411,6.957c-2.272,1.615-5.525,1.739-8.118,1.027c-0.832-0.228-1.184,1.06-0.355,1.287
				c3.827,1.05,8.699,0.323,11.167-3.073c1.951-2.687,1.533-7.523-2.67-7.595c-0.988-0.017-1.821,0.121-2.742,0.487
				c-0.989,0.394-1.729,1.945-3.041,1.365c-1.929-0.854-2.043-3.838-2.082-5.599c-0.08-3.679,0.786-7.372,1.678-10.919
				C309.691,101.565,308.404,101.211,308.194,102.045L308.194,102.045z"/>
		</g>
	</g>
	<g>
		<g>
			<path fill="#1E1E1C" d="M315.362,130.544c-3.075,2.019-6.769,1.475-10.061,0.311c-2.667-0.943-6.572-2.95-7.51-5.857
				c-0.236-0.732-1.262-0.574-1.311,0.177c-0.246,3.757,0.403,8.027,2.479,11.215c4.989,7.662,15.46,1.786,20.955-1.891
				c0.711-0.476,0.044-1.633-0.674-1.152c-5.23,3.5-15.163,9.323-19.572,1.644c-1.628-2.834-2.064-6.586-1.854-9.815
				c-0.437,0.059-0.874,0.118-1.311,0.177c1.044,3.238,4.806,5.272,7.716,6.503c3.723,1.574,8.28,2.162,11.815-0.159
				C316.752,131.226,316.084,130.07,315.362,130.544L315.362,130.544z"/>
		</g>
	</g>
	<circle fill="#FFFFFF" cx="279.296" cy="115.825" r="8.288"/>
	<circle fill="#FFFFFF" cx="333.702" cy="114.337" r="8.289"/>
	<path fill="#FEEDA4" d="M336.391,92.194c-1.426-4.46-5.059-8.406-8.194-11.75c-2.263-2.412-4.435-4.353-7.485-5.64
		c-6.717-2.83-28.887-6.952-30.81,2.746c-1.772-0.751-3.668-0.98-5.579-0.074c-2.588,1.221-3.791,4.456-4.433,7.025
		c-1.176,4.705-1.48,14.72,4.074,17.085c0.363,0.155,0.889,0.068,0.98-0.398c0.538-2.779,1.203-5.5,2.091-8.168
		c0.665,2.499,2.146,5.034,4.82,3.497c1.697-0.978,2.178-3.454,2.207-5.214c0.051-3.13-1.362-5.91-0.862-8.996
		c4.201,4.144,7.768,11.545,14.053,12.145c1.727,0.166,4.285,0.377,4.917-1.679c2.255,1.929,4.717,3.659,7.056,5.138
		c1.164,0.733,2.907,1.865,4.328,1.227c0.787-0.354,0.802-1.249,0.565-2.179c2.522,1.769,5.725,3.104,8.623,2.661
		C336.58,99.036,337.448,95.503,336.391,92.194z"/>
	<path fill="#1E1E1C" d="M284.269,150.464c-1.903,0.378-16.803-0.521-18.704,0.619c-1.899,1.142-47.047,45.713-47.326,46.818
		c-2.655,10.498,5.09,17.813,5.09,17.813c-3.727,1.896,49.65-39.259,43.765-41.224c-1.142-0.382,1.525,72.771,1.525,72.771
		s7.666,0.537,16.79-1.745c9.126-2.281,12.166-20.525,12.166-34.981C297.574,209.776,284.269,150.464,284.269,150.464z"/>
	<path fill="#1E1E1C" d="M326.853,145.9c-1.901-1.142,7.751-4.833,16.729-6.845c2.144-0.48,1.63,3.277,3.801,2.663
		c7.778-2.204,19.397-5.691,22.814-9.886c8.365-10.269,17.869-41.445,17.869-41.445l15.209,8.745c0,0-12.548,40.305-21.673,46.007
		c-9.123,5.702-24.333,17.109-24.333,17.109l15.969,60.073c0,0-12.928,19.394-30.038-7.222
		C326.09,188.483,326.853,145.9,326.853,145.9z"/>
	<path fill="#A42523" d="M298.916,155.161c0.261,0.79,6.852,10.851,6.852,10.851l6.323-11.858L298.916,155.161z"/>
	<polygon fill="#A42523" points="305.768,166.012 295.395,197.901 310.123,223.707 317.784,198.92 	"/>
	<path fill="#1E1E1C" d="M219.655,265.921c0,0,1.563,70.039-0.056,74.189c-1.62,4.15-27.46,14.466-18.946,15.893
		c11.822,1.977,24.373-13.949,24.373-13.949l0.381-75.785l7.04,0.037c0,0-2.953,77.691-1.992,77.697
		c0.959,0.004,11.134,11.564,21.373,10.02c4.7-0.711-16.24-12.874-16.24-12.874s2.631-78.01,1.67-77.698
		C236.294,263.765,219.655,265.921,219.655,265.921z"/>
	<path fill="#C3E5F6" d="M203.249,151.337c0,0,9.562,0.509,22.313,1.465c12.756,0.952,19.607,1.24,19.607,1.24l-8.925,14.064
		c0,0,10.216,82.516,12.979,93.658c2.761,11.141-49.999,5.207-45.085,5.207c0.261,0,8.576-99.408,8.576-99.408"/>
	<path fill="#FFFFFF" d="M237.502,100.579c-2.316-6.334-8.827-11.037-15.463-11.741c-7.279-0.767-15.051,2.438-18.989,8.746
		c-2.83,4.534-1.889,9.895,0.335,14.513c1.262,10.079,2.193,20.777,9.561,28.16c4.098,4.099,10.784,5.882,16.33,4.24
		c6.188-1.836,7.238-9.779,7.901-15.143c0.673-5.469,0.978-10.98,1.263-16.482C238.659,108.61,238.989,104.644,237.502,100.579z"/>
	<path fill="#FEEDA4" d="M238.542,89.665c-0.035-0.103-9.144-2.55-9.187-2.642c-0.277-0.899-1.031-1.614-2.271-1.565
		c-7.035,0.266-15.236,0.592-21.035,5.111c-4.327,3.369-5.694,8.139-6.215,13.188c-0.732,2.377-1.198,4.934-0.274,7.018
		c0.127,1.588,0.54,3.09,1.661,4.351c0.306,0.345,0.636,0.58,0.974,0.735c-2.179,1.705,1.476-4.86,4.163-6.312
		c6.754-3.652,30.397,4.404,35.385-1.35C245.483,103.884,240.611,95.776,238.542,89.665z"/>
	<path fill="none" stroke="#1E1E1C" stroke-width="1.007" stroke-miterlimit="10" d="M216.521,115.201
		c-0.007,1.321-0.567,2.385-1.26,2.384c-0.688-0.002-1.242-1.075-1.232-2.394c0.004-1.321,0.568-2.384,1.256-2.38
		C215.977,112.815,216.529,113.887,216.521,115.201z"/>
	<path fill="none" stroke="#1E1E1C" stroke-width="1.007" stroke-miterlimit="10" d="M230.311,115.611
		c-0.008,1.32-0.571,2.384-1.259,2.382c-0.691-0.004-1.242-1.075-1.239-2.396c0.01-1.318,0.576-2.381,1.264-2.378
		C229.766,113.223,230.316,114.293,230.311,115.611z"/>
	<g>
		<g>
			<path fill="#1E1E1C" d="M221.722,118.14c-0.202,0.909-0.228,1.833-0.301,2.758c-0.109,1.377-0.313,1.348-1.387,0.809
				c-0.642-0.322-1.717-1.08-2.285-0.281c-0.738,1.038,0.667,2.896,1.301,3.597c0.804,0.887,2.115,1.751,3.356,1.434
				c0.623-0.159,0.358-1.122-0.266-0.963c-1.422,0.363-2.949-1.607-3.381-2.724c-0.092-0.256-0.132-0.521-0.12-0.794
				c0.004,0.222,0.034,0.168,0.395,0.341c0.453,0.218,0.891,0.477,1.362,0.656c2.561,0.977,1.971-3.139,2.288-4.568
				C222.824,117.778,221.861,117.511,221.722,118.14L221.722,118.14z"/>
		</g>
	</g>
	<g>
		<g>
			<path fill="#1E1E1C" d="M217.582,129.343c1.162,1.775,3.053,2.556,5.128,2.609c1.149,0.029,3.204-0.246,3.383-1.679
				c0.08-0.638-0.92-0.63-0.998,0c-0.088,0.705-2.258,0.684-2.684,0.673c-1.586-0.041-3.093-0.772-3.968-2.106
				C218.093,128.303,217.228,128.802,217.582,129.343L217.582,129.343z"/>
		</g>
	</g>
	<path fill="#FFFFFF" d="M229.67,153.991c-1.18-4.726-0.785-9.928-4.053-14.257c-3.605-4.774-4.175,10.03-4.18,10.136
		c-0.133,2.912,0.641,3.379-2.841,3.398c-3.038,0.013-0.454,4.734,0.599,5.439c2.21,1.482,5.671,1.39,8.08,0.564
		C228.483,158.86,233.598,154.271,229.67,153.991C229.594,153.688,230.548,154.053,229.67,153.991z"/>
	<path fill="#0E8CCD" d="M153.337,344.55c0.05,0.057,0.091-0.031,0.126-0.244C153.238,344.302,153.181,344.38,153.337,344.55z"/>
	<g>
		<path fill="#FFFFFF" d="M203.998,207.24c2.312-1.452,5.851-3.139,5.825-3.009c-0.939,4.89-1.976,9.555-0.846,12.499
			c1.808,4.259,3.101,3.667,4.511,5.452c3.073,3.892,1.33,7.697-1.606,7.371c-3.16,11.131-9.288,1.598-10.895-5.771
			C200.447,221.3,199.486,210.066,203.998,207.24z"/>
	</g>
	<g>
		<path fill="#FFFFFF" d="M247.203,207.689c-2.312-1.451-5.853-3.138-5.828-3.007c0.941,4.889,1.977,9.555,0.847,12.5
			c-1.806,4.255-3.101,3.666-4.511,5.449c-3.072,3.894-1.33,7.699,1.606,7.371c3.16,11.133,9.287,1.6,10.894-5.771
			C250.754,221.748,251.712,210.516,247.203,207.689z"/>
	</g>
	<path fill="#FFFFFF" d="M394.174,95.21c0,0,8.03-14.99,10.574-18.042s21.074-4.08,21.074-4.08s3.211,8.35-5.883,8.202
		c-10.875-0.179-11.053,3.21-11.053,3.21s2.479,3.356,1.46,9.462c-1.019,6.107-5.289,6.062-5.289,6.062L394.174,95.21z"/>
	<polygon fill="#1E1E1C" points="106.074,163.585 94.212,234.362 120.309,243.852 126.239,192.847 127.426,148.956 113.191,139.863 
			"/>
	<path fill="#1E1E1C" d="M166.926,157.254c1.62-2.761,15.855,7.122,15.855,7.122l-4.959,84.356l-27.099,1.042l5.565-60.487
		L166.926,157.254z"/>
	<path fill="#FFFFFF" d="M412.708,82.374l-4.392,5.948l2.894,4.339c0,0-1.446,4.702,2.171,6.147c3.617,1.45,6.51-0.36,6.51-0.36
		s0.362,2.895,3.618,3.258c3.255,0.359,10.127-8.682,10.127-8.682l-1.81-5.064c0,0-0.573-4.072,0-5.789
		c0.363-1.083-6.148-5.424-6.148-5.424l-15.553,0.361L412.708,82.374z"/>
	<polygon fill="#A42523" points="218.554,149.748 213.293,150.734 221.184,187.232 223.65,188.055 	"/>
	<polygon fill="#A42523" points="231.313,151.722 236.574,152.708 226.609,188.383 223.814,187.068 	"/>
	<g>
		<path fill="#FEEDA4" d="M218.97,212.405c6.862,2.639,14.742-1.252,17.59-8.676c2.851-7.425-0.407-15.58-7.27-18.215
			c-6.868-2.633-14.741,1.249-17.59,8.678C208.854,201.614,212.104,209.769,218.97,212.405z"/>
		<path fill="#FEEDA4" stroke="#FFFFFF" stroke-width="2.0029" stroke-miterlimit="10" d="M215.813,212.087
			c6.864,2.635,14.737-1.252,17.584-8.676c2.852-7.427-0.402-15.582-7.266-18.218c-6.86-2.632-14.741,1.253-17.59,8.679
			C205.696,201.294,208.951,209.454,215.813,212.087z"/>
		
			<path fill="#FEEDA4" stroke="#FFFFFF" stroke-width="2.0029" stroke-linecap="round" stroke-linejoin="round" stroke-miterlimit="10" d="
			M221.66,188.626c0.223-0.232-5.628,7.963-5.628,7.963l4.987-2.451l-1.992,12.438l3.88,0.617l1.994-18.43
			C224.901,188.763,221.436,188.856,221.66,188.626z"/>
	</g>
</g>
<g>
</g>
<g>
</g>
<g>
</g>
<g>
</g>
<g>
</g>
<g>
</g>
</svg>
