<?xml version="1.0" encoding="utf-8"?>
<!-- Generator: Adobe Illustrator 16.0.4, SVG Export Plug-In . SVG Version: 6.00 Build 0)  -->
<!DOCTYPE svg PUBLIC "-//W3C//DTD SVG 1.1//EN" "http://www.w3.org/Graphics/SVG/1.1/DTD/svg11.dtd">
<svg version="1.1" id="chair" xmlns="http://www.w3.org/2000/svg" xmlns:xlink="http://www.w3.org/1999/xlink" x="0px" y="0px"
	 width="3979.569px" height="1928px" viewBox="0 0 3979.569 1928" enable-background="new 0 0 3979.569 1928" xml:space="preserve">
<g>
	<path fill="#8A8899" d="M2286.028,887.886l53.566,3.061c0,0,6.82,44.436-1.531,157.64
		c-13.773,186.716,50.926,221.697,50.926,221.697l-51.542-10.143c0,0-57.541-46.265-51.419-223.798
		C2290.059,919.455,2286.028,887.886,2286.028,887.886z"/>
</g>
<g>
	<path fill="#CACBD5" d="M2454.376,974.215c7.097,87.527-29.965,131.622-93.358,131.622c-63.394,0-111.473-10.642-134.68-107.135
		c-29.079-120.906,42.208-212.733,105.602-212.733C2395.333,785.969,2445.193,860.961,2454.376,974.215z"/>
	<g>
		<path fill="#8A8899" d="M2451.876,974.215c3.052,39.014-0.875,86.353-34.477,112.163c-13.872,10.656-31.103,15.566-48.361,16.715
			c-17.229,1.147-35.369,0.163-52.355-2.924c-15.614-2.838-30.68-8.585-43.234-18.449c-14.87-11.683-24.965-28.13-32.388-45.28
			c-20.588-47.57-25.3-103.846-9.729-153.47c11.524-36.728,36.422-73.749,73.164-88.843c32.427-13.321,66.207-0.865,89.758,23.212
			c17.386,17.774,29.301,40.526,37.983,63.613C2443.455,910.781,2449.245,942.539,2451.876,974.215c0.265,3.189,5.267,3.215,5,0
			c-3.98-47.915-14.893-97.613-41.562-138.36c-18.598-28.415-47.125-51.737-82.399-52.38c-34.78-0.634-64.766,24.321-83.679,51.35
			c-26.929,38.483-35.636,87.513-30.715,133.609c2.709,25.382,9.328,50.881,19.832,74.17c7.458,16.535,17.958,31.965,32.314,43.244
			c26.014,20.438,60.832,22.88,92.673,22.47c28.281-0.365,55.232-10.929,72.648-33.804c21.281-27.952,23.521-66.643,20.888-100.299
			C2456.626,971.022,2451.625,970.998,2451.876,974.215z"/>
	</g>
</g>
<g>
	<path fill="#CACBD5" d="M2429.889,983.397c7.097,87.527-29.965,131.622-93.358,131.622c-63.394,0-111.473-10.642-134.68-107.135
		c-29.079-120.906,42.208-212.733,105.602-212.733C2370.846,795.151,2420.706,870.144,2429.889,983.397z"/>
	<g>
		<path fill="#8A8899" d="M2427.389,983.397c3.052,39.014-0.875,86.353-34.477,112.163c-13.872,10.656-31.103,15.566-48.361,16.715
			c-17.229,1.147-35.369,0.163-52.355-2.924c-15.614-2.838-30.68-8.585-43.234-18.449c-14.87-11.683-24.965-28.13-32.388-45.28
			c-20.588-47.57-25.3-103.846-9.729-153.47c11.524-36.728,36.422-73.749,73.164-88.843c32.427-13.321,66.207-0.865,89.758,23.212
			c17.386,17.774,29.301,40.526,37.983,63.613C2418.967,919.964,2424.757,951.722,2427.389,983.397c0.265,3.189,5.267,3.215,5,0
			c-3.98-47.915-14.893-97.613-41.562-138.36c-18.598-28.415-47.125-51.737-82.399-52.38c-34.78-0.634-64.766,24.321-83.679,51.349
			c-26.929,38.484-35.636,87.514-30.715,133.61c2.709,25.382,9.328,50.881,19.832,74.17c7.458,16.535,17.958,31.965,32.314,43.244
			c26.014,20.438,60.832,22.88,92.673,22.47c28.281-0.365,55.232-10.929,72.648-33.804c21.281-27.952,23.521-66.643,20.888-100.299
			C2432.139,980.205,2427.137,980.181,2427.389,983.397z"/>
	</g>
</g>
</svg>
