<?xml version="1.0" encoding="utf-8"?>
<!-- Generator: Adobe Illustrator 16.0.4, SVG Export Plug-In . SVG Version: 6.00 Build 0)  -->
<!DOCTYPE svg PUBLIC "-//W3C//DTD SVG 1.1//EN" "http://www.w3.org/Graphics/SVG/1.1/DTD/svg11.dtd">
<svg version="1.1" id="char1-bottom" xmlns="http://www.w3.org/2000/svg" xmlns:xlink="http://www.w3.org/1999/xlink" x="0px"
	 y="0px" width="3979.569px" height="1928px" viewBox="0 0 3979.569 1928" enable-background="new 0 0 3979.569 1928"
	 xml:space="preserve">
<path fill="#1B1D3A" d="M2605.862,1200.427c0,0-17.389,53.43-35.348,125.264c-7.066,28.267-5.67,60.912-23.628,111.795
	c-0.841,2.381-20.34,20.407-16.462,35.917c5.986,23.945,21.338,69.749,21.338,69.749l30.068,3.118l3.193-17.563
	c0,0,31.135,22.354,44.707,18.362c13.57-3.992,67.183-39.122,39.873-48.225c-13.469-4.489-40.406,11.973-55.373,2.993
	c-14.965-8.979-35.917-46.394-34.42-64.352c2.52-30.242,101.893-267.396,100.297-284.959"/>
<path fill="#1B1D3A" d="M2515.735,1171.363c0,0-17.388,53.43-35.347,125.264c-7.066,28.267-5.67,60.912-23.629,111.795
	c-0.84,2.381-20.34,20.407-16.462,35.917c5.986,23.945,21.338,69.749,21.338,69.749l30.068,3.118l3.193-17.563
	c0,0,31.136,22.354,44.707,18.362s67.183-39.122,39.874-48.225c-13.47-4.489-40.407,11.973-55.373,2.993
	s-35.918-46.394-34.421-64.352c2.521-30.242,101.894-267.396,100.297-284.959"/>
<g>
	<g>
		<path fill="#8A8899" d="M2492.427,1478.653l4.256-223.695l-38.192-2.088l1.985,221.875l-151.618,72.045l0.913,19.919
			l151.812-53.268l17.103,16.691l29.879,25.804c-0.709-0.202-1.433-0.333-2.175-0.333c-7.323,0-13.261,10.289-13.261,22.98
			c0,12.693,5.938,22.982,13.261,22.982s13.261-10.289,13.261-22.982c0-6.556-1.59-12.453-4.131-16.64l17.936,15.489l0.371-19.917
			l-32.575-38.104l130.429,45.766l0.913-19.919L2492.427,1478.653z"/>
	</g>
	<g>
		<ellipse fill="#8A8899" cx="2326.233" cy="1584.713" rx="13.262" ry="22.983"/>
	</g>
	<g>
		<path fill="#8A8899" d="M2588.698,1554.837c-7.322,0-13.26,10.291-13.26,22.98c0,12.694,5.938,22.983,13.26,22.983
			s13.261-10.289,13.261-22.983C2601.958,1565.128,2596.02,1554.837,2588.698,1554.837z"/>
	</g>
</g>
<g>
	
		<ellipse transform="matrix(0.994 -0.1094 0.1094 0.994 -116.958 281.3534)" fill="#CACBD5" cx="2505.824" cy="1206.653" rx="187.519" ry="66.006"/>
	<g>
		<path fill="#8A8899" d="M2689.717,1186.141c1.326,13.824-9.492,24.917-19.451,32.891c-16.754,13.411-37.483,22.052-57.556,29.083
			c-54.823,19.201-114.882,26.578-172.786,24.479c-24.365-0.884-48.952-3.747-72.382-10.699
			c-14.736-4.372-32.104-10.97-41.341-24.065c-7.617-10.799-4.044-23.1,3.773-32.637c11.632-14.191,29.223-23.354,45.629-30.789
			c23.928-10.845,49.568-17.964,75.224-23.328c30.149-6.305,60.937-9.697,91.717-10.527c26.748-0.722,53.75,0.672,80.07,5.66
			c18.362,3.481,37.648,8.708,53.075,19.681C2682.433,1170.685,2688.659,1177.629,2689.717,1186.141c0.393,3.156,5.396,3.194,5,0
			c-1.631-13.121-11.785-22.178-22.646-28.521c-17.033-9.947-37.184-14.555-56.452-17.699c-55.781-9.105-114.48-4.668-169.519,7.05
			c-24.988,5.319-49.669,12.685-73.021,23.115c-16.477,7.359-33.346,16.662-45.525,30.27c-7.976,8.912-13.288,20.733-9.369,32.663
			c4.298,13.083,17.594,21.312,29.392,26.767c19.013,8.791,40.112,12.765,60.765,15.335c27.898,3.474,56.217,3.453,84.228,1.504
			c53.156-3.701,108.775-14.086,156.606-38.499c18.629-9.509,47.924-27.157,45.541-51.983
			C2694.413,1182.961,2689.409,1182.931,2689.717,1186.141z"/>
	</g>
</g>
<path fill="#1B1D3A" stroke="#1B1D3A" stroke-width="0.7841" stroke-linecap="round" stroke-miterlimit="10" d="M2395.11,1004.151
	c0,0-175.292,146.165-33.993,208.732c85.867,38.021,132.204,8.354,276.218-45.65c20.259-7.597,45.2-7.298,46.209-10.124
	c22.448-62.855-13.208-109.758-108-91.76C2417.544,1095.35,2395.11,1004.151,2395.11,1004.151z"/>
<g>
	<g>
		<path fill="#1B1D3A" d="M2635.251,1069.35c-14,2,25.304,0.104,11.304-3.896s-73.601-14.521-85.601-14.521
			c-20,0-54.594-2.56-74.594-0.56c-26,4-51.109,10.978-79.109,12.978c-32,4-28,22-2,36c22,14,54,22,80,24c40,4,96-20,114-58"/>
	</g>
</g>
</svg>
