<?xml version="1.0" encoding="utf-8"?>
<!-- Generator: Adobe Illustrator 16.0.4, SVG Export Plug-In . SVG Version: 6.00 Build 0)  -->
<!DOCTYPE svg PUBLIC "-//W3C//DTD SVG 1.1//EN" "http://www.w3.org/Graphics/SVG/1.1/DTD/svg11.dtd">
<svg version="1.1" id="char1-arm" xmlns="http://www.w3.org/2000/svg" xmlns:xlink="http://www.w3.org/1999/xlink" x="0px" y="0px"
	 width="3979.569px" height="1928px" viewBox="0 0 3979.569 1928" enable-background="new 0 0 3979.569 1928" xml:space="preserve">
<g>
	<g>
		<g>
			<path fill="#EDEDF7" d="M2786.117,939.359c-19.225,16.096-0.006,17.886,15.412,20.757c7.981,1.61,40.329-2.854,47.287-9.312
				c12.842-13.185-1.369-37.068-12.271-45.275c-12.51-9.395-37.746-9.089-47.451,5.274c-5.812,9.481,2.928,18.707,3.419,25.864"/>
			<g>
				<path fill="#1B1D3A" d="M2784.85,938.093c-4.457,3.847-13.171,12.297-5.569,17.691c6.313,4.48,16.427,5.608,23.938,6.349
					c8.25,0.812,17.117-0.853,25.197-2.353c7.104-1.319,15.997-2.832,21.667-7.71c7.446-6.407,6.207-18.088,3.229-26.247
					c-3.173-8.69-9.195-17.062-16.735-22.467c-14.002-10.039-41.002-8.349-49.794,7.962c-4.754,8.819,2.904,16.852,3.939,25.349
					c0.275,2.263,3.861,2.29,3.582,0c-1.178-9.665-9.848-18.246-1.751-27.341c6.205-6.97,16.562-8.783,25.423-8.301
					c18.531,1.01,34.449,19.178,34.118,37.691c-0.175,9.778-7.429,13.229-15.527,15.523c-8.033,2.276-16.434,3.529-24.745,4.181
					c-7.186,0.563-13.817-0.614-20.85-2.094c-3.403-0.717-7.378-1.521-10.09-3.844c-4.051-3.469,4.255-9.919,6.502-11.857
					C2789.135,939.114,2786.589,936.592,2784.85,938.093L2784.85,938.093z"/>
			</g>
		</g>
		<g>
			<path fill="#F4EDE1" d="M2726.3,922.066c33.704-10.601,42.045-37.963,50.182-46.075c2.981-2.77,6.703-8.479,10.575-10.239
				c12.185,4.623,25.002,8.231,36.723,14.692c8.944,5.369,11.805,7.65,20.575,12.196c4.968,9.063,18.112,31.117,13.921,40.224
				c-2.971,1.206-8.115-8.68-13.474-13.152c-8.217-6.752-9.642-8.672-18.033-2.575c-19.132,13.951-58.06,34.909-83.378,20.347"/>
			<g>
				<path fill="#1B1D3A" d="M2726.777,923.793c19.304-6.286,32.834-19.176,43.573-35.965c4.14-6.472,8.517-12.065,13.838-17.654
					c3.175-3.335,5.23-1.627,9.092-0.251c3.38,1.205,6.771,2.379,10.146,3.595c7.816,2.814,15.443,6.012,22.542,10.353
					c4.802,2.937,9.513,5.994,14.447,8.708c4.381,2.409,6.284,7.922,8.558,12.267c2.518,4.811,4.812,9.741,6.568,14.883
					c0.788,2.311,1.39,4.705,1.672,7.132c0.11,0.939,0.084,1.88,0.042,2.822c-0.061,0.678-0.199,1.338-0.418,1.98
					c0.896-0.575,0.753-1.062-0.431-1.459c-6.63-5.833-11.815-17.808-21.854-18.533c-4.171-0.302-8.252,3.645-11.373,5.833
					c-4.49,3.147-9.175,6.013-13.952,8.702c-18.51,10.417-44.534,20.95-64.932,9.731c-2.025-1.113-3.832,1.98-1.809,3.094
					c19.736,10.854,43.698,2.787,62.391-6.474c4.84-2.397,9.521-5.109,14.095-7.976c4.612-2.89,9.1-7.223,14.22-9.098
					c4.715-1.727,11.377,6.228,14.065,9.336c2.315,2.678,5.516,9.044,9.407,9.764c7.562,1.4,3.002-13.842,1.933-16.973
					c-3.106-9.1-8.077-17.487-12.695-25.874c-0.921-1.671-4.652-2.781-6.3-3.711c-2.305-1.299-4.548-2.705-6.79-4.107
					c-5.948-3.723-11.865-7.212-18.355-9.929c-6.641-2.779-13.439-5.123-20.225-7.521c-1.886-0.666-5.667-2.989-7.651-2.443
					c-2.287,0.629-4.369,3.031-5.921,4.661c-7.173,7.534-12.138,15.934-18.111,24.37c-9.167,12.946-21.604,22.358-36.725,27.283
					C2723.638,921.052,2724.574,924.511,2726.777,923.793L2726.777,923.793z"/>
			</g>
		</g>
	</g>
	<g>
		<g>
			<path fill="#DC4832" d="M2677.113,941.025c3.187-12.436,9.562-18.74-2.51-28.211c-11.435-5.814-37.784-20.311-66.079-53.793
				c-35.05-41.476-54.708-115.929-60.15-133.32c-8.571,1.561-36.518-1.651-41.901,6.156c-13.823,19.259-14.269,18.16-14.509,41.354
				c0.333,3.16,16.492,33.852,17.086,37.128l12.183,14.736c1.146,1.146,2.692,7.26,4.443,8.065
				c-1.269,1.841,1.013,1.095,1.724,3.215c0.782,1.626,1.709,3.226,2.72,4.808c0.77,1.118-3.689,6.079-2.875,7.3
				c3.486,4.94,9.173,9.271,11.411,14.274c26.41,41.209,75.239,101.944,115.592,107.626
				C2666.479,950.694,2671.817,948.512,2677.113,941.025z"/>
		</g>
		<g>
			<g>
				<path fill="#1B1D3A" d="M2543.212,719.075c4.717,5.474,6.522,14.878,8.772,21.526c4.609,13.623,9.15,27.263,14.266,40.708
					c12.794,33.622,28.952,66.87,53.198,93.81c14.202,15.778,31.521,28.645,51.391,36.307c2.159,0.833,3.084-2.632,0.953-3.453
					c-36.188-13.955-61.484-45.294-79.707-78.358c-15.708-28.5-26.27-59.242-36.647-89.965c-2.477-7.333-4.498-17.079-9.692-23.107
					C2544.234,714.789,2541.712,717.335,2543.212,719.075L2543.212,719.075z"/>
			</g>
		</g>
		<g>
			<g>
				<path fill="#1B1D3A" d="M2525.203,848.839c23.291,30.14,45.372,61.685,71.667,89.341c15.373,16.17,36.418,35.763,60.632,33.232
					c2.273-0.237,2.297-3.822,0-3.582c-24.759,2.587-45.752-18.9-61.135-35.408c-25.005-26.835-46.238-57.139-68.63-86.116
					C2526.325,844.48,2523.81,847.035,2525.203,848.839L2525.203,848.839z"/>
			</g>
		</g>
	</g>
	<g>
		<g>
			<path fill="#DC4832" d="M2736.915,904.114c0,0-81.896,8.723-77.38,10.792c6.501,2.978,4.871,3.414-2.149-0.155
				c-4.576,7.238-5.381,16.968-5.186,19.265c-4.744,16.515-13.948,31.626,8.513,37.975c7.021,0.582,13.968,1.081,21.46-0.14
				c15.107-2.463,76.323-3.249,78.897-15.218C2763.298,946.268,2786.34,919.318,2736.915,904.114z"/>
		</g>
		<g>
			<g>
				<path fill="#1B1D3A" d="M2654.789,913.479c3.532,1.346,8.401,0.368,12.021,0.036c7.443-0.682,14.855-1.76,22.251-2.825
					c7.874-1.134,15.735-2.354,23.609-3.491c4.515-0.651,9.383-1.764,13.974-1.518c2.31,0.124,2.297-3.459,0-3.582
					c-4.057-0.218-8.318,0.721-12.317,1.276c-7.306,1.014-14.595,2.151-21.892,3.229c-7.666,1.132-15.339,2.235-23.044,3.069
					c-3.938,0.427-9.795,1.82-13.649,0.353C2653.579,909.202,2652.653,912.666,2654.789,913.479L2654.789,913.479z"/>
			</g>
		</g>
		<g>
			<g>
				<path fill="#1B1D3A" d="M2652.528,972.327c5.118,2.022,12.483,1.037,17.819,0.994c11.399-0.093,22.801-0.732,34.157-1.699
					c11.568-0.985,23.164-2.359,34.53-4.768c6.822-1.446,15.649-3.153,20.775-8.339c1.624-1.644-0.907-4.178-2.533-2.533
					c-5.034,5.094-14.346,6.427-21.012,7.797c-11.178,2.299-22.585,3.504-33.947,4.444c-10.632,0.88-21.303,1.401-31.971,1.516
					c-5.021,0.054-12.058,1.034-16.866-0.865C2651.33,968.024,2650.406,971.489,2652.528,972.327L2652.528,972.327z"/>
			</g>
		</g>
		<g>
			<g>
				<path fill="#1B1D3A" d="M2728.998,905.631c1.967-2.061,8.504-0.203,10.784,0.33c6.129,1.435,11.958,4.143,17.021,7.875
					c5.711,4.211,9.839,10.428,10.603,17.551c1.08,10.084-4.521,19.73-10.23,27.546c-1.364,1.869,1.746,3.653,3.094,1.809
					c6.352-8.697,11.82-19.068,10.63-30.175c-0.842-7.858-5.529-14.635-11.69-19.364c-5.768-4.429-12.606-7.415-19.694-8.972
					c-3.54-0.778-10.119-2.201-13.049,0.867C2724.871,904.768,2727.4,907.304,2728.998,905.631L2728.998,905.631z"/>
			</g>
		</g>
	</g>
</g>
</svg>
