<?xml version="1.0" encoding="utf-8"?>
<!-- Generator: Adobe Illustrator 16.0.4, SVG Export Plug-In . SVG Version: 6.00 Build 0)  -->
<!DOCTYPE svg PUBLIC "-//W3C//DTD SVG 1.1//EN" "http://www.w3.org/Graphics/SVG/1.1/DTD/svg11.dtd">
<svg version="1.1" id="char1-head" xmlns="http://www.w3.org/2000/svg" xmlns:xlink="http://www.w3.org/1999/xlink" x="0px" y="0px"
	 width="3979.569px" height="1928px" viewBox="0 0 3979.569 1928" enable-background="new 0 0 3979.569 1928" xml:space="preserve">
<g>
	<g>
		<path fill="#DC4832" d="M2514.16,584.623c14.776-0.803,7.87,13.109,4.544,13.961c-4.404,1.244-8.725-2.592-10.392-8.465"/>
		<g>
			<path fill="#1B1D3A" d="M2514.16,586.414c2.293-0.086,5.505-0.154,6.879,2.079c0.911,1.48,0.293,3.673-0.352,5.128
				c-0.53,1.197-1.325,2.62-2.512,3.273c-1.199,0.659-3.341-0.301-4.427-1.141c-1.929-1.491-3.005-3.851-3.709-6.111
				c-0.685-2.197-4.143-1.259-3.454,0.953c1.552,4.98,5.062,10.032,10.803,10.003c3.02-0.016,4.947-2.351,6.226-4.823
				c1.342-2.595,2.08-6.039,0.684-8.765c-1.906-3.724-6.371-4.319-10.139-4.179C2511.857,582.918,2511.849,586.5,2514.16,586.414
				L2514.16,586.414z"/>
		</g>
	</g>
	<g>
		<path fill="#DC4832" d="M2499.379,576.496c4.754,16.979,32.397,8.561,26.949-1.42c-1.771-3.572-12.72-1.684-15.317,0.105
			c-2.562,2.166-5.458,8.523-11.122,2.016"/>
		<g>
			<path fill="#1B1D3A" d="M2497.652,576.973c3.713,11.725,21.771,15.56,29.522,5.223c3.085-4.113,1.536-9.517-3.595-10.678
				c-3.551-0.804-7.723-0.004-11.131,1.061c-4.409,1.375-6.46,8.271-11.292,3.353c-1.621-1.649-4.152,0.885-2.533,2.533
				c4.071,4.143,7.895,4.192,11.797-0.057c2.019-2.197,3.943-2.782,6.855-3.304c2.531-0.453,8.5-1.043,7.942,3.049
				c-0.584,4.284-7.212,5.896-10.658,6.221c-6.131,0.578-11.556-2.365-13.452-8.354
				C2500.412,573.826,2496.953,574.764,2497.652,576.973L2497.652,576.973z"/>
		</g>
	</g>
	<g>
		<path fill="#F4EDE1" d="M2526.737,500.425c-2.321,22.37,17.178,36.25,27.539,50.082c-7.62,4.93-21.412,8.949-29.449,4.363"/>
		<g>
			<path fill="#1B1D3A" d="M2524.946,500.425c-1.832,22.07,15.719,35.178,27.784,50.986c0.214-0.817,0.428-1.633,0.643-2.45
				c-7.629,4.72-19.041,8.72-27.642,4.363c-2.055-1.041-3.869,2.049-1.808,3.093c9.836,4.983,22.421,1.104,31.257-4.363
				c0.752-0.465,1.247-1.659,0.643-2.45c-11.586-15.181-29.054-27.973-27.294-49.178
				C2528.719,498.122,2525.135,498.141,2524.946,500.425L2524.946,500.425z"/>
		</g>
	</g>
	<g>
		<path fill="#F4EDE1" d="M2458.725,727.312c-16.473,1.828-30.457,13.395-47.268,13.965c-0.841-14.082-6.341-133.035-51.25-121.393
			c-29.005,7.52-121.053-257.008,44.677-270.173c165.711-13.163,135.969,242.888,74.568,293.806
			C2435.407,680.043,2447.627,712.838,2458.725,727.312z"/>
		<g>
			<path fill="#1B1D3A" d="M2458.725,725.521c-16.514,2.15-30.527,13.046-47.268,13.965c0.597,0.597,1.194,1.194,1.791,1.791
				c-1.473-24.889-3.912-49.864-9.966-74.107c-3.375-13.517-7.946-27.569-16.621-38.685c-7.008-8.979-16.252-12.421-27.304-10.246
				c-3.633,0.715-8.224-4.909-10.423-7.672c-5.421-6.811-9.437-14.84-13.066-22.705c-10.677-23.136-17.521-48.243-21.738-73.318
				c-8.562-50.912-6.657-118.521,42.772-148.71c26.545-16.213,62.986-18.923,92.525-10.456
				c26.975,7.733,47.305,27.502,59.587,52.271c13.073,26.362,17.288,56.685,17.381,85.827c0.095,29.696-4.43,59.606-13.405,87.917
				c-6.639,20.939-16.064,43.443-32.408,58.753c-8.079,7.568-16.172,14.477-22.644,23.578c-5.564,7.827-9.514,16.877-10.93,26.395
				c-2.004,13.472,2.006,27.304,10.17,38.099c1.375,1.817,4.487,0.035,3.093-1.809c-9.364-12.381-12.438-27.86-8.184-42.84
				c3.438-12.105,11.456-22.438,20.214-31.199c5.166-5.166,11.052-9.444,15.883-14.947c15.801-17.996,24.787-41.957,31.122-64.703
				c7.969-28.613,11.497-58.687,10.503-88.363c-0.954-28.464-6.393-57.576-19.948-82.869
				c-12.746-23.781-33.473-41.863-59.483-49.562c-29.038-8.597-64.138-5.735-91.003,8.387
				c-50.687,26.645-56.801,91.318-50.604,142.05c3.194,26.152,9.653,52.103,19.412,76.586c3.667,9.2,7.835,18.275,13.038,26.718
				c3.275,5.313,7.152,11.032,12.507,14.459c1.672,1.069,3.712,1.841,5.723,1.684c5.213-0.405,9.338-1.546,14.422,0.687
				c11.799,5.183,17.737,19.881,21.686,31.165c9.237,26.393,12.138,55.155,13.833,82.923c0.095,1.564,0.181,3.13,0.273,4.694
				c0.055,0.932,0.773,1.847,1.791,1.791c16.847-0.925,30.739-11.812,47.268-13.965
				C2460.981,728.81,2461.01,725.224,2458.725,725.521z"/>
		</g>
	</g>
	<g>
		<path fill="#1B1D3A" d="M2269.431,620.635c25.788,1.793,41.213,5.984,39.722-13.527c-4.118-53.917-58.391-61.458-75.106-124.43
			c-20.917-78.814,111.892-206.33,195.355-115.91c58.536,63.414,50.826,203.504,1.739,269.518
			c-50.426,67.814-111,45.328-161.71-13.912"/>
		<g>
			<path fill="#1B1D3A" d="M2269.431,622.426c9.765,0.702,20.38,2.883,30.141,1.229c6.233-1.056,10.646-4.764,11.308-11.287
				c1.8-17.737-7.488-35.687-18.27-49.03c-11.99-14.839-26.891-26.996-38.266-42.392c-11.817-15.994-20.642-35.859-20.708-56.002
				c-0.117-35.068,22.14-68.471,46.967-91.455c26.296-24.344,63.094-41.843,99.499-34.225c40.835,8.545,66.514,46.522,78.349,83.937
				c13.414,42.406,13.264,89.377,4.307,132.654c-8.752,42.289-28.612,89.532-68.076,111.668
				c-46.023,25.813-93.54-11.473-122.871-45.125c-0.371-0.431-0.741-0.861-1.112-1.292c-1.51-1.753-4.032,0.792-2.533,2.533
				c27.887,32.384,70.252,67.487,115.99,52.43c22.159-7.295,39.551-25.388,52.323-44.243c11.046-16.308,18.696-34.858,24.343-53.653
				c12.506-41.625,15.071-87.009,7.456-129.778c-6.925-38.894-24.478-78.583-58.688-100.728
				c-64.659-41.856-144.831,17.288-170.709,77.8c-6.152,14.384-9.787,30.122-8.572,45.819c1.526,19.729,11.278,38.912,23.144,54.39
				c11.281,14.715,25.66,26.623,37.293,41.02c5.892,7.291,10.615,15.451,13.536,24.374c2.266,6.923,6.515,20.807,0.41,26.775
				c-3.237,3.165-9.425,2.716-13.539,2.614c-7.25-0.18-14.488-1.096-21.719-1.615
				C2267.125,618.678,2267.141,622.261,2269.431,622.426L2269.431,622.426z"/>
		</g>
	</g>
	<g>
		<path fill="#DC4832" d="M2452.575,541.368c-17.77,11.034-15.024,42.402,7.276,33.583c6.744-2.555,15.748-10.783,13.129-21.358
			c-1.864-10.664-14.731-11.92-21.997-13.846"/>
		<g>
			<path fill="#1B1D3A" d="M2451.671,539.821c-8.073,5.274-12.906,14.392-12.463,24.07c0.394,8.61,6.482,15.103,15.312,14.274
				c11.304-1.06,21.72-11.463,20.548-23.078c-1.255-12.439-13.659-14.531-23.608-17.067c-2.24-0.571-3.189,2.884-0.952,3.454
				c7.462,1.902,17.743,2.843,20.483,11.405c3.505,10.953-7.215,20.837-17.432,21.794c-7.486,0.702-10.783-6.096-10.814-12.551
				c-0.038-7.702,4.389-15.064,10.733-19.209C2455.404,541.656,2453.611,538.554,2451.671,539.821L2451.671,539.821z"/>
		</g>
	</g>
	<g>
		<g>
			<path fill="#1B1D3A" d="M2511.34,481.765c-2.447,8.374-6.119,16.98-6.032,25.841c0.078,8.001,7.668,7.321,11.453,2.125
				c4.722-6.483,7.1-15.573,7.062-23.528c-0.031-6.613-4.309-11.09-10.594-7.057c-2.412,1.548-0.178,5.41,2.251,3.852
				c4.884-3.134,4.012,3.777,3.689,7.01c-0.583,5.834-2.579,12.043-5.856,16.918c-0.479,0.713-2.85,3.699-3.375,2.026
				c-0.827-2.638,0.199-6.161,0.74-8.75c1.228-5.874,3.284-11.505,4.963-17.251C2516.45,480.184,2512.145,479.01,2511.34,481.765
				L2511.34,481.765z"/>
		</g>
	</g>
	<g>
		<path fill="#1B1D3A" d="M2344.292,346.58c26.664-17.15,44.826-20.01,84.666-24.432c39.838-4.424,100.556,8.279,101.2,56.816
			c-1.534,114.398-233.323,120.688-183.699-30.646"/>
		<g>
			<path fill="#1B1D3A" d="M2345.196,348.126c18.671-11.915,38.267-18.115,60.08-21.292c21.617-3.149,43.044-5.318,64.705-1.426
				c18.454,3.315,38.019,10.851,49.582,26.353c10.135,13.587,10.35,31.149,6.007,46.898
				c-13.926,50.501-76.938,70.498-123.594,60.515c-20.642-4.417-40.081-15.524-51.138-33.947
				c-13.893-23.149-10.614-51.878-2.652-76.432c0.714-2.204-2.745-3.14-3.454-0.952c-8.682,26.774-11.326,57.614,4.882,82.159
				c13.061,19.779,35.797,30.477,58.653,33.948c46.896,7.123,105.265-14.095,120.334-62.894c4.422-14.319,4.815-30.131-1.617-43.887
				c-7.538-16.118-24.023-25.771-40.257-31.221c-17.708-5.944-37.175-7.48-55.708-5.803c-22.017,1.993-44.996,4.52-65.568,13.071
				c-7.726,3.211-15.019,7.322-22.062,11.817C2341.448,346.271,2343.243,349.373,2345.196,348.126L2345.196,348.126z"/>
		</g>
	</g>
	<g>
		<g>
			<path fill="#1B1D3A" d="M2514.043,479.576c-5.962,3.354-16.467,8.197-17.94-1.968c-0.411-2.838-4.708-1.626-4.301,1.186
				c1.974,13.614,16.065,9.374,24.492,4.634C2518.8,482.017,2516.553,478.164,2514.043,479.576L2514.043,479.576z"/>
		</g>
	</g>
	<g>
		<g>
			<path fill="#1B1D3A" d="M2507.922,457.353c4.482-2.934,9.229-5.376,14.339-7.014c2.19-0.702,1.254-4.161-0.952-3.454
				c-5.397,1.73-10.458,4.274-15.194,7.375C2504.19,455.519,2505.983,458.622,2507.922,457.353L2507.922,457.353z"/>
		</g>
	</g>
</g>
</svg>
