<?xml version="1.0" encoding="utf-8"?>
<!-- Generator: Adobe Illustrator 16.0.4, SVG Export Plug-In . SVG Version: 6.00 Build 0)  -->
<!DOCTYPE svg PUBLIC "-//W3C//DTD SVG 1.1//EN" "http://www.w3.org/Graphics/SVG/1.1/DTD/svg11.dtd">
<svg version="1.1" id="char1" xmlns="http://www.w3.org/2000/svg" xmlns:xlink="http://www.w3.org/1999/xlink" x="0px" y="0px"
	 width="3979.569px" height="1928px" viewBox="0 0 3979.569 1928" enable-background="new 0 0 3979.569 1928" xml:space="preserve">
<g>
	<path fill="#DC4832" d="M2567.069,838.875c-2.875-20.625-14.125-27.125-13.125-29.125c-6.156-1.847-10.625,21.75-10.625,21.75
		c-1.046-3.161,12.743-9.539,11.972-12.622c11.778-27.128,6.873-27.242,4.778-38.628c-1.992-8.15-4.27-25.366-6.5-32
		c-4.204-6.697-1.378-16.128-6.136-22.463c-0.828-1.102-0.935-2.191-0.595-3.122c-4.587-4.252-9.635-7.87-14.775-11.437
		c-5.722-0.362-11.493-0.485-17.197-0.919c-5.648-0.429-11.307-0.126-16.96,0.075c-0.738,0.913-1.883,1.48-3.159,1.594
		c-3.422,0.261-6.796,0.91-10.216,1.188c-0.686,0.056-1.327-0.136-1.896-0.464c-1.523,1.39-4.01,1.275-5.456-0.17
		c-1.368-1.368-0.883-0.429-0.129-2.089c0.14-0.309,0.226-0.717,0.279-1.178c-4.552-1.742-6.425-6.236-9.274-10.579
		c-1.647,0.284-5.057,0.904-6.703,1.176c-0.117-0.023-0.245-0.026-0.37-0.033c-0.894,0.203-1.794,0.379-2.708,0.498
		c-21.458,5.27-41.218,3.611-63.789-0.903c-0.251,1.066-2.484,1.012-2.747,2.075c-0.088,0.419-1.716,8.085-1.833,8.5
		c-0.482,1.704-0.156,2.6-1.483,2.807c-0.014,0.024-0.028,0.049-0.042,0.073c-0.42,0.769-0.421,1.495-0.175,2.102
		c-1.037,2.07-2.385,3.818-3.846,5.509c-2.114,0.784-4.06,1.905-5.421,3.303c-1.903,1.953-3.043,5.055-4.752,7.246
		c-1.647,2.113-3.275,4.215-4.664,6.509c-2.854,4.718-5.375,8.802-5.319,14.501c0.009,0.95,0.16,1.907,0.396,2.865
		c-1.704,9.854-2.435,31.239-2.194,41.086c0.115,4.693,1.387-3.354,6.588-1.622c0.686,0.229,1.37,0.501,2.049,0.803
		c0.213,94.955,25.884,223.045,14.245,292.183c-2.203,2.66-4.222,5.553-6.028,8.482c-1.058,1.716-4.486,3.312-8.358,4.883
		c0.551-0.069,1.102-0.124,1.651-0.146c12.329-1.277,26.714,1.289,38.927-0.818c2.568-0.443,4.946,0.133,7.206,1.346
		c8.548-2.39,17.379-3.969,26.289-5.13c9.901-2.487,19.982-4.312,30.068-5.939c8.73-6.218,18.462-11.054,28.523-14.943
		c2.221-2.306,4.428-4.641,6.969-6.646c1.072-0.847,2.149-1.702,3.235-2.545c-0.959-3.104,0.424-6.006-0.503-9.48
		c-0.321-1.203-3.67-5.303-4.645-7.396c0.121,0.132,0.336,0.215,0.602,0.271c-0.109-0.148-0.219-0.294-0.32-0.457
		c-0.082-0.109-0.166-0.214-0.248-0.325c0.017-0.007,0.033-0.014,0.049-0.021c-0.162-0.293-0.316-0.6-0.452-0.935
		c-0.412-1.012-0.381-1.88-0.084-2.598c-0.008-0.218-0.021-0.435-0.023-0.652c-0.104-9.463-2.368-26.31-0.777-35.593
		c0.336-1.963,0.866-3.559,1.501-4.961c-0.011-1.199,0.096-2.416,0.355-3.656c0.734-3.516,1.647-6.961,2.277-10.505
		c0.566-3.181,0.412-6.449,0.981-9.635c1.366-7.646,6.36-13.082,9.423-19.982c0.12-0.271,0.208-0.548,0.308-0.823
		c-1.175-1.085-1.706-2.82-0.661-4.727l0.158-0.287c-0.072-0.402-0.07-0.822,0.03-1.25c-0.704-0.816-1.031-1.938-0.64-3.267
		c-0.252-0.698-0.281-1.516,0.049-2.436c1.691-4.722,4.065-8.801,7.04-12.765c0.023-0.036,0.044-0.073,0.067-0.109
		c0.003,0.003,0.006,0.005,0.01,0.008c0.083-0.11,0.165-0.22,0.248-0.33c1.652-3.462,3.068-7.01,4.234-10.682
		c-0.481-0.818-0.687-1.825-0.425-2.939c0.613-2.619,1.611-4.967,2.876-7.127c0.035-0.107,0.069-0.214,0.104-0.322
		c0.325-1.016,0.88-1.724,1.542-2.187c4.472-6.139,11.108-10.754,17.085-15.864c-0.09-0.742,0.016-1.521,0.399-2.272
		c2.075-4.067,4.358-8.004,6.705-11.919c0.371-0.619,0.907-1.071,1.52-1.376c0.432-0.567,0.866-1.132,1.34-1.669
		c0.438-0.496,0.916-0.829,1.405-1.034c0.591-8.052,2.852-16.645,1.648-24.604C2567.319,848.625,2567.641,839.733,2567.069,838.875z
		"/>
	<path fill="#DC4832" d="M2369.799,1100.871c-1.305,0.141-2.607,0.292-3.91,0.443c0.78,0.163,1.562,0.321,2.344,0.474
		c0.896-0.353,1.792-0.705,2.665-1.06c-0.083,0.011-0.166,0.011-0.249,0.022C2370.376,1100.79,2370.09,1100.83,2369.799,1100.871z"
		/>
	<g>
		<path fill="#DC4832" d="M2537.998,821.506c1.705,7.464,3.43,15.794,12.406,18.486c-1,2,0,4,1,6
			c1.063,1.595,2.288,3.135,3.596,4.645c-0.242-2.512-0.674-4.539-1.321-5.996C2547.93,831.683,2543.503,826.93,2537.998,821.506z"
			/>
		<g>
			<path fill="#DC4832" d="M2536.271,821.982c1.975,8.651,4.566,16.584,13.657,19.736c-0.417-0.734-0.834-1.469-1.251-2.203
				c-1.341,4.95,2.023,8.807,5.056,12.388c0.959,1.132,3.244,0.269,3.058-1.267c-1.422-11.707-9.337-22.295-17.526-30.397
				c-1.643-1.625-4.177,0.907-2.533,2.533c7.4,7.32,15.188,17.246,16.478,27.864c1.019-0.422,2.038-0.844,3.058-1.267
				c-1.966-2.32-5.086-5.392-4.135-8.901c0.268-0.989-0.327-1.883-1.251-2.203c-7.746-2.687-9.515-10.048-11.155-17.236
				C2539.211,818.778,2535.758,819.733,2536.271,821.982z"/>
		</g>
	</g>
	<g>
		<path fill="#DC4832" d="M2550.404,839.992c-1.846-0.554-3.382-1.349-4.677-2.323l6.444,9.925c0.836,0.873,1.706,1.807,2.598,2.779
			c-1.222-1.425-2.363-2.88-3.364-4.381C2550.404,843.992,2549.404,841.992,2550.404,839.992z"/>
		<g>
			<path fill="#DC4832" d="M2550.88,838.266c-1.558-0.509-2.918-1.194-4.25-2.144c-1.474-1.051-3.397,0.991-2.45,2.451
				c2.951,4.544,5.65,9.079,9.321,13.066c1.583,1.719,4.003-0.792,2.533-2.533c-1.894-2.241-5.062-5.454-3.904-8.638
				c0.792-2.176-2.67-3.105-3.454-0.953c-1.67,4.591,2.056,8.845,4.825,12.124c0.844-0.845,1.689-1.688,2.533-2.533
				c-3.448-3.744-5.986-8.065-8.762-12.342c-0.817,0.817-1.633,1.634-2.45,2.451c1.576,1.124,3.269,1.904,5.105,2.503
				C2552.13,842.438,2553.066,838.979,2550.88,838.266z"/>
		</g>
	</g>
	<g>
		<g>
			<path fill="#1B1D3A" d="M2465.311,715.906c17.64-1.708,35.507-3.846,53.262-3.445c7.991,0.18,16.92,1.257,23.537,6.175
				c1.856,1.379,3.639-1.732,1.808-3.094c-6.684-4.967-15.657-6.242-23.74-6.609c-18.226-0.827-36.768,1.639-54.867,3.392
				C2463.033,712.545,2463.011,716.129,2465.311,715.906L2465.311,715.906z"/>
		</g>
	</g>
	<g>
		<g>
			<path fill="#1B1D3A" d="M2363.963,786.893c-0.271-20.799-1.186-44.081,13.847-60.486c3.164-3.453,8.002-5.458,10.564-9.325
				c2.053-3.102,2.703-7.332,3.422-10.899c0.311-1.543,0.571-3.096,0.902-4.635c0.271-1.262-2.169,0.127-0.844,0.621
				c0.542,0.201,1.1,0.357,1.654,0.518c2.737,0.787,5.593,1.16,8.412,1.515c15.99,2.013,32.642,1.289,48.64-0.253
				c1.724-0.166,25.296-2.376,18.974-8.105c-1.471-1.332-3.91,0.375-2.813,2.171c2.711,4.437,5.422,8.873,8.134,13.31
				c1.202,1.967,4.301,0.168,3.093-1.809c-2.711-4.437-5.422-8.873-8.134-13.31c-0.938,0.724-1.875,1.447-2.813,2.171
				c0.436,0.395,0.543-1.442-0.182-1.021c-0.671,0.391-1.472,0.58-2.212,0.792c-2.255,0.646-4.599,1.01-6.915,1.362
				c-7.353,1.12-14.829,1.565-22.253,1.888c-13.574,0.588-29.552,1.772-42.634-2.683c-4.89-1.665-4.627,7.544-5.361,10.582
				c-0.434,1.793-0.982,3.562-1.76,5.236c-1.007,2.168-3.375,3.163-5.171,4.601c-4.104,3.282-7.555,7.053-10.481,11.413
				c-10.923,16.278-9.896,37.645-9.653,56.347C2360.411,789.2,2363.993,789.203,2363.963,786.893L2363.963,786.893z"/>
		</g>
	</g>
	<g>
		<g>
			<path fill="#1B1D3A" d="M2352.516,1104.818c23.999,1.855,47.661,1.689,71.433-2.272c22.58-3.764,45.603-8.63,66.765-17.586
				c8.413-3.561,29.864-13.583,24.374-26.536c-13.739-32.412-2.279-70.251,7.845-102.156c5.897-18.586,12.771-36.841,19.388-55.178
				c5.069-14.046,10.618-28.374,13.101-43.161c0.379-2.259-3.072-3.227-3.454-0.953c-2.677,15.94-8.826,31.366-14.306,46.496
				c-7.283,20.106-14.741,40.157-20.905,60.646c-5.825,19.36-10.683,39.381-11.41,59.666c-0.303,8.457,0.36,16.998,2.441,25.214
				c0.891,3.518,2.181,6.919,3.709,10.206c0.695,1.495,0.336,0.342,0.641,1.6c0.649,2.683-1.254,6.261-3.49,8.741
				c-7.047,7.815-18.26,12.015-27.87,15.477c-41.009,14.771-85.007,19.56-128.262,16.216
				C2350.211,1101.059,2350.229,1104.642,2352.516,1104.818L2352.516,1104.818z"/>
		</g>
	</g>
</g>
<g>
	<g>
		<path fill="#1B1D3A" d="M2538.954,911.256c6.469-6.965,15.162-12.57,20.152-20.765c4.129-6.781,10.244-15.298,10.74-23.603
			c0.374-6.259,0.407-12.548,0.08-18.809c-0.496-9.479-1.43-21.688-8.465-28.847c-1.621-1.649-4.152,0.885-2.533,2.533
			c6.765,6.884,7.117,19.412,7.519,28.436c0.245,5.499-0.074,10.953-0.173,16.443c-0.136,7.544-6.604,15.95-10.26,22.038
			c-4.744,7.898-13.372,13.342-19.592,20.039C2534.851,910.412,2537.378,912.951,2538.954,911.256L2538.954,911.256z"/>
	</g>
</g>
</svg>
