<?xml version="1.0" encoding="utf-8"?>
<!-- Generator: Adobe Illustrator 16.0.4, SVG Export Plug-In . SVG Version: 6.00 Build 0)  -->
<!DOCTYPE svg PUBLIC "-//W3C//DTD SVG 1.1//EN" "http://www.w3.org/Graphics/SVG/1.1/DTD/svg11.dtd">
<svg version="1.1" id="computer-bars" xmlns="http://www.w3.org/2000/svg" xmlns:xlink="http://www.w3.org/1999/xlink" x="0px"
	 y="0px" width="3979.569px" height="1928px" viewBox="0 0 3979.569 1928" enable-background="new 0 0 3979.569 1928"
	 xml:space="preserve">
<g>
	<polygon fill="#FFFFFF" points="2871.569,1271.25 2503.569,1272 2530.819,521.75 2899.069,521.25 	"/>
	<polygon fill="none" stroke="#312782" stroke-width="1.0666" stroke-miterlimit="10" points="2894.838,582.336 2530.274,582.707 
		2532.343,522.996 2897.162,522.625 	"/>
	<polygon fill="#1B1D3A" points="2623.095,554.646 2546.406,554.646 2546.814,542.916 2623.511,542.916 	"/>
	<polygon fill="#1B1D3A" points="2718.699,571.725 2545.812,571.725 2546.075,564.176 2718.974,564.176 	"/>
	<g>
		<polygon fill="#DC4832" points="2778.481,563.217 2754.392,563.217 2755.109,543.677 2779.203,543.677 		"/>
		<polygon fill="#DC4832" points="2805.174,563.217 2781.083,563.217 2781.806,543.677 2805.901,543.677 		"/>
		<polygon fill="#DC4832" points="2831.868,563.217 2807.778,563.217 2808.505,543.677 2832.601,543.677 		"/>
		<polygon fill="#78EBA6" points="2858.562,563.217 2834.471,563.217 2835.204,543.677 2859.297,543.677 		"/>
		<polygon fill="#78EBA6" points="2885.256,563.217 2861.164,563.217 2861.901,543.677 2885.998,543.677 		"/>
	</g>
	<polygon fill="none" stroke="#312782" stroke-width="1.2465" stroke-miterlimit="10" points="2891.582,681.665 2527.484,681.077 
		2530.311,599.527 2894.806,599.156 	"/>
	<polygon fill="#1B1D3A" points="2620.553,626.234 2543.914,626.234 2544.323,614.506 2620.968,614.506 	"/>
	<polygon fill="#1B1D3A" points="2647.926,640.195 2543.429,640.195 2543.662,633.508 2648.165,633.508 	"/>
	<polygon fill="#1B1D3A" points="2647.494,652.263 2543.009,652.263 2543.241,645.575 2647.733,645.575 	"/>
	<polygon fill="#1B1D3A" points="2596.956,664.33 2542.59,664.33 2542.822,657.642 2597.191,657.642 	"/>
	<g>
		<polygon fill="#78EBA6" points="2775.302,649.256 2751.231,649.256 2751.947,629.715 2776.024,629.715 		"/>
		<polygon fill="#DC4832" points="2801.973,649.256 2777.903,649.256 2778.625,629.715 2802.7,629.715 		"/>
		<polygon fill="#78EBA6" points="2828.647,649.256 2804.575,649.256 2805.302,629.715 2829.378,629.715 		"/>
		<polygon fill="#78EBA6" points="2855.32,649.256 2831.247,649.256 2831.979,629.715 2856.055,629.715 		"/>
		<polygon fill="#DC4832" points="2881.992,649.256 2857.92,649.256 2858.658,629.715 2882.732,629.715 		"/>
	</g>
	<polygon fill="none" stroke="#312782" stroke-width="1.2807" stroke-miterlimit="10" points="2887.396,766.068 2524.491,767.412 
		2527.475,681.324 2891.621,680.953 	"/>
	<g>
		<polygon fill="#78EBA6" points="2772.125,735.294 2748.07,735.294 2748.788,715.753 2772.845,715.753 		"/>
		<polygon fill="#78EBA6" points="2798.775,735.294 2774.721,735.294 2775.443,715.753 2799.5,715.753 		"/>
		<polygon fill="#78EBA6" points="2825.426,735.294 2801.373,735.294 2802.099,715.753 2826.158,715.753 		"/>
		<polygon fill="#DC4832" points="2852.077,735.294 2828.023,735.294 2828.754,715.753 2852.813,715.753 		"/>
		<polygon fill="#78EBA6" points="2878.729,735.294 2854.674,735.294 2855.413,715.753 2879.469,715.753 		"/>
	</g>
	<polygon fill="none" stroke="#312782" stroke-width="1.2465" stroke-miterlimit="10" points="2884.606,849.773 2521.678,848.534 
		2524.505,766.985 2888.288,766.615 	"/>
	<g>
		<polygon fill="#78EBA6" points="2769.111,816.797 2745.078,816.797 2745.795,797.257 2769.834,797.257 		"/>
		<polygon fill="#DC4832" points="2795.743,816.797 2771.708,816.797 2772.429,797.257 2796.469,797.257 		"/>
		<polygon fill="#78EBA6" points="2822.375,816.797 2798.338,816.797 2799.065,797.257 2823.105,797.257 		"/>
		<polygon fill="#78EBA6" points="2849.005,816.797 2824.969,816.797 2825.702,797.257 2849.742,797.257 		"/>
		<polygon fill="#78EBA6" points="2875.634,816.797 2851.602,816.797 2852.339,797.257 2876.377,797.257 		"/>
	</g>
	<polygon fill="none" stroke="#312782" stroke-width="1.2807" stroke-miterlimit="10" points="2881.751,934.498 2518.685,934.869 
		2521.669,848.783 2885.102,848.412 	"/>
	<g>
		<polygon fill="#78EBA6" points="2765.932,902.835 2741.918,902.835 2742.635,883.295 2766.654,883.295 		"/>
		<polygon fill="#78EBA6" points="2792.544,902.835 2768.527,902.835 2769.249,883.295 2793.269,883.295 		"/>
		<polygon fill="#DC4832" points="2819.152,902.835 2795.137,902.835 2795.864,883.295 2819.884,883.295 		"/>
		<polygon fill="#78EBA6" points="2845.761,902.835 2821.747,902.835 2822.478,883.295 2846.499,883.295 		"/>
		<polygon fill="#78EBA6" points="2872.372,902.835 2848.356,902.835 2849.094,883.295 2873.114,883.295 		"/>
	</g>
	<polygon fill="#1B1D3A" points="2617.502,712.111 2540.927,712.111 2541.335,700.382 2617.919,700.382 	"/>
	<polygon fill="#1B1D3A" points="2644.853,726.074 2540.44,726.074 2540.673,719.387 2645.092,719.387 	"/>
	<polygon fill="#1B1D3A" points="2644.422,738.142 2540.02,738.142 2540.252,731.453 2644.662,731.453 	"/>
	<polygon fill="#1B1D3A" points="2593.923,750.208 2539.6,750.208 2539.833,743.521 2594.16,743.521 	"/>
	<polygon fill="#1B1D3A" points="2614.544,795.413 2538.027,795.413 2538.435,783.684 2614.961,783.684 	"/>
	<polygon fill="#1B1D3A" points="2641.874,809.375 2537.541,809.375 2537.773,802.687 2642.114,802.687 	"/>
	<polygon fill="#1B1D3A" points="2641.444,821.441 2537.121,821.441 2537.354,814.754 2641.681,814.754 	"/>
	<polygon fill="#1B1D3A" points="2590.982,833.509 2536.701,833.509 2536.934,826.82 2591.218,826.82 	"/>
	<polygon fill="#1B1D3A" points="2611.718,874.997 2535.257,874.997 2535.665,863.268 2612.134,863.268 	"/>
	<polygon fill="#1B1D3A" points="2639.027,888.96 2534.771,888.96 2535.004,882.271 2639.265,882.271 	"/>
	<polygon fill="#1B1D3A" points="2638.595,901.026 2534.351,901.026 2534.584,894.339 2638.834,894.339 	"/>
	<polygon fill="#1B1D3A" points="2588.173,913.094 2533.931,913.094 2534.163,906.405 2588.408,906.405 	"/>
	<polygon fill="none" stroke="#312782" stroke-width="1.2465" stroke-miterlimit="10" points="2879.057,1016.601 2514.96,1016.013 
		2517.787,934.463 2882.282,934.092 	"/>
	<polygon fill="#1B1D3A" points="2608.029,961.17 2531.39,961.17 2531.799,949.441 2608.444,949.441 	"/>
	<polygon fill="#1B1D3A" points="2635.402,975.131 2530.905,975.131 2531.138,968.443 2635.641,968.443 	"/>
	<polygon fill="#1B1D3A" points="2634.97,987.198 2530.485,987.198 2530.717,980.511 2635.209,980.511 	"/>
	<polygon fill="#1B1D3A" points="2584.432,999.266 2530.066,999.266 2530.298,992.577 2584.667,992.577 	"/>
	<g>
		<polygon fill="#78EBA6" points="2762.778,984.191 2738.707,984.191 2739.422,964.65 2763.5,964.65 		"/>
		<polygon fill="#DC4832" points="2789.449,984.191 2765.378,984.191 2766.1,964.65 2790.175,964.65 		"/>
		<polygon fill="#78EBA6" points="2816.123,984.191 2792.05,984.191 2792.778,964.65 2816.854,964.65 		"/>
		<polygon fill="#78EBA6" points="2842.795,984.191 2818.722,984.191 2819.455,964.65 2843.531,964.65 		"/>
		<polygon fill="#DC4832" points="2869.467,984.191 2845.396,984.191 2846.133,964.65 2870.208,964.65 		"/>
	</g>
	<polygon fill="none" stroke="#312782" stroke-width="1.2807" stroke-miterlimit="10" points="2874.872,1101.004 2511.967,1102.348 
		2514.951,1016.26 2879.096,1015.889 	"/>
	<g>
		<polygon fill="#78EBA6" points="2759.6,1070.229 2735.545,1070.229 2736.263,1050.688 2760.321,1050.688 		"/>
		<polygon fill="#78EBA6" points="2786.25,1070.229 2762.197,1070.229 2762.918,1050.688 2786.976,1050.688 		"/>
		<polygon fill="#78EBA6" points="2812.902,1070.229 2788.848,1070.229 2789.575,1050.688 2813.633,1050.688 		"/>
		<polygon fill="#DC4832" points="2839.552,1070.229 2815.499,1070.229 2816.23,1050.688 2840.289,1050.688 		"/>
		<polygon fill="#78EBA6" points="2866.205,1070.229 2842.15,1070.229 2842.888,1050.688 2866.945,1050.688 		"/>
	</g>
	<polygon fill="none" stroke="#312782" stroke-width="1.2465" stroke-miterlimit="10" points="2872.082,1184.709 2509.154,1183.47 
		2511.981,1101.921 2875.763,1101.551 	"/>
	<g>
		<polygon fill="#78EBA6" points="2756.586,1151.732 2732.553,1151.732 2733.271,1132.192 2757.31,1132.192 		"/>
		<polygon fill="#DC4832" points="2783.218,1151.732 2759.183,1151.732 2759.905,1132.192 2783.945,1132.192 		"/>
		<polygon fill="#78EBA6" points="2809.851,1151.732 2785.814,1151.732 2786.541,1132.192 2810.581,1132.192 		"/>
		<polygon fill="#78EBA6" points="2836.481,1151.732 2812.445,1151.732 2813.177,1132.192 2837.217,1132.192 		"/>
		<polygon fill="#78EBA6" points="2863.11,1151.732 2839.078,1151.732 2839.815,1132.192 2863.853,1132.192 		"/>
	</g>
	<polygon fill="none" stroke="#312782" stroke-width="1.2807" stroke-miterlimit="10" points="2869.227,1269.434 2506.161,1269.805 
		2509.145,1183.719 2872.578,1183.348 	"/>
	<g>
		<polygon fill="#78EBA6" points="2753.408,1237.771 2729.394,1237.771 2730.111,1218.23 2754.129,1218.23 		"/>
		<polygon fill="#78EBA6" points="2780.02,1237.771 2756.002,1237.771 2756.724,1218.23 2780.745,1218.23 		"/>
		<polygon fill="#DC4832" points="2806.627,1237.771 2782.613,1237.771 2783.339,1218.23 2807.36,1218.23 		"/>
		<polygon fill="#78EBA6" points="2833.237,1237.771 2809.222,1237.771 2809.954,1218.23 2833.974,1218.23 		"/>
		<polygon fill="#78EBA6" points="2859.847,1237.771 2835.832,1237.771 2836.57,1218.23 2860.589,1218.23 		"/>
	</g>
	<polygon fill="#1B1D3A" points="2604.979,1047.047 2528.403,1047.047 2528.811,1035.317 2605.396,1035.317 	"/>
	<polygon fill="#1B1D3A" points="2632.329,1061.01 2527.916,1061.01 2528.149,1054.322 2632.568,1054.322 	"/>
	<polygon fill="#1B1D3A" points="2631.898,1073.077 2527.496,1073.077 2527.728,1066.389 2632.138,1066.389 	"/>
	<polygon fill="#1B1D3A" points="2581.399,1085.144 2527.076,1085.144 2527.309,1078.456 2581.636,1078.456 	"/>
	<polygon fill="#1B1D3A" points="2602.02,1130.349 2525.503,1130.349 2525.911,1118.619 2602.437,1118.619 	"/>
	<polygon fill="#1B1D3A" points="2629.35,1144.311 2525.017,1144.311 2525.25,1137.622 2629.59,1137.622 	"/>
	<polygon fill="#1B1D3A" points="2628.92,1156.377 2524.597,1156.377 2524.83,1149.689 2629.157,1149.689 	"/>
	<polygon fill="#1B1D3A" points="2578.458,1168.444 2524.177,1168.444 2524.41,1161.756 2578.694,1161.756 	"/>
	<polygon fill="#1B1D3A" points="2599.194,1209.933 2522.733,1209.933 2523.141,1198.203 2599.61,1198.203 	"/>
	<polygon fill="#1B1D3A" points="2626.503,1223.896 2522.248,1223.896 2522.48,1217.207 2626.741,1217.207 	"/>
	<polygon fill="#1B1D3A" points="2626.071,1235.962 2521.827,1235.962 2522.06,1229.274 2626.311,1229.274 	"/>
	<polygon fill="#1B1D3A" points="2575.649,1248.029 2521.407,1248.029 2521.639,1241.341 2575.884,1241.341 	"/>
</g>
</svg>
