<?xml version="1.0" encoding="utf-8"?>
<!-- Generator: Adobe Illustrator 16.0.4, SVG Export Plug-In . SVG Version: 6.00 Build 0)  -->
<!DOCTYPE svg PUBLIC "-//W3C//DTD SVG 1.1//EN" "http://www.w3.org/Graphics/SVG/1.1/DTD/svg11.dtd">
<svg version="1.1" id="computer_1_" xmlns="http://www.w3.org/2000/svg" xmlns:xlink="http://www.w3.org/1999/xlink" x="0px"
	 y="0px" width="3979.569px" height="1928px" viewBox="0 0 3979.569 1928" enable-background="new 0 0 3979.569 1928"
	 xml:space="preserve">
<g>
	<g>
		<g>
			<g>
				<path fill="#9594A2" d="M2764.225,916.19c3.43-31.174-12.195-131.801-11.246-137.811l-65.094,9.34
					c-1.653,16.775,15.57,119.643,13.486,128.096"/>
			</g>
			<g>
				<path fill="#9594A2" d="M2600.545,927.708c30.022-3.895,106.856-27.201,98.577-25.018c-8.795,2.318,85.971-1.625,150.948,3.875
					c-16.469,6.113-41.946,19.844-60.149,24.879c-26.452,7.799-149.155-5.238-182.587-2.334"/>
			</g>
			<g>
				<polygon fill="#D9D8DE" points="2913.197,830.565 2499.363,831.46 2507.268,489.899 2927.864,483.565 2928.918,487.691 				"/>
			</g>
			<g>
				<polygon fill="#B7B6C0" points="2930.198,481.899 2942.864,497.566 2936.198,819.899 2939.531,827.232 2913.531,831.899 				"/>
			</g>
			<g>
				<g>
					<path fill="#1B1D3A" d="M2496.486,833.237c11.667-0.571,23.451-0.161,35.126-0.172c26.166-0.022,52.332,0.001,78.498,0.021
						c66.195,0.048,132.392,0.129,198.587,0.043c24.505-0.031,49.01-0.073,73.515-0.244c10.708-0.074,22.064,0.808,32.718-0.589
						c2.257-0.296,2.285-3.882,0-3.582c-11.425,1.497-23.618,0.529-35.103,0.605c-26.161,0.173-52.322,0.208-78.483,0.237
						c-66.196,0.072-132.393-0.012-198.588-0.059c-24.509-0.017-49.019-0.036-73.528-0.012c-10.883,0.011-21.865-0.364-32.741,0.169
						C2494.188,829.768,2494.176,833.351,2496.486,833.237L2496.486,833.237z"/>
				</g>
			</g>
			<g>
				<g>
					<path fill="#1B1D3A" d="M2692.109,842.128c1.104,3.801,1.152,8.097,1.551,12.009c0.779,7.648,1.46,15.308,2.158,22.964
						c0.659,7.225,1.313,14.45,2.049,21.668c0.402,3.946,0.48,8.288,1.594,12.123c0.643,2.213,4.099,1.271,3.453-0.953
						c-1.104-3.801-1.152-8.097-1.551-12.01c-0.779-7.648-1.46-15.308-2.158-22.964c-0.659-7.225-1.313-14.45-2.049-21.668
						c-0.402-3.945-0.479-8.288-1.594-12.122C2694.919,838.962,2691.462,839.904,2692.109,842.128L2692.109,842.128z"/>
				</g>
			</g>
			<g>
				<g>
					<path fill="#1B1D3A" d="M2757.637,841.11c1.102,3.803,1.15,8.098,1.549,12.011c0.779,7.649,1.459,15.309,2.158,22.965
						c0.658,7.225,1.312,14.45,2.048,21.668c0.402,3.946,0.48,8.288,1.594,12.122c0.643,2.214,4.099,1.271,3.453-0.953
						c-1.103-3.801-1.151-8.097-1.55-12.009c-0.78-7.648-1.46-15.308-2.158-22.964c-0.659-7.225-1.312-14.451-2.048-21.669
						c-0.402-3.947-0.481-8.288-1.593-12.124C2760.45,837.943,2756.993,838.886,2757.637,841.11L2757.637,841.11z"/>
				</g>
			</g>
			<g>
				<g>
					<path fill="#1B1D3A" d="M2765.622,905.247c5.125-0.877,10.708-0.384,15.875-0.311c8.828,0.126,17.653,0.429,26.477,0.734
						c13.824,0.479,27.915,1.828,41.748,1.211c2.301-0.103,2.311-3.685,0-3.582c-14.205,0.634-28.679-0.759-42.874-1.25
						c-8.752-0.303-17.507-0.583-26.264-0.708c-5.227-0.074-10.733-0.435-15.915,0.452
						C2762.395,902.183,2763.363,905.634,2765.622,905.247L2765.622,905.247z"/>
				</g>
			</g>
			<g>
				<g>
					<path fill="#1B1D3A" d="M2630.996,920.614c11.411-0.729,22.978-4.25,34.011-7.019c10.902-2.735,22.585-5.109,32.878-9.761
						c2.102-0.95,0.279-4.037-1.809-3.094c-9.985,4.514-21.451,6.729-32.021,9.4c-10.697,2.704-21.992,6.184-33.059,6.891
						C2628.702,917.179,2628.688,920.762,2630.996,920.614L2630.996,920.614z"/>
				</g>
			</g>
			<g>
				<path fill="#FFFFFF" d="M2893.196,808.065h-374.928l5.25-295l379.928-0.5c0,0-0.047,2.007-1.25,103.25
					C2900.446,763.065,2893.196,808.065,2893.196,808.065z"/>
			</g>
			<g>
				<g>
					<path fill="#1B1D3A" d="M2522.502,512.325c-0.593,5.047-0.456,10.251-0.575,15.322c-0.259,10.986-0.433,21.974-0.607,32.962
						c-0.506,31.955-0.919,63.911-1.397,95.867c-0.486,32.5-0.991,65.001-1.785,97.495c-0.285,11.668-0.601,23.337-1.092,34.998
						c-0.246,5.83-0.243,12.324-1.217,17.848c-0.042,0.243-0.096,0.484-0.163,0.722c-0.626,2.229,2.83,3.173,3.454,0.953
						c1.347-4.796,1.079-10.412,1.318-15.335c0.53-10.891,0.829-21.793,1.116-32.691c0.841-31.875,1.336-63.76,1.824-95.641
						c0.498-32.562,0.923-65.126,1.422-97.689c0.273-17.884-0.004-35.925,1.193-53.781c0.023-0.344,0.051-0.687,0.091-1.029
						C2526.354,510.033,2522.769,510.059,2522.502,512.325L2522.502,512.325z"/>
				</g>
			</g>
			<g>
				<g>
					<path fill="#1B1D3A" d="M2506.007,488.369c-1.643,13.936-1.013,28.446-1.343,42.448c-0.701,29.731-1.308,59.464-1.944,89.196
						c-1.311,61.219-2.278,122.481-4.785,183.667c-0.253,6.169-0.526,12.339-0.929,18.501c-0.184,2.822-0.191,6.002-0.863,8.39
						c-0.626,2.229,2.83,3.173,3.454,0.953c1.176-4.181,0.991-9.053,1.234-13.345c0.545-9.635,0.892-19.281,1.229-28.925
						c1.037-29.634,1.752-59.279,2.454-88.923c1.452-61.345,2.522-122.699,4.088-184.042c0.235-9.224-0.094-18.742,0.988-27.921
						C2509.859,486.078,2506.274,486.104,2506.007,488.369L2506.007,488.369z"/>
				</g>
			</g>
			<g>
				<g>
					<path fill="#1B1D3A" d="M2525.019,514.273c36.413,0.008,72.825,0.016,109.238,0.024c63.4,0.014,126.799,0.028,190.199,0.042
						c23.957,0.005,47.913,0.011,71.87,0.016c2.31,0,2.31-3.582,0-3.582c-36.413-0.008-72.825-0.016-109.237-0.024
						c-63.4-0.014-126.8-0.028-190.2-0.042c-23.957-0.005-47.913-0.011-71.87-0.016
						C2522.709,510.691,2522.709,514.273,2525.019,514.273L2525.019,514.273z"/>
				</g>
			</g>
			<g>
				<g>
					<path fill="#1B1D3A" d="M2894.624,808.017c2.19-3.037,1.72-9.468,2.019-12.962c0.854-9.986,1.359-20.006,1.854-30.016
						c1.51-30.574,2.479-61.178,3.375-91.776c1.532-52.296,3.854-104.842,3.002-157.171c-0.022-1.404,0.017-2.864-0.241-4.252
						c-0.42-2.269-3.872-1.305-3.453,0.952c-0.123-0.66,0.033,0.599,0.049,0.948c0.043,0.962,0.058,1.925,0.072,2.888
						c0.046,3.104,0.037,6.21,0.025,9.316c-0.039,10.357-0.19,20.714-0.354,31.07c-0.487,30.913-1.2,61.822-2.024,92.728
						c-0.862,32.337-1.845,64.673-3.202,96.993c-0.793,18.884-0.605,38.488-3.66,57.191c-0.139,0.852-0.562,2.294-0.554,2.282
						C2890.176,808.086,2893.286,809.871,2894.624,808.017L2894.624,808.017z"/>
				</g>
			</g>
			<g>
				<g>
					<path fill="#1B1D3A" d="M2895.704,806.839c-3.006-0.647-6.512-0.226-9.553-0.254c-7.993-0.072-15.985-0.094-23.979-0.116
						c-26.474-0.073-52.947-0.068-79.421-0.063c-64.117,0.01-128.233,0.1-192.351,0.096c-16.215-0.001-32.43-0.004-48.645-0.05
						c-6.933-0.02-14.02,0.349-20.94-0.177c-2.305-0.175-2.288,3.408,0,3.582c11.76,0.893,23.835,0.19,35.616,0.206
						c26.943,0.037,53.886,0.021,80.829,0.007c63.915-0.033,127.831-0.122,191.746-0.071c15.603,0.013,31.206,0.028,46.809,0.103
						c4.576,0.021,9.151,0.047,13.727,0.103c1.302,0.016,2.604,0.034,3.905,0.066c0.396,0.01,2.17,0.21,1.303,0.022
						C2897.003,810.777,2897.96,807.324,2895.704,806.839L2895.704,806.839z"/>
				</g>
			</g>
			<g>
				<g>
					<path fill="#1B1D3A" d="M2930.479,483.741c-0.094,0.737-3.446,0.374-3.469-0.139c0.021,0.461,0.007,0.926,0,1.387
						c-0.027,1.936-0.097,3.871-0.163,5.805c-0.255,7.5-0.576,14.997-0.895,22.494c-1.085,25.521-2.264,51.037-3.438,76.553
						c-2.82,61.219-5.735,122.433-8.485,183.654c-0.636,14.151-1.271,28.303-1.831,42.457c-0.083,2.098-2.308,15.774,0.896,16.62
						c0.607,0.16,1.302,0.002,1.742-0.461c0.002-0.002,0.004-0.004,0.006-0.006c1.59-1.674-0.939-4.211-2.533-2.533
						c3.309-3.482,3.014,2.891,3.013,0.499c-0.001-0.644,0.016-1.287,0.031-1.93c0.054-2.258,0.137-4.514,0.219-6.771
						c0.294-8.037,0.642-16.072,0.989-24.107c1.131-26.178,2.343-52.352,3.553-78.524c2.812-60.854,5.712-121.705,8.421-182.564
						c0.634-14.234,1.277-28.468,1.8-42.707c0.111-3.048,0.247-6.101,0.266-9.151c0.017-2.891-3.303-3.715-3.703-0.577
						C2926.605,486.028,2930.191,486,2930.479,483.741L2930.479,483.741z"/>
				</g>
			</g>
			<g>
				<g>
					<path fill="#1B1D3A" d="M2941.024,495.896c-1.771,14.979-1.312,30.499-1.765,45.55c-0.935,31.191-1.699,62.388-2.381,93.585
						c-1.273,58.222-3.493,116.732-1.73,174.965c0.122,4.016,0.136,8.148,0.842,12.118c0.403,2.271,3.855,1.306,3.453-0.953
						c-0.902-5.079-0.747-11.484-0.855-16.973c-0.22-11.141-0.207-22.286-0.168-33.429c0.11-31.902,0.633-63.804,1.228-95.7
						c1.057-56.66,2.029-113.376,4.439-169.999c0.129-3.044,0.161-6.135,0.52-9.165
						C2944.876,493.605,2941.292,493.631,2941.024,495.896L2941.024,495.896z"/>
				</g>
			</g>
			<g>
				<g>
					<path fill="#1B1D3A" d="M2510.491,492.023c35.931-1.769,72.054-1.639,108.015-2.354c65.549-1.305,131.103-2.507,196.661-3.357
						c26.287-0.341,52.576-0.646,78.866-0.679c8.448-0.01,16.897,0.001,25.345,0.151c3.726,0.066,9.196,0.055,12.061,0.522
						c0.222,0.036,0.889,0.275,0.18-0.026c2.101,0.894,3.928-2.19,1.809-3.093c-2.839-1.208-6.785-0.804-9.787-0.889
						c-7.493-0.213-14.992-0.231-22.487-0.246c-25.017-0.048-50.035,0.237-75.05,0.54c-65.543,0.792-131.081,1.991-196.616,3.277
						c-39.36,0.772-78.74,1.327-118.09,2.539c-0.302,0.009-0.604,0.018-0.905,0.033
						C2508.192,488.554,2508.181,492.137,2510.491,492.023L2510.491,492.023z"/>
				</g>
			</g>
			<g>
				<g>
					<path fill="#1B1D3A" d="M2929.856,484.351c3.385,0.012,5.53,5.021,7.001,7.464c1.614,2.683,3.522,6.12,6.804,6.932
						c2.243,0.554,3.194-2.9,0.953-3.454c-3.105-0.768-5.047-6.008-6.602-8.448c-1.874-2.942-4.361-6.062-8.156-6.076
						C2927.545,480.761,2927.546,484.343,2929.856,484.351L2929.856,484.351z"/>
				</g>
			</g>
			<g>
				<g>
					<path fill="#1B1D3A" d="M2911.198,833.884c10.344-0.464,19.539-1.689,29.28-5.605c2.114-0.85,1.192-4.315-0.953-3.453
						c-9.417,3.785-18.314,5.027-28.327,5.477C2908.898,830.405,2908.887,833.987,2911.198,833.884L2911.198,833.884z"/>
				</g>
			</g>
		</g>
	</g>
	<g>
		<g>
			<path fill="#D9D8DE" d="M3441.86,777.587c2.506-8.713,37.611-15.619,80.555-15.619c44.572,0,80.701,7.438,80.701,16.617
				c0,0.188-0.02,0.375-0.049,0.559l0.842,0.01l-35.791,148.951c-0.941,1.688-37.201,31.648-92.77,2.955l-37.4-153.51
				L3441.86,777.587z"/>
			<g>
				<path fill="#8A8899" d="M3443.667,778.085c1.046-3.028,5.726-4.619,8.369-5.644c5.806-2.25,12.013-3.512,18.118-4.623
					c17.811-3.243,36.125-4.015,54.192-3.971c17.604,0.042,35.378,1.145,52.698,4.408c5.916,1.115,11.926,2.518,17.483,4.88
					c2.334,0.992,6.938,2.867,6.663,6.008c-0.09,1.028,0.921,1.864,1.875,1.875c0.28,0.003,0.562,0.007,0.842,0.01
					c-0.603-0.791-1.205-1.582-1.808-2.373c-11.375,47.336-22.749,94.673-34.124,142.01c-0.539,2.244-1.078,4.488-1.617,6.733
					c-0.162,0.672,0.616-0.801,0.237-0.378c-0.304,0.339-0.664,0.632-1.011,0.925c-1.566,1.329-3.331,2.438-5.082,3.504
					c-15.974,9.717-35.596,11.877-53.762,8.675c-6.482-1.142-12.793-3.11-18.934-5.45c-2.137-0.814-4.227-1.745-6.309-2.688
					c-0.127-0.058-4.532-2.196-4.347-1.434c-0.04-0.167-0.081-0.333-0.122-0.5c-0.61-2.509-1.222-5.019-1.833-7.527
					c-2.839-11.65-5.678-23.301-8.516-34.952c-8.976-36.841-17.952-73.681-26.928-110.521c-0.603,0.791-1.205,1.582-1.808,2.373
					c1.304,0.013,2.608,0.024,3.912,0.037c2.419,0.022,2.417-3.728,0-3.75c-1.304-0.013-2.608-0.024-3.912-0.037
					c-1.248-0.012-2.094,1.203-1.808,2.373c11.614,47.674,23.229,95.347,34.844,143.02c0.745,3.056,1.489,6.111,2.233,9.167
					c0.107,0.438,0.214,0.877,0.32,1.315c0.402,1.647,3.089,2.248,4.348,2.864c3.445,1.684,7.001,3.142,10.582,4.507
					c19.856,7.566,42.178,8.759,62.24,1.351c5.402-1.995,10.641-4.626,15.332-7.977c1.431-1.021,3.542-2.26,3.983-4.098
					c1.803-7.502,3.605-15.003,5.408-22.505c10.095-42.014,20.19-84.027,30.285-126.041c0.286-1.19-0.561-2.358-1.808-2.373
					c-0.28-0.003-0.562-0.007-0.842-0.01c0.625,0.625,1.25,1.25,1.875,1.875c0.728-8.318-13.941-11.442-19.541-12.884
					c-18.519-4.767-38.191-5.803-57.223-6.125c-20.582-0.35-41.45,0.71-61.703,4.567c-7.48,1.425-23.399,3.625-26.423,12.387
					C3439.26,779.381,3442.883,780.356,3443.667,778.085z"/>
			</g>
		</g>
		<g>
			<path fill="#B7B6C0" d="M3457.852,780.202c0,6.988,29.68,12.652,66.291,12.652s66.293-5.664,66.293-12.652
				c0-6.984-29.682-12.648-66.293-12.648S3457.852,773.218,3457.852,780.202z"/>
			<g>
				<path fill="#8A8899" d="M3455.977,780.202c0.402,5.311,7.541,7.306,11.697,8.591c10.932,3.382,22.759,4.389,34.111,5.199
					c15.445,1.103,31.01,0.979,46.449-0.124c11.157-0.797,22.613-2.055,33.338-5.372c3.75-1.159,11.098-3.551,10.71-8.667
					c-0.401-5.288-8.709-7.354-12.671-8.507c-11.228-3.267-23.255-4.262-34.869-5.021c-15.436-1.009-30.984-0.825-46.403,0.371
					c-10.595,0.822-21.438,2.088-31.624,5.237C3462.747,773.138,3456.353,775.242,3455.977,780.202c-0.183,2.413,3.568,2.396,3.75,0
					c0.159-2.101,4.707-3.508,6.192-4.066c4.647-1.746,9.614-2.689,14.487-3.546c14.386-2.529,29.158-3.121,43.736-3.161
					c14.602-0.04,29.322,0.762,43.737,3.161c4.603,0.766,9.179,1.779,13.613,3.239c1.618,0.532,6.894,2.076,7.067,4.373
					c0.148,1.959-4.977,3.611-6.193,4.068c-4.646,1.747-9.614,2.69-14.487,3.548c-14.386,2.529-29.158,3.121-43.737,3.161
					c-14.601,0.04-29.321-0.762-43.736-3.161c-4.603-0.767-9.179-1.78-13.612-3.24c-1.62-0.533-6.894-2.077-7.067-4.376
					C3459.545,777.807,3455.794,777.789,3455.977,780.202z"/>
			</g>
		</g>
		<g>
			<path fill="#B7B6C0" d="M3531.208,783.119c14.736-38.682,11.789-35.734,30.208-53.417c14.302-13.729,17.263-13.839,27.998-20.63
				c18.052-11.42,25.051-14.465,36.367-18.656c22.124-8.199,41.982-10.279,69.582-10.932c21.377-0.506,53.984-1.984,71.23,13.488
				c11.26,10.098,14.906,24.795,12.494,40.102c-25.385-9.584-48.109-25.621-73.164-36.041c-24.891-10.355-58.921-13.58-85.181-7.396
				c-22.953,5.404-37.665,14.666-57.431,28.381c-18.832,13.068-31.868,37.45-41.046,59.944"/>
			<g>
				<path fill="#8A8899" d="M3533.015,783.617c5.668-14.904,9.646-32.104,20.927-43.957c6.832-7.18,14.144-14.359,22.179-20.167
					c8.045-5.814,17.092-10.755,25.638-15.767c19.725-11.565,41.828-18.209,64.504-20.701c12.957-1.424,26.037-1.655,39.06-1.894
					c11.962-0.218,24.008,0.024,35.78,2.342c10.396,2.046,20.164,6.192,27.417,14.102c8.597,9.375,10.513,22.843,8.761,35.001
					c0.769-0.437,1.537-0.873,2.306-1.31c-26.403-10.136-49.651-26.84-75.966-37.163c-23.652-9.277-50.881-11.632-75.895-7.752
					c-24.856,3.854-46.373,16.543-66.554,30.896c-19.949,14.189-31.665,38.198-40.713,60.216c-0.92,2.237,2.71,3.201,3.615,0.996
					c9.231-22.46,21.17-45.653,41.622-59.819c20.602-14.269,41.938-26.019,67.175-29.265c24.179-3.111,49.996,0.262,72.555,9.465
					c25.223,10.291,47.681,26.26,73.164,36.041c0.87,0.335,2.17-0.363,2.306-1.31c1.684-11.682,0.375-23.271-5.838-33.486
					c-5.607-9.219-14.957-14.848-24.964-18.162c-10.816-3.582-22.567-4.331-33.878-4.562c-12.276-0.25-24.647,0.19-36.902,0.866
					c-23.129,1.277-45.649,5.903-66.782,15.57c-10.129,4.634-19.323,10.918-28.872,16.587c-8.131,4.827-15.262,10.165-22.176,16.662
					c-6.54,6.146-13.584,12.328-18.014,20.253c-6.12,10.946-9.635,23.656-14.069,35.32
					C3528.539,784.885,3532.165,785.854,3533.015,783.617L3533.015,783.617z"/>
			</g>
		</g>
		<g>
			<path fill="#B7B6C0" d="M3519.22,765.271c18.782-58.376,41.849-94.527,58.376-115.229c16.291-20.404,39.754-42.514,60.648-57.393
				c20.166-14.362,43.545-22.909,67.301-26.966c48.041-8.209,102.283-0.637,132.828,44.538c14.398,21.293,30.348,58.833,8.17,80.558
				c-20.637-44.551-67.035-64.243-110.898-65.679c-53.932-1.768-104.098,22.86-149.113,52.813
				c-21.152,14.072-44.469,40.148-62.235,95.478"/>
			<g>
				<path fill="#8A8899" d="M3521.028,765.77c14.355-44.331,34.472-87.831,65.287-123.224
					c18.838-21.637,41.169-42.548,66.255-56.722c23.988-13.554,51.859-19.902,79.234-21.032
					c34.332-1.417,69.465,7.679,94.002,32.828c11.841,12.137,20.734,27.834,26.072,43.869c5.405,16.239,6.11,34.981-6.661,47.965
					c0.982,0.127,1.964,0.253,2.945,0.38c-20.229-42.872-65.407-64.473-111.16-66.558c-55.43-2.525-109.92,23.717-154.219,54.946
					c-31.445,22.169-48.771,59.109-60.295,94.672c-0.748,2.307,2.873,3.287,3.615,0.996c7.877-24.303,18.189-48.292,33.973-68.585
					c12.365-15.897,28.054-26.635,45.081-37.055c47.617-29.14,103.601-50.193,159.896-37.47
					c34.323,7.757,64.652,28.692,79.871,60.945c0.521,1.103,2.152,1.186,2.945,0.38c16.051-16.317,12.642-40.019,4.725-59.441
					c-8.427-20.671-22.26-38.979-40.733-51.623c-39.024-26.71-94.015-24.384-136.926-9.371
					c-22.81,7.979-42.198,21.632-60.284,37.378c-16.229,14.129-31.256,29.822-44.098,47.106
					c-24.137,32.487-40.731,70.295-53.141,108.618C3516.665,767.08,3520.287,768.061,3521.028,765.77L3521.028,765.77z"/>
			</g>
		</g>
		<g>
			<path fill="#B7B6C0" d="M3507.999,780.909c-3.344-31.248-16.261-59.265-33.157-86.534c-10-16.143-25.213-27.396-41.162-35.766
				c-15.752-8.264-31.941-13.281-49.457-14.279c-34.471-1.959-69.76,8.42-99.992,26.002c-28.088,16.336-55.262,41.225-65.965,74.738
				c-2.846,8.91-4.379,18.291-4.379,27.725c28.008-19.898,59.033-35.164,91.254-45.104c31.633-9.762,65.346-14.648,98.107-9.611
				c30.746,4.727,59.274,12.399,80.069,37.778c6.9,8.42,19.444,19.535,24.313,29.471"/>
			<g>
				<path fill="#8A8899" d="M3509.874,780.909c-3.169-28.075-13.908-54.046-27.937-78.359c-6.768-11.731-14.267-22.076-24.726-30.8
					c-10.042-8.376-21.703-14.887-33.695-20.004c-51.487-21.972-113.055-3.75-156.604,27.616
					c-30.412,21.903-54.482,54.735-54.9,93.433c-0.015,1.334,1.638,2.455,2.821,1.619c47.267-33.381,105.664-56.996,164.181-56.449
					c25.047,0.234,52.58,5.136,75.044,16.612c11.271,5.758,20.684,13.919,28.754,23.591c7.759,9.297,17.563,17.201,23.2,28.107
					c1.11,2.148,4.347,0.252,3.238-1.893c-5.544-10.727-15.026-18.922-22.92-27.861c-8.318-9.419-16.788-17.525-27.788-23.785
					c-21.822-12.419-49.137-17.124-73.92-18.356c-30.595-1.522-61.306,4.942-90.113,14.818c-27.89,9.562-54.353,23.176-78.609,39.9
					c-0.99,0.687-1.977,1.379-2.959,2.077c0.94,0.54,1.881,1.079,2.821,1.619c0.64-59.247,55.913-100.755,107.297-117.967
					c28.007-9.382,59.139-12.399,87.693-3.78c13.527,4.083,26.391,10.803,37.946,18.887c11.966,8.371,20.772,19.009,28.212,31.46
					c14.605,24.446,25.997,51.016,29.214,79.515C3506.391,783.284,3510.145,783.311,3509.874,780.909L3509.874,780.909z"/>
			</g>
		</g>
		<g>
			<path fill="#B7B6C0" d="M3525.682,786.434c32.557-70.119,24.993-175.459-22.22-235.919c-2.484-2.688-4.971-4.032-7.455-6.717
				c-53.428-64.491-145.371-71.208-212.908-29.716c30.561-2.497,13.057-7.354,0,0c30.561-2.497,61.154,8.373,87.979,23.41
				c30.705,17.216,58.393,40.99,81.707,68.551c22.172,26.211,41.279,56.8,51.553,90.771c8.863,29.297,19.502,53.518,15.818,88.146"
				/>
			<g>
				<path fill="#8A8899" d="M3527.301,787.38c19.593-42.62,23.747-91.575,17.313-137.673c-3.266-23.401-9.792-46.391-19.823-67.799
					c-4.806-10.256-10.608-20.039-17.304-29.173c-3.496-4.77-8.252-8.054-12.067-12.529c-4.091-4.799-8.535-9.287-13.18-13.548
					c-54.523-50.015-138.416-51.744-200.088-14.196c-1.496,0.911-0.997,3.661,0.946,3.494c0.758-0.065,23.677-1.927,18.112-6.719
					c-4.299-3.7-15.135,1.104-19.059,3.225c-1.593,0.861-0.932,3.632,0.946,3.494c30.813-2.26,60.457,8.376,87.032,23.154
					c25.523,14.192,48.382,32.883,68.513,53.961c20.088,21.032,37.505,44.825,50.559,70.846
					c6.666,13.288,11.303,27.141,15.776,41.27c3.988,12.598,8.223,25.115,11.026,38.047c2.979,13.743,3.666,27.745,2.275,41.726
					c-0.239,2.406,3.513,2.383,3.75,0c2.757-27.722-4.593-53.117-12.942-79.218c-4.251-13.288-8.487-26.363-14.386-39.038
					c-6.069-13.044-13.477-25.441-21.62-37.286c-31.662-46.055-76.614-86.036-128.891-106.825
					c-19.355-7.697-40.235-11.917-61.093-10.387c0.315,1.165,0.631,2.33,0.946,3.494c4.21-2.275,9.073-3.729,13.893-3.631
					c0.24,0.005,0.479,0.024,0.718,0.056c1.025,0.335,1.019-0.467-0.019-2.408c-0.754,0.485-1.867,0.619-2.72,0.819
					c-4.187,0.984-8.545,1.302-12.818,1.669c0.315,1.165,0.631,2.33,0.946,3.494c40.197-24.474,89.464-32.405,134.992-19.788
					c22.943,6.357,44.087,18.294,61.609,34.367c4.294,3.939,8.301,8.181,12.121,12.578c4.557,5.244,9.759,9.275,13.818,15.014
					c6.574,9.298,12.031,19.357,16.713,29.725c13.996,30.991,20.033,65.52,20.348,99.376c0.312,33.572-5.505,67.889-19.584,98.515
					C3523.061,787.668,3526.292,789.575,3527.301,787.38L3527.301,787.38z"/>
			</g>
		</g>
		<g>
			<g>
				<path fill="#8A8899" d="M3531.525,719.899c5.479-26.525-2.58-50.696-11.646-75.386c-4.161-11.331-7.253-23.114-11.802-34.282
					c-3.367-8.269-7.616-16.164-12.191-23.819c-11.069-18.518-24.678-35.815-40.401-50.599
					c-13.742-12.921-30.614-25.091-49.722-27.866c-2.204-0.32-4.419-0.461-6.645-0.487c-2.419-0.028-2.416,3.722,0,3.75
					c19.426,0.227,36.792,12.2,50.804,24.598c16.005,14.161,29.482,31.286,40.801,49.353c4.788,7.643,9.127,15.589,12.786,23.834
					c4.535,10.222,7.219,21.23,11.011,31.74c9.229,25.57,19.095,50.552,13.391,78.168
					C3527.421,721.263,3531.037,722.268,3531.525,719.899L3531.525,719.899z"/>
			</g>
		</g>
		<g>
			<g>
				<path fill="#8A8899" d="M3483.744,570.17c-6.029-17.594-29.603-27.335-46.899-22.776c-2.337,0.616-1.345,4.233,0.996,3.616
					c15.221-4.012,36.934,4.535,42.288,20.158C3480.907,573.441,3484.53,572.465,3483.744,570.17L3483.744,570.17z"/>
			</g>
		</g>
		<g>
			<g>
				<path fill="#8A8899" d="M3504.26,597.323c-10.081-20.017-28.666-31.456-50.992-31.596c-2.419-0.015-2.418,3.735,0,3.75
					c21.061,0.132,38.248,10.863,47.754,29.738C3502.11,601.376,3505.345,599.477,3504.26,597.323L3504.26,597.323z"/>
			</g>
		</g>
		<g>
			<g>
				<path fill="#8A8899" d="M3475.781,735.771c-8.009-21.494-21.035-39.522-41.297-50.81
					c-20.395-11.361-44.272-15.641-66.722-21.033c-2.35-0.565-3.348,3.051-0.996,3.615c21.542,5.176,44.003,9.403,63.871,19.61
					c20.406,10.484,33.627,28.409,41.528,49.613C3473.001,739.012,3476.627,738.041,3475.781,735.771L3475.781,735.771z"/>
			</g>
		</g>
		<g>
			<g>
				<path fill="#8A8899" d="M3781.858,602.595c-32.809-11.995-68.131-15.281-101.461-3.681
					c-30.48,10.609-58.428,30.856-76.203,57.961c-1.33,2.028,1.918,3.905,3.238,1.893c17.322-26.414,44.422-45.666,73.962-56.237
					c32.545-11.646,67.436-8.03,99.468,3.68C3783.138,607.043,3784.11,603.418,3781.858,602.595L3781.858,602.595z"/>
			</g>
		</g>
		<g>
			<g>
				<path fill="#8A8899" d="M3752.692,610.193c-2.178-0.177-6.043-2.352-8.432-3.357c-5.766-2.426-11.553-4.796-17.432-6.935
					c-9.611-3.496-23.328-8.968-33.562-4.973c-2.228,0.869-1.26,4.496,0.996,3.615c10.175-3.972,24.205,2.245,33.719,5.762
					c5.416,2.002,10.743,4.236,16.063,6.476c2.667,1.122,5.705,2.923,8.647,3.162
					C3755.104,614.14,3755.084,610.388,3752.692,610.193L3752.692,610.193z"/>
			</g>
		</g>
		<g>
			<g>
				<path fill="#8A8899" d="M3709.042,611.984c-11.313-7.088-26.351-7.184-39.171-6.391c-2.402,0.148-2.416,3.899,0,3.75
					c12.184-0.754,26.516-0.864,37.278,5.879C3709.206,616.511,3711.086,613.265,3709.042,611.984L3709.042,611.984z"/>
			</g>
		</g>
	</g>
	<g>
		<g>
			<polygon fill="#9594A2" points="3352.682,826.304 3388.661,941.302 3342.805,936.362 			"/>
			<g>
				<path fill="#8A8899" d="M3351.477,826.636c11.992,38.333,23.985,76.666,35.979,114.998c0.401-0.527,0.804-1.055,1.205-1.582
					c-15.285-1.646-30.57-3.293-45.855-4.939c0.417,0.417,0.833,0.833,1.25,1.25c3.292-36.687,6.585-73.372,9.877-110.059
					c0.145-1.606-2.357-1.593-2.5,0c-3.292,36.687-6.585,73.372-9.877,110.059c-0.065,0.731,0.622,1.183,1.25,1.25
					c15.285,1.646,30.57,3.293,45.855,4.939c0.803,0.087,1.43-0.864,1.205-1.582c-11.992-38.333-23.985-76.666-35.979-114.998
					C3353.408,824.438,3350.994,825.093,3351.477,826.636z"/>
			</g>
		</g>
		<g>
			<g>
				<polygon fill="#D9D8DE" points="3350.014,962.522 3152.958,948.142 3194.807,688.72 3383.788,690.751 				"/>
				<g>
					<path fill="#8A8899" d="M3350.014,961.272c-49.242-3.594-98.485-7.188-147.729-10.781c-16.442-1.199-32.885-2.399-49.328-3.6
						c0.401,0.527,0.804,1.055,1.205,1.582c7.107-44.058,14.215-88.115,21.322-132.174c4.811-29.815,9.62-59.632,14.43-89.448
						c1.531-9.488,3.062-18.978,4.592-28.466c0.398-2.469,0.797-4.938,1.195-7.406c0.087-0.537,0.174-1.075,0.26-1.612
						c0.163-1.012-1.793,0.596-0.904,0.605c51.265,0.551,102.53,1.102,153.796,1.652c11.645,0.126,23.29,0.251,34.935,0.376
						c-0.417-0.417-0.833-0.833-1.25-1.25c-5.403,43.478-10.806,86.954-16.209,130.432c-5.831,46.922-11.662,93.845-17.493,140.767
						c-0.023,0.19-0.048,0.382-0.071,0.573c-0.198,1.598,2.304,1.578,2.5,0c5.403-43.478,10.806-86.954,16.209-130.432
						c5.831-46.922,11.662-93.845,17.493-140.767c0.023-0.19,0.048-0.382,0.071-0.573c0.085-0.683-0.633-1.243-1.25-1.25
						c-49.721-0.534-99.441-1.069-149.163-1.604c-13.272-0.143-26.545-0.285-39.817-0.428c-0.51-0.006-1.119,0.381-1.205,0.918
						c-7.107,44.058-14.215,88.115-21.322,132.174c-6.843,42.416-13.686,84.832-20.527,127.248
						c-0.136,0.837,0.334,1.519,1.205,1.582c49.242,3.594,98.485,7.188,147.729,10.781c16.442,1.199,32.885,2.399,49.328,3.6
						C3351.624,963.89,3351.612,961.389,3350.014,961.272z"/>
				</g>
			</g>
			<g>
				<polygon fill="#B7B6C0" points="3328.413,941.298 3170.157,934.688 3202.366,714.687 3352.547,714.87 				"/>
				<g>
					<path fill="#8A8899" d="M3328.413,940.048c-49.147-2.053-98.294-4.105-147.441-6.157c-3.604-0.151-7.21-0.302-10.814-0.452
						c0.401,0.527,0.804,1.055,1.205,1.582c6.938-47.394,13.878-94.787,20.816-142.182c3.486-23.814,6.973-47.63,10.459-71.445
						c0.289-1.968,0.577-3.936,0.865-5.904c0.173-1.185-0.959,0.447-0.997,0.447c0.761,0.001,1.521,0.002,2.282,0.003
						c9.783,0.012,19.566,0.023,29.35,0.036c39.471,0.048,78.94,0.097,118.41,0.145c-0.417-0.417-0.833-0.833-1.25-1.25
						c-5.036,47.246-10.072,94.492-15.107,141.737c-3.01,28.23-6.019,56.461-9.027,84.69c-0.171,1.603,2.331,1.586,2.5,0
						c5.036-47.246,10.072-94.492,15.107-141.737c3.01-28.23,6.019-56.461,9.027-84.69c0.072-0.68-0.623-1.249-1.25-1.25
						c-48.226-0.059-96.451-0.118-144.676-0.177c-1.836-0.002-3.671-0.005-5.506-0.007c-0.504-0.001-1.126,0.377-1.205,0.918
						c-6.938,47.394-13.878,94.787-20.816,142.182c-3.798,25.939-7.595,51.88-11.393,77.82c-0.12,0.816,0.321,1.545,1.205,1.582
						c49.147,2.053,98.294,4.105,147.441,6.157c3.604,0.151,7.21,0.302,10.814,0.452
						C3330.025,942.615,3330.019,940.115,3328.413,940.048z"/>
				</g>
			</g>
			<g>
				<path fill="#EFEFF1" d="M3295.215,747.661c-25.287,1.064-22.91,11.235-17.777,18.545c-3.831,6.639-6.166,15.458-6.166,25.137
					c0,20.645,10.627,37.383,23.732,37.383c3.241,0,6.33-1.026,9.145-2.88c2.854,4.306,5.918,7.616,9.129,9.181
					c16.381,7.98,19.32-12.182,19.32-12.182s-1.875,5.422-10.082,3.781c-4.199-0.84,6.303-2.1,13.443-41.164
					C3343.1,746.399,3295.215,747.661,3295.215,747.661z"/>
				<g>
					<path fill="#8A8899" d="M3295.215,746.411c-7.062,0.368-20.115,0.9-22.17,9.747c-0.58,2.494,0.286,5.08,1.314,7.323
						c1.032,2.249,1.838,2.293,0.634,4.683c-1.707,3.39-2.797,7.066-3.656,10.747c-3.093,13.243-1.175,28.486,6.159,40.038
						c6.104,9.616,17.027,14.124,27.283,7.976c-0.57-0.149-1.141-0.299-1.71-0.448c4.936,7.193,13.95,15.305,23.128,10.018
						c4.416-2.543,6.865-8.488,7.605-13.317c0.244-1.59-1.827-2.184-2.41-0.664c-1.223,3.186-5.842,3.488-8.739,2.866
						c-0.16-0.034-0.244,1.342,0.601,0.064c2.142-3.24,4.024-6.518,5.594-10.082c3.384-7.683,5.487-15.89,7.241-24.073
						c1.642-7.662,2.776-15.321,0.399-22.951C3331.362,751.88,3310.682,746.049,3295.215,746.411c-1.609,0.038-1.613,2.538,0,2.5
						c7.048-0.165,14.307,1.16,20.925,3.512c5.901,2.098,11.384,5.618,15.043,10.77c4.978,7.006,4.727,15.763,3.217,23.828
						c-2.497,13.346-6.23,26.092-13.56,37.553c-0.888,1.389-0.521,2.793,1.148,3.216c4.334,1.099,10.045,0.001,11.814-4.612
						c-0.804-0.222-1.606-0.442-2.41-0.664c-0.498,3.243-1.754,6.398-3.609,9.094c-6.684,9.706-18.051,0.172-22.556-6.392
						c-0.382-0.557-1.094-0.817-1.71-0.448c-13.061,7.829-23.592-3.766-27.965-15.34c-5.093-13.476-3.98-30.002,2.964-42.59
						c0.206-0.372,0.253-0.894,0-1.262c-1.938-2.824-4.142-6.599-2.652-10.089c2.635-6.177,14.044-6.299,19.351-6.575
						C3296.819,748.827,3296.827,746.327,3295.215,746.411z"/>
				</g>
			</g>
			<g>
				<ellipse fill="#B7B6C0" cx="3297.733" cy="786.724" rx="2.73" ry="5.461"/>
				<g>
					<path fill="#8A8899" d="M3293.752,786.724c0.079,2.345,0.819,6.711,3.98,6.711s3.901-4.366,3.98-6.711
						c0.079-2.344-0.925-6.711-3.98-6.711C3294.572,780.013,3293.832,784.379,3293.752,786.724c-0.055,1.613,2.446,1.607,2.5,0
						c0.037-1.109,0.124-3.667,1.442-4.206c1.089-0.444,1.506,3.826,1.519,4.206c0.036,1.086-0.174,3.688-1.442,4.206
						c-1.089,0.444-1.506-3.826-1.519-4.206C3296.199,785.116,3293.698,785.11,3293.752,786.724z"/>
				</g>
			</g>
			<g>
				<ellipse fill="#B7B6C0" cx="3285.973" cy="783.78" rx="2.73" ry="5.461"/>
				<g>
					<path fill="#8A8899" d="M3281.993,783.78c0.079,2.345,0.819,6.711,3.98,6.711s3.901-4.366,3.98-6.711
						c0.079-2.344-0.925-6.711-3.98-6.711C3282.812,777.069,3282.072,781.436,3281.993,783.78c-0.055,1.613,2.446,1.607,2.5,0
						c0.037-1.109,0.124-3.667,1.442-4.206c1.089-0.444,1.506,3.826,1.519,4.206c0.036,1.086-0.174,3.688-1.442,4.206
						c-1.089,0.444-1.506-3.826-1.519-4.206C3284.439,782.173,3281.938,782.167,3281.993,783.78z"/>
				</g>
			</g>
			<g>
				<path fill="#D2D1D8" d="M3284.862,934.304c0,0-33.828-87.471-13.531-95.686s41.562-1.934,45.428,6.283
					c3.865,8.215-5.801,89.885-5.801,89.885L3284.862,934.304z"/>
				<g>
					<path fill="#8A8899" d="M3286.067,933.972c-8.951-23.185-17.501-48.18-19.7-73.033c-0.502-5.668-0.84-12.273,1.74-17.526
						c1.47-2.992,4.01-3.814,7.042-4.857c7.655-2.633,16.04-3.118,24.006-1.881c7.238,1.124,16.487,4.237,17.116,12.536
						c0.467,6.146,0.037,12.402-0.301,18.544c-1.231,22.394-3.631,44.764-6.263,67.032c0.417-0.417,0.833-0.833,1.25-1.25
						c-8.698-0.161-17.397-0.321-26.096-0.482c-1.613-0.03-1.61,2.47,0,2.5c8.698,0.161,17.397,0.321,26.096,0.482
						c0.741,0.014,1.171-0.584,1.25-1.25c3.054-25.835,6.212-51.956,6.692-77.984c0.07-3.81,0.57-8.704-0.972-12.318
						c-3.212-7.528-14.341-9.808-21.414-10.679c-6.193-0.762-12.5-0.062-18.547,1.341c-3.467,0.805-7.517,1.796-10.154,4.378
						c-3.262,3.192-3.894,8.469-4.152,12.771c-1.012,16.831,4.485,34.538,9.222,50.473c3.191,10.738,6.738,21.416,10.774,31.869
						C3284.231,936.123,3286.649,935.478,3286.067,933.972z"/>
				</g>
			</g>
			<g>
				<path fill="#EFEFF1" d="M3255.655,855.288c-1.168-2.871-4.107-17.992-4.107-17.992s-0.783-0.058-2.052-0.083l-0.485-14.081
					l-6.236,14.348c-4.859,0.504-10.367,1.855-12.646,5.277c-0.842,1.258-12.568-8.545-13.023-6.723
					c-0.418,1.682,9.242,15.965,7.562,21.424c-1.682,5.459-26.883,76.865-26.883,76.865l58.328,3.474
					c-4.717-31.049-4.09-33.614-6.788-44.085c3.712,1.956,9.05,3.662,16.751,4.512c25.145,2.773,37.473-38.682,37.473-38.682
					S3256.151,856.499,3255.655,855.288z"/>
				<g>
					<path fill="#8A8899" d="M3256.86,854.956c-2.099-5.701-2.947-12.044-4.107-17.992c-0.109-0.562-0.679-0.888-1.205-0.918
						c-0.684-0.044-1.367-0.072-2.052-0.083c0.417,0.417,0.833,0.833,1.25,1.25c-0.162-4.693-0.323-9.388-0.485-14.081
						c-0.039-1.135-1.801-1.847-2.329-0.631c-1.04,2.392-2.079,4.782-3.118,7.174c-0.715,1.644-1.43,3.288-2.144,4.932
						c-0.738,1.698-0.485,1.653-1.701,1.846c-2.503,0.396-5.161,0.846-7.435,2.034c-1.007,0.526-3.812,3.105-4.64,2.677
						c-3.321-1.718-6.188-4.222-9.492-5.981c-6.265-3.337-1.454,6.131-0.605,7.797c2.045,4.02,4.617,8.468,4.816,13.073
						c0.066,1.532-0.926,3.42-1.407,4.83c-8.339,24.414-17.019,48.716-25.604,73.044c-0.008,0.021-0.015,0.043-0.022,0.065
						c-0.286,0.809,0.447,1.537,1.205,1.582c19.442,1.158,38.886,2.315,58.328,3.474c0.889,0.053,1.318-0.833,1.205-1.582
						c-2.208-14.6-3.129-29.741-6.788-44.085c-0.612,0.471-1.224,0.94-1.836,1.411c7.507,3.771,17.202,6.067,25.52,4.069
						c6.812-1.637,12.381-6.735,16.676-12.016c6.296-7.739,10.995-17.416,13.864-26.971c0.246-0.819-0.417-1.531-1.205-1.582
						c-7.262-0.467-14.521-0.979-21.777-1.522c-5.354-0.401-10.706-0.828-16.052-1.325c-2.117-0.197-4.232-0.413-6.344-0.671
						c-0.71-0.086-3.028-0.577-2.836-0.369c-1.096-1.187-2.859,0.586-1.768,1.768c1.229,1.332,4.841,1.137,6.448,1.317
						c5.514,0.621,11.053,1.043,16.584,1.477c8.576,0.673,17.159,1.274,25.744,1.826c-0.401-0.527-0.804-1.055-1.205-1.582
						c-2.435,8.105-6.301,15.967-11.059,22.944c-3.715,5.447-8.471,10.302-14.477,13.153c-8.165,3.876-19.175,1.183-26.853-2.675
						c-0.97-0.487-2.118,0.305-1.836,1.411c3.657,14.34,4.58,29.487,6.788,44.085c0.401-0.527,0.804-1.055,1.205-1.582
						c-19.442-1.158-38.886-2.315-58.328-3.474c0.401,0.527,0.804,1.055,1.205,1.582c8.479-24.023,17.011-48.031,25.29-72.124
						c1.712-4.983,2.168-8.118,0.149-13.357c-1.442-3.744-3.414-7.266-5.188-10.856c-0.324-0.656-0.624-1.319-0.858-2.014
						c0.403,1.195-1.702,0.259,0.354,1.354c1.85,0.984,3.57,2.25,5.31,3.41c1.429,0.953,4.281,3.537,6.243,2.997
						c0.214-0.059,0.579-0.247,0.722-0.425c1.339-1.664,2.82-2.596,4.804-3.411c2.064-0.849,6.395-0.418,7.843-1.866
						c1.436-1.436,2.134-4.712,2.925-6.532c1.169-2.689,2.338-5.379,3.507-8.068c-0.776-0.21-1.553-0.421-2.329-0.631
						c0.162,4.693,0.323,9.388,0.485,14.081c0.024,0.699,0.551,1.227,1.25,1.25c2.829,0.096,0.979-0.16,0.905-0.535
						c0.093,0.474,0.188,0.948,0.281,1.422c0.344,1.727,0.699,3.45,1.059,5.173c0.771,3.688,1.403,7.552,2.709,11.098
						C3255.001,857.12,3257.418,856.472,3256.86,854.956z"/>
				</g>
			</g>
			<g>
				<ellipse fill="#B7B6C0" cx="3238.527" cy="853.679" rx="2.729" ry="5.459"/>
				<g>
					<path fill="#8A8899" d="M3240.006,853.679c-0.037,1.109-0.124,3.665-1.442,4.204c-1.088,0.444-1.504-3.824-1.517-4.204
						c-0.036-1.085,0.172-3.688,1.44-4.206C3239.577,849.028,3239.994,853.299,3240.006,853.679c0.054,1.607,2.555,1.613,2.5,0
						c-0.079-2.345-0.819-6.711-3.98-6.711s-3.899,4.367-3.979,6.711s0.923,6.709,3.979,6.709c3.161,0,3.901-4.364,3.98-6.709
						C3242.561,852.065,3240.06,852.071,3240.006,853.679z"/>
				</g>
			</g>
			<g>
				<ellipse fill="#B7B6C0" cx="3250.817" cy="850.001" rx="2.73" ry="5.461"/>
				<g>
					<path fill="#8A8899" d="M3252.297,850.001c-0.037,1.109-0.124,3.667-1.442,4.206c-0.915,0.374-1.457-3.103-1.493-3.465
						c-0.155-1.515,0.113-3.109,0.865-4.434C3251.4,844.244,3252.28,849.484,3252.297,850.001c0.054,1.607,2.555,1.613,2.5,0
						c-0.067-1.999-0.869-7.129-3.98-6.711c-3.162,0.425-3.89,4.016-3.98,6.711c-0.079,2.345,0.924,6.711,3.98,6.711
						c3.161,0,3.901-4.366,3.98-6.711C3254.852,848.388,3252.351,848.394,3252.297,850.001z"/>
				</g>
			</g>
		</g>
	</g>
	<g>
		<path fill="#9594A2" d="M2974.463,925.206c0,0,36.816,9.062,53.809,10.195c31.361,2.092,55.127,2.416,66.148-7.914
			c4.141-3.883,24.975-73.789-36.326-74.924C2990.889,851.317,2974.463,925.206,2974.463,925.206z"/>
		<g>
			<path fill="#8A8899" d="M2974.131,926.411c15.416,3.787,31.023,7.283,46.756,9.451c12.026,1.657,24.41,1.98,36.537,1.96
				c10.079-0.017,20.763-0.574,30.168-4.535c3.914-1.648,7.688-3.873,9.414-7.851c1.666-3.842,2.717-7.955,3.576-12.042
				c2.484-11.816,2.849-24.614-1.072-36.157c-11.587-34.107-58.963-29.979-83.904-14.657c-21.17,13.005-35.337,36.648-41.82,60.226
				c-0.189,0.686-0.372,1.374-0.527,2.068c-0.353,1.57,2.058,2.237,2.41,0.664c4.67-20.812,16.972-41.454,33.267-55.089
				c24.531-20.525,78.904-28.013,89.291,11.189c2.823,10.656,1.944,22.289-0.456,32.937c-0.779,3.456-1.734,6.969-3.191,10.209
				c-2.188,4.862-9.004,6.876-13.712,8.158c-10.092,2.749-21.033,2.535-31.398,2.287c-11.268-0.271-22.567-0.857-33.703-2.645
				c-13.763-2.209-27.436-5.26-40.97-8.584C2973.23,923.616,2972.566,926.027,2974.131,926.411z"/>
		</g>
	</g>
	<g>
		<path fill="#9594A2" d="M3012.196,897.124c0,0,31.15,13.584,46.373,3.367c15.225-10.217,15.209-37.617,15.209-37.617
			s5.34-96.574,1.336-100.58c-5.01-5.008-50.289-5.43-52.43,0.838C3019.928,771.196,3003.495,888.042,3012.196,897.124z"/>
		<g>
			<path fill="#8A8899" d="M3011.565,898.203c12.86,5.562,29.791,10.366,43.483,5.477c14.943-5.337,19.246-25.246,19.934-39.195
				c1.153-23.415,2.311-46.838,2.751-70.28c0.13-6.906,0.199-13.819,0.007-20.726c-0.097-3.496,0.097-7.635-1.112-10.983
				c-1.272-3.524-8.015-3.833-10.97-4.241c-8.13-1.123-16.444-1.221-24.63-0.838c-5.613,0.262-12.901,0.331-17.861,3.379
				c-2.275,1.397-2.384,4.793-2.826,7.146c-2.384,12.697-4.038,25.551-5.682,38.359c-2.497,19.451-4.656,38.985-5.761,58.569
				c-0.411,7.303-0.692,14.653-0.282,21.962c0.194,3.481,0.233,8.389,2.696,11.176c1.069,1.211,2.831-0.564,1.768-1.768
				c-2.155-2.439-1.884-7.674-2.03-10.659c-0.322-6.587-0.042-13.209,0.299-19.788c0.889-17.159,2.735-34.276,4.794-51.329
				c1.726-14.307,3.62-28.616,6.065-42.82c0.344-1.998,0.395-7.359,2.221-8.69c5.093-3.714,14.823-3.038,20.749-3.185
				c8.11-0.201,16.516,0.004,24.476,1.694c4.756,1.009,4.985,2.155,5.332,6.682c1.062,13.875,0.276,28.004-0.155,41.89
				c-0.458,14.715-1.108,29.425-1.847,44.128c-0.395,7.84-0.569,15.661-2.306,23.357c-1.506,6.672-4.159,13.208-8.714,18.386
				c-5.089,5.787-12.391,7.231-19.762,7.125c-9.878-0.142-20.322-3.07-29.375-6.985
				C3011.363,895.412,3010.088,897.564,3011.565,898.203z"/>
		</g>
	</g>
	<g>
		<path fill="#C7C6CE" d="M3022.43,804.333c0.168-0.65,4.174-31.803,7.289-36.252c0.361-0.516,35.158-2.227,36.049,0.443
			c1.193,3.582-1.061,37.773-3.561,38.273C3057.297,807.78,3021.493,807.964,3022.43,804.333z"/>
		<g>
			<path fill="#8A8899" d="M3023.635,804.665c1-5.166,1.516-10.456,2.365-15.651c1.04-6.359,1.571-14.188,4.603-19.989
				c-0.235,0.449,0.036,0.134,0.904,0.053c1.226-0.114,2.456-0.186,3.685-0.259c3.613-0.217,7.233-0.342,10.852-0.43
				c5.827-0.142,12.994-0.995,18.641,0.809c1.282,0.41-0.282,15.816-0.402,17.526c-0.4,5.726-0.02,13.803-2.724,19.032
				c-0.2,0.387-5.709,0.271-6.459,0.296c-3.934,0.132-7.873,0.127-11.809,0.067c-1.694-0.024-19.699-0.585-19.61-1.786
				c0.12-1.609-2.381-1.598-2.5,0c-0.468,6.285,31.579,4.313,35.551,4.159c4.787-0.186,6.993,0.071,8.074-4.932
				c1.616-7.48,1.968-15.36,2.346-22.98c0.135-2.72,1.841-11.784-1.217-13.547c-1.641-0.946-4.114-0.888-5.933-1.015
				c-3.973-0.278-7.976-0.227-11.955-0.169c-6.05,0.087-12.275,0.083-18.279,0.928c-3.479,0.49-4.413,11.773-4.884,14.226
				c-1.466,7.624-2.186,15.386-3.658,22.998C3020.92,805.575,3023.33,806.247,3023.635,804.665z"/>
		</g>
	</g>
	<g>
		<path fill="#B7B6C0" d="M3035.602,849.659c7.613,0.516,15.223,1.047,22.848,1.295c0.455-4.148,0.869-8.244,1.219-12.072
			c-8.006-0.938-16.021-2.014-24.078-2.342c-5.65-0.232-11.664-0.486-17.434,0.203c-0.32,3.793-0.611,7.799-0.871,11.807
			C3023.364,848.3,3029.799,849.265,3035.602,849.659z"/>
		<g>
			<path fill="#8A8899" d="M3035.602,850.909c7.611,0.517,15.223,1.024,22.848,1.295c0.735,0.026,1.179-0.593,1.25-1.25
				c0.437-4.021,0.845-8.045,1.219-12.072c0.068-0.735-0.625-1.176-1.25-1.25c-13.703-1.62-27.704-3.565-41.512-2.139
				c-0.723,0.075-1.189,0.515-1.25,1.25c-0.325,3.934-0.611,7.868-0.871,11.807c-0.044,0.67,0.602,1.265,1.25,1.25
				C3023.424,849.665,3029.493,850.444,3035.602,850.909c1.608,0.122,1.597-2.379,0-2.5c-6.109-0.465-12.178-1.244-18.316-1.109
				c0.417,0.417,0.833,0.833,1.25,1.25c0.26-3.938,0.546-7.873,0.871-11.807c-0.417,0.417-0.833,0.833-1.25,1.25
				c13.808-1.427,27.809,0.519,41.512,2.139c-0.417-0.417-0.833-0.833-1.25-1.25c-0.374,4.027-0.782,8.051-1.219,12.072
				c0.417-0.417,0.833-0.833,1.25-1.25c-7.625-0.271-15.236-0.778-22.848-1.295C3033.992,848.3,3034.002,850.801,3035.602,850.909z"
				/>
		</g>
	</g>
	<g>
		<path fill="#B7B6C0" d="M3056.012,870.644c0.514-3.684,1.027-7.654,1.518-11.711c-6.666-0.24-13.318-0.689-19.975-1.141
			c-4.559-0.311-9.119-0.627-13.686-0.807c-2.244-0.088-4.705-0.387-7.072-0.348c-0.195,3.471-0.365,6.824-0.514,9.918
			C3029.417,869.507,3042.661,870.798,3056.012,870.644z"/>
		<g>
			<path fill="#8A8899" d="M3057.217,870.976c0.554-4.01,1.072-8.024,1.562-12.043c0.085-0.696-0.634-1.226-1.25-1.25
				c-13.578-0.527-27.146-2.102-40.732-2.295c-0.71-0.01-1.213,0.577-1.25,1.25c-0.184,3.306-0.354,6.611-0.514,9.918
				c-0.025,0.529,0.397,1.092,0.918,1.205c13.191,2.884,26.56,4.219,40.061,4.133c1.611-0.011,1.612-2.511,0-2.5
				c-7.624,0.049-15.206-0.337-22.782-1.191c-4.315-0.487-8.598-1.225-12.858-2.054c-2.281-0.443-2.799-0.42-2.682-2.768
				c0.111-2.248,0.232-4.496,0.357-6.743c-0.417,0.417-0.833,0.833-1.25,1.25c13.586,0.193,27.154,1.768,40.732,2.295
				c-0.417-0.417-0.833-0.833-1.25-1.25c-0.463,3.797-0.95,7.59-1.473,11.379C3054.589,871.887,3056.999,872.567,3057.217,870.976z"
				/>
		</g>
	</g>
	<g>
		<path fill="#B7B6C0" d="M3015.922,874.661c-0.219,5.252-0.328,8.625-0.328,8.625c0,5.367,31.896,10.352,36.492,7.121
			c0.668-0.471,1.658-5.076,2.732-11.762C3041.752,878.716,3028.768,877.425,3015.922,874.661z"/>
		<g>
			<path fill="#8A8899" d="M3014.672,874.661c-0.171,4.163-1.838,9.257,2.071,11.958c4.582,3.167,11.275,4.037,16.616,4.923
				c5.49,0.911,11.318,1.637,16.862,0.812c5.503-0.819,5.118-9.209,5.802-13.376c0.13-0.788-0.327-1.582-1.205-1.582
				c-12.988,0.005-25.848-1.274-38.564-3.939c-1.572-0.33-2.242,2.08-0.664,2.41c12.929,2.71,26.019,4.035,39.229,4.029
				c-0.401-0.527-0.804-1.055-1.205-1.582c-0.534,3.254-1.075,6.509-1.888,9.706c-0.515,2.024-1.938,1.951-3.816,2.097
				c-4.598,0.358-9.354-0.283-13.886-0.985c-4.483-0.694-8.975-1.694-13.228-3.291c-0.882-0.33-3.808-1.347-3.952-2.554
				c-0.329-2.744,0.216-5.876,0.328-8.625C3017.239,873.049,3014.738,873.055,3014.672,874.661z"/>
		</g>
	</g>
	<g>
		<path fill="#B7B6C0" d="M3060.321,830.956c0.494-6.918,0.623-11.986,0.156-13.252c-1.154-3.131-33.758-4.734-38.209-3.844
			c-1.295,0.258-2.4,6.244-3.318,14.6C3032.543,826.913,3047.131,829.407,3060.321,830.956z"/>
		<g>
			<path fill="#8A8899" d="M3061.571,830.956c0.245-3.59,2.797-13.536-1.991-15.35c-5.556-2.104-12.184-2.226-18.034-2.661
				c-6.008-0.448-12.162-0.875-18.185-0.469c-5.763,0.389-5.202,11.962-5.661,15.983c-0.072,0.631,0.625,1.313,1.25,1.25
				c13.868-1.397,27.629,0.851,41.371,2.496c1.599,0.191,1.58-2.311,0-2.5c-13.742-1.646-27.503-3.894-41.371-2.496
				c0.417,0.417,0.833,0.833,1.25,1.25c0.445-3.899,0.902-7.808,1.863-11.619c0.602-2.386,2.196-1.941,4.26-1.971
				c5.074-0.071,10.163,0.222,15.223,0.575c4.885,0.341,9.81,0.775,14.609,1.776c1.744,0.364,3.187,0.387,3.326,2.327
				c0.271,3.769-0.153,7.65-0.41,11.407C3058.961,832.566,3061.461,832.556,3061.571,830.956z"/>
		</g>
	</g>
	<g>
		<path fill="#B7B6C0" d="M3095.956,927.472c0.627-0.639,16.906-45.818-11.045-62.303c-11.045-6.514-56.379,62.848-52.676,69.949
			C3035.633,941.632,3079.53,944.181,3095.956,927.472z"/>
		<g>
			<path fill="#8A8899" d="M3097.035,928.103c1.974-2.869,2.553-7.634,3.3-10.922c1.719-7.567,2.5-15.396,1.97-23.144
				c-0.542-7.904-2.883-16.158-7.984-22.368c-3.023-3.681-8.026-9.497-13.397-7.757c-4.637,1.504-8.562,5.728-11.842,9.119
				c-5.283,5.462-9.961,11.525-14.446,17.647c-8.506,11.607-17.039,24.146-22.403,37.579c-1.002,2.51-2.407,5.901-0.498,8.285
				c3.037,3.791,10.887,4.061,15.205,4.48c16.369,1.592,37.578-0.615,49.901-12.668c1.154-1.129-0.615-2.896-1.768-1.768
				c-13.006,12.72-37.026,14.321-54.031,11.112c-2.408-0.455-5.351-1.038-7.279-2.663c-1.107-0.933-0.184-3.013,0.163-4.122
				c1.822-5.834,5.117-11.33,8.169-16.583c8.134-14.005,17.574-27.775,28.755-39.533c2.978-3.132,7.553-8.481,12.244-8.809
				c3.083-0.215,6.916,4.51,8.773,6.611c3.368,3.81,5.388,8.646,6.67,13.506c2.316,8.775,1.657,18.298,0.058,27.133
				c-0.719,3.971-1.35,10.158-3.717,13.601C3093.959,928.173,3096.127,929.422,3097.035,928.103z"/>
		</g>
	</g>
</g>
</svg>
