<?xml version="1.0" encoding="utf-8"?>
<!-- Generator: Adobe Illustrator 16.0.4, SVG Export Plug-In . SVG Version: 6.00 Build 0)  -->
<!DOCTYPE svg PUBLIC "-//W3C//DTD SVG 1.1//EN" "http://www.w3.org/Graphics/SVG/1.1/DTD/svg11.dtd">
<svg version="1.1" id="shelfs" xmlns="http://www.w3.org/2000/svg" xmlns:xlink="http://www.w3.org/1999/xlink" x="0px" y="0px"
	 width="3979.569px" height="1928px" viewBox="0 0 3979.569 1928" enable-background="new 0 0 3979.569 1928" xml:space="preserve">
<g>
	<rect x="3038.616" y="142.55" fill="#F4F5F7" width="73.242" height="248.033"/>
	<rect x="3130.17" y="142.554" fill="#F4F5F7" width="73.238" height="248.029"/>
	<rect x="3212.031" y="142.554" fill="#F4F5F7" width="73.242" height="248.029"/>
	<rect x="3300.966" y="142.554" fill="#F4F5F7" width="73.24" height="248.029"/>
	<rect x="2776.057" y="94.618" fill="#F4F5F7" width="1008.467" height="23.55"/>
	<rect x="2776.057" y="405.483" fill="#F4F5F7" width="1008.467" height="23.553"/>
	<rect x="2769.864" y="710.289" fill="#F4F5F7" width="1008.464" height="23.555"/>
	<rect x="2772.696" y="1039.324" fill="#F4F5F7" width="1008.463" height="23.551"/>
	<rect x="2770.548" y="94.982" fill="#F4F5F7" width="23.972" height="1183.985"/>
	<rect x="3759.885" y="96.586" fill="#F4F5F7" width="23.979" height="1182.381"/>
	<g>
		<polygon fill="#F4F5F7" points="2955.912,399.662 2885.193,381.037 2951.194,141.543 3021.915,160.167 		"/>
		<path fill="#FFFFFF" d="M2944.561,357.334c-2.241,8.129-10.798,12.942-19.11,10.749c-8.314-2.189-13.238-10.55-10.999-18.676
			c2.242-8.125,10.798-12.942,19.109-10.752C2941.875,340.844,2946.799,349.204,2944.561,357.334z"/>
	</g>
	<path fill="#FFFFFF" d="M3086.523,352.596c0,8.418-6.979,15.243-15.588,15.243s-15.591-6.824-15.591-15.243
		c0-8.414,6.981-15.239,15.591-15.239S3086.523,344.182,3086.523,352.596z"/>
	<path fill="#FFFFFF" d="M3180.065,352.596c0,8.418-6.98,15.243-15.588,15.243c-8.613,0-15.592-6.824-15.592-15.243
		c0-8.414,6.979-15.239,15.592-15.239C3173.084,337.357,3180.065,344.182,3180.065,352.596z"/>
	<path fill="#FFFFFF" d="M3264.698,352.596c0,8.418-6.981,15.243-15.59,15.243c-8.61,0-15.589-6.824-15.589-15.243
		c0-8.414,6.979-15.239,15.589-15.239C3257.716,337.357,3264.698,344.182,3264.698,352.596z"/>
	<path fill="#FFFFFF" d="M3349.331,352.596c0,8.418-6.981,15.243-15.59,15.243c-8.609,0-15.59-6.824-15.59-15.243
		c0-8.414,6.98-15.239,15.59-15.239C3342.349,337.357,3349.331,344.182,3349.331,352.596z"/>
	<rect x="3387.589" y="144.569" fill="#F4F5F7" width="73.242" height="248.033"/>
	<rect x="3479.14" y="144.569" fill="#F4F5F7" width="73.243" height="248.033"/>
	<rect x="3561.003" y="144.569" fill="#F4F5F7" width="73.241" height="248.033"/>
	<rect x="3649.94" y="144.569" fill="#F4F5F7" width="73.239" height="248.033"/>
	<path fill="#FFFFFF" d="M3435.499,354.615c0,8.418-6.981,15.238-15.59,15.238s-15.59-6.82-15.59-15.238
		c0-8.413,6.981-15.238,15.59-15.238S3435.499,346.202,3435.499,354.615z"/>
	<path fill="#FFFFFF" d="M3529.041,354.615c0,8.418-6.982,15.238-15.591,15.238c-8.612,0-15.593-6.82-15.593-15.238
		c0-8.413,6.98-15.238,15.593-15.238C3522.058,339.377,3529.041,346.202,3529.041,354.615z"/>
	<path fill="#FFFFFF" d="M3613.672,354.615c0,8.418-6.982,15.238-15.592,15.238s-15.591-6.82-15.591-15.238
		c0-8.413,6.981-15.238,15.591-15.238S3613.672,346.202,3613.672,354.615z"/>
	<path fill="#FFFFFF" d="M3698.304,354.615c0,8.418-6.981,15.238-15.59,15.238c-8.612,0-15.59-6.82-15.59-15.238
		c0-8.413,6.978-15.238,15.59-15.238C3691.323,339.377,3698.304,346.202,3698.304,354.615z"/>
	<rect x="3468.376" y="774.369" fill="#F4F5F7" width="73.238" height="248.037"/>
	<rect x="3376.823" y="774.373" fill="#F4F5F7" width="73.241" height="248.033"/>
	<rect x="3294.96" y="774.373" fill="#F4F5F7" width="73.238" height="248.033"/>
	<rect x="3206.024" y="774.373" fill="#F4F5F7" width="73.244" height="248.033"/>
	<g>
		<polygon fill="#F4F5F7" points="3624.32,1031.484 3695.039,1012.861 3629.034,773.367 3558.315,791.992 		"/>
		<path fill="#FFFFFF" d="M3635.671,989.156c2.24,8.127,10.797,12.939,19.11,10.752c8.312-2.189,13.239-10.553,10.996-18.682
			c-2.238-8.123-10.795-12.941-19.105-10.756C3638.358,972.666,3633.433,981.029,3635.671,989.156z"/>
	</g>
	<path fill="#FFFFFF" d="M3493.705,984.42c0,8.416,6.981,15.242,15.595,15.242c8.608,0,15.589-6.826,15.589-15.242
		s-6.98-15.236-15.589-15.236C3500.686,969.184,3493.705,976.004,3493.705,984.42z"/>
	<ellipse fill="#FFFFFF" cx="3415.757" cy="984.42" rx="15.59" ry="15.242"/>
	<path fill="#FFFFFF" d="M3315.535,984.42c0,8.416,6.98,15.242,15.591,15.242c8.607,0,15.589-6.826,15.589-15.242
		s-6.981-15.236-15.589-15.236C3322.515,969.184,3315.535,976.004,3315.535,984.42z"/>
	<path fill="#FFFFFF" d="M3230.902,984.42c0,8.416,6.979,15.242,15.592,15.242c8.608,0,15.589-6.826,15.589-15.242
		s-6.98-15.236-15.589-15.236C3237.88,969.184,3230.902,976.004,3230.902,984.42z"/>
	<rect x="3119.402" y="776.391" fill="#F4F5F7" width="73.243" height="248.035"/>
	<rect x="3027.847" y="776.395" fill="#F4F5F7" width="73.242" height="248.031"/>
	<rect x="2945.987" y="776.395" fill="#F4F5F7" width="73.237" height="248.031"/>
	<rect x="2857.052" y="776.395" fill="#F4F5F7" width="73.239" height="248.031"/>
	<path fill="#FFFFFF" d="M3144.736,986.438c0,8.418,6.976,15.242,15.589,15.242c8.609,0,15.59-6.824,15.59-15.242
		s-6.98-15.238-15.59-15.238C3151.711,971.199,3144.736,978.02,3144.736,986.438z"/>
	<ellipse fill="#FFFFFF" cx="3066.783" cy="986.438" rx="15.589" ry="15.242"/>
	<ellipse fill="#FFFFFF" cx="2982.15" cy="986.438" rx="15.589" ry="15.242"/>
	<ellipse fill="#FFFFFF" cx="2897.518" cy="986.438" rx="15.591" ry="15.242"/>
	<rect x="3645.265" y="451.397" fill="#F4F5F7" width="73.24" height="248.033"/>
	<rect x="3563.402" y="451.397" fill="#F4F5F7" width="73.239" height="248.033"/>
	<rect x="3474.466" y="451.397" fill="#F4F5F7" width="73.24" height="248.033"/>
	<path fill="#FFFFFF" d="M3668.608,661.441c0,8.424,6.98,15.244,15.592,15.244c8.606,0,15.587-6.82,15.587-15.244
		c0-8.414-6.98-15.236-15.587-15.236C3675.588,646.205,3668.608,653.027,3668.608,661.441z"/>
	<path fill="#FFFFFF" d="M3583.975,661.441c0,8.424,6.98,15.244,15.59,15.244c8.611,0,15.589-6.82,15.589-15.244
		c0-8.414-6.978-15.236-15.589-15.236C3590.956,646.205,3583.975,653.027,3583.975,661.441z"/>
	<path fill="#FFFFFF" d="M3499.343,661.441c0,8.424,6.98,15.244,15.59,15.244c8.612,0,15.588-6.82,15.588-15.244
		c0-8.414-6.976-15.236-15.588-15.236C3506.324,646.205,3499.343,653.027,3499.343,661.441z"/>
	<rect x="3389.803" y="449.38" fill="#F4F5F7" width="73.243" height="248.03"/>
	<path fill="#FFFFFF" d="M3414.679,659.428c0,8.414,6.982,15.242,15.593,15.242c8.609,0,15.59-6.828,15.59-15.242
		c0-8.418-6.98-15.244-15.59-15.244C3421.662,644.184,3414.679,651.01,3414.679,659.428z"/>
	<rect x="2991.227" y="449.376" fill="#F4F5F7" width="73.238" height="248.034"/>
	<rect x="2909.362" y="449.376" fill="#F4F5F7" width="73.239" height="248.034"/>
	<rect x="2820.438" y="449.376" fill="#F4F5F7" width="73.231" height="248.034"/>
	<path fill="#FFFFFF" d="M3014.57,659.424c0,8.418,6.98,15.242,15.59,15.242c8.612,0,15.589-6.824,15.589-15.242
		c0-8.414-6.977-15.24-15.589-15.24C3021.55,644.184,3014.57,651.01,3014.57,659.424z"/>
	<path fill="#FFFFFF" d="M2929.939,659.424c0,8.418,6.979,15.242,15.589,15.242c8.607,0,15.589-6.824,15.589-15.242
		c0-8.414-6.981-15.24-15.589-15.24C2936.918,644.184,2929.939,651.01,2929.939,659.424z"/>
	<path fill="#FFFFFF" d="M2845.306,659.424c0,8.418,6.981,15.242,15.589,15.242c8.609,0,15.59-6.824,15.59-15.242
		c0-8.414-6.98-15.24-15.59-15.24C2852.288,644.184,2845.306,651.01,2845.306,659.424z"/>
	<rect x="3255.535" y="443.325" fill="#F4F5F7" width="73.245" height="248.029"/>
	<rect x="3173.675" y="443.325" fill="#F4F5F7" width="73.239" height="248.029"/>
	<rect x="3084.739" y="443.325" fill="#F4F5F7" width="73.242" height="248.029"/>
	<path fill="#FFFFFF" d="M3278.88,653.371c0,8.416,6.982,15.24,15.592,15.24s15.59-6.824,15.59-15.24
		c0-8.42-6.98-15.242-15.59-15.242S3278.88,644.951,3278.88,653.371z"/>
	<path fill="#FFFFFF" d="M3194.248,653.371c0,8.416,6.98,15.24,15.593,15.24c8.608,0,15.588-6.824,15.588-15.24
		c0-8.42-6.979-15.242-15.588-15.242C3201.228,638.129,3194.248,644.951,3194.248,653.371z"/>
	<path fill="#FFFFFF" d="M3109.616,653.371c0,8.416,6.98,15.24,15.592,15.24c8.61,0,15.588-6.824,15.588-15.24
		c0-8.42-6.978-15.242-15.588-15.242C3116.596,638.129,3109.616,644.951,3109.616,653.371z"/>
</g>
<g>
	<rect x="1719.092" y="99.134" fill="#F4F5F7" width="1008.46" height="23.553"/>
	<rect x="1712.896" y="403.941" fill="#F4F5F7" width="1008.462" height="23.555"/>
	<rect x="1715.729" y="732.969" fill="#F4F5F7" width="1008.46" height="23.551"/>
	<rect x="1713.582" y="99.025" fill="#F4F5F7" width="23.979" height="1180.006"/>
	<rect x="2702.924" y="101.214" fill="#F4F5F7" width="23.969" height="1177.817"/>
	<rect x="2411.436" y="468.022" fill="#F4F5F7" width="73.239" height="248.029"/>
	<rect x="2319.883" y="468.026" fill="#F4F5F7" width="73.241" height="248.024"/>
	<rect x="2238.02" y="468.026" fill="#F4F5F7" width="73.239" height="248.024"/>
	<rect x="2149.084" y="468.026" fill="#F4F5F7" width="73.243" height="248.024"/>
	<g>
		<polygon fill="#F4F5F7" points="2567.381,725.131 2638.099,706.508 2572.094,467.019 2501.375,485.644 		"/>
		<path fill="#FFFFFF" d="M2578.732,682.801c2.239,8.129,10.796,12.943,19.109,10.754c8.312-2.191,13.239-10.555,10.996-18.684
			c-2.238-8.121-10.794-12.939-19.105-10.752C2581.418,666.312,2576.494,674.676,2578.732,682.801z"/>
	</g>
	<path fill="#FFFFFF" d="M2436.764,678.066c0,8.416,6.982,15.24,15.595,15.24c8.608,0,15.589-6.824,15.589-15.24
		s-6.98-15.236-15.589-15.236C2443.746,662.83,2436.764,669.65,2436.764,678.066z"/>
	<path fill="#FFFFFF" d="M2343.227,678.066c0,8.416,6.982,15.24,15.589,15.24c8.612,0,15.592-6.824,15.592-15.24
		s-6.98-15.236-15.592-15.236C2350.208,662.83,2343.227,669.65,2343.227,678.066z"/>
	<ellipse fill="#FFFFFF" cx="2274.184" cy="678.066" rx="15.591" ry="15.24"/>
	<path fill="#FFFFFF" d="M2173.961,678.066c0,8.416,6.979,15.24,15.592,15.24c8.609,0,15.589-6.824,15.589-15.24
		s-6.98-15.236-15.589-15.236C2180.94,662.83,2173.961,669.65,2173.961,678.066z"/>
	<rect x="2062.461" y="470.043" fill="#F4F5F7" width="73.243" height="248.027"/>
	<rect x="1970.908" y="470.046" fill="#F4F5F7" width="73.241" height="248.024"/>
	<rect x="1889.047" y="470.046" fill="#F4F5F7" width="73.238" height="248.024"/>
	<rect x="1800.112" y="470.046" fill="#F4F5F7" width="73.24" height="248.024"/>
	<path fill="#FFFFFF" d="M2087.795,680.082c0,8.42,6.977,15.246,15.589,15.246c8.609,0,15.59-6.826,15.59-15.246
		c0-8.416-6.981-15.236-15.59-15.236C2094.771,664.846,2087.795,671.666,2087.795,680.082z"/>
	<path fill="#FFFFFF" d="M1994.254,680.082c0,8.42,6.98,15.246,15.588,15.246c8.611,0,15.589-6.826,15.589-15.246
		c0-8.416-6.979-15.236-15.589-15.236C2001.234,664.846,1994.254,671.666,1994.254,680.082z"/>
	<path fill="#FFFFFF" d="M1909.621,680.082c0,8.42,6.979,15.246,15.59,15.246c8.611,0,15.589-6.826,15.589-15.246
		c0-8.416-6.979-15.236-15.589-15.236C1916.601,664.846,1909.621,671.666,1909.621,680.082z"/>
	<path fill="#FFFFFF" d="M1824.987,680.082c0,8.42,6.979,15.246,15.592,15.246c8.609,0,15.59-6.826,15.59-15.246
		c0-8.416-6.981-15.236-15.59-15.236C1831.966,664.846,1824.987,671.666,1824.987,680.082z"/>
	<rect x="2588.324" y="145.048" fill="#F4F5F7" width="73.234" height="248.033"/>
	<rect x="2506.462" y="145.048" fill="#F4F5F7" width="73.239" height="248.033"/>
	<rect x="2417.526" y="145.048" fill="#F4F5F7" width="73.241" height="248.033"/>
	<path fill="#FFFFFF" d="M2611.667,355.095c0,8.423,6.981,15.242,15.592,15.242c8.605,0,15.585-6.819,15.585-15.242
		c0-8.415-6.98-15.239-15.585-15.239C2618.648,339.856,2611.667,346.68,2611.667,355.095z"/>
	<path fill="#FFFFFF" d="M2527.035,355.095c0,8.423,6.981,15.242,15.59,15.242c8.61,0,15.589-6.819,15.589-15.242
		c0-8.415-6.979-15.239-15.589-15.239C2534.016,339.856,2527.035,346.68,2527.035,355.095z"/>
	<path fill="#FFFFFF" d="M2442.403,355.095c0,8.423,6.981,15.242,15.591,15.242c8.611,0,15.588-6.819,15.588-15.242
		c0-8.415-6.977-15.239-15.588-15.239C2449.384,339.856,2442.403,346.68,2442.403,355.095z"/>
	<rect x="2332.863" y="143.031" fill="#F4F5F7" width="73.243" height="248.03"/>
	<path fill="#FFFFFF" d="M2357.738,353.079c0,8.415,6.983,15.243,15.594,15.243c8.609,0,15.59-6.829,15.59-15.243
		c0-8.418-6.981-15.242-15.59-15.242C2364.722,337.836,2357.738,344.66,2357.738,353.079z"/>
	<rect x="1934.287" y="143.027" fill="#F4F5F7" width="73.238" height="248.034"/>
	<rect x="1852.422" y="143.027" fill="#F4F5F7" width="73.239" height="248.034"/>
	<rect x="1763.487" y="143.027" fill="#F4F5F7" width="73.241" height="248.034"/>
	<path fill="#FFFFFF" d="M1957.63,353.075c0,8.418,6.98,15.243,15.589,15.243c8.613,0,15.589-6.824,15.589-15.243
		c0-8.415-6.977-15.238-15.589-15.238C1964.611,337.836,1957.63,344.66,1957.63,353.075z"/>
	<path fill="#FFFFFF" d="M1872.998,353.075c0,8.418,6.981,15.243,15.589,15.243c8.608,0,15.589-6.824,15.589-15.243
		c0-8.415-6.98-15.238-15.589-15.238C1879.979,337.836,1872.998,344.66,1872.998,353.075z"/>
	<path fill="#FFFFFF" d="M1788.363,353.075c0,8.418,6.984,15.243,15.591,15.243c8.609,0,15.59-6.824,15.59-15.243
		c0-8.415-6.98-15.238-15.59-15.238C1795.348,337.836,1788.363,344.66,1788.363,353.075z"/>
	<rect x="2198.595" y="136.976" fill="#F4F5F7" width="73.245" height="248.03"/>
	<rect x="2116.735" y="136.976" fill="#F4F5F7" width="73.24" height="248.03"/>
	<rect x="2027.799" y="136.976" fill="#F4F5F7" width="73.242" height="248.03"/>
	<path fill="#FFFFFF" d="M2221.94,347.023c0,8.414,6.981,15.239,15.591,15.239c8.609,0,15.59-6.825,15.59-15.239
		c0-8.419-6.981-15.243-15.59-15.243C2228.922,331.78,2221.94,338.604,2221.94,347.023z"/>
	<path fill="#FFFFFF" d="M2137.307,347.023c0,8.414,6.981,15.239,15.593,15.239c8.608,0,15.588-6.825,15.588-15.239
		c0-8.419-6.98-15.243-15.588-15.243C2144.288,331.78,2137.307,338.604,2137.307,347.023z"/>
	<path fill="#FFFFFF" d="M2052.674,347.023c0,8.414,6.981,15.239,15.593,15.239c8.611,0,15.589-6.825,15.589-15.239
		c0-8.419-6.978-15.243-15.589-15.243C2059.655,331.78,2052.674,338.604,2052.674,347.023z"/>
	<rect x="1712.896" y="1060.256" fill="#F4F5F7" width="1008.462" height="23.543"/>
	<rect x="2588.324" y="801.355" fill="#F4F5F7" width="73.234" height="248.035"/>
	<rect x="2506.462" y="801.355" fill="#F4F5F7" width="73.239" height="248.035"/>
	<rect x="2422.931" y="799.041" fill="#F4F5F7" width="73.238" height="248.031"/>
	<path fill="#FFFFFF" d="M2611.667,1011.404c0,8.418,6.981,15.244,15.592,15.244c8.605,0,15.585-6.826,15.585-15.244
		c0-8.414-6.98-15.24-15.585-15.24C2618.648,996.164,2611.667,1002.99,2611.667,1011.404z"/>
	<path fill="#FFFFFF" d="M2527.035,1011.404c0,8.418,6.981,15.244,15.59,15.244c8.61,0,15.589-6.826,15.589-15.244
		c0-8.414-6.979-15.24-15.589-15.24C2534.016,996.164,2527.035,1002.99,2527.035,1011.404z"/>
	<path fill="#FFFFFF" d="M2447.807,1009.086c0,8.418,6.981,15.244,15.59,15.244c8.613,0,15.59-6.826,15.59-15.244
		c0-8.414-6.977-15.236-15.59-15.236C2454.788,993.85,2447.807,1000.672,2447.807,1009.086z"/>
	<rect x="2297.271" y="791.436" fill="#F4F5F7" width="73.241" height="248.029"/>
	<path fill="#FFFFFF" d="M2322.15,1001.484c0,8.412,6.979,15.234,15.591,15.234c8.608,0,15.59-6.822,15.59-15.234
		c0-8.42-6.981-15.246-15.59-15.246C2329.128,986.238,2322.15,993.064,2322.15,1001.484z"/>
	<rect x="1934.287" y="799.34" fill="#F4F5F7" width="73.238" height="248.029"/>
	<rect x="1852.422" y="799.34" fill="#F4F5F7" width="73.239" height="248.029"/>
	<rect x="1763.487" y="799.34" fill="#F4F5F7" width="73.241" height="248.029"/>
	<path fill="#FFFFFF" d="M1957.63,1009.387c0,8.414,6.98,15.24,15.589,15.24c8.613,0,15.589-6.826,15.589-15.24
		c0-8.42-6.977-15.24-15.589-15.24C1964.611,994.146,1957.63,1000.967,1957.63,1009.387z"/>
	<path fill="#FFFFFF" d="M1872.998,1009.387c0,8.414,6.981,15.24,15.589,15.24c8.608,0,15.589-6.826,15.589-15.24
		c0-8.42-6.98-15.24-15.589-15.24C1879.979,994.146,1872.998,1000.967,1872.998,1009.387z"/>
	<path fill="#FFFFFF" d="M1788.363,1009.387c0,8.414,6.984,15.24,15.591,15.24c8.609,0,15.59-6.826,15.59-15.24
		c0-8.42-6.98-15.24-15.59-15.24C1795.348,994.146,1788.363,1000.967,1788.363,1009.387z"/>
	<rect x="2198.595" y="793.285" fill="#F4F5F7" width="73.245" height="248.031"/>
	<rect x="2116.735" y="793.285" fill="#F4F5F7" width="73.24" height="248.031"/>
	<rect x="2027.799" y="793.285" fill="#F4F5F7" width="73.242" height="248.031"/>
	<path fill="#FFFFFF" d="M2221.94,1003.332c0,8.414,6.981,15.238,15.591,15.238c8.609,0,15.59-6.824,15.59-15.238
		c0-8.42-6.981-15.244-15.59-15.244C2228.922,988.088,2221.94,994.912,2221.94,1003.332z"/>
	<path fill="#FFFFFF" d="M2137.307,1003.332c0,8.414,6.981,15.238,15.593,15.238c8.608,0,15.588-6.824,15.588-15.238
		c0-8.42-6.98-15.244-15.588-15.244C2144.288,988.088,2137.307,994.912,2137.307,1003.332z"/>
	<path fill="#FFFFFF" d="M2052.674,1003.332c0,8.414,6.981,15.238,15.593,15.238c8.611,0,15.589-6.824,15.589-15.238
		c0-8.42-6.978-15.244-15.589-15.244C2059.655,988.088,2052.674,994.912,2052.674,1003.332z"/>
</g>
</svg>
