<?xml version="1.0" encoding="utf-8"?>
<!-- Generator: Adobe Illustrator 16.0.4, SVG Export Plug-In . SVG Version: 6.00 Build 0)  -->
<!DOCTYPE svg PUBLIC "-//W3C//DTD SVG 1.1//EN" "http://www.w3.org/Graphics/SVG/1.1/DTD/svg11.dtd">
<svg version="1.1" id="table" xmlns="http://www.w3.org/2000/svg" xmlns:xlink="http://www.w3.org/1999/xlink" x="0px" y="0px"
	 width="3979.569px" height="1928px" viewBox="0 0 3979.569 1928" enable-background="new 0 0 3979.569 1928" xml:space="preserve">
<g>
	<polyline fill="#B7B6C0" points="3187.78,1046.068 3377.309,979.812 3560.655,984.513 3565.443,1404.571 3487.003,1514.179 	"/>
	<g>
		<path fill="#8A8899" d="M3188.3,1047.957c46.425-16.229,92.849-32.458,139.272-48.688c16.744-5.854,33.488-11.707,50.232-17.561
			c-0.814,0.285-0.185,0.069,0.354,0.083c1.022,0.026,2.045,0.053,3.067,0.079c3.789,0.097,7.578,0.194,11.367,0.291
			c12.854,0.33,25.707,0.659,38.561,0.989c43.167,1.106,86.334,2.214,129.5,3.32c-0.653-0.653-1.306-1.306-1.959-1.959
			c0.379,33.283,0.759,66.565,1.139,99.849c0.731,64.181,1.463,128.36,2.194,192.541c0.474,41.576,0.948,83.151,1.422,124.727
			c0.011,0.943,0.021,1.887,0.032,2.829c0.003,0.288,0.646-1.402-0.005-0.493c-0.62,0.866-1.24,1.733-1.86,2.6
			c-6.472,9.043-12.943,18.086-19.415,27.129c-17.115,23.916-34.23,47.832-51.346,71.749c-1.849,2.582-3.696,5.165-5.545,7.748
			c-1.474,2.059,1.927,4.012,3.383,1.977c26.13-36.512,52.259-73.023,78.389-109.536c1.086-1.517,0.268-5.505,0.249-7.164
			c-0.074-6.531-0.149-13.062-0.224-19.593c-0.266-23.285-0.531-46.571-0.796-69.856c-0.73-64.061-1.461-128.12-2.191-192.181
			c-0.487-42.793-0.975-85.586-1.463-128.378c-0.015-1.315-0.03-2.631-0.045-3.946c-0.013-1.089-0.883-1.932-1.959-1.959
			c-49.766-1.276-99.53-2.552-149.296-3.828c-9.825-0.252-19.65-0.504-29.476-0.756c-3.269-0.084-5.181-0.017-8.226,1.047
			c-21.859,7.642-43.719,15.284-65.578,22.926c-40.273,14.079-80.547,28.158-120.82,42.237
			C3184.89,1045.008,3185.909,1048.793,3188.3,1047.957L3188.3,1047.957z"/>
	</g>
</g>
<g>
	<rect x="3189.26" y="1045.542" fill="#D9D8DE" width="293.042" height="470.118"/>
	<g>
		<path fill="#8A8899" d="M3482.302,1513.701c-42.198,0-84.397,0-126.596,0c-53.207,0-106.414,0-159.621,0c-2.275,0-4.55,0-6.825,0
			c0.653,0.653,1.306,1.306,1.959,1.959c0-30.603,0-61.205,0-91.807c0-63.307,0-126.613,0-189.92c0-53.261,0-106.521,0-159.781
			c0-9.537,0-19.073,0-28.61c-0.653,0.653-1.306,1.306-1.959,1.959c42.198,0,84.397,0,126.596,0c53.207,0,106.414,0,159.621,0
			c2.275,0,4.55,0,6.825,0c-0.653-0.653-1.306-1.306-1.959-1.959c0,30.603,0,61.205,0,91.807c0,63.307,0,126.613,0,189.92
			c0,53.261,0,106.521,0,159.781c0,9.536,0,19.073,0,28.61c0,2.526,3.918,2.526,3.918,0c0-30.603,0-61.205,0-91.807
			c0-63.307,0-126.613,0-189.92c0-53.261,0-106.521,0-159.781c0-9.537,0-19.073,0-28.61c0-1.067-0.892-1.959-1.959-1.959
			c-42.198,0-84.397,0-126.596,0c-53.207,0-106.414,0-159.621,0c-2.275,0-4.55,0-6.825,0c-1.068,0-1.959,0.892-1.959,1.959
			c0,30.603,0,61.205,0,91.807c0,63.307,0,126.613,0,189.92c0,53.261,0,106.521,0,159.781c0,9.536,0,19.073,0,28.61
			c0,1.068,0.891,1.959,1.959,1.959c42.198,0,84.397,0,126.596,0c53.207,0,106.414,0,159.621,0c2.275,0,4.55,0,6.825,0
			C3484.829,1517.619,3484.829,1513.701,3482.302,1513.701z"/>
	</g>
</g>
<g>
	<path fill="#B7B6C0" d="M3536.967,992.531l2.169,535.553l119.062-162.935l-0.764-460.406
		C3657.435,904.743,3530.691,997.915,3536.967,992.531z"/>
	<g>
		<path fill="#8A8899" d="M3535.008,992.531c0.112,27.644,0.224,55.288,0.336,82.932c0.247,60.949,0.494,121.897,0.74,182.847
			c0.248,61.278,0.496,122.557,0.745,183.835c0.115,28.633,0.231,57.267,0.348,85.899c0,0.014,0,0.026,0,0.04
			c0.009,2.088,2.555,2.488,3.65,0.988c29.047-39.75,58.095-79.5,87.142-119.251c10.629-14.545,21.258-29.091,31.887-43.636
			c1.014-1.388,0.295-5.118,0.292-6.64c-0.01-6.037-0.02-12.073-0.029-18.11c-0.087-52.126-0.173-104.252-0.26-156.377
			c-0.105-63.401-0.21-126.802-0.315-190.202c-0.05-30.038-0.1-60.075-0.149-90.113c-0.002-1.366-1.711-2.601-2.947-1.691
			c-38.248,28.116-76.378,56.419-114.977,84.053c-1.325,0.948-2.652,1.895-3.989,2.827c-1.211,0.844-2.014,0.713-0.738,0.863
			c0.629,0.826,1.259,1.653,1.889,2.479c-0.19,0.782-0.705,1.013-0.279,0.642c1.91-1.66-0.873-4.419-2.77-2.77
			c-0.334,0.289-0.622,0.647-0.729,1.087c-0.327,1.345,0.617,2.329,1.89,2.479c1.385,0.163,3.465-1.922,4.443-2.614
			c3.432-2.43,6.837-4.897,10.243-7.363c11.19-8.1,22.344-16.252,33.495-24.405c22.407-16.382,44.787-32.801,67.156-49.234
			c2.114-1.554,4.229-3.107,6.343-4.661c-0.982-0.563-1.965-1.128-2.947-1.691c0.052,31.127,0.104,62.255,0.155,93.382
			c0.105,63.613,0.211,127.226,0.316,190.839c0.085,51.444,0.171,102.89,0.256,154.334c0.01,5.728,0.019,11.454,0.028,17.182
			c0.002,1.313,0.005,2.627,0.007,3.94c0.003,1.644,0.734-0.896-0.112,0.262c-11.767,16.104-23.534,32.206-35.302,48.31
			c-27.793,38.034-55.587,76.069-83.38,114.104c1.217,0.329,2.434,0.658,3.65,0.988c-0.112-27.645-0.224-55.288-0.336-82.932
			c-0.247-60.949-0.493-121.897-0.74-182.847c-0.248-61.278-0.497-122.557-0.745-183.835c-0.115-28.633-0.231-57.267-0.348-85.899
			c0-0.014,0-0.026,0-0.04C3538.917,990.005,3534.999,990.004,3535.008,992.531z"/>
	</g>
</g>
<g>
	<polygon fill="#D9D8DE" points="3538.396,998.059 3516.617,998.059 3515.662,1529.628 3539.084,1528.063 	"/>
	<g>
		<path fill="#8A8899" d="M3538.396,996.1c-7.26,0-14.52,0-21.779,0c-1.069,0-1.957,0.892-1.959,1.959
			c-0.05,27.811-0.1,55.622-0.149,83.433c-0.11,61.117-0.22,122.234-0.33,183.352c-0.109,60.949-0.219,121.899-0.328,182.849
			c-0.049,27.312-0.099,54.624-0.147,81.937c-0.002,1.014,0.894,2.03,1.959,1.959c7.808-0.521,15.615-1.043,23.423-1.564
			c1.064-0.071,1.96-0.837,1.959-1.959c-0.036-27.854-0.072-55.709-0.108-83.563c-0.079-61.146-0.159-122.291-0.238-183.437
			c-0.079-60.81-0.158-121.618-0.237-182.428c-0.035-26.858-0.069-53.718-0.104-80.577c-0.003-2.526-3.921-2.526-3.918,0
			c0.036,27.854,0.072,55.709,0.108,83.563c0.08,61.146,0.159,122.291,0.238,183.437c0.079,60.809,0.158,121.618,0.237,182.428
			c0.035,26.859,0.069,53.718,0.104,80.577c0.653-0.653,1.306-1.306,1.959-1.959c-7.808,0.521-15.615,1.043-23.423,1.564
			c0.653,0.653,1.306,1.306,1.959,1.959c0.05-27.811,0.1-55.622,0.149-83.433c0.11-61.117,0.22-122.234,0.33-183.352
			c0.109-60.949,0.219-121.899,0.328-182.849c0.049-27.312,0.099-54.624,0.147-81.937c-0.653,0.653-1.306,1.306-1.959,1.959
			c7.26,0,14.52,0,21.779,0C3540.922,1000.018,3540.922,996.1,3538.396,996.1z"/>
	</g>
</g>
<g>
	<path fill="#B7B6C0" d="M2052.226,1004.259l0.188,511.635l221.021-130.63l0.725-457.265
		C2274.16,927.999,2045.949,1009.643,2052.226,1004.259z"/>
	<g>
		<path fill="#8A8899" d="M2050.267,1004.259c0.011,28.674,0.021,57.347,0.032,86.021c0.023,61.926,0.045,123.851,0.068,185.776
			c0.022,59.034,0.043,118.067,0.065,177.102c0.008,20.912,0.015,41.824,0.023,62.736c0,1.479,1.666,2.449,2.948,1.691
			c38.84-22.956,77.68-45.911,116.521-68.866c25.492-15.067,50.984-30.134,76.476-45.2c7.539-4.455,15.077-8.911,22.616-13.366
			c1.752-1.036,6.376-2.693,6.38-5.178c0.054-34.009,0.108-68.019,0.162-102.028c0.102-64.15,0.203-128.302,0.305-192.453
			c0.077-48.967,0.155-97.934,0.232-146.9c0.008-5.198,0.017-10.396,0.025-15.594c0.002-1.201-1.266-2.323-2.48-1.889
			c-43.257,15.475-86.564,30.815-129.937,45.965c-21.058,7.354-42.128,14.682-63.281,21.762c-6.785,2.271-13.577,4.527-20.416,6.629
			c-1.923,0.591-3.851,1.17-5.798,1.679c-0.585,0.152-1.175,0.296-1.77,0.406c-0.332,0.062,0.469-0.02-0.085,0.004
			c0.895-0.038,1.928,2.478,1.258,3.089c1.869-1.707-0.909-4.47-2.771-2.77c-1.648,1.505-0.118,3.831,1.877,3.563
			c1.987-0.267,3.921-0.88,5.84-1.443c8.583-2.524,17.064-5.417,25.544-8.265c28.314-9.506,56.5-19.397,84.677-29.298
			c35.335-12.415,70.637-24.928,105.902-37.544c-0.827-0.63-1.653-1.259-2.48-1.889c-0.049,31.312-0.099,62.625-0.149,93.938
			c-0.101,63.721-0.202,127.441-0.303,191.161c-0.081,50.803-0.161,101.605-0.242,152.408c-0.008,5.371-0.017,10.741-0.025,16.112
			c-0.002,1.099-0.003,2.197-0.005,3.297c0,0.515,2.04-1.976-0.005-0.767c-15.396,9.1-30.793,18.199-46.189,27.299
			c-51.392,30.374-102.783,60.748-154.174,91.122c-6.561,3.878-13.122,7.755-19.683,11.633c0.982,0.563,1.965,1.128,2.948,1.691
			c-0.011-28.674-0.021-57.347-0.032-86.021c-0.023-61.926-0.045-123.851-0.068-185.776c-0.022-59.034-0.043-118.067-0.065-177.102
			c-0.008-20.912-0.015-41.824-0.023-62.736C2054.184,1001.732,2050.266,1001.732,2050.267,1004.259z"/>
	</g>
</g>
<g>
	<polygon fill="#D9D8DE" points="2051.827,1009.785 2030.047,1009.785 2030.235,1514.394 2052.015,1514.394 	"/>
	<g>
		<path fill="#8A8899" d="M2051.827,1007.826c-7.26,0-14.52,0-21.78,0c-1.067,0-1.959,0.891-1.959,1.959
			c0.011,29.019,0.022,58.037,0.033,87.057c0.023,62.24,0.046,124.481,0.07,186.722c0.021,58.239,0.043,116.479,0.065,174.718
			c0.007,18.704,0.014,37.408,0.021,56.112c0,1.067,0.891,1.959,1.959,1.959c7.26,0,14.52,0,21.78,0
			c1.067,0,1.959-0.892,1.959-1.959c-0.011-29.019-0.022-58.038-0.033-87.057c-0.023-62.24-0.046-124.481-0.07-186.722
			c-0.021-58.239-0.043-116.479-0.065-174.718c-0.007-18.704-0.014-37.408-0.021-56.112c-0.001-2.526-3.919-2.526-3.918,0
			c0.011,29.019,0.022,58.037,0.033,87.057c0.023,62.24,0.046,124.481,0.07,186.722c0.021,58.239,0.043,116.479,0.065,174.718
			c0.007,18.704,0.014,37.408,0.021,56.112c0.653-0.653,1.306-1.306,1.959-1.959c-7.26,0-14.52,0-21.78,0
			c0.653,0.653,1.306,1.306,1.959,1.959c-0.011-29.019-0.022-58.038-0.033-87.057c-0.023-62.24-0.046-124.481-0.07-186.722
			c-0.021-58.239-0.043-116.479-0.065-174.718c-0.007-18.704-0.014-37.408-0.021-56.112c-0.653,0.653-1.306,1.306-1.959,1.959
			c7.26,0,14.52,0,21.78,0C2054.353,1011.744,2054.353,1007.826,2051.827,1007.826z"/>
	</g>
</g>
<g>
	<path fill="#B7B6C0" d="M2009.566,991.188c-2.089,8.358,299.366-77.518,335.124-86.35l1327.089-2.438
		c-12.537,8.358-136.486,95.25-134.396,86.892"/>
	<g>
		<path fill="#8A8899" d="M2007.607,991.188c-0.707,5.567,18.741,0.155,20.554-0.227c19.464-4.106,38.748-9.13,58.006-14.096
			c54.364-14.018,108.494-28.947,162.622-43.845c22.313-6.142,44.619-12.312,66.943-18.415c7.207-1.97,14.417-3.935,21.638-5.851
			c2.311-0.613,5.664-1.955,7.653-1.959c10.578-0.02,21.156-0.038,31.734-0.058c63.268-0.116,126.535-0.232,189.803-0.35
			c98.834-0.182,197.669-0.362,296.503-0.544c109.701-0.202,219.403-0.403,329.105-0.605c95.87-0.176,191.74-0.352,287.61-0.528
			c57.341-0.105,114.681-0.211,172.021-0.316c6.659-0.012,13.319-0.024,19.979-0.036c-0.329-1.217-0.659-2.434-0.988-3.65
			c-22.737,15.211-45.055,31.057-67.724,46.371c-13.953,9.427-27.958,18.789-42.181,27.808c-5.026,3.188-10.09,6.325-15.264,9.271
			c-1.699,0.968-3.423,1.896-5.182,2.75c-0.579,0.281-1.165,0.534-1.769,0.756c-2.269,0.836,1.079-0.985,0.599,2.148
			c0.379-2.471-3.396-3.532-3.777-1.041c-1.129,7.367,12.99-1.729,14.511-2.614c14.97-8.711,29.355-18.482,43.748-28.103
			c26.517-17.726,52.508-36.229,79.015-53.963c1.572-1.052,1.046-3.654-0.988-3.65c-32.87,0.061-65.74,0.121-98.61,0.182
			c-82.146,0.15-164.29,0.302-246.435,0.452c-106.721,0.196-213.44,0.393-320.161,0.589c-106.597,0.195-213.193,0.392-319.79,0.587
			c-81.775,0.15-163.549,0.301-245.323,0.451c-23.86,0.044-47.721,0.088-71.581,0.132c-7.983,0.015-18.255-1.733-26.098,0.213
			c-91.776,22.769-182.26,50.739-273.945,73.95c-13.638,3.452-27.3,6.85-41.05,9.83c-4.335,0.94-8.687,1.837-13.07,2.522
			c-1.226,0.192-2.457,0.344-3.695,0.425c-2.789,0.183-0.244-0.561-0.495,1.414C2011.843,988.686,2007.921,988.717,2007.607,991.188
			L2007.607,991.188z"/>
	</g>
</g>
<g>
	<polygon fill="#D9D8DE" points="3539.196,1020.081 2008.755,1023.484 2007.208,992.054 3538.489,990.819 	"/>
	<g>
		<path fill="#8A8899" d="M3539.196,1018.122c-24.82,0.056-49.642,0.11-74.463,0.166c-64.769,0.144-129.538,0.288-194.308,0.432
			c-90.178,0.2-180.355,0.401-270.533,0.602c-101.046,0.225-202.092,0.449-303.139,0.674c-97.375,0.217-194.75,0.434-292.125,0.65
			c-79.164,0.176-158.327,0.352-237.491,0.527c-46.413,0.104-92.825,0.207-139.238,0.31c-6.381,0.015-12.763,0.029-19.145,0.043
			c0.653,0.653,1.306,1.306,1.959,1.959c-0.516-10.477-1.031-20.954-1.546-31.431c-0.653,0.653-1.306,1.306-1.959,1.959
			c24.803-0.021,49.606-0.04,74.409-0.06c64.73-0.053,129.459-0.104,194.189-0.157c90.138-0.072,180.275-0.146,270.413-0.218
			c101.026-0.081,202.054-0.163,303.08-0.244c97.396-0.079,194.794-0.157,292.191-0.235c79.248-0.064,158.496-0.128,237.745-0.192
			c46.581-0.037,93.162-0.074,139.743-0.112c6.503-0.005,13.007-0.011,19.51-0.016c-0.653-0.653-1.306-1.306-1.959-1.959
			c0.235,9.754,0.472,19.508,0.707,29.262c0.061,2.522,3.979,2.528,3.918,0c-0.235-9.754-0.472-19.508-0.707-29.262
			c-0.025-1.066-0.871-1.96-1.959-1.959c-24.803,0.021-49.605,0.04-74.409,0.06c-64.729,0.053-129.459,0.104-194.188,0.157
			c-90.138,0.072-180.275,0.146-270.413,0.218c-101.026,0.081-202.054,0.163-303.08,0.244
			c-97.397,0.079-194.794,0.157-292.191,0.235c-79.249,0.064-158.497,0.128-237.746,0.192c-46.581,0.037-93.162,0.074-139.743,0.112
			c-6.503,0.005-13.006,0.011-19.51,0.016c-1.028,0.001-2.011,0.891-1.959,1.959c0.516,10.477,1.031,20.954,1.546,31.431
			c0.052,1.064,0.852,1.961,1.959,1.959c24.821-0.056,49.642-0.11,74.462-0.166c64.77-0.144,129.539-0.288,194.308-0.432
			c90.178-0.2,180.355-0.401,270.533-0.602c101.047-0.225,202.093-0.449,303.139-0.674c97.375-0.217,194.75-0.434,292.125-0.65
			c79.164-0.176,158.328-0.352,237.491-0.527c46.413-0.104,92.825-0.207,139.238-0.311c6.381-0.014,12.763-0.028,19.145-0.042
			C3541.722,1022.034,3541.722,1018.116,3539.196,1018.122z"/>
	</g>
</g>
<g>
	<path fill="#D9D8DE" d="M3670.332,928.145c-12.537,8.357-131.136,91.455-131.136,92.402l-2.334-29.4l134.917-86.952
		L3670.332,928.145z"/>
	<g>
		<path fill="#8A8899" d="M3669.343,926.453c-21.109,14.102-41.744,28.957-62.521,43.538c-22.172,15.56-44.576,30.877-66.316,47.038
			c-1.128,0.838-2.645,1.644-3.199,2.997c1.282,0.173,2.564,0.347,3.848,0.521c-0.453-5.713-0.907-11.427-1.36-17.141
			c-0.26-3.268-0.52-6.535-0.778-9.803c-0.061-0.763-0.121-1.525-0.182-2.288c-0.06-0.748-1.717,1.995-0.737,1.363
			c6.074-3.914,12.147-7.829,18.222-11.743c25.979-16.744,51.959-33.487,77.938-50.23c12.837-8.273,25.673-16.546,38.51-24.819
			c-0.982-0.563-1.965-1.128-2.947-1.691c-0.482,7.983-0.965,15.967-1.447,23.95c-0.152,2.524,3.767,2.51,3.918,0
			c0.482-7.983,0.965-15.967,1.447-23.95c0.088-1.462-1.738-2.471-2.947-1.691c-41.511,26.753-83.021,53.506-124.531,80.259
			c-3.462,2.23-6.924,4.462-10.386,6.693c-0.552,0.355-1.025,0.997-0.971,1.691c0.778,9.8,1.556,19.601,2.334,29.4
			c0.183,2.295,3.015,2.554,3.848,0.521c-0.579,1.414-0.082,0.463,0.508,0.014c1.195-0.909,2.41-1.793,3.623-2.677
			c4.034-2.941,8.1-5.84,12.164-8.737c12.526-8.929,25.103-17.789,37.685-26.642c23.899-16.813,47.791-33.648,71.87-50.203
			c1.458-1.002,2.916-2.004,4.386-2.986C3673.41,928.44,3671.451,925.045,3669.343,926.453z"/>
	</g>
</g>
<path fill="none" stroke="#8A8899" stroke-width="1.0448" stroke-miterlimit="10" d="M3502.528,2230.992"/>
<path fill="none" stroke="#8A8899" stroke-width="1.0448" stroke-miterlimit="10" d="M3515.265,340.086"/>
<g>
	<rect x="3202.672" y="1067.048" fill="#D9D8DE" width="263.266" height="85.988"/>
	<g>
		<path fill="#8A8899" d="M3465.938,1150.984c-44.711,0-89.422,0-134.132,0c-43.045,0-86.089,0-129.134,0
			c0.684,0.684,1.368,1.367,2.052,2.052c0-28.663,0-57.325,0-85.988c-0.684,0.685-1.368,1.368-2.052,2.052
			c44.711,0,89.422,0,134.132,0c43.045,0,86.089,0,129.134,0c-0.684-0.684-1.368-1.367-2.052-2.052c0,28.663,0,57.325,0,85.988
			c0,2.646,4.104,2.646,4.104,0c0-28.663,0-57.325,0-85.988c0-1.118-0.933-2.052-2.052-2.052c-44.711,0-89.422,0-134.132,0
			c-43.045,0-86.089,0-129.134,0c-1.119,0-2.052,0.934-2.052,2.052c0,28.663,0,57.325,0,85.988c0,1.118,0.933,2.052,2.052,2.052
			c44.711,0,89.422,0,134.132,0c43.045,0,86.089,0,129.134,0C3468.584,1155.088,3468.584,1150.984,3465.938,1150.984z"/>
	</g>
</g>
<g>
	<rect x="3201.105" y="1175.155" fill="#D9D8DE" width="263.267" height="85.988"/>
	<g>
		<path fill="#8A8899" d="M3464.372,1259.092c-44.711,0-89.422,0-134.133,0c-43.045,0-86.089,0-129.134,0
			c0.685,0.684,1.368,1.367,2.052,2.052c0-28.663,0-57.325,0-85.988c-0.684,0.685-1.367,1.368-2.052,2.052
			c44.711,0,89.422,0,134.133,0c43.044,0,86.089,0,129.134,0c-0.684-0.684-1.368-1.367-2.052-2.052c0,28.663,0,57.325,0,85.988
			c0,2.646,4.104,2.646,4.104,0c0-28.663,0-57.325,0-85.988c0-1.118-0.933-2.052-2.052-2.052c-44.711,0-89.422,0-134.133,0
			c-43.045,0-86.089,0-129.134,0c-1.118,0-2.052,0.934-2.052,2.052c0,28.663,0,57.325,0,85.988c0,1.118,0.934,2.052,2.052,2.052
			c44.711,0,89.422,0,134.133,0c43.044,0,86.089,0,129.134,0C3467.018,1263.195,3467.018,1259.092,3464.372,1259.092z"/>
	</g>
</g>
<g>
	<rect x="3201.105" y="1281.78" fill="#D9D8DE" width="263.267" height="85.99"/>
	<g>
		<path fill="#8A8899" d="M3464.372,1365.719c-44.711,0-89.422,0-134.133,0c-43.045,0-86.089,0-129.134,0
			c0.685,0.684,1.368,1.367,2.052,2.052c0-28.663,0-57.327,0-85.99c-0.684,0.685-1.367,1.368-2.052,2.052
			c44.711,0,89.422,0,134.133,0c43.044,0,86.089,0,129.134,0c-0.684-0.684-1.368-1.367-2.052-2.052c0,28.663,0,57.327,0,85.99
			c0,2.646,4.104,2.646,4.104,0c0-28.663,0-57.327,0-85.99c0-1.118-0.933-2.052-2.052-2.052c-44.711,0-89.422,0-134.133,0
			c-43.045,0-86.089,0-129.134,0c-1.118,0-2.052,0.934-2.052,2.052c0,28.663,0,57.327,0,85.99c0,1.118,0.934,2.052,2.052,2.052
			c44.711,0,89.422,0,134.133,0c43.044,0,86.089,0,129.134,0C3467.018,1369.822,3467.018,1365.719,3464.372,1365.719z"/>
	</g>
</g>
<g>
	<rect x="3202.672" y="1388.407" fill="#D9D8DE" width="263.266" height="85.988"/>
	<g>
		<path fill="#8A8899" d="M3465.938,1472.344c-44.711,0-89.422,0-134.132,0c-43.045,0-86.089,0-129.134,0
			c0.684,0.684,1.368,1.367,2.052,2.052c0-28.663,0-57.325,0-85.988c-0.684,0.685-1.368,1.368-2.052,2.052
			c44.711,0,89.422,0,134.132,0c43.045,0,86.089,0,129.134,0c-0.684-0.684-1.368-1.367-2.052-2.052c0,28.663,0,57.325,0,85.988
			c0,2.646,4.104,2.646,4.104,0c0-28.663,0-57.325,0-85.988c0-1.118-0.933-2.052-2.052-2.052c-44.711,0-89.422,0-134.132,0
			c-43.045,0-86.089,0-129.134,0c-1.119,0-2.052,0.934-2.052,2.052c0,28.663,0,57.325,0,85.988c0,1.118,0.933,2.052,2.052,2.052
			c44.711,0,89.422,0,134.132,0c43.045,0,86.089,0,129.134,0C3468.584,1476.447,3468.584,1472.344,3465.938,1472.344z"/>
	</g>
</g>
<g>
	<rect x="3253.443" y="1088.771" fill="#8A8899" width="164.734" height="17.928"/>
	<g>
		<path fill="#D9D8DE" d="M3418.177,1104.647c-49.536,0-99.073,0-148.61,0c-5.374,0-10.749,0-16.124,0
			c0.685,0.684,1.368,1.368,2.052,2.052c0-5.976,0-11.952,0-17.928c-0.684,0.684-1.367,1.368-2.052,2.052
			c49.536,0,99.073,0,148.61,0c5.374,0,10.749,0,16.124,0c-0.685-0.684-1.368-1.368-2.052-2.052c0,5.976,0,11.952,0,17.928
			c0,2.646,4.104,2.646,4.104,0c0-5.976,0-11.952,0-17.928c0-1.119-0.934-2.052-2.052-2.052c-49.536,0-99.073,0-148.61,0
			c-5.374,0-10.749,0-16.124,0c-1.118,0-2.052,0.933-2.052,2.052c0,5.976,0,11.952,0,17.928c0,1.119,0.934,2.052,2.052,2.052
			c49.536,0,99.073,0,148.61,0c5.374,0,10.749,0,16.124,0C3420.824,1108.751,3420.824,1104.647,3418.177,1104.647z"/>
	</g>
</g>
<g>
	<rect x="3255.964" y="1194.818" fill="#8A8899" width="164.734" height="17.928"/>
	<g>
		<path fill="#D9D8DE" d="M3420.699,1210.694c-49.536,0-99.073,0-148.61,0c-5.374,0-10.749,0-16.124,0
			c0.685,0.684,1.368,1.368,2.052,2.052c0-5.976,0-11.952,0-17.928c-0.684,0.684-1.367,1.368-2.052,2.052
			c49.536,0,99.073,0,148.61,0c5.374,0,10.749,0,16.124,0c-0.685-0.684-1.368-1.368-2.052-2.052c0,5.976,0,11.952,0,17.928
			c0,2.646,4.104,2.646,4.104,0c0-5.976,0-11.952,0-17.928c0-1.119-0.934-2.052-2.052-2.052c-49.536,0-99.073,0-148.61,0
			c-5.374,0-10.749,0-16.124,0c-1.118,0-2.052,0.933-2.052,2.052c0,5.976,0,11.952,0,17.928c0,1.119,0.934,2.052,2.052,2.052
			c49.536,0,99.073,0,148.61,0c5.374,0,10.749,0,16.124,0C3423.345,1214.798,3423.345,1210.694,3420.699,1210.694z"/>
	</g>
</g>
<g>
	<rect x="3249.52" y="1303.794" fill="#8A8899" width="164.734" height="17.928"/>
	<g>
		<path fill="#D9D8DE" d="M3414.254,1319.67c-49.537,0-99.073,0-148.609,0c-5.375,0-10.75,0-16.125,0
			c0.684,0.684,1.368,1.367,2.052,2.052c0-5.976,0-11.952,0-17.928c-0.684,0.685-1.368,1.368-2.052,2.052
			c49.537,0,99.073,0,148.609,0c5.375,0,10.75,0,16.125,0c-0.684-0.684-1.368-1.367-2.052-2.052c0,5.976,0,11.952,0,17.928
			c0,2.646,4.104,2.646,4.104,0c0-5.976,0-11.952,0-17.928c0-1.118-0.933-2.052-2.052-2.052c-49.537,0-99.073,0-148.609,0
			c-5.375,0-10.75,0-16.125,0c-1.119,0-2.052,0.934-2.052,2.052c0,5.976,0,11.952,0,17.928c0,1.118,0.933,2.052,2.052,2.052
			c49.537,0,99.073,0,148.609,0c5.375,0,10.75,0,16.125,0C3416.901,1323.773,3416.901,1319.67,3414.254,1319.67z"/>
	</g>
</g>
<g>
	<rect x="3240.916" y="1406.509" fill="#8A8899" width="164.734" height="17.928"/>
	<g>
		<path fill="#D9D8DE" d="M3405.65,1422.385c-49.536,0-99.073,0-148.61,0c-5.374,0-10.749,0-16.124,0
			c0.685,0.684,1.368,1.367,2.052,2.052c0-5.976,0-11.952,0-17.928c-0.684,0.685-1.367,1.368-2.052,2.052
			c49.536,0,99.073,0,148.61,0c5.374,0,10.749,0,16.124,0c-0.685-0.684-1.368-1.367-2.052-2.052c0,5.976,0,11.952,0,17.928
			c0,2.646,4.104,2.646,4.104,0c0-5.976,0-11.952,0-17.928c0-1.118-0.934-2.052-2.052-2.052c-49.536,0-99.073,0-148.61,0
			c-5.374,0-10.749,0-16.124,0c-1.118,0-2.052,0.934-2.052,2.052c0,5.976,0,11.952,0,17.928c0,1.118,0.934,2.052,2.052,2.052
			c49.536,0,99.073,0,148.61,0c5.374,0,10.749,0,16.124,0C3408.296,1426.488,3408.296,1422.385,3405.65,1422.385z"/>
	</g>
</g>
</svg>
