<?xml version="1.0" encoding="utf-8"?>
<!-- Generator: Adobe Illustrator 16.0.4, SVG Export Plug-In . SVG Version: 6.00 Build 0)  -->
<!DOCTYPE svg PUBLIC "-//W3C//DTD SVG 1.1//EN" "http://www.w3.org/Graphics/SVG/1.1/DTD/svg11.dtd">
<svg version="1.1" id="Layer_1" xmlns="http://www.w3.org/2000/svg" xmlns:xlink="http://www.w3.org/1999/xlink" x="0px" y="0px"
	 width="98.303px" height="57.592px" viewBox="0 0 98.303 57.592" enable-background="new 0 0 98.303 57.592" xml:space="preserve">
<g>
	
		<path fill="#F4ECE1" stroke="#1D1B3A" stroke-width="0.9932" stroke-linecap="round" stroke-linejoin="round" stroke-miterlimit="10" d="
		M2.54,36.737c0,0,21.328-1.629,28.184-4.886s10.116-4.933,10.116-4.933s3.064,15.073,0,14.797
		c-3.062-0.277-10.116,0.806-12.803-0.239S0.497,51.499,0.497,51.499"/>
	
		<path fill="#FFFFFF" stroke="#1D1B3A" stroke-width="0.9932" stroke-linecap="round" stroke-linejoin="round" stroke-miterlimit="10" d="
		M97.806,28.796c0,15.63-13.513,28.299-30.182,28.299c-16.67,0-30.183-12.669-30.183-28.299c0-15.629,13.513-28.3,30.183-28.3
		C84.293,0.497,97.806,13.167,97.806,28.796z M67.625,10.933c-10.211,0-18.488,7.998-18.488,17.864
		c0,9.865,8.277,17.862,18.488,17.862c10.21,0,18.487-7.997,18.487-17.862C86.112,18.931,77.834,10.933,67.625,10.933z"/>
	
		<path fill="#F4ECE1" stroke="#1D1B3A" stroke-width="0.9932" stroke-linecap="round" stroke-linejoin="round" stroke-miterlimit="10" d="
		M53.642,26.077c0.686-2.705-0.593-5.508-2.874-5.402c-3.992,0.186-6.791,1.907-6.193,3.905c0.507,1.691,6.013-0.721,5.64,0
		C47.811,29.227,52.958,28.781,53.642,26.077z"/>
	
		<path fill="#F4ECE1" stroke="#1D1B3A" stroke-width="0.9932" stroke-linecap="round" stroke-linejoin="round" stroke-miterlimit="10" d="
		M54.598,29.558c1.089-2.038-1.541-5.281-3.938-5.169c-4.192,0.195-7.131,2.002-6.503,4.1c0.532,1.776,5.69-0.82,5.922,0
		C50.312,29.309,50.965,36.353,54.598,29.558z"/>
	
		<path fill="#F4ECE1" stroke="#1D1B3A" stroke-width="1.069" stroke-linecap="round" stroke-linejoin="round" stroke-miterlimit="10" d="
		M53.587,34.992c1.526-2.522,0.768-6.339-2.053-6.229c-4.934,0.191-8.392,1.972-7.653,4.036c0.626,1.749,5.788-0.858,6.062-0.051
		C49.943,32.749,52.062,37.516,53.587,34.992z"/>
	
		<path fill="#F4ECE1" stroke="#1D1B3A" stroke-width="0.9932" stroke-linecap="round" stroke-linejoin="round" stroke-miterlimit="10" d="
		M50.328,33.076c-3.282-0.497-5.642,1.584-5.144,3.243c0.27,0.904,2.088,0.371,3.378,0.052c0.578-0.143,1.037-0.233,1.216-0.143
		c0.06-0.002,0.111-0.017,0.172-0.017c0.979,0,1.317,0.891,1.904,1.377c0.186-0.014,0.454,0.983,0.64,0.967
		C52.494,38.555,55.235,33.82,50.328,33.076z"/>
	
		<path fill="#F4ECE1" stroke="#1D1B3A" stroke-width="0.9932" stroke-linecap="round" stroke-linejoin="round" stroke-miterlimit="10" d="
		M24.633,34.285c7.826-7.473,4.074-8.963,7.098-11.316c3.022-2.353,5.373-3.839,7.053-3.936s5.71,3.951,4.702,5.622
		c-1.008,1.67-4.702-1.686-4.702-1.686l-3.022,4.053c0,0,1.184,3.024,1.184,5.349"/>
	
		<path fill="#E73938" stroke="#1D1B3A" stroke-width="0.9932" stroke-linecap="round" stroke-linejoin="round" stroke-miterlimit="10" d="
		M51.716,19.727l-10.877-6.314c0,0,7.06-9.205,9.193-9.205l7.689,10.126C57.722,14.334,52.869,17.328,51.716,19.727z"/>
	
		<path fill="#E73938" stroke="#1D1B3A" stroke-width="0.9932" stroke-linecap="round" stroke-linejoin="round" stroke-miterlimit="10" d="
		M84.087,20.673l9.698-7.377c0,0-6.859-8.14-8.933-8.14l-7.473,8.955C77.38,14.111,82.968,18.551,84.087,20.673z"/>
	
		<path fill="#E73938" stroke="#1D1B3A" stroke-width="0.9932" stroke-linecap="round" stroke-linejoin="round" stroke-miterlimit="10" d="
		M83.083,37.637l11.299,5.522c0,0-6.385,9.686-8.513,9.837l-8.393-9.553C77.476,43.444,82.104,40.112,83.083,37.637z"/>
	
		<path fill="#E73938" stroke="#1D1B3A" stroke-width="0.9932" stroke-linecap="round" stroke-linejoin="round" stroke-miterlimit="10" d="
		M52.849,38.915l-10.398,7.074c0,0,7.697,8.678,9.825,8.525l6.947-10.648C59.223,43.866,54.169,41.225,52.849,38.915z"/>
</g>
</svg>
