<?xml version="1.0" encoding="utf-8"?>
<!-- Generator: Adobe Illustrator 16.0.4, SVG Export Plug-In . SVG Version: 6.00 Build 0)  -->
<!DOCTYPE svg PUBLIC "-//W3C//DTD SVG 1.1//EN" "http://www.w3.org/Graphics/SVG/1.1/DTD/svg11.dtd">
<svg version="1.1" id="Layer_1" xmlns="http://www.w3.org/2000/svg" xmlns:xlink="http://www.w3.org/1999/xlink" x="0px" y="0px"
	 width="24.66px" height="23.754px" viewBox="0 0 24.66 23.754" enable-background="new 0 0 24.66 23.754" xml:space="preserve">
<g>
	<polygon fill="#1D1B3A" points="13.845,0 7.978,3.965 2.689,3.85 2.542,10.618 7.926,10.735 13.52,14.95 	"/>
	<polygon fill="#1D1B3A" points="24.66,4.952 23.029,3.251 20.209,5.952 17.51,3.131 15.806,4.759 18.509,7.579 15.686,10.279 
		17.313,11.979 20.134,9.279 22.836,12.1 24.54,10.476 21.837,7.652 	"/>
</g>
<g>
	<path fill="#1D1B3A" d="M2.076,19.729c0.011-0.497,0.011-0.905-0.012-1.304l0.766,0.017l0.023,0.776h0.03
		c0.278-0.451,0.735-0.869,1.531-0.852c0.656,0.014,1.145,0.423,1.341,0.994h0.02c0.155-0.264,0.35-0.469,0.551-0.614
		c0.294-0.212,0.615-0.325,1.072-0.315c0.637,0.014,1.571,0.453,1.535,2.123l-0.062,2.835L8.018,23.37l0.06-2.725
		c0.02-0.926-0.306-1.49-1.013-1.506c-0.497-0.01-0.893,0.35-1.052,0.773C5.97,20.032,5.938,20.19,5.934,20.35l-0.064,2.974
		l-0.856-0.019l0.062-2.884c0.017-0.767-0.309-1.33-0.974-1.346c-0.548-0.012-0.955,0.418-1.104,0.852
		c-0.053,0.129-0.075,0.277-0.078,0.428l-0.063,2.903L2,23.239L2.076,19.729z"/>
	<path fill="#1D1B3A" d="M14.351,22.194c-0.011,0.498-0.01,0.936,0.011,1.314l-0.775-0.018l-0.032-0.787h-0.021
		c-0.237,0.383-0.754,0.879-1.61,0.86c-0.756-0.017-1.652-0.454-1.615-2.145l0.061-2.814l0.876,0.019l-0.058,2.666
		c-0.02,0.914,0.245,1.538,1.041,1.555c0.587,0.014,1.003-0.386,1.171-0.77c0.052-0.129,0.085-0.287,0.089-0.447l0.063-2.953
		l0.876,0.02L14.351,22.194z"/>
	<path fill="#1D1B3A" d="M16.963,17.365l-0.03,1.384l1.252,0.027l-0.014,0.666l-1.252-0.027l-0.057,2.596
		c-0.014,0.597,0.147,0.938,0.635,0.949c0.229,0.005,0.397-0.021,0.508-0.049l0.026,0.657c-0.171,0.065-0.44,0.11-0.778,0.103
		c-0.407-0.009-0.732-0.146-0.937-0.389c-0.243-0.264-0.324-0.693-0.312-1.26l0.058-2.627l-0.746-0.016l0.014-0.666l0.746,0.016
		l0.025-1.154L16.963,17.365z"/>
	<path fill="#1D1B3A" d="M19.541,21.372c-0.006,1.185,0.739,1.688,1.614,1.707c0.627,0.014,1.007-0.088,1.338-0.219l0.137,0.63
		c-0.312,0.132-0.843,0.279-1.608,0.263c-1.481-0.032-2.346-1.026-2.314-2.479s0.912-2.577,2.315-2.547
		c1.57,0.034,1.958,1.426,1.938,2.312c-0.004,0.179-0.026,0.317-0.038,0.407L19.541,21.372z M22.12,20.802
		c0.022-0.557-0.197-1.428-1.182-1.449c-0.885-0.019-1.291,0.788-1.374,1.394L22.12,20.802z"/>
</g>
</svg>
