<?xml version="1.0" encoding="utf-8"?>
<!-- Generator: Adobe Illustrator 16.0.4, SVG Export Plug-In . SVG Version: 6.00 Build 0)  -->
<!DOCTYPE svg PUBLIC "-//W3C//DTD SVG 1.1//EN" "http://www.w3.org/Graphics/SVG/1.1/DTD/svg11.dtd">
<svg version="1.1" id="backdrop-top" xmlns="http://www.w3.org/2000/svg" xmlns:xlink="http://www.w3.org/1999/xlink" x="0px"
	 y="0px" width="2554.794px" height="1427.054px" viewBox="0 0 2554.794 1427.054" enable-background="new 0 0 2554.794 1427.054"
	 xml:space="preserve">
<path fill="#D9D8DE" d="M2554.794,588.029c-98.57,1.531-210.231,4.209-330.231,8.695C1796.562,612.724,0,988.889,0,988.889v438.165
	l2554.794-0.001V588.029z"/>
<g>
	<polygon fill="#F4EDE1" points="1742.695,556.173 1742.667,555.955 1742.729,556.087 1742.749,556.222 	"/>
	<polygon fill="#F4EDE1" points="1739.617,598.781 1739.569,598.646 1739.67,598.81 	"/>
	<polygon fill="#F4EDE1" points="1746.474,574.22 1746.46,574.097 1746.591,574.259 1746.62,574.414 	"/>
	<path fill="#D9D8DE" d="M2554.794,529.947c-128.774-2.25-290.951-2.721-468.519,2.281C1768.345,541.183,0,727.279,0,727.279v69.125
		c0,0,1710.082-238.383,2120.774-247.678c169.015-3.824,316.636-6.035,434.02-7.311V529.947z"/>
	<g>
		
			<rect x="490.607" y="785.226" transform="matrix(0.0117 0.9999 -0.9999 0.0117 1394.436 181.5417)" fill="#D9D8DE" width="229.535" height="22"/>
		<rect x="500.786" y="707.466" fill="#D9D8DE" width="22" height="217.758"/>
		
			<rect x="784.85" y="657.466" transform="matrix(1 0.0016 -0.0016 1 1.2251 -1.2708)" fill="#D9D8DE" width="22" height="217.127"/>
		
			<rect x="688.47" y="669.437" transform="matrix(0.9997 0.023 -0.023 0.9997 18.1368 -15.877)" fill="#D9D8DE" width="22" height="222.59"/>
		
			<rect x="890.197" y="729.624" transform="matrix(0.0341 0.9994 -0.9994 0.0341 1695.842 -273.4857)" fill="#D9D8DE" width="198.432" height="22"/>
		
			<rect x="789.626" y="737.744" transform="matrix(0.0277 0.9996 -0.9996 0.0277 1618.6111 -166.5967)" fill="#D9D8DE" width="210.636" height="22"/>
		
			<rect x="988.197" y="714.624" transform="matrix(0.0341 0.9994 -0.9994 0.0341 1775.5066 -385.9167)" fill="#D9D8DE" width="198.432" height="22"/>
	</g>
	<g>
		
			<rect x="156.409" y="744.62" transform="matrix(1 0.0015 -0.0015 1 1.341 -0.2573)" fill="#D9D8DE" width="26.979" height="274.6"/>
		
			<rect x="41.811" y="759.764" transform="matrix(0.9998 0.0216 -0.0216 0.9998 19.4409 -0.9835)" fill="#D9D8DE" width="26.978" height="281.501"/>
		
			<rect x="274.58" y="836.303" transform="matrix(0.0321 0.9995 -0.9995 0.0321 1236.5681 422.6828)" fill="#D9D8DE" width="250.94" height="26.978"/>
		
			<rect x="154.534" y="846.571" transform="matrix(0.026 0.9997 -0.9997 0.026 1139.999 550.0344)" fill="#D9D8DE" width="266.379" height="26.978"/>
	</g>
	
		<rect x="1312.661" y="666.958" transform="matrix(0.0261 0.9997 -0.9997 0.0261 2013.2765 -713.3882)" fill="#D9D8DE" width="120.221" height="19.246"/>
	
		<rect x="1235.335" y="671.074" transform="matrix(0.0013 1 -1 0.0013 1979.8846 -621.0737)" fill="#D9D8DE" width="131.098" height="19.246"/>
	
		<rect x="1382.609" y="653.282" transform="matrix(0.0309 0.9995 -0.9995 0.0309 2058.8113 -797.585)" fill="#D9D8DE" width="116.198" height="19.245"/>
	
		<rect x="1505.544" y="641.868" transform="matrix(0.0244 0.9997 -0.9997 0.0244 2172.031 -925.0782)" fill="#D9D8DE" width="108.859" height="16.839"/>
	
		<rect x="1439.846" y="645.594" transform="matrix(0.0012 1 -1 0.0012 2151.3906 -845.9832)" fill="#D9D8DE" width="118.712" height="16.84"/>
	<rect x="1663.681" y="573.154" fill="#D9D8DE" width="15.926" height="98.924"/>
	<rect x="1602.971" y="584.867" fill="#D9D8DE" width="15.926" height="98.924"/>
	<polygon fill="#D9D8DE" points="1789.134,649.533 1775.198,659.533 1775.198,562.613 1789.134,562.613 	"/>
	<rect x="1821.198" y="557.947" fill="#D9D8DE" width="13.936" height="86.918"/>
	<rect x="1863.196" y="554.947" fill="#D9D8DE" width="13.936" height="86.918"/>
	<rect x="1722.519" y="571.572" fill="#D9D8DE" width="13.936" height="86.918"/>
	<polygon fill="#F4EDE1" points="2005.291,572.82 2005.259,572.705 2005.327,572.843 	"/>
	<rect x="1952.853" y="551.027" fill="#D9D8DE" width="12.131" height="84.121"/>
	
		<rect x="1869.699" y="591.602" transform="matrix(0.0075 1 -1 0.0075 2500.3486 -1323.9224)" fill="#D9D8DE" width="94.886" height="12.131"/>
	<rect x="2029.012" y="542.062" fill="#D9D8DE" width="10.615" height="73.914"/>
	<rect x="2060.396" y="538.095" fill="#D9D8DE" width="10.615" height="73.912"/>
	<rect x="2089.048" y="535.544" fill="#D9D8DE" width="10.615" height="73.912"/>
	<rect x="1993.072" y="549.681" fill="#D9D8DE" width="10.615" height="73.912"/>
	<rect x="2183.611" y="534.398" fill="#D9D8DE" width="9.525" height="64.518"/>
	<rect x="2153.243" y="535.187" fill="#D9D8DE" width="9.525" height="74.514"/>
	
		<rect x="2094.122" y="566.963" transform="matrix(0.0268 0.9996 -0.9996 0.0268 2640.5725 -1568.9902)" fill="#D9D8DE" width="64.021" height="9.525"/>
	<rect x="2266.106" y="531.4" fill="#D9D8DE" width="9.525" height="64.518"/>
	<rect x="2235.738" y="532.189" fill="#D9D8DE" width="9.525" height="64.514"/>
	<rect x="2210.393" y="536.21" fill="#D9D8DE" width="9.525" height="64.516"/>
	<rect x="2353.102" y="531.4" fill="#D9D8DE" width="9.525" height="64.518"/>
	<rect x="2322.733" y="532.189" fill="#D9D8DE" width="9.525" height="64.514"/>
	<rect x="2294.554" y="536.21" fill="#D9D8DE" width="9.525" height="64.516"/>
	<rect x="2452.097" y="532.9" fill="#D9D8DE" width="9.525" height="64.518"/>
	<rect x="2421.729" y="533.689" fill="#D9D8DE" width="9.525" height="64.514"/>
	<rect x="2396.383" y="537.71" fill="#D9D8DE" width="9.525" height="64.516"/>
	<rect x="2539.092" y="532.9" fill="#D9D8DE" width="9.525" height="64.518"/>
	<rect x="2508.724" y="533.689" fill="#D9D8DE" width="9.525" height="64.514"/>
	<rect x="2480.544" y="537.71" fill="#D9D8DE" width="9.525" height="64.516"/>
	
		<rect x="1167.335" y="686.074" transform="matrix(0.0013 1 -1 0.0013 1926.9731 -538.0935)" fill="#D9D8DE" width="131.098" height="19.246"/>
	
		<rect x="1100.335" y="696.074" transform="matrix(0.0013 1 -1 0.0013 1870.0605 -461.1064)" fill="#D9D8DE" width="131.098" height="19.246"/>
</g>
</svg>
