<?xml version="1.0" encoding="utf-8"?>
<!-- Generator: Adobe Illustrator 16.0.4, SVG Export Plug-In . SVG Version: 6.00 Build 0)  -->
<!DOCTYPE svg PUBLIC "-//W3C//DTD SVG 1.1//EN" "http://www.w3.org/Graphics/SVG/1.1/DTD/svg11.dtd">
<svg version="1.1" id="char2" xmlns="http://www.w3.org/2000/svg" xmlns:xlink="http://www.w3.org/1999/xlink" x="0px" y="0px"
	 width="2554.794px" height="1427.054px" viewBox="0 0 2554.794 1427.054" enable-background="new 0 0 2554.794 1427.054"
	 xml:space="preserve">
<g>
	<path fill="#D9D8DE" d="M1305.233,508.532l63.305,20.16c0,0-11.803,46.221-12.611,61.925c-0.811,15.703-0.629,42.696-0.629,42.696
		l-67.595-4.876l2.659-106.689l14.224-0.02L1305.233,508.532z"/>
	<path fill="#F4EDE1" d="M1333.767,591.013l-0.35-0.642l-0.452-0.556l-0.418-0.411l-0.318-0.277l-0.161-0.129
		c-0.008-0.009-0.02-0.017-0.029-0.022l-0.314-0.24l-0.626-0.43l-0.682-0.414l-0.732-0.398l-0.777-0.383l-0.83-0.376l-1.313-0.539
		l-1.864-0.684l-1.98-0.644l-2.064-0.609l-2.115-0.578l-2.136-0.545l-2.125-0.509l-2.078-0.479l-2.002-0.449l-1.891-0.413
		l-1.326-0.291l-0.831-0.181l-0.362-0.081l0.463,0.036l1.927,0.164l2.672,0.246l2.734,0.252l2.731,0.23l2.673,0.181l1.924,0.087
		l1.239,0.03l1.195,0.001l1.141-0.032l1.086-0.064l1.027-0.11l0.962-0.155l0.897-0.216l0.837-0.294l0.722-0.355l0.249-0.161
		c0.054-0.035,0.105-0.075,0.155-0.116l0.368-0.41l0.322-0.733l0.058-0.692l-0.098-0.596l-0.182-0.521l-0.25-0.487l-0.308-0.468
		l-0.36-0.454l-0.415-0.449l-0.468-0.433l-0.518-0.42l-0.569-0.396l-0.615-0.369l-0.658-0.336l-0.705-0.295l-0.715-0.235
		l-0.333-0.091c-0.014-0.006-0.03-0.009-0.041-0.012l-0.112-0.027l-0.225-0.042l-0.403-0.069l-0.669-0.1l-0.819-0.108l-0.94-0.115
		l-1.035-0.124l-1.666-0.186l-2.294-0.243l-1.659-0.165l-1.025-0.097l-0.929-0.082l-0.807-0.065l-0.507-0.037l-0.292-0.02
		l-0.254-0.011l-0.21-0.009h-0.068h-0.006h-0.229l-0.553-0.012l-0.651-0.02l-0.745-0.033l-0.826-0.038l-0.905-0.052l-0.973-0.059
		l-1.035-0.06l-1.655-0.105l-2.357-0.144l-2.484-0.153l-2.554-0.146l-2.575-0.132l-2.536-0.108l-2.447-0.075l-1.74-0.024
		l-1.109-0.004l-1.058,0.01l-1.005,0.023l-0.941,0.043l-0.875,0.057l-0.807,0.081l-0.738,0.103l-0.673,0.14l-0.581,0.169
		l-0.196,0.072c-0.092,0.039-0.18,0.083-0.263,0.142l-0.359,0.327l-0.243,0.346l-0.172,0.336l-0.164,0.38l-0.167,0.437l-0.176,0.499
		l-0.183,0.557l-0.193,0.619l-0.303,1.019l-0.425,1.503l-0.443,1.629l-0.449,1.705l-0.447,1.731l-0.434,1.711l-0.411,1.637
		l-0.379,1.514l-0.258,1.026l-0.155,0.614l-0.142,0.556l-0.125,0.491l-0.107,0.411l-0.089,0.328l-0.061,0.219l-0.025,0.085
		l-0.004,0.018l-0.246,0.564l-0.501,1.138l-0.473,1.061l-0.448,0.988l-0.422,0.914l-0.4,0.848l-0.372,0.783l-0.351,0.722
		l-0.329,0.654l-0.308,0.602l-0.285,0.545l-0.265,0.491l-0.248,0.442l-0.226,0.396l-0.208,0.351l-0.189,0.303l-0.247,0.38
		l-0.167,0.24c-0.31,0.212-0.563,0.503-0.75,0.869l-0.07,0.066l-0.312,0.301l-0.109,0.129c-0.504,0.593-0.478,1.525,0.061,2.085
		c0.055,0.054,0.111,0.097,0.171,0.14c0.06,3.441-0.26,7.082,1.514,9.98c0.218,0.002,0.436,0.012,0.654,0.035
		c4.542,0.465,8.533,1.686,12.59,3.211l0.048-0.016l0.645-0.322l0.636-0.386l0.639-0.452l0.929-0.761l1.209-1.146l1.19-1.266
		l1.167-1.348l1.138-1.374l1.093-1.36l1.041-1.293l0.74-0.907l0.464-0.552l0.442-0.507l0.417-0.452l0.381-0.39l0.34-0.322
		l0.262-0.222l0.241,0.149l0.396,0.264l0.459,0.318l0.52,0.364l0.569,0.412l0.621,0.449l0.664,0.482l0.706,0.507l1.131,0.809
		l1.614,1.131l1.711,1.158l1.787,1.148l1.838,1.101l1.861,1.021l1.854,0.892l1.37,0.567l0.912,0.321l0.902,0.268l0.891,0.214
		l0.88,0.146l0.837,0.07l0.366,0.007c0.015-0.001,0.031-0.001,0.044-0.001l0.157-0.002l0.352-0.021l0.622-0.061l0.688-0.126
		l0.498-0.142l0.534-0.232l0.492-0.357l0.089-0.092c0.077-0.082,0.146-0.17,0.203-0.271l0.217-0.571l0.01-0.655l-0.116-0.429
		l-0.165-0.344l-0.245-0.385l-0.378-0.475l-0.468-0.507l-0.562-0.557l-0.651-0.602l-0.733-0.65l-0.258-0.221l1.218,0.436
		l1.069,0.335l1.063,0.283l1.049,0.228l1.039,0.175l1.025,0.104l1.007,0.038l0.989-0.038l0.966-0.124l0.939-0.214l0.909-0.314
		l0.83-0.401l0.344-0.206c0.061-0.035,0.114-0.073,0.166-0.115l0.444-0.534l0.227-0.958l-0.128-0.682l-0.219-0.46l-0.256-0.386
		l-0.298-0.363l-0.343-0.363l-0.388-0.372l-0.428-0.387l-0.477-0.403l-0.772-0.622l-1.127-0.854l-1.206-0.874l-1.246-0.873
		l-1.241-0.845l-1.195-0.797l-0.839-0.55l-0.524-0.341l-0.489-0.316l-0.446-0.285l-0.4-0.255l-0.351-0.221l-0.292-0.187
		l-0.227-0.144l-0.157-0.097l-0.069-0.041l-0.873-0.613l-1.778-1.137l-2.671-1.544l-3.521-1.929l-2.564-1.502l-1.117-0.736
		l0.777,0.126l1.309,0.236l1.341,0.253l1.333,0.264l1.279,0.261l1.188,0.249l0.808,0.17l0.487,0.106l0.442,0.096l0.395,0.083
		l0.338,0.072l0.281,0.057l0.223,0.048l0.166,0.033l0.041,0.005c0.009,0,0.018,0.003,0.025,0.005l0.103,0.016l0.292,0.046
		l0.395,0.055l0.49,0.067l0.579,0.075l0.656,0.086l0.729,0.089l0.79,0.093l1.279,0.143l1.83,0.177l1.917,0.155l1.927,0.108
		l1.408,0.043l0.912,0.006l0.881-0.016l0.839-0.038l0.796-0.066l0.75-0.101l0.699-0.146l0.664-0.201l0.632-0.3l0.612-0.488
		l0.48-0.792l0.127-0.957L1333.767,591.013z"/>
	<polygon fill="#F4EDE1" points="1280.412,573.398 1280.379,573.471 1280.353,573.502 	"/>
	<polygon fill="#F4EDE1" points="1281.724,605.223 1281.839,605.266 1281.849,605.271 1281.827,605.271 	"/>
	<polygon fill="#F4EDE1" points="1288.649,590.681 1288.617,590.701 1288.541,590.703 1288.641,590.681 	"/>
	<polygon fill="#F4EDE1" points="1286.788,589.399 1286.788,589.466 1286.779,589.453 	"/>
	<polygon fill="#F4EDE1" points="1285.861,580.338 1285.818,580.384 1285.795,580.375 	"/>
	<path fill="#F4EDE1" d="M1177.373,525.799l-1.884-43.511l-2.938-50.179l37.749-18.988l30.091-13.129
		c0,0,14.95,18.347,13.205,45.831c-1.745,27.479-0.271,2.75-0.271,2.75l22.15,11.788c0,0-9.524,12.729-26.083,12.692
		c0,0-8.634,28.011-19.847,31.979c-11.212,3.968-28.358-0.382-28.358-0.382l-0.339,27.875
		C1200.846,532.526,1177.916,545.806,1177.373,525.799z"/>
	<path fill="#F2C132" d="M1245.862,394.792c0,0-33.708,17.124-39.96,31.949c-6.25,14.829-5.224,22.861-5.224,22.861
		s-21.95-26.119-24.039-9.092c-2.916,23.785,3.505,22.52,3.505,22.52l1.181,24.921l-10.889,3.384c0,0-24.987-23.354-22.915-48.801
		c1.241-15.217,3.51-36.843,3.51-36.843s-51.682,5.239-34.006-38.391c17.673-43.629,50.775-18.899,51.502-8.732
		c0.724,10.163,2.41,27.761,2.41,27.761S1212.076,371.032,1245.862,394.792z"/>
	<path fill="#FFFFFF" d="M1168.695,648.835c0,0-10.809-27.997-45.692-23.113c0,0,1.288,24.193,33.003,26.234
		c0,0-32.104,10.633-35.277,26.927c0,0,22.205,6.831,30.763-3.687C1160.052,664.677,1168.695,648.835,1168.695,648.835z"/>
	<path fill="#1D1B3A" stroke="#1D1B3A" stroke-width="0.7859" stroke-miterlimit="10" d="M1189.883,817.017
		c-1.617,4.08-7.574,35.908-2.514,68.721c0.96,6.226,5.597,47.787,6.478,53.827c1.011,6.918-7.965,11.999-8.971,18.866
		c-1.094,7.468-0.539,12.84-0.501,20.379c0.019,3.34,4.67,1.9,9.679,0.858c2.058-0.429,0.77-13.335,2.662-15.271
		c1.349-1.382,4.184,11.259,12.254,14.157c8.64,3.102,41.238,6.17,39.482-3.45c-0.558-3.058-16.794-1.274-24.845-7.27
		c-6.111-4.552-20.616-23.321-20.397-30.785c1.462-50.073,5.212-96.022,6.006-123.535"/>
	<path fill="#1D1B3A" stroke="#1D1B3A" stroke-width="0.7859" stroke-miterlimit="10" d="M1188.647,816.457l-0.08,0.211
		l-0.198,0.608l-0.214,0.753l-0.225,0.892l-0.238,1.021l-0.249,1.16l-0.258,1.297l-0.265,1.419l-0.269,1.546l-0.27,1.663
		l-0.269,1.781l-0.263,1.891l-0.256,1.999l-0.246,2.1l-0.234,2.195l-0.219,2.289l-0.2,2.374l-0.18,2.454l-0.156,2.535l-0.126,2.605
		l-0.099,2.675l-0.066,2.734l-0.031,2.794l0.007,2.847l0.048,2.897l0.092,2.938l0.138,2.978l0.188,3.013l0.24,3.043l0.296,3.062
		l0.354,3.083l0.416,3.1l0.232,1.561c0.001,0.002,0.001,0.002,0.001,0.002l0.022,0.151l0.05,0.338l0.083,0.596l0.13,0.962
		l0.146,1.139l0.165,1.303l0.181,1.452l0.194,1.589l0.207,1.712l0.219,1.822l0.229,1.921l0.237,2.006l0.245,2.076l0.377,3.215
		l0.516,4.414l0.521,4.47l0.515,4.414l0.376,3.211l0.241,2.07l0.235,1.997l0.225,1.916l0.215,1.818l0.203,1.704l0.191,1.581
		l0.174,1.447l0.162,1.298l0.143,1.136l0.124,0.961l0.082,0.602l0.046,0.346l0.024,0.151l-0.005-0.031l0.041,0.322l0.027,0.534
		l-0.018,0.492l-0.058,0.49l-0.163,0.763l-0.344,1.011l-0.473,1.006l-0.592,1.033l-0.692,1.054l-0.77,1.075l-1.244,1.655
		l-1.264,1.703l-0.822,1.182l-0.763,1.224l-0.682,1.275l-0.569,1.343l-0.338,1.079l-0.172,0.757l-0.068,0.407
		c-0.002,0.01-0.004,0.021-0.006,0.035l-0.098,0.693l-0.171,1.382l-0.139,1.351l-0.106,1.312l-0.108,1.916l-0.063,2.487l0.002,2.458
		l0.045,2.473l0.06,2.531l0.049,2.643l0.012,1.372c0,0.011,0.002,0.022,0.002,0.029l0.003,0.154l0.035,0.401l0.127,0.598
		l0.328,0.748l0.538,0.667l0.67,0.476l0.722,0.281l0.74,0.144l0.755,0.042l0.775-0.026l0.804-0.08l0.828-0.122l0.857-0.152
		l1.322-0.271l1.834-0.397l0.928-0.198c0.037-0.008,0.072-0.018,0.109-0.028l0.093-0.028l0.48-0.255l0.447-0.428l0.305-0.469
		l0.213-0.479l0.159-0.486l0.125-0.503l0.103-0.521l0.119-0.814l0.122-1.182l0.093-1.263l0.072-1.312l0.098-1.99l0.115-1.93
		l0.099-1.177l0.127-1.058l0.115-0.673l0.085-0.371l0.091-0.319l0.093-0.249l0.084-0.16l0.058-0.061l-0.034,0.06l-0.147,0.144
		l0.065-0.054l-0.259,0.18l-0.491,0.084l-0.289-0.076l-0.065-0.02l0.058,0.094l0.126,0.196l0.166,0.278l0.195,0.346l0.218,0.41
		l0.369,0.71l0.558,1.08l0.64,1.203l0.726,1.288l0.818,1.333l0.914,1.347l1.02,1.319l1.138,1.261l0.946,0.895l0.68,0.562
		l0.703,0.514l0.738,0.471l0.772,0.422l0.812,0.369l0.442,0.169c0.012,0.006,0.026,0.008,0.039,0.015l0.421,0.146l0.986,0.301
		l1.112,0.299l1.219,0.289l1.313,0.277l1.405,0.268l1.481,0.253l1.551,0.232l1.611,0.218l1.66,0.199l2.555,0.254l3.481,0.245
		l2.633,0.104l1.743,0.025l1.713-0.006l1.683-0.049l1.638-0.09l1.584-0.137l1.524-0.177l1.453-0.231l1.37-0.287l1.283-0.341
		l1.186-0.407l1.084-0.478l0.973-0.56l0.679-0.504l0.42-0.382l0.367-0.405l0.33-0.44l0.284-0.481l0.23-0.522l0.171-0.557
		l0.104-0.584l0.036-0.608l-0.037-0.615l-0.05-0.352c-0.01-0.055-0.021-0.109-0.036-0.167l-0.038-0.14l-0.278-0.6l-0.458-0.553
		l-0.515-0.387l-0.542-0.285l-0.571-0.225l-0.609-0.185l-0.649-0.163l-0.691-0.146l-0.736-0.132l-1.174-0.178l-1.702-0.232
		l-1.826-0.232l-1.919-0.257l-1.972-0.299l-1.998-0.359l-1.983-0.435l-1.936-0.529l-1.387-0.463l-0.885-0.344l-0.861-0.378
		l-0.821-0.411l-0.783-0.439l-0.733-0.477l-0.329-0.24l0.032,0.021l-0.292-0.223l-0.585-0.478l-0.625-0.553l-0.671-0.631
		l-0.71-0.695l-0.745-0.766l-0.774-0.823l-0.796-0.877l-1.233-1.412l-1.682-2.023l-1.692-2.146l-1.669-2.239l-1.611-2.291
		l-1.519-2.299l-1.052-1.705l-0.655-1.115l-0.615-1.099l-0.569-1.077l-0.516-1.044l-0.458-1.005l-0.4-0.965l-0.335-0.913
		l-0.265-0.854l-0.194-0.786l-0.12-0.71l-0.045-0.619l0.006-0.229v0.055l0.144-4.683l0.323-9.275l0.364-9.144l0.402-8.999
		l0.426-8.825l0.331-6.497l0.228-4.265l0.229-4.215l0.229-4.157l0.231-4.096l0.23-4.036l0.229-3.972l0.226-3.905l0.222-3.834
		l0.218-3.762l0.214-3.687l0.207-3.61l0.198-3.527l0.192-3.45l0.185-3.36l0.171-3.272l0.16-3.182l0.149-3.095l0.137-2.993
		l0.123-2.894l0.107-2.8l0.091-2.691l0.039-1.31c0.024-0.812-0.554-1.496-1.292-1.525c-0.738-0.026-1.355,0.609-1.378,1.424
		l-0.04,1.297l-0.092,2.679l-0.106,2.783l-0.121,2.887l-0.137,2.986l-0.149,3.084l-0.161,3.175l-0.172,3.27l-0.181,3.356
		l-0.192,3.443l-0.199,3.529l-0.207,3.605l-0.212,3.688l-0.22,3.76l-0.223,3.837l-0.225,3.903l-0.229,3.974l-0.229,4.041
		l-0.23,4.099l-0.231,4.161l-0.229,4.218l-0.226,4.271l-0.334,6.503l-0.428,8.844l-0.4,9.007l-0.366,9.165l-0.323,9.286
		l-0.144,4.684c-0.002,0.018,0,0.033,0,0.053l0.005,0.491l0.082,0.903l0.167,0.939l0.244,0.967l0.314,0.996l0.383,1.034l0.443,1.063
		l0.5,1.09l0.552,1.116l0.601,1.136l0.646,1.155l0.69,1.178l1.102,1.776l1.567,2.373l1.658,2.354l1.716,2.299l1.739,2.206
		l1.727,2.08l1.269,1.452l0.83,0.911l0.811,0.865l0.785,0.803l0.762,0.746l0.731,0.685l0.699,0.613l0.656,0.535l0.292,0.222
		c0.01,0.009,0.02,0.02,0.032,0.028l0.438,0.311l0.866,0.556l0.904,0.51l0.934,0.464l0.962,0.417l0.996,0.383l1.519,0.506
		l2.056,0.557l2.076,0.454l2.063,0.371l2.015,0.304l1.931,0.259l1.812,0.229l1.656,0.226l1.117,0.174l0.668,0.116l0.604,0.123
		l0.528,0.128l0.44,0.13l0.341,0.122l0.227,0.102l0.102,0.036l-0.003-0.079l0.005-0.082l0.038,0.14l-0.036-0.17l0.021,0.097
		l0.028,0.25l0.003,0.22l-0.021,0.208l-0.046,0.201l-0.075,0.2l-0.106,0.208l-0.146,0.215l-0.188,0.219l-0.212,0.208l-0.414,0.327
		l-0.726,0.43l-0.88,0.401l-1.022,0.354l-1.146,0.31l-1.256,0.263l-1.356,0.218l-1.44,0.173l-1.513,0.13l-1.577,0.087l-1.624,0.045
		l-1.661,0.012l-1.688-0.029l-2.557-0.099l-3.414-0.241l-2.506-0.248l-1.621-0.192l-1.57-0.213l-1.511-0.228l-1.438-0.244
		l-1.351-0.256l-1.257-0.264l-1.147-0.271l-1.026-0.272l-0.904-0.278l-0.423-0.146l0.04,0.014l-0.306-0.114l-0.644-0.285
		l-0.618-0.33l-0.598-0.376l-0.579-0.419l-0.543-0.44l-0.787-0.733l-0.998-1.095l-0.916-1.174l-0.836-1.225l-0.76-1.243l-0.69-1.221
		l-0.624-1.169l-0.563-1.091l-0.385-0.744l-0.247-0.457l-0.242-0.429l-0.242-0.398l-0.256-0.376l-0.297-0.359l-0.398-0.349
		l-0.604-0.269l-0.78,0.027l-0.528,0.283l-0.065,0.051c-0.051,0.046-0.101,0.095-0.147,0.147l-0.208,0.259l-0.26,0.424l-0.2,0.442
		l-0.161,0.465l-0.133,0.486l-0.114,0.527l-0.139,0.828l-0.14,1.171l-0.104,1.257l-0.117,1.96l-0.097,1.973l-0.07,1.256
		l-0.083,1.168l-0.104,1.042l-0.098,0.679l-0.068,0.367l-0.069,0.301l-0.061,0.218l-0.036,0.115l0.027,0.011l0.135-0.07l0.132-0.031
		l-0.094,0.03l0.108-0.03l-0.938,0.199l-1.804,0.394l-1.266,0.259l-0.782,0.142l-0.722,0.107l-0.651,0.07l-0.567,0.026l-0.464-0.014
		l-0.345-0.041l-0.213-0.04l-0.104-0.005l-0.063,0.022l-0.088-0.09l-0.055-0.161l-0.021-0.168l-0.004-0.157v0.031l-0.014-1.405
		l-0.049-2.659l-0.059-2.515l-0.045-2.418l-0.005-2.369l0.06-2.391l0.104-1.833l0.1-1.246l0.129-1.28l0.166-1.33l0.098-0.694
		l-0.004,0.039l0.036-0.238l0.107-0.51l0.233-0.786l0.45-1.091l0.577-1.095l0.686-1.102l0.766-1.107l1.253-1.688l1.289-1.71
		l0.837-1.178l0.79-1.216l0.71-1.262l0.598-1.328l0.44-1.374l0.208-1.063l0.075-0.753l0.014-0.764l-0.048-0.741l-0.041-0.322
		c-0.001-0.012-0.001-0.02-0.003-0.032l-0.022-0.141l-0.044-0.326l-0.079-0.587l-0.124-0.951l-0.143-1.127l-0.159-1.291
		l-0.176-1.439l-0.189-1.581l-0.204-1.706l-0.215-1.812l-0.227-1.913l-0.234-1.998l-0.243-2.068l-0.374-3.213l-0.515-4.414
		l-0.52-4.467l-0.516-4.417l-0.379-3.22l-0.244-2.078l-0.237-2.006l-0.228-1.923l-0.22-1.825l-0.208-1.714l-0.195-1.598l-0.181-1.46
		l-0.166-1.312l-0.15-1.152l-0.131-0.984l-0.087-0.614l-0.05-0.352l-0.024-0.15v0.003l-0.225-1.515l-0.407-3.035l-0.349-3.028
		l-0.291-3.007l-0.237-2.988l-0.186-2.959l-0.137-2.928l-0.09-2.893l-0.048-2.847l-0.006-2.805l0.03-2.752l0.063-2.696l0.099-2.634
		l0.127-2.564l0.151-2.499l0.177-2.418l0.196-2.34l0.215-2.252l0.229-2.162l0.244-2.063l0.25-1.964l0.259-1.857l0.264-1.744
		l0.263-1.631l0.262-1.508l0.257-1.378l0.247-1.246l0.237-1.107l0.224-0.964l0.204-0.809l0.181-0.637l0.152-0.479l0.078-0.213
		c0.281-0.75-0.045-1.613-0.729-1.925C1189.708,815.345,1188.927,815.704,1188.647,816.457"/>
	<path fill="#1D1B3A" stroke="#1D1B3A" stroke-width="0.7859" stroke-miterlimit="10" d="M1223.765,790.615
		c-1.415,4.286-7.069,26.528-2.6,60.984c0.849,6.541,4.956,50.187,5.736,56.528c0.896,7.265-6.982,12.592-7.861,19.802
		c-0.953,7.841-0.459,13.479-0.419,21.396c0.017,3.51,4.101,2.001,8.498,0.91c1.806-0.446,0.667-13.998,2.324-16.032
		c1.182-1.447,3.684,11.827,10.771,14.876c7.589,3.266,36.212,6.516,34.664-3.586c-0.494-3.211-14.748-1.354-21.82-7.654
		c-5.37-4.784-18.123-24.507-17.938-32.345c1.24-52.577,4.944-89.649,5.616-118.537"/>
	<path fill="#1D1B3A" stroke="#1D1B3A" stroke-width="0.7859" stroke-miterlimit="10" d="M1222.505,790.121l-0.068,0.213
		l-0.162,0.528l-0.187,0.634l-0.2,0.737l-0.216,0.835l-0.229,0.935l-0.239,1.035l-0.247,1.131l-0.25,1.231l-0.254,1.324
		l-0.255,1.423l-0.249,1.518l-0.244,1.608l-0.238,1.698l-0.224,1.793l-0.213,1.885l-0.194,1.972l-0.176,2.061l-0.156,2.145
		l-0.132,2.235l-0.104,2.317l-0.075,2.4l-0.042,2.486l-0.008,2.565l0.03,2.646l0.068,2.729l0.111,2.802l0.155,2.885l0.205,2.961
		l0.254,3.031l0.31,3.109l0.363,3.183l0.206,1.625v0.002l0.019,0.161l0.044,0.353l0.075,0.629l0.115,1.012l0.13,1.198l0.145,1.366
		l0.161,1.529l0.172,1.669l0.183,1.798l0.194,1.915l0.202,2.016l0.209,2.105l0.217,2.181l0.333,3.376l0.458,4.639l0.461,4.693
		l0.456,4.63l0.331,3.373l0.216,2.176l0.206,2.1l0.202,2.01l0.189,1.906l0.181,1.791l0.168,1.665l0.156,1.519l0.139,1.359l0.13,1.19
		l0.109,1.01l0.072,0.63l0.041,0.355l0.02,0.164l-0.002-0.028l0.036,0.34l0.027,0.585l-0.016,0.544l-0.051,0.541l-0.145,0.832
		l-0.309,1.095l-0.422,1.079l-0.522,1.098l-0.95,1.69l-1.432,2.299l-1.106,1.777l-0.719,1.241l-0.669,1.281l-0.592,1.329
		l-0.492,1.393l-0.36,1.463l-0.128,0.802c-0.004,0.02-0.005,0.037-0.009,0.056l-0.084,0.731l-0.148,1.442l-0.12,1.412l-0.092,1.373
		l-0.093,1.999l-0.053,2.6l0.005,2.574l0.041,2.59l0.055,2.658l0.038,2.065l0.016,1.426l0.004,0.728c0,0.021,0,0.037,0.002,0.059
		l0.014,0.315l0.12,0.752l0.28,0.773l0.462,0.685l0.612,0.521l0.688,0.324l0.703,0.166l0.708,0.055l0.716-0.026l0.728-0.088
		l0.745-0.127l0.762-0.164l1.172-0.285l1.611-0.416l0.815-0.207c0.043-0.01,0.084-0.023,0.126-0.039l0.08-0.029l0.489-0.303
		l0.415-0.471l0.261-0.481l0.177-0.483l0.132-0.486l0.108-0.513l0.085-0.531l0.101-0.842l0.104-1.227l0.08-1.315l0.062-1.37
		l0.086-2.088l0.099-2.029l0.088-1.245l0.112-1.124l0.103-0.718l0.075-0.403l0.084-0.354l0.085-0.278l0.083-0.188l0.057-0.084
		l-0.027,0.061l-0.137,0.158l0.056-0.054l-0.291,0.23l-0.623,0.104l-0.359-0.125l-0.079-0.04l0.053,0.099l0.112,0.207l0.146,0.296
		l0.175,0.372l0.194,0.433l0.325,0.743l0.492,1.138l0.562,1.263l0.637,1.346l0.716,1.397l0.801,1.411l0.896,1.383l0.998,1.325
		l0.833,0.945l0.605,0.594l0.62,0.547l0.658,0.503l0.694,0.451l0.728,0.396l0.405,0.188c0.013,0.005,0.027,0.014,0.042,0.02
		l0.371,0.153l0.876,0.323l0.987,0.317l1.078,0.307l1.164,0.293l1.241,0.283l1.308,0.268l1.368,0.25l1.421,0.231l1.464,0.211
		l2.25,0.267l3.068,0.264l2.322,0.112l1.539,0.031l1.514-0.007l1.487-0.049l1.449-0.094l1.403-0.141l1.351-0.188l1.288-0.243
		l1.22-0.301l1.145-0.365l1.065-0.433l0.973-0.516l0.88-0.604l0.777-0.711l0.52-0.64l0.308-0.489l0.244-0.498l0.193-0.525
		l0.142-0.558l0.086-0.578l0.026-0.596l-0.033-0.608l-0.04-0.343c-0.006-0.048-0.017-0.096-0.025-0.143l-0.034-0.149l-0.229-0.58
		l-0.395-0.563l-0.467-0.421l-0.503-0.316l-0.527-0.25l-0.557-0.207l-0.585-0.176l-0.623-0.152l-0.654-0.145l-1.041-0.193
		l-1.5-0.242l-1.606-0.248l-1.681-0.271l-1.727-0.314l-1.744-0.374l-1.731-0.458l-1.682-0.553l-1.202-0.479l-0.764-0.357
		l-0.743-0.39l-0.713-0.423l-0.673-0.461l-0.634-0.494l-0.286-0.246l0.034,0.027l-0.258-0.234l-0.511-0.501l-0.546-0.576
		l-0.587-0.659l-0.624-0.732l-0.654-0.803l-0.68-0.863l-0.699-0.92l-1.083-1.487l-1.479-2.125l-1.488-2.259l-1.468-2.352
		l-1.418-2.406l-1.336-2.419l-1.225-2.389l-0.825-1.743l-0.497-1.128l-0.457-1.099l-0.405-1.066l-0.354-1.017l-0.299-0.968
		l-0.238-0.908l-0.174-0.845l-0.11-0.765l-0.044-0.682l0.004-0.266v0.046l0.06-2.455l0.13-4.835l0.144-4.746l0.155-4.66l0.164-4.569
		l0.177-4.485l0.185-4.406l0.191-4.32l0.2-4.242l0.205-4.161l0.211-4.086l0.213-4.007l0.217-3.932l0.219-3.86l0.22-3.786l0.22-3.715
		l0.219-3.646l0.215-3.576l0.214-3.514l0.206-3.443l0.206-3.381l0.199-3.315l0.189-3.262l0.182-3.192l0.173-3.14l0.164-3.081
		l0.152-3.023l0.139-2.972l0.126-2.914l0.113-2.866l0.096-2.816l0.083-2.762l0.032-1.369c0.021-0.812-0.561-1.49-1.299-1.515
		c-0.738-0.022-1.353,0.618-1.372,1.433l-0.036,1.351l-0.081,2.751l-0.094,2.797l-0.113,2.852l-0.124,2.906l-0.141,2.96l-0.15,3.014
		l-0.164,3.073l-0.171,3.134l-0.183,3.192l-0.19,3.254l-0.196,3.314l-0.206,3.379l-0.208,3.444l-0.211,3.512l-0.217,3.578
		l-0.219,3.651l-0.219,3.718l-0.22,3.792l-0.219,3.861l-0.217,3.94l-0.214,4.012l-0.212,4.093l-0.205,4.168l-0.198,4.251
		l-0.193,4.327l-0.185,4.414l-0.178,4.498l-0.164,4.581l-0.156,4.667l-0.144,4.757l-0.13,4.841l-0.06,2.454c0,0.016,0,0.027,0,0.045
		l0.003,0.484l0.07,0.924l0.146,0.961l0.209,1l0.275,1.035l0.333,1.077l0.385,1.107l0.438,1.144l0.485,1.167l0.53,1.197l0.868,1.829
		l1.267,2.475l1.38,2.491l1.456,2.47l1.508,2.414l1.528,2.319l1.521,2.186l1.116,1.522l0.729,0.963l0.71,0.904l0.692,0.848
		l0.669,0.788l0.646,0.715l0.618,0.654l0.578,0.562l0.257,0.237c0.01,0.007,0.021,0.017,0.033,0.026l0.389,0.334l0.772,0.592
		l0.807,0.543l0.832,0.493l0.856,0.446l0.886,0.406l1.354,0.54l1.821,0.592l1.838,0.483l1.821,0.391l1.775,0.321l1.699,0.274
		l1.587,0.244l1.447,0.234l0.975,0.179l0.575,0.124l0.516,0.128l0.444,0.129l0.367,0.128l0.275,0.116l0.176,0.087l0.072,0.021
		l0.003-0.069l0.022-0.035l0.033,0.146l-0.024-0.142l0.019,0.126l0.026,0.3v0.274l-0.024,0.252l-0.047,0.239l-0.074,0.23
		l-0.098,0.229l-0.109,0.198l-0.236,0.328l-0.466,0.462l-0.613,0.438l-0.751,0.405l-0.874,0.366l-0.985,0.318l-1.087,0.272
		l-1.177,0.226l-1.249,0.176l-1.319,0.132l-1.372,0.089l-1.418,0.051l-1.45,0.009l-1.471-0.032l-2.234-0.105l-2.986-0.254
		l-2.194-0.264l-1.418-0.201l-1.374-0.224l-1.319-0.237l-1.257-0.257l-1.178-0.268l-1.093-0.276l-1-0.285l-0.892-0.283l-0.781-0.287
		l-0.371-0.152l0.043,0.018l-0.255-0.112l-0.549-0.29l-0.528-0.34l-0.517-0.387l-0.501-0.432l-0.473-0.46l-0.692-0.771l-0.875-1.148
		l-0.806-1.238l-0.74-1.291l-0.671-1.305l-0.608-1.29l-0.549-1.23l-0.494-1.146l-0.339-0.775l-0.217-0.48l-0.21-0.445l-0.209-0.414
		l-0.225-0.394l-0.261-0.378l-0.373-0.384l-0.633-0.33l-0.877,0.049l-0.53,0.339l-0.056,0.055c-0.05,0.05-0.094,0.104-0.135,0.162
		l-0.181,0.267l-0.219,0.429l-0.169,0.442l-0.136,0.467l-0.114,0.495l-0.096,0.539l-0.119,0.851l-0.122,1.22l-0.088,1.313
		l-0.1,2.054l-0.085,2.072l-0.061,1.324l-0.072,1.237l-0.095,1.111l-0.086,0.722l-0.062,0.403l-0.064,0.334l-0.06,0.248l-0.04,0.145
		l0.019,0.02l0.141-0.095l0.182-0.071l-0.082,0.033l0.123-0.042l-0.824,0.212l-1.58,0.41l-1.102,0.27l-0.675,0.145l-0.616,0.111
		l-0.549,0.067l-0.465,0.027l-0.364-0.006l-0.246-0.026l-0.137-0.015l-0.067,0.018l-0.066,0.002l-0.085-0.108l-0.072-0.334
		l-0.014-0.312l0.002,0.057l-0.005-0.741l-0.018-1.445l-0.037-2.078l-0.053-2.642l-0.042-2.546l-0.005-2.499l0.05-2.516l0.089-1.938
		l0.089-1.312l0.113-1.354l0.143-1.396l0.086-0.731l-0.007,0.057l0.075-0.536l0.273-1.159l0.397-1.158l0.512-1.159l0.601-1.163
		l0.671-1.162l1.105-1.775l1.502-2.42l1.044-1.873l0.617-1.313l0.516-1.368l0.379-1.408l0.177-1.087l0.065-0.759l0.012-0.776
		l-0.042-0.758l-0.034-0.34c-0.002-0.006-0.003-0.017-0.003-0.023l-0.02-0.152l-0.041-0.341l-0.068-0.618l-0.111-1l-0.125-1.187
		l-0.143-1.356l-0.155-1.514l-0.167-1.66l-0.181-1.787l-0.19-1.909l-0.199-2.008l-0.208-2.096l-0.215-2.175l-0.332-3.37
		l-0.454-4.638l-0.462-4.688l-0.457-4.641l-0.334-3.382l-0.215-2.179l-0.21-2.107l-0.205-2.016l-0.193-1.919l-0.183-1.804
		l-0.173-1.673l-0.162-1.535l-0.145-1.375l-0.134-1.209l-0.114-1.028l-0.077-0.646l-0.046-0.368l-0.021-0.161v0.006l-0.198-1.589
		l-0.36-3.133l-0.302-3.061l-0.252-2.985l-0.201-2.916l-0.155-2.833l-0.109-2.759l-0.07-2.682l-0.026-2.601l0.008-2.52l0.042-2.439
		l0.073-2.359l0.103-2.271l0.128-2.187l0.15-2.105l0.173-2.021l0.193-1.93l0.206-1.838l0.219-1.752l0.231-1.662l0.24-1.565
		l0.242-1.477l0.245-1.378l0.248-1.288l0.241-1.191l0.237-1.093l0.23-0.994l0.219-0.894l0.204-0.793l0.191-0.688l0.168-0.585
		l0.15-0.486l0.068-0.213c0.249-0.766-0.113-1.607-0.81-1.883C1223.518,788.957,1222.754,789.354,1222.505,790.121"/>
	<path fill="#1D1B3A" stroke="#1D1B3A" stroke-width="0.7859" stroke-miterlimit="10" d="M1161.912,529.568
		c0,0,11.728-5.95,38.412-2.466c7.089,0.928,1.031,13.78,25.956,38.308c16.733,16.461,16.735,16.775,16.744,18.818
		c0.07,13.327-14.698,20.638-14.698,20.638s11.915,65.999,14.172,94.215c4.292,53.646-7.827,120.087-7.827,120.087l-44.906,5.438
		c0,0-39.725-85.165-25.522-137.427c14.203-52.263,24.061-44.118,17.591-64.089C1175.364,603.124,1151.95,553.854,1161.912,529.568z
		"/>
	<path fill="#1D1B3A" stroke="#1D1B3A" stroke-width="0.7859" d="M1161.912,529.568c0,0,11.728-5.95,38.412-2.466
		c7.089,0.928,1.031,13.78,25.956,38.308c16.733,16.461,16.735,16.777,16.744,18.818c0.07,13.327-14.698,20.638-14.698,20.638
		s11.915,65.999,14.172,94.215c4.292,53.646-7.827,120.087-7.827,120.087l-44.906,5.438c0,0-39.725-85.165-25.522-137.427
		c14.203-52.263,24.061-44.118,17.591-64.089C1175.364,603.124,1151.95,553.854,1161.912,529.568z"/>
	<path fill="#FFFFFF" d="M1156.497,524.485l13.161-8.214l37.917,35.383l-8.465-29.482l9.699,0.229c0,0,10.418,43.344,44.398,58.631
		c0,0,10.587,5.987-18.394,19.693c-14.088,6.665,8.292,30.888,14.274,69.337c6.118,39.318,12.187,135.49,12.187,135.49
		l-57.885,7.735c0,0,14.419-71.356-6.614-115.338c-19.27-40.3-27.481-46.92-27.481-46.92s24.5,5.5,31.036-33.411
		C1207.112,582.995,1187.747,547.626,1156.497,524.485z"/>
	<path fill="#1D1B3A" stroke="#1D1B3A" stroke-width="0.7859" stroke-miterlimit="10" d="M1175.282,556.825
		c0,0,33.076,66.694,41.116,66.652c7.492-0.039,51.079-20.239,51.079-20.239l10.038,14.057c0,0-59.146,27.883-68.559,22.015
		c-9.412-5.871-40.157-59.102-40.963-62.979"/>
	<path fill="#1D1B3A" stroke="#1D1B3A" stroke-width="0.7859" d="M1175.282,556.825c0,0,33.076,66.694,41.116,66.652
		c7.492-0.039,51.079-20.239,51.079-20.239l10.038,14.057c0,0-59.146,27.885-68.559,22.015
		c-9.412-5.871-40.157-59.102-40.963-62.979"/>
	<path fill="#1D1B3A" stroke="#1D1B3A" stroke-width="0.7859" stroke-miterlimit="10" d="M1267.817,605.734l0.11-0.129l0.08-0.063
		l0.148-0.13l0.237-0.235l0.289-0.319l0.328-0.41l0.371-0.516l0.312-0.478l0.224-0.363l0.234-0.396l0.252-0.435l0.267-0.477
		l0.284-0.528l0.303-0.576l0.321-0.627l0.341-0.687l0.364-0.741l0.384-0.802l0.409-0.872l0.43-0.934l0.456-1.006l0.48-1.076
		l0.507-1.154l0.267-0.607c0.008-0.021,0.016-0.042,0.024-0.066l0.021-0.051l0.085-0.259l0.087-0.306l0.098-0.368l0.114-0.436
		l0.132-0.503l0.142-0.564l0.157-0.624l0.257-1.027l0.38-1.516l0.41-1.634l0.434-1.701l0.443-1.722l0.445-1.689l0.436-1.604
		l0.415-1.469l0.292-0.977l0.182-0.578l0.168-0.514l0.155-0.438l0.136-0.354l0.11-0.252l0.071-0.122l-0.031,0.073l-0.266,0.269
		l-0.266,0.136l0.198-0.076l0.368-0.099l0.479-0.09l0.601-0.08l0.709-0.07l0.802-0.053l0.883-0.037l0.955-0.025l1.023-0.008
		l1.08,0.003l1.71,0.028l2.412,0.072l2.506,0.107l2.552,0.131l2.539,0.144l2.476,0.151l2.354,0.147l1.656,0.103l1.038,0.061
		l0.979,0.061l0.912,0.049l0.839,0.042l0.762,0.036l0.678,0.018l0.588,0.013l0.267,0.001h-0.007h0.07l0.15,0.006l0.205,0.009
		l0.264,0.019l0.485,0.033l0.784,0.066l0.911,0.081l1.015,0.093l1.646,0.165l2.281,0.241l1.65,0.186l1.018,0.121l0.924,0.115
		l0.797,0.105l0.639,0.095l0.35,0.062l0.151,0.029l0.04,0.009l-0.041-0.011l0.333,0.093l0.571,0.192l0.521,0.225l0.488,0.259
		l0.456,0.276l0.416,0.3l0.373,0.307l0.323,0.308l0.27,0.3l0.211,0.28l0.149,0.244l0.082,0.187l0.014,0.1l-0.037-0.037l-0.027-0.214
		l0.086-0.349l0.19-0.254l0.155-0.119l-0.251,0.162l-0.445,0.207l-0.544,0.171l-0.675,0.149l-0.79,0.126l-0.894,0.089l-0.98,0.061
		l-1.061,0.023h-1.127l-1.184-0.027l-1.874-0.084l-2.615-0.18l-2.693-0.226l-2.715-0.252l-2.673-0.248l-1.941-0.166l-1.254-0.095
		l-1.206-0.079l-1.159-0.062l-1.1-0.041l-1.037-0.01l-0.97,0.018l-0.896,0.052l-0.82,0.093l-0.746,0.139l-0.674,0.203l-0.624,0.285
		l-0.36,0.245c-0.129,0.095-0.238,0.21-0.329,0.339l-0.03,0.045l-0.041,1.71l0.706,0.678l0.482,0.21l0.477,0.159l0.518,0.145
		l0.851,0.211l1.213,0.273l0.902,0.19l0.559,0.113l0.507,0.098l0.432,0.086l0.342,0.069l0.227,0.051l0.047,0.009l-0.019-0.003
		l0.292,0.073l0.64,0.155l0.697,0.163l0.748,0.173l0.794,0.175l0.835,0.185l1.332,0.29l1.89,0.414l1.993,0.442l2.062,0.479
		l2.1,0.505l2.105,0.535l2.075,0.567l2.011,0.597l1.918,0.623l1.779,0.654l1.22,0.502l0.746,0.342l0.701,0.346l0.641,0.351
		l0.574,0.354l0.502,0.348l0.205,0.16l-0.031-0.023l0.157,0.127l0.253,0.219l0.287,0.288l0.215,0.296l0.019,0.113l-0.098-0.146
		l-0.036-0.37l0.07-0.281l-0.022-0.056l-0.201,0.059l-0.364,0.095l-0.491,0.095l-0.597,0.072l-0.681,0.055l-0.752,0.035l-0.81,0.013
		l-0.856-0.006l-1.348-0.042l-1.864-0.106l-1.859-0.148l-1.79-0.177l-1.248-0.138l-0.771-0.089l-0.715-0.088l-0.644-0.082
		l-0.568-0.078l-0.48-0.068l-0.382-0.053l-0.278-0.042l-0.096-0.014l0.023,0.004l-0.041-0.008l-0.111-0.021l-0.196-0.041
		l-0.269-0.054l-0.336-0.076l-0.391-0.079l-0.445-0.099l-0.49-0.104l-0.81-0.171l-1.195-0.25l-1.291-0.266l-1.346-0.264
		l-1.358-0.259l-1.335-0.238l-1.271-0.211l-1.168-0.169l-0.794-0.095l-0.483-0.045l-0.439-0.028l-0.4-0.011l-0.364,0.014
		l-0.346,0.041l-0.386,0.112l-0.559,0.372l-0.431,0.822c-0.021,0.098-0.03,0.196-0.032,0.292l-0.004,0.089l-0.005-0.014l0.028-0.194
		l0.285-0.498l0.699-0.34l0.577,0.109l0.507,0.494l-0.104,1.675l-0.794,0.48l-0.188,0.007l-0.043-0.005l-0.131-0.04l0.106,0.038
		l0.081,0.062l0.334,0.252l0.425,0.346l0.274,0.23l0.248,0.217l0.195,0.164l0.094,0.075c0.016,0.012,0.031,0.025,0.048,0.035
		l0.832,0.604l1.752,1.16l2.681,1.573l3.588,1.968l2.623,1.51l1.671,1.078l0.803,0.564c0.014,0.008,0.025,0.018,0.038,0.026
		l0.015,0.009l0.104,0.064l0.161,0.103l0.227,0.142l0.289,0.183l0.344,0.219l0.396,0.253l0.44,0.283l0.483,0.31l0.517,0.336
		l0.83,0.544l1.179,0.787l1.218,0.829l1.219,0.852l1.168,0.85l1.079,0.82l0.714,0.576l0.418,0.354l0.373,0.337l0.314,0.305
		l0.243,0.264l0.165,0.208l0.07,0.126l-0.036-0.021l-0.103-0.311l0.086-0.667l0.305-0.423l0.167-0.116l-0.344,0.205l-0.62,0.288
		l-0.632,0.203l-0.684,0.144l-0.734,0.083l-0.779,0.022l-0.824-0.038l-0.861-0.095l-0.896-0.153l-0.93-0.207l-0.953-0.255
		l-0.977-0.306l-1.5-0.542l-2.032-0.85l-2.031-0.969l-2.015-1.055l-1.967-1.115l-1.893-1.133l-1.785-1.127l-1.252-0.816l-0.79-0.521
		l-0.75-0.507l-0.703-0.48l-0.656-0.451l-0.607-0.421l-0.28-0.195h-0.002l-0.101-0.072l-0.174-0.12l-0.135-0.091l-0.096-0.065
		l-0.072-0.047l-0.151-0.086l-1.337,2.532l0.111,0.085l0.104,0.076l0.129,0.099l0.244,0.181l0.428,0.314l0.535,0.39l0.628,0.463
		l0.716,0.524l0.789,0.582l0.857,0.634l0.911,0.675l0.959,0.718l1.5,1.121l2.062,1.571l2.061,1.593l1.492,1.174l0.951,0.764
		l0.904,0.738l0.847,0.707l0.776,0.667l0.698,0.617l0.603,0.562l0.5,0.496l0.38,0.412l0.235,0.305l0.047,0.097l-0.051-0.07
		l-0.073-0.207l-0.019-0.474l0.171-0.497l0.207-0.273l-0.089,0.092v-0.047l-0.096,0.016l-0.23,0.05l-0.472,0.076l-0.445,0.041
		l-0.236,0.014h-0.077h0.046l-0.366-0.007l-0.669-0.063l-0.689-0.12l-0.731-0.177l-0.766-0.233l-0.796-0.283l-1.253-0.521
		l-1.717-0.834l-1.744-0.956l-1.747-1.052l-1.721-1.108l-1.665-1.123l-1.573-1.104l-1.109-0.793l-0.697-0.502l-0.661-0.479
		l-0.622-0.451l-0.578-0.418l-0.532-0.376l-0.482-0.333l-0.436-0.29l-0.39-0.242l-0.35-0.196l-0.337-0.153l-0.417-0.112l-0.56,0.022
		c-0.114,0.026-0.225,0.068-0.327,0.126l-0.17,0.098l-0.458,0.307l-0.476,0.382l-0.466,0.436l-0.472,0.475l-0.48,0.521l-0.487,0.561
		l-0.498,0.588l-0.766,0.935l-1.061,1.318l-1.092,1.357l-1.113,1.347l-1.123,1.293l-1.115,1.183l-1.093,1.03l-0.777,0.629
		l-0.486,0.337l-0.477,0.283l-0.448,0.213l-0.41,0.139l-0.371,0.068l-0.319,0.003l-0.28-0.058l-0.248-0.104l-0.241-0.169
		l-0.077-0.071c-0.605-0.464-1.438-0.299-1.86,0.372c-0.419,0.67-0.269,1.585,0.337,2.049l0,0l0.376,0.271l0.69,0.365l0.717,0.212
		l0.718,0.075l0.702-0.058l0.686-0.157l0.661-0.243l0.645-0.321l0.636-0.385l0.639-0.45l0.929-0.763l1.209-1.147l1.19-1.267
		l1.167-1.346l1.138-1.375l1.093-1.359l1.041-1.295l0.74-0.903l0.464-0.553l0.442-0.508l0.417-0.452l0.381-0.391l0.34-0.323
		l0.288-0.244l0.26-0.182l0.168-0.097l-0.327,0.128h-0.46l-0.104-0.054l0.12,0.047l0.234,0.129l0.325,0.202l0.396,0.264l0.459,0.316
		l0.52,0.366l0.569,0.412l0.621,0.449l0.664,0.482l0.706,0.508l1.131,0.808l1.614,1.131l1.711,1.158l1.787,1.148l1.838,1.101
		l1.861,1.021l1.854,0.891l1.37,0.566l0.912,0.321l0.902,0.271l0.891,0.212l0.882,0.144l0.835,0.07l0.366,0.009
		c0.015-0.002,0.031-0.002,0.044-0.002l0.157-0.003l0.352-0.018l0.622-0.064l0.688-0.124l0.498-0.14l0.534-0.234l0.492-0.358
		l0.089-0.093c0.077-0.08,0.146-0.17,0.205-0.269l0.215-0.57l0.01-0.656l-0.118-0.431l-0.163-0.344l-0.245-0.383l-0.378-0.475
		l-0.468-0.507l-0.562-0.557l-0.651-0.603l-0.733-0.65l-0.804-0.688l-0.869-0.726l-0.924-0.753l-0.966-0.777l-1.513-1.188
		l-2.08-1.609l-2.076-1.576l-1.505-1.132l-0.962-0.721l-0.916-0.677l-0.86-0.639l-0.794-0.582l-0.715-0.527l-0.63-0.462l-0.534-0.39
		l-0.423-0.312l-0.241-0.175l-0.116-0.087l-0.079-0.06l-0.003-0.001l-1.384,2.489l-0.121-0.07l0.033,0.023l0.08,0.055l0.128,0.089
		l0.169,0.114l0.103,0.072l0,0l0.286,0.199l0.611,0.423l0.667,0.457l0.716,0.49l0.762,0.512l0.81,0.542l1.287,0.835l1.837,1.154
		l1.949,1.173l2.04,1.149l2.103,1.102l2.143,1.015l2.15,0.9l1.603,0.574l1.069,0.332l1.061,0.285l1.051,0.229l1.039,0.173
		l1.025,0.109l1.007,0.034l0.989-0.038l0.966-0.122l0.939-0.216l0.908-0.314l0.832-0.401l0.344-0.204
		c0.061-0.035,0.114-0.073,0.166-0.118l0.444-0.535l0.227-0.957l-0.128-0.679l-0.219-0.464l-0.256-0.386l-0.298-0.361l-0.343-0.362
		l-0.388-0.373l-0.428-0.387l-0.475-0.405l-0.774-0.618l-1.127-0.856l-1.206-0.876l-1.246-0.872l-1.241-0.844l-1.195-0.795
		l-0.839-0.552l-0.524-0.341l-0.489-0.316l-0.446-0.285l-0.4-0.257l-0.351-0.219l-0.292-0.185l-0.227-0.146l-0.157-0.097
		l-0.072-0.046l-0.015-0.009l0.038,0.023l-0.892-0.623l-1.778-1.139l-2.671-1.542l-3.521-1.929l-2.564-1.502l-1.658-1.093
		l-0.832-0.603l0.046,0.033l-0.027-0.02l-0.177-0.152l-0.263-0.225l-0.325-0.277l-0.548-0.44l-0.589-0.408l-0.432-0.226
		l-0.104-0.038c-0.044-0.016-0.089-0.03-0.133-0.04l-0.174-0.041l-0.401-0.023l-0.993,0.499l-0.188,1.781l0.581,0.627l0.747,0.209
		l0.915-0.353l0.481-0.682l0.131-0.489l0.026-0.297l0.004-0.085l-0.035,0.295l-0.41,0.726l-0.402,0.222l-0.074,0.003l0.1-0.022
		l0.216-0.009l0.3,0.005l0.368,0.023l0.422,0.038l0.732,0.086l1.121,0.162l1.237,0.204l1.309,0.234l1.341,0.253l1.333,0.264
		l1.279,0.263l1.188,0.25l0.808,0.166l0.487,0.106l0.442,0.098l0.395,0.081l0.338,0.076l0.281,0.057l0.223,0.044l0.166,0.035
		l0.041,0.006c0.009,0.002,0.018,0.004,0.025,0.004l0.103,0.014l0.291,0.048l0.396,0.054l0.49,0.066l0.579,0.077l0.656,0.084
		l0.729,0.09l0.79,0.095l1.279,0.14l1.83,0.179l1.917,0.153l1.927,0.11l1.408,0.042l0.912,0.005l0.881-0.014l0.839-0.04l0.796-0.064
		l0.749-0.102l0.701-0.144l0.662-0.203l0.634-0.301l0.612-0.486l0.48-0.792l0.127-0.955l-0.192-0.812l-0.349-0.644l-0.453-0.556
		l-0.417-0.409l-0.319-0.277l-0.161-0.128c-0.008-0.01-0.02-0.02-0.029-0.024l-0.314-0.239l-0.626-0.43l-0.682-0.414l-0.732-0.396
		l-0.777-0.387l-0.83-0.374l-1.313-0.539l-1.864-0.682l-1.98-0.646l-2.062-0.609l-2.117-0.578l-2.136-0.545l-2.125-0.509
		l-2.08-0.479l-2-0.446l-1.891-0.415l-1.326-0.289l-0.831-0.183l-0.786-0.176l-0.731-0.167l-0.677-0.158l-0.62-0.15l-0.291-0.072
		c-0.007-0.004-0.012-0.006-0.017-0.008l-0.102-0.023l-0.251-0.052l-0.349-0.07l-0.431-0.085l-0.499-0.102l-0.544-0.108
		l-0.869-0.182l-1.154-0.257l-0.779-0.195l-0.427-0.117l-0.311-0.097l-0.116-0.029l0.338,0.454l-0.144,1.512l0.031-0.045
		l-0.327,0.34l-0.023-0.006l0.241-0.138l0.418-0.138l0.562-0.11l0.688-0.082l0.798-0.046l0.894-0.018l0.982,0.009l1.057,0.037
		l1.124,0.06l1.182,0.08l1.233,0.095l1.927,0.166l2.672,0.246l2.732,0.252l2.732,0.23l2.673,0.181l1.924,0.085l1.239,0.031h1.195
		l1.141-0.031l1.086-0.066l1.027-0.109l0.962-0.157l0.897-0.216l0.837-0.29l0.722-0.357l0.249-0.163
		c0.054-0.035,0.105-0.072,0.155-0.116l0.368-0.406l0.322-0.736l0.056-0.691l-0.096-0.594l-0.182-0.525l-0.25-0.485l-0.308-0.468
		l-0.36-0.454l-0.415-0.449l-0.468-0.434l-0.518-0.419l-0.569-0.397l-0.615-0.368l-0.658-0.336l-0.705-0.293l-0.715-0.238
		l-0.333-0.09c-0.014-0.004-0.03-0.01-0.041-0.013l-0.112-0.024l-0.225-0.046l-0.403-0.068l-0.669-0.099l-0.819-0.108l-0.94-0.117
		l-1.035-0.122l-1.666-0.184l-2.294-0.247l-1.659-0.163l-1.025-0.097l-0.929-0.082l-0.807-0.067l-0.507-0.035l-0.292-0.018
		l-0.254-0.013l-0.21-0.009h-0.068c-0.002,0-0.005,0-0.006,0h-0.229l-0.553-0.013l-0.651-0.019l-0.743-0.034l-0.828-0.039
		l-0.905-0.05l-0.973-0.059l-1.035-0.062l-1.655-0.104l-2.357-0.146l-2.484-0.151l-2.554-0.147l-2.575-0.13l-2.536-0.108
		l-2.447-0.074l-1.74-0.027l-1.109-0.004l-1.058,0.01l-1.005,0.025l-0.941,0.041l-0.875,0.061l-0.807,0.077l-0.738,0.108
		l-0.673,0.134l-0.581,0.17l-0.198,0.079c-0.09,0.031-0.178,0.078-0.261,0.136l-0.359,0.325l-0.243,0.35l-0.172,0.334l-0.164,0.38
		l-0.167,0.438l-0.176,0.498l-0.183,0.561l-0.193,0.617l-0.303,1.017l-0.425,1.503l-0.443,1.627l-0.449,1.707l-0.446,1.731
		l-0.436,1.711l-0.411,1.635l-0.379,1.516l-0.258,1.024l-0.155,0.616l-0.142,0.558l-0.125,0.489l-0.107,0.412l-0.089,0.326
		l-0.06,0.22l-0.026,0.085l-0.018,0.051l0.027-0.066l-0.259,0.598l-0.501,1.138l-0.473,1.059l-0.448,0.988l-0.422,0.916l-0.4,0.848
		l-0.372,0.782l-0.351,0.722l-0.327,0.655l-0.31,0.602l-0.285,0.543l-0.265,0.493l-0.248,0.442l-0.226,0.395l-0.208,0.353
		l-0.189,0.303l-0.247,0.381l-0.278,0.396l-0.218,0.278l-0.171,0.193l-0.145,0.149l-0.175,0.157l-0.312,0.301l-0.109,0.128
		c-0.504,0.595-0.478,1.525,0.061,2.086C1266.466,606.358,1267.312,606.327,1267.817,605.734"/>
	<path fill="#1D1B3A" stroke="#1D1B3A" stroke-width="0.7859" stroke-miterlimit="10" d="M1156.454,524.637l0.453-0.179l0.971-0.448
		l0.966-0.532l0.937-0.585l1.355-0.941l1.764-1.339l1.733-1.326l1.279-0.921l0.842-0.551l0.848-0.497l0.847-0.431l0.848-0.351
		l0.85-0.265l0.396-0.087l-0.223,0.031l0.034-0.002l-0.277-0.016l-0.109-0.025l0.039,0.031l0.116,0.085l0.167,0.133l0.207,0.17
		l0.241,0.208l0.422,0.375l0.651,0.604l0.742,0.714l0.825,0.806l0.899,0.897l0.965,0.975l1.023,1.044l1.073,1.107l1.114,1.155
		l1.148,1.2l1.768,1.857l2.404,2.542l2.399,2.551l1.76,1.879l1.14,1.218l1.104,1.184l1.061,1.135l1.012,1.082l0.951,1.016
		l0.887,0.947l0.813,0.862l0.731,0.776l0.645,0.678l0.42,0.44l0.25,0.259l0.223,0.232l0.2,0.197l0.09,0.093
		c0.002,0,0.004,0.002,0.004,0.004l0.767,0.76l1.549,1.553l1.507,1.582l1.054,1.191l0.649,0.799l0.3,0.392l-0.028-0.037l0.111,0.152
		l0.186,0.293l0.316,0.555l0.47,0.879l0.505,0.939l0.537,0.896l0.45,0.62l0.368,0.394l0.437,0.33l0.601,0.246l0.801-0.022
		l0.755-0.425l0.343-0.388c0.04-0.051,0.072-0.105,0.104-0.158l0.133-0.24l0.309-0.793l0.182-0.927l0.046-0.957l-0.053-0.989
		l-0.134-1.031l-0.201-1.073l-0.263-1.115l-0.312-1.16l-0.36-1.201l-0.398-1.238l-0.434-1.267l-0.699-1.945l-0.996-2.647
		l-1.027-2.663l-1.008-2.624l-0.714-1.905l-0.444-1.221l-0.412-1.183l-0.375-1.133l-0.33-1.071l-0.28-1.003l-0.226-0.922
		l-0.162-0.836l-0.096-0.73l-0.027-0.604l0.039-0.456l0.088-0.283l0.013,0.018l-0.125,0.241l0.031-0.046l-0.154,0.208l-0.07,0.09
		l0.2-0.035l0.38-0.059l0.474-0.061l0.5-0.049l0.461-0.044l0.389-0.047l0.2-0.031c0.022-0.004,0.044-0.009,0.065-0.016l0.071-0.017
		l0.209-0.051l0.256-0.069l0.297-0.076l0.506-0.136l0.75-0.195l0.766-0.188l0.711-0.157l0.437-0.082l0.215-0.026l0.14-0.009
		l0.007,0.011l-0.196-0.028l-0.685-0.449l0.013,0.018l-0.116-0.153l0.064,0.157l0.126,0.308l0.166,0.416l0.201,0.516l0.232,0.594
		l0.264,0.677l0.289,0.747l0.314,0.81l0.335,0.867l0.357,0.918l0.565,1.457l0.807,2.062l0.848,2.146l0.873,2.179l0.883,2.162
		l0.871,2.091l0.643,1.496l0.417,0.95l0.404,0.904l0.393,0.849l0.377,0.791l0.363,0.733l0.343,0.663l0.327,0.591l0.165,0.281
		c0.002,0.004,0.003,0.007,0.005,0.011l1.077,1.796l2.073,3.524l2.037,3.452l2.06,3.387l1.597,2.504l1.108,1.653l1.143,1.634
		l1.19,1.617l1.244,1.598l1.309,1.584l1.375,1.564l1.452,1.547l0.764,0.775c0.01,0.008,0.019,0.018,0.027,0.026l0.144,0.137
		l0.384,0.341l0.45,0.361l0.497,0.374l0.543,0.39l0.589,0.404l0.629,0.421l0.668,0.435l1.058,0.671l1.503,0.932l1.574,0.954
		l1.602,0.961l1.594,0.951l1.546,0.924l1.46,0.882l1.01,0.621l0.625,0.39l0.579,0.369l0.529,0.345l0.474,0.314l0.41,0.289
		l0.34,0.249l0.257,0.21l0.162,0.154l0.04,0.059l-0.096-0.118l-0.096-0.185l0.151,0.344l0.091,0.448l-0.031,0.343l-0.104,0.376
		l-0.197,0.441l-0.306,0.516l-0.429,0.578l-0.55,0.623l-0.662,0.649l-0.764,0.67l-0.852,0.68l-0.935,0.688l-1.003,0.694
		l-1.057,0.688l-1.683,1.031l-2.339,1.351l-2.379,1.31l-2.346,1.259l-1.694,0.906l-1.079,0.582l-1.027,0.566l-0.967,0.547
		l-0.901,0.528l-0.822,0.507l-0.74,0.49l-0.651,0.478l-0.562,0.47l-0.471,0.485l-0.245,0.318c-0.027,0.036-0.054,0.075-0.079,0.115
		l-0.094,0.157l-0.238,0.495l-0.197,0.564l-0.147,0.572l-0.138,0.854l-0.093,1.184l-0.014,1.2l0.045,1.156l0.075,1.075l0.09,0.935
		l0.046,0.404c0.002,0.014,0.004,0.027,0.005,0.039l0.154,1.137l0.459,2.34l0.631,2.34l0.773,2.303l0.895,2.266l1,2.236l1.076,2.213
		l1.138,2.186l1.771,3.232l2.39,4.255l1.726,3.148l1.077,2.08l1.002,2.064l0.905,2.055l0.403,1.003l-0.016-0.034l0.15,0.4
		l0.282,0.835l0.285,0.94l0.291,1.059l0.291,1.167l0.297,1.275l0.3,1.377l0.299,1.479l0.301,1.573l0.299,1.665l0.302,1.756
		l0.299,1.84l0.303,1.924l0.298,2.004l0.301,2.079l0.296,2.153l0.297,2.224l0.295,2.295l0.292,2.359l0.292,2.419l0.291,2.479
		l0.287,2.536l0.425,3.901l0.558,5.377l0.546,5.545l0.532,5.698l0.515,5.828l0.499,5.929l0.481,6.014l0.682,9.123l0.832,12.236
		l0.556,9.131l0.338,6.022l0.309,5.944l0.278,5.846l0.247,5.721l0.212,5.572l0.136,4.069l0.079,2.652l0.071,2.606l0.062,2.554
		l0.051,2.498l0.042,2.439l0.032,2.378l0.022,2.313l0.008,1.131c0.003,0.812,0.606,1.469,1.345,1.465s1.333-0.668,1.325-1.48
		l-0.004-1.143l-0.022-2.328l-0.034-2.391l-0.042-2.449l-0.051-2.508l-0.062-2.562l-0.069-2.616l-0.083-2.664l-0.136-4.084
		l-0.212-5.592l-0.248-5.73l-0.278-5.861l-0.309-5.959l-0.34-6.036l-0.559-9.154l-0.833-12.258l-0.683-9.14l-0.481-6.028l-0.5-5.941
		l-0.518-5.844l-0.533-5.714l-0.546-5.564l-0.562-5.391l-0.427-3.92l-0.287-2.548l-0.292-2.489l-0.292-2.433l-0.295-2.371
		l-0.296-2.306l-0.3-2.244l-0.301-2.168l-0.3-2.099l-0.302-2.025l-0.305-1.942l-0.305-1.868l-0.305-1.783l-0.308-1.698l-0.308-1.607
		l-0.308-1.518l-0.307-1.427l-0.309-1.331l-0.313-1.235l-0.312-1.14l-0.316-1.037l-0.315-0.928l-0.147-0.397
		c-0.007-0.01-0.012-0.023-0.016-0.035l-0.441-1.099l-0.954-2.155l-1.039-2.142l-1.108-2.134l-1.741-3.182l-2.375-4.227
		l-1.741-3.175l-1.102-2.116l-1.031-2.113l-0.947-2.116l-0.84-2.115l-0.721-2.12l-0.578-2.121l-0.428-2.153l-0.153-1.133
		l0.005,0.036l-0.042-0.36l-0.083-0.854l-0.069-0.963l-0.042-1.005l0.004-0.993l0.062-0.916l0.089-0.602l0.069-0.311l0.07-0.242
		l0.089-0.213L1232,604.7l-0.078,0.116l0.02-0.045l0.256-0.281l0.413-0.354l0.547-0.405l0.666-0.443l0.771-0.478l0.862-0.505
		l0.943-0.533l1.01-0.555l1.071-0.579l1.695-0.907l2.372-1.271l2.426-1.336l2.4-1.39l1.739-1.065l1.116-0.73l1.073-0.74l1.017-0.752
		l0.951-0.764l0.884-0.781l0.802-0.802l0.714-0.826l0.611-0.869l0.497-0.922l0.345-0.985l0.159-1.044l-0.065-1.06l-0.26-0.939
		l-0.152-0.341c-0.027-0.062-0.06-0.123-0.096-0.183l-0.186-0.268l-0.263-0.29l-0.294-0.268l-0.345-0.274l-0.397-0.294l-0.454-0.317
		l-0.504-0.338l-0.555-0.357l-0.598-0.384l-0.641-0.399l-1.027-0.629l-1.467-0.886l-1.55-0.928l-1.587-0.947l-1.593-0.952
		l-1.553-0.941l-1.478-0.918l-1.034-0.655l-0.642-0.418l-0.597-0.397l-0.55-0.378l-0.494-0.354l-0.43-0.32l-0.358-0.285
		l-0.292-0.258l-0.146-0.134l0.028,0.024l-0.716-0.722l-1.391-1.481l-1.317-1.498l-1.253-1.518l-1.198-1.536l-1.151-1.559
		l-1.109-1.583l-1.07-1.601l-1.565-2.448l-2.038-3.352l-2.036-3.455l-2.082-3.539l-1.078-1.797l0.005,0.007l-0.125-0.212
		l-0.29-0.521l-0.317-0.608l-0.341-0.687l-0.362-0.76l-0.38-0.825l-0.393-0.875l-0.407-0.93l-0.63-1.468l-0.864-2.069l-0.873-2.14
		l-0.869-2.167l-0.845-2.136l-0.803-2.055l-0.565-1.454l-0.355-0.917l-0.335-0.867l-0.313-0.811l-0.289-0.749l-0.265-0.682
		l-0.236-0.606l-0.208-0.524l-0.175-0.444l-0.147-0.357l-0.133-0.305l-0.238-0.399l-0.016-0.018
		c-0.182-0.226-0.422-0.383-0.686-0.454l-0.302-0.053l-0.312-0.007l-0.295,0.024l-0.323,0.049l-0.524,0.098l-0.762,0.168
		l-0.798,0.196l-0.762,0.198l-0.507,0.135l-0.289,0.076l-0.235,0.063l-0.173,0.048l-0.073,0.014l0.065-0.011l-0.049,0.011
		l-0.332,0.036l-0.475,0.046l-0.559,0.057l-0.601,0.076l-0.621,0.117l-0.627,0.199l-0.518,0.309l-0.345,0.382l-0.031,0.047
		c-0.048,0.073-0.09,0.153-0.126,0.241l-0.174,0.48l-0.16,0.801l-0.04,0.829l0.053,0.867l0.126,0.917l0.192,0.973l0.253,1.03
		l0.303,1.081l0.352,1.136l0.392,1.175l0.424,1.221l0.457,1.253l0.721,1.929l1.01,2.625l1.018,2.643l0.98,2.606l0.682,1.895
		l0.416,1.22l0.378,1.174l0.338,1.116l0.288,1.058l0.232,0.985l0.173,0.898l0.112,0.795l0.05,0.678l-0.006,0.54l-0.037,0.379
		l-0.09,0.314l-0.133,0.237l0.104-0.161l0.142-0.114l0.329-0.09l0.359,0.068l0.146,0.116l-0.038,0.004l-0.114-0.099l-0.293-0.383
		l-0.466-0.774l-0.501-0.927l-0.514-0.962l-0.396-0.686l-0.269-0.417l-0.112-0.157c-0.009-0.008-0.019-0.022-0.029-0.037
		l-0.351-0.454l-0.721-0.881l-1.128-1.272l-1.55-1.63l-1.56-1.56l-0.766-0.761l0.003,0.002l-0.079-0.075l-0.186-0.188l-0.216-0.222
		l-0.24-0.248l-0.414-0.433l-0.638-0.672l-0.727-0.771l-0.812-0.861l-0.884-0.946l-0.952-1.017l-1.009-1.08l-1.062-1.136
		l-1.105-1.181l-1.141-1.22l-1.764-1.88l-2.404-2.559l-2.41-2.551l-1.775-1.865l-1.153-1.203l-1.121-1.166l-1.081-1.113
		l-1.033-1.055l-0.979-0.99l-0.917-0.912l-0.848-0.83l-0.773-0.745l-0.691-0.639l-0.46-0.411l-0.286-0.245l-0.267-0.217
		l-0.252-0.194l-0.25-0.176l-0.267-0.158l-0.357-0.15l-0.463-0.062h-0.033c-0.076,0.002-0.149,0.014-0.223,0.031l-0.578,0.138
		l-1.06,0.344l-1.021,0.431l-0.986,0.502l-0.954,0.565l-0.934,0.614l-1.346,0.969l-1.723,1.319l-1.684,1.274l-1.243,0.877
		l-0.813,0.51l-0.807,0.448l-0.827,0.389l-0.453,0.18c-0.695,0.271-1.058,1.112-0.81,1.879
		C1154.993,524.513,1155.758,524.913,1156.454,524.637"/>
	<path fill="#1D1B3A" stroke="#1D1B3A" stroke-width="0.7859" stroke-miterlimit="10" d="M1169.445,646.683l-0.039-0.325
		l-0.13-0.744l-0.192-0.766l-0.25-0.751l-0.459-1.081l-0.779-1.416l-0.96-1.39l-1.114-1.342l-1.251-1.3l-1.379-1.26l-1.492-1.221
		l-1.595-1.182l-1.688-1.145l-1.765-1.096l-1.834-1.058l-1.891-1.01l-1.936-0.959l-1.968-0.908l-1.989-0.856l-1.999-0.799
		l-1.995-0.739l-1.982-0.676l-1.954-0.608l-1.917-0.542l-1.87-0.466l-1.807-0.394l-1.734-0.312l-1.653-0.234l-1.56-0.144
		l-1.114-0.054l-0.712-0.003l-0.677,0.019l-0.647,0.046l-0.62,0.073l-0.592,0.098l-0.562,0.133l-0.533,0.162l-0.506,0.203
		l-0.478,0.243l-0.258,0.16c-0.038,0.021-0.072,0.045-0.106,0.074l-0.099,0.076l-0.361,0.376l-0.314,0.518l-0.199,0.543
		l-0.108,0.542l-0.045,0.537l0.003,0.533l0.038,0.54l0.113,0.808l0.232,1.123l0.311,1.17l0.368,1.188l0.62,1.751l0.66,1.676
		l0.438,1.033l0.412,0.92l0.37,0.794l0.247,0.501l0.146,0.283l0.128,0.241l0.114,0.2l0.064,0.104
		c0.006,0.013,0.013,0.024,0.022,0.036l0.352,0.535l0.757,1.077l0.799,1.042l0.834,1.005l0.867,0.96l0.897,0.919l0.928,0.874
		l0.957,0.835l0.982,0.791l1.007,0.753l1.033,0.714l1.053,0.672l1.076,0.635l1.095,0.598l1.668,0.822l2.286,0.972l2.351,0.836
		l2.396,0.702l2.434,0.567l2.459,0.446l2.476,0.325l2.482,0.208l2.481,0.094l1.249,0.009c0.025,0,0.05,0,0.073-0.002l0.03-0.001
		l0.183-0.021l0.278-0.049l0.457-0.096l0.57-0.133l0.665-0.166l0.738-0.197l1.19-0.347l1.225-0.391l0.802-0.287l0.756-0.301
		l0.692-0.314l0.617-0.334l0.537-0.374l0.48-0.487l0.362-0.704l0.069-0.817l-0.131-0.504c-0.032-0.08-0.07-0.155-0.114-0.23
		l-0.035-0.056l-0.29-0.352l-0.504-0.355l-0.67-0.243l-0.693-0.119l-0.714-0.049l-0.752-0.004l-1.174,0.058l-1.607,0.149
		l-1.167,0.145l-0.719,0.102l-0.646,0.104l-0.559,0.095l-0.453,0.083l-0.332,0.066l-0.133,0.031
		c-0.008,0.004-0.017,0.006-0.025,0.008l-0.639,0.159l-1.325,0.357l-1.362,0.396l-1.389,0.432l-1.415,0.47l-1.434,0.506l-2.17,0.827
		l-2.925,1.232l-2.931,1.386l-2.187,1.138l-1.441,0.809l-1.417,0.843l-1.395,0.881l-1.367,0.919l-1.336,0.957l-1.299,0.997
		l-1.26,1.034l-1.215,1.073l-1.167,1.113l-1.112,1.153l-1.055,1.196l-0.992,1.236l-0.925,1.276l-0.855,1.321l-0.775,1.367
		l-0.694,1.407l-0.606,1.449l-0.513,1.494l-0.414,1.534l-0.173,0.813c-0.014,0.065-0.024,0.132-0.03,0.2l-0.011,0.128l0.111,0.785
		l0.436,0.763l0.54,0.468l0.558,0.305l0.584,0.227l0.627,0.181l0.677,0.149l0.728,0.128l0.777,0.106l0.822,0.09l0.865,0.073
		l1.358,0.076l1.908,0.051l1.977-0.009l1.99-0.062l1.95-0.108l1.862-0.161l1.314-0.156l0.824-0.117l0.772-0.126l0.718-0.142
		l0.66-0.155l0.598-0.166l0.539-0.186l0.483-0.211l0.265-0.146c0.021-0.013,0.041-0.024,0.062-0.039l0.761-0.492l1.551-1.106
		l1.529-1.209l1.489-1.282l1.44-1.342l1.385-1.383l1.326-1.406l1.257-1.412l0.607-0.712c0.005-0.004,0.008-0.012,0.014-0.015
		l0.429-0.519l0.853-1.087l0.816-1.121l0.775-1.137l1.097-1.729l1.364-2.343l1.907-3.562l1.837-3.561l1.232-2.324l0.626-1.138
		c0.385-0.692,0.183-1.601-0.448-2.023c-0.63-0.425-1.454-0.203-1.836,0.493l-0.651,1.182l-1.246,2.354l-1.815,3.52l-1.854,3.467
		l-1.31,2.247l-1.039,1.644l-0.726,1.065l-0.757,1.041l-0.801,1.026l-0.432,0.519l0.017-0.018l-0.571,0.668l-1.203,1.35
		l-1.265,1.347l-1.317,1.319l-1.362,1.27l-1.399,1.208l-1.424,1.13l-1.459,1.041l-0.761,0.493l0.062-0.035l-0.046,0.031l-0.274,0.13
		l-0.393,0.142l-0.49,0.136l-0.574,0.14l-0.649,0.126l-0.715,0.119l-0.766,0.11l-1.24,0.146l-1.792,0.155l-1.885,0.112l-1.923,0.059
		l-1.904,0.009l-1.835-0.049l-1.295-0.075l-0.805-0.066l-0.753-0.081l-0.692-0.094l-0.62-0.105l-0.537-0.114l-0.438-0.119
		l-0.319-0.11l-0.172-0.066l-0.004,0.062l0.094,0.32l-0.015,0.307l0.011-0.128l-0.03,0.204l0.135-0.652l0.352-1.329l0.441-1.304
		l0.526-1.277l0.61-1.245l0.69-1.223l0.765-1.191l0.837-1.164l0.906-1.133l0.973-1.104l1.032-1.073l1.086-1.042l1.142-1.011
		l1.188-0.979l1.23-0.944l1.271-0.911l1.304-0.879l1.334-0.843l1.359-0.81l1.375-0.77l2.096-1.095l2.833-1.343l2.842-1.198
		l2.115-0.808l1.387-0.487l1.37-0.458l1.345-0.419l1.315-0.382l1.289-0.347l0.639-0.165l-0.024,0.008l0.069-0.017l0.287-0.058
		l0.42-0.078l0.527-0.087l0.615-0.101l0.677-0.096l1.09-0.14l1.496-0.142l1.054-0.051h0.609l0.499,0.026l0.335,0.036l0.132,0.006
		l-0.073-0.103l-0.096-0.147l0.035,0.056l-0.115-0.232l-0.079-0.37l0.096-0.556l0.217-0.287l-0.024,0.078l-0.271,0.203l-0.45,0.254
		l-0.578,0.263l-0.672,0.27l-0.727,0.262l-1.157,0.371l-1.141,0.329l-0.702,0.188l-0.626,0.159l-0.521,0.12l-0.385,0.082
		l-0.158,0.032l-0.003,0.005h-0.028l0.073-0.002l-1.17-0.005l-2.373-0.093l-2.37-0.194l-2.357-0.306l-2.337-0.419l-2.303-0.536
		l-2.261-0.661l-2.209-0.777l-2.154-0.913l-1.575-0.773l-1.019-0.554l-0.998-0.587l-0.975-0.62l-0.953-0.655l-0.926-0.692
		l-0.903-0.725l-0.875-0.762l-0.85-0.798l-0.82-0.834l-0.791-0.875l-0.76-0.908l-0.729-0.95l-0.706-1l-0.352-0.535l0.022,0.034
		l-0.012-0.019l-0.074-0.126l-0.102-0.188l-0.122-0.24l-0.221-0.448l-0.347-0.743l-0.388-0.867l-0.409-0.961l-0.623-1.573
		l-0.581-1.636l-0.333-1.062l-0.271-0.999l-0.195-0.919l-0.09-0.606l-0.029-0.331l-0.01-0.271l0.004-0.203l0.006-0.117l-0.016-0.033
		l-0.057,0.029l-0.028-0.006l0.099-0.079l-0.106,0.075l0.074-0.053l0.253-0.14l0.311-0.13l0.364-0.116l0.417-0.101l0.462-0.083
		l0.509-0.06l0.549-0.04l0.589-0.021l0.618,0.004l0.996,0.042l1.448,0.135l1.556,0.217l1.652,0.295l1.73,0.377l1.799,0.449
		l1.852,0.519l1.893,0.592l1.919,0.652l1.937,0.717l1.938,0.772l1.926,0.828l1.904,0.879l1.867,0.925l1.819,0.972l1.757,1.009
		l1.683,1.044l1.594,1.078l1.493,1.103l1.381,1.121l1.252,1.136l1.113,1.148l0.962,1.145l0.8,1.136l0.643,1.133l0.368,0.844
		l0.184,0.538l0.142,0.527l0.104,0.557l0.037,0.322c0.097,0.807,0.768,1.375,1.499,1.271
		C1169.027,648.228,1169.542,647.489,1169.445,646.683"/>
	<path fill="#1D1B3A" stroke="#1D1B3A" stroke-width="0.7859" stroke-miterlimit="10" d="M1171.07,651.667l0.32-0.122l0.543-0.142
		l0.548-0.074l0.595-0.028l0.989,0.04l1.409,0.166l1.482,0.223l1.54,0.199l1.189,0.078l0.814-0.008l0.803-0.074l0.802-0.157
		l0.438-0.13c0.02-0.005,0.041-0.014,0.059-0.021l0.41-0.148l0.875-0.366l0.876-0.438l0.859-0.501l0.843-0.554l0.824-0.603
		l0.805-0.651l0.787-0.699l1.135-1.111l1.453-1.61l1.386-1.74l1.305-1.836l1.221-1.906l1.134-1.954l1.043-1.976l0.947-1.98
		l0.847-1.956l0.743-1.908l0.632-1.844l0.405-1.329l0.232-0.861l0.107-0.425c0.196-0.783-0.221-1.596-0.933-1.812
		c-0.714-0.217-1.448,0.243-1.645,1.029l-0.09,0.365l-0.208,0.769l-0.368,1.221l-0.591,1.726l-0.699,1.804l-0.799,1.851
		l-0.894,1.872l-0.983,1.872l-1.066,1.842l-1.142,1.789l-1.209,1.711l-1.272,1.605l-1.334,1.483l-1.035,1.021l-0.696,0.617
		l-0.704,0.574l-0.712,0.529l-0.716,0.474l-0.722,0.423l-0.725,0.371l-0.75,0.316l-0.409,0.149l0.061-0.022l-0.219,0.075
		l-0.548,0.119l-0.597,0.066l-0.625,0.008l-1.031-0.061l-1.49-0.192l-1.569-0.236l-1.602-0.18l-1.207-0.038l-0.825,0.053
		l-0.826,0.133l-0.779,0.221l-0.319,0.122c-0.698,0.267-1.066,1.105-0.823,1.876C1169.612,651.528,1170.374,651.936,1171.07,651.667
		"/>
	<path fill="#1D1B3A" stroke="#1D1B3A" stroke-width="0.7859" stroke-miterlimit="10" d="M1169.683,654.712l1.165,1.342l2.245,2.745
		l2.165,2.849l2.093,2.963l2.02,3.069l1.948,3.167l1.875,3.263l1.804,3.348l1.731,3.43l1.658,3.506l1.585,3.572l1.514,3.64
		l1.443,3.698l1.369,3.742l1.296,3.79l1.225,3.833l1.153,3.862l1.082,3.89l1.007,3.905l0.938,3.927l0.866,3.929l0.794,3.935
		l0.723,3.926l0.65,3.921l0.581,3.899l0.511,3.882l0.438,3.851l0.368,3.813l0.298,3.773l0.228,3.726l0.158,3.673l0.086,3.611
		l0.019,1.774v-0.023l-0.002,0.287l-0.017,0.653l-0.036,0.795l-0.056,0.935l-0.071,1.06l-0.088,1.172l-0.104,1.277l-0.118,1.371
		l-0.132,1.451l-0.142,1.523l-0.154,1.591l-0.163,1.64l-0.261,2.541l-0.368,3.482l-0.386,3.52l-0.395,3.479l-0.395,3.362
		l-0.291,2.397l-0.188,1.523l-0.185,1.449l-0.176,1.37l-0.169,1.275l-0.163,1.169l-0.15,1.063l-0.14,0.936l-0.126,0.805
		l-0.115,0.656l-0.048,0.262c-0.026,0.136-0.034,0.275-0.022,0.415l0.002,0.02l1.602,1.325l0.582-0.277l0.205-0.172l0.269-0.246
		l0.393-0.369l0.413-0.377l0.387-0.322l0.213-0.145l0.056-0.022l-0.035,0.029l-0.265,0.071l-0.475-0.079l-0.137-0.07l0.075,0.043
		l0.357,0.157l0.396,0.119l0.406,0.082l0.433,0.062l0.469,0.049l0.509,0.035l0.552,0.028l0.597,0.02l0.634,0.007l1.028-0.002
		l1.504-0.026l1.654-0.054l1.78-0.077l1.896-0.105l1.993-0.12l2.079-0.142l2.148-0.161l2.202-0.171l3.371-0.283l4.539-0.409
		l4.476-0.429l3.243-0.326l2.082-0.216l1.992-0.209l1.893-0.205l1.776-0.196l1.644-0.188l1.498-0.169l1.336-0.159l0.886-0.11
		l0.535-0.066l0.484-0.063l0.432-0.055l0.381-0.051l0.328-0.046l0.273-0.042l0.219-0.035l0.099-0.019
		c0.729-0.132,1.221-0.888,1.102-1.689c-0.119-0.805-0.806-1.348-1.536-1.217l-0.06,0.011l-0.188,0.03l-0.252,0.037l-0.314,0.044
		l-0.371,0.051l-0.423,0.058l-0.479,0.062l-0.526,0.064l-0.879,0.108l-1.329,0.156l-1.489,0.173l-1.641,0.187l-1.77,0.197
		l-1.886,0.2l-1.988,0.211l-2.072,0.212l-3.234,0.33l-4.461,0.425l-4.524,0.409l-3.357,0.281l-2.189,0.173l-2.134,0.156
		l-2.063,0.141l-1.976,0.123l-1.872,0.1l-1.753,0.076l-1.615,0.055l-1.465,0.028h-0.989l-0.6-0.009l-0.55-0.014l-0.495-0.026
		l-0.441-0.032l-0.375-0.034l-0.307-0.044l-0.222-0.038l-0.118-0.021l-0.038-0.002l-0.075-0.047
		c-0.044-0.024-0.091-0.047-0.139-0.067l-0.565-0.117l-0.504,0.074l-0.335,0.14l-0.293,0.177l-0.379,0.273l-0.476,0.396
		l-0.447,0.409l-0.373,0.352l-0.196,0.184l-0.027,0.026l0.422-0.155l1.526,1.336v-0.017l-0.023,0.413l0.058-0.304l0.12-0.701
		l0.131-0.829l0.144-0.96l0.153-1.076l0.162-1.187l0.172-1.288l0.178-1.375l0.185-1.459l0.189-1.53l0.291-2.408l0.396-3.377
		l0.397-3.492l0.388-3.529l0.369-3.496l0.262-2.551l0.164-1.647l0.154-1.6l0.144-1.534l0.132-1.466l0.119-1.386l0.104-1.295
		l0.093-1.198l0.073-1.089l0.056-0.977l0.04-0.858l0.017-0.722l0.002-0.288c0-0.009,0-0.016,0-0.024l-0.017-1.818l-0.09-3.673
		l-0.16-3.731l-0.23-3.785l-0.304-3.828l-0.375-3.87l-0.445-3.907l-0.518-3.934l-0.589-3.956l-0.661-3.97l-0.733-3.983l-0.804-3.985
		l-0.88-3.986l-0.952-3.983l-1.024-3.965l-1.097-3.945l-1.171-3.925l-1.244-3.888l-1.318-3.853l-1.393-3.808l-1.467-3.763
		l-1.542-3.702l-1.617-3.642l-1.692-3.577l-1.769-3.501l-1.844-3.426l-1.92-3.335l-1.998-3.244l-2.076-3.147l-2.152-3.046
		l-2.229-2.932l-2.299-2.806l-1.164-1.341c-0.511-0.588-1.358-0.611-1.891-0.048C1169.19,653.194,1169.171,654.125,1169.683,654.712
		"/>
	<path fill="#1D1B3A" stroke="#1D1B3A" stroke-width="0.7859" stroke-miterlimit="10" d="M1288.823,569.501l0.304-4.613l0.597-9.229
		l0.625-9.217l0.714-9.203l0.407-4.589l-0.002,0.011l0.165-1.722l0.366-3.411l0.217-1.679c0-0.005,0-0.008,0-0.012l0.05-0.407
		l0.099-0.903l0.141-0.819l0.146-0.45l0.097-0.183l0.028-0.026l-1.201,0.653l1.885,0.14l3.717,0.277l3.649,0.275l3.577,0.274
		l3.502,0.268l3.424,0.269l3.344,0.261l3.259,0.256l3.177,0.252l3.085,0.25l2.997,0.237l2.9,0.236l2.806,0.228l2.705,0.218
		l2.604,0.215l2.5,0.203l2.392,0.196l2.281,0.185l2.169,0.175l2.053,0.166l1.936,0.157l1.814,0.142l1.689,0.133l1.566,0.118
		l1.434,0.107l1.309,0.096l1.17,0.08l1.037,0.065l0.899,0.054l0.758,0.038l0.62,0.021l0.483,0.004h0.207
		c0.025,0,0.051,0,0.074-0.004l0.022-0.002l0.136-0.016l0.193-0.02l0.249-0.031l0.459-0.06l0.72-0.092l0.754-0.11l0.699-0.116
		l0.445-0.088l0.262-0.067l0.248-0.085l0.488-0.318l0.188-2.021c-0.103-0.146-0.228-0.274-0.371-0.373l-0.117-0.078l-0.354-0.217
		l-0.42-0.225l-0.47-0.236l-0.527-0.244l-0.583-0.259l-0.64-0.272l-0.697-0.29l-0.749-0.299l-0.802-0.313l-0.854-0.326l-0.902-0.339
		l-0.948-0.348l-0.989-0.362l-1.567-0.561l-2.221-0.779l-2.359-0.808l-2.476-0.835l-2.576-0.855l-2.661-0.869l-2.718-0.873
		l-4.16-1.317l-5.59-1.727l-4.151-1.257l-2.712-0.799l-2.643-0.77l-2.559-0.731l-2.457-0.685l-2.333-0.639l-1.662-0.441
		l-1.059-0.274l-1.019-0.26l-0.974-0.245l-0.935-0.225l-0.881-0.209l-0.834-0.19l-0.783-0.171l-0.729-0.15l-0.678-0.131
		l-0.618-0.108l-0.562-0.09l-0.507-0.061l-0.453-0.044l-0.401-0.016l-0.371,0.014l-0.231,0.03c-0.076,0.013-0.149,0.033-0.221,0.058
		l-0.055,0.018l-0.494,0.312l-0.375,0.457l-0.204,0.428l-0.174,0.574l-0.15,0.812l-0.108,0.913l-0.073,0.983l-0.051,1.054
		l-0.036,1.093l-0.035,1.663l-0.022,1.608l-0.015,0.991l-0.019,0.888l-0.03,0.751l-0.038,0.573l-0.035,0.26l-0.012,0.043
		l0.015-0.076c-0.23,0.771,0.151,1.606,0.852,1.861c0.7,0.254,1.457-0.164,1.688-0.938l0.053-0.202l0.056-0.295l0.05-0.431
		l0.044-0.671l0.027-0.802l0.022-0.91l0.015-0.992l0.021-1.592l0.034-1.622l0.033-1.038l0.048-0.972l0.063-0.863l0.076-0.71
		l0.081-0.507l0.044-0.197l-0.042,0.038l-0.191,0.179l-0.292,0.142l0.053-0.02l-0.223,0.058l-0.02-0.003l0.162-0.014l0.271,0.006
		l0.361,0.033l0.441,0.055l0.514,0.078l0.577,0.104l0.645,0.124l0.706,0.144l0.759,0.167l0.816,0.186l0.867,0.204l0.917,0.221
		l0.964,0.241l1.006,0.255l1.047,0.274l1.646,0.437l2.318,0.637l2.439,0.681l2.549,0.726l2.633,0.769l2.699,0.798l4.135,1.247
		l5.576,1.724l4.146,1.312l2.712,0.873l2.646,0.863l2.566,0.852l2.463,0.831l2.344,0.805l2.206,0.771l1.551,0.556l0.981,0.354
		l0.934,0.346l0.887,0.33l0.836,0.324l0.783,0.306l0.727,0.292l0.667,0.272l0.607,0.261l0.54,0.24l0.469,0.216l0.397,0.195
		l0.309,0.166l0.236,0.142l0.119,0.081l-0.369-0.373l0.212-1.982l0.398-0.236l-0.006,0.009l-0.135,0.035l-0.363,0.074l-0.649,0.106
		l-0.727,0.106l-0.7,0.095l-0.447,0.058l-0.238,0.026l-0.169,0.02l-0.075,0.01l-0.022,0.002l0.073-0.003l-0.133,0.003l-0.425-0.005
		l-0.586-0.022l-0.737-0.033l-0.887-0.055l-1.023-0.065l-1.165-0.081l-1.298-0.093l-1.433-0.107l-1.562-0.118l-1.688-0.134
		l-1.812-0.144l-1.935-0.154l-2.052-0.164l-2.169-0.177l-2.281-0.183l-2.392-0.198l-2.498-0.203l-2.605-0.214l-2.705-0.219
		l-2.807-0.227l-2.901-0.237l-2.997-0.238l-3.089-0.248l-3.174-0.25l-3.262-0.259l-3.347-0.261l-3.426-0.269l-3.502-0.271
		l-3.577-0.271l-3.655-0.275l-3.717-0.279l-1.886-0.138c-0.478-0.036-0.934,0.214-1.203,0.65l-0.186,0.333l-0.256,0.594l-0.23,0.831
		l-0.165,0.998l-0.096,0.868l-0.047,0.405l0.001-0.012l-0.226,1.747l-0.369,3.453l-0.163,1.719l-0.001,0.008l-0.41,4.629
		l-0.716,9.232l-0.626,9.228l-0.597,9.224l-0.304,4.613c-0.055,0.812,0.501,1.517,1.236,1.578
		C1288.131,570.922,1288.77,570.313,1288.823,569.501"/>
	<path fill="#1D1B3A" stroke="#1D1B3A" stroke-width="0.7859" stroke-miterlimit="10" d="M1366.985,527.021l-0.395,1.787
		l-0.767,3.525l-0.735,3.457l-0.703,3.384l-0.678,3.312l-0.643,3.243l-0.616,3.17l-0.589,3.103l-0.561,3.037l-0.537,2.964
		l-0.507,2.896l-0.484,2.833l-0.458,2.763l-0.436,2.697l-0.41,2.636l-0.39,2.566l-0.367,2.508l-0.348,2.438l-0.325,2.379
		l-0.305,2.318l-0.289,2.251l-0.267,2.194l-0.251,2.134l-0.233,2.074l-0.217,2.011l-0.203,1.955l-0.187,1.897l-0.17,1.836
		l-0.159,1.787l-0.147,1.725l-0.134,1.672l-0.123,1.614l-0.111,1.561l-0.1,1.506l-0.093,1.452l-0.081,1.399l-0.075,1.349
		l-0.068,1.294l-0.06,1.247l-0.054,1.193l-0.073,1.696l-0.078,2.092l-0.072,1.899l-0.062,1.707l-0.062,1.524l-0.066,1.337
		l-0.076,1.158l-0.088,0.971l-0.109,0.79l-0.122,0.597l-0.133,0.379l-0.103,0.146l0.046-0.103l0.864-0.475l-0.012,0.001l0.073-0.008
		l-0.14-0.01l-0.241-0.017l-0.324-0.026l-0.401-0.031l-0.479-0.04l-0.545-0.044l-0.615-0.053l-0.68-0.057l-0.743-0.063l-0.8-0.07
		l-0.861-0.074l-0.912-0.079l-0.969-0.086l-1.013-0.091l-1.612-0.142l-2.299-0.206l-2.448-0.219l-2.582-0.235l-2.69-0.243
		l-2.781-0.259l-4.299-0.395l-5.853-0.551l-5.846-0.554l-4.28-0.414l-2.766-0.271l-2.669-0.264l-2.558-0.258l-2.418-0.249
		l-2.264-0.235l-1.582-0.17l-0.996-0.107l-0.943-0.104l-0.892-0.104l-0.835-0.094l-0.775-0.093l-0.716-0.087l-0.649-0.081
		l-0.584-0.076l-0.512-0.072l-0.438-0.064l-0.36-0.058l-0.143-0.028c-0.73-0.127-1.415,0.418-1.531,1.222
		c-0.116,0.806,0.381,1.559,1.108,1.688l0,0l0.178,0.031l0.395,0.064l0.46,0.067l0.531,0.074l0.596,0.077l0.66,0.084l0.725,0.088
		l0.782,0.095l0.84,0.095l0.897,0.101l0.948,0.106l1.001,0.109l1.587,0.169l2.269,0.237l2.422,0.248l2.561,0.257l2.674,0.266
		l2.768,0.271l4.283,0.413l5.848,0.557l5.858,0.551l4.298,0.396l2.784,0.256l2.692,0.242l2.583,0.235l2.45,0.221l2.3,0.202
		l1.612,0.147l1.016,0.089l0.967,0.088l0.915,0.077l0.861,0.076l0.803,0.068l0.745,0.066l0.682,0.056l0.617,0.051l0.55,0.046
		l0.48,0.038l0.408,0.035l0.337,0.025l0.265,0.016l0.204,0.015l0.257-0.001l0.012-0.002c0.333-0.032,0.641-0.203,0.865-0.474
		l0.288-0.397l0.319-0.656l0.216-0.714l0.16-0.805l0.12-0.92l0.095-1.059l0.081-1.207l0.066-1.366l0.063-1.535l0.062-1.71
		l0.069-1.895l0.081-2.078l0.07-1.684l0.053-1.188l0.059-1.229l0.068-1.286l0.074-1.335l0.082-1.39l0.091-1.439l0.099-1.492
		l0.113-1.546l0.119-1.603l0.133-1.653l0.146-1.713l0.155-1.77l0.173-1.822l0.183-1.882l0.201-1.94l0.215-1.994l0.231-2.061
		l0.251-2.118l0.265-2.179l0.284-2.238l0.304-2.299l0.324-2.363l0.344-2.425l0.365-2.492l0.389-2.553l0.408-2.619l0.433-2.685
		l0.455-2.75l0.481-2.813l0.508-2.887l0.533-2.949l0.555-3.018l0.588-3.091l0.613-3.157l0.643-3.229l0.672-3.297l0.699-3.371
		l0.734-3.44l0.766-3.518l0.393-1.787c0.174-0.791-0.266-1.589-0.981-1.779C1367.883,525.747,1367.16,526.228,1366.985,527.021"/>
	<path fill="#1D1B3A" stroke="#1D1B3A" stroke-width="0.7859" stroke-miterlimit="10" d="M1288.401,624.716l-0.063-0.401l-0.075-0.7
		l-0.02-0.672l0.015-0.672l0.091-1.037l0.224-1.397l0.3-1.411l0.335-1.458l0.33-1.511l0.272-1.574l0.1-0.841
		c0.092-0.809-0.424-1.548-1.157-1.652c-0.73-0.102-1.401,0.464-1.495,1.273l-0.077,0.669l-0.243,1.434l-0.322,1.471l-0.35,1.521
		l-0.329,1.576l-0.252,1.621l-0.101,1.248l-0.015,0.869l0.04,0.885l0.096,0.871l0.064,0.397c0.128,0.802,0.824,1.337,1.548,1.197
		C1288.045,626.278,1288.529,625.516,1288.401,624.716"/>
	<path fill="#1D1B3A" stroke="#1D1B3A" stroke-width="0.7859" stroke-miterlimit="10" d="M1205.713,539.459l-0.079-1.2l-0.254-2.441
		l-0.355-2.415l-0.427-2.371l-0.718-3.466l-0.731-3.382l-0.449-2.194l-0.389-2.153l-0.307-2.108l-0.198-2.068l-0.068-2.022
		l0.049-1.475l0.081-0.962l0.126-0.967l0.175-0.963l0.223-0.953l0.276-0.946l0.331-0.943l0.391-0.939l0.211-0.45
		c0.333-0.724,0.071-1.609-0.584-1.981c-0.658-0.37-1.463-0.083-1.797,0.643l0,0l-0.261,0.566l-0.454,1.103l-0.383,1.106
		l-0.32,1.111l-0.255,1.113l-0.198,1.118l-0.142,1.113l-0.09,1.132l-0.048,1.685l0.083,2.223l0.217,2.219l0.322,2.223l0.405,2.225
		l0.456,2.229l0.726,3.353l0.7,3.386l0.412,2.27l0.338,2.276l0.242,2.316l0.079,1.203c0.055,0.811,0.696,1.422,1.432,1.364
		C1205.212,540.975,1205.765,540.273,1205.713,539.459"/>
	<path fill="#1D1B3A" stroke="#1D1B3A" stroke-width="0.7859" stroke-miterlimit="10" d="M1201.88,506.588l0.697,0.334l1.469,0.622
		l1.516,0.536l1.542,0.44l1.562,0.35l1.583,0.254l1.598,0.157l1.612,0.066l1.619-0.023l1.625-0.116l1.628-0.208l1.629-0.298
		l1.624-0.389l1.616-0.479l1.607-0.566l1.596-0.657l1.579-0.745l1.561-0.833l1.538-0.918l1.514-1.009l1.487-1.094l1.454-1.182
		l1.42-1.267l1.382-1.353l1.341-1.433l1.298-1.521l1.251-1.604l1.2-1.687l1.149-1.774l1.091-1.854l1.033-1.937l0.97-2.018
		l0.467-1.058c0.001-0.003,0.005-0.006,0.007-0.012l0.593-1.385l1.121-2.843l1.033-2.885l0.958-2.9l0.459-1.46
		c0.243-0.77-0.125-1.606-0.823-1.877c-0.697-0.266-1.459,0.14-1.702,0.907l0,0l-0.447,1.42l-0.933,2.827l-0.998,2.792l-1.087,2.76
		l-0.595,1.381l0.009-0.015l-0.427,0.968l-0.912,1.901l-0.971,1.829l-1.025,1.746l-1.076,1.665l-1.125,1.587l-1.172,1.506
		l-1.213,1.426l-1.254,1.345l-1.29,1.268l-1.322,1.185l-1.353,1.101l-1.382,1.02l-1.409,0.941l-1.427,0.856l-1.447,0.777
		l-1.464,0.692l-1.474,0.611l-1.487,0.527l-1.494,0.445l-1.497,0.362l-1.495,0.275l-1.494,0.196l-1.488,0.108l-1.481,0.027
		l-1.471-0.054l-1.454-0.145l-1.44-0.227l-1.42-0.311l-1.396-0.396l-1.371-0.479l-1.362-0.574l-0.697-0.332
		c-0.677-0.326-1.464,0.018-1.758,0.763C1200.891,505.397,1201.204,506.267,1201.88,506.588"/>
	<path fill="#1D1B3A" stroke="#1D1B3A" stroke-width="0.7859" stroke-miterlimit="10" d="M1256.095,450.792l0.092-1.614l0.082-3.274
		l-0.057-3.278l-0.192-3.261l-0.329-3.24l-0.461-3.215l-0.596-3.186l-0.727-3.151l-0.857-3.11l-0.988-3.071l-1.116-3.024
		l-1.241-2.971l-1.369-2.92l-1.49-2.861l-1.615-2.797l-1.735-2.728l-0.92-1.351c-0.446-0.651-1.282-0.781-1.872-0.296
		c-0.591,0.49-0.709,1.414-0.265,2.062l0.869,1.274l1.668,2.617l1.551,2.684l1.433,2.743l1.316,2.8l1.194,2.851l1.072,2.899
		l0.947,2.94l0.827,2.983l0.698,3.02l0.574,3.05l0.444,3.083l0.318,3.103l0.188,3.125l0.056,3.146l-0.077,3.171l-0.091,1.614
		c-0.046,0.811,0.513,1.51,1.251,1.562C1255.413,452.22,1256.051,451.609,1256.095,450.792"/>
	<path fill="#1D1B3A" stroke="#1D1B3A" stroke-width="0.7859" stroke-miterlimit="10" d="M1252.447,451.357l0.23,0.089l0.511,0.19
		l0.562,0.21l0.603,0.224l0.983,0.354l1.438,0.516l1.554,0.562l1.648,0.59l2.576,0.934l3.492,1.289l2.528,0.969l1.589,0.63
		l1.481,0.612l1.339,0.583l0.891,0.413l0.527,0.257l0.478,0.248l0.421,0.23l0.174,0.105l-0.183-0.128l0.036,0.027l-0.379-0.494
		l-0.12-0.617l0.031-0.229l-0.012-0.011l-0.069,0.103l-0.204,0.281l-0.396,0.49l-0.507,0.578l-0.593,0.645l-0.654,0.682
		l-1.045,1.049l-1.04,1.01l-0.652,0.617l-0.6,0.559l-0.516,0.472l-0.319,0.281l-0.17,0.15l-0.139,0.115l-0.094,0.077l-0.009,0.007
		l0.035-0.028l-0.627,0.447l-1.216,0.799l-1.201,0.704l-1.201,0.624l-1.2,0.54l-1.205,0.46l-1.21,0.379l-1.217,0.3l-1.229,0.222
		l-1.24,0.141l-1.258,0.068l-1.276-0.016l-1.294-0.093l-1.321-0.171l-1.346-0.254l-1.374-0.326l-0.683-0.193
		c-0.718-0.198-1.444,0.276-1.623,1.066c-0.181,0.79,0.253,1.59,0.969,1.789l0,0l0.771,0.215l1.499,0.355l1.481,0.271l1.461,0.186
		l1.441,0.1l1.427,0.013l1.41-0.078l1.396-0.165l1.379-0.256l1.366-0.342l1.353-0.429l1.339-0.518l1.328-0.602l1.319-0.69
		l1.311-0.772l1.291-0.849l0.627-0.445c0.012-0.01,0.024-0.018,0.038-0.027l0.073-0.059l0.14-0.11l0.166-0.144l0.195-0.169
		l0.341-0.301l0.541-0.493l0.617-0.572l0.676-0.646l1.075-1.043l1.078-1.083l0.693-0.724l0.646-0.701l0.583-0.673l0.497-0.619
		l0.312-0.444l0.19-0.32l0.173-0.375l0.134-0.537l-0.095-0.857l-0.45-0.664l-0.034-0.03c-0.058-0.047-0.119-0.09-0.182-0.127
		l-0.233-0.137l-0.483-0.266l-0.53-0.271l-0.576-0.281l-0.941-0.437l-1.382-0.602l-1.516-0.627l-1.618-0.642l-2.556-0.979
		l-3.507-1.293l-2.583-0.937l-1.647-0.591l-1.55-0.556l-1.434-0.518l-0.972-0.353l-0.597-0.218l-0.548-0.205l-0.498-0.19
		l-0.232-0.087c-0.699-0.268-1.458,0.14-1.703,0.907C1251.379,450.25,1251.749,451.087,1252.447,451.357"/>
	<path fill="#1D1B3A" stroke="#1D1B3A" stroke-width="0.7859" stroke-miterlimit="10" d="M1238.054,434.448l-0.263,0.61
		l-0.496,1.165l-0.468,1.188l-0.431,1.288l-0.203,0.733c-0.004,0.011-0.006,0.021-0.009,0.033l-0.144,0.58l-0.269,1.107
		l-0.232,1.038l-0.198,0.962l-0.166,0.889l-0.137,0.819l-0.104,0.755l-0.074,0.692l-0.049,0.634l-0.019,0.579l0.01,0.534l0.04,0.491
		l0.077,0.462l0.119,0.443l0.186,0.436l0.278,0.417l0.4,0.372l0.502,0.248l0.531,0.081l0.482-0.063l0.572-0.22l0.675-0.46
		l0.63-0.594l0.6-0.697l0.587-0.795l0.581-0.875l0.571-0.949l0.555-1.014l0.533-1.059l0.499-1.094l0.461-1.117l0.411-1.12
		l0.352-1.113l0.287-1.097l0.207-1.07l0.118-1.034l0.01-0.999l-0.079-0.757l-0.11-0.513l-0.158-0.475l-0.217-0.457l-0.282-0.434
		l-0.354-0.391l-0.416-0.324l-0.467-0.252l-0.505-0.169l-0.526-0.089l-0.31-0.02c-0.736-0.037-1.357,0.596-1.387,1.408
		c-0.031,0.814,0.544,1.5,1.279,1.533l0,0l0.069-0.004l0.173,0.014l0.119,0.018l0.084,0.018l0.06,0.021l0.062,0.033l0.06,0.06
		l0.064,0.104l0.062,0.143l0.049,0.164l0.054,0.36l0.007,0.653l-0.079,0.779l-0.162,0.872l-0.242,0.935l-0.305,0.98l-0.367,1.004
		l-0.416,1.009l-0.451,0.995l-0.48,0.963l-0.498,0.911l-0.502,0.841l-0.491,0.748l-0.469,0.639l-0.42,0.506l-0.333,0.348
		l-0.216,0.187l-0.035,0.053l0.112,0.014l0.188,0.065l0.191,0.134l0.126,0.161l0.04,0.106l-0.016,0.009l-0.038-0.09l-0.04-0.188
		l-0.029-0.275l-0.008-0.362l0.013-0.44l0.035-0.521l0.065-0.598l0.092-0.673l0.123-0.751l0.155-0.83l0.188-0.912l0.222-0.99
		l0.258-1.076l0.145-0.578l-0.009,0.033l0.152-0.572l0.373-1.129l0.437-1.109l0.496-1.165l0.26-0.61
		c0.316-0.736,0.025-1.615-0.641-1.96C1239.162,433.396,1238.367,433.71,1238.054,434.448"/>
	<path fill="#1D1B3A" stroke="#1D1B3A" stroke-width="0.7859" stroke-miterlimit="10" d="M1162.932,391.621l0.649-0.609l1.288-1.267
		l1.252-1.332l1.189-1.402l1.105-1.489l0.771-1.2l0.481-0.843l0.439-0.856l0.402-0.887l0.364-0.923l0.321-0.953l0.149-0.512
		c0.004-0.014,0.008-0.029,0.011-0.043l0.179-0.688l0.308-1.45l0.224-1.483l0.134-1.485l0.047-1.483l-0.038-1.479l-0.118-1.473
		l-0.195-1.465l-0.275-1.454l-0.347-1.431l-0.418-1.417l-0.486-1.398l-0.551-1.37l-0.616-1.343l-0.675-1.315l-0.737-1.288
		l-0.396-0.644c-0.006-0.011-0.013-0.021-0.02-0.033l-0.585-0.896l-1.242-1.736l-1.298-1.607l-1.343-1.467l-1.384-1.322
		l-1.422-1.188l-1.456-1.052l-1.487-0.915l-1.514-0.785l-1.539-0.658l-1.556-0.533l-1.572-0.407l-1.582-0.292l-1.589-0.173
		l-1.594-0.066l-1.593,0.047l-1.591,0.148l-1.583,0.248l-1.575,0.347l-1.562,0.437l-1.545,0.524l-1.528,0.609l-1.509,0.69
		l-1.482,0.771l-1.458,0.842l-1.426,0.912l-1.398,0.979l-1.36,1.042l-1.324,1.104l-1.285,1.16l-1.241,1.214l-1.196,1.264
		l-1.145,1.311l-1.096,1.356l-1.042,1.396l-0.984,1.433l-0.924,1.472l-0.862,1.499l-0.795,1.529l-0.728,1.556l-0.655,1.575
		l-0.579,1.595l-0.5,1.615l-0.418,1.629l-0.335,1.636l-0.245,1.644l-0.152,1.647l-0.057,1.649l0.042,1.646l0.146,1.64l0.253,1.626
		l0.363,1.61l0.478,1.589l0.594,1.565l0.713,1.535l0.835,1.498l0.958,1.459l1.083,1.416l1.21,1.368l1.339,1.315l1.47,1.257
		l1.602,1.201l1.738,1.141l1.872,1.072l1.004,0.522c0.013,0.005,0.023,0.009,0.036,0.016l0.496,0.235l1.091,0.466l1.153,0.417
		l1.194,0.367l1.226,0.314l1.25,0.278l1.899,0.333l2.564,0.321l2.548,0.196l1.867,0.073l1.207,0.021l1.164-0.006l1.118-0.021
		l0.547-0.016c0.004,0,0.011,0,0.018,0l0.87-0.043l1.721-0.144l1.645-0.224l1.564-0.3l1.481-0.377l1.397-0.445l1.317-0.517
		l1.238-0.586l1.16-0.649l1.08-0.719l1.003-0.775l0.924-0.837l0.845-0.893l0.77-0.94l0.69-0.994l0.613-1.035l0.538-1.075
		l0.463-1.108l0.389-1.143l0.318-1.17l0.249-1.194l0.18-1.211l0.113-1.232l0.052-1.242l-0.01-1.257l-0.068-1.261l-0.126-1.266
		l-0.183-1.272l-0.234-1.27l-0.287-1.271l-0.338-1.263l-0.384-1.255l-0.432-1.25l-0.477-1.234l-0.521-1.218l-0.562-1.205
		l-0.604-1.182l-0.643-1.164l-0.681-1.135l-0.716-1.109l-0.751-1.078l-0.786-1.045l-0.817-1.012l-0.849-0.974l-0.878-0.929
		l-0.906-0.89l-0.936-0.842l-0.96-0.793l-0.986-0.741l-1.009-0.684l-1.032-0.629l-1.052-0.564l-1.073-0.506l-1.092-0.433
		l-1.11-0.367l-1.124-0.288l-1.14-0.21l-1.149-0.129l-1.162-0.046l-1.17,0.043l-1.176,0.136l-1.177,0.23l-1.178,0.323l-1.176,0.427
		l-0.608,0.26c-0.014,0.007-0.03,0.017-0.044,0.02l-0.584,0.283l-1.138,0.629l-1.036,0.699l-0.914,0.759l-0.794,0.813l-0.673,0.87
		l-0.55,0.926l-0.429,0.971l-0.305,1.007l-0.184,1.028l-0.067,1.043l0.041,1.043l0.137,1.04l0.228,1.029l0.31,1.019l0.382,1.006
		l0.45,0.985l0.509,0.971l0.563,0.956l0.616,0.933l0.656,0.91l0.698,0.887l0.732,0.864l0.761,0.83l1.181,1.184l1.638,1.455
		l1.685,1.302l1.276,0.859l0.852,0.514l0.431,0.241c0.01,0.008,0.021,0.012,0.03,0.014l0.396,0.212l0.858,0.396l0.89,0.355
		l0.9,0.301l1.354,0.373l1.825,0.365l1.84,0.25l1.821,0.178l1.788,0.135l1.736,0.126l0.838,0.071
		c0.736,0.062,1.378-0.545,1.434-1.357c0.055-0.811-0.497-1.519-1.233-1.578l0,0l-0.864-0.073l-1.732-0.127l-1.737-0.128
		l-1.725-0.166l-1.695-0.232l-1.661-0.325l-1.213-0.326l-0.775-0.258l-0.753-0.297l-0.752-0.346l-0.394-0.207l0.03,0.019
		l-0.356-0.199l-0.74-0.444l-1.138-0.762l-1.54-1.179l-1.517-1.344l-1.096-1.091l-0.692-0.757l-0.663-0.775l-0.626-0.794
		l-0.586-0.807l-0.54-0.814l-0.488-0.819l-0.435-0.815l-0.375-0.813l-0.313-0.801l-0.246-0.785l-0.18-0.764l-0.11-0.741
		l-0.042-0.711l0.028-0.69l0.1-0.662l0.178-0.652l0.259-0.636l0.356-0.627l0.457-0.623l0.577-0.612l0.7-0.595l0.836-0.576
		l0.998-0.557l0.584-0.28l-0.043,0.019l0.475-0.204l0.991-0.368l0.992-0.281l0.989-0.2l0.987-0.12l0.986-0.041l0.983,0.033
		l0.979,0.104l0.975,0.173l0.97,0.246l0.963,0.31l0.953,0.376l0.946,0.437l0.933,0.5l0.92,0.556l0.905,0.611l0.889,0.665
		l0.871,0.716l0.852,0.763l0.828,0.808l0.806,0.849l0.78,0.894l0.753,0.928l0.724,0.961l0.695,0.996l0.661,1.021l0.631,1.048
		l0.594,1.072l0.558,1.088l0.519,1.108l0.48,1.119l0.439,1.129l0.396,1.144l0.353,1.143l0.308,1.146l0.262,1.146l0.213,1.141
		l0.166,1.135l0.114,1.121l0.065,1.114l0.012,1.093l-0.042,1.078l-0.093,1.058l-0.148,1.032l-0.203,1.005l-0.261,0.979l-0.316,0.948
		l-0.375,0.916l-0.435,0.89l-0.498,0.851l-0.56,0.818l-0.627,0.78l-0.696,0.743l-0.765,0.704l-0.842,0.66l-0.918,0.615l-0.998,0.568
		l-1.079,0.519l-1.166,0.461l-1.252,0.407l-1.341,0.34l-1.43,0.279l-1.522,0.211l-1.63,0.14l-0.872,0.041h0.02l-0.513,0.016
		l-1.077,0.021l-1.121,0.004l-1.15-0.018l-1.778-0.071l-2.432-0.184l-2.443-0.301l-1.799-0.314l-1.16-0.255l-1.123-0.287
		l-1.079-0.328l-1.025-0.366l-0.982-0.413l-0.495-0.241l0.035,0.019l-0.908-0.468l-1.741-0.994l-1.6-1.045l-1.464-1.093l-1.333-1.13
		l-1.205-1.173l-1.08-1.211l-0.961-1.244l-0.844-1.271l-0.734-1.304l-0.625-1.327l-0.522-1.354l-0.421-1.375l-0.322-1.397
		l-0.227-1.416l-0.134-1.436l-0.043-1.447l0.045-1.459l0.13-1.471l0.216-1.479l0.297-1.477l0.378-1.48l0.453-1.471l0.528-1.465
		l0.601-1.453l0.67-1.438l0.734-1.419l0.8-1.396l0.86-1.37l0.918-1.343l0.973-1.305l1.024-1.27l1.073-1.234l1.12-1.184l1.161-1.141
		l1.202-1.088l1.237-1.033l1.271-0.977l1.302-0.916l1.327-0.853l1.354-0.784l1.374-0.717l1.392-0.639l1.404-0.564l1.417-0.487
		l1.425-0.401l1.432-0.318l1.433-0.229l1.434-0.14l1.429-0.047l1.425,0.052l1.416,0.15l1.406,0.25l1.394,0.358l1.381,0.464
		l1.365,0.578l1.347,0.689l1.328,0.812l1.307,0.934l1.281,1.062l1.256,1.193l1.227,1.329l1.193,1.471l1.171,1.634l0.588,0.898
		l-0.021-0.033l0.346,0.562l0.671,1.164l0.615,1.191l0.56,1.215l0.5,1.233l0.439,1.25l0.375,1.263l0.312,1.275l0.247,1.286
		l0.178,1.29l0.109,1.296l0.036,1.296l-0.035,1.294l-0.112,1.297l-0.188,1.292l-0.275,1.31l-0.178,0.687l0.012-0.047l-0.113,0.395
		l-0.265,0.805l-0.304,0.776l-0.338,0.755l-0.374,0.739l-0.399,0.704l-0.661,1.036l-0.99,1.349l-1.091,1.29l-1.173,1.253
		l-1.246,1.225l-0.648,0.611c-0.562,0.525-0.626,1.455-0.147,2.074C1161.528,392.077,1162.371,392.146,1162.932,391.621"/>
	<path fill="#1D1B3A" stroke="#1D1B3A" stroke-width="0.7859" stroke-miterlimit="10" d="M1178.968,524.684l0.083-0.414l0.159-0.907
		l0.141-0.959l0.118-1.001l0.142-1.556l0.126-2.191l0.061-2.301v-2.381l-0.054-2.437l-0.102-2.462l-0.144-2.465l-0.182-2.443
		l-0.214-2.391l-0.241-2.313l-0.262-2.212l-0.279-2.08l-0.29-1.923l-0.298-1.742l-0.15-0.807c-0.149-0.796-0.858-1.31-1.581-1.146
		c-0.721,0.166-1.186,0.943-1.037,1.741l0.143,0.749l0.286,1.684l0.283,1.872l0.274,2.032l0.256,2.163l0.235,2.268l0.21,2.34
		l0.18,2.395l0.141,2.409l0.099,2.399l0.052,2.364l0.001,2.299l-0.056,2.2l-0.118,2.083l-0.131,1.468l-0.107,0.918l-0.125,0.865
		l-0.146,0.825l-0.083,0.416c-0.159,0.794,0.295,1.58,1.016,1.755C1178.093,525.979,1178.808,525.477,1178.968,524.684"/>
	<path fill="#1D1B3A" stroke="#1D1B3A" stroke-width="0.7859" stroke-miterlimit="10" d="M1155.029,525.509l0.151,0.337l0.361,0.727
		l0.412,0.708l0.446,0.672l0.711,0.929l1.03,1.149l1.104,1.068l1.135,0.997l1.699,1.409l1.1,0.918
		c0.59,0.493,1.427,0.365,1.873-0.281c0.444-0.648,0.33-1.576-0.26-2.064l-1.108-0.926l-1.642-1.36l-1.037-0.907l-0.969-0.93
		l-0.888-0.975l-0.598-0.771l-0.352-0.527l-0.32-0.537l-0.298-0.587l-0.15-0.343c-0.325-0.728-1.124-1.032-1.787-0.675
		C1154.981,523.896,1154.706,524.779,1155.029,525.509"/>
	<path fill="#1D1B3A" stroke="#1D1B3A" stroke-width="0.7859" stroke-miterlimit="10" d="M1170.558,488.72l-0.722-0.751
		l-1.423-1.549l-1.409-1.632l-1.401-1.715l-1.384-1.803l-1.359-1.886l-1.333-1.965l-1.3-2.043l-1.26-2.119l-1.217-2.196
		l-1.167-2.271l-1.11-2.34l-1.052-2.407l-0.982-2.474l-0.913-2.542l-0.834-2.604l-0.753-2.666l-0.665-2.724l-0.572-2.778
		l-0.472-2.838l-0.369-2.892l-0.261-2.946l-0.145-2.995l-0.024-3.044l0.101-3.089l0.232-3.136l0.367-3.184l0.512-3.227l0.656-3.264
		l0.812-3.306l0.97-3.345l0.832-2.526l0.607-1.692l0.317-0.846c0.282-0.751-0.042-1.612-0.723-1.925
		c-0.682-0.31-1.465,0.047-1.747,0.798l0,0l-0.333,0.89l-0.633,1.769l-0.866,2.635l-1.004,3.473l-0.84,3.437l-0.682,3.398
		l-0.528,3.358l-0.381,3.314l-0.239,3.271l-0.101,3.224l0.026,3.173l0.154,3.123l0.273,3.068l0.388,3.013l0.494,2.956l0.597,2.897
		l0.694,2.833l0.785,2.772l0.87,2.704l0.949,2.637l1.023,2.572l1.091,2.498l1.154,2.424l1.211,2.353l1.262,2.274l1.308,2.198
		l1.348,2.116l1.382,2.036l1.413,1.953l1.435,1.868l1.453,1.782l1.467,1.691l1.467,1.593l0.722,0.754
		c0.537,0.56,1.384,0.534,1.89-0.06C1171.12,490.21,1171.094,489.278,1170.558,488.72"/>
	<path fill="#1D1B3A" stroke="#1D1B3A" stroke-width="0.7859" stroke-miterlimit="10" d="M1245.195,392.687l-1.037-0.458
		l-2.182-0.927l-2.296-0.92l-2.395-0.904l-2.489-0.887l-2.575-0.861l-2.652-0.842l-2.723-0.807l-2.783-0.771l-2.838-0.727
		l-2.886-0.687l-2.923-0.633l-2.958-0.582l-2.978-0.522l-2.996-0.456l-3.001-0.39l-3.005-0.317l-2.996-0.238l-2.981-0.155
		l-2.959-0.072l-2.93,0.027l-2.891,0.118l-2.846,0.222l-2.794,0.325l-2.732,0.44l-2.667,0.56l-2.588,0.679l-1.897,0.598
		l-1.241,0.438l-1.208,0.472l-1.185,0.508l-1.161,0.541l-1.132,0.577l-1.107,0.616l-1.079,0.65l-1.047,0.693l-1.018,0.727
		l-0.51,0.391c-0.604,0.463-0.755,1.384-0.333,2.049c0.422,0.668,1.254,0.836,1.86,0.371l0.442-0.341l0.932-0.669l0.963-0.64
		l0.996-0.604l1.026-0.569l1.054-0.541l1.083-0.508l1.109-0.477l1.137-0.443l1.156-0.413l1.782-0.562l2.469-0.652l2.555-0.534
		l2.629-0.424l2.697-0.32l2.758-0.217l2.811-0.117l2.852-0.022l2.889,0.066l2.917,0.152l2.933,0.232l2.945,0.307l2.949,0.385
		l2.942,0.447l2.928,0.515l2.908,0.568l2.879,0.626l2.839,0.673l2.795,0.719l2.742,0.756l2.679,0.793l2.609,0.826l2.53,0.848
		l2.444,0.871l2.351,0.887l2.25,0.9l2.145,0.906l1.037,0.464c0.685,0.301,1.462-0.064,1.737-0.817
		C1246.215,393.847,1245.88,392.991,1245.195,392.687"/>
	<path fill="#1D1B3A" stroke="#1D1B3A" stroke-width="0.7859" stroke-miterlimit="10" d="M1164.006,395.52l0.89-0.391l1.765-0.711
		l1.777-0.629l1.8-0.555l1.822-0.487l1.841-0.412l1.858-0.35l1.875-0.28l1.89-0.213l1.901-0.153l1.91-0.086l1.919-0.027l1.926,0.027
		l1.929,0.09l1.932,0.142l1.933,0.199l1.931,0.248l1.925,0.3l1.923,0.345l1.913,0.4l1.904,0.438l1.893,0.485l1.877,0.527
		l1.862,0.568l1.845,0.603l1.824,0.644l1.805,0.676l1.78,0.711l1.754,0.741l1.727,0.772l1.698,0.801l1.664,0.824l0.814,0.421
		c0.669,0.343,1.463,0.024,1.776-0.711c0.314-0.735,0.022-1.615-0.646-1.957l-0.849-0.436l-1.711-0.847l-1.743-0.824l-1.772-0.791
		l-1.803-0.763l-1.828-0.729l-1.852-0.693l-1.876-0.661l-1.896-0.621l-1.916-0.582l-1.933-0.542l-1.946-0.496l-1.96-0.456
		l-1.974-0.405l-1.981-0.36l-1.988-0.308l-1.996-0.255l-2-0.204l-2.001-0.148l-2-0.089l-2-0.03l-1.996,0.031l-1.991,0.093
		l-1.983,0.159l-1.974,0.225l-1.96,0.297l-1.95,0.364l-1.932,0.437l-1.917,0.515l-1.897,0.584l-1.875,0.668l-1.838,0.741
		l-0.891,0.394c-0.685,0.301-1.018,1.16-0.744,1.913S1163.32,395.823,1164.006,395.52"/>
	<path fill="#1D1B3A" stroke="#1D1B3A" stroke-width="0.7859" stroke-miterlimit="10" d="M1164.264,399.429l1.229,0.098l2.41,0.287
		l2.396,0.396l2.391,0.495l2.387,0.593l2.378,0.688l2.368,0.767l2.354,0.846l2.341,0.921l2.319,0.982l2.302,1.039l2.277,1.092
		l2.251,1.137l2.223,1.17l2.196,1.207l2.159,1.228l1.063,0.621c0.653,0.38,1.461,0.105,1.806-0.615
		c0.345-0.716,0.095-1.61-0.557-1.989l-1.087-0.633l-2.195-1.248l-2.231-1.227l-2.266-1.191l-2.299-1.16l-2.328-1.115l-2.356-1.065
		l-2.384-1.007l-2.406-0.943l-2.43-0.871l-2.446-0.796l-2.465-0.709l-2.482-0.615l-2.493-0.515l-2.503-0.407l-2.498-0.293
		l-1.229-0.103c-0.736-0.061-1.377,0.551-1.43,1.361C1162.975,398.663,1163.527,399.368,1164.264,399.429"/>
	<path fill="#1D1B3A" stroke="#1D1B3A" stroke-width="0.7859" stroke-miterlimit="10" d="M1191.73,440.892l-0.009-0.228
		l-0.059-0.569l-0.125-0.587l-0.182-0.556l-0.345-0.734l-0.586-0.867l-0.694-0.767l-0.736-0.655l-1.105-0.829l-0.721-0.507
		c-0.008-0.004-0.014-0.005-0.02-0.011l-0.296-0.198l-0.637-0.386l-0.648-0.326l-0.638-0.255l-0.633-0.186l-0.627-0.115
		l-0.618-0.042l-0.609,0.035l-0.593,0.108l-0.57,0.187l-0.543,0.254l-0.511,0.319l-0.477,0.375l-0.439,0.429l-0.405,0.472
		l-0.372,0.511l-0.339,0.547l-0.31,0.58l-0.405,0.903l-0.461,1.307l-0.379,1.41l-0.292,1.49l-0.213,1.556l-0.136,1.603l-0.062,1.635
		l0.011,1.653l0.08,1.662l0.15,1.647l0.219,1.621l0.288,1.585l0.355,1.525l0.426,1.45l0.495,1.371l0.569,1.27l0.648,1.154
		l0.556,0.799l0.41,0.498l0.424,0.442l0.451,0.396l0.48,0.353l0.51,0.294l0.542,0.24l0.565,0.169l0.591,0.098l0.606,0.021
		l0.617-0.056l0.624-0.138l0.343-0.108c0.045-0.015,0.089-0.033,0.13-0.051l0.233-0.106l0.671-0.461l0.596-0.615l0.482-0.642
		l0.594-0.922l0.526-0.809l0.295-0.365l0.093-0.089c0.538-0.556,0.562-1.49,0.055-2.078c-0.506-0.595-1.352-0.625-1.888-0.067
		l-0.285,0.306l-0.438,0.571l-0.545,0.83l-0.491,0.772l-0.278,0.398l-0.209,0.265l-0.201,0.187l-0.232,0.103l0.13-0.051
		l-0.142,0.051l-0.33,0.088l-0.311,0.046l-0.291,0.001l-0.282-0.029l-0.277-0.07l-0.276-0.108l-0.278-0.146l-0.279-0.19
		l-0.282-0.236l-0.279-0.285l-0.263-0.307l-0.402-0.557l-0.521-0.908l-0.481-1.054l-0.434-1.176l-0.381-1.284l-0.321-1.369
		l-0.265-1.438l-0.204-1.482l-0.14-1.514l-0.078-1.52l-0.011-1.512l0.052-1.485l0.119-1.438l0.183-1.371l0.244-1.285l0.306-1.177
		l0.368-1.069l0.313-0.714l0.216-0.415l0.223-0.375l0.231-0.33l0.236-0.284l0.239-0.247l0.24-0.207l0.246-0.168l0.253-0.135
		l0.263-0.1l0.282-0.069l0.307-0.03l0.334,0.009l0.368,0.058l0.403,0.108l0.437,0.164l0.47,0.23l0.521,0.31l0.297,0.201l-0.02-0.014
		l0.65,0.454l0.941,0.696l0.536,0.458l0.441,0.453l0.353,0.478l0.195,0.371l0.089,0.229l0.065,0.239l0.041,0.308l0.008,0.229
		c0.028,0.814,0.648,1.447,1.385,1.419C1191.183,442.386,1191.758,441.705,1191.73,440.892"/>
	<path fill="#1D1B3A" stroke="#1D1B3A" stroke-width="0.7859" stroke-miterlimit="10" d="M1183.507,444.231l0.377,0.254l0.613,0.472
		l0.501,0.474l0.421,0.49l0.353,0.505l0.296,0.527l0.247,0.55l0.203,0.578l0.167,0.619l0.132,0.651l0.102,0.692l0.074,0.729
		l0.07,1.175l0.036,1.674l0.006,0.873c0.005,0.812,0.608,1.469,1.348,1.463c0.737-0.004,1.331-0.667,1.325-1.483l0,0l-0.006-0.923
		l-0.041-1.798l-0.082-1.312l-0.092-0.878l-0.133-0.866l-0.181-0.856l-0.24-0.844l-0.303-0.823l-0.375-0.803l-0.453-0.77
		l-0.533-0.734l-0.616-0.687l-0.7-0.641l-0.759-0.58l-0.377-0.248c-0.634-0.423-1.454-0.198-1.835,0.499
		C1182.671,442.908,1182.875,443.814,1183.507,444.231"/>
	<path fill="#1D1B3A" stroke="#1D1B3A" stroke-width="0.7859" stroke-miterlimit="10" d="M1201.964,448.079l-0.019-0.583
		l-0.003-1.111l0.041-1.091l0.085-1.078l0.125-1.072l0.167-1.064l0.327-1.597l0.568-2.097l0.711-2.057l0.848-2.025l0.977-1.993
		l1.1-1.963l1.21-1.931l1.315-1.895l1.411-1.855l1.497-1.824l1.575-1.779l1.64-1.738l1.702-1.698l1.75-1.649l1.788-1.607l1.82-1.562
		l1.841-1.513l1.851-1.467l1.854-1.413l1.846-1.363l1.831-1.312l1.803-1.257l1.767-1.208l1.724-1.149l1.668-1.095l1.605-1.037
		l1.533-0.984l1.45-0.928l1.361-0.861l0.642-0.412c0.641-0.409,0.858-1.311,0.486-2.015c-0.371-0.704-1.19-0.944-1.827-0.535
		l-0.641,0.409l-1.36,0.865l-1.457,0.93l-1.542,0.989l-1.619,1.048l-1.688,1.107l-1.743,1.166l-1.792,1.221l-1.83,1.276l-1.86,1.337
		l-1.88,1.389l-1.891,1.441l-1.892,1.497l-1.884,1.548l-1.868,1.601l-1.839,1.657l-1.804,1.705l-1.76,1.754l-1.704,1.809
		l-1.639,1.859l-1.566,1.908l-1.485,1.958l-1.391,2.01l-1.288,2.059l-1.177,2.111l-1.05,2.159l-0.919,2.212l-0.774,2.26
		l-0.615,2.292l-0.354,1.744l-0.182,1.188l-0.138,1.197l-0.093,1.209l-0.043,1.218l0.004,1.21l0.018,0.584
		c0.029,0.812,0.65,1.447,1.386,1.418C1201.415,449.575,1201.993,448.891,1201.964,448.079"/>
	<path fill="#1D1B3A" stroke="#1D1B3A" stroke-width="0.7859" stroke-miterlimit="10" d="M1177.996,462.615l-0.046,1.009
		l-0.037,1.975l0.027,1.88l0.087,1.77l0.136,1.671l0.178,1.567l0.211,1.471l0.233,1.376l0.248,1.286l0.253,1.193l0.249,1.105
		l0.234,1.021l0.213,0.936l0.179,0.852l0.139,0.769l0.091,0.676l0.038,0.59l-0.018,0.492l-0.069,0.399l-0.113,0.316l-0.154,0.26
		l-0.212,0.245l-0.299,0.258l-0.417,0.283l-0.559,0.299l-0.714,0.307l-0.875,0.304l-1.042,0.308l-1.213,0.301l-1.389,0.297
		l-1.572,0.302l-1.759,0.297l-0.948,0.151c-0.731,0.117-1.237,0.861-1.131,1.667c0.106,0.805,0.784,1.364,1.516,1.247l0,0
		l0.975-0.156l1.805-0.305l1.631-0.312l1.465-0.315l1.312-0.331l1.172-0.344l1.043-0.373l0.925-0.411l0.818-0.46l0.718-0.533
		l0.61-0.611l0.486-0.696l0.348-0.753l0.216-0.78l0.1-0.787l0.011-0.79l-0.06-0.8l-0.113-0.82l-0.157-0.854l-0.19-0.896
		l-0.215-0.945l-0.229-1.005l-0.241-1.069l-0.241-1.137l-0.236-1.215l-0.221-1.292l-0.198-1.376l-0.169-1.472l-0.129-1.561
		l-0.083-1.661l-0.027-1.767l0.036-1.89l0.045-1.006c0.037-0.816-0.531-1.508-1.269-1.55
		C1178.66,461.178,1178.032,461.801,1177.996,462.615"/>
	<path fill="#1D1B3A" stroke="#1D1B3A" stroke-width="0.7859" stroke-miterlimit="10" d="M1231.079,423.008l0.728-0.013l1.51-0.106
		l1.507-0.204l1.479-0.295l1.455-0.371l1.432-0.427l2.097-0.714l1.39-0.52c0.7-0.257,1.074-1.089,0.839-1.862
		c-0.237-0.772-0.995-1.185-1.693-0.924l-1.33,0.492l-2.007,0.686l-1.331,0.399l-1.334,0.339l-1.336,0.271l-1.341,0.192
		l-1.377,0.099l-0.726,0.012c-0.738,0.011-1.33,0.681-1.319,1.492C1229.733,422.367,1230.341,423.019,1231.079,423.008"/>
	<path fill="#DC4832" d="M1235.316,484.108c0,0,16.692-6.532,16.422-0.848c-0.271,5.685-11.264,2.421-11.264,2.421
		s9.895,8.527,6.217,11.896S1235.316,484.108,1235.316,484.108z"/>
	<path fill="#1D1B3A" stroke="#1D1B3A" stroke-width="0.7859" stroke-miterlimit="10" d="M1235.849,484.993l0.097-0.014l0.268-0.037
		l0.345-0.046l0.419-0.059l0.484-0.066l0.549-0.069l0.924-0.116l1.386-0.149l1.508-0.137l1.58-0.104l1.594-0.056l1.55,0.007
		l1.09,0.055l0.673,0.061l0.638,0.087l0.58,0.108l0.514,0.133l0.436,0.149l0.345,0.167l0.242,0.164l0.128,0.15l0.025,0.091
		l-0.043,0.028l-0.054,0.007l-0.057,0.075l-0.105,0.206l-0.065,0.106l0.092-0.161l-0.069,0.107l0.013-0.068l-0.029-0.025
		l-0.167,0.043l-0.289,0.062l-0.383,0.055l-0.461,0.043l-0.528,0.024l-0.579,0.003l-0.627-0.012l-1.008-0.057l-1.424-0.13
		l-1.46-0.185l-1.452-0.232l-1.391-0.259l-1.278-0.277l-0.847-0.213l-0.494-0.138l-0.44-0.135l-0.371-0.13l-0.285-0.118
		l-0.187-0.095l-0.051-0.043l0.161,0.109l0.364,0.739l-0.292,1.138l-0.296,0.251l-0.144,0.065l0.4-0.15l0.603-0.107l0.513,0.033
		l0.504,0.14l0.511,0.24l0.524,0.344l0.531,0.451l0.53,0.552l0.52,0.64l0.497,0.719l0.471,0.779l0.434,0.828l0.395,0.859
		l0.348,0.872l0.299,0.871l0.247,0.854l0.186,0.819l0.126,0.762l0.065,0.689l0.003,0.588l-0.055,0.463l-0.098,0.3l-0.094,0.104
		l0.009-0.093l0.08-0.104l0.045-0.045l0.03-0.03l-0.009-0.021l-0.061-0.031l-0.12-0.045l-0.172-0.087l-0.224-0.128l-0.267-0.18
		l-0.306-0.234l-0.345-0.294l-0.378-0.348l-0.413-0.409l-0.445-0.47l-0.475-0.532l-0.504-0.6l-0.533-0.664l-0.275-0.352l0.02,0.028
		l-0.284-0.382l-0.471-0.714l-0.401-0.716l-0.361-0.741l-0.319-0.769l-0.289-0.797l-0.389-1.262l-0.228-0.848
		c-0.211-0.779-0.956-1.225-1.663-0.992c-0.708,0.23-1.109,1.052-0.899,1.831l0,0l0.261,0.962l0.438,1.406l0.345,0.936l0.389,0.925
		l0.45,0.91l0.509,0.891l0.564,0.847l0.281,0.379c0.007,0.011,0.016,0.02,0.021,0.028l0.303,0.39l0.578,0.711l0.552,0.653
		l0.53,0.594l0.511,0.537l0.489,0.483l0.468,0.431l0.457,0.378l0.441,0.33l0.436,0.281l0.43,0.231l0.433,0.186l0.441,0.128
		l0.451,0.059l0.463-0.012l0.454-0.11l0.425-0.2l0.418-0.326l0.44-0.562l0.336-0.746l0.179-0.777l0.07-0.822l-0.019-0.865
		l-0.093-0.91l-0.165-0.947l-0.23-0.986l-0.292-1.004l-0.354-1.018l-0.41-1.018l-0.468-1.007l-0.521-0.981l-0.578-0.945l-0.63-0.895
		l-0.688-0.826l-0.75-0.749l-0.81-0.65l-0.878-0.531l-0.944-0.378l-0.999-0.198l-1.03,0.012l-0.974,0.213l-0.4,0.147
		c-0.05,0.018-0.097,0.04-0.143,0.066l-0.458,0.334l-0.463,1.327l0.389,0.949l0.37,0.345l0.331,0.206l0.356,0.171l0.402,0.158
		l0.452,0.156l0.506,0.154l0.561,0.157l0.919,0.23l1.35,0.292l1.459,0.271l1.526,0.238l1.544,0.195l1.512,0.139l1.088,0.06
		l0.702,0.012l0.673-0.005l0.643-0.033l0.609-0.061l0.582-0.097l0.556-0.144l0.543-0.218l0.536-0.347l0.42-0.449l0.072-0.108
		c0.034-0.054,0.063-0.104,0.09-0.162l0.205-0.44l0.253-0.808l0.078-0.846l-0.13-0.821l-0.315-0.712l-0.438-0.56l-0.501-0.434
		l-0.547-0.33l-0.585-0.266l-0.629-0.206l-0.665-0.165l-0.706-0.131l-0.737-0.096l-0.775-0.068l-1.202-0.058l-1.648-0.005
		l-1.664,0.061l-1.635,0.108l-1.556,0.142l-1.416,0.154l-0.943,0.116l-0.561,0.074l-0.493,0.063l-0.424,0.061l-0.344,0.048
		l-0.256,0.037l-0.097,0.012c-0.733,0.101-1.254,0.832-1.162,1.642C1234.447,484.519,1235.115,485.095,1235.849,484.993"/>
</g>
</svg>
