<?xml version="1.0" encoding="utf-8"?>
<!-- Generator: Adobe Illustrator 16.0.4, SVG Export Plug-In . SVG Version: 6.00 Build 0)  -->
<!DOCTYPE svg PUBLIC "-//W3C//DTD SVG 1.1//EN" "http://www.w3.org/Graphics/SVG/1.1/DTD/svg11.dtd">
<svg version="1.1" id="char3" xmlns="http://www.w3.org/2000/svg" xmlns:xlink="http://www.w3.org/1999/xlink" x="0px" y="0px"
	 width="2554.794px" height="1427.054px" viewBox="0 0 2554.794 1427.054" enable-background="new 0 0 2554.794 1427.054"
	 xml:space="preserve">
<g>
	<path fill="#DC4832" d="M1905.908,778.71c-6.469-67.04-24.998-164.437-78.047-208.234c-65.08-53.224-196.005-45.396-244.274,19.083
		c-22.899,32.088-26.367,156.866-30.209,194.177"/>
	<path fill="#1D1B3A" stroke="#1D1B3A" stroke-width="1.0121" stroke-miterlimit="10" d="M1907.46,778.522
		c-4.681-48.171-13.223-97.222-32.196-142.003c-8.997-21.234-20.67-41.87-36.887-58.455c-14.521-14.853-32.778-25.423-52.225-32.465
		c-41.284-14.946-88.4-15.729-130.491-3.611c-19.826,5.707-39.07,14.65-55.106,27.772c-7.203,5.894-14.251,12.741-19.377,20.558
		c-4.622,7.047-7.87,14.95-10.609,22.885c-7.267,21.046-11.334,43.208-14.732,65.16c-3.226,20.82-1.184,77.353-3.315,98.309
		c-0.384,3.768-1.263,10.803-1.648,14.57c-0.207,1.999,3.848-5.27,4.054-7.275c4.149-40.388,3.089-112.334,13.237-151.755
		c4.57-17.751,10.328-35.467,22.897-49.222c13.604-14.889,31.364-25.525,50.04-32.8c40.36-15.723,86.956-17.498,128.718-6.438
		c20.083,5.318,39.647,14.01,55.945,27.041c17.65,14.11,30.607,33.462,40.509,53.563c21.193,43.029,30.792,91.499,36.395,138.82
		c0.62,5.235,1.179,10.476,1.688,15.725C1904.55,780.903,1907.655,780.526,1907.46,778.522"/>
	<path fill="#1D1B3A" stroke="#1D1B3A" stroke-width="1.0121" stroke-miterlimit="10" d="M1912.487,767.298
		c-12.485,6.491-39.65-5.08-49.018-13.898c-14.147-14.043-28.252-72.847-31.451-92.367c-20.835-0.789-36.434-6.191-59.766-10.745
		c-35.212-6.87-95.475-8.946-132.037-9.482c-25.74-0.194-40.727,0.224-43.988,0.618c-30.186,3.668-46.436,146.098-46.654,158
		c-1.271,69.177,80.102,318.75,84.792,350.529c36.464-0.281-0.962-205.109,36.321-205.486c67.01-1.505,71.677-2.083,129.318,0.989
		c16.466,0.877,38.598,218.383,51.005,204.431c9.436-11.099,67.383-283.568,66.612-296.746"/>
	<path fill="#23234E" stroke="#1D1B3A" stroke-width="1.0121" stroke-miterlimit="10" d="M1628.075,552.893
		c1.741,27.994-4.119,68.525-4.015,96.716c-0.169,19.1-4.999,27.149-1.078,45.754c-10.33,3.744-27.971-4.896-39.218-1.87
		c-3.673-30.248-1.349-52.099,0.45-98.771c0.59-15.373,5.516-29.704,18.198-34.564c8.694-3.543,16.264-7.344,26.174-7.718"/>
	<path fill="#1D1B3A" stroke="#1D1B3A" stroke-width="1.0121" stroke-miterlimit="10" d="M1626.522,553.083
		c1.434,24.618-1.729,49.346-3.222,73.89c-0.709,11.643-0.301,23.404-1.58,34.995c-1.265,11.479-2.598,22.103-0.291,33.585
		c0.319-0.547,0.638-1.091,0.958-1.636c-6.452,2.086-13.767,0.085-20.218-1.098c-6.077-1.111-12.472-2.334-18.594-0.883l1.742,1.365
		c-2.192-18.347-2.161-36.714-1.434-55.149c0.46-11.711,1.06-23.413,1.551-35.124c0.474-11.296,0.494-23.547,7.261-33.211
		c3.672-5.242,8.616-7.498,14.359-9.895c7.046-2.943,14.019-5.496,21.72-5.93c2.009-0.113,1.624-3.219-0.378-3.104
		c-6.488,0.363-12.56,2.105-18.57,4.504c-5.183,2.069-10.846,3.884-15.142,7.576c-7.616,6.55-10.667,16.921-11.671,26.583
		c-1.361,13.097-1.281,26.482-1.866,39.639c-0.462,10.403-0.888,20.812-0.884,31.227c0.004,11.123,0.628,22.216,1.949,33.262
		c0.09,0.771,0.915,1.562,1.74,1.363c13.163-3.121,26.562,5.991,39.623,1.767c0.605-0.196,1.085-1.004,0.958-1.636
		c-2.431-12.088-0.589-23.221,0.543-35.287c1.093-11.643,0.731-23.436,1.483-35.118c1.54-23.934,4.464-48.054,3.065-72.064
		C1629.511,550.695,1626.406,551.08,1626.522,553.083"/>
	<path fill="#23234E" stroke="#1D1B3A" stroke-width="1.0121" stroke-miterlimit="10" d="M1834.646,552.211
		c-15.111-1.483-30.498-12.059-45.19-16.909c1.911,8.893-2.719,18.579-5.912,26.433c-5.273,18.062-9.926,34.387-12.646,52.967
		c-5.197,25.519-10.935,60.226-11.08,72.686c8.273-0.177,35.448-1.816,45.557-0.558c-4.784-5.225,2.75-35.362,4.051-48.602
		c1.482-15.114,5.639-35.525,10.789-47.768c5.472-16.423,10.497-22.841,15.151-39.168"/>
	<path fill="#1D1B3A" stroke="#1D1B3A" stroke-width="1.0121" stroke-miterlimit="10" d="M1833.141,552.191
		c-16.062-1.847-29.753-11.67-44.801-16.8c-1.046-0.354-2.396,0.371-2.173,1.626c1.369,7.691-1.413,14.965-4.289,21.977
		c-2.672,6.51-4.378,13.435-6.241,20.22c-3.839,13.986-6.333,28.088-9.126,42.294c-2.497,12.692-4.764,25.438-6.719,38.227
		c-1.461,9.551-3.084,19.268-3.26,28.95c-0.02,1.081,0.625,1.809,1.736,1.782c14.923-0.352,30.255-2.274,45.137-0.562
		c1.308,0.15,2.363-1.394,1.477-2.494c-2.163-2.684-1.294-7.991-1.038-11.111c0.425-5.17,1.248-10.306,2.098-15.422
		c1.714-10.326,3.005-20.671,4.568-31.015c2.015-13.322,5.336-26.113,9.914-38.764c4.591-12.685,10.859-24.674,14.639-37.657
		c0.558-1.913-2.31-3.171-2.871-1.241c-3.053,10.484-7.819,20.138-11.871,30.235c-3.938,9.81-7.345,19.808-9.709,30.118
		c-2.348,10.229-3.489,20.525-4.957,30.892c-1.205,8.518-2.953,16.951-4.119,25.479c-0.754,5.509-3.095,15.478,0.856,20.381
		c0.491-0.833,0.983-1.663,1.476-2.495c-15.161-1.745-30.774,0.193-45.976,0.553c0.578,0.596,1.156,1.189,1.735,1.781
		c0.176-9.678,1.8-19.402,3.259-28.948c2.021-13.205,4.367-26.365,6.965-39.47c2.88-14.542,5.498-28.917,9.483-43.222
		c2.076-7.462,4.502-14.537,7.201-21.771c2.294-6.143,3.905-12.527,2.736-19.093c-0.725,0.542-1.448,1.082-2.173,1.625
		c15.318,5.22,29.221,15.14,45.578,17.021C1834.677,555.515,1835.142,552.421,1833.141,552.191"/>
	<path fill="#1D1B3A" stroke="#1D1B3A" stroke-width="1.0121" stroke-miterlimit="10" d="M1630.428,1123.591
		c-14.604-0.792-28.776,2.732-42.265,8.127c-8.549,3.419-43.426,14.022-37.712,29.261c0.92,2.455,5.179,4.053,6.827,4.875
		c22.729,11.364,44.152,1.527,61.771-13.979c0.65-0.573,13.993-11.04,14.631-10.403c3.635,3.634-6.996,21.851,9.429,15.278
		c2.37-0.947,0.223-35.512-2.276-37.386c-2.032-1.524-6.766,0.305-8.779,0.975"/>
	<path fill="#1D1B3A" stroke="#1D1B3A" stroke-width="1.0121" stroke-miterlimit="10" d="M1852.512,1127.273
		c14.892-0.923,29.343,3.179,43.096,9.453c8.718,3.977,44.281,16.306,38.454,34.027c-0.939,2.855-5.28,4.711-6.961,5.671
		c-23.176,13.215-45.021,1.775-62.986-16.259c-0.663-0.665-14.269-12.839-14.918-12.098c-3.706,4.227,7.133,25.409-9.614,17.769
		c-2.417-1.102-0.229-41.299,2.32-43.479c2.072-1.771,6.899,0.355,8.95,1.135"/>
	<path fill="#DC4832" d="M1830.901,594.485c0,0,45.256,17.203,52.897,110.221c0.532,7.618,0.718,9.31,0.868,18.488
		c0.664,40.357,5.91,78.122-2.01,117.832c-12.233-4.428-34.411-5.665-44.54-13.687c2.815-23.261,2.309-46.771,0.743-70.096
		c-0.281-4.174-0.712-8.333-1.069-12.502c-7.794-75.649-27.273-104.238-27.273-104.238L1830.901,594.485z"/>
	<path fill="#23234E" stroke="#1D1B3A" stroke-width="1.0121" stroke-miterlimit="10" d="M1573.751,783.736h42.562
		c0,0,22.628,96.502,3.59,128.253c-19.041,31.747-33.738,17.407-33.738,17.407l-26.888-88.114
		C1559.276,841.282,1573.751,848.6,1573.751,783.736z"/>
	<polygon fill="#F8FBF6" points="1821.47,864.741 1838.698,822.007 1881.69,835.673 1886.242,882.069 	"/>
	<path fill="#23234E" stroke="#1D1B3A" stroke-width="1.0121" stroke-miterlimit="10" d="M1769.453,791.586h44.842
		c0,0,26.67,62.099,63.882,65.751c37.21,3.653,24.114,6.468,24.114,6.468s14.573,100.641-50.249,82.689
		C1787.222,928.541,1769.453,791.586,1769.453,791.586z"/>
	<path fill="#1D1B3A" stroke="#1D1B3A" stroke-width="1.0121" stroke-miterlimit="10" d="M1876.778,684.625
		c-4.459-18.158-10.72-36.21-20.053-52.495c-0.901,0.511-1.865,0.924-2.869,1.237c6.83,11.893,11.99,24.805,15.982,37.819
		c14.066,45.855,15.821,95.237,13.812,142.845c-0.222,5.267-0.507,10.53-0.84,15.79c-0.127,2.01,2.999,2.133,3.127,0.123
		C1888.991,781.642,1888.374,731.856,1876.778,684.625z"/>
	<g>
		<g>
			<path fill="#1D1B3A" d="M1838.489,824.344c1.387,0.06,5.115,1.362,7.172,1.975c4.655,1.386,9.285,2.858,13.909,4.345
				c4.626,1.488,9.24,3.012,13.837,4.589c2.259,0.774,4.942,1.368,7.006,2.605c2.807,1.683,5.35-2.693,2.555-4.369
				c-2.217-1.329-5.029-2.011-7.449-2.853c-4.845-1.684-9.722-3.276-14.603-4.853c-4.88-1.574-9.771-3.113-14.686-4.575
				c-2.454-0.73-5.15-1.813-7.741-1.925C1835.225,819.143,1835.238,824.205,1838.489,824.344L1838.489,824.344z"/>
		</g>
	</g>
	<path fill="#F4EDE1" d="M1760.385,402.096c-4.786-10.804-11.846-26.203-18.085-35.955c-8.164-11.928-22.627-17.498-35.428-17.16
		c-26.393,0.8-50.502,3.284-69.754,29.274c-13.89,18.751,0.799,78.953,0.799,78.953c-17.66,42.094-25.528,61.939,0.305,101.496
		c21.001,32.156,58.822,52.074,108.572,33.074c47.246-23.007,42.136-84.629,31.75-128.375"/>
	<path fill="#1D1B3A" stroke="#1D1B3A" stroke-width="1.0121" stroke-miterlimit="10" d="M1673.556,424.87
		c1.555,11.993-8.748,23.606-15.429,32.472c-6.527,8.66-15.786,18.813-16.837,30.139c-1.055,11.373,9.01,17.613,18.905,19.509
		c12.45,2.384,29.376,1.651,40.429-5.268c16.933-10.604,6.286-30.089-1.355-42.835c-1.021-1.703-3.896-0.457-2.859,1.271
		c6.748,11.258,17.943,29.589,2.318,39.073c-5.293,3.213-12.018,4.406-18.071,5.118c-6.794,0.803-13.828,0.816-20.552-0.559
		c-10.744-2.202-18.578-9.709-14.506-21.026c3.798-10.562,12.045-19.387,18.584-28.308c6.208-8.47,13.909-18.915,12.466-30.052
		C1676.39,422.404,1673.296,422.869,1673.556,424.87"/>
	<path fill="#1D1B3A" stroke="#1D1B3A" stroke-width="1.0121" stroke-miterlimit="10" d="M1709.141,417.85
		c1.938,7.167,4.691,14.932,1.896,22.231c0.678-0.29,1.354-0.582,2.031-0.872c-4.577-2.546-14.729-17.503-4.346-18.05
		c2.008-0.106,1.53-3.197-0.466-3.095c-14.67,0.774-3.318,20.173,3.651,24.051c0.735,0.407,1.762-0.163,2.034-0.874
		c3.03-7.917,0.4-16.053-1.707-23.857C1711.716,415.463,1708.616,415.908,1709.141,417.85"/>
	<path fill="#1D1B3A" stroke="#1D1B3A" stroke-width="1.0121" stroke-miterlimit="10" d="M1643.177,427.359
		c3.299,5.531,5.712,12.078,2.915,18.328c0.794-0.228,1.587-0.451,2.383-0.678c-7.001-4.257-10.149-15.696-1.158-19.666
		c1.839-0.813,0.576-3.675-1.271-2.859c-11.032,4.871-8.563,19.484,0.57,25.041c0.879,0.535,1.943,0.303,2.382-0.678
		c3.119-6.969,0.763-14.516-2.962-20.76C1645.019,424.382,1642.144,425.627,1643.177,427.359"/>
	<path fill="#1D1B3A" stroke="#1D1B3A" stroke-width="1.0121" stroke-miterlimit="10" d="M1730.469,407.181
		c-5.356-5.312-11.774-8.665-18.884-11.05c-1.359-0.455-2.961,1.221-1.798,2.435c4.458,4.646,9.921,7.283,16.074,8.977
		c0.386-0.972,0.772-1.939,1.159-2.907c-14.151-3.865-28.041-9.034-42.744-10.387c-1.716-0.156-2.491,2.397-0.768,3.006
		c2.467,0.873,4.838,1.814,7.398,2.379c1.967,0.435,2.322-2.676,0.375-3.106c-2.283-0.503-4.419-1.402-6.613-2.177
		c-0.257,1.003-0.512,2.004-0.767,3.006c14.437,1.327,28.063,6.389,41.959,10.187c1.923,0.522,3.099-2.374,1.159-2.907
		c-5.575-1.533-10.736-3.801-14.798-8.032l-1.796,2.434c6.549,2.197,12.65,5.193,17.605,10.108
		C1729.445,410.546,1731.9,408.599,1730.469,407.181"/>
	<path fill="#1D1B3A" stroke="#1D1B3A" stroke-width="1.0121" stroke-miterlimit="10" d="M1622.376,423.106
		c6.188-5.946,12.873-11.625,20.617-15.435c1.797-0.884,0.561-3.722-1.271-2.858c-5.751,2.714-10.571,6.281-14.87,10.972
		c-0.935,1.02,0.236,2.698,1.49,2.477c12.076-2.134,21.882-12.111,34.433-11.897c1.995,0.033,2.385-3.073,0.372-3.105
		c-13.109-0.224-22.788,9.704-35.271,11.91c0.498,0.824,0.994,1.649,1.492,2.476c3.916-4.276,8.384-7.498,13.624-9.973
		c-0.423-0.952-0.848-1.904-1.271-2.858c-7.994,3.934-14.92,9.717-21.31,15.857C1618.972,422.052,1620.921,424.505,1622.376,423.106
		"/>
	<path fill="#F4EDE1" d="M1763.294,414.404c8.375-20.875,31.357-15.419,36.25,0.5c4.2,16.855-7.029,53.919-30.529,41.634"/>
	<path fill="#1D1B3A" stroke="#1D1B3A" stroke-width="1.0121" stroke-miterlimit="10" d="M1767.066,412.435
		c3.002-9.076,12.646-12.593,21.323-9.219c9.03,3.514,11.236,12.048,11.07,20.868c-0.267,14.149-7.213,40.743-26.531,31.103
		c-1.803-0.899-2.947,2.012-1.158,2.906c6.705,3.346,14.051,3.395,19.745-1.905c5.606-5.221,8.303-13.138,9.794-20.453
		c1.494-7.332,2.334-16.213-0.048-23.467c-2.413-7.35-9.46-12.355-16.989-13.289c-8.968-1.115-17.248,3.637-20.112,12.294
		C1763.53,413.181,1766.434,414.346,1767.066,412.435"/>
	<path fill="#1D1B3A" stroke="#1D1B3A" stroke-width="1.0121" stroke-miterlimit="10" d="M1783.909,411.684
		c-14.664,3.647-16.375,22.476-6.304,31.959c1.466,1.38,3.309-1.15,1.857-2.515c-8.019-7.553-6.986-23.392,4.911-26.352
		C1786.311,414.293,1785.863,411.197,1783.909,411.684"/>
	<path fill="#1D1B3A" stroke="#1D1B3A" stroke-width="1.0121" stroke-miterlimit="10" d="M1780.37,421.375
		c-4.243,0.639-8.428,1.367-12.494,2.769c-1.901,0.657-0.625,3.512,1.27,2.86c3.796-1.311,7.732-1.938,11.689-2.536
		C1782.825,424.168,1782.363,421.076,1780.37,421.375"/>
	<path fill="#1D1B3A" stroke="#1D1B3A" stroke-width="1.0121" stroke-miterlimit="10" d="M1758.55,375.03
		c4.617,9.593,12.279,17.395,15.811,27.6l1.616-2.188c-11.04-2.018-18.266-13.461-22.344-23.016
		c-0.883,0.54-1.766,1.078-2.647,1.618c5.25,7.53,10.239,15.67,11.043,25.021l1.314-1.779c-4.84,0.464-9.401-3.12-12.778-6.182
		c-3.686-3.341-7.008-7.363-9.227-11.833c-0.882,0.542-1.764,1.08-2.646,1.618c8.343,8.521,12.002,19.586,16.089,30.512
		c0.705,1.884,3.563,0.612,2.859-1.271c-4.182-11.178-7.98-22.492-16.513-31.202c-1.155-1.182-3.494-0.091-2.646,1.614
		c4.259,8.588,14.595,20.867,25.327,19.837c0.88-0.085,1.384-0.974,1.313-1.779c-0.849-9.894-6.144-18.547-11.699-26.521
		c-1.034-1.48-3.327,0.023-2.647,1.618c4.559,10.683,12.602,22.615,24.827,24.85c1.27,0.233,1.977-1.148,1.617-2.188
		c-3.533-10.212-11.192-18.006-15.81-27.602C1760.538,371.949,1757.674,373.208,1758.55,375.03"/>
	<path stroke="#1D1B3A" stroke-width="1.0121" stroke-miterlimit="10" d="M1651.265,518.81l0.903,0.258l1.96,0.53l2.131,0.535
		l2.28,0.535l2.416,0.522l2.542,0.511l2.654,0.482l2.756,0.452l2.84,0.414l2.916,0.368l2.979,0.316l3.026,0.258l3.063,0.188
		l3.087,0.115l3.099,0.031l3.097-0.056l3.085-0.153l3.058-0.258l3.019-0.369l2.969-0.49l2.906-0.619l2.83-0.755l2.077-0.663
		l1.36-0.493l1.321-0.529l1.295-0.567l1.265-0.61l1.232-0.654l1.201-0.696l1.166-0.743l1.129-0.786l1.091-0.837l1.048-0.882
		l1.008-0.938l0.961-0.981l0.912-1.034l0.866-1.087l0.813-1.14l0.758-1.19l0.703-1.243l0.645-1.3l0.584-1.351l0.277-0.717
		c0.331-0.86-0.097-1.825-0.957-2.156c-0.86-0.332-1.824,0.098-2.156,0.958l0,0l-0.228,0.594l-0.512,1.193l-0.562,1.141
		l-0.611,1.092l-0.662,1.046l-0.707,1l-0.754,0.953l-0.8,0.912l-0.844,0.87l-0.888,0.826l-0.931,0.788l-0.97,0.748l-1.01,0.709
		l-1.049,0.672l-1.086,0.634l-1.124,0.596l-1.156,0.56l-1.188,0.525l-1.223,0.491l-1.239,0.451l-1.92,0.618l-2.663,0.715
		l-2.756,0.589l-2.831,0.472l-2.893,0.356l-2.943,0.25l-2.979,0.148l-3.001,0.056l-3.01-0.031l-3.006-0.109l-2.986-0.183
		l-2.957-0.254l-2.91-0.305l-2.854-0.362l-2.78-0.405l-2.699-0.442l-2.598-0.472l-2.488-0.495l-2.364-0.514l-2.225-0.521
		l-2.074-0.521l-1.916-0.519l-0.903-0.258c-0.886-0.254-1.809,0.261-2.062,1.146C1649.865,517.634,1650.379,518.556,1651.265,518.81
		"/>
	<path stroke="#1D1B3A" stroke-width="1.0121" stroke-miterlimit="10" d="M1678.237,546.3l-0.214,0.459l-0.405,1.024l-0.328,1.064
		l-0.238,1.069l-0.155,1.067l-0.073,1.061l0.005,1.047l0.077,1.029l0.147,1.007l0.214,0.979l0.277,0.944l0.338,0.912l0.396,0.867
		l0.451,0.823l0.505,0.772l0.56,0.716l0.61,0.657l0.661,0.589l0.713,0.516l0.764,0.43l0.813,0.339l0.854,0.232l0.894,0.115
		l0.918-0.013l0.929-0.146l0.927-0.285l0.91-0.423l0.886-0.557l0.856-0.686l0.825-0.816l0.792-0.947l0.762-1.074l0.386-0.613
		c0.487-0.782,0.248-1.811-0.533-2.298c-0.783-0.488-1.811-0.25-2.299,0.532l-0.284,0.462l-0.599,0.863l-0.59,0.72l-0.574,0.588
		l-0.553,0.466l-0.523,0.354l-0.498,0.257l-0.473,0.171l-0.453,0.099l-0.441,0.031l-0.44-0.033l-0.44-0.1l-0.442-0.163l-0.446-0.232
		l-0.442-0.301l-0.431-0.368l-0.418-0.433l-0.396-0.493l-0.371-0.549l-0.339-0.6l-0.302-0.646l-0.262-0.687l-0.219-0.722
		l-0.171-0.747l-0.122-0.774l-0.067-0.794l-0.011-0.803l0.048-0.814l0.109-0.816l0.174-0.815l0.241-0.813l0.322-0.836l0.215-0.458
		c0.389-0.836,0.025-1.828-0.811-2.216C1679.618,545.102,1678.626,545.465,1678.237,546.3"/>
	<path stroke="#1D1B3A" stroke-width="1.0121" stroke-miterlimit="10" d="M1639.466,451.041l-0.021-1.167l-0.089-2.391l-0.149-2.418
		l-0.198-2.437l-0.378-3.673l-0.615-4.946l-0.691-4.985l-0.712-5.002l-0.677-5.01l-0.585-4.996l-0.441-4.967l-0.204-3.69
		l-0.064-2.437l0.003-2.429l0.074-2.411l0.152-2.39l0.238-2.369l0.33-2.342l0.429-2.319l0.53-2.293l0.642-2.261l0.76-2.232
		l0.881-2.2l1.012-2.171l1.15-2.135l0.615-1.036l-0.021,0.035l0.403-0.644l0.817-1.225l0.86-1.188l0.909-1.163l0.954-1.139
		l1.002-1.11l1.047-1.088l1.09-1.062l1.132-1.032l1.173-1.011l1.213-0.979l1.249-0.956l1.286-0.926l1.322-0.896l2.055-1.301
		l2.845-1.627l2.951-1.5l3.05-1.378l3.144-1.254l3.221-1.125l3.287-0.996l3.341-0.865l3.384-0.729l3.414-0.591l3.431-0.449
		l3.438-0.309l3.433-0.166l3.412-0.018l3.383,0.129l3.34,0.28l3.284,0.429l3.22,0.586l3.139,0.741l2.284,0.653l1.488,0.483
		l1.474,0.526l1.444,0.566l1.416,0.604l1.386,0.645l1.353,0.688l1.318,0.726l1.287,0.767l1.247,0.806l1.211,0.848l1.172,0.889
		l0.56,0.45l-0.024-0.02l0.635,0.529l1.208,1.056l1.163,1.081l1.127,1.117l1.095,1.147l1.061,1.18l1.543,1.831l1.946,2.533
		l1.827,2.626l1.721,2.714l1.625,2.792l1.534,2.861l1.452,2.916l1.376,2.958l1.309,2.993l1.251,3.015l1.197,3.024l1.719,4.535
		l1.102,2.998c0.317,0.864,1.275,1.307,2.141,0.989c0.865-0.318,1.31-1.278,0.991-2.142l-1.114-3.027l-1.735-4.582l-1.219-3.073
		l-1.274-3.076l-1.341-3.062l-1.415-3.042l-1.499-3.005l-1.591-2.958l-1.69-2.902l-1.802-2.834l-1.919-2.751l-2.039-2.65
		l-1.615-1.917l-1.127-1.248l-1.162-1.217l-1.2-1.186l-1.24-1.152l-1.269-1.107l-0.634-0.528c-0.007-0.007-0.015-0.015-0.021-0.018
		l-0.636-0.51l-1.274-0.964l-1.313-0.915l-1.35-0.87l-1.385-0.825l-1.42-0.777l-1.452-0.733l-1.482-0.688l-1.512-0.646l-1.538-0.6
		l-1.564-0.559l-1.601-0.519l-2.438-0.694l-3.309-0.774l-3.38-0.61l-3.442-0.447l-3.489-0.29l-3.529-0.131l-3.555,0.023l-3.57,0.177
		l-3.572,0.322l-3.566,0.47l-3.547,0.617l-3.516,0.76l-3.475,0.9l-3.421,1.042l-3.356,1.176l-3.28,1.312l-3.189,1.447l-3.094,1.576
		l-2.971,1.703l-2.147,1.358l-1.396,0.95l-1.361,0.98l-1.326,1.015l-1.288,1.045l-1.25,1.077l-1.207,1.105l-1.166,1.14l-1.123,1.168
		l-1.076,1.199l-1.031,1.229l-0.981,1.259l-0.932,1.293l-0.869,1.306l-0.403,0.641c-0.007,0.015-0.016,0.022-0.021,0.035
		l-0.688,1.162l-1.232,2.305l-1.085,2.338l-0.944,2.369l-0.809,2.394l-0.683,2.419l-0.562,2.441l-0.45,2.456l-0.346,2.477
		l-0.248,2.486l-0.158,2.502l-0.076,2.51v2.519l0.065,2.534l0.213,3.801l0.451,5.06l0.595,5.056l0.678,5.03l0.711,4.992l0.686,4.939
		l0.605,4.876l0.373,3.606l0.193,2.365l0.145,2.342l0.089,2.322l0.021,1.168c0.016,0.922,0.776,1.655,1.697,1.64
		C1638.749,452.723,1639.482,451.962,1639.466,451.041"/>
	<path stroke="#1D1B3A" stroke-width="1.0121" stroke-miterlimit="10" d="M1637.905,450.992l-0.595,2.349l-1.306,4.674l-1.439,4.697
		l-1.539,4.737l-1.594,4.771l-1.61,4.81l-1.582,4.849l-1.514,4.882l-1.403,4.92l-1.247,4.957l-0.811,3.753l-0.47,2.517l-0.407,2.521
		l-0.337,2.526l-0.263,2.541l-0.183,2.548l-0.101,2.558l-0.007,2.567l0.088,2.578l0.189,2.583l0.298,2.597l0.411,2.604l0.252,1.32
		c0.002,0.009,0.004,0.019,0.006,0.03l0.248,1.177l0.555,2.373l0.624,2.359l0.688,2.33l0.753,2.306l0.814,2.272l0.879,2.244
		l0.936,2.214l0.995,2.185l1.054,2.148l1.11,2.114l1.163,2.085l1.218,2.048l1.271,2.013l1.321,1.977l1.37,1.938l1.42,1.903
		l1.467,1.86l1.512,1.822l1.558,1.783l1.601,1.742l1.643,1.699l1.685,1.657l1.723,1.614l1.761,1.567l1.799,1.525l1.836,1.477
		l1.868,1.435l1.902,1.383l1.935,1.336l1.966,1.287l1.995,1.239l2.023,1.188l2.05,1.136l2.076,1.083l2.102,1.029l2.124,0.979
		l2.146,0.923l2.167,0.866l2.188,0.812l2.204,0.755l2.224,0.694l2.238,0.639l2.253,0.576l2.267,0.52l2.279,0.456l2.289,0.395
		l2.3,0.332l2.307,0.269l2.316,0.206l2.32,0.138l2.325,0.072l2.329,0.006l2.33-0.062l2.331-0.132l2.331-0.199l2.329-0.271
		l2.324-0.345l2.322-0.412l2.314-0.487l2.308-0.56l2.3-0.633l2.289-0.711l2.279-0.785l1.146-0.427
		c0.007-0.002,0.015-0.006,0.021-0.008l2.085-0.808l4.144-1.703l3.064-1.372l2.01-0.964l1.969-1.007l1.931-1.056l1.888-1.109
		l1.838-1.169l1.787-1.229l1.729-1.298l1.665-1.368l1.598-1.445l1.524-1.525l1.445-1.61l0.706-0.855
		c0.007-0.011,0.015-0.02,0.022-0.028l0.536-0.68l1.066-1.41l1.542-2.176l1.939-3.001l1.813-3.12l1.681-3.223l1.554-3.313
		l1.429-3.399l1.304-3.481l1.183-3.55l1.064-3.616l0.947-3.675l0.834-3.724l0.721-3.769l0.61-3.804l0.504-3.836l0.397-3.857
		l0.296-3.874l0.193-3.881l0.094-3.885l-0.003-3.879l-0.096-3.867l-0.191-3.848l-0.28-3.822l-0.371-3.792l-0.458-3.75l-0.541-3.704
		l-0.626-3.652l-0.706-3.589l-0.785-3.522l-0.862-3.451l-0.938-3.367l-1.012-3.279l-0.536-1.619
		c-0.291-0.873-1.235-1.347-2.109-1.057c-0.876,0.292-1.349,1.235-1.058,2.111l0.514,1.547l0.986,3.191l0.916,3.283l0.843,3.366
		l0.768,3.441l0.691,3.509l0.612,3.571l0.531,3.624l0.45,3.671l0.363,3.714l0.275,3.74l0.188,3.77l0.096,3.784l0.004,3.796
		l-0.091,3.8l-0.188,3.794l-0.287,3.785l-0.388,3.764l-0.489,3.742l-0.594,3.706l-0.701,3.667l-0.807,3.62l-0.918,3.564
		l-1.029,3.504l-1.142,3.435l-1.256,3.358l-1.372,3.276l-1.49,3.186l-1.61,3.091l-1.729,2.984l-1.859,2.885l-1.479,2.09
		l-1.027,1.358l-0.537,0.677l0.022-0.025l-0.616,0.749l-1.322,1.482l-1.402,1.408l-1.478,1.342l-1.548,1.277l-1.619,1.218
		l-1.683,1.162l-1.741,1.107l-1.797,1.06l-1.846,1.011l-1.896,0.971l-1.929,0.927l-2.969,1.329l-4.08,1.679l-2.085,0.807
		l0.021-0.006l-1.072,0.397l-2.178,0.753l-2.19,0.681l-2.198,0.607l-2.206,0.538l-2.214,0.467l-2.223,0.398l-2.225,0.328
		l-2.23,0.262l-2.23,0.193l-2.233,0.125l-2.233,0.062l-2.232-0.004l-2.231-0.067l-2.227-0.133l-2.222-0.193l-2.217-0.258
		l-2.21-0.316l-2.2-0.379l-2.19-0.437l-2.182-0.498l-2.167-0.556l-2.156-0.612l-2.142-0.67l-2.123-0.724l-2.107-0.781l-2.091-0.835
		l-2.069-0.888l-2.049-0.941l-2.026-0.993l-2.004-1.047l-1.978-1.094l-1.953-1.143l-1.927-1.195l-1.897-1.24l-1.868-1.29
		l-1.836-1.337l-1.805-1.38l-1.771-1.428l-1.736-1.47l-1.7-1.512l-1.664-1.557l-1.625-1.599l-1.585-1.637l-1.544-1.68l-1.502-1.72
		l-1.459-1.756l-1.414-1.795l-1.37-1.829l-1.321-1.867l-1.273-1.903l-1.224-1.936l-1.174-1.972l-1.12-2.004l-1.069-2.036
		l-1.014-2.065l-0.958-2.098l-0.901-2.129l-0.844-2.155l-0.784-2.185l-0.724-2.21l-0.664-2.241l-0.599-2.264l-0.539-2.304
		l-0.248-1.178l0.006,0.03l-0.234-1.217l-0.393-2.461l-0.283-2.46l-0.183-2.452l-0.087-2.453l0.006-2.45l0.092-2.446l0.174-2.444
		l0.253-2.441l0.325-2.44l0.391-2.437l0.453-2.426l0.784-3.642l1.222-4.858l1.379-4.847l1.499-4.835l1.574-4.823l1.611-4.812
		l1.603-4.8l1.556-4.789l1.463-4.776l1.326-4.755l0.595-2.347c0.227-0.895-0.315-1.802-1.208-2.027
		C1639.038,449.559,1638.131,450.1,1637.905,450.992"/>
</g>
</svg>
