<?xml version="1.0" encoding="utf-8"?>
<!-- Generator: Adobe Illustrator 16.0.4, SVG Export Plug-In . SVG Version: 6.00 Build 0)  -->
<!DOCTYPE svg PUBLIC "-//W3C//DTD SVG 1.1//EN" "http://www.w3.org/Graphics/SVG/1.1/DTD/svg11.dtd">
<svg version="1.1" id="char3-arm" xmlns="http://www.w3.org/2000/svg" xmlns:xlink="http://www.w3.org/1999/xlink" x="0px" y="0px"
	 width="2554.794px" height="1427.054px" viewBox="0 0 2554.794 1427.054" enable-background="new 0 0 2554.794 1427.054"
	 xml:space="preserve">
<path stroke="#1D1B3A" stroke-width="1.0121" stroke-miterlimit="10" d="M1391.989,464.56l0.1-0.038l0.307-0.137l0.352-0.166
	l0.385-0.194l0.428-0.222l0.47-0.252l0.515-0.277l0.557-0.308l0.912-0.512l1.356-0.768l1.503-0.865l1.636-0.946l1.753-1.024
	l1.857-1.088l1.944-1.145l2.019-1.19l3.133-1.852l4.295-2.543l4.32-2.554l3.184-1.876l2.066-1.215l2.005-1.174l1.929-1.121
	l1.836-1.063l1.729-0.991l1.605-0.912l1.468-0.823l1.312-0.722l0.869-0.469l0.521-0.274l0.474-0.242l0.42-0.212l0.364-0.175
	l0.302-0.137l0.231-0.098l0.144-0.047l0.012,0.004l-0.259,0.054l-0.707-0.084l-1.126-0.992l0.555,1.153l1.092,2.265l1.064,2.21
	l1.041,2.16l1.016,2.104l0.992,2.055l1.445,2.99l1.851,3.814l1.765,3.629l1.683,3.451l1.606,3.279l1.533,3.121l1.466,2.965
	l1.401,2.82l1.34,2.682l1.285,2.552l1.233,2.433l1.186,2.318l1.143,2.214l1.104,2.116l1.069,2.026l1.037,1.946l1.012,1.874
	l1.476,2.688l1.913,3.406l1.883,3.259l1.884,3.177l1.918,3.155l1.986,3.198l1.028,1.639c0.004,0.003,0.006,0.009,0.009,0.015
	l0.104,0.159l0.3,0.459l0.397,0.599l0.49,0.728l0.575,0.851l0.652,0.963l0.726,1.069l0.789,1.158l0.846,1.242l0.896,1.316
	l0.937,1.376l0.972,1.426l1.505,2.213l2.057,3.03l2.059,3.046l2.001,2.972l1.426,2.131l0.899,1.354l0.853,1.288l0.796,1.213
	l0.731,1.125l0.659,1.027l0.58,0.916l0.491,0.793l0.394,0.657l0.283,0.503l0.156,0.312l-0.005,0.017l-0.096-0.334l0.045-0.79
	l0.262-0.56l-0.135,0.198l-0.201,0.223l-0.224,0.191l-0.291,0.21l-0.593,0.348l-0.982,0.443l-1.163,0.402l-1.332,0.364l-1.455,0.318
	l-1.541,0.276l-2.403,0.337l-2.377,0.257l-1.518,0.138l-1.439,0.119l-1.322,0.105l-1.176,0.099l-1.007,0.102l-0.452,0.055l0,0
	l-3.304,0.41l-4.937,0.547l-3.307,0.394l-3.303,0.472l-3.283,0.604l-2.451,0.574l-1.629,0.452l-1.6,0.514l-1.583,0.581l-0.806,0.329
	l1.093-0.11l-0.017-0.004l0.748,0.316l0.071,0.049l-0.093-0.105l-0.164-0.187l-0.217-0.251l-0.26-0.315l-0.301-0.362l-0.339-0.416
	l-0.374-0.462l-0.625-0.779l-0.941-1.183l-1.055-1.334l-1.156-1.475l-1.246-1.593l-1.324-1.702l-1.393-1.796l-1.449-1.874
	l-1.495-1.937l-2.304-2.996l-3.126-4.08l-3.106-4.074l-2.264-2.982l-1.457-1.925l-1.402-1.858l-1.336-1.777l-1.258-1.681
	l-1.171-1.569l-1.07-1.445l-0.959-1.304l-0.64-0.875l-0.384-0.533l-0.351-0.487l-0.314-0.44l-0.277-0.395l-0.236-0.345l-0.195-0.286
	l-0.148-0.227l-0.049-0.077l0.004,0.004l-1.691-2.7l-3.463-5.381l-3.539-5.336l-3.589-5.296l-5.431-7.88l-7.227-10.457l-3.557-5.218
	c-0.6-0.879-1.799-1.104-2.678-0.508c-0.881,0.601-1.107,1.8-0.507,2.681l0,0l3.57,5.238l7.224,10.449l5.414,7.859l3.566,5.262
	l3.51,5.293l3.438,5.341l1.691,2.697c0.001,0.002,0.002,0.004,0.002,0.004l0.086,0.134l0.182,0.279l0.217,0.32l0.254,0.365
	l0.289,0.411l0.324,0.456l0.359,0.502l0.393,0.541l0.648,0.888l0.967,1.315l1.076,1.452l1.176,1.576l1.264,1.688l1.339,1.782
	l1.405,1.862l1.461,1.929l2.268,2.988l3.112,4.082l3.13,4.087l2.308,3.001l1.498,1.94l1.453,1.879l1.396,1.8l1.33,1.709l1.251,1.601
	l1.162,1.48l1.063,1.347l0.952,1.194l0.634,0.792l0.384,0.474l0.352,0.432l0.318,0.387l0.283,0.338l0.253,0.295l0.224,0.254
	l0.213,0.229l0.293,0.269l0.88,0.42l0.017,0.002c0.367,0.071,0.746,0.034,1.092-0.107l0.682-0.281l1.427-0.529l1.458-0.469
	l1.473-0.414l2.271-0.535l3.131-0.58l3.21-0.46l3.274-0.391l4.989-0.552l3.304-0.408h-0.001l0.36-0.048l0.947-0.093l1.159-0.1
	l1.332-0.106l1.472-0.119l1.586-0.145l2.497-0.274l2.547-0.358l1.693-0.306l1.652-0.368l1.588-0.446l1.502-0.539l1.364-0.648
	l0.923-0.574l0.586-0.459l0.539-0.524l0.438-0.532l0.137-0.199c0.116-0.172,0.204-0.36,0.261-0.56l0.06-0.835l-0.12-0.48
	l-0.151-0.367l-0.241-0.474l-0.331-0.583l-0.423-0.706l-0.512-0.826l-0.595-0.941l-0.67-1.042l-0.741-1.141l-0.802-1.223
	l-0.858-1.298l-0.905-1.363l-1.432-2.139l-2.007-2.982l-2.062-3.05l-2.059-3.032l-1.507-2.214l-0.971-1.428l-0.938-1.376
	l-0.895-1.313l-0.846-1.241l-0.787-1.16l-0.723-1.062l-0.649-0.958l-0.57-0.845l-0.479-0.714l-0.383-0.574l-0.276-0.423
	l-0.104-0.163l0.008,0.014l-1.019-1.618l-1.966-3.17l-1.897-3.12l-1.861-3.136l-1.859-3.221l-1.895-3.371l-1.463-2.667l-1.002-1.854
	l-1.029-1.93l-1.061-2.015l-1.097-2.101l-1.136-2.201l-1.18-2.307l-1.229-2.422l-1.28-2.543l-1.337-2.674l-1.396-2.812l-1.463-2.958
	l-1.531-3.111l-1.603-3.277l-1.681-3.445l-1.764-3.626l-1.848-3.812l-1.445-2.986l-0.99-2.053l-1.016-2.104l-1.041-2.158
	l-1.064-2.211l-1.09-2.265l-0.555-1.152c-0.227-0.467-0.632-0.827-1.125-0.991l-0.773-0.108l-0.483,0.069l-0.331,0.097l-0.315,0.119
	l-0.339,0.142l-0.375,0.171l-0.418,0.203l-0.461,0.229l-0.504,0.261l-0.551,0.291l-0.901,0.484l-1.339,0.737l-1.486,0.831
	l-1.62,0.922l-1.74,1.001l-1.845,1.067l-1.936,1.125l-2.011,1.178l-2.072,1.217l-3.187,1.88l-4.322,2.553l-4.294,2.542l-3.13,1.849
	l-2.015,1.19l-1.94,1.142l-1.849,1.083l-1.744,1.019l-1.622,0.94l-1.486,0.854l-1.335,0.758l-0.892,0.499l-0.536,0.295l-0.487,0.264
	l-0.437,0.233l-0.38,0.199l-0.318,0.159l-0.246,0.119l-0.181,0.081l-0.101,0.041c-0.988,0.396-1.468,1.519-1.071,2.506
	C1389.879,464.478,1391.001,464.958,1391.989,464.56"/>
<path stroke="#1D1B3A" stroke-width="1.0121" stroke-miterlimit="10" d="M1390.379,462.521l0.215-0.21l0.573-0.7l0.516-0.824
	l0.431-0.861l0.539-1.321l0.621-1.832l0.552-1.771l0.383-1.182l0.238-0.659l0.229-0.539l0.201-0.376l0.135-0.155l-0.049,0.126
	l-0.386,0.253l-0.217,0.068l0.161-0.038l0.439-0.13l0.488-0.166l0.516-0.191l0.548-0.223l0.584-0.251l0.94-0.419l1.381-0.652
	l1.523-0.752l1.646-0.835l1.761-0.916l1.86-0.985l1.947-1.047l2.02-1.095l2.078-1.142l3.198-1.767l4.339-2.42l4.322-2.425
	l3.16-1.772l2.041-1.145l1.972-1.103l1.89-1.05l1.791-0.99l1.678-0.922l1.55-0.84l1.408-0.751l1.249-0.65l0.818-0.416l0.484-0.239
	l0.438-0.208l0.382-0.175l0.323-0.14l0.254-0.102l0.174-0.058l0.062-0.011l-0.136,0.035l-0.631-0.028l-1.057-0.714l-0.25-0.478
	l0.103,0.288l0.267,0.702l0.33,0.82l0.386,0.922l0.441,1.024l0.497,1.129l0.551,1.225l0.604,1.321l0.651,1.415l0.702,1.505
	l0.747,1.587l0.792,1.668l0.836,1.745l0.876,1.819l0.916,1.889l0.953,1.956l0.989,2.018l1.021,2.074l1.053,2.13l1.084,2.177
	l1.678,3.357l2.322,4.609l2.409,4.742l2.479,4.84l3.815,7.374l5.191,9.883l3.907,7.316l2.582,4.771l2.547,4.648l2.495,4.495
	l1.829,3.252l1.197,2.106l1.175,2.048l1.151,1.988l1.127,1.925l1.1,1.858l1.072,1.785l1.042,1.713l1.009,1.632l0.977,1.55
	l0.941,1.464l0.903,1.375l0.865,1.281l0.826,1.185l0.785,1.085l0.744,0.985l0.703,0.879l0.665,0.776l0.629,0.669l0.606,0.569
	l0.335,0.278c0.826,0.671,2.04,0.546,2.712-0.281c0.671-0.826,0.545-2.041-0.281-2.712l-0.14-0.106l-0.428-0.394l-0.51-0.536
	l-0.578-0.673l-0.641-0.797l-0.694-0.917l-0.746-1.031l-0.794-1.138l-0.839-1.24l-0.882-1.342l-0.921-1.434l-0.96-1.525
	l-0.996-1.608l-1.028-1.689l-1.061-1.767l-1.09-1.843l-1.118-1.909l-1.145-1.975l-1.167-2.032l-1.188-2.093l-1.819-3.234
	l-2.484-4.475l-2.537-4.633l-2.572-4.753l-3.895-7.292l-5.181-9.861l-3.81-7.361l-2.473-4.826l-2.402-4.73l-2.318-4.602
	l-1.673-3.345l-1.08-2.175l-1.051-2.123l-1.019-2.066l-0.984-2.012l-0.95-1.946l-0.911-1.88l-0.873-1.812l-0.83-1.736l-0.787-1.654
	l-0.742-1.574l-0.693-1.491l-0.645-1.396l-0.595-1.302l-0.54-1.203l-0.483-1.097l-0.427-0.991l-0.365-0.872l-0.303-0.749
	l-0.239-0.629l-0.103-0.287c-0.061-0.171-0.145-0.332-0.25-0.478l-1.094-0.765l-0.794-0.071l-0.417,0.067l-0.334,0.095l-0.334,0.119
	l-0.359,0.144l-0.396,0.174l-0.437,0.2l-0.479,0.229l-0.523,0.257l-0.859,0.438l-1.281,0.665l-1.43,0.767l-1.566,0.849l-1.691,0.927
	l-1.799,0.993l-1.895,1.056l-1.977,1.104l-2.043,1.146l-3.159,1.771l-4.313,2.419l-4.328,2.412l-3.184,1.764l-2.066,1.133
	l-2.003,1.088l-1.929,1.034l-1.834,0.972l-1.729,0.899l-1.604,0.816l-1.466,0.722l-1.314,0.621l-0.873,0.392l-0.518,0.223
	l-0.464,0.188l-0.404,0.152l-0.336,0.117l-0.284,0.086l-0.162,0.041c-0.073,0.018-0.146,0.042-0.217,0.068l-0.689,0.372
	l-0.634,0.608l-0.423,0.624l-0.336,0.663l-0.297,0.719l-0.278,0.777l-0.396,1.222l-0.522,1.685l-0.545,1.621l-0.426,1.069
	l-0.27,0.566l-0.238,0.425l-0.236,0.326l-0.215,0.208c-0.764,0.743-0.781,1.962-0.039,2.727S1389.616,463.263,1390.379,462.521"/>
<path fill="#1D1B3A" stroke="#1D1B3A" stroke-width="1.0121" stroke-miterlimit="10" d="M1389.482,463.489l4.726-9.67l47.873-27.5
	c0,0,52.169,99.784,63.893,110.836l-0.528,11.344l-49.788,10.704L1389.482,463.489z"/>
<path fill="#F4EDE1" d="M1503.747,606.399c0,0,1.329-19.794-0.106-30.687c-1.438-10.896-21.36-22.879-33.32-24.922
	c-11.96-2.041-10.527-2.845-10.527-2.845s22.749-8.956,22.333-15c-0.417-6.047-10.171-7.771-15.072-6.456
	c-4.902,1.313,14.43,0.696,7.978-12.354c-1.981-4.008-6.509-1.701-6.509-1.701s2.651-4.521,0.521-9.152
	c-2.129-4.631-17.352,0.637-17.352,0.637l-1.052-3.71c0,0,4.646-9.202-2.867-11.585c-7.513-2.384-54.483,21.288-54.483,21.288
	s16.191,59.004,24.083,63.138c7.892,4.135,49.153,4.983,57.91,16.488c8.758,11.502,16.393,29.047,16.393,29.047l11.986-9.548"/>
<path stroke="#000000" stroke-width="1.0121" stroke-miterlimit="10" d="M1488.308,608.157l-0.205-0.876l-0.479-1.767l-0.553-1.725
	l-0.621-1.661l-0.686-1.599l-0.748-1.54l-0.809-1.477l-0.866-1.415l-0.921-1.359l-0.975-1.299l-1.023-1.241l-1.07-1.186
	l-1.113-1.131l-1.155-1.076l-1.193-1.021l-1.229-0.973l-1.262-0.923l-1.293-0.873l-1.976-1.213l-2.723-1.467l-2.813-1.313
	l-2.871-1.154l-2.909-1.015l-2.932-0.885l-2.933-0.767l-2.918-0.661l-2.886-0.564l-2.834-0.48l-2.765-0.409l-2.677-0.347
	l-2.571-0.296l-2.446-0.257l-2.303-0.226l-2.14-0.208l-1.957-0.199l-1.752-0.198l-1.521-0.213l-1.263-0.229l-0.735-0.178
	l-0.367-0.117l-0.289-0.115l-0.178-0.098l-0.05-0.056l0.083,0.033l0.16,0.176l0.071,0.115l-0.306-0.536l-0.606-1.036l-0.59-0.979
	l-0.571-0.921l-0.822-1.279l-1.042-1.543l-0.986-1.395l-0.934-1.271l-1.311-1.754l-1.627-2.246l-1.151-1.753l-0.756-1.269
	l-0.772-1.422l-0.794-1.604l-0.825-1.823l-0.642-1.528l-0.441-1.11l-0.224-0.578l0.005,0.013l-0.062-0.164l-0.162-0.442
	l-0.217-0.604l-0.268-0.755l-0.312-0.891l-0.352-1.021l-0.39-1.134l-0.419-1.237l-0.447-1.331l-0.47-1.41l-0.737-2.249l-1.02-3.179
	l-1.029-3.306l-1.004-3.347l-0.944-3.297l-0.646-2.382l-0.393-1.523l-0.358-1.464l-0.317-1.388l-0.274-1.3l-0.226-1.197
	l-0.172-1.085l-0.115-0.948l-0.055-0.801l0.006-0.619l0.059-0.391l0.066-0.087l-0.098,0.267l-0.164,0.224l0.081-0.093l0.107-0.101
	l0.173-0.146l0.264-0.206l0.34-0.25l0.408-0.285l0.473-0.316l0.529-0.342l0.903-0.56l1.375-0.819l1.551-0.888l1.713-0.954
	l1.855-1.003l1.981-1.047l2.089-1.079l2.179-1.106l3.405-1.687l4.695-2.245l4.746-2.182l3.511-1.551l2.283-0.976l2.225-0.92
	l2.145-0.855l2.044-0.778l1.928-0.699l1.792-0.603l1.637-0.504l1.102-0.301l0.669-0.161l0.623-0.134l0.565-0.104l0.502-0.07
	l0.431-0.04l0.351-0.009l0.257,0.02l0.145,0.035l0.012,0.027l-0.14-0.033l-0.258-0.157l-0.227-0.272l-0.082-0.16l0.238,0.517
	l0.401,0.95l0.329,0.893l0.267,0.849l0.206,0.805l0.15,0.763l0.096,0.724l0.045,0.681l-0.002,0.643l-0.047,0.606l-0.088,0.573
	l-0.126,0.543l-0.272,0.805l-0.49,0.977l-0.619,0.879l-0.76,0.83l-0.903,0.79l-1.042,0.749l-1.172,0.712l-1.293,0.667l-1.4,0.633
	l-1.489,0.592l-1.567,0.561l-1.627,0.528l-2.533,0.753l-3.441,0.946l-3.421,0.929l-2.499,0.724l-1.617,0.511l-1.549,0.538
	l-1.478,0.574l-1.396,0.628l-1.303,0.687l-1.201,0.765l-1.085,0.862l-0.542,0.521c-0.097,0.094-0.184,0.199-0.258,0.312
	l-0.078,0.119l-0.319,0.832l0.052,1.13l0.394,0.809l1.561,20.863l-0.329-19.748l0.195,0.137l-0.045-0.031l0.104,0.077l0.162,0.116
	l0.14,0.105l0.052,0.047l0.062,0.06l0.139,0.129l0.098,0.089c0.785,0.722,2.004,0.669,2.724-0.115
	c0.721-0.784,0.668-2.004-0.116-2.724l0,0l-0.088-0.08l-0.145-0.134l-0.206-0.188l-0.216-0.175l-0.158-0.117l-0.156-0.115
	l-0.104-0.077c-0.015-0.012-0.03-0.021-0.044-0.031l-0.154-0.108l-0.229-0.14l-0.012,0.063l0.121,0.388l-0.055,0.688l-0.206,0.371
	l0.077-0.115l-0.259,0.312l0.261-0.27l0.751-0.619l0.922-0.602l1.077-0.576l1.218-0.553l1.339-0.525l1.445-0.503l1.527-0.483
	l2.438-0.706l3.431-0.931l3.519-0.971l2.628-0.78l1.733-0.564l1.698-0.609l1.65-0.663l1.593-0.723l1.521-0.801l1.437-0.886
	l1.334-0.988l1.216-1.104l1.071-1.229l0.897-1.364l0.684-1.455l0.371-1.162l0.18-0.834l0.118-0.857l0.056-0.885l-0.008-0.906
	l-0.072-0.93l-0.135-0.952l-0.198-0.978l-0.263-0.999l-0.327-1.027l-0.394-1.05l-0.451-1.062l-0.238-0.52
	c-0.025-0.054-0.053-0.105-0.083-0.16l-0.343-0.476l-0.594-0.504l-0.604-0.297l-0.578-0.161l-0.564-0.076l-0.569-0.021l-0.589,0.022
	l-0.615,0.061l-0.649,0.095l-0.686,0.128l-0.722,0.157l-0.771,0.188l-1.216,0.336l-1.736,0.534l-1.871,0.633l-1.991,0.72
	l-2.099,0.801l-2.188,0.873l-2.264,0.937l-2.327,0.994l-3.563,1.573l-4.802,2.208l-4.74,2.269l-3.438,1.701l-2.208,1.121
	l-2.119,1.095l-2.015,1.066l-1.894,1.024l-1.758,0.979l-1.606,0.92l-1.437,0.856l-0.958,0.594l-0.584,0.379l-0.538,0.36
	l-0.491,0.344l-0.445,0.33l-0.406,0.326l-0.371,0.331l-0.312,0.327l-0.08,0.093c-0.061,0.071-0.115,0.146-0.164,0.226l-0.301,0.593
	l-0.225,0.82l-0.085,0.83l0.004,0.9l0.073,0.992l0.135,1.09l0.189,1.19l0.242,1.283l0.289,1.364l0.331,1.443l0.37,1.508l0.404,1.569
	l0.66,2.436l0.957,3.343l1.017,3.384l1.04,3.338l1.026,3.203l0.742,2.263l0.474,1.423l0.45,1.341l0.424,1.25l0.394,1.143
	l0.355,1.031l0.318,0.906l0.273,0.774l0.225,0.627l0.175,0.476l0.063,0.166c0.002,0.004,0.004,0.009,0.005,0.014l0.238,0.615
	l0.468,1.173l0.685,1.631l0.884,1.946l0.862,1.732l0.847,1.552l0.846,1.416l1.251,1.895l1.661,2.29l1.289,1.727l0.896,1.22
	l0.938,1.322l0.994,1.476l0.789,1.223l0.545,0.879l0.563,0.935l0.588,1.005l0.306,0.534c0.021,0.039,0.046,0.079,0.071,0.116
	l0.304,0.393l0.486,0.438l0.5,0.319l0.516,0.249l0.543,0.203l0.599,0.179l0.952,0.225l1.417,0.253l1.61,0.221l1.8,0.206l1.974,0.2
	l2.135,0.209l2.279,0.221l2.407,0.252l2.517,0.29l2.608,0.339l2.683,0.395l2.74,0.466l2.775,0.539l2.794,0.632l2.795,0.727
	l2.775,0.836l2.739,0.949l2.685,1.074l2.61,1.21l2.535,1.361l1.835,1.123l1.177,0.794l1.146,0.834l1.11,0.873l1.075,0.917
	l1.038,0.961l0.998,1.009l0.956,1.052l0.913,1.103l0.869,1.153l0.822,1.205l0.773,1.255l0.724,1.314l0.671,1.368l0.617,1.43
	l0.561,1.488l0.502,1.554l0.445,1.638l0.206,0.878c0.243,1.036,1.28,1.678,2.317,1.435
	C1487.908,610.23,1488.551,609.193,1488.308,608.157"/>
<polygon stroke="#1D1B3A" stroke-width="1.0121" stroke-miterlimit="10" points="1465.256,502.198 1465.084,502.113 
	1465.017,502.002 1465.102,502.028 1465.285,502.146 "/>
<path stroke="#1D1B3A" stroke-width="1.0121" stroke-miterlimit="10" d="M1499.338,567.396l0.812,1.004l0.758,1.034l0.682,1.042
	l0.601,1.051l0.511,1.052l0.416,1.05l0.314,1.047l0.21,1.037l0.1,1.028l0.007,0.413v29.245c1.194-0.867,2.489-1.591,3.854-2.14
	v-27.113c0-0.018-0.001-0.035-0.001-0.052l-0.026-0.767l-0.161-1.408l-0.298-1.378l-0.422-1.349l-0.532-1.313l-0.63-1.276
	l-0.721-1.244l-0.798-1.209l-0.868-1.176l-0.941-1.157l-1.495-1.657l-2.111-2.068l-2.202-1.922l-2.226-1.763l-2.178-1.591
	l-1.565-1.071l-0.999-0.658l-0.952-0.606l-0.896-0.556l-0.83-0.502l-0.759-0.444l-0.675-0.389l-0.588-0.331l-0.487-0.268
	l-0.382-0.206l-0.267-0.141l-0.14-0.071l-0.018-0.009c-0.029-0.018-0.059-0.029-0.09-0.043l-0.915-0.408l-1.837-0.718l-1.904-0.63
	l-1.943-0.548l-1.961-0.474l-1.947-0.41l-1.908-0.35l-1.844-0.293l-1.75-0.248l-0.735-0.088l1.194-0.514l2.268-1.005l2.351-1.111
	l2.352-1.215l2.257-1.312l1.583-1.05l0.999-0.748l0.938-0.782l0.861-0.826l0.775-0.879l0.673-0.942l0.547-1.016l0.387-1.092
	l0.19-1.153l-0.037-1.181l-0.271-1.162l-0.448-1.045l-0.238-0.414c-0.023-0.041-0.048-0.08-0.073-0.117l-0.277-0.394l-0.539-0.641
	l-0.606-0.57l-0.662-0.499l-0.708-0.438l-0.752-0.375l-0.789-0.32l-0.825-0.268l-0.857-0.22l-0.914-0.18l-1.406-0.186l-1.943-0.108
	l-2.041,0.037l-2.123,0.171l-2.188,0.302l-2.236,0.422l-2.266,0.54l-2.276,0.649l-2.267,0.755l-2.239,0.856l-2.192,0.954
	l-2.125,1.046l-2.04,1.135l-1.935,1.223l-1.81,1.31l-1.665,1.394l-1.499,1.485l-1.308,1.575l-1.071,1.638l-0.64,1.28l-0.348,0.9
	l-0.273,0.926l-0.191,0.942l-0.104,0.961l-0.013,0.97l0.082,0.977l0.179,0.979l0.275,0.972l0.373,0.963l0.469,0.95l0.563,0.938
	l0.659,0.924l0.754,0.91l0.851,0.897l0.926,0.867l0.472,0.406c0.807,0.694,2.024,0.604,2.718-0.2
	c0.695-0.808,0.605-2.025-0.201-2.721l-0.471-0.405l-0.806-0.759l-0.683-0.729l-0.582-0.715l-0.487-0.7l-0.399-0.682l-0.314-0.664
	l-0.234-0.648l-0.164-0.627l-0.099-0.615l-0.036-0.604l0.023-0.598l0.078-0.596l0.135-0.598l0.189-0.601l0.246-0.606l0.491-0.951
	l0.847-1.253l1.047-1.225l1.247-1.211l1.431-1.185l1.596-1.143l1.736-1.089l1.857-1.027l1.953-0.958l2.027-0.877l2.08-0.791
	l2.108-0.699l2.115-0.6l2.099-0.494l2.06-0.387l1.996-0.269l1.909-0.15l1.797-0.024l1.656,0.103l1.113,0.156l0.672,0.139
	l0.644,0.171l0.589,0.199l0.53,0.226l0.472,0.244l0.409,0.27l0.349,0.279l0.289,0.295l0.235,0.308l0.065,0.112l-0.074-0.119
	l0.238,0.414l0.226,0.591l0.056,0.454l-0.04,0.416l-0.118,0.417l-0.203,0.456l-0.308,0.506l-0.421,0.55l-0.535,0.584l-0.646,0.604
	l-0.747,0.615l-0.836,0.617l-1.409,0.927l-2.062,1.193l-2.186,1.124l-2.23,1.052l-2.183,0.968l-1.551,0.664l-0.976,0.413
	l-0.918,0.39l-0.85,0.364l-0.77,0.34l-0.686,0.318l-0.599,0.297l-0.516,0.291l-0.462,0.314l-0.494,0.489l-0.425,0.854
	c-0.152,0.593-0.015,1.224,0.372,1.696l0.011,0.014l0.981,0.643l0.415,0.091l0.315,0.045l0.518,0.055l0.877,0.085l1.088,0.104
	l1.275,0.129l1.44,0.159l1.579,0.197l1.688,0.237l1.771,0.283l1.824,0.334l1.848,0.39l1.842,0.45l1.807,0.511l1.739,0.579
	l1.643,0.646l0.694,0.312l0.1,0.053l0.241,0.128l0.354,0.189l0.459,0.251l0.557,0.315l0.644,0.37l0.723,0.427l0.794,0.479
	l0.855,0.529l0.911,0.582l0.954,0.627l1.505,1.034l2.084,1.521l2.103,1.672l2.061,1.801l1.946,1.919L1499.338,567.396z
	 M1461.145,548.85l0.128-0.103l0.065-0.039l-0.003,0.005L1461.145,548.85z"/>
<g>
	<g>
		<path d="M1417.729,541.449c0.264-6.49-1.202-16.633,2.696-22.142c0.547-0.772,0.787-1.708,1.043-2.598
			c0.508-1.762,1.426-2.155,3.015-3.02c3.701-2.014,7.679-3.45,11.685-4.719c7.267-2.3,14.88-3.498,22.428-4.398
			c2.075-0.247,7.999-1.816,8.78,0.482c0.67,1.972,1.396,4.849,0.95,6.928c-0.682,3.183,4.196,4.536,4.881,1.346
			c0.723-3.37,0.16-12.579-4.019-13.804c-4.479-1.312-9.369-0.182-13.915,0.397c-5.249,0.669-10.449,1.596-15.595,2.829
			c-4.527,1.085-9.022,2.549-13.278,4.44c-3.706,1.647-7.975,2.977-9.51,6.99c-1.343,3.513-2.958,6.426-3.464,10.246
			c-0.737,5.571-0.529,11.407-0.758,17.021C1412.536,544.713,1417.598,544.701,1417.729,541.449L1417.729,541.449z"/>
	</g>
</g>
<g>
	<g>
		<path d="M1425.893,549.706c-0.038-6.105,0.697-12.012,2.236-17.919c0.669-2.567,1.33-5.694,3.598-7.374
			c2.253-1.669,6.353-2.256,9.021-3.073c11.102-3.4,22.627-5.965,34.284-4.673c3.241,0.359,3.206-4.705,0-5.061
			c-13.867-1.537-27.551,2.243-40.645,6.423c-5.194,1.658-8.146,3.62-10.031,8.818c-2.633,7.262-3.571,15.174-3.523,22.858
			C1420.853,552.968,1425.913,552.97,1425.893,549.706L1425.893,549.706z"/>
	</g>
</g>
<path fill="#DC4832" d="M1559.562,702.946l-33.102,12.833l-28.833-4.833c0,0-11.812-28.748-15-61.167
	c-3.188-32.421-5.334-54.167-5.334-54.167l27.334-9.166c0,0,7,52.166,25.191,77.945c12.309-5.612,56.136-78.363,56.136-78.363
	S1591.64,698.296,1559.562,702.946z"/>
<path stroke="#1D1B3A" stroke-width="1.0121" stroke-miterlimit="10" d="M1593.975,565.831c-0.84-0.382-1.827-0.007-2.209,0.829
	l-0.925,2.049l-1.89,4.033l-1.939,3.97l-1.984,3.914l-2.025,3.851l-2.057,3.783l-2.079,3.715l-2.096,3.64l-2.105,3.563l-2.107,3.48
	l-2.1,3.396l-2.088,3.308l-2.065,3.215l-2.038,3.117l-2.004,3.02l-1.96,2.914l-1.908,2.806l-1.852,2.695l-1.785,2.582l-1.714,2.461
	l-1.634,2.34l-1.546,2.213l-1.451,2.088l-1.022,1.477l-0.649,0.944l-0.622,0.908l-0.592,0.876l-0.563,0.841l-0.533,0.806
	l-0.502,0.772l-0.471,0.733l-0.439,0.7l-0.404,0.665l-0.371,0.631l-0.337,0.596l-0.303,0.562l-0.268,0.531l-0.23,0.501l-0.196,0.479
	l-0.158,0.456l-0.122,0.454l-0.053,0.273l0.005-0.027l-0.021,0.115l-0.037,0.084l-0.072,0.15l-0.126,0.242l-0.178,0.307
	l-0.224,0.357l-0.416,0.617l-0.668,0.911l-0.768,0.974l-0.849,1.009l-0.896,1.008l-0.922,0.976l-0.917,0.908l-0.885,0.809
	l-0.818,0.676l-0.536,0.386l-0.29,0.183l-0.605-0.778l-2.077-2.887l-1.951-2.986l-1.84-3.084l-1.731-3.173l-1.628-3.246
	l-1.523-3.304l-1.424-3.352l-1.329-3.382l-1.234-3.399l-1.143-3.403l-1.058-3.395l-0.973-3.372l-0.892-3.331l-0.815-3.283
	l-0.741-3.214l-0.669-3.139l-0.602-3.042l-0.539-2.938l-0.478-2.812l-0.421-2.682l-0.366-2.532l-0.315-2.369l-0.269-2.194
	l-0.226-2.004l-0.143-1.37l-0.082-0.844l-0.074-0.791l-0.065-0.734l-0.058-0.677l-0.036-0.45l0.128-0.728l0.011-0.801l-0.123-0.792
	l-0.222-0.707l-0.112-0.263c-0.274-0.641-0.917-1.041-1.614-1.008c-0.92,0.043-1.63,0.824-1.585,1.748v0.012l0.004,0.082
	l0.009,0.155l0.014,0.23l0.019,0.299l0.023,0.369l0.03,0.438l0.037,0.502l0.006,0.083l-0.027,0.064l-0.185,0.324l-0.254,0.359
	l-0.33,0.388l-0.409,0.411l-0.488,0.429l-0.567,0.438l-0.644,0.448l-0.717,0.45l-0.786,0.453l-0.854,0.451l-0.92,0.447l-0.981,0.443
	l-1.04,0.437l-1.098,0.431l-1.757,0.629l-2.514,0.804l-2.689,0.755l-2.854,0.699l-3.003,0.641l-3.133,0.578l-1.582,0.26l0,0l0,0
	l-0.017,0.001c-0.051,0.009-0.097,0.028-0.146,0.038c-0.059,0.017-0.118,0.026-0.173,0.048c-0.051,0.02-0.097,0.047-0.145,0.07
	c-0.05,0.023-0.103,0.045-0.149,0.074c-0.047,0.028-0.087,0.067-0.13,0.101c-0.042,0.031-0.088,0.059-0.125,0.095
	c-0.041,0.039-0.075,0.083-0.111,0.124c-0.034,0.039-0.07,0.074-0.101,0.118c-0.033,0.043-0.058,0.092-0.085,0.142
	c-0.026,0.043-0.056,0.086-0.078,0.132c-0.022,0.049-0.037,0.104-0.055,0.154c-0.019,0.051-0.039,0.098-0.053,0.15
	s-0.018,0.109-0.025,0.164c-0.008,0.054-0.02,0.104-0.021,0.16c-0.003,0.059,0.006,0.116,0.009,0.175
	c0.003,0.051,0,0.103,0.008,0.155l0.236,1.544l0.45,3.179l0.425,3.317l0.405,3.451l0.39,3.572l0.376,3.678l0.367,3.772l0.362,3.854
	l0.54,5.915l0.734,8.059l0.775,8.171l0.849,8.186l0.701,6.099l0.506,4.023l0.541,3.97l0.578,3.911l0.62,3.838l0.668,3.753
	l0.716,3.655l0.771,3.551l0.828,3.43l0.891,3.301l0.956,3.159l1.028,3.007l0.823,2.157l0.577,1.389l0.593,1.337l0.615,1.289
	l0.639,1.244l0.661,1.195l0.685,1.146l0.712,1.097l0.374,0.541c0.013,0.016,0.025,0.035,0.038,0.051l0.205,0.274l0.535,0.604
	l0.616,0.561l0.655,0.48l0.682,0.406l0.698,0.337l1.033,0.392l1.39,0.381l1.367,0.275l1.28,0.219l1.151,0.214l0.478,0.107
	l1.038,0.252l2.096,0.465l2.058,0.398l2.013,0.336l1.97,0.269l1.933,0.208l1.896,0.146l1.862,0.087l1.832,0.03l1.805-0.024
	l1.778-0.08l1.756-0.13l2.588-0.286l3.403-0.54l3.375-0.713l3.36-0.868l3.369-1.003l3.402-1.124l3.461-1.227l3.296-1.222
	c-0.055-1.286,0.109-2.533,0.43-3.731l-1.342,0.51l-3.498,1.301l-3.393,1.201l-3.309,1.094l-3.251,0.97l-3.218,0.833l-3.211,0.685
	l-3.244,0.521l-2.467,0.273l-1.657,0.126l-1.678,0.074l-1.703,0.026l-1.729-0.028l-1.763-0.08l-1.797-0.138l-1.836-0.196
	l-1.877-0.256l-1.921-0.317l-1.972-0.383l-2.033-0.448l-1.053-0.254c-0.007-0.002-0.014-0.006-0.022-0.008l-0.617-0.138
	l-1.197-0.222l-1.191-0.203l-1.15-0.226l-1.096-0.285l-0.765-0.279l-0.45-0.206l-0.416-0.232l-0.382-0.262l-0.351-0.299
	l-0.352-0.381l-0.188-0.248l-0.3-0.431l-0.646-0.989l-0.629-1.05l-0.611-1.104l-0.595-1.155l-0.578-1.209l-0.562-1.261l-0.54-1.3
	l-0.783-2.045l-0.992-2.895l-0.929-3.061l-0.868-3.217l-0.811-3.354l-0.757-3.483l-0.706-3.599l-0.657-3.704l-0.615-3.792
	l-0.572-3.87l-0.536-3.938l-0.501-3.987l-0.697-6.061l-0.846-8.159l-0.775-8.158l-0.733-8.06l-0.541-5.92l-0.362-3.868l-0.369-3.788
	l-0.379-3.699l-0.393-3.602l-0.41-3.484l-0.431-3.362l-0.442-3.129l0.036-0.005l3.226-0.596l3.1-0.665l2.961-0.728l2.805-0.788
	l2.625-0.842l1.845-0.665l1.174-0.459l1.123-0.473l1.07-0.483l1.017-0.498l0.961-0.511l0.904-0.521l0.846-0.54l0.786-0.553
	l0.611-0.481l0.11,1.058l0.229,2.036l0.272,2.23l0.321,2.407l0.372,2.569l0.428,2.724l0.484,2.858l0.548,2.982l0.612,3.093
	l0.681,3.188l0.754,3.271l0.83,3.34l0.909,3.395l0.993,3.438l1.079,3.464l1.172,3.482l1.265,3.48l1.362,3.469l1.465,3.442
	l1.572,3.403l1.681,3.349l1.795,3.282l1.913,3.202l2.035,3.107l2.149,2.981l1.103,1.423c0.037,0.047,0.076,0.09,0.118,0.134
	l0.466,0.377l0.744,0.291l0.658,0.038l0.551-0.091l0.485-0.161l0.457-0.209l0.449-0.252l0.466-0.301l0.696-0.511l0.946-0.789
	l0.979-0.898l0.995-0.986l0.987-1.049l0.963-1.081l0.91-1.087l0.843-1.07l0.743-1.02l0.481-0.719l0.288-0.466l0.255-0.453
	l0.223-0.451l0.187-0.462l0.127-0.444l0.022-0.116c0-0.01,0.002-0.019,0.004-0.027l-0.002-0.021l0.047-0.198l0.091-0.276
	l0.137-0.341l0.183-0.398l0.225-0.451l0.268-0.5l0.307-0.543l0.346-0.587l0.385-0.632l0.42-0.672l0.455-0.711l0.489-0.752
	l0.522-0.789l0.555-0.828l0.584-0.863l0.615-0.9l0.645-0.936l1.018-1.473l1.448-2.078l1.546-2.218l1.636-2.342l1.719-2.47
	l1.794-2.59l1.859-2.709l1.919-2.82l1.97-2.932l2.017-3.037l2.052-3.14l2.081-3.238l2.104-3.332l2.118-3.425l2.125-3.512
	l2.125-3.595l2.115-3.676l2.099-3.752l2.078-3.823l2.046-3.895l2.009-3.958l1.962-4.019l1.908-4.071l0.927-2.047
	C1595.187,567.199,1594.813,566.209,1593.975,565.831z M1531.386,661.949l0.031-0.03l0.144-0.018l-0.071,0.028L1531.386,661.949z"/>
</svg>
