<?xml version="1.0" encoding="utf-8"?>
<!-- Generator: Adobe Illustrator 16.0.4, SVG Export Plug-In . SVG Version: 6.00 Build 0)  -->
<!DOCTYPE svg PUBLIC "-//W3C//DTD SVG 1.1//EN" "http://www.w3.org/Graphics/SVG/1.1/DTD/svg11.dtd">
<svg version="1.1" id="char1" xmlns="http://www.w3.org/2000/svg" xmlns:xlink="http://www.w3.org/1999/xlink" x="0px" y="0px"
	 width="2554.794px" height="1427.054px" viewBox="0 0 2554.794 1427.054" enable-background="new 0 0 2554.794 1427.054"
	 xml:space="preserve">
<g>
	<path fill="#FFFFFF" d="M2095.302,504.753l2.08-5.844l-8.465-11.738l-24.495,16.589c0,0-2.153,15.935-4.45,20.836
		c-2.3,4.903-6.143-8.683-4.855-14.206c1.289-5.521-8.442-12.895-8.442-12.895l-1.474,0.816c0.674,1.152,0.611,2.75-0.862,3.651
		c-2.371,1.452-4.218-1.449-5.971,0.622c0.354,0.005,0.521,4.852,0.805,5.105c0.605,0.535,0.669,1.437,0.167,2.055
		c0.187,0.604,0.116,1.299-0.354,2.005c-3.199,4.805-7.376,9.859-7.106,15.901c0.062,1.356-0.745,2.166-1.752,2.45l-4.363,98.222
		l60.188,0.863c0,0,3.697-3.837,4.671-10.551c0.561-3.869,2.388-18.754,3.833-30.674l8.157,3.027
		c16.261,0.458,25.011-7.528,28.657-23.207C2134.916,552.102,2095.302,504.753,2095.302,504.753z M2096.293,572.757
		c0.057-0.464,0.085-0.719,0.085-0.719s-3.447-42.629-0.484-41.807c2.963,0.821,18.082,15.757,19.438,29.11
		C2116.259,568.47,2104.087,571.656,2096.293,572.757z"/>
	<polygon fill="#1D1B3A" stroke="#1D1B3A" stroke-width="0.7897" stroke-miterlimit="10" points="1981.252,528.244 
		2064.472,531.472 2065.079,570.513 2041.925,601.216 1992.234,595.551 1981.798,557.66 	"/>
	<path fill="#F4EDE1" d="M2085.806,570.643l-9.834-3.878l-3.675-8.584l-7.946-0.875l1.632,8.996c0,0-1.819,7.348-11.257,4.999
		c-3.89-0.968-12.371,1.159-19.109,3.744v0.114c0,0.733-0.305,1.368-0.787,1.836c-0.256,0.618-0.673,1.049-1.172,1.301
		c0.021,2.408-0.776,4.842-0.91,7.255c1.005,0.041,1.933,0.621,2.197,1.907c0.553,2.674,2.031,4.956,4.049,6.679
		c0.46-0.155,0.979-0.196,1.532-0.059c0.386,0.094,0.767,0.188,1.151,0.282c0.935,0.23,1.508,0.812,1.768,1.51
		c1.271,0.416,2.57,0.781,3.883,1.08c8.467,1.908,23.58,0.88,31.491-5.226c7.911-6.104,10.307-7.876,10.307-7.876L2085.806,570.643z
		"/>
	<path fill="#F4EDE1" d="M2056.345,523.539l6.055,2.885l5.382-21.9l13.669-14.165l4.146-45.57c0,0,15.15-3.282,15.246-11.28
		c0.078-6.655-11.674-20.588-13.184-17.037c-1.512,3.552-1.512,3.552-1.512,3.552s1.974-32.081-13.191-32.483
		c-15.165-0.398-51.819-4.698-48.128,18.176c3.691,22.871,7.713,35.436,7.713,35.436s-13.05,2.421-9.739,8.117
		c3.309,5.695,18.459,1.96,18.459,1.96L2056.345,523.539z"/>
	<path fill="#1D1B3A" stroke="#1D1B3A" stroke-width="0.7897" stroke-miterlimit="10" d="M2049.727,496.211l-0.029-1.24l-0.051-1.16
		l-0.073-1.099l-0.093-1.052l-0.169-1.508l-0.271-1.973l-0.305-2.033l-0.24-1.632l-0.161-1.162l-0.164-1.25l-0.158-1.346
		l-0.078-0.709v-0.007l-0.074-0.652l-0.179-1.353l-0.336-2.062l-0.563-2.814l-0.683-2.881l-0.788-2.932l-0.882-2.978l-0.959-3.019
		l-1.026-3.05l-1.631-4.613l-1.292-3.505c-0.431,0.403-1.017,0.67-1.786,0.67c-0.533,0-0.976-0.136-1.346-0.346l1.537,4.17
		l1.615,4.569l1.01,3.003l0.943,2.961l0.86,2.904l0.767,2.85l0.662,2.777l0.542,2.707l0.324,1.979l0.171,1.294l0.073,0.654v-0.007
		l0.082,0.738l0.163,1.379l0.165,1.272l0.165,1.189l0.242,1.638l0.302,1.997l0.26,1.899l0.162,1.439l0.086,0.987l0.07,1.036
		l0.051,1.098l0.027,1.176l0.004,1.277l-0.009,0.688c-0.011,0.83,0.668,1.512,1.511,1.521c0.845,0.01,1.536-0.655,1.545-1.485
		l0.01-0.689L2049.727,496.211z"/>
	<path fill="#1D1B3A" stroke="#1D1B3A" stroke-width="0.7897" stroke-miterlimit="10" d="M2086.899,417.332l-0.247-1.884
		l-0.291-1.86l-0.337-1.832l-0.382-1.806l-0.433-1.775l-0.482-1.743l-0.535-1.713l-0.589-1.676l-0.646-1.64l-0.706-1.598
		l-0.765-1.561l-0.83-1.515l-0.892-1.468l-0.961-1.424l-0.391-0.519c-1.183,0.163-2.381,0.26-3.581,0.354l0.576,0.698l0.932,1.249
		l0.873,1.302l0.818,1.347l0.76,1.397l0.707,1.441l0.651,1.49l0.603,1.53l0.552,1.572l0.503,1.612l0.454,1.65l0.408,1.685
		l0.363,1.721l0.32,1.752l0.275,1.783l0.238,1.811l0.181,1.661c0.513-0.094,1.038-0.144,1.545-0.263
		c0.526-0.122,1.039-0.095,1.505,0.048L2086.899,417.332z"/>
	<path fill="#1D1B3A" stroke="#1D1B3A" stroke-width="0.7897" stroke-miterlimit="10" d="M2053.312,461.17h2.232h2.23
		c0.846,0,1.529-0.671,1.529-1.503s-0.684-1.503-1.529-1.503l0,0h-2.23h-2.232c-0.846,0-1.529,0.671-1.529,1.503
		S2052.466,461.17,2053.312,461.17"/>
	<path fill="#1D1B3A" stroke="#1D1B3A" stroke-width="0.7897" stroke-miterlimit="10" d="M1981.506,532.009l4.15,0.002l8.277,0.096
		l12.419,0.308l16.574,0.526l12.447,0.326l8.312,0.12l4.165,0.015h-0.007h0.029l0.122,0.001l0.22,0.006l0.31,0.003l0.389,0.006
		l0.461,0.007l0.817,0.013l1.288,0.012l1.465,0.016l2.419,0.014l2.529,0.006l1.661-0.01l1.583-0.014l1.453-0.027l0.979-0.031
		l0.588-0.022l0.529-0.029l0.47-0.032l0.404-0.041l0.352-0.047l0.324-0.069l0.44-0.17l0.708-0.725
		c0.104-0.216,0.153-0.448,0.148-0.68l-0.005-0.186l-0.046-0.414l-0.195-0.582l-1.436-0.865l-1.298,0.648l-0.326,0.547l-0.191,0.496
		l-0.158,0.542l-0.146,0.613l-0.131,0.688l-0.113,0.765l-0.097,0.84l-0.068,0.908l-0.041,0.97l-0.007,1.029l0.035,1.082l0.035,0.57
		v-0.004l0.009,0.177l0.018,0.413l0.019,0.512l0.017,0.609l0.018,0.7l0.015,0.776l0.015,0.85l0.017,0.918l0.02,1.477l0.03,2.133
		l0.045,3.442l0.049,3.562l0.037,2.355l0.042,2.274l0.045,2.139l0.041,1.489l0.027,0.923l0.031,0.855l0.033,0.79l0.034,0.714
		l0.036,0.633l0.041,0.547l0.045,0.464l0.024,0.215c0.103,0.826,0.865,1.409,1.705,1.311c0.838-0.102,1.434-0.851,1.332-1.675l0,0
		l-0.018-0.136l-0.039-0.395l-0.039-0.506l-0.036-0.602l-0.032-0.692l-0.031-0.771l-0.03-0.846l-0.028-0.908l-0.04-1.474
		l-0.045-2.132l-0.042-2.265l-0.037-2.349l-0.048-3.561l-0.046-3.442l-0.029-2.138l-0.021-1.484l-0.015-0.919l-0.017-0.858
		l-0.017-0.786l-0.018-0.711l-0.017-0.629l-0.019-0.545l-0.021-0.448l-0.011-0.177v-0.004l-0.029-0.488l-0.032-0.971l0.002-0.924
		l0.036-0.866l0.059-0.804l0.084-0.733l0.094-0.654l0.106-0.568l0.104-0.462l0.095-0.349l0.059-0.183l-0.094,0.078l-1.092,0.411
		l-1.265-0.862l-0.072-0.326l0.021,0.111l0.005,0.184l0.147-0.682l0.684-0.67l0.236-0.07l-0.067,0.021l-0.217,0.029l-0.324,0.035
		l-0.413,0.029l-0.491,0.026l-0.556,0.022l-0.944,0.03l-1.427,0.025l-1.562,0.016l-1.646,0.008l-2.514-0.004l-2.407-0.016
		l-1.459-0.016l-1.283-0.013l-0.816-0.013l-0.462-0.005l-0.388-0.005l-0.307-0.006l-0.225-0.003h-0.138h-0.028
		c-0.002,0-0.005,0-0.007,0l-4.132-0.018l-8.277-0.119l-12.43-0.326l-16.593-0.527l-12.462-0.307l-8.312-0.098l-4.152-0.001
		c-0.844,0-1.528,0.671-1.529,1.502C1979.977,531.333,1980.661,532.007,1981.506,532.009"/>
	<path fill="#1D1B3A" stroke="#1D1B3A" stroke-width="0.7897" stroke-miterlimit="10" d="M1979.773,529.795l0.009,0.282l0.019,0.612
		l0.017,0.678l0.016,0.746l0.018,1.227l0.02,1.807l0.01,1.961l0.001,2.063l-0.011,2.124l-0.021,2.142l-0.037,2.107l-0.049,2.027
		l-0.066,1.903l-0.058,1.315l-0.046,0.81l-0.047,0.755l-0.054,0.687l-0.059,0.617l-0.06,0.533l-0.063,0.444l-0.063,0.342
		l-0.059,0.209l-0.025,0.031l0.09-0.19c-0.455,0.701-0.244,1.631,0.468,2.076c0.712,0.448,1.657,0.241,2.11-0.458l0.179-0.33
		l0.144-0.396l0.102-0.407l0.084-0.462l0.075-0.526l0.065-0.596l0.061-0.66l0.056-0.725l0.052-0.783l0.046-0.837l0.061-1.346
		l0.066-1.933l0.05-2.054l0.034-2.126l0.022-2.154l0.011-2.141v-2.08l-0.011-1.974l-0.018-1.823l-0.021-1.242l-0.014-0.755
		l-0.018-0.694l-0.018-0.625l-0.01-0.281c-0.027-0.83-0.733-1.479-1.577-1.453C1980.408,528.271,1979.747,528.967,1979.773,529.795"
		/>
	<path fill="#1D1B3A" stroke="#1D1B3A" stroke-width="0.7897" stroke-miterlimit="10" d="M2091.898,413.576l-0.085-0.303
		l-0.192-0.696l-0.224-0.817l-0.25-0.935l-0.282-1.04l-0.308-1.136l-0.335-1.222l-0.357-1.296l-0.382-1.364l-0.405-1.416
		l-0.647-2.214l-0.929-3.06l-0.999-3.116l-1.061-3.095l-1.113-3.001l-0.869-2.153l-0.594-1.372l-0.603-1.301l-0.61-1.23
		l-0.621-1.149l-0.633-1.065l-0.646-0.966l-0.664-0.866l-0.69-0.76l-0.729-0.646l-0.791-0.52l-0.876-0.367l-0.575-0.128
		c-0.037-0.006-0.075-0.012-0.113-0.018l-1.632-0.169l-3.329-0.285l-3.376-0.189l-3.402-0.08l-3.41,0.055l-3.397,0.212l-2.544,0.274
		l-1.689,0.243l-1.666,0.295l-1.652,0.35l-1.635,0.403l-1.619,0.465l-1.596,0.53l-1.571,0.592l-1.547,0.662l-1.52,0.73l-1.485,0.806
		l-1.455,0.883l-1.414,0.958l-1.379,1.044l-1.334,1.123l-1.287,1.213l-1.241,1.3l-1.19,1.388l-1.136,1.481l-1.079,1.576
		l-0.529,0.839c-0.012,0.019-0.023,0.04-0.033,0.058l-0.018,0.033l-0.089,0.164l-0.105,0.208l-0.127,0.258l-0.224,0.464
		l-0.341,0.717l-0.352,0.758l-0.317,0.718l-0.197,0.478l-0.107,0.281l-0.081,0.258l-0.066,0.324l0.068,0.715
		c0.09,0.271,0.258,0.509,0.481,0.69l0.081,0.065l0.526,0.297l0.609,0.161l0.545,0.037l0.71-0.064l0.911-0.212l0.865-0.321
		l0.766-0.398l0.533-0.386l0.363-0.367l0.3-0.506l0.142-0.818l-0.188-0.695c-0.062-0.128-0.146-0.246-0.24-0.354l-0.049-0.05
		l-0.832-0.469l-1.093,0.082l-0.594,0.361l-0.378,0.376l-0.312,0.387l-0.284,0.419l-0.276,0.456l-0.396,0.745l-0.505,1.11
		l-0.465,1.22l-0.382,1.277l-0.269,1.293l-0.105,0.987l-0.013,0.668l0.048,0.637l0.118,0.631l0.205,0.62l0.317,0.604l0.451,0.559
		l0.593,0.476l0.712,0.341l0.792,0.19l0.837,0.04l0.871-0.088l0.916-0.206l0.973-0.315l0.535-0.21
		c0.021-0.008,0.039-0.018,0.06-0.024l0.399-0.18l0.885-0.465l0.883-0.56l0.848-0.622l0.817-0.674l0.79-0.717l1.129-1.13
		l1.437-1.584l1.357-1.603l1.273-1.538l0.896-1.068l0.562-0.646l0.269-0.297c0.002-0.004,0.007-0.009,0.009-0.011l0.018-0.021
		l0.104-0.121l0.178-0.203l0.238-0.275l0.289-0.338l0.329-0.38l0.536-0.635l0.741-0.887l0.522-0.636l0.312-0.391l0.269-0.345
		l0.219-0.301l0.172-0.259l0.175-0.364l-0.41-1.673c-0.302-0.27-0.703-0.411-1.111-0.388l-0.207,0.01l-0.646,0.118l-0.675,0.248
		l-0.615,0.344l-0.56,0.415l-0.519,0.474l-0.485,0.523l-0.457,0.561l-0.637,0.907l-0.796,1.332l-0.735,1.441l-0.669,1.502
		l-0.593,1.525l-0.51,1.51l-0.423,1.456l-0.254,1.043l-0.139,0.663l-0.107,0.625l-0.081,0.587l-0.047,0.552l-0.017,0.52l0.025,0.493
		l0.077,0.479l0.168,0.504l0.361,0.557l0.463,0.383c0.07,0.042,0.146,0.081,0.223,0.11l0.286,0.118l0.733,0.223l0.803,0.133
		l0.804,0.029l0.798-0.068l0.787-0.149l0.771-0.228l0.756-0.292l1.088-0.527l1.424-0.876l1.4-1.032l1.355-1.148l1.311-1.225
		l1.255-1.271l1.199-1.284l1.129-1.26l1.049-1.204l0.956-1.112l0.651-0.75l0.396-0.451l0.366-0.409l0.331-0.354l0.144-0.149
		c0.005-0.006,0.013-0.012,0.018-0.016l0.112-0.121l0.325-0.378l0.369-0.457l0.398-0.515l0.623-0.833l0.617-0.851l0.382-0.548
		l0.332-0.494l0.275-0.428l0.206-0.358l0.135-0.279l0.119-0.438l-0.759-1.525l-1.536-0.009l-0.354,0.244l-0.219,0.199l-0.211,0.216
		l-0.234,0.251l-0.27,0.3l-0.311,0.357l-0.175,0.201c-0.007,0.012-0.017,0.021-0.025,0.031l-0.24,0.299l-0.562,0.777l-0.565,0.912
		l-0.549,0.999l-0.515,1.073l-0.467,1.122l-0.4,1.154l-0.318,1.164l-0.214,1.16l-0.09,1.145l0.035,0.871l0.092,0.588l0.146,0.555
		l0.216,0.543l0.294,0.519l0.384,0.485l0.473,0.433l0.554,0.356l0.621,0.272l0.673,0.176l0.709,0.092l0.748,0.008l0.424-0.025
		c0.026-0.002,0.053-0.006,0.08-0.008l0.571-0.071l1.255-0.263l1.259-0.394l1.214-0.515l1.173-0.609l1.126-0.692l1.087-0.762
		l1.048-0.817l1.01-0.859l0.977-0.891l1.39-1.36l1.742-1.824l1.222-1.321l0.767-0.83l0.366-0.394
		c0.033-0.032,0.067-0.072,0.098-0.111l0.121-0.16l0.338-0.582l0.198-0.33l-0.097,0.18l-0.571,0.334l-0.525,0.018l-1.043-0.759
		l0.011,0.016l-0.003,0.009l0.093,0.221l0.143,0.342l0.184,0.449l0.219,0.546l0.257,0.63l0.285,0.708l0.313,0.782l0.338,0.847
		l0.356,0.903l0.376,0.951l0.591,1.502l0.817,2.105l0.829,2.163l0.813,2.161l0.774,2.099l0.539,1.496l0.334,0.945l0.306,0.895
		l0.279,0.836l0.248,0.771l0.213,0.692l0.173,0.607l0.131,0.512l0.084,0.395l0.031,0.25l-0.007-0.004
		c0.039,0.83,0.755,1.472,1.599,1.435c0.842-0.04,1.495-0.744,1.457-1.572l-0.02-0.273l-0.07-0.456l-0.11-0.513l-0.15-0.586
		l-0.19-0.661l-0.226-0.735l-0.258-0.8l-0.287-0.859l-0.314-0.915l-0.34-0.963l-0.546-1.519l-0.781-2.119l-0.822-2.177l-0.832-2.177
		l-0.822-2.114l-0.591-1.508l-0.378-0.957l-0.36-0.906l-0.339-0.852l-0.314-0.787l-0.288-0.717l-0.257-0.636l-0.225-0.548
		l-0.188-0.46l-0.147-0.358l-0.112-0.266l-0.112-0.244l-0.01-0.018c-0.216-0.391-0.596-0.668-1.04-0.755l-0.699-0.018l-0.878,0.396
		l-0.483,0.523l-0.243,0.416l-0.095,0.206l-0.12,0.159l0.097-0.115l-0.375,0.405l-0.768,0.83l-1.188,1.282l-1.672,1.755
		l-1.313,1.288l-0.896,0.818l-0.911,0.78l-0.924,0.725l-0.936,0.66l-0.941,0.587l-0.946,0.506l-0.95,0.412l-0.948,0.314
		l-0.997,0.217l-0.571,0.069l0.079-0.008l-0.203,0.019l-0.403,0.011l-0.322-0.023l-0.244-0.043l-0.183-0.051l-0.141-0.058
		l-0.12-0.077l-0.109-0.103l-0.104-0.142l-0.093-0.194l-0.077-0.241l-0.056-0.262l-0.038-0.504l0.051-0.821l0.158-0.915l0.259-0.97
		l0.337-0.988l0.403-0.978l0.443-0.932l0.46-0.855l0.458-0.745l0.447-0.629l0.243-0.297l-0.027,0.031l0.159-0.187l0.285-0.327
		l0.235-0.263l0.183-0.196l0.123-0.13l0.038-0.042l-0.175,0.101l-1.426-0.067l-0.714-1.502l0.104-0.334l0.008,0.006l-0.138,0.24
		l-0.233,0.367l-0.307,0.454l-0.354,0.508l-0.584,0.812l-0.595,0.791l-0.36,0.47l-0.312,0.385l-0.238,0.281l-0.113,0.122
		l0.015-0.018l-0.181,0.189l-0.364,0.393l-0.388,0.433l-0.411,0.468l-0.657,0.755l-0.947,1.103l-1.021,1.173l-1.088,1.216
		l-1.136,1.218l-1.175,1.192l-1.196,1.123l-1.203,1.023l-1.184,0.89l-1.167,0.732l-0.846,0.423l-0.522,0.209l-0.495,0.157
		l-0.467,0.104l-0.438,0.053l-0.409,0.003l-0.393-0.043l-0.431-0.117l-0.289-0.117l0.223,0.113l0.309,0.287l0.109,0.248
		l-0.014,0.042l-0.034-0.124l-0.021-0.243l0.007-0.337l0.032-0.415l0.062-0.475l0.091-0.528l0.116-0.564l0.221-0.918l0.385-1.331
		l0.465-1.389l0.539-1.396l0.599-1.356l0.642-1.271l0.676-1.146l0.518-0.743l0.328-0.417l0.317-0.351l0.293-0.282l0.254-0.211
		l0.208-0.141l0.147-0.087l0.176-0.057l0.207-0.011l-1.112-0.39l-0.382-1.645l0.097-0.16l-0.075,0.12l-0.171,0.232l-0.239,0.311
		l-0.291,0.362l-0.502,0.611l-0.725,0.869l-0.531,0.625l-0.324,0.378l-0.284,0.332l-0.236,0.271l-0.17,0.201l-0.094,0.104
		l-0.017,0.021l0.009-0.012l-0.301,0.332l-0.598,0.688l-0.91,1.085l-1.248,1.512l-1.292,1.526l-1.335,1.477l-1.027,1.03
		l-0.683,0.625l-0.682,0.57l-0.677,0.505l-0.67,0.434l-0.693,0.372l-0.4,0.176l0.059-0.023l-0.373,0.151l-0.703,0.24l-0.572,0.145
		l-0.435,0.067l-0.304,0.017l-0.187-0.004l-0.112-0.007l-0.088-0.016l-0.094-0.058l-0.101-0.131l-0.093-0.213l-0.068-0.294
		l-0.036-0.362l-0.005-0.396l0.064-0.694l0.205-1.043l0.312-1.072l0.388-1.038l0.428-0.946l0.319-0.609l0.194-0.326l0.165-0.254
		l0.118-0.166l0.015-0.044l-0.244,0.095l-0.792-0.023l-0.591-0.401l0.048,0.053l-0.243-0.354l-0.117-0.555l0.146-0.518l0.149-0.186
		l0.071-0.036l-0.118,0.118l-0.409,0.234l-0.506,0.206l-0.5,0.138l-0.278,0.047l-0.042,0.02l0.097,0.064l0.117,0.105l-0.081-0.065
		l0.481,0.692l0.052,0.668l-0.033,0.108l0.026-0.099l0.069-0.187l0.169-0.409l0.297-0.673l0.337-0.731l0.33-0.693l0.217-0.44
		l0.116-0.238l0.084-0.169l0.038-0.075l0.019-0.033l-0.034,0.06l0.465-0.743l0.984-1.445l1.035-1.355l1.08-1.268l1.126-1.183
		l1.166-1.104l1.208-1.023l1.246-0.948l1.287-0.876l1.323-0.806l1.356-0.744l1.391-0.671l1.422-0.61l1.452-0.552l1.48-0.491
		l1.505-0.436l1.532-0.379l1.55-0.33l1.572-0.279l1.576-0.23l2.401-0.263l3.261-0.204l3.285-0.058l3.295,0.074l3.289,0.188
		l3.271,0.278l1.632,0.169l-0.112-0.016l0.022-0.022l0.325,0.089l0.419,0.246l0.482,0.405l0.523,0.562l0.548,0.706l0.562,0.835
		l0.572,0.954l0.572,1.057l0.574,1.154l0.572,1.236l0.565,1.302l0.838,2.074l1.087,2.931l1.043,3.042l0.987,3.072l0.919,3.026
		l0.641,2.194l0.4,1.406l0.381,1.351l0.355,1.29l0.333,1.214l0.308,1.133l0.281,1.041l0.254,0.938l0.226,0.832l0.196,0.709
		l0.086,0.306c0.226,0.799,1.067,1.265,1.882,1.043C2091.647,415.205,2092.125,414.376,2091.898,413.576"/>
	<path fill="#1D1B3A" stroke="#1D1B3A" stroke-width="0.7897" stroke-miterlimit="10" d="M1993.651,597.158l0.57,0.041l1.191,0.087
		l1.259,0.099l1.317,0.1l2.081,0.169l2.947,0.242l3.107,0.27l3.233,0.279l5.009,0.44l6.786,0.6l5.013,0.442l3.239,0.279l3.111,0.268
		l2.953,0.245l2.09,0.169l1.324,0.103l1.266,0.097l1.199,0.089l0.576,0.041c0.842,0.061,1.574-0.562,1.635-1.392
		c0.062-0.828-0.572-1.548-1.415-1.609l-0.568-0.039l-1.189-0.089l-1.26-0.096l-1.317-0.101l-2.082-0.169l-2.945-0.246l-3.109-0.264
		l-3.235-0.281l-5.011-0.442l-6.787-0.599l-5.012-0.442l-3.24-0.281l-3.112-0.266l-2.954-0.242l-2.09-0.172l-1.325-0.104
		l-1.264-0.096l-1.2-0.089l-0.572-0.041c-0.841-0.06-1.574,0.564-1.636,1.394C1992.175,596.377,1992.806,597.097,1993.651,597.158"
		/>
	<path fill="#1D1B3A" d="M2089.642,409.893c-1.85-5.417-3.877-10.787-5.918-16.137c-1.057-2.776-2.136-5.547-3.232-8.31
		c-0.809-2.04-1.48-4.523-3.123-6.104c-3.336-3.215-10.096-2.515-14.354-2.527c-5.486-0.014-10.813,0.778-15.948,2.72
		c-8.518,3.219-23.81,8.818-20.999,20.382c0.161,0.658,0.578,1.164,1.108,1.494c0.206,1.158,0.412,2.316,0.618,3.473
		c0.365,2.07,3.173,2.442,4.531,1.178l7.256-6.759c0.826-0.771,1.652-1.539,2.48-2.31c-0.069,0.198-0.117,0.336-0.126,0.366
		c-0.634,1.833-1.405,3.596-2.267,5.334c-1.256,2.528,2.191,5.741,4.259,3.233c2.884-3.501,6.187-6.482,9.89-8.943
		c0.695,0.299,1.52,0.314,2.324-0.153l0.924-0.54c-0.119,1.269-0.344,2.53-0.689,3.816c-0.555,2.055,1.996,4.47,3.984,3.012
		c4.605-3.381,9.373-6.474,14.155-9.602c1.326-0.868,0.604-0.788,1.117,0.134c0.671,1.196,0.9,3.022,1.297,4.347
		c0.864,2.899,1.728,5.798,2.591,8.699c0.819,2.744,1.441,5.698,2.509,8.362c0.605,1.513,1.6,2.761,3.354,2.996
		C2090.384,418.727,2090.749,413.143,2089.642,409.893z"/>
	<path fill="#F4EDE1" d="M1996.265,586.471c0.256-1.907,0.823-3.747,1.45-5.572c-0.009-0.124-0.015-0.247-0.013-0.365
		c0.05-2.578,1.975-5.429,0.33-7.844c-1.221-1.787-3.829-2.633-5.733-3.48c-2.058-0.914-4.026-1.92-5.915-3.147
		c-3.671-2.381-5.418-5.248-6.412-9.42c-0.127-0.533-0.087-1.011,0.049-1.436l-8.64,7.253l0.085,2.415
		c2.265,0.297,3.113,3.564,1.184,4.844c0.011,1.999,0.104,3.969,1.066,5.792c0.928,1.755-0.235,3.384-1.694,3.873
		c0.55,0.173,1.053,0.552,1.406,1.217c1.317,2.478,1.925,4.921,1.88,7.489l2.145,4.961l8.119,3.859
		c1.498-0.244,2.986-0.621,4.514-0.668c-0.191-1.286,0.436-2.709,1.914-3.034c0.294-0.472,0.612-0.924,0.955-1.353
		c0.375-0.468,0.783-0.898,1.225-1.298c-0.381-0.972-0.259-2.19,0.578-2.862c0.485-0.388,0.99-0.748,1.504-1.102
		C1996.265,586.552,1996.259,586.515,1996.265,586.471z"/>
	<path fill="#1D1B3A" stroke="#1D1B3A" stroke-width="0.7897" stroke-miterlimit="10" d="M2047.966,499.544
		c-0.288-0.003-0.557-0.114-0.756-0.316c-0.201-0.202-0.31-0.468-0.306-0.749l0.009-0.688l-0.003-1.282l-0.03-1.188l-0.049-1.107
		l-0.072-1.044l-0.088-0.997l-0.162-1.449l-0.263-1.911l-0.542-3.64l-0.166-1.185l-0.164-1.271l-0.162-1.373l-0.079-0.732
		l-0.074-0.649l-0.174-1.306l-0.327-1.988l-0.544-2.723l-0.666-2.792l-0.769-2.862l-0.864-2.916l-0.945-2.971l-1.013-3.009
		l-1.617-4.576l-1.213-3.291l-1.315,0.226l-1.176,0.163l-1.226,0.132l-1.283,0.099l-1.343,0.066l-1.393,0.033l-1.666,0.003
		l-1.457-0.036l-0.999-0.08l-1.013-0.153l-1.015-0.251l-0.999-0.374l-0.916-0.484l-0.356-0.239
		c-0.027-0.017-0.056-0.038-0.084-0.061l-0.213-0.205l-0.284-0.462l-0.123-0.659l0.102-0.635l0.243-0.576l0.318-0.509l0.402-0.531
		l0.703-0.788l1.031-1.01l0.779-0.699l0.493-0.421l0.45-0.375l0.381-0.312l0.5-0.394l0.822-0.616l1.536-1.096l1.569-1.046
		l1.603-1.002l1.128-0.661l-0.276-0.745l-1.093-3.062l-1.041-3.034l-0.982-2.996l-0.907-2.954l-0.82-2.905l-0.72-2.848l-0.606-2.786
		l-0.478-2.715l-0.269-1.994l-0.132-1.304l-0.094-1.28l-0.05-1.258l-0.006-1.233l0.038-1.211l0.084-1.188l0.134-1.162l0.035-0.21
		c0.269,0.157,0.538,0.314,0.804,0.472c0.402,0.237,0.806,0.474,1.211,0.706l-0.04,0.322l-0.081,1.106l-0.037,1.135l0.004,1.165
		l0.047,1.193l0.086,1.22l0.123,1.237l0.254,1.905l0.465,2.635l0.588,2.72l0.706,2.796l0.807,2.862l0.896,2.92l0.974,2.967
		l1.034,3.013l1.229,3.444l1.969-1.03l1.715-0.84l2.601-1.195l3.505-1.468l3.53-1.344l3.526-1.225l1.74-0.57
		c0.111-0.035,0.225-0.054,0.341-0.054c0.461,0,0.871,0.292,1.018,0.724c0.09,0.269,0.069,0.556-0.061,0.805
		c-0.127,0.254-0.348,0.442-0.619,0.531l-1.752,0.571l-3.488,1.213l-3.476,1.323l-3.436,1.443l-2.532,1.162l-1.661,0.817
		l-1.642,0.858l-1.615,0.893l-1.585,0.932l-1.553,0.97l-1.519,1.015l-1.476,1.052l-0.717,0.541l-0.511,0.402l-0.368,0.299
		l-0.429,0.356l-0.473,0.405l-0.748,0.674l-0.966,0.952l-0.234,0.267l-0.003-0.35l-0.665,1.178l-0.194,0.264l0.035,0.018
		l-0.067,0.12l-0.062,0.229l0.781,0.408l0.186-0.202l-0.001-0.138l0.72,0.246l0.772,0.175l0.812,0.111l0.848,0.062l1.328,0.031
		h0.881l0.718-0.004l1.357-0.033l1.284-0.064l1.224-0.097l1.162-0.125l1.111-0.156l1.056-0.181l1.01-0.212l0.966-0.238l0.927-0.264
		l1.336-0.448l1.68-0.682l1.587-0.773l1.535-0.865l1.521-0.955l1.53-1.041l1.572-1.124l3.384-2.47l1.866-1.337l2.021-1.395
		l1.083-0.722c0.177-0.117,0.385-0.179,0.598-0.179c0.36,0,0.694,0.174,0.894,0.464c0.16,0.234,0.219,0.514,0.165,0.791
		c-0.055,0.278-0.215,0.518-0.454,0.675l-1.045,0.693l-1.99,1.374l-1.853,1.326l-3.411,2.491l-1.62,1.157l-1.601,1.086l-1.615,1.009
		l-1.657,0.926l-1.722,0.834l-1.805,0.727l-1.422,0.475l-0.833,0.231l1.14,3.095l1.629,4.609l1.024,3.042l0.958,3.011l0.877,2.971
		l0.788,2.92l0.679,2.87l0.561,2.798l0.332,2.049l0.176,1.336l0.151,1.359l0.158,1.353l0.165,1.253l0.161,1.167l0.243,1.634
		l0.305,2.034l0.27,1.967l0.166,1.5l0.093,1.04l0.072,1.09l0.051,1.151l0.03,1.229v1.311l-0.007,0.682
		c-0.007,0.576-0.487,1.042-1.071,1.042H2047.966z"/>
	<path fill="#1D1B3A" stroke="#1D1B3A" stroke-width="0.7897" stroke-miterlimit="10" d="M2040.118,431.625l-0.535-0.403
		l-0.465-0.556l-0.383-0.653l-0.358-0.812l-0.343-0.985l-0.246-0.864l-0.158-0.647l-0.156-0.706l-0.152-0.764l-0.146-0.818
		l-0.143-0.877l-0.067-0.448c-0.068-0.463,0.19-0.921,0.632-1.111l0.306-0.133l-0.039-0.329c-0.062-0.519,0.262-0.997,0.771-1.139
		l0.285-0.074l0.518-0.103l0.7-0.047l0.882,0.098l0.782,0.274l0.662,0.425l0.534,0.529l0.438,0.632l0.311,0.652l0.227,0.695
		l0.153,0.722l0.093,0.748l0.032,0.757l-0.02,0.762l-0.069,0.753l-0.117,0.739l-0.163,0.711l-0.208,0.679l-0.256,0.636l-0.313,0.594
		l-0.369,0.497l-0.5,0.454l-0.666,0.311l-0.767,0.042L2040.118,431.625z M2041.606,430.218l0.604-0.721l-0.33-0.321l-0.267-0.208
		l-0.086-0.019l0.154-0.409l0.147-0.514l0.122-0.565l0.091-0.603l0.052-0.623l0.01-0.625l-0.033-0.613l-0.081-0.584l-0.126-0.541
		l-0.174-0.481l-0.238-0.442l-0.267-0.328l-0.307-0.228l-0.322-0.119l-0.32-0.035l-0.335,0.02l-0.322,0.056l-0.537,0.141
		l0.116,0.787l0.14,0.852l0.141,0.784l0.144,0.722l0.146,0.662l0.153,0.604l0.229,0.804l0.311,0.877l0.081,0.176l-0.075-0.016
		l0.271,0.438l0.371,0.799l0.072-0.157L2041.606,430.218z"/>
	<path fill="#1D1B3A" stroke="#1D1B3A" stroke-width="0.7897" stroke-miterlimit="10" d="M2066.59,427.619l-0.64-0.277l-0.54-0.427
		l-0.485-0.58l-0.408-0.681l-0.374-0.83l-0.342-0.982l-0.238-0.85l-0.153-0.635l-0.141-0.687l-0.134-0.737l-0.126-0.79l-0.116-0.838
		l-0.052-0.428c-0.036-0.302,0.062-0.596,0.275-0.83l0.244-0.268l-0.212-0.289c-0.134-0.191-0.206-0.405-0.204-0.626
		c0.01-0.575,0.492-1.042,1.077-1.042l0.338,0.008l0.597,0.04l0.834,0.131l0.986,0.285l0.861,0.405l0.746,0.512l0.623,0.592
		l0.502,0.661l0.394,0.704l0.29,0.732l0.2,0.755l0.117,0.762l0.04,0.758l-0.027,0.75l-0.093,0.731l-0.154,0.706l-0.209,0.675
		l-0.269,0.631l-0.331,0.585l-0.405,0.527l-0.457,0.419l-0.6,0.34l-0.697,0.159L2066.59,427.619z M2068.215,425.995l-0.345-1.069
		l-0.074-0.046l0.131-0.258l0.16-0.422l0.141-0.482l0.104-0.525l0.061-0.556l0.012-0.568l-0.041-0.57l-0.099-0.559l-0.158-0.534
		l-0.218-0.502l-0.278-0.452l-0.341-0.401l-0.406-0.346l-0.476-0.289l-0.562-0.226l-0.299-0.077l-0.669-0.161l0.118,0.694
		l0.01,0.035l0.041,0.379l0.111,0.809l0.118,0.749l0.129,0.691l0.133,0.634l0.14,0.582l0.221,0.783l0.309,0.861l0.104,0.222
		l-0.583-0.157l1.111,1.093l0.379,0.578l0.116-0.2L2068.215,425.995z"/>
	<path fill="#1D1B3A" stroke="#1D1B3A" stroke-width="0.7897" stroke-miterlimit="10" d="M2052.213,601.684l-1.282-0.049
		l-0.792-0.046l-0.737-0.055l-0.682-0.054l-0.622-0.062l-0.563-0.064l-0.498-0.062l-0.628-0.089l-0.181-0.037l-0.369-0.127
		l-0.559-0.313l-0.688-0.578l-0.587-0.668l-0.517-0.731l-0.437-0.763l-0.341-0.768l-0.184-0.584l-0.082-0.402l-0.024-0.227
		l-0.05-0.354l-0.365-0.058l-1.315-0.134l-0.781-0.105l-0.719-0.118l-0.647-0.138l-0.564-0.155l-0.497-0.196l-0.299-0.172
		c-0.021-0.014-0.066-0.045-0.108-0.08l-0.342-0.303l-0.411-0.384l-0.619-0.613l-0.647-0.69l-0.625-0.724l-0.548-0.72l-0.343-0.542
		l-0.191-0.374l-0.123-0.342l-0.076-0.442l0.03-0.545l-0.583-0.064l-0.376-0.028l-0.062,0.003l-0.137-0.01l-0.58-0.142l-0.576-0.339
		l-0.432-0.448l-0.308-0.51l-0.217-0.585l-0.117-0.577l-0.038-0.601l0.044-0.613l0.126-0.622l0.219-0.617l0.316-0.596l0.424-0.564
		l0.539-0.505l0.649-0.425l0.294-0.122l0.465-0.206l-0.261-0.431c-0.037-0.083-0.058-0.188-0.063-0.295l-0.021-0.428l0.028-0.894
		l0.135-0.866l0.241-0.802l0.346-0.739l0.443-0.669l0.53-0.593l0.601-0.516l0.665-0.442l0.714-0.371l0.757-0.312l0.792-0.257
		l0.824-0.209l0.853-0.167l1.306-0.18l1.809-0.137l1.852-0.043l1.852,0.019l1.809,0.056l1.731,0.067l1.611,0.045l1.098,0.008
		l0.668-0.012l0.612-0.029l0.545-0.049l0.198-0.028l0.502-0.082l0.955-0.213l0.946-0.272l0.948-0.334l0.939-0.381l0.93-0.421
		l1.356-0.69l1.696-0.973l1.144-0.726l0.695-0.466l0.64-0.444l0.57-0.411l0.498-0.367l0.595-0.448
		c0.19-0.144,0.417-0.223,0.656-0.223c0.335,0,0.645,0.151,0.851,0.411c0.176,0.222,0.251,0.5,0.216,0.779
		c-0.037,0.28-0.181,0.529-0.407,0.703l-0.625,0.47l-0.522,0.384l-0.598,0.43l-0.671,0.467l-0.745,0.496l-1.229,0.777l-1.796,1.027
		l-1.444,0.73l-1.01,0.457l-1.042,0.417l-1.063,0.367l-1.085,0.308l-1.065,0.233l-0.484,0.081l-0.371,0.045l-0.639,0.057
		l-0.673,0.031l-0.722,0.014l-1.14-0.012l-1.622-0.049l-1.71-0.063l-1.76-0.053l-1.771-0.021l-1.735,0.036l-1.672,0.12l-1.188,0.16
		l-0.735,0.138l-0.685,0.168l-0.633,0.197l-0.577,0.224l-0.517,0.256l-0.455,0.283l-0.398,0.307l-0.344,0.346l-0.292,0.388
		l-0.243,0.45l-0.187,0.523l-0.07,0.348l-0.159-0.103l-0.29,0.054l-0.996,0.425l1.065,0.44l0.347-0.642l-0.015,0.084l-0.034,0.659
		l0.363,0.085l0.672,0.13l1.062,0.157l1.229,0.146l1.342,0.13l1.411,0.117l2.171,0.152l2.09,0.121l1.277,0.061l1.135,0.05
		l1.506,0.052l0.604,0.012l0.308-0.019l0.69-0.049l0.821-0.064l0.929-0.079l2.103-0.197l1.71-0.181l2.333-0.275l1.695-0.233
		l1.064-0.159l0.981-0.169l0.876-0.167l0.744-0.17l0.608-0.168l0.304-0.103c0.116-0.04,0.232-0.062,0.354-0.062
		c0.458,0,0.864,0.287,1.016,0.712c0.193,0.548-0.102,1.152-0.661,1.343l-0.28,0.097l-0.729,0.206l-0.854,0.197l-0.951,0.185
		l-1.033,0.177l-1.102,0.168l-1.732,0.237l-2.369,0.281l-1.741,0.185l-1.104,0.106l-1.03,0.094l-0.943,0.079l-0.833,0.064
		l-1.007,0.071l-0.269,0.004l-0.92-0.021l-1.168-0.044l-1.146-0.049l-1.289-0.062l-2.107-0.122l-2.194-0.151l-1.44-0.122
		l-1.373-0.132l-1.264-0.149l-1.118-0.161l-0.665-0.124l-0.119,0.384c-0.107,0.35-0.384,0.617-0.738,0.713l-0.116,0.021l-0.418,0.14
		l-0.356,0.185l-0.336,0.253l-0.221,0.248l-0.205,0.314l-0.149,0.339l-0.097,0.35l-0.048,0.348l-0.005,0.319l0.03,0.278l0.04,0.206
		l0.005,0.051l0.107-0.146l0.03,0.552l0.134,0.009l0.198,0.006l0.4,0.032l0.549,0.06l0.69,0.084l3.839,0.491l1.732,0.206l2.418,0.26
		l1.815,0.161l1.175,0.084l1.124,0.058l1.067,0.031l0.598,0.002l0.584-0.025l0.391-0.029l0.695-0.054l1.096-0.102l1.253-0.126
		l1.373-0.146l2.211-0.254l3.049-0.376l2.203-0.297l1.361-0.197l1.233-0.191l1.067-0.178l0.675-0.125l0.369-0.075l0.292-0.066
		l0.228-0.06l0.131-0.041c0.105-0.031,0.213-0.047,0.322-0.047c0.47,0,0.881,0.297,1.022,0.739c0.178,0.556-0.139,1.151-0.703,1.325
		l-0.108,0.034l-0.314,0.084l-0.372,0.086l-0.417,0.085l-0.712,0.134l-1.11,0.187l-1.266,0.195l-1.382,0.201l-2.224,0.297
		l-3.072,0.381l-2.23,0.255l-1.391,0.15l-1.267,0.126l-1.114,0.104l-0.718,0.056l-0.414,0.028l-0.36,0.021l-0.445,0.014
		l-0.533-0.003l-1.116-0.031l-1.179-0.062l-1.215-0.083l-1.856-0.163l-2.46-0.264l-1.764-0.211l-2.621-0.334l1.008,1.342
		l0.569,0.664l0.599,0.642l0.574,0.571l0.377,0.351l0.15,0.14l-0.015,0.035l0.213,0.101l0.441,0.13l0.565,0.123l0.657,0.11
		l0.727,0.097l1.188,0.126l1.667,0.132l1.222,0.071l0.76,0.037l1.308,0.042l0.894,0.013l0.145-0.004l0.418-0.012l0.972-0.048
		l1.093-0.076l1.188-0.107l1.268-0.133l1.321-0.161l2.05-0.279l2.782-0.448l2.032-0.383l1.291-0.276l1.214-0.288l1.12-0.293
		l1.004-0.303l0.892-0.31l0.436-0.175c0.13-0.053,0.267-0.08,0.404-0.08c0.439,0,0.829,0.26,0.995,0.66
		c0.108,0.262,0.106,0.547-0.004,0.807c-0.111,0.263-0.318,0.462-0.583,0.568l-0.418,0.167l-0.979,0.347l-1.102,0.334l-1.196,0.314
		l-1.273,0.303l-1.336,0.284l-2.08,0.396l-2.84,0.459l-2.104,0.288l-1.36,0.164l-1.295,0.137l-1.221,0.11l-1.129,0.081l-1.021,0.052
		l-0.645,0.018l-0.965-0.011l-0.635-0.02l-1.955-0.084l0.478,1.14l0.329,0.603l0.377,0.56l0.37,0.454l0.322,0.323l0.096,0.084
		l0.072,0.103l0.197,0.062l0.207,0.037l0.401,0.057l0.473,0.059l0.532,0.06l0.595,0.059l0.65,0.058l0.707,0.049l0.753,0.043
		l1.22,0.049l1.787,0.024l1.947-0.039l2.074-0.113l2.182-0.204l2.268-0.309l2.323-0.426l2.364-0.562l2.379-0.711l2.379-0.876
		l1.775-0.775l1.162-0.573l1.145-0.616l1.14-0.681l0.589-0.373c0.154-0.101,0.332-0.154,0.529-0.165l0.163-0.007l0.714-0.634
		l0.59-0.669l0.504-0.718l0.434-0.753l0.384-0.777l0.714-1.595l0.389-0.792l0.452-0.771l0.556-0.726l0.659-0.615l0.56-0.37
		l0.43-0.214l0.47-0.179l0.504-0.133l0.532-0.094l0.564-0.053l0.602-0.011l0.615,0.026l0.619,0.058l-0.021-0.626l-0.112-1.019
		l-0.198-1.109l-0.272-1.162l-0.327-1.193l-0.369-1.195l-0.396-1.171l-0.406-1.121l-0.406-1.051l-0.388-0.952l-0.353-0.833
		l-0.433-0.96l0.016-0.226l-0.136-0.025l-0.006,0.019l-0.254-0.042l-0.513-0.038l-0.519-0.055l-0.613-0.098l-0.719-0.157
		l-0.827-0.229l-0.7-0.228l-0.514-0.186l-0.558-0.214l-0.587-0.245l-0.635-0.278l-0.673-0.309l-0.716-0.348l-0.758-0.384
		l-0.386-0.202c0,0-0.138-0.089-0.163-0.108c-0.02-0.014-0.146-0.138-0.146-0.138c-0.023-0.027-0.045-0.062-0.064-0.091
		l-0.057-0.076c-0.017-0.033-0.029-0.068-0.045-0.104l-0.037-0.077l-0.24-0.685l-0.493-1.29l-0.498-1.136l-0.506-0.989l-0.52-0.853
		l-0.532-0.732l-0.556-0.634l-0.594-0.552l-0.644-0.482l-0.705-0.423l-0.78-0.377l-0.861-0.338l-0.95-0.305l-1.038-0.281
		l-1.139-0.269l-1.239-0.266l-0.662-0.137c-0.281-0.057-0.523-0.218-0.68-0.454c-0.158-0.233-0.211-0.519-0.154-0.793
		c0.105-0.487,0.545-0.843,1.051-0.843c0.074,0,0.147,0.008,0.22,0.021l0.658,0.138l1.255,0.27l1.178,0.274l1.1,0.295l1.034,0.331
		l0.979,0.373l0.923,0.436l0.874,0.511l0.82,0.592l0.773,0.688l0.719,0.788l0.667,0.891l0.622,1.009l0.589,1.125l0.557,1.256
		l0.538,1.395l0.126,0.367l0.754,0.384l0.683,0.329l0.637,0.297l0.596,0.257l0.551,0.228l0.507,0.195l0.473,0.169l0.641,0.207
		l0.731,0.2l0.602,0.126l0.491,0.072l0.402,0.04l0.648,0.049l0.337,0.047l0.354,0.104l0.446,0.243l0.385,0.369l0.298,0.45
		l0.124,0.241l0.629,1.389l0.408-0.955c0.167-0.396,0.554-0.651,0.985-0.651l1.272,0.073l2.357,0.092l1.069,0.014l-0.139-0.637
		l-0.351-1.987l-0.342-2.702l-0.215-2.755l-0.102-2.796l-0.001-2.818l0.085-2.814l0.163-2.793l0.222-2.75l0.271-2.689l0.307-2.604
		l0.332-2.499l0.341-2.367l0.34-2.223l0.744-4.688l-0.579-0.461l-0.916-0.656l-0.921-0.59l-0.927-0.516l-0.931-0.439l-0.963-0.37
		l-0.536-0.172c-0.274-0.086-0.497-0.272-0.628-0.522c-0.131-0.252-0.154-0.536-0.065-0.804c0.143-0.442,0.553-0.735,1.021-0.735
		c0.111,0,0.222,0.018,0.329,0.053l0.512,0.16l1.078,0.408l1.077,0.502l1.059,0.579l1.037,0.657l1.018,0.723l0.999,0.789
		l0.976,0.848l0.956,0.906l0.937,0.957l0.912,1.001l0.891,1.045l1.289,1.63l1.639,2.286l1.545,2.387l1.437,2.444l1.323,2.473
		l1.205,2.467l1.075,2.424l0.722,1.777l0.438,1.158l0.399,1.123l0.363,1.093l0.326,1.056l0.279,0.985l0.471-0.185
		c0.136-0.053,0.271-0.081,0.406-0.081c0.044,0,0.09,0.003,0.137,0.011c0.283,0.037,0.535,0.183,0.707,0.408
		c0.174,0.227,0.247,0.502,0.207,0.781l-0.089,0.621l-0.215,1.137l-0.274,1.077l-0.332,1.019l-0.391,0.959l-0.444,0.903
		l-0.501,0.849l-0.552,0.791l-0.602,0.737l-0.648,0.683l-0.694,0.625l-0.736,0.574l-0.775,0.525l-0.811,0.472l-0.846,0.429
		l-0.879,0.384l-0.91,0.339l-0.938,0.301l-0.967,0.264l-0.992,0.226l-1.02,0.192l-1.052,0.158l-1.617,0.184l-2.211,0.148
		l-2.285,0.055l-2.346-0.03l-2.394-0.095l-1.201-0.072c-0.104-0.007-0.214-0.031-0.337-0.083l-0.986-0.386l0.586,1.439l0.42,1.086
		l0.422,1.16l0.41,1.213l0.387,1.242l0.344,1.251l0.292,1.238l0.221,1.203l0.135,1.149l0.033,0.835l-0.014,0.54l-0.052,0.512
		l-0.09,0.487l-0.137,0.474l-0.195,0.455l-0.262,0.426l-0.318,0.356l-0.415,0.48l1.804,0.686l1.3,0.431l1.304,0.376l1.309,0.32
		l1.309,0.26l1.308,0.208l1.304,0.155l1.3,0.101l1.292,0.047l1.285-0.004l1.274-0.056l1.262-0.102l1.249-0.149l1.229-0.202
		l1.215-0.246l1.195-0.293l1.171-0.336l1.149-0.38l1.124-0.423l1.096-0.464l1.066-0.504l1.036-0.545l1.004-0.581l0.97-0.621
		l0.931-0.657l0.893-0.691l0.854-0.727l0.826-0.772l0.4-0.405l0.372-0.391l0.731-0.828l0.683-0.849l0.63-0.865l0.579-0.877
		l0.528-0.894l0.48-0.906l0.432-0.922l0.387-0.934l0.334-0.933l0.423-1.423l0.424-1.969l0.259-2.02l0.101-2.059l-0.049-2.1
		l-0.192-2.128l-0.323-2.158l-0.454-2.177l-0.571-2.193l-0.681-2.203l-0.781-2.207l-0.876-2.209l-0.959-2.199l-1.036-2.189
		l-1.101-2.173l-1.161-2.15l-1.211-2.121l-1.249-2.092l-1.282-2.053l-1.305-2.008l-1.319-1.962l-1.325-1.908l-1.321-1.851
		l-1.309-1.788l-1.29-1.719l-1.258-1.645l-1.222-1.571l-0.569-0.72l-0.104-0.209h-0.062l-0.627-0.804l-1.502-1.954l-1.507-1.946
		l-1.53-1.913l-1.592-1.851l-1.247-1.329l-0.854-0.844l-0.88-0.807l-0.905-0.767l-0.938-0.724l-0.988-0.688l-0.542-0.346
		l-0.259-0.194l-0.341,0.122l-0.524,0.346l-0.631,0.46l-0.598,0.482l-0.271,0.235l-0.309,0.309l-2.138,2.222l-0.907,0.93
		l-0.985,0.993l-1.034,1.017l-1.058,1.012l-1.061,0.971l-1.037,0.904l-0.989,0.799l-0.712,0.522l-0.458,0.304l-0.435,0.261
		l-0.426,0.213l-0.422,0.171l-0.393,0.104l-0.468,0.04l-0.554-0.099l-0.444-0.218c0.002,0,0.002,0,0.002,0
		c0.006,0-0.032-0.026-0.067-0.058l-0.211-0.199l-0.181-0.186l-0.427-0.467l-0.658-0.751l-0.616-0.718l-3.585-4.224l-0.681-0.796
		l-1.132-1.304l-0.299,0.688l-0.282,0.776l-0.417,1.253l-0.445,1.412l-0.475,1.541l-0.51,1.636l-0.549,1.693l-0.588,1.723
		l-0.637,1.714l-0.681,1.678l-0.739,1.611l-0.798,1.511l-0.649,1.062l-0.461,0.665l-0.477,0.617l-0.5,0.571l-0.274,0.283
		c-0.203,0.207-0.479,0.319-0.772,0.319c-0.277,0-0.542-0.104-0.744-0.295c-0.207-0.195-0.324-0.458-0.33-0.739
		c-0.004-0.283,0.102-0.551,0.302-0.753l0.179-0.182l0.416-0.466l0.414-0.527l0.835-1.193l-0.861-0.002
		c-0.591-0.003-1.073-0.475-1.073-1.055v-1.625l0.009-0.437l0.035-0.531l0.128-0.66l0.174-0.553l0.309-0.851l0.203-0.58l0.312-0.949
		l0.146-0.459l0.332-1.095l0.385-1.336l0.787-2.815l0.279-0.968l0.269-0.879l0.251-0.798l0.244-0.721l0.24-0.648l0.234-0.587
		l0.238-0.531l0.24-0.481l0.372-0.628l0.547-0.71l0.63-0.608l0.695-0.501l0.749-0.44l1.479-0.783l0.477-0.262l0.514-0.291
		l0.553-0.329l0.592-0.374l0.642-0.423l0.69-0.479l0.743-0.544l0.8-0.612l0.855-0.686l0.434-0.358l0.215-0.185l0.486-0.438
		l2.572-2.397l0.012-0.457l0.055-1.354l0.085-1.401l0.106-1.447l0.13-1.49l0.15-1.532l0.17-1.576l0.286-2.438l0.432-3.367
		l0.48-3.498l0.512-3.617l0.532-3.717l0.537-3.807l0.532-3.876l0.515-3.938l0.478-3.979l0.435-4.01l0.333-3.563l0.938-0.239
		l-0.968-0.557l-0.135-0.068l-0.604-0.387l-0.595-0.447l-0.309-0.259c-0.446-0.378-0.498-1.047-0.112-1.489
		c0.205-0.232,0.501-0.367,0.815-0.367c0.257,0,0.503,0.092,0.699,0.254l0.199,0.175l0.454,0.348l0.454,0.303l0.423,0.237
		l0.638,0.284l0.928,0.261l0.999,0.11l1.071-0.037l1.145-0.178l1.241-0.302l0.657-0.196l0.262-0.085l0.574-0.216l0.549-0.239
		l0.52-0.269l0.489-0.289l0.439-0.299l0.618-0.487l0.76-0.746l0.664-0.833l0.561-0.905l0.466-0.973l0.364-1.028l0.271-1.076
		l0.175-1.112l0.08-1.139l-0.01-1.153l-0.097-1.158l-0.185-1.151l-0.263-1.136l-0.346-1.107l-0.418-1.069l-0.491-1.019l-0.556-0.964
		l-0.616-0.887l-0.673-0.815l-0.725-0.728l-0.771-0.631l-0.813-0.531l-0.856-0.429l-0.899-0.314l-0.942-0.195l-0.994-0.07
		l-1.048,0.072l-1.104,0.227l-1.198,0.416l-0.676,0.31l-0.216,0.106l-0.624,0.379l-0.608,0.449l-0.562,0.507l-0.491,0.543
		l-0.407,0.566l-0.312,0.573l-0.222,0.651l-0.08,0.47c-0.08,0.511-0.535,0.896-1.059,0.896c-0.055,0-0.111-0.005-0.166-0.015
		c-0.586-0.087-0.988-0.629-0.896-1.203l0.063-0.402l0.271-0.929l0.434-0.909l0.554-0.829l0.646-0.755l0.718-0.672l0.765-0.587
		l0.8-0.5l0.429-0.229l-0.03-0.297l-0.244-1.874l-0.279-1.795l-0.322-1.766l-0.365-1.729l-0.411-1.699l-0.457-1.666l-0.509-1.621
		l-0.554-1.589l-0.609-1.548l-0.66-1.503l-0.713-1.459l-0.769-1.413l-0.827-1.368l-0.885-1.317l-0.943-1.269l-0.047-0.055
		c0.818-0.068,1.648-0.146,2.478-0.254l0.23,0.309l0.944,1.402l0.883,1.452l0.818,1.496l0.758,1.543l0.696,1.581l0.64,1.623
		l0.583,1.66l0.532,1.696l0.479,1.732l0.427,1.762l0.381,1.793l0.333,1.819l0.289,1.848l0.224,1.698l1.336-0.308l1.329-0.122
		l1.289,0.053l1.243,0.225l1.183,0.383l1.119,0.521l1.046,0.652l0.972,0.77l0.894,0.872l0.813,0.959l0.734,1.037l0.651,1.107
		l0.569,1.163l0.485,1.212l0.397,1.252l0.306,1.277l0.217,1.297l0.118,1.308l0.021,1.312l-0.081,1.3l-0.19,1.28l-0.302,1.256
		l-0.416,1.219l-0.538,1.169l-0.665,1.108l-0.794,1.032l-0.927,0.95l-0.798,0.654l-0.58,0.404l-0.599,0.362l-0.635,0.336
		l-0.665,0.297l-0.702,0.27l-0.376,0.124l-0.686,0.204l-1.321,0.33l-1.312,0.213l-1.295,0.071l-1.289-0.103l-0.047-0.016l-0.51-0.12
		l-0.347,3.72l-0.437,4.041l-0.485,4.005l-0.515,3.958l-0.533,3.896l-1.586,11.15l-0.475,3.493l-0.434,3.35l-0.283,2.412
		l-0.168,1.558l-0.147,1.514l-0.126,1.469l-0.187,2.499l1.048-0.891l1.359-1.062l0.903-0.639l0.879-0.553l0.857-0.459l0.839-0.344
		l0.646-0.179l0.455-0.065l0.254-0.012c0.068,0,0.116,0.002,0.16,0.008l0.068,0.01l0.554,0.18l0.506,0.307l0.404,0.334l0.404,0.382
		l0.405,0.423l0.611,0.688l0.809,0.964l0.754,0.943l0.774,0.981l0.231,0.287l0.172,0.201l0.144,0.15l0.268,0.264l1.272,1.216
		l0.852,0.837l0.859,0.895l0.804,0.922l0.532,0.707l0.312,0.484l0.254,0.477l0.195,0.495l0.081,0.3
		c0.05,0.192,0.039,0.4-0.032,0.598l-0.628,0.664l-0.566,0.232l-0.725,0.202l-0.68,0.177l-0.862,0.312l0.929,0.64l1.022,0.786
		l0.985,0.827l0.943,0.865l0.912,0.896l1.305,1.385l1.655,1.923l1.586,1.977l1.532,1.983l1.508,1.96l1.343,1.707l1.228,1.579
		l1.271,1.66l1.299,1.735l1.323,1.807l1.335,1.87l1.344,1.929l1.333,1.986l1.325,2.039l1.302,2.082l1.272,2.124l1.232,2.162
		l1.183,2.19l1.127,2.218l1.061,2.24l0.986,2.255l0.901,2.274l0.81,2.277l0.708,2.282l0.597,2.281l0.476,2.273l0.349,2.266
		l0.208,2.25l0.06,2.232l-0.102,2.208l-0.269,2.176l-0.449,2.144l-0.464,1.589l-0.372,1.052l-0.42,1.026l-0.471,1.011l-0.525,0.996
		l-0.574,0.982l-0.633,0.965l-0.686,0.946l-0.744,0.928l-0.799,0.912l-0.429,0.454l-0.427,0.431l-0.876,0.822l-0.927,0.798
		l-0.972,0.755l-1.01,0.714l-1.046,0.677l-1.083,0.633l-1.117,0.588l-1.147,0.547l-1.176,0.5l-1.207,0.458l-1.231,0.408
		l-1.255,0.364l-1.278,0.314l-1.298,0.267l-1.317,0.215l-1.331,0.165l-1.348,0.113l-1.362,0.06l-1.369,0.007l-1.38-0.05
		l-1.386-0.103l-1.391-0.162l-1.395-0.217l-1.397-0.277l-1.395-0.338l-1.39-0.397l-1.39-0.458l-1.381-0.523l-1.371-0.583
		l-1.359-0.651l-1.349-0.716l-0.687-0.393l-0.355,0.652l-0.311,0.643l-0.677,1.517l-0.408,0.829l-0.485,0.859l-0.59,0.861
		l-0.719,0.847l-0.874,0.809l-0.527,0.403c-0.182,0.134-0.402,0.208-0.642,0.208l-0.135,0.001l-0.313,0.201l-1.192,0.713
		l-1.22,0.662l-1.232,0.611l-1.859,0.816l-2.499,0.926l-2.508,0.751l-2.488,0.598l-2.434,0.453l-2.369,0.325l-2.276,0.215
		l-2.161,0.12l-2.014,0.044L2052.213,601.684z M2096.739,536.701l-0.337,2.214l-0.341,2.354l-0.328,2.474l-0.305,2.576l-0.266,2.654
		l-0.218,2.711l-0.158,2.744l-0.083,2.763l0.002,2.753l0.102,2.727l0.21,2.672l0.334,2.602l0.334,1.881l0.214,0.975l1.235-0.028
		l2.118-0.145l1.512-0.177l0.97-0.15l0.943-0.178l0.913-0.212l0.882-0.241l0.847-0.272l0.811-0.306l0.773-0.344l0.731-0.375
		l0.696-0.413l0.657-0.453l0.613-0.487l0.575-0.53l0.534-0.57l0.494-0.615l0.453-0.666l0.412-0.713l0.37-0.765l0.326-0.824
		l0.279-0.88l0.311-1.249l-0.561-0.016c-0.479-0.016-0.884-0.334-1.002-0.785l-0.117-0.453l-0.271-0.964l-0.312-1.013l-0.348-1.054
		l-0.388-1.084l-0.419-1.11l-0.693-1.712l-1.042-2.354l-1.168-2.395l-1.281-2.397l-1.388-2.367l-1.485-2.304l-1.579-2.207
		l-1.241-1.574l-0.848-0.995l-0.858-0.944l-1.085-1.111L2096.739,536.701z M2067.005,505.156l-0.445,0.297l-0.404,0.347
		l-0.421,0.508l-0.319,0.515l-0.205,0.403l-0.209,0.46l-0.214,0.53l-0.224,0.603l-0.232,0.688l-0.246,0.767l-0.26,0.859
		l-0.275,0.952l-0.788,2.833l-0.204,0.712l-0.368,1.238l-0.315,1.01l-0.328,0.994l-0.212,0.604l-0.382,1.043l-0.095,0.376
		l-0.04,0.476l-0.011,0.417l-0.001,0.371l0.871,0.186l0.515-1.125l0.66-1.617l0.62-1.67l0.578-1.69l0.543-1.676l0.989-3.188
		l0.456-1.447l0.437-1.31l0.316-0.871l0.211-0.53l0.216-0.494l0.228-0.449l0.256-0.418l0.146-0.187l-0.552-0.611l2.071,0.185
		l0.258,0.157l0.138,0.119l0.156,0.146l0.39,0.407l0.36,0.392l0.554,0.625l0.63,0.729l1.406,1.646l2.853,3.367l0.605,0.705
		l0.601,0.683l0.167,0.598l0.147-0.011l0.142-0.053l-0.004-0.029l0.02,0.021l0.327-0.139l0.084-0.042l0.353-0.202l0.38-0.25
		l0.63-0.456l0.935-0.753l0.997-0.867l1.031-0.945l1.037-0.989l1.02-1.003l0.97-0.979l0.903-0.924l2.155-2.24l0.2-0.203l0.234-0.225
		l0.341-0.293l0.688-0.55l0.718-0.516l0.77-0.497l1.197-0.675l1.597-0.726l0.729-0.261l0.782-0.227l-0.318-0.531l-0.135-0.185
		l-0.734-0.85l-0.819-0.856l-0.84-0.819l-1.309-1.255l-0.416-0.416l-0.132-0.144l-0.435-0.534l-0.765-0.964l-0.721-0.904
		l-0.76-0.912l-0.61-0.683l0.34,0.018l-0.975-0.958l-0.205-0.002l-0.006-0.011l-0.354,0.057l-0.167,0.035l-0.659,0.251l-0.738,0.383
		l-0.793,0.495l-0.823,0.576l-1.286,1.001l-1.739,1.482l-0.817,0.741l-0.004,0.572c-0.003,0.576-0.486,1.05-1.073,1.05
		c-0.093,0-0.186-0.018-0.296-0.051l-0.251-0.071l-1.022,0.96l-0.61,0.563l-0.529,0.474l-0.698,0.585l-0.897,0.716l-0.837,0.641
		l-0.784,0.573l-0.733,0.507l-0.681,0.449l-0.637,0.396l-0.589,0.353l-0.542,0.308l-0.504,0.276l-1.782,0.945l0.017,0.001
		L2067.005,505.156z M2067.677,507.722l0.031,0.023l0.578-0.69l-0.088-0.078l-0.131-0.05L2067.677,507.722z M2095.42,501.691
		l-0.002,0.028l0.857,0.233l0.095-0.174l-0.062-0.201L2095.42,501.691z"/>
	<polygon fill="#1D1B3A" stroke="#1D1B3A" stroke-width="0.7897" stroke-miterlimit="10" points="2096.468,531.93 2096.466,531.92 
		2096.453,531.897 	"/>
	<polygon fill="#1D1B3A" stroke="#1D1B3A" stroke-width="0.7897" stroke-miterlimit="10" points="2096.468,531.93 2096.466,531.92 
		2096.453,531.897 	"/>
	<path fill="#1D1B3A" stroke="#1D1B3A" stroke-width="0.7897" stroke-miterlimit="10" d="M2083.885,434.712
		c-0.284-0.033-0.539-0.172-0.718-0.392c-0.18-0.22-0.26-0.499-0.226-0.778l0.104-0.887l0.172-1.288l0.145-0.833l0.183-0.811
		l0.228-0.782l0.293-0.745l0.376-0.702l0.478-0.637l0.553-0.518l0.681-0.435l0.767-0.297l0.872-0.172l0.874-0.028l0.7,0.055
		l0.505,0.077l0.536,0.107l0.544,0.137l0.258,0.07c0.568,0.16,0.899,0.745,0.738,1.307c-0.13,0.451-0.556,0.768-1.031,0.768
		c-0.1,0-0.199-0.014-0.297-0.043l-0.269-0.075l-0.487-0.118l-0.439-0.086l-0.403-0.058l-0.558-0.035l-0.678,0.044l-0.501,0.137
		l-0.383,0.201l-0.294,0.248l-0.217,0.265l-0.223,0.352l-0.207,0.437l-0.188,0.521l-0.167,0.605l-0.145,0.675l-0.125,0.735
		l-0.164,1.207l-0.097,0.842c-0.062,0.532-0.518,0.936-1.062,0.936C2084.011,434.718,2083.928,434.715,2083.885,434.712z"/>
	<path fill="#1D1B3A" stroke="#1D1B3A" stroke-width="0.7897" stroke-miterlimit="10" d="M2056.688,527.702
		c-0.59,0-1.069-0.47-1.071-1.052l-0.005-1.381l-0.05-2.491l-0.302-0.394l-0.564-0.669l-0.906-0.963l-1.287-1.258l-1.322-1.282
		l-0.664-0.683l-0.883-0.917l-1.334-1.394l-0.869-1.002l-0.951-1.2l-0.101,2.639l-0.098,1.541l-0.108,1.109l-0.095,0.706
		l-0.114,0.661l-0.136,0.617l-0.166,0.57l-0.207,0.522l-0.261,0.48l-0.313,0.394l-0.479,0.37l-0.666,0.229l-0.524,0.017
		c-0.089-0.011-0.211-0.044-0.33-0.099l-0.521-0.459l-0.22-0.404l-0.126-0.353l-0.034-0.113l1.188-0.444l0.137-0.144l0.103-0.153
		l-0.636-0.615l-0.174,0.112l-0.66,1.105l-0.044-0.15l-0.12-0.456l-0.13-0.519l-0.126-0.567l-0.197-0.944l-0.274-1.403l-0.273-1.527
		l-0.271-1.606l-0.262-1.636l-0.245-1.616l-0.219-1.55l-0.187-1.438l-0.116-0.977l-0.065-0.595l-0.092-1.02l-0.025-0.414
		l-0.012-0.356l0.005-0.297l0.032-0.291l0.094-0.312c0.021-0.045,0.069-0.131,0.126-0.208l0.295-0.295l0.443-0.299l0.604-0.297
		l0.67-0.281l0.688-0.266l1.195-0.444l0.297-0.113l0.12-0.051v-0.002c0.147-0.073,0.308-0.109,0.474-0.109
		c0.41,0,0.781,0.221,0.963,0.582c0.127,0.256,0.148,0.543,0.057,0.809c-0.092,0.269-0.281,0.483-0.54,0.611l-0.116,0.055
		l-0.182,0.076l-0.322,0.124l-1.157,0.429l-0.686,0.264l-0.033-0.104l-0.874,0.161l-0.002,0.054l0.473,0.068l-0.476,0.216
		l0.03,0.513l0.037,0.454l0.05,0.516l0.062,0.571l0.113,0.956l0.186,1.416l0.218,1.532l0.239,1.6l0.258,1.613l0.268,1.583
		l0.27,1.503l0.071,0.361l0.899-0.04l0.01-0.106l0.095-1.496l0.062-1.55l0.072-2.991l0.032-0.996l0.028-0.613l0.035-0.564
		l0.016-0.165l0.088,0.125l0.782-0.453l-0.021-0.045l-0.058-0.085l-0.066-0.085l-0.724,0.537l0.033-0.35l0.072-0.477l0.112-0.424
		l0.277-0.503l0.955-0.457l0.818,0.279l0.307,0.319l0.23,0.368l0.196,0.411l0.092,0.222l0.169,0.479l0.16,0.692l0.106,0.815
		l0.073,0.692l0.066,0.402l0.122,0.441l0.233,0.469l0.218,0.325l0.328,0.421l0.805,0.928l1.338,1.403l1.49,1.541l2.658,2.589
		l-0.136-1.336l-0.185-1.253l-0.238-1.253l-0.287-1.239l-0.348-1.229l-0.41-1.217l-0.482-1.213l-0.561-1.206l-0.64-1.205
		l-0.738-1.221l-0.43-0.64c-0.322-0.487-0.187-1.141,0.31-1.462c0.176-0.111,0.378-0.173,0.587-0.173c0.364,0,0.7,0.178,0.9,0.477
		l0.417,0.626l0.784,1.286l0.699,1.305l0.612,1.312l0.528,1.317l0.451,1.32l0.382,1.332l0.315,1.336l0.254,1.343l0.203,1.349
		l0.215,2.032l0.16,2.745l0.058,2.797l0.006,1.425c0.001,0.283-0.11,0.547-0.313,0.747c-0.202,0.199-0.47,0.312-0.759,0.312
		H2056.688z"/>
	<path fill="#1D1B3A" stroke="#1D1B3A" stroke-width="0.7897" stroke-miterlimit="10" d="M2025.99,626.931
		c-0.587,0-1.067-0.471-1.069-1.051l-0.021-3.578l-0.142-7.18l-0.368-10.79l-0.278-7.196c-0.011-0.283,0.091-0.553,0.287-0.761
		c0.194-0.206,0.458-0.325,0.745-0.337h0.002c0.619,0,1.091,0.449,1.113,1.015l0.277,7.197l0.369,10.796l0.141,7.209l0.021,3.613
		c0.001,0.283-0.109,0.551-0.312,0.749c-0.201,0.202-0.47,0.312-0.757,0.313H2025.99z"/>
	<path fill="#1D1B3A" stroke="#1D1B3A" stroke-width="0.7897" stroke-miterlimit="10" d="M2086.146,627.742
		c-0.241,0-0.468-0.076-0.659-0.222c-0.466-0.359-0.552-1.026-0.188-1.483l0.328-0.412l0.657-0.898l0.609-0.93l0.563-0.959
		l0.519-0.984l0.473-1.012l0.437-1.036l0.392-1.045l0.52-1.616l0.584-2.237l0.467-2.302l0.367-2.353l0.282-2.389l0.219-2.407
		l0.245-3.637l0.205-3.611l0.146-2.376l0.175-2.335l0.224-2.268l0.132-1.084c0.064-0.531,0.522-0.93,1.064-0.93
		c0.044,0,0.087,0.002,0.13,0.008c0.286,0.033,0.54,0.173,0.716,0.395c0.178,0.223,0.256,0.498,0.223,0.777l-0.134,1.096
		l-0.217,2.219l-0.172,2.283l-0.141,2.342l-0.206,3.597l-0.246,3.655l-0.222,2.449l-0.286,2.443l-0.376,2.424l-0.483,2.393
		l-0.608,2.348l-0.553,1.731l-0.422,1.138l-0.464,1.112l-0.509,1.091l-0.558,1.07l-0.611,1.044l-0.664,1.019l-0.719,0.991
		l-0.391,0.493C2086.789,627.593,2086.479,627.742,2086.146,627.742L2086.146,627.742z"/>
	<path fill="#1D1B3A" stroke="#1D1B3A" stroke-width="0.7897" stroke-miterlimit="10" d="M1987.213,597.666l-0.587-0.102
		l-0.614-0.17l-0.646-0.229l-0.677-0.285l-0.71-0.344l-1.095-0.606l-1.474-0.943l-1.454-1.089l-1.374-1.191l-0.943-0.944
		l-0.583-0.658l-0.538-0.679l-0.479-0.695l-0.413-0.709l-0.336-0.729l-0.243-0.75l-0.131-0.765l0.004-0.731l0.15-0.757l0.312-0.721
		l0.245-0.353l-0.268-0.264l-0.843-0.92l-0.718-0.903l-0.618-0.91l-0.503-0.928l-0.37-0.947l-0.196-0.921l-0.013-0.967l0.196-0.9
		l0.297-0.65l0.24-0.36l0.092-0.118c0.055-0.072,0.13-0.14,0.228-0.21l0.347-0.245l-0.587-0.914l-0.493-1.043l-0.301-1.043
		l-0.117-1.103l0.107-1.105l0.341-1.075l0.565-1.038l0.47-0.607l-0.382-0.544l-0.656-1.206l-0.47-1.253l-0.257-1.289l-0.021-1.277
		l0.145-0.932l0.179-0.637l0.246-0.642l0.315-0.629l0.381-0.617l0.448-0.609l0.516-0.595l0.581-0.585l0.652-0.576l0.706-0.555
		l0.353-0.253c0.183-0.133,0.398-0.201,0.626-0.201c0.168,0,0.337,0.038,0.488,0.115l0.459,0.227l0.174-0.478
		c0.072-0.196,0.198-0.366,0.37-0.491c0.187-0.139,0.408-0.21,0.641-0.21c0.344,0,0.656,0.153,0.86,0.425l0.19,0.259l0.305,0.483
		l0.405,0.77l0.508,1.123l0.967,2.354l0.475,1.063l0.351,0.679l0.209,0.344l0.16,0.239l0.189,0.225l0.138,0.104l0.388,0.253
		l1.041,0.605l1.216,0.641l2.763,1.391l1.471,0.769l1.484,0.824l1.455,0.895l1.397,0.968l1.282,1.048l0.861,0.844l0.53,0.605
		l0.488,0.641l0.427,0.673l0.366,0.71l0.297,0.742l0.215,0.773l0.13,0.803l0.04,0.825l-0.056,0.849l-0.151,0.865l-0.238,0.851
		l-0.132,0.376c-0.017,0.045-0.033,0.082-0.053,0.121l-0.205,0.307l-0.374,0.324l-0.361,0.178l-0.682,0.187l0.124,0.507l0.122,0.446
		l0.209,0.733l0.229,0.819l0.216,0.868l0.162,0.863l0.062,0.622l-0.001,0.432l-0.067,0.462l-0.135,0.405l-0.025,0.038
		c-0.026,0.056-0.058,0.106-0.092,0.156l-0.229,0.254l-0.358,0.243l-0.363,0.142l-0.342,0.064l-0.485,0.032l-0.675-0.035
		l-1.516-0.207l0.509,0.811c0.075,0.116,0.124,0.243,0.147,0.376l0.048,0.314l0.055,0.544l-0.002,0.512l-0.053,0.495l-0.115,0.468
		l-0.176,0.432l-0.238,0.4l-0.293,0.348l-0.335,0.292l-0.373,0.23l-0.628,0.257l-0.864,0.181l-0.862,0.023l-0.913-0.084
		l-0.968-0.184l-1.014-0.273l-1.058-0.357l-1.09-0.435l-1.117-0.505l-1.13-0.569l-1.137-0.626l-1.133-0.682l-1.118-0.725
		l-1.089-0.764l-1.055-0.799l-1.277-1.051l0.184,1.392l0.1,0.398l0.17,0.458l0.248,0.501l0.322,0.535l0.393,0.554l0.454,0.564
		l0.511,0.57l0.861,0.854l1.266,1.089l1.334,0.987l1.347,0.857l0.968,0.53l0.608,0.286l0.576,0.241l0.528,0.18l0.925,0.232
		l0.009-0.117l0.016,0.059l0.359-0.023l1.015-0.885l-1.19-0.041c0.166-0.254,0.438-0.435,0.755-0.479
		c0.052-0.007,0.104-0.01,0.151-0.01c0.53,0,0.987,0.391,1.061,0.91l0.044,0.425l-0.079,0.731l-0.32,0.668l-0.527,0.477l-0.58,0.243
		l-0.576,0.082L1987.213,597.666z M1974.356,577.124l-0.126,0.362l-0.037,0.47l0.067,0.433l0.157,0.541l0.273,0.625l0.395,0.69
		l0.513,0.733l0.618,0.764l0.718,0.779l0.805,0.786l0.877,0.779l0.938,0.767l0.989,0.747l1.027,0.72l1.053,0.679l1.067,0.641
		l1.07,0.588l1.06,0.529l1.038,0.47l1.001,0.395l0.953,0.315l0.889,0.233l0.809,0.143l0.71,0.055l0.646-0.046l0.492-0.151
		l0.326-0.256l0.016-0.15l0.023-0.065l0.017-0.066l0.024-0.152l0.017-0.157l0.009-0.22l-0.014-0.283l-0.042-0.338l-0.032-0.169
		c-0.066-0.403,0.119-0.816,0.472-1.047l0.818-0.53l-1.94-0.561l-1.118-0.361l-1.179-0.416l-1.229-0.472l-1.274-0.524l-1.956-0.879
		l-2.604-1.313l-1.907-1.082l-1.233-0.769l-1.19-0.804l-1.129-0.836l-1.061-0.866l-0.975-0.895l-0.457-0.484L1974.356,577.124z
		 M1996.373,584.948l-0.006-0.035l0.134,0.004l0.093-0.009l0.136-0.026l-0.037-0.884l-0.077-0.009l-0.122,0.013l-0.187,0.04
		l-0.106,0.055l-0.083-0.407l-0.188-0.751l-0.416-1.464l-0.126-0.471l-0.072-0.291l-0.028-0.144
		c-0.027-0.124-0.028-0.256-0.004-0.394l0.078-0.428l-0.891-0.182l-1.086-0.279l-1.179-0.357l-1.264-0.431l-1.331-0.5l-1.381-0.569
		l-1.419-0.629l-1.444-0.69l-1.449-0.748l-1.439-0.8l-1.418-0.852l-1.377-0.898l-1.324-0.943l-1.254-0.989l-1.171-1.028
		l-1.122-1.129l-0.501,1.022l-0.165,0.695l-0.008,0.676l0.115,0.639l0.243,0.702l0.377,0.735l0.511,0.765l0.642,0.784l0.76,0.793
		l0.868,0.79l0.965,0.782l1.047,0.769l1.113,0.75l1.168,0.727l1.836,1.04l2.511,1.26l1.863,0.833l1.21,0.498l1.179,0.449
		l1.128,0.398l1.06,0.341l0.981,0.283l0.885,0.219l0.392,0.074l-0.244,0.134l1.296,0.025L1996.373,584.948z M1977.784,556.221
		c-0.076,0.13-0.176,0.24-0.296,0.326l-0.364,0.266l-0.644,0.506l-0.553,0.497l-0.482,0.49l-0.411,0.488l-0.344,0.479l-0.281,0.477
		l-0.222,0.467l-0.166,0.46l-0.113,0.452l-0.092,0.741l0.06,0.927l0.216,0.869l0.382,0.922l0.538,0.942l0.409,0.569l0.079,0.049
		c0.086,0.052,0.152,0.104,0.206,0.156c0.113,0.113,0.199,0.255,0.251,0.423l0.028,0.089l0.545,0.624l0.954,0.946l1.067,0.936
		l1.163,0.908l1.242,0.883l1.302,0.846l1.349,0.809l1.378,0.763l1.391,0.714l1.383,0.662l1.366,0.604l1.325,0.542l1.271,0.479
		l1.199,0.408l1.11,0.333l1.003,0.255l0.874,0.177l0.544,0.073l0.643,0.047l0.037-0.143l0.022,0.113l0.151-0.021l1.435-0.397
		l-1.407-0.503l0.08-0.525l0.026-0.621l-0.044-0.592l-0.108-0.566l-0.168-0.548l-0.226-0.529l-0.282-0.52l-0.336-0.51l-0.389-0.498
		l-0.438-0.489l-0.756-0.727l-1.142-0.921l-1.257-0.863l-1.35-0.821l-1.4-0.778l-1.415-0.735l-2.726-1.375l-1.24-0.652l-1.112-0.639
		l-0.52-0.334l-0.21-0.157l-0.409-0.394l-0.364-0.471l-0.325-0.507l-0.432-0.819l-0.539-1.195l-1.006-2.439l-0.484-1.071l-0.57-1.06
		L1977.784,556.221z"/>
	<path fill="#1D1B3A" stroke="#1D1B3A" stroke-width="0.7897" stroke-miterlimit="10" d="M2087.972,626.269
		c-10.29,22.986-13.009,52.371-13.674,77.212c-0.945,35.164,3.136,70.106,11.719,104.235c0.687,2.611-8.453,1.779-8.453,1.61
		c0-0.363,0.013-3.351,0-3.687c-7.442,0.495-36.679,18.205-47.227,7.206c-1.449-1.514,12.667,0.091,33.826-16.098
		c0.516-0.397,11.52,1.686-8.997-70.88c-5.844-20.677,7.115-63.212-1.644-74.565c-4.146-5.373-12.803,10.803-14.75,4.271
		l-4.8-27.912c4.447,1.172,8.996,1.842,13.566,2.313C2061.026,630.79,2074.992,630.389,2087.972,626.269z"/>
	<path fill="#1D1B3A" stroke="#1D1B3A" stroke-width="0.7897" stroke-miterlimit="10" d="M2041.561,790.61
		c-0.081-0.028-0.175,0.021-0.262,0.031c-1.103,0.396-0.471,0.157-1.888,0.748c1.042,0.621,1.724,1.803,2.78,2.413
		C2042.275,793.035,2042.53,790.964,2041.561,790.61L2041.561,790.61z M2024.425,626.701c2.165,0.544,4.346,1.015,6.517,1.523
		c1.048,0.168,2.251,0.344,3.183-0.318c4.762,1.16,9.58,2.183,14.485,2.528c5.685,0.329,3.675,0.334,6.019,0.314
		c-10.104,27.099-15.008,56.025-16.395,84.787c-0.951,28.788,7.045,55.394,12.797,77.857c-2.348,1.248-6.331-0.541-8.839,0.41
		c-1.081-0.487-2.097-1.506-2.955-2.341c-10.78,4.47-28.959,15.681-39.647,5.745c-1.454-1.515,39.833,0.21,33.632-29.343
		c-4.302-20.504-13.494-42.769-13.767-49.771c-1.447-38.422,7.49-63.45,6.869-70.939
		C2025.666,639.39,2025.257,635.401,2024.425,626.701z"/>
	<g>
		<g>
			<path fill="#1D1B3A" d="M2032.297,529.686c-1.725-6.814,3.899-12.854,8.712-16.887c1.65-1.384-0.723-3.73-2.359-2.359
				c-5.825,4.882-11.611,12.063-9.569,20.133C2029.607,532.658,2032.825,531.773,2032.297,529.686L2032.297,529.686z"/>
		</g>
	</g>
</g>
</svg>
