<?xml version="1.0" encoding="utf-8"?>
<!-- Generator: Adobe Illustrator 16.0.4, SVG Export Plug-In . SVG Version: 6.00 Build 0)  -->
<!DOCTYPE svg PUBLIC "-//W3C//DTD SVG 1.1//EN" "http://www.w3.org/Graphics/SVG/1.1/DTD/svg11.dtd">
<svg version="1.1" id="delf2" xmlns="http://www.w3.org/2000/svg" xmlns:xlink="http://www.w3.org/1999/xlink" x="0px" y="0px"
	 width="2554.794px" height="1427.054px" viewBox="0 0 2554.794 1427.054" enable-background="new 0 0 2554.794 1427.054"
	 xml:space="preserve">
<g>
	<path fill="#DADEE5" d="M302.167,553.115c0,0,13.331-36.098,48.003-37.336c37.335-1.334,36.787,24.43,36.787,24.43
		s11.754,7.232,7.234,10.85c-5.36,4.287-14.467-6.328-14.467-6.328s-4.886,6.383-32.221,0.383c-21.091-4.629-38.669,10-38.669,10
		s2.667,12.668,2.667,17.336c0,4.666-2.001,8.666-2.001,8.666l-9.333-16l-19.334,6.668
		C280.833,571.783,278.833,560.449,302.167,553.115z"/>
	<g>
		<path fill="#DADEE5" d="M360.17,521.779c-6.667-8.666-20.668-8-30.002-10.668c2,4.668,6.667,11.334,10,16.002"/>
	</g>
	<g>
		<path fill="#DADEE5" d="M362.17,544.447c-4,3.334-8,8.002-12,11.336c0,0,0,0-0.667,0c-2-5.336,0-10.668,4-14.67"/>
	</g>
</g>
</svg>
