<?xml version="1.0" encoding="utf-8"?>
<!-- Generator: Adobe Illustrator 16.0.4, SVG Export Plug-In . SVG Version: 6.00 Build 0)  -->
<!DOCTYPE svg PUBLIC "-//W3C//DTD SVG 1.1//EN" "http://www.w3.org/Graphics/SVG/1.1/DTD/svg11.dtd">
<svg version="1.1" id="del1" xmlns="http://www.w3.org/2000/svg" xmlns:xlink="http://www.w3.org/1999/xlink" x="0px" y="0px"
	 width="2554.794px" height="1427.054px" viewBox="0 0 2554.794 1427.054" enable-background="new 0 0 2554.794 1427.054"
	 xml:space="preserve">
<g>
	<path fill="#CDCDD4" d="M157.607,642.72c0,0,16.592-44.93,59.748-46.471c46.47-1.66,45.789,30.406,45.789,30.406
		s14.63,9.004,9.003,13.506c-6.671,5.336-18.006-7.877-18.006-7.877s-6.082,7.945-40.105,0.475
		c-26.252-5.76-48.13,12.449-48.13,12.449s3.319,15.768,3.319,21.576c0,5.807-2.49,10.787-2.49,10.787l-11.617-19.916l-24.065,8.299
		C131.052,665.955,128.562,651.847,157.607,642.72z"/>
	<g>
		<path fill="#CDCDD4" d="M229.802,603.718c-8.298-10.789-25.725-9.959-37.342-13.279c2.49,5.811,8.298,14.107,12.447,19.918"/>
	</g>
	<g>
		<path fill="#CDCDD4" d="M232.292,631.931c-4.979,4.148-9.958,9.959-14.937,14.109c0,0,0,0-0.83,0
			c-2.489-6.641,0-13.277,4.979-18.258"/>
	</g>
</g>
</svg>
