<?xml version="1.0" encoding="utf-8"?>
<!-- Generator: Adobe Illustrator 16.0.4, SVG Export Plug-In . SVG Version: 6.00 Build 0)  -->
<!DOCTYPE svg PUBLIC "-//W3C//DTD SVG 1.1//EN" "http://www.w3.org/Graphics/SVG/1.1/DTD/svg11.dtd">
<svg version="1.1" id="delf3" xmlns="http://www.w3.org/2000/svg" xmlns:xlink="http://www.w3.org/1999/xlink" x="0px" y="0px"
	 width="2554.794px" height="1427.054px" viewBox="0 0 2554.794 1427.054" enable-background="new 0 0 2554.794 1427.054"
	 xml:space="preserve">
<g>
	<path fill="#E6E9ED" d="M460.076,507c0,0,7.75-20.672,27.907-21.382c21.706-0.763,21.387,13.991,21.387,13.991
		s6.834,4.142,4.206,6.213c-3.116,2.455-8.41-3.623-8.41-3.623s-2.841,3.656-18.733,0.22c-12.262-2.652-22.481,5.727-22.481,5.727
		s1.551,7.256,1.551,9.928c0,2.671-1.164,4.962-1.164,4.962l-5.426-9.162l-11.241,3.818C447.672,517.691,446.51,511.201,460.076,507
		z"/>
	<g>
		<path fill="#E6E9ED" d="M493.797,489.054c-3.876-4.962-12.016-4.581-17.442-6.108c1.163,2.675,3.876,6.49,5.814,9.164"/>
	</g>
	<g>
		<path fill="#E6E9ED" d="M494.96,502.037c-2.326,1.909-4.652,4.581-6.977,6.49c0,0,0,0-0.388,0c-1.163-3.055,0-6.108,2.325-8.399"
			/>
	</g>
</g>
</svg>
