<?xml version="1.0" encoding="utf-8"?>
<!-- Generator: Adobe Illustrator 16.0.4, SVG Export Plug-In . SVG Version: 6.00 Build 0)  -->
<!DOCTYPE svg PUBLIC "-//W3C//DTD SVG 1.1//EN" "http://www.w3.org/Graphics/SVG/1.1/DTD/svg11.dtd">
<svg version="1.1" id="ding1" xmlns="http://www.w3.org/2000/svg" xmlns:xlink="http://www.w3.org/1999/xlink" x="0px" y="0px"
	 width="2554.794px" height="1427.054px" viewBox="0 0 2554.794 1427.054" enable-background="new 0 0 2554.794 1427.054"
	 xml:space="preserve">
<g>
	<polygon fill="#D9D8DE" points="1533.512,423.645 1478.955,294.376 1454.005,354.462 1419.567,304.67 1374.485,368.459 
		1368.839,303.59 1296.877,322.665 1338.375,257.237 1247.023,235.166 1328.293,195.446 1276.578,134.328 1367.327,161.494 
		1369.38,82.121 1424.167,146.426 1476.27,70.721 1504.076,148.853 1567.438,89.508 1571.183,158.673 1648.277,156.149 
		1595.161,208.122 1667.007,244.555 1573.122,260.592 1608.09,326.585 1521.431,296.879 	"/>
	<g>
		<g>
			<path fill="#1D1B3A" d="M1383.087,246.873c1.048-8.688,0.629-17.581,0.413-26.307c-0.103-4.126-0.244-8.251-0.295-12.378
				c-0.015-1.197-0.015-2.396,0.053-3.591c-0.062,1.086,3.811,0.799,4.69,0.89c4.812,0.499,9.232,1.177,12.764,4.771
				c3.814,3.885,5.062,10.181,4.301,15.4c-1.816,12.451-14.549,16.932-25.246,18.685c-3.332,0.547-1.914,5.601,1.395,5.059
				c13.045-2.139,25.953-8.158,28.91-22.349c2.358-11.317-4.523-24.412-16.494-26.004c-3.908-0.519-10.85-2.751-14.194,0.316
				c-2.151,1.974-1.442,5.867-1.399,8.485c0.202,12.271,1.333,24.797-0.143,37.021
				C1377.437,250.226,1382.687,250.187,1383.087,246.873L1383.087,246.873z"/>
		</g>
	</g>
	<g>
		<g>
			<path fill="#1D1B3A" d="M1426.278,202.202c-0.104,14.045-0.207,28.09-0.311,42.135c-0.024,3.384,5.221,3.381,5.246,0
				c0.104-14.045,0.207-28.09,0.31-42.135C1431.548,198.818,1426.303,198.821,1426.278,202.202L1426.278,202.202z"/>
		</g>
	</g>
	<g>
		<g>
			<path fill="#1D1B3A" d="M1551.098,183.792c-1.528,13.769-3.245,27.515-4.775,41.283c-0.373,3.359,4.876,3.323,5.246,0
				c1.529-13.769,3.246-27.515,4.775-41.283C1556.717,180.433,1551.467,180.469,1551.098,183.792L1551.098,183.792z"/>
		</g>
	</g>
	<g>
		<g>
			<path fill="#1D1B3A" d="M1451.448,240.783c0.261-12.951,0.602-25.899,0.861-38.851c-1.629,0.441-3.258,0.883-4.887,1.323
				c8.573,12.545,17.339,24.955,26.297,37.229c1.566,2.146,4.646,1.358,4.888-1.324c1.111-12.342,2.155-24.551,1.651-36.958
				c-0.138-3.37-5.384-3.384-5.246,0c0.505,12.407-0.54,24.616-1.651,36.958c1.63-0.441,3.259-0.883,4.888-1.324
				c-8.958-12.272-17.724-24.683-26.297-37.227c-1.445-2.114-4.833-1.393-4.887,1.323c-0.262,12.951-0.602,25.899-0.862,38.851
				C1446.135,244.167,1451.38,244.161,1451.448,240.783L1451.448,240.783z"/>
		</g>
	</g>
	<g>
		<g>
			<path fill="#1D1B3A" d="M1518.184,199.276c-12.043-3.356-23.599,5.07-27.162,16.446c-3.477,11.098,0.413,26.98,11.329,32.316
				c4.725,2.309,10.655,2.302,15.426,0.163c9.695-4.346,11.742-15.834,11.869-25.372c0.016-1.167-0.812-2.219-1.926-2.529
				c-5.663-1.576-11.921-1.55-17.764-1.566c-3.383-0.009-3.382,5.236,0,5.246c5.379,0.015,11.161-0.071,16.369,1.379
				c-0.642-0.844-1.283-1.687-1.926-2.529c-0.136,10.26-4.145,24.267-17.162,21.403c-10.279-2.261-11.913-13.765-11.755-22.528
				c0.193-10.68,10.455-20.395,21.307-17.37C1520.054,205.244,1521.438,200.183,1518.184,199.276L1518.184,199.276z"/>
		</g>
	</g>
	<g>
		<g>
			<path fill="#1D1B3A" d="M1544.13,237.666c0,0.536,0,1.073,0,1.609c0,1.43,1.193,2.623,2.623,2.623s2.623-1.193,2.623-2.623
				c0-0.536,0-1.073,0-1.609c0-1.43-1.193-2.623-2.623-2.623S1544.13,236.236,1544.13,237.666L1544.13,237.666z"/>
		</g>
	</g>
</g>
</svg>
