<?xml version="1.0" encoding="utf-8"?>
<!-- Generator: Adobe Illustrator 16.0.4, SVG Export Plug-In . SVG Version: 6.00 Build 0)  -->
<!DOCTYPE svg PUBLIC "-//W3C//DTD SVG 1.1//EN" "http://www.w3.org/Graphics/SVG/1.1/DTD/svg11.dtd">
<svg version="1.1" id="ding2" xmlns="http://www.w3.org/2000/svg" xmlns:xlink="http://www.w3.org/1999/xlink" x="0px" y="0px"
	 width="2554.794px" height="1427.054px" viewBox="0 0 2554.794 1427.054" enable-background="new 0 0 2554.794 1427.054"
	 xml:space="preserve">
<g>
	<polygon fill="#D9D8DE" points="1952.509,427.74 1933.112,337.803 1959.337,374.321 1974.695,335.404 2015.049,371.254 
		2008.663,326.714 2060.087,328.25 2021.888,290.738 2079.897,261.538 2018.972,247.57 2044.177,198.323 1987.371,230.849 
		1973.529,177.759 1946.755,229.635 1899.805,186.867 1893.359,243.815 1841.401,213.825 1849.741,260.961 1797.463,271.364 
		1841.368,297.999 1798.74,333.8 1864.439,329.851 1851.267,379.754 1904.921,346.156 	"/>
	<g>
		<g>
			<path fill="#1D1B3A" d="M1890.412,317.542c-0.937-5.553-2.733-10.961-4.424-16.32c-0.769-2.437-1.559-4.866-2.327-7.303
				c-0.472-1.495-1.688-3.691-0.516-4.177c7.695-3.18,15.471-0.152,17.952,7.995c2.781,9.132-5.763,15.561-12.794,18.947
				c-1.666,0.804-0.21,3.277,1.449,2.479c7.992-3.851,14.67-9.625,14.58-19.174c-0.073-7.854-7.333-15.383-15.321-14.21
				c-2.64,0.388-6.649,0.274-8.669,2.294c-1.396,1.396-0.429,3.38,0.048,4.979c2.491,8.365,5.798,16.616,7.254,25.253
				C1887.952,320.126,1890.717,319.351,1890.412,317.542L1890.412,317.542z"/>
		</g>
	</g>
	<g>
		<g>
			<path fill="#1D1B3A" d="M1912.041,281.063c2.107,9.335,4.214,18.671,6.318,28.008c0.407,1.805,3.174,1.039,2.768-0.764
				c-2.104-9.336-4.212-18.672-6.318-28.008C1914.401,278.495,1911.635,279.26,1912.041,281.063L1912.041,281.063z"/>
		</g>
	</g>
	<g>
		<g>
			<path fill="#1D1B3A" d="M1991.968,249.143c1.114,9.373,2.107,18.761,3.222,28.134c0.216,1.814,3.088,1.835,2.869,0
				c-1.114-9.373-2.107-18.761-3.222-28.134C1994.622,247.329,1991.749,247.308,1991.968,249.143L1991.968,249.143z"/>
		</g>
	</g>
	<g>
		<g>
			<path fill="#1D1B3A" d="M1934.004,302.816c-1.83-8.633-3.612-17.276-5.441-25.91c-0.8,0.466-1.599,0.931-2.398,1.396
				c7.634,6.993,15.37,13.87,23.213,20.629c1.156,0.997,2.596,0.015,2.398-1.396c-1.171-8.364-2.388-16.618-4.626-24.779
				c-0.489-1.782-3.258-1.024-2.768,0.764c2.238,8.161,3.455,16.414,4.626,24.779c0.8-0.466,1.599-0.931,2.398-1.396
				c-7.843-6.759-15.579-13.636-23.213-20.629c-1.084-0.993-2.697-0.015-2.398,1.396c1.829,8.633,3.611,17.276,5.441,25.91
				C1931.62,305.389,1934.387,304.622,1934.004,302.816L1934.004,302.816z"/>
		</g>
	</g>
	<g>
		<g>
			<path fill="#1D1B3A" d="M1972.147,265.27c-18.73-0.395-19.34,28.775-3.551,33.949c3.544,1.161,7.763,0.101,10.689-2.034
				c5.758-4.199,5.135-12.245,3.827-18.388c-0.135-0.631-0.772-1.036-1.384-1.053c-3.984-0.11-8.068,0.83-11.933,1.718
				c-1.803,0.414-1.038,3.182,0.764,2.768c3.632-0.834,7.428-1.72,11.169-1.616c-0.461-0.351-0.922-0.702-1.384-1.053
				c1.514,7.109,0.98,16.649-8.13,17.225c-14.918,0.943-17.058-29.004-0.068-28.646
				C1973.999,268.178,1973.995,265.308,1972.147,265.27L1972.147,265.27z"/>
		</g>
	</g>
	<g>
		<g>
			<path fill="#1D1B3A" d="M1995.734,286.353c0.084,0.355,0.167,0.713,0.25,1.069c0.178,0.761,1.034,1.203,1.766,1.002
				c0.775-0.214,1.18-1.004,1.002-1.766c-0.083-0.356-0.166-0.713-0.25-1.069c-0.18-0.761-1.032-1.203-1.766-1.002
				C1995.962,284.8,1995.555,285.592,1995.734,286.353L1995.734,286.353z"/>
		</g>
	</g>
</g>
</svg>
