<?xml version="1.0" encoding="utf-8"?>
<!-- Generator: Adobe Illustrator 16.0.4, SVG Export Plug-In . SVG Version: 6.00 Build 0)  -->
<!DOCTYPE svg PUBLIC "-//W3C//DTD SVG 1.1//EN" "http://www.w3.org/Graphics/SVG/1.1/DTD/svg11.dtd">
<svg version="1.1" id="Layer_1" xmlns="http://www.w3.org/2000/svg" xmlns:xlink="http://www.w3.org/1999/xlink" x="0px" y="0px"
	 width="1103.431px" height="517.497px" viewBox="0 0 1103.431 517.497" enable-background="new 0 0 1103.431 517.497"
	 xml:space="preserve">
<pattern  x="275.297" y="-160.818" width="86.081" height="74.172" patternUnits="userSpaceOnUse" id="Unnamed_Pattern_9" viewBox="0 -74.172 86.081 74.172" overflow="visible">
	<g>
		<polygon fill="none" points="0,-74.172 86.082,-74.172 86.082,0 0,0 		"/>
		<path fill="#2EBDEF" d="M27.879-4.633c0-0.561-0.455-1.018-1.017-1.018s-1.019,0.457-1.019,1.018c0,0.562,0.457,1.021,1.019,1.021
			S27.879-4.07,27.879-4.633"/>
		<path fill="#2EBDEF" d="M27.879-9.266c0-0.561-0.455-1.018-1.017-1.018s-1.019,0.457-1.019,1.018c0,0.564,0.457,1.021,1.019,1.021
			S27.879-8.701,27.879-9.266"/>
		<path fill="#2EBDEF" d="M27.879-32.424c0-0.562-0.455-1.018-1.017-1.018s-1.019,0.455-1.019,1.018
			c0,0.562,0.457,1.018,1.019,1.018S27.879-31.862,27.879-32.424"/>
		<path fill="#2EBDEF" d="M27.879-13.895c0-0.562-0.455-1.021-1.017-1.021s-1.019,0.458-1.019,1.021
			c0,0.561,0.457,1.018,1.019,1.018S27.879-13.334,27.879-13.895"/>
		<path fill="#2EBDEF" d="M27.879-27.791c0-0.562-0.455-1.02-1.017-1.02s-1.019,0.458-1.019,1.02c0,0.562,0.457,1.018,1.019,1.018
			S27.879-27.229,27.879-27.791"/>
		<path fill="#2EBDEF" d="M27.879-18.527c0-0.562-0.455-1.021-1.017-1.021s-1.019,0.458-1.019,1.021
			c0,0.562,0.457,1.018,1.019,1.018S27.879-17.966,27.879-18.527"/>
		<path fill="#2EBDEF" d="M27.879-23.158c0-0.564-0.455-1.02-1.017-1.02s-1.019,0.455-1.019,1.02c0,0.561,0.457,1.016,1.019,1.016
			S27.879-22.598,27.879-23.158"/>
		<path fill="#2EBDEF" d="M33.253-64.846c0-0.562-0.457-1.018-1.018-1.018c-0.564,0-1.019,0.456-1.019,1.018
			c0,0.561,0.455,1.018,1.019,1.018C32.796-63.828,33.253-64.285,33.253-64.846"/>
		<path fill="#2EBDEF" d="M33.253-74.109c0-0.021-0.002-0.043-0.004-0.062H31.22c-0.002,0.019-0.004,0.04-0.004,0.062
			c0,0.562,0.455,1.018,1.019,1.018C32.796-73.092,33.253-73.548,33.253-74.109"/>
		<path fill="#2EBDEF" d="M33.253-41.688c0-0.561-0.457-1.018-1.018-1.018c-0.564,0-1.019,0.457-1.019,1.018
			c0,0.562,0.455,1.021,1.019,1.021C32.796-40.667,33.253-41.125,33.253-41.688"/>
		<path fill="#2EBDEF" d="M33.253-37.055c0-0.564-0.457-1.02-1.018-1.02c-0.564,0-1.019,0.455-1.019,1.02
			c0,0.562,0.455,1.018,1.019,1.018C32.796-36.037,33.253-36.493,33.253-37.055"/>
		<path fill="#2EBDEF" d="M33.253-46.318c0-0.562-0.457-1.02-1.018-1.02c-0.564,0-1.019,0.457-1.019,1.02
			c0,0.562,0.455,1.018,1.019,1.018C32.796-45.301,33.253-45.757,33.253-46.318"/>
		<path fill="#2EBDEF" d="M33.253-32.424c0-0.562-0.457-1.018-1.018-1.018c-0.564,0-1.019,0.455-1.019,1.018
			c0,0.562,0.455,1.018,1.019,1.018C32.796-31.406,33.253-31.862,33.253-32.424"/>
		<path fill="#2EBDEF" d="M33.253-55.582c0-0.562-0.457-1.018-1.018-1.018c-0.564,0-1.019,0.455-1.019,1.018
			c0,0.562,0.455,1.018,1.019,1.018C32.796-54.564,33.253-55.021,33.253-55.582"/>
		<path fill="#2EBDEF" d="M33.253-50.951c0-0.562-0.457-1.018-1.018-1.018c-0.564,0-1.019,0.456-1.019,1.018
			s0.455,1.018,1.019,1.018C32.796-49.934,33.253-50.39,33.253-50.951"/>
		<path fill="#2EBDEF" d="M33.253-60.215c0-0.562-0.457-1.018-1.018-1.018c-0.564,0-1.019,0.455-1.019,1.018
			c0,0.562,0.455,1.018,1.019,1.018C32.796-59.197,33.253-59.653,33.253-60.215"/>
		<path fill="#2EBDEF" d="M33.253-69.479c0-0.562-0.457-1.018-1.018-1.018c-0.564,0-1.019,0.456-1.019,1.018
			c0,0.564,0.455,1.018,1.019,1.018C32.796-68.461,33.253-68.914,33.253-69.479"/>
		<path fill="#2EBDEF" d="M27.879-55.582c0-0.562-0.455-1.018-1.017-1.018s-1.019,0.455-1.019,1.018
			c0,0.562,0.457,1.018,1.019,1.018S27.879-55.021,27.879-55.582"/>
		<path fill="#2EBDEF" d="M22.508-23.158c0-0.564-0.456-1.02-1.018-1.02c-0.563,0-1.019,0.455-1.019,1.02
			c0,0.561,0.456,1.016,1.019,1.016C22.052-22.143,22.508-22.598,22.508-23.158"/>
		<path fill="#2EBDEF" d="M22.508-18.527c0-0.562-0.456-1.021-1.018-1.021c-0.563,0-1.019,0.458-1.019,1.021
			c0,0.562,0.456,1.018,1.019,1.018C22.052-17.51,22.508-17.966,22.508-18.527"/>
		<path fill="#2EBDEF" d="M22.508-4.633c0-0.561-0.456-1.018-1.018-1.018c-0.563,0-1.019,0.457-1.019,1.018
			c0,0.562,0.456,1.021,1.019,1.021C22.052-3.612,22.508-4.07,22.508-4.633"/>
		<path fill="#2EBDEF" d="M22.508-9.266c0-0.561-0.456-1.018-1.018-1.018c-0.563,0-1.019,0.457-1.019,1.018
			c0,0.564,0.456,1.021,1.019,1.021C22.052-8.245,22.508-8.701,22.508-9.266"/>
		<path fill="#2EBDEF" d="M27.879-37.055c0-0.564-0.455-1.02-1.017-1.02s-1.019,0.455-1.019,1.02c0,0.562,0.457,1.018,1.019,1.018
			S27.879-36.493,27.879-37.055"/>
		<path fill="#2EBDEF" d="M22.508-37.055c0-0.564-0.456-1.02-1.018-1.02c-0.563,0-1.019,0.455-1.019,1.02
			c0,0.562,0.456,1.018,1.019,1.018C22.052-36.037,22.508-36.493,22.508-37.055"/>
		<path fill="#2EBDEF" d="M22.508-27.791c0-0.562-0.456-1.02-1.018-1.02c-0.563,0-1.019,0.458-1.019,1.02
			c0,0.562,0.456,1.018,1.019,1.018C22.052-26.773,22.508-27.229,22.508-27.791"/>
		<path fill="#2EBDEF" d="M22.508-32.424c0-0.562-0.456-1.018-1.018-1.018c-0.563,0-1.019,0.455-1.019,1.018
			c0,0.562,0.456,1.018,1.019,1.018C22.052-31.406,22.508-31.862,22.508-32.424"/>
		<path fill="#2EBDEF" d="M22.508-13.895c0-0.562-0.456-1.021-1.018-1.021c-0.563,0-1.019,0.458-1.019,1.021
			c0,0.561,0.456,1.018,1.019,1.018C22.052-12.877,22.508-13.334,22.508-13.895"/>
		<path fill="#2EBDEF" d="M33.253-27.791c0-0.562-0.457-1.02-1.018-1.02c-0.564,0-1.019,0.458-1.019,1.02
			c0,0.562,0.455,1.018,1.019,1.018C32.796-26.773,33.253-27.229,33.253-27.791"/>
		<path fill="#2EBDEF" d="M27.879-50.951c0-0.562-0.455-1.018-1.017-1.018s-1.019,0.456-1.019,1.018s0.457,1.018,1.019,1.018
			S27.879-50.39,27.879-50.951"/>
		<path fill="#2EBDEF" d="M43.998-4.633c0-0.561-0.457-1.018-1.019-1.018s-1.017,0.457-1.017,1.018c0,0.562,0.455,1.021,1.017,1.021
			S43.998-4.07,43.998-4.633"/>
		<path fill="#2EBDEF" d="M27.879-41.688c0-0.561-0.455-1.018-1.017-1.018s-1.019,0.457-1.019,1.018
			c0,0.562,0.457,1.021,1.019,1.021S27.879-41.125,27.879-41.688"/>
		<path fill="#2EBDEF" d="M27.879-74.109c0-0.021,0-0.043-0.002-0.062h-2.031c0,0.019-0.003,0.04-0.003,0.062
			c0,0.562,0.457,1.018,1.019,1.018S27.879-73.548,27.879-74.109"/>
		<path fill="#2EBDEF" d="M27.879-60.215c0-0.562-0.455-1.018-1.017-1.018s-1.019,0.455-1.019,1.018
			c0,0.562,0.457,1.018,1.019,1.018S27.879-59.653,27.879-60.215"/>
		<path fill="#2EBDEF" d="M27.879-64.846c0-0.562-0.455-1.018-1.017-1.018s-1.019,0.456-1.019,1.018
			c0,0.561,0.457,1.018,1.019,1.018S27.879-64.285,27.879-64.846"/>
		<path fill="#2EBDEF" d="M27.879-69.479c0-0.562-0.455-1.018-1.017-1.018s-1.019,0.456-1.019,1.018
			c0,0.564,0.457,1.018,1.019,1.018S27.879-68.914,27.879-69.479"/>
		<path fill="#2EBDEF" d="M43.998-18.527c0-0.562-0.457-1.021-1.019-1.021s-1.017,0.458-1.017,1.021
			c0,0.562,0.455,1.018,1.017,1.018S43.998-17.966,43.998-18.527"/>
		<path fill="#2EBDEF" d="M43.998-69.479c0-0.562-0.457-1.018-1.019-1.018s-1.017,0.456-1.017,1.018
			c0,0.564,0.455,1.018,1.017,1.018S43.998-68.914,43.998-69.479"/>
		<path fill="#2EBDEF" d="M43.998-55.582c0-0.562-0.457-1.018-1.019-1.018s-1.017,0.455-1.017,1.018
			c0,0.562,0.455,1.018,1.017,1.018S43.998-55.021,43.998-55.582"/>
		<path fill="#2EBDEF" d="M43.998-60.215c0-0.562-0.457-1.018-1.019-1.018s-1.017,0.455-1.017,1.018
			c0,0.562,0.455,1.018,1.017,1.018S43.998-59.653,43.998-60.215"/>
		<path fill="#2EBDEF" d="M38.625-13.895c0-0.562-0.456-1.021-1.018-1.021s-1.017,0.458-1.017,1.021
			c0,0.561,0.455,1.018,1.017,1.018S38.625-13.334,38.625-13.895"/>
		<path fill="#2EBDEF" d="M38.625-9.266c0-0.561-0.456-1.018-1.018-1.018s-1.017,0.457-1.017,1.018c0,0.564,0.455,1.021,1.017,1.021
			S38.625-8.701,38.625-9.266"/>
		<path fill="#2EBDEF" d="M38.625-4.633c0-0.561-0.456-1.018-1.018-1.018s-1.017,0.457-1.017,1.018c0,0.562,0.455,1.021,1.017,1.021
			S38.625-4.07,38.625-4.633"/>
		<path fill="#2EBDEF" d="M43.998-46.318c0-0.562-0.457-1.02-1.019-1.02s-1.017,0.457-1.017,1.02c0,0.562,0.455,1.018,1.017,1.018
			S43.998-45.757,43.998-46.318"/>
		<path fill="#2EBDEF" d="M43.998-74.109c0-0.021-0.002-0.043-0.004-0.062h-2.029c-0.002,0.019-0.003,0.04-0.003,0.062
			c0,0.562,0.455,1.018,1.017,1.018S43.998-73.548,43.998-74.109"/>
		<path fill="#2EBDEF" d="M43.998-64.846c0-0.562-0.457-1.018-1.019-1.018s-1.017,0.456-1.017,1.018
			c0,0.561,0.455,1.018,1.017,1.018S43.998-64.285,43.998-64.846"/>
		<path fill="#2EBDEF" d="M43.998-50.951c0-0.562-0.457-1.018-1.019-1.018s-1.017,0.456-1.017,1.018s0.455,1.018,1.017,1.018
			S43.998-50.39,43.998-50.951"/>
		<path fill="#2EBDEF" d="M43.998-13.895c0-0.562-0.457-1.021-1.019-1.021s-1.017,0.458-1.017,1.021
			c0,0.561,0.455,1.018,1.017,1.018S43.998-13.334,43.998-13.895"/>
		<path fill="#2EBDEF" d="M43.998-41.688c0-0.561-0.457-1.018-1.019-1.018s-1.017,0.457-1.017,1.018
			c0,0.562,0.455,1.021,1.017,1.021S43.998-41.125,43.998-41.688"/>
		<path fill="#2EBDEF" d="M22.508-41.688c0-0.561-0.456-1.018-1.018-1.018c-0.563,0-1.019,0.457-1.019,1.018
			c0,0.562,0.456,1.021,1.019,1.021C22.052-40.667,22.508-41.125,22.508-41.688"/>
		<path fill="#2EBDEF" d="M43.998-9.266c0-0.561-0.457-1.018-1.019-1.018s-1.017,0.457-1.017,1.018c0,0.564,0.455,1.021,1.017,1.021
			S43.998-8.701,43.998-9.266"/>
		<path fill="#2EBDEF" d="M43.998-23.158c0-0.564-0.457-1.02-1.019-1.02s-1.017,0.455-1.017,1.02c0,0.561,0.455,1.016,1.017,1.016
			S43.998-22.598,43.998-23.158"/>
		<path fill="#2EBDEF" d="M43.998-27.791c0-0.562-0.457-1.02-1.019-1.02s-1.017,0.458-1.017,1.02c0,0.562,0.455,1.018,1.017,1.018
			S43.998-27.229,43.998-27.791"/>
		<path fill="#2EBDEF" d="M43.998-37.055c0-0.564-0.457-1.02-1.019-1.02s-1.017,0.455-1.017,1.02c0,0.562,0.455,1.018,1.017,1.018
			S43.998-36.493,43.998-37.055"/>
		<path fill="#2EBDEF" d="M43.998-32.424c0-0.562-0.457-1.018-1.019-1.018s-1.017,0.455-1.017,1.018
			c0,0.562,0.455,1.018,1.017,1.018S43.998-31.862,43.998-32.424"/>
		<path fill="#2EBDEF" d="M38.625-74.109c0-0.021-0.001-0.043-0.003-0.062h-2.029c-0.002,0.019-0.003,0.04-0.003,0.062
			c0,0.562,0.455,1.018,1.017,1.018S38.625-73.548,38.625-74.109"/>
		<path fill="#2EBDEF" d="M38.625-64.846c0-0.562-0.456-1.018-1.018-1.018s-1.017,0.456-1.017,1.018
			c0,0.561,0.455,1.018,1.017,1.018S38.625-64.285,38.625-64.846"/>
		<path fill="#2EBDEF" d="M33.253-4.633c0-0.561-0.457-1.018-1.018-1.018c-0.564,0-1.019,0.457-1.019,1.018
			c0,0.562,0.455,1.021,1.019,1.021C32.796-3.612,33.253-4.07,33.253-4.633"/>
		<path fill="#2EBDEF" d="M33.253-23.158c0-0.564-0.457-1.02-1.018-1.02c-0.564,0-1.019,0.455-1.019,1.02
			c0,0.561,0.455,1.016,1.019,1.016C32.796-22.143,33.253-22.598,33.253-23.158"/>
		<path fill="#2EBDEF" d="M38.625-60.215c0-0.562-0.456-1.018-1.018-1.018s-1.017,0.455-1.017,1.018
			c0,0.562,0.455,1.018,1.017,1.018S38.625-59.653,38.625-60.215"/>
		<path fill="#2EBDEF" d="M38.625-69.479c0-0.562-0.456-1.018-1.018-1.018s-1.017,0.456-1.017,1.018
			c0,0.564,0.455,1.018,1.017,1.018S38.625-68.914,38.625-69.479"/>
		<path fill="#2EBDEF" d="M33.253-18.527c0-0.562-0.457-1.021-1.018-1.021c-0.564,0-1.019,0.458-1.019,1.021
			c0,0.562,0.455,1.018,1.019,1.018C32.796-17.51,33.253-17.966,33.253-18.527"/>
		<path fill="#2EBDEF" d="M33.253-9.266c0-0.561-0.457-1.018-1.018-1.018c-0.564,0-1.019,0.457-1.019,1.018
			c0,0.564,0.455,1.021,1.019,1.021C32.796-8.245,33.253-8.701,33.253-9.266"/>
		<path fill="#2EBDEF" d="M33.253-13.895c0-0.562-0.457-1.021-1.018-1.021c-0.564,0-1.019,0.458-1.019,1.021
			c0,0.561,0.455,1.018,1.019,1.018C32.796-12.877,33.253-13.334,33.253-13.895"/>
		<path fill="#2EBDEF" d="M38.625-18.527c0-0.562-0.456-1.021-1.018-1.021s-1.017,0.458-1.017,1.021
			c0,0.562,0.455,1.018,1.017,1.018S38.625-17.966,38.625-18.527"/>
		<path fill="#2EBDEF" d="M38.625-32.424c0-0.562-0.456-1.018-1.018-1.018s-1.017,0.455-1.017,1.018
			c0,0.562,0.455,1.018,1.017,1.018S38.625-31.862,38.625-32.424"/>
		<path fill="#2EBDEF" d="M38.625-27.791c0-0.562-0.456-1.02-1.018-1.02s-1.017,0.458-1.017,1.02c0,0.562,0.455,1.018,1.017,1.018
			S38.625-27.229,38.625-27.791"/>
		<path fill="#2EBDEF" d="M38.625-37.055c0-0.564-0.456-1.02-1.018-1.02s-1.017,0.455-1.017,1.02c0,0.562,0.455,1.018,1.017,1.018
			S38.625-36.493,38.625-37.055"/>
		<path fill="#2EBDEF" d="M38.625-23.158c0-0.564-0.456-1.02-1.018-1.02s-1.017,0.455-1.017,1.02c0,0.561,0.455,1.016,1.017,1.016
			S38.625-22.598,38.625-23.158"/>
		<path fill="#2EBDEF" d="M38.625-41.688c0-0.561-0.456-1.018-1.018-1.018s-1.017,0.457-1.017,1.018
			c0,0.562,0.455,1.021,1.017,1.021S38.625-41.125,38.625-41.688"/>
		<path fill="#2EBDEF" d="M38.625-50.951c0-0.562-0.456-1.018-1.018-1.018s-1.017,0.456-1.017,1.018s0.455,1.018,1.017,1.018
			S38.625-50.39,38.625-50.951"/>
		<path fill="#2EBDEF" d="M38.625-55.582c0-0.562-0.456-1.018-1.018-1.018s-1.017,0.455-1.017,1.018
			c0,0.562,0.455,1.018,1.017,1.018S38.625-55.021,38.625-55.582"/>
		<path fill="#2EBDEF" d="M38.625-46.318c0-0.562-0.456-1.02-1.018-1.02s-1.017,0.457-1.017,1.02c0,0.562,0.455,1.018,1.017,1.018
			S38.625-45.757,38.625-46.318"/>
		<path fill="#2EBDEF" d="M27.879-46.318c0-0.562-0.455-1.02-1.017-1.02s-1.019,0.457-1.019,1.02c0,0.562,0.457,1.018,1.019,1.018
			S27.879-45.757,27.879-46.318"/>
		<path fill="#2EBDEF" d="M6.39-46.318c0-0.562-0.456-1.02-1.018-1.02c-0.561,0-1.017,0.457-1.017,1.02
			c0,0.562,0.456,1.018,1.017,1.018C5.934-45.301,6.39-45.757,6.39-46.318"/>
		<path fill="#2EBDEF" d="M6.39-50.951c0-0.562-0.456-1.018-1.018-1.018c-0.561,0-1.017,0.456-1.017,1.018s0.456,1.018,1.017,1.018
			C5.934-49.934,6.39-50.39,6.39-50.951"/>
		<path fill="#2EBDEF" d="M6.39-41.688c0-0.561-0.456-1.018-1.018-1.018c-0.561,0-1.017,0.457-1.017,1.018
			c0,0.562,0.456,1.021,1.017,1.021C5.934-40.667,6.39-41.125,6.39-41.688"/>
		<path fill="#2EBDEF" d="M6.39-37.055c0-0.564-0.456-1.02-1.018-1.02c-0.561,0-1.017,0.455-1.017,1.02
			c0,0.562,0.456,1.018,1.017,1.018C5.934-36.037,6.39-36.493,6.39-37.055"/>
		<path fill="#2EBDEF" d="M6.39-55.582c0-0.562-0.456-1.018-1.018-1.018c-0.561,0-1.017,0.455-1.017,1.018
			c0,0.562,0.456,1.018,1.017,1.018C5.934-54.564,6.39-55.021,6.39-55.582"/>
		<path fill="#2EBDEF" d="M6.39-32.424c0-0.562-0.456-1.018-1.018-1.018c-0.561,0-1.017,0.455-1.017,1.018
			c0,0.562,0.456,1.018,1.017,1.018C5.934-31.406,6.39-31.862,6.39-32.424"/>
		<path fill="#2EBDEF" d="M6.39-64.846c0-0.562-0.456-1.018-1.018-1.018c-0.561,0-1.017,0.456-1.017,1.018
			c0,0.561,0.456,1.018,1.017,1.018C5.934-63.828,6.39-64.285,6.39-64.846"/>
		<path fill="#2EBDEF" d="M6.39-60.215c0-0.562-0.456-1.018-1.018-1.018c-0.561,0-1.017,0.455-1.017,1.018
			c0,0.562,0.456,1.018,1.017,1.018C5.934-59.197,6.39-59.653,6.39-60.215"/>
		<path fill="#2EBDEF" d="M6.39-69.479c0-0.562-0.456-1.018-1.018-1.018c-0.561,0-1.017,0.456-1.017,1.018
			c0,0.564,0.456,1.018,1.017,1.018C5.934-68.461,6.39-68.914,6.39-69.479"/>
		<path fill="#2EBDEF" d="M11.764-74.109c0-0.021-0.003-0.043-0.003-0.062H9.73c-0.002,0.019-0.003,0.04-0.003,0.062
			c0,0.562,0.455,1.018,1.017,1.018C11.308-73.092,11.764-73.548,11.764-74.109"/>
		<path fill="#2EBDEF" d="M6.39-9.266c0-0.561-0.456-1.018-1.018-1.018c-0.561,0-1.017,0.457-1.017,1.018
			c0,0.564,0.456,1.021,1.017,1.021C5.934-8.245,6.39-8.701,6.39-9.266"/>
		<path fill="#2EBDEF" d="M6.39-4.633c0-0.561-0.456-1.018-1.018-1.018c-0.561,0-1.017,0.457-1.017,1.018
			c0,0.562,0.456,1.021,1.017,1.021C5.934-3.612,6.39-4.07,6.39-4.633"/>
		<path fill="#2EBDEF" d="M11.764-64.846c0-0.562-0.456-1.018-1.02-1.018c-0.562,0-1.017,0.456-1.017,1.018
			c0,0.561,0.455,1.018,1.017,1.018C11.308-63.828,11.764-64.285,11.764-64.846"/>
		<path fill="#2EBDEF" d="M6.39-13.895c0-0.562-0.456-1.021-1.018-1.021c-0.561,0-1.017,0.458-1.017,1.021
			c0,0.561,0.456,1.018,1.017,1.018C5.934-12.877,6.39-13.334,6.39-13.895"/>
		<path fill="#2EBDEF" d="M6.39-27.791c0-0.562-0.456-1.02-1.018-1.02c-0.561,0-1.017,0.458-1.017,1.02
			c0,0.562,0.456,1.018,1.017,1.018C5.934-26.773,6.39-27.229,6.39-27.791"/>
		<path fill="#2EBDEF" d="M6.39-23.158c0-0.564-0.456-1.02-1.018-1.02c-0.561,0-1.017,0.455-1.017,1.02
			c0,0.561,0.456,1.016,1.017,1.016C5.934-22.143,6.39-22.598,6.39-23.158"/>
		<path fill="#2EBDEF" d="M6.39-18.527c0-0.562-0.456-1.021-1.018-1.021c-0.561,0-1.017,0.458-1.017,1.021
			c0,0.562,0.456,1.018,1.017,1.018C5.934-17.51,6.39-17.966,6.39-18.527"/>
		<path fill="#2EBDEF" d="M1.019-32.424c0-0.562-0.457-1.018-1.019-1.018v2.035C0.562-31.406,1.019-31.862,1.019-32.424"/>
		<path fill="#2EBDEF" d="M1.019-37.055c0-0.564-0.457-1.02-1.019-1.02v2.037C0.562-36.037,1.019-36.493,1.019-37.055"/>
		<path fill="#2EBDEF" d="M1.019-50.951c0-0.562-0.457-1.018-1.019-1.018v2.035C0.562-49.934,1.019-50.39,1.019-50.951"/>
		<path fill="#2EBDEF" d="M1.019-55.582C1.019-56.145,0.562-56.6,0-56.6v2.035C0.562-54.564,1.019-55.021,1.019-55.582"/>
		<path fill="#2EBDEF" d="M22.508-46.318c0-0.562-0.456-1.02-1.018-1.02c-0.563,0-1.019,0.457-1.019,1.02
			c0,0.562,0.456,1.018,1.019,1.018C22.052-45.301,22.508-45.757,22.508-46.318"/>
		<path fill="#2EBDEF" d="M1.019-46.318c0-0.562-0.457-1.02-1.019-1.02v2.037C0.562-45.301,1.019-45.757,1.019-46.318"/>
		<path fill="#2EBDEF" d="M6.39-74.109c0-0.021-0.001-0.043-0.003-0.062H4.358c-0.002,0.019-0.003,0.04-0.003,0.062
			c0,0.562,0.456,1.018,1.017,1.018C5.934-73.092,6.39-73.548,6.39-74.109"/>
		<path fill="#2EBDEF" d="M1.019-64.846c0-0.562-0.457-1.018-1.019-1.018v2.035C0.562-63.828,1.019-64.285,1.019-64.846"/>
		<path fill="#2EBDEF" d="M1.019-60.215c0-0.562-0.457-1.018-1.019-1.018v2.035C0.562-59.197,1.019-59.653,1.019-60.215"/>
		<path fill="#2EBDEF" d="M1.019-69.479c0-0.562-0.457-1.018-1.019-1.018v2.035C0.562-68.461,1.019-68.914,1.019-69.479"/>
		<path fill="#2EBDEF" d="M11.764-69.479c0-0.562-0.456-1.018-1.02-1.018c-0.562,0-1.017,0.456-1.017,1.018
			c0,0.564,0.455,1.018,1.017,1.018C11.308-68.461,11.764-68.914,11.764-69.479"/>
		<path fill="#2EBDEF" d="M1.019-13.895c0-0.562-0.457-1.021-1.019-1.021v2.038C0.562-12.877,1.019-13.334,1.019-13.895"/>
		<path fill="#2EBDEF" d="M1.019-4.633C1.019-5.193,0.562-5.65,0-5.65v2.038C0.562-3.612,1.019-4.07,1.019-4.633"/>
		<path fill="#2EBDEF" d="M1.019-74.109c0-0.021-0.002-0.043-0.004-0.062H0v1.079C0.562-73.092,1.019-73.548,1.019-74.109"/>
		<path fill="#2EBDEF" d="M1.019-9.266c0-0.561-0.457-1.018-1.019-1.018v2.038C0.562-8.245,1.019-8.701,1.019-9.266"/>
		<path fill="#2EBDEF" d="M1.019-27.791c0-0.562-0.457-1.02-1.019-1.02v2.037C0.562-26.773,1.019-27.229,1.019-27.791"/>
		<path fill="#2EBDEF" d="M1.019-18.527c0-0.562-0.457-1.021-1.019-1.021v2.038C0.562-17.51,1.019-17.966,1.019-18.527"/>
		<path fill="#2EBDEF" d="M1.019-23.158c0-0.564-0.457-1.02-1.019-1.02v2.035C0.562-22.143,1.019-22.598,1.019-23.158"/>
		<path fill="#2EBDEF" d="M1.019-41.688c0-0.561-0.457-1.018-1.019-1.018v2.038C0.562-40.667,1.019-41.125,1.019-41.688"/>
		<path fill="#2EBDEF" d="M17.135-50.951c0-0.562-0.455-1.018-1.019-1.018c-0.561,0-1.017,0.456-1.017,1.018
			s0.456,1.018,1.017,1.018C16.68-49.934,17.135-50.39,17.135-50.951"/>
		<path fill="#2EBDEF" d="M17.135-23.158c0-0.564-0.455-1.02-1.019-1.02c-0.561,0-1.017,0.455-1.017,1.02
			c0,0.561,0.456,1.016,1.017,1.016C16.68-22.143,17.135-22.598,17.135-23.158"/>
		<path fill="#2EBDEF" d="M17.135-32.424c0-0.562-0.455-1.018-1.019-1.018c-0.561,0-1.017,0.455-1.017,1.018
			c0,0.562,0.456,1.018,1.017,1.018C16.68-31.406,17.135-31.862,17.135-32.424"/>
		<path fill="#2EBDEF" d="M17.135-18.527c0-0.562-0.455-1.021-1.019-1.021c-0.561,0-1.017,0.458-1.017,1.021
			c0,0.562,0.456,1.018,1.017,1.018C16.68-17.51,17.135-17.966,17.135-18.527"/>
		<path fill="#2EBDEF" d="M17.135-37.055c0-0.564-0.455-1.02-1.019-1.02c-0.561,0-1.017,0.455-1.017,1.02
			c0,0.562,0.456,1.018,1.017,1.018C16.68-36.037,17.135-36.493,17.135-37.055"/>
		<path fill="#2EBDEF" d="M17.135-46.318c0-0.562-0.455-1.02-1.019-1.02c-0.561,0-1.017,0.457-1.017,1.02
			c0,0.562,0.456,1.018,1.017,1.018C16.68-45.301,17.135-45.757,17.135-46.318"/>
		<path fill="#2EBDEF" d="M17.135-13.895c0-0.562-0.455-1.021-1.019-1.021c-0.561,0-1.017,0.458-1.017,1.021
			c0,0.561,0.456,1.018,1.017,1.018C16.68-12.877,17.135-13.334,17.135-13.895"/>
		<path fill="#2EBDEF" d="M17.135-41.688c0-0.561-0.455-1.018-1.019-1.018c-0.561,0-1.017,0.457-1.017,1.018
			c0,0.562,0.456,1.021,1.017,1.021C16.68-40.667,17.135-41.125,17.135-41.688"/>
		<path fill="#2EBDEF" d="M17.135-27.791c0-0.562-0.455-1.02-1.019-1.02c-0.561,0-1.017,0.458-1.017,1.02
			c0,0.562,0.456,1.018,1.017,1.018C16.68-26.773,17.135-27.229,17.135-27.791"/>
		<path fill="#2EBDEF" d="M22.508-55.582c0-0.562-0.456-1.018-1.018-1.018c-0.563,0-1.019,0.455-1.019,1.018
			c0,0.562,0.456,1.018,1.019,1.018C22.052-54.564,22.508-55.021,22.508-55.582"/>
		<path fill="#2EBDEF" d="M17.135-9.266c0-0.561-0.455-1.018-1.019-1.018c-0.561,0-1.017,0.457-1.017,1.018
			c0,0.564,0.456,1.021,1.017,1.021C16.68-8.245,17.135-8.701,17.135-9.266"/>
		<path fill="#2EBDEF" d="M22.508-69.479c0-0.562-0.456-1.018-1.018-1.018c-0.563,0-1.019,0.456-1.019,1.018
			c0,0.564,0.456,1.018,1.019,1.018C22.052-68.461,22.508-68.914,22.508-69.479"/>
		<path fill="#2EBDEF" d="M22.508-50.951c0-0.562-0.456-1.018-1.018-1.018c-0.563,0-1.019,0.456-1.019,1.018
			s0.456,1.018,1.019,1.018C22.052-49.934,22.508-50.39,22.508-50.951"/>
		<path fill="#2EBDEF" d="M22.508-60.215c0-0.562-0.456-1.018-1.018-1.018c-0.563,0-1.019,0.455-1.019,1.018
			c0,0.562,0.456,1.018,1.019,1.018C22.052-59.197,22.508-59.653,22.508-60.215"/>
		<path fill="#2EBDEF" d="M17.135-4.633c0-0.561-0.455-1.018-1.019-1.018c-0.561,0-1.017,0.457-1.017,1.018
			c0,0.562,0.456,1.021,1.017,1.021C16.68-3.612,17.135-4.07,17.135-4.633"/>
		<path fill="#2EBDEF" d="M22.508-74.109c0-0.021-0.003-0.043-0.003-0.062h-2.031c-0.002,0.019-0.003,0.04-0.003,0.062
			c0,0.562,0.456,1.018,1.019,1.018C22.052-73.092,22.508-73.548,22.508-74.109"/>
		<path fill="#2EBDEF" d="M22.508-64.846c0-0.562-0.456-1.018-1.018-1.018c-0.563,0-1.019,0.456-1.019,1.018
			c0,0.561,0.456,1.018,1.019,1.018C22.052-63.828,22.508-64.285,22.508-64.846"/>
		<path fill="#2EBDEF" d="M11.764-4.633c0-0.561-0.456-1.018-1.02-1.018c-0.562,0-1.017,0.457-1.017,1.018
			c0,0.562,0.455,1.021,1.017,1.021C11.308-3.612,11.764-4.07,11.764-4.633"/>
		<path fill="#2EBDEF" d="M11.764-37.055c0-0.564-0.456-1.02-1.02-1.02c-0.562,0-1.017,0.455-1.017,1.02
			c0,0.562,0.455,1.018,1.017,1.018C11.308-36.037,11.764-36.493,11.764-37.055"/>
		<path fill="#2EBDEF" d="M17.135-55.582c0-0.562-0.455-1.018-1.019-1.018c-0.561,0-1.017,0.455-1.017,1.018
			c0,0.562,0.456,1.018,1.017,1.018C16.68-54.564,17.135-55.021,17.135-55.582"/>
		<path fill="#2EBDEF" d="M11.764-41.688c0-0.561-0.456-1.018-1.02-1.018c-0.562,0-1.017,0.457-1.017,1.018
			c0,0.562,0.455,1.021,1.017,1.021C11.308-40.667,11.764-41.125,11.764-41.688"/>
		<path fill="#2EBDEF" d="M11.764-23.158c0-0.564-0.456-1.02-1.02-1.02c-0.562,0-1.017,0.455-1.017,1.02
			c0,0.561,0.455,1.016,1.017,1.016C11.308-22.143,11.764-22.598,11.764-23.158"/>
		<path fill="#2EBDEF" d="M11.764-27.791c0-0.562-0.456-1.02-1.02-1.02c-0.562,0-1.017,0.458-1.017,1.02
			c0,0.562,0.455,1.018,1.017,1.018C11.308-26.773,11.764-27.229,11.764-27.791"/>
		<path fill="#2EBDEF" d="M11.764-55.582c0-0.562-0.456-1.018-1.02-1.018c-0.562,0-1.017,0.455-1.017,1.018
			c0,0.562,0.455,1.018,1.017,1.018C11.308-54.564,11.764-55.021,11.764-55.582"/>
		<path fill="#2EBDEF" d="M11.764-46.318c0-0.562-0.456-1.02-1.02-1.02c-0.562,0-1.017,0.457-1.017,1.02
			c0,0.562,0.455,1.018,1.017,1.018C11.308-45.301,11.764-45.757,11.764-46.318"/>
		<path fill="#2EBDEF" d="M11.764-50.951c0-0.562-0.456-1.018-1.02-1.018c-0.562,0-1.017,0.456-1.017,1.018s0.455,1.018,1.017,1.018
			C11.308-49.934,11.764-50.39,11.764-50.951"/>
		<path fill="#2EBDEF" d="M11.764-32.424c0-0.562-0.456-1.018-1.02-1.018c-0.562,0-1.017,0.455-1.017,1.018
			c0,0.562,0.455,1.018,1.017,1.018C11.308-31.406,11.764-31.862,11.764-32.424"/>
		<path fill="#2EBDEF" d="M17.135-64.846c0-0.562-0.455-1.018-1.019-1.018c-0.561,0-1.017,0.456-1.017,1.018
			c0,0.561,0.456,1.018,1.017,1.018C16.68-63.828,17.135-64.285,17.135-64.846"/>
		<path fill="#2EBDEF" d="M11.764-18.527c0-0.562-0.456-1.021-1.02-1.021c-0.562,0-1.017,0.458-1.017,1.021
			c0,0.562,0.455,1.018,1.017,1.018C11.308-17.51,11.764-17.966,11.764-18.527"/>
		<path fill="#2EBDEF" d="M17.135-69.479c0-0.562-0.455-1.018-1.019-1.018c-0.561,0-1.017,0.456-1.017,1.018
			c0,0.564,0.456,1.018,1.017,1.018C16.68-68.461,17.135-68.914,17.135-69.479"/>
		<path fill="#2EBDEF" d="M17.135-60.215c0-0.562-0.455-1.018-1.019-1.018c-0.561,0-1.017,0.455-1.017,1.018
			c0,0.562,0.456,1.018,1.017,1.018C16.68-59.197,17.135-59.653,17.135-60.215"/>
		<path fill="#2EBDEF" d="M17.135-74.109c0-0.021-0.002-0.043-0.003-0.062h-2.03c0,0.019-0.003,0.04-0.003,0.062
			c0,0.562,0.456,1.018,1.017,1.018C16.68-73.092,17.135-73.548,17.135-74.109"/>
		<path fill="#2EBDEF" d="M11.764-13.895c0-0.562-0.456-1.021-1.02-1.021c-0.562,0-1.017,0.458-1.017,1.021
			c0,0.561,0.455,1.018,1.017,1.018C11.308-12.877,11.764-13.334,11.764-13.895"/>
		<path fill="#2EBDEF" d="M11.764-9.266c0-0.561-0.456-1.018-1.02-1.018c-0.562,0-1.017,0.457-1.017,1.018
			c0,0.564,0.455,1.021,1.017,1.021C11.308-8.245,11.764-8.701,11.764-9.266"/>
		<path fill="#2EBDEF" d="M11.764-60.215c0-0.562-0.456-1.018-1.02-1.018c-0.562,0-1.017,0.455-1.017,1.018
			c0,0.562,0.455,1.018,1.017,1.018C11.308-59.197,11.764-59.653,11.764-60.215"/>
		<path fill="#2EBDEF" d="M76.232-13.895c0-0.562-0.457-1.021-1.018-1.021c-0.563,0-1.02,0.458-1.02,1.021
			c0,0.561,0.457,1.018,1.02,1.018C75.775-12.877,76.232-13.334,76.232-13.895"/>
		<path fill="#2EBDEF" d="M81.603-69.479c0-0.562-0.456-1.018-1.018-1.018c-0.561,0-1.017,0.456-1.017,1.018
			c0,0.564,0.456,1.018,1.017,1.018C81.147-68.461,81.603-68.914,81.603-69.479"/>
		<path fill="#2EBDEF" d="M81.603-74.109c0-0.021-0.001-0.043-0.002-0.062h-2.03c-0.001,0.019-0.003,0.04-0.003,0.062
			c0,0.562,0.456,1.018,1.017,1.018C81.147-73.092,81.603-73.548,81.603-74.109"/>
		<path fill="#2EBDEF" d="M76.232-27.791c0-0.562-0.457-1.02-1.018-1.02c-0.563,0-1.02,0.458-1.02,1.02
			c0,0.562,0.457,1.018,1.02,1.018C75.775-26.773,76.232-27.229,76.232-27.791"/>
		<path fill="#2EBDEF" d="M81.603-60.215c0-0.562-0.456-1.018-1.018-1.018c-0.561,0-1.017,0.455-1.017,1.018
			c0,0.562,0.456,1.018,1.017,1.018C81.147-59.197,81.603-59.653,81.603-60.215"/>
		<path fill="#2EBDEF" d="M81.603-64.846c0-0.562-0.456-1.018-1.018-1.018c-0.561,0-1.017,0.456-1.017,1.018
			c0,0.561,0.456,1.018,1.017,1.018C81.147-63.828,81.603-64.285,81.603-64.846"/>
		<path fill="#2EBDEF" d="M76.232-18.527c0-0.562-0.457-1.021-1.018-1.021c-0.563,0-1.02,0.458-1.02,1.021
			c0,0.562,0.457,1.018,1.02,1.018C75.775-17.51,76.232-17.966,76.232-18.527"/>
		<path fill="#2EBDEF" d="M76.232-4.633c0-0.561-0.457-1.018-1.018-1.018c-0.563,0-1.02,0.457-1.02,1.018
			c0,0.562,0.457,1.021,1.02,1.021C75.775-3.612,76.232-4.07,76.232-4.633"/>
		<path fill="#2EBDEF" d="M76.232-23.158c0-0.564-0.457-1.02-1.018-1.02c-0.563,0-1.02,0.455-1.02,1.02
			c0,0.561,0.457,1.016,1.02,1.016C75.775-22.143,76.232-22.598,76.232-23.158"/>
		<path fill="#2EBDEF" d="M76.232-9.266c0-0.561-0.457-1.018-1.018-1.018c-0.563,0-1.02,0.457-1.02,1.018
			c0,0.564,0.457,1.021,1.02,1.021C75.775-8.245,76.232-8.701,76.232-9.266"/>
		<path fill="#2EBDEF" d="M81.603-55.582c0-0.562-0.456-1.018-1.018-1.018c-0.561,0-1.017,0.455-1.017,1.018
			c0,0.562,0.456,1.018,1.017,1.018C81.147-54.564,81.603-55.021,81.603-55.582"/>
		<path fill="#2EBDEF" d="M81.603-50.951c0-0.562-0.456-1.018-1.018-1.018c-0.561,0-1.017,0.456-1.017,1.018
			s0.456,1.018,1.017,1.018C81.147-49.934,81.603-50.39,81.603-50.951"/>
		<path fill="#2EBDEF" d="M81.603-32.424c0-0.562-0.456-1.018-1.018-1.018c-0.561,0-1.017,0.455-1.017,1.018
			c0,0.562,0.456,1.018,1.017,1.018C81.147-31.406,81.603-31.862,81.603-32.424"/>
		<path fill="#2EBDEF" d="M81.603-23.158c0-0.564-0.456-1.02-1.018-1.02c-0.561,0-1.017,0.455-1.017,1.02
			c0,0.561,0.456,1.016,1.017,1.016C81.147-22.143,81.603-22.598,81.603-23.158"/>
		<path fill="#2EBDEF" d="M81.603-18.527c0-0.562-0.456-1.021-1.018-1.021c-0.561,0-1.017,0.458-1.017,1.021
			c0,0.562,0.456,1.018,1.017,1.018C81.147-17.51,81.603-17.966,81.603-18.527"/>
		<path fill="#2EBDEF" d="M81.603-27.791c0-0.562-0.456-1.02-1.018-1.02c-0.561,0-1.017,0.458-1.017,1.02
			c0,0.562,0.456,1.018,1.017,1.018C81.147-26.773,81.603-27.229,81.603-27.791"/>
		<path fill="#2EBDEF" d="M81.603-46.318c0-0.562-0.456-1.02-1.018-1.02c-0.561,0-1.017,0.457-1.017,1.02
			c0,0.562,0.456,1.018,1.017,1.018C81.147-45.301,81.603-45.757,81.603-46.318"/>
		<path fill="#2EBDEF" d="M70.859-37.055c0-0.564-0.456-1.02-1.018-1.02s-1.017,0.455-1.017,1.02c0,0.562,0.455,1.018,1.017,1.018
			S70.859-36.493,70.859-37.055"/>
		<path fill="#2EBDEF" d="M81.603-37.055c0-0.564-0.456-1.02-1.018-1.02c-0.561,0-1.017,0.455-1.017,1.02
			c0,0.562,0.456,1.018,1.017,1.018C81.147-36.037,81.603-36.493,81.603-37.055"/>
		<path fill="#2EBDEF" d="M76.232-41.688c0-0.561-0.457-1.018-1.018-1.018c-0.563,0-1.02,0.457-1.02,1.018
			c0,0.562,0.457,1.021,1.02,1.021C75.775-40.667,76.232-41.125,76.232-41.688"/>
		<path fill="#2EBDEF" d="M70.859-18.527c0-0.562-0.456-1.021-1.018-1.021s-1.017,0.458-1.017,1.021
			c0,0.562,0.455,1.018,1.017,1.018S70.859-17.966,70.859-18.527"/>
		<path fill="#2EBDEF" d="M76.232-74.109c0-0.021-0.002-0.043-0.004-0.062h-2.029c-0.002,0.019-0.005,0.04-0.005,0.062
			c0,0.562,0.457,1.018,1.02,1.018C75.775-73.092,76.232-73.548,76.232-74.109"/>
		<path fill="#2EBDEF" d="M70.859-9.266c0-0.561-0.456-1.018-1.018-1.018s-1.017,0.457-1.017,1.018c0,0.564,0.455,1.021,1.017,1.021
			S70.859-8.701,70.859-9.266"/>
		<path fill="#2EBDEF" d="M70.859-4.633c0-0.561-0.456-1.018-1.018-1.018s-1.017,0.457-1.017,1.018c0,0.562,0.455,1.021,1.017,1.021
			S70.859-4.07,70.859-4.633"/>
		<path fill="#2EBDEF" d="M70.859-13.895c0-0.562-0.456-1.021-1.018-1.021s-1.017,0.458-1.017,1.021
			c0,0.561,0.455,1.018,1.017,1.018S70.859-13.334,70.859-13.895"/>
		<path fill="#2EBDEF" d="M70.859-23.158c0-0.564-0.456-1.02-1.018-1.02s-1.017,0.455-1.017,1.02c0,0.561,0.455,1.016,1.017,1.016
			S70.859-22.598,70.859-23.158"/>
		<path fill="#2EBDEF" d="M70.859-32.424c0-0.562-0.456-1.018-1.018-1.018s-1.017,0.455-1.017,1.018
			c0,0.562,0.455,1.018,1.017,1.018S70.859-31.862,70.859-32.424"/>
		<path fill="#2EBDEF" d="M70.859-27.791c0-0.562-0.456-1.02-1.018-1.02s-1.017,0.458-1.017,1.02c0,0.562,0.455,1.018,1.017,1.018
			S70.859-27.229,70.859-27.791"/>
		<path fill="#2EBDEF" d="M76.232-55.582c0-0.562-0.457-1.018-1.018-1.018c-0.563,0-1.02,0.455-1.02,1.018
			c0,0.562,0.457,1.018,1.02,1.018C75.775-54.564,76.232-55.021,76.232-55.582"/>
		<path fill="#2EBDEF" d="M81.603-13.895c0-0.562-0.456-1.021-1.018-1.021c-0.561,0-1.017,0.458-1.017,1.021
			c0,0.561,0.456,1.018,1.017,1.018C81.147-12.877,81.603-13.334,81.603-13.895"/>
		<path fill="#2EBDEF" d="M76.232-46.318c0-0.562-0.457-1.02-1.018-1.02c-0.563,0-1.02,0.457-1.02,1.02
			c0,0.562,0.457,1.018,1.02,1.018C75.775-45.301,76.232-45.757,76.232-46.318"/>
		<path fill="#2EBDEF" d="M76.232-37.055c0-0.564-0.457-1.02-1.018-1.02c-0.563,0-1.02,0.455-1.02,1.02
			c0,0.562,0.457,1.018,1.02,1.018C75.775-36.037,76.232-36.493,76.232-37.055"/>
		<path fill="#2EBDEF" d="M76.232-50.951c0-0.562-0.457-1.018-1.018-1.018c-0.563,0-1.02,0.456-1.02,1.018s0.457,1.018,1.02,1.018
			C75.775-49.934,76.232-50.39,76.232-50.951"/>
		<path fill="#2EBDEF" d="M76.232-60.215c0-0.562-0.457-1.018-1.018-1.018c-0.563,0-1.02,0.455-1.02,1.018
			c0,0.562,0.457,1.018,1.02,1.018C75.775-59.197,76.232-59.653,76.232-60.215"/>
		<path fill="#2EBDEF" d="M76.232-32.424c0-0.562-0.457-1.018-1.018-1.018c-0.563,0-1.02,0.455-1.02,1.018
			c0,0.562,0.457,1.018,1.02,1.018C75.775-31.406,76.232-31.862,76.232-32.424"/>
		<path fill="#2EBDEF" d="M76.232-69.479c0-0.562-0.457-1.018-1.018-1.018c-0.563,0-1.02,0.456-1.02,1.018
			c0,0.564,0.457,1.018,1.02,1.018C75.775-68.461,76.232-68.914,76.232-69.479"/>
		<path fill="#2EBDEF" d="M76.232-64.846c0-0.562-0.457-1.018-1.018-1.018c-0.563,0-1.02,0.456-1.02,1.018
			c0,0.561,0.457,1.018,1.02,1.018C75.775-63.828,76.232-64.285,76.232-64.846"/>
		<path fill="#2EBDEF" d="M81.603-41.688c0-0.561-0.456-1.018-1.018-1.018c-0.561,0-1.017,0.457-1.017,1.018
			c0,0.562,0.456,1.021,1.017,1.021C81.147-40.667,81.603-41.125,81.603-41.688"/>
		<path fill="#2EBDEF" d="M52.706,0h2.036c0-0.562-0.457-1.02-1.018-1.02C53.162-1.02,52.706-0.562,52.706,0"/>
		<path fill="#2EBDEF" d="M63.45,0h2.036c0-0.562-0.455-1.02-1.017-1.02C63.906-1.02,63.45-0.562,63.45,0"/>
		<path fill="#2EBDEF" d="M58.078,0h2.037c0-0.562-0.456-1.02-1.017-1.02C58.535-1.02,58.078-0.562,58.078,0"/>
		<path fill="#2EBDEF" d="M41.961,0h2.036c0-0.562-0.457-1.02-1.018-1.02C42.417-1.02,41.961-0.562,41.961,0"/>
		<path fill="#2EBDEF" d="M49.37-74.109c0-0.021-0.002-0.043-0.003-0.062h-2.03c-0.001,0.019-0.003,0.04-0.003,0.062
			c0,0.562,0.455,1.018,1.018,1.018S49.37-73.548,49.37-74.109"/>
		<path fill="#2EBDEF" d="M79.568,0h2.035c0-0.562-0.456-1.02-1.017-1.02C80.024-1.02,79.568-0.562,79.568,0"/>
		<path fill="#2EBDEF" d="M68.824,0h2.035c0-0.562-0.456-1.02-1.017-1.02C69.279-1.02,68.824-0.562,68.824,0"/>
		<path fill="#2EBDEF" d="M74.194,0h2.038c0-0.562-0.457-1.02-1.018-1.02C74.651-1.02,74.194-0.562,74.194,0"/>
		<path fill="#2EBDEF" d="M47.333,0h2.036c0-0.562-0.455-1.02-1.018-1.02S47.333-0.562,47.333,0"/>
		<path fill="#2EBDEF" d="M4.355,0H6.39c0-0.562-0.456-1.02-1.017-1.02C4.811-1.02,4.355-0.562,4.355,0"/>
		<path fill="#2EBDEF" d="M81.603-9.266c0-0.561-0.456-1.018-1.018-1.018c-0.561,0-1.017,0.457-1.017,1.018
			c0,0.564,0.456,1.021,1.017,1.021C81.147-8.245,81.603-8.701,81.603-9.266"/>
		<path fill="#2EBDEF" d="M9.727,0h2.037c0-0.562-0.456-1.02-1.019-1.02S9.727-0.562,9.727,0"/>
		<path fill="#2EBDEF" d="M0,0H1.02C1.02-0.562,0.562-1.02,0-1.02V0z"/>
		<path fill="#2EBDEF" d="M36.589,0h2.035c0-0.562-0.456-1.02-1.017-1.02C37.044-1.02,36.589-0.562,36.589,0"/>
		<path fill="#2EBDEF" d="M31.216,0h2.037c0-0.562-0.457-1.02-1.018-1.02C31.671-1.02,31.216-0.562,31.216,0"/>
		<path fill="#2EBDEF" d="M20.471,0h2.037c0-0.562-0.456-1.02-1.017-1.02C20.927-1.02,20.471-0.562,20.471,0"/>
		<path fill="#2EBDEF" d="M25.843,0h2.036c0-0.562-0.455-1.02-1.016-1.02C26.3-1.02,25.843-0.562,25.843,0"/>
		<path fill="#2EBDEF" d="M15.099,0h2.036c0-0.562-0.455-1.02-1.018-1.02C15.555-1.02,15.099-0.562,15.099,0"/>
		<path fill="#2EBDEF" d="M85.958-54.564c0.042,0,0.083-0.004,0.124-0.008v-2.021C86.041-56.598,86-56.6,85.958-56.6
			c-0.562,0-1.018,0.455-1.018,1.018S85.396-54.564,85.958-54.564"/>
		<path fill="#2EBDEF" d="M85.958-59.197c0.042,0,0.083-0.002,0.124-0.008v-2.02c-0.041-0.004-0.082-0.008-0.124-0.008
			c-0.562,0-1.018,0.455-1.018,1.018S85.396-59.197,85.958-59.197"/>
		<path fill="#2EBDEF" d="M85.958-45.301c0.042,0,0.083-0.004,0.124-0.008v-2.021c-0.041-0.004-0.082-0.008-0.124-0.008
			c-0.562,0-1.018,0.457-1.018,1.02S85.396-45.301,85.958-45.301"/>
		<path fill="#2EBDEF" d="M85.958-49.934c0.042,0,0.083-0.002,0.124-0.008v-2.02c-0.041-0.004-0.082-0.008-0.124-0.008
			c-0.562,0-1.018,0.455-1.018,1.018S85.396-49.934,85.958-49.934"/>
		<path fill="#2EBDEF" d="M85.958-68.461c0.042,0,0.083-0.002,0.124-0.006v-2.021c-0.041-0.004-0.082-0.008-0.124-0.008
			c-0.562,0-1.018,0.455-1.018,1.018C84.939-68.914,85.396-68.461,85.958-68.461"/>
		<path fill="#2EBDEF" d="M81.603-4.633c0-0.561-0.456-1.018-1.018-1.018c-0.561,0-1.017,0.457-1.017,1.018
			c0,0.562,0.456,1.021,1.017,1.021C81.147-3.612,81.603-4.07,81.603-4.633"/>
		<path fill="#2EBDEF" d="M85.958-63.828c0.042,0,0.083-0.004,0.124-0.008v-2.02c-0.041-0.006-0.082-0.008-0.124-0.008
			c-0.562,0-1.018,0.455-1.018,1.018C84.939-64.285,85.396-63.828,85.958-63.828"/>
		<path fill="#2EBDEF" d="M85.958-73.092c0.042,0,0.083-0.004,0.124-0.008v-1.072h-1.139c-0.002,0.02-0.003,0.041-0.003,0.062
			C84.939-73.547,85.396-73.092,85.958-73.092"/>
		<path fill="#2EBDEF" d="M85.958-22.143c0.042,0,0.083-0.002,0.124-0.008v-2.018c-0.041-0.008-0.082-0.01-0.124-0.01
			c-0.562,0-1.018,0.455-1.018,1.02C84.939-22.598,85.396-22.143,85.958-22.143"/>
		<path fill="#2EBDEF" d="M85.958-12.877c0.042,0,0.083-0.004,0.124-0.01v-2.02c-0.041-0.006-0.082-0.008-0.124-0.008
			c-0.562,0-1.018,0.457-1.018,1.02C84.939-13.334,85.396-12.877,85.958-12.877"/>
		<path fill="#2EBDEF" d="M85.958-40.668c0.042,0,0.083-0.004,0.124-0.01v-2.02c-0.041-0.004-0.082-0.008-0.124-0.008
			c-0.562,0-1.018,0.457-1.018,1.018C84.939-41.125,85.396-40.668,85.958-40.668"/>
		<path fill="#2EBDEF" d="M85.958-17.51c0.042,0,0.083-0.004,0.124-0.008v-2.02c-0.041-0.006-0.082-0.01-0.124-0.01
			c-0.562,0-1.018,0.457-1.018,1.02S85.396-17.51,85.958-17.51"/>
		<path fill="#2EBDEF" d="M85.958-8.246c0.042,0,0.083-0.004,0.124-0.008v-2.02c-0.041-0.006-0.082-0.01-0.124-0.01
			c-0.562,0-1.018,0.457-1.018,1.018C84.939-8.701,85.396-8.246,85.958-8.246"/>
		<path fill="#2EBDEF" d="M85.958-3.613c0.042,0,0.083-0.004,0.124-0.01v-2.02C86.041-5.648,86-5.65,85.958-5.65
			c-0.562,0-1.018,0.457-1.018,1.018C84.939-4.07,85.396-3.613,85.958-3.613"/>
		<path fill="#2EBDEF" d="M85.958-36.037c0.042,0,0.083-0.004,0.124-0.008v-2.021c-0.041-0.004-0.082-0.008-0.124-0.008
			c-0.562,0-1.018,0.455-1.018,1.02C84.939-36.492,85.396-36.037,85.958-36.037"/>
		<path fill="#2EBDEF" d="M85.958-31.406c0.042,0,0.083-0.002,0.124-0.008v-2.02c-0.041-0.006-0.082-0.008-0.124-0.008
			c-0.562,0-1.018,0.455-1.018,1.018S85.396-31.406,85.958-31.406"/>
		<path fill="#2EBDEF" d="M85.958-26.773c0.042,0,0.083-0.002,0.124-0.008v-2.02c-0.041-0.006-0.082-0.01-0.124-0.01
			c-0.562,0-1.018,0.457-1.018,1.02S85.396-26.773,85.958-26.773"/>
		<path fill="#2EBDEF" d="M86.082,0v-1.01C86.041-1.016,86-1.02,85.958-1.02c-0.563,0-1.018,0.458-1.018,1.02H86.082z"/>
		<path fill="#2EBDEF" d="M54.742-41.688c0-0.561-0.457-1.018-1.018-1.018c-0.562,0-1.018,0.457-1.018,1.018
			c0,0.562,0.456,1.021,1.018,1.021C54.285-40.667,54.742-41.125,54.742-41.688"/>
		<path fill="#2EBDEF" d="M54.742-46.318c0-0.562-0.457-1.02-1.018-1.02c-0.562,0-1.018,0.457-1.018,1.02
			c0,0.562,0.456,1.018,1.018,1.018C54.285-45.301,54.742-45.757,54.742-46.318"/>
		<path fill="#2EBDEF" d="M54.742-69.479c0-0.562-0.457-1.018-1.018-1.018c-0.562,0-1.018,0.456-1.018,1.018
			c0,0.564,0.456,1.018,1.018,1.018C54.285-68.461,54.742-68.914,54.742-69.479"/>
		<path fill="#2EBDEF" d="M54.742-32.424c0-0.562-0.457-1.018-1.018-1.018c-0.562,0-1.018,0.455-1.018,1.018
			c0,0.562,0.456,1.018,1.018,1.018C54.285-31.406,54.742-31.862,54.742-32.424"/>
		<path fill="#2EBDEF" d="M54.742-37.055c0-0.564-0.457-1.02-1.018-1.02c-0.562,0-1.018,0.455-1.018,1.02
			c0,0.562,0.456,1.018,1.018,1.018C54.285-36.037,54.742-36.493,54.742-37.055"/>
		<path fill="#2EBDEF" d="M54.742-60.215c0-0.562-0.457-1.018-1.018-1.018c-0.562,0-1.018,0.455-1.018,1.018
			c0,0.562,0.456,1.018,1.018,1.018C54.285-59.197,54.742-59.653,54.742-60.215"/>
		<path fill="#2EBDEF" d="M54.742-55.582c0-0.562-0.457-1.018-1.018-1.018c-0.562,0-1.018,0.455-1.018,1.018
			c0,0.562,0.456,1.018,1.018,1.018C54.285-54.564,54.742-55.021,54.742-55.582"/>
		<path fill="#2EBDEF" d="M54.742-50.951c0-0.562-0.457-1.018-1.018-1.018c-0.562,0-1.018,0.456-1.018,1.018
			s0.456,1.018,1.018,1.018C54.285-49.934,54.742-50.39,54.742-50.951"/>
		<path fill="#2EBDEF" d="M54.742-27.791c0-0.562-0.457-1.02-1.018-1.02c-0.562,0-1.018,0.458-1.018,1.02
			c0,0.562,0.456,1.018,1.018,1.018C54.285-26.773,54.742-27.229,54.742-27.791"/>
		<path fill="#2EBDEF" d="M60.115-60.215c0-0.562-0.456-1.018-1.018-1.018s-1.019,0.455-1.019,1.018
			c0,0.562,0.457,1.018,1.019,1.018S60.115-59.653,60.115-60.215"/>
		<path fill="#2EBDEF" d="M60.115-74.109c0-0.021-0.003-0.043-0.004-0.062h-2.028c-0.003,0.019-0.005,0.04-0.005,0.062
			c0,0.562,0.457,1.018,1.019,1.018S60.115-73.548,60.115-74.109"/>
		<path fill="#2EBDEF" d="M54.742-4.633c0-0.561-0.457-1.018-1.018-1.018c-0.562,0-1.018,0.457-1.018,1.018
			c0,0.562,0.456,1.021,1.018,1.021C54.285-3.612,54.742-4.07,54.742-4.633"/>
		<path fill="#2EBDEF" d="M60.115-69.479c0-0.562-0.456-1.018-1.018-1.018s-1.019,0.456-1.019,1.018
			c0,0.564,0.457,1.018,1.019,1.018S60.115-68.914,60.115-69.479"/>
		<path fill="#2EBDEF" d="M60.115-64.846c0-0.562-0.456-1.018-1.018-1.018s-1.019,0.456-1.019,1.018
			c0,0.561,0.457,1.018,1.019,1.018S60.115-64.285,60.115-64.846"/>
		<path fill="#2EBDEF" d="M54.742-9.266c0-0.561-0.457-1.018-1.018-1.018c-0.562,0-1.018,0.457-1.018,1.018
			c0,0.564,0.456,1.021,1.018,1.021C54.285-8.245,54.742-8.701,54.742-9.266"/>
		<path fill="#2EBDEF" d="M54.742-18.527c0-0.562-0.457-1.021-1.018-1.021c-0.562,0-1.018,0.458-1.018,1.021
			c0,0.562,0.456,1.018,1.018,1.018C54.285-17.51,54.742-17.966,54.742-18.527"/>
		<path fill="#2EBDEF" d="M54.742-13.895c0-0.562-0.457-1.021-1.018-1.021c-0.562,0-1.018,0.458-1.018,1.021
			c0,0.561,0.456,1.018,1.018,1.018C54.285-12.877,54.742-13.334,54.742-13.895"/>
		<path fill="#2EBDEF" d="M54.742-23.158c0-0.564-0.457-1.02-1.018-1.02c-0.562,0-1.018,0.455-1.018,1.02
			c0,0.561,0.456,1.016,1.018,1.016C54.285-22.143,54.742-22.598,54.742-23.158"/>
		<path fill="#2EBDEF" d="M49.37-50.951c0-0.562-0.455-1.018-1.018-1.018s-1.018,0.456-1.018,1.018s0.455,1.018,1.018,1.018
			S49.37-50.39,49.37-50.951"/>
		<path fill="#2EBDEF" d="M49.37-46.318c0-0.562-0.455-1.02-1.018-1.02s-1.018,0.457-1.018,1.02c0,0.562,0.455,1.018,1.018,1.018
			S49.37-45.757,49.37-46.318"/>
		<path fill="#2EBDEF" d="M49.37-55.582c0-0.562-0.455-1.018-1.018-1.018s-1.018,0.455-1.018,1.018c0,0.562,0.455,1.018,1.018,1.018
			S49.37-55.021,49.37-55.582"/>
		<path fill="#2EBDEF" d="M49.37-41.688c0-0.561-0.455-1.018-1.018-1.018s-1.018,0.457-1.018,1.018c0,0.562,0.455,1.021,1.018,1.021
			S49.37-41.125,49.37-41.688"/>
		<path fill="#2EBDEF" d="M49.37-69.479c0-0.562-0.455-1.018-1.018-1.018s-1.018,0.456-1.018,1.018c0,0.564,0.455,1.018,1.018,1.018
			S49.37-68.914,49.37-69.479"/>
		<path fill="#2EBDEF" d="M49.37-64.846c0-0.562-0.455-1.018-1.018-1.018s-1.018,0.456-1.018,1.018c0,0.561,0.455,1.018,1.018,1.018
			S49.37-64.285,49.37-64.846"/>
		<path fill="#2EBDEF" d="M49.37-37.055c0-0.564-0.455-1.02-1.018-1.02s-1.018,0.455-1.018,1.02c0,0.562,0.455,1.018,1.018,1.018
			S49.37-36.493,49.37-37.055"/>
		<path fill="#2EBDEF" d="M49.37-60.215c0-0.562-0.455-1.018-1.018-1.018s-1.018,0.455-1.018,1.018c0,0.562,0.455,1.018,1.018,1.018
			S49.37-59.653,49.37-60.215"/>
		<path fill="#2EBDEF" d="M49.37-27.791c0-0.562-0.455-1.02-1.018-1.02s-1.018,0.458-1.018,1.02c0,0.562,0.455,1.018,1.018,1.018
			S49.37-27.229,49.37-27.791"/>
		<path fill="#2EBDEF" d="M49.37-13.895c0-0.562-0.455-1.021-1.018-1.021s-1.018,0.458-1.018,1.021c0,0.561,0.455,1.018,1.018,1.018
			S49.37-13.334,49.37-13.895"/>
		<path fill="#2EBDEF" d="M49.37-9.266c0-0.561-0.455-1.018-1.018-1.018s-1.018,0.457-1.018,1.018c0,0.564,0.455,1.021,1.018,1.021
			S49.37-8.701,49.37-9.266"/>
		<path fill="#2EBDEF" d="M49.37-4.633c0-0.561-0.455-1.018-1.018-1.018s-1.018,0.457-1.018,1.018c0,0.562,0.455,1.021,1.018,1.021
			S49.37-4.07,49.37-4.633"/>
		<path fill="#2EBDEF" d="M49.37-32.424c0-0.562-0.455-1.018-1.018-1.018s-1.018,0.455-1.018,1.018c0,0.562,0.455,1.018,1.018,1.018
			S49.37-31.862,49.37-32.424"/>
		<path fill="#2EBDEF" d="M54.742-74.109c0-0.021-0.002-0.043-0.004-0.062h-2.029c-0.002,0.019-0.003,0.04-0.003,0.062
			c0,0.562,0.456,1.018,1.018,1.018C54.285-73.092,54.742-73.548,54.742-74.109"/>
		<path fill="#2EBDEF" d="M54.742-64.846c0-0.562-0.457-1.018-1.018-1.018c-0.562,0-1.018,0.456-1.018,1.018
			c0,0.561,0.456,1.018,1.018,1.018C54.285-63.828,54.742-64.285,54.742-64.846"/>
		<path fill="#2EBDEF" d="M49.37-23.158c0-0.564-0.455-1.02-1.018-1.02s-1.018,0.455-1.018,1.02c0,0.561,0.455,1.016,1.018,1.016
			S49.37-22.598,49.37-23.158"/>
		<path fill="#2EBDEF" d="M49.37-18.527c0-0.562-0.455-1.021-1.018-1.021s-1.018,0.458-1.018,1.021c0,0.562,0.455,1.018,1.018,1.018
			S49.37-17.966,49.37-18.527"/>
		<path fill="#2EBDEF" d="M60.115-41.688c0-0.561-0.456-1.018-1.018-1.018s-1.019,0.457-1.019,1.018
			c0,0.562,0.457,1.021,1.019,1.021S60.115-41.125,60.115-41.688"/>
		<path fill="#2EBDEF" d="M65.486-23.158c0-0.564-0.455-1.02-1.018-1.02c-0.562,0-1.018,0.455-1.018,1.02
			c0,0.561,0.456,1.016,1.018,1.016C65.031-22.143,65.486-22.598,65.486-23.158"/>
		<path fill="#2EBDEF" d="M65.486-18.527c0-0.562-0.455-1.021-1.018-1.021c-0.562,0-1.018,0.458-1.018,1.021
			c0,0.562,0.456,1.018,1.018,1.018C65.031-17.51,65.486-17.966,65.486-18.527"/>
		<path fill="#2EBDEF" d="M65.486-27.791c0-0.562-0.455-1.02-1.018-1.02c-0.562,0-1.018,0.458-1.018,1.02
			c0,0.562,0.456,1.018,1.018,1.018C65.031-26.773,65.486-27.229,65.486-27.791"/>
		<path fill="#2EBDEF" d="M65.486-13.895c0-0.562-0.455-1.021-1.018-1.021c-0.562,0-1.018,0.458-1.018,1.021
			c0,0.561,0.456,1.018,1.018,1.018C65.031-12.877,65.486-13.334,65.486-13.895"/>
		<path fill="#2EBDEF" d="M65.486-37.055c0-0.564-0.455-1.02-1.018-1.02c-0.562,0-1.018,0.455-1.018,1.02
			c0,0.562,0.456,1.018,1.018,1.018C65.031-36.037,65.486-36.493,65.486-37.055"/>
		<path fill="#2EBDEF" d="M65.486-41.688c0-0.561-0.455-1.018-1.018-1.018c-0.562,0-1.018,0.457-1.018,1.018
			c0,0.562,0.456,1.021,1.018,1.021C65.031-40.667,65.486-41.125,65.486-41.688"/>
		<path fill="#2EBDEF" d="M65.486-9.266c0-0.561-0.455-1.018-1.018-1.018c-0.562,0-1.018,0.457-1.018,1.018
			c0,0.564,0.456,1.021,1.018,1.021C65.031-8.245,65.486-8.701,65.486-9.266"/>
		<path fill="#2EBDEF" d="M65.486-32.424c0-0.562-0.455-1.018-1.018-1.018c-0.562,0-1.018,0.455-1.018,1.018
			c0,0.562,0.456,1.018,1.018,1.018C65.031-31.406,65.486-31.862,65.486-32.424"/>
		<path fill="#2EBDEF" d="M70.859-55.582c0-0.562-0.456-1.018-1.018-1.018s-1.017,0.455-1.017,1.018
			c0,0.562,0.455,1.018,1.017,1.018S70.859-55.021,70.859-55.582"/>
		<path fill="#2EBDEF" d="M65.486-46.318c0-0.562-0.455-1.02-1.018-1.02c-0.562,0-1.018,0.457-1.018,1.02
			c0,0.562,0.456,1.018,1.018,1.018C65.031-45.301,65.486-45.757,65.486-46.318"/>
		<path fill="#2EBDEF" d="M70.859-50.951c0-0.562-0.456-1.018-1.018-1.018s-1.017,0.456-1.017,1.018s0.455,1.018,1.017,1.018
			S70.859-50.39,70.859-50.951"/>
		<path fill="#2EBDEF" d="M60.115-55.582c0-0.562-0.456-1.018-1.018-1.018s-1.019,0.455-1.019,1.018
			c0,0.562,0.457,1.018,1.019,1.018S60.115-55.021,60.115-55.582"/>
		<path fill="#2EBDEF" d="M65.486-4.633c0-0.561-0.455-1.018-1.018-1.018c-0.562,0-1.018,0.457-1.018,1.018
			c0,0.562,0.456,1.021,1.018,1.021C65.031-3.612,65.486-4.07,65.486-4.633"/>
		<path fill="#2EBDEF" d="M70.859-60.215c0-0.562-0.456-1.018-1.018-1.018s-1.017,0.455-1.017,1.018
			c0,0.562,0.455,1.018,1.017,1.018S70.859-59.653,70.859-60.215"/>
		<path fill="#2EBDEF" d="M70.859-74.109c0-0.021-0.003-0.043-0.003-0.062h-2.029c-0.003,0.019-0.003,0.04-0.003,0.062
			c0,0.562,0.455,1.018,1.017,1.018S70.859-73.548,70.859-74.109"/>
		<path fill="#2EBDEF" d="M70.859-69.479c0-0.562-0.456-1.018-1.018-1.018s-1.017,0.456-1.017,1.018
			c0,0.564,0.455,1.018,1.017,1.018S70.859-68.914,70.859-69.479"/>
		<path fill="#2EBDEF" d="M70.859-64.846c0-0.562-0.456-1.018-1.018-1.018s-1.017,0.456-1.017,1.018
			c0,0.561,0.455,1.018,1.017,1.018S70.859-64.285,70.859-64.846"/>
		<path fill="#2EBDEF" d="M70.859-46.318c0-0.562-0.456-1.02-1.018-1.02s-1.017,0.457-1.017,1.02c0,0.562,0.455,1.018,1.017,1.018
			S70.859-45.757,70.859-46.318"/>
		<path fill="#2EBDEF" d="M60.115-27.791c0-0.562-0.456-1.02-1.018-1.02s-1.019,0.458-1.019,1.02c0,0.562,0.457,1.018,1.019,1.018
			S60.115-27.229,60.115-27.791"/>
		<path fill="#2EBDEF" d="M60.115-18.527c0-0.562-0.456-1.021-1.018-1.021s-1.019,0.458-1.019,1.021
			c0,0.562,0.457,1.018,1.019,1.018S60.115-17.966,60.115-18.527"/>
		<path fill="#2EBDEF" d="M60.115-32.424c0-0.562-0.456-1.018-1.018-1.018s-1.019,0.455-1.019,1.018
			c0,0.562,0.457,1.018,1.019,1.018S60.115-31.862,60.115-32.424"/>
		<path fill="#2EBDEF" d="M60.115-23.158c0-0.564-0.456-1.02-1.018-1.02s-1.019,0.455-1.019,1.02c0,0.561,0.457,1.016,1.019,1.016
			S60.115-22.598,60.115-23.158"/>
		<path fill="#2EBDEF" d="M60.115-37.055c0-0.564-0.456-1.02-1.018-1.02s-1.019,0.455-1.019,1.02c0,0.562,0.457,1.018,1.019,1.018
			S60.115-36.493,60.115-37.055"/>
		<path fill="#2EBDEF" d="M60.115-50.951c0-0.562-0.456-1.018-1.018-1.018s-1.019,0.456-1.019,1.018s0.457,1.018,1.019,1.018
			S60.115-50.39,60.115-50.951"/>
		<path fill="#2EBDEF" d="M60.115-46.318c0-0.562-0.456-1.02-1.018-1.02s-1.019,0.457-1.019,1.02c0,0.562,0.457,1.018,1.019,1.018
			S60.115-45.757,60.115-46.318"/>
		<path fill="#2EBDEF" d="M70.859-41.688c0-0.561-0.456-1.018-1.018-1.018s-1.017,0.457-1.017,1.018
			c0,0.562,0.455,1.021,1.017,1.021S70.859-41.125,70.859-41.688"/>
		<path fill="#2EBDEF" d="M60.115-13.895c0-0.562-0.456-1.021-1.018-1.021s-1.019,0.458-1.019,1.021
			c0,0.561,0.457,1.018,1.019,1.018S60.115-13.334,60.115-13.895"/>
		<path fill="#2EBDEF" d="M65.486-60.215c0-0.562-0.455-1.018-1.018-1.018c-0.562,0-1.018,0.455-1.018,1.018
			c0,0.562,0.456,1.018,1.018,1.018C65.031-59.197,65.486-59.653,65.486-60.215"/>
		<path fill="#2EBDEF" d="M65.486-50.951c0-0.562-0.455-1.018-1.018-1.018c-0.562,0-1.018,0.456-1.018,1.018
			s0.456,1.018,1.018,1.018C65.031-49.934,65.486-50.39,65.486-50.951"/>
		<path fill="#2EBDEF" d="M65.486-69.479c0-0.562-0.455-1.018-1.018-1.018c-0.562,0-1.018,0.456-1.018,1.018
			c0,0.564,0.456,1.018,1.018,1.018C65.031-68.461,65.486-68.914,65.486-69.479"/>
		<path fill="#2EBDEF" d="M65.486-55.582c0-0.562-0.455-1.018-1.018-1.018c-0.562,0-1.018,0.455-1.018,1.018
			c0,0.562,0.456,1.018,1.018,1.018C65.031-54.564,65.486-55.021,65.486-55.582"/>
		<path fill="#2EBDEF" d="M65.486-64.846c0-0.562-0.455-1.018-1.018-1.018c-0.562,0-1.018,0.456-1.018,1.018
			c0,0.561,0.456,1.018,1.018,1.018C65.031-63.828,65.486-64.285,65.486-64.846"/>
		<path fill="#2EBDEF" d="M65.486-74.109c0-0.021-0.002-0.043-0.003-0.062h-2.03c0,0.019-0.003,0.04-0.003,0.062
			c0,0.562,0.456,1.018,1.018,1.018C65.031-73.092,65.486-73.548,65.486-74.109"/>
		<path fill="#2EBDEF" d="M60.115-9.266c0-0.561-0.456-1.018-1.018-1.018s-1.019,0.457-1.019,1.018c0,0.564,0.457,1.021,1.019,1.021
			S60.115-8.701,60.115-9.266"/>
		<path fill="#2EBDEF" d="M60.115-4.633c0-0.561-0.456-1.018-1.018-1.018s-1.019,0.457-1.019,1.018c0,0.562,0.457,1.021,1.019,1.021
			S60.115-4.07,60.115-4.633"/>
	</g>
</pattern>
<polygon fill="#82CFF5" points="603.261,490.466 1089.048,495.257 1103.431,1.653 601.758,11.189 "/>
<pattern  id="SVGID_1_" xlink:href="#Unnamed_Pattern_9" patternTransform="matrix(1 0 0 -1 -2655.2202 2009.3496)">
</pattern>
<polyline fill="url(#SVGID_1_)" points="607.47,486.532 607.47,269.121 1097.719,304.102 1092.577,493.779 "/>
<g>
	<path fill="#100805" d="M858.318,169.666c-0.406-0.275-0.845-0.512-1.298-0.726c-0.214-1.596-1.891-3.032-3.688-1.953
		c-0.507,0.306-0.982,0.659-1.429,1.039c-0.267,0.028-0.53,0.063-0.793,0.118c-2.756,0.58-4.611,3.751-3.585,6.394
		c0.416,1.075,1.121,1.99,1.986,2.716c0.733,1.084,1.875,1.881,3.28,2.109c2.716,0.438,6.857-0.477,8.188-3.195
		C862.282,173.51,860.466,171.121,858.318,169.666z"/>
	<g>
		<g>
			<path fill="#1E1E1C" d="M852.746,167.113c1.739,0.489,3.573,0.245,5.1,1.364c0.519,0.381,1.014-0.484,0.502-0.859
				c-1.615-1.185-3.499-0.948-5.336-1.464C852.392,165.979,852.129,166.939,852.746,167.113L852.746,167.113z"/>
		</g>
	</g>
	<g>
		<g>
			<path fill="#1E1E1C" d="M853.856,165.393c1.775-0.075,3.575,0.256,5.185,1.019c0.576,0.273,1.082-0.584,0.502-0.859
				c-1.769-0.839-3.73-1.238-5.687-1.155C853.217,164.424,853.214,165.419,853.856,165.393L853.856,165.393z"/>
		</g>
	</g>
	<path fill="#FFFFFF" d="M854.706,198.599l4.334,5.334c-6.778,30.847-6.609,31.009-5.335,45.35
		c1.335,15.003,4.335,15.003,4.335,15.003s-0.332,8.336-0.666,10.003c-0.333,1.665-7.065-13.718-8.669-22.34
		C846.038,237.609,854.372,201.6,854.706,198.599z"/>
	<path fill="#FFFFFF" d="M885.221,198.611l-4.335,5.334c6.779,30.847,6.61,31.012,5.336,45.35
		c-1.336,15.003-4.337,15.003-4.337,15.003s0.335,8.336,0.667,10.003c0.333,1.665,7.066-13.716,8.67-22.34
		C893.889,237.622,885.556,201.612,885.221,198.611z"/>
	<path fill="#FFFFFF" d="M874.657,301.404c0,0-1.922,70.154-0.32,74.32c1.601,4.162,27.438,14.632,18.899,16.018
		c-11.853,1.92-24.346-14.097-24.346-14.097v-75.921h-7.05c0,0,2.564,77.843,1.604,77.843s-11.213,11.53-21.463,9.931
		c-4.705-0.734,16.337-12.812,16.337-12.812s-2.243-78.164-1.281-77.846C857.998,299.161,874.657,301.404,874.657,301.404z"/>
	<path fill="#A42523" d="M886.993,199.498c0,0-4.905-12.334-17.685-11.442c-12.782,0.891-15.753,12.632-15.753,12.632l5.498,6.092
		c0,0-11.174,79.167-13.996,90.314c-2.823,11.146,35.676,8.334,40.011,6.001c4.336-2.333-6.335-95.028-6.335-95.028"/>
	<path fill="#100805" d="M844.87,143.263c0,15.096,12.397,27.334,27.693,27.334c15.294,0,28.74-12.61,28.74-27.707
		s-13.446-26.96-28.74-26.96C857.268,115.93,844.87,128.168,844.87,143.263z"/>
	<path fill="#FFFFFF" d="M856.613,147.994c0.257,5.51,0.531,11.035,1.181,16.517c0.636,5.375,1.647,13.337,7.837,15.206
		c5.548,1.675,12.257-0.08,16.381-4.168c7.416-7.353,8.404-18.065,9.718-28.155c2.252-4.616,3.222-9.98,0.41-14.536
		c-3.913-6.342-11.68-9.589-18.979-8.857c-6.65,0.668-13.197,5.348-15.549,11.682C856.103,139.747,856.413,143.724,856.613,147.994z
		"/>
	<path fill="#100805" d="M867.546,122.433c0.035-0.103,0.085-0.188,0.129-0.279c0.283-0.9,1.04-1.61,2.282-1.557
		c7.049,0.302,15.26,0.669,21.049,5.226c4.316,3.397,5.66,8.182,6.157,13.245c0.725,2.382,1.177,4.947,0.238,7.028
		c-0.133,1.59-0.556,3.095-1.684,4.351c-0.31,0.343-0.641,0.577-0.979,0.73c2.173,1.718-0.228,5.523-2.912,4.055
		c-6.748-3.691-12.403-9.766-17.367-15.553C870.731,135.336,865.44,128.545,867.546,122.433z"/>
	<path fill="#100805" d="M890.344,169.119c0.406-0.283,0.845-0.526,1.298-0.747c0.214-1.642,1.891-3.12,3.688-2.01
		c0.508,0.314,0.981,0.678,1.428,1.068c0.269,0.03,0.531,0.066,0.793,0.123c2.757,0.598,4.612,3.86,3.586,6.581
		c-0.417,1.106-1.121,2.049-1.986,2.795c-0.733,1.116-1.874,1.938-3.281,2.172c-2.715,0.451-6.855-0.49-8.188-3.29
		C886.38,173.076,888.196,170.617,890.344,169.119z"/>
	
		<ellipse fill="none" stroke="#1E1E1C" stroke-width="1.0041" stroke-miterlimit="10" cx="879.806" cy="150.438" rx="1.25" ry="2.392"/>
	
		<ellipse fill="none" stroke="#1E1E1C" stroke-width="1.0041" stroke-miterlimit="10" cx="866.11" cy="149.569" rx="1.25" ry="2.392"/>
	<g>
		<g>
			<path fill="#1E1E1C" d="M872.37,153.614c0.422,1.481,0.886,3.103,1.89,4.301c0.604,0.721,2.247,1.899,0.865,2.792
				c-0.636,0.411-1.591,0.232-2.254,0.013c-0.61-0.203-0.87,0.759-0.264,0.96c1.209,0.402,3.578,0.43,3.954-1.211
				c0.222-0.968-0.063-1.585-0.7-2.311c-0.559-0.638-1.13-1.139-1.504-1.92c-0.442-0.922-0.748-1.907-1.026-2.888
				C873.155,152.732,872.194,152.995,872.37,153.614L872.37,153.614z"/>
		</g>
	</g>
	<g>
		<g>
			<path fill="#1E1E1C" d="M872.959,164.723c-0.504,0.052-0.966,0.258-1.482,0.273c-1.218,0.037-1.707-0.934-1.88-2.009
				c-0.103-0.633-1.062-0.363-0.961,0.265c0.202,1.249,0.832,2.384,2.144,2.675c0.482,0.107,0.977,0.065,1.459-0.016
				c0.17-0.029,0.337-0.072,0.503-0.117c0.062-0.017,0.426-0.097,0.218-0.075C873.591,165.653,873.598,164.657,872.959,164.723
				L872.959,164.723z"/>
		</g>
	</g>
	<g>
		<g>
			<path fill="#1E1E1C" d="M895.648,165.511c-1.843,0.532-3.727,0.29-5.337,1.505c-0.513,0.387-0.011,1.265,0.51,0.872
				c1.519-1.145,3.355-0.901,5.097-1.403C896.542,166.305,896.276,165.33,895.648,165.511L895.648,165.511z"/>
		</g>
	</g>
	<g>
		<g>
			<path fill="#1E1E1C" d="M894.806,163.703c-1.96-0.086-3.928,0.328-5.69,1.188c-0.586,0.286-0.073,1.157,0.51,0.872
				c1.604-0.783,3.401-1.128,5.181-1.05C895.457,164.742,895.454,163.731,894.806,163.703L894.806,163.703z"/>
		</g>
	</g>
	<path fill="#FFFFFF" d="M865.189,189.229c1.205-4.729,0.836-9.939,4.131-14.26c3.638-4.767,4.132,10.068,4.136,10.174
		c0.119,2.916-0.659,3.382,2.828,3.42c3.041,0.024,0.434,4.742-0.625,5.443c-2.222,1.473-5.691,1.364-8.1,0.525
		C866.353,194.111,861.254,189.487,865.189,189.229C865.267,188.925,864.308,189.285,865.189,189.229z"/>
</g>
<g>
	<g>
		<rect x="1003.279" y="281.304" fill="#0DA2DD" width="5.677" height="48.316"/>
		<polygon fill="#0DA2DD" points="1039.227,277.193 1032.314,280.377 1032.314,335.967 1039.227,332.783 		"/>
		<polygon fill="#E4F3FB" points="992.169,291.743 1054.178,305.462 1054.178,275.796 992.169,271.462 		"/>
		<polygon fill="#0DA2DD" points="950.395,362.845 953.111,422.648 961.48,422.648 961.48,359.127 		"/>
		<polygon fill="#0DA2DD" points="1004.179,367.771 1018.409,369.157 1016.689,438.597 1006.11,436.604 		"/>
		<polygon fill="#0DA2DD" points="1027.048,342.245 1042.995,339.587 1037.015,394.906 1029.041,394.906 		"/>
		<polygon fill="#0DA2DD" points="984.535,339.587 995.487,339.587 992.169,389.892 984.535,389.892 		"/>
		<polygon fill="#E4F3FB" points="989.509,324.304 940.45,354.87 1022.52,371.482 1050.523,334.271 		"/>
		<polygon fill="#C3E5F6" points="1050.523,334.271 1050.523,344.903 1022.396,381.45 1022.52,371.482 		"/>
	</g>
	<g>
		<g>
			<path fill="#A42523" d="M933.373,170.306c3.2,3.665,7.911,6.996,12.572,3.979c1.884-1.22,3.396-3.027,4.806-4.744
				c1.359-1.656,2.939-3.58,2.387-5.862c-0.418-1.739-2.001-3.229-3.208-4.451c-1.667-1.689-3.249-2.103-5.36-0.854
				c-4.781,2.831-9.002,8.146-11.071,13.232c-0.526,1.292-2.457,0.322-1.938-0.957c1.41-3.461,3.585-6.451,6.125-9.171
				c2.141-2.291,4.933-5.107,8.042-5.954c4.145-1.129,8.72,4.4,9.574,7.938c0.549,2.273-0.611,4.377-1.875,6.17
				c-1.723,2.44-3.881,4.725-6.307,6.467c-5.336,3.828-11.425,0.124-15.183-4.18C931.034,170.884,932.458,169.258,933.373,170.306"
				/>
			<path fill="#A42523" d="M914.821,182.551c2.024-1.922,4.073-3.811,6.234-5.578c2.067-1.691,4.516-3.661,7.256-4.008
				c1.383-0.174,1.498,1.982,0.123,2.156c-2.292,0.292-4.473,2.279-6.206,3.665c-2.028,1.621-3.913,3.415-5.794,5.2
				C915.433,184.938,913.812,183.511,914.821,182.551"/>
			<path fill="#A42523" d="M916.706,183.207c0.249,3.344,4.658,8.514,8.256,8.338c3.704-0.182,8.251-4.75,9.414-8.027l0.062,1.064
				c-1.55-2.685-3.203-5.336-5.089-7.801c-0.633-0.826-2.069-2.038-1.269-3.252c0.965-1.461,2.591-2.021,3.878-3.136
				c1.037-0.901,2.663,0.524,1.612,1.436c-0.796,0.69-1.657,1.245-2.544,1.813c-1.311,0.839-0.187,1.545,0.482,2.419
				c1.418,1.853,2.646,3.857,3.855,5.849c0.67,1.104,1.248,1.721,0.792,3.007c-0.727,2.046-2.533,3.778-4.127,5.159
				c-2.812,2.437-6.344,4.596-10.023,2.928c-3.495-1.584-7.163-5.741-7.455-9.674C914.446,181.941,916.603,181.817,916.706,183.207"
				/>
		</g>
		<path fill="#0F8CCD" d="M1000.566,233.536c0,0,1.709-46.544,3.519-53.207c1.813-6.663-23.089-7.913-26.709-2.917
			c-2.248,3.101-0.867,42.359-1.776,46.316"/>
		<path fill="#0F8CCD" d="M979.96,189.19l-6.521,6.395l-7.531-11.519c0,0,9.791-7.421,14.053-8.365
			C990.255,173.42,979.96,189.19,979.96,189.19z"/>
		<path fill="#100805" d="M1032.372,126.712c0,18.824-28.148,34.315-40.205,34.315c-22.202,0-40.202-15.361-40.202-34.315
			c0-18.946,18-34.308,40.202-34.308C1014.374,92.404,1032.372,107.766,1032.372,126.712"/>
		<path fill="#100805" d="M1035.517,90.703c0,9.265-8.799,16.772-19.653,16.772c-10.856,0-19.656-7.508-19.656-16.772
			c0-9.263,8.8-16.772,19.656-16.772C1026.718,73.931,1035.517,81.44,1035.517,90.703"/>
		<path fill="#C5843C" d="M1003.656,127.651c0.033,0.038,0.063,0.069,0.086,0.093
			C1003.72,127.721,1003.687,127.688,1003.656,127.651"/>
		<path fill="#C5843C" d="M1000.597,124.396c-0.058-0.061-0.104-0.109-0.138-0.145
			C1000.488,124.285,1000.534,124.332,1000.597,124.396"/>
		<path fill="#FFFFFF" d="M1013.877,135.455c-0.995,0.037-2.071,0.354-3.005,0.872c-0.309,0.076-0.619,0.168-0.933,0.293
			c-0.651,0.262-1.237,0.687-1.82,1.057c-0.124,0.078-0.261,0.148-0.39,0.226c0.009-0.035,0.021-0.062,0.027-0.098
			c0.485-2.562-0.266-5.084-0.226-7.665c0.053-3.372-0.149-6.418-1.15-9.679c-1.884-6.142-9.261-6.939-15.211-7.694
			c-7.506-0.949-15.446-0.689-22.912,0.426c-2.558,0.38-4.083,1.624-5.05,3.286c0.28,0.457,0.455,1,0.439,1.659
			c-0.161,7.121-2.367,13.8-6.367,19.675c-2.226,3.879-4.876,7.714-4.673,11.994c0.306,6.34,25.878,11.179,30.921,12.836
			c5.914,1.947-3.508,19.406,8.432,15.143c1.948-0.693-1.484-15.687-0.197-16.081c2.531-0.327,15.654-11.236,17.69-12.579
			c2.667-1.472,5.782-3.114,7.423-5.564c0.014-0.018,0.028-0.031,0.043-0.049c0.353-0.453,0.578-0.922,0.701-1.39
			c0.188-0.515,0.322-1.059,0.373-1.64C1018.169,138.52,1016.31,135.373,1013.877,135.455"/>
		<path fill="#C5843C" d="M1000.46,124.254C1000.391,124.178,1000.395,124.186,1000.46,124.254"/>
		<path fill="#C5843C" d="M1003.742,127.744C1003.815,127.823,1003.81,127.817,1003.742,127.744"/>
		<path fill="none" stroke="#020203" stroke-width="0.993" stroke-miterlimit="10" d="M968.308,134.969
			c-0.336,1.696-1.487,2.891-2.571,2.676c-1.085-0.215-1.693-1.757-1.357-3.453c0.335-1.691,1.484-2.891,2.57-2.676
			C968.033,131.73,968.642,133.277,968.308,134.969z"/>
		<path fill="none" stroke="#020203" stroke-width="0.993" stroke-miterlimit="10" d="M990.066,136.237
			c-0.571,1.633-1.877,2.655-2.922,2.29c-1.044-0.364-1.431-1.979-0.86-3.612c0.569-1.628,1.879-2.653,2.923-2.288
			C990.252,132.992,990.636,134.609,990.066,136.237z"/>
		<path fill="#100805" d="M971.061,149.664c-0.634-0.719-2.36-2.382-1.74-3.525c0.538-0.994,2.104-0.645,2.987-0.498
			c2.003,0.334,3.957,0.98,5.916,1.492c0.571,0.147,5.016,0.824,5.156,1.387s0.547,2.027,0.167,1.29
			c-1.396-2.712-4.725-1.593-5.882-1.894c-1.86-0.484-3.702-1.059-5.596-1.407c-0.455-0.085-1.494-0.339-1.92-0.004
			c-0.457,0.358,1.387,2.343,1.549,2.524C972.077,149.463,971.444,150.1,971.061,149.664"/>
		<path fill="#FFFFFF" d="M999.115,239.812c0,0-4.833,2.307-9.606,4.488c0,0,8.395,34.19,10.516,42.401
			c2.031-0.313,4.058-0.646,6.086-1.004C1003.261,267.054,999.115,239.812,999.115,239.812"/>
		<path fill="#100805" d="M1005.14,279.346c-2.031,0.344-5.296,1.661-7.33,1.958c1.346,5.175,4.602,16.734,4.79,23.294
			c0.356,12.155,9.679,42.737,9.679,42.737s27.521,15.943,30.506,9.318c2.98-6.62-26.522-10.512-26.977-12.979
			c-3.684-19.976-4.589-27.604-6.776-39.593c-0.104-0.591-1.324-8.158-2.902-17.99"/>
		<path fill="#FFFFFF" d="M986.609,240.108c-4.854-1.397-9.787-2.901-9.787-2.901s-0.501,25.987-0.804,43.387
			c1.717,0.273,3.431,0.504,5.147,0.71c0.626-8.078,2.171-14.612,2.673-18.653L986.609,240.108z"/>
		<path fill="#100805" d="M975.973,223.23c0,0,12.542,6.441,25.044-0.515c1.097-0.61,7.354,35.159,7.354,35.159
			c-18.703,8.741-38.209-1.425-38.209-1.425L975.973,223.23z"/>
		<path fill="#020304" d="M974.761,131.579c0.338,2.8-0.277,4.929-1.082,7.587c-0.052,0.174-0.234,0.355-0.434,0.332
			c-1.16-0.146-2.268-0.262-3.356-0.71c-0.948-0.394-1.072,3.042-0.56,3.613c1.026,1.144,3.634,0.657,4.98,0.556
			c0.58-0.045,0.576,0.858,0,0.901c-1.744,0.132-3.726,0.388-5.297-0.56c-1.974-1.193-0.66-4.021,0.1-5.502
			c0.107-0.212,0.418-0.289,0.617-0.161c0.94,0.604,1.709,0.725,2.807,0.87c0.688,0.09,0.948-1.758,1.079-2.192
			c0.479-1.585,0.438-3.11,0.243-4.734C973.788,131.002,974.691,131.009,974.761,131.579"/>
		<path fill="#FFFFFF" d="M1014.927,90.799c-1.207-1.332-1.805-3.656,0.408-4.4c2.504-0.843,4.09,1.16,4.332,3.458h-0.952
			c0.411-3.6,3.335-5.27,6.73-4.104c3.031,1.043,3.687,3.936,0.936,5.723c-0.122-0.29-0.245-0.58-0.366-0.869
			c2.243-0.863,5.654-0.203,5.121,2.955c-0.725,4.293-4.814,4.26-8.318,4.629c-0.609,0.063-0.604-0.888,0-0.952
			c1.591-0.168,3.181-0.195,4.732-0.628c1.793-0.5,2.896-2.272,2.588-4.097c-0.329-1.938-2.694-1.441-3.871-0.99
			c-0.525,0.203-0.797-0.589-0.365-0.87c2.347-1.523,1.149-3.344-1.03-4.093c-2.641-0.907-4.894,0.553-5.204,3.296
			c-0.069,0.609-0.887,0.614-0.952,0c-0.441-4.185-5.668-2.547-3.117,0.269C1016.009,90.578,1015.339,91.253,1014.927,90.799"/>
		<path fill="#FFFFFF" d="M1020.763,114.833c1.973-0.908,4.681-0.885,5.978,1.191c1.255,2.011,0.161,3.679-1.983,4.212
			c-0.085-0.306-0.169-0.611-0.254-0.917c4.093-0.73,8.739,4.132,3.275,6.055c-0.296,0.104-0.602-0.166-0.602-0.459v-0.3
			c0-0.325,0.301-0.523,0.602-0.46c4.733,1.003,1.785,6.629-0.794,8.425c-0.505,0.352-0.979-0.474-0.479-0.822
			c1.868-1.302,4.831-5.879,1.019-6.686c0.201-0.153,0.401-0.306,0.604-0.457v0.3c-0.202-0.152-0.402-0.306-0.604-0.458
			c4.368-1.537-0.158-4.686-2.768-4.221c-0.594,0.106-0.857-0.767-0.254-0.917c1.664-0.413,2.394-1.604,1.23-3.04
			c-1.112-1.374-3.039-1.293-4.491-0.625C1020.69,115.91,1020.205,115.089,1020.763,114.833"/>
		<path fill="#FFFFFF" d="M973.519,106.816c-5.543-4.658,4.378-7.755,7.926-4.301c-0.264,0.155-0.53,0.31-0.796,0.464
			c-0.987-4.973,6.531-8.449,9.333-3.993c-0.29,0.122-0.58,0.243-0.87,0.366c-0.676-3.346,3.099-5.603,5.633-3.183
			c0.444,0.424-0.23,1.096-0.674,0.673c-1.806-1.727-4.54-0.207-4.042,2.257c0.105,0.524-0.574,0.835-0.87,0.366
			c-2.215-3.526-8.37-0.654-7.592,3.26c0.091,0.456-0.438,0.811-0.795,0.464c-2.646-2.578-11.011-0.77-6.579,2.953
			C974.66,106.538,973.986,107.208,973.519,106.816"/>
		<path fill="#FFFFFF" d="M994.553,107.211c-0.483-1.258-0.585-2.722-0.62-4.057c-0.007-0.23,0.152-0.378,0.35-0.458
			c1.991-0.833,3.749-0.586,5.502,0.653c0.496,0.351,0.03,1.17-0.478,0.821c-4.242-2.901,2.85-6.152,5.614-4.146
			c0.492,0.356,0.019,1.183-0.479,0.821c-1.786-1.296-7.508,0.553-4.658,2.504c-0.159,0.274-0.319,0.547-0.478,0.821
			c-0.423-0.298-4.453-2.101-4.41-0.526c0.03,1.104,0.176,2.279,0.573,3.312C995.691,107.531,994.77,107.777,994.553,107.211"/>
		<path fill="#0F8CCD" d="M1005.844,198.161c0,0-5.503-5.24-6.508-7.974c-1.844-5.007,1.868-10.047,2.582-13.235
			c0,0,12.118,10.166,12.777,10.24"/>
		<path fill="#100805" d="M975.804,296.899c0.423,8.381,0.886,20.7,0.389,39.194c-0.059,2.279-29.284,2.971-25.452,8.566
			c3.831,5.591,29.354-5.721,29.354-5.721s3.631-22.404,1.367-40.692c-0.709-5.732,0.368-13.075,0.742-17.904
			c-1.715-0.206-5.012,0.256-6.729-0.017C975.33,288.708,975.776,296.364,975.804,296.899"/>
		<path fill="#FFFFFF" d="M981.261,179.786c0,0,11.193,11.617,13.254,10.908c0,0-2.701-3.301-2.041-5.241
			c0.658-1.939,2.021-1.597,2.021-1.597s0.122,2.291,1.979,4.814c3.188,4.332,2.844,7.29,3.087,12.074c0,0,35.725,36.462,7.201-5.16
			c-0.981,1.839,6.715-7.575,6.037-5.615c39.873,68.154-16.595,14.834-16.595,14.834l-5.907-0.62c0,0-2.032-0.744-8.811-5.193
			c-1.934-1.271-7.796-3.227-8.421-3.466c-1.272-0.491-0.458-1.333,0.174-1.384c2.215-0.176,7.412,2.093,8.439,2.178
			c0.909,0.077,0.555-1.082,0.555-1.082l-9.552-5.176c0,0-1.687-1.794-0.198-1.886c1.49-0.092,10.381,4.597,10.381,4.597
			s2.057-0.417-1.665-3.565c-1.606-1.358-6.204-5.169-6.791-5.684c-0.301-0.261,0.909-2.267,2.149-1.279
			c0.902,0.714,7.218,6.21,8.395,6.6c1.587,0.525,1.159-0.951,1.159-0.951s-6.274-6.434-6.438-6.782
			C978.698,179.03,981.261,179.786,981.261,179.786z"/>
		<path fill="#FFFFFF" d="M974.644,190.506c0,0-2.768,37.715-24.014,30.475c-15.438-5.263-18.621-9.787-18.621-9.787l-0.43-7.277
			c0,0,18.585,11.634,25.268,8.45c9.791-4.665,13.314-27.833,13.314-27.833L974.644,190.506z"/>
		<path fill="#FFFFFF" d="M934.888,195.233c-4.389-1.456-6.424-6.694-6.424-6.694s-2.758,1.559-1.628,4.642
			c1.129,3.083,4.361,4.997,4.361,4.997s-2.317,3.559-7.44,0.912c-4.437-2.293-2.613-5.438-2.045-6.241
			c-0.08-0.036-0.162-0.064-0.239-0.108c-0.479-0.27-0.911-0.583-1.316-0.92c-0.368-0.205-0.659-0.485-0.877-0.812
			c-0.165-0.171-0.317-0.355-0.473-0.535c-0.256,0.673-0.525,1.531-0.809,2.622c-1.352,5.208,2.186,7.799,2.753,8.175
			c-0.821-0.536-7.845-5.146-9.632-6.913c-1.615-1.602-5.129-0.158-1.609,2.966c3.899,3.457,9.591,6.919,9.591,6.919
			s-6.211-1.421-9.117-2.501c-4.497-1.671-4.484,2.008,2.078,3.946c2.863,0.845,6.654,2.257,6.654,2.257
			c-0.042,1.07-8.731,2.188-8.162,3.821c0.568,1.634,9.857-0.58,9.857-0.58l11.598,0.009l0.833-5.551
			C932.842,205.643,939.277,196.688,934.888,195.233z"/>
		<path fill="none" stroke="#A42523" stroke-width="2" stroke-miterlimit="10" d="M916.44,187.422c0,0-9.271-22.553-9.565-26.203
			c-0.478-5.92,3.728-7.017,8.169-3.168"/>
		<path fill="none" stroke="#A42523" stroke-width="2" stroke-miterlimit="10" d="M948.458,157.574c0,0-7.858-23.291-7.998-26.917
			c-0.228-5.88,3.758-6.457,7.783-2.142"/>
		<g>
			<g>
				<path fill="#100805" d="M971.197,149.803c1.953-0.885,4.639-0.377,6.733-0.529c1.037-0.075,2.048-0.237,3.09-0.248
					c1.898,2.032,2.012,3.136,0.339,3.311c-0.749,0.157-1.505,0.219-2.267,0.187c-2.117,0.002-4.045-0.906-5.971-1.65
					c-0.812-0.314-1.428,0.288-1.736,0.924c-1.194,2.457,1.443,3.185,3.156,3.603c3.948,0.963,6.296-0.142,9.08-2.837
					c0.464-0.449-0.244-1.156-0.707-0.707c-2.212,2.142-4.142,3.24-7.312,2.745c-0.532-0.102-1.061-0.221-1.585-0.358
					c-1.257-0.055-1.234-0.688,0.067-1.896c0.797,0.348,1.624,0.589,2.461,0.815c1.696,0.459,6.526,1.015,7.498-1.133
					c0.791-1.748-0.346-3.688-2.307-3.919c-2.131-0.25-4.329,0.248-6.474,0.281c-1.635,0.025-3.056-0.138-4.57,0.549
					C970.106,149.205,970.615,150.067,971.197,149.803L971.197,149.803z"/>
			</g>
		</g>
		<g>
			<g>
				<path fill="#100805" d="M987.47,125.619c0.134,2.535,2.26,4.603,4.808,4.629c0.646,0.007,0.645-0.994,0-1
					c-1.984-0.021-3.703-1.638-3.808-3.629C988.436,124.978,987.436,124.975,987.47,125.619L987.47,125.619z"/>
			</g>
		</g>
		<g>
			<g>
				<path fill="#100805" d="M964.731,126.924c0.074-0.937,0.499-1.875,0.984-2.67c0.595-0.976,2.003-1.077,2.292,0.206
					c0.142,0.629,1.106,0.362,0.965-0.266c-0.326-1.446-1.874-2.099-3.16-1.429c-1.281,0.668-1.977,2.843-2.081,4.158
					C963.681,127.567,964.681,127.562,964.731,126.924L964.731,126.924z"/>
			</g>
		</g>
		<polygon fill="#0E8CCD" points="940.45,354.87 940.45,362.18 1022.396,381.45 1022.52,371.482 		"/>
	</g>
</g>
<g>
	<g>
		<path fill="#100805" d="M696.861,284.759c5.531-1.09,11.154-2.296,11.154-2.296s-2.451,29.492-4.116,49.681
			c-2.207-0.132-4.408-0.289-6.607-0.469c-0.173-9.106-1.73-16.629-1.956-22.48L696.861,284.759z"/>
		<path fill="#100805" d="M695.608,350.647c1.434-6.901,1.804-13.231,1.684-18.973c2.201,0.196,4.402,0.369,6.609,0.516
			c-0.798,10.666-1.408,18.874-1.444,19.519c-0.699,13.069-1.652,21.264-2.779,43.049c-0.139,2.691,26.417,4.953,21.655,11.129
			c-4.768,6.177-26.255-8.183-26.255-8.183S692.954,363.436,695.608,350.647z"/>
	</g>
	<path fill="#100805" d="M713.737,351.426c1.277-6.069,1.724-11.836,1.763-17.039c0.065-8.699-0.997-15.834-1.167-20.202
		l-0.916-24.375c5.321-1.056,10.738-2.215,10.738-2.215s-1.823,27.853-3.082,46.501c-0.606,8.982-1.083,15.83-1.16,16.402
		c-1.214,8.928-2.827,22.071-3.979,41.907c-0.144,2.444,25.421,4.423,20.809,10.064c-4.605,5.633-25.242-7.373-25.242-7.373
		S709.651,370.791,713.737,351.426z"/>
	<path fill="#0E8CCD" d="M692.628,312.783c0,0-0.424-81.551-2.365-88.705c-1.948-7.155,24.797-8.498,28.684-3.134
		c2.416,3.331,11.047,84.192,8.23,87.521C720.843,315.951,692.628,312.783,692.628,312.783z"/>
	<path fill="#A42523" d="M680.78,211.799c0.858,0.807,47.242,1.945,45.576,1.11c-3.145-1.571,11.114-27.719,11.114-48.075
		c0-20.348-10.564-35.187-34.41-35.187C679.212,129.647,657.438,189.845,680.78,211.799z"/>
	<g>
		<g>
			<path fill="#C5843D" d="M690.724,167.503c-0.035,0.04-0.07,0.074-0.094,0.1C690.653,167.577,690.69,167.541,690.724,167.503z"/>
			<path fill="#C5843D" d="M694.009,164.007c0.062-0.065,0.112-0.118,0.146-0.153C694.125,163.887,694.074,163.938,694.009,164.007z
				"/>
			<path fill="#FFFFFF" d="M679.745,175.883c1.067,0.041,2.225,0.381,3.229,0.938c0.331,0.078,0.665,0.179,0.999,0.313
				c0.703,0.282,1.331,0.736,1.958,1.133c0.133,0.085,0.279,0.161,0.418,0.245c-0.011-0.038-0.023-0.068-0.031-0.106
				c-0.521-2.751,0.285-5.458,0.244-8.231c-0.021-1.318,0-2.59,0.08-3.843c6.893-0.556,13.799-0.913,20.71-0.904
				c5.67,0.006,11.466-0.226,17.12,0.18c3.099,0.222,6.086,0.458,9.09,0.077c0.415,0.007,0.83,0.026,1.248,0.021
				c1.115,4.509,3.043,8.776,5.721,12.71c2.389,4.166,5.235,8.284,5.016,12.881c-0.326,6.809-27.789,12.007-33.205,13.787
				c-6.354,2.089,3.766,20.843-9.059,16.263c-2.09-0.746,1.596-16.847,0.215-17.271c-2.721-0.35-16.812-12.068-18.999-13.511
				c-2.865-1.579-6.212-3.344-7.973-5.976c-0.016-0.019-0.032-0.034-0.046-0.052c-0.379-0.487-0.621-0.99-0.753-1.492
				c-0.205-0.553-0.348-1.138-0.401-1.761C675.137,179.175,677.131,175.795,679.745,175.883z"/>
			<path fill="#C5843D" d="M694.155,163.854C694.23,163.772,694.227,163.779,694.155,163.854L694.155,163.854z"/>
		</g>
		<path fill="#C5843D" d="M690.63,167.603C690.552,167.686,690.558,167.682,690.63,167.603L690.63,167.603z"/>
	</g>
	<path fill="none" stroke="#020303" stroke-width="1.0188" stroke-miterlimit="10" d="M727.589,178.535
		c0.203,1.844,1.324,3.229,2.505,3.099c1.183-0.13,1.974-1.725,1.77-3.571c-0.203-1.841-1.322-3.229-2.505-3.1
		C728.179,175.094,727.386,176.692,727.589,178.535z"/>
	
		<ellipse fill="none" stroke="#020303" stroke-width="1.0188" stroke-miterlimit="10" cx="703.066" cy="180.058" rx="2.151" ry="3.356"/>
	<path fill="#FFFFFF" d="M696.826,221.17"/>
	<g>
		<path fill="#FFFFFF" d="M719.404,175.176c-0.513,3.69,0.12,4.54,1.144,8.02c1.541-0.205,2.998-0.274,4.021-1.097
			c3.654,6.724-2.344,5.985-5.164,5.781"/>
		<g>
			<path fill="#020304" d="M718.939,175.176c-0.363,3.005,0.298,5.289,1.16,8.143c0.055,0.18,0.243,0.367,0.448,0.341
				c1.242-0.156,2.432-0.278,3.599-0.761c1.017-0.421,1.184,3.225,0.709,3.825c-1.063,1.347-3.982,0.801-5.451,0.691
				c-0.598-0.045-0.594,0.885,0,0.93c1.883,0.141,4.138,0.454,5.788-0.683c1.954-1.345,0.58-4.234-0.223-5.798
				c-0.112-0.218-0.432-0.299-0.636-0.167c-1.012,0.654-1.842,0.782-3.024,0.938c-0.757,0.1-1.035-1.894-1.179-2.369
				c-0.516-1.703-0.473-3.345-0.262-5.09C719.94,174.582,719.011,174.589,718.939,175.176L718.939,175.176z"/>
		</g>
	</g>
	<g>
		<g>
			<path fill="#020303" d="M723.277,190.348c-4.711,0.347-9.946,0.154-13.051-3.958c-0.237-0.314-0.834-0.36-0.931,0.122
				c-0.489,2.448-0.807,4.896-0.955,7.388c-0.088,1.483,0.208,3.014,1.591,3.829c3.412,2.012,7.407,1.931,10.828-0.006
				c0.572-0.324,0.059-1.204-0.514-0.88c-2.908,1.647-6.125,1.798-9.159,0.385c-3.218-1.499-1.302-7.976-0.809-10.445
				c-0.311,0.041-0.621,0.082-0.931,0.122c3.34,4.425,8.779,4.841,13.93,4.462C723.929,191.319,723.934,190.3,723.277,190.348
				L723.277,190.348z"/>
		</g>
	</g>
	<path fill="#100805" d="M711.328,259.908c0.118-0.054,0.229-0.106,0.346-0.16c-0.929-1.238-1.911-2.459-2.839-3.698
		C709.7,257.371,710.728,258.579,711.328,259.908z"/>
	<path fill="#FFFFFF" d="M718.946,220.944v6.027c0,0,27.492,13.002,26.611,22.602c-0.502,5.474-4.239,4.251-7.36,2.189
		c-2.351-1.553-4.353-3.581-4.353-3.581l-0.096-0.459c0.115-0.664,0.13-1.378-0.01-2.148c-0.156-0.857-0.492-1.648-0.929-2.388
		l-0.915-4.428c0,0-2.049-0.539-4.268-0.362c-1.869-1.109-3.436-1.689-3.436-1.689l-8.138,3.13c0,0,1.439,8.345,0,9.388
		c-0.38,0.275-2.949,1.778-6.638,3.639c-0.002-0.003-0.004-0.006-0.006-0.01c-10.606,5.125-27.583,11.628-32.012,4.021
		c-6.43-11.042,17.048-27.8,17.048-27.8s4.845-4.763-2.099-6.04c0,0-35.132,25.494-19.472,38.707
		c9.696,8.183,26.975,3.032,38.733-2.077c0.021,0.028,0.043,0.056,0.063,0.083c6.078-2.787,10.231-5.308,10.231-5.308l5.83-0.347
		c0,0,0.796-0.32,1.809-0.951c1.457,1.107,3.675,2.611,6.201,3.705c4.807,2.079,10.73,2.671,14.684-3.798
		C758.079,240.532,718.946,220.944,718.946,220.944z"/>
</g>
<g>
	<path fill="#100805" d="M784.872,129.826c0,0-19.554-3.386-22.307,17.353c-2.754,20.738-18.251,38.092,3.187,46.272
		c21.438,8.182,50.696,3.104,55.91-5.784c5.216-8.888-3.476-27.507-10.137-42.321C804.861,130.532,791.971,126.299,784.872,129.826z
		"/>
	<path fill="#FFFFFF" d="M805.136,212.416c16.409-36.94,27.364-97.01,27.364-97.01c-3.709-4.868-1.792-7.538-1.575-13.974
		c0.125-3.747-1.645-6.08-1.645-6.08s1.354-1.267,3.771,0.189c2.415,1.456,1.927,6.543,1.927,6.543
		c3.074-0.709,6.834-19.767,6.834-19.767s2.453-2.492,3.019,0.219c0.096,0.453-2.079,11.058-2.079,11.058s0.721,1.742,2.193,0.144
		c1.09-1.187,4.098-10.898,4.588-12.215c0.668-1.818,3.801-0.672,3.659-0.21c-0.277,0.907-2.626,7.788-3.425,10.221
		c-1.85,5.634,0.977,4.639,0.977,4.639s6.786-10.675,8.656-11.602c1.869-0.927,1.34,1.989,1.34,1.989l-7.174,11.605
		c0,0,0.543,1.381,1.572,0.686c1.168-0.786,5.529-6.563,8.342-7.902c0.806-0.381,2.489-0.11,1.366,1.241
		c-0.55,0.661-5.974,6.584-7.239,9.153c-4.443,8.998-6.267,11.117-6.267,11.117l-4.332,5.07c0,0-18.786,93.26-29.824,101.479
		C814.905,220.706,805.087,212.526,805.136,212.416z"/>
	<polygon fill="#0E8CCD" points="799.86,199.171 813.652,182.095 834.135,184.584 816.997,226.381 	"/>
	<path fill="#0E8CCD" d="M810.778,379.672c0.046,0.051,0.129-0.027,0.245-0.222C810.714,379.417,810.604,379.482,810.778,379.672z"
		/>
	<path fill="#0E8CCD" d="M831.812,271.868c0.909-22.979-1.407-44.619-9.954-58.967c-11.129-18.677-24.047-37.128-57.476-7.997
		c-14.565,12.693-12.057,47.398-4.591,82.524C785.239,289.644,808.271,280.197,831.812,271.868z"/>
	<path fill="#100805" d="M811.023,379.45c-0.116,0.194-0.199,0.272-0.245,0.222C810.604,379.482,810.714,379.417,811.023,379.45
		c2.386-4.009,18.858-58.815,20.789-107.582c-23.541,8.329-47.593,12.809-73.04,10.595c9.671,45.494,28.68,96.661,28.68,96.661
		s-25.412,14.28-21.894,16.375c10.614,6.318,30.495-9.521,30.495-9.521s-0.349-77.474,0.99-77.076
		c0.63,0.188,2.602,76.952,3.31,77.457c10.165,7.237,27.265,9.64,28.151,5.332C829.546,386.611,813.499,379.713,811.023,379.45z"/>
	<path fill="#FFFFFF" d="M812.882,183.409c-4.91,15.766-26.809,16.172-38.617,7.132c-7.932-6.07-8.886-14.614-7.662-23.825
		c0.031-0.232,0.076-0.462,0.107-0.693c-0.447-1.08,2.626-14.676,2.686-15.068c0.021-0.126,0.04-0.25,0.06-0.375
		c-1.587-0.244-2.931-1.53-2.214-3.406c3.185-8.329,9.486-14.108,18.65-15.501c8.037-1.22,16.583,1.542,21.738,7.722
		c2.229,2.672,3.693,5.834,4.665,9.175c0.394,0.759,0.767,1.528,1.1,2.324c0.288,0.689,0.196,1.37-0.119,1.954
		c0.456,2.61,0.69,5.249,0.814,7.783C814.444,167.945,815.095,176.305,812.882,183.409z"/>
	<g>
		<g>
			<path fill="#1E1E1C" d="M783.342,173.681c0.467-0.909,2.453-1.133,3.328-1.323c2.141-0.465,4.346-0.643,6.53-0.739
				c2.535-0.111,9.033-0.674,10.534,2.062c0.345,0.627,1.303,0.067,0.959-0.561c-1.788-3.258-8.492-2.71-11.493-2.611
				c-2.42,0.08-4.853,0.35-7.22,0.864c-1.117,0.243-3.007,0.599-3.598,1.747C782.057,173.756,783.015,174.317,783.342,173.681
				L783.342,173.681z"/>
		</g>
	</g>
	<g>
		<g>
			<path fill="#1E1E1C" d="M787.927,161.854c-3.411,5.378,14.371,6.017,11.481-0.12c-0.305-0.647-1.262-0.083-0.959,0.561
				c1.711,3.632-11.642,3.396-9.563,0.12C789.27,161.808,788.31,161.251,787.927,161.854L787.927,161.854z"/>
		</g>
	</g>
	
		<ellipse fill="none" stroke="#1E1E1C" stroke-width="1.1191" stroke-miterlimit="10" cx="783.482" cy="157.853" rx="1.466" ry="2.729"/>
	
		<ellipse fill="none" stroke="#1E1E1C" stroke-width="1.1191" stroke-miterlimit="10" cx="802.747" cy="157.288" rx="1.467" ry="2.729"/>
	<path fill="#100805" d="M781.542,131.942c0,0-2.027,7.478,2.752,11.004c4.781,3.526,22.994,1.901,28.388,18.341
		c5.648,17.211,3.477,10.158,5.069,5.784C819.346,162.698,814.134,116.706,781.542,131.942z"/>
	<path fill="#100805" d="M784.438,133.354c0,0,0.437,9.029-7.388,13.402c-7.821,4.374-13.471,22.432-13.182,22.996
		C764.157,170.315,757.206,124.606,784.438,133.354z"/>
	<path fill="#FFFFFF" d="M807.311,194.658c0,8.44-4.591,26.523-14.875,26.523s-24.732-12.262-21.259-19.993
		c2.053-4.569,10.975-10.566,21.259-10.566S807.311,190.375,807.311,194.658z"/>
	<path fill="#FFFFFF" d="M755.309,226.597l12.99,3.562c0,0-1.936,49.461,0.772,61.119c2.706,11.658,5.413,1.766,8.506,8.125
		c3.094,6.359-1.935,11.658-1.935,11.658s-4.251-5.299-3.865-6.711c0.386-1.414,1.934,12.01,1.16,14.129
		c-0.774,2.121-19.72-5.648-16.241-16.952C760.176,290.22,755.309,226.597,755.309,226.597z"/>
	<path fill="#FFFFFF" d="M831.998,262.821c0,0-68.368,19.268-73.226,19.642c-4.857,0.373,30.526,5.132,72.89-7.322L831.998,262.821z
		"/>
</g>
<g>
</g>
<g>
</g>
<g>
</g>
<g>
</g>
<g>
</g>
<g>
</g>
</svg>
