<?xml version="1.0" encoding="utf-8"?>
<!-- Generator: Adobe Illustrator 16.0.4, SVG Export Plug-In . SVG Version: 6.00 Build 0)  -->
<!DOCTYPE svg PUBLIC "-//W3C//DTD SVG 1.1//EN" "http://www.w3.org/Graphics/SVG/1.1/DTD/svg11.dtd">
<svg version="1.1" id="Layer_1" xmlns="http://www.w3.org/2000/svg" xmlns:xlink="http://www.w3.org/1999/xlink" x="0px" y="0px"
	 width="1103.432px" height="517.497px" viewBox="0 0 1103.432 517.497" enable-background="new 0 0 1103.432 517.497"
	 xml:space="preserve">
<g>
	<g>
		<path fill="#100805" d="M696.861,284.758c5.531-1.09,11.154-2.295,11.154-2.295s-2.451,29.492-4.116,49.681
			c-2.207-0.132-4.408-0.289-6.607-0.47c-0.173-9.105-1.729-16.629-1.955-22.479L696.861,284.758z"/>
		<path fill="#100805" d="M695.608,350.647c1.434-6.9,1.804-13.23,1.684-18.973c2.201,0.195,4.402,0.369,6.609,0.516
			c-0.798,10.666-1.408,18.874-1.443,19.52c-0.699,13.068-1.652,21.264-2.779,43.049c-0.139,2.691,26.417,4.953,21.655,11.129
			c-4.769,6.177-26.256-8.184-26.256-8.184S692.954,363.436,695.608,350.647z"/>
	</g>
	<path fill="#100805" d="M713.737,351.426c1.277-6.069,1.725-11.836,1.764-17.039c0.064-8.699-0.997-15.834-1.168-20.202
		l-0.916-24.375c5.321-1.056,10.738-2.216,10.738-2.216s-1.823,27.854-3.082,46.502c-0.605,8.982-1.083,15.83-1.16,16.402
		c-1.214,8.928-2.826,22.07-3.979,41.906c-0.145,2.444,25.421,4.424,20.809,10.064c-4.604,5.633-25.241-7.373-25.241-7.373
		S709.651,370.792,713.737,351.426z"/>
	<path fill="#0E8CCD" d="M692.629,312.784c0,0-0.425-81.552-2.365-88.706c-1.948-7.155,24.797-8.498,28.684-3.134
		c2.416,3.331,11.047,84.191,8.23,87.521C720.844,315.952,692.629,312.784,692.629,312.784z"/>
	<path fill="#A42523" d="M680.78,211.799c0.858,0.807,47.242,1.945,45.576,1.11c-3.145-1.571,11.114-27.719,11.114-48.075
		c0-20.348-10.564-35.187-34.41-35.187C679.213,129.647,657.438,189.845,680.78,211.799z"/>
	<g>
		<g>
			<path fill="#C5843D" d="M690.724,167.503c-0.035,0.04-0.07,0.074-0.094,0.1C690.653,167.577,690.69,167.541,690.724,167.503z"/>
			<path fill="#C5843D" d="M694.01,164.007c0.062-0.065,0.111-0.118,0.146-0.153C694.126,163.887,694.074,163.938,694.01,164.007z"
				/>
			<path fill="#FFFFFF" d="M679.745,175.883c1.067,0.041,2.226,0.381,3.229,0.938c0.331,0.078,0.665,0.179,0.999,0.313
				c0.703,0.282,1.331,0.736,1.958,1.133c0.133,0.085,0.279,0.161,0.418,0.245c-0.011-0.038-0.023-0.068-0.031-0.105
				c-0.521-2.751,0.285-5.458,0.244-8.231c-0.021-1.318,0-2.59,0.08-3.843c6.893-0.556,13.799-0.913,20.71-0.904
				c5.67,0.006,11.466-0.226,17.12,0.18c3.099,0.222,6.086,0.458,9.09,0.077c0.415,0.007,0.83,0.026,1.248,0.021
				c1.115,4.509,3.043,8.776,5.721,12.71c2.39,4.166,5.235,8.284,5.017,12.881c-0.326,6.809-27.789,12.007-33.205,13.787
				c-6.354,2.089,3.766,20.843-9.06,16.263c-2.09-0.746,1.597-16.847,0.216-17.271c-2.722-0.35-16.812-12.068-18.999-13.511
				c-2.865-1.579-6.212-3.344-7.974-5.976c-0.016-0.019-0.032-0.034-0.046-0.052c-0.379-0.487-0.621-0.99-0.753-1.492
				c-0.205-0.553-0.348-1.138-0.401-1.761C675.137,179.175,677.132,175.795,679.745,175.883z"/>
			<path fill="#C5843D" d="M694.155,163.854C694.23,163.772,694.227,163.779,694.155,163.854L694.155,163.854z"/>
		</g>
		<path fill="#C5843D" d="M690.631,167.603C690.552,167.686,690.558,167.682,690.631,167.603L690.631,167.603z"/>
	</g>
	<path fill="none" stroke="#020303" stroke-width="1.0188" stroke-miterlimit="10" d="M727.59,178.535
		c0.202,1.844,1.323,3.229,2.505,3.099c1.183-0.13,1.974-1.725,1.77-3.571c-0.203-1.841-1.322-3.229-2.505-3.1
		C728.179,175.094,727.386,176.692,727.59,178.535z"/>
	
		<ellipse fill="none" stroke="#020303" stroke-width="1.0188" stroke-miterlimit="10" cx="703.066" cy="180.058" rx="2.151" ry="3.356"/>
	<path fill="#FFFFFF" d="M696.826,221.17"/>
	<g>
		<path fill="#FFFFFF" d="M719.404,175.176c-0.513,3.69,0.12,4.54,1.145,8.02c1.541-0.205,2.998-0.274,4.021-1.097
			c3.654,6.724-2.344,5.985-5.164,5.781"/>
		<g>
			<path fill="#020304" d="M718.939,175.176c-0.363,3.005,0.298,5.289,1.16,8.143c0.055,0.18,0.243,0.367,0.448,0.341
				c1.241-0.156,2.432-0.278,3.599-0.761c1.017-0.421,1.184,3.225,0.709,3.825c-1.063,1.347-3.982,0.801-5.451,0.691
				c-0.598-0.045-0.594,0.885,0,0.93c1.883,0.141,4.138,0.454,5.788-0.683c1.954-1.345,0.58-4.234-0.223-5.798
				c-0.112-0.218-0.433-0.299-0.637-0.167c-1.012,0.654-1.842,0.782-3.023,0.938c-0.757,0.1-1.035-1.894-1.179-2.369
				c-0.517-1.703-0.474-3.345-0.263-5.09C719.94,174.582,719.011,174.589,718.939,175.176L718.939,175.176z"/>
		</g>
	</g>
	<g>
		<g>
			<path fill="#020303" d="M723.277,190.348c-4.711,0.347-9.946,0.154-13.051-3.958c-0.237-0.314-0.834-0.36-0.931,0.122
				c-0.489,2.448-0.808,4.896-0.955,7.388c-0.089,1.483,0.208,3.014,1.591,3.829c3.412,2.012,7.407,1.931,10.828-0.006
				c0.571-0.324,0.059-1.204-0.515-0.88c-2.908,1.647-6.125,1.798-9.158,0.385c-3.219-1.499-1.303-7.976-0.81-10.445
				c-0.311,0.041-0.621,0.082-0.931,0.122c3.34,4.425,8.778,4.841,13.93,4.462C723.929,191.319,723.934,190.3,723.277,190.348
				L723.277,190.348z"/>
		</g>
	</g>
	<path fill="#100805" d="M711.328,259.909c0.118-0.055,0.229-0.107,0.347-0.16c-0.93-1.239-1.911-2.459-2.839-3.699
		C709.7,257.371,710.728,258.579,711.328,259.909z"/>
	<path fill="#FFFFFF" d="M718.946,220.944v6.027c0,0,27.492,13.002,26.611,22.602c-0.502,5.474-4.239,4.251-7.36,2.188
		c-2.351-1.553-4.353-3.581-4.353-3.581l-0.097-0.459c0.115-0.664,0.131-1.378-0.01-2.148c-0.156-0.857-0.492-1.648-0.929-2.388
		l-0.915-4.428c0,0-2.049-0.539-4.269-0.362c-1.868-1.109-3.436-1.689-3.436-1.689l-8.138,3.13c0,0,1.438,8.345,0,9.388
		c-0.38,0.275-2.949,1.778-6.639,3.639c-0.002-0.003-0.004-0.006-0.006-0.01c-10.605,5.125-27.583,11.628-32.012,4.021
		c-6.43-11.042,17.048-27.8,17.048-27.8s4.845-4.763-2.099-6.04c0,0-35.132,25.494-19.473,38.708
		c9.696,8.182,26.976,3.031,38.733-2.078c0.021,0.028,0.043,0.057,0.062,0.084c6.078-2.788,10.231-5.309,10.231-5.309l5.83-0.347
		c0,0,0.796-0.32,1.809-0.951c1.457,1.107,3.676,2.611,6.201,3.705c4.808,2.079,10.73,2.671,14.685-3.798
		C758.079,240.532,718.946,220.944,718.946,220.944z"/>
</g>
</svg>
