<?xml version="1.0" encoding="utf-8"?>
<!-- Generator: Adobe Illustrator 16.0.4, SVG Export Plug-In . SVG Version: 6.00 Build 0)  -->
<!DOCTYPE svg PUBLIC "-//W3C//DTD SVG 1.1//EN" "http://www.w3.org/Graphics/SVG/1.1/DTD/svg11.dtd">
<svg version="1.1" id="Layer_1" xmlns="http://www.w3.org/2000/svg" xmlns:xlink="http://www.w3.org/1999/xlink" x="0px" y="0px"
	 width="1103.432px" height="517.497px" viewBox="0 0 1103.432 517.497" enable-background="new 0 0 1103.432 517.497"
	 xml:space="preserve">
<g>
	<path fill="#100805" d="M858.318,169.666c-0.406-0.275-0.845-0.512-1.298-0.726c-0.214-1.596-1.891-3.032-3.688-1.953
		c-0.508,0.306-0.982,0.659-1.43,1.039c-0.267,0.028-0.53,0.063-0.793,0.118c-2.756,0.58-4.611,3.751-3.585,6.394
		c0.416,1.075,1.121,1.99,1.986,2.716c0.732,1.084,1.875,1.881,3.28,2.109c2.716,0.438,6.856-0.477,8.188-3.195
		C862.282,173.51,860.467,171.121,858.318,169.666z"/>
	<g>
		<g>
			<path fill="#1E1E1C" d="M852.746,167.113c1.739,0.489,3.573,0.245,5.101,1.364c0.519,0.381,1.014-0.484,0.502-0.859
				c-1.615-1.185-3.499-0.948-5.336-1.464C852.392,165.979,852.13,166.939,852.746,167.113L852.746,167.113z"/>
		</g>
	</g>
	<g>
		<g>
			<path fill="#1E1E1C" d="M853.856,165.393c1.775-0.075,3.575,0.256,5.186,1.019c0.575,0.273,1.081-0.584,0.502-0.859
				c-1.77-0.839-3.73-1.238-5.688-1.155C853.218,164.424,853.215,165.419,853.856,165.393L853.856,165.393z"/>
		</g>
	</g>
	<path fill="#FFFFFF" d="M854.706,198.599l4.334,5.334c-6.777,30.847-6.608,31.009-5.335,45.35
		c1.335,15.002,4.335,15.002,4.335,15.002s-0.332,8.336-0.666,10.004c-0.333,1.664-7.064-13.719-8.669-22.34
		C846.038,237.609,854.372,201.6,854.706,198.599z"/>
	<path fill="#FFFFFF" d="M885.221,198.611l-4.335,5.334c6.778,30.847,6.609,31.012,5.336,45.35
		c-1.336,15.002-4.337,15.002-4.337,15.002s0.335,8.336,0.667,10.004c0.333,1.664,7.065-13.717,8.67-22.34
		C893.889,237.622,885.556,201.612,885.221,198.611z"/>
	<path fill="#FFFFFF" d="M874.657,301.404c0,0-1.922,70.154-0.319,74.32c1.601,4.161,27.438,14.632,18.898,16.019
		c-11.853,1.92-24.346-14.098-24.346-14.098v-75.921h-7.05c0,0,2.563,77.843,1.604,77.843s-11.213,11.53-21.463,9.932
		c-4.705-0.734,16.337-12.812,16.337-12.812s-2.243-78.164-1.281-77.846C857.998,299.161,874.657,301.404,874.657,301.404z"/>
	<path fill="#A42523" d="M886.993,199.498c0,0-4.904-12.334-17.685-11.442c-12.782,0.891-15.753,12.632-15.753,12.632l5.498,6.092
		c0,0-11.174,79.167-13.996,90.314c-2.823,11.146,35.676,8.334,40.011,6c4.336-2.332-6.335-95.027-6.335-95.027"/>
	<path fill="#100805" d="M844.87,143.263c0,15.096,12.397,27.334,27.693,27.334c15.294,0,28.74-12.61,28.74-27.707
		c0-15.097-13.446-26.96-28.74-26.96C857.268,115.93,844.87,128.168,844.87,143.263z"/>
	<path fill="#FFFFFF" d="M856.613,147.994c0.257,5.51,0.531,11.035,1.182,16.517c0.636,5.375,1.646,13.337,7.837,15.206
		c5.548,1.675,12.257-0.08,16.381-4.168c7.416-7.353,8.403-18.065,9.718-28.155c2.252-4.616,3.222-9.98,0.41-14.536
		c-3.913-6.342-11.681-9.589-18.979-8.857c-6.649,0.668-13.196,5.348-15.549,11.682
		C856.103,139.747,856.413,143.724,856.613,147.994z"/>
	<path fill="#100805" d="M867.547,122.433c0.034-0.103,0.085-0.188,0.129-0.279c0.283-0.9,1.04-1.61,2.282-1.557
		c7.049,0.302,15.26,0.669,21.049,5.226c4.315,3.396,5.66,8.182,6.156,13.245c0.726,2.382,1.178,4.947,0.238,7.028
		c-0.133,1.59-0.556,3.095-1.684,4.351c-0.311,0.343-0.642,0.577-0.979,0.729c2.173,1.718-0.228,5.523-2.912,4.055
		c-6.748-3.691-12.402-9.766-17.366-15.553C870.731,135.336,865.44,128.545,867.547,122.433z"/>
	<path fill="#100805" d="M890.344,169.119c0.406-0.283,0.845-0.526,1.298-0.747c0.214-1.642,1.891-3.12,3.688-2.01
		c0.509,0.314,0.981,0.678,1.429,1.068c0.269,0.03,0.53,0.066,0.793,0.123c2.757,0.598,4.611,3.86,3.586,6.581
		c-0.417,1.106-1.121,2.049-1.986,2.795c-0.732,1.116-1.874,1.938-3.281,2.172c-2.715,0.451-6.854-0.49-8.188-3.29
		C886.381,173.076,888.196,170.617,890.344,169.119z"/>
	
		<ellipse fill="none" stroke="#1E1E1C" stroke-width="1.0041" stroke-miterlimit="10" cx="879.806" cy="150.438" rx="1.25" ry="2.392"/>
	
		<ellipse fill="none" stroke="#1E1E1C" stroke-width="1.0041" stroke-miterlimit="10" cx="866.11" cy="149.569" rx="1.25" ry="2.392"/>
	<g>
		<g>
			<path fill="#1E1E1C" d="M872.37,153.614c0.422,1.48,0.887,3.103,1.891,4.301c0.604,0.721,2.247,1.899,0.865,2.792
				c-0.637,0.411-1.592,0.232-2.255,0.013c-0.609-0.203-0.87,0.759-0.264,0.96c1.209,0.402,3.578,0.43,3.954-1.211
				c0.222-0.968-0.063-1.585-0.7-2.311c-0.559-0.638-1.13-1.139-1.504-1.92c-0.442-0.922-0.748-1.907-1.026-2.888
				C873.155,152.732,872.194,152.995,872.37,153.614L872.37,153.614z"/>
		</g>
	</g>
	<g>
		<g>
			<path fill="#1E1E1C" d="M872.96,164.723c-0.505,0.052-0.967,0.258-1.482,0.273c-1.218,0.037-1.707-0.934-1.88-2.009
				c-0.104-0.633-1.062-0.363-0.961,0.265c0.202,1.249,0.832,2.384,2.144,2.675c0.482,0.107,0.978,0.065,1.459-0.016
				c0.17-0.029,0.337-0.072,0.503-0.117c0.062-0.017,0.427-0.097,0.218-0.075C873.592,165.653,873.598,164.657,872.96,164.723
				L872.96,164.723z"/>
		</g>
	</g>
	<g>
		<g>
			<path fill="#1E1E1C" d="M895.648,165.511c-1.843,0.532-3.727,0.29-5.337,1.505c-0.513,0.387-0.011,1.265,0.51,0.872
				c1.52-1.145,3.355-0.901,5.098-1.403C896.542,166.305,896.276,165.33,895.648,165.511L895.648,165.511z"/>
		</g>
	</g>
	<g>
		<g>
			<path fill="#1E1E1C" d="M894.806,163.703c-1.96-0.086-3.928,0.328-5.69,1.188c-0.586,0.286-0.072,1.157,0.511,0.872
				c1.604-0.783,3.4-1.128,5.181-1.05C895.457,164.742,895.454,163.731,894.806,163.703L894.806,163.703z"/>
		</g>
	</g>
	<path fill="#FFFFFF" d="M865.189,189.229c1.205-4.729,0.836-9.939,4.131-14.26c3.638-4.767,4.132,10.068,4.136,10.174
		c0.119,2.916-0.658,3.382,2.828,3.42c3.041,0.024,0.435,4.742-0.625,5.443c-2.222,1.473-5.69,1.364-8.1,0.525
		C866.353,194.111,861.255,189.487,865.189,189.229C865.267,188.925,864.308,189.285,865.189,189.229z"/>
</g>
</svg>
