<?xml version="1.0" encoding="utf-8"?>
<!-- Generator: Adobe Illustrator 16.0.4, SVG Export Plug-In . SVG Version: 6.00 Build 0)  -->
<!DOCTYPE svg PUBLIC "-//W3C//DTD SVG 1.1//EN" "http://www.w3.org/Graphics/SVG/1.1/DTD/svg11.dtd">
<svg version="1.1" id="Layer_1" xmlns="http://www.w3.org/2000/svg" xmlns:xlink="http://www.w3.org/1999/xlink" x="0px" y="0px"
	 width="1103.432px" height="517.497px" viewBox="0 0 1103.432 517.497" enable-background="new 0 0 1103.432 517.497"
	 xml:space="preserve">
<g>
	<g>
		<rect x="1003.279" y="281.303" fill="#0DA2DD" width="5.677" height="48.316"/>
		<polygon fill="#0DA2DD" points="1039.227,277.193 1032.314,280.377 1032.314,335.967 1039.227,332.784 		"/>
		<polygon fill="#E4F3FB" points="992.17,291.743 1054.178,305.461 1054.178,275.795 992.17,271.461 		"/>
		<polygon fill="#0DA2DD" points="950.395,362.845 953.111,422.649 961.48,422.649 961.48,359.127 		"/>
		<polygon fill="#0DA2DD" points="1004.179,367.771 1018.409,369.157 1016.689,438.596 1006.11,436.604 		"/>
		<polygon fill="#0DA2DD" points="1027.049,342.245 1042.995,339.586 1037.015,394.907 1029.042,394.907 		"/>
		<polygon fill="#0DA2DD" points="984.535,339.586 995.487,339.586 992.17,389.892 984.535,389.892 		"/>
		<polygon fill="#E4F3FB" points="989.51,324.303 940.45,354.87 1022.52,371.482 1050.523,334.271 		"/>
		<polygon fill="#C3E5F6" points="1050.523,334.271 1050.523,344.903 1022.396,381.45 1022.52,371.482 		"/>
	</g>
	<g>
		<g>
			<path fill="#A42523" d="M933.373,170.306c3.2,3.665,7.911,6.996,12.572,3.979c1.884-1.22,3.396-3.027,4.807-4.744
				c1.358-1.656,2.938-3.58,2.387-5.862c-0.418-1.739-2.001-3.229-3.208-4.451c-1.667-1.689-3.249-2.103-5.36-0.854
				c-4.78,2.831-9.002,8.146-11.07,13.232c-0.526,1.292-2.457,0.322-1.938-0.957c1.41-3.461,3.585-6.451,6.125-9.171
				c2.141-2.291,4.933-5.107,8.042-5.954c4.146-1.129,8.72,4.4,9.574,7.938c0.549,2.273-0.611,4.377-1.875,6.17
				c-1.724,2.44-3.881,4.725-6.308,6.467c-5.336,3.828-11.425,0.124-15.183-4.18C931.034,170.884,932.458,169.258,933.373,170.306"
				/>
			<path fill="#A42523" d="M914.821,182.551c2.024-1.922,4.073-3.811,6.234-5.578c2.066-1.691,4.516-3.661,7.256-4.008
				c1.383-0.174,1.498,1.982,0.123,2.156c-2.292,0.292-4.473,2.279-6.206,3.665c-2.028,1.621-3.913,3.415-5.794,5.2
				C915.433,184.938,913.812,183.511,914.821,182.551"/>
			<path fill="#A42523" d="M916.706,183.207c0.249,3.344,4.658,8.514,8.257,8.338c3.703-0.182,8.251-4.75,9.413-8.027l0.062,1.064
				c-1.55-2.685-3.203-5.336-5.089-7.801c-0.633-0.826-2.069-2.038-1.27-3.252c0.966-1.461,2.592-2.021,3.878-3.136
				c1.037-0.901,2.663,0.524,1.612,1.436c-0.796,0.69-1.657,1.245-2.544,1.813c-1.311,0.839-0.187,1.545,0.482,2.419
				c1.418,1.853,2.646,3.857,3.854,5.849c0.67,1.104,1.248,1.721,0.792,3.007c-0.727,2.046-2.533,3.778-4.127,5.159
				c-2.812,2.437-6.344,4.596-10.022,2.928c-3.495-1.584-7.163-5.741-7.455-9.674C914.446,181.941,916.603,181.817,916.706,183.207"
				/>
		</g>
		<path fill="#0F8CCD" d="M1000.566,233.536c0,0,1.709-46.544,3.519-53.207c1.813-6.663-23.089-7.913-26.709-2.917
			c-2.247,3.101-0.866,42.359-1.775,46.316"/>
		<path fill="#0F8CCD" d="M979.961,189.19l-6.521,6.395l-7.531-11.519c0,0,9.791-7.421,14.054-8.365
			C990.256,173.42,979.961,189.19,979.961,189.19z"/>
		<path fill="#100805" d="M1032.372,126.712c0,18.824-28.147,34.315-40.205,34.315c-22.201,0-40.201-15.361-40.201-34.315
			c0-18.946,18-34.308,40.201-34.308C1014.374,92.404,1032.372,107.766,1032.372,126.712"/>
		<path fill="#100805" d="M1035.517,90.703c0,9.265-8.799,16.772-19.653,16.772c-10.855,0-19.656-7.508-19.656-16.772
			c0-9.263,8.801-16.772,19.656-16.772C1026.719,73.931,1035.517,81.44,1035.517,90.703"/>
		<path fill="#C5843C" d="M1003.656,127.651c0.033,0.038,0.063,0.069,0.086,0.093
			C1003.72,127.721,1003.687,127.688,1003.656,127.651"/>
		<path fill="#C5843C" d="M1000.597,124.396c-0.059-0.061-0.104-0.109-0.138-0.145
			C1000.488,124.285,1000.534,124.332,1000.597,124.396"/>
		<path fill="#FFFFFF" d="M1013.878,135.455c-0.995,0.037-2.071,0.354-3.006,0.872c-0.309,0.076-0.618,0.168-0.933,0.293
			c-0.651,0.262-1.237,0.687-1.82,1.057c-0.124,0.078-0.261,0.148-0.39,0.226c0.009-0.035,0.021-0.062,0.027-0.098
			c0.484-2.562-0.267-5.084-0.227-7.665c0.053-3.372-0.148-6.418-1.149-9.679c-1.885-6.142-9.262-6.939-15.212-7.694
			c-7.506-0.949-15.445-0.689-22.911,0.426c-2.559,0.38-4.083,1.624-5.051,3.286c0.28,0.457,0.455,1,0.439,1.659
			c-0.161,7.121-2.367,13.8-6.367,19.675c-2.226,3.879-4.876,7.714-4.673,11.994c0.306,6.34,25.878,11.179,30.921,12.836
			c5.914,1.947-3.508,19.406,8.433,15.143c1.947-0.693-1.484-15.687-0.197-16.081c2.531-0.327,15.654-11.236,17.689-12.579
			c2.667-1.472,5.782-3.114,7.424-5.564c0.014-0.018,0.027-0.031,0.043-0.049c0.353-0.453,0.577-0.922,0.7-1.39
			c0.188-0.515,0.322-1.059,0.373-1.64C1018.17,138.52,1016.31,135.373,1013.878,135.455"/>
		<path fill="#C5843C" d="M1000.461,124.254C1000.391,124.178,1000.395,124.186,1000.461,124.254"/>
		<path fill="#C5843C" d="M1003.742,127.744C1003.815,127.823,1003.81,127.817,1003.742,127.744"/>
		<path fill="none" stroke="#020203" stroke-width="0.993" stroke-miterlimit="10" d="M968.308,134.969
			c-0.336,1.696-1.487,2.891-2.571,2.676c-1.085-0.215-1.692-1.757-1.356-3.453c0.335-1.691,1.483-2.891,2.569-2.676
			C968.033,131.73,968.642,133.277,968.308,134.969z"/>
		<path fill="none" stroke="#020203" stroke-width="0.993" stroke-miterlimit="10" d="M990.066,136.237
			c-0.571,1.633-1.877,2.655-2.922,2.29c-1.044-0.364-1.431-1.979-0.86-3.612c0.569-1.628,1.879-2.653,2.923-2.288
			C990.253,132.992,990.636,134.609,990.066,136.237z"/>
		<path fill="#100805" d="M971.061,149.664c-0.634-0.719-2.36-2.382-1.74-3.525c0.538-0.994,2.104-0.645,2.987-0.498
			c2.003,0.334,3.957,0.98,5.916,1.492c0.571,0.147,5.016,0.824,5.156,1.387c0.14,0.563,0.547,2.027,0.167,1.29
			c-1.396-2.712-4.726-1.593-5.883-1.894c-1.859-0.484-3.701-1.059-5.596-1.407c-0.455-0.085-1.494-0.339-1.92-0.004
			c-0.457,0.358,1.387,2.343,1.549,2.524C972.077,149.463,971.444,150.1,971.061,149.664"/>
		<path fill="#FFFFFF" d="M999.115,239.812c0,0-4.833,2.307-9.605,4.488c0,0,8.395,34.191,10.516,42.402
			c2.031-0.313,4.058-0.646,6.086-1.004C1003.261,267.053,999.115,239.812,999.115,239.812"/>
		<path fill="#100805" d="M1005.14,279.346c-2.031,0.344-5.296,1.66-7.33,1.958c1.346,5.175,4.602,16.733,4.79,23.294
			c0.355,12.154,9.679,42.736,9.679,42.736s27.521,15.943,30.506,9.318c2.98-6.619-26.521-10.512-26.977-12.979
			c-3.685-19.977-4.589-27.604-6.776-39.594c-0.104-0.59-1.323-8.158-2.901-17.99"/>
		<path fill="#FFFFFF" d="M986.609,240.108c-4.854-1.397-9.787-2.901-9.787-2.901s-0.501,25.987-0.804,43.387
			c1.717,0.273,3.431,0.504,5.146,0.709c0.626-8.077,2.172-14.611,2.674-18.652L986.609,240.108z"/>
		<path fill="#100805" d="M975.973,223.23c0,0,12.542,6.441,25.044-0.515c1.097-0.61,7.354,35.159,7.354,35.159
			c-18.702,8.742-38.209-1.425-38.209-1.425L975.973,223.23z"/>
		<path fill="#020304" d="M974.761,131.579c0.338,2.8-0.277,4.929-1.082,7.587c-0.052,0.174-0.234,0.355-0.435,0.332
			c-1.159-0.146-2.268-0.262-3.355-0.71c-0.948-0.394-1.072,3.042-0.561,3.613c1.026,1.144,3.635,0.657,4.98,0.556
			c0.58-0.045,0.576,0.858,0,0.901c-1.744,0.132-3.727,0.388-5.297-0.56c-1.975-1.193-0.66-4.021,0.1-5.502
			c0.107-0.212,0.418-0.289,0.617-0.161c0.939,0.604,1.709,0.725,2.807,0.87c0.688,0.09,0.948-1.758,1.079-2.192
			c0.479-1.585,0.438-3.11,0.243-4.734C973.788,131.002,974.691,131.009,974.761,131.579"/>
		<path fill="#FFFFFF" d="M1014.927,90.799c-1.207-1.332-1.806-3.656,0.408-4.4c2.504-0.843,4.09,1.16,4.331,3.458h-0.951
			c0.41-3.6,3.335-5.27,6.729-4.104c3.031,1.043,3.688,3.936,0.937,5.723c-0.122-0.29-0.245-0.58-0.366-0.869
			c2.243-0.863,5.654-0.203,5.121,2.955c-0.726,4.293-4.814,4.26-8.318,4.629c-0.608,0.063-0.604-0.888,0-0.952
			c1.591-0.168,3.181-0.195,4.732-0.628c1.793-0.5,2.896-2.272,2.588-4.097c-0.329-1.938-2.694-1.441-3.871-0.99
			c-0.525,0.203-0.797-0.589-0.365-0.87c2.348-1.523,1.149-3.344-1.03-4.093c-2.641-0.907-4.894,0.553-5.203,3.296
			c-0.069,0.609-0.888,0.614-0.952,0c-0.441-4.185-5.668-2.547-3.117,0.269C1016.01,90.578,1015.34,91.253,1014.927,90.799"/>
		<path fill="#FFFFFF" d="M1020.763,114.833c1.973-0.908,4.681-0.885,5.978,1.191c1.255,2.011,0.161,3.679-1.982,4.212
			c-0.085-0.306-0.169-0.611-0.254-0.917c4.093-0.73,8.738,4.132,3.274,6.055c-0.296,0.104-0.602-0.166-0.602-0.459v-0.3
			c0-0.325,0.301-0.523,0.602-0.46c4.733,1.003,1.785,6.629-0.794,8.425c-0.505,0.352-0.979-0.474-0.479-0.822
			c1.867-1.302,4.831-5.879,1.019-6.686c0.201-0.153,0.401-0.306,0.604-0.457v0.3c-0.202-0.152-0.402-0.306-0.604-0.458
			c4.368-1.537-0.158-4.686-2.768-4.221c-0.595,0.106-0.857-0.767-0.254-0.917c1.663-0.413,2.394-1.604,1.229-3.04
			c-1.112-1.374-3.039-1.293-4.491-0.625C1020.69,115.91,1020.205,115.089,1020.763,114.833"/>
		<path fill="#FFFFFF" d="M973.519,106.816c-5.543-4.658,4.378-7.755,7.926-4.301c-0.264,0.155-0.53,0.31-0.796,0.464
			c-0.987-4.973,6.531-8.449,9.333-3.993c-0.29,0.122-0.58,0.243-0.87,0.366c-0.676-3.346,3.1-5.603,5.633-3.183
			c0.444,0.424-0.229,1.096-0.674,0.673c-1.806-1.727-4.54-0.207-4.042,2.257c0.105,0.524-0.574,0.835-0.87,0.366
			c-2.215-3.526-8.37-0.654-7.592,3.26c0.091,0.456-0.438,0.811-0.795,0.464c-2.646-2.578-11.011-0.77-6.579,2.953
			C974.66,106.538,973.986,107.208,973.519,106.816"/>
		<path fill="#FFFFFF" d="M994.553,107.211c-0.483-1.258-0.585-2.722-0.62-4.057c-0.007-0.23,0.151-0.378,0.35-0.458
			c1.991-0.833,3.749-0.586,5.502,0.653c0.496,0.351,0.03,1.17-0.478,0.821c-4.242-2.901,2.85-6.152,5.614-4.146
			c0.491,0.356,0.019,1.183-0.479,0.821c-1.786-1.296-7.508,0.553-4.658,2.504c-0.159,0.274-0.318,0.547-0.478,0.821
			c-0.423-0.298-4.453-2.101-4.41-0.526c0.03,1.104,0.176,2.279,0.573,3.312C995.691,107.531,994.77,107.777,994.553,107.211"/>
		<path fill="#0F8CCD" d="M1005.844,198.161c0,0-5.503-5.24-6.508-7.974c-1.845-5.007,1.867-10.047,2.582-13.235
			c0,0,12.117,10.166,12.776,10.24"/>
		<path fill="#100805" d="M975.804,296.899c0.423,8.381,0.886,20.7,0.389,39.193c-0.059,2.279-29.284,2.972-25.452,8.566
			c3.831,5.592,29.354-5.721,29.354-5.721s3.631-22.404,1.367-40.691c-0.709-5.732,0.367-13.076,0.741-17.904
			c-1.715-0.207-5.012,0.256-6.729-0.018C975.33,288.708,975.776,296.364,975.804,296.899"/>
		<path fill="#FFFFFF" d="M981.261,179.786c0,0,11.192,11.617,13.254,10.908c0,0-2.701-3.301-2.041-5.241
			c0.658-1.939,2.021-1.597,2.021-1.597s0.122,2.291,1.979,4.814c3.188,4.332,2.844,7.29,3.087,12.074c0,0,35.725,36.462,7.201-5.16
			c-0.981,1.839,6.715-7.575,6.037-5.615c39.873,68.154-16.596,14.834-16.596,14.834l-5.906-0.62c0,0-2.032-0.744-8.812-5.193
			c-1.934-1.271-7.796-3.227-8.421-3.466c-1.271-0.491-0.458-1.333,0.174-1.384c2.215-0.176,7.412,2.093,8.439,2.178
			c0.909,0.077,0.555-1.082,0.555-1.082l-9.552-5.176c0,0-1.688-1.794-0.198-1.886c1.49-0.092,10.381,4.597,10.381,4.597
			s2.058-0.417-1.665-3.565c-1.605-1.358-6.204-5.169-6.791-5.684c-0.301-0.261,0.909-2.267,2.149-1.279
			c0.902,0.714,7.218,6.21,8.395,6.6c1.587,0.525,1.159-0.951,1.159-0.951s-6.273-6.434-6.438-6.782
			C978.698,179.03,981.261,179.786,981.261,179.786z"/>
		<path fill="#FFFFFF" d="M974.644,190.506c0,0-2.769,37.715-24.014,30.475c-15.438-5.263-18.621-9.787-18.621-9.787l-0.431-7.277
			c0,0,18.586,11.634,25.269,8.45c9.791-4.665,13.313-27.833,13.313-27.833L974.644,190.506z"/>
		<path fill="#FFFFFF" d="M934.888,195.233c-4.39-1.456-6.424-6.694-6.424-6.694s-2.759,1.559-1.628,4.642
			c1.129,3.083,4.36,4.997,4.36,4.997s-2.316,3.559-7.439,0.912c-4.438-2.293-2.613-5.438-2.045-6.241
			c-0.08-0.036-0.162-0.064-0.239-0.108c-0.479-0.27-0.911-0.583-1.316-0.92c-0.367-0.205-0.658-0.485-0.877-0.812
			c-0.165-0.171-0.316-0.355-0.473-0.535c-0.256,0.673-0.525,1.531-0.81,2.622c-1.352,5.208,2.187,7.799,2.753,8.175
			c-0.82-0.536-7.845-5.146-9.632-6.913c-1.614-1.602-5.129-0.158-1.608,2.966c3.898,3.457,9.591,6.919,9.591,6.919
			s-6.211-1.421-9.117-2.501c-4.497-1.671-4.484,2.008,2.078,3.946c2.863,0.845,6.654,2.257,6.654,2.257
			c-0.042,1.07-8.731,2.188-8.162,3.821c0.567,1.634,9.856-0.58,9.856-0.58l11.599,0.009l0.833-5.551
			C932.843,205.643,939.277,196.688,934.888,195.233z"/>
		<path fill="none" stroke="#A42523" stroke-width="2" stroke-miterlimit="10" d="M916.44,187.422c0,0-9.271-22.553-9.564-26.203
			c-0.479-5.92,3.728-7.017,8.169-3.168"/>
		<path fill="none" stroke="#A42523" stroke-width="2" stroke-miterlimit="10" d="M948.458,157.574c0,0-7.857-23.291-7.997-26.917
			c-0.229-5.88,3.758-6.457,7.782-2.142"/>
		<g>
			<g>
				<path fill="#100805" d="M971.197,149.803c1.953-0.885,4.64-0.377,6.733-0.529c1.037-0.075,2.048-0.237,3.09-0.248
					c1.898,2.032,2.012,3.136,0.339,3.311c-0.749,0.157-1.505,0.219-2.267,0.187c-2.117,0.002-4.045-0.906-5.972-1.65
					c-0.812-0.314-1.428,0.288-1.735,0.924c-1.194,2.457,1.442,3.185,3.155,3.603c3.948,0.963,6.297-0.142,9.08-2.837
					c0.464-0.449-0.243-1.156-0.707-0.707c-2.212,2.142-4.142,3.24-7.312,2.745c-0.532-0.102-1.061-0.221-1.585-0.358
					c-1.257-0.055-1.234-0.688,0.067-1.896c0.797,0.348,1.623,0.589,2.461,0.815c1.695,0.459,6.525,1.015,7.498-1.133
					c0.791-1.748-0.347-3.688-2.308-3.919c-2.131-0.25-4.329,0.248-6.474,0.281c-1.635,0.025-3.057-0.138-4.57,0.549
					C970.106,149.205,970.615,150.067,971.197,149.803L971.197,149.803z"/>
			</g>
		</g>
		<g>
			<g>
				<path fill="#100805" d="M987.47,125.619c0.134,2.535,2.26,4.603,4.808,4.629c0.646,0.007,0.646-0.994,0-1
					c-1.984-0.021-3.703-1.638-3.808-3.629C988.436,124.978,987.436,124.975,987.47,125.619L987.47,125.619z"/>
			</g>
		</g>
		<g>
			<g>
				<path fill="#100805" d="M964.731,126.924c0.074-0.937,0.499-1.875,0.984-2.67c0.595-0.976,2.003-1.077,2.292,0.206
					c0.142,0.629,1.105,0.362,0.965-0.266c-0.326-1.446-1.874-2.099-3.16-1.429c-1.281,0.668-1.977,2.843-2.081,4.158
					C963.681,127.567,964.681,127.562,964.731,126.924L964.731,126.924z"/>
			</g>
		</g>
		<polygon fill="#0E8CCD" points="940.45,354.87 940.45,362.18 1022.396,381.45 1022.52,371.482 		"/>
	</g>
</g>
</svg>
