<?xml version="1.0" encoding="utf-8"?>
<!-- Generator: Adobe Illustrator 16.0.4, SVG Export Plug-In . SVG Version: 6.00 Build 0)  -->
<!DOCTYPE svg PUBLIC "-//W3C//DTD SVG 1.1//EN" "http://www.w3.org/Graphics/SVG/1.1/DTD/svg11.dtd">
<svg version="1.1" id="Layer_1" xmlns="http://www.w3.org/2000/svg" xmlns:xlink="http://www.w3.org/1999/xlink" x="0px" y="0px"
	 width="1103.432px" height="517.497px" viewBox="0 0 1103.432 517.497" enable-background="new 0 0 1103.432 517.497"
	 xml:space="preserve">
<g>
	<path fill="#100805" d="M784.872,129.826c0,0-19.554-3.386-22.307,17.353c-2.754,20.738-18.251,38.092,3.188,46.272
		c21.438,8.182,50.695,3.104,55.909-5.784c5.217-8.888-3.476-27.507-10.137-42.321C804.861,130.532,791.971,126.299,784.872,129.826
		z"/>
	<path fill="#FFFFFF" d="M805.136,212.416c16.409-36.94,27.364-97.01,27.364-97.01c-3.709-4.868-1.793-7.538-1.575-13.974
		c0.125-3.747-1.646-6.08-1.646-6.08s1.354-1.267,3.771,0.189c2.415,1.456,1.927,6.543,1.927,6.543
		c3.074-0.709,6.834-19.767,6.834-19.767s2.453-2.492,3.019,0.219c0.097,0.453-2.078,11.058-2.078,11.058s0.721,1.742,2.192,0.144
		c1.09-1.187,4.099-10.898,4.588-12.215c0.668-1.818,3.802-0.672,3.659-0.21c-0.277,0.907-2.626,7.788-3.425,10.221
		c-1.851,5.634,0.977,4.639,0.977,4.639s6.786-10.675,8.656-11.602c1.869-0.927,1.34,1.989,1.34,1.989l-7.174,11.605
		c0,0,0.543,1.381,1.572,0.686c1.168-0.786,5.528-6.563,8.342-7.902c0.806-0.381,2.489-0.11,1.366,1.241
		c-0.55,0.661-5.975,6.584-7.239,9.153c-4.443,8.998-6.267,11.117-6.267,11.117l-4.332,5.07c0,0-18.786,93.26-29.824,101.479
		C814.905,220.706,805.088,212.526,805.136,212.416z"/>
	<polygon fill="#0E8CCD" points="799.86,199.171 813.652,182.095 834.135,184.584 816.997,226.381 	"/>
	<path fill="#0E8CCD" d="M810.778,379.672c0.046,0.051,0.129-0.027,0.245-0.223C810.715,379.417,810.604,379.482,810.778,379.672z"
		/>
	<path fill="#0E8CCD" d="M831.812,271.868c0.909-22.979-1.407-44.619-9.954-58.967c-11.129-18.677-24.047-37.128-57.476-7.997
		c-14.565,12.693-12.058,47.397-4.591,82.524C785.239,289.644,808.271,280.198,831.812,271.868z"/>
	<path fill="#100805" d="M811.023,379.45c-0.116,0.194-0.199,0.272-0.245,0.223C810.604,379.482,810.715,379.417,811.023,379.45
		c2.386-4.009,18.858-58.814,20.789-107.582c-23.541,8.33-47.593,12.809-73.04,10.596c9.671,45.494,28.68,96.66,28.68,96.66
		s-25.412,14.28-21.894,16.375c10.614,6.318,30.495-9.521,30.495-9.521s-0.35-77.474,0.99-77.076
		c0.63,0.188,2.602,76.952,3.31,77.457c10.165,7.237,27.265,9.64,28.151,5.332C829.547,386.611,813.499,379.713,811.023,379.45z"/>
	<path fill="#FFFFFF" d="M812.883,183.409c-4.91,15.766-26.81,16.172-38.617,7.132c-7.933-6.07-8.886-14.614-7.662-23.825
		c0.031-0.232,0.076-0.462,0.107-0.693c-0.447-1.08,2.626-14.676,2.686-15.068c0.021-0.126,0.04-0.25,0.06-0.375
		c-1.587-0.244-2.931-1.53-2.214-3.406c3.186-8.329,9.486-14.108,18.65-15.501c8.037-1.22,16.583,1.542,21.738,7.722
		c2.229,2.672,3.692,5.834,4.665,9.175c0.394,0.759,0.767,1.528,1.1,2.324c0.288,0.689,0.196,1.37-0.119,1.954
		c0.456,2.61,0.69,5.249,0.814,7.783C814.444,167.945,815.095,176.305,812.883,183.409z"/>
	<g>
		<g>
			<path fill="#1E1E1C" d="M783.343,173.681c0.467-0.909,2.453-1.133,3.328-1.323c2.141-0.465,4.346-0.643,6.529-0.739
				c2.535-0.111,9.033-0.674,10.534,2.062c0.345,0.627,1.303,0.067,0.959-0.561c-1.788-3.258-8.492-2.71-11.493-2.611
				c-2.42,0.08-4.853,0.35-7.22,0.864c-1.117,0.243-3.007,0.599-3.598,1.747C782.057,173.756,783.015,174.317,783.343,173.681
				L783.343,173.681z"/>
		</g>
	</g>
	<g>
		<g>
			<path fill="#1E1E1C" d="M787.927,161.854c-3.411,5.378,14.371,6.017,11.48-0.12c-0.305-0.647-1.262-0.083-0.959,0.561
				c1.711,3.632-11.642,3.396-9.562,0.12C789.27,161.808,788.31,161.251,787.927,161.854L787.927,161.854z"/>
		</g>
	</g>
	
		<ellipse fill="none" stroke="#1E1E1C" stroke-width="1.1191" stroke-miterlimit="10" cx="783.482" cy="157.853" rx="1.466" ry="2.729"/>
	
		<ellipse fill="none" stroke="#1E1E1C" stroke-width="1.1191" stroke-miterlimit="10" cx="802.747" cy="157.288" rx="1.468" ry="2.729"/>
	<path fill="#100805" d="M781.542,131.942c0,0-2.026,7.478,2.753,11.004c4.78,3.526,22.993,1.901,28.388,18.341
		c5.647,17.211,3.477,10.158,5.068,5.784C819.346,162.698,814.135,116.706,781.542,131.942z"/>
	<path fill="#100805" d="M784.438,133.354c0,0,0.438,9.029-7.388,13.402c-7.821,4.374-13.472,22.432-13.183,22.996
		C764.157,170.315,757.206,124.606,784.438,133.354z"/>
	<path fill="#FFFFFF" d="M807.311,194.658c0,8.44-4.591,26.523-14.875,26.523s-24.732-12.262-21.259-19.993
		c2.053-4.569,10.975-10.566,21.259-10.566S807.311,190.375,807.311,194.658z"/>
	<path fill="#FFFFFF" d="M755.309,226.597l12.99,3.562c0,0-1.937,49.46,0.771,61.119c2.706,11.658,5.413,1.766,8.506,8.125
		c3.095,6.359-1.935,11.658-1.935,11.658s-4.251-5.299-3.865-6.711c0.386-1.414,1.935,12.01,1.16,14.129
		c-0.774,2.121-19.72-5.648-16.241-16.952C760.177,290.219,755.309,226.597,755.309,226.597z"/>
	<path fill="#FFFFFF" d="M831.998,262.821c0,0-68.367,19.268-73.226,19.643c-4.857,0.373,30.526,5.131,72.89-7.322L831.998,262.821z
		"/>
</g>
</svg>
