<?xml version="1.0" encoding="utf-8"?>
<!-- Generator: Adobe Illustrator 16.0.4, SVG Export Plug-In . SVG Version: 6.00 Build 0)  -->
<!DOCTYPE svg PUBLIC "-//W3C//DTD SVG 1.1//EN" "http://www.w3.org/Graphics/SVG/1.1/DTD/svg11.dtd">
<svg version="1.1" id="Layer_1" xmlns="http://www.w3.org/2000/svg" xmlns:xlink="http://www.w3.org/1999/xlink" x="0px" y="0px"
	 width="145.828px" height="36.824px" viewBox="0 0 145.828 36.824" enable-background="new 0 0 145.828 36.824"
	 xml:space="preserve">
<polyline fill="none" stroke="#0C8CCD" stroke-width="4" stroke-miterlimit="10" points="19.416,1.414 2.809,18.019 19.737,35.43 
	"/>
<g>
	<path fill="#0C8CCD" d="M24.97,15.583h-3.159v8.424c0,0.117-0.091,0.208-0.208,0.208h-0.689c-0.117,0-0.208-0.091-0.208-0.208
		v-8.424h-3.159c-0.117,0-0.208-0.091-0.208-0.208v-0.559c0-0.117,0.091-0.208,0.208-0.208h7.424c0.117,0,0.208,0.091,0.208,0.208
		v0.559C25.178,15.492,25.087,15.583,24.97,15.583z"/>
	<path fill="#0C8CCD" d="M27.297,24.215h-0.689c-0.117,0-0.208-0.091-0.208-0.208v-9.27c0-0.104,0.065-0.143,0.156-0.169l0.78-0.13
		h0.039c0.091,0,0.13,0.091,0.13,0.169v9.399C27.505,24.125,27.413,24.215,27.297,24.215z"/>
	<path fill="#0C8CCD" d="M35.72,24.215h-5.668c-0.117,0-0.208-0.091-0.208-0.208v-9.27c0-0.104,0.065-0.143,0.156-0.169l0.78-0.13
		h0.039c0.091,0,0.13,0.091,0.13,0.169v8.593h4.771c0.117,0,0.195,0.091,0.195,0.208v0.598
		C35.915,24.125,35.837,24.215,35.72,24.215z"/>
	<path fill="#0C8CCD" d="M44.183,24.358c-1.521,0-2.704-0.364-2.99-0.455c-0.104-0.026-0.169-0.117-0.169-0.208
		c0-0.013,0.014-0.039,0.014-0.052l0.143-0.572c0.013-0.065,0.13-0.117,0.195-0.117H41.4c0.261,0.052,1.586,0.416,3.003,0.416
		c1.184,0,2.444-0.403,2.444-1.82c0-1.352-1.118-1.534-2.587-1.716c-1.508-0.195-3.341-0.52-3.341-2.691s1.794-2.678,3.562-2.678
		c1.521,0,2.704,0.364,2.978,0.455c0.117,0.039,0.169,0.117,0.169,0.208v0.052l-0.143,0.572c-0.026,0.065-0.131,0.117-0.195,0.117
		h-0.026c-0.26-0.052-1.403-0.39-2.821-0.39c-1.117,0-2.431,0.247-2.431,1.573c0,1.326,1.313,1.586,2.562,1.755
		c1.56,0.208,3.393,0.312,3.393,2.652C47.966,23.773,46.055,24.358,44.183,24.358z"/>
	<path fill="#0C8CCD" d="M50.748,24.215h-0.689c-0.117,0-0.208-0.091-0.208-0.208v-9.27c0-0.104,0.065-0.143,0.156-0.169l0.78-0.13
		h0.039c0.091,0,0.13,0.091,0.13,0.169v9.399C50.956,24.125,50.864,24.215,50.748,24.215z"/>
	<path fill="#0C8CCD" d="M59.81,15.583H56.65v8.424c0,0.117-0.091,0.208-0.208,0.208h-0.689c-0.117,0-0.208-0.091-0.208-0.208
		v-8.424h-3.159c-0.117,0-0.208-0.091-0.208-0.208v-0.559c0-0.117,0.091-0.208,0.208-0.208h7.424c0.117,0,0.208,0.091,0.208,0.208
		v0.559C60.018,15.492,59.927,15.583,59.81,15.583z"/>
	<path fill="#0C8CCD" d="M67.31,24.215h-5.863c-0.117,0-0.208-0.091-0.208-0.208v-9.191c0-0.117,0.104-0.208,0.208-0.208h5.851
		c0.117,0,0.208,0.091,0.208,0.208v0.559c0,0.117-0.091,0.208-0.208,0.208h-4.953v3.12h4.771c0.117,0,0.195,0.091,0.195,0.208v0.572
		c0,0.117-0.078,0.208-0.195,0.208h-4.771v3.549h4.966c0.104,0,0.195,0.091,0.195,0.208v0.559
		C67.505,24.125,67.414,24.215,67.31,24.215z"/>
	<path fill="#0C8CCD" d="M75.903,15.583h-3.159v8.424c0,0.117-0.091,0.208-0.208,0.208h-0.689c-0.117,0-0.208-0.091-0.208-0.208
		v-8.424h-3.159c-0.117,0-0.208-0.091-0.208-0.208v-0.559c0-0.117,0.091-0.208,0.208-0.208h7.424c0.117,0,0.208,0.091,0.208,0.208
		v0.559C76.111,15.492,76.021,15.583,75.903,15.583z"/>
	<path fill="#0C8CCD" d="M80.075,24.358c-1.521,0-2.704-0.364-2.99-0.455c-0.104-0.026-0.169-0.117-0.169-0.208
		c0-0.013,0.014-0.039,0.014-0.052l0.143-0.572c0.013-0.065,0.13-0.117,0.195-0.117h0.025c0.261,0.052,1.586,0.416,3.003,0.416
		c1.184,0,2.444-0.403,2.444-1.82c0-1.352-1.118-1.534-2.587-1.716c-1.508-0.195-3.341-0.52-3.341-2.691s1.794-2.678,3.562-2.678
		c1.521,0,2.704,0.364,2.978,0.455c0.117,0.039,0.169,0.117,0.169,0.208v0.052l-0.143,0.572c-0.026,0.065-0.131,0.117-0.195,0.117
		h-0.026c-0.26-0.052-1.403-0.39-2.821-0.39c-1.117,0-2.431,0.247-2.431,1.573c0,1.326,1.313,1.586,2.562,1.755
		c1.56,0.208,3.393,0.312,3.393,2.652C83.858,23.773,81.947,24.358,80.075,24.358z"/>
	<path fill="#0C8CCD" d="M95.559,15.609h-4.68v3.744h4.264c0.104,0,0.195,0.091,0.195,0.208v0.611c0,0.104-0.091,0.208-0.195,0.208
		h-4.264v3.627c0,0.117-0.091,0.208-0.208,0.208h-0.689c-0.117,0-0.208-0.091-0.208-0.208v-9.191c0-0.117,0.091-0.208,0.208-0.208
		h5.564c0.117,0,0.208,0.091,0.208,0.208v0.585C95.754,15.518,95.663,15.609,95.559,15.609z"/>
	<path fill="#0C8CCD" d="M101.07,24.384c-3.653,0-4.29-2.093-4.29-4.979c0-2.873,0.637-4.966,4.29-4.966
		c3.641,0,4.277,2.093,4.277,4.966C105.348,22.292,104.711,24.384,101.07,24.384z M101.058,15.427c-2.886,0-3.12,1.573-3.12,3.991
		c0,2.418,0.234,3.979,3.12,3.979s3.146-1.573,3.146-3.991C104.204,16.987,103.943,15.427,101.058,15.427z"/>
	<path fill="#0C8CCD" d="M114.76,24.021c0,0.091-0.078,0.195-0.182,0.195h-0.729c-0.143,0-0.194-0.052-0.208-0.182l-0.117-1.924
		c-0.078-1.209-0.74-1.781-2.301-1.82l-2.886-0.065v3.783c0,0.117-0.091,0.208-0.208,0.208h-0.689c-0.117,0-0.208-0.091-0.208-0.208
		v-9.191c0-0.117,0.091-0.208,0.208-0.208h4.16c1.885,0,2.978,0.702,2.978,2.665c0,1.365-0.494,2.119-2.041,2.314v0.338
		c0.923,0.117,2.027,0.234,2.132,2.288l0.091,1.794V24.021z M111.718,15.557h-3.38v3.809l2.756-0.091
		c1.287-0.052,2.353-0.273,2.353-1.833C113.446,16.207,112.979,15.557,111.718,15.557z"/>
	<path fill="#0C8CCD" d="M119.75,24.358c-1.521,0-2.704-0.364-2.99-0.455c-0.104-0.026-0.169-0.117-0.169-0.208
		c0-0.013,0.014-0.039,0.014-0.052l0.143-0.572c0.013-0.065,0.13-0.117,0.195-0.117h0.025c0.261,0.052,1.586,0.416,3.004,0.416
		c1.183,0,2.443-0.403,2.443-1.82c0-1.352-1.118-1.534-2.587-1.716c-1.508-0.195-3.341-0.52-3.341-2.691s1.794-2.678,3.562-2.678
		c1.521,0,2.704,0.364,2.978,0.455c0.117,0.039,0.169,0.117,0.169,0.208v0.052l-0.143,0.572c-0.026,0.065-0.131,0.117-0.195,0.117
		h-0.026c-0.26-0.052-1.404-0.39-2.821-0.39c-1.117,0-2.431,0.247-2.431,1.573c0,1.326,1.313,1.586,2.562,1.755
		c1.56,0.208,3.393,0.312,3.393,2.652C123.533,23.773,121.622,24.358,119.75,24.358z"/>
	<path fill="#0C8CCD" d="M126.315,24.215h-0.689c-0.117,0-0.208-0.091-0.208-0.208v-9.27c0-0.104,0.065-0.143,0.156-0.169l0.78-0.13
		h0.039c0.091,0,0.13,0.091,0.13,0.169v9.399C126.523,24.125,126.433,24.215,126.315,24.215z"/>
	<path fill="#0C8CCD" d="M132.529,24.215h-3.458c-0.117,0-0.208-0.091-0.208-0.208v-9.191c0-0.117,0.091-0.208,0.208-0.208h3.458
		c2.809,0,4.434,0.611,4.434,4.797C136.963,23.604,135.338,24.215,132.529,24.215z M132.374,15.557h-2.405v7.696h2.405
		c2.326,0,3.458-0.403,3.458-3.874C135.832,15.908,134.7,15.557,132.374,15.557z"/>
	<path fill="#0C8CCD" d="M144.918,24.215h-5.863c-0.117,0-0.208-0.091-0.208-0.208v-9.191c0-0.117,0.104-0.208,0.208-0.208h5.851
		c0.117,0,0.208,0.091,0.208,0.208v0.559c0,0.117-0.091,0.208-0.208,0.208h-4.953v3.12h4.771c0.117,0,0.195,0.091,0.195,0.208v0.572
		c0,0.117-0.078,0.208-0.195,0.208h-4.771v3.549h4.966c0.104,0,0.195,0.091,0.195,0.208v0.559
		C145.113,24.125,145.022,24.215,144.918,24.215z"/>
</g>
<g>
</g>
<g>
</g>
<g>
</g>
<g>
</g>
<g>
</g>
<g>
</g>
</svg>
