<?xml version="1.0" encoding="utf-8"?>
<!-- Generator: Adobe Illustrator 16.0.4, SVG Export Plug-In . SVG Version: 6.00 Build 0)  -->
<!DOCTYPE svg PUBLIC "-//W3C//DTD SVG 1.1//EN" "http://www.w3.org/Graphics/SVG/1.1/DTD/svg11.dtd">
<svg version="1.1" id="Layer_1" xmlns="http://www.w3.org/2000/svg" xmlns:xlink="http://www.w3.org/1999/xlink" x="0px" y="0px"
	 width="1191.059px" height="71.43px" viewBox="0 0 1191.059 71.43" enable-background="new 0 0 1191.059 71.43"
	 xml:space="preserve">
<g>
	<polygon fill="#FFFFFF" points="0,-29.906 1190.55,-29.906 1191.059,61.429 0,47.146 	"/>
</g>
<g>
	<path fill="#1E1E1C" d="M192.909,34.264h-6.924c-0.198,0-0.354-0.156-0.354-0.355V18.179c0-0.2,0.155-0.355,0.354-0.355h7.211
		c3.352,0,4.703,1.312,4.703,4.026c0,2.313-1.087,3.227-2.751,3.582v0.602c2.152,0.267,3.284,1.356,3.284,3.938
		C198.434,32.952,196.459,34.264,192.909,34.264z M193.198,19.448h-5.681v5.673l5.413-0.2c1.93-0.089,3.062-0.733,3.062-2.735
		C195.993,20.382,195.172,19.448,193.198,19.448z M192.976,26.677l-5.458-0.133v6.097h5.591c2.598,0,3.396-1.269,3.396-2.87
		C196.503,27.679,195.638,26.745,192.976,26.677z"/>
	<path fill="#1E1E1C" d="M206.638,23.853c-1.464,0-2.662,0.11-3.905,0.422v9.656c0,0.199-0.109,0.333-0.311,0.333h-1.109
		c0,0-0.333-0.134-0.333-0.333v-9.277c0-0.979,0.2-1.269,0.954-1.623c0.979-0.445,2.975-0.734,4.038-0.734h0.555
		c0.111,0,0.312,0.044,0.312,0.334v0.957C206.837,23.741,206.793,23.853,206.638,23.853z"/>
	<path fill="#1E1E1C" d="M213.425,34.552c-3.905,0-4.881-1.668-4.881-4.604v-7.075c0-0.179,0.109-0.245,0.289-0.289l1.196-0.29
		h0.066c0.155,0,0.2,0.156,0.2,0.29v7.542c0,2.091,0.73,3.025,3.128,3.025c2.884,0,3.104-1.424,3.104-3.092v-7.187
		c0-0.179,0.135-0.245,0.289-0.289l1.198-0.29h0.067c0.154,0,0.222,0.156,0.222,0.29v7.318
		C218.306,32.106,217.995,34.552,213.425,34.552z"/>
	<path fill="#1E1E1C" d="M232.435,23.497c0,0.044-0.044,0.065-0.109,0.133c-0.488,0.334-1.045,0.468-1.576,0.468
		c-0.355,0-0.377-0.021-0.889-0.111c0,0,0.954,0.802,0.954,2.381c0,3.158-1.953,4.07-4.881,4.07h-1.642
		c-1.154,0-1.42,0.579-1.42,1.156c0,0.937,0.644,1.18,1.62,1.18h3.35c2.13,0,3.639,0.646,3.639,2.625
		c0,2.759-2.219,3.671-5.391,3.671c-3.684,0-5.369-0.733-5.369-2.98c0-1.734,1.176-2.068,2.263-2.292v-0.245
		c-0.998-0.223-1.861-0.333-1.861-1.912c0-1.356,0.73-1.69,2.438-1.958c-1.043-0.333-2.507-0.623-2.507-3.314
		c0-3.049,1.997-4.071,4.859-4.071c1.375,0,1.93,0.224,2.771,0.467c0.244,0.045,0.51,0.09,0.821,0.09
		c0.333,0,0.71-0.065,1.021-0.154c0.399-0.111,0.845-0.312,1.154-0.468c0.066-0.021,0.133-0.066,0.177-0.066s0.09,0.044,0.111,0.133
		l0.422,1.113C232.412,23.452,232.435,23.474,232.435,23.497z M227.642,34.264h-2.995c-1.131,0-2.174,0.355-2.174,1.69
		c0,1.535,1.598,1.734,3.639,1.734c1.375,0,3.616-0.199,3.616-2.024C229.728,34.375,228.618,34.264,227.642,34.264z M225.934,23.63
		c-1.931,0-3.128,0.667-3.128,2.736c0,2.047,1.198,2.691,3.128,2.691c1.908,0,3.128-0.646,3.128-2.691
		C229.062,24.297,227.842,23.63,225.934,23.63z"/>
	<path fill="#1E1E1C" d="M250.311,34.264h-1.087c-0.2,0-0.333-0.134-0.333-0.333v-8.231c0-1.469-0.555-1.98-2.106-1.98
		c-2.063,0-4.149,0.623-4.149,0.623v9.59c0,0.199-0.111,0.333-0.312,0.333h-1.108c-0.2,0-0.333-0.134-0.333-0.333V18.113
		c0-0.178,0.111-0.244,0.266-0.267l1.198-0.312h0.066c0.153,0,0.222,0.155,0.222,0.289v3.849l-0.222,1.29
		c1.22-0.355,3.128-0.667,4.415-0.667c2.64,0,3.814,0.823,3.814,3.204v8.433C250.644,34.131,250.533,34.264,250.311,34.264z"/>
	<path fill="#1E1E1C" d="M258.25,34.552c-4.639,0-5.192-2.78-5.192-6.117c0-3.358,0.555-6.142,5.192-6.142
		c4.659,0,5.189,2.781,5.189,6.142C263.441,31.772,262.909,34.552,258.25,34.552z M258.25,23.719c-3.217,0-3.352,1.892-3.352,4.718
		c0,2.804,0.135,4.693,3.352,4.693s3.35-1.891,3.35-4.693C261.6,25.61,261.467,23.719,258.25,23.719z"/>
	<path fill="#1E1E1C" d="M271.558,33.908c-0.064,0.223-0.244,0.355-0.441,0.355h-2.33c-0.224,0-0.399-0.134-0.468-0.355
		l-3.683-10.924c-0.022-0.044-0.022-0.089-0.022-0.11c0-0.156,0.091-0.289,0.224-0.289h1.331c0.222,0,0.289,0.133,0.333,0.289
		l3.149,10.101h0.577l2.84-10.101c0.044-0.156,0.155-0.289,0.377-0.289h1.376c0.155,0,0.268,0.11,0.268,0.268v0.066L271.558,33.908z
		"/>
	<path fill="#1E1E1C" d="M286.774,29.281c-0.021,0.11-0.178,0.288-0.289,0.288h-8.142c0,1.225,0.222,1.914,0.688,2.492
		c0.646,0.822,1.73,1.067,3.284,1.067c1.375,0,2.221-0.268,3.263-0.556c0.044-0.022,0.089-0.045,0.133-0.045
		c0.089,0,0.177,0.067,0.222,0.2l0.244,0.847v0.089c0,0.11-0.089,0.178-0.222,0.245c-0.89,0.355-2.354,0.646-3.816,0.646
		c-4.348,0-5.635-2.023-5.635-6.118c0-3.761,0.754-6.142,5.146-6.142c2.33,0,3.685,0.712,4.415,1.979
		c0.577,1.001,0.71,2.382,0.71,3.916V29.281L286.774,29.281z M284.667,25.588c-0.399-1.424-1.267-1.891-3.062-1.891
		c-1.773,0-2.64,0.467-3.018,1.891c-0.223,0.823-0.244,1.689-0.268,2.515l6.612-0.021C284.911,27.234,284.866,26.411,284.667,25.588
		z"/>
	<path fill="#1E1E1C" d="M297.531,34.108c-0.71,0.179-1.642,0.444-3.395,0.444c-4.304,0-5.303-1.958-5.303-6.14
		c0-4.271,1.176-6.118,5.169-6.118c1.531,0,2.64,0.245,3.395,0.445l-0.222-1.291v-3.338c0-0.178,0.111-0.244,0.288-0.268
		l1.197-0.312h0.065c0.155,0,0.2,0.155,0.2,0.288v14.53C298.929,33.174,298.929,33.797,297.531,34.108z M297.176,24.097
		c0,0-1.398-0.399-2.995-0.399c-2.438,0-3.528,0.777-3.528,4.738c0,4.228,1.287,4.716,3.552,4.716c1.642,0,2.973-0.423,2.973-0.423
		L297.176,24.097L297.176,24.097z"/>
	<path fill="#1E1E1C" d="M311.727,29.281c-0.021,0.11-0.178,0.288-0.289,0.288h-8.142c0,1.225,0.222,1.914,0.688,2.492
		c0.646,0.822,1.73,1.067,3.284,1.067c1.375,0,2.219-0.268,3.261-0.556c0.045-0.022,0.09-0.045,0.134-0.045
		c0.09,0,0.178,0.067,0.223,0.2l0.244,0.847v0.089c0,0.11-0.09,0.178-0.224,0.245c-0.888,0.355-2.352,0.646-3.814,0.646
		c-4.349,0-5.636-2.023-5.636-6.118c0-3.761,0.754-6.142,5.146-6.142c2.33,0,3.684,0.712,4.415,1.979
		c0.577,1.001,0.71,2.382,0.71,3.916V29.281L311.727,29.281z M309.618,25.588c-0.398-1.424-1.266-1.891-3.062-1.891
		c-1.774,0-2.641,0.467-3.019,1.891c-0.223,0.823-0.243,1.689-0.267,2.515l6.612-0.021
		C309.863,27.234,309.818,26.411,309.618,25.588z"/>
	<path fill="#1E1E1C" d="M320.486,33.908c0,0.089-0.088,0.199-0.177,0.223c-0.488,0.156-1.441,0.422-2.707,0.422
		c-2.196,0-3.239-0.956-3.239-3.092V19.225c0-0.179,0.111-0.245,0.268-0.268l1.197-0.312h0.065c0.155,0,0.222,0.155,0.222,0.289
		v3.648h3.729c0.2,0,0.333,0.133,0.333,0.333v0.756c0,0.2-0.133,0.334-0.333,0.334h-3.729v7.632c0,1.224,0.666,1.489,1.819,1.489
		c0.688,0,1.575-0.178,2.041-0.289h0.066c0.11,0,0.2,0.066,0.244,0.2l0.199,0.822L320.486,33.908L320.486,33.908z"/>
</g>
<g>
	<path fill="#B3B3B2" d="M338.449,28.68c0,0.199-0.154,0.333-0.354,0.333H327.69c-0.199,0-0.333-0.134-0.333-0.333v-1.022
		c0-0.179,0.134-0.312,0.333-0.312h10.429c0.199,0,0.333,0.134,0.333,0.312L338.449,28.68L338.449,28.68z"/>
	<path fill="#B3B3B2" d="M354.642,34.108c-0.71,0.179-1.642,0.444-3.396,0.444c-4.305,0-5.304-1.958-5.304-6.14
		c0-4.271,1.177-6.118,5.169-6.118c1.531,0,2.642,0.245,3.396,0.445l-0.223-1.291v-3.338c0-0.178,0.11-0.244,0.288-0.268
		l1.197-0.312h0.066c0.154,0,0.199,0.155,0.199,0.288v14.53C356.038,33.174,356.038,33.797,354.642,34.108z M354.286,24.097
		c0,0-1.397-0.399-2.995-0.399c-2.439,0-3.527,0.777-3.527,4.738c0,4.228,1.287,4.716,3.55,4.716c1.643,0,2.974-0.423,2.974-0.423
		L354.286,24.097L354.286,24.097z"/>
	<path fill="#B3B3B2" d="M368.837,29.281c-0.022,0.11-0.179,0.288-0.289,0.288h-8.144c0,1.225,0.224,1.914,0.688,2.492
		c0.644,0.822,1.729,1.067,3.284,1.067c1.375,0,2.219-0.268,3.261-0.556c0.044-0.022,0.089-0.045,0.133-0.045
		c0.089,0,0.178,0.067,0.223,0.2l0.243,0.847v0.089c0,0.11-0.089,0.178-0.222,0.245c-0.888,0.355-2.353,0.646-3.815,0.646
		c-4.349,0-5.636-2.023-5.636-6.118c0-3.761,0.754-6.142,5.147-6.142c2.329,0,3.683,0.712,4.415,1.979
		c0.576,1.001,0.71,2.382,0.71,3.916L368.837,29.281L368.837,29.281z M366.729,25.588c-0.398-1.424-1.265-1.891-3.062-1.891
		c-1.774,0-2.641,0.467-3.019,1.891c-0.222,0.823-0.244,1.689-0.266,2.515l6.611-0.021
		C366.973,27.234,366.929,26.411,366.729,25.588z"/>
	<path fill="#B3B3B2" d="M377.597,33.908c0,0.089-0.088,0.199-0.177,0.223c-0.488,0.156-1.442,0.422-2.707,0.422
		c-2.196,0-3.239-0.956-3.239-3.092V19.225c0-0.179,0.11-0.245,0.267-0.268l1.197-0.312h0.066c0.154,0,0.222,0.155,0.222,0.289
		v3.648h3.729c0.199,0,0.333,0.133,0.333,0.333v0.756c0,0.2-0.134,0.334-0.333,0.334h-3.729v7.632c0,1.224,0.666,1.489,1.819,1.489
		c0.688,0,1.574-0.178,2.041-0.289h0.065c0.111,0,0.2,0.066,0.244,0.2l0.2,0.822L377.597,33.908L377.597,33.908z"/>
	<path fill="#B3B3B2" d="M397.493,23.497c0,0.044-0.044,0.065-0.11,0.133c-0.488,0.334-1.042,0.468-1.575,0.468
		c-0.354,0-0.377-0.021-0.887-0.111c0,0,0.954,0.802,0.954,2.381c0,3.158-1.953,4.07-4.882,4.07h-1.643
		c-1.154,0-1.42,0.579-1.42,1.156c0,0.937,0.645,1.18,1.62,1.18h3.35c2.131,0,3.64,0.646,3.64,2.625c0,2.759-2.22,3.671-5.392,3.671
		c-3.683,0-5.369-0.733-5.369-2.98c0-1.734,1.177-2.068,2.265-2.292v-0.245c-0.998-0.223-1.863-0.333-1.863-1.912
		c0-1.356,0.731-1.69,2.439-1.958c-1.043-0.333-2.508-0.623-2.508-3.314c0-3.049,1.997-4.071,4.859-4.071
		c1.375,0,1.93,0.224,2.772,0.467c0.243,0.045,0.511,0.09,0.82,0.09c0.333,0,0.71-0.065,1.021-0.154
		c0.397-0.111,0.843-0.312,1.153-0.468c0.065-0.021,0.133-0.066,0.178-0.066c0.044,0,0.089,0.044,0.109,0.133l0.422,1.113
		C397.471,23.452,397.493,23.474,397.493,23.497z M392.7,34.264h-2.995c-1.131,0-2.174,0.355-2.174,1.69
		c0,1.535,1.599,1.734,3.64,1.734c1.375,0,3.615-0.199,3.615-2.024C394.786,34.375,393.677,34.264,392.7,34.264z M390.992,23.63
		c-1.931,0-3.129,0.667-3.129,2.736c0,2.047,1.198,2.691,3.129,2.691c1.907,0,3.128-0.646,3.128-2.691
		C394.12,24.297,392.901,23.63,390.992,23.63z"/>
	<path fill="#B3B3B2" d="M408.516,24.164c0.688,1.111,0.821,2.604,0.821,4.271c0,3.337-0.532,6.117-5.191,6.117
		c-1.686,0-2.817-0.354-3.594-0.979l-1.176,1.356c-0.022,0.044-0.09,0.066-0.134,0.066s-0.09,0-0.134-0.045l-0.599-0.534
		c-0.044-0.044-0.089-0.089-0.089-0.133c0-0.045,0.021-0.09,0.064-0.135l1.267-1.489c-0.666-1.113-0.8-2.604-0.8-4.228
		c0-3.358,0.532-6.142,5.191-6.142c1.664,0,2.817,0.355,3.595,0.979l1.152-1.379c0.044-0.044,0.089-0.065,0.155-0.065
		c0.044,0,0.089,0.021,0.11,0.044l0.6,0.533c0.066,0.045,0.089,0.09,0.089,0.135c0,0.044-0.021,0.089-0.066,0.133L408.516,24.164z
		 M404.146,23.719c-3.217,0-3.35,1.892-3.35,4.718c0,1.067,0.021,2.002,0.222,2.735l5.658-6.651
		C406.187,24.008,405.388,23.719,404.146,23.719z M407.274,25.632l-5.68,6.696c0.487,0.512,1.287,0.801,2.551,0.801
		c3.217,0,3.351-1.892,3.351-4.693C407.495,27.344,407.473,26.389,407.274,25.632z"/>
	<path fill="#B3B3B2" d="M417.963,23.853c-1.465,0-2.662,0.11-3.905,0.422v9.656c0,0.199-0.111,0.333-0.312,0.333h-1.108
		c0,0-0.333-0.134-0.333-0.333v-9.277c0-0.979,0.2-1.269,0.954-1.623c0.977-0.445,2.973-0.734,4.038-0.734h0.555
		c0.111,0,0.312,0.044,0.312,0.334v0.957C418.162,23.741,418.118,23.853,417.963,23.853z"/>
	<path fill="#B3B3B2" d="M432.513,33.908c-0.066,0.223-0.244,0.355-0.443,0.355h-2.329c-0.223,0-0.398-0.134-0.467-0.355
		l-3.683-10.924c-0.022-0.044-0.022-0.089-0.022-0.11c0-0.156,0.09-0.289,0.223-0.289h1.331c0.223,0,0.289,0.133,0.333,0.289
		l3.15,10.101h0.577l2.84-10.101c0.044-0.156,0.155-0.289,0.377-0.289h1.376c0.155,0,0.268,0.11,0.268,0.268v0.066L432.513,33.908z"
		/>
	<path fill="#B3B3B2" d="M439.785,20.582h-1.087c-0.198,0-0.333-0.133-0.333-0.312v-2.402c0-0.2,0.135-0.333,0.333-0.333h1.087
		c0.2,0,0.333,0.133,0.333,0.333v2.402C440.118,20.449,439.986,20.582,439.785,20.582z M439.785,34.264h-1.087
		c-0.198,0-0.333-0.134-0.333-0.333V22.918c0-0.2,0.135-0.333,0.333-0.333h1.087c0.2,0,0.333,0.133,0.333,0.333v11.014
		C440.118,34.131,439.986,34.264,439.785,34.264z"/>
	<path fill="#B3B3B2" d="M452.185,20.582h-1.087c-0.2,0-0.333-0.133-0.333-0.312v-2.402c0-0.2,0.133-0.333,0.333-0.333h1.087
		c0.2,0,0.333,0.133,0.333,0.333v2.402C452.518,20.449,452.385,20.582,452.185,20.582z M452.185,34.264h-1.087
		c-0.2,0-0.333-0.134-0.333-0.333V22.918c0-0.2,0.133-0.333,0.333-0.333h1.087c0.2,0,0.333,0.133,0.333,0.333v11.014
		C452.518,34.131,452.385,34.264,452.185,34.264z"/>
	<path fill="#B3B3B2" d="M473.99,23.497c0,0.044-0.044,0.065-0.109,0.133c-0.488,0.334-1.042,0.468-1.575,0.468
		c-0.355,0-0.377-0.021-0.887-0.111c0,0,0.952,0.802,0.952,2.381c0,3.158-1.951,4.07-4.881,4.07h-1.642
		c-1.154,0-1.42,0.579-1.42,1.156c0,0.937,0.644,1.18,1.62,1.18h3.35c2.13,0,3.639,0.646,3.639,2.625
		c0,2.759-2.219,3.671-5.391,3.671c-3.683,0-5.369-0.733-5.369-2.98c0-1.734,1.176-2.068,2.265-2.292v-0.245
		c-0.998-0.223-1.863-0.333-1.863-1.912c0-1.356,0.73-1.69,2.438-1.958c-1.043-0.333-2.507-0.623-2.507-3.314
		c0-3.049,1.997-4.071,4.859-4.071c1.375,0,1.93,0.224,2.771,0.467c0.244,0.045,0.512,0.09,0.821,0.09
		c0.333,0,0.71-0.065,1.021-0.154c0.397-0.111,0.843-0.312,1.152-0.468c0.066-0.021,0.133-0.066,0.179-0.066
		c0.044,0,0.089,0.044,0.109,0.133l0.421,1.113C473.968,23.452,473.99,23.474,473.99,23.497z M469.198,34.264h-2.995
		c-1.131,0-2.174,0.355-2.174,1.69c0,1.535,1.6,1.734,3.641,1.734c1.375,0,3.614-0.199,3.614-2.024
		C471.282,34.375,470.174,34.264,469.198,34.264z M467.49,23.63c-1.93,0-3.128,0.667-3.128,2.736c0,2.047,1.198,2.691,3.128,2.691
		c1.908,0,3.128-0.646,3.128-2.691C470.616,24.297,469.398,23.63,467.49,23.63z"/>
	<path fill="#B3B3B2" d="M480.798,35.977c-0.646,2.068-1.311,2.959-3.685,2.959c-0.71,0-1.131-0.021-1.553-0.089
		c-0.2-0.045-0.244-0.156-0.244-0.245v-0.979c0-0.11,0.111-0.224,0.244-0.224h0.021c0.223,0,0.844,0.021,1.286,0.021
		c1.134,0,1.775-0.223,2.13-1.468l0.512-1.69h-0.909c-0.2,0-0.377-0.134-0.444-0.355l-3.705-10.969c0-0.044-0.021-0.066-0.021-0.089
		c0-0.134,0.133-0.268,0.267-0.268h1.311c0.222,0,0.289,0.133,0.333,0.289l3.148,10.101h0.577l2.84-10.101
		c0.022-0.156,0.155-0.289,0.355-0.289h1.396c0.135,0,0.268,0.11,0.268,0.268c0,0.021,0,0.045-0.022,0.066L480.798,35.977z"/>
	<path fill="#B3B3B2" d="M504.156,34.264h-1.087c-0.222,0-0.354-0.134-0.354-0.333v-8.231c0-1.469-0.532-1.98-2.085-1.98
		c-2.063,0-4.171,0.623-4.171,0.623v9.59c0,0.222-0.091,0.333-0.312,0.333h-1.087c-0.2,0-0.333-0.134-0.333-0.333V25.7
		c0-1.469-0.555-1.98-2.108-1.98c-2.062,0-4.147,0.623-4.147,0.623v9.59c0,0.199-0.111,0.333-0.312,0.333h-1.107
		c-0.2,0-0.333-0.134-0.333-0.333V24.7c0-0.891,0.044-1.29,1.151-1.668c1.154-0.4,3.373-0.734,4.792-0.734
		c1.397,0,2.396,0.268,3.019,0.847c1.243-0.489,3.639-0.847,4.992-0.847c2.64,0,3.814,0.823,3.814,3.204v8.433
		C504.49,34.131,504.356,34.264,504.156,34.264z"/>
	<path fill="#B3B3B2" d="M516.886,34.264h-1.087c-0.2,0-0.333-0.134-0.333-0.333v-8.231c0-1.469-0.557-1.98-2.108-1.98
		c-2.062,0-4.147,0.623-4.147,0.623v9.59c0,0.199-0.111,0.333-0.312,0.333h-1.109c-0.198,0-0.333-0.134-0.333-0.333v-9.232
		c0-0.891,0.045-1.29,1.153-1.668c1.154-0.4,3.373-0.734,4.792-0.734c2.641,0,3.816,0.823,3.816,3.204v8.433
		C517.219,34.131,517.085,34.264,516.886,34.264z"/>
	<path fill="#B3B3B2" d="M527.598,34.242c-0.645,0.134-1.708,0.312-2.884,0.312c-1.908,0-5.081-0.066-5.081-3.672
		c0-2.98,1.642-3.137,3.838-3.492l4.191-0.688v-1.046c0-0.713-0.021-1.29-0.799-1.58c-0.421-0.179-1.043-0.268-2.019-0.268
		c-1.708,0-3.195,0.422-4.104,0.646c-0.044,0-0.089,0.021-0.133,0.021c-0.089,0-0.178-0.044-0.222-0.179l-0.2-1.001v-0.044
		c0-0.178,0.155-0.245,0.222-0.268c0.71-0.268,2.618-0.689,4.639-0.689c1.573,0,2.596,0.224,3.237,0.579
		c1.131,0.602,1.154,1.646,1.154,2.691v6.386C529.44,33.508,529.129,33.865,527.598,34.242z M527.687,28.102l-4.082,0.689
		c-1.065,0.2-2.152,0.245-2.152,2.002c0,2.226,1.819,2.38,3.284,2.38c0.978,0,2.021-0.133,2.951-0.444L527.687,28.102
		L527.687,28.102z"/>
	<path fill="#B3B3B2" d="M535.981,34.552c-1.953,0-3.639-0.645-3.927-0.756c-0.089-0.044-0.177-0.089-0.177-0.222v-0.067
		l0.222-0.867c0.021-0.111,0.089-0.2,0.244-0.2h0.109c0.18,0.066,1.753,0.646,3.572,0.646c1.886,0,2.974-0.602,2.974-1.958
		c0-1.848-1.421-1.779-3.149-2.047c-1.087-0.179-3.86-0.378-3.86-3.314c0-2.87,2.552-3.472,4.504-3.472
		c1.908,0,3.372,0.4,3.616,0.467c0.155,0.022,0.223,0.135,0.223,0.245v0.044l-0.154,0.979c-0.022,0.135-0.111,0.179-0.2,0.179
		h-0.044c-0.312-0.021-1.952-0.423-3.261-0.423c-1.599,0-2.931,0.444-2.931,1.847c0,1.514,1.51,1.689,2.885,1.869
		c1.997,0.268,4.148,0.423,4.148,3.448C540.773,33.841,538.555,34.552,535.981,34.552z"/>
	<path fill="#B3B3B2" d="M544.941,20.582h-1.087c-0.2,0-0.333-0.133-0.333-0.312v-2.402c0-0.2,0.133-0.333,0.333-0.333h1.087
		c0.2,0,0.333,0.133,0.333,0.333v2.402C545.274,20.449,545.141,20.582,544.941,20.582z M544.941,34.264h-1.087
		c-0.2,0-0.333-0.134-0.333-0.333V22.918c0-0.2,0.133-0.333,0.333-0.333h1.087c0.2,0,0.333,0.133,0.333,0.333v11.014
		C545.274,34.131,545.141,34.264,544.941,34.264z"/>
	<path fill="#B3B3B2" d="M558.406,29.281c-0.021,0.11-0.178,0.288-0.289,0.288h-8.142c0,1.225,0.222,1.914,0.688,2.492
		c0.646,0.822,1.73,1.067,3.284,1.067c1.375,0,2.219-0.268,3.263-0.556c0.044-0.022,0.089-0.045,0.133-0.045
		c0.089,0,0.177,0.067,0.222,0.2l0.244,0.847v0.089c0,0.11-0.089,0.178-0.222,0.245c-0.89,0.355-2.354,0.646-3.816,0.646
		c-4.348,0-5.635-2.023-5.635-6.118c0-3.761,0.754-6.142,5.146-6.142c2.33,0,3.685,0.712,4.415,1.979
		c0.577,1.001,0.71,2.382,0.71,3.916V29.281L558.406,29.281z M556.299,25.588c-0.399-1.424-1.267-1.891-3.062-1.891
		c-1.773,0-2.64,0.467-3.018,1.891c-0.224,0.823-0.244,1.689-0.268,2.515l6.611-0.021C556.543,27.234,556.497,26.411,556.299,25.588
		z"/>
	<path fill="#B3B3B2" d="M567.166,33.908c0,0.089-0.089,0.199-0.178,0.223c-0.486,0.156-1.44,0.422-2.707,0.422
		c-2.195,0-3.237-0.956-3.237-3.092V19.225c0-0.179,0.109-0.245,0.266-0.268l1.198-0.312h0.065c0.155,0,0.224,0.155,0.224,0.289
		v3.648h3.728c0.2,0,0.333,0.133,0.333,0.333v0.756c0,0.2-0.133,0.334-0.333,0.334h-3.728v7.632c0,1.224,0.666,1.489,1.817,1.489
		c0.688,0,1.575-0.178,2.041-0.289h0.067c0.11,0,0.2,0.066,0.244,0.2l0.199,0.822V33.908L567.166,33.908z"/>
</g>
<g>
	<g>
		<g>
			<defs>
				<rect id="SVGID_1_" x="745.509" y="-45.968" width="311.549" height="103.589"/>
			</defs>
			<clipPath id="SVGID_2_">
				<use xlink:href="#SVGID_1_"  overflow="visible"/>
			</clipPath>
			
				<ellipse clip-path="url(#SVGID_2_)" fill="none" stroke="#82CFF5" stroke-width="0.8771" stroke-miterlimit="10" cx="762.446" cy="31.389" rx="16.499" ry="16.828"/>
			<ellipse opacity="0.5" clip-path="url(#SVGID_2_)" fill="#82CFF5" cx="762.451" cy="31.363" rx="16.499" ry="16.828"/>
		</g>
	</g>
	<g>
		<g>
			<defs>
				<rect id="SVGID_3_" x="745.509" y="-45.968" width="311.549" height="103.589"/>
			</defs>
			<clipPath id="SVGID_4_">
				<use xlink:href="#SVGID_3_"  overflow="visible"/>
			</clipPath>
			<path clip-path="url(#SVGID_4_)" fill="none" stroke="#0DA2DD" stroke-width="0.8771" stroke-miterlimit="10" d="M809.795,31.389
				c0,9.293-7.392,16.827-16.505,16.827c-9.109,0-16.493-7.534-16.493-16.827s7.384-16.83,16.493-16.83
				C802.405,14.559,809.795,22.096,809.795,31.389z"/>
			<path opacity="0.5" clip-path="url(#SVGID_4_)" fill="#0DA2DD" d="M809.916,31.183c0,9.293-7.392,16.827-16.505,16.827
				c-9.109,0-16.493-7.534-16.493-16.827s7.384-16.83,16.493-16.83C802.526,14.353,809.916,21.89,809.916,31.183z"/>
		</g>
	</g>
	<g>
		<g>
			<defs>
				<rect id="SVGID_5_" x="745.509" y="-45.968" width="311.549" height="103.589"/>
			</defs>
			<clipPath id="SVGID_6_">
				<use xlink:href="#SVGID_5_"  overflow="visible"/>
			</clipPath>
			<path clip-path="url(#SVGID_6_)" fill="none" stroke="#3E68B0" stroke-width="0.8771" stroke-miterlimit="10" d="M840.64,31.389
				c0,9.293-7.385,16.827-16.499,16.827c-9.108,0-16.498-7.534-16.498-16.827s7.39-16.83,16.498-16.83
				C833.255,14.559,840.64,22.096,840.64,31.389z"/>
			<path opacity="0.5" clip-path="url(#SVGID_6_)" fill="#3E68B0" d="M840.724,31.555c0,9.292-7.385,16.828-16.499,16.828
				c-9.108,0-16.498-7.535-16.498-16.828c0-9.293,7.39-16.83,16.498-16.83C833.339,14.725,840.724,22.262,840.724,31.555z"/>
		</g>
	</g>
	<g>
		<g>
			<defs>
				<rect id="SVGID_7_" x="745.509" y="-45.968" width="311.549" height="103.589"/>
			</defs>
			<clipPath id="SVGID_8_">
				<use xlink:href="#SVGID_7_"  overflow="visible"/>
			</clipPath>
			
				<ellipse clip-path="url(#SVGID_8_)" fill="none" stroke="#A42423" stroke-width="0.8771" stroke-miterlimit="10" cx="854.989" cy="31.389" rx="16.5" ry="16.828"/>
			<ellipse opacity="0.5" clip-path="url(#SVGID_8_)" fill="#A42423" cx="854.929" cy="31.639" rx="16.5" ry="16.828"/>
		</g>
	</g>
	<g>
		<g>
			<defs>
				<rect id="SVGID_9_" x="745.509" y="-45.968" width="311.549" height="103.589"/>
			</defs>
			<clipPath id="SVGID_10_">
				<use xlink:href="#SVGID_9_"  overflow="visible"/>
			</clipPath>
			<path clip-path="url(#SVGID_10_)" fill="#1E1E1C" d="M762.451,34.999h-0.399c-0.07,0-0.123-0.056-0.123-0.123v-2.534h-3.326
				v2.534c0,0.067-0.055,0.123-0.123,0.123h-0.396c-0.071,0-0.125-0.056-0.125-0.123v-5.508c0-0.062,0.038-0.086,0.092-0.101
				l0.454-0.077h0.022c0.054,0,0.076,0.055,0.076,0.101v2.448h3.326v-2.371c0-0.062,0.035-0.086,0.091-0.101l0.456-0.077h0.021
				c0.053,0,0.075,0.055,0.075,0.101v5.585C762.573,34.944,762.521,34.999,762.451,34.999"/>
		</g>
	</g>
	<g>
		<g>
			<defs>
				<rect id="SVGID_11_" x="745.509" y="-45.968" width="311.549" height="103.589"/>
			</defs>
			<clipPath id="SVGID_12_">
				<use xlink:href="#SVGID_11_"  overflow="visible"/>
			</clipPath>
			<path clip-path="url(#SVGID_12_)" fill="#1E1E1C" d="M767.311,29.884h-2.731v2.227h2.49c0.062,0,0.11,0.056,0.11,0.123v0.365
				c0,0.061-0.051,0.12-0.11,0.12h-2.49v2.156c0,0.067-0.05,0.123-0.115,0.123h-0.404c-0.067,0-0.117-0.056-0.117-0.123v-5.461
				c0-0.07,0.05-0.123,0.117-0.123h3.245c0.066,0,0.121,0.053,0.121,0.123v0.349C767.424,29.833,767.369,29.884,767.311,29.884"/>
		</g>
	</g>
	<g>
		<g>
			<defs>
				<rect id="SVGID_13_" x="745.509" y="-45.968" width="311.549" height="103.589"/>
			</defs>
			<clipPath id="SVGID_14_">
				<use xlink:href="#SVGID_13_"  overflow="visible"/>
			</clipPath>
			<path clip-path="url(#SVGID_14_)" fill="#1E1E1C" d="M790.028,34.999h-0.401c-0.067,0-0.121-0.056-0.121-0.123v-2.534h-3.328
				v2.534c0,0.067-0.053,0.123-0.121,0.123h-0.399c-0.067,0-0.122-0.056-0.122-0.123v-5.508c0-0.062,0.037-0.086,0.093-0.102
				l0.453-0.076h0.022c0.054,0,0.074,0.055,0.074,0.101v2.448h3.328v-2.371c0-0.062,0.038-0.086,0.09-0.102l0.455-0.076h0.022
				c0.054,0,0.076,0.055,0.076,0.101v5.585C790.149,34.944,790.096,34.999,790.028,34.999"/>
		</g>
	</g>
	<g>
		<g>
			<defs>
				<rect id="SVGID_15_" x="745.509" y="-45.968" width="311.549" height="103.589"/>
			</defs>
			<clipPath id="SVGID_16_">
				<use xlink:href="#SVGID_15_"  overflow="visible"/>
			</clipPath>
			<path clip-path="url(#SVGID_16_)" fill="#1E1E1C" d="M796.007,34.999h-0.401c-0.067,0-0.121-0.056-0.121-0.123v-2.534h-3.327
				v2.534c0,0.067-0.053,0.123-0.121,0.123h-0.4c-0.069,0-0.12-0.056-0.12-0.123v-5.508c0-0.062,0.037-0.086,0.094-0.102
				l0.452-0.076h0.021c0.055,0,0.074,0.055,0.074,0.101v2.448h3.327v-2.371c0-0.062,0.038-0.086,0.091-0.102l0.454-0.076h0.021
				c0.056,0,0.077,0.055,0.077,0.101v5.585C796.128,34.944,796.073,34.999,796.007,34.999"/>
		</g>
	</g>
	<g>
		<g>
			<defs>
				<rect id="SVGID_17_" x="745.509" y="-45.968" width="311.549" height="103.589"/>
			</defs>
			<clipPath id="SVGID_18_">
				<use xlink:href="#SVGID_17_"  overflow="visible"/>
			</clipPath>
			<path clip-path="url(#SVGID_18_)" fill="#1E1E1C" d="M801.82,34.907c0,0.046-0.036,0.092-0.082,0.092h-0.521
				c-0.05,0-0.097-0.031-0.109-0.056l-1.749-2.608l-1.79,2.608c-0.013,0.031-0.048,0.056-0.099,0.056h-0.561
				c-0.045,0-0.086-0.046-0.086-0.085c0-0.016,0.013-0.028,0.02-0.038l2.016-2.873l-1.789-2.582
				c-0.009-0.014-0.009-0.028-0.009-0.037c0-0.046,0.039-0.092,0.084-0.092h0.539c0.053,0,0.09,0.021,0.121,0.067l1.554,2.325
				l1.531-2.332c0.028-0.048,0.067-0.062,0.119-0.062h0.53c0.046,0,0.086,0.046,0.086,0.092c0,0.009,0,0.023-0.019,0.037
				l-1.742,2.582l1.947,2.865C801.82,34.885,801.82,34.891,801.82,34.907"/>
		</g>
	</g>
	<g>
		<g>
			<defs>
				<rect id="SVGID_19_" x="745.509" y="-45.968" width="311.549" height="103.589"/>
			</defs>
			<clipPath id="SVGID_20_">
				<use xlink:href="#SVGID_19_"  overflow="visible"/>
			</clipPath>
			<path clip-path="url(#SVGID_20_)" fill="#1E1E1C" d="M821.27,34.999h-0.4c-0.064,0-0.122-0.056-0.122-0.123v-2.534h-3.323v2.534
				c0,0.067-0.056,0.123-0.122,0.123H816.9c-0.067,0-0.119-0.056-0.119-0.123v-5.507c0-0.062,0.035-0.087,0.092-0.102l0.452-0.077
				h0.025c0.051,0,0.074,0.055,0.074,0.101v2.448h3.323v-2.37c0-0.062,0.039-0.087,0.093-0.102l0.458-0.077h0.021
				c0.051,0,0.074,0.055,0.074,0.101v5.585C821.392,34.944,821.341,34.999,821.27,34.999"/>
		</g>
	</g>
	<g>
		<g>
			<defs>
				<rect id="SVGID_21_" x="745.509" y="-45.968" width="311.549" height="103.589"/>
			</defs>
			<clipPath id="SVGID_22_">
				<use xlink:href="#SVGID_21_"  overflow="visible"/>
			</clipPath>
			<path clip-path="url(#SVGID_22_)" fill="#1E1E1C" d="M826.555,29.871h-1.84v5.005c0,0.067-0.057,0.123-0.124,0.123h-0.4
				c-0.069,0-0.121-0.056-0.121-0.123v-5.005h-1.842c-0.07,0-0.123-0.056-0.123-0.124v-0.332c0-0.07,0.053-0.123,0.123-0.123h4.327
				c0.066,0,0.12,0.053,0.12,0.123v0.332C826.675,29.816,826.621,29.871,826.555,29.871"/>
		</g>
	</g>
	<g>
		<g>
			<defs>
				<rect id="SVGID_23_" x="745.509" y="-45.968" width="311.549" height="103.589"/>
			</defs>
			<clipPath id="SVGID_24_">
				<use xlink:href="#SVGID_23_"  overflow="visible"/>
			</clipPath>
			<path clip-path="url(#SVGID_24_)" fill="#1E1E1C" d="M831.642,34.907c0,0.046-0.039,0.092-0.085,0.092h-0.522
				c-0.045,0-0.091-0.031-0.104-0.056l-1.752-2.608l-1.788,2.608c-0.016,0.031-0.052,0.056-0.1,0.056h-0.562
				c-0.045,0-0.085-0.046-0.085-0.085c0-0.016,0.009-0.028,0.018-0.038l2.019-2.873l-1.79-2.582
				c-0.009-0.014-0.009-0.028-0.009-0.037c0-0.046,0.041-0.092,0.085-0.092h0.536c0.055,0,0.091,0.021,0.122,0.067l1.554,2.325
				l1.53-2.332c0.033-0.048,0.067-0.062,0.122-0.062h0.529c0.048,0,0.083,0.046,0.083,0.092c0,0.009,0,0.023-0.015,0.037
				l-1.743,2.582l1.948,2.865C831.642,34.885,831.642,34.891,831.642,34.907"/>
		</g>
	</g>
	<g>
		<g>
			<defs>
				<rect id="SVGID_25_" x="745.509" y="-45.968" width="311.549" height="103.589"/>
			</defs>
			<clipPath id="SVGID_26_">
				<use xlink:href="#SVGID_25_"  overflow="visible"/>
			</clipPath>
			<path clip-path="url(#SVGID_26_)" fill="#1E1E1C" d="M850.137,34.999c-0.889,0-1.577-0.217-1.744-0.271
				c-0.062-0.016-0.099-0.068-0.099-0.124c0-0.006,0.008-0.021,0.008-0.03l0.086-0.341c0.005-0.037,0.072-0.066,0.112-0.066h0.017
				c0.146,0.029,0.922,0.246,1.751,0.246c0.688,0,1.421-0.239,1.421-1.081c0-0.805-0.65-0.912-1.507-1.021
				c-0.879-0.116-1.948-0.31-1.948-1.599c0-1.291,1.047-1.592,2.075-1.592c0.89,0,1.579,0.215,1.739,0.271
				c0.066,0.022,0.097,0.068,0.097,0.123v0.03l-0.084,0.339c-0.013,0.04-0.075,0.071-0.113,0.071h-0.015
				c-0.152-0.031-0.818-0.232-1.644-0.232c-0.652,0-1.42,0.147-1.42,0.936s0.768,0.943,1.492,1.045
				c0.909,0.121,1.98,0.184,1.98,1.573C852.344,34.651,851.229,34.999,850.137,34.999"/>
		</g>
	</g>
	<g>
		<g>
			<defs>
				<rect id="SVGID_27_" x="745.509" y="-45.968" width="311.549" height="103.589"/>
			</defs>
			<clipPath id="SVGID_28_">
				<use xlink:href="#SVGID_27_"  overflow="visible"/>
			</clipPath>
			<path clip-path="url(#SVGID_28_)" fill="#1E1E1C" d="M857.087,29.871h-1.846v5.005c0,0.067-0.051,0.123-0.116,0.123h-0.402
				c-0.069,0-0.122-0.056-0.122-0.123v-5.005h-1.841c-0.069,0-0.121-0.056-0.121-0.124v-0.332c0-0.07,0.052-0.123,0.121-0.123h4.327
				c0.067,0,0.117,0.053,0.117,0.123v0.332C857.204,29.816,857.156,29.871,857.087,29.871"/>
		</g>
	</g>
	<g>
		<g>
			<defs>
				<rect id="SVGID_29_" x="745.509" y="-45.968" width="311.549" height="103.589"/>
			</defs>
			<clipPath id="SVGID_30_">
				<use xlink:href="#SVGID_29_"  overflow="visible"/>
			</clipPath>
			<path clip-path="url(#SVGID_30_)" fill="#1E1E1C" d="M862.172,34.907c0,0.046-0.038,0.092-0.08,0.092h-0.522
				c-0.049,0-0.095-0.031-0.107-0.056l-1.752-2.608l-1.787,2.608c-0.018,0.031-0.055,0.056-0.1,0.056h-0.562
				c-0.047,0-0.084-0.046-0.084-0.085c0-0.016,0.008-0.028,0.016-0.038l2.019-2.873l-1.79-2.582
				c-0.005-0.014-0.005-0.028-0.005-0.037c0-0.046,0.034-0.092,0.081-0.092h0.538c0.057,0,0.092,0.021,0.118,0.067l1.556,2.325
				l1.53-2.332c0.031-0.048,0.068-0.062,0.122-0.062h0.531c0.046,0,0.084,0.046,0.084,0.092c0,0.009,0,0.023-0.017,0.037
				l-1.742,2.582l1.945,2.865C862.172,34.885,862.172,34.891,862.172,34.907"/>
		</g>
	</g>
</g>
<polygon fill="#333333" points="939.821,7.083 936.819,39.5 963.668,39.5 964.4,31.588 949.468,31.588 951.737,7.083 "/>
<g>
	<g>
		<g>
			<defs>
				<rect id="SVGID_31_" x="879.438" y="7.065" width="156.619" height="46.556"/>
			</defs>
			<clipPath id="SVGID_32_">
				<use xlink:href="#SVGID_31_"  overflow="visible"/>
			</clipPath>
			<path clip-path="url(#SVGID_32_)" fill="#333333" d="M931.769,39.502c0,0-8.269,0.016-12.676,0.016
				c-16.521,0-20.449-8.45-19.756-15.938c0.964-10.402,9.861-16.494,22.945-16.494l12.5-0.021l-0.658,7.122
				c0,0-8.125-0.019-11.521-0.019c-6.147,0-9.57,4.485-10.007,9.184c-0.466,5.05,1.979,9.447,10.104,8.84l0.953-10.384h9.756
				L931.769,39.502z"/>
		</g>
	</g>
	<g>
		<g>
			<defs>
				<rect id="SVGID_33_" x="879.438" y="7.065" width="156.619" height="46.556"/>
			</defs>
			<clipPath id="SVGID_34_">
				<use xlink:href="#SVGID_33_"  overflow="visible"/>
			</clipPath>
			<path clip-path="url(#SVGID_34_)" fill="#7C7C7B" d="M900.122,47.079c-0.058,0.438,0.05,0.635,0.638,0.635
				c0.18,0,0.406-0.017,0.649-0.063l0.149-1.161h0.429l-0.191,1.479c-0.349,0.099-0.752,0.148-1.105,0.148
				c-0.876,0-1.094-0.375-1.011-1.01l0.193-1.509c0.091-0.696,0.478-1.017,1.329-1.017c0.298,0,0.632,0.035,0.941,0.107
				l-0.104,0.382c-0.32-0.059-0.627-0.088-0.908-0.088c-0.566,0-0.761,0.169-0.819,0.634L900.122,47.079z"/>
		</g>
	</g>
	<g>
		<g>
			<defs>
				<rect id="SVGID_35_" x="879.438" y="7.065" width="156.619" height="46.556"/>
			</defs>
			<clipPath id="SVGID_36_">
				<use xlink:href="#SVGID_35_"  overflow="visible"/>
			</clipPath>
			<polygon clip-path="url(#SVGID_36_)" fill="#7C7C7B" points="905.761,44.631 906.225,44.631 904.779,47.028 904.644,48.063 
				904.198,48.063 904.331,47.028 903.507,44.631 903.971,44.631 904.615,46.547 			"/>
		</g>
	</g>
	<g>
		<g>
			<defs>
				<rect id="SVGID_37_" x="879.438" y="7.065" width="156.619" height="46.556"/>
			</defs>
			<clipPath id="SVGID_38_">
				<use xlink:href="#SVGID_37_"  overflow="visible"/>
			</clipPath>
			<polygon clip-path="url(#SVGID_38_)" fill="#7C7C7B" points="907.925,45.282 907.494,48.063 907.071,48.063 907.633,44.631 
				908.193,44.631 908.84,47.284 910.173,44.631 910.732,44.631 910.406,48.063 909.979,48.063 910.272,45.282 909.094,47.621 
				908.497,47.621 			"/>
		</g>
	</g>
	<g>
		<g>
			<defs>
				<rect id="SVGID_39_" x="879.438" y="7.065" width="156.619" height="46.556"/>
			</defs>
			<clipPath id="SVGID_40_">
				<use xlink:href="#SVGID_39_"  overflow="visible"/>
			</clipPath>
			<polygon clip-path="url(#SVGID_40_)" fill="#7C7C7B" points="912.907,45.142 912.528,48.063 912.108,48.063 912.552,44.631 
				913.159,44.631 914.274,47.569 914.654,44.631 915.075,44.631 914.631,48.063 914.023,48.063 			"/>
		</g>
	</g>
	<g>
		<g>
			<defs>
				<rect id="SVGID_41_" x="879.438" y="7.065" width="156.619" height="46.556"/>
			</defs>
			<clipPath id="SVGID_42_">
				<use xlink:href="#SVGID_41_"  overflow="visible"/>
			</clipPath>
			<path clip-path="url(#SVGID_42_)" fill="#7C7C7B" d="M919.006,48.063h-0.449l-0.176-0.823h-1.457l-0.387,0.823h-0.446
				l1.604-3.433h0.6L919.006,48.063z M917.948,44.952l-0.855,1.9h1.226L917.948,44.952z"/>
		</g>
	</g>
	<g>
		<g>
			<defs>
				<rect id="SVGID_43_" x="879.438" y="7.065" width="156.619" height="46.556"/>
			</defs>
			<clipPath id="SVGID_44_">
				<use xlink:href="#SVGID_43_"  overflow="visible"/>
			</clipPath>
			<path clip-path="url(#SVGID_44_)" fill="#7C7C7B" d="M921.35,48.115c-0.331,0-0.72-0.062-0.997-0.181l0.118-0.36
				c0.302,0.1,0.623,0.149,0.938,0.149c0.553,0,0.685-0.146,0.734-0.536c0.061-0.464,0.061-0.505-0.623-0.665
				c-0.807-0.186-0.884-0.346-0.792-1.056c0.077-0.598,0.363-0.887,1.213-0.887c0.298,0,0.646,0.041,0.912,0.112l-0.084,0.377
				c-0.269-0.062-0.588-0.099-0.871-0.099c-0.56,0-0.677,0.112-0.729,0.509c-0.062,0.476-0.063,0.496,0.593,0.666
				c0.881,0.228,0.91,0.36,0.824,1.028C922.509,47.774,922.287,48.115,921.35,48.115"/>
		</g>
	</g>
	<g>
		<g>
			<defs>
				<rect id="SVGID_45_" x="879.438" y="7.065" width="156.619" height="46.556"/>
			</defs>
			<clipPath id="SVGID_46_">
				<use xlink:href="#SVGID_45_"  overflow="visible"/>
			</clipPath>
			<polygon clip-path="url(#SVGID_46_)" fill="#7C7C7B" points="924.59,48.063 924.147,48.063 924.591,44.631 925.033,44.631 			"/>
		</g>
	</g>
	<g>
		<g>
			<defs>
				<rect id="SVGID_47_" x="879.438" y="7.065" width="156.619" height="46.556"/>
			</defs>
			<clipPath id="SVGID_48_">
				<use xlink:href="#SVGID_47_"  overflow="visible"/>
			</clipPath>
			<polygon clip-path="url(#SVGID_48_)" fill="#7C7C7B" points="926.812,44.631 928.829,44.631 928.78,45.029 927.203,45.029 
				927.063,46.106 928.526,46.106 928.477,46.501 927.013,46.501 926.862,47.667 928.44,47.667 928.392,48.063 926.365,48.063 			
				"/>
		</g>
	</g>
	<g>
		<g>
			<defs>
				<rect id="SVGID_49_" x="879.438" y="7.065" width="156.619" height="46.556"/>
			</defs>
			<clipPath id="SVGID_50_">
				<use xlink:href="#SVGID_49_"  overflow="visible"/>
			</clipPath>
			<path clip-path="url(#SVGID_50_)" fill="#7C7C7B" d="M930.907,48.115c-0.328,0-0.718-0.062-0.994-0.181l0.117-0.36
				c0.299,0.1,0.623,0.149,0.938,0.149c0.55,0,0.683-0.146,0.729-0.536c0.062-0.464,0.063-0.505-0.622-0.665
				c-0.806-0.186-0.882-0.346-0.789-1.056c0.077-0.598,0.36-0.887,1.209-0.887c0.301,0,0.649,0.041,0.914,0.112l-0.086,0.377
				c-0.265-0.062-0.585-0.099-0.868-0.099c-0.56,0-0.678,0.112-0.729,0.509c-0.062,0.476-0.063,0.496,0.594,0.666
				c0.882,0.228,0.911,0.36,0.825,1.028C932.07,47.774,931.853,48.115,930.907,48.115"/>
		</g>
	</g>
	<g>
		<g>
			<defs>
				<rect id="SVGID_51_" x="879.438" y="7.065" width="156.619" height="46.556"/>
			</defs>
			<clipPath id="SVGID_52_">
				<use xlink:href="#SVGID_51_"  overflow="visible"/>
			</clipPath>
			<path clip-path="url(#SVGID_52_)" fill="#7C7C7B" d="M934.122,48.063h-0.441l0.443-3.433h0.445L934.122,48.063z M934.956,46.317
				l1.135,1.746h-0.53l-1.103-1.746l1.454-1.687h0.521L934.956,46.317z"/>
		</g>
	</g>
	<g>
		<g>
			<defs>
				<rect id="SVGID_53_" x="879.438" y="7.065" width="156.619" height="46.556"/>
			</defs>
			<clipPath id="SVGID_54_">
				<use xlink:href="#SVGID_53_"  overflow="visible"/>
			</clipPath>
			<path clip-path="url(#SVGID_54_)" fill="#7C7C7B" d="M939.965,47.075c-0.075,0.569-0.491,1.039-1.376,1.039
				c-0.887,0-1.182-0.47-1.104-1.039l0.188-1.454c0.07-0.571,0.487-1.039,1.373-1.039s1.181,0.468,1.104,1.039L939.965,47.075z
				 M937.928,47.063c-0.056,0.424,0.17,0.66,0.713,0.66c0.539,0,0.828-0.236,0.884-0.66l0.185-1.433
				c0.058-0.422-0.173-0.658-0.712-0.658c-0.542,0-0.826,0.236-0.885,0.658L937.928,47.063z"/>
		</g>
	</g>
	<g>
		<g>
			<defs>
				<rect id="SVGID_55_" x="879.438" y="7.065" width="156.619" height="46.556"/>
			</defs>
			<clipPath id="SVGID_56_">
				<use xlink:href="#SVGID_55_"  overflow="visible"/>
			</clipPath>
			<polygon clip-path="url(#SVGID_56_)" fill="#7C7C7B" points="942.005,47.667 943.491,47.667 943.441,48.063 941.513,48.063 
				941.956,44.631 942.399,44.631 			"/>
		</g>
	</g>
	<g>
		<g>
			<defs>
				<rect id="SVGID_57_" x="879.438" y="7.065" width="156.619" height="46.556"/>
			</defs>
			<clipPath id="SVGID_58_">
				<use xlink:href="#SVGID_57_"  overflow="visible"/>
			</clipPath>
			<polygon clip-path="url(#SVGID_58_)" fill="#7C7C7B" points="945.406,44.631 947.426,44.631 947.375,45.029 945.8,45.029 
				945.656,46.106 947.12,46.106 947.072,46.501 945.609,46.501 945.459,47.667 947.037,47.667 946.986,48.063 944.964,48.063 			
				"/>
		</g>
	</g>
	<g>
		<g>
			<defs>
				<rect id="SVGID_59_" x="879.438" y="7.065" width="156.619" height="46.556"/>
			</defs>
			<clipPath id="SVGID_60_">
				<use xlink:href="#SVGID_59_"  overflow="visible"/>
			</clipPath>
			<path clip-path="url(#SVGID_60_)" fill="#7C7C7B" d="M950.063,46.821h-0.839l-0.16,1.242h-0.444l0.445-3.433h1.309
				c0.734,0,0.951,0.32,0.884,0.846l-0.062,0.496c-0.053,0.404-0.239,0.686-0.647,0.798l0.725,1.293h-0.512L950.063,46.821z
				 M950.306,45.029h-0.852l-0.181,1.4h0.849c0.426,0,0.582-0.116,0.625-0.452l0.064-0.496
				C950.856,45.142,950.728,45.029,950.306,45.029"/>
		</g>
	</g>
	<g>
		<g>
			<defs>
				<rect id="SVGID_61_" x="879.438" y="7.065" width="156.619" height="46.556"/>
			</defs>
			<clipPath id="SVGID_62_">
				<use xlink:href="#SVGID_61_"  overflow="visible"/>
			</clipPath>
			<polygon clip-path="url(#SVGID_62_)" fill="#7C7C7B" points="953.552,45.142 953.174,48.063 952.75,48.063 953.197,44.631 
				953.805,44.631 954.916,47.569 955.299,44.631 955.72,44.631 955.275,48.063 954.668,48.063 			"/>
		</g>
	</g>
	<g>
		<g>
			<defs>
				<rect id="SVGID_63_" x="879.438" y="7.065" width="156.619" height="46.556"/>
			</defs>
			<clipPath id="SVGID_64_">
				<use xlink:href="#SVGID_63_"  overflow="visible"/>
			</clipPath>
			<polygon clip-path="url(#SVGID_64_)" fill="#7C7C7B" points="957.474,44.631 959.49,44.631 959.439,45.029 957.862,45.029 
				957.724,46.106 959.187,46.106 959.136,46.501 957.672,46.501 957.521,47.667 959.103,47.667 959.052,48.063 957.027,48.063 			
				"/>
		</g>
	</g>
	<g>
		<g>
			<defs>
				<rect id="SVGID_65_" x="879.438" y="7.065" width="156.619" height="46.556"/>
			</defs>
			<clipPath id="SVGID_66_">
				<use xlink:href="#SVGID_65_"  overflow="visible"/>
			</clipPath>
			<path clip-path="url(#SVGID_66_)" fill="#7C7C7B" d="M961.569,48.115c-0.327,0-0.718-0.062-0.996-0.181l0.118-0.36
				c0.302,0.1,0.623,0.149,0.938,0.149c0.552,0,0.683-0.146,0.732-0.536c0.061-0.464,0.062-0.505-0.625-0.665
				c-0.805-0.186-0.883-0.346-0.789-1.056c0.077-0.598,0.362-0.887,1.212-0.887c0.299,0,0.646,0.041,0.911,0.112l-0.083,0.377
				c-0.268-0.062-0.588-0.099-0.869-0.099c-0.562,0-0.681,0.112-0.729,0.509c-0.062,0.476-0.064,0.496,0.595,0.666
				c0.881,0.228,0.909,0.36,0.824,1.028C962.731,47.774,962.511,48.115,961.569,48.115"/>
		</g>
	</g>
	<g>
		<g>
			<defs>
				<rect id="SVGID_67_" x="879.438" y="7.065" width="156.619" height="46.556"/>
			</defs>
			<clipPath id="SVGID_68_">
				<use xlink:href="#SVGID_67_"  overflow="visible"/>
			</clipPath>
			<polygon clip-path="url(#SVGID_68_)" fill="#7C7C7B" points="967.49,47.667 968.978,47.667 968.926,48.063 966.994,48.063 
				967.439,44.631 967.884,44.631 			"/>
		</g>
	</g>
	<g>
		<g>
			<defs>
				<rect id="SVGID_69_" x="879.438" y="7.065" width="156.619" height="46.556"/>
			</defs>
			<clipPath id="SVGID_70_">
				<use xlink:href="#SVGID_69_"  overflow="visible"/>
			</clipPath>
			<path clip-path="url(#SVGID_70_)" fill="#7C7C7B" d="M972.442,47.24h-1.456l-0.385,0.823h-0.447l1.604-3.433h2.677l-0.051,0.396
				h-1.946l0.222,1.077h1.474l-0.052,0.396h-1.341l0.247,1.165h1.062l-0.052,0.396h-1.376L972.442,47.24z M972.013,44.952
				l-0.856,1.9h1.226L972.013,44.952z"/>
		</g>
	</g>
	<g>
		<g>
			<defs>
				<rect id="SVGID_71_" x="879.438" y="7.065" width="156.619" height="46.556"/>
			</defs>
			<clipPath id="SVGID_72_">
				<use xlink:href="#SVGID_71_"  overflow="visible"/>
			</clipPath>
			<path clip-path="url(#SVGID_72_)" fill="#7C7C7B" d="M977.087,46.821h-0.84l-0.159,1.242h-0.442l0.443-3.433h1.311
				c0.734,0,0.948,0.32,0.883,0.846l-0.062,0.496c-0.057,0.404-0.24,0.686-0.651,0.798l0.726,1.293h-0.513L977.087,46.821z
				 M977.331,45.029h-0.853l-0.183,1.4h0.852c0.423,0,0.581-0.116,0.625-0.452l0.062-0.496
				C977.884,45.142,977.754,45.029,977.331,45.029"/>
		</g>
	</g>
	<g>
		<g>
			<defs>
				<rect id="SVGID_73_" x="879.438" y="7.065" width="156.619" height="46.556"/>
			</defs>
			<clipPath id="SVGID_74_">
				<use xlink:href="#SVGID_73_"  overflow="visible"/>
			</clipPath>
			<polygon clip-path="url(#SVGID_74_)" fill="#7C7C7B" points="980.221,44.631 982.239,44.631 982.188,45.029 980.612,45.029 
				980.473,46.106 981.937,46.106 981.885,46.501 980.424,46.501 980.272,47.667 981.85,47.667 981.8,48.063 979.777,48.063 			"/>
		</g>
	</g>
	<g>
		<g>
			<defs>
				<rect id="SVGID_75_" x="879.438" y="7.065" width="156.619" height="46.556"/>
			</defs>
			<clipPath id="SVGID_76_">
				<use xlink:href="#SVGID_75_"  overflow="visible"/>
			</clipPath>
			<path clip-path="url(#SVGID_76_)" fill="#7C7C7B" d="M984.878,46.821h-0.842l-0.158,1.242h-0.445l0.446-3.433h1.307
				c0.738,0,0.954,0.32,0.886,0.846l-0.063,0.496c-0.053,0.404-0.236,0.686-0.649,0.798l0.725,1.293h-0.509L984.878,46.821z
				 M985.117,45.029h-0.85l-0.182,1.4h0.849c0.424,0,0.584-0.116,0.626-0.452l0.064-0.496
				C985.671,45.142,985.541,45.029,985.117,45.029"/>
		</g>
	</g>
	<g>
		<g>
			<defs>
				<rect id="SVGID_77_" x="879.438" y="7.065" width="156.619" height="46.556"/>
			</defs>
			<clipPath id="SVGID_78_">
				<use xlink:href="#SVGID_77_"  overflow="visible"/>
			</clipPath>
			<polygon clip-path="url(#SVGID_78_)" fill="#7C7C7B" points="987.566,48.063 988.01,44.631 990.049,44.631 989.994,45.029 
				988.4,45.029 988.253,46.173 989.74,46.173 989.69,46.57 988.2,46.57 988.009,48.063 			"/>
		</g>
	</g>
	<g>
		<g>
			<defs>
				<rect id="SVGID_79_" x="879.438" y="7.065" width="156.619" height="46.556"/>
			</defs>
			<clipPath id="SVGID_80_">
				<use xlink:href="#SVGID_79_"  overflow="visible"/>
			</clipPath>
			<path clip-path="url(#SVGID_80_)" fill="#7C7C7B" d="M993.631,47.075c-0.074,0.569-0.489,1.039-1.375,1.039
				s-1.182-0.47-1.105-1.039l0.188-1.454c0.072-0.571,0.488-1.039,1.375-1.039c0.885,0,1.181,0.468,1.104,1.039L993.631,47.075z
				 M991.594,47.063c-0.058,0.424,0.171,0.66,0.712,0.66c0.542,0,0.829-0.236,0.886-0.66l0.188-1.433
				c0.056-0.422-0.176-0.658-0.717-0.658c-0.539,0-0.825,0.236-0.882,0.658L991.594,47.063z"/>
		</g>
	</g>
	<g>
		<g>
			<defs>
				<rect id="SVGID_81_" x="879.438" y="7.065" width="156.619" height="46.556"/>
			</defs>
			<clipPath id="SVGID_82_">
				<use xlink:href="#SVGID_81_"  overflow="visible"/>
			</clipPath>
			<path clip-path="url(#SVGID_82_)" fill="#7C7C7B" d="M996.622,46.821h-0.84l-0.162,1.242h-0.442l0.445-3.433h1.308
				c0.737,0,0.955,0.32,0.885,0.846l-0.062,0.496c-0.054,0.404-0.238,0.686-0.648,0.798l0.724,1.293h-0.51L996.622,46.821z
				 M996.864,45.029h-0.85l-0.182,1.4h0.849c0.424,0,0.584-0.116,0.626-0.452l0.062-0.496
				C997.416,45.142,997.286,45.029,996.864,45.029"/>
		</g>
	</g>
	<g>
		<g>
			<defs>
				<rect id="SVGID_83_" x="879.438" y="7.065" width="156.619" height="46.556"/>
			</defs>
			<clipPath id="SVGID_84_">
				<use xlink:href="#SVGID_83_"  overflow="visible"/>
			</clipPath>
			<polygon clip-path="url(#SVGID_84_)" fill="#7C7C7B" points="999.756,44.631 1001.774,44.631 1001.723,45.029 1000.146,45.029 
				1000.008,46.106 1001.469,46.106 1001.418,46.501 999.954,46.501 999.806,47.667 1001.385,47.667 1001.334,48.063 999.31,48.063 
							"/>
		</g>
	</g>
	<g>
		<g>
			<defs>
				<rect id="SVGID_85_" x="879.438" y="7.065" width="156.619" height="46.556"/>
			</defs>
			<clipPath id="SVGID_86_">
				<use xlink:href="#SVGID_85_"  overflow="visible"/>
			</clipPath>
			<polygon clip-path="url(#SVGID_86_)" fill="#7C7C7B" points="1003.769,45.142 1003.391,48.063 1002.967,48.063 1003.412,44.631 
				1004.02,44.631 1005.132,47.569 1005.514,44.631 1005.936,44.631 1005.489,48.063 1004.882,48.063 			"/>
		</g>
	</g>
	<g>
		<g>
			<defs>
				<rect id="SVGID_87_" x="879.438" y="7.065" width="156.619" height="46.556"/>
			</defs>
			<clipPath id="SVGID_88_">
				<use xlink:href="#SVGID_87_"  overflow="visible"/>
			</clipPath>
			<polygon clip-path="url(#SVGID_88_)" fill="#7C7C7B" points="1007.712,48.063 1007.271,48.063 1007.715,44.631 1008.156,44.631 
							"/>
		</g>
	</g>
	<g>
		<g>
			<defs>
				<rect id="SVGID_89_" x="879.438" y="7.065" width="156.619" height="46.556"/>
			</defs>
			<clipPath id="SVGID_90_">
				<use xlink:href="#SVGID_89_"  overflow="visible"/>
			</clipPath>
			<polygon clip-path="url(#SVGID_90_)" fill="#7C7C7B" points="1010.291,45.142 1009.908,48.063 1009.489,48.063 1009.934,44.631 
				1010.541,44.631 1011.653,47.569 1012.033,44.631 1012.454,44.631 1012.012,48.063 1011.405,48.063 			"/>
		</g>
	</g>
	<g>
		<g>
			<defs>
				<rect id="SVGID_91_" x="879.438" y="7.065" width="156.619" height="46.556"/>
			</defs>
			<clipPath id="SVGID_92_">
				<use xlink:href="#SVGID_91_"  overflow="visible"/>
			</clipPath>
			<path clip-path="url(#SVGID_92_)" fill="#7C7C7B" d="M1014.259,47.079c-0.059,0.438,0.047,0.635,0.633,0.635
				c0.182,0,0.409-0.017,0.649-0.063l0.149-1.161h0.431l-0.189,1.479c-0.35,0.099-0.751,0.148-1.105,0.148
				c-0.876,0-1.094-0.375-1.015-1.01l0.197-1.509c0.091-0.696,0.478-1.017,1.33-1.017c0.294,0,0.63,0.035,0.938,0.107l-0.1,0.382
				c-0.32-0.059-0.626-0.088-0.909-0.088c-0.568,0-0.76,0.169-0.818,0.634L1014.259,47.079z"/>
		</g>
	</g>
	<g>
		<g>
			<defs>
				<rect id="SVGID_93_" x="879.438" y="7.065" width="156.619" height="46.556"/>
			</defs>
			<clipPath id="SVGID_94_">
				<use xlink:href="#SVGID_93_"  overflow="visible"/>
			</clipPath>
			<polygon clip-path="url(#SVGID_94_)" fill="#FFFFFF" points="939.821,138.446 951.737,138.446 949.468,162.953 964.4,162.953 
				963.668,170.865 936.819,170.865 			"/>
		</g>
	</g>
	<g>
		<g>
			<defs>
				<rect id="SVGID_95_" x="879.438" y="7.065" width="156.619" height="46.556"/>
			</defs>
			<clipPath id="SVGID_96_">
				<use xlink:href="#SVGID_95_"  overflow="visible"/>
			</clipPath>
			<path clip-path="url(#SVGID_96_)" fill="#FFFFFF" d="M931.769,170.866c0,0-8.269,0.016-12.676,0.016
				c-16.521,0-20.449-8.449-19.756-15.938c0.964-10.401,9.861-16.493,22.945-16.493l12.5-0.021l-0.658,7.12
				c0,0-8.125-0.018-11.521-0.018c-6.147,0-9.57,4.486-10.007,9.184c-0.466,5.05,1.979,9.447,10.104,8.84l0.953-10.385h9.756
				L931.769,170.866z"/>
		</g>
	</g>
	<g>
		<g>
			<defs>
				<rect id="SVGID_97_" x="879.438" y="7.065" width="156.619" height="46.556"/>
			</defs>
			<clipPath id="SVGID_98_">
				<use xlink:href="#SVGID_97_"  overflow="visible"/>
			</clipPath>
			<path clip-path="url(#SVGID_98_)" fill="#FFFFFF" d="M900.122,178.441c-0.058,0.438,0.05,0.637,0.638,0.637
				c0.18,0,0.406-0.017,0.649-0.062l0.149-1.163h0.429l-0.191,1.477c-0.349,0.098-0.752,0.15-1.105,0.15
				c-0.876,0-1.094-0.377-1.011-1.012l0.193-1.509c0.091-0.694,0.478-1.015,1.329-1.015c0.298,0,0.632,0.034,0.941,0.106
				l-0.104,0.381c-0.32-0.058-0.627-0.086-0.908-0.086c-0.566,0-0.761,0.17-0.819,0.633L900.122,178.441z"/>
		</g>
	</g>
	<g>
		<g>
			<defs>
				<rect id="SVGID_99_" x="879.438" y="7.065" width="156.619" height="46.556"/>
			</defs>
			<clipPath id="SVGID_100_">
				<use xlink:href="#SVGID_99_"  overflow="visible"/>
			</clipPath>
			<polygon clip-path="url(#SVGID_100_)" fill="#FFFFFF" points="905.761,175.995 906.225,175.995 904.779,178.391 904.644,179.424 
				904.198,179.424 904.331,178.391 903.507,175.995 903.971,175.995 904.615,177.913 			"/>
		</g>
	</g>
	<g>
		<g>
			<defs>
				<rect id="SVGID_101_" x="879.438" y="7.065" width="156.619" height="46.556"/>
			</defs>
			<clipPath id="SVGID_102_">
				<use xlink:href="#SVGID_101_"  overflow="visible"/>
			</clipPath>
			<polygon clip-path="url(#SVGID_102_)" fill="#FFFFFF" points="907.925,176.643 907.494,179.424 907.071,179.424 907.633,175.995 
				908.193,175.995 908.84,178.649 910.173,175.995 910.732,175.995 910.406,179.424 909.979,179.424 910.272,176.643 
				909.094,178.984 908.497,178.984 			"/>
		</g>
	</g>
	<g>
		<g>
			<defs>
				<rect id="SVGID_103_" x="879.438" y="7.065" width="156.619" height="46.556"/>
			</defs>
			<clipPath id="SVGID_104_">
				<use xlink:href="#SVGID_103_"  overflow="visible"/>
			</clipPath>
			<polygon clip-path="url(#SVGID_104_)" fill="#FFFFFF" points="912.907,176.506 912.528,179.424 912.108,179.424 912.552,175.995 
				913.159,175.995 914.274,178.93 914.654,175.995 915.075,175.995 914.631,179.424 914.023,179.424 			"/>
		</g>
	</g>
	<g>
		<g>
			<defs>
				<rect id="SVGID_105_" x="879.438" y="7.065" width="156.619" height="46.556"/>
			</defs>
			<clipPath id="SVGID_106_">
				<use xlink:href="#SVGID_105_"  overflow="visible"/>
			</clipPath>
			<path clip-path="url(#SVGID_106_)" fill="#FFFFFF" d="M919.006,179.424h-0.449l-0.176-0.821h-1.457l-0.387,0.821h-0.446
				l1.604-3.43h0.6L919.006,179.424z M917.948,176.315l-0.855,1.901h1.226L917.948,176.315z"/>
		</g>
	</g>
	<g>
		<g>
			<defs>
				<rect id="SVGID_107_" x="879.438" y="7.065" width="156.619" height="46.556"/>
			</defs>
			<clipPath id="SVGID_108_">
				<use xlink:href="#SVGID_107_"  overflow="visible"/>
			</clipPath>
			<path clip-path="url(#SVGID_108_)" fill="#FFFFFF" d="M921.35,179.478c-0.331,0-0.72-0.062-0.997-0.182l0.118-0.358
				c0.302,0.099,0.623,0.147,0.938,0.147c0.553,0,0.685-0.146,0.734-0.535c0.061-0.465,0.061-0.506-0.623-0.665
				c-0.807-0.185-0.884-0.345-0.792-1.057c0.077-0.599,0.363-0.886,1.213-0.886c0.298,0,0.646,0.04,0.912,0.112l-0.084,0.375
				c-0.269-0.061-0.588-0.097-0.871-0.097c-0.56,0-0.677,0.112-0.729,0.509c-0.062,0.475-0.063,0.495,0.593,0.665
				c0.881,0.228,0.91,0.36,0.824,1.029C922.509,179.138,922.287,179.478,921.35,179.478"/>
		</g>
	</g>
	<g>
		<g>
			<defs>
				<rect id="SVGID_109_" x="879.438" y="7.065" width="156.619" height="46.556"/>
			</defs>
			<clipPath id="SVGID_110_">
				<use xlink:href="#SVGID_109_"  overflow="visible"/>
			</clipPath>
			<polygon clip-path="url(#SVGID_110_)" fill="#FFFFFF" points="924.59,179.424 924.147,179.424 924.591,175.995 925.033,175.995 
							"/>
		</g>
	</g>
	<g>
		<g>
			<defs>
				<rect id="SVGID_111_" x="879.438" y="7.065" width="156.619" height="46.556"/>
			</defs>
			<clipPath id="SVGID_112_">
				<use xlink:href="#SVGID_111_"  overflow="visible"/>
			</clipPath>
			<polygon clip-path="url(#SVGID_112_)" fill="#FFFFFF" points="926.812,175.995 928.829,175.995 928.78,176.393 927.203,176.393 
				927.063,177.467 928.526,177.467 928.477,177.866 927.013,177.866 926.862,179.031 928.44,179.031 928.392,179.424 
				926.365,179.424 			"/>
		</g>
	</g>
	<g>
		<g>
			<defs>
				<rect id="SVGID_113_" x="879.438" y="7.065" width="156.619" height="46.556"/>
			</defs>
			<clipPath id="SVGID_114_">
				<use xlink:href="#SVGID_113_"  overflow="visible"/>
			</clipPath>
			<path clip-path="url(#SVGID_114_)" fill="#FFFFFF" d="M930.907,179.478c-0.328,0-0.718-0.062-0.994-0.182l0.117-0.358
				c0.299,0.099,0.623,0.147,0.938,0.147c0.55,0,0.683-0.146,0.729-0.535c0.062-0.465,0.063-0.506-0.622-0.665
				c-0.806-0.185-0.882-0.345-0.789-1.057c0.077-0.599,0.36-0.886,1.209-0.886c0.301,0,0.649,0.04,0.914,0.112l-0.086,0.375
				c-0.265-0.061-0.585-0.097-0.868-0.097c-0.56,0-0.678,0.112-0.729,0.509c-0.062,0.475-0.063,0.495,0.594,0.665
				c0.882,0.228,0.911,0.36,0.825,1.029C932.07,179.138,931.853,179.478,930.907,179.478"/>
		</g>
	</g>
	<g>
		<g>
			<defs>
				<rect id="SVGID_115_" x="879.438" y="7.065" width="156.619" height="46.556"/>
			</defs>
			<clipPath id="SVGID_116_">
				<use xlink:href="#SVGID_115_"  overflow="visible"/>
			</clipPath>
			<path clip-path="url(#SVGID_116_)" fill="#FFFFFF" d="M934.122,179.424h-0.441l0.443-3.43h0.445L934.122,179.424z
				 M934.956,177.677l1.135,1.746h-0.53l-1.103-1.746l1.454-1.684h0.521L934.956,177.677z"/>
		</g>
	</g>
	<g>
		<g>
			<defs>
				<rect id="SVGID_117_" x="879.438" y="7.065" width="156.619" height="46.556"/>
			</defs>
			<clipPath id="SVGID_118_">
				<use xlink:href="#SVGID_117_"  overflow="visible"/>
			</clipPath>
			<path clip-path="url(#SVGID_118_)" fill="#FFFFFF" d="M939.965,178.438c-0.075,0.568-0.491,1.04-1.376,1.04
				c-0.887,0-1.182-0.472-1.104-1.04l0.188-1.453c0.07-0.571,0.487-1.04,1.373-1.04s1.181,0.469,1.104,1.04L939.965,178.438z
				 M937.928,178.427c-0.056,0.424,0.17,0.657,0.713,0.657c0.539,0,0.828-0.233,0.884-0.657l0.185-1.433
				c0.058-0.421-0.173-0.658-0.712-0.658c-0.542,0-0.826,0.237-0.885,0.658L937.928,178.427z"/>
		</g>
	</g>
	<g>
		<g>
			<defs>
				<rect id="SVGID_119_" x="879.438" y="7.065" width="156.619" height="46.556"/>
			</defs>
			<clipPath id="SVGID_120_">
				<use xlink:href="#SVGID_119_"  overflow="visible"/>
			</clipPath>
			<polygon clip-path="url(#SVGID_120_)" fill="#FFFFFF" points="942.005,179.031 943.491,179.031 943.441,179.424 941.513,179.424 
				941.956,175.995 942.399,175.995 			"/>
		</g>
	</g>
	<g>
		<g>
			<defs>
				<rect id="SVGID_121_" x="879.438" y="7.065" width="156.619" height="46.556"/>
			</defs>
			<clipPath id="SVGID_122_">
				<use xlink:href="#SVGID_121_"  overflow="visible"/>
			</clipPath>
			<polygon clip-path="url(#SVGID_122_)" fill="#FFFFFF" points="945.406,175.995 947.426,175.995 947.375,176.393 945.8,176.393 
				945.656,177.467 947.12,177.467 947.072,177.866 945.609,177.866 945.459,179.031 947.037,179.031 946.986,179.424 
				944.964,179.424 			"/>
		</g>
	</g>
	<g>
		<g>
			<defs>
				<rect id="SVGID_123_" x="879.438" y="7.065" width="156.619" height="46.556"/>
			</defs>
			<clipPath id="SVGID_124_">
				<use xlink:href="#SVGID_123_"  overflow="visible"/>
			</clipPath>
			<path clip-path="url(#SVGID_124_)" fill="#FFFFFF" d="M950.063,178.184h-0.839l-0.16,1.239h-0.444l0.445-3.43h1.309
				c0.734,0,0.951,0.319,0.884,0.847l-0.062,0.495c-0.053,0.405-0.239,0.685-0.647,0.797l0.725,1.291h-0.512L950.063,178.184z
				 M950.306,176.393h-0.852l-0.181,1.398h0.849c0.426,0,0.582-0.118,0.625-0.452l0.064-0.494
				C950.856,176.506,950.728,176.393,950.306,176.393"/>
		</g>
	</g>
	<g>
		<g>
			<defs>
				<rect id="SVGID_125_" x="879.438" y="7.065" width="156.619" height="46.556"/>
			</defs>
			<clipPath id="SVGID_126_">
				<use xlink:href="#SVGID_125_"  overflow="visible"/>
			</clipPath>
			<polygon clip-path="url(#SVGID_126_)" fill="#FFFFFF" points="953.552,176.506 953.174,179.424 952.75,179.424 953.197,175.995 
				953.805,175.995 954.916,178.93 955.299,175.995 955.72,175.995 955.275,179.424 954.668,179.424 			"/>
		</g>
	</g>
	<g>
		<g>
			<defs>
				<rect id="SVGID_127_" x="879.438" y="7.065" width="156.619" height="46.556"/>
			</defs>
			<clipPath id="SVGID_128_">
				<use xlink:href="#SVGID_127_"  overflow="visible"/>
			</clipPath>
			<polygon clip-path="url(#SVGID_128_)" fill="#FFFFFF" points="957.474,175.995 959.49,175.995 959.439,176.393 957.862,176.393 
				957.724,177.467 959.187,177.467 959.136,177.866 957.672,177.866 957.521,179.031 959.103,179.031 959.052,179.424 
				957.027,179.424 			"/>
		</g>
	</g>
	<g>
		<g>
			<defs>
				<rect id="SVGID_129_" x="879.438" y="7.065" width="156.619" height="46.556"/>
			</defs>
			<clipPath id="SVGID_130_">
				<use xlink:href="#SVGID_129_"  overflow="visible"/>
			</clipPath>
			<path clip-path="url(#SVGID_130_)" fill="#FFFFFF" d="M961.569,179.478c-0.327,0-0.718-0.062-0.996-0.182l0.118-0.358
				c0.302,0.099,0.623,0.147,0.938,0.147c0.552,0,0.683-0.146,0.732-0.535c0.061-0.465,0.062-0.506-0.625-0.665
				c-0.805-0.185-0.883-0.345-0.789-1.057c0.077-0.599,0.362-0.886,1.212-0.886c0.299,0,0.646,0.04,0.911,0.112l-0.083,0.375
				c-0.268-0.061-0.588-0.097-0.869-0.097c-0.562,0-0.681,0.112-0.729,0.509c-0.062,0.475-0.064,0.495,0.595,0.665
				c0.881,0.228,0.909,0.36,0.824,1.029C962.731,179.138,962.511,179.478,961.569,179.478"/>
		</g>
	</g>
	<g>
		<g>
			<defs>
				<rect id="SVGID_131_" x="879.438" y="7.065" width="156.619" height="46.556"/>
			</defs>
			<clipPath id="SVGID_132_">
				<use xlink:href="#SVGID_131_"  overflow="visible"/>
			</clipPath>
			<polygon clip-path="url(#SVGID_132_)" fill="#FFFFFF" points="967.49,179.031 968.978,179.031 968.926,179.424 966.994,179.424 
				967.439,175.995 967.884,175.995 			"/>
		</g>
	</g>
	<g>
		<g>
			<defs>
				<rect id="SVGID_133_" x="879.438" y="7.065" width="156.619" height="46.556"/>
			</defs>
			<clipPath id="SVGID_134_">
				<use xlink:href="#SVGID_133_"  overflow="visible"/>
			</clipPath>
			<path clip-path="url(#SVGID_134_)" fill="#FFFFFF" d="M972.442,178.602h-1.456l-0.385,0.821h-0.447l1.604-3.43h2.677
				l-0.051,0.397h-1.946l0.222,1.073h1.474l-0.052,0.397h-1.341l0.247,1.164h1.062l-0.052,0.396h-1.376L972.442,178.602z
				 M972.013,176.315l-0.856,1.901h1.226L972.013,176.315z"/>
		</g>
	</g>
	<g>
		<g>
			<defs>
				<rect id="SVGID_135_" x="879.438" y="7.065" width="156.619" height="46.556"/>
			</defs>
			<clipPath id="SVGID_136_">
				<use xlink:href="#SVGID_135_"  overflow="visible"/>
			</clipPath>
			<path clip-path="url(#SVGID_136_)" fill="#FFFFFF" d="M977.087,178.184h-0.84l-0.159,1.239h-0.442l0.443-3.43h1.311
				c0.734,0,0.948,0.319,0.883,0.847l-0.062,0.495c-0.057,0.405-0.24,0.685-0.651,0.797l0.726,1.291h-0.513L977.087,178.184z
				 M977.331,176.393h-0.853l-0.183,1.398h0.852c0.423,0,0.581-0.118,0.625-0.452l0.062-0.494
				C977.884,176.506,977.754,176.393,977.331,176.393"/>
		</g>
	</g>
	<g>
		<g>
			<defs>
				<rect id="SVGID_137_" x="879.438" y="7.065" width="156.619" height="46.556"/>
			</defs>
			<clipPath id="SVGID_138_">
				<use xlink:href="#SVGID_137_"  overflow="visible"/>
			</clipPath>
			<polygon clip-path="url(#SVGID_138_)" fill="#FFFFFF" points="980.221,175.995 982.239,175.995 982.188,176.393 980.612,176.393 
				980.473,177.467 981.937,177.467 981.885,177.866 980.424,177.866 980.272,179.031 981.85,179.031 981.8,179.424 
				979.777,179.424 			"/>
		</g>
	</g>
	<g>
		<g>
			<defs>
				<rect id="SVGID_139_" x="879.438" y="7.065" width="156.619" height="46.556"/>
			</defs>
			<clipPath id="SVGID_140_">
				<use xlink:href="#SVGID_139_"  overflow="visible"/>
			</clipPath>
			<path clip-path="url(#SVGID_140_)" fill="#FFFFFF" d="M984.878,178.184h-0.842l-0.158,1.239h-0.445l0.446-3.43h1.307
				c0.738,0,0.954,0.319,0.886,0.847l-0.063,0.495c-0.053,0.405-0.236,0.685-0.649,0.797l0.725,1.291h-0.509L984.878,178.184z
				 M985.117,176.393h-0.85l-0.182,1.398h0.849c0.424,0,0.584-0.118,0.626-0.452l0.064-0.494
				C985.671,176.506,985.541,176.393,985.117,176.393"/>
		</g>
	</g>
	<g>
		<g>
			<defs>
				<rect id="SVGID_141_" x="879.438" y="7.065" width="156.619" height="46.556"/>
			</defs>
			<clipPath id="SVGID_142_">
				<use xlink:href="#SVGID_141_"  overflow="visible"/>
			</clipPath>
			<polygon clip-path="url(#SVGID_142_)" fill="#FFFFFF" points="987.566,179.424 988.01,175.995 990.049,175.995 989.994,176.393 
				988.4,176.393 988.253,177.534 989.74,177.534 989.69,177.932 988.2,177.932 988.009,179.424 			"/>
		</g>
	</g>
	<g>
		<g>
			<defs>
				<rect id="SVGID_143_" x="879.438" y="7.065" width="156.619" height="46.556"/>
			</defs>
			<clipPath id="SVGID_144_">
				<use xlink:href="#SVGID_143_"  overflow="visible"/>
			</clipPath>
			<path clip-path="url(#SVGID_144_)" fill="#FFFFFF" d="M993.631,178.438c-0.074,0.568-0.489,1.04-1.375,1.04
				s-1.182-0.472-1.105-1.04l0.188-1.453c0.072-0.571,0.488-1.04,1.375-1.04c0.885,0,1.181,0.469,1.104,1.04L993.631,178.438z
				 M991.594,178.427c-0.058,0.424,0.171,0.657,0.712,0.657c0.542,0,0.829-0.233,0.886-0.657l0.188-1.433
				c0.056-0.421-0.176-0.658-0.717-0.658c-0.539,0-0.825,0.237-0.882,0.658L991.594,178.427z"/>
		</g>
	</g>
	<g>
		<g>
			<defs>
				<rect id="SVGID_145_" x="879.438" y="7.065" width="156.619" height="46.556"/>
			</defs>
			<clipPath id="SVGID_146_">
				<use xlink:href="#SVGID_145_"  overflow="visible"/>
			</clipPath>
			<path clip-path="url(#SVGID_146_)" fill="#FFFFFF" d="M996.622,178.184h-0.84l-0.162,1.239h-0.442l0.445-3.43h1.308
				c0.737,0,0.955,0.319,0.885,0.847l-0.062,0.495c-0.054,0.405-0.238,0.685-0.648,0.797l0.724,1.291h-0.51L996.622,178.184z
				 M996.864,176.393h-0.85l-0.182,1.398h0.849c0.424,0,0.584-0.118,0.626-0.452l0.062-0.494
				C997.416,176.506,997.286,176.393,996.864,176.393"/>
		</g>
	</g>
	<g>
		<g>
			<defs>
				<rect id="SVGID_147_" x="879.438" y="7.065" width="156.619" height="46.556"/>
			</defs>
			<clipPath id="SVGID_148_">
				<use xlink:href="#SVGID_147_"  overflow="visible"/>
			</clipPath>
			<polygon clip-path="url(#SVGID_148_)" fill="#FFFFFF" points="999.756,175.995 1001.774,175.995 1001.723,176.393 
				1000.146,176.393 1000.008,177.467 1001.469,177.467 1001.418,177.866 999.954,177.866 999.806,179.031 1001.385,179.031 
				1001.334,179.424 999.31,179.424 			"/>
		</g>
	</g>
	<g>
		<g>
			<defs>
				<rect id="SVGID_149_" x="879.438" y="7.065" width="156.619" height="46.556"/>
			</defs>
			<clipPath id="SVGID_150_">
				<use xlink:href="#SVGID_149_"  overflow="visible"/>
			</clipPath>
			<polygon clip-path="url(#SVGID_150_)" fill="#FFFFFF" points="1003.769,176.506 1003.391,179.424 1002.967,179.424 
				1003.412,175.995 1004.02,175.995 1005.132,178.93 1005.514,175.995 1005.936,175.995 1005.489,179.424 1004.882,179.424 			"/>
		</g>
	</g>
	<g>
		<g>
			<defs>
				<rect id="SVGID_151_" x="879.438" y="7.065" width="156.619" height="46.556"/>
			</defs>
			<clipPath id="SVGID_152_">
				<use xlink:href="#SVGID_151_"  overflow="visible"/>
			</clipPath>
			<polygon clip-path="url(#SVGID_152_)" fill="#FFFFFF" points="1007.712,179.424 1007.271,179.424 1007.715,175.995 
				1008.156,175.995 			"/>
		</g>
	</g>
	<g>
		<g>
			<defs>
				<rect id="SVGID_153_" x="879.438" y="7.065" width="156.619" height="46.556"/>
			</defs>
			<clipPath id="SVGID_154_">
				<use xlink:href="#SVGID_153_"  overflow="visible"/>
			</clipPath>
			<polygon clip-path="url(#SVGID_154_)" fill="#FFFFFF" points="1010.291,176.506 1009.908,179.424 1009.489,179.424 
				1009.934,175.995 1010.541,175.995 1011.653,178.93 1012.033,175.995 1012.454,175.995 1012.012,179.424 1011.405,179.424 			"/>
		</g>
	</g>
	<g>
		<g>
			<defs>
				<rect id="SVGID_155_" x="879.438" y="7.065" width="156.619" height="46.556"/>
			</defs>
			<clipPath id="SVGID_156_">
				<use xlink:href="#SVGID_155_"  overflow="visible"/>
			</clipPath>
			<path clip-path="url(#SVGID_156_)" fill="#FFFFFF" d="M1014.259,178.441c-0.059,0.438,0.047,0.637,0.633,0.637
				c0.182,0,0.409-0.017,0.649-0.062l0.149-1.163h0.431l-0.189,1.477c-0.35,0.098-0.751,0.15-1.105,0.15
				c-0.876,0-1.094-0.377-1.015-1.012l0.197-1.509c0.091-0.694,0.478-1.015,1.33-1.015c0.294,0,0.63,0.034,0.938,0.106l-0.1,0.381
				c-0.32-0.058-0.626-0.086-0.909-0.086c-0.568,0-0.76,0.17-0.818,0.633L1014.259,178.441z"/>
		</g>
	</g>
</g>
</svg>
