<?xml version="1.0" encoding="utf-8"?>
<!-- Generator: Adobe Illustrator 16.0.4, SVG Export Plug-In . SVG Version: 6.00 Build 0)  -->
<!DOCTYPE svg PUBLIC "-//W3C//DTD SVG 1.1//EN" "http://www.w3.org/Graphics/SVG/1.1/DTD/svg11.dtd">
<svg version="1.1" id="tavle" xmlns="http://www.w3.org/2000/svg" xmlns:xlink="http://www.w3.org/1999/xlink" x="0px" y="0px"
	 width="2440.785px" height="984.563px" viewBox="0 0 2440.785 984.563" enable-background="new 0 0 2440.785 984.563"
	 xml:space="preserve">
<g>
	<rect x="1523.916" y="49.402" fill="#F4F5F7" width="770.754" height="413.408"/>
	<g>
		<g>
			<path fill="#A2A1AE" d="M1606.58,395.097c41.553-26.442,83.105-52.885,124.657-79.327c3.185-2.027,6.37-4.054,9.555-6.081
				c-0.883,0-1.766,0-2.648,0c11.389,8.73,22.777,17.461,34.166,26.19c0.979,0.751,2.354,0.279,3.18-0.41
				c38.386-32.037,76.771-64.074,115.155-96.11c7.166-5.98,14.331-11.961,21.496-17.941c-1.237,0-2.474,0-3.711,0
				c11.413,10.723,22.826,21.445,34.24,32.168c0.803,0.755,2.21,1.103,3.18,0.41c38.111-27.2,76.316-54.271,114.645-81.166
				c19.181-13.458,38.385-26.888,57.747-40.085c6.309-4.3,12.632-8.583,19.042-12.73c1.979-1.28,3.967-2.548,5.995-3.747
				c0.614-0.363,1.234-0.716,1.868-1.043c0.726-0.374,0.32-0.128-0.167-0.096c3.359-0.221,3.381-5.471,0-5.248
				c-4.266,0.28-9.317,4.921-12.685,7.124c-9.243,6.048-18.349,12.309-27.448,18.57c-26.204,18.032-52.216,36.344-78.204,54.685
				c-27.863,19.664-55.683,39.393-83.441,59.205c1.06,0.137,2.12,0.273,3.18,0.41c-11.413-10.723-22.826-21.445-34.24-32.168
				c-1.113-1.046-2.587-0.938-3.711,0c-38.385,32.037-76.771,64.074-115.155,96.11c-7.166,5.98-14.331,11.961-21.496,17.941
				c1.06-0.137,2.12-0.273,3.18-0.41c-11.389-8.73-22.777-17.461-34.166-26.19c-0.699-0.537-1.938-0.452-2.648,0
				c-41.553,26.442-83.104,52.885-124.657,79.327c-3.185,2.027-6.37,4.054-9.555,6.081
				C1601.085,392.376,1603.715,396.92,1606.58,395.097L1606.58,395.097z"/>
		</g>
	</g>
	<g>
		<g>
			<path fill="#EFABA1" d="M2187.076,107.811c-4.283,0.277-9.363,4.87-12.768,7.058c-9.309,5.985-18.483,12.182-27.651,18.38
				c-26.364,17.821-52.541,35.923-78.694,54.051c-27.793,19.265-55.543,38.594-83.234,58.004c1.06,0.137,2.12,0.273,3.18,0.41
				c-14.256-13.313-28.512-26.628-42.768-39.941c-1.114-1.041-2.587-0.944-3.711,0c-38.149,32.045-76.299,64.09-114.447,96.135
				c-9.807,8.237-19.613,16.475-29.419,24.712c1.237,0,2.474,0,3.711,0c-8.652-7.492-17.306-14.984-25.958-22.477
				c-0.843-0.73-2.174-1.114-3.18-0.41c-40.065,28.016-80.131,56.032-120.196,84.049c-2.31,1.615-4.619,3.229-6.928,4.845
				c-2.752,1.924-0.133,6.477,2.648,4.531c40.065-28.016,80.131-56.032,120.196-84.049c2.31-1.615,4.619-3.229,6.928-4.845
				c-1.06-0.137-2.12-0.273-3.18-0.41c8.652,7.492,17.305,14.984,25.958,22.477c1.154,1,2.555,0.972,3.711,0
				c38.149-32.045,76.299-64.09,114.447-96.135c9.807-8.237,19.613-16.475,29.419-24.712c-1.237,0-2.474,0-3.711,0
				c14.256,13.313,28.512,26.628,42.768,39.941c0.812,0.758,2.201,1.097,3.18,0.41c38.376-26.898,76.844-53.669,115.433-80.261
				c19.041-13.121,38.105-26.213,57.32-39.078c6.357-4.257,12.729-8.497,19.186-12.603c1.993-1.268,3.997-2.522,6.04-3.71
				c0.618-0.359,1.243-0.709,1.881-1.032c0.73-0.37,0.328-0.123-0.16-0.092C2190.435,112.841,2190.457,107.591,2187.076,107.811
				L2187.076,107.811z"/>
		</g>
	</g>
	<g>
		<g>
			<path fill="#A2A1AE" d="M1579.88,83.997c0.018,38.689,0.034,77.379,0.052,116.068c0.026,60.848,0.054,121.694,0.08,182.541
				c0.006,12.912,0.012,25.823,0.018,38.734c0.001,1.355,1.132,2.489,2.488,2.488c23.29-0.011,46.579-0.021,69.869-0.031
				c55.369-0.024,110.738-0.049,166.107-0.073c65.7-0.029,131.4-0.059,197.101-0.087c54.282-0.024,108.564-0.049,162.847-0.072
				c21.182-0.01,42.364-0.019,63.547-0.028c3.209-0.001,3.209-4.978,0-4.977c-23.29,0.011-46.579,0.021-69.869,0.031
				c-55.369,0.024-110.738,0.049-166.107,0.073c-65.7,0.029-131.4,0.059-197.101,0.087c-54.282,0.024-108.564,0.049-162.847,0.072
				c-21.182,0.01-42.364,0.019-63.547,0.028c0.829,0.829,1.659,1.659,2.488,2.488c-0.017-38.689-0.034-77.379-0.052-116.068
				c-0.026-60.848-0.054-121.694-0.08-182.541c-0.006-12.912-0.012-25.823-0.018-38.734
				C1584.856,80.788,1579.878,80.788,1579.88,83.997L1579.88,83.997z"/>
		</g>
	</g>
	<path fill="#D9D8DE" stroke="#A2A1AE" stroke-width="1.0802" stroke-miterlimit="10" d="M2168.335,106.228"/>
</g>
</svg>
