<?xml version="1.0" encoding="utf-8"?>
<!-- Generator: Adobe Illustrator 16.0.4, SVG Export Plug-In . SVG Version: 6.00 Build 0)  -->
<!DOCTYPE svg PUBLIC "-//W3C//DTD SVG 1.1//EN" "http://www.w3.org/Graphics/SVG/1.1/DTD/svg11.dtd">
<svg version="1.1" id="p2-mark" xmlns="http://www.w3.org/2000/svg" xmlns:xlink="http://www.w3.org/1999/xlink" x="0px" y="0px"
	 width="2440.785px" height="984.563px" viewBox="0 0 2440.785 984.563" enable-background="new 0 0 2440.785 984.563"
	 xml:space="preserve">
<g>
	<g>
		<path fill="#DC4832" d="M903.259,176.778c12.317-6.534,23.872-15.047,35.345-22.944c1.71-1.177,0.091-3.988-1.636-2.799
			c-11.474,7.897-23.028,16.409-35.346,22.944C899.775,174.959,901.414,177.758,903.259,176.778L903.259,176.778z"/>
	</g>
</g>
<g>
	<g>
		<path fill="#DC4832" d="M914.494,140.526c-2.152,2.644-4.18,5.411-5.478,8.583c-0.788,1.927-1.083,4.026-0.246,5.978
			c0.633,1.476,2.194,2.438,3.718,2.747c1.721,0.351,3.499,0.173,5.187-0.27c1.667-0.438,3.313-1.16,4.741-2.127
			c1.394-0.943,2.763-2.166,3.49-3.716c0.842-1.793,0.851-3.707-0.098-5.469c-1.078-2.002-3.183-3.371-5.166-4.344
			c-0.782-0.384-1.589-0.721-2.4-1.038c-0.979-0.383-2.114,0.413-2.37,1.346c-0.301,1.093,0.368,1.988,1.346,2.371
			c0.174,0.067,0.347,0.137,0.519,0.208c0.13,0.053,0.463,0.196-0.127-0.055c0.082,0.034,0.163,0.069,0.243,0.105
			c0.333,0.146,0.663,0.3,0.989,0.462c0.554,0.274,1.093,0.576,1.614,0.91c0.22,0.142,0.435,0.29,0.646,0.445
			c0.407,0.299-0.361-0.288-0.05-0.04c0.106,0.085,0.21,0.173,0.313,0.263c0.33,0.287,0.636,0.602,0.91,0.943
			c0.092,0.114-0.367-0.496-0.103-0.125c0.053,0.074,0.103,0.15,0.152,0.228c0.101,0.158,0.19,0.323,0.271,0.492
			c0.176,0.369-0.205-0.509-0.08-0.195c0.03,0.074,0.056,0.149,0.081,0.226c0.052,0.159,0.092,0.323,0.123,0.488
			c0.072,0.388-0.068-0.581-0.032-0.251c0.008,0.073,0.013,0.147,0.016,0.223c0.008,0.159,0.002,0.319-0.012,0.478
			c-0.033,0.388,0.087-0.582,0.037-0.257c-0.011,0.072-0.026,0.145-0.042,0.217c-0.034,0.157-0.08,0.312-0.132,0.464
			c-0.024,0.071-0.052,0.142-0.08,0.212c-0.062,0.152,0.265-0.598,0.086-0.217c-0.071,0.152-0.152,0.3-0.238,0.445
			c-0.082,0.137-0.171,0.27-0.263,0.4c-0.105,0.148-0.355,0.463,0.13-0.161c-0.06,0.076-0.121,0.15-0.184,0.225
			c-0.231,0.273-0.484,0.527-0.749,0.769c-0.132,0.12-0.268,0.235-0.406,0.349c-0.141,0.114-0.482,0.373,0.141-0.105
			c-0.084,0.065-0.171,0.129-0.257,0.191c-0.638,0.462-1.325,0.855-2.036,1.195c-0.174,0.083-0.35,0.162-0.526,0.238
			c-0.129,0.056,0.58-0.239,0.149-0.065c-0.104,0.042-0.209,0.082-0.314,0.122c-0.372,0.14-0.75,0.263-1.132,0.372
			c-0.373,0.105-0.751,0.194-1.132,0.267c-0.178,0.034-0.357,0.063-0.536,0.089c-0.162,0.023,0.659-0.082,0.203-0.029
			c-0.102,0.012-0.204,0.021-0.305,0.029c-0.351,0.03-0.703,0.039-1.054,0.026c-0.161-0.005-0.321-0.017-0.481-0.033
			c-0.431-0.043,0.409,0.06,0.241,0.035c-0.088-0.013-0.176-0.028-0.264-0.045c-0.298-0.056-0.591-0.14-0.873-0.25
			c0.548,0.215,0.348,0.162,0.055,0.005c-0.127-0.068-0.25-0.146-0.367-0.23c-0.249-0.178,0.484,0.39,0.209,0.16
			c-0.05-0.042-0.098-0.087-0.145-0.132c-0.223-0.214-0.391-0.476,0,0.047c-0.08-0.106-0.15-0.22-0.213-0.337
			c-0.033-0.06-0.062-0.121-0.09-0.183c-0.021-0.046,0.231,0.601,0.092,0.201c-0.044-0.126-0.078-0.256-0.106-0.387
			c-0.016-0.074-0.029-0.15-0.041-0.226c0.125,0.818,0.054,0.431,0.038,0.236c-0.028-0.337-0.011-0.677,0.028-1.012
			c0.027-0.237-0.097,0.652-0.027,0.222c0.016-0.101,0.036-0.201,0.057-0.302c0.044-0.215,0.099-0.427,0.159-0.638
			s0.129-0.419,0.202-0.626c0.074-0.209,0.433-1.075,0.116-0.33c0.485-1.14,1.107-2.22,1.774-3.262
			c0.417-0.652,0.861-1.289,1.317-1.915c0.13-0.179,0.262-0.355,0.395-0.532c0.087-0.116,0.564-0.736,0.186-0.247
			c0.296-0.384,0.599-0.762,0.905-1.138c0.662-0.813,0.799-1.926,0-2.725C916.533,139.841,915.158,139.71,914.494,140.526
			L914.494,140.526z"/>
	</g>
</g>
<g>
	<g>
		<path fill="#DC4832" d="M918.088,170.917c-2.152,2.644-4.18,5.41-5.478,8.583c-0.788,1.927-1.083,4.026-0.246,5.978
			c0.633,1.475,2.194,2.437,3.718,2.747c1.721,0.35,3.499,0.172,5.187-0.271c1.667-0.438,3.313-1.16,4.742-2.127
			c1.393-0.943,2.763-2.166,3.49-3.716c0.842-1.794,0.851-3.708-0.098-5.47c-1.077-2.002-3.183-3.37-5.166-4.344
			c-0.782-0.384-1.589-0.721-2.4-1.038c-0.979-0.383-2.114,0.413-2.37,1.346c-0.301,1.093,0.368,1.988,1.346,2.371
			c0.174,0.067,0.347,0.137,0.519,0.208c0.13,0.053,0.463,0.196-0.127-0.055c0.082,0.034,0.163,0.069,0.244,0.105
			c0.333,0.146,0.663,0.3,0.989,0.462c0.554,0.274,1.093,0.577,1.614,0.91c0.22,0.142,0.435,0.29,0.646,0.445
			c0.407,0.299-0.361-0.288-0.05-0.04c0.106,0.085,0.211,0.173,0.313,0.263c0.33,0.287,0.637,0.603,0.91,0.943
			c0.092,0.115-0.367-0.496-0.102-0.124c0.053,0.074,0.103,0.15,0.151,0.228c0.101,0.158,0.19,0.323,0.271,0.492
			c0.177,0.368-0.204-0.51-0.08-0.196c0.03,0.074,0.056,0.15,0.081,0.227c0.052,0.159,0.092,0.322,0.123,0.487
			c0.072,0.389-0.068-0.58-0.032-0.251c0.008,0.074,0.013,0.148,0.017,0.223c0.007,0.159,0.002,0.319-0.012,0.479
			c-0.034,0.388,0.087-0.582,0.036-0.257c-0.011,0.072-0.026,0.145-0.042,0.217c-0.034,0.157-0.08,0.312-0.132,0.464
			c-0.024,0.071-0.052,0.142-0.08,0.211c-0.061,0.152,0.266-0.597,0.087-0.216c-0.072,0.152-0.153,0.3-0.239,0.444
			c-0.082,0.138-0.17,0.271-0.263,0.4c-0.105,0.148-0.355,0.464,0.13-0.161c-0.06,0.077-0.121,0.151-0.184,0.226
			c-0.231,0.273-0.484,0.527-0.749,0.769c-0.132,0.12-0.268,0.235-0.406,0.349c-0.141,0.114-0.482,0.373,0.141-0.105
			c-0.085,0.065-0.171,0.129-0.258,0.191c-0.638,0.462-1.325,0.855-2.036,1.195c-0.173,0.083-0.349,0.162-0.526,0.238
			c-0.13,0.056,0.58-0.239,0.149-0.065c-0.104,0.042-0.209,0.082-0.313,0.122c-0.372,0.14-0.75,0.263-1.133,0.372
			c-0.373,0.105-0.751,0.194-1.132,0.267c-0.178,0.034-0.357,0.063-0.536,0.089c-0.162,0.023,0.659-0.082,0.203-0.029
			c-0.102,0.012-0.203,0.021-0.305,0.029c-0.351,0.03-0.703,0.039-1.054,0.027c-0.161-0.006-0.321-0.018-0.481-0.034
			c-0.431-0.043,0.409,0.06,0.241,0.035c-0.088-0.013-0.176-0.027-0.264-0.044c-0.298-0.057-0.591-0.14-0.873-0.251
			c0.548,0.215,0.348,0.162,0.055,0.006c-0.127-0.068-0.25-0.146-0.367-0.23c-0.249-0.178,0.484,0.39,0.209,0.159
			c-0.05-0.042-0.098-0.086-0.145-0.132c-0.223-0.213-0.391-0.476,0,0.047c-0.08-0.106-0.149-0.22-0.213-0.336
			c-0.033-0.06-0.062-0.121-0.09-0.183c-0.021-0.047,0.231,0.6,0.092,0.2c-0.044-0.126-0.078-0.256-0.106-0.387
			c-0.017-0.074-0.029-0.149-0.041-0.225c0.125,0.818,0.054,0.43,0.038,0.235c-0.028-0.337-0.011-0.676,0.028-1.012
			c0.028-0.237-0.097,0.653-0.027,0.222c0.017-0.101,0.036-0.201,0.057-0.301c0.044-0.215,0.099-0.428,0.159-0.639
			c0.06-0.21,0.129-0.418,0.202-0.625c0.074-0.209,0.433-1.075,0.116-0.33c0.484-1.141,1.107-2.22,1.774-3.262
			c0.417-0.653,0.861-1.289,1.317-1.915c0.13-0.179,0.262-0.355,0.395-0.532c0.087-0.116,0.564-0.736,0.186-0.248
			c0.296-0.383,0.599-0.761,0.905-1.137c0.662-0.813,0.799-1.926,0-2.725C920.127,170.231,918.752,170.101,918.088,170.917
			L918.088,170.917z"/>
	</g>
</g>
</svg>
