<?xml version="1.0" encoding="utf-8"?>
<!-- Generator: Adobe Illustrator 16.0.4, SVG Export Plug-In . SVG Version: 6.00 Build 0)  -->
<!DOCTYPE svg PUBLIC "-//W3C//DTD SVG 1.1//EN" "http://www.w3.org/Graphics/SVG/1.1/DTD/svg11.dtd">
<svg version="1.1" id="p1" xmlns="http://www.w3.org/2000/svg" xmlns:xlink="http://www.w3.org/1999/xlink" x="0px" y="0px"
	 width="2440.785px" height="984.563px" viewBox="0 0 2440.785 984.563" enable-background="new 0 0 2440.785 984.563"
	 xml:space="preserve">
<g>
	<g>
		<g>
			<path fill="#121212" d="M979.153,62.63c-1.076,2.626-0.941,6.395-1.241,9.168c-0.746,6.885-1.195,13.809-1.232,20.733
				c-0.03,5.611,0.141,11.571,1.938,16.94c0.501,1.498,1.541,3.291,3.531,2.542c2.476-0.931,2.303-2.89,1.604-5.163
				c-0.612-1.992-3.742-1.143-3.126,0.861c0.863,2.808,0.829,0.012,0.659-0.571c-0.239-0.821-0.392-1.667-0.553-2.506
				c-0.479-2.5-0.612-5.07-0.729-7.608c-0.227-4.952-0.022-9.926,0.272-14.871c0.257-4.312,0.667-8.618,1.164-12.91
				c0.205-1.768,0.153-4.077,0.839-5.754C983.072,61.557,979.935,60.723,979.153,62.63L979.153,62.63z"/>
		</g>
	</g>
	<g>
		<g>
			<path fill="#121212" d="M976.447,72.21c0.452-8.33,11.406-12.342,18.236-13.707c5.102-1.021,14.448,0.219,9.75,7.037
				c-6.038,8.763-17.415,13.274-26.006,18.993c0.739,0.739,1.479,1.479,2.217,2.218c0.981-1.525,1.963-3.05,2.945-4.573
				c1.137-1.764-1.671-3.387-2.799-1.637c-0.982,1.524-1.964,3.049-2.945,4.573c-0.866,1.346,0.865,3.118,2.217,2.218
				c5.443-3.623,11.221-6.669,16.561-10.476c4.694-3.345,12.661-8.632,12.618-15.208c-0.05-7.642-11.754-7.005-16.495-6.058
				c-8.205,1.641-19.03,7.17-19.542,16.619C973.091,74.3,976.334,74.289,976.447,72.21L976.447,72.21z"/>
		</g>
	</g>
	<g>
		<g>
			<path fill="#121212" d="M1006.411,66.236c-7.797,4.761-4.472,19.948-2.919,27.021c1.209,5.508,5.067,17.421,13.175,14.741
				c6.485-2.144,6.878-13.89,7.326-19.257c0.615-7.361,1.119-15.77-0.471-23.062c-0.445-2.043-3.57-1.177-3.126,0.861
				c1.119,5.133,0.781,10.896,0.665,16.104c-0.146,6.58-0.243,14.524-3.56,20.418c-1.529,2.718-3.761,2.131-5.903,0.412
				c-2.743-2.2-3.617-5.865-4.5-9.116c-1.262-4.647-1.913-9.47-2.058-14.277c-0.099-3.27-0.233-9.068,3.006-11.047
				C1009.828,67.948,1008.2,65.144,1006.411,66.236L1006.411,66.236z"/>
		</g>
	</g>
	<g>
		<g>
			<path fill="#121212" d="M1034.886,65.73c1.943-2.273,3.566-6.331-1.146-5.814c-0.879,0.097-1.619,0.665-1.621,1.621
				c-0.025,14.627-1.555,31.359,4.641,45.036c0.691,1.526,3.021,0.697,3.021-0.818c0-2.033,0-4.067,0-6.101
				c0-2.091-3.242-2.091-3.242,0c0,2.033,0,4.067,0,6.101c1.007-0.272,2.014-0.545,3.021-0.818
				c-5.906-13.038-4.221-29.447-4.197-43.399c-0.541,0.54-1.081,1.081-1.621,1.621c-0.382,0.093-0.764,0.187-1.146,0.279
				C1031.244,65.018,1033.526,67.322,1034.886,65.73L1034.886,65.73z"/>
		</g>
	</g>
	<g>
		<g>
			<path fill="#121212" d="M1036.834,79.832c0.294-4.43,7.108-10.005,10.382-12.282c6.888-4.791,8.93,1.84,8.656,7.751
				c-0.327,7.04-1.271,14.031-1.363,21.085c-0.05,3.841-0.257,9.908,3.452,12.295c0.916,0.589,2.073-0.011,2.381-0.969
				c0.491-1.525,0.982-3.05,1.473-4.575c0.643-1.995-2.488-2.843-3.126-0.861c-0.491,1.524-0.982,3.05-1.473,4.575
				c0.793-0.323,1.587-0.646,2.381-0.969c-2.381-1.532-1.844-7.121-1.847-9.496c-0.005-4.375,0.404-8.755,0.766-13.111
				c0.459-5.521,2.354-13.559-1.569-18.325c-3.994-4.851-9.912-1.498-13.81,1.643c-3.527,2.842-9.221,8.342-9.546,13.24
				C1033.454,81.92,1036.697,81.907,1036.834,79.832L1036.834,79.832z"/>
		</g>
	</g>
	<g>
		<g>
			<path fill="#121212" d="M1070.415,41.713c0.105,14.982,1.209,29.974,1.478,44.967c0.079,4.414-0.094,9.352,1.233,13.616
				c0.871,2.8,3.5,2.504,4.729,0.177c0.975-1.848-1.823-3.486-2.799-1.637c-0.512,0.971,1.372,1.164,1.072,0.2
				c-0.238-0.768-0.34-1.599-0.441-2.391c-0.236-1.837-0.324-3.694-0.413-5.543c-0.187-3.864-0.201-7.737-0.185-11.604
				c0.055-12.622-1.343-25.171-1.431-37.785C1073.642,39.623,1070.4,39.622,1070.415,41.713L1070.415,41.713z"/>
		</g>
	</g>
	<g>
		<g>
			<path fill="#121212" d="M1094.203,57.666c-4.127,8.268-9.605,15.841-15.949,22.547c0.922,0.383,1.845,0.765,2.767,1.146
				c-0.107,1.636-1.888-0.09-0.289,1.45c0.732,0.705,1.389,1.494,2.054,2.261c1.71,1.971,3.348,4.004,5.057,5.977
				c2.335,2.695,5.177,6.194,8.8,7.122c2.027,0.519,2.886-2.608,0.862-3.127c-5.46-1.396-9.96-9.51-13.511-13.497
				c-1.749-1.964-5.911-4.859-6.217-0.186c-0.093,1.42,1.831,2.137,2.767,1.146c6.522-6.896,12.212-14.703,16.456-23.203
				C1097.933,57.438,1095.137,55.796,1094.203,57.666L1094.203,57.666z"/>
		</g>
	</g>
	<g>
		<g>
			<path fill="#121212" d="M1113.35,42.531c-0.622-1.409-0.422,0.212-0.635,1.197c-0.309,1.427-0.628,2.853-0.941,4.278
				c-0.843,3.829-1.657,7.664-2.413,11.512c-1.387,7.063-2.39,14.274-2.148,21.49c0.247,7.373,3.335,12.974,9.791,16.588
				c5.402,3.025,10.375-2.334,9.62-7.521c-0.3-2.062-3.423-1.183-3.126,0.861c1.03,7.078-6.848,2.867-9.142,0.834
				c-2.642-2.343-3.462-6.199-3.818-9.538c-0.601-5.636,0.184-11.667,1.104-17.233c0.895-5.411,2.084-10.776,3.258-16.132
				c0.442-2.015,2.159-5.914,1.25-7.974C1115.306,38.985,1112.513,40.637,1113.35,42.531L1113.35,42.531z"/>
		</g>
	</g>
	<g>
		<g>
			<path fill="#121212" d="M1101.493,70.779c4.951-0.103,9.765-1.444,14.729-1.522c2.088-0.033,2.092-3.275,0-3.242
				c-4.965,0.078-9.78,1.421-14.729,1.522C1099.406,67.58,1099.401,70.822,1101.493,70.779L1101.493,70.779z"/>
		</g>
	</g>
	<g>
		<g>
			<path fill="#121212" d="M1149.667,70.722c17.422,3.866,22.545-21.01,22.672-33.582c-1.081,0-2.162,0-3.242,0
				c0.056,21.402,3.592,46.231-5.668,66.272c0.739-0.193,1.479-0.388,2.218-0.581c-5.064-3.171-9.81-3.09-14.893,0
				c-1.339,0.813-0.835,3.073,0.818,3.021c5.765-0.186,11.389-0.925,17.005-2.236c2.827-0.66,5.498-1.692,8.22-2.678
				c1.033-0.373,2.071-0.729,3.113-1.074c1.732-0.576,1.011,0.186,0.031-1.161c0.084-0.655,0.169-1.31,0.253-1.965
				c-0.705,0.684-2.069,1.099-2.929,1.518c-1.879,0.915-0.235,3.711,1.636,2.799c1.182-0.575,2.622-1.089,3.585-2.023
				c0.483-0.469,0.672-1.389,0.253-1.965c-1.455-2-5.129,0.152-6.805,0.746c-7.99,2.834-15.851,4.524-24.363,4.798
				c0.273,1.007,0.545,2.014,0.818,3.021c4.035-2.452,7.602-2.517,11.62,0c0.696,0.436,1.855,0.204,2.218-0.581
				c9.564-20.697,6.169-45.815,6.112-67.909c-0.005-2.091-3.221-2.09-3.242,0c-0.102,10.146-3.92,33.706-18.569,30.455
				C1148.492,67.144,1147.626,70.269,1149.667,70.722L1149.667,70.722z"/>
		</g>
	</g>
</g>
</svg>
