<?xml version="1.0" encoding="utf-8"?>
<!-- Generator: Adobe Illustrator 16.0.4, SVG Export Plug-In . SVG Version: 6.00 Build 0)  -->
<!DOCTYPE svg PUBLIC "-//W3C//DTD SVG 1.1//EN" "http://www.w3.org/Graphics/SVG/1.1/DTD/svg11.dtd">
<svg version="1.1" id="p2" xmlns="http://www.w3.org/2000/svg" xmlns:xlink="http://www.w3.org/1999/xlink" x="0px" y="0px"
	 width="2440.785px" height="984.563px" viewBox="0 0 2440.785 984.563" enable-background="new 0 0 2440.785 984.563"
	 xml:space="preserve">
<g>
	<g>
		<g>
			<path fill="#121212" d="M980.716,134.822c-0.95-0.125-0.277,1.067-0.261,2.417c0.021,1.76-0.15,3.526-0.3,5.277
				c-0.426,4.995-1.025,9.971-1.332,14.976c-0.449,7.327-1.065,17.854,5.493,22.854c1.663,1.269,3.275-1.55,1.636-2.799
				c-3.643-2.777-3.864-8.636-4.025-12.782c-0.215-5.545,0.376-11.123,0.923-16.633c0.323-3.26,3.408-15.821-2.134-16.552
				C978.648,131.308,978.674,134.553,980.716,134.822L980.716,134.822z"/>
		</g>
	</g>
	<g>
		<g>
			<path fill="#121212" d="M980.39,141.971c3.046-2.892,7.832-4.609,11.639-6.173c4.644-1.908,9.956-3.898,15.054-3.572
				c7.605,0.487-3.903,11.737-5.858,13.165c-4.786,3.497-11.481,7.29-17.562,7.537c-2.083,0.085-2.091,3.327,0,3.242
				c7.153-0.29,14.991-4.663,20.492-8.938c3.627-2.819,12.207-10.999,7.45-16.263c-3.885-4.298-12.255-1.197-16.706,0.302
				c-5.539,1.866-12.474,4.301-16.801,8.407C976.579,141.12,978.875,143.408,980.39,141.971L980.39,141.971z"/>
		</g>
	</g>
	<g>
		<g>
			<path fill="#121212" d="M980.79,176.716c-0.14-0.27,0.335,1.214,0.435,1.595c0.357,1.366,0.685,2.741,1.02,4.113
				c0.744,3.044,1.482,6.092,2.347,9.104c0.415,1.443,0.836,3.913,2.271,4.748c2.417,1.405,2.826-2.177,2.84-3.606
				c0.02-2.092-3.222-2.09-3.242,0c-0.004,0.408-0.014,0.812-0.039,1.219c-0.097,1.581-0.545-4.256,2.407-0.09
				c-0.372-0.525-0.526-1.248-0.721-1.849c-0.696-2.143-1.233-4.342-1.784-6.525c-0.825-3.271-1.167-7.32-2.734-10.345
				C982.627,173.223,979.829,174.862,980.79,176.716L980.79,176.716z"/>
		</g>
	</g>
	<g>
		<g>
			<path fill="#121212" d="M1007.302,149.27c1.398,2.534,0.642,6.583,0.463,9.326c-0.297,4.57-0.748,9.124-0.72,13.709
				c0.038,6.237,1.463,14.016,9.021,14.363c7.367,0.339,10.428-9.117,11.696-14.726c1.408-6.229,2.757-15.193,0.014-21.261
				c-0.466,0.813-0.933,1.626-1.399,2.439c0.491,0,0.981,0,1.472,0c2.091,0,2.091-3.242,0-3.242c-0.491,0-0.981,0-1.472,0
				c-1.326,0-1.89,1.354-1.399,2.439c2.739,6.061-1.86,38.73-12.094,29.981c-4.378-3.742-2.587-13.952-2.232-18.897
				c0.339-4.72,1.878-11.368-0.551-15.77C1009.091,145.803,1006.291,147.438,1007.302,149.27L1007.302,149.27z"/>
		</g>
	</g>
	<g>
		<g>
			<path fill="#121212" d="M1041.195,150.407c0.491-1.524,0.983-3.049,1.474-4.574c-1.061-0.144-2.123-0.287-3.184-0.431
				c-0.094,10.262-2.744,20.778-1.408,30.97c0.347,2.645,0.488,12.141,3.435,13.512c0.672,0.312,1.409,0.295,1.964-0.254
				c0.789-0.779,0.707-2.038,0.723-3.06c0.033-2.092-3.209-2.089-3.242,0c-0.011,0.688-0.385,1.372,0.227,0.768
				c0.655-0.085,1.31-0.169,1.964-0.254c0.738,0.344,0.198-0.121-0.027-0.96c-0.336-1.25-0.573-2.529-0.82-3.799
				c-0.539-2.776-0.969-5.579-1.276-8.39c-0.369-3.377,0.203-6.771,0.524-10.133c0.586-6.127,1.122-12.241,1.178-18.4
				c0.017-1.879-2.633-2.142-3.184-0.431c-0.491,1.524-0.983,3.049-1.474,4.574C1037.426,151.541,1040.557,152.389,1041.195,150.407
				L1041.195,150.407z"/>
		</g>
	</g>
	<g>
		<g>
			<path fill="#121212" d="M1041.195,167.178c1.883-5.098,7.174-9.632,11.473-12.668c2.087-1.475,4.938-3.224,7.605-2.709
				c2.865,0.552,2.767,5.104,2.727,7.278c-0.122,6.627-1.338,13.203-1.553,19.833c-0.139,4.318-0.162,10.383,3.552,13.38
				c0.829,0.668,1.938,0.617,2.545-0.328c0.981-1.525,1.962-3.051,2.944-4.575c1.136-1.764-1.671-3.388-2.799-1.637
				c-0.982,1.524-1.963,3.05-2.944,4.575c0.848-0.109,1.697-0.219,2.545-0.328c-5.245-4.232-2.282-17.038-1.708-22.729
				c0.542-5.369,2.244-13-2.08-17.312c-7.627-7.608-23.125,10.101-25.436,16.359
				C1037.343,168.281,1040.477,169.122,1041.195,167.178L1041.195,167.178z"/>
		</g>
	</g>
	<g>
		<g>
			<path fill="#121212" d="M1077.779,124.055c-0.063,22.874-2.918,46.64,3.004,69.045c0.47,1.78,3.184,1.397,3.184-0.431
				c0-1.525,0-3.05,0-4.575c0-2.091-3.242-2.091-3.242,0c0,1.525,0,3.05,0,4.575c1.062-0.144,2.123-0.287,3.184-0.431
				c-5.841-22.099-2.951-45.619-2.888-68.184C1081.027,121.964,1077.785,121.965,1077.779,124.055L1077.779,124.055z"/>
		</g>
	</g>
	<g>
		<g>
			<path fill="#121212" d="M1079.073,175.519c9.419-9.706,19.753-19.132,26.766-30.823c0.948-1.581-1.261-3.293-2.545-1.965
				c-0.982,1.017-1.964,2.032-2.946,3.049c-1.452,1.504,0.838,3.799,2.292,2.293c0.982-1.017,1.964-2.033,2.946-3.049
				c-0.849-0.655-1.697-1.31-2.545-1.965c-6.865,11.444-17.037,20.664-26.259,30.167
				C1075.325,174.727,1077.615,177.021,1079.073,175.519L1079.073,175.519z"/>
		</g>
	</g>
	<g>
		<g>
			<path fill="#121212" d="M1091.034,157.599c0.139,9.759,2.756,24.829,12.975,29.012c1.935,0.792,2.769-2.346,0.861-3.127
				c-8.502-3.479-10.481-17.928-10.594-25.885C1094.246,155.51,1091.004,155.507,1091.034,157.599L1091.034,157.599z"/>
		</g>
	</g>
	<g>
		<g>
			<path fill="#121212" d="M1119.822,125.704c-3.927,1.946-3.649,12.036-3.969,15.559c-0.956,10.544-0.202,20.882,0.96,31.381
				c0.465,4.201,1.491,18.978,9.062,16.634c5.542-1.716,7.984-11.506,8.17-16.431c0.079-2.092-3.164-2.084-3.242,0
				c-0.069,1.832-3.674,15.876-7.092,13.1c-2.945-2.393-3.227-9.949-3.656-13.303c-0.588-4.597-0.871-9.243-1.294-13.857
				c-0.494-5.389-0.159-10.9,0.233-16.283c0.212-2.91,0.539-5.812,1.003-8.693c0.153-0.946,0.45-4.806,1.46-5.307
				C1123.331,127.574,1121.688,124.778,1119.822,125.704L1119.822,125.704z"/>
		</g>
	</g>
	<g>
		<g>
			<path fill="#121212" d="M1110.332,156.17c7.175-0.216,16.469-3.084,21.765-8.098c1.521-1.44-0.775-3.729-2.292-2.293
				c-4.644,4.396-13.169,6.959-19.473,7.148C1108.246,152.99,1108.24,156.232,1110.332,156.17L1110.332,156.17z"/>
		</g>
	</g>
	<g>
		<g>
			<path fill="#121212" d="M1169.678,145.362c-3.458-0.978,8.744-11.431,10.31-12.229c3.92-1.998,3.429,1.492,2.726,4.438
				c-1.52,6.37-4.879,12.353-7.246,18.455c-3.277,8.449-8.852,20.028-6.143,29.303c3.249,11.123,19.842,2.606,25.778-0.409
				c1.864-0.947,0.223-3.743-1.637-2.799c-4.343,2.206-15.536,8.781-20.201,3.881c-3.242-3.405-0.569-11.347,0.466-15.099
				c1.709-6.193,4.14-12.182,6.478-18.157c2.34-5.98,6.116-12.018,6.262-18.626c0.346-15.626-30.854,10.636-17.656,14.369
				C1170.832,149.059,1171.687,145.931,1169.678,145.362L1169.678,145.362z"/>
		</g>
	</g>
</g>
</svg>
