<?xml version="1.0" encoding="utf-8"?>
<!-- Generator: Adobe Illustrator 16.0.4, SVG Export Plug-In . SVG Version: 6.00 Build 0)  -->
<!DOCTYPE svg PUBLIC "-//W3C//DTD SVG 1.1//EN" "http://www.w3.org/Graphics/SVG/1.1/DTD/svg11.dtd">
<svg version="1.1" id="bubble" xmlns="http://www.w3.org/2000/svg" xmlns:xlink="http://www.w3.org/1999/xlink" x="0px" y="0px"
	 width="2440.785px" height="984.563px" viewBox="0 0 2440.785 984.563" enable-background="new 0 0 2440.785 984.563"
	 xml:space="preserve">
<g>
	<path fill="#FFFFFF" d="M1303.437,295.114c13.754-28.715,19.09-64.967,13.199-110.624
		C1302.621,75.831,1194.872-6.596,1059.247,2.077c-135.625,8.671-257.315,59.541-233.751,213.818
		c6.051,39.62,23.991,75.823,50.937,105.389c-14.813,20.013-36.135,35.955-54.73,37.143c30.415,30.259,79.353,28.208,120.175,12.371
		c40.121,20.417,88.265,30.885,141.008,27.513c70.917-4.535,137.261-18.746,181.456-54.305c22.666,26.19,82.982,20.18,94.639-14.94
		C1330.333,331.976,1314.783,316.528,1303.437,295.114z"/>
	<g>
		<path fill="#1D1B3A" d="M1304.626,295.81c10.199-21.555,14.783-44.989,15.64-68.729c0.887-24.575-1.755-49.812-8.852-73.402
			c-11.883-39.503-37.093-73.94-69.179-99.517c-35.129-28.003-78.194-44.846-122.468-51.215
			c-44.532-6.406-91.073-1.679-134.917,7.55c-37.244,7.838-74.51,21.009-105.011,44.318c-28.584,21.844-47.974,52.561-55.189,87.816
			c-13.008,63.554,7.681,131.938,50.809,179.626c-0.072-0.556-0.144-1.112-0.215-1.669c-12.618,16.801-31.507,34.664-53.541,36.461
			c-1.145,0.093-1.892,1.455-0.974,2.351c16.797,16.392,39.156,23.526,62.285,24.076c12.119,0.288,24.266-1.399,36.05-4.127
			c5.926-1.372,11.754-3.144,17.501-5.128c3.712-1.282,5.241-1.896,8.896-0.11c3.362,1.643,6.777,3.175,10.21,4.662
			c24.906,10.793,51.498,17.239,78.456,20.063c29.706,3.111,59.698,0.764,89.24-2.947c49.813-6.257,101.942-19.018,141.949-50.91
			c-0.649,0-1.298,0-1.947,0c24.479,27.521,84.231,20.996,96.94-15.548c0.278-0.8-0.465-1.822-1.328-1.743
			c-11.986,1.085-23.48-0.851-33.564-7.666c-9.221-6.233-15.618-15.961-20.789-25.604c-0.84-1.565-3.218-0.175-2.379,1.391
			c5.494,10.243,12.222,19.77,21.778,26.591c10.161,7.254,22.763,9.146,34.954,8.042c-0.442-0.581-0.886-1.162-1.328-1.743
			c-12.057,34.668-69.336,40.192-92.337,14.333c-0.539-0.606-1.389-0.445-1.947,0c-42.631,33.984-99.191,45.83-152.168,51.519
			c-30.198,3.243-60.392,4.32-90.523-0.171c-13.91-2.073-27.631-5.341-41.037-9.576c-6.235-1.97-12.373-4.235-18.437-6.679
			c-3.376-1.36-6.705-2.831-10.015-4.343c-2.861-1.307-5.928-3.483-8.944-4.312c-1.363-0.375-3.718,1.128-4.983,1.588
			c-2.377,0.866-4.784,1.652-7.195,2.417c-5.316,1.685-10.729,3.049-16.183,4.205c-10.622,2.254-21.485,3.265-32.338,3.007
			c-21.807-0.519-43.103-7.849-58.868-23.233c-0.325,0.783-0.649,1.567-0.974,2.351c23.12-1.885,42.669-20.182,55.92-37.824
			c0.379-0.505,0.166-1.248-0.215-1.669c-36.753-40.64-54.928-93.193-53.373-147.787c1.106-38.804,15.203-75.59,43.019-103.017
			c27.292-26.909,63.964-42.402,100.502-52.083c20.645-5.471,41.776-9.037,62.982-11.453c23.688-2.699,47.507-4.051,71.315-2.242
			c89.019,6.765,176.863,59.458,205.79,147.143c7.54,22.855,10.139,47.234,9.976,71.215c-0.169,24.843-4.704,49.791-15.37,72.333
			C1301.493,296.016,1303.867,297.415,1304.626,295.81z"/>
	</g>
</g>
</svg>
