<?xml version="1.0" encoding="utf-8"?>
<!-- Generator: Adobe Illustrator 16.0.4, SVG Export Plug-In . SVG Version: 6.00 Build 0)  -->
<!DOCTYPE svg PUBLIC "-//W3C//DTD SVG 1.1//EN" "http://www.w3.org/Graphics/SVG/1.1/DTD/svg11.dtd">
<svg version="1.1" id="p4" xmlns="http://www.w3.org/2000/svg" xmlns:xlink="http://www.w3.org/1999/xlink" x="0px" y="0px"
	 width="2440.785px" height="984.563px" viewBox="0 0 2440.785 984.563" enable-background="new 0 0 2440.785 984.563"
	 xml:space="preserve">
<g>
	<g>
		<g>
			<path fill="#121212" d="M982.461,324.211c-1.077,2.625-0.941,6.396-1.241,9.169c-0.746,6.884-1.195,13.808-1.232,20.733
				c-0.03,5.61,0.141,11.57,1.938,16.94c0.501,1.497,1.54,3.29,3.531,2.541c2.475-0.931,2.303-2.889,1.604-5.162
				c-0.612-1.992-3.742-1.143-3.126,0.861c0.862,2.806,0.828,0.011,0.659-0.572c-0.239-0.821-0.393-1.667-0.553-2.506
				c-0.479-2.5-0.612-5.07-0.729-7.607c-0.227-4.952-0.022-9.927,0.272-14.871c0.256-4.313,0.666-8.619,1.164-12.911
				c0.205-1.767,0.152-4.078,0.839-5.754C986.381,323.138,983.243,322.304,982.461,324.211L982.461,324.211z"/>
		</g>
	</g>
	<g>
		<g>
			<path fill="#121212" d="M979.754,333.791c0.451-8.33,11.405-12.342,18.236-13.708c5.102-1.02,14.448,0.22,9.75,7.038
				c-6.038,8.763-17.415,13.275-26.006,18.992c0.739,0.739,1.479,1.479,2.217,2.218c0.982-1.524,1.964-3.049,2.946-4.573
				c1.136-1.764-1.671-3.388-2.799-1.637c-0.982,1.524-1.964,3.049-2.946,4.573c-0.867,1.346,0.866,3.117,2.217,2.218
				c5.444-3.622,11.221-6.668,16.562-10.474c4.693-3.346,12.661-8.632,12.618-15.209c-0.05-7.642-11.753-7.005-16.495-6.058
				c-8.206,1.641-19.03,7.169-19.542,16.619C976.399,335.881,979.642,335.87,979.754,333.791L979.754,333.791z"/>
		</g>
	</g>
	<g>
		<g>
			<path fill="#121212" d="M1009.718,327.817c-7.796,4.762-4.472,19.947-2.919,27.021c1.209,5.508,5.068,17.419,13.175,14.74
				c6.485-2.143,6.877-13.889,7.326-19.255c0.615-7.362,1.119-15.771-0.472-23.063c-0.445-2.043-3.57-1.176-3.126,0.861
				c1.119,5.133,0.781,10.896,0.666,16.104c-0.146,6.581-0.243,14.524-3.56,20.418c-1.529,2.718-3.761,2.13-5.903,0.411
				c-2.743-2.2-3.616-5.865-4.5-9.116c-1.262-4.646-1.913-9.469-2.058-14.276c-0.099-3.27-0.233-9.068,3.006-11.047
				C1013.135,329.529,1011.507,326.725,1009.718,327.817L1009.718,327.817z"/>
		</g>
	</g>
	<g>
		<g>
			<path fill="#121212" d="M1038.194,327.312c1.944-2.274,3.566-6.33-1.146-5.815c-0.879,0.096-1.619,0.665-1.621,1.621
				c-0.025,14.627-1.555,31.359,4.641,45.036c0.691,1.526,3.021,0.697,3.021-0.818c0-2.033,0-4.066,0-6.1
				c0-2.091-3.242-2.091-3.242,0c0,2.033,0,4.066,0,6.1c1.007-0.272,2.014-0.545,3.021-0.818
				c-5.906-13.038-4.221-29.447-4.197-43.399c-0.541,0.54-1.081,1.081-1.621,1.621c-0.382,0.094-0.764,0.187-1.146,0.28
				C1034.551,326.599,1036.833,328.903,1038.194,327.312L1038.194,327.312z"/>
		</g>
	</g>
	<g>
		<g>
			<path fill="#121212" d="M1040.142,341.414c0.294-4.43,7.107-10.005,10.383-12.283c6.887-4.791,8.929,1.84,8.655,7.751
				c-0.326,7.04-1.271,14.031-1.362,21.086c-0.05,3.84-0.258,9.908,3.452,12.295c0.915,0.59,2.073-0.012,2.381-0.969
				c0.491-1.525,0.982-3.051,1.473-4.576c0.643-1.995-2.488-2.843-3.126-0.861c-0.491,1.525-0.982,3.051-1.473,4.576
				c0.793-0.323,1.587-0.646,2.381-0.969c-2.38-1.532-1.843-7.122-1.846-9.496c-0.005-4.375,0.404-8.755,0.766-13.111
				c0.458-5.522,2.354-13.56-1.57-18.326c-3.993-4.852-9.912-1.498-13.809,1.643c-3.528,2.843-9.221,8.342-9.546,13.241
				C1036.761,343.502,1040.003,343.489,1040.142,341.414L1040.142,341.414z"/>
		</g>
	</g>
	<g>
		<g>
			<path fill="#121212" d="M1073.722,303.294c0.105,14.982,1.208,29.975,1.477,44.968c0.079,4.413-0.094,9.352,1.233,13.616
				c0.872,2.8,3.501,2.503,4.729,0.176c0.975-1.848-1.823-3.486-2.799-1.637c-0.512,0.971,1.372,1.164,1.072,0.2
				c-0.238-0.767-0.34-1.598-0.441-2.39c-0.236-1.837-0.324-3.695-0.414-5.544c-0.187-3.863-0.201-7.737-0.185-11.604
				c0.055-12.621-1.343-25.171-1.431-37.785C1076.95,301.204,1073.708,301.203,1073.722,303.294L1073.722,303.294z"/>
		</g>
	</g>
	<g>
		<g>
			<path fill="#121212" d="M1097.51,319.246c-4.127,8.268-9.604,15.842-15.949,22.547c0.922,0.383,1.845,0.765,2.767,1.146
				c-0.107,1.637-1.888-0.09-0.289,1.45c0.732,0.705,1.389,1.494,2.055,2.261c1.71,1.972,3.348,4.005,5.057,5.978
				c2.335,2.695,5.177,6.193,8.8,7.122c2.027,0.519,2.886-2.608,0.862-3.127c-5.46-1.397-9.959-9.511-13.51-13.498
				c-1.749-1.963-5.911-4.859-6.217-0.186c-0.093,1.42,1.831,2.136,2.767,1.146c6.523-6.895,12.213-14.703,16.456-23.203
				C1101.24,319.019,1098.444,317.376,1097.51,319.246L1097.51,319.246z"/>
		</g>
	</g>
	<g>
		<g>
			<path fill="#121212" d="M1116.657,304.112c-0.622-1.408-0.421,0.213-0.635,1.197c-0.31,1.428-0.628,2.853-0.942,4.279
				c-0.842,3.829-1.657,7.664-2.412,11.511c-1.387,7.063-2.39,14.274-2.149,21.489c0.247,7.374,3.336,12.974,9.791,16.588
				c5.402,3.025,10.375-2.332,9.62-7.52c-0.3-2.062-3.424-1.183-3.126,0.861c1.03,7.077-6.849,2.866-9.142,0.833
				c-2.643-2.343-3.463-6.198-3.818-9.537c-0.601-5.636,0.185-11.667,1.104-17.232c0.895-5.411,2.084-10.776,3.258-16.132
				c0.441-2.016,2.159-5.915,1.249-7.975C1118.613,300.567,1115.821,302.218,1116.657,304.112L1116.657,304.112z"/>
		</g>
	</g>
	<g>
		<g>
			<path fill="#121212" d="M1104.8,332.36c4.951-0.103,9.765-1.444,14.729-1.522c2.088-0.033,2.092-3.274,0-3.242
				c-4.965,0.078-9.781,1.421-14.729,1.522C1102.713,329.161,1102.708,332.403,1104.8,332.36L1104.8,332.36z"/>
		</g>
	</g>
	<g>
		<g>
			<path fill="#121212" d="M1166.877,306.054c-4.582,11.038-7.985,22.517-12.568,33.555c-0.502,1.209,0.921,2.255,1.994,1.994
				c11.037-2.69,22.073-5.381,33.073-8.219c0.531-0.138,1.001-0.595,1.132-1.133c0.024-0.102,0.049-0.202,0.074-0.304
				c0.308-1.268-0.78-2.223-1.994-1.994c-0.543,0.082-1.086,0.164-1.628,0.246c-2.048,0.249-2.072,3.494,0,3.242
				c0.852-0.104,1.651-0.204,2.49-0.362c-0.665-0.665-1.33-1.329-1.994-1.994c0.162-0.666-5.636,0.885-6.087,0.999
				c-3.045,0.771-6.093,1.527-9.142,2.282c-5.591,1.385-11.188,2.746-16.785,4.109c0.665,0.665,1.329,1.33,1.994,1.994
				c4.583-11.038,7.986-22.516,12.568-33.555C1170.805,304.984,1167.667,304.151,1166.877,306.054L1166.877,306.054z"/>
		</g>
	</g>
	<g>
		<g>
			<path fill="#121212" d="M1178.785,319.064c-3.902,12.262-7.92,25.776-7.335,38.777c0.094,2.082,3.336,2.091,3.242,0
				c-0.573-12.71,3.4-25.916,7.219-37.916C1182.546,317.929,1179.416,317.08,1178.785,319.064L1178.785,319.064z"/>
		</g>
	</g>
</g>
</svg>
