<?xml version="1.0" encoding="utf-8"?>
<!-- Generator: Adobe Illustrator 16.0.4, SVG Export Plug-In . SVG Version: 6.00 Build 0)  -->
<!DOCTYPE svg PUBLIC "-//W3C//DTD SVG 1.1//EN" "http://www.w3.org/Graphics/SVG/1.1/DTD/svg11.dtd">
<svg version="1.1" id="p3-mark" xmlns="http://www.w3.org/2000/svg" xmlns:xlink="http://www.w3.org/1999/xlink" x="0px" y="0px"
	 width="2440.785px" height="984.563px" viewBox="0 0 2440.785 984.563" enable-background="new 0 0 2440.785 984.563"
	 xml:space="preserve">
<g>
	<g>
		<path fill="#121212" d="M897.945,253.146c1.173,4.462,4.546,8.714,7.052,12.481c3.763,5.659,7.862,11.198,12.535,16.145
			c1.058,1.12,2.631,0.166,2.767-1.146c0.663-6.401,3.177-15.612,4.734-22.749c2.474-11.339,4.877-22.805,8.388-33.879
			c0.634-1.998-2.497-2.847-3.126-0.861c-3.511,11.075-5.902,22.54-8.388,33.878c-1.695,7.73-4.033,15.721-4.851,23.611
			c0.922-0.382,1.845-0.764,2.767-1.146c-4.498-4.761-8.363-10.07-12.027-15.487c-2.35-3.473-5.639-7.577-6.726-11.707
			C900.54,250.264,897.413,251.122,897.945,253.146L897.945,253.146z"/>
	</g>
</g>
</svg>
