<?xml version="1.0" encoding="utf-8"?>
<!-- Generator: Adobe Illustrator 16.0.4, SVG Export Plug-In . SVG Version: 6.00 Build 0)  -->
<!DOCTYPE svg PUBLIC "-//W3C//DTD SVG 1.1//EN" "http://www.w3.org/Graphics/SVG/1.1/DTD/svg11.dtd">
<svg version="1.1" id="p3" xmlns="http://www.w3.org/2000/svg" xmlns:xlink="http://www.w3.org/1999/xlink" x="0px" y="0px"
	 width="2440.785px" height="984.563px" viewBox="0 0 2440.785 984.563" enable-background="new 0 0 2440.785 984.563"
	 xml:space="preserve">
<g>
	<g>
		<g>
			<path fill="#121212" d="M986.698,220.548c0.491-1.524,0.982-3.049,1.474-4.574c0.486-1.51-1.643-2.807-2.709-1.577
				c-3.714,4.282-3.56,12.406-3.929,17.684c-0.714,10.208-0.45,20.542,0.549,30.72c0.666,6.791,1.232,15.433,5.324,21.197
				c0.978,1.377,4.414,4.221,5.732,1.642c0.986-1.928,0.307-5.036-0.711-6.875c-1.013-1.829-3.812-0.193-2.799,1.637
				c0.186,0.335,0.442,1.535,0.585,2.145c-0.149,0.932,0.194,1.173,1.029,0.724c-0.525-0.253-0.976-0.822-1.31-1.292
				c-1.395-1.966-2.01-4.501-2.6-6.797c-1.831-7.136-2.345-14.641-2.704-21.972c-0.36-7.351-0.301-14.735,0.212-22.076
				c0.277-3.95,0.102-11.201,2.913-14.442c-0.903-0.526-1.806-1.052-2.709-1.577c-0.491,1.524-0.982,3.049-1.474,4.574
				C982.929,221.682,986.06,222.529,986.698,220.548L986.698,220.548z"/>
		</g>
	</g>
	<g>
		<g>
			<path fill="#121212" d="M985.226,228.834c0.192,1.212-0.365,1.396,0.471,0.419c0.717-0.838,1.48-1.638,2.245-2.433
				c2.298-2.393,4.767-4.619,7.343-6.707c4.774-3.869,14.3-10.527,18.854-3.062c3.63,5.952-8.156,15.945-12.226,19.688
				c-2.776,2.554-5.617,5.038-8.48,7.493c-1.237,1.061-3.995,3.86-5.006,4.155c0.665,0.377,1.329,0.755,1.994,1.132
				c0.279,1.122-0.629,1.677,0.28,0.717c1.437-1.517-0.852-3.812-2.292-2.293c-0.658,0.694-1.375,1.39-1.114,2.438
				c0.211,0.848,1.162,1.375,1.994,1.132c2.32-0.676,4.67-3.482,6.437-4.989c3.73-3.18,7.403-6.437,10.963-9.807
				c5.37-5.083,15.582-15.524,9.062-23.034c-5.931-6.832-15.218-1.488-20.966,2.75c-3.452,2.546-6.622,5.479-9.59,8.569
				c-1.087,1.131-3.376,2.911-3.094,4.693C982.427,231.756,985.55,230.878,985.226,228.834L985.226,228.834z"/>
		</g>
	</g>
	<g>
		<g>
			<path fill="#121212" d="M1005.829,245.332c4.481,7.812,0.221,17.962,4.191,26.038c2.53,5.147,7.534,7.724,11.655,2.848
				c4.415-5.224,6.119-13.147,7.258-19.685c0.885-5.086,2.256-12.906-1.41-17.265c-1.347-1.602-3.628,0.704-2.292,2.293
				c2.857,3.396,1.066,11.294,0.401,15.111c-0.984,5.651-2.614,11.55-5.684,16.443c-5.017,7.998-8.307-5.271-8.574-9.257
				c-0.404-6.034,0.382-12.71-2.747-18.164C1007.588,241.883,1004.787,243.516,1005.829,245.332L1005.829,245.332z"/>
		</g>
	</g>
	<g>
		<g>
			<path fill="#121212" d="M1042.669,234.27c0.491-1.524,0.981-3.049,1.472-4.574c0.542-1.685-1.552-2.521-2.709-1.577
				c-5.562,4.535-4.264,14.396-3.821,20.652c0.295,4.177,0.368,8.367,0.728,12.535c0.264,3.058,2.279,8.816,1.339,11.74
				c0.521-0.396,1.042-0.793,1.563-1.19c-0.045,0.003-0.089,0.006-0.134,0.008c-2.078,0.117-2.09,3.36,0,3.242
				c0.045-0.003,0.089-0.005,0.134-0.008c0.75-0.042,1.331-0.469,1.563-1.19c0.736-2.287-0.423-5.915-0.722-8.186
				c-0.565-4.294-0.668-8.563-0.926-12.875c-0.372-6.233-3.013-17.885,2.568-22.436c-0.903-0.526-1.806-1.052-2.709-1.577
				c-0.491,1.524-0.981,3.049-1.472,4.574C1038.901,235.403,1042.031,236.252,1042.669,234.27L1042.669,234.27z"/>
		</g>
	</g>
	<g>
		<g>
			<path fill="#121212" d="M1039.78,256.713c-1.097-10.791,21.593-27.915,25.263-12.244c2.474,10.565-4.562,22.942,1.175,32.885
				c0.342,0.593,1.156,0.987,1.831,0.745c2.979-1.071,4.375-2.922,4.136-6.139c-0.154-2.071-3.397-2.087-3.242,0
				c-0.585,1.004-1.171,2.008-1.756,3.012c0.61,0.249,1.221,0.497,1.831,0.745c-6.674-11.565,6.931-30.502-5.671-39.759
				c-4.982-3.659-12.911,0.623-16.924,3.764c-5.045,3.948-10.585,10.077-9.883,16.991
				C1036.748,258.771,1039.992,258.792,1039.78,256.713L1039.78,256.713z"/>
		</g>
	</g>
	<g>
		<g>
			<path fill="#121212" d="M1074.833,207.917c-0.026,23.703-1.175,49.215,5.95,72.096c0.535,1.718,3.216,1.443,3.184-0.431
				c-0.085-4.9-1.008-9.622-1.597-14.469c-0.801-6.587,1.683-11.684,5.908-16.634c7.342-8.601,16.214-15.721,20.67-26.406
				c0.647-1.551-1.653-2.671-2.709-1.577c-1.473,1.525-2.946,3.05-4.418,4.575c-1.452,1.504,0.838,3.799,2.292,2.293
				c1.473-1.525,2.946-3.051,4.418-4.575c-0.903-0.526-1.806-1.052-2.709-1.577c-5.121,12.279-16.931,19.463-23.921,30.416
				c-5.501,8.621-1.338,18.606-1.176,27.954c1.062-0.144,2.123-0.287,3.184-0.431c-7.037-22.599-5.86-47.815-5.834-71.234
				C1078.077,205.826,1074.835,205.826,1074.833,207.917L1074.833,207.917z"/>
		</g>
	</g>
	<g>
		<g>
			<path fill="#121212" d="M1088.089,241.465c0.28,6.109,4.013,11.721,7.294,16.65c3.734,5.612,8.089,10.761,12.075,16.188
				c1.223,1.666,4.039,0.051,2.799-1.637c-3.472-4.727-7.191-9.262-10.594-14.042c-3.465-4.867-8.047-10.964-8.331-17.159
				C1091.236,239.383,1087.994,239.374,1088.089,241.465L1088.089,241.465z"/>
		</g>
	</g>
	<g>
		<g>
			<path fill="#121212" d="M1116.074,215.543c-0.201,17.464-6.595,40.197,9.45,52.718c3.345,2.61,8.056,5.223,12.431,3.981
				c5.379-1.525,4.277-8.923,3.397-12.913c-0.45-2.041-3.575-1.176-3.126,0.861c0.811,3.68,1.75,10.051-3.922,8.984
				c-4.087-0.769-7.743-3.913-10.469-6.868c-10.723-11.619-4.681-32.688-4.519-46.764
				C1119.34,213.451,1116.098,213.454,1116.074,215.543L1116.074,215.543z"/>
		</g>
	</g>
	<g>
		<g>
			<path fill="#121212" d="M1114.094,238.289c2.542-1.23,5.25-1.302,8.02-1.304c2.09-0.002,2.091-3.244,0-3.242
				c-3.388,0.003-6.564,0.25-9.657,1.747C1110.576,236.4,1112.221,239.196,1114.094,238.289L1114.094,238.289z"/>
		</g>
	</g>
	<g>
		<g>
			<path fill="#121212" d="M1161.882,221.545c1.586,0.084-0.365,2.007,1.095,0.619c0.657-0.625,1.439-1.119,2.192-1.617
				c1.846-1.222,3.844-2.214,5.856-3.127c2.195-0.996,4.521-1.724,6.888-2.168c1.972-0.37,4.956-0.539,3.476,1.872
				c-5.168,8.418-20.445,9.816-21.128,21.291c-0.03,0.51,0.319,1.189,0.803,1.399c5.035,2.193,9.957,0.987,15.259,1.214
				c3.859,0.165,9.179,4.278,11.372,7.378c2.147,3.034,0.732,6.757-0.935,9.583c-2.967,5.028-8.802,8.982-13.128,12.797
				c-2.222,1.96-5.165,4.325-8.254,4.572c-3.406,0.272-3.304-5.928-3.349-7.972c-0.046-2.087-3.288-2.092-3.242,0
				c0.121,5.553,1.577,12.372,8.568,10.932c3.682-0.759,7.006-3.86,9.717-6.251c3.714-3.274,8.1-6.505,11.099-10.491
				c4.338-5.768,5.669-13.37-0.809-18.23c-4.099-3.075-7.122-5.393-12.36-5.616c-2.649-0.113-5.314,0.339-7.969,0.315
				c-4.467-0.039-3.286-2.291-1.137-4.687c5.028-5.606,13.235-7.655,17.747-13.85c1.496-2.053,2.651-3.845,0.877-5.971
				c-1.444-1.73-4.278-1.768-6.291-1.577c-5.722,0.54-11.79,3.56-16.352,6.944c-2.26,1.676-4.539,5.641,0.005,5.882
				C1163.972,224.898,1163.961,221.655,1161.882,221.545L1161.882,221.545z"/>
		</g>
	</g>
</g>
</svg>
