<?xml version="1.0" encoding="utf-8"?>
<!-- Generator: Adobe Illustrator 16.0.4, SVG Export Plug-In . SVG Version: 6.00 Build 0)  -->
<!DOCTYPE svg PUBLIC "-//W3C//DTD SVG 1.1//EN" "http://www.w3.org/Graphics/SVG/1.1/DTD/svg11.dtd">
<svg version="1.1" id="p4-mark" xmlns="http://www.w3.org/2000/svg" xmlns:xlink="http://www.w3.org/1999/xlink" x="0px" y="0px"
	 width="2440.785px" height="984.563px" viewBox="0 0 2440.785 984.563" enable-background="new 0 0 2440.785 984.563"
	 xml:space="preserve">
<g>
	<g>
		<path fill="#121212" d="M900.591,332.578c1.174,4.462,4.547,8.714,7.053,12.482c3.764,5.659,7.863,11.198,12.535,16.145
			c1.058,1.12,2.631,0.166,2.767-1.146c0.662-6.402,3.177-15.613,4.734-22.751c2.474-11.339,4.877-22.804,8.387-33.878
			c0.633-1.998-2.497-2.847-3.126-0.861c-3.51,11.075-5.901,22.54-8.387,33.878c-1.695,7.729-4.034,15.722-4.851,23.612
			c0.922-0.382,1.845-0.764,2.767-1.146c-4.498-4.762-8.363-10.071-12.028-15.488c-2.35-3.473-5.64-7.577-6.726-11.707
			C903.186,329.696,900.058,330.555,900.591,332.578L900.591,332.578z"/>
	</g>
</g>
</svg>
