<?xml version="1.0" encoding="utf-8"?>
<!-- Generator: Adobe Illustrator 16.0.4, SVG Export Plug-In . SVG Version: 6.00 Build 0)  -->
<!DOCTYPE svg PUBLIC "-//W3C//DTD SVG 1.1//EN" "http://www.w3.org/Graphics/SVG/1.1/DTD/svg11.dtd">
<svg version="1.1" id="mustage" xmlns="http://www.w3.org/2000/svg" xmlns:xlink="http://www.w3.org/1999/xlink" x="0px" y="0px"
	 width="2440.785px" height="984.563px" viewBox="0 0 2440.785 984.563" enable-background="new 0 0 2440.785 984.563"
	 xml:space="preserve">
<path fill="#1D1B3A" d="M1505.998,298.967l-0.152-1.202l-0.242-1.228l-0.324-1.251l-0.396-1.272l-0.463-1.291l-0.518-1.317
	l-0.547-1.261c-0.043-0.846-0.113-1.685-0.211-2.52c0.213-3.888-0.691-7.508-1.928-11.098c-0.578-2.549-1.541-5.123-2.811-7.607
	c-0.146-0.411-0.291-0.825-0.432-1.242c-0.178-0.532-0.5-0.893-0.883-1.121c-5.326-8.842-14.318-15.902-22.68-15.124l-1.074-0.516
	l-1.57-0.639l-1.533-0.515l-1.5-0.391l-1.469-0.267l-1.43-0.148l-1.395-0.026l-1.352,0.09l-1.309,0.2l-1.266,0.312l-1.213,0.413
	l-1.164,0.511l-1.109,0.602l-1.057,0.686l-1.006,0.764l-0.953,0.837l-0.902,0.902l-0.852,0.965l-0.807,1.023l-0.76,1.074
	l-0.715,1.125l-0.674,1.172l-0.641,1.225l-0.875,1.898l-1.027,2.621l-0.881,2.719l-0.742,2.795l-0.607,2.834l-0.479,2.852
	l-0.355,2.835l-0.232,2.793l-0.121,2.722l-0.006,2.622l0.104,2.483l0.146,1.76l0.131,1.127l0.158,1.082l0.188,1.034l0.213,0.985
	l0.242,0.932l0.273,0.879l0.309,0.826l0.352,0.771l0.402,0.718l0.467,0.661l0.496,0.546l0.18,0.164
	c0.051,0.045,0.104,0.086,0.158,0.129l0.504,0.307l0.877,0.271l0.857-0.011l0.727-0.209l0.6-0.318l0.516-0.381l0.461-0.429
	l0.449-0.498l0.617-0.809l0.775-1.192l0.752-1.327l0.729-1.421l0.695-1.473l0.654-1.474l0.236-0.555l0.162,1.176l0.289,2.087
	l0.307,2.139l0.32,2.127l0.338,2.04l0.352,1.884l0.277,1.271l0.195,0.779l0.207,0.726l0.232,0.668l0.285,0.642l0.422,0.66
	l0.848,0.683l1.127,0.226l0.098-0.013c0.141-0.013,0.279-0.043,0.412-0.089l0.623-0.234l0.975-0.547l0.832-0.698l0.697-0.812
	l0.584-0.903l0.488-0.982l0.404-1.051l0.293-0.982l0.328,0.694l0.43,0.759l0.502,0.697l0.607,0.635l0.746,0.527l0.893,0.352
	l0.836,0.104l0.223-0.008c0.082-0.004,0.16-0.014,0.24-0.026l0.588-0.128l0.883-0.359l0.754-0.514l0.629-0.619l0.521-0.692
	l0.439-0.754l0.373-0.81l0.318-0.863l0.275-0.911l0.238-0.975l0.148-0.782c0.146,0.553,0.324,1.102,0.557,1.645
	c1.191,2.779,5.326,7.293,8.832,6.291c3.291-0.939,4.605-4.48,5.004-8.336l0.338,0.608l0.719,1.188l0.736,1.124l0.758,1.055
	l0.779,0.973l0.814,0.887l0.857,0.783l0.92,0.669l1.006,0.523l1.102,0.322l1.17,0.053l1.143-0.252l1.031-0.523l0.844-0.684
	l0.311-0.326c0.039-0.039,0.076-0.082,0.111-0.127l0.416-0.551l0.572-1.027l0.385-1.089l0.219-1.127l0.074-1.154L1505.998,298.967z"
	/>
</svg>
