<?xml version="1.0" encoding="utf-8"?>
<!-- Generator: Adobe Illustrator 16.0.4, SVG Export Plug-In . SVG Version: 6.00 Build 0)  -->
<!DOCTYPE svg PUBLIC "-//W3C//DTD SVG 1.1//EN" "http://www.w3.org/Graphics/SVG/1.1/DTD/svg11.dtd">
<svg version="1.1" id="Lady_x5F_head" xmlns="http://www.w3.org/2000/svg" xmlns:xlink="http://www.w3.org/1999/xlink" x="0px"
	 y="0px" width="2440.785px" height="984.563px" viewBox="0 0 2440.785 984.563" enable-background="new 0 0 2440.785 984.563"
	 xml:space="preserve">
<g>
	<path fill="#1D1B3A" d="M732.629,115.719c-27.083-21.648-65.509,3.997-79.894,28.447c-23.034,38.692,10.007,73.998,22.553,110.755
		c4.466,13.347-1.891,29.095-17.787,28.384c3.72,9.568,18.124,9.973,27.061,9.237c5.28-0.463,10.739-1.909,15.825-3.953
		c3.893-1.266,11.374-7.473,14.953-7.261c3.681-0.255,7.532,6.227,11.062,9.031c8.016,6.322,17.535,10.362,26.549,14.303
		c9.607,3.54,28.257,5.865,34.741-7.809c-49.438-11.273,16.468-54.526,22.924-65.62c23.136-41.771,18.88-89.953-20.792-114.517
		c-28.855-17.886-59.152-6.583-59.589-2.012"/>
	<g>
		<path fill="#1D1B3A" d="M733.439,114.332c-34.493-26.559-84.262,14.336-89.716,50.205c-3.372,22.174,8.078,43.585,17.596,62.762
			c5.146,10.368,12.249,21.95,13.636,33.606c1.337,11.243-5.808,20.967-17.454,20.793c-1.322-0.02-1.862,1.354-1.387,2.417
			c4.687,10.48,18.642,10.771,28.448,10.032c6.971-0.523,14.288-2.543,20.373-6.023c3.029-1.732,5.883-3.871,9.209-5.017
			c3.58-1.233,7.251,4.512,9.332,6.727c5.159,5.494,12.851,9,19.556,12.16c5.981,2.819,11.784,5.388,18.336,6.455
			c10.63,1.732,22.393-0.486,27.71-10.785c0.459-0.89,0.094-2.108-0.96-2.359c-6.385-1.521-16.013-4.249-17.02-12.047
			c-0.802-6.216,3.818-12.52,7.404-17.117c8.75-11.217,20.192-19.802,30.073-29.922c5.494-5.628,8.346-13.582,11.094-20.807
			c4.044-10.632,6.282-21.942,6.631-33.306c0.659-21.409-7.381-42.119-22.854-56.979c-12.947-12.434-30.102-19.687-48.061-19.771
			c-6.598-0.03-13.394,1.054-19.557,3.431c-2.429,0.937-6.519,2.56-7.142,5.491c-0.429,2.02,2.667,2.879,3.098,0.854
			c0.426-2.005,5.027-3.317,6.577-3.87c5.001-1.786,10.362-2.463,15.641-2.669c14.45-0.563,28.214,4.493,39.885,12.772
			c19.735,14,29.57,36.936,29.202,60.741c-0.187,12.083-3.156,23.995-7.577,35.188c-2.955,7.482-6.17,13.818-11.928,19.34
			c-10.39,9.964-21.816,19.095-30.137,30.982c-3.643,5.205-6.961,11.901-5.012,18.364c2.34,7.76,11.879,10.767,18.831,12.422
			c-0.32-0.786-0.64-1.573-0.96-2.359c-5.63,10.905-18.854,10.907-29.311,8.215c-6.361-1.639-12.572-5.009-18.379-8.017
			c-6.957-3.603-12.022-8.158-17.485-13.612c-2.612-2.606-5.685-3.639-9.156-2.136c-5.976,2.589-10.906,6.36-17.203,8.378
			c-9.959,3.19-30.531,5.592-35.882-6.377c-0.462,0.806-0.924,1.611-1.387,2.417c8.034,0.119,14.729-3.476,18.422-10.707
			c3.954-7.744,2.262-16.282-0.642-24c-8.166-21.705-21.875-41.166-27.251-63.931c-5.674-24.023,5.123-45.644,23.233-61.091
			c16.743-14.282,41.436-22.799,60.556-8.077C733.459,118.369,735.056,115.577,733.439,114.332L733.439,114.332z"/>
	</g>
</g>
<g>
	<path fill="#F4EDE1" d="M702.608,364.678c9.523,1.652,14.865-25.151,24.623-24.197c0.96-7.974,3.636-17.961,8.81-30.709
		c19.298-47.718,106.723-165.643,10.785-179.271c-95.915-13.619-81.689,122.795-56.434,161.111
		C705.982,315.328,709.55,356.861,702.608,364.678z"/>
	<g>
		<path fill="#1B1D3A" d="M702.608,366.284c5.329,0.565,8.77-4.807,11.252-8.705c2.826-4.438,6.965-15.704,13.371-15.492
			c0.958,0.031,1.497-0.762,1.606-1.606c2.422-18.743,10.915-36.128,19.55-52.704c8.05-15.456,16.438-30.732,23.96-46.458
			c7.407-15.485,14.212-31.532,17.965-48.338c2.931-13.128,3.799-27.489-2.163-39.917c-6.49-13.527-20.921-20.109-34.871-23.072
			c-15.45-3.281-32.138-3.077-46.624,3.726c-25.869,12.147-34.513,42.902-36.228,69.139c-1.624,24.856,2.013,51.132,11.034,74.394
			c4.955,12.776,13.172,23.589,17.375,36.763c3.025,9.483,4.808,19.417,5.412,29.346c0.353,5.798,1.213,15.297-2.775,20.185
			c-1.297,1.59,0.961,3.877,2.271,2.271c3.863-4.734,3.846-12.14,3.855-17.917c0.018-10.349-1.814-20.783-4.496-30.747
			c-2.673-9.934-6.808-19.053-12.226-27.764c-2.928-4.71-5.158-9.846-7.096-15.028c-10.149-27.127-13.346-58.674-8.281-87.2
			c2.462-13.865,7.457-27.73,16.787-38.489c9.791-11.29,23.793-16.744,38.501-17.449c16.535-0.793,36.585,2.807,48.663,15.02
			c10.235,10.351,11.03,25.851,8.977,39.446c-4.13,27.337-17.919,53.088-30.58,77.286c-12.834,24.531-28.609,49.535-32.224,77.51
			c0.535-0.535,1.071-1.07,1.606-1.606c-5.453-0.18-8.845,5.136-11.421,9.206c-2.688,4.25-6.935,15.657-13.202,14.991
			C700.549,362.854,700.57,366.067,702.608,366.284z"/>
	</g>
</g>
<g>
	<path fill="#1B1D3A" d="M658.975,177.579c-9.65-8.473,5.429-21.127,9.475-33.219c7.123-21.813,29.009-27.623,49.671-24.89
		l-0.389-0.596c4.911-8.803,12.88-9.748,21.809-7.893c12.411,2.57,35.512,8.394,42.984,19.782
		c8.626,13.174,5.614,32.718,6.614,47.937c0.791,13.619-2.742,20.639,10.51,29.09c-18.14,7.624-48.99-10.689-62.637-22.313
		c-9.294-7.609-31.087-29.724-26.124-43.701C708.626,152.691,669.72,187.033,658.975,177.579z"/>
	<g>
		<path fill="#1B1D3A" d="M660.111,176.443c-6.554-6.384,1.15-15.632,4.814-21.569c4.224-6.844,6.031-14.875,11.059-21.2
			c9.878-12.43,27.429-14.411,42.138-12.597c1.211,0.148,2.001-1.475,1.387-2.417c-0.727-1.113,5.97-5.418,7.466-5.994
			c3.366-1.298,7.264-0.951,10.739-0.404c5.529,0.871,11.043,2.426,16.401,4.01c13.483,3.984,26.544,9.657,30.931,24.062
			c2.159,7.088,2.201,14.76,2.247,22.104c0.045,7.185,0.344,14.365,0.378,21.545c0.022,4.678-0.299,9.385,1.107,13.912
			c1.563,5.031,5.845,8.489,10.062,11.284c0.128-0.979,0.256-1.957,0.384-2.936c-9.667,3.761-20.298,0.765-29.545-2.852
			c-9.886-3.865-19.179-9.566-27.646-15.925c-6.917-5.194-13.132-11.357-18.69-17.968c-5.835-6.938-13.909-17.636-10.905-27.295
			c-1.033-0.284-2.065-0.569-3.098-0.854c-0.968,3.98-4.206,7.479-6.826,10.466c-4.167,4.752-8.895,9.024-13.799,12.997
			c-4.752,3.851-9.876,7.321-15.36,10.043C669.878,176.58,663.699,179.318,660.111,176.443c-1.6-1.281-3.888,0.976-2.271,2.271
			c8.777,7.032,23.385-4.229,30.209-9.343c5.797-4.344,11.205-9.239,16.1-14.576c3.236-3.528,7.124-7.806,8.288-12.593
			c0.49-2.017-2.483-2.829-3.098-0.854c-2.879,9.257,3.024,18.806,8.262,26c5.828,8.006,12.994,15.073,20.704,21.257
			c8.796,7.057,18.772,13.08,29.214,17.349c10.056,4.111,21.956,7.509,32.557,3.385c1.3-0.506,1.609-2.123,0.384-2.936
			c-6.003-3.979-9.258-8.38-9.573-15.64c-0.298-6.874-0.341-13.847-0.382-20.729c-0.084-14.048,1.126-30.383-8.112-42.114
			c-7.576-9.62-22.399-13.557-33.664-16.475c-11.958-3.098-24.94-5.703-32.382,6.618c-0.285,0.472-0.306,1.151,0,1.621
			c0.129,0.198,0.259,0.397,0.389,0.596c0.462-0.806,0.924-1.611,1.387-2.417c-17.073-2.104-35.504,1.305-46.216,15.901
			c-2.528,3.445-3.999,7.404-5.443,11.379c-1.823,5.016-5.24,9.509-7.963,14.056c-3.778,6.31-6.665,13.664-0.659,19.515
			C659.323,180.16,661.596,177.891,660.111,176.443z"/>
	</g>
</g>
<g>
	<g>
		<path fill="#1B1D3A" d="M703.354,200.26c0.194,2.741,0.135,6.768-2.601,8.3c-1.314,0.735-3.013,0.041-3.651-1.656
			c-0.492-1.309-0.348-2.725-0.016-4.052c0.228-0.911,0.589-1.775,1.003-2.616c0.093-0.188,0.105-0.373,0.201-0.455
			c0.06-0.051,0.452-0.362,0.184-0.156c0.89-0.686,1.871-1.318,2.954-1.643C702.943,197.527,703.224,198.945,703.354,200.26
			c0.204,2.041,3.417,2.061,3.212,0c-0.23-2.307-1.007-5.028-3.641-5.512c-1.904-0.349-3.798,0.559-5.348,1.583
			c-1.652,1.092-2.277,2.178-3.05,4.05c-0.875,2.119-1.201,4.491-0.71,6.74c0.734,3.367,4.114,5.703,7.494,4.665
			c4.699-1.443,5.549-7.371,5.254-11.526C706.421,198.206,703.208,198.191,703.354,200.26z"/>
	</g>
</g>
<g>
	<g>
		<path fill="#1B1D3A" d="M740.914,206.968c0.138,3.087-0.035,7.621-3.089,9.402c-1.595,0.931-3.285,0.02-3.906-1.923
			c-0.467-1.462-0.23-3.046,0.154-4.495c0.358-1.356,0.796-2.981,1.886-3.868c0.767-0.625,1.918-1.372,2.998-1.709
			C740.63,203.853,740.814,205.629,740.914,206.968c0.152,2.053,3.365,2.067,3.212,0c-0.177-2.385-0.884-5.297-3.618-5.835
			c-2.055-0.404-4.119,0.707-5.742,1.854c-1.71,1.209-2.364,2.355-3.189,4.346c-0.979,2.36-1.396,4.993-0.875,7.512
			c0.729,3.527,4.306,6.05,7.827,4.715c4.881-1.85,5.798-8.062,5.596-12.592C744.034,204.905,740.821,204.896,740.914,206.968z"/>
	</g>
</g>
<g>
	<g>
		<path fill="#1B1D3A" d="M715.773,207.011c0.114,9.353-8.983,12.461-14.459,18.401c-0.726,0.788-0.561,1.94,0.325,2.522
			c4.248,2.793,9.447,4.295,14.359,2.43c1.917-0.729,1.086-3.834-0.854-3.098c-4.176,1.586-8.291,0.258-11.885-2.105
			c0.108,0.841,0.217,1.682,0.325,2.522c6.251-6.781,15.53-10.02,15.399-20.673C718.959,204.941,715.748,204.938,715.773,207.011
			L715.773,207.011z"/>
	</g>
</g>
<g>
	<g>
		<path fill="#1B1D3A" d="M748.884,204.718c-1.573,1.343-3.514,2.235-5.599,2.279c-2.068,0.042-2.072,3.254,0,3.211
			c2.971-0.061,5.635-1.312,7.87-3.219C752.734,205.643,750.451,203.382,748.884,204.718L748.884,204.718z"/>
	</g>
</g>
<g>
	<g>
		<path fill="#1B1D3A" d="M693.843,197.527c-0.16,0.726,1.555-1.212,2.276-0.587c-0.076-0.066-0.326-0.395-0.062-0.044
			c-0.219-0.291-0.408-0.605-0.598-0.915c-0.415-0.677-0.801-1.373-1.252-2.027c-0.495-0.72-1.4-1.043-2.197-0.576
			c-0.713,0.418-1.073,1.475-0.576,2.197c0.657,0.955,1.172,2.001,1.85,2.942c0.402,0.559,0.803,1.003,1.472,1.233
			c0.97,0.335,1.979-0.441,2.184-1.37c0.188-0.854-0.246-1.734-1.122-1.976C695.009,196.183,694.032,196.672,693.843,197.527
			L693.843,197.527z"/>
	</g>
</g>
<g>
	<path fill="#DC4832" d="M769.342,240.646c8.621,5.991,6.331,21.315-4.62,16.271c-3.318-1.473-7.612-5.807-5.999-10.92
		c1.245-5.177,7.757-5.386,11.454-6.101"/>
	<g>
		<path fill="#1B1D3A" d="M768.531,242.033c2.738,2.033,4.306,5.116,4.459,8.506c0.139,3.063-1.432,5.842-4.73,5.758
			c-5.183-0.133-9.813-6.107-7.592-10.965c1.495-3.27,6.927-3.344,9.935-3.887c2.036-0.368,1.171-3.463-0.854-3.098
			c-5.711,1.032-11.255,1.791-12.821,8.234c-1.509,6.207,4.754,11.72,10.257,12.796c4.567,0.895,8.038-2.29,8.841-6.604
			c0.978-5.254-1.732-10.439-5.875-13.515C768.487,238.023,766.888,240.813,768.531,242.033L768.531,242.033z"/>
	</g>
</g>
</svg>
