<?xml version="1.0" encoding="utf-8"?>
<!-- Generator: Adobe Illustrator 16.0.4, SVG Export Plug-In . SVG Version: 6.00 Build 0)  -->
<!DOCTYPE svg PUBLIC "-//W3C//DTD SVG 1.1//EN" "http://www.w3.org/Graphics/SVG/1.1/DTD/svg11.dtd">
<svg version="1.1" id="Lady_x5F_body" xmlns="http://www.w3.org/2000/svg" xmlns:xlink="http://www.w3.org/1999/xlink" x="0px"
	 y="0px" width="2440.785px" height="984.563px" viewBox="0 0 2440.785 984.563" enable-background="new 0 0 2440.785 984.563"
	 xml:space="preserve">
<g>
	<g>
		<path fill="#F4EDE1" d="M567.638,502.635c22.65-0.36,42.896,21.641,49.794,22.369c11.496,1.46,17.076-18.774,35.053-19.854
			l10.066-9.707"/>
		<g>
			<path fill="#1B1D3A" d="M567.638,504.241c13.553,0.059,25.328,7.241,36.169,14.656c5.519,3.775,11.98,9.994,19.159,6.868
				c8.652-3.768,13.486-13.08,22.114-17.204c2.455-1.173,6.053-0.758,8.215-2.024c0.871-0.51,1.607-1.488,2.321-2.176
				c2.69-2.594,5.38-5.188,8.07-7.782c1.493-1.44-0.781-3.709-2.271-2.271c-2.265,2.185-4.531,4.369-6.796,6.555
				c-1.068,1.029-2.135,2.059-3.203,3.089c-0.227,0.219-5.453,0.84-6.511,1.228c-8.919,3.263-13.738,11.679-21.375,16.696
				c-7.453,4.896-16.279-4.591-22.13-8.465c-10.117-6.697-21.38-12.327-33.762-12.382
				C565.566,501.02,565.567,504.231,567.638,504.241L567.638,504.241z"/>
		</g>
	</g>
	<g>
		<path fill="#FFFFFF" d="M656.882,482.917c0,0-88.231-20.131-99.068-22.778l-101.467,37.713c0,0,85.725,46.439,90.67,47.211
			C551.961,545.838,647.418,482.974,656.882,482.917z"/>
		<g>
			<path fill="#1D1B3A" d="M657.309,481.368c-25.76-5.877-51.518-11.764-77.266-17.698c-5.916-1.363-11.832-2.728-17.742-4.114
				c-2.433-0.57-4.148-1.25-6.483-0.383c-10.435,3.879-20.87,7.757-31.304,11.636c-22.865,8.498-45.729,16.996-68.594,25.494
				c-1.224,0.455-1.702,2.222-0.384,2.936c22.115,11.979,44.279,23.877,66.595,35.476c5.634,2.929,11.279,5.841,16.984,8.629
				c2.354,1.15,5.307,3.133,7.996,3.333c2.396,0.178,5.627-2.214,7.593-3.275c5.185-2.802,10.247-5.838,15.305-8.859
				c17.181-10.263,34.164-20.851,51.346-31.11c7.479-4.465,14.987-8.89,22.64-13.052c3.555-1.934,8.77-5.683,12.886-5.856
				c2.063-0.087,2.072-3.299,0-3.211c-3.037,0.128-6.151,1.998-8.798,3.309c-5.516,2.729-10.863,5.809-16.191,8.884
				c-14.517,8.378-28.79,17.179-43.1,25.903c-11.812,7.202-23.558,14.6-35.71,21.22c-1.503,0.818-3.021,1.616-4.58,2.325
				c-1.165,0.529-1.277,0.52-1.639,0.399c-3.711-1.235-7.261-3.324-10.742-5.071c-26.611-13.358-52.785-27.635-78.964-41.815
				c-0.128,0.979-0.256,1.957-0.384,2.936c22.57-8.389,45.141-16.778,67.711-25.167c10.641-3.955,21.282-7.91,31.923-11.865
				c0.607-0.226,1.214-0.451,1.822-0.677c-0.989,0.368,0.296,0.271,1.029,0.445c1.07,0.254,2.142,0.505,3.213,0.756
				c6.167,1.445,12.34,2.866,18.513,4.288c25.149,5.795,50.309,11.544,75.471,17.285
				C658.472,484.926,659.328,481.829,657.309,481.368z"/>
		</g>
	</g>
	<g>
		<path fill="#FFFFFF" d="M658.949,482.961c0,0-86.132-23.77-96.833-26.975l-103.829,31.516c0,0,81.9,51.418,86.803,52.446
			C549.993,540.978,649.494,482.527,658.949,482.961z"/>
		<g>
			<path fill="#1D1B3A" d="M659.376,481.412c-25.38-7.004-50.757-14.021-76.115-21.107c-5.725-1.6-11.449-3.2-17.164-4.834
				c-2.474-0.708-3.873-1.195-6.284-0.464c-10.889,3.306-21.777,6.61-32.666,9.915c-23.096,7.011-46.191,14.021-69.287,21.031
				c-1.349,0.409-1.57,2.19-0.384,2.936c21.304,13.374,42.664,26.669,64.208,39.652c5.358,3.229,10.729,6.443,16.173,9.525
				c1.999,1.132,5.005,3.495,7.438,3.5c2.646,0.005,5.743-2.024,8.029-3.12c5.357-2.569,10.608-5.365,15.855-8.149
				c17.943-9.521,35.708-19.376,53.661-28.88c7.632-4.041,15.293-8.039,23.083-11.77c3.637-1.741,8.827-5.121,13.026-5.08
				c2.072,0.02,2.07-3.192,0-3.213c-3-0.028-6.182,1.706-8.854,2.861c-5.593,2.417-11.038,5.189-16.463,7.958
				c-14.863,7.586-29.503,15.607-44.173,23.558c-12.345,6.689-24.636,13.55-37.262,19.702c-1.67,0.813-6.24,3.113-6.925,2.896
				c-3.263-1.035-6.587-3.472-9.568-5.201c-25.907-15.027-51.244-31.091-76.607-47.013c-0.128,0.979-0.256,1.957-0.384,2.936
				c23.096-7.011,46.192-14.021,69.288-21.031c10.889-3.305,21.777-6.61,32.666-9.915c0.622-0.188,1.243-0.377,1.864-0.566
				c-1.072,0.326,0.35,0.349,1.018,0.542c1.061,0.308,2.124,0.61,3.186,0.913c6.1,1.738,12.209,3.441,18.317,5.147
				c24.478,6.835,48.973,13.608,73.471,20.369C660.522,485.062,661.37,481.963,659.376,481.412z"/>
		</g>
	</g>
	<g>
		<path fill="#FFFFFF" d="M659.754,480.396c0,0-84.313-26.628-94.888-30.277l-105.527,26.422c0,0,78.646,55.294,83.506,56.528
			C547.707,534.302,650.324,479.567,659.754,480.396z"/>
		<g>
			<path fill="#1D1B3A" d="M660.181,478.848c-25.283-7.985-50.562-15.984-75.812-24.074c-5.472-1.754-10.944-3.506-16.401-5.306
				c-2.497-0.823-3.556-0.891-6.015-0.274c-11.368,2.846-22.736,5.692-34.104,8.539c-22.979,5.753-45.958,11.507-68.937,17.26
				c-1.446,0.362-1.461,2.178-0.384,2.936c20.627,14.501,41.315,28.926,62.217,43.027c5.118,3.453,10.248,6.893,15.466,10.191
				c1.788,1.13,4.675,3.646,6.968,3.543c2.862-0.129,5.93-1.914,8.489-3.024c5.536-2.401,10.979-5.021,16.417-7.631
				c18.371-8.817,36.584-17.961,54.97-26.747c7.78-3.718,15.587-7.393,23.512-10.794c3.689-1.583,9.007-4.706,13.185-4.49
				c2.071,0.106,2.061-3.106,0-3.213c-3.011-0.154-6.353,1.505-9.072,2.564c-5.617,2.188-11.114,4.695-16.59,7.212
				c-15.171,6.973-30.137,14.391-45.129,21.738c-12.732,6.24-25.419,12.642-38.398,18.361c-1.714,0.756-3.441,1.485-5.2,2.133
				c-0.802,0.296-2.398,0.631-2.203,0.688c-2.851-0.853-6.28-3.705-8.911-5.411c-25.134-16.301-49.596-33.695-74.1-50.922
				c-0.128,0.979-0.256,1.957-0.384,2.936c23.286-5.831,46.572-11.661,69.858-17.491c11.165-2.795,22.329-5.591,33.493-8.386
				c0.71-0.178,1.419-0.355,2.129-0.533c-1.018,0.255,0.055,0.282,0.689,0.494c1.015,0.34,2.033,0.673,3.05,1.007
				c5.989,1.961,11.993,3.879,17.996,5.8c24.097,7.711,48.219,15.345,72.345,22.965C661.308,482.57,662.148,479.47,660.181,478.848z
				"/>
		</g>
	</g>
	<g>
		<path fill="#F4EDE1" d="M650.054,494.888c-9.18,1.968-13.639-9.325-24.148-10.374c-10.509-1.047-19.546,0.667-30.055-1.428
			c-0.583,12.043,19.546,12.424,28.304,12.947c1.751,5.236-1.751,10.472-7.59,10.472"/>
		<g>
			<path fill="#1B1D3A" d="M649.627,493.339c-7.317,1.163-13.231-7.032-19.616-9.546c-4.491-1.769-10.103-1.274-14.812-1.251
				c-6.369,0.032-12.623,0.13-18.922-1.005c-1.015-0.183-2.031,0.434-2.033,1.549c-0.02,14.003,20.086,13.987,29.91,14.554
				c-0.516-0.394-1.032-0.786-1.549-1.18c1.136,4.497-1.31,8.083-6.041,8.439c-2.052,0.154-2.067,3.367,0,3.211
				c6.794-0.511,10.83-5.809,9.139-12.504c-0.182-0.721-0.842-1.139-1.549-1.18c-7.792-0.448-26.714,0.004-26.698-11.341
				c-0.678,0.517-1.355,1.032-2.033,1.549c5.419,0.977,10.817,1.195,16.317,1.156c6.29-0.045,13.395-0.863,19.232,1.886
				c6.852,3.229,11.138,10.09,19.507,8.76C652.522,496.112,651.653,493.018,649.627,493.339L649.627,493.339z"/>
		</g>
	</g>
	<g>
		<path fill="#1D1B3A" d="M663.879,498.425c-4.789,26.438-7.122,52.28-2.142,78.544c3.644,20.689,11.695,39.962,14.126,61.125
			c0.905,8.562,4.106,18.199,3.453,26.718l0.071,3.079c10.954,1.375,62.095,5.734,73.162,3.092c0,0-8.033-25.104-9.033-90.418
			c-0.698-45.575,2.088-63.222-10.245-81.556"/>
		<g>
			<path fill="#1D1B3A" d="M662.33,497.998c-5.29,29.564-6.987,58.957-0.28,88.444c3.271,14.379,8.059,28.357,10.859,42.854
				c2.452,12.695,4.576,25.695,4.872,38.595c0.022,0.957,0.721,1.497,1.606,1.606c12.32,1.518,24.757,2.346,37.144,3.088
				c11.665,0.699,24.894,2.491,36.445-0.054c0.832-0.184,1.376-1.173,1.122-1.976c-1.512-4.764-2.341-9.799-3.188-14.709
				c-2.937-17.032-4.232-34.353-5.065-51.599c-1.105-22.88-0.296-45.778-1.146-68.655c-0.494-13.288-2.587-26.123-10.042-37.395
				c-1.137-1.719-3.92-0.112-2.773,1.621c7.863,11.889,9.328,25.353,9.718,39.294c0.639,22.812,0.036,45.614,1.195,68.423
				c0.823,16.198,2.232,32.419,4.892,48.428c0.856,5.153,1.727,10.45,3.312,15.445c0.374-0.658,0.748-1.316,1.122-1.976
				c-4.812,1.061-10.009,0.809-14.901,0.76c-7.306-0.073-14.609-0.456-21.901-0.893c-11.982-0.719-24.015-1.548-35.933-3.017
				c0.535,0.536,1.071,1.071,1.606,1.606c-0.589-25.608-7.567-50.518-14.074-75.155c-8.261-31.28-7.149-62.262-1.492-93.884
				C665.79,496.827,662.695,495.961,662.33,497.998L662.33,497.998z"/>
		</g>
	</g>
	<g>
		<path fill="#DC4832" d="M737.11,360.203c-4.839-18.787-4.035-26.088-4.035-26.088s-9.141,3.557-21.995,3.062
			c-12.839-0.512-19.077-3.656-19.077-3.656s-5.238,25.779-18.835,49.579c-1.113,4.141-4.179,17.477-1.632,24.437
			c4.216,11.572,14.918,17.609,14.547,38.63c-0.283,17.826-27.195,42.037-20.987,53.187c4.265,7.67,81.861,19.477,69.226-15.38
			c-14.06-38.806,6.848-84.543,6.848-84.543S738.233,364.395,737.11,360.203z"/>
		<g>
			<path fill="#1D1B3A" d="M738.659,359.776c-2.023-7.999-4.815-17.27-3.978-25.661c0.099-0.987-1.11-1.898-2.033-1.549
				c-6.236,2.366-13.149,3.025-19.758,3.049c-6.423,0.023-14.161-0.593-20.077-3.48c-0.873-0.426-2.137-0.122-2.359,0.96
				c-1.387,6.739-3.443,13.366-5.645,19.875c-2.255,6.665-4.927,13.18-7.924,19.544c-2.52,5.352-5.333,9.792-6.522,15.598
				c-1.946,9.499-2.118,18.003,2.852,26.51c5.457,9.341,10.586,16.929,11.225,28.178c0.614,10.815-5.559,20.157-11.023,28.997
				c-4.292,6.944-9.816,14.375-10.81,22.706c-1.229,10.292,13.914,11.776,20.971,12.996c12.983,2.242,27.533,3.174,40.244-0.941
				c4.747-1.537,9.303-4.224,11.826-8.657c3.206-5.635,1.021-11.785-0.814-17.43c-7.378-22.688-3.395-48.231,3.985-70.392
				c0.895-2.686,1.88-5.342,2.942-7.965c0.314-0.775,1.077-1.957,1.004-2.829c-0.517-6.143-1.068-12.283-1.646-18.422
				C740.465,373.938,740.305,366.561,738.659,359.776c-0.488-2.013-3.585-1.159-3.098,0.854c1.579,6.506,1.713,13.591,2.344,20.232
				c0.583,6.138,1.128,12.279,1.646,18.422c-0.009-0.106,0.413-1.087-0.024-0.085c-0.298,0.683-0.583,1.371-0.865,2.06
				c-1.192,2.907-2.245,5.871-3.237,8.852c-3.176,9.537-5.352,19.375-6.634,29.34c-1.596,12.396-1.217,25.036,1.646,37.217
				c1.629,6.931,6.216,14.358,1.519,21.061c-3.333,4.757-10.244,6.393-15.585,7.352c-7.083,1.271-14.451,1.133-21.598,0.594
				c-6.597-0.498-13.188-1.551-19.577-3.279c-3.632-0.982-9.006-1.924-9.41-6.39c-0.351-3.882,1.925-7.969,3.658-11.27
				c2.431-4.63,5.334-9.015,8.071-13.466c4.667-7.593,9.787-15.951,10.175-25.102c0.438-10.327-3.005-19.553-8.488-28.103
				c-2.269-3.538-4.6-7.011-6.116-10.954c-2.117-5.505-0.691-12.571,0.375-18.145c1.148-6.001,4.378-10.966,6.961-16.452
				c2.859-6.072,5.289-12.351,7.484-18.69c2.246-6.484,4.26-13.145,5.646-19.875c-0.787,0.32-1.573,0.64-2.359,0.96
				c6.023,2.94,13.314,3.54,19.887,3.876c7.338,0.374,15.494-0.491,22.422-3.12c-0.677-0.517-1.355-1.032-2.033-1.549
				c-0.861,8.635,2.016,18.302,4.092,26.515C736.069,362.637,739.167,361.785,738.659,359.776z"/>
		</g>
	</g>
	<g>
		<path fill="#1D1B3A" d="M680.075,666.125c7.708,8.926,13.343,127.249,3.515,156.313c-9.617,28.363-41.267,36.995-52.626,39.247
			c-20.13,4.02,4.493,28.111,39.363-0.031c14.041-11.34,18.978-17.312,18.978-17.312l-2.715,22.326l9.6-0.171
			c0,0,8.123-28.73,6.416-32.475c-1.735-3.749-9.636-11.667-9.636-11.667s12.334-50.149,14.757-81.789
			c1.885-24.2-14.803-84.823-14.803-84.823"/>
		<g>
			<path fill="#1D1B3A" d="M678.939,667.261c2.004,2.482,2.337,7.125,2.888,10.115c1.234,6.706,1.95,13.51,2.596,20.293
				c1.732,18.166,2.493,36.439,2.742,54.682c0.238,17.448,0.046,35.019-1.836,52.382c-0.629,5.806-1.454,11.715-3.288,17.279
				c-3.613,10.964-11.53,19.726-20.992,26.055c-9.494,6.352-20.325,9.816-31.372,12.261c-6.682,1.479-10.524,8.207-4.037,12.872
				c9.792,7.042,24.058,2.63,33.671-2.276c8.538-4.358,15.936-11.007,23.006-17.384c2.812-2.536,5.686-5.147,8.122-8.061
				c-0.914-0.379-1.828-0.757-2.742-1.136c-0.905,7.442-1.81,14.884-2.715,22.326c-0.104,0.86,0.81,1.62,1.606,1.605
				c3.2-0.057,6.4-0.113,9.6-0.17c0.72-0.014,1.352-0.481,1.549-1.18c1.624-5.758,3.105-11.561,4.442-17.392
				c1.19-5.188,4.023-12.846,0.965-17.797c-2.126-3.442-5.132-6.448-7.912-9.357c-1.588-1.662-0.513-0.428-0.663,0.186
				c0.171-0.702,0.34-1.405,0.508-2.109c1.727-7.23,3.337-14.489,4.879-21.761c2.37-11.176,4.517-22.401,6.329-33.683
				c1.554-9.672,3.24-19.621,3.188-29.441c-0.097-18.513-4.639-37.309-8.76-55.255c-1.922-8.368-3.968-16.719-6.243-24.998
				c-0.548-1.995-3.647-1.146-3.098,0.854c3.291,11.976,6.149,24.084,8.727,36.23c3.908,18.409,7.354,36.928,5.293,55.765
				c-2.363,21.603-6.904,43.028-11.727,64.198c-0.416,1.827-3.556,9.394-1.835,11.128c2.403,2.421,4.699,4.948,6.863,7.585
				c2.856,3.481,2.676,5.539,1.969,9.826c-1.399,8.49-3.691,16.893-6.025,25.168c0.517-0.394,1.033-0.786,1.549-1.18
				c-3.2,0.058-6.4,0.114-9.6,0.172c0.535,0.535,1.071,1.07,1.606,1.605c0.905-7.442,1.81-14.884,2.715-22.326
				c0.167-1.371-1.886-2.159-2.742-1.136c-4.303,5.148-9.671,9.546-14.772,13.853c-10.105,8.531-21.916,16.506-35.659,16.44
				c-2.764-0.013-16.609-2.998-11.358-8.195c1.969-1.949,5.458-2.132,8.026-2.722c3.539-0.812,7.018-1.863,10.444-3.06
				c17.942-6.269,33.773-18.296,40.291-36.658c4.433-12.491,4.421-27.219,4.927-40.286c0.954-24.643,0.252-49.415-1.524-74.005
				c-0.693-9.604-1.586-19.216-3.06-28.735c-0.718-4.642-1.185-11.025-4.271-14.85C679.909,663.377,677.651,665.665,678.939,667.261
				L678.939,667.261z"/>
		</g>
	</g>
	<g>
		<path fill="#1D1B3A" d="M725.863,661.861c0,0,16.116,73.686,20.453,95.468c4.338,21.775,24.99,73.481,19.234,79.105
			c-5.75,5.635,0.728,34.505,0.728,34.505s6.074,2.645,9.342,3.068c2.091,0.275-0.275-14.411,0.751-11.916
			c10.11,24.425,30.178,44.613,43.837,42.5c32.054-4.974-24.133-28.481-43.318-69.119c-6.134-12.994-25.199-145.227-24.341-164.49"
			/>
		<g>
			<path fill="#1D1B3A" d="M724.314,662.288c6.216,28.422,12.426,56.848,18.374,85.327c3.458,16.556,8.226,32.506,13.283,48.646
				c2.813,8.978,5.647,17.986,7.696,27.176c0.67,3.007,1.248,6.069,1.282,9.157c0.027,2.418-1.438,3.29-2.204,5.43
				c-3.562,9.955-0.228,23.288,1.975,33.3c0.337,1.534,3.445,2.109,4.577,2.539c1.966,0.747,6.028,2.902,7.909,1.034
				c1.245-1.236,0.93-3.97,0.898-5.514c-0.029-1.419-0.144-2.839-0.243-4.254c-0.045-0.649,0.065-3.32-0.298-2.51
				c-0.732,0.192-1.465,0.384-2.197,0.576c-1.308-0.837,0.853,2.551,0.935,2.736c0.668,1.504,1.41,2.975,2.151,4.444
				c1.461,2.898,3.127,5.688,4.857,8.433c3.312,5.254,7.219,10.149,11.52,14.623c5.989,6.229,13.833,12.264,22.749,12.904
				c4.142,0.298,11.136-1.09,13.355-5.119c1.987-3.607-1.351-7.768-3.521-10.377c-4.901-5.893-11.014-10.855-16.617-16.051
				c-7.468-6.926-14.683-14.12-21.071-22.067c-4.826-6.006-10.005-13.017-12.292-20.474c-1.365-4.449-2.271-9.057-3.2-13.611
				c-5.509-27.008-9.408-54.394-13.169-81.689c-1.889-13.713-3.654-27.447-5.135-41.211c-0.876-8.143-2.086-16.543-1.772-24.755
				c0.079-2.072-3.133-2.064-3.212,0c-0.403,10.525,1.359,21.35,2.553,31.772c1.973,17.233,4.318,34.425,6.811,51.59
				c2.501,17.22,5.178,34.42,8.247,51.549c1.734,9.681,2.88,20.396,6.602,29.583c5.32,13.134,15.862,24.487,25.766,34.327
				c8.294,8.241,18.605,15.492,25.535,24.984c1.733,2.375,2.827,4.822-0.192,6.493c-5.538,3.064-12.114,1.86-17.427-0.908
				c-7.763-4.044-14.011-11.083-19.182-17.986c-2.879-3.845-5.374-7.967-7.67-12.18c-1.313-2.409-2.469-4.899-3.582-7.405
				c-0.406-0.915-0.558-1.829-1.417-2.379c-0.679-0.435-1.849-0.201-2.197,0.576c-0.842,1.88-0.093,4.683,0.026,6.653
				c0.097,1.604,0.224,3.287-0.015,4.884c0.065-0.435-5.577-2.12-6.694-2.562c-1.291-0.512-0.127,1.274-0.493-0.459
				c-0.24-1.136-0.459-2.275-0.674-3.416c-0.808-4.29-1.435-8.61-1.845-12.956c-0.378-4.01-0.593-8.181,0.139-12.161
				c0.431-2.343,2.217-3.749,2.711-6.003c1.247-5.696-1.168-12.708-2.568-18.146c-4.834-18.777-11.904-36.918-16.572-55.74
				c-3.808-15.355-6.54-31.055-9.866-46.523c-3.81-17.719-7.655-35.43-11.526-53.135
				C726.969,659.411,723.873,660.27,724.314,662.288L724.314,662.288z"/>
		</g>
	</g>
	<g>
		<path fill="#DC4832" d="M730.546,345.501c0,0,59.511,99.947,25.694,136.179s-110.995,29.163-110.995,29.163l-3.06-19.452
			c0,0,79.006-3.234,93.5-22.558c20.396-27.195-15.94-89.027-15.94-89.027"/>
		<g>
			<path fill="#1D1B3A" d="M729.159,346.312c12.6,21.199,22.951,44.395,29.924,68.029c4.735,16.047,8.339,33.98,4.241,50.552
				c-4.529,18.312-22.614,28.883-39.12,35.08c-24.458,9.185-52.979,11.609-78.959,9.265c0.516,0.393,1.032,0.785,1.549,1.179
				c-1.02-6.484-2.04-12.968-3.06-19.452c-0.517,0.678-1.033,1.355-1.549,2.033c9.863-0.41,19.723-1.329,29.526-2.468
				c16.692-1.938,33.876-4.454,49.614-10.579c5.503-2.141,11.242-4.928,15.129-9.514c4.822-5.69,6.548-13.429,6.983-20.687
				c1.05-17.485-5.589-35.358-12.474-51.108c-2.926-6.692-6.137-13.339-9.833-19.646c-1.046-1.785-3.823-0.17-2.773,1.621
				c5.717,9.759,10.417,20.234,14.346,30.822c5.942,16.013,12.192,37.249,3.631,53.425c-3.286,6.209-9.587,9.464-15.864,11.99
				c-7.755,3.121-16.001,5.038-24.177,6.677c-15.399,3.089-31.102,4.761-46.761,5.831c-2.448,0.167-4.898,0.321-7.349,0.423
				c-1.127,0.047-1.714,0.984-1.549,2.033c1.02,6.484,2.04,12.969,3.06,19.452c0.116,0.739,0.893,1.12,1.549,1.179
				c27.455,2.479,57.522-0.427,83.162-10.676c15.13-6.048,30.773-16.008,36.735-31.879c5.561-14.805,3.022-32.036-0.466-46.997
				c-6.354-27.249-18.458-54.173-32.743-78.206C730.875,342.912,728.098,344.526,729.159,346.312L729.159,346.312z"/>
		</g>
	</g>
	<g>
		<g>
			<path fill="#1D1B3A" d="M498.932,477.712c1.184,2.865,4.89,4.949,7.237,6.739c5.753,4.386,11.724,8.493,17.682,12.596
				c9.396,6.47,18.908,12.766,28.407,19.084c1.73,1.15,3.336-1.633,1.621-2.773c-8.621-5.734-17.25-11.455-25.799-17.296
				c-5.737-3.92-11.446-7.882-17.057-11.979c-2.245-1.639-7.98-4.772-8.993-7.225C501.25,474.972,498.141,475.798,498.932,477.712
				L498.932,477.712z"/>
		</g>
	</g>
	<g>
		<g>
			<path fill="#1D1B3A" d="M518.971,471.52c2.464,2.266,5.587,4.013,8.341,5.887c5.728,3.898,11.485,7.754,17.237,11.616
				c5.884,3.951,11.771,7.897,17.637,11.874c2.951,2.001,6.376,3.858,9.011,6.281c1.521,1.399,3.799-0.866,2.271-2.271
				c-2.464-2.266-5.587-4.013-8.341-5.887c-5.728-3.898-11.485-7.754-17.237-11.616c-5.884-3.951-11.771-7.897-17.637-11.874
				c-2.951-2.001-6.376-3.858-9.011-6.281C519.721,467.849,517.443,470.114,518.971,471.52L518.971,471.52z"/>
		</g>
	</g>
	<g>
		<g>
			<path fill="#1D1B3A" d="M537.81,465.334c2.16,1.962,4.937,3.424,7.375,4.994c5.352,3.445,10.747,6.824,16.144,10.197
				c8.022,5.015,15.966,10.554,24.351,14.955c1.832,0.962,3.456-1.811,1.621-2.773c-8.079-4.24-15.729-9.575-23.463-14.4
				c-5.242-3.271-10.474-6.558-15.679-9.885c-2.615-1.672-5.827-3.314-8.077-5.359C538.552,461.673,536.274,463.938,537.81,465.334
				L537.81,465.334z"/>
		</g>
	</g>
	<g>
		<g>
			<path fill="#1D1B3A" d="M556.872,460.695c14.27,6.94,29.288,12.325,43.558,19.266c1.854,0.901,3.483-1.867,1.621-2.773
				c-14.27-6.94-29.288-12.325-43.558-19.266C556.638,457.021,555.009,459.789,556.872,460.695L556.872,460.695z"/>
		</g>
	</g>
</g>
</svg>
