<?xml version="1.0" encoding="utf-8"?>
<!-- Generator: Adobe Illustrator 16.0.4, SVG Export Plug-In . SVG Version: 6.00 Build 0)  -->
<!DOCTYPE svg PUBLIC "-//W3C//DTD SVG 1.1//EN" "http://www.w3.org/Graphics/SVG/1.1/DTD/svg11.dtd">
<svg version="1.1" id="char2" xmlns="http://www.w3.org/2000/svg" xmlns:xlink="http://www.w3.org/1999/xlink" x="0px" y="0px"
	 width="2440.785px" height="984.563px" viewBox="0 0 2440.785 984.563" enable-background="new 0 0 2440.785 984.563"
	 xml:space="preserve">
<g>
	<path fill="#FFFFFF" d="M1547.646,521.001c0,0,1.645,2.593,3.658,7.186C1547.39,525.083,1547.646,521.001,1547.646,521.001z"/>
	<path fill="#FFFFFF" d="M1448.794,613.445l-7.332,1.657C1436.777,609.14,1448.794,613.445,1448.794,613.445z"/>
	<path fill="#FFFFFF" d="M1455.951,625.243c-27.639-3.172-31.684-1.037-40.324-4.53c-16.312-2.72-30.275-1.888-46.67-12.687
		c-10.424-6.867-8.607-18.578-7.412-48.157c0.006-0.134-0.236-0.125-0.354-0.19c-0.432-3.444-0.568-6.456-0.289-8.768
		c12.896-106.388,29.863-224.049,29.863-224.049l89.658,31.358l32.258-7.553l2.178,10.692l-8.521,31.515l22.092,45.441
		c0.064,0.279,0.119,0.566,0.189,0.842c7.186,26.687,17.449,50.294,21.557,78.007c0.607,4.271,1.588,8.905,3.355,13.472
		c-1.477-0.563-2.65-1.252-3.588-1.998c-2.012-4.592-3.656-7.184-3.656-7.184s-0.258,4.08,3.656,7.184
		c3.629,8.287,8.453,23.108,7.018,41.166c-2.236,28.075-5.145,37.682-5.145,37.682s-48.479,15.705-80.559,17.914
		C1471.558,623.994,1457.96,625.475,1455.951,625.243z"/>
	<path fill="#F4EDE1" d="M1485.205,376.376l22.279-20.364c0,0-3.5-160.388-6.016-167.821c-2.514-7.434-10.398-33.743-33.852-49.458
		c-12.494-8.373-38.279-18.786-44.07-9.705c-5.793,9.08-16.635,77.772-16.635,77.772s-11.91-11.153-23.049,8.293
		c-11.139,19.448,1.824,33.918,6.707,34.587c4.881,0.666,10.365-0.152,10.365-0.152l-4.445,75.21L1485.205,376.376z"/>
	<path fill="#1D1B3A" d="M1490.074,367.327c0,3.995,0,7.99,0,11.987c0,39.388-19.766-11.754-19.51-11.987
		c2.691-2.509,18.189-0.194,22.416-0.194"/>
	<path fill="#1D1B3A" d="M1491.955,367.327v5.992v5.995v0.007l-0.002,0.906l-0.027,1.739l-0.059,1.623l-0.086,1.503l-0.111,1.389
		l-0.139,1.276l-0.164,1.169l-0.191,1.067l-0.219,0.972l-0.25,0.882l-0.281,0.8l-0.32,0.724l-0.367,0.656l-0.428,0.589l-0.506,0.522
		l-0.598,0.438l-0.691,0.319l-0.754,0.171l-0.762,0.008l-0.727-0.137l-0.672-0.244l-0.619-0.325l-0.82-0.575l-1.045-0.956
		l-1.021-1.148l-0.992-1.298l-0.975-1.43l-0.961-1.541l-0.949-1.633l-1.377-2.562l-1.744-3.521l-1.213-2.618l-0.75-1.685
		l-0.689-1.597l-0.625-1.494l-0.557-1.36l-0.479-1.207l-0.305-0.788l-0.178-0.468l-0.152-0.412l-0.129-0.357l-0.104-0.306
		l-0.082-0.251l-0.062-0.209l-0.055-0.239l-0.014-0.674c0.07-0.45,0.301-0.859,0.646-1.153l0.137-0.114l0.523-0.353l0.619-0.305
		l0.637-0.229l0.658-0.174l0.684-0.136l1.061-0.144l1.533-0.113l1.654-0.041l1.736,0.018l1.787,0.067l2.707,0.16l2.658,0.202
		l1.686,0.143l1.568,0.132l1.418,0.115l1.229,0.085l0.764,0.039l0.416,0.01l0.168,0.002c1.039,0.009,1.875,0.857,1.867,1.896
		c-0.008,1.039-0.857,1.876-1.896,1.866l0,0l-0.242-0.002l-0.504-0.015l-0.836-0.044l-1.27-0.089l-1.432-0.114l-1.564-0.133
		l-1.656-0.14l-2.596-0.198l-2.625-0.156l-1.689-0.063l-1.604-0.021l-1.473,0.031l-1.312,0.092l-0.842,0.108l-0.461,0.085
		l-0.377,0.091l-0.277,0.086l-0.17,0.057l-0.125,0.063l-0.135,0.114l0.646-1.153l-0.018-0.646l-0.021-0.07l0.027,0.098l0.062,0.188
		l0.09,0.264l0.117,0.327l0.145,0.388l0.166,0.441l0.293,0.757l0.463,1.171l0.541,1.327l0.611,1.458l0.674,1.56l0.725,1.629
		l1.172,2.531l1.688,3.407l1.32,2.46l0.887,1.529l0.877,1.415l0.859,1.27l0.824,1.09l0.758,0.88l0.684,0.658l0.436,0.332
		l0.193,0.125l0.123,0.071l0.045,0.044l-0.016,0.039l-0.031,0.05l0.002,0.043l0.066-0.007l0.125-0.092l0.174-0.202l0.195-0.323
		l0.205-0.443l0.209-0.564l0.197-0.686l0.186-0.805l0.168-0.928l0.15-1.049l0.129-1.172l0.105-1.299l0.08-1.423l0.055-1.552
		l0.027-1.691l0.006-0.906v0.008v-5.995v-5.992c0-1.04,0.842-1.882,1.879-1.882C1491.115,365.445,1491.955,366.287,1491.955,367.327
		"/>
	<path fill="#1D1B3A" d="M1475.917,366.424l-0.051,0.21l-0.219,0.678l-0.311,0.799l-0.385,0.905l-0.461,1.022l-0.535,1.132
		l-0.6,1.242l-0.664,1.336l-0.717,1.423l-0.762,1.497l-0.809,1.561l-0.844,1.613l-1.318,2.49l-1.824,3.396l-1.848,3.395
		l-1.824,3.302l-1.322,2.355l-0.846,1.494l-0.809,1.417l-0.768,1.329l-0.719,1.23l-0.664,1.118l-0.604,0.998l-0.537,0.867
		l-0.467,0.728l-0.398,0.584l-0.334,0.444l-0.271,0.306l-0.389,0.32l-0.744,0.299c-0.186,0.033-0.373,0.039-0.561,0.015
		l-0.254-0.029l-0.689-0.13l-0.748-0.203l-0.768-0.261l-0.795-0.316l-0.826-0.369l-0.861-0.419l-0.898-0.467l-0.936-0.516
		l-0.971-0.562l-1.004-0.605l-1.043-0.646l-1.076-0.689l-1.109-0.73l-1.717-1.161l-2.396-1.677l-2.506-1.809l-2.596-1.925
		l-2.678-2.028l-2.748-2.118l-2.801-2.191l-4.27-3.396l-5.76-4.664l-5.732-4.717l-4.221-3.504l-2.748-2.295l-2.68-2.242
		l-2.598-2.179l-2.502-2.1l-2.393-2.007l-2.27-1.901l-1.615-1.347l-1.029-0.856l-0.99-0.823l-0.953-0.785l-0.906-0.747l-0.865-0.708
		l-0.82-0.664l-0.77-0.622l-0.721-0.576l-0.67-0.526l-0.312-0.243c-0.818-0.64-0.965-1.82-0.326-2.64
		c0.639-0.818,1.82-0.965,2.639-0.328l0.328,0.254l0.688,0.543l0.736,0.587l0.783,0.632l0.826,0.674l0.873,0.713l0.916,0.751
		l0.955,0.793l0.996,0.825l1.035,0.861l1.617,1.35l2.271,1.903l2.395,2.007l2.5,2.1l2.596,2.177l2.674,2.239l2.742,2.288
		l4.205,3.493l5.715,4.699l5.734,4.643l4.246,3.38l2.777,2.173l2.721,2.098l2.646,2.004l2.561,1.897l2.459,1.777l2.35,1.642
		l1.676,1.137l1.07,0.703l1.033,0.665l0.996,0.618l0.949,0.571l0.904,0.524l0.857,0.474l0.805,0.419l0.75,0.367l0.691,0.312
		l0.623,0.252l0.549,0.191l0.465,0.137l0.416,0.086l0.254,0.031l-0.559,0.016l-0.699,0.291l-0.25,0.226l0.021-0.008l0.225-0.293
		l0.342-0.501l0.436-0.675l0.514-0.83l0.588-0.971l0.65-1.099l0.709-1.213l0.758-1.312l0.805-1.404l0.836-1.479l1.311-2.339
		l1.812-3.281l1.84-3.374l1.812-3.376l1.309-2.475l0.836-1.598l0.799-1.543l0.756-1.478l0.705-1.398l0.646-1.309l0.582-1.203
		l0.512-1.084l0.43-0.95l0.342-0.795l0.24-0.605l0.139-0.405l0.053-0.208c0.248-1.008,1.268-1.623,2.275-1.373
		C1475.55,364.396,1476.167,365.416,1475.917,366.424"/>
	<path fill="#1D1B3A" d="M1492.638,368.161l0.662,0.917l1.273,1.768l1.215,1.676l1.16,1.589l1.102,1.504l1.049,1.417l0.994,1.335
		l0.943,1.251l0.893,1.17l0.844,1.09l0.793,1.012l0.748,0.932l0.705,0.857l0.656,0.779l0.613,0.704l0.568,0.63l0.525,0.556
		l0.482,0.482l0.438,0.408l0.391,0.337l0.342,0.263l0.287,0.188l0.223,0.117l0.145,0.054l0.057-0.005l-0.047-0.033l-0.146-0.025
		l-0.195,0.02l-0.162,0.025l-0.072-0.059l0.072-0.296l0.145-0.612l0.15-0.875l0.143-1.093l0.129-1.276l0.129-1.443l0.135-1.589
		l0.152-1.717l0.18-1.837l0.223-1.94l0.271-2.031l0.338-2.114l0.412-2.182l0.502-2.24l0.602-2.288l0.715-2.321l0.408-1.191
		c0.34-0.982,1.41-1.504,2.391-1.164c0.982,0.339,1.504,1.408,1.166,2.392l-0.371,1.071l-0.672,2.174l-0.568,2.15l-0.477,2.12
		l-0.395,2.074l-0.322,2.021l-0.264,1.956l-0.215,1.883l-0.178,1.798l-0.15,1.707l-0.137,1.602l-0.131,1.494l-0.145,1.382
		l-0.168,1.272l-0.219,1.17l-0.305,1.091l-0.488,1.044l-0.754,0.895l-0.771,0.479l-0.654,0.188l-0.648,0.035l-0.602-0.084
		l-0.545-0.168l-0.508-0.23l-0.49-0.283l-0.484-0.332l-0.49-0.387l-0.506-0.439l-0.525-0.496l-0.555-0.554l-0.584-0.62l-0.615-0.683
		l-0.65-0.749l-0.688-0.816l-0.729-0.889l-0.771-0.96l-0.814-1.035l-0.857-1.108l-0.906-1.188l-0.955-1.268l-1.004-1.345
		l-1.057-1.43l-1.109-1.512l-1.164-1.6l-1.221-1.683l-1.275-1.77l-0.664-0.919c-0.604-0.842-0.412-2.018,0.432-2.624
		C1490.857,367.126,1492.033,367.318,1492.638,368.161"/>
	<path fill="#1D1B3A" d="M1486.326,383.711c6.535,48.432,44.148,105.164,32.156,133.43c-1.289,3.038-14.973,52.784-17.414,51.95
		c-3.891-1.329-9.779-20.958-11.057-24.772c-2.863-8.561-6.873-17.807-8.602-26.663c-2.166-11.118,0.299-24.412,0-35.69
		c-0.877-33.385-1.516-64.61,4.303-97.413"/>
	<path fill="#1D1B3A" d="M1506.943,390.019l3.051,6.029l5.959,12.096l4.324,9.106l2.807,6.086l2.732,6.095l2.66,6.108l2.578,6.124
		l2.494,6.142l2.408,6.158l2.311,6.18l2.213,6.197l2.109,6.221l1.998,6.243l1.885,6.269l1.766,6.295l1.643,6.321l1.514,6.349
		l1.377,6.379l1.242,6.41l1.094,6.439l0.947,6.476l0.791,6.51l0.633,6.543l0.469,6.582l0.301,6.621l0.125,6.657l-0.053,6.698
		l-0.238,6.74l-0.426,6.781l-0.621,6.825l-0.385,3.442l-0.002,0.015l-0.168,1.414l-0.396,2.856l-0.684,4.253l-0.48,2.82
		c-0.174,1.025-1.146,1.713-2.17,1.54c-1.023-0.176-1.713-1.147-1.539-2.169l0.477-2.789l0.67-4.172l0.387-2.785l0.17-1.414
		l-0.002,0.012l0.379-3.364l0.611-6.721l0.42-6.679l0.236-6.637l0.053-6.598l-0.121-6.56l-0.295-6.521l-0.461-6.486l-0.623-6.453
		l-0.781-6.42l-0.932-6.391l-1.08-6.356l-1.225-6.329l-1.359-6.302l-1.494-6.274l-1.623-6.25l-1.746-6.229l-1.865-6.204
		l-1.979-6.183l-2.09-6.162l-2.191-6.146l-2.293-6.129l-2.387-6.11l-2.479-6.097l-2.562-6.084l-2.641-6.069l-2.717-6.06
		l-2.787-6.048l-4.303-9.056l-5.941-12.061l-3.049-6.031c-0.471-0.927-0.1-2.061,0.828-2.528
		C1505.341,388.72,1506.474,389.09,1506.943,390.019"/>
	<path fill="#1D1B3A" d="M1550.677,629.055l-91.881,12.526l0.031,0.139c1.498,0.148,2.826,0.743,3.828,1.872
		c0.691,0.764,1.137,1.609,1.477,2.579c0.43,1.22,0.709,2.736,0.908,4.64c0.328,3.168,0.432,7.581,0.34,13.045
		c-0.156,8.008-0.604,16.006-1.234,23.987c5.689-1.974,12.117-1.169,17.877,0.169c1.633,0.38,5.051,1.132,6.434,2.485
		c2.076,2.632,7.951,74.571-18.406,179.853c4.77,2.588,10.301,3.887,15.393,5.861c0.098,0.752,0.174,0.784,0.201,0.088
		c-0.094-0.053-0.029-0.02-0.201-0.088c-0.17-1.596-0.684-5.893,1.281-6.63c0.168-0.061,0.352,0.046,0.531,0.066
		c14.064,4.749,66.363,28.344,85.746,13.536c3.426-2.618,6.289-13.516-62.613-24.084c-1.309-0.157-15.711-71.546,3.129-120.753
		C1526.42,704.646,1540.138,665.22,1550.677,629.055z"/>
	<path fill="#1D1B3A" d="M1529.564,633.054v-0.585v-0.586l0.002,0.051l-0.045-1.676l-0.092-3.351l-0.061-1.653l-0.002-0.018
		l-0.004-0.186l-0.002-0.52l0.01-0.604l0.018-0.673l0.031-1.116l0.027-1.619l-0.018-1.64l-0.057-1.148l-0.066-0.68l-0.086-0.606
		l-0.109-0.496l-0.119-0.341l-0.096-0.136l0.059,0.126l0.205,0.23l-0.062-0.061l0.152,0.143l0.045,0.067l-0.299-0.012l-0.586-0.007
		l-0.805,0.031l-0.953,0.072l-1.621,0.179l-2.303,0.322l-1.693,0.268l-1.066,0.172l-0.984,0.162l-0.873,0.138l-0.734,0.109
		l-0.588,0.072l-0.275,0.023c-0.025,0.002-0.051,0.006-0.076,0.006l-0.154,0.006l-0.531,0.011l-0.738,0.01l-0.912,0.007
		l-1.059,0.013l-1.17,0.016l-1.893,0.036l-2.574,0.084l-1.799,0.096l-1.061,0.082l-0.908,0.099l-0.697,0.112l-0.408,0.109
		l0.055,0.014l0.41-0.255l0.408-0.563l0.123-0.412l-0.041,0.229l-0.006,0.314l0.031,0.438l0.074,0.594l0.115,0.703l0.154,0.787
		l0.285,1.298l0.439,1.825l0.445,1.832l0.297,1.326l0.17,0.844l0.133,0.79l0.086,0.742l0.027,0.391c0,0.018,0.002,0.034,0.004,0.052
		l0.018,0.604l0.025,1.182l0.008,1.123l-0.006,1.057l-0.021,1.454l-0.033,1.712l-0.008,1.103l0.008,0.635l0.027,0.564l0.043,0.481
		l0.061,0.396l0.076,0.304l0.082,0.201l0.074,0.104l0.051,0.021l0.023-0.024l0.021-0.028l0.072-0.006l0.16,0.01l0.275,0.009
		l0.391-0.013l0.506-0.048l0.617-0.088l0.723-0.135l0.826-0.182l0.934-0.227l1.037-0.27l1.145-0.316l1.254-0.358l1.365-0.404
		l0.725-0.214c0.01-0.001,0.018-0.007,0.027-0.009l1.643-0.465l3.326-0.845l3.225-0.844l2.301-0.734l1.461-0.566l0.695-0.309
		c0.953-0.418,2.062,0.012,2.48,0.963c0.418,0.95-0.014,2.062-0.963,2.479l0,0l-0.857,0.374l-1.68,0.646l-2.482,0.784l-3.256,0.854
		l-3.225,0.816l-1.646,0.465l0.027-0.008l-0.738,0.221l-1.391,0.408l-1.291,0.369l-1.195,0.33l-1.102,0.288l-1.021,0.247
		l-0.945,0.205l-0.879,0.156l-0.82,0.113l-0.777,0.061l-0.746,0.002l-0.727-0.074l-0.711-0.169l-0.68-0.286l-0.617-0.406
		l-0.514-0.508l-0.391-0.563l-0.281-0.588l-0.195-0.596l-0.133-0.604l-0.088-0.617l-0.055-0.644l-0.027-0.673l-0.01-0.719
		l0.01-1.144l0.031-1.696l0.021-1.417l0.008-1.011l-0.01-1.071l-0.023-1.135l-0.018-0.604l0.002,0.051l-0.01-0.188l-0.061-0.556
		l-0.111-0.674l-0.148-0.75l-0.285-1.266l-0.445-1.841l-0.455-1.893l-0.307-1.391l-0.176-0.903l-0.137-0.877l-0.094-0.848
		l-0.029-0.834l0.061-0.767l0.041-0.228c0.027-0.142,0.066-0.278,0.125-0.412l0.447-0.661l0.605-0.438l0.6-0.241l0.748-0.183
		l0.883-0.135l1.02-0.108l1.15-0.091l1.877-0.098l2.623-0.086l1.91-0.036l1.184-0.016l1.062-0.011l0.906-0.01l0.707-0.007
		l0.459-0.011l0.154-0.005l-0.078,0.005l0.115-0.007l0.494-0.06l0.695-0.105l0.861-0.137l0.986-0.162l1.088-0.176l1.758-0.275
		l2.41-0.336l1.748-0.188l1.111-0.083l1.045-0.032l0.994,0.043l0.951,0.165l0.736,0.293l0.479,0.34l0.062,0.057
		c0.074,0.072,0.143,0.146,0.205,0.23l0.301,0.446l0.32,0.69l0.217,0.707l0.154,0.748l0.109,0.789l0.074,0.84l0.062,1.297
		l0.016,1.739l-0.027,1.657l-0.029,1.114l-0.018,0.642l-0.012,0.531v0.41l0.006,0.189v-0.016l0.062,1.694l0.09,3.351l0.047,1.675
		c0,0.018,0.002,0.034,0.002,0.052v0.586v0.585c0,1.04-0.844,1.883-1.883,1.883S1529.564,634.094,1529.564,633.054"/>
	<path fill="#1D1B3A" d="M1508.344,632.221c-86.834,7-133.667-5.166-133.667-5.166c26.096,52.234,57.76,163.061,31.402,268.341
		c4.768,2.588,10.299,3.886,15.391,5.862c0.098,0.752,0.174,0.783,0.201,0.086c-0.094-0.055-0.029-0.021-0.201-0.086
		c-0.168-1.598-0.684-5.895,1.283-6.63c0.166-0.061,0.352,0.042,0.527,0.065c14.066,4.75,68.607,50.652,90.012,27.812
		c2.947-3.146-16.658-14.386-69.885-43.498c-1.156-0.632-16.398-32.896,1.137-118.616c4.717-23.053,11.066-50.615,19.602-72.548
		c5.123-13.158,39.914,14.177,42.119,0.265C1506.265,688.107,1536.56,629.946,1508.344,632.221z"/>
	<path fill="#1D1B3A" d="M1404.554,200.194l0.877-5.274l0.9-5.201l0.918-5.117l0.938-5.027l0.957-4.925l0.971-4.814l0.988-4.698
		l1-4.566l0.506-2.228l-0.002,0.007l0.172-0.772l0.361-1.734l0.389-1.924l0.422-2.075l0.467-2.195l0.52-2.275l0.58-2.326
		l0.656-2.341l0.74-2.323l0.84-2.275l0.943-2.178l0.783-1.554l0.572-1.003l0.611-0.967l0.652-0.924l0.695-0.875l0.742-0.819
		l0.793-0.761l0.846-0.696l0.9-0.618l0.912-0.516l0.412-0.197c0.023-0.011,0.047-0.022,0.07-0.033l0.553-0.233l1.062-0.39
		l1.086-0.32l1.105-0.256l1.119-0.191l1.16-0.137l1.744-0.097l2.328,0.044l2.352,0.223l2.363,0.373l2.359,0.511l2.34,0.623
		l2.307,0.719l2.254,0.791l2.193,0.85l2.109,0.884l2.012,0.904l1.898,0.903l1.76,0.88l0.816,0.422
		c0.006,0.003,0.012,0.006,0.018,0.009l1.211,0.644l2.398,1.33l2.381,1.4l2.357,1.475l2.326,1.551l2.289,1.626l2.244,1.7
		l2.193,1.778l2.137,1.856l2.072,1.938l1.998,2.016l1.92,2.098l1.834,2.18l1.738,2.264l1.637,2.348l1.52,2.409l0.699,1.207
		c0.008,0.014,0.016,0.027,0.021,0.038l0.586,1.073l1.1,2.175l1.031,2.266l0.965,2.357l0.904,2.44l0.842,2.524l0.785,2.605
		l0.729,2.685l0.674,2.758l0.625,2.829l0.574,2.904l0.525,2.967l0.48,3.036l0.438,3.094l0.395,3.155l0.355,3.213l0.318,3.266
		l0.283,3.316l0.248,3.367l0.215,3.416l0.27,5.2l0.262,7.063l0.168,7.197l0.088,7.308l0.02,7.397l-0.029,7.467l-0.107,11.267
		l-0.188,15.049l-0.111,11.204l-0.029,7.387l0.02,7.293l0.086,7.177l0.162,7.04l0.184,5.177l0.154,3.396l0.184,3.344l0.213,3.296
		l0.242,3.241l0.277,3.181l0.312,3.124l0.096,0.85c-1.285,0.861-2.434,1.904-3.428,3.09l-0.053-0.396l-0.355-3.115l-0.314-3.179
		l-0.281-3.229l-0.248-3.286l-0.213-3.335l-0.186-3.382l-0.158-3.426l-0.186-5.216l-0.164-7.086l-0.086-7.221l-0.02-7.327
		l0.029-7.411l0.111-11.226l0.188-15.058l0.107-11.259l0.031-7.445l-0.021-7.37l-0.086-7.276l-0.168-7.153l-0.262-7.01l-0.266-5.146
		l-0.215-3.372l-0.244-3.327l-0.277-3.275l-0.314-3.22l-0.352-3.163l-0.389-3.102l-0.43-3.037l-0.471-2.973l-0.516-2.899
		l-0.561-2.829l-0.605-2.751l-0.654-2.674l-0.707-2.592l-0.756-2.505l-0.809-2.42l-0.863-2.327l-0.918-2.232l-0.975-2.137
		l-1.031-2.036l-0.516-0.937l-0.689-1.19l-1.447-2.292l-1.537-2.197l-1.639-2.126l-1.729-2.05l-1.816-1.98l-1.895-1.906
		l-1.971-1.838l-2.033-1.767l-2.094-1.695l-2.15-1.626l-2.193-1.554l-2.234-1.487l-2.268-1.418l-2.293-1.348l-2.314-1.282
		l-1.139-0.604l-0.811-0.42l-1.715-0.856l-1.832-0.871l-1.938-0.87l-2.021-0.847l-2.096-0.809l-2.145-0.749l-2.176-0.677
		l-2.191-0.58l-2.184-0.467l-2.158-0.338l-2.111-0.192l-2.049-0.028l-1.457,0.091l-0.93,0.115l-0.926,0.164l-0.896,0.212
		l-0.865,0.262l-0.832,0.313l-0.344,0.152l-0.369,0.177l-0.674,0.389l-0.613,0.438l-0.594,0.503l-0.578,0.568l-0.562,0.633
		l-0.543,0.693l-0.525,0.752l-0.504,0.808l-0.484,0.857l-0.697,1.39l-0.85,1.978l-0.762,2.082l-0.688,2.165l-0.619,2.214
		l-0.553,2.225l-0.5,2.2l-0.455,2.139l-0.416,2.048l-0.385,1.915l-0.369,1.761l-0.182,0.819c0,0-0.002,0.004-0.002,0.006
		l-0.502,2.229l-0.998,4.541l-0.98,4.666l-0.967,4.788l-0.949,4.896l-0.936,5l-0.914,5.094l-0.893,5.175l-0.871,5.252l-0.715,4.469
		c-1.215-0.327-2.463-0.521-3.723-0.547L1404.554,200.194z"/>
	<path fill="#1D1B3A" d="M1393.417,312.945l0.127-4.848l0.172-4.955l0.223-5.055l0.266-5.143l0.312-5.223l0.357-5.295l0.396-5.36
		l0.439-5.416l0.479-5.462l0.789-8.263l1.18-11.093l0.109-0.914c1.15,0.271,2.328,0.428,3.514,0.428c0.076,0,0.148-0.01,0.225-0.01
		l-0.113,0.937l-1.174,11.05l-0.783,8.224l-0.479,5.434l-0.436,5.39l-0.396,5.334l-0.355,5.27l-0.309,5.196l-0.268,5.113
		l-0.217,5.022l-0.174,4.923l-0.125,4.813l-0.074,4.695l-0.021,4.569l0.008,2.229c0.002,1.037-0.836,1.885-1.873,1.887
		c-1.041,0.004-1.887-0.835-1.891-1.874l-0.006-2.262l0.023-4.61L1393.417,312.945z"/>
	<path fill="#1D1B3A" d="M1499.039,205.552l-0.604,0.941l-1.148,1.775l-1.069,1.623l-0.993,1.48l-0.918,1.334l-0.842,1.2
		l-0.775,1.064l-0.707,0.942l-0.645,0.82l-0.584,0.707l-0.534,0.599l-0.485,0.504l-0.458,0.418l-0.45,0.347l-0.506,0.292
		l-0.695,0.219l-1.062-0.081l-1.03-0.732l-0.419-0.881l-0.085-0.7l0.026-0.594l0.084-0.568l0.193-0.856l0.371-1.264l0.488-1.404
		l0.582-1.514l0.666-1.598l0.727-1.647l0.778-1.664l0.809-1.647l0.824-1.59l0.821-1.5l0.807-1.38l0.779-1.224l0.569-0.808
		l0.375-0.49l0.365-0.43l0.374-0.382l0.399-0.346l0.481-0.307l0.67-0.252l1.002-0.001l1.038,0.558l0.562,0.816l0.218,0.745
		l0.067,0.692l-0.006,0.71l-0.06,0.773l-0.111,0.858l-0.155,0.966l-0.21,1.078l-0.262,1.206l-0.149,0.658
		c-0.232,1.012-1.243,1.643-2.255,1.41c-1.012-0.233-1.644-1.242-1.409-2.255l0,0l0.139-0.607l0.243-1.125l0.19-0.978l0.139-0.834
		l0.092-0.691l0.049-0.533l0.013-0.366l0.011-0.163l0.073,0.1l0.348,0.371l0.754,0.311l0.651-0.065l0.263-0.14l0.011-0.034
		l-0.118,0.085l-0.197,0.191l-0.246,0.284l-0.272,0.351l-0.474,0.667l-0.704,1.102l-0.754,1.283l-0.782,1.423l-0.787,1.521
		l-0.776,1.578l-0.745,1.594l-0.696,1.572l-0.627,1.506l-0.54,1.396l-0.437,1.239l-0.31,1.039l-0.142,0.602l-0.049,0.258l-0.023,0.1
		l-0.057-0.138l-0.298-0.47l-0.818-0.478l-0.755,0.011l-0.285,0.132l0.011,0.021l0.174-0.118l0.283-0.251l0.371-0.378l0.448-0.506
		l0.524-0.628l0.596-0.759l0.67-0.889l0.741-1.021l0.817-1.161l0.895-1.305l0.977-1.448l1.052-1.6l1.137-1.76l0.604-0.942
		c0.558-0.874,1.722-1.131,2.597-0.572C1499.338,203.512,1499.596,204.674,1499.039,205.552"/>
	<path fill="#1D1B3A" d="M1469.892,207.539l-0.75,1.048l-1.432,1.973l-1.332,1.807l-1.234,1.644l-1.137,1.482l-1.045,1.329
		l-0.959,1.181l-0.872,1.04l-0.794,0.905l-0.717,0.777l-0.65,0.659l-0.59,0.552l-0.553,0.453l-0.541,0.37l-0.6,0.307l-0.813,0.206
		l-1.221-0.154l-1.143-0.909l-0.425-1.042l-0.06-0.809l0.066-0.685l0.134-0.646l0.274-0.975l0.506-1.433l0.648-1.589l0.765-1.709
		l0.862-1.8l0.94-1.854l0.998-1.869l1.029-1.847l1.051-1.781l1.039-1.679l1.013-1.539l0.973-1.361l0.705-0.898l0.462-0.539
		l0.448-0.473l0.452-0.42l0.483-0.371l0.571-0.324l0.79-0.248l1.153,0.061l1.162,0.706l0.598,0.975l0.201,0.868l0.04,0.803
		l-0.053,0.82l-0.118,0.887l-0.177,0.983l-0.241,1.103l-0.306,1.23l-0.375,1.371l-0.214,0.75c-0.331,1.152-1.533,1.816-2.686,1.484
		c-1.151-0.331-1.816-1.53-1.486-2.684l0,0l0.199-0.69l0.351-1.279l0.275-1.116l0.215-0.953l0.146-0.789l0.09-0.614l0.039-0.421
		l0.02-0.188l0.081,0.122l0.375,0.448l0.851,0.404l0.755-0.035l0.309-0.147l0.017-0.036l-0.144,0.089l-0.235,0.211l-0.303,0.311
		l-0.336,0.387l-0.585,0.738l-0.879,1.228l-0.948,1.434l-0.988,1.591l-1.001,1.704l-0.989,1.768l-0.956,1.795l-0.899,1.766
		l-0.814,1.696l-0.708,1.577l-0.577,1.399l-0.424,1.177l-0.199,0.685l-0.071,0.294l-0.033,0.116l-0.057-0.163l-0.315-0.562
		l-0.912-0.6l-0.87-0.034l-0.338,0.135l0.013,0.023l0.205-0.124l0.343-0.272l0.45-0.413l0.548-0.554l0.642-0.693l0.734-0.836
		l0.826-0.981l0.918-1.133l1.014-1.287l1.109-1.446l1.208-1.611l1.314-1.779l1.419-1.955l0.752-1.049
		c0.697-0.973,2.054-1.195,3.027-0.5C1470.37,205.209,1470.593,206.562,1469.892,207.539"/>
	<path fill="#1D1B3A" d="M1414.173,216.408l-0.211-0.774l-0.475-1.371l-0.553-1.24l-0.639-1.148l-0.723-1.065l-0.797-0.975
		l-0.867-0.886l-0.938-0.804l-1-0.717l-1.061-0.628l-1.119-0.542l-1.172-0.453l-1.221-0.365l-1.266-0.272l-1.305-0.179l-1.342-0.083
		l-0.648-0.003h0.062l-0.648,0.013l-1.176,0.085l-1.1,0.154l-1.053,0.222l-1.01,0.286l-0.965,0.345l-0.926,0.404l-0.885,0.462
		l-0.846,0.515l-0.811,0.566l-0.77,0.618l-0.736,0.666l-0.699,0.714l-0.662,0.757l-0.623,0.801l-0.59,0.841l-0.553,0.88
		l-0.514,0.915l-0.475,0.947l-0.438,0.977l-0.59,1.538l-0.641,2.119l-0.475,2.174l-0.314,2.214l-0.152,2.238l0.01,2.233l0.172,2.203
		l0.332,2.148l0.49,2.069l0.465,1.467l0.354,0.935l0.396,0.918l0.436,0.883l0.469,0.841l0.504,0.803l0.541,0.757l0.574,0.711
		l0.607,0.661l0.639,0.612l0.674,0.559l0.703,0.506l0.736,0.449l0.771,0.395l0.803,0.337l0.842,0.275l0.879,0.216l0.918,0.153
		l0.961,0.087l1.006,0.017l1.049-0.059l1.1-0.134l1.146-0.215l1.197-0.303l1.244-0.391l1.295-0.484l0.643-0.271
		c0.959-0.398,2.061,0.053,2.459,1.013c0.4,0.958-0.051,2.059-1.01,2.459l0,0l-0.779,0.324l-1.488,0.552l-1.455,0.449l-1.422,0.351
		l-1.389,0.253l-1.354,0.156l-1.32,0.059l-1.279-0.031l-1.244-0.123l-1.199-0.215l-1.158-0.297l-1.115-0.38l-1.062-0.461
		l-1.018-0.534l-0.965-0.605l-0.916-0.668l-0.861-0.729l-0.811-0.789l-0.76-0.839l-0.709-0.89l-0.658-0.936l-0.609-0.974
		l-0.559-1.014l-0.512-1.05l-0.461-1.081l-0.42-1.131l-0.539-1.734l-0.549-2.363l-0.361-2.431l-0.184-2.479v-2.505l0.18-2.508
		l0.365-2.494l0.549-2.454l0.73-2.378l0.668-1.725l0.51-1.128l0.559-1.104l0.607-1.072l0.658-1.039l0.705-1l0.76-0.961l0.809-0.914
		l0.861-0.869l0.912-0.815l0.963-0.76l1.016-0.701l1.064-0.637l1.115-0.569l1.164-0.498l1.211-0.423l1.258-0.346l1.301-0.263
		l1.344-0.182l1.359-0.094l0.648-0.015c0.023-0.001,0.043-0.001,0.064-0.001l0.854,0.014l1.619,0.111l1.586,0.23l1.551,0.346
		l1.506,0.463l1.453,0.578l1.396,0.693l1.33,0.809l1.258,0.92l1.178,1.031l1.092,1.139l0.996,1.243l0.891,1.346l0.787,1.446
		l0.67,1.539l0.541,1.594l0.213,0.773c0.273,1.002-0.316,2.037-1.318,2.312C1415.484,218,1414.449,217.41,1414.173,216.408"/>
	<path fill="#1D1B3A" d="M1482.093,297.134l0.457,0.329l0.971,0.807l0.908,0.916l0.818,0.988l0.717,1.046l0.625,1.096l0.537,1.131
		l0.445,1.163l0.359,1.181l0.275,1.193l0.189,1.197l0.113,1.191l0.029,1.183l-0.051,1.162l-0.131,1.138l-0.213,1.104l-0.297,1.064
		l-0.381,1.017l-0.473,0.961l-0.568,0.898l-0.668,0.82l-0.775,0.728l-0.887,0.614l-0.99,0.476l-1.082,0.317l-1.154,0.144
		l-1.211-0.045l-1.244-0.226l-1.271-0.408l-1.297-0.588l-1.324-0.764l-1.355-0.946l-0.717-0.562
		c-0.816-0.644-0.955-1.827-0.311-2.642s1.826-0.954,2.643-0.311l0.549,0.438l1.09,0.775l1.002,0.598l0.91,0.434l0.812,0.285
		l0.717,0.162l0.627,0.056l0.557-0.031l0.502-0.109l0.467-0.185l0.443-0.269l0.418-0.357l0.395-0.448l0.363-0.539l0.322-0.621
		l0.275-0.699l0.223-0.764l0.17-0.824l0.107-0.867l0.049-0.903l-0.018-0.929l-0.08-0.943l-0.145-0.948l-0.209-0.944l-0.273-0.93
		l-0.338-0.904l-0.4-0.873l-0.463-0.832l-0.523-0.783l-0.582-0.73l-0.645-0.667l-0.744-0.632l-0.459-0.328
		c-0.846-0.604-1.037-1.781-0.434-2.623C1480.072,296.724,1481.248,296.529,1482.093,297.134"/>
	<path fill="#1D1B3A" d="M1471.716,367.256l-2.379-1.496l-4.805-2.847l-4.895-2.705l-4.986-2.59l-5.064-2.502l-5.123-2.435
		l-7.771-3.57l-10.416-4.724l-7.795-3.618l-5.162-2.494l-5.109-2.578l-5.045-2.692l-4.961-2.827l-3.668-2.228l-4.922-2.12
		l-1.199-0.791c1.643,0.006,1.404-1.16,1.975-2.025c0.572-0.868,1.738-1.108,2.605-0.536l0,0l1.156,0.762l2.338,1.498l3.574,2.172
		l4.873,2.778l4.969,2.65l5.049,2.551l5.111,2.469l7.764,3.604l10.436,4.733l7.811,3.592l5.178,2.457l5.135,2.536l5.07,2.638
		l4.996,2.759l4.885,2.9l2.381,1.497c0.879,0.553,1.143,1.713,0.588,2.592C1473.757,367.545,1472.595,367.811,1471.716,367.256"/>
	<path fill="#1D1B3A" d="M1513.185,352.737l-0.873,0.43l-1.652,0.889l-1.604,0.946l-1.572,1.01l-2.33,1.619l-3.043,2.29
		l-3.012,2.384l-3.029,2.419l-3.092,2.379l-2.391,1.725l-1.646,1.104l-0.846,0.54c-0.877,0.558-2.039,0.301-2.598-0.575
		c-0.557-0.876-0.299-2.04,0.578-2.597l0,0l0.771-0.491l1.541-1.034l2.297-1.651l3.039-2.341l3.041-2.427l3.084-2.438l3.162-2.376
		l2.445-1.698l1.688-1.079l1.736-1.022l1.768-0.947l0.873-0.431c0.932-0.46,2.059-0.075,2.52,0.853
		C1514.498,351.148,1514.117,352.277,1513.185,352.737"/>
	<g>
		<g>
			<path fill="#1D1B3A" d="M1444.033,196.805c5.219-10.431,20.306-40.235,33.023-21.667c1.162,1.697,3.947,0.093,2.773-1.621
				c-14.929-21.797-32.096,8.728-38.57,21.667C1440.335,197.03,1443.106,198.657,1444.033,196.805L1444.033,196.805z"/>
		</g>
	</g>
	<g>
		<g>
			<path fill="#1D1B3A" d="M1553.393,605.118c-7.334,1.888-14.491,4.347-21.721,6.586c-8.566,2.653-17.21,4.2-26.084,5.391
				c-16.848,2.26-33.913,4.665-50.918,5.106c-17.607,0.457-35.191-1.724-52.211-6.209c-13.61-3.587-28.189-7.21-39.942-15.243
				c-1.715-1.172-3.319,1.612-1.621,2.773c11.692,7.992,25.885,11.393,39.335,15.177c17.084,4.806,34.822,6.869,52.547,6.745
				c17.626-0.122,35.357-2.86,52.811-5.138c7.987-1.042,15.836-2.326,23.599-4.513c8.405-2.366,16.598-5.4,25.06-7.578
				C1556.251,607.699,1555.4,604.602,1553.393,605.118L1553.393,605.118z"/>
		</g>
	</g>
	<g>
		<g>
			<path fill="#1D1B3A" d="M1556.059,626.866c-5.573-0.84-11.013,0.52-16.436,1.735c-7.743,1.736-15.697,2.219-23.607,2.601
				c-16.935,0.816-33.937,1.487-50.885,1.93c-16.941,0.443-33.907-0.017-50.746-2.002c-14.377-1.695-29.051-2.818-42.736-7.889
				c-1.946-0.721-2.778,2.385-0.854,3.098c12.805,4.743,26.632,6.18,40.128,7.602c16.777,1.767,33.398,2.738,50.28,2.485
				c16.972-0.254,33.946-1.289,50.912-1.856c7.491-0.25,15.186-0.495,22.592-1.73c6.666-1.111,13.677-3.902,20.498-2.875
				C1557.231,630.269,1558.102,627.174,1556.059,626.866L1556.059,626.866z"/>
		</g>
	</g>
	<g>
		<g>
			<path fill="#1D1B3A" d="M1365.785,604.608c-3.725-0.205-1.852,4.451-1.002,6.155c1.643,3.295,3.768,6.446,5.959,9.4
				c1.219,1.644,4.009,0.045,2.773-1.621c-1.283-1.73-2.469-3.537-3.619-5.356c-0.748-1.182-1.457-2.388-2.119-3.62
				c-0.278-0.518-0.547-1.047-0.771-1.59c-0.087-0.217-0.165-0.437-0.234-0.66c-0.34-1.028,0.448,0.582-0.986,0.503
				C1367.855,607.934,1367.844,604.721,1365.785,604.608L1365.785,604.608z"/>
		</g>
	</g>
	<g>
		<g>
			<path fill="#1D1B3A" d="M1555.152,607.216c-3.466,5.515-2.421,12.396-3.787,18.508c-0.451,2.018,2.646,2.875,3.098,0.854
				c1.29-5.773,0.214-12.571,3.463-17.74C1559.031,607.078,1556.25,605.468,1555.152,607.216L1555.152,607.216z"/>
		</g>
	</g>
	<g>
		<g>
			<path fill="#1D1B3A" d="M1388.833,324.462c1.137,9.454-4.018,17.34-8.15,25.39c-0.944,1.839,1.827,3.464,2.773,1.621
				c4.383-8.538,9.793-16.995,8.588-27.011C1391.8,322.433,1388.585,322.408,1388.833,324.462L1388.833,324.462z"/>
		</g>
	</g>
	<g>
		<g>
			<path fill="#1D1B3A" d="M1386.142,353.49c-4.373,7.249-3.79,15.725-4.748,23.814c-0.438,3.698-1.029,7.382-1.586,11.063
				c-2.126,14.072-4.332,28.132-6.438,42.207c-5.791,38.688-11.239,77.491-14.568,116.479c-1.566,18.341-3.04,37.057-1.522,55.452
				c0.168,2.049,3.382,2.065,3.211,0c-1.244-15.102-0.328-30.391,0.741-45.474c1.392-19.634,3.574-39.211,5.984-58.742
				c4.315-34.956,9.677-69.765,15.007-104.576c0.719-4.701,1.448-9.401,2.087-14.114c1.11-8.205,0.18-17.149,4.606-24.488
				C1389.988,353.333,1387.21,351.72,1386.142,353.49L1386.142,353.49z"/>
		</g>
	</g>
	<g>
		<path fill="#FFFFFF" d="M1385.691,370.224c0,0-52.17,160.259-29.996,181.688c25.938,25.065,136.148,44.609,136.148,44.609
			l4.342-26.059c0,0-93.377-14.426-93.377-53.748c0-39.32,37.424-82.764,37.424-82.764"/>
		<g>
			<path fill="#1B1D3A" d="M1384.142,369.797c-6.086,18.708-11.528,37.646-16.639,56.642c-8.385,31.167-16.77,63.344-18.683,95.687
				c-0.538,9.098-1.186,20.813,4.033,28.843c2.747,4.226,7.92,7.18,12.146,9.671c6.657,3.926,13.832,6.976,21.012,9.798
				c31.009,12.188,64.123,19.591,96.749,25.997c2.881,0.565,5.765,1.123,8.656,1.637c0.788,0.14,1.822-0.202,1.976-1.122
				c1.447-8.686,2.895-17.372,4.342-26.059c0.13-0.781-0.194-1.831-1.122-1.976c-23.407-3.638-47.836-10.328-68.511-22.018
				c-13.342-7.544-24.416-17.993-23.557-34.262c1.193-22.591,13.178-44.281,25.609-62.607c3.487-5.141,7.164-10.224,11.214-14.94
				c1.341-1.562-0.92-3.846-2.271-2.271c-8.68,10.111-16.098,21.513-22.493,33.17c-5.411,9.863-9.873,20.31-12.748,31.198
				c-2.217,8.395-3.958,18.131-1.652,26.684c3.595,13.332,16.989,22.1,28.479,28.081c13.757,7.162,28.813,11.863,43.813,15.616
				c7.013,1.754,14.115,3.336,21.263,4.447c-0.374-0.659-0.748-1.317-1.122-1.976c-1.447,8.686-2.895,17.372-4.342,26.059
				c0.659-0.374,1.317-0.748,1.976-1.122c-25.188-4.476-50.253-10.316-74.82-17.434c-16.834-4.877-33.964-10.323-49.361-18.836
				c-4.487-2.481-10.145-5.524-12.892-10.041c-2.277-3.745-2.827-8.55-3.165-12.822c-1.098-13.867,1.11-28.096,3.401-41.73
				c2.837-16.891,6.68-33.612,10.848-50.22c6.003-23.918,12.8-47.664,20.291-71.159c0.221-0.693,0.442-1.388,0.668-2.08
				C1387.882,368.675,1384.78,367.836,1384.142,369.797L1384.142,369.797z"/>
		</g>
	</g>
	<g>
		<polygon fill="#FFFFFF" points="1483.156,601.95 1489.671,565.033 1511.386,566.119 1502.685,605.484 		"/>
		<g>
			<path fill="#1B1D3A" d="M1484.705,602.377c2.172-12.306,4.344-24.611,6.516-36.917c-0.517,0.394-1.032,0.786-1.549,1.18
				c7.238,0.361,14.477,0.724,21.715,1.086c-0.517-0.678-1.032-1.355-1.549-2.033c-2.9,13.121-5.801,26.243-8.701,39.365
				c0.659-0.374,1.317-0.748,1.976-1.122c-6.51-1.178-13.02-2.355-19.529-3.534c-2.024-0.366-2.89,2.729-0.854,3.098
				c6.51,1.178,13.02,2.355,19.529,3.534c0.825,0.149,1.774-0.212,1.976-1.122c2.9-13.121,5.801-26.243,8.701-39.365
				c0.232-1.052-0.473-1.979-1.549-2.033c-7.238-0.361-14.477-0.724-21.715-1.086c-0.659-0.032-1.431,0.51-1.549,1.18
				c-2.172,12.306-4.344,24.611-6.516,36.917C1481.25,603.548,1484.345,604.414,1484.705,602.377z"/>
		</g>
	</g>
	<g>
		<path fill="#FFFFFF" d="M1510.423,561.443c0,0,75.43-59.91,85.303-58.26c25.625,4.284,147.041,4.427,147.041,4.427
			s-51.666,74.938-56.982,78.874C1680.466,590.418,1548.474,581.564,1510.423,561.443z"/>
		<g>
			<path fill="#1D1B3A" d="M1511.559,562.579c20.079-15.942,40.52-31.619,61.819-45.899c5.247-3.519,10.582-6.99,16.218-9.86
				c3.798-1.935,5.909-1.982,10.021-1.491c14.043,1.676,28.304,1.959,42.425,2.414c33.557,1.082,67.151,1.433,100.725,1.474
				c-0.462-0.805-0.925-1.61-1.387-2.416c-14.592,21.162-29.272,42.285-44.464,63.023c-3.288,4.488-6.568,9.01-10.142,13.279
				c-1.837,2.196-2.029,2.283-4.925,2.5c-11.718,0.878-23.748-0.212-35.438-0.996c-24.887-1.671-49.747-4.405-74.368-8.402
				c-20.195-3.279-42.448-6.582-60.811-16.147c-1.834-0.956-3.459,1.816-1.621,2.773c12.887,6.713,27.645,9.925,41.764,12.847
				c18.536,3.835,37.33,6.443,56.128,8.592c17.178,1.963,34.425,3.458,51.695,4.294c5.855,0.284,11.722,0.485,17.584,0.432
				c2.886-0.026,6.167,0.122,8.962-0.741c1.529-0.473,2.597-2.037,3.572-3.203c2.277-2.722,4.403-5.576,6.53-8.415
				c6.733-8.983,13.233-18.144,19.723-27.305c9.616-13.573,19.14-27.215,28.583-40.909c0.708-1.027-0.239-2.415-1.387-2.416
				c-24.442-0.031-48.887-0.299-73.324-0.781c-17.266-0.34-34.538-0.772-51.783-1.709c-6.021-0.327-12.049-0.711-18.042-1.398
				c-3.841-0.44-6.099-0.573-9.715,1.011c-7.247,3.173-13.929,7.916-20.45,12.332c-9.194,6.227-18.163,12.789-27.067,19.423
				c-11.154,8.311-22.203,16.776-33.098,25.426C1507.666,561.596,1509.955,563.853,1511.559,562.579z"/>
		</g>
	</g>
	<g>
		<path fill="#F4EDE1" d="M1542.875,573.72c-1.086-12.485,3.518-8.593,11.945-13.571c11.324-6.693,14.949-24.069,3.799-19.002
			c-17.914,8.144-49.943,18.39-49.945,37.46c-0.002,10.315,14.656,20.631,22.801,25.517c8.143,4.886,44.67-15.563,46.512-24.398"/>
		<g>
			<path fill="#1B1D3A" d="M1544.48,573.72c-0.374-5.254-0.147-7.824,4.985-9.489c4.286-1.392,8.017-3.542,11.207-6.74
				c3.787-3.796,9.083-12.483,4.785-17.589c-1.771-2.104-5.185-1.155-7.266-0.304c-4.491,1.839-8.927,3.848-13.391,5.753
				c-9.475,4.045-18.951,8.375-27.108,14.758c-5.881,4.603-11.717,12.091-10.509,20.07c1.544,10.198,11.535,17.46,19.5,22.819
				c6.171,4.153,10.676,3.849,17.677,1.519c8.292-2.76,16.184-7.142,23.368-12.067c4.26-2.921,10.393-6.962,11.806-12.298
				c0.53-2.005-2.567-2.854-3.098-0.854c-1.474,5.568-9.463,9.91-13.899,12.735c-6.718,4.279-14.037,7.983-21.698,10.221
				c-2.534,0.741-5.47,1.454-8.079,0.71c-4.062-1.157-8.771-5.679-11.917-8.284c-4.239-3.511-8.322-7.763-10.108-13.069
				c-1.612-4.792,0.776-10.069,3.676-13.807c5.565-7.173,14.523-11.596,22.525-15.435c4.256-2.041,8.608-3.879,12.954-5.719
				c3.668-1.554,8.244-4.533,12.231-4.811c4.161-0.29-0.403,8.872-1.118,10.053c-2.628,4.337-6.851,7.26-11.546,8.956
				c-2.303,0.832-4.698,1.312-6.491,3.089c-2.393,2.372-1.909,6.809-1.697,9.782C1541.415,575.773,1544.627,575.788,1544.48,573.72
				L1544.48,573.72z"/>
		</g>
	</g>
	<g>
		<g>
			<path fill="#1D1B3A" d="M1697.822,517.98c-2.23,1.476-3.762,4.796-5.176,6.957c-3.336,5.097-6.55,10.272-9.783,15.434
				c-3.404,5.433-6.797,10.872-10.261,16.267c-1.268,1.973-2.55,3.938-3.872,5.874c-0.444,0.65-0.901,1.291-1.371,1.923
				c-0.344,0.463-1.027,0.76-0.22,0.522c-1.983,0.582-1.139,3.683,0.854,3.098c2.123-0.623,3.8-4.332,4.899-5.984
				c3.45-5.188,6.734-10.489,10.044-15.769c3.435-5.477,6.854-10.964,10.334-16.412c1.565-2.452,4.106-7.769,6.173-9.136
				C1701.162,519.616,1699.554,516.834,1697.822,517.98L1697.822,517.98z"/>
		</g>
	</g>
	<g>
		<g>
			<path fill="#1D1B3A" d="M1674.214,519.094c-10.429,14.021-20.064,28.841-30.817,42.527c-1.264,1.609,0.992,3.899,2.271,2.271
				c10.976-13.971,20.717-28.924,31.319-43.178C1678.226,519.051,1675.435,517.452,1674.214,519.094L1674.214,519.094z"/>
		</g>
	</g>
	<g>
		<g>
			<path fill="#1D1B3A" d="M1650.109,517.485c-4.462,6.634-9.088,13.163-13.672,19.713c-3.142,4.491-6.298,8.973-9.495,13.424
				c-1.646,2.291-3.291,5.442-5.508,7.248c-1.606,1.309,0.681,3.567,2.271,2.271c1.848-1.505,3.237-4.076,4.62-5.976
				c3.287-4.516,6.495-9.088,9.703-13.659c4.986-7.105,10.009-14.197,14.854-21.4
				C1654.042,517.383,1651.258,515.776,1650.109,517.485L1650.109,517.485z"/>
		</g>
	</g>
	<g>
		<g>
			<path fill="#1D1B3A" d="M1627.611,514.809c-4.929,6.976-10.914,13.387-16.354,19.962c-5.474,6.615-10.705,13.642-16.605,19.887
				c-1.421,1.504,0.847,3.779,2.271,2.271c5.9-6.245,11.131-13.273,16.605-19.887c5.618-6.788,11.767-13.409,16.856-20.612
				C1631.583,514.733,1628.795,513.132,1627.611,514.809L1627.611,514.809z"/>
		</g>
	</g>
	<g>
		<g>
			<path fill="#1D1B3A" d="M1608.369,512.089c-2.08,1.33-3.867,3.404-5.66,5.072c-4.243,3.945-8.457,7.922-12.676,11.893
				c-4.149,3.905-8.297,7.812-12.459,11.703c-2.03,1.898-4.675,4.852-6.703,6.149c-1.738,1.112-0.129,3.894,1.621,2.773
				c2.08-1.331,3.866-3.404,5.66-5.073c4.243-3.945,8.457-7.922,12.676-11.893c4.149-3.904,8.297-7.812,12.459-11.702
				c2.03-1.898,4.676-4.853,6.703-6.149C1611.729,513.751,1610.12,510.97,1608.369,512.089L1608.369,512.089z"/>
		</g>
	</g>
</g>
</svg>
