<?xml version="1.0" encoding="utf-8"?>
<!-- Generator: Adobe Illustrator 16.0.4, SVG Export Plug-In . SVG Version: 6.00 Build 0)  -->
<!DOCTYPE svg PUBLIC "-//W3C//DTD SVG 1.1//EN" "http://www.w3.org/Graphics/SVG/1.1/DTD/svg11.dtd">
<svg version="1.1" id="lady_x5F_arm" xmlns="http://www.w3.org/2000/svg" xmlns:xlink="http://www.w3.org/1999/xlink" x="0px"
	 y="0px" width="2440.785px" height="984.563px" viewBox="0 0 2440.785 984.563" enable-background="new 0 0 2440.785 984.563"
	 xml:space="preserve">
<g>
	<path fill="#F4EDE1" d="M619.152,260.937c1.234-6.169-2.351-2.068-4.084-7.963c-2.042-6.943-4.096-19.677-2.246-23.686
		c2.159-3.702,13.44-17.987,17.151-16.131c6.126,3.062-6.738,13.681-7.758,16.538"/>
	<g>
		<path fill="#1B1D3A" d="M620.701,261.363c0.282-1.833,0.759-4.157-0.983-5.443c-3.262-2.408-3.769-5.603-4.574-9.439
			c-0.881-4.198-1.433-8.484-1.433-12.776c0-3.092,1.212-4.816,2.978-7.181c2.066-2.767,4.365-5.372,6.791-7.827
			c0.814-0.823,7.447-6.573,6.365-2.148c-1.226,5.016-6.916,7.81-9.017,12.337c-0.866,1.866,1.902,3.498,2.773,1.621
			c2.396-5.164,10.164-8.995,9.569-15.454c-0.715-7.772-9.671-0.846-11.962,1.374c-5.258,5.095-10.709,10.819-10.709,18.434
			c0,5.04,1.008,10.182,2.114,15.075c0.488,2.158,1.023,4.282,2.157,6.195c1.318,2.225,3.326,1.176,2.833,4.38
			C617.292,262.535,620.386,263.405,620.701,261.363L620.701,261.363z"/>
	</g>
</g>
<g>
	<path fill="#1D1B3A" d="M635.906,237.457c-7.045-19.022-7.316-18.907-10.663-28.513c1.761-8.102,15.761-10.64,20.878-9.884
		c6.935,1.686,9.897,12.18,11.625,19.021c4.899,19.412,4.614,26.266,8.611,50.533c4.579,13.033-17.417,8.292-22.349-1.924
		C644.008,266.691,638.335,244.014,635.906,237.457z"/>
</g>
<g>
	<path fill="#F4EDE1" d="M632.423,233.371c12.864-16.131,13.885-20.622,5.718-18.785c-10.936,8.139-16.26,15.09-17.151,16.131
		c-1.55,1.809-4.084,11.435-5.105,18.377c-0.997,6.775-1.242,5.774,1.225,12.25c3.393,8.636,9.821,23.895,17.84,26.671"/>
	<g>
		<path fill="#1B1D3A" d="M633.559,234.507c1.934-2.442,16.783-18.38,9.489-21.522c-4.035-1.739-7.522,1.546-10.39,3.867
			c-4.525,3.665-8.723,7.783-12.428,12.275c-3,3.638-3.804,9.158-4.802,13.612c-1.344,6.002-2.656,11.592-0.474,17.439
			c3.762,10.081,8.734,24.963,19.569,29.385c1.918,0.782,2.745-2.326,0.854-3.098c-8.703-3.552-13.109-16.523-16.313-24.524
			c-1.863-4.652-2.38-7.456-1.63-12.421c0.791-5.235,1.974-10.453,3.702-15.461c2.225-6.449,10.173-12.004,15.168-16.049
			c1.095-0.887,3.578-2.919,5.468-2.104c0.356,0.153-0.877,2.665-0.966,2.846c-2.4,4.876-6.174,9.263-9.518,13.483
			C630.016,233.841,632.273,236.13,633.559,234.507L633.559,234.507z"/>
	</g>
</g>
<g>
	<path fill="#F4EDE1" d="M627.932,257.67c-1.234-5.859-1.633-15.928-0.204-18.581c0.98-1.822,3.122-4.093,4.9-5.718
		c4.697-4.287,9.598-11.639,11.435-11.229c3.267,1.226,0.447,13.649-5.105,17.968c-2.467,1.852-3.062,3.037-3.062,6.739
		c0,1.541,4.179,10.399,5.104,12.251c4.009,7.401,22.381,24.207,4.492,37.161l-16.947,9.393c0,0-9.761-9.468-0.816-15.927
		c3.675-2.654,3.062-3.676,3.062-3.676"/>
	<g>
		<path fill="#1B1D3A" d="M629.48,257.243c-0.728-3.763-1.02-7.56-1.056-11.388c-0.043-4.592,0.979-6.944,4.24-10.305
			c2.692-2.773,5.344-5.502,7.888-8.42c1.026-1.177,2.074-2.422,3.355-3.334c-0.34,0.242-0.216,3.713-0.283,4.145
			c-0.539,3.458-2.093,6.888-4.293,9.595c-1.466,1.804-3.933,2.816-4.556,5.262c-1.339,5.256,1.383,9.743,3.544,14.408
			c4.705,10.153,18.484,20.884,11.079,32.961c-2.571,4.193-7.397,6.192-11.506,8.47c-3.386,1.877-6.772,3.753-10.158,5.63
			c0.649,0.084,1.297,0.167,1.946,0.251c-2.837-2.824-5.279-7.122-3.336-11.064c1.097-2.226,7.183-4.538,5.996-7.829
			c-0.697-1.933-3.802-1.1-3.098,0.854c0.005,0.015-5.04,4.452-5.671,5.354c-1.193,1.703-1.487,4.338-1.043,6.323
			c0.729,3.268,2.511,6.272,4.882,8.634c0.521,0.518,1.312,0.603,1.946,0.251c7.916-4.388,20.571-8.704,24.196-17.82
			c2.726-6.854,0.185-13.588-3.417-19.584c-3.515-5.853-7.598-10.786-10.414-17.061c-1.808-4.029-3.805-7.967,0.373-11.33
			c2.595-2.09,4.131-5.089,5.383-8.105c1.023-2.467,3.791-12.926-1.854-12.577c-2.517,0.156-4.795,3.671-6.237,5.324
			c-2.997,3.438-6.634,6.464-9.409,10.06c-4.593,5.953-2.927,15.252-1.594,22.15C626.776,260.129,629.871,259.267,629.48,257.243
			L629.48,257.243z"/>
	</g>
</g>
<g>
	<path fill="#DC4832" d="M695.492,336.785c-2.737,6.891-81.54,55.353-95.987,39.549c-18.04-19.733,44.735-72.268,44.735-72.268
		s-22.165-27.627-31.834-14.207c0,0-61.546,77.726-28.318,100.606c30.479,20.988,107.109-23.952,105.649-25.769
		C688.276,362.881,695.492,336.785,695.492,336.785z"/>
	<g>
		<path fill="#1D1B3A" d="M694.105,335.975c-1.399,3.064-6.002,5.526-8.6,7.369c-5.946,4.218-12.182,8.037-18.48,11.701
			c-14.528,8.45-29.945,16.435-46.211,20.926c-5.421,1.497-11.793,2.938-17.305,1.104c-5.519-1.836-6.183-8.744-5.201-13.562
			c3.032-14.887,16.148-28.143,26.258-38.694c6.582-6.87,13.514-13.5,20.81-19.616c0.721-0.604,0.51-1.639,0-2.271
			c-6.259-7.756-17.285-20.023-28.389-18.104c-3.447,0.595-5.505,3.587-7.468,6.171c-2.889,3.805-5.654,7.704-8.346,11.649
			c-8.758,12.835-16.695,26.376-22.516,40.811c-4.916,12.188-9.228,27.543-2.942,40.027c6.419,12.749,22.712,14.869,35.398,13.919
			c17.46-1.308,34.517-7.712,50.356-14.828c6.505-2.923,12.885-6.145,19.092-9.657c3.362-1.902,7.044-3.835,9.918-6.463
			c0.741-0.678,1.137-1.625,0.644-2.568c-0.88-1.684,1.058-7.097,1.471-8.987c1.294-5.938,2.83-11.83,4.446-17.688
			c0.552-2-2.547-2.848-3.098-0.854c-1.616,5.859-3.121,11.755-4.445,17.687c-0.662,2.962-1.306,5.965-1.542,8.996
			c-0.058,0.742-0.049,1.615,0.304,2.291c-0.661-1.265,0.704-1.668-0.729-0.574c-10.281,7.845-23.179,13.321-35.031,18.216
			c-16.198,6.69-34.341,12.675-52.091,11.24c-7.403-0.598-14.812-3.28-19.74-9.023c-4.457-5.193-5.147-12.507-4.665-19.044
			c0.93-12.612,6.59-24.915,12.315-35.987c5.405-10.451,11.743-20.429,18.508-30.048c2.866-4.074,7.074-12.294,12.752-12.317
			c6.056-0.026,12.072,5.694,16.167,9.528c2.616,2.448,5.109,5.09,7.36,7.88c0-0.757,0-1.515,0-2.271
			c-7.544,6.325-14.668,13.207-21.475,20.311c-10.191,10.638-21.37,22.944-25.863,37.285c-3.157,10.074,1.03,20.035,12.283,20.55
			c14.054,0.643,29.07-7.04,41.34-12.98c10.998-5.324,21.671-11.391,31.918-18.043c3.677-2.388,7.285-4.887,10.734-7.594
			c1.657-1.3,3.928-2.875,4.836-4.863C697.732,335.727,694.965,334.093,694.105,335.975z"/>
	</g>
</g>
</svg>
