<?xml version="1.0" encoding="utf-8"?>
<!-- Generator: Adobe Illustrator 16.0.4, SVG Export Plug-In . SVG Version: 6.00 Build 0)  -->
<!DOCTYPE svg PUBLIC "-//W3C//DTD SVG 1.1//EN" "http://www.w3.org/Graphics/SVG/1.1/DTD/svg11.dtd">
<svg version="1.1" id="lip:down" xmlns="http://www.w3.org/2000/svg" xmlns:xlink="http://www.w3.org/1999/xlink" x="0px" y="0px"
	 width="2440.785px" height="984.563px" viewBox="0 0 2440.785 984.563" enable-background="new 0 0 2440.785 984.563"
	 xml:space="preserve">
<g>
	<path fill="#DC4832" d="M714.879,263.448c-1.951,3.348-6.151,5.033-10.016,3.598c-2.93-1.021-8.357-7.679,5.188-7.853
		c10.55-0.136,13.019-2.191,13.019-2.191L714.879,263.448z"/>
	<g>
		<path fill="#1B1D3A" d="M713.493,262.638c-2.163,3.252-6.902,4.639-9.824,1.639c-2.842-2.917,3.597-3.342,5.167-3.442
			c4.627-0.295,11.392,0.42,15.369-2.696c-0.757-0.757-1.514-1.515-2.271-2.271c-2.73,2.148-5.46,4.298-8.19,6.446
			c-1.626,1.28,0.663,3.537,2.271,2.271c2.73-2.149,5.46-4.298,8.19-6.446c1.628-1.281-0.662-3.532-2.271-2.271
			c0.606-0.475-0.108,0.013-0.278,0.098c-0.568,0.286-1.217,0.437-1.826,0.604c-3.159,0.865-6.526,0.951-9.779,1.02
			c-3.312,0.071-9.401,0.24-10.301,4.449c-0.549,2.569,1.687,4.971,3.73,6.142c4.56,2.614,10.128,0.077,12.787-3.919
			C717.417,262.528,714.634,260.922,713.493,262.638z"/>
	</g>
</g>
<g>
	<g>
		<path fill="#1D1B3A" d="M710.086,272.86c-2.041,2.367-6.606,3.359-7.257-0.618c-0.334-2.04-3.429-1.172-3.098,0.854
			c1.047,6.393,9.061,6.171,12.626,2.036C713.703,273.571,711.441,271.289,710.086,272.86L710.086,272.86z"/>
	</g>
</g>
</svg>
