<?xml version="1.0" encoding="utf-8"?>
<!-- Generator: Adobe Illustrator 16.0.4, SVG Export Plug-In . SVG Version: 6.00 Build 0)  -->
<!DOCTYPE svg PUBLIC "-//W3C//DTD SVG 1.1//EN" "http://www.w3.org/Graphics/SVG/1.1/DTD/svg11.dtd">
<svg version="1.1" id="char1" xmlns="http://www.w3.org/2000/svg" xmlns:xlink="http://www.w3.org/1999/xlink" x="0px" y="0px"
	 width="2484.009px" height="946.07px" viewBox="0 0 2484.009 946.07" enable-background="new 0 0 2484.009 946.07"
	 xml:space="preserve">
<g>
	<g>
		<path fill="#F4EDE1" d="M803.519,551.576c-0.429-2.414-0.889-4.844-1.39-7.266c-0.824-3.834,6.474-6.324,8.074-2.545
			c0.097,0.293,0.197,0.598,0.317,0.891c0.028,0,0.028,0,0.028,0c0,0.029,0,0.07,0,0.08c0.114,0.285,0.196,0.557,0.309,0.83
			c0.317,0.285,0.557,0.605,0.749,0.996c0.141-0.078,0.248-0.154,0.401-0.209c0.71-2.35,3.77-3.574,5.978-3.004
			c4.408-2.377,9.495,2.578,5.104,5.371c-1.448,0.912-2.103,2.773-2.378,4.9c0.028,2.059,0,4.09-0.222,6.16
			c-0.028,0.145-0.1,0.234-0.125,0.389c-0.031,1.006-0.042,1.922-0.182,2.611c-0.182,1.25-1.112,2.117-2.24,2.711
			c0.291,0.986,0.588,1.98,0.833,2.977c0.822,2.854-2.441,4.498-5.142,4.152c-2.252,1.127-5.77,0.68-6.545-2
			c-0.057-0.174-0.097-0.363-0.166-0.549C804.49,562.812,803.695,557.279,803.519,551.576z"/>
	</g>
	<g>
		<path fill="#F4EDE1" d="M802.661,583.357c3.006-11.145,0.35-20.578-3.598-30.512l-3.725,13.951
			c2.654,0.996,4.001,1.502,4.96,3.396c-8.113-5.35-18.317-16.836-28.559-11.463c6.739,13.281,17.536,19.611,30.802,22.301
			c-11.54-3.57-27.064-17.055-37.353-11.689c8.953,13.33,26.34,25.525,36.127,38.434c13.704-7.168,40.374-16.334,41.226-35.98
			c1.945-15.404-18.542-29.576-25.66-41.463"/>
		<g>
			<path fill="#1D1B3A" d="M804.903,583.976c2.705-11.086,0.483-21.304-3.598-31.748c-0.791-2.024-3.845-2.396-4.484,0
				c-1.242,4.65-2.483,9.301-3.725,13.951c-0.352,1.315,0.435,2.404,1.624,2.86c1.497,0.312,2.687,1.087,3.57,2.328
				c1.061-1.061,2.121-2.121,3.182-3.182c-9.222-6.289-18.815-16.994-30.906-11.463c-1.188,0.543-1.379,2.148-0.834,3.182
				c6.785,12.864,18.137,20.366,32.192,23.369c2.936,0.627,4.084-3.537,1.236-4.484c-11.979-3.984-25.819-17.531-39.145-11.455
				c-1.093,0.499-1.504,2.214-0.834,3.182c10.202,14.738,25.54,24.81,36.49,38.904c0.654,0.841,1.974,0.8,2.818,0.363
				c14.838-7.664,34.134-13.924,40.939-30.735c8.368-20.672-15.221-34.954-24.54-49.89c-1.583-2.537-5.608-0.205-4.016,2.348
				c8.753,14.029,29.953,26.276,24.434,45.259c-4.592,15.796-26.173,22.292-39.166,29.003c0.939,0.121,1.879,0.242,2.818,0.363
				c-10.7-13.771-25.806-23.577-35.764-37.963c-0.278,1.061-0.556,2.121-0.834,3.182c6.207-2.83,13.594,1.305,19.065,4.089
				c5.431,2.764,10.688,5.903,16.496,7.835c0.412-1.495,0.824-2.989,1.236-4.484c-12.951-2.768-23.147-9.352-29.413-21.232
				c-0.278,1.061-0.556,2.121-0.834,3.182c9.583-4.384,19.04,6.571,26.211,11.463c1.938,1.321,4.407-1.263,3.182-3.182
				c-1.587-2.484-3.654-3.431-6.35-4.465c0.542,0.953,1.083,1.907,1.624,2.86c1.242-4.65,2.483-9.301,3.725-13.951
				c-1.495,0-2.99,0-4.484,0c3.756,9.612,6.104,19.003,3.598,29.275C799.708,585.652,804.193,586.889,804.903,583.976
				L804.903,583.976z"/>
		</g>
	</g>
</g>
<g>
	<path fill="#1D1B3A" d="M808.869,556.705c-7.284-0.537-117.792-71-115.834-89.383c4.628-43.883,89.052-108.816,128.974-135.488
		c11.189,20.557,16.778,57.09,8.381,79.434c-12.497,10.73-63.966,44.547-69.247,57.078c-3.651,8.576,62.919,58.807,62.919,58.807
		S818.183,557.371,808.869,556.705z"/>
</g>
<g>
	<path fill="#F2C132" d="M1006.06,103.258c0.74-5.059-4.936-25.154-9.767-27.439c-0.111-0.303-8.698-6.668-8.836-6.977
		c-1.608-2.867-5.074-4.66-8.836-6.51c-4.978-3.82-11.136-6.148-18.075-7.543c-1.516-0.295-3.059-0.498-4.54-0.678
		c-4.651-1.836-9.403-3.459-14.244-4.725c-17.106-4.467-34.435-5.186-51.38,0.514c-0.073,0.031-0.2,0.068-0.277,0.092
		c-0.072,0.031-0.161,0.078-0.25,0.115c-0.087,0.037-0.161,0.061-0.263,0.111c-1.342,0.672-2.016,1.926-2.108,3.244
		c-2.579,0.463-5.128,1.031-7.659,1.742c1.089-1.711,2.016-3.475,2.796-5.291c-2.362,2.643-6.536,2.904-9.207,0.562
		c-0.175-0.168-0.39-0.332-0.616-0.502c-2.067-1.842-2.985-5.336-1.49-7.85c1.04-1.748,1.97-3.568,2.869-5.443
		c0.25-0.779,0.555-1.572,0.793-2.377c-1.181-1.02-2.006-2.48-2.083-4.375c-0.062-2.594,0.075-5.119,0.37-7.617
		c-0.017-0.033-0.032-0.068-0.049-0.1c-0.557-0.377-1.102-0.746-1.638-1.076c0.176-0.301,0.302-0.627,0.395-0.963
		c-0.61-0.896-1.278-1.777-2.012-2.648c-0.701-0.832-0.958-1.746-0.917-2.621c-4.496-3.57-2.836-7.865-8.078-9.312
		c-2.671-1.658-12.601-0.375-15.896-0.695c-1.278-0.111-2.355,0.244-3.172,0.887c-0.187,0.01-0.375,0.01-0.579,0.037
		c-15.186,0-31.086,6.121-43.101,14.242c-11.335,7.664-22.648,19.314-26.773,32.314c-3.672,6.188-6.196,12.777-6.874,19.482
		c-2.081,20.633,15.539,26.217,32.432,26.197c-7.965,11.174-13.181,24.527-14.434,40.078c-2.233,27.602,1.591,57.889,13.744,83.02
		c9.343,19.348,26.061,40.607,46.98,42.553c0.436,1.711,1.276-0.854,3.493-0.758c-1.151-0.055,0.867,0.242,0.842,0.234
		c0.764,0.182,1.594,0.375,2.305,0.596c1.103,0.287,2.201,0.562,3.215,0.973c2.445,0.949,18.291,3.432,18.98,1.281
		c0.188-0.053-6.64-5.508-6.511-5.58c1.113-0.145-0.16-3.338,0.53-4.793c0.212-0.447-2.315,0.771-3.67,2.896
		c0.789-1.789-0.342-3.693-2.033-4.615c-2.307-14.52-6.973-28.676-12.103-42.428c-0.688-1.863-2.233-2.637-4.139-2.725
		c-13.314-0.723-22.609-15.711-23.94-27.82c-0.499-4.24-0.826-11.16,3.161-14.09c5.61-4.166,13.308-0.928,18.902,1.662
		c2.721,1.268,6.206-0.74,5.915-3.914c-1.454-15.744,2.671-31.359,18.062-38.523c13.77-6.426,29.445-7.432,44.458-7.658
		c12.676-0.229,25.417,0.342,38.109,0.24c9.453-0.074,19.99,0.035,28.929-3.43C990.39,110.381,1003.269,122.326,1006.06,103.258z"/>
</g>
<g>
	<g>
		<path fill="#1D1B3A" d="M872.284,53.302c5.254-14.298,7.553-34.503-4.732-45.991c-7.163-6.699-17.826-6.927-27.018-6.339
			c-12.051,0.771-23.728,4.69-34.347,10.307c-10.863,5.745-20.178,13.886-28.027,23.272c-7.412,8.863-14.527,19.527-16.093,31.232
			c-3.128,23.378,16.928,35.957,37.912,36.499c3.001,0.078,2.993-4.573,0-4.65c-8.835-0.229-17.867-2.331-24.914-7.918
			c-8.564-6.791-10.072-17.878-7.405-27.919c2.75-10.354,9.819-19.487,16.743-27.41c7.162-8.196,15.945-14.761,25.54-19.835
			c9.447-4.997,19.958-8.019,30.592-8.928c8.449-0.722,17.93-0.448,24.451,5.651c10.562,9.878,7.194,28.873,2.814,40.792
			C866.763,54.887,871.258,56.093,872.284,53.302L872.284,53.302z"/>
	</g>
</g>
<g>
	<g>
		<path fill="#1D1B3A" d="M821.508,12.219c4.287,6.604,9.903,12.082,15,18.038c6.809,7.957,9.959,17.192,10.581,27.562
			c0.178,2.979,4.83,2.997,4.65,0c-0.541-9.033-2.667-17.529-7.618-25.188c-5.34-8.261-13.233-14.496-18.597-22.76
			C823.897,7.366,819.87,9.694,821.508,12.219L821.508,12.219z"/>
	</g>
</g>
<g>
	<g>
		<path fill="#1D1B3A" d="M804.397,19.395c0.031,18.848,6.923,37.64,18.242,52.621c1.784,2.36,5.825,0.048,4.016-2.348
			c-10.852-14.363-17.577-32.181-17.607-50.273C809.043,16.396,804.392,16.396,804.397,19.395L804.397,19.395z"/>
	</g>
</g>
<g>
	<g>
		<path fill="#1D1B3A" d="M780.454,53.97c2.219,16.02,15.005,27.258,29.652,32.429c2.835,1.001,4.044-3.493,1.236-4.484
			c-13.257-4.681-24.407-14.762-26.404-29.181C784.528,49.773,780.047,51.038,780.454,53.97L780.454,53.97z"/>
	</g>
</g>
<g>
	<path fill="#F4EDE1" d="M812.394,170.414c-0.369-1.361,1.967-4.619,1.917-6.275c-0.085-2.377,4.214-3.324,6.443-3.6
		c2.8-0.363,2.911-4.809,5.608-5.652c1.695-1.697,6.586,0.811,9.581,0.555c1.832-0.15,3.525,0.131,5.145,0.709
		c1.375-10.215,2.25-24.598,8.244-32.895c3.921-10.014,13.65-13.947,22.954-19.914c3.187-3.436,7.714-5.824,13.232-6.635
		c1.189-0.166,2.656-1.668,3.81-1.82c2.021-0.453,5.825-2.107,7.906-2.324c3.273-5.676,7.194-6.773,14.166-7.814
		c14.51-2.152,28.982-1.221,42.6,2.842c0.754-0.412,1.116-2.568,2.168-2.244c3.477,1.047,5.908-1.027,9.257,0.176
		c1.015-0.684,5.73,3.016,7.172,3.773c5.52,2.898,9.22,7.051,14.36,10.541c1.229,0.828,11.354,9.197,11.518,10.371
		c8.516,7.385,5.904,9.139,10.429,20.178c2.131,5.232,4.998,9.765,5.775,15.317c2.007,6.197,5.294,12.883,6.173,19.291
		c0.303,2.176-0.136,6.694,0,8.874c8.101,32.148-6.583,60.025-32.815,80.398c-13.205,10.248-29.159,17.445-45.786,22.174
		c0.461,5.805,0.213,11.553-0.827,17.084c0.564,2.58,1.254,5.135,1.98,7.668c-1.896,8.309,6.383,20.562,7.312,29.348
		c0.187,1.967-8.932-0.527-7.701,0.471c-0.14,0.166-0.25,0.35-0.391,0.498c-1.029,1.086-2.056,2.021-3.059,2.869
		c-2.322,2.455-5.179,4.375-8.237,5.465c-3.351,1.18-7.124,1.711-10.711,1.967c-6.883,0.504-31.963,1.32-35.729-4.693
		c-10.445-1.988-1.43-16.371,1.094-28.697c2.093-10.566,1.919-20.781-0.715-30.859c-0.153-0.18-0.379-0.342-0.503-0.52
		c-1.707-0.781-3.373-1.848-4.969-3.234c-18.607-16.422-27.915-38.701-29.117-62.457c-1.653-0.307-3.284-0.754-4.867-1.361
		c-0.362-0.129-6.168-1.248-8.311-1.879c-6.672-1.967-12.469-5.266-17.696-9.984C811.3,190.441,805.932,178.59,812.394,170.414z"/>
</g>
<g>
	<g>
		<path fill="#1D1B3A" d="M917.442,282.405c23.612,1.697,46.967-3.474,66.475-17.187c14.815-10.414,26.968-25.483,34.036-42.163
			c14.195-33.501,7.695-77.281-11.201-107.61c-8.843-14.192-21.519-25.601-37.111-31.812c-2.789-1.111-3.987,3.389-1.236,4.484
			c38.208,15.225,53.236,61.682,52.042,99.633c-0.573,18.219-5.736,35.007-16.017,50.066c-12.112,17.741-30.09,30.79-50.716,36.737
			c-11.768,3.394-24.107,4.075-36.272,3.201C914.448,277.539,914.469,282.191,917.442,282.405L917.442,282.405z"/>
	</g>
</g>
<g>
	<g>
		<path fill="#1D1B3A" d="M940.026,156.752c-0.082,21.542,25.73,22.674,39.662,31.43c-0.157-1.218-0.313-2.435-0.47-3.652
			c-5.994,5.322-14.879,7.522-22.65,8.378c-7.548,0.83-17.754,0.337-22.418-6.646c-1.657-2.479-5.687-0.154-4.016,2.348
			c5.521,8.264,16.066,9.653,25.268,9.051c9.375-0.614,19.943-3.482,27.105-9.842c1.158-1.028,0.735-2.895-0.47-3.652
			c-12.009-7.548-37.429-8.954-37.359-27.414C944.688,153.752,940.038,153.754,940.026,156.752L940.026,156.752z"/>
	</g>
</g>
<g>
	<g>
		<path fill="#1D1B3A" d="M975.282,146.426c-0.768,6.807,0.372,14.218-3.406,20.289c1.061-0.278,2.121-0.556,3.182-0.834
			c-4.882-3.329-5.836-10.125-5.412-15.579c0.166-2.128,0.753-4.655,2.267-6.24c1.508-1.58,3.993,1.925,4.729,2.854
			c1.86,2.351,5.128-0.964,3.288-3.289c-5.339-6.747-12.165-5.111-14.354,3.059c-2.142,7.995,0.043,18.376,7.134,23.211
			c1.069,0.729,2.548,0.184,3.182-0.834c4.278-6.875,3.172-14.938,4.041-22.637C980.269,143.448,975.614,143.48,975.282,146.426
			L975.282,146.426z"/>
	</g>
</g>
<g>
	<g>
		<path fill="#1D1B3A" d="M984.686,81.312c-29.618,0.201-59.696,0.074-88.618,7.338c-13.697,3.44-27.361,8.9-38.019,18.395
			c-10.36,9.229-15.471,22.224-15.622,35.952c-0.098,8.975,1.952,17.934,4.717,26.417c1.495-0.412,2.99-0.824,4.484-1.236
			c-3.305-9.925-11.449-17.996-22.54-16.855c-11.775,1.211-18.829,12.589-20.204,23.431c-1.512,11.921,8.087,22.503,16.73,29.394
			c4.805,3.831,17.05,12.583,22.339,5.019c-1.444-0.392-2.889-0.782-4.333-1.174c2.869,21.363,11.392,47.143,29.69,60.274
			c2.834,2.034,5.323,2.635,7.051,5.82c1.892,3.49,2.552,7.814,3.04,11.698c1.156,9.2,0.708,18.77-0.793,27.9
			c-0.601,3.652-1.477,7.272-2.764,10.745c-0.808,2.181-2.87,4.116-3.201,6.413c-0.673,4.67,4.432,7.559,8,9.201
			c14.415,6.637,33.447,6.856,48.198,1.381c5.766-2.141,10.966-5.541,15.112-10.086c2.017-2.211-1.263-5.509-3.288-3.289
			c-12.504,13.709-34.402,14.486-51.269,10.146c-1.9-0.489-13.046-3.463-12.128-6.781c0.575-2.079,2.542-4.346,3.34-6.5
			c1.436-3.872,2.194-8.005,2.815-12.074c1.362-8.921,1.626-18.084,0.629-27.056c-0.678-6.102-1.899-13.738-6.727-18.075
			c-2.949-2.649-6.787-4.077-9.766-6.875c-4.51-4.236-7.928-9.546-10.936-14.906c-6.492-11.569-10.589-24.813-12.352-37.937
			c-0.306-2.282-2.925-3.188-4.333-1.174c-2.868,4.102-15.601-6.366-17.573-8.061c-6.174-5.309-13.099-13.149-13.063-21.779
			c0.038-8.947,5.839-18.487,14.714-20.784c9.205-2.382,16.468,5.235,19.127,13.221c0.942,2.828,5.417,1.627,4.484-1.236
			c-5.039-15.463-7.258-32.752,1.159-47.462c7.016-12.26,20.206-19.53,33.091-24.144c28.797-10.31,60.719-10.424,90.939-10.569
			c2.623-0.013,5.245-0.022,7.868-0.04C987.684,85.941,987.686,81.291,984.686,81.312L984.686,81.312z"/>
	</g>
</g>
<g>
	<g>
		<path fill="#1D1B3A" d="M786.815,146.143c2.212-21.983,11.539-41.882,27.317-57.367c13.509-13.259,30.783-22.322,48.558-28.428
			c19.327-6.638,39.822-9.521,60.215-9.56c25.762-0.048,53.483,4.959,71.274,25.048c7.405,8.362,13.25,19.896,8.956,31.034
			c-1.081,2.803,3.417,4.004,4.484,1.236c7.922-20.548-12.641-42.475-29.601-50.976c-22.976-11.517-50.798-12.414-75.878-9.937
			c-35.571,3.516-72.726,16.849-96.907,44.198c-13.548,15.323-21.035,34.523-23.07,54.75
			C781.864,149.126,786.518,149.097,786.815,146.143L786.815,146.143z"/>
	</g>
</g>
<g>
	<g>
		<path fill="#1D1B3A" d="M783.82,146.338c-3.3,33.512,3.052,68.184,24.456,94.944c11.743,14.681,32.01,30.66,52.159,28.195
			c2.938-0.359,2.973-5.014,0-4.65c-19.156,2.343-37.637-13.088-48.871-26.833c-20.797-25.447-26.234-59.767-23.094-91.656
			C788.764,143.354,784.111,143.382,783.82,146.338L783.82,146.338z"/>
	</g>
</g>
<g>
	<g>
		<path fill="#1D1B3A" d="M915.49,116.991c-8.548,0.443-16.896,4.13-24.519,7.763c-4.905,2.338-14.416,6.106-16.314,11.896
			c-0.938,2.858,3.554,4.072,4.484,1.236c0.507-1.547,3.239-2.918,4.482-3.745c3.075-2.045,6.383-3.749,9.695-5.371
			c6.751-3.306,14.555-6.732,22.172-7.128C918.473,121.487,918.488,116.835,915.49,116.991L915.49,116.991z"/>
	</g>
</g>
<g>
	<g>
		<path fill="#1D1B3A" d="M939.41,283.322c-0.219,10.667-0.256,21.627,2.324,32.054c1.455,5.878,4.417,11.041,7.26,16.321
			c1.422,2.641,5.438,0.293,4.016-2.348c-2.535-4.707-5.104-9.229-6.578-14.407c-2.883-10.132-2.585-21.2-2.372-31.62
			C944.122,280.321,939.471,280.327,939.41,283.322L939.41,283.322z"/>
	</g>
</g>
<g>
	<g>
		<path fill="#1D1B3A" d="M830.311,170.082c3.948,3.714,8.645,12.494,3.849,17.178c-2.149,2.099,1.142,5.385,3.288,3.289
			c6.758-6.599,2.044-18.212-3.848-23.756C831.418,164.74,828.123,168.022,830.311,170.082L830.311,170.082z"/>
	</g>
</g>
<g>
	<g>
		<path fill="#1D1B3A" d="M991.123,128.085c-3.444-9.915-20.466-13.046-29.315-10.157c-2.838,0.927-1.623,5.418,1.236,4.484
			c6.153-2.009,21.073-0.35,23.595,6.909C987.616,132.136,992.109,130.926,991.123,128.085L991.123,128.085z"/>
	</g>
</g>
<g>
	<g>
		<path fill="#1D1B3A" d="M936.786,82.873c-13.189-6.358-26.313-12.872-40.423-16.962c-15.534-4.502-31.286-1.073-47.127-2.109
			c-2.996-0.196-2.977,4.456,0,4.65c14.764,0.966,29.59-2.251,44.124,1.462c14.405,3.681,27.757,10.553,41.079,16.975
			C937.127,88.185,939.487,84.175,936.786,82.873L936.786,82.873z"/>
	</g>
</g>
<g>
	<g>
		<path fill="#1D1B3A" d="M886.184,90.547c-8.884-3.197-16.887-8.217-25.504-12.005c-8.523-3.746-17.406-5.252-26.68-4.4
			c-2.961,0.271-2.987,4.925,0,4.65c9.984-0.917,18.958,1.155,27.951,5.42c7.681,3.643,14.969,7.93,22.998,10.819
			C887.777,96.05,888.984,91.555,886.184,90.547L886.184,90.547z"/>
	</g>
</g>
<g>
	<path fill="#DC4832" d="M935.578,218.18c1.665,0.102,4.148,0.465,6.935,0.727c4.075-3.064,9.869-4.105,14.835-4.627
		c0.879-0.092,1.603,0.109,2.143,0.482c2.811-2.02,9.549,0.543,7.408,4.102c-3.312,5.434-11.883,7.416-18.503,7.426
		c2.03,1.291,4.1,2.545,6.256,3.688c2.607,1.377,6.621,6.893,3.486,7.412c-4.341,0.711-13.504-0.068-16.993-3.152
		c-1.869-1.641-3.121-3.91-3.335-6.273c-1.354-0.967-2.711-1.969-4.048-2.971C931.111,223.043,931.573,217.938,935.578,218.18z"/>
</g>
<g>
	<g>
		<path fill="#1D1B3A" d="M946.499,230.391c7.886,2.685,33.972-10.499,21.32-18.326c-5.301-3.279-15.367,0.621-20.674,1.975
			c-7.867,2.007-17.735,6.183-25.975,4.785c-2.933-0.498-4.188,3.983-1.236,4.484c5.272,0.895,10.731-0.409,15.861-1.584
			c7.085-1.622,14.042-3.764,21.169-5.21c3.588-0.729,13.387-1.7,7.02,3.909c-3.505,3.088-11.464,7.111-16.25,5.482
			C944.888,224.938,943.676,229.43,946.499,230.391L946.499,230.391z"/>
	</g>
</g>
<g>
	<g>
		<path fill="#1D1B3A" d="M945.405,229.885c2.978,0.845,5.962,1.767,8.755,3.114c0.903,0.437,1.775,0.936,2.599,1.508
			c0.199,0.138,0.242,0.177,0.588,0.499c0.141,0.131,0.27,0.273,0.398,0.417c0.395,0.442-0.261-0.389,0.038,0.069
			c0.362,0.556-0.06-0.364,0.105,0.216c0.051,0.248,0.043,0.164-0.024-0.25c0.019,0.194-0.07,0.589,0.052-0.149
			c-0.096,0.578,0.273-0.419-0.03,0.1c-0.232,0.397,0.371-0.425,0.052-0.067c-0.091,0.102-0.196,0.192-0.299,0.282
			c0.598-0.522-1.235,0.581-0.667,0.354c-0.684,0.274-1.406,0.449-2.128,0.592c-2.846,0.561-6.59,0.16-9.725-1.012
			c-3.125-1.167-5.495-3.536-6.132-7.003c-0.542-2.947-5.023-1.695-4.484,1.236c1.79,9.738,13.693,13.066,22.203,11.13
			c3.417-0.777,7.134-3.475,5.3-7.384c-0.876-1.867-2.866-3.134-4.604-4.092c-3.347-1.845-7.103-3.007-10.761-4.044
			C943.75,224.58,942.525,229.068,945.405,229.885L945.405,229.885z"/>
	</g>
</g>
<g>
	<path fill="#1D1B3A" d="M1007.918,448.363c7.04-13.422-1.237-32.469-8.612-45.096c-5.227-5.861-10.765-11.916-12.659-19.441
		c-2.969-11.795-5.203-23.971-5.789-36.139c-0.262-5.43-0.585-11.037,0.472-16.408c0.896-4.545,2.391-8.967,3.134-13.533
		c-2.981-1.373-5.717-2.283-8.151-2.652c-5.07-0.756-10.708-1.102-16.467-1.195c0.542,1.828,0.16,3.875-1.642,5.619
		c-20.72,20.016-51.092,14.609-71.917-2.027c-21.063,0.939-45.264,2.619-49.526,5.426c-1.476,0.975-6.453,4.105-13.638,8.918
		c10.657,19.582-7.521,72.877-7.521,72.877s36.727,94.873,16.629,137.955c-59.487,127.582-18.538,339.24-22.532,362.264
		c-5.523,31.756,178.597,1.453,178.597,1.453s29.704-255.668-17.957-343.811C923.243,475.529,996.44,470.121,1007.918,448.363z"/>
	<g>
		<path fill="#1D1B3A" d="M1009.926,449.537c4.289-8.879,3.256-18.458,0.462-27.637c-1.414-4.647-3.453-9.123-5.613-13.463
			c-2.458-4.939-5.511-8.572-9.009-12.787c-8.651-10.425-10.223-25.329-11.794-38.362c-0.748-6.2-1.078-12.499-1.035-18.743
			c0.049-6.933,2.539-13.432,3.769-20.181c0.172-0.94-0.071-2.19-1.068-2.626c-8.236-3.595-16.898-3.976-25.792-4.165
			c-1.609-0.034-2.514,1.502-2.242,2.943c0.7,3.719-5.229,7.013-7.674,8.654c-3.003,2.016-6.318,3.505-9.726,4.682
			c-5.98,2.064-12.351,2.471-18.616,2.016c-6.666-0.484-13.259-2.535-19.332-5.247c-2.65-1.185-5.182-2.614-7.664-4.113
			c-2.354-1.422-5.114-4.552-7.687-5.26c-2.632-0.724-6.55,0.196-9.272,0.339c-4.017,0.211-8.031,0.461-12.043,0.739
			c-6.201,0.429-12.413,0.938-18.572,1.79c-3.721,0.515-7.603,0.967-11.042,2.566c-4.908,2.283-9.546,6.152-14.027,9.144
			c-1.095,0.731-1.443,2.003-0.834,3.182c3.857,7.466,3.312,16.788,2.617,24.903c-0.814,9.507-2.835,18.922-5.151,28.164
			c-1.432,5.711-3.054,11.383-4.877,16.981c-0.661,2.032,0.044,3.274,0.754,5.218c11.318,30.94,20.475,64.223,21.416,97.289
			c0.262,9.201-0.346,18.479-2.646,27.414c-2.395,9.307-7.339,17.985-10.741,26.964c-7.973,21.042-13.264,43.05-17.07,65.197
			c-7.733,45.008-9.004,91.001-7.627,136.562c1.101,36.424,4.365,72.693,7.751,108.96c0.918,9.827,2.082,19.738,2.114,29.62
			c0.02,6.053-1.037,10.781,5.132,14.817c7.87,5.149,19.097,5.647,28.156,6.231c14.612,0.94,29.334,0.323,43.932-0.58
			c28.879-1.787,57.665-5.291,86.294-9.423c5.922-0.855,11.842-1.731,17.746-2.702c1.088-0.179,1.596-1.287,1.707-2.242
			c5.538-47.744,8.209-96.008,8.986-144.043c0.627-38.795-0.232-77.785-4.888-116.338c-2.048-16.957-4.892-33.862-9.325-50.369
			c-1.938-7.215-4.25-14.331-7.027-21.267c-3.211-8.021-7.531-15.453-11.212-23.253c-6.589-13.964-11.958-30.158-9.583-45.787
			c1.56-10.262,7.043-18.956,14.51-25.97c6.651-6.249,14.579-10.908,22.211-15.827
			C1000.058,459.814,1006.544,455.727,1009.926,449.537c1.438-2.633-2.578-4.979-4.016-2.348
			c-4.34,7.942-14.352,12.519-21.641,17.234c-9.825,6.357-19.281,13.597-25.417,23.76c-7.851,13.003-7.545,28.607-3.981,42.91
			c4.58,18.378,15.504,34.042,21.737,51.778c11.651,33.15,15.012,69.254,17.028,104.108c2.228,38.511,1.769,77.17,0.109,115.693
			c-1.491,34.602-3.785,69.293-7.776,103.709c0.569-0.747,1.138-1.495,1.707-2.242c-17.723,2.913-35.55,5.276-53.386,7.372
			c-30.32,3.564-61.26,6.85-91.822,5.255c-8.948-0.467-20.301-0.809-27.969-6.11c-4.279-2.958-2.114-10.074-2.298-14.549
			c-1.167-28.328-5.127-56.593-7.167-84.871c-3.153-43.718-4.327-87.672-1.346-131.433c3.096-45.444,10.669-91.834,29.479-133.636
			c7.511-16.692,8.255-34.371,6.648-52.42c-1.712-19.22-6.008-38.203-11.235-56.745c-3.056-10.84-6.486-21.608-10.449-32.154
			c-0.635-1.69-0.518,1.176-0.109-0.056c0.639-1.926,1.235-3.866,1.82-5.809c2.309-7.675,4.271-15.456,5.871-23.31
			c2.83-13.894,6.266-31.759-0.583-45.016c-0.278,1.061-0.556,2.121-0.834,3.182c4.621-3.085,9.214-6.357,14.026-9.143
			c4.313-2.497,11.389-2.313,16.158-2.799c7.697-0.782,15.428-1.242,23.152-1.662c3.465-0.188,6.922-1.122,9.789,1.029
			c3.102,2.329,6.45,4.309,9.882,6.106c11.479,6.011,24.551,8.538,37.381,6.613c6.757-1.015,13.176-3.837,18.817-7.623
			c4.672-3.136,9.749-6.908,8.586-13.084c-0.748,0.981-1.495,1.962-2.242,2.943c7.958,0.17,16.046,0.302,23.444,3.53
			c-0.356-0.875-0.712-1.751-1.068-2.626c-0.975,5.347-2.886,10.546-3.521,15.95c-0.72,6.135-0.354,12.306,0.07,18.452
			c0.413,5.983,1.3,11.938,2.342,17.842c1.076,6.099,2.04,12.835,4.468,18.562c1.931,4.554,4.766,8.438,7.907,12.223
			c3.537,4.263,6.209,8.364,8.609,13.366c4.824,10.053,8.972,22.985,3.812,33.666
			C1004.612,449.877,1008.622,452.237,1009.926,449.537z"/>
	</g>
</g>
<g>
	<path fill="#FFFFFF" d="M965.94,309.595c-3.928,0.252-16.567,118.245-24.061,118.284c-9.228,0.08-79.712-119.104-79.712-119.104
		l-35.314,4.604c0,0,55.634,100.334,0.638,168.662c-3.269,4.07,12.83,37.084,2.248,62.855
		c-29.495,72.094-4.041,300.033-4.041,300.033s145.113,13.465,181.167-10.172c4.54-2.965,22.815-170.871-12.888-281.205
		c-7.495-23.16-22.368-44.607-10.81-65.123c11.491-20.5,30.05-28.367,31.994-44.299c1.934-15.928-6.354-32.938-16.352-50.086
		c-10.012-17.133,1.585-78.298,1.585-78.298L965.94,309.595z"/>
	<g>
		<path fill="#1D1B3A" d="M965.322,307.353c-2.378,0.542-2.888,4.275-3.344,6.193c-1.173,4.93-1.969,9.957-2.799,14.952
			c-2.552,15.349-4.754,30.755-7.18,46.124c-2.219,14.061-4.341,28.24-7.779,42.067c-0.67,2.694-1.602,7.449-3.214,9.152
			c0.775-0.818,1.631,0.29,0.335-0.738c-1.32-1.047-2.458-2.337-3.57-3.595c-7.312-8.275-13.39-17.764-19.505-26.927
			c-8.46-12.678-16.599-25.569-24.648-38.511c-9.983-16.052-19.818-32.201-29.441-48.471c-0.376-0.636-1.223-1.254-2.008-1.151
			c-11.771,1.535-23.542,3.069-35.314,4.604c-1.714,0.224-2.941,1.81-2.008,3.499c12.77,23.104,20.713,50.227,23.625,76.337
			c2.504,22.456,0.433,45.63-8.649,66.482c-2.285,5.246-5.094,10.249-8.193,15.053c-2.093,3.244-6.666,6.882-6.882,10.918
			c-0.395,7.366,2.972,15.453,4.37,22.606c2.392,12.232,3.115,25.019-1.077,36.941c-2.171,6.175-4.367,12.188-5.926,18.566
			c-3.72,15.216-5.517,30.915-6.802,46.5c-3.139,38.059-2.5,76.445-0.954,114.564c1.657,40.85,4.485,81.769,9.017,122.408
			c0.151,1.354,0.95,2.198,2.325,2.325c21.792,2.017,43.712,3.068,65.586,3.586c18.495,0.438,37.022,0.349,55.491-0.788
			c15.723-0.967,31.798-2.523,46.949-7.047c5.002-1.493,10.677-3.381,14.838-6.646c1.462-1.147,1.77-4.264,2.114-5.915
			c2.236-10.754,3.166-21.855,4.132-32.778c3.652-41.259,4.08-82.936,1.626-124.273c-1.422-23.962-4.024-47.878-8.239-71.515
			c-2.071-11.615-4.626-23.144-7.699-34.535c-3.431-12.717-8.149-24.795-12.979-37.027c-5.204-13.178-9.432-27.398-2.343-40.713
			c5.815-10.922,15.4-18.872,23.484-27.987c7.098-8.004,9.831-16.474,8.829-27.164c-1.337-14.267-8.692-27.662-15.677-39.866
			c-7.558-13.207-4.981-31.624-3.638-46.115c0.997-10.746,2.461-21.498,4.464-32.105c0.218-1.152-0.304-2.625-1.624-2.86
			c-11.485-2.051-22.97-4.102-34.455-6.152c-2.932-0.523-4.186,3.958-1.236,4.484c11.485,2.051,22.97,4.102,34.455,6.152
			c-0.542-0.953-1.083-1.907-1.624-2.86c-2.219,11.751-3.773,23.671-4.833,35.578c-0.812,9.108-1.242,18.303-0.611,27.436
			c0.588,8.508,2.878,14.847,7.033,22.216c7.383,13.093,15.313,28.753,13.011,44.278c-1.534,10.343-11.5,17.985-18.259,25.093
			c-7.973,8.384-16.333,18.616-17.612,30.53c-1.415,13.178,3.852,25.692,8.703,37.648c18.431,45.427,24.242,95.488,26.673,144.116
			c2.012,40.249,1.257,80.826-2.586,120.95c-0.914,9.542-1.639,19.451-4.06,28.764c-0.236,0.908-0.741,1.865-0.281,1.276
			c-1.166,1.491-4.794,2.585-6.525,3.297c-6.246,2.573-12.919,4.104-19.536,5.363c-34.771,6.611-71.427,5.358-106.62,3.907
			c-15.661-0.646-31.34-1.533-46.95-2.978c0.775,0.774,1.55,1.55,2.325,2.325c-5.734-51.426-9.022-103.313-9.999-155.038
			c-0.69-36.583-0.512-73.756,5.186-109.984c1.118-7.107,2.534-14.173,4.384-21.128c1.958-7.362,5.323-14.318,6.925-21.753
			c2.381-11.045,0.973-22.63-1.169-33.587c-0.866-4.43-1.963-8.811-2.96-13.211c-0.649-2.866-1.821-5.773,0.051-8.202
			c24.331-31.564,27.427-72.033,19.717-109.974c-4.164-20.492-11.14-41.469-21.298-59.848c-0.669,1.166-1.338,2.333-2.008,3.499
			c11.771-1.534,23.542-3.069,35.314-4.604c-0.669-0.384-1.338-0.768-2.008-1.151c11.159,18.865,22.591,37.577,34.235,56.146
			c8.534,13.61,17.192,27.156,26.325,40.374c5.264,7.619,10.724,16.965,18.246,22.629c6.047,4.554,8.435-6.209,9.441-10.01
			c3.409-12.868,5.345-26.181,7.453-39.307c2.424-15.094,4.62-30.223,7.035-45.318c0.876-5.476,1.772-10.952,2.859-16.391
			c0.345-1.723,0.717-3.442,1.178-5.138c0.566-2.087,1.119-1.438-0.372-1.098C969.482,311.17,968.242,306.687,965.322,307.353z"/>
	</g>
</g>
<g>
	<g>
		<path fill="#1D1B3A" d="M902.755,474.864c-14.111-1.559-29.214-5.813-41.904-12.202c-2.671-1.345-5.027,2.667-2.348,4.016
			c13.496,6.795,29.255,11.182,44.251,12.837C905.734,479.844,905.702,475.189,902.755,474.864L902.755,474.864z"/>
	</g>
</g>
</svg>
