<?xml version="1.0" encoding="utf-8"?>
<!-- Generator: Adobe Illustrator 16.0.4, SVG Export Plug-In . SVG Version: 6.00 Build 0)  -->
<!DOCTYPE svg PUBLIC "-//W3C//DTD SVG 1.1//EN" "http://www.w3.org/Graphics/SVG/1.1/DTD/svg11.dtd">
<svg version="1.1" id="char1-armright2" xmlns="http://www.w3.org/2000/svg" xmlns:xlink="http://www.w3.org/1999/xlink" x="0px"
	 y="0px" width="2484.009px" height="946.07px" viewBox="0 0 2484.009 946.07" enable-background="new 0 0 2484.009 946.07"
	 xml:space="preserve">
<g>
	<path fill="#F4EDE1" d="M1211.039,453.553c13.613,0.848,12.671,8.264,23.029,9.584c10.619,1.355,44.286,5.717,50.241,2.314
		c13.612-7.656,25.333-48.672,8.318-47.822c5.956-2.553,48.644-0.744,46.28-10.998c-2.554-11.057-77.007-0.736-81.261-2.439
		l15.754,16.053c-5.956-9.357-18.715-19.566-26.373-20.418c-7.656,0-22.118,19.566-33.177,22.971"/>
</g>
<g>
	<path fill="#1D1B3A" d="M976.664,344.223c0,0,19.378-29.785,32.186-17.73c12.808,12.053,88.396,100.555,102.719,101.986
		c22.602,2.262,98.696-6.027,98.696-6.027l3.012,33.15c0,0-87.394,21.096-118.284,9.039c-25.74-10.043-87.105-45.479-87.105-45.479
		S937.087,338.098,976.664,344.223z"/>
	<g>
		<path fill="#1D1B3A" d="M978.671,345.396c5.077-7.751,19.186-26.378,29.248-16.573c8.684,8.462,16.598,17.796,24.753,26.758
			c12.23,13.441,24.5,26.852,37.102,39.946c10.149,10.548,20.434,21.33,32.082,30.254c5.538,4.243,9.799,5.238,16.738,5.386
			c12.102,0.256,24.251-0.592,36.316-1.426c18.478-1.277,36.942-2.962,55.355-4.965c-0.775-0.775-1.55-1.55-2.325-2.325
			c1.004,11.05,2.008,22.101,3.012,33.15c0.569-0.747,1.138-1.495,1.707-2.242c-27.986,6.74-57.07,11.854-85.874,12.623
			c-8.376,0.224-16.901-0.002-25.117-1.778c-7.366-1.594-14.309-5.265-21.054-8.506c-17.595-8.455-34.742-17.87-51.792-27.366
			c-5.338-2.974-10.661-5.976-15.968-9.004c-1.181-0.674-2.361-1.35-3.54-2.028c-0.134-0.077,0.396,0.427-0.406-0.504
			c-6.218-7.216-12.186-14.657-17.923-22.259c-7.797-10.331-15.543-21.105-20.986-32.9c-1.637-3.547-3.732-8.287-2.875-12.297
			c0.815-3.809,6.054-3.287,8.921-2.875c2.932,0.422,4.195-4.06,1.236-4.484c-9.429-1.354-16.45,2.425-14.542,12.746
			c2.21,11.959,10.78,23.347,17.594,33.061c7.012,9.996,14.6,19.604,22.446,28.956c4.091,4.874,8.458,7.029,14.098,10.219
			c16.183,9.149,32.484,18.106,49.027,26.592c14.086,7.225,28.149,14.976,44.116,16.596c18.467,1.873,37.471-0.548,55.743-3.182
			c14.699-2.118,29.32-4.88,43.811-8.127c1.442-0.323,2.883-0.651,4.32-0.997c0.934-0.225,1.797-1.249,1.707-2.242
			c-1.004-11.05-2.008-22.101-3.012-33.15c-0.104-1.151-0.983-2.472-2.325-2.325c-28.969,3.15-58.251,6.214-87.409,6.415
			c-4.644,0.032-9.908,0.675-13.884-1.54c-4.588-2.557-8.597-6.26-12.485-9.741c-12.534-11.225-24.095-23.57-35.583-35.844
			c-15.677-16.748-30.757-34.062-46.566-50.684c-2.199-2.312-4.381-4.795-7.257-6.268c-4.673-2.391-9.98-0.731-14.233,1.715
			c-7.428,4.272-13.543,11.772-18.191,18.869C973.007,345.566,977.036,347.894,978.671,345.396z"/>
	</g>
</g>
<g>
	<g>
		<path fill="#1D1B3A" d="M1212.718,425.33c10.409-3.578,17.741-13.09,26.234-19.621c1.708-1.313,3.558-2.576,5.643-3.182
			c2.424-0.705,6.068,1.824,8.037,2.956c6.722,3.863,12.742,9.786,17.01,16.226c1.648,2.487,5.678,0.16,4.016-2.348
			c-4.056-6.12-9.271-11.198-15.15-15.562c-4.162-3.09-10.408-7.134-15.841-5.555c-5.28,1.534-9.892,6.472-13.865,10.009
			c-5.191,4.621-10.603,10.283-17.32,12.593C1208.663,421.814,1209.874,426.308,1212.718,425.33L1212.718,425.33z"/>
	</g>
</g>
<g>
	<g>
		<path fill="#1D1B3A" d="M1260.063,406.908c2.595,0.851,6.042,0.2,8.687,0.042c5.837-0.35,11.667-0.838,17.5-1.26
			c13.898-1.004,27.993-2.109,41.922-1.113c3.317,0.237,8.807,0.303,11.377,2.829c0.472,0.464-0.099,0.308,0.2-0.077
			c-0.564,0.726-1.619,1.128-2.439,1.457c-2.689,1.079-5.616,1.622-8.452,2.154c-6.947,1.305-14.021,1.935-21.046,2.65
			c-4.464,0.454-9.789,0.355-14.034,1.978c-2.34,0.894-2.162,4.605,0.618,4.567c13.602-0.187-3.446,42.822-15.427,44.967
			c-5.188,0.929-11.002,0.039-16.188-0.464c-6.625-0.642-13.217-1.607-19.805-2.546c-5.162-0.736-9.596-1.257-13.836-4.563
			c-4.629-3.609-9.179-5.324-15.063-5.827c-2.99-0.256-2.965,4.396,0,4.65c4.083,0.35,7.525,1.383,10.861,3.769
			c2.199,1.572,4.144,3.269,6.637,4.389c5.639,2.532,13.174,2.517,19.24,3.339c7.112,0.964,14.254,1.847,21.432,2.108
			c4.85,0.178,9.718,0.118,13.648-3.029c9.155-7.332,14.677-20.143,17.292-31.284c1.801-7.675,2.083-20.308-8.789-20.158
			c0.206,1.522,0.412,3.045,0.618,4.567c4.724-1.805,10.696-1.595,15.664-2.104c7.648-0.783,15.355-1.561,22.871-3.227
			c3.449-0.766,10.614-2.287,10.758-6.959c0.122-3.945-4.125-5.697-7.295-6.552c-13.423-3.617-29.125-1.574-42.781-0.715
			c-7.323,0.46-14.636,1.055-21.955,1.57c-3.092,0.218-8.601,1.135-10.975,0.357
			C1258.441,401.487,1257.227,405.979,1260.063,406.908L1260.063,406.908z"/>
	</g>
</g>
<g>
	<g>
		<path fill="#1D1B3A" d="M1292.763,415.01c-12.657,2.978-29.361,1.081-39.569,10.518c-0.698,0.646-0.966,2.019-0.363,2.818
			c4.174,5.532,12.437,6.052,18.797,6.504c8.353,0.594,16.829,0.073,25.15-0.747c2.944-0.29,3.006-4.896,0-4.65
			c-8.423,0.686-16.846,1.232-25.228,2.358c-7.815,1.05-17.312,2.095-23.842,6.965c-1.284,0.958-1.713,3.15,0,4.016
			c6.393,3.229,14.044,3.503,21.064,3.726c8.176,0.26,16.341-0.299,24.515-0.338c2.544-0.012,3.275-4.185,0.618-4.567
			c-7.078-1.02-14.666-0.198-21.732,0.485c-6.709,0.648-16.006,1.071-21.306,5.826c-5.603,5.026,2.387,10.212,6.708,11.316
			c7.682,1.963,16.557,1.603,24.364,0.557c2.927-0.392,2.965-5.048,0-4.65c-5.628,0.754-11.401,0.828-17.061,0.468
			c-2.302-0.146-15.679-2.193-8.809-5.578c5.97-2.94,13.862-3.159,20.359-3.655c5.232-0.399,11.008-1.038,16.241-0.284
			c0.206-1.522,0.412-3.045,0.618-4.567c-6.843,0.032-13.679,0.407-20.523,0.398c-7.31-0.009-16.016,0.229-22.708-3.151
			c0,1.339,0,2.677,0,4.016c6.193-4.62,15.359-5.506,22.778-6.502c7.949-1.068,15.955-1.536,23.943-2.187c0-1.55,0-3.101,0-4.65
			c-6.417,0.633-12.86,0.982-19.31,0.951c-5.442-0.026-16.845,0.6-20.622-4.405c-0.121,0.939-0.242,1.879-0.363,2.818
			c4.855-4.488,12.318-5.493,18.597-6.482c6.293-0.99,12.706-1.378,18.919-2.84C1296.918,418.808,1295.68,414.323,1292.763,415.01
			L1292.763,415.01z"/>
	</g>
</g>
<g>
	<g>
		<path fill="#1D1B3A" d="M1234.527,430.606c9.496,0.007,13.577-7.627,13.773-16.276c-1.166,0.669-2.333,1.339-3.499,2.008
			c5.336,2.403,8.563,6.94,14.957,6.776c2.993-0.077,3.001-4.728,0-4.65c-5.378,0.138-8.151-4.134-12.609-6.142
			c-1.588-0.715-3.456,0.115-3.499,2.008c-0.137,5.998-2.235,11.631-9.123,11.626
			C1231.528,425.954,1231.528,430.604,1234.527,430.606L1234.527,430.606z"/>
	</g>
</g>
</svg>
