<?xml version="1.0" encoding="utf-8"?>
<!-- Generator: Adobe Illustrator 16.0.4, SVG Export Plug-In . SVG Version: 6.00 Build 0)  -->
<!DOCTYPE svg PUBLIC "-//W3C//DTD SVG 1.1//EN" "http://www.w3.org/Graphics/SVG/1.1/DTD/svg11.dtd">
<svg version="1.1" id="char1-eyeopen" xmlns="http://www.w3.org/2000/svg" xmlns:xlink="http://www.w3.org/1999/xlink" x="0px"
	 y="0px" width="2484.009px" height="946.07px" viewBox="0 0 2484.009 946.07" enable-background="new 0 0 2484.009 946.07"
	 xml:space="preserve">
<g>
	<g>
		<path fill="#1D1B3A" d="M916.571,151.709c-0.768,6.807,0.372,14.218-3.406,20.289c1.061-0.278,2.121-0.556,3.182-0.834
			c-4.882-3.329-5.836-10.125-5.412-15.579c0.166-2.128,0.753-4.655,2.267-6.24c1.508-1.58,3.993,1.925,4.728,2.854
			c1.861,2.351,5.128-0.964,3.289-3.289c-5.339-6.747-12.166-5.111-14.354,3.059c-2.142,7.995,0.043,18.376,7.134,23.211
			c1.069,0.729,2.548,0.184,3.182-0.834c4.278-6.875,3.172-14.938,4.041-22.637C921.557,148.731,916.903,148.764,916.571,151.709
			L916.571,151.709z"/>
	</g>
</g>
</svg>
