<?xml version="1.0" encoding="utf-8"?>
<!-- Generator: Adobe Illustrator 16.0.4, SVG Export Plug-In . SVG Version: 6.00 Build 0)  -->
<!DOCTYPE svg PUBLIC "-//W3C//DTD SVG 1.1//EN" "http://www.w3.org/Graphics/SVG/1.1/DTD/svg11.dtd">
<svg version="1.1" id="char1-armright1" xmlns="http://www.w3.org/2000/svg" xmlns:xlink="http://www.w3.org/1999/xlink" x="0px"
	 y="0px" width="2484.009px" height="946.07px" viewBox="0 0 2484.009 946.07" enable-background="new 0 0 2484.009 946.07"
	 xml:space="preserve">
<g>
	<g>
		<g>
			<path fill="#F4EDE1" d="M1011.506,531.409c0.371-2.335,0.769-4.686,1.202-7.028c0.712-3.709-5.595-6.118-6.977-2.462
				c-0.084,0.283-0.171,0.577-0.274,0.861c-0.025,0-0.025,0-0.025,0c0,0.028,0,0.068,0,0.078c-0.099,0.275-0.169,0.538-0.267,0.803
				c-0.273,0.274-0.481,0.585-0.647,0.963c-0.121-0.075-0.214-0.149-0.347-0.201c-0.614-2.274-3.257-3.459-5.166-2.906
				c-3.809-2.3-8.206,2.494-4.41,5.195c1.251,0.882,1.817,2.684,2.055,4.741c-0.024,1.99,0,3.955,0.192,5.959
				c0.024,0.14,0.086,0.227,0.108,0.376c0.026,0.973,0.036,1.859,0.157,2.526c0.157,1.209,0.961,2.048,1.936,2.622
				c-0.251,0.954-0.508,1.916-0.72,2.88c-0.71,2.76,2.109,4.351,4.443,4.017c1.946,1.09,4.986,0.658,5.657-1.935
				c0.049-0.168,0.083-0.353,0.144-0.531C1010.667,542.279,1011.354,536.927,1011.506,531.409z"/>
		</g>
		<g>
			<path fill="#F4EDE1" d="M1012.248,562.153c-2.598-10.78-0.302-19.906,3.109-29.516l3.22,13.495
				c-2.294,0.965-3.458,1.453-4.287,3.286c7.011-5.175,15.83-16.286,24.68-11.089c-5.824,12.848-15.154,18.973-26.619,21.574
				c9.973-3.455,23.389-16.499,32.28-11.31c-7.737,12.896-22.763,24.693-31.221,37.181c-11.843-6.935-34.891-15.802-35.627-34.807
				c-1.681-14.902,16.024-28.611,22.176-40.11"/>
			<g>
				<path fill="#1D1B3A" d="M1014.298,561.588c-2.139-9.875-0.156-19.021,3.109-28.385c-1.367,0-2.734,0-4.101,0
					c1.073,4.498,2.146,8.996,3.22,13.495c0.326-0.801,0.651-1.601,0.977-2.401c-2.25,0.967-3.826,1.903-5.049,4.049
					c-0.976,1.712,1.126,4.273,2.909,2.909c5.905-4.521,14.224-15.288,22.534-11.089c-0.254-0.97-0.508-1.939-0.763-2.909
					c-5.187,10.961-13.581,17.766-25.349,20.598c0.377,1.366,0.754,2.733,1.131,4.1c5.006-1.873,9.495-4.774,14.092-7.457
					c4.622-2.697,11.14-6.801,16.549-4.066c-0.254-0.97-0.508-1.939-0.763-2.909c-8.583,13.84-21.946,23.849-31.221,37.181
					c0.97-0.254,1.939-0.509,2.909-0.763c-12.184-7.035-28.667-13.054-33.625-27.565c-6.057-17.727,13.316-30.834,20.936-44.442
					c1.341-2.396-2.333-4.539-3.672-2.146c-8.71,15.558-27.105,27.578-21.364,47.72c4.5,15.789,22.757,22.703,35.579,30.106
					c1.063,0.614,2.246,0.191,2.909-0.763c9.276-13.334,22.622-23.316,31.221-37.181c0.583-0.94,0.252-2.396-0.763-2.909
					c-11.62-5.874-23.745,7.288-33.918,11.096c-2.533,0.947-1.576,4.751,1.131,4.1c12.744-3.065,22.268-10.67,27.89-22.551
					c0.471-0.995,0.335-2.354-0.763-2.909c-10.694-5.404-19.131,5.197-26.827,11.089c0.97,0.97,1.939,1.939,2.909,2.909
					c0.878-1.539,2.031-1.882,3.524-2.523c0.881-0.379,1.178-1.559,0.977-2.401c-1.073-4.498-2.146-8.996-3.22-13.495
					c-0.519-2.172-3.445-1.879-4.101,0c-3.537,10.144-5.415,20.001-3.109,30.646
					C1010.778,565.398,1014.877,564.262,1014.298,561.588L1014.298,561.588z"/>
			</g>
		</g>
	</g>
	<g>
		<path fill="#1D1B3A" d="M1006.883,536.371c6.294-0.52,101.795-68.685,100.104-86.469c-4-42.451-76.959-105.267-111.459-131.068
			c-9.669,19.886-14.5,55.228-7.243,76.844c10.8,10.38,55.279,43.093,59.843,55.216c3.155,8.296-54.375,56.888-54.375,56.888
			S998.834,537.015,1006.883,536.371z"/>
	</g>
</g>
</svg>
