<?xml version="1.0" encoding="utf-8"?>
<!-- Generator: Adobe Illustrator 16.0.4, SVG Export Plug-In . SVG Version: 6.00 Build 0)  -->
<!DOCTYPE svg PUBLIC "-//W3C//DTD SVG 1.1//EN" "http://www.w3.org/Graphics/SVG/1.1/DTD/svg11.dtd">
<svg version="1.1" id="checkmark" xmlns="http://www.w3.org/2000/svg" xmlns:xlink="http://www.w3.org/1999/xlink" x="0px" y="0px"
	 width="2484.009px" height="946.07px" viewBox="0 0 2484.009 946.07" enable-background="new 0 0 2484.009 946.07"
	 xml:space="preserve">
<g>
	<path fill="#008142" d="M1117.597,43.669c-0.132-4.88-1.29-9.632-1.46-14.495c-4.911,0.665-9.821,1.329-14.732,1.994
		c1.54,9.802,4.86,19.182,7.76,28.638c2.915,9.503,4.923,19.293,8.257,28.66c2.249,6.319,3.245,13.302,6.088,19.733
		c0.641,1.449,1.562,2.79,2.593,3.987c0.71,0.825,6.175,4.865,1.934,1.283c3.844,3.246,8.504,3.963,12.531,0.561
		c2.455-2.075,3.98-5.257,5.134-8.192c1.57-3.992,3.407-7.878,5.089-11.835c4.017-9.453,8.375-18.836,12.192-28.358
		c3.762-9.385,7.859-18.624,12.385-27.665c2.286-4.567,4.808-9.001,7.003-13.613c1.937-4.068,3.848-8.356,6.94-11.689
		c-4.268-1.769-8.536-3.536-12.803-5.304c0.027-0.206-1.864,1.66-2.147,1.947c-6.8,6.887,3.803,17.498,10.606,10.607
		c3.668-3.716,5.851-7.349,6.541-12.555c0.88-6.642-8.698-9.728-12.803-5.304c-6.275,6.762-9.571,15.585-13.854,23.622
		c-4.759,8.93-8.92,18.166-12.84,27.488c-3.985,9.477-8.239,18.826-12.149,28.337c-2.041,4.963-4.119,9.899-6.424,14.747
		c-0.745,1.566-1.349,3.052-1.849,4.691c-0.794,2.608-2.691,2.06,1.207,0.704c1.329,0,2.658,0,3.987,0
		c0.62,0.401,1.24,0.803,1.86,1.204c-0.678-0.587-1.381-1.144-2.107-1.67c-2.73-1.316-2.441-0.916,0.866,1.201
		c-0.348-0.57-0.661-1.159-0.94-1.767c-1.126-2.266-1.681-4.976-2.289-7.417c-0.748-3.002-0.217-3.591-1.603-6.944
		c-1.654-4.003-2.818-8.207-3.938-12.384c-4.149-15.468-10.277-30.867-12.764-46.703c-1.325-8.438-15.023-6.332-14.732,1.994
		c0.17,4.869,1.328,9.618,1.46,14.495C1102.858,53.322,1117.859,53.348,1117.597,43.669L1117.597,43.669z"/>
</g>
</svg>
