<?xml version="1.0" encoding="utf-8"?>
<!-- Generator: Adobe Illustrator 16.0.4, SVG Export Plug-In . SVG Version: 6.00 Build 0)  -->
<!DOCTYPE svg PUBLIC "-//W3C//DTD SVG 1.1//EN" "http://www.w3.org/Graphics/SVG/1.1/DTD/svg11.dtd">
<svg version="1.1" id="desk" xmlns="http://www.w3.org/2000/svg" xmlns:xlink="http://www.w3.org/1999/xlink" x="0px" y="0px"
	 width="2484.01px" height="946.07px" viewBox="0 0 2484.01 946.07" enable-background="new 0 0 2484.01 946.07"
	 xml:space="preserve">
<path fill="#CACBD5" d="M1104.95,532.993l9.555,413.077c0,0,478.76,2.64,477,0C1589.743,943.427,1104.95,532.993,1104.95,532.993z"
	/>
<polygon fill="#B7B6C0" points="2484.01,946.07 1184.505,946.07 1546.505,946.07 1288.292,700.697 1100.292,532.697 2484.01,544.03 
	"/>
<g>
	<g>
		<path fill="#CACBD5" d="M2035.47,457.939c-0.796-2.033-1.742-3.943-2.857-5.66l1.668-1.426c1.915-9.938-0.957-24.445-7.396-35.355
			c0.386-0.172,0.791-0.327,1.166-0.51l1.875-1.309c3.263-10.935,1.061-28.228-6.046-40.084c2.104-0.646,4.102-1.396,5.957-2.269
			l1.892-1.287c3.268-10.465,1.564-26.856-4.737-38.717c2.628-1.17,4.438-2.51,4.623-3.946l-0.58-0.091
			c4.748-5.955,4.878-30.74-4.896-42.115c-0.892-1.034-1.753-2.014-2.605-2.942c2.247-1.644,3.676-3.281,3.558-4.697l-0.587,0.029
			c0.231-0.463,0.421-1.015,0.573-1.629c7.174,2.854,22.425,1.547,18.96-13.052c-1.94-8.176-19.022-13.918-26.051-17.243
			c-1.998-3.298-4.372-6.195-7.113-8.293c-10.469-8.019-17.431-11.619-34.953-8.625c-19.439,3.317-20.883,6.563-28.841,15.813
			c-10.446,12.148-10.756,36.883-4.165,49.896l2.081,0.965c1.145,0.326,2.337,0.592,3.556,0.828
			c-4.023,10.44-5.133,22.569-2.892,31.047l1.832,1.363c0.677,0.354,1.393,0.676,2.105,1c-0.525,0.936-1.011,1.912-1.458,2.924
			c-7.051,4.598-20.87,12.426-21.387,20.227c-0.883,13.308,11.1,13.857,18.402,11.023c0.357,1.092,0.781,2.01,1.276,2.688
			l-0.584,0.064c0.112,1.346,1.645,2.666,3.936,3.877c-9.134,11.574-9.589,34.838-5.191,40.719l-0.582,0.072
			c0.161,1.68,2.53,3.293,5.841,4.691c-1.178,1.961-2.126,4.166-2.866,6.516c-6.492,5.336-19.348,14.613-18.986,22.422
			c0.617,13.32,12.587,12.572,19.527,8.965c0.478,1.045,1.002,1.912,1.57,2.533l-0.571,0.129c0.285,1.434,2.211,2.658,4.948,3.656
			c-4.253,10.6,4.261,71.469,6.553,80.139l-1.718,5.168c14.653,7.672,38.727,7.928,57.042,7.164
			c7.762-0.322,24.495-3.885,25.082-8.422l-0.58-0.09c0.523-0.658,0.989-1.558,1.394-2.631c7.174,3.143,12.992-49.076,12.701-62.408
			C2055.77,471.246,2042.311,462.837,2035.47,457.939z M2036.218,265.969c-1.372,4.35-5.948,1.387-9.071,0.319
			c-0.389-2.848-1.072-5.938-2.04-9.053C2030.403,258.664,2037.499,261.914,2036.218,265.969z M1938.947,354.255
			c-1.709-3.347,3.113-7.121,7.696-9.517c-0.534,3.312-0.774,6.597-0.749,9.605C1943.364,355.904,1940.566,357.427,1938.947,354.255
			z M1940.294,445.216c-2.072-3.142,2.295-7.416,6.582-10.291c-0.159,3.352-0.03,6.639,0.332,9.629
			C1944.869,446.378,1942.26,448.191,1940.294,445.216z M2045.687,480.096c-1.757,3.098-5.381-4.328-7.84-5.996
			c0.158-3.008,0.959-0.508,0.572-3.84C2042.894,472.848,2047.542,476.826,2045.687,480.096z"/>
	</g>
</g>
<g>
	<g>
		<g>
			<g>
				<path fill="#CACBD5" d="M2116.569,563.49c3.896-14.996-1.857-40.729-15.231-51.145c-10.188-7.931-12.38-11.002-33.028-10.269
					c-18.612,0.66-24.955,5.92-33.919,16.543c-10.238,12.123-10.101,38.543-5.129,44.89l-0.607,0.098
					c0.613,4.836,18.138,8.633,26.265,8.977c19.18,0.814,44.388,0.541,59.731-7.639"/>
				<g>
					<path fill="#8A8899" d="M2118.376,563.988c3.76-15.577-0.407-35.5-10.674-47.919c-4.136-5.004-10.017-9.688-15.783-12.741
						c-6.588-3.483-14.607-3.33-21.836-3.18c-8.535,0.178-17.168,1.227-24.644,5.62c-6.081,3.575-11.643,9.638-15.262,15.633
						c-4.221,6.989-5.628,15.659-6.035,23.686c-0.309,6.066-0.2,14.188,3.498,19.369c0.374-0.918,0.747-1.837,1.121-2.755
						c-0.203,0.033-0.405,0.066-0.607,0.099c-1.025,0.166-1.538,1.399-1.31,2.307c1.161,4.622,7.717,6.299,11.623,7.482
						c7.303,2.213,14.785,2.859,22.367,3.075c18.07,0.515,38.298,0.332,54.76-8.1c2.152-1.103,0.255-4.338-1.894-3.238
						c-14.121,7.232-31.144,7.72-46.682,7.688c-6.784-0.016-13.568-0.122-20.26-1.321c-3.625-0.648-15.192-2.176-16.302-6.582
						c-0.437,0.77-0.873,1.537-1.31,2.308c0.203-0.033,0.405-0.066,0.607-0.099c1.143-0.184,1.779-1.832,1.12-2.755
						c-3.163-4.433-3.089-11.063-3.024-16.259c0.094-7.512,1.599-15.25,4.995-21.982c2.885-5.721,8.354-11.169,13.617-14.765
						c6.884-4.704,15.533-5.409,23.615-5.659c6.643-0.205,13.831-0.304,19.943,2.668c5.202,2.529,10.438,6.926,14.246,11.211
						c10.013,11.271,13.98,30.737,10.489,45.216C2114.194,565.343,2117.81,566.34,2118.376,563.988L2118.376,563.988z"/>
				</g>
			</g>
			<g>
				<path fill="#CACBD5" d="M2031.647,558.303c-5.63,5.174-23.979,8.637-23.611-8.498c0.195-9.049,16.81-18.847,23.125-23.781
					c4.818-3.764,9.725,9.674,1.408,11.611c-3.943,0.918-16.751,7.969-13.795,13.271c2.864,5.142,8.192-1.953,11.084-2.352
					C2033.374,548.068,2037.455,552.964,2031.647,558.303z"/>
				<g>
					<path fill="#8A8899" d="M2030.321,556.977c-7.146,6.149-19.663,4.965-20.4-5.861c-0.429-6.28,5.917-11.151,10.271-14.703
						c2.525-2.06,5.213-3.926,7.867-5.812c1.757-1.248,4.563-4.635,6.239-2.121c1.383,2.076,1.263,5.333-0.864,6.83
						c-1.443,1.016-3.943,1.414-5.584,2.191c-4.14,1.961-9.006,5.078-10.892,9.44c-1.368,3.166,0.385,6.396,3.449,7.578
						c1.562,0.602,3.508-0.396,4.844-1.093c1.198-0.624,2.288-1.51,3.406-2.262c0.803-0.673,1.746-0.813,2.833-0.426
						C2032.952,553.315,2032.562,555.395,2030.321,556.977c-1.66,1.756,0.987,4.412,2.652,2.652
						c2.441-2.582,4.058-5.288,3.083-8.884c-0.571-2.106-3.117-4.108-5.313-4.078c-2.938,0.041-4.988,2.044-7.384,3.521
						c-3.726,2.3-2.976-2.288-1.415-4.056c1.624-1.839,3.814-3.164,5.908-4.396c4.881-2.865,10.423-2.869,11.071-9.621
						c0.389-4.055-2.947-9.992-7.659-8.285c-2.811,1.019-5.649,3.914-8.067,5.648c-3.371,2.422-6.649,4.963-9.704,7.778
						c-5.609,5.173-8.717,11.15-6.51,18.78c3.249,11.229,18.847,9.733,25.99,3.59
						C2034.809,558.05,2032.144,555.408,2030.321,556.977z"/>
				</g>
			</g>
		</g>
		<g>
			<g>
				<path fill="#8A8899" d="M2066.883,501.052c-4.244-0.318-9.403,1.521-12.603,4.323c-2.938,2.578-3.201,6.021,0.598,7.857
					c4.754,2.297,11.235,1.136,16.192,0.318c5.259-0.865,11.784-2.535,15.333-6.845c0.622-0.756,0.812-1.92,0-2.651
					c-5.338-4.818-14.337-3.613-20.877-2.779c-2.365,0.301-2.395,4.055,0,3.75c5.284-0.674,13.898-2.225,18.225,1.682
					c0-0.885,0-1.768,0-2.651c-4.551,5.526-14.615,6.435-21.244,6.615c-2.05,0.055-9.108,0.001-5.261-2.866
					c2.622-1.954,6.362-3.249,9.636-3.003C2069.296,504.982,2069.279,501.23,2066.883,501.052L2066.883,501.052z"/>
			</g>
		</g>
	</g>
	<g>
		<g>
			<g>
				<path fill="#CACBD5" d="M2030.719,519.738c-2.882-15.223,4.579-40.512,18.621-50.01c10.694-7.23,13.088-10.15,33.641-8.035
					c18.526,1.904,24.503,7.578,32.736,18.775c9.404,12.78,7.5,39.133,2.114,45.133l0.599,0.137
					c-0.935,4.783-18.673,7.398-26.807,7.197c-19.19-0.469-44.323-2.428-59.086-11.615"/>
				<g>
					<path fill="#8A8899" d="M2032.526,519.24c-2.53-14.766,2.921-32.336,12.771-43.483c3.835-4.341,9.478-7.925,14.635-10.552
						c5.93-3.021,13.098-2.449,19.505-1.966c8.081,0.61,16.299,1.86,23.261,6.257c5.432,3.431,10.118,9.333,13.244,14.854
						c3.771,6.658,4.546,15.004,4.494,22.499c-0.037,5.335-0.354,13.055-3.933,17.427c-0.835,1.021-0.666,2.793,0.828,3.135
						c0.199,0.045,0.397,0.091,0.599,0.138c-0.437-0.771-0.873-1.538-1.31-2.308c-1.332,4.113-12.89,4.892-16.291,5.318
						c-6.807,0.854-13.675,0.41-20.499,0.015c-15.566-0.9-32.71-2.685-46.349-10.872c-2.079-1.248-3.964,1.995-1.894,3.238
						c15.521,9.316,35.106,10.784,52.775,11.623c7.679,0.363,15.086,0.147,22.652-1.295c4.285-0.818,11.643-2.162,13.219-7.031
						c0.305-0.939-0.346-2.086-1.311-2.307c-0.199-0.045-0.397-0.09-0.599-0.138c0.275,1.045,0.552,2.091,0.827,3.136
						c3.888-4.75,4.551-11.69,4.938-17.584c0.539-8.168-0.405-17.243-3.869-24.736c-2.973-6.432-8.223-12.957-13.954-17.16
						c-6.844-5.02-15.002-6.707-23.292-7.629c-7.612-0.847-16.194-1.643-23.438,1.472c-6.104,2.624-12.348,7.004-16.896,11.813
						c-11.088,11.72-16.438,31.359-13.734,47.133C2029.318,522.617,2032.931,521.604,2032.526,519.24L2032.526,519.24z"/>
				</g>
			</g>
			<g>
				<path fill="#CACBD5" d="M2115.798,520.244c5.271,5.541,23.347,10.224,24.126-6.897c0.411-9.041-15.511-19.931-21.481-25.275
					c-4.556-4.076-10.349,9.002-2.182,11.492c3.872,1.178,16.18,9.07,12.876,14.164c-3.202,4.938-8.043-2.496-10.902-3.088
					C2114.76,509.921,2110.36,514.529,2115.798,520.244z"/>
				<g>
					<path fill="#8A8899" d="M2114.471,521.57c6.943,6.836,21.257,8.604,25.934-1.604c6.496-14.18-11.937-26.846-21.591-33.938
						c-4.137-3.037-7.832,3.202-8.399,6.414c-1.219,6.908,4.812,8.226,9.463,11.008c1.812,1.084,3.466,2.392,5.021,3.814
						c0.655,0.618,1.258,1.285,1.807,2.002c0.317,0.412,2.97,5.875-1.355,3.884c-2.433-1.12-4.267-4.157-7.113-4.388
						c-2.723-0.22-4.763,1.062-6.179,3.317C2110.019,515.327,2112.441,519.115,2114.471,521.57c1.543,1.865,4.181-0.804,2.652-2.651
						c-0.67-1.287-1.34-2.576-2.009-3.863c0.543-2.377,1.713-3.104,3.509-2.181c1.138,0.642,2.086,1.646,3.146,2.401
						c1.613,1.151,3.111,1.964,5.116,1.984c3.571,0.036,4.972-4.208,4.455-7.031c-0.745-4.071-5.521-7.296-8.652-9.429
						c-3.924-2.673-10.903-3.697-7.868-9.951c1.49-3.071,3.598-0.317,5.264,1.056c2.239,1.843,4.489,3.669,6.687,5.563
						c4.519,3.896,11.177,9.389,11.277,15.877c0.188,12.07-14.171,12.223-20.925,5.572
						C2115.399,517.221,2112.747,519.871,2114.471,521.57z"/>
				</g>
			</g>
		</g>
		<g>
			<g>
				<path fill="#8A8899" d="M2084.345,464.51c3.142-0.023,6.098,1.457,8.659,3.154c0.929,0.614,2.925,1.913,1.293,2.57
					c-1.613,0.65-3.521,0.544-5.226,0.481c-6.481-0.237-17.365-2.129-21.427-7.796c-0.098,0.757-0.195,1.515-0.293,2.271
					c4.406-3.473,12.865-1.41,17.833-0.436c2.36,0.463,3.368-3.151,0.996-3.617c-6.699-1.312-15.66-3.187-21.481,1.399
					c-0.608,0.48-0.736,1.652-0.293,2.272c3.219,4.491,8.859,6.425,13.971,7.872c5.316,1.505,11.479,2.6,16.918,1.166
					c3.982-1.051,4.224-4.65,1.938-7.453c-2.789-3.424-8.573-5.672-12.89-5.639C2081.928,460.778,2081.927,464.528,2084.345,464.51
					L2084.345,464.51z"/>
			</g>
		</g>
	</g>
	<g>
		<g>
			<g>
				<path fill="#CACBD5" d="M2035.281,480.113c-4.358-14.867,0.593-40.766,13.636-51.594c9.938-8.242,12.031-11.381,32.693-11.289
					c18.624,0.084,25.126,5.145,34.416,15.482c10.61,11.801,11.294,38.211,6.521,44.711l0.609,0.075
					c-0.461,4.853-17.859,9.193-25.975,9.787c-19.145,1.41-44.347,1.922-59.938-5.778"/>
				<g>
					<path fill="#8A8899" d="M2037.089,479.615c-3.94-14.358-0.405-31.709,7.841-43.941c3.329-4.938,8.724-9.192,13.686-12.438
						c5.735-3.75,12.908-3.969,19.536-4.113c8.234-0.18,16.739,0.221,24.167,4.119c5.771,3.029,11.28,8.627,14.796,14.062
						c4.066,6.286,5.625,14.259,6.227,21.603c0.446,5.441,0.766,12.812-2.412,17.571c-0.877,1.312,0.33,2.661,1.618,2.821
						c0.203,0.024,0.407,0.051,0.61,0.075c-0.604-0.791-1.205-1.582-1.809-2.372c-0.94,4.307-11.358,6.008-14.834,6.851
						c-6.521,1.582-13.177,1.88-19.855,2.179c-15.944,0.712-33.741,0.834-48.469-6.143c-2.173-1.029-4.077,2.203-1.894,3.238
						c16.337,7.737,35.802,7.389,53.452,6.508c7.74-0.388,15.157-1.27,22.613-3.468c4.087-1.204,11.528-3.255,12.602-8.17
						c0.284-1.298-0.567-2.219-1.808-2.373c-0.203-0.024-0.407-0.051-0.61-0.075c0.54,0.939,1.079,1.881,1.619,2.82
						c3.383-5.064,3.254-12.437,3.002-18.247c-0.355-8.186-2.29-16.482-6.217-23.7c-3.456-6.354-9.717-12.113-15.819-15.892
						c-7.491-4.639-16.736-5.178-25.297-5.176c-7.366,0.002-15.088,0.338-21.734,3.828c-5.694,2.991-11.497,8.191-15.391,13.215
						c-9.87,12.727-13.481,32.749-9.236,48.213C2034.112,482.941,2037.73,481.951,2037.089,479.615L2037.089,479.615z"/>
				</g>
			</g>
			<g>
				<path fill="#CACBD5" d="M2104.913,472.996c4.871,5.181,19.896,8.754,18.514-8.264c-0.729-8.986-8.412-17.203-13.821-22.148
					c-4.127-3.772-13.915,4.566-6.743,9.882c2.709,2.008,14.021,8.037,11.971,13.282c-1.986,5.082-5.629-2.317-7.986-2.733
					C2103.978,462.509,2099.887,467.652,2104.913,472.996z"/>
				<g>
					<path fill="#8A8899" d="M2103.587,474.322c5.429,5.402,17.351,7.701,20.72-1.2c2.657-7.021,0.237-14.56-3.545-20.642
						c-2.765-4.445-8.268-12.703-14.132-12.703c-4.59,0-8.604,4.868-8.094,9.257c0.604,5.165,8.185,7.952,11.62,10.919
						c1.241,1.071,2.395,2.334,2.961,3.896c1.362,3.754-2.614-0.48-3.146-0.997c-1.51-1.468-3.067-2.012-5.113-1.454
						C2098.636,463.094,2100.805,470.875,2103.587,474.322c1.52,1.882,4.154-0.789,2.651-2.651c-2.905-3.601-1.25-8.531,2.403-4.858
						c0.967,0.972,2.107,2.082,3.473,2.458c2.575,0.708,4.725-1.913,4.803-4.313c0.115-3.585-2.414-6.191-4.961-8.39
						c-2.474-2.135-9.355-4.849-9.772-8.418c-0.264-2.257,2.332-3.99,4.116-4.552c2.374-0.748,5.431,3.646,6.814,5.138
						c4.855,5.229,8.504,11.428,8.518,18.717c0.017,9.472-9.96,9.626-15.394,4.22
						C2104.523,469.964,2101.872,472.614,2103.587,474.322z"/>
				</g>
			</g>
		</g>
		<g>
			<g>
				<path fill="#8A8899" d="M2084.054,419.798c3.13-0.332,6.215,0.752,8.946,2.198c5.36,2.842-1.604,3.449-4.272,3.531
					c-6.56,0.203-16.817-0.619-21.457-5.91c0,0.886,0,1.769,0,2.652c4.229-4.062,12.807-2.801,18.146-2.289
					c2.407,0.23,2.386-3.521,0-3.75c-6.526-0.625-15.634-1.575-20.799,3.387c-0.771,0.742-0.662,1.896,0,2.652
					c3.489,3.977,9.323,5.305,14.303,6.2c5.43,0.977,11.679,1.564,16.953-0.396c3.741-1.392,4.169-4.866,1.512-7.543
					c-3.109-3.134-9.014-4.939-13.332-4.482C2081.676,416.3,2081.651,420.052,2084.054,419.798L2084.054,419.798z"/>
			</g>
		</g>
	</g>
	<g>
		<g>
			<g>
				<path fill="#CACBD5" d="M2033.393,433.598c-4.544-14.814,0.084-40.771,12.994-51.758c9.832-8.365,11.888-11.533,32.548-11.697
					c18.625-0.15,25.188,4.832,34.606,15.051c10.757,11.668,11.769,38.068,7.077,44.625l0.611,0.07
					c-0.403,4.856-17.745,9.414-25.851,10.11c-19.125,1.646-44.32,2.472-60.008-5.03"/>
				<g>
					<path fill="#8A8899" d="M2035.201,433.1c-4.118-14.312-0.82-31.7,7.276-44.039c3.262-4.969,8.604-9.309,13.521-12.613
						c5.69-3.824,12.851-4.143,19.479-4.369c8.227-0.28,16.747,0,24.22,3.806c5.809,2.957,11.396,8.477,14.979,13.867
						c4.144,6.232,5.812,14.184,6.507,21.52c0.513,5.428,0.933,12.811-2.182,17.603c-0.854,1.312,0.312,2.672,1.618,2.821
						c0.205,0.023,0.407,0.047,0.611,0.07c-0.603-0.791-1.205-1.582-1.808-2.373c-0.894,4.336-11.248,6.16-14.732,7.051
						c-6.502,1.664-13.148,2.051-19.825,2.433c-15.929,0.909-33.734,1.264-48.546-5.523c-2.182-1-4.089,2.232-1.893,3.238
						c16.438,7.531,35.881,6.95,53.527,5.852c7.732-0.481,15.14-1.451,22.566-3.742c4.06-1.252,11.505-3.393,12.518-8.311
						c0.266-1.291-0.554-2.229-1.809-2.373c-0.204-0.023-0.407-0.047-0.61-0.07c0.539,0.94,1.078,1.881,1.618,2.821
						c3.321-5.111,3.11-12.465,2.785-18.278c-0.458-8.18-2.483-16.457-6.499-23.626c-3.534-6.309-9.857-11.997-16.008-15.7
						c-7.551-4.546-16.792-4.979-25.357-4.869c-7.357,0.093-15.089,0.515-21.688,4.088c-5.385,2.916-11.127,7.967-14.783,12.803
						c-9.918,13.119-13.66,33.087-9.104,48.915C2032.253,436.416,2035.872,435.428,2035.201,433.1L2035.201,433.1z"/>
				</g>
			</g>
			<g>
				<path fill="#CACBD5" d="M2118.01,424.719c5.849,4.924,24.331,7.588,23.218-9.517c-0.588-9.03-17.612-18.098-24.136-22.752
					c-4.979-3.551-9.295,10.086-0.903,11.66c3.979,0.744,17.082,7.232,14.359,12.658c-2.64,5.262-8.271-1.594-11.177-1.867
					C2115.84,414.57,2111.974,419.637,2118.01,424.719z"/>
				<g>
					<path fill="#8A8899" d="M2116.683,426.046c7.899,6.219,22.229,6.366,25.847-4.578c2.329-7.049-1.324-12.96-6.271-17.64
						c-3.005-2.844-6.496-5.219-9.919-7.521c-2.771-1.862-6.159-4.962-9.344-6.01c-4.6-1.515-6.975,3.482-7.405,7.222
						c-0.808,6.973,5.68,7.789,10.436,9.963c2.947,1.348,8.65,4.082,9.015,7.786c0.35,3.55-4.992-0.13-5.697-0.575
						c-1.098-0.69-2.594-1.707-3.973-1.666C2111.301,413.268,2112.342,421.841,2116.683,426.046
						c1.737,1.682,4.392-0.968,2.652-2.652c-0.649-0.711-1.298-1.424-1.947-2.135c-1.187-3.062-0.376-4.483,2.433-4.271
						c1.191,0.51,2.293,1.367,3.394,2.041c1.614,0.99,3.371,1.707,5.282,1.516c3.507-0.354,5.144-4.842,3.736-7.743
						c-1.984-4.093-6.39-6.62-10.312-8.556c-4.197-2.067-10.062-2.215-8.181-8.489c0.946-3.161,2.931-1.3,4.737-0.104
						c2.347,1.553,4.724,3.057,7.059,4.625c4.953,3.331,12.987,8.372,13.816,14.927c1.5,11.829-12.384,14.199-20.017,8.189
						C2117.458,421.915,2114.785,424.55,2116.683,426.046z"/>
				</g>
			</g>
		</g>
		<g>
			<g>
				<path fill="#8A8899" d="M2080.397,372.802c3.124-0.369,6.227,0.662,8.979,2.076c1.722,0.886,3.589,1.809,0.938,2.829
					c-1.617,0.625-3.418,0.689-5.126,0.765c-6.538,0.284-16.839-0.4-21.536-5.625c0,0.885,0,1.768,0,2.651
					c4.201-4.137,12.736-2.977,18.109-2.528c2.411,0.201,2.392-3.551,0-3.75c-6.519-0.543-15.671-1.386-20.763,3.627
					c-0.756,0.746-0.679,1.896,0,2.651c3.545,3.941,9.373,5.197,14.373,6.031c5.439,0.908,11.697,1.433,16.948-0.596
					c3.71-1.432,4.157-4.896,1.456-7.549c-3.146-3.092-9.063-4.845-13.38-4.334C2078.026,369.331,2077.999,373.085,2080.397,372.802
					L2080.397,372.802z"/>
			</g>
		</g>
	</g>
	<g>
		<g>
			<g>
				<path fill="#CACBD5" d="M2121.428,388.007c3.895-14.998-1.857-40.729-15.232-51.146c-10.188-7.93-12.379-11.004-33.027-10.27
					c-18.612,0.66-24.955,5.922-33.92,16.543c-10.236,12.125-10.101,38.543-5.129,44.891l-0.606,0.096
					c0.612,4.836,18.138,8.634,26.266,8.978c19.179,0.813,44.387,0.543,59.731-7.637"/>
				<g>
					<path fill="#8A8899" d="M2123.236,388.505c3.759-15.578-0.407-35.5-10.673-47.919c-4.137-5.005-10.018-9.689-15.785-12.741
						c-6.587-3.486-14.605-3.332-21.835-3.183c-8.536,0.179-17.168,1.228-24.643,5.621c-6.081,3.574-11.645,9.638-15.263,15.633
						c-4.221,6.99-5.627,15.658-6.035,23.685c-0.309,6.067-0.2,14.188,3.498,19.372c0.374-0.918,0.746-1.837,1.121-2.755
						c-0.203,0.032-0.405,0.063-0.607,0.096c-1.026,0.162-1.537,1.402-1.311,2.307c1.161,4.622,7.719,6.3,11.624,7.482
						c7.304,2.213,14.785,2.86,22.368,3.076c18.07,0.514,38.297,0.334,54.76-8.099c2.152-1.103,0.254-4.338-1.894-3.237
						c-14.12,7.231-31.144,7.718-46.682,7.685c-6.784-0.015-13.569-0.122-20.261-1.321c-3.625-0.648-15.192-2.176-16.302-6.582
						c-0.437,0.77-0.873,1.537-1.31,2.308c0.203-0.033,0.404-0.064,0.606-0.096c1.145-0.182,1.778-1.835,1.121-2.756
						c-3.164-4.434-3.089-11.064-3.023-16.259c0.093-7.513,1.599-15.251,4.993-21.983c2.886-5.722,8.354-11.168,13.617-14.765
						c6.885-4.704,15.535-5.41,23.617-5.66c6.643-0.205,13.831-0.303,19.941,2.67c5.202,2.529,10.438,6.927,14.246,11.212
						c10.015,11.271,13.981,30.735,10.489,45.215C2119.053,389.857,2122.669,390.854,2123.236,388.505L2123.236,388.505z"/>
				</g>
			</g>
			<g>
				<path fill="#CACBD5" d="M2051.608,383.053c-4.706,5.33-19.612,9.369-18.76-7.685c0.449-9.006,7.874-17.457,13.126-22.565
					c4.008-3.9,14.05,4.131,7.048,9.666c-2.646,2.092-13.763,8.467-11.553,13.646c2.143,5.021,5.553-2.487,7.896-2.979
					C2052.217,372.541,2056.465,377.555,2051.608,383.053z"/>
				<g>
					<path fill="#8A8899" d="M2050.282,381.727c-5.469,5.785-14.688,5.61-15.551-3.562c-0.682-7.241,3.464-13.739,7.886-19.063
						c1.418-1.707,3.863-5.369,6.302-5.445c3.234-0.102,5.757,4.031,3.703,6.643c-3.938,5.009-13.767,7.071-13.262,15.033
						c0.153,2.418,2.292,4.949,4.878,4.238c1.369-0.377,2.46-1.558,3.409-2.538c0.705-0.728,1.919-2.618,3.32-1.482
						c2.312,1.871,0.266,4.916-0.979,6.56c-1.46,1.93,1.8,3.794,3.238,1.894c2.599-3.434,4.075-11.104-1.869-12.524
						c-2.144-0.512-3.503,0.103-5.082,1.557c-0.984,0.908-1.764,2.004-2.851,2.81c-0.5-0.986-0.445-1.921,0.164-2.802
						c0.539-1.096,1.483-1.966,2.332-2.816c3.236-3.257,10.865-5.983,11.315-11.259c0.42-4.923-3.759-8.455-8.319-9.06
						c-5.295-0.702-10.459,8.189-12.927,11.773c-4.227,6.141-6.483,14.088-4.073,21.354c3.147,9.49,15.543,7.135,21.017,1.347
						C2054.594,382.623,2051.947,379.968,2050.282,381.727z"/>
				</g>
			</g>
		</g>
		<g>
			<g>
				<path fill="#8A8899" d="M2070.747,325.484c-4.244-0.315-9.403,1.521-12.603,4.325c-2.938,2.579-3.201,6.021,0.598,7.858
					c4.754,2.298,11.235,1.136,16.192,0.317c5.259-0.865,11.783-2.535,15.333-6.844c0.622-0.756,0.811-1.92,0-2.652
					c-5.337-4.818-14.337-3.612-20.877-2.778c-2.365,0.301-2.396,4.055,0,3.75c5.284-0.675,13.897-2.228,18.225,1.682
					c0-0.885,0-1.768,0-2.652c-4.551,5.527-14.616,6.436-21.245,6.615c-2.05,0.055-9.107,0-5.26-2.867
					c2.622-1.954,6.362-3.248,9.636-3.004C2073.16,329.414,2073.142,325.664,2070.747,325.484L2070.747,325.484z"/>
			</g>
		</g>
	</g>
	<g>
		<g>
			<g>
				<path fill="#CACBD5" d="M2124.302,353.003c6.901-13.871,6.579-40.236-4.361-53.187c-8.333-9.861-9.844-13.32-30.2-16.857
					c-18.349-3.19-25.64,0.648-36.602,9.193c-12.518,9.754-17.83,35.633-14.273,42.867l-0.613-0.029
					c-0.397,4.857,15.967,12.188,23.851,14.197c18.598,4.754,43.32,9.684,60.021,4.842"/>
				<g>
					<path fill="#8A8899" d="M2125.921,353.948c7.174-15.08,6.705-35.269-0.971-50.058c-2.891-5.57-7.97-11.414-12.934-15.271
						c-6.131-4.762-14.348-6.144-21.778-7.471c-8.618-1.538-17.458-1.93-25.664,1.521c-6.546,2.752-13.479,7.636-17.769,13.336
						c-5.002,6.646-8.034,14.568-9.774,22.654c-1.175,5.463-2.104,12.021,0.215,17.305c0.54-0.94,1.079-1.882,1.619-2.821
						c-0.205-0.01-0.409-0.021-0.614-0.029c-0.99-0.047-1.917,0.89-1.875,1.875c0.215,5.006,6.528,8.059,10.312,10.083
						c6.632,3.55,13.699,5.673,20.976,7.418c17.486,4.192,37.21,8.161,54.958,3.348c2.332-0.634,1.341-4.25-0.996-3.617
						c-15.625,4.238-32.722,1.1-48.212-2.258c-6.178-1.341-12.322-2.771-18.215-5.084c-3.324-1.305-14.88-5.406-15.072-9.89
						c-0.625,0.625-1.25,1.25-1.875,1.875c0.205,0.01,0.409,0.021,0.614,0.029c1.561,0.074,2.146-1.615,1.619-2.821
						c-2.148-4.897-0.474-11.805,0.681-16.712c1.68-7.146,4.68-14.244,9.313-19.984c4.187-5.186,10.918-9.547,17.121-11.899
						c7.984-3.029,16.912-1.621,25.043-0.085c6.283,1.188,12.944,2.698,17.971,6.885c4.292,3.573,8.377,8.696,11.1,13.507
						c7.395,13.067,7.355,32.848,0.971,46.272C2121.65,354.227,2124.884,356.132,2125.921,353.948L2125.921,353.948z"/>
				</g>
			</g>
			<g>
				<path fill="#CACBD5" d="M2039.763,332.557c-6.577,3.902-25.244,3.508-21.353-13.185c2.057-8.812,20.332-14.975,27.53-18.502
					c5.491-2.688,7.521,11.472-1.016,11.65c-4.048,0.086-18.033,4.346-16.235,10.145c1.742,5.619,8.419-0.223,11.331-0.018
					C2043.561,322.898,2046.547,328.529,2039.763,332.557z"/>
				<g>
					<path fill="#8A8899" d="M2038.817,330.938c-3.693,2.031-8.338,2.197-12.357,1.189c-6.203-1.56-7.641-7.498-5.99-13.101
						c1.632-5.543,9.977-8.988,14.664-11.256c2.474-1.195,5.004-2.273,7.521-3.369c2.128-0.924,4.934-3.291,5.952-0.146
						c2.047,6.319-4.879,6.265-8.919,7.329c-3.999,1.055-9.407,2.977-11.814,6.598c-1.705,2.562-1.664,7.496,2.033,8.496
						c2.289,0.619,4.306-0.058,6.449-0.927c1.136-0.462,2.628-1.394,3.914-1.163C2044.361,325.32,2040.147,330.037,2038.817,330.938
						c-1.99,1.348-0.116,4.598,1.893,3.238c4.151-2.812,8.012-10.23,1.268-12.919c-2.711-1.081-5.062,0.248-7.586,1.273
						c-2.746,1.114-4.672-1.173-2.354-3.332c1.766-1.644,4.427-2.586,6.642-3.376c5.312-1.896,11.259-0.685,13.501-6.995
						c1.394-3.922-0.33-9.807-4.987-10.17c-2.273-0.177-5.425,2.07-7.421,2.938c-4.116,1.788-8.194,3.635-12.108,5.838
						c-6.397,3.603-11.082,8.008-11.642,15.593c-0.956,12.971,15.556,16.17,24.689,11.148
						C2042.829,333.011,2040.937,329.771,2038.817,330.938z"/>
				</g>
			</g>
		</g>
		<g>
			<g>
				<path fill="#8A8899" d="M2086.157,283.826c-4.484-1.301-9.931-0.311-13.954,1.951c-3.273,1.842-3.38,5.766-0.102,7.698
					c4.907,2.893,11.013,3.326,16.586,3.449c5.28,0.115,11.332-0.403,15.597-3.811c0.605-0.484,0.741-1.65,0.293-2.272
					c-4.314-5.986-13.54-6.597-20.292-7.144c-2.412-0.195-2.394,3.557,0,3.75c5.062,0.41,13.772,0.734,17.054,5.286
					c0.098-0.757,0.195-1.516,0.293-2.272c-5.361,4.283-15.506,3.011-21.738,1.873c-1.89-0.344-8.692-1.691-5.1-3.713
					c2.872-1.615,7.229-2.091,10.367-1.18C2087.488,288.118,2088.475,284.499,2086.157,283.826L2086.157,283.826z"/>
			</g>
		</g>
	</g>
	<g>
		<g>
			<path fill="#CACBD5" d="M2089.126,550.01c-4.275,14.893,0.816,40.764,13.92,51.518c9.982,8.188,12.095,11.316,32.756,11.109
				c18.621-0.185,25.097-5.281,34.33-15.67c10.543-11.857,11.084-38.271,6.275-44.744l0.607-0.08
				c-0.486-4.85-17.908-9.096-26.025-9.646c-19.15-1.307-44.357-1.678-59.906,6.105"/>
			<g>
				<path fill="#8A8899" d="M2087.319,549.512c-4.156,15.483-0.449,35.491,9.491,48.165c4.019,5.123,9.758,9.923,15.462,13.131
					c6.485,3.646,14.539,3.679,21.754,3.714c8.744,0.041,17.577-0.854,25.27-5.307c6.257-3.623,12.104-9.771,15.735-15.976
					c4.136-7.065,5.629-15.669,6.093-23.732c0.328-5.749,0.27-13.251-3.097-18.23c-0.54,0.94-1.079,1.881-1.618,2.821
					c0.202-0.027,0.404-0.053,0.607-0.08c1.232-0.162,2.1-1.07,1.809-2.373c-1.036-4.631-7.617-6.473-11.461-7.745
					c-7.248-2.398-14.709-3.224-22.284-3.634c-18.068-0.978-38.255-1.294-54.941,6.719c-2.18,1.047-0.275,4.279,1.894,3.238
					c14.291-6.863,31.349-6.896,46.867-6.463c6.784,0.188,13.559,0.479,20.219,1.85c3.648,0.751,15.09,2.555,16.093,7.031
					c0.603-0.791,1.205-1.582,1.808-2.373c-0.202,0.027-0.404,0.053-0.607,0.08c-1.277,0.168-2.508,1.506-1.619,2.821
					c3.045,4.506,2.781,11.153,2.584,16.338c-0.285,7.508-2.015,15.199-5.58,21.841c-3.095,5.766-8.883,11.178-14.391,14.629
					c-7.396,4.635-16.619,4.826-25.061,4.787c-6.436-0.031-13.148-0.367-18.874-3.586c-4.835-2.719-9.696-6.979-13.251-11.189
					c-9.725-11.526-13.142-31.104-9.283-45.479C2091.562,548.171,2087.945,547.178,2087.319,549.512L2087.319,549.512z"/>
			</g>
		</g>
		<g>
			<path fill="#CACBD5" d="M2171.991,563.033c6.229-4.438,24.861-5.608,22.383,11.349c-1.311,8.955-19.007,16.627-25.884,20.746
				c-5.246,3.139-8.456-10.802,0.035-11.695c4.026-0.424,17.606-5.842,15.327-11.469c-2.206-5.455-8.369,0.926-11.287,0.967
				C2169.017,572.977,2165.57,567.615,2171.991,563.033z"/>
			<g>
				<path fill="#8A8899" d="M2172.937,564.652c8.64-5.741,21.954-2.004,19.443,10.121c-1.234,5.959-9.533,10.135-14.25,12.883
					c-2.405,1.401-4.874,2.697-7.323,4.021c-2.309,1.246-4.352,3.213-5.429-0.259c-1.91-6.147,5.344-6.301,9.26-7.817
					c4.03-1.562,8.556-3.869,10.717-7.799c1.718-3.119-0.261-7.222-3.696-7.849c-1.762-0.319-3.513,0.531-5.066,1.242
					c-1.302,0.596-2.486,1.369-3.854,1.827c-1.855-0.169-2.639-1.243-2.349-3.22c0.651-1.445,1.627-2.594,2.927-3.443
					c1.875-1.529-0.795-4.166-2.652-2.652c-4.476,3.647-6.185,10.72,0.591,12.948c2.438,0.802,5.202-1.192,7.229-2.222
					c1.438-1.076,2.671-0.672,3.699,1.211c-0.166,1.061-1.236,1.91-1.965,2.587c-1.804,1.676-4.338,2.812-6.577,3.753
					c-5.07,2.129-11.077,1.623-12.116,8.355c-0.534,3.47,1.486,10.188,6.248,9.035c2.741-0.662,5.434-2.732,7.898-4.064
					c3.748-2.021,7.431-4.143,10.928-6.576c6.144-4.275,10.405-9.336,9.769-17.123c-0.998-12.209-16.916-13.783-25.322-8.197
					C2169.042,562.746,2170.917,565.995,2172.937,564.652z"/>
			</g>
		</g>
		<g>
			<g>
				<path fill="#8A8899" d="M2088.052,548.803c-5.156,6.132,8.574,8.701,11.896,9.399c9.688,2.037,19.748,3.138,29.632,3.611
					c6.528,0.313,54.162-1.025,48.521-13.165c-1.019-2.19-4.25-0.286-3.238,1.894c1.298,2.789-18.191,5.556-19.728,5.744
					c-8.062,0.996-16.512,1.99-24.648,1.812c-7.271-0.16-14.611-1.109-21.797-2.162c-4.031-0.591-8.05-1.316-11.995-2.338
					c-1.185-0.305-5.907-2.241-5.989-2.144C2092.249,549.617,2089.61,546.949,2088.052,548.803L2088.052,548.803z"/>
			</g>
		</g>
	</g>
</g>
<g>
	<g>
		<g>
			<g>
				<path fill="#CACBD5" d="M1679.174,335.346c2.204-2.197,3.381-4.496,3.381-6.865c0-1.666-5.866-1.646-8.12-2.875
					c0.972-1.068,1.768-2.229,2.291-3.492c1.771-1.994,3.161-4.174,1.976-5.485c-12.72-14.052-41.911-22.611-94.409-23.931
					c-20.729-0.789-41.281-0.33-60.945,1.537c-35.735,2.926-60.412,9.574-63.059,19.842c-2.375,2.97-2.772,6.164-0.002,9.464
					c-1.04,1.467-1.625,2.971-1.719,4.506c-5.211,1.557-6.626,5.381-2.17,9.44l3.088-5.362c0.404,0.778,0.934,1.549,1.586,2.309
					c-1.42,1.416-2.408,2.873-2.936,4.363l-0.844-0.006c0.237,0.145,0.476,0.28,0.714,0.422c-0.203,0.688-0.318,1.385-0.318,2.086
					c0,0.051,0.006,0.102,0.008,0.151c-4.344,2.23-2.022,6.488-0.149,9.914c-0.131,0.556-0.203,1.111-0.203,1.674
					c0,0.259,0.015,0.515,0.044,0.771c-2.936,1.324-1.535,5.74,0.191,8.393c-0.274,0.687-0.462,1.377-0.536,2.074
					c-5.752,3.211-4.316,10.818-0.172,15.062c0.074,0.301,0.172,0.602,0.282,0.899c-8.918-3.363-4.259,3.383-0.134,8.31
					c-0.271,0.797-0.417,1.6-0.417,2.411c0,0.623,0.091,1.24,0.25,1.854c-4.925,0.525-2.652,4.041,0.327,7.393l0.23-5.868
					c0.481,1.006,1.169,1.998,2.063,2.969c-0.881,1.133-1.462,2.293-1.783,3.471c-0.173-0.188-0.344-0.379-0.512-0.57l-0.22,5.55
					c0.183-0.334,0.449-0.593,0.812-0.752c0.371,1.143,1.01,2.266,1.908,3.364c-0.905,0.828-1.652,1.675-2.256,2.533
					c-0.241-0.602-0.45-1.252-0.595-1.897l-0.12,3.047c-0.014,0.024-0.021,0.049-0.034,0.073l-0.277-0.002
					c0.073,0.043,0.146,0.084,0.217,0.129c-0.015,0.029-0.027,0.062-0.043,0.093c-8.509-0.107-3.675,8.576-1.378,12.315
					c-0.068,0.129-0.123,0.258-0.183,0.388c-7.269-1.636-3.343,5.612,0.375,10.809c-1.31,1.715-2.001,3.484-2.001,5.295
					c0,0.611,0.087,1.217,0.24,1.818c-0.209,1.428,0.381,3.133,1.587,4.412c-0.274,0.346-0.525,0.692-0.749,1.043
					c-7.107,0.008-2.41,7.262,0.207,11.215c-0.46,0.608-0.84,1.223-1.144,1.846c-5.048,0.168-2.228,4.885,0.881,8.822l0.021-0.492
					c0.275,0.393,0.576,0.783,0.916,1.168c-0.071,0.078-0.134,0.154-0.203,0.232c-0.244-0.3-0.488-0.601-0.732-0.908l-0.073,1.881
					c-0.587,0.773-1.048,1.557-1.375,2.352c-5.102,0.941-1.692,8.882,0.153,12.877c-0.175,0.363-0.312,0.729-0.433,1.095
					c-8.474-1.345-2.704,7.584,0.541,11.832l0.217-5.508c0.449,0.784,1.029,1.561,1.732,2.321c-0.869,1.117-1.445,2.26-1.771,3.422
					c-0.059-0.075-0.119-0.155-0.18-0.235l-0.061,1.52c-0.022,0.23-0.066,0.459-0.066,0.691c0,0.104,0.011,0.205,0.016,0.307
					c-3.314,2.094-4.225,5.394-0.292,7.687l0.298-7.552c0.207,3.375,2.792,6.605,7.354,9.593l-6.312-0.087
					c-4.025,3.91,25.942,11.732,36.23,14.339c16.55,3.911,38.019,6.192,60.831,6.846c45.462,1.299,80.065,1.303,119.428-18.252
					l-5.84-0.078c7.863-3.84,12.302-8.189,12.302-12.801c0-2.185-0.994-4.308-2.875-6.347c1.357-1.745,2.078-3.553,2.078-5.397
					c0-2.291-1.104-4.519-3.175-6.65c2.104-2.149,3.229-4.397,3.229-6.711c0-1.389-0.415-2.756-1.196-4.09
					c1.09-0.539,2.119-1.07,3.082-1.594l-4.168,0.043c-0.12-0.146-0.236-0.297-0.366-0.443c1.954-2.074,2.994-4.242,2.994-6.465
					c0-1.312-0.369-2.6-1.063-3.861c0.837-0.557,1.56-1.11,2.157-1.657l-3.261,0.018c-0.081-0.1-0.155-0.203-0.239-0.303
					c1.796-1.994,2.751-4.07,2.751-6.205c0-1.209-0.308-2.4-0.902-3.572c0.29-0.139,0.551-0.264,0.758-0.369l-0.966-0.004
					c-0.325-0.582-0.716-1.158-1.181-1.727c1.72-1.953,2.632-3.982,2.632-6.066c0-1.319-0.374-2.621-1.082-3.893
					c0.669-0.342,1.32-0.683,1.938-1.019l-2.563,0.027c-0.25-0.357-0.519-0.713-0.821-1.064c2.206-2.198,3.385-4.5,3.385-6.866
					c0-1.642-0.599-3.244-1.677-4.808c0.275-0.219,0.547-0.438,0.783-0.651l-1.228,0.008c-0.003-0.006-0.005-0.008-0.007-0.012
					c2.354-2.265,3.612-4.642,3.612-7.093c0-1.938-0.787-3.834-2.284-5.664c2.578-2.36,3.958-4.848,3.958-7.411
					c0-2.185-0.991-4.308-2.872-6.347c1.354-1.748,2.074-3.551,2.074-5.397c0-0.023-0.004-0.05-0.005-0.074
					c0.106-0.09,0.229-0.183,0.328-0.273l-0.345,0.002c-0.105-2.17-1.188-4.28-3.152-6.307c2.107-2.146,3.229-4.395,3.229-6.707
					c0-2.092-0.919-4.127-2.65-6.088c1.955-2.074,2.994-4.24,2.994-6.465c0-1.99-0.832-3.931-2.404-5.806
					c1.797-1.993,2.749-4.067,2.749-6.2c0-1.943-0.789-3.841-2.29-5.673c1.721-1.954,2.634-3.985,2.634-6.067
					C1681.703,339.255,1680.824,337.264,1679.174,335.346z M1458.26,372.854l0.134-3.391c0.355,0.561,0.77,1.116,1.254,1.668
					C1459.112,371.697,1458.653,372.273,1458.26,372.854z M1459.317,346.082c0.202,0.296,0.418,0.595,0.659,0.888
					c-0.265,0.301-0.505,0.604-0.731,0.91L1459.317,346.082z M1458.86,357.646c0.266,0.402,0.557,0.801,0.888,1.195
					c-0.366,0.407-0.688,0.817-0.983,1.231L1458.86,357.646z M1457.905,381.791c0.499,0.83,1.143,1.65,1.924,2.457
					c-0.896,0.914-1.602,1.849-2.131,2.796L1457.905,381.791z M1456.439,418.902c0.351,0.789,0.805,1.568,1.406,2.336
					c-0.593,0.57-1.115,1.148-1.567,1.732L1456.439,418.902z M1455.876,433.117c0.27,0.392,0.561,0.777,0.892,1.162
					c-0.356,0.355-0.676,0.713-0.979,1.074L1455.876,433.117z M1455.353,446.396c0.104,0.141,0.207,0.279,0.321,0.418
					c-0.126,0.143-0.238,0.287-0.354,0.432L1455.353,446.396z M1454.895,457.99c0.172,0.234,0.355,0.469,0.55,0.699
					c-0.214,0.238-0.416,0.479-0.604,0.721L1454.895,457.99z M1453.94,482.152c0.443,0.656,0.966,1.305,1.587,1.943
					c-0.694,0.711-1.272,1.432-1.749,2.162L1453.94,482.152z"/>
			</g>
		</g>
		<g>
			<path fill="#CACBD5" d="M1456.831,408.998l0.13-3.248C1456.519,406.55,1456.555,407.764,1456.831,408.998z"/>
		</g>
	</g>
	<g>
		<path fill="#CACBD5" d="M1676.911,325.427c10.736-1.627,4.922,13.039,0,15.645c12.077-0.977,2.236,10.756-0.445,13.363
			c8.945-1.305,3.131,5.537-0.447,7.172c3.13,3.582,8.499,4.887,8.051,10.1c-0.446,3.912-5.367,8.476-9.393,11.08
			c9.841,0.326,11.183,5.867,3.132,10.104c5.366,0.324,8.051-0.324,8.051,4.236c0,3.258-4.474,6.844-7.157,8.799
			c11.631,0,0,6.518-3.578,8.801c8.5,0,2.686,9.449-2.236,10.754c10.736,1.305,6.71,10.43,1.342,14.34
			c4.026,0.978,7.157-0.979,8.052,2.607c0.448,2.278-4.472,6.19-6.71,7.168c12.078,3.584,3.578,7.821-1.787,13.037
			c12.971,2.28,8.498,5.539,0.445,10.756c16.551-0.328-2.234,13.688-5.365,16.295c2.682,0.324,11.182,1.301,12.076,3.582
			c0.895,2.611-6.263,6.518-8.053,8.477c12.973,5.213,0.896,11.08-7.154,14.013"/>
	</g>
</g>
<g>
	<g>
		<path fill="#CACBD5" d="M1733.379,352.768l0.102-2.836C1733.134,350.63,1733.162,351.689,1733.379,352.768z"/>
	</g>
	<g>
		<g>
			<path fill="#CACBD5" d="M1909.896,350.148c0.258-0.609,0.438-1.225,0.532-1.846c1.798-1.701,3.593-3.873,3.593-5.902
				c0-3.312-1.469-3.479-4.394-3.604c0.146-0.56,0.241-1.121,0.25-1.689c3.082-2.799,2.41-5.766-1.752-6.828
				c1.136-1.539,1.754-3.131,1.793-4.76c1.434-1.721,2.513-3.592,2.689-5.316c0.189-2.455-0.957-3.916-2.438-5.231
				c0.016-0.195,0.029-0.39,0.029-0.584c0-1.631-0.585-3.226-1.682-4.767c1.252-1.305,2.191-2.916,1.693-3.856
				c0.168-0.613,0.26-1.234,0.26-1.859c0-1.035-0.234-2.057-0.685-3.057c1.559-2.572,2.655-5.482,0.935-6.771
				c0.009-0.141,0.021-0.283,0.021-0.426c0-1.203-0.321-2.383-0.926-3.539c2.511-4.496,3.476-11.383-2.854-10.318l-0.043,0.836
				c-0.75-0.18-1.432-0.393-1.91-0.682c0.767-0.932,1.395-1.947,1.809-3.047c1.396-1.742,2.492-3.646,1.557-4.791
				c-10.03-12.269-33.049-19.742-74.442-20.896c-16.359-0.69-32.578-0.288-48.098,1.343c-28.183,2.555-47.644,8.36-49.729,17.323
				c-1.874,2.595-2.188,5.384-0.002,8.265c-0.82,1.278-1.282,2.594-1.355,3.934c-4.109,1.359-5.227,4.699-1.712,8.244l2.437-4.684
				c0.318,0.682,0.734,1.354,1.251,2.016c-1.12,1.236-1.899,2.51-2.315,3.811l-0.665-0.004c0.188,0.125,0.375,0.244,0.562,0.369
				c-0.16,0.603-0.251,1.207-0.251,1.82c0,0.045,0.005,0.088,0.006,0.133c-3.426,1.947-1.596,5.664-0.118,8.656
				c-0.104,0.484-0.16,0.971-0.16,1.463c0,0.226,0.012,0.447,0.033,0.67c-2.313,1.156-1.21,5.017,0.152,7.33
				c-0.218,0.599-0.363,1.201-0.424,1.812c-4.535,2.803-3.403,9.442-0.134,13.147c0.058,0.265,0.134,0.525,0.222,0.787
				c-7.034-2.938-3.358,2.953-0.104,7.254c-0.214,0.695-0.329,1.396-0.329,2.107c0,0.543,0.071,1.082,0.197,1.617
				c-3.885,0.459-2.092,3.528,0.258,6.454l0.184-5.125c0.38,0.88,0.922,1.744,1.628,2.593c-0.695,0.989-1.153,2.002-1.407,3.03
				c-0.136-0.166-0.271-0.329-0.403-0.497l-0.173,4.846c0.145-0.291,0.354-0.519,0.643-0.656c0.293,0.996,0.796,1.978,1.505,2.937
				c-0.714,0.725-1.305,1.465-1.779,2.213c-0.19-0.523-0.355-1.093-0.469-1.656l-0.096,2.66c-0.01,0.021-0.018,0.043-0.026,0.063
				l-0.219-0.002c0.057,0.037,0.113,0.074,0.172,0.111c-0.014,0.027-0.023,0.055-0.035,0.082c-6.711-0.094-2.898,7.488-1.088,10.754
				c-0.054,0.113-0.097,0.227-0.144,0.34c-5.731-1.428-2.636,4.9,0.296,9.437c-1.031,1.498-1.578,3.043-1.578,4.625
				c0,0.532,0.068,1.061,0.189,1.586c-0.165,1.248,0.3,2.735,1.251,3.854c-0.217,0.303-0.414,0.605-0.591,0.91
				c-5.605,0.01-1.9,6.342,0.165,9.793c-0.363,0.531-0.664,1.068-0.902,1.611c-3.98,0.146-1.758,4.268,0.694,7.703l0.016-0.429
				c0.219,0.343,0.454,0.683,0.724,1.021c-0.058,0.065-0.105,0.135-0.16,0.201c-0.192-0.261-0.386-0.523-0.578-0.793l-0.06,1.643
				c-0.462,0.676-0.824,1.361-1.084,2.055c-4.022,0.82-1.334,7.756,0.121,11.244c-0.138,0.316-0.246,0.635-0.341,0.953
				c-6.684-1.172-2.134,6.623,0.427,10.334l0.172-4.811c0.354,0.686,0.812,1.36,1.365,2.026c-0.686,0.976-1.14,1.974-1.396,2.988
				c-0.046-0.066-0.095-0.137-0.144-0.205l-0.047,1.326c-0.018,0.201-0.053,0.399-0.053,0.604c0,0.09,0.009,0.181,0.013,0.269
				c-2.614,1.828-3.332,4.709-0.229,6.709l0.234-6.592c0.163,2.946,2.202,5.768,5.802,8.375l-4.979-0.074
				c-3.176,3.414,20.462,10.244,28.576,12.52c13.054,3.414,29.986,5.408,47.979,5.978c35.856,1.135,63.15,1.139,94.196-15.937
				l-3.077-0.047c5.366-2.26,12.209-6.139,8.06-9.938c0.077-0.418,0.115-0.841,0.115-1.263c0-1.035-0.239-2.055-0.688-3.057
				c1.985-1.648,4.16-3.582,3.706-5.051c-0.318-0.898-1.864-1.564-3.655-2.052c0.002-0.032,0.01-0.063,0.01-0.096
				c0-1.646-0.6-3.254-1.716-4.809c4.338-4.256,9.114-10.234,0.835-10.396c-0.008-0.012-0.015-0.024-0.021-0.037
				c0.859-0.471,1.672-0.936,2.432-1.393l-1.243,0.016c4.574-3.418,6.491-5.764-0.141-7.498c-0.138-0.635-0.362-1.262-0.671-1.883
				c0.66-0.485,1.23-0.971,1.702-1.449l-0.265,0.003c3.356-3.185,5.795-5.912-0.84-8.31c-0.062-0.158-0.125-0.317-0.198-0.479
				c0.229-0.119,0.434-0.23,0.597-0.32l-0.109-0.002c1.918-1.31,4.642-4.006,4.343-5.689c-0.511-2.268-1.951-1.998-3.912-2
				c-0.093-0.717-0.297-1.424-0.607-2.123c0.228-0.28,0.442-0.571,0.646-0.873c0.232-0.137,0.473-0.272,0.698-0.409l-0.437,0.006
				c1.62-2.59,2.244-5.664,0.372-7.607c-0.121-1.188-0.548-2.354-1.259-3.496c0.217-0.19,0.431-0.381,0.616-0.569l-0.382,0.002
				c1.159-1.355,2.002-3.05,2.028-4.445c0.147-0.58,0.229-1.162,0.229-1.752c0-1.019-0.228-2.021-0.661-3.002
				C1911.575,353.453,1914.647,350.613,1909.896,350.148z M1734.505,321.207l0.105-2.961c0.28,0.49,0.606,0.978,0.989,1.455
				C1735.178,320.197,1734.816,320.699,1734.505,321.207z M1735.34,297.83c0.159,0.26,0.331,0.519,0.521,0.775
				c-0.209,0.264-0.397,0.527-0.577,0.795L1735.34,297.83z M1734.979,307.93c0.209,0.35,0.438,0.697,0.7,1.043
				c-0.289,0.354-0.543,0.715-0.776,1.076L1734.979,307.93z M1734.226,329.01c0.394,0.727,0.901,1.44,1.518,2.146
				c-0.707,0.799-1.264,1.613-1.681,2.439L1734.226,329.01z M1733.07,361.416c0.276,0.688,0.635,1.369,1.109,2.039
				c-0.468,0.498-0.88,1.002-1.236,1.515L1733.07,361.416z M1732.626,373.828c0.213,0.341,0.441,0.679,0.702,1.015
				c-0.28,0.311-0.532,0.623-0.771,0.938L1732.626,373.828z M1732.214,385.425c0.083,0.121,0.162,0.244,0.253,0.364
				c-0.1,0.125-0.188,0.25-0.279,0.375L1732.214,385.425z M1731.852,395.548c0.136,0.205,0.28,0.407,0.434,0.61
				c-0.169,0.207-0.328,0.418-0.479,0.627L1731.852,395.548z M1731.099,416.645c0.35,0.572,0.762,1.139,1.251,1.695
				c-0.549,0.621-1.004,1.252-1.379,1.889L1731.099,416.645z M1897.419,445.63c0.263-0.142,0.517-0.283,0.77-0.429l-0.023,0.439
				L1897.419,445.63z"/>
		</g>
	</g>
</g>
<g>
	<g>
		<path fill="#CACBD5" d="M1806.344,527.309c0-2.404,0.972-4.738,2.792-6.973c-1.79-2.218-2.745-4.531-2.745-6.916
			c0-2.312,0.899-4.56,2.588-6.718c-1.494-2.039-2.291-4.153-2.291-6.325c0-2.214,0.825-4.371,2.377-6.443
			c-1.359-1.945-2.078-3.963-2.078-6.033c0-2.164,0.789-4.274,2.276-6.307c-1.296-1.904-1.979-3.875-1.979-5.896
			c0-2.463,1.018-4.852,2.923-7.135c-1.429-1.994-2.188-4.062-2.188-6.184c0-2.547,1.085-5.017,3.12-7.371
			c-1.199-1.836-1.837-3.732-1.837-5.674c0-2.668,1.195-5.25,3.423-7.705c-1.294-1.902-1.976-3.869-1.976-5.888
			c0-1.92,0.622-3.793,1.796-5.608c-1.623-2.117-2.482-4.326-2.482-6.595c0-2.401,0.97-4.737,2.79-6.973
			c-1.788-2.215-2.743-4.529-2.743-6.912c0-2.312,0.896-4.562,2.586-6.719c-1.496-2.039-2.29-4.154-2.29-6.326
			c0-2.213,0.824-4.369,2.377-6.442c-1.358-1.947-2.079-3.966-2.079-6.031c0-2.168,0.791-4.277,2.277-6.31
			c-1.297-1.903-1.979-3.877-1.979-5.895c0-2.463,1.02-4.853,2.927-7.137c-1.431-1.99-2.188-4.062-2.188-6.185
			c0-2.545,1.085-5.016,3.12-7.369c-1.203-1.836-1.837-3.731-1.837-5.674c0-16.106,41.217-24.336,94.694-24.336
			c53.479,0,82.363,9.146,94.351,25.062c1.6,2.127-2.217,6.45-4.253,8.807c1.201,1.836,7.585,1.568,7.585,3.51
			c0,2.463-1.019,4.854-2.924,7.138c1.428,1.991,2.187,4.061,2.187,6.184c0,2.164-0.789,4.275-2.275,6.307
			c1.298,1.904,1.979,3.875,1.979,5.896c0,2.213-0.823,4.369-2.376,6.442c1.359,1.947,2.078,3.964,2.078,6.031
			c0,2.312-0.897,4.562-2.588,6.719c1.496,2.037,2.291,4.154,2.291,6.326c0,2.402-0.972,4.738-2.792,6.974
			c1.79,2.215,2.743,4.53,2.743,6.911c0,1.921-0.621,3.794-1.793,5.611c1.625,2.117,2.482,4.324,2.482,6.592
			c0,2.668-1.192,5.25-3.422,7.705c1.294,1.902,1.976,3.869,1.976,5.888c0,2.547-1.088,5.016-3.123,7.37
			c1.201,1.837,1.838,3.732,1.838,5.675c0,2.461-1.019,4.854-2.926,7.137c1.429,1.992,2.188,4.061,2.188,6.182
			c0,2.166-0.789,4.275-2.276,6.308c1.298,1.903,1.981,3.877,1.981,5.895c0,2.217-0.826,4.373-2.378,6.445
			c1.357,1.947,2.078,3.963,2.078,6.031c0,2.312-0.897,4.563-2.588,6.721c1.496,2.035,2.291,4.152,2.291,6.322
			c0,2.403-0.973,4.737-2.792,6.975c1.79,2.217,2.745,4.531,2.745,6.914c0,1.916-0.623,3.793-1.796,5.607
			c1.625,2.12,2.484,4.327,2.484,6.594c0,16.11-43.354,29.166-96.831,29.166c-53.479,0-96.83-13.056-96.83-29.166
			c0-1.918,0.621-3.793,1.795-5.609C1807.202,531.783,1806.344,529.576,1806.344,527.309z"/>
	</g>
	<g>
		<g>
			<path fill="#8A8899" d="M2002.664,347.314c-0.998-7.9-11.103-11.996-17.432-14.732c-10.498-4.541-21.796-7.381-32.988-9.565
				c-29.801-5.82-61.944-4.887-91.902-0.811c-10.229,1.394-20.018,3.522-29.542,7.561c-7.162,3.035-15.482,6.923-19.61,13.896
				c-4.172,7.047,2.045,12.966,7.088,17.193c7.532,6.316,16.517,10.467,25.875,13.276c13.64,4.095,28.162,5.197,42.3,6.096
				c16.822,1.068,33.769,1.142,50.543-0.636c15.59-1.653,30.984-5.779,45.526-11.603c8.712-3.487,20.462-9.418,20.144-20.338
				c-0.065-2.258-3.575-2.265-3.51,0c0.337,11.559-16.524,16.776-25.088,19.753c-13.158,4.573-26.604,7.673-40.475,9.022
				c-14.086,1.371-28.314,1.237-42.436,0.555c-13.267-0.643-26.62-1.711-39.613-4.569c-10.748-2.363-21.088-6.501-29.832-13.271
				c-3.234-2.504-8.065-5.928-8.377-10.373c-0.293-4.188,4.341-7.646,7.325-9.738c19.671-13.788,47.175-15.045,70.181-15.994
				c22.453-0.928,45.48-0.128,67.453,4.833c7.938,1.793,15.83,4.049,23.41,7.023c4.991,1.958,16.647,6.062,17.45,12.421
				C1999.433,349.528,2002.947,349.556,2002.664,347.314L2002.664,347.314z"/>
		</g>
	</g>
	<g>
		<g>
			<path fill="#8A8899" d="M1994.222,551.382c-15.06,8.875-31.204,14.688-48.48,17.324c-17.196,2.624-34.803,2.032-52.125,1.462
				c-18.197-0.599-37.046-1.972-54.556-7.317c-2.953-0.9-30.592-10.613-29.591-12.114c1.259-1.89-1.782-3.645-3.031-1.771
				c-4.5,6.751,19.071,13.173,22.435,14.311c16.791,5.682,34.032,8.476,51.691,9.76c20.206,1.47,41.001,2.001,61.16-0.287
				c19.312-2.191,37.541-8.478,54.27-18.335C1997.941,553.264,1996.177,550.229,1994.222,551.382L1994.222,551.382z"/>
		</g>
	</g>
	<g>
		<g>
			<path fill="#8A8899" d="M1807.181,551.604c2.264,0,2.264-3.51,0-3.51C1804.917,548.094,1804.917,551.604,1807.181,551.604
				L1807.181,551.604z"/>
		</g>
	</g>
	<g>
		<g>
			<path fill="#8A8899" d="M1811.049,350.761c2.264,0,2.264-3.51,0-3.51C1808.784,347.252,1808.785,350.761,1811.049,350.761
				L1811.049,350.761z"/>
		</g>
	</g>
	<g>
		<g>
			<path fill="#8A8899" d="M2000.41,369.166c-9.239,5.535-19.781,9.222-30.002,12.429c-21.204,6.653-43.061,9.248-65.223,9.528
				c-18.772,0.239-37.861-0.487-56.128-5.171c-13.67-3.504-26.103-9.921-37.51-18.14c-1.842-1.325-3.59,1.721-1.771,3.031
				c11.697,8.426,24.395,14.776,38.35,18.492c18.49,4.924,38.041,5.468,57.061,5.297c22.503-0.201,44.609-3.041,66.155-9.655
				c10.484-3.218,21.379-7.114,30.841-12.78C2004.12,371.035,2002.356,368,2000.41,369.166L2000.41,369.166z"/>
		</g>
	</g>
	<g>
		<g>
			<path fill="#8A8899" d="M2000.827,380.279c-7.061,7.532-19.774,10.605-29.29,13.334c-17.277,4.955-35.197,7.803-53.089,9.311
				c-19.24,1.619-38.81,1.478-57.897-1.614c-17.155-2.777-34.807-8.262-48.261-19.674c-1.715-1.455-4.209,1.016-2.481,2.479
				c27.888,23.655,70.428,24.955,105.062,22.59c18.169-1.239,36.328-4.075,53.946-8.705c11.061-2.905,23.57-6.35,32.705-13.577
				c0.639-0.507,1.229-1.067,1.787-1.662C2004.855,381.111,2002.378,378.625,2000.827,380.279L2000.827,380.279z"/>
		</g>
	</g>
	<g>
		<g>
			<path fill="#8A8899" d="M2001.569,392.873c-22.281,14.404-50.629,20.941-76.644,23.81c-38.371,4.23-77.777-2.068-111.446-21.437
				c-1.966-1.13-3.732,1.902-1.771,3.031c34.319,19.74,74.129,25.976,113.219,21.914c26.578-2.76,55.672-9.586,78.415-24.287
				C2005.233,394.68,2003.476,391.641,2001.569,392.873L2001.569,392.873z"/>
		</g>
	</g>
	<g>
		<g>
			<path fill="#8A8899" d="M2002.343,410.824c-9.239,5.535-19.782,9.222-30.001,12.429c-21.206,6.654-43.062,9.247-65.224,9.528
				c-18.772,0.239-37.86-0.487-56.128-5.171c-13.67-3.504-26.102-9.921-37.511-18.14c-1.841-1.325-3.59,1.721-1.771,3.031
				c11.697,8.426,24.396,14.776,38.351,18.491c18.491,4.925,38.041,5.469,57.061,5.298c22.503-0.201,44.608-3.041,66.155-9.654
				c10.485-3.219,21.379-7.113,30.84-12.781C2006.052,412.693,2004.289,409.658,2002.343,410.824L2002.343,410.824z"/>
		</g>
	</g>
	<g>
		<g>
			<path fill="#8A8899" d="M2002.76,421.939c-7.062,7.531-19.775,10.604-29.29,13.332c-17.277,4.955-35.198,7.803-53.088,9.311
				c-19.241,1.619-38.812,1.478-57.899-1.612c-17.154-2.778-34.806-8.263-48.26-19.674c-1.715-1.455-4.21,1.016-2.482,2.479
				c27.889,23.654,70.429,24.954,105.063,22.588c18.17-1.24,36.329-4.075,53.946-8.704c11.06-2.905,23.569-6.349,32.704-13.577
				c0.64-0.506,1.229-1.066,1.787-1.661C2006.789,422.771,2004.311,420.285,2002.76,421.939L2002.76,421.939z"/>
		</g>
	</g>
	<g>
		<g>
			<path fill="#8A8899" d="M2003.503,434.535c-22.281,14.402-50.63,20.938-76.645,23.808c-38.371,4.229-77.776-2.07-111.444-21.438
				c-1.966-1.13-3.731,1.902-1.771,3.031c34.318,19.74,74.127,25.975,113.216,21.916c26.579-2.76,55.672-9.584,78.415-24.285
				C2007.167,436.343,2005.41,433.303,2003.503,434.535L2003.503,434.535z"/>
		</g>
	</g>
	<g>
		<g>
			<path fill="#8A8899" d="M1999.636,445.371c-9.239,5.535-19.782,9.222-30.002,12.429c-21.205,6.653-43.062,9.248-65.223,9.528
				c-18.772,0.238-37.86-0.489-56.129-5.172c-13.669-3.504-26.101-9.92-37.51-18.139c-1.841-1.325-3.59,1.721-1.771,3.031
				c11.696,8.426,24.394,14.774,38.349,18.49c18.492,4.925,38.042,5.469,57.062,5.299c22.504-0.201,44.608-3.041,66.155-9.655
				c10.484-3.218,21.378-7.114,30.84-12.78C2003.346,447.24,2001.583,444.205,1999.636,445.371L1999.636,445.371z"/>
		</g>
	</g>
	<g>
		<g>
			<path fill="#8A8899" d="M1999.667,455.469c-7.062,7.53-19.774,10.604-29.291,13.333c-17.276,4.954-35.197,7.803-53.089,9.31
				c-19.24,1.621-38.81,1.479-57.898-1.613c-17.154-2.776-34.807-8.262-48.261-19.674c-1.715-1.455-4.211,1.017-2.481,2.48
				c27.888,23.655,70.429,24.955,105.063,22.59c18.17-1.242,36.329-4.076,53.947-8.706c11.061-2.906,23.569-6.349,32.705-13.577
				c0.639-0.506,1.229-1.066,1.787-1.662C2003.696,456.302,2001.219,453.814,1999.667,455.469L1999.667,455.469z"/>
		</g>
	</g>
	<g>
		<g>
			<path fill="#8A8899" d="M2000.796,469.08c-22.281,14.403-50.629,20.939-76.645,23.808c-38.371,4.229-77.775-2.07-111.443-21.438
				c-1.967-1.13-3.732,1.902-1.771,3.031c34.319,19.741,74.127,25.976,113.216,21.916c26.579-2.76,55.672-9.584,78.415-24.285
				C2004.46,470.887,2002.703,467.848,2000.796,469.08L2000.796,469.08z"/>
		</g>
	</g>
	<g>
		<g>
			<path fill="#8A8899" d="M1999.636,482.289c-9.241,5.532-19.781,9.221-30.002,12.428c-21.205,6.653-43.062,9.247-65.223,9.527
				c-18.772,0.238-37.86-0.488-56.129-5.172c-13.67-3.504-26.102-9.92-37.51-18.139c-1.841-1.325-3.59,1.721-1.771,3.031
				c11.696,8.426,24.394,14.775,38.349,18.491c18.492,4.925,38.042,5.468,57.062,5.298c22.504-0.201,44.608-3.041,66.155-9.654
				c10.485-3.219,21.376-7.115,30.84-12.779C2003.347,484.159,2001.583,481.124,1999.636,482.289L1999.636,482.289z"/>
		</g>
	</g>
	<g>
		<g>
			<path fill="#8A8899" d="M2000.054,493.402c-7.062,7.532-19.775,10.605-29.29,13.334c-17.278,4.954-35.199,7.802-53.089,9.31
				c-19.241,1.62-38.812,1.477-57.899-1.614c-17.154-2.778-34.806-8.263-48.26-19.675c-1.715-1.455-4.21,1.016-2.482,2.479
				c27.889,23.655,70.428,24.957,105.064,22.591c18.169-1.24,36.328-4.074,53.945-8.704c11.061-2.905,23.57-6.35,32.705-13.577
				c0.64-0.507,1.229-1.067,1.787-1.662C2004.083,494.234,2001.605,491.748,2000.054,493.402L2000.054,493.402z"/>
		</g>
	</g>
	<g>
		<g>
			<path fill="#8A8899" d="M2000.796,505.998c-22.281,14.403-50.629,20.939-76.645,23.808c-38.37,4.229-77.775-2.07-111.443-21.438
				c-1.967-1.13-3.732,1.902-1.771,3.031c34.319,19.74,74.128,25.975,113.216,21.916c26.579-2.76,55.672-9.584,78.415-24.285
				C2004.46,507.805,2002.703,504.766,2000.796,505.998L2000.796,505.998z"/>
		</g>
	</g>
	<g>
		<g>
			<path fill="#8A8899" d="M1997.382,521.223c-7.062,7.531-19.774,10.604-29.289,13.333c-17.278,4.954-35.199,7.803-53.089,9.31
				c-19.241,1.62-38.811,1.479-57.898-1.612c-17.155-2.778-34.806-8.265-48.26-19.677c-1.715-1.455-4.21,1.017-2.482,2.48
				c27.888,23.656,70.429,24.957,105.063,22.591c18.169-1.241,36.328-4.075,53.945-8.705c11.061-2.905,23.569-6.349,32.704-13.577
				c0.64-0.506,1.229-1.066,1.787-1.662C2001.41,522.055,1998.932,519.568,1997.382,521.223L1997.382,521.223z"/>
		</g>
	</g>
	<g>
		<g>
			<path fill="#8A8899" d="M1998.126,533.818c-22.281,14.402-50.63,20.938-76.645,23.807c-38.371,4.23-77.776-2.069-111.445-21.438
				c-1.966-1.13-3.731,1.902-1.771,3.031c34.319,19.74,74.128,25.975,113.217,21.916c26.579-2.76,55.672-9.584,78.415-24.285
				C2001.789,535.625,2000.032,532.587,1998.126,533.818L1998.126,533.818z"/>
		</g>
	</g>
	<g>
		<g>
			<path fill="#8A8899" d="M1964.801,346.087c3.034,13.315-26.886,14.649-34.434,15.227c-16.812,1.283-34.124,0.854-50.879-0.771
				c-6.905-0.671-13.753-1.822-20.479-3.526c-3.029-0.769-5.995-1.756-8.921-2.851c-2.524-0.942-10.596-3.514-6.621-7.334
				c4.52-4.345,12.434-6.112,18.281-7.684c7.687-2.062,15.641-3.032,23.562-3.589c12.208-0.858,24.542-0.264,36.723,0.736
				c12.173,0.999,24.597,2.503,36.26,6.273c2.159,0.699,3.077-2.689,0.934-3.383c-11.008-3.562-22.658-5.012-34.133-6.127
				c-12.054-1.172-24.224-1.687-36.325-1.201c-13.234,0.531-27.108,2.428-39.349,7.713c-6.835,2.951-16.243,9.15-6.449,15.229
				c10.383,6.442,24.645,7.998,36.519,9.251c9.649,1.019,19.386,1.256,29.082,1.382c15.018,0.194,30.812-0.146,45.321-4.381
				c7.373-2.152,16.362-6.814,14.293-15.9C1967.682,342.946,1964.299,343.884,1964.801,346.087L1964.801,346.087z"/>
		</g>
	</g>
	<g>
		<g>
			<path fill="#8A8899" d="M1952.266,346.977c-16.783-5.705-33.811-6.438-51.364-6.625c-14.501-0.155-29.317,0.404-43.146,5.271
				c-2.119,0.746-1.207,4.138,0.934,3.384c12.947-4.558,26.694-5.216,40.282-5.16c17.854,0.071,35.291,0.713,52.359,6.514
				C1953.482,351.091,1954.396,347.7,1952.266,346.977L1952.266,346.977z"/>
		</g>
	</g>
	<g>
		<g>
			<path fill="#8A8899" d="M1814.915,355.72c-3.305,0.392-6.852,1.468-8.468,4.652c-1.589,3.132,0.121,6.449,2.199,8.841
				c1.487,1.712,3.959-0.781,2.482-2.48c-1.158-1.332-2.368-3.175-1.464-4.957c0.902-1.779,3.472-2.336,5.25-2.546
				C1817.134,358.968,1817.16,355.454,1814.915,355.72L1814.915,355.72z"/>
		</g>
	</g>
	<g>
		<g>
			<path fill="#8A8899" d="M1811.708,369.846c-7.256,3.1-3.811,9.729-1.579,15.188c0.409-0.72,0.816-1.438,1.226-2.157
				c-6.031,1.667-3.756,9.354-1.049,13.076c0.21-0.8,0.42-1.601,0.63-2.4c-8.226,4.104-6.272,15.389-0.354,20.705
				c0.709-0.918,1.418-1.837,2.127-2.756c-3.087-1.514-9.011-3.421-8.194,2.243c0.654,4.545,5.034,9.167,7.728,12.69
				c0.506-0.88,1.012-1.761,1.517-2.641c-3.845-0.368-8.604,0.296-7.501,5.259c0.961,4.329,5.326,7.067,7.146,10.929
				c0.802-0.8,1.602-1.601,2.401-2.401c-7.658-4.215-8.407,3.711-5.882,9.176c0.506-0.881,1.011-1.762,1.516-2.642
				c-10.649-0.962-6.811,10.071-3.837,15.851c0.661-0.859,1.321-1.72,1.982-2.577c-12.555-3.359-1.396,15.299,1.387,18.85
				c0.568-0.977,1.139-1.955,1.708-2.932c-8.061-1.519-8.623,7.688-3.286,11.676c0.451-1.069,0.901-2.139,1.354-3.207
				c-12.309-1.799-5.454,10.351-2.756,16.122c0.661-0.859,1.321-1.719,1.982-2.577c-13.023-1.897-2.498,12.254,0.336,16.804
				c0.661-0.858,1.321-1.719,1.982-2.576c-3.732-1.345-8.369-1.66-9.319,3.143c-0.84,4.248,1.422,9.035,2.907,12.9
				c0.72-0.721,1.438-1.439,2.159-2.158c-12.074-2.693-4.431,11.865-1.208,16.464c0.21-0.8,0.42-1.601,0.63-2.401
				c-4.57,2.853-6.377,7.677-1.902,11.562c1.7,1.477,4.193-0.994,2.482-2.48c-1.821-2.959-1.424-4.977,1.19-6.051
				c0.761-0.475,1.19-1.602,0.631-2.4c-1.098-1.564-2.082-3.195-3.009-4.866c-1.094-1.976-4.276-7.453,0.251-6.443
				c1.186,0.265,2.672-0.826,2.159-2.158c-0.854-2.219-1.687-4.433-2.318-6.727c-0.373-1.354-0.587-2.713-0.584-4.115
				c0.006-2.872,3.4-1.458,4.997-0.885c1.467,0.526,2.762-1.326,1.981-2.577c-1.029-1.651-2.262-3.185-3.355-4.794
				c-1.15-1.693-5.494-7.519-0.944-6.855c1.558,0.229,2.675-1.096,1.982-2.576c-0.744-1.59-1.666-3.098-2.47-4.656
				c-1.343-2.61-3.657-7.028,1.26-6.312c1.998,0.293,2.989-1.982,1.353-3.207c-1.164-0.869-4.105-6.144,0.581-5.262
				c1.815,0.342,2.794-1.545,1.708-2.932c-1.53-1.953-2.787-4.16-3.991-6.321c-0.836-1.499-4.445-7.638-0.812-6.665
				c1.546,0.414,2.675-1.23,1.982-2.577c-1.711-3.323-6.01-11.185,0.806-10.568c1.452,0.132,2.017-1.557,1.516-2.641
				c-0.835-1.806-2.536-6.362,1.079-4.372c1.624,0.895,3.133-0.848,2.401-2.4c-0.986-2.094-2.794-3.889-4.183-5.717
				c-0.848-1.114-1.61-2.278-2.271-3.515c-1.358-2.538,2.434-1.805,3.777-1.676c1.246,0.12,2.3-1.616,1.517-2.642
				c-1.592-2.081-3.14-4.188-4.584-6.374c-0.915-1.387-1.811-2.84-2.452-4.375c-0.479-1.147-0.127-0.616-0.554-0.679
				c1.144,0.164,2.232,0.795,3.254,1.296c1.705,0.836,3.688-1.353,2.127-2.756c-4.238-3.809-6.581-12.088-0.355-15.193
				c0.796-0.396,1.167-1.661,0.63-2.4c-0.976-1.341-4.199-7.051-1.049-7.923c0.84-0.231,1.588-1.271,1.227-2.158
				c-1.469-3.59-5.291-8.979-0.033-11.226C1815.554,371.99,1813.764,368.968,1811.708,369.846L1811.708,369.846z"/>
		</g>
	</g>
	<g>
		<g>
			<path fill="#8A8899" d="M2000.521,357.196c6.778-0.835,2.177,10.726-0.886,12.987c-1.279,0.945-1.026,3.369,0.886,3.271
				c6.846-0.354,0.527,8.294-1.628,10.891c-0.848,1.02-0.448,3.199,1.241,2.995c4.116-0.499,0.202,3.253-1.272,4.183
				c-1.027,0.648-1.077,1.867-0.354,2.756c1.954,2.406,5.099,4.162,6.264,7.133c1.804,4.595-4.38,9.903-7.423,12.398
				c-1.301,1.066-0.114,2.883,1.241,2.995c1.638,0.136,5.21,0.333,5.488,2.757c0.216,1.866-2.484,3.654-3.668,4.475
				c-1.442,1.002-0.907,3.166,0.887,3.271c3.383,0.198,6.652,0.638,4.355,5.185c-1.061,2.101-3.1,3.821-4.825,5.367
				c-1.196,1.072-0.199,2.939,1.241,2.995c3.396,0.13,2.438,0.533,0.565,2.294c-1.404,1.32-3.011,2.422-4.545,3.58
				c-1.393,1.051-0.945,3.134,0.886,3.271c4.881,0.363-0.599,6.979-2.4,7.729c-1.426,0.593-1.899,3,0,3.383
				c7.229,1.462,4.173,8.391,0.386,11.974c-0.916,0.865-0.521,2.672,0.774,2.932c1.363,0.273,2.6,0.393,3.995,0.383
				c4.172-0.024-2.766,6.269-3.254,6.568c-1.391,0.856-0.955,2.662,0.419,3.207c4.176,1.659,4.448,3.33,1.733,6.328
				c-1.32,1.459-2.746,2.815-4.055,4.288c-0.834,0.938-0.582,2.617,0.774,2.933c1.663,0.387,7.052,1.094,4.901,3.687
				c-1.464,1.768-3.498,3.153-5.291,4.559c-1.268,0.992-0.149,2.983,1.241,2.995c2.325,0.019,4.846,0.077,3.566,2.933
				c-0.768,1.709-2.05,3.22-3.244,4.635c-1.916,2.269-4.093,4.291-6.202,6.373c-0.854,0.842-0.573,2.736,0.773,2.933
				c2.832,0.411,5.763,0.821,8.39,2.014c2.124,0.963-4.876,6.654-5.686,7.584c-0.713,0.82-0.696,2.188,0.355,2.756
				c8.643,4.64-1.326,9.35-6.187,11.533c-2.062,0.927-0.274,3.95,1.771,3.031c4.221-1.897,9.316-4.24,11.487-8.604
				c2.063-4.152-2.139-7.293-5.303-8.992c0.118,0.919,0.236,1.838,0.355,2.756c2.317-2.664,8.606-6.164,7.412-10.512
				c-1.104-4.016-8.448-4.481-11.665-4.949c0.258,0.978,0.516,1.955,0.773,2.933c3.762-3.711,8.094-7.478,10.295-12.389
				c2.397-5.35-2.262-7.507-6.896-7.543c0.414,0.999,0.827,1.997,1.241,2.995c2.232-1.748,7.306-4.811,7.186-8.255
				c-0.145-4.123-5.131-5.104-8.346-5.853c0.258,0.977,0.516,1.955,0.774,2.932c2.526-2.842,6.566-5.688,7.312-9.648
				c0.726-3.848-3.733-5.718-6.541-6.831c0.14,1.067,0.279,2.138,0.419,3.206c3.104-1.911,6.518-5.104,6.669-8.965
				c0.186-4.731-5.424-3.834-8.248-4.399c0.258,0.977,0.517,1.955,0.774,2.932c5.835-5.52,7.999-15.829-1.936-17.836
				c0,1.127,0,2.256,0,3.383c5.938-2.471,11.041-13.908,1.467-14.622c0.296,1.092,0.592,2.182,0.887,3.271
				c2.788-2.105,6.534-4.266,8.001-7.575c1.711-3.86-3.125-4.737-5.793-4.84c0.414,0.999,0.827,1.997,1.241,2.995
				c3.307-2.963,7.623-7.168,6.567-12.117c-0.942-4.428-4.795-4.203-8.582-4.425c0.295,1.091,0.591,2.181,0.886,3.271
				c2.497-1.731,6.595-5.119,5.254-8.756c-1.412-3.829-5.112-4.705-8.847-5.017c0.413,0.999,0.827,1.997,1.241,2.995
				c3.499-2.868,8.683-7.74,8.633-12.757c-0.057-5.705-4.206-7.712-7.474-11.735c-0.119,0.918-0.237,1.837-0.355,2.756
				c4.858-3.065,8.446-11.807-0.499-10.725c0.414,0.999,0.827,1.997,1.241,2.995c4.045-4.871,10.868-17.485-0.854-16.88
				c0.295,1.091,0.591,2.182,0.886,3.271c5.425-4.01,10.609-20.945-0.886-19.528
				C1998.305,353.961,1998.279,357.473,2000.521,357.196L2000.521,357.196z"/>
		</g>
	</g>
</g>
<g>
	<g>
		<path fill="#CACBD5" d="M1810.485,561.105c0-2.73-1.036-5.381-2.975-7.918c1.906-2.518,2.924-5.146,2.924-7.854
			c0-2.627-0.958-5.182-2.757-7.631c1.592-2.313,2.439-4.719,2.439-7.186c0-2.517-0.879-4.963-2.532-7.318
			c1.449-2.209,2.216-4.502,2.216-6.852c0-2.461-0.843-4.857-2.428-7.164c1.382-2.164,2.108-4.402,2.108-6.695
			c0-2.797-1.083-5.51-3.115-8.104c1.524-2.265,2.331-4.613,2.331-7.025c0-2.891-1.155-5.695-3.323-8.369
			c1.278-2.086,1.957-4.239,1.957-6.444c0-3.031-1.273-5.964-3.646-8.752c1.378-2.158,2.104-4.396,2.104-6.687
			c0-2.18-0.661-4.309-1.913-6.371c1.731-2.406,2.646-4.914,2.646-7.488c0-2.729-1.034-5.381-2.975-7.918
			c1.905-2.518,2.925-5.146,2.925-7.854c0-2.627-0.956-5.183-2.757-7.631c1.594-2.314,2.439-4.72,2.439-7.187
			c0-2.516-0.878-4.965-2.532-7.317c1.448-2.211,2.216-4.502,2.216-6.853c0-2.461-0.843-4.856-2.427-7.164
			c1.383-2.162,2.108-4.401,2.108-6.694c0-2.798-1.084-5.511-3.116-8.104c1.522-2.264,2.332-4.613,2.332-7.023
			c0-2.891-1.156-5.696-3.326-8.37c1.281-2.084,1.959-4.24,1.959-6.445c0-18.295-43.916-27.641-100.896-27.641
			c-56.979,0-87.756,10.387-100.527,28.467c-1.706,2.414,2.362,7.328,4.531,10.002c-1.28,2.086-8.082,1.783-8.082,3.988
			c0,2.797,1.085,5.512,3.116,8.104c-1.522,2.262-2.331,4.611-2.331,7.021c0,2.459,0.842,4.856,2.425,7.164
			c-1.381,2.161-2.108,4.401-2.108,6.694c0,2.517,0.879,4.965,2.532,7.32c-1.448,2.211-2.214,4.5-2.214,6.85
			c0,2.627,0.956,5.185,2.756,7.633c-1.593,2.312-2.439,4.718-2.439,7.185c0,2.729,1.035,5.381,2.975,7.92
			c-1.906,2.518-2.923,5.146-2.923,7.852c0,2.179,0.661,4.31,1.912,6.369c-1.732,2.406-2.647,4.914-2.647,7.49
			c0,3.029,1.272,5.963,3.646,8.752c-1.379,2.16-2.104,4.396-2.104,6.687c0,2.893,1.157,5.696,3.326,8.372
			c-1.279,2.084-1.957,4.238-1.957,6.441c0,2.797,1.083,5.512,3.115,8.107c-1.521,2.262-2.331,4.61-2.331,7.021
			c0,2.461,0.842,4.857,2.426,7.162c-1.383,2.164-2.108,4.402-2.108,6.697c0,2.516,0.879,4.965,2.532,7.319
			c-1.447,2.211-2.216,4.5-2.216,6.851c0,2.627,0.958,5.184,2.757,7.631c-1.594,2.313-2.438,4.719-2.438,7.186
			c0,2.729,1.034,5.382,2.974,7.918c-1.905,2.521-2.924,5.146-2.924,7.854c0,2.178,0.663,4.309,1.913,6.369
			c-1.73,2.406-2.646,4.914-2.646,7.49c0,18.295,46.189,33.127,103.171,33.127c56.979,0,103.171-14.832,103.171-33.127
			c0-2.181-0.662-4.31-1.913-6.369C1809.57,566.188,1810.485,563.682,1810.485,561.105z"/>
	</g>
	<g>
		<g>
			<path fill="#8A8899" d="M1604.991,356.669c0.502-4.472,5.844-7.531,9.276-9.609c4.421-2.677,9.242-4.723,14.062-6.55
				c12.176-4.614,25.097-7.659,37.959-9.536c31.843-4.646,65.837-3.189,97.369,2.854c9.011,1.728,17.89,5.275,25.906,9.672
				c6.432,3.527,17.107,10.562,12.104,19.097c-2.521,4.302-7.655,7.949-11.619,10.807c-4.547,3.275-9.588,5.854-14.777,7.938
				c-11.153,4.479-23.266,6.362-35.146,7.653c-25.764,2.803-52.555,3.56-78.171-0.835c-12.138-2.082-24.128-5.984-35.541-10.552
				c-8.693-3.478-21.779-9.493-21.425-20.553c0.075-2.338-3.548-2.33-3.623,0c-0.294,9.124,6.843,15.127,14.096,19.34
				c10.512,6.104,22.838,9.621,34.48,12.83c26.344,7.262,55.061,6.272,82.038,4.146c21.521-1.694,44.696-4.919,62.246-18.582
				c5.911-4.601,13.443-10.374,12.278-18.724c-1.015-7.275-9.384-12.432-15.112-15.695c-12.783-7.278-26.848-10.402-41.27-12.445
				c-21.666-3.069-43.651-3.507-65.476-2.249c-19.269,1.108-38.229,4.459-56.423,11.022c-8.856,3.195-25.613,8.871-26.859,19.972
				C1601.107,358.988,1604.733,358.964,1604.991,356.669L1604.991,356.669z"/>
		</g>
	</g>
	<g>
		<g>
			<path fill="#8A8899" d="M1608.445,591.732c17.273,10.861,36.068,17.832,56.291,20.605c21.089,2.893,42.9,2.031,64.082,0.702
				c19.433-1.221,38.423-4.477,56.794-10.956c3.944-1.392,29.497-8.791,24.721-16.291c-1.251-1.966-4.388-0.148-3.129,1.827
				c1.43,2.243-27.207,12.589-30.113,13.552c-18.483,6.117-38.375,7.963-57.727,8.728c-18.854,0.744-37.902,1.274-56.627-1.476
				c-18.811-2.765-36.405-9.724-52.464-19.82C1608.289,587.355,1606.472,590.492,1608.445,591.732L1608.445,591.732z"/>
		</g>
	</g>
	<g>
		<g>
			<path fill="#8A8899" d="M1809.593,588.519c2.337,0,2.337-3.623,0-3.623S1807.256,588.519,1809.593,588.519L1809.593,588.519z"/>
		</g>
	</g>
	<g>
		<g>
			<path fill="#8A8899" d="M1805.472,360.403c2.337,0,2.337-3.623,0-3.623S1803.135,360.403,1805.472,360.403L1805.472,360.403z"/>
		</g>
	</g>
	<g>
		<g>
			<path fill="#8A8899" d="M1601.853,384.775c9.943,6.355,21.487,10.688,32.608,14.42c22.697,7.617,46.233,10.679,70.101,11.029
				c20.468,0.301,41.354-0.554,61.205-5.951c15.064-4.097,28.698-11.562,41.03-21.037c1.826-1.401,0.024-4.553-1.828-3.129
				c-12.154,9.336-25.373,16.503-40.165,20.672c-19.475,5.487-40.146,6.043-60.242,5.822c-23.599-0.26-46.687-3.52-69.138-10.9
				c-10.848-3.565-22.065-7.87-31.743-14.055C1601.708,380.385,1599.891,383.521,1601.853,384.775L1601.853,384.775z"/>
		</g>
	</g>
	<g>
		<g>
			<path fill="#8A8899" d="M1600.663,396.802c6.794,7.741,18.652,11.466,28.068,14.612c16.379,5.478,33.496,8.776,50.599,10.969
				c36.48,4.674,78.185,4.708,111.521-12.881c5.745-3.031,11.09-6.806,15.903-11.161c1.734-1.571-0.836-4.126-2.562-2.562
				c-28.178,25.506-72.562,27.113-108.399,24.613c-18.673-1.304-37.29-4.361-55.362-9.244c-11.68-3.156-25.09-6.871-34.738-14.553
				c-0.893-0.709-1.714-1.5-2.465-2.355C1601.681,392.479,1599.129,395.053,1600.663,396.802L1600.663,396.802z"/>
		</g>
	</g>
	<g>
		<g>
			<path fill="#8A8899" d="M1600.618,411.703c23.978,16.535,55.022,24.218,83.521,27.56c41.735,4.895,84.594-2.768,120.602-24.865
				c1.987-1.22,0.169-4.354-1.827-3.129c-35.677,21.895-77.494,28.951-118.773,24.371c-27.817-3.086-58.343-10.962-81.691-27.064
				C1600.517,407.244,1598.708,410.387,1600.618,411.703L1600.618,411.703z"/>
		</g>
	</g>
	<g>
		<g>
			<path fill="#8A8899" d="M1599.792,432.091c9.943,6.354,21.487,10.688,32.608,14.42c22.698,7.617,46.234,10.682,70.101,11.03
				c20.469,0.301,41.354-0.555,61.205-5.951c15.065-4.098,28.698-11.562,41.031-21.036c1.826-1.402,0.025-4.554-1.828-3.129
				c-12.154,9.336-25.373,16.502-40.166,20.671c-19.474,5.486-40.146,6.043-60.242,5.823c-23.599-0.261-46.686-3.521-69.138-10.902
				c-10.847-3.566-22.064-7.87-31.743-14.055C1599.646,427.699,1597.831,430.837,1599.792,432.091L1599.792,432.091z"/>
		</g>
	</g>
	<g>
		<g>
			<path fill="#8A8899" d="M1598.602,444.117c6.794,7.74,18.652,11.465,28.068,14.613c16.379,5.475,33.496,8.775,50.599,10.967
				c36.479,4.674,78.184,4.709,111.521-12.881c5.745-3.031,11.091-6.804,15.903-11.16c1.735-1.57-0.835-4.126-2.562-2.562
				c-28.179,25.504-72.563,27.11-108.399,24.61c-18.673-1.303-37.29-4.359-55.363-9.243c-11.679-3.155-25.089-6.871-34.737-14.552
				c-0.893-0.709-1.715-1.5-2.466-2.354C1599.621,439.796,1597.068,442.369,1598.602,444.117L1598.602,444.117z"/>
		</g>
	</g>
	<g>
		<g>
			<path fill="#8A8899" d="M1598.557,459.02c23.977,16.535,55.021,24.217,83.521,27.559c41.734,4.894,84.594-2.769,120.602-24.866
				c1.987-1.221,0.169-4.354-1.828-3.13c-35.676,21.896-77.494,28.951-118.772,24.372c-27.817-3.087-58.343-10.962-81.691-27.062
				C1598.458,454.561,1596.647,457.703,1598.557,459.02L1598.557,459.02z"/>
		</g>
	</g>
	<g>
		<g>
			<path fill="#8A8899" d="M1602.677,471.328c9.943,6.355,21.486,10.688,32.607,14.42c22.698,7.617,46.235,10.681,70.103,11.029
				c20.468,0.3,41.354-0.555,61.205-5.951c15.064-4.096,28.698-11.562,41.03-21.037c1.825-1.401,0.023-4.553-1.828-3.129
				c-12.154,9.337-25.373,16.504-40.166,20.672c-19.474,5.486-40.146,6.043-60.241,5.822c-23.601-0.26-46.687-3.519-69.14-10.899
				c-10.847-3.566-22.064-7.87-31.742-14.056C1602.53,466.938,1600.715,470.074,1602.677,471.328L1602.677,471.328z"/>
		</g>
	</g>
	<g>
		<g>
			<path fill="#8A8899" d="M1601.898,482.201c6.794,7.74,18.652,11.465,28.068,14.613c16.38,5.475,33.495,8.775,50.6,10.967
				c36.479,4.674,78.184,4.709,111.521-12.881c5.745-3.031,11.091-6.804,15.903-11.16c1.735-1.57-0.835-4.126-2.562-2.562
				c-28.179,25.504-72.563,27.11-108.399,24.61c-18.673-1.303-37.291-4.359-55.363-9.243c-11.679-3.155-25.09-6.871-34.739-14.552
				c-0.892-0.709-1.714-1.5-2.465-2.354C1602.917,477.88,1600.364,480.453,1601.898,482.201L1601.898,482.201z"/>
		</g>
	</g>
	<g>
		<g>
			<path fill="#8A8899" d="M1601.441,498.257c23.978,16.537,55.022,24.219,83.521,27.561c41.733,4.896,84.593-2.768,120.601-24.867
				c1.987-1.22,0.169-4.354-1.828-3.129c-35.675,21.896-77.494,28.953-118.771,24.373c-27.818-3.088-58.345-10.963-81.692-27.065
				C1601.341,493.798,1599.531,496.939,1601.441,498.257L1601.441,498.257z"/>
		</g>
	</g>
	<g>
		<g>
			<path fill="#8A8899" d="M1602.677,513.26c9.944,6.353,21.485,10.686,32.607,14.418c22.699,7.617,46.235,10.679,70.103,11.028
				c20.468,0.302,41.354-0.553,61.205-5.95c15.064-4.097,28.698-11.562,41.03-21.037c1.825-1.402,0.023-4.553-1.828-3.129
				c-12.154,9.338-25.373,16.504-40.166,20.672c-19.474,5.488-40.146,6.043-60.241,5.822c-23.601-0.261-46.687-3.52-69.14-10.9
				c-10.848-3.566-22.062-7.871-31.742-14.053C1602.529,508.869,1600.714,512.007,1602.677,513.26L1602.677,513.26z"/>
		</g>
	</g>
	<g>
		<g>
			<path fill="#8A8899" d="M1601.486,525.285c6.794,7.74,18.652,11.465,28.068,14.613c16.379,5.475,33.496,8.775,50.599,10.967
				c36.48,4.674,78.184,4.709,111.521-12.881c5.744-3.031,11.09-6.804,15.902-11.16c1.735-1.57-0.835-4.126-2.562-2.562
				c-28.179,25.504-72.563,27.11-108.399,24.61c-18.673-1.303-37.29-4.359-55.363-9.243c-11.679-3.155-25.089-6.871-34.737-14.552
				c-0.893-0.709-1.714-1.5-2.466-2.354C1602.505,520.964,1599.952,523.537,1601.486,525.285L1601.486,525.285z"/>
		</g>
	</g>
	<g>
		<g>
			<path fill="#8A8899" d="M1601.441,540.186c23.978,16.537,55.022,24.219,83.521,27.561c41.733,4.896,84.593-2.768,120.601-24.866
				c1.987-1.221,0.169-4.354-1.828-3.13c-35.675,21.896-77.494,28.953-118.771,24.373c-27.818-3.088-58.345-10.963-81.692-27.065
				C1601.341,535.727,1599.531,538.869,1601.441,540.186L1601.441,540.186z"/>
		</g>
	</g>
	<g>
		<g>
			<path fill="#8A8899" d="M1604.333,556.884c6.793,7.739,18.651,11.465,28.067,14.612c16.38,5.476,33.496,8.775,50.601,10.968
				c36.479,4.674,78.184,4.709,111.521-12.882c5.745-3.03,11.09-6.804,15.903-11.159c1.734-1.571-0.835-4.126-2.562-2.562
				c-28.178,25.504-72.562,27.111-108.398,24.611c-18.674-1.303-37.291-4.36-55.363-9.244c-11.68-3.155-25.09-6.871-34.739-14.551
				c-0.892-0.709-1.714-1.5-2.465-2.355C1605.35,552.561,1602.798,555.135,1604.333,556.884L1604.333,556.884z"/>
		</g>
	</g>
	<g>
		<g>
			<path fill="#8A8899" d="M1604.288,571.783c23.977,16.537,55.021,24.22,83.521,27.562c41.735,4.895,84.594-2.769,120.601-24.867
				c1.987-1.22,0.169-4.354-1.828-3.129c-35.675,21.896-77.494,28.953-118.771,24.373c-27.818-3.087-58.343-10.963-81.691-27.066
				C1604.187,567.324,1602.378,570.467,1604.288,571.783L1604.288,571.783z"/>
		</g>
	</g>
	<g>
		<g>
			<path fill="#8A8899" d="M1638.101,354.263c-2.895,13.4,13.771,17.982,23.687,19.964c14.084,2.812,28.762,3.119,43.079,2.779
				c11.179-0.265,22.379-0.638,33.463-2.223c11.657-1.667,26.382-3.973,35.761-11.73c8.127-6.724-6.854-13.996-11.396-15.825
				c-12.945-5.211-26.79-7.277-40.662-7.96c-12.488-0.613-25.085,0.139-37.516,1.337c-12.41,1.196-25.083,2.923-36.909,7.008
				c-2.194,0.759-1.252,4.259,0.963,3.494c11.546-3.987,23.843-5.648,35.946-6.878c11.88-1.207,23.873-1.768,35.812-1.404
				c14.823,0.45,30.104,2.703,43.682,8.925c2.667,1.223,5.272,2.677,7.421,4.692c3.812,3.581-3.904,6.562-6.314,7.66
				c-6.682,3.044-13.973,4.777-21.155,6.137c-18.298,3.462-37.637,3.699-56.25,3.045c-8.358-0.295-16.732-0.989-24.956-2.551
				c-6.525-1.238-14.142-2.997-19.026-7.816c-2.112-2.085-2.745-4.843-2.13-7.689
				C1642.088,352.947,1638.594,351.979,1638.101,354.263L1638.101,354.263z"/>
		</g>
	</g>
	<g>
		<g>
			<path fill="#8A8899" d="M1655.985,359.954c17.818-6.472,35.962-7.21,54.707-7.396c14.854-0.148,29.973,0.565,44.034,5.857
				c2.191,0.825,3.129-2.679,0.963-3.493c-14.363-5.405-29.835-6.091-44.997-5.987c-19.053,0.129-37.568,0.951-55.67,7.526
				C1652.844,357.252,1653.784,360.755,1655.985,359.954L1655.985,359.954z"/>
		</g>
	</g>
	<g>
		<g>
			<path fill="#8A8899" d="M1801.352,370.021c2.068,0.263,4.321,0.936,5.521,2.766c1.306,1.987-0.175,4.501-1.446,6.065
				c-1.461,1.795,1.087,4.375,2.562,2.562c2.2-2.703,3.881-6.131,2.422-9.6c-1.528-3.639-5.441-4.958-9.06-5.417
				C1799.039,366.104,1799.067,369.73,1801.352,370.021L1801.352,370.021z"/>
		</g>
	</g>
	<g>
		<g>
			<path fill="#8A8899" d="M1802.911,385.546c5.777,2.565,1.563,8.829-0.009,12.956c-0.354,0.93,0.385,1.978,1.267,2.229
				c3.482,0.991-0.015,7.708-1.084,9.265c-0.541,0.787-0.179,2.046,0.65,2.479c6.752,3.533,4.184,13.223-0.367,17.541
				c-1.541,1.463,0.417,3.781,2.195,2.846c1.034-0.543,2.053-1.049,3.166-1.411c0.917-0.299,0.295-0.762-0.062,0.502
				c-0.504,1.776-1.587,3.45-2.519,5.026c-1.56,2.641-3.339,5.148-5.124,7.639c-0.763,1.064,0.246,2.863,1.564,2.727
				c1.255-0.131,4.935-0.927,4.402,1.294c-0.4,1.676-1.646,3.264-2.599,4.658c-1.498,2.198-3.532,4.253-4.605,6.709
				c-0.683,1.562,0.777,3.483,2.479,2.479c3.933-2.324,2.046,3.342,1.229,5.215c-0.481,1.107,0.042,2.884,1.564,2.727
				c7.525-0.776,2.688,8.595,0.908,12.275c-0.661,1.367,0.418,3.136,2.046,2.661c4.118-1.2,0.286,5.645-0.573,7.396
				c-1.361,2.77-2.934,5.537-4.771,8.022c-1.026,1.392,0.656,2.955,2.046,2.661c5.092-1.077,2.057,5.22,0.299,6.589
				c-1.606,1.252,0.215,3.274,1.763,3.028c4.938-0.785,3.181,3.362,1.923,6.31c-0.938,2.193-2.192,4.232-3.146,6.416
				c-0.661,1.517,0.4,2.925,2.047,2.661c4.96-0.794,0.835,5.107-0.445,7.251c-1.274,2.134-2.824,4.099-4.071,6.244
				c-0.739,1.272,0.5,3.26,2.046,2.661c5.205-2.014,5.932,0.382,4.961,5.106c-0.593,2.889-1.659,5.672-2.657,8.438
				c-0.49,1.358,0.979,2.532,2.229,2.229c4.779-1.163,1.893,4.306,0.774,6.689c-1.041,2.226-2.296,4.369-3.646,6.42
				c-0.562,0.855-0.142,1.961,0.65,2.479c2.854,1.867,4.373,4.354,1.281,7.155c-1.735,1.572,0.835,4.128,2.562,2.562
				c4.721-4.277,2.861-9.659-2.016-12.848c0.217,0.825,0.434,1.651,0.65,2.479c3.159-4.803,11.77-21.596-1.223-18.433
				c0.742,0.743,1.485,1.484,2.229,2.229c1.609-4.466,3.661-9.39,3.142-14.229c-0.589-5.477-5.829-5.348-9.901-3.771
				c0.683,0.889,1.364,1.774,2.046,2.661c2.781-4.784,14.387-21.051,0.426-18.817c0.682,0.889,1.363,1.774,2.046,2.661
				c2.647-6.063,10.426-20.159-2.869-18.048c0.587,1.009,1.175,2.02,1.763,3.028c5.457-4.25,4.476-14.4-3.822-12.646
				c0.682,0.889,1.363,1.774,2.046,2.661c2.761-3.737,14.437-24.582,1.251-20.741c0.682,0.889,1.363,1.774,2.046,2.661
				c2.938-6.073,7.546-18.922-4.037-17.728c0.521,0.909,1.043,1.816,1.563,2.726c2.467-5.653,2.164-15.106-6.187-10.172
				c0.826,0.826,1.651,1.652,2.479,2.479c1.932-4.42,5.951-7.562,7.569-12.231c1.857-5.359-4.1-6.277-7.896-5.881
				c0.521,0.909,1.043,1.817,1.563,2.726c3.025-4.22,6.276-8.588,8.008-13.529c2.318-6.617-5.019-4.976-8.426-3.184
				c0.731,0.949,1.463,1.896,2.195,2.847c6.249-5.932,8.49-18.599-0.367-23.232c0.217,0.826,0.434,1.652,0.649,2.479
				c2.783-4.05,5.439-12.73-1.082-14.588c0.422,0.743,0.844,1.485,1.266,2.229c2.271-5.965,6.182-13.566-1.657-17.048
				C1802.624,381.477,1800.779,384.598,1802.911,385.546L1802.911,385.546z"/>
		</g>
	</g>
	<g>
		<g>
			<path fill="#8A8899" d="M1604.073,364.153c-12.357-1.705-7.8,16.8-1.763,21.493c0.427-1.031,0.854-2.062,1.281-3.093
				c-12.659-0.744-4.929,13.662-0.869,18.864c0.588-1.011,1.176-2.021,1.763-3.028c-9.763-1.329-6.517,8.111-0.982,11.773
				c-0.218-0.825-0.435-1.651-0.65-2.479c-3.396,4.496-7.646,6.64-7.664,12.838c-0.018,5.55,5.347,11.023,9.183,14.361
				c0.428-1.031,0.854-2.062,1.281-3.093c-3.27,0.279-8.378,1.224-9.257,5.16c-1,4.482,2.094,7.665,5.459,10.142
				c0.305-1.125,0.609-2.251,0.914-3.376c-3.75,0.237-7.397-0.061-8.918,3.959c-2.093,5.529,3.26,11.128,6.812,14.521
				c0.428-1.03,0.854-2.062,1.281-3.093c-2.39,0.093-7.587,0.796-6.357,4.576c1.268,3.898,5.328,6.452,8.371,8.902
				c0.428-1.03,0.854-2.062,1.281-3.093c-9.822,0.702-5.105,13.354,1.146,16.071c0.144-1.104,0.287-2.207,0.433-3.312
				c-10.774,2.262-8.062,13.92-2.036,19.952c0.268-1.01,0.533-2.02,0.8-3.027c-3.188,0.716-8.848-0.35-8.745,4.824
				c0.084,4.188,3.764,7.875,7.077,10.027c0.145-1.104,0.288-2.207,0.434-3.312c-3.102,1.299-7.796,3.489-6.915,7.699
				c0.899,4.306,5.081,7.489,7.763,10.716c0.267-1.011,0.533-2.021,0.8-3.028c-2.824,0.694-8.815,1.953-8.843,5.937
				c-0.028,4.246,4.757,7.392,7.631,9.787c0.427-1.03,0.854-2.062,1.281-3.093c-5.396,0.028-9.582,2.638-7.247,8.43
				c2.186,5.424,6.962,9.741,10.91,13.897c0.267-1.01,0.533-2.021,0.8-3.028c-3.521,0.546-11.194,1.152-12.39,5.496
				c-1.301,4.725,5.431,8.733,7.882,11.765c0.122-0.948,0.244-1.896,0.367-2.846c-3.825,2.178-7.41,5.312-5.591,10.051
				c1.82,4.738,7.955,7.599,12.183,9.619c2.097,1.003,3.936-2.121,1.828-3.129c-2.302-1.102-4.513-2.305-6.641-3.717
				c-1.353-0.896-2.589-2.019-3.566-3.314c-2.214-2.936,1.477-5.164,3.614-6.381c1.098-0.624,1.084-1.96,0.367-2.846
				c-2.085-2.578-4.894-4.465-6.671-7.306c-1.426-2.28,8.296-3.699,9.579-3.898c1.417-0.22,1.646-2.136,0.8-3.028
				c-2.233-2.352-4.485-4.666-6.554-7.17c-1.446-1.752-2.851-3.702-3.704-5.821c-1.22-3.024,1.688-3.138,4.032-3.149
				c1.473-0.008,2.543-2.04,1.281-3.093c-1.815-1.515-3.615-3.027-5.251-4.736c-3.207-3.352,2.349-4.312,4.862-4.931
				c1.426-0.352,1.629-2.032,0.801-3.028c-1.492-1.795-3.1-3.484-4.64-5.237c-2.977-3.39-1.932-5.394,2.191-7.121
				c1.426-0.597,1.854-2.388,0.433-3.312c-1.968-1.278-3.519-3.043-4.767-5.016c-2.103-3.323,4.222-2.911,5.569-3.215
				c1.35-0.304,1.728-2.099,0.8-3.027c-4.018-4.021-7.495-12.231,0.437-13.896c1.447-0.304,1.875-2.685,0.434-3.312
				c-2.455-1.066-8.396-8.933-2.976-9.319c1.399-0.1,2.627-2.009,1.281-3.093c-1.407-1.133-2.822-2.25-4.188-3.433
				c-1.856-1.604-4.711-3.694-0.388-3.861c1.525-0.06,2.47-1.959,1.281-3.093c-1.963-1.873-3.724-3.804-5.149-6.131
				c-3.074-5.015,0.915-5.924,4.691-6.164c1.885-0.119,2.361-2.312,0.914-3.376c-1.657-1.219-3.1-2.477-3.822-4.448
				c-1.199-3.271,3.941-3.941,5.792-4.102c1.433-0.122,2.582-1.96,1.281-3.093c-3.916-3.407-8.878-8.357-7.98-14.043
				c0.533-3.375,5.038-6.129,7.028-8.766c0.619-0.82,0.098-1.983-0.65-2.479c-1.09-0.722-6.04-5.728-1.808-5.151
				c1.849,0.252,2.926-1.536,1.763-3.027c-2.295-2.941-9.238-13.122-1.692-12.68c1.479,0.088,2.536-2.115,1.28-3.093
				c-2.861-2.225-8.876-16.418-1.763-15.437C1605.394,367.964,1606.38,364.472,1604.073,364.153L1604.073,364.153z"/>
		</g>
	</g>
</g>
</svg>
