<?xml version="1.0" encoding="utf-8"?>
<!-- Generator: Adobe Illustrator 16.0.4, SVG Export Plug-In . SVG Version: 6.00 Build 0)  -->
<!DOCTYPE svg PUBLIC "-//W3C//DTD SVG 1.1//EN" "http://www.w3.org/Graphics/SVG/1.1/DTD/svg11.dtd">
<svg version="1.1" id="text-small" xmlns="http://www.w3.org/2000/svg" xmlns:xlink="http://www.w3.org/1999/xlink" x="0px" y="0px"
	 width="2484.009px" height="946.07px" viewBox="0 0 2484.009 946.07" enable-background="new 0 0 2484.009 946.07"
	 xml:space="preserve">
<g>
	<g>
		<path fill="#1D1B3A" d="M1435.119,466.072c0.95-0.681,1.87-1.223,2.933-1.707c-1.224-0.94-2.448-1.882-3.672-2.823
			c-1.692,6.314-5.98,11.427-8.928,17.169c-1.171,2.281,1.157,4.551,3.42,3.42c6.54-3.264,11.426-8.728,15.639-14.58
			c1.689-2.346-1.982-5.018-3.926-3.029c-4.909,5.018-9.379,10.681-11.285,17.544c-0.461,1.659,0.813,3.043,2.411,3.165
			c9.764,0.745,15.309-8.285,23.865-11.005c-0.941-1.225-1.882-2.449-2.823-3.673c-2.749,5.495-8.806,10.116-8.515,16.744
			c0.056,1.264,1.099,2.628,2.5,2.5c8.041-0.736,12.272-7.386,17.898-12.305c-1.309-1.01-2.617-2.02-3.926-3.029
			c-1.791,2.967-13.914,17.039-4.332,18.611c3.474,0.569,7.076-2.451,9.693-4.302c3.292-2.328,7.321-6.635,11.417-7.357
			c-1.055-0.804-2.11-1.607-3.165-2.411c0.077,6.203-8.013,10.518-9.446,16.671c-0.305,1.311,0.389,2.726,1.746,3.076
			c10.712,2.766,13.413-10.809,21.962-13.135c-1.025-1.025-2.05-2.051-3.075-3.076c-1.9,5.024-5.31,9.239-6.887,14.414
			c-0.516,1.694,1.278,3.78,3.075,3.076c5.422-2.127,12.14-11.821,18.19-9.672c-0.582-1.025-1.164-2.051-1.746-3.076
			c-2.051,5.016-18.388,13.263-8.742,19.453c9.068,5.82,19.611-10.924,23.916-16.54c1.611-2.102-1.409-4.554-3.42-3.42
			c-6.501,3.664-22.553,20.873-11.247,27.317c4.437,2.527,10.044-1.698,13.359-4.252c4.451-3.429,8.932-9.562,14.229-11.609
			c-0.941-1.225-1.882-2.449-2.823-3.673c-2.844,6.371-5.906,12.641-5.63,19.785c0.071,1.831,2.09,3.197,3.762,2.158
			c4.641-2.883,8.828-6.428,13.875-8.611c-1.01-1.309-2.02-2.617-3.029-3.926c-4.844,6.242-15.396,12.185-11.215,21.434
			c1.326,2.935,5.634,0.391,4.317-2.523c-2.433-5.384,7.598-11.721,10.433-15.375c1.774-2.286-0.356-5.083-3.029-3.926
			c-5.047,2.183-9.234,5.728-13.875,8.611c1.254,0.719,2.508,1.438,3.762,2.158c-0.242-6.267,2.453-11.673,4.948-17.262
			c0.781-1.75-0.531-4.559-2.823-3.673c-7.805,3.019-12.956,11.261-20.227,15.369c-6.273,3.544-4.408-3.839-2.449-7.136
			c2.363-3.977,6.109-8.251,10.188-10.551c-1.14-1.14-2.28-2.28-3.42-3.42c-2.821,3.68-11.313,17.323-17.075,14.746
			c-1.429-0.639,4.651-6.339,5.416-7.066c2.12-2.016,4.494-3.977,5.624-6.739c0.543-1.328-0.584-2.663-1.746-3.076
			c-8.63-3.064-13.877,6.938-20.849,9.672c1.025,1.025,2.05,2.051,3.075,3.076c1.562-5.124,4.993-9.407,6.887-14.414
			c0.695-1.839-1.369-3.54-3.075-3.076c-3.384,0.921-5.862,3.323-8.228,5.799c-2.75,2.877-6.474,8.524-11.076,7.336
			c0.582,1.025,1.164,2.051,1.746,3.076c1.606-6.898,9.719-10.38,9.625-18.001c-0.021-1.738-1.57-2.691-3.165-2.411
			c-5.523,0.975-10.607,6.584-15.127,9.591c-1.136,0.756-2.325,1.495-3.625,1.926c0.813-0.27,1.516-2.392,2.259-3.609
			c1.606-2.63,3.77-4.879,5.36-7.514c1.531-2.535-1.854-4.841-3.926-3.029c-4.279,3.739-8.231,10.278-14.363,10.84
			c0.833,0.833,1.667,1.667,2.5,2.5c-0.229-5.228,5.619-9.796,7.833-14.221c0.925-1.849-0.595-4.381-2.823-3.673
			c-7.819,2.486-13.915,11.485-22.536,10.827c0.804,1.055,1.607,2.109,2.411,3.165c1.678-6.042,5.686-10.93,9.999-15.339
			c-1.309-1.01-2.617-2.02-3.926-3.029c-3.725,5.174-8.075,9.906-13.845,12.787c1.14,1.14,2.28,2.28,3.42,3.42
			c3.157-6.15,7.618-11.593,9.432-18.362c0.611-2.28-1.75-3.699-3.672-2.823c-1.063,0.483-1.983,1.025-2.933,1.707
			C1430,463.616,1432.493,467.956,1435.119,466.072L1435.119,466.072z"/>
	</g>
</g>
<g>
	<g>
		<path fill="#008142" d="M1404.692,454.173c-1.687,7.661-3.154,15.351-4.034,23.149c-0.213,1.89,2.28,3.113,3.762,2.158
			c6.626-4.268,12.001-10.497,17.409-16.164c5.583-5.853,11.794-10.921,16.623-17.473c1.916-2.6-2.426-5.089-4.317-2.523
			c-4.538,6.157-10.486,11.052-15.841,16.46c-5.214,5.265-10.127,11.345-16.396,15.384c1.254,0.719,2.508,1.438,3.762,2.158
			c0.829-7.353,2.266-14.599,3.855-21.819C1410.206,452.36,1405.385,451.024,1404.692,454.173L1404.692,454.173z"/>
	</g>
</g>
</svg>
