<?xml version="1.0" encoding="utf-8"?>
<!-- Generator: Adobe Illustrator 16.0.4, SVG Export Plug-In . SVG Version: 6.00 Build 0)  -->
<!DOCTYPE svg PUBLIC "-//W3C//DTD SVG 1.1//EN" "http://www.w3.org/Graphics/SVG/1.1/DTD/svg11.dtd">
<svg version="1.1" id="Layer_1" xmlns="http://www.w3.org/2000/svg" xmlns:xlink="http://www.w3.org/1999/xlink" x="0px" y="0px"
	 width="2801.172px" height="1165.977px" viewBox="0 0 2801.172 1165.977" enable-background="new 0 0 2801.172 1165.977"
	 xml:space="preserve">
<g id="back-ship">
	<path fill="#FBFBFC" d="M2229.383,788.513c0,0,3.551-41.256,5.059-40.632c1.512,0.625-17.605-6.241-17.605-6.241l-12.525-32.78
		c0,0,13.531-4.669,65.346-1.548c51.812,3.121,44.266,5.617,44.266,5.617l-0.572,18.725h46.352l-0.299-29.752l27.336,2.244
		l-0.387,20.494l23.02-0.842c0,0,0.957,27.459,0.281,26.107c-0.428-0.855,50.811,3.756,50.811,5.896
		c0,2.029-10.787,36.404-11.49,35.61C2447.309,789.536,2229.383,788.513,2229.383,788.513z"/>
	<polygon fill="#E7E7EC" points="2213.783,725.39 2208.498,710.926 2214.879,710.926 2217.523,725.39 	"/>
	<polygon fill="#E7E7EC" points="2219.457,725.23 2216.488,710.668 2223.84,710.668 2225.518,725.269 	"/>
	<path fill="#E7E7EC" d="M2227.195,725.269l-1.42-14.6h8.125l-1.676,14.459C2232.225,725.128,2226.678,725.128,2227.195,725.269z"/>
	<polygon fill="#A7A6B2" points="2195.35,809.482 2166.131,763.043 2470.084,769.678 2455.059,808.93 	"/>
</g>
</svg>
