<?xml version="1.0" encoding="utf-8"?>
<!-- Generator: Adobe Illustrator 16.0.4, SVG Export Plug-In . SVG Version: 6.00 Build 0)  -->
<!DOCTYPE svg PUBLIC "-//W3C//DTD SVG 1.1//EN" "http://www.w3.org/Graphics/SVG/1.1/DTD/svg11.dtd">
<svg version="1.1" id="Layer_1" xmlns="http://www.w3.org/2000/svg" xmlns:xlink="http://www.w3.org/1999/xlink" x="0px" y="0px"
	 width="2801.172px" height="1296.653px" viewBox="0 0 2801.172 1296.653" enable-background="new 0 0 2801.172 1296.653"
	 xml:space="preserve">
<g id="frontship">
	<path fill="#F4F5F7" d="M1614.3,470.568c0,0-24.001-224.803-34.202-221.402c-10.204,3.401,119.031-34.01,119.031-34.01
		l84.676-178.616c0,0-91.477-25.439-441.772-8.434C991.737,45.11,1042.75,58.714,1042.75,58.714l3.885,102.028l-333.855,26.312
		l23.888-169.152H393.175l-99.042,177.267l-38.598,69.083l-285.036,17.814c0,0-5.125,379.935,6.122,369.732
		C-12.133,641.595,1614.3,470.568,1614.3,470.568z"/>
	<polygon fill="#E7E7EC" points="1684.41,147.529 1719.413,70.305 1677.149,70.305 1659.638,147.529 	"/>
	<polygon fill="#E7E7EC" points="1646.821,146.674 1666.471,68.935 1617.777,68.935 1606.671,146.883 	"/>
	<path fill="#E7E7EC" d="M1595.566,146.883l9.397-77.949h-53.821l11.106,77.199C1562.249,146.134,1598.983,146.134,1595.566,146.883
		z"/>
	<g>
		<path fill="#A7A6B2" stroke="#E7E7EC" stroke-width="30.5953" stroke-miterlimit="10" d="M2611.549,1038.026"/>
		<g>
			<path fill="#FFFFFF" d="M-0.901,604.679c-12.814,2.731-6.859,37.72-5.144,62.865c8.753,128.356,44.643,399.11,44.643,399.11
				l1743.416-5.072c34.605-103.718,132.866-307.75,280.834-610.283C2126.597,320.985,117.678,579.408-0.901,604.679z"/>
			<path fill="#D9D8DE" d="M-23.379,660.889l-9.091,463.632l1810.816-11.646c31.642-108.697,139.502-358.204,240.317-564.325
				C2080.072,422.967,75.863,645.027-23.379,660.889z"/>
			<g>
				<polygon fill="#A7A6B2" points="1727.912,547.069 1750.124,546.921 1750.117,538.044 1717.98,538.256 1717.959,585.669 
					1727.903,585.609 1727.899,566.299 1745.539,566.183 1745.539,557.384 1727.899,557.497 				"/>
				<path fill="#A7A6B2" d="M1786.309,548.891c-4.393,0.026-8.197,1.803-10.973,4.735c-2.185-2.903-6.125-4.627-10.744-4.594
					c-7.195,0.048-12.399,3.446-15.269,6.446l7.425,3.772c1.563-0.855,3.705-1.97,7.065-1.987c4.376-0.034,6.394,2.222,6.416,5.664
					v1.03l-7.852,0.061c-9.752,0.055-14.388,3.776-14.388,10.909c-0.011,7.241,4.375,11.167,13.445,11.118
					c6.571-0.048,10.25-2.925,12.584-5.846c2.805,3.608,7.062,5.713,12.566,5.68c6.942-0.041,11.962-3.446,15.349-7.417
					l-6.965-3.962c-1.628,1.495-4.304,2.937-7.88,2.956c-4.356,0.029-7.62-1.765-8.437-7.137l23.775-0.149
					c0.057-0.721,0.126-2.007,0.135-2.587C1802.555,557.332,1796.24,548.828,1786.309,548.891z M1770.221,572.968
					c-0.014,3.81-2.593,5.583-6.959,5.605c-4.125,0.03-6.082-1.324-6.082-4.033c-0.006-2.988,2.149-4.029,6.314-4.06l6.727-0.045
					V572.968z M1778.757,563.909c1.048-4.219,3.716-6.769,7.395-6.788c3.704-0.026,6.418,2.803,6.989,6.687L1778.757,563.909z"/>
				<path fill="#A7A6B2" d="M1816.062,556.213l0.016-6.858l-9.131,0.06V585.1l9.361-0.056l0.044-21.381
					c1.733-3.052,4.609-5.791,8.944-5.813c1.421-0.022,2.484,0.172,3.301,0.364l0.007-9.141c-0.758-0.252-1.457-0.438-2.633-0.432
					C1821.729,548.668,1818.322,551.798,1816.062,556.213z"/>
				<path fill="#A7A6B2" d="M1854.088,552.546c-1.886-2.257-4.199-4.063-9.03-4.03c-8.44,0.055-15.896,7.869-15.896,18.186
					c-0.01,10.352,6.794,18.218,15.559,18.162c4.274-0.026,7.129-1.54,9.323-4.402l0.03,1.484c-0.021,6.683-3.584,9.943-8.84,9.973
					c-3.449,0.022-7.034-1.698-8.586-2.992l-5.822,5.672c3.203,3.747,8.892,5.852,14.439,5.803
					c10.027-0.052,18.223-6.201,18.251-18.122l-0.009-33.235l-9.449,0.062L1854.088,552.546z M1846.3,576.042
					c-5.021,0.026-8.216-4.16-8.203-9.405c0.007-5.185,3.263-9.286,8.207-9.319c5.048-0.029,8.209,4.044,8.202,9.207
					C1854.513,571.785,1851.42,576.003,1846.3,576.042z"/>
				<path fill="#A7A6B2" d="M1885.282,548.255c-9.358,0.074-16.778,7.888-16.771,18.578c-0.008,10.817,6.631,18.486,17.083,18.412
					c7.281-0.037,11.97-3.442,15.324-7.408l-6.93-3.978c-1.63,1.494-4.328,2.94-7.889,2.97c-4.365,0.019-7.613-1.77-8.43-7.145
					l23.774-0.141c0.051-0.726,0.12-2.018,0.127-2.602C1901.55,556.7,1895.253,548.2,1885.282,548.255z M1877.841,563.269
					c1.019-4.215,3.628-6.754,7.324-6.78c3.694-0.026,6.325,2.803,6.892,6.691L1877.841,563.269z"/>
				<path fill="#A7A6B2" d="M1926.924,547.999c-3.702,0.02-7.463,1.525-11.032,5.575v-4.861l-9.458,0.062v35.693l9.436-0.059
					l0.051-21.898c3.48-4.945,6.669-5.685,8.179-5.688c2.229-0.023,3.367,1.733,3.383,4.126l-0.03,23.384l9.457-0.063l0.029-24.878
					C1936.93,552.53,1932.989,547.958,1926.924,547.999z"/>
			</g>
			<path fill="#E7E7EC" stroke="#CDCDD4" stroke-width="4.8691" stroke-miterlimit="10" d="M1713.801,494.549
				c0,1.628-52.539,1.992-52.539,1.992c-2.801,0-12.801-34.915,4.281-40.409l41.529-0.989
				C1728.447,458.633,1713.801,494.549,1713.801,494.549z"/>
			<g>
				<g>
					<path fill="#FAFAFB" d="M1681.612,476.022c0,0-16.283,385.018-0.119,494.849c16.095,109.351,173.843,129.604,173.843,129.604
						l-25.275-37.169c0,0-108.741-3.121-128.881-106.11C1681.98,859.117,1681.612,476.022,1681.612,476.022z"/>
				</g>
				<g>
					<path fill="#F3F4F6" d="M1689.855,478.963c0,0,10.617,383.902,40.487,490.768c29.782,106.389,116.072,96.549,116.072,96.549
						l2.974-35.683c0,0-68.261,22.606-101.248-76.951C1716.755,858.82,1689.855,478.963,1689.855,478.963z"/>
				</g>
				<g>
					<g>
						<path fill="#A7A6B2" d="M1678.674,476.394c-2.776,66.384-4.357,132.809-5.435,199.24
							c-0.964,59.461-0.758,118.976-2.241,178.425c-1.338,53.56-1.59,109.224,22.481,158.522
							c10.422,21.344,25.721,39.964,45.088,53.768c24.134,17.202,53.392,25.353,82.573,28.304c2.068,0.21,2.049-3.018,0-3.225
							c-37.902-3.833-74.646-17.284-101.118-45.535c-21.394-22.831-33.375-52.679-39.774-82.919
							c-5.771-27.269-6.986-55.299-6.64-83.097c0.509-40.844,1.264-81.688,1.742-122.535c1.097-93.67,2.634-187.347,6.548-280.948
							C1681.985,474.313,1678.76,474.322,1678.674,476.394L1678.674,476.394z"/>
					</g>
				</g>
				<g>
					<g>
						<path fill="#A7A6B2" d="M1688.044,480.673c1.853,78.624,4.09,157.248,8.363,235.783
							c3.944,72.506,8.721,145.225,23.138,216.497c9.116,45.068,27.846,95.258,68.073,121.338c1.75,1.135,3.365-1.658,1.627-2.785
							c-33.723-21.864-51.509-61.633-61.788-99.103c-6.682-24.352-10.961-49.574-14.292-74.564
							c-11.423-85.683-14.737-172.606-17.916-258.913c-1.696-46.073-2.895-92.162-3.98-138.252
							C1691.22,478.597,1687.994,478.592,1688.044,480.673L1688.044,480.673z"/>
					</g>
				</g>
			</g>
			<g>
				<g>
					<path fill="#A7A6B2" d="M1696.51,1016.657c0.809-2.941,0.855-6.021,1.652-8.965c0.545-2.011-2.566-2.863-3.109-0.857
						c-0.798,2.944-0.845,6.024-1.652,8.965C1692.848,1017.809,1695.96,1018.66,1696.51,1016.657L1696.51,1016.657z"/>
				</g>
			</g>
			<g>
				<g>
					<path fill="#A7A6B2" d="M1691.36,1003.598c1.173-1.549,1.4-3.343,0.704-5.15c-0.315-0.819-1.072-1.377-1.983-1.126
						c-0.784,0.216-1.442,1.163-1.126,1.984c0.43,1.117,0.36,1.688-0.38,2.665c-0.532,0.703-0.112,1.802,0.579,2.207
						C1689.98,1004.661,1690.83,1004.297,1691.36,1003.598L1691.36,1003.598z"/>
				</g>
			</g>
		</g>
		<path fill="#E7E7EC" stroke="#BBBBC4" stroke-width="23.1083" stroke-miterlimit="10" d="M900.279,662.157
			c-0.617,22.534-18.557,40.329-40.078,39.738c-21.537-0.587-38.486-19.337-37.871-41.871c0.616-22.53,18.571-40.32,40.108-39.732
			C883.953,620.881,900.896,639.628,900.279,662.157z"/>
		<path fill="#E7E7EC" stroke="#BBBBC4" stroke-width="23.1083" stroke-miterlimit="10" d="M698.387,690.315
			c-0.617,22.529-18.548,40.324-40.086,39.732c-21.522-0.587-38.473-19.336-37.854-41.866c0.614-22.538,18.569-40.324,40.094-39.734
			C682.077,649.035,699.006,667.777,698.387,690.315z"/>
		<path fill="#E7E7EC" stroke="#BBBBC4" stroke-width="23.1083" stroke-miterlimit="10" d="M472.217,716.022
			c-0.618,22.529-18.549,40.325-40.087,39.732c-21.52-0.587-38.469-19.336-37.854-41.866c0.617-22.538,18.571-40.324,40.091-39.733
			C455.905,674.742,472.835,693.484,472.217,716.022z"/>
		<path fill="#E7E7EC" stroke="#BBBBC4" stroke-width="23.1083" stroke-miterlimit="10" d="M270.972,741.732
			c-0.618,22.529-18.549,40.325-40.087,39.732c-21.522-0.587-38.471-19.336-37.856-41.866c0.617-22.538,18.571-40.324,40.093-39.733
			C254.66,700.452,271.59,719.195,270.972,741.732z"/>
		<path fill="#E7E7EC" stroke="#BBBBC4" stroke-width="23.1083" stroke-miterlimit="10" d="M1132.396,637.072
			c-0.618,22.537-18.571,40.319-40.087,39.729c-21.529-0.588-38.487-19.327-37.869-41.864c0.616-22.53,18.576-40.32,40.107-39.729
			C1116.061,595.796,1133.012,614.541,1132.396,637.072z"/>
		<path fill="#E7E7EC" stroke="#BBBBC4" stroke-width="23.1083" stroke-miterlimit="10" d="M1389.861,616.388
			c-0.616,22.542-18.571,40.325-40.1,39.734c-21.547-0.588-38.476-19.326-37.856-41.871c0.618-22.53,18.549-40.324,40.086-39.732
			C1373.528,575.104,1390.478,593.854,1389.861,616.388z"/>
	</g>
</g>
</svg>
