<?xml version="1.0" encoding="utf-8"?>
<!-- Generator: Adobe Illustrator 16.0.4, SVG Export Plug-In . SVG Version: 6.00 Build 0)  -->
<!DOCTYPE svg PUBLIC "-//W3C//DTD SVG 1.1//EN" "http://www.w3.org/Graphics/SVG/1.1/DTD/svg11.dtd">
<svg version="1.1" id="Layer_1" xmlns="http://www.w3.org/2000/svg" xmlns:xlink="http://www.w3.org/1999/xlink" x="0px" y="0px"
	 width="2801.172px" height="1165.977px" viewBox="0 0 2801.172 1165.977" enable-background="new 0 0 2801.172 1165.977"
	 xml:space="preserve">
<g id="front">
	<path fill="#A7A6B2" stroke="#E7E7EC" stroke-width="26.9912" stroke-miterlimit="10" d="M2611.053,899.955"/>
	<g>
		<g>
			<path fill="#A7A6B2" d="M1857.37,902.877c0,0-29.741-8.14-17.737-28.977c9.91-17.196,104.926-7.477,107.869,3.812
				c2.983,11.283,1.036,16.669-3.222,18.363c-4.235,1.691-17,6.457-17,6.457l4.074,56.094c0,0,17.701-0.086,19.471,10.86
				c1.785,10.952,6.107,17.433-12.616,21.417c-18.699,3.984-94.802,4.598-109.668-4.164c-3.273-1.916-7.785-23.241,3.772-26.514
				c4.832-1.367,14.158-2.299,14.158-2.299L1857.37,902.877z"/>
			<g>
				<path fill="#A7A6B2" d="M1857.748,901.505c-11.438-3.188-26.567-14.677-16.388-27.631c3.121-3.97,9.529-5.135,14.161-6.043
					c7.695-1.509,15.646-1.799,23.468-1.848c16.709-0.104,33.708,1.408,50.038,5.005c5.137,1.131,10.709,2.396,15.233,5.196
					c2.465,1.525,2.438,4.083,2.924,6.818c1.037,5.852,0.151,10.378-5.559,12.592c-4.893,1.896-9.81,3.729-14.725,5.565
					c-0.565,0.212-1.093,0.707-1.045,1.372c1.358,18.698,2.717,37.396,4.074,56.094c0.057,0.774,0.604,1.422,1.423,1.424
					c6.143,0.011,14.123,1.587,17.354,7.357c1.655,2.96,2.052,8.246,2.379,11.614c0.492,5.071-3.081,7.369-7.417,8.947
					c-6.837,2.487-14.478,2.885-21.664,3.387c-9.113,0.636-18.256,0.856-27.39,0.911c-18.384,0.111-37.373-0.05-55.474-3.608
					c-2.698-0.53-5.379-1.211-7.947-2.2c-3.015-1.161-3.592-3.848-4.269-6.808c-0.921-4.022-0.926-8.365,0.256-12.325
					c1.717-5.76,7.484-6.33,12.58-7.128c2.226-0.349,4.468-0.619,6.709-0.848c0.602-0.062,1.24-0.385,1.372-1.045
					c3.633-18.351,7.266-36.7,10.897-55.052c0.354-1.791-2.388-2.555-2.744-0.756c-3.633,18.351-7.266,36.7-10.897,55.052
					c0.458-0.35,0.915-0.696,1.372-1.045c-6.148,0.628-15.697,0.456-19.815,5.859c-4.312,5.657-3.751,13.978-1.848,20.449
					c1.518,5.159,4.984,6.432,9.873,7.741c7.198,1.929,14.782,2.629,22.184,3.264c19.293,1.653,38.814,1.674,58.147,0.782
					c6.953-0.32,13.933-0.775,20.817-1.825c6.276-0.957,14.986-2.66,17.647-9.274c1.197-2.98,0.22-6.718-0.385-9.716
					c-0.839-4.16-1.254-7.883-4.358-11.021c-4.21-4.254-11.619-5.552-17.381-5.562c0.475,0.476,0.948,0.948,1.423,1.423
					c-1.358-18.697-2.717-37.396-4.074-56.094c-0.349,0.457-0.696,0.914-1.045,1.372c2.846-1.062,5.689-2.133,8.53-3.206
					c3.426-1.293,7.679-2.257,10.644-4.481c5.215-3.914,4.29-14.939,1.599-19.922c-1.664-3.081-6.343-4.474-9.376-5.523
					c-6.39-2.21-13.143-3.438-19.799-4.509c-16.502-2.654-33.457-3.749-50.152-2.833c-9.052,0.497-25.211,0.857-30.699,9.754
					c-9.23,14.965,4.945,27.264,18.589,31.064C1858.764,904.741,1859.515,901.996,1857.748,901.505z"/>
			</g>
		</g>
		<path fill="#FDFDFD" d="M1853.379,903.179c5.358,4.361,12.67,30.659,47.754,33.433c46.369,3.657,26.76-23.224,41.354-18.219
			c14.592,5.017,18.586,23.424,7.058,29.945c-22.099,12.495-95.783,18.883-114.869-26.279
			C1824.822,898.781,1838.768,898.168,1853.379,903.179z"/>
		<g>
			<g>
				<path fill="#A7A6B2" d="M1845.729,938.509c-8.235-2.579-12.946-14.518-13.377-22.405c-0.562-10.304,12.784-13.296,20.618-13.197
					c1.836,0.022,1.833-2.822,0-2.846c-8.791-0.109-21.943,3.171-23.277,13.688c-1.231,9.71,5.454,24.429,15.28,27.505
					C1846.729,941.803,1847.475,939.056,1845.729,938.509L1845.729,938.509z"/>
			</g>
		</g>
		<g>
			<g>
				<path fill="#A7A6B2" d="M1849.762,941.16c-5.438-5.086-8.947-12.391-9.363-19.837c-0.518-9.244,8.229-13.695,16.099-14.888
					c1.811-0.274,1.038-3.016-0.756-2.744c-8.327,1.261-16.498,5.711-18.01,14.629c-1.495,8.818,3.747,18.986,10.019,24.853
					C1849.088,944.425,1851.104,942.417,1849.762,941.16L1849.762,941.16z"/>
			</g>
		</g>
		<g>
			<g>
				<path fill="#A7A6B2" d="M1853.263,945.589c-1.048-2.535-2.698-4.333-4.29-6.566c-2.415-3.389-3.482-7.759-3.557-11.845
					c-0.141-7.777,7.381-13.322,13.656-16.232c1.663-0.771,0.218-3.224-1.436-2.457c-6.381,2.958-11.75,7.432-14.281,14.134
					c-1.391,3.681-0.783,7.85,0.243,11.521c1.335,4.769,5.104,7.809,6.919,12.203
					C1851.209,948.016,1853.963,947.283,1853.263,945.589L1853.263,945.589z"/>
			</g>
		</g>
		<g>
			<g>
				<path fill="#A7A6B2" d="M1845.952,935.647c9.839,0.137,18.571-3.021,24.486-11.144c1.082-1.485-1.389-2.903-2.457-1.437
					c-5.312,7.295-13.282,9.855-22.029,9.733C1844.116,932.776,1844.119,935.621,1845.952,935.647L1845.952,935.647z"/>
			</g>
		</g>
		<g>
			<g>
				<path fill="#A7A6B2" d="M1851.143,943.438c9.438-0.554,19.252-3.382,24.287-12.024c0.926-1.589-1.534-3.02-2.457-1.436
					c-4.507,7.736-13.428,10.122-21.83,10.614C1849.319,940.699,1849.309,943.546,1851.143,943.438L1851.143,943.438z"/>
			</g>
		</g>
		<g>
			<g>
				<path fill="#A7A6B2" d="M1856.899,912.386c-1.284,3.872-3.702,6.778-4.376,10.918c-0.585,3.604,0.024,7.204,1.752,10.396
					c0.873,1.614,3.33,0.179,2.457-1.436c-1.802-3.328-1.844-6.883-1.017-10.504c0.704-3.087,2.932-5.616,3.928-8.619
					C1860.223,911.396,1857.475,910.652,1856.899,912.386L1856.899,912.386z"/>
			</g>
		</g>
		<g>
			<g>
				<path fill="#A7A6B2" d="M1860.538,918.04c-2.236,3.843-2.094,8.229-0.086,12.134c0.84,1.633,3.295,0.191,2.457-1.437
					c-1.544-3.002-1.629-6.315,0.086-9.262C1863.921,917.888,1861.462,916.455,1860.538,918.04L1860.538,918.04z"/>
			</g>
		</g>
		<g>
			<g>
				<path fill="#A7A6B2" d="M1865.591,941.774c1.493,5.525,5.435,9.015,9.749,12.473c1.416,1.137,3.442-0.863,2.012-2.012
					c-3.897-3.124-7.66-6.197-9.018-11.217C1867.856,939.249,1865.111,940.001,1865.591,941.774L1865.591,941.774z"/>
			</g>
		</g>
		<g>
			<g>
				<path fill="#A7A6B2" d="M1857.772,942.194c1.534,5.047,5.696,8.668,9.883,11.597c1.507,1.056,2.928-1.414,1.437-2.457
					c-3.546-2.479-7.271-5.609-8.574-9.896C1859.984,939.688,1857.237,940.435,1857.772,942.194L1857.772,942.194z"/>
			</g>
		</g>
		<g>
			<g>
				<path fill="#A7A6B2" d="M1869.407,954.888c10.949,1.439,18.759-9.006,24.847-16.517c1.145-1.41-0.855-3.438-2.013-2.012
					c-5.606,6.918-12.735,17.01-22.834,15.683C1867.593,951.804,1867.615,954.651,1869.407,954.888L1869.407,954.888z"/>
			</g>
		</g>
		<g>
			<g>
				<path fill="#A7A6B2" d="M1885.724,957.285c8.586-3.407,12.134-10.773,16.95-18.073c1.014-1.536-1.451-2.96-2.457-1.437
					c-4.304,6.521-7.526,13.7-15.249,16.767C1883.282,955.211,1884.017,957.964,1885.724,957.285L1885.724,957.285z"/>
			</g>
		</g>
		<g>
			<g>
				<path fill="#A7A6B2" d="M1872.267,935.208c0.972,5.595,4.976,10.277,10.039,12.689c1.646,0.785,3.092-1.668,1.436-2.457
					c-4.476-2.133-7.87-6.037-8.729-10.988C1874.697,932.647,1871.954,933.414,1872.267,935.208L1872.267,935.208z"/>
			</g>
		</g>
		<g>
			<g>
				<path fill="#A7A6B2" d="M1879.888,942.489c3.217-0.585,4.856-3.875,6.87-6.081c1.232-1.352-0.772-3.37-2.013-2.012
					c-1.604,1.759-3.068,4.887-5.613,5.349C1877.327,940.073,1878.095,942.815,1879.888,942.489L1879.888,942.489z"/>
			</g>
		</g>
		<g>
			<g>
				<path fill="#A7A6B2" d="M1894.545,949.078c3.422,4.457,7.192,8.521,13.073,9.138c1.824,0.19,1.807-2.656,0-2.847
					c-4.715-0.493-7.903-4.191-10.616-7.727C1895.901,946.208,1893.428,947.624,1894.545,949.078L1894.545,949.078z"/>
			</g>
		</g>
		<g>
			<g>
				<path fill="#A7A6B2" d="M1900.538,943.645c7.043,5.581,12.646,13.91,22.724,12.626c1.794-0.229,1.815-3.077,0-2.846
					c-9.192,1.172-14.299-6.711-20.711-11.792C1901.129,940.506,1899.102,942.506,1900.538,943.645L1900.538,943.645z"/>
			</g>
		</g>
		<g>
			<g>
				<path fill="#A7A6B2" d="M1907.907,948.403c5.779-0.468,12.22-7.845,12.396-13.542c0.057-1.836-2.789-1.83-2.847,0
					c-0.076,2.51-1.913,4.854-3.498,6.652c-1.47,1.668-3.7,3.854-6.052,4.044C1906.093,945.704,1906.077,948.551,1907.907,948.403
					L1907.907,948.403z"/>
			</g>
		</g>
		<g>
			<g>
				<path fill="#A7A6B2" d="M1916.239,954.322c8.083-3.88,10.651-11.925,11.205-20.337c0.12-1.833-2.726-1.821-2.846,0
					c-0.489,7.446-2.615,14.435-9.795,17.88C1913.149,952.658,1914.594,955.112,1916.239,954.322L1916.239,954.322z"/>
			</g>
		</g>
		<g>
			<g>
				<path fill="#A7A6B2" d="M1927.103,956.548c5.228-2.111,8.557-6.422,8.989-12.152c0.433-5.72,1.059-12.896-2.818-17.567
					c-1.173-1.413-3.175,0.611-2.012,2.013c3,3.613,1.871,8.69,2.095,12.999c0.27,5.175-2.073,9.971-7.01,11.965
					C1924.668,954.482,1925.4,957.235,1927.103,956.548L1927.103,956.548z"/>
			</g>
		</g>
		<g>
			<g>
				<path fill="#A7A6B2" d="M1935.138,947.29c4.089,1.964,7.905,3.312,12.491,2.652c1.812-0.261,1.038-3.002-0.756-2.744
					c-3.748,0.54-6.984-0.773-10.301-2.365C1934.928,944.044,1933.483,946.496,1935.138,947.29L1935.138,947.29z"/>
			</g>
		</g>
		<g>
			<g>
				<path fill="#A7A6B2" d="M1936.481,938.592c6.707,3.421,14.265,4.478,21.572,2.501c1.77-0.479,1.018-3.225-0.756-2.744
					c-6.562,1.773-13.354,0.859-19.381-2.214C1936.285,935.303,1934.847,937.758,1936.481,938.592L1936.481,938.592z"/>
			</g>
		</g>
		<g>
			<g>
				<path fill="#A7A6B2" d="M1938.448,922.503c4.846,2.664,10.314,10.298,7.622,15.979c-0.781,1.648,1.672,3.093,2.457,1.436
					c3.396-7.166-2.276-16.367-8.644-19.87C1938.275,919.16,1936.84,921.617,1938.448,922.503L1938.448,922.503z"/>
			</g>
		</g>
		<g>
			<g>
				<path fill="#A7A6B2" d="M1857.07,908.521c4.83,6.907,8.414,14.684,14.892,20.283c6.187,5.346,15.289,7.576,23.144,8.853
					c8.414,1.369,17.248,1.115,25.371-1.584c3.146-1.046,6.098-2.604,8.402-5.002c3.03-3.147,4.319-7.519,7.457-10.633
					c1.305-1.294-0.709-3.305-2.012-2.012c-1.997,1.981-3.417,4.239-4.822,6.669c-2.439,4.219-5.237,6.512-9.782,8.232
					c-7.941,3.011-17.104,2.685-25.347,1.344c-7.545-1.228-15.596-3.729-21.452-8.791c-5.818-5.028-9.054-12.588-13.394-18.795
					C1858.484,905.593,1856.016,907.013,1857.07,908.521L1857.07,908.521z"/>
			</g>
		</g>
		<g>
			<g>
				<path fill="#A7A6B2" d="M1841.234,938.556c25.336,20.446,61.26,27.849,92.374,17.565c1.733-0.572,0.991-3.32-0.756-2.743
					c-30.095,9.945-65.048,2.984-89.605-16.834C1841.832,935.403,1839.806,937.403,1841.234,938.556L1841.234,938.556z"/>
			</g>
		</g>
		<g>
			<g>
				<path fill="#A7A6B2" d="M1935.035,918.8c10.108,1.626,26.138,5.477,19.97,19.726c-4.043,9.341-12.128,11.657-21.339,13.202
					c-1.807,0.304-1.037,3.045,0.757,2.744c11.807-1.98,22.207-6.597,24.692-19.676c2.54-13.359-13.896-17.225-23.324-18.74
					C1933.998,915.768,1933.229,918.509,1935.035,918.8L1935.035,918.8z"/>
			</g>
		</g>
	</g>
	<g>
		<path fill="#FFFFFF" d="M1859.678,775.131c-0.082-0.14-0.142-0.278-0.188-0.417c-0.844-2.96,0.679-6.189,2.441-8.101
			c0.377-0.4,0.779-0.755,1.188-1.069c0.341-0.573,0.796-1.033,1.289-1.379c0.367-0.587,0.945-1.014,1.711-1.111
			c1.212-0.129,2.414-0.101,3.599,0.098c4.938,0.129,10.176,0.705,12.01,7.399c1.025,3.895,0.018,7.486-2.061,10.059
			c0.067,0.52,0,1.057-0.218,1.61c-3.313,8.532-4.104,18.683-0.66,26.188c0.406,0.556,0.804,1.098,1.228,1.627
			c0.258-0.011,0.547,0,0.85,0.033c4.035-1.298,8.416-0.186,12.104,2.952c1.071,0.929,1.235,2.716,0.688,3.939
			c1.709,2.4,2.492,5.329,2.193,8.479c0.111,0.25,0.205,0.495,0.299,0.716c0.443,1.261,0.391,3.142-0.834,3.809
			c-0.256,0.138-0.514,0.259-0.773,0.372c-3.024,6.956-10.575,8.648-16.432,7.089c-4.318,1.304-11.012-0.724-12.836-5.818
			c-0.289-0.841-0.447-1.722-0.525-2.609c-3.11-3.459-4.692-7.865-2.321-13.428c0.323-0.755,0.825-1.142,1.409-1.286
			c-0.879-10.562,3.248-21.103,4.771-31.422c-0.127-0.018-0.207-0.032-0.342-0.067c-0.472,0.351-1.066,0.46-1.697,0.197
			c-0.996-0.431-1.793-0.854-2.549-1.438c-1.228-0.422-2.471-0.826-3.615-1.407C1858.459,779.195,1858.422,776.296,1859.678,775.131
			z"/>
		<path fill="#CDCDD4" d="M1899.469,810.67c0.016,0.008,0.021,0.02,0.053,0.02c5.838,0.083,11.613,0.771,15.422,6.945
			c0.105,0.17,0.189,0.348,0.26,0.526c2.81,0.398,5.347,1.53,7.627,3.415c0.324-0.105,0.662-0.206,1.015-0.306
			c6.092-1.855,12.108-3.849,18.414-4.501c0.838-0.097,1.491,0.431,1.856,1.177c1.504-0.41,2.949-0.917,4.353-1.596
			c2.785-1.318,3.981,4.073,1.241,5.368c-0.887,0.43-1.807,0.79-2.715,1.097c0.955,0.068,1.965,0.239,2.927,0.516
			c1.692,0.46,2.252,3.247,1.014,4.646c-5.945,6.871-14.797,4.606-22.137,3.3c-4.697-0.183-9.418-0.687-13.982-2.062
			c1.021,1.241,0.771,3.341-0.473,4.361c-0.17,0.121-0.302,0.215-0.459,0.315c-0.131,0.943-0.648,1.859-1.593,2.292
			c-3.086,1.406-7.221,2.389-11.172,2.353c-0.094,0.967-0.598,1.834-1.649,2.026c-8.334,1.695-16.275-4.5-17.248-15.011
			C1881.066,813.04,1890.857,808.939,1899.469,810.67z"/>
		<g>
			<g>
				<path fill="#8A8899" d="M1845.979,784.132c-0.264,0.031-0.529,0.054-0.795,0.065c-0.995-0.081-0.889,0.694,0.318,2.324
					c0.346-0.228,0.849-0.316,1.235-0.437c1.854-0.573,3.772-0.945,5.678-1.287c3.692-0.664,10.658-2.062,13.805,0.749
					c1.327,1.187,3.294-0.768,1.959-1.96c-4.61-4.122-13.281-2.148-18.687-1.042c-1.507,0.308-4.78,0.604-5.849,1.95
					c-1.458,1.838,0.924,2.547,2.334,2.406C1847.739,786.727,1847.757,783.953,1845.979,784.132L1845.979,784.132z"/>
			</g>
		</g>
		<g>
			<g>
				<path fill="#8A8899" d="M1879.115,781.919c-5.602,9.972-3.284,28.562,7.202,34.738c1.543,0.909,2.938-1.486,1.398-2.393
					c-9.132-5.379-11.055-22.321-6.208-30.948C1882.385,781.758,1879.99,780.361,1879.115,781.919L1879.115,781.919z"/>
			</g>
		</g>
		<g>
			<g>
				<path fill="#8A8899" d="M1865.778,785.615c0.118,6.415-2.607,12.245-3.251,18.545c-0.61,5.979-1.282,12.114-1.223,18.125
					c0.103,10.233,7.979,14.849,15.334,20.304c1.438,1.065,2.815-1.342,1.397-2.394c-3.439-2.553-7.077-4.784-10.098-7.855
					c-4.332-4.406-4.055-10.506-3.646-16.202c0.356-4.963,0.586-10.138,1.571-15.009c1.054-5.212,2.784-10.137,2.687-15.515
					C1868.517,783.83,1865.744,783.826,1865.778,785.615L1865.778,785.615z"/>
			</g>
		</g>
		<g>
			<g>
				<path fill="#8A8899" d="M1884.551,811.499c7.46,0.276,14.837,0.488,22.017,2.75c5.885,1.853,13.271,4.768,16.463,10.335
					c0.072-0.561,0.146-1.119,0.218-1.68c-11.713,13.766-31.666,18.023-48.955,15.271c-1.747-0.278-2.497,2.392-0.736,2.672
					c18.217,2.899,39.271-1.435,51.65-15.983c0.41-0.482,0.546-1.104,0.217-1.679c-2.964-5.168-8.464-7.817-13.814-9.918
					c-8.924-3.503-17.546-4.187-27.058-4.54C1882.763,808.66,1882.77,811.432,1884.551,811.499L1884.551,811.499z"/>
			</g>
		</g>
		<g>
			<g>
				<path fill="#8A8899" d="M1917.88,821.499c4.818,1.161,9.651-0.162,14.316-1.438c5.634-1.54,13.34-4.667,18.495-0.459
					c-0.072-0.56-0.145-1.12-0.217-1.679c-4.787,9.817-20.997,2.372-29.313,6.416c-1.071,0.521-0.803,2.282,0.331,2.531
					c3.684,0.812,7.93-0.045,11.627-0.353c5.271-0.438,10.622-0.992,15.911-0.566c3.026,0.243,4.093,1.573,0.491,2.852
					c-3.009,1.067-6.52,0.968-9.671,0.935c-8.929-0.094-17.902-1.005-26.801,0.052c-1.752,0.207-1.772,2.98,0,2.771
					c10.592-1.257,21.219,0.504,31.82-0.178c3.141-0.202,12.323-1.795,9.695-7c-1.821-3.608-10.479-2.356-13.458-2.213
					c-5.849,0.28-13.104,2.302-18.88,1.029c0.11,0.845,0.221,1.688,0.331,2.532c9.122-4.435,24.646,4.199,30.308-7.41
					c0.254-0.521,0.284-1.27-0.217-1.679c-10.15-8.286-22.966,3.851-34.035,1.184C1916.88,818.407,1916.143,821.079,1917.88,821.499
					L1917.88,821.499z"/>
			</g>
		</g>
		<g>
			<g>
				<path fill="#8A8899" d="M1894.171,841.013c6.962,9.229,4.045,22.745,0.134,32.66c-0.656,1.664,2.023,2.379,2.672,0.735
					c4.156-10.536,6.974-25.004-0.413-34.795C1895.502,838.206,1893.094,839.585,1894.171,841.013L1894.171,841.013z"/>
			</g>
		</g>
		<g>
			<g>
				<path fill="#8A8899" d="M1884.741,842.672c3.982,9.9,6.894,21.006,0.731,30.669c-0.964,1.512,1.436,2.899,2.393,1.397
					c6.549-10.271,3.817-22.191-0.452-32.804C1886.756,840.3,1884.073,841.014,1884.741,842.672L1884.741,842.672z"/>
			</g>
		</g>
		<path fill="#9898AC" d="M1865.219,770.023c0.354-0.472,0.899-0.764,1.562-0.764c1.203,0,2.381,1.268,2.287,2.767
			c-0.076,1.374-0.719,2.648-1.904,2.96c-1.215,0.319-2.481-0.424-2.825-1.939C1864.102,771.961,1864.488,770.687,1865.219,770.023z
			"/>
		<g>
			<g>
				<path fill="#8A8899" d="M1882.313,783.064c2.12-4.287,3.956-8.689,2.812-13.518c-1.038-4.391-5.738-7.022-9.568-8.523
					c-9.533-3.736-17.865,2.922-20.812,11.676c-0.571,1.698,2.105,2.421,2.672,0.736c2.479-7.363,8.293-11.935,16.204-10.112
					c3.683,0.849,7.447,3.368,8.833,6.959c1.405,3.646-0.975,8.229-2.533,11.384
					C1879.132,783.261,1881.521,784.665,1882.313,783.064L1882.313,783.064z"/>
			</g>
		</g>
		<g>
			<g>
				<path fill="#8A8899" d="M1856.866,774.719c-2.959,1.432-6.35,0.649-9.506,1.171c-3.729,0.616-6.233,3.787-8.077,6.808
					c-0.934,1.53,1.464,2.921,2.394,1.398c2.337-3.828,4.838-5.707,9.316-5.715c2.589-0.005,4.902-0.122,7.271-1.27
					C1859.873,776.333,1858.468,773.944,1856.866,774.719L1856.866,774.719z"/>
			</g>
		</g>
		<g>
			<g>
				<path fill="#8A8899" d="M1884.24,867.789c-3.396-0.312-6.604-1.474-9.943-2.103c-1.282-0.242-2.431,1.296-1.349,2.316
					c1.414,1.332-0.312,1.498-1.543,1.834c-1.027,0.279-2.107,0.427-3.173,0.459c-1.298,0.039-1.996,1.941-0.699,2.581
					c2.293,1.132,6.158,1.742,6.906,4.563c0.188,0.709,0.989,1.195,1.704,0.968c1.55-0.491,2.838-1.24,4.123-2.245
					c2.173-1.697,4.608-2.49,6.837-4.006c1.469-0.998,0.084-3.399-1.397-2.393c-1.465,0.995-3.174,1.368-4.65,2.322
					c-1.916,1.238-3.405,2.938-5.646,3.648c0.567,0.322,1.136,0.646,1.703,0.968c-1.026-3.878-5.003-4.652-8.18-6.219
					c-0.233,0.86-0.466,1.721-0.699,2.582c3.711-0.114,11.592-2.387,6.676-7.025c-0.449,0.772-0.898,1.544-1.349,2.316
					c3.59,0.676,7.027,1.866,10.681,2.202C1886.021,870.725,1886.004,867.951,1884.24,867.789L1884.24,867.789z"/>
			</g>
		</g>
		<g>
			<g>
				<path fill="#8A8899" d="M1894.467,873.346c-3.398-0.312-6.607-1.475-9.948-2.097c-1.281-0.239-2.43,1.294-1.348,2.315
					c1.409,1.332-0.317,1.497-1.546,1.831c-1.023,0.28-2.103,0.427-3.162,0.459c-1.299,0.04-1.995,1.941-0.699,2.582
					c2.287,1.132,6.157,1.745,6.904,4.56c0.188,0.709,0.988,1.195,1.703,0.969c1.546-0.49,2.829-1.237,4.111-2.239
					c2.174-1.697,4.609-2.488,6.839-4.002c1.47-0.998,0.084-3.4-1.397-2.394c-1.465,0.995-3.176,1.366-4.652,2.32
					c-1.912,1.236-3.398,2.932-5.636,3.642c0.567,0.322,1.136,0.646,1.704,0.969c-1.027-3.874-5.007-4.647-8.178-6.216
					c-0.233,0.859-0.467,1.721-0.699,2.581c3.709-0.113,11.574-2.389,6.667-7.021c-0.449,0.771-0.898,1.544-1.349,2.316
					c3.593,0.67,7.03,1.859,10.686,2.195C1896.246,876.281,1896.23,873.508,1894.467,873.346L1894.467,873.346z"/>
			</g>
		</g>
	</g>
	<g>
		<path fill="#A7A6B2" d="M2242.844,895.524c0,0,29.285-7.573,17.82-28.266c-9.468-17.078-102.783-8.919-105.836,2.149
			c-3.093,11.066-1.263,16.396,2.889,18.129c4.131,1.729,16.576,6.609,16.576,6.609l-4.816,55.168c0,0-17.359-0.348-19.256,10.404
			c-1.91,10.758-6.242,17.072,12.061,21.272c18.277,4.201,92.896,5.936,107.603-2.472c3.237-1.837,7.979-22.767-3.31-26.16
			c-4.721-1.418-13.852-2.474-13.852-2.474L2242.844,895.524z"/>
		<g>
			<path fill="#A7A6B2" d="M2243.215,896.871c9.69-2.555,21.027-9.253,21.508-20.335c0.604-13.943-13.073-17.479-24.001-19.083
				c-16.21-2.379-33.01-1.67-49.249,0.014c-7.342,0.761-14.674,1.84-21.871,3.491c-4.576,1.05-9.641,2.277-13.574,4.971
				c-1.9,1.302-2.441,2.707-3.018,4.898c-1.262,4.805-2.055,10.629,0.634,15.093c1.763,2.926,5.858,3.854,8.794,5.03
				c3.822,1.531,7.652,3.04,11.484,4.543c-0.344-0.448-0.686-0.897-1.027-1.348c-1.605,18.39-3.211,36.778-4.816,55.168
				c0.467-0.466,0.934-0.932,1.398-1.398c-5.48-0.071-11.435,1.123-15.969,4.292c-5.218,3.648-6.552,12.602-6.532,18.578
				c0.04,13.358,25.255,13.264,34.45,13.947c19.164,1.425,38.53,1.607,57.716,0.519c7.729-0.439,15.521-1.112,23.107-2.711
				c4.515-0.949,9.14-1.935,10.911-6.616c2.403-6.354,3.078-14.527-0.484-20.569c-3.646-6.182-13.707-6.129-19.953-6.866
				c0.448,0.343,0.897,0.686,1.348,1.026c-3.293-18.12-6.586-36.241-9.879-54.362c-0.321-1.771-3.017-1.019-2.695,0.744
				c3.293,18.12,6.586,36.241,9.879,54.362c0.119,0.653,0.765,0.957,1.348,1.025c4.166,0.491,8.327,1.14,12.406,2.125
				c5.582,1.353,7.04,6.501,7.161,11.633c0.087,3.668-0.623,7.68-2.227,11c-1.073,2.227-4.264,2.726-6.444,3.304
				c-16.816,4.462-35.604,3.858-52.851,3.724c-15.797-0.125-32.61,0.026-48.117-3.425c-4.336-0.966-11.026-2.366-12.633-7.202
				c-1.139-3.428,0.685-7.979,1.363-11.355c1.666-8.285,10.452-10.319,17.886-10.375c0.069,0,0.139,0,0.208,0.002
				c0.812,0.011,1.332-0.647,1.397-1.398c1.605-18.39,3.211-36.778,4.816-55.168c0.057-0.658-0.479-1.134-1.027-1.348
				c-2.773-1.09-5.547-2.185-8.316-3.283c-3.898-1.546-9.697-2.599-11.212-6.979c-1.125-3.254-0.849-10.876,1.53-13.516
				c1.284-1.428,3.43-2.211,5.168-2.882c13.673-5.272,29.555-6.24,44.029-6.989c14.984-0.775,31.629-1.24,46.014,3.711
				c6.608,2.274,10.328,7.256,10.012,14.579c-0.33,7.617-8.512,12.51-14.73,15.113c-1.519,0.636-3.092,1.203-4.685,1.624
				C2240.73,894.636,2241.47,897.333,2243.215,896.871z"/>
		</g>
	</g>
	<g>
		<path fill="#A7A6B2" d="M2511.789,890.55c0,0-28.795-7.062-18.027-28.336c8.891-17.559,100.301-11.287,103.522-0.106
			c3.261,11.177,1.584,16.634-2.438,18.484c-4.002,1.845-16.066,7.073-16.066,7.073l5.892,55.951c0,0,16.963-0.728,19.047,10.154
			c2.098,10.889,6.469,17.213-11.336,21.879c-17.781,4.663-90.697,8.039-105.258-0.184c-3.205-1.795-8.285-22.96,2.678-26.652
			c4.584-1.543,13.49-2.812,13.49-2.812L2511.789,890.55z"/>
		<g>
			<path fill="#A7A6B2" d="M2512.159,889.205c-11.395-2.854-26.571-14.615-16.452-27.453c3.256-4.132,9.785-5.497,14.614-6.559
				c7.795-1.713,15.857-2.225,23.814-2.459c16.213-0.478,32.93,0.472,48.784,4.045c4.036,0.91,9.754,1.923,12.703,5.134
				c1.15,1.254,1.227,4.091,1.547,5.686c0.58,2.875,0.679,5.887-0.192,8.702c-1.188,3.838-8.07,5.432-11.302,6.848
				c-2.53,1.109-5.063,2.213-7.6,3.312c-0.402,0.174-0.736,0.771-0.689,1.202c1.964,18.65,3.927,37.302,5.891,55.951
				c0.077,0.733,0.575,1.423,1.395,1.395c6.348-0.228,15.08,1.367,17.455,8.113c1.176,3.339,1.975,7.593,2.228,11.125
				c0.394,5.482-4.883,7.67-9.258,9.161c-6.644,2.268-13.897,2.883-20.833,3.585c-9.271,0.941-18.587,1.468-27.898,1.798
				c-17.322,0.612-35.923,1.407-52.932-2.559c-1.938-0.451-5.059-0.958-6.219-2.737c-2.107-3.229-2.579-7.913-2.703-11.644
				c-0.15-4.537,1.007-9.853,5.662-11.696c4.139-1.64,8.975-2.143,13.357-2.794c0.045-0.007,0.088-0.013,0.133-0.02
				c0.424-0.062,0.908-0.552,0.973-0.975c2.832-18.482,5.664-36.967,8.496-55.45c0.27-1.759-2.416-2.514-2.688-0.74
				c-1.787,11.662-3.574,23.325-5.361,34.988c-0.938,6.112-1.873,12.227-2.811,18.341c-0.091,0.588-0.181,1.177-0.271,1.765
				c-0.097,0.62,1.671-0.734-0.179-0.451c-4.338,0.664-9.674,1.068-13.604,3.137c-6.486,3.412-7.157,11.714-6.129,18.212
				c0.866,5.471,2.064,9.945,7.516,11.874c6.26,2.215,13.306,2.657,19.869,3.146c9.465,0.702,18.98,0.751,28.467,0.605
				c12.121-0.187,24.252-0.826,36.318-2.012c9.187-0.901,19.37-1.689,27.579-6.261c3.29-1.832,5.146-4.823,5.312-8.547
				c0.182-4.067-1.108-10.246-2.813-13.873c-3.343-7.109-12.447-9.139-19.67-8.88c0.465,0.465,0.93,0.929,1.395,1.394
				c-1.239-11.768-2.479-23.535-3.717-35.304c-0.649-6.169-1.3-12.338-1.948-18.507c-0.062-0.594-0.125-1.188-0.188-1.78
				c-0.09-0.851-1.434,1.149,0.02,0.521c4.043-1.756,8.083-3.52,12.111-5.307c2.847-1.262,5.289-2.244,6.853-5.075
				c2.103-3.812,1.149-8.896,0.341-12.91c-1.017-5.051-2.988-6.837-7.639-8.725c-12.909-5.237-28.436-5.886-42.162-6.465
				c-11.105-0.468-22.374-0.297-33.395,1.271c-7.304,1.038-15.871,2.402-21.635,7.436c-6.679,5.833-5.704,16.937-0.562,23.221
				c4.111,5.028,11.056,8.344,17.273,9.901C2513.162,892.329,2513.902,889.643,2512.159,889.205z"/>
		</g>
	</g>
</g>
</svg>
