<?xml version="1.0" encoding="utf-8"?>
<!-- Generator: Adobe Illustrator 16.0.4, SVG Export Plug-In . SVG Version: 6.00 Build 0)  -->
<!DOCTYPE svg PUBLIC "-//W3C//DTD SVG 1.1//EN" "http://www.w3.org/Graphics/SVG/1.1/DTD/svg11.dtd">
<svg version="1.1" id="Layer_1" xmlns="http://www.w3.org/2000/svg" xmlns:xlink="http://www.w3.org/1999/xlink" x="0px" y="0px"
	 width="1310.729px" height="763.95px" viewBox="0 0 1310.729 763.95" enable-background="new 0 0 1310.729 763.95"
	 xml:space="preserve">
<polygon fill="#ABDCF2" points="535.733,478.666 539.271,405.746 523.938,384.183 526.344,378.604 533.83,391.891 528.885,370.828 
	531.604,365.019 539.271,391.891 543.229,396.548 540.26,351.433 547.186,351.433 552.625,387.379 556.178,381.13 564.002,367.366 
	566.475,370.828 559.551,387.379 566.475,387.855 566.475,391.891 555.594,391.891 550.646,405.746 555.594,481.89 "/>
<ellipse opacity="0.4" fill="#ABDCF2" cx="542.207" cy="378.695" rx="39.609" ry="52.599"/>
<polygon fill="#ABDCF2" points="581.866,484.831 584.388,432.864 573.461,417.497 575.174,413.521 580.51,422.99 576.985,407.979 
	578.924,403.84 584.388,422.99 587.207,426.309 585.092,394.157 590.027,394.157 593.904,419.774 596.436,415.321 602.012,405.512 
	603.774,407.979 598.84,419.774 603.774,420.114 603.774,422.99 596.02,422.99 592.494,432.864 596.02,487.129 "/>
<ellipse opacity="0.4" fill="#ABDCF2" cx="590.942" cy="407.944" rx="28.228" ry="37.485"/>
<g>
	<path fill="#ABDCF2" d="M917.435,489.071l0.293-10.552l4.644,0.128l0.504-18.151l6.296-13.765c0,0,55.838-2.673,62.532-0.375
		l37.885,20.063c0,0,24.448,1.946,24.529,29.408L917.435,489.071z"/>
	<circle fill="#ABDCF2" cx="936.622" cy="490.238" r="11.191"/>
	<circle fill="#ABDCF2" cx="1034.701" cy="495.289" r="11.19"/>
	<polygon fill="#E4F3FB" points="925.278,472.393 929.723,472.516 930.344,450.144 925.077,461.646 	"/>
	<polygon fill="#E4F3FB" points="941.852,461.659 945.652,461.763 948.976,448.549 936.946,448.215 	"/>
	<polygon fill="#E4F3FB" points="948.606,461.846 976.437,463.676 976.859,448.479 951.744,447.781 	"/>
	<polygon fill="#E4F3FB" points="983.401,463.869 1012.913,466 1012.979,463.635 989.521,448.832 981.291,448.602 	"/>
	<polygon fill="#E4F3FB" points="993.744,448.948 1019.959,466.756 1026.501,466.986 993.744,448.948 	"/>
	<circle fill="#E4F3FB" cx="936.623" cy="490.238" r="7.918"/>
	<circle fill="#E4F3FB" cx="1034.7" cy="495.288" r="7.918"/>
</g>
<polygon fill="#ABDCF2" points="1119.458,536.191 1116.36,338.31 1186.374,338.31 1177.444,540.548 1186.374,542.598 
	1187.686,191.849 1290.135,179.327 1280.366,564.065 1186.374,564.065 "/>
<polygon fill="#ABDCF2" points="150.903,443.244 1308.739,523.474 1306.005,760.251 48.182,686.102 "/>
<polygon fill="#98D6F3" points="518.25,684.061 43.42,677.938 36.617,230.69 462.851,230.69 537.332,304.826 525.244,305.18 "/>
<polygon fill="#81CFF5" points="8.999,46.211 0,716.678 1306.229,763.95 1310.729,585.608 397.019,486.224 396.423,111.418 
	413.403,71.224 49.497,22.213 "/>
<polygon fill="#ABDCF2" points="91.146,205.86 91.733,521.47 262.801,481.334 277.254,205.349 "/>
<polygon fill="#81CFF5" points="180.305,191.849 194.67,191.849 206.541,505.249 197.638,505.249 "/>
<path fill="#0F8CCD" d="M179.305,619.431c6.943,1.39,259.479-81.57,259.479-81.57l870.966,117.445l-2.711,107.431l-780.98-33.201
	L179.305,619.431z"/>
<polygon fill="#0F8CCD" points="179.305,615.21 179.305,587.668 443.115,511.225 439.229,533.247 "/>
<path fill="#0F8CCD" d="M52.877,534.763l122.146,49.632l268.093-76.401l-174.853-22.062c0,0-208.122,53.708-216.456,49.542"/>
<path fill="#0F8CCD" d="M282.816,416.317c0,0-1.715-46.696-3.53-53.381c-1.819-6.685,23.164-7.938,26.796-2.927
	c2.256,3.111,0.87,42.498,1.782,46.468"/>
<path fill="#FFFFFF" d="M389.477,403.041c0,0-15.463-4.78-15.759-6.945c0,0,4.177,0.928,5.617-0.54
	c1.439-1.466,0.518-2.532,0.518-2.532s-2.107,0.926-5.207,0.402c-5.321-0.899-7.815,0.746-12.211,2.689
	c0,0-33.857-17.486-49.549-31.675c-1.204,1.71-2.912,4.568-4.362,6.061c8.582,9.309,51.792,30.454,51.792,30.454l3.224,5.012
	c0,0,1.585,1.484,8.632,5.547c2.012,1.158,6.412,5.526,6.909,5.978c1.015,0.918,1.4-0.191,1.161-0.781
	c-0.843-2.062-5.223-5.693-5.764-6.576c-0.479-0.779,0.719-0.985,0.719-0.985l8.951,6.219c0,0,2.369,0.7,1.779-0.675
	c-0.591-1.376-8.807-7.223-8.807-7.223s-0.556-2.03,3.945-0.119c1.943,0.826,7.434,3.223,8.159,3.517
	c0.37,0.151,1.62-1.838,0.176-2.503c-1.047-0.486-8.823-3.661-9.704-4.539c-1.188-1.185,0.328-1.469,0.328-1.469
	s8.598,2.715,8.983,2.704C391.312,404.995,389.477,403.041,389.477,403.041z"/>
<path fill="#0F8CCD" d="M303.49,371.827l6.543,6.415l7.555-11.556c0,0-9.822-7.445-14.098-8.393
	C293.161,356.005,303.49,371.827,303.49,371.827z"/>
<path fill="#100805" d="M250.906,309.145c0,18.886,28.24,34.427,40.336,34.427c22.275,0,40.334-15.411,40.334-34.427
	c0-19.009-18.059-34.42-40.334-34.42C268.963,274.725,250.906,290.136,250.906,309.145"/>
<path fill="#100805" d="M247.751,273.018c0,9.295,8.828,16.827,19.718,16.827c10.893,0,19.721-7.532,19.721-16.827
	c0-9.293-8.828-16.827-19.721-16.827C256.579,256.19,247.751,263.725,247.751,273.018"/>
<path fill="#C5843C" d="M279.716,310.087c-0.033,0.038-0.063,0.069-0.086,0.093C279.652,310.156,279.686,310.123,279.716,310.087"/>
<path fill="#C5843C" d="M282.786,306.821c0.058-0.061,0.104-0.109,0.138-0.145C282.895,306.71,282.848,306.757,282.786,306.821"/>
<path fill="#FFFFFF" d="M269.462,317.916c0.998,0.037,2.078,0.354,3.015,0.875c0.31,0.076,0.621,0.168,0.936,0.294
	c0.654,0.263,1.242,0.688,1.826,1.06c0.125,0.079,0.262,0.149,0.392,0.227c-0.009-0.035-0.022-0.062-0.028-0.098
	c-0.486-2.57,0.267-5.101,0.227-7.69c-0.053-3.383,0.15-6.438,1.154-9.71c1.89-6.162,9.291-6.963,15.261-7.72
	c7.53-0.952,15.497-0.691,22.987,0.427c2.565,0.382,4.097,1.63,5.066,3.298c-0.281,0.458-0.457,1.003-0.441,1.664
	c0.162,7.145,2.375,13.845,6.388,19.739c2.233,3.892,4.893,7.739,4.688,12.033c-0.307,6.36-25.962,11.215-31.021,12.878
	c-5.934,1.953,3.519,19.47-8.46,15.192c-1.954-0.696,1.489-15.738,0.198-16.134c-2.539-0.328-15.705-11.273-17.748-12.62
	c-2.676-1.477-5.801-3.125-7.447-5.583c-0.014-0.018-0.028-0.031-0.043-0.049c-0.354-0.455-0.58-0.925-0.703-1.395
	c-0.189-0.516-0.323-1.062-0.375-1.645C265.156,320.99,267.021,317.834,269.462,317.916"/>
<path fill="#C5843C" d="M282.923,306.678C282.992,306.602,282.988,306.609,282.923,306.678"/>
<path fill="#C5843C" d="M279.63,310.18C279.556,310.259,279.562,310.253,279.63,310.18"/>
<path fill="#FFFFFF" d="M288.712,317.621c0.256-0.099,0.53-0.187,0.81-0.266c0.135-0.344,0.396-0.668,0.821-0.934
	c3.431-2.124,9.116-0.982,12.111,1.33c3.702,2.862,1.005,6.704-2.371,8.292c-3.34,1.574-8.406,1.848-11.771,0.23
	C284.456,324.421,284.62,319.188,288.712,317.621"/>
<path fill="#FFFFFF" d="M311.865,317.588c2.8-2.744,12.596-2.826,12.663,2.121c0.063,4.546-7.582,6.047-11.123,3.987
	c-1.319-0.772-1.917-1.954-1.782-3.196C311.012,319.665,310.903,318.532,311.865,317.588"/>
<path fill="none" stroke="#020203" stroke-width="0.993" stroke-miterlimit="10" d="M314.143,320.173c0,1.734,0.9,3.134,2.009,3.134
	c1.11,0,2.009-1.399,2.009-3.134c0-1.73-0.898-3.135-2.009-3.135C315.043,317.038,314.143,318.442,314.143,320.173z"/>
<path fill="none" stroke="#020203" stroke-width="0.993" stroke-miterlimit="10" d="M289.238,321.814
	c0,1.735,0.898,3.137,2.009,3.137c1.109,0,2.011-1.401,2.011-3.137c0-1.729-0.901-3.135-2.011-3.135
	C290.137,318.68,289.238,320.085,289.238,321.814z"/>
<path fill="#020203" d="M311.755,333.684c-3.636,0.031-7.724,0.735-11.214-0.53c-0.549-0.199-0.782,0.673-0.24,0.869
	c3.583,1.299,7.73,0.595,11.454,0.563C312.336,334.579,312.337,333.679,311.755,333.684"/>
<path fill="#100805" d="M312.187,334.359c0.636-0.721,2.368-2.39,1.746-3.537c-0.54-0.997-2.112-0.646-2.998-0.499
	c-2.009,0.335-3.97,0.983-5.935,1.496c-0.573,0.148-4.746,1.334-4.434,0.092c0.141-0.564-0.729-0.804-0.869-0.24
	c-0.744,2.969,4.702,1.236,5.862,0.935c1.867-0.486,3.715-1.062,5.614-1.412c0.457-0.085,1.5-0.34,1.927-0.004
	c0.458,0.359-1.392,2.351-1.554,2.533C311.166,334.157,311.802,334.796,312.187,334.359"/>
<path fill="#100805" d="M308.916,335.7c0.98,2.026-1.443,1.837-2.736,1.511c-1.595-0.405-3.465-1.438-3.925-3.13
	c-0.151-0.561-1.022-0.322-0.868,0.24c0.639,2.354,3.409,3.737,5.676,3.975c2.117,0.223,3.689-0.868,2.633-3.051
	C309.441,334.722,308.664,335.179,308.916,335.7"/>
<path fill="#A42523" d="M303.512,315.872c0.611,4.843-0.036,10.596-5.406,12.075c-2.171,0.598-4.533,0.524-6.761,0.436
	c-2.147-0.086-4.644-0.186-5.985-2.122c-1.023-1.474-1.084-3.653-1.195-5.373c-0.153-2.377,0.592-3.837,2.937-4.586
	c5.312-1.694,12.109-1.311,17.302,0.531c1.319,0.468,1.881-1.626,0.575-2.09c-3.534-1.253-7.226-1.618-10.958-1.528
	c-3.145,0.075-7.117,0.288-9.826,2.054c-3.611,2.353-2.521,9.47-0.439,12.47c1.337,1.928,3.688,2.462,5.874,2.71
	c2.978,0.338,6.129,0.245,9.053-0.411c6.429-1.444,7.715-8.478,6.997-14.165C305.505,314.506,303.337,314.488,303.512,315.872"/>
<path fill="#A42523" d="M283.281,317.848c-3.65-0.966-7.305-1.929-10.945-2.933c-1.35-0.371-1.921,1.719-0.576,2.09
	c3.642,1.003,7.293,1.966,10.945,2.933C284.057,320.295,284.631,318.205,283.281,317.848"/>
<path fill="#A42523" d="M325.063,310.141c-2.79,0.234-5.572,0.51-8.339,0.949c-2.646,0.421-5.756,0.941-7.844,2.764
	c-1.053,0.92,0.485,2.445,1.533,1.531c1.748-1.523,4.692-1.831,6.887-2.206c2.568-0.438,5.17-0.653,7.763-0.872
	C326.445,312.19,326.457,310.023,325.063,310.141"/>
<path fill="#A42523" d="M324.298,311.99c2.339,2.417,3.272,9.17,0.74,11.749c-2.607,2.654-9.063,3.014-12.296,1.698l0.757,0.757
	c-0.978-2.953-1.861-5.96-2.45-9.018c-0.197-1.025-0.146-2.91-1.591-3.12c-1.738-0.252-3.242,0.593-4.937,0.813
	c-1.367,0.177-1.384,2.346,0,2.166c1.049-0.136,2.039-0.411,3.057-0.696c1.502-0.422,1.281,0.891,1.49,1.976
	c0.442,2.298,1.125,4.557,1.811,6.79c0.38,1.239,0.457,2.084,1.725,2.6c2.018,0.82,4.521,0.623,6.619,0.35
	c3.702-0.481,7.676-1.688,8.881-5.558c1.145-3.676,0.477-9.197-2.275-12.04C324.857,309.452,323.326,310.985,324.298,311.99"/>
<path fill="#100805" d="M293.225,307.518c-2.021,0.55-4.098,0.869-6.085,1.542c-0.547,0.186-0.312,1.057,0.24,0.869
	c1.987-0.673,4.063-0.991,6.085-1.542C294.025,308.234,293.787,307.364,293.225,307.518"/>
<path fill="#100805" d="M320.644,308.043c-0.478-0.47-1.563-0.459-2.173-0.551c-1.167-0.178-2.352-0.296-3.508-0.544
	c-0.566-0.122-0.807,0.747-0.239,0.869c0.912,0.196,1.844,0.304,2.767,0.435c0.543,0.078,2.205,0.122,2.514,0.428
	C320.418,309.089,321.058,308.451,320.644,308.043"/>
<path fill="#FFFFFF" d="M284.271,422.613c0,0,4.85,2.314,9.639,4.503c0,0-8.422,34.303-10.551,42.54
	c-2.037-0.314-4.07-0.648-6.105-1.007C280.112,449.944,284.271,422.613,284.271,422.613"/>
<path fill="#100805" d="M278.228,462.277c2.038,0.345,5.313,1.666,7.354,1.964c-1.351,5.191-4.617,16.789-4.806,23.37
	c-0.358,12.195-9.711,42.877-9.711,42.877s-27.61,15.995-30.604,9.349c-2.99-6.642,26.608-10.546,27.064-13.021
	c3.695-20.041,4.604-27.695,6.798-39.723c0.104-0.593,1.329-8.185,2.912-18.049"/>
<path fill="#FFFFFF" d="M296.818,422.911c4.871-1.401,9.819-2.91,9.819-2.91s0.503,26.071,0.807,43.528
	c-1.723,0.274-3.442,0.505-5.165,0.712c-0.627-8.104-2.178-14.66-2.682-18.714L296.818,422.911z"/>
<path fill="#100805" d="M307.49,405.979c0,0-12.583,6.462-25.126-0.517c-1.101-0.612-7.378,35.274-7.378,35.274
	c18.765,8.77,38.334-1.43,38.334-1.43L307.49,405.979z"/>
<path fill="#FFFFFF" d="M308.159,316.956c-0.479,3.446,0.11,4.24,1.067,7.491c1.439-0.192,2.8-0.258,3.756-1.024
	c3.414,6.281-2.189,5.592-4.823,5.4"/>
<path fill="#020304" d="M307.706,316.956c-0.339,2.809,0.278,4.944,1.085,7.611c0.053,0.175,0.236,0.357,0.436,0.333
	c1.164-0.146,2.275-0.262,3.367-0.712c0.952-0.395,1.076,3.052,0.562,3.625c-1.029,1.147-3.646,0.659-4.996,0.558
	c-0.583-0.045-0.578,0.861,0,0.904c1.749,0.133,3.737,0.389,5.313-0.562c1.98-1.197,0.662-4.033-0.1-5.52
	c-0.107-0.213-0.42-0.29-0.619-0.162c-0.943,0.606-1.715,0.728-2.816,0.873c-0.689,0.091-0.951-1.764-1.082-2.199
	c-0.481-1.59-0.44-3.121-0.244-4.75C308.682,316.377,307.775,316.384,307.706,316.956"/>
<path fill="#FFFFFF" d="M277.601,271.415c2.045-0.792,3.806-2.455,3.627-4.809c-0.185-2.466-2.961-2.602-4.792-2.176
	c0.085,0.307,0.169,0.613,0.254,0.92c3.796-1.44,2.75-4.564-0.361-6.146c-3.931-1.999-7.875-0.263-8.429,4.17h0.955
	c-0.323-4.833-8.123-4.065-6.397,0.732c0.207,0.574,1.129,0.327,0.92-0.254c-1.267-3.521,4.293-3.904,4.522-0.479
	c0.043,0.627,0.88,0.601,0.955,0c0.425-3.406,3.003-4.644,6.122-3.695c2.447,0.745,5.003,3.406,1.459,4.751
	c-0.566,0.215-0.355,1.062,0.254,0.92c4.732-1.101,4.141,3.795,0.657,5.145C276.779,270.715,277.026,271.638,277.601,271.415"/>
<path fill="#FFFFFF" d="M268.409,273.113c1.211-1.336,1.81-3.668-0.41-4.414c-2.512-0.846-4.103,1.164-4.346,3.469h0.955
	c-0.412-3.611-3.347-5.286-6.753-4.116c-3.041,1.046-3.698,3.948-0.938,5.741c0.123-0.291,0.246-0.582,0.368-0.872
	c-2.251-0.866-5.673-0.204-5.139,2.965c0.728,4.307,4.83,4.273,8.346,4.644c0.611,0.063,0.605-0.891,0-0.955
	c-1.596-0.168-3.191-0.196-4.748-0.63c-1.799-0.502-2.906-2.28-2.596-4.11c0.33-1.943,2.703-1.446,3.883-0.993
	c0.527,0.203,0.8-0.591,0.367-0.873c-2.354-1.528-1.153-3.354,1.033-4.106c2.649-0.91,4.91,0.555,5.222,3.307
	c0.069,0.611,0.89,0.616,0.955,0c0.442-4.198,5.687-2.555,3.127,0.27C267.323,272.893,267.995,273.569,268.409,273.113"/>
<path fill="#FFFFFF" d="M262.554,297.227c-1.979-0.911-4.696-0.888-5.997,1.195c-1.259,2.017-0.161,3.69,1.99,4.226
	c0.085-0.307,0.169-0.613,0.254-0.92c-4.105-0.733-8.768,4.146-3.285,6.074c0.296,0.104,0.604-0.166,0.604-0.46v-0.302
	c0-0.325-0.303-0.524-0.604-0.461c-4.749,1.006-1.791,6.65,0.796,8.452c0.507,0.353,0.982-0.475,0.48-0.824
	c-1.875-1.307-4.847-5.898-1.022-6.708c-0.201-0.153-0.402-0.307-0.605-0.459v0.302c0.203-0.153,0.404-0.307,0.605-0.46
	c-4.382-1.542,0.159-4.701,2.777-4.234c0.596,0.106,0.859-0.77,0.254-0.92c-1.669-0.415-2.4-1.608-1.234-3.05
	c1.116-1.379,3.049-1.298,4.506-0.627C262.626,298.307,263.113,297.483,262.554,297.227"/>
<path fill="#FFFFFF" d="M309.952,289.184c5.562-4.674-4.392-7.78-7.951-4.314c0.265,0.155,0.531,0.311,0.798,0.465
	c0.991-4.988-6.553-8.477-9.363-4.006c0.291,0.122,0.582,0.244,0.873,0.367c0.678-3.356-3.108-5.621-5.651-3.193
	c-0.445,0.426,0.231,1.1,0.676,0.676c1.812-1.732,4.556-0.208,4.056,2.264c-0.106,0.526,0.576,0.838,0.873,0.367
	c2.222-3.537,8.397-0.656,7.616,3.271c-0.091,0.458,0.439,0.813,0.798,0.466c2.655-2.587,11.047-0.772,6.601,2.963
	C308.807,288.904,309.483,289.576,309.952,289.184"/>
<path fill="#FFFFFF" d="M288.85,289.579c0.484-1.262,0.586-2.73,0.622-4.069c0.007-0.231-0.153-0.379-0.351-0.46
	c-1.998-0.835-3.762-0.588-5.521,0.655c-0.497,0.353-0.03,1.174,0.479,0.824c4.256-2.91-2.859-6.172-5.633-4.16
	c-0.494,0.357-0.019,1.187,0.479,0.824c1.793-1.3,7.532,0.555,4.674,2.512c0.16,0.275,0.32,0.549,0.479,0.824
	c0.424-0.299,4.468-2.107,4.425-0.527c-0.031,1.107-0.177,2.286-0.575,3.323C287.707,289.9,288.632,290.147,288.85,289.579"/>
<g>
	<path fill="#1E1E1C" d="M214.735,396.218c0,0,3.212,22.874,1.432,37.216c0,0,7.889,1.936,7.717-8.991
		C223.716,413.799,214.735,396.218,214.735,396.218"/>
	<path fill="#3E67B0" d="M210.85,433.856c0,0,6.569-21.085-6.892-43.595l5.959-1.004c0,0,6.746,6.532,9.662,23.823
		c2.92,17.294-3.414,20.353-3.414,20.353L210.85,433.856z"/>
	<path fill="#FFFFFF" d="M208.221,436.799c5.547-1.402,7.815-13.369,5.067-26.729c-2.746-13.36-9.471-23.052-15.019-21.65
		c-5.55,1.404-13.221,15.203-10.474,28.562C190.542,430.344,202.672,438.199,208.221,436.799"/>
</g>
<path fill="#FFFFFF" d="M270.051,372.471c-8.432,6.994-24.299,18.669-42.45,24.587c-3.938,1.284-11.625-5.249-15.375-3.374
	c-3.748,1.875-9.375,4.875-9.375,4.875s-1.498,5.249,2.627,3.749c4.125-1.499,6.565-4.26,6.565-4.26l5.837,5.048
	c0,0,1.901,5,2.523,4.732c26.873-11.552,47.356-24.192,57.608-31.159C275.111,376.144,272.44,374.581,270.051,372.471z"/>
<path fill="#0F8CCD" d="M277.521,380.827c0,0,5.521-5.258,6.529-8c1.85-5.023-1.875-10.079-2.591-13.278
	c0,0-12.158,10.199-12.819,10.273"/>
<path fill="#100805" d="M307.66,479.888c-0.425,8.408-0.889,20.769-0.391,39.322c0.059,2.287,29.38,2.98,25.535,8.595
	c-3.844,5.609-29.45-5.739-29.45-5.739s-3.643-22.478-1.371-40.825c0.711-5.751-0.37-13.118-0.745-17.963
	c1.721-0.207,5.028,0.257,6.751-0.017C308.135,471.67,307.688,479.351,307.66,479.888"/>
<rect x="451.641" y="311.417" fill="#E4F3FB" width="16.547" height="34.407"/>
<rect x="475.26" y="311.417" fill="#E4F3FB" width="16.547" height="34.407"/>
<rect x="452.19" y="357.539" fill="#E4F3FB" width="16.547" height="34.407"/>
<rect x="475.809" y="357.539" fill="#E4F3FB" width="16.547" height="34.407"/>
<rect x="452.74" y="401.252" fill="#E4F3FB" width="16.547" height="34.407"/>
<rect x="476.358" y="401.252" fill="#E4F3FB" width="16.547" height="34.407"/>
<g>
	<path fill="#ABDCF2" d="M639.561,465.123l161.619,15.642c0,0,2.691-15.642,1.636-16.922c-1.054-1.278-5.824-15.057-13.447-18.08
		c-20.16-7.996-23.497-7.874-23.497-7.874s-31.318-20.244-36.646-22.98c-3.128-1.608-70.749-17.448-80.818,7.489
		C636.162,452.72,639.561,465.123,639.561,465.123z"/>
	<path fill="#E4F3FB" d="M671.539,432.882l26.838,2.597c0,0,2.812-19.932,2.018-20.844s-31.982-2.943-33.484-0.881
		C665.409,415.819,671.539,432.882,671.539,432.882z"/>
	<path fill="#E4F3FB" d="M703.37,435.962l37.016,3.583l0.734-7.585c0,0-10.85-18.382-35.732-16.842L703.37,435.962z"/>
	<path fill="#E4F3FB" d="M754.422,438.948l8.488,0.263l-29.982-20.515c0,0,12.268,11.475,13.786,13.106
		C749.199,434.474,754.422,438.948,754.422,438.948z"/>
	<circle fill="#ABDCF2" cx="661.306" cy="468.08" r="13.039"/>
	<circle fill="#ABDCF2" cx="758.64" cy="474.775" r="13.039"/>
</g>
<g>
	<path fill="#81CFF5" d="M820.968,533.923c-16.679-2.027-28.647-16.86-26.678-33.066c1.969-16.207,17.141-27.742,33.82-25.716
		s28.646,16.86,26.678,33.066S837.647,535.949,820.968,533.923z M827.773,477.915c-15.149-1.841-28.926,8.602-30.709,23.278
		c-1.783,14.676,9.092,28.113,24.241,29.954s28.925-8.602,30.708-23.278C853.797,493.193,842.923,479.756,827.773,477.915z"/>
	<path fill="#81CFF5" d="M909.039,544.623c-16.68-2.026-28.647-16.86-26.679-33.066s17.141-27.742,33.82-25.716
		c16.68,2.027,28.647,16.86,26.679,33.066C940.89,535.114,925.718,546.649,909.039,544.623z M915.844,488.616
		c-15.149-1.841-28.926,8.602-30.709,23.277c-1.783,14.677,9.092,28.114,24.241,29.955c15.149,1.84,28.925-8.602,30.708-23.278
		C941.867,503.895,930.993,490.457,915.844,488.616z"/>
	<path fill="#81CFF5" d="M822.266,506.227c-0.667-0.081-1.275-0.504-1.561-1.166c-0.427-0.985,0.021-2.129,1-2.564
		c0.148-0.07,7.131-3.494,14.07-19.023c2.477-5.541,4.746-10.749,6.746-15.481c1.533-3.629,2.59-6.228,3.209-7.774
		c-3.55-1.528-8.323-2.902-10.385-2.006c-0.458,0.199-0.704,0.48-0.848,0.971c-0.838,2.85-0.62,5.472,0.571,6.844
		c0.706,0.812,1.712,1.131,2.987,0.943c1.071-0.158,2.063,0.584,2.22,1.653s-0.584,2.062-1.653,2.22
		c-2.605,0.381-4.918-0.418-6.509-2.251c-2.118-2.44-2.619-6.272-1.371-10.514c0.471-1.6,1.523-2.795,3.044-3.456
		c2.244-0.975,5.555-0.764,9.838,0.631c2.979,0.971,5.379,2.167,5.479,2.218l1.584,0.794l-0.634,1.655
		c-0.051,0.131-1.259,3.274-3.929,9.597c-2.011,4.755-4.291,9.988-6.777,15.554c-7.699,17.227-15.732,20.863-16.071,21.01
		C822.947,506.223,822.6,506.268,822.266,506.227z"/>
	<path fill="#81CFF5" d="M876.149,517.586l-35.279-43.051c-0.685-0.835-0.562-2.068,0.273-2.753
		c0.835-0.686,2.068-0.562,2.754,0.273l34.121,41.637l31.517,0.343l-16.326-38.215l-49.089-5.121
		c-0.011-0.001-0.022-0.002-0.033-0.003c-1.058-0.129-1.82-1.082-1.71-2.146c0.112-1.075,1.074-1.855,2.149-1.743l51.377,5.359
		l19.588,45.846L876.149,517.586z"/>
	
		<rect x="884.422" y="472.235" transform="matrix(0.9222 0.3867 -0.3867 0.9222 260.2556 -304.0511)" fill="#81CFF5" width="2.796" height="45.162"/>
	<path fill="#81CFF5" d="M859.575,527.23c-0.126,2.04,21.251,0.622,21.251,0.622s1.562-28.989,4.719-38.84
		c3.156-9.852,14.053-22.464,14.776-30.215c0.725-7.751-14.859-31.846-20.916-41.638c-3.131-5.061-12.941-5.515-16.269,1.482
		c-3.149,6.621-6.109,16.463-9.171,20.37c-5.077,6.479-12.07,11.38-12.07,11.38s1.677,4.123,5.455,3.493
		c3.778-0.629,10.643-6.939,14.214-13.038c3.572-6.099,6.361-9.561,6.361-9.561s5.596,22.11,7.733,27.814l6.356-2.028
		c0,0-6.58,23.742-7.499,29.511c-0.918,5.768-0.106,33.085-0.106,33.085S859.701,525.19,859.575,527.23z"/>
	<path fill="#81CFF5" d="M845.254,452.049c0,0-8.292-5.856-8.872-1.078c-0.581,4.778-1.08,9.508,3.386,9.18l4.467-0.328
		C845.559,457.414,837.979,456.986,845.254,452.049z"/>
	<path fill="#81CFF5" d="M851.202,507.708c0.3,1.774,20.074-2.604,20.074-2.604s-7.466-27.728-2.851-33.379
		c4.615-5.652,21.955-2.846,21.955-2.846l-3.371-13.911c0,0-29.035,4.021-30.981,12.528c-1.945,8.507,5.119,31.774,5.119,31.774
		S850.902,505.934,851.202,507.708z"/>
	
		<rect x="857.892" y="508.767" transform="matrix(0.9997 0.0244 -0.0244 0.9997 12.687 -20.8544)" fill="#81CFF5" width="9.061" height="3.222"/>
	
		<rect x="869.428" y="529.422" transform="matrix(0.9997 0.0244 -0.0244 0.9997 13.1935 -21.1292)" fill="#81CFF5" width="9.061" height="3.222"/>
	<path fill="#81CFF5" d="M875.118,420.161c-1.137,9.358-0.837,0.589-12.809-3.722c-3.289-1.185-5.607-4.017-6.82-11.456
		c-0.228-1.394-3.002-0.472-3.143-2.155c-0.208-2.485,5.363-6.969,6.876-8.419c0.839-0.805-1.502-2.979-0.463-3.408
		c5.426-2.245,9.139-3.186,10.852-2.993c10.009,1.122,10.633,6.428,6.828,16.183C873.929,410.629,875.567,416.462,875.118,420.161z"
		/>
</g>
<polygon fill="#ABDCF2" points="5.309,46.497 414.213,70.01 341.23,28.736 27.808,0 "/>
<g>
	<rect x="1207.176" y="411.987" fill="#E4F3FB" width="10.719" height="22.288"/>
	<rect x="1222.476" y="411.987" fill="#E4F3FB" width="10.719" height="22.288"/>
	<rect x="1207.531" y="441.864" fill="#E4F3FB" width="10.719" height="22.288"/>
	<rect x="1222.831" y="441.864" fill="#E4F3FB" width="10.719" height="22.288"/>
	<rect x="1207.887" y="470.181" fill="#E4F3FB" width="10.72" height="22.288"/>
	<rect x="1223.187" y="470.181" fill="#E4F3FB" width="10.719" height="22.288"/>
</g>
<g>
	<rect x="1236.931" y="411.539" fill="#E4F3FB" width="10.719" height="22.289"/>
	<rect x="1252.23" y="411.539" fill="#E4F3FB" width="10.719" height="22.289"/>
	<rect x="1237.287" y="441.416" fill="#E4F3FB" width="10.719" height="22.289"/>
	<rect x="1252.586" y="441.416" fill="#E4F3FB" width="10.72" height="22.289"/>
	<rect x="1237.643" y="469.732" fill="#E4F3FB" width="10.719" height="22.289"/>
	<rect x="1252.942" y="469.732" fill="#E4F3FB" width="10.719" height="22.289"/>
</g>
<g>
	<rect x="1205.663" y="322.876" fill="#E4F3FB" width="10.719" height="22.288"/>
	<rect x="1220.962" y="322.876" fill="#E4F3FB" width="10.719" height="22.288"/>
	<rect x="1206.019" y="352.753" fill="#E4F3FB" width="10.719" height="22.288"/>
	<rect x="1221.318" y="352.753" fill="#E4F3FB" width="10.719" height="22.288"/>
	<rect x="1206.374" y="381.069" fill="#E4F3FB" width="10.719" height="22.288"/>
	<rect x="1221.674" y="381.069" fill="#E4F3FB" width="10.719" height="22.288"/>
</g>
<g>
	<rect x="1235.418" y="322.428" fill="#E4F3FB" width="10.719" height="22.288"/>
	<rect x="1250.718" y="322.428" fill="#E4F3FB" width="10.719" height="22.288"/>
	<rect x="1235.774" y="352.305" fill="#E4F3FB" width="10.719" height="22.288"/>
	<rect x="1251.073" y="352.305" fill="#E4F3FB" width="10.719" height="22.288"/>
	<rect x="1236.13" y="380.621" fill="#E4F3FB" width="10.719" height="22.288"/>
	<rect x="1251.43" y="380.621" fill="#E4F3FB" width="10.719" height="22.288"/>
</g>
<g>
	<rect x="1204.15" y="237.469" fill="#E4F3FB" width="10.719" height="22.288"/>
	<rect x="1219.449" y="237.469" fill="#E4F3FB" width="10.72" height="22.288"/>
	<rect x="1204.506" y="267.346" fill="#E4F3FB" width="10.719" height="22.288"/>
	<rect x="1219.806" y="267.346" fill="#E4F3FB" width="10.719" height="22.288"/>
	<rect x="1204.861" y="295.662" fill="#E4F3FB" width="10.719" height="22.289"/>
	<rect x="1220.161" y="295.662" fill="#E4F3FB" width="10.719" height="22.289"/>
</g>
<g>
	<rect x="1233.905" y="237.021" fill="#E4F3FB" width="10.719" height="22.288"/>
	<rect x="1249.205" y="237.021" fill="#E4F3FB" width="10.719" height="22.288"/>
	<rect x="1234.262" y="266.897" fill="#E4F3FB" width="10.719" height="22.289"/>
	<rect x="1249.561" y="266.897" fill="#E4F3FB" width="10.72" height="22.289"/>
	<rect x="1234.617" y="295.215" fill="#E4F3FB" width="10.719" height="22.288"/>
	<rect x="1249.917" y="295.215" fill="#E4F3FB" width="10.719" height="22.288"/>
</g>
<g>
	<rect x="1129.956" y="394.404" fill="#E4F3FB" width="10.719" height="22.288"/>
	<rect x="1145.255" y="394.404" fill="#E4F3FB" width="10.72" height="22.288"/>
	<rect x="1130.312" y="424.281" fill="#E4F3FB" width="10.719" height="22.288"/>
	<rect x="1145.611" y="424.281" fill="#E4F3FB" width="10.719" height="22.288"/>
	<rect x="1130.667" y="452.598" fill="#E4F3FB" width="10.72" height="22.288"/>
	<rect x="1145.967" y="452.598" fill="#E4F3FB" width="10.719" height="22.288"/>
	<rect x="1159.711" y="393.956" fill="#E4F3FB" width="10.72" height="22.289"/>
	<rect x="1160.067" y="423.833" fill="#E4F3FB" width="10.719" height="22.289"/>
	<rect x="1160.423" y="452.15" fill="#E4F3FB" width="10.719" height="22.288"/>
	<rect x="1129.154" y="363.486" fill="#E4F3FB" width="10.72" height="22.288"/>
	<rect x="1144.454" y="363.486" fill="#E4F3FB" width="10.719" height="22.288"/>
	<rect x="1158.91" y="363.038" fill="#E4F3FB" width="10.719" height="22.289"/>
</g>
<g>
	<polygon fill="#81CFF5" points="1081.568,446.247 1080.755,577.472 1091.255,578.971 1087.317,445.798 	"/>
	<polygon fill="#ABDCF2" points="1065.445,383.093 1092.955,380.311 1090.787,452.733 1066.668,450.973 	"/>
	<polygon fill="#81CFF5" points="1090.787,452.733 1102.539,447.161 1105.676,388.016 1092.486,380.299 	"/>
	<g>
		<path fill="#81CFF5" d="M1070.936,435.812c0.115-4.895,2.6-8.917,5.8-9.79c-0.126-0.014-0.25-0.035-0.378-0.038
			c-3.86-0.1-7.097,4.363-7.229,9.966c-0.131,5.604,2.893,10.228,6.752,10.326c0.489,0.014,0.967-0.048,1.43-0.175
			C1073.634,445.719,1070.809,441.23,1070.936,435.812z"/>
		<path fill="#81CFF5" d="M1076.424,423.165c0.456,0.013,0.899-0.057,1.33-0.186c-3.092-0.434-5.445-4.253-5.338-8.845
			c0.098-4.165,2.188-7.59,4.895-8.396c-0.157-0.022-0.315-0.043-0.477-0.047c-3.325-0.086-6.111,3.756-6.225,8.581
			S1073.1,423.079,1076.424,423.165z"/>
		<path fill="#81CFF5" d="M1076.878,402.414c0.439,0.011,0.866-0.062,1.28-0.19c-2.8-0.458-4.918-3.945-4.819-8.124
			c0.089-3.797,1.982-6.925,4.442-7.699c-0.174-0.028-0.349-0.047-0.526-0.053c-3.057-0.078-5.618,3.455-5.724,7.891
			C1071.428,398.675,1073.821,402.334,1076.878,402.414z"/>
		<path fill="#AACC5D" d="M1083.111,436.311c0.126-5.419-2.699-9.908-6.376-10.289c-3.2,0.873-5.685,4.896-5.8,9.79
			c-0.127,5.419,2.698,9.907,6.375,10.289C1080.512,445.228,1082.995,441.205,1083.111,436.311z"/>
		<path fill="#FCC558" d="M1072.416,414.135c-0.107,4.592,2.246,8.411,5.338,8.845c2.707-0.808,4.797-4.232,4.895-8.396
			c0.107-4.592-2.246-8.411-5.338-8.845C1074.604,406.545,1072.514,409.97,1072.416,414.135z"/>
		<path fill="#A12C2C" d="M1073.339,394.1c-0.099,4.179,2.02,7.666,4.819,8.124c2.46-0.774,4.354-3.902,4.441-7.7
			c0.099-4.178-2.019-7.664-4.818-8.123C1075.321,387.175,1073.428,390.303,1073.339,394.1z"/>
	</g>
</g>
<g>
</g>
<g>
</g>
<g>
</g>
<g>
</g>
<g>
</g>
<g>
</g>
</svg>
