<?xml version="1.0" encoding="utf-8"?>
<!-- Generator: Adobe Illustrator 16.0.4, SVG Export Plug-In . SVG Version: 6.00 Build 0)  -->
<!DOCTYPE svg PUBLIC "-//W3C//DTD SVG 1.1//EN" "http://www.w3.org/Graphics/SVG/1.1/DTD/svg11.dtd">
<svg version="1.1" id="Layer_1" xmlns="http://www.w3.org/2000/svg" xmlns:xlink="http://www.w3.org/1999/xlink" x="0px" y="0px"
	 width="1310.729px" height="763.95px" viewBox="0 0 1310.729 763.95" enable-background="new 0 0 1310.729 763.95"
	 xml:space="preserve">
<polygon fill="#ABDCF2" points="91.146,205.86 91.733,521.469 262.801,481.334 277.254,205.349 "/>
<polygon fill="#81CFF5" points="180.305,191.849 194.67,191.849 206.541,505.249 197.638,505.249 "/>
<path fill="#56ADD8" d="M179.305,619.43c6.943,1.391,259.479-81.568,259.479-81.568l870.967,117.443l-2.712,107.432l-780.979-33.201
	L179.305,619.43z"/>
<polygon fill="#56ADD8" points="179.305,615.209 179.305,587.668 443.115,511.225 439.229,533.247 "/>
<path fill="#56ADD8" d="M52.877,534.762l122.146,49.633l268.093-76.4l-174.853-22.062c0,0-208.122,53.707-216.456,49.541"/>
<path fill="#0F8CCD" d="M282.816,416.317c0,0-1.715-46.696-3.529-53.381c-1.819-6.685,23.163-7.938,26.795-2.927
	c2.257,3.111,0.87,42.498,1.782,46.468"/>
<path fill="#FFFFFF" d="M389.477,403.042c0,0-15.463-4.781-15.759-6.945c0,0,4.177,0.928,5.617-0.54
	c1.438-1.466,0.518-2.532,0.518-2.532s-2.107,0.926-5.207,0.402c-5.321-0.899-7.815,0.746-12.211,2.688
	c0,0-33.857-17.486-49.549-31.675c-1.204,1.71-2.912,4.568-4.362,6.061c8.582,9.309,51.792,30.455,51.792,30.455l3.224,5.012
	c0,0,1.585,1.484,8.633,5.547c2.012,1.158,6.411,5.525,6.908,5.979c1.016,0.918,1.4-0.191,1.161-0.781
	c-0.843-2.062-5.223-5.693-5.764-6.576c-0.479-0.779,0.719-0.985,0.719-0.985l8.951,6.22c0,0,2.369,0.699,1.779-0.676
	c-0.591-1.376-8.808-7.223-8.808-7.223s-0.556-2.03,3.945-0.119c1.943,0.826,7.434,3.223,8.159,3.518
	c0.37,0.15,1.62-1.838,0.176-2.504c-1.047-0.486-8.823-3.66-9.704-4.539c-1.188-1.185,0.328-1.469,0.328-1.469
	s8.598,2.715,8.983,2.704C391.312,404.995,389.477,403.042,389.477,403.042z"/>
<path fill="#0F8CCD" d="M303.49,371.827l6.543,6.415l7.556-11.556c0,0-9.822-7.445-14.099-8.393
	C293.161,356.005,303.49,371.827,303.49,371.827z"/>
<path fill="#100805" d="M250.906,309.145c0,18.886,28.24,34.427,40.337,34.427c22.274,0,40.333-15.411,40.333-34.427
	c0-19.009-18.059-34.42-40.333-34.42C268.963,274.725,250.906,290.136,250.906,309.145"/>
<path fill="#100805" d="M247.751,273.018c0,9.295,8.828,16.827,19.718,16.827c10.893,0,19.721-7.532,19.721-16.827
	c0-9.293-8.828-16.827-19.721-16.827C256.579,256.19,247.751,263.725,247.751,273.018"/>
<path fill="#C5843C" d="M279.716,310.087c-0.033,0.038-0.063,0.069-0.086,0.093C279.652,310.156,279.686,310.123,279.716,310.087"/>
<path fill="#C5843C" d="M282.786,306.821c0.058-0.062,0.104-0.109,0.138-0.146C282.895,306.71,282.848,306.757,282.786,306.821"/>
<path fill="#FFFFFF" d="M269.462,317.916c0.998,0.037,2.078,0.354,3.015,0.875c0.311,0.076,0.621,0.168,0.937,0.294
	c0.653,0.263,1.241,0.688,1.825,1.06c0.125,0.079,0.263,0.149,0.393,0.227c-0.009-0.035-0.022-0.062-0.028-0.098
	c-0.485-2.57,0.268-5.101,0.228-7.69c-0.054-3.383,0.149-6.438,1.153-9.71c1.891-6.162,9.291-6.963,15.262-7.72
	c7.529-0.952,15.496-0.691,22.986,0.427c2.565,0.382,4.097,1.63,5.066,3.298c-0.281,0.458-0.457,1.003-0.441,1.664
	c0.162,7.145,2.375,13.845,6.388,19.739c2.233,3.892,4.894,7.739,4.688,12.033c-0.308,6.36-25.962,11.215-31.021,12.878
	c-5.934,1.953,3.52,19.47-8.459,15.192c-1.954-0.696,1.488-15.738,0.197-16.134c-2.539-0.328-15.705-11.273-17.748-12.62
	c-2.676-1.477-5.801-3.125-7.446-5.583c-0.015-0.018-0.028-0.031-0.043-0.049c-0.354-0.455-0.58-0.925-0.703-1.395
	c-0.189-0.516-0.323-1.062-0.375-1.645C265.156,320.99,267.021,317.834,269.462,317.916"/>
<path fill="#C5843C" d="M282.923,306.678C282.992,306.602,282.988,306.609,282.923,306.678"/>
<path fill="#C5843C" d="M279.63,310.18C279.556,310.259,279.562,310.253,279.63,310.18"/>
<path fill="#FFFFFF" d="M288.712,317.621c0.256-0.099,0.53-0.187,0.81-0.266c0.136-0.344,0.396-0.668,0.821-0.934
	c3.431-2.124,9.116-0.982,12.11,1.33c3.702,2.862,1.006,6.704-2.371,8.292c-3.339,1.574-8.405,1.848-11.771,0.23
	C284.456,324.421,284.62,319.188,288.712,317.621"/>
<path fill="#FFFFFF" d="M311.865,317.588c2.8-2.744,12.597-2.826,12.663,2.121c0.063,4.546-7.582,6.047-11.123,3.987
	c-1.318-0.772-1.917-1.954-1.782-3.196C311.012,319.665,310.903,318.532,311.865,317.588"/>
<path fill="none" stroke="#020203" stroke-width="0.993" stroke-miterlimit="10" d="M314.143,320.173c0,1.734,0.9,3.134,2.009,3.134
	c1.11,0,2.009-1.399,2.009-3.134c0-1.73-0.897-3.135-2.009-3.135C315.043,317.038,314.143,318.442,314.143,320.173z"/>
<path fill="none" stroke="#020203" stroke-width="0.993" stroke-miterlimit="10" d="M289.238,321.814
	c0,1.735,0.898,3.137,2.01,3.137c1.108,0,2.011-1.401,2.011-3.137c0-1.729-0.901-3.135-2.011-3.135
	C290.137,318.68,289.238,320.085,289.238,321.814z"/>
<path fill="#020203" d="M311.755,333.684c-3.637,0.031-7.725,0.735-11.214-0.53c-0.55-0.199-0.782,0.673-0.24,0.869
	c3.583,1.299,7.729,0.595,11.454,0.563C312.336,334.579,312.337,333.679,311.755,333.684"/>
<path fill="#100805" d="M312.187,334.359c0.636-0.721,2.368-2.39,1.746-3.537c-0.54-0.997-2.112-0.646-2.998-0.499
	c-2.009,0.335-3.97,0.983-5.935,1.496c-0.573,0.148-4.746,1.334-4.435,0.092c0.142-0.564-0.729-0.804-0.869-0.24
	c-0.744,2.969,4.702,1.236,5.862,0.935c1.867-0.486,3.715-1.062,5.614-1.412c0.457-0.085,1.5-0.34,1.927-0.004
	c0.458,0.359-1.392,2.351-1.554,2.533C311.165,334.157,311.802,334.796,312.187,334.359"/>
<path fill="#100805" d="M308.915,335.7c0.98,2.026-1.442,1.837-2.735,1.511c-1.595-0.405-3.465-1.438-3.925-3.13
	c-0.151-0.561-1.022-0.322-0.868,0.24c0.639,2.354,3.409,3.737,5.676,3.975c2.117,0.223,3.689-0.868,2.633-3.051
	C309.441,334.722,308.663,335.179,308.915,335.7"/>
<path fill="#A42523" d="M303.512,315.872c0.61,4.843-0.036,10.596-5.406,12.075c-2.171,0.598-4.533,0.524-6.761,0.436
	c-2.147-0.086-4.644-0.186-5.985-2.122c-1.022-1.474-1.084-3.653-1.194-5.373c-0.153-2.377,0.592-3.837,2.937-4.586
	c5.312-1.694,12.109-1.311,17.302,0.531c1.319,0.468,1.881-1.626,0.575-2.09c-3.534-1.253-7.226-1.618-10.958-1.528
	c-3.145,0.075-7.117,0.288-9.826,2.054c-3.61,2.353-2.521,9.47-0.438,12.47c1.337,1.928,3.688,2.462,5.874,2.71
	c2.978,0.338,6.129,0.245,9.053-0.411c6.429-1.444,7.715-8.478,6.997-14.165C305.505,314.506,303.337,314.488,303.512,315.872"/>
<path fill="#A42523" d="M283.281,317.848c-3.649-0.966-7.305-1.929-10.944-2.933c-1.351-0.371-1.921,1.719-0.576,2.09
	c3.642,1.003,7.293,1.966,10.945,2.933C284.057,320.295,284.631,318.205,283.281,317.848"/>
<path fill="#A42523" d="M325.063,310.141c-2.79,0.234-5.572,0.51-8.339,0.949c-2.646,0.421-5.756,0.941-7.844,2.764
	c-1.054,0.92,0.484,2.445,1.532,1.531c1.748-1.523,4.692-1.831,6.888-2.206c2.567-0.438,5.17-0.653,7.763-0.872
	C326.445,312.19,326.456,310.023,325.063,310.141"/>
<path fill="#A42523" d="M324.298,311.99c2.339,2.417,3.271,9.17,0.739,11.749c-2.606,2.654-9.062,3.014-12.296,1.698l0.757,0.757
	c-0.978-2.953-1.86-5.96-2.449-9.018c-0.197-1.025-0.146-2.91-1.592-3.12c-1.737-0.252-3.241,0.593-4.937,0.813
	c-1.367,0.177-1.384,2.346,0,2.166c1.049-0.136,2.039-0.411,3.057-0.696c1.502-0.422,1.281,0.891,1.49,1.976
	c0.442,2.298,1.125,4.557,1.812,6.79c0.38,1.239,0.457,2.084,1.725,2.6c2.018,0.82,4.521,0.623,6.619,0.35
	c3.702-0.48,7.676-1.688,8.881-5.558c1.145-3.676,0.477-9.197-2.275-12.04C324.857,309.452,323.325,310.985,324.298,311.99"/>
<path fill="#100805" d="M293.225,307.518c-2.021,0.55-4.098,0.869-6.085,1.542c-0.547,0.186-0.312,1.057,0.24,0.869
	c1.987-0.673,4.062-0.991,6.085-1.542C294.025,308.234,293.787,307.364,293.225,307.518"/>
<path fill="#100805" d="M320.644,308.043c-0.478-0.47-1.563-0.459-2.173-0.551c-1.167-0.178-2.353-0.296-3.508-0.544
	c-0.566-0.122-0.808,0.747-0.239,0.869c0.912,0.196,1.844,0.304,2.767,0.435c0.543,0.078,2.205,0.122,2.515,0.428
	C320.418,309.089,321.058,308.451,320.644,308.043"/>
<path fill="#FFFFFF" d="M284.271,422.614c0,0,4.851,2.312,9.64,4.502c0,0-8.423,34.303-10.552,42.541
	c-2.037-0.314-4.069-0.648-6.104-1.008C280.112,449.944,284.271,422.614,284.271,422.614"/>
<path fill="#100805" d="M278.228,462.278c2.038,0.344,5.313,1.666,7.354,1.963c-1.352,5.191-4.617,16.789-4.807,23.371
	c-0.357,12.193-9.711,42.877-9.711,42.877s-27.609,15.994-30.604,9.348c-2.99-6.641,26.607-10.545,27.063-13.02
	c3.695-20.041,4.604-27.695,6.798-39.725c0.104-0.592,1.329-8.184,2.912-18.049"/>
<path fill="#FFFFFF" d="M296.818,422.911c4.871-1.4,9.819-2.91,9.819-2.91s0.503,26.072,0.807,43.529
	c-1.723,0.273-3.441,0.504-5.165,0.711c-0.627-8.104-2.178-14.66-2.682-18.713L296.818,422.911z"/>
<path fill="#100805" d="M307.49,405.979c0,0-12.583,6.462-25.126-0.518c-1.101-0.611-7.378,35.275-7.378,35.275
	c18.766,8.77,38.334-1.432,38.334-1.432L307.49,405.979z"/>
<path fill="#FFFFFF" d="M308.158,316.956c-0.479,3.446,0.11,4.24,1.067,7.491c1.438-0.192,2.8-0.258,3.756-1.024
	c3.414,6.281-2.188,5.592-4.823,5.4"/>
<path fill="#020304" d="M307.705,316.956c-0.339,2.809,0.278,4.944,1.085,7.611c0.054,0.175,0.236,0.357,0.437,0.333
	c1.164-0.146,2.275-0.262,3.367-0.712c0.952-0.395,1.076,3.052,0.562,3.625c-1.028,1.147-3.646,0.659-4.996,0.558
	c-0.583-0.045-0.578,0.861,0,0.904c1.749,0.133,3.737,0.389,5.313-0.562c1.979-1.197,0.662-4.033-0.101-5.52
	c-0.106-0.213-0.42-0.29-0.618-0.162c-0.943,0.605-1.716,0.728-2.816,0.873c-0.689,0.091-0.951-1.764-1.082-2.199
	c-0.48-1.59-0.44-3.121-0.244-4.75C308.682,316.377,307.775,316.384,307.705,316.956"/>
<path fill="#FFFFFF" d="M277.601,271.415c2.045-0.792,3.807-2.455,3.627-4.809c-0.185-2.466-2.961-2.602-4.792-2.176
	c0.085,0.307,0.169,0.613,0.254,0.92c3.796-1.44,2.75-4.564-0.36-6.146c-3.932-1.999-7.875-0.263-8.43,4.17h0.955
	c-0.322-4.833-8.123-4.065-6.396,0.732c0.207,0.574,1.129,0.327,0.92-0.254c-1.268-3.521,4.293-3.904,4.521-0.479
	c0.043,0.627,0.881,0.601,0.955,0c0.425-3.406,3.003-4.644,6.122-3.695c2.447,0.745,5.003,3.406,1.459,4.751
	c-0.565,0.215-0.354,1.062,0.254,0.92c4.732-1.101,4.142,3.795,0.657,5.145C276.779,270.715,277.026,271.638,277.601,271.415"/>
<path fill="#FFFFFF" d="M268.409,273.113c1.211-1.336,1.81-3.668-0.41-4.414c-2.513-0.846-4.104,1.164-4.347,3.469h0.955
	c-0.412-3.611-3.347-5.286-6.753-4.116c-3.041,1.046-3.698,3.948-0.938,5.741c0.123-0.291,0.246-0.582,0.368-0.872
	c-2.251-0.866-5.674-0.204-5.14,2.965c0.729,4.307,4.83,4.273,8.347,4.645c0.61,0.062,0.604-0.891,0-0.955
	c-1.597-0.168-3.191-0.196-4.748-0.63c-1.8-0.502-2.906-2.28-2.597-4.11c0.33-1.943,2.703-1.446,3.883-0.993
	c0.527,0.203,0.801-0.591,0.367-0.873c-2.354-1.528-1.152-3.354,1.033-4.105c2.649-0.91,4.91,0.555,5.222,3.307
	c0.069,0.611,0.891,0.616,0.955,0c0.442-4.198,5.688-2.555,3.127,0.27C267.323,272.893,267.995,273.569,268.409,273.113"/>
<path fill="#FFFFFF" d="M262.554,297.227c-1.979-0.911-4.696-0.888-5.997,1.195c-1.259,2.017-0.161,3.69,1.99,4.226
	c0.085-0.307,0.169-0.613,0.254-0.92c-4.105-0.733-8.769,4.146-3.285,6.074c0.296,0.104,0.604-0.166,0.604-0.46v-0.302
	c0-0.325-0.304-0.524-0.604-0.461c-4.749,1.006-1.791,6.65,0.796,8.452c0.507,0.353,0.982-0.475,0.48-0.824
	c-1.875-1.307-4.848-5.898-1.022-6.708c-0.201-0.153-0.401-0.307-0.604-0.459v0.302c0.203-0.153,0.403-0.307,0.604-0.46
	c-4.382-1.542,0.159-4.701,2.777-4.234c0.596,0.106,0.858-0.77,0.254-0.92c-1.669-0.415-2.4-1.608-1.234-3.05
	c1.116-1.379,3.049-1.298,4.506-0.627C262.626,298.307,263.113,297.483,262.554,297.227"/>
<path fill="#FFFFFF" d="M309.951,289.184c5.562-4.674-4.392-7.78-7.95-4.314c0.265,0.155,0.53,0.311,0.798,0.465
	c0.99-4.988-6.553-8.477-9.363-4.006c0.291,0.122,0.582,0.244,0.873,0.367c0.678-3.356-3.107-5.621-5.65-3.193
	c-0.445,0.426,0.23,1.1,0.676,0.676c1.812-1.731,4.556-0.208,4.056,2.264c-0.105,0.526,0.576,0.838,0.873,0.367
	c2.222-3.537,8.396-0.656,7.616,3.271c-0.092,0.458,0.438,0.813,0.798,0.466c2.654-2.587,11.047-0.772,6.601,2.963
	C308.807,288.904,309.483,289.576,309.951,289.184"/>
<path fill="#FFFFFF" d="M288.85,289.579c0.484-1.262,0.586-2.73,0.622-4.069c0.007-0.23-0.153-0.379-0.351-0.46
	c-1.998-0.835-3.763-0.588-5.521,0.655c-0.497,0.353-0.03,1.174,0.479,0.824c4.256-2.91-2.859-6.172-5.634-4.16
	c-0.493,0.357-0.019,1.187,0.479,0.824c1.793-1.3,7.532,0.555,4.674,2.512c0.16,0.275,0.32,0.549,0.479,0.824
	c0.424-0.299,4.468-2.107,4.425-0.527c-0.031,1.107-0.177,2.286-0.575,3.323C287.707,289.9,288.632,290.147,288.85,289.579"/>
<g>
	<path fill="#1E1E1C" d="M214.735,396.217c0,0,3.212,22.875,1.433,37.217c0,0,7.889,1.936,7.717-8.99
		C223.716,413.799,214.735,396.217,214.735,396.217"/>
	<path fill="#3E67B0" d="M210.85,433.856c0,0,6.569-21.085-6.892-43.596l5.959-1.004c0,0,6.746,6.533,9.662,23.824
		c2.92,17.293-3.414,20.352-3.414,20.352L210.85,433.856z"/>
	<path fill="#FFFFFF" d="M208.221,436.799c5.547-1.402,7.815-13.369,5.067-26.729c-2.746-13.36-9.472-23.052-15.02-21.649
		c-5.55,1.404-13.221,15.203-10.474,28.562C190.542,430.344,202.672,438.2,208.221,436.799"/>
</g>
<path fill="#FFFFFF" d="M270.051,372.471c-8.432,6.994-24.299,18.669-42.45,24.587c-3.938,1.284-11.625-5.249-15.375-3.374
	c-3.748,1.875-9.375,4.875-9.375,4.875s-1.498,5.249,2.627,3.749c4.125-1.499,6.565-4.261,6.565-4.261l5.837,5.049
	c0,0,1.9,5,2.522,4.732c26.873-11.553,47.356-24.192,57.608-31.16C275.111,376.144,272.44,374.581,270.051,372.471z"/>
<path fill="#0F8CCD" d="M277.521,380.827c0,0,5.521-5.258,6.529-8c1.85-5.023-1.875-10.079-2.591-13.278
	c0,0-12.158,10.199-12.819,10.273"/>
<path fill="#100805" d="M307.659,479.887c-0.425,8.408-0.889,20.77-0.391,39.322c0.059,2.287,29.38,2.98,25.535,8.596
	c-3.844,5.609-29.45-5.738-29.45-5.738s-3.643-22.479-1.371-40.826c0.711-5.75-0.37-13.117-0.745-17.963
	c1.722-0.207,5.028,0.258,6.751-0.018C308.135,471.67,307.688,479.35,307.659,479.887"/>
</svg>
