<?xml version="1.0" encoding="utf-8"?>
<!-- Generator: Adobe Illustrator 16.0.4, SVG Export Plug-In . SVG Version: 6.00 Build 0)  -->
<!DOCTYPE svg PUBLIC "-//W3C//DTD SVG 1.1//EN" "http://www.w3.org/Graphics/SVG/1.1/DTD/svg11.dtd">
<svg version="1.1" id="Layer_1" xmlns="http://www.w3.org/2000/svg" xmlns:xlink="http://www.w3.org/1999/xlink" x="0px" y="0px"
	 width="1310.729px" height="763.95px" viewBox="0 0 1310.729 763.95" enable-background="new 0 0 1310.729 763.95"
	 xml:space="preserve">
<polygon fill="#81CFF5" points="8.999,46.211 0,716.678 1306.229,763.95 1310.729,585.608 397.019,486.224 396.423,111.418 
	413.403,71.224 49.497,22.213 "/>
<g>
	<path fill="#81CFF5" d="M820.968,533.923c-16.679-2.027-28.647-16.86-26.678-33.066c1.969-16.207,17.141-27.742,33.82-25.716
		s28.646,16.86,26.678,33.066S837.647,535.949,820.968,533.923z M827.773,477.915c-15.149-1.841-28.926,8.602-30.709,23.278
		c-1.783,14.676,9.092,28.113,24.241,29.954s28.925-8.602,30.708-23.278C853.797,493.193,842.923,479.756,827.773,477.915z"/>
	<path fill="#81CFF5" d="M909.039,544.623c-16.68-2.026-28.647-16.86-26.679-33.066s17.141-27.742,33.82-25.716
		c16.68,2.027,28.647,16.86,26.679,33.066C940.89,535.114,925.718,546.649,909.039,544.623z M915.844,488.616
		c-15.149-1.841-28.926,8.602-30.709,23.277c-1.783,14.677,9.092,28.114,24.241,29.955c15.149,1.84,28.925-8.602,30.708-23.278
		C941.867,503.895,930.993,490.457,915.844,488.616z"/>
	<path fill="#81CFF5" d="M822.266,506.227c-0.667-0.081-1.275-0.504-1.561-1.166c-0.427-0.985,0.021-2.129,1-2.564
		c0.148-0.07,7.131-3.494,14.07-19.023c2.477-5.541,4.746-10.749,6.746-15.481c1.533-3.629,2.59-6.228,3.209-7.774
		c-3.55-1.528-8.323-2.902-10.385-2.006c-0.458,0.199-0.704,0.48-0.848,0.971c-0.838,2.85-0.62,5.472,0.571,6.844
		c0.706,0.812,1.712,1.131,2.987,0.943c1.071-0.158,2.063,0.584,2.22,1.653s-0.584,2.062-1.653,2.22
		c-2.605,0.381-4.918-0.418-6.509-2.251c-2.118-2.44-2.619-6.272-1.371-10.514c0.471-1.6,1.523-2.795,3.044-3.456
		c2.244-0.975,5.555-0.764,9.838,0.631c2.979,0.971,5.379,2.167,5.479,2.218l1.584,0.794l-0.634,1.655
		c-0.051,0.131-1.259,3.274-3.929,9.597c-2.011,4.755-4.291,9.988-6.777,15.554c-7.699,17.227-15.732,20.863-16.071,21.01
		C822.947,506.223,822.6,506.268,822.266,506.227z"/>
	<path fill="#81CFF5" d="M876.149,517.586l-35.279-43.051c-0.685-0.835-0.562-2.068,0.273-2.753
		c0.835-0.686,2.068-0.562,2.754,0.273l34.121,41.637l31.517,0.343l-16.326-38.215l-49.089-5.121
		c-0.011-0.001-0.022-0.002-0.033-0.003c-1.058-0.129-1.82-1.082-1.71-2.146c0.112-1.075,1.074-1.855,2.149-1.743l51.377,5.359
		l19.588,45.846L876.149,517.586z"/>
	
		<rect x="884.422" y="472.235" transform="matrix(0.9222 0.3867 -0.3867 0.9222 260.2556 -304.0511)" fill="#81CFF5" width="2.796" height="45.162"/>
	<path fill="#81CFF5" d="M859.575,527.23c-0.126,2.04,21.251,0.622,21.251,0.622s1.562-28.989,4.719-38.84
		c3.156-9.852,14.053-22.464,14.776-30.215c0.725-7.751-14.859-31.846-20.916-41.638c-3.131-5.061-12.941-5.515-16.269,1.482
		c-3.149,6.621-6.109,16.463-9.171,20.37c-5.077,6.479-12.07,11.38-12.07,11.38s1.677,4.123,5.455,3.493
		c3.778-0.629,10.643-6.939,14.214-13.038c3.572-6.099,6.361-9.561,6.361-9.561s5.596,22.11,7.733,27.814l6.356-2.028
		c0,0-6.58,23.742-7.499,29.511c-0.918,5.768-0.106,33.085-0.106,33.085S859.701,525.19,859.575,527.23z"/>
	<path fill="#81CFF5" d="M845.254,452.049c0,0-8.292-5.856-8.872-1.078c-0.581,4.778-1.08,9.508,3.386,9.18l4.467-0.328
		C845.559,457.414,837.979,456.986,845.254,452.049z"/>
	<path fill="#81CFF5" d="M851.202,507.708c0.3,1.774,20.074-2.604,20.074-2.604s-7.466-27.728-2.851-33.379
		c4.615-5.652,21.955-2.846,21.955-2.846l-3.371-13.911c0,0-29.035,4.021-30.981,12.528c-1.945,8.507,5.119,31.774,5.119,31.774
		S850.902,505.934,851.202,507.708z"/>
	
		<rect x="857.892" y="508.767" transform="matrix(0.9997 0.0244 -0.0244 0.9997 12.687 -20.8544)" fill="#81CFF5" width="9.061" height="3.222"/>
	
		<rect x="869.428" y="529.422" transform="matrix(0.9997 0.0244 -0.0244 0.9997 13.1935 -21.1292)" fill="#81CFF5" width="9.061" height="3.222"/>
	<path fill="#81CFF5" d="M875.118,420.161c-1.137,9.358-0.837,0.589-12.809-3.722c-3.289-1.185-5.607-4.017-6.82-11.456
		c-0.228-1.394-3.002-0.472-3.143-2.155c-0.208-2.485,5.363-6.969,6.876-8.419c0.839-0.805-1.502-2.979-0.463-3.408
		c5.426-2.245,9.139-3.186,10.852-2.993c10.009,1.122,10.633,6.428,6.828,16.183C873.929,410.629,875.567,416.462,875.118,420.161z"
		/>
</g>
<polygon fill="#ABDCF2" points="5.309,46.497 414.213,70.01 341.23,28.736 27.808,0 "/>
<g>
	<polygon fill="#81CFF5" points="1081.568,446.247 1080.755,577.472 1091.255,578.971 1087.317,445.798 	"/>
	<polygon fill="#ABDCF2" points="1065.445,383.093 1092.955,380.311 1090.787,452.733 1066.668,450.973 	"/>
	<polygon fill="#81CFF5" points="1090.787,452.733 1102.539,447.161 1105.676,388.016 1092.486,380.299 	"/>
	<g>
		<path fill="#81CFF5" d="M1070.936,435.812c0.115-4.895,2.6-8.917,5.8-9.79c-0.126-0.014-0.25-0.035-0.378-0.038
			c-3.86-0.1-7.097,4.363-7.229,9.966c-0.131,5.604,2.893,10.228,6.752,10.326c0.489,0.014,0.967-0.048,1.43-0.175
			C1073.634,445.719,1070.809,441.23,1070.936,435.812z"/>
		<path fill="#81CFF5" d="M1076.424,423.165c0.456,0.013,0.899-0.057,1.33-0.186c-3.092-0.434-5.445-4.253-5.338-8.845
			c0.098-4.165,2.188-7.59,4.895-8.396c-0.157-0.022-0.315-0.043-0.477-0.047c-3.325-0.086-6.111,3.756-6.225,8.581
			S1073.1,423.079,1076.424,423.165z"/>
		<path fill="#81CFF5" d="M1076.878,402.414c0.439,0.011,0.866-0.062,1.28-0.19c-2.8-0.458-4.918-3.945-4.819-8.124
			c0.089-3.797,1.982-6.925,4.442-7.699c-0.174-0.028-0.349-0.047-0.526-0.053c-3.057-0.078-5.618,3.455-5.724,7.891
			C1071.428,398.675,1073.821,402.334,1076.878,402.414z"/>
		<path fill="#AACC5D" d="M1083.111,436.311c0.126-5.419-2.699-9.908-6.376-10.289c-3.2,0.873-5.685,4.896-5.8,9.79
			c-0.127,5.419,2.698,9.907,6.375,10.289C1080.512,445.228,1082.995,441.205,1083.111,436.311z"/>
		<path fill="#FCC558" d="M1072.416,414.135c-0.107,4.592,2.246,8.411,5.338,8.845c2.707-0.808,4.797-4.232,4.895-8.396
			c0.107-4.592-2.246-8.411-5.338-8.845C1074.604,406.545,1072.514,409.97,1072.416,414.135z"/>
		<path fill="#A12C2C" d="M1073.339,394.1c-0.099,4.179,2.02,7.666,4.819,8.124c2.46-0.774,4.354-3.902,4.441-7.7
			c0.099-4.178-2.019-7.664-4.818-8.123C1075.321,387.175,1073.428,390.303,1073.339,394.1z"/>
	</g>
</g>
<g>
</g>
<g>
</g>
<g>
</g>
<g>
</g>
<g>
</g>
<g>
</g>
</svg>
