<?xml version="1.0" encoding="utf-8"?>
<!-- Generator: Adobe Illustrator 16.0.4, SVG Export Plug-In . SVG Version: 6.00 Build 0)  -->
<!DOCTYPE svg PUBLIC "-//W3C//DTD SVG 1.1//EN" "http://www.w3.org/Graphics/SVG/1.1/DTD/svg11.dtd">
<svg version="1.1" id="Layer_1" xmlns="http://www.w3.org/2000/svg" xmlns:xlink="http://www.w3.org/1999/xlink" x="0px" y="0px"
	 width="1310.729px" height="763.95px" viewBox="0 0 1310.729 763.95" enable-background="new 0 0 1310.729 763.95"
	 xml:space="preserve">
<polygon fill="#ABDCF2" points="535.733,478.666 539.271,405.746 523.938,384.183 526.344,378.604 533.83,391.891 528.885,370.828 
	531.604,365.019 539.271,391.891 543.229,396.548 540.26,351.433 547.186,351.433 552.625,387.379 556.178,381.13 564.002,367.366 
	566.475,370.828 559.551,387.379 566.475,387.855 566.475,391.891 555.594,391.891 550.646,405.746 555.594,481.89 "/>
<ellipse opacity="0.4" fill="#ABDCF2" cx="542.207" cy="378.695" rx="39.609" ry="52.599"/>
<polygon fill="#ABDCF2" points="581.866,484.831 584.388,432.864 573.461,417.497 575.174,413.521 580.51,422.99 576.985,407.979 
	578.924,403.84 584.388,422.99 587.207,426.309 585.092,394.157 590.027,394.157 593.904,419.774 596.436,415.321 602.012,405.512 
	603.774,407.979 598.84,419.774 603.774,420.114 603.774,422.99 596.02,422.99 592.494,432.864 596.02,487.129 "/>
<ellipse opacity="0.4" fill="#ABDCF2" cx="590.942" cy="407.944" rx="28.228" ry="37.485"/>
<g>
	<path fill="#ABDCF2" d="M917.435,489.071l0.293-10.552l4.644,0.128l0.504-18.151l6.296-13.765c0,0,55.838-2.673,62.532-0.375
		l37.885,20.063c0,0,24.448,1.946,24.529,29.408L917.435,489.071z"/>
	<circle fill="#ABDCF2" cx="936.622" cy="490.238" r="11.191"/>
	<circle fill="#ABDCF2" cx="1034.701" cy="495.289" r="11.19"/>
	<polygon fill="#E4F3FB" points="925.278,472.393 929.723,472.516 930.344,450.144 925.077,461.646 	"/>
	<polygon fill="#E4F3FB" points="941.852,461.659 945.652,461.763 948.976,448.549 936.946,448.215 	"/>
	<polygon fill="#E4F3FB" points="948.606,461.846 976.437,463.676 976.859,448.479 951.744,447.781 	"/>
	<polygon fill="#E4F3FB" points="983.401,463.869 1012.913,466 1012.979,463.635 989.521,448.832 981.291,448.602 	"/>
	<polygon fill="#E4F3FB" points="993.744,448.948 1019.959,466.756 1026.501,466.986 993.744,448.948 	"/>
	<circle fill="#E4F3FB" cx="936.623" cy="490.238" r="7.918"/>
	<circle fill="#E4F3FB" cx="1034.7" cy="495.288" r="7.918"/>
</g>
<polygon fill="#ABDCF2" points="1119.458,536.191 1116.36,338.31 1186.374,338.31 1177.444,540.548 1186.374,542.598 
	1187.686,191.849 1290.135,179.327 1280.366,564.065 1186.374,564.065 "/>
<polygon fill="#ABDCF2" points="150.903,443.244 1308.739,523.474 1306.005,760.251 48.182,686.102 "/>
<g>
	<path fill="#ABDCF2" d="M639.561,465.123l161.619,15.642c0,0,2.691-15.642,1.636-16.922c-1.054-1.278-5.824-15.057-13.447-18.08
		c-20.16-7.996-23.497-7.874-23.497-7.874s-31.318-20.244-36.646-22.98c-3.128-1.608-70.749-17.448-80.818,7.489
		C636.162,452.72,639.561,465.123,639.561,465.123z"/>
	<path fill="#E4F3FB" d="M671.539,432.882l26.838,2.597c0,0,2.812-19.932,2.018-20.844s-31.982-2.943-33.484-0.881
		C665.409,415.819,671.539,432.882,671.539,432.882z"/>
	<path fill="#E4F3FB" d="M703.37,435.962l37.016,3.583l0.734-7.585c0,0-10.85-18.382-35.732-16.842L703.37,435.962z"/>
	<path fill="#E4F3FB" d="M754.422,438.948l8.488,0.263l-29.982-20.515c0,0,12.268,11.475,13.786,13.106
		C749.199,434.474,754.422,438.948,754.422,438.948z"/>
	<circle fill="#ABDCF2" cx="661.306" cy="468.08" r="13.039"/>
	<circle fill="#ABDCF2" cx="758.64" cy="474.775" r="13.039"/>
</g>
<g>
	<rect x="1207.176" y="411.987" fill="#E4F3FB" width="10.719" height="22.288"/>
	<rect x="1222.476" y="411.987" fill="#E4F3FB" width="10.719" height="22.288"/>
	<rect x="1207.531" y="441.864" fill="#E4F3FB" width="10.719" height="22.288"/>
	<rect x="1222.831" y="441.864" fill="#E4F3FB" width="10.719" height="22.288"/>
	<rect x="1207.887" y="470.181" fill="#E4F3FB" width="10.72" height="22.288"/>
	<rect x="1223.187" y="470.181" fill="#E4F3FB" width="10.719" height="22.288"/>
</g>
<g>
	<rect x="1236.931" y="411.539" fill="#E4F3FB" width="10.719" height="22.289"/>
	<rect x="1252.23" y="411.539" fill="#E4F3FB" width="10.719" height="22.289"/>
	<rect x="1237.287" y="441.416" fill="#E4F3FB" width="10.719" height="22.289"/>
	<rect x="1252.586" y="441.416" fill="#E4F3FB" width="10.72" height="22.289"/>
	<rect x="1237.643" y="469.732" fill="#E4F3FB" width="10.719" height="22.289"/>
	<rect x="1252.942" y="469.732" fill="#E4F3FB" width="10.719" height="22.289"/>
</g>
<g>
	<rect x="1205.663" y="322.876" fill="#E4F3FB" width="10.719" height="22.288"/>
	<rect x="1220.962" y="322.876" fill="#E4F3FB" width="10.719" height="22.288"/>
	<rect x="1206.019" y="352.753" fill="#E4F3FB" width="10.719" height="22.288"/>
	<rect x="1221.318" y="352.753" fill="#E4F3FB" width="10.719" height="22.288"/>
	<rect x="1206.374" y="381.069" fill="#E4F3FB" width="10.719" height="22.288"/>
	<rect x="1221.674" y="381.069" fill="#E4F3FB" width="10.719" height="22.288"/>
</g>
<g>
	<rect x="1235.418" y="322.428" fill="#E4F3FB" width="10.719" height="22.288"/>
	<rect x="1250.718" y="322.428" fill="#E4F3FB" width="10.719" height="22.288"/>
	<rect x="1235.774" y="352.305" fill="#E4F3FB" width="10.719" height="22.288"/>
	<rect x="1251.073" y="352.305" fill="#E4F3FB" width="10.719" height="22.288"/>
	<rect x="1236.13" y="380.621" fill="#E4F3FB" width="10.719" height="22.288"/>
	<rect x="1251.43" y="380.621" fill="#E4F3FB" width="10.719" height="22.288"/>
</g>
<g>
	<rect x="1204.15" y="237.469" fill="#E4F3FB" width="10.719" height="22.288"/>
	<rect x="1219.449" y="237.469" fill="#E4F3FB" width="10.72" height="22.288"/>
	<rect x="1204.506" y="267.346" fill="#E4F3FB" width="10.719" height="22.288"/>
	<rect x="1219.806" y="267.346" fill="#E4F3FB" width="10.719" height="22.288"/>
	<rect x="1204.861" y="295.662" fill="#E4F3FB" width="10.719" height="22.289"/>
	<rect x="1220.161" y="295.662" fill="#E4F3FB" width="10.719" height="22.289"/>
</g>
<g>
	<rect x="1233.905" y="237.021" fill="#E4F3FB" width="10.719" height="22.288"/>
	<rect x="1249.205" y="237.021" fill="#E4F3FB" width="10.719" height="22.288"/>
	<rect x="1234.262" y="266.897" fill="#E4F3FB" width="10.719" height="22.289"/>
	<rect x="1249.561" y="266.897" fill="#E4F3FB" width="10.72" height="22.289"/>
	<rect x="1234.617" y="295.215" fill="#E4F3FB" width="10.719" height="22.288"/>
	<rect x="1249.917" y="295.215" fill="#E4F3FB" width="10.719" height="22.288"/>
</g>
<g>
	<rect x="1129.956" y="394.404" fill="#E4F3FB" width="10.719" height="22.288"/>
	<rect x="1145.255" y="394.404" fill="#E4F3FB" width="10.72" height="22.288"/>
	<rect x="1130.312" y="424.281" fill="#E4F3FB" width="10.719" height="22.288"/>
	<rect x="1145.611" y="424.281" fill="#E4F3FB" width="10.719" height="22.288"/>
	<rect x="1130.667" y="452.598" fill="#E4F3FB" width="10.72" height="22.288"/>
	<rect x="1145.967" y="452.598" fill="#E4F3FB" width="10.719" height="22.288"/>
	<rect x="1159.711" y="393.956" fill="#E4F3FB" width="10.72" height="22.289"/>
	<rect x="1160.067" y="423.833" fill="#E4F3FB" width="10.719" height="22.289"/>
	<rect x="1160.423" y="452.15" fill="#E4F3FB" width="10.719" height="22.288"/>
	<rect x="1129.154" y="363.486" fill="#E4F3FB" width="10.72" height="22.288"/>
	<rect x="1144.454" y="363.486" fill="#E4F3FB" width="10.719" height="22.288"/>
	<rect x="1158.91" y="363.038" fill="#E4F3FB" width="10.719" height="22.289"/>
</g>
<g>
</g>
<g>
</g>
<g>
</g>
<g>
</g>
<g>
</g>
<g>
</g>
</svg>
