<?xml version="1.0" encoding="utf-8"?>
<!-- Generator: Adobe Illustrator 16.0.4, SVG Export Plug-In . SVG Version: 6.00 Build 0)  -->
<!DOCTYPE svg PUBLIC "-//W3C//DTD SVG 1.1//EN" "http://www.w3.org/Graphics/SVG/1.1/DTD/svg11.dtd">
<svg version="1.1" id="Layer_1" xmlns="http://www.w3.org/2000/svg" xmlns:xlink="http://www.w3.org/1999/xlink" x="0px" y="0px"
	 width="1498.069px" height="924.866px" viewBox="0 0 1498.069 924.866" enable-background="new 0 0 1498.069 924.866"
	 xml:space="preserve">
<rect fill="#E7E7EC" width="1498.069" height="924.866"/>
<g>
	<path fill="#1D1B3A" d="M749.039,577.618c-63.486,0-115.137-51.672-115.137-115.181c0-63.517,51.65-115.188,115.137-115.188
		c63.483,0,115.126,51.672,115.126,115.188C864.165,525.946,812.522,577.618,749.039,577.618z M749.039,369.068
		c-51.462,0-93.328,41.884-93.328,93.368c0,51.482,41.866,93.361,93.328,93.361c51.457,0,93.317-41.879,93.317-93.361
		C842.356,410.952,800.496,369.068,749.039,369.068z"/>
	<polygon fill="#1D1B3A" points="720.875,413.748 720.875,512.137 809.381,462.945 	"/>
</g>
</svg>
