<?xml version="1.0" encoding="utf-8"?>
<!-- Generator: Adobe Illustrator 16.0.4, SVG Export Plug-In . SVG Version: 6.00 Build 0)  -->
<!DOCTYPE svg PUBLIC "-//W3C//DTD SVG 1.1//EN" "http://www.w3.org/Graphics/SVG/1.1/DTD/svg11.dtd">
<svg version="1.1" id="Layer_1" xmlns="http://www.w3.org/2000/svg" xmlns:xlink="http://www.w3.org/1999/xlink" x="0px" y="0px"
	 width="2801.172px" height="1296.653px" viewBox="0 0 2801.172 1296.653" enable-background="new 0 0 2801.172 1296.653"
	 xml:space="preserve">
<g id="char3">
	<g>
		<path fill="#1D1B3A" d="M1408.649,769.338c0,0-18.259,1.901-19.779,4.184c-1.522,2.282-19.558,57.696-26.249,59.722
			c-5.636,1.708-27.958-41.273-35.946-41.558l-7.703,7.703c0,0,30.811,58.486,44.504,55.062
			c13.697-3.423,47.931-28.529,47.931-28.529S1410.169,768.103,1408.649,769.338z"/>
		<g>
			<path fill="#1D1B3A" d="M1408.649,768.09c-6.143,0.648-12.69,1.209-18.537,3.278c-3.311,1.172-3.899,5.375-4.976,8.325
				c-5.456,14.953-10.521,30.231-17.6,44.517c-1.146,2.311-2.365,4.698-4,6.708c-1.534,1.885-2.588,0.502-4.028-0.949
				c-5.395-5.438-9.471-12.417-13.801-18.69c-4.205-6.093-8.373-12.516-13.67-17.737c-1.307-1.288-2.87-2.597-4.695-3.023
				c-1.966-0.459-3.907,2.642-5.062,3.797c-1.396,1.397-2.794,2.794-4.191,4.191c-0.409,0.409-0.458,1.013-0.194,1.512
				c5.21,9.874,10.965,19.501,17.116,28.815c4.321,6.542,8.936,12.972,14.272,18.731c3.288,3.548,7.443,7.624,12.47,8.255
				c2.227,0.279,4.727-0.95,6.701-1.788c4.091-1.736,7.996-3.851,11.848-6.062c8.035-4.612,15.761-9.776,23.377-15.044
				c1.466-1.014,9.023-4.761,8.975-7.028c-0.088-4.117-0.194-8.233-0.305-12.349c-0.286-10.6-0.606-21.202-1.146-31.792
				c-0.062-1.216,0.195-14.765-2.885-13.623c-1.495,0.554-0.849,2.967,0.664,2.406c-1.367,0.507-1.371-1.364-1.074,0.512
				c0.15,0.948,0.216,1.913,0.298,2.869c0.274,3.172,0.429,6.356,0.587,9.537c0.394,7.957,0.646,15.921,0.885,23.884
				c0.171,5.733,0.32,11.468,0.451,17.202c0.01,0.429,0.02,0.857,0.028,1.286c-0.014-0.628,1.099-1.333,0.02-0.55
				c-2.086,1.515-4.192,3.002-6.305,4.479c-7.448,5.21-15.036,10.236-22.844,14.892c-3.689,2.201-7.456,4.277-11.337,6.12
				c-2.636,1.252-5.994,3.11-8.994,2.325c-5.875-1.538-10.77-8.323-14.358-12.775c-5.377-6.671-10.063-13.917-14.567-21.195
				c-3.416-5.52-6.67-11.142-9.804-16.827c-0.62-1.125-1.233-2.253-1.836-3.387c0.387,0.727-0.726,1.806,0.802,0.279
				c1.475-1.474,2.949-2.949,4.423-4.423c2.336-2.335,1.802-2.248,4.447,0.095c2.762,2.447,5.021,5.534,7.219,8.472
				c5.087,6.8,9.679,13.957,14.655,20.836c2.294,3.172,5.84,9.524,10.112,10.316c3.443,0.638,6.012-5.404,7.201-7.647
				c7.327-13.816,12.238-29.06,17.551-43.724c1.011-2.791,1.788-8.477,4.877-9.569c5.397-1.91,11.569-2.364,17.231-2.961
				C1410.233,770.419,1410.249,767.922,1408.649,768.09z"/>
		</g>
	</g>
	<g>
		<path fill="#F2C132" d="M1500.412,641.103c-0.326-3.239-1.546-6.422-3.319-9.413c-1.993-6.279-7.458-11.907-12.937-15.611
			c-5.803-3.923-13.484-6.881-20.822-6.881c-0.096-0.013-0.188-0.013-0.278-0.019c-0.396-0.308-0.914-0.48-1.532-0.427
			c-1.593,0.154-3.188,0.446-4.478,1.25c-2.848,0.783-5.528,2.153-7.905,4.252c-0.812,0.73-0.83,1.644-0.425,2.344
			c-0.266,0.165-0.538,0.35-0.816,0.537c0.145,1.216,0.21,2.446,0.181,3.71c-0.036,0.915-0.435,1.62-1.006,2.115
			c0.116,0.386,0.262,0.772,0.383,1.147c0.436,0.907,0.883,1.786,1.386,2.629c0.723,1.215,0.28,2.903-0.721,3.792
			c-0.107,0.082-0.212,0.162-0.297,0.243c-1.289,1.132-3.307,1.006-4.447-0.273c0.377,0.878,0.823,1.731,1.352,2.557
			c-1.225-0.342-2.455-0.617-3.701-0.843c-0.044-0.635-0.37-1.241-1.018-1.566c-0.049-0.023-0.086-0.036-0.128-0.053
			c-0.043-0.018-0.086-0.039-0.118-0.056c-0.038-0.011-0.1-0.03-0.136-0.045l0,0c-8.185-2.752-16.557-2.404-24.822-0.247
			c-2.338,0.61-4.634,1.396-6.881,2.281c-0.717,0.088-1.462,0.188-2.193,0.33c-3.352,0.671-5.793,2.252-8.197,4.098
			c-1.818,0.894-3.458,1.978-4.235,3.363c-0.066,0.147-0.109,0.3-0.163,0.445c-2.331,1.105-4.483,2.43-6.374,4.019
			c-8.771,7.442,4.552,14.932,10.639,17.285c4.319,1.674,9.41,1.621,13.979,1.656c6.13,0.049,12.285-0.225,18.409-0.115
			c7.254,0.109,14.825,0.593,21.478,3.698c7.435,3.462,9.428,11.006,8.727,18.612c-0.141,1.533,1.542,2.502,2.857,1.89
			c2.701-1.251,6.422-2.814,9.131-0.802c1.926,1.415,1.768,4.758,1.526,6.806c-0.645,5.853-5.132,13.093-11.565,13.44
			c-0.92,0.042-1.665,0.418-2,1.317c-2.477,6.644-4.731,13.484-5.847,20.497c-0.816,0.445-1.362,1.366-0.979,2.229
			c0.005,0.227,0.071,0.451,0.175,0.666c0.332,0.704,0.805,1.013,1.343,1.082c0.063,0.036,0.152,0.062,0.242,0.089
			c0.335,1.038,1.563,1.616,2.745,1.157c0.49-0.198,1.021-0.331,1.552-0.47c0.345-0.107,0.746-0.201,1.114-0.288
			c-0.01,0.007,0.962-0.14,0.407-0.112c1.07-0.049,1.756-0.79,1.966-1.618c10.106-0.94,17.906-9.228,22.419-18.576
			c5.871-12.141,7.718-26.771,6.64-40.105c-0.606-7.513-3.127-13.963-6.974-19.363
			C1492.907,653.767,1501.419,651.07,1500.412,641.103z"/>
	</g>
	<g>
		<g>
			<path fill="#1D1B3A" d="M1451.44,630.724c-2.112-5.916-3.41-13.723,0.815-19.046c5.564-7.01,19.44-2.457,25.949,0.558
				c8.354,3.869,15.12,10.87,19.567,18.835c2.947,5.28,3.562,11.794-0.516,16.632c-3.111,3.69-8.62,4.767-13.173,4.941
				c-1.604,0.062-1.61,2.558,0,2.496c9.605-0.369,18.3-5.179,18.632-15.649c0.362-11.466-11.564-22.577-20.479-27.938
				c-7.474-4.496-22.569-9.514-30.302-2.989c-6.575,5.548-5.504,15.535-2.901,22.823
				C1449.571,632.892,1451.983,632.244,1451.44,630.724L1451.44,630.724z"/>
		</g>
	</g>
	<g>
		<g>
			<path fill="#1D1B3A" d="M1471.637,610.308c-2.644,3.952-6.217,7.136-8.985,10.996c-2.548,3.551-3.393,7.967-3.697,12.231
				c-0.115,1.607,2.382,1.596,2.496,0c0.396-5.546,2.181-9.838,5.796-14.065c2.241-2.621,4.621-5.025,6.545-7.902
				C1474.689,610.226,1472.526,608.978,1471.637,610.308L1471.637,610.308z"/>
		</g>
	</g>
	<g>
		<g>
			<path fill="#1D1B3A" d="M1479.577,614.973c-0.123,8.824-3.265,17.162-8.487,24.224c-0.959,1.296,1.209,2.539,2.154,1.26
				c5.476-7.403,8.7-16.25,8.829-25.484C1482.096,613.362,1479.6,613.365,1479.577,614.973L1479.577,614.973z"/>
		</g>
	</g>
	<g>
		<g>
			<path fill="#1D1B3A" d="M1491.23,631.044c-1.001,6.943-6.28,11.729-12.671,14.01c-1.504,0.537-0.855,2.949,0.664,2.406
				c7.142-2.549,13.287-7.947,14.413-15.753C1493.864,630.134,1491.459,629.457,1491.23,631.044L1491.23,631.044z"/>
		</g>
	</g>
	<g>
		<path fill="#F4EDE1" d="M1478.087,687.929c0.177-0.656-0.952-2.23-0.928-3.031c0.042-1.148-2.035-1.604-3.112-1.739
			c-1.353-0.174-1.406-2.322-2.709-2.729c-0.819-0.822-3.18,0.39-4.627,0.266c-0.885-0.071-1.703,0.063-2.485,0.343
			c-0.666-4.935-2.429-9.709-5.326-13.717c-1.895-4.838-5.252-8.912-9.747-11.795c-1.539-1.66-3.725-2.815-6.392-3.205
			c-0.574-0.083-1.133-0.152-1.689-0.224c-0.976-0.22-1.939-0.389-2.944-0.494c-1.582-2.741-4.502-4.556-7.87-5.06
			c-7.01-1.04-14.002-0.59-20.58,1.375c-0.364-0.201-0.54-1.243-1.048-1.086c-1.679,0.506-2.853-0.497-4.472,0.083
			c-0.489-0.329-2.771,1.459-3.466,1.824c-2.667,1.4-4.453,3.406-6.936,5.093c-0.595,0.399-0.867,0.952-0.945,1.518
			c-4.115,3.568-7.471,7.906-9.657,13.24c-1.032,2.528-1.704,5.163-2.078,7.846c-0.968,2.993-1.666,6.074-2.091,9.169
			c-0.146,1.053-0.226,2.093-0.288,3.147c-3.916,15.531,1.864,29.843,14.537,39.686c6.38,4.95,14.087,8.427,22.12,10.711
			c-0.225,2.804-0.103,5.584,0.397,8.255c-0.271,1.245-0.605,2.481-0.955,3.704c0.915,4.013-3.086,9.933-3.532,14.176
			c-0.092,0.952,4.313-0.253,3.72,0.228c0.066,0.082,0.119,0.169,0.188,0.242c0.496,0.525,0.991,0.976,1.479,1.386
			c1.121,1.186,2.501,2.114,3.979,2.64c1.617,0.569,3.441,0.827,5.175,0.951c3.325,0.242,15.441,0.636,17.26-2.268
			c5.046-0.96,0.691-7.91-0.527-13.866c-1.012-5.105-0.927-10.04,0.346-14.906c0.073-0.087,0.182-0.166,0.24-0.253
			c0.828-0.376,1.632-0.891,2.403-1.562c8.989-7.933,13.484-18.695,14.065-30.172c0.8-0.149,1.587-0.366,2.352-0.657
			c0.175-0.062,2.98-0.604,4.016-0.91c3.224-0.949,6.023-2.542,8.548-4.823C1478.615,697.606,1481.208,691.881,1478.087,687.929z"/>
	</g>
	<g>
		<path fill="#1D1B3A" d="M1468.106,865.194c-9.197-19.714,7.608-63.129,7.608-63.129s-8.317-24.388-3.439-33.348
			c-3.289-2.202-5.566-3.635-6.241-4.081c-1.95-1.285-13.023-2.053-22.664-2.482c-9.324,7.451-22.832,9.972-32.292,1.491
			c-3.507,12.413-10.744,23.351-16.859,34.795c-0.507,0.946-1.185,1.561-1.936,1.911c-3.501,5.726-7.995,15.162-4.571,21.688
			c5.252,9.958,33.45,16.298,11.901,56.129c-21.812,40.333-16.964,130.505-16.964,130.505s97.73,18.039,95.205,3.507
			C1476.025,1001.646,1495.328,923.575,1468.106,865.194z"/>
		<g>
			<path fill="#1D1B3A" d="M1469.184,864.564c-4.191-9.519-2.694-21.059-0.96-30.972c1.537-8.784,3.968-17.427,6.801-25.875
				c1.41-4.207,2.073-5.213,0.829-9.391c-2.472-8.298-6.535-20.681-2.501-28.979c0.312-0.64,0.151-1.309-0.447-1.708
				c-2.985-1.985-5.736-4.299-9.294-5.03c-5.474-1.124-11.236-1.236-16.796-1.538c-2.412-0.131-3.404-0.507-5.262,0.91
				c-2.674,2.039-5.763,3.478-8.93,4.552c-7.188,2.438-14.854,1.074-20.664-3.771c-0.714-0.596-1.801-0.406-2.085,0.551
				c-2.153,7.237-5.404,13.954-8.997,20.57c-1.689,3.111-3.455,6.18-5.185,9.268c-1.567,2.798-3.558,5.012-5.153,7.686
				c-4.175,6.993-8.124,16.898-2.354,24.065c3.285,4.081,7.942,6.97,11.502,10.819c5.579,6.034,7.444,13.662,6.3,21.713
				c-1.531,10.772-7.933,19.822-11.854,29.757c-3.56,9.016-5.791,18.546-7.575,28.052c-3.651,19.453-4.984,39.348-5.467,59.108
				c-0.278,11.424-0.296,22.905,0.311,34.322c0.027,0.521,0.356,1.1,0.916,1.203c23.428,4.317,47.309,8.033,71.126,9.068
				c5.827,0.253,11.737,0.315,17.517-0.584c2.723-0.424,6.828-1.299,7.933-4.257c1.048-2.807,0.231-7.395,0.532-10.415
				c0.758-7.611,1.764-15.196,2.538-22.806C1485.916,942.031,1485.767,900.717,1469.184,864.564c-0.67-1.461-2.82-0.192-2.154,1.26
				c19.312,42.102,15.36,89.537,10.292,134.226c-0.484,4.271-0.833,8.415-0.667,12.695c0.12,3.062-7.819,3.434-9.582,3.589
				c-14.394,1.271-29.311-0.837-43.571-2.62c-12.52-1.566-24.998-3.506-37.424-5.688c-0.965-0.169-1.928-0.341-2.892-0.517
				c0.654,0.119,0.746,2.028,0.649-0.164c-0.197-4.461-0.295-8.926-0.354-13.391c-0.237-17.903,0.374-35.84,2.107-53.664
				c1.93-19.841,5.035-40.69,13.737-58.832c4.983-10.39,10.739-20.792,9.284-32.742c-0.902-7.409-5.286-13.312-10.65-18.208
				c-2.294-2.093-4.757-3.997-6.948-6.201c-5.147-5.176-3.055-12.5-0.322-18.439c1.21-2.632,2.922-4.529,4.607-6.798
				c2.719-3.658,4.658-8.388,6.883-12.379c4.055-7.273,7.723-14.714,10.103-22.714c-0.695,0.184-1.391,0.367-2.085,0.551
				c8.129,6.78,18.109,6.9,27.506,2.665c3.247-1.464,5.327-3.813,9.113-3.624c3.343,0.167,6.682,0.396,10.017,0.684
				c2.624,0.227,5.266,0.496,7.82,1.156c2.417,0.624,4.972,3.043,6.993,4.388c-0.149-0.569-0.299-1.138-0.447-1.708
				c-3.864,7.947-0.961,18.642,1.093,26.723c0.466,1.833,0.991,3.65,1.541,5.459c0.271,0.895,0.305,2.436,0.669,1.49
				c-0.759,1.971-1.44,3.974-2.112,5.977c-3.146,9.38-5.646,19.008-7.165,28.789c-1.491,9.598-2.202,20.198,1.806,29.299
				C1467.677,867.294,1469.826,866.023,1469.184,864.564z"/>
		</g>
	</g>
	<g>
		<g>
			<path fill="#1D1B3A" d="M1427.336,739.662c-23.066,1.492-44.54-12.716-48.892-36.039c-3.742-20.056,4.022-47.028,24.307-55.329
				c1.469-0.601,0.826-3.016-0.664-2.406c-21.078,8.626-29.405,35.17-26.378,56.265c3.642,25.374,26.638,41.621,51.627,40.005
				C1428.934,742.055,1428.943,739.558,1427.336,739.662L1427.336,739.662z"/>
		</g>
	</g>
	<g>
		<g>
			<path fill="#1D1B3A" d="M1414.056,681.329c-0.204,8.827-12.038,9.531-17.986,13.137c-0.644,0.391-0.881,1.426-0.252,1.96
				c6.183,5.251,20.058,7.932,25.496,0.358c0.941-1.31-1.225-2.554-2.154-1.26c-4.357,6.066-16.74,3.246-21.578-0.863
				c-0.084,0.653-0.168,1.307-0.252,1.96c6.993-4.24,18.98-4.834,19.223-15.292C1416.589,679.719,1414.093,679.722,1414.056,681.329
				L1414.056,681.329z"/>
		</g>
	</g>
	<g>
		<g>
			<path fill="#1D1B3A" d="M1429.026,677.899c0.411,3.743-0.097,7.652,1.956,11.002c0.337,0.55,1.135,0.835,1.707,0.448
				c3.547-2.401,4.366-7.213,3.558-11.175c-0.303-1.481-1.151-3.323-2.717-3.816c-1.843-0.581-3.389,0.752-4.453,2.107
				c-0.983,1.25,0.771,3.029,1.764,1.765c0.301-0.382,1.379-1.963,2.043-1.429c0.747,0.603,0.973,1.884,1.089,2.772
				c0.341,2.605-0.215,6.044-2.543,7.62c0.569,0.149,1.139,0.299,1.707,0.448c-1.787-2.917-1.256-6.48-1.614-9.743
				C1431.349,676.318,1428.851,676.301,1429.026,677.899L1429.026,677.899z"/>
		</g>
	</g>
	<g>
		<g>
			<path fill="#1D1B3A" d="M1398.62,674.517c0.423,3.743-0.11,7.657,1.971,10.999c0.34,0.546,1.133,0.839,1.707,0.448
				c3.574-2.438,4.4-7.362,3.503-11.355c-0.321-1.432-1.148-3.101-2.626-3.618c-1.848-0.647-3.444,0.733-4.516,2.087
				c-0.986,1.248,0.768,3.027,1.766,1.765c0.346-0.438,1.396-1.988,2.107-1.38c0.758,0.649,0.954,2.002,1.058,2.927
				c0.286,2.552-0.287,5.875-2.552,7.419c0.569,0.149,1.139,0.299,1.707,0.448c-1.812-2.911-1.261-6.475-1.629-9.739
				C1400.938,672.936,1398.44,672.919,1398.62,674.517L1398.62,674.517z"/>
		</g>
	</g>
	<g>
		<g>
			<path fill="#1D1B3A" d="M1394.851,647.253c14.667,0.096,29.585,0.01,43.845,3.907c7.11,1.943,14.376,5.263,18.833,11.367
				c5.205,7.128,4.003,16.404,1.484,24.29c-0.494,1.547,1.873,2.161,2.406,0.663c4.134-11.607,18.521-4.779,15.758,5.895
				c-0.898,3.469-3.626,6.549-6.104,8.994c-1.645,1.623-7.411,6.543-8.05,1.848c-0.163-1.199-2.238-1.195-2.406,0
				c-1.52,10.803-5.472,24.436-15.457,30.273c-5.1,2.981-4.188,13.854-3.862,18.574c0.245,3.565,0.823,7.236,2.186,10.554
				c0.339,0.825,1.554,1.992,0.874,2.756c-0.981,1.105-2.769,1.646-4.1,2.101c-8.33,2.849-19.671,2.195-25.984-4.479
				c-1.107-1.171-2.869,0.597-1.764,1.765c6.35,6.713,16.277,7.523,24.919,6.001c4.529-0.798,11.803-2.939,8.636-8.481
				c-2.366-4.142-2.405-10.024-2.439-14.641c-0.031-4.173-0.033-10.524,4.148-12.736c9.779-5.173,13.858-21.126,15.25-31.023
				c-0.802,0-1.604,0-2.406,0c0.662,4.872,4.997,4.287,8.35,2.313c5.019-2.953,9.956-8.889,10.954-14.717
				c0.96-5.609-2.986-11.62-8.124-13.531c-5.924-2.204-10.962,2.757-12.783,7.872c0.802,0.221,1.604,0.442,2.406,0.663
				c2.554-7.994,3.498-16.553-0.504-24.232c-3.328-6.387-9.944-10.262-16.414-12.805c-15.521-6.1-33.258-5.578-49.65-5.686
				C1393.241,644.747,1393.241,647.243,1394.851,647.253L1394.851,647.253z"/>
		</g>
	</g>
	<g>
		<g>
			<path fill="#1D1B3A" d="M1492.813,676.205c-2.718-24.787-24.374-40.531-47.178-46.153c-13.635-3.361-29.071-3.426-42.467,0.918
				c-10.334,3.351-23.76,14.67-19.516,26.89c0.524,1.511,2.936,0.861,2.406-0.663c-2.463-7.092,2.483-13.472,7.439-18.044
				c4.864-4.487,11.446-6.437,17.791-7.715c11.893-2.396,25.026-1.417,36.672,1.803c20.504,5.669,39.907,20.63,42.355,42.964
				C1490.491,677.787,1492.988,677.803,1492.813,676.205L1492.813,676.205z"/>
		</g>
	</g>
	<g>
		<g>
			<path fill="#1D1B3A" d="M1489.519,676.299c1.459,15.602-1.2,31.647-11.119,44.191c-5.332,6.742-14.347,13.938-23.523,12.926
				c-1.599-0.176-1.582,2.321,0,2.496c9.92,1.094,19.393-6.525,25.287-13.658c10.538-12.749,13.353-29.899,11.852-45.956
				C1491.866,674.71,1489.369,674.696,1489.519,676.299L1489.519,676.299z"/>
		</g>
	</g>
	<g>
		<g>
			<path fill="#1D1B3A" d="M1434.836,663.85c2.854,0.199,5.29,1.902,7.349,3.766c1.326,1.2,3.035,2.855,3.535,4.635
				c0.435,1.547,2.843,0.889,2.406-0.663c-0.682-2.425-2.84-4.527-4.643-6.159c-2.415-2.186-5.358-3.845-8.647-4.075
				C1433.229,661.241,1433.239,663.738,1434.836,663.85L1434.836,663.85z"/>
		</g>
	</g>
	<g>
		<g>
			<path fill="#1D1B3A" d="M1414.352,742.477c0.145,8.171-0.421,14.991-4.304,22.173c-0.766,1.416,1.389,2.676,2.154,1.26
				c4.113-7.607,4.799-14.761,4.646-23.433C1416.819,740.869,1414.323,740.866,1414.352,742.477L1414.352,742.477z"/>
		</g>
	</g>
	<g>
		<path fill="#1D1B3A" d="M1387.254,1003.73c0,0,19.03,99.892,14.129,107.751c-4.907,7.867-69.381,29.031-52.521,29.135
			c38.027,0.229,57.295-18.199,57.295-18.199l-2.314,13.035l5.617,0.193c0,0,6.809-19.279-0.603-23.908
			c-2.234-1.402,2.423-86.134-0.133-101.672C1406.157,994.535,1386.866,1003.98,1387.254,1003.73z"/>
		<g>
			<path fill="#1D1B3A" d="M1386.051,1004.062c4.74,24.9,9.121,49.921,12.476,75.048c0.916,6.865,1.743,13.754,2.204,20.666
				c0.202,3.041,1.164,8.242-0.425,11.074c-2.137,3.809-9.694,6.227-13.357,7.959c-7.069,3.342-14.294,6.354-21.476,9.441
				c-6.282,2.703-13.604,5.082-19.106,9.26c-6.112,4.643,6.309,4.312,7.72,4.268c17.853-0.572,39.498-5.742,52.954-18.479
				c-0.695-0.404-1.391-0.809-2.086-1.215c-0.771,4.346-1.543,8.691-2.314,13.035c-0.144,0.811,0.339,1.551,1.203,1.58
				c1.872,0.064,3.745,0.129,5.617,0.193c0.579,0.02,1.023-0.402,1.203-0.916c1.975-5.674,3.745-12.637,2.655-18.645
				c-0.297-1.639-0.76-3.07-1.612-4.502c-0.317-0.531-1.761-1.564-1.835-1.797c-0.432-1.35-0.299-3.014-0.339-4.408
				c-0.429-14.912,0.379-29.902,0.732-44.809c0.37-15.598,1.066-31.326,0.182-46.916c-0.311-5.476-1.18-11.314-6.643-13.963
				c-4.917-2.384-11.319-0.659-16.096,1.263c-0.334,0.135-1.234,0.263-0.454,0.281c-1.61-0.038-1.606,2.458,0,2.496
				c1.221,0.028,2.916-1.059,4.059-1.424c3.226-1.029,6.689-1.577,10.031-0.844c7.185,1.577,6.63,11.14,6.803,16.85
				c0.501,16.618-0.156,33.29-0.562,49.903c-0.323,13.195-1.265,26.617-0.433,39.807c0.063,1.006,0.129,2.037,0.529,2.971
				c0.428,1,1.711,1.584,2.303,2.576c1.354,2.27,1.146,5.441,0.999,7.971c-0.22,3.775-1.187,7.555-2.282,11.162
				c-0.115,0.379-0.239,0.756-0.364,1.131c-0.136,0.41,1.812-0.66,0.415-0.709c-1.636-0.055-3.272-0.111-4.908-0.168
				c0.401,0.527,0.803,1.055,1.203,1.58c0.771-4.346,1.543-8.689,2.314-13.035c0.213-1.199-1.128-2.121-2.086-1.215
				c-9.777,9.256-24.467,13.918-37.335,16.285c-6.408,1.178-13.037,1.666-19.55,1.541c-1.778-0.035-0.642-0.453-1.16,0.742
				c0.243-0.561,1.168-0.992,1.648-1.297c4.993-3.17,10.757-5.328,16.163-7.67c7.204-3.119,14.446-6.15,21.579-9.432
				c4.944-2.273,10.311-4.553,14.511-8.092c2.335-1.967,2.279-5.072,2.306-7.896c0.056-5.852-0.637-11.736-1.291-17.543
				c-3.202-28.414-8.342-56.691-13.688-84.774C1388.156,1001.819,1385.751,1002.49,1386.051,1004.062z"/>
		</g>
	</g>
	<g>
		<path fill="#1D1B3A" d="M1478.087,1006.641c-0.71-1.602,4.623,12.84,6.876,37.067c2.733,29.604,3.685,61.439,8.652,66.758
			c4.962,5.314,31.001,34.826,24.281,39.289c-6.7,4.459-31.037-19.844-33.212-38.658c-1.395-12.229-23.318-89.737-23.481-98.639
			C1461.022,1003.553,1478.087,1006.641,1478.087,1006.641z"/>
		<g>
			<path fill="#1D1B3A" d="M1479.164,1006.011c-0.014-0.044-0.034-0.084-0.062-0.121c-0.646-0.9-2.453-0.729-2.325,0.63
				c0.131,1.401,0.764,2.843,1.135,4.191c1.226,4.452,2.208,8.967,3.08,13.5c2.836,14.742,3.622,29.805,4.766,44.746
				c0.881,11.514,1.47,23.246,3.852,34.574c1.258,5.984,4.331,9.043,8.2,13.514c5.69,6.574,11.206,13.389,15.843,20.754
				c1.699,2.697,3.386,5.602,4.036,8.754c0.92,4.457-5.204,1.566-6.871,0.611c-8.805-5.053-15.768-14.469-20.497-23.217
				c-3.427-6.338-4.186-12.973-5.675-19.842c-4.55-20.984-10.458-41.693-15.718-62.506c-2.133-8.438-4.352-16.891-5.968-25.446
				c-0.735-3.889-0.629-6.985,3.941-8.273c3.372-0.95,7.43-0.636,10.854-0.037c1.574,0.275,2.247-2.129,0.664-2.406
				c-4.972-0.87-10.931-1.223-15.444,1.378c-4.099,2.362-2.956,7.273-2.221,11.052c2.989,15.383,7.318,30.557,11.229,45.723
				c3.815,14.797,8.021,29.592,10.965,44.596c1.543,7.859,3.501,14.555,7.803,21.469c4.734,7.607,11.144,14.914,18.807,19.664
				c2.659,1.648,7.219,3.643,9.787,0.791c2.502-2.779-0.353-7.842-1.713-10.436c-5.732-10.928-14.549-20.775-22.868-29.807
				c-4.145-4.498-4.065-14.406-4.687-20c-1.301-11.713-1.996-23.494-2.931-35.238c-0.901-11.328-2.042-22.58-4.268-33.732
				c-0.882-4.42-3.25-10.571-3.606-14.377c-0.775,0.21-1.55,0.42-2.325,0.63c0.028,0.036,0.049,0.076,0.063,0.121
				C1477.691,1008.728,1479.843,1007.459,1479.164,1006.011z"/>
		</g>
	</g>
	<g>
		<g>
			<path fill="#1D1B3A" d="M1467.755,686.093c-2.898,2.726-5.178,8.414-1.861,11.651c1.152,1.125,2.918-0.639,1.766-1.765
				c-2.264-2.209,0.006-6.378,1.859-8.122C1470.693,686.753,1468.925,684.992,1467.755,686.093L1467.755,686.093z"/>
		</g>
	</g>
	<g>
		<g>
			<path fill="#1D1B3A" d="M1395.085,666.14c1.055-3.34,5.044-5.116,8.114-6.108c1.524-0.493,0.872-2.903-0.664-2.406
				c-3.979,1.286-8.509,3.583-9.856,7.852C1392.192,667.016,1394.603,667.669,1395.085,666.14L1395.085,666.14z"/>
		</g>
	</g>
	<g>
		<g>
			<path fill="#1D1B3A" d="M1419.188,647.686c6.196-2.99,12.351-5.984,18.964-7.955c7.218-2.151,14.753-0.549,22.136-0.934
				c1.601-0.083,1.609-2.58,0-2.496c-7.7,0.401-15.238-0.974-22.8,1.023c-6.83,1.804-13.231,5.153-19.56,8.206
				C1416.479,646.23,1417.745,648.382,1419.188,647.686L1419.188,647.686z"/>
		</g>
	</g>
	<g>
		<g>
			<path fill="#1D1B3A" d="M1443.07,651.631c8.394-3.12,15.162-8.548,24.579-7.838c1.606,0.121,1.595-2.376,0-2.496
				c-9.768-0.735-16.52,4.685-25.243,7.928C1440.912,649.781,1441.559,652.193,1443.07,651.631L1443.07,651.631z"/>
		</g>
	</g>
	<g>
		<path fill="#FFFFFF" d="M1405.296,759.275c1.799,0.116,11.208,54.042,14.638,54.061c4.223,0.036,35.683-55.186,35.683-55.186
			l16.952,2.791c0,0-25.459,45.912-0.291,77.178c1.495,1.864-5.872,16.972-1.028,28.764c13.496,32.99,0.47,126.855,0.47,126.855
			s-77.922,1.965-94.418-8.851c-2.077-1.356-2.848-68.487,18.696-114.552c4.719-10.088,9.632-16.105,4.343-25.494
			c-5.259-9.381-15.005-16.621-15.896-23.911c-0.886-7.288,4.864-15.231,9.438-23.078c4.581-7.838-1.389-34.454-1.389-34.454
			L1405.296,759.275z"/>
		<g>
			<path fill="#1D1B3A" d="M1404.964,760.479c-0.885-0.355-0.317,0.048-0.035,0.927c0.307,0.955,0.554,1.93,0.805,2.901
				c0.827,3.199,1.536,6.43,2.256,9.654c1.762,7.885,3.444,15.787,5.32,23.646c1.216,5.092,2.164,10.906,4.714,15.551
				c1.623,2.956,4.121,0.362,5.538-1.3c9.254-10.853,16.195-24.192,23.432-36.411c2.948-4.978,5.861-9.977,8.743-14.994
				c0.267-0.464,0.532-0.929,0.798-1.393c0.473-0.827-2.066,0.159-0.625,0.396c3.578,0.589,7.155,1.178,10.733,1.767
				c1.864,0.307,3.729,0.614,5.594,0.921c-0.248-0.611-0.497-1.222-0.745-1.833c-6.331,11.499-10.087,24.889-11.301,37.895
				c-0.978,10.486,0.519,21.038,4.842,30.657c1.895,4.215,6.748,8.309,5.733,12.987c-1.093,5.035-2.246,9.938-2.433,15.111
				c-0.297,8.209,4.051,16.275,5.468,24.341c1.6,9.105,2.053,18.42,2.256,27.647c0.419,19.006-0.78,38.057-2.499,56.978
				c-0.607,6.687-1.312,13.365-2.104,20.032c-0.221,1.857-0.451,3.714-0.689,5.569c-0.33,2.556-0.529,0.999,0.889,0.965
				c-10.977,0.266-21.97,0.175-32.944-0.106c-17.072-0.438-34.77-0.916-51.43-4.996c-2.738-0.67-5.464-1.515-7.986-2.786
				c-1.508-0.76-1.303-1.74-1.45-3.496c-0.561-6.665-0.301-13.435-0.01-20.104c0.791-18.129,3.188-36.23,7.231-53.919
				c2.21-9.664,5.079-19.176,8.688-28.409c3.426-8.765,10.974-18.177,9.964-27.994c-0.92-8.939-9.86-16.21-14.847-23.027
				c-8.164-11.158,2.564-20.605,6.812-30.747c2.45-5.851,1.132-13.725,0.402-19.779c-0.568-4.714-1.357-9.427-2.389-14.062
				c-0.29,0.512-0.581,1.023-0.871,1.535c4.268-1.374,8.535-2.749,12.803-4.123c1.525-0.491,0.873-2.901-0.664-2.406
				c-4.268,1.374-8.535,2.749-12.803,4.123c-0.672,0.216-1.023,0.849-0.871,1.535c1.476,6.639,2.493,13.418,2.944,20.202
				c0.271,4.073,0.359,8.403-0.959,12.312c-1.034,3.068-3.518,6.036-5.147,8.829c-1.78,3.05-3.271,6.201-4.329,9.569
				c-3.424,10.909,7.276,19.139,12.974,26.933c5.039,6.893,5.447,12.892,1.901,20.505c-2.684,5.763-5.545,11.369-7.862,17.299
				c-8.542,21.854-12.553,45.512-14.621,68.798c-0.765,8.61-1.186,17.268-1.113,25.913c0.028,3.413-0.432,8.063,1.03,11.28
				c0.764,1.681,4.669,2.637,6.239,3.185c4.124,1.439,8.48,2.238,12.778,2.948c10.485,1.732,21.147,2.435,31.751,2.947
				c14.92,0.721,29.908,0.906,44.843,0.536c0.5-0.013,1.127-0.367,1.203-0.917c3.835-27.721,6.062-55.967,5.652-83.953
				c-0.131-8.885-0.659-17.773-1.907-26.575c-0.521-3.675-1.243-7.321-2.191-10.91c-1.282-4.854-3.384-9.116-3.641-14.239
				c-0.269-5.37,1.148-10.692,2.338-15.88c0.988-4.313,0.093-4.91-2.471-8.646c-6.894-10.05-8.832-22.449-8.113-34.388
				c0.775-12.893,4.809-26.561,11.057-37.909c0.355-0.646,0.078-1.698-0.745-1.833c-5.651-0.93-11.302-1.86-16.952-2.791
				c-0.556-0.092-1.111,0.05-1.409,0.573c-4.46,7.824-9.026,15.588-13.661,23.309c-6.084,10.137-11.955,21.978-20.237,30.546
				c-0.994,1.028-0.205,1.175-0.938-0.439c-0.941-2.071-1.492-4.37-2.097-6.554c-1.812-6.548-3.252-13.204-4.724-19.835
				c-1.41-6.348-2.754-12.712-4.277-19.035c-0.446-1.853-0.834-6.58-2.977-7.44C1404.133,757.472,1403.49,759.887,1404.964,760.479z
				"/>
		</g>
	</g>
	<g>
		<g>
			<path fill="#1D1B3A" d="M1437.836,837.147c6.938-0.813,14.069-2.799,20.343-5.897c1.443-0.713,0.178-2.865-1.26-2.155
				c-5.832,2.88-12.624,4.8-19.083,5.557C1436.257,834.836,1436.239,837.334,1437.836,837.147L1437.836,837.147z"/>
		</g>
	</g>
	<g>
		<path fill="#DC4832" d="M1418.576,711.007c-0.805,0.049-2.005,0.223-3.351,0.351c-1.97-1.48-4.767-1.984-7.167-2.236
			c-0.425-0.043-0.775,0.054-1.035,0.234c-1.358-0.977-3.605,0.609-2.57,2.326c1.601,2.625,4.732,3.237,7.931,3.24
			c-0.979,0.625-1.982,1.231-3.022,1.781c-1.261,0.666-1.109,2.97,0.406,3.221c2.097,0.344,4.434,0.328,6.118-1.161
			c0.902-0.794,1.509-1.89,1.61-3.032c0.656-0.466,1.311-0.95,1.959-1.435C1420.732,713.354,1420.508,710.889,1418.576,711.007z"/>
		<g>
			<path fill="#1B1D3A" d="M1418.576,709.759c-0.98,0.084-2.609,0.595-3.496,0.011c-0.868-0.572-1.968-0.889-2.944-1.193
				c-1.746-0.544-4.016-1.06-5.742-0.298c0.42,0,0.84,0,1.26,0c-1.868-0.863-5.704,0.34-4.646,3.103
				c1.481,3.866,5.655,4.716,9.377,4.79c-0.21-0.775-0.42-1.55-0.63-2.326c-1.927,1.21-5.55,2.548-4.257,5.546
				c1.103,2.557,5.278,2.414,7.436,1.392c1.386-0.657,2.649-1.615,3.262-3.073c0.379-0.902,0.448-1.271,1.24-1.852
				c0.48-0.353,1.217-0.791,1.506-1.349C1422.116,712.239,1421.161,710.035,1418.576,709.759c-1.6-0.17-1.583,2.327,0,2.496
				c1.271,0.135-1.696,2.389-1.71,2.399c-0.583,0.42-0.603,0.891-0.741,1.59c-0.507,2.553-3.542,2.676-5.446,2.555
				c-0.342-1.012-0.06-1.639,0.847-1.88c0.501-0.298,0.997-0.604,1.488-0.918c1.051-0.66,0.629-2.301-0.63-2.326
				c-2.149-0.042-4.291-0.235-6.032-1.634c-1.812-1.456,1.189-1.642,1.707-1.671c2.146-0.123,4.806,0.925,6.537,2.066
				c0.914,0.602,2.938-0.092,3.98-0.181C1420.167,712.119,1420.181,709.622,1418.576,709.759z"/>
		</g>
	</g>
	<g>
		<g>
			<path fill="#1D1B3A" d="M1412.67,714.62c-2.593,0.723-6.157-1.296-8.049-2.9c-2.92-2.475,5.392-1.006,6.314-0.785
				c4.845,1.161,10.171,3.389,15.231,2.668c1.588-0.226,0.91-2.63-0.664-2.406c-4.446,0.633-9.645-1.604-13.904-2.669
				c-2.195-0.549-7.092-2.233-9.1-0.273c-4.98,4.86,7.066,9.822,10.835,8.771C1414.882,716.595,1414.224,714.187,1412.67,714.62
				L1412.67,714.62z"/>
		</g>
	</g>
	<g>
		<g>
			<path fill="#1D1B3A" d="M1413.198,714.375c-1.74,0.493-3.478,1.062-5.09,1.892c-0.902,0.465-1.889,1.11-2.378,2.033
				c-1.028,1.938,0.818,3.349,2.508,3.788c4.171,1.085,10.105-0.698,10.978-5.441c0.289-1.573-2.115-2.245-2.406-0.663
				c-0.301,1.635-1.375,2.685-2.757,3.25c-0.767,0.313-1.83,0.539-2.401,0.595c-0.407,0.04-0.816,0.05-1.226,0.043
				c-0.195-0.003-0.39-0.016-0.584-0.03c-0.112-0.009-0.225-0.021-0.337-0.034c0.296,0.034-0.058-0.012-0.1-0.019
				c-0.326-0.055-0.648-0.137-0.963-0.243c-0.351-0.117,0.133,0.079-0.184-0.073c-0.139-0.066-0.27-0.147-0.395-0.236
				c0.315,0.222,0.027,0.005-0.045-0.075c0.298,0.333-0.051-0.251,0.114,0.196c-0.106-0.289-0.009,0.308,0.001-0.004
				c-0.012,0.361-0.035,0.219,0.001,0.094c0.066-0.235-0.139,0.279-0.017,0.05c0.152-0.289-0.146,0.132,0.096-0.139
				c0.111-0.125,0.238-0.234,0.366-0.341c-0.165,0.138,0.275-0.184,0.347-0.23c0.253-0.161,0.519-0.302,0.785-0.439
				c1.368-0.705,2.875-1.148,4.35-1.567C1415.408,716.343,1414.75,713.935,1413.198,714.375L1413.198,714.375z"/>
		</g>
	</g>
	<g>
		<path fill="#1D1B3A" d="M1472.275,768.718c0,0,15.18,8.018,18.04,28.753c10.67,77.363-10.672,139.387-10.672,139.387
			l-10.671,0.667c0,0,8.67-90.036,0.668-112.711C1461.637,802.139,1466.906,766.643,1472.275,768.718z"/>
		<g>
			<path fill="#1D1B3A" d="M1471.646,769.795c14.875,8.02,17.488,25.844,18.963,40.939c2.321,23.762,1.794,47.789-0.947,71.489
				c-1.775,15.351-4.605,30.632-8.626,45.556c-0.749,2.783-1.547,5.556-2.444,8.294c-0.048,0.147-0.097,0.293-0.146,0.439
				c0.364-1.07,1.813-0.942,0.319-0.849c-0.723,0.045-1.446,0.09-2.17,0.136c-2.54,0.159-5.081,0.317-7.621,0.476
				c0.416,0.416,0.832,0.832,1.248,1.248c2.387-24.859,3.96-49.905,4.058-74.881c0.051-12.962,0.355-26.983-3.857-39.412
				c-3.505-10.336-3.998-21.739-3.457-32.554c0.074-1.476,1.785-21.59,4.979-20.758c1.56,0.406,2.22-2.001,0.664-2.406
				c-9.905-2.58-8.198,35.664-7.84,39.737c0.751,8.533,3.851,16.298,5.298,24.635c1.324,7.633,1.523,15.495,1.667,23.222
				c0.508,27.449-1.385,55.099-4.008,82.417c-0.062,0.648,0.615,1.288,1.248,1.248c3.557-0.223,7.114-0.445,10.671-0.667
				c0.586-0.037,1.013-0.36,1.203-0.917c7.61-22.223,10.93-46.41,12.73-69.71c1.812-23.445,1.081-47.042-2.059-70.34
				c-1.535-11.391-8.14-23.852-18.613-29.499C1471.489,766.876,1470.229,769.031,1471.646,769.795z"/>
		</g>
	</g>
	<g>
		<path fill="#F4EDE1" d="M1477.975,929.025c1.42,12.763,12.764,20.563,8.511,34.037c-2.837,9.216-8.511,17.015-12.055,25.526
			c-7.8-7.8-4.254-26.236-4.254-35.454c-1.418,2.837-3.299,12.769-5.427,15.605c-2.868-7.223-1.633-22.337,2.338-28.151
			c5.726-8.385,9.469-12.983,13.015-3.055"/>
		<g>
			<path fill="#1B1D3A" d="M1476.695,929.377c1.253,8.881,7.226,15.873,9.118,24.516c2.525,11.536-8.19,23.993-12.528,34.025
				c0.694-0.09,1.389-0.179,2.084-0.269c-7.973-8.72-3.987-23.881-3.866-34.516c0.015-1.242-1.918-1.917-2.472-0.669
				c-2.212,4.987-2.435,10.984-5.427,15.605c0.809,0.105,1.616,0.211,2.425,0.317c-2.298-6.423-1.809-13.847-0.404-20.412
				c0.64-2.992,1.821-5.573,3.545-8.078c1.227-1.783,2.517-3.505,3.987-5.096c2.972-3.215,4.682,0.56,5.666,3.084
				c0.614,1.576,3.181,0.891,2.559-0.705c-1.106-2.841-2.595-6.831-6.281-6.546c-4.007,0.309-7.234,6.488-9.158,9.284
				c-5.154,7.491-5.441,20.871-2.472,29.173c0.389,1.087,1.775,1.319,2.425,0.317c3.023-4.667,3.205-10.596,5.427-15.605
				c-0.824-0.223-1.648-0.446-2.472-0.669c-0.133,11.548-4.039,26.896,4.642,36.392c0.53,0.58,1.748,0.508,2.084-0.269
				c4.455-10.302,12.573-20.281,13.183-31.845c0.541-10.283-8.098-18.771-9.505-28.74
				C1479.016,926.984,1476.459,927.705,1476.695,929.377L1476.695,929.377z"/>
		</g>
	</g>
	<g>
		<g>
			<path fill="#1B1D3A" d="M1477.124,961.089c-0.944,7.874-2.472,16.17-2.332,24.106c0.029,1.709,2.683,1.712,2.652,0
				c-0.139-7.936,1.389-16.232,2.334-24.106C1479.981,959.393,1477.325,959.412,1477.124,961.089L1477.124,961.089z"/>
		</g>
	</g>
	<g>
		<path fill="#F4EDE1" d="M1330.667,795.966c-0.759,1.903-4.184,5.325-5.705,6.086c-6.467,2.282-8.748,2.284-14.836,4.945
			c-5.704,1.903-13.311,3.423-19.399,2.284c-2.662-0.382-20.922-2.664-23.584-3.044c-3.425-0.381-1.141-2.662,7.229-6.847
			c1.136-0.811,16.425-4.295,14.454-3.803c-4.187,1.141,13.694-1.902,16.737-5.326c0.38,0,0.761,0.38,0.761,0.38
			c-7.987,0-28.529,2.283-24.725-3.804c9.128-0.761,17.878-3.804,26.627-5.707c2.282-0.38,1.521-0.76,3.422,0
			c1.522,0.381,4.701,2.332,6.221,2.711c1.902,1.142,9.952,5.55,13.396,9.569"/>
		<g>
			<path fill="#1B1D3A" d="M1329.59,795.336c-2.507,4.86-7.003,6.273-11.935,7.675c-5.313,1.51-10.28,3.735-15.734,4.797
				c-7.843,1.527-16.272-0.444-24.105-1.441c-3.106-0.396-6.213-0.789-9.318-1.196c-0.341-0.044-0.682-0.09-1.022-0.138
				c-0.904-0.126-0.692,0.518-0.001-0.146c2.021-1.94,5.072-3.169,7.527-4.42c2.134-1.087,4.854-1.457,7.158-2.034
				c1.457-0.364,2.918-0.712,4.379-1.057c0.733-0.173,2.975-0.311,2.114-0.628c0-0.802,0-1.604,0-2.407
				c-0.504,0.131-0.928,0.267-1.341,0.589c-0.732,0.572-0.306,1.909,0.551,2.086c2.344,0.483,5.664-0.86,7.892-1.412
				c2.207-0.547,4.38-1.217,6.503-2.031c0.856-0.328,1.683-0.726,2.492-1.154c1.246-0.66,1.184-0.506,0.691-0.898
				c0.295-0.71,0.589-1.42,0.883-2.13c-5.072,0.04-10.133,0.437-15.208,0.415c-2.333-0.01-4.686-0.123-6.964-0.65
				c-2.537-0.587-0.51-1.284,1.079-1.491c1.921-0.251,3.819-0.635,5.716-1.021c4.156-0.847,8.251-2.008,12.358-3.061
				c2.15-0.551,4.313-1.047,6.483-1.519c1.649-0.358,4.072,1.366,5.5,2.065c5.424,2.657,10.933,5.683,15.094,10.161
				c1.098,1.181,2.859-0.587,1.766-1.765c-4.929-5.304-12.426-9.915-19.284-12.294c-4.049-1.405-7.896,0.349-11.976,1.394
				c-2.939,0.753-5.872,1.52-8.824,2.217c-3.521,0.831-7.359,0.844-10.797,1.79c-1.299,0.357-1.682,2.652-1.121,3.696
				c0.945,1.763,3.035,2.218,4.854,2.542c6.964,1.242,14.304,0.071,21.323,0.016c0.997-0.008,1.774-1.418,0.883-2.13
				c-0.436-0.347-0.781-0.508-1.312-0.701c-0.416-0.151-0.911,0.03-1.214,0.321c-2.177,2.085-5.815,2.799-8.633,3.572
				c-1.873,0.514-5.727,2.031-7.521,1.661c0.183,0.695,0.366,1.391,0.55,2.085c-0.584,0.456-0.041,0.125,0.239,0.053
				c1.275-0.332,1.101-2,0-2.407c-1.828-0.676-6.058,1.25-7.819,1.685c-3.895,0.96-7.24,1.977-10.778,3.858
				c-1.606,0.854-7.044,3.245-6.293,5.974c0.58,2.11,4.635,1.884,6.271,2.095c9.674,1.25,20.135,3.754,29.875,2.574
				c6.64-0.804,12.581-3.641,18.944-5.45c5.312-1.509,9.555-3.295,12.229-8.481C1332.481,795.168,1330.327,793.905,1329.59,795.336
				L1329.59,795.336z"/>
		</g>
	</g>
	<g>
		<g>
			<path fill="#1B1D3A" d="M1293.058,796.789c3.723,1.249,6.386,4.411,9.973,5.96c1.461,0.631,2.733-1.519,1.26-2.155
				c-3.799-1.641-6.605-4.882-10.568-6.211C1292.191,793.869,1291.54,796.28,1293.058,796.789L1293.058,796.789z"/>
		</g>
	</g>
	<g>
		<g>
			<path fill="#1B1D3A" d="M1279.267,804.396c6.182-1.537,12.382-2.988,18.64-4.183c1.579-0.302,0.909-2.707-0.664-2.406
				c-6.258,1.195-12.458,2.646-18.64,4.183C1277.042,802.377,1277.704,804.784,1279.267,804.396L1279.267,804.396z"/>
		</g>
	</g>
	<g>
		<g>
			<path fill="#1B1D3A" d="M1288.777,807.06c4.267-1.105,8.665-1.56,12.933-2.665c1.557-0.403,0.896-2.81-0.664-2.406
				c-4.267,1.104-8.665,1.56-12.933,2.665C1286.557,805.057,1287.218,807.464,1288.777,807.06L1288.777,807.06z"/>
		</g>
	</g>
</g>
</svg>
