<?xml version="1.0" encoding="utf-8"?>
<!-- Generator: Adobe Illustrator 16.0.4, SVG Export Plug-In . SVG Version: 6.00 Build 0)  -->
<!DOCTYPE svg PUBLIC "-//W3C//DTD SVG 1.1//EN" "http://www.w3.org/Graphics/SVG/1.1/DTD/svg11.dtd">
<svg version="1.1" id="Layer_1" xmlns="http://www.w3.org/2000/svg" xmlns:xlink="http://www.w3.org/1999/xlink" x="0px" y="0px"
	 width="2801.172px" height="1296.653px" viewBox="0 0 2801.172 1296.653" enable-background="new 0 0 2801.172 1296.653"
	 xml:space="preserve">
<g id="char2">
	<g>
		<g>
			<path fill="#F4EDE1" d="M1109.086,670.569c-14.157-4.969-28.712-10.299-42.134-17.337c3.144-47.418,0.596-125.558,0.596-125.558
				c12.757,0.732,65.124-8.194,64.872,5.664c-0.74,40.84,19.857,93.501,33.553,125.956c-4.111,6.07-8.593,11.919-12.688,18.463
				C1143.31,693.258,1123.137,676.441,1109.086,670.569z"/>
		</g>
		<g>
			<path fill="#F5F6F6" d="M1182.483,687.632c-0.614-1.509-1.079-3.096-1.424-4.708c-0.7-2.119-1.299-4.271-1.693-6.492
				c-0.088-0.501-0.058-0.96,0.045-1.377c-4.422-5.805-6.488-13.241-4.155-20.051c-1.63-1.301-3.377-2.662-5.282-4.095
				c-4.114,6.068-14.263,17.304-18.359,23.844c-9.978,15.503-30.145-1.313-44.201-7.187c-14.153-4.968-29.798-10.405-43.22-17.444
				c-2.763,8.424-19.015,25.047-22.482,27.669l117.719,96.43l25.606-80.137C1184.025,691.99,1183.186,689.836,1182.483,687.632z"/>
			<g>
				<path fill="#1B1D3A" d="M1183.65,687.311c-0.766-2.076-1.263-4.199-1.928-6.304c-0.55-1.739-0.34-5.267-1.267-6.562
					c-4.116-5.758-6.064-12.151-4.033-19.118c0.11-0.376,0.013-0.921-0.311-1.178c-1.827-1.449-3.669-2.875-5.527-4.284
					c-0.556-0.421-1.316-0.056-1.656,0.435c-5.088,7.321-11.214,13.87-16.475,21.067c-3.072,4.204-5.424,7.934-11.044,8.535
					c-4.975,0.532-10.242-1.821-14.628-3.847c-8.687-4.011-16.608-8.784-25.672-11.984c-12.355-4.362-24.648-8.969-36.306-14.992
					c-0.733-0.379-1.504-0.033-1.778,0.724c-2.187,6.021-6.936,11.208-11.081,15.949c-3.411,3.9-7.006,7.966-11.091,11.187
					c-0.483,0.381-0.469,1.328,0,1.712c37.512,30.728,75.022,61.455,112.534,92.183c1.729,1.416,3.457,2.832,5.185,4.248
					c0.708,0.58,1.729,0.39,2.023-0.534c4.521-14.145,9.04-28.289,13.56-42.434c2.954-9.245,5.908-18.49,8.862-27.735
					c0.881-2.756,1.761-5.513,2.642-8.269C1186.713,692.812,1184.78,690.668,1183.65,687.311c-0.495-1.472-2.834-0.84-2.334,0.644
					c1.076,3.2,2.871,4.812,1.91,7.821c-0.848,2.652-1.695,5.305-2.543,7.957c-2.954,9.245-5.908,18.49-8.862,27.735
					c-4.52,14.145-9.039,28.289-13.559,42.434c0.674-0.178,1.349-0.356,2.023-0.534c-37.512-30.728-75.022-61.455-112.534-92.183
					c-1.729-1.416-3.457-2.832-5.185-4.248c0,0.571,0,1.141,0,1.712c4.417-3.483,8.232-7.919,11.92-12.135
					c4.173-4.772,8.684-10.036,10.873-16.068c-0.593,0.241-1.186,0.482-1.778,0.724c11.846,6.12,24.337,10.784,36.885,15.235
					c10.57,3.75,19.837,9.9,30.255,13.94c7.27,2.819,16.218,3.243,21.171-3.876c5.993-8.615,13.144-16.338,19.126-24.947
					c-0.552,0.145-1.104,0.29-1.656,0.435c1.165,0.883,4.803,2.465,4.265,4.309c-0.318,1.094-0.403,2.402-0.52,3.527
					c-0.343,3.329,0.612,6.765,1.783,9.83c0.949,2.484,2.777,4.495,3.309,7.133c0.758,3.772,1.785,7.591,3.117,11.2
					C1181.852,689.406,1184.192,688.779,1183.65,687.311z"/>
			</g>
		</g>
		<g>
			<path fill="#1D1B3A" d="M1134.586,725.473c-0.023-1.378,0.079-2.734,0.254-4.075c-0.271-0.386-0.421-0.866-0.352-1.433
				c0.967-7.809,0.959-16.279,4.438-23.5c-0.178-0.917,0.285-1.637,0.968-2.018c-1.124-4.709-2.66-9.347-5.03-13.599
				c2.106-1.723,4.214-3.433,5.98-5.521c0.515-0.607,0.741-1.258,0.77-1.89c0.018,0,0.033,0.003,0.05,0.003
				c0.184,0.335,0.446,0.655,0.819,0.947c0.688,0.534,1.377,1.062,2.067,1.588c1.358,1.204,2.82,2.294,4.335,3.328
				c-0.135,0.353-0.357,0.672-0.654,0.918c0.064,0.386-0.01,0.807-0.3,1.245c-2.803,4.251-2.317,9.641-3.659,14.392
				c0.864-0.093,1.807,0.267,2.226,1.264c2.681,6.376,4.431,12.94,5.589,19.621c0.361,0.306,0.623,0.747,0.674,1.339
				c0.705,8.529,2.246,16.956,3.103,25.467c0.368,3.639,0.701,7.417,0.327,11.062c1.284,8.345,1.262,17.023,1.563,25.241
				c0.083,2.295-3.03,2.633-3.863,0.877c-0.875,1.313-3.208,0.703-3.612-0.933c-0.264-0.208-0.485-0.486-0.633-0.837
				c-0.513-1.227-0.994-2.462-1.455-3.699c-0.873,0.078-1.829-0.341-2.234-1.308c-0.588-1.405-1.136-2.819-1.643-4.241
				c-0.887,0.087-1.806-0.312-2.069-1.337c-0.082-0.321-0.143-0.638-0.212-0.954c-0.302-0.303-0.511-0.718-0.531-1.265l-0.021-0.571
				c-0.071-0.602-0.131-1.202-0.194-1.804c-0.072-0.113-0.136-0.229-0.188-0.367
				C1136.416,751.239,1134.797,738.414,1134.586,725.473z"/>
			<g>
				<path fill="#1B1D3A" d="M1135.797,725.473c0.076-6.314,0.446-12.595,1.394-18.865c0.532-3.516,1.976-6.449,2.902-9.822
					c0.222-0.805,1.198-1.742,0.968-2.661c-0.74-2.953-1.611-5.823-2.693-8.669c-1.465-3.854-2.112-4.074,1.071-6.923
					c0.784-0.702,1.9-1.687,2.45-2.594c1.503-2.479,0.201-0.158-0.263-0.694c1.68,1.941,4.535,3.616,6.647,5.106
					c-0.145-0.552-0.289-1.104-0.434-1.656c-3.503,4.915-3.358,11.214-4.735,16.844c-0.197,0.806,0.374,1.473,1.167,1.532
					c2.177,0.162,3.678,7.562,4.169,9.18c1.073,3.542,1.816,7.179,2.479,10.816c1.144,6.292,2.004,12.786,2.866,19.205
					c0.984,7.323,0.784,14.67,1.669,21.936c0.439,3.611,0.6,7.258,0.751,10.89c0.074,1.806,0.12,3.612,0.172,5.418
					c-0.005-0.167-0.053,7.272-1.631,5.36c-0.446-0.541-1.246-0.392-1.713,0c-1.595,1.337-3.373-4.135-3.677-4.936
					c-0.209-0.552-0.582-0.829-1.167-0.889c-1.488-0.152-2.306-3.56-2.71-4.661c-0.201-0.549-0.587-0.835-1.167-0.889
					c-1.92-0.176-1.481-4.352-1.982-5.331c-1.923-3.767-2.826-8.361-3.787-12.45C1136.602,742.46,1135.979,733.934,1135.797,725.473
					c-0.034-1.559-2.455-1.562-2.422,0c0.188,8.725,0.996,17.353,2.833,25.891c0.89,4.131,1.912,8.877,3.845,12.661
					c0.86,1.686,0.592,3.966,1.602,5.783c0.269,0.483,0.962,0.854,1.465,0.992c0.86,0.237,1.335,2.658,1.669,3.476
					c0.561,1.375,2.319,1.535,2.702,2.544c1.154,3.05,3.499,7.917,7.256,4.768c-0.571,0-1.142,0-1.713,0
					c1.159,1.404,2.878,1.93,4.551,0.95c2.422-1.418,1.274-5.905,1.214-8.022c-0.311-10.887-0.77-21.966-1.918-32.787
					c-0.965-9.09-2.343-18.244-3.957-27.125c-0.999-5.49-2.576-10.845-4.55-16.058c-0.864-2.283-1.563-3.708-4.102-3.896
					c0.389,0.511,0.778,1.021,1.167,1.532c1.312-5.366,1.151-11.579,4.491-16.266c0.407-0.57,0.066-1.303-0.434-1.656
					c-1.505-1.062-5.912-5.916-7.883-6.032c-0.51-0.03-1.062,0.389-1.167,0.889c-0.593,2.793-4.381,5.187-6.439,6.876
					c-0.428,0.351-0.425,1.02-0.188,1.467c0.858,1.627,6.184,11.167,4.412,12.939c-1.44,1.442-2.203,6.278-2.704,8.195
					c-1.928,7.387-2.06,15.328-2.151,22.879C1133.356,727.035,1135.777,727.033,1135.797,725.473z"/>
			</g>
		</g>
		<g>
			<path fill="#F4EDE1" d="M1340.487,679.132c4.472-4.673,9.344-11.496,4.347-15.855l0.182,1.204
				c-0.814,0.333-1.658,0.754-2.556,1.23l0.477-2.955c-2.276-0.807-17.356,0.432-18.98,2.338
				c-6.661,2.626-26.741,19.338-33.397,21.959l0.459-8.235c1.489-1.521,10.063-2.058,16.698-10.294
				c2.059-0.686,0.828-6.924,0.686-8.005c-0.54-4.1-0.23-2.126-3.985-3.789c-0.101,0.986-0.131,1.806-0.434,3.266
				c-1.868,3.067-4.624,4.566-8.522,5.688c-6.896,3.777-14.196,3.664-20.204,9.003c-6.25,6.507-5.519,19.333-6.072,27.842
				c-0.35,1.124-4.799,18.437-6.195,26.297c-0.172,1.022-1.722,8.155-2.367,8.53c0.296,2.686,4.566,4.833,5.006,5.261l12.786,4.791
				c0.601,0.937,6.587-16.915,7.257-16.282c2.825,0.306,6.517-4.695,9.261-4.484c0.261-0.018,14.033-4.567,38.403-36.817
				C1339.831,681.957,1342.023,679.495,1340.487,679.132z"/>
		</g>
		<g>
			<g>
				<path fill="#1D1B3A" d="M1291.316,687.078c7.297-7.137,17.231-12.027,26.151-16.783c7.062-3.766,16.864-10.635,25.129-8.257
					c1.388,0.399,1.976-1.757,0.594-2.154c-8.456-2.434-16.433,3.099-23.684,6.825c-10.153,5.216-21.524,10.724-29.771,18.79
					C1288.705,686.507,1290.286,688.086,1291.316,687.078L1291.316,687.078z"/>
			</g>
		</g>
		<g>
			<g>
				<path fill="#1D1B3A" d="M1302.063,656.997c-1.177,7.724-12.355,9.512-18.682,11.559c-5.036,1.63-9.515,3.889-12.448,8.442
					c-3.312,5.141-3.478,12.139-3.764,18.03c-0.23,4.746,0.113,9.371-0.815,14.076c-0.772,3.917-2.14,7.725-3.403,11.502
					c-1.575,4.707-5.191,12.299-3.635,17.395c1.268,4.151,6.506,7.985,10.473,9.231c4.892,1.538,8.577,0.234,11.721-3.757
					c3.112-3.951,4.807-12.869,10.483-13.661c1.422-0.198,0.814-2.351-0.594-2.154c-10.765,1.501-8.11,23.328-22.267,16.835
					c-2.6-1.192-5.346-3.289-7.057-5.588c-2.099-2.819,0.144-8.205,0.954-11.166c1.815-6.631,4.476-12.954,5.811-19.723
					c2.589-13.123-3.13-30.039,12.611-36.414c7.509-3.041,21.268-4.174,22.766-14.012
					C1304.433,656.182,1302.279,655.576,1302.063,656.997L1302.063,656.997z"/>
			</g>
		</g>
		<g>
			<g>
				<path fill="#1D1B3A" d="M1303.492,657.138c5.221,3.752,6.562,8.413,1.935,13.249c-2.616,2.735-6.382,4.62-9.983,5.634
					c-2.529,0.711-4.396,0.762-5.543,3.439c-1.286,3.002,0.015,6.471-1.637,9.404c-0.707,1.257,1.223,2.383,1.93,1.128
					c2.147-3.815-0.461-10.758,5.062-11.641c3.596-0.575,7.42-2.688,10.171-4.989c7.017-5.869,6.573-12.849-0.807-18.153
					C1303.447,654.365,1302.333,656.305,1303.492,657.138L1303.492,657.138z"/>
			</g>
		</g>
		<g>
			<g>
				<path fill="#1D1B3A" d="M1342.815,664.035c2.287,2.107,3.635,4.354,1.304,6.924c-1.394,1.536-3.259,2.58-4.827,3.921
					c-1.097,0.938,0.491,2.511,1.58,1.58c2.137-1.828,4.652-3.188,6.144-5.662c1.873-3.106-0.346-6.249-2.62-8.344
					C1343.338,661.481,1341.754,663.057,1342.815,664.035L1342.815,664.035z"/>
			</g>
		</g>
		<g>
			<g>
				<path fill="#1D1B3A" d="M1335.86,677.145c1.87,0.666,3.673,1.493,5.517,2.228c-0.26-0.458-0.521-0.916-0.78-1.374
					c-1.497,5.288-6.549,9.911-10.004,13.987c-4.257,5.021-8.434,10.074-12.502,15.247c-3.061,3.89-6.378,7.449-10.172,10.634
					c-6.319,5.304-12.915,8.133-20.795,10.259c-1.39,0.375-0.8,2.53,0.594,2.154c7.31-1.972,13.081-4.31,19.21-8.819
					c4.882-3.592,8.98-7.924,12.742-12.648c4.462-5.603,8.996-11.111,13.628-16.575c3.355-3.958,7.998-8.504,9.453-13.645
					c0.18-0.635-0.218-1.15-0.78-1.374c-1.848-0.736-3.643-1.561-5.517-2.228C1335.094,674.505,1334.513,676.665,1335.86,677.145
					L1335.86,677.145z"/>
			</g>
		</g>
		<g>
			<g>
				<path fill="#1D1B3A" d="M1296.11,683.758c7.294,1.429,13.155,3.452,19.276,7.92c1.166,0.851,2.278-1.089,1.127-1.93
					c-6.306-4.603-12.291-6.671-19.81-8.145C1295.297,681.328,1294.697,683.481,1296.11,683.758L1296.11,683.758z"/>
			</g>
		</g>
		<g>
			<g>
				<path fill="#1D1B3A" d="M1343.48,663.388c-6.623,2.762-13.255,5.473-19.552,8.937c-3.536,1.945-6.621,4.559-10.163,6.478
					c-3.732,2.023-7.483,4.013-11.215,6.037c-1.268,0.687-0.14,2.617,1.127,1.93c6.42-3.481,12.584-6.981,18.7-10.927
					c6.724-4.337,14.347-7.234,21.696-10.3C1345.384,664.996,1344.81,662.833,1343.48,663.388L1343.48,663.388z"/>
			</g>
		</g>
		<g>
			<g>
				<path fill="#1D1B3A" d="M1313.396,694.554c8.637-4.944,15.865-11.877,23.658-17.986c1.134-0.889-0.46-2.458-1.58-1.58
					c-7.645,5.993-14.733,12.787-23.205,17.636C1311.019,693.34,1312.144,695.271,1313.396,694.554L1313.396,694.554z"/>
			</g>
		</g>
		<g>
			<polygon fill="#FFFFFF" points="1253.45,731.864 1266.058,715.718 1292.6,741.193 1277.844,754.422 			"/>
			<g>
				<path fill="#1D1B3A" d="M1254.24,732.654c4.202-5.382,8.405-10.764,12.607-16.146c-0.526,0-1.054,0-1.58,0
					c8.848,8.492,17.694,16.983,26.542,25.475c0-0.527,0-1.053,0-1.58c-4.919,4.41-9.837,8.819-14.756,13.229
					c0.526,0,1.054,0,1.58,0c-8.131-7.52-16.263-15.039-24.394-22.558c-1.056-0.977-2.64,0.6-1.58,1.58
					c8.131,7.52,16.263,15.039,24.394,22.558c0.466,0.431,1.113,0.418,1.58,0c4.919-4.41,9.837-8.819,14.756-13.229
					c0.447-0.401,0.422-1.175,0-1.58c-8.848-8.492-17.694-16.983-26.542-25.475c-0.398-0.382-1.199-0.487-1.58,0
					c-4.202,5.382-8.405,10.764-12.607,16.146C1251.784,732.195,1253.354,733.789,1254.24,732.654z"/>
			</g>
		</g>
		<g>
			<path fill="#1D1B3A" d="M1193.068,683.633c-0.311,4.679-8.021,86.307,15.651,82.009c23.673-4.299,46.013-44.135,46.013-44.135
				l31.968,30.778c0,0-43.571,54.806-87.081,42.598c-40.104-11.252-27.784-56.116-27.784-56.116"/>
			<g>
				<path fill="#1B1D3A" d="M1191.951,683.633c-0.72,10.331-1.379,20.637-1.439,31c-0.081,13.799-0.201,29.587,5.271,42.532
					c13.245,31.335,51.347-20.717,59.071-33.646c0.286-0.479,0.569-0.961,0.844-1.448c-0.585,0.075-1.17,0.151-1.755,0.226
					c10.656,10.259,21.312,20.519,31.968,30.778c0-0.527,0-1.053,0-1.58c-6.168,7.728-13.49,14.674-21.051,21.008
					c-14.807,12.406-33.117,23.09-52.961,23.031c-18.972-0.056-35.401-11.65-39.594-30.292c-1.877-8.344-1.638-17.893,0.607-26.178
					c0.378-1.393-1.778-1.983-2.154-0.594c-2.305,8.502-2.397,17.919-0.781,26.524c3.212,17.107,16.356,28.348,33.039,31.845
					c32.312,6.773,64.649-19.933,83.917-43.082c0.188-0.226,0.374-0.453,0.558-0.682c0.374-0.468,0.475-1.123,0-1.58
					c-10.656-10.259-21.312-20.519-31.968-30.778c-0.511-0.492-1.396-0.412-1.755,0.226c-6.527,11.587-14.868,22.574-24.564,31.665
					c-5.732,5.374-14.27,12.178-22.612,12.073c-5.273-0.067-8.027-6.178-9.51-10.354c-4.709-13.264-4.474-28.589-4.311-42.479
					c0.11-9.429,0.76-18.813,1.415-28.215C1194.286,682.194,1192.051,682.204,1191.951,683.633L1191.951,683.633z"/>
			</g>
		</g>
		<g>
			<path fill="#F4EEE5" d="M1121.617,559.407c5.863,7.441,43.077,18.134,37.831,26.701c-6.273,10.792-38.803-3.712-41.739-12.352"/>
			<g>
				<path fill="#1D1B3A" d="M1120.761,560.263c4.129,4.845,11.452,7.381,17.022,10.056c6.461,3.101,15.981,6.281,20.318,12.351
					c2.285,3.198-2.303,5.343-4.807,5.862c-4.428,0.917-9.377-0.478-13.579-1.776c-6.425-1.985-18.081-6.386-20.84-13.322
					c-0.569-1.433-2.912-0.809-2.334,0.644c2.99,7.52,13.515,11.725,20.464,14.309c6.682,2.485,18.644,5.741,23.487-1.667
					c3.972-6.073-8.306-11.838-11.919-13.76c-4.994-2.657-10.166-4.973-15.235-7.483c-3.689-1.828-8.139-3.724-10.865-6.924
					C1121.459,557.36,1119.755,559.082,1120.761,560.263L1120.761,560.263z"/>
			</g>
		</g>
		<g>
			<g>
				<path fill="#1D1B3A" d="M1122.328,609.91c0.915,0.147,3.092,0.323,3.107,1.604c0.013,1.036-1.201,2.153-1.851,2.821
					c-1.746,1.797-4.063,3.454-6.411,4.367c-1.438,0.56-0.813,2.901,0.645,2.335c3.452-1.342,6.827-3.812,9.012-6.81
					c2.583-3.546-0.307-6.082-3.857-6.652C1121.445,607.33,1120.79,609.663,1122.328,609.91L1122.328,609.91z"/>
			</g>
		</g>
		<g>
			<path fill="#F1EBE2" d="M1055.698,552.95c0.207,5.378,4.824,9.574,10.308,9.378c5.482-0.196,9.762-4.712,9.557-10.088
				c-0.209-5.375-4.826-9.572-10.309-9.377C1059.773,543.061,1055.493,547.579,1055.698,552.95z"/>
			<g>
				<path fill="#1B1D3A" d="M1054.487,552.95c1.316,14.055,22.048,13.484,22.286-0.71c0.104-6.256-5.781-10.489-11.52-10.588
					C1059.051,541.545,1054.585,547.147,1054.487,552.95c-0.026,1.562,2.396,1.56,2.422,0c0.185-11.04,16.409-11.7,17.442-0.71
					c1.036,11.014-16.419,11.639-17.442,0.71C1056.765,551.409,1054.342,551.396,1054.487,552.95z"/>
			</g>
		</g>
		<g>
			<path fill="#1B1D3A" d="M1082.559,560.252c-0.484-2.318-1.045-4.632-1.719-6.915c0.6-0.423,1.029-1.133,1.113-2.011
				c0.228-2.364-0.146-4.748-0.871-7.082c0.608-0.582,0.951-1.482,0.766-2.435c-1.062-5.436-3.652-10.106-6.738-14.687
				c-1.452-2.154-4.591-0.669-4.477,1.386c-0.684-0.336-1.402-0.633-2.184-0.867c-1.297-0.388-2.628,0.596-2.928,1.808
				c-1.616-0.159-3.406,1.288-2.65,3.015c0.331,0.754,0.688,1.493,1.061,2.221c-0.97,0.717-1.482,2.041-0.61,3.119
				c2.999,3.697,7.657,6.758,10.148,10.894c-1.633-0.331-3.56,1.069-2.881,2.982c0.78,2.194,1.805,4.341,3.138,6.258
				c-1.528-0.096-3.09,1.084-2.432,2.952c0.652,1.847,1.395,3.66,2.121,5.473c-0.929,0.535-1.564,1.55-1.111,2.696
				c0.885,2.214,1.845,4.392,2.745,6.595c-0.576,0.549-0.757,1.282-0.672,2.068c-0.331,2.262,2.322,3.398,3.806,2.437
				c1.642,0.35,3.124-1.614,2.583-3.089c-0.113-0.309-0.237-0.613-0.354-0.919c0.476-0.619,0.739-1.422,0.585-2.167
				c-0.233-1.125-0.538-2.227-0.877-3.316c0.925-0.562,1.57-1.749,1.337-2.854c-0.315-1.493-0.642-2.973-1.003-4.439
				C1081.845,563.255,1082.859,561.686,1082.559,560.252z"/>
			<g>
				<path fill="#1D1B3A" d="M1083.726,559.931c-0.359-1.652-1.984-5.291-1.091-6.817c0.913-1.558,0.583-3.667,0.451-5.339
					c-0.362-4.586-0.211-8.005-2.013-12.484c-0.993-2.469-3.553-9.33-6.485-10.122c-2.492-0.673-4.607,0.414-5.122,3.019
					c0.593-0.241,1.186-0.482,1.778-0.724c-1.745-0.78-4.863-2.073-6.164,0.282c-1.203,2.178-3.795,1.248-3.42,4.719
					c0.104,0.951,0.991,1.562,0.443,2.498c-0.697,1.189-0.402,2.016,0.051,3.164c0.567,1.441,2.273,2.685,3.354,3.736
					c2.467,2.398,4.985,4.558,6.916,7.446c0.348-0.607,0.696-1.214,1.045-1.821c-7.114-0.004-2.839,7.847-0.788,11.061
					c0.24-0.593,0.482-1.186,0.723-1.778c-1.328,0.188-3.595,1.042-3.433,2.857c0.17,1.907,0.846,3.45,1.549,5.243
					c0.591,1.505-0.141,1.462-0.503,2.778c-0.818,2.974,3.104,5.638,2.281,8.63c-0.521,1.893-0.021,3.542,1.445,4.728
					c3.018,2.441,7.396-0.533,7.233-3.936c-0.04-0.834-0.278-6.211-0.192-6.291c1.987-1.826,0.313-5.723-0.164-7.727
					c-0.281,0.497-0.563,0.993-0.846,1.489c2.108-0.742,2.98-2.037,2.994-4.291c0.009-1.562-2.412-1.561-2.422,0
					c-0.405,0.652-0.811,1.304-1.215,1.956c-0.64,0.225-1.008,0.812-0.846,1.489c0.396,1.661,1.556,4.664-0.023,6.115
					c-0.311,0.286-0.427,0.778-0.311,1.178c0.529,1.821,0.248,3.344,0.248,5.162c0.191,1.005-0.148,1.938-1.018,2.798
					c-0.98,0.197-1.846-0.212-2.595-1.227c-0.036-0.57,0.927-1.671,0.628-2.39c-0.608-1.467-3.631-6.678-1.944-8.114
					c0.294-0.251,0.458-0.812,0.311-1.178c-0.361-0.901-3.24-6.553-0.534-6.936c0.77-0.109,1.106-1.178,0.723-1.778
					c-0.451-0.708-4.727-7.42-1.302-7.418c0.876,0,1.564-1.044,1.045-1.821c-1.279-1.916-11.374-10.678-9.727-12.545
					c0.382-0.433,0.445-0.95,0.188-1.467c-1.151-2.322,2.155-5.813,5.045-4.52c0.66,0.295,1.613,0.112,1.778-0.724
					c2.095-0.663,3.443-0.107,4.048,1.668c0.866,1.374,1.611,2.811,2.345,4.258c0.938,1.855,1.556,3.782,2.124,5.767
					c1.201,4.189-0.445,2.009-0.445,3.721c0,1.423,0.832,4.027,0.934,5.306c0.348,4.417-0.686,1.841-1.132,3.465
					c-0.503,1.829,1.309,5.675,1.719,7.558C1081.723,562.1,1084.058,561.453,1083.726,559.931z"/>
			</g>
		</g>
		<g>
			<polygon fill="#FFFFFF" points="1141.437,674.415 1063.396,630.835 1054.57,655.063 1128.863,696.387 			"/>
			<g>
				<path fill="#1B1D3A" d="M1142.048,673.369c-26.014-14.526-52.027-29.053-78.04-43.58c-0.725-0.404-1.51-0.014-1.778,0.724
					c-2.942,8.076-5.885,16.152-8.826,24.228c-0.182,0.497,0.111,1.12,0.556,1.367c24.765,13.775,49.529,27.549,74.293,41.324
					c0.572,0.318,1.324,0.147,1.656-0.435c4.191-7.324,8.383-14.648,12.573-21.973c0.777-1.357-1.315-2.577-2.09-1.222
					c-4.191,7.324-8.383,14.648-12.573,21.973c0.552-0.145,1.104-0.29,1.656-0.435c-17.734-9.864-35.469-19.729-53.203-29.593
					c-6.959-3.871-13.918-7.742-20.877-11.613c-0.767-0.426,0.167,1.732,0.41,1.064c0.229-0.625,0.456-1.251,0.684-1.877
					c1.052-2.886,2.104-5.771,3.154-8.657c1.641-4.503,3.281-9.006,4.921-13.509c-0.593,0.241-1.186,0.482-1.778,0.724
					c26.014,14.526,52.027,29.053,78.04,43.58C1142.19,676.222,1143.41,674.13,1142.048,673.369z"/>
			</g>
		</g>
		<g>
			<path fill="#FFFFFF" d="M1141.437,674.415l19.12,18.18c0,0,13.536-43.744,11.816-43.113c-1.717,0.63-8.682-11.083-8.682-11.083
				L1141.437,674.415z"/>
			<g>
				<path fill="#1B1D3A" d="M1140.58,675.271c6.374,6.06,12.747,12.12,19.12,18.18c0.672,0.639,1.752,0.345,2.023-0.534
					c3.309-10.696,6.547-21.421,9.518-32.216c0.83-3.015,3.261-8.272,2.411-11.486c-0.142-0.535-0.663-0.941-1.214-0.943
					c-1.05-0.004-2.679-2.843-3.158-3.498c-1.637-2.238-3.121-4.605-4.544-6.985c-0.474-0.793-1.612-0.774-2.09,0
					c-7.419,12.005-14.837,24.011-22.255,36.016c-0.823,1.332,1.271,2.547,2.09,1.222c7.419-12.005,14.837-24.011,22.255-36.016
					c-0.696,0-1.394,0-2.09,0c2.029,3.396,4.924,9.889,8.782,11.504c1.78,0.746-0.11-0.885-0.122-0.504
					c-0.024,0.794-0.268,1.613-0.437,2.384c-0.626,2.859-1.419,5.685-2.195,8.506c-2.894,10.513-6.063,20.957-9.285,31.374
					c0.674-0.178,1.349-0.356,2.023-0.534c-6.374-6.06-12.747-12.12-19.12-18.18C1141.162,672.483,1139.447,674.193,1140.58,675.271
					z"/>
			</g>
		</g>
		<g>
			<g>
				<path fill="#1D1B3A" d="M1130.055,532.719c-0.586,5.274,0.506,10.801,1.394,15.99c1.205,7.051,2.892,14.371,5.66,20.968
					c0.595,1.417,2.938,0.796,2.334-0.644c-2.459-5.863-3.988-12.3-5.212-18.534c-1.124-5.724-2.404-11.928-1.754-17.781
					C1132.648,531.168,1130.226,531.185,1130.055,532.719L1130.055,532.719z"/>
			</g>
		</g>
		<g>
			<g>
				<path fill="#1D1B3A" d="M1142.247,591.903c5.861,16.203,12.758,32.517,13.591,49.945c0.074,1.554,2.496,1.562,2.422,0
					c-0.845-17.668-7.734-34.16-13.679-50.589C1144.055,589.803,1141.714,590.431,1142.247,591.903L1142.247,591.903z"/>
			</g>
		</g>
		<g>
			<g>
				<path fill="#1D1B3A" d="M1067.04,558.08c-2.199,2.228-2.042,5.407-1.804,8.333c0.442,5.439,1.275,10.343,0.922,15.875
					c-0.985,15.422,0.044,30.914-0.184,46.367c-0.022,1.562,2.398,1.56,2.422,0c0.189-12.92-0.616-25.873-0.258-38.776
					c0.154-5.562,1.169-11.237,0.488-16.789c-0.44-3.595-2.827-10.307,0.126-13.298C1069.85,558.68,1068.139,556.967,1067.04,558.08
					L1067.04,558.08z"/>
			</g>
		</g>
		<g>
			<g>
				<path fill="#1D1B3A" d="M1064.934,559.947c-6.339-0.139-12.119-3.438-8.692-10.319c2.553-5.125,8.759-8.253,13.896-4.906
					c1.312,0.855,2.525-1.242,1.223-2.091c-6.513-4.242-14.242-0.181-17.431,6.219c-1.422,2.855-1.702,6.253-0.032,9.055
					c2.193,3.679,7.174,4.379,11.036,4.463C1066.496,562.402,1066.492,559.981,1064.934,559.947L1064.934,559.947z"/>
			</g>
		</g>
		<g>
			<g>
				<path fill="#1D1B3A" d="M1065.698,549.731c2.404,1.177,1.888,3.604-0.362,4.587c-1.428,0.625-0.193,2.71,1.223,2.091
					c3.892-1.702,4.298-6.842,0.362-8.769C1065.524,546.957,1064.296,549.044,1065.698,549.731L1065.698,549.731z"/>
			</g>
		</g>
		<g>
			<g>
				<path fill="#1D1B3A" d="M1141.355,672.69c-13.75-5.421-26.713-13.854-39.457-21.235c-12.582-7.288-25.517-14.431-37.395-22.847
					c-1.277-0.905-2.485,1.196-1.223,2.091c12.204,8.647,25.507,15.961,38.434,23.448c12.599,7.297,25.405,15.52,38.996,20.878
					C1142.166,675.598,1142.79,673.256,1141.355,672.69L1141.355,672.69z"/>
			</g>
		</g>
		<g>
			<path fill="#1D1B3A" d="M1195.099,673.906c-3.968-8.268-16.96-8.953-21.513-17.001c-2.728,12.524-0.207,40.244-4.538,65.317
				c-5.018,29.044-17.679,54.28-17.428,54.731c0,0-13.31-26.071-36.834-59.22c-25.294-34.267-24.41-34.158-62.666-63.245
				c0.052-0.027-15.434,4.917-20.494,22.569c-0.464,1.622,0.209,13.722-0.416,15.587c-8.134,13.577,6.335,31.362,20.041,32.93
				c11.446,15.851,19.38,53.194,23.23,96.608c15.377,9.312,28.884,16.678,28.884,16.678c-4.563,11.49-19.367,23.636-27.526,29.561
				c-0.84,18.955-3.108,26.104-3.559,26.107l103.857,3.598C1176.138,898.126,1199.475,728.129,1195.099,673.906z"/>
			<g>
				<path fill="#1B1D3A" d="M1196.144,673.295c-4.708-8.649-16.385-8.881-21.513-17.001c-0.522-0.828-1.993-0.792-2.212,0.289
					c-1.922,9.486-1.521,19.461-1.729,29.088c-0.303,13.975-1.069,27.893-3.834,41.625c-2.416,11.994-6.203,23.709-10.59,35.115
					c-1.372,3.569-2.846,7.098-4.353,10.611c-0.486,1.134-1.483,2.651-1.504,3.931c0.752-0.204,1.504-0.407,2.256-0.611
					c-7.436-14.527-16.177-28.46-25.122-42.089c-11.353-17.297-23.413-35.315-37.782-50.333
					c-5.703-5.96-12.132-11.186-18.592-16.294c-4.246-3.358-8.55-6.645-12.853-9.93c-2.281-1.743-4.652-5.173-7.667-3.939
					c-6.299,2.578-11.538,7.202-15.436,12.719c-2.223,3.146-4.538,7.526-4.91,11.417c-0.391,4.092,0.05,8.296-0.06,12.405
					c-0.072,2.72-1.856,5.315-2.372,8.041c-0.585,3.094-0.049,6.279,0.833,9.252c1.951,6.574,7.068,12.003,12.696,15.655
					c2.528,1.641,5.42,2.698,8.352,3.322c2.221,0.472,3.868,5.131,4.812,7.005c3.465,6.885,5.779,14.354,7.832,21.759
					c5.352,19.309,8.101,39.364,10.152,59.255c0.184,1.782-0.409,7.596,1.321,8.641c4.748,2.866,9.522,5.685,14.323,8.463
					c4.822,2.791,9.67,5.544,14.561,8.215c-0.145-0.552-0.289-1.104-0.434-1.656c-2.846,6.67-7.659,12.118-12.774,17.159
					c-4.501,4.434-10.148,7.742-14.563,12.157c-1.329,1.33-0.646,6.213-0.774,8.038c-0.242,3.441-0.6,6.876-1.083,10.292
					c-0.188,1.324-1.093,7.409-1.456,7.587c-1.138,0.559-0.519,2.217,0.611,2.256c34.619,1.199,69.238,2.398,103.857,3.598
					c0.482,0.017,1.097-0.377,1.167-0.889c7.856-57.267,14.716-114.894,18.27-172.597c1.061-17.225,2.081-34.707,0.735-51.945
					c-0.121-1.546-2.543-1.558-2.422,0c2.547,32.609-1.407,66.146-4.429,98.589c-3.207,34.435-7.198,68.8-11.574,103.104
					c-0.928,7.282-1.873,14.562-2.864,21.836c-0.143,1.047,1.846-0.494,0.668-0.535c-1.266-0.044-2.531-0.088-3.798-0.132
					c-5.293-0.183-10.586-0.367-15.879-0.55c-27.327-0.947-54.654-1.894-81.982-2.84c-0.583-0.021-1.166-0.041-1.749-0.061
					c0.204,0.752,0.407,1.504,0.611,2.256c1.316-0.646,1.566-3.557,1.819-4.729c1.318-6.112,1.756-12.446,2.146-18.669
					c0.162-2.595,0.319-3.226,2.32-4.74c1.109-0.84,2.198-1.706,3.286-2.574c3.055-2.438,5.972-5.04,8.795-7.741
					c5.286-5.06,10.259-10.865,13.152-17.649c0.253-0.592,0.197-1.311-0.434-1.656c-8.603-4.698-17.085-9.622-25.502-14.643
					c-3.902-2.327-3.276-6.376-3.698-10.462c-0.38-3.689-0.815-7.374-1.271-11.055c-0.876-7.08-1.933-14.137-3.143-21.167
					c-2.099-12.191-4.801-24.336-8.771-36.064c-1.395-4.121-3.038-8.159-4.937-12.073c-1.296-2.671-3.021-7.639-6.259-8.117
					c-12.033-1.777-22.889-15.652-19.627-27.696c0.476-1.758,1.575-3.012,1.809-4.798c0.228-1.754,0.129-3.584,0.123-5.348
					c-0.016-5.259-0.197-9.231,2.008-14.147c3.257-7.263,9.773-13.5,17.21-16.403c1.15-0.449,9.682,7.394,11.37,8.692
					c4.481,3.45,8.931,6.942,13.282,10.556c16.246,13.494,28.562,30.873,40.565,48.092c12.125,17.393,23.764,35.484,33.438,54.383
					c0.567,1.108,2.237,0.543,2.256-0.611c0.013-0.838,1.557-3.603,2.063-4.792c1.45-3.408,2.835-6.841,4.164-10.298
					c4.46-11.596,8.038-23.528,10.491-35.709c2.463-12.229,3.131-24.738,3.48-37.179c0.294-10.475-0.368-21.424,1.723-31.748
					c-0.737,0.097-1.475,0.193-2.212,0.289c5.163,8.177,16.909,8.547,21.513,17.001
					C1194.8,675.888,1196.891,674.667,1196.144,673.295z"/>
			</g>
		</g>
		<g>
			<path fill="#1D1B3A" d="M1106.288,836.553c0,0-13.505-7.367-28.882-16.68c0.709,7.988-0.3,22.162-0.517,30.978
				c-0.208,8.542,1.854,25.07,1.593,31.001C1086.643,875.928,1101.726,848.042,1106.288,836.553z"/>
			<g>
				<path fill="#1B1D3A" d="M1106.899,835.508c-9.756-5.33-19.366-10.935-28.882-16.68c-0.744-0.449-1.893,0.119-1.822,1.045
					c0.816,10.663-0.387,21.374-0.53,32.04c-0.136,9.999,1.876,19.947,1.606,29.939c-0.022,0.839,1.08,1.615,1.822,1.045
					c6.48-4.978,10.896-12.976,15.014-19.858c5.009-8.374,9.688-17.108,13.348-26.165c0.586-1.448-1.757-2.072-2.334-0.644
					c-3.257,8.057-7.44,15.775-11.765,23.3c-4.146,7.215-8.753,16.105-15.485,21.275c0.607,0.349,1.215,0.697,1.822,1.045
					c0.259-9.598-1.409-19.209-1.602-28.808c-0.222-11.062,1.373-22.104,0.525-33.172c-0.607,0.349-1.215,0.697-1.822,1.045
					c9.516,5.745,19.127,11.35,28.882,16.68C1107.048,838.348,1108.27,836.257,1106.899,835.508z"/>
			</g>
		</g>
		<g>
			<g>
				<path fill="#FBEA23" d="M1167.975,789.877c-1.369,0.104-3.01,0.288-3.879,1.49c-0.685,0.948-0.184,2.134,0.527,2.885
					c0.714,0.754,1.692,1.252,2.651,1.613c0.875,0.329,1.956,0.538,2.868,0.24c0.957-0.312,1.484-1.084,1.572-2.066
					c0.092-1.021-0.479-2.108-0.969-2.958c-0.778-1.353-2.871-0.134-2.09,1.222c0.096,0.167,0.188,0.334,0.275,0.505
					c0.043,0.083,0.27,0.589,0.123,0.24c0.11,0.264,0.197,0.538,0.251,0.819c0.042,0.222-0.036-0.327-0.015-0.111
					c0.005,0.049,0.006,0.098,0.007,0.146c0.001,0.046-0.001,0.091-0.004,0.137c-0.012,0.199,0.056-0.345,0.021-0.155
					c-0.024,0.129-0.159,0.384,0.038-0.038c-0.141,0.3,0.166-0.164,0.029-0.018c-0.198,0.212,0.256-0.166,0.057-0.041
					c-0.255,0.16,0.116-0.037,0.061-0.017c-0.073,0.026-0.148,0.043-0.225,0.058c-0.188,0.037,0.354-0.042,0.16-0.021
					c-0.057,0.006-0.114,0.008-0.171,0.01c-0.09,0.003-0.181-0.001-0.271-0.006c-0.048-0.002-0.095-0.007-0.142-0.012
					c-0.208-0.021,0.34,0.049,0.13,0.018c-0.221-0.033-0.438-0.087-0.652-0.149c-0.209-0.061-0.414-0.135-0.615-0.217
					c0.417,0.168,0.031,0.011-0.064-0.034c-0.115-0.054-0.229-0.113-0.342-0.174c-0.188-0.101-0.37-0.214-0.547-0.333
					c-0.089-0.061-0.399-0.303-0.041-0.021c-0.088-0.069-0.173-0.143-0.255-0.219c-0.066-0.062-0.129-0.126-0.19-0.193
					c-0.028-0.031-0.057-0.064-0.084-0.097c-0.122-0.146,0.199,0.267,0.09,0.115c-0.045-0.062-0.084-0.128-0.12-0.196
					c-0.108-0.2,0.108,0.353,0.02,0.03c-0.062-0.229,0.019,0.385,0.016,0.1c-0.003-0.229-0.09,0.378-0.01,0.107
					c0.011-0.035-0.179,0.325-0.02,0.084c-0.246,0.372-0.1,0.125,0.018,0.026c-0.361,0.303,0.022,0.01,0.161-0.055
					c0.177-0.083-0.318,0.122-0.021,0.014c0.104-0.037,0.209-0.067,0.315-0.097c0.227-0.062,0.459-0.106,0.69-0.144
					c0.135-0.02,0.116-0.019-0.055,0.004c0.063-0.008,0.126-0.016,0.189-0.022c0.169-0.02,0.34-0.034,0.51-0.047
					c0.658-0.05,1.211-0.513,1.211-1.21C1169.186,790.466,1168.634,789.827,1167.975,789.877L1167.975,789.877z"/>
			</g>
		</g>
		<g>
			<g>
				<path fill="#FBEA23" d="M1137.342,789.113c-1.604,0.936-2.785,2.758-2.482,4.662c0.331,2.093,2.592,3.085,4.523,2.744
					c1.655-0.292,2.828-1.62,3.047-3.26c0.243-1.814-0.917-3.431-2.502-4.195c-1.4-0.674-2.629,1.414-1.223,2.091
					c0.669,0.322,1.287,0.786,1.339,1.58c0.04,0.625-0.325,1.171-0.918,1.367c-0.702,0.232-1.702,0.001-1.901-0.773
					c-0.217-0.843,0.711-1.759,1.34-2.125C1139.912,790.418,1138.693,788.325,1137.342,789.113L1137.342,789.113z"/>
			</g>
		</g>
		<g>
			<g>
				<path fill="#FBEA23" d="M1166.798,817.023c-1.642-1.432-4.825-3.908-6.924-1.819c-1.432,1.426-0.974,3.878-0.227,5.514
					c0.645,1.411,1.856,2.514,3.431,2.679c2.051,0.215,3.675-1.74,4.654-3.262c0.358-0.555,0.117-1.333-0.434-1.656
					c-0.588-0.344-1.3-0.119-1.656,0.435c-0.106,0.165-0.216,0.328-0.329,0.489c-0.053,0.075-0.107,0.149-0.163,0.224
					c-0.183,0.246,0.16-0.2-0.026,0.032c-0.211,0.263-0.441,0.511-0.688,0.741c-0.072,0.067-0.447,0.369-0.116,0.114
					c-0.098,0.075-0.199,0.144-0.304,0.21c-0.096,0.061-0.196,0.115-0.297,0.166c-0.082,0.041-0.285,0.122,0.094-0.035
					c-0.062,0.026-0.127,0.048-0.191,0.069c-0.092,0.03-0.187,0.052-0.281,0.071c-0.203,0.04,0.342-0.04,0.138-0.017
					c-0.045,0.005-0.09,0.007-0.135,0.009c-0.089,0.004-0.177,0-0.266-0.008c-0.198-0.017,0.347,0.053,0.15,0.02
					c-0.057-0.01-0.112-0.023-0.168-0.038c-0.083-0.021-0.164-0.05-0.244-0.082c0.435,0.169,0.121,0.049,0.017-0.008
					c-0.077-0.042-0.15-0.09-0.223-0.14c-0.077-0.053-0.229-0.176,0.102,0.083c-0.047-0.037-0.093-0.077-0.138-0.117
					c-0.14-0.123-0.266-0.26-0.384-0.403c-0.13-0.157,0.195,0.258,0.071,0.095c-0.028-0.039-0.057-0.078-0.084-0.118
					c-0.066-0.093-0.127-0.19-0.186-0.288c-0.103-0.171-0.192-0.349-0.275-0.53c-0.117-0.257,0.117,0.302-0.013-0.036
					c-0.042-0.109-0.079-0.221-0.115-0.333c-0.061-0.19-0.109-0.385-0.149-0.581c-0.021-0.096-0.037-0.193-0.052-0.29
					c-0.032-0.209,0.043,0.338,0.019,0.129c-0.008-0.063-0.013-0.126-0.018-0.19c-0.015-0.185-0.017-0.37-0.008-0.554
					c0.004-0.088,0.013-0.176,0.022-0.264c-0.058,0.495-0.012,0.109,0.017-0.012c0.021-0.092,0.048-0.182,0.079-0.271
					c0.076-0.222-0.163,0.324,0.001,0.007c0.039-0.077,0.086-0.149,0.136-0.219c-0.273,0.381-0.093,0.121,0.002,0.031
					c0.158-0.15-0.309,0.198-0.018,0.019c0.295-0.181-0.234,0.075-0.022,0c0.086-0.03,0.176-0.049,0.267-0.064
					c-0.495,0.081-0.077,0.02,0.065,0.026c0.354,0.015-0.299-0.063,0.067,0.008c0.127,0.025,0.252,0.061,0.376,0.1
					c0.057,0.018,0.114,0.039,0.171,0.059c0.304,0.11-0.192-0.088,0.01,0c0.153,0.067,0.302,0.143,0.448,0.222
					c0.349,0.186,0.681,0.404,1.003,0.631c0.079,0.056,0.156,0.113,0.233,0.17c0.054,0.04,0.107,0.08,0.16,0.121
					c-0.11-0.085-0.11-0.084,0,0.002c0.234,0.186,0.462,0.379,0.687,0.576c0.497,0.434,1.223,0.49,1.713,0
					C1167.24,818.292,1167.295,817.457,1166.798,817.023L1166.798,817.023z"/>
			</g>
		</g>
		<g>
			<g>
				<path fill="#FBEA23" d="M1142.75,816.132c-0.48-1.033-1.161-2.315-2.255-2.814c-0.984-0.449-2.078-0.253-2.786,0.598
					c-1.192,1.436-1.513,3.716-1.033,5.491c0.328,1.218,1.225,2.164,2.528,2.23c1.609,0.083,3.085-1.328,4.102-2.394
					c1.076-1.129-0.634-2.844-1.713-1.712c-0.274,0.288-0.558,0.566-0.854,0.831c-0.127,0.113-0.259,0.221-0.393,0.327
					c0.281-0.223-0.156,0.105-0.24,0.16c-0.11,0.072-0.224,0.138-0.339,0.201c-0.096,0.052-0.495,0.22-0.077,0.049
					c-0.095,0.039-0.191,0.069-0.29,0.097c-0.046,0.013-0.092,0.022-0.138,0.032c-0.195,0.04,0.374-0.037,0.105-0.014
					c-0.081,0.006-0.161,0.004-0.241-0.002c0.468,0.037,0.195,0.031,0.065-0.007c-0.233-0.068,0.324,0.167,0.061,0.024
					c-0.297-0.16,0.179,0.167,0.016,0.024c-0.054-0.048-0.103-0.102-0.149-0.157c0.298,0.354,0.103,0.133,0.038,0.028
					c-0.042-0.068-0.077-0.139-0.11-0.211c-0.081-0.172,0.128,0.316,0.058,0.137c-0.021-0.052-0.038-0.106-0.057-0.16
					c-0.056-0.17-0.094-0.346-0.124-0.523c-0.047-0.275,0.037,0.352,0.001-0.006c-0.012-0.113-0.018-0.227-0.021-0.34
					c-0.007-0.2-0.002-0.399,0.011-0.599c0.006-0.101,0.016-0.201,0.027-0.302c0.01-0.095,0.042-0.308-0.019,0.122
					c0.01-0.066,0.021-0.132,0.032-0.198c0.067-0.396,0.175-0.785,0.326-1.156c-0.186,0.457,0.053-0.086,0.128-0.213
					c0.041-0.068,0.086-0.134,0.133-0.199c-0.276,0.383-0.083,0.107,0.003,0.018c0.271-0.28-0.232,0.126,0.047-0.041
					c0.231-0.139-0.246,0.09-0.117,0.042c0.048-0.018,0.099-0.03,0.149-0.041c-0.451,0.09-0.268,0.028-0.135,0.029
					c0.237,0.002-0.365-0.069-0.127-0.018c0.057,0.013,0.112,0.033,0.167,0.054c-0.427-0.166-0.186-0.078-0.082-0.017
					c0.093,0.054,0.315,0.239-0.031-0.037c0.064,0.051,0.124,0.108,0.183,0.165c0.066,0.063,0.127,0.132,0.188,0.201
					c0.025,0.03,0.051,0.06,0.075,0.091c0.149,0.182-0.181-0.242-0.036-0.045c0.336,0.457,0.597,0.967,0.836,1.479
					c0.278,0.599,1.127,0.744,1.656,0.435C1142.925,817.432,1143.029,816.73,1142.75,816.132L1142.75,816.132z"/>
			</g>
		</g>
		<g>
			<g>
				<path fill="#FBEA23" d="M1162.205,843.487c-0.356-0.697-0.369-1.644-0.947-2.222c-0.436-0.435-1.158-0.406-1.731-0.343
					c-0.838,0.091-1.604,0.362-2.224,0.95c-0.983,0.933-1.122,2.496-0.674,3.716c0.496,1.35,1.551,2.421,3.021,2.586
					c1.801,0.202,3.169-1.442,3.94-2.847c0.753-1.369-1.338-2.59-2.09-1.222c-0.179,0.324-0.371,0.637-0.59,0.935
					c0.149-0.204-0.111,0.122-0.143,0.156c-0.103,0.115-0.215,0.22-0.331,0.323c-0.165,0.146,0.195-0.128-0.084,0.059
					c-0.103,0.069-0.213,0.126-0.324,0.179c0.338-0.16,0.061-0.033-0.03-0.008c-0.041,0.011-0.083,0.021-0.125,0.029
					c-0.238,0.05,0.313-0.029,0.075-0.014c-0.08,0.005-0.16,0-0.24-0.006c0.422,0.033,0.093,0.008-0.023-0.026
					c-0.298-0.086,0.202,0.101,0.017,0.014c-0.089-0.042-0.173-0.095-0.256-0.149c-0.17-0.112,0.245,0.209,0.008,0.004
					c-0.077-0.067-0.148-0.142-0.218-0.217c-0.217-0.238,0.145,0.214-0.041-0.051c-0.062-0.087-0.115-0.179-0.166-0.271
					c-0.042-0.075-0.078-0.152-0.114-0.229c0.172,0.374,0.017,0.023-0.014-0.071c-0.026-0.081-0.047-0.164-0.066-0.247
					c-0.01-0.042-0.019-0.083-0.026-0.125c-0.047-0.24,0.035,0.314,0.008,0.072c-0.02-0.185-0.016-0.372,0.003-0.556
					c-0.058,0.565,0.225-0.525,0.007-0.025c0.032-0.073,0.072-0.142,0.113-0.21c0.16-0.269-0.183,0.192,0.032-0.042
					c0.062-0.067,0.3-0.256-0.01-0.019c0.089-0.068,0.187-0.123,0.284-0.175c0.178-0.094-0.276,0.095,0.045-0.015
					c0.126-0.043,0.257-0.07,0.387-0.095c-0.359,0.067,0.123-0.004,0.215-0.008c0.17-0.006,0.34,0.003,0.509,0.015
					c-0.349-0.2-0.697-0.399-1.045-0.6c0.323,0.626,0.434,1.342,0.759,1.977C1160.826,846.099,1162.916,844.874,1162.205,843.487
					L1162.205,843.487z"/>
			</g>
		</g>
		<g>
			<g>
				<path fill="#FBEA23" d="M1139.476,839.175c-1.216-0.617-2.812-1.358-4.207-0.908c-1.164,0.375-1.735,1.497-1.663,2.673
					c0.14,2.264,1.687,4.615,3.546,5.855c1.031,0.688,2.39,0.895,3.483,0.226c1.419-0.867,1.94-2.707,2.207-4.24
					c0.113-0.649-0.164-1.302-0.846-1.489c-0.589-0.162-1.375,0.195-1.488,0.846c-0.075,0.431-0.168,0.858-0.287,1.279
					c-0.051,0.178-0.11,0.354-0.174,0.528c-0.022,0.061-0.138,0.337-0.004,0.024c-0.041,0.096-0.087,0.189-0.134,0.283
					c-0.063,0.127-0.136,0.25-0.213,0.37c-0.035,0.055-0.073,0.108-0.112,0.161c0.218-0.299,0.092-0.12,0.035-0.055
					c-0.074,0.085-0.156,0.163-0.242,0.237c-0.164,0.142,0.253-0.184,0.078-0.063c-0.055,0.038-0.113,0.07-0.172,0.102
					c-0.243,0.13,0.312-0.098-0.02,0c-0.045,0.013-0.091,0.022-0.136,0.032c-0.201,0.04,0.343-0.038,0.139-0.02
					c-0.093,0.008-0.187,0.004-0.278-0.003c-0.207-0.016,0.34,0.053,0.134,0.017c-0.063-0.011-0.126-0.028-0.188-0.044
					c-0.106-0.029-0.461-0.175-0.042,0.003c-0.098-0.042-0.191-0.09-0.283-0.141c-0.097-0.053-0.19-0.112-0.281-0.173
					c-0.048-0.032-0.094-0.065-0.14-0.099c-0.165-0.119,0.257,0.208,0.016,0.01c-0.188-0.154-0.364-0.324-0.532-0.5
					c-0.087-0.091-0.171-0.186-0.253-0.282c-0.042-0.048-0.082-0.098-0.123-0.147c-0.205-0.25,0.118,0.159-0.009-0.009
					c-0.323-0.428-0.602-0.891-0.839-1.372c-0.055-0.112-0.105-0.225-0.155-0.339c0.172,0.397,0.002-0.009-0.032-0.104
					c-0.084-0.23-0.151-0.467-0.203-0.707c-0.024-0.112-0.074-0.515-0.016-0.038c-0.012-0.097-0.018-0.194-0.021-0.292
					c-0.003-0.091,0.002-0.182,0.01-0.273c0.017-0.199-0.054,0.346-0.02,0.151c0.009-0.054,0.022-0.107,0.038-0.16
					c0.083-0.3-0.169,0.28,0.019-0.029c0.127-0.209-0.193,0.229-0.077,0.097c0.077-0.087,0.288-0.223-0.075,0.041
					c0.042-0.031,0.088-0.056,0.134-0.08c0.161-0.084-0.348,0.126-0.096,0.045c0.057-0.019,0.116-0.03,0.175-0.042
					c-0.448,0.085-0.148,0.019-0.024,0.016c0.074-0.002,0.148,0.001,0.223,0.006c0.32,0.019-0.238-0.042-0.016-0.007
					c0.215,0.034,0.426,0.09,0.633,0.152c0.223,0.067,0.439,0.149,0.654,0.236c-0.291-0.117,0.114,0.053,0.165,0.076
					c0.165,0.076,0.328,0.157,0.49,0.24c0.589,0.299,1.309,0.159,1.656-0.435C1140.229,840.288,1140.063,839.474,1139.476,839.175
					L1139.476,839.175z"/>
			</g>
		</g>
		<g>
			<path fill="#1D1B3A" d="M1166.261,896.875c0,0-25.854,176.263-26.731,184.417c-2.166,20.193,73.588-0.662,77.471,17.631
				c4.528,21.34-107.305-0.699-107.305-0.699s4.272-15.936,4.847-14.158c1.138,3.52-15.815,5.77-14.564,2.887
				c14.285-32.967,55.301-194.6,42.598-196.831c-4.912-0.863-22.599-16.442-28.339-0.897
				c-20.665,55.96-31.562,229.535-31.562,229.535s-63.372,73.939-78.758,55c-15.383-18.936,59.566-53.877,59.566-53.877
				l-18.674-6.225c0,0,57.18-180.319,44.8-230.251C1087.186,873.632,1166.261,896.875,1166.261,896.875z"/>
			<g>
				<path fill="#1B1D3A" d="M1165.094,896.553c-7.4,50.449-14.793,100.9-22.07,151.368c-1.405,9.742-2.822,19.484-4.162,29.236
					c-0.308,2.24-0.832,4.562-0.366,6.809c0.843,4.07,5.499,5.83,9.027,6.721c13.962,3.531,29.615,1.037,43.85,1.164
					c6.508,0.059,13.749,0.055,19.847,2.637c3.288,1.391,6.621,5.342,3.327,8.484c-5.069,4.836-16.179,4.037-22.521,4.047
					c-11.741,0.02-23.494-1.174-35.138-2.572c-15.691-1.883-31.362-4.338-46.87-7.389c0.281,0.496,0.563,0.992,0.845,1.488
					c0.657-2.441,1.351-4.871,2.072-7.293c0.493-1.656,1.017-3.303,1.598-4.932c1.119-3.137-3.362-0.604-4.963-0.145
					c-1.899,0.545-3.886,0.777-5.853,0.875c-1.263,0.061-2.687,0.516-2.226-0.59c0.884-2.117,1.698-4.26,2.484-6.416
					c4.698-12.873,8.511-26.088,12.248-39.268c9.674-34.108,18.287-68.649,24.894-103.49c2.29-12.078,4.602-24.396,5.042-36.711
					c0.106-2.972,0.228-6.36-0.864-9.188c-1.146-2.97-5.284-3.621-7.802-5.003c-5.836-3.206-13.658-7.651-20.116-3.598
					c-5.058,3.174-6.46,12.239-7.971,17.568c-4.483,15.814-7.39,32.089-10.031,48.295c-6.097,37.393-10.045,75.149-13.431,112.874
					c-1.246,13.877-2.377,27.764-3.399,41.66c-0.289,3.928-0.567,7.857-0.832,11.787c-0.065,0.967-0.13,1.932-0.192,2.898
					c-0.079,1.209-0.204,0.615,0.219,0.125c-16.209,18.83-34.271,38.373-55.401,51.672c-4.66,2.934-10.168,6.023-15.836,5.98
					c-5.037-0.039-8.188-4.793-7.232-9.518c1.201-5.932,6.664-10.84,10.968-14.664c6.012-5.34,12.779-9.836,19.59-14.08
					c9.727-6.061,19.879-11.605,30.267-16.459c1.02-0.475,0.615-1.91-0.289-2.211c-6.225-2.076-12.449-4.15-18.674-6.225
					c0.281,0.496,0.563,0.992,0.845,1.488c16.568-52.277,31.2-105.756,40.809-159.766c2.761-15.519,5.064-31.221,5.68-46.988
					c0.235-6.024,0.16-12.086-0.591-18.074c-0.255-2.038-1.001-4.165-1.108-6.193c-0.035-0.669,3.39-0.731,3.845-0.74
					c13.729-0.269,28.271,4.397,41.453,7.71c9.986,2.51,19.934,5.203,29.815,8.095c0.021,0.006,0.041,0.012,0.062,0.018
					c1.501,0.441,2.138-1.896,0.643-2.335c-9.295-2.729-18.656-5.25-28.043-7.648c-13.604-3.475-27.695-7.384-41.773-8.21
					c-2.252-0.132-7.021-0.55-8.188,2.102c-0.612,1.39,0.189,3.143,0.453,4.534c0.536,2.836,0.786,5.722,0.955,8.601
					c0.862,14.667-1.029,29.553-3.171,44.032c-5.353,36.177-14.248,71.866-23.731,107.151
					c-5.926,22.045-12.224,44.004-19.041,65.789c-0.134,0.428-0.267,0.854-0.401,1.277c-0.208,0.654,0.238,1.287,0.845,1.49
					c6.225,2.074,12.449,4.15,18.674,6.225c-0.096-0.738-0.192-1.475-0.289-2.213c-8.683,4.057-17.143,8.652-25.397,13.512
					c-11.985,7.055-25.495,15.168-33.593,26.803c-4.881,7.012-4.056,17.934,6.126,18.893c4.895,0.461,9.979-2.041,14.148-4.289
					c6.222-3.355,11.89-7.754,17.338-12.227c11.726-9.619,22.455-20.484,32.763-31.59c2.854-3.076,5.668-6.189,8.43-9.35
					c0.861-0.986,1.183-1.592,1.267-2.887c1.538-23.656,3.525-47.289,5.774-70.889c3.651-38.327,7.89-76.734,14.958-114.599
					c2.683-14.374,5.686-28.905,10.719-42.668c4.354-11.907,17.367-2.674,24.484,0.851c2.863,1.418,3.411,1.334,3.753,4.851
					c1.037,10.636-1.452,22.007-3.235,32.424c-2.847,16.628-6.47,33.127-10.301,49.553c-7.525,32.262-15.74,64.593-26.31,96.011
					c-0.729,2.166-6.711,14.236-4.19,15.561c2.766,1.455,19.267-0.371,15.896-5.471c-0.312-0.473-0.811-0.682-1.367-0.557
					c-1.868,0.42-2.54,4.646-2.986,6.051c-0.953,3.002-1.802,6.041-2.619,9.082c-0.162,0.602,0.194,1.361,0.845,1.49
					c22.576,4.441,45.537,7.918,68.493,9.51c11.189,0.775,24.774,2.188,35.406-2.33c7.875-3.346,5.283-11.848-1.656-14.523
					c-12.865-4.961-28.929-2.484-42.374-2.32c-6.275,0.076-29.793,2.141-28.446-8.912c2.664-21.879,6.207-43.68,9.377-65.49
					c5.723-39.38,11.48-78.756,17.255-118.129C1167.652,895.669,1165.319,895.013,1165.094,896.553z"/>
			</g>
		</g>
		<g>
			<g>
				<path fill="#1D1B3A" d="M1110.093,545.524c-5.731,0.113-11.456,0.441-17.164,0.966c-1.541,0.142-1.556,2.564,0,2.421
					c5.708-0.525,11.433-0.853,17.164-0.966C1111.652,547.914,1111.655,545.493,1110.093,545.524L1110.093,545.524z"/>
			</g>
		</g>
		<g>
			<g>
				<path fill="#1D1B3A" d="M1139.418,547.225c-5.539-1.479-11.132-2.749-16.762-3.826c-1.525-0.292-2.177,2.042-0.645,2.335
					c5.631,1.076,11.224,2.347,16.762,3.826C1140.284,549.963,1140.925,547.627,1139.418,547.225L1139.418,547.225z"/>
			</g>
		</g>
		<g>
			<path fill="#1D1B3A" d="M1129.386,520.111c-3.217-2.623-6.407-4.442-9.618-5.695c-10.709-6.853-25.861-9.537-37.503-5.821
				c-0.396,0.126-0.83,0.253-1.285,0.387c-3.157,0.924-7.481,2.188-9.101,5.783c-0.109,0.249-0.168,0.506-0.189,0.764
				c-2.555,0.796-4.992,1.73-7.34,2.819c-1.05,0.484-1.58,1.64-1.318,2.726c-0.261,0.229-0.517,0.501-0.746,0.826
				c-2.014,2.863,0.417,8.011,1.895,9.58c1.147,1.213,2.294,1.112,10.772-0.243c1.722-0.275,3.87-0.616,4.319-0.63
				c9.698,0.02,18.26,0.734,26.172,2.189c2.072,0.381,4.217,0.949,6.488,1.551c4.145,1.102,8.389,2.229,12.662,2.342
				c1.987,0.055,3.979-0.112,5.975-0.599c3.3-0.809,4.253-2.984,4.527-4.208C1136.125,527.295,1131.271,521.648,1129.386,520.111z"
				/>
			<g>
				<path fill="#1B1D3A" d="M1130.242,519.255c-14.491-11.316-32.891-16.391-50.675-11.118c-3.056,0.906-5.834,2.179-7.91,4.656
					c-1.408,1.681-0.985,1.77-3.301,2.589c-1.447,0.512-3.627,1.137-4.863,2.108c-4.133,3.246-3.781,10.351-0.69,14.196
					c3.015,3.749,9.943,1.117,13.81,0.503c11.146-1.771,24.192,0.477,34.997,3.323c5.769,1.52,18.902,5.627,23.402-0.761
					C1138.686,529.538,1134.314,522.857,1130.242,519.255c-1.165-1.03-2.885,0.676-1.713,1.712c1.812,1.603,3.206,3.509,4.384,5.614
					c3.218,5.754-1.449,8.555-6.828,8.895c-7.854,0.496-15.83-3.142-23.521-4.391c-7.061-1.147-14.225-1.557-21.368-1.676
					c-5.094-0.085-10.401,2.42-15.422,1.651c-3.166-0.484-3.252-7.62-1.887-9.131c2.542-2.815,4.533-4.065,8.124-5.233
					c1.729-0.563,2.213-3.35,3.9-4.472c2.629-1.75,6.495-2.485,9.531-3.231c7.405-1.819,15.413-0.749,22.617,1.366
					c6.957,2.042,14.763,6.152,20.469,10.608C1129.745,521.916,1131.472,520.215,1130.242,519.255z"/>
			</g>
		</g>
		<g>
			<g>
				<path fill="#1D1B3A" d="M1125.73,588.837c-4.963-1.456-10.266-1.81-14.329-5.337c-0.63-0.546-1.425-0.414-1.901,0.245
					c-2.713,3.741-2.125,9.453,1.229,12.581c3.333,3.108,8.893,2.759,12.962,1.734c1.513-0.381,0.871-2.716-0.645-2.335
					c-3.199,0.806-6.697,1.02-9.718-0.518c-3.616-1.843-3.908-7.248-1.739-10.241c-0.634,0.082-1.268,0.164-1.901,0.245
					c4.458,3.87,9.937,4.357,15.397,5.96C1126.588,591.613,1127.225,589.276,1125.73,588.837L1125.73,588.837z"/>
			</g>
		</g>
		<g>
			<g>
				<path fill="#1D1B3A" d="M1108.668,551.824c-2.665,1.191-2.208,5.195-1.885,7.522c0.205,1.475,1.1,7.088,3.825,5.359
					c2.921-1.852,2.882-6.508,2.966-9.544c0.03-1.109,0.226-2.908-0.658-3.78c-1.201-1.186-2.503-0.198-3.397,0.82
					c-1.025,1.168,0.681,2.888,1.713,1.712c0.604-0.371,0.56-0.642-0.133-0.812c0.11,0.386,0.067,0.864,0.069,1.261
					c0.005,0.732-0.033,1.468-0.062,2.2c-0.041,0.998-0.141,1.986-0.313,2.97c-0.096,0.543-0.256,1.067-0.426,1.589
					c-0.098,0.216-0.195,0.431-0.293,0.647c-0.49,0.405-0.528,0.593-0.114,0.562c-0.872-1.507-1.977-7.561-0.068-8.414
					C1111.313,553.279,1110.081,551.193,1108.668,551.824L1108.668,551.824z"/>
			</g>
		</g>
		<g>
			<g>
				<path fill="#1D1B3A" d="M1128.852,551.564c-2.667,1.192-2.21,5.195-1.888,7.524c0.204,1.473,1.101,7.087,3.824,5.359
					c2.923-1.855,2.884-6.507,2.97-9.545c0.031-1.108,0.224-2.909-0.658-3.781c-1.201-1.187-2.504-0.198-3.397,0.821
					c-1.024,1.168,0.682,2.888,1.713,1.712c0.604-0.372,0.56-0.643-0.133-0.813c0.109,0.386,0.066,0.864,0.069,1.261
					c0.005,0.733-0.033,1.469-0.063,2.201c-0.042,0.998-0.142,1.987-0.314,2.97c-0.096,0.543-0.256,1.066-0.427,1.589
					c-0.098,0.215-0.195,0.431-0.293,0.646c-0.491,0.405-0.529,0.593-0.114,0.562c-0.872-1.51-1.978-7.562-0.065-8.416
					C1131.497,553.019,1130.265,550.933,1128.852,551.564L1128.852,551.564z"/>
			</g>
		</g>
		<g>
			<path fill="#1D1B3A" d="M1063.745,727.71c3.423-15.952-6.648-30.292-12.237-45.484c-2.871-6.813-8.393-12.194-15.197-15.895
				c-2.138,2.956-3.939,6.378-5.044,10.303c-7.004,25.012-34.499,80.382-22.031,119.333c10.569,32.976,56.411,68.323,56.411,68.323
				s5.282-5.311,11.797-12.338c0.086-2.771,15.692-15.927,15.768-19.069c0.228-9.274-3.359-8.488-16.414-16.24
				c-16.938-9.715-40.605-27.817-43.759-35.768c-3.917-9.919,25.428-56.907,25.428-56.907"/>
			<g>
				<path fill="#1B1D3A" d="M1064.912,728.032c2.259-12.108-2.221-23.112-7.088-33.987c-2.616-5.847-4.575-12.2-8.107-17.571
					c-3.152-4.793-7.866-8.392-12.795-11.188c-0.607-0.344-1.278-0.113-1.656,0.435c-5.274,7.637-7.181,17.296-10.293,25.959
					c-3.586,9.98-7.251,19.927-10.473,30.033c-6.67,20.922-12.017,43.495-8.594,65.523c3.146,20.25,17.055,37.441,30.645,51.968
					c8.698,9.298,18.156,18.148,28.239,25.944c0.521,0.402,1.204,0.513,1.713,0c2.728-2.748,5.403-5.547,8.068-8.356
					c2.835-2.99,4.838-6.221,7.614-9.221c3.727-4.027,12.195-9.699,12.244-15.752c0.065-8.024-6.561-10.409-12.722-13.766
					c-11.162-6.081-21.739-13.33-31.663-21.259c-3.962-3.166-7.79-6.518-11.309-10.173c-2.223-2.309-4.881-5.011-4.841-8.407
					c0.082-6.937,4.272-14.415,7.176-20.484c5.446-11.382,11.761-22.42,18.428-33.13c0.004-0.007,0.008-0.013,0.012-0.02
					c0.829-1.329-1.267-2.543-2.09-1.222c-6.504,10.428-12.577,21.184-17.988,32.217c-3.105,6.332-6.318,13.029-7.652,20.002
					c-1.112,5.815,2.115,9.505,5.993,13.534c7.773,8.074,17.183,14.792,26.422,21.062c4.848,3.29,9.855,6.324,14.945,9.222
					c3.744,2.132,9.414,3.924,11.887,7.678c4.682,7.108-7.108,15.061-11.2,19.483c-2.145,2.317-3.628,4.965-5.771,7.251
					c-3.044,3.25-6.129,6.466-9.267,9.627c0.571,0,1.142,0,1.713,0c-9.084-7.023-17.556-14.945-25.569-23.151
					c-14.269-14.612-28.45-31.827-32.461-52.37c-4.244-21.735,1.868-44.9,8.362-65.559c3.062-9.742,6.603-19.325,10.073-28.926
					c3.163-8.749,5.139-18.8,10.447-26.488c-0.552,0.145-1.104,0.29-1.656,0.435c4.697,2.666,8.729,5.946,11.927,10.32
					c3.1,4.238,4.601,9.704,6.722,14.482c4.974,11.202,10.577,22.624,8.23,35.209
					C1062.293,728.914,1064.627,729.565,1064.912,728.032L1064.912,728.032z"/>
			</g>
		</g>
		<g>
			<path fill="#F1EBE2" d="M1098.996,840.331c5.726,3.436,10.3,5.188,15.447,9.668c-2.539,4.46-29.23,18.617-30.047,18.104
				c-4.27-2.728-5.429-4.189-9.302-8.203c3.295-8.836,10.485-17.244,23.781-19.611"/>
			<g>
				<path fill="#1B1D3A" d="M1098.385,841.376c4.241,2.484,8.647,4.652,12.687,7.468c2.217,1.546,2.328,0.853,0.4,2.484
					c-1.151,0.975-2.422,1.817-3.669,2.662c-5.327,3.61-11.008,6.743-16.699,9.733c-1.937,1.018-3.892,2.041-5.91,2.89
					c-2.104,0.886-6.523-4.734-8.044-6.322c-2.325-2.426,5.536-10.437,6.941-11.768c4.145-3.925,9.608-5.966,15.106-7.068
					c1.531-0.307,0.881-2.641-0.643-2.335c-11.616,2.33-20.296,9.417-24.627,20.457c-0.156,0.396,0.034,0.89,0.311,1.178
					c2.017,2.101,7.291,9.086,10.729,8.5c3.047-0.519,6.354-2.902,9.021-4.32c4.577-2.432,9.074-5.027,13.445-7.812
					c2.749-1.751,6.22-3.713,8.054-6.514c0.276-0.422,0.209-1.135-0.188-1.467c-4.817-4.008-10.316-6.708-15.692-9.857
					C1098.257,838.494,1097.039,840.587,1098.385,841.376L1098.385,841.376z"/>
			</g>
		</g>
		<g>
			<path fill="#FFFFFF" d="M1092.078,832.753l8.765,7.391c0,0-10.835,17.72-24.856,28.392l-7.742-7.026L1092.078,832.753z"/>
			<g>
				<path fill="#1D1B3A" d="M1091.222,833.609c2.165,1.825,4.329,3.65,6.493,5.475c0.541,0.456,1.082,0.913,1.623,1.369
					c1.136,0.958-0.17,0.103,0.432-0.875c-0.537,0.872-1.104,1.724-1.672,2.575c-6.349,9.522-13.925,18.467-22.968,25.527
					c0.571,0,1.142,0,1.713,0c-2.581-2.342-5.162-4.684-7.742-7.026c0,0.571,0,1.141,0,1.712
					c7.944-9.585,15.889-19.171,23.834-28.757c0.988-1.192-0.715-2.916-1.713-1.712c-7.944,9.585-15.889,19.171-23.834,28.757
					c-0.404,0.488-0.521,1.239,0,1.712c2.581,2.342,5.162,4.684,7.742,7.026c0.535,0.485,1.172,0.422,1.713,0
					c9.935-7.756,18.438-17.905,25.045-28.637c0.267-0.433,0.216-1.125-0.188-1.467c-2.922-2.464-5.844-4.928-8.765-7.391
					C1091.749,830.897,1090.027,832.601,1091.222,833.609z"/>
			</g>
		</g>
	</g>
</g>
</svg>
