<?xml version="1.0" encoding="utf-8"?>
<!-- Generator: Adobe Illustrator 16.0.4, SVG Export Plug-In . SVG Version: 6.00 Build 0)  -->
<!DOCTYPE svg PUBLIC "-//W3C//DTD SVG 1.1//EN" "http://www.w3.org/Graphics/SVG/1.1/DTD/svg11.dtd">
<svg version="1.1" id="Layer_1" xmlns="http://www.w3.org/2000/svg" xmlns:xlink="http://www.w3.org/1999/xlink" x="0px" y="0px"
	 width="2801.172px" height="1296.653px" viewBox="0 0 2801.172 1296.653" enable-background="new 0 0 2801.172 1296.653"
	 xml:space="preserve">
<g id="char1">
	<g>
		<g>
			<path fill="#DC4832" d="M875.924,773.079c-2.61,10.559-14.935,53.296-5.79,59.925c10.511,7.617,61.283-0.894,61.283-0.894
				l-1.762-11.037c0,0-38.761,7.806-48.895,2.558c-9.073-4.708,13.501-46.957,13.501-46.957"/>
			<g>
				<path fill="#1D1B3A" d="M874.841,772.781c-3.025,12.127-6.3,24.173-8.127,36.561c-1.072,7.272-3.937,21.794,4.775,25.681
					c9.978,4.452,23.83,2.321,34.303,1.422c8.668-0.744,17.341-1.819,25.924-3.251c0.65-0.108,0.872-0.829,0.784-1.381
					c-0.587-3.679-1.175-7.358-1.762-11.037c-0.102-0.635-0.835-0.894-1.382-0.785c-7.092,1.421-14.266,2.503-21.448,3.334
					c-5.387,0.624-10.809,1.033-16.234,0.99c-3.084-0.024-10.339,0.331-11.629-3.347c-1.205-3.436,0.336-7.986,1.267-11.305
					c1.468-5.234,3.54-10.312,5.693-15.294c2.51-5.808,5.25-11.543,8.227-17.127c0.681-1.278-1.258-2.412-1.939-1.134
					c-3.489,6.546-6.631,13.293-9.505,20.13c-2.102,4.998-4.004,10.109-5.317,15.375c-0.801,3.212-1.769,7.499-0.319,10.673
					c1.342,2.938,4.847,3.471,7.732,3.882c5.791,0.824,11.783,0.361,17.58-0.143c8.874-0.77,17.757-2.118,26.491-3.868
					c-0.461-0.262-0.921-0.523-1.382-0.785c0.587,3.679,1.175,7.358,1.762,11.037c0.262-0.46,0.523-0.921,0.784-1.381
					c-7.341,1.225-14.741,2.135-22.146,2.875c-11.026,1.102-23.229,2.514-34.134-0.119c-10.806-2.609-6.705-19.418-5.43-27.249
					c1.825-11.211,4.852-22.151,7.598-33.157C877.357,771.972,875.191,771.375,874.841,772.781L874.841,772.781z"/>
			</g>
		</g>
		<g>
			<path fill="#1D1B3A" d="M909.258,860.038c3.286,18.15,4.89,35.886,1.471,53.915c-2.504,14.202-6.634,27.43-8.304,41.957
				c-0.618,5.876-2.817,12.493-2.369,18.343l-0.048,2.112c-7.519,0.943-30.557,6.322-38.153,4.508c0,0-6.072-54.272-7.262-64.452
				c-3.651-31.072-1.435-43.396,7.029-55.983"/>
			<g>
				<path fill="#1D1B3A" d="M908.175,860.336c1.911,10.748,3.25,21.535,3.337,32.461c0.086,10.782-1.779,21.321-4.085,31.812
					c-3.726,16.953-8.147,34.354-8.542,51.755c0.374-0.375,0.749-0.749,1.123-1.123c-6.909,0.925-13.736,2.437-20.62,3.531
					c-4.17,0.663-8.368,1.199-12.592,1.339c-1.452,0.048-3.997-0.837-3.821,0.738c-0.03-0.27-0.061-0.54-0.09-0.809
					c-1.273-11.378-2.55-22.756-3.829-34.134c-1.501-13.351-3.266-26.705-4.416-40.091c-1.354-15.754-1.023-31.261,7.952-44.811
					c0.803-1.211-1.144-2.335-1.939-1.134c-13.045,19.691-8.615,43.842-6.106,65.961c2.08,18.345,4.133,36.693,6.186,55.041
					c0.054,0.476,0.3,0.977,0.824,1.083c5.586,1.126,11.602-0.008,17.158-0.823c7.124-1.045,14.159-2.69,21.294-3.645
					c0.618-0.083,1.107-0.449,1.123-1.123c0.418-18.429,5.395-36.812,9.248-54.78c4.457-20.778,3.666-41.013-0.038-61.845
					C910.088,858.314,907.923,858.92,908.175,860.336L908.175,860.336z"/>
			</g>
		</g>
		<g>
			<path fill="#1D1B3A" d="M888.776,602.541c21.925-12.206,46.1,11.08,53.325,30.493c11.62,30.752-16.219,52.049-29.662,76.955
				c-4.819,9.055-2.234,21.193,9.158,22.675c-3.821,6.426-14.116,4.912-20.383,3.264c-3.697-0.994-7.403-2.719-10.769-4.826
				c-2.613-1.404-7.169-6.81-9.743-7.104c-2.587-0.645-6.122,3.541-8.977,5.121c-6.48,3.549-13.747,5.268-20.644,6.979
				c-7.266,1.346-20.819,0.687-23.749-9.975c36.549-1.931-5.006-41.339-8.234-50.137c-11.315-32.987-2.363-67.16,28.873-79.886
				c22.723-9.273,42.885,2.662,42.633,6.01"/>
			<g>
				<path fill="#1D1B3A" d="M889.343,603.511c17.319-9.078,34.858,3.48,44.94,17.383c10.414,14.36,11.922,31.012,4.285,46.93
					c-6.784,14.142-17.851,25.769-25.776,39.237c-5.872,9.978-5.024,24.357,8.507,26.686c-0.224-0.55-0.447-1.1-0.671-1.65
					c-5.874,8.509-21.227,2.732-28.152-1.086c-4.748-2.617-9.134-10.245-15.182-7.293c-1.202,0.586-2.294,1.607-3.341,2.433
					c-2.675,2.111-5.529,3.442-8.696,4.694c-4.835,1.912-10.211,3.451-15.338,4.315c-8.14,1.373-18.649-0.529-21.502-9.336
					c-0.361,0.474-0.722,0.948-1.083,1.421c5.473-0.363,12.069-1.327,15.013-6.59c2.51-4.487,0.297-10.271-1.647-14.499
					c-2.936-6.381-7.296-12.12-11.503-17.7c-3.32-4.405-7.711-8.869-9.486-14.184c-7.082-21.198-5.837-46.276,9.347-63.692
					c8.496-9.747,21.187-15.862,34.019-16.756c5.899-0.411,11.846,0.622,17.403,2.562c1.776,0.621,8.811,3.143,9.004,5.723
					c0.107,1.435,2.354,1.446,2.246,0c-0.389-5.174-10.334-7.905-14.135-8.991c-11.447-3.27-23.505-1.313-34.081,3.763
					c-19.245,9.236-29.325,29.002-30.193,49.706c-0.413,9.845,0.946,21.606,5.097,30.627c2.433,5.289,7.035,9.938,10.484,14.568
					c4.496,6.034,9.192,12.464,11.502,19.707c2.861,8.973-3.749,12.66-11.825,13.427c-0.414,0.027-0.829,0.055-1.243,0.083
					c-0.695,0.046-1.321,0.687-1.083,1.421c6.089,18.798,35.364,10.387,47.017,3.055c1.809-1.138,3.358-2.658,5.16-3.818
					c3.089-1.988,6.778,2.67,8.732,4.382c3.869,3.389,8.872,5.523,13.756,6.972c7.069,2.096,16.927,3.064,21.651-3.78
					c0.388-0.562,0.018-1.531-0.671-1.65c-9.58-1.649-12.325-10.645-9.388-19.068c2.703-7.752,9.113-15.009,13.87-21.587
					c8.982-12.424,18.462-25.447,19.563-41.258c1.874-26.906-29.798-62.74-57.732-48.097
					C886.926,602.244,888.062,604.183,889.343,603.511L889.343,603.511z"/>
			</g>
		</g>
		<g>
			<path fill="#F4EDE1" d="M887.123,753.712c-6.632,0-13.288-0.405-19.997-0.905c0.284-5.503-0.353-12.573-2.357-21.802
				c-7.458-34.535-52.761-124.542,13.724-122.513c66.468,2.037,40.851,92.63,19.276,115.584
				C884.447,738.292,883.344,747.614,887.123,753.712z"/>
			<g>
				<path fill="#1B1D3A" d="M887.123,752.589c-6.68-0.036-13.337-0.418-19.997-0.905c0.374,0.375,0.749,0.749,1.123,1.123
					c0.664-16.765-5.205-32.965-10.335-48.661c-5.185-15.863-10.408-31.863-12.929-48.407c-2.019-13.245-2.592-30.008,8.526-39.575
					c12.205-10.503,35.216-8.067,48.177-0.49c23.95,14.001,20.009,48.947,13.522,71.369c-3.278,11.332-8.006,22.645-14.945,32.248
					c-6.897,9.545-21.806,21.776-14.112,34.989c0.729,1.251,2.67,0.121,1.939-1.134c-5.783-9.932,4.168-21.418,10.47-28.275
					c3.751-4.081,6.719-8.784,9.337-13.651c6.942-12.909,11.387-27.375,13.425-41.862c1.933-13.733,1.517-28.565-4.928-41.133
					c-6.757-13.179-20.232-19.385-34.451-20.663c-13.059-1.174-27.816,1.305-35.3,13.18c-6.833,10.843-5.449,25.487-3.529,37.5
					c2.537,15.869,7.655,31.268,12.632,46.502c5.064,15.506,10.911,31.502,10.255,48.064c-0.025,0.645,0.532,1.08,1.123,1.123
					c6.66,0.487,13.317,0.869,19.997,0.905C888.572,754.843,888.571,752.597,887.123,752.589z"/>
			</g>
		</g>
		<g>
			<g>
				<path fill="#1B1D3A" d="M904.469,661.566c-0.704,2.848-0.825,6.474,1.857,8.348c1.97,1.376,4.523,0.363,5.688-1.524
					c1.321-2.143,1.145-6.083-0.583-7.922c-0.862-0.919-1.999-1.854-3.276-2.062C906.084,658.066,904.964,659.804,904.469,661.566
					c-0.393,1.397,1.775,1.989,2.166,0.597c0.256-0.91,0.562-1.904,1.617-1.381c0.71,0.352,1.295,0.938,1.818,1.521
					c0.06,0.066,0.116,0.134,0.173,0.202c-0.358-0.431-0.084,0.089-0.012,0.338c0.178,0.607,0.292,1.228,0.335,1.858
					c0.064,0.938-0.072,1.873-0.57,2.681c-0.669,1.085-1.771,1.127-2.643,0.518c-1.598-1.116-1.113-4.142-0.719-5.737
					C906.982,660.756,904.816,660.16,904.469,661.566z"/>
			</g>
		</g>
		<g>
			<g>
				<path fill="#1B1D3A" d="M877.821,662.057c-0.685,3.116-0.8,7.077,2.066,9.163c2.059,1.499,4.756,0.374,5.882-1.683
					c1.323-2.418,1.059-6.574-0.794-8.622c-0.954-1.055-2.191-2.089-3.646-2.271C879.274,658.387,878.247,660.368,877.821,662.057
					c-0.354,1.405,1.812,2.001,2.166,0.597c0.215-0.85,0.499-2.156,1.59-1.634c0.816,0.39,1.476,1.092,2.06,1.766
					c0.071,0.083,0.141,0.167,0.209,0.252c-0.266-0.332-0.036,0.202,0.035,0.448c0.193,0.673,0.325,1.362,0.383,2.059
					c0.084,1.02-0.012,2.087-0.51,2.997c-0.623,1.14-1.82,1.465-2.727,0.745c-1.872-1.486-1.482-4.617-1.04-6.634
					C880.297,661.242,878.132,660.642,877.821,662.057z"/>
			</g>
		</g>
		<g>
			<path fill="#DC4832" d="M879.595,696.145c10.563,2.159,18.507,5.192,16.844,6.524c-3.816,3.051-16.17-3.387-17.1-5.882"/>
			<g>
				<path fill="#1B1D3A" d="M879.296,697.228c3.704,0.777,7.37,1.678,10.972,2.846c1.363,0.442,2.702,0.958,3.991,1.585
					c0.457,0.223,0.903,0.484,1.286,0.821c-0.022-0.172-0.046-0.343-0.068-0.515c-0.462,0.228-0.951,0.352-1.467,0.373
					c-2.8,0.276-5.926-1.123-8.38-2.292c-1.713-0.817-4.435-2.028-5.321-3.826c-0.641-1.299-2.578-0.161-1.939,1.134
					c1.284,2.604,5.053,4.171,7.515,5.272c2.839,1.271,7.199,2.941,10.281,1.488c2.415-1.138,1.621-2.967-0.285-4.132
					c-4.62-2.823-10.787-3.83-15.986-4.92C878.48,694.765,877.879,696.93,879.296,697.228L879.296,697.228z"/>
			</g>
		</g>
		<g>
			<path fill="#DC4832" d="M905.396,797.651c1.124-3.081-0.271-6.858-1.354-9.81c-1.212-3.313-3.316-6.3-4.96-9.423
				c-1.669-3.169-3.207-6.401-4.633-9.684c-1.41-3.251-2.85-6.526-3.652-9.991c-0.4-1.734-0.541-3.512-0.661-5.285
				c-0.062-0.882-0.12-1.765-0.207-2.643c-0.093-0.926-0.517-1.85-0.848-2.715c-0.221-0.577-0.647-0.225-1.173-0.084
				c-0.49,0.127-0.982,0.247-1.477,0.352c-1.362,0.295-2.74,0.514-4.125,0.676c-5.695,0.66-11.53,0.379-17.073-1.136
				c-0.7-0.19-1.399-0.398-2.08-0.655c0.153,1.779-0.062,3.618-0.275,5.379c-0.604,5.002-1.488,10.32-3.347,15.016
				c-1.004,2.538-2.196,5-3.381,7.454c-0.738,1.531-1.485,3.055-2.232,4.581c-0.033,0.364,0.176,0.871,0.249,1.227
				c0.348,1.71,0.694,3.423,1.041,5.134c0.337,1.661,1.122,3.087,1.806,4.639c1.68,3.806,2.885,7.843,3.944,11.856
				c2.732,10.349,4.15,21.202,3.259,31.901c-0.254,3.081-0.711,6.142-1.402,9.154c-0.61,2.665-1.585,5.186-2.327,7.803
				c-0.685,2.421-2.151,8.351-1.039,10.669c2.255,4.7,9.565,3.017,14.277,3.731c6.415,0.974,13.056,0.655,19.46-0.246
				c2.835-0.396,5.66-0.925,8.424-1.679c1.889-0.514,3.859-1.091,5.555-2.099c1.829-1.087,2.122-3.186,1.852-5.189
				c-0.546-4.03-2.835-7.822-4.789-11.309c-2.378-4.247-4.938-8.429-6.811-12.935c-1.946-4.682-2.41-9.306-1.6-14.329
				c0.659-4.089,2.285-7.81,4.464-11.307C902.112,803.761,904.199,800.938,905.396,797.651
				C905.635,796.995,902.503,805.597,905.396,797.651z"/>
			<g>
				<path fill="#1D1B3A" d="M906.479,797.949c1.47-5.946-1.777-11.991-4.68-17.004c-4.479-7.735-9.374-16.741-10.404-25.714
					c-0.256-2.229,0.278-9.613-3.785-8.299c-7.454,2.411-16.858,1.731-24.157-0.763c-0.687-0.234-1.439,0.383-1.422,1.083
					c0.14,5.659-0.978,11.442-2.479,16.884c-1.483,5.371-5.265,9.971-6.716,15.247c-0.39,1.416,0.663,3.861,0.943,5.247
					c0.595,2.933,1.679,5.224,2.844,7.995c2.352,5.589,3.742,11.67,4.95,17.592c2.687,13.161,2.396,26.516-1.699,39.321
					c-1.669,5.217-4.253,13.172,2.001,16.168c2.876,1.378,6.616,0.948,9.695,1.029c5.514,0.145,10.771,0.924,16.333,0.532
					c5.213-0.367,10.408-1.295,15.432-2.714c3.118-0.881,5.791-2.036,6.757-5.291c1.099-3.704-1.551-8.352-3.186-11.492
					c-3.01-5.778-6.669-11.168-9-17.288c-2.519-6.607-1.308-13.931,1.622-20.155c2.027-4.306,5.264-7.894,6.954-12.386
					c-0.722-0.199-1.444-0.398-2.166-0.597c-0.408,1.123-0.806,2.25-1.226,3.369c0.722,0.199,1.443,0.398,2.166,0.597
					C905.663,800.189,906.07,799.069,906.479,797.949c0.497-1.364-1.675-1.947-2.166-0.597c-0.408,1.12-0.815,2.24-1.223,3.36
					c-0.498,1.368,1.661,1.936,2.166,0.597c0.42-1.118,0.817-2.246,1.226-3.368c0.498-1.369-1.662-1.936-2.166-0.597
					c-1.603,4.257-4.598,7.861-6.728,11.85c-2.009,3.762-2.917,7.897-3.244,12.112c-0.698,9.022,4.682,17.048,8.913,24.536
					c3.004,5.317,8.624,13.582-0.52,16.544c-5.33,1.727-11.049,2.368-16.609,2.759c-4.932,0.347-9.665-0.369-14.559-0.657
					c-4.192-0.248-11.333,0.979-11.394-5.292c-0.034-3.534,1.294-7.283,2.358-10.611c1.483-4.638,2.342-9.306,2.806-14.146
					c1.034-10.79-0.63-21.762-3.299-32.2c-1.051-4.111-2.288-8.259-4.058-12.125c-1.168-2.553-1.833-5.062-2.386-7.793
					c-0.64-3.156,0.898-5.356,2.232-8.127c4.016-8.336,6.677-17.606,6.446-26.941c-0.474,0.361-0.947,0.722-1.422,1.083
					c5.722,1.955,11.739,2.389,17.74,2c2.568-0.166,5.113-0.642,7.612-1.237c0.533-0.127,1.064,7.547,1.185,8.197
					c1.197,6.485,4.233,12.606,7.095,18.5c3.09,6.363,9.688,14.019,7.826,21.558C903.965,798.759,906.131,799.355,906.479,797.949z"
					/>
			</g>
		</g>
		<g>
			<g>
				<path fill="#1B1D3A" d="M890.956,802.768c-3.013,0.631-6.042,1.022-9.12,1.117c-1.445,0.044-1.449,2.291,0,2.246
					c3.275-0.101,6.512-0.525,9.718-1.197C892.971,804.637,892.369,802.472,890.956,802.768L890.956,802.768z"/>
			</g>
		</g>
		<g>
			<path fill="#1D1B3A" d="M899.535,975.149c-5.291,6.129-9.159,87.352-2.412,107.301c6.602,19.469,28.325,25.393,36.123,26.939
				c13.818,2.758-3.083,19.297-27.021-0.021c-9.635-7.783-13.025-11.885-13.025-11.885l1.865,15.33l-6.589-0.119
				c0,0-5.577-19.721-4.403-22.293c1.188-2.572,6.613-8.01,6.613-8.01s-8.467-34.424-10.129-56.142
				c-1.296-16.613,10.159-58.224,10.159-58.224"/>
			<g>
				<path fill="#1D1B3A" d="M898.741,974.355c-2.239,2.856-2.521,7.486-3.048,10.919c-1.129,7.344-1.716,14.777-2.211,22.186
					c-1.229,18.404-1.621,36.998-0.425,55.414c0.408,6.291,0.942,12.762,2.662,18.854c2.497,8.846,8.923,15.807,16.483,20.707
					c6.221,4.029,13.513,6.568,20.744,8.039c3.489,0.709,5.705,3.117,1.969,5.469c-4.13,2.6-9.954,1.561-14.297,0.281
					c-10.017-2.949-19.934-11.57-26.626-19.533c-0.6-0.715-2.034-0.168-1.917,0.793c0.622,5.109,1.243,10.221,1.865,15.33
					c0.374-0.375,0.749-0.75,1.123-1.123c-1.098-0.02-2.196-0.041-3.295-0.061c-0.623-0.012-1.247-0.021-1.871-0.033
					c-1.842-0.033-0.661-0.34-0.356,0.738c-0.624-2.213-1.206-4.438-1.775-6.666c-0.837-3.275-1.604-6.57-2.229-9.893
					c-0.846-4.508-0.009-6.041,3.081-9.551c3.202-3.637,3.288-3.475,2.225-8.02c-1.753-7.49-3.352-15.018-4.817-22.57
					c-1.885-9.717-3.543-19.514-4.347-29.386c-0.609-7.491,0.812-15.231,2.088-22.579c2.064-11.889,4.836-23.71,8.031-35.347
					c0.384-1.399-1.783-1.992-2.166-0.597c-2.983,10.865-5.521,21.878-7.598,32.951c-1.374,7.32-2.568,14.776-2.701,22.237
					c-0.149,8.314,1.612,16.896,3.012,25.059c1.492,8.697,3.29,17.342,5.216,25.953c0.532,2.381,1.083,4.758,1.647,7.131
					c0.118,0.498,0.238,0.996,0.359,1.494c0.042,0.172,0.728-1.369-0.084-0.539c-0.584,0.596-1.151,1.207-1.72,1.816
					c-1.7,1.826-4.109,4.115-4.868,6.574c-0.62,2.01,0.281,4.934,0.65,6.9c0.992,5.285,2.389,10.516,3.846,15.689
					c0.138,0.486,0.58,0.814,1.083,0.824c2.196,0.039,4.393,0.078,6.589,0.119c0.557,0.01,1.196-0.521,1.123-1.123
					c-0.622-5.109-1.243-10.221-1.865-15.33c-0.639,0.266-1.278,0.529-1.917,0.795c5.597,6.66,13.136,12.746,20.625,17.066
					c6.607,3.814,15.866,6.354,23.02,2.537c3.727-1.986,4.378-6.223,0.639-8.488c-2.228-1.35-5.322-1.525-7.806-2.193
					c-4.375-1.18-8.587-2.873-12.594-4.982c-9.079-4.779-16.362-12.695-18.854-22.793c-1.726-6.994-2.065-14.387-2.415-21.551
					c-0.903-18.5-0.338-37.149,1.081-55.608c0.439-5.716,0.995-11.434,1.867-17.103c0.409-2.668,0.608-6.984,2.36-9.22
					C901.212,974.817,899.634,973.215,898.741,974.355L898.741,974.355z"/>
			</g>
		</g>
		<g>
			<path fill="#1D1B3A" d="M882.104,970.902c0,0-7.5,51.232-9.426,66.355c-1.926,15.115-13.584,51.514-9.376,55.09
				c4.208,3.582,1.16,23.662,1.16,23.662s-4.034,2.102-6.251,2.547c-1.42,0.289-0.503-9.877-1.086-8.121
				c-5.753,17.207-18.523,31.992-27.98,31.201c-22.187-1.863,15.158-20.658,26.345-49.402c3.579-9.195,10.289-100.654,8.778-113.804
				"/>
			<g>
				<path fill="#1D1B3A" d="M881.021,970.604c-1.733,11.844-3.448,23.691-5.144,35.541c-2.193,15.324-3.784,30.785-7.286,45.876
					c-2.074,8.938-4.399,17.822-6.115,26.838c-0.631,3.318-2.964,11.135-0.172,14.068c4.283,4.502,1.979,15.502,1.303,21.092
					c-0.059,0.484-0.124,0.969-0.192,1.451c-0.028,0.205,0.939-0.654-0.37-0.004c-2.35,1.17-4.336,3.17-4.523,0.184
					c-0.085-1.342,0.709-5.207-0.509-6.205c-0.514-0.42-1.427-0.48-1.764,0.229c-5.286,11.121-9.716,23.287-21.304,29.52
					c-2.978,1.602-8.218,2.174-11.077-0.127c-1.986-1.598,1.908-5.785,2.841-6.918c10.456-12.699,26.226-24.502,30.348-41.268
					c3.065-12.467,3.5-25.943,4.609-38.676c1.54-17.672,2.784-35.381,3.555-53.103c0.295-6.807,0.891-13.872,0.171-20.672
					c-0.15-1.425-2.398-1.44-2.246,0c1.298,12.264-0.319,25.246-1.056,37.496c-1.07,17.807-2.44,35.609-4.291,53.352
					c-0.645,6.18-1.306,12.381-2.395,18.5c-1.3,7.307-5.588,13.779-9.896,19.68c-5.749,7.877-12.853,14.574-19.305,21.842
					c-2.167,2.441-6.934,7.283-4.372,10.846c3.467,4.822,12.203,2.295,16.147-0.1c10.764-6.531,15.122-18.537,20.209-29.238
					c-0.588,0.076-1.176,0.152-1.764,0.229c0.322,0.264-0.169,6.113,0.273,7.482c0.77,2.377,4.16,0.41,5.472-0.18
					c2.052-0.926,3.258-1.064,3.546-3.252c0.489-3.705,0.811-7.424,0.921-11.16c0.101-3.43,0.055-7.17-1.224-10.406
					c-1.012-2.559-2-3.314-1.844-6.379c0.468-9.184,3.355-18.469,5.488-27.363c6.962-29.043,9.808-59.045,14.13-88.576
					C883.394,969.784,881.229,969.174,881.021,970.604L881.021,970.604z"/>
			</g>
		</g>
		<g>
			<path fill="#DC4832" d="M880.164,694.783c7.724,1.021,24.564,2.752,21.341-1.483c-1.04-1.512-2.883-2.581-6.211-3.214
				c-1.849-0.35-6.043,1.403-15.586,4.698"/>
			<g>
				<path fill="#1B1D3A" d="M880.164,695.906c3.158,0.411,23.006,4.208,22.85-1.837c-0.086-3.33-5.944-5.143-8.427-5.146
					c-4.919-0.008-10.657,3.209-15.178,4.777c-1.359,0.472-0.774,2.642,0.598,2.166c3.82-1.325,7.614-2.738,11.467-3.968
					c1.01-0.322,2.053-0.637,3.113-0.729c0.94-0.082,6.837,2.516,6.111,3.04c-2.188,1.579-7.313,0.671-9.8,0.532
					c-3.59-0.201-7.17-0.617-10.734-1.081C878.73,693.473,878.749,695.722,880.164,695.906L880.164,695.906z"/>
			</g>
		</g>
		<g>
			<g>
				<path fill="#1B1D3A" d="M894.022,665.294c-1.344,7.274,4.431,10.441,7.917,15.831c0.135-0.512,0.269-1.024,0.403-1.537
					c-2.581,1.121-5.505,1.478-8.008-0.006c-1.249-0.74-2.378,1.202-1.133,1.939c3.24,1.921,6.944,1.452,10.273,0.006
					c0.546-0.237,0.707-1.067,0.403-1.537c-2.97-4.591-8.839-7.883-7.69-14.1C896.45,664.475,894.285,663.871,894.022,665.294
					L894.022,665.294z"/>
			</g>
		</g>
		<g>
			<g>
				<path fill="#1B1D3A" d="M873.166,661.515c1.2,1.452,2.861,2.581,4.729,2.938c1.415,0.271,2.02-1.895,0.598-2.166
					c-1.533-0.293-2.757-1.171-3.739-2.359C873.83,658.81,872.25,660.408,873.166,661.515L873.166,661.515z"/>
			</g>
		</g>
		<g>
			<g>
				<path fill="#1B1D3A" d="M910.461,661.429c0.028,0.541,0.324,1.19,0.932,1.276c0.605,0.085,0.996-0.114,1.438-0.504
					c0.616-0.544,1.087-1.246,1.661-1.833c1.014-1.035-0.573-2.625-1.588-1.588c-0.354,0.361-0.676,0.751-1.007,1.133
					c-0.17,0.196-0.343,0.389-0.524,0.574c-0.062,0.062-0.126,0.121-0.191,0.179c0.135-0.098,0.156-0.117,0.066-0.058
					c0.197-0.064,0.245-0.087,0.145-0.069c0.199,0,0.398,0,0.598,0c0.139,0.081,0.277,0.163,0.416,0.244
					c0.096,0.165,0.192,0.331,0.289,0.496c-0.037-0.097-0.033-0.046,0.012,0.151c-0.031-0.611-0.486-1.123-1.123-1.123
					C910.996,660.306,910.429,660.817,910.461,661.429L910.461,661.429z"/>
			</g>
		</g>
		<g>
			<g>
				<path fill="#1D1B3A" d="M886.377,711.925c2.06,3.419,7.415,4.348,8.935,0c0.479-1.371-1.691-1.955-2.166-0.597
					c-0.855,2.449-3.849,1.09-4.829-0.538C887.57,709.553,885.627,710.681,886.377,711.925L886.377,711.925z"/>
			</g>
		</g>
		<g>
			<path fill="#DC4832" d="M855.827,777.789c-4.669,11.027-25.481,55.334-16.689,64.128c10.102,10.103,66.761,9.663,66.761,9.663
				v-12.301c0,0-43.483,1.759-53.586-5.708c-9.049-6.688,22.82-48.688,22.82-48.688"/>
			<g>
				<path fill="#1D1B3A" d="M854.857,777.222c-5.283,12.41-10.823,24.685-14.96,37.545c-2.511,7.807-8.428,23.496,0.352,29.447
					c4.399,2.982,10.305,4.01,15.412,4.97c6.984,1.312,14.097,1.986,21.177,2.515c9.656,0.722,19.376,1.072,29.061,1.004
					c0.612-0.004,1.123-0.507,1.123-1.123c0-4.101,0-8.201,0-12.301c0-0.594-0.511-1.147-1.123-1.123
					c-7.841,0.31-15.71,0.242-23.549-0.077c-6.289-0.256-12.594-0.744-18.797-1.84c-3.355-0.593-10.669-1.459-11.642-5.481
					c-0.943-3.902,1.823-9.118,3.394-12.486c2.456-5.268,5.489-10.273,8.594-15.179c3.818-6.037,7.891-11.947,12.204-17.643
					c0.875-1.156-1.077-2.273-1.939-1.134c-4.908,6.48-9.487,13.236-13.771,20.144c-3.051,4.919-5.981,10-8.225,15.347
					c-1.531,3.65-3.287,7.973-2.314,11.995c0.802,3.318,5.032,4.526,7.853,5.389c6.138,1.878,12.784,2.381,19.152,2.833
					c9.64,0.685,19.382,0.76,29.04,0.378c-0.374-0.375-0.749-0.749-1.123-1.123c0,4.101,0,8.201,0,12.301
					c0.374-0.375,0.749-0.749,1.123-1.123c-7.943,0.056-15.897-0.22-23.827-0.664c-12.378-0.693-25.787-1.334-37.463-5.877
					c-5.015-1.951-6.601-5.053-6.469-10.338c0.164-6.539,2.288-13.13,4.273-19.302c3.958-12.303,9.33-24.049,14.384-35.92
					C857.357,777.039,855.423,775.893,854.857,777.222L854.857,777.222z"/>
			</g>
		</g>
		<g>
			<path fill="#DC4832" d="M855.254,686.654c-6.534,3.041-6.783,13.671,1.216,11.545c2.416-0.606,5.829-3.035,5.337-6.681
				c-0.236-3.649-4.617-4.551-7.033-5.47"/>
			<g>
				<path fill="#1B1D3A" d="M854.688,685.685c-3.176,1.6-5.232,4.725-5.403,8.28c-0.152,3.16,2.043,5.452,5.123,5.636
					c3.69,0.22,8.311-2.872,8.533-6.772c0.288-5.032-3.896-6.41-7.868-7.862c-1.364-0.499-1.946,1.673-0.598,2.166
					c2.266,0.828,5.83,1.503,6.209,4.387c0.461,3.506-3.18,5.769-6.276,5.835c-2.419,0.052-3.109-2.35-2.785-4.328
					c0.395-2.406,2.073-4.331,4.198-5.402C857.114,686.972,855.977,685.034,854.688,685.685L854.688,685.685z"/>
			</g>
		</g>
		<g>
			<path fill="#1D1B3A" d="M894.591,607.118c-1.828,6.363,3.675,11.398,1.848,17.76c-2.194,9.943-12.448,20.417-18.661,27.972
				c-5.849,7.159-11.696,13.92-17.909,19.884c-5.483,5.17-13.523,11.136-20.469,13.917c7.675-8.349-0.364-16.702-2.559-25.45
				c-3.288-13.122-4.021-27.042,2.194-39.368c6.943-13.124,15.35-17.5,29.238-18.293c5.482-0.399,11.331-0.797,16.447,0.397
				c2.559,0.797,8.042,1.591,9.139,4.375c5.481-2.784,14.618,0.793,19.737,3.578c6.943,3.977,12.792,8.75,15.35,17.101
				c2.193,5.965,2.925,13.123,1.46,19.484c-0.729,3.978-1.095,13.124-3.287,16.306c-2.193-0.797-2.923-3.58-4.021-5.568
				c-1.463-1.987-3.289-3.976-5.117-5.566c-5.118-5.567-10.234-9.943-14.62-15.907c-6.945-9.941-13.889-19.088-13.889-31.812"/>
			<g>
				<path fill="#1B1D3A" d="M893.508,606.82c-0.544,2.635-0.358,4.902,0.31,7.5c1.212,4.707,2.332,8.09,0.749,12.981
					c-2.803,8.661-10.024,15.857-15.798,22.624c-11.596,13.591-22.99,28.562-39.936,35.756c0.453,0.588,0.907,1.176,1.36,1.764
					c6.471-7.917,1.9-15.362-1.352-23.641c-4.795-12.208-4.719-27.777,0.392-39.788c3.794-8.917,10.794-15.639,20.183-18.121
					c5.23-1.382,10.912-1.476,16.288-1.625c4.177-0.117,14.607,0.185,17.186,4.607c0.229,0.394,0.812,0.706,1.269,0.516
					c6.172-2.561,13.356,0.564,18.872,3.465c6.328,3.329,11.65,8.301,14.348,14.993c2.795,6.934,3,13.909,1.804,21.186
					c-0.812,4.938-0.449,10.739-3.032,15.176c0.512-0.134,1.024-0.269,1.536-0.403c-2.381-1.334-2.972-4.33-4.535-6.355
					c-1.301-1.684-2.808-3.173-4.375-4.604c-4.359-3.982-8.523-8.566-12.369-13.045c-8.024-9.344-15.499-21.298-15.811-33.88
					c-0.036-1.446-2.282-1.449-2.246,0c0.312,12.608,7.047,22.393,14.042,32.379c3.825,5.461,8.92,9.981,13.517,14.766
					c2.346,2.441,5.205,4.687,6.747,7.755c1.055,2.097,1.811,3.754,3.897,4.923c0.532,0.299,1.225,0.133,1.536-0.403
					c1.589-2.729,2.034-5.972,2.435-9.058c0.55-4.229,1.33-8.461,1.704-12.704c0.775-8.801-2.242-18.466-8.056-25.092
					c-5.466-6.229-14.145-10.47-22.173-12.011c-2.455-0.471-6.97,1.083-8.472-0.413c-2.358-2.35-7.141-2.947-10.239-3.558
					c-8.557-1.687-19.604-0.599-27.89,2.255c-7.503,2.584-12.728,8.49-16.609,15.172c-5.396,9.292-6.211,20.416-5.045,30.872
					c0.568,5.101,1.62,10.25,3.498,15.032c2.688,6.845,6.862,13.286,1.363,20.015c-0.837,1.023,0.182,2.265,1.36,1.764
					c17.064-7.244,28.771-22.354,40.392-36.107c5.515-6.527,11.291-12.902,15.127-20.614c1.587-3.188,2.616-6.679,2.352-10.247
					c-0.349-4.678-3.17-8.352-2.162-13.236C895.966,606.003,893.801,605.401,893.508,606.82L893.508,606.82z"/>
			</g>
		</g>
		<g>
			<path fill="#F4EDE1" d="M927.424,823.792c-2.121,0.352-2.828,3.532-2.121,6.359c0.707,1.768,3.889,4.945,5.301,5.654
				c6.008,2.12,8.126,2.12,13.78,4.593c5.302,1.769,12.367,3.181,18.023,2.122c2.474-0.357,19.435-2.476,21.908-2.828
				c3.181-0.354,1.062-2.473-6.714-6.361c-1.056-0.753-15.261-3.989-13.426-3.534c3.885,1.06-12.723-1.766-15.551-4.948
				c-0.352,0-0.706,0.354-0.706,0.354c7.421,0,26.503,2.12,22.969-3.532c-8.48-0.708-16.608-3.534-24.736-5.301
				c-2.119-0.352-1.414-0.707-3.179,0c-1.414,0.352-2.829,1.767-4.241,2.121c-1.768,1.059-4.24,2.12-6.361,2.473"/>
			<g>
				<path fill="#1B1D3A" d="M927.125,822.708c-3.431,1.445-4.003,5.728-2.35,8.841c2.835,5.339,8.5,6.299,13.747,7.856
					c7.568,2.246,14.21,5.043,22.31,4.466c4.543-0.323,9.131-1.212,13.648-1.787c2.203-0.28,16.747-0.406,10.823-5.524
					c-5.262-4.546-14.421-7.342-21.281-7.927c-1.283-0.109-1.503,1.894-0.299,2.206c0.601,0.156,0.584,0.423,0.062-0.259
					c0.323-0.563,0.646-1.126,0.97-1.69c-4.061,0.315-12.422-2.074-15.336-4.835c-0.274-0.261-0.717-0.426-1.093-0.289
					c-0.487,0.178-0.803,0.323-1.201,0.643c-0.804,0.642-0.104,1.909,0.794,1.917c2.902,0.025,26.326,2.767,24.467-3.924
					c-0.548-1.972-1.322-1.836-3.31-2.037c-5.893-0.595-11.683-2.357-17.397-3.828c-2.777-0.714-6.173-2.295-9.005-1.25
					c-3.673,1.354-6.695,3.723-10.603,4.594c-1.413,0.315-0.813,2.48,0.598,2.166c4.047-0.902,9.235-5.451,13.184-4.594
					c7.071,1.535,13.97,3.713,21.123,4.877c3.979,0.648,2.049,1.568-0.509,1.903c-2.06,0.27-4.167,0.241-6.239,0.231
					c-4.105-0.018-8.203-0.349-12.309-0.384c0.265,0.639,0.529,1.278,0.794,1.917c-0.637,0.509,1.245,1.136,2.262,1.593
					c1.842,0.828,3.805,1.384,5.745,1.922c2.377,0.659,5.519,1.82,8.035,1.625c0.744-0.058,1.536-0.951,0.97-1.69
					c-0.373-0.487-0.825-0.623-1.404-0.773c-0.099,0.735-0.198,1.471-0.298,2.207c3.543,0.302,9.637,1.639,13.013,3.42
					c1.783,0.941,3.561,1.855,5.287,2.899c1.164,0.703,3.109,1.212,1.347,1.457c-3.059,0.424-6.125,0.792-9.188,1.182
					c-7.177,0.914-14.554,2.484-21.773,1.468c-4.779-0.672-9.043-2.614-13.588-4.067c-2.161-0.69-4.36-1.255-6.524-1.941
					c-1.442-0.431-2.66-1.183-3.653-2.255c-1.532-1.419-5.772-6.252-1.219-8.169C929.036,824.321,928.46,822.146,927.125,822.708
					L927.125,822.708z"/>
			</g>
		</g>
		<g>
			<g>
				<path fill="#1B1D3A" d="M959.635,828.714c-3.679,1.234-6.283,4.243-9.808,5.768c-1.327,0.574-0.182,2.508,1.133,1.939
					c3.335-1.442,5.811-4.38,9.272-5.541C961.598,830.422,961.013,828.252,959.635,828.714L959.635,828.714z"/>
			</g>
		</g>
		<g>
			<g>
				<path fill="#1B1D3A" d="M973.66,835.782c-5.742-1.429-11.502-2.778-17.315-3.887c-1.415-0.27-2.02,1.895-0.598,2.166
					c5.813,1.109,11.573,2.458,17.315,3.887C974.469,838.298,975.065,836.132,973.66,835.782L973.66,835.782z"/>
			</g>
		</g>
		<g>
			<g>
				<path fill="#1B1D3A" d="M964.826,838.255c-3.965-1.025-8.05-1.447-12.014-2.473c-1.404-0.363-1.999,1.804-0.598,2.166
					c3.964,1.025,8.05,1.448,12.014,2.473C965.633,840.784,966.228,838.617,964.826,838.255L964.826,838.255z"/>
			</g>
		</g>
		<g>
			<path fill="#F4EDE1" d="M898.878,849.069c12.332,0.169,20.84,10.287,33.32,4.973c8.546-3.568,15.474-9.713,23.276-13.892
				c-8.179-6.729-25.47-1.631-34.277-0.774c2.579-1.618,11.896-4.338,14.409-6.633c-7.168-2.071-21.497,0.512-26.686,4.847
				c-7.482,6.25-11.528,10.255-1.71,12.722"/>
			<g>
				<path fill="#1B1D3A" d="M898.878,850.192c9.655,0.438,17.835,6.947,27.603,6.442c10.854-0.561,20.502-10.494,29.561-15.515
					c0.804-0.445,0.644-1.462,0-1.939c-9.749-7.245-23.99-2.122-34.844-0.927c0.189,0.698,0.378,1.395,0.566,2.093
					c4.677-2.625,10.365-3.443,14.637-6.809c0.676-0.532,0.259-1.688-0.495-1.877c-8.477-2.123-20.499-0.424-27.551,4.96
					c-2.912,2.223-7.132,5.321-8.018,9.13c-0.826,3.556,4.184,4.97,6.575,5.644c1.397,0.394,1.989-1.774,0.598-2.166
					c-1.411-0.397-5.89-1.208-4.644-4.007c0.683-1.534,2.242-2.768,3.442-3.896c2.617-2.46,5.199-4.343,8.548-5.636
					c6.194-2.392,13.949-3.492,20.451-1.864c-0.165-0.625-0.33-1.251-0.495-1.877c-4.085,3.217-9.691,3.936-14.182,6.457
					c-0.92,0.517-0.578,2.219,0.566,2.093c10.402-1.145,24.399-6.299,33.711,0.621c0-0.646,0-1.293,0-1.939
					c-9.32,5.166-18.68,14.705-29.784,15.278c-9.025,0.467-17.159-6.1-26.246-6.512C897.43,847.88,897.436,850.127,898.878,850.192
					L898.878,850.192z"/>
			</g>
		</g>
		<g>
			<g>
				<path fill="#1B1D3A" d="M929.867,847.629c7.33-1.62,15.034-3.834,22.522-4.427c1.434-0.113,1.445-2.361,0-2.246
					c-7.7,0.61-15.586,2.843-23.12,4.507C927.855,845.776,928.455,847.941,929.867,847.629L929.867,847.629z"/>
			</g>
		</g>
	</g>
</g>
</svg>
