<?xml version="1.0" encoding="utf-8"?>
<!-- Generator: Adobe Illustrator 16.0.4, SVG Export Plug-In . SVG Version: 6.00 Build 0)  -->
<!DOCTYPE svg PUBLIC "-//W3C//DTD SVG 1.1//EN" "http://www.w3.org/Graphics/SVG/1.1/DTD/svg11.dtd">
<svg version="1.1" id="Layer_1" xmlns="http://www.w3.org/2000/svg" xmlns:xlink="http://www.w3.org/1999/xlink" x="0px" y="0px"
	 width="2801.172px" height="1296.653px" viewBox="0 0 2801.172 1296.653" enable-background="new 0 0 2801.172 1296.653"
	 xml:space="preserve">
<g id="char4">
	<g>
		<path fill="#1D1B3A" d="M1637.57,873.652c6.081-73.039,31.144-116.65,10.338-158.663c-8.455-0.064-28.149,14.954-35.535,12.222
			c-11.624,71.846-13.931,85.561-26.848,132.444c-0.471,1.742-0.841,3.765-1.113,6.05
			C1600.642,874.18,1619.764,877.129,1637.57,873.652z"/>
		<g>
			<path fill="#1D1B3A" d="M1638.781,873.652c2.708-31.574,10.381-62.095,15.653-93.246c3.786-22.372,4.666-45.136-5.481-66.027
				c-0.177-0.365-0.648-0.615-1.045-0.6c-5.45,0.202-10.742,3.297-15.511,5.655c-5.222,2.581-13.577,8.417-19.702,6.61
				c-0.582-0.171-1.386,0.202-1.49,0.846c-4.188,25.889-8.146,51.851-13.337,77.564c-1.893,9.378-4.039,18.701-6.364,27.981
				c-2.752,10.986-6.801,22.046-8.303,33.271c-0.052,0.389,0.264,0.874,0.6,1.045c16.759,8.525,35.572,11.469,54.092,8.069
				c1.534-0.282,0.882-2.615-0.645-2.335c-10.532,1.934-21.099,1.722-31.584-0.415c-5.503-1.122-10.855-2.952-16.004-5.173
				c-2.95-1.273-4.015-2.046-3.302-5.561c0.434-2.137,1.128-4.243,1.702-6.346c3.305-12.09,6.477-24.218,9.258-36.44
				c6.838-30.043,11.304-60.62,16.223-91.017c-0.497,0.282-0.993,0.564-1.49,0.846c4.994,1.473,10.651-1.614,15.051-3.661
				c6.338-2.949,13.043-7.676,20.116-8.492c0.761-0.088,3.534,8.803,3.923,10.004c1.17,3.62,1.979,7.348,2.604,11.097
				c1.254,7.528,1.251,15.239,0.773,22.834c-1.089,17.317-5.158,34.401-8.606,51.356c-4.182,20.562-7.757,41.212-9.552,62.134
				C1636.227,875.209,1638.648,875.196,1638.781,873.652z"/>
		</g>
	</g>
	<g>
		<path fill="#F4EDE1" d="M1678.457,598.361c6.367-22.42,4.711-38.215-0.534-40.769c-20.339-9.912-63.256-15.484-63.481,5.2
			c-0.038,3.455-0.257,6.751-0.567,9.958c0.738,3.225,1.392,6.46,1.034,9.963c-0.64,6.261-1.045,12.645-1.999,18.863
			c-0.508,3.312-1.319,6.457-2.431,9.43c0.068,1.226,0.119,2.451,0.147,3.676c-1.853,4.671-4.891,8.328-4.743,11.327
			c0.551,3.292-6.095,19.833-6.414,23.037c0.192,0.12,10.345,3.855,10.523,3.954c2.256,19.579,3.229,26.933,12.437,63.177
			c0.944,3.724,6.937,8.625,15.933,4.822c-0.398-3.26,11.063-10.937,10.637-14.395c-2.137-17.832,1.648-38.854,9.531-66.387
			c1.585-5.533,26.604-15.411,26.185-39.599C1684.549,591.114,1677.038,603.351,1678.457,598.361z"/>
	</g>
	<g>
		<path fill="#1D1B3A" d="M1612.806,883.666c-5.351,43.915,29.118,208.724,34.5,227.16c2.401,8.174,3.214,8.604-27.353,16.588
			c-10.059,2.627-66.991,7.463-38.28,20.932c15.562,7.303,72.783-22.85,72.795-24.773c0.004-0.666-0.957-2.953-1.479-10.994
			c-1.901-30.613-17.471-194.708-9.013-210.225c10.879-19.958,6.283-32.581-5.01-50.44c-11.292-17.858-52.274,13.807-52.274,13.807
			c-5.352,43.918,29.117,208.724,34.499,227.159c2.402,8.176,5.349,4.83-25.22,12.814c-10.06,2.625-63.38,1.889-34.667,15.355
			c15.562,7.305,67.038-13.498,67.051-15.424c0.003-0.664-0.959-2.955-1.479-10.992c-2.51-40.383-27.893-184.107-10.848-186.056"/>
		<g>
			<path fill="#1D1B3A" d="M1611.595,883.666c-1.473,12.591-0.216,25.579,0.962,38.139c1.671,17.824,4.205,35.57,6.963,53.255
				c5.583,35.799,12.32,71.442,19.867,106.877c2.009,9.43,3.948,18.92,6.475,28.229c0.971,3.574,2.482,6.363-1.397,8.512
				c-3.281,1.818-7.177,2.738-10.752,3.773c-5.188,1.504-10.44,3.072-15.73,4.168c-12.858,2.664-26.659,3.109-38.871,8.303
				c-3.054,1.301-7.485,3.545-6.478,7.58c1.086,4.348,8.136,7.303,12.022,7.947c6.422,1.064,13.413-0.852,19.537-2.59
				c8.306-2.359,16.358-5.627,24.255-9.096c6.908-3.033,13.714-6.346,20.316-10c1.501-0.83,7.098-3.031,6.899-5.375
				c-0.47-5.547-1.459-11.094-1.869-16.684c-0.406-5.531-0.853-11.059-1.295-16.586c-1.281-15.98-2.58-31.961-3.802-47.947
				c-2.706-35.415-5.454-70.934-5.964-106.46c-0.143-9.981-0.882-20.992,1.583-30.773c0.76-3.016,2.637-5.697,3.842-8.548
				c2.238-5.293,3.336-10.908,3.18-16.645c-0.283-10.431-6.176-21.894-12.441-29.966c-8.768-11.296-28.838-0.155-37.832,4.987
				c-4.943,2.826-9.719,5.986-14.288,9.383c-2.63,1.955-1.788,7.607-1.841,10.601c-0.263,14.759,1.4,29.593,3.139,44.225
				c2.209,18.607,5.073,37.137,8.167,55.616c5.641,33.688,12.074,67.28,19.473,100.629c1.648,7.428,3.879,14.693,5.638,22.061
				c0.665,2.787-33.056,8.299-38.435,8.76c-7.04,0.605-14.118,1.143-21.071,2.443c-3.021,0.564-9.316,1.492-10.093,5.307
				c-0.869,4.271,6.993,7.621,9.801,8.674c6.333,2.379,13.68,1.293,20.169,0.225c15.187-2.5,30.986-7.518,44.787-14.396
				c4.404-2.195,2.551-4.482,1.99-8.963c-0.818-6.545-1.079-13.184-1.796-19.746c-3.717-34.014-8.899-67.848-12.381-101.891
				c-1.571-15.354-2.988-30.817-2.931-46.265c0.015-3.851-0.998-20.767,4.957-21.684c1.54-0.237,0.884-2.57-0.643-2.335
				c-6.498,1-6.359,13.669-6.589,18.2c-0.766,15.144,0.72,30.469,2.139,45.53c3.365,35.713,8.829,71.179,12.845,106.817
				c0.691,6.135,1.244,12.273,1.691,18.432c0.156,2.152,0.431,4.297,0.78,6.428c0.155,0.945,0.178,2.785,0.731,2.229
				c-1.238,1.242-3.609,1.938-5.167,2.635c-15.286,6.824-32.765,12.697-49.559,13.65c-5.803,0.33-15.091-0.885-18.358-6.578
				c-1.575-2.746,13.182-4.73,14.47-4.896c7.074-0.908,14.201-1.311,21.294-2.043c8.295-0.857,16.349-3.492,24.447-5.4
				c2.427-0.57,8.945-1.082,9.343-4.547c0.278-2.434-1.483-5.453-2.098-7.818c-2.648-10.207-4.779-20.562-6.955-30.879
				c-7.583-35.959-14.33-72.13-19.87-108.462c-2.705-17.736-5.111-35.542-6.564-53.429c-0.553-6.799-0.935-13.62-0.946-20.443
				c-0.005-2.598,0.073-5.196,0.248-7.788c0.065-0.985,0.787-3.105-0.266-2.295c0.396-0.304,0.796-0.6,1.197-0.896
				c10.938-8.08,24.788-17.484,38.754-18.179c3.508-0.175,6.872,0.758,9.405,3.249c4.527,4.45,7.818,12.497,10.02,18.341
				c2.264,6.006,2.745,12.32,1.582,18.612c-1.007,5.443-3.864,9.977-5.863,15.021c-3.164,7.988-2.154,18.643-2.15,27.009
				c0.006,16.162,0.805,32.327,1.693,48.46c1.948,35.39,4.812,70.722,7.658,106.048c0.917,11.389,1.137,23.084,2.768,34.395
				c0.209,1.451,0.459,2.885,0.779,4.314c0.064,0.287,0.535-0.266-0.402,0.404c-1.833,1.311-3.854,2.389-5.822,3.479
				c-6.713,3.715-13.668,7.012-20.69,10.096c-8.288,3.641-16.803,6.893-25.563,9.207c-6.586,1.738-13.902,3.314-20.23,0.088
				c-1.656-0.846-5.915-2.885-5.57-5.311c0.314-2.211,4.084-3.52,5.798-4.207c6.628-2.658,13.924-3.842,20.922-5.07
				c5.957-1.045,12.001-1.752,17.911-3.045c8.58-1.875,18.266-3.979,26.168-7.994c6.743-3.428,2.451-11.23,1.112-16.781
				c-7.082-29.355-12.686-59.127-18.054-88.836c-4.566-25.271-8.746-50.634-11.881-76.125c-2.219-18.049-4.976-37.167-2.847-55.36
				C1614.197,882.117,1611.774,882.134,1611.595,883.666L1611.595,883.666z"/>
		</g>
	</g>
	<g>
		<path fill="#EFEA77" d="M1637.36,871.059c0.385,4.647,3.01,12.987,2.9,11.849c2.839-1.03-42.062,6.359-42.062,6.359
			l-10.536-23.489"/>
		<g>
			<path fill="#1D1B3A" d="M1636.149,871.059c0.435,3.954,1.054,9.044,3.05,12.564c0.479,0.845,2.041,0.779,2.213-0.29
				c-0.053,0.323-0.822,0.906-0.166,0.362c0.486-0.404,0.461-1.303,0-1.712c-0.837-0.741-2.375-0.267-3.349-0.143
				c-3.097,0.395-6.183,0.874-9.268,1.344c-7.995,1.219-15.979,2.509-23.962,3.806c-2.119,0.344-4.237,0.69-6.355,1.038
				c-0.997,0.164,1.258,1.354,0.622-0.063c-0.577-1.287-1.154-2.574-1.731-3.861c-2.832-6.312-5.663-12.625-8.494-18.938
				c-0.639-1.423-2.725-0.19-2.092,1.222c3.513,7.83,7.024,15.66,10.537,23.489c0.234,0.524,0.87,0.638,1.367,0.557
				c6.574-1.082,13.15-2.144,19.73-3.191c4.754-0.757,9.508-1.502,14.269-2.215c1.79-0.268,3.582-0.531,5.377-0.767
				c1.35-0.177,2.581,0.271,1.636-0.567c0-0.57,0-1.141,0-1.712c0.203-0.168-0.4,0.356-0.457,0.707
				c0.738-0.096,1.476-0.193,2.213-0.289c-1.748-3.085-2.34-7.889-2.718-11.342C1638.402,869.524,1635.979,869.507,1636.149,871.059
				L1636.149,871.059z"/>
		</g>
	</g>
	<g>
		<path fill="#F4EDE1" d="M1610.6,606.968c-0.943,14.581-30.189,26.064-41.99,27.648c12.212,14.013,24.663,5.499,37.796-3.394"/>
		<g>
			<path fill="#1D1B3A" d="M1609.389,606.968c-0.909,8.781-10.404,14.463-17.398,18.232c-7.267,3.916-15.5,7.046-23.703,8.249
				c-0.959,0.141-1.085,1.426-0.533,2.023c4.646,5.037,10.651,8.8,17.784,7.571c8.038-1.385,14.862-6.298,21.479-10.775
				c1.285-0.87,0.075-2.969-1.223-2.091c-5.397,3.653-10.809,7.432-17.001,9.614c-7.612,2.682-14.104-0.369-19.328-6.031
				c-0.178,0.674-0.355,1.349-0.533,2.023c9.231-1.354,18.321-5.132,26.417-9.667c7.258-4.065,15.538-10.234,16.462-19.148
				C1611.971,605.416,1609.548,605.431,1609.389,606.968L1609.389,606.968z"/>
		</g>
	</g>
	<g>
		<g>
			<path fill="#1D1B3A" d="M1611.783,600.73c2.167,0.18,4.201,0.738,5.965,2.044c1.257,0.931,2.462-1.172,1.223-2.091
				c-2.104-1.558-4.616-2.162-7.188-2.375C1610.227,598.18,1610.238,600.602,1611.783,600.73L1611.783,600.73z"/>
		</g>
	</g>
	<g>
		<g>
			<path fill="#1D1B3A" d="M1629.68,621.074c-2.733,3.032-5.131,1.744-7.914,0.884c-2.642-0.816-3.926-0.937-3.873-4.359
				c0.084-5.502,1.353-11.227,2.375-16.625c0.421-2.218,0.702-4.675,2.248-6.432c1.633-1.856,4.986-0.263,6.659,0.544
				c2.593,1.25,4.876,3.1,7.186,4.792c0.097-0.738,0.193-1.475,0.29-2.213c-2.239,0.854-2.411,5.407-2.881,7.381
				c-1.328,5.583-2.48,11.214-3.973,16.756c-0.406,1.51,1.93,2.15,2.336,0.644c1.193-4.437,2.16-8.936,3.191-13.412
				c0.481-2.087,0.971-4.171,1.482-6.251c0.184-0.743,0.38-1.482,0.582-2.22c0.354-1.287,0.154-0.658-0.096-0.562
				c1.022-0.39,1.164-1.572,0.29-2.213c-3.459-2.535-7.671-6.257-12.2-6.427c-6.708-0.251-7.178,7.307-8.066,12.34
				c-0.72,4.069-1.226,8.177-1.68,12.283c-0.234,2.121-0.639,5.385,1.438,6.844c4.109,2.887,10.774,3.887,14.315-0.042
				C1632.434,621.629,1630.727,619.912,1629.68,621.074L1629.68,621.074z"/>
		</g>
	</g>
	<g>
		<g>
			<path fill="#1D1B3A" d="M1623.225,602.79c-0.461,2.27-1.189,4.461-1.926,6.654c-0.499,1.484,1.84,2.116,2.334,0.644
				c0.736-2.192,1.466-4.384,1.926-6.654C1625.868,601.91,1623.535,601.26,1623.225,602.79L1623.225,602.79z"/>
		</g>
	</g>
	<g>
		<g>
			<path fill="#1D1B3A" d="M1608.35,582.974c4.408-0.233,8.746-1.128,13.14-1.521c1.542-0.138,1.556-2.56,0-2.421
				c-4.394,0.393-8.731,1.288-13.14,1.521C1606.797,580.635,1606.789,583.057,1608.35,582.974L1608.35,582.974z"/>
		</g>
	</g>
	<g>
		<g>
			<path fill="#1D1B3A" d="M1610.238,577.971c1.422,0.193,2.786,0.067,4.203-0.107c0.654-0.081,1.211-0.489,1.211-1.21
				c0-0.599-0.555-1.292-1.211-1.21c-1.159,0.143-2.391,0.353-3.559,0.193c-0.654-0.089-1.297,0.146-1.49,0.846
				C1609.236,577.053,1609.584,577.882,1610.238,577.971L1610.238,577.971z"/>
		</g>
	</g>
	<g>
		<g>
			<path fill="#1D1B3A" d="M1670.244,585.419c0.177-0.282,0.401-0.517,0.674-0.707c-0.571-0.571-1.142-1.141-1.713-1.712
				c-2.754,2.79-8.05,10.401-4.777,14.222c1.765,2.061,4.508,0.205,5.719-1.349c1.851-2.376,2.882-5.591,3.588-8.484
				c0.285-1.171-1.145-2.041-2.023-1.178c-2.516,2.467-6.781,11.812-3.481,14.768c3.732,3.342,7.411-7.126,8.011-9.305
				c0.359-1.31-1.559-2.16-2.213-0.933c-1.029,1.927-6.633,14.629-0.09,11.77c1.428-0.624,0.193-2.709-1.223-2.091
				c0.264,0.488,0.358,0.469,0.286-0.059c0.052-0.404,0.132-0.803,0.238-1.196c0.247-1.036,0.638-2.042,1.015-3.035
				c0.537-1.416,1.15-2.83,1.863-4.167c-0.737-0.311-1.475-0.622-2.213-0.933c-0.373,1.361-0.932,2.677-1.51,3.96
				c-0.208,0.46-2.582,4.402-2.765,3.856c-0.894-2.679,1.881-9.048,3.792-10.924c-0.674-0.393-1.349-0.785-2.023-1.178
				c-0.426,1.747-1,3.451-1.719,5.099c-0.456,1.045-3.92,6.096-3.812,2.359c0.09-3.108,2.916-7.328,5.051-9.491
				c1.113-1.128-0.534-2.701-1.713-1.712c-0.271,0.189-0.496,0.425-0.674,0.707C1667.573,584.917,1669.274,586.643,1670.244,585.419
				L1670.244,585.419z"/>
		</g>
	</g>
	<g>
		<g>
			<path fill="#1D1B3A" d="M1675.74,598.351c-4.039,1.424-7.195,3.959-10.069,7.094c-1.753,1.913-5.715,5.99-4.739,8.957
				c0.729,2.213,2.33,2.335,4.464,2.357c1.636,0.018-4.003,4.19-4.497,4.587c-1.302,1.042-1.906,2.032-2.184,3.663
				c-0.258,1.527,2.074,2.181,2.336,0.644c0.459-2.712,10.435-6.54,6.298-10.676c-1.747-1.748-5.552,0.519-2.808-4.181
				c2.535-4.342,7.139-8.451,11.842-10.109C1677.846,600.17,1677.216,597.83,1675.74,598.351L1675.74,598.351z"/>
		</g>
	</g>
	<g>
		<g>
			<path fill="#1D1B3A" d="M1677.855,598.254c3.783-11.194,11.431-27.335,5.42-38.958c-2.581-4.99-9.498-7.03-14.445-8.454
				c-7.076-2.037-14.473-2.839-21.736-3.909c-7.534-1.109-15.209-2.588-22.493,0.407c-6.052,2.488-9.287,7.922-10.079,14.19
				c-1.674,13.25-1.338,26.728-3.434,39.947c-0.241,1.527,2.092,2.183,2.336,0.644c1.617-10.207,2.065-20.645,2.775-30.943
				c0.43-6.243,0.031-13.322,4.483-18.261c6.275-6.962,16.691-4.947,24.788-3.798c10.766,1.528,26.587,1.844,34.727,10.014
				c4.709,4.728,2.416,14.239,1.131,19.823c-1.459,6.346-3.726,12.495-5.807,18.655
				C1675.02,599.094,1677.359,599.725,1677.855,598.254L1677.855,598.254z"/>
		</g>
	</g>
	<g>
		<g>
			<path fill="#1D1B3A" d="M1667.76,599.452c3.604-1.638,7.367-3.23,11.351-3.583c7.659-0.678,5.349,8.761,3.879,13.188
				c-1.997,6.021-5.938,11.458-10.272,15.996c-4.201,4.396-10.802,9.428-16.859,10.585c-1.533,0.293-0.883,2.626,0.643,2.335
				c7.559-1.444,14.97-7.827,19.979-13.426c4.965-5.55,9.365-13.047,10.273-20.555c0.572-4.734-0.196-9.614-5.625-10.468
				c-4.907-0.772-10.253,1.867-14.59,3.838C1665.117,598.007,1666.35,600.093,1667.76,599.452L1667.76,599.452z"/>
		</g>
	</g>
	<g>
		<g>
			<path fill="#1D1B3A" d="M1658.223,637.372c-2.771,9.229-6.116,18.277-8.828,27.526c-3.791,12.929-2.652,27.177-3.373,40.482
				c-0.084,1.561,2.338,1.553,2.422,0c0.729-13.465-0.29-27.643,3.545-40.72c2.625-8.954,5.887-17.709,8.57-26.645
				C1661.008,636.517,1658.671,635.88,1658.223,637.372L1658.223,637.372z"/>
		</g>
	</g>
	<g>
		<polyline fill="#EFEA77" points="1608.559,744.704 1611.537,724.148 1633.288,709.821 1634.575,724.259 1607.958,745.134 		"/>
		<g>
			<path fill="#1D1B3A" d="M1609.727,745.025c0.542-3.747,1.085-7.493,1.628-11.24c0.358-2.473,0.717-4.945,1.075-7.418
				c0.08-0.555,0.161-1.111,0.241-1.666c0.016-0.105-0.97,0.787,0.086,0.091c7.048-4.642,14.095-9.284,21.143-13.926
				c-0.607-0.349-1.215-0.697-1.822-1.045c0.392,4.393,0.784,8.787,1.175,13.18c0.155,1.736,0.979,0.001-0.551,1.201
				c-1.512,1.186-3.023,2.371-4.535,3.556c-7.021,5.507-14.043,11.014-21.064,16.521c-1.228,0.963,0.499,2.664,1.713,1.712
				c7.437-5.833,14.873-11.665,22.311-17.498c1.582-1.241,4.801-2.666,4.596-4.966c-0.407-4.568-0.814-9.137-1.222-13.706
				c-0.076-0.85-0.991-1.592-1.822-1.045c-7.134,4.699-14.268,9.398-21.402,14.098c-2.026,1.335-1.674,6.262-1.979,8.374
				c-0.635,4.378-1.27,8.756-1.904,13.135C1607.17,745.908,1609.503,746.566,1609.727,745.025L1609.727,745.025z"/>
		</g>
	</g>
	<g>
		<path fill="#EFEA77" d="M1633.59,707.32c-0.774,1.205,3.118,22.408,3.118,22.408l21.792-15.539l-5.631-12.476L1633.59,707.32z"/>
		<g>
			<path fill="#1D1B3A" d="M1632.422,706.999c-1.033,2.926,0.58,7.88,1.033,10.813c0.633,4.089,1.34,8.168,2.086,12.238
				c0.134,0.731,1.172,1.156,1.778,0.724c7.264-5.18,14.527-10.359,21.792-15.539c0.581-0.415,0.726-1.011,0.434-1.656
				c-1.877-4.159-3.754-8.317-5.631-12.476c-0.217-0.483-0.888-0.696-1.367-0.557c-6.426,1.869-12.853,3.738-19.279,5.606
				c-1.496,0.435-0.858,2.772,0.645,2.335c5.797-1.686,11.595-3.372,17.392-5.058c2.425-0.705,1.057,0.083,0.558-1.023
				c0.597,1.323,1.194,2.646,1.791,3.97c1.268,2.808,2.535,5.616,3.803,8.423c0.145-0.552,0.289-1.104,0.434-1.656
				c-7.264,5.18-14.527,10.359-21.792,15.539c0.593,0.241,1.186,0.482,1.778,0.724c-0.564-3.086-1.096-6.178-1.608-9.273
				c-0.542-3.274-2.646-9.275-1.509-12.491C1635.279,706.166,1632.939,705.537,1632.422,706.999z"/>
		</g>
	</g>
	<g>
		<g>
			<path fill="#1D1B3A" d="M1609.111,650.427c-0.713,3.873,0.09,8.137,0.565,11.989c0.865,7.023,2.071,14.006,3.34,20.965
				c2.015,11.056,3.405,23.437,7.659,33.923c0.578,1.427,2.922,0.804,2.334-0.644c-3.985-9.825-5.301-21.354-7.248-31.704
				c-1.256-6.68-2.399-13.384-3.344-20.115c-0.601-4.284-1.769-9.439-0.971-13.771
				C1611.728,649.545,1609.395,648.893,1609.111,650.427L1609.111,650.427z"/>
		</g>
	</g>
	<g>
		<g>
			<path fill="#1D1B3A" d="M1622.254,649.332c-7.643,0.624-16.229,1.634-23.32-1.922c0.145,0.552,0.289,1.104,0.434,1.656
				c2.024-4.714,4.049-9.428,6.072-14.143c0.609-1.418-1.476-2.653-2.09-1.222c-2.024,4.714-4.049,9.428-6.072,14.143
				c-0.247,0.574-0.207,1.335,0.434,1.656c7.547,3.783,16.398,2.917,24.543,2.252
				C1623.799,651.627,1623.811,649.205,1622.254,649.332L1622.254,649.332z"/>
		</g>
	</g>
	<g>
		<g>
			<path fill="#F2C132" d="M1613.356,863.623c30.244-3.522,94.087-0.069,106.111,0.391c-4.084,35.666-4.102,47.415-5.033,70.931
				c-33.365-2.833-57.278-0.612-90.691-1.878c0,0-6.192-52.675-10.429-68.41"/>
			<g>
				<path fill="#1D1B3A" d="M1613.356,864.833c35.054-3.953,70.97-0.983,106.111,0.391c-0.403-0.403-0.808-0.807-1.211-1.21
					c-2.688,23.63-4.101,47.182-5.033,70.931c0.403-0.403,0.808-0.807,1.211-1.21c-30.193-2.489-60.453-0.788-90.691-1.878
					c0.403,0.403,0.808,0.807,1.211,1.21c-2.685-22.798-4.622-46.495-10.472-68.731c-0.397-1.509-2.733-0.868-2.336,0.644
					c5.799,22.036,7.727,45.499,10.386,68.088c0.08,0.675,0.491,1.185,1.211,1.21c30.238,1.091,60.498-0.61,90.691,1.878
					c0.677,0.056,1.187-0.593,1.211-1.21c0.933-23.75,2.344-47.301,5.033-70.931c0.076-0.675-0.61-1.187-1.211-1.21
					c-35.142-1.375-71.058-4.345-106.111-0.391C1611.823,862.585,1611.807,865.008,1613.356,864.833L1613.356,864.833z"/>
			</g>
		</g>
		<g>
			<path fill="#FFFFFF" d="M1719.846,860.472c-38.827-3.539-88.31-3.859-100.341-4.324c4.813,34.969,7.983,55.145,7.038,78.664
				c33.504-0.303,49.992-5.367,83.42-4.106c0,0,5.284-54.837,10.773-70.207"/>
			<g>
				<path fill="#1D1B3A" d="M1719.846,859.262c-33.398-2.997-66.864-3.085-100.341-4.324c-0.867-0.032-1.27,0.792-1.167,1.532
					c3.578,25.959,7.967,52.048,6.994,78.342c-0.023,0.654,0.569,1.218,1.211,1.21c27.899-0.332,55.477-5.067,83.42-4.106
					c0.707,0.024,1.148-0.572,1.211-1.21c0.929-9.608,2.039-19.201,3.256-28.775c1.725-13.573,2.969-28.103,7.475-41.109
					c0.512-1.479-1.828-2.109-2.336-0.644c-4.458,12.873-5.672,27.189-7.415,40.623c-1.291,9.947-2.437,19.92-3.401,29.905
					c0.404-0.403,0.808-0.807,1.211-1.21c-27.943-0.961-55.521,3.774-83.42,4.106c0.403,0.403,0.807,0.807,1.211,1.21
					c0.98-26.507-3.475-52.818-7.082-78.986c-0.389,0.511-0.777,1.021-1.167,1.532c33.477,1.239,66.942,1.328,100.341,4.324
					C1721.401,861.822,1721.388,859.4,1719.846,859.262L1719.846,859.262z"/>
			</g>
		</g>
		<g>
			<path fill="#FFFFFF" d="M1724.871,865.254c-37.497-3.5-87.806-5.405-99.823-5.868c4.645,38.604,3.686,51.875,2.735,75.391
				c33.482-0.307,53.77-0.555,87.199,0.708c0,0,5.291-54.833,10.773-70.196"/>
			<g>
				<path fill="#1D1B3A" d="M1724.871,864.044c-33.189-3.065-66.523-4.586-99.823-5.868c-0.603-0.023-1.287,0.571-1.211,1.21
					c3.013,25.279,3.769,49.995,2.735,75.391c-0.026,0.655,0.571,1.216,1.211,1.21c29.082-0.268,58.131-0.373,87.199,0.708
					c0.707,0.026,1.148-0.574,1.211-1.21c0.93-9.607,2.041-19.199,3.258-28.773c1.727-13.571,2.972-28.096,7.473-41.102
					c0.512-1.479-1.828-2.11-2.336-0.644c-4.454,12.872-5.668,27.184-7.412,40.616c-1.292,9.947-2.438,19.918-3.404,29.902
					c0.404-0.403,0.808-0.807,1.211-1.21c-29.068-1.081-58.117-0.975-87.199-0.708c0.403,0.403,0.807,0.807,1.211,1.21
					c1.033-25.396,0.277-50.112-2.735-75.391c-0.403,0.403-0.808,0.807-1.211,1.21c33.3,1.282,66.634,2.802,99.823,5.868
					C1726.426,866.609,1726.412,864.186,1724.871,864.044L1724.871,864.044z"/>
			</g>
		</g>
		<g>
			<path fill="#F2C132" d="M1730.053,871.158c-37.504-3.496-85.556-5.833-97.605-6.296c1.23,35.874,0.657,50.387-3.687,70.475
				c33.488-0.306,53.616,3.586,87.041,4.849c0,0,12.229-51.444,17.718-66.812"/>
			<g>
				<path fill="#1D1B3A" d="M1730.053,869.947c-32.449-3-65.042-5.025-97.605-6.296c-0.644-0.025-1.232,0.57-1.211,1.21
					c0.796,23.571,1.314,46.974-3.643,70.153c-0.162,0.759,0.345,1.538,1.167,1.532c29.123-0.197,57.979,3.698,87.041,4.849
					c0.521,0.021,1.047-0.382,1.167-0.889c5.304-22.296,10.094-45.176,17.719-66.812c0.52-1.477-1.82-2.106-2.336-0.644
					c-7.077,20.087-11.552,41.287-16.553,61.963c-0.3,1.242-0.599,2.484-0.896,3.726c-0.463,1.934-0.743,0.17-2.973,0.074
					c-9.254-0.399-18.492-1.098-27.722-1.859c-18.476-1.524-36.892-2.955-55.447-2.829c0.39,0.511,0.778,1.021,1.167,1.532
					c5.004-23.395,4.533-47.001,3.73-70.796c-0.404,0.403-0.808,0.807-1.211,1.21c32.563,1.271,65.156,3.297,97.605,6.296
					C1731.607,872.512,1731.594,870.089,1730.053,869.947L1730.053,869.947z"/>
			</g>
		</g>
	</g>
	<g>
		<path fill="#F4EDE1" d="M1675.676,907.433c-4.919,2.175-20.901,5.267-23.191,10.232c-1.854,3.629-3.129,9.969-4.666,13.954
			c-1.201,2.978-9.883,11.737-6.455,14.222c5.378,3.901,12.314-5.59,13.883-10.918c0.782-2.328,5.263-10.894,9.027-9.756
			c3.071,0.8-3.381,6.605-4.811,8.577l-3.042,6.605c6.631,6.648,4.326,11.943,10.92,12.199c4.789,0.183,23.896-2.8,27.11-5.366
			c5.68-4.16-5.243-22.578-8.062-29.75"/>
		<g>
			<path fill="#1D1B3A" d="M1675.354,906.265c-4.428,1.836-9.178,2.886-13.704,4.46c-3.604,1.254-8.202,2.823-10.21,6.328
				c-3.136,5.47-3.057,12.091-6.812,17.286c-2.199,3.042-5.74,6.783-5.135,10.843c0.538,3.613,5.981,2.785,8.122,1.79
				c4.305-2,7.363-7.452,8.799-11.729c0.843-2.513,2.459-4.934,4.137-6.95c0.634-0.762,3.889-2.774,2.523-0.648
				c-0.821,1.279-1.98,2.409-3,3.532c-2.248,2.476-3.308,5.539-4.699,8.559c-0.237,0.517-0.209,1.036,0.189,1.467
				c3.062,3.31,4.148,7.847,7.205,10.989c1.783,1.833,4.866,1.629,7.179,1.477c7.348-0.482,15.027-1.752,22.033-4.021
				c13.008-4.212-1.471-25.288-4.425-32.54c-0.58-1.426-2.924-0.803-2.334,0.644c2.973,7.299,7.105,14.107,9.122,21.782
				c1.115,4.246,0.374,6.685-3.81,8.04c-3.781,1.224-7.772,1.894-11.683,2.551c-3.622,0.608-7.309,1.144-10.986,1.219
				c-5.127,0.104-5.785-6.014-8.371-9.274c-1.569-1.978-2.225-0.686-1.114-3.096c0.686-1.489,1.371-2.978,2.057-4.466
				c1.205-2.618,4.19-4.35,5.521-7.025c0.619-1.245,0.312-3.257-1.362-3.484c-2.854-0.386-4.719,1.335-6.468,3.438
				c-1.958,2.353-3.39,5.197-4.359,8.087c-0.808,2.407-2.429,4.656-4.043,6.572c-0.944,1.123-2.094,2.017-3.333,2.786
				c-2.562,1.592-5.071-0.51-3.821-3.129c1.56-3.267,4.209-5.906,6.044-9.007c2.535-4.287,2.809-9.926,4.914-14.471
				c1.624-3.504,7.739-4.89,11.021-5.984c3.796-1.265,7.746-2.157,11.447-3.691C1677.418,908.011,1676.796,905.667,1675.354,906.265
				L1675.354,906.265z"/>
		</g>
	</g>
	<g>
		<path fill="#1D1B3A" d="M1641.533,740.055c4.604,7.866,13.311,27.54,22.661,59.985c15.77,54.702,1.418,109.266-2.419,109.103
			c-3.795-0.174,24.864,8.057,24.864,8.057s13.848-48.41-5.875-121.993c-4.537-16.961-14.772-40.745-29.049-72.95"/>
		<g>
			<path fill="#1D1B3A" d="M1640.488,740.666c5.956,10.299,10.089,21.723,14.035,32.9c7.132,20.204,13.013,40.713,14.939,62.121
				c1.598,17.741,0.842,35.863-2.298,53.397c-0.914,5.107-2.069,10.222-3.806,15.118c-0.44,1.244-0.952,2.482-1.687,3.584
				c-0.046,0.069-0.915,0.126-1.287,0.819c-0.274,0.511-0.178,1.037,0.189,1.467c0.762,0.893,2.569,1.22,3.607,1.578
				c2.884,0.995,5.809,1.873,8.727,2.76c4.458,1.357,8.93,2.67,13.409,3.958c0.637,0.183,1.311-0.217,1.488-0.846
				c6.189-21.821,5.607-46.451,3.729-68.751c-1.858-22.062-5.994-44.368-13.149-65.342c-7.191-21.079-16.612-41.442-25.624-61.782
				c-0.632-1.425-2.718-0.192-2.092,1.222c8.938,20.17,18.148,40.341,25.381,61.204c7.19,20.743,11.107,42.878,13.063,64.698
				c1.975,22.036,2.473,46.547-3.642,68.108c0.496-0.282,0.992-0.564,1.488-0.846c-4.777-1.373-9.545-2.782-14.3-4.229
				c-2.819-0.858-5.636-1.73-8.422-2.691c-0.481-0.166-0.957-0.343-1.433-0.525c-2.17-0.832,3.274,1.753-1.031,1.767
				c0.479-0.001,0.943-0.216,1.294-0.535c2.884-2.619,3.761-8.293,4.659-11.817c2.27-8.894,3.449-18.083,4.221-27.215
				c2.31-27.339-1.339-54.087-9.316-80.243c-5.263-17.259-10.963-35.38-20.055-51.099
				C1641.797,738.093,1639.705,739.312,1640.488,740.666L1640.488,740.666z"/>
		</g>
	</g>
	<g>
		<g>
			<path fill="#1D1B3A" d="M1639.059,601.77c4.521,0.736,9.432,0.068,14.055,0.406c5.08,0.371,10.234,1.097,15.335,0.921
				c1.557-0.053,1.562-2.475,0-2.421c-4.265,0.146-8.575-0.389-12.821-0.727c-5.146-0.41-10.9,0.303-15.926-0.514
				C1638.175,599.187,1637.52,601.52,1639.059,601.77L1639.059,601.77z"/>
		</g>
	</g>
</g>
</svg>
